<?xml version="1.0" encoding="UTF-8" standalone="no"?>
<!DOCTYPE svg PUBLIC "-//W3C//DTD SVG 1.1//EN"
 "http://www.w3.org/Graphics/SVG/1.1/DTD/svg11.dtd">
<!-- Generated by graphviz version 2.43.0 (0)
 -->
<!-- Title: src/fw/drv/acquisition.hpp Pages: 1 -->
<svg width="1204pt" height="207pt"
 viewBox="0.00 0.00 1203.50 207.00" xmlns="http://www.w3.org/2000/svg" xmlns:xlink="http://www.w3.org/1999/xlink">
<g id="graph0" class="graph" transform="scale(1 1) rotate(0) translate(4 203)">
<title>src/fw/drv/acquisition.hpp</title>
<polygon fill="white" stroke="transparent" points="-4,4 -4,-203 1199.5,-203 1199.5,4 -4,4"/>
<!-- Node1 -->
<g id="node1" class="node">
<title>Node1</title>
<g id="a_node1"><a xlink:title=" ">
<polygon fill="#bfbfbf" stroke="black" points="617.5,-179.5 617.5,-198.5 758.5,-198.5 758.5,-179.5 617.5,-179.5"/>
<text text-anchor="middle" x="688" y="-186.5" font-family="Helvetica,sans-Serif" font-size="10.00">src/fw/drv/acquisition.hpp</text>
</a>
</g>
</g>
<!-- Node2 -->
<g id="node2" class="node">
<title>Node2</title>
<g id="a_node2"><a xlink:href="base_8hpp.html" target="_top" xlink:title=" ">
<polygon fill="white" stroke="black" points="262.5,-118 262.5,-137 323.5,-137 323.5,-118 262.5,-118"/>
<text text-anchor="middle" x="293" y="-125" font-family="Helvetica,sans-Serif" font-size="10.00">base.hpp</text>
</a>
</g>
</g>
<!-- Node1&#45;&gt;Node2 -->
<g id="edge1" class="edge">
<title>Node1&#45;&gt;Node2</title>
<path fill="none" stroke="midnightblue" d="M631.41,-179.48C550.85,-167.34 405.04,-145.38 334.05,-134.68"/>
<polygon fill="midnightblue" stroke="midnightblue" points="334.14,-131.16 323.73,-133.13 333.1,-138.08 334.14,-131.16"/>
</g>
<!-- Node9 -->
<g id="node8" class="node">
<title>Node9</title>
<g id="a_node8"><a xlink:href="drv_2callbacks_8hpp.html" target="_top" xlink:title=" ">
<polygon fill="white" stroke="black" points="497,-118 497,-137 613,-137 613,-118 497,-118"/>
<text text-anchor="middle" x="555" y="-125" font-family="Helvetica,sans-Serif" font-size="10.00">fw/drv/callbacks.hpp</text>
</a>
</g>
</g>
<!-- Node1&#45;&gt;Node9 -->
<g id="edge7" class="edge">
<title>Node1&#45;&gt;Node9</title>
<path fill="none" stroke="midnightblue" d="M668.94,-179.48C646.53,-169.45 609.09,-152.7 583.29,-141.15"/>
<polygon fill="midnightblue" stroke="midnightblue" points="584.58,-137.9 574.02,-137.01 581.72,-144.29 584.58,-137.9"/>
</g>
<!-- Node10 -->
<g id="node9" class="node">
<title>Node10</title>
<g id="a_node9"><a xlink:href="interfaces_8hpp.html" target="_top" xlink:title=" ">
<polygon fill="white" stroke="black" points="413.5,-56.5 413.5,-75.5 532.5,-75.5 532.5,-56.5 413.5,-56.5"/>
<text text-anchor="middle" x="473" y="-63.5" font-family="Helvetica,sans-Serif" font-size="10.00">fw/drv/interfaces.hpp</text>
</a>
</g>
</g>
<!-- Node1&#45;&gt;Node10 -->
<g id="edge13" class="edge">
<title>Node1&#45;&gt;Node10</title>
<path fill="none" stroke="midnightblue" d="M617.44,-180.31C567.35,-173.38 505.94,-161.42 488,-143 473.44,-128.05 471.02,-103.3 471.37,-86.12"/>
<polygon fill="midnightblue" stroke="midnightblue" points="474.89,-85.83 471.94,-75.65 467.9,-85.45 474.89,-85.83"/>
</g>
<!-- Node11 -->
<g id="node10" class="node">
<title>Node11</title>
<g id="a_node10"><a xlink:title=" ">
<polygon fill="white" stroke="#bfbfbf" points="579,-0.5 579,-19.5 619,-19.5 619,-0.5 579,-0.5"/>
<text text-anchor="middle" x="599" y="-7.5" font-family="Helvetica,sans-Serif" font-size="10.00">span</text>
</a>
</g>
</g>
<!-- Node1&#45;&gt;Node11 -->
<g id="edge17" class="edge">
<title>Node1&#45;&gt;Node11</title>
<path fill="none" stroke="midnightblue" d="M682.09,-179.23C676.18,-170.3 666.99,-155.96 660,-143 638.6,-103.34 617.39,-54.81 606.5,-29.06"/>
<polygon fill="midnightblue" stroke="midnightblue" points="609.6,-27.39 602.5,-19.52 603.14,-30.09 609.6,-27.39"/>
</g>
<!-- Node12 -->
<g id="node11" class="node">
<title>Node12</title>
<g id="a_node11"><a xlink:title=" ">
<polygon fill="white" stroke="#bfbfbf" points="669.5,-112.5 669.5,-142.5 802.5,-142.5 802.5,-112.5 669.5,-112.5"/>
<text text-anchor="start" x="677.5" y="-130.5" font-family="Helvetica,sans-Serif" font-size="10.00">emlabcpp/experimental</text>
<text text-anchor="middle" x="736" y="-119.5" font-family="Helvetica,sans-Serif" font-size="10.00">/function_view.h</text>
</a>
</g>
</g>
<!-- Node1&#45;&gt;Node12 -->
<g id="edge14" class="edge">
<title>Node1&#45;&gt;Node12</title>
<path fill="none" stroke="midnightblue" d="M694.88,-179.48C700.95,-171.94 710.08,-160.63 718.2,-150.57"/>
<polygon fill="midnightblue" stroke="midnightblue" points="721.13,-152.5 724.69,-142.52 715.68,-148.11 721.13,-152.5"/>
</g>
<!-- Node13 -->
<g id="node12" class="node">
<title>Node13</title>
<g id="a_node12"><a xlink:title=" ">
<polygon fill="white" stroke="#bfbfbf" points="820.5,-118 820.5,-137 959.5,-137 959.5,-118 820.5,-118"/>
<text text-anchor="middle" x="890" y="-125" font-family="Helvetica,sans-Serif" font-size="10.00">emlabcpp/static_vector.h</text>
</a>
</g>
</g>
<!-- Node1&#45;&gt;Node13 -->
<g id="edge15" class="edge">
<title>Node1&#45;&gt;Node13</title>
<path fill="none" stroke="midnightblue" d="M716.94,-179.48C752.27,-169.07 812.13,-151.44 851.36,-139.88"/>
<polygon fill="midnightblue" stroke="midnightblue" points="852.51,-143.19 861.11,-137.01 850.53,-136.48 852.51,-143.19"/>
</g>
<!-- Node14 -->
<g id="node13" class="node">
<title>Node14</title>
<g id="a_node13"><a xlink:title=" ">
<polygon fill="white" stroke="#bfbfbf" points="977.5,-118 977.5,-137 1076.5,-137 1076.5,-118 977.5,-118"/>
<text text-anchor="middle" x="1027" y="-125" font-family="Helvetica,sans-Serif" font-size="10.00">emlabcpp/view.h</text>
</a>
</g>
</g>
<!-- Node1&#45;&gt;Node14 -->
<g id="edge16" class="edge">
<title>Node1&#45;&gt;Node14</title>
<path fill="none" stroke="midnightblue" d="M751.06,-179.49C808.19,-171.4 894.58,-158.23 969,-143 974.14,-141.95 979.52,-140.74 984.83,-139.49"/>
<polygon fill="midnightblue" stroke="midnightblue" points="986.01,-142.81 994.9,-137.05 984.36,-136.01 986.01,-142.81"/>
</g>
<!-- Node15 -->
<g id="node14" class="node">
<title>Node15</title>
<g id="a_node14"><a xlink:title=" ">
<polygon fill="white" stroke="#bfbfbf" points="1094.5,-118 1094.5,-137 1195.5,-137 1195.5,-118 1094.5,-118"/>
<text text-anchor="middle" x="1145" y="-125" font-family="Helvetica,sans-Serif" font-size="10.00">stm32g4xx_hal.h</text>
</a>
</g>
</g>
<!-- Node1&#45;&gt;Node15 -->
<g id="edge18" class="edge">
<title>Node1&#45;&gt;Node15</title>
<path fill="none" stroke="midnightblue" d="M758.85,-182.75C838.75,-176.2 972.37,-163.3 1086,-143 1091.79,-141.97 1097.85,-140.7 1103.8,-139.34"/>
<polygon fill="midnightblue" stroke="midnightblue" points="1104.7,-142.72 1113.62,-137 1103.08,-135.91 1104.7,-142.72"/>
</g>
<!-- Node3 -->
<g id="node3" class="node">
<title>Node3</title>
<g id="a_node3"><a xlink:href="scaled_8hpp.html" target="_top" xlink:title=" ">
<polygon fill="white" stroke="red" points="219.5,-56.5 219.5,-75.5 288.5,-75.5 288.5,-56.5 219.5,-56.5"/>
<text text-anchor="middle" x="254" y="-63.5" font-family="Helvetica,sans-Serif" font-size="10.00">scaled.hpp</text>
</a>
</g>
</g>
<!-- Node2&#45;&gt;Node3 -->
<g id="edge2" class="edge">
<title>Node2&#45;&gt;Node3</title>
<path fill="none" stroke="midnightblue" d="M287.41,-117.98C281.62,-109.14 272.41,-95.09 265.13,-83.98"/>
<polygon fill="midnightblue" stroke="midnightblue" points="267.99,-81.95 259.58,-75.51 262.13,-85.79 267.99,-81.95"/>
</g>
<!-- Node5 -->
<g id="node4" class="node">
<title>Node5</title>
<g id="a_node4"><a xlink:title=" ">
<polygon fill="white" stroke="#bfbfbf" points="307,-56.5 307,-75.5 357,-75.5 357,-56.5 307,-56.5"/>
<text text-anchor="middle" x="332" y="-63.5" font-family="Helvetica,sans-Serif" font-size="10.00">chrono</text>
</a>
</g>
</g>
<!-- Node2&#45;&gt;Node5 -->
<g id="edge3" class="edge">
<title>Node2&#45;&gt;Node5</title>
<path fill="none" stroke="midnightblue" d="M298.59,-117.98C304.38,-109.14 313.59,-95.09 320.87,-83.98"/>
<polygon fill="midnightblue" stroke="midnightblue" points="323.87,-85.79 326.42,-75.51 318.01,-81.95 323.87,-85.79"/>
</g>
<!-- Node6 -->
<g id="node5" class="node">
<title>Node6</title>
<g id="a_node5"><a xlink:title=" ">
<polygon fill="white" stroke="#bfbfbf" points="448,-0.5 448,-19.5 498,-19.5 498,-0.5 448,-0.5"/>
<text text-anchor="middle" x="473" y="-7.5" font-family="Helvetica,sans-Serif" font-size="10.00">cstdint</text>
</a>
</g>
</g>
<!-- Node2&#45;&gt;Node6 -->
<g id="edge4" class="edge">
<title>Node2&#45;&gt;Node6</title>
<path fill="none" stroke="midnightblue" d="M306.53,-117.82C337.28,-98.09 412.69,-49.7 450.55,-25.41"/>
<polygon fill="midnightblue" stroke="midnightblue" points="452.79,-28.13 459.31,-19.78 449.01,-22.24 452.79,-28.13"/>
</g>
<!-- Node7 -->
<g id="node6" class="node">
<title>Node7</title>
<g id="a_node6"><a xlink:title=" ">
<polygon fill="white" stroke="#bfbfbf" points="0,-56.5 0,-75.5 124,-75.5 124,-56.5 0,-56.5"/>
<text text-anchor="middle" x="62" y="-63.5" font-family="Helvetica,sans-Serif" font-size="10.00">emlabcpp/algorithm.h</text>
</a>
</g>
</g>
<!-- Node2&#45;&gt;Node7 -->
<g id="edge5" class="edge">
<title>Node2&#45;&gt;Node7</title>
<path fill="none" stroke="midnightblue" d="M262.32,-118.6C221.93,-108.2 150.7,-89.85 104.96,-78.07"/>
<polygon fill="midnightblue" stroke="midnightblue" points="105.6,-74.62 95.04,-75.51 103.86,-81.4 105.6,-74.62"/>
</g>
<!-- Node8 -->
<g id="node7" class="node">
<title>Node8</title>
<g id="a_node7"><a xlink:title=" ">
<polygon fill="white" stroke="#bfbfbf" points="142.5,-56.5 142.5,-75.5 201.5,-75.5 201.5,-56.5 142.5,-56.5"/>
<text text-anchor="middle" x="172" y="-63.5" font-family="Helvetica,sans-Serif" font-size="10.00">numbers</text>
</a>
</g>
</g>
<!-- Node2&#45;&gt;Node8 -->
<g id="edge6" class="edge">
<title>Node2&#45;&gt;Node8</title>
<path fill="none" stroke="midnightblue" d="M275.66,-117.98C255.45,-108.03 221.81,-91.49 198.36,-79.96"/>
<polygon fill="midnightblue" stroke="midnightblue" points="199.82,-76.78 189.3,-75.51 196.73,-83.06 199.82,-76.78"/>
</g>
<!-- Node9&#45;&gt;Node6 -->
<g id="edge11" class="edge">
<title>Node9&#45;&gt;Node6</title>
<path fill="none" stroke="midnightblue" d="M555.33,-117.89C555.46,-103.76 553.93,-75.27 541,-56 531.77,-42.25 516.77,-31.67 503.21,-24.23"/>
<polygon fill="midnightblue" stroke="midnightblue" points="504.63,-21.03 494.13,-19.58 501.44,-27.26 504.63,-21.03"/>
</g>
<!-- Node9&#45;&gt;Node10 -->
<g id="edge8" class="edge">
<title>Node9&#45;&gt;Node10</title>
<path fill="none" stroke="midnightblue" d="M543.25,-117.98C530.22,-108.52 508.96,-93.1 493.24,-81.69"/>
<polygon fill="midnightblue" stroke="midnightblue" points="494.88,-78.55 484.73,-75.51 490.77,-84.21 494.88,-78.55"/>
</g>
<!-- Node9&#45;&gt;Node11 -->
<g id="edge12" class="edge">
<title>Node9&#45;&gt;Node11</title>
<path fill="none" stroke="midnightblue" d="M558.46,-117.95C562.49,-107.92 569.34,-90.8 575,-76 580.98,-60.38 587.54,-42.55 592.29,-29.52"/>
<polygon fill="midnightblue" stroke="midnightblue" points="595.68,-30.45 595.8,-19.86 589.1,-28.06 595.68,-30.45"/>
</g>
<!-- Node10&#45;&gt;Node6 -->
<g id="edge9" class="edge">
<title>Node10&#45;&gt;Node6</title>
<path fill="none" stroke="midnightblue" d="M473,-56.08C473,-49.01 473,-38.86 473,-29.99"/>
<polygon fill="midnightblue" stroke="midnightblue" points="476.5,-29.75 473,-19.75 469.5,-29.75 476.5,-29.75"/>
</g>
<!-- Node10&#45;&gt;Node11 -->
<g id="edge10" class="edge">
<title>Node10&#45;&gt;Node11</title>
<path fill="none" stroke="midnightblue" d="M492.97,-56.44C513.61,-47.6 546.06,-33.69 569.63,-23.59"/>
<polygon fill="midnightblue" stroke="midnightblue" points="571.32,-26.67 579.13,-19.52 568.56,-20.24 571.32,-26.67"/>
</g>
</g>
</svg>
