<?xml version="1.0" encoding="UTF-8" standalone="no"?>
<!DOCTYPE svg PUBLIC "-//W3C//DTD SVG 1.1//EN"
 "http://www.w3.org/Graphics/SVG/1.1/DTD/svg11.dtd">
<!-- Generated by graphviz version 2.43.0 (0)
 -->
<!-- Title: src/fw/drv/acquisition.hpp Pages: 1 -->
<svg width="1237pt" height="207pt"
 viewBox="0.00 0.00 1237.00 207.00" xmlns="http://www.w3.org/2000/svg" xmlns:xlink="http://www.w3.org/1999/xlink">
<g id="graph0" class="graph" transform="scale(1 1) rotate(0) translate(4 203)">
<title>src/fw/drv/acquisition.hpp</title>
<polygon fill="white" stroke="transparent" points="-4,4 -4,-203 1233,-203 1233,4 -4,4"/>
<!-- Node1 -->
<g id="node1" class="node">
<title>Node1</title>
<g id="a_node1"><a xlink:title=" ">
<polygon fill="#bfbfbf" stroke="black" points="649,-179.5 649,-198.5 790,-198.5 790,-179.5 649,-179.5"/>
<text text-anchor="middle" x="719.5" y="-186.5" font-family="Helvetica,sans-Serif" font-size="10.00">src/fw/drv/acquisition.hpp</text>
</a>
</g>
</g>
<!-- Node2 -->
<g id="node2" class="node">
<title>Node2</title>
<g id="a_node2"><a xlink:href="base_8hpp.html" target="_top" xlink:title=" ">
<polygon fill="white" stroke="black" points="212,-118 212,-137 273,-137 273,-118 212,-118"/>
<text text-anchor="middle" x="242.5" y="-125" font-family="Helvetica,sans-Serif" font-size="10.00">base.hpp</text>
</a>
</g>
</g>
<!-- Node1&#45;&gt;Node2 -->
<g id="edge1" class="edge">
<title>Node1&#45;&gt;Node2</title>
<path fill="none" stroke="midnightblue" d="M651.16,-179.48C550.47,-166.92 365.35,-143.82 283.39,-133.6"/>
<polygon fill="midnightblue" stroke="midnightblue" points="283.58,-130.1 273.22,-132.33 282.71,-137.04 283.58,-130.1"/>
</g>
<!-- Node9 -->
<g id="node8" class="node">
<title>Node9</title>
<g id="a_node8"><a xlink:href="drv__interfaces_8hpp.html" target="_top" xlink:title=" ">
<polygon fill="white" stroke="black" points="451,-56.5 451,-75.5 558,-75.5 558,-56.5 451,-56.5"/>
<text text-anchor="middle" x="504.5" y="-63.5" font-family="Helvetica,sans-Serif" font-size="10.00">drv_interfaces.hpp</text>
</a>
</g>
</g>
<!-- Node1&#45;&gt;Node9 -->
<g id="edge7" class="edge">
<title>Node1&#45;&gt;Node9</title>
<path fill="none" stroke="midnightblue" d="M694.05,-179.41C671.46,-171.34 637.87,-158.24 610.5,-143 589.92,-131.54 586.64,-125.74 567.5,-112 553.26,-101.78 537.19,-90.3 524.84,-81.5"/>
<polygon fill="midnightblue" stroke="midnightblue" points="526.76,-78.57 516.59,-75.61 522.7,-84.27 526.76,-78.57"/>
</g>
<!-- Node11 -->
<g id="node10" class="node">
<title>Node11</title>
<g id="a_node10"><a xlink:title=" ">
<polygon fill="white" stroke="#bfbfbf" points="579.5,-0.5 579.5,-19.5 619.5,-19.5 619.5,-0.5 579.5,-0.5"/>
<text text-anchor="middle" x="599.5" y="-7.5" font-family="Helvetica,sans-Serif" font-size="10.00">span</text>
</a>
</g>
</g>
<!-- Node1&#45;&gt;Node11 -->
<g id="edge18" class="edge">
<title>Node1&#45;&gt;Node11</title>
<path fill="none" stroke="midnightblue" d="M696.2,-179.41C679.37,-172.11 657.27,-160.06 643.5,-143 616.16,-109.12 605.5,-57.51 601.6,-29.93"/>
<polygon fill="midnightblue" stroke="midnightblue" points="605.03,-29.19 600.3,-19.71 598.08,-30.07 605.03,-29.19"/>
</g>
<!-- Node12 -->
<g id="node11" class="node">
<title>Node12</title>
<g id="a_node11"><a xlink:href="drv_2callbacks_8hpp.html" target="_top" xlink:title=" ">
<polygon fill="white" stroke="black" points="442.5,-118 442.5,-137 558.5,-137 558.5,-118 442.5,-118"/>
<text text-anchor="middle" x="500.5" y="-125" font-family="Helvetica,sans-Serif" font-size="10.00">fw/drv/callbacks.hpp</text>
</a>
</g>
</g>
<!-- Node1&#45;&gt;Node12 -->
<g id="edge11" class="edge">
<title>Node1&#45;&gt;Node12</title>
<path fill="none" stroke="midnightblue" d="M688.12,-179.48C649.58,-169 584.09,-151.21 541.58,-139.66"/>
<polygon fill="midnightblue" stroke="midnightblue" points="542.39,-136.25 531.82,-137.01 540.55,-143.01 542.39,-136.25"/>
</g>
<!-- Node13 -->
<g id="node12" class="node">
<title>Node13</title>
<g id="a_node12"><a xlink:title=" ">
<polygon fill="white" stroke="#bfbfbf" points="653,-112.5 653,-142.5 786,-142.5 786,-112.5 653,-112.5"/>
<text text-anchor="start" x="661" y="-130.5" font-family="Helvetica,sans-Serif" font-size="10.00">emlabcpp/experimental</text>
<text text-anchor="middle" x="719.5" y="-119.5" font-family="Helvetica,sans-Serif" font-size="10.00">/function_view.h</text>
</a>
</g>
</g>
<!-- Node1&#45;&gt;Node13 -->
<g id="edge15" class="edge">
<title>Node1&#45;&gt;Node13</title>
<path fill="none" stroke="midnightblue" d="M719.5,-179.48C719.5,-172.47 719.5,-162.19 719.5,-152.7"/>
<polygon fill="midnightblue" stroke="midnightblue" points="723,-152.52 719.5,-142.52 716,-152.52 723,-152.52"/>
</g>
<!-- Node14 -->
<g id="node13" class="node">
<title>Node14</title>
<g id="a_node13"><a xlink:title=" ">
<polygon fill="white" stroke="#bfbfbf" points="804,-118 804,-137 943,-137 943,-118 804,-118"/>
<text text-anchor="middle" x="873.5" y="-125" font-family="Helvetica,sans-Serif" font-size="10.00">emlabcpp/static_vector.h</text>
</a>
</g>
</g>
<!-- Node1&#45;&gt;Node14 -->
<g id="edge16" class="edge">
<title>Node1&#45;&gt;Node14</title>
<path fill="none" stroke="midnightblue" d="M741.56,-179.48C767.87,-169.31 812.01,-152.26 841.92,-140.7"/>
<polygon fill="midnightblue" stroke="midnightblue" points="843.41,-143.88 851.48,-137.01 840.89,-137.35 843.41,-143.88"/>
</g>
<!-- Node15 -->
<g id="node14" class="node">
<title>Node15</title>
<g id="a_node14"><a xlink:title=" ">
<polygon fill="white" stroke="#bfbfbf" points="961,-118 961,-137 1060,-137 1060,-118 961,-118"/>
<text text-anchor="middle" x="1010.5" y="-125" font-family="Helvetica,sans-Serif" font-size="10.00">emlabcpp/view.h</text>
</a>
</g>
</g>
<!-- Node1&#45;&gt;Node15 -->
<g id="edge17" class="edge">
<title>Node1&#45;&gt;Node15</title>
<path fill="none" stroke="midnightblue" d="M767.18,-179.46C814.19,-170.88 887.99,-156.96 951.5,-143 956.52,-141.9 961.77,-140.69 966.98,-139.45"/>
<polygon fill="midnightblue" stroke="midnightblue" points="967.97,-142.81 976.87,-137.07 966.33,-136.01 967.97,-142.81"/>
</g>
<!-- Node16 -->
<g id="node15" class="node">
<title>Node16</title>
<g id="a_node15"><a xlink:title=" ">
<polygon fill="white" stroke="#bfbfbf" points="1128,-0.5 1128,-19.5 1229,-19.5 1229,-0.5 1128,-0.5"/>
<text text-anchor="middle" x="1178.5" y="-7.5" font-family="Helvetica,sans-Serif" font-size="10.00">stm32g4xx_hal.h</text>
</a>
</g>
</g>
<!-- Node1&#45;&gt;Node16 -->
<g id="edge19" class="edge">
<title>Node1&#45;&gt;Node16</title>
<path fill="none" stroke="midnightblue" d="M790.32,-186.45C916.33,-182.96 1168.79,-172.35 1195.5,-143 1224.17,-111.49 1202.73,-56.91 1188.48,-28.82"/>
<polygon fill="midnightblue" stroke="midnightblue" points="1191.45,-26.95 1183.67,-19.77 1185.27,-30.24 1191.45,-26.95"/>
</g>
<!-- Node17 -->
<g id="node16" class="node">
<title>Node17</title>
<g id="a_node16"><a xlink:href="acquisition__inl_8hpp.html" target="_top" xlink:title=" ">
<polygon fill="white" stroke="black" points="1078.5,-118 1078.5,-137 1186.5,-137 1186.5,-118 1078.5,-118"/>
<text text-anchor="middle" x="1132.5" y="-125" font-family="Helvetica,sans-Serif" font-size="10.00">acquisition_inl.hpp</text>
</a>
</g>
</g>
<!-- Node1&#45;&gt;Node17 -->
<g id="edge20" class="edge">
<title>Node1&#45;&gt;Node17</title>
<path fill="none" stroke="midnightblue" d="M790.2,-180.97C861.12,-173.44 973.31,-160.21 1069.5,-143 1075.66,-141.9 1082.13,-140.59 1088.48,-139.21"/>
<polygon fill="midnightblue" stroke="midnightblue" points="1089.3,-142.61 1098.29,-137.02 1087.77,-135.78 1089.3,-142.61"/>
</g>
<!-- Node3 -->
<g id="node3" class="node">
<title>Node3</title>
<g id="a_node3"><a xlink:href="scaled_8hpp.html" target="_top" xlink:title=" ">
<polygon fill="white" stroke="red" points="77,-56.5 77,-75.5 146,-75.5 146,-56.5 77,-56.5"/>
<text text-anchor="middle" x="111.5" y="-63.5" font-family="Helvetica,sans-Serif" font-size="10.00">scaled.hpp</text>
</a>
</g>
</g>
<!-- Node2&#45;&gt;Node3 -->
<g id="edge2" class="edge">
<title>Node2&#45;&gt;Node3</title>
<path fill="none" stroke="midnightblue" d="M223.73,-117.98C201.65,-107.95 164.78,-91.2 139.36,-79.65"/>
<polygon fill="midnightblue" stroke="midnightblue" points="140.79,-76.46 130.23,-75.51 137.89,-82.83 140.79,-76.46"/>
</g>
<!-- Node5 -->
<g id="node4" class="node">
<title>Node5</title>
<g id="a_node4"><a xlink:title=" ">
<polygon fill="white" stroke="#bfbfbf" points="164.5,-56.5 164.5,-75.5 214.5,-75.5 214.5,-56.5 164.5,-56.5"/>
<text text-anchor="middle" x="189.5" y="-63.5" font-family="Helvetica,sans-Serif" font-size="10.00">chrono</text>
</a>
</g>
</g>
<!-- Node2&#45;&gt;Node5 -->
<g id="edge3" class="edge">
<title>Node2&#45;&gt;Node5</title>
<path fill="none" stroke="midnightblue" d="M234.91,-117.98C226.8,-108.87 213.77,-94.24 203.74,-82.98"/>
<polygon fill="midnightblue" stroke="midnightblue" points="206.34,-80.65 197.08,-75.51 201.12,-85.3 206.34,-80.65"/>
</g>
<!-- Node6 -->
<g id="node5" class="node">
<title>Node6</title>
<g id="a_node5"><a xlink:title=" ">
<polygon fill="white" stroke="#bfbfbf" points="379.5,-0.5 379.5,-19.5 429.5,-19.5 429.5,-0.5 379.5,-0.5"/>
<text text-anchor="middle" x="404.5" y="-7.5" font-family="Helvetica,sans-Serif" font-size="10.00">cstdint</text>
</a>
</g>
</g>
<!-- Node2&#45;&gt;Node6 -->
<g id="edge4" class="edge">
<title>Node2&#45;&gt;Node6</title>
<path fill="none" stroke="midnightblue" d="M273.2,-119.73C300.01,-112.56 338.72,-99.02 365.5,-76 380.28,-63.3 391.01,-43.55 397.43,-29.15"/>
<polygon fill="midnightblue" stroke="midnightblue" points="400.71,-30.36 401.34,-19.79 394.25,-27.67 400.71,-30.36"/>
</g>
<!-- Node7 -->
<g id="node6" class="node">
<title>Node7</title>
<g id="a_node6"><a xlink:title=" ">
<polygon fill="white" stroke="#bfbfbf" points="232.5,-56.5 232.5,-75.5 356.5,-75.5 356.5,-56.5 232.5,-56.5"/>
<text text-anchor="middle" x="294.5" y="-63.5" font-family="Helvetica,sans-Serif" font-size="10.00">emlabcpp/algorithm.h</text>
</a>
</g>
</g>
<!-- Node2&#45;&gt;Node7 -->
<g id="edge5" class="edge">
<title>Node2&#45;&gt;Node7</title>
<path fill="none" stroke="midnightblue" d="M249.95,-117.98C257.83,-108.96 270.44,-94.52 280.24,-83.31"/>
<polygon fill="midnightblue" stroke="midnightblue" points="283.12,-85.34 287.06,-75.51 277.85,-80.74 283.12,-85.34"/>
</g>
<!-- Node8 -->
<g id="node7" class="node">
<title>Node8</title>
<g id="a_node7"><a xlink:title=" ">
<polygon fill="white" stroke="#bfbfbf" points="0,-56.5 0,-75.5 59,-75.5 59,-56.5 0,-56.5"/>
<text text-anchor="middle" x="29.5" y="-63.5" font-family="Helvetica,sans-Serif" font-size="10.00">numbers</text>
</a>
</g>
</g>
<!-- Node2&#45;&gt;Node8 -->
<g id="edge6" class="edge">
<title>Node2&#45;&gt;Node8</title>
<path fill="none" stroke="midnightblue" d="M211.98,-117.98C174.36,-107.47 110.35,-89.59 69.01,-78.04"/>
<polygon fill="midnightblue" stroke="midnightblue" points="69.85,-74.64 59.27,-75.32 67.96,-81.38 69.85,-74.64"/>
</g>
<!-- Node9&#45;&gt;Node6 -->
<g id="edge9" class="edge">
<title>Node9&#45;&gt;Node6</title>
<path fill="none" stroke="midnightblue" d="M488.43,-56.32C472.54,-47.74 447.99,-34.49 429.54,-24.52"/>
<polygon fill="midnightblue" stroke="midnightblue" points="430.99,-21.33 420.53,-19.65 427.66,-27.49 430.99,-21.33"/>
</g>
<!-- Node10 -->
<g id="node9" class="node">
<title>Node10</title>
<g id="a_node9"><a xlink:href="status__category_8hpp.html" target="_top" xlink:title=" ">
<polygon fill="white" stroke="black" points="447.5,-0.5 447.5,-19.5 561.5,-19.5 561.5,-0.5 447.5,-0.5"/>
<text text-anchor="middle" x="504.5" y="-7.5" font-family="Helvetica,sans-Serif" font-size="10.00">status_category.hpp</text>
</a>
</g>
</g>
<!-- Node9&#45;&gt;Node10 -->
<g id="edge8" class="edge">
<title>Node9&#45;&gt;Node10</title>
<path fill="none" stroke="midnightblue" d="M504.5,-56.08C504.5,-49.01 504.5,-38.86 504.5,-29.99"/>
<polygon fill="midnightblue" stroke="midnightblue" points="508,-29.75 504.5,-19.75 501,-29.75 508,-29.75"/>
</g>
<!-- Node9&#45;&gt;Node11 -->
<g id="edge10" class="edge">
<title>Node9&#45;&gt;Node11</title>
<path fill="none" stroke="midnightblue" d="M519.76,-56.32C534.72,-47.82 557.75,-34.73 575.23,-24.8"/>
<polygon fill="midnightblue" stroke="midnightblue" points="577.31,-27.64 584.27,-19.65 573.85,-21.55 577.31,-27.64"/>
</g>
<!-- Node12&#45;&gt;Node6 -->
<g id="edge13" class="edge">
<title>Node12&#45;&gt;Node6</title>
<path fill="none" stroke="midnightblue" d="M488.1,-117.89C475.34,-108.59 455.41,-92.84 441.5,-76 429.51,-61.48 419.23,-42.55 412.57,-28.87"/>
<polygon fill="midnightblue" stroke="midnightblue" points="415.63,-27.15 408.22,-19.59 409.3,-30.13 415.63,-27.15"/>
</g>
<!-- Node12&#45;&gt;Node9 -->
<g id="edge12" class="edge">
<title>Node12&#45;&gt;Node9</title>
<path fill="none" stroke="midnightblue" d="M501.07,-117.98C501.64,-109.58 502.52,-96.48 503.25,-85.66"/>
<polygon fill="midnightblue" stroke="midnightblue" points="506.75,-85.72 503.93,-75.51 499.76,-85.25 506.75,-85.72"/>
</g>
<!-- Node12&#45;&gt;Node11 -->
<g id="edge14" class="edge">
<title>Node12&#45;&gt;Node11</title>
<path fill="none" stroke="midnightblue" d="M515.43,-117.84C529.92,-108.85 551.83,-93.64 566.5,-76 578.24,-61.89 587.27,-42.9 592.89,-29.1"/>
<polygon fill="midnightblue" stroke="midnightblue" points="596.18,-30.3 596.51,-19.71 589.65,-27.78 596.18,-30.3"/>
</g>
<!-- Node18 -->
<g id="node17" class="node">
<title>Node18</title>
<g id="a_node17"><a xlink:href="util_8hpp.html" target="_top" xlink:title=" ">
<polygon fill="white" stroke="red" points="1108.5,-56.5 1108.5,-75.5 1176.5,-75.5 1176.5,-56.5 1108.5,-56.5"/>
<text text-anchor="middle" x="1142.5" y="-63.5" font-family="Helvetica,sans-Serif" font-size="10.00">fw/util.hpp</text>
</a>
</g>
</g>
<!-- Node17&#45;&gt;Node18 -->
<g id="edge21" class="edge">
<title>Node17&#45;&gt;Node18</title>
<path fill="none" stroke="midnightblue" d="M1133.93,-117.98C1135.34,-109.58 1137.55,-96.48 1139.36,-85.66"/>
<polygon fill="midnightblue" stroke="midnightblue" points="1142.86,-85.95 1141.07,-75.51 1135.96,-84.79 1142.86,-85.95"/>
</g>
<!-- Node18&#45;&gt;Node16 -->
<g id="edge22" class="edge">
<title>Node18&#45;&gt;Node16</title>
<path fill="none" stroke="midnightblue" d="M1148.44,-56.08C1153.48,-48.53 1160.84,-37.49 1167.01,-28.23"/>
<polygon fill="midnightblue" stroke="midnightblue" points="1170.03,-30.01 1172.67,-19.75 1164.21,-26.13 1170.03,-30.01"/>
</g>
</g>
</svg>
