<?xml version="1.0" encoding="UTF-8" standalone="no"?>
<!DOCTYPE svg PUBLIC "-//W3C//DTD SVG 1.1//EN"
 "http://www.w3.org/Graphics/SVG/1.1/DTD/svg11.dtd">
<!-- Generated by graphviz version 2.43.0 (0)
 -->
<!-- Title: src/fw/drv/acquisition_inl.hpp Pages: 1 -->
<svg width="260pt" height="151pt"
 viewBox="0.00 0.00 259.50 151.00" xmlns="http://www.w3.org/2000/svg" xmlns:xlink="http://www.w3.org/1999/xlink">
<g id="graph0" class="graph" transform="scale(1 1) rotate(0) translate(4 147)">
<title>src/fw/drv/acquisition_inl.hpp</title>
<polygon fill="white" stroke="transparent" points="-4,4 -4,-147 255.5,-147 255.5,4 -4,4"/>
<!-- Node1 -->
<g id="node1" class="node">
<title>Node1</title>
<g id="a_node1"><a xlink:title=" ">
<polygon fill="#bfbfbf" stroke="black" points="47,-112.5 47,-142.5 167,-142.5 167,-112.5 47,-112.5"/>
<text text-anchor="start" x="55" y="-130.5" font-family="Helvetica,sans-Serif" font-size="10.00">src/fw/drv/acquisition</text>
<text text-anchor="middle" x="107" y="-119.5" font-family="Helvetica,sans-Serif" font-size="10.00">_inl.hpp</text>
</a>
</g>
</g>
<!-- Node2 -->
<g id="node2" class="node">
<title>Node2</title>
<g id="a_node2"><a xlink:href="util_8hpp.html" target="_top" xlink:title=" ">
<polygon fill="white" stroke="black" points="73,-56.5 73,-75.5 141,-75.5 141,-56.5 73,-56.5"/>
<text text-anchor="middle" x="107" y="-63.5" font-family="Helvetica,sans-Serif" font-size="10.00">fw/util.hpp</text>
</a>
</g>
</g>
<!-- Node1&#45;&gt;Node2 -->
<g id="edge1" class="edge">
<title>Node1&#45;&gt;Node2</title>
<path fill="none" stroke="midnightblue" d="M107,-112.4C107,-104.47 107,-94.46 107,-85.86"/>
<polygon fill="midnightblue" stroke="midnightblue" points="110.5,-85.66 107,-75.66 103.5,-85.66 110.5,-85.66"/>
</g>
<!-- Node3 -->
<g id="node3" class="node">
<title>Node3</title>
<g id="a_node3"><a xlink:title=" ">
<polygon fill="white" stroke="#bfbfbf" points="0,-0.5 0,-19.5 64,-19.5 64,-0.5 0,-0.5"/>
<text text-anchor="middle" x="32" y="-7.5" font-family="Helvetica,sans-Serif" font-size="10.00">algorithm</text>
</a>
</g>
</g>
<!-- Node2&#45;&gt;Node3 -->
<g id="edge2" class="edge">
<title>Node2&#45;&gt;Node3</title>
<path fill="none" stroke="midnightblue" d="M94.95,-56.32C83.54,-48.11 66.17,-35.6 52.57,-25.81"/>
<polygon fill="midnightblue" stroke="midnightblue" points="54.43,-22.84 44.27,-19.83 50.34,-28.52 54.43,-22.84"/>
</g>
<!-- Node4 -->
<g id="node4" class="node">
<title>Node4</title>
<g id="a_node4"><a xlink:title=" ">
<polygon fill="white" stroke="#bfbfbf" points="82,-0.5 82,-19.5 132,-19.5 132,-0.5 82,-0.5"/>
<text text-anchor="middle" x="107" y="-7.5" font-family="Helvetica,sans-Serif" font-size="10.00">cstring</text>
</a>
</g>
</g>
<!-- Node2&#45;&gt;Node4 -->
<g id="edge3" class="edge">
<title>Node2&#45;&gt;Node4</title>
<path fill="none" stroke="midnightblue" d="M107,-56.08C107,-49.01 107,-38.86 107,-29.99"/>
<polygon fill="midnightblue" stroke="midnightblue" points="110.5,-29.75 107,-19.75 103.5,-29.75 110.5,-29.75"/>
</g>
<!-- Node5 -->
<g id="node5" class="node">
<title>Node5</title>
<g id="a_node5"><a xlink:title=" ">
<polygon fill="white" stroke="#bfbfbf" points="150.5,-0.5 150.5,-19.5 251.5,-19.5 251.5,-0.5 150.5,-0.5"/>
<text text-anchor="middle" x="201" y="-7.5" font-family="Helvetica,sans-Serif" font-size="10.00">stm32g4xx_hal.h</text>
</a>
</g>
</g>
<!-- Node2&#45;&gt;Node5 -->
<g id="edge4" class="edge">
<title>Node2&#45;&gt;Node5</title>
<path fill="none" stroke="midnightblue" d="M122.1,-56.32C136.9,-47.82 159.69,-34.73 176.98,-24.8"/>
<polygon fill="midnightblue" stroke="midnightblue" points="179.01,-27.67 185.93,-19.65 175.52,-21.6 179.01,-27.67"/>
</g>
</g>
</svg>
