<?xml version="1.0" encoding="UTF-8" standalone="no"?>
<!DOCTYPE svg PUBLIC "-//W3C//DTD SVG 1.1//EN"
 "http://www.w3.org/Graphics/SVG/1.1/DTD/svg11.dtd">
<!-- Generated by graphviz version 2.43.0 (0)
 -->
<!-- Title: src/drv/adc_pooler_def.hpp Pages: 1 -->
<svg width="373pt" height="207pt"
 viewBox="0.00 0.00 373.00 207.00" xmlns="http://www.w3.org/2000/svg" xmlns:xlink="http://www.w3.org/1999/xlink">
<g id="graph0" class="graph" transform="scale(1 1) rotate(0) translate(4 203)">
<title>src/drv/adc_pooler_def.hpp</title>
<polygon fill="white" stroke="transparent" points="-4,4 -4,-203 369,-203 369,4 -4,4"/>
<!-- Node1 -->
<g id="node1" class="node">
<title>Node1</title>
<g id="a_node1"><a xlink:title=" ">
<polygon fill="#bfbfbf" stroke="black" points="211,-168.5 211,-198.5 317,-198.5 317,-168.5 211,-168.5"/>
<text text-anchor="start" x="219" y="-186.5" font-family="Helvetica,sans-Serif" font-size="10.00">src/drv/adc_pooler</text>
<text text-anchor="middle" x="264" y="-175.5" font-family="Helvetica,sans-Serif" font-size="10.00">_def.hpp</text>
</a>
</g>
</g>
<!-- Node2 -->
<g id="node2" class="node">
<title>Node2</title>
<g id="a_node2"><a xlink:href="adc__pooler_8hpp.html" target="_top" xlink:title=" ">
<polygon fill="white" stroke="black" points="178,-112.5 178,-131.5 274,-131.5 274,-112.5 178,-112.5"/>
<text text-anchor="middle" x="226" y="-119.5" font-family="Helvetica,sans-Serif" font-size="10.00">./adc_pooler.hpp</text>
</a>
</g>
</g>
<!-- Node1&#45;&gt;Node2 -->
<g id="edge1" class="edge">
<title>Node1&#45;&gt;Node2</title>
<path fill="none" stroke="midnightblue" d="M254.99,-168.4C249.59,-159.93 242.67,-149.1 236.95,-140.14"/>
<polygon fill="midnightblue" stroke="midnightblue" points="239.86,-138.2 231.53,-131.66 233.96,-141.97 239.86,-138.2"/>
</g>
<!-- Node18 -->
<g id="node6" class="node">
<title>Node18</title>
<g id="a_node6"><a xlink:href="interfaces_8hpp.html" target="_top" xlink:title=" ">
<polygon fill="white" stroke="red" points="273,-0.5 273,-19.5 365,-19.5 365,-0.5 273,-0.5"/>
<text text-anchor="middle" x="319" y="-7.5" font-family="Helvetica,sans-Serif" font-size="10.00">./interfaces.hpp</text>
</a>
</g>
</g>
<!-- Node1&#45;&gt;Node18 -->
<g id="edge6" class="edge">
<title>Node1&#45;&gt;Node18</title>
<path fill="none" stroke="midnightblue" d="M277.63,-168.48C295.12,-149.4 324.56,-113.34 336,-76 340.85,-60.18 335.1,-41.94 329.02,-28.81"/>
<polygon fill="midnightblue" stroke="midnightblue" points="332.13,-27.21 324.47,-19.9 325.9,-30.39 332.13,-27.21"/>
</g>
<!-- Node3 -->
<g id="node3" class="node">
<title>Node3</title>
<g id="a_node3"><a xlink:href="platform_8hpp.html" target="_top" xlink:title=" ">
<polygon fill="white" stroke="red" points="0,-56.5 0,-75.5 104,-75.5 104,-56.5 0,-56.5"/>
<text text-anchor="middle" x="52" y="-63.5" font-family="Helvetica,sans-Serif" font-size="10.00">../plt/platform.hpp</text>
</a>
</g>
</g>
<!-- Node2&#45;&gt;Node3 -->
<g id="edge2" class="edge">
<title>Node2&#45;&gt;Node3</title>
<path fill="none" stroke="midnightblue" d="M198.43,-112.44C168.9,-103.28 121.88,-88.69 89.12,-78.52"/>
<polygon fill="midnightblue" stroke="midnightblue" points="90.03,-75.14 79.44,-75.52 87.96,-81.82 90.03,-75.14"/>
</g>
<!-- Node6 -->
<g id="node4" class="node">
<title>Node6</title>
<g id="a_node4"><a xlink:href="sentry_8hpp.html" target="_top" xlink:title=" ">
<polygon fill="white" stroke="red" points="122,-56.5 122,-75.5 220,-75.5 220,-56.5 122,-56.5"/>
<text text-anchor="middle" x="171" y="-63.5" font-family="Helvetica,sans-Serif" font-size="10.00">../sntr/sentry.hpp</text>
</a>
</g>
</g>
<!-- Node2&#45;&gt;Node6 -->
<g id="edge3" class="edge">
<title>Node2&#45;&gt;Node6</title>
<path fill="none" stroke="midnightblue" d="M216.92,-112.08C208.83,-104.14 196.8,-92.34 187.09,-82.8"/>
<polygon fill="midnightblue" stroke="midnightblue" points="189.5,-80.26 179.91,-75.75 184.6,-85.25 189.5,-80.26"/>
</g>
<!-- Node17 -->
<g id="node5" class="node">
<title>Node17</title>
<g id="a_node5"><a xlink:href="drv_2callbacks_8hpp.html" target="_top" xlink:title=" ">
<polygon fill="white" stroke="red" points="238.5,-56.5 238.5,-75.5 327.5,-75.5 327.5,-56.5 238.5,-56.5"/>
<text text-anchor="middle" x="283" y="-63.5" font-family="Helvetica,sans-Serif" font-size="10.00">./callbacks.hpp</text>
</a>
</g>
</g>
<!-- Node2&#45;&gt;Node17 -->
<g id="edge4" class="edge">
<title>Node2&#45;&gt;Node17</title>
<path fill="none" stroke="midnightblue" d="M235.16,-112.32C243.5,-104.42 256.03,-92.55 266.18,-82.94"/>
<polygon fill="midnightblue" stroke="midnightblue" points="268.82,-85.25 273.68,-75.83 264.01,-80.17 268.82,-85.25"/>
</g>
<!-- Node17&#45;&gt;Node18 -->
<g id="edge5" class="edge">
<title>Node17&#45;&gt;Node18</title>
<path fill="none" stroke="midnightblue" d="M288.94,-56.08C293.98,-48.53 301.34,-37.49 307.51,-28.23"/>
<polygon fill="midnightblue" stroke="midnightblue" points="310.53,-30.01 313.17,-19.75 304.71,-26.13 310.53,-30.01"/>
</g>
</g>
</svg>
