<?xml version="1.0" encoding="UTF-8" standalone="no"?>
<!DOCTYPE svg PUBLIC "-//W3C//DTD SVG 1.1//EN"
 "http://www.w3.org/Graphics/SVG/1.1/DTD/svg11.dtd">
<!-- Generated by graphviz version 2.43.0 (0)
 -->
<!-- Title: src/plt/stm32h5/adc.cpp Pages: 1 -->
<svg width="709pt" height="247pt"
 viewBox="0.00 0.00 709.00 247.00" xmlns="http://www.w3.org/2000/svg" xmlns:xlink="http://www.w3.org/1999/xlink">
<g id="graph0" class="graph" transform="scale(1 1) rotate(0) translate(4 243)">
<title>src/plt/stm32h5/adc.cpp</title>
<!-- Node1 -->
<g id="Node000001" class="node">
<title>Node1</title>
<g id="a_Node000001"><a xlink:title=" ">
<polygon fill="#999999" stroke="#666666" points="318.5,-239 185.5,-239 185.5,-220 318.5,-220 318.5,-239"/>
<text text-anchor="middle" x="252" y="-227" font-family="Helvetica,sans-Serif" font-size="10.00">src/plt/stm32h5/adc.cpp</text>
</a>
</g>
</g>
<!-- Node2 -->
<g id="Node000002" class="node">
<title>Node2</title>
<g id="a_Node000002"><a xlink:href="fw_2util_8hpp.html" target="_top" xlink:title=" ">
<polygon fill="white" stroke="#666666" points="187,-184 101,-184 101,-165 187,-165 187,-184"/>
<text text-anchor="middle" x="144" y="-172" font-family="Helvetica,sans-Serif" font-size="10.00">../../fw/util.hpp</text>
</a>
</g>
</g>
<!-- Node1&#45;&gt;Node2 -->
<g id="edge1_Node000001_Node000002" class="edge">
<title>Node1&#45;&gt;Node2</title>
<g id="a_edge1_Node000001_Node000002"><a xlink:title=" ">
<path fill="none" stroke="#63b8ff" d="M234.65,-219.98C217.43,-211.54 190.8,-198.47 170.85,-188.68"/>
<polygon fill="#63b8ff" stroke="#63b8ff" points="172.19,-185.43 161.67,-184.17 169.1,-191.72 172.19,-185.43"/>
</a>
</g>
</g>
<!-- Node6 -->
<g id="Node000006" class="node">
<title>Node6</title>
<g id="a_Node000006"><a xlink:href="platform_8hpp.html" target="_top" xlink:title=" ">
<polygon fill="white" stroke="#666666" points="381.5,-74 292.5,-74 292.5,-55 381.5,-55 381.5,-74"/>
<text text-anchor="middle" x="337" y="-62" font-family="Helvetica,sans-Serif" font-size="10.00">../platform.hpp</text>
</a>
</g>
</g>
<!-- Node1&#45;&gt;Node6 -->
<g id="edge5_Node000001_Node000006" class="edge">
<title>Node1&#45;&gt;Node6</title>
<g id="a_edge5_Node000001_Node000006"><a xlink:title=" ">
<path fill="none" stroke="#63b8ff" d="M251.18,-219.95C249.63,-199.27 248.24,-145.65 271,-110 279.56,-96.6 293.76,-86.25 306.8,-78.92"/>
<polygon fill="#63b8ff" stroke="#63b8ff" points="308.75,-81.85 315.99,-74.12 305.51,-75.65 308.75,-81.85"/>
</a>
</g>
</g>
<!-- Node9 -->
<g id="Node000009" class="node">
<title>Node9</title>
<g id="a_Node000009"><a xlink:href="plt_2stm32h5_2setup_8hpp.html" target="_top" xlink:title=" ">
<polygon fill="white" stroke="#666666" points="505.5,-184 440.5,-184 440.5,-165 505.5,-165 505.5,-184"/>
<text text-anchor="middle" x="473" y="-172" font-family="Helvetica,sans-Serif" font-size="10.00">setup.hpp</text>
</a>
</g>
</g>
<!-- Node1&#45;&gt;Node9 -->
<g id="edge7_Node000001_Node000009" class="edge">
<title>Node1&#45;&gt;Node9</title>
<g id="a_edge7_Node000001_Node000009"><a xlink:title=" ">
<path fill="none" stroke="#63b8ff" d="M287.51,-219.98C326.51,-210.63 389.11,-195.62 430.64,-185.66"/>
<polygon fill="#63b8ff" stroke="#63b8ff" points="431.55,-189.04 440.46,-183.3 429.92,-182.23 431.55,-189.04"/>
</a>
</g>
</g>
<!-- Node3 -->
<g id="Node000003" class="node">
<title>Node3</title>
<g id="a_Node000003"><a xlink:title=" ">
<polygon fill="#e0e0e0" stroke="#999999" points="64,-129 0,-129 0,-110 64,-110 64,-129"/>
<text text-anchor="middle" x="32" y="-117" font-family="Helvetica,sans-Serif" font-size="10.00">algorithm</text>
</a>
</g>
</g>
<!-- Node2&#45;&gt;Node3 -->
<g id="edge2_Node000002_Node000003" class="edge">
<title>Node2&#45;&gt;Node3</title>
<g id="a_edge2_Node000002_Node000003"><a xlink:title=" ">
<path fill="none" stroke="#63b8ff" d="M126.01,-164.98C108.07,-156.5 80.28,-143.35 59.57,-133.54"/>
<polygon fill="#63b8ff" stroke="#63b8ff" points="60.86,-130.28 50.32,-129.17 57.86,-136.61 60.86,-130.28"/>
</a>
</g>
</g>
<!-- Node4 -->
<g id="Node000004" class="node">
<title>Node4</title>
<g id="a_Node000004"><a xlink:title=" ">
<polygon fill="#e0e0e0" stroke="#999999" points="132,-129 82,-129 82,-110 132,-110 132,-129"/>
<text text-anchor="middle" x="107" y="-117" font-family="Helvetica,sans-Serif" font-size="10.00">cstring</text>
</a>
</g>
</g>
<!-- Node2&#45;&gt;Node4 -->
<g id="edge3_Node000002_Node000004" class="edge">
<title>Node2&#45;&gt;Node4</title>
<g id="a_edge3_Node000002_Node000004"><a xlink:title=" ">
<path fill="none" stroke="#63b8ff" d="M137.89,-164.75C132.72,-157.34 125.15,-146.5 118.81,-137.41"/>
<polygon fill="#63b8ff" stroke="#63b8ff" points="121.59,-135.29 113,-129.09 115.85,-139.29 121.59,-135.29"/>
</a>
</g>
</g>
<!-- Node5 -->
<g id="Node000005" class="node">
<title>Node5</title>
<g id="a_Node000005"><a xlink:title=" ">
<polygon fill="#e0e0e0" stroke="#999999" points="223.5,-129 150.5,-129 150.5,-110 223.5,-110 223.5,-129"/>
<text text-anchor="middle" x="187" y="-117" font-family="Helvetica,sans-Serif" font-size="10.00">string_view</text>
</a>
</g>
</g>
<!-- Node2&#45;&gt;Node5 -->
<g id="edge4_Node000002_Node000005" class="edge">
<title>Node2&#45;&gt;Node5</title>
<g id="a_edge4_Node000002_Node000005"><a xlink:title=" ">
<path fill="none" stroke="#63b8ff" d="M151.1,-164.75C157.17,-157.26 166.09,-146.28 173.51,-137.13"/>
<polygon fill="#63b8ff" stroke="#63b8ff" points="176.45,-139.06 180.03,-129.09 171.01,-134.65 176.45,-139.06"/>
</a>
</g>
</g>
<!-- Node7 -->
<g id="Node000007" class="node">
<title>Node7</title>
<g id="a_Node000007"><a xlink:href="hal_8hpp.html" target="_top" xlink:title=" ">
<polygon fill="#fff0f0" stroke="red" points="363.5,-19 310.5,-19 310.5,0 363.5,0 363.5,-19"/>
<text text-anchor="middle" x="337" y="-7" font-family="Helvetica,sans-Serif" font-size="10.00">hal.hpp</text>
</a>
</g>
</g>
<!-- Node6&#45;&gt;Node7 -->
<g id="edge6_Node000006_Node000007" class="edge">
<title>Node6&#45;&gt;Node7</title>
<g id="a_edge6_Node000006_Node000007"><a xlink:title=" ">
<path fill="none" stroke="#63b8ff" d="M337,-54.75C337,-47.8 337,-37.85 337,-29.13"/>
<polygon fill="#63b8ff" stroke="#63b8ff" points="340.5,-29.09 337,-19.09 333.5,-29.09 340.5,-29.09"/>
</a>
</g>
</g>
<!-- Node10 -->
<g id="Node000010" class="node">
<title>Node10</title>
<g id="a_Node000010"><a xlink:href="cfg_2def_8hpp.html" target="_top" xlink:title=" ">
<polygon fill="#fff0f0" stroke="red" points="369.5,-129 280.5,-129 280.5,-110 369.5,-110 369.5,-129"/>
<text text-anchor="middle" x="325" y="-117" font-family="Helvetica,sans-Serif" font-size="10.00">../../cfg/def.hpp</text>
</a>
</g>
</g>
<!-- Node9&#45;&gt;Node10 -->
<g id="edge8_Node000009_Node000010" class="edge">
<title>Node9&#45;&gt;Node10</title>
<g id="a_edge8_Node000009_Node000010"><a xlink:title=" ">
<path fill="none" stroke="#63b8ff" d="M449.22,-164.98C424.77,-156.23 386.47,-142.51 358.85,-132.62"/>
<polygon fill="#63b8ff" stroke="#63b8ff" points="359.81,-129.25 349.21,-129.17 357.45,-135.84 359.81,-129.25"/>
</a>
</g>
</g>
<!-- Node19 -->
<g id="Node000019" class="node">
<title>Node19</title>
<g id="a_Node000019"><a xlink:href="defs_8hpp.html" target="_top" xlink:title=" ">
<polygon fill="white" stroke="#666666" points="482.5,-129 387.5,-129 387.5,-110 482.5,-110 482.5,-129"/>
<text text-anchor="middle" x="435" y="-117" font-family="Helvetica,sans-Serif" font-size="10.00">../../drv/defs.hpp</text>
</a>
</g>
</g>
<!-- Node9&#45;&gt;Node19 -->
<g id="edge9_Node000009_Node000019" class="edge">
<title>Node9&#45;&gt;Node19</title>
<g id="a_edge9_Node000009_Node000019"><a xlink:title=" ">
<path fill="none" stroke="#63b8ff" d="M466.73,-164.75C461.41,-157.34 453.64,-146.5 447.12,-137.41"/>
<polygon fill="#63b8ff" stroke="#63b8ff" points="449.83,-135.18 441.16,-129.09 444.14,-139.26 449.83,-135.18"/>
</a>
</g>
</g>
<!-- Node20 -->
<g id="Node000020" class="node">
<title>Node20</title>
<g id="a_Node000020"><a xlink:title=" ">
<polygon fill="#e0e0e0" stroke="#999999" points="501,-74 445,-74 445,-55 501,-55 501,-74"/>
<text text-anchor="middle" x="473" y="-62" font-family="Helvetica,sans-Serif" font-size="10.00">optional</text>
</a>
</g>
</g>
<!-- Node9&#45;&gt;Node20 -->
<g id="edge14_Node000009_Node000020" class="edge">
<title>Node9&#45;&gt;Node20</title>
<g id="a_edge14_Node000009_Node000020"><a xlink:title=" ">
<path fill="none" stroke="#63b8ff" d="M478.36,-165C485.32,-152.93 496.1,-130.07 492,-110 490.11,-100.74 486.21,-91.03 482.43,-83.04"/>
<polygon fill="#63b8ff" stroke="#63b8ff" points="485.51,-81.37 477.88,-74.02 479.26,-84.53 485.51,-81.37"/>
</a>
</g>
</g>
<!-- Node21 -->
<g id="Node000021" class="node">
<title>Node21</title>
<g id="a_Node000021"><a xlink:href="status_8hpp.html" target="_top" xlink:title=" ">
<polygon fill="#fff0f0" stroke="red" points="625,-129 539,-129 539,-110 625,-110 625,-129"/>
<text text-anchor="middle" x="582" y="-117" font-family="Helvetica,sans-Serif" font-size="10.00">../../status.hpp</text>
</a>
</g>
</g>
<!-- Node9&#45;&gt;Node21 -->
<g id="edge12_Node000009_Node000021" class="edge">
<title>Node9&#45;&gt;Node21</title>
<g id="a_edge12_Node000009_Node000021"><a xlink:title=" ">
<path fill="none" stroke="#63b8ff" d="M490.51,-164.98C507.97,-156.5 535.01,-143.35 555.17,-133.54"/>
<polygon fill="#63b8ff" stroke="#63b8ff" points="556.71,-136.69 564.17,-129.17 553.64,-130.4 556.71,-136.69"/>
</a>
</g>
</g>
<!-- Node24 -->
<g id="Node000024" class="node">
<title>Node24</title>
<g id="a_Node000024"><a xlink:title=" ">
<polygon fill="#e0e0e0" stroke="#999999" points="701,-129 643,-129 643,-110 701,-110 701,-129"/>
<text text-anchor="middle" x="672" y="-117" font-family="Helvetica,sans-Serif" font-size="10.00">memory</text>
</a>
</g>
</g>
<!-- Node9&#45;&gt;Node24 -->
<g id="edge13_Node000009_Node000024" class="edge">
<title>Node9&#45;&gt;Node24</title>
<g id="a_edge13_Node000009_Node000024"><a xlink:title=" ">
<path fill="none" stroke="#63b8ff" d="M504.97,-164.98C539.72,-155.73 595.27,-140.94 632.67,-130.98"/>
<polygon fill="#63b8ff" stroke="#63b8ff" points="633.94,-134.26 642.7,-128.3 632.14,-127.49 633.94,-134.26"/>
</a>
</g>
</g>
<!-- Node19&#45;&gt;Node6 -->
<g id="edge10_Node000019_Node000006" class="edge">
<title>Node19&#45;&gt;Node6</title>
<g id="a_edge10_Node000019_Node000006"><a xlink:title=" ">
<path fill="none" stroke="#63b8ff" d="M419.25,-109.98C403.77,-101.61 379.91,-88.7 361.86,-78.95"/>
<polygon fill="#63b8ff" stroke="#63b8ff" points="363.49,-75.85 353.03,-74.17 360.16,-82.01 363.49,-75.85"/>
</a>
</g>
</g>
<!-- Node19&#45;&gt;Node20 -->
<g id="edge11_Node000019_Node000020" class="edge">
<title>Node19&#45;&gt;Node20</title>
<g id="a_edge11_Node000019_Node000020"><a xlink:title=" ">
<path fill="none" stroke="#63b8ff" d="M441.27,-109.75C446.59,-102.34 454.36,-91.5 460.88,-82.41"/>
<polygon fill="#63b8ff" stroke="#63b8ff" points="463.86,-84.26 466.84,-74.09 458.17,-80.18 463.86,-84.26"/>
</a>
</g>
</g>
</g>
</svg>
