<?xml version="1.0" encoding="UTF-8" standalone="no"?>
<!DOCTYPE svg PUBLIC "-//W3C//DTD SVG 1.1//EN"
 "http://www.w3.org/Graphics/SVG/1.1/DTD/svg11.dtd">
<!-- Generated by graphviz version 2.43.0 (0)
 -->
<!-- Title: src/drv/adc_pooler.hpp Pages: 1 -->
<svg width="424pt" height="196pt"
 viewBox="0.00 0.00 423.50 196.00" xmlns="http://www.w3.org/2000/svg" xmlns:xlink="http://www.w3.org/1999/xlink">
<g id="graph0" class="graph" transform="scale(1 1) rotate(0) translate(4 192)">
<title>src/drv/adc_pooler.hpp</title>
<polygon fill="white" stroke="transparent" points="-4,4 -4,-192 419.5,-192 419.5,4 -4,4"/>
<!-- Node1 -->
<g id="node1" class="node">
<title>Node1</title>
<g id="a_node1"><a xlink:title=" ">
<polygon fill="#bfbfbf" stroke="black" points="127,-168.5 127,-187.5 253,-187.5 253,-168.5 127,-168.5"/>
<text text-anchor="middle" x="190" y="-175.5" font-family="Helvetica,sans-Serif" font-size="10.00">src/drv/adc_pooler.hpp</text>
</a>
</g>
</g>
<!-- Node2 -->
<g id="node2" class="node">
<title>Node2</title>
<g id="a_node2"><a xlink:href="base_2callbacks_8hpp.html" target="_top" xlink:title=" ">
<polygon fill="white" stroke="black" points="135,-112.5 135,-131.5 245,-131.5 245,-112.5 135,-112.5"/>
<text text-anchor="middle" x="190" y="-119.5" font-family="Helvetica,sans-Serif" font-size="10.00">base/callbacks.hpp</text>
</a>
</g>
</g>
<!-- Node1&#45;&gt;Node2 -->
<g id="edge1" class="edge">
<title>Node1&#45;&gt;Node2</title>
<path fill="none" stroke="midnightblue" d="M190,-168.08C190,-161.01 190,-150.86 190,-141.99"/>
<polygon fill="midnightblue" stroke="midnightblue" points="193.5,-141.75 190,-131.75 186.5,-141.75 193.5,-141.75"/>
</g>
<!-- Node11 -->
<g id="node6" class="node">
<title>Node11</title>
<g id="a_node6"><a xlink:href="platform_8hpp.html" target="_top" xlink:title=" ">
<polygon fill="white" stroke="black" points="0,-112.5 0,-131.5 80,-131.5 80,-112.5 0,-112.5"/>
<text text-anchor="middle" x="40" y="-119.5" font-family="Helvetica,sans-Serif" font-size="10.00">platform.hpp</text>
</a>
</g>
</g>
<!-- Node1&#45;&gt;Node11 -->
<g id="edge7" class="edge">
<title>Node1&#45;&gt;Node11</title>
<path fill="none" stroke="midnightblue" d="M166.23,-168.44C141.11,-159.4 101.29,-145.06 73.1,-134.92"/>
<polygon fill="midnightblue" stroke="midnightblue" points="74.25,-131.61 63.66,-131.52 71.88,-138.2 74.25,-131.61"/>
</g>
<!-- Node13 -->
<g id="node8" class="node">
<title>Node13</title>
<g id="a_node8"><a xlink:href="sentry_8hpp.html" target="_top" xlink:title=" ">
<polygon fill="white" stroke="black" points="310.5,-112.5 310.5,-131.5 399.5,-131.5 399.5,-112.5 310.5,-112.5"/>
<text text-anchor="middle" x="355" y="-119.5" font-family="Helvetica,sans-Serif" font-size="10.00">sntr/sentry.hpp</text>
</a>
</g>
</g>
<!-- Node1&#45;&gt;Node13 -->
<g id="edge10" class="edge">
<title>Node1&#45;&gt;Node13</title>
<path fill="none" stroke="midnightblue" d="M216.14,-168.44C244.02,-159.32 288.35,-144.81 319.4,-134.65"/>
<polygon fill="midnightblue" stroke="midnightblue" points="320.56,-137.95 328.98,-131.52 318.38,-131.3 320.56,-137.95"/>
</g>
<!-- Node3 -->
<g id="node3" class="node">
<title>Node3</title>
<g id="a_node3"><a xlink:href="drv__interfaces_8hpp.html" target="_top" xlink:title=" ">
<polygon fill="white" stroke="red" points="123,-56.5 123,-75.5 257,-75.5 257,-56.5 123,-56.5"/>
<text text-anchor="middle" x="190" y="-63.5" font-family="Helvetica,sans-Serif" font-size="10.00">base/drv_interfaces.hpp</text>
</a>
</g>
</g>
<!-- Node2&#45;&gt;Node3 -->
<g id="edge2" class="edge">
<title>Node2&#45;&gt;Node3</title>
<path fill="none" stroke="midnightblue" d="M190,-112.08C190,-105.01 190,-94.86 190,-85.99"/>
<polygon fill="midnightblue" stroke="midnightblue" points="193.5,-85.75 190,-75.75 186.5,-85.75 193.5,-85.75"/>
</g>
<!-- Node6 -->
<g id="node4" class="node">
<title>Node6</title>
<g id="a_node4"><a xlink:title=" ">
<polygon fill="white" stroke="#bfbfbf" points="260,-0.5 260,-19.5 310,-19.5 310,-0.5 260,-0.5"/>
<text text-anchor="middle" x="285" y="-7.5" font-family="Helvetica,sans-Serif" font-size="10.00">cstdint</text>
</a>
</g>
</g>
<!-- Node2&#45;&gt;Node6 -->
<g id="edge5" class="edge">
<title>Node2&#45;&gt;Node6</title>
<path fill="none" stroke="midnightblue" d="M213.85,-112.41C230.72,-105.16 252.64,-93.2 266,-76 276.36,-62.66 281.07,-43.84 283.22,-29.87"/>
<polygon fill="midnightblue" stroke="midnightblue" points="286.69,-30.27 284.44,-19.92 279.75,-29.41 286.69,-30.27"/>
</g>
<!-- Node10 -->
<g id="node5" class="node">
<title>Node10</title>
<g id="a_node5"><a xlink:title=" ">
<polygon fill="white" stroke="#bfbfbf" points="75,-0.5 75,-19.5 115,-19.5 115,-0.5 75,-0.5"/>
<text text-anchor="middle" x="95" y="-7.5" font-family="Helvetica,sans-Serif" font-size="10.00">span</text>
</a>
</g>
</g>
<!-- Node2&#45;&gt;Node10 -->
<g id="edge6" class="edge">
<title>Node2&#45;&gt;Node10</title>
<path fill="none" stroke="midnightblue" d="M166.15,-112.41C149.28,-105.16 127.36,-93.2 114,-76 103.64,-62.66 98.93,-43.84 96.78,-29.87"/>
<polygon fill="midnightblue" stroke="midnightblue" points="100.25,-29.41 95.56,-19.92 93.31,-30.27 100.25,-29.41"/>
</g>
<!-- Node3&#45;&gt;Node6 -->
<g id="edge3" class="edge">
<title>Node3&#45;&gt;Node6</title>
<path fill="none" stroke="midnightblue" d="M205.26,-56.32C220.22,-47.82 243.25,-34.73 260.73,-24.8"/>
<polygon fill="midnightblue" stroke="midnightblue" points="262.81,-27.64 269.77,-19.65 259.35,-21.55 262.81,-27.64"/>
</g>
<!-- Node3&#45;&gt;Node10 -->
<g id="edge4" class="edge">
<title>Node3&#45;&gt;Node10</title>
<path fill="none" stroke="midnightblue" d="M174.74,-56.32C159.78,-47.82 136.75,-34.73 119.27,-24.8"/>
<polygon fill="midnightblue" stroke="midnightblue" points="120.65,-21.55 110.23,-19.65 117.19,-27.64 120.65,-21.55"/>
</g>
<!-- Node11&#45;&gt;Node10 -->
<g id="edge9" class="edge">
<title>Node11&#45;&gt;Node10</title>
<path fill="none" stroke="midnightblue" d="M29.13,-112.43C14.52,-99.85 -8.25,-75.73 4,-56 17.27,-34.64 44,-23.11 65.08,-17.09"/>
<polygon fill="midnightblue" stroke="midnightblue" points="66.08,-20.45 74.89,-14.56 64.33,-13.67 66.08,-20.45"/>
</g>
<!-- Node12 -->
<g id="node7" class="node">
<title>Node12</title>
<g id="a_node7"><a xlink:title=" ">
<polygon fill="white" stroke="#bfbfbf" points="13.5,-56.5 13.5,-75.5 66.5,-75.5 66.5,-56.5 13.5,-56.5"/>
<text text-anchor="middle" x="40" y="-63.5" font-family="Helvetica,sans-Serif" font-size="10.00">hal.hpp</text>
</a>
</g>
</g>
<!-- Node11&#45;&gt;Node12 -->
<g id="edge8" class="edge">
<title>Node11&#45;&gt;Node12</title>
<path fill="none" stroke="midnightblue" d="M40,-112.08C40,-105.01 40,-94.86 40,-85.99"/>
<polygon fill="midnightblue" stroke="midnightblue" points="43.5,-85.75 40,-75.75 36.5,-85.75 43.5,-85.75"/>
</g>
<!-- Node14 -->
<g id="node9" class="node">
<title>Node14</title>
<g id="a_node9"><a xlink:href="sntr_2base_8hpp.html" target="_top" xlink:title=" ">
<polygon fill="white" stroke="red" points="313.5,-56.5 313.5,-75.5 396.5,-75.5 396.5,-56.5 313.5,-56.5"/>
<text text-anchor="middle" x="355" y="-63.5" font-family="Helvetica,sans-Serif" font-size="10.00">sntr/base.hpp</text>
</a>
</g>
</g>
<!-- Node13&#45;&gt;Node14 -->
<g id="edge11" class="edge">
<title>Node13&#45;&gt;Node14</title>
<path fill="none" stroke="midnightblue" d="M355,-112.08C355,-105.01 355,-94.86 355,-85.99"/>
<polygon fill="midnightblue" stroke="midnightblue" points="358.5,-85.75 355,-75.75 351.5,-85.75 358.5,-85.75"/>
</g>
<!-- Node16 -->
<g id="node10" class="node">
<title>Node16</title>
<g id="a_node10"><a xlink:title=" ">
<polygon fill="white" stroke="#bfbfbf" points="364.5,-0.5 364.5,-19.5 415.5,-19.5 415.5,-0.5 364.5,-0.5"/>
<text text-anchor="middle" x="390" y="-7.5" font-family="Helvetica,sans-Serif" font-size="10.00">variant</text>
</a>
</g>
</g>
<!-- Node13&#45;&gt;Node16 -->
<g id="edge14" class="edge">
<title>Node13&#45;&gt;Node16</title>
<path fill="none" stroke="midnightblue" d="M370.73,-112.24C382.89,-104.48 398.81,-91.93 406,-76 412.86,-60.81 407.01,-42.23 400.54,-28.84"/>
<polygon fill="midnightblue" stroke="midnightblue" points="403.47,-26.91 395.67,-19.74 397.3,-30.21 403.47,-26.91"/>
</g>
<!-- Node14&#45;&gt;Node6 -->
<g id="edge12" class="edge">
<title>Node14&#45;&gt;Node6</title>
<path fill="none" stroke="midnightblue" d="M343.75,-56.32C333.2,-48.18 317.2,-35.84 304.56,-26.09"/>
<polygon fill="midnightblue" stroke="midnightblue" points="306.51,-23.17 296.45,-19.83 302.23,-28.71 306.51,-23.17"/>
</g>
<!-- Node14&#45;&gt;Node16 -->
<g id="edge13" class="edge">
<title>Node14&#45;&gt;Node16</title>
<path fill="none" stroke="midnightblue" d="M360.78,-56.08C365.67,-48.53 372.83,-37.49 378.83,-28.23"/>
<polygon fill="midnightblue" stroke="midnightblue" points="381.83,-30.05 384.33,-19.75 375.95,-26.24 381.83,-30.05"/>
</g>
</g>
</svg>
