<?xml version="1.0" encoding="UTF-8" standalone="no"?>
<!DOCTYPE svg PUBLIC "-//W3C//DTD SVG 1.1//EN"
 "http://www.w3.org/Graphics/SVG/1.1/DTD/svg11.dtd">
<!-- Generated by graphviz version 2.43.0 (0)
 -->
<!-- Title: src/drv/adc_pooler_def.hpp Pages: 1 -->
<svg width="385pt" height="258pt"
 viewBox="0.00 0.00 385.28 258.00" xmlns="http://www.w3.org/2000/svg" xmlns:xlink="http://www.w3.org/1999/xlink">
<g id="graph0" class="graph" transform="scale(1 1) rotate(0) translate(4 254)">
<title>src/drv/adc_pooler_def.hpp</title>
<!-- Node1 -->
<g id="Node000001" class="node">
<title>Node1</title>
<g id="a_Node000001"><a xlink:title=" ">
<polygon fill="#999999" stroke="#666666" points="374,-250 268,-250 268,-220 374,-220 374,-250"/>
<text text-anchor="start" x="276" y="-238" font-family="Helvetica,sans-Serif" font-size="10.00">src/drv/adc_pooler</text>
<text text-anchor="middle" x="321" y="-227" font-family="Helvetica,sans-Serif" font-size="10.00">_def.hpp</text>
</a>
</g>
</g>
<!-- Node2 -->
<g id="Node000002" class="node">
<title>Node2</title>
<g id="a_Node000002"><a xlink:href="adc__pooler_8hpp.html" target="_top" xlink:title=" ">
<polygon fill="white" stroke="#666666" points="296,-184 200,-184 200,-165 296,-165 296,-184"/>
<text text-anchor="middle" x="248" y="-172" font-family="Helvetica,sans-Serif" font-size="10.00">./adc_pooler.hpp</text>
</a>
</g>
</g>
<!-- Node1&#45;&gt;Node2 -->
<g id="edge1_Node000001_Node000002" class="edge">
<title>Node1&#45;&gt;Node2</title>
<g id="a_edge1_Node000001_Node000002"><a xlink:title=" ">
<path fill="none" stroke="#63b8ff" d="M303.33,-219.84C292.3,-211 278.11,-199.63 266.87,-190.62"/>
<polygon fill="#63b8ff" stroke="#63b8ff" points="268.93,-187.79 258.94,-184.27 264.55,-193.25 268.93,-187.79"/>
</a>
</g>
</g>
<!-- Node21 -->
<g id="Node000021" class="node">
<title>Node21</title>
<g id="a_Node000021"><a xlink:href="interfaces_8hpp.html" target="_top" xlink:title=" ">
<polygon fill="#fff0f0" stroke="red" points="368,-74 276,-74 276,-55 368,-55 368,-74"/>
<text text-anchor="middle" x="322" y="-62" font-family="Helvetica,sans-Serif" font-size="10.00">./interfaces.hpp</text>
</a>
</g>
</g>
<!-- Node1&#45;&gt;Node21 -->
<g id="edge8_Node000001_Node000021" class="edge">
<title>Node1&#45;&gt;Node21</title>
<g id="a_edge8_Node000001_Node000021"><a xlink:title=" ">
<path fill="none" stroke="#63b8ff" d="M331.04,-219.92C344.17,-200.54 366.51,-164.06 375,-129 376.99,-120.79 378.57,-117.65 375,-110 369.17,-97.49 357.91,-87.25 347.25,-79.76"/>
<polygon fill="#63b8ff" stroke="#63b8ff" points="348.88,-76.64 338.58,-74.13 345.06,-82.51 348.88,-76.64"/>
</a>
</g>
</g>
<!-- Node3 -->
<g id="Node000003" class="node">
<title>Node3</title>
<g id="a_Node000003"><a xlink:href="platform_8hpp.html" target="_top" xlink:title=" ">
<polygon fill="#fff0f0" stroke="red" points="104,-129 0,-129 0,-110 104,-110 104,-129"/>
<text text-anchor="middle" x="52" y="-117" font-family="Helvetica,sans-Serif" font-size="10.00">../plt/platform.hpp</text>
</a>
</g>
</g>
<!-- Node2&#45;&gt;Node3 -->
<g id="edge2_Node000002_Node000003" class="edge">
<title>Node2&#45;&gt;Node3</title>
<g id="a_edge2_Node000002_Node000003"><a xlink:title=" ">
<path fill="none" stroke="#63b8ff" d="M216.51,-164.98C183.18,-155.97 130.4,-141.7 93.65,-131.76"/>
<polygon fill="#63b8ff" stroke="#63b8ff" points="94.3,-128.31 83.74,-129.08 92.48,-135.07 94.3,-128.31"/>
</a>
</g>
</g>
<!-- Node6 -->
<g id="Node000006" class="node">
<title>Node6</title>
<g id="a_Node000006"><a xlink:href="sentry_8hpp.html" target="_top" xlink:title=" ">
<polygon fill="#fff0f0" stroke="red" points="220,-129 122,-129 122,-110 220,-110 220,-129"/>
<text text-anchor="middle" x="171" y="-117" font-family="Helvetica,sans-Serif" font-size="10.00">../sntr/sentry.hpp</text>
</a>
</g>
</g>
<!-- Node2&#45;&gt;Node6 -->
<g id="edge3_Node000002_Node000006" class="edge">
<title>Node2&#45;&gt;Node6</title>
<g id="a_edge3_Node000002_Node000006"><a xlink:title=" ">
<path fill="none" stroke="#63b8ff" d="M235.63,-164.98C223.91,-156.92 206.08,-144.65 192.11,-135.03"/>
<polygon fill="#63b8ff" stroke="#63b8ff" points="193.82,-131.96 183.6,-129.17 189.85,-137.72 193.82,-131.96"/>
</a>
</g>
</g>
<!-- Node17 -->
<g id="Node000017" class="node">
<title>Node17</title>
<g id="a_Node000017"><a xlink:href="status_8hpp.html" target="_top" xlink:title=" ">
<polygon fill="#fff0f0" stroke="red" points="323.5,-19 246.5,-19 246.5,0 323.5,0 323.5,-19"/>
<text text-anchor="middle" x="285" y="-7" font-family="Helvetica,sans-Serif" font-size="10.00">../status.hpp</text>
</a>
</g>
</g>
<!-- Node2&#45;&gt;Node17 -->
<g id="edge4_Node000002_Node000017" class="edge">
<title>Node2&#45;&gt;Node17</title>
<g id="a_edge4_Node000002_Node000017"><a xlink:title=" ">
<path fill="none" stroke="#63b8ff" d="M248.72,-164.73C250.51,-144.89 255.82,-95.14 267,-55 269.49,-46.07 273.21,-36.5 276.63,-28.53"/>
<polygon fill="#63b8ff" stroke="#63b8ff" points="279.93,-29.72 280.81,-19.16 273.54,-26.86 279.93,-29.72"/>
</a>
</g>
</g>
<!-- Node20 -->
<g id="Node000020" class="node">
<title>Node20</title>
<g id="a_Node000020"><a xlink:href="drv_2callbacks_8hpp.html" target="_top" xlink:title=" ">
<polygon fill="#fff0f0" stroke="red" points="365.5,-129 276.5,-129 276.5,-110 365.5,-110 365.5,-129"/>
<text text-anchor="middle" x="321" y="-117" font-family="Helvetica,sans-Serif" font-size="10.00">./callbacks.hpp</text>
</a>
</g>
</g>
<!-- Node2&#45;&gt;Node20 -->
<g id="edge5_Node000002_Node000020" class="edge">
<title>Node2&#45;&gt;Node20</title>
<g id="a_edge5_Node000002_Node000020"><a xlink:title=" ">
<path fill="none" stroke="#63b8ff" d="M259.73,-164.98C270.73,-157 287.42,-144.88 300.6,-135.31"/>
<polygon fill="#63b8ff" stroke="#63b8ff" points="303.02,-137.88 309.06,-129.17 298.91,-132.21 303.02,-137.88"/>
</a>
</g>
</g>
<!-- Node20&#45;&gt;Node21 -->
<g id="edge6_Node000020_Node000021" class="edge">
<title>Node20&#45;&gt;Node21</title>
<g id="a_edge6_Node000020_Node000021"><a xlink:title=" ">
<path fill="none" stroke="#63b8ff" d="M321.17,-109.75C321.3,-102.8 321.48,-92.85 321.65,-84.13"/>
<polygon fill="#63b8ff" stroke="#63b8ff" points="325.15,-84.15 321.84,-74.09 318.15,-84.02 325.15,-84.15"/>
</a>
</g>
</g>
<!-- Node21&#45;&gt;Node17 -->
<g id="edge7_Node000021_Node000017" class="edge">
<title>Node21&#45;&gt;Node17</title>
<g id="a_edge7_Node000021_Node000017"><a xlink:title=" ">
<path fill="none" stroke="#63b8ff" d="M315.89,-54.75C310.72,-47.34 303.15,-36.5 296.81,-27.41"/>
<polygon fill="#63b8ff" stroke="#63b8ff" points="299.59,-25.29 291,-19.09 293.85,-29.29 299.59,-25.29"/>
</a>
</g>
</g>
</g>
</svg>
