<?xml version="1.0" encoding="UTF-8" standalone="no"?>
<!DOCTYPE svg PUBLIC "-//W3C//DTD SVG 1.1//EN"
 "http://www.w3.org/Graphics/SVG/1.1/DTD/svg11.dtd">
<!-- Generated by graphviz version 2.43.0 (0)
 -->
<!-- Title: src/plt/stm32h5/adc.cpp Pages: 1 -->
<svg width="733pt" height="252pt"
 viewBox="0.00 0.00 733.00 252.00" xmlns="http://www.w3.org/2000/svg" xmlns:xlink="http://www.w3.org/1999/xlink">
<g id="graph0" class="graph" transform="scale(1 1) rotate(0) translate(4 248)">
<title>src/plt/stm32h5/adc.cpp</title>
<polygon fill="white" stroke="transparent" points="-4,4 -4,-248 729,-248 729,4 -4,4"/>
<!-- Node1 -->
<g id="node1" class="node">
<title>Node1</title>
<g id="a_node1"><a xlink:title=" ">
<polygon fill="#bfbfbf" stroke="black" points="185.5,-224.5 185.5,-243.5 318.5,-243.5 318.5,-224.5 185.5,-224.5"/>
<text text-anchor="middle" x="252" y="-231.5" font-family="Helvetica,sans-Serif" font-size="10.00">src/plt/stm32h5/adc.cpp</text>
</a>
</g>
</g>
<!-- Node2 -->
<g id="node2" class="node">
<title>Node2</title>
<g id="a_node2"><a xlink:href="util_8hpp.html" target="_top" xlink:title=" ">
<polygon fill="white" stroke="black" points="101,-168.5 101,-187.5 187,-187.5 187,-168.5 101,-168.5"/>
<text text-anchor="middle" x="144" y="-175.5" font-family="Helvetica,sans-Serif" font-size="10.00">../../fw/util.hpp</text>
</a>
</g>
</g>
<!-- Node1&#45;&gt;Node2 -->
<g id="edge1" class="edge">
<title>Node1&#45;&gt;Node2</title>
<path fill="none" stroke="midnightblue" d="M234.65,-224.32C217.33,-215.66 190.48,-202.24 170.5,-192.25"/>
<polygon fill="midnightblue" stroke="midnightblue" points="171.82,-189 161.31,-187.65 168.69,-195.26 171.82,-189"/>
</g>
<!-- Node6 -->
<g id="node6" class="node">
<title>Node6</title>
<g id="a_node6"><a xlink:href="platform_8hpp.html" target="_top" xlink:title=" ">
<polygon fill="white" stroke="black" points="295.5,-56.5 295.5,-75.5 384.5,-75.5 384.5,-56.5 295.5,-56.5"/>
<text text-anchor="middle" x="340" y="-63.5" font-family="Helvetica,sans-Serif" font-size="10.00">../platform.hpp</text>
</a>
</g>
</g>
<!-- Node1&#45;&gt;Node6 -->
<g id="edge5" class="edge">
<title>Node1&#45;&gt;Node6</title>
<path fill="none" stroke="midnightblue" d="M251.09,-224.25C249.34,-203.09 247.55,-148.24 271,-112 280.03,-98.05 295.07,-87.49 308.82,-80.12"/>
<polygon fill="midnightblue" stroke="midnightblue" points="310.64,-83.12 318.03,-75.53 307.52,-76.86 310.64,-83.12"/>
</g>
<!-- Node9 -->
<g id="node8" class="node">
<title>Node9</title>
<g id="a_node8"><a xlink:href="plt_2stm32h5_2setup_8hpp.html" target="_top" xlink:title=" ">
<polygon fill="white" stroke="black" points="446.5,-168.5 446.5,-187.5 511.5,-187.5 511.5,-168.5 446.5,-168.5"/>
<text text-anchor="middle" x="479" y="-175.5" font-family="Helvetica,sans-Serif" font-size="10.00">setup.hpp</text>
</a>
</g>
</g>
<!-- Node1&#45;&gt;Node9 -->
<g id="edge7" class="edge">
<title>Node1&#45;&gt;Node9</title>
<path fill="none" stroke="midnightblue" d="M287.97,-224.44C328.25,-214.86 393.47,-199.35 436.3,-189.16"/>
<polygon fill="midnightblue" stroke="midnightblue" points="437.23,-192.53 446.15,-186.82 435.61,-185.72 437.23,-192.53"/>
</g>
<!-- Node3 -->
<g id="node3" class="node">
<title>Node3</title>
<g id="a_node3"><a xlink:title=" ">
<polygon fill="white" stroke="#bfbfbf" points="0,-112.5 0,-131.5 64,-131.5 64,-112.5 0,-112.5"/>
<text text-anchor="middle" x="32" y="-119.5" font-family="Helvetica,sans-Serif" font-size="10.00">algorithm</text>
</a>
</g>
</g>
<!-- Node2&#45;&gt;Node3 -->
<g id="edge2" class="edge">
<title>Node2&#45;&gt;Node3</title>
<path fill="none" stroke="midnightblue" d="M126.01,-168.32C107.96,-159.62 79.95,-146.12 59.2,-136.11"/>
<polygon fill="midnightblue" stroke="midnightblue" points="60.48,-132.84 49.95,-131.65 57.44,-139.15 60.48,-132.84"/>
</g>
<!-- Node4 -->
<g id="node4" class="node">
<title>Node4</title>
<g id="a_node4"><a xlink:title=" ">
<polygon fill="white" stroke="#bfbfbf" points="82,-112.5 82,-131.5 132,-131.5 132,-112.5 82,-112.5"/>
<text text-anchor="middle" x="107" y="-119.5" font-family="Helvetica,sans-Serif" font-size="10.00">cstring</text>
</a>
</g>
</g>
<!-- Node2&#45;&gt;Node4 -->
<g id="edge3" class="edge">
<title>Node2&#45;&gt;Node4</title>
<path fill="none" stroke="midnightblue" d="M137.89,-168.08C132.72,-160.53 125.15,-149.49 118.81,-140.23"/>
<polygon fill="midnightblue" stroke="midnightblue" points="121.54,-138.02 113,-131.75 115.76,-141.98 121.54,-138.02"/>
</g>
<!-- Node5 -->
<g id="node5" class="node">
<title>Node5</title>
<g id="a_node5"><a xlink:title=" ">
<polygon fill="white" stroke="#bfbfbf" points="150.5,-112.5 150.5,-131.5 223.5,-131.5 223.5,-112.5 150.5,-112.5"/>
<text text-anchor="middle" x="187" y="-119.5" font-family="Helvetica,sans-Serif" font-size="10.00">string_view</text>
</a>
</g>
</g>
<!-- Node2&#45;&gt;Node5 -->
<g id="edge4" class="edge">
<title>Node2&#45;&gt;Node5</title>
<path fill="none" stroke="midnightblue" d="M151.1,-168.08C157.24,-160.38 166.27,-149.03 173.74,-139.65"/>
<polygon fill="midnightblue" stroke="midnightblue" points="176.54,-141.75 180.03,-131.75 171.06,-137.39 176.54,-141.75"/>
</g>
<!-- Node7 -->
<g id="node7" class="node">
<title>Node7</title>
<g id="a_node7"><a xlink:href="hal_8hpp.html" target="_top" xlink:title=" ">
<polygon fill="white" stroke="red" points="313.5,-0.5 313.5,-19.5 366.5,-19.5 366.5,-0.5 313.5,-0.5"/>
<text text-anchor="middle" x="340" y="-7.5" font-family="Helvetica,sans-Serif" font-size="10.00">hal.hpp</text>
</a>
</g>
</g>
<!-- Node6&#45;&gt;Node7 -->
<g id="edge6" class="edge">
<title>Node6&#45;&gt;Node7</title>
<path fill="none" stroke="midnightblue" d="M340,-56.08C340,-49.01 340,-38.86 340,-29.99"/>
<polygon fill="midnightblue" stroke="midnightblue" points="343.5,-29.75 340,-19.75 336.5,-29.75 343.5,-29.75"/>
</g>
<!-- Node10 -->
<g id="node9" class="node">
<title>Node10</title>
<g id="a_node9"><a xlink:href="map_8hpp.html" target="_top" xlink:title=" ">
<polygon fill="white" stroke="red" points="280.5,-112.5 280.5,-131.5 375.5,-131.5 375.5,-112.5 280.5,-112.5"/>
<text text-anchor="middle" x="328" y="-119.5" font-family="Helvetica,sans-Serif" font-size="10.00">../../cfg/map.hpp</text>
</a>
</g>
</g>
<!-- Node9&#45;&gt;Node10 -->
<g id="edge8" class="edge">
<title>Node9&#45;&gt;Node10</title>
<path fill="none" stroke="midnightblue" d="M455.07,-168.44C429.78,-159.4 389.7,-145.06 361.32,-134.92"/>
<polygon fill="midnightblue" stroke="midnightblue" points="362.41,-131.59 351.81,-131.52 360.05,-138.18 362.41,-131.59"/>
</g>
<!-- Node23 -->
<g id="node10" class="node">
<title>Node23</title>
<g id="a_node10"><a xlink:href="defs_8hpp.html" target="_top" xlink:title=" ">
<polygon fill="white" stroke="black" points="393.5,-112.5 393.5,-131.5 488.5,-131.5 488.5,-112.5 393.5,-112.5"/>
<text text-anchor="middle" x="441" y="-119.5" font-family="Helvetica,sans-Serif" font-size="10.00">../../drv/defs.hpp</text>
</a>
</g>
</g>
<!-- Node9&#45;&gt;Node23 -->
<g id="edge9" class="edge">
<title>Node9&#45;&gt;Node23</title>
<path fill="none" stroke="midnightblue" d="M472.73,-168.08C467.36,-160.46 459.48,-149.26 452.92,-139.94"/>
<polygon fill="midnightblue" stroke="midnightblue" points="455.78,-137.91 447.16,-131.75 450.05,-141.94 455.78,-137.91"/>
</g>
<!-- Node24 -->
<g id="node11" class="node">
<title>Node24</title>
<g id="a_node11"><a xlink:title=" ">
<polygon fill="white" stroke="#bfbfbf" points="451,-56.5 451,-75.5 507,-75.5 507,-56.5 451,-56.5"/>
<text text-anchor="middle" x="479" y="-63.5" font-family="Helvetica,sans-Serif" font-size="10.00">optional</text>
</a>
</g>
</g>
<!-- Node9&#45;&gt;Node24 -->
<g id="edge14" class="edge">
<title>Node9&#45;&gt;Node24</title>
<path fill="none" stroke="midnightblue" d="M484.37,-168.29C491.34,-155.92 502.15,-132.51 498,-112 496.11,-102.65 492.21,-92.83 488.43,-84.75"/>
<polygon fill="midnightblue" stroke="midnightblue" points="491.47,-83.01 483.88,-75.63 485.21,-86.14 491.47,-83.01"/>
</g>
<!-- Node25 -->
<g id="node12" class="node">
<title>Node25</title>
<g id="a_node12"><a xlink:title=" ">
<polygon fill="white" stroke="#bfbfbf" points="545,-112.5 545,-131.5 649,-131.5 649,-112.5 545,-112.5"/>
<text text-anchor="middle" x="597" y="-119.5" font-family="Helvetica,sans-Serif" font-size="10.00">emlabcpp/result.h</text>
</a>
</g>
</g>
<!-- Node9&#45;&gt;Node25 -->
<g id="edge12" class="edge">
<title>Node9&#45;&gt;Node25</title>
<path fill="none" stroke="midnightblue" d="M497.7,-168.44C516.94,-159.64 547.15,-145.81 569.2,-135.72"/>
<polygon fill="midnightblue" stroke="midnightblue" points="570.75,-138.86 578.39,-131.52 567.84,-132.5 570.75,-138.86"/>
</g>
<!-- Node26 -->
<g id="node13" class="node">
<title>Node26</title>
<g id="a_node13"><a xlink:title=" ">
<polygon fill="white" stroke="#bfbfbf" points="667,-112.5 667,-131.5 725,-131.5 725,-112.5 667,-112.5"/>
<text text-anchor="middle" x="696" y="-119.5" font-family="Helvetica,sans-Serif" font-size="10.00">memory</text>
</a>
</g>
</g>
<!-- Node9&#45;&gt;Node26 -->
<g id="edge13" class="edge">
<title>Node9&#45;&gt;Node26</title>
<path fill="none" stroke="midnightblue" d="M511.96,-168.8C550.95,-159.1 615.79,-142.96 657.18,-132.66"/>
<polygon fill="midnightblue" stroke="midnightblue" points="658.05,-136.05 666.91,-130.24 656.36,-129.26 658.05,-136.05"/>
</g>
<!-- Node23&#45;&gt;Node6 -->
<g id="edge10" class="edge">
<title>Node23&#45;&gt;Node6</title>
<path fill="none" stroke="midnightblue" d="M424.77,-112.32C408.65,-103.7 383.7,-90.36 365.04,-80.39"/>
<polygon fill="midnightblue" stroke="midnightblue" points="366.66,-77.28 356.19,-75.65 363.36,-83.46 366.66,-77.28"/>
</g>
<!-- Node23&#45;&gt;Node24 -->
<g id="edge11" class="edge">
<title>Node23&#45;&gt;Node24</title>
<path fill="none" stroke="midnightblue" d="M447.27,-112.08C452.64,-104.46 460.52,-93.26 467.08,-83.94"/>
<polygon fill="midnightblue" stroke="midnightblue" points="469.95,-85.94 472.84,-75.75 464.22,-81.91 469.95,-85.94"/>
</g>
</g>
</svg>
