<?xml version="1.0" encoding="UTF-8" standalone="no"?>
<!DOCTYPE svg PUBLIC "-//W3C//DTD SVG 1.1//EN"
 "http://www.w3.org/Graphics/SVG/1.1/DTD/svg11.dtd">
<!-- Generated by graphviz version 2.43.0 (0)
 -->
<!-- Title: src/drv/adc_pooler.hpp Pages: 1 -->
<svg width="394pt" height="252pt"
 viewBox="0.00 0.00 393.72 252.00" xmlns="http://www.w3.org/2000/svg" xmlns:xlink="http://www.w3.org/1999/xlink">
<g id="graph0" class="graph" transform="scale(1 1) rotate(0) translate(4 248)">
<title>src/drv/adc_pooler.hpp</title>
<polygon fill="white" stroke="transparent" points="-4,4 -4,-248 389.72,-248 389.72,4 -4,4"/>
<!-- Node1 -->
<g id="node1" class="node">
<title>Node1</title>
<g id="a_node1"><a xlink:title=" ">
<polygon fill="#bfbfbf" stroke="black" points="84,-224.5 84,-243.5 210,-243.5 210,-224.5 84,-224.5"/>
<text text-anchor="middle" x="147" y="-231.5" font-family="Helvetica,sans-Serif" font-size="10.00">src/drv/adc_pooler.hpp</text>
</a>
</g>
</g>
<!-- Node2 -->
<g id="node2" class="node">
<title>Node2</title>
<g id="a_node2"><a xlink:href="drv_2callbacks_8hpp.html" target="_top" xlink:title=" ">
<polygon fill="white" stroke="black" points="0,-112.5 0,-131.5 102,-131.5 102,-112.5 0,-112.5"/>
<text text-anchor="middle" x="51" y="-119.5" font-family="Helvetica,sans-Serif" font-size="10.00">drv/callbacks.hpp</text>
</a>
</g>
</g>
<!-- Node1&#45;&gt;Node2 -->
<g id="edge1" class="edge">
<title>Node1&#45;&gt;Node2</title>
<path fill="none" stroke="midnightblue" d="M136.29,-224.26C125.95,-215.58 110.13,-201.64 98,-188 84.46,-172.78 71.05,-153.74 62.04,-140.21"/>
<polygon fill="midnightblue" stroke="midnightblue" points="64.97,-138.28 56.56,-131.83 59.11,-142.12 64.97,-138.28"/>
</g>
<!-- Node20 -->
<g id="node6" class="node">
<title>Node20</title>
<g id="a_node6"><a xlink:href="platform_8hpp.html" target="_top" xlink:title=" ">
<polygon fill="white" stroke="black" points="107,-168.5 107,-187.5 187,-187.5 187,-168.5 107,-168.5"/>
<text text-anchor="middle" x="147" y="-175.5" font-family="Helvetica,sans-Serif" font-size="10.00">platform.hpp</text>
</a>
</g>
</g>
<!-- Node1&#45;&gt;Node20 -->
<g id="edge7" class="edge">
<title>Node1&#45;&gt;Node20</title>
<path fill="none" stroke="midnightblue" d="M147,-224.08C147,-217.01 147,-206.86 147,-197.99"/>
<polygon fill="midnightblue" stroke="midnightblue" points="150.5,-197.75 147,-187.75 143.5,-197.75 150.5,-197.75"/>
</g>
<!-- Node23 -->
<g id="node8" class="node">
<title>Node23</title>
<g id="a_node8"><a xlink:href="sentry_8hpp.html" target="_top" xlink:title=" ">
<polygon fill="white" stroke="black" points="231.5,-168.5 231.5,-187.5 320.5,-187.5 320.5,-168.5 231.5,-168.5"/>
<text text-anchor="middle" x="276" y="-175.5" font-family="Helvetica,sans-Serif" font-size="10.00">sntr/sentry.hpp</text>
</a>
</g>
</g>
<!-- Node1&#45;&gt;Node23 -->
<g id="edge9" class="edge">
<title>Node1&#45;&gt;Node23</title>
<path fill="none" stroke="midnightblue" d="M167.44,-224.44C188.67,-215.56 222.1,-201.56 246.25,-191.45"/>
<polygon fill="midnightblue" stroke="midnightblue" points="247.78,-194.61 255.66,-187.52 245.08,-188.15 247.78,-194.61"/>
</g>
<!-- Node3 -->
<g id="node3" class="node">
<title>Node3</title>
<g id="a_node3"><a xlink:href="interfaces_8hpp.html" target="_top" xlink:title=" ">
<polygon fill="white" stroke="red" points="39.5,-56.5 39.5,-75.5 144.5,-75.5 144.5,-56.5 39.5,-56.5"/>
<text text-anchor="middle" x="92" y="-63.5" font-family="Helvetica,sans-Serif" font-size="10.00">drv/interfaces.hpp</text>
</a>
</g>
</g>
<!-- Node2&#45;&gt;Node3 -->
<g id="edge2" class="edge">
<title>Node2&#45;&gt;Node3</title>
<path fill="none" stroke="midnightblue" d="M57.77,-112.08C63.56,-104.46 72.06,-93.26 79.14,-83.94"/>
<polygon fill="midnightblue" stroke="midnightblue" points="82.1,-85.83 85.36,-75.75 76.52,-81.6 82.1,-85.83"/>
</g>
<!-- Node6 -->
<g id="node4" class="node">
<title>Node6</title>
<g id="a_node4"><a xlink:title=" ">
<polygon fill="white" stroke="#bfbfbf" points="148,-0.5 148,-19.5 198,-19.5 198,-0.5 148,-0.5"/>
<text text-anchor="middle" x="173" y="-7.5" font-family="Helvetica,sans-Serif" font-size="10.00">cstdint</text>
</a>
</g>
</g>
<!-- Node2&#45;&gt;Node6 -->
<g id="edge5" class="edge">
<title>Node2&#45;&gt;Node6</title>
<path fill="none" stroke="midnightblue" d="M90.38,-112.49C111.95,-105.91 137.56,-94.68 154,-76 165.28,-63.19 169.87,-44 171.74,-29.79"/>
<polygon fill="midnightblue" stroke="midnightblue" points="175.24,-29.97 172.73,-19.68 168.27,-29.29 175.24,-29.97"/>
</g>
<!-- Node19 -->
<g id="node5" class="node">
<title>Node19</title>
<g id="a_node5"><a xlink:title=" ">
<polygon fill="white" stroke="#bfbfbf" points="32,-0.5 32,-19.5 72,-19.5 72,-0.5 32,-0.5"/>
<text text-anchor="middle" x="52" y="-7.5" font-family="Helvetica,sans-Serif" font-size="10.00">span</text>
</a>
</g>
</g>
<!-- Node2&#45;&gt;Node19 -->
<g id="edge6" class="edge">
<title>Node2&#45;&gt;Node19</title>
<path fill="none" stroke="midnightblue" d="M45.01,-112.3C37.25,-99.96 25.24,-76.57 30,-56 32.23,-46.36 36.82,-36.41 41.24,-28.31"/>
<polygon fill="midnightblue" stroke="midnightblue" points="44.35,-29.92 46.36,-19.52 38.3,-26.4 44.35,-29.92"/>
</g>
<!-- Node3&#45;&gt;Node6 -->
<g id="edge3" class="edge">
<title>Node3&#45;&gt;Node6</title>
<path fill="none" stroke="midnightblue" d="M105.01,-56.32C117.53,-47.98 136.68,-35.21 151.47,-25.35"/>
<polygon fill="midnightblue" stroke="midnightblue" points="153.64,-28.11 160.02,-19.65 149.76,-22.29 153.64,-28.11"/>
</g>
<!-- Node3&#45;&gt;Node19 -->
<g id="edge4" class="edge">
<title>Node3&#45;&gt;Node19</title>
<path fill="none" stroke="midnightblue" d="M85.39,-56.08C79.74,-48.46 71.46,-37.26 64.55,-27.94"/>
<polygon fill="midnightblue" stroke="midnightblue" points="67.25,-25.7 58.48,-19.75 61.62,-29.87 67.25,-25.7"/>
</g>
<!-- Node21 -->
<g id="node7" class="node">
<title>Node21</title>
<g id="a_node7"><a xlink:href="hal_8hpp.html" target="_top" xlink:title=" ">
<polygon fill="white" stroke="red" points="120.5,-112.5 120.5,-131.5 173.5,-131.5 173.5,-112.5 120.5,-112.5"/>
<text text-anchor="middle" x="147" y="-119.5" font-family="Helvetica,sans-Serif" font-size="10.00">hal.hpp</text>
</a>
</g>
</g>
<!-- Node20&#45;&gt;Node21 -->
<g id="edge8" class="edge">
<title>Node20&#45;&gt;Node21</title>
<path fill="none" stroke="midnightblue" d="M147,-168.08C147,-161.01 147,-150.86 147,-141.99"/>
<polygon fill="midnightblue" stroke="midnightblue" points="150.5,-141.75 147,-131.75 143.5,-141.75 150.5,-141.75"/>
</g>
<!-- Node24 -->
<g id="node9" class="node">
<title>Node24</title>
<g id="a_node9"><a xlink:href="sntr_2base_8hpp.html" target="_top" xlink:title=" ">
<polygon fill="white" stroke="red" points="220.5,-56.5 220.5,-75.5 287.5,-75.5 287.5,-56.5 220.5,-56.5"/>
<text text-anchor="middle" x="254" y="-63.5" font-family="Helvetica,sans-Serif" font-size="10.00">./base.hpp</text>
</a>
</g>
</g>
<!-- Node23&#45;&gt;Node24 -->
<g id="edge10" class="edge">
<title>Node23&#45;&gt;Node24</title>
<path fill="none" stroke="midnightblue" d="M259.37,-168.46C246.51,-160.84 229.66,-148.36 222,-132 214.14,-115.21 225.94,-96.2 237.37,-83.1"/>
<polygon fill="midnightblue" stroke="midnightblue" points="239.95,-85.46 244.25,-75.78 234.85,-80.66 239.95,-85.46"/>
</g>
<!-- Node26 -->
<g id="node10" class="node">
<title>Node26</title>
<g id="a_node10"><a xlink:title=" ">
<polygon fill="white" stroke="#bfbfbf" points="246.5,-0.5 246.5,-19.5 297.5,-19.5 297.5,-0.5 246.5,-0.5"/>
<text text-anchor="middle" x="272" y="-7.5" font-family="Helvetica,sans-Serif" font-size="10.00">variant</text>
</a>
</g>
</g>
<!-- Node23&#45;&gt;Node26 -->
<g id="edge15" class="edge">
<title>Node23&#45;&gt;Node26</title>
<path fill="none" stroke="midnightblue" d="M320.56,-168.67C355.6,-159.69 396.45,-142.42 383,-112 365.47,-72.35 323.84,-41.58 296.84,-24.89"/>
<polygon fill="midnightblue" stroke="midnightblue" points="298.34,-21.71 287.96,-19.58 294.75,-27.72 298.34,-21.71"/>
</g>
<!-- Node27 -->
<g id="node11" class="node">
<title>Node27</title>
<g id="a_node11"><a xlink:href="central__sentry__iface_8hpp.html" target="_top" xlink:title=" ">
<polygon fill="white" stroke="black" points="230.5,-112.5 230.5,-131.5 373.5,-131.5 373.5,-112.5 230.5,-112.5"/>
<text text-anchor="middle" x="302" y="-119.5" font-family="Helvetica,sans-Serif" font-size="10.00">./central_sentry_iface.hpp</text>
</a>
</g>
</g>
<!-- Node23&#45;&gt;Node27 -->
<g id="edge13" class="edge">
<title>Node23&#45;&gt;Node27</title>
<path fill="none" stroke="midnightblue" d="M280.29,-168.08C283.85,-160.69 289.02,-149.95 293.42,-140.81"/>
<polygon fill="midnightblue" stroke="midnightblue" points="296.6,-142.28 297.79,-131.75 290.29,-139.24 296.6,-142.28"/>
</g>
<!-- Node24&#45;&gt;Node6 -->
<g id="edge11" class="edge">
<title>Node24&#45;&gt;Node6</title>
<path fill="none" stroke="midnightblue" d="M240.99,-56.32C228.47,-47.98 209.32,-35.21 194.53,-25.35"/>
<polygon fill="midnightblue" stroke="midnightblue" points="196.24,-22.29 185.98,-19.65 192.36,-28.11 196.24,-22.29"/>
</g>
<!-- Node24&#45;&gt;Node26 -->
<g id="edge12" class="edge">
<title>Node24&#45;&gt;Node26</title>
<path fill="none" stroke="midnightblue" d="M256.97,-56.08C259.38,-48.85 262.86,-38.41 265.87,-29.4"/>
<polygon fill="midnightblue" stroke="midnightblue" points="269.24,-30.34 269.08,-19.75 262.6,-28.13 269.24,-30.34"/>
</g>
<!-- Node27&#45;&gt;Node24 -->
<g id="edge14" class="edge">
<title>Node27&#45;&gt;Node24</title>
<path fill="none" stroke="midnightblue" d="M294.07,-112.08C287.15,-104.3 276.93,-92.8 268.55,-83.37"/>
<polygon fill="midnightblue" stroke="midnightblue" points="271.04,-80.9 261.78,-75.75 265.81,-85.55 271.04,-80.9"/>
</g>
</g>
</svg>
