<?xml version="1.0" encoding="UTF-8" standalone="no"?>
<!DOCTYPE svg PUBLIC "-//W3C//DTD SVG 1.1//EN"
 "http://www.w3.org/Graphics/SVG/1.1/DTD/svg11.dtd">
<!-- Generated by graphviz version 2.43.0 (0)
 -->
<!-- Title: src/host/async_cobs.hpp Pages: 1 -->
<svg width="512pt" height="151pt"
 viewBox="0.00 0.00 511.50 151.00" xmlns="http://www.w3.org/2000/svg" xmlns:xlink="http://www.w3.org/1999/xlink">
<g id="graph0" class="graph" transform="scale(1 1) rotate(0) translate(4 147)">
<title>src/host/async_cobs.hpp</title>
<polygon fill="white" stroke="transparent" points="-4,4 -4,-147 507.5,-147 507.5,4 -4,4"/>
<!-- Node1 -->
<g id="node1" class="node">
<title>Node1</title>
<g id="a_node1"><a xlink:title=" ">
<polygon fill="#bfbfbf" stroke="black" points="175.5,-123.5 175.5,-142.5 310.5,-142.5 310.5,-123.5 175.5,-123.5"/>
<text text-anchor="middle" x="243" y="-130.5" font-family="Helvetica,sans-Serif" font-size="10.00">src/host/async_cobs.hpp</text>
</a>
</g>
</g>
<!-- Node2 -->
<g id="node2" class="node">
<title>Node2</title>
<g id="a_node2"><a xlink:href="exceptions_8hpp.html" target="_top" xlink:title=" ">
<polygon fill="white" stroke="black" points="5.5,-62 5.5,-81 120.5,-81 120.5,-62 5.5,-62"/>
<text text-anchor="middle" x="63" y="-69" font-family="Helvetica,sans-Serif" font-size="10.00">host/exceptions.hpp</text>
</a>
</g>
</g>
<!-- Node1&#45;&gt;Node2 -->
<g id="edge1" class="edge">
<title>Node1&#45;&gt;Node2</title>
<path fill="none" stroke="midnightblue" d="M217.21,-123.48C186.07,-113.18 133.52,-95.81 98.55,-84.25"/>
<polygon fill="midnightblue" stroke="midnightblue" points="99.34,-80.82 88.74,-81.01 97.14,-87.47 99.34,-80.82"/>
</g>
<!-- Node5 -->
<g id="node5" class="node">
<title>Node5</title>
<g id="a_node5"><a xlink:title=" ">
<polygon fill="white" stroke="#bfbfbf" points="139,-62 139,-81 181,-81 181,-62 139,-62"/>
<text text-anchor="middle" x="160" y="-69" font-family="Helvetica,sans-Serif" font-size="10.00">array</text>
</a>
</g>
</g>
<!-- Node1&#45;&gt;Node5 -->
<g id="edge4" class="edge">
<title>Node1&#45;&gt;Node5</title>
<path fill="none" stroke="midnightblue" d="M231.11,-123.48C217.8,-113.93 196,-98.31 180.04,-86.87"/>
<polygon fill="midnightblue" stroke="midnightblue" points="182.04,-83.99 171.87,-81.01 177.96,-89.68 182.04,-83.99"/>
</g>
<!-- Node6 -->
<g id="node6" class="node">
<title>Node6</title>
<g id="a_node6"><a xlink:title=" ">
<polygon fill="white" stroke="#bfbfbf" points="199,-62 199,-81 287,-81 287,-62 199,-62"/>
<text text-anchor="middle" x="243" y="-69" font-family="Helvetica,sans-Serif" font-size="10.00">boost/asio.hpp</text>
</a>
</g>
</g>
<!-- Node1&#45;&gt;Node6 -->
<g id="edge5" class="edge">
<title>Node1&#45;&gt;Node6</title>
<path fill="none" stroke="midnightblue" d="M243,-123.48C243,-115.08 243,-101.98 243,-91.16"/>
<polygon fill="midnightblue" stroke="midnightblue" points="246.5,-91.01 243,-81.01 239.5,-91.01 246.5,-91.01"/>
</g>
<!-- Node7 -->
<g id="node7" class="node">
<title>Node7</title>
<g id="a_node7"><a xlink:title=" ">
<polygon fill="white" stroke="#bfbfbf" points="305.5,-56.5 305.5,-86.5 438.5,-86.5 438.5,-56.5 305.5,-56.5"/>
<text text-anchor="start" x="313.5" y="-74.5" font-family="Helvetica,sans-Serif" font-size="10.00">emlabcpp/experimental</text>
<text text-anchor="middle" x="372" y="-63.5" font-family="Helvetica,sans-Serif" font-size="10.00">/cobs.h</text>
</a>
</g>
</g>
<!-- Node1&#45;&gt;Node7 -->
<g id="edge6" class="edge">
<title>Node1&#45;&gt;Node7</title>
<path fill="none" stroke="midnightblue" d="M261.48,-123.48C279.93,-114.96 308.87,-101.62 332.5,-90.72"/>
<polygon fill="midnightblue" stroke="midnightblue" points="333.98,-93.89 341.6,-86.52 331.05,-87.53 333.98,-93.89"/>
</g>
<!-- Node8 -->
<g id="node8" class="node">
<title>Node8</title>
<g id="a_node8"><a xlink:title=" ">
<polygon fill="white" stroke="#bfbfbf" points="456.5,-62 456.5,-81 503.5,-81 503.5,-62 456.5,-62"/>
<text text-anchor="middle" x="480" y="-69" font-family="Helvetica,sans-Serif" font-size="10.00">vector</text>
</a>
</g>
</g>
<!-- Node1&#45;&gt;Node8 -->
<g id="edge7" class="edge">
<title>Node1&#45;&gt;Node8</title>
<path fill="none" stroke="midnightblue" d="M296.49,-123.43C338.34,-115.97 397.69,-103.72 448,-87 449.87,-86.38 451.77,-85.69 453.67,-84.95"/>
<polygon fill="midnightblue" stroke="midnightblue" points="455.15,-88.12 462.99,-81 452.42,-81.68 455.15,-88.12"/>
</g>
<!-- Node3 -->
<g id="node3" class="node">
<title>Node3</title>
<g id="a_node3"><a xlink:title=" ">
<polygon fill="white" stroke="#bfbfbf" points="0,-0.5 0,-19.5 50,-19.5 50,-0.5 0,-0.5"/>
<text text-anchor="middle" x="25" y="-7.5" font-family="Helvetica,sans-Serif" font-size="10.00">io.pb.h</text>
</a>
</g>
</g>
<!-- Node2&#45;&gt;Node3 -->
<g id="edge2" class="edge">
<title>Node2&#45;&gt;Node3</title>
<path fill="none" stroke="midnightblue" d="M57.56,-61.98C51.91,-53.14 42.94,-39.09 35.84,-27.98"/>
<polygon fill="midnightblue" stroke="midnightblue" points="38.77,-26.05 30.43,-19.51 32.87,-29.82 38.77,-26.05"/>
</g>
<!-- Node4 -->
<g id="node4" class="node">
<title>Node4</title>
<g id="a_node4"><a xlink:title=" ">
<polygon fill="white" stroke="#bfbfbf" points="68.5,-0.5 68.5,-19.5 133.5,-19.5 133.5,-0.5 68.5,-0.5"/>
<text text-anchor="middle" x="101" y="-7.5" font-family="Helvetica,sans-Serif" font-size="10.00">exception</text>
</a>
</g>
</g>
<!-- Node2&#45;&gt;Node4 -->
<g id="edge3" class="edge">
<title>Node2&#45;&gt;Node4</title>
<path fill="none" stroke="midnightblue" d="M68.44,-61.98C74.09,-53.14 83.06,-39.09 90.16,-27.98"/>
<polygon fill="midnightblue" stroke="midnightblue" points="93.13,-29.82 95.57,-19.51 87.23,-26.05 93.13,-29.82"/>
</g>
</g>
</svg>
