<?xml version="1.0" encoding="UTF-8" standalone="no"?>
<!DOCTYPE svg PUBLIC "-//W3C//DTD SVG 1.1//EN"
 "http://www.w3.org/Graphics/SVG/1.1/DTD/svg11.dtd">
<!-- Generated by graphviz version 2.43.0 (0)
 -->
<!-- Title: src/scmdio/tests/autotune_utest.cpp Pages: 1 -->
<svg width="362pt" height="148pt"
 viewBox="0.00 0.00 361.50 148.00" xmlns="http://www.w3.org/2000/svg" xmlns:xlink="http://www.w3.org/1999/xlink">
<g id="graph0" class="graph" transform="scale(1 1) rotate(0) translate(4 144)">
<title>src/scmdio/tests/autotune_utest.cpp</title>
<!-- Node1 -->
<g id="Node000001" class="node">
<title>Node1</title>
<g id="a_Node000001"><a xlink:title=" ">
<polygon fill="#999999" stroke="#666666" points="271,-140 128,-140 128,-110 271,-110 271,-140"/>
<text text-anchor="start" x="136" y="-128" font-family="Helvetica,sans-Serif" font-size="10.00">src/scmdio/tests/autotune</text>
<text text-anchor="middle" x="199.5" y="-117" font-family="Helvetica,sans-Serif" font-size="10.00">_utest.cpp</text>
</a>
</g>
</g>
<!-- Node2 -->
<g id="Node000002" class="node">
<title>Node2</title>
<g id="a_Node000002"><a xlink:href="pid__autotune_8hpp.html" target="_top" xlink:title=" ">
<polygon fill="white" stroke="#666666" points="198.5,-74 88.5,-74 88.5,-55 198.5,-55 198.5,-74"/>
<text text-anchor="middle" x="143.5" y="-62" font-family="Helvetica,sans-Serif" font-size="10.00">../pid_autotune.hpp</text>
</a>
</g>
</g>
<!-- Node1&#45;&gt;Node2 -->
<g id="edge1_Node000001_Node000002" class="edge">
<title>Node1&#45;&gt;Node2</title>
<g id="a_edge1_Node000001_Node000002"><a xlink:title=" ">
<path fill="none" stroke="#63b8ff" d="M185.94,-109.84C177.82,-101.35 167.45,-90.52 159,-81.69"/>
<polygon fill="#63b8ff" stroke="#63b8ff" points="161.33,-79.07 151.89,-74.27 156.28,-83.91 161.33,-79.07"/>
</a>
</g>
</g>
<!-- Node15 -->
<g id="Node000015" class="node">
<title>Node15</title>
<g id="a_Node000015"><a xlink:title=" ">
<polygon fill="#e0e0e0" stroke="#999999" points="294.5,-74 216.5,-74 216.5,-55 294.5,-55 294.5,-74"/>
<text text-anchor="middle" x="255.5" y="-62" font-family="Helvetica,sans-Serif" font-size="10.00">gtest/gtest.h</text>
</a>
</g>
</g>
<!-- Node1&#45;&gt;Node15 -->
<g id="edge5_Node000001_Node000015" class="edge">
<title>Node1&#45;&gt;Node15</title>
<g id="a_edge5_Node000001_Node000015"><a xlink:title=" ">
<path fill="none" stroke="#63b8ff" d="M213.06,-109.84C221.18,-101.35 231.55,-90.52 240,-81.69"/>
<polygon fill="#63b8ff" stroke="#63b8ff" points="242.72,-83.91 247.11,-74.27 237.67,-79.07 242.72,-83.91"/>
</a>
</g>
</g>
<!-- Node3 -->
<g id="Node000003" class="node">
<title>Node3</title>
<g id="a_Node000003"><a xlink:href="port_8hpp.html" target="_top" xlink:title=" ">
<polygon fill="#fff0f0" stroke="red" points="63,-19 0,-19 0,0 63,0 63,-19"/>
<text text-anchor="middle" x="31.5" y="-7" font-family="Helvetica,sans-Serif" font-size="10.00">./port.hpp</text>
</a>
</g>
</g>
<!-- Node2&#45;&gt;Node3 -->
<g id="edge2_Node000002_Node000003" class="edge">
<title>Node2&#45;&gt;Node3</title>
<g id="a_edge2_Node000002_Node000003"><a xlink:title=" ">
<path fill="none" stroke="#63b8ff" d="M125.51,-54.98C107.57,-46.5 79.78,-33.35 59.07,-23.54"/>
<polygon fill="#63b8ff" stroke="#63b8ff" points="60.36,-20.28 49.82,-19.17 57.36,-26.61 60.36,-20.28"/>
</a>
</g>
</g>
<!-- Node13 -->
<g id="Node000013" class="node">
<title>Node13</title>
<g id="a_Node000013"><a xlink:title=" ">
<polygon fill="#e0e0e0" stroke="#999999" points="205.5,-19 81.5,-19 81.5,0 205.5,0 205.5,-19"/>
<text text-anchor="middle" x="143.5" y="-7" font-family="Helvetica,sans-Serif" font-size="10.00">emlabcpp/algorithm.h</text>
</a>
</g>
</g>
<!-- Node2&#45;&gt;Node13 -->
<g id="edge3_Node000002_Node000013" class="edge">
<title>Node2&#45;&gt;Node13</title>
<g id="a_edge3_Node000002_Node000013"><a xlink:title=" ">
<path fill="none" stroke="#63b8ff" d="M143.5,-54.75C143.5,-47.8 143.5,-37.85 143.5,-29.13"/>
<polygon fill="#63b8ff" stroke="#63b8ff" points="147,-29.09 143.5,-19.09 140,-29.09 147,-29.09"/>
</a>
</g>
</g>
<!-- Node14 -->
<g id="Node000014" class="node">
<title>Node14</title>
<g id="a_Node000014"><a xlink:title=" ">
<polygon fill="#e0e0e0" stroke="#999999" points="353.5,-19 223.5,-19 223.5,0 353.5,0 353.5,-19"/>
<text text-anchor="middle" x="288.5" y="-7" font-family="Helvetica,sans-Serif" font-size="10.00">emlabcpp/enumerate.h</text>
</a>
</g>
</g>
<!-- Node2&#45;&gt;Node14 -->
<g id="edge4_Node000002_Node000014" class="edge">
<title>Node2&#45;&gt;Node14</title>
<g id="a_edge4_Node000002_Node000014"><a xlink:title=" ">
<path fill="none" stroke="#63b8ff" d="M166.8,-54.98C190.75,-46.23 228.28,-32.51 255.33,-22.62"/>
<polygon fill="#63b8ff" stroke="#63b8ff" points="256.59,-25.89 264.78,-19.17 254.19,-19.32 256.59,-25.89"/>
</a>
</g>
</g>
</g>
</svg>
