<?xml version="1.0" encoding="UTF-8" standalone="no"?>
<!DOCTYPE svg PUBLIC "-//W3C//DTD SVG 1.1//EN"
 "http://www.w3.org/Graphics/SVG/1.1/DTD/svg11.dtd">
<!-- Generated by graphviz version 2.43.0 (0)
 -->
<!-- Title: src/base/callbacks.hpp Pages: 1 -->
<svg width="417pt" height="196pt"
 viewBox="0.00 0.00 417.00 196.00" xmlns="http://www.w3.org/2000/svg" xmlns:xlink="http://www.w3.org/1999/xlink">
<g id="graph0" class="graph" transform="scale(1 1) rotate(0) translate(4 192)">
<title>src/base/callbacks.hpp</title>
<polygon fill="white" stroke="transparent" points="-4,4 -4,-192 413,-192 413,4 -4,4"/>
<!-- Node1 -->
<g id="node1" class="node">
<title>Node1</title>
<g id="a_node1"><a xlink:title=" ">
<polygon fill="#bfbfbf" stroke="black" points="282,-168.5 282,-187.5 409,-187.5 409,-168.5 282,-168.5"/>
<text text-anchor="middle" x="345.5" y="-175.5" font-family="Helvetica,sans-Serif" font-size="10.00">src/base/callbacks.hpp</text>
</a>
</g>
</g>
<!-- Node2 -->
<g id="node2" class="node">
<title>Node2</title>
<g id="a_node2"><a xlink:href="drv__interfaces_8hpp.html" target="_top" xlink:title=" ">
<polygon fill="white" stroke="black" points="134.5,-112.5 134.5,-131.5 268.5,-131.5 268.5,-112.5 134.5,-112.5"/>
<text text-anchor="middle" x="201.5" y="-119.5" font-family="Helvetica,sans-Serif" font-size="10.00">base/drv_interfaces.hpp</text>
</a>
</g>
</g>
<!-- Node1&#45;&gt;Node2 -->
<g id="edge1" class="edge">
<title>Node1&#45;&gt;Node2</title>
<path fill="none" stroke="midnightblue" d="M322.68,-168.44C298.67,-159.44 260.67,-145.19 233.63,-135.05"/>
<polygon fill="midnightblue" stroke="midnightblue" points="234.8,-131.75 224.21,-131.52 232.34,-138.3 234.8,-131.75"/>
</g>
<!-- Node5 -->
<g id="node4" class="node">
<title>Node5</title>
<g id="a_node4"><a xlink:title=" ">
<polygon fill="white" stroke="#bfbfbf" points="64.5,-0.5 64.5,-19.5 114.5,-19.5 114.5,-0.5 64.5,-0.5"/>
<text text-anchor="middle" x="89.5" y="-7.5" font-family="Helvetica,sans-Serif" font-size="10.00">cstdint</text>
</a>
</g>
</g>
<!-- Node1&#45;&gt;Node5 -->
<g id="edge8" class="edge">
<title>Node1&#45;&gt;Node5</title>
<path fill="none" stroke="midnightblue" d="M352.15,-168.2C367.71,-146.45 403.13,-89.5 374.5,-56 342.84,-18.95 194.64,-12.22 125.37,-11.13"/>
<polygon fill="midnightblue" stroke="midnightblue" points="125,-7.62 114.96,-11 124.91,-14.62 125,-7.62"/>
</g>
<!-- Node10 -->
<g id="node7" class="node">
<title>Node10</title>
<g id="a_node7"><a xlink:title=" ">
<polygon fill="white" stroke="#bfbfbf" points="325.5,-56.5 325.5,-75.5 365.5,-75.5 365.5,-56.5 325.5,-56.5"/>
<text text-anchor="middle" x="345.5" y="-63.5" font-family="Helvetica,sans-Serif" font-size="10.00">span</text>
</a>
</g>
</g>
<!-- Node1&#45;&gt;Node10 -->
<g id="edge9" class="edge">
<title>Node1&#45;&gt;Node10</title>
<path fill="none" stroke="midnightblue" d="M345.5,-168.37C345.5,-150.62 345.5,-109.67 345.5,-85.6"/>
<polygon fill="midnightblue" stroke="midnightblue" points="349,-85.59 345.5,-75.59 342,-85.59 349,-85.59"/>
</g>
<!-- Node3 -->
<g id="node3" class="node">
<title>Node3</title>
<g id="a_node3"><a xlink:href="base_8hpp.html" target="_top" xlink:title=" ">
<polygon fill="white" stroke="red" points="0,-56.5 0,-75.5 61,-75.5 61,-56.5 0,-56.5"/>
<text text-anchor="middle" x="30.5" y="-63.5" font-family="Helvetica,sans-Serif" font-size="10.00">base.hpp</text>
</a>
</g>
</g>
<!-- Node2&#45;&gt;Node3 -->
<g id="edge2" class="edge">
<title>Node2&#45;&gt;Node3</title>
<path fill="none" stroke="midnightblue" d="M174.4,-112.44C145.51,-103.32 99.58,-88.81 67.39,-78.65"/>
<polygon fill="midnightblue" stroke="midnightblue" points="68.06,-75.19 57.47,-75.52 65.95,-81.87 68.06,-75.19"/>
</g>
<!-- Node2&#45;&gt;Node5 -->
<g id="edge5" class="edge">
<title>Node2&#45;&gt;Node5</title>
<path fill="none" stroke="midnightblue" d="M168.4,-112.43C148.41,-105.65 123.91,-94.21 108.5,-76 97.47,-62.97 92.84,-43.81 90.9,-29.67"/>
<polygon fill="midnightblue" stroke="midnightblue" points="94.37,-29.19 89.85,-19.61 87.41,-29.92 94.37,-29.19"/>
</g>
<!-- Node8 -->
<g id="node5" class="node">
<title>Node8</title>
<g id="a_node5"><a xlink:href="status_8hpp.html" target="_top" xlink:title=" ">
<polygon fill="white" stroke="black" points="117.5,-56.5 117.5,-75.5 185.5,-75.5 185.5,-56.5 117.5,-56.5"/>
<text text-anchor="middle" x="151.5" y="-63.5" font-family="Helvetica,sans-Serif" font-size="10.00">status.hpp</text>
</a>
</g>
</g>
<!-- Node2&#45;&gt;Node8 -->
<g id="edge4" class="edge">
<title>Node2&#45;&gt;Node8</title>
<path fill="none" stroke="midnightblue" d="M193.24,-112.08C186.04,-104.3 175.39,-92.8 166.65,-83.37"/>
<polygon fill="midnightblue" stroke="midnightblue" points="168.97,-80.71 159.6,-75.75 163.83,-85.47 168.97,-80.71"/>
</g>
<!-- Node9 -->
<g id="node6" class="node">
<title>Node9</title>
<g id="a_node6"><a xlink:title=" ">
<polygon fill="white" stroke="#bfbfbf" points="203.5,-56.5 203.5,-75.5 307.5,-75.5 307.5,-56.5 203.5,-56.5"/>
<text text-anchor="middle" x="255.5" y="-63.5" font-family="Helvetica,sans-Serif" font-size="10.00">emlabcpp/result.h</text>
</a>
</g>
</g>
<!-- Node2&#45;&gt;Node9 -->
<g id="edge6" class="edge">
<title>Node2&#45;&gt;Node9</title>
<path fill="none" stroke="midnightblue" d="M210.42,-112.08C218.28,-104.22 229.93,-92.57 239.42,-83.08"/>
<polygon fill="midnightblue" stroke="midnightblue" points="242.15,-85.3 246.75,-75.75 237.2,-80.35 242.15,-85.3"/>
</g>
<!-- Node2&#45;&gt;Node10 -->
<g id="edge7" class="edge">
<title>Node2&#45;&gt;Node10</title>
<path fill="none" stroke="midnightblue" d="M224.32,-112.44C249.04,-103.17 288.58,-88.35 315.73,-78.17"/>
<polygon fill="midnightblue" stroke="midnightblue" points="316.98,-81.43 325.12,-74.64 314.53,-74.88 316.98,-81.43"/>
</g>
<!-- Node3&#45;&gt;Node5 -->
<g id="edge3" class="edge">
<title>Node3&#45;&gt;Node5</title>
<path fill="none" stroke="midnightblue" d="M39.98,-56.32C48.7,-48.34 61.84,-36.31 72.4,-26.65"/>
<polygon fill="midnightblue" stroke="midnightblue" points="74.83,-29.17 79.85,-19.83 70.11,-24 74.83,-29.17"/>
</g>
</g>
</svg>
