<?xml version="1.0" encoding="UTF-8" standalone="no"?>
<!DOCTYPE svg PUBLIC "-//W3C//DTD SVG 1.1//EN"
 "http://www.w3.org/Graphics/SVG/1.1/DTD/svg11.dtd">
<!-- Generated by graphviz version 2.43.0 (0)
 -->
<!-- Title: src/iface/base.h Pages: 1 -->
<svg width="287pt" height="82pt"
 viewBox="0.00 0.00 286.50 82.00" xmlns="http://www.w3.org/2000/svg" xmlns:xlink="http://www.w3.org/1999/xlink">
<g id="graph0" class="graph" transform="scale(1 1) rotate(0) translate(4 78)">
<title>src/iface/base.h</title>
<!-- Node1 -->
<g id="Node000001" class="node">
<title>Node1</title>
<g id="a_Node000001"><a xlink:title=" ">
<polygon fill="#999999" stroke="#666666" points="158.5,-74 65.5,-74 65.5,-55 158.5,-55 158.5,-74"/>
<text text-anchor="middle" x="112" y="-62" font-family="Helvetica,sans-Serif" font-size="10.00">src/iface/base.h</text>
</a>
</g>
</g>
<!-- Node2 -->
<g id="Node000002" class="node">
<title>Node2</title>
<g id="a_Node000002"><a xlink:title=" ">
<polygon fill="#e0e0e0" stroke="#999999" points="50,-19 0,-19 0,0 50,0 50,-19"/>
<text text-anchor="middle" x="25" y="-7" font-family="Helvetica,sans-Serif" font-size="10.00">cstdint</text>
</a>
</g>
</g>
<!-- Node1&#45;&gt;Node2 -->
<g id="edge1_Node000001_Node000002" class="edge">
<title>Node1&#45;&gt;Node2</title>
<g id="a_edge1_Node000001_Node000002"><a xlink:title=" ">
<path fill="none" stroke="#63b8ff" d="M98.02,-54.98C84.53,-46.77 63.87,-34.18 47.96,-24.49"/>
<polygon fill="#63b8ff" stroke="#63b8ff" points="49.59,-21.38 39.23,-19.17 45.95,-27.36 49.59,-21.38"/>
</a>
</g>
</g>
<!-- Node3 -->
<g id="Node000003" class="node">
<title>Node3</title>
<g id="a_Node000003"><a xlink:title=" ">
<polygon fill="#e0e0e0" stroke="#999999" points="155.5,-19 68.5,-19 68.5,0 155.5,0 155.5,-19"/>
<text text-anchor="middle" x="112" y="-7" font-family="Helvetica,sans-Serif" font-size="10.00">avakar/atom.h</text>
</a>
</g>
</g>
<!-- Node1&#45;&gt;Node3 -->
<g id="edge2_Node000001_Node000003" class="edge">
<title>Node1&#45;&gt;Node3</title>
<g id="a_edge2_Node000001_Node000003"><a xlink:title=" ">
<path fill="none" stroke="#63b8ff" d="M112,-54.75C112,-47.8 112,-37.85 112,-29.13"/>
<polygon fill="#63b8ff" stroke="#63b8ff" points="115.5,-29.09 112,-19.09 108.5,-29.09 115.5,-29.09"/>
</a>
</g>
</g>
<!-- Node4 -->
<g id="Node000004" class="node">
<title>Node4</title>
<g id="a_Node000004"><a xlink:title=" ">
<polygon fill="#e0e0e0" stroke="#999999" points="278.5,-19 173.5,-19 173.5,0 278.5,0 278.5,-19"/>
<text text-anchor="middle" x="226" y="-7" font-family="Helvetica,sans-Serif" font-size="10.00">vari/bits/typelist.h</text>
</a>
</g>
</g>
<!-- Node1&#45;&gt;Node4 -->
<g id="edge3_Node000001_Node000004" class="edge">
<title>Node1&#45;&gt;Node4</title>
<g id="a_edge3_Node000001_Node000004"><a xlink:title=" ">
<path fill="none" stroke="#63b8ff" d="M130.32,-54.98C148.66,-46.46 177.11,-33.23 198.23,-23.41"/>
<polygon fill="#63b8ff" stroke="#63b8ff" points="199.76,-26.56 207.35,-19.17 196.81,-20.21 199.76,-26.56"/>
</a>
</g>
</g>
</g>
</svg>
