<?xml version="1.0" encoding="UTF-8" standalone="no"?>
<!DOCTYPE svg PUBLIC "-//W3C//DTD SVG 1.1//EN"
 "http://www.w3.org/Graphics/SVG/1.1/DTD/svg11.dtd">
<!-- Generated by graphviz version 2.43.0 (0)
 -->
<!-- Title: src/brd/proto3/bench.cpp Pages: 1 -->
<svg width="1197pt" height="218pt"
 viewBox="0.00 0.00 1196.50 218.00" xmlns="http://www.w3.org/2000/svg" xmlns:xlink="http://www.w3.org/1999/xlink">
<g id="graph0" class="graph" transform="scale(1 1) rotate(0) translate(4 214)">
<title>src/brd/proto3/bench.cpp</title>
<polygon fill="white" stroke="transparent" points="-4,4 -4,-214 1192.5,-214 1192.5,4 -4,4"/>
<!-- Node1 -->
<g id="node1" class="node">
<title>Node1</title>
<g id="a_node1"><a xlink:title=" ">
<polygon fill="#bfbfbf" stroke="black" points="386,-190.5 386,-209.5 523,-209.5 523,-190.5 386,-190.5"/>
<text text-anchor="middle" x="454.5" y="-197.5" font-family="Helvetica,sans-Serif" font-size="10.00">src/brd/proto3/bench.cpp</text>
</a>
</g>
</g>
<!-- Node2 -->
<g id="node2" class="node">
<title>Node2</title>
<g id="a_node2"><a xlink:href="benchmarks_8hpp.html" target="_top" xlink:title=" ">
<polygon fill="white" stroke="black" points="560,-134.5 560,-153.5 715,-153.5 715,-134.5 560,-134.5"/>
<text text-anchor="middle" x="637.5" y="-141.5" font-family="Helvetica,sans-Serif" font-size="10.00">ftest/bench/benchmarks.hpp</text>
</a>
</g>
</g>
<!-- Node1&#45;&gt;Node2 -->
<g id="edge1" class="edge">
<title>Node1&#45;&gt;Node2</title>
<path fill="none" stroke="midnightblue" d="M483.5,-190.44C514.68,-181.24 564.43,-166.56 598.91,-156.39"/>
<polygon fill="midnightblue" stroke="midnightblue" points="600.04,-159.7 608.64,-153.52 598.06,-152.99 600.04,-159.7"/>
</g>
<!-- Node56 -->
<g id="node13" class="node">
<title>Node56</title>
<g id="a_node13"><a xlink:href="setup__tests_8hpp.html" target="_top" xlink:title=" ">
<polygon fill="white" stroke="black" points="213,-134.5 213,-153.5 332,-153.5 332,-134.5 213,-134.5"/>
<text text-anchor="middle" x="272.5" y="-141.5" font-family="Helvetica,sans-Serif" font-size="10.00">ftest/setup_tests.hpp</text>
</a>
</g>
</g>
<!-- Node1&#45;&gt;Node56 -->
<g id="edge14" class="edge">
<title>Node1&#45;&gt;Node56</title>
<path fill="none" stroke="midnightblue" d="M425.66,-190.44C394.64,-181.24 345.17,-166.56 310.88,-156.39"/>
<polygon fill="midnightblue" stroke="midnightblue" points="311.79,-153.01 301.2,-153.52 309.79,-159.72 311.79,-153.01"/>
</g>
<!-- Node3 -->
<g id="node3" class="node">
<title>Node3</title>
<g id="a_node3"><a xlink:href="core_8hpp.html" target="_top" xlink:title=" ">
<polygon fill="white" stroke="red" points="447,-73 447,-92 530,-92 530,-73 447,-73"/>
<text text-anchor="middle" x="488.5" y="-80" font-family="Helvetica,sans-Serif" font-size="10.00">core/core.hpp</text>
</a>
</g>
</g>
<!-- Node2&#45;&gt;Node3 -->
<g id="edge2" class="edge">
<title>Node2&#45;&gt;Node3</title>
<path fill="none" stroke="midnightblue" d="M616.15,-134.48C590.81,-124.36 548.36,-107.4 519.43,-95.85"/>
<polygon fill="midnightblue" stroke="midnightblue" points="520.39,-92.47 509.81,-92.01 517.8,-98.97 520.39,-92.47"/>
</g>
<!-- Node43 -->
<g id="node4" class="node">
<title>Node43</title>
<g id="a_node4"><a xlink:href="drv_2callbacks_8hpp.html" target="_top" xlink:title=" ">
<polygon fill="white" stroke="red" points="586.5,-73 586.5,-92 688.5,-92 688.5,-73 586.5,-73"/>
<text text-anchor="middle" x="637.5" y="-80" font-family="Helvetica,sans-Serif" font-size="10.00">drv/callbacks.hpp</text>
</a>
</g>
</g>
<!-- Node2&#45;&gt;Node43 -->
<g id="edge3" class="edge">
<title>Node2&#45;&gt;Node43</title>
<path fill="none" stroke="midnightblue" d="M637.5,-134.48C637.5,-126.08 637.5,-112.98 637.5,-102.16"/>
<polygon fill="midnightblue" stroke="midnightblue" points="641,-102.01 637.5,-92.01 634,-102.01 641,-102.01"/>
</g>
<!-- Node22 -->
<g id="node5" class="node">
<title>Node22</title>
<g id="a_node5"><a xlink:href="interfaces_8hpp.html" target="_top" xlink:title=" ">
<polygon fill="white" stroke="red" points="540.5,-6 540.5,-25 654.5,-25 654.5,-6 540.5,-6"/>
<text text-anchor="middle" x="597.5" y="-13" font-family="Helvetica,sans-Serif" font-size="10.00">../drv/interfaces.hpp</text>
</a>
</g>
</g>
<!-- Node2&#45;&gt;Node22 -->
<g id="edge5" class="edge">
<title>Node2&#45;&gt;Node22</title>
<path fill="none" stroke="midnightblue" d="M618.2,-134.48C604.07,-127.08 585.94,-114.89 577.5,-98 567.15,-77.3 577.34,-50.92 586.57,-33.87"/>
<polygon fill="midnightblue" stroke="midnightblue" points="589.71,-35.42 591.73,-25.02 583.67,-31.9 589.71,-35.42"/>
</g>
<!-- Node44 -->
<g id="node6" class="node">
<title>Node44</title>
<g id="a_node6"><a xlink:href="retainers_8hpp.html" target="_top" xlink:title=" ">
<polygon fill="white" stroke="red" points="706.5,-73 706.5,-92 806.5,-92 806.5,-73 706.5,-73"/>
<text text-anchor="middle" x="756.5" y="-80" font-family="Helvetica,sans-Serif" font-size="10.00">drv/retainers.hpp</text>
</a>
</g>
</g>
<!-- Node2&#45;&gt;Node44 -->
<g id="edge6" class="edge">
<title>Node2&#45;&gt;Node44</title>
<path fill="none" stroke="midnightblue" d="M654.55,-134.48C674.34,-124.58 707.22,-108.14 730.27,-96.62"/>
<polygon fill="midnightblue" stroke="midnightblue" points="732.1,-99.61 739.48,-92.01 728.97,-93.35 732.1,-99.61"/>
</g>
<!-- Node46 -->
<g id="node7" class="node">
<title>Node46</title>
<g id="a_node7"><a xlink:href="ftest_2bench_2base_8hpp.html" target="_top" xlink:title=" ">
<polygon fill="white" stroke="red" points="824.5,-73 824.5,-92 942.5,-92 942.5,-73 824.5,-73"/>
<text text-anchor="middle" x="883.5" y="-80" font-family="Helvetica,sans-Serif" font-size="10.00">ftest/bench/base.hpp</text>
</a>
</g>
</g>
<!-- Node2&#45;&gt;Node46 -->
<g id="edge8" class="edge">
<title>Node2&#45;&gt;Node46</title>
<path fill="none" stroke="midnightblue" d="M672.75,-134.48C716.4,-123.92 790.84,-105.91 838.56,-94.37"/>
<polygon fill="midnightblue" stroke="midnightblue" points="839.42,-97.76 848.32,-92.01 837.78,-90.96 839.42,-97.76"/>
</g>
<!-- Node47 -->
<g id="node8" class="node">
<title>Node47</title>
<g id="a_node8"><a xlink:href="utest_8hpp.html" target="_top" xlink:title=" ">
<polygon fill="white" stroke="red" points="229,-73 229,-92 316,-92 316,-73 229,-73"/>
<text text-anchor="middle" x="272.5" y="-80" font-family="Helvetica,sans-Serif" font-size="10.00">ftest/utest.hpp</text>
</a>
</g>
</g>
<!-- Node2&#45;&gt;Node47 -->
<g id="edge9" class="edge">
<title>Node2&#45;&gt;Node47</title>
<path fill="none" stroke="midnightblue" d="M559.83,-134.66C496.2,-127.15 404.01,-114.73 324.5,-98 319.99,-97.05 315.3,-95.93 310.66,-94.74"/>
<polygon fill="midnightblue" stroke="midnightblue" points="311.24,-91.28 300.67,-92.07 309.43,-98.04 311.24,-91.28"/>
</g>
<!-- Node52 -->
<g id="node11" class="node">
<title>Node52</title>
<g id="a_node11"><a xlink:href="platform_8hpp.html" target="_top" xlink:title=" ">
<polygon fill="white" stroke="red" points="960.5,-73 960.5,-92 1040.5,-92 1040.5,-73 960.5,-73"/>
<text text-anchor="middle" x="1000.5" y="-80" font-family="Helvetica,sans-Serif" font-size="10.00">platform.hpp</text>
</a>
</g>
</g>
<!-- Node2&#45;&gt;Node52 -->
<g id="edge12" class="edge">
<title>Node2&#45;&gt;Node52</title>
<path fill="none" stroke="midnightblue" d="M715.16,-135.05C779.05,-127.76 871.74,-115.42 951.5,-98 955.69,-97.08 960.05,-96 964.36,-94.84"/>
<polygon fill="midnightblue" stroke="midnightblue" points="965.57,-98.13 974.24,-92.04 963.66,-91.4 965.57,-98.13"/>
</g>
<!-- Node55 -->
<g id="node12" class="node">
<title>Node55</title>
<g id="a_node12"><a xlink:title=" ">
<polygon fill="white" stroke="#bfbfbf" points="1058.5,-73 1058.5,-92 1188.5,-92 1188.5,-73 1058.5,-73"/>
<text text-anchor="middle" x="1123.5" y="-80" font-family="Helvetica,sans-Serif" font-size="10.00">emlabcpp/enumerate.h</text>
</a>
</g>
</g>
<!-- Node2&#45;&gt;Node55 -->
<g id="edge13" class="edge">
<title>Node2&#45;&gt;Node55</title>
<path fill="none" stroke="midnightblue" d="M715.21,-136.49C798.23,-129.07 933.55,-115.66 1049.5,-98 1057.24,-96.82 1065.39,-95.4 1073.35,-93.92"/>
<polygon fill="midnightblue" stroke="midnightblue" points="1074.12,-97.34 1083.28,-92.02 1072.8,-90.46 1074.12,-97.34"/>
</g>
<!-- Node43&#45;&gt;Node22 -->
<g id="edge4" class="edge">
<title>Node43&#45;&gt;Node22</title>
<path fill="none" stroke="midnightblue" d="M632.11,-72.73C625.99,-62.79 615.86,-46.34 608.14,-33.79"/>
<polygon fill="midnightblue" stroke="midnightblue" points="611.03,-31.81 602.81,-25.13 605.07,-35.48 611.03,-31.81"/>
</g>
<!-- Node44&#45;&gt;Node22 -->
<g id="edge7" class="edge">
<title>Node44&#45;&gt;Node22</title>
<path fill="none" stroke="midnightblue" d="M735.39,-72.87C707.87,-61.62 659.55,-41.87 628.04,-28.99"/>
<polygon fill="midnightblue" stroke="midnightblue" points="629.03,-25.61 618.45,-25.06 626.38,-32.09 629.03,-25.61"/>
</g>
<!-- Node48 -->
<g id="node9" class="node">
<title>Node48</title>
<g id="a_node9"><a xlink:title=" ">
<polygon fill="white" stroke="#bfbfbf" points="0,-0.5 0,-30.5 133,-30.5 133,-0.5 0,-0.5"/>
<text text-anchor="start" x="8" y="-18.5" font-family="Helvetica,sans-Serif" font-size="10.00">emlabcpp/experimental</text>
<text text-anchor="middle" x="66.5" y="-7.5" font-family="Helvetica,sans-Serif" font-size="10.00">/testing/collect.h</text>
</a>
</g>
</g>
<!-- Node47&#45;&gt;Node48 -->
<g id="edge10" class="edge">
<title>Node47&#45;&gt;Node48</title>
<path fill="none" stroke="midnightblue" d="M245.14,-72.87C213.5,-62.88 160.62,-46.2 120.58,-33.56"/>
<polygon fill="midnightblue" stroke="midnightblue" points="121.55,-30.2 110.96,-30.53 119.44,-36.88 121.55,-30.2"/>
</g>
<!-- Node51 -->
<g id="node10" class="node">
<title>Node51</title>
<g id="a_node10"><a xlink:title=" ">
<polygon fill="white" stroke="#bfbfbf" points="170,-0.5 170,-30.5 303,-30.5 303,-0.5 170,-0.5"/>
<text text-anchor="start" x="178" y="-18.5" font-family="Helvetica,sans-Serif" font-size="10.00">emlabcpp/experimental</text>
<text text-anchor="middle" x="236.5" y="-7.5" font-family="Helvetica,sans-Serif" font-size="10.00">/testing/reactor.h</text>
</a>
</g>
</g>
<!-- Node47&#45;&gt;Node51 -->
<g id="edge11" class="edge">
<title>Node47&#45;&gt;Node51</title>
<path fill="none" stroke="midnightblue" d="M267.64,-72.73C262.97,-64.29 255.68,-51.14 249.34,-39.68"/>
<polygon fill="midnightblue" stroke="midnightblue" points="252.21,-37.64 244.3,-30.59 246.09,-41.03 252.21,-37.64"/>
</g>
<!-- Node56&#45;&gt;Node3 -->
<g id="edge15" class="edge">
<title>Node56&#45;&gt;Node3</title>
<path fill="none" stroke="midnightblue" d="M304.16,-134.47C337.4,-125.5 391.16,-110.91 437.5,-98 441.13,-96.99 444.9,-95.93 448.67,-94.87"/>
<polygon fill="midnightblue" stroke="midnightblue" points="449.91,-98.15 458.58,-92.06 448.01,-91.42 449.91,-98.15"/>
</g>
<!-- Node56&#45;&gt;Node47 -->
<g id="edge18" class="edge">
<title>Node56&#45;&gt;Node47</title>
<path fill="none" stroke="midnightblue" d="M272.5,-134.48C272.5,-126.08 272.5,-112.98 272.5,-102.16"/>
<polygon fill="midnightblue" stroke="midnightblue" points="276,-102.01 272.5,-92.01 269,-102.01 276,-102.01"/>
</g>
<!-- Node56&#45;&gt;Node48 -->
<g id="edge19" class="edge">
<title>Node56&#45;&gt;Node48</title>
<path fill="none" stroke="midnightblue" d="M212.83,-140.43C148.55,-136.27 52.38,-125.5 29.5,-98 14.76,-80.28 29.51,-55.75 44.54,-38.23"/>
<polygon fill="midnightblue" stroke="midnightblue" points="47.22,-40.49 51.35,-30.73 42.04,-35.78 47.22,-40.49"/>
</g>
<!-- Node56&#45;&gt;Node51 -->
<g id="edge21" class="edge">
<title>Node56&#45;&gt;Node51</title>
<path fill="none" stroke="midnightblue" d="M256.17,-134.39C243.54,-126.72 227,-114.21 219.5,-98 210.92,-79.47 216.99,-56.57 224.15,-39.77"/>
<polygon fill="midnightblue" stroke="midnightblue" points="227.34,-41.2 228.39,-30.66 221,-38.25 227.34,-41.2"/>
</g>
<!-- Node57 -->
<g id="node14" class="node">
<title>Node57</title>
<g id="a_node14"><a xlink:href="drivers_8hpp.html" target="_top" xlink:title=" ">
<polygon fill="white" stroke="red" points="334,-73 334,-92 429,-92 429,-73 334,-73"/>
<text text-anchor="middle" x="381.5" y="-80" font-family="Helvetica,sans-Serif" font-size="10.00">core/drivers.hpp</text>
</a>
</g>
</g>
<!-- Node56&#45;&gt;Node57 -->
<g id="edge16" class="edge">
<title>Node56&#45;&gt;Node57</title>
<path fill="none" stroke="midnightblue" d="M288.12,-134.48C306.09,-124.67 335.82,-108.43 356.91,-96.92"/>
<polygon fill="midnightblue" stroke="midnightblue" points="358.81,-99.87 365.91,-92.01 355.46,-93.73 358.81,-99.87"/>
</g>
<!-- Node59 -->
<g id="node15" class="node">
<title>Node59</title>
<g id="a_node15"><a xlink:title=" ">
<polygon fill="white" stroke="#bfbfbf" points="39,-67.5 39,-97.5 172,-97.5 172,-67.5 39,-67.5"/>
<text text-anchor="start" x="47" y="-85.5" font-family="Helvetica,sans-Serif" font-size="10.00">emlabcpp/experimental</text>
<text text-anchor="middle" x="105.5" y="-74.5" font-family="Helvetica,sans-Serif" font-size="10.00">/testing/parameters.h</text>
</a>
</g>
</g>
<!-- Node56&#45;&gt;Node59 -->
<g id="edge20" class="edge">
<title>Node56&#45;&gt;Node59</title>
<path fill="none" stroke="midnightblue" d="M248.57,-134.48C224.16,-125.78 185.57,-112.03 154.61,-101"/>
<polygon fill="midnightblue" stroke="midnightblue" points="155.45,-97.58 144.86,-97.52 153.1,-104.18 155.45,-97.58"/>
</g>
<!-- Node57&#45;&gt;Node22 -->
<g id="edge17" class="edge">
<title>Node57&#45;&gt;Node22</title>
<path fill="none" stroke="midnightblue" d="M410.18,-72.87C448.54,-61.33 516.63,-40.84 559.3,-28"/>
<polygon fill="midnightblue" stroke="midnightblue" points="560.48,-31.3 569.04,-25.06 558.46,-24.59 560.48,-31.3"/>
</g>
</g>
</svg>
