<?xml version="1.0" encoding="UTF-8" standalone="no"?>
<!DOCTYPE svg PUBLIC "-//W3C//DTD SVG 1.1//EN"
 "http://www.w3.org/Graphics/SVG/1.1/DTD/svg11.dtd">
<!-- Generated by graphviz version 2.43.0 (0)
 -->
<!-- Title: src/brd/proto4/bench.cpp Pages: 1 -->
<svg width="1251pt" height="203pt"
 viewBox="0.00 0.00 1250.50 203.00" xmlns="http://www.w3.org/2000/svg" xmlns:xlink="http://www.w3.org/1999/xlink">
<g id="graph0" class="graph" transform="scale(1 1) rotate(0) translate(4 199)">
<title>src/brd/proto4/bench.cpp</title>
<!-- Node1 -->
<g id="Node000001" class="node">
<title>Node1</title>
<g id="a_Node000001"><a xlink:title=" ">
<polygon fill="#999999" stroke="#666666" points="566,-195 429,-195 429,-176 566,-176 566,-195"/>
<text text-anchor="middle" x="497.5" y="-183" font-family="Helvetica,sans-Serif" font-size="10.00">src/brd/proto4/bench.cpp</text>
</a>
</g>
</g>
<!-- Node2 -->
<g id="Node000002" class="node">
<title>Node2</title>
<g id="a_Node000002"><a xlink:href="benchmarks_8hpp.html" target="_top" xlink:title=" ">
<polygon fill="white" stroke="#666666" points="768,-140 595,-140 595,-121 768,-121 768,-140"/>
<text text-anchor="middle" x="681.5" y="-128" font-family="Helvetica,sans-Serif" font-size="10.00">../../ftest/bench/benchmarks.hpp</text>
</a>
</g>
</g>
<!-- Node1&#45;&gt;Node2 -->
<g id="edge1_Node000001_Node000002" class="edge">
<title>Node1&#45;&gt;Node2</title>
<g id="a_edge1_Node000001_Node000002"><a xlink:title=" ">
<path fill="none" stroke="#63b8ff" d="M527.06,-175.98C558.22,-167.01 607.47,-152.82 641.96,-142.89"/>
<polygon fill="#63b8ff" stroke="#63b8ff" points="643.07,-146.21 651.71,-140.08 641.13,-139.49 643.07,-146.21"/>
</a>
</g>
</g>
<!-- Node55 -->
<g id="Node000055" class="node">
<title>Node55</title>
<g id="a_Node000055"><a xlink:href="setup__tests_8hpp.html" target="_top" xlink:title=" ">
<polygon fill="white" stroke="#666666" points="382,-140 245,-140 245,-121 382,-121 382,-140"/>
<text text-anchor="middle" x="313.5" y="-128" font-family="Helvetica,sans-Serif" font-size="10.00">../../ftest/setup_tests.hpp</text>
</a>
</g>
</g>
<!-- Node1&#45;&gt;Node55 -->
<g id="edge15_Node000001_Node000055" class="edge">
<title>Node1&#45;&gt;Node55</title>
<g id="a_edge15_Node000001_Node000055"><a xlink:title=" ">
<path fill="none" stroke="#63b8ff" d="M467.94,-175.98C436.78,-167.01 387.53,-152.82 353.04,-142.89"/>
<polygon fill="#63b8ff" stroke="#63b8ff" points="353.87,-139.49 343.29,-140.08 351.93,-146.21 353.87,-139.49"/>
</a>
</g>
</g>
<!-- Node3 -->
<g id="Node000003" class="node">
<title>Node3</title>
<g id="a_Node000003"><a xlink:href="core_8hpp.html" target="_top" xlink:title=" ">
<polygon fill="#fff0f0" stroke="red" points="565,-85 464,-85 464,-66 565,-66 565,-85"/>
<text text-anchor="middle" x="514.5" y="-73" font-family="Helvetica,sans-Serif" font-size="10.00">../../core/core.hpp</text>
</a>
</g>
</g>
<!-- Node2&#45;&gt;Node3 -->
<g id="edge2_Node000002_Node000003" class="edge">
<title>Node2&#45;&gt;Node3</title>
<g id="a_edge2_Node000002_Node000003"><a xlink:title=" ">
<path fill="none" stroke="#63b8ff" d="M654.67,-120.98C626.63,-112.09 582.45,-98.07 551.2,-88.15"/>
<polygon fill="#63b8ff" stroke="#63b8ff" points="552.13,-84.77 541.54,-85.08 550.01,-91.44 552.13,-84.77"/>
</a>
</g>
</g>
<!-- Node41 -->
<g id="Node000041" class="node">
<title>Node41</title>
<g id="a_Node000041"><a xlink:href="drv_2callbacks_8hpp.html" target="_top" xlink:title=" ">
<polygon fill="#fff0f0" stroke="red" points="741.5,-85 621.5,-85 621.5,-66 741.5,-66 741.5,-85"/>
<text text-anchor="middle" x="681.5" y="-73" font-family="Helvetica,sans-Serif" font-size="10.00">../../drv/callbacks.hpp</text>
</a>
</g>
</g>
<!-- Node2&#45;&gt;Node41 -->
<g id="edge3_Node000002_Node000041" class="edge">
<title>Node2&#45;&gt;Node41</title>
<g id="a_edge3_Node000002_Node000041"><a xlink:title=" ">
<path fill="none" stroke="#63b8ff" d="M681.5,-120.75C681.5,-113.8 681.5,-103.85 681.5,-95.13"/>
<polygon fill="#63b8ff" stroke="#63b8ff" points="685,-95.09 681.5,-85.09 678,-95.09 685,-95.09"/>
</a>
</g>
</g>
<!-- Node23 -->
<g id="Node000023" class="node">
<title>Node23</title>
<g id="a_Node000023"><a xlink:href="interfaces_8hpp.html" target="_top" xlink:title=" ">
<polygon fill="#fff0f0" stroke="red" points="694.5,-24.5 580.5,-24.5 580.5,-5.5 694.5,-5.5 694.5,-24.5"/>
<text text-anchor="middle" x="637.5" y="-12.5" font-family="Helvetica,sans-Serif" font-size="10.00">../drv/interfaces.hpp</text>
</a>
</g>
</g>
<!-- Node2&#45;&gt;Node23 -->
<g id="edge5_Node000002_Node000023" class="edge">
<title>Node2&#45;&gt;Node23</title>
<g id="a_edge5_Node000002_Node000023"><a xlink:title=" ">
<path fill="none" stroke="#63b8ff" d="M657.03,-120.86C641.23,-113.85 621.91,-102.27 612.5,-85 603.31,-68.14 613.61,-47.21 623.63,-32.86"/>
<polygon fill="#63b8ff" stroke="#63b8ff" points="626.43,-34.95 629.66,-24.86 620.84,-30.74 626.43,-34.95"/>
</a>
</g>
</g>
<!-- Node42 -->
<g id="Node000042" class="node">
<title>Node42</title>
<g id="a_Node000042"><a xlink:href="retainers_8hpp.html" target="_top" xlink:title=" ">
<polygon fill="#fff0f0" stroke="red" points="877.5,-85 759.5,-85 759.5,-66 877.5,-66 877.5,-85"/>
<text text-anchor="middle" x="818.5" y="-73" font-family="Helvetica,sans-Serif" font-size="10.00">../../drv/retainers.hpp</text>
</a>
</g>
</g>
<!-- Node2&#45;&gt;Node42 -->
<g id="edge6_Node000002_Node000042" class="edge">
<title>Node2&#45;&gt;Node42</title>
<g id="a_edge6_Node000002_Node000042"><a xlink:title=" ">
<path fill="none" stroke="#63b8ff" d="M703.51,-120.98C725.95,-112.3 760.98,-98.75 786.49,-88.88"/>
<polygon fill="#63b8ff" stroke="#63b8ff" points="788.02,-92.04 796.09,-85.17 785.5,-85.51 788.02,-92.04"/>
</a>
</g>
</g>
<!-- Node44 -->
<g id="Node000044" class="node">
<title>Node44</title>
<g id="a_Node000044"><a xlink:href="platform_8hpp.html" target="_top" xlink:title=" ">
<polygon fill="#fff0f0" stroke="red" points="1009,-85 896,-85 896,-66 1009,-66 1009,-85"/>
<text text-anchor="middle" x="952.5" y="-73" font-family="Helvetica,sans-Serif" font-size="10.00">../../plt/platform.hpp</text>
</a>
</g>
</g>
<!-- Node2&#45;&gt;Node44 -->
<g id="edge8_Node000002_Node000044" class="edge">
<title>Node2&#45;&gt;Node44</title>
<g id="a_edge8_Node000002_Node000044"><a xlink:title=" ">
<path fill="none" stroke="#63b8ff" d="M725.04,-120.98C772.31,-111.74 847.85,-96.97 898.78,-87.01"/>
<polygon fill="#63b8ff" stroke="#63b8ff" points="899.48,-90.44 908.62,-85.08 898.13,-83.57 899.48,-90.44"/>
</a>
</g>
</g>
<!-- Node47 -->
<g id="Node000047" class="node">
<title>Node47</title>
<g id="a_Node000047"><a xlink:href="utest_8hpp.html" target="_top" xlink:title=" ">
<polygon fill="#fff0f0" stroke="red" points="285,-85 214,-85 214,-66 285,-66 285,-85"/>
<text text-anchor="middle" x="249.5" y="-73" font-family="Helvetica,sans-Serif" font-size="10.00">../utest.hpp</text>
</a>
</g>
</g>
<!-- Node2&#45;&gt;Node47 -->
<g id="edge9_Node000002_Node000047" class="edge">
<title>Node2&#45;&gt;Node47</title>
<g id="a_edge9_Node000002_Node000047"><a xlink:title=" ">
<path fill="none" stroke="#63b8ff" d="M612.09,-120.98C523.02,-110.06 370.99,-91.41 295.23,-82.11"/>
<polygon fill="#63b8ff" stroke="#63b8ff" points="295.41,-78.61 285.06,-80.86 294.56,-85.55 295.41,-78.61"/>
</a>
</g>
</g>
<!-- Node53 -->
<g id="Node000053" class="node">
<title>Node53</title>
<g id="a_Node000053"><a xlink:href="ftest_2bench_2base_8hpp.html" target="_top" xlink:title=" ">
<polygon fill="#fff0f0" stroke="red" points="1094,-85 1027,-85 1027,-66 1094,-66 1094,-85"/>
<text text-anchor="middle" x="1060.5" y="-73" font-family="Helvetica,sans-Serif" font-size="10.00">./base.hpp</text>
</a>
</g>
</g>
<!-- Node2&#45;&gt;Node53 -->
<g id="edge13_Node000002_Node000053" class="edge">
<title>Node2&#45;&gt;Node53</title>
<g id="a_edge13_Node000002_Node000053"><a xlink:title=" ">
<path fill="none" stroke="#63b8ff" d="M757.34,-120.99C823.45,-113.22 922.12,-100.81 1016.6,-85.23"/>
<polygon fill="#63b8ff" stroke="#63b8ff" points="1017.32,-88.66 1026.61,-83.57 1016.17,-81.75 1017.32,-88.66"/>
</a>
</g>
</g>
<!-- Node54 -->
<g id="Node000054" class="node">
<title>Node54</title>
<g id="a_Node000054"><a xlink:title=" ">
<polygon fill="#e0e0e0" stroke="#999999" points="1242.5,-85 1112.5,-85 1112.5,-66 1242.5,-66 1242.5,-85"/>
<text text-anchor="middle" x="1177.5" y="-73" font-family="Helvetica,sans-Serif" font-size="10.00">emlabcpp/enumerate.h</text>
</a>
</g>
</g>
<!-- Node2&#45;&gt;Node54 -->
<g id="edge14_Node000002_Node000054" class="edge">
<title>Node2&#45;&gt;Node54</title>
<g id="a_edge14_Node000002_Node000054"><a xlink:title=" ">
<path fill="none" stroke="#63b8ff" d="M764.4,-120.99C847.27,-112.43 978.64,-98.71 1102.12,-85.14"/>
<polygon fill="#63b8ff" stroke="#63b8ff" points="1102.58,-88.61 1112.13,-84.04 1101.81,-81.66 1102.58,-88.61"/>
</a>
</g>
</g>
<!-- Node41&#45;&gt;Node23 -->
<g id="edge4_Node000041_Node000023" class="edge">
<title>Node41&#45;&gt;Node23</title>
<g id="a_edge4_Node000041_Node000023"><a xlink:title=" ">
<path fill="none" stroke="#63b8ff" d="M675.01,-65.87C668.51,-57.23 658.34,-43.7 650.22,-32.92"/>
<polygon fill="#63b8ff" stroke="#63b8ff" points="652.83,-30.56 644.02,-24.67 647.23,-34.76 652.83,-30.56"/>
</a>
</g>
</g>
<!-- Node42&#45;&gt;Node23 -->
<g id="edge7_Node000042_Node000023" class="edge">
<title>Node42&#45;&gt;Node23</title>
<g id="a_edge7_Node000042_Node000023"><a xlink:title=" ">
<path fill="none" stroke="#63b8ff" d="M792.18,-65.99C760.95,-55.9 708.7,-39.01 673.68,-27.69"/>
<polygon fill="#63b8ff" stroke="#63b8ff" points="674.44,-24.26 663.85,-24.52 672.29,-30.92 674.44,-24.26"/>
</a>
</g>
</g>
<!-- Node48 -->
<g id="Node000048" class="node">
<title>Node48</title>
<g id="a_Node000048"><a xlink:title=" ">
<polygon fill="#e0e0e0" stroke="#999999" points="284,-30 151,-30 151,0 284,0 284,-30"/>
<text text-anchor="start" x="159" y="-18" font-family="Helvetica,sans-Serif" font-size="10.00">emlabcpp/experimental</text>
<text text-anchor="middle" x="217.5" y="-7" font-family="Helvetica,sans-Serif" font-size="10.00">/testing/collect.h</text>
</a>
</g>
</g>
<!-- Node47&#45;&gt;Node48 -->
<g id="edge10_Node000047_Node000048" class="edge">
<title>Node47&#45;&gt;Node48</title>
<g id="a_edge10_Node000047_Node000048"><a xlink:title=" ">
<path fill="none" stroke="#63b8ff" d="M244.78,-65.87C240.92,-58.81 235.28,-48.5 230.13,-39.08"/>
<polygon fill="#63b8ff" stroke="#63b8ff" points="233.09,-37.21 225.22,-30.11 226.95,-40.57 233.09,-37.21"/>
</a>
</g>
</g>
<!-- Node51 -->
<g id="Node000051" class="node">
<title>Node51</title>
<g id="a_Node000051"><a xlink:title=" ">
<polygon fill="#e0e0e0" stroke="#999999" points="435,-30 302,-30 302,0 435,0 435,-30"/>
<text text-anchor="start" x="310" y="-18" font-family="Helvetica,sans-Serif" font-size="10.00">emlabcpp/experimental</text>
<text text-anchor="middle" x="368.5" y="-7" font-family="Helvetica,sans-Serif" font-size="10.00">/testing/parameters.h</text>
</a>
</g>
</g>
<!-- Node47&#45;&gt;Node51 -->
<g id="edge11_Node000047_Node000051" class="edge">
<title>Node47&#45;&gt;Node51</title>
<g id="a_edge11_Node000047_Node000051"><a xlink:title=" ">
<path fill="none" stroke="#63b8ff" d="M266.8,-65.99C283.42,-57.82 309.1,-45.2 330.49,-34.69"/>
<polygon fill="#63b8ff" stroke="#63b8ff" points="332.23,-37.73 339.66,-30.18 329.14,-31.45 332.23,-37.73"/>
</a>
</g>
</g>
<!-- Node52 -->
<g id="Node000052" class="node">
<title>Node52</title>
<g id="a_Node000052"><a xlink:title=" ">
<polygon fill="#e0e0e0" stroke="#999999" points="133,-30 0,-30 0,0 133,0 133,-30"/>
<text text-anchor="start" x="8" y="-18" font-family="Helvetica,sans-Serif" font-size="10.00">emlabcpp/experimental</text>
<text text-anchor="middle" x="66.5" y="-7" font-family="Helvetica,sans-Serif" font-size="10.00">/testing/reactor.h</text>
</a>
</g>
</g>
<!-- Node47&#45;&gt;Node52 -->
<g id="edge12_Node000047_Node000052" class="edge">
<title>Node47&#45;&gt;Node52</title>
<g id="a_edge12_Node000047_Node000052"><a xlink:title=" ">
<path fill="none" stroke="#63b8ff" d="M222.89,-65.99C196.09,-57.43 154,-43.97 120.23,-33.18"/>
<polygon fill="#63b8ff" stroke="#63b8ff" points="121.09,-29.78 110.5,-30.06 118.96,-36.44 121.09,-29.78"/>
</a>
</g>
</g>
<!-- Node55&#45;&gt;Node3 -->
<g id="edge16_Node000055_Node000003" class="edge">
<title>Node55&#45;&gt;Node3</title>
<g id="a_edge16_Node000055_Node000003"><a xlink:title=" ">
<path fill="none" stroke="#63b8ff" d="M345.79,-120.98C380.12,-111.93 434.56,-97.58 472.27,-87.64"/>
<polygon fill="#63b8ff" stroke="#63b8ff" points="473.18,-91.02 481.95,-85.08 471.39,-84.25 473.18,-91.02"/>
</a>
</g>
</g>
<!-- Node55&#45;&gt;Node47 -->
<g id="edge19_Node000055_Node000047" class="edge">
<title>Node55&#45;&gt;Node47</title>
<g id="a_edge19_Node000055_Node000047"><a xlink:title=" ">
<path fill="none" stroke="#63b8ff" d="M303.22,-120.98C293.66,-113.07 279.22,-101.11 267.72,-91.58"/>
<polygon fill="#63b8ff" stroke="#63b8ff" points="269.9,-88.85 259.97,-85.17 265.44,-94.24 269.9,-88.85"/>
</a>
</g>
</g>
<!-- Node55&#45;&gt;Node48 -->
<g id="edge20_Node000055_Node000048" class="edge">
<title>Node55&#45;&gt;Node48</title>
<g id="a_edge20_Node000055_Node000048"><a xlink:title=" ">
<path fill="none" stroke="#63b8ff" d="M260.38,-120.97C239.33,-114.7 217.15,-103.83 204.5,-85 195.5,-71.6 199.29,-53.6 205.05,-39.34"/>
<polygon fill="#63b8ff" stroke="#63b8ff" points="208.26,-40.72 209.21,-30.17 201.89,-37.83 208.26,-40.72"/>
</a>
</g>
</g>
<!-- Node55&#45;&gt;Node51 -->
<g id="edge21_Node000055_Node000051" class="edge">
<title>Node55&#45;&gt;Node51</title>
<g id="a_edge21_Node000055_Node000051"><a xlink:title=" ">
<path fill="none" stroke="#63b8ff" d="M315.11,-120.95C317.68,-108.43 323.35,-84.58 332.5,-66 337.27,-56.31 343.87,-46.49 350.12,-38.15"/>
<polygon fill="#63b8ff" stroke="#63b8ff" points="353.04,-40.1 356.42,-30.06 347.52,-35.8 353.04,-40.1"/>
</a>
</g>
</g>
<!-- Node55&#45;&gt;Node52 -->
<g id="edge22_Node000055_Node000052" class="edge">
<title>Node55&#45;&gt;Node52</title>
<g id="a_edge22_Node000055_Node000052"><a xlink:title=" ">
<path fill="none" stroke="#63b8ff" d="M287.79,-120.89C263.62,-112.55 226.6,-99.11 195.5,-85 162.13,-69.86 125.4,-49.87 99.69,-35.3"/>
<polygon fill="#63b8ff" stroke="#63b8ff" points="101.17,-32.12 90.75,-30.2 97.7,-38.2 101.17,-32.12"/>
</a>
</g>
</g>
<!-- Node56 -->
<g id="Node000056" class="node">
<title>Node56</title>
<g id="a_Node000056"><a xlink:href="drivers_8hpp.html" target="_top" xlink:title=" ">
<polygon fill="#fff0f0" stroke="red" points="445.5,-85 341.5,-85 341.5,-66 445.5,-66 445.5,-85"/>
<text text-anchor="middle" x="393.5" y="-73" font-family="Helvetica,sans-Serif" font-size="10.00">../core/drivers.hpp</text>
</a>
</g>
</g>
<!-- Node55&#45;&gt;Node56 -->
<g id="edge17_Node000055_Node000056" class="edge">
<title>Node55&#45;&gt;Node56</title>
<g id="a_edge17_Node000055_Node000056"><a xlink:title=" ">
<path fill="none" stroke="#63b8ff" d="M326.35,-120.98C338.64,-112.84 357.41,-100.41 371.98,-90.76"/>
<polygon fill="#63b8ff" stroke="#63b8ff" points="374.01,-93.61 380.41,-85.17 370.14,-87.78 374.01,-93.61"/>
</a>
</g>
</g>
<!-- Node56&#45;&gt;Node23 -->
<g id="edge18_Node000056_Node000023" class="edge">
<title>Node56&#45;&gt;Node23</title>
<g id="a_edge18_Node000056_Node000023"><a xlink:title=" ">
<path fill="none" stroke="#63b8ff" d="M428.98,-65.99C472.08,-55.66 544.86,-38.21 592.03,-26.9"/>
<polygon fill="#63b8ff" stroke="#63b8ff" points="593.07,-30.25 601.98,-24.52 591.44,-23.44 593.07,-30.25"/>
</a>
</g>
</g>
</g>
</svg>
