<?xml version="1.0" encoding="UTF-8" standalone="no"?>
<!DOCTYPE svg PUBLIC "-//W3C//DTD SVG 1.1//EN"
 "http://www.w3.org/Graphics/SVG/1.1/DTD/svg11.dtd">
<!-- Generated by graphviz version 2.43.0 (0)
 -->
<!-- Title: src/scmdio/bflash.cpp Pages: 1 -->
<svg width="555pt" height="137pt"
 viewBox="0.00 0.00 555.00 137.00" xmlns="http://www.w3.org/2000/svg" xmlns:xlink="http://www.w3.org/1999/xlink">
<g id="graph0" class="graph" transform="scale(1 1) rotate(0) translate(4 133)">
<title>src/scmdio/bflash.cpp</title>
<!-- Node1 -->
<g id="Node000001" class="node">
<title>Node1</title>
<g id="a_Node000001"><a xlink:title=" ">
<polygon fill="#999999" stroke="#666666" points="281.5,-129 159.5,-129 159.5,-110 281.5,-110 281.5,-129"/>
<text text-anchor="middle" x="220.5" y="-117" font-family="Helvetica,sans-Serif" font-size="10.00">src/scmdio/bflash.cpp</text>
</a>
</g>
</g>
<!-- Node2 -->
<g id="Node000002" class="node">
<title>Node2</title>
<g id="a_Node000002"><a xlink:href="bflash_8hpp.html" target="_top" xlink:title=" ">
<polygon fill="white" stroke="#666666" points="142,-74 69,-74 69,-55 142,-55 142,-74"/>
<text text-anchor="middle" x="105.5" y="-62" font-family="Helvetica,sans-Serif" font-size="10.00">./bflash.hpp</text>
</a>
</g>
</g>
<!-- Node1&#45;&gt;Node2 -->
<g id="edge1_Node000001_Node000002" class="edge">
<title>Node1&#45;&gt;Node2</title>
<g id="a_edge1_Node000001_Node000002"><a xlink:title=" ">
<path fill="none" stroke="#63b8ff" d="M202.02,-109.98C183.52,-101.46 154.82,-88.23 133.52,-78.41"/>
<polygon fill="#63b8ff" stroke="#63b8ff" points="134.86,-75.18 124.31,-74.17 131.93,-81.53 134.86,-75.18"/>
</a>
</g>
</g>
<!-- Node15 -->
<g id="Node000015" class="node">
<title>Node15</title>
<g id="a_Node000015"><a xlink:href="base_8hpp.html" target="_top" xlink:title=" ">
<polygon fill="white" stroke="#666666" points="255.5,-74 185.5,-74 185.5,-55 255.5,-55 255.5,-74"/>
<text text-anchor="middle" x="220.5" y="-62" font-family="Helvetica,sans-Serif" font-size="10.00">../base.hpp</text>
</a>
</g>
</g>
<!-- Node1&#45;&gt;Node15 -->
<g id="edge3_Node000001_Node000015" class="edge">
<title>Node1&#45;&gt;Node15</title>
<g id="a_edge3_Node000001_Node000015"><a xlink:title=" ">
<path fill="none" stroke="#63b8ff" d="M220.5,-109.75C220.5,-102.8 220.5,-92.85 220.5,-84.13"/>
<polygon fill="#63b8ff" stroke="#63b8ff" points="224,-84.09 220.5,-74.09 217,-84.09 224,-84.09"/>
</a>
</g>
</g>
<!-- Node20 -->
<g id="Node000020" class="node">
<title>Node20</title>
<g id="a_Node000020"><a xlink:title=" ">
<polygon fill="#e0e0e0" stroke="#999999" points="441,-74 274,-74 274,-55 441,-55 441,-74"/>
<text text-anchor="middle" x="357.5" y="-62" font-family="Helvetica,sans-Serif" font-size="10.00">magic_enum/magic_enum.hpp</text>
</a>
</g>
</g>
<!-- Node1&#45;&gt;Node20 -->
<g id="edge9_Node000001_Node000020" class="edge">
<title>Node1&#45;&gt;Node20</title>
<g id="a_edge9_Node000001_Node000020"><a xlink:title=" ">
<path fill="none" stroke="#63b8ff" d="M242.51,-109.98C264.95,-101.3 299.98,-87.75 325.49,-77.88"/>
<polygon fill="#63b8ff" stroke="#63b8ff" points="327.02,-81.04 335.09,-74.17 324.5,-74.51 327.02,-81.04"/>
</a>
</g>
</g>
<!-- Node3 -->
<g id="Node000003" class="node">
<title>Node3</title>
<g id="a_Node000003"><a xlink:href="port_8hpp.html" target="_top" xlink:title=" ">
<polygon fill="#fff0f0" stroke="red" points="57,-19 0,-19 0,0 57,0 57,-19"/>
<text text-anchor="middle" x="28.5" y="-7" font-family="Helvetica,sans-Serif" font-size="10.00">port.hpp</text>
</a>
</g>
</g>
<!-- Node2&#45;&gt;Node3 -->
<g id="edge2_Node000002_Node000003" class="edge">
<title>Node2&#45;&gt;Node3</title>
<g id="a_edge2_Node000002_Node000003"><a xlink:title=" ">
<path fill="none" stroke="#63b8ff" d="M93.13,-54.98C81.41,-46.92 63.58,-34.65 49.61,-25.03"/>
<polygon fill="#63b8ff" stroke="#63b8ff" points="51.32,-21.96 41.1,-19.17 47.35,-27.72 51.32,-21.96"/>
</a>
</g>
</g>
<!-- Node16 -->
<g id="Node000016" class="node">
<title>Node16</title>
<g id="a_Node000016"><a xlink:title=" ">
<polygon fill="#e0e0e0" stroke="#999999" points="125.5,-19 75.5,-19 75.5,0 125.5,0 125.5,-19"/>
<text text-anchor="middle" x="100.5" y="-7" font-family="Helvetica,sans-Serif" font-size="10.00">chrono</text>
</a>
</g>
</g>
<!-- Node15&#45;&gt;Node16 -->
<g id="edge4_Node000015_Node000016" class="edge">
<title>Node15&#45;&gt;Node16</title>
<g id="a_edge4_Node000015_Node000016"><a xlink:title=" ">
<path fill="none" stroke="#63b8ff" d="M201.22,-54.98C181.83,-46.42 151.69,-33.11 129.43,-23.28"/>
<polygon fill="#63b8ff" stroke="#63b8ff" points="130.69,-20.01 120.13,-19.17 127.86,-26.41 130.69,-20.01"/>
</a>
</g>
</g>
<!-- Node5 -->
<g id="Node000005" class="node">
<title>Node5</title>
<g id="a_Node000005"><a xlink:title=" ">
<polygon fill="#e0e0e0" stroke="#999999" points="193.5,-19 143.5,-19 143.5,0 193.5,0 193.5,-19"/>
<text text-anchor="middle" x="168.5" y="-7" font-family="Helvetica,sans-Serif" font-size="10.00">cstdint</text>
</a>
</g>
</g>
<!-- Node15&#45;&gt;Node5 -->
<g id="edge5_Node000015_Node000005" class="edge">
<title>Node15&#45;&gt;Node5</title>
<g id="a_edge5_Node000015_Node000005"><a xlink:title=" ">
<path fill="none" stroke="#63b8ff" d="M211.91,-54.75C204.34,-47.03 193.12,-35.6 183.99,-26.28"/>
<polygon fill="#63b8ff" stroke="#63b8ff" points="186.43,-23.78 176.93,-19.09 181.43,-28.68 186.43,-23.78"/>
</a>
</g>
</g>
<!-- Node17 -->
<g id="Node000017" class="node">
<title>Node17</title>
<g id="a_Node000017"><a xlink:title=" ">
<polygon fill="#e0e0e0" stroke="#999999" points="335.5,-19 211.5,-19 211.5,0 335.5,0 335.5,-19"/>
<text text-anchor="middle" x="273.5" y="-7" font-family="Helvetica,sans-Serif" font-size="10.00">emlabcpp/algorithm.h</text>
</a>
</g>
</g>
<!-- Node15&#45;&gt;Node17 -->
<g id="edge6_Node000015_Node000017" class="edge">
<title>Node15&#45;&gt;Node17</title>
<g id="a_edge6_Node000015_Node000017"><a xlink:title=" ">
<path fill="none" stroke="#63b8ff" d="M229.25,-54.75C236.97,-47.03 248.4,-35.6 257.72,-26.28"/>
<polygon fill="#63b8ff" stroke="#63b8ff" points="260.31,-28.64 264.91,-19.09 255.36,-23.69 260.31,-28.64"/>
</a>
</g>
</g>
<!-- Node18 -->
<g id="Node000018" class="node">
<title>Node18</title>
<g id="a_Node000018"><a xlink:title=" ">
<polygon fill="#e0e0e0" stroke="#999999" points="469.5,-19 353.5,-19 353.5,0 469.5,0 469.5,-19"/>
<text text-anchor="middle" x="411.5" y="-7" font-family="Helvetica,sans-Serif" font-size="10.00">emlabcpp/quantity.h</text>
</a>
</g>
</g>
<!-- Node15&#45;&gt;Node18 -->
<g id="edge7_Node000015_Node000018" class="edge">
<title>Node15&#45;&gt;Node18</title>
<g id="a_edge7_Node000015_Node000018"><a xlink:title=" ">
<path fill="none" stroke="#63b8ff" d="M251.19,-54.98C283.67,-45.97 335.1,-31.7 370.91,-21.76"/>
<polygon fill="#63b8ff" stroke="#63b8ff" points="371.87,-25.13 380.57,-19.08 370,-18.38 371.87,-25.13"/>
</a>
</g>
</g>
<!-- Node19 -->
<g id="Node000019" class="node">
<title>Node19</title>
<g id="a_Node000019"><a xlink:title=" ">
<polygon fill="#e0e0e0" stroke="#999999" points="547,-19 488,-19 488,0 547,0 547,-19"/>
<text text-anchor="middle" x="517.5" y="-7" font-family="Helvetica,sans-Serif" font-size="10.00">numbers</text>
</a>
</g>
</g>
<!-- Node15&#45;&gt;Node19 -->
<g id="edge8_Node000015_Node000019" class="edge">
<title>Node15&#45;&gt;Node19</title>
<g id="a_edge8_Node000015_Node000019"><a xlink:title=" ">
<path fill="none" stroke="#63b8ff" d="M255.86,-56.75C259.12,-56.15 262.37,-55.56 265.5,-55 356.87,-38.65 382.55,-37.3 477.67,-19.08"/>
<polygon fill="#63b8ff" stroke="#63b8ff" points="478.56,-22.47 487.72,-17.14 477.24,-15.6 478.56,-22.47"/>
</a>
</g>
</g>
</g>
</svg>
