<?xml version="1.0" encoding="UTF-8" standalone="no"?>
<!DOCTYPE svg PUBLIC "-//W3C//DTD SVG 1.1//EN"
 "http://www.w3.org/Graphics/SVG/1.1/DTD/svg11.dtd">
<!-- Generated by graphviz version 2.43.0 (0)
 -->
<!-- Title: boards/prototype2/config.cpp Pages: 1 -->
<svg width="448pt" height="196pt"
 viewBox="0.00 0.00 448.00 196.00" xmlns="http://www.w3.org/2000/svg" xmlns:xlink="http://www.w3.org/1999/xlink">
<g id="graph0" class="graph" transform="scale(1 1) rotate(0) translate(4 192)">
<title>boards/prototype2/config.cpp</title>
<polygon fill="white" stroke="transparent" points="-4,4 -4,-192 444,-192 444,4 -4,4"/>
<!-- Node1 -->
<g id="node1" class="node">
<title>Node1</title>
<g id="a_node1"><a xlink:title=" ">
<polygon fill="#bfbfbf" stroke="black" points="194.5,-168.5 194.5,-187.5 352.5,-187.5 352.5,-168.5 194.5,-168.5"/>
<text text-anchor="middle" x="273.5" y="-175.5" font-family="Helvetica,sans-Serif" font-size="10.00">boards/prototype2/config.cpp</text>
</a>
</g>
</g>
<!-- Node2 -->
<g id="node2" class="node">
<title>Node2</title>
<g id="a_node2"><a xlink:href="default_8hpp.html" target="_top" xlink:title=" ">
<polygon fill="white" stroke="black" points="24.5,-112.5 24.5,-131.5 114.5,-131.5 114.5,-112.5 24.5,-112.5"/>
<text text-anchor="middle" x="69.5" y="-119.5" font-family="Helvetica,sans-Serif" font-size="10.00">cfg/default.hpp</text>
</a>
</g>
</g>
<!-- Node1&#45;&gt;Node2 -->
<g id="edge1" class="edge">
<title>Node1&#45;&gt;Node2</title>
<path fill="none" stroke="midnightblue" d="M241.18,-168.44C206.11,-159.16 150,-144.31 111.54,-134.13"/>
<polygon fill="midnightblue" stroke="midnightblue" points="112.24,-130.69 101.67,-131.52 110.44,-137.46 112.24,-130.69"/>
</g>
<!-- Node13 -->
<g id="node5" class="node">
<title>Node13</title>
<g id="a_node5"><a xlink:href="board_8hpp.html" target="_top" xlink:title=" ">
<polygon fill="white" stroke="black" points="184.5,-112.5 184.5,-131.5 264.5,-131.5 264.5,-112.5 184.5,-112.5"/>
<text text-anchor="middle" x="224.5" y="-119.5" font-family="Helvetica,sans-Serif" font-size="10.00">fw/board.hpp</text>
</a>
</g>
</g>
<!-- Node1&#45;&gt;Node13 -->
<g id="edge5" class="edge">
<title>Node1&#45;&gt;Node13</title>
<path fill="none" stroke="midnightblue" d="M265.41,-168.08C258.34,-160.3 247.91,-148.8 239.35,-139.37"/>
<polygon fill="midnightblue" stroke="midnightblue" points="241.75,-136.8 232.44,-131.75 236.57,-141.51 241.75,-136.8"/>
</g>
<!-- Node20 -->
<g id="node8" class="node">
<title>Node20</title>
<g id="a_node8"><a xlink:href="platform_8hpp.html" target="_top" xlink:title=" ">
<polygon fill="white" stroke="black" points="282.5,-112.5 282.5,-131.5 362.5,-131.5 362.5,-112.5 282.5,-112.5"/>
<text text-anchor="middle" x="322.5" y="-119.5" font-family="Helvetica,sans-Serif" font-size="10.00">platform.hpp</text>
</a>
</g>
</g>
<!-- Node1&#45;&gt;Node20 -->
<g id="edge8" class="edge">
<title>Node1&#45;&gt;Node20</title>
<path fill="none" stroke="midnightblue" d="M281.59,-168.08C288.66,-160.3 299.09,-148.8 307.65,-139.37"/>
<polygon fill="midnightblue" stroke="midnightblue" points="310.43,-141.51 314.56,-131.75 305.25,-136.8 310.43,-141.51"/>
</g>
<!-- Node9 -->
<g id="node10" class="node">
<title>Node9</title>
<g id="a_node10"><a xlink:title=" ">
<polygon fill="white" stroke="#bfbfbf" points="381,-112.5 381,-131.5 440,-131.5 440,-112.5 381,-112.5"/>
<text text-anchor="middle" x="410.5" y="-119.5" font-family="Helvetica,sans-Serif" font-size="10.00">numbers</text>
</a>
</g>
</g>
<!-- Node1&#45;&gt;Node9 -->
<g id="edge10" class="edge">
<title>Node1&#45;&gt;Node9</title>
<path fill="none" stroke="midnightblue" d="M295.21,-168.44C317.85,-159.52 353.57,-145.44 379.25,-135.32"/>
<polygon fill="midnightblue" stroke="midnightblue" points="380.87,-138.44 388.89,-131.52 378.31,-131.93 380.87,-138.44"/>
</g>
<!-- Node3 -->
<g id="node3" class="node">
<title>Node3</title>
<g id="a_node3"><a xlink:href="key_8hpp.html" target="_top" xlink:title=" ">
<polygon fill="white" stroke="red" points="0,-0.5 0,-19.5 71,-19.5 71,-0.5 0,-0.5"/>
<text text-anchor="middle" x="35.5" y="-7.5" font-family="Helvetica,sans-Serif" font-size="10.00">cfg/key.hpp</text>
</a>
</g>
</g>
<!-- Node2&#45;&gt;Node3 -->
<g id="edge2" class="edge">
<title>Node2&#45;&gt;Node3</title>
<path fill="none" stroke="midnightblue" d="M55.13,-112.33C43.62,-104.47 28.31,-91.72 21.5,-76 14.92,-60.81 20.11,-42.23 25.94,-28.84"/>
<polygon fill="midnightblue" stroke="midnightblue" points="29.14,-30.27 30.35,-19.74 22.84,-27.22 29.14,-30.27"/>
</g>
<!-- Node5 -->
<g id="node4" class="node">
<title>Node5</title>
<g id="a_node4"><a xlink:href="map_8hpp.html" target="_top" xlink:title=" ">
<polygon fill="white" stroke="red" points="31,-56.5 31,-75.5 108,-75.5 108,-56.5 31,-56.5"/>
<text text-anchor="middle" x="69.5" y="-63.5" font-family="Helvetica,sans-Serif" font-size="10.00">cfg/map.hpp</text>
</a>
</g>
</g>
<!-- Node2&#45;&gt;Node5 -->
<g id="edge3" class="edge">
<title>Node2&#45;&gt;Node5</title>
<path fill="none" stroke="midnightblue" d="M69.5,-112.08C69.5,-105.01 69.5,-94.86 69.5,-85.99"/>
<polygon fill="midnightblue" stroke="midnightblue" points="73,-85.75 69.5,-75.75 66,-85.75 73,-85.75"/>
</g>
<!-- Node5&#45;&gt;Node3 -->
<g id="edge4" class="edge">
<title>Node5&#45;&gt;Node3</title>
<path fill="none" stroke="midnightblue" d="M63.89,-56.08C59.13,-48.53 52.18,-37.49 46.35,-28.23"/>
<polygon fill="midnightblue" stroke="midnightblue" points="49.3,-26.35 41.01,-19.75 43.38,-30.08 49.3,-26.35"/>
</g>
<!-- Node14 -->
<g id="node6" class="node">
<title>Node14</title>
<g id="a_node6"><a xlink:href="drv__interfaces_8hpp.html" target="_top" xlink:title=" ">
<polygon fill="white" stroke="red" points="126,-56.5 126,-75.5 233,-75.5 233,-56.5 126,-56.5"/>
<text text-anchor="middle" x="179.5" y="-63.5" font-family="Helvetica,sans-Serif" font-size="10.00">drv_interfaces.hpp</text>
</a>
</g>
</g>
<!-- Node13&#45;&gt;Node14 -->
<g id="edge6" class="edge">
<title>Node13&#45;&gt;Node14</title>
<path fill="none" stroke="midnightblue" d="M217.07,-112.08C210.65,-104.38 201.19,-93.03 193.38,-83.65"/>
<polygon fill="midnightblue" stroke="midnightblue" points="195.88,-81.19 186.79,-75.75 190.51,-85.67 195.88,-81.19"/>
</g>
<!-- Node18 -->
<g id="node7" class="node">
<title>Node18</title>
<g id="a_node7"><a xlink:href="globals_8hpp.html" target="_top" xlink:title=" ">
<polygon fill="white" stroke="red" points="251,-56.5 251,-75.5 324,-75.5 324,-56.5 251,-56.5"/>
<text text-anchor="middle" x="287.5" y="-63.5" font-family="Helvetica,sans-Serif" font-size="10.00">globals.hpp</text>
</a>
</g>
</g>
<!-- Node13&#45;&gt;Node18 -->
<g id="edge7" class="edge">
<title>Node13&#45;&gt;Node18</title>
<path fill="none" stroke="midnightblue" d="M234.62,-112.32C244.03,-104.26 258.24,-92.08 269.57,-82.37"/>
<polygon fill="midnightblue" stroke="midnightblue" points="271.88,-85 277.19,-75.83 267.32,-79.68 271.88,-85"/>
</g>
<!-- Node21 -->
<g id="node9" class="node">
<title>Node21</title>
<g id="a_node9"><a xlink:title=" ">
<polygon fill="white" stroke="#bfbfbf" points="342,-56.5 342,-75.5 395,-75.5 395,-56.5 342,-56.5"/>
<text text-anchor="middle" x="368.5" y="-63.5" font-family="Helvetica,sans-Serif" font-size="10.00">hal.hpp</text>
</a>
</g>
</g>
<!-- Node20&#45;&gt;Node21 -->
<g id="edge9" class="edge">
<title>Node20&#45;&gt;Node21</title>
<path fill="none" stroke="midnightblue" d="M330.1,-112.08C336.73,-104.3 346.52,-92.8 354.56,-83.37"/>
<polygon fill="midnightblue" stroke="midnightblue" points="357.23,-85.63 361.05,-75.75 351.9,-81.09 357.23,-85.63"/>
</g>
</g>
</svg>
