<?xml version="1.0" encoding="UTF-8" standalone="no"?>
<!DOCTYPE svg PUBLIC "-//W3C//DTD SVG 1.1//EN"
 "http://www.w3.org/Graphics/SVG/1.1/DTD/svg11.dtd">
<!-- Generated by graphviz version 2.43.0 (0)
 -->
<!-- Title: src/fw/board.hpp Pages: 1 -->
<svg width="1034pt" height="207pt"
 viewBox="0.00 0.00 1034.00 207.00" xmlns="http://www.w3.org/2000/svg" xmlns:xlink="http://www.w3.org/1999/xlink">
<g id="graph0" class="graph" transform="scale(1 1) rotate(0) translate(4 203)">
<title>src/fw/board.hpp</title>
<polygon fill="white" stroke="transparent" points="-4,4 -4,-203 1030,-203 1030,4 -4,4"/>
<!-- Node1 -->
<g id="node1" class="node">
<title>Node1</title>
<g id="a_node1"><a xlink:title=" ">
<polygon fill="#bfbfbf" stroke="black" points="254,-179.5 254,-198.5 351,-198.5 351,-179.5 254,-179.5"/>
<text text-anchor="middle" x="302.5" y="-186.5" font-family="Helvetica,sans-Serif" font-size="10.00">src/fw/board.hpp</text>
</a>
</g>
</g>
<!-- Node2 -->
<g id="node2" class="node">
<title>Node2</title>
<g id="a_node2"><a xlink:title=" ">
<polygon fill="white" stroke="#bfbfbf" points="0,-123.5 0,-142.5 67,-142.5 67,-123.5 0,-123.5"/>
<text text-anchor="middle" x="33.5" y="-130.5" font-family="Helvetica,sans-Serif" font-size="10.00">config.hpp</text>
</a>
</g>
</g>
<!-- Node1&#45;&gt;Node2 -->
<g id="edge1" class="edge">
<title>Node1&#45;&gt;Node2</title>
<path fill="none" stroke="midnightblue" d="M258.52,-179.49C214.9,-171 145.9,-157.45 77.5,-143.39"/>
<polygon fill="midnightblue" stroke="midnightblue" points="77.92,-139.9 67.42,-141.31 76.5,-146.76 77.92,-139.9"/>
</g>
<!-- Node3 -->
<g id="node3" class="node">
<title>Node3</title>
<g id="a_node3"><a xlink:href="clock_8hpp.html" target="_top" xlink:title=" ">
<polygon fill="white" stroke="black" points="194.5,-123.5 194.5,-142.5 290.5,-142.5 290.5,-123.5 194.5,-123.5"/>
<text text-anchor="middle" x="242.5" y="-130.5" font-family="Helvetica,sans-Serif" font-size="10.00">fw/drv/clock.hpp</text>
</a>
</g>
</g>
<!-- Node1&#45;&gt;Node3 -->
<g id="edge2" class="edge">
<title>Node1&#45;&gt;Node3</title>
<path fill="none" stroke="midnightblue" d="M292.86,-179.32C283.99,-171.34 270.63,-159.31 259.89,-149.65"/>
<polygon fill="midnightblue" stroke="midnightblue" points="262.09,-146.92 252.32,-142.83 257.41,-152.13 262.09,-146.92"/>
</g>
<!-- Node13 -->
<g id="node8" class="node">
<title>Node13</title>
<g id="a_node8"><a xlink:href="cobs__uart_8hpp.html" target="_top" xlink:title=" ">
<polygon fill="white" stroke="black" points="434.5,-123.5 434.5,-142.5 552.5,-142.5 552.5,-123.5 434.5,-123.5"/>
<text text-anchor="middle" x="493.5" y="-130.5" font-family="Helvetica,sans-Serif" font-size="10.00">fw/drv/cobs_uart.hpp</text>
</a>
</g>
</g>
<!-- Node1&#45;&gt;Node13 -->
<g id="edge7" class="edge">
<title>Node1&#45;&gt;Node13</title>
<path fill="none" stroke="midnightblue" d="M332.76,-179.44C365.46,-170.2 417.68,-155.44 453.68,-145.26"/>
<polygon fill="midnightblue" stroke="midnightblue" points="454.71,-148.61 463.38,-142.52 452.8,-141.87 454.71,-148.61"/>
</g>
<!-- Node16 -->
<g id="node11" class="node">
<title>Node16</title>
<g id="a_node11"><a xlink:href="hbridge_8hpp.html" target="_top" xlink:title=" ">
<polygon fill="white" stroke="black" points="309,-123.5 309,-142.5 416,-142.5 416,-123.5 309,-123.5"/>
<text text-anchor="middle" x="362.5" y="-130.5" font-family="Helvetica,sans-Serif" font-size="10.00">fw/drv/hbridge.hpp</text>
</a>
</g>
</g>
<!-- Node1&#45;&gt;Node16 -->
<g id="edge12" class="edge">
<title>Node1&#45;&gt;Node16</title>
<path fill="none" stroke="midnightblue" d="M312.14,-179.32C321.01,-171.34 334.37,-159.31 345.11,-149.65"/>
<polygon fill="midnightblue" stroke="midnightblue" points="347.59,-152.13 352.68,-142.83 342.91,-146.92 347.59,-152.13"/>
</g>
<!-- Node20 -->
<g id="node14" class="node">
<title>Node20</title>
<g id="a_node14"><a xlink:href="leds_8hpp.html" target="_top" xlink:title=" ">
<polygon fill="white" stroke="black" points="85,-123.5 85,-142.5 176,-142.5 176,-123.5 85,-123.5"/>
<text text-anchor="middle" x="130.5" y="-130.5" font-family="Helvetica,sans-Serif" font-size="10.00">fw/drv/leds.hpp</text>
</a>
</g>
</g>
<!-- Node1&#45;&gt;Node20 -->
<g id="edge19" class="edge">
<title>Node1&#45;&gt;Node20</title>
<path fill="none" stroke="midnightblue" d="M275.25,-179.44C246.06,-170.28 199.58,-155.69 167.19,-145.52"/>
<polygon fill="midnightblue" stroke="midnightblue" points="168.22,-142.17 157.63,-142.52 166.12,-148.85 168.22,-142.17"/>
</g>
<!-- Node21 -->
<g id="node15" class="node">
<title>Node21</title>
<g id="a_node15"><a xlink:href="globals_8hpp.html" target="_top" xlink:title=" ">
<polygon fill="white" stroke="black" points="767,-123.5 767,-142.5 840,-142.5 840,-123.5 767,-123.5"/>
<text text-anchor="middle" x="803.5" y="-130.5" font-family="Helvetica,sans-Serif" font-size="10.00">globals.hpp</text>
</a>
</g>
</g>
<!-- Node1&#45;&gt;Node21 -->
<g id="edge24" class="edge">
<title>Node1&#45;&gt;Node21</title>
<path fill="none" stroke="midnightblue" d="M351.45,-182.72C448.04,-172.31 662,-149.25 756.76,-139.04"/>
<polygon fill="midnightblue" stroke="midnightblue" points="757.34,-142.5 766.91,-137.94 756.59,-135.54 757.34,-142.5"/>
</g>
<!-- Node4 -->
<g id="node4" class="node">
<title>Node4</title>
<g id="a_node4"><a xlink:href="base_8hpp.html" target="_top" xlink:title=" ">
<polygon fill="white" stroke="red" points="50,-62 50,-81 111,-81 111,-62 50,-62"/>
<text text-anchor="middle" x="80.5" y="-69" font-family="Helvetica,sans-Serif" font-size="10.00">base.hpp</text>
</a>
</g>
</g>
<!-- Node3&#45;&gt;Node4 -->
<g id="edge3" class="edge">
<title>Node3&#45;&gt;Node4</title>
<path fill="none" stroke="midnightblue" d="M218.91,-123.41C194.14,-114.38 154.06,-99.75 119.5,-87 117.41,-86.23 115.25,-85.43 113.08,-84.63"/>
<polygon fill="midnightblue" stroke="midnightblue" points="114.18,-81.3 103.59,-81.11 111.75,-87.87 114.18,-81.3"/>
</g>
<!-- Node11 -->
<g id="node6" class="node">
<title>Node11</title>
<g id="a_node6"><a xlink:title=" ">
<polygon fill="white" stroke="#bfbfbf" points="248,-56.5 248,-86.5 381,-86.5 381,-56.5 248,-56.5"/>
<text text-anchor="start" x="256" y="-74.5" font-family="Helvetica,sans-Serif" font-size="10.00">emlabcpp/experimental</text>
<text text-anchor="middle" x="314.5" y="-63.5" font-family="Helvetica,sans-Serif" font-size="10.00">/function_view.h</text>
</a>
</g>
</g>
<!-- Node3&#45;&gt;Node11 -->
<g id="edge5" class="edge">
<title>Node3&#45;&gt;Node11</title>
<path fill="none" stroke="midnightblue" d="M252.82,-123.48C262.38,-115.57 277.01,-103.48 289.61,-93.07"/>
<polygon fill="midnightblue" stroke="midnightblue" points="292.05,-95.59 297.53,-86.52 287.59,-90.2 292.05,-95.59"/>
</g>
<!-- Node12 -->
<g id="node7" class="node">
<title>Node12</title>
<g id="a_node7"><a xlink:title=" ">
<polygon fill="white" stroke="#bfbfbf" points="129,-62 129,-81 230,-81 230,-62 129,-62"/>
<text text-anchor="middle" x="179.5" y="-69" font-family="Helvetica,sans-Serif" font-size="10.00">stm32g4xx_hal.h</text>
</a>
</g>
</g>
<!-- Node3&#45;&gt;Node12 -->
<g id="edge6" class="edge">
<title>Node3&#45;&gt;Node12</title>
<path fill="none" stroke="midnightblue" d="M233.47,-123.48C223.74,-114.28 208.04,-99.46 196.08,-88.16"/>
<polygon fill="midnightblue" stroke="midnightblue" points="198.18,-85.33 188.51,-81.01 193.38,-90.42 198.18,-85.33"/>
</g>
<!-- Node8 -->
<g id="node5" class="node">
<title>Node8</title>
<g id="a_node5"><a xlink:title=" ">
<polygon fill="white" stroke="#bfbfbf" points="55.5,-0.5 55.5,-19.5 105.5,-19.5 105.5,-0.5 55.5,-0.5"/>
<text text-anchor="middle" x="80.5" y="-7.5" font-family="Helvetica,sans-Serif" font-size="10.00">cstdint</text>
</a>
</g>
</g>
<!-- Node4&#45;&gt;Node8 -->
<g id="edge4" class="edge">
<title>Node4&#45;&gt;Node8</title>
<path fill="none" stroke="midnightblue" d="M80.5,-61.98C80.5,-53.58 80.5,-40.48 80.5,-29.66"/>
<polygon fill="midnightblue" stroke="midnightblue" points="84,-29.51 80.5,-19.51 77,-29.51 84,-29.51"/>
</g>
<!-- Node13&#45;&gt;Node11 -->
<g id="edge9" class="edge">
<title>Node13&#45;&gt;Node11</title>
<path fill="none" stroke="midnightblue" d="M467.85,-123.48C441.46,-114.7 399.6,-100.79 366.28,-89.71"/>
<polygon fill="midnightblue" stroke="midnightblue" points="367.28,-86.36 356.69,-86.52 365.07,-93 367.28,-86.36"/>
</g>
<!-- Node13&#45;&gt;Node12 -->
<g id="edge11" class="edge">
<title>Node13&#45;&gt;Node12</title>
<path fill="none" stroke="midnightblue" d="M439.08,-123.47C387.31,-115.1 307.34,-101.52 238.5,-87 233.34,-85.91 227.95,-84.7 222.61,-83.45"/>
<polygon fill="midnightblue" stroke="midnightblue" points="223.03,-79.95 212.49,-81.02 221.4,-86.75 223.03,-79.95"/>
</g>
<!-- Node14 -->
<g id="node9" class="node">
<title>Node14</title>
<g id="a_node9"><a xlink:title=" ">
<polygon fill="white" stroke="#bfbfbf" points="726,-56.5 726,-86.5 859,-86.5 859,-56.5 726,-56.5"/>
<text text-anchor="start" x="734" y="-74.5" font-family="Helvetica,sans-Serif" font-size="10.00">emlabcpp/experimental</text>
<text text-anchor="middle" x="792.5" y="-63.5" font-family="Helvetica,sans-Serif" font-size="10.00">/cobs.h</text>
</a>
</g>
</g>
<!-- Node13&#45;&gt;Node14 -->
<g id="edge8" class="edge">
<title>Node13&#45;&gt;Node14</title>
<path fill="none" stroke="midnightblue" d="M536.34,-123.48C583.03,-114.18 658.68,-99.13 715.69,-87.79"/>
<polygon fill="midnightblue" stroke="midnightblue" points="716.62,-91.17 725.75,-85.78 715.26,-84.3 716.62,-91.17"/>
</g>
<!-- Node15 -->
<g id="node10" class="node">
<title>Node15</title>
<g id="a_node10"><a xlink:title=" ">
<polygon fill="white" stroke="#bfbfbf" points="571.5,-56.5 571.5,-86.5 707.5,-86.5 707.5,-56.5 571.5,-56.5"/>
<text text-anchor="start" x="579.5" y="-74.5" font-family="Helvetica,sans-Serif" font-size="10.00">emlabcpp/static_circular</text>
<text text-anchor="middle" x="639.5" y="-63.5" font-family="Helvetica,sans-Serif" font-size="10.00">_buffer.h</text>
</a>
</g>
</g>
<!-- Node13&#45;&gt;Node15 -->
<g id="edge10" class="edge">
<title>Node13&#45;&gt;Node15</title>
<path fill="none" stroke="midnightblue" d="M514.42,-123.48C535.49,-114.89 568.63,-101.38 595.51,-90.43"/>
<polygon fill="midnightblue" stroke="midnightblue" points="597.15,-93.54 605.09,-86.52 594.51,-87.06 597.15,-93.54"/>
</g>
<!-- Node16&#45;&gt;Node11 -->
<g id="edge16" class="edge">
<title>Node16&#45;&gt;Node11</title>
<path fill="none" stroke="midnightblue" d="M355.62,-123.48C349.55,-115.94 340.42,-104.63 332.3,-94.57"/>
<polygon fill="midnightblue" stroke="midnightblue" points="334.82,-92.11 325.81,-86.52 329.37,-96.5 334.82,-92.11"/>
</g>
<!-- Node16&#45;&gt;Node12 -->
<g id="edge18" class="edge">
<title>Node16&#45;&gt;Node12</title>
<path fill="none" stroke="midnightblue" d="M336.28,-123.48C304.48,-113.14 250.73,-95.66 215.18,-84.1"/>
<polygon fill="midnightblue" stroke="midnightblue" points="216.26,-80.77 205.67,-81.01 214.1,-87.43 216.26,-80.77"/>
</g>
<!-- Node17 -->
<g id="node12" class="node">
<title>Node17</title>
<g id="a_node12"><a xlink:href="drv_2callbacks_8hpp.html" target="_top" xlink:title=" ">
<polygon fill="white" stroke="red" points="399.5,-62 399.5,-81 515.5,-81 515.5,-62 399.5,-62"/>
<text text-anchor="middle" x="457.5" y="-69" font-family="Helvetica,sans-Serif" font-size="10.00">fw/drv/callbacks.hpp</text>
</a>
</g>
</g>
<!-- Node16&#45;&gt;Node17 -->
<g id="edge13" class="edge">
<title>Node16&#45;&gt;Node17</title>
<path fill="none" stroke="midnightblue" d="M376.11,-123.48C391.56,-113.8 416.99,-97.87 435.32,-86.39"/>
<polygon fill="midnightblue" stroke="midnightblue" points="437.3,-89.28 443.91,-81.01 433.58,-83.35 437.3,-89.28"/>
</g>
<!-- Node19 -->
<g id="node13" class="node">
<title>Node19</title>
<g id="a_node13"><a xlink:title=" ">
<polygon fill="white" stroke="#bfbfbf" points="480.5,-0.5 480.5,-19.5 520.5,-19.5 520.5,-0.5 480.5,-0.5"/>
<text text-anchor="middle" x="500.5" y="-7.5" font-family="Helvetica,sans-Serif" font-size="10.00">span</text>
</a>
</g>
</g>
<!-- Node16&#45;&gt;Node19 -->
<g id="edge17" class="edge">
<title>Node16&#45;&gt;Node19</title>
<path fill="none" stroke="midnightblue" d="M416.01,-124.21C457.91,-116.88 511.25,-104.43 524.5,-87 537.78,-69.53 525.39,-44.53 514.04,-28.04"/>
<polygon fill="midnightblue" stroke="midnightblue" points="516.76,-25.83 508.01,-19.85 511.13,-29.98 516.76,-25.83"/>
</g>
<!-- Node17&#45;&gt;Node8 -->
<g id="edge14" class="edge">
<title>Node17&#45;&gt;Node8</title>
<path fill="none" stroke="midnightblue" d="M420.38,-61.99C410.68,-59.9 400.22,-57.76 390.5,-56 291.25,-38.08 173.11,-22.51 115.53,-15.29"/>
<polygon fill="midnightblue" stroke="midnightblue" points="115.86,-11.8 105.51,-14.04 115,-18.75 115.86,-11.8"/>
</g>
<!-- Node17&#45;&gt;Node19 -->
<g id="edge15" class="edge">
<title>Node17&#45;&gt;Node19</title>
<path fill="none" stroke="midnightblue" d="M463.66,-61.98C470.11,-53.05 480.4,-38.81 488.47,-27.64"/>
<polygon fill="midnightblue" stroke="midnightblue" points="491.33,-29.66 494.35,-19.51 485.66,-25.56 491.33,-29.66"/>
</g>
<!-- Node20&#45;&gt;Node4 -->
<g id="edge20" class="edge">
<title>Node20&#45;&gt;Node4</title>
<path fill="none" stroke="midnightblue" d="M123.34,-123.48C115.76,-114.46 103.63,-100.02 94.21,-88.81"/>
<polygon fill="midnightblue" stroke="midnightblue" points="96.76,-86.41 87.65,-81.01 91.4,-90.92 96.76,-86.41"/>
</g>
<!-- Node20&#45;&gt;Node8 -->
<g id="edge21" class="edge">
<title>Node20&#45;&gt;Node8</title>
<path fill="none" stroke="midnightblue" d="M93.4,-123.46C74.06,-116.92 52.07,-105.72 40.5,-87 27.97,-66.73 46.68,-42.14 62.51,-26.53"/>
<polygon fill="midnightblue" stroke="midnightblue" points="64.96,-29.03 69.89,-19.65 60.19,-23.9 64.96,-29.03"/>
</g>
<!-- Node20&#45;&gt;Node11 -->
<g id="edge22" class="edge">
<title>Node20&#45;&gt;Node11</title>
<path fill="none" stroke="midnightblue" d="M156.86,-123.48C184,-114.7 227.02,-100.79 261.27,-89.71"/>
<polygon fill="midnightblue" stroke="midnightblue" points="262.7,-92.93 271.13,-86.52 260.54,-86.27 262.7,-92.93"/>
</g>
<!-- Node20&#45;&gt;Node12 -->
<g id="edge23" class="edge">
<title>Node20&#45;&gt;Node12</title>
<path fill="none" stroke="midnightblue" d="M137.52,-123.48C144.94,-114.46 156.83,-100.02 166.07,-88.81"/>
<polygon fill="midnightblue" stroke="midnightblue" points="168.84,-90.95 172.49,-81.01 163.43,-86.5 168.84,-90.95"/>
</g>
<!-- Node22 -->
<g id="node16" class="node">
<title>Node22</title>
<g id="a_node16"><a xlink:title=" ">
<polygon fill="white" stroke="#bfbfbf" points="877,-62 877,-81 1026,-81 1026,-62 877,-62"/>
<text text-anchor="middle" x="951.5" y="-69" font-family="Helvetica,sans-Serif" font-size="10.00">emlabcpp/static_function.h</text>
</a>
</g>
</g>
<!-- Node21&#45;&gt;Node22 -->
<g id="edge25" class="edge">
<title>Node21&#45;&gt;Node22</title>
<path fill="none" stroke="midnightblue" d="M824.7,-123.48C849.87,-113.36 892.04,-96.4 920.78,-84.85"/>
<polygon fill="midnightblue" stroke="midnightblue" points="922.36,-87.99 930.33,-81.01 919.75,-81.49 922.36,-87.99"/>
</g>
</g>
</svg>
