<?xml version="1.0" encoding="UTF-8" standalone="no"?>
<!DOCTYPE svg PUBLIC "-//W3C//DTD SVG 1.1//EN"
 "http://www.w3.org/Graphics/SVG/1.1/DTD/svg11.dtd">
<!-- Generated by graphviz version 2.43.0 (0)
 -->
<!-- Title: boards/prototype2/uart.cpp Pages: 1 -->
<svg width="511pt" height="196pt"
 viewBox="0.00 0.00 510.50 196.00" xmlns="http://www.w3.org/2000/svg" xmlns:xlink="http://www.w3.org/1999/xlink">
<g id="graph0" class="graph" transform="scale(1 1) rotate(0) translate(4 192)">
<title>boards/prototype2/uart.cpp</title>
<polygon fill="white" stroke="transparent" points="-4,4 -4,-192 506.5,-192 506.5,4 -4,4"/>
<!-- Node1 -->
<g id="node1" class="node">
<title>Node1</title>
<g id="a_node1"><a xlink:title=" ">
<polygon fill="#bfbfbf" stroke="black" points="183.5,-168.5 183.5,-187.5 332.5,-187.5 332.5,-168.5 183.5,-168.5"/>
<text text-anchor="middle" x="258" y="-175.5" font-family="Helvetica,sans-Serif" font-size="10.00">boards/prototype2/uart.cpp</text>
</a>
</g>
</g>
<!-- Node2 -->
<g id="node2" class="node">
<title>Node2</title>
<g id="a_node2"><a xlink:href="util_8hpp.html" target="_top" xlink:title=" ">
<polygon fill="white" stroke="black" points="73,-112.5 73,-131.5 141,-131.5 141,-112.5 73,-112.5"/>
<text text-anchor="middle" x="107" y="-119.5" font-family="Helvetica,sans-Serif" font-size="10.00">fw/util.hpp</text>
</a>
</g>
</g>
<!-- Node1&#45;&gt;Node2 -->
<g id="edge1" class="edge">
<title>Node1&#45;&gt;Node2</title>
<path fill="none" stroke="midnightblue" d="M234.07,-168.44C208.78,-159.4 168.7,-145.06 140.32,-134.92"/>
<polygon fill="midnightblue" stroke="midnightblue" points="141.41,-131.59 130.81,-131.52 139.05,-138.18 141.41,-131.59"/>
</g>
<!-- Node5 -->
<g id="node5" class="node">
<title>Node5</title>
<g id="a_node5"><a xlink:href="boards_2prototype2_2setup_8hpp.html" target="_top" xlink:title=" ">
<polygon fill="white" stroke="black" points="225.5,-112.5 225.5,-131.5 290.5,-131.5 290.5,-112.5 225.5,-112.5"/>
<text text-anchor="middle" x="258" y="-119.5" font-family="Helvetica,sans-Serif" font-size="10.00">setup.hpp</text>
</a>
</g>
</g>
<!-- Node1&#45;&gt;Node5 -->
<g id="edge4" class="edge">
<title>Node1&#45;&gt;Node5</title>
<path fill="none" stroke="midnightblue" d="M258,-168.08C258,-161.01 258,-150.86 258,-141.99"/>
<polygon fill="midnightblue" stroke="midnightblue" points="261.5,-141.75 258,-131.75 254.5,-141.75 261.5,-141.75"/>
</g>
<!-- Node25 -->
<g id="node10" class="node">
<title>Node25</title>
<g id="a_node10"><a xlink:title=" ">
<polygon fill="white" stroke="#bfbfbf" points="308.5,-112.5 308.5,-131.5 357.5,-131.5 357.5,-112.5 308.5,-112.5"/>
<text text-anchor="middle" x="333" y="-119.5" font-family="Helvetica,sans-Serif" font-size="10.00">cstdlib</text>
</a>
</g>
</g>
<!-- Node1&#45;&gt;Node25 -->
<g id="edge10" class="edge">
<title>Node1&#45;&gt;Node25</title>
<path fill="none" stroke="midnightblue" d="M270.05,-168.32C281.46,-160.11 298.83,-147.6 312.43,-137.81"/>
<polygon fill="midnightblue" stroke="midnightblue" points="314.66,-140.52 320.73,-131.83 310.57,-134.84 314.66,-140.52"/>
</g>
<!-- Node3 -->
<g id="node3" class="node">
<title>Node3</title>
<g id="a_node3"><a xlink:title=" ">
<polygon fill="white" stroke="#bfbfbf" points="0,-56.5 0,-75.5 64,-75.5 64,-56.5 0,-56.5"/>
<text text-anchor="middle" x="32" y="-63.5" font-family="Helvetica,sans-Serif" font-size="10.00">algorithm</text>
</a>
</g>
</g>
<!-- Node2&#45;&gt;Node3 -->
<g id="edge2" class="edge">
<title>Node2&#45;&gt;Node3</title>
<path fill="none" stroke="midnightblue" d="M94.95,-112.32C83.54,-104.11 66.17,-91.6 52.57,-81.81"/>
<polygon fill="midnightblue" stroke="midnightblue" points="54.43,-78.84 44.27,-75.83 50.34,-84.52 54.43,-78.84"/>
</g>
<!-- Node4 -->
<g id="node4" class="node">
<title>Node4</title>
<g id="a_node4"><a xlink:title=" ">
<polygon fill="white" stroke="#bfbfbf" points="82,-56.5 82,-75.5 132,-75.5 132,-56.5 82,-56.5"/>
<text text-anchor="middle" x="107" y="-63.5" font-family="Helvetica,sans-Serif" font-size="10.00">cstring</text>
</a>
</g>
</g>
<!-- Node2&#45;&gt;Node4 -->
<g id="edge3" class="edge">
<title>Node2&#45;&gt;Node4</title>
<path fill="none" stroke="midnightblue" d="M107,-112.08C107,-105.01 107,-94.86 107,-85.99"/>
<polygon fill="midnightblue" stroke="midnightblue" points="110.5,-85.75 107,-75.75 103.5,-85.75 110.5,-85.75"/>
</g>
<!-- Node6 -->
<g id="node6" class="node">
<title>Node6</title>
<g id="a_node6"><a xlink:href="board_8hpp.html" target="_top" xlink:title=" ">
<polygon fill="white" stroke="red" points="150,-56.5 150,-75.5 230,-75.5 230,-56.5 150,-56.5"/>
<text text-anchor="middle" x="190" y="-63.5" font-family="Helvetica,sans-Serif" font-size="10.00">fw/board.hpp</text>
</a>
</g>
</g>
<!-- Node5&#45;&gt;Node6 -->
<g id="edge5" class="edge">
<title>Node5&#45;&gt;Node6</title>
<path fill="none" stroke="midnightblue" d="M247.07,-112.32C236.83,-104.18 221.28,-91.84 209,-82.09"/>
<polygon fill="midnightblue" stroke="midnightblue" points="211.13,-79.31 201.12,-75.83 206.78,-84.79 211.13,-79.31"/>
</g>
<!-- Node18 -->
<g id="node7" class="node">
<title>Node18</title>
<g id="a_node7"><a xlink:href="defs_8hpp.html" target="_top" xlink:title=" ">
<polygon fill="white" stroke="red" points="311,-0.5 311,-19.5 403,-19.5 403,-0.5 311,-0.5"/>
<text text-anchor="middle" x="357" y="-7.5" font-family="Helvetica,sans-Serif" font-size="10.00">fw/drv/defs.hpp</text>
</a>
</g>
</g>
<!-- Node5&#45;&gt;Node18 -->
<g id="edge6" class="edge">
<title>Node5&#45;&gt;Node18</title>
<path fill="none" stroke="midnightblue" d="M258.63,-112.49C260.02,-99.11 264.41,-72.95 278,-56 289.53,-41.62 306.98,-31 322.54,-23.69"/>
<polygon fill="midnightblue" stroke="midnightblue" points="324.18,-26.8 331.92,-19.57 321.36,-20.39 324.18,-26.8"/>
</g>
<!-- Node21 -->
<g id="node8" class="node">
<title>Node21</title>
<g id="a_node8"><a xlink:href="hbridge_8hpp.html" target="_top" xlink:title=" ">
<polygon fill="white" stroke="red" points="286.5,-56.5 286.5,-75.5 393.5,-75.5 393.5,-56.5 286.5,-56.5"/>
<text text-anchor="middle" x="340" y="-63.5" font-family="Helvetica,sans-Serif" font-size="10.00">fw/drv/hbridge.hpp</text>
</a>
</g>
</g>
<!-- Node5&#45;&gt;Node21 -->
<g id="edge7" class="edge">
<title>Node5&#45;&gt;Node21</title>
<path fill="none" stroke="midnightblue" d="M271.17,-112.32C283.85,-103.98 303.23,-91.21 318.21,-81.35"/>
<polygon fill="midnightblue" stroke="midnightblue" points="320.43,-84.08 326.86,-75.65 316.58,-78.23 320.43,-84.08"/>
</g>
<!-- Node24 -->
<g id="node9" class="node">
<title>Node24</title>
<g id="a_node9"><a xlink:href="leds_8hpp.html" target="_top" xlink:title=" ">
<polygon fill="white" stroke="red" points="411.5,-56.5 411.5,-75.5 502.5,-75.5 502.5,-56.5 411.5,-56.5"/>
<text text-anchor="middle" x="457" y="-63.5" font-family="Helvetica,sans-Serif" font-size="10.00">fw/drv/leds.hpp</text>
</a>
</g>
</g>
<!-- Node5&#45;&gt;Node24 -->
<g id="edge8" class="edge">
<title>Node5&#45;&gt;Node24</title>
<path fill="none" stroke="midnightblue" d="M289.53,-112.44C323.59,-103.2 378.01,-88.44 415.52,-78.26"/>
<polygon fill="midnightblue" stroke="midnightblue" points="416.88,-81.51 425.62,-75.52 415.05,-74.76 416.88,-81.51"/>
</g>
<!-- Node24&#45;&gt;Node18 -->
<g id="edge9" class="edge">
<title>Node24&#45;&gt;Node18</title>
<path fill="none" stroke="midnightblue" d="M440.93,-56.32C425.04,-47.74 400.49,-34.49 382.04,-24.52"/>
<polygon fill="midnightblue" stroke="midnightblue" points="383.49,-21.33 373.03,-19.65 380.16,-27.49 383.49,-21.33"/>
</g>
</g>
</svg>
