<?xml version="1.0" encoding="UTF-8" standalone="no"?>
<!DOCTYPE svg PUBLIC "-//W3C//DTD SVG 1.1//EN"
 "http://www.w3.org/Graphics/SVG/1.1/DTD/svg11.dtd">
<!-- Generated by graphviz version 2.43.0 (0)
 -->
<!-- Title: boards/prototype2/config.cpp Pages: 1 -->
<svg width="481pt" height="196pt"
 viewBox="0.00 0.00 481.00 196.00" xmlns="http://www.w3.org/2000/svg" xmlns:xlink="http://www.w3.org/1999/xlink">
<g id="graph0" class="graph" transform="scale(1 1) rotate(0) translate(4 192)">
<title>boards/prototype2/config.cpp</title>
<polygon fill="white" stroke="transparent" points="-4,4 -4,-192 477,-192 477,4 -4,4"/>
<!-- Node1 -->
<g id="node1" class="node">
<title>Node1</title>
<g id="a_node1"><a xlink:title=" ">
<polygon fill="#bfbfbf" stroke="black" points="227.5,-168.5 227.5,-187.5 385.5,-187.5 385.5,-168.5 227.5,-168.5"/>
<text text-anchor="middle" x="306.5" y="-175.5" font-family="Helvetica,sans-Serif" font-size="10.00">boards/prototype2/config.cpp</text>
</a>
</g>
</g>
<!-- Node2 -->
<g id="node2" class="node">
<title>Node2</title>
<g id="a_node2"><a xlink:href="default_8hpp.html" target="_top" xlink:title=" ">
<polygon fill="white" stroke="black" points="24.5,-112.5 24.5,-131.5 114.5,-131.5 114.5,-112.5 24.5,-112.5"/>
<text text-anchor="middle" x="69.5" y="-119.5" font-family="Helvetica,sans-Serif" font-size="10.00">cfg/default.hpp</text>
</a>
</g>
</g>
<!-- Node1&#45;&gt;Node2 -->
<g id="edge1" class="edge">
<title>Node1&#45;&gt;Node2</title>
<path fill="none" stroke="midnightblue" d="M268.95,-168.44C227.69,-159.04 161.36,-143.93 116.63,-133.74"/>
<polygon fill="midnightblue" stroke="midnightblue" points="117.41,-130.33 106.88,-131.52 115.85,-137.15 117.41,-130.33"/>
</g>
<!-- Node13 -->
<g id="node5" class="node">
<title>Node13</title>
<g id="a_node5"><a xlink:href="board_8hpp.html" target="_top" xlink:title=" ">
<polygon fill="white" stroke="black" points="217.5,-112.5 217.5,-131.5 297.5,-131.5 297.5,-112.5 217.5,-112.5"/>
<text text-anchor="middle" x="257.5" y="-119.5" font-family="Helvetica,sans-Serif" font-size="10.00">fw/board.hpp</text>
</a>
</g>
</g>
<!-- Node1&#45;&gt;Node13 -->
<g id="edge5" class="edge">
<title>Node1&#45;&gt;Node13</title>
<path fill="none" stroke="midnightblue" d="M298.41,-168.08C291.34,-160.3 280.91,-148.8 272.35,-139.37"/>
<polygon fill="midnightblue" stroke="midnightblue" points="274.75,-136.8 265.44,-131.75 269.57,-141.51 274.75,-136.8"/>
</g>
<!-- Node20 -->
<g id="node8" class="node">
<title>Node20</title>
<g id="a_node8"><a xlink:href="platform_8hpp.html" target="_top" xlink:title=" ">
<polygon fill="white" stroke="black" points="315.5,-112.5 315.5,-131.5 395.5,-131.5 395.5,-112.5 315.5,-112.5"/>
<text text-anchor="middle" x="355.5" y="-119.5" font-family="Helvetica,sans-Serif" font-size="10.00">platform.hpp</text>
</a>
</g>
</g>
<!-- Node1&#45;&gt;Node20 -->
<g id="edge8" class="edge">
<title>Node1&#45;&gt;Node20</title>
<path fill="none" stroke="midnightblue" d="M314.59,-168.08C321.66,-160.3 332.09,-148.8 340.65,-139.37"/>
<polygon fill="midnightblue" stroke="midnightblue" points="343.43,-141.51 347.56,-131.75 338.25,-136.8 343.43,-141.51"/>
</g>
<!-- Node9 -->
<g id="node10" class="node">
<title>Node9</title>
<g id="a_node10"><a xlink:title=" ">
<polygon fill="white" stroke="#bfbfbf" points="414,-112.5 414,-131.5 473,-131.5 473,-112.5 414,-112.5"/>
<text text-anchor="middle" x="443.5" y="-119.5" font-family="Helvetica,sans-Serif" font-size="10.00">numbers</text>
</a>
</g>
</g>
<!-- Node1&#45;&gt;Node9 -->
<g id="edge10" class="edge">
<title>Node1&#45;&gt;Node9</title>
<path fill="none" stroke="midnightblue" d="M328.21,-168.44C350.85,-159.52 386.57,-145.44 412.25,-135.32"/>
<polygon fill="midnightblue" stroke="midnightblue" points="413.87,-138.44 421.89,-131.52 411.31,-131.93 413.87,-138.44"/>
</g>
<!-- Node3 -->
<g id="node3" class="node">
<title>Node3</title>
<g id="a_node3"><a xlink:href="key_8hpp.html" target="_top" xlink:title=" ">
<polygon fill="white" stroke="red" points="0,-0.5 0,-19.5 71,-19.5 71,-0.5 0,-0.5"/>
<text text-anchor="middle" x="35.5" y="-7.5" font-family="Helvetica,sans-Serif" font-size="10.00">cfg/key.hpp</text>
</a>
</g>
</g>
<!-- Node2&#45;&gt;Node3 -->
<g id="edge2" class="edge">
<title>Node2&#45;&gt;Node3</title>
<path fill="none" stroke="midnightblue" d="M55.13,-112.33C43.62,-104.47 28.31,-91.72 21.5,-76 14.92,-60.81 20.11,-42.23 25.94,-28.84"/>
<polygon fill="midnightblue" stroke="midnightblue" points="29.14,-30.27 30.35,-19.74 22.84,-27.22 29.14,-30.27"/>
</g>
<!-- Node5 -->
<g id="node4" class="node">
<title>Node5</title>
<g id="a_node4"><a xlink:href="map_8hpp.html" target="_top" xlink:title=" ">
<polygon fill="white" stroke="red" points="31,-56.5 31,-75.5 108,-75.5 108,-56.5 31,-56.5"/>
<text text-anchor="middle" x="69.5" y="-63.5" font-family="Helvetica,sans-Serif" font-size="10.00">cfg/map.hpp</text>
</a>
</g>
</g>
<!-- Node2&#45;&gt;Node5 -->
<g id="edge3" class="edge">
<title>Node2&#45;&gt;Node5</title>
<path fill="none" stroke="midnightblue" d="M69.5,-112.08C69.5,-105.01 69.5,-94.86 69.5,-85.99"/>
<polygon fill="midnightblue" stroke="midnightblue" points="73,-85.75 69.5,-75.75 66,-85.75 73,-85.75"/>
</g>
<!-- Node5&#45;&gt;Node3 -->
<g id="edge4" class="edge">
<title>Node5&#45;&gt;Node3</title>
<path fill="none" stroke="midnightblue" d="M63.89,-56.08C59.13,-48.53 52.18,-37.49 46.35,-28.23"/>
<polygon fill="midnightblue" stroke="midnightblue" points="49.3,-26.35 41.01,-19.75 43.38,-30.08 49.3,-26.35"/>
</g>
<!-- Node14 -->
<g id="node6" class="node">
<title>Node14</title>
<g id="a_node6"><a xlink:href="drv__interfaces_8hpp.html" target="_top" xlink:title=" ">
<polygon fill="white" stroke="red" points="126.5,-56.5 126.5,-75.5 260.5,-75.5 260.5,-56.5 126.5,-56.5"/>
<text text-anchor="middle" x="193.5" y="-63.5" font-family="Helvetica,sans-Serif" font-size="10.00">base/drv_interfaces.hpp</text>
</a>
</g>
</g>
<!-- Node13&#45;&gt;Node14 -->
<g id="edge6" class="edge">
<title>Node13&#45;&gt;Node14</title>
<path fill="none" stroke="midnightblue" d="M247.22,-112.32C237.66,-104.26 223.22,-92.08 211.72,-82.37"/>
<polygon fill="midnightblue" stroke="midnightblue" points="213.87,-79.61 203.97,-75.83 209.36,-84.96 213.87,-79.61"/>
</g>
<!-- Node18 -->
<g id="node7" class="node">
<title>Node18</title>
<g id="a_node7"><a xlink:href="globals_8hpp.html" target="_top" xlink:title=" ">
<polygon fill="white" stroke="red" points="279,-56.5 279,-75.5 376,-75.5 376,-56.5 279,-56.5"/>
<text text-anchor="middle" x="327.5" y="-63.5" font-family="Helvetica,sans-Serif" font-size="10.00">core/globals.hpp</text>
</a>
</g>
</g>
<!-- Node13&#45;&gt;Node18 -->
<g id="edge7" class="edge">
<title>Node13&#45;&gt;Node18</title>
<path fill="none" stroke="midnightblue" d="M268.75,-112.32C279.3,-104.18 295.3,-91.84 307.94,-82.09"/>
<polygon fill="midnightblue" stroke="midnightblue" points="310.27,-84.71 316.05,-75.83 305.99,-79.17 310.27,-84.71"/>
</g>
<!-- Node21 -->
<g id="node9" class="node">
<title>Node21</title>
<g id="a_node9"><a xlink:title=" ">
<polygon fill="white" stroke="#bfbfbf" points="394,-56.5 394,-75.5 447,-75.5 447,-56.5 394,-56.5"/>
<text text-anchor="middle" x="420.5" y="-63.5" font-family="Helvetica,sans-Serif" font-size="10.00">hal.hpp</text>
</a>
</g>
</g>
<!-- Node20&#45;&gt;Node21 -->
<g id="edge9" class="edge">
<title>Node20&#45;&gt;Node21</title>
<path fill="none" stroke="midnightblue" d="M365.94,-112.32C375.65,-104.26 390.32,-92.08 402,-82.37"/>
<polygon fill="midnightblue" stroke="midnightblue" points="404.41,-84.92 409.87,-75.83 399.94,-79.53 404.41,-84.92"/>
</g>
</g>
</svg>
