<?xml version="1.0" encoding="UTF-8" standalone="no"?>
<!DOCTYPE svg PUBLIC "-//W3C//DTD SVG 1.1//EN"
 "http://www.w3.org/Graphics/SVG/1.1/DTD/svg11.dtd">
<!-- Generated by graphviz version 2.43.0 (0)
 -->
<!-- Title: src/fw/board.hpp Pages: 1 -->
<svg width="751pt" height="207pt"
 viewBox="0.00 0.00 750.97 207.00" xmlns="http://www.w3.org/2000/svg" xmlns:xlink="http://www.w3.org/1999/xlink">
<g id="graph0" class="graph" transform="scale(1 1) rotate(0) translate(4 203)">
<title>src/fw/board.hpp</title>
<polygon fill="white" stroke="transparent" points="-4,4 -4,-203 746.97,-203 746.97,4 -4,4"/>
<!-- Node1 -->
<g id="node1" class="node">
<title>Node1</title>
<g id="a_node1"><a xlink:title=" ">
<polygon fill="#bfbfbf" stroke="black" points="187.97,-179.5 187.97,-198.5 284.97,-198.5 284.97,-179.5 187.97,-179.5"/>
<text text-anchor="middle" x="236.47" y="-186.5" font-family="Helvetica,sans-Serif" font-size="10.00">src/fw/board.hpp</text>
</a>
</g>
</g>
<!-- Node2 -->
<g id="node2" class="node">
<title>Node2</title>
<g id="a_node2"><a xlink:title=" ">
<polygon fill="white" stroke="#bfbfbf" points="33.97,-123.5 33.97,-142.5 100.97,-142.5 100.97,-123.5 33.97,-123.5"/>
<text text-anchor="middle" x="67.47" y="-130.5" font-family="Helvetica,sans-Serif" font-size="10.00">config.hpp</text>
</a>
</g>
</g>
<!-- Node1&#45;&gt;Node2 -->
<g id="edge1" class="edge">
<title>Node1&#45;&gt;Node2</title>
<path fill="none" stroke="midnightblue" d="M209.69,-179.44C181.14,-170.32 135.74,-155.81 103.93,-145.65"/>
<polygon fill="midnightblue" stroke="midnightblue" points="104.72,-142.23 94.12,-142.52 102.58,-148.89 104.72,-142.23"/>
</g>
<!-- Node3 -->
<g id="node3" class="node">
<title>Node3</title>
<g id="a_node3"><a xlink:href="drv__interfaces_8hpp.html" target="_top" xlink:title=" ">
<polygon fill="white" stroke="black" points="118.97,-123.5 118.97,-142.5 225.97,-142.5 225.97,-123.5 118.97,-123.5"/>
<text text-anchor="middle" x="172.47" y="-130.5" font-family="Helvetica,sans-Serif" font-size="10.00">drv_interfaces.hpp</text>
</a>
</g>
</g>
<!-- Node1&#45;&gt;Node3 -->
<g id="edge2" class="edge">
<title>Node1&#45;&gt;Node3</title>
<path fill="none" stroke="midnightblue" d="M226.19,-179.32C216.64,-171.26 202.19,-159.08 190.69,-149.37"/>
<polygon fill="midnightblue" stroke="midnightblue" points="192.84,-146.61 182.94,-142.83 188.33,-151.96 192.84,-146.61"/>
</g>
<!-- Node13 -->
<g id="node8" class="node">
<title>Node13</title>
<g id="a_node8"><a xlink:href="leds_8hpp.html" target="_top" xlink:title=" ">
<polygon fill="white" stroke="black" points="249.97,-123.5 249.97,-142.5 340.97,-142.5 340.97,-123.5 249.97,-123.5"/>
<text text-anchor="middle" x="295.47" y="-130.5" font-family="Helvetica,sans-Serif" font-size="10.00">fw/drv/leds.hpp</text>
</a>
</g>
</g>
<!-- Node1&#45;&gt;Node13 -->
<g id="edge8" class="edge">
<title>Node1&#45;&gt;Node13</title>
<path fill="none" stroke="midnightblue" d="M245.95,-179.32C254.67,-171.34 267.81,-159.31 278.37,-149.65"/>
<polygon fill="midnightblue" stroke="midnightblue" points="280.81,-152.17 285.82,-142.83 276.08,-147 280.81,-152.17"/>
</g>
<!-- Node16 -->
<g id="node11" class="node">
<title>Node16</title>
<g id="a_node11"><a xlink:href="globals_8hpp.html" target="_top" xlink:title=" ">
<polygon fill="white" stroke="black" points="494.97,-123.5 494.97,-142.5 567.97,-142.5 567.97,-123.5 494.97,-123.5"/>
<text text-anchor="middle" x="531.47" y="-130.5" font-family="Helvetica,sans-Serif" font-size="10.00">globals.hpp</text>
</a>
</g>
</g>
<!-- Node1&#45;&gt;Node16 -->
<g id="edge13" class="edge">
<title>Node1&#45;&gt;Node16</title>
<path fill="none" stroke="midnightblue" d="M283.22,-179.44C338.43,-169.34 429.72,-152.63 484.87,-142.53"/>
<polygon fill="midnightblue" stroke="midnightblue" points="485.53,-145.97 494.73,-140.73 484.27,-139.08 485.53,-145.97"/>
</g>
<!-- Node4 -->
<g id="node4" class="node">
<title>Node4</title>
<g id="a_node4"><a xlink:href="base_8hpp.html" target="_top" xlink:title=" ">
<polygon fill="white" stroke="red" points="205.97,-62 205.97,-81 266.97,-81 266.97,-62 205.97,-62"/>
<text text-anchor="middle" x="236.47" y="-69" font-family="Helvetica,sans-Serif" font-size="10.00">base.hpp</text>
</a>
</g>
</g>
<!-- Node3&#45;&gt;Node4 -->
<g id="edge3" class="edge">
<title>Node3&#45;&gt;Node4</title>
<path fill="none" stroke="midnightblue" d="M181.64,-123.48C191.62,-114.2 207.78,-99.17 219.98,-87.83"/>
<polygon fill="midnightblue" stroke="midnightblue" points="222.38,-90.38 227.32,-81.01 217.61,-85.25 222.38,-90.38"/>
</g>
<!-- Node8 -->
<g id="node5" class="node">
<title>Node8</title>
<g id="a_node5"><a xlink:title=" ">
<polygon fill="white" stroke="#bfbfbf" points="211.47,-0.5 211.47,-19.5 261.47,-19.5 261.47,-0.5 211.47,-0.5"/>
<text text-anchor="middle" x="236.47" y="-7.5" font-family="Helvetica,sans-Serif" font-size="10.00">cstdint</text>
</a>
</g>
</g>
<!-- Node3&#45;&gt;Node8 -->
<g id="edge6" class="edge">
<title>Node3&#45;&gt;Node8</title>
<path fill="none" stroke="midnightblue" d="M118.94,-124.61C75.83,-117.43 20.21,-104.96 6.47,-87 -1.9,-76.06 -2.29,-66.64 6.47,-56 30.7,-26.58 142.64,-16.12 200.94,-12.63"/>
<polygon fill="midnightblue" stroke="midnightblue" points="201.38,-16.11 211.17,-12.05 200.99,-9.12 201.38,-16.11"/>
</g>
<!-- Node11 -->
<g id="node6" class="node">
<title>Node11</title>
<g id="a_node6"><a xlink:href="status__category_8hpp.html" target="_top" xlink:title=" ">
<polygon fill="white" stroke="black" points="15.47,-62 15.47,-81 129.47,-81 129.47,-62 15.47,-62"/>
<text text-anchor="middle" x="72.47" y="-69" font-family="Helvetica,sans-Serif" font-size="10.00">status_category.hpp</text>
</a>
</g>
</g>
<!-- Node3&#45;&gt;Node11 -->
<g id="edge5" class="edge">
<title>Node3&#45;&gt;Node11</title>
<path fill="none" stroke="midnightblue" d="M158.14,-123.48C141.81,-113.75 114.87,-97.73 95.56,-86.24"/>
<polygon fill="midnightblue" stroke="midnightblue" points="97.16,-83.11 86.77,-81.01 93.58,-89.13 97.16,-83.11"/>
</g>
<!-- Node12 -->
<g id="node7" class="node">
<title>Node12</title>
<g id="a_node7"><a xlink:title=" ">
<polygon fill="white" stroke="#bfbfbf" points="147.47,-62 147.47,-81 187.47,-81 187.47,-62 147.47,-62"/>
<text text-anchor="middle" x="167.47" y="-69" font-family="Helvetica,sans-Serif" font-size="10.00">span</text>
</a>
</g>
</g>
<!-- Node3&#45;&gt;Node12 -->
<g id="edge7" class="edge">
<title>Node3&#45;&gt;Node12</title>
<path fill="none" stroke="midnightblue" d="M171.76,-123.48C171.05,-115.08 169.95,-101.98 169.04,-91.16"/>
<polygon fill="midnightblue" stroke="midnightblue" points="172.51,-90.68 168.19,-81.01 165.54,-91.27 172.51,-90.68"/>
</g>
<!-- Node4&#45;&gt;Node8 -->
<g id="edge4" class="edge">
<title>Node4&#45;&gt;Node8</title>
<path fill="none" stroke="midnightblue" d="M236.47,-61.98C236.47,-53.58 236.47,-40.48 236.47,-29.66"/>
<polygon fill="midnightblue" stroke="midnightblue" points="239.97,-29.51 236.47,-19.51 232.97,-29.51 239.97,-29.51"/>
</g>
<!-- Node13&#45;&gt;Node4 -->
<g id="edge9" class="edge">
<title>Node13&#45;&gt;Node4</title>
<path fill="none" stroke="midnightblue" d="M287.02,-123.48C277.91,-114.28 263.2,-99.46 252,-88.16"/>
<polygon fill="midnightblue" stroke="midnightblue" points="254.44,-85.65 244.91,-81.01 249.46,-90.57 254.44,-85.65"/>
</g>
<!-- Node13&#45;&gt;Node8 -->
<g id="edge10" class="edge">
<title>Node13&#45;&gt;Node8</title>
<path fill="none" stroke="midnightblue" d="M294.46,-123.09C292.51,-108.39 287.32,-78.44 275.47,-56 269.82,-45.3 261.19,-34.98 253.48,-26.93"/>
<polygon fill="midnightblue" stroke="midnightblue" points="255.78,-24.28 246.23,-19.71 250.84,-29.24 255.78,-24.28"/>
</g>
<!-- Node14 -->
<g id="node9" class="node">
<title>Node14</title>
<g id="a_node9"><a xlink:title=" ">
<polygon fill="white" stroke="#bfbfbf" points="323.97,-56.5 323.97,-86.5 456.97,-86.5 456.97,-56.5 323.97,-56.5"/>
<text text-anchor="start" x="331.97" y="-74.5" font-family="Helvetica,sans-Serif" font-size="10.00">emlabcpp/experimental</text>
<text text-anchor="middle" x="390.47" y="-63.5" font-family="Helvetica,sans-Serif" font-size="10.00">/function_view.h</text>
</a>
</g>
</g>
<!-- Node13&#45;&gt;Node14 -->
<g id="edge11" class="edge">
<title>Node13&#45;&gt;Node14</title>
<path fill="none" stroke="midnightblue" d="M309.08,-123.48C322.19,-115.27 342.48,-102.56 359.52,-91.88"/>
<polygon fill="midnightblue" stroke="midnightblue" points="361.46,-94.8 368.08,-86.52 357.75,-88.86 361.46,-94.8"/>
</g>
<!-- Node15 -->
<g id="node10" class="node">
<title>Node15</title>
<g id="a_node10"><a xlink:title=" ">
<polygon fill="white" stroke="#bfbfbf" points="474.97,-62 474.97,-81 575.97,-81 575.97,-62 474.97,-62"/>
<text text-anchor="middle" x="525.47" y="-69" font-family="Helvetica,sans-Serif" font-size="10.00">stm32g4xx_hal.h</text>
</a>
</g>
</g>
<!-- Node13&#45;&gt;Node15 -->
<g id="edge12" class="edge">
<title>Node13&#45;&gt;Node15</title>
<path fill="none" stroke="midnightblue" d="M328.42,-123.48C369.07,-112.96 438.26,-95.06 482.9,-83.51"/>
<polygon fill="midnightblue" stroke="midnightblue" points="483.77,-86.9 492.58,-81.01 482.02,-80.13 483.77,-86.9"/>
</g>
<!-- Node17 -->
<g id="node12" class="node">
<title>Node17</title>
<g id="a_node12"><a xlink:title=" ">
<polygon fill="white" stroke="#bfbfbf" points="593.97,-62 593.97,-81 742.97,-81 742.97,-62 593.97,-62"/>
<text text-anchor="middle" x="668.47" y="-69" font-family="Helvetica,sans-Serif" font-size="10.00">emlabcpp/static_function.h</text>
</a>
</g>
</g>
<!-- Node16&#45;&gt;Node17 -->
<g id="edge14" class="edge">
<title>Node16&#45;&gt;Node17</title>
<path fill="none" stroke="midnightblue" d="M551.1,-123.48C574.3,-113.4 613.09,-96.55 639.68,-85"/>
<polygon fill="midnightblue" stroke="midnightblue" points="641.1,-88.2 648.88,-81.01 638.31,-81.78 641.1,-88.2"/>
</g>
</g>
</svg>
