<?xml version="1.0" encoding="UTF-8" standalone="no"?>
<!DOCTYPE svg PUBLIC "-//W3C//DTD SVG 1.1//EN"
 "http://www.w3.org/Graphics/SVG/1.1/DTD/svg11.dtd">
<!-- Generated by graphviz version 2.43.0 (0)
 -->
<!-- Title: boards/prototype2/setup.hpp Pages: 1 -->
<svg width="674pt" height="319pt"
 viewBox="0.00 0.00 674.10 319.00" xmlns="http://www.w3.org/2000/svg" xmlns:xlink="http://www.w3.org/1999/xlink">
<g id="graph0" class="graph" transform="scale(1 1) rotate(0) translate(4 315)">
<title>boards/prototype2/setup.hpp</title>
<polygon fill="white" stroke="transparent" points="-4,4 -4,-315 670.1,-315 670.1,4 -4,4"/>
<!-- Node1 -->
<g id="node1" class="node">
<title>Node1</title>
<g id="a_node1"><a xlink:title=" ">
<polygon fill="#bfbfbf" stroke="black" points="151,-291.5 151,-310.5 308,-310.5 308,-291.5 151,-291.5"/>
<text text-anchor="middle" x="229.5" y="-298.5" font-family="Helvetica,sans-Serif" font-size="10.00">boards/prototype2/setup.hpp</text>
</a>
</g>
</g>
<!-- Node2 -->
<g id="node2" class="node">
<title>Node2</title>
<g id="a_node2"><a xlink:href="board_8hpp.html" target="_top" xlink:title=" ">
<polygon fill="white" stroke="black" points="85.5,-235.5 85.5,-254.5 165.5,-254.5 165.5,-235.5 85.5,-235.5"/>
<text text-anchor="middle" x="125.5" y="-242.5" font-family="Helvetica,sans-Serif" font-size="10.00">fw/board.hpp</text>
</a>
</g>
</g>
<!-- Node1&#45;&gt;Node2 -->
<g id="edge1" class="edge">
<title>Node1&#45;&gt;Node2</title>
<path fill="none" stroke="midnightblue" d="M212.79,-291.32C196.19,-282.7 170.5,-269.36 151.28,-259.39"/>
<polygon fill="midnightblue" stroke="midnightblue" points="152.66,-256.16 142.17,-254.65 149.43,-262.37 152.66,-256.16"/>
</g>
<!-- Node16 -->
<g id="node8" class="node">
<title>Node16</title>
<g id="a_node8"><a xlink:href="hbridge_8hpp.html" target="_top" xlink:title=" ">
<polygon fill="white" stroke="black" points="402,-235.5 402,-254.5 509,-254.5 509,-235.5 402,-235.5"/>
<text text-anchor="middle" x="455.5" y="-242.5" font-family="Helvetica,sans-Serif" font-size="10.00">fw/drv/hbridge.hpp</text>
</a>
</g>
</g>
<!-- Node1&#45;&gt;Node16 -->
<g id="edge8" class="edge">
<title>Node1&#45;&gt;Node16</title>
<path fill="none" stroke="midnightblue" d="M265.31,-291.44C304.49,-282.08 367.38,-267.06 410.02,-256.87"/>
<polygon fill="midnightblue" stroke="midnightblue" points="410.94,-260.24 419.86,-254.52 409.32,-253.44 410.94,-260.24"/>
</g>
<!-- Node21 -->
<g id="node12" class="node">
<title>Node21</title>
<g id="a_node12"><a xlink:href="leds_8hpp.html" target="_top" xlink:title=" ">
<polygon fill="white" stroke="black" points="184,-235.5 184,-254.5 275,-254.5 275,-235.5 184,-235.5"/>
<text text-anchor="middle" x="229.5" y="-242.5" font-family="Helvetica,sans-Serif" font-size="10.00">fw/drv/leds.hpp</text>
</a>
</g>
</g>
<!-- Node1&#45;&gt;Node21 -->
<g id="edge17" class="edge">
<title>Node1&#45;&gt;Node21</title>
<path fill="none" stroke="midnightblue" d="M229.5,-291.08C229.5,-284.01 229.5,-273.86 229.5,-264.99"/>
<polygon fill="midnightblue" stroke="midnightblue" points="233,-264.75 229.5,-254.75 226,-264.75 233,-264.75"/>
</g>
<!-- Node3 -->
<g id="node3" class="node">
<title>Node3</title>
<g id="a_node3"><a xlink:href="drv__interfaces_8hpp.html" target="_top" xlink:title=" ">
<polygon fill="white" stroke="red" points="306,-112.5 306,-131.5 413,-131.5 413,-112.5 306,-112.5"/>
<text text-anchor="middle" x="359.5" y="-119.5" font-family="Helvetica,sans-Serif" font-size="10.00">drv_interfaces.hpp</text>
</a>
</g>
</g>
<!-- Node2&#45;&gt;Node3 -->
<g id="edge2" class="edge">
<title>Node2&#45;&gt;Node3</title>
<path fill="none" stroke="midnightblue" d="M134.03,-235.23C149.63,-219.64 184.42,-186.96 219.5,-168 247.91,-152.65 282.41,-141.48 310.06,-134.11"/>
<polygon fill="midnightblue" stroke="midnightblue" points="311.11,-137.46 319.91,-131.57 309.35,-130.68 311.11,-137.46"/>
</g>
<!-- Node14 -->
<g id="node7" class="node">
<title>Node14</title>
<g id="a_node7"><a xlink:href="globals_8hpp.html" target="_top" xlink:title=" ">
<polygon fill="white" stroke="red" points="0,-174 0,-193 73,-193 73,-174 0,-174"/>
<text text-anchor="middle" x="36.5" y="-181" font-family="Helvetica,sans-Serif" font-size="10.00">globals.hpp</text>
</a>
</g>
</g>
<!-- Node2&#45;&gt;Node14 -->
<g id="edge7" class="edge">
<title>Node2&#45;&gt;Node14</title>
<path fill="none" stroke="midnightblue" d="M112.75,-235.48C98.47,-225.93 75.1,-210.31 57.99,-198.87"/>
<polygon fill="midnightblue" stroke="midnightblue" points="59.49,-195.66 49.23,-193.01 55.6,-201.48 59.49,-195.66"/>
</g>
<!-- Node4 -->
<g id="node4" class="node">
<title>Node4</title>
<g id="a_node4"><a xlink:href="base_8hpp.html" target="_top" xlink:title=" ">
<polygon fill="white" stroke="red" points="270,-56.5 270,-75.5 331,-75.5 331,-56.5 270,-56.5"/>
<text text-anchor="middle" x="300.5" y="-63.5" font-family="Helvetica,sans-Serif" font-size="10.00">base.hpp</text>
</a>
</g>
</g>
<!-- Node3&#45;&gt;Node4 -->
<g id="edge3" class="edge">
<title>Node3&#45;&gt;Node4</title>
<path fill="none" stroke="midnightblue" d="M350.02,-112.32C341.3,-104.34 328.16,-92.31 317.6,-82.65"/>
<polygon fill="midnightblue" stroke="midnightblue" points="319.89,-80 310.15,-75.83 315.17,-85.17 319.89,-80"/>
</g>
<!-- Node8 -->
<g id="node5" class="node">
<title>Node8</title>
<g id="a_node5"><a xlink:title=" ">
<polygon fill="white" stroke="#bfbfbf" points="304.5,-0.5 304.5,-19.5 354.5,-19.5 354.5,-0.5 304.5,-0.5"/>
<text text-anchor="middle" x="329.5" y="-7.5" font-family="Helvetica,sans-Serif" font-size="10.00">cstdint</text>
</a>
</g>
</g>
<!-- Node3&#45;&gt;Node8 -->
<g id="edge5" class="edge">
<title>Node3&#45;&gt;Node8</title>
<path fill="none" stroke="midnightblue" d="M357.15,-112.37C352.28,-94.54 341.04,-53.3 334.48,-29.27"/>
<polygon fill="midnightblue" stroke="midnightblue" points="337.85,-28.32 331.84,-19.59 331.1,-30.16 337.85,-28.32"/>
</g>
<!-- Node13 -->
<g id="node6" class="node">
<title>Node13</title>
<g id="a_node6"><a xlink:title=" ">
<polygon fill="white" stroke="#bfbfbf" points="569.5,-56.5 569.5,-75.5 609.5,-75.5 609.5,-56.5 569.5,-56.5"/>
<text text-anchor="middle" x="589.5" y="-63.5" font-family="Helvetica,sans-Serif" font-size="10.00">span</text>
</a>
</g>
</g>
<!-- Node3&#45;&gt;Node13 -->
<g id="edge6" class="edge">
<title>Node3&#45;&gt;Node13</title>
<path fill="none" stroke="midnightblue" d="M395.94,-112.44C441.13,-101.83 517.33,-83.95 559.37,-74.07"/>
<polygon fill="midnightblue" stroke="midnightblue" points="560.35,-77.44 569.29,-71.75 558.75,-70.62 560.35,-77.44"/>
</g>
<!-- Node4&#45;&gt;Node8 -->
<g id="edge4" class="edge">
<title>Node4&#45;&gt;Node8</title>
<path fill="none" stroke="midnightblue" d="M305.29,-56.08C309.26,-48.69 315.03,-37.95 319.93,-28.81"/>
<polygon fill="midnightblue" stroke="midnightblue" points="323.15,-30.22 324.8,-19.75 316.99,-26.91 323.15,-30.22"/>
</g>
<!-- Node16&#45;&gt;Node3 -->
<g id="edge9" class="edge">
<title>Node16&#45;&gt;Node3</title>
<path fill="none" stroke="midnightblue" d="M463.78,-235.36C476.97,-220.53 499.77,-189.72 484.5,-168 470.34,-147.86 446.26,-136.69 422.98,-130.51"/>
<polygon fill="midnightblue" stroke="midnightblue" points="423.63,-127.07 413.09,-128.16 422.01,-133.88 423.63,-127.07"/>
</g>
<!-- Node16&#45;&gt;Node13 -->
<g id="edge16" class="edge">
<title>Node16&#45;&gt;Node13</title>
<path fill="none" stroke="midnightblue" d="M509.08,-239.45C562.24,-233.7 638.34,-221.68 656.5,-199 686.47,-161.57 637.17,-108.58 608.22,-82.6"/>
<polygon fill="midnightblue" stroke="midnightblue" points="610.18,-79.66 600.34,-75.73 605.58,-84.94 610.18,-79.66"/>
</g>
<!-- Node17 -->
<g id="node9" class="node">
<title>Node17</title>
<g id="a_node9"><a xlink:href="fw_2drv_2callbacks_8hpp.html" target="_top" xlink:title=" ">
<polygon fill="white" stroke="black" points="531.5,-174 531.5,-193 647.5,-193 647.5,-174 531.5,-174"/>
<text text-anchor="middle" x="589.5" y="-181" font-family="Helvetica,sans-Serif" font-size="10.00">fw/drv/callbacks.hpp</text>
</a>
</g>
</g>
<!-- Node16&#45;&gt;Node17 -->
<g id="edge10" class="edge">
<title>Node16&#45;&gt;Node17</title>
<path fill="none" stroke="midnightblue" d="M474.7,-235.48C497.29,-225.45 535,-208.7 561,-197.15"/>
<polygon fill="midnightblue" stroke="midnightblue" points="562.62,-200.27 570.34,-193.01 559.78,-193.87 562.62,-200.27"/>
</g>
<!-- Node18 -->
<g id="node10" class="node">
<title>Node18</title>
<g id="a_node10"><a xlink:href="platform_8hpp.html" target="_top" xlink:title=" ">
<polygon fill="white" stroke="red" points="243.5,-174 243.5,-193 323.5,-193 323.5,-174 243.5,-174"/>
<text text-anchor="middle" x="283.5" y="-181" font-family="Helvetica,sans-Serif" font-size="10.00">platform.hpp</text>
</a>
</g>
</g>
<!-- Node16&#45;&gt;Node18 -->
<g id="edge14" class="edge">
<title>Node16&#45;&gt;Node18</title>
<path fill="none" stroke="midnightblue" d="M430.86,-235.48C401.22,-225.22 351.32,-207.96 317.9,-196.4"/>
<polygon fill="midnightblue" stroke="midnightblue" points="318.69,-192.97 308.1,-193.01 316.4,-199.59 318.69,-192.97"/>
</g>
<!-- Node20 -->
<g id="node11" class="node">
<title>Node20</title>
<g id="a_node11"><a xlink:title=" ">
<polygon fill="white" stroke="#bfbfbf" points="342,-168.5 342,-198.5 475,-198.5 475,-168.5 342,-168.5"/>
<text text-anchor="start" x="350" y="-186.5" font-family="Helvetica,sans-Serif" font-size="10.00">emlabcpp/experimental</text>
<text text-anchor="middle" x="408.5" y="-175.5" font-family="Helvetica,sans-Serif" font-size="10.00">/function_view.h</text>
</a>
</g>
</g>
<!-- Node16&#45;&gt;Node20 -->
<g id="edge15" class="edge">
<title>Node16&#45;&gt;Node20</title>
<path fill="none" stroke="midnightblue" d="M448.77,-235.48C442.82,-227.94 433.88,-216.63 425.93,-206.57"/>
<polygon fill="midnightblue" stroke="midnightblue" points="428.52,-204.2 419.58,-198.52 423.03,-208.54 428.52,-204.2"/>
</g>
<!-- Node17&#45;&gt;Node3 -->
<g id="edge11" class="edge">
<title>Node17&#45;&gt;Node3</title>
<path fill="none" stroke="midnightblue" d="M556.55,-173.98C515.9,-163.46 446.71,-145.56 402.08,-134.01"/>
<polygon fill="midnightblue" stroke="midnightblue" points="402.95,-130.63 392.39,-131.51 401.2,-137.4 402.95,-130.63"/>
</g>
<!-- Node17&#45;&gt;Node8 -->
<g id="edge12" class="edge">
<title>Node17&#45;&gt;Node8</title>
<path fill="none" stroke="midnightblue" d="M576.61,-174C534.85,-146.45 403.01,-59.49 350.95,-25.15"/>
<polygon fill="midnightblue" stroke="midnightblue" points="352.75,-22.14 342.47,-19.56 348.89,-27.98 352.75,-22.14"/>
</g>
<!-- Node17&#45;&gt;Node13 -->
<g id="edge13" class="edge">
<title>Node17&#45;&gt;Node13</title>
<path fill="none" stroke="midnightblue" d="M589.5,-173.82C589.5,-155.26 589.5,-111.34 589.5,-85.97"/>
<polygon fill="midnightblue" stroke="midnightblue" points="593,-85.78 589.5,-75.78 586,-85.78 593,-85.78"/>
</g>
<!-- Node21&#45;&gt;Node3 -->
<g id="edge19" class="edge">
<title>Node21&#45;&gt;Node3</title>
<path fill="none" stroke="midnightblue" d="M227.31,-235.45C223.95,-220.21 219.39,-188.07 234.5,-168 249.19,-148.49 273.11,-137.42 296.11,-131.15"/>
<polygon fill="midnightblue" stroke="midnightblue" points="297.01,-134.53 305.88,-128.74 295.34,-127.74 297.01,-134.53"/>
</g>
<!-- Node21&#45;&gt;Node4 -->
<g id="edge18" class="edge">
<title>Node21&#45;&gt;Node4</title>
<path fill="none" stroke="midnightblue" d="M225.82,-235.3C220.29,-220.89 211.29,-191.35 219.5,-168 231.95,-132.59 262.62,-100.4 282.45,-82.3"/>
<polygon fill="midnightblue" stroke="midnightblue" points="284.79,-84.9 289.95,-75.64 280.14,-79.66 284.79,-84.9"/>
</g>
<!-- Node21&#45;&gt;Node8 -->
<g id="edge21" class="edge">
<title>Node21&#45;&gt;Node8</title>
<path fill="none" stroke="midnightblue" d="M224.88,-235.34C220.44,-226.49 214.05,-212.22 211.5,-199 208.89,-185.47 208.83,-181.52 211.5,-168 222.05,-114.52 225.65,-97.06 261.5,-56 272.85,-43 288.8,-32.18 302.41,-24.41"/>
<polygon fill="midnightblue" stroke="midnightblue" points="304.26,-27.39 311.36,-19.53 300.91,-21.24 304.26,-27.39"/>
</g>
<!-- Node21&#45;&gt;Node18 -->
<g id="edge20" class="edge">
<title>Node21&#45;&gt;Node18</title>
<path fill="none" stroke="midnightblue" d="M237.24,-235.48C245.5,-226.37 258.78,-211.74 268.99,-200.48"/>
<polygon fill="midnightblue" stroke="midnightblue" points="271.65,-202.77 275.78,-193.01 266.47,-198.06 271.65,-202.77"/>
</g>
<!-- Node21&#45;&gt;Node20 -->
<g id="edge22" class="edge">
<title>Node21&#45;&gt;Node20</title>
<path fill="none" stroke="midnightblue" d="M255.15,-235.48C281.54,-226.7 323.4,-212.79 356.72,-201.71"/>
<polygon fill="midnightblue" stroke="midnightblue" points="357.93,-205 366.31,-198.52 355.72,-198.36 357.93,-205"/>
</g>
</g>
</svg>
