<?xml version="1.0" encoding="UTF-8" standalone="no"?>
<!DOCTYPE svg PUBLIC "-//W3C//DTD SVG 1.1//EN"
 "http://www.w3.org/Graphics/SVG/1.1/DTD/svg11.dtd">
<!-- Generated by graphviz version 2.43.0 (0)
 -->
<!-- Title: src/brd/proto3/board.cpp Pages: 1 -->
<svg width="2089pt" height="453pt"
 viewBox="0.00 0.00 2088.50 453.00" xmlns="http://www.w3.org/2000/svg" xmlns:xlink="http://www.w3.org/1999/xlink">
<g id="graph0" class="graph" transform="scale(1 1) rotate(0) translate(4 449)">
<title>src/brd/proto3/board.cpp</title>
<polygon fill="white" stroke="transparent" points="-4,4 -4,-449 2084.5,-449 2084.5,4 -4,4"/>
<!-- Node1 -->
<g id="node1" class="node">
<title>Node1</title>
<g id="a_node1"><a xlink:title=" ">
<polygon fill="#bfbfbf" stroke="black" points="856,-425.5 856,-444.5 991,-444.5 991,-425.5 856,-425.5"/>
<text text-anchor="middle" x="923.5" y="-432.5" font-family="Helvetica,sans-Serif" font-size="10.00">src/brd/proto3/board.cpp</text>
</a>
</g>
</g>
<!-- Node2 -->
<g id="node2" class="node">
<title>Node2</title>
<g id="a_node2"><a xlink:href="brd_8hpp.html" target="_top" xlink:title=" ">
<polygon fill="white" stroke="black" points="863.5,-364 863.5,-383 925.5,-383 925.5,-364 863.5,-364"/>
<text text-anchor="middle" x="894.5" y="-371" font-family="Helvetica,sans-Serif" font-size="10.00">../brd.hpp</text>
</a>
</g>
</g>
<!-- Node1&#45;&gt;Node2 -->
<g id="edge1" class="edge">
<title>Node1&#45;&gt;Node2</title>
<path fill="none" stroke="midnightblue" d="M919.35,-425.48C915.12,-416.82 908.46,-403.15 903.1,-392.15"/>
<polygon fill="midnightblue" stroke="midnightblue" points="906.17,-390.46 898.65,-383.01 899.88,-393.53 906.17,-390.46"/>
</g>
<!-- Node16 -->
<g id="node7" class="node">
<title>Node16</title>
<g id="a_node7"><a xlink:href="drivers_8hpp.html" target="_top" xlink:title=" ">
<polygon fill="white" stroke="black" points="947,-302.5 947,-321.5 1042,-321.5 1042,-302.5 947,-302.5"/>
<text text-anchor="middle" x="994.5" y="-309.5" font-family="Helvetica,sans-Serif" font-size="10.00">core/drivers.hpp</text>
</a>
</g>
</g>
<!-- Node1&#45;&gt;Node16 -->
<g id="edge19" class="edge">
<title>Node1&#45;&gt;Node16</title>
<path fill="none" stroke="midnightblue" d="M934.27,-425.39C944.11,-417.01 958.48,-403.46 967.5,-389 978.82,-370.85 986.24,-347.3 990.39,-331.26"/>
<polygon fill="midnightblue" stroke="midnightblue" points="993.8,-332.05 992.75,-321.51 987,-330.41 993.8,-332.05"/>
</g>
<!-- Node19 -->
<g id="node9" class="node">
<title>Node19</title>
<g id="a_node9"><a xlink:title=" ">
<polygon fill="white" stroke="#bfbfbf" points="581.5,-112.5 581.5,-131.5 685.5,-131.5 685.5,-112.5 581.5,-112.5"/>
<text text-anchor="middle" x="633.5" y="-119.5" font-family="Helvetica,sans-Serif" font-size="10.00">emlabcpp/result.h</text>
</a>
</g>
</g>
<!-- Node1&#45;&gt;Node19 -->
<g id="edge91" class="edge">
<title>Node1&#45;&gt;Node19</title>
<path fill="none" stroke="midnightblue" d="M855.77,-432.06C703.19,-427.29 341.98,-413.52 292.5,-389 256.95,-371.39 247.51,-359.12 233.5,-322 210.96,-262.31 338.2,-256.05 465.5,-199 514.82,-176.9 572.16,-150.89 605.49,-135.75"/>
<polygon fill="midnightblue" stroke="midnightblue" points="606.97,-138.92 614.62,-131.59 604.07,-132.54 606.97,-138.92"/>
</g>
<!-- Node22 -->
<g id="node12" class="node">
<title>Node22</title>
<g id="a_node12"><a xlink:href="default_8hpp.html" target="_top" xlink:title=" ">
<polygon fill="white" stroke="black" points="366.5,-174 366.5,-193 456.5,-193 456.5,-174 366.5,-174"/>
<text text-anchor="middle" x="411.5" y="-181" font-family="Helvetica,sans-Serif" font-size="10.00">cfg/default.hpp</text>
</a>
</g>
</g>
<!-- Node1&#45;&gt;Node22 -->
<g id="edge15" class="edge">
<title>Node1&#45;&gt;Node22</title>
<path fill="none" stroke="midnightblue" d="M855.99,-432.27C680.64,-427.46 222.76,-412.69 200.5,-389 174.02,-360.82 180.91,-335.34 200.5,-302 235.55,-242.36 313.08,-210.78 363.76,-195.88"/>
<polygon fill="midnightblue" stroke="midnightblue" points="364.85,-199.21 373.52,-193.11 362.94,-192.47 364.85,-199.21"/>
</g>
<!-- Node23 -->
<g id="node13" class="node">
<title>Node23</title>
<g id="a_node13"><a xlink:href="cnv_2setup_8hpp.html" target="_top" xlink:title=" ">
<polygon fill="white" stroke="black" points="322,-364 322,-383 407,-383 407,-364 322,-364"/>
<text text-anchor="middle" x="364.5" y="-371" font-family="Helvetica,sans-Serif" font-size="10.00">cnv/setup.hpp</text>
</a>
</g>
</g>
<!-- Node1&#45;&gt;Node23 -->
<g id="edge18" class="edge">
<title>Node1&#45;&gt;Node23</title>
<path fill="none" stroke="midnightblue" d="M855.72,-431.93C757.99,-428.06 572.11,-417.35 416.5,-389 411.63,-388.11 406.55,-386.97 401.56,-385.72"/>
<polygon fill="midnightblue" stroke="midnightblue" points="402.1,-382.25 391.54,-383.05 400.3,-389.01 402.1,-382.25"/>
</g>
<!-- Node24 -->
<g id="node14" class="node">
<title>Node24</title>
<g id="a_node14"><a xlink:href="globals_8hpp.html" target="_top" xlink:title=" ">
<polygon fill="white" stroke="black" points="39,-364 39,-383 136,-383 136,-364 39,-364"/>
<text text-anchor="middle" x="87.5" y="-371" font-family="Helvetica,sans-Serif" font-size="10.00">core/globals.hpp</text>
</a>
</g>
</g>
<!-- Node1&#45;&gt;Node24 -->
<g id="edge20" class="edge">
<title>Node1&#45;&gt;Node24</title>
<path fill="none" stroke="midnightblue" d="M855.78,-432.99C722.53,-430.34 417.09,-421 162.5,-389 153.99,-387.93 144.99,-386.48 136.29,-384.9"/>
<polygon fill="midnightblue" stroke="midnightblue" points="136.75,-381.42 126.27,-383.01 135.45,-388.3 136.75,-381.42"/>
</g>
<!-- Node26 -->
<g id="node16" class="node">
<title>Node26</title>
<g id="a_node16"><a xlink:href="adc__pooler__def_8hpp.html" target="_top" xlink:title=" ">
<polygon fill="white" stroke="black" points="1278.5,-364 1278.5,-383 1408.5,-383 1408.5,-364 1278.5,-364"/>
<text text-anchor="middle" x="1343.5" y="-371" font-family="Helvetica,sans-Serif" font-size="10.00">drv/adc_pooler_def.hpp</text>
</a>
</g>
</g>
<!-- Node1&#45;&gt;Node26 -->
<g id="edge22" class="edge">
<title>Node1&#45;&gt;Node26</title>
<path fill="none" stroke="midnightblue" d="M991.26,-426.08C1060.17,-417.78 1169.97,-403.9 1264.5,-389 1272.53,-387.73 1281,-386.29 1289.29,-384.82"/>
<polygon fill="midnightblue" stroke="midnightblue" points="1290.06,-388.24 1299.28,-383.02 1288.82,-381.35 1290.06,-388.24"/>
</g>
<!-- Node29 -->
<g id="node19" class="node">
<title>Node29</title>
<g id="a_node19"><a xlink:href="platform_8hpp.html" target="_top" xlink:title=" ">
<polygon fill="white" stroke="red" points="1158.5,-241 1158.5,-260 1238.5,-260 1238.5,-241 1158.5,-241"/>
<text text-anchor="middle" x="1198.5" y="-248" font-family="Helvetica,sans-Serif" font-size="10.00">platform.hpp</text>
</a>
</g>
</g>
<!-- Node1&#45;&gt;Node29 -->
<g id="edge82" class="edge">
<title>Node1&#45;&gt;Node29</title>
<path fill="none" stroke="midnightblue" d="M991.15,-426.09C1054.73,-414.74 1146.9,-387.4 1193.5,-322 1204.16,-307.04 1204.06,-285.48 1202.14,-270.14"/>
<polygon fill="midnightblue" stroke="midnightblue" points="1205.6,-269.58 1200.55,-260.26 1198.69,-270.69 1205.6,-269.58"/>
</g>
<!-- Node37 -->
<g id="node22" class="node">
<title>Node37</title>
<g id="a_node22"><a xlink:href="clock_8hpp.html" target="_top" xlink:title=" ">
<polygon fill="white" stroke="black" points="1412.5,-302.5 1412.5,-321.5 1494.5,-321.5 1494.5,-302.5 1412.5,-302.5"/>
<text text-anchor="middle" x="1453.5" y="-309.5" font-family="Helvetica,sans-Serif" font-size="10.00">drv/clock.hpp</text>
</a>
</g>
</g>
<!-- Node1&#45;&gt;Node37 -->
<g id="edge32" class="edge">
<title>Node1&#45;&gt;Node37</title>
<path fill="none" stroke="midnightblue" d="M991.35,-431.53C1118.59,-426.36 1383.34,-412.85 1417.5,-389 1436.53,-375.71 1445.81,-349.61 1450.11,-331.74"/>
<polygon fill="midnightblue" stroke="midnightblue" points="1453.55,-332.37 1452.18,-321.87 1446.7,-330.93 1453.55,-332.37"/>
</g>
<!-- Node38 -->
<g id="node23" class="node">
<title>Node38</title>
<g id="a_node23"><a xlink:href="cobs__uart_8hpp.html" target="_top" xlink:title=" ">
<polygon fill="white" stroke="black" points="786.5,-302.5 786.5,-321.5 890.5,-321.5 890.5,-302.5 786.5,-302.5"/>
<text text-anchor="middle" x="838.5" y="-309.5" font-family="Helvetica,sans-Serif" font-size="10.00">drv/cobs_uart.hpp</text>
</a>
</g>
</g>
<!-- Node1&#45;&gt;Node38 -->
<g id="edge37" class="edge">
<title>Node1&#45;&gt;Node38</title>
<path fill="none" stroke="midnightblue" d="M928.26,-425.24C935.71,-410.22 947.95,-379.15 934.5,-358 924.34,-342.01 906.82,-331.6 889.52,-324.87"/>
<polygon fill="midnightblue" stroke="midnightblue" points="890.57,-321.53 879.97,-321.5 888.23,-328.13 890.57,-321.53"/>
</g>
<!-- Node42 -->
<g id="node26" class="node">
<title>Node42</title>
<g id="a_node26"><a xlink:href="dts__temp_8hpp.html" target="_top" xlink:title=" ">
<polygon fill="white" stroke="black" points="743.5,-364 743.5,-383 845.5,-383 845.5,-364 743.5,-364"/>
<text text-anchor="middle" x="794.5" y="-371" font-family="Helvetica,sans-Serif" font-size="10.00">drv/dts_temp.hpp</text>
</a>
</g>
</g>
<!-- Node1&#45;&gt;Node42 -->
<g id="edge47" class="edge">
<title>Node1&#45;&gt;Node42</title>
<path fill="none" stroke="midnightblue" d="M905.02,-425.48C883.37,-415.49 847.29,-398.85 822.27,-387.31"/>
<polygon fill="midnightblue" stroke="midnightblue" points="823.49,-384.02 812.95,-383.01 820.56,-390.38 823.49,-384.02"/>
</g>
<!-- Node43 -->
<g id="node27" class="node">
<title>Node43</title>
<g id="a_node27"><a xlink:href="util_8hpp.html" target="_top" xlink:title=" ">
<polygon fill="white" stroke="red" points="662.5,-302.5 662.5,-321.5 730.5,-321.5 730.5,-302.5 662.5,-302.5"/>
<text text-anchor="middle" x="696.5" y="-309.5" font-family="Helvetica,sans-Serif" font-size="10.00">fw/util.hpp</text>
</a>
</g>
</g>
<!-- Node1&#45;&gt;Node43 -->
<g id="edge81" class="edge">
<title>Node1&#45;&gt;Node43</title>
<path fill="none" stroke="midnightblue" d="M855.73,-431.78C816.69,-427.34 768.73,-416.14 734.5,-389 716.3,-374.56 706.11,-349.12 700.96,-331.68"/>
<polygon fill="midnightblue" stroke="midnightblue" points="704.23,-330.34 698.28,-321.58 697.46,-332.14 704.23,-330.34"/>
</g>
<!-- Node47 -->
<g id="node28" class="node">
<title>Node47</title>
<g id="a_node28"><a xlink:href="flash__cfg_8hpp.html" target="_top" xlink:title=" ">
<polygon fill="white" stroke="black" points="425.5,-364 425.5,-383 525.5,-383 525.5,-364 425.5,-364"/>
<text text-anchor="middle" x="475.5" y="-371" font-family="Helvetica,sans-Serif" font-size="10.00">drv/flash_cfg.hpp</text>
</a>
</g>
</g>
<!-- Node1&#45;&gt;Node47 -->
<g id="edge51" class="edge">
<title>Node1&#45;&gt;Node47</title>
<path fill="none" stroke="midnightblue" d="M855.83,-425.75C785.1,-417.03 670.93,-402.66 572.5,-389 560.64,-387.35 547.98,-385.52 535.85,-383.72"/>
<polygon fill="midnightblue" stroke="midnightblue" points="536.22,-380.24 525.82,-382.23 535.19,-387.16 536.22,-380.24"/>
</g>
<!-- Node49 -->
<g id="node30" class="node">
<title>Node49</title>
<g id="a_node30"><a xlink:title=" ">
<polygon fill="white" stroke="#bfbfbf" points="243,-302.5 243,-321.5 344,-321.5 344,-302.5 243,-302.5"/>
<text text-anchor="middle" x="293.5" y="-309.5" font-family="Helvetica,sans-Serif" font-size="10.00">emlabcpp/defer.h</text>
</a>
</g>
</g>
<!-- Node1&#45;&gt;Node49 -->
<g id="edge90" class="edge">
<title>Node1&#45;&gt;Node49</title>
<path fill="none" stroke="midnightblue" d="M855.83,-433.42C705.42,-431.5 353.31,-423.35 312.5,-389 296.11,-375.21 292.7,-349.62 292.5,-331.97"/>
<polygon fill="midnightblue" stroke="midnightblue" points="296,-331.8 292.72,-321.72 289,-331.64 296,-331.8"/>
</g>
<!-- Node50 -->
<g id="node31" class="node">
<title>Node50</title>
<g id="a_node31"><a xlink:href="hbridge_8hpp.html" target="_top" xlink:title=" ">
<polygon fill="white" stroke="black" points="1717,-302.5 1717,-321.5 1810,-321.5 1810,-302.5 1717,-302.5"/>
<text text-anchor="middle" x="1763.5" y="-309.5" font-family="Helvetica,sans-Serif" font-size="10.00">drv/hbridge.hpp</text>
</a>
</g>
</g>
<!-- Node1&#45;&gt;Node50 -->
<g id="edge59" class="edge">
<title>Node1&#45;&gt;Node50</title>
<path fill="none" stroke="midnightblue" d="M991.18,-434.28C1133.99,-434.06 1461.5,-429.05 1564.5,-389 1585.14,-380.98 1583.79,-368.08 1603.5,-358 1635.95,-341.4 1675.34,-330.22 1706.91,-323.16"/>
<polygon fill="midnightblue" stroke="midnightblue" points="1707.83,-326.54 1716.87,-321.01 1706.36,-319.7 1707.83,-326.54"/>
</g>
<!-- Node51 -->
<g id="node32" class="node">
<title>Node51</title>
<g id="a_node32"><a xlink:href="leds_8hpp.html" target="_top" xlink:title=" ">
<polygon fill="white" stroke="black" points="1478,-364 1478,-383 1555,-383 1555,-364 1478,-364"/>
<text text-anchor="middle" x="1516.5" y="-371" font-family="Helvetica,sans-Serif" font-size="10.00">drv/leds.hpp</text>
</a>
</g>
</g>
<!-- Node1&#45;&gt;Node51 -->
<g id="edge66" class="edge">
<title>Node1&#45;&gt;Node51</title>
<path fill="none" stroke="midnightblue" d="M991.07,-431.8C1092.99,-427.71 1291.84,-416.66 1458.5,-389 1464.34,-388.03 1470.45,-386.77 1476.43,-385.41"/>
<polygon fill="midnightblue" stroke="midnightblue" points="1477.39,-388.78 1486.29,-383.03 1475.75,-381.97 1477.39,-388.78"/>
</g>
<!-- Node54 -->
<g id="node34" class="node">
<title>Node54</title>
<g id="a_node34"><a xlink:href="quad__encoder_8hpp.html" target="_top" xlink:title=" ">
<polygon fill="white" stroke="black" points="1060.5,-302.5 1060.5,-321.5 1184.5,-321.5 1184.5,-302.5 1060.5,-302.5"/>
<text text-anchor="middle" x="1122.5" y="-309.5" font-family="Helvetica,sans-Serif" font-size="10.00">drv/quad_encoder.hpp</text>
</a>
</g>
</g>
<!-- Node1&#45;&gt;Node54 -->
<g id="edge74" class="edge">
<title>Node1&#45;&gt;Node54</title>
<path fill="none" stroke="midnightblue" d="M937.49,-425.49C971.38,-404.89 1058.11,-352.15 1099.65,-326.89"/>
<polygon fill="midnightblue" stroke="midnightblue" points="1101.53,-329.85 1108.26,-321.66 1097.89,-323.87 1101.53,-329.85"/>
</g>
<!-- Node55 -->
<g id="node35" class="node">
<title>Node55</title>
<g id="a_node35"><a xlink:href="load__persistent__config_8hpp.html" target="_top" xlink:title=" ">
<polygon fill="white" stroke="black" points="581.5,-358.5 581.5,-388.5 687.5,-388.5 687.5,-358.5 581.5,-358.5"/>
<text text-anchor="start" x="589.5" y="-376.5" font-family="Helvetica,sans-Serif" font-size="10.00">fw/load_persistent</text>
<text text-anchor="middle" x="634.5" y="-365.5" font-family="Helvetica,sans-Serif" font-size="10.00">_config.hpp</text>
</a>
</g>
</g>
<!-- Node1&#45;&gt;Node55 -->
<g id="edge77" class="edge">
<title>Node1&#45;&gt;Node55</title>
<path fill="none" stroke="midnightblue" d="M880.49,-425.46C835.74,-416.53 763.66,-402.03 701.5,-389 700.22,-388.73 698.93,-388.46 697.63,-388.19"/>
<polygon fill="midnightblue" stroke="midnightblue" points="698.03,-384.69 687.52,-386.04 696.57,-391.54 698.03,-384.69"/>
</g>
<!-- Node56 -->
<g id="node36" class="node">
<title>Node56</title>
<g id="a_node36"><a xlink:title=" ">
<polygon fill="white" stroke="#bfbfbf" points="1612,-364 1612,-383 1677,-383 1677,-364 1612,-364"/>
<text text-anchor="middle" x="1644.5" y="-371" font-family="Helvetica,sans-Serif" font-size="10.00">setup.hpp</text>
</a>
</g>
</g>
<!-- Node1&#45;&gt;Node56 -->
<g id="edge83" class="edge">
<title>Node1&#45;&gt;Node56</title>
<path fill="none" stroke="midnightblue" d="M991.11,-434.65C1113.26,-434.69 1378.4,-429.54 1597.5,-389 1601.75,-388.21 1606.16,-387.17 1610.49,-386"/>
<polygon fill="midnightblue" stroke="midnightblue" points="1611.76,-389.28 1620.38,-383.12 1609.79,-382.56 1611.76,-389.28"/>
</g>
<!-- Node57 -->
<g id="node37" class="node">
<title>Node57</title>
<g id="a_node37"><a xlink:href="central__sentry_8hpp.html" target="_top" xlink:title=" ">
<polygon fill="white" stroke="black" points="1828.5,-302.5 1828.5,-321.5 1956.5,-321.5 1956.5,-302.5 1828.5,-302.5"/>
<text text-anchor="middle" x="1892.5" y="-309.5" font-family="Helvetica,sans-Serif" font-size="10.00">sntr/central_sentry.hpp</text>
</a>
</g>
</g>
<!-- Node1&#45;&gt;Node57 -->
<g id="edge84" class="edge">
<title>Node1&#45;&gt;Node57</title>
<path fill="none" stroke="midnightblue" d="M991.12,-432.56C1152.14,-428.71 1554.67,-416.57 1686.5,-389 1752.95,-375.1 1826.64,-343.76 1865.34,-325.97"/>
<polygon fill="midnightblue" stroke="midnightblue" points="1867.25,-328.94 1874.84,-321.55 1864.3,-322.59 1867.25,-328.94"/>
</g>
<!-- Node3 -->
<g id="node3" class="node">
<title>Node3</title>
<g id="a_node3"><a xlink:href="map_8hpp.html" target="_top" xlink:title=" ">
<polygon fill="white" stroke="red" points="486,-112.5 486,-131.5 563,-131.5 563,-112.5 486,-112.5"/>
<text text-anchor="middle" x="524.5" y="-119.5" font-family="Helvetica,sans-Serif" font-size="10.00">cfg/map.hpp</text>
</a>
</g>
</g>
<!-- Node2&#45;&gt;Node3 -->
<g id="edge2" class="edge">
<title>Node2&#45;&gt;Node3</title>
<path fill="none" stroke="midnightblue" d="M874.03,-363.99C867.85,-361.72 860.98,-359.49 854.5,-358 778.5,-340.58 557.73,-379.89 505.5,-322 459.39,-270.89 496.14,-179.51 515.03,-140.95"/>
<polygon fill="midnightblue" stroke="midnightblue" points="518.39,-142.06 519.8,-131.55 512.15,-138.89 518.39,-142.06"/>
</g>
<!-- Node2&#45;&gt;Node16 -->
<g id="edge7" class="edge">
<title>Node2&#45;&gt;Node16</title>
<path fill="none" stroke="midnightblue" d="M908.83,-363.98C925.16,-354.25 952.1,-338.23 971.41,-326.74"/>
<polygon fill="midnightblue" stroke="midnightblue" points="973.39,-329.63 980.2,-321.51 969.82,-323.61 973.39,-329.63"/>
</g>
<!-- Node4 -->
<g id="node4" class="node">
<title>Node4</title>
<g id="a_node4"><a xlink:href="base_2base_8hpp.html" target="_top" xlink:title=" ">
<polygon fill="white" stroke="red" points="1020.5,-56.5 1020.5,-75.5 1116.5,-75.5 1116.5,-56.5 1020.5,-56.5"/>
<text text-anchor="middle" x="1068.5" y="-63.5" font-family="Helvetica,sans-Serif" font-size="10.00">../base/base.hpp</text>
</a>
</g>
</g>
<!-- Node3&#45;&gt;Node4 -->
<g id="edge3" class="edge">
<title>Node3&#45;&gt;Node4</title>
<path fill="none" stroke="midnightblue" d="M563.22,-113.41C566.35,-112.9 569.48,-112.42 572.5,-112 730.17,-90.12 917.58,-76.44 1010.41,-70.48"/>
<polygon fill="midnightblue" stroke="midnightblue" points="1010.69,-73.97 1020.45,-69.84 1010.24,-66.98 1010.69,-73.97"/>
</g>
<!-- Node10 -->
<g id="node6" class="node">
<title>Node10</title>
<g id="a_node6"><a xlink:href="key_8hpp.html" target="_top" xlink:title=" ">
<polygon fill="white" stroke="black" points="495,-56.5 495,-75.5 554,-75.5 554,-56.5 495,-56.5"/>
<text text-anchor="middle" x="524.5" y="-63.5" font-family="Helvetica,sans-Serif" font-size="10.00">./key.hpp</text>
</a>
</g>
</g>
<!-- Node3&#45;&gt;Node10 -->
<g id="edge5" class="edge">
<title>Node3&#45;&gt;Node10</title>
<path fill="none" stroke="midnightblue" d="M524.5,-112.08C524.5,-105.01 524.5,-94.86 524.5,-85.99"/>
<polygon fill="midnightblue" stroke="midnightblue" points="528,-85.75 524.5,-75.75 521,-85.75 528,-85.75"/>
</g>
<!-- Node6 -->
<g id="node5" class="node">
<title>Node6</title>
<g id="a_node5"><a xlink:title=" ">
<polygon fill="white" stroke="#bfbfbf" points="982.5,-0.5 982.5,-19.5 1032.5,-19.5 1032.5,-0.5 982.5,-0.5"/>
<text text-anchor="middle" x="1007.5" y="-7.5" font-family="Helvetica,sans-Serif" font-size="10.00">cstdint</text>
</a>
</g>
</g>
<!-- Node4&#45;&gt;Node6 -->
<g id="edge4" class="edge">
<title>Node4&#45;&gt;Node6</title>
<path fill="none" stroke="midnightblue" d="M1058.7,-56.32C1049.68,-48.34 1036.09,-36.31 1025.18,-26.65"/>
<polygon fill="midnightblue" stroke="midnightblue" points="1027.29,-23.84 1017.48,-19.83 1022.65,-29.08 1027.29,-23.84"/>
</g>
<!-- Node10&#45;&gt;Node6 -->
<g id="edge6" class="edge">
<title>Node10&#45;&gt;Node6</title>
<path fill="none" stroke="midnightblue" d="M554.35,-61.66C639.12,-52.18 881.09,-25.13 972.21,-14.95"/>
<polygon fill="midnightblue" stroke="midnightblue" points="972.76,-18.41 982.31,-13.82 971.98,-11.45 972.76,-18.41"/>
</g>
<!-- Node17 -->
<g id="node8" class="node">
<title>Node17</title>
<g id="a_node8"><a xlink:href="interfaces_8hpp.html" target="_top" xlink:title=" ">
<polygon fill="white" stroke="red" points="1035.5,-174 1035.5,-193 1149.5,-193 1149.5,-174 1035.5,-174"/>
<text text-anchor="middle" x="1092.5" y="-181" font-family="Helvetica,sans-Serif" font-size="10.00">../drv/interfaces.hpp</text>
</a>
</g>
</g>
<!-- Node16&#45;&gt;Node17 -->
<g id="edge8" class="edge">
<title>Node16&#45;&gt;Node17</title>
<path fill="none" stroke="midnightblue" d="M1001.24,-302.31C1017.32,-281.54 1058.2,-228.77 1079.36,-201.46"/>
<polygon fill="midnightblue" stroke="midnightblue" points="1082.36,-203.3 1085.72,-193.26 1076.83,-199.02 1082.36,-203.3"/>
</g>
<!-- Node21 -->
<g id="node11" class="node">
<title>Node21</title>
<g id="a_node11"><a xlink:title=" ">
<polygon fill="white" stroke="#bfbfbf" points="1257,-235.5 1257,-265.5 1390,-265.5 1390,-235.5 1257,-235.5"/>
<text text-anchor="start" x="1265" y="-253.5" font-family="Helvetica,sans-Serif" font-size="10.00">emlabcpp/experimental</text>
<text text-anchor="middle" x="1323.5" y="-242.5" font-family="Helvetica,sans-Serif" font-size="10.00">/function_view.h</text>
</a>
</g>
</g>
<!-- Node16&#45;&gt;Node21 -->
<g id="edge14" class="edge">
<title>Node16&#45;&gt;Node21</title>
<path fill="none" stroke="midnightblue" d="M1042.09,-302.72C1090.88,-294.19 1169.23,-280.37 1246.83,-266.11"/>
<polygon fill="midnightblue" stroke="midnightblue" points="1247.58,-269.53 1256.78,-264.28 1246.31,-262.65 1247.58,-269.53"/>
</g>
<!-- Node17&#45;&gt;Node3 -->
<g id="edge10" class="edge">
<title>Node17&#45;&gt;Node3</title>
<path fill="none" stroke="midnightblue" d="M1035.36,-178.61C941.25,-171.85 747.54,-156.39 573.35,-132"/>
<polygon fill="midnightblue" stroke="midnightblue" points="573.62,-128.5 563.22,-130.57 572.64,-135.43 573.62,-128.5"/>
</g>
<!-- Node17&#45;&gt;Node4 -->
<g id="edge9" class="edge">
<title>Node17&#45;&gt;Node4</title>
<path fill="none" stroke="midnightblue" d="M1090.7,-173.82C1086.82,-155.17 1077.63,-110.94 1072.37,-85.63"/>
<polygon fill="midnightblue" stroke="midnightblue" points="1075.79,-84.86 1070.32,-75.78 1068.93,-86.28 1075.79,-84.86"/>
</g>
<!-- Node17&#45;&gt;Node6 -->
<g id="edge11" class="edge">
<title>Node17&#45;&gt;Node6</title>
<path fill="none" stroke="midnightblue" d="M1083.04,-173.96C1065.23,-157.22 1027.12,-118.02 1011.5,-76 1006.02,-61.25 1005.31,-43.32 1005.81,-30.03"/>
<polygon fill="midnightblue" stroke="midnightblue" points="1009.33,-29.94 1006.47,-19.74 1002.34,-29.5 1009.33,-29.94"/>
</g>
<!-- Node17&#45;&gt;Node19 -->
<g id="edge12" class="edge">
<title>Node17&#45;&gt;Node19</title>
<path fill="none" stroke="midnightblue" d="M1035.3,-175.08C948.75,-163.87 785.18,-142.66 695.75,-131.07"/>
<polygon fill="midnightblue" stroke="midnightblue" points="696.11,-127.59 685.74,-129.77 695.21,-134.53 696.11,-127.59"/>
</g>
<!-- Node20 -->
<g id="node10" class="node">
<title>Node20</title>
<g id="a_node10"><a xlink:title=" ">
<polygon fill="white" stroke="#bfbfbf" points="1628.5,-112.5 1628.5,-131.5 1668.5,-131.5 1668.5,-112.5 1628.5,-112.5"/>
<text text-anchor="middle" x="1648.5" y="-119.5" font-family="Helvetica,sans-Serif" font-size="10.00">span</text>
</a>
</g>
</g>
<!-- Node17&#45;&gt;Node20 -->
<g id="edge13" class="edge">
<title>Node17&#45;&gt;Node20</title>
<path fill="none" stroke="midnightblue" d="M1149.65,-176.38C1266.55,-163.87 1529.46,-135.74 1618.42,-126.22"/>
<polygon fill="midnightblue" stroke="midnightblue" points="1618.82,-129.7 1628.39,-125.15 1618.07,-122.74 1618.82,-129.7"/>
</g>
<!-- Node22&#45;&gt;Node3 -->
<g id="edge17" class="edge">
<title>Node22&#45;&gt;Node3</title>
<path fill="none" stroke="midnightblue" d="M427.69,-173.98C446.4,-164.12 477.42,-147.79 499.3,-136.27"/>
<polygon fill="midnightblue" stroke="midnightblue" points="501.12,-139.27 508.34,-131.51 497.86,-133.07 501.12,-139.27"/>
</g>
<!-- Node22&#45;&gt;Node10 -->
<g id="edge16" class="edge">
<title>Node22&#45;&gt;Node10</title>
<path fill="none" stroke="midnightblue" d="M419.31,-173.63C431.31,-160.07 455.16,-133.51 476.5,-112 486.45,-101.96 498,-91.11 507.27,-82.58"/>
<polygon fill="midnightblue" stroke="midnightblue" points="509.72,-85.09 514.74,-75.76 505,-79.92 509.72,-85.09"/>
</g>
<!-- Node25 -->
<g id="node15" class="node">
<title>Node25</title>
<g id="a_node15"><a xlink:title=" ">
<polygon fill="white" stroke="#bfbfbf" points="0,-302.5 0,-321.5 149,-321.5 149,-302.5 0,-302.5"/>
<text text-anchor="middle" x="74.5" y="-309.5" font-family="Helvetica,sans-Serif" font-size="10.00">emlabcpp/static_function.h</text>
</a>
</g>
</g>
<!-- Node24&#45;&gt;Node25 -->
<g id="edge21" class="edge">
<title>Node24&#45;&gt;Node25</title>
<path fill="none" stroke="midnightblue" d="M85.64,-363.98C83.78,-355.49 80.88,-342.2 78.5,-331.32"/>
<polygon fill="midnightblue" stroke="midnightblue" points="81.91,-330.53 76.36,-321.51 75.07,-332.03 81.91,-330.53"/>
</g>
<!-- Node26&#45;&gt;Node17 -->
<g id="edge31" class="edge">
<title>Node26&#45;&gt;Node17</title>
<path fill="none" stroke="midnightblue" d="M1320.47,-363.92C1281.84,-348.69 1202.98,-313.98 1149.5,-266 1128.78,-247.41 1111.54,-219.9 1101.63,-202.09"/>
<polygon fill="midnightblue" stroke="midnightblue" points="1104.6,-200.23 1096.78,-193.08 1098.44,-203.55 1104.6,-200.23"/>
</g>
<!-- Node27 -->
<g id="node17" class="node">
<title>Node27</title>
<g id="a_node17"><a xlink:href="adc__pooler_8hpp.html" target="_top" xlink:title=" ">
<polygon fill="white" stroke="black" points="1551,-302.5 1551,-321.5 1660,-321.5 1660,-302.5 1551,-302.5"/>
<text text-anchor="middle" x="1605.5" y="-309.5" font-family="Helvetica,sans-Serif" font-size="10.00">drv/adc_pooler.hpp</text>
</a>
</g>
</g>
<!-- Node26&#45;&gt;Node27 -->
<g id="edge23" class="edge">
<title>Node26&#45;&gt;Node27</title>
<path fill="none" stroke="midnightblue" d="M1381.04,-363.98C1427.73,-353.37 1507.48,-335.26 1558.28,-323.72"/>
<polygon fill="midnightblue" stroke="midnightblue" points="1559.05,-327.14 1568.03,-321.51 1557.5,-320.31 1559.05,-327.14"/>
</g>
<!-- Node28 -->
<g id="node18" class="node">
<title>Node28</title>
<g id="a_node18"><a xlink:href="drv_2callbacks_8hpp.html" target="_top" xlink:title=" ">
<polygon fill="white" stroke="black" points="1522.5,-241 1522.5,-260 1624.5,-260 1624.5,-241 1522.5,-241"/>
<text text-anchor="middle" x="1573.5" y="-248" font-family="Helvetica,sans-Serif" font-size="10.00">drv/callbacks.hpp</text>
</a>
</g>
</g>
<!-- Node27&#45;&gt;Node28 -->
<g id="edge24" class="edge">
<title>Node27&#45;&gt;Node28</title>
<path fill="none" stroke="midnightblue" d="M1600.92,-302.48C1596.26,-293.82 1588.91,-280.15 1582.99,-269.15"/>
<polygon fill="midnightblue" stroke="midnightblue" points="1585.9,-267.16 1578.08,-260.01 1579.73,-270.47 1585.9,-267.16"/>
</g>
<!-- Node27&#45;&gt;Node29 -->
<g id="edge28" class="edge">
<title>Node27&#45;&gt;Node29</title>
<path fill="none" stroke="midnightblue" d="M1550.72,-305.16C1465.45,-295.89 1304.94,-277.66 1248.5,-266 1244.05,-265.08 1239.42,-263.96 1234.85,-262.76"/>
<polygon fill="midnightblue" stroke="midnightblue" points="1235.61,-259.34 1225.03,-260.03 1233.73,-266.08 1235.61,-259.34"/>
</g>
<!-- Node32 -->
<g id="node20" class="node">
<title>Node32</title>
<g id="a_node20"><a xlink:href="sentry_8hpp.html" target="_top" xlink:title=" ">
<polygon fill="white" stroke="red" points="1643,-241 1643,-260 1732,-260 1732,-241 1643,-241"/>
<text text-anchor="middle" x="1687.5" y="-248" font-family="Helvetica,sans-Serif" font-size="10.00">sntr/sentry.hpp</text>
</a>
</g>
</g>
<!-- Node27&#45;&gt;Node32 -->
<g id="edge29" class="edge">
<title>Node27&#45;&gt;Node32</title>
<path fill="none" stroke="midnightblue" d="M1617.25,-302.48C1630.28,-293.02 1651.54,-277.6 1667.26,-266.19"/>
<polygon fill="midnightblue" stroke="midnightblue" points="1669.73,-268.71 1675.77,-260.01 1665.62,-263.05 1669.73,-268.71"/>
</g>
<!-- Node28&#45;&gt;Node6 -->
<g id="edge26" class="edge">
<title>Node28&#45;&gt;Node6</title>
<path fill="none" stroke="midnightblue" d="M1555.56,-240.92C1508.94,-218.72 1379.97,-157.93 1270.5,-112 1206.8,-85.27 1190,-80.75 1125.5,-56 1096.48,-44.86 1063.42,-32.26 1039.69,-23.23"/>
<polygon fill="midnightblue" stroke="midnightblue" points="1040.72,-19.88 1030.13,-19.6 1038.23,-26.42 1040.72,-19.88"/>
</g>
<!-- Node28&#45;&gt;Node17 -->
<g id="edge25" class="edge">
<title>Node28&#45;&gt;Node17</title>
<path fill="none" stroke="midnightblue" d="M1538.2,-240.96C1528.61,-238.82 1518.19,-236.66 1508.5,-235 1386.15,-213.98 1242.09,-198.55 1159.61,-190.59"/>
<polygon fill="midnightblue" stroke="midnightblue" points="1159.91,-187.1 1149.62,-189.63 1159.24,-194.07 1159.91,-187.1"/>
</g>
<!-- Node28&#45;&gt;Node20 -->
<g id="edge27" class="edge">
<title>Node28&#45;&gt;Node20</title>
<path fill="none" stroke="midnightblue" d="M1578.66,-240.81C1590.86,-220.22 1621.71,-168.19 1638.02,-140.68"/>
<polygon fill="midnightblue" stroke="midnightblue" points="1641.22,-142.14 1643.31,-131.76 1635.2,-138.57 1641.22,-142.14"/>
</g>
<!-- Node36 -->
<g id="node21" class="node">
<title>Node36</title>
<g id="a_node21"><a xlink:href="central__sentry__iface_8hpp.html" target="_top" xlink:title=" ">
<polygon fill="white" stroke="red" points="1703,-174 1703,-193 1846,-193 1846,-174 1703,-174"/>
<text text-anchor="middle" x="1774.5" y="-181" font-family="Helvetica,sans-Serif" font-size="10.00">./central_sentry_iface.hpp</text>
</a>
</g>
</g>
<!-- Node32&#45;&gt;Node36 -->
<g id="edge30" class="edge">
<title>Node32&#45;&gt;Node36</title>
<path fill="none" stroke="midnightblue" d="M1699.23,-240.73C1713.45,-230.11 1737.63,-212.05 1754.74,-199.26"/>
<polygon fill="midnightblue" stroke="midnightblue" points="1757.04,-201.92 1762.95,-193.13 1752.85,-196.31 1757.04,-201.92"/>
</g>
<!-- Node37&#45;&gt;Node4 -->
<g id="edge33" class="edge">
<title>Node37&#45;&gt;Node4</title>
<path fill="none" stroke="midnightblue" d="M1452.87,-302.39C1451.3,-287.04 1446.02,-254.74 1428.5,-235 1345.79,-141.83 1200.56,-96.5 1122.22,-77.88"/>
<polygon fill="midnightblue" stroke="midnightblue" points="1122.62,-74.38 1112.09,-75.53 1121.04,-81.2 1122.62,-74.38"/>
</g>
<!-- Node37&#45;&gt;Node17 -->
<g id="edge34" class="edge">
<title>Node37&#45;&gt;Node17</title>
<path fill="none" stroke="midnightblue" d="M1450.01,-302.21C1443.06,-285.98 1425.86,-251.46 1399.5,-235 1360.53,-210.67 1237.79,-196.38 1159.82,-189.52"/>
<polygon fill="midnightblue" stroke="midnightblue" points="1159.86,-186.01 1149.6,-188.65 1159.26,-192.99 1159.86,-186.01"/>
</g>
<!-- Node37&#45;&gt;Node21 -->
<g id="edge36" class="edge">
<title>Node37&#45;&gt;Node21</title>
<path fill="none" stroke="midnightblue" d="M1434.87,-302.48C1416.28,-293.96 1387.12,-280.62 1363.3,-269.72"/>
<polygon fill="midnightblue" stroke="midnightblue" points="1364.69,-266.5 1354.14,-265.52 1361.77,-272.87 1364.69,-266.5"/>
</g>
<!-- Node37&#45;&gt;Node29 -->
<g id="edge35" class="edge">
<title>Node37&#45;&gt;Node29</title>
<path fill="none" stroke="midnightblue" d="M1412.47,-302.83C1370.95,-294.36 1305,-280.38 1248.5,-266 1244.62,-265.01 1240.59,-263.93 1236.57,-262.82"/>
<polygon fill="midnightblue" stroke="midnightblue" points="1237.28,-259.39 1226.7,-260.03 1235.37,-266.12 1237.28,-259.39"/>
</g>
<!-- Node38&#45;&gt;Node17 -->
<g id="edge41" class="edge">
<title>Node38&#45;&gt;Node17</title>
<path fill="none" stroke="midnightblue" d="M857.79,-302.49C877.65,-293.65 909.44,-279.27 936.5,-266 983.29,-243.05 1036.97,-214.51 1067.6,-198.01"/>
<polygon fill="midnightblue" stroke="midnightblue" points="1069.56,-200.93 1076.69,-193.1 1066.23,-194.77 1069.56,-200.93"/>
</g>
<!-- Node38&#45;&gt;Node19 -->
<g id="edge46" class="edge">
<title>Node38&#45;&gt;Node19</title>
<path fill="none" stroke="midnightblue" d="M786.27,-305.6C735.86,-299.24 664.58,-286.8 646.5,-266 616.19,-231.13 622.95,-171.81 628.99,-141.71"/>
<polygon fill="midnightblue" stroke="midnightblue" points="632.46,-142.23 631.2,-131.71 625.63,-140.73 632.46,-142.23"/>
</g>
<!-- Node38&#45;&gt;Node21 -->
<g id="edge45" class="edge">
<title>Node38&#45;&gt;Node21</title>
<path fill="none" stroke="midnightblue" d="M890.79,-305.77C981.19,-296.64 1164.13,-277.78 1246.78,-266"/>
<polygon fill="midnightblue" stroke="midnightblue" points="1247.44,-269.44 1256.82,-264.53 1246.42,-262.52 1247.44,-269.44"/>
</g>
<!-- Node38&#45;&gt;Node29 -->
<g id="edge42" class="edge">
<title>Node38&#45;&gt;Node29</title>
<path fill="none" stroke="midnightblue" d="M890.08,-302.48C958.96,-291.09 1080.21,-271.05 1148.36,-259.79"/>
<polygon fill="midnightblue" stroke="midnightblue" points="1149.12,-263.21 1158.42,-258.12 1147.98,-256.3 1149.12,-263.21"/>
</g>
<!-- Node38&#45;&gt;Node32 -->
<g id="edge43" class="edge">
<title>Node38&#45;&gt;Node32</title>
<path fill="none" stroke="midnightblue" d="M890.63,-305.93C906.03,-304.53 922.94,-303.1 938.5,-302 1247.03,-280.13 1328,-314.37 1633.5,-266 1639.01,-265.13 1644.77,-263.91 1650.39,-262.56"/>
<polygon fill="midnightblue" stroke="midnightblue" points="1651.46,-265.9 1660.27,-260.01 1649.71,-259.12 1651.46,-265.9"/>
</g>
<!-- Node39 -->
<g id="node24" class="node">
<title>Node39</title>
<g id="a_node24"><a xlink:href="cobs__rx__container_8h.html" target="_top" xlink:title=" ">
<polygon fill="white" stroke="red" points="665,-241 665,-260 818,-260 818,-241 665,-241"/>
<text text-anchor="middle" x="741.5" y="-248" font-family="Helvetica,sans-Serif" font-size="10.00">drv/bits/cobs_rx_container.h</text>
</a>
</g>
</g>
<!-- Node38&#45;&gt;Node39 -->
<g id="edge38" class="edge">
<title>Node38&#45;&gt;Node39</title>
<path fill="none" stroke="midnightblue" d="M824.6,-302.48C808.83,-292.8 782.86,-276.87 764.15,-265.39"/>
<polygon fill="midnightblue" stroke="midnightblue" points="765.73,-262.25 755.37,-260.01 762.07,-268.22 765.73,-262.25"/>
</g>
<!-- Node40 -->
<g id="node25" class="node">
<title>Node40</title>
<g id="a_node25"><a xlink:title=" ">
<polygon fill="white" stroke="#bfbfbf" points="651,-168.5 651,-198.5 784,-198.5 784,-168.5 651,-168.5"/>
<text text-anchor="start" x="659" y="-186.5" font-family="Helvetica,sans-Serif" font-size="10.00">emlabcpp/experimental</text>
<text text-anchor="middle" x="717.5" y="-175.5" font-family="Helvetica,sans-Serif" font-size="10.00">/cobs.h</text>
</a>
</g>
</g>
<!-- Node38&#45;&gt;Node40 -->
<g id="edge44" class="edge">
<title>Node38&#45;&gt;Node40</title>
<path fill="none" stroke="midnightblue" d="M786.05,-305.27C737.83,-298.79 671.5,-286.41 655.5,-266 639.19,-245.19 662.76,-221.05 685.37,-204.47"/>
<polygon fill="midnightblue" stroke="midnightblue" points="687.4,-207.33 693.59,-198.73 683.39,-201.59 687.4,-207.33"/>
</g>
<!-- Node39&#45;&gt;Node4 -->
<g id="edge39" class="edge">
<title>Node39&#45;&gt;Node4</title>
<path fill="none" stroke="midnightblue" d="M756.83,-240.94C809.08,-211.78 980.42,-116.16 1044.25,-80.53"/>
<polygon fill="midnightblue" stroke="midnightblue" points="1046.17,-83.47 1053.2,-75.54 1042.76,-77.36 1046.17,-83.47"/>
</g>
<!-- Node39&#45;&gt;Node40 -->
<g id="edge40" class="edge">
<title>Node39&#45;&gt;Node40</title>
<path fill="none" stroke="midnightblue" d="M738.26,-240.73C735.18,-232.37 730.39,-219.4 726.19,-208.02"/>
<polygon fill="midnightblue" stroke="midnightblue" points="729.45,-206.76 722.7,-198.59 722.88,-209.18 729.45,-206.76"/>
</g>
<!-- Node42&#45;&gt;Node17 -->
<g id="edge48" class="edge">
<title>Node42&#45;&gt;Node17</title>
<path fill="none" stroke="midnightblue" d="M788.24,-363.78C778.82,-349.48 763.5,-320.77 777.5,-302 811.04,-257.02 848.91,-292.24 898.5,-266 917.76,-255.81 917.36,-245.42 936.5,-235 970,-216.76 1011.17,-203.78 1042.8,-195.55"/>
<polygon fill="midnightblue" stroke="midnightblue" points="1043.88,-198.88 1052.72,-193.04 1042.16,-192.1 1043.88,-198.88"/>
</g>
<!-- Node42&#45;&gt;Node29 -->
<g id="edge50" class="edge">
<title>Node42&#45;&gt;Node29</title>
<path fill="none" stroke="midnightblue" d="M812.78,-363.88C833.78,-353.94 869.25,-337.03 899.5,-322 916.95,-313.33 920.09,-308.36 938.5,-302 1009.19,-277.56 1095.01,-263.79 1148.2,-257"/>
<polygon fill="midnightblue" stroke="midnightblue" points="1148.9,-260.44 1158.39,-255.73 1148.03,-253.49 1148.9,-260.44"/>
</g>
<!-- Node42&#45;&gt;Node43 -->
<g id="edge49" class="edge">
<title>Node42&#45;&gt;Node43</title>
<path fill="none" stroke="midnightblue" d="M780.46,-363.98C764.45,-354.25 738.05,-338.23 719.13,-326.74"/>
<polygon fill="midnightblue" stroke="midnightblue" points="720.88,-323.71 710.51,-321.51 717.25,-329.69 720.88,-323.71"/>
</g>
<!-- Node47&#45;&gt;Node6 -->
<g id="edge57" class="edge">
<title>Node47&#45;&gt;Node6</title>
<path fill="none" stroke="midnightblue" d="M462.61,-363.84C428.51,-339.77 338.5,-268.3 338.5,-184.5 338.5,-184.5 338.5,-184.5 338.5,-121 338.5,-49.56 416.31,-73.75 485.5,-56 578.15,-32.23 870.86,-17.14 972.4,-12.52"/>
<polygon fill="midnightblue" stroke="midnightblue" points="972.61,-16.01 982.45,-12.07 972.3,-9.02 972.61,-16.01"/>
</g>
<!-- Node47&#45;&gt;Node17 -->
<g id="edge55" class="edge">
<title>Node47&#45;&gt;Node17</title>
<path fill="none" stroke="midnightblue" d="M473.85,-363.62C471.61,-348.55 469.63,-318.06 486.5,-302 541.53,-249.62 757.2,-297.15 826.5,-266 845.15,-257.62 842.33,-244.39 860.5,-235 912.13,-208.33 977.25,-195.72 1025.35,-189.77"/>
<polygon fill="midnightblue" stroke="midnightblue" points="1025.81,-193.24 1035.34,-188.6 1025,-186.29 1025.81,-193.24"/>
</g>
<!-- Node47&#45;&gt;Node29 -->
<g id="edge56" class="edge">
<title>Node47&#45;&gt;Node29</title>
<path fill="none" stroke="midnightblue" d="M476.35,-363.79C478.37,-348.41 484.94,-316.7 505.5,-302 531.61,-283.33 993.41,-260.8 1148.32,-253.73"/>
<polygon fill="midnightblue" stroke="midnightblue" points="1148.67,-257.22 1158.5,-253.27 1148.35,-250.22 1148.67,-257.22"/>
</g>
<!-- Node48 -->
<g id="node29" class="node">
<title>Node48</title>
<g id="a_node29"><a xlink:href="storage_8hpp.html" target="_top" xlink:title=" ">
<polygon fill="white" stroke="red" points="514.5,-302.5 514.5,-321.5 606.5,-321.5 606.5,-302.5 514.5,-302.5"/>
<text text-anchor="middle" x="560.5" y="-309.5" font-family="Helvetica,sans-Serif" font-size="10.00">cfg/storage.hpp</text>
</a>
</g>
</g>
<!-- Node47&#45;&gt;Node48 -->
<g id="edge52" class="edge">
<title>Node47&#45;&gt;Node48</title>
<path fill="none" stroke="midnightblue" d="M487.68,-363.98C501.31,-354.43 523.63,-338.81 539.97,-327.37"/>
<polygon fill="midnightblue" stroke="midnightblue" points="542.16,-330.11 548.34,-321.51 538.14,-324.38 542.16,-330.11"/>
</g>
<!-- Node47&#45;&gt;Node49 -->
<g id="edge58" class="edge">
<title>Node47&#45;&gt;Node49</title>
<path fill="none" stroke="midnightblue" d="M449.42,-363.98C417.93,-353.68 364.8,-336.31 329.44,-324.75"/>
<polygon fill="midnightblue" stroke="midnightblue" points="330.12,-321.29 319.53,-321.51 327.95,-327.94 330.12,-321.29"/>
</g>
<!-- Node48&#45;&gt;Node3 -->
<g id="edge53" class="edge">
<title>Node48&#45;&gt;Node3</title>
<path fill="none" stroke="midnightblue" d="M558.86,-302.43C553.39,-273.87 535.69,-181.43 528.06,-141.57"/>
<polygon fill="midnightblue" stroke="midnightblue" points="531.47,-140.78 526.15,-131.62 524.59,-142.1 531.47,-140.78"/>
</g>
<!-- Node48&#45;&gt;Node21 -->
<g id="edge54" class="edge">
<title>Node48&#45;&gt;Node21</title>
<path fill="none" stroke="midnightblue" d="M606.83,-306.19C621.72,-304.73 638.3,-303.2 653.5,-302 913.82,-281.52 983.31,-298.41 1246.6,-265.99"/>
<polygon fill="midnightblue" stroke="midnightblue" points="1247.36,-269.42 1256.85,-264.72 1246.49,-262.48 1247.36,-269.42"/>
</g>
<!-- Node50&#45;&gt;Node17 -->
<g id="edge61" class="edge">
<title>Node50&#45;&gt;Node17</title>
<path fill="none" stroke="midnightblue" d="M1763.9,-302.25C1764.1,-286.08 1761.95,-251.65 1741.5,-235 1697.12,-198.87 1316.67,-188.3 1159.75,-185.46"/>
<polygon fill="midnightblue" stroke="midnightblue" points="1159.8,-181.96 1149.74,-185.28 1159.68,-188.96 1159.8,-181.96"/>
</g>
<!-- Node50&#45;&gt;Node20 -->
<g id="edge65" class="edge">
<title>Node50&#45;&gt;Node20</title>
<path fill="none" stroke="midnightblue" d="M1766.41,-302.24C1770.83,-287.24 1777.42,-256.18 1764.5,-235 1746.28,-205.14 1720.08,-222.87 1694.5,-199 1676.76,-182.44 1663.45,-157.53 1655.82,-140.79"/>
<polygon fill="midnightblue" stroke="midnightblue" points="1659.01,-139.34 1651.82,-131.56 1652.59,-142.13 1659.01,-139.34"/>
</g>
<!-- Node50&#45;&gt;Node21 -->
<g id="edge64" class="edge">
<title>Node50&#45;&gt;Node21</title>
<path fill="none" stroke="midnightblue" d="M1716.83,-304.69C1641.26,-294.47 1491.37,-274.2 1400.02,-261.85"/>
<polygon fill="midnightblue" stroke="midnightblue" points="1400.38,-258.36 1390,-260.49 1399.44,-265.3 1400.38,-258.36"/>
</g>
<!-- Node50&#45;&gt;Node28 -->
<g id="edge60" class="edge">
<title>Node50&#45;&gt;Node28</title>
<path fill="none" stroke="midnightblue" d="M1736.28,-302.48C1703.26,-292.14 1647.46,-274.66 1610.55,-263.1"/>
<polygon fill="midnightblue" stroke="midnightblue" points="1611.26,-259.66 1600.67,-260.01 1609.17,-266.34 1611.26,-259.66"/>
</g>
<!-- Node50&#45;&gt;Node29 -->
<g id="edge62" class="edge">
<title>Node50&#45;&gt;Node29</title>
<path fill="none" stroke="midnightblue" d="M1716.65,-306.42C1701.6,-304.97 1684.85,-303.39 1669.5,-302 1482.47,-285.05 1433.13,-300.32 1248.5,-266 1243.75,-265.12 1238.81,-263.97 1233.95,-262.71"/>
<polygon fill="midnightblue" stroke="midnightblue" points="1234.79,-259.31 1224.22,-260.01 1232.92,-266.06 1234.79,-259.31"/>
</g>
<!-- Node50&#45;&gt;Node32 -->
<g id="edge63" class="edge">
<title>Node50&#45;&gt;Node32</title>
<path fill="none" stroke="midnightblue" d="M1752.61,-302.48C1740.53,-293.02 1720.83,-277.6 1706.26,-266.19"/>
<polygon fill="midnightblue" stroke="midnightblue" points="1708.4,-263.42 1698.37,-260.01 1704.09,-268.93 1708.4,-263.42"/>
</g>
<!-- Node51&#45;&gt;Node4 -->
<g id="edge67" class="edge">
<title>Node51&#45;&gt;Node4</title>
<path fill="none" stroke="midnightblue" d="M1555.4,-365.45C1570.4,-362.88 1587.71,-360.1 1603.5,-358 1763.77,-336.7 1817.89,-387.96 1965.5,-322 2007.86,-303.07 2042.5,-297.9 2042.5,-251.5 2042.5,-251.5 2042.5,-251.5 2042.5,-182.5 2042.5,-89.77 1337.34,-71.22 1127.02,-67.75"/>
<polygon fill="midnightblue" stroke="midnightblue" points="1126.86,-64.25 1116.8,-67.59 1126.74,-71.25 1126.86,-64.25"/>
</g>
<!-- Node51&#45;&gt;Node6 -->
<g id="edge72" class="edge">
<title>Node51&#45;&gt;Node6</title>
<path fill="none" stroke="midnightblue" d="M1555.39,-365.38C1570.38,-362.8 1587.7,-360.03 1603.5,-358 1691.58,-346.69 1920.03,-357.35 2001.5,-322 2044.67,-303.27 2080.5,-298.56 2080.5,-251.5 2080.5,-251.5 2080.5,-251.5 2080.5,-121 2080.5,-14.17 1227.93,-10.39 1042.72,-10.83"/>
<polygon fill="midnightblue" stroke="midnightblue" points="1042.69,-7.33 1032.7,-10.86 1042.71,-14.33 1042.69,-7.33"/>
</g>
<!-- Node51&#45;&gt;Node17 -->
<g id="edge70" class="edge">
<title>Node51&#45;&gt;Node17</title>
<path fill="none" stroke="midnightblue" d="M1542.44,-363.95C1586.07,-349.57 1669.44,-322.08 1669.5,-322 1674.71,-314.8 1675.03,-308.96 1669.5,-302 1625.2,-246.32 1581.72,-286.23 1513.5,-266 1474.95,-254.57 1467.47,-244.93 1428.5,-235 1336.88,-211.66 1228.29,-197.75 1159.88,-190.61"/>
<polygon fill="midnightblue" stroke="midnightblue" points="1159.97,-187.1 1149.67,-189.57 1159.26,-194.07 1159.97,-187.1"/>
</g>
<!-- Node51&#45;&gt;Node21 -->
<g id="edge73" class="edge">
<title>Node51&#45;&gt;Node21</title>
<path fill="none" stroke="midnightblue" d="M1517.57,-363.88C1518.89,-349.2 1519.27,-319.28 1503.5,-302 1477.4,-273.4 1436.54,-260.49 1400.35,-254.86"/>
<polygon fill="midnightblue" stroke="midnightblue" points="1400.66,-251.37 1390.28,-253.46 1399.7,-258.3 1400.66,-251.37"/>
</g>
<!-- Node51&#45;&gt;Node29 -->
<g id="edge71" class="edge">
<title>Node51&#45;&gt;Node29</title>
<path fill="none" stroke="midnightblue" d="M1496.32,-363.94C1473.57,-354.2 1435.58,-337.59 1403.5,-322 1386.33,-313.66 1383.16,-309.24 1365.5,-302 1353.55,-297.1 1283.36,-276.3 1237.87,-262.97"/>
<polygon fill="midnightblue" stroke="midnightblue" points="1238.58,-259.54 1228,-260.09 1236.62,-266.26 1238.58,-259.54"/>
</g>
<!-- Node52 -->
<g id="node33" class="node">
<title>Node52</title>
<g id="a_node33"><a xlink:href="defs_8hpp.html" target="_top" xlink:title=" ">
<polygon fill="white" stroke="red" points="1279,-302.5 1279,-321.5 1356,-321.5 1356,-302.5 1279,-302.5"/>
<text text-anchor="middle" x="1317.5" y="-309.5" font-family="Helvetica,sans-Serif" font-size="10.00">drv/defs.hpp</text>
</a>
</g>
</g>
<!-- Node51&#45;&gt;Node52 -->
<g id="edge68" class="edge">
<title>Node51&#45;&gt;Node52</title>
<path fill="none" stroke="midnightblue" d="M1487.99,-363.98C1453.26,-353.59 1394.46,-336.01 1355.81,-324.45"/>
<polygon fill="midnightblue" stroke="midnightblue" points="1356.54,-321.02 1345.96,-321.51 1354.54,-327.73 1356.54,-321.02"/>
</g>
<!-- Node52&#45;&gt;Node29 -->
<g id="edge69" class="edge">
<title>Node52&#45;&gt;Node29</title>
<path fill="none" stroke="midnightblue" d="M1300.45,-302.48C1280.66,-292.58 1247.78,-276.14 1224.73,-264.62"/>
<polygon fill="midnightblue" stroke="midnightblue" points="1226.03,-261.35 1215.52,-260.01 1222.9,-267.61 1226.03,-261.35"/>
</g>
<!-- Node54&#45;&gt;Node17 -->
<g id="edge75" class="edge">
<title>Node54&#45;&gt;Node17</title>
<path fill="none" stroke="midnightblue" d="M1120.44,-302.31C1115.62,-281.99 1103.54,-231.05 1096.95,-203.28"/>
<polygon fill="midnightblue" stroke="midnightblue" points="1100.29,-202.18 1094.58,-193.26 1093.48,-203.79 1100.29,-202.18"/>
</g>
<!-- Node54&#45;&gt;Node29 -->
<g id="edge76" class="edge">
<title>Node54&#45;&gt;Node29</title>
<path fill="none" stroke="midnightblue" d="M1133.39,-302.48C1145.47,-293.02 1165.17,-277.6 1179.74,-266.19"/>
<polygon fill="midnightblue" stroke="midnightblue" points="1181.91,-268.93 1187.63,-260.01 1177.6,-263.42 1181.91,-268.93"/>
</g>
<!-- Node55&#45;&gt;Node17 -->
<g id="edge79" class="edge">
<title>Node55&#45;&gt;Node17</title>
<path fill="none" stroke="midnightblue" d="M634.12,-358.33C634.5,-342.23 637.77,-316.36 653.5,-302 722.47,-239.04 775.55,-304.78 860.5,-266 880.33,-256.95 879.06,-244.86 898.5,-235 938.25,-214.84 986.77,-202.21 1025.35,-194.62"/>
<polygon fill="midnightblue" stroke="midnightblue" points="1026.26,-198.01 1035.44,-192.71 1024.96,-191.14 1026.26,-198.01"/>
</g>
<!-- Node55&#45;&gt;Node43 -->
<g id="edge80" class="edge">
<title>Node55&#45;&gt;Node43</title>
<path fill="none" stroke="midnightblue" d="M649.19,-358.4C658.48,-349.49 670.5,-337.95 680.1,-328.74"/>
<polygon fill="midnightblue" stroke="midnightblue" points="682.69,-331.11 687.48,-321.66 677.84,-326.06 682.69,-331.11"/>
</g>
<!-- Node55&#45;&gt;Node48 -->
<g id="edge78" class="edge">
<title>Node55&#45;&gt;Node48</title>
<path fill="none" stroke="midnightblue" d="M616.96,-358.4C605.66,-349.31 590.96,-337.49 579.39,-328.19"/>
<polygon fill="midnightblue" stroke="midnightblue" points="581.25,-325.2 571.27,-321.66 576.87,-330.65 581.25,-325.2"/>
</g>
<!-- Node57&#45;&gt;Node17 -->
<g id="edge85" class="edge">
<title>Node57&#45;&gt;Node17</title>
<path fill="none" stroke="midnightblue" d="M1882.03,-302.44C1861.17,-285.95 1812.32,-250.08 1764.5,-235 1653.15,-199.89 1306.97,-188.83 1159.8,-185.66"/>
<polygon fill="midnightblue" stroke="midnightblue" points="1159.62,-182.16 1149.55,-185.45 1159.48,-189.16 1159.62,-182.16"/>
</g>
<!-- Node57&#45;&gt;Node20 -->
<g id="edge89" class="edge">
<title>Node57&#45;&gt;Node20</title>
<path fill="none" stroke="midnightblue" d="M1893.11,-302.42C1894.35,-277.64 1894.32,-205.33 1855.5,-168 1830.5,-143.96 1730,-130.92 1678.8,-125.72"/>
<polygon fill="midnightblue" stroke="midnightblue" points="1678.97,-122.22 1668.67,-124.73 1678.28,-129.18 1678.97,-122.22"/>
</g>
<!-- Node57&#45;&gt;Node21 -->
<g id="edge88" class="edge">
<title>Node57&#45;&gt;Node21</title>
<path fill="none" stroke="midnightblue" d="M1828.41,-303.02C1825.4,-302.67 1822.42,-302.33 1819.5,-302 1671.21,-285.31 1497.71,-268.2 1400.2,-258.8"/>
<polygon fill="midnightblue" stroke="midnightblue" points="1400.43,-255.31 1390.14,-257.83 1399.75,-262.27 1400.43,-255.31"/>
</g>
<!-- Node57&#45;&gt;Node36 -->
<g id="edge86" class="edge">
<title>Node57&#45;&gt;Node36</title>
<path fill="none" stroke="midnightblue" d="M1931.75,-302.48C1951.5,-295.99 1973.68,-284.84 1985.5,-266 1992.82,-254.33 1994.03,-245.82 1985.5,-235 1969.28,-214.44 1908.44,-201.32 1856.23,-193.62"/>
<polygon fill="midnightblue" stroke="midnightblue" points="1856.65,-190.14 1846.26,-192.2 1855.66,-197.07 1856.65,-190.14"/>
</g>
<!-- Node58 -->
<g id="node38" class="node">
<title>Node58</title>
<g id="a_node38"><a xlink:href="record_8hpp.html" target="_top" xlink:title=" ">
<polygon fill="white" stroke="red" points="1902.5,-241 1902.5,-260 1976.5,-260 1976.5,-241 1902.5,-241"/>
<text text-anchor="middle" x="1939.5" y="-248" font-family="Helvetica,sans-Serif" font-size="10.00">./record.hpp</text>
</a>
</g>
</g>
<!-- Node57&#45;&gt;Node58 -->
<g id="edge87" class="edge">
<title>Node57&#45;&gt;Node58</title>
<path fill="none" stroke="midnightblue" d="M1899.23,-302.48C1906.28,-293.55 1917.53,-279.31 1926.35,-268.14"/>
<polygon fill="midnightblue" stroke="midnightblue" points="1929.33,-270.03 1932.78,-260.01 1923.83,-265.69 1929.33,-270.03"/>
</g>
</g>
</svg>
