<?xml version="1.0" encoding="UTF-8" standalone="no"?>
<!DOCTYPE svg PUBLIC "-//W3C//DTD SVG 1.1//EN"
 "http://www.w3.org/Graphics/SVG/1.1/DTD/svg11.dtd">
<!-- Generated by graphviz version 2.43.0 (0)
 -->
<!-- Title: src/fw/board.hpp Pages: 1 -->
<svg width="540pt" height="196pt"
 viewBox="0.00 0.00 540.00 196.00" xmlns="http://www.w3.org/2000/svg" xmlns:xlink="http://www.w3.org/1999/xlink">
<g id="graph0" class="graph" transform="scale(1 1) rotate(0) translate(4 192)">
<title>src/fw/board.hpp</title>
<polygon fill="white" stroke="transparent" points="-4,4 -4,-192 536,-192 536,4 -4,4"/>
<!-- Node1 -->
<g id="node1" class="node">
<title>Node1</title>
<g id="a_node1"><a xlink:title=" ">
<polygon fill="#bfbfbf" stroke="black" points="152,-168.5 152,-187.5 249,-187.5 249,-168.5 152,-168.5"/>
<text text-anchor="middle" x="200.5" y="-175.5" font-family="Helvetica,sans-Serif" font-size="10.00">src/fw/board.hpp</text>
</a>
</g>
</g>
<!-- Node2 -->
<g id="node2" class="node">
<title>Node2</title>
<g id="a_node2"><a xlink:title=" ">
<polygon fill="white" stroke="#bfbfbf" points="62,-112.5 62,-131.5 129,-131.5 129,-112.5 62,-112.5"/>
<text text-anchor="middle" x="95.5" y="-119.5" font-family="Helvetica,sans-Serif" font-size="10.00">config.hpp</text>
</a>
</g>
</g>
<!-- Node1&#45;&gt;Node2 -->
<g id="edge1" class="edge">
<title>Node1&#45;&gt;Node2</title>
<path fill="none" stroke="midnightblue" d="M183.63,-168.32C166.79,-159.66 140.69,-146.24 121.26,-136.25"/>
<polygon fill="midnightblue" stroke="midnightblue" points="122.82,-133.12 112.33,-131.65 119.62,-139.34 122.82,-133.12"/>
</g>
<!-- Node3 -->
<g id="node3" class="node">
<title>Node3</title>
<g id="a_node3"><a xlink:href="drv__interfaces_8hpp.html" target="_top" xlink:title=" ">
<polygon fill="white" stroke="black" points="147,-112.5 147,-131.5 254,-131.5 254,-112.5 147,-112.5"/>
<text text-anchor="middle" x="200.5" y="-119.5" font-family="Helvetica,sans-Serif" font-size="10.00">drv_interfaces.hpp</text>
</a>
</g>
</g>
<!-- Node1&#45;&gt;Node3 -->
<g id="edge2" class="edge">
<title>Node1&#45;&gt;Node3</title>
<path fill="none" stroke="midnightblue" d="M200.5,-168.08C200.5,-161.01 200.5,-150.86 200.5,-141.99"/>
<polygon fill="midnightblue" stroke="midnightblue" points="204,-141.75 200.5,-131.75 197,-141.75 204,-141.75"/>
</g>
<!-- Node14 -->
<g id="node9" class="node">
<title>Node14</title>
<g id="a_node9"><a xlink:href="globals_8hpp.html" target="_top" xlink:title=" ">
<polygon fill="white" stroke="black" points="371,-112.5 371,-131.5 444,-131.5 444,-112.5 371,-112.5"/>
<text text-anchor="middle" x="407.5" y="-119.5" font-family="Helvetica,sans-Serif" font-size="10.00">globals.hpp</text>
</a>
</g>
</g>
<!-- Node1&#45;&gt;Node14 -->
<g id="edge9" class="edge">
<title>Node1&#45;&gt;Node14</title>
<path fill="none" stroke="midnightblue" d="M233.3,-168.44C268.88,-159.16 325.81,-144.31 364.85,-134.13"/>
<polygon fill="midnightblue" stroke="midnightblue" points="366.06,-137.43 374.85,-131.52 364.29,-130.65 366.06,-137.43"/>
</g>
<!-- Node4 -->
<g id="node4" class="node">
<title>Node4</title>
<g id="a_node4"><a xlink:href="base_8hpp.html" target="_top" xlink:title=" ">
<polygon fill="white" stroke="red" points="0,-56.5 0,-75.5 61,-75.5 61,-56.5 0,-56.5"/>
<text text-anchor="middle" x="30.5" y="-63.5" font-family="Helvetica,sans-Serif" font-size="10.00">base.hpp</text>
</a>
</g>
</g>
<!-- Node3&#45;&gt;Node4 -->
<g id="edge3" class="edge">
<title>Node3&#45;&gt;Node4</title>
<path fill="none" stroke="midnightblue" d="M173.56,-112.44C144.84,-103.32 99.17,-88.81 67.18,-78.65"/>
<polygon fill="midnightblue" stroke="midnightblue" points="67.9,-75.21 57.31,-75.52 65.78,-81.88 67.9,-75.21"/>
</g>
<!-- Node8 -->
<g id="node5" class="node">
<title>Node8</title>
<g id="a_node5"><a xlink:title=" ">
<polygon fill="white" stroke="#bfbfbf" points="34.5,-0.5 34.5,-19.5 84.5,-19.5 84.5,-0.5 34.5,-0.5"/>
<text text-anchor="middle" x="59.5" y="-7.5" font-family="Helvetica,sans-Serif" font-size="10.00">cstdint</text>
</a>
</g>
</g>
<!-- Node3&#45;&gt;Node8 -->
<g id="edge6" class="edge">
<title>Node3&#45;&gt;Node8</title>
<path fill="none" stroke="midnightblue" d="M175.23,-112.37C155.63,-104.83 128.52,-92.52 108.5,-76 92.2,-62.55 78.23,-42.64 69.42,-28.41"/>
<polygon fill="midnightblue" stroke="midnightblue" points="72.31,-26.41 64.19,-19.61 66.29,-29.99 72.31,-26.41"/>
</g>
<!-- Node11 -->
<g id="node6" class="node">
<title>Node11</title>
<g id="a_node6"><a xlink:href="status_8hpp.html" target="_top" xlink:title=" ">
<polygon fill="white" stroke="black" points="117.5,-56.5 117.5,-75.5 185.5,-75.5 185.5,-56.5 117.5,-56.5"/>
<text text-anchor="middle" x="151.5" y="-63.5" font-family="Helvetica,sans-Serif" font-size="10.00">status.hpp</text>
</a>
</g>
</g>
<!-- Node3&#45;&gt;Node11 -->
<g id="edge5" class="edge">
<title>Node3&#45;&gt;Node11</title>
<path fill="none" stroke="midnightblue" d="M192.41,-112.08C185.34,-104.3 174.91,-92.8 166.35,-83.37"/>
<polygon fill="midnightblue" stroke="midnightblue" points="168.75,-80.8 159.44,-75.75 163.57,-85.51 168.75,-80.8"/>
</g>
<!-- Node12 -->
<g id="node7" class="node">
<title>Node12</title>
<g id="a_node7"><a xlink:title=" ">
<polygon fill="white" stroke="#bfbfbf" points="203.5,-56.5 203.5,-75.5 307.5,-75.5 307.5,-56.5 203.5,-56.5"/>
<text text-anchor="middle" x="255.5" y="-63.5" font-family="Helvetica,sans-Serif" font-size="10.00">emlabcpp/result.h</text>
</a>
</g>
</g>
<!-- Node3&#45;&gt;Node12 -->
<g id="edge7" class="edge">
<title>Node3&#45;&gt;Node12</title>
<path fill="none" stroke="midnightblue" d="M209.58,-112.08C217.67,-104.14 229.7,-92.34 239.41,-82.8"/>
<polygon fill="midnightblue" stroke="midnightblue" points="241.9,-85.25 246.59,-75.75 237,-80.26 241.9,-85.25"/>
</g>
<!-- Node13 -->
<g id="node8" class="node">
<title>Node13</title>
<g id="a_node8"><a xlink:title=" ">
<polygon fill="white" stroke="#bfbfbf" points="325.5,-56.5 325.5,-75.5 365.5,-75.5 365.5,-56.5 325.5,-56.5"/>
<text text-anchor="middle" x="345.5" y="-63.5" font-family="Helvetica,sans-Serif" font-size="10.00">span</text>
</a>
</g>
</g>
<!-- Node3&#45;&gt;Node13 -->
<g id="edge8" class="edge">
<title>Node3&#45;&gt;Node13</title>
<path fill="none" stroke="midnightblue" d="M223.48,-112.44C248.51,-103.12 288.64,-88.18 315.99,-77.99"/>
<polygon fill="midnightblue" stroke="midnightblue" points="317.28,-81.24 325.43,-74.47 314.84,-74.68 317.28,-81.24"/>
</g>
<!-- Node4&#45;&gt;Node8 -->
<g id="edge4" class="edge">
<title>Node4&#45;&gt;Node8</title>
<path fill="none" stroke="midnightblue" d="M35.29,-56.08C39.26,-48.69 45.03,-37.95 49.93,-28.81"/>
<polygon fill="midnightblue" stroke="midnightblue" points="53.15,-30.22 54.8,-19.75 46.99,-26.91 53.15,-30.22"/>
</g>
<!-- Node15 -->
<g id="node10" class="node">
<title>Node15</title>
<g id="a_node10"><a xlink:title=" ">
<polygon fill="white" stroke="#bfbfbf" points="383,-56.5 383,-75.5 532,-75.5 532,-56.5 383,-56.5"/>
<text text-anchor="middle" x="457.5" y="-63.5" font-family="Helvetica,sans-Serif" font-size="10.00">emlabcpp/static_function.h</text>
</a>
</g>
</g>
<!-- Node14&#45;&gt;Node15 -->
<g id="edge10" class="edge">
<title>Node14&#45;&gt;Node15</title>
<path fill="none" stroke="midnightblue" d="M415.76,-112.08C422.96,-104.3 433.61,-92.8 442.35,-83.37"/>
<polygon fill="midnightblue" stroke="midnightblue" points="445.17,-85.47 449.4,-75.75 440.03,-80.71 445.17,-85.47"/>
</g>
</g>
</svg>
