<?xml version="1.0" encoding="UTF-8" standalone="no"?>
<!DOCTYPE svg PUBLIC "-//W3C//DTD SVG 1.1//EN"
 "http://www.w3.org/Graphics/SVG/1.1/DTD/svg11.dtd">
<!-- Generated by graphviz version 2.43.0 (0)
 -->
<!-- Title: boards/prototype2/gpio.cpp Pages: 1 -->
<svg width="530pt" height="319pt"
 viewBox="0.00 0.00 529.50 319.00" xmlns="http://www.w3.org/2000/svg" xmlns:xlink="http://www.w3.org/1999/xlink">
<g id="graph0" class="graph" transform="scale(1 1) rotate(0) translate(4 315)">
<title>boards/prototype2/gpio.cpp</title>
<polygon fill="white" stroke="transparent" points="-4,4 -4,-315 525.5,-315 525.5,4 -4,4"/>
<!-- Node1 -->
<g id="node1" class="node">
<title>Node1</title>
<g id="a_node1"><a xlink:title=" ">
<polygon fill="#bfbfbf" stroke="black" points="219.5,-291.5 219.5,-310.5 369.5,-310.5 369.5,-291.5 219.5,-291.5"/>
<text text-anchor="middle" x="294.5" y="-298.5" font-family="Helvetica,sans-Serif" font-size="10.00">boards/prototype2/gpio.cpp</text>
</a>
</g>
</g>
<!-- Node2 -->
<g id="node2" class="node">
<title>Node2</title>
<g id="a_node2"><a xlink:href="leds_8hpp.html" target="_top" xlink:title=" ">
<polygon fill="white" stroke="black" points="280,-179.5 280,-198.5 371,-198.5 371,-179.5 280,-179.5"/>
<text text-anchor="middle" x="325.5" y="-186.5" font-family="Helvetica,sans-Serif" font-size="10.00">fw/drv/leds.hpp</text>
</a>
</g>
</g>
<!-- Node1&#45;&gt;Node2 -->
<g id="edge1" class="edge">
<title>Node1&#45;&gt;Node2</title>
<path fill="none" stroke="midnightblue" d="M296.93,-291.37C301.96,-273.54 313.58,-232.3 320.35,-208.27"/>
<polygon fill="midnightblue" stroke="midnightblue" points="323.73,-209.17 323.08,-198.59 317,-207.27 323.73,-209.17"/>
</g>
<!-- Node18 -->
<g id="node9" class="node">
<title>Node18</title>
<g id="a_node9"><a xlink:href="boards_2prototype2_2setup_8hpp.html" target="_top" xlink:title=" ">
<polygon fill="white" stroke="black" points="232,-235.5 232,-254.5 297,-254.5 297,-235.5 232,-235.5"/>
<text text-anchor="middle" x="264.5" y="-242.5" font-family="Helvetica,sans-Serif" font-size="10.00">setup.hpp</text>
</a>
</g>
</g>
<!-- Node1&#45;&gt;Node18 -->
<g id="edge12" class="edge">
<title>Node1&#45;&gt;Node18</title>
<path fill="none" stroke="midnightblue" d="M289.55,-291.08C285.4,-283.61 279.35,-272.72 274.23,-263.52"/>
<polygon fill="midnightblue" stroke="midnightblue" points="277.28,-261.79 269.36,-254.75 271.16,-265.19 277.28,-261.79"/>
</g>
<!-- Node3 -->
<g id="node3" class="node">
<title>Node3</title>
<g id="a_node3"><a xlink:href="base_8hpp.html" target="_top" xlink:title=" ">
<polygon fill="white" stroke="red" points="181,-56.5 181,-75.5 242,-75.5 242,-56.5 181,-56.5"/>
<text text-anchor="middle" x="211.5" y="-63.5" font-family="Helvetica,sans-Serif" font-size="10.00">base.hpp</text>
</a>
</g>
</g>
<!-- Node2&#45;&gt;Node3 -->
<g id="edge2" class="edge">
<title>Node2&#45;&gt;Node3</title>
<path fill="none" stroke="midnightblue" d="M325.63,-179.43C325.41,-164.17 322.88,-131.98 306.5,-112 292.71,-95.17 271.16,-84.26 252.07,-77.4"/>
<polygon fill="midnightblue" stroke="midnightblue" points="252.96,-74.01 242.36,-74.17 250.75,-80.65 252.96,-74.01"/>
</g>
<!-- Node7 -->
<g id="node4" class="node">
<title>Node7</title>
<g id="a_node4"><a xlink:title=" ">
<polygon fill="white" stroke="#bfbfbf" points="186.5,-0.5 186.5,-19.5 236.5,-19.5 236.5,-0.5 186.5,-0.5"/>
<text text-anchor="middle" x="211.5" y="-7.5" font-family="Helvetica,sans-Serif" font-size="10.00">cstdint</text>
</a>
</g>
</g>
<!-- Node2&#45;&gt;Node7 -->
<g id="edge10" class="edge">
<title>Node2&#45;&gt;Node7</title>
<path fill="none" stroke="midnightblue" d="M335.11,-179.2C358.4,-156.79 413.74,-96.53 382.5,-56 366.02,-34.63 291.53,-21.39 246.48,-15.19"/>
<polygon fill="midnightblue" stroke="midnightblue" points="246.9,-11.71 236.53,-13.87 245.98,-18.65 246.9,-11.71"/>
</g>
<!-- Node10 -->
<g id="node5" class="node">
<title>Node10</title>
<g id="a_node5"><a xlink:href="drv__interfaces_8hpp.html" target="_top" xlink:title=" ">
<polygon fill="white" stroke="red" points="0,-118 0,-137 107,-137 107,-118 0,-118"/>
<text text-anchor="middle" x="53.5" y="-125" font-family="Helvetica,sans-Serif" font-size="10.00">drv_interfaces.hpp</text>
</a>
</g>
</g>
<!-- Node2&#45;&gt;Node10 -->
<g id="edge4" class="edge">
<title>Node2&#45;&gt;Node10</title>
<path fill="none" stroke="midnightblue" d="M286.53,-179.48C237.95,-168.85 154.92,-150.68 102.2,-139.15"/>
<polygon fill="midnightblue" stroke="midnightblue" points="102.92,-135.73 92.4,-137.01 101.42,-142.57 102.92,-135.73"/>
</g>
<!-- Node14 -->
<g id="node6" class="node">
<title>Node14</title>
<g id="a_node6"><a xlink:href="defs_8hpp.html" target="_top" xlink:title=" ">
<polygon fill="white" stroke="black" points="429.5,-118 429.5,-137 521.5,-137 521.5,-118 429.5,-118"/>
<text text-anchor="middle" x="475.5" y="-125" font-family="Helvetica,sans-Serif" font-size="10.00">fw/drv/defs.hpp</text>
</a>
</g>
</g>
<!-- Node2&#45;&gt;Node14 -->
<g id="edge7" class="edge">
<title>Node2&#45;&gt;Node14</title>
<path fill="none" stroke="midnightblue" d="M346.99,-179.48C372.61,-169.31 415.61,-152.26 444.74,-140.7"/>
<polygon fill="midnightblue" stroke="midnightblue" points="446.04,-143.95 454.05,-137.01 443.46,-137.44 446.04,-143.95"/>
</g>
<!-- Node15 -->
<g id="node7" class="node">
<title>Node15</title>
<g id="a_node7"><a xlink:href="platform_8hpp.html" target="_top" xlink:title=" ">
<polygon fill="white" stroke="red" points="293.5,-56.5 293.5,-75.5 373.5,-75.5 373.5,-56.5 293.5,-56.5"/>
<text text-anchor="middle" x="333.5" y="-63.5" font-family="Helvetica,sans-Serif" font-size="10.00">platform.hpp</text>
</a>
</g>
</g>
<!-- Node2&#45;&gt;Node15 -->
<g id="edge9" class="edge">
<title>Node2&#45;&gt;Node15</title>
<path fill="none" stroke="midnightblue" d="M329.1,-179.22C332.56,-170.28 337.53,-155.94 339.5,-143 342.44,-123.63 339.98,-101.24 337.37,-85.81"/>
<polygon fill="midnightblue" stroke="midnightblue" points="340.8,-85.13 335.53,-75.94 333.92,-86.41 340.8,-85.13"/>
</g>
<!-- Node17 -->
<g id="node8" class="node">
<title>Node17</title>
<g id="a_node8"><a xlink:title=" ">
<polygon fill="white" stroke="#bfbfbf" points="164,-112.5 164,-142.5 297,-142.5 297,-112.5 164,-112.5"/>
<text text-anchor="start" x="172" y="-130.5" font-family="Helvetica,sans-Serif" font-size="10.00">emlabcpp/experimental</text>
<text text-anchor="middle" x="230.5" y="-119.5" font-family="Helvetica,sans-Serif" font-size="10.00">/function_view.h</text>
</a>
</g>
</g>
<!-- Node2&#45;&gt;Node17 -->
<g id="edge11" class="edge">
<title>Node2&#45;&gt;Node17</title>
<path fill="none" stroke="midnightblue" d="M311.89,-179.48C298.78,-171.27 278.49,-158.56 261.45,-147.88"/>
<polygon fill="midnightblue" stroke="midnightblue" points="263.22,-144.86 252.89,-142.52 259.51,-150.8 263.22,-144.86"/>
</g>
<!-- Node3&#45;&gt;Node7 -->
<g id="edge3" class="edge">
<title>Node3&#45;&gt;Node7</title>
<path fill="none" stroke="midnightblue" d="M211.5,-56.08C211.5,-49.01 211.5,-38.86 211.5,-29.99"/>
<polygon fill="midnightblue" stroke="midnightblue" points="215,-29.75 211.5,-19.75 208,-29.75 215,-29.75"/>
</g>
<!-- Node10&#45;&gt;Node3 -->
<g id="edge5" class="edge">
<title>Node10&#45;&gt;Node3</title>
<path fill="none" stroke="midnightblue" d="M76.14,-117.98C103.24,-107.77 148.81,-90.61 179.5,-79.05"/>
<polygon fill="midnightblue" stroke="midnightblue" points="180.78,-82.31 188.9,-75.51 178.31,-75.76 180.78,-82.31"/>
</g>
<!-- Node10&#45;&gt;Node7 -->
<g id="edge6" class="edge">
<title>Node10&#45;&gt;Node7</title>
<path fill="none" stroke="midnightblue" d="M65.38,-117.82C92.25,-98.17 158,-50.11 191.37,-25.72"/>
<polygon fill="midnightblue" stroke="midnightblue" points="193.48,-28.51 199.49,-19.78 189.35,-22.86 193.48,-28.51"/>
</g>
<!-- Node14&#45;&gt;Node15 -->
<g id="edge8" class="edge">
<title>Node14&#45;&gt;Node15</title>
<path fill="none" stroke="midnightblue" d="M455.15,-117.98C431.11,-107.9 390.9,-91.05 363.34,-79.5"/>
<polygon fill="midnightblue" stroke="midnightblue" points="364.38,-76.15 353.81,-75.51 361.68,-82.6 364.38,-76.15"/>
</g>
<!-- Node18&#45;&gt;Node2 -->
<g id="edge20" class="edge">
<title>Node18&#45;&gt;Node2</title>
<path fill="none" stroke="midnightblue" d="M274.3,-235.32C283.32,-227.34 296.91,-215.31 307.82,-205.65"/>
<polygon fill="midnightblue" stroke="midnightblue" points="310.35,-208.08 315.52,-198.83 305.71,-202.84 310.35,-208.08"/>
</g>
<!-- Node18&#45;&gt;Node14 -->
<g id="edge15" class="edge">
<title>Node18&#45;&gt;Node14</title>
<path fill="none" stroke="midnightblue" d="M292.62,-235.45C316.72,-227.58 351.94,-214.76 380.5,-199 409.4,-183.05 439.45,-159.35 457.82,-143.91"/>
<polygon fill="midnightblue" stroke="midnightblue" points="460.51,-146.21 465.84,-137.06 455.97,-140.89 460.51,-146.21"/>
</g>
<!-- Node19 -->
<g id="node10" class="node">
<title>Node19</title>
<g id="a_node10"><a xlink:href="board_8hpp.html" target="_top" xlink:title=" ">
<polygon fill="white" stroke="red" points="24.5,-179.5 24.5,-198.5 104.5,-198.5 104.5,-179.5 24.5,-179.5"/>
<text text-anchor="middle" x="64.5" y="-186.5" font-family="Helvetica,sans-Serif" font-size="10.00">fw/board.hpp</text>
</a>
</g>
</g>
<!-- Node18&#45;&gt;Node19 -->
<g id="edge13" class="edge">
<title>Node18&#45;&gt;Node19</title>
<path fill="none" stroke="midnightblue" d="M232.81,-235.44C198.43,-226.16 143.42,-211.31 105.71,-201.13"/>
<polygon fill="midnightblue" stroke="midnightblue" points="106.61,-197.74 96.04,-198.52 104.78,-204.5 106.61,-197.74"/>
</g>
<!-- Node22 -->
<g id="node11" class="node">
<title>Node22</title>
<g id="a_node11"><a xlink:href="hbridge_8hpp.html" target="_top" xlink:title=" ">
<polygon fill="white" stroke="red" points="144,-179.5 144,-198.5 251,-198.5 251,-179.5 144,-179.5"/>
<text text-anchor="middle" x="197.5" y="-186.5" font-family="Helvetica,sans-Serif" font-size="10.00">fw/drv/hbridge.hpp</text>
</a>
</g>
</g>
<!-- Node18&#45;&gt;Node22 -->
<g id="edge16" class="edge">
<title>Node18&#45;&gt;Node22</title>
<path fill="none" stroke="midnightblue" d="M253.74,-235.32C243.73,-227.26 228.61,-215.08 216.57,-205.37"/>
<polygon fill="midnightblue" stroke="midnightblue" points="218.44,-202.38 208.46,-198.83 214.05,-207.83 218.44,-202.38"/>
</g>
<!-- Node19&#45;&gt;Node10 -->
<g id="edge14" class="edge">
<title>Node19&#45;&gt;Node10</title>
<path fill="none" stroke="midnightblue" d="M62.92,-179.48C61.37,-171.08 58.95,-157.98 56.95,-147.16"/>
<polygon fill="midnightblue" stroke="midnightblue" points="60.33,-146.21 55.07,-137.01 53.45,-147.48 60.33,-146.21"/>
</g>
<!-- Node22&#45;&gt;Node10 -->
<g id="edge17" class="edge">
<title>Node22&#45;&gt;Node10</title>
<path fill="none" stroke="midnightblue" d="M176.87,-179.48C152.38,-169.36 111.35,-152.4 83.39,-140.85"/>
<polygon fill="midnightblue" stroke="midnightblue" points="84.67,-137.59 74.09,-137.01 82,-144.06 84.67,-137.59"/>
</g>
<!-- Node22&#45;&gt;Node15 -->
<g id="edge18" class="edge">
<title>Node22&#45;&gt;Node15</title>
<path fill="none" stroke="midnightblue" d="M186.01,-179.29C168.05,-164.6 137.07,-134.36 154.5,-112 170.24,-91.81 236.06,-79.3 283.31,-72.74"/>
<polygon fill="midnightblue" stroke="midnightblue" points="283.94,-76.18 293.39,-71.39 283.01,-69.25 283.94,-76.18"/>
</g>
<!-- Node22&#45;&gt;Node17 -->
<g id="edge19" class="edge">
<title>Node22&#45;&gt;Node17</title>
<path fill="none" stroke="midnightblue" d="M202.23,-179.48C206.28,-172.17 212.31,-161.3 217.76,-151.47"/>
<polygon fill="midnightblue" stroke="midnightblue" points="220.93,-152.97 222.72,-142.52 214.81,-149.57 220.93,-152.97"/>
</g>
</g>
</svg>
