<?xml version="1.0" encoding="UTF-8" standalone="no"?>
<!DOCTYPE svg PUBLIC "-//W3C//DTD SVG 1.1//EN"
 "http://www.w3.org/Graphics/SVG/1.1/DTD/svg11.dtd">
<!-- Generated by graphviz version 2.43.0 (0)
 -->
<!-- Title: src/brd/brd.hpp Pages: 1 -->
<svg width="312pt" height="214pt"
 viewBox="0.00 0.00 311.50 214.00" xmlns="http://www.w3.org/2000/svg" xmlns:xlink="http://www.w3.org/1999/xlink">
<g id="graph0" class="graph" transform="scale(1 1) rotate(0) translate(4 210)">
<title>src/brd/brd.hpp</title>
<!-- Node1 -->
<g id="Node000001" class="node">
<title>Node1</title>
<g id="a_Node000001"><a xlink:title=" ">
<polygon fill="#999999" stroke="#666666" points="186.5,-206 97.5,-206 97.5,-187 186.5,-187 186.5,-206"/>
<text text-anchor="middle" x="142" y="-194" font-family="Helvetica,sans-Serif" font-size="10.00">src/brd/brd.hpp</text>
</a>
</g>
</g>
<!-- Node2 -->
<g id="Node000002" class="node">
<title>Node2</title>
<g id="a_Node000002"><a xlink:href="drivers_8hpp.html" target="_top" xlink:title=" ">
<polygon fill="white" stroke="#666666" points="194,-151 90,-151 90,-132 194,-132 194,-151"/>
<text text-anchor="middle" x="142" y="-139" font-family="Helvetica,sans-Serif" font-size="10.00">../core/drivers.hpp</text>
</a>
</g>
</g>
<!-- Node1&#45;&gt;Node2 -->
<g id="edge1_Node000001_Node000002" class="edge">
<title>Node1&#45;&gt;Node2</title>
<g id="a_edge1_Node000001_Node000002"><a xlink:title=" ">
<path fill="none" stroke="#63b8ff" d="M142,-186.75C142,-179.8 142,-169.85 142,-161.13"/>
<polygon fill="#63b8ff" stroke="#63b8ff" points="145.5,-161.09 142,-151.09 138.5,-161.09 145.5,-161.09"/>
</a>
</g>
</g>
<!-- Node3 -->
<g id="Node000003" class="node">
<title>Node3</title>
<g id="a_Node000003"><a xlink:href="interfaces_8hpp.html" target="_top" xlink:title=" ">
<polygon fill="#fff0f0" stroke="red" points="114,-90.5 0,-90.5 0,-71.5 114,-71.5 114,-90.5"/>
<text text-anchor="middle" x="57" y="-78.5" font-family="Helvetica,sans-Serif" font-size="10.00">../drv/interfaces.hpp</text>
</a>
</g>
</g>
<!-- Node2&#45;&gt;Node3 -->
<g id="edge2_Node000002_Node000003" class="edge">
<title>Node2&#45;&gt;Node3</title>
<g id="a_edge2_Node000002_Node000003"><a xlink:title=" ">
<path fill="none" stroke="#63b8ff" d="M129.46,-131.87C115.9,-122.54 94.06,-107.51 77.9,-96.38"/>
<polygon fill="#63b8ff" stroke="#63b8ff" points="79.82,-93.45 69.59,-90.67 75.85,-99.22 79.82,-93.45"/>
</a>
</g>
</g>
<!-- Node25 -->
<g id="Node000025" class="node">
<title>Node25</title>
<g id="a_Node000025"><a xlink:title=" ">
<polygon fill="#e0e0e0" stroke="#999999" points="165.5,-30 32.5,-30 32.5,0 165.5,0 165.5,-30"/>
<text text-anchor="start" x="40.5" y="-18" font-family="Helvetica,sans-Serif" font-size="10.00">emlabcpp/experimental</text>
<text text-anchor="middle" x="99" y="-7" font-family="Helvetica,sans-Serif" font-size="10.00">/function_view.hpp</text>
</a>
</g>
</g>
<!-- Node2&#45;&gt;Node25 -->
<g id="edge5_Node000002_Node000025" class="edge">
<title>Node2&#45;&gt;Node25</title>
<g id="a_edge5_Node000002_Node000025"><a xlink:title=" ">
<path fill="none" stroke="#63b8ff" d="M140.33,-131.61C137.53,-117.47 131.39,-89.08 123,-66 119.74,-57.02 115.4,-47.5 111.31,-39.19"/>
<polygon fill="#63b8ff" stroke="#63b8ff" points="114.35,-37.45 106.7,-30.12 108.11,-40.62 114.35,-37.45"/>
</a>
</g>
</g>
<!-- Node27 -->
<g id="Node000027" class="node">
<title>Node27</title>
<g id="a_Node000027"><a xlink:title=" ">
<polygon fill="#e0e0e0" stroke="#999999" points="303.5,-96 170.5,-96 170.5,-66 303.5,-66 303.5,-96"/>
<text text-anchor="start" x="178.5" y="-84" font-family="Helvetica,sans-Serif" font-size="10.00">emlabcpp/experimental</text>
<text text-anchor="middle" x="237" y="-73" font-family="Helvetica,sans-Serif" font-size="10.00">/decompose.hpp</text>
</a>
</g>
</g>
<!-- Node2&#45;&gt;Node27 -->
<g id="edge4_Node000002_Node000027" class="edge">
<title>Node2&#45;&gt;Node27</title>
<g id="a_edge4_Node000002_Node000027"><a xlink:title=" ">
<path fill="none" stroke="#63b8ff" d="M156.02,-131.87C168.91,-123.93 188.49,-111.87 205.17,-101.6"/>
<polygon fill="#63b8ff" stroke="#63b8ff" points="207.4,-104.34 214.08,-96.11 203.73,-98.38 207.4,-104.34"/>
</a>
</g>
</g>
<!-- Node3&#45;&gt;Node25 -->
<g id="edge3_Node000003_Node000025" class="edge">
<title>Node3&#45;&gt;Node25</title>
<g id="a_edge3_Node000003_Node000025"><a xlink:title=" ">
<path fill="none" stroke="#63b8ff" d="M62.66,-71.37C68.11,-63.08 76.57,-50.18 83.96,-38.92"/>
<polygon fill="#63b8ff" stroke="#63b8ff" points="87.02,-40.64 89.58,-30.36 81.16,-36.8 87.02,-40.64"/>
</a>
</g>
</g>
</g>
</svg>
