<?xml version="1.0" encoding="UTF-8" standalone="no"?>
<!DOCTYPE svg PUBLIC "-//W3C//DTD SVG 1.1//EN"
 "http://www.w3.org/Graphics/SVG/1.1/DTD/svg11.dtd">
<!-- Generated by graphviz version 2.43.0 (0)
 -->
<!-- Title: src/brd/prototype2/setup.hpp Pages: 1 -->
<svg width="710pt" height="330pt"
 viewBox="0.00 0.00 710.24 330.00" xmlns="http://www.w3.org/2000/svg" xmlns:xlink="http://www.w3.org/1999/xlink">
<g id="graph0" class="graph" transform="scale(1 1) rotate(0) translate(4 326)">
<title>src/brd/prototype2/setup.hpp</title>
<polygon fill="white" stroke="transparent" points="-4,4 -4,-326 706.24,-326 706.24,4 -4,4"/>
<!-- Node1 -->
<g id="node1" class="node">
<title>Node1</title>
<g id="a_node1"><a xlink:title=" ">
<polygon fill="#bfbfbf" stroke="black" points="409.85,-291.5 409.85,-321.5 515.85,-321.5 515.85,-291.5 409.85,-291.5"/>
<text text-anchor="start" x="417.85" y="-309.5" font-family="Helvetica,sans-Serif" font-size="10.00">src/brd/prototype2</text>
<text text-anchor="middle" x="462.85" y="-298.5" font-family="Helvetica,sans-Serif" font-size="10.00">/setup.hpp</text>
</a>
</g>
</g>
<!-- Node2 -->
<g id="node2" class="node">
<title>Node2</title>
<g id="a_node2"><a xlink:href="board_8hpp.html" target="_top" xlink:title=" ">
<polygon fill="white" stroke="black" points="22.85,-235.5 22.85,-254.5 102.85,-254.5 102.85,-235.5 22.85,-235.5"/>
<text text-anchor="middle" x="62.85" y="-242.5" font-family="Helvetica,sans-Serif" font-size="10.00">fw/board.hpp</text>
</a>
</g>
</g>
<!-- Node1&#45;&gt;Node2 -->
<g id="edge1" class="edge">
<title>Node1&#45;&gt;Node2</title>
<path fill="none" stroke="midnightblue" d="M409.73,-297.6C332.19,-286.07 189.02,-264.77 113.13,-253.48"/>
<polygon fill="midnightblue" stroke="midnightblue" points="113.28,-249.96 102.88,-251.95 112.25,-256.89 113.28,-249.96"/>
</g>
<!-- Node14 -->
<g id="node8" class="node">
<title>Node14</title>
<g id="a_node8"><a xlink:href="defs_8hpp.html" target="_top" xlink:title=" ">
<polygon fill="white" stroke="black" points="529.85,-174 529.85,-193 621.85,-193 621.85,-174 529.85,-174"/>
<text text-anchor="middle" x="575.85" y="-181" font-family="Helvetica,sans-Serif" font-size="10.00">fw/drv/defs.hpp</text>
</a>
</g>
</g>
<!-- Node1&#45;&gt;Node14 -->
<g id="edge8" class="edge">
<title>Node1&#45;&gt;Node14</title>
<path fill="none" stroke="midnightblue" d="M476.25,-291.14C497.48,-268.41 538.71,-224.27 560.88,-200.53"/>
<polygon fill="midnightblue" stroke="midnightblue" points="563.59,-202.75 567.86,-193.05 558.48,-197.97 563.59,-202.75"/>
</g>
<!-- Node17 -->
<g id="node10" class="node">
<title>Node17</title>
<g id="a_node10"><a xlink:href="hbridge_8hpp.html" target="_top" xlink:title=" ">
<polygon fill="white" stroke="black" points="277.35,-235.5 277.35,-254.5 384.35,-254.5 384.35,-235.5 277.35,-235.5"/>
<text text-anchor="middle" x="330.85" y="-242.5" font-family="Helvetica,sans-Serif" font-size="10.00">fw/drv/hbridge.hpp</text>
</a>
</g>
</g>
<!-- Node1&#45;&gt;Node17 -->
<g id="edge11" class="edge">
<title>Node1&#45;&gt;Node17</title>
<path fill="none" stroke="midnightblue" d="M431.56,-291.4C409.61,-281.51 380.5,-268.38 359.22,-258.79"/>
<polygon fill="midnightblue" stroke="midnightblue" points="360.61,-255.58 350.05,-254.66 357.73,-261.96 360.61,-255.58"/>
</g>
<!-- Node20 -->
<g id="node13" class="node">
<title>Node20</title>
<g id="a_node13"><a xlink:href="leds_8hpp.html" target="_top" xlink:title=" ">
<polygon fill="white" stroke="black" points="604.35,-235.5 604.35,-254.5 695.35,-254.5 695.35,-235.5 604.35,-235.5"/>
<text text-anchor="middle" x="649.85" y="-242.5" font-family="Helvetica,sans-Serif" font-size="10.00">fw/drv/leds.hpp</text>
</a>
</g>
</g>
<!-- Node1&#45;&gt;Node20 -->
<g id="edge20" class="edge">
<title>Node1&#45;&gt;Node20</title>
<path fill="none" stroke="midnightblue" d="M507.16,-291.4C539.47,-281.12 582.74,-267.35 613.13,-257.68"/>
<polygon fill="midnightblue" stroke="midnightblue" points="614.44,-260.94 622.91,-254.57 612.32,-254.27 614.44,-260.94"/>
</g>
<!-- Node3 -->
<g id="node3" class="node">
<title>Node3</title>
<g id="a_node3"><a xlink:href="drv__interfaces_8hpp.html" target="_top" xlink:title=" ">
<polygon fill="white" stroke="red" points="272.85,-112.5 272.85,-131.5 406.85,-131.5 406.85,-112.5 272.85,-112.5"/>
<text text-anchor="middle" x="339.85" y="-119.5" font-family="Helvetica,sans-Serif" font-size="10.00">base/drv_interfaces.hpp</text>
</a>
</g>
</g>
<!-- Node2&#45;&gt;Node3 -->
<g id="edge2" class="edge">
<title>Node2&#45;&gt;Node3</title>
<path fill="none" stroke="midnightblue" d="M44.76,-235.39C31.28,-227.87 13.87,-215.57 5.85,-199 -0.16,-186.6 -3.22,-178.37 5.85,-168 38.49,-130.66 174.38,-123.04 262.45,-122.15"/>
<polygon fill="midnightblue" stroke="midnightblue" points="262.71,-125.65 272.68,-122.08 262.65,-118.65 262.71,-125.65"/>
</g>
<!-- Node12 -->
<g id="node7" class="node">
<title>Node12</title>
<g id="a_node7"><a xlink:href="globals_8hpp.html" target="_top" xlink:title=" ">
<polygon fill="white" stroke="red" points="14.35,-174 14.35,-193 111.35,-193 111.35,-174 14.35,-174"/>
<text text-anchor="middle" x="62.85" y="-181" font-family="Helvetica,sans-Serif" font-size="10.00">core/globals.hpp</text>
</a>
</g>
</g>
<!-- Node2&#45;&gt;Node12 -->
<g id="edge7" class="edge">
<title>Node2&#45;&gt;Node12</title>
<path fill="none" stroke="midnightblue" d="M62.85,-235.48C62.85,-227.08 62.85,-213.98 62.85,-203.16"/>
<polygon fill="midnightblue" stroke="midnightblue" points="66.35,-203.01 62.85,-193.01 59.35,-203.01 66.35,-203.01"/>
</g>
<!-- Node4 -->
<g id="node4" class="node">
<title>Node4</title>
<g id="a_node4"><a xlink:href="base_8hpp.html" target="_top" xlink:title=" ">
<polygon fill="white" stroke="red" points="368.35,-56.5 368.35,-75.5 429.35,-75.5 429.35,-56.5 368.35,-56.5"/>
<text text-anchor="middle" x="398.85" y="-63.5" font-family="Helvetica,sans-Serif" font-size="10.00">base.hpp</text>
</a>
</g>
</g>
<!-- Node3&#45;&gt;Node4 -->
<g id="edge3" class="edge">
<title>Node3&#45;&gt;Node4</title>
<path fill="none" stroke="midnightblue" d="M349.32,-112.32C358.05,-104.34 371.19,-92.31 381.74,-82.65"/>
<polygon fill="midnightblue" stroke="midnightblue" points="384.18,-85.17 389.19,-75.83 379.45,-80 384.18,-85.17"/>
</g>
<!-- Node6 -->
<g id="node5" class="node">
<title>Node6</title>
<g id="a_node5"><a xlink:title=" ">
<polygon fill="white" stroke="#bfbfbf" points="343.85,-0.5 343.85,-19.5 393.85,-19.5 393.85,-0.5 343.85,-0.5"/>
<text text-anchor="middle" x="368.85" y="-7.5" font-family="Helvetica,sans-Serif" font-size="10.00">cstdint</text>
</a>
</g>
</g>
<!-- Node3&#45;&gt;Node6 -->
<g id="edge5" class="edge">
<title>Node3&#45;&gt;Node6</title>
<path fill="none" stroke="midnightblue" d="M342.12,-112.37C346.82,-94.54 357.69,-53.3 364.03,-29.27"/>
<polygon fill="midnightblue" stroke="midnightblue" points="367.42,-30.15 366.58,-19.59 360.65,-28.37 367.42,-30.15"/>
</g>
<!-- Node11 -->
<g id="node6" class="node">
<title>Node11</title>
<g id="a_node6"><a xlink:title=" ">
<polygon fill="white" stroke="#bfbfbf" points="253.85,-56.5 253.85,-75.5 293.85,-75.5 293.85,-56.5 253.85,-56.5"/>
<text text-anchor="middle" x="273.85" y="-63.5" font-family="Helvetica,sans-Serif" font-size="10.00">span</text>
</a>
</g>
</g>
<!-- Node3&#45;&gt;Node11 -->
<g id="edge6" class="edge">
<title>Node3&#45;&gt;Node11</title>
<path fill="none" stroke="midnightblue" d="M329.24,-112.32C319.39,-104.26 304.49,-92.08 292.63,-82.37"/>
<polygon fill="midnightblue" stroke="midnightblue" points="294.6,-79.46 284.64,-75.83 290.17,-84.88 294.6,-79.46"/>
</g>
<!-- Node4&#45;&gt;Node6 -->
<g id="edge4" class="edge">
<title>Node4&#45;&gt;Node6</title>
<path fill="none" stroke="midnightblue" d="M393.89,-56.08C389.74,-48.61 383.69,-37.72 378.58,-28.52"/>
<polygon fill="midnightblue" stroke="midnightblue" points="381.62,-26.79 373.71,-19.75 375.5,-30.19 381.62,-26.79"/>
</g>
<!-- Node15 -->
<g id="node9" class="node">
<title>Node15</title>
<g id="a_node9"><a xlink:href="platform_8hpp.html" target="_top" xlink:title=" ">
<polygon fill="white" stroke="red" points="489.85,-112.5 489.85,-131.5 569.85,-131.5 569.85,-112.5 489.85,-112.5"/>
<text text-anchor="middle" x="529.85" y="-119.5" font-family="Helvetica,sans-Serif" font-size="10.00">platform.hpp</text>
</a>
</g>
</g>
<!-- Node14&#45;&gt;Node15 -->
<g id="edge9" class="edge">
<title>Node14&#45;&gt;Node15</title>
<path fill="none" stroke="midnightblue" d="M569.25,-173.98C562.35,-165.05 551.34,-150.81 542.71,-139.64"/>
<polygon fill="midnightblue" stroke="midnightblue" points="545.31,-137.28 536.42,-131.51 539.77,-141.56 545.31,-137.28"/>
</g>
<!-- Node15&#45;&gt;Node11 -->
<g id="edge10" class="edge">
<title>Node15&#45;&gt;Node11</title>
<path fill="none" stroke="midnightblue" d="M489.56,-112.5C438.09,-101.65 350.17,-83.1 304.07,-73.38"/>
<polygon fill="midnightblue" stroke="midnightblue" points="304.6,-69.91 294.1,-71.27 303.16,-76.76 304.6,-69.91"/>
</g>
<!-- Node17&#45;&gt;Node3 -->
<g id="edge12" class="edge">
<title>Node17&#45;&gt;Node3</title>
<path fill="none" stroke="midnightblue" d="M331.36,-235.1C332.21,-220.91 333.97,-192.26 335.85,-168 336.51,-159.39 337.34,-149.86 338.08,-141.8"/>
<polygon fill="midnightblue" stroke="midnightblue" points="341.58,-141.9 339.02,-131.62 334.61,-141.26 341.58,-141.9"/>
</g>
<!-- Node17&#45;&gt;Node11 -->
<g id="edge19" class="edge">
<title>Node17&#45;&gt;Node11</title>
<path fill="none" stroke="midnightblue" d="M277.17,-237.15C232.28,-230.19 173.32,-217.75 158.85,-199 123.8,-153.61 202.86,-103.43 246.88,-80.17"/>
<polygon fill="midnightblue" stroke="midnightblue" points="248.66,-83.2 255.95,-75.5 245.46,-76.97 248.66,-83.2"/>
</g>
<!-- Node17&#45;&gt;Node15 -->
<g id="edge17" class="edge">
<title>Node17&#45;&gt;Node15</title>
<path fill="none" stroke="midnightblue" d="M332.87,-235.26C337,-219.41 347.92,-185.93 369.85,-168 400.82,-142.67 445.18,-131.58 479.34,-126.73"/>
<polygon fill="midnightblue" stroke="midnightblue" points="480.11,-130.16 489.58,-125.42 479.22,-123.22 480.11,-130.16"/>
</g>
<!-- Node18 -->
<g id="node11" class="node">
<title>Node18</title>
<g id="a_node11"><a xlink:href="fw_2drv_2callbacks_8hpp.html" target="_top" xlink:title=" ">
<polygon fill="white" stroke="black" points="167.85,-174 167.85,-193 283.85,-193 283.85,-174 167.85,-174"/>
<text text-anchor="middle" x="225.85" y="-181" font-family="Helvetica,sans-Serif" font-size="10.00">fw/drv/callbacks.hpp</text>
</a>
</g>
</g>
<!-- Node17&#45;&gt;Node18 -->
<g id="edge13" class="edge">
<title>Node17&#45;&gt;Node18</title>
<path fill="none" stroke="midnightblue" d="M315.8,-235.48C298.57,-225.71 270.11,-209.58 249.81,-198.08"/>
<polygon fill="midnightblue" stroke="midnightblue" points="251.29,-194.89 240.86,-193.01 247.84,-200.98 251.29,-194.89"/>
</g>
<!-- Node19 -->
<g id="node12" class="node">
<title>Node19</title>
<g id="a_node12"><a xlink:title=" ">
<polygon fill="white" stroke="#bfbfbf" points="378.35,-168.5 378.35,-198.5 511.35,-198.5 511.35,-168.5 378.35,-168.5"/>
<text text-anchor="start" x="386.35" y="-186.5" font-family="Helvetica,sans-Serif" font-size="10.00">emlabcpp/experimental</text>
<text text-anchor="middle" x="444.85" y="-175.5" font-family="Helvetica,sans-Serif" font-size="10.00">/function_view.h</text>
</a>
</g>
</g>
<!-- Node17&#45;&gt;Node19 -->
<g id="edge18" class="edge">
<title>Node17&#45;&gt;Node19</title>
<path fill="none" stroke="midnightblue" d="M347.18,-235.48C363.27,-227.08 388.38,-213.97 409.11,-203.15"/>
<polygon fill="midnightblue" stroke="midnightblue" points="410.73,-206.25 417.98,-198.52 407.49,-200.05 410.73,-206.25"/>
</g>
<!-- Node18&#45;&gt;Node3 -->
<g id="edge14" class="edge">
<title>Node18&#45;&gt;Node3</title>
<path fill="none" stroke="midnightblue" d="M242.18,-173.98C261.06,-164.12 292.35,-147.79 314.42,-136.27"/>
<polygon fill="midnightblue" stroke="midnightblue" points="316.3,-139.24 323.54,-131.51 313.06,-133.03 316.3,-139.24"/>
</g>
<!-- Node18&#45;&gt;Node6 -->
<g id="edge15" class="edge">
<title>Node18&#45;&gt;Node6</title>
<path fill="none" stroke="midnightblue" d="M224.42,-173.96C221.22,-151.74 215.87,-91.4 244.85,-56 266.55,-29.48 305.24,-18.59 333.65,-14.12"/>
<polygon fill="midnightblue" stroke="midnightblue" points="334.17,-17.58 343.6,-12.74 333.21,-10.64 334.17,-17.58"/>
</g>
<!-- Node18&#45;&gt;Node11 -->
<g id="edge16" class="edge">
<title>Node18&#45;&gt;Node11</title>
<path fill="none" stroke="midnightblue" d="M229.45,-173.82C237.24,-155.09 255.75,-110.55 266.24,-85.29"/>
<polygon fill="midnightblue" stroke="midnightblue" points="269.59,-86.36 270.2,-75.78 263.13,-83.67 269.59,-86.36"/>
</g>
<!-- Node20&#45;&gt;Node3 -->
<g id="edge22" class="edge">
<title>Node20&#45;&gt;Node3</title>
<path fill="none" stroke="midnightblue" d="M650.49,-235.43C651.18,-219.55 650.14,-185.6 630.85,-168 615.2,-153.73 497.94,-139.08 417.14,-130.52"/>
<polygon fill="midnightblue" stroke="midnightblue" points="417.29,-127.02 406.98,-129.46 416.56,-133.98 417.29,-127.02"/>
</g>
<!-- Node20&#45;&gt;Node4 -->
<g id="edge21" class="edge">
<title>Node20&#45;&gt;Node4</title>
<path fill="none" stroke="midnightblue" d="M658.56,-235.18C671.86,-220.59 694.34,-190.81 680.85,-168 631.67,-84.91 505.5,-69.22 439.87,-66.87"/>
<polygon fill="midnightblue" stroke="midnightblue" points="439.59,-63.36 429.5,-66.59 439.4,-70.35 439.59,-63.36"/>
</g>
<!-- Node20&#45;&gt;Node6 -->
<g id="edge25" class="edge">
<title>Node20&#45;&gt;Node6</title>
<path fill="none" stroke="midnightblue" d="M663.92,-235.26C675.2,-227.35 690.19,-214.58 696.85,-199 714.1,-158.58 685.9,-137.13 649.85,-112 571.54,-57.41 460.51,-29.1 404.33,-17.5"/>
<polygon fill="midnightblue" stroke="midnightblue" points="404.67,-14 394.18,-15.47 403.3,-20.87 404.67,-14"/>
</g>
<!-- Node20&#45;&gt;Node14 -->
<g id="edge23" class="edge">
<title>Node20&#45;&gt;Node14</title>
<path fill="none" stroke="midnightblue" d="M639.24,-235.48C627.59,-226.11 608.66,-210.88 594.51,-199.51"/>
<polygon fill="midnightblue" stroke="midnightblue" points="596.41,-196.55 586.43,-193.01 592.03,-202 596.41,-196.55"/>
</g>
<!-- Node20&#45;&gt;Node15 -->
<g id="edge24" class="edge">
<title>Node20&#45;&gt;Node15</title>
<path fill="none" stroke="midnightblue" d="M655.4,-235.1C664.12,-219.87 678.57,-188.48 663.85,-168 644.88,-141.62 609.69,-130.49 580.13,-125.89"/>
<polygon fill="midnightblue" stroke="midnightblue" points="580.33,-122.39 569.95,-124.52 579.39,-129.33 580.33,-122.39"/>
</g>
<!-- Node20&#45;&gt;Node19 -->
<g id="edge26" class="edge">
<title>Node20&#45;&gt;Node19</title>
<path fill="none" stroke="midnightblue" d="M620.47,-235.48C589.98,-226.63 541.48,-212.55 503.17,-201.43"/>
<polygon fill="midnightblue" stroke="midnightblue" points="503.74,-197.95 493.16,-198.52 501.79,-204.67 503.74,-197.95"/>
</g>
</g>
</svg>
