<?xml version="1.0" encoding="UTF-8" standalone="no"?>
<!DOCTYPE svg PUBLIC "-//W3C//DTD SVG 1.1//EN"
 "http://www.w3.org/Graphics/SVG/1.1/DTD/svg11.dtd">
<!-- Generated by graphviz version 2.43.0 (0)
 -->
<!-- Title: src/brd/prototype2/clock.cpp Pages: 1 -->
<svg width="434pt" height="151pt"
 viewBox="0.00 0.00 433.50 151.00" xmlns="http://www.w3.org/2000/svg" xmlns:xlink="http://www.w3.org/1999/xlink">
<g id="graph0" class="graph" transform="scale(1 1) rotate(0) translate(4 147)">
<title>src/brd/prototype2/clock.cpp</title>
<polygon fill="white" stroke="transparent" points="-4,4 -4,-147 429.5,-147 429.5,4 -4,4"/>
<!-- Node1 -->
<g id="node1" class="node">
<title>Node1</title>
<g id="a_node1"><a xlink:title=" ">
<polygon fill="#bfbfbf" stroke="black" points="195,-112.5 195,-142.5 301,-142.5 301,-112.5 195,-112.5"/>
<text text-anchor="start" x="203" y="-130.5" font-family="Helvetica,sans-Serif" font-size="10.00">src/brd/prototype2</text>
<text text-anchor="middle" x="248" y="-119.5" font-family="Helvetica,sans-Serif" font-size="10.00">/clock.cpp</text>
</a>
</g>
</g>
<!-- Node2 -->
<g id="node2" class="node">
<title>Node2</title>
<g id="a_node2"><a xlink:title=" ">
<polygon fill="white" stroke="#bfbfbf" points="0,-56.5 0,-75.5 104,-75.5 104,-56.5 0,-56.5"/>
<text text-anchor="middle" x="52" y="-63.5" font-family="Helvetica,sans-Serif" font-size="10.00">emlabcpp/result.h</text>
</a>
</g>
</g>
<!-- Node1&#45;&gt;Node2 -->
<g id="edge1" class="edge">
<title>Node1&#45;&gt;Node2</title>
<path fill="none" stroke="midnightblue" d="M201.55,-112.4C167.54,-102.07 121.94,-88.23 90.07,-78.56"/>
<polygon fill="midnightblue" stroke="midnightblue" points="90.82,-75.13 80.23,-75.57 88.79,-81.82 90.82,-75.13"/>
</g>
<!-- Node3 -->
<g id="node3" class="node">
<title>Node3</title>
<g id="a_node3"><a xlink:href="util_8hpp.html" target="_top" xlink:title=" ">
<polygon fill="white" stroke="black" points="122,-56.5 122,-75.5 190,-75.5 190,-56.5 122,-56.5"/>
<text text-anchor="middle" x="156" y="-63.5" font-family="Helvetica,sans-Serif" font-size="10.00">fw/util.hpp</text>
</a>
</g>
</g>
<!-- Node1&#45;&gt;Node3 -->
<g id="edge2" class="edge">
<title>Node1&#45;&gt;Node3</title>
<path fill="none" stroke="midnightblue" d="M226.2,-112.4C211.59,-102.95 192.43,-90.56 177.82,-81.11"/>
<polygon fill="midnightblue" stroke="midnightblue" points="179.68,-78.15 169.39,-75.66 175.88,-84.03 179.68,-78.15"/>
</g>
<!-- Node6 -->
<g id="node6" class="node">
<title>Node6</title>
<g id="a_node6"><a xlink:href="platform_8hpp.html" target="_top" xlink:title=" ">
<polygon fill="white" stroke="black" points="208,-56.5 208,-75.5 288,-75.5 288,-56.5 208,-56.5"/>
<text text-anchor="middle" x="248" y="-63.5" font-family="Helvetica,sans-Serif" font-size="10.00">platform.hpp</text>
</a>
</g>
</g>
<!-- Node1&#45;&gt;Node6 -->
<g id="edge5" class="edge">
<title>Node1&#45;&gt;Node6</title>
<path fill="none" stroke="midnightblue" d="M248,-112.4C248,-104.47 248,-94.46 248,-85.86"/>
<polygon fill="midnightblue" stroke="midnightblue" points="251.5,-85.66 248,-75.66 244.5,-85.66 251.5,-85.66"/>
</g>
<!-- Node9 -->
<g id="node9" class="node">
<title>Node9</title>
<g id="a_node9"><a xlink:title=" ">
<polygon fill="white" stroke="#bfbfbf" points="306,-56.5 306,-75.5 358,-75.5 358,-56.5 306,-56.5"/>
<text text-anchor="middle" x="332" y="-63.5" font-family="Helvetica,sans-Serif" font-size="10.00">cassert</text>
</a>
</g>
</g>
<!-- Node1&#45;&gt;Node9 -->
<g id="edge8" class="edge">
<title>Node1&#45;&gt;Node9</title>
<path fill="none" stroke="midnightblue" d="M267.91,-112.4C280.99,-103.13 298.08,-91.03 311.32,-81.65"/>
<polygon fill="midnightblue" stroke="midnightblue" points="313.64,-84.29 319.78,-75.66 309.59,-78.58 313.64,-84.29"/>
</g>
<!-- Node10 -->
<g id="node10" class="node">
<title>Node10</title>
<g id="a_node10"><a xlink:title=" ">
<polygon fill="white" stroke="#bfbfbf" points="376.5,-56.5 376.5,-75.5 425.5,-75.5 425.5,-56.5 376.5,-56.5"/>
<text text-anchor="middle" x="401" y="-63.5" font-family="Helvetica,sans-Serif" font-size="10.00">cstdlib</text>
</a>
</g>
</g>
<!-- Node1&#45;&gt;Node10 -->
<g id="edge9" class="edge">
<title>Node1&#45;&gt;Node10</title>
<path fill="none" stroke="midnightblue" d="M284.26,-112.4C310.04,-102.37 344.36,-89.03 369.1,-79.4"/>
<polygon fill="midnightblue" stroke="midnightblue" points="370.69,-82.54 378.74,-75.66 368.15,-76.02 370.69,-82.54"/>
</g>
<!-- Node4 -->
<g id="node4" class="node">
<title>Node4</title>
<g id="a_node4"><a xlink:title=" ">
<polygon fill="white" stroke="#bfbfbf" points="54,-0.5 54,-19.5 118,-19.5 118,-0.5 54,-0.5"/>
<text text-anchor="middle" x="86" y="-7.5" font-family="Helvetica,sans-Serif" font-size="10.00">algorithm</text>
</a>
</g>
</g>
<!-- Node3&#45;&gt;Node4 -->
<g id="edge3" class="edge">
<title>Node3&#45;&gt;Node4</title>
<path fill="none" stroke="midnightblue" d="M144.75,-56.32C134.2,-48.18 118.2,-35.84 105.56,-26.09"/>
<polygon fill="midnightblue" stroke="midnightblue" points="107.51,-23.17 97.45,-19.83 103.23,-28.71 107.51,-23.17"/>
</g>
<!-- Node5 -->
<g id="node5" class="node">
<title>Node5</title>
<g id="a_node5"><a xlink:title=" ">
<polygon fill="white" stroke="#bfbfbf" points="136,-0.5 136,-19.5 186,-19.5 186,-0.5 136,-0.5"/>
<text text-anchor="middle" x="161" y="-7.5" font-family="Helvetica,sans-Serif" font-size="10.00">cstring</text>
</a>
</g>
</g>
<!-- Node3&#45;&gt;Node5 -->
<g id="edge4" class="edge">
<title>Node3&#45;&gt;Node5</title>
<path fill="none" stroke="midnightblue" d="M156.83,-56.08C157.48,-49.01 158.42,-38.86 159.24,-29.99"/>
<polygon fill="midnightblue" stroke="midnightblue" points="162.75,-30.03 160.19,-19.75 155.78,-29.39 162.75,-30.03"/>
</g>
<!-- Node7 -->
<g id="node7" class="node">
<title>Node7</title>
<g id="a_node7"><a xlink:title=" ">
<polygon fill="white" stroke="#bfbfbf" points="215.5,-0.5 215.5,-19.5 268.5,-19.5 268.5,-0.5 215.5,-0.5"/>
<text text-anchor="middle" x="242" y="-7.5" font-family="Helvetica,sans-Serif" font-size="10.00">hal.hpp</text>
</a>
</g>
</g>
<!-- Node6&#45;&gt;Node7 -->
<g id="edge6" class="edge">
<title>Node6&#45;&gt;Node7</title>
<path fill="none" stroke="midnightblue" d="M247.01,-56.08C246.21,-48.93 245.07,-38.64 244.08,-29.69"/>
<polygon fill="midnightblue" stroke="midnightblue" points="247.56,-29.3 242.97,-19.75 240.6,-30.08 247.56,-29.3"/>
</g>
<!-- Node8 -->
<g id="node8" class="node">
<title>Node8</title>
<g id="a_node8"><a xlink:title=" ">
<polygon fill="white" stroke="#bfbfbf" points="287,-0.5 287,-19.5 327,-19.5 327,-0.5 287,-0.5"/>
<text text-anchor="middle" x="307" y="-7.5" font-family="Helvetica,sans-Serif" font-size="10.00">span</text>
</a>
</g>
</g>
<!-- Node6&#45;&gt;Node8 -->
<g id="edge7" class="edge">
<title>Node6&#45;&gt;Node8</title>
<path fill="none" stroke="midnightblue" d="M257.48,-56.32C266.2,-48.34 279.34,-36.31 289.9,-26.65"/>
<polygon fill="midnightblue" stroke="midnightblue" points="292.33,-29.17 297.35,-19.83 287.61,-24 292.33,-29.17"/>
</g>
</g>
</svg>
