<?xml version="1.0" encoding="UTF-8" standalone="no"?>
<!DOCTYPE svg PUBLIC "-//W3C//DTD SVG 1.1//EN"
 "http://www.w3.org/Graphics/SVG/1.1/DTD/svg11.dtd">
<!-- Generated by graphviz version 2.43.0 (0)
 -->
<!-- Title: src/brd/prototype2/config.cpp Pages: 1 -->
<svg width="293pt" height="207pt"
 viewBox="0.00 0.00 293.00 207.00" xmlns="http://www.w3.org/2000/svg" xmlns:xlink="http://www.w3.org/1999/xlink">
<g id="graph0" class="graph" transform="scale(1 1) rotate(0) translate(4 203)">
<title>src/brd/prototype2/config.cpp</title>
<polygon fill="white" stroke="transparent" points="-4,4 -4,-203 289,-203 289,4 -4,4"/>
<!-- Node1 -->
<g id="node1" class="node">
<title>Node1</title>
<g id="a_node1"><a xlink:title=" ">
<polygon fill="#bfbfbf" stroke="black" points="114.5,-168.5 114.5,-198.5 220.5,-198.5 220.5,-168.5 114.5,-168.5"/>
<text text-anchor="start" x="122.5" y="-186.5" font-family="Helvetica,sans-Serif" font-size="10.00">src/brd/prototype2</text>
<text text-anchor="middle" x="167.5" y="-175.5" font-family="Helvetica,sans-Serif" font-size="10.00">/config.cpp</text>
</a>
</g>
</g>
<!-- Node2 -->
<g id="node2" class="node">
<title>Node2</title>
<g id="a_node2"><a xlink:href="default_8hpp.html" target="_top" xlink:title=" ">
<polygon fill="white" stroke="black" points="19.5,-112.5 19.5,-131.5 109.5,-131.5 109.5,-112.5 19.5,-112.5"/>
<text text-anchor="middle" x="64.5" y="-119.5" font-family="Helvetica,sans-Serif" font-size="10.00">cfg/default.hpp</text>
</a>
</g>
</g>
<!-- Node1&#45;&gt;Node2 -->
<g id="edge1" class="edge">
<title>Node1&#45;&gt;Node2</title>
<path fill="none" stroke="midnightblue" d="M143.09,-168.4C126.58,-158.86 104.88,-146.32 88.46,-136.84"/>
<polygon fill="midnightblue" stroke="midnightblue" points="89.9,-133.63 79.49,-131.66 86.4,-139.69 89.9,-133.63"/>
</g>
<!-- Node13 -->
<g id="node5" class="node">
<title>Node13</title>
<g id="a_node5"><a xlink:href="platform_8hpp.html" target="_top" xlink:title=" ">
<polygon fill="white" stroke="black" points="127.5,-112.5 127.5,-131.5 207.5,-131.5 207.5,-112.5 127.5,-112.5"/>
<text text-anchor="middle" x="167.5" y="-119.5" font-family="Helvetica,sans-Serif" font-size="10.00">platform.hpp</text>
</a>
</g>
</g>
<!-- Node1&#45;&gt;Node13 -->
<g id="edge5" class="edge">
<title>Node1&#45;&gt;Node13</title>
<path fill="none" stroke="midnightblue" d="M167.5,-168.4C167.5,-160.47 167.5,-150.46 167.5,-141.86"/>
<polygon fill="midnightblue" stroke="midnightblue" points="171,-141.66 167.5,-131.66 164,-141.66 171,-141.66"/>
</g>
<!-- Node9 -->
<g id="node8" class="node">
<title>Node9</title>
<g id="a_node8"><a xlink:title=" ">
<polygon fill="white" stroke="#bfbfbf" points="226,-112.5 226,-131.5 285,-131.5 285,-112.5 226,-112.5"/>
<text text-anchor="middle" x="255.5" y="-119.5" font-family="Helvetica,sans-Serif" font-size="10.00">numbers</text>
</a>
</g>
</g>
<!-- Node1&#45;&gt;Node9 -->
<g id="edge8" class="edge">
<title>Node1&#45;&gt;Node9</title>
<path fill="none" stroke="midnightblue" d="M188.35,-168.4C202.2,-159.04 220.31,-146.79 234.24,-137.38"/>
<polygon fill="midnightblue" stroke="midnightblue" points="236.37,-140.16 242.7,-131.66 232.45,-134.36 236.37,-140.16"/>
</g>
<!-- Node3 -->
<g id="node3" class="node">
<title>Node3</title>
<g id="a_node3"><a xlink:href="key_8hpp.html" target="_top" xlink:title=" ">
<polygon fill="white" stroke="red" points="0,-0.5 0,-19.5 71,-19.5 71,-0.5 0,-0.5"/>
<text text-anchor="middle" x="35.5" y="-7.5" font-family="Helvetica,sans-Serif" font-size="10.00">cfg/key.hpp</text>
</a>
</g>
</g>
<!-- Node2&#45;&gt;Node3 -->
<g id="edge2" class="edge">
<title>Node2&#45;&gt;Node3</title>
<path fill="none" stroke="midnightblue" d="M52,-112.3C41.63,-104.25 27.61,-91.24 21.5,-76 15.34,-60.63 20.48,-42.08 26.19,-28.74"/>
<polygon fill="midnightblue" stroke="midnightblue" points="29.36,-30.22 30.49,-19.69 23.03,-27.22 29.36,-30.22"/>
</g>
<!-- Node5 -->
<g id="node4" class="node">
<title>Node5</title>
<g id="a_node4"><a xlink:href="map_8hpp.html" target="_top" xlink:title=" ">
<polygon fill="white" stroke="red" points="31,-56.5 31,-75.5 108,-75.5 108,-56.5 31,-56.5"/>
<text text-anchor="middle" x="69.5" y="-63.5" font-family="Helvetica,sans-Serif" font-size="10.00">cfg/map.hpp</text>
</a>
</g>
</g>
<!-- Node2&#45;&gt;Node5 -->
<g id="edge3" class="edge">
<title>Node2&#45;&gt;Node5</title>
<path fill="none" stroke="midnightblue" d="M65.33,-112.08C65.98,-105.01 66.92,-94.86 67.74,-85.99"/>
<polygon fill="midnightblue" stroke="midnightblue" points="71.25,-86.03 68.69,-75.75 64.28,-85.39 71.25,-86.03"/>
</g>
<!-- Node5&#45;&gt;Node3 -->
<g id="edge4" class="edge">
<title>Node5&#45;&gt;Node3</title>
<path fill="none" stroke="midnightblue" d="M63.89,-56.08C59.13,-48.53 52.18,-37.49 46.35,-28.23"/>
<polygon fill="midnightblue" stroke="midnightblue" points="49.3,-26.35 41.01,-19.75 43.38,-30.08 49.3,-26.35"/>
</g>
<!-- Node14 -->
<g id="node6" class="node">
<title>Node14</title>
<g id="a_node6"><a xlink:title=" ">
<polygon fill="white" stroke="#bfbfbf" points="136,-56.5 136,-75.5 189,-75.5 189,-56.5 136,-56.5"/>
<text text-anchor="middle" x="162.5" y="-63.5" font-family="Helvetica,sans-Serif" font-size="10.00">hal.hpp</text>
</a>
</g>
</g>
<!-- Node13&#45;&gt;Node14 -->
<g id="edge6" class="edge">
<title>Node13&#45;&gt;Node14</title>
<path fill="none" stroke="midnightblue" d="M166.67,-112.08C166.02,-105.01 165.08,-94.86 164.26,-85.99"/>
<polygon fill="midnightblue" stroke="midnightblue" points="167.72,-85.39 163.31,-75.75 160.75,-86.03 167.72,-85.39"/>
</g>
<!-- Node15 -->
<g id="node7" class="node">
<title>Node15</title>
<g id="a_node7"><a xlink:title=" ">
<polygon fill="white" stroke="#bfbfbf" points="207.5,-56.5 207.5,-75.5 247.5,-75.5 247.5,-56.5 207.5,-56.5"/>
<text text-anchor="middle" x="227.5" y="-63.5" font-family="Helvetica,sans-Serif" font-size="10.00">span</text>
</a>
</g>
</g>
<!-- Node13&#45;&gt;Node15 -->
<g id="edge7" class="edge">
<title>Node13&#45;&gt;Node15</title>
<path fill="none" stroke="midnightblue" d="M177.14,-112.32C186.01,-104.34 199.37,-92.31 210.11,-82.65"/>
<polygon fill="midnightblue" stroke="midnightblue" points="212.59,-85.13 217.68,-75.83 207.91,-79.92 212.59,-85.13"/>
</g>
</g>
</svg>
