<?xml version="1.0" encoding="UTF-8" standalone="no"?>
<!DOCTYPE svg PUBLIC "-//W3C//DTD SVG 1.1//EN"
 "http://www.w3.org/Graphics/SVG/1.1/DTD/svg11.dtd">
<!-- Generated by graphviz version 2.43.0 (0)
 -->
<!-- Title: src/brd/prototype2/clock.cpp Pages: 1 -->
<svg width="611pt" height="207pt"
 viewBox="0.00 0.00 610.50 207.00" xmlns="http://www.w3.org/2000/svg" xmlns:xlink="http://www.w3.org/1999/xlink">
<g id="graph0" class="graph" transform="scale(1 1) rotate(0) translate(4 203)">
<title>src/brd/prototype2/clock.cpp</title>
<polygon fill="white" stroke="transparent" points="-4,4 -4,-203 606.5,-203 606.5,4 -4,4"/>
<!-- Node1 -->
<g id="node1" class="node">
<title>Node1</title>
<g id="a_node1"><a xlink:title=" ">
<polygon fill="#bfbfbf" stroke="black" points="326,-168.5 326,-198.5 432,-198.5 432,-168.5 326,-168.5"/>
<text text-anchor="start" x="334" y="-186.5" font-family="Helvetica,sans-Serif" font-size="10.00">src/brd/prototype2</text>
<text text-anchor="middle" x="379" y="-175.5" font-family="Helvetica,sans-Serif" font-size="10.00">/clock.cpp</text>
</a>
</g>
</g>
<!-- Node2 -->
<g id="node2" class="node">
<title>Node2</title>
<g id="a_node2"><a xlink:title=" ">
<polygon fill="white" stroke="#bfbfbf" points="0,-0.5 0,-19.5 104,-19.5 104,-0.5 0,-0.5"/>
<text text-anchor="middle" x="52" y="-7.5" font-family="Helvetica,sans-Serif" font-size="10.00">emlabcpp/result.h</text>
</a>
</g>
</g>
<!-- Node1&#45;&gt;Node2 -->
<g id="edge1" class="edge">
<title>Node1&#45;&gt;Node2</title>
<path fill="none" stroke="midnightblue" d="M325.66,-174.56C235.47,-159.9 59.19,-125.49 24,-76 13.27,-60.91 24.88,-41.06 36.24,-27.28"/>
<polygon fill="midnightblue" stroke="midnightblue" points="39.06,-29.38 43.09,-19.58 33.83,-24.73 39.06,-29.38"/>
</g>
<!-- Node3 -->
<g id="node3" class="node">
<title>Node3</title>
<g id="a_node3"><a xlink:href="board_8hpp.html" target="_top" xlink:title=" ">
<polygon fill="white" stroke="black" points="194,-112.5 194,-131.5 274,-131.5 274,-112.5 194,-112.5"/>
<text text-anchor="middle" x="234" y="-119.5" font-family="Helvetica,sans-Serif" font-size="10.00">fw/board.hpp</text>
</a>
</g>
</g>
<!-- Node1&#45;&gt;Node3 -->
<g id="edge2" class="edge">
<title>Node1&#45;&gt;Node3</title>
<path fill="none" stroke="midnightblue" d="M344.64,-168.4C320.31,-158.42 287.97,-145.15 264.54,-135.53"/>
<polygon fill="midnightblue" stroke="midnightblue" points="265.68,-132.22 255.1,-131.66 263.02,-138.69 265.68,-132.22"/>
</g>
<!-- Node14 -->
<g id="node6" class="node">
<title>Node14</title>
<g id="a_node6"><a xlink:href="util_8hpp.html" target="_top" xlink:title=" ">
<polygon fill="white" stroke="black" points="299,-112.5 299,-131.5 367,-131.5 367,-112.5 299,-112.5"/>
<text text-anchor="middle" x="333" y="-119.5" font-family="Helvetica,sans-Serif" font-size="10.00">fw/util.hpp</text>
</a>
</g>
</g>
<!-- Node1&#45;&gt;Node14 -->
<g id="edge6" class="edge">
<title>Node1&#45;&gt;Node14</title>
<path fill="none" stroke="midnightblue" d="M368.1,-168.4C361.41,-159.75 352.82,-148.64 345.82,-139.58"/>
<polygon fill="midnightblue" stroke="midnightblue" points="348.58,-137.43 339.69,-131.66 343.04,-141.71 348.58,-137.43"/>
</g>
<!-- Node17 -->
<g id="node9" class="node">
<title>Node17</title>
<g id="a_node9"><a xlink:href="platform_8hpp.html" target="_top" xlink:title=" ">
<polygon fill="white" stroke="black" points="385,-112.5 385,-131.5 465,-131.5 465,-112.5 385,-112.5"/>
<text text-anchor="middle" x="425" y="-119.5" font-family="Helvetica,sans-Serif" font-size="10.00">platform.hpp</text>
</a>
</g>
</g>
<!-- Node1&#45;&gt;Node17 -->
<g id="edge9" class="edge">
<title>Node1&#45;&gt;Node17</title>
<path fill="none" stroke="midnightblue" d="M389.9,-168.4C396.59,-159.75 405.18,-148.64 412.18,-139.58"/>
<polygon fill="midnightblue" stroke="midnightblue" points="414.96,-141.71 418.31,-131.66 409.42,-137.43 414.96,-141.71"/>
</g>
<!-- Node19 -->
<g id="node11" class="node">
<title>Node19</title>
<g id="a_node11"><a xlink:title=" ">
<polygon fill="white" stroke="#bfbfbf" points="483,-112.5 483,-131.5 535,-131.5 535,-112.5 483,-112.5"/>
<text text-anchor="middle" x="509" y="-119.5" font-family="Helvetica,sans-Serif" font-size="10.00">cassert</text>
</a>
</g>
</g>
<!-- Node1&#45;&gt;Node19 -->
<g id="edge11" class="edge">
<title>Node1&#45;&gt;Node19</title>
<path fill="none" stroke="midnightblue" d="M409.81,-168.4C431.33,-158.55 459.84,-145.5 480.77,-135.92"/>
<polygon fill="midnightblue" stroke="midnightblue" points="482.45,-139 490.08,-131.66 479.53,-132.64 482.45,-139"/>
</g>
<!-- Node20 -->
<g id="node12" class="node">
<title>Node20</title>
<g id="a_node12"><a xlink:title=" ">
<polygon fill="white" stroke="#bfbfbf" points="553.5,-112.5 553.5,-131.5 602.5,-131.5 602.5,-112.5 553.5,-112.5"/>
<text text-anchor="middle" x="578" y="-119.5" font-family="Helvetica,sans-Serif" font-size="10.00">cstdlib</text>
</a>
</g>
</g>
<!-- Node1&#45;&gt;Node20 -->
<g id="edge12" class="edge">
<title>Node1&#45;&gt;Node20</title>
<path fill="none" stroke="midnightblue" d="M425.91,-168.47C461.99,-157.69 511.02,-143.03 543.55,-133.3"/>
<polygon fill="midnightblue" stroke="midnightblue" points="544.91,-136.55 553.49,-130.33 542.91,-129.84 544.91,-136.55"/>
</g>
<!-- Node4 -->
<g id="node4" class="node">
<title>Node4</title>
<g id="a_node4"><a xlink:href="drv__interfaces_8hpp.html" target="_top" xlink:title=" ">
<polygon fill="white" stroke="red" points="33,-56.5 33,-75.5 167,-75.5 167,-56.5 33,-56.5"/>
<text text-anchor="middle" x="100" y="-63.5" font-family="Helvetica,sans-Serif" font-size="10.00">base/drv_interfaces.hpp</text>
</a>
</g>
</g>
<!-- Node3&#45;&gt;Node4 -->
<g id="edge3" class="edge">
<title>Node3&#45;&gt;Node4</title>
<path fill="none" stroke="midnightblue" d="M212.77,-112.44C190.62,-103.52 155.68,-89.44 130.56,-79.32"/>
<polygon fill="midnightblue" stroke="midnightblue" points="131.72,-76.01 121.13,-75.52 129.1,-82.5 131.72,-76.01"/>
</g>
<!-- Node12 -->
<g id="node5" class="node">
<title>Node12</title>
<g id="a_node5"><a xlink:href="globals_8hpp.html" target="_top" xlink:title=" ">
<polygon fill="white" stroke="red" points="185.5,-56.5 185.5,-75.5 282.5,-75.5 282.5,-56.5 185.5,-56.5"/>
<text text-anchor="middle" x="234" y="-63.5" font-family="Helvetica,sans-Serif" font-size="10.00">core/globals.hpp</text>
</a>
</g>
</g>
<!-- Node3&#45;&gt;Node12 -->
<g id="edge5" class="edge">
<title>Node3&#45;&gt;Node12</title>
<path fill="none" stroke="midnightblue" d="M234,-112.08C234,-105.01 234,-94.86 234,-85.99"/>
<polygon fill="midnightblue" stroke="midnightblue" points="237.5,-85.75 234,-75.75 230.5,-85.75 237.5,-85.75"/>
</g>
<!-- Node4&#45;&gt;Node2 -->
<g id="edge4" class="edge">
<title>Node4&#45;&gt;Node2</title>
<path fill="none" stroke="midnightblue" d="M92.07,-56.08C85.15,-48.3 74.93,-36.8 66.55,-27.37"/>
<polygon fill="midnightblue" stroke="midnightblue" points="69.04,-24.9 59.78,-19.75 63.81,-29.55 69.04,-24.9"/>
</g>
<!-- Node15 -->
<g id="node7" class="node">
<title>Node15</title>
<g id="a_node7"><a xlink:title=" ">
<polygon fill="white" stroke="#bfbfbf" points="301,-56.5 301,-75.5 365,-75.5 365,-56.5 301,-56.5"/>
<text text-anchor="middle" x="333" y="-63.5" font-family="Helvetica,sans-Serif" font-size="10.00">algorithm</text>
</a>
</g>
</g>
<!-- Node14&#45;&gt;Node15 -->
<g id="edge7" class="edge">
<title>Node14&#45;&gt;Node15</title>
<path fill="none" stroke="midnightblue" d="M333,-112.08C333,-105.01 333,-94.86 333,-85.99"/>
<polygon fill="midnightblue" stroke="midnightblue" points="336.5,-85.75 333,-75.75 329.5,-85.75 336.5,-85.75"/>
</g>
<!-- Node16 -->
<g id="node8" class="node">
<title>Node16</title>
<g id="a_node8"><a xlink:title=" ">
<polygon fill="white" stroke="#bfbfbf" points="383,-56.5 383,-75.5 433,-75.5 433,-56.5 383,-56.5"/>
<text text-anchor="middle" x="408" y="-63.5" font-family="Helvetica,sans-Serif" font-size="10.00">cstring</text>
</a>
</g>
</g>
<!-- Node14&#45;&gt;Node16 -->
<g id="edge8" class="edge">
<title>Node14&#45;&gt;Node16</title>
<path fill="none" stroke="midnightblue" d="M345.05,-112.32C356.46,-104.11 373.83,-91.6 387.43,-81.81"/>
<polygon fill="midnightblue" stroke="midnightblue" points="389.66,-84.52 395.73,-75.83 385.57,-78.84 389.66,-84.52"/>
</g>
<!-- Node18 -->
<g id="node10" class="node">
<title>Node18</title>
<g id="a_node10"><a xlink:title=" ">
<polygon fill="white" stroke="#bfbfbf" points="451.5,-56.5 451.5,-75.5 504.5,-75.5 504.5,-56.5 451.5,-56.5"/>
<text text-anchor="middle" x="478" y="-63.5" font-family="Helvetica,sans-Serif" font-size="10.00">hal.hpp</text>
</a>
</g>
</g>
<!-- Node17&#45;&gt;Node18 -->
<g id="edge10" class="edge">
<title>Node17&#45;&gt;Node18</title>
<path fill="none" stroke="midnightblue" d="M433.75,-112.08C441.47,-104.22 452.9,-92.57 462.22,-83.08"/>
<polygon fill="midnightblue" stroke="midnightblue" points="464.9,-85.34 469.41,-75.75 459.91,-80.44 464.9,-85.34"/>
</g>
</g>
</svg>
