<?xml version="1.0" encoding="UTF-8" standalone="no"?>
<!DOCTYPE svg PUBLIC "-//W3C//DTD SVG 1.1//EN"
 "http://www.w3.org/Graphics/SVG/1.1/DTD/svg11.dtd">
<!-- Generated by graphviz version 2.43.0 (0)
 -->
<!-- Title: src/brd/brd.hpp Pages: 1 -->
<svg width="1002pt" height="274pt"
 viewBox="0.00 0.00 1001.50 274.00" xmlns="http://www.w3.org/2000/svg" xmlns:xlink="http://www.w3.org/1999/xlink">
<g id="graph0" class="graph" transform="scale(1 1) rotate(0) translate(4 270)">
<title>src/brd/brd.hpp</title>
<polygon fill="white" stroke="transparent" points="-4,4 -4,-270 997.5,-270 997.5,4 -4,4"/>
<!-- Node1 -->
<g id="node1" class="node">
<title>Node1</title>
<g id="a_node1"><a xlink:title=" ">
<polygon fill="#bfbfbf" stroke="black" points="539,-246.5 539,-265.5 628,-265.5 628,-246.5 539,-246.5"/>
<text text-anchor="middle" x="583.5" y="-253.5" font-family="Helvetica,sans-Serif" font-size="10.00">src/brd/brd.hpp</text>
</a>
</g>
</g>
<!-- Node2 -->
<g id="node2" class="node">
<title>Node2</title>
<g id="a_node2"><a xlink:href="map_8hpp.html" target="_top" xlink:title=" ">
<polygon fill="white" stroke="black" points="493.5,-67.5 493.5,-86.5 579.5,-86.5 579.5,-67.5 493.5,-67.5"/>
<text text-anchor="middle" x="536.5" y="-74.5" font-family="Helvetica,sans-Serif" font-size="10.00">../cfg/map.hpp</text>
</a>
</g>
</g>
<!-- Node1&#45;&gt;Node2 -->
<g id="edge1" class="edge">
<title>Node1&#45;&gt;Node2</title>
<path fill="none" stroke="midnightblue" d="M580.96,-246.39C578.3,-237.34 574.03,-222.69 570.5,-210 563.59,-185.18 561.96,-178.94 555.5,-154 550.45,-134.51 544.89,-112.14 541.09,-96.74"/>
<polygon fill="midnightblue" stroke="midnightblue" points="544.46,-95.78 538.67,-86.9 537.66,-97.45 544.46,-95.78"/>
</g>
<!-- Node15 -->
<g id="node10" class="node">
<title>Node15</title>
<g id="a_node10"><a xlink:href="drivers_8hpp.html" target="_top" xlink:title=" ">
<polygon fill="white" stroke="black" points="579.5,-190.5 579.5,-209.5 683.5,-209.5 683.5,-190.5 579.5,-190.5"/>
<text text-anchor="middle" x="631.5" y="-197.5" font-family="Helvetica,sans-Serif" font-size="10.00">../core/drivers.hpp</text>
</a>
</g>
</g>
<!-- Node1&#45;&gt;Node15 -->
<g id="edge9" class="edge">
<title>Node1&#45;&gt;Node15</title>
<path fill="none" stroke="midnightblue" d="M591.43,-246.08C598.35,-238.3 608.57,-226.8 616.95,-217.37"/>
<polygon fill="midnightblue" stroke="midnightblue" points="619.69,-219.55 623.72,-209.75 614.46,-214.9 619.69,-219.55"/>
</g>
<!-- Node3 -->
<g id="node3" class="node">
<title>Node3</title>
<g id="a_node3"><a xlink:href="base_2base_8hpp.html" target="_top" xlink:title=" ">
<polygon fill="white" stroke="red" points="897.5,-6 897.5,-25 993.5,-25 993.5,-6 897.5,-6"/>
<text text-anchor="middle" x="945.5" y="-13" font-family="Helvetica,sans-Serif" font-size="10.00">../base/base.hpp</text>
</a>
</g>
</g>
<!-- Node2&#45;&gt;Node3 -->
<g id="edge2" class="edge">
<title>Node2&#45;&gt;Node3</title>
<path fill="none" stroke="midnightblue" d="M579.57,-72.2C646.19,-65.94 778.05,-52.03 888.5,-31 893.89,-29.97 899.53,-28.74 905.08,-27.43"/>
<polygon fill="midnightblue" stroke="midnightblue" points="906.01,-30.8 914.89,-25.02 904.34,-24.01 906.01,-30.8"/>
</g>
<!-- Node9 -->
<g id="node4" class="node">
<title>Node9</title>
<g id="a_node4"><a xlink:href="key_8hpp.html" target="_top" xlink:title=" ">
<polygon fill="white" stroke="red" points="0,-6 0,-25 59,-25 59,-6 0,-6"/>
<text text-anchor="middle" x="29.5" y="-13" font-family="Helvetica,sans-Serif" font-size="10.00">./key.hpp</text>
</a>
</g>
</g>
<!-- Node2&#45;&gt;Node9 -->
<g id="edge3" class="edge">
<title>Node2&#45;&gt;Node9</title>
<path fill="none" stroke="midnightblue" d="M493.2,-75.71C409.72,-74.3 221.21,-67 67.5,-31 64.5,-30.3 61.42,-29.41 58.38,-28.43"/>
<polygon fill="midnightblue" stroke="midnightblue" points="59.5,-25.12 48.91,-25.06 57.15,-31.71 59.5,-25.12"/>
</g>
<!-- Node10 -->
<g id="node5" class="node">
<title>Node10</title>
<g id="a_node5"><a xlink:title=" ">
<polygon fill="white" stroke="#bfbfbf" points="77,-0.5 77,-30.5 210,-30.5 210,-0.5 77,-0.5"/>
<text text-anchor="start" x="85" y="-18.5" font-family="Helvetica,sans-Serif" font-size="10.00">emlabcpp/experimental</text>
<text text-anchor="middle" x="143.5" y="-7.5" font-family="Helvetica,sans-Serif" font-size="10.00">/string_buffer.h</text>
</a>
</g>
</g>
<!-- Node2&#45;&gt;Node10 -->
<g id="edge4" class="edge">
<title>Node2&#45;&gt;Node10</title>
<path fill="none" stroke="midnightblue" d="M493.45,-70.61C434.13,-63.02 323.7,-48.35 220.13,-31.23"/>
<polygon fill="midnightblue" stroke="midnightblue" points="220.56,-27.75 210.12,-29.56 219.41,-34.66 220.56,-27.75"/>
</g>
<!-- Node11 -->
<g id="node6" class="node">
<title>Node11</title>
<g id="a_node6"><a xlink:title=" ">
<polygon fill="white" stroke="#bfbfbf" points="228,-0.5 228,-30.5 361,-30.5 361,-0.5 228,-0.5"/>
<text text-anchor="start" x="236" y="-18.5" font-family="Helvetica,sans-Serif" font-size="10.00">emlabcpp/experimental</text>
<text text-anchor="middle" x="294.5" y="-7.5" font-family="Helvetica,sans-Serif" font-size="10.00">/testing/convert.h</text>
</a>
</g>
</g>
<!-- Node2&#45;&gt;Node11 -->
<g id="edge5" class="edge">
<title>Node2&#45;&gt;Node11</title>
<path fill="none" stroke="midnightblue" d="M501.83,-67.48C465.3,-58.49 406.87,-44.13 361.34,-32.93"/>
<polygon fill="midnightblue" stroke="midnightblue" points="362.08,-29.51 351.53,-30.52 360.41,-36.31 362.08,-29.51"/>
</g>
<!-- Node12 -->
<g id="node7" class="node">
<title>Node12</title>
<g id="a_node7"><a xlink:title=" ">
<polygon fill="white" stroke="#bfbfbf" points="379.5,-0.5 379.5,-30.5 527.5,-30.5 527.5,-0.5 379.5,-0.5"/>
<text text-anchor="start" x="387.5" y="-18.5" font-family="Helvetica,sans-Serif" font-size="10.00">emlabcpp/protocol/register</text>
<text text-anchor="middle" x="453.5" y="-7.5" font-family="Helvetica,sans-Serif" font-size="10.00">_handler.h</text>
</a>
</g>
</g>
<!-- Node2&#45;&gt;Node12 -->
<g id="edge6" class="edge">
<title>Node2&#45;&gt;Node12</title>
<path fill="none" stroke="midnightblue" d="M524.61,-67.48C513.37,-59.42 496.08,-47.02 481.36,-36.47"/>
<polygon fill="midnightblue" stroke="midnightblue" points="483.23,-33.5 473.06,-30.52 479.15,-39.19 483.23,-33.5"/>
</g>
<!-- Node13 -->
<g id="node8" class="node">
<title>Node13</title>
<g id="a_node8"><a xlink:title=" ">
<polygon fill="white" stroke="#bfbfbf" points="545.5,-0.5 545.5,-30.5 693.5,-30.5 693.5,-0.5 545.5,-0.5"/>
<text text-anchor="start" x="553.5" y="-18.5" font-family="Helvetica,sans-Serif" font-size="10.00">emlabcpp/protocol/register</text>
<text text-anchor="middle" x="619.5" y="-7.5" font-family="Helvetica,sans-Serif" font-size="10.00">_map.h</text>
</a>
</g>
</g>
<!-- Node2&#45;&gt;Node13 -->
<g id="edge7" class="edge">
<title>Node2&#45;&gt;Node13</title>
<path fill="none" stroke="midnightblue" d="M548.39,-67.48C559.63,-59.42 576.92,-47.02 591.64,-36.47"/>
<polygon fill="midnightblue" stroke="midnightblue" points="593.85,-39.19 599.94,-30.52 589.77,-33.5 593.85,-39.19"/>
</g>
<!-- Node14 -->
<g id="node9" class="node">
<title>Node14</title>
<g id="a_node9"><a xlink:title=" ">
<polygon fill="white" stroke="#bfbfbf" points="712,-6 712,-25 879,-25 879,-6 712,-6"/>
<text text-anchor="middle" x="795.5" y="-13" font-family="Helvetica,sans-Serif" font-size="10.00">magic_enum/magic_enum.hpp</text>
</a>
</g>
</g>
<!-- Node2&#45;&gt;Node14 -->
<g id="edge8" class="edge">
<title>Node2&#45;&gt;Node14</title>
<path fill="none" stroke="midnightblue" d="M573.61,-67.48C619.67,-56.89 698.27,-38.84 748.5,-27.3"/>
<polygon fill="midnightblue" stroke="midnightblue" points="749.5,-30.66 758.46,-25.01 747.93,-23.84 749.5,-30.66"/>
</g>
<!-- Node16 -->
<g id="node11" class="node">
<title>Node16</title>
<g id="a_node11"><a xlink:href="interfaces_8hpp.html" target="_top" xlink:title=" ">
<polygon fill="white" stroke="red" points="716.5,-129 716.5,-148 830.5,-148 830.5,-129 716.5,-129"/>
<text text-anchor="middle" x="773.5" y="-136" font-family="Helvetica,sans-Serif" font-size="10.00">../drv/interfaces.hpp</text>
</a>
</g>
</g>
<!-- Node15&#45;&gt;Node16 -->
<g id="edge10" class="edge">
<title>Node15&#45;&gt;Node16</title>
<path fill="none" stroke="midnightblue" d="M651.85,-190.48C675.89,-180.4 716.1,-163.55 743.66,-152"/>
<polygon fill="midnightblue" stroke="midnightblue" points="745.32,-155.1 753.19,-148.01 742.62,-148.65 745.32,-155.1"/>
</g>
<!-- Node20 -->
<g id="node12" class="node">
<title>Node20</title>
<g id="a_node12"><a xlink:title=" ">
<polygon fill="white" stroke="#bfbfbf" points="565,-123.5 565,-153.5 698,-153.5 698,-123.5 565,-123.5"/>
<text text-anchor="start" x="573" y="-141.5" font-family="Helvetica,sans-Serif" font-size="10.00">emlabcpp/experimental</text>
<text text-anchor="middle" x="631.5" y="-130.5" font-family="Helvetica,sans-Serif" font-size="10.00">/function_view.h</text>
</a>
</g>
</g>
<!-- Node15&#45;&gt;Node20 -->
<g id="edge13" class="edge">
<title>Node15&#45;&gt;Node20</title>
<path fill="none" stroke="midnightblue" d="M631.5,-190.48C631.5,-183.47 631.5,-173.19 631.5,-163.7"/>
<polygon fill="midnightblue" stroke="midnightblue" points="635,-163.52 631.5,-153.52 628,-163.52 635,-163.52"/>
</g>
<!-- Node16&#45;&gt;Node2 -->
<g id="edge12" class="edge">
<title>Node16&#45;&gt;Node2</title>
<path fill="none" stroke="midnightblue" d="M739.54,-128.98C697.66,-118.46 626.37,-100.56 580.37,-89.01"/>
<polygon fill="midnightblue" stroke="midnightblue" points="580.94,-85.55 570.39,-86.51 579.24,-92.34 580.94,-85.55"/>
</g>
<!-- Node16&#45;&gt;Node3 -->
<g id="edge11" class="edge">
<title>Node16&#45;&gt;Node3</title>
<path fill="none" stroke="midnightblue" d="M785.59,-128.99C814.64,-108.56 888.59,-56.54 924.84,-31.04"/>
<polygon fill="midnightblue" stroke="midnightblue" points="927.02,-33.78 933.19,-25.16 923,-28.05 927.02,-33.78"/>
</g>
</g>
</svg>
