<?xml version="1.0" encoding="UTF-8" standalone="no"?>
<!DOCTYPE svg PUBLIC "-//W3C//DTD SVG 1.1//EN"
 "http://www.w3.org/Graphics/SVG/1.1/DTD/svg11.dtd">
<!-- Generated by graphviz version 2.43.0 (0)
 -->
<!-- Title: src/callbacks.hpp Pages: 1 -->
<svg width="861pt" height="263pt"
 viewBox="0.00 0.00 861.00 263.00" xmlns="http://www.w3.org/2000/svg" xmlns:xlink="http://www.w3.org/1999/xlink">
<g id="graph0" class="graph" transform="scale(1 1) rotate(0) translate(4 259)">
<title>src/callbacks.hpp</title>
<polygon fill="white" stroke="transparent" points="-4,4 -4,-259 857,-259 857,4 -4,4"/>
<!-- Node1 -->
<g id="node1" class="node">
<title>Node1</title>
<g id="a_node1"><a xlink:title=" ">
<polygon fill="#bfbfbf" stroke="black" points="243,-235.5 243,-254.5 344,-254.5 344,-235.5 243,-235.5"/>
<text text-anchor="middle" x="293.5" y="-242.5" font-family="Helvetica,sans-Serif" font-size="10.00">src/callbacks.hpp</text>
</a>
</g>
</g>
<!-- Node2 -->
<g id="node2" class="node">
<title>Node2</title>
<g id="a_node2"><a xlink:href="utils_8hpp.html" target="_top" xlink:title=" ">
<polygon fill="white" stroke="black" points="72,-179.5 72,-198.5 151,-198.5 151,-179.5 72,-179.5"/>
<text text-anchor="middle" x="111.5" y="-186.5" font-family="Helvetica,sans-Serif" font-size="10.00">cnv/utils.hpp</text>
</a>
</g>
</g>
<!-- Node1&#45;&gt;Node2 -->
<g id="edge1" class="edge">
<title>Node1&#45;&gt;Node2</title>
<path fill="none" stroke="midnightblue" d="M264.66,-235.44C233.64,-226.24 184.17,-211.56 149.88,-201.39"/>
<polygon fill="midnightblue" stroke="midnightblue" points="150.79,-198.01 140.2,-198.52 148.79,-204.72 150.79,-198.01"/>
</g>
<!-- Node3 -->
<g id="node3" class="node">
<title>Node3</title>
<g id="a_node3"><a xlink:href="converter_8hpp.html" target="_top" xlink:title=" ">
<polygon fill="white" stroke="red" points="0,-123.5 0,-142.5 83,-142.5 83,-123.5 0,-123.5"/>
<text text-anchor="middle" x="41.5" y="-130.5" font-family="Helvetica,sans-Serif" font-size="10.00">converter.hpp</text>
</a>
</g>
</g>
<!-- Node1&#45;&gt;Node3 -->
<g id="edge14" class="edge">
<title>Node1&#45;&gt;Node3</title>
<path fill="none" stroke="midnightblue" d="M242.92,-240.1C183.2,-234.5 88.68,-222.21 62.5,-199 49.35,-187.34 44.39,-167.39 42.54,-152.66"/>
<polygon fill="midnightblue" stroke="midnightblue" points="46.02,-152.29 41.65,-142.64 39.05,-152.91 46.02,-152.29"/>
</g>
<!-- Node18 -->
<g id="node6" class="node">
<title>Node18</title>
<g id="a_node6"><a xlink:href="control_8hpp.html" target="_top" xlink:title=" ">
<polygon fill="white" stroke="black" points="258,-179.5 258,-198.5 329,-198.5 329,-179.5 258,-179.5"/>
<text text-anchor="middle" x="293.5" y="-186.5" font-family="Helvetica,sans-Serif" font-size="10.00">control.hpp</text>
</a>
</g>
</g>
<!-- Node1&#45;&gt;Node18 -->
<g id="edge5" class="edge">
<title>Node1&#45;&gt;Node18</title>
<path fill="none" stroke="midnightblue" d="M293.5,-235.08C293.5,-228.01 293.5,-217.86 293.5,-208.99"/>
<polygon fill="midnightblue" stroke="midnightblue" points="297,-208.75 293.5,-198.75 290,-208.75 297,-208.75"/>
</g>
<!-- Node25 -->
<g id="node11" class="node">
<title>Node25</title>
<g id="a_node11"><a xlink:href="metrics_8hpp.html" target="_top" xlink:title=" ">
<polygon fill="white" stroke="black" points="502.5,-179.5 502.5,-198.5 576.5,-198.5 576.5,-179.5 502.5,-179.5"/>
<text text-anchor="middle" x="539.5" y="-186.5" font-family="Helvetica,sans-Serif" font-size="10.00">metrics.hpp</text>
</a>
</g>
</g>
<!-- Node1&#45;&gt;Node25 -->
<g id="edge15" class="edge">
<title>Node1&#45;&gt;Node25</title>
<path fill="none" stroke="midnightblue" d="M332.48,-235.44C375.9,-225.91 446.07,-210.51 492.5,-200.32"/>
<polygon fill="midnightblue" stroke="midnightblue" points="493.3,-203.73 502.31,-198.16 491.8,-196.89 493.3,-203.73"/>
</g>
<!-- Node33 -->
<g id="node16" class="node">
<title>Node33</title>
<g id="a_node16"><a xlink:title=" ">
<polygon fill="white" stroke="#bfbfbf" points="595,-179.5 595,-198.5 696,-198.5 696,-179.5 595,-179.5"/>
<text text-anchor="middle" x="645.5" y="-186.5" font-family="Helvetica,sans-Serif" font-size="10.00">stm32g4xx_hal.h</text>
</a>
</g>
</g>
<!-- Node1&#45;&gt;Node33 -->
<g id="edge21" class="edge">
<title>Node1&#45;&gt;Node33</title>
<path fill="none" stroke="midnightblue" d="M344.31,-236.21C407.96,-226.44 516.92,-209.73 584.86,-199.3"/>
<polygon fill="midnightblue" stroke="midnightblue" points="585.64,-202.72 594.99,-197.75 584.58,-195.81 585.64,-202.72"/>
</g>
<!-- Node2&#45;&gt;Node3 -->
<g id="edge2" class="edge">
<title>Node2&#45;&gt;Node3</title>
<path fill="none" stroke="midnightblue" d="M100.25,-179.32C89.7,-171.18 73.7,-158.84 61.06,-149.09"/>
<polygon fill="midnightblue" stroke="midnightblue" points="63.01,-146.17 52.95,-142.83 58.73,-151.71 63.01,-146.17"/>
</g>
<!-- Node9 -->
<g id="node4" class="node">
<title>Node9</title>
<g id="a_node4"><a xlink:href="drv__interfaces_8hpp.html" target="_top" xlink:title=" ">
<polygon fill="white" stroke="red" points="14,-62 14,-81 121,-81 121,-62 14,-62"/>
<text text-anchor="middle" x="67.5" y="-69" font-family="Helvetica,sans-Serif" font-size="10.00">drv_interfaces.hpp</text>
</a>
</g>
</g>
<!-- Node2&#45;&gt;Node9 -->
<g id="edge3" class="edge">
<title>Node2&#45;&gt;Node9</title>
<path fill="none" stroke="midnightblue" d="M109.3,-179.45C105.96,-166.89 99.21,-142.81 91.5,-123 87.21,-111.97 81.56,-100 76.82,-90.47"/>
<polygon fill="midnightblue" stroke="midnightblue" points="79.8,-88.6 72.15,-81.27 73.56,-91.77 79.8,-88.6"/>
</g>
<!-- Node10 -->
<g id="node5" class="node">
<title>Node10</title>
<g id="a_node5"><a xlink:href="base_8hpp.html" target="_top" xlink:title=" ">
<polygon fill="white" stroke="red" points="202,-0.5 202,-19.5 263,-19.5 263,-0.5 202,-0.5"/>
<text text-anchor="middle" x="232.5" y="-7.5" font-family="Helvetica,sans-Serif" font-size="10.00">base.hpp</text>
</a>
</g>
</g>
<!-- Node9&#45;&gt;Node10 -->
<g id="edge4" class="edge">
<title>Node9&#45;&gt;Node10</title>
<path fill="none" stroke="midnightblue" d="M91.14,-61.98C119.44,-51.77 167.03,-34.61 199.09,-23.05"/>
<polygon fill="midnightblue" stroke="midnightblue" points="200.68,-26.19 208.9,-19.51 198.31,-19.61 200.68,-26.19"/>
</g>
<!-- Node18&#45;&gt;Node10 -->
<g id="edge6" class="edge">
<title>Node18&#45;&gt;Node10</title>
<path fill="none" stroke="midnightblue" d="M257.95,-184.44C230.65,-179.71 194.36,-168.69 174.5,-143 150.8,-112.33 150.64,-90.4 168.5,-56 175.65,-42.23 189.17,-31.78 201.95,-24.44"/>
<polygon fill="midnightblue" stroke="midnightblue" points="203.82,-27.41 211.02,-19.64 200.54,-21.23 203.82,-27.41"/>
</g>
<!-- Node19 -->
<g id="node7" class="node">
<title>Node19</title>
<g id="a_node7"><a xlink:href="ctl_2config_8hpp.html" target="_top" xlink:title=" ">
<polygon fill="white" stroke="black" points="183.5,-123.5 183.5,-142.5 265.5,-142.5 265.5,-123.5 183.5,-123.5"/>
<text text-anchor="middle" x="224.5" y="-130.5" font-family="Helvetica,sans-Serif" font-size="10.00">ctl/config.hpp</text>
</a>
</g>
</g>
<!-- Node18&#45;&gt;Node19 -->
<g id="edge7" class="edge">
<title>Node18&#45;&gt;Node19</title>
<path fill="none" stroke="midnightblue" d="M282.41,-179.32C272.01,-171.18 256.24,-158.84 243.78,-149.09"/>
<polygon fill="midnightblue" stroke="midnightblue" points="245.82,-146.24 235.79,-142.83 241.51,-151.75 245.82,-146.24"/>
</g>
<!-- Node20 -->
<g id="node8" class="node">
<title>Node20</title>
<g id="a_node8"><a xlink:href="pid__module_8hpp.html" target="_top" xlink:title=" ">
<polygon fill="white" stroke="red" points="177.5,-62 177.5,-81 287.5,-81 287.5,-62 177.5,-62"/>
<text text-anchor="middle" x="232.5" y="-69" font-family="Helvetica,sans-Serif" font-size="10.00">ctl/pid_module.hpp</text>
</a>
</g>
</g>
<!-- Node18&#45;&gt;Node20 -->
<g id="edge12" class="edge">
<title>Node18&#45;&gt;Node20</title>
<path fill="none" stroke="midnightblue" d="M292.1,-179.15C289.8,-166.23 284.44,-141.68 274.5,-123 267.79,-110.39 257.58,-98.02 248.92,-88.69"/>
<polygon fill="midnightblue" stroke="midnightblue" points="251.28,-86.1 241.82,-81.33 246.24,-90.96 251.28,-86.1"/>
</g>
<!-- Node22 -->
<g id="node9" class="node">
<title>Node22</title>
<g id="a_node9"><a xlink:href="linear__transition__regulator_8hpp.html" target="_top" xlink:title=" ">
<polygon fill="white" stroke="red" points="306,-56.5 306,-86.5 417,-86.5 417,-56.5 306,-56.5"/>
<text text-anchor="start" x="314" y="-74.5" font-family="Helvetica,sans-Serif" font-size="10.00">ctl/linear_transition</text>
<text text-anchor="middle" x="361.5" y="-63.5" font-family="Helvetica,sans-Serif" font-size="10.00">_regulator.hpp</text>
</a>
</g>
</g>
<!-- Node18&#45;&gt;Node22 -->
<g id="edge10" class="edge">
<title>Node18&#45;&gt;Node22</title>
<path fill="none" stroke="midnightblue" d="M298.61,-179.32C309.01,-161.66 332.92,-121.04 348.08,-95.29"/>
<polygon fill="midnightblue" stroke="midnightblue" points="351.17,-96.94 353.23,-86.55 345.14,-93.39 351.17,-96.94"/>
</g>
<!-- Node24 -->
<g id="node10" class="node">
<title>Node24</title>
<g id="a_node10"><a xlink:title=" ">
<polygon fill="white" stroke="#bfbfbf" points="360,-123.5 360,-142.5 411,-142.5 411,-123.5 360,-123.5"/>
<text text-anchor="middle" x="385.5" y="-130.5" font-family="Helvetica,sans-Serif" font-size="10.00">variant</text>
</a>
</g>
</g>
<!-- Node18&#45;&gt;Node24 -->
<g id="edge13" class="edge">
<title>Node18&#45;&gt;Node24</title>
<path fill="none" stroke="midnightblue" d="M308.28,-179.32C322.77,-170.82 345.07,-157.73 361.99,-147.8"/>
<polygon fill="midnightblue" stroke="midnightblue" points="363.9,-150.74 370.76,-142.65 360.36,-144.7 363.9,-150.74"/>
</g>
<!-- Node19&#45;&gt;Node20 -->
<g id="edge8" class="edge">
<title>Node19&#45;&gt;Node20</title>
<path fill="none" stroke="midnightblue" d="M225.65,-123.48C226.77,-115.08 228.54,-101.98 229.99,-91.16"/>
<polygon fill="midnightblue" stroke="midnightblue" points="233.49,-91.39 231.36,-81.01 226.55,-90.45 233.49,-91.39"/>
</g>
<!-- Node20&#45;&gt;Node10 -->
<g id="edge9" class="edge">
<title>Node20&#45;&gt;Node10</title>
<path fill="none" stroke="midnightblue" d="M232.5,-61.98C232.5,-53.58 232.5,-40.48 232.5,-29.66"/>
<polygon fill="midnightblue" stroke="midnightblue" points="236,-29.51 232.5,-19.51 229,-29.51 236,-29.51"/>
</g>
<!-- Node22&#45;&gt;Node10 -->
<g id="edge11" class="edge">
<title>Node22&#45;&gt;Node10</title>
<path fill="none" stroke="midnightblue" d="M330.93,-56.4C309.57,-46.55 281.28,-33.5 260.52,-23.92"/>
<polygon fill="midnightblue" stroke="midnightblue" points="261.82,-20.67 251.27,-19.66 258.89,-27.02 261.82,-20.67"/>
</g>
<!-- Node25&#45;&gt;Node10 -->
<g id="edge16" class="edge">
<title>Node25&#45;&gt;Node10</title>
<path fill="none" stroke="midnightblue" d="M518.01,-179.4C501.54,-171.89 479.22,-159.58 464.5,-143 436.37,-111.31 458.2,-82.95 425.5,-56 382.21,-20.32 315.76,-11.84 273.23,-10.38"/>
<polygon fill="midnightblue" stroke="midnightblue" points="273.3,-6.88 263.22,-10.15 273.14,-13.88 273.3,-6.88"/>
</g>
<!-- Node26 -->
<g id="node12" class="node">
<title>Node26</title>
<g id="a_node12"><a xlink:href="posvel__kalman_8hpp.html" target="_top" xlink:title=" ">
<polygon fill="white" stroke="red" points="474,-123.5 474,-142.5 605,-142.5 605,-123.5 474,-123.5"/>
<text text-anchor="middle" x="539.5" y="-130.5" font-family="Helvetica,sans-Serif" font-size="10.00">mtr/posvel_kalman.hpp</text>
</a>
</g>
</g>
<!-- Node25&#45;&gt;Node26 -->
<g id="edge17" class="edge">
<title>Node25&#45;&gt;Node26</title>
<path fill="none" stroke="midnightblue" d="M539.5,-179.08C539.5,-172.01 539.5,-161.86 539.5,-152.99"/>
<polygon fill="midnightblue" stroke="midnightblue" points="543,-152.75 539.5,-142.75 536,-152.75 543,-152.75"/>
</g>
<!-- Node29 -->
<g id="node13" class="node">
<title>Node29</title>
<g id="a_node13"><a xlink:href="static__detector_8hpp.html" target="_top" xlink:title=" ">
<polygon fill="white" stroke="red" points="623.5,-123.5 623.5,-142.5 733.5,-142.5 733.5,-123.5 623.5,-123.5"/>
<text text-anchor="middle" x="678.5" y="-130.5" font-family="Helvetica,sans-Serif" font-size="10.00">static_detector.hpp</text>
</a>
</g>
</g>
<!-- Node25&#45;&gt;Node29 -->
<g id="edge18" class="edge">
<title>Node25&#45;&gt;Node29</title>
<path fill="none" stroke="midnightblue" d="M561.52,-179.44C584.6,-170.48 621.06,-156.31 647.14,-146.18"/>
<polygon fill="midnightblue" stroke="midnightblue" points="648.52,-149.4 656.58,-142.52 645.99,-142.88 648.52,-149.4"/>
</g>
<!-- Node31 -->
<g id="node14" class="node">
<title>Node31</title>
<g id="a_node14"><a xlink:title=" ">
<polygon fill="white" stroke="#bfbfbf" points="751.5,-123.5 751.5,-142.5 793.5,-142.5 793.5,-123.5 751.5,-123.5"/>
<text text-anchor="middle" x="772.5" y="-130.5" font-family="Helvetica,sans-Serif" font-size="10.00">array</text>
</a>
</g>
</g>
<!-- Node25&#45;&gt;Node31 -->
<g id="edge19" class="edge">
<title>Node25&#45;&gt;Node31</title>
<path fill="none" stroke="midnightblue" d="M576.74,-180.6C615.61,-172.69 678.51,-159.35 741.54,-143.11"/>
<polygon fill="midnightblue" stroke="midnightblue" points="742.45,-146.49 751.25,-140.59 740.69,-139.71 742.45,-146.49"/>
</g>
<!-- Node32 -->
<g id="node15" class="node">
<title>Node32</title>
<g id="a_node15"><a xlink:title=" ">
<polygon fill="white" stroke="#bfbfbf" points="812,-123.5 812,-142.5 853,-142.5 853,-123.5 812,-123.5"/>
<text text-anchor="middle" x="832.5" y="-130.5" font-family="Helvetica,sans-Serif" font-size="10.00">tuple</text>
</a>
</g>
</g>
<!-- Node25&#45;&gt;Node32 -->
<g id="edge20" class="edge">
<title>Node25&#45;&gt;Node32</title>
<path fill="none" stroke="midnightblue" d="M576.69,-180.79C580,-180.18 583.31,-179.57 586.5,-179 679.21,-162.4 705.99,-164.84 802.1,-142.82"/>
<polygon fill="midnightblue" stroke="midnightblue" points="802.99,-146.21 811.94,-140.54 801.4,-139.39 802.99,-146.21"/>
</g>
</g>
</svg>
