<?xml version="1.0" encoding="UTF-8" standalone="no"?>
<!DOCTYPE svg PUBLIC "-//W3C//DTD SVG 1.1//EN"
 "http://www.w3.org/Graphics/SVG/1.1/DTD/svg11.dtd">
<!-- Generated by graphviz version 2.43.0 (0)
 -->
<!-- Title: src/fw/callbacks.hpp Pages: 1 -->
<svg width="1727pt" height="263pt"
 viewBox="0.00 0.00 1726.50 263.00" xmlns="http://www.w3.org/2000/svg" xmlns:xlink="http://www.w3.org/1999/xlink">
<g id="graph0" class="graph" transform="scale(1 1) rotate(0) translate(4 259)">
<title>src/fw/callbacks.hpp</title>
<polygon fill="white" stroke="transparent" points="-4,4 -4,-259 1722.5,-259 1722.5,4 -4,4"/>
<!-- Node1 -->
<g id="node1" class="node">
<title>Node1</title>
<g id="a_node1"><a xlink:title=" ">
<polygon fill="#bfbfbf" stroke="black" points="678.5,-235.5 678.5,-254.5 793.5,-254.5 793.5,-235.5 678.5,-235.5"/>
<text text-anchor="middle" x="736" y="-242.5" font-family="Helvetica,sans-Serif" font-size="10.00">src/fw/callbacks.hpp</text>
</a>
</g>
</g>
<!-- Node2 -->
<g id="node2" class="node">
<title>Node2</title>
<g id="a_node2"><a xlink:href="control_8hpp.html" target="_top" xlink:title=" ">
<polygon fill="white" stroke="black" points="293.5,-179.5 293.5,-198.5 364.5,-198.5 364.5,-179.5 293.5,-179.5"/>
<text text-anchor="middle" x="329" y="-186.5" font-family="Helvetica,sans-Serif" font-size="10.00">control.hpp</text>
</a>
</g>
</g>
<!-- Node1&#45;&gt;Node2 -->
<g id="edge1" class="edge">
<title>Node1&#45;&gt;Node2</title>
<path fill="none" stroke="midnightblue" d="M678.12,-236.32C596.48,-225.49 449.17,-205.94 374.72,-196.07"/>
<polygon fill="midnightblue" stroke="midnightblue" points="375.09,-192.58 364.71,-194.74 374.16,-199.52 375.09,-192.58"/>
</g>
<!-- Node14 -->
<g id="node7" class="node">
<title>Node14</title>
<g id="a_node7"><a xlink:href="converter_8hpp.html" target="_top" xlink:title=" ">
<polygon fill="white" stroke="black" points="1288.5,-179.5 1288.5,-198.5 1371.5,-198.5 1371.5,-179.5 1288.5,-179.5"/>
<text text-anchor="middle" x="1330" y="-186.5" font-family="Helvetica,sans-Serif" font-size="10.00">converter.hpp</text>
</a>
</g>
</g>
<!-- Node1&#45;&gt;Node14 -->
<g id="edge8" class="edge">
<title>Node1&#45;&gt;Node14</title>
<path fill="none" stroke="midnightblue" d="M793.77,-238.75C909.42,-228.23 1167.77,-204.75 1278.26,-194.7"/>
<polygon fill="midnightblue" stroke="midnightblue" points="1278.84,-198.17 1288.49,-193.77 1278.21,-191.19 1278.84,-198.17"/>
</g>
<!-- Node19 -->
<g id="node12" class="node">
<title>Node19</title>
<g id="a_node12"><a xlink:href="acquisition_8hpp.html" target="_top" xlink:title=" ">
<polygon fill="white" stroke="black" points="672,-179.5 672,-198.5 800,-198.5 800,-179.5 672,-179.5"/>
<text text-anchor="middle" x="736" y="-186.5" font-family="Helvetica,sans-Serif" font-size="10.00">drivers/acquisition.hpp</text>
</a>
</g>
</g>
<!-- Node1&#45;&gt;Node19 -->
<g id="edge13" class="edge">
<title>Node1&#45;&gt;Node19</title>
<path fill="none" stroke="midnightblue" d="M736,-235.08C736,-228.01 736,-217.86 736,-208.99"/>
<polygon fill="midnightblue" stroke="midnightblue" points="739.5,-208.75 736,-198.75 732.5,-208.75 739.5,-208.75"/>
</g>
<!-- Node23 -->
<g id="node16" class="node">
<title>Node23</title>
<g id="a_node16"><a xlink:title=" ">
<polygon fill="white" stroke="#bfbfbf" points="829.5,-56.5 829.5,-75.5 930.5,-75.5 930.5,-56.5 829.5,-56.5"/>
<text text-anchor="middle" x="880" y="-63.5" font-family="Helvetica,sans-Serif" font-size="10.00">stm32g4xx_hal.h</text>
</a>
</g>
</g>
<!-- Node1&#45;&gt;Node23 -->
<g id="edge35" class="edge">
<title>Node1&#45;&gt;Node23</title>
<path fill="none" stroke="midnightblue" d="M793.14,-235.46C879.78,-221.13 1037.57,-189.24 1068,-143 1100.86,-93.07 1007.44,-75.94 940.79,-70.06"/>
<polygon fill="midnightblue" stroke="midnightblue" points="941.01,-66.57 930.76,-69.25 940.44,-73.55 941.01,-66.57"/>
</g>
<!-- Node24 -->
<g id="node17" class="node">
<title>Node24</title>
<g id="a_node17"><a xlink:href="clock_8hpp.html" target="_top" xlink:title=" ">
<polygon fill="white" stroke="black" points="471,-179.5 471,-198.5 571,-198.5 571,-179.5 471,-179.5"/>
<text text-anchor="middle" x="521" y="-186.5" font-family="Helvetica,sans-Serif" font-size="10.00">drivers/clock.hpp</text>
</a>
</g>
</g>
<!-- Node1&#45;&gt;Node24 -->
<g id="edge19" class="edge">
<title>Node1&#45;&gt;Node24</title>
<path fill="none" stroke="midnightblue" d="M701.93,-235.44C664.82,-226.12 605.34,-211.18 564.79,-201"/>
<polygon fill="midnightblue" stroke="midnightblue" points="565.46,-197.56 554.91,-198.52 563.75,-204.35 565.46,-197.56"/>
</g>
<!-- Node25 -->
<g id="node18" class="node">
<title>Node25</title>
<g id="a_node18"><a xlink:href="hbridge_8hpp.html" target="_top" xlink:title=" ">
<polygon fill="white" stroke="black" points="818.5,-179.5 818.5,-198.5 929.5,-198.5 929.5,-179.5 818.5,-179.5"/>
<text text-anchor="middle" x="874" y="-186.5" font-family="Helvetica,sans-Serif" font-size="10.00">drivers/hbridge.hpp</text>
</a>
</g>
</g>
<!-- Node1&#45;&gt;Node25 -->
<g id="edge23" class="edge">
<title>Node1&#45;&gt;Node25</title>
<path fill="none" stroke="midnightblue" d="M757.87,-235.44C780.78,-226.48 816.98,-212.31 842.87,-202.18"/>
<polygon fill="midnightblue" stroke="midnightblue" points="844.2,-205.42 852.24,-198.52 841.65,-198.9 844.2,-205.42"/>
</g>
<!-- Node28 -->
<g id="node21" class="node">
<title>Node28</title>
<g id="a_node21"><a xlink:href="metrics_8hpp.html" target="_top" xlink:title=" ">
<polygon fill="white" stroke="black" points="88,-118 88,-137 162,-137 162,-118 88,-118"/>
<text text-anchor="middle" x="125" y="-125" font-family="Helvetica,sans-Serif" font-size="10.00">metrics.hpp</text>
</a>
</g>
</g>
<!-- Node1&#45;&gt;Node28 -->
<g id="edge29" class="edge">
<title>Node1&#45;&gt;Node28</title>
<path fill="none" stroke="midnightblue" d="M678.24,-244.07C591.28,-242.88 422.19,-235.51 284,-199 233.95,-185.78 179.62,-158.64 149.2,-142.16"/>
<polygon fill="midnightblue" stroke="midnightblue" points="150.64,-138.97 140.19,-137.22 147.27,-145.1 150.64,-138.97"/>
</g>
<!-- Node3 -->
<g id="node3" class="node">
<title>Node3</title>
<g id="a_node3"><a xlink:href="base_8hpp.html" target="_top" xlink:title=" ">
<polygon fill="white" stroke="red" points="270.5,-0.5 270.5,-19.5 331.5,-19.5 331.5,-0.5 270.5,-0.5"/>
<text text-anchor="middle" x="301" y="-7.5" font-family="Helvetica,sans-Serif" font-size="10.00">base.hpp</text>
</a>
</g>
</g>
<!-- Node2&#45;&gt;Node3 -->
<g id="edge2" class="edge">
<title>Node2&#45;&gt;Node3</title>
<path fill="none" stroke="midnightblue" d="M314.05,-179.47C302.07,-171.7 286.13,-159 279,-143 263.27,-107.68 270.28,-93.67 279,-56 281.23,-46.36 285.82,-36.41 290.24,-28.31"/>
<polygon fill="midnightblue" stroke="midnightblue" points="293.35,-29.92 295.36,-19.52 287.3,-26.4 293.35,-29.92"/>
</g>
<!-- Node10 -->
<g id="node4" class="node">
<title>Node10</title>
<g id="a_node4"><a xlink:href="ctl_2config_8hpp.html" target="_top" xlink:title=" ">
<polygon fill="white" stroke="black" points="288,-118 288,-137 370,-137 370,-118 288,-118"/>
<text text-anchor="middle" x="329" y="-125" font-family="Helvetica,sans-Serif" font-size="10.00">ctl/config.hpp</text>
</a>
</g>
</g>
<!-- Node2&#45;&gt;Node10 -->
<g id="edge3" class="edge">
<title>Node2&#45;&gt;Node10</title>
<path fill="none" stroke="midnightblue" d="M329,-179.48C329,-171.08 329,-157.98 329,-147.16"/>
<polygon fill="midnightblue" stroke="midnightblue" points="332.5,-147.01 329,-137.01 325.5,-147.01 332.5,-147.01"/>
</g>
<!-- Node11 -->
<g id="node5" class="node">
<title>Node11</title>
<g id="a_node5"><a xlink:href="pid__module_8hpp.html" target="_top" xlink:title=" ">
<polygon fill="white" stroke="red" points="288,-56.5 288,-75.5 398,-75.5 398,-56.5 288,-56.5"/>
<text text-anchor="middle" x="343" y="-63.5" font-family="Helvetica,sans-Serif" font-size="10.00">ctl/pid_module.hpp</text>
</a>
</g>
</g>
<!-- Node2&#45;&gt;Node11 -->
<g id="edge6" class="edge">
<title>Node2&#45;&gt;Node11</title>
<path fill="none" stroke="midnightblue" d="M343.95,-179.47C355.93,-171.7 371.87,-159 379,-143 384.61,-130.41 383.56,-125 379,-112 375.21,-101.21 367.63,-91.08 360.4,-83.18"/>
<polygon fill="midnightblue" stroke="midnightblue" points="362.67,-80.49 353.16,-75.81 357.67,-85.4 362.67,-80.49"/>
</g>
<!-- Node13 -->
<g id="node6" class="node">
<title>Node13</title>
<g id="a_node6"><a xlink:title=" ">
<polygon fill="white" stroke="#bfbfbf" points="180.5,-118 180.5,-137 231.5,-137 231.5,-118 180.5,-118"/>
<text text-anchor="middle" x="206" y="-125" font-family="Helvetica,sans-Serif" font-size="10.00">variant</text>
</a>
</g>
</g>
<!-- Node2&#45;&gt;Node13 -->
<g id="edge7" class="edge">
<title>Node2&#45;&gt;Node13</title>
<path fill="none" stroke="midnightblue" d="M311.38,-179.48C290.83,-169.53 256.64,-152.99 232.79,-141.46"/>
<polygon fill="midnightblue" stroke="midnightblue" points="234.12,-138.21 223.59,-137.01 231.07,-144.51 234.12,-138.21"/>
</g>
<!-- Node10&#45;&gt;Node11 -->
<g id="edge4" class="edge">
<title>Node10&#45;&gt;Node11</title>
<path fill="none" stroke="midnightblue" d="M331.01,-117.98C333,-109.49 336.13,-96.2 338.69,-85.32"/>
<polygon fill="midnightblue" stroke="midnightblue" points="342.11,-86.04 341,-75.51 335.3,-84.44 342.11,-86.04"/>
</g>
<!-- Node11&#45;&gt;Node3 -->
<g id="edge5" class="edge">
<title>Node11&#45;&gt;Node3</title>
<path fill="none" stroke="midnightblue" d="M336.06,-56.08C330.07,-48.38 321.25,-37.03 313.95,-27.65"/>
<polygon fill="midnightblue" stroke="midnightblue" points="316.71,-25.5 307.81,-19.75 311.18,-29.79 316.71,-25.5"/>
</g>
<!-- Node15 -->
<g id="node8" class="node">
<title>Node15</title>
<g id="a_node8"><a xlink:href="current_8hpp.html" target="_top" xlink:title=" ">
<polygon fill="white" stroke="red" points="1266,-118 1266,-137 1394,-137 1394,-118 1266,-118"/>
<text text-anchor="middle" x="1330" y="-125" font-family="Helvetica,sans-Serif" font-size="10.00">conversion/current.hpp</text>
</a>
</g>
</g>
<!-- Node14&#45;&gt;Node15 -->
<g id="edge9" class="edge">
<title>Node14&#45;&gt;Node15</title>
<path fill="none" stroke="midnightblue" d="M1330,-179.48C1330,-171.08 1330,-157.98 1330,-147.16"/>
<polygon fill="midnightblue" stroke="midnightblue" points="1333.5,-147.01 1330,-137.01 1326.5,-147.01 1333.5,-147.01"/>
</g>
<!-- Node16 -->
<g id="node9" class="node">
<title>Node16</title>
<g id="a_node9"><a xlink:href="position_8hpp.html" target="_top" xlink:title=" ">
<polygon fill="white" stroke="red" points="1412.5,-118 1412.5,-137 1545.5,-137 1545.5,-118 1412.5,-118"/>
<text text-anchor="middle" x="1479" y="-125" font-family="Helvetica,sans-Serif" font-size="10.00">conversion/position.hpp</text>
</a>
</g>
</g>
<!-- Node14&#45;&gt;Node16 -->
<g id="edge10" class="edge">
<title>Node14&#45;&gt;Node16</title>
<path fill="none" stroke="midnightblue" d="M1351.35,-179.48C1376.69,-169.36 1419.14,-152.4 1448.07,-140.85"/>
<polygon fill="midnightblue" stroke="midnightblue" points="1449.7,-143.97 1457.69,-137.01 1447.11,-137.47 1449.7,-143.97"/>
</g>
<!-- Node17 -->
<g id="node10" class="node">
<title>Node17</title>
<g id="a_node10"><a xlink:href="temperature_8hpp.html" target="_top" xlink:title=" ">
<polygon fill="white" stroke="black" points="1563.5,-118 1563.5,-137 1718.5,-137 1718.5,-118 1563.5,-118"/>
<text text-anchor="middle" x="1641" y="-125" font-family="Helvetica,sans-Serif" font-size="10.00">conversion/temperature.hpp</text>
</a>
</g>
</g>
<!-- Node14&#45;&gt;Node17 -->
<g id="edge11" class="edge">
<title>Node14&#45;&gt;Node17</title>
<path fill="none" stroke="midnightblue" d="M1371.62,-180.04C1427.04,-169.43 1525.2,-150.66 1586.48,-138.93"/>
<polygon fill="midnightblue" stroke="midnightblue" points="1587.19,-142.36 1596.36,-137.04 1585.88,-135.48 1587.19,-142.36"/>
</g>
<!-- Node18 -->
<g id="node11" class="node">
<title>Node18</title>
<g id="a_node11"><a xlink:href="voltage_8hpp.html" target="_top" xlink:title=" ">
<polygon fill="white" stroke="black" points="1116.5,-118 1116.5,-137 1247.5,-137 1247.5,-118 1116.5,-118"/>
<text text-anchor="middle" x="1182" y="-125" font-family="Helvetica,sans-Serif" font-size="10.00">conversion/voltage.hpp</text>
</a>
</g>
</g>
<!-- Node14&#45;&gt;Node18 -->
<g id="edge12" class="edge">
<title>Node14&#45;&gt;Node18</title>
<path fill="none" stroke="midnightblue" d="M1308.8,-179.48C1283.63,-169.36 1241.46,-152.4 1212.72,-140.85"/>
<polygon fill="midnightblue" stroke="midnightblue" points="1213.75,-137.49 1203.17,-137.01 1211.14,-143.99 1213.75,-137.49"/>
</g>
<!-- Node19&#45;&gt;Node3 -->
<g id="edge14" class="edge">
<title>Node19&#45;&gt;Node3</title>
<path fill="none" stroke="midnightblue" d="M725.72,-179.32C702.69,-159.9 648.6,-114.44 644,-112 542.53,-58.09 408.48,-29.33 342.01,-17.54"/>
<polygon fill="midnightblue" stroke="midnightblue" points="342.39,-14.06 331.94,-15.8 341.19,-20.95 342.39,-14.06"/>
</g>
<!-- Node20 -->
<g id="node13" class="node">
<title>Node20</title>
<g id="a_node13"><a xlink:title=" ">
<polygon fill="white" stroke="#bfbfbf" points="502.5,-112.5 502.5,-142.5 635.5,-142.5 635.5,-112.5 502.5,-112.5"/>
<text text-anchor="start" x="510.5" y="-130.5" font-family="Helvetica,sans-Serif" font-size="10.00">emlabcpp/experimental</text>
<text text-anchor="middle" x="569" y="-119.5" font-family="Helvetica,sans-Serif" font-size="10.00">/function_view.h</text>
</a>
</g>
</g>
<!-- Node19&#45;&gt;Node20 -->
<g id="edge15" class="edge">
<title>Node19&#45;&gt;Node20</title>
<path fill="none" stroke="midnightblue" d="M712.07,-179.48C687.66,-170.78 649.07,-157.03 618.11,-146"/>
<polygon fill="midnightblue" stroke="midnightblue" points="618.95,-142.58 608.36,-142.52 616.6,-149.18 618.95,-142.58"/>
</g>
<!-- Node21 -->
<g id="node14" class="node">
<title>Node21</title>
<g id="a_node14"><a xlink:title=" ">
<polygon fill="white" stroke="#bfbfbf" points="692.5,-118 692.5,-137 791.5,-137 791.5,-118 692.5,-118"/>
<text text-anchor="middle" x="742" y="-125" font-family="Helvetica,sans-Serif" font-size="10.00">emlabcpp/view.h</text>
</a>
</g>
</g>
<!-- Node19&#45;&gt;Node21 -->
<g id="edge16" class="edge">
<title>Node19&#45;&gt;Node21</title>
<path fill="none" stroke="midnightblue" d="M736.86,-179.48C737.71,-171.08 739.03,-157.98 740.12,-147.16"/>
<polygon fill="midnightblue" stroke="midnightblue" points="743.62,-147.31 741.14,-137.01 736.66,-146.61 743.62,-147.31"/>
</g>
<!-- Node22 -->
<g id="node15" class="node">
<title>Node22</title>
<g id="a_node15"><a xlink:title=" ">
<polygon fill="white" stroke="#bfbfbf" points="848,-118 848,-137 888,-137 888,-118 848,-118"/>
<text text-anchor="middle" x="868" y="-125" font-family="Helvetica,sans-Serif" font-size="10.00">span</text>
</a>
</g>
</g>
<!-- Node19&#45;&gt;Node22 -->
<g id="edge17" class="edge">
<title>Node19&#45;&gt;Node22</title>
<path fill="none" stroke="midnightblue" d="M754.91,-179.48C777.16,-169.45 814.31,-152.7 839.93,-141.15"/>
<polygon fill="midnightblue" stroke="midnightblue" points="841.44,-144.31 849.12,-137.01 838.57,-137.93 841.44,-144.31"/>
</g>
<!-- Node19&#45;&gt;Node23 -->
<g id="edge18" class="edge">
<title>Node19&#45;&gt;Node23</title>
<path fill="none" stroke="midnightblue" d="M749.41,-179.41C762.65,-170.73 783.29,-156.69 800,-143 823.47,-123.77 848.52,-99.24 864.22,-83.34"/>
<polygon fill="midnightblue" stroke="midnightblue" points="867.02,-85.47 871.51,-75.87 862.02,-80.58 867.02,-85.47"/>
</g>
<!-- Node24&#45;&gt;Node3 -->
<g id="edge20" class="edge">
<title>Node24&#45;&gt;Node3</title>
<path fill="none" stroke="midnightblue" d="M513.67,-179.3C489.51,-150.64 413.58,-60.79 407,-56 386.92,-41.36 361.34,-30.33 340.35,-22.85"/>
<polygon fill="midnightblue" stroke="midnightblue" points="341.35,-19.49 330.76,-19.56 339.08,-26.12 341.35,-19.49"/>
</g>
<!-- Node24&#45;&gt;Node20 -->
<g id="edge21" class="edge">
<title>Node24&#45;&gt;Node20</title>
<path fill="none" stroke="midnightblue" d="M527.88,-179.48C533.95,-171.94 543.08,-160.63 551.2,-150.57"/>
<polygon fill="midnightblue" stroke="midnightblue" points="554.13,-152.5 557.69,-142.52 548.68,-148.11 554.13,-152.5"/>
</g>
<!-- Node24&#45;&gt;Node23 -->
<g id="edge22" class="edge">
<title>Node24&#45;&gt;Node23</title>
<path fill="none" stroke="midnightblue" d="M512.83,-179.43C499.26,-164.15 475.23,-131.95 493,-112 514.3,-88.08 716,-74.92 819.44,-69.69"/>
<polygon fill="midnightblue" stroke="midnightblue" points="819.63,-73.19 829.44,-69.2 819.28,-66.2 819.63,-73.19"/>
</g>
<!-- Node25&#45;&gt;Node20 -->
<g id="edge27" class="edge">
<title>Node25&#45;&gt;Node20</title>
<path fill="none" stroke="midnightblue" d="M830.3,-179.48C782.19,-170.09 703.92,-154.82 645.57,-143.44"/>
<polygon fill="midnightblue" stroke="midnightblue" points="646.14,-139.98 635.65,-141.5 644.8,-146.85 646.14,-139.98"/>
</g>
<!-- Node25&#45;&gt;Node22 -->
<g id="edge28" class="edge">
<title>Node25&#45;&gt;Node22</title>
<path fill="none" stroke="midnightblue" d="M873.14,-179.48C872.29,-171.08 870.97,-157.98 869.88,-147.16"/>
<polygon fill="midnightblue" stroke="midnightblue" points="873.34,-146.61 868.86,-137.01 866.38,-147.31 873.34,-146.61"/>
</g>
<!-- Node26 -->
<g id="node19" class="node">
<title>Node26</title>
<g id="a_node19"><a xlink:title=" ">
<polygon fill="white" stroke="#bfbfbf" points="992.5,-118 992.5,-137 1059.5,-137 1059.5,-118 992.5,-118"/>
<text text-anchor="middle" x="1026" y="-125" font-family="Helvetica,sans-Serif" font-size="10.00">config.hpp</text>
</a>
</g>
</g>
<!-- Node25&#45;&gt;Node26 -->
<g id="edge24" class="edge">
<title>Node25&#45;&gt;Node26</title>
<path fill="none" stroke="midnightblue" d="M895.78,-179.48C921.74,-169.31 965.31,-152.26 994.83,-140.7"/>
<polygon fill="midnightblue" stroke="midnightblue" points="996.23,-143.91 1004.26,-137.01 993.67,-137.4 996.23,-143.91"/>
</g>
<!-- Node27 -->
<g id="node20" class="node">
<title>Node27</title>
<g id="a_node20"><a xlink:href="util_8hpp.html" target="_top" xlink:title=" ">
<polygon fill="white" stroke="red" points="906,-118 906,-137 974,-137 974,-118 906,-118"/>
<text text-anchor="middle" x="940" y="-125" font-family="Helvetica,sans-Serif" font-size="10.00">fw/util.hpp</text>
</a>
</g>
</g>
<!-- Node25&#45;&gt;Node27 -->
<g id="edge25" class="edge">
<title>Node25&#45;&gt;Node27</title>
<path fill="none" stroke="midnightblue" d="M883.46,-179.48C893.75,-170.2 910.42,-155.17 922.99,-143.83"/>
<polygon fill="midnightblue" stroke="midnightblue" points="925.48,-146.3 930.56,-137.01 920.79,-141.11 925.48,-146.3"/>
</g>
<!-- Node27&#45;&gt;Node23 -->
<g id="edge26" class="edge">
<title>Node27&#45;&gt;Node23</title>
<path fill="none" stroke="midnightblue" d="M931.4,-117.98C922.14,-108.78 907.18,-93.96 895.79,-82.66"/>
<polygon fill="midnightblue" stroke="midnightblue" points="898.15,-80.07 888.58,-75.51 893.22,-85.04 898.15,-80.07"/>
</g>
<!-- Node28&#45;&gt;Node3 -->
<g id="edge30" class="edge">
<title>Node28&#45;&gt;Node3</title>
<path fill="none" stroke="midnightblue" d="M138.28,-117.97C153.82,-107.96 180.33,-90.85 203,-76 229.39,-58.71 259.63,-38.61 279.45,-25.39"/>
<polygon fill="midnightblue" stroke="midnightblue" points="281.65,-28.13 288.03,-19.67 277.77,-22.31 281.65,-28.13"/>
</g>
<!-- Node29 -->
<g id="node22" class="node">
<title>Node29</title>
<g id="a_node22"><a xlink:href="kalman_8hpp.html" target="_top" xlink:title=" ">
<polygon fill="white" stroke="red" points="0,-56.5 0,-75.5 74,-75.5 74,-56.5 0,-56.5"/>
<text text-anchor="middle" x="37" y="-63.5" font-family="Helvetica,sans-Serif" font-size="10.00">kalman.hpp</text>
</a>
</g>
</g>
<!-- Node28&#45;&gt;Node29 -->
<g id="edge31" class="edge">
<title>Node28&#45;&gt;Node29</title>
<path fill="none" stroke="midnightblue" d="M112.39,-117.98C98.28,-108.43 75.17,-92.81 58.25,-81.37"/>
<polygon fill="midnightblue" stroke="midnightblue" points="59.83,-78.21 49.58,-75.51 55.91,-84.01 59.83,-78.21"/>
</g>
<!-- Node31 -->
<g id="node23" class="node">
<title>Node31</title>
<g id="a_node23"><a xlink:title=" ">
<polygon fill="white" stroke="#bfbfbf" points="152,-56.5 152,-75.5 194,-75.5 194,-56.5 152,-56.5"/>
<text text-anchor="middle" x="173" y="-63.5" font-family="Helvetica,sans-Serif" font-size="10.00">array</text>
</a>
</g>
</g>
<!-- Node28&#45;&gt;Node31 -->
<g id="edge33" class="edge">
<title>Node28&#45;&gt;Node31</title>
<path fill="none" stroke="midnightblue" d="M131.88,-117.98C139.15,-108.96 150.8,-94.52 159.84,-83.31"/>
<polygon fill="midnightblue" stroke="midnightblue" points="162.58,-85.49 166.14,-75.51 157.13,-81.09 162.58,-85.49"/>
</g>
<!-- Node32 -->
<g id="node24" class="node">
<title>Node32</title>
<g id="a_node24"><a xlink:title=" ">
<polygon fill="white" stroke="#bfbfbf" points="92.5,-56.5 92.5,-75.5 133.5,-75.5 133.5,-56.5 92.5,-56.5"/>
<text text-anchor="middle" x="113" y="-63.5" font-family="Helvetica,sans-Serif" font-size="10.00">tuple</text>
</a>
</g>
</g>
<!-- Node28&#45;&gt;Node32 -->
<g id="edge34" class="edge">
<title>Node28&#45;&gt;Node32</title>
<path fill="none" stroke="midnightblue" d="M123.28,-117.98C121.57,-109.49 118.89,-96.2 116.7,-85.32"/>
<polygon fill="midnightblue" stroke="midnightblue" points="120.12,-84.62 114.72,-75.51 113.26,-86 120.12,-84.62"/>
</g>
<!-- Node29&#45;&gt;Node3 -->
<g id="edge32" class="edge">
<title>Node29&#45;&gt;Node3</title>
<path fill="none" stroke="midnightblue" d="M74.26,-57.38C123.46,-47.31 209.78,-29.66 260.53,-19.28"/>
<polygon fill="midnightblue" stroke="midnightblue" points="261.39,-22.67 270.49,-17.24 259.99,-15.82 261.39,-22.67"/>
</g>
</g>
</svg>
