<?xml version="1.0" encoding="UTF-8" standalone="no"?>
<!DOCTYPE svg PUBLIC "-//W3C//DTD SVG 1.1//EN"
 "http://www.w3.org/Graphics/SVG/1.1/DTD/svg11.dtd">
<!-- Generated by graphviz version 2.43.0 (0)
 -->
<!-- Title: src/fw/callbacks.hpp Pages: 1 -->
<svg width="1699pt" height="263pt"
 viewBox="0.00 0.00 1699.06 263.00" xmlns="http://www.w3.org/2000/svg" xmlns:xlink="http://www.w3.org/1999/xlink">
<g id="graph0" class="graph" transform="scale(1 1) rotate(0) translate(4 259)">
<title>src/fw/callbacks.hpp</title>
<polygon fill="white" stroke="transparent" points="-4,4 -4,-259 1695.06,-259 1695.06,4 -4,4"/>
<!-- Node1 -->
<g id="node1" class="node">
<title>Node1</title>
<g id="a_node1"><a xlink:title=" ">
<polygon fill="#bfbfbf" stroke="black" points="871.06,-235.5 871.06,-254.5 986.06,-254.5 986.06,-235.5 871.06,-235.5"/>
<text text-anchor="middle" x="928.56" y="-242.5" font-family="Helvetica,sans-Serif" font-size="10.00">src/fw/callbacks.hpp</text>
</a>
</g>
</g>
<!-- Node2 -->
<g id="node2" class="node">
<title>Node2</title>
<g id="a_node2"><a xlink:href="control_8hpp.html" target="_top" xlink:title=" ">
<polygon fill="white" stroke="black" points="1268.06,-179.5 1268.06,-198.5 1339.06,-198.5 1339.06,-179.5 1268.06,-179.5"/>
<text text-anchor="middle" x="1303.56" y="-186.5" font-family="Helvetica,sans-Serif" font-size="10.00">control.hpp</text>
</a>
</g>
</g>
<!-- Node1&#45;&gt;Node2 -->
<g id="edge1" class="edge">
<title>Node1&#45;&gt;Node2</title>
<path fill="none" stroke="midnightblue" d="M986.33,-235.68C1061.08,-224.92 1189.77,-206.38 1258.01,-196.56"/>
<polygon fill="midnightblue" stroke="midnightblue" points="1258.62,-200.01 1268.02,-195.12 1257.62,-193.08 1258.62,-200.01"/>
</g>
<!-- Node14 -->
<g id="node7" class="node">
<title>Node14</title>
<g id="a_node7"><a xlink:href="converter_8hpp.html" target="_top" xlink:title=" ">
<polygon fill="white" stroke="black" points="437.06,-123.5 437.06,-142.5 520.06,-142.5 520.06,-123.5 437.06,-123.5"/>
<text text-anchor="middle" x="478.56" y="-130.5" font-family="Helvetica,sans-Serif" font-size="10.00">converter.hpp</text>
</a>
</g>
</g>
<!-- Node1&#45;&gt;Node14 -->
<g id="edge8" class="edge">
<title>Node1&#45;&gt;Node14</title>
<path fill="none" stroke="midnightblue" d="M893.62,-235.46C812.79,-215.7 612.97,-166.86 523.33,-144.94"/>
<polygon fill="midnightblue" stroke="midnightblue" points="524.02,-141.51 513.47,-142.53 522.35,-148.31 524.02,-141.51"/>
</g>
<!-- Node19 -->
<g id="node12" class="node">
<title>Node19</title>
<g id="a_node12"><a xlink:href="acquisition_8hpp.html" target="_top" xlink:title=" ">
<polygon fill="white" stroke="black" points="744.56,-123.5 744.56,-142.5 872.56,-142.5 872.56,-123.5 744.56,-123.5"/>
<text text-anchor="middle" x="808.56" y="-130.5" font-family="Helvetica,sans-Serif" font-size="10.00">drivers/acquisition.hpp</text>
</a>
</g>
</g>
<!-- Node1&#45;&gt;Node19 -->
<g id="edge13" class="edge">
<title>Node1&#45;&gt;Node19</title>
<path fill="none" stroke="midnightblue" d="M922.1,-235.44C912.07,-222.45 891.81,-197.33 871.56,-179 858.97,-167.61 843.46,-156.5 830.98,-148.17"/>
<polygon fill="midnightblue" stroke="midnightblue" points="832.8,-145.18 822.51,-142.63 828.97,-151.03 832.8,-145.18"/>
</g>
<!-- Node23 -->
<g id="node16" class="node">
<title>Node23</title>
<g id="a_node16"><a xlink:title=" ">
<polygon fill="white" stroke="#bfbfbf" points="859.06,-0.5 859.06,-19.5 960.06,-19.5 960.06,-0.5 859.06,-0.5"/>
<text text-anchor="middle" x="909.56" y="-7.5" font-family="Helvetica,sans-Serif" font-size="10.00">stm32g4xx_hal.h</text>
</a>
</g>
</g>
<!-- Node1&#45;&gt;Node23 -->
<g id="edge39" class="edge">
<title>Node1&#45;&gt;Node23</title>
<path fill="none" stroke="midnightblue" d="M870.95,-241.51C652.13,-231.04 -109.17,-185.05 13.56,-56 42.32,-25.75 651.44,-14.61 848.58,-11.78"/>
<polygon fill="midnightblue" stroke="midnightblue" points="848.81,-15.28 858.76,-11.64 848.71,-8.28 848.81,-15.28"/>
</g>
<!-- Node24 -->
<g id="node17" class="node">
<title>Node24</title>
<g id="a_node17"><a xlink:href="clock_8hpp.html" target="_top" xlink:title=" ">
<polygon fill="white" stroke="black" points="1063.56,-123.5 1063.56,-142.5 1163.56,-142.5 1163.56,-123.5 1063.56,-123.5"/>
<text text-anchor="middle" x="1113.56" y="-130.5" font-family="Helvetica,sans-Serif" font-size="10.00">drivers/clock.hpp</text>
</a>
</g>
</g>
<!-- Node1&#45;&gt;Node24 -->
<g id="edge19" class="edge">
<title>Node1&#45;&gt;Node24</title>
<path fill="none" stroke="midnightblue" d="M943.07,-235.37C974.95,-216.41 1051.33,-171 1090.11,-147.94"/>
<polygon fill="midnightblue" stroke="midnightblue" points="1092.3,-150.71 1099.11,-142.59 1088.72,-144.69 1092.3,-150.71"/>
</g>
<!-- Node25 -->
<g id="node18" class="node">
<title>Node25</title>
<g id="a_node18"><a xlink:href="hbridge_8hpp.html" target="_top" xlink:title=" ">
<polygon fill="white" stroke="black" points="891.06,-123.5 891.06,-142.5 1002.06,-142.5 1002.06,-123.5 891.06,-123.5"/>
<text text-anchor="middle" x="946.56" y="-130.5" font-family="Helvetica,sans-Serif" font-size="10.00">drivers/hbridge.hpp</text>
</a>
</g>
</g>
<!-- Node1&#45;&gt;Node25 -->
<g id="edge23" class="edge">
<title>Node1&#45;&gt;Node25</title>
<path fill="none" stroke="midnightblue" d="M929.97,-235.37C932.87,-217.62 939.57,-176.67 943.51,-152.6"/>
<polygon fill="midnightblue" stroke="midnightblue" points="946.99,-153.03 945.15,-142.59 940.08,-151.89 946.99,-153.03"/>
</g>
<!-- Node28 -->
<g id="node21" class="node">
<title>Node28</title>
<g id="a_node21"><a xlink:href="conversion_8hpp.html" target="_top" xlink:title=" ">
<polygon fill="white" stroke="black" points="758.06,-179.5 758.06,-198.5 863.06,-198.5 863.06,-179.5 758.06,-179.5"/>
<text text-anchor="middle" x="810.56" y="-186.5" font-family="Helvetica,sans-Serif" font-size="10.00">fw/conversion.hpp</text>
</a>
</g>
</g>
<!-- Node1&#45;&gt;Node28 -->
<g id="edge29" class="edge">
<title>Node1&#45;&gt;Node28</title>
<path fill="none" stroke="midnightblue" d="M909.86,-235.44C890.61,-226.64 860.4,-212.81 838.36,-202.72"/>
<polygon fill="midnightblue" stroke="midnightblue" points="839.72,-199.5 829.17,-198.52 836.8,-205.86 839.72,-199.5"/>
</g>
<!-- Node29 -->
<g id="node22" class="node">
<title>Node29</title>
<g id="a_node22"><a xlink:href="metrics_8hpp.html" target="_top" xlink:title=" ">
<polygon fill="white" stroke="black" points="1497.56,-123.5 1497.56,-142.5 1571.56,-142.5 1571.56,-123.5 1497.56,-123.5"/>
<text text-anchor="middle" x="1534.56" y="-130.5" font-family="Helvetica,sans-Serif" font-size="10.00">metrics.hpp</text>
</a>
</g>
</g>
<!-- Node1&#45;&gt;Node29 -->
<g id="edge33" class="edge">
<title>Node1&#45;&gt;Node29</title>
<path fill="none" stroke="midnightblue" d="M986.3,-242C1067.9,-238.23 1221.21,-227.67 1348.56,-199 1405.6,-186.16 1469.39,-161.49 1505.49,-146.51"/>
<polygon fill="midnightblue" stroke="midnightblue" points="1507.04,-149.65 1514.9,-142.56 1504.33,-143.2 1507.04,-149.65"/>
</g>
<!-- Node3 -->
<g id="node3" class="node">
<title>Node3</title>
<g id="a_node3"><a xlink:href="base_8hpp.html" target="_top" xlink:title=" ">
<polygon fill="white" stroke="red" points="1314.06,-0.5 1314.06,-19.5 1375.06,-19.5 1375.06,-0.5 1314.06,-0.5"/>
<text text-anchor="middle" x="1344.56" y="-7.5" font-family="Helvetica,sans-Serif" font-size="10.00">base.hpp</text>
</a>
</g>
</g>
<!-- Node2&#45;&gt;Node3 -->
<g id="edge2" class="edge">
<title>Node2&#45;&gt;Node3</title>
<path fill="none" stroke="midnightblue" d="M1303.87,-179.46C1304.84,-158.16 1308.65,-101.14 1322.56,-56 1325.47,-46.55 1330.14,-36.61 1334.42,-28.49"/>
<polygon fill="midnightblue" stroke="midnightblue" points="1337.55,-30.07 1339.32,-19.63 1331.42,-26.68 1337.55,-30.07"/>
</g>
<!-- Node10 -->
<g id="node4" class="node">
<title>Node10</title>
<g id="a_node4"><a xlink:href="ctl_2config_8hpp.html" target="_top" xlink:title=" ">
<polygon fill="white" stroke="black" points="1369.56,-123.5 1369.56,-142.5 1451.56,-142.5 1451.56,-123.5 1369.56,-123.5"/>
<text text-anchor="middle" x="1410.56" y="-130.5" font-family="Helvetica,sans-Serif" font-size="10.00">ctl/config.hpp</text>
</a>
</g>
</g>
<!-- Node2&#45;&gt;Node10 -->
<g id="edge3" class="edge">
<title>Node2&#45;&gt;Node10</title>
<path fill="none" stroke="midnightblue" d="M1320.75,-179.32C1337.91,-170.66 1364.5,-157.24 1384.3,-147.25"/>
<polygon fill="midnightblue" stroke="midnightblue" points="1386.06,-150.28 1393.41,-142.65 1382.9,-144.04 1386.06,-150.28"/>
</g>
<!-- Node11 -->
<g id="node5" class="node">
<title>Node11</title>
<g id="a_node5"><a xlink:href="pid__module_8hpp.html" target="_top" xlink:title=" ">
<polygon fill="white" stroke="red" points="1331.56,-62 1331.56,-81 1441.56,-81 1441.56,-62 1331.56,-62"/>
<text text-anchor="middle" x="1386.56" y="-69" font-family="Helvetica,sans-Serif" font-size="10.00">ctl/pid_module.hpp</text>
</a>
</g>
</g>
<!-- Node2&#45;&gt;Node11 -->
<g id="edge6" class="edge">
<title>Node2&#45;&gt;Node11</title>
<path fill="none" stroke="midnightblue" d="M1309.79,-179.32C1323.49,-160.26 1356.41,-114.45 1374.37,-89.46"/>
<polygon fill="midnightblue" stroke="midnightblue" points="1377.25,-91.45 1380.25,-81.28 1371.57,-87.36 1377.25,-91.45"/>
</g>
<!-- Node13 -->
<g id="node6" class="node">
<title>Node13</title>
<g id="a_node6"><a xlink:title=" ">
<polygon fill="white" stroke="#bfbfbf" points="1224.06,-123.5 1224.06,-142.5 1275.06,-142.5 1275.06,-123.5 1224.06,-123.5"/>
<text text-anchor="middle" x="1249.56" y="-130.5" font-family="Helvetica,sans-Serif" font-size="10.00">variant</text>
</a>
</g>
</g>
<!-- Node2&#45;&gt;Node13 -->
<g id="edge7" class="edge">
<title>Node2&#45;&gt;Node13</title>
<path fill="none" stroke="midnightblue" d="M1294.64,-179.08C1286.78,-171.22 1275.12,-159.57 1265.64,-150.08"/>
<polygon fill="midnightblue" stroke="midnightblue" points="1267.85,-147.35 1258.31,-142.75 1262.9,-152.3 1267.85,-147.35"/>
</g>
<!-- Node10&#45;&gt;Node11 -->
<g id="edge4" class="edge">
<title>Node10&#45;&gt;Node11</title>
<path fill="none" stroke="midnightblue" d="M1407.12,-123.48C1403.66,-114.9 1398.22,-101.43 1393.81,-90.48"/>
<polygon fill="midnightblue" stroke="midnightblue" points="1396.97,-88.97 1389.99,-81.01 1390.48,-91.59 1396.97,-88.97"/>
</g>
<!-- Node11&#45;&gt;Node3 -->
<g id="edge5" class="edge">
<title>Node11&#45;&gt;Node3</title>
<path fill="none" stroke="midnightblue" d="M1380.54,-61.98C1374.3,-53.14 1364.38,-39.09 1356.54,-27.98"/>
<polygon fill="midnightblue" stroke="midnightblue" points="1359.19,-25.66 1350.56,-19.51 1353.47,-29.7 1359.19,-25.66"/>
</g>
<!-- Node15 -->
<g id="node8" class="node">
<title>Node15</title>
<g id="a_node8"><a xlink:href="current_8hpp.html" target="_top" xlink:title=" ">
<polygon fill="white" stroke="red" points="22.56,-62 22.56,-81 150.56,-81 150.56,-62 22.56,-62"/>
<text text-anchor="middle" x="86.56" y="-69" font-family="Helvetica,sans-Serif" font-size="10.00">conversion/current.hpp</text>
</a>
</g>
</g>
<!-- Node14&#45;&gt;Node15 -->
<g id="edge9" class="edge">
<title>Node14&#45;&gt;Node15</title>
<path fill="none" stroke="midnightblue" d="M436.89,-126.88C375.87,-119.21 258.67,-103.82 159.56,-87 152.37,-85.78 144.82,-84.4 137.39,-82.98"/>
<polygon fill="midnightblue" stroke="midnightblue" points="137.89,-79.51 127.41,-81.03 136.55,-86.38 137.89,-79.51"/>
</g>
<!-- Node16 -->
<g id="node9" class="node">
<title>Node16</title>
<g id="a_node9"><a xlink:href="position_8hpp.html" target="_top" xlink:title=" ">
<polygon fill="white" stroke="red" points="169.06,-62 169.06,-81 302.06,-81 302.06,-62 169.06,-62"/>
<text text-anchor="middle" x="235.56" y="-69" font-family="Helvetica,sans-Serif" font-size="10.00">conversion/position.hpp</text>
</a>
</g>
</g>
<!-- Node14&#45;&gt;Node16 -->
<g id="edge10" class="edge">
<title>Node14&#45;&gt;Node16</title>
<path fill="none" stroke="midnightblue" d="M443.74,-123.48C400.7,-112.94 327.39,-94.99 280.24,-83.44"/>
<polygon fill="midnightblue" stroke="midnightblue" points="280.85,-79.99 270.31,-81.01 279.19,-86.79 280.85,-79.99"/>
</g>
<!-- Node17 -->
<g id="node10" class="node">
<title>Node17</title>
<g id="a_node10"><a xlink:href="temperature_8hpp.html" target="_top" xlink:title=" ">
<polygon fill="white" stroke="black" points="320.06,-62 320.06,-81 475.06,-81 475.06,-62 320.06,-62"/>
<text text-anchor="middle" x="397.56" y="-69" font-family="Helvetica,sans-Serif" font-size="10.00">conversion/temperature.hpp</text>
</a>
</g>
</g>
<!-- Node14&#45;&gt;Node17 -->
<g id="edge11" class="edge">
<title>Node14&#45;&gt;Node17</title>
<path fill="none" stroke="midnightblue" d="M466.95,-123.48C454.08,-114.02 433.08,-98.6 417.55,-87.19"/>
<polygon fill="midnightblue" stroke="midnightblue" points="419.27,-84.11 409.14,-81.01 415.13,-89.75 419.27,-84.11"/>
</g>
<!-- Node18 -->
<g id="node11" class="node">
<title>Node18</title>
<g id="a_node11"><a xlink:href="voltage_8hpp.html" target="_top" xlink:title=" ">
<polygon fill="white" stroke="black" points="493.06,-62 493.06,-81 624.06,-81 624.06,-62 493.06,-62"/>
<text text-anchor="middle" x="558.56" y="-69" font-family="Helvetica,sans-Serif" font-size="10.00">conversion/voltage.hpp</text>
</a>
</g>
</g>
<!-- Node14&#45;&gt;Node18 -->
<g id="edge12" class="edge">
<title>Node14&#45;&gt;Node18</title>
<path fill="none" stroke="midnightblue" d="M490.02,-123.48C502.73,-114.02 523.47,-98.6 538.81,-87.19"/>
<polygon fill="midnightblue" stroke="midnightblue" points="541.18,-89.79 547.12,-81.01 537,-84.17 541.18,-89.79"/>
</g>
<!-- Node19&#45;&gt;Node3 -->
<g id="edge14" class="edge">
<title>Node19&#45;&gt;Node3</title>
<path fill="none" stroke="midnightblue" d="M807.8,-123.3C806.94,-107.22 807.69,-72.95 827.56,-56 863.49,-25.34 1187.47,-14.72 1303.47,-11.88"/>
<polygon fill="midnightblue" stroke="midnightblue" points="1303.8,-15.37 1313.71,-11.63 1303.63,-8.37 1303.8,-15.37"/>
</g>
<!-- Node20 -->
<g id="node13" class="node">
<title>Node20</title>
<g id="a_node13"><a xlink:title=" ">
<polygon fill="white" stroke="#bfbfbf" points="980.06,-56.5 980.06,-86.5 1113.06,-86.5 1113.06,-56.5 980.06,-56.5"/>
<text text-anchor="start" x="988.06" y="-74.5" font-family="Helvetica,sans-Serif" font-size="10.00">emlabcpp/experimental</text>
<text text-anchor="middle" x="1046.56" y="-63.5" font-family="Helvetica,sans-Serif" font-size="10.00">/function_view.h</text>
</a>
</g>
</g>
<!-- Node19&#45;&gt;Node20 -->
<g id="edge15" class="edge">
<title>Node19&#45;&gt;Node20</title>
<path fill="none" stroke="midnightblue" d="M842.66,-123.48C878.5,-114.51 935.8,-100.19 980.54,-89"/>
<polygon fill="midnightblue" stroke="midnightblue" points="981.61,-92.34 990.46,-86.52 979.91,-85.55 981.61,-92.34"/>
</g>
<!-- Node21 -->
<g id="node14" class="node">
<title>Node21</title>
<g id="a_node14"><a xlink:title=" ">
<polygon fill="white" stroke="#bfbfbf" points="681.06,-62 681.06,-81 780.06,-81 780.06,-62 681.06,-62"/>
<text text-anchor="middle" x="730.56" y="-69" font-family="Helvetica,sans-Serif" font-size="10.00">emlabcpp/view.h</text>
</a>
</g>
</g>
<!-- Node19&#45;&gt;Node21 -->
<g id="edge16" class="edge">
<title>Node19&#45;&gt;Node21</title>
<path fill="none" stroke="midnightblue" d="M797.38,-123.48C784.99,-114.02 764.77,-98.6 749.81,-87.19"/>
<polygon fill="midnightblue" stroke="midnightblue" points="751.78,-84.29 741.71,-81.01 747.54,-89.86 751.78,-84.29"/>
</g>
<!-- Node22 -->
<g id="node15" class="node">
<title>Node22</title>
<g id="a_node15"><a xlink:title=" ">
<polygon fill="white" stroke="#bfbfbf" points="836.56,-62 836.56,-81 876.56,-81 876.56,-62 836.56,-62"/>
<text text-anchor="middle" x="856.56" y="-69" font-family="Helvetica,sans-Serif" font-size="10.00">span</text>
</a>
</g>
</g>
<!-- Node19&#45;&gt;Node22 -->
<g id="edge17" class="edge">
<title>Node19&#45;&gt;Node22</title>
<path fill="none" stroke="midnightblue" d="M815.43,-123.48C822.7,-114.46 834.35,-100.02 843.4,-88.81"/>
<polygon fill="midnightblue" stroke="midnightblue" points="846.14,-90.99 849.69,-81.01 840.69,-86.59 846.14,-90.99"/>
</g>
<!-- Node19&#45;&gt;Node23 -->
<g id="edge18" class="edge">
<title>Node19&#45;&gt;Node23</title>
<path fill="none" stroke="midnightblue" d="M759.43,-123.41C709.3,-112.53 642.66,-90.87 671.56,-56 693.64,-29.35 785.7,-18.37 848.63,-13.92"/>
<polygon fill="midnightblue" stroke="midnightblue" points="849.11,-17.4 858.86,-13.24 848.65,-10.41 849.11,-17.4"/>
</g>
<!-- Node24&#45;&gt;Node3 -->
<g id="edge20" class="edge">
<title>Node24&#45;&gt;Node3</title>
<path fill="none" stroke="midnightblue" d="M1138.61,-123.45C1161.71,-115.22 1196.67,-101.86 1225.56,-87 1261.93,-68.29 1301.44,-41.68 1324.55,-25.42"/>
<polygon fill="midnightblue" stroke="midnightblue" points="1326.71,-28.18 1332.83,-19.54 1322.65,-22.47 1326.71,-28.18"/>
</g>
<!-- Node24&#45;&gt;Node20 -->
<g id="edge21" class="edge">
<title>Node24&#45;&gt;Node20</title>
<path fill="none" stroke="midnightblue" d="M1103.96,-123.48C1095.14,-115.64 1081.71,-103.71 1070.05,-93.37"/>
<polygon fill="midnightblue" stroke="midnightblue" points="1072.15,-90.55 1062.35,-86.52 1067.5,-95.78 1072.15,-90.55"/>
</g>
<!-- Node24&#45;&gt;Node23 -->
<g id="edge22" class="edge">
<title>Node24&#45;&gt;Node23</title>
<path fill="none" stroke="midnightblue" d="M1154.61,-123.38C1174.52,-116.92 1196.65,-105.81 1208.56,-87 1215.92,-75.36 1217.54,-66.44 1208.56,-56 1178.49,-21.07 1048.96,-12.88 970.59,-11.19"/>
<polygon fill="midnightblue" stroke="midnightblue" points="970.42,-7.69 960.36,-11 970.29,-14.69 970.42,-7.69"/>
</g>
<!-- Node25&#45;&gt;Node20 -->
<g id="edge27" class="edge">
<title>Node25&#45;&gt;Node20</title>
<path fill="none" stroke="midnightblue" d="M960.88,-123.48C974.68,-115.27 996.04,-102.56 1013.98,-91.88"/>
<polygon fill="midnightblue" stroke="midnightblue" points="1016.18,-94.64 1022.99,-86.52 1012.6,-88.63 1016.18,-94.64"/>
</g>
<!-- Node25&#45;&gt;Node22 -->
<g id="edge28" class="edge">
<title>Node25&#45;&gt;Node22</title>
<path fill="none" stroke="midnightblue" d="M933.66,-123.48C919.09,-113.84 895.15,-98.02 877.81,-86.55"/>
<polygon fill="midnightblue" stroke="midnightblue" points="879.7,-83.6 869.43,-81.01 875.84,-89.44 879.7,-83.6"/>
</g>
<!-- Node26 -->
<g id="node19" class="node">
<title>Node26</title>
<g id="a_node19"><a xlink:title=" ">
<polygon fill="white" stroke="#bfbfbf" points="895.06,-62 895.06,-81 962.06,-81 962.06,-62 895.06,-62"/>
<text text-anchor="middle" x="928.56" y="-69" font-family="Helvetica,sans-Serif" font-size="10.00">config.hpp</text>
</a>
</g>
</g>
<!-- Node25&#45;&gt;Node26 -->
<g id="edge24" class="edge">
<title>Node25&#45;&gt;Node26</title>
<path fill="none" stroke="midnightblue" d="M943.98,-123.48C941.41,-114.99 937.39,-101.7 934.1,-90.82"/>
<polygon fill="midnightblue" stroke="midnightblue" points="937.38,-89.57 931.13,-81.01 930.68,-91.59 937.38,-89.57"/>
</g>
<!-- Node27 -->
<g id="node20" class="node">
<title>Node27</title>
<g id="a_node20"><a xlink:href="util_8hpp.html" target="_top" xlink:title=" ">
<polygon fill="white" stroke="red" points="1131.56,-62 1131.56,-81 1199.56,-81 1199.56,-62 1131.56,-62"/>
<text text-anchor="middle" x="1165.56" y="-69" font-family="Helvetica,sans-Serif" font-size="10.00">fw/util.hpp</text>
</a>
</g>
</g>
<!-- Node25&#45;&gt;Node27 -->
<g id="edge25" class="edge">
<title>Node25&#45;&gt;Node27</title>
<path fill="none" stroke="midnightblue" d="M982.61,-123.47C1018.13,-114.9 1073.84,-100.98 1121.56,-87 1124.55,-86.12 1127.64,-85.18 1130.74,-84.21"/>
<polygon fill="midnightblue" stroke="midnightblue" points="1132.06,-87.46 1140.52,-81.07 1129.93,-80.8 1132.06,-87.46"/>
</g>
<!-- Node27&#45;&gt;Node23 -->
<g id="edge26" class="edge">
<title>Node27&#45;&gt;Node23</title>
<path fill="none" stroke="midnightblue" d="M1141.03,-61.89C1134.73,-59.82 1127.92,-57.72 1121.56,-56 1069.77,-42.02 1009.91,-29.65 967.03,-21.44"/>
<polygon fill="midnightblue" stroke="midnightblue" points="967.54,-17.97 957.06,-19.54 966.23,-24.85 967.54,-17.97"/>
</g>
<!-- Node28&#45;&gt;Node14 -->
<g id="edge30" class="edge">
<title>Node28&#45;&gt;Node14</title>
<path fill="none" stroke="midnightblue" d="M757.95,-179.44C695.6,-169.3 592.36,-152.51 530.36,-142.43"/>
<polygon fill="midnightblue" stroke="midnightblue" points="530.84,-138.96 520.4,-140.81 529.71,-145.87 530.84,-138.96"/>
</g>
<!-- Node28&#45;&gt;Node19 -->
<g id="edge31" class="edge">
<title>Node28&#45;&gt;Node19</title>
<path fill="none" stroke="midnightblue" d="M810.23,-179.08C809.96,-172.01 809.59,-161.86 809.26,-152.99"/>
<polygon fill="midnightblue" stroke="midnightblue" points="812.75,-152.61 808.88,-142.75 805.75,-152.87 812.75,-152.61"/>
</g>
<!-- Node28&#45;&gt;Node25 -->
<g id="edge32" class="edge">
<title>Node28&#45;&gt;Node25</title>
<path fill="none" stroke="midnightblue" d="M832.11,-179.44C854.59,-170.52 890.04,-156.44 915.54,-146.32"/>
<polygon fill="midnightblue" stroke="midnightblue" points="917.1,-149.46 925.11,-142.52 914.52,-142.95 917.1,-149.46"/>
</g>
<!-- Node29&#45;&gt;Node3 -->
<g id="edge34" class="edge">
<title>Node29&#45;&gt;Node3</title>
<path fill="none" stroke="midnightblue" d="M1525.83,-123.41C1507.82,-105.81 1466.88,-66.43 1450.56,-56 1428.88,-42.16 1402.23,-30.86 1381.07,-23.05"/>
<polygon fill="midnightblue" stroke="midnightblue" points="1382.07,-19.69 1371.47,-19.61 1379.7,-26.28 1382.07,-19.69"/>
</g>
<!-- Node30 -->
<g id="node23" class="node">
<title>Node30</title>
<g id="a_node23"><a xlink:href="kalman_8hpp.html" target="_top" xlink:title=" ">
<polygon fill="white" stroke="red" points="1497.56,-62 1497.56,-81 1571.56,-81 1571.56,-62 1497.56,-62"/>
<text text-anchor="middle" x="1534.56" y="-69" font-family="Helvetica,sans-Serif" font-size="10.00">kalman.hpp</text>
</a>
</g>
</g>
<!-- Node29&#45;&gt;Node30 -->
<g id="edge35" class="edge">
<title>Node29&#45;&gt;Node30</title>
<path fill="none" stroke="midnightblue" d="M1534.56,-123.48C1534.56,-115.08 1534.56,-101.98 1534.56,-91.16"/>
<polygon fill="midnightblue" stroke="midnightblue" points="1538.06,-91.01 1534.56,-81.01 1531.06,-91.01 1538.06,-91.01"/>
</g>
<!-- Node32 -->
<g id="node24" class="node">
<title>Node32</title>
<g id="a_node24"><a xlink:title=" ">
<polygon fill="white" stroke="#bfbfbf" points="1589.56,-62 1589.56,-81 1631.56,-81 1631.56,-62 1589.56,-62"/>
<text text-anchor="middle" x="1610.56" y="-69" font-family="Helvetica,sans-Serif" font-size="10.00">array</text>
</a>
</g>
</g>
<!-- Node29&#45;&gt;Node32 -->
<g id="edge37" class="edge">
<title>Node29&#45;&gt;Node32</title>
<path fill="none" stroke="midnightblue" d="M1545.44,-123.48C1557.52,-114.02 1577.22,-98.6 1591.8,-87.19"/>
<polygon fill="midnightblue" stroke="midnightblue" points="1593.97,-89.93 1599.69,-81.01 1589.66,-84.42 1593.97,-89.93"/>
</g>
<!-- Node33 -->
<g id="node25" class="node">
<title>Node33</title>
<g id="a_node25"><a xlink:title=" ">
<polygon fill="white" stroke="#bfbfbf" points="1650.06,-62 1650.06,-81 1691.06,-81 1691.06,-62 1650.06,-62"/>
<text text-anchor="middle" x="1670.56" y="-69" font-family="Helvetica,sans-Serif" font-size="10.00">tuple</text>
</a>
</g>
</g>
<!-- Node29&#45;&gt;Node33 -->
<g id="edge38" class="edge">
<title>Node29&#45;&gt;Node33</title>
<path fill="none" stroke="midnightblue" d="M1555.81,-123.34C1577.3,-114.49 1611.42,-100.21 1640.56,-87 1641.71,-86.48 1642.89,-85.93 1644.08,-85.38"/>
<polygon fill="midnightblue" stroke="midnightblue" points="1645.63,-88.52 1653.17,-81.08 1642.64,-82.19 1645.63,-88.52"/>
</g>
<!-- Node30&#45;&gt;Node3 -->
<g id="edge36" class="edge">
<title>Node30&#45;&gt;Node3</title>
<path fill="none" stroke="midnightblue" d="M1507.33,-61.98C1474.32,-51.64 1418.52,-34.16 1381.6,-22.6"/>
<polygon fill="midnightblue" stroke="midnightblue" points="1382.32,-19.16 1371.73,-19.51 1380.22,-25.84 1382.32,-19.16"/>
</g>
</g>
</svg>
