<?xml version="1.0" encoding="UTF-8" standalone="no"?>
<!DOCTYPE svg PUBLIC "-//W3C//DTD SVG 1.1//EN"
 "http://www.w3.org/Graphics/SVG/1.1/DTD/svg11.dtd">
<!-- Generated by graphviz version 2.43.0 (0)
 -->
<!-- Title: src/fw/callbacks.hpp Pages: 1 -->
<svg width="1953pt" height="274pt"
 viewBox="0.00 0.00 1952.89 274.00" xmlns="http://www.w3.org/2000/svg" xmlns:xlink="http://www.w3.org/1999/xlink">
<g id="graph0" class="graph" transform="scale(1 1) rotate(0) translate(4 270)">
<title>src/fw/callbacks.hpp</title>
<polygon fill="white" stroke="transparent" points="-4,4 -4,-270 1948.89,-270 1948.89,4 -4,4"/>
<!-- Node1 -->
<g id="node1" class="node">
<title>Node1</title>
<g id="a_node1"><a xlink:title=" ">
<polygon fill="#bfbfbf" stroke="black" points="703.89,-246.5 703.89,-265.5 818.89,-265.5 818.89,-246.5 703.89,-246.5"/>
<text text-anchor="middle" x="761.39" y="-253.5" font-family="Helvetica,sans-Serif" font-size="10.00">src/fw/callbacks.hpp</text>
</a>
</g>
</g>
<!-- Node2 -->
<g id="node2" class="node">
<title>Node2</title>
<g id="a_node2"><a xlink:href="control_8hpp.html" target="_top" xlink:title=" ">
<polygon fill="white" stroke="black" points="159.89,-190.5 159.89,-209.5 230.89,-209.5 230.89,-190.5 159.89,-190.5"/>
<text text-anchor="middle" x="195.39" y="-197.5" font-family="Helvetica,sans-Serif" font-size="10.00">control.hpp</text>
</a>
</g>
</g>
<!-- Node1&#45;&gt;Node2 -->
<g id="edge1" class="edge">
<title>Node1&#45;&gt;Node2</title>
<path fill="none" stroke="midnightblue" d="M703.74,-249.5C590.98,-238.74 343.31,-215.11 241,-205.35"/>
<polygon fill="midnightblue" stroke="midnightblue" points="241.27,-201.86 230.98,-204.4 240.61,-208.83 241.27,-201.86"/>
</g>
<!-- Node15 -->
<g id="node8" class="node">
<title>Node15</title>
<g id="a_node8"><a xlink:href="converter_8hpp.html" target="_top" xlink:title=" ">
<polygon fill="white" stroke="black" points="965.89,-129 965.89,-148 1048.89,-148 1048.89,-129 965.89,-129"/>
<text text-anchor="middle" x="1007.39" y="-136" font-family="Helvetica,sans-Serif" font-size="10.00">converter.hpp</text>
</a>
</g>
</g>
<!-- Node1&#45;&gt;Node15 -->
<g id="edge9" class="edge">
<title>Node1&#45;&gt;Node15</title>
<path fill="none" stroke="midnightblue" d="M779.88,-246.32C822.73,-226.2 929,-176.31 979.66,-152.52"/>
<polygon fill="midnightblue" stroke="midnightblue" points="981.46,-155.54 989.02,-148.12 978.48,-149.21 981.46,-155.54"/>
</g>
<!-- Node20 -->
<g id="node13" class="node">
<title>Node20</title>
<g id="a_node13"><a xlink:href="acquisition_8hpp.html" target="_top" xlink:title=" ">
<polygon fill="white" stroke="black" points="556.39,-129 556.39,-148 666.39,-148 666.39,-129 556.39,-129"/>
<text text-anchor="middle" x="611.39" y="-136" font-family="Helvetica,sans-Serif" font-size="10.00">drv/acquisition.hpp</text>
</a>
</g>
</g>
<!-- Node1&#45;&gt;Node20 -->
<g id="edge14" class="edge">
<title>Node1&#45;&gt;Node20</title>
<path fill="none" stroke="midnightblue" d="M730.83,-246.49C709.18,-239.34 680.36,-227.46 659.39,-210 641.84,-195.39 628.02,-172.8 619.8,-157.14"/>
<polygon fill="midnightblue" stroke="midnightblue" points="622.83,-155.38 615.22,-148.01 616.57,-158.52 622.83,-155.38"/>
</g>
<!-- Node24 -->
<g id="node17" class="node">
<title>Node24</title>
<g id="a_node17"><a xlink:title=" ">
<polygon fill="white" stroke="#bfbfbf" points="663.89,-0.5 663.89,-19.5 764.89,-19.5 764.89,-0.5 663.89,-0.5"/>
<text text-anchor="middle" x="714.39" y="-7.5" font-family="Helvetica,sans-Serif" font-size="10.00">stm32g4xx_hal.h</text>
</a>
</g>
</g>
<!-- Node1&#45;&gt;Node24 -->
<g id="edge40" class="edge">
<title>Node1&#45;&gt;Node24</title>
<path fill="none" stroke="midnightblue" d="M819.06,-249C1005.5,-228.52 1574.62,-156.99 1479.39,-56 1455.34,-30.49 952.19,-16.48 775.26,-12.33"/>
<polygon fill="midnightblue" stroke="midnightblue" points="775.16,-8.82 765.08,-12.09 775,-15.82 775.16,-8.82"/>
</g>
<!-- Node25 -->
<g id="node18" class="node">
<title>Node25</title>
<g id="a_node18"><a xlink:href="clock_8hpp.html" target="_top" xlink:title=" ">
<polygon fill="white" stroke="black" points="442.39,-129 442.39,-148 524.39,-148 524.39,-129 442.39,-129"/>
<text text-anchor="middle" x="483.39" y="-136" font-family="Helvetica,sans-Serif" font-size="10.00">drv/clock.hpp</text>
</a>
</g>
</g>
<!-- Node1&#45;&gt;Node25 -->
<g id="edge20" class="edge">
<title>Node1&#45;&gt;Node25</title>
<path fill="none" stroke="midnightblue" d="M736.21,-246.42C711.19,-237.75 671.85,-223.71 638.39,-210 592.97,-191.39 541.27,-167.27 510.54,-152.61"/>
<polygon fill="midnightblue" stroke="midnightblue" points="511.86,-149.36 501.33,-148.2 508.84,-155.68 511.86,-149.36"/>
</g>
<!-- Node26 -->
<g id="node19" class="node">
<title>Node26</title>
<g id="a_node19"><a xlink:href="hbridge_8hpp.html" target="_top" xlink:title=" ">
<polygon fill="white" stroke="black" points="684.89,-129 684.89,-148 777.89,-148 777.89,-129 684.89,-129"/>
<text text-anchor="middle" x="731.39" y="-136" font-family="Helvetica,sans-Serif" font-size="10.00">drv/hbridge.hpp</text>
</a>
</g>
</g>
<!-- Node1&#45;&gt;Node26 -->
<g id="edge24" class="edge">
<title>Node1&#45;&gt;Node26</title>
<path fill="none" stroke="midnightblue" d="M768.02,-246.42C776.89,-233.83 790.61,-209.7 782.39,-190 776.35,-175.52 763.92,-163.07 752.84,-154.15"/>
<polygon fill="midnightblue" stroke="midnightblue" points="754.85,-151.28 744.76,-148.05 750.63,-156.87 754.85,-151.28"/>
</g>
<!-- Node31 -->
<g id="node22" class="node">
<title>Node31</title>
<g id="a_node22"><a xlink:href="conversion_8hpp.html" target="_top" xlink:title=" ">
<polygon fill="white" stroke="black" points="668.89,-190.5 668.89,-209.5 773.89,-209.5 773.89,-190.5 668.89,-190.5"/>
<text text-anchor="middle" x="721.39" y="-197.5" font-family="Helvetica,sans-Serif" font-size="10.00">fw/conversion.hpp</text>
</a>
</g>
</g>
<!-- Node1&#45;&gt;Node31 -->
<g id="edge30" class="edge">
<title>Node1&#45;&gt;Node31</title>
<path fill="none" stroke="midnightblue" d="M754.79,-246.08C749.14,-238.46 740.85,-227.26 733.94,-217.94"/>
<polygon fill="midnightblue" stroke="midnightblue" points="736.64,-215.7 727.87,-209.75 731.01,-219.87 736.64,-215.7"/>
</g>
<!-- Node32 -->
<g id="node23" class="node">
<title>Node32</title>
<g id="a_node23"><a xlink:href="metrics_8hpp.html" target="_top" xlink:title=" ">
<polygon fill="white" stroke="black" points="1663.39,-190.5 1663.39,-209.5 1737.39,-209.5 1737.39,-190.5 1663.39,-190.5"/>
<text text-anchor="middle" x="1700.39" y="-197.5" font-family="Helvetica,sans-Serif" font-size="10.00">metrics.hpp</text>
</a>
</g>
</g>
<!-- Node1&#45;&gt;Node32 -->
<g id="edge34" class="edge">
<title>Node1&#45;&gt;Node32</title>
<path fill="none" stroke="midnightblue" d="M819.07,-251.68C990.5,-241.82 1494.78,-212.82 1652.61,-203.75"/>
<polygon fill="midnightblue" stroke="midnightblue" points="1653.15,-207.22 1662.93,-203.15 1652.75,-200.23 1653.15,-207.22"/>
</g>
<!-- Node3 -->
<g id="node3" class="node">
<title>Node3</title>
<g id="a_node3"><a xlink:href="base_8hpp.html" target="_top" xlink:title=" ">
<polygon fill="white" stroke="red" points="197.89,-0.5 197.89,-19.5 258.89,-19.5 258.89,-0.5 197.89,-0.5"/>
<text text-anchor="middle" x="228.39" y="-7.5" font-family="Helvetica,sans-Serif" font-size="10.00">base.hpp</text>
</a>
</g>
</g>
<!-- Node2&#45;&gt;Node3 -->
<g id="edge2" class="edge">
<title>Node2&#45;&gt;Node3</title>
<path fill="none" stroke="midnightblue" d="M159.73,-198.8C97,-196.87 -23.94,-185.2 4.39,-123 36.47,-52.56 132.26,-25.93 187.64,-16.24"/>
<polygon fill="midnightblue" stroke="midnightblue" points="188.51,-19.64 197.81,-14.57 187.38,-12.73 188.51,-19.64"/>
</g>
<!-- Node10 -->
<g id="node4" class="node">
<title>Node10</title>
<g id="a_node4"><a xlink:href="ctl_2config_8hpp.html" target="_top" xlink:title=" ">
<polygon fill="white" stroke="black" points="250.39,-129 250.39,-148 332.39,-148 332.39,-129 250.39,-129"/>
<text text-anchor="middle" x="291.39" y="-136" font-family="Helvetica,sans-Serif" font-size="10.00">ctl/config.hpp</text>
</a>
</g>
</g>
<!-- Node2&#45;&gt;Node10 -->
<g id="edge3" class="edge">
<title>Node2&#45;&gt;Node10</title>
<path fill="none" stroke="midnightblue" d="M209.14,-190.48C224.76,-180.8 250.45,-164.87 268.97,-153.39"/>
<polygon fill="midnightblue" stroke="midnightblue" points="271.01,-156.25 277.66,-148.01 267.32,-150.3 271.01,-156.25"/>
</g>
<!-- Node11 -->
<g id="node5" class="node">
<title>Node11</title>
<g id="a_node5"><a xlink:href="pid__module_8hpp.html" target="_top" xlink:title=" ">
<polygon fill="white" stroke="red" points="90.39,-62 90.39,-81 200.39,-81 200.39,-62 90.39,-62"/>
<text text-anchor="middle" x="145.39" y="-69" font-family="Helvetica,sans-Serif" font-size="10.00">ctl/pid_module.hpp</text>
</a>
</g>
</g>
<!-- Node2&#45;&gt;Node11 -->
<g id="edge7" class="edge">
<title>Node2&#45;&gt;Node11</title>
<path fill="none" stroke="midnightblue" d="M198.94,-190.1C204.23,-175.41 212.5,-145.47 202.39,-123 195.62,-107.96 181.92,-95.59 169.64,-86.86"/>
<polygon fill="midnightblue" stroke="midnightblue" points="171.34,-83.78 161.08,-81.15 167.46,-89.61 171.34,-83.78"/>
</g>
<!-- Node13 -->
<g id="node6" class="node">
<title>Node13</title>
<g id="a_node6"><a xlink:href="linear__transition__regulator_8hpp.html" target="_top" xlink:title=" ">
<polygon fill="white" stroke="black" points="13.89,-123.5 13.89,-153.5 124.89,-153.5 124.89,-123.5 13.89,-123.5"/>
<text text-anchor="start" x="21.89" y="-141.5" font-family="Helvetica,sans-Serif" font-size="10.00">ctl/linear_transition</text>
<text text-anchor="middle" x="69.39" y="-130.5" font-family="Helvetica,sans-Serif" font-size="10.00">_regulator.hpp</text>
</a>
</g>
</g>
<!-- Node2&#45;&gt;Node13 -->
<g id="edge6" class="edge">
<title>Node2&#45;&gt;Node13</title>
<path fill="none" stroke="midnightblue" d="M177.34,-190.48C159.4,-182 131.3,-168.74 108.28,-157.86"/>
<polygon fill="midnightblue" stroke="midnightblue" points="109.62,-154.63 99.09,-153.52 106.63,-160.96 109.62,-154.63"/>
</g>
<!-- Node14 -->
<g id="node7" class="node">
<title>Node14</title>
<g id="a_node7"><a xlink:title=" ">
<polygon fill="white" stroke="#bfbfbf" points="142.89,-129 142.89,-148 193.89,-148 193.89,-129 142.89,-129"/>
<text text-anchor="middle" x="168.39" y="-136" font-family="Helvetica,sans-Serif" font-size="10.00">variant</text>
</a>
</g>
</g>
<!-- Node2&#45;&gt;Node14 -->
<g id="edge8" class="edge">
<title>Node2&#45;&gt;Node14</title>
<path fill="none" stroke="midnightblue" d="M191.52,-190.48C187.59,-181.82 181.39,-168.15 176.4,-157.15"/>
<polygon fill="midnightblue" stroke="midnightblue" points="179.57,-155.67 172.25,-148.01 173.2,-158.56 179.57,-155.67"/>
</g>
<!-- Node10&#45;&gt;Node11 -->
<g id="edge4" class="edge">
<title>Node10&#45;&gt;Node11</title>
<path fill="none" stroke="midnightblue" d="M272,-128.87C246.91,-117.7 203,-98.15 174.05,-85.26"/>
<polygon fill="midnightblue" stroke="midnightblue" points="175.42,-82.04 164.86,-81.17 172.57,-88.43 175.42,-82.04"/>
</g>
<!-- Node11&#45;&gt;Node3 -->
<g id="edge5" class="edge">
<title>Node11&#45;&gt;Node3</title>
<path fill="none" stroke="midnightblue" d="M157.28,-61.98C170.6,-52.43 192.39,-36.81 208.35,-25.37"/>
<polygon fill="midnightblue" stroke="midnightblue" points="210.43,-28.18 216.52,-19.51 206.35,-22.49 210.43,-28.18"/>
</g>
<!-- Node16 -->
<g id="node9" class="node">
<title>Node16</title>
<g id="a_node9"><a xlink:href="current_8hpp.html" target="_top" xlink:title=" ">
<polygon fill="white" stroke="red" points="869.39,-62 869.39,-81 997.39,-81 997.39,-62 869.39,-62"/>
<text text-anchor="middle" x="933.39" y="-69" font-family="Helvetica,sans-Serif" font-size="10.00">conversion/current.hpp</text>
</a>
</g>
</g>
<!-- Node15&#45;&gt;Node16 -->
<g id="edge10" class="edge">
<title>Node15&#45;&gt;Node16</title>
<path fill="none" stroke="midnightblue" d="M997.41,-128.73C985.54,-118.31 965.51,-100.71 951.01,-87.97"/>
<polygon fill="midnightblue" stroke="midnightblue" points="953.04,-85.1 943.21,-81.13 948.42,-90.36 953.04,-85.1"/>
</g>
<!-- Node17 -->
<g id="node10" class="node">
<title>Node17</title>
<g id="a_node10"><a xlink:href="position_8hpp.html" target="_top" xlink:title=" ">
<polygon fill="white" stroke="red" points="1015.89,-62 1015.89,-81 1148.89,-81 1148.89,-62 1015.89,-62"/>
<text text-anchor="middle" x="1082.39" y="-69" font-family="Helvetica,sans-Serif" font-size="10.00">conversion/position.hpp</text>
</a>
</g>
</g>
<!-- Node15&#45;&gt;Node17 -->
<g id="edge11" class="edge">
<title>Node15&#45;&gt;Node17</title>
<path fill="none" stroke="midnightblue" d="M1017.51,-128.73C1029.54,-118.31 1049.84,-100.71 1064.54,-87.97"/>
<polygon fill="midnightblue" stroke="midnightblue" points="1067.17,-90.32 1072.44,-81.13 1062.59,-85.03 1067.17,-90.32"/>
</g>
<!-- Node18 -->
<g id="node11" class="node">
<title>Node18</title>
<g id="a_node11"><a xlink:href="temperature_8hpp.html" target="_top" xlink:title=" ">
<polygon fill="white" stroke="black" points="1166.89,-62 1166.89,-81 1321.89,-81 1321.89,-62 1166.89,-62"/>
<text text-anchor="middle" x="1244.39" y="-69" font-family="Helvetica,sans-Serif" font-size="10.00">conversion/temperature.hpp</text>
</a>
</g>
</g>
<!-- Node15&#45;&gt;Node18 -->
<g id="edge12" class="edge">
<title>Node15&#45;&gt;Node18</title>
<path fill="none" stroke="midnightblue" d="M1038.86,-128.87C1081.21,-117.25 1156.61,-96.58 1203.36,-83.75"/>
<polygon fill="midnightblue" stroke="midnightblue" points="1204.45,-87.08 1213.17,-81.06 1202.6,-80.33 1204.45,-87.08"/>
</g>
<!-- Node19 -->
<g id="node12" class="node">
<title>Node19</title>
<g id="a_node12"><a xlink:href="voltage_8hpp.html" target="_top" xlink:title=" ">
<polygon fill="white" stroke="black" points="1339.89,-62 1339.89,-81 1470.89,-81 1470.89,-62 1339.89,-62"/>
<text text-anchor="middle" x="1405.39" y="-69" font-family="Helvetica,sans-Serif" font-size="10.00">conversion/voltage.hpp</text>
</a>
</g>
</g>
<!-- Node15&#45;&gt;Node19 -->
<g id="edge13" class="edge">
<title>Node15&#45;&gt;Node19</title>
<path fill="none" stroke="midnightblue" d="M1049.02,-131.48C1110.62,-122.46 1229.61,-104.61 1330.39,-87 1337.58,-85.74 1345.14,-84.36 1352.58,-82.96"/>
<polygon fill="midnightblue" stroke="midnightblue" points="1353.44,-86.36 1362.6,-81.05 1352.13,-79.48 1353.44,-86.36"/>
</g>
<!-- Node20&#45;&gt;Node3 -->
<g id="edge15" class="edge">
<title>Node20&#45;&gt;Node3</title>
<path fill="none" stroke="midnightblue" d="M566.04,-128.96C555.34,-126.97 543.97,-124.89 533.39,-123 440.17,-106.35 408.16,-129.21 323.39,-87 305.38,-78.03 305.9,-68.82 290.39,-56 277.19,-45.09 261.59,-33.77 249.34,-25.21"/>
<polygon fill="midnightblue" stroke="midnightblue" points="251.31,-22.32 241.09,-19.52 247.33,-28.08 251.31,-22.32"/>
</g>
<!-- Node21 -->
<g id="node14" class="node">
<title>Node21</title>
<g id="a_node14"><a xlink:title=" ">
<polygon fill="white" stroke="#bfbfbf" points="449.89,-56.5 449.89,-86.5 582.89,-86.5 582.89,-56.5 449.89,-56.5"/>
<text text-anchor="start" x="457.89" y="-74.5" font-family="Helvetica,sans-Serif" font-size="10.00">emlabcpp/experimental</text>
<text text-anchor="middle" x="516.39" y="-63.5" font-family="Helvetica,sans-Serif" font-size="10.00">/function_view.h</text>
</a>
</g>
</g>
<!-- Node20&#45;&gt;Node21 -->
<g id="edge16" class="edge">
<title>Node20&#45;&gt;Node21</title>
<path fill="none" stroke="midnightblue" d="M598.58,-128.73C585,-119.44 563.1,-104.46 545.32,-92.3"/>
<polygon fill="midnightblue" stroke="midnightblue" points="547.21,-89.35 536.98,-86.59 543.26,-95.12 547.21,-89.35"/>
</g>
<!-- Node22 -->
<g id="node15" class="node">
<title>Node22</title>
<g id="a_node15"><a xlink:title=" ">
<polygon fill="white" stroke="#bfbfbf" points="332.89,-62 332.89,-81 431.89,-81 431.89,-62 332.89,-62"/>
<text text-anchor="middle" x="382.39" y="-69" font-family="Helvetica,sans-Serif" font-size="10.00">emlabcpp/view.h</text>
</a>
</g>
</g>
<!-- Node20&#45;&gt;Node22 -->
<g id="edge17" class="edge">
<title>Node20&#45;&gt;Node22</title>
<path fill="none" stroke="midnightblue" d="M580.98,-128.87C540.15,-117.28 467.52,-96.66 422.32,-83.83"/>
<polygon fill="midnightblue" stroke="midnightblue" points="423.14,-80.43 412.56,-81.06 421.23,-87.16 423.14,-80.43"/>
</g>
<!-- Node23 -->
<g id="node16" class="node">
<title>Node23</title>
<g id="a_node16"><a xlink:title=" ">
<polygon fill="white" stroke="#bfbfbf" points="639.39,-62 639.39,-81 679.39,-81 679.39,-62 639.39,-62"/>
<text text-anchor="middle" x="659.39" y="-69" font-family="Helvetica,sans-Serif" font-size="10.00">span</text>
</a>
</g>
</g>
<!-- Node20&#45;&gt;Node23 -->
<g id="edge18" class="edge">
<title>Node20&#45;&gt;Node23</title>
<path fill="none" stroke="midnightblue" d="M617.86,-128.73C625.28,-118.7 637.6,-102.01 646.89,-89.42"/>
<polygon fill="midnightblue" stroke="midnightblue" points="649.89,-91.25 653.02,-81.13 644.26,-87.09 649.89,-91.25"/>
</g>
<!-- Node20&#45;&gt;Node24 -->
<g id="edge19" class="edge">
<title>Node20&#45;&gt;Node24</title>
<path fill="none" stroke="midnightblue" d="M611.18,-128.92C611.22,-112.91 613.42,-78.14 630.39,-56 641.83,-41.07 659.68,-30.53 675.98,-23.42"/>
<polygon fill="midnightblue" stroke="midnightblue" points="677.39,-26.62 685.35,-19.62 674.76,-20.14 677.39,-26.62"/>
</g>
<!-- Node25&#45;&gt;Node3 -->
<g id="edge21" class="edge">
<title>Node25&#45;&gt;Node3</title>
<path fill="none" stroke="midnightblue" d="M442.05,-130.84C405.85,-123.77 352.73,-110.31 311.39,-87 283.46,-71.25 257.22,-44.45 241.99,-27.25"/>
<polygon fill="midnightblue" stroke="midnightblue" points="244.63,-24.94 235.44,-19.67 239.33,-29.52 244.63,-24.94"/>
</g>
<!-- Node25&#45;&gt;Node21 -->
<g id="edge22" class="edge">
<title>Node25&#45;&gt;Node21</title>
<path fill="none" stroke="midnightblue" d="M487.84,-128.73C492.13,-120.29 498.8,-107.14 504.62,-95.68"/>
<polygon fill="midnightblue" stroke="midnightblue" points="507.83,-97.09 509.24,-86.59 501.59,-93.92 507.83,-97.09"/>
</g>
<!-- Node25&#45;&gt;Node24 -->
<g id="edge23" class="edge">
<title>Node25&#45;&gt;Node24</title>
<path fill="none" stroke="midnightblue" d="M442.03,-131.7C382.96,-121.8 285.53,-98.47 323.39,-56 344.95,-31.81 549.22,-18.76 653.61,-13.63"/>
<polygon fill="midnightblue" stroke="midnightblue" points="653.88,-17.12 663.7,-13.14 653.54,-10.13 653.88,-17.12"/>
</g>
<!-- Node26&#45;&gt;Node21 -->
<g id="edge28" class="edge">
<title>Node26&#45;&gt;Node21</title>
<path fill="none" stroke="midnightblue" d="M702.84,-128.87C669.74,-118.86 614.39,-102.13 572.57,-89.48"/>
<polygon fill="midnightblue" stroke="midnightblue" points="573.38,-86.07 562.79,-86.53 571.35,-92.77 573.38,-86.07"/>
</g>
<!-- Node26&#45;&gt;Node23 -->
<g id="edge29" class="edge">
<title>Node26&#45;&gt;Node23</title>
<path fill="none" stroke="midnightblue" d="M721.68,-128.73C710.13,-118.31 690.64,-100.71 676.53,-87.97"/>
<polygon fill="midnightblue" stroke="midnightblue" points="678.71,-85.23 668.95,-81.13 674.02,-90.43 678.71,-85.23"/>
</g>
<!-- Node27 -->
<g id="node20" class="node">
<title>Node27</title>
<g id="a_node20"><a xlink:title=" ">
<polygon fill="white" stroke="#bfbfbf" points="697.89,-62 697.89,-81 764.89,-81 764.89,-62 697.89,-62"/>
<text text-anchor="middle" x="731.39" y="-69" font-family="Helvetica,sans-Serif" font-size="10.00">config.hpp</text>
</a>
</g>
</g>
<!-- Node26&#45;&gt;Node27 -->
<g id="edge25" class="edge">
<title>Node26&#45;&gt;Node27</title>
<path fill="none" stroke="midnightblue" d="M731.39,-128.73C731.39,-119.18 731.39,-103.62 731.39,-91.28"/>
<polygon fill="midnightblue" stroke="midnightblue" points="734.89,-91.13 731.39,-81.13 727.89,-91.13 734.89,-91.13"/>
</g>
<!-- Node28 -->
<g id="node21" class="node">
<title>Node28</title>
<g id="a_node21"><a xlink:href="util_8hpp.html" target="_top" xlink:title=" ">
<polygon fill="white" stroke="red" points="783.39,-62 783.39,-81 851.39,-81 851.39,-62 783.39,-62"/>
<text text-anchor="middle" x="817.39" y="-69" font-family="Helvetica,sans-Serif" font-size="10.00">fw/util.hpp</text>
</a>
</g>
</g>
<!-- Node26&#45;&gt;Node28 -->
<g id="edge26" class="edge">
<title>Node26&#45;&gt;Node28</title>
<path fill="none" stroke="midnightblue" d="M742.99,-128.73C757.04,-118.11 780.94,-100.05 797.86,-87.26"/>
<polygon fill="midnightblue" stroke="midnightblue" points="800.11,-89.95 805.98,-81.13 795.89,-84.36 800.11,-89.95"/>
</g>
<!-- Node28&#45;&gt;Node24 -->
<g id="edge27" class="edge">
<title>Node28&#45;&gt;Node24</title>
<path fill="none" stroke="midnightblue" d="M802.63,-61.98C785.73,-52.21 757.81,-36.08 737.9,-24.58"/>
<polygon fill="midnightblue" stroke="midnightblue" points="739.53,-21.48 729.12,-19.51 736.03,-27.54 739.53,-21.48"/>
</g>
<!-- Node31&#45;&gt;Node15 -->
<g id="edge31" class="edge">
<title>Node31&#45;&gt;Node15</title>
<path fill="none" stroke="midnightblue" d="M762.37,-190.48C813.55,-179.83 901.12,-161.61 956.53,-150.08"/>
<polygon fill="midnightblue" stroke="midnightblue" points="957.41,-153.47 966.49,-148.01 955.99,-146.62 957.41,-153.47"/>
</g>
<!-- Node31&#45;&gt;Node20 -->
<g id="edge32" class="edge">
<title>Node31&#45;&gt;Node20</title>
<path fill="none" stroke="midnightblue" d="M705.63,-190.48C687.41,-180.62 657.22,-164.29 635.92,-152.77"/>
<polygon fill="midnightblue" stroke="midnightblue" points="637.58,-149.69 627.12,-148.01 634.25,-155.85 637.58,-149.69"/>
</g>
<!-- Node31&#45;&gt;Node26 -->
<g id="edge33" class="edge">
<title>Node31&#45;&gt;Node26</title>
<path fill="none" stroke="midnightblue" d="M722.82,-190.48C724.23,-182.08 726.44,-168.98 728.25,-158.16"/>
<polygon fill="midnightblue" stroke="midnightblue" points="731.75,-158.45 729.96,-148.01 724.85,-157.29 731.75,-158.45"/>
</g>
<!-- Node32&#45;&gt;Node3 -->
<g id="edge35" class="edge">
<title>Node32&#45;&gt;Node3</title>
<path fill="none" stroke="midnightblue" d="M1663.1,-193.66C1632.32,-187.85 1588.62,-176.23 1556.39,-154 1510.79,-122.55 1528.77,-81.11 1479.39,-56 1451.8,-41.97 481.87,-17.26 269.29,-12"/>
<polygon fill="midnightblue" stroke="midnightblue" points="269.27,-8.5 259.18,-11.75 269.1,-15.5 269.27,-8.5"/>
</g>
<!-- Node33 -->
<g id="node24" class="node">
<title>Node33</title>
<g id="a_node24"><a xlink:href="posvel__kalman_8hpp.html" target="_top" xlink:title=" ">
<polygon fill="white" stroke="red" points="1565.89,-129 1565.89,-148 1696.89,-148 1696.89,-129 1565.89,-129"/>
<text text-anchor="middle" x="1631.39" y="-136" font-family="Helvetica,sans-Serif" font-size="10.00">mtr/posvel_kalman.hpp</text>
</a>
</g>
</g>
<!-- Node32&#45;&gt;Node33 -->
<g id="edge36" class="edge">
<title>Node32&#45;&gt;Node33</title>
<path fill="none" stroke="midnightblue" d="M1690.5,-190.48C1679.74,-181.2 1662.32,-166.17 1649.17,-154.83"/>
<polygon fill="midnightblue" stroke="midnightblue" points="1651.12,-151.89 1641.26,-148.01 1646.55,-157.19 1651.12,-151.89"/>
</g>
<!-- Node36 -->
<g id="node25" class="node">
<title>Node36</title>
<g id="a_node25"><a xlink:href="static__detector_8hpp.html" target="_top" xlink:title=" ">
<polygon fill="white" stroke="black" points="1715.39,-129 1715.39,-148 1825.39,-148 1825.39,-129 1715.39,-129"/>
<text text-anchor="middle" x="1770.39" y="-136" font-family="Helvetica,sans-Serif" font-size="10.00">static_detector.hpp</text>
</a>
</g>
</g>
<!-- Node32&#45;&gt;Node36 -->
<g id="edge37" class="edge">
<title>Node32&#45;&gt;Node36</title>
<path fill="none" stroke="midnightblue" d="M1710.42,-190.48C1721.44,-181.11 1739.35,-165.88 1752.73,-154.51"/>
<polygon fill="midnightblue" stroke="midnightblue" points="1755.03,-157.15 1760.38,-148.01 1750.49,-151.82 1755.03,-157.15"/>
</g>
<!-- Node37 -->
<g id="node26" class="node">
<title>Node37</title>
<g id="a_node26"><a xlink:title=" ">
<polygon fill="white" stroke="#bfbfbf" points="1843.39,-129 1843.39,-148 1885.39,-148 1885.39,-129 1843.39,-129"/>
<text text-anchor="middle" x="1864.39" y="-136" font-family="Helvetica,sans-Serif" font-size="10.00">array</text>
</a>
</g>
</g>
<!-- Node32&#45;&gt;Node37 -->
<g id="edge38" class="edge">
<title>Node32&#45;&gt;Node37</title>
<path fill="none" stroke="midnightblue" d="M1729.27,-190.46C1756.67,-182.09 1798.83,-168.5 1834.39,-154 1835.76,-153.44 1837.16,-152.85 1838.57,-152.23"/>
<polygon fill="midnightblue" stroke="midnightblue" points="1840.12,-155.37 1847.74,-148.01 1837.19,-149.01 1840.12,-155.37"/>
</g>
<!-- Node38 -->
<g id="node27" class="node">
<title>Node38</title>
<g id="a_node27"><a xlink:title=" ">
<polygon fill="white" stroke="#bfbfbf" points="1903.89,-129 1903.89,-148 1944.89,-148 1944.89,-129 1903.89,-129"/>
<text text-anchor="middle" x="1924.39" y="-136" font-family="Helvetica,sans-Serif" font-size="10.00">tuple</text>
</a>
</g>
</g>
<!-- Node32&#45;&gt;Node38 -->
<g id="edge39" class="edge">
<title>Node32&#45;&gt;Node38</title>
<path fill="none" stroke="midnightblue" d="M1737.55,-192.92C1777.13,-185.86 1841.24,-172.75 1894.39,-154 1896,-153.43 1897.64,-152.8 1899.28,-152.13"/>
<polygon fill="midnightblue" stroke="midnightblue" points="1900.79,-155.29 1908.48,-148 1897.92,-148.9 1900.79,-155.29"/>
</g>
</g>
</svg>
