<?xml version="1.0" encoding="UTF-8" standalone="no"?>
<!DOCTYPE svg PUBLIC "-//W3C//DTD SVG 1.1//EN"
 "http://www.w3.org/Graphics/SVG/1.1/DTD/svg11.dtd">
<!-- Generated by graphviz version 2.43.0 (0)
 -->
<!-- Title: src/fw/callbacks.hpp Pages: 1 -->
<svg width="1924pt" height="263pt"
 viewBox="0.00 0.00 1923.50 263.00" xmlns="http://www.w3.org/2000/svg" xmlns:xlink="http://www.w3.org/1999/xlink">
<g id="graph0" class="graph" transform="scale(1 1) rotate(0) translate(4 259)">
<title>src/fw/callbacks.hpp</title>
<polygon fill="white" stroke="transparent" points="-4,4 -4,-259 1919.5,-259 1919.5,4 -4,4"/>
<!-- Node1 -->
<g id="node1" class="node">
<title>Node1</title>
<g id="a_node1"><a xlink:title=" ">
<polygon fill="#bfbfbf" stroke="black" points="785.5,-235.5 785.5,-254.5 900.5,-254.5 900.5,-235.5 785.5,-235.5"/>
<text text-anchor="middle" x="843" y="-242.5" font-family="Helvetica,sans-Serif" font-size="10.00">src/fw/callbacks.hpp</text>
</a>
</g>
</g>
<!-- Node2 -->
<g id="node2" class="node">
<title>Node2</title>
<g id="a_node2"><a xlink:href="control_8hpp.html" target="_top" xlink:title=" ">
<polygon fill="white" stroke="black" points="144.5,-179.5 144.5,-198.5 215.5,-198.5 215.5,-179.5 144.5,-179.5"/>
<text text-anchor="middle" x="180" y="-186.5" font-family="Helvetica,sans-Serif" font-size="10.00">control.hpp</text>
</a>
</g>
</g>
<!-- Node1&#45;&gt;Node2 -->
<g id="edge1" class="edge">
<title>Node1&#45;&gt;Node2</title>
<path fill="none" stroke="midnightblue" d="M785.32,-239.3C655.66,-228.74 343.3,-203.3 225.76,-193.73"/>
<polygon fill="midnightblue" stroke="midnightblue" points="225.91,-190.23 215.66,-192.9 225.34,-197.2 225.91,-190.23"/>
</g>
<!-- Node14 -->
<g id="node7" class="node">
<title>Node14</title>
<g id="a_node7"><a xlink:href="converter_8hpp.html" target="_top" xlink:title=" ">
<polygon fill="white" stroke="black" points="1510.5,-179.5 1510.5,-198.5 1593.5,-198.5 1593.5,-179.5 1510.5,-179.5"/>
<text text-anchor="middle" x="1552" y="-186.5" font-family="Helvetica,sans-Serif" font-size="10.00">converter.hpp</text>
</a>
</g>
</g>
<!-- Node1&#45;&gt;Node14 -->
<g id="edge8" class="edge">
<title>Node1&#45;&gt;Node14</title>
<path fill="none" stroke="midnightblue" d="M900.72,-239.6C1035.91,-229.31 1371.33,-203.76 1500.32,-193.94"/>
<polygon fill="midnightblue" stroke="midnightblue" points="1500.63,-197.42 1510.34,-193.17 1500.1,-190.44 1500.63,-197.42"/>
</g>
<!-- Node19 -->
<g id="node12" class="node">
<title>Node19</title>
<g id="a_node12"><a xlink:href="acquisition_8hpp.html" target="_top" xlink:title=" ">
<polygon fill="white" stroke="black" points="967,-179.5 967,-198.5 1095,-198.5 1095,-179.5 967,-179.5"/>
<text text-anchor="middle" x="1031" y="-186.5" font-family="Helvetica,sans-Serif" font-size="10.00">drivers/acquisition.hpp</text>
</a>
</g>
</g>
<!-- Node1&#45;&gt;Node19 -->
<g id="edge13" class="edge">
<title>Node1&#45;&gt;Node19</title>
<path fill="none" stroke="midnightblue" d="M872.79,-235.44C904.83,-226.24 955.93,-211.56 991.35,-201.39"/>
<polygon fill="midnightblue" stroke="midnightblue" points="992.71,-204.64 1001.35,-198.52 990.77,-197.91 992.71,-204.64"/>
</g>
<!-- Node24 -->
<g id="node17" class="node">
<title>Node24</title>
<g id="a_node17"><a xlink:title=" ">
<polygon fill="white" stroke="#bfbfbf" points="816.5,-56.5 816.5,-75.5 917.5,-75.5 917.5,-56.5 816.5,-56.5"/>
<text text-anchor="middle" x="867" y="-63.5" font-family="Helvetica,sans-Serif" font-size="10.00">stm32g4xx_hal.h</text>
</a>
</g>
</g>
<!-- Node1&#45;&gt;Node24 -->
<g id="edge36" class="edge">
<title>Node1&#45;&gt;Node24</title>
<path fill="none" stroke="midnightblue" d="M900.67,-239.31C1006.11,-229.35 1223.04,-202.02 1265,-143 1272.98,-131.77 1274.18,-122.28 1265,-112 1242.98,-87.35 1034.05,-74.49 928.05,-69.51"/>
<polygon fill="midnightblue" stroke="midnightblue" points="927.97,-66 917.82,-69.03 927.65,-72.99 927.97,-66"/>
</g>
<!-- Node25 -->
<g id="node18" class="node">
<title>Node25</title>
<g id="a_node18"><a xlink:href="clock_8hpp.html" target="_top" xlink:title=" ">
<polygon fill="white" stroke="black" points="581,-179.5 581,-198.5 681,-198.5 681,-179.5 581,-179.5"/>
<text text-anchor="middle" x="631" y="-186.5" font-family="Helvetica,sans-Serif" font-size="10.00">drivers/clock.hpp</text>
</a>
</g>
</g>
<!-- Node1&#45;&gt;Node25 -->
<g id="edge19" class="edge">
<title>Node1&#45;&gt;Node25</title>
<path fill="none" stroke="midnightblue" d="M809.41,-235.44C772.81,-226.12 714.16,-211.18 674.17,-201"/>
<polygon fill="midnightblue" stroke="midnightblue" points="674.99,-197.59 664.43,-198.52 673.26,-204.38 674.99,-197.59"/>
</g>
<!-- Node26 -->
<g id="node19" class="node">
<title>Node26</title>
<g id="a_node19"><a xlink:href="hbridge_8hpp.html" target="_top" xlink:title=" ">
<polygon fill="white" stroke="black" points="787.5,-179.5 787.5,-198.5 898.5,-198.5 898.5,-179.5 787.5,-179.5"/>
<text text-anchor="middle" x="843" y="-186.5" font-family="Helvetica,sans-Serif" font-size="10.00">drivers/hbridge.hpp</text>
</a>
</g>
</g>
<!-- Node1&#45;&gt;Node26 -->
<g id="edge23" class="edge">
<title>Node1&#45;&gt;Node26</title>
<path fill="none" stroke="midnightblue" d="M843,-235.08C843,-228.01 843,-217.86 843,-208.99"/>
<polygon fill="midnightblue" stroke="midnightblue" points="846.5,-208.75 843,-198.75 839.5,-208.75 846.5,-208.75"/>
</g>
<!-- Node29 -->
<g id="node22" class="node">
<title>Node29</title>
<g id="a_node22"><a xlink:href="metrics_8hpp.html" target="_top" xlink:title=" ">
<polygon fill="white" stroke="black" points="344,-118 344,-137 418,-137 418,-118 344,-118"/>
<text text-anchor="middle" x="381" y="-125" font-family="Helvetica,sans-Serif" font-size="10.00">metrics.hpp</text>
</a>
</g>
</g>
<!-- Node1&#45;&gt;Node29 -->
<g id="edge30" class="edge">
<title>Node1&#45;&gt;Node29</title>
<path fill="none" stroke="midnightblue" d="M785.5,-237.65C730.18,-230.8 644.49,-218.21 572,-199 513.13,-183.4 446.98,-156.86 410.02,-141.18"/>
<polygon fill="midnightblue" stroke="midnightblue" points="410.97,-137.78 400.4,-137.06 408.22,-144.21 410.97,-137.78"/>
</g>
<!-- Node3 -->
<g id="node3" class="node">
<title>Node3</title>
<g id="a_node3"><a xlink:href="base_8hpp.html" target="_top" xlink:title=" ">
<polygon fill="white" stroke="red" points="285.5,-0.5 285.5,-19.5 346.5,-19.5 346.5,-0.5 285.5,-0.5"/>
<text text-anchor="middle" x="316" y="-7.5" font-family="Helvetica,sans-Serif" font-size="10.00">base.hpp</text>
</a>
</g>
</g>
<!-- Node2&#45;&gt;Node3 -->
<g id="edge2" class="edge">
<title>Node2&#45;&gt;Node3</title>
<path fill="none" stroke="midnightblue" d="M181.75,-179.24C186.69,-156.44 202.7,-94.31 237,-56 249.56,-41.98 267.56,-31.25 283.21,-23.8"/>
<polygon fill="midnightblue" stroke="midnightblue" points="284.89,-26.88 292.57,-19.58 282.02,-20.5 284.89,-26.88"/>
</g>
<!-- Node10 -->
<g id="node4" class="node">
<title>Node10</title>
<g id="a_node4"><a xlink:href="ctl_2config_8hpp.html" target="_top" xlink:title=" ">
<polygon fill="white" stroke="black" points="0,-118 0,-137 82,-137 82,-118 0,-118"/>
<text text-anchor="middle" x="41" y="-125" font-family="Helvetica,sans-Serif" font-size="10.00">ctl/config.hpp</text>
</a>
</g>
</g>
<!-- Node2&#45;&gt;Node10 -->
<g id="edge3" class="edge">
<title>Node2&#45;&gt;Node10</title>
<path fill="none" stroke="midnightblue" d="M160.08,-179.48C136.55,-169.4 97.19,-152.55 70.21,-141"/>
<polygon fill="midnightblue" stroke="midnightblue" points="71.45,-137.73 60.88,-137.01 68.69,-144.16 71.45,-137.73"/>
</g>
<!-- Node11 -->
<g id="node5" class="node">
<title>Node11</title>
<g id="a_node5"><a xlink:href="pid__module_8hpp.html" target="_top" xlink:title=" ">
<polygon fill="white" stroke="red" points="80,-56.5 80,-75.5 190,-75.5 190,-56.5 80,-56.5"/>
<text text-anchor="middle" x="135" y="-63.5" font-family="Helvetica,sans-Serif" font-size="10.00">ctl/pid_module.hpp</text>
</a>
</g>
</g>
<!-- Node2&#45;&gt;Node11 -->
<g id="edge6" class="edge">
<title>Node2&#45;&gt;Node11</title>
<path fill="none" stroke="midnightblue" d="M178.45,-179.34C175.73,-165 169.47,-135.55 160,-112 156.17,-102.46 150.73,-92.41 145.91,-84.24"/>
<polygon fill="midnightblue" stroke="midnightblue" points="148.86,-82.35 140.66,-75.64 142.88,-86 148.86,-82.35"/>
</g>
<!-- Node13 -->
<g id="node6" class="node">
<title>Node13</title>
<g id="a_node6"><a xlink:title=" ">
<polygon fill="white" stroke="#bfbfbf" points="100.5,-118 100.5,-137 151.5,-137 151.5,-118 100.5,-118"/>
<text text-anchor="middle" x="126" y="-125" font-family="Helvetica,sans-Serif" font-size="10.00">variant</text>
</a>
</g>
</g>
<!-- Node2&#45;&gt;Node13 -->
<g id="edge7" class="edge">
<title>Node2&#45;&gt;Node13</title>
<path fill="none" stroke="midnightblue" d="M172.26,-179.48C164,-170.37 150.72,-155.74 140.51,-144.48"/>
<polygon fill="midnightblue" stroke="midnightblue" points="143.03,-142.06 133.72,-137.01 137.85,-146.77 143.03,-142.06"/>
</g>
<!-- Node10&#45;&gt;Node11 -->
<g id="edge4" class="edge">
<title>Node10&#45;&gt;Node11</title>
<path fill="none" stroke="midnightblue" d="M54.47,-117.98C69.68,-108.34 94.69,-92.52 112.8,-81.05"/>
<polygon fill="midnightblue" stroke="midnightblue" points="114.98,-83.81 121.56,-75.51 111.24,-77.9 114.98,-83.81"/>
</g>
<!-- Node11&#45;&gt;Node3 -->
<g id="edge5" class="edge">
<title>Node11&#45;&gt;Node3</title>
<path fill="none" stroke="midnightblue" d="M163.68,-56.44C194.53,-47.24 243.73,-32.56 277.83,-22.39"/>
<polygon fill="midnightblue" stroke="midnightblue" points="278.87,-25.73 287.45,-19.52 276.87,-19.02 278.87,-25.73"/>
</g>
<!-- Node15 -->
<g id="node8" class="node">
<title>Node15</title>
<g id="a_node8"><a xlink:href="current_8hpp.html" target="_top" xlink:title=" ">
<polygon fill="white" stroke="red" points="1636,-118 1636,-137 1764,-137 1764,-118 1636,-118"/>
<text text-anchor="middle" x="1700" y="-125" font-family="Helvetica,sans-Serif" font-size="10.00">conversion/current.hpp</text>
</a>
</g>
</g>
<!-- Node14&#45;&gt;Node15 -->
<g id="edge9" class="edge">
<title>Node14&#45;&gt;Node15</title>
<path fill="none" stroke="midnightblue" d="M1573.2,-179.48C1598.37,-169.36 1640.54,-152.4 1669.28,-140.85"/>
<polygon fill="midnightblue" stroke="midnightblue" points="1670.86,-143.99 1678.83,-137.01 1668.25,-137.49 1670.86,-143.99"/>
</g>
<!-- Node16 -->
<g id="node9" class="node">
<title>Node16</title>
<g id="a_node9"><a xlink:href="position_8hpp.html" target="_top" xlink:title=" ">
<polygon fill="white" stroke="red" points="1782.5,-118 1782.5,-137 1915.5,-137 1915.5,-118 1782.5,-118"/>
<text text-anchor="middle" x="1849" y="-125" font-family="Helvetica,sans-Serif" font-size="10.00">conversion/position.hpp</text>
</a>
</g>
</g>
<!-- Node14&#45;&gt;Node16 -->
<g id="edge10" class="edge">
<title>Node14&#45;&gt;Node16</title>
<path fill="none" stroke="midnightblue" d="M1593.61,-179.66C1646.62,-169.04 1738.3,-150.68 1796.18,-139.08"/>
<polygon fill="midnightblue" stroke="midnightblue" points="1797.11,-142.46 1806.23,-137.07 1795.74,-135.6 1797.11,-142.46"/>
</g>
<!-- Node17 -->
<g id="node10" class="node">
<title>Node17</title>
<g id="a_node10"><a xlink:href="temperature_8hpp.html" target="_top" xlink:title=" ">
<polygon fill="white" stroke="black" points="1313.5,-118 1313.5,-137 1468.5,-137 1468.5,-118 1313.5,-118"/>
<text text-anchor="middle" x="1391" y="-125" font-family="Helvetica,sans-Serif" font-size="10.00">conversion/temperature.hpp</text>
</a>
</g>
</g>
<!-- Node14&#45;&gt;Node17 -->
<g id="edge11" class="edge">
<title>Node14&#45;&gt;Node17</title>
<path fill="none" stroke="midnightblue" d="M1528.93,-179.48C1501.32,-169.27 1454.88,-152.11 1423.6,-140.55"/>
<polygon fill="midnightblue" stroke="midnightblue" points="1424.62,-137.19 1414.02,-137.01 1422.19,-143.76 1424.62,-137.19"/>
</g>
<!-- Node18 -->
<g id="node11" class="node">
<title>Node18</title>
<g id="a_node11"><a xlink:href="voltage_8hpp.html" target="_top" xlink:title=" ">
<polygon fill="white" stroke="black" points="1486.5,-118 1486.5,-137 1617.5,-137 1617.5,-118 1486.5,-118"/>
<text text-anchor="middle" x="1552" y="-125" font-family="Helvetica,sans-Serif" font-size="10.00">conversion/voltage.hpp</text>
</a>
</g>
</g>
<!-- Node14&#45;&gt;Node18 -->
<g id="edge12" class="edge">
<title>Node14&#45;&gt;Node18</title>
<path fill="none" stroke="midnightblue" d="M1552,-179.48C1552,-171.08 1552,-157.98 1552,-147.16"/>
<polygon fill="midnightblue" stroke="midnightblue" points="1555.5,-147.01 1552,-137.01 1548.5,-147.01 1555.5,-147.01"/>
</g>
<!-- Node20 -->
<g id="node13" class="node">
<title>Node20</title>
<g id="a_node13"><a xlink:title=" ">
<polygon fill="white" stroke="#bfbfbf" points="658.5,-112.5 658.5,-142.5 791.5,-142.5 791.5,-112.5 658.5,-112.5"/>
<text text-anchor="start" x="666.5" y="-130.5" font-family="Helvetica,sans-Serif" font-size="10.00">emlabcpp/experimental</text>
<text text-anchor="middle" x="725" y="-119.5" font-family="Helvetica,sans-Serif" font-size="10.00">/function_view.h</text>
</a>
</g>
</g>
<!-- Node19&#45;&gt;Node20 -->
<g id="edge14" class="edge">
<title>Node19&#45;&gt;Node20</title>
<path fill="none" stroke="midnightblue" d="M987.16,-179.48C938.81,-170.07 860.11,-154.77 801.54,-143.38"/>
<polygon fill="midnightblue" stroke="midnightblue" points="802.07,-139.92 791.58,-141.45 800.73,-146.79 802.07,-139.92"/>
</g>
<!-- Node21 -->
<g id="node14" class="node">
<title>Node21</title>
<g id="a_node14"><a xlink:title=" ">
<polygon fill="white" stroke="#bfbfbf" points="894.5,-118 894.5,-137 1043.5,-137 1043.5,-118 894.5,-118"/>
<text text-anchor="middle" x="969" y="-125" font-family="Helvetica,sans-Serif" font-size="10.00">emlabcpp/static_function.h</text>
</a>
</g>
</g>
<!-- Node19&#45;&gt;Node21 -->
<g id="edge15" class="edge">
<title>Node19&#45;&gt;Node21</title>
<path fill="none" stroke="midnightblue" d="M1022.12,-179.48C1012.54,-170.28 997.09,-155.46 985.31,-144.16"/>
<polygon fill="midnightblue" stroke="midnightblue" points="987.51,-141.41 977.87,-137.01 982.66,-146.46 987.51,-141.41"/>
</g>
<!-- Node22 -->
<g id="node15" class="node">
<title>Node22</title>
<g id="a_node15"><a xlink:title=" ">
<polygon fill="white" stroke="#bfbfbf" points="1157.5,-118 1157.5,-137 1256.5,-137 1256.5,-118 1157.5,-118"/>
<text text-anchor="middle" x="1207" y="-125" font-family="Helvetica,sans-Serif" font-size="10.00">emlabcpp/view.h</text>
</a>
</g>
</g>
<!-- Node19&#45;&gt;Node22 -->
<g id="edge16" class="edge">
<title>Node19&#45;&gt;Node22</title>
<path fill="none" stroke="midnightblue" d="M1056.22,-179.48C1086.67,-169.18 1138.05,-151.81 1172.24,-140.25"/>
<polygon fill="midnightblue" stroke="midnightblue" points="1173.48,-143.53 1181.83,-137.01 1171.24,-136.9 1173.48,-143.53"/>
</g>
<!-- Node23 -->
<g id="node16" class="node">
<title>Node23</title>
<g id="a_node16"><a xlink:title=" ">
<polygon fill="white" stroke="#bfbfbf" points="1061,-118 1061,-137 1101,-137 1101,-118 1061,-118"/>
<text text-anchor="middle" x="1081" y="-125" font-family="Helvetica,sans-Serif" font-size="10.00">span</text>
</a>
</g>
</g>
<!-- Node19&#45;&gt;Node23 -->
<g id="edge17" class="edge">
<title>Node19&#45;&gt;Node23</title>
<path fill="none" stroke="midnightblue" d="M1038.16,-179.48C1045.74,-170.46 1057.87,-156.02 1067.29,-144.81"/>
<polygon fill="midnightblue" stroke="midnightblue" points="1070.1,-146.92 1073.85,-137.01 1064.74,-142.41 1070.1,-146.92"/>
</g>
<!-- Node19&#45;&gt;Node24 -->
<g id="edge18" class="edge">
<title>Node19&#45;&gt;Node24</title>
<path fill="none" stroke="midnightblue" d="M1060.88,-179.39C1078.54,-172.59 1099.45,-161.15 1110,-143 1116.92,-131.09 1118.81,-122.59 1110,-112 1087.24,-84.64 991.96,-73.85 927.68,-69.63"/>
<polygon fill="midnightblue" stroke="midnightblue" points="927.85,-66.14 917.65,-69.01 927.42,-73.12 927.85,-66.14"/>
</g>
<!-- Node25&#45;&gt;Node3 -->
<g id="edge20" class="edge">
<title>Node25&#45;&gt;Node3</title>
<path fill="none" stroke="midnightblue" d="M611.95,-179.45C595.5,-171.5 571.67,-158.55 554,-143 517.36,-110.76 527.66,-82.99 487,-56 447.54,-29.81 393.54,-18.84 356.85,-14.26"/>
<polygon fill="midnightblue" stroke="midnightblue" points="356.86,-10.74 346.53,-13.09 356.07,-17.7 356.86,-10.74"/>
</g>
<!-- Node25&#45;&gt;Node20 -->
<g id="edge21" class="edge">
<title>Node25&#45;&gt;Node20</title>
<path fill="none" stroke="midnightblue" d="M644.47,-179.48C657.44,-171.27 677.51,-158.56 694.38,-147.88"/>
<polygon fill="midnightblue" stroke="midnightblue" points="696.27,-150.83 702.85,-142.52 692.52,-144.91 696.27,-150.83"/>
</g>
<!-- Node25&#45;&gt;Node24 -->
<g id="edge22" class="edge">
<title>Node25&#45;&gt;Node24</title>
<path fill="none" stroke="midnightblue" d="M607.55,-179.41C591.84,-172.28 572.38,-160.46 563,-143 556.48,-130.86 554,-122.43 563,-112 593.73,-76.39 726.36,-68.48 805.93,-67.01"/>
<polygon fill="midnightblue" stroke="midnightblue" points="806.37,-70.51 816.31,-66.85 806.26,-63.51 806.37,-70.51"/>
</g>
<!-- Node26&#45;&gt;Node20 -->
<g id="edge27" class="edge">
<title>Node26&#45;&gt;Node20</title>
<path fill="none" stroke="midnightblue" d="M826.09,-179.48C809.44,-171.08 783.45,-157.97 761.99,-147.15"/>
<polygon fill="midnightblue" stroke="midnightblue" points="763.32,-143.9 752.81,-142.52 760.16,-150.15 763.32,-143.9"/>
</g>
<!-- Node26&#45;&gt;Node21 -->
<g id="edge28" class="edge">
<title>Node26&#45;&gt;Node21</title>
<path fill="none" stroke="midnightblue" d="M861.05,-179.48C882.2,-169.49 917.44,-152.85 941.88,-141.31"/>
<polygon fill="midnightblue" stroke="midnightblue" points="943.43,-144.44 950.98,-137.01 940.44,-138.11 943.43,-144.44"/>
</g>
<!-- Node26&#45;&gt;Node23 -->
<g id="edge29" class="edge">
<title>Node26&#45;&gt;Node23</title>
<path fill="none" stroke="midnightblue" d="M898.61,-179.94C941.33,-172.82 1001.4,-160.78 1052,-143 1053.43,-142.5 1054.87,-141.94 1056.32,-141.35"/>
<polygon fill="midnightblue" stroke="midnightblue" points="1058.03,-144.42 1065.66,-137.07 1055.11,-138.05 1058.03,-144.42"/>
</g>
<!-- Node27 -->
<g id="node20" class="node">
<title>Node27</title>
<g id="a_node20"><a xlink:title=" ">
<polygon fill="white" stroke="#bfbfbf" points="809.5,-118 809.5,-137 876.5,-137 876.5,-118 809.5,-118"/>
<text text-anchor="middle" x="843" y="-125" font-family="Helvetica,sans-Serif" font-size="10.00">config.hpp</text>
</a>
</g>
</g>
<!-- Node26&#45;&gt;Node27 -->
<g id="edge24" class="edge">
<title>Node26&#45;&gt;Node27</title>
<path fill="none" stroke="midnightblue" d="M843,-179.48C843,-171.08 843,-157.98 843,-147.16"/>
<polygon fill="midnightblue" stroke="midnightblue" points="846.5,-147.01 843,-137.01 839.5,-147.01 846.5,-147.01"/>
</g>
<!-- Node28 -->
<g id="node21" class="node">
<title>Node28</title>
<g id="a_node21"><a xlink:href="util_8hpp.html" target="_top" xlink:title=" ">
<polygon fill="white" stroke="red" points="572,-118 572,-137 640,-137 640,-118 572,-118"/>
<text text-anchor="middle" x="606" y="-125" font-family="Helvetica,sans-Serif" font-size="10.00">fw/util.hpp</text>
</a>
</g>
</g>
<!-- Node26&#45;&gt;Node28 -->
<g id="edge25" class="edge">
<title>Node26&#45;&gt;Node28</title>
<path fill="none" stroke="midnightblue" d="M800.69,-179.43C761.19,-171.13 700.72,-157.68 649,-143 645.99,-142.15 642.88,-141.21 639.77,-140.23"/>
<polygon fill="midnightblue" stroke="midnightblue" points="640.57,-136.81 629.98,-137.05 638.4,-143.47 640.57,-136.81"/>
</g>
<!-- Node28&#45;&gt;Node24 -->
<g id="edge26" class="edge">
<title>Node28&#45;&gt;Node24</title>
<path fill="none" stroke="midnightblue" d="M629.95,-117.85C636.11,-115.78 642.76,-113.69 649,-112 701.77,-97.71 762.8,-85.47 806.84,-77.38"/>
<polygon fill="midnightblue" stroke="midnightblue" points="807.6,-80.8 816.81,-75.57 806.34,-73.91 807.6,-80.8"/>
</g>
<!-- Node29&#45;&gt;Node3 -->
<g id="edge31" class="edge">
<title>Node29&#45;&gt;Node3</title>
<path fill="none" stroke="midnightblue" d="M370.75,-117.85C360.33,-108.53 344.41,-92.75 335,-76 326.91,-61.58 321.97,-43.39 319.17,-29.92"/>
<polygon fill="midnightblue" stroke="midnightblue" points="322.57,-29.09 317.29,-19.91 315.69,-30.38 322.57,-29.09"/>
</g>
<!-- Node30 -->
<g id="node23" class="node">
<title>Node30</title>
<g id="a_node23"><a xlink:href="kalman_8hpp.html" target="_top" xlink:title=" ">
<polygon fill="white" stroke="red" points="344,-56.5 344,-75.5 418,-75.5 418,-56.5 344,-56.5"/>
<text text-anchor="middle" x="381" y="-63.5" font-family="Helvetica,sans-Serif" font-size="10.00">kalman.hpp</text>
</a>
</g>
</g>
<!-- Node29&#45;&gt;Node30 -->
<g id="edge32" class="edge">
<title>Node29&#45;&gt;Node30</title>
<path fill="none" stroke="midnightblue" d="M381,-117.98C381,-109.58 381,-96.48 381,-85.66"/>
<polygon fill="midnightblue" stroke="midnightblue" points="384.5,-85.51 381,-75.51 377.5,-85.51 384.5,-85.51"/>
</g>
<!-- Node32 -->
<g id="node24" class="node">
<title>Node32</title>
<g id="a_node24"><a xlink:title=" ">
<polygon fill="white" stroke="#bfbfbf" points="436,-56.5 436,-75.5 478,-75.5 478,-56.5 436,-56.5"/>
<text text-anchor="middle" x="457" y="-63.5" font-family="Helvetica,sans-Serif" font-size="10.00">array</text>
</a>
</g>
</g>
<!-- Node29&#45;&gt;Node32 -->
<g id="edge34" class="edge">
<title>Node29&#45;&gt;Node32</title>
<path fill="none" stroke="midnightblue" d="M391.89,-117.98C403.97,-108.52 423.67,-93.1 438.24,-81.69"/>
<polygon fill="midnightblue" stroke="midnightblue" points="440.41,-84.43 446.13,-75.51 436.1,-78.92 440.41,-84.43"/>
</g>
<!-- Node33 -->
<g id="node25" class="node">
<title>Node33</title>
<g id="a_node25"><a xlink:title=" ">
<polygon fill="white" stroke="#bfbfbf" points="246.5,-56.5 246.5,-75.5 287.5,-75.5 287.5,-56.5 246.5,-56.5"/>
<text text-anchor="middle" x="267" y="-63.5" font-family="Helvetica,sans-Serif" font-size="10.00">tuple</text>
</a>
</g>
</g>
<!-- Node29&#45;&gt;Node33 -->
<g id="edge35" class="edge">
<title>Node29&#45;&gt;Node33</title>
<path fill="none" stroke="midnightblue" d="M364.67,-117.98C345.79,-108.12 314.49,-91.79 292.42,-80.27"/>
<polygon fill="midnightblue" stroke="midnightblue" points="293.79,-77.03 283.3,-75.51 290.55,-83.24 293.79,-77.03"/>
</g>
<!-- Node30&#45;&gt;Node3 -->
<g id="edge33" class="edge">
<title>Node30&#45;&gt;Node3</title>
<path fill="none" stroke="midnightblue" d="M370.56,-56.32C360.85,-48.26 346.18,-36.08 334.5,-26.37"/>
<polygon fill="midnightblue" stroke="midnightblue" points="336.56,-23.53 326.63,-19.83 332.09,-28.92 336.56,-23.53"/>
</g>
</g>
</svg>
