<?xml version="1.0" encoding="UTF-8" standalone="no"?>
<!DOCTYPE svg PUBLIC "-//W3C//DTD SVG 1.1//EN"
 "http://www.w3.org/Graphics/SVG/1.1/DTD/svg11.dtd">
<!-- Generated by graphviz version 2.43.0 (0)
 -->
<!-- Title: src/fw/callbacks.hpp Pages: 1 -->
<svg width="1315pt" height="263pt"
 viewBox="0.00 0.00 1314.77 263.00" xmlns="http://www.w3.org/2000/svg" xmlns:xlink="http://www.w3.org/1999/xlink">
<g id="graph0" class="graph" transform="scale(1 1) rotate(0) translate(4 259)">
<title>src/fw/callbacks.hpp</title>
<polygon fill="white" stroke="transparent" points="-4,4 -4,-259 1310.77,-259 1310.77,4 -4,4"/>
<!-- Node1 -->
<g id="node1" class="node">
<title>Node1</title>
<g id="a_node1"><a xlink:title=" ">
<polygon fill="#bfbfbf" stroke="black" points="552.77,-235.5 552.77,-254.5 667.77,-254.5 667.77,-235.5 552.77,-235.5"/>
<text text-anchor="middle" x="610.27" y="-242.5" font-family="Helvetica,sans-Serif" font-size="10.00">src/fw/callbacks.hpp</text>
</a>
</g>
</g>
<!-- Node2 -->
<g id="node2" class="node">
<title>Node2</title>
<g id="a_node2"><a xlink:href="control_8hpp.html" target="_top" xlink:title=" ">
<polygon fill="white" stroke="black" points="130.77,-179.5 130.77,-198.5 201.77,-198.5 201.77,-179.5 130.77,-179.5"/>
<text text-anchor="middle" x="166.27" y="-186.5" font-family="Helvetica,sans-Serif" font-size="10.00">control.hpp</text>
</a>
</g>
</g>
<!-- Node1&#45;&gt;Node2 -->
<g id="edge1" class="edge">
<title>Node1&#45;&gt;Node2</title>
<path fill="none" stroke="midnightblue" d="M552.68,-237C463.35,-226.13 293.22,-205.44 211.84,-195.54"/>
<polygon fill="midnightblue" stroke="midnightblue" points="212.25,-192.07 201.9,-194.33 211.4,-199.01 212.25,-192.07"/>
</g>
<!-- Node15 -->
<g id="node8" class="node">
<title>Node15</title>
<g id="a_node8"><a xlink:href="converter_8hpp.html" target="_top" xlink:title=" ">
<polygon fill="white" stroke="black" points="659.77,-118 659.77,-137 742.77,-137 742.77,-118 659.77,-118"/>
<text text-anchor="middle" x="701.27" y="-125" font-family="Helvetica,sans-Serif" font-size="10.00">converter.hpp</text>
</a>
</g>
</g>
<!-- Node1&#45;&gt;Node15 -->
<g id="edge9" class="edge">
<title>Node1&#45;&gt;Node15</title>
<path fill="none" stroke="midnightblue" d="M614.47,-235.09C620.82,-222.09 633.68,-197.45 648.27,-179 658.58,-165.97 672.17,-153.09 683.02,-143.59"/>
<polygon fill="midnightblue" stroke="midnightblue" points="685.34,-146.2 690.67,-137.04 680.79,-140.89 685.34,-146.2"/>
</g>
<!-- Node20 -->
<g id="node13" class="node">
<title>Node20</title>
<g id="a_node13"><a xlink:href="clock_8hpp.html" target="_top" xlink:title=" ">
<polygon fill="white" stroke="black" points="448.27,-179.5 448.27,-198.5 530.27,-198.5 530.27,-179.5 448.27,-179.5"/>
<text text-anchor="middle" x="489.27" y="-186.5" font-family="Helvetica,sans-Serif" font-size="10.00">drv/clock.hpp</text>
</a>
</g>
</g>
<!-- Node1&#45;&gt;Node20 -->
<g id="edge14" class="edge">
<title>Node1&#45;&gt;Node20</title>
<path fill="none" stroke="midnightblue" d="M591.1,-235.44C571.36,-226.64 540.39,-212.81 517.78,-202.72"/>
<polygon fill="midnightblue" stroke="midnightblue" points="518.91,-199.4 508.36,-198.52 516.06,-205.79 518.91,-199.4"/>
</g>
<!-- Node22 -->
<g id="node15" class="node">
<title>Node22</title>
<g id="a_node15"><a xlink:title=" ">
<polygon fill="white" stroke="#bfbfbf" points="540.77,-118 540.77,-137 641.77,-137 641.77,-118 540.77,-118"/>
<text text-anchor="middle" x="591.27" y="-125" font-family="Helvetica,sans-Serif" font-size="10.00">stm32g4xx_hal.h</text>
</a>
</g>
</g>
<!-- Node1&#45;&gt;Node22 -->
<g id="edge27" class="edge">
<title>Node1&#45;&gt;Node22</title>
<path fill="none" stroke="midnightblue" d="M608.85,-235.32C605.79,-216.76 598.57,-172.84 594.39,-147.47"/>
<polygon fill="midnightblue" stroke="midnightblue" points="597.79,-146.58 592.72,-137.28 590.89,-147.72 597.79,-146.58"/>
</g>
<!-- Node23 -->
<g id="node16" class="node">
<title>Node23</title>
<g id="a_node16"><a xlink:href="conversion_8hpp.html" target="_top" xlink:title=" ">
<polygon fill="white" stroke="black" points="657.77,-179.5 657.77,-198.5 762.77,-198.5 762.77,-179.5 657.77,-179.5"/>
<text text-anchor="middle" x="710.27" y="-186.5" font-family="Helvetica,sans-Serif" font-size="10.00">fw/conversion.hpp</text>
</a>
</g>
</g>
<!-- Node1&#45;&gt;Node23 -->
<g id="edge18" class="edge">
<title>Node1&#45;&gt;Node23</title>
<path fill="none" stroke="midnightblue" d="M626.34,-235.32C642.23,-226.74 666.78,-213.49 685.23,-203.52"/>
<polygon fill="midnightblue" stroke="midnightblue" points="687.11,-206.49 694.25,-198.65 683.78,-200.33 687.11,-206.49"/>
</g>
<!-- Node27 -->
<g id="node18" class="node">
<title>Node27</title>
<g id="a_node18"><a xlink:href="metrics_8hpp.html" target="_top" xlink:title=" ">
<polygon fill="white" stroke="black" points="1025.27,-179.5 1025.27,-198.5 1099.27,-198.5 1099.27,-179.5 1025.27,-179.5"/>
<text text-anchor="middle" x="1062.27" y="-186.5" font-family="Helvetica,sans-Serif" font-size="10.00">metrics.hpp</text>
</a>
</g>
</g>
<!-- Node1&#45;&gt;Node27 -->
<g id="edge21" class="edge">
<title>Node1&#45;&gt;Node27</title>
<path fill="none" stroke="midnightblue" d="M667.98,-237.11C758.45,-226.3 931.94,-205.57 1015.29,-195.61"/>
<polygon fill="midnightblue" stroke="midnightblue" points="1015.73,-199.09 1025.24,-194.42 1014.89,-192.14 1015.73,-199.09"/>
</g>
<!-- Node3 -->
<g id="node3" class="node">
<title>Node3</title>
<g id="a_node3"><a xlink:href="base_8hpp.html" target="_top" xlink:title=" ">
<polygon fill="white" stroke="red" points="211.77,-0.5 211.77,-19.5 272.77,-19.5 272.77,-0.5 211.77,-0.5"/>
<text text-anchor="middle" x="242.27" y="-7.5" font-family="Helvetica,sans-Serif" font-size="10.00">base.hpp</text>
</a>
</g>
</g>
<!-- Node2&#45;&gt;Node3 -->
<g id="edge2" class="edge">
<title>Node2&#45;&gt;Node3</title>
<path fill="none" stroke="midnightblue" d="M130.52,-183.07C87.85,-176.36 20.36,-162.88 5.27,-143 -3.06,-132.02 0.06,-124.75 5.27,-112 35.94,-37.02 141.85,-17.58 201.18,-12.62"/>
<polygon fill="midnightblue" stroke="midnightblue" points="201.62,-16.1 211.34,-11.88 201.11,-9.12 201.62,-16.1"/>
</g>
<!-- Node10 -->
<g id="node4" class="node">
<title>Node10</title>
<g id="a_node4"><a xlink:href="ctl_2config_8hpp.html" target="_top" xlink:title=" ">
<polygon fill="white" stroke="black" points="14.27,-118 14.27,-137 96.27,-137 96.27,-118 14.27,-118"/>
<text text-anchor="middle" x="55.27" y="-125" font-family="Helvetica,sans-Serif" font-size="10.00">ctl/config.hpp</text>
</a>
</g>
</g>
<!-- Node2&#45;&gt;Node10 -->
<g id="edge3" class="edge">
<title>Node2&#45;&gt;Node10</title>
<path fill="none" stroke="midnightblue" d="M150.37,-179.48C131.99,-169.62 101.52,-153.29 80.03,-141.77"/>
<polygon fill="midnightblue" stroke="midnightblue" points="81.61,-138.65 71.15,-137.01 78.31,-144.82 81.61,-138.65"/>
</g>
<!-- Node11 -->
<g id="node5" class="node">
<title>Node11</title>
<g id="a_node5"><a xlink:href="pid__module_8hpp.html" target="_top" xlink:title=" ">
<polygon fill="white" stroke="red" points="69.27,-56.5 69.27,-75.5 179.27,-75.5 179.27,-56.5 69.27,-56.5"/>
<text text-anchor="middle" x="124.27" y="-63.5" font-family="Helvetica,sans-Serif" font-size="10.00">ctl/pid_module.hpp</text>
</a>
</g>
</g>
<!-- Node2&#45;&gt;Node11 -->
<g id="edge7" class="edge">
<title>Node2&#45;&gt;Node11</title>
<path fill="none" stroke="midnightblue" d="M161.08,-179.31C155.95,-170.44 148.2,-156.14 143.27,-143 136.13,-123.94 130.84,-101.19 127.69,-85.58"/>
<polygon fill="midnightblue" stroke="midnightblue" points="131.1,-84.78 125.77,-75.63 124.22,-86.11 131.1,-84.78"/>
</g>
<!-- Node13 -->
<g id="node6" class="node">
<title>Node13</title>
<g id="a_node6"><a xlink:href="linear__transition__regulator_8hpp.html" target="_top" xlink:title=" ">
<polygon fill="white" stroke="black" points="152.77,-112.5 152.77,-142.5 263.77,-142.5 263.77,-112.5 152.77,-112.5"/>
<text text-anchor="start" x="160.77" y="-130.5" font-family="Helvetica,sans-Serif" font-size="10.00">ctl/linear_transition</text>
<text text-anchor="middle" x="208.27" y="-119.5" font-family="Helvetica,sans-Serif" font-size="10.00">_regulator.hpp</text>
</a>
</g>
</g>
<!-- Node2&#45;&gt;Node13 -->
<g id="edge6" class="edge">
<title>Node2&#45;&gt;Node13</title>
<path fill="none" stroke="midnightblue" d="M172.29,-179.48C177.55,-172.02 185.44,-160.85 192.48,-150.87"/>
<polygon fill="midnightblue" stroke="midnightblue" points="195.47,-152.71 198.37,-142.52 189.75,-148.67 195.47,-152.71"/>
</g>
<!-- Node14 -->
<g id="node7" class="node">
<title>Node14</title>
<g id="a_node7"><a xlink:title=" ">
<polygon fill="white" stroke="#bfbfbf" points="281.77,-118 281.77,-137 332.77,-137 332.77,-118 281.77,-118"/>
<text text-anchor="middle" x="307.27" y="-125" font-family="Helvetica,sans-Serif" font-size="10.00">variant</text>
</a>
</g>
</g>
<!-- Node2&#45;&gt;Node14 -->
<g id="edge8" class="edge">
<title>Node2&#45;&gt;Node14</title>
<path fill="none" stroke="midnightblue" d="M186.48,-179.48C210.35,-169.4 250.28,-152.55 277.65,-141"/>
<polygon fill="midnightblue" stroke="midnightblue" points="279.26,-144.12 287.11,-137.01 276.54,-137.67 279.26,-144.12"/>
</g>
<!-- Node10&#45;&gt;Node11 -->
<g id="edge4" class="edge">
<title>Node10&#45;&gt;Node11</title>
<path fill="none" stroke="midnightblue" d="M65.16,-117.98C75.92,-108.7 93.34,-93.67 106.49,-82.33"/>
<polygon fill="midnightblue" stroke="midnightblue" points="109.12,-84.69 114.41,-75.51 104.55,-79.39 109.12,-84.69"/>
</g>
<!-- Node11&#45;&gt;Node3 -->
<g id="edge5" class="edge">
<title>Node11&#45;&gt;Node3</title>
<path fill="none" stroke="midnightblue" d="M142.97,-56.44C162.22,-47.64 192.43,-33.81 214.47,-23.72"/>
<polygon fill="midnightblue" stroke="midnightblue" points="216.03,-26.86 223.66,-19.52 213.11,-20.5 216.03,-26.86"/>
</g>
<!-- Node16 -->
<g id="node9" class="node">
<title>Node16</title>
<g id="a_node9"><a xlink:href="current_8hpp.html" target="_top" xlink:title=" ">
<polygon fill="white" stroke="red" points="413.27,-56.5 413.27,-75.5 505.27,-75.5 505.27,-56.5 413.27,-56.5"/>
<text text-anchor="middle" x="459.27" y="-63.5" font-family="Helvetica,sans-Serif" font-size="10.00">cnv/current.hpp</text>
</a>
</g>
</g>
<!-- Node15&#45;&gt;Node16 -->
<g id="edge10" class="edge">
<title>Node15&#45;&gt;Node16</title>
<path fill="none" stroke="midnightblue" d="M672.21,-117.99C665.05,-115.96 657.4,-113.85 650.27,-112 602,-99.46 546.46,-86.54 507.77,-77.78"/>
<polygon fill="midnightblue" stroke="midnightblue" points="508.34,-74.32 497.81,-75.54 506.8,-81.15 508.34,-74.32"/>
</g>
<!-- Node17 -->
<g id="node10" class="node">
<title>Node17</title>
<g id="a_node10"><a xlink:href="position_8hpp.html" target="_top" xlink:title=" ">
<polygon fill="white" stroke="red" points="523.77,-56.5 523.77,-75.5 620.77,-75.5 620.77,-56.5 523.77,-56.5"/>
<text text-anchor="middle" x="572.27" y="-63.5" font-family="Helvetica,sans-Serif" font-size="10.00">cnv/position.hpp</text>
</a>
</g>
</g>
<!-- Node15&#45;&gt;Node17 -->
<g id="edge11" class="edge">
<title>Node15&#45;&gt;Node17</title>
<path fill="none" stroke="midnightblue" d="M682.79,-117.98C661.14,-107.99 625.06,-91.35 600.04,-79.81"/>
<polygon fill="midnightblue" stroke="midnightblue" points="601.27,-76.52 590.72,-75.51 598.34,-82.88 601.27,-76.52"/>
</g>
<!-- Node18 -->
<g id="node11" class="node">
<title>Node18</title>
<g id="a_node11"><a xlink:href="temperature_8hpp.html" target="_top" xlink:title=" ">
<polygon fill="white" stroke="black" points="638.77,-56.5 638.77,-75.5 757.77,-75.5 757.77,-56.5 638.77,-56.5"/>
<text text-anchor="middle" x="698.27" y="-63.5" font-family="Helvetica,sans-Serif" font-size="10.00">cnv/temperature.hpp</text>
</a>
</g>
</g>
<!-- Node15&#45;&gt;Node18 -->
<g id="edge12" class="edge">
<title>Node15&#45;&gt;Node18</title>
<path fill="none" stroke="midnightblue" d="M700.84,-117.98C700.42,-109.58 699.76,-96.48 699.21,-85.66"/>
<polygon fill="midnightblue" stroke="midnightblue" points="702.7,-85.32 698.7,-75.51 695.71,-85.67 702.7,-85.32"/>
</g>
<!-- Node19 -->
<g id="node12" class="node">
<title>Node19</title>
<g id="a_node12"><a xlink:href="voltage_8hpp.html" target="_top" xlink:title=" ">
<polygon fill="white" stroke="black" points="775.77,-56.5 775.77,-75.5 870.77,-75.5 870.77,-56.5 775.77,-56.5"/>
<text text-anchor="middle" x="823.27" y="-63.5" font-family="Helvetica,sans-Serif" font-size="10.00">cnv/voltage.hpp</text>
</a>
</g>
</g>
<!-- Node15&#45;&gt;Node19 -->
<g id="edge13" class="edge">
<title>Node15&#45;&gt;Node19</title>
<path fill="none" stroke="midnightblue" d="M718.75,-117.98C739.14,-108.03 773.05,-91.49 796.7,-79.96"/>
<polygon fill="midnightblue" stroke="midnightblue" points="798.37,-83.04 805.83,-75.51 795.3,-76.75 798.37,-83.04"/>
</g>
<!-- Node20&#45;&gt;Node3 -->
<g id="edge15" class="edge">
<title>Node20&#45;&gt;Node3</title>
<path fill="none" stroke="midnightblue" d="M460.53,-179.41C437.69,-171.83 405.49,-159.43 380.27,-143 353.24,-125.39 287.56,-58.27 257.61,-27.09"/>
<polygon fill="midnightblue" stroke="midnightblue" points="259.94,-24.46 250.49,-19.66 254.88,-29.3 259.94,-24.46"/>
</g>
<!-- Node21 -->
<g id="node14" class="node">
<title>Node21</title>
<g id="a_node14"><a xlink:title=" ">
<polygon fill="white" stroke="#bfbfbf" points="389.77,-112.5 389.77,-142.5 522.77,-142.5 522.77,-112.5 389.77,-112.5"/>
<text text-anchor="start" x="397.77" y="-130.5" font-family="Helvetica,sans-Serif" font-size="10.00">emlabcpp/experimental</text>
<text text-anchor="middle" x="456.27" y="-119.5" font-family="Helvetica,sans-Serif" font-size="10.00">/function_view.h</text>
</a>
</g>
</g>
<!-- Node20&#45;&gt;Node21 -->
<g id="edge16" class="edge">
<title>Node20&#45;&gt;Node21</title>
<path fill="none" stroke="midnightblue" d="M484.55,-179.48C480.49,-172.17 474.47,-161.3 469.02,-151.47"/>
<polygon fill="midnightblue" stroke="midnightblue" points="471.96,-149.57 464.05,-142.52 465.84,-152.97 471.96,-149.57"/>
</g>
<!-- Node20&#45;&gt;Node22 -->
<g id="edge17" class="edge">
<title>Node20&#45;&gt;Node22</title>
<path fill="none" stroke="midnightblue" d="M503.89,-179.48C520.63,-169.71 548.28,-153.58 567.99,-142.08"/>
<polygon fill="midnightblue" stroke="midnightblue" points="569.81,-145.07 576.69,-137.01 566.29,-139.02 569.81,-145.07"/>
</g>
<!-- Node23&#45;&gt;Node15 -->
<g id="edge19" class="edge">
<title>Node23&#45;&gt;Node15</title>
<path fill="none" stroke="midnightblue" d="M708.98,-179.48C707.71,-171.08 705.73,-157.98 704.1,-147.16"/>
<polygon fill="midnightblue" stroke="midnightblue" points="707.52,-146.37 702.56,-137.01 700.6,-147.42 707.52,-146.37"/>
</g>
<!-- Node24 -->
<g id="node17" class="node">
<title>Node24</title>
<g id="a_node17"><a xlink:href="drv__interfaces_8hpp.html" target="_top" xlink:title=" ">
<polygon fill="white" stroke="red" points="760.77,-118 760.77,-137 867.77,-137 867.77,-118 760.77,-118"/>
<text text-anchor="middle" x="814.27" y="-125" font-family="Helvetica,sans-Serif" font-size="10.00">drv_interfaces.hpp</text>
</a>
</g>
</g>
<!-- Node23&#45;&gt;Node24 -->
<g id="edge20" class="edge">
<title>Node23&#45;&gt;Node24</title>
<path fill="none" stroke="midnightblue" d="M725.17,-179.48C742.24,-169.71 770.43,-153.58 790.54,-142.08"/>
<polygon fill="midnightblue" stroke="midnightblue" points="792.46,-145.01 799.4,-137.01 788.98,-138.94 792.46,-145.01"/>
</g>
<!-- Node27&#45;&gt;Node3 -->
<g id="edge22" class="edge">
<title>Node27&#45;&gt;Node3</title>
<path fill="none" stroke="midnightblue" d="M1024.97,-184.73C993.41,-180.16 948.73,-169.21 919.27,-143 887.62,-114.83 915.01,-80.27 880.27,-56 831.42,-21.86 415.81,-13.33 282.94,-11.47"/>
<polygon fill="midnightblue" stroke="midnightblue" points="282.83,-7.97 272.78,-11.33 282.73,-14.97 282.83,-7.97"/>
</g>
<!-- Node28 -->
<g id="node19" class="node">
<title>Node28</title>
<g id="a_node19"><a xlink:href="posvel__kalman_8hpp.html" target="_top" xlink:title=" ">
<polygon fill="white" stroke="red" points="927.77,-118 927.77,-137 1058.77,-137 1058.77,-118 927.77,-118"/>
<text text-anchor="middle" x="993.27" y="-125" font-family="Helvetica,sans-Serif" font-size="10.00">mtr/posvel_kalman.hpp</text>
</a>
</g>
</g>
<!-- Node27&#45;&gt;Node28 -->
<g id="edge23" class="edge">
<title>Node27&#45;&gt;Node28</title>
<path fill="none" stroke="midnightblue" d="M1052.39,-179.48C1041.63,-170.2 1024.2,-155.17 1011.05,-143.83"/>
<polygon fill="midnightblue" stroke="midnightblue" points="1013,-140.89 1003.14,-137.01 1008.43,-146.19 1013,-140.89"/>
</g>
<!-- Node31 -->
<g id="node20" class="node">
<title>Node31</title>
<g id="a_node20"><a xlink:href="static__detector_8hpp.html" target="_top" xlink:title=" ">
<polygon fill="white" stroke="black" points="1077.27,-118 1077.27,-137 1187.27,-137 1187.27,-118 1077.27,-118"/>
<text text-anchor="middle" x="1132.27" y="-125" font-family="Helvetica,sans-Serif" font-size="10.00">static_detector.hpp</text>
</a>
</g>
</g>
<!-- Node27&#45;&gt;Node31 -->
<g id="edge24" class="edge">
<title>Node27&#45;&gt;Node31</title>
<path fill="none" stroke="midnightblue" d="M1072.3,-179.48C1083.32,-170.11 1101.23,-154.88 1114.62,-143.51"/>
<polygon fill="midnightblue" stroke="midnightblue" points="1116.91,-146.15 1122.26,-137.01 1112.38,-140.82 1116.91,-146.15"/>
</g>
<!-- Node32 -->
<g id="node21" class="node">
<title>Node32</title>
<g id="a_node21"><a xlink:title=" ">
<polygon fill="white" stroke="#bfbfbf" points="1205.27,-118 1205.27,-137 1247.27,-137 1247.27,-118 1205.27,-118"/>
<text text-anchor="middle" x="1226.27" y="-125" font-family="Helvetica,sans-Serif" font-size="10.00">array</text>
</a>
</g>
</g>
<!-- Node27&#45;&gt;Node32 -->
<g id="edge25" class="edge">
<title>Node27&#45;&gt;Node32</title>
<path fill="none" stroke="midnightblue" d="M1091.15,-179.46C1118.55,-171.09 1160.71,-157.5 1196.27,-143 1197.65,-142.44 1199.04,-141.85 1200.45,-141.23"/>
<polygon fill="midnightblue" stroke="midnightblue" points="1202,-144.37 1209.62,-137.01 1199.08,-138.01 1202,-144.37"/>
</g>
<!-- Node33 -->
<g id="node22" class="node">
<title>Node33</title>
<g id="a_node22"><a xlink:title=" ">
<polygon fill="white" stroke="#bfbfbf" points="1265.77,-118 1265.77,-137 1306.77,-137 1306.77,-118 1265.77,-118"/>
<text text-anchor="middle" x="1286.27" y="-125" font-family="Helvetica,sans-Serif" font-size="10.00">tuple</text>
</a>
</g>
</g>
<!-- Node27&#45;&gt;Node33 -->
<g id="edge26" class="edge">
<title>Node27&#45;&gt;Node33</title>
<path fill="none" stroke="midnightblue" d="M1099.44,-181.92C1139.01,-174.86 1203.13,-161.75 1256.27,-143 1257.89,-142.43 1259.53,-141.8 1261.17,-141.13"/>
<polygon fill="midnightblue" stroke="midnightblue" points="1262.67,-144.29 1270.36,-137 1259.81,-137.9 1262.67,-144.29"/>
</g>
</g>
</svg>
