<?xml version="1.0" encoding="UTF-8" standalone="no"?>
<!DOCTYPE svg PUBLIC "-//W3C//DTD SVG 1.1//EN"
 "http://www.w3.org/Graphics/SVG/1.1/DTD/svg11.dtd">
<!-- Generated by graphviz version 2.43.0 (0)
 -->
<!-- Title: src/sntr/central_sentry.cpp Pages: 1 -->
<svg width="580pt" height="207pt"
 viewBox="0.00 0.00 579.74 207.00" xmlns="http://www.w3.org/2000/svg" xmlns:xlink="http://www.w3.org/1999/xlink">
<g id="graph0" class="graph" transform="scale(1 1) rotate(0) translate(4 203)">
<title>src/sntr/central_sentry.cpp</title>
<polygon fill="white" stroke="transparent" points="-4,4 -4,-203 575.74,-203 575.74,4 -4,4"/>
<!-- Node1 -->
<g id="node1" class="node">
<title>Node1</title>
<g id="a_node1"><a xlink:title=" ">
<polygon fill="#bfbfbf" stroke="black" points="340,-179.5 340,-198.5 484,-198.5 484,-179.5 340,-179.5"/>
<text text-anchor="middle" x="412" y="-186.5" font-family="Helvetica,sans-Serif" font-size="10.00">src/sntr/central_sentry.cpp</text>
</a>
</g>
</g>
<!-- Node2 -->
<g id="node2" class="node">
<title>Node2</title>
<g id="a_node2"><a xlink:href="central__sentry_8hpp.html" target="_top" xlink:title=" ">
<polygon fill="white" stroke="black" points="214,-123.5 214,-142.5 342,-142.5 342,-123.5 214,-123.5"/>
<text text-anchor="middle" x="278" y="-130.5" font-family="Helvetica,sans-Serif" font-size="10.00">sntr/central_sentry.hpp</text>
</a>
</g>
</g>
<!-- Node1&#45;&gt;Node2 -->
<g id="edge1" class="edge">
<title>Node1&#45;&gt;Node2</title>
<path fill="none" stroke="midnightblue" d="M390.77,-179.44C368.62,-170.52 333.68,-156.44 308.56,-146.32"/>
<polygon fill="midnightblue" stroke="midnightblue" points="309.72,-143.01 299.13,-142.52 307.1,-149.5 309.72,-143.01"/>
</g>
<!-- Node3 -->
<g id="node3" class="node">
<title>Node3</title>
<g id="a_node3"><a xlink:href="drv__interfaces_8hpp.html" target="_top" xlink:title=" ">
<polygon fill="white" stroke="red" points="0,-62 0,-81 134,-81 134,-62 0,-62"/>
<text text-anchor="middle" x="67" y="-69" font-family="Helvetica,sans-Serif" font-size="10.00">base/drv_interfaces.hpp</text>
</a>
</g>
</g>
<!-- Node1&#45;&gt;Node3 -->
<g id="edge10" class="edge">
<title>Node1&#45;&gt;Node3</title>
<path fill="none" stroke="midnightblue" d="M353.78,-179.48C311.67,-172.33 253.83,-160.45 205,-143 162.39,-127.78 116.21,-102.13 89.54,-86.32"/>
<polygon fill="midnightblue" stroke="midnightblue" points="91.33,-83.32 80.96,-81.18 87.73,-89.32 91.33,-83.32"/>
</g>
<!-- Node12 -->
<g id="node6" class="node">
<title>Node12</title>
<g id="a_node6"><a xlink:href="sntr_2base_8hpp.html" target="_top" xlink:title=" ">
<polygon fill="white" stroke="red" points="471.5,-0.5 471.5,-19.5 554.5,-19.5 554.5,-0.5 471.5,-0.5"/>
<text text-anchor="middle" x="513" y="-7.5" font-family="Helvetica,sans-Serif" font-size="10.00">sntr/base.hpp</text>
</a>
</g>
</g>
<!-- Node1&#45;&gt;Node12 -->
<g id="edge11" class="edge">
<title>Node1&#45;&gt;Node12</title>
<path fill="none" stroke="midnightblue" d="M439.12,-179.47C475.82,-166.29 539.84,-137.12 567,-87 573.56,-74.89 572.84,-68.48 567,-56 560.96,-43.09 549.19,-32.6 538.18,-25"/>
<polygon fill="midnightblue" stroke="midnightblue" points="539.94,-21.97 529.63,-19.54 536.17,-27.87 539.94,-21.97"/>
</g>
<!-- Node15 -->
<g id="node7" class="node">
<title>Node15</title>
<g id="a_node7"><a xlink:href="record_8hpp.html" target="_top" xlink:title=" ">
<polygon fill="white" stroke="black" points="468,-62 468,-81 558,-81 558,-62 468,-62"/>
<text text-anchor="middle" x="513" y="-69" font-family="Helvetica,sans-Serif" font-size="10.00">sntr/record.hpp</text>
</a>
</g>
</g>
<!-- Node1&#45;&gt;Node15 -->
<g id="edge12" class="edge">
<title>Node1&#45;&gt;Node15</title>
<path fill="none" stroke="midnightblue" d="M419.59,-179.32C436.33,-160.17 476.67,-114.04 498.46,-89.13"/>
<polygon fill="midnightblue" stroke="midnightblue" points="501.37,-91.11 505.32,-81.28 496.1,-86.51 501.37,-91.11"/>
</g>
<!-- Node2&#45;&gt;Node3 -->
<g id="edge2" class="edge">
<title>Node2&#45;&gt;Node3</title>
<path fill="none" stroke="midnightblue" d="M247.77,-123.48C210.71,-113.03 147.81,-95.29 106.84,-83.73"/>
<polygon fill="midnightblue" stroke="midnightblue" points="107.75,-80.35 97.18,-81.01 105.85,-87.09 107.75,-80.35"/>
</g>
<!-- Node10 -->
<g id="node4" class="node">
<title>Node10</title>
<g id="a_node4"><a xlink:title=" ">
<polygon fill="white" stroke="#bfbfbf" points="95,-0.5 95,-19.5 135,-19.5 135,-0.5 95,-0.5"/>
<text text-anchor="middle" x="115" y="-7.5" font-family="Helvetica,sans-Serif" font-size="10.00">span</text>
</a>
</g>
</g>
<!-- Node2&#45;&gt;Node10 -->
<g id="edge9" class="edge">
<title>Node2&#45;&gt;Node10</title>
<path fill="none" stroke="midnightblue" d="M252.08,-123.4C231.55,-115.81 202.81,-103.41 181,-87 158.61,-70.16 138.38,-44.6 126.39,-27.86"/>
<polygon fill="midnightblue" stroke="midnightblue" points="129.2,-25.77 120.61,-19.57 123.46,-29.77 129.2,-25.77"/>
</g>
<!-- Node11 -->
<g id="node5" class="node">
<title>Node11</title>
<g id="a_node5"><a xlink:href="central__sentry__iface_8hpp.html" target="_top" xlink:title=" ">
<polygon fill="white" stroke="black" points="190,-56.5 190,-86.5 298,-86.5 298,-56.5 190,-56.5"/>
<text text-anchor="start" x="198" y="-74.5" font-family="Helvetica,sans-Serif" font-size="10.00">sntr/central_sentry</text>
<text text-anchor="middle" x="244" y="-63.5" font-family="Helvetica,sans-Serif" font-size="10.00">_iface.hpp</text>
</a>
</g>
</g>
<!-- Node2&#45;&gt;Node11 -->
<g id="edge4" class="edge">
<title>Node2&#45;&gt;Node11</title>
<path fill="none" stroke="midnightblue" d="M273.13,-123.48C268.95,-116.17 262.74,-105.3 257.13,-95.47"/>
<polygon fill="midnightblue" stroke="midnightblue" points="260.01,-93.47 252.01,-86.52 253.94,-96.94 260.01,-93.47"/>
</g>
<!-- Node2&#45;&gt;Node15 -->
<g id="edge6" class="edge">
<title>Node2&#45;&gt;Node15</title>
<path fill="none" stroke="midnightblue" d="M313.09,-123.48C349.59,-114.57 408.37,-100.09 459,-87 463.12,-85.93 467.42,-84.81 471.71,-83.67"/>
<polygon fill="midnightblue" stroke="midnightblue" points="472.85,-86.99 481.62,-81.03 471.05,-80.23 472.85,-86.99"/>
</g>
<!-- Node16 -->
<g id="node8" class="node">
<title>Node16</title>
<g id="a_node8"><a xlink:title=" ">
<polygon fill="white" stroke="#bfbfbf" points="316.5,-56.5 316.5,-86.5 449.5,-86.5 449.5,-56.5 316.5,-56.5"/>
<text text-anchor="start" x="324.5" y="-74.5" font-family="Helvetica,sans-Serif" font-size="10.00">emlabcpp/experimental</text>
<text text-anchor="middle" x="383" y="-63.5" font-family="Helvetica,sans-Serif" font-size="10.00">/function_view.h</text>
</a>
</g>
</g>
<!-- Node2&#45;&gt;Node16 -->
<g id="edge8" class="edge">
<title>Node2&#45;&gt;Node16</title>
<path fill="none" stroke="midnightblue" d="M293.04,-123.48C307.66,-115.19 330.37,-102.32 349.31,-91.59"/>
<polygon fill="midnightblue" stroke="midnightblue" points="351.28,-94.5 358.25,-86.52 347.83,-88.41 351.28,-94.5"/>
</g>
<!-- Node3&#45;&gt;Node10 -->
<g id="edge3" class="edge">
<title>Node3&#45;&gt;Node10</title>
<path fill="none" stroke="midnightblue" d="M73.88,-61.98C81.15,-52.96 92.8,-38.52 101.84,-27.31"/>
<polygon fill="midnightblue" stroke="midnightblue" points="104.58,-29.49 108.14,-19.51 99.13,-25.09 104.58,-29.49"/>
</g>
<!-- Node11&#45;&gt;Node12 -->
<g id="edge5" class="edge">
<title>Node11&#45;&gt;Node12</title>
<path fill="none" stroke="midnightblue" d="M298.29,-57.96C301.23,-57.3 304.15,-56.64 307,-56 360.29,-44.05 421.44,-30.74 463.18,-21.72"/>
<polygon fill="midnightblue" stroke="midnightblue" points="464.06,-25.11 473.09,-19.58 462.58,-18.27 464.06,-25.11"/>
</g>
<!-- Node15&#45;&gt;Node12 -->
<g id="edge7" class="edge">
<title>Node15&#45;&gt;Node12</title>
<path fill="none" stroke="midnightblue" d="M513,-61.98C513,-53.58 513,-40.48 513,-29.66"/>
<polygon fill="midnightblue" stroke="midnightblue" points="516.5,-29.51 513,-19.51 509.5,-29.51 516.5,-29.51"/>
</g>
</g>
</svg>
