<?xml version="1.0" encoding="UTF-8" standalone="no"?>
<!DOCTYPE svg PUBLIC "-//W3C//DTD SVG 1.1//EN"
 "http://www.w3.org/Graphics/SVG/1.1/DTD/svg11.dtd">
<!-- Generated by graphviz version 2.43.0 (0)
 -->
<!-- Title: src/sntr/tests/central_sentry_utest.cpp Pages: 1 -->
<svg width="566pt" height="214pt"
 viewBox="0.00 0.00 565.50 214.00" xmlns="http://www.w3.org/2000/svg" xmlns:xlink="http://www.w3.org/1999/xlink">
<g id="graph0" class="graph" transform="scale(1 1) rotate(0) translate(4 210)">
<title>src/sntr/tests/central_sentry_utest.cpp</title>
<!-- Node1 -->
<g id="Node000001" class="node">
<title>Node1</title>
<g id="a_Node000001"><a xlink:title=" ">
<polygon fill="#999999" stroke="#666666" points="357,-206 241,-206 241,-176 357,-176 357,-206"/>
<text text-anchor="start" x="249" y="-194" font-family="Helvetica,sans-Serif" font-size="10.00">src/sntr/tests/central</text>
<text text-anchor="middle" x="299" y="-183" font-family="Helvetica,sans-Serif" font-size="10.00">_sentry_utest.cpp</text>
</a>
</g>
</g>
<!-- Node2 -->
<g id="Node000002" class="node">
<title>Node2</title>
<g id="a_Node000002"><a xlink:href="central__sentry_8hpp.html" target="_top" xlink:title=" ">
<polygon fill="white" stroke="#666666" points="299.5,-140 184.5,-140 184.5,-121 299.5,-121 299.5,-140"/>
<text text-anchor="middle" x="242" y="-128" font-family="Helvetica,sans-Serif" font-size="10.00">../central_sentry.hpp</text>
</a>
</g>
</g>
<!-- Node1&#45;&gt;Node2 -->
<g id="edge1_Node000001_Node000002" class="edge">
<title>Node1&#45;&gt;Node2</title>
<g id="a_edge1_Node000001_Node000002"><a xlink:title=" ">
<path fill="none" stroke="#63b8ff" d="M285.2,-175.84C276.93,-167.35 266.38,-156.52 257.77,-147.69"/>
<polygon fill="#63b8ff" stroke="#63b8ff" points="260.03,-144.99 250.54,-140.27 255.01,-149.87 260.03,-144.99"/>
</a>
</g>
</g>
<!-- Node27 -->
<g id="Node000027" class="node">
<title>Node27</title>
<g id="a_Node000027"><a xlink:title=" ">
<polygon fill="#e0e0e0" stroke="#999999" points="396,-140 318,-140 318,-121 396,-121 396,-140"/>
<text text-anchor="middle" x="357" y="-128" font-family="Helvetica,sans-Serif" font-size="10.00">gtest/gtest.h</text>
</a>
</g>
</g>
<!-- Node1&#45;&gt;Node27 -->
<g id="edge8_Node000001_Node000027" class="edge">
<title>Node1&#45;&gt;Node27</title>
<g id="a_edge8_Node000001_Node000027"><a xlink:title=" ">
<path fill="none" stroke="#63b8ff" d="M313.04,-175.84C321.55,-167.26 332.41,-156.3 341.22,-147.42"/>
<polygon fill="#63b8ff" stroke="#63b8ff" points="343.75,-149.83 348.31,-140.27 338.78,-144.9 343.75,-149.83"/>
</a>
</g>
</g>
<!-- Node3 -->
<g id="Node000003" class="node">
<title>Node3</title>
<g id="a_Node000003"><a xlink:href="interfaces_8hpp.html" target="_top" xlink:title=" ">
<polygon fill="#fff0f0" stroke="red" points="114,-79.5 0,-79.5 0,-60.5 114,-60.5 114,-79.5"/>
<text text-anchor="middle" x="57" y="-67.5" font-family="Helvetica,sans-Serif" font-size="10.00">../drv/interfaces.hpp</text>
</a>
</g>
</g>
<!-- Node2&#45;&gt;Node3 -->
<g id="edge2_Node000002_Node000003" class="edge">
<title>Node2&#45;&gt;Node3</title>
<g id="a_edge2_Node000002_Node000003"><a xlink:title=" ">
<path fill="none" stroke="#63b8ff" d="M215.1,-120.99C183.04,-110.86 129.32,-93.87 93.52,-82.55"/>
<polygon fill="#63b8ff" stroke="#63b8ff" points="94.52,-79.19 83.93,-79.52 92.41,-85.87 94.52,-79.19"/>
</a>
</g>
</g>
<!-- Node20 -->
<g id="Node000020" class="node">
<title>Node20</title>
<g id="a_Node000020"><a xlink:title=" ">
<polygon fill="#e0e0e0" stroke="#999999" points="119,-19 79,-19 79,0 119,0 119,-19"/>
<text text-anchor="middle" x="99" y="-7" font-family="Helvetica,sans-Serif" font-size="10.00">span</text>
</a>
</g>
</g>
<!-- Node2&#45;&gt;Node20 -->
<g id="edge7_Node000002_Node000020" class="edge">
<title>Node2&#45;&gt;Node20</title>
<g id="a_edge7_Node000002_Node000020"><a xlink:title=" ">
<path fill="none" stroke="#63b8ff" d="M222.02,-120.88C205.04,-112.99 180.54,-100.24 162,-85 141.44,-68.09 122.38,-43.87 110.73,-27.68"/>
<polygon fill="#63b8ff" stroke="#63b8ff" points="113.38,-25.37 104.77,-19.2 107.65,-29.39 113.38,-25.37"/>
</a>
</g>
</g>
<!-- Node21 -->
<g id="Node000021" class="node">
<title>Node21</title>
<g id="a_Node000021"><a xlink:href="central__sentry__iface_8hpp.html" target="_top" xlink:title=" ">
<polygon fill="#fff0f0" stroke="red" points="313.5,-79.5 170.5,-79.5 170.5,-60.5 313.5,-60.5 313.5,-79.5"/>
<text text-anchor="middle" x="242" y="-67.5" font-family="Helvetica,sans-Serif" font-size="10.00">./central_sentry_iface.hpp</text>
</a>
</g>
</g>
<!-- Node2&#45;&gt;Node21 -->
<g id="edge4_Node000002_Node000021" class="edge">
<title>Node2&#45;&gt;Node21</title>
<g id="a_edge4_Node000002_Node000021"><a xlink:title=" ">
<path fill="none" stroke="#63b8ff" d="M242,-120.87C242,-112.75 242,-100.31 242,-89.89"/>
<polygon fill="#63b8ff" stroke="#63b8ff" points="245.5,-89.67 242,-79.67 238.5,-89.67 245.5,-89.67"/>
</a>
</g>
</g>
<!-- Node25 -->
<g id="Node000025" class="node">
<title>Node25</title>
<g id="a_Node000025"><a xlink:href="sntr_2record_8hpp.html" target="_top" xlink:title=" ">
<polygon fill="#fff0f0" stroke="red" points="406,-79.5 332,-79.5 332,-60.5 406,-60.5 406,-79.5"/>
<text text-anchor="middle" x="369" y="-67.5" font-family="Helvetica,sans-Serif" font-size="10.00">./record.hpp</text>
</a>
</g>
</g>
<!-- Node2&#45;&gt;Node25 -->
<g id="edge5_Node000002_Node000025" class="edge">
<title>Node2&#45;&gt;Node25</title>
<g id="a_edge5_Node000002_Node000025"><a xlink:title=" ">
<path fill="none" stroke="#63b8ff" d="M260.47,-120.99C281.72,-111.2 316.85,-95.02 341.37,-83.73"/>
<polygon fill="#63b8ff" stroke="#63b8ff" points="342.89,-86.88 350.51,-79.52 339.96,-80.52 342.89,-86.88"/>
</a>
</g>
</g>
<!-- Node26 -->
<g id="Node000026" class="node">
<title>Node26</title>
<g id="a_Node000026"><a xlink:title=" ">
<polygon fill="#e0e0e0" stroke="#999999" points="557.5,-85 424.5,-85 424.5,-55 557.5,-55 557.5,-85"/>
<text text-anchor="start" x="432.5" y="-73" font-family="Helvetica,sans-Serif" font-size="10.00">emlabcpp/experimental</text>
<text text-anchor="middle" x="491" y="-62" font-family="Helvetica,sans-Serif" font-size="10.00">/function_view.h</text>
</a>
</g>
</g>
<!-- Node2&#45;&gt;Node26 -->
<g id="edge6_Node000002_Node000026" class="edge">
<title>Node2&#45;&gt;Node26</title>
<g id="a_edge6_Node000002_Node000026"><a xlink:title=" ">
<path fill="none" stroke="#63b8ff" d="M278.21,-120.99C315.53,-112.23 374.66,-98.33 421.13,-87.42"/>
<polygon fill="#63b8ff" stroke="#63b8ff" points="422.2,-90.76 431.14,-85.06 420.6,-83.94 422.2,-90.76"/>
</a>
</g>
</g>
<!-- Node3&#45;&gt;Node20 -->
<g id="edge3_Node000003_Node000020" class="edge">
<title>Node3&#45;&gt;Node20</title>
<g id="a_edge3_Node000003_Node000020"><a xlink:title=" ">
<path fill="none" stroke="#63b8ff" d="M63.2,-60.37C69.4,-51.73 79.11,-38.2 86.86,-27.42"/>
<polygon fill="#63b8ff" stroke="#63b8ff" points="89.79,-29.33 92.78,-19.17 84.1,-25.25 89.79,-29.33"/>
</a>
</g>
</g>
</g>
</svg>
