<?xml version="1.0" encoding="UTF-8" standalone="no"?>
<!DOCTYPE svg PUBLIC "-//W3C//DTD SVG 1.1//EN"
 "http://www.w3.org/Graphics/SVG/1.1/DTD/svg11.dtd">
<!-- Generated by graphviz version 2.43.0 (0)
 -->
<!-- Title: src/sntr/central_sentry.hpp Pages: 1 -->
<svg width="543pt" height="263pt"
 viewBox="0.00 0.00 542.50 263.00" xmlns="http://www.w3.org/2000/svg" xmlns:xlink="http://www.w3.org/1999/xlink">
<g id="graph0" class="graph" transform="scale(1 1) rotate(0) translate(4 259)">
<title>src/sntr/central_sentry.hpp</title>
<polygon fill="white" stroke="transparent" points="-4,4 -4,-259 538.5,-259 538.5,4 -4,4"/>
<!-- Node1 -->
<g id="node1" class="node">
<title>Node1</title>
<g id="a_node1"><a xlink:title=" ">
<polygon fill="#bfbfbf" stroke="black" points="192.5,-235.5 192.5,-254.5 337.5,-254.5 337.5,-235.5 192.5,-235.5"/>
<text text-anchor="middle" x="265" y="-242.5" font-family="Helvetica,sans-Serif" font-size="10.00">src/sntr/central_sentry.hpp</text>
</a>
</g>
</g>
<!-- Node2 -->
<g id="node2" class="node">
<title>Node2</title>
<g id="a_node2"><a xlink:href="drv__interfaces_8hpp.html" target="_top" xlink:title=" ">
<polygon fill="white" stroke="black" points="65,-174 65,-193 199,-193 199,-174 65,-174"/>
<text text-anchor="middle" x="132" y="-181" font-family="Helvetica,sans-Serif" font-size="10.00">base/drv_interfaces.hpp</text>
</a>
</g>
</g>
<!-- Node1&#45;&gt;Node2 -->
<g id="edge1" class="edge">
<title>Node1&#45;&gt;Node2</title>
<path fill="none" stroke="midnightblue" d="M245.94,-235.48C223.53,-225.45 186.09,-208.7 160.29,-197.15"/>
<polygon fill="midnightblue" stroke="midnightblue" points="161.58,-193.9 151.02,-193.01 158.72,-200.29 161.58,-193.9"/>
</g>
<!-- Node9 -->
<g id="node6" class="node">
<title>Node9</title>
<g id="a_node6"><a xlink:title=" ">
<polygon fill="white" stroke="#bfbfbf" points="205,-112.5 205,-131.5 245,-131.5 245,-112.5 205,-112.5"/>
<text text-anchor="middle" x="225" y="-119.5" font-family="Helvetica,sans-Serif" font-size="10.00">span</text>
</a>
</g>
</g>
<!-- Node1&#45;&gt;Node9 -->
<g id="edge15" class="edge">
<title>Node1&#45;&gt;Node9</title>
<path fill="none" stroke="midnightblue" d="M262.12,-235.3C255.64,-215.68 239.76,-167.64 231.01,-141.19"/>
<polygon fill="midnightblue" stroke="midnightblue" points="234.31,-140.02 227.85,-131.62 227.67,-142.22 234.31,-140.02"/>
</g>
<!-- Node10 -->
<g id="node7" class="node">
<title>Node10</title>
<g id="a_node7"><a xlink:href="sntr_2base_8hpp.html" target="_top" xlink:title=" ">
<polygon fill="white" stroke="black" points="271.5,-112.5 271.5,-131.5 354.5,-131.5 354.5,-112.5 271.5,-112.5"/>
<text text-anchor="middle" x="313" y="-119.5" font-family="Helvetica,sans-Serif" font-size="10.00">sntr/base.hpp</text>
</a>
</g>
</g>
<!-- Node1&#45;&gt;Node10 -->
<g id="edge7" class="edge">
<title>Node1&#45;&gt;Node10</title>
<path fill="none" stroke="midnightblue" d="M266.23,-235.27C268.47,-220.81 273.95,-191.21 284,-168 288.24,-158.21 294.51,-148.15 300.13,-140.03"/>
<polygon fill="midnightblue" stroke="midnightblue" points="303.06,-141.97 306.07,-131.81 297.38,-137.87 303.06,-141.97"/>
</g>
<!-- Node13 -->
<g id="node10" class="node">
<title>Node13</title>
<g id="a_node10"><a xlink:href="record_8hpp.html" target="_top" xlink:title=" ">
<polygon fill="white" stroke="black" points="293,-174 293,-193 383,-193 383,-174 293,-174"/>
<text text-anchor="middle" x="338" y="-181" font-family="Helvetica,sans-Serif" font-size="10.00">sntr/record.hpp</text>
</a>
</g>
</g>
<!-- Node1&#45;&gt;Node13 -->
<g id="edge12" class="edge">
<title>Node1&#45;&gt;Node13</title>
<path fill="none" stroke="midnightblue" d="M275.46,-235.48C286.95,-226.11 305.63,-210.88 319.59,-199.51"/>
<polygon fill="midnightblue" stroke="midnightblue" points="322.02,-202.04 327.56,-193.01 317.6,-196.61 322.02,-202.04"/>
</g>
<!-- Node14 -->
<g id="node11" class="node">
<title>Node14</title>
<g id="a_node11"><a xlink:title=" ">
<polygon fill="white" stroke="#bfbfbf" points="401.5,-168.5 401.5,-198.5 534.5,-198.5 534.5,-168.5 401.5,-168.5"/>
<text text-anchor="start" x="409.5" y="-186.5" font-family="Helvetica,sans-Serif" font-size="10.00">emlabcpp/experimental</text>
<text text-anchor="middle" x="468" y="-175.5" font-family="Helvetica,sans-Serif" font-size="10.00">/function_view.h</text>
</a>
</g>
</g>
<!-- Node1&#45;&gt;Node14 -->
<g id="edge14" class="edge">
<title>Node1&#45;&gt;Node14</title>
<path fill="none" stroke="midnightblue" d="M294.08,-235.48C324.28,-226.63 372.3,-212.55 410.25,-201.43"/>
<polygon fill="midnightblue" stroke="midnightblue" points="411.55,-204.69 420.16,-198.52 409.58,-197.98 411.55,-204.69"/>
</g>
<!-- Node3 -->
<g id="node3" class="node">
<title>Node3</title>
<g id="a_node3"><a xlink:href="base_2base_8hpp.html" target="_top" xlink:title=" ">
<polygon fill="white" stroke="red" points="160.5,-56.5 160.5,-75.5 221.5,-75.5 221.5,-56.5 160.5,-56.5"/>
<text text-anchor="middle" x="191" y="-63.5" font-family="Helvetica,sans-Serif" font-size="10.00">base.hpp</text>
</a>
</g>
</g>
<!-- Node2&#45;&gt;Node3 -->
<g id="edge2" class="edge">
<title>Node2&#45;&gt;Node3</title>
<path fill="none" stroke="midnightblue" d="M136.43,-173.82C146.04,-155.01 168.96,-110.15 181.83,-84.96"/>
<polygon fill="midnightblue" stroke="midnightblue" points="185.08,-86.28 186.51,-75.78 178.85,-83.1 185.08,-86.28"/>
</g>
<!-- Node5 -->
<g id="node4" class="node">
<title>Node5</title>
<g id="a_node4"><a xlink:title=" ">
<polygon fill="white" stroke="#bfbfbf" points="166,-0.5 166,-19.5 216,-19.5 216,-0.5 166,-0.5"/>
<text text-anchor="middle" x="191" y="-7.5" font-family="Helvetica,sans-Serif" font-size="10.00">cstdint</text>
</a>
</g>
</g>
<!-- Node2&#45;&gt;Node5 -->
<g id="edge4" class="edge">
<title>Node2&#45;&gt;Node5</title>
<path fill="none" stroke="midnightblue" d="M131.65,-173.73C131.14,-152.45 131.88,-96.83 151,-56 156.12,-45.07 164.76,-34.84 172.71,-26.91"/>
<polygon fill="midnightblue" stroke="midnightblue" points="175.38,-29.2 180.26,-19.8 170.58,-24.1 175.38,-29.2"/>
</g>
<!-- Node8 -->
<g id="node5" class="node">
<title>Node8</title>
<g id="a_node5"><a xlink:title=" ">
<polygon fill="white" stroke="#bfbfbf" points="0,-112.5 0,-131.5 104,-131.5 104,-112.5 0,-112.5"/>
<text text-anchor="middle" x="52" y="-119.5" font-family="Helvetica,sans-Serif" font-size="10.00">emlabcpp/result.h</text>
</a>
</g>
</g>
<!-- Node2&#45;&gt;Node8 -->
<g id="edge5" class="edge">
<title>Node2&#45;&gt;Node8</title>
<path fill="none" stroke="midnightblue" d="M120.54,-173.98C107.83,-164.52 87.09,-149.1 71.75,-137.69"/>
<polygon fill="midnightblue" stroke="midnightblue" points="73.55,-134.67 63.44,-131.51 69.38,-140.29 73.55,-134.67"/>
</g>
<!-- Node2&#45;&gt;Node9 -->
<g id="edge6" class="edge">
<title>Node2&#45;&gt;Node9</title>
<path fill="none" stroke="midnightblue" d="M145.32,-173.98C160.38,-164.34 185.12,-148.52 203.04,-137.05"/>
<polygon fill="midnightblue" stroke="midnightblue" points="205.16,-139.85 211.7,-131.51 201.39,-133.95 205.16,-139.85"/>
</g>
<!-- Node3&#45;&gt;Node5 -->
<g id="edge3" class="edge">
<title>Node3&#45;&gt;Node5</title>
<path fill="none" stroke="midnightblue" d="M191,-56.08C191,-49.01 191,-38.86 191,-29.99"/>
<polygon fill="midnightblue" stroke="midnightblue" points="194.5,-29.75 191,-19.75 187.5,-29.75 194.5,-29.75"/>
</g>
<!-- Node10&#45;&gt;Node3 -->
<g id="edge8" class="edge">
<title>Node10&#45;&gt;Node3</title>
<path fill="none" stroke="midnightblue" d="M293.67,-112.44C273.68,-103.6 242.26,-89.69 219.44,-79.59"/>
<polygon fill="midnightblue" stroke="midnightblue" points="220.8,-76.36 210.24,-75.52 217.97,-82.76 220.8,-76.36"/>
</g>
<!-- Node10&#45;&gt;Node5 -->
<g id="edge10" class="edge">
<title>Node10&#45;&gt;Node5</title>
<path fill="none" stroke="midnightblue" d="M313.52,-112.34C313.87,-98.76 312.59,-72.33 299,-56 280.81,-34.14 250.21,-22.73 226.22,-16.88"/>
<polygon fill="midnightblue" stroke="midnightblue" points="226.92,-13.45 216.4,-14.7 225.4,-20.28 226.92,-13.45"/>
</g>
<!-- Node11 -->
<g id="node8" class="node">
<title>Node11</title>
<g id="a_node8"><a xlink:title=" ">
<polygon fill="white" stroke="#bfbfbf" points="347,-56.5 347,-75.5 391,-75.5 391,-56.5 347,-56.5"/>
<text text-anchor="middle" x="369" y="-63.5" font-family="Helvetica,sans-Serif" font-size="10.00">bitset</text>
</a>
</g>
</g>
<!-- Node10&#45;&gt;Node11 -->
<g id="edge9" class="edge">
<title>Node10&#45;&gt;Node11</title>
<path fill="none" stroke="midnightblue" d="M322,-112.32C330.19,-104.42 342.51,-92.55 352.47,-82.94"/>
<polygon fill="midnightblue" stroke="midnightblue" points="355.07,-85.29 359.84,-75.83 350.21,-80.26 355.07,-85.29"/>
</g>
<!-- Node12 -->
<g id="node9" class="node">
<title>Node12</title>
<g id="a_node9"><a xlink:title=" ">
<polygon fill="white" stroke="#bfbfbf" points="239.5,-56.5 239.5,-75.5 290.5,-75.5 290.5,-56.5 239.5,-56.5"/>
<text text-anchor="middle" x="265" y="-63.5" font-family="Helvetica,sans-Serif" font-size="10.00">variant</text>
</a>
</g>
</g>
<!-- Node10&#45;&gt;Node12 -->
<g id="edge11" class="edge">
<title>Node10&#45;&gt;Node12</title>
<path fill="none" stroke="midnightblue" d="M305.07,-112.08C298.15,-104.3 287.93,-92.8 279.55,-83.37"/>
<polygon fill="midnightblue" stroke="midnightblue" points="282.04,-80.9 272.78,-75.75 276.81,-85.55 282.04,-80.9"/>
</g>
<!-- Node13&#45;&gt;Node10 -->
<g id="edge13" class="edge">
<title>Node13&#45;&gt;Node10</title>
<path fill="none" stroke="midnightblue" d="M334.42,-173.98C330.82,-165.4 325.15,-151.93 320.56,-140.98"/>
<polygon fill="midnightblue" stroke="midnightblue" points="323.68,-139.37 316.58,-131.51 317.22,-142.08 323.68,-139.37"/>
</g>
</g>
</svg>
