<?xml version="1.0" encoding="UTF-8" standalone="no"?>
<!DOCTYPE svg PUBLIC "-//W3C//DTD SVG 1.1//EN"
 "http://www.w3.org/Graphics/SVG/1.1/DTD/svg11.dtd">
<!-- Generated by graphviz version 2.43.0 (0)
 -->
<!-- Title: src/sntr/central_sentry.hpp Pages: 1 -->
<svg width="652pt" height="258pt"
 viewBox="0.00 0.00 652.32 258.00" xmlns="http://www.w3.org/2000/svg" xmlns:xlink="http://www.w3.org/1999/xlink">
<g id="graph0" class="graph" transform="scale(1 1) rotate(0) translate(4 254)">
<title>src/sntr/central_sentry.hpp</title>
<!-- Node1 -->
<g id="Node000001" class="node">
<title>Node1</title>
<g id="a_Node000001"><a xlink:title=" ">
<polygon fill="#999999" stroke="#666666" points="401.32,-250 256.32,-250 256.32,-231 401.32,-231 401.32,-250"/>
<text text-anchor="middle" x="328.82" y="-238" font-family="Helvetica,sans-Serif" font-size="10.00">src/sntr/central_sentry.hpp</text>
</a>
</g>
</g>
<!-- Node2 -->
<g id="Node000002" class="node">
<title>Node2</title>
<g id="a_Node000002"><a xlink:href="interfaces_8hpp.html" target="_top" xlink:title=" ">
<polygon fill="white" stroke="#666666" points="192.82,-189.5 78.82,-189.5 78.82,-170.5 192.82,-170.5 192.82,-189.5"/>
<text text-anchor="middle" x="135.82" y="-177.5" font-family="Helvetica,sans-Serif" font-size="10.00">../drv/interfaces.hpp</text>
</a>
</g>
</g>
<!-- Node1&#45;&gt;Node2 -->
<g id="edge1_Node000001_Node000002" class="edge">
<title>Node1&#45;&gt;Node2</title>
<g id="a_edge1_Node000001_Node000002"><a xlink:title=" ">
<path fill="none" stroke="#63b8ff" d="M300.76,-230.99C267.31,-220.86 211.26,-203.87 173.92,-192.55"/>
<polygon fill="#63b8ff" stroke="#63b8ff" points="174.5,-189.07 163.92,-189.52 172.47,-195.77 174.5,-189.07"/>
</a>
</g>
</g>
<!-- Node15 -->
<g id="Node000015" class="node">
<title>Node15</title>
<g id="a_Node000015"><a xlink:title=" ">
<polygon fill="#e0e0e0" stroke="#999999" points="285.82,-129 245.82,-129 245.82,-110 285.82,-110 285.82,-129"/>
<text text-anchor="middle" x="265.82" y="-117" font-family="Helvetica,sans-Serif" font-size="10.00">span</text>
</a>
</g>
</g>
<!-- Node1&#45;&gt;Node15 -->
<g id="edge16_Node000001_Node000015" class="edge">
<title>Node1&#45;&gt;Node15</title>
<g id="a_edge16_Node000001_Node000015"><a xlink:title=" ">
<path fill="none" stroke="#63b8ff" d="M297.77,-230.87C280.07,-224.18 259.37,-212.95 248.82,-195 238.46,-177.39 246.72,-154 254.95,-138.16"/>
<polygon fill="#63b8ff" stroke="#63b8ff" points="258.03,-139.82 259.9,-129.39 251.93,-136.38 258.03,-139.82"/>
</a>
</g>
</g>
<!-- Node16 -->
<g id="Node000016" class="node">
<title>Node16</title>
<g id="a_Node000016"><a xlink:href="central__sentry__iface_8hpp.html" target="_top" xlink:title=" ">
<polygon fill="white" stroke="#666666" points="400.32,-189.5 257.32,-189.5 257.32,-170.5 400.32,-170.5 400.32,-189.5"/>
<text text-anchor="middle" x="328.82" y="-177.5" font-family="Helvetica,sans-Serif" font-size="10.00">./central_sentry_iface.hpp</text>
</a>
</g>
</g>
<!-- Node1&#45;&gt;Node16 -->
<g id="edge9_Node000001_Node000016" class="edge">
<title>Node1&#45;&gt;Node16</title>
<g id="a_edge9_Node000001_Node000016"><a xlink:title=" ">
<path fill="none" stroke="#63b8ff" d="M328.82,-230.87C328.82,-222.75 328.82,-210.31 328.82,-199.89"/>
<polygon fill="#63b8ff" stroke="#63b8ff" points="332.32,-199.67 328.82,-189.67 325.32,-199.67 332.32,-199.67"/>
</a>
</g>
</g>
<!-- Node20 -->
<g id="Node000020" class="node">
<title>Node20</title>
<g id="a_Node000020"><a xlink:href="record_8hpp.html" target="_top" xlink:title=" ">
<polygon fill="white" stroke="#666666" points="492.82,-189.5 418.82,-189.5 418.82,-170.5 492.82,-170.5 492.82,-189.5"/>
<text text-anchor="middle" x="455.82" y="-177.5" font-family="Helvetica,sans-Serif" font-size="10.00">./record.hpp</text>
</a>
</g>
</g>
<!-- Node1&#45;&gt;Node20 -->
<g id="edge13_Node000001_Node000020" class="edge">
<title>Node1&#45;&gt;Node20</title>
<g id="a_edge13_Node000001_Node000020"><a xlink:title=" ">
<path fill="none" stroke="#63b8ff" d="M347.29,-230.99C368.54,-221.2 403.67,-205.02 428.19,-193.73"/>
<polygon fill="#63b8ff" stroke="#63b8ff" points="429.71,-196.88 437.33,-189.52 426.78,-190.52 429.71,-196.88"/>
</a>
</g>
</g>
<!-- Node21 -->
<g id="Node000021" class="node">
<title>Node21</title>
<g id="a_Node000021"><a xlink:title=" ">
<polygon fill="#e0e0e0" stroke="#999999" points="644.32,-195 511.32,-195 511.32,-165 644.32,-165 644.32,-195"/>
<text text-anchor="start" x="519.32" y="-183" font-family="Helvetica,sans-Serif" font-size="10.00">emlabcpp/experimental</text>
<text text-anchor="middle" x="577.82" y="-172" font-family="Helvetica,sans-Serif" font-size="10.00">/function_view.h</text>
</a>
</g>
</g>
<!-- Node1&#45;&gt;Node21 -->
<g id="edge15_Node000001_Node000021" class="edge">
<title>Node1&#45;&gt;Node21</title>
<g id="a_edge15_Node000001_Node000021"><a xlink:title=" ">
<path fill="none" stroke="#63b8ff" d="M365.03,-230.99C402.35,-222.23 461.48,-208.33 507.95,-197.42"/>
<polygon fill="#63b8ff" stroke="#63b8ff" points="509.02,-200.76 517.96,-195.06 507.42,-193.94 509.02,-200.76"/>
</a>
</g>
</g>
<!-- Node3 -->
<g id="Node000003" class="node">
<title>Node3</title>
<g id="a_Node000003"><a xlink:href="base_8hpp.html" target="_top" xlink:title=" ">
<polygon fill="#fff0f0" stroke="red" points="222.82,-74 152.82,-74 152.82,-55 222.82,-55 222.82,-74"/>
<text text-anchor="middle" x="187.82" y="-62" font-family="Helvetica,sans-Serif" font-size="10.00">../base.hpp</text>
</a>
</g>
</g>
<!-- Node2&#45;&gt;Node3 -->
<g id="edge2_Node000002_Node000003" class="edge">
<title>Node2&#45;&gt;Node3</title>
<g id="a_edge2_Node000002_Node000003"><a xlink:title=" ">
<path fill="none" stroke="#63b8ff" d="M134.18,-170.44C132,-156.88 129.45,-129.98 138.82,-110 144.48,-97.93 155.07,-87.66 164.97,-80.04"/>
<polygon fill="#63b8ff" stroke="#63b8ff" points="167.25,-82.71 173.34,-74.04 163.17,-77.02 167.25,-82.71"/>
</a>
</g>
</g>
<!-- Node5 -->
<g id="Node000005" class="node">
<title>Node5</title>
<g id="a_Node000005"><a xlink:title=" ">
<polygon fill="#e0e0e0" stroke="#999999" points="212.82,-19 162.82,-19 162.82,0 212.82,0 212.82,-19"/>
<text text-anchor="middle" x="187.82" y="-7" font-family="Helvetica,sans-Serif" font-size="10.00">cstdint</text>
</a>
</g>
</g>
<!-- Node2&#45;&gt;Node5 -->
<g id="edge7_Node000002_Node000005" class="edge">
<title>Node2&#45;&gt;Node5</title>
<g id="a_edge7_Node000002_Node000005"><a xlink:title=" ">
<path fill="none" stroke="#63b8ff" d="M78.64,-170.72C34.78,-161.61 -15.15,-143.58 4.82,-110 36.81,-56.19 109.23,-29.65 152.76,-18.11"/>
<polygon fill="#63b8ff" stroke="#63b8ff" points="153.8,-21.46 162.64,-15.62 152.08,-14.67 153.8,-21.46"/>
</a>
</g>
</g>
<!-- Node9 -->
<g id="Node000009" class="node">
<title>Node9</title>
<g id="a_Node000009"><a xlink:href="cfg_2def_8hpp.html" target="_top" xlink:title=" ">
<polygon fill="#fff0f0" stroke="red" points="227.82,-129 147.82,-129 147.82,-110 227.82,-110 227.82,-129"/>
<text text-anchor="middle" x="187.82" y="-117" font-family="Helvetica,sans-Serif" font-size="10.00">../cfg/def.hpp</text>
</a>
</g>
</g>
<!-- Node2&#45;&gt;Node9 -->
<g id="edge4_Node000002_Node000009" class="edge">
<title>Node2&#45;&gt;Node9</title>
<g id="a_edge4_Node000002_Node000009"><a xlink:title=" ">
<path fill="none" stroke="#63b8ff" d="M143.49,-170.37C151.33,-161.55 163.68,-147.66 173.36,-136.77"/>
<polygon fill="#63b8ff" stroke="#63b8ff" points="176.09,-138.97 180.12,-129.17 170.86,-134.32 176.09,-138.97"/>
</a>
</g>
</g>
<!-- Node12 -->
<g id="Node000012" class="node">
<title>Node12</title>
<g id="a_Node000012"><a xlink:href="status_8hpp.html" target="_top" xlink:title=" ">
<polygon fill="#fff0f0" stroke="red" points="91.32,-129 14.32,-129 14.32,-110 91.32,-110 91.32,-129"/>
<text text-anchor="middle" x="52.82" y="-117" font-family="Helvetica,sans-Serif" font-size="10.00">../status.hpp</text>
</a>
</g>
</g>
<!-- Node2&#45;&gt;Node12 -->
<g id="edge6_Node000002_Node000012" class="edge">
<title>Node2&#45;&gt;Node12</title>
<g id="a_edge6_Node000002_Node000012"><a xlink:title=" ">
<path fill="none" stroke="#63b8ff" d="M123.57,-170.37C110.45,-161.12 89.4,-146.28 73.67,-135.19"/>
<polygon fill="#63b8ff" stroke="#63b8ff" points="75.31,-132.07 65.12,-129.17 71.27,-137.79 75.31,-132.07"/>
</a>
</g>
</g>
<!-- Node2&#45;&gt;Node15 -->
<g id="edge8_Node000002_Node000015" class="edge">
<title>Node2&#45;&gt;Node15</title>
<g id="a_edge8_Node000002_Node000015"><a xlink:title=" ">
<path fill="none" stroke="#63b8ff" d="M154.72,-170.49C176.48,-160.7 212.44,-144.52 237.53,-133.23"/>
<polygon fill="#63b8ff" stroke="#63b8ff" points="239.21,-136.31 246.89,-129.02 236.34,-129.93 239.21,-136.31"/>
</a>
</g>
</g>
<!-- Node3&#45;&gt;Node5 -->
<g id="edge3_Node000003_Node000005" class="edge">
<title>Node3&#45;&gt;Node5</title>
<g id="a_edge3_Node000003_Node000005"><a xlink:title=" ">
<path fill="none" stroke="#63b8ff" d="M187.82,-54.75C187.82,-47.8 187.82,-37.85 187.82,-29.13"/>
<polygon fill="#63b8ff" stroke="#63b8ff" points="191.32,-29.09 187.82,-19.09 184.32,-29.09 191.32,-29.09"/>
</a>
</g>
</g>
<!-- Node9&#45;&gt;Node3 -->
<g id="edge5_Node000009_Node000003" class="edge">
<title>Node9&#45;&gt;Node3</title>
<g id="a_edge5_Node000009_Node000003"><a xlink:title=" ">
<path fill="none" stroke="#63b8ff" d="M187.82,-109.75C187.82,-102.8 187.82,-92.85 187.82,-84.13"/>
<polygon fill="#63b8ff" stroke="#63b8ff" points="191.32,-84.09 187.82,-74.09 184.32,-84.09 191.32,-84.09"/>
</a>
</g>
</g>
<!-- Node17 -->
<g id="Node000017" class="node">
<title>Node17</title>
<g id="a_Node000017"><a xlink:href="sntr_2base_8hpp.html" target="_top" xlink:title=" ">
<polygon fill="#fff0f0" stroke="red" points="371.32,-129 304.32,-129 304.32,-110 371.32,-110 371.32,-129"/>
<text text-anchor="middle" x="337.82" y="-117" font-family="Helvetica,sans-Serif" font-size="10.00">./base.hpp</text>
</a>
</g>
</g>
<!-- Node16&#45;&gt;Node17 -->
<g id="edge10_Node000016_Node000017" class="edge">
<title>Node16&#45;&gt;Node17</title>
<g id="a_edge10_Node000016_Node000017"><a xlink:title=" ">
<path fill="none" stroke="#63b8ff" d="M330.15,-170.37C331.41,-162.16 333.35,-149.54 334.97,-139.05"/>
<polygon fill="#63b8ff" stroke="#63b8ff" points="338.43,-139.58 336.49,-129.17 331.51,-138.52 338.43,-139.58"/>
</a>
</g>
</g>
<!-- Node17&#45;&gt;Node3 -->
<g id="edge11_Node000017_Node000003" class="edge">
<title>Node17&#45;&gt;Node3</title>
<g id="a_edge11_Node000017_Node000003"><a xlink:title=" ">
<path fill="none" stroke="#63b8ff" d="M313.72,-109.98C288.94,-101.23 250.12,-87.51 222.13,-77.62"/>
<polygon fill="#63b8ff" stroke="#63b8ff" points="222.95,-74.2 212.36,-74.17 220.62,-80.8 222.95,-74.2"/>
</a>
</g>
</g>
<!-- Node17&#45;&gt;Node5 -->
<g id="edge12_Node000017_Node000005" class="edge">
<title>Node17&#45;&gt;Node5</title>
<g id="a_edge12_Node000017_Node000005"><a xlink:title=" ">
<path fill="none" stroke="#63b8ff" d="M325.8,-109.84C300.13,-91.36 239.71,-47.86 208.02,-25.05"/>
<polygon fill="#63b8ff" stroke="#63b8ff" points="210.06,-22.2 199.9,-19.2 205.97,-27.88 210.06,-22.2"/>
</a>
</g>
</g>
<!-- Node20&#45;&gt;Node17 -->
<g id="edge14_Node000020_Node000017" class="edge">
<title>Node20&#45;&gt;Node17</title>
<g id="a_edge14_Node000020_Node000017"><a xlink:title=" ">
<path fill="none" stroke="#63b8ff" d="M438.66,-170.49C419.09,-160.79 386.85,-144.81 364.1,-133.53"/>
<polygon fill="#63b8ff" stroke="#63b8ff" points="365.51,-130.32 355,-129.02 362.4,-136.59 365.51,-130.32"/>
</a>
</g>
</g>
</g>
</svg>
