<?xml version="1.0" encoding="UTF-8" standalone="no"?>
<!DOCTYPE svg PUBLIC "-//W3C//DTD SVG 1.1//EN"
 "http://www.w3.org/Graphics/SVG/1.1/DTD/svg11.dtd">
<!-- Generated by graphviz version 2.43.0 (0)
 -->
<!-- Title: src/sntr/tests/central_sentry_utest.cpp Pages: 1 -->
<svg width="566pt" height="218pt"
 viewBox="0.00 0.00 565.50 218.00" xmlns="http://www.w3.org/2000/svg" xmlns:xlink="http://www.w3.org/1999/xlink">
<g id="graph0" class="graph" transform="scale(1 1) rotate(0) translate(4 214)">
<title>src/sntr/tests/central_sentry_utest.cpp</title>
<polygon fill="white" stroke="transparent" points="-4,4 -4,-214 561.5,-214 561.5,4 -4,4"/>
<!-- Node1 -->
<g id="node1" class="node">
<title>Node1</title>
<g id="a_node1"><a xlink:title=" ">
<polygon fill="#bfbfbf" stroke="black" points="241,-179.5 241,-209.5 357,-209.5 357,-179.5 241,-179.5"/>
<text text-anchor="start" x="249" y="-197.5" font-family="Helvetica,sans-Serif" font-size="10.00">src/sntr/tests/central</text>
<text text-anchor="middle" x="299" y="-186.5" font-family="Helvetica,sans-Serif" font-size="10.00">_sentry_utest.cpp</text>
</a>
</g>
</g>
<!-- Node2 -->
<g id="node2" class="node">
<title>Node2</title>
<g id="a_node2"><a xlink:href="central__sentry_8hpp.html" target="_top" xlink:title=" ">
<polygon fill="white" stroke="black" points="184.5,-123.5 184.5,-142.5 299.5,-142.5 299.5,-123.5 184.5,-123.5"/>
<text text-anchor="middle" x="242" y="-130.5" font-family="Helvetica,sans-Serif" font-size="10.00">../central_sentry.hpp</text>
</a>
</g>
</g>
<!-- Node1&#45;&gt;Node2 -->
<g id="edge1" class="edge">
<title>Node1&#45;&gt;Node2</title>
<path fill="none" stroke="midnightblue" d="M285.49,-179.4C277.04,-170.58 266.12,-159.18 257.34,-150.02"/>
<polygon fill="midnightblue" stroke="midnightblue" points="259.74,-147.46 250.29,-142.66 254.68,-152.3 259.74,-147.46"/>
</g>
<!-- Node26 -->
<g id="node8" class="node">
<title>Node26</title>
<g id="a_node8"><a xlink:title=" ">
<polygon fill="white" stroke="#bfbfbf" points="318,-123.5 318,-142.5 396,-142.5 396,-123.5 318,-123.5"/>
<text text-anchor="middle" x="357" y="-130.5" font-family="Helvetica,sans-Serif" font-size="10.00">gtest/gtest.h</text>
</a>
</g>
</g>
<!-- Node1&#45;&gt;Node26 -->
<g id="edge8" class="edge">
<title>Node1&#45;&gt;Node26</title>
<path fill="none" stroke="midnightblue" d="M312.75,-179.4C321.35,-170.58 332.45,-159.18 341.39,-150.02"/>
<polygon fill="midnightblue" stroke="midnightblue" points="344.09,-152.26 348.56,-142.66 339.07,-147.38 344.09,-152.26"/>
</g>
<!-- Node3 -->
<g id="node3" class="node">
<title>Node3</title>
<g id="a_node3"><a xlink:href="interfaces_8hpp.html" target="_top" xlink:title=" ">
<polygon fill="white" stroke="red" points="0,-62 0,-81 114,-81 114,-62 0,-62"/>
<text text-anchor="middle" x="57" y="-69" font-family="Helvetica,sans-Serif" font-size="10.00">../drv/interfaces.hpp</text>
</a>
</g>
</g>
<!-- Node2&#45;&gt;Node3 -->
<g id="edge2" class="edge">
<title>Node2&#45;&gt;Node3</title>
<path fill="none" stroke="midnightblue" d="M215.49,-123.48C183.35,-113.14 129.01,-95.66 93.07,-84.1"/>
<polygon fill="midnightblue" stroke="midnightblue" points="94.05,-80.74 83.46,-81.01 91.9,-87.4 94.05,-80.74"/>
</g>
<!-- Node19 -->
<g id="node4" class="node">
<title>Node19</title>
<g id="a_node4"><a xlink:title=" ">
<polygon fill="white" stroke="#bfbfbf" points="79,-0.5 79,-19.5 119,-19.5 119,-0.5 79,-0.5"/>
<text text-anchor="middle" x="99" y="-7.5" font-family="Helvetica,sans-Serif" font-size="10.00">span</text>
</a>
</g>
</g>
<!-- Node2&#45;&gt;Node19 -->
<g id="edge7" class="edge">
<title>Node2&#45;&gt;Node19</title>
<path fill="none" stroke="midnightblue" d="M222.33,-123.44C205.31,-115.48 180.6,-102.52 162,-87 141.32,-69.74 122.29,-45.03 110.68,-28.52"/>
<polygon fill="midnightblue" stroke="midnightblue" points="113.28,-26.13 104.74,-19.87 107.51,-30.09 113.28,-26.13"/>
</g>
<!-- Node20 -->
<g id="node5" class="node">
<title>Node20</title>
<g id="a_node5"><a xlink:href="central__sentry__iface_8hpp.html" target="_top" xlink:title=" ">
<polygon fill="white" stroke="red" points="170.5,-62 170.5,-81 313.5,-81 313.5,-62 170.5,-62"/>
<text text-anchor="middle" x="242" y="-69" font-family="Helvetica,sans-Serif" font-size="10.00">./central_sentry_iface.hpp</text>
</a>
</g>
</g>
<!-- Node2&#45;&gt;Node20 -->
<g id="edge4" class="edge">
<title>Node2&#45;&gt;Node20</title>
<path fill="none" stroke="midnightblue" d="M242,-123.48C242,-115.08 242,-101.98 242,-91.16"/>
<polygon fill="midnightblue" stroke="midnightblue" points="245.5,-91.01 242,-81.01 238.5,-91.01 245.5,-91.01"/>
</g>
<!-- Node24 -->
<g id="node6" class="node">
<title>Node24</title>
<g id="a_node6"><a xlink:href="record_8hpp.html" target="_top" xlink:title=" ">
<polygon fill="white" stroke="red" points="332,-62 332,-81 406,-81 406,-62 332,-62"/>
<text text-anchor="middle" x="369" y="-69" font-family="Helvetica,sans-Serif" font-size="10.00">./record.hpp</text>
</a>
</g>
</g>
<!-- Node2&#45;&gt;Node24 -->
<g id="edge5" class="edge">
<title>Node2&#45;&gt;Node24</title>
<path fill="none" stroke="midnightblue" d="M260.2,-123.48C281.51,-113.49 317.03,-96.85 341.66,-85.31"/>
<polygon fill="midnightblue" stroke="midnightblue" points="343.27,-88.42 350.84,-81.01 340.3,-82.08 343.27,-88.42"/>
</g>
<!-- Node25 -->
<g id="node7" class="node">
<title>Node25</title>
<g id="a_node7"><a xlink:title=" ">
<polygon fill="white" stroke="#bfbfbf" points="424.5,-56.5 424.5,-86.5 557.5,-86.5 557.5,-56.5 424.5,-56.5"/>
<text text-anchor="start" x="432.5" y="-74.5" font-family="Helvetica,sans-Serif" font-size="10.00">emlabcpp/experimental</text>
<text text-anchor="middle" x="491" y="-63.5" font-family="Helvetica,sans-Serif" font-size="10.00">/function_view.h</text>
</a>
</g>
</g>
<!-- Node2&#45;&gt;Node25 -->
<g id="edge6" class="edge">
<title>Node2&#45;&gt;Node25</title>
<path fill="none" stroke="midnightblue" d="M277.68,-123.48C315.34,-114.48 375.63,-100.07 422.53,-88.86"/>
<polygon fill="midnightblue" stroke="midnightblue" points="423.4,-92.25 432.32,-86.52 421.78,-85.44 423.4,-92.25"/>
</g>
<!-- Node3&#45;&gt;Node19 -->
<g id="edge3" class="edge">
<title>Node3&#45;&gt;Node19</title>
<path fill="none" stroke="midnightblue" d="M63.02,-61.98C69.26,-53.14 79.17,-39.09 87.02,-27.98"/>
<polygon fill="midnightblue" stroke="midnightblue" points="90.09,-29.7 92.99,-19.51 84.37,-25.66 90.09,-29.7"/>
</g>
</g>
</svg>
