<?xml version="1.0" encoding="UTF-8" standalone="no"?>
<!DOCTYPE svg PUBLIC "-//W3C//DTD SVG 1.1//EN"
 "http://www.w3.org/Graphics/SVG/1.1/DTD/svg11.dtd">
<!-- Generated by graphviz version 2.43.0 (0)
 -->
<!-- Title: src/sntr/central_sentry.hpp Pages: 1 -->
<svg width="811pt" height="263pt"
 viewBox="0.00 0.00 810.68 263.00" xmlns="http://www.w3.org/2000/svg" xmlns:xlink="http://www.w3.org/1999/xlink">
<g id="graph0" class="graph" transform="scale(1 1) rotate(0) translate(4 259)">
<title>src/sntr/central_sentry.hpp</title>
<polygon fill="white" stroke="transparent" points="-4,4 -4,-259 806.68,-259 806.68,4 -4,4"/>
<!-- Node1 -->
<g id="node1" class="node">
<title>Node1</title>
<g id="a_node1"><a xlink:title=" ">
<polygon fill="#bfbfbf" stroke="black" points="414.68,-235.5 414.68,-254.5 559.68,-254.5 559.68,-235.5 414.68,-235.5"/>
<text text-anchor="middle" x="487.18" y="-242.5" font-family="Helvetica,sans-Serif" font-size="10.00">src/sntr/central_sentry.hpp</text>
</a>
</g>
</g>
<!-- Node2 -->
<g id="node2" class="node">
<title>Node2</title>
<g id="a_node2"><a xlink:href="interfaces_8hpp.html" target="_top" xlink:title=" ">
<polygon fill="white" stroke="black" points="226.18,-174 226.18,-193 340.18,-193 340.18,-174 226.18,-174"/>
<text text-anchor="middle" x="283.18" y="-181" font-family="Helvetica,sans-Serif" font-size="10.00">../drv/interfaces.hpp</text>
</a>
</g>
</g>
<!-- Node1&#45;&gt;Node2 -->
<g id="edge1" class="edge">
<title>Node1&#45;&gt;Node2</title>
<path fill="none" stroke="midnightblue" d="M457.96,-235.48C422.28,-225.07 361.83,-207.44 322.2,-195.88"/>
<polygon fill="midnightblue" stroke="midnightblue" points="322.94,-192.45 312.36,-193.01 320.98,-199.17 322.94,-192.45"/>
</g>
<!-- Node18 -->
<g id="node8" class="node">
<title>Node18</title>
<g id="a_node8"><a xlink:title=" ">
<polygon fill="white" stroke="#bfbfbf" points="415.18,-112.5 415.18,-131.5 455.18,-131.5 455.18,-112.5 415.18,-112.5"/>
<text text-anchor="middle" x="435.18" y="-119.5" font-family="Helvetica,sans-Serif" font-size="10.00">span</text>
</a>
</g>
</g>
<!-- Node1&#45;&gt;Node18 -->
<g id="edge17" class="edge">
<title>Node1&#45;&gt;Node18</title>
<path fill="none" stroke="midnightblue" d="M456.94,-235.49C439.06,-228.73 417.88,-217.29 407.18,-199 396.04,-179.95 409.09,-155.7 420.85,-139.78"/>
<polygon fill="midnightblue" stroke="midnightblue" points="423.64,-141.89 427.09,-131.88 418.14,-137.55 423.64,-141.89"/>
</g>
<!-- Node19 -->
<g id="node9" class="node">
<title>Node19</title>
<g id="a_node9"><a xlink:href="central__sentry__iface_8hpp.html" target="_top" xlink:title=" ">
<polygon fill="white" stroke="black" points="415.68,-174 415.68,-193 558.68,-193 558.68,-174 415.68,-174"/>
<text text-anchor="middle" x="487.18" y="-181" font-family="Helvetica,sans-Serif" font-size="10.00">./central_sentry_iface.hpp</text>
</a>
</g>
</g>
<!-- Node1&#45;&gt;Node19 -->
<g id="edge10" class="edge">
<title>Node1&#45;&gt;Node19</title>
<path fill="none" stroke="midnightblue" d="M487.18,-235.48C487.18,-227.08 487.18,-213.98 487.18,-203.16"/>
<polygon fill="midnightblue" stroke="midnightblue" points="490.69,-203.01 487.18,-193.01 483.69,-203.01 490.69,-203.01"/>
</g>
<!-- Node23 -->
<g id="node11" class="node">
<title>Node23</title>
<g id="a_node11"><a xlink:href="record_8hpp.html" target="_top" xlink:title=" ">
<polygon fill="white" stroke="black" points="577.18,-174 577.18,-193 651.18,-193 651.18,-174 577.18,-174"/>
<text text-anchor="middle" x="614.18" y="-181" font-family="Helvetica,sans-Serif" font-size="10.00">./record.hpp</text>
</a>
</g>
</g>
<!-- Node1&#45;&gt;Node23 -->
<g id="edge14" class="edge">
<title>Node1&#45;&gt;Node23</title>
<path fill="none" stroke="midnightblue" d="M505.38,-235.48C526.69,-225.49 562.22,-208.85 586.85,-197.31"/>
<polygon fill="midnightblue" stroke="midnightblue" points="588.45,-200.42 596.02,-193.01 585.48,-194.08 588.45,-200.42"/>
</g>
<!-- Node24 -->
<g id="node12" class="node">
<title>Node24</title>
<g id="a_node12"><a xlink:title=" ">
<polygon fill="white" stroke="#bfbfbf" points="669.68,-168.5 669.68,-198.5 802.68,-198.5 802.68,-168.5 669.68,-168.5"/>
<text text-anchor="start" x="677.68" y="-186.5" font-family="Helvetica,sans-Serif" font-size="10.00">emlabcpp/experimental</text>
<text text-anchor="middle" x="736.18" y="-175.5" font-family="Helvetica,sans-Serif" font-size="10.00">/function_view.h</text>
</a>
</g>
</g>
<!-- Node1&#45;&gt;Node24 -->
<g id="edge16" class="edge">
<title>Node1&#45;&gt;Node24</title>
<path fill="none" stroke="midnightblue" d="M522.86,-235.48C560.52,-226.48 620.82,-212.07 667.71,-200.86"/>
<polygon fill="midnightblue" stroke="midnightblue" points="668.59,-204.25 677.5,-198.52 666.96,-197.44 668.59,-204.25"/>
</g>
<!-- Node3 -->
<g id="node3" class="node">
<title>Node3</title>
<g id="a_node3"><a xlink:href="base_2base_8hpp.html" target="_top" xlink:title=" ">
<polygon fill="white" stroke="red" points="306.18,-56.5 306.18,-75.5 402.18,-75.5 402.18,-56.5 306.18,-56.5"/>
<text text-anchor="middle" x="354.18" y="-63.5" font-family="Helvetica,sans-Serif" font-size="10.00">../base/base.hpp</text>
</a>
</g>
</g>
<!-- Node2&#45;&gt;Node3 -->
<g id="edge2" class="edge">
<title>Node2&#45;&gt;Node3</title>
<path fill="none" stroke="midnightblue" d="M283.91,-173.6C285.4,-159.53 289.79,-131.76 302.18,-112 309.72,-99.99 321.45,-89.44 331.87,-81.58"/>
<polygon fill="midnightblue" stroke="midnightblue" points="334.09,-84.3 340.19,-75.64 330.02,-78.6 334.09,-84.3"/>
</g>
<!-- Node5 -->
<g id="node4" class="node">
<title>Node5</title>
<g id="a_node4"><a xlink:title=" ">
<polygon fill="white" stroke="#bfbfbf" points="329.18,-0.5 329.18,-19.5 379.18,-19.5 379.18,-0.5 329.18,-0.5"/>
<text text-anchor="middle" x="354.18" y="-7.5" font-family="Helvetica,sans-Serif" font-size="10.00">cstdint</text>
</a>
</g>
</g>
<!-- Node2&#45;&gt;Node5 -->
<g id="edge6" class="edge">
<title>Node2&#45;&gt;Node5</title>
<path fill="none" stroke="midnightblue" d="M225.99,-180.49C152.72,-176.58 31.87,-165.15 4.18,-132 -1.51,-125.18 -1.16,-119.1 4.18,-112 42.53,-61.03 237.71,-27.68 318.79,-15.83"/>
<polygon fill="midnightblue" stroke="midnightblue" points="319.6,-19.25 329,-14.36 318.6,-12.32 319.6,-19.25"/>
</g>
<!-- Node9 -->
<g id="node5" class="node">
<title>Node9</title>
<g id="a_node5"><a xlink:href="map_8hpp.html" target="_top" xlink:title=" ">
<polygon fill="white" stroke="red" points="311.18,-112.5 311.18,-131.5 397.18,-131.5 397.18,-112.5 311.18,-112.5"/>
<text text-anchor="middle" x="354.18" y="-119.5" font-family="Helvetica,sans-Serif" font-size="10.00">../cfg/map.hpp</text>
</a>
</g>
</g>
<!-- Node2&#45;&gt;Node9 -->
<g id="edge4" class="edge">
<title>Node2&#45;&gt;Node9</title>
<path fill="none" stroke="midnightblue" d="M293.36,-173.98C304.53,-164.61 322.7,-149.38 336.28,-138.01"/>
<polygon fill="midnightblue" stroke="midnightblue" points="338.61,-140.61 344.03,-131.51 334.12,-135.25 338.61,-140.61"/>
</g>
<!-- Node16 -->
<g id="node6" class="node">
<title>Node16</title>
<g id="a_node6"><a xlink:title=" ">
<polygon fill="white" stroke="#bfbfbf" points="13.68,-112.5 13.68,-131.5 132.68,-131.5 132.68,-112.5 13.68,-112.5"/>
<text text-anchor="middle" x="73.18" y="-119.5" font-family="Helvetica,sans-Serif" font-size="10.00">emlabcpp/outcome.h</text>
</a>
</g>
</g>
<!-- Node2&#45;&gt;Node16 -->
<g id="edge7" class="edge">
<title>Node2&#45;&gt;Node16</title>
<path fill="none" stroke="midnightblue" d="M253.1,-173.98C216.29,-163.55 153.87,-145.86 113.09,-134.31"/>
<polygon fill="midnightblue" stroke="midnightblue" points="113.79,-130.87 103.22,-131.51 111.88,-137.6 113.79,-130.87"/>
</g>
<!-- Node17 -->
<g id="node7" class="node">
<title>Node17</title>
<g id="a_node7"><a xlink:title=" ">
<polygon fill="white" stroke="#bfbfbf" points="151.18,-112.5 151.18,-131.5 255.18,-131.5 255.18,-112.5 151.18,-112.5"/>
<text text-anchor="middle" x="203.18" y="-119.5" font-family="Helvetica,sans-Serif" font-size="10.00">emlabcpp/result.h</text>
</a>
</g>
</g>
<!-- Node2&#45;&gt;Node17 -->
<g id="edge8" class="edge">
<title>Node2&#45;&gt;Node17</title>
<path fill="none" stroke="midnightblue" d="M271.72,-173.98C259.01,-164.52 238.27,-149.1 222.93,-137.69"/>
<polygon fill="midnightblue" stroke="midnightblue" points="224.74,-134.67 214.63,-131.51 220.56,-140.29 224.74,-134.67"/>
</g>
<!-- Node2&#45;&gt;Node18 -->
<g id="edge9" class="edge">
<title>Node2&#45;&gt;Node18</title>
<path fill="none" stroke="midnightblue" d="M304.96,-173.98C331.37,-163.64 375.99,-146.17 405.52,-134.61"/>
<polygon fill="midnightblue" stroke="midnightblue" points="406.87,-137.84 414.9,-130.94 404.32,-131.32 406.87,-137.84"/>
</g>
<!-- Node3&#45;&gt;Node5 -->
<g id="edge3" class="edge">
<title>Node3&#45;&gt;Node5</title>
<path fill="none" stroke="midnightblue" d="M354.18,-56.08C354.18,-49.01 354.18,-38.86 354.18,-29.99"/>
<polygon fill="midnightblue" stroke="midnightblue" points="357.69,-29.75 354.18,-19.75 350.69,-29.75 357.69,-29.75"/>
</g>
<!-- Node9&#45;&gt;Node3 -->
<g id="edge5" class="edge">
<title>Node9&#45;&gt;Node3</title>
<path fill="none" stroke="midnightblue" d="M354.18,-112.08C354.18,-105.01 354.18,-94.86 354.18,-85.99"/>
<polygon fill="midnightblue" stroke="midnightblue" points="357.69,-85.75 354.18,-75.75 350.69,-85.75 357.69,-85.75"/>
</g>
<!-- Node20 -->
<g id="node10" class="node">
<title>Node20</title>
<g id="a_node10"><a xlink:href="sntr_2base_8hpp.html" target="_top" xlink:title=" ">
<polygon fill="white" stroke="red" points="473.68,-112.5 473.68,-131.5 540.68,-131.5 540.68,-112.5 473.68,-112.5"/>
<text text-anchor="middle" x="507.18" y="-119.5" font-family="Helvetica,sans-Serif" font-size="10.00">./base.hpp</text>
</a>
</g>
</g>
<!-- Node19&#45;&gt;Node20 -->
<g id="edge11" class="edge">
<title>Node19&#45;&gt;Node20</title>
<path fill="none" stroke="midnightblue" d="M490.05,-173.98C492.9,-165.49 497.37,-152.2 501.03,-141.32"/>
<polygon fill="midnightblue" stroke="midnightblue" points="504.46,-142.1 504.32,-131.51 497.82,-139.87 504.46,-142.1"/>
</g>
<!-- Node20&#45;&gt;Node3 -->
<g id="edge12" class="edge">
<title>Node20&#45;&gt;Node3</title>
<path fill="none" stroke="midnightblue" d="M482.94,-112.44C457.31,-103.4 416.7,-89.06 387.95,-78.92"/>
<polygon fill="midnightblue" stroke="midnightblue" points="388.91,-75.54 378.31,-75.52 386.58,-82.15 388.91,-75.54"/>
</g>
<!-- Node20&#45;&gt;Node5 -->
<g id="edge13" class="edge">
<title>Node20&#45;&gt;Node5</title>
<path fill="none" stroke="midnightblue" d="M495.18,-112.37C469.04,-93.57 406.72,-48.77 374.4,-25.53"/>
<polygon fill="midnightblue" stroke="midnightblue" points="376.3,-22.59 366.13,-19.59 372.21,-28.27 376.3,-22.59"/>
</g>
<!-- Node23&#45;&gt;Node20 -->
<g id="edge15" class="edge">
<title>Node23&#45;&gt;Node20</title>
<path fill="none" stroke="midnightblue" d="M598.85,-173.98C581.22,-164.17 552.03,-147.93 531.33,-136.42"/>
<polygon fill="midnightblue" stroke="midnightblue" points="532.93,-133.31 522.49,-131.51 529.53,-139.43 532.93,-133.31"/>
</g>
</g>
</svg>
