<?xml version="1.0" encoding="UTF-8" standalone="no"?>
<!DOCTYPE svg PUBLIC "-//W3C//DTD SVG 1.1//EN"
 "http://www.w3.org/Graphics/SVG/1.1/DTD/svg11.dtd">
<!-- Generated by graphviz version 2.43.0 (0)
 -->
<!-- Title: src/sntr/central_sentry.hpp Pages: 1 -->
<svg width="620pt" height="263pt"
 viewBox="0.00 0.00 619.50 263.00" xmlns="http://www.w3.org/2000/svg" xmlns:xlink="http://www.w3.org/1999/xlink">
<g id="graph0" class="graph" transform="scale(1 1) rotate(0) translate(4 259)">
<title>src/sntr/central_sentry.hpp</title>
<polygon fill="white" stroke="transparent" points="-4,4 -4,-259 615.5,-259 615.5,4 -4,4"/>
<!-- Node1 -->
<g id="node1" class="node">
<title>Node1</title>
<g id="a_node1"><a xlink:title=" ">
<polygon fill="#bfbfbf" stroke="black" points="225.5,-235.5 225.5,-254.5 370.5,-254.5 370.5,-235.5 225.5,-235.5"/>
<text text-anchor="middle" x="298" y="-242.5" font-family="Helvetica,sans-Serif" font-size="10.00">src/sntr/central_sentry.hpp</text>
</a>
</g>
</g>
<!-- Node2 -->
<g id="node2" class="node">
<title>Node2</title>
<g id="a_node2"><a xlink:href="interfaces_8hpp.html" target="_top" xlink:title=" ">
<polygon fill="white" stroke="black" points="82.5,-174 82.5,-193 187.5,-193 187.5,-174 82.5,-174"/>
<text text-anchor="middle" x="135" y="-181" font-family="Helvetica,sans-Serif" font-size="10.00">drv/interfaces.hpp</text>
</a>
</g>
</g>
<!-- Node1&#45;&gt;Node2 -->
<g id="edge1" class="edge">
<title>Node1&#45;&gt;Node2</title>
<path fill="none" stroke="midnightblue" d="M274.65,-235.48C246.69,-225.27 199.67,-208.11 168.01,-196.55"/>
<polygon fill="midnightblue" stroke="midnightblue" points="168.9,-193.15 158.31,-193.01 166.5,-199.73 168.9,-193.15"/>
</g>
<!-- Node9 -->
<g id="node6" class="node">
<title>Node9</title>
<g id="a_node6"><a xlink:title=" ">
<polygon fill="white" stroke="#bfbfbf" points="198,-112.5 198,-131.5 238,-131.5 238,-112.5 198,-112.5"/>
<text text-anchor="middle" x="218" y="-119.5" font-family="Helvetica,sans-Serif" font-size="10.00">span</text>
</a>
</g>
</g>
<!-- Node1&#45;&gt;Node9 -->
<g id="edge14" class="edge">
<title>Node1&#45;&gt;Node9</title>
<path fill="none" stroke="midnightblue" d="M279.4,-235.43C265.07,-227.86 245.92,-215.47 235,-199 223.7,-181.95 219.82,-158.51 218.53,-142.19"/>
<polygon fill="midnightblue" stroke="midnightblue" points="222.01,-141.56 217.99,-131.75 215.02,-141.92 222.01,-141.56"/>
</g>
<!-- Node10 -->
<g id="node7" class="node">
<title>Node10</title>
<g id="a_node7"><a xlink:href="central__sentry__iface_8hpp.html" target="_top" xlink:title=" ">
<polygon fill="white" stroke="black" points="244,-168.5 244,-198.5 352,-198.5 352,-168.5 244,-168.5"/>
<text text-anchor="start" x="252" y="-186.5" font-family="Helvetica,sans-Serif" font-size="10.00">sntr/central_sentry</text>
<text text-anchor="middle" x="298" y="-175.5" font-family="Helvetica,sans-Serif" font-size="10.00">_iface.hpp</text>
</a>
</g>
</g>
<!-- Node1&#45;&gt;Node10 -->
<g id="edge7" class="edge">
<title>Node1&#45;&gt;Node10</title>
<path fill="none" stroke="midnightblue" d="M298,-235.48C298,-228.47 298,-218.19 298,-208.7"/>
<polygon fill="midnightblue" stroke="midnightblue" points="301.5,-208.52 298,-198.52 294.5,-208.52 301.5,-208.52"/>
</g>
<!-- Node14 -->
<g id="node9" class="node">
<title>Node14</title>
<g id="a_node9"><a xlink:href="record_8hpp.html" target="_top" xlink:title=" ">
<polygon fill="white" stroke="black" points="370,-174 370,-193 460,-193 460,-174 370,-174"/>
<text text-anchor="middle" x="415" y="-181" font-family="Helvetica,sans-Serif" font-size="10.00">sntr/record.hpp</text>
</a>
</g>
</g>
<!-- Node1&#45;&gt;Node14 -->
<g id="edge11" class="edge">
<title>Node1&#45;&gt;Node14</title>
<path fill="none" stroke="midnightblue" d="M314.76,-235.48C334.22,-225.58 366.55,-209.14 389.21,-197.62"/>
<polygon fill="midnightblue" stroke="midnightblue" points="390.94,-200.66 398.27,-193.01 387.77,-194.42 390.94,-200.66"/>
</g>
<!-- Node15 -->
<g id="node10" class="node">
<title>Node15</title>
<g id="a_node10"><a xlink:title=" ">
<polygon fill="white" stroke="#bfbfbf" points="478.5,-168.5 478.5,-198.5 611.5,-198.5 611.5,-168.5 478.5,-168.5"/>
<text text-anchor="start" x="486.5" y="-186.5" font-family="Helvetica,sans-Serif" font-size="10.00">emlabcpp/experimental</text>
<text text-anchor="middle" x="545" y="-175.5" font-family="Helvetica,sans-Serif" font-size="10.00">/function_view.h</text>
</a>
</g>
</g>
<!-- Node1&#45;&gt;Node15 -->
<g id="edge13" class="edge">
<title>Node1&#45;&gt;Node15</title>
<path fill="none" stroke="midnightblue" d="M333.39,-235.48C370.67,-226.49 430.31,-212.13 476.78,-200.93"/>
<polygon fill="midnightblue" stroke="midnightblue" points="477.88,-204.27 486.79,-198.52 476.25,-197.46 477.88,-204.27"/>
</g>
<!-- Node3 -->
<g id="node3" class="node">
<title>Node3</title>
<g id="a_node3"><a xlink:href="base_2base_8hpp.html" target="_top" xlink:title=" ">
<polygon fill="white" stroke="red" points="171.5,-56.5 171.5,-75.5 258.5,-75.5 258.5,-56.5 171.5,-56.5"/>
<text text-anchor="middle" x="215" y="-63.5" font-family="Helvetica,sans-Serif" font-size="10.00">base/base.hpp</text>
</a>
</g>
</g>
<!-- Node2&#45;&gt;Node3 -->
<g id="edge2" class="edge">
<title>Node2&#45;&gt;Node3</title>
<path fill="none" stroke="midnightblue" d="M141.01,-173.82C154.16,-154.84 185.67,-109.35 203.03,-84.29"/>
<polygon fill="midnightblue" stroke="midnightblue" points="206.1,-86 208.92,-75.78 200.35,-82.01 206.1,-86"/>
</g>
<!-- Node5 -->
<g id="node4" class="node">
<title>Node5</title>
<g id="a_node4"><a xlink:title=" ">
<polygon fill="white" stroke="#bfbfbf" points="190,-0.5 190,-19.5 240,-19.5 240,-0.5 190,-0.5"/>
<text text-anchor="middle" x="215" y="-7.5" font-family="Helvetica,sans-Serif" font-size="10.00">cstdint</text>
</a>
</g>
</g>
<!-- Node2&#45;&gt;Node5 -->
<g id="edge4" class="edge">
<title>Node2&#45;&gt;Node5</title>
<path fill="none" stroke="midnightblue" d="M134.98,-173.83C135.31,-152.31 138.5,-95.33 162,-56 169.26,-43.86 180.97,-33.4 191.55,-25.63"/>
<polygon fill="midnightblue" stroke="midnightblue" points="193.81,-28.33 200.04,-19.76 189.83,-22.57 193.81,-28.33"/>
</g>
<!-- Node8 -->
<g id="node5" class="node">
<title>Node8</title>
<g id="a_node5"><a xlink:title=" ">
<polygon fill="white" stroke="#bfbfbf" points="0,-112.5 0,-131.5 104,-131.5 104,-112.5 0,-112.5"/>
<text text-anchor="middle" x="52" y="-119.5" font-family="Helvetica,sans-Serif" font-size="10.00">emlabcpp/result.h</text>
</a>
</g>
</g>
<!-- Node2&#45;&gt;Node8 -->
<g id="edge5" class="edge">
<title>Node2&#45;&gt;Node8</title>
<path fill="none" stroke="midnightblue" d="M123.11,-173.98C109.8,-164.43 88,-148.81 72.04,-137.37"/>
<polygon fill="midnightblue" stroke="midnightblue" points="74.04,-134.49 63.87,-131.51 69.96,-140.18 74.04,-134.49"/>
</g>
<!-- Node2&#45;&gt;Node9 -->
<g id="edge6" class="edge">
<title>Node2&#45;&gt;Node9</title>
<path fill="none" stroke="midnightblue" d="M146.89,-173.98C160.2,-164.43 182,-148.81 197.96,-137.37"/>
<polygon fill="midnightblue" stroke="midnightblue" points="200.04,-140.18 206.13,-131.51 195.96,-134.49 200.04,-140.18"/>
</g>
<!-- Node3&#45;&gt;Node5 -->
<g id="edge3" class="edge">
<title>Node3&#45;&gt;Node5</title>
<path fill="none" stroke="midnightblue" d="M215,-56.08C215,-49.01 215,-38.86 215,-29.99"/>
<polygon fill="midnightblue" stroke="midnightblue" points="218.5,-29.75 215,-19.75 211.5,-29.75 218.5,-29.75"/>
</g>
<!-- Node11 -->
<g id="node8" class="node">
<title>Node11</title>
<g id="a_node8"><a xlink:href="sntr_2base_8hpp.html" target="_top" xlink:title=" ">
<polygon fill="white" stroke="red" points="256.5,-112.5 256.5,-131.5 339.5,-131.5 339.5,-112.5 256.5,-112.5"/>
<text text-anchor="middle" x="298" y="-119.5" font-family="Helvetica,sans-Serif" font-size="10.00">sntr/base.hpp</text>
</a>
</g>
</g>
<!-- Node10&#45;&gt;Node11 -->
<g id="edge8" class="edge">
<title>Node10&#45;&gt;Node11</title>
<path fill="none" stroke="midnightblue" d="M298,-168.4C298,-160.47 298,-150.46 298,-141.86"/>
<polygon fill="midnightblue" stroke="midnightblue" points="301.5,-141.66 298,-131.66 294.5,-141.66 301.5,-141.66"/>
</g>
<!-- Node11&#45;&gt;Node3 -->
<g id="edge9" class="edge">
<title>Node11&#45;&gt;Node3</title>
<path fill="none" stroke="midnightblue" d="M284.66,-112.32C271.84,-103.98 252.22,-91.21 237.06,-81.35"/>
<polygon fill="midnightblue" stroke="midnightblue" points="238.59,-78.17 228.3,-75.65 234.78,-84.04 238.59,-78.17"/>
</g>
<!-- Node11&#45;&gt;Node5 -->
<g id="edge10" class="edge">
<title>Node11&#45;&gt;Node5</title>
<path fill="none" stroke="midnightblue" d="M295.18,-112.38C290.64,-99.32 280.79,-74.1 267,-56 258.29,-44.58 246.28,-33.95 236,-25.9"/>
<polygon fill="midnightblue" stroke="midnightblue" points="237.97,-23 227.88,-19.77 233.76,-28.59 237.97,-23"/>
</g>
<!-- Node14&#45;&gt;Node11 -->
<g id="edge12" class="edge">
<title>Node14&#45;&gt;Node11</title>
<path fill="none" stroke="midnightblue" d="M398.24,-173.98C378.78,-164.08 346.45,-147.64 323.79,-136.12"/>
<polygon fill="midnightblue" stroke="midnightblue" points="325.23,-132.92 314.73,-131.51 322.06,-139.16 325.23,-132.92"/>
</g>
</g>
</svg>
