<?xml version="1.0" encoding="UTF-8" standalone="no"?>
<!DOCTYPE svg PUBLIC "-//W3C//DTD SVG 1.1//EN"
 "http://www.w3.org/Graphics/SVG/1.1/DTD/svg11.dtd">
<!-- Generated by graphviz version 2.43.0 (0)
 -->
<!-- Title: src/fw/cfg_dispatcher.cpp Pages: 1 -->
<svg width="357pt" height="207pt"
 viewBox="0.00 0.00 356.50 207.00" xmlns="http://www.w3.org/2000/svg" xmlns:xlink="http://www.w3.org/1999/xlink">
<g id="graph0" class="graph" transform="scale(1 1) rotate(0) translate(4 203)">
<title>src/fw/cfg_dispatcher.cpp</title>
<polygon fill="white" stroke="transparent" points="-4,4 -4,-203 352.5,-203 352.5,4 -4,4"/>
<!-- Node1 -->
<g id="node1" class="node">
<title>Node1</title>
<g id="a_node1"><a xlink:title=" ">
<polygon fill="#bfbfbf" stroke="black" points="128,-179.5 128,-198.5 267,-198.5 267,-179.5 128,-179.5"/>
<text text-anchor="middle" x="197.5" y="-186.5" font-family="Helvetica,sans-Serif" font-size="10.00">src/fw/cfg_dispatcher.cpp</text>
</a>
</g>
</g>
<!-- Node2 -->
<g id="node2" class="node">
<title>Node2</title>
<g id="a_node2"><a xlink:href="cfg__dispatcher_8hpp.html" target="_top" xlink:title=" ">
<polygon fill="white" stroke="black" points="60.5,-118 60.5,-137 182.5,-137 182.5,-118 60.5,-118"/>
<text text-anchor="middle" x="121.5" y="-125" font-family="Helvetica,sans-Serif" font-size="10.00">fw/cfg_dispatcher.hpp</text>
</a>
</g>
</g>
<!-- Node1&#45;&gt;Node2 -->
<g id="edge1" class="edge">
<title>Node1&#45;&gt;Node2</title>
<path fill="none" stroke="midnightblue" d="M186.61,-179.48C174.53,-170.02 154.83,-154.6 140.26,-143.19"/>
<polygon fill="midnightblue" stroke="midnightblue" points="142.4,-140.42 132.37,-137.01 138.09,-145.93 142.4,-140.42"/>
</g>
<!-- Node39 -->
<g id="node6" class="node">
<title>Node39</title>
<g id="a_node6"><a xlink:title=" ">
<polygon fill="white" stroke="#bfbfbf" points="200.5,-112.5 200.5,-142.5 348.5,-142.5 348.5,-112.5 200.5,-112.5"/>
<text text-anchor="start" x="208.5" y="-130.5" font-family="Helvetica,sans-Serif" font-size="10.00">emlabcpp/protocol/register</text>
<text text-anchor="middle" x="274.5" y="-119.5" font-family="Helvetica,sans-Serif" font-size="10.00">_handler.h</text>
</a>
</g>
</g>
<!-- Node1&#45;&gt;Node39 -->
<g id="edge6" class="edge">
<title>Node1&#45;&gt;Node39</title>
<path fill="none" stroke="midnightblue" d="M208.53,-179.48C218.86,-171.49 234.7,-159.25 248.27,-148.77"/>
<polygon fill="midnightblue" stroke="midnightblue" points="250.58,-151.41 256.35,-142.52 246.3,-145.87 250.58,-151.41"/>
</g>
<!-- Node3 -->
<g id="node3" class="node">
<title>Node3</title>
<g id="a_node3"><a xlink:title=" ">
<polygon fill="white" stroke="#bfbfbf" points="0,-56.5 0,-75.5 67,-75.5 67,-56.5 0,-56.5"/>
<text text-anchor="middle" x="33.5" y="-63.5" font-family="Helvetica,sans-Serif" font-size="10.00">config.hpp</text>
</a>
</g>
</g>
<!-- Node2&#45;&gt;Node3 -->
<g id="edge2" class="edge">
<title>Node2&#45;&gt;Node3</title>
<path fill="none" stroke="midnightblue" d="M108.89,-117.98C94.78,-108.43 71.67,-92.81 54.75,-81.37"/>
<polygon fill="midnightblue" stroke="midnightblue" points="56.33,-78.21 46.08,-75.51 52.41,-84.01 56.33,-78.21"/>
</g>
<!-- Node4 -->
<g id="node4" class="node">
<title>Node4</title>
<g id="a_node4"><a xlink:href="core_8hpp.html" target="_top" xlink:title=" ">
<polygon fill="white" stroke="red" points="85,-56.5 85,-75.5 158,-75.5 158,-56.5 85,-56.5"/>
<text text-anchor="middle" x="121.5" y="-63.5" font-family="Helvetica,sans-Serif" font-size="10.00">fw/core.hpp</text>
</a>
</g>
</g>
<!-- Node2&#45;&gt;Node4 -->
<g id="edge3" class="edge">
<title>Node2&#45;&gt;Node4</title>
<path fill="none" stroke="midnightblue" d="M121.5,-117.98C121.5,-109.58 121.5,-96.48 121.5,-85.66"/>
<polygon fill="midnightblue" stroke="midnightblue" points="125,-85.51 121.5,-75.51 118,-85.51 125,-85.51"/>
</g>
<!-- Node18 -->
<g id="node5" class="node">
<title>Node18</title>
<g id="a_node5"><a xlink:href="acquisition_8hpp.html" target="_top" xlink:title=" ">
<polygon fill="white" stroke="red" points="89.5,-0.5 89.5,-19.5 217.5,-19.5 217.5,-0.5 89.5,-0.5"/>
<text text-anchor="middle" x="153.5" y="-7.5" font-family="Helvetica,sans-Serif" font-size="10.00">drivers/acquisition.hpp</text>
</a>
</g>
</g>
<!-- Node2&#45;&gt;Node18 -->
<g id="edge5" class="edge">
<title>Node2&#45;&gt;Node18</title>
<path fill="none" stroke="midnightblue" d="M133.16,-117.99C144.39,-109 160.65,-93.7 167.5,-76 173.42,-60.71 168.46,-42.38 162.87,-29.09"/>
<polygon fill="midnightblue" stroke="midnightblue" points="165.87,-27.23 158.45,-19.66 159.53,-30.2 165.87,-27.23"/>
</g>
<!-- Node4&#45;&gt;Node18 -->
<g id="edge4" class="edge">
<title>Node4&#45;&gt;Node18</title>
<path fill="none" stroke="midnightblue" d="M126.78,-56.08C131.21,-48.61 137.66,-37.72 143.12,-28.52"/>
<polygon fill="midnightblue" stroke="midnightblue" points="146.23,-30.14 148.31,-19.75 140.21,-26.57 146.23,-30.14"/>
</g>
</g>
</svg>
