<?xml version="1.0" encoding="UTF-8" standalone="no"?>
<!DOCTYPE svg PUBLIC "-//W3C//DTD SVG 1.1//EN"
 "http://www.w3.org/Graphics/SVG/1.1/DTD/svg11.dtd">
<!-- Generated by graphviz version 2.43.0 (0)
 -->
<!-- Title: src/fw/cfg_dispatcher.cpp Pages: 1 -->
<svg width="309pt" height="151pt"
 viewBox="0.00 0.00 308.50 151.00" xmlns="http://www.w3.org/2000/svg" xmlns:xlink="http://www.w3.org/1999/xlink">
<g id="graph0" class="graph" transform="scale(1 1) rotate(0) translate(4 147)">
<title>src/fw/cfg_dispatcher.cpp</title>
<polygon fill="white" stroke="transparent" points="-4,4 -4,-147 304.5,-147 304.5,4 -4,4"/>
<!-- Node1 -->
<g id="node1" class="node">
<title>Node1</title>
<g id="a_node1"><a xlink:title=" ">
<polygon fill="#bfbfbf" stroke="black" points="80,-123.5 80,-142.5 219,-142.5 219,-123.5 80,-123.5"/>
<text text-anchor="middle" x="149.5" y="-130.5" font-family="Helvetica,sans-Serif" font-size="10.00">src/fw/cfg_dispatcher.cpp</text>
</a>
</g>
</g>
<!-- Node2 -->
<g id="node2" class="node">
<title>Node2</title>
<g id="a_node2"><a xlink:href="cfg__dispatcher_8hpp.html" target="_top" xlink:title=" ">
<polygon fill="white" stroke="black" points="12.5,-62 12.5,-81 134.5,-81 134.5,-62 12.5,-62"/>
<text text-anchor="middle" x="73.5" y="-69" font-family="Helvetica,sans-Serif" font-size="10.00">fw/cfg_dispatcher.hpp</text>
</a>
</g>
</g>
<!-- Node1&#45;&gt;Node2 -->
<g id="edge1" class="edge">
<title>Node1&#45;&gt;Node2</title>
<path fill="none" stroke="midnightblue" d="M138.61,-123.48C126.53,-114.02 106.83,-98.6 92.26,-87.19"/>
<polygon fill="midnightblue" stroke="midnightblue" points="94.4,-84.42 84.37,-81.01 90.09,-89.93 94.4,-84.42"/>
</g>
<!-- Node38 -->
<g id="node5" class="node">
<title>Node38</title>
<g id="a_node5"><a xlink:title=" ">
<polygon fill="white" stroke="#bfbfbf" points="152.5,-56.5 152.5,-86.5 300.5,-86.5 300.5,-56.5 152.5,-56.5"/>
<text text-anchor="start" x="160.5" y="-74.5" font-family="Helvetica,sans-Serif" font-size="10.00">emlabcpp/protocol/register</text>
<text text-anchor="middle" x="226.5" y="-63.5" font-family="Helvetica,sans-Serif" font-size="10.00">_handler.h</text>
</a>
</g>
</g>
<!-- Node1&#45;&gt;Node38 -->
<g id="edge4" class="edge">
<title>Node1&#45;&gt;Node38</title>
<path fill="none" stroke="midnightblue" d="M160.53,-123.48C170.86,-115.49 186.7,-103.25 200.27,-92.77"/>
<polygon fill="midnightblue" stroke="midnightblue" points="202.58,-95.41 208.35,-86.52 198.3,-89.87 202.58,-95.41"/>
</g>
<!-- Node3 -->
<g id="node3" class="node">
<title>Node3</title>
<g id="a_node3"><a xlink:title=" ">
<polygon fill="white" stroke="#bfbfbf" points="0,-0.5 0,-19.5 67,-19.5 67,-0.5 0,-0.5"/>
<text text-anchor="middle" x="33.5" y="-7.5" font-family="Helvetica,sans-Serif" font-size="10.00">config.hpp</text>
</a>
</g>
</g>
<!-- Node2&#45;&gt;Node3 -->
<g id="edge2" class="edge">
<title>Node2&#45;&gt;Node3</title>
<path fill="none" stroke="midnightblue" d="M67.77,-61.98C61.83,-53.14 52.38,-39.09 44.91,-27.98"/>
<polygon fill="midnightblue" stroke="midnightblue" points="47.7,-25.86 39.22,-19.51 41.89,-29.76 47.7,-25.86"/>
</g>
<!-- Node4 -->
<g id="node4" class="node">
<title>Node4</title>
<g id="a_node4"><a xlink:href="core_8hpp.html" target="_top" xlink:title=" ">
<polygon fill="white" stroke="red" points="85,-0.5 85,-19.5 144,-19.5 144,-0.5 85,-0.5"/>
<text text-anchor="middle" x="114.5" y="-7.5" font-family="Helvetica,sans-Serif" font-size="10.00">core.hpp</text>
</a>
</g>
</g>
<!-- Node2&#45;&gt;Node4 -->
<g id="edge3" class="edge">
<title>Node2&#45;&gt;Node4</title>
<path fill="none" stroke="midnightblue" d="M79.37,-61.98C85.46,-53.14 95.14,-39.09 102.8,-27.98"/>
<polygon fill="midnightblue" stroke="midnightblue" points="105.84,-29.73 108.64,-19.51 100.08,-25.76 105.84,-29.73"/>
</g>
</g>
</svg>
