<?xml version="1.0" encoding="UTF-8" standalone="no"?>
<!DOCTYPE svg PUBLIC "-//W3C//DTD SVG 1.1//EN"
 "http://www.w3.org/Graphics/SVG/1.1/DTD/svg11.dtd">
<!-- Generated by graphviz version 2.43.0 (0)
 -->
<!-- Title: src/cfg/dispatcher.hpp Pages: 1 -->
<svg width="1252pt" height="386pt"
 viewBox="0.00 0.00 1252.00 386.00" xmlns="http://www.w3.org/2000/svg" xmlns:xlink="http://www.w3.org/1999/xlink">
<g id="graph0" class="graph" transform="scale(1 1) rotate(0) translate(4 382)">
<title>src/cfg/dispatcher.hpp</title>
<polygon fill="white" stroke="transparent" points="-4,4 -4,-382 1248,-382 1248,4 -4,4"/>
<!-- Node1 -->
<g id="node1" class="node">
<title>Node1</title>
<g id="a_node1"><a xlink:title=" ">
<polygon fill="#bfbfbf" stroke="black" points="674,-358.5 674,-377.5 797,-377.5 797,-358.5 674,-358.5"/>
<text text-anchor="middle" x="735.5" y="-365.5" font-family="Helvetica,sans-Serif" font-size="10.00">src/cfg/dispatcher.hpp</text>
</a>
</g>
</g>
<!-- Node2 -->
<g id="node2" class="node">
<title>Node2</title>
<g id="a_node2"><a xlink:href="key_8hpp.html" target="_top" xlink:title=" ">
<polygon fill="white" stroke="black" points="754,-62 754,-81 825,-81 825,-62 754,-62"/>
<text text-anchor="middle" x="789.5" y="-69" font-family="Helvetica,sans-Serif" font-size="10.00">cfg/key.hpp</text>
</a>
</g>
</g>
<!-- Node1&#45;&gt;Node2 -->
<g id="edge1" class="edge">
<title>Node1&#45;&gt;Node2</title>
<path fill="none" stroke="midnightblue" d="M729.16,-358.22C716.33,-339.55 688.5,-294.15 688.5,-251.5 688.5,-251.5 688.5,-251.5 688.5,-188 688.5,-141.89 734.67,-105.33 764.58,-86.49"/>
<polygon fill="midnightblue" stroke="midnightblue" points="766.54,-89.4 773.27,-81.22 762.91,-83.41 766.54,-89.4"/>
</g>
<!-- Node4 -->
<g id="node4" class="node">
<title>Node4</title>
<g id="a_node4"><a xlink:href="map_8hpp.html" target="_top" xlink:title=" ">
<polygon fill="white" stroke="black" points="583,-123.5 583,-142.5 660,-142.5 660,-123.5 583,-123.5"/>
<text text-anchor="middle" x="621.5" y="-130.5" font-family="Helvetica,sans-Serif" font-size="10.00">cfg/map.hpp</text>
</a>
</g>
</g>
<!-- Node1&#45;&gt;Node4 -->
<g id="edge3" class="edge">
<title>Node1&#45;&gt;Node4</title>
<path fill="none" stroke="midnightblue" d="M718.28,-358.44C704.49,-350.73 685.65,-338.13 674.5,-322 637.26,-268.14 626.04,-188.57 622.78,-152.72"/>
<polygon fill="midnightblue" stroke="midnightblue" points="626.27,-152.39 621.98,-142.7 619.29,-152.95 626.27,-152.39"/>
</g>
<!-- Node15 -->
<g id="node11" class="node">
<title>Node15</title>
<g id="a_node11"><a xlink:href="core_8hpp.html" target="_top" xlink:title=" ">
<polygon fill="white" stroke="black" points="992,-302.5 992,-321.5 1075,-321.5 1075,-302.5 992,-302.5"/>
<text text-anchor="middle" x="1033.5" y="-309.5" font-family="Helvetica,sans-Serif" font-size="10.00">core/core.hpp</text>
</a>
</g>
</g>
<!-- Node1&#45;&gt;Node15 -->
<g id="edge12" class="edge">
<title>Node1&#45;&gt;Node15</title>
<path fill="none" stroke="midnightblue" d="M782.72,-358.44C836.95,-348.62 925.63,-332.55 981.71,-322.38"/>
<polygon fill="midnightblue" stroke="midnightblue" points="982.58,-325.79 991.79,-320.56 981.33,-318.9 982.58,-325.79"/>
</g>
<!-- Node42 -->
<g id="node18" class="node">
<title>Node42</title>
<g id="a_node18"><a xlink:href="drivers_8hpp.html" target="_top" xlink:title=" ">
<polygon fill="white" stroke="black" points="736,-302.5 736,-321.5 831,-321.5 831,-302.5 736,-302.5"/>
<text text-anchor="middle" x="783.5" y="-309.5" font-family="Helvetica,sans-Serif" font-size="10.00">core/drivers.hpp</text>
</a>
</g>
</g>
<!-- Node1&#45;&gt;Node42 -->
<g id="edge28" class="edge">
<title>Node1&#45;&gt;Node42</title>
<path fill="none" stroke="midnightblue" d="M743.43,-358.08C750.35,-350.3 760.57,-338.8 768.95,-329.37"/>
<polygon fill="midnightblue" stroke="midnightblue" points="771.69,-331.55 775.72,-321.75 766.46,-326.9 771.69,-331.55"/>
</g>
<!-- Node3 -->
<g id="node3" class="node">
<title>Node3</title>
<g id="a_node3"><a xlink:title=" ">
<polygon fill="white" stroke="#bfbfbf" points="828.5,-0.5 828.5,-19.5 878.5,-19.5 878.5,-0.5 828.5,-0.5"/>
<text text-anchor="middle" x="853.5" y="-7.5" font-family="Helvetica,sans-Serif" font-size="10.00">cstdint</text>
</a>
</g>
</g>
<!-- Node2&#45;&gt;Node3 -->
<g id="edge2" class="edge">
<title>Node2&#45;&gt;Node3</title>
<path fill="none" stroke="midnightblue" d="M798.67,-61.98C808.65,-52.7 824.81,-37.67 837.01,-26.33"/>
<polygon fill="midnightblue" stroke="midnightblue" points="839.41,-28.88 844.35,-19.51 834.64,-23.75 839.41,-28.88"/>
</g>
<!-- Node4&#45;&gt;Node2 -->
<g id="edge6" class="edge">
<title>Node4&#45;&gt;Node2</title>
<path fill="none" stroke="midnightblue" d="M645.57,-123.48C674.51,-113.22 723.26,-95.96 755.9,-84.4"/>
<polygon fill="midnightblue" stroke="midnightblue" points="757.22,-87.65 765.47,-81.01 754.88,-81.05 757.22,-87.65"/>
</g>
<!-- Node5 -->
<g id="node5" class="node">
<title>Node5</title>
<g id="a_node5"><a xlink:href="base_2base_8hpp.html" target="_top" xlink:title=" ">
<polygon fill="white" stroke="red" points="882,-62 882,-81 969,-81 969,-62 882,-62"/>
<text text-anchor="middle" x="925.5" y="-69" font-family="Helvetica,sans-Serif" font-size="10.00">base/base.hpp</text>
</a>
</g>
</g>
<!-- Node4&#45;&gt;Node5 -->
<g id="edge4" class="edge">
<title>Node4&#45;&gt;Node5</title>
<path fill="none" stroke="midnightblue" d="M660,-124.46C713.62,-113.97 811.01,-94.91 871.76,-83.02"/>
<polygon fill="midnightblue" stroke="midnightblue" points="872.77,-86.39 881.92,-81.03 871.43,-79.52 872.77,-86.39"/>
</g>
<!-- Node10 -->
<g id="node6" class="node">
<title>Node10</title>
<g id="a_node6"><a xlink:title=" ">
<polygon fill="white" stroke="#bfbfbf" points="603,-56.5 603,-86.5 736,-86.5 736,-56.5 603,-56.5"/>
<text text-anchor="start" x="611" y="-74.5" font-family="Helvetica,sans-Serif" font-size="10.00">emlabcpp/experimental</text>
<text text-anchor="middle" x="669.5" y="-63.5" font-family="Helvetica,sans-Serif" font-size="10.00">/string_buffer.h</text>
</a>
</g>
</g>
<!-- Node4&#45;&gt;Node10 -->
<g id="edge7" class="edge">
<title>Node4&#45;&gt;Node10</title>
<path fill="none" stroke="midnightblue" d="M628.38,-123.48C634.45,-115.94 643.58,-104.63 651.7,-94.57"/>
<polygon fill="midnightblue" stroke="midnightblue" points="654.63,-96.5 658.19,-86.52 649.18,-92.11 654.63,-96.5"/>
</g>
<!-- Node11 -->
<g id="node7" class="node">
<title>Node11</title>
<g id="a_node7"><a xlink:title=" ">
<polygon fill="white" stroke="#bfbfbf" points="0,-56.5 0,-86.5 133,-86.5 133,-56.5 0,-56.5"/>
<text text-anchor="start" x="8" y="-74.5" font-family="Helvetica,sans-Serif" font-size="10.00">emlabcpp/experimental</text>
<text text-anchor="middle" x="66.5" y="-63.5" font-family="Helvetica,sans-Serif" font-size="10.00">/testing/convert.h</text>
</a>
</g>
</g>
<!-- Node4&#45;&gt;Node11 -->
<g id="edge8" class="edge">
<title>Node4&#45;&gt;Node11</title>
<path fill="none" stroke="midnightblue" d="M582.86,-129.62C502.84,-124.42 313.02,-110.69 143.29,-87.02"/>
<polygon fill="midnightblue" stroke="midnightblue" points="143.56,-83.52 133.17,-85.59 142.58,-90.45 143.56,-83.52"/>
</g>
<!-- Node12 -->
<g id="node8" class="node">
<title>Node12</title>
<g id="a_node8"><a xlink:title=" ">
<polygon fill="white" stroke="#bfbfbf" points="151.5,-56.5 151.5,-86.5 299.5,-86.5 299.5,-56.5 151.5,-56.5"/>
<text text-anchor="start" x="159.5" y="-74.5" font-family="Helvetica,sans-Serif" font-size="10.00">emlabcpp/protocol/register</text>
<text text-anchor="middle" x="225.5" y="-63.5" font-family="Helvetica,sans-Serif" font-size="10.00">_handler.h</text>
</a>
</g>
</g>
<!-- Node4&#45;&gt;Node12 -->
<g id="edge9" class="edge">
<title>Node4&#45;&gt;Node12</title>
<path fill="none" stroke="midnightblue" d="M582.89,-126.83C525.59,-119.08 414.4,-103.71 309.79,-87.18"/>
<polygon fill="midnightblue" stroke="midnightblue" points="310.12,-83.69 299.69,-85.58 309.02,-90.6 310.12,-83.69"/>
</g>
<!-- Node13 -->
<g id="node9" class="node">
<title>Node13</title>
<g id="a_node9"><a xlink:title=" ">
<polygon fill="white" stroke="#bfbfbf" points="317.5,-56.5 317.5,-86.5 465.5,-86.5 465.5,-56.5 317.5,-56.5"/>
<text text-anchor="start" x="325.5" y="-74.5" font-family="Helvetica,sans-Serif" font-size="10.00">emlabcpp/protocol/register</text>
<text text-anchor="middle" x="391.5" y="-63.5" font-family="Helvetica,sans-Serif" font-size="10.00">_map.h</text>
</a>
</g>
</g>
<!-- Node4&#45;&gt;Node13 -->
<g id="edge10" class="edge">
<title>Node4&#45;&gt;Node13</title>
<path fill="none" stroke="midnightblue" d="M588.55,-123.48C553.98,-114.53 498.76,-100.25 455.57,-89.07"/>
<polygon fill="midnightblue" stroke="midnightblue" points="456.26,-85.64 445.71,-86.52 454.51,-92.42 456.26,-85.64"/>
</g>
<!-- Node14 -->
<g id="node10" class="node">
<title>Node14</title>
<g id="a_node10"><a xlink:title=" ">
<polygon fill="white" stroke="#bfbfbf" points="484,-62 484,-81 585,-81 585,-62 484,-62"/>
<text text-anchor="middle" x="534.5" y="-69" font-family="Helvetica,sans-Serif" font-size="10.00">magic_enum.hpp</text>
</a>
</g>
</g>
<!-- Node4&#45;&gt;Node14 -->
<g id="edge11" class="edge">
<title>Node4&#45;&gt;Node14</title>
<path fill="none" stroke="midnightblue" d="M609.04,-123.48C595.08,-113.93 572.24,-98.31 555.51,-86.87"/>
<polygon fill="midnightblue" stroke="midnightblue" points="557.17,-83.77 546.94,-81.01 553.22,-89.54 557.17,-83.77"/>
</g>
<!-- Node5&#45;&gt;Node3 -->
<g id="edge5" class="edge">
<title>Node5&#45;&gt;Node3</title>
<path fill="none" stroke="midnightblue" d="M915.18,-61.98C903.85,-52.61 885.43,-37.38 871.66,-26.01"/>
<polygon fill="midnightblue" stroke="midnightblue" points="873.73,-23.18 863.8,-19.51 869.28,-28.58 873.73,-23.18"/>
</g>
<!-- Node16 -->
<g id="node12" class="node">
<title>Node16</title>
<g id="a_node12"><a xlink:href="core_2callbacks_8hpp.html" target="_top" xlink:title=" ">
<polygon fill="white" stroke="red" points="1101,-241 1101,-260 1184,-260 1184,-241 1101,-241"/>
<text text-anchor="middle" x="1142.5" y="-248" font-family="Helvetica,sans-Serif" font-size="10.00">callbacks.hpp</text>
</a>
</g>
</g>
<!-- Node15&#45;&gt;Node16 -->
<g id="edge13" class="edge">
<title>Node15&#45;&gt;Node16</title>
<path fill="none" stroke="midnightblue" d="M1049.12,-302.48C1067.09,-292.67 1096.82,-276.43 1117.91,-264.92"/>
<polygon fill="midnightblue" stroke="midnightblue" points="1119.81,-267.87 1126.91,-260.01 1116.46,-261.73 1119.81,-267.87"/>
</g>
<!-- Node24 -->
<g id="node13" class="node">
<title>Node24</title>
<g id="a_node13"><a xlink:href="control_8hpp.html" target="_top" xlink:title=" ">
<polygon fill="white" stroke="red" points="1044.5,-179.5 1044.5,-198.5 1130.5,-198.5 1130.5,-179.5 1044.5,-179.5"/>
<text text-anchor="middle" x="1087.5" y="-186.5" font-family="Helvetica,sans-Serif" font-size="10.00">ctl/control.hpp</text>
</a>
</g>
</g>
<!-- Node15&#45;&gt;Node24 -->
<g id="edge17" class="edge">
<title>Node15&#45;&gt;Node24</title>
<path fill="none" stroke="midnightblue" d="M1037.38,-302.3C1046.18,-282.59 1067.77,-234.21 1079.54,-207.84"/>
<polygon fill="midnightblue" stroke="midnightblue" points="1082.77,-209.18 1083.65,-198.62 1076.38,-206.33 1082.77,-209.18"/>
</g>
<!-- Node31 -->
<g id="node14" class="node">
<title>Node31</title>
<g id="a_node14"><a xlink:href="metrics_8hpp.html" target="_top" xlink:title=" ">
<polygon fill="white" stroke="red" points="1149,-179.5 1149,-198.5 1244,-198.5 1244,-179.5 1149,-179.5"/>
<text text-anchor="middle" x="1196.5" y="-186.5" font-family="Helvetica,sans-Serif" font-size="10.00">mtr/metrics.hpp</text>
</a>
</g>
</g>
<!-- Node15&#45;&gt;Node31 -->
<g id="edge27" class="edge">
<title>Node15&#45;&gt;Node31</title>
<path fill="none" stroke="midnightblue" d="M1075.35,-304.87C1117.68,-297.74 1178.89,-284.52 1193.5,-266 1206.25,-249.84 1204.59,-225.19 1201.33,-208.37"/>
<polygon fill="midnightblue" stroke="midnightblue" points="1204.75,-207.59 1199.1,-198.62 1197.92,-209.15 1204.75,-207.59"/>
</g>
<!-- Node39 -->
<g id="node15" class="node">
<title>Node39</title>
<g id="a_node15"><a xlink:href="indication_8hpp.html" target="_top" xlink:title=" ">
<polygon fill="white" stroke="red" points="916.5,-179.5 916.5,-198.5 1026.5,-198.5 1026.5,-179.5 916.5,-179.5"/>
<text text-anchor="middle" x="971.5" y="-186.5" font-family="Helvetica,sans-Serif" font-size="10.00">mon/indication.hpp</text>
</a>
</g>
</g>
<!-- Node15&#45;&gt;Node39 -->
<g id="edge18" class="edge">
<title>Node15&#45;&gt;Node39</title>
<path fill="none" stroke="midnightblue" d="M991.95,-302.96C971.23,-296.62 947.98,-285.46 935.5,-266 923.02,-246.53 939.76,-222.06 954.35,-206.23"/>
<polygon fill="midnightblue" stroke="midnightblue" points="957.11,-208.41 961.61,-198.81 952.11,-203.51 957.11,-208.41"/>
</g>
<!-- Node41 -->
<g id="node16" class="node">
<title>Node41</title>
<g id="a_node16"><a xlink:href="monitor_8hpp.html" target="_top" xlink:title=" ">
<polygon fill="white" stroke="red" points="944.5,-241 944.5,-260 1044.5,-260 1044.5,-241 944.5,-241"/>
<text text-anchor="middle" x="994.5" y="-248" font-family="Helvetica,sans-Serif" font-size="10.00">mon/monitor.hpp</text>
</a>
</g>
</g>
<!-- Node15&#45;&gt;Node41 -->
<g id="edge20" class="edge">
<title>Node15&#45;&gt;Node41</title>
<path fill="none" stroke="midnightblue" d="M1027.91,-302.48C1022.12,-293.64 1012.91,-279.59 1005.63,-268.48"/>
<polygon fill="midnightblue" stroke="midnightblue" points="1008.49,-266.45 1000.08,-260.01 1002.63,-270.29 1008.49,-266.45"/>
</g>
<!-- Node16&#45;&gt;Node24 -->
<g id="edge14" class="edge">
<title>Node16&#45;&gt;Node24</title>
<path fill="none" stroke="midnightblue" d="M1134.62,-240.98C1126.21,-231.87 1112.68,-217.24 1102.27,-205.98"/>
<polygon fill="midnightblue" stroke="midnightblue" points="1104.72,-203.48 1095.37,-198.51 1099.58,-208.23 1104.72,-203.48"/>
</g>
<!-- Node16&#45;&gt;Node31 -->
<g id="edge15" class="edge">
<title>Node16&#45;&gt;Node31</title>
<path fill="none" stroke="midnightblue" d="M1150.24,-240.98C1158.5,-231.87 1171.78,-217.24 1181.99,-205.98"/>
<polygon fill="midnightblue" stroke="midnightblue" points="1184.65,-208.27 1188.78,-198.51 1179.47,-203.56 1184.65,-208.27"/>
</g>
<!-- Node31&#45;&gt;Node5 -->
<g id="edge16" class="edge">
<title>Node31&#45;&gt;Node5</title>
<path fill="none" stroke="midnightblue" d="M1176.13,-179.32C1128.64,-159.08 1010.39,-108.68 955,-85.07"/>
<polygon fill="midnightblue" stroke="midnightblue" points="956.31,-81.83 945.74,-81.12 953.56,-88.27 956.31,-81.83"/>
</g>
<!-- Node39&#45;&gt;Node5 -->
<g id="edge19" class="edge">
<title>Node39&#45;&gt;Node5</title>
<path fill="none" stroke="midnightblue" d="M968.04,-179.32C960.58,-160.59 942.84,-116.05 932.79,-90.79"/>
<polygon fill="midnightblue" stroke="midnightblue" points="935.95,-89.28 929,-81.28 929.45,-91.87 935.95,-89.28"/>
</g>
<!-- Node41&#45;&gt;Node24 -->
<g id="edge21" class="edge">
<title>Node41&#45;&gt;Node24</title>
<path fill="none" stroke="midnightblue" d="M1007.82,-240.98C1022.88,-231.34 1047.62,-215.52 1065.54,-204.05"/>
<polygon fill="midnightblue" stroke="midnightblue" points="1067.66,-206.85 1074.2,-198.51 1063.89,-200.95 1067.66,-206.85"/>
</g>
<!-- Node41&#45;&gt;Node39 -->
<g id="edge26" class="edge">
<title>Node41&#45;&gt;Node39</title>
<path fill="none" stroke="midnightblue" d="M991.2,-240.98C987.89,-232.4 982.68,-218.93 978.45,-207.98"/>
<polygon fill="midnightblue" stroke="midnightblue" points="981.66,-206.57 974.79,-198.51 975.13,-209.1 981.66,-206.57"/>
</g>
<!-- Node20 -->
<g id="node17" class="node">
<title>Node20</title>
<g id="a_node17"><a xlink:href="interfaces_8hpp.html" target="_top" xlink:title=" ">
<polygon fill="white" stroke="red" points="793,-179.5 793,-198.5 898,-198.5 898,-179.5 793,-179.5"/>
<text text-anchor="middle" x="845.5" y="-186.5" font-family="Helvetica,sans-Serif" font-size="10.00">drv/interfaces.hpp</text>
</a>
</g>
</g>
<!-- Node41&#45;&gt;Node20 -->
<g id="edge22" class="edge">
<title>Node41&#45;&gt;Node20</title>
<path fill="none" stroke="midnightblue" d="M973.15,-240.98C947.81,-230.86 905.36,-213.9 876.43,-202.35"/>
<polygon fill="midnightblue" stroke="midnightblue" points="877.39,-198.97 866.81,-198.51 874.8,-205.47 877.39,-198.97"/>
</g>
<!-- Node20&#45;&gt;Node3 -->
<g id="edge25" class="edge">
<title>Node20&#45;&gt;Node3</title>
<path fill="none" stroke="midnightblue" d="M845.89,-179.46C847.11,-152.43 850.91,-68.24 852.64,-30.11"/>
<polygon fill="midnightblue" stroke="midnightblue" points="856.14,-30.02 853.1,-19.87 849.15,-29.7 856.14,-30.02"/>
</g>
<!-- Node20&#45;&gt;Node4 -->
<g id="edge24" class="edge">
<title>Node20&#45;&gt;Node4</title>
<path fill="none" stroke="midnightblue" d="M810.01,-179.44C771.18,-170.08 708.84,-155.06 666.58,-144.87"/>
<polygon fill="midnightblue" stroke="midnightblue" points="667.37,-141.46 656.83,-142.52 665.73,-148.26 667.37,-141.46"/>
</g>
<!-- Node20&#45;&gt;Node5 -->
<g id="edge23" class="edge">
<title>Node20&#45;&gt;Node5</title>
<path fill="none" stroke="midnightblue" d="M851.51,-179.32C864.66,-160.34 896.17,-114.85 913.53,-89.79"/>
<polygon fill="midnightblue" stroke="midnightblue" points="916.6,-91.5 919.42,-81.28 910.85,-87.51 916.6,-91.5"/>
</g>
<!-- Node42&#45;&gt;Node20 -->
<g id="edge29" class="edge">
<title>Node42&#45;&gt;Node20</title>
<path fill="none" stroke="midnightblue" d="M811.52,-302.4C828.67,-295.51 849.25,-283.98 859.5,-266 869.75,-248.02 862.57,-224.13 855.24,-207.96"/>
<polygon fill="midnightblue" stroke="midnightblue" points="858.17,-206 850.58,-198.6 851.9,-209.11 858.17,-206"/>
</g>
<!-- Node43 -->
<g id="node19" class="node">
<title>Node43</title>
<g id="a_node19"><a xlink:title=" ">
<polygon fill="white" stroke="#bfbfbf" points="717,-235.5 717,-265.5 850,-265.5 850,-235.5 717,-235.5"/>
<text text-anchor="start" x="725" y="-253.5" font-family="Helvetica,sans-Serif" font-size="10.00">emlabcpp/experimental</text>
<text text-anchor="middle" x="783.5" y="-242.5" font-family="Helvetica,sans-Serif" font-size="10.00">/function_view.h</text>
</a>
</g>
</g>
<!-- Node42&#45;&gt;Node43 -->
<g id="edge30" class="edge">
<title>Node42&#45;&gt;Node43</title>
<path fill="none" stroke="midnightblue" d="M783.5,-302.48C783.5,-295.47 783.5,-285.19 783.5,-275.7"/>
<polygon fill="midnightblue" stroke="midnightblue" points="787,-275.52 783.5,-265.52 780,-275.52 787,-275.52"/>
</g>
</g>
</svg>
