<?xml version="1.0" encoding="UTF-8" standalone="no"?>
<!DOCTYPE svg PUBLIC "-//W3C//DTD SVG 1.1//EN"
 "http://www.w3.org/Graphics/SVG/1.1/DTD/svg11.dtd">
<!-- Generated by graphviz version 2.43.0 (0)
 -->
<!-- Title: src/cfg/tests/cfg_utest.cpp Pages: 1 -->
<svg width="809pt" height="203pt"
 viewBox="0.00 0.00 809.00 203.00" xmlns="http://www.w3.org/2000/svg" xmlns:xlink="http://www.w3.org/1999/xlink">
<g id="graph0" class="graph" transform="scale(1 1) rotate(0) translate(4 199)">
<title>src/cfg/tests/cfg_utest.cpp</title>
<!-- Node1 -->
<g id="Node000001" class="node">
<title>Node1</title>
<g id="a_Node000001"><a xlink:title=" ">
<polygon fill="#999999" stroke="#666666" points="527.5,-195 383.5,-195 383.5,-176 527.5,-176 527.5,-195"/>
<text text-anchor="middle" x="455.5" y="-183" font-family="Helvetica,sans-Serif" font-size="10.00">src/cfg/tests/cfg_utest.cpp</text>
</a>
</g>
</g>
<!-- Node2 -->
<g id="Node000002" class="node">
<title>Node2</title>
<g id="a_Node000002"><a xlink:href="def_8h.html" target="_top" xlink:title=" ">
<polygon fill="white" stroke="#666666" points="189.5,-140 103.5,-140 103.5,-121 189.5,-121 189.5,-140"/>
<text text-anchor="middle" x="146.5" y="-128" font-family="Helvetica,sans-Serif" font-size="10.00">../../iface/def.h</text>
</a>
</g>
</g>
<!-- Node1&#45;&gt;Node2 -->
<g id="edge1_Node000001_Node000002" class="edge">
<title>Node1&#45;&gt;Node2</title>
<g id="a_edge1_Node000001_Node000002"><a xlink:title=" ">
<path fill="none" stroke="#63b8ff" d="M405.85,-175.98C349.36,-166.3 257.47,-150.53 199.59,-140.61"/>
<polygon fill="#63b8ff" stroke="#63b8ff" points="199.99,-137.12 189.54,-138.88 198.81,-144.02 199.99,-137.12"/>
</a>
</g>
</g>
<!-- Node10 -->
<g id="Node000010" class="node">
<title>Node10</title>
<g id="a_Node000010"><a xlink:href="default_8hpp.html" target="_top" xlink:title=" ">
<polygon fill="white" stroke="#666666" points="389,-140 308,-140 308,-121 389,-121 389,-140"/>
<text text-anchor="middle" x="348.5" y="-128" font-family="Helvetica,sans-Serif" font-size="10.00">../default.hpp</text>
</a>
</g>
</g>
<!-- Node1&#45;&gt;Node10 -->
<g id="edge6_Node000001_Node000010" class="edge">
<title>Node1&#45;&gt;Node10</title>
<g id="a_edge6_Node000001_Node000010"><a xlink:title=" ">
<path fill="none" stroke="#63b8ff" d="M438.31,-175.98C421.25,-167.54 394.87,-154.47 375.1,-144.68"/>
<polygon fill="#63b8ff" stroke="#63b8ff" points="376.52,-141.47 366,-140.17 373.41,-147.75 376.52,-141.47"/>
</a>
</g>
</g>
<!-- Node11 -->
<g id="Node000011" class="node">
<title>Node11</title>
<g id="a_Node000011"><a xlink:href="key_8hpp.html" target="_top" xlink:title=" ">
<polygon fill="#fff0f0" stroke="red" points="354,-24.5 295,-24.5 295,-5.5 354,-5.5 354,-24.5"/>
<text text-anchor="middle" x="324.5" y="-12.5" font-family="Helvetica,sans-Serif" font-size="10.00">./key.hpp</text>
</a>
</g>
</g>
<!-- Node1&#45;&gt;Node11 -->
<g id="edge12_Node000001_Node000011" class="edge">
<title>Node1&#45;&gt;Node11</title>
<g id="a_edge12_Node000001_Node000011"><a xlink:title=" ">
<path fill="none" stroke="#63b8ff" d="M450.43,-175.75C438.54,-155.52 407.43,-104.33 375.5,-66 365.23,-53.67 352.31,-41.03 342.05,-31.54"/>
<polygon fill="#63b8ff" stroke="#63b8ff" points="344.24,-28.81 334.48,-24.68 339.53,-33.99 344.24,-28.81"/>
</a>
</g>
</g>
<!-- Node12 -->
<g id="Node000012" class="node">
<title>Node12</title>
<g id="a_Node000012"><a xlink:href="map_8hpp.html" target="_top" xlink:title=" ">
<polygon fill="#fff0f0" stroke="red" points="351,-85 286,-85 286,-66 351,-66 351,-85"/>
<text text-anchor="middle" x="318.5" y="-73" font-family="Helvetica,sans-Serif" font-size="10.00">./map.hpp</text>
</a>
</g>
</g>
<!-- Node1&#45;&gt;Node12 -->
<g id="edge13_Node000001_Node000012" class="edge">
<title>Node1&#45;&gt;Node12</title>
<g id="a_edge13_Node000001_Node000012"><a xlink:title=" ">
<path fill="none" stroke="#63b8ff" d="M399.95,-175.97C359.95,-168.57 310.93,-156.44 298.5,-140 288.19,-126.37 296.47,-107.3 305.29,-93.62"/>
<polygon fill="#63b8ff" stroke="#63b8ff" points="308.37,-95.33 311.27,-85.14 302.65,-91.3 308.37,-95.33"/>
</a>
</g>
</g>
<!-- Node21 -->
<g id="Node000021" class="node">
<title>Node21</title>
<g id="a_Node000021"><a xlink:title=" ">
<polygon fill="#e0e0e0" stroke="#999999" points="539,-24.5 372,-24.5 372,-5.5 539,-5.5 539,-24.5"/>
<text text-anchor="middle" x="455.5" y="-12.5" font-family="Helvetica,sans-Serif" font-size="10.00">magic_enum/magic_enum.hpp</text>
</a>
</g>
</g>
<!-- Node1&#45;&gt;Node21 -->
<g id="edge15_Node000001_Node000021" class="edge">
<title>Node1&#45;&gt;Node21</title>
<g id="a_edge15_Node000001_Node000021"><a xlink:title=" ">
<path fill="none" stroke="#63b8ff" d="M455.5,-175.91C455.5,-149.89 455.5,-71.47 455.5,-35.01"/>
<polygon fill="#63b8ff" stroke="#63b8ff" points="459,-34.77 455.5,-24.77 452,-34.77 459,-34.77"/>
</a>
</g>
</g>
<!-- Node22 -->
<g id="Node000022" class="node">
<title>Node22</title>
<g id="a_Node000022"><a xlink:title=" ">
<polygon fill="#e0e0e0" stroke="#999999" points="561.5,-140 483.5,-140 483.5,-121 561.5,-121 561.5,-140"/>
<text text-anchor="middle" x="522.5" y="-128" font-family="Helvetica,sans-Serif" font-size="10.00">gtest/gtest.h</text>
</a>
</g>
</g>
<!-- Node1&#45;&gt;Node22 -->
<g id="edge14_Node000001_Node000022" class="edge">
<title>Node1&#45;&gt;Node22</title>
<g id="a_edge14_Node000001_Node000022"><a xlink:title=" ">
<path fill="none" stroke="#63b8ff" d="M466.26,-175.98C476.27,-168.07 491.39,-156.11 503.43,-146.58"/>
<polygon fill="#63b8ff" stroke="#63b8ff" points="505.87,-149.12 511.54,-140.17 501.53,-143.63 505.87,-149.12"/>
</a>
</g>
</g>
<!-- Node23 -->
<g id="Node000023" class="node">
<title>Node23</title>
<g id="a_Node000023"><a xlink:title=" ">
<polygon fill="#e0e0e0" stroke="#999999" points="649,-140 580,-140 580,-121 649,-121 649,-140"/>
<text text-anchor="middle" x="614.5" y="-128" font-family="Helvetica,sans-Serif" font-size="10.00">type_traits</text>
</a>
</g>
</g>
<!-- Node1&#45;&gt;Node23 -->
<g id="edge16_Node000001_Node000023" class="edge">
<title>Node1&#45;&gt;Node23</title>
<g id="a_edge16_Node000001_Node000023"><a xlink:title=" ">
<path fill="none" stroke="#63b8ff" d="M481.05,-175.98C507.62,-167.13 549.44,-153.19 579.17,-143.28"/>
<polygon fill="#63b8ff" stroke="#63b8ff" points="580.37,-146.56 588.75,-140.08 578.16,-139.92 580.37,-146.56"/>
</a>
</g>
</g>
<!-- Node24 -->
<g id="Node000024" class="node">
<title>Node24</title>
<g id="a_Node000024"><a xlink:title=" ">
<polygon fill="#e0e0e0" stroke="#999999" points="732,-140 667,-140 667,-121 732,-121 732,-140"/>
<text text-anchor="middle" x="699.5" y="-128" font-family="Helvetica,sans-Serif" font-size="10.00">typeindex</text>
</a>
</g>
</g>
<!-- Node1&#45;&gt;Node24 -->
<g id="edge17_Node000001_Node000024" class="edge">
<title>Node1&#45;&gt;Node24</title>
<g id="a_edge17_Node000001_Node000024"><a xlink:title=" ">
<path fill="none" stroke="#63b8ff" d="M494.7,-175.98C539.04,-166.35 611,-150.72 656.75,-140.79"/>
<polygon fill="#63b8ff" stroke="#63b8ff" points="657.62,-144.18 666.65,-138.63 656.14,-137.34 657.62,-144.18"/>
</a>
</g>
</g>
<!-- Node25 -->
<g id="Node000025" class="node">
<title>Node25</title>
<g id="a_Node000025"><a xlink:title=" ">
<polygon fill="#e0e0e0" stroke="#999999" points="801,-140 750,-140 750,-121 801,-121 801,-140"/>
<text text-anchor="middle" x="775.5" y="-128" font-family="Helvetica,sans-Serif" font-size="10.00">variant</text>
</a>
</g>
</g>
<!-- Node1&#45;&gt;Node25 -->
<g id="edge18_Node000001_Node000025" class="edge">
<title>Node1&#45;&gt;Node25</title>
<g id="a_edge18_Node000001_Node000025"><a xlink:title=" ">
<path fill="none" stroke="#63b8ff" d="M521.4,-175.97C577.18,-168.36 659.43,-156.22 739.66,-140.23"/>
<polygon fill="#63b8ff" stroke="#63b8ff" points="740.83,-143.56 749.94,-138.15 739.44,-136.7 740.83,-143.56"/>
</a>
</g>
</g>
<!-- Node3 -->
<g id="Node000003" class="node">
<title>Node3</title>
<g id="a_Node000003"><a xlink:href="base_8h.html" target="_top" xlink:title=" ">
<polygon fill="#fff0f0" stroke="red" points="55,-85 0,-85 0,-66 55,-66 55,-85"/>
<text text-anchor="middle" x="27.5" y="-73" font-family="Helvetica,sans-Serif" font-size="10.00">./base.h</text>
</a>
</g>
</g>
<!-- Node2&#45;&gt;Node3 -->
<g id="edge2_Node000002_Node000003" class="edge">
<title>Node2&#45;&gt;Node3</title>
<g id="a_edge2_Node000002_Node000003"><a xlink:title=" ">
<path fill="none" stroke="#63b8ff" d="M127.38,-120.98C108.15,-112.42 78.27,-99.11 56.19,-89.28"/>
<polygon fill="#63b8ff" stroke="#63b8ff" points="57.53,-86.04 46.97,-85.17 54.68,-92.44 57.53,-86.04"/>
</a>
</g>
</g>
<!-- Node7 -->
<g id="Node000007" class="node">
<title>Node7</title>
<g id="a_Node000007"><a xlink:title=" ">
<polygon fill="#e0e0e0" stroke="#999999" points="214,-30 81,-30 81,0 214,0 214,-30"/>
<text text-anchor="start" x="89" y="-18" font-family="Helvetica,sans-Serif" font-size="10.00">emlabcpp/experimental</text>
<text text-anchor="middle" x="147.5" y="-7" font-family="Helvetica,sans-Serif" font-size="10.00">/string_buffer.h</text>
</a>
</g>
</g>
<!-- Node2&#45;&gt;Node7 -->
<g id="edge3_Node000002_Node000007" class="edge">
<title>Node2&#45;&gt;Node7</title>
<g id="a_edge3_Node000002_Node000007"><a xlink:title=" ">
<path fill="none" stroke="#63b8ff" d="M133.28,-120.83C117.47,-109.29 94.14,-87.79 102.5,-66 106.58,-55.37 114.08,-45.58 121.8,-37.54"/>
<polygon fill="#63b8ff" stroke="#63b8ff" points="124.73,-39.58 129.48,-30.11 119.86,-34.55 124.73,-39.58"/>
</a>
</g>
</g>
<!-- Node8 -->
<g id="Node000008" class="node">
<title>Node8</title>
<g id="a_Node000008"><a xlink:title=" ">
<polygon fill="#e0e0e0" stroke="#999999" points="181,-85 112,-85 112,-66 181,-66 181,-85"/>
<text text-anchor="middle" x="146.5" y="-73" font-family="Helvetica,sans-Serif" font-size="10.00">vari/vopt.h</text>
</a>
</g>
</g>
<!-- Node2&#45;&gt;Node8 -->
<g id="edge4_Node000002_Node000008" class="edge">
<title>Node2&#45;&gt;Node8</title>
<g id="a_edge4_Node000002_Node000008"><a xlink:title=" ">
<path fill="none" stroke="#63b8ff" d="M146.5,-120.75C146.5,-113.8 146.5,-103.85 146.5,-95.13"/>
<polygon fill="#63b8ff" stroke="#63b8ff" points="150,-95.09 146.5,-85.09 143,-95.09 150,-95.09"/>
</a>
</g>
</g>
<!-- Node9 -->
<g id="Node000009" class="node">
<title>Node9</title>
<g id="a_Node000009"><a xlink:title=" ">
<polygon fill="#e0e0e0" stroke="#999999" points="267.5,-85 199.5,-85 199.5,-66 267.5,-66 267.5,-85"/>
<text text-anchor="middle" x="233.5" y="-73" font-family="Helvetica,sans-Serif" font-size="10.00">vari/vval.h</text>
</a>
</g>
</g>
<!-- Node2&#45;&gt;Node9 -->
<g id="edge5_Node000002_Node000009" class="edge">
<title>Node2&#45;&gt;Node9</title>
<g id="a_edge5_Node000002_Node000009"><a xlink:title=" ">
<path fill="none" stroke="#63b8ff" d="M160.48,-120.98C173.97,-112.77 194.63,-100.18 210.54,-90.49"/>
<polygon fill="#63b8ff" stroke="#63b8ff" points="212.55,-93.36 219.27,-85.17 208.91,-87.38 212.55,-93.36"/>
</a>
</g>
</g>
<!-- Node10&#45;&gt;Node11 -->
<g id="edge7_Node000010_Node000011" class="edge">
<title>Node10&#45;&gt;Node11</title>
<g id="a_edge7_Node000010_Node000011"><a xlink:title=" ">
<path fill="none" stroke="#63b8ff" d="M352.61,-120.7C357.83,-108.27 365.49,-84.99 359.5,-66 355.59,-53.59 347.38,-41.59 339.89,-32.45"/>
<polygon fill="#63b8ff" stroke="#63b8ff" points="342.31,-29.9 333.1,-24.65 337.03,-34.49 342.31,-29.9"/>
</a>
</g>
</g>
<!-- Node10&#45;&gt;Node12 -->
<g id="edge8_Node000010_Node000012" class="edge">
<title>Node10&#45;&gt;Node12</title>
<g id="a_edge8_Node000010_Node000012"><a xlink:title=" ">
<path fill="none" stroke="#63b8ff" d="M343.55,-120.75C339.44,-113.49 333.47,-102.95 328.4,-93.98"/>
<polygon fill="#63b8ff" stroke="#63b8ff" points="331.33,-92.07 323.36,-85.09 325.24,-95.52 331.33,-92.07"/>
</a>
</g>
</g>
<!-- Node12&#45;&gt;Node7 -->
<g id="edge10_Node000012_Node000007" class="edge">
<title>Node12&#45;&gt;Node7</title>
<g id="a_edge10_Node000012_Node000007"><a xlink:title=" ">
<path fill="none" stroke="#63b8ff" d="M293.64,-65.99C268.7,-57.46 229.6,-44.09 198.11,-33.32"/>
<polygon fill="#63b8ff" stroke="#63b8ff" points="199.21,-29.99 188.61,-30.06 196.94,-36.61 199.21,-29.99"/>
</a>
</g>
</g>
<!-- Node12&#45;&gt;Node11 -->
<g id="edge9_Node000012_Node000011" class="edge">
<title>Node12&#45;&gt;Node11</title>
<g id="a_edge9_Node000012_Node000011"><a xlink:title=" ">
<path fill="none" stroke="#63b8ff" d="M319.39,-65.87C320.22,-57.75 321.49,-45.31 322.56,-34.89"/>
<polygon fill="#63b8ff" stroke="#63b8ff" points="326.07,-34.97 323.61,-24.67 319.11,-34.26 326.07,-34.97"/>
</a>
</g>
</g>
<!-- Node12&#45;&gt;Node21 -->
<g id="edge11_Node000012_Node000021" class="edge">
<title>Node12&#45;&gt;Node21</title>
<g id="a_edge11_Node000012_Node000021"><a xlink:title=" ">
<path fill="none" stroke="#63b8ff" d="M338.42,-65.99C361.45,-56.16 399.58,-39.88 426.04,-28.58"/>
<polygon fill="#63b8ff" stroke="#63b8ff" points="427.73,-31.66 435.55,-24.52 424.98,-25.22 427.73,-31.66"/>
</a>
</g>
</g>
</g>
</svg>
