<?xml version="1.0" encoding="UTF-8" standalone="no"?>
<!DOCTYPE svg PUBLIC "-//W3C//DTD SVG 1.1//EN"
 "http://www.w3.org/Graphics/SVG/1.1/DTD/svg11.dtd">
<!-- Generated by graphviz version 2.43.0 (0)
 -->
<!-- Title: src/cfg/tests/cfg_utest.cpp Pages: 1 -->
<svg width="804pt" height="258pt"
 viewBox="0.00 0.00 804.00 258.00" xmlns="http://www.w3.org/2000/svg" xmlns:xlink="http://www.w3.org/1999/xlink">
<g id="graph0" class="graph" transform="scale(1 1) rotate(0) translate(4 254)">
<title>src/cfg/tests/cfg_utest.cpp</title>
<!-- Node1 -->
<g id="Node000001" class="node">
<title>Node1</title>
<g id="a_Node000001"><a xlink:title=" ">
<polygon fill="#999999" stroke="#666666" points="545.5,-250 401.5,-250 401.5,-231 545.5,-231 545.5,-250"/>
<text text-anchor="middle" x="473.5" y="-238" font-family="Helvetica,sans-Serif" font-size="10.00">src/cfg/tests/cfg_utest.cpp</text>
</a>
</g>
</g>
<!-- Node2 -->
<g id="Node000002" class="node">
<title>Node2</title>
<g id="a_Node000002"><a xlink:href="iface_2def_8hpp.html" target="_top" xlink:title=" ">
<polygon fill="white" stroke="#666666" points="161.5,-195 63.5,-195 63.5,-176 161.5,-176 161.5,-195"/>
<text text-anchor="middle" x="112.5" y="-183" font-family="Helvetica,sans-Serif" font-size="10.00">../../iface/def.hpp</text>
</a>
</g>
</g>
<!-- Node1&#45;&gt;Node2 -->
<g id="edge1_Node000001_Node000002" class="edge">
<title>Node1&#45;&gt;Node2</title>
<g id="a_edge1_Node000001_Node000002"><a xlink:title=" ">
<path fill="none" stroke="#63b8ff" d="M415.5,-230.98C348.58,-221.16 239.12,-205.09 171.7,-195.19"/>
<polygon fill="#63b8ff" stroke="#63b8ff" points="172.06,-191.71 161.66,-193.72 171.04,-198.63 172.06,-191.71"/>
</a>
</g>
</g>
<!-- Node17 -->
<g id="Node000017" class="node">
<title>Node17</title>
<g id="a_Node000017"><a xlink:href="cfg_2def_8hpp.html" target="_top" xlink:title=" ">
<polygon fill="white" stroke="#666666" points="275.5,-195 213.5,-195 213.5,-176 275.5,-176 275.5,-195"/>
<text text-anchor="middle" x="244.5" y="-183" font-family="Helvetica,sans-Serif" font-size="10.00">../def.hpp</text>
</a>
</g>
</g>
<!-- Node1&#45;&gt;Node17 -->
<g id="edge10_Node000001_Node000017" class="edge">
<title>Node1&#45;&gt;Node17</title>
<g id="a_edge10_Node000001_Node000017"><a xlink:title=" ">
<path fill="none" stroke="#63b8ff" d="M436.71,-230.98C395.39,-221.42 328.51,-205.94 285.53,-196"/>
<polygon fill="#63b8ff" stroke="#63b8ff" points="286.22,-192.56 275.68,-193.72 284.64,-199.38 286.22,-192.56"/>
</a>
</g>
</g>
<!-- Node29 -->
<g id="Node000029" class="node">
<title>Node29</title>
<g id="a_Node000029"><a xlink:title=" ">
<polygon fill="#e0e0e0" stroke="#999999" points="371.5,-195 293.5,-195 293.5,-176 371.5,-176 371.5,-195"/>
<text text-anchor="middle" x="332.5" y="-183" font-family="Helvetica,sans-Serif" font-size="10.00">gtest/gtest.h</text>
</a>
</g>
</g>
<!-- Node1&#45;&gt;Node29 -->
<g id="edge14_Node000001_Node000029" class="edge">
<title>Node1&#45;&gt;Node29</title>
<g id="a_edge14_Node000001_Node000029"><a xlink:title=" ">
<path fill="none" stroke="#63b8ff" d="M450.85,-230.98C427.65,-222.27 391.38,-208.63 365.1,-198.75"/>
<polygon fill="#63b8ff" stroke="#63b8ff" points="366.16,-195.41 355.57,-195.17 363.7,-201.97 366.16,-195.41"/>
</a>
</g>
</g>
<!-- Node30 -->
<g id="Node000030" class="node">
<title>Node30</title>
<g id="a_Node000030"><a xlink:title=" ">
<polygon fill="#e0e0e0" stroke="#999999" points="557,-195 390,-195 390,-176 557,-176 557,-195"/>
<text text-anchor="middle" x="473.5" y="-183" font-family="Helvetica,sans-Serif" font-size="10.00">magic_enum/magic_enum.hpp</text>
</a>
</g>
</g>
<!-- Node1&#45;&gt;Node30 -->
<g id="edge15_Node000001_Node000030" class="edge">
<title>Node1&#45;&gt;Node30</title>
<g id="a_edge15_Node000001_Node000030"><a xlink:title=" ">
<path fill="none" stroke="#63b8ff" d="M473.5,-230.75C473.5,-223.8 473.5,-213.85 473.5,-205.13"/>
<polygon fill="#63b8ff" stroke="#63b8ff" points="477,-205.09 473.5,-195.09 470,-205.09 477,-205.09"/>
</a>
</g>
</g>
<!-- Node31 -->
<g id="Node000031" class="node">
<title>Node31</title>
<g id="a_Node000031"><a xlink:title=" ">
<polygon fill="#e0e0e0" stroke="#999999" points="644,-195 575,-195 575,-176 644,-176 644,-195"/>
<text text-anchor="middle" x="609.5" y="-183" font-family="Helvetica,sans-Serif" font-size="10.00">type_traits</text>
</a>
</g>
</g>
<!-- Node1&#45;&gt;Node31 -->
<g id="edge16_Node000001_Node000031" class="edge">
<title>Node1&#45;&gt;Node31</title>
<g id="a_edge16_Node000001_Node000031"><a xlink:title=" ">
<path fill="none" stroke="#63b8ff" d="M495.35,-230.98C517.62,-222.3 552.4,-208.75 577.72,-198.88"/>
<polygon fill="#63b8ff" stroke="#63b8ff" points="579.21,-202.06 587.25,-195.17 576.66,-195.54 579.21,-202.06"/>
</a>
</g>
</g>
<!-- Node32 -->
<g id="Node000032" class="node">
<title>Node32</title>
<g id="a_Node000032"><a xlink:title=" ">
<polygon fill="#e0e0e0" stroke="#999999" points="727,-195 662,-195 662,-176 727,-176 727,-195"/>
<text text-anchor="middle" x="694.5" y="-183" font-family="Helvetica,sans-Serif" font-size="10.00">typeindex</text>
</a>
</g>
</g>
<!-- Node1&#45;&gt;Node32 -->
<g id="edge17_Node000001_Node000032" class="edge">
<title>Node1&#45;&gt;Node32</title>
<g id="a_edge17_Node000001_Node000032"><a xlink:title=" ">
<path fill="none" stroke="#63b8ff" d="M509.01,-230.98C548.01,-221.63 610.61,-206.62 652.14,-196.66"/>
<polygon fill="#63b8ff" stroke="#63b8ff" points="653.05,-200.04 661.96,-194.3 651.42,-193.23 653.05,-200.04"/>
</a>
</g>
</g>
<!-- Node33 -->
<g id="Node000033" class="node">
<title>Node33</title>
<g id="a_Node000033"><a xlink:title=" ">
<polygon fill="#e0e0e0" stroke="#999999" points="796,-195 745,-195 745,-176 796,-176 796,-195"/>
<text text-anchor="middle" x="770.5" y="-183" font-family="Helvetica,sans-Serif" font-size="10.00">variant</text>
</a>
</g>
</g>
<!-- Node1&#45;&gt;Node33 -->
<g id="edge18_Node000001_Node000033" class="edge">
<title>Node1&#45;&gt;Node33</title>
<g id="a_edge18_Node000001_Node000033"><a xlink:title=" ">
<path fill="none" stroke="#63b8ff" d="M531.72,-230.97C582.88,-223.18 659.54,-210.78 734.8,-195.23"/>
<polygon fill="#63b8ff" stroke="#63b8ff" points="735.85,-198.59 744.93,-193.12 734.43,-191.73 735.85,-198.59"/>
</a>
</g>
</g>
<!-- Node3 -->
<g id="Node000003" class="node">
<title>Node3</title>
<g id="a_Node000003"><a xlink:href="parser_8hpp.html" target="_top" xlink:title=" ">
<polygon fill="#fff0f0" stroke="red" points="189.5,-85 97.5,-85 97.5,-66 189.5,-66 189.5,-85"/>
<text text-anchor="middle" x="143.5" y="-73" font-family="Helvetica,sans-Serif" font-size="10.00">../lib/parser.hpp</text>
</a>
</g>
</g>
<!-- Node2&#45;&gt;Node3 -->
<g id="edge2_Node000002_Node000003" class="edge">
<title>Node2&#45;&gt;Node3</title>
<g id="a_edge2_Node000002_Node000003"><a xlink:title=" ">
<path fill="none" stroke="#63b8ff" d="M81.88,-175.97C50.61,-165.65 8.96,-146.44 26.5,-121 40.36,-100.9 64.6,-89.87 87.43,-83.82"/>
<polygon fill="#63b8ff" stroke="#63b8ff" points="88.51,-87.16 97.44,-81.45 86.9,-80.35 88.51,-87.16"/>
</a>
</g>
</g>
<!-- Node9 -->
<g id="Node000009" class="node">
<title>Node9</title>
<g id="a_Node000009"><a xlink:title=" ">
<polygon fill="#e0e0e0" stroke="#999999" points="284,-30 151,-30 151,0 284,0 284,-30"/>
<text text-anchor="start" x="159" y="-18" font-family="Helvetica,sans-Serif" font-size="10.00">emlabcpp/experimental</text>
<text text-anchor="middle" x="217.5" y="-7" font-family="Helvetica,sans-Serif" font-size="10.00">/string_buffer.h</text>
</a>
</g>
</g>
<!-- Node2&#45;&gt;Node9 -->
<g id="edge7_Node000002_Node000009" class="edge">
<title>Node2&#45;&gt;Node9</title>
<g id="a_edge7_Node000002_Node000009"><a xlink:title=" ">
<path fill="none" stroke="#63b8ff" d="M144.38,-175.98C163.1,-169.29 185.56,-158.03 198.5,-140 219.6,-110.61 221.32,-67.15 219.92,-40.26"/>
<polygon fill="#63b8ff" stroke="#63b8ff" points="223.4,-39.89 219.21,-30.16 216.42,-40.39 223.4,-39.89"/>
</a>
</g>
</g>
<!-- Node11 -->
<g id="Node000011" class="node">
<title>Node11</title>
<g id="a_Node000011"><a xlink:title=" ">
<polygon fill="#e0e0e0" stroke="#999999" points="69,-24.5 0,-24.5 0,-5.5 69,-5.5 69,-24.5"/>
<text text-anchor="middle" x="34.5" y="-12.5" font-family="Helvetica,sans-Serif" font-size="10.00">vari/vopt.h</text>
</a>
</g>
</g>
<!-- Node2&#45;&gt;Node11 -->
<g id="edge8_Node000002_Node000011" class="edge">
<title>Node2&#45;&gt;Node11</title>
<g id="a_edge8_Node000002_Node000011"><a xlink:title=" ">
<path fill="none" stroke="#63b8ff" d="M71.88,-175.99C52.18,-169.59 30.28,-158.61 18.5,-140 -2.32,-107.12 13.87,-59.47 25.45,-33.87"/>
<polygon fill="#63b8ff" stroke="#63b8ff" points="28.7,-35.17 29.86,-24.64 22.39,-32.15 28.7,-35.17"/>
</a>
</g>
</g>
<!-- Node12 -->
<g id="Node000012" class="node">
<title>Node12</title>
<g id="a_Node000012"><a xlink:href="iface_2base_8hpp.html" target="_top" xlink:title=" ">
<polygon fill="#fff0f0" stroke="red" points="189,-140 122,-140 122,-121 189,-121 189,-140"/>
<text text-anchor="middle" x="155.5" y="-128" font-family="Helvetica,sans-Serif" font-size="10.00">./base.hpp</text>
</a>
</g>
</g>
<!-- Node2&#45;&gt;Node12 -->
<g id="edge5_Node000002_Node000012" class="edge">
<title>Node2&#45;&gt;Node12</title>
<g id="a_edge5_Node000002_Node000012"><a xlink:title=" ">
<path fill="none" stroke="#63b8ff" d="M119.6,-175.75C125.67,-168.26 134.59,-157.28 142.01,-148.13"/>
<polygon fill="#63b8ff" stroke="#63b8ff" points="144.95,-150.06 148.53,-140.09 139.51,-145.65 144.95,-150.06"/>
</a>
</g>
</g>
<!-- Node16 -->
<g id="Node000016" class="node">
<title>Node16</title>
<g id="a_Node000016"><a xlink:title=" ">
<polygon fill="#e0e0e0" stroke="#999999" points="103.5,-140 35.5,-140 35.5,-121 103.5,-121 103.5,-140"/>
<text text-anchor="middle" x="69.5" y="-128" font-family="Helvetica,sans-Serif" font-size="10.00">vari/vval.h</text>
</a>
</g>
</g>
<!-- Node2&#45;&gt;Node16 -->
<g id="edge9_Node000002_Node000016" class="edge">
<title>Node2&#45;&gt;Node16</title>
<g id="a_edge9_Node000002_Node000016"><a xlink:title=" ">
<path fill="none" stroke="#63b8ff" d="M105.4,-175.75C99.33,-168.26 90.41,-157.28 82.99,-148.13"/>
<polygon fill="#63b8ff" stroke="#63b8ff" points="85.49,-145.65 76.47,-140.09 80.05,-150.06 85.49,-145.65"/>
</a>
</g>
</g>
<!-- Node3&#45;&gt;Node9 -->
<g id="edge3_Node000003_Node000009" class="edge">
<title>Node3&#45;&gt;Node9</title>
<g id="a_edge3_Node000003_Node000009"><a xlink:title=" ">
<path fill="none" stroke="#63b8ff" d="M154.42,-65.87C164.18,-58.15 178.87,-46.54 191.62,-36.46"/>
<polygon fill="#63b8ff" stroke="#63b8ff" points="193.97,-39.06 199.65,-30.11 189.63,-33.57 193.97,-39.06"/>
</a>
</g>
</g>
<!-- Node3&#45;&gt;Node11 -->
<g id="edge4_Node000003_Node000011" class="edge">
<title>Node3&#45;&gt;Node11</title>
<g id="a_edge4_Node000003_Node000011"><a xlink:title=" ">
<path fill="none" stroke="#63b8ff" d="M127.42,-65.87C109.55,-56.28 80.46,-40.67 59.59,-29.47"/>
<polygon fill="#63b8ff" stroke="#63b8ff" points="61.12,-26.31 50.65,-24.67 57.81,-32.48 61.12,-26.31"/>
</a>
</g>
</g>
<!-- Node12&#45;&gt;Node3 -->
<g id="edge6_Node000012_Node000003" class="edge">
<title>Node12&#45;&gt;Node3</title>
<g id="a_edge6_Node000012_Node000003"><a xlink:title=" ">
<path fill="none" stroke="#63b8ff" d="M153.52,-120.75C151.93,-113.72 149.64,-103.62 147.65,-94.84"/>
<polygon fill="#63b8ff" stroke="#63b8ff" points="151.07,-94.07 145.44,-85.09 144.24,-95.62 151.07,-94.07"/>
</a>
</g>
</g>
<!-- Node18 -->
<g id="Node000018" class="node">
<title>Node18</title>
<g id="a_Node000018"><a xlink:href="cfg_2base_8hpp.html" target="_top" xlink:title=" ">
<polygon fill="#fff0f0" stroke="red" points="313,-140 246,-140 246,-121 313,-121 313,-140"/>
<text text-anchor="middle" x="279.5" y="-128" font-family="Helvetica,sans-Serif" font-size="10.00">./base.hpp</text>
</a>
</g>
</g>
<!-- Node17&#45;&gt;Node18 -->
<g id="edge11_Node000017_Node000018" class="edge">
<title>Node17&#45;&gt;Node18</title>
<g id="a_edge11_Node000017_Node000018"><a xlink:title=" ">
<path fill="none" stroke="#63b8ff" d="M250.28,-175.75C255.12,-168.42 262.18,-157.73 268.14,-148.7"/>
<polygon fill="#63b8ff" stroke="#63b8ff" points="271.24,-150.36 273.83,-140.09 265.4,-146.5 271.24,-150.36"/>
</a>
</g>
</g>
<!-- Node18&#45;&gt;Node3 -->
<g id="edge12_Node000018_Node000003" class="edge">
<title>Node18&#45;&gt;Node3</title>
<g id="a_edge12_Node000018_Node000003"><a xlink:title=" ">
<path fill="none" stroke="#63b8ff" d="M257.65,-120.98C235.38,-112.3 200.6,-98.75 175.28,-88.88"/>
<polygon fill="#63b8ff" stroke="#63b8ff" points="176.34,-85.54 165.75,-85.17 173.79,-92.06 176.34,-85.54"/>
</a>
</g>
</g>
<!-- Node18&#45;&gt;Node9 -->
<g id="edge13_Node000018_Node000009" class="edge">
<title>Node18&#45;&gt;Node9</title>
<g id="a_edge13_Node000018_Node000009"><a xlink:title=" ">
<path fill="none" stroke="#63b8ff" d="M274.84,-120.97C265.45,-103.78 243.98,-64.47 230.14,-39.13"/>
<polygon fill="#63b8ff" stroke="#63b8ff" points="233.11,-37.28 225.25,-30.18 226.97,-40.64 233.11,-37.28"/>
</a>
</g>
</g>
</g>
</svg>
