<?xml version="1.0" encoding="UTF-8" standalone="no"?>
<!DOCTYPE svg PUBLIC "-//W3C//DTD SVG 1.1//EN"
 "http://www.w3.org/Graphics/SVG/1.1/DTD/svg11.dtd">
<!-- Generated by graphviz version 2.43.0 (0)
 -->
<!-- Title: src/cfg/tests/cfg_utest.cpp Pages: 1 -->
<svg width="888pt" height="258pt"
 viewBox="0.00 0.00 888.48 258.00" xmlns="http://www.w3.org/2000/svg" xmlns:xlink="http://www.w3.org/1999/xlink">
<g id="graph0" class="graph" transform="scale(1 1) rotate(0) translate(4 254)">
<title>src/cfg/tests/cfg_utest.cpp</title>
<!-- Node1 -->
<g id="Node000001" class="node">
<title>Node1</title>
<g id="a_Node000001"><a xlink:title=" ">
<polygon fill="#999999" stroke="#666666" points="629.98,-250 485.98,-250 485.98,-231 629.98,-231 629.98,-250"/>
<text text-anchor="middle" x="557.98" y="-238" font-family="Helvetica,sans-Serif" font-size="10.00">src/cfg/tests/cfg_utest.cpp</text>
</a>
</g>
</g>
<!-- Node2 -->
<g id="Node000002" class="node">
<title>Node2</title>
<g id="a_Node000002"><a xlink:href="iface_2def_8hpp.html" target="_top" xlink:title=" ">
<polygon fill="white" stroke="#666666" points="217.98,-195 119.98,-195 119.98,-176 217.98,-176 217.98,-195"/>
<text text-anchor="middle" x="168.98" y="-183" font-family="Helvetica,sans-Serif" font-size="10.00">../../iface/def.hpp</text>
</a>
</g>
</g>
<!-- Node1&#45;&gt;Node2 -->
<g id="edge1_Node000001_Node000002" class="edge">
<title>Node1&#45;&gt;Node2</title>
<g id="a_edge1_Node000001_Node000002"><a xlink:title=" ">
<path fill="none" stroke="#63b8ff" d="M495.48,-230.98C421.89,-220.96 300.57,-204.43 228.36,-194.59"/>
<polygon fill="#63b8ff" stroke="#63b8ff" points="228.45,-191.07 218.07,-193.19 227.51,-198.01 228.45,-191.07"/>
</a>
</g>
</g>
<!-- Node16 -->
<g id="Node000016" class="node">
<title>Node16</title>
<g id="a_Node000016"><a xlink:href="cfg_2def_8hpp.html" target="_top" xlink:title=" ">
<polygon fill="white" stroke="#666666" points="359.98,-195 297.98,-195 297.98,-176 359.98,-176 359.98,-195"/>
<text text-anchor="middle" x="328.98" y="-183" font-family="Helvetica,sans-Serif" font-size="10.00">../def.hpp</text>
</a>
</g>
</g>
<!-- Node1&#45;&gt;Node16 -->
<g id="edge10_Node000001_Node000016" class="edge">
<title>Node1&#45;&gt;Node16</title>
<g id="a_edge10_Node000001_Node000016"><a xlink:title=" ">
<path fill="none" stroke="#63b8ff" d="M521.19,-230.98C479.87,-221.42 412.99,-205.94 370.01,-196"/>
<polygon fill="#63b8ff" stroke="#63b8ff" points="370.69,-192.56 360.16,-193.72 369.12,-199.38 370.69,-192.56"/>
</a>
</g>
</g>
<!-- Node24 -->
<g id="Node000024" class="node">
<title>Node24</title>
<g id="a_Node000024"><a xlink:title=" ">
<polygon fill="#e0e0e0" stroke="#999999" points="455.98,-195 377.98,-195 377.98,-176 455.98,-176 455.98,-195"/>
<text text-anchor="middle" x="416.98" y="-183" font-family="Helvetica,sans-Serif" font-size="10.00">gtest/gtest.h</text>
</a>
</g>
</g>
<!-- Node1&#45;&gt;Node24 -->
<g id="edge14_Node000001_Node000024" class="edge">
<title>Node1&#45;&gt;Node24</title>
<g id="a_edge14_Node000001_Node000024"><a xlink:title=" ">
<path fill="none" stroke="#63b8ff" d="M535.32,-230.98C512.13,-222.27 475.86,-208.63 449.58,-198.75"/>
<polygon fill="#63b8ff" stroke="#63b8ff" points="450.64,-195.41 440.04,-195.17 448.17,-201.97 450.64,-195.41"/>
</a>
</g>
</g>
<!-- Node25 -->
<g id="Node000025" class="node">
<title>Node25</title>
<g id="a_Node000025"><a xlink:title=" ">
<polygon fill="#e0e0e0" stroke="#999999" points="641.48,-195 474.48,-195 474.48,-176 641.48,-176 641.48,-195"/>
<text text-anchor="middle" x="557.98" y="-183" font-family="Helvetica,sans-Serif" font-size="10.00">magic_enum/magic_enum.hpp</text>
</a>
</g>
</g>
<!-- Node1&#45;&gt;Node25 -->
<g id="edge15_Node000001_Node000025" class="edge">
<title>Node1&#45;&gt;Node25</title>
<g id="a_edge15_Node000001_Node000025"><a xlink:title=" ">
<path fill="none" stroke="#63b8ff" d="M557.98,-230.75C557.98,-223.8 557.98,-213.85 557.98,-205.13"/>
<polygon fill="#63b8ff" stroke="#63b8ff" points="561.48,-205.09 557.98,-195.09 554.48,-205.09 561.48,-205.09"/>
</a>
</g>
</g>
<!-- Node26 -->
<g id="Node000026" class="node">
<title>Node26</title>
<g id="a_Node000026"><a xlink:title=" ">
<polygon fill="#e0e0e0" stroke="#999999" points="728.48,-195 659.48,-195 659.48,-176 728.48,-176 728.48,-195"/>
<text text-anchor="middle" x="693.98" y="-183" font-family="Helvetica,sans-Serif" font-size="10.00">type_traits</text>
</a>
</g>
</g>
<!-- Node1&#45;&gt;Node26 -->
<g id="edge16_Node000001_Node000026" class="edge">
<title>Node1&#45;&gt;Node26</title>
<g id="a_edge16_Node000001_Node000026"><a xlink:title=" ">
<path fill="none" stroke="#63b8ff" d="M579.83,-230.98C602.1,-222.3 636.88,-208.75 662.2,-198.88"/>
<polygon fill="#63b8ff" stroke="#63b8ff" points="663.68,-202.06 671.73,-195.17 661.14,-195.54 663.68,-202.06"/>
</a>
</g>
</g>
<!-- Node27 -->
<g id="Node000027" class="node">
<title>Node27</title>
<g id="a_Node000027"><a xlink:title=" ">
<polygon fill="#e0e0e0" stroke="#999999" points="811.48,-195 746.48,-195 746.48,-176 811.48,-176 811.48,-195"/>
<text text-anchor="middle" x="778.98" y="-183" font-family="Helvetica,sans-Serif" font-size="10.00">typeindex</text>
</a>
</g>
</g>
<!-- Node1&#45;&gt;Node27 -->
<g id="edge17_Node000001_Node000027" class="edge">
<title>Node1&#45;&gt;Node27</title>
<g id="a_edge17_Node000001_Node000027"><a xlink:title=" ">
<path fill="none" stroke="#63b8ff" d="M593.49,-230.98C632.49,-221.63 695.09,-206.62 736.62,-196.66"/>
<polygon fill="#63b8ff" stroke="#63b8ff" points="737.53,-200.04 746.44,-194.3 735.9,-193.23 737.53,-200.04"/>
</a>
</g>
</g>
<!-- Node28 -->
<g id="Node000028" class="node">
<title>Node28</title>
<g id="a_Node000028"><a xlink:title=" ">
<polygon fill="#e0e0e0" stroke="#999999" points="880.48,-195 829.48,-195 829.48,-176 880.48,-176 880.48,-195"/>
<text text-anchor="middle" x="854.98" y="-183" font-family="Helvetica,sans-Serif" font-size="10.00">variant</text>
</a>
</g>
</g>
<!-- Node1&#45;&gt;Node28 -->
<g id="edge18_Node000001_Node000028" class="edge">
<title>Node1&#45;&gt;Node28</title>
<g id="a_edge18_Node000001_Node000028"><a xlink:title=" ">
<path fill="none" stroke="#63b8ff" d="M616.2,-230.97C667.36,-223.18 744.01,-210.78 819.28,-195.23"/>
<polygon fill="#63b8ff" stroke="#63b8ff" points="820.33,-198.59 829.41,-193.12 818.9,-191.73 820.33,-198.59"/>
</a>
</g>
</g>
<!-- Node3 -->
<g id="Node000003" class="node">
<title>Node3</title>
<g id="a_Node000003"><a xlink:href="parser_8hpp.html" target="_top" xlink:title=" ">
<polygon fill="#fff0f0" stroke="red" points="196.98,-85 104.98,-85 104.98,-66 196.98,-66 196.98,-85"/>
<text text-anchor="middle" x="150.98" y="-73" font-family="Helvetica,sans-Serif" font-size="10.00">../lib/parser.hpp</text>
</a>
</g>
</g>
<!-- Node2&#45;&gt;Node3 -->
<g id="edge2_Node000002_Node000003" class="edge">
<title>Node2&#45;&gt;Node3</title>
<g id="a_edge2_Node000002_Node000003"><a xlink:title=" ">
<path fill="none" stroke="#63b8ff" d="M173.27,-175.73C178.73,-163.34 186.81,-140.1 180.98,-121 177.89,-110.9 171.66,-101.02 165.67,-93.15"/>
<polygon fill="#63b8ff" stroke="#63b8ff" points="168.22,-90.74 159.19,-85.2 162.8,-95.16 168.22,-90.74"/>
</a>
</g>
</g>
<!-- Node10 -->
<g id="Node000010" class="node">
<title>Node10</title>
<g id="a_Node000010"><a xlink:title=" ">
<polygon fill="#e0e0e0" stroke="#999999" points="304.48,-30 171.48,-30 171.48,0 304.48,0 304.48,-30"/>
<text text-anchor="start" x="179.48" y="-18" font-family="Helvetica,sans-Serif" font-size="10.00">emlabcpp/experimental</text>
<text text-anchor="middle" x="237.98" y="-7" font-family="Helvetica,sans-Serif" font-size="10.00">/string_buffer.h</text>
</a>
</g>
</g>
<!-- Node2&#45;&gt;Node10 -->
<g id="edge7_Node000002_Node000010" class="edge">
<title>Node2&#45;&gt;Node10</title>
<g id="a_edge7_Node000002_Node000010"><a xlink:title=" ">
<path fill="none" stroke="#63b8ff" d="M174.95,-175.95C180.85,-167.21 189.87,-153.11 195.98,-140 211.6,-106.47 224.33,-65.45 231.54,-40.02"/>
<polygon fill="#63b8ff" stroke="#63b8ff" points="234.98,-40.72 234.28,-30.15 228.23,-38.85 234.98,-40.72"/>
</a>
</g>
</g>
<!-- Node12 -->
<g id="Node000012" class="node">
<title>Node12</title>
<g id="a_Node000012"><a xlink:title=" ">
<polygon fill="#e0e0e0" stroke="#999999" points="89.48,-24.5 20.48,-24.5 20.48,-5.5 89.48,-5.5 89.48,-24.5"/>
<text text-anchor="middle" x="54.98" y="-12.5" font-family="Helvetica,sans-Serif" font-size="10.00">vari/vopt.h</text>
</a>
</g>
</g>
<!-- Node2&#45;&gt;Node12 -->
<g id="edge8_Node000002_Node000012" class="edge">
<title>Node2&#45;&gt;Node12</title>
<g id="a_edge8_Node000002_Node000012"><a xlink:title=" ">
<path fill="none" stroke="#63b8ff" d="M119.82,-177.42C77.94,-170.27 22.45,-157.73 8.98,-140 -16.48,-106.49 18.09,-57.4 39.79,-32.22"/>
<polygon fill="#63b8ff" stroke="#63b8ff" points="42.5,-34.44 46.55,-24.65 37.28,-29.78 42.5,-34.44"/>
</a>
</g>
</g>
<!-- Node13 -->
<g id="Node000013" class="node">
<title>Node13</title>
<g id="a_Node000013"><a xlink:href="iface_2base_8hpp.html" target="_top" xlink:title=" ">
<polygon fill="#fff0f0" stroke="red" points="171.48,-140 104.48,-140 104.48,-121 171.48,-121 171.48,-140"/>
<text text-anchor="middle" x="137.98" y="-128" font-family="Helvetica,sans-Serif" font-size="10.00">./base.hpp</text>
</a>
</g>
</g>
<!-- Node2&#45;&gt;Node13 -->
<g id="edge5_Node000002_Node000013" class="edge">
<title>Node2&#45;&gt;Node13</title>
<g id="a_edge5_Node000002_Node000013"><a xlink:title=" ">
<path fill="none" stroke="#63b8ff" d="M163.86,-175.75C159.62,-168.49 153.45,-157.95 148.2,-148.98"/>
<polygon fill="#63b8ff" stroke="#63b8ff" points="151.07,-146.95 143,-140.09 145.03,-150.49 151.07,-146.95"/>
</a>
</g>
</g>
<!-- Node15 -->
<g id="Node000015" class="node">
<title>Node15</title>
<g id="a_Node000015"><a xlink:title=" ">
<polygon fill="#e0e0e0" stroke="#999999" points="85.98,-140 17.98,-140 17.98,-121 85.98,-121 85.98,-140"/>
<text text-anchor="middle" x="51.98" y="-128" font-family="Helvetica,sans-Serif" font-size="10.00">vari/vval.h</text>
</a>
</g>
</g>
<!-- Node2&#45;&gt;Node15 -->
<g id="edge9_Node000002_Node000015" class="edge">
<title>Node2&#45;&gt;Node15</title>
<g id="a_edge9_Node000002_Node000015"><a xlink:title=" ">
<path fill="none" stroke="#63b8ff" d="M150.18,-175.98C131.36,-167.46 102.16,-154.23 80.48,-144.41"/>
<polygon fill="#63b8ff" stroke="#63b8ff" points="81.67,-141.11 71.12,-140.17 78.78,-147.48 81.67,-141.11"/>
</a>
</g>
</g>
<!-- Node3&#45;&gt;Node10 -->
<g id="edge3_Node000003_Node000010" class="edge">
<title>Node3&#45;&gt;Node10</title>
<g id="a_edge3_Node000003_Node000010"><a xlink:title=" ">
<path fill="none" stroke="#63b8ff" d="M163.82,-65.87C175.51,-58 193.22,-46.09 208.41,-35.89"/>
<polygon fill="#63b8ff" stroke="#63b8ff" points="210.64,-38.6 216.99,-30.11 206.74,-32.79 210.64,-38.6"/>
</a>
</g>
</g>
<!-- Node3&#45;&gt;Node12 -->
<g id="edge4_Node000003_Node000012" class="edge">
<title>Node3&#45;&gt;Node12</title>
<g id="a_edge4_Node000003_Node000012"><a xlink:title=" ">
<path fill="none" stroke="#63b8ff" d="M136.81,-65.87C121.29,-56.41 96.15,-41.09 77.83,-29.92"/>
<polygon fill="#63b8ff" stroke="#63b8ff" points="79.56,-26.88 69.2,-24.67 75.92,-32.86 79.56,-26.88"/>
</a>
</g>
</g>
<!-- Node13&#45;&gt;Node3 -->
<g id="edge6_Node000013_Node000003" class="edge">
<title>Node13&#45;&gt;Node3</title>
<g id="a_edge6_Node000013_Node000003"><a xlink:title=" ">
<path fill="none" stroke="#63b8ff" d="M140.12,-120.75C141.85,-113.72 144.33,-103.62 146.48,-94.84"/>
<polygon fill="#63b8ff" stroke="#63b8ff" points="149.89,-95.63 148.87,-85.09 143.09,-93.97 149.89,-95.63"/>
</a>
</g>
</g>
<!-- Node16&#45;&gt;Node10 -->
<g id="edge12_Node000016_Node000010" class="edge">
<title>Node16&#45;&gt;Node10</title>
<g id="a_edge12_Node000016_Node000010"><a xlink:title=" ">
<path fill="none" stroke="#63b8ff" d="M333.54,-175.98C339.58,-163.49 348.62,-139.69 340.98,-121 326.38,-85.26 293.1,-55.12 268.3,-36.42"/>
<polygon fill="#63b8ff" stroke="#63b8ff" points="270.06,-33.38 259.92,-30.3 265.93,-39.03 270.06,-33.38"/>
</a>
</g>
</g>
<!-- Node17 -->
<g id="Node000017" class="node">
<title>Node17</title>
<g id="a_Node000017"><a xlink:href="base_8hpp.html" target="_top" xlink:title=" ">
<polygon fill="#fff0f0" stroke="red" points="457.98,-140 387.98,-140 387.98,-121 457.98,-121 457.98,-140"/>
<text text-anchor="middle" x="422.98" y="-128" font-family="Helvetica,sans-Serif" font-size="10.00">../base.hpp</text>
</a>
</g>
</g>
<!-- Node16&#45;&gt;Node17 -->
<g id="edge11_Node000016_Node000017" class="edge">
<title>Node16&#45;&gt;Node17</title>
<g id="a_edge11_Node000016_Node000017"><a xlink:title=" ">
<path fill="none" stroke="#63b8ff" d="M344.08,-175.98C358.79,-167.69 381.4,-154.94 398.65,-145.22"/>
<polygon fill="#63b8ff" stroke="#63b8ff" points="400.61,-148.13 407.6,-140.17 397.17,-142.03 400.61,-148.13"/>
</a>
</g>
</g>
<!-- Node23 -->
<g id="Node000023" class="node">
<title>Node23</title>
<g id="a_Node000023"><a xlink:title=" ">
<polygon fill="#e0e0e0" stroke="#999999" points="331.98,-140 265.98,-140 265.98,-121 331.98,-121 331.98,-140"/>
<text text-anchor="middle" x="298.98" y="-128" font-family="Helvetica,sans-Serif" font-size="10.00">vari/vref.h</text>
</a>
</g>
</g>
<!-- Node16&#45;&gt;Node23 -->
<g id="edge13_Node000016_Node000023" class="edge">
<title>Node16&#45;&gt;Node23</title>
<g id="a_edge13_Node000016_Node000023"><a xlink:title=" ">
<path fill="none" stroke="#63b8ff" d="M324.02,-175.75C319.92,-168.49 313.95,-157.95 308.87,-148.98"/>
<polygon fill="#63b8ff" stroke="#63b8ff" points="311.81,-147.07 303.84,-140.09 305.72,-150.52 311.81,-147.07"/>
</a>
</g>
</g>
</g>
</svg>
