<?xml version="1.0" encoding="UTF-8" standalone="no"?>
<!DOCTYPE svg PUBLIC "-//W3C//DTD SVG 1.1//EN"
 "http://www.w3.org/Graphics/SVG/1.1/DTD/svg11.dtd">
<!-- Generated by graphviz version 2.43.0 (0)
 -->
<!-- Title: src/cfg/tests/cfg_utest.cpp Pages: 1 -->
<svg width="597pt" height="196pt"
 viewBox="0.00 0.00 597.33 196.00" xmlns="http://www.w3.org/2000/svg" xmlns:xlink="http://www.w3.org/1999/xlink">
<g id="graph0" class="graph" transform="scale(1 1) rotate(0) translate(4 192)">
<title>src/cfg/tests/cfg_utest.cpp</title>
<polygon fill="white" stroke="transparent" points="-4,4 -4,-192 593.33,-192 593.33,4 -4,4"/>
<!-- Node1 -->
<g id="node1" class="node">
<title>Node1</title>
<g id="a_node1"><a xlink:title=" ">
<polygon fill="#bfbfbf" stroke="black" points="156.83,-168.5 156.83,-187.5 300.83,-187.5 300.83,-168.5 156.83,-168.5"/>
<text text-anchor="middle" x="228.83" y="-175.5" font-family="Helvetica,sans-Serif" font-size="10.00">src/cfg/tests/cfg_utest.cpp</text>
</a>
</g>
</g>
<!-- Node2 -->
<g id="node2" class="node">
<title>Node2</title>
<g id="a_node2"><a xlink:href="default_8hpp.html" target="_top" xlink:title=" ">
<polygon fill="white" stroke="black" points="19.83,-112.5 19.83,-131.5 109.83,-131.5 109.83,-112.5 19.83,-112.5"/>
<text text-anchor="middle" x="64.83" y="-119.5" font-family="Helvetica,sans-Serif" font-size="10.00">cfg/default.hpp</text>
</a>
</g>
</g>
<!-- Node1&#45;&gt;Node2 -->
<g id="edge1" class="edge">
<title>Node1&#45;&gt;Node2</title>
<path fill="none" stroke="midnightblue" d="M202.85,-168.44C175.14,-159.32 131.08,-144.81 100.22,-134.65"/>
<polygon fill="midnightblue" stroke="midnightblue" points="101.29,-131.32 90.7,-131.52 99.1,-137.97 101.29,-131.32"/>
</g>
<!-- Node3 -->
<g id="node3" class="node">
<title>Node3</title>
<g id="a_node3"><a xlink:href="key_8hpp.html" target="_top" xlink:title=" ">
<polygon fill="white" stroke="red" points="6.33,-0.5 6.33,-19.5 77.33,-19.5 77.33,-0.5 6.33,-0.5"/>
<text text-anchor="middle" x="41.83" y="-7.5" font-family="Helvetica,sans-Serif" font-size="10.00">cfg/key.hpp</text>
</a>
</g>
</g>
<!-- Node1&#45;&gt;Node3 -->
<g id="edge6" class="edge">
<title>Node1&#45;&gt;Node3</title>
<path fill="none" stroke="midnightblue" d="M156.79,-171.77C100.6,-166.02 29.11,-154.43 10.83,-132 -14.05,-101.45 12,-53.32 29.22,-27.95"/>
<polygon fill="midnightblue" stroke="midnightblue" points="32.14,-29.89 35.06,-19.7 26.42,-25.84 32.14,-29.89"/>
</g>
<!-- Node5 -->
<g id="node4" class="node">
<title>Node5</title>
<g id="a_node4"><a xlink:href="map_8hpp.html" target="_top" xlink:title=" ">
<polygon fill="white" stroke="red" points="70.33,-56.5 70.33,-75.5 147.33,-75.5 147.33,-56.5 70.33,-56.5"/>
<text text-anchor="middle" x="108.83" y="-63.5" font-family="Helvetica,sans-Serif" font-size="10.00">cfg/map.hpp</text>
</a>
</g>
</g>
<!-- Node1&#45;&gt;Node5 -->
<g id="edge7" class="edge">
<title>Node1&#45;&gt;Node5</title>
<path fill="none" stroke="midnightblue" d="M213.27,-168.35C199.06,-160.04 177.89,-146.63 161.83,-132 145.92,-117.5 130.71,-98.06 120.7,-84.23"/>
<polygon fill="midnightblue" stroke="midnightblue" points="123.28,-81.82 114.65,-75.68 117.57,-85.86 123.28,-81.82"/>
</g>
<!-- Node15 -->
<g id="node5" class="node">
<title>Node15</title>
<g id="a_node5"><a xlink:title=" ">
<polygon fill="white" stroke="#bfbfbf" points="110.33,-0.5 110.33,-19.5 211.33,-19.5 211.33,-0.5 110.33,-0.5"/>
<text text-anchor="middle" x="160.83" y="-7.5" font-family="Helvetica,sans-Serif" font-size="10.00">magic_enum.hpp</text>
</a>
</g>
</g>
<!-- Node1&#45;&gt;Node15 -->
<g id="edge10" class="edge">
<title>Node1&#45;&gt;Node15</title>
<path fill="none" stroke="midnightblue" d="M220.72,-168.36C213.05,-159.75 201.71,-145.86 194.83,-132 177.93,-97.91 168.28,-54.12 163.84,-29.66"/>
<polygon fill="midnightblue" stroke="midnightblue" points="167.26,-28.87 162.12,-19.61 160.36,-30.06 167.26,-28.87"/>
</g>
<!-- Node16 -->
<g id="node6" class="node">
<title>Node16</title>
<g id="a_node6"><a xlink:title=" ">
<polygon fill="white" stroke="#bfbfbf" points="203.83,-112.5 203.83,-131.5 253.83,-131.5 253.83,-112.5 203.83,-112.5"/>
<text text-anchor="middle" x="228.83" y="-119.5" font-family="Helvetica,sans-Serif" font-size="10.00">io.pb.h</text>
</a>
</g>
</g>
<!-- Node1&#45;&gt;Node16 -->
<g id="edge8" class="edge">
<title>Node1&#45;&gt;Node16</title>
<path fill="none" stroke="midnightblue" d="M228.83,-168.08C228.83,-161.01 228.83,-150.86 228.83,-141.99"/>
<polygon fill="midnightblue" stroke="midnightblue" points="232.33,-141.75 228.83,-131.75 225.33,-141.75 232.33,-141.75"/>
</g>
<!-- Node17 -->
<g id="node7" class="node">
<title>Node17</title>
<g id="a_node7"><a xlink:title=" ">
<polygon fill="white" stroke="#bfbfbf" points="271.83,-112.5 271.83,-131.5 349.83,-131.5 349.83,-112.5 271.83,-112.5"/>
<text text-anchor="middle" x="310.83" y="-119.5" font-family="Helvetica,sans-Serif" font-size="10.00">gtest/gtest.h</text>
</a>
</g>
</g>
<!-- Node1&#45;&gt;Node17 -->
<g id="edge9" class="edge">
<title>Node1&#45;&gt;Node17</title>
<path fill="none" stroke="midnightblue" d="M242.01,-168.32C254.68,-159.98 274.07,-147.21 289.04,-137.35"/>
<polygon fill="midnightblue" stroke="midnightblue" points="291.27,-140.08 297.69,-131.65 287.42,-134.23 291.27,-140.08"/>
</g>
<!-- Node18 -->
<g id="node8" class="node">
<title>Node18</title>
<g id="a_node8"><a xlink:title=" ">
<polygon fill="white" stroke="#bfbfbf" points="368.33,-112.5 368.33,-131.5 437.33,-131.5 437.33,-112.5 368.33,-112.5"/>
<text text-anchor="middle" x="402.83" y="-119.5" font-family="Helvetica,sans-Serif" font-size="10.00">type_traits</text>
</a>
</g>
</g>
<!-- Node1&#45;&gt;Node18 -->
<g id="edge11" class="edge">
<title>Node1&#45;&gt;Node18</title>
<path fill="none" stroke="midnightblue" d="M256.41,-168.44C285.93,-159.28 332.95,-144.69 365.72,-134.52"/>
<polygon fill="midnightblue" stroke="midnightblue" points="366.88,-137.82 375.39,-131.52 364.8,-131.14 366.88,-137.82"/>
</g>
<!-- Node19 -->
<g id="node9" class="node">
<title>Node19</title>
<g id="a_node9"><a xlink:title=" ">
<polygon fill="white" stroke="#bfbfbf" points="455.33,-112.5 455.33,-131.5 520.33,-131.5 520.33,-112.5 455.33,-112.5"/>
<text text-anchor="middle" x="487.83" y="-119.5" font-family="Helvetica,sans-Serif" font-size="10.00">typeindex</text>
</a>
</g>
</g>
<!-- Node1&#45;&gt;Node19 -->
<g id="edge12" class="edge">
<title>Node1&#45;&gt;Node19</title>
<path fill="none" stroke="midnightblue" d="M271.07,-168.45C312.86,-159.94 378.94,-146.4 445,-132.37"/>
<polygon fill="midnightblue" stroke="midnightblue" points="446.12,-135.71 455.17,-130.21 444.66,-128.87 446.12,-135.71"/>
</g>
<!-- Node20 -->
<g id="node10" class="node">
<title>Node20</title>
<g id="a_node10"><a xlink:title=" ">
<polygon fill="white" stroke="#bfbfbf" points="538.33,-112.5 538.33,-131.5 589.33,-131.5 589.33,-112.5 538.33,-112.5"/>
<text text-anchor="middle" x="563.83" y="-119.5" font-family="Helvetica,sans-Serif" font-size="10.00">variant</text>
</a>
</g>
</g>
<!-- Node1&#45;&gt;Node20 -->
<g id="edge13" class="edge">
<title>Node1&#45;&gt;Node20</title>
<path fill="none" stroke="midnightblue" d="M300.99,-168.49C359.88,-161.02 445.4,-148.98 528.44,-132.11"/>
<polygon fill="midnightblue" stroke="midnightblue" points="529.2,-135.53 538.29,-130.09 527.79,-128.67 529.2,-135.53"/>
</g>
<!-- Node2&#45;&gt;Node3 -->
<g id="edge2" class="edge">
<title>Node2&#45;&gt;Node3</title>
<path fill="none" stroke="midnightblue" d="M63.03,-112.37C59.32,-94.62 50.76,-53.67 45.72,-29.6"/>
<polygon fill="midnightblue" stroke="midnightblue" points="49.1,-28.66 43.63,-19.59 42.25,-30.1 49.1,-28.66"/>
</g>
<!-- Node2&#45;&gt;Node5 -->
<g id="edge3" class="edge">
<title>Node2&#45;&gt;Node5</title>
<path fill="none" stroke="midnightblue" d="M72.1,-112.08C78.38,-104.38 87.62,-93.03 95.27,-83.65"/>
<polygon fill="midnightblue" stroke="midnightblue" points="98.1,-85.71 101.7,-75.75 92.67,-81.29 98.1,-85.71"/>
</g>
<!-- Node5&#45;&gt;Node3 -->
<g id="edge4" class="edge">
<title>Node5&#45;&gt;Node3</title>
<path fill="none" stroke="midnightblue" d="M98.07,-56.32C88.07,-48.26 72.95,-36.08 60.9,-26.37"/>
<polygon fill="midnightblue" stroke="midnightblue" points="62.78,-23.38 52.8,-19.83 58.38,-28.83 62.78,-23.38"/>
</g>
<!-- Node5&#45;&gt;Node15 -->
<g id="edge5" class="edge">
<title>Node5&#45;&gt;Node15</title>
<path fill="none" stroke="midnightblue" d="M117.42,-56.08C124.99,-48.22 136.21,-36.57 145.35,-27.08"/>
<polygon fill="midnightblue" stroke="midnightblue" points="147.99,-29.38 152.41,-19.75 142.95,-24.53 147.99,-29.38"/>
</g>
</g>
</svg>
