<?xml version="1.0" encoding="UTF-8" standalone="no"?>
<!DOCTYPE svg PUBLIC "-//W3C//DTD SVG 1.1//EN"
 "http://www.w3.org/Graphics/SVG/1.1/DTD/svg11.dtd">
<!-- Generated by graphviz version 2.43.0 (0)
 -->
<!-- Title: src/fw/cfg_context.hpp Pages: 1 -->
<svg width="360pt" height="285pt"
 viewBox="0.00 0.00 359.50 285.00" xmlns="http://www.w3.org/2000/svg" xmlns:xlink="http://www.w3.org/1999/xlink">
<g id="graph0" class="graph" transform="scale(1 1) rotate(0) translate(4 281)">
<title>src/fw/cfg_context.hpp</title>
<polygon fill="white" stroke="transparent" points="-4,4 -4,-281 355.5,-281 355.5,4 -4,4"/>
<!-- Node1 -->
<g id="node1" class="node">
<title>Node1</title>
<g id="a_node1"><a xlink:title=" ">
<polygon fill="#bfbfbf" stroke="black" points="130,-257.5 130,-276.5 256,-276.5 256,-257.5 130,-257.5"/>
<text text-anchor="middle" x="193" y="-264.5" font-family="Helvetica,sans-Serif" font-size="10.00">src/fw/cfg_context.hpp</text>
</a>
</g>
</g>
<!-- Node2 -->
<g id="node2" class="node">
<title>Node2</title>
<g id="a_node2"><a xlink:href="brd_8hpp.html" target="_top" xlink:title=" ">
<polygon fill="white" stroke="black" points="211,-196 211,-215 283,-215 283,-196 211,-196"/>
<text text-anchor="middle" x="247" y="-203" font-family="Helvetica,sans-Serif" font-size="10.00">brd/brd.hpp</text>
</a>
</g>
</g>
<!-- Node1&#45;&gt;Node2 -->
<g id="edge1" class="edge">
<title>Node1&#45;&gt;Node2</title>
<path fill="none" stroke="midnightblue" d="M200.74,-257.48C209,-248.37 222.28,-233.74 232.49,-222.48"/>
<polygon fill="midnightblue" stroke="midnightblue" points="235.15,-224.77 239.28,-215.01 229.97,-220.06 235.15,-224.77"/>
</g>
<!-- Node3 -->
<g id="node3" class="node">
<title>Node3</title>
<g id="a_node3"><a xlink:href="map_8hpp.html" target="_top" xlink:title=" ">
<polygon fill="white" stroke="red" points="274.5,-73 274.5,-92 351.5,-92 351.5,-73 274.5,-73"/>
<text text-anchor="middle" x="313" y="-80" font-family="Helvetica,sans-Serif" font-size="10.00">cfg/map.hpp</text>
</a>
</g>
</g>
<!-- Node1&#45;&gt;Node3 -->
<g id="edge6" class="edge">
<title>Node1&#45;&gt;Node3</title>
<path fill="none" stroke="midnightblue" d="M227.66,-257.46C248.71,-250.68 274.75,-239.25 292,-221 319.72,-191.67 319.99,-174.31 318,-134 317.48,-123.37 316.33,-111.54 315.27,-102"/>
<polygon fill="midnightblue" stroke="midnightblue" points="318.75,-101.58 314.11,-92.06 311.8,-102.4 318.75,-101.58"/>
</g>
<!-- Node19 -->
<g id="node7" class="node">
<title>Node19</title>
<g id="a_node7"><a xlink:href="storage_8hpp.html" target="_top" xlink:title=" ">
<polygon fill="white" stroke="black" points="0,-134.5 0,-153.5 92,-153.5 92,-134.5 0,-134.5"/>
<text text-anchor="middle" x="46" y="-141.5" font-family="Helvetica,sans-Serif" font-size="10.00">cfg/storage.hpp</text>
</a>
</g>
</g>
<!-- Node1&#45;&gt;Node19 -->
<g id="edge7" class="edge">
<title>Node1&#45;&gt;Node19</title>
<path fill="none" stroke="midnightblue" d="M148.84,-257.48C125.28,-250.96 97.27,-239.78 78,-221 62.02,-205.42 53.64,-180.64 49.52,-163.64"/>
<polygon fill="midnightblue" stroke="midnightblue" points="52.92,-162.8 47.4,-153.76 46.08,-164.28 52.92,-162.8"/>
</g>
<!-- Node20 -->
<g id="node8" class="node">
<title>Node20</title>
<g id="a_node8"><a xlink:href="load__persistent__config_8hpp.html" target="_top" xlink:title=" ">
<polygon fill="white" stroke="black" points="87,-190.5 87,-220.5 193,-220.5 193,-190.5 87,-190.5"/>
<text text-anchor="start" x="95" y="-208.5" font-family="Helvetica,sans-Serif" font-size="10.00">fw/load_persistent</text>
<text text-anchor="middle" x="140" y="-197.5" font-family="Helvetica,sans-Serif" font-size="10.00">_config.hpp</text>
</a>
</g>
</g>
<!-- Node1&#45;&gt;Node20 -->
<g id="edge11" class="edge">
<title>Node1&#45;&gt;Node20</title>
<path fill="none" stroke="midnightblue" d="M185.41,-257.48C178.63,-249.87 168.41,-238.4 159.39,-228.26"/>
<polygon fill="midnightblue" stroke="midnightblue" points="161.76,-225.66 152.49,-220.52 156.53,-230.32 161.76,-225.66"/>
</g>
<!-- Node2&#45;&gt;Node3 -->
<g id="edge2" class="edge">
<title>Node2&#45;&gt;Node3</title>
<path fill="none" stroke="midnightblue" d="M260.15,-195.73C272.49,-186.76 290.44,-171.66 300,-154 308.68,-137.95 311.69,-117.16 312.66,-102.32"/>
<polygon fill="midnightblue" stroke="midnightblue" points="316.16,-102.45 313.08,-92.31 309.17,-102.16 316.16,-102.45"/>
</g>
<!-- Node14 -->
<g id="node5" class="node">
<title>Node14</title>
<g id="a_node5"><a xlink:href="drivers_8hpp.html" target="_top" xlink:title=" ">
<polygon fill="white" stroke="red" points="196.5,-134.5 196.5,-153.5 291.5,-153.5 291.5,-134.5 196.5,-134.5"/>
<text text-anchor="middle" x="244" y="-141.5" font-family="Helvetica,sans-Serif" font-size="10.00">core/drivers.hpp</text>
</a>
</g>
</g>
<!-- Node2&#45;&gt;Node14 -->
<g id="edge4" class="edge">
<title>Node2&#45;&gt;Node14</title>
<path fill="none" stroke="midnightblue" d="M246.57,-195.98C246.15,-187.58 245.49,-174.48 244.94,-163.66"/>
<polygon fill="midnightblue" stroke="midnightblue" points="248.43,-163.32 244.43,-153.51 241.44,-163.67 248.43,-163.32"/>
</g>
<!-- Node11 -->
<g id="node4" class="node">
<title>Node11</title>
<g id="a_node4"><a xlink:title=" ">
<polygon fill="white" stroke="#bfbfbf" points="116.5,-0.5 116.5,-30.5 249.5,-30.5 249.5,-0.5 116.5,-0.5"/>
<text text-anchor="start" x="124.5" y="-18.5" font-family="Helvetica,sans-Serif" font-size="10.00">emlabcpp/experimental</text>
<text text-anchor="middle" x="183" y="-7.5" font-family="Helvetica,sans-Serif" font-size="10.00">/string_buffer.h</text>
</a>
</g>
</g>
<!-- Node3&#45;&gt;Node11 -->
<g id="edge3" class="edge">
<title>Node3&#45;&gt;Node11</title>
<path fill="none" stroke="midnightblue" d="M295.74,-72.87C276.63,-63.31 245.25,-47.63 220.45,-35.22"/>
<polygon fill="midnightblue" stroke="midnightblue" points="221.81,-31.99 211.3,-30.65 218.68,-38.25 221.81,-31.99"/>
</g>
<!-- Node18 -->
<g id="node6" class="node">
<title>Node18</title>
<g id="a_node6"><a xlink:title=" ">
<polygon fill="white" stroke="#bfbfbf" points="116.5,-67.5 116.5,-97.5 249.5,-97.5 249.5,-67.5 116.5,-67.5"/>
<text text-anchor="start" x="124.5" y="-85.5" font-family="Helvetica,sans-Serif" font-size="10.00">emlabcpp/experimental</text>
<text text-anchor="middle" x="183" y="-74.5" font-family="Helvetica,sans-Serif" font-size="10.00">/function_view.h</text>
</a>
</g>
</g>
<!-- Node14&#45;&gt;Node18 -->
<g id="edge5" class="edge">
<title>Node14&#45;&gt;Node18</title>
<path fill="none" stroke="midnightblue" d="M235.26,-134.48C227.31,-126.72 215.24,-114.94 204.7,-104.66"/>
<polygon fill="midnightblue" stroke="midnightblue" points="206.98,-102 197.38,-97.52 202.09,-107.01 206.98,-102"/>
</g>
<!-- Node19&#45;&gt;Node3 -->
<g id="edge8" class="edge">
<title>Node19&#45;&gt;Node3</title>
<path fill="none" stroke="midnightblue" d="M89.18,-134.48C132.11,-125.85 199.8,-111.84 258,-98 262.44,-96.94 267.08,-95.8 271.69,-94.62"/>
<polygon fill="midnightblue" stroke="midnightblue" points="272.85,-97.94 281.65,-92.05 271.1,-91.16 272.85,-97.94"/>
</g>
<!-- Node19&#45;&gt;Node11 -->
<g id="edge10" class="edge">
<title>Node19&#45;&gt;Node11</title>
<path fill="none" stroke="midnightblue" d="M51.66,-134.3C61.63,-119.39 83.52,-88.46 107,-67 119.66,-55.43 135.21,-44.61 148.94,-35.98"/>
<polygon fill="midnightblue" stroke="midnightblue" points="150.95,-38.85 157.65,-30.64 147.29,-32.88 150.95,-38.85"/>
</g>
<!-- Node19&#45;&gt;Node18 -->
<g id="edge9" class="edge">
<title>Node19&#45;&gt;Node18</title>
<path fill="none" stroke="midnightblue" d="M65.63,-134.48C85.31,-125.93 116.22,-112.5 141.39,-101.57"/>
<polygon fill="midnightblue" stroke="midnightblue" points="142.93,-104.72 150.71,-97.52 140.15,-98.3 142.93,-104.72"/>
</g>
<!-- Node20&#45;&gt;Node19 -->
<g id="edge12" class="edge">
<title>Node20&#45;&gt;Node19</title>
<path fill="none" stroke="midnightblue" d="M117.72,-190.4C102.8,-180.95 83.22,-168.56 68.29,-159.11"/>
<polygon fill="midnightblue" stroke="midnightblue" points="70,-156.05 59.68,-153.66 66.26,-161.96 70,-156.05"/>
</g>
<!-- Node21 -->
<g id="node9" class="node">
<title>Node21</title>
<g id="a_node9"><a xlink:href="util_8hpp.html" target="_top" xlink:title=" ">
<polygon fill="white" stroke="red" points="110,-134.5 110,-153.5 178,-153.5 178,-134.5 110,-134.5"/>
<text text-anchor="middle" x="144" y="-141.5" font-family="Helvetica,sans-Serif" font-size="10.00">fw/util.hpp</text>
</a>
</g>
</g>
<!-- Node20&#45;&gt;Node21 -->
<g id="edge13" class="edge">
<title>Node20&#45;&gt;Node21</title>
<path fill="none" stroke="midnightblue" d="M140.95,-190.4C141.48,-182.47 142.15,-172.46 142.73,-163.86"/>
<polygon fill="midnightblue" stroke="midnightblue" points="146.24,-163.87 143.42,-153.66 139.26,-163.4 146.24,-163.87"/>
</g>
</g>
</svg>
