<?xml version="1.0" encoding="UTF-8" standalone="no"?>
<!DOCTYPE svg PUBLIC "-//W3C//DTD SVG 1.1//EN"
 "http://www.w3.org/Graphics/SVG/1.1/DTD/svg11.dtd">
<!-- Generated by graphviz version 2.43.0 (0)
 -->
<!-- Title: src/cfg/dispatcher.hpp Pages: 1 -->
<svg width="837pt" height="319pt"
 viewBox="0.00 0.00 836.50 319.00" xmlns="http://www.w3.org/2000/svg" xmlns:xlink="http://www.w3.org/1999/xlink">
<g id="graph0" class="graph" transform="scale(1 1) rotate(0) translate(4 315)">
<title>src/cfg/dispatcher.hpp</title>
<polygon fill="white" stroke="transparent" points="-4,4 -4,-315 832.5,-315 832.5,4 -4,4"/>
<!-- Node1 -->
<g id="node1" class="node">
<title>Node1</title>
<g id="a_node1"><a xlink:title=" ">
<polygon fill="#bfbfbf" stroke="black" points="133,-291.5 133,-310.5 256,-310.5 256,-291.5 133,-291.5"/>
<text text-anchor="middle" x="194.5" y="-298.5" font-family="Helvetica,sans-Serif" font-size="10.00">src/cfg/dispatcher.hpp</text>
</a>
</g>
</g>
<!-- Node2 -->
<g id="node2" class="node">
<title>Node2</title>
<g id="a_node2"><a xlink:href="key_8hpp.html" target="_top" xlink:title=" ">
<polygon fill="white" stroke="black" points="0,-174 0,-193 71,-193 71,-174 0,-174"/>
<text text-anchor="middle" x="35.5" y="-181" font-family="Helvetica,sans-Serif" font-size="10.00">cfg/key.hpp</text>
</a>
</g>
</g>
<!-- Node1&#45;&gt;Node2 -->
<g id="edge1" class="edge">
<title>Node1&#45;&gt;Node2</title>
<path fill="none" stroke="midnightblue" d="M182.55,-291.32C155.5,-271.67 89.34,-223.61 55.76,-199.22"/>
<polygon fill="midnightblue" stroke="midnightblue" points="57.74,-196.33 47.59,-193.28 53.62,-201.99 57.74,-196.33"/>
</g>
<!-- Node4 -->
<g id="node4" class="node">
<title>Node4</title>
<g id="a_node4"><a xlink:href="map_8hpp.html" target="_top" xlink:title=" ">
<polygon fill="white" stroke="black" points="156,-235.5 156,-254.5 233,-254.5 233,-235.5 156,-235.5"/>
<text text-anchor="middle" x="194.5" y="-242.5" font-family="Helvetica,sans-Serif" font-size="10.00">cfg/map.hpp</text>
</a>
</g>
</g>
<!-- Node1&#45;&gt;Node4 -->
<g id="edge3" class="edge">
<title>Node1&#45;&gt;Node4</title>
<path fill="none" stroke="midnightblue" d="M194.5,-291.08C194.5,-284.01 194.5,-273.86 194.5,-264.99"/>
<polygon fill="midnightblue" stroke="midnightblue" points="198,-264.75 194.5,-254.75 191,-264.75 198,-264.75"/>
</g>
<!-- Node14 -->
<g id="node9" class="node">
<title>Node14</title>
<g id="a_node9"><a xlink:href="core_8hpp.html" target="_top" xlink:title=" ">
<polygon fill="white" stroke="black" points="658,-235.5 658,-254.5 717,-254.5 717,-235.5 658,-235.5"/>
<text text-anchor="middle" x="687.5" y="-242.5" font-family="Helvetica,sans-Serif" font-size="10.00">core.hpp</text>
</a>
</g>
</g>
<!-- Node1&#45;&gt;Node14 -->
<g id="edge10" class="edge">
<title>Node1&#45;&gt;Node14</title>
<path fill="none" stroke="midnightblue" d="M256.44,-293.22C359.22,-281.96 562.16,-259.73 647.84,-250.34"/>
<polygon fill="midnightblue" stroke="midnightblue" points="648.38,-253.81 657.94,-249.24 647.61,-246.85 648.38,-253.81"/>
</g>
<!-- Node3 -->
<g id="node3" class="node">
<title>Node3</title>
<g id="a_node3"><a xlink:title=" ">
<polygon fill="white" stroke="#bfbfbf" points="287.5,-0.5 287.5,-19.5 337.5,-19.5 337.5,-0.5 287.5,-0.5"/>
<text text-anchor="middle" x="312.5" y="-7.5" font-family="Helvetica,sans-Serif" font-size="10.00">cstdint</text>
</a>
</g>
</g>
<!-- Node2&#45;&gt;Node3 -->
<g id="edge2" class="edge">
<title>Node2&#45;&gt;Node3</title>
<path fill="none" stroke="midnightblue" d="M39.83,-173.54C47.3,-158.89 63.91,-129.69 85.5,-112 144.41,-63.75 230.03,-34.01 277.5,-20.2"/>
<polygon fill="midnightblue" stroke="midnightblue" points="278.64,-23.52 287.31,-17.42 276.73,-16.78 278.64,-23.52"/>
</g>
<!-- Node4&#45;&gt;Node2 -->
<g id="edge6" class="edge">
<title>Node4&#45;&gt;Node2</title>
<path fill="none" stroke="midnightblue" d="M171.72,-235.48C144.45,-225.27 98.59,-208.11 67.7,-196.55"/>
<polygon fill="midnightblue" stroke="midnightblue" points="68.83,-193.24 58.24,-193.01 66.38,-199.79 68.83,-193.24"/>
</g>
<!-- Node5 -->
<g id="node5" class="node">
<title>Node5</title>
<g id="a_node5"><a xlink:href="base_8hpp.html" target="_top" xlink:title=" ">
<polygon fill="white" stroke="red" points="559,-56.5 559,-75.5 620,-75.5 620,-56.5 559,-56.5"/>
<text text-anchor="middle" x="589.5" y="-63.5" font-family="Helvetica,sans-Serif" font-size="10.00">base.hpp</text>
</a>
</g>
</g>
<!-- Node4&#45;&gt;Node5 -->
<g id="edge4" class="edge">
<title>Node4&#45;&gt;Node5</title>
<path fill="none" stroke="midnightblue" d="M166.48,-235.4C149.33,-228.51 128.75,-216.98 118.5,-199 111.68,-187.03 109.84,-178.72 118.5,-168 172.63,-101.03 444.44,-76.45 548.7,-69.39"/>
<polygon fill="midnightblue" stroke="midnightblue" points="549.09,-72.88 558.84,-68.73 548.63,-65.89 549.09,-72.88"/>
</g>
<!-- Node11 -->
<g id="node6" class="node">
<title>Node11</title>
<g id="a_node6"><a xlink:title=" ">
<polygon fill="white" stroke="#bfbfbf" points="128,-168.5 128,-198.5 261,-198.5 261,-168.5 128,-168.5"/>
<text text-anchor="start" x="136" y="-186.5" font-family="Helvetica,sans-Serif" font-size="10.00">emlabcpp/experimental</text>
<text text-anchor="middle" x="194.5" y="-175.5" font-family="Helvetica,sans-Serif" font-size="10.00">/string_buffer.h</text>
</a>
</g>
</g>
<!-- Node4&#45;&gt;Node11 -->
<g id="edge7" class="edge">
<title>Node4&#45;&gt;Node11</title>
<path fill="none" stroke="midnightblue" d="M194.5,-235.48C194.5,-228.47 194.5,-218.19 194.5,-208.7"/>
<polygon fill="midnightblue" stroke="midnightblue" points="198,-208.52 194.5,-198.52 191,-208.52 198,-208.52"/>
</g>
<!-- Node12 -->
<g id="node7" class="node">
<title>Node12</title>
<g id="a_node7"><a xlink:title=" ">
<polygon fill="white" stroke="#bfbfbf" points="279.5,-168.5 279.5,-198.5 427.5,-198.5 427.5,-168.5 279.5,-168.5"/>
<text text-anchor="start" x="287.5" y="-186.5" font-family="Helvetica,sans-Serif" font-size="10.00">emlabcpp/protocol/register</text>
<text text-anchor="middle" x="353.5" y="-175.5" font-family="Helvetica,sans-Serif" font-size="10.00">_handler.h</text>
</a>
</g>
</g>
<!-- Node4&#45;&gt;Node12 -->
<g id="edge8" class="edge">
<title>Node4&#45;&gt;Node12</title>
<path fill="none" stroke="midnightblue" d="M217.28,-235.48C240.43,-226.81 276.95,-213.15 306.36,-202.14"/>
<polygon fill="midnightblue" stroke="midnightblue" points="307.89,-205.31 316.03,-198.52 305.43,-198.75 307.89,-205.31"/>
</g>
<!-- Node13 -->
<g id="node8" class="node">
<title>Node13</title>
<g id="a_node8"><a xlink:title=" ">
<polygon fill="white" stroke="#bfbfbf" points="445.5,-168.5 445.5,-198.5 593.5,-198.5 593.5,-168.5 445.5,-168.5"/>
<text text-anchor="start" x="453.5" y="-186.5" font-family="Helvetica,sans-Serif" font-size="10.00">emlabcpp/protocol/register</text>
<text text-anchor="middle" x="519.5" y="-175.5" font-family="Helvetica,sans-Serif" font-size="10.00">_map.h</text>
</a>
</g>
</g>
<!-- Node4&#45;&gt;Node13 -->
<g id="edge9" class="edge">
<title>Node4&#45;&gt;Node13</title>
<path fill="none" stroke="midnightblue" d="M233.06,-236.94C282.64,-227.86 370.11,-211.85 435.39,-199.9"/>
<polygon fill="midnightblue" stroke="midnightblue" points="436.06,-203.33 445.26,-198.09 434.8,-196.45 436.06,-203.33"/>
</g>
<!-- Node5&#45;&gt;Node3 -->
<g id="edge5" class="edge">
<title>Node5&#45;&gt;Node3</title>
<path fill="none" stroke="midnightblue" d="M558.8,-59.01C506.92,-48.9 402.25,-28.5 347.57,-17.84"/>
<polygon fill="midnightblue" stroke="midnightblue" points="348.13,-14.38 337.65,-15.9 346.79,-21.25 348.13,-14.38"/>
</g>
<!-- Node15 -->
<g id="node10" class="node">
<title>Node15</title>
<g id="a_node10"><a xlink:href="control_8hpp.html" target="_top" xlink:title=" ">
<polygon fill="white" stroke="red" points="546.5,-112.5 546.5,-131.5 632.5,-131.5 632.5,-112.5 546.5,-112.5"/>
<text text-anchor="middle" x="589.5" y="-119.5" font-family="Helvetica,sans-Serif" font-size="10.00">ctl/control.hpp</text>
</a>
</g>
</g>
<!-- Node14&#45;&gt;Node15 -->
<g id="edge11" class="edge">
<title>Node14&#45;&gt;Node15</title>
<path fill="none" stroke="midnightblue" d="M677.16,-235.27C667.2,-226.6 651.99,-212.66 640.5,-199 624.75,-180.27 609.49,-156.56 599.83,-140.65"/>
<polygon fill="midnightblue" stroke="midnightblue" points="602.72,-138.66 594.59,-131.87 596.71,-142.25 602.72,-138.66"/>
</g>
<!-- Node22 -->
<g id="node11" class="node">
<title>Node22</title>
<g id="a_node11"><a xlink:href="indication_8hpp.html" target="_top" xlink:title=" ">
<polygon fill="white" stroke="red" points="650.5,-112.5 650.5,-131.5 736.5,-131.5 736.5,-112.5 650.5,-112.5"/>
<text text-anchor="middle" x="693.5" y="-119.5" font-family="Helvetica,sans-Serif" font-size="10.00">indication.hpp</text>
</a>
</g>
</g>
<!-- Node14&#45;&gt;Node22 -->
<g id="edge13" class="edge">
<title>Node14&#45;&gt;Node22</title>
<path fill="none" stroke="midnightblue" d="M701.29,-235.19C712.33,-227.24 727,-214.45 733.5,-199 738.84,-186.3 738.4,-180.88 733.5,-168 729.16,-156.6 720.47,-146.24 712.29,-138.34"/>
<polygon fill="midnightblue" stroke="midnightblue" points="714.54,-135.66 704.77,-131.57 709.86,-140.86 714.54,-135.66"/>
</g>
<!-- Node24 -->
<g id="node12" class="node">
<title>Node24</title>
<g id="a_node12"><a xlink:href="metrics_8hpp.html" target="_top" xlink:title=" ">
<polygon fill="white" stroke="red" points="754.5,-112.5 754.5,-131.5 828.5,-131.5 828.5,-112.5 754.5,-112.5"/>
<text text-anchor="middle" x="791.5" y="-119.5" font-family="Helvetica,sans-Serif" font-size="10.00">metrics.hpp</text>
</a>
</g>
</g>
<!-- Node14&#45;&gt;Node24 -->
<g id="edge15" class="edge">
<title>Node14&#45;&gt;Node24</title>
<path fill="none" stroke="midnightblue" d="M702.99,-235.41C716.51,-227.34 736.02,-214.25 749.5,-199 764.9,-181.58 776.99,-157.57 784.16,-141.23"/>
<polygon fill="midnightblue" stroke="midnightblue" points="787.5,-142.32 788.16,-131.74 781.05,-139.6 787.5,-142.32"/>
</g>
<!-- Node32 -->
<g id="node13" class="node">
<title>Node32</title>
<g id="a_node13"><a xlink:href="monitor_8hpp.html" target="_top" xlink:title=" ">
<polygon fill="white" stroke="red" points="650,-174 650,-193 725,-193 725,-174 650,-174"/>
<text text-anchor="middle" x="687.5" y="-181" font-family="Helvetica,sans-Serif" font-size="10.00">monitor.hpp</text>
</a>
</g>
</g>
<!-- Node14&#45;&gt;Node32 -->
<g id="edge17" class="edge">
<title>Node14&#45;&gt;Node32</title>
<path fill="none" stroke="midnightblue" d="M687.5,-235.48C687.5,-227.08 687.5,-213.98 687.5,-203.16"/>
<polygon fill="midnightblue" stroke="midnightblue" points="691,-203.01 687.5,-193.01 684,-203.01 691,-203.01"/>
</g>
<!-- Node15&#45;&gt;Node5 -->
<g id="edge12" class="edge">
<title>Node15&#45;&gt;Node5</title>
<path fill="none" stroke="midnightblue" d="M589.5,-112.08C589.5,-105.01 589.5,-94.86 589.5,-85.99"/>
<polygon fill="midnightblue" stroke="midnightblue" points="593,-85.75 589.5,-75.75 586,-85.75 593,-85.75"/>
</g>
<!-- Node22&#45;&gt;Node5 -->
<g id="edge14" class="edge">
<title>Node22&#45;&gt;Node5</title>
<path fill="none" stroke="midnightblue" d="M676.79,-112.32C660.19,-103.7 634.5,-90.36 615.28,-80.39"/>
<polygon fill="midnightblue" stroke="midnightblue" points="616.66,-77.16 606.17,-75.65 613.43,-83.37 616.66,-77.16"/>
</g>
<!-- Node24&#45;&gt;Node5 -->
<g id="edge16" class="edge">
<title>Node24&#45;&gt;Node5</title>
<path fill="none" stroke="midnightblue" d="M759.49,-112.44C724.36,-103.05 667.9,-87.96 629.79,-77.77"/>
<polygon fill="midnightblue" stroke="midnightblue" points="630.6,-74.36 620.04,-75.16 628.79,-81.13 630.6,-74.36"/>
</g>
<!-- Node32&#45;&gt;Node15 -->
<g id="edge18" class="edge">
<title>Node32&#45;&gt;Node15</title>
<path fill="none" stroke="midnightblue" d="M673.46,-173.98C657.45,-164.25 631.05,-148.23 612.13,-136.74"/>
<polygon fill="midnightblue" stroke="midnightblue" points="613.88,-133.71 603.51,-131.51 610.25,-139.69 613.88,-133.71"/>
</g>
<!-- Node32&#45;&gt;Node22 -->
<g id="edge19" class="edge">
<title>Node32&#45;&gt;Node22</title>
<path fill="none" stroke="midnightblue" d="M688.36,-173.98C689.21,-165.58 690.53,-152.48 691.62,-141.66"/>
<polygon fill="midnightblue" stroke="midnightblue" points="695.12,-141.81 692.64,-131.51 688.16,-141.11 695.12,-141.81"/>
</g>
</g>
</svg>
