<?xml version="1.0" encoding="UTF-8" standalone="no"?>
<!DOCTYPE svg PUBLIC "-//W3C//DTD SVG 1.1//EN"
 "http://www.w3.org/Graphics/SVG/1.1/DTD/svg11.dtd">
<!-- Generated by graphviz version 2.43.0 (0)
 -->
<!-- Title: src/cfg_dispatcher.hpp Pages: 1 -->
<svg width="577pt" height="263pt"
 viewBox="0.00 0.00 577.41 263.00" xmlns="http://www.w3.org/2000/svg" xmlns:xlink="http://www.w3.org/1999/xlink">
<g id="graph0" class="graph" transform="scale(1 1) rotate(0) translate(4 259)">
<title>src/cfg_dispatcher.hpp</title>
<polygon fill="white" stroke="transparent" points="-4,4 -4,-259 573.41,-259 573.41,4 -4,4"/>
<!-- Node1 -->
<g id="node1" class="node">
<title>Node1</title>
<g id="a_node1"><a xlink:title=" ">
<polygon fill="#bfbfbf" stroke="black" points="184.91,-235.5 184.91,-254.5 309.91,-254.5 309.91,-235.5 184.91,-235.5"/>
<text text-anchor="middle" x="247.41" y="-242.5" font-family="Helvetica,sans-Serif" font-size="10.00">src/cfg_dispatcher.hpp</text>
</a>
</g>
</g>
<!-- Node2 -->
<g id="node2" class="node">
<title>Node2</title>
<g id="a_node2"><a xlink:href="config_8hpp.html" target="_top" xlink:title=" ">
<polygon fill="white" stroke="black" points="129.91,-179.5 129.91,-198.5 196.91,-198.5 196.91,-179.5 129.91,-179.5"/>
<text text-anchor="middle" x="163.41" y="-186.5" font-family="Helvetica,sans-Serif" font-size="10.00">config.hpp</text>
</a>
</g>
</g>
<!-- Node1&#45;&gt;Node2 -->
<g id="edge1" class="edge">
<title>Node1&#45;&gt;Node2</title>
<path fill="none" stroke="midnightblue" d="M233.91,-235.32C220.81,-226.9 200.7,-213.97 185.3,-204.07"/>
<polygon fill="midnightblue" stroke="midnightblue" points="187.17,-201.12 176.87,-198.65 183.39,-207.01 187.17,-201.12"/>
</g>
<!-- Node12 -->
<g id="node6" class="node">
<title>Node12</title>
<g id="a_node6"><a xlink:href="core_8hpp.html" target="_top" xlink:title=" ">
<polygon fill="white" stroke="black" points="380.91,-179.5 380.91,-198.5 439.91,-198.5 439.91,-179.5 380.91,-179.5"/>
<text text-anchor="middle" x="410.41" y="-186.5" font-family="Helvetica,sans-Serif" font-size="10.00">core.hpp</text>
</a>
</g>
</g>
<!-- Node1&#45;&gt;Node12 -->
<g id="edge5" class="edge">
<title>Node1&#45;&gt;Node12</title>
<path fill="none" stroke="midnightblue" d="M273.24,-235.44C300.66,-226.36 344.19,-211.94 374.84,-201.78"/>
<polygon fill="midnightblue" stroke="midnightblue" points="376.31,-204.98 384.7,-198.52 374.11,-198.34 376.31,-204.98"/>
</g>
<!-- Node3 -->
<g id="node3" class="node">
<title>Node3</title>
<g id="a_node3"><a xlink:href="base_8hpp.html" target="_top" xlink:title=" ">
<polygon fill="white" stroke="red" points="354.91,-0.5 354.91,-19.5 415.91,-19.5 415.91,-0.5 354.91,-0.5"/>
<text text-anchor="middle" x="385.41" y="-7.5" font-family="Helvetica,sans-Serif" font-size="10.00">base.hpp</text>
</a>
</g>
</g>
<!-- Node2&#45;&gt;Node3 -->
<g id="edge2" class="edge">
<title>Node2&#45;&gt;Node3</title>
<path fill="none" stroke="midnightblue" d="M129.82,-184.39C74.29,-177.06 -27.27,-157.16 7.41,-112 48.74,-58.17 255.88,-26.83 344.78,-15.68"/>
<polygon fill="midnightblue" stroke="midnightblue" points="345.27,-19.14 354.77,-14.45 344.41,-12.2 345.27,-19.14"/>
</g>
<!-- Node10 -->
<g id="node4" class="node">
<title>Node10</title>
<g id="a_node4"><a xlink:title=" ">
<polygon fill="white" stroke="#bfbfbf" points="16.91,-112.5 16.91,-142.5 149.91,-142.5 149.91,-112.5 16.91,-112.5"/>
<text text-anchor="start" x="24.91" y="-130.5" font-family="Helvetica,sans-Serif" font-size="10.00">emlabcpp/experimental</text>
<text text-anchor="middle" x="83.41" y="-119.5" font-family="Helvetica,sans-Serif" font-size="10.00">/string_buffer.h</text>
</a>
</g>
</g>
<!-- Node2&#45;&gt;Node10 -->
<g id="edge3" class="edge">
<title>Node2&#45;&gt;Node10</title>
<path fill="none" stroke="midnightblue" d="M151.95,-179.48C141.21,-171.49 124.76,-159.25 110.66,-148.77"/>
<polygon fill="midnightblue" stroke="midnightblue" points="112.37,-145.68 102.26,-142.52 108.2,-151.3 112.37,-145.68"/>
</g>
<!-- Node11 -->
<g id="node5" class="node">
<title>Node11</title>
<g id="a_node5"><a xlink:title=" ">
<polygon fill="white" stroke="#bfbfbf" points="168.41,-112.5 168.41,-142.5 316.41,-142.5 316.41,-112.5 168.41,-112.5"/>
<text text-anchor="start" x="176.41" y="-130.5" font-family="Helvetica,sans-Serif" font-size="10.00">emlabcpp/protocol/register</text>
<text text-anchor="middle" x="242.41" y="-119.5" font-family="Helvetica,sans-Serif" font-size="10.00">_map.h</text>
</a>
</g>
</g>
<!-- Node2&#45;&gt;Node11 -->
<g id="edge4" class="edge">
<title>Node2&#45;&gt;Node11</title>
<path fill="none" stroke="midnightblue" d="M174.73,-179.48C185.33,-171.49 201.57,-159.25 215.49,-148.77"/>
<polygon fill="midnightblue" stroke="midnightblue" points="217.91,-151.33 223.79,-142.52 213.7,-145.74 217.91,-151.33"/>
</g>
<!-- Node13 -->
<g id="node7" class="node">
<title>Node13</title>
<g id="a_node7"><a xlink:href="control_8hpp.html" target="_top" xlink:title=" ">
<polygon fill="white" stroke="red" points="301.91,-56.5 301.91,-75.5 372.91,-75.5 372.91,-56.5 301.91,-56.5"/>
<text text-anchor="middle" x="337.41" y="-63.5" font-family="Helvetica,sans-Serif" font-size="10.00">control.hpp</text>
</a>
</g>
</g>
<!-- Node12&#45;&gt;Node13 -->
<g id="edge6" class="edge">
<title>Node12&#45;&gt;Node13</title>
<path fill="none" stroke="midnightblue" d="M398.43,-179.24C387.88,-170.97 372.77,-157.66 363.41,-143 351.94,-125.05 344.9,-101.46 341.09,-85.36"/>
<polygon fill="midnightblue" stroke="midnightblue" points="344.5,-84.58 338.95,-75.56 337.66,-86.08 344.5,-84.58"/>
</g>
<!-- Node19 -->
<g id="node8" class="node">
<title>Node19</title>
<g id="a_node8"><a xlink:href="indication_8hpp.html" target="_top" xlink:title=" ">
<polygon fill="white" stroke="red" points="391.41,-56.5 391.41,-75.5 477.41,-75.5 477.41,-56.5 391.41,-56.5"/>
<text text-anchor="middle" x="434.41" y="-63.5" font-family="Helvetica,sans-Serif" font-size="10.00">indication.hpp</text>
</a>
</g>
</g>
<!-- Node12&#45;&gt;Node19 -->
<g id="edge8" class="edge">
<title>Node12&#45;&gt;Node19</title>
<path fill="none" stroke="midnightblue" d="M424.19,-179.19C435.23,-171.24 449.91,-158.45 456.41,-143 464.61,-123.5 454.98,-99.95 446,-84.29"/>
<polygon fill="midnightblue" stroke="midnightblue" points="448.9,-82.32 440.67,-75.66 442.95,-86 448.9,-82.32"/>
</g>
<!-- Node21 -->
<g id="node9" class="node">
<title>Node21</title>
<g id="a_node9"><a xlink:href="metrics_8hpp.html" target="_top" xlink:title=" ">
<polygon fill="white" stroke="red" points="495.41,-56.5 495.41,-75.5 569.41,-75.5 569.41,-56.5 495.41,-56.5"/>
<text text-anchor="middle" x="532.41" y="-63.5" font-family="Helvetica,sans-Serif" font-size="10.00">metrics.hpp</text>
</a>
</g>
</g>
<!-- Node12&#45;&gt;Node21 -->
<g id="edge10" class="edge">
<title>Node12&#45;&gt;Node21</title>
<path fill="none" stroke="midnightblue" d="M424.55,-179.34C437.69,-170.94 457.44,-157.37 472.41,-143 491.46,-124.7 509.73,-100.23 521,-84.06"/>
<polygon fill="midnightblue" stroke="midnightblue" points="524.03,-85.84 526.78,-75.6 518.25,-81.88 524.03,-85.84"/>
</g>
<!-- Node29 -->
<g id="node10" class="node">
<title>Node29</title>
<g id="a_node10"><a xlink:href="monitor_8hpp.html" target="_top" xlink:title=" ">
<polygon fill="white" stroke="red" points="372.91,-118 372.91,-137 447.91,-137 447.91,-118 372.91,-118"/>
<text text-anchor="middle" x="410.41" y="-125" font-family="Helvetica,sans-Serif" font-size="10.00">monitor.hpp</text>
</a>
</g>
</g>
<!-- Node12&#45;&gt;Node29 -->
<g id="edge12" class="edge">
<title>Node12&#45;&gt;Node29</title>
<path fill="none" stroke="midnightblue" d="M410.41,-179.48C410.41,-171.08 410.41,-157.98 410.41,-147.16"/>
<polygon fill="midnightblue" stroke="midnightblue" points="413.91,-147.01 410.41,-137.01 406.91,-147.01 413.91,-147.01"/>
</g>
<!-- Node13&#45;&gt;Node3 -->
<g id="edge7" class="edge">
<title>Node13&#45;&gt;Node3</title>
<path fill="none" stroke="midnightblue" d="M345.33,-56.08C352.25,-48.3 362.47,-36.8 370.86,-27.37"/>
<polygon fill="midnightblue" stroke="midnightblue" points="373.6,-29.55 377.63,-19.75 368.37,-24.9 373.6,-29.55"/>
</g>
<!-- Node19&#45;&gt;Node3 -->
<g id="edge9" class="edge">
<title>Node19&#45;&gt;Node3</title>
<path fill="none" stroke="midnightblue" d="M426.32,-56.08C419.25,-48.3 408.82,-36.8 400.26,-27.37"/>
<polygon fill="midnightblue" stroke="midnightblue" points="402.66,-24.8 393.35,-19.75 397.48,-29.51 402.66,-24.8"/>
</g>
<!-- Node21&#45;&gt;Node3 -->
<g id="edge11" class="edge">
<title>Node21&#45;&gt;Node3</title>
<path fill="none" stroke="midnightblue" d="M509.12,-56.44C484.6,-47.44 445.81,-33.19 418.21,-23.05"/>
<polygon fill="midnightblue" stroke="midnightblue" points="419.18,-19.68 408.59,-19.52 416.77,-26.25 419.18,-19.68"/>
</g>
<!-- Node29&#45;&gt;Node13 -->
<g id="edge13" class="edge">
<title>Node29&#45;&gt;Node13</title>
<path fill="none" stroke="midnightblue" d="M399.95,-117.98C388.46,-108.61 369.78,-93.38 355.82,-82.01"/>
<polygon fill="midnightblue" stroke="midnightblue" points="357.81,-79.11 347.85,-75.51 353.39,-84.54 357.81,-79.11"/>
</g>
<!-- Node29&#45;&gt;Node19 -->
<g id="edge14" class="edge">
<title>Node29&#45;&gt;Node19</title>
<path fill="none" stroke="midnightblue" d="M413.85,-117.98C417.3,-109.4 422.74,-95.93 427.15,-84.98"/>
<polygon fill="midnightblue" stroke="midnightblue" points="430.48,-86.09 430.98,-75.51 423.99,-83.47 430.48,-86.09"/>
</g>
</g>
</svg>
