<?xml version="1.0" encoding="UTF-8" standalone="no"?>
<!DOCTYPE svg PUBLIC "-//W3C//DTD SVG 1.1//EN"
 "http://www.w3.org/Graphics/SVG/1.1/DTD/svg11.dtd">
<!-- Generated by graphviz version 2.43.0 (0)
 -->
<!-- Title: src/fw/cfg_dispatcher.hpp Pages: 1 -->
<svg width="585pt" height="252pt"
 viewBox="0.00 0.00 585.46 252.00" xmlns="http://www.w3.org/2000/svg" xmlns:xlink="http://www.w3.org/1999/xlink">
<g id="graph0" class="graph" transform="scale(1 1) rotate(0) translate(4 248)">
<title>src/fw/cfg_dispatcher.hpp</title>
<polygon fill="white" stroke="transparent" points="-4,4 -4,-248 581.46,-248 581.46,4 -4,4"/>
<!-- Node1 -->
<g id="node1" class="node">
<title>Node1</title>
<g id="a_node1"><a xlink:title=" ">
<polygon fill="#bfbfbf" stroke="black" points="266.08,-224.5 266.08,-243.5 406.08,-243.5 406.08,-224.5 266.08,-224.5"/>
<text text-anchor="middle" x="336.08" y="-231.5" font-family="Helvetica,sans-Serif" font-size="10.00">src/fw/cfg_dispatcher.hpp</text>
</a>
</g>
</g>
<!-- Node2 -->
<g id="node2" class="node">
<title>Node2</title>
<g id="a_node2"><a xlink:title=" ">
<polygon fill="white" stroke="#bfbfbf" points="59.58,-0.5 59.58,-19.5 126.58,-19.5 126.58,-0.5 59.58,-0.5"/>
<text text-anchor="middle" x="93.08" y="-7.5" font-family="Helvetica,sans-Serif" font-size="10.00">config.hpp</text>
</a>
</g>
</g>
<!-- Node1&#45;&gt;Node2 -->
<g id="edge1" class="edge">
<title>Node1&#45;&gt;Node2</title>
<path fill="none" stroke="midnightblue" d="M277.31,-224.5C199.25,-209.7 64.22,-171.11 4.08,-76 -11.19,-51.85 21.64,-33.76 51.65,-22.87"/>
<polygon fill="midnightblue" stroke="midnightblue" points="52.9,-26.14 61.23,-19.59 50.63,-19.52 52.9,-26.14"/>
</g>
<!-- Node3 -->
<g id="node3" class="node">
<title>Node3</title>
<g id="a_node3"><a xlink:href="core_8hpp.html" target="_top" xlink:title=" ">
<polygon fill="white" stroke="black" points="299.58,-168.5 299.58,-187.5 372.58,-187.5 372.58,-168.5 299.58,-168.5"/>
<text text-anchor="middle" x="336.08" y="-175.5" font-family="Helvetica,sans-Serif" font-size="10.00">fw/core.hpp</text>
</a>
</g>
</g>
<!-- Node1&#45;&gt;Node3 -->
<g id="edge2" class="edge">
<title>Node1&#45;&gt;Node3</title>
<path fill="none" stroke="midnightblue" d="M336.08,-224.08C336.08,-217.01 336.08,-206.86 336.08,-197.99"/>
<polygon fill="midnightblue" stroke="midnightblue" points="339.58,-197.75 336.08,-187.75 332.58,-197.75 339.58,-197.75"/>
</g>
<!-- Node17 -->
<g id="node6" class="node">
<title>Node17</title>
<g id="a_node6"><a xlink:href="acquisition_8hpp.html" target="_top" xlink:title=" ">
<polygon fill="white" stroke="red" points="324.08,-56.5 324.08,-75.5 452.08,-75.5 452.08,-56.5 324.08,-56.5"/>
<text text-anchor="middle" x="388.08" y="-63.5" font-family="Helvetica,sans-Serif" font-size="10.00">drivers/acquisition.hpp</text>
</a>
</g>
</g>
<!-- Node1&#45;&gt;Node17 -->
<g id="edge19" class="edge">
<title>Node1&#45;&gt;Node17</title>
<path fill="none" stroke="midnightblue" d="M360.52,-224.46C394.95,-210.94 456.39,-181 482.08,-132 495.46,-106.47 463.38,-88.98 433.13,-78.63"/>
<polygon fill="midnightblue" stroke="midnightblue" points="434.02,-75.24 423.43,-75.52 431.88,-81.91 434.02,-75.24"/>
</g>
<!-- Node4 -->
<g id="node4" class="node">
<title>Node4</title>
<g id="a_node4"><a xlink:href="control_8hpp.html" target="_top" xlink:title=" ">
<polygon fill="white" stroke="red" points="13.58,-56.5 13.58,-75.5 84.58,-75.5 84.58,-56.5 13.58,-56.5"/>
<text text-anchor="middle" x="49.08" y="-63.5" font-family="Helvetica,sans-Serif" font-size="10.00">control.hpp</text>
</a>
</g>
</g>
<!-- Node3&#45;&gt;Node4 -->
<g id="edge3" class="edge">
<title>Node3&#45;&gt;Node4</title>
<path fill="none" stroke="midnightblue" d="M299.52,-170.19C264.3,-162.97 209.9,-150.12 165.08,-132 130.27,-117.94 92.89,-95.52 70.24,-81.03"/>
<polygon fill="midnightblue" stroke="midnightblue" points="72.05,-78.04 61.76,-75.53 68.25,-83.91 72.05,-78.04"/>
</g>
<!-- Node16 -->
<g id="node5" class="node">
<title>Node16</title>
<g id="a_node5"><a xlink:href="callbacks_8hpp.html" target="_top" xlink:title=" ">
<polygon fill="white" stroke="red" points="191.08,-112.5 191.08,-131.5 289.08,-131.5 289.08,-112.5 191.08,-112.5"/>
<text text-anchor="middle" x="240.08" y="-119.5" font-family="Helvetica,sans-Serif" font-size="10.00">fw/callbacks.hpp</text>
</a>
</g>
</g>
<!-- Node3&#45;&gt;Node16 -->
<g id="edge4" class="edge">
<title>Node3&#45;&gt;Node16</title>
<path fill="none" stroke="midnightblue" d="M320.65,-168.32C305.54,-159.82 282.26,-146.73 264.61,-136.8"/>
<polygon fill="midnightblue" stroke="midnightblue" points="265.89,-133.51 255.46,-131.65 262.46,-139.61 265.89,-133.51"/>
</g>
<!-- Node3&#45;&gt;Node17 -->
<g id="edge11" class="edge">
<title>Node3&#45;&gt;Node17</title>
<path fill="none" stroke="midnightblue" d="M340.16,-168.37C348.62,-150.46 368.26,-108.92 379.59,-84.95"/>
<polygon fill="midnightblue" stroke="midnightblue" points="382.91,-86.13 384.01,-75.59 376.58,-83.14 382.91,-86.13"/>
</g>
<!-- Node27 -->
<g id="node7" class="node">
<title>Node27</title>
<g id="a_node7"><a xlink:href="hbridge_8hpp.html" target="_top" xlink:title=" ">
<polygon fill="white" stroke="red" points="102.58,-56.5 102.58,-75.5 213.58,-75.5 213.58,-56.5 102.58,-56.5"/>
<text text-anchor="middle" x="158.08" y="-63.5" font-family="Helvetica,sans-Serif" font-size="10.00">drivers/hbridge.hpp</text>
</a>
</g>
</g>
<!-- Node3&#45;&gt;Node27 -->
<g id="edge12" class="edge">
<title>Node3&#45;&gt;Node27</title>
<path fill="none" stroke="midnightblue" d="M299.47,-175.43C265.05,-172.06 214.16,-161.93 182.08,-132 169.18,-119.97 163.18,-100.4 160.41,-85.87"/>
<polygon fill="midnightblue" stroke="midnightblue" points="163.87,-85.29 158.86,-75.95 156.95,-86.37 163.87,-85.29"/>
</g>
<!-- Node28 -->
<g id="node8" class="node">
<title>Node28</title>
<g id="a_node8"><a xlink:href="util_8hpp.html" target="_top" xlink:title=" ">
<polygon fill="white" stroke="red" points="188.08,-0.5 188.08,-19.5 256.08,-19.5 256.08,-0.5 188.08,-0.5"/>
<text text-anchor="middle" x="222.08" y="-7.5" font-family="Helvetica,sans-Serif" font-size="10.00">fw/util.hpp</text>
</a>
</g>
</g>
<!-- Node3&#45;&gt;Node28 -->
<g id="edge16" class="edge">
<title>Node3&#45;&gt;Node28</title>
<path fill="none" stroke="midnightblue" d="M372.67,-171.87C451.25,-159.43 624.39,-123.6 565.08,-56 545.66,-33.88 354.86,-19.25 266.53,-13.61"/>
<polygon fill="midnightblue" stroke="midnightblue" points="266.48,-10.1 256.28,-12.97 266.04,-17.09 266.48,-10.1"/>
</g>
<!-- Node29 -->
<g id="node9" class="node">
<title>Node29</title>
<g id="a_node9"><a xlink:href="metrics_8hpp.html" target="_top" xlink:title=" ">
<polygon fill="white" stroke="red" points="232.08,-56.5 232.08,-75.5 306.08,-75.5 306.08,-56.5 232.08,-56.5"/>
<text text-anchor="middle" x="269.08" y="-63.5" font-family="Helvetica,sans-Serif" font-size="10.00">metrics.hpp</text>
</a>
</g>
</g>
<!-- Node3&#45;&gt;Node29 -->
<g id="edge18" class="edge">
<title>Node3&#45;&gt;Node29</title>
<path fill="none" stroke="midnightblue" d="M331.03,-168.1C323.87,-155.51 310.25,-131.83 298.08,-112 292.35,-102.68 285.76,-92.42 280.31,-84.05"/>
<polygon fill="midnightblue" stroke="midnightblue" points="283.16,-82 274.75,-75.56 277.3,-85.84 283.16,-82"/>
</g>
<!-- Node34 -->
<g id="node10" class="node">
<title>Node34</title>
<g id="a_node10"><a xlink:href="monitor_8hpp.html" target="_top" xlink:title=" ">
<polygon fill="white" stroke="black" points="383.58,-112.5 383.58,-131.5 472.58,-131.5 472.58,-112.5 383.58,-112.5"/>
<text text-anchor="middle" x="428.08" y="-119.5" font-family="Helvetica,sans-Serif" font-size="10.00">fw/monitor.hpp</text>
</a>
</g>
</g>
<!-- Node3&#45;&gt;Node34 -->
<g id="edge13" class="edge">
<title>Node3&#45;&gt;Node34</title>
<path fill="none" stroke="midnightblue" d="M350.86,-168.32C365.34,-159.82 387.65,-146.73 404.57,-136.8"/>
<polygon fill="midnightblue" stroke="midnightblue" points="406.48,-139.74 413.33,-131.65 402.94,-133.7 406.48,-139.74"/>
</g>
<!-- Node35 -->
<g id="node11" class="node">
<title>Node35</title>
<g id="a_node11"><a xlink:href="indication_8hpp.html" target="_top" xlink:title=" ">
<polygon fill="white" stroke="red" points="470.08,-56.5 470.08,-75.5 556.08,-75.5 556.08,-56.5 470.08,-56.5"/>
<text text-anchor="middle" x="513.08" y="-63.5" font-family="Helvetica,sans-Serif" font-size="10.00">indication.hpp</text>
</a>
</g>
</g>
<!-- Node3&#45;&gt;Node35 -->
<g id="edge17" class="edge">
<title>Node3&#45;&gt;Node35</title>
<path fill="none" stroke="midnightblue" d="M372.73,-173.93C404.91,-169.49 451.26,-158.61 482.08,-132 496.1,-119.89 504.28,-100.01 508.68,-85.42"/>
<polygon fill="midnightblue" stroke="midnightblue" points="512.12,-86.08 511.34,-75.51 505.36,-84.26 512.12,-86.08"/>
</g>
<!-- Node16&#45;&gt;Node4 -->
<g id="edge5" class="edge">
<title>Node16&#45;&gt;Node4</title>
<path fill="none" stroke="midnightblue" d="M209.81,-112.44C177.12,-103.2 124.89,-88.44 88.89,-78.26"/>
<polygon fill="midnightblue" stroke="midnightblue" points="89.77,-74.87 79.2,-75.52 87.87,-81.61 89.77,-74.87"/>
</g>
<!-- Node16&#45;&gt;Node17 -->
<g id="edge6" class="edge">
<title>Node16&#45;&gt;Node17</title>
<path fill="none" stroke="midnightblue" d="M263.53,-112.44C288.21,-103.44 327.26,-89.19 355.05,-79.05"/>
<polygon fill="midnightblue" stroke="midnightblue" points="356.54,-82.23 364.73,-75.52 354.14,-75.66 356.54,-82.23"/>
</g>
<!-- Node16&#45;&gt;Node27 -->
<g id="edge7" class="edge">
<title>Node16&#45;&gt;Node27</title>
<path fill="none" stroke="midnightblue" d="M226.9,-112.32C214.23,-103.98 194.84,-91.21 179.87,-81.35"/>
<polygon fill="midnightblue" stroke="midnightblue" points="181.5,-78.23 171.22,-75.65 177.65,-84.08 181.5,-78.23"/>
</g>
<!-- Node16&#45;&gt;Node29 -->
<g id="edge10" class="edge">
<title>Node16&#45;&gt;Node29</title>
<path fill="none" stroke="midnightblue" d="M244.87,-112.08C248.83,-104.69 254.6,-93.95 259.51,-84.81"/>
<polygon fill="midnightblue" stroke="midnightblue" points="262.73,-86.22 264.38,-75.75 256.56,-82.91 262.73,-86.22"/>
</g>
<!-- Node27&#45;&gt;Node2 -->
<g id="edge8" class="edge">
<title>Node27&#45;&gt;Node2</title>
<path fill="none" stroke="midnightblue" d="M147.63,-56.32C137.93,-48.26 123.26,-36.08 111.58,-26.37"/>
<polygon fill="midnightblue" stroke="midnightblue" points="113.64,-23.53 103.71,-19.83 109.17,-28.92 113.64,-23.53"/>
</g>
<!-- Node27&#45;&gt;Node28 -->
<g id="edge9" class="edge">
<title>Node27&#45;&gt;Node28</title>
<path fill="none" stroke="midnightblue" d="M168.36,-56.32C177.91,-48.26 192.36,-36.08 203.86,-26.37"/>
<polygon fill="midnightblue" stroke="midnightblue" points="206.22,-28.96 211.61,-19.83 201.71,-23.61 206.22,-28.96"/>
</g>
<!-- Node34&#45;&gt;Node17 -->
<g id="edge14" class="edge">
<title>Node34&#45;&gt;Node17</title>
<path fill="none" stroke="midnightblue" d="M421.47,-112.08C415.82,-104.46 407.53,-93.26 400.63,-83.94"/>
<polygon fill="midnightblue" stroke="midnightblue" points="403.32,-81.7 394.56,-75.75 397.7,-85.87 403.32,-81.7"/>
</g>
<!-- Node34&#45;&gt;Node35 -->
<g id="edge15" class="edge">
<title>Node34&#45;&gt;Node35</title>
<path fill="none" stroke="midnightblue" d="M441.73,-112.32C454.99,-103.9 475.34,-90.97 490.92,-81.07"/>
<polygon fill="midnightblue" stroke="midnightblue" points="492.89,-83.97 499.45,-75.65 489.14,-78.06 492.89,-83.97"/>
</g>
</g>
</svg>
