<?xml version="1.0" encoding="UTF-8" standalone="no"?>
<!DOCTYPE svg PUBLIC "-//W3C//DTD SVG 1.1//EN"
 "http://www.w3.org/Graphics/SVG/1.1/DTD/svg11.dtd">
<!-- Generated by graphviz version 2.43.0 (0)
 -->
<!-- Title: src/fw/cfg_dispatcher.cpp Pages: 1 -->
<svg width="356pt" height="151pt"
 viewBox="0.00 0.00 355.50 151.00" xmlns="http://www.w3.org/2000/svg" xmlns:xlink="http://www.w3.org/1999/xlink">
<g id="graph0" class="graph" transform="scale(1 1) rotate(0) translate(4 147)">
<title>src/fw/cfg_dispatcher.cpp</title>
<polygon fill="white" stroke="transparent" points="-4,4 -4,-147 351.5,-147 351.5,4 -4,4"/>
<!-- Node1 -->
<g id="node1" class="node">
<title>Node1</title>
<g id="a_node1"><a xlink:title=" ">
<polygon fill="#bfbfbf" stroke="black" points="127,-123.5 127,-142.5 266,-142.5 266,-123.5 127,-123.5"/>
<text text-anchor="middle" x="196.5" y="-130.5" font-family="Helvetica,sans-Serif" font-size="10.00">src/fw/cfg_dispatcher.cpp</text>
</a>
</g>
</g>
<!-- Node2 -->
<g id="node2" class="node">
<title>Node2</title>
<g id="a_node2"><a xlink:href="cfg__dispatcher_8hpp.html" target="_top" xlink:title=" ">
<polygon fill="white" stroke="black" points="59.5,-62 59.5,-81 181.5,-81 181.5,-62 59.5,-62"/>
<text text-anchor="middle" x="120.5" y="-69" font-family="Helvetica,sans-Serif" font-size="10.00">fw/cfg_dispatcher.hpp</text>
</a>
</g>
</g>
<!-- Node1&#45;&gt;Node2 -->
<g id="edge1" class="edge">
<title>Node1&#45;&gt;Node2</title>
<path fill="none" stroke="midnightblue" d="M185.61,-123.48C173.53,-114.02 153.83,-98.6 139.26,-87.19"/>
<polygon fill="midnightblue" stroke="midnightblue" points="141.4,-84.42 131.37,-81.01 137.09,-89.93 141.4,-84.42"/>
</g>
<!-- Node25 -->
<g id="node6" class="node">
<title>Node25</title>
<g id="a_node6"><a xlink:title=" ">
<polygon fill="white" stroke="#bfbfbf" points="199.5,-56.5 199.5,-86.5 347.5,-86.5 347.5,-56.5 199.5,-56.5"/>
<text text-anchor="start" x="207.5" y="-74.5" font-family="Helvetica,sans-Serif" font-size="10.00">emlabcpp/protocol/register</text>
<text text-anchor="middle" x="273.5" y="-63.5" font-family="Helvetica,sans-Serif" font-size="10.00">_handler.h</text>
</a>
</g>
</g>
<!-- Node1&#45;&gt;Node25 -->
<g id="edge5" class="edge">
<title>Node1&#45;&gt;Node25</title>
<path fill="none" stroke="midnightblue" d="M207.53,-123.48C217.86,-115.49 233.7,-103.25 247.27,-92.77"/>
<polygon fill="midnightblue" stroke="midnightblue" points="249.58,-95.41 255.35,-86.52 245.3,-89.87 249.58,-95.41"/>
</g>
<!-- Node3 -->
<g id="node3" class="node">
<title>Node3</title>
<g id="a_node3"><a xlink:href="config_8hpp.html" target="_top" xlink:title=" ">
<polygon fill="white" stroke="red" points="0,-0.5 0,-19.5 67,-19.5 67,-0.5 0,-0.5"/>
<text text-anchor="middle" x="33.5" y="-7.5" font-family="Helvetica,sans-Serif" font-size="10.00">config.hpp</text>
</a>
</g>
</g>
<!-- Node2&#45;&gt;Node3 -->
<g id="edge2" class="edge">
<title>Node2&#45;&gt;Node3</title>
<path fill="none" stroke="midnightblue" d="M108.04,-61.98C94.08,-52.43 71.24,-36.81 54.51,-25.37"/>
<polygon fill="midnightblue" stroke="midnightblue" points="56.17,-22.27 45.94,-19.51 52.22,-28.04 56.17,-22.27"/>
</g>
<!-- Node5 -->
<g id="node4" class="node">
<title>Node5</title>
<g id="a_node4"><a xlink:href="control_8hpp.html" target="_top" xlink:title=" ">
<polygon fill="white" stroke="red" points="85,-0.5 85,-19.5 156,-19.5 156,-0.5 85,-0.5"/>
<text text-anchor="middle" x="120.5" y="-7.5" font-family="Helvetica,sans-Serif" font-size="10.00">control.hpp</text>
</a>
</g>
</g>
<!-- Node2&#45;&gt;Node5 -->
<g id="edge3" class="edge">
<title>Node2&#45;&gt;Node5</title>
<path fill="none" stroke="midnightblue" d="M120.5,-61.98C120.5,-53.58 120.5,-40.48 120.5,-29.66"/>
<polygon fill="midnightblue" stroke="midnightblue" points="124,-29.51 120.5,-19.51 117,-29.51 124,-29.51"/>
</g>
<!-- Node15 -->
<g id="node5" class="node">
<title>Node15</title>
<g id="a_node5"><a xlink:href="acquisition_8hpp.html" target="_top" xlink:title=" ">
<polygon fill="white" stroke="red" points="174.5,-0.5 174.5,-19.5 316.5,-19.5 316.5,-0.5 174.5,-0.5"/>
<text text-anchor="middle" x="245.5" y="-7.5" font-family="Helvetica,sans-Serif" font-size="10.00">fw/drivers/acquisition.hpp</text>
</a>
</g>
</g>
<!-- Node2&#45;&gt;Node15 -->
<g id="edge4" class="edge">
<title>Node2&#45;&gt;Node15</title>
<path fill="none" stroke="midnightblue" d="M138.41,-61.98C159.39,-51.99 194.35,-35.35 218.59,-23.81"/>
<polygon fill="midnightblue" stroke="midnightblue" points="220.1,-26.97 227.62,-19.51 217.09,-20.65 220.1,-26.97"/>
</g>
</g>
</svg>
