<?xml version="1.0" encoding="UTF-8" standalone="no"?>
<!DOCTYPE svg PUBLIC "-//W3C//DTD SVG 1.1//EN"
 "http://www.w3.org/Graphics/SVG/1.1/DTD/svg11.dtd">
<!-- Generated by graphviz version 2.43.0 (0)
 -->
<!-- Title: src/cfg/dispatcher.hpp Pages: 1 -->
<svg width="837pt" height="319pt"
 viewBox="0.00 0.00 836.50 319.00" xmlns="http://www.w3.org/2000/svg" xmlns:xlink="http://www.w3.org/1999/xlink">
<g id="graph0" class="graph" transform="scale(1 1) rotate(0) translate(4 315)">
<title>src/cfg/dispatcher.hpp</title>
<polygon fill="white" stroke="transparent" points="-4,4 -4,-315 832.5,-315 832.5,4 -4,4"/>
<!-- Node1 -->
<g id="node1" class="node">
<title>Node1</title>
<g id="a_node1"><a xlink:title=" ">
<polygon fill="#bfbfbf" stroke="black" points="133,-291.5 133,-310.5 256,-310.5 256,-291.5 133,-291.5"/>
<text text-anchor="middle" x="194.5" y="-298.5" font-family="Helvetica,sans-Serif" font-size="10.00">src/cfg/dispatcher.hpp</text>
</a>
</g>
</g>
<!-- Node2 -->
<g id="node2" class="node">
<title>Node2</title>
<g id="a_node2"><a xlink:href="key_8hpp.html" target="_top" xlink:title=" ">
<polygon fill="white" stroke="black" points="0,-174 0,-193 71,-193 71,-174 0,-174"/>
<text text-anchor="middle" x="35.5" y="-181" font-family="Helvetica,sans-Serif" font-size="10.00">cfg/key.hpp</text>
</a>
</g>
</g>
<!-- Node1&#45;&gt;Node2 -->
<g id="edge1" class="edge">
<title>Node1&#45;&gt;Node2</title>
<path fill="none" stroke="midnightblue" d="M182.55,-291.32C155.5,-271.67 89.34,-223.61 55.76,-199.22"/>
<polygon fill="midnightblue" stroke="midnightblue" points="57.74,-196.33 47.59,-193.28 53.62,-201.99 57.74,-196.33"/>
</g>
<!-- Node4 -->
<g id="node4" class="node">
<title>Node4</title>
<g id="a_node4"><a xlink:href="map_8hpp.html" target="_top" xlink:title=" ">
<polygon fill="white" stroke="black" points="156,-235.5 156,-254.5 233,-254.5 233,-235.5 156,-235.5"/>
<text text-anchor="middle" x="194.5" y="-242.5" font-family="Helvetica,sans-Serif" font-size="10.00">cfg/map.hpp</text>
</a>
</g>
</g>
<!-- Node1&#45;&gt;Node4 -->
<g id="edge3" class="edge">
<title>Node1&#45;&gt;Node4</title>
<path fill="none" stroke="midnightblue" d="M194.5,-291.08C194.5,-284.01 194.5,-273.86 194.5,-264.99"/>
<polygon fill="midnightblue" stroke="midnightblue" points="198,-264.75 194.5,-254.75 191,-264.75 198,-264.75"/>
</g>
<!-- Node14 -->
<g id="node9" class="node">
<title>Node14</title>
<g id="a_node9"><a xlink:href="core_8hpp.html" target="_top" xlink:title=" ">
<polygon fill="white" stroke="black" points="658,-235.5 658,-254.5 717,-254.5 717,-235.5 658,-235.5"/>
<text text-anchor="middle" x="687.5" y="-242.5" font-family="Helvetica,sans-Serif" font-size="10.00">core.hpp</text>
</a>
</g>
</g>
<!-- Node1&#45;&gt;Node14 -->
<g id="edge10" class="edge">
<title>Node1&#45;&gt;Node14</title>
<path fill="none" stroke="midnightblue" d="M256.44,-293.22C359.22,-281.96 562.16,-259.73 647.84,-250.34"/>
<polygon fill="midnightblue" stroke="midnightblue" points="648.38,-253.81 657.94,-249.24 647.61,-246.85 648.38,-253.81"/>
</g>
<!-- Node3 -->
<g id="node3" class="node">
<title>Node3</title>
<g id="a_node3"><a xlink:title=" ">
<polygon fill="white" stroke="#bfbfbf" points="290.5,-0.5 290.5,-19.5 340.5,-19.5 340.5,-0.5 290.5,-0.5"/>
<text text-anchor="middle" x="315.5" y="-7.5" font-family="Helvetica,sans-Serif" font-size="10.00">cstdint</text>
</a>
</g>
</g>
<!-- Node2&#45;&gt;Node3 -->
<g id="edge2" class="edge">
<title>Node2&#45;&gt;Node3</title>
<path fill="none" stroke="midnightblue" d="M39.58,-173.99C46.92,-159.49 63.63,-129.82 85.5,-112 145.34,-63.23 232.39,-33.61 280.41,-19.98"/>
<polygon fill="midnightblue" stroke="midnightblue" points="281.62,-23.28 290.33,-17.24 279.76,-16.53 281.62,-23.28"/>
</g>
<!-- Node4&#45;&gt;Node2 -->
<g id="edge6" class="edge">
<title>Node4&#45;&gt;Node2</title>
<path fill="none" stroke="midnightblue" d="M171.72,-235.48C144.45,-225.27 98.59,-208.11 67.7,-196.55"/>
<polygon fill="midnightblue" stroke="midnightblue" points="68.83,-193.24 58.24,-193.01 66.38,-199.79 68.83,-193.24"/>
</g>
<!-- Node5 -->
<g id="node5" class="node">
<title>Node5</title>
<g id="a_node5"><a xlink:href="base_8hpp.html" target="_top" xlink:title=" ">
<polygon fill="white" stroke="red" points="566,-56.5 566,-75.5 627,-75.5 627,-56.5 566,-56.5"/>
<text text-anchor="middle" x="596.5" y="-63.5" font-family="Helvetica,sans-Serif" font-size="10.00">base.hpp</text>
</a>
</g>
</g>
<!-- Node4&#45;&gt;Node5 -->
<g id="edge4" class="edge">
<title>Node4&#45;&gt;Node5</title>
<path fill="none" stroke="midnightblue" d="M166.48,-235.4C149.33,-228.51 128.75,-216.98 118.5,-199 111.68,-187.03 109.82,-178.7 118.5,-168 173.57,-100.08 449.96,-76.05 555.48,-69.27"/>
<polygon fill="midnightblue" stroke="midnightblue" points="555.96,-72.75 565.73,-68.63 555.53,-65.76 555.96,-72.75"/>
</g>
<!-- Node11 -->
<g id="node6" class="node">
<title>Node11</title>
<g id="a_node6"><a xlink:title=" ">
<polygon fill="white" stroke="#bfbfbf" points="128,-168.5 128,-198.5 261,-198.5 261,-168.5 128,-168.5"/>
<text text-anchor="start" x="136" y="-186.5" font-family="Helvetica,sans-Serif" font-size="10.00">emlabcpp/experimental</text>
<text text-anchor="middle" x="194.5" y="-175.5" font-family="Helvetica,sans-Serif" font-size="10.00">/string_buffer.h</text>
</a>
</g>
</g>
<!-- Node4&#45;&gt;Node11 -->
<g id="edge7" class="edge">
<title>Node4&#45;&gt;Node11</title>
<path fill="none" stroke="midnightblue" d="M194.5,-235.48C194.5,-228.47 194.5,-218.19 194.5,-208.7"/>
<polygon fill="midnightblue" stroke="midnightblue" points="198,-208.52 194.5,-198.52 191,-208.52 198,-208.52"/>
</g>
<!-- Node12 -->
<g id="node7" class="node">
<title>Node12</title>
<g id="a_node7"><a xlink:title=" ">
<polygon fill="white" stroke="#bfbfbf" points="279.5,-168.5 279.5,-198.5 427.5,-198.5 427.5,-168.5 279.5,-168.5"/>
<text text-anchor="start" x="287.5" y="-186.5" font-family="Helvetica,sans-Serif" font-size="10.00">emlabcpp/protocol/register</text>
<text text-anchor="middle" x="353.5" y="-175.5" font-family="Helvetica,sans-Serif" font-size="10.00">_handler.h</text>
</a>
</g>
</g>
<!-- Node4&#45;&gt;Node12 -->
<g id="edge8" class="edge">
<title>Node4&#45;&gt;Node12</title>
<path fill="none" stroke="midnightblue" d="M217.28,-235.48C240.43,-226.81 276.95,-213.15 306.36,-202.14"/>
<polygon fill="midnightblue" stroke="midnightblue" points="307.89,-205.31 316.03,-198.52 305.43,-198.75 307.89,-205.31"/>
</g>
<!-- Node13 -->
<g id="node8" class="node">
<title>Node13</title>
<g id="a_node8"><a xlink:title=" ">
<polygon fill="white" stroke="#bfbfbf" points="445.5,-168.5 445.5,-198.5 593.5,-198.5 593.5,-168.5 445.5,-168.5"/>
<text text-anchor="start" x="453.5" y="-186.5" font-family="Helvetica,sans-Serif" font-size="10.00">emlabcpp/protocol/register</text>
<text text-anchor="middle" x="519.5" y="-175.5" font-family="Helvetica,sans-Serif" font-size="10.00">_map.h</text>
</a>
</g>
</g>
<!-- Node4&#45;&gt;Node13 -->
<g id="edge9" class="edge">
<title>Node4&#45;&gt;Node13</title>
<path fill="none" stroke="midnightblue" d="M233.06,-236.94C282.64,-227.86 370.11,-211.85 435.39,-199.9"/>
<polygon fill="midnightblue" stroke="midnightblue" points="436.06,-203.33 445.26,-198.09 434.8,-196.45 436.06,-203.33"/>
</g>
<!-- Node5&#45;&gt;Node3 -->
<g id="edge5" class="edge">
<title>Node5&#45;&gt;Node3</title>
<path fill="none" stroke="midnightblue" d="M565.89,-59.12C513.38,-49.03 406.4,-28.47 350.81,-17.79"/>
<polygon fill="midnightblue" stroke="midnightblue" points="351.21,-14.3 340.73,-15.85 349.89,-21.17 351.21,-14.3"/>
</g>
<!-- Node15 -->
<g id="node10" class="node">
<title>Node15</title>
<g id="a_node10"><a xlink:href="control_8hpp.html" target="_top" xlink:title=" ">
<polygon fill="white" stroke="red" points="561,-112.5 561,-131.5 632,-131.5 632,-112.5 561,-112.5"/>
<text text-anchor="middle" x="596.5" y="-119.5" font-family="Helvetica,sans-Serif" font-size="10.00">control.hpp</text>
</a>
</g>
</g>
<!-- Node14&#45;&gt;Node15 -->
<g id="edge11" class="edge">
<title>Node14&#45;&gt;Node15</title>
<path fill="none" stroke="midnightblue" d="M676.96,-235.44C666.85,-226.89 651.53,-213.03 640.5,-199 626.13,-180.71 613.26,-157.22 605.2,-141.23"/>
<polygon fill="midnightblue" stroke="midnightblue" points="608.19,-139.37 600.64,-131.94 601.91,-142.46 608.19,-139.37"/>
</g>
<!-- Node21 -->
<g id="node11" class="node">
<title>Node21</title>
<g id="a_node11"><a xlink:href="indication_8hpp.html" target="_top" xlink:title=" ">
<polygon fill="white" stroke="red" points="650.5,-112.5 650.5,-131.5 736.5,-131.5 736.5,-112.5 650.5,-112.5"/>
<text text-anchor="middle" x="693.5" y="-119.5" font-family="Helvetica,sans-Serif" font-size="10.00">indication.hpp</text>
</a>
</g>
</g>
<!-- Node14&#45;&gt;Node21 -->
<g id="edge13" class="edge">
<title>Node14&#45;&gt;Node21</title>
<path fill="none" stroke="midnightblue" d="M701.29,-235.19C712.33,-227.24 727,-214.45 733.5,-199 738.84,-186.3 738.4,-180.88 733.5,-168 729.16,-156.6 720.47,-146.24 712.29,-138.34"/>
<polygon fill="midnightblue" stroke="midnightblue" points="714.54,-135.66 704.77,-131.57 709.86,-140.86 714.54,-135.66"/>
</g>
<!-- Node23 -->
<g id="node12" class="node">
<title>Node23</title>
<g id="a_node12"><a xlink:href="metrics_8hpp.html" target="_top" xlink:title=" ">
<polygon fill="white" stroke="red" points="754.5,-112.5 754.5,-131.5 828.5,-131.5 828.5,-112.5 754.5,-112.5"/>
<text text-anchor="middle" x="791.5" y="-119.5" font-family="Helvetica,sans-Serif" font-size="10.00">metrics.hpp</text>
</a>
</g>
</g>
<!-- Node14&#45;&gt;Node23 -->
<g id="edge15" class="edge">
<title>Node14&#45;&gt;Node23</title>
<path fill="none" stroke="midnightblue" d="M702.99,-235.41C716.51,-227.34 736.02,-214.25 749.5,-199 764.9,-181.58 776.99,-157.57 784.16,-141.23"/>
<polygon fill="midnightblue" stroke="midnightblue" points="787.5,-142.32 788.16,-131.74 781.05,-139.6 787.5,-142.32"/>
</g>
<!-- Node31 -->
<g id="node13" class="node">
<title>Node31</title>
<g id="a_node13"><a xlink:href="monitor_8hpp.html" target="_top" xlink:title=" ">
<polygon fill="white" stroke="red" points="650,-174 650,-193 725,-193 725,-174 650,-174"/>
<text text-anchor="middle" x="687.5" y="-181" font-family="Helvetica,sans-Serif" font-size="10.00">monitor.hpp</text>
</a>
</g>
</g>
<!-- Node14&#45;&gt;Node31 -->
<g id="edge17" class="edge">
<title>Node14&#45;&gt;Node31</title>
<path fill="none" stroke="midnightblue" d="M687.5,-235.48C687.5,-227.08 687.5,-213.98 687.5,-203.16"/>
<polygon fill="midnightblue" stroke="midnightblue" points="691,-203.01 687.5,-193.01 684,-203.01 691,-203.01"/>
</g>
<!-- Node15&#45;&gt;Node5 -->
<g id="edge12" class="edge">
<title>Node15&#45;&gt;Node5</title>
<path fill="none" stroke="midnightblue" d="M596.5,-112.08C596.5,-105.01 596.5,-94.86 596.5,-85.99"/>
<polygon fill="midnightblue" stroke="midnightblue" points="600,-85.75 596.5,-75.75 593,-85.75 600,-85.75"/>
</g>
<!-- Node21&#45;&gt;Node5 -->
<g id="edge14" class="edge">
<title>Node21&#45;&gt;Node5</title>
<path fill="none" stroke="midnightblue" d="M677.92,-112.32C662.5,-103.74 638.69,-90.49 620.79,-80.52"/>
<polygon fill="midnightblue" stroke="midnightblue" points="622.49,-77.46 612.05,-75.65 619.08,-83.58 622.49,-77.46"/>
</g>
<!-- Node23&#45;&gt;Node5 -->
<g id="edge16" class="edge">
<title>Node23&#45;&gt;Node5</title>
<path fill="none" stroke="midnightblue" d="M760.6,-112.44C727.23,-103.2 673.91,-88.44 637.15,-78.26"/>
<polygon fill="midnightblue" stroke="midnightblue" points="637.83,-74.81 627.25,-75.52 635.96,-81.56 637.83,-74.81"/>
</g>
<!-- Node31&#45;&gt;Node15 -->
<g id="edge18" class="edge">
<title>Node31&#45;&gt;Node15</title>
<path fill="none" stroke="midnightblue" d="M674.46,-173.98C659.73,-164.34 635.53,-148.52 617.99,-137.05"/>
<polygon fill="midnightblue" stroke="midnightblue" points="619.8,-134.05 609.51,-131.51 615.97,-139.91 619.8,-134.05"/>
</g>
<!-- Node31&#45;&gt;Node21 -->
<g id="edge19" class="edge">
<title>Node31&#45;&gt;Node21</title>
<path fill="none" stroke="midnightblue" d="M688.36,-173.98C689.21,-165.58 690.53,-152.48 691.62,-141.66"/>
<polygon fill="midnightblue" stroke="midnightblue" points="695.12,-141.81 692.64,-131.51 688.16,-141.11 695.12,-141.81"/>
</g>
</g>
</svg>
