<?xml version="1.0" encoding="UTF-8" standalone="no"?>
<!DOCTYPE svg PUBLIC "-//W3C//DTD SVG 1.1//EN"
 "http://www.w3.org/Graphics/SVG/1.1/DTD/svg11.dtd">
<!-- Generated by graphviz version 2.43.0 (0)
 -->
<!-- Title: src/fw/cfg_dispatcher.hpp Pages: 1 -->
<svg width="533pt" height="196pt"
 viewBox="0.00 0.00 532.50 196.00" xmlns="http://www.w3.org/2000/svg" xmlns:xlink="http://www.w3.org/1999/xlink">
<g id="graph0" class="graph" transform="scale(1 1) rotate(0) translate(4 192)">
<title>src/fw/cfg_dispatcher.hpp</title>
<polygon fill="white" stroke="transparent" points="-4,4 -4,-192 528.5,-192 528.5,4 -4,4"/>
<!-- Node1 -->
<g id="node1" class="node">
<title>Node1</title>
<g id="a_node1"><a xlink:title=" ">
<polygon fill="#bfbfbf" stroke="black" points="133.5,-168.5 133.5,-187.5 273.5,-187.5 273.5,-168.5 133.5,-168.5"/>
<text text-anchor="middle" x="203.5" y="-175.5" font-family="Helvetica,sans-Serif" font-size="10.00">src/fw/cfg_dispatcher.hpp</text>
</a>
</g>
</g>
<!-- Node2 -->
<g id="node2" class="node">
<title>Node2</title>
<g id="a_node2"><a xlink:title=" ">
<polygon fill="white" stroke="#bfbfbf" points="126,-112.5 126,-131.5 193,-131.5 193,-112.5 126,-112.5"/>
<text text-anchor="middle" x="159.5" y="-119.5" font-family="Helvetica,sans-Serif" font-size="10.00">config.hpp</text>
</a>
</g>
</g>
<!-- Node1&#45;&gt;Node2 -->
<g id="edge1" class="edge">
<title>Node1&#45;&gt;Node2</title>
<path fill="none" stroke="midnightblue" d="M196.23,-168.08C189.96,-160.38 180.71,-149.03 173.07,-139.65"/>
<polygon fill="midnightblue" stroke="midnightblue" points="175.66,-137.29 166.63,-131.75 170.23,-141.71 175.66,-137.29"/>
</g>
<!-- Node3 -->
<g id="node3" class="node">
<title>Node3</title>
<g id="a_node3"><a xlink:href="core_8hpp.html" target="_top" xlink:title=" ">
<polygon fill="white" stroke="black" points="211,-112.5 211,-131.5 284,-131.5 284,-112.5 211,-112.5"/>
<text text-anchor="middle" x="247.5" y="-119.5" font-family="Helvetica,sans-Serif" font-size="10.00">fw/core.hpp</text>
</a>
</g>
</g>
<!-- Node1&#45;&gt;Node3 -->
<g id="edge2" class="edge">
<title>Node1&#45;&gt;Node3</title>
<path fill="none" stroke="midnightblue" d="M210.77,-168.08C217.04,-160.38 226.29,-149.03 233.93,-139.65"/>
<polygon fill="midnightblue" stroke="midnightblue" points="236.77,-141.71 240.37,-131.75 231.34,-137.29 236.77,-141.71"/>
</g>
<!-- Node4 -->
<g id="node4" class="node">
<title>Node4</title>
<g id="a_node4"><a xlink:href="control_8hpp.html" target="_top" xlink:title=" ">
<polygon fill="white" stroke="red" points="0,-0.5 0,-19.5 71,-19.5 71,-0.5 0,-0.5"/>
<text text-anchor="middle" x="35.5" y="-7.5" font-family="Helvetica,sans-Serif" font-size="10.00">control.hpp</text>
</a>
</g>
</g>
<!-- Node3&#45;&gt;Node4 -->
<g id="edge3" class="edge">
<title>Node3&#45;&gt;Node4</title>
<path fill="none" stroke="midnightblue" d="M210.75,-113.68C151.53,-101.8 41.3,-79.31 38.5,-76 27.9,-63.48 28.36,-44.26 30.74,-29.96"/>
<polygon fill="midnightblue" stroke="midnightblue" points="34.25,-30.27 32.89,-19.77 27.4,-28.83 34.25,-30.27"/>
</g>
<!-- Node17 -->
<g id="node5" class="node">
<title>Node17</title>
<g id="a_node5"><a xlink:href="callbacks_8hpp.html" target="_top" xlink:title=" ">
<polygon fill="white" stroke="red" points="47.5,-56.5 47.5,-75.5 145.5,-75.5 145.5,-56.5 47.5,-56.5"/>
<text text-anchor="middle" x="96.5" y="-63.5" font-family="Helvetica,sans-Serif" font-size="10.00">fw/callbacks.hpp</text>
</a>
</g>
</g>
<!-- Node3&#45;&gt;Node17 -->
<g id="edge4" class="edge">
<title>Node3&#45;&gt;Node17</title>
<path fill="none" stroke="midnightblue" d="M223.57,-112.44C198.28,-103.4 158.2,-89.06 129.82,-78.92"/>
<polygon fill="midnightblue" stroke="midnightblue" points="130.91,-75.59 120.31,-75.52 128.55,-82.18 130.91,-75.59"/>
</g>
<!-- Node30 -->
<g id="node6" class="node">
<title>Node30</title>
<g id="a_node6"><a xlink:href="metrics_8hpp.html" target="_top" xlink:title=" ">
<polygon fill="white" stroke="red" points="105.5,-0.5 105.5,-19.5 179.5,-19.5 179.5,-0.5 105.5,-0.5"/>
<text text-anchor="middle" x="142.5" y="-7.5" font-family="Helvetica,sans-Serif" font-size="10.00">metrics.hpp</text>
</a>
</g>
</g>
<!-- Node3&#45;&gt;Node30 -->
<g id="edge12" class="edge">
<title>Node3&#45;&gt;Node30</title>
<path fill="none" stroke="midnightblue" d="M235.46,-112.42C223.84,-103.85 206.08,-89.99 192.5,-76 178,-61.06 163.75,-41.97 154.19,-28.36"/>
<polygon fill="midnightblue" stroke="midnightblue" points="156.94,-26.17 148.38,-19.92 151.17,-30.14 156.94,-26.17"/>
</g>
<!-- Node37 -->
<g id="node7" class="node">
<title>Node37</title>
<g id="a_node7"><a xlink:href="leds_8hpp.html" target="_top" xlink:title=" ">
<polygon fill="white" stroke="red" points="202,-56.5 202,-75.5 293,-75.5 293,-56.5 202,-56.5"/>
<text text-anchor="middle" x="247.5" y="-63.5" font-family="Helvetica,sans-Serif" font-size="10.00">fw/drv/leds.hpp</text>
</a>
</g>
</g>
<!-- Node3&#45;&gt;Node37 -->
<g id="edge7" class="edge">
<title>Node3&#45;&gt;Node37</title>
<path fill="none" stroke="midnightblue" d="M247.5,-112.08C247.5,-105.01 247.5,-94.86 247.5,-85.99"/>
<polygon fill="midnightblue" stroke="midnightblue" points="251,-85.75 247.5,-75.75 244,-85.75 251,-85.75"/>
</g>
<!-- Node38 -->
<g id="node8" class="node">
<title>Node38</title>
<g id="a_node8"><a xlink:href="monitor_8hpp.html" target="_top" xlink:title=" ">
<polygon fill="white" stroke="red" points="311,-56.5 311,-75.5 400,-75.5 400,-56.5 311,-56.5"/>
<text text-anchor="middle" x="355.5" y="-63.5" font-family="Helvetica,sans-Serif" font-size="10.00">fw/monitor.hpp</text>
</a>
</g>
</g>
<!-- Node3&#45;&gt;Node38 -->
<g id="edge8" class="edge">
<title>Node3&#45;&gt;Node38</title>
<path fill="none" stroke="midnightblue" d="M264.85,-112.32C282.17,-103.66 309.02,-90.24 329,-80.25"/>
<polygon fill="midnightblue" stroke="midnightblue" points="330.81,-83.26 338.19,-75.65 327.68,-77 330.81,-83.26"/>
</g>
<!-- Node39 -->
<g id="node9" class="node">
<title>Node39</title>
<g id="a_node9"><a xlink:href="indication_8hpp.html" target="_top" xlink:title=" ">
<polygon fill="white" stroke="red" points="348.5,-0.5 348.5,-19.5 434.5,-19.5 434.5,-0.5 348.5,-0.5"/>
<text text-anchor="middle" x="391.5" y="-7.5" font-family="Helvetica,sans-Serif" font-size="10.00">indication.hpp</text>
</a>
</g>
</g>
<!-- Node3&#45;&gt;Node39 -->
<g id="edge11" class="edge">
<title>Node3&#45;&gt;Node39</title>
<path fill="none" stroke="midnightblue" d="M284,-115.95C326.7,-109.21 393.5,-95.77 408.5,-76 418.93,-62.26 411.64,-42.7 403.62,-28.64"/>
<polygon fill="midnightblue" stroke="midnightblue" points="406.43,-26.53 398.16,-19.91 400.5,-30.25 406.43,-26.53"/>
</g>
<!-- Node41 -->
<g id="node10" class="node">
<title>Node41</title>
<g id="a_node10"><a xlink:href="util_8hpp.html" target="_top" xlink:title=" ">
<polygon fill="white" stroke="red" points="456.5,-56.5 456.5,-75.5 524.5,-75.5 524.5,-56.5 456.5,-56.5"/>
<text text-anchor="middle" x="490.5" y="-63.5" font-family="Helvetica,sans-Serif" font-size="10.00">fw/util.hpp</text>
</a>
</g>
</g>
<!-- Node3&#45;&gt;Node41 -->
<g id="edge10" class="edge">
<title>Node3&#45;&gt;Node41</title>
<path fill="none" stroke="midnightblue" d="M284.14,-112.86C327.62,-103.19 400.06,-87.1 446.53,-76.77"/>
<polygon fill="midnightblue" stroke="midnightblue" points="447.31,-80.18 456.31,-74.6 445.79,-73.35 447.31,-80.18"/>
</g>
<!-- Node17&#45;&gt;Node4 -->
<g id="edge5" class="edge">
<title>Node17&#45;&gt;Node4</title>
<path fill="none" stroke="midnightblue" d="M86.7,-56.32C77.68,-48.34 64.09,-36.31 53.18,-26.65"/>
<polygon fill="midnightblue" stroke="midnightblue" points="55.29,-23.84 45.48,-19.83 50.65,-29.08 55.29,-23.84"/>
</g>
<!-- Node17&#45;&gt;Node30 -->
<g id="edge6" class="edge">
<title>Node17&#45;&gt;Node30</title>
<path fill="none" stroke="midnightblue" d="M104.1,-56.08C110.73,-48.3 120.52,-36.8 128.56,-27.37"/>
<polygon fill="midnightblue" stroke="midnightblue" points="131.23,-29.63 135.05,-19.75 125.9,-25.09 131.23,-29.63"/>
</g>
<!-- Node38&#45;&gt;Node39 -->
<g id="edge9" class="edge">
<title>Node38&#45;&gt;Node39</title>
<path fill="none" stroke="midnightblue" d="M361.44,-56.08C366.48,-48.53 373.84,-37.49 380.01,-28.23"/>
<polygon fill="midnightblue" stroke="midnightblue" points="383.03,-30.01 385.67,-19.75 377.21,-26.13 383.03,-30.01"/>
</g>
</g>
</svg>
