<?xml version="1.0" encoding="UTF-8" standalone="no"?>
<!DOCTYPE svg PUBLIC "-//W3C//DTD SVG 1.1//EN"
 "http://www.w3.org/Graphics/SVG/1.1/DTD/svg11.dtd">
<!-- Generated by graphviz version 2.43.0 (0)
 -->
<!-- Title: servio::base::adc_detailed_cb_interface Pages: 1 -->
<svg width="324pt" height="137pt"
 viewBox="0.00 0.00 324.00 137.00" xmlns="http://www.w3.org/2000/svg" xmlns:xlink="http://www.w3.org/1999/xlink">
<g id="graph0" class="graph" transform="scale(1 1) rotate(0) translate(4 133)">
<title>servio::base::adc_detailed_cb_interface</title>
<polygon fill="white" stroke="transparent" points="-4,4 -4,-133 320,-133 320,4 -4,4"/>
<!-- Node1 -->
<g id="node1" class="node">
<title>Node1</title>
<g id="a_node1"><a xlink:title=" ">
<polygon fill="#bfbfbf" stroke="black" points="0,-49.5 0,-79.5 144,-79.5 144,-49.5 0,-49.5"/>
<text text-anchor="start" x="8" y="-67.5" font-family="Helvetica,sans-Serif" font-size="10.00">servio::base::adc_detailed</text>
<text text-anchor="middle" x="72" y="-56.5" font-family="Helvetica,sans-Serif" font-size="10.00">_cb_interface</text>
</a>
</g>
</g>
<!-- Node2 -->
<g id="node2" class="node">
<title>Node2</title>
<g id="a_node2"><a xlink:href="classservio_1_1core_1_1current__callback.html" target="_top" xlink:title=" ">
<polygon fill="white" stroke="black" points="191,-98.5 191,-128.5 305,-128.5 305,-98.5 191,-98.5"/>
<text text-anchor="start" x="199" y="-116.5" font-family="Helvetica,sans-Serif" font-size="10.00">servio::core::current</text>
<text text-anchor="middle" x="248" y="-105.5" font-family="Helvetica,sans-Serif" font-size="10.00">_callback</text>
</a>
</g>
</g>
<!-- Node1&#45;&gt;Node2 -->
<g id="edge1" class="edge">
<title>Node1&#45;&gt;Node2</title>
<path fill="none" stroke="midnightblue" d="M136.28,-82.32C155.07,-87.61 175.45,-93.35 193.55,-98.45"/>
<polygon fill="midnightblue" stroke="midnightblue" points="137.2,-78.94 126.63,-79.6 135.3,-85.68 137.2,-78.94"/>
</g>
<!-- Node3 -->
<g id="node3" class="node">
<title>Node3</title>
<g id="a_node3"><a xlink:href="structservio_1_1drv_1_1adc__detailed__cb.html" target="_top" xlink:title=" ">
<polygon fill="white" stroke="black" points="180,-49.5 180,-79.5 316,-79.5 316,-49.5 180,-49.5"/>
<text text-anchor="start" x="188" y="-67.5" font-family="Helvetica,sans-Serif" font-size="10.00">servio::drv::adc_detailed</text>
<text text-anchor="middle" x="248" y="-56.5" font-family="Helvetica,sans-Serif" font-size="10.00">_cb&lt; Callable &gt;</text>
</a>
</g>
</g>
<!-- Node1&#45;&gt;Node3 -->
<g id="edge2" class="edge">
<title>Node1&#45;&gt;Node3</title>
<path fill="none" stroke="midnightblue" d="M154.09,-64.5C162.71,-64.5 171.41,-64.5 179.85,-64.5"/>
<polygon fill="midnightblue" stroke="midnightblue" points="154.02,-61 144.02,-64.5 154.02,-68 154.02,-61"/>
</g>
<!-- Node4 -->
<g id="node4" class="node">
<title>Node4</title>
<g id="a_node4"><a xlink:href="structservio_1_1drv_1_1empty__adc__detailed__cb.html" target="_top" xlink:title=" ">
<polygon fill="white" stroke="black" points="195.5,-0.5 195.5,-30.5 300.5,-30.5 300.5,-0.5 195.5,-0.5"/>
<text text-anchor="start" x="203.5" y="-18.5" font-family="Helvetica,sans-Serif" font-size="10.00">servio::drv::empty</text>
<text text-anchor="middle" x="248" y="-7.5" font-family="Helvetica,sans-Serif" font-size="10.00">_adc_detailed_cb</text>
</a>
</g>
</g>
<!-- Node1&#45;&gt;Node4 -->
<g id="edge3" class="edge">
<title>Node1&#45;&gt;Node4</title>
<path fill="none" stroke="midnightblue" d="M136.29,-46.68C155.7,-41.21 176.81,-35.27 195.34,-30.05"/>
<polygon fill="midnightblue" stroke="midnightblue" points="135.3,-43.32 126.63,-49.4 137.2,-50.06 135.3,-43.32"/>
</g>
</g>
</svg>
