<?xml version="1.0" encoding="UTF-8" standalone="no"?>
<!DOCTYPE svg PUBLIC "-//W3C//DTD SVG 1.1//EN"
 "http://www.w3.org/Graphics/SVG/1.1/DTD/svg11.dtd">
<!-- Generated by graphviz version 2.43.0 (0)
 -->
<!-- Title: servio::base::period_cb_interface Pages: 1 -->
<svg width="297pt" height="137pt"
 viewBox="0.00 0.00 297.00 137.00" xmlns="http://www.w3.org/2000/svg" xmlns:xlink="http://www.w3.org/1999/xlink">
<g id="graph0" class="graph" transform="scale(1 1) rotate(0) translate(4 133)">
<title>servio::base::period_cb_interface</title>
<polygon fill="white" stroke="transparent" points="-4,4 -4,-133 293,-133 293,4 -4,4"/>
<!-- Node1 -->
<g id="node1" class="node">
<title>Node1</title>
<g id="a_node1"><a xlink:title=" ">
<polygon fill="#bfbfbf" stroke="black" points="0,-49.5 0,-79.5 113,-79.5 113,-49.5 0,-49.5"/>
<text text-anchor="start" x="8" y="-67.5" font-family="Helvetica,sans-Serif" font-size="10.00">servio::base::period</text>
<text text-anchor="middle" x="56.5" y="-56.5" font-family="Helvetica,sans-Serif" font-size="10.00">_cb_interface</text>
</a>
</g>
</g>
<!-- Node2 -->
<g id="node2" class="node">
<title>Node2</title>
<g id="a_node2"><a xlink:href="structservio_1_1base_1_1empty__period__cb.html" target="_top" xlink:title=" ">
<polygon fill="white" stroke="black" points="162.5,-98.5 162.5,-128.5 275.5,-128.5 275.5,-98.5 162.5,-98.5"/>
<text text-anchor="start" x="170.5" y="-116.5" font-family="Helvetica,sans-Serif" font-size="10.00">servio::base::empty</text>
<text text-anchor="middle" x="219" y="-105.5" font-family="Helvetica,sans-Serif" font-size="10.00">_period_cb</text>
</a>
</g>
</g>
<!-- Node1&#45;&gt;Node2 -->
<g id="edge1" class="edge">
<title>Node1&#45;&gt;Node2</title>
<path fill="none" stroke="midnightblue" d="M116.83,-82.61C133.89,-87.82 152.31,-93.45 168.7,-98.45"/>
<polygon fill="midnightblue" stroke="midnightblue" points="117.55,-79.17 106.96,-79.6 115.51,-85.87 117.55,-79.17"/>
</g>
<!-- Node3 -->
<g id="node3" class="node">
<title>Node3</title>
<g id="a_node3"><a xlink:href="structservio_1_1base_1_1period__cb.html" target="_top" xlink:title=" ">
<polygon fill="white" stroke="black" points="162.5,-49.5 162.5,-79.5 275.5,-79.5 275.5,-49.5 162.5,-49.5"/>
<text text-anchor="start" x="170.5" y="-67.5" font-family="Helvetica,sans-Serif" font-size="10.00">servio::base::period</text>
<text text-anchor="middle" x="219" y="-56.5" font-family="Helvetica,sans-Serif" font-size="10.00">_cb&lt; Callable &gt;</text>
</a>
</g>
</g>
<!-- Node1&#45;&gt;Node3 -->
<g id="edge2" class="edge">
<title>Node1&#45;&gt;Node3</title>
<path fill="none" stroke="midnightblue" d="M123.43,-64.5C136.38,-64.5 149.84,-64.5 162.41,-64.5"/>
<polygon fill="midnightblue" stroke="midnightblue" points="123.18,-61 113.18,-64.5 123.18,-68 123.18,-61"/>
</g>
<!-- Node4 -->
<g id="node4" class="node">
<title>Node4</title>
<g id="a_node4"><a xlink:href="structservio_1_1drv_1_1adc__pooler__period__cb.html" target="_top" xlink:title=" ">
<polygon fill="white" stroke="black" points="149,-0.5 149,-30.5 289,-30.5 289,-0.5 149,-0.5"/>
<text text-anchor="start" x="157" y="-18.5" font-family="Helvetica,sans-Serif" font-size="10.00">servio::drv::adc_pooler</text>
<text text-anchor="middle" x="219" y="-7.5" font-family="Helvetica,sans-Serif" font-size="10.00">_period_cb&lt; AdcPooler &gt;</text>
</a>
</g>
</g>
<!-- Node1&#45;&gt;Node4 -->
<g id="edge3" class="edge">
<title>Node1&#45;&gt;Node4</title>
<path fill="none" stroke="midnightblue" d="M116.83,-46.39C133.89,-41.18 152.31,-35.55 168.7,-30.55"/>
<polygon fill="midnightblue" stroke="midnightblue" points="115.51,-43.13 106.96,-49.4 117.55,-49.83 115.51,-43.13"/>
</g>
</g>
</svg>
