<?xml version="1.0" encoding="UTF-8" standalone="no"?>
<!DOCTYPE svg PUBLIC "-//W3C//DTD SVG 1.1//EN"
 "http://www.w3.org/Graphics/SVG/1.1/DTD/svg11.dtd">
<!-- Generated by graphviz version 2.43.0 (0)
 -->
<!-- Title: fw::drv::hbridge Pages: 1 -->
<svg width="246pt" height="140pt"
 viewBox="0.00 0.00 246.00 140.00" xmlns="http://www.w3.org/2000/svg" xmlns:xlink="http://www.w3.org/1999/xlink">
<g id="graph0" class="graph" transform="scale(1 1) rotate(0) translate(4 136)">
<title>fw::drv::hbridge</title>
<polygon fill="white" stroke="transparent" points="-4,4 -4,-136 242,-136 242,4 -4,4"/>
<!-- Node1 -->
<g id="node1" class="node">
<title>Node1</title>
<g id="a_node1"><a xlink:title=" ">
<polygon fill="#bfbfbf" stroke="black" points="80.5,-0.5 80.5,-19.5 171.5,-19.5 171.5,-0.5 80.5,-0.5"/>
<text text-anchor="middle" x="126" y="-7.5" font-family="Helvetica,sans-Serif" font-size="10.00">fw::drv::hbridge</text>
</a>
</g>
</g>
<!-- Node2 -->
<g id="node2" class="node">
<title>Node2</title>
<g id="a_node2"><a xlink:href="classpwm__motor__interface.html" target="_top" xlink:title=" ">
<polygon fill="white" stroke="black" points="0,-56.5 0,-75.5 124,-75.5 124,-56.5 0,-56.5"/>
<text text-anchor="middle" x="62" y="-63.5" font-family="Helvetica,sans-Serif" font-size="10.00">pwm_motor_interface</text>
</a>
</g>
</g>
<!-- Node2&#45;&gt;Node1 -->
<g id="edge1" class="edge">
<title>Node2&#45;&gt;Node1</title>
<path fill="none" stroke="midnightblue" d="M79.99,-49.82C91.46,-40.15 105.91,-27.95 115.53,-19.83"/>
<polygon fill="midnightblue" stroke="midnightblue" points="77.67,-47.2 72.28,-56.32 82.18,-52.55 77.67,-47.2"/>
</g>
<!-- Node3 -->
<g id="node3" class="node">
<title>Node3</title>
<g id="a_node3"><a xlink:href="classdriver__interface.html" target="_top" xlink:title=" ">
<polygon fill="white" stroke="black" points="79,-112.5 79,-131.5 173,-131.5 173,-112.5 79,-112.5"/>
<text text-anchor="middle" x="126" y="-119.5" font-family="Helvetica,sans-Serif" font-size="10.00">driver_interface</text>
</a>
</g>
</g>
<!-- Node3&#45;&gt;Node2 -->
<g id="edge2" class="edge">
<title>Node3&#45;&gt;Node2</title>
<path fill="none" stroke="midnightblue" d="M108.01,-105.82C96.54,-96.15 82.09,-83.95 72.47,-75.83"/>
<polygon fill="midnightblue" stroke="midnightblue" points="105.82,-108.55 115.72,-112.32 110.33,-103.2 105.82,-108.55"/>
</g>
<!-- Node4 -->
<g id="node4" class="node">
<title>Node4</title>
<g id="a_node4"><a xlink:href="classperiod__interface.html" target="_top" xlink:title=" ">
<polygon fill="white" stroke="black" points="142,-56.5 142,-75.5 238,-75.5 238,-56.5 142,-56.5"/>
<text text-anchor="middle" x="190" y="-63.5" font-family="Helvetica,sans-Serif" font-size="10.00">period_interface</text>
</a>
</g>
</g>
<!-- Node3&#45;&gt;Node4 -->
<g id="edge4" class="edge">
<title>Node3&#45;&gt;Node4</title>
<path fill="none" stroke="midnightblue" d="M143.99,-105.82C155.46,-96.15 169.91,-83.95 179.53,-75.83"/>
<polygon fill="midnightblue" stroke="midnightblue" points="141.67,-103.2 136.28,-112.32 146.18,-108.55 141.67,-103.2"/>
</g>
<!-- Node4&#45;&gt;Node1 -->
<g id="edge3" class="edge">
<title>Node4&#45;&gt;Node1</title>
<path fill="none" stroke="midnightblue" d="M172.01,-49.82C160.54,-40.15 146.09,-27.95 136.47,-19.83"/>
<polygon fill="midnightblue" stroke="midnightblue" points="169.82,-52.55 179.72,-56.32 174.33,-47.2 169.82,-52.55"/>
</g>
</g>
</svg>
