<?xml version="1.0" encoding="UTF-8" standalone="no"?>
<!DOCTYPE svg PUBLIC "-//W3C//DTD SVG 1.1//EN"
 "http://www.w3.org/Graphics/SVG/1.1/DTD/svg11.dtd">
<!-- Generated by graphviz version 2.43.0 (0)
 -->
<!-- Title: servio::driver_interface Pages: 1 -->
<svg width="497pt" height="230pt"
 viewBox="0.00 0.00 497.00 230.00" xmlns="http://www.w3.org/2000/svg" xmlns:xlink="http://www.w3.org/1999/xlink">
<g id="graph0" class="graph" transform="scale(1 1) rotate(0) translate(4 226)">
<title>servio::driver_interface</title>
<polygon fill="white" stroke="transparent" points="-4,4 -4,-226 493,-226 493,4 -4,4"/>
<!-- Node1 -->
<g id="node1" class="node">
<title>Node1</title>
<g id="a_node1"><a xlink:title=" ">
<polygon fill="#bfbfbf" stroke="black" points="0,-107.5 0,-126.5 130,-126.5 130,-107.5 0,-107.5"/>
<text text-anchor="middle" x="65" y="-114.5" font-family="Helvetica,sans-Serif" font-size="10.00">servio::driver_interface</text>
</a>
</g>
</g>
<!-- Node2 -->
<g id="node2" class="node">
<title>Node2</title>
<g id="a_node2"><a xlink:href="classservio_1_1current__interface.html" target="_top" xlink:title=" ">
<polygon fill="white" stroke="black" points="178,-202.5 178,-221.5 314,-221.5 314,-202.5 178,-202.5"/>
<text text-anchor="middle" x="246" y="-209.5" font-family="Helvetica,sans-Serif" font-size="10.00">servio::current_interface</text>
</a>
</g>
</g>
<!-- Node1&#45;&gt;Node2 -->
<g id="edge1" class="edge">
<title>Node1&#45;&gt;Node2</title>
<path fill="none" stroke="midnightblue" d="M83.02,-133.53C101.83,-150.87 133.74,-177.69 166,-193 174.16,-196.87 183.17,-199.99 192.11,-202.5"/>
<polygon fill="midnightblue" stroke="midnightblue" points="85.26,-130.82 75.58,-126.52 80.46,-135.92 85.26,-130.82"/>
</g>
<!-- Node3 -->
<g id="node3" class="node">
<title>Node3</title>
<g id="a_node3"><a xlink:href="classservio_1_1period__interface.html" target="_top" xlink:title=" ">
<polygon fill="white" stroke="black" points="180,-164.5 180,-183.5 312,-183.5 312,-164.5 180,-164.5"/>
<text text-anchor="middle" x="246" y="-171.5" font-family="Helvetica,sans-Serif" font-size="10.00">servio::period_interface</text>
</a>
</g>
</g>
<!-- Node1&#45;&gt;Node3 -->
<g id="edge2" class="edge">
<title>Node1&#45;&gt;Node3</title>
<path fill="none" stroke="midnightblue" d="M98.05,-130.37C117.49,-138.18 142.93,-147.87 166,-155 177.19,-158.46 189.42,-161.67 200.85,-164.43"/>
<polygon fill="midnightblue" stroke="midnightblue" points="99.33,-127.11 88.75,-126.59 96.7,-133.6 99.33,-127.11"/>
</g>
<!-- Node5 -->
<g id="node5" class="node">
<title>Node5</title>
<g id="a_node5"><a xlink:href="classservio_1_1position__interface.html" target="_top" xlink:title=" ">
<polygon fill="white" stroke="black" points="176,-126.5 176,-145.5 316,-145.5 316,-126.5 176,-126.5"/>
<text text-anchor="middle" x="246" y="-133.5" font-family="Helvetica,sans-Serif" font-size="10.00">servio::position_interface</text>
</a>
</g>
</g>
<!-- Node1&#45;&gt;Node5 -->
<g id="edge4" class="edge">
<title>Node1&#45;&gt;Node5</title>
<path fill="none" stroke="midnightblue" d="M140.34,-124.89C152.11,-126.14 164.24,-127.43 175.88,-128.66"/>
<polygon fill="midnightblue" stroke="midnightblue" points="140.43,-121.38 130.12,-123.81 139.69,-128.34 140.43,-121.38"/>
</g>
<!-- Node6 -->
<g id="node6" class="node">
<title>Node6</title>
<g id="a_node6"><a xlink:href="classservio_1_1pwm__motor__interface.html" target="_top" xlink:title=" ">
<polygon fill="white" stroke="black" points="166,-88.5 166,-107.5 326,-107.5 326,-88.5 166,-88.5"/>
<text text-anchor="middle" x="246" y="-95.5" font-family="Helvetica,sans-Serif" font-size="10.00">servio::pwm_motor_interface</text>
</a>
</g>
</g>
<!-- Node1&#45;&gt;Node6 -->
<g id="edge5" class="edge">
<title>Node1&#45;&gt;Node6</title>
<path fill="none" stroke="midnightblue" d="M140.25,-109.12C148.66,-108.23 157.25,-107.31 165.71,-106.42"/>
<polygon fill="midnightblue" stroke="midnightblue" points="139.69,-105.66 130.12,-110.19 140.43,-112.62 139.69,-105.66"/>
</g>
<!-- Node7 -->
<g id="node7" class="node">
<title>Node7</title>
<g id="a_node7"><a xlink:href="classservio_1_1temperature__interface.html" target="_top" xlink:title=" ">
<polygon fill="white" stroke="black" points="189.5,-39 189.5,-69 302.5,-69 302.5,-39 189.5,-39"/>
<text text-anchor="start" x="197.5" y="-57" font-family="Helvetica,sans-Serif" font-size="10.00">servio::temperature</text>
<text text-anchor="middle" x="246" y="-46" font-family="Helvetica,sans-Serif" font-size="10.00">_interface</text>
</a>
</g>
</g>
<!-- Node1&#45;&gt;Node7 -->
<g id="edge7" class="edge">
<title>Node1&#45;&gt;Node7</title>
<path fill="none" stroke="midnightblue" d="M99.67,-103.66C118.98,-96.15 143.74,-86.74 166,-79 175.65,-75.64 186.02,-72.23 195.97,-69.04"/>
<polygon fill="midnightblue" stroke="midnightblue" points="98.15,-100.5 90.11,-107.4 100.7,-107.02 98.15,-100.5"/>
</g>
<!-- Node8 -->
<g id="node8" class="node">
<title>Node8</title>
<g id="a_node8"><a xlink:href="classservio_1_1vcc__interface.html" target="_top" xlink:title=" ">
<polygon fill="white" stroke="black" points="187,-0.5 187,-19.5 305,-19.5 305,-0.5 187,-0.5"/>
<text text-anchor="middle" x="246" y="-7.5" font-family="Helvetica,sans-Serif" font-size="10.00">servio::vcc_interface</text>
</a>
</g>
</g>
<!-- Node1&#45;&gt;Node8 -->
<g id="edge8" class="edge">
<title>Node1&#45;&gt;Node8</title>
<path fill="none" stroke="midnightblue" d="M81.18,-99.58C99.38,-79.79 131.74,-47.92 166,-30 174.27,-25.67 183.53,-22.25 192.72,-19.54"/>
<polygon fill="midnightblue" stroke="midnightblue" points="78.37,-97.47 74.28,-107.25 83.57,-102.15 78.37,-97.47"/>
</g>
<!-- Node4 -->
<g id="node4" class="node">
<title>Node4</title>
<g id="a_node4"><a xlink:href="classservio_1_1fw_1_1drv_1_1hbridge.html" target="_top" xlink:title=" ">
<polygon fill="white" stroke="black" points="362,-126.5 362,-145.5 489,-145.5 489,-126.5 362,-126.5"/>
<text text-anchor="middle" x="425.5" y="-133.5" font-family="Helvetica,sans-Serif" font-size="10.00">servio::fw::drv::hbridge</text>
</a>
</g>
</g>
<!-- Node3&#45;&gt;Node4 -->
<g id="edge3" class="edge">
<title>Node3&#45;&gt;Node4</title>
<path fill="none" stroke="midnightblue" d="M301.9,-162.25C327,-156.87 356.34,-150.59 380.03,-145.52"/>
<polygon fill="midnightblue" stroke="midnightblue" points="300.84,-158.9 291.79,-164.41 302.3,-165.74 300.84,-158.9"/>
</g>
<!-- Node6&#45;&gt;Node4 -->
<g id="edge6" class="edge">
<title>Node6&#45;&gt;Node4</title>
<path fill="none" stroke="midnightblue" d="M301.9,-109.75C327,-115.13 356.34,-121.41 380.03,-126.48"/>
<polygon fill="midnightblue" stroke="midnightblue" points="302.3,-106.26 291.79,-107.59 300.84,-113.1 302.3,-106.26"/>
</g>
</g>
</svg>
