<?xml version="1.0" encoding="UTF-8" standalone="no"?>
<!DOCTYPE svg PUBLIC "-//W3C//DTD SVG 1.1//EN"
 "http://www.w3.org/Graphics/SVG/1.1/DTD/svg11.dtd">
<!-- Generated by graphviz version 2.43.0 (0)
 -->
<!-- Title: fw::drv::driver_interface Pages: 1 -->
<svg width="444pt" height="241pt"
 viewBox="0.00 0.00 444.00 241.00" xmlns="http://www.w3.org/2000/svg" xmlns:xlink="http://www.w3.org/1999/xlink">
<g id="graph0" class="graph" transform="scale(1 1) rotate(0) translate(4 237)">
<title>fw::drv::driver_interface</title>
<polygon fill="white" stroke="transparent" points="-4,4 -4,-237 440,-237 440,4 -4,4"/>
<!-- Node1 -->
<g id="node1" class="node">
<title>Node1</title>
<g id="a_node1"><a xlink:title=" ">
<polygon fill="#bfbfbf" stroke="black" points="0,-115.5 0,-134.5 131,-134.5 131,-115.5 0,-115.5"/>
<text text-anchor="middle" x="65.5" y="-122.5" font-family="Helvetica,sans-Serif" font-size="10.00">fw::drv::driver_interface</text>
</a>
</g>
</g>
<!-- Node2 -->
<g id="node2" class="node">
<title>Node2</title>
<g id="a_node2"><a xlink:href="classfw_1_1drv_1_1current__interface.html" target="_top" xlink:title=" ">
<polygon fill="white" stroke="black" points="169.5,-213.5 169.5,-232.5 306.5,-232.5 306.5,-213.5 169.5,-213.5"/>
<text text-anchor="middle" x="238" y="-220.5" font-family="Helvetica,sans-Serif" font-size="10.00">fw::drv::current_interface</text>
</a>
</g>
</g>
<!-- Node1&#45;&gt;Node2 -->
<g id="edge1" class="edge">
<title>Node1&#45;&gt;Node2</title>
<path fill="none" stroke="midnightblue" d="M83.04,-141.5C101.84,-159.37 134.21,-187.52 167,-204 174.54,-207.79 182.93,-210.89 191.2,-213.42"/>
<polygon fill="midnightblue" stroke="midnightblue" points="85.46,-138.97 75.85,-134.53 80.59,-144 85.46,-138.97"/>
</g>
<!-- Node3 -->
<g id="node3" class="node">
<title>Node3</title>
<g id="a_node3"><a xlink:href="classfw_1_1drv_1_1period__interface.html" target="_top" xlink:title=" ">
<polygon fill="white" stroke="black" points="171,-175.5 171,-194.5 305,-194.5 305,-175.5 171,-175.5"/>
<text text-anchor="middle" x="238" y="-182.5" font-family="Helvetica,sans-Serif" font-size="10.00">fw::drv::period_interface</text>
</a>
</g>
</g>
<!-- Node1&#45;&gt;Node3 -->
<g id="edge2" class="edge">
<title>Node1&#45;&gt;Node3</title>
<path fill="none" stroke="midnightblue" d="M97.16,-138.65C116.88,-147.14 143.18,-157.94 167,-166 177.14,-169.43 188.26,-172.68 198.6,-175.48"/>
<polygon fill="midnightblue" stroke="midnightblue" points="98.34,-135.35 87.78,-134.57 95.55,-141.77 98.34,-135.35"/>
</g>
<!-- Node5 -->
<g id="node5" class="node">
<title>Node5</title>
<g id="a_node5"><a xlink:href="classfw_1_1drv_1_1position__interface.html" target="_top" xlink:title=" ">
<polygon fill="white" stroke="black" points="167,-137.5 167,-156.5 309,-156.5 309,-137.5 167,-137.5"/>
<text text-anchor="middle" x="238" y="-144.5" font-family="Helvetica,sans-Serif" font-size="10.00">fw::drv::position_interface</text>
</a>
</g>
</g>
<!-- Node1&#45;&gt;Node5 -->
<g id="edge4" class="edge">
<title>Node1&#45;&gt;Node5</title>
<path fill="none" stroke="midnightblue" d="M141.59,-134.69C149.99,-135.77 158.51,-136.87 166.84,-137.95"/>
<polygon fill="midnightblue" stroke="midnightblue" points="141.81,-131.19 131.45,-133.38 140.91,-138.13 141.81,-131.19"/>
</g>
<!-- Node6 -->
<g id="node6" class="node">
<title>Node6</title>
<g id="a_node6"><a xlink:href="classfw_1_1drv_1_1pwm__motor__interface.html" target="_top" xlink:title=" ">
<polygon fill="white" stroke="black" points="181.5,-88 181.5,-118 294.5,-118 294.5,-88 181.5,-88"/>
<text text-anchor="start" x="189.5" y="-106" font-family="Helvetica,sans-Serif" font-size="10.00">fw::drv::pwm_motor</text>
<text text-anchor="middle" x="238" y="-95" font-family="Helvetica,sans-Serif" font-size="10.00">_interface</text>
</a>
</g>
</g>
<!-- Node1&#45;&gt;Node6 -->
<g id="edge5" class="edge">
<title>Node1&#45;&gt;Node6</title>
<path fill="none" stroke="midnightblue" d="M141.59,-115.31C154.98,-113.58 168.7,-111.81 181.41,-110.17"/>
<polygon fill="midnightblue" stroke="midnightblue" points="140.91,-111.87 131.45,-116.62 141.81,-118.81 140.91,-111.87"/>
</g>
<!-- Node7 -->
<g id="node7" class="node">
<title>Node7</title>
<g id="a_node7"><a xlink:href="classfw_1_1drv_1_1temperature__interface.html" target="_top" xlink:title=" ">
<polygon fill="white" stroke="black" points="180.5,-39 180.5,-69 295.5,-69 295.5,-39 180.5,-39"/>
<text text-anchor="start" x="188.5" y="-57" font-family="Helvetica,sans-Serif" font-size="10.00">fw::drv::temperature</text>
<text text-anchor="middle" x="238" y="-46" font-family="Helvetica,sans-Serif" font-size="10.00">_interface</text>
</a>
</g>
</g>
<!-- Node1&#45;&gt;Node7 -->
<g id="edge7" class="edge">
<title>Node1&#45;&gt;Node7</title>
<path fill="none" stroke="midnightblue" d="M95.45,-110.94C115.38,-101.47 142.56,-88.94 167,-79 175.37,-75.6 184.39,-72.19 193.09,-69.03"/>
<polygon fill="midnightblue" stroke="midnightblue" points="93.81,-107.85 86.3,-115.32 96.83,-114.16 93.81,-107.85"/>
</g>
<!-- Node8 -->
<g id="node8" class="node">
<title>Node8</title>
<g id="a_node8"><a xlink:href="classfw_1_1drv_1_1vcc__interface.html" target="_top" xlink:title=" ">
<polygon fill="white" stroke="black" points="178.5,-0.5 178.5,-19.5 297.5,-19.5 297.5,-0.5 178.5,-0.5"/>
<text text-anchor="middle" x="238" y="-7.5" font-family="Helvetica,sans-Serif" font-size="10.00">fw::drv::vcc_interface</text>
</a>
</g>
</g>
<!-- Node1&#45;&gt;Node8 -->
<g id="edge8" class="edge">
<title>Node1&#45;&gt;Node8</title>
<path fill="none" stroke="midnightblue" d="M80.46,-107.4C98.32,-86.04 131.25,-50.37 167,-30 174.58,-25.68 183.16,-22.24 191.64,-19.51"/>
<polygon fill="midnightblue" stroke="midnightblue" points="77.59,-105.38 73.97,-115.34 83.01,-109.81 77.59,-105.38"/>
</g>
<!-- Node4 -->
<g id="node4" class="node">
<title>Node4</title>
<g id="a_node4"><a xlink:href="classfw_1_1drv_1_1hbridge.html" target="_top" xlink:title=" ">
<polygon fill="white" stroke="black" points="345,-134.5 345,-153.5 436,-153.5 436,-134.5 345,-134.5"/>
<text text-anchor="middle" x="390.5" y="-141.5" font-family="Helvetica,sans-Serif" font-size="10.00">fw::drv::hbridge</text>
</a>
</g>
</g>
<!-- Node3&#45;&gt;Node4 -->
<g id="edge3" class="edge">
<title>Node3&#45;&gt;Node4</title>
<path fill="none" stroke="midnightblue" d="M284.15,-172.76C292.41,-170.51 300.97,-168.19 309,-166 323.96,-161.93 340.47,-157.41 354.63,-153.54"/>
<polygon fill="midnightblue" stroke="midnightblue" points="282.99,-169.45 274.25,-175.44 284.82,-176.2 282.99,-169.45"/>
</g>
<!-- Node6&#45;&gt;Node4 -->
<g id="edge6" class="edge">
<title>Node6&#45;&gt;Node4</title>
<path fill="none" stroke="midnightblue" d="M304.23,-120.77C321.49,-125.47 339.46,-130.37 354.43,-134.45"/>
<polygon fill="midnightblue" stroke="midnightblue" points="304.75,-117.29 294.19,-118.03 302.91,-124.04 304.75,-117.29"/>
</g>
</g>
</svg>
