<?xml version="1.0" encoding="UTF-8" standalone="no"?>
<!DOCTYPE svg PUBLIC "-//W3C//DTD SVG 1.1//EN"
 "http://www.w3.org/Graphics/SVG/1.1/DTD/svg11.dtd">
<!-- Generated by graphviz version 2.43.0 (0)
 -->
<!-- Title: servio::drv::adc_detailed_cb_interface Pages: 1 -->
<svg width="316pt" height="137pt"
 viewBox="0.00 0.00 316.00 137.00" xmlns="http://www.w3.org/2000/svg" xmlns:xlink="http://www.w3.org/1999/xlink">
<g id="graph0" class="graph" transform="scale(1 1) rotate(0) translate(4 133)">
<title>servio::drv::adc_detailed_cb_interface</title>
<polygon fill="white" stroke="transparent" points="-4,4 -4,-133 312,-133 312,4 -4,4"/>
<!-- Node1 -->
<g id="node1" class="node">
<title>Node1</title>
<g id="a_node1"><a xlink:title=" ">
<polygon fill="#bfbfbf" stroke="black" points="0,-49.5 0,-79.5 136,-79.5 136,-49.5 0,-49.5"/>
<text text-anchor="start" x="8" y="-67.5" font-family="Helvetica,sans-Serif" font-size="10.00">servio::drv::adc_detailed</text>
<text text-anchor="middle" x="68" y="-56.5" font-family="Helvetica,sans-Serif" font-size="10.00">_cb_interface</text>
</a>
</g>
</g>
<!-- Node2 -->
<g id="node2" class="node">
<title>Node2</title>
<g id="a_node2"><a xlink:href="classservio_1_1core_1_1current__callback.html" target="_top" xlink:title=" ">
<polygon fill="white" stroke="black" points="183,-98.5 183,-128.5 297,-128.5 297,-98.5 183,-98.5"/>
<text text-anchor="start" x="191" y="-116.5" font-family="Helvetica,sans-Serif" font-size="10.00">servio::core::current</text>
<text text-anchor="middle" x="240" y="-105.5" font-family="Helvetica,sans-Serif" font-size="10.00">_callback</text>
</a>
</g>
</g>
<!-- Node1&#45;&gt;Node2 -->
<g id="edge1" class="edge">
<title>Node1&#45;&gt;Node2</title>
<path fill="none" stroke="midnightblue" d="M131.08,-82.39C149.37,-87.66 169.18,-93.38 186.78,-98.45"/>
<polygon fill="midnightblue" stroke="midnightblue" points="131.97,-79.01 121.39,-79.6 130.03,-85.73 131.97,-79.01"/>
</g>
<!-- Node3 -->
<g id="node3" class="node">
<title>Node3</title>
<g id="a_node3"><a xlink:href="structservio_1_1drv_1_1adc__detailed__cb.html" target="_top" xlink:title=" ">
<polygon fill="white" stroke="black" points="172,-49.5 172,-79.5 308,-79.5 308,-49.5 172,-49.5"/>
<text text-anchor="start" x="180" y="-67.5" font-family="Helvetica,sans-Serif" font-size="10.00">servio::drv::adc_detailed</text>
<text text-anchor="middle" x="240" y="-56.5" font-family="Helvetica,sans-Serif" font-size="10.00">_cb&lt; Callable &gt;</text>
</a>
</g>
</g>
<!-- Node1&#45;&gt;Node3 -->
<g id="edge2" class="edge">
<title>Node1&#45;&gt;Node3</title>
<path fill="none" stroke="midnightblue" d="M146.42,-64.5C154.88,-64.5 163.43,-64.5 171.74,-64.5"/>
<polygon fill="midnightblue" stroke="midnightblue" points="146.19,-61 136.19,-64.5 146.19,-68 146.19,-61"/>
</g>
<!-- Node4 -->
<g id="node4" class="node">
<title>Node4</title>
<g id="a_node4"><a xlink:href="structservio_1_1drv_1_1empty__adc__detailed__cb.html" target="_top" xlink:title=" ">
<polygon fill="white" stroke="black" points="187.5,-0.5 187.5,-30.5 292.5,-30.5 292.5,-0.5 187.5,-0.5"/>
<text text-anchor="start" x="195.5" y="-18.5" font-family="Helvetica,sans-Serif" font-size="10.00">servio::drv::empty</text>
<text text-anchor="middle" x="240" y="-7.5" font-family="Helvetica,sans-Serif" font-size="10.00">_adc_detailed_cb</text>
</a>
</g>
</g>
<!-- Node1&#45;&gt;Node4 -->
<g id="edge3" class="edge">
<title>Node1&#45;&gt;Node4</title>
<path fill="none" stroke="midnightblue" d="M131.17,-46.58C149.64,-41.26 169.65,-35.49 187.36,-30.38"/>
<polygon fill="midnightblue" stroke="midnightblue" points="130.03,-43.27 121.39,-49.4 131.97,-49.99 130.03,-43.27"/>
</g>
</g>
</svg>
