<?xml version="1.0" encoding="UTF-8" standalone="no"?>
<!DOCTYPE svg PUBLIC "-//W3C//DTD SVG 1.1//EN"
 "http://www.w3.org/Graphics/SVG/1.1/DTD/svg11.dtd">
<!-- Generated by graphviz version 2.43.0 (0)
 -->
<!-- Title: fw::drv::value_cb_interface Pages: 1 -->
<svg width="402pt" height="95pt"
 viewBox="0.00 0.00 402.00 95.00" xmlns="http://www.w3.org/2000/svg" xmlns:xlink="http://www.w3.org/1999/xlink">
<g id="graph0" class="graph" transform="scale(1 1) rotate(0) translate(4 91)">
<title>fw::drv::value_cb_interface</title>
<polygon fill="white" stroke="transparent" points="-4,4 -4,-91 398,-91 398,4 -4,4"/>
<!-- Node1 -->
<g id="node1" class="node">
<title>Node1</title>
<g id="a_node1"><a xlink:title=" ">
<polygon fill="#bfbfbf" stroke="black" points="132,-67.5 132,-86.5 278,-86.5 278,-67.5 132,-67.5"/>
<text text-anchor="middle" x="205" y="-74.5" font-family="Helvetica,sans-Serif" font-size="10.00">fw::drv::value_cb_interface</text>
</a>
</g>
</g>
<!-- Node2 -->
<g id="node2" class="node">
<title>Node2</title>
<g id="a_node2"><a xlink:href="structfw_1_1drv_1_1empty__value__cb.html" target="_top" xlink:title=" ">
<polygon fill="white" stroke="black" points="0,-6 0,-25 134,-25 134,-6 0,-6"/>
<text text-anchor="middle" x="67" y="-13" font-family="Helvetica,sans-Serif" font-size="10.00">fw::drv::empty_value_cb</text>
</a>
</g>
</g>
<!-- Node1&#45;&gt;Node2 -->
<g id="edge1" class="edge">
<title>Node1&#45;&gt;Node2</title>
<path fill="none" stroke="midnightblue" d="M175.96,-63.48C149.16,-51.92 110.08,-35.08 86.74,-25.01"/>
<polygon fill="midnightblue" stroke="midnightblue" points="174.66,-66.73 185.23,-67.48 177.43,-60.3 174.66,-66.73"/>
</g>
<!-- Node3 -->
<g id="node3" class="node">
<title>Node3</title>
<g id="a_node3"><a xlink:href="structfw_1_1drv_1_1value__cb.html" target="_top" xlink:title=" ">
<polygon fill="white" stroke="black" points="152,-0.5 152,-30.5 258,-30.5 258,-0.5 152,-0.5"/>
<text text-anchor="start" x="160" y="-18.5" font-family="Helvetica,sans-Serif" font-size="10.00">fw::drv::value_cb&lt;</text>
<text text-anchor="middle" x="205" y="-7.5" font-family="Helvetica,sans-Serif" font-size="10.00"> Callable &gt;</text>
</a>
</g>
</g>
<!-- Node1&#45;&gt;Node3 -->
<g id="edge2" class="edge">
<title>Node1&#45;&gt;Node3</title>
<path fill="none" stroke="midnightblue" d="M205,-57.23C205,-48.59 205,-38.5 205,-30.52"/>
<polygon fill="midnightblue" stroke="midnightblue" points="201.5,-57.48 205,-67.48 208.5,-57.48 201.5,-57.48"/>
</g>
<!-- Node4 -->
<g id="node4" class="node">
<title>Node4</title>
<g id="a_node4"><a xlink:href="classfw_1_1position__callback.html" target="_top" xlink:title=" ">
<polygon fill="white" stroke="black" points="276,-6 276,-25 394,-25 394,-6 276,-6"/>
<text text-anchor="middle" x="335" y="-13" font-family="Helvetica,sans-Serif" font-size="10.00">fw::position_callback</text>
</a>
</g>
</g>
<!-- Node1&#45;&gt;Node4 -->
<g id="edge3" class="edge">
<title>Node1&#45;&gt;Node4</title>
<path fill="none" stroke="midnightblue" d="M233.02,-63.17C258.25,-51.63 294.61,-34.99 316.41,-25.01"/>
<polygon fill="midnightblue" stroke="midnightblue" points="231.26,-60.13 223.63,-67.48 234.18,-66.5 231.26,-60.13"/>
</g>
</g>
</svg>
