<?xml version="1.0" encoding="UTF-8" standalone="no"?>
<!DOCTYPE svg PUBLIC "-//W3C//DTD SVG 1.1//EN"
 "http://www.w3.org/Graphics/SVG/1.1/DTD/svg11.dtd">
<!-- Generated by graphviz version 2.43.0 (0)
 -->
<!-- Title: servio::base::adc_detailed_cb_interface Pages: 1 -->
<svg width="328pt" height="137pt"
 viewBox="0.00 0.00 328.00 137.00" xmlns="http://www.w3.org/2000/svg" xmlns:xlink="http://www.w3.org/1999/xlink">
<g id="graph0" class="graph" transform="scale(1 1) rotate(0) translate(4 133)">
<title>servio::base::adc_detailed_cb_interface</title>
<polygon fill="white" stroke="transparent" points="-4,4 -4,-133 324,-133 324,4 -4,4"/>
<!-- Node1 -->
<g id="node1" class="node">
<title>Node1</title>
<g id="a_node1"><a xlink:title=" ">
<polygon fill="#bfbfbf" stroke="black" points="0,-49.5 0,-79.5 144,-79.5 144,-49.5 0,-49.5"/>
<text text-anchor="start" x="8" y="-67.5" font-family="Helvetica,sans-Serif" font-size="10.00">servio::base::adc_detailed</text>
<text text-anchor="middle" x="72" y="-56.5" font-family="Helvetica,sans-Serif" font-size="10.00">_cb_interface</text>
</a>
</g>
</g>
<!-- Node2 -->
<g id="node2" class="node">
<title>Node2</title>
<g id="a_node2"><a xlink:href="classservio_1_1core_1_1current__callback.html" target="_top" xlink:title=" ">
<polygon fill="white" stroke="black" points="193,-98.5 193,-128.5 307,-128.5 307,-98.5 193,-98.5"/>
<text text-anchor="start" x="201" y="-116.5" font-family="Helvetica,sans-Serif" font-size="10.00">servio::core::current</text>
<text text-anchor="middle" x="250" y="-105.5" font-family="Helvetica,sans-Serif" font-size="10.00">_callback</text>
</a>
</g>
</g>
<!-- Node1&#45;&gt;Node2 -->
<g id="edge1" class="edge">
<title>Node1&#45;&gt;Node2</title>
<path fill="none" stroke="midnightblue" d="M137.01,-82.32C156.01,-87.61 176.63,-93.35 194.94,-98.45"/>
<polygon fill="midnightblue" stroke="midnightblue" points="137.81,-78.91 127.24,-79.6 135.94,-85.66 137.81,-78.91"/>
</g>
<!-- Node3 -->
<g id="node3" class="node">
<title>Node3</title>
<g id="a_node3"><a xlink:href="structservio_1_1fw_1_1drv_1_1adc__detailed__cb.html" target="_top" xlink:title=" ">
<polygon fill="white" stroke="black" points="180,-49.5 180,-79.5 320,-79.5 320,-49.5 180,-49.5"/>
<text text-anchor="start" x="188" y="-67.5" font-family="Helvetica,sans-Serif" font-size="10.00">servio::fw::drv::adc</text>
<text text-anchor="middle" x="250" y="-56.5" font-family="Helvetica,sans-Serif" font-size="10.00">_detailed_cb&lt; Callable &gt;</text>
</a>
</g>
</g>
<!-- Node1&#45;&gt;Node3 -->
<g id="edge2" class="edge">
<title>Node1&#45;&gt;Node3</title>
<path fill="none" stroke="midnightblue" d="M154.14,-64.5C162.76,-64.5 171.48,-64.5 179.94,-64.5"/>
<polygon fill="midnightblue" stroke="midnightblue" points="154.08,-61 144.08,-64.5 154.08,-68 154.08,-61"/>
</g>
<!-- Node4 -->
<g id="node4" class="node">
<title>Node4</title>
<g id="a_node4"><a xlink:href="structservio_1_1fw_1_1drv_1_1empty__adc__detailed__cb.html" target="_top" xlink:title=" ">
<polygon fill="white" stroke="black" points="189,-0.5 189,-30.5 311,-30.5 311,-0.5 189,-0.5"/>
<text text-anchor="start" x="197" y="-18.5" font-family="Helvetica,sans-Serif" font-size="10.00">servio::fw::drv::empty</text>
<text text-anchor="middle" x="250" y="-7.5" font-family="Helvetica,sans-Serif" font-size="10.00">_adc_detailed_cb</text>
</a>
</g>
</g>
<!-- Node1&#45;&gt;Node4 -->
<g id="edge3" class="edge">
<title>Node1&#45;&gt;Node4</title>
<path fill="none" stroke="midnightblue" d="M137.01,-46.68C156.01,-41.39 176.63,-35.65 194.94,-30.55"/>
<polygon fill="midnightblue" stroke="midnightblue" points="135.94,-43.34 127.24,-49.4 137.81,-50.09 135.94,-43.34"/>
</g>
</g>
</svg>
