<?xml version="1.0" encoding="UTF-8" standalone="no"?>
<!DOCTYPE svg PUBLIC "-//W3C//DTD SVG 1.1//EN"
 "http://www.w3.org/Graphics/SVG/1.1/DTD/svg11.dtd">
<!-- Generated by graphviz version 2.43.0 (0)
 -->
<!-- Title: fw::drv::current_cb_interface Pages: 1 -->
<svg width="405pt" height="106pt"
 viewBox="0.00 0.00 404.50 106.00" xmlns="http://www.w3.org/2000/svg" xmlns:xlink="http://www.w3.org/1999/xlink">
<g id="graph0" class="graph" transform="scale(1 1) rotate(0) translate(4 102)">
<title>fw::drv::current_cb_interface</title>
<polygon fill="white" stroke="transparent" points="-4,4 -4,-102 400.5,-102 400.5,4 -4,4"/>
<!-- Node1 -->
<g id="node1" class="node">
<title>Node1</title>
<g id="a_node1"><a xlink:title=" ">
<polygon fill="#bfbfbf" stroke="black" points="131,-67.5 131,-97.5 236,-97.5 236,-67.5 131,-67.5"/>
<text text-anchor="start" x="139" y="-85.5" font-family="Helvetica,sans-Serif" font-size="10.00">fw::drv::current_cb</text>
<text text-anchor="middle" x="183.5" y="-74.5" font-family="Helvetica,sans-Serif" font-size="10.00">_interface</text>
</a>
</g>
</g>
<!-- Node2 -->
<g id="node2" class="node">
<title>Node2</title>
<g id="a_node2"><a xlink:href="classfw_1_1current__callback.html" target="_top" xlink:title=" ">
<polygon fill="white" stroke="black" points="0,-6 0,-25 113,-25 113,-6 0,-6"/>
<text text-anchor="middle" x="56.5" y="-13" font-family="Helvetica,sans-Serif" font-size="10.00">fw::current_callback</text>
</a>
</g>
</g>
<!-- Node1&#45;&gt;Node2 -->
<g id="edge1" class="edge">
<title>Node1&#45;&gt;Node2</title>
<path fill="none" stroke="midnightblue" d="M146.97,-62.8C122.62,-50.34 91.78,-34.56 73.12,-25.01"/>
<polygon fill="midnightblue" stroke="midnightblue" points="145.45,-65.96 155.94,-67.4 148.64,-59.72 145.45,-65.96"/>
</g>
<!-- Node3 -->
<g id="node3" class="node">
<title>Node3</title>
<g id="a_node3"><a xlink:href="structfw_1_1drv_1_1current__cb.html" target="_top" xlink:title=" ">
<polygon fill="white" stroke="black" points="131,-0.5 131,-30.5 236,-30.5 236,-0.5 131,-0.5"/>
<text text-anchor="start" x="139" y="-18.5" font-family="Helvetica,sans-Serif" font-size="10.00">fw::drv::current_cb</text>
<text text-anchor="middle" x="183.5" y="-7.5" font-family="Helvetica,sans-Serif" font-size="10.00">&lt; Callable &gt;</text>
</a>
</g>
</g>
<!-- Node1&#45;&gt;Node3 -->
<g id="edge2" class="edge">
<title>Node1&#45;&gt;Node3</title>
<path fill="none" stroke="midnightblue" d="M183.5,-57.11C183.5,-48.15 183.5,-38.32 183.5,-30.58"/>
<polygon fill="midnightblue" stroke="midnightblue" points="180,-57.4 183.5,-67.4 187,-57.4 180,-57.4"/>
</g>
<!-- Node4 -->
<g id="node4" class="node">
<title>Node4</title>
<g id="a_node4"><a xlink:href="structfw_1_1drv_1_1empty__current__cb.html" target="_top" xlink:title=" ">
<polygon fill="white" stroke="black" points="254.5,-6 254.5,-25 396.5,-25 396.5,-6 254.5,-6"/>
<text text-anchor="middle" x="325.5" y="-13" font-family="Helvetica,sans-Serif" font-size="10.00">fw::drv::empty_current_cb</text>
</a>
</g>
</g>
<!-- Node1&#45;&gt;Node4 -->
<g id="edge3" class="edge">
<title>Node1&#45;&gt;Node4</title>
<path fill="none" stroke="midnightblue" d="M223.63,-63.13C250.96,-50.62 285.87,-34.64 306.92,-25.01"/>
<polygon fill="midnightblue" stroke="midnightblue" points="221.95,-60.05 214.31,-67.4 224.86,-66.42 221.95,-60.05"/>
</g>
</g>
</svg>
