<?xml version="1.0" encoding="UTF-8" standalone="no"?>
<!DOCTYPE svg PUBLIC "-//W3C//DTD SVG 1.1//EN"
 "http://www.w3.org/Graphics/SVG/1.1/DTD/svg11.dtd">
<!-- Generated by graphviz version 2.43.0 (0)
 -->
<!-- Title: adc_detailed_cb_interface Pages: 1 -->
<svg width="304pt" height="127pt"
 viewBox="0.00 0.00 304.00 126.50" xmlns="http://www.w3.org/2000/svg" xmlns:xlink="http://www.w3.org/1999/xlink">
<g id="graph0" class="graph" transform="scale(1 1) rotate(0) translate(4 122.5)">
<title>adc_detailed_cb_interface</title>
<polygon fill="white" stroke="transparent" points="-4,4 -4,-122.5 300,-122.5 300,4 -4,4"/>
<!-- Node1 -->
<g id="node1" class="node">
<title>Node1</title>
<g id="a_node1"><a xlink:title=" ">
<polygon fill="#bfbfbf" stroke="black" points="0,-55 0,-74 144,-74 144,-55 0,-55"/>
<text text-anchor="middle" x="72" y="-62" font-family="Helvetica,sans-Serif" font-size="10.00">adc_detailed_cb_interface</text>
</a>
</g>
</g>
<!-- Node2 -->
<g id="node2" class="node">
<title>Node2</title>
<g id="a_node2"><a xlink:href="classcurrent__callback.html" target="_top" xlink:title=" ">
<polygon fill="white" stroke="black" points="189.5,-99 189.5,-118 286.5,-118 286.5,-99 189.5,-99"/>
<text text-anchor="middle" x="238" y="-106" font-family="Helvetica,sans-Serif" font-size="10.00">current_callback</text>
</a>
</g>
</g>
<!-- Node1&#45;&gt;Node2 -->
<g id="edge1" class="edge">
<title>Node1&#45;&gt;Node2</title>
<path fill="none" stroke="midnightblue" d="M118.3,-76.65C144.55,-83.7 177.11,-92.43 201.48,-98.97"/>
<polygon fill="midnightblue" stroke="midnightblue" points="119.15,-73.26 108.59,-74.05 117.34,-80.02 119.15,-73.26"/>
</g>
<!-- Node3 -->
<g id="node3" class="node">
<title>Node3</title>
<g id="a_node3"><a xlink:href="structfw_1_1drv_1_1adc__detailed__cb.html" target="_top" xlink:title=" ">
<polygon fill="white" stroke="black" points="180,-49.5 180,-79.5 296,-79.5 296,-49.5 180,-49.5"/>
<text text-anchor="start" x="188" y="-67.5" font-family="Helvetica,sans-Serif" font-size="10.00">fw::drv::adc_detailed</text>
<text text-anchor="middle" x="238" y="-56.5" font-family="Helvetica,sans-Serif" font-size="10.00">_cb&lt; Callable &gt;</text>
</a>
</g>
</g>
<!-- Node1&#45;&gt;Node3 -->
<g id="edge2" class="edge">
<title>Node1&#45;&gt;Node3</title>
<path fill="none" stroke="midnightblue" d="M154.69,-64.5C163.09,-64.5 171.51,-64.5 179.57,-64.5"/>
<polygon fill="midnightblue" stroke="midnightblue" points="154.46,-61 144.46,-64.5 154.46,-68 154.46,-61"/>
</g>
<!-- Node4 -->
<g id="node4" class="node">
<title>Node4</title>
<g id="a_node4"><a xlink:href="structfw_1_1drv_1_1empty__adc__detailed__cb.html" target="_top" xlink:title=" ">
<polygon fill="white" stroke="black" points="184,-0.5 184,-30.5 292,-30.5 292,-0.5 184,-0.5"/>
<text text-anchor="start" x="192" y="-18.5" font-family="Helvetica,sans-Serif" font-size="10.00">fw::drv::empty_adc</text>
<text text-anchor="middle" x="238" y="-7.5" font-family="Helvetica,sans-Serif" font-size="10.00">_detailed_cb</text>
</a>
</g>
</g>
<!-- Node1&#45;&gt;Node4 -->
<g id="edge3" class="edge">
<title>Node1&#45;&gt;Node4</title>
<path fill="none" stroke="midnightblue" d="M114.68,-52.05C136.59,-45.5 163.61,-37.43 186.67,-30.54"/>
<polygon fill="midnightblue" stroke="midnightblue" points="113.59,-48.72 105.01,-54.94 115.59,-55.43 113.59,-48.72"/>
</g>
</g>
</svg>
