<?xml version="1.0" encoding="UTF-8" standalone="no"?>
<!DOCTYPE svg PUBLIC "-//W3C//DTD SVG 1.1//EN"
 "http://www.w3.org/Graphics/SVG/1.1/DTD/svg11.dtd">
<!-- Generated by graphviz version 2.43.0 (0)
 -->
<!-- Title: src/fw/drv/clock.hpp Pages: 1 -->
<svg width="686pt" height="207pt"
 viewBox="0.00 0.00 686.00 207.00" xmlns="http://www.w3.org/2000/svg" xmlns:xlink="http://www.w3.org/1999/xlink">
<g id="graph0" class="graph" transform="scale(1 1) rotate(0) translate(4 203)">
<title>src/fw/drv/clock.hpp</title>
<polygon fill="white" stroke="transparent" points="-4,4 -4,-203 682,-203 682,4 -4,4"/>
<!-- Node1 -->
<g id="node1" class="node">
<title>Node1</title>
<g id="a_node1"><a xlink:title=" ">
<polygon fill="#bfbfbf" stroke="black" points="367,-179.5 367,-198.5 480,-198.5 480,-179.5 367,-179.5"/>
<text text-anchor="middle" x="423.5" y="-186.5" font-family="Helvetica,sans-Serif" font-size="10.00">src/fw/drv/clock.hpp</text>
</a>
</g>
</g>
<!-- Node2 -->
<g id="node2" class="node">
<title>Node2</title>
<g id="a_node2"><a xlink:href="base_8hpp.html" target="_top" xlink:title=" ">
<polygon fill="white" stroke="black" points="242,-56.5 242,-75.5 303,-75.5 303,-56.5 242,-56.5"/>
<text text-anchor="middle" x="272.5" y="-63.5" font-family="Helvetica,sans-Serif" font-size="10.00">base.hpp</text>
</a>
</g>
</g>
<!-- Node1&#45;&gt;Node2 -->
<g id="edge1" class="edge">
<title>Node1&#45;&gt;Node2</title>
<path fill="none" stroke="midnightblue" d="M366.85,-180.92C340.91,-174.88 311.73,-163.7 292.5,-143 278.16,-127.57 273.85,-103.11 272.68,-86.13"/>
<polygon fill="midnightblue" stroke="midnightblue" points="276.16,-85.62 272.28,-75.76 269.16,-85.89 276.16,-85.62"/>
</g>
<!-- Node9 -->
<g id="node8" class="node">
<title>Node9</title>
<g id="a_node8"><a xlink:href="drv__interfaces_8hpp.html" target="_top" xlink:title=" ">
<polygon fill="white" stroke="black" points="301,-118 301,-137 408,-137 408,-118 301,-118"/>
<text text-anchor="middle" x="354.5" y="-125" font-family="Helvetica,sans-Serif" font-size="10.00">drv_interfaces.hpp</text>
</a>
</g>
</g>
<!-- Node1&#45;&gt;Node9 -->
<g id="edge7" class="edge">
<title>Node1&#45;&gt;Node9</title>
<path fill="none" stroke="midnightblue" d="M413.61,-179.48C402.85,-170.2 385.43,-155.17 372.28,-143.83"/>
<polygon fill="midnightblue" stroke="midnightblue" points="374.23,-140.89 364.37,-137.01 369.66,-146.19 374.23,-140.89"/>
</g>
<!-- Node12 -->
<g id="node11" class="node">
<title>Node12</title>
<g id="a_node11"><a xlink:title=" ">
<polygon fill="white" stroke="#bfbfbf" points="426,-112.5 426,-142.5 559,-142.5 559,-112.5 426,-112.5"/>
<text text-anchor="start" x="434" y="-130.5" font-family="Helvetica,sans-Serif" font-size="10.00">emlabcpp/experimental</text>
<text text-anchor="middle" x="492.5" y="-119.5" font-family="Helvetica,sans-Serif" font-size="10.00">/function_view.h</text>
</a>
</g>
</g>
<!-- Node1&#45;&gt;Node12 -->
<g id="edge12" class="edge">
<title>Node1&#45;&gt;Node12</title>
<path fill="none" stroke="midnightblue" d="M433.39,-179.48C442.56,-171.57 456.57,-159.48 468.65,-149.07"/>
<polygon fill="midnightblue" stroke="midnightblue" points="470.95,-151.7 476.24,-142.52 466.38,-146.4 470.95,-151.7"/>
</g>
<!-- Node13 -->
<g id="node12" class="node">
<title>Node13</title>
<g id="a_node12"><a xlink:title=" ">
<polygon fill="white" stroke="#bfbfbf" points="577,-118 577,-137 678,-137 678,-118 577,-118"/>
<text text-anchor="middle" x="627.5" y="-125" font-family="Helvetica,sans-Serif" font-size="10.00">stm32g4xx_hal.h</text>
</a>
</g>
</g>
<!-- Node1&#45;&gt;Node13 -->
<g id="edge13" class="edge">
<title>Node1&#45;&gt;Node13</title>
<path fill="none" stroke="midnightblue" d="M452.73,-179.48C488.4,-169.07 548.86,-151.44 588.48,-139.88"/>
<polygon fill="midnightblue" stroke="midnightblue" points="589.71,-143.17 598.33,-137.01 587.75,-136.45 589.71,-143.17"/>
</g>
<!-- Node3 -->
<g id="node3" class="node">
<title>Node3</title>
<g id="a_node3"><a xlink:href="scaled_8hpp.html" target="_top" xlink:title=" ">
<polygon fill="white" stroke="red" points="0,-0.5 0,-19.5 69,-19.5 69,-0.5 0,-0.5"/>
<text text-anchor="middle" x="34.5" y="-7.5" font-family="Helvetica,sans-Serif" font-size="10.00">scaled.hpp</text>
</a>
</g>
</g>
<!-- Node2&#45;&gt;Node3 -->
<g id="edge2" class="edge">
<title>Node2&#45;&gt;Node3</title>
<path fill="none" stroke="midnightblue" d="M241.87,-58.05C200.58,-48.68 126.78,-31.94 79.26,-21.16"/>
<polygon fill="midnightblue" stroke="midnightblue" points="79.78,-17.68 69.25,-18.89 78.23,-24.51 79.78,-17.68"/>
</g>
<!-- Node5 -->
<g id="node4" class="node">
<title>Node5</title>
<g id="a_node4"><a xlink:title=" ">
<polygon fill="white" stroke="#bfbfbf" points="87.5,-0.5 87.5,-19.5 137.5,-19.5 137.5,-0.5 87.5,-0.5"/>
<text text-anchor="middle" x="112.5" y="-7.5" font-family="Helvetica,sans-Serif" font-size="10.00">chrono</text>
</a>
</g>
</g>
<!-- Node2&#45;&gt;Node5 -->
<g id="edge3" class="edge">
<title>Node2&#45;&gt;Node5</title>
<path fill="none" stroke="midnightblue" d="M247.15,-56.44C220.23,-47.36 177.5,-32.94 147.41,-22.78"/>
<polygon fill="midnightblue" stroke="midnightblue" points="148.33,-19.4 137.73,-19.52 146.09,-26.03 148.33,-19.4"/>
</g>
<!-- Node6 -->
<g id="node5" class="node">
<title>Node6</title>
<g id="a_node5"><a xlink:title=" ">
<polygon fill="white" stroke="#bfbfbf" points="375.5,-0.5 375.5,-19.5 425.5,-19.5 425.5,-0.5 375.5,-0.5"/>
<text text-anchor="middle" x="400.5" y="-7.5" font-family="Helvetica,sans-Serif" font-size="10.00">cstdint</text>
</a>
</g>
</g>
<!-- Node2&#45;&gt;Node6 -->
<g id="edge4" class="edge">
<title>Node2&#45;&gt;Node6</title>
<path fill="none" stroke="midnightblue" d="M292.78,-56.44C313.85,-47.56 347.02,-33.56 370.99,-23.45"/>
<polygon fill="midnightblue" stroke="midnightblue" points="372.46,-26.63 380.31,-19.52 369.74,-20.18 372.46,-26.63"/>
</g>
<!-- Node7 -->
<g id="node6" class="node">
<title>Node7</title>
<g id="a_node6"><a xlink:title=" ">
<polygon fill="white" stroke="#bfbfbf" points="155.5,-0.5 155.5,-19.5 279.5,-19.5 279.5,-0.5 155.5,-0.5"/>
<text text-anchor="middle" x="217.5" y="-7.5" font-family="Helvetica,sans-Serif" font-size="10.00">emlabcpp/algorithm.h</text>
</a>
</g>
</g>
<!-- Node2&#45;&gt;Node7 -->
<g id="edge5" class="edge">
<title>Node2&#45;&gt;Node7</title>
<path fill="none" stroke="midnightblue" d="M263.42,-56.08C255.33,-48.14 243.3,-36.34 233.59,-26.8"/>
<polygon fill="midnightblue" stroke="midnightblue" points="236,-24.26 226.41,-19.75 231.1,-29.25 236,-24.26"/>
</g>
<!-- Node8 -->
<g id="node7" class="node">
<title>Node8</title>
<g id="a_node7"><a xlink:title=" ">
<polygon fill="white" stroke="#bfbfbf" points="298,-0.5 298,-19.5 357,-19.5 357,-0.5 298,-0.5"/>
<text text-anchor="middle" x="327.5" y="-7.5" font-family="Helvetica,sans-Serif" font-size="10.00">numbers</text>
</a>
</g>
</g>
<!-- Node2&#45;&gt;Node8 -->
<g id="edge6" class="edge">
<title>Node2&#45;&gt;Node8</title>
<path fill="none" stroke="midnightblue" d="M281.58,-56.08C289.67,-48.14 301.7,-36.34 311.41,-26.8"/>
<polygon fill="midnightblue" stroke="midnightblue" points="313.9,-29.25 318.59,-19.75 309,-24.26 313.9,-29.25"/>
</g>
<!-- Node9&#45;&gt;Node2 -->
<g id="edge8" class="edge">
<title>Node9&#45;&gt;Node2</title>
<path fill="none" stroke="midnightblue" d="M342.75,-117.98C329.72,-108.52 308.46,-93.1 292.74,-81.69"/>
<polygon fill="midnightblue" stroke="midnightblue" points="294.38,-78.55 284.23,-75.51 290.27,-84.21 294.38,-78.55"/>
</g>
<!-- Node9&#45;&gt;Node6 -->
<g id="edge10" class="edge">
<title>Node9&#45;&gt;Node6</title>
<path fill="none" stroke="midnightblue" d="M353.73,-117.84C352.85,-104.11 352.55,-76.79 361.5,-56 366.22,-45.03 374.62,-34.8 382.42,-26.87"/>
<polygon fill="midnightblue" stroke="midnightblue" points="385.04,-29.21 389.86,-19.77 380.21,-24.15 385.04,-29.21"/>
</g>
<!-- Node10 -->
<g id="node9" class="node">
<title>Node10</title>
<g id="a_node9"><a xlink:href="status__category_8hpp.html" target="_top" xlink:title=" ">
<polygon fill="white" stroke="black" points="370.5,-56.5 370.5,-75.5 484.5,-75.5 484.5,-56.5 370.5,-56.5"/>
<text text-anchor="middle" x="427.5" y="-63.5" font-family="Helvetica,sans-Serif" font-size="10.00">status_category.hpp</text>
</a>
</g>
</g>
<!-- Node9&#45;&gt;Node10 -->
<g id="edge9" class="edge">
<title>Node9&#45;&gt;Node10</title>
<path fill="none" stroke="midnightblue" d="M364.96,-117.98C376.45,-108.61 395.13,-93.38 409.09,-82.01"/>
<polygon fill="midnightblue" stroke="midnightblue" points="411.52,-84.54 417.06,-75.51 407.1,-79.11 411.52,-84.54"/>
</g>
<!-- Node11 -->
<g id="node10" class="node">
<title>Node11</title>
<g id="a_node10"><a xlink:title=" ">
<polygon fill="white" stroke="#bfbfbf" points="502.5,-56.5 502.5,-75.5 542.5,-75.5 542.5,-56.5 502.5,-56.5"/>
<text text-anchor="middle" x="522.5" y="-63.5" font-family="Helvetica,sans-Serif" font-size="10.00">span</text>
</a>
</g>
</g>
<!-- Node9&#45;&gt;Node11 -->
<g id="edge11" class="edge">
<title>Node9&#45;&gt;Node11</title>
<path fill="none" stroke="midnightblue" d="M378.57,-117.98C408.75,-107.29 460.45,-88.98 492.98,-77.45"/>
<polygon fill="midnightblue" stroke="midnightblue" points="494.16,-80.75 502.42,-74.11 491.82,-74.15 494.16,-80.75"/>
</g>
</g>
</svg>
