<?xml version="1.0" encoding="UTF-8" standalone="no"?>
<!DOCTYPE svg PUBLIC "-//W3C//DTD SVG 1.1//EN"
 "http://www.w3.org/Graphics/SVG/1.1/DTD/svg11.dtd">
<!-- Generated by graphviz version 2.43.0 (0)
 -->
<!-- Title: src/drv/clock.hpp Pages: 1 -->
<svg width="986pt" height="203pt"
 viewBox="0.00 0.00 985.50 203.00" xmlns="http://www.w3.org/2000/svg" xmlns:xlink="http://www.w3.org/1999/xlink">
<g id="graph0" class="graph" transform="scale(1 1) rotate(0) translate(4 199)">
<title>src/drv/clock.hpp</title>
<!-- Node1 -->
<g id="Node000001" class="node">
<title>Node1</title>
<g id="a_Node000001"><a xlink:title=" ">
<polygon fill="#999999" stroke="#666666" points="783.5,-195 684.5,-195 684.5,-176 783.5,-176 783.5,-195"/>
<text text-anchor="middle" x="734" y="-183" font-family="Helvetica,sans-Serif" font-size="10.00">src/drv/clock.hpp</text>
</a>
</g>
</g>
<!-- Node2 -->
<g id="Node000002" class="node">
<title>Node2</title>
<g id="a_Node000002"><a xlink:href="base_8hpp.html" target="_top" xlink:title=" ">
<polygon fill="white" stroke="#666666" points="465,-79.5 395,-79.5 395,-60.5 465,-60.5 465,-79.5"/>
<text text-anchor="middle" x="430" y="-67.5" font-family="Helvetica,sans-Serif" font-size="10.00">../base.hpp</text>
</a>
</g>
</g>
<!-- Node1&#45;&gt;Node2 -->
<g id="edge1_Node000001_Node000002" class="edge">
<title>Node1&#45;&gt;Node2</title>
<g id="a_edge1_Node000001_Node000002"><a xlink:title=" ">
<path fill="none" stroke="#63b8ff" d="M711.15,-175.97C657.78,-156.04 524.78,-106.39 462.78,-83.24"/>
<polygon fill="#63b8ff" stroke="#63b8ff" points="463.71,-79.85 453.11,-79.63 461.26,-86.41 463.71,-79.85"/>
</a>
</g>
</g>
<!-- Node10 -->
<g id="Node000010" class="node">
<title>Node10</title>
<g id="a_Node000010"><a xlink:href="platform_8hpp.html" target="_top" xlink:title=" ">
<polygon fill="white" stroke="#666666" points="970,-140 866,-140 866,-121 970,-121 970,-140"/>
<text text-anchor="middle" x="918" y="-128" font-family="Helvetica,sans-Serif" font-size="10.00">../plt/platform.hpp</text>
</a>
</g>
</g>
<!-- Node1&#45;&gt;Node10 -->
<g id="edge9_Node000001_Node000010" class="edge">
<title>Node1&#45;&gt;Node10</title>
<g id="a_edge9_Node000001_Node000010"><a xlink:title=" ">
<path fill="none" stroke="#63b8ff" d="M763.56,-175.98C794.72,-167.01 843.97,-152.82 878.46,-142.89"/>
<polygon fill="#63b8ff" stroke="#63b8ff" points="879.57,-146.21 888.21,-140.08 877.63,-139.49 879.57,-146.21"/>
</a>
</g>
</g>
<!-- Node13 -->
<g id="Node000013" class="node">
<title>Node13</title>
<g id="a_Node000013"><a xlink:href="interfaces_8hpp.html" target="_top" xlink:title=" ">
<polygon fill="white" stroke="#666666" points="743,-140 651,-140 651,-121 743,-121 743,-140"/>
<text text-anchor="middle" x="697" y="-128" font-family="Helvetica,sans-Serif" font-size="10.00">./interfaces.hpp</text>
</a>
</g>
</g>
<!-- Node1&#45;&gt;Node13 -->
<g id="edge11_Node000001_Node000013" class="edge">
<title>Node1&#45;&gt;Node13</title>
<g id="a_edge11_Node000001_Node000013"><a xlink:title=" ">
<path fill="none" stroke="#63b8ff" d="M727.89,-175.75C722.72,-168.34 715.15,-157.5 708.81,-148.41"/>
<polygon fill="#63b8ff" stroke="#63b8ff" points="711.59,-146.29 703,-140.09 705.85,-150.29 711.59,-146.29"/>
</a>
</g>
</g>
<!-- Node27 -->
<g id="Node000027" class="node">
<title>Node27</title>
<g id="a_Node000027"><a xlink:title=" ">
<polygon fill="#e0e0e0" stroke="#999999" points="906.5,-85 773.5,-85 773.5,-55 906.5,-55 906.5,-85"/>
<text text-anchor="start" x="781.5" y="-73" font-family="Helvetica,sans-Serif" font-size="10.00">emlabcpp/experimental</text>
<text text-anchor="middle" x="840" y="-62" font-family="Helvetica,sans-Serif" font-size="10.00">/function_view.hpp</text>
</a>
</g>
</g>
<!-- Node1&#45;&gt;Node27 -->
<g id="edge20_Node000001_Node000027" class="edge">
<title>Node1&#45;&gt;Node27</title>
<g id="a_edge20_Node000001_Node000027"><a xlink:title=" ">
<path fill="none" stroke="#63b8ff" d="M741.97,-175.97C758.3,-158.48 796.04,-118.07 819.64,-92.81"/>
<polygon fill="#63b8ff" stroke="#63b8ff" points="822.49,-94.88 826.76,-85.18 817.37,-90.1 822.49,-94.88"/>
</a>
</g>
</g>
<!-- Node3 -->
<g id="Node000003" class="node">
<title>Node3</title>
<g id="a_Node000003"><a xlink:title=" ">
<polygon fill="#e0e0e0" stroke="#999999" points="124,-19 74,-19 74,0 124,0 124,-19"/>
<text text-anchor="middle" x="99" y="-7" font-family="Helvetica,sans-Serif" font-size="10.00">chrono</text>
</a>
</g>
</g>
<!-- Node2&#45;&gt;Node3 -->
<g id="edge2_Node000002_Node000003" class="edge">
<title>Node2&#45;&gt;Node3</title>
<g id="a_edge2_Node000002_Node000003"><a xlink:title=" ">
<path fill="none" stroke="#63b8ff" d="M394.63,-63.96C340.6,-56.06 234.07,-39.71 134.16,-19.11"/>
<polygon fill="#63b8ff" stroke="#63b8ff" points="134.7,-15.64 124.2,-17.03 133.28,-22.5 134.7,-15.64"/>
</a>
</g>
</g>
<!-- Node4 -->
<g id="Node000004" class="node">
<title>Node4</title>
<g id="a_Node000004"><a xlink:title=" ">
<polygon fill="#e0e0e0" stroke="#999999" points="728,-19 678,-19 678,0 728,0 728,-19"/>
<text text-anchor="middle" x="703" y="-7" font-family="Helvetica,sans-Serif" font-size="10.00">cstdint</text>
</a>
</g>
</g>
<!-- Node2&#45;&gt;Node4 -->
<g id="edge3_Node000002_Node000004" class="edge">
<title>Node2&#45;&gt;Node4</title>
<g id="a_edge3_Node000002_Node000004"><a xlink:title=" ">
<path fill="none" stroke="#63b8ff" d="M454.97,-60.46C461.15,-58.51 467.78,-56.56 474,-55 556.4,-34.37 581.1,-37.43 667.78,-19.14"/>
<polygon fill="#63b8ff" stroke="#63b8ff" points="668.75,-22.51 677.79,-16.99 667.28,-15.67 668.75,-22.51"/>
</a>
</g>
</g>
<!-- Node5 -->
<g id="Node000005" class="node">
<title>Node5</title>
<g id="a_Node000005"><a xlink:title=" ">
<polygon fill="#e0e0e0" stroke="#999999" points="278,-19 142,-19 142,0 278,0 278,-19"/>
<text text-anchor="middle" x="210" y="-7" font-family="Helvetica,sans-Serif" font-size="10.00">emlabcpp/algorithm.hpp</text>
</a>
</g>
</g>
<!-- Node2&#45;&gt;Node5 -->
<g id="edge4_Node000002_Node000005" class="edge">
<title>Node2&#45;&gt;Node5</title>
<g id="a_edge4_Node000002_Node000005"><a xlink:title=" ">
<path fill="none" stroke="#63b8ff" d="M398.01,-60.49C359.4,-50.23 294.36,-32.93 251.8,-21.62"/>
<polygon fill="#63b8ff" stroke="#63b8ff" points="252.59,-18.2 242.03,-19.02 250.79,-24.97 252.59,-18.2"/>
</a>
</g>
</g>
<!-- Node6 -->
<g id="Node000006" class="node">
<title>Node6</title>
<g id="a_Node000006"><a xlink:title=" ">
<polygon fill="#e0e0e0" stroke="#999999" points="660,-19 520,-19 520,0 660,0 660,-19"/>
<text text-anchor="middle" x="590" y="-7" font-family="Helvetica,sans-Serif" font-size="10.00">emlabcpp/error_code.hpp</text>
</a>
</g>
</g>
<!-- Node2&#45;&gt;Node6 -->
<g id="edge5_Node000002_Node000006" class="edge">
<title>Node2&#45;&gt;Node6</title>
<g id="a_edge5_Node000002_Node000006"><a xlink:title=" ">
<path fill="none" stroke="#63b8ff" d="M453.27,-60.49C480.64,-50.49 526.27,-33.8 557.22,-22.49"/>
<polygon fill="#63b8ff" stroke="#63b8ff" points="558.52,-25.74 566.71,-19.02 556.11,-19.16 558.52,-25.74"/>
</a>
</g>
</g>
<!-- Node7 -->
<g id="Node000007" class="node">
<title>Node7</title>
<g id="a_Node000007"><a xlink:title=" ">
<polygon fill="#e0e0e0" stroke="#999999" points="424,-19 296,-19 296,0 424,0 424,-19"/>
<text text-anchor="middle" x="360" y="-7" font-family="Helvetica,sans-Serif" font-size="10.00">emlabcpp/quantity.hpp</text>
</a>
</g>
</g>
<!-- Node2&#45;&gt;Node7 -->
<g id="edge6_Node000002_Node000007" class="edge">
<title>Node2&#45;&gt;Node7</title>
<g id="a_edge6_Node000002_Node000007"><a xlink:title=" ">
<path fill="none" stroke="#63b8ff" d="M419.67,-60.37C408.81,-51.3 391.51,-36.84 378.33,-25.82"/>
<polygon fill="#63b8ff" stroke="#63b8ff" points="380.29,-22.89 370.37,-19.17 375.8,-28.27 380.29,-22.89"/>
</a>
</g>
</g>
<!-- Node8 -->
<g id="Node000008" class="node">
<title>Node8</title>
<g id="a_Node000008"><a xlink:title=" ">
<polygon fill="#e0e0e0" stroke="#999999" points="501.5,-19 442.5,-19 442.5,0 501.5,0 501.5,-19"/>
<text text-anchor="middle" x="472" y="-7" font-family="Helvetica,sans-Serif" font-size="10.00">numbers</text>
</a>
</g>
</g>
<!-- Node2&#45;&gt;Node8 -->
<g id="edge7_Node000002_Node000008" class="edge">
<title>Node2&#45;&gt;Node8</title>
<g id="a_edge7_Node000002_Node000008"><a xlink:title=" ">
<path fill="none" stroke="#63b8ff" d="M436.2,-60.37C442.4,-51.73 452.11,-38.2 459.86,-27.42"/>
<polygon fill="#63b8ff" stroke="#63b8ff" points="462.79,-29.33 465.78,-19.17 457.1,-25.25 462.79,-29.33"/>
</a>
</g>
</g>
<!-- Node9 -->
<g id="Node000009" class="node">
<title>Node9</title>
<g id="a_Node000009"><a xlink:title=" ">
<polygon fill="#e0e0e0" stroke="#999999" points="56,-19 0,-19 0,0 56,0 56,-19"/>
<text text-anchor="middle" x="28" y="-7" font-family="Helvetica,sans-Serif" font-size="10.00">optional</text>
</a>
</g>
</g>
<!-- Node2&#45;&gt;Node9 -->
<g id="edge8_Node000002_Node000009" class="edge">
<title>Node2&#45;&gt;Node9</title>
<g id="a_edge8_Node000002_Node000009"><a xlink:title=" ">
<path fill="none" stroke="#63b8ff" d="M394.85,-65.25C331.24,-58.23 192.6,-41.88 66.09,-19.06"/>
<polygon fill="#63b8ff" stroke="#63b8ff" points="66.69,-15.61 56.23,-17.26 65.44,-22.49 66.69,-15.61"/>
</a>
</g>
</g>
<!-- Node11 -->
<g id="Node000011" class="node">
<title>Node11</title>
<g id="a_Node000011"><a xlink:href="hal_8hpp.html" target="_top" xlink:title=" ">
<polygon fill="#fff0f0" stroke="red" points="977.5,-79.5 924.5,-79.5 924.5,-60.5 977.5,-60.5 977.5,-79.5"/>
<text text-anchor="middle" x="951" y="-67.5" font-family="Helvetica,sans-Serif" font-size="10.00">hal.hpp</text>
</a>
</g>
</g>
<!-- Node10&#45;&gt;Node11 -->
<g id="edge10_Node000010_Node000011" class="edge">
<title>Node10&#45;&gt;Node11</title>
<g id="a_edge10_Node000010_Node000011"><a xlink:title=" ">
<path fill="none" stroke="#63b8ff" d="M922.87,-120.87C927.65,-112.4 935.07,-99.24 941.09,-88.57"/>
<polygon fill="#63b8ff" stroke="#63b8ff" points="944.25,-90.1 946.11,-79.67 938.15,-86.66 944.25,-90.1"/>
</a>
</g>
</g>
<!-- Node13&#45;&gt;Node2 -->
<g id="edge12_Node000013_Node000002" class="edge">
<title>Node13&#45;&gt;Node2</title>
<g id="a_edge12_Node000013_Node000002"><a xlink:title=" ">
<path fill="none" stroke="#63b8ff" d="M650.96,-121.86C605.64,-113.97 534.59,-100.63 474,-85 471.16,-84.27 468.24,-83.46 465.31,-82.61"/>
<polygon fill="#63b8ff" stroke="#63b8ff" points="466.04,-79.18 455.45,-79.63 464.01,-85.87 466.04,-79.18"/>
</a>
</g>
</g>
<!-- Node13&#45;&gt;Node4 -->
<g id="edge17_Node000013_Node000004" class="edge">
<title>Node13&#45;&gt;Node4</title>
<g id="a_edge17_Node000013_Node000004"><a xlink:title=" ">
<path fill="none" stroke="#63b8ff" d="M704.94,-120.75C712.03,-112.3 721.9,-98.79 726,-85 729.8,-72.22 729.15,-67.96 726,-55 723.69,-45.51 718.98,-35.78 714.42,-27.85"/>
<polygon fill="#63b8ff" stroke="#63b8ff" points="717.32,-25.89 709.1,-19.2 711.36,-29.55 717.32,-25.89"/>
</a>
</g>
</g>
<!-- Node14 -->
<g id="Node000014" class="node">
<title>Node14</title>
<g id="a_Node000014"><a xlink:href="cfg_2def_8hpp.html" target="_top" xlink:title=" ">
<polygon fill="#fff0f0" stroke="red" points="659,-79.5 579,-79.5 579,-60.5 659,-60.5 659,-79.5"/>
<text text-anchor="middle" x="619" y="-67.5" font-family="Helvetica,sans-Serif" font-size="10.00">../cfg/def.hpp</text>
</a>
</g>
</g>
<!-- Node13&#45;&gt;Node14 -->
<g id="edge13_Node000013_Node000014" class="edge">
<title>Node13&#45;&gt;Node14</title>
<g id="a_edge13_Node000013_Node000014"><a xlink:title=" ">
<path fill="none" stroke="#63b8ff" d="M685.49,-120.87C673.16,-111.62 653.38,-96.78 638.59,-85.69"/>
<polygon fill="#63b8ff" stroke="#63b8ff" points="640.66,-82.87 630.56,-79.67 636.46,-88.47 640.66,-82.87"/>
</a>
</g>
</g>
<!-- Node25 -->
<g id="Node000025" class="node">
<title>Node25</title>
<g id="a_Node000025"><a xlink:href="status_8hpp.html" target="_top" xlink:title=" ">
<polygon fill="white" stroke="#666666" points="560.5,-79.5 483.5,-79.5 483.5,-60.5 560.5,-60.5 560.5,-79.5"/>
<text text-anchor="middle" x="522" y="-67.5" font-family="Helvetica,sans-Serif" font-size="10.00">../status.hpp</text>
</a>
</g>
</g>
<!-- Node13&#45;&gt;Node25 -->
<g id="edge14_Node000013_Node000025" class="edge">
<title>Node13&#45;&gt;Node25</title>
<g id="a_edge14_Node000013_Node000025"><a xlink:title=" ">
<path fill="none" stroke="#63b8ff" d="M671.55,-120.99C641.36,-110.9 590.84,-94.01 556.98,-82.69"/>
<polygon fill="#63b8ff" stroke="#63b8ff" points="558.07,-79.37 547.48,-79.52 555.85,-86.01 558.07,-79.37"/>
</a>
</g>
</g>
<!-- Node13&#45;&gt;Node27 -->
<g id="edge18_Node000013_Node000027" class="edge">
<title>Node13&#45;&gt;Node27</title>
<g id="a_edge18_Node000013_Node000027"><a xlink:title=" ">
<path fill="none" stroke="#63b8ff" d="M717.79,-120.99C738.28,-112.61 770.22,-99.55 796.31,-88.87"/>
<polygon fill="#63b8ff" stroke="#63b8ff" points="797.69,-92.09 805.62,-85.06 795.04,-85.61 797.69,-92.09"/>
</a>
</g>
</g>
<!-- Node28 -->
<g id="Node000028" class="node">
<title>Node28</title>
<g id="a_Node000028"><a xlink:title=" ">
<polygon fill="#e0e0e0" stroke="#999999" points="717,-79.5 677,-79.5 677,-60.5 717,-60.5 717,-79.5"/>
<text text-anchor="middle" x="697" y="-67.5" font-family="Helvetica,sans-Serif" font-size="10.00">span</text>
</a>
</g>
</g>
<!-- Node13&#45;&gt;Node28 -->
<g id="edge19_Node000013_Node000028" class="edge">
<title>Node13&#45;&gt;Node28</title>
<g id="a_edge19_Node000013_Node000028"><a xlink:title=" ">
<path fill="none" stroke="#63b8ff" d="M697,-120.87C697,-112.75 697,-100.31 697,-89.89"/>
<polygon fill="#63b8ff" stroke="#63b8ff" points="700.5,-89.67 697,-79.67 693.5,-89.67 700.5,-89.67"/>
</a>
</g>
</g>
<!-- Node25&#45;&gt;Node4 -->
<g id="edge15_Node000025_Node000004" class="edge">
<title>Node25&#45;&gt;Node4</title>
<g id="a_edge15_Node000025_Node000004"><a xlink:title=" ">
<path fill="none" stroke="#63b8ff" d="M548.32,-60.49C579.91,-50.28 632.99,-33.13 668.01,-21.81"/>
<polygon fill="#63b8ff" stroke="#63b8ff" points="669.38,-25.05 677.82,-18.64 667.22,-18.38 669.38,-25.05"/>
</a>
</g>
</g>
<!-- Node25&#45;&gt;Node6 -->
<g id="edge16_Node000025_Node000006" class="edge">
<title>Node25&#45;&gt;Node6</title>
<g id="a_edge16_Node000025_Node000006"><a xlink:title=" ">
<path fill="none" stroke="#63b8ff" d="M532.03,-60.37C542.58,-51.3 559.39,-36.84 572.19,-25.82"/>
<polygon fill="#63b8ff" stroke="#63b8ff" points="574.63,-28.34 579.93,-19.17 570.06,-23.04 574.63,-28.34"/>
</a>
</g>
</g>
</g>
</svg>
