<?xml version="1.0" encoding="UTF-8" standalone="no"?>
<!DOCTYPE svg PUBLIC "-//W3C//DTD SVG 1.1//EN"
 "http://www.w3.org/Graphics/SVG/1.1/DTD/svg11.dtd">
<!-- Generated by graphviz version 2.43.0 (0)
 -->
<!-- Title: src/drv/clock.hpp Pages: 1 -->
<svg width="639pt" height="203pt"
 viewBox="0.00 0.00 639.00 203.00" xmlns="http://www.w3.org/2000/svg" xmlns:xlink="http://www.w3.org/1999/xlink">
<g id="graph0" class="graph" transform="scale(1 1) rotate(0) translate(4 199)">
<title>src/drv/clock.hpp</title>
<!-- Node1 -->
<g id="Node000001" class="node">
<title>Node1</title>
<g id="a_Node000001"><a xlink:title=" ">
<polygon fill="#999999" stroke="#666666" points="410.5,-195 311.5,-195 311.5,-176 410.5,-176 410.5,-195"/>
<text text-anchor="middle" x="361" y="-183" font-family="Helvetica,sans-Serif" font-size="10.00">src/drv/clock.hpp</text>
</a>
</g>
</g>
<!-- Node2 -->
<g id="Node000002" class="node">
<title>Node2</title>
<g id="a_Node000002"><a xlink:href="base_8hpp.html" target="_top" xlink:title=" ">
<polygon fill="white" stroke="#666666" points="341,-74 271,-74 271,-55 341,-55 341,-74"/>
<text text-anchor="middle" x="306" y="-62" font-family="Helvetica,sans-Serif" font-size="10.00">../base.hpp</text>
</a>
</g>
</g>
<!-- Node1&#45;&gt;Node2 -->
<g id="edge1_Node000001_Node000002" class="edge">
<title>Node1&#45;&gt;Node2</title>
<g id="a_edge1_Node000001_Node000002"><a xlink:title=" ">
<path fill="none" stroke="#63b8ff" d="M357.04,-175.94C348.13,-156.65 326.31,-109.44 314.29,-83.43"/>
<polygon fill="#63b8ff" stroke="#63b8ff" points="317.44,-81.91 310.07,-74.3 311.09,-84.85 317.44,-81.91"/>
</a>
</g>
</g>
<!-- Node9 -->
<g id="Node000009" class="node">
<title>Node9</title>
<g id="a_Node000009"><a xlink:href="platform_8hpp.html" target="_top" xlink:title=" ">
<polygon fill="white" stroke="#666666" points="287,-134.5 183,-134.5 183,-115.5 287,-115.5 287,-134.5"/>
<text text-anchor="middle" x="235" y="-122.5" font-family="Helvetica,sans-Serif" font-size="10.00">../plt/platform.hpp</text>
</a>
</g>
</g>
<!-- Node1&#45;&gt;Node9 -->
<g id="edge8_Node000001_Node000009" class="edge">
<title>Node1&#45;&gt;Node9</title>
<g id="a_edge8_Node000001_Node000009"><a xlink:title=" ">
<path fill="none" stroke="#63b8ff" d="M342.68,-175.99C321.59,-166.2 286.74,-150.02 262.42,-138.73"/>
<polygon fill="#63b8ff" stroke="#63b8ff" points="263.89,-135.55 253.34,-134.52 260.94,-141.9 263.89,-135.55"/>
</a>
</g>
</g>
<!-- Node12 -->
<g id="Node000012" class="node">
<title>Node12</title>
<g id="a_Node000012"><a xlink:href="interfaces_8hpp.html" target="_top" xlink:title=" ">
<polygon fill="white" stroke="#666666" points="444,-134.5 352,-134.5 352,-115.5 444,-115.5 444,-134.5"/>
<text text-anchor="middle" x="398" y="-122.5" font-family="Helvetica,sans-Serif" font-size="10.00">./interfaces.hpp</text>
</a>
</g>
</g>
<!-- Node1&#45;&gt;Node12 -->
<g id="edge10_Node000001_Node000012" class="edge">
<title>Node1&#45;&gt;Node12</title>
<g id="a_edge10_Node000001_Node000012"><a xlink:title=" ">
<path fill="none" stroke="#63b8ff" d="M366.46,-175.87C371.87,-167.31 380.31,-153.97 387.1,-143.24"/>
<polygon fill="#63b8ff" stroke="#63b8ff" points="390.13,-144.99 392.52,-134.67 384.21,-141.25 390.13,-144.99"/>
</a>
</g>
</g>
<!-- Node28 -->
<g id="Node000028" class="node">
<title>Node28</title>
<g id="a_Node000028"><a xlink:title=" ">
<polygon fill="#e0e0e0" stroke="#999999" points="595.5,-140 462.5,-140 462.5,-110 595.5,-110 595.5,-140"/>
<text text-anchor="start" x="470.5" y="-128" font-family="Helvetica,sans-Serif" font-size="10.00">emlabcpp/experimental</text>
<text text-anchor="middle" x="529" y="-117" font-family="Helvetica,sans-Serif" font-size="10.00">/function_view.h</text>
</a>
</g>
</g>
<!-- Node1&#45;&gt;Node28 -->
<g id="edge16_Node000001_Node000028" class="edge">
<title>Node1&#45;&gt;Node28</title>
<g id="a_edge16_Node000001_Node000028"><a xlink:title=" ">
<path fill="none" stroke="#63b8ff" d="M385.43,-175.99C409.82,-167.5 448.01,-154.2 478.87,-143.45"/>
<polygon fill="#63b8ff" stroke="#63b8ff" points="480.32,-146.66 488.61,-140.06 478.02,-140.05 480.32,-146.66"/>
</a>
</g>
</g>
<!-- Node3 -->
<g id="Node000003" class="node">
<title>Node3</title>
<g id="a_Node000003"><a xlink:title=" ">
<polygon fill="#e0e0e0" stroke="#999999" points="478,-19 428,-19 428,0 478,0 478,-19"/>
<text text-anchor="middle" x="453" y="-7" font-family="Helvetica,sans-Serif" font-size="10.00">chrono</text>
</a>
</g>
</g>
<!-- Node2&#45;&gt;Node3 -->
<g id="edge2_Node000002_Node000003" class="edge">
<title>Node2&#45;&gt;Node3</title>
<g id="a_edge2_Node000002_Node000003"><a xlink:title=" ">
<path fill="none" stroke="#63b8ff" d="M329.62,-54.98C353.9,-46.23 391.95,-32.51 419.37,-22.62"/>
<polygon fill="#63b8ff" stroke="#63b8ff" points="420.73,-25.85 428.95,-19.17 418.36,-19.27 420.73,-25.85"/>
</a>
</g>
</g>
<!-- Node4 -->
<g id="Node000004" class="node">
<title>Node4</title>
<g id="a_Node000004"><a xlink:title=" ">
<polygon fill="#e0e0e0" stroke="#999999" points="547,-19 497,-19 497,0 547,0 547,-19"/>
<text text-anchor="middle" x="522" y="-7" font-family="Helvetica,sans-Serif" font-size="10.00">cstdint</text>
</a>
</g>
</g>
<!-- Node2&#45;&gt;Node4 -->
<g id="edge3_Node000002_Node000004" class="edge">
<title>Node2&#45;&gt;Node4</title>
<g id="a_edge3_Node000002_Node000004"><a xlink:title=" ">
<path fill="none" stroke="#63b8ff" d="M340.7,-54.98C380.86,-45.13 446.6,-29 486.91,-19.11"/>
<polygon fill="#63b8ff" stroke="#63b8ff" points="487.95,-22.46 496.83,-16.68 486.28,-15.66 487.95,-22.46"/>
</a>
</g>
</g>
<!-- Node5 -->
<g id="Node000005" class="node">
<title>Node5</title>
<g id="a_Node000005"><a xlink:title=" ">
<polygon fill="#e0e0e0" stroke="#999999" points="124,-19 0,-19 0,0 124,0 124,-19"/>
<text text-anchor="middle" x="62" y="-7" font-family="Helvetica,sans-Serif" font-size="10.00">emlabcpp/algorithm.h</text>
</a>
</g>
</g>
<!-- Node2&#45;&gt;Node5 -->
<g id="edge4_Node000002_Node000005" class="edge">
<title>Node2&#45;&gt;Node5</title>
<g id="a_edge4_Node000002_Node000005"><a xlink:title=" ">
<path fill="none" stroke="#63b8ff" d="M270.78,-55.85C228.85,-46.74 158.58,-31.48 111.27,-21.2"/>
<polygon fill="#63b8ff" stroke="#63b8ff" points="111.76,-17.73 101.25,-19.03 110.28,-24.57 111.76,-17.73"/>
</a>
</g>
</g>
<!-- Node6 -->
<g id="Node000006" class="node">
<title>Node6</title>
<g id="a_Node000006"><a xlink:title=" ">
<polygon fill="#e0e0e0" stroke="#999999" points="258,-19 142,-19 142,0 258,0 258,-19"/>
<text text-anchor="middle" x="200" y="-7" font-family="Helvetica,sans-Serif" font-size="10.00">emlabcpp/quantity.h</text>
</a>
</g>
</g>
<!-- Node2&#45;&gt;Node6 -->
<g id="edge5_Node000002_Node000006" class="edge">
<title>Node2&#45;&gt;Node6</title>
<g id="a_edge5_Node000002_Node000006"><a xlink:title=" ">
<path fill="none" stroke="#63b8ff" d="M288.97,-54.98C272.07,-46.54 245.94,-33.47 226.36,-23.68"/>
<polygon fill="#63b8ff" stroke="#63b8ff" points="227.85,-20.51 217.34,-19.17 224.72,-26.77 227.85,-20.51"/>
</a>
</g>
</g>
<!-- Node7 -->
<g id="Node000007" class="node">
<title>Node7</title>
<g id="a_Node000007"><a xlink:title=" ">
<polygon fill="#e0e0e0" stroke="#999999" points="335.5,-19 276.5,-19 276.5,0 335.5,0 335.5,-19"/>
<text text-anchor="middle" x="306" y="-7" font-family="Helvetica,sans-Serif" font-size="10.00">numbers</text>
</a>
</g>
</g>
<!-- Node2&#45;&gt;Node7 -->
<g id="edge6_Node000002_Node000007" class="edge">
<title>Node2&#45;&gt;Node7</title>
<g id="a_edge6_Node000002_Node000007"><a xlink:title=" ">
<path fill="none" stroke="#63b8ff" d="M306,-54.75C306,-47.8 306,-37.85 306,-29.13"/>
<polygon fill="#63b8ff" stroke="#63b8ff" points="309.5,-29.09 306,-19.09 302.5,-29.09 309.5,-29.09"/>
</a>
</g>
</g>
<!-- Node8 -->
<g id="Node000008" class="node">
<title>Node8</title>
<g id="a_Node000008"><a xlink:title=" ">
<polygon fill="#e0e0e0" stroke="#999999" points="410,-19 354,-19 354,0 410,0 410,-19"/>
<text text-anchor="middle" x="382" y="-7" font-family="Helvetica,sans-Serif" font-size="10.00">optional</text>
</a>
</g>
</g>
<!-- Node2&#45;&gt;Node8 -->
<g id="edge7_Node000002_Node000008" class="edge">
<title>Node2&#45;&gt;Node8</title>
<g id="a_edge7_Node000002_Node000008"><a xlink:title=" ">
<path fill="none" stroke="#63b8ff" d="M318.21,-54.98C329.78,-46.92 347.38,-34.65 361.16,-25.03"/>
<polygon fill="#63b8ff" stroke="#63b8ff" points="363.37,-27.76 369.57,-19.17 359.36,-22.02 363.37,-27.76"/>
</a>
</g>
</g>
<!-- Node10 -->
<g id="Node000010" class="node">
<title>Node10</title>
<g id="a_Node000010"><a xlink:href="hal_8hpp.html" target="_top" xlink:title=" ">
<polygon fill="#fff0f0" stroke="red" points="252.5,-74 199.5,-74 199.5,-55 252.5,-55 252.5,-74"/>
<text text-anchor="middle" x="226" y="-62" font-family="Helvetica,sans-Serif" font-size="10.00">hal.hpp</text>
</a>
</g>
</g>
<!-- Node9&#45;&gt;Node10 -->
<g id="edge9_Node000009_Node000010" class="edge">
<title>Node9&#45;&gt;Node10</title>
<g id="a_edge9_Node000009_Node000010"><a xlink:title=" ">
<path fill="none" stroke="#63b8ff" d="M233.67,-115.37C232.41,-107.16 230.47,-94.54 228.85,-84.05"/>
<polygon fill="#63b8ff" stroke="#63b8ff" points="232.31,-83.52 227.33,-74.17 225.39,-84.58 232.31,-83.52"/>
</a>
</g>
</g>
<!-- Node12&#45;&gt;Node2 -->
<g id="edge11_Node000012_Node000002" class="edge">
<title>Node12&#45;&gt;Node2</title>
<g id="a_edge11_Node000012_Node000002"><a xlink:title=" ">
<path fill="none" stroke="#63b8ff" d="M384.43,-115.37C369.61,-105.95 345.67,-90.73 328.14,-79.58"/>
<polygon fill="#63b8ff" stroke="#63b8ff" points="329.95,-76.58 319.63,-74.17 326.19,-82.49 329.95,-76.58"/>
</a>
</g>
</g>
<!-- Node12&#45;&gt;Node4 -->
<g id="edge14_Node000012_Node000004" class="edge">
<title>Node12&#45;&gt;Node4</title>
<g id="a_edge14_Node000012_Node000004"><a xlink:title=" ">
<path fill="none" stroke="#63b8ff" d="M433.48,-115.5C456.67,-108.18 485.91,-95.34 504,-74 514.54,-61.57 518.92,-43.36 520.74,-29.62"/>
<polygon fill="#63b8ff" stroke="#63b8ff" points="524.25,-29.65 521.74,-19.36 517.28,-28.98 524.25,-29.65"/>
</a>
</g>
</g>
<!-- Node13 -->
<g id="Node000013" class="node">
<title>Node13</title>
<g id="a_Node000013"><a xlink:href="cfg_2def_8hpp.html" target="_top" xlink:title=" ">
<polygon fill="#fff0f0" stroke="red" points="631,-74 551,-74 551,-55 631,-55 631,-74"/>
<text text-anchor="middle" x="591" y="-62" font-family="Helvetica,sans-Serif" font-size="10.00">../cfg/def.hpp</text>
</a>
</g>
</g>
<!-- Node12&#45;&gt;Node13 -->
<g id="edge12_Node000012_Node000013" class="edge">
<title>Node12&#45;&gt;Node13</title>
<g id="a_edge12_Node000012_Node000013"><a xlink:title=" ">
<path fill="none" stroke="#63b8ff" d="M426.06,-115.49C459.51,-105.36 515.56,-88.37 552.9,-77.05"/>
<polygon fill="#63b8ff" stroke="#63b8ff" points="554.35,-80.27 562.9,-74.02 552.32,-73.57 554.35,-80.27"/>
</a>
</g>
</g>
<!-- Node23 -->
<g id="Node000023" class="node">
<title>Node23</title>
<g id="a_Node000023"><a xlink:href="status_8hpp.html" target="_top" xlink:title=" ">
<polygon fill="#fff0f0" stroke="red" points="436.5,-74 359.5,-74 359.5,-55 436.5,-55 436.5,-74"/>
<text text-anchor="middle" x="398" y="-62" font-family="Helvetica,sans-Serif" font-size="10.00">../status.hpp</text>
</a>
</g>
</g>
<!-- Node12&#45;&gt;Node23 -->
<g id="edge13_Node000012_Node000023" class="edge">
<title>Node12&#45;&gt;Node23</title>
<g id="a_edge13_Node000012_Node000023"><a xlink:title=" ">
<path fill="none" stroke="#63b8ff" d="M398,-115.37C398,-107.25 398,-94.81 398,-84.39"/>
<polygon fill="#63b8ff" stroke="#63b8ff" points="401.5,-84.17 398,-74.17 394.5,-84.17 401.5,-84.17"/>
</a>
</g>
</g>
<!-- Node27 -->
<g id="Node000027" class="node">
<title>Node27</title>
<g id="a_Node000027"><a xlink:title=" ">
<polygon fill="#e0e0e0" stroke="#999999" points="495,-74 455,-74 455,-55 495,-55 495,-74"/>
<text text-anchor="middle" x="475" y="-62" font-family="Helvetica,sans-Serif" font-size="10.00">span</text>
</a>
</g>
</g>
<!-- Node12&#45;&gt;Node27 -->
<g id="edge15_Node000012_Node000027" class="edge">
<title>Node12&#45;&gt;Node27</title>
<g id="a_edge15_Node000012_Node000027"><a xlink:title=" ">
<path fill="none" stroke="#63b8ff" d="M409.36,-115.37C421.42,-106.21 440.7,-91.56 455.25,-80.51"/>
<polygon fill="#63b8ff" stroke="#63b8ff" points="457.75,-83 463.59,-74.17 453.51,-77.43 457.75,-83"/>
</a>
</g>
</g>
</g>
</svg>
