<?xml version="1.0" encoding="UTF-8" standalone="no"?>
<!DOCTYPE svg PUBLIC "-//W3C//DTD SVG 1.1//EN"
 "http://www.w3.org/Graphics/SVG/1.1/DTD/svg11.dtd">
<!-- Generated by graphviz version 2.43.0 (0)
 -->
<!-- Title: src/plt/stm32h5/clock.cpp Pages: 1 -->
<svg width="697pt" height="252pt"
 viewBox="0.00 0.00 697.00 252.00" xmlns="http://www.w3.org/2000/svg" xmlns:xlink="http://www.w3.org/1999/xlink">
<g id="graph0" class="graph" transform="scale(1 1) rotate(0) translate(4 248)">
<title>src/plt/stm32h5/clock.cpp</title>
<polygon fill="white" stroke="transparent" points="-4,4 -4,-248 693,-248 693,4 -4,4"/>
<!-- Node1 -->
<g id="node1" class="node">
<title>Node1</title>
<g id="a_node1"><a xlink:title=" ">
<polygon fill="#bfbfbf" stroke="black" points="303,-224.5 303,-243.5 444,-243.5 444,-224.5 303,-224.5"/>
<text text-anchor="middle" x="373.5" y="-231.5" font-family="Helvetica,sans-Serif" font-size="10.00">src/plt/stm32h5/clock.cpp</text>
</a>
</g>
</g>
<!-- Node2 -->
<g id="node2" class="node">
<title>Node2</title>
<g id="a_node2"><a xlink:title=" ">
<polygon fill="white" stroke="#bfbfbf" points="279.5,-112.5 279.5,-131.5 383.5,-131.5 383.5,-112.5 279.5,-112.5"/>
<text text-anchor="middle" x="331.5" y="-119.5" font-family="Helvetica,sans-Serif" font-size="10.00">emlabcpp/result.h</text>
</a>
</g>
</g>
<!-- Node1&#45;&gt;Node2 -->
<g id="edge1" class="edge">
<title>Node1&#45;&gt;Node2</title>
<path fill="none" stroke="midnightblue" d="M370.2,-224.37C363.37,-206.46 347.51,-164.92 338.35,-140.95"/>
<polygon fill="midnightblue" stroke="midnightblue" points="341.62,-139.69 334.78,-131.59 335.08,-142.18 341.62,-139.69"/>
</g>
<!-- Node3 -->
<g id="node3" class="node">
<title>Node3</title>
<g id="a_node3"><a xlink:href="util_8hpp.html" target="_top" xlink:title=" ">
<polygon fill="white" stroke="black" points="122.5,-168.5 122.5,-187.5 190.5,-187.5 190.5,-168.5 122.5,-168.5"/>
<text text-anchor="middle" x="156.5" y="-175.5" font-family="Helvetica,sans-Serif" font-size="10.00">fw/util.hpp</text>
</a>
</g>
</g>
<!-- Node1&#45;&gt;Node3 -->
<g id="edge2" class="edge">
<title>Node1&#45;&gt;Node3</title>
<path fill="none" stroke="midnightblue" d="M339.12,-224.44C301.58,-215.1 241.37,-200.12 200.43,-189.93"/>
<polygon fill="midnightblue" stroke="midnightblue" points="201.27,-186.53 190.72,-187.52 199.58,-193.33 201.27,-186.53"/>
</g>
<!-- Node7 -->
<g id="node7" class="node">
<title>Node7</title>
<g id="a_node7"><a xlink:href="platform_8hpp.html" target="_top" xlink:title=" ">
<polygon fill="white" stroke="black" points="296.5,-56.5 296.5,-75.5 376.5,-75.5 376.5,-56.5 296.5,-56.5"/>
<text text-anchor="middle" x="336.5" y="-63.5" font-family="Helvetica,sans-Serif" font-size="10.00">platform.hpp</text>
</a>
</g>
</g>
<!-- Node1&#45;&gt;Node7 -->
<g id="edge6" class="edge">
<title>Node1&#45;&gt;Node7</title>
<path fill="none" stroke="midnightblue" d="M359.04,-224.35C335.23,-209.17 288.63,-175.18 270.5,-132 267.06,-123.8 266.35,-119.86 270.5,-112 277.92,-97.95 291.92,-87.47 305.12,-80.17"/>
<polygon fill="midnightblue" stroke="midnightblue" points="306.72,-83.28 314.04,-75.62 303.54,-77.04 306.72,-83.28"/>
</g>
<!-- Node10 -->
<g id="node9" class="node">
<title>Node10</title>
<g id="a_node9"><a xlink:href="plt_2stm32h5_2setup_8hpp.html" target="_top" xlink:title=" ">
<polygon fill="white" stroke="black" points="396,-168.5 396,-187.5 461,-187.5 461,-168.5 396,-168.5"/>
<text text-anchor="middle" x="428.5" y="-175.5" font-family="Helvetica,sans-Serif" font-size="10.00">setup.hpp</text>
</a>
</g>
</g>
<!-- Node1&#45;&gt;Node10 -->
<g id="edge8" class="edge">
<title>Node1&#45;&gt;Node10</title>
<path fill="none" stroke="midnightblue" d="M382.58,-224.08C390.67,-216.14 402.7,-204.34 412.41,-194.8"/>
<polygon fill="midnightblue" stroke="midnightblue" points="414.9,-197.25 419.59,-187.75 410,-192.26 414.9,-197.25"/>
</g>
<!-- Node27 -->
<g id="node14" class="node">
<title>Node27</title>
<g id="a_node14"><a xlink:title=" ">
<polygon fill="white" stroke="#bfbfbf" points="479.5,-168.5 479.5,-187.5 531.5,-187.5 531.5,-168.5 479.5,-168.5"/>
<text text-anchor="middle" x="505.5" y="-175.5" font-family="Helvetica,sans-Serif" font-size="10.00">cassert</text>
</a>
</g>
</g>
<!-- Node1&#45;&gt;Node27 -->
<g id="edge16" class="edge">
<title>Node1&#45;&gt;Node27</title>
<path fill="none" stroke="midnightblue" d="M394.42,-224.44C416.24,-215.52 450.65,-201.44 475.39,-191.32"/>
<polygon fill="midnightblue" stroke="midnightblue" points="476.75,-194.54 484.68,-187.52 474.1,-188.06 476.75,-194.54"/>
</g>
<!-- Node28 -->
<g id="node15" class="node">
<title>Node28</title>
<g id="a_node15"><a xlink:title=" ">
<polygon fill="white" stroke="#bfbfbf" points="550,-168.5 550,-187.5 599,-187.5 599,-168.5 550,-168.5"/>
<text text-anchor="middle" x="574.5" y="-175.5" font-family="Helvetica,sans-Serif" font-size="10.00">cstdlib</text>
</a>
</g>
</g>
<!-- Node1&#45;&gt;Node28 -->
<g id="edge17" class="edge">
<title>Node1&#45;&gt;Node28</title>
<path fill="none" stroke="midnightblue" d="M405.35,-224.44C441.98,-214.6 501.91,-198.5 539.73,-188.34"/>
<polygon fill="midnightblue" stroke="midnightblue" points="541.02,-191.62 549.77,-185.64 539.2,-184.86 541.02,-191.62"/>
</g>
<!-- Node4 -->
<g id="node4" class="node">
<title>Node4</title>
<g id="a_node4"><a xlink:title=" ">
<polygon fill="white" stroke="#bfbfbf" points="91.5,-112.5 91.5,-131.5 155.5,-131.5 155.5,-112.5 91.5,-112.5"/>
<text text-anchor="middle" x="123.5" y="-119.5" font-family="Helvetica,sans-Serif" font-size="10.00">algorithm</text>
</a>
</g>
</g>
<!-- Node3&#45;&gt;Node4 -->
<g id="edge3" class="edge">
<title>Node3&#45;&gt;Node4</title>
<path fill="none" stroke="midnightblue" d="M151.05,-168.08C146.49,-160.61 139.83,-149.72 134.21,-140.52"/>
<polygon fill="midnightblue" stroke="midnightblue" points="137.05,-138.46 128.85,-131.75 131.08,-142.11 137.05,-138.46"/>
</g>
<!-- Node5 -->
<g id="node5" class="node">
<title>Node5</title>
<g id="a_node5"><a xlink:title=" ">
<polygon fill="white" stroke="#bfbfbf" points="173.5,-112.5 173.5,-131.5 223.5,-131.5 223.5,-112.5 173.5,-112.5"/>
<text text-anchor="middle" x="198.5" y="-119.5" font-family="Helvetica,sans-Serif" font-size="10.00">cstring</text>
</a>
</g>
</g>
<!-- Node3&#45;&gt;Node5 -->
<g id="edge4" class="edge">
<title>Node3&#45;&gt;Node5</title>
<path fill="none" stroke="midnightblue" d="M163.44,-168.08C169.43,-160.38 178.25,-149.03 185.55,-139.65"/>
<polygon fill="midnightblue" stroke="midnightblue" points="188.32,-141.79 191.69,-131.75 182.79,-137.5 188.32,-141.79"/>
</g>
<!-- Node6 -->
<g id="node6" class="node">
<title>Node6</title>
<g id="a_node6"><a xlink:title=" ">
<polygon fill="white" stroke="#bfbfbf" points="0,-112.5 0,-131.5 73,-131.5 73,-112.5 0,-112.5"/>
<text text-anchor="middle" x="36.5" y="-119.5" font-family="Helvetica,sans-Serif" font-size="10.00">string_view</text>
</a>
</g>
</g>
<!-- Node3&#45;&gt;Node6 -->
<g id="edge5" class="edge">
<title>Node3&#45;&gt;Node6</title>
<path fill="none" stroke="midnightblue" d="M137.49,-168.44C117.91,-159.64 87.19,-145.81 64.77,-135.72"/>
<polygon fill="midnightblue" stroke="midnightblue" points="65.98,-132.43 55.43,-131.52 63.11,-138.81 65.98,-132.43"/>
</g>
<!-- Node8 -->
<g id="node8" class="node">
<title>Node8</title>
<g id="a_node8"><a xlink:href="hal_8hpp.html" target="_top" xlink:title=" ">
<polygon fill="white" stroke="red" points="310,-0.5 310,-19.5 363,-19.5 363,-0.5 310,-0.5"/>
<text text-anchor="middle" x="336.5" y="-7.5" font-family="Helvetica,sans-Serif" font-size="10.00">hal.hpp</text>
</a>
</g>
</g>
<!-- Node7&#45;&gt;Node8 -->
<g id="edge7" class="edge">
<title>Node7&#45;&gt;Node8</title>
<path fill="none" stroke="midnightblue" d="M336.5,-56.08C336.5,-49.01 336.5,-38.86 336.5,-29.99"/>
<polygon fill="midnightblue" stroke="midnightblue" points="340,-29.75 336.5,-19.75 333,-29.75 340,-29.75"/>
</g>
<!-- Node10&#45;&gt;Node2 -->
<g id="edge13" class="edge">
<title>Node10&#45;&gt;Node2</title>
<path fill="none" stroke="midnightblue" d="M412.92,-168.32C397.5,-159.74 373.69,-146.49 355.79,-136.52"/>
<polygon fill="midnightblue" stroke="midnightblue" points="357.49,-133.46 347.05,-131.65 354.08,-139.58 357.49,-133.46"/>
</g>
<!-- Node11 -->
<g id="node10" class="node">
<title>Node11</title>
<g id="a_node10"><a xlink:href="map_8hpp.html" target="_top" xlink:title=" ">
<polygon fill="white" stroke="red" points="612,-112.5 612,-131.5 689,-131.5 689,-112.5 612,-112.5"/>
<text text-anchor="middle" x="650.5" y="-119.5" font-family="Helvetica,sans-Serif" font-size="10.00">cfg/map.hpp</text>
</a>
</g>
</g>
<!-- Node10&#45;&gt;Node11 -->
<g id="edge9" class="edge">
<title>Node10&#45;&gt;Node11</title>
<path fill="none" stroke="midnightblue" d="M461.26,-169.03C499.44,-159.74 562.77,-144.34 605.54,-133.94"/>
<polygon fill="midnightblue" stroke="midnightblue" points="606.52,-137.3 615.41,-131.54 604.86,-130.5 606.52,-137.3"/>
</g>
<!-- Node24 -->
<g id="node11" class="node">
<title>Node24</title>
<g id="a_node11"><a xlink:href="defs_8hpp.html" target="_top" xlink:title=" ">
<polygon fill="white" stroke="black" points="402,-112.5 402,-131.5 479,-131.5 479,-112.5 402,-112.5"/>
<text text-anchor="middle" x="440.5" y="-119.5" font-family="Helvetica,sans-Serif" font-size="10.00">drv/defs.hpp</text>
</a>
</g>
</g>
<!-- Node10&#45;&gt;Node24 -->
<g id="edge10" class="edge">
<title>Node10&#45;&gt;Node24</title>
<path fill="none" stroke="midnightblue" d="M430.48,-168.08C432.07,-160.93 434.36,-150.64 436.35,-141.69"/>
<polygon fill="midnightblue" stroke="midnightblue" points="439.8,-142.27 438.56,-131.75 432.97,-140.75 439.8,-142.27"/>
</g>
<!-- Node25 -->
<g id="node12" class="node">
<title>Node25</title>
<g id="a_node12"><a xlink:title=" ">
<polygon fill="white" stroke="#bfbfbf" points="445.5,-56.5 445.5,-75.5 501.5,-75.5 501.5,-56.5 445.5,-56.5"/>
<text text-anchor="middle" x="473.5" y="-63.5" font-family="Helvetica,sans-Serif" font-size="10.00">optional</text>
</a>
</g>
</g>
<!-- Node10&#45;&gt;Node25 -->
<g id="edge15" class="edge">
<title>Node10&#45;&gt;Node25</title>
<path fill="none" stroke="midnightblue" d="M447.8,-168.48C461.93,-161.08 480.06,-148.89 488.5,-132 495.93,-117.14 490.32,-98.53 483.96,-85.03"/>
<polygon fill="midnightblue" stroke="midnightblue" points="486.89,-83.09 479.15,-75.85 480.69,-86.34 486.89,-83.09"/>
</g>
<!-- Node26 -->
<g id="node13" class="node">
<title>Node26</title>
<g id="a_node13"><a xlink:title=" ">
<polygon fill="white" stroke="#bfbfbf" points="535.5,-112.5 535.5,-131.5 593.5,-131.5 593.5,-112.5 535.5,-112.5"/>
<text text-anchor="middle" x="564.5" y="-119.5" font-family="Helvetica,sans-Serif" font-size="10.00">memory</text>
</a>
</g>
</g>
<!-- Node10&#45;&gt;Node26 -->
<g id="edge14" class="edge">
<title>Node10&#45;&gt;Node26</title>
<path fill="none" stroke="midnightblue" d="M450.05,-168.44C472.53,-159.52 507.99,-145.44 533.48,-135.32"/>
<polygon fill="midnightblue" stroke="midnightblue" points="535.05,-138.46 543.05,-131.52 532.47,-131.95 535.05,-138.46"/>
</g>
<!-- Node24&#45;&gt;Node7 -->
<g id="edge11" class="edge">
<title>Node24&#45;&gt;Node7</title>
<path fill="none" stroke="midnightblue" d="M423.79,-112.32C407.19,-103.7 381.5,-90.36 362.28,-80.39"/>
<polygon fill="midnightblue" stroke="midnightblue" points="363.66,-77.16 353.17,-75.65 360.43,-83.37 363.66,-77.16"/>
</g>
<!-- Node24&#45;&gt;Node25 -->
<g id="edge12" class="edge">
<title>Node24&#45;&gt;Node25</title>
<path fill="none" stroke="midnightblue" d="M445.95,-112.08C450.51,-104.61 457.17,-93.72 462.79,-84.52"/>
<polygon fill="midnightblue" stroke="midnightblue" points="465.92,-86.11 468.15,-75.75 459.95,-82.46 465.92,-86.11"/>
</g>
</g>
</svg>
