<?xml version="1.0" encoding="UTF-8" standalone="no"?>
<!DOCTYPE svg PUBLIC "-//W3C//DTD SVG 1.1//EN"
 "http://www.w3.org/Graphics/SVG/1.1/DTD/svg11.dtd">
<!-- Generated by graphviz version 2.43.0 (0)
 -->
<!-- Title: src/fw/drv/clock.hpp Pages: 1 -->
<svg width="673pt" height="207pt"
 viewBox="0.00 0.00 672.50 207.00" xmlns="http://www.w3.org/2000/svg" xmlns:xlink="http://www.w3.org/1999/xlink">
<g id="graph0" class="graph" transform="scale(1 1) rotate(0) translate(4 203)">
<title>src/fw/drv/clock.hpp</title>
<polygon fill="white" stroke="transparent" points="-4,4 -4,-203 668.5,-203 668.5,4 -4,4"/>
<!-- Node1 -->
<g id="node1" class="node">
<title>Node1</title>
<g id="a_node1"><a xlink:title=" ">
<polygon fill="#bfbfbf" stroke="black" points="360.5,-179.5 360.5,-198.5 473.5,-198.5 473.5,-179.5 360.5,-179.5"/>
<text text-anchor="middle" x="417" y="-186.5" font-family="Helvetica,sans-Serif" font-size="10.00">src/fw/drv/clock.hpp</text>
</a>
</g>
</g>
<!-- Node2 -->
<g id="node2" class="node">
<title>Node2</title>
<g id="a_node2"><a xlink:href="base_8hpp.html" target="_top" xlink:title=" ">
<polygon fill="white" stroke="black" points="209.5,-56.5 209.5,-75.5 270.5,-75.5 270.5,-56.5 209.5,-56.5"/>
<text text-anchor="middle" x="240" y="-63.5" font-family="Helvetica,sans-Serif" font-size="10.00">base.hpp</text>
</a>
</g>
</g>
<!-- Node1&#45;&gt;Node2 -->
<g id="edge1" class="edge">
<title>Node1&#45;&gt;Node2</title>
<path fill="none" stroke="midnightblue" d="M379.86,-179.46C355.23,-172.51 323.14,-160.88 299,-143 277.68,-127.21 260.1,-101.76 249.83,-84.71"/>
<polygon fill="midnightblue" stroke="midnightblue" points="252.7,-82.68 244.66,-75.78 246.64,-86.19 252.7,-82.68"/>
</g>
<!-- Node7 -->
<g id="node7" class="node">
<title>Node7</title>
<g id="a_node7"><a xlink:href="drv__interfaces_8hpp.html" target="_top" xlink:title=" ">
<polygon fill="white" stroke="black" points="307.5,-118 307.5,-137 414.5,-137 414.5,-118 307.5,-118"/>
<text text-anchor="middle" x="361" y="-125" font-family="Helvetica,sans-Serif" font-size="10.00">drv_interfaces.hpp</text>
</a>
</g>
</g>
<!-- Node1&#45;&gt;Node7 -->
<g id="edge6" class="edge">
<title>Node1&#45;&gt;Node7</title>
<path fill="none" stroke="midnightblue" d="M408.98,-179.48C400.41,-170.37 386.64,-155.74 376.04,-144.48"/>
<polygon fill="midnightblue" stroke="midnightblue" points="378.41,-141.89 369.01,-137.01 373.31,-146.69 378.41,-141.89"/>
</g>
<!-- Node11 -->
<g id="node11" class="node">
<title>Node11</title>
<g id="a_node11"><a xlink:href="platform_8hpp.html" target="_top" xlink:title=" ">
<polygon fill="white" stroke="black" points="433,-118 433,-137 513,-137 513,-118 433,-118"/>
<text text-anchor="middle" x="473" y="-125" font-family="Helvetica,sans-Serif" font-size="10.00">platform.hpp</text>
</a>
</g>
</g>
<!-- Node1&#45;&gt;Node11 -->
<g id="edge12" class="edge">
<title>Node1&#45;&gt;Node11</title>
<path fill="none" stroke="midnightblue" d="M425.02,-179.48C433.59,-170.37 447.36,-155.74 457.96,-144.48"/>
<polygon fill="midnightblue" stroke="midnightblue" points="460.69,-146.69 464.99,-137.01 455.59,-141.89 460.69,-146.69"/>
</g>
<!-- Node13 -->
<g id="node13" class="node">
<title>Node13</title>
<g id="a_node13"><a xlink:title=" ">
<polygon fill="white" stroke="#bfbfbf" points="531.5,-112.5 531.5,-142.5 664.5,-142.5 664.5,-112.5 531.5,-112.5"/>
<text text-anchor="start" x="539.5" y="-130.5" font-family="Helvetica,sans-Serif" font-size="10.00">emlabcpp/experimental</text>
<text text-anchor="middle" x="598" y="-119.5" font-family="Helvetica,sans-Serif" font-size="10.00">/function_view.h</text>
</a>
</g>
</g>
<!-- Node1&#45;&gt;Node13 -->
<g id="edge14" class="edge">
<title>Node1&#45;&gt;Node13</title>
<path fill="none" stroke="midnightblue" d="M442.93,-179.48C469.62,-170.7 511.95,-156.79 545.64,-145.71"/>
<polygon fill="midnightblue" stroke="midnightblue" points="546.94,-148.97 555.34,-142.52 544.75,-142.32 546.94,-148.97"/>
</g>
<!-- Node3 -->
<g id="node3" class="node">
<title>Node3</title>
<g id="a_node3"><a xlink:title=" ">
<polygon fill="white" stroke="#bfbfbf" points="0,-0.5 0,-19.5 50,-19.5 50,-0.5 0,-0.5"/>
<text text-anchor="middle" x="25" y="-7.5" font-family="Helvetica,sans-Serif" font-size="10.00">chrono</text>
</a>
</g>
</g>
<!-- Node2&#45;&gt;Node3 -->
<g id="edge2" class="edge">
<title>Node2&#45;&gt;Node3</title>
<path fill="none" stroke="midnightblue" d="M209.22,-57.5C175.08,-49.14 118.11,-35.1 59.96,-20.22"/>
<polygon fill="midnightblue" stroke="midnightblue" points="60.8,-16.82 50.24,-17.73 59.06,-23.6 60.8,-16.82"/>
</g>
<!-- Node4 -->
<g id="node4" class="node">
<title>Node4</title>
<g id="a_node4"><a xlink:title=" ">
<polygon fill="white" stroke="#bfbfbf" points="288,-0.5 288,-19.5 338,-19.5 338,-0.5 288,-0.5"/>
<text text-anchor="middle" x="313" y="-7.5" font-family="Helvetica,sans-Serif" font-size="10.00">cstdint</text>
</a>
</g>
</g>
<!-- Node2&#45;&gt;Node4 -->
<g id="edge3" class="edge">
<title>Node2&#45;&gt;Node4</title>
<path fill="none" stroke="midnightblue" d="M251.73,-56.32C262.84,-48.11 279.74,-35.6 292.98,-25.81"/>
<polygon fill="midnightblue" stroke="midnightblue" points="295.1,-28.59 301.06,-19.83 290.94,-22.97 295.1,-28.59"/>
</g>
<!-- Node5 -->
<g id="node5" class="node">
<title>Node5</title>
<g id="a_node5"><a xlink:title=" ">
<polygon fill="white" stroke="#bfbfbf" points="68,-0.5 68,-19.5 192,-19.5 192,-0.5 68,-0.5"/>
<text text-anchor="middle" x="130" y="-7.5" font-family="Helvetica,sans-Serif" font-size="10.00">emlabcpp/algorithm.h</text>
</a>
</g>
</g>
<!-- Node2&#45;&gt;Node5 -->
<g id="edge4" class="edge">
<title>Node2&#45;&gt;Node5</title>
<path fill="none" stroke="midnightblue" d="M222.33,-56.32C204.61,-47.62 177.1,-34.12 156.71,-24.11"/>
<polygon fill="midnightblue" stroke="midnightblue" points="158.15,-20.92 147.63,-19.65 155.06,-27.2 158.15,-20.92"/>
</g>
<!-- Node6 -->
<g id="node6" class="node">
<title>Node6</title>
<g id="a_node6"><a xlink:title=" ">
<polygon fill="white" stroke="#bfbfbf" points="210.5,-0.5 210.5,-19.5 269.5,-19.5 269.5,-0.5 210.5,-0.5"/>
<text text-anchor="middle" x="240" y="-7.5" font-family="Helvetica,sans-Serif" font-size="10.00">numbers</text>
</a>
</g>
</g>
<!-- Node2&#45;&gt;Node6 -->
<g id="edge5" class="edge">
<title>Node2&#45;&gt;Node6</title>
<path fill="none" stroke="midnightblue" d="M240,-56.08C240,-49.01 240,-38.86 240,-29.99"/>
<polygon fill="midnightblue" stroke="midnightblue" points="243.5,-29.75 240,-19.75 236.5,-29.75 243.5,-29.75"/>
</g>
<!-- Node7&#45;&gt;Node2 -->
<g id="edge7" class="edge">
<title>Node7&#45;&gt;Node2</title>
<path fill="none" stroke="midnightblue" d="M343.66,-117.98C323.45,-108.03 289.81,-91.49 266.36,-79.96"/>
<polygon fill="midnightblue" stroke="midnightblue" points="267.82,-76.78 257.3,-75.51 264.73,-83.06 267.82,-76.78"/>
</g>
<!-- Node7&#45;&gt;Node4 -->
<g id="edge9" class="edge">
<title>Node7&#45;&gt;Node4</title>
<path fill="none" stroke="midnightblue" d="M350.36,-117.71C340.06,-108.5 325.02,-93.03 318,-76 311.99,-61.43 311.04,-43.49 311.42,-30.14"/>
<polygon fill="midnightblue" stroke="midnightblue" points="314.94,-29.99 312.01,-19.8 307.95,-29.59 314.94,-29.99"/>
</g>
<!-- Node8 -->
<g id="node8" class="node">
<title>Node8</title>
<g id="a_node8"><a xlink:href="status_8hpp.html" target="_top" xlink:title=" ">
<polygon fill="white" stroke="black" points="327,-56.5 327,-75.5 395,-75.5 395,-56.5 327,-56.5"/>
<text text-anchor="middle" x="361" y="-63.5" font-family="Helvetica,sans-Serif" font-size="10.00">status.hpp</text>
</a>
</g>
</g>
<!-- Node7&#45;&gt;Node8 -->
<g id="edge8" class="edge">
<title>Node7&#45;&gt;Node8</title>
<path fill="none" stroke="midnightblue" d="M361,-117.98C361,-109.58 361,-96.48 361,-85.66"/>
<polygon fill="midnightblue" stroke="midnightblue" points="364.5,-85.51 361,-75.51 357.5,-85.51 364.5,-85.51"/>
</g>
<!-- Node9 -->
<g id="node9" class="node">
<title>Node9</title>
<g id="a_node9"><a xlink:title=" ">
<polygon fill="white" stroke="#bfbfbf" points="413,-56.5 413,-75.5 517,-75.5 517,-56.5 413,-56.5"/>
<text text-anchor="middle" x="465" y="-63.5" font-family="Helvetica,sans-Serif" font-size="10.00">emlabcpp/result.h</text>
</a>
</g>
</g>
<!-- Node7&#45;&gt;Node9 -->
<g id="edge10" class="edge">
<title>Node7&#45;&gt;Node9</title>
<path fill="none" stroke="midnightblue" d="M375.9,-117.98C392.97,-108.21 421.16,-92.08 441.26,-80.58"/>
<polygon fill="midnightblue" stroke="midnightblue" points="443.19,-83.51 450.13,-75.51 439.71,-77.44 443.19,-83.51"/>
</g>
<!-- Node10 -->
<g id="node10" class="node">
<title>Node10</title>
<g id="a_node10"><a xlink:title=" ">
<polygon fill="white" stroke="#bfbfbf" points="535,-56.5 535,-75.5 575,-75.5 575,-56.5 535,-56.5"/>
<text text-anchor="middle" x="555" y="-63.5" font-family="Helvetica,sans-Serif" font-size="10.00">span</text>
</a>
</g>
</g>
<!-- Node7&#45;&gt;Node10 -->
<g id="edge11" class="edge">
<title>Node7&#45;&gt;Node10</title>
<path fill="none" stroke="midnightblue" d="M389.04,-117.96C420.01,-108.51 471.63,-92.74 525.08,-76.28"/>
<polygon fill="midnightblue" stroke="midnightblue" points="526.2,-79.59 534.72,-73.3 524.13,-72.9 526.2,-79.59"/>
</g>
<!-- Node12 -->
<g id="node12" class="node">
<title>Node12</title>
<g id="a_node12"><a xlink:title=" ">
<polygon fill="white" stroke="#bfbfbf" points="593.5,-56.5 593.5,-75.5 646.5,-75.5 646.5,-56.5 593.5,-56.5"/>
<text text-anchor="middle" x="620" y="-63.5" font-family="Helvetica,sans-Serif" font-size="10.00">hal.hpp</text>
</a>
</g>
</g>
<!-- Node11&#45;&gt;Node12 -->
<g id="edge13" class="edge">
<title>Node11&#45;&gt;Node12</title>
<path fill="none" stroke="midnightblue" d="M494.06,-117.98C519.06,-107.86 560.94,-90.9 589.49,-79.35"/>
<polygon fill="midnightblue" stroke="midnightblue" points="591.02,-82.51 598.98,-75.51 588.39,-76.02 591.02,-82.51"/>
</g>
</g>
</svg>
