<?xml version="1.0" encoding="UTF-8" standalone="no"?>
<!DOCTYPE svg PUBLIC "-//W3C//DTD SVG 1.1//EN"
 "http://www.w3.org/Graphics/SVG/1.1/DTD/svg11.dtd">
<!-- Generated by graphviz version 2.43.0 (0)
 -->
<!-- Title: src/drv/clock.hpp Pages: 1 -->
<svg width="842pt" height="263pt"
 viewBox="0.00 0.00 841.50 263.00" xmlns="http://www.w3.org/2000/svg" xmlns:xlink="http://www.w3.org/1999/xlink">
<g id="graph0" class="graph" transform="scale(1 1) rotate(0) translate(4 259)">
<title>src/drv/clock.hpp</title>
<polygon fill="white" stroke="transparent" points="-4,4 -4,-259 837.5,-259 837.5,4 -4,4"/>
<!-- Node1 -->
<g id="node1" class="node">
<title>Node1</title>
<g id="a_node1"><a xlink:title=" ">
<polygon fill="#bfbfbf" stroke="black" points="483.5,-235.5 483.5,-254.5 582.5,-254.5 582.5,-235.5 483.5,-235.5"/>
<text text-anchor="middle" x="533" y="-242.5" font-family="Helvetica,sans-Serif" font-size="10.00">src/drv/clock.hpp</text>
</a>
</g>
</g>
<!-- Node2 -->
<g id="node2" class="node">
<title>Node2</title>
<g id="a_node2"><a xlink:href="base_2base_8hpp.html" target="_top" xlink:title=" ">
<polygon fill="white" stroke="black" points="237.5,-56.5 237.5,-75.5 324.5,-75.5 324.5,-56.5 237.5,-56.5"/>
<text text-anchor="middle" x="281" y="-63.5" font-family="Helvetica,sans-Serif" font-size="10.00">base/base.hpp</text>
</a>
</g>
</g>
<!-- Node1&#45;&gt;Node2 -->
<g id="edge1" class="edge">
<title>Node1&#45;&gt;Node2</title>
<path fill="none" stroke="midnightblue" d="M488.09,-235.4C434.19,-222.61 345.2,-193.2 298,-132 287.77,-118.74 283.67,-99.9 282.04,-85.91"/>
<polygon fill="midnightblue" stroke="midnightblue" points="285.52,-85.61 281.19,-75.94 278.55,-86.2 285.52,-85.61"/>
</g>
<!-- Node8 -->
<g id="node8" class="node">
<title>Node8</title>
<g id="a_node8"><a xlink:href="interfaces_8hpp.html" target="_top" xlink:title=" ">
<polygon fill="white" stroke="black" points="425.5,-174 425.5,-193 530.5,-193 530.5,-174 425.5,-174"/>
<text text-anchor="middle" x="478" y="-181" font-family="Helvetica,sans-Serif" font-size="10.00">drv/interfaces.hpp</text>
</a>
</g>
</g>
<!-- Node1&#45;&gt;Node8 -->
<g id="edge7" class="edge">
<title>Node1&#45;&gt;Node8</title>
<path fill="none" stroke="midnightblue" d="M525.12,-235.48C516.71,-226.37 503.18,-211.74 492.77,-200.48"/>
<polygon fill="midnightblue" stroke="midnightblue" points="495.22,-197.98 485.87,-193.01 490.08,-202.73 495.22,-197.98"/>
</g>
<!-- Node19 -->
<g id="node13" class="node">
<title>Node19</title>
<g id="a_node13"><a xlink:href="platform_8hpp.html" target="_top" xlink:title=" ">
<polygon fill="white" stroke="black" points="549,-174 549,-193 629,-193 629,-174 549,-174"/>
<text text-anchor="middle" x="589" y="-181" font-family="Helvetica,sans-Serif" font-size="10.00">platform.hpp</text>
</a>
</g>
</g>
<!-- Node1&#45;&gt;Node19 -->
<g id="edge15" class="edge">
<title>Node1&#45;&gt;Node19</title>
<path fill="none" stroke="midnightblue" d="M541.02,-235.48C549.59,-226.37 563.36,-211.74 573.96,-200.48"/>
<polygon fill="midnightblue" stroke="midnightblue" points="576.69,-202.69 580.99,-193.01 571.59,-197.89 576.69,-202.69"/>
</g>
<!-- Node22 -->
<g id="node15" class="node">
<title>Node22</title>
<g id="a_node15"><a xlink:title=" ">
<polygon fill="white" stroke="#bfbfbf" points="647.5,-168.5 647.5,-198.5 780.5,-198.5 780.5,-168.5 647.5,-168.5"/>
<text text-anchor="start" x="655.5" y="-186.5" font-family="Helvetica,sans-Serif" font-size="10.00">emlabcpp/experimental</text>
<text text-anchor="middle" x="714" y="-175.5" font-family="Helvetica,sans-Serif" font-size="10.00">/function_view.h</text>
</a>
</g>
</g>
<!-- Node1&#45;&gt;Node22 -->
<g id="edge17" class="edge">
<title>Node1&#45;&gt;Node22</title>
<path fill="none" stroke="midnightblue" d="M558.93,-235.48C585.62,-226.7 627.95,-212.79 661.64,-201.71"/>
<polygon fill="midnightblue" stroke="midnightblue" points="662.94,-204.97 671.34,-198.52 660.75,-198.32 662.94,-204.97"/>
</g>
<!-- Node3 -->
<g id="node3" class="node">
<title>Node3</title>
<g id="a_node3"><a xlink:title=" ">
<polygon fill="white" stroke="#bfbfbf" points="0,-0.5 0,-19.5 50,-19.5 50,-0.5 0,-0.5"/>
<text text-anchor="middle" x="25" y="-7.5" font-family="Helvetica,sans-Serif" font-size="10.00">chrono</text>
</a>
</g>
</g>
<!-- Node2&#45;&gt;Node3 -->
<g id="edge2" class="edge">
<title>Node2&#45;&gt;Node3</title>
<path fill="none" stroke="midnightblue" d="M237.45,-56.96C194.67,-48.88 127.34,-35.7 60.12,-20.16"/>
<polygon fill="midnightblue" stroke="midnightblue" points="60.74,-16.71 50.21,-17.85 59.15,-23.53 60.74,-16.71"/>
</g>
<!-- Node4 -->
<g id="node4" class="node">
<title>Node4</title>
<g id="a_node4"><a xlink:title=" ">
<polygon fill="white" stroke="#bfbfbf" points="422,-0.5 422,-19.5 472,-19.5 472,-0.5 422,-0.5"/>
<text text-anchor="middle" x="447" y="-7.5" font-family="Helvetica,sans-Serif" font-size="10.00">cstdint</text>
</a>
</g>
</g>
<!-- Node2&#45;&gt;Node4 -->
<g id="edge3" class="edge">
<title>Node2&#45;&gt;Node4</title>
<path fill="none" stroke="midnightblue" d="M307.3,-56.44C335.68,-47.21 381,-32.47 412.28,-22.29"/>
<polygon fill="midnightblue" stroke="midnightblue" points="413.48,-25.58 421.91,-19.16 411.31,-18.93 413.48,-25.58"/>
</g>
<!-- Node5 -->
<g id="node5" class="node">
<title>Node5</title>
<g id="a_node5"><a xlink:title=" ">
<polygon fill="white" stroke="#bfbfbf" points="68,-0.5 68,-19.5 192,-19.5 192,-0.5 68,-0.5"/>
<text text-anchor="middle" x="130" y="-7.5" font-family="Helvetica,sans-Serif" font-size="10.00">emlabcpp/algorithm.h</text>
</a>
</g>
</g>
<!-- Node2&#45;&gt;Node5 -->
<g id="edge4" class="edge">
<title>Node2&#45;&gt;Node5</title>
<path fill="none" stroke="midnightblue" d="M257.07,-56.44C231.78,-47.4 191.7,-33.06 163.32,-22.92"/>
<polygon fill="midnightblue" stroke="midnightblue" points="164.41,-19.59 153.81,-19.52 162.05,-26.18 164.41,-19.59"/>
</g>
<!-- Node6 -->
<g id="node6" class="node">
<title>Node6</title>
<g id="a_node6"><a xlink:title=" ">
<polygon fill="white" stroke="#bfbfbf" points="210,-0.5 210,-19.5 326,-19.5 326,-0.5 210,-0.5"/>
<text text-anchor="middle" x="268" y="-7.5" font-family="Helvetica,sans-Serif" font-size="10.00">emlabcpp/quantity.h</text>
</a>
</g>
</g>
<!-- Node2&#45;&gt;Node6 -->
<g id="edge5" class="edge">
<title>Node2&#45;&gt;Node6</title>
<path fill="none" stroke="midnightblue" d="M278.85,-56.08C277.13,-48.93 274.65,-38.64 272.5,-29.69"/>
<polygon fill="midnightblue" stroke="midnightblue" points="275.85,-28.65 270.11,-19.75 269.04,-30.29 275.85,-28.65"/>
</g>
<!-- Node7 -->
<g id="node7" class="node">
<title>Node7</title>
<g id="a_node7"><a xlink:title=" ">
<polygon fill="white" stroke="#bfbfbf" points="344.5,-0.5 344.5,-19.5 403.5,-19.5 403.5,-0.5 344.5,-0.5"/>
<text text-anchor="middle" x="374" y="-7.5" font-family="Helvetica,sans-Serif" font-size="10.00">numbers</text>
</a>
</g>
</g>
<!-- Node2&#45;&gt;Node7 -->
<g id="edge6" class="edge">
<title>Node2&#45;&gt;Node7</title>
<path fill="none" stroke="midnightblue" d="M295.94,-56.32C310.59,-47.82 333.13,-34.73 350.24,-24.8"/>
<polygon fill="midnightblue" stroke="midnightblue" points="352.2,-27.7 359.1,-19.65 348.69,-21.65 352.2,-27.7"/>
</g>
<!-- Node8&#45;&gt;Node2 -->
<g id="edge8" class="edge">
<title>Node8&#45;&gt;Node2</title>
<path fill="none" stroke="midnightblue" d="M425.48,-175.69C392.08,-169.13 349.53,-156.42 319,-132 303.72,-119.78 293.32,-99.63 287.31,-85"/>
<polygon fill="midnightblue" stroke="midnightblue" points="290.53,-83.62 283.71,-75.52 283.99,-86.11 290.53,-83.62"/>
</g>
<!-- Node8&#45;&gt;Node4 -->
<g id="edge11" class="edge">
<title>Node8&#45;&gt;Node4</title>
<path fill="none" stroke="midnightblue" d="M472.67,-173.95C466.9,-164.21 458,-147.61 454,-132 444.98,-96.79 444.95,-54.01 445.88,-29.9"/>
<polygon fill="midnightblue" stroke="midnightblue" points="449.38,-29.84 446.38,-19.68 442.39,-29.5 449.38,-29.84"/>
</g>
<!-- Node9 -->
<g id="node9" class="node">
<title>Node9</title>
<g id="a_node9"><a xlink:href="map_8hpp.html" target="_top" xlink:title=" ">
<polygon fill="white" stroke="red" points="328.5,-112.5 328.5,-131.5 405.5,-131.5 405.5,-112.5 328.5,-112.5"/>
<text text-anchor="middle" x="367" y="-119.5" font-family="Helvetica,sans-Serif" font-size="10.00">cfg/map.hpp</text>
</a>
</g>
</g>
<!-- Node8&#45;&gt;Node9 -->
<g id="edge9" class="edge">
<title>Node8&#45;&gt;Node9</title>
<path fill="none" stroke="midnightblue" d="M462.1,-173.98C443.72,-164.12 413.24,-147.79 391.76,-136.27"/>
<polygon fill="midnightblue" stroke="midnightblue" points="393.34,-133.15 382.87,-131.51 390.03,-139.32 393.34,-133.15"/>
</g>
<!-- Node16 -->
<g id="node10" class="node">
<title>Node16</title>
<g id="a_node10"><a xlink:title=" ">
<polygon fill="white" stroke="#bfbfbf" points="462.5,-112.5 462.5,-131.5 581.5,-131.5 581.5,-112.5 462.5,-112.5"/>
<text text-anchor="middle" x="522" y="-119.5" font-family="Helvetica,sans-Serif" font-size="10.00">emlabcpp/outcome.h</text>
</a>
</g>
</g>
<!-- Node8&#45;&gt;Node16 -->
<g id="edge12" class="edge">
<title>Node8&#45;&gt;Node16</title>
<path fill="none" stroke="midnightblue" d="M484.3,-173.98C490.9,-165.05 501.44,-150.81 509.69,-139.64"/>
<polygon fill="midnightblue" stroke="midnightblue" points="512.58,-141.63 515.71,-131.51 506.95,-137.47 512.58,-141.63"/>
</g>
<!-- Node17 -->
<g id="node11" class="node">
<title>Node17</title>
<g id="a_node11"><a xlink:title=" ">
<polygon fill="white" stroke="#bfbfbf" points="600,-112.5 600,-131.5 704,-131.5 704,-112.5 600,-112.5"/>
<text text-anchor="middle" x="652" y="-119.5" font-family="Helvetica,sans-Serif" font-size="10.00">emlabcpp/result.h</text>
</a>
</g>
</g>
<!-- Node8&#45;&gt;Node17 -->
<g id="edge13" class="edge">
<title>Node8&#45;&gt;Node17</title>
<path fill="none" stroke="midnightblue" d="M502.93,-173.98C533.04,-163.68 583.83,-146.31 617.64,-134.75"/>
<polygon fill="midnightblue" stroke="midnightblue" points="618.79,-138.06 627.12,-131.51 616.52,-131.43 618.79,-138.06"/>
</g>
<!-- Node18 -->
<g id="node12" class="node">
<title>Node18</title>
<g id="a_node12"><a xlink:title=" ">
<polygon fill="white" stroke="#bfbfbf" points="722,-112.5 722,-131.5 762,-131.5 762,-112.5 722,-112.5"/>
<text text-anchor="middle" x="742" y="-119.5" font-family="Helvetica,sans-Serif" font-size="10.00">span</text>
</a>
</g>
</g>
<!-- Node8&#45;&gt;Node18 -->
<g id="edge14" class="edge">
<title>Node8&#45;&gt;Node18</title>
<path fill="none" stroke="midnightblue" d="M513.7,-173.99C522.3,-171.99 531.47,-169.88 540,-168 613.54,-151.75 635.21,-151.64 711.67,-132.15"/>
<polygon fill="midnightblue" stroke="midnightblue" points="712.98,-135.43 721.79,-129.54 711.23,-128.65 712.98,-135.43"/>
</g>
<!-- Node9&#45;&gt;Node2 -->
<g id="edge10" class="edge">
<title>Node9&#45;&gt;Node2</title>
<path fill="none" stroke="midnightblue" d="M353.18,-112.32C339.77,-103.9 319.18,-90.97 303.41,-81.07"/>
<polygon fill="midnightblue" stroke="midnightblue" points="305.11,-78.01 294.78,-75.65 301.39,-83.94 305.11,-78.01"/>
</g>
<!-- Node20 -->
<g id="node14" class="node">
<title>Node20</title>
<g id="a_node14"><a xlink:href="hal_8hpp.html" target="_top" xlink:title=" ">
<polygon fill="white" stroke="red" points="780.5,-112.5 780.5,-131.5 833.5,-131.5 833.5,-112.5 780.5,-112.5"/>
<text text-anchor="middle" x="807" y="-119.5" font-family="Helvetica,sans-Serif" font-size="10.00">hal.hpp</text>
</a>
</g>
</g>
<!-- Node19&#45;&gt;Node20 -->
<g id="edge16" class="edge">
<title>Node19&#45;&gt;Node20</title>
<path fill="none" stroke="midnightblue" d="M618.05,-173.96C624.92,-171.98 632.21,-169.89 639,-168 684.2,-155.39 736.44,-141.51 770.51,-132.54"/>
<polygon fill="midnightblue" stroke="midnightblue" points="771.69,-135.85 780.48,-129.92 769.91,-129.08 771.69,-135.85"/>
</g>
</g>
</svg>
