<?xml version="1.0" encoding="UTF-8" standalone="no"?>
<!DOCTYPE svg PUBLIC "-//W3C//DTD SVG 1.1//EN"
 "http://www.w3.org/Graphics/SVG/1.1/DTD/svg11.dtd">
<!-- Generated by graphviz version 2.43.0 (0)
 -->
<!-- Title: src/drv/clock.hpp Pages: 1 -->
<svg width="773pt" height="258pt"
 viewBox="0.00 0.00 773.00 258.00" xmlns="http://www.w3.org/2000/svg" xmlns:xlink="http://www.w3.org/1999/xlink">
<g id="graph0" class="graph" transform="scale(1 1) rotate(0) translate(4 254)">
<title>src/drv/clock.hpp</title>
<!-- Node1 -->
<g id="Node000001" class="node">
<title>Node1</title>
<g id="a_Node000001"><a xlink:title=" ">
<polygon fill="#999999" stroke="#666666" points="400.5,-250 301.5,-250 301.5,-231 400.5,-231 400.5,-250"/>
<text text-anchor="middle" x="351" y="-238" font-family="Helvetica,sans-Serif" font-size="10.00">src/drv/clock.hpp</text>
</a>
</g>
</g>
<!-- Node2 -->
<g id="Node000002" class="node">
<title>Node2</title>
<g id="a_Node000002"><a xlink:href="base_8hpp.html" target="_top" xlink:title=" ">
<polygon fill="white" stroke="#666666" points="312,-74 242,-74 242,-55 312,-55 312,-74"/>
<text text-anchor="middle" x="277" y="-62" font-family="Helvetica,sans-Serif" font-size="10.00">../base.hpp</text>
</a>
</g>
</g>
<!-- Node1&#45;&gt;Node2 -->
<g id="edge1_Node000001_Node000002" class="edge">
<title>Node1&#45;&gt;Node2</title>
<g id="a_edge1_Node000001_Node000002"><a xlink:title=" ">
<path fill="none" stroke="#63b8ff" d="M302.61,-230.93C278.79,-224.54 251.16,-213.58 232,-195 209.25,-172.93 211.11,-160.1 205,-129 203.37,-120.71 200.89,-117.38 205,-110 213.04,-95.58 227.9,-85.24 242.04,-78.18"/>
<polygon fill="#63b8ff" stroke="#63b8ff" points="243.51,-81.36 251.15,-74.01 240.6,-74.99 243.51,-81.36"/>
</a>
</g>
</g>
<!-- Node8 -->
<g id="Node000008" class="node">
<title>Node8</title>
<g id="a_Node000008"><a xlink:href="platform_8hpp.html" target="_top" xlink:title=" ">
<polygon fill="white" stroke="#666666" points="345,-189.5 241,-189.5 241,-170.5 345,-170.5 345,-189.5"/>
<text text-anchor="middle" x="293" y="-177.5" font-family="Helvetica,sans-Serif" font-size="10.00">../plt/platform.hpp</text>
</a>
</g>
</g>
<!-- Node1&#45;&gt;Node8 -->
<g id="edge7_Node000001_Node000008" class="edge">
<title>Node1&#45;&gt;Node8</title>
<g id="a_edge7_Node000001_Node000008"><a xlink:title=" ">
<path fill="none" stroke="#63b8ff" d="M342.44,-230.87C333.62,-221.97 319.66,-207.89 308.82,-196.95"/>
<polygon fill="#63b8ff" stroke="#63b8ff" points="311.12,-194.3 301.59,-189.67 306.15,-199.23 311.12,-194.3"/>
</a>
</g>
</g>
<!-- Node11 -->
<g id="Node000011" class="node">
<title>Node11</title>
<g id="a_Node000011"><a xlink:href="interfaces_8hpp.html" target="_top" xlink:title=" ">
<polygon fill="white" stroke="#666666" points="469,-189.5 377,-189.5 377,-170.5 469,-170.5 469,-189.5"/>
<text text-anchor="middle" x="423" y="-177.5" font-family="Helvetica,sans-Serif" font-size="10.00">./interfaces.hpp</text>
</a>
</g>
</g>
<!-- Node1&#45;&gt;Node11 -->
<g id="edge9_Node000001_Node000011" class="edge">
<title>Node1&#45;&gt;Node11</title>
<g id="a_edge9_Node000001_Node000011"><a xlink:title=" ">
<path fill="none" stroke="#63b8ff" d="M361.62,-230.87C372.9,-221.71 390.92,-207.06 404.53,-196.01"/>
<polygon fill="#63b8ff" stroke="#63b8ff" points="406.78,-198.69 412.33,-189.67 402.36,-193.26 406.78,-198.69"/>
</a>
</g>
</g>
<!-- Node22 -->
<g id="Node000022" class="node">
<title>Node22</title>
<g id="a_Node000022"><a xlink:title=" ">
<polygon fill="#e0e0e0" stroke="#999999" points="620.5,-195 487.5,-195 487.5,-165 620.5,-165 620.5,-195"/>
<text text-anchor="start" x="495.5" y="-183" font-family="Helvetica,sans-Serif" font-size="10.00">emlabcpp/experimental</text>
<text text-anchor="middle" x="554" y="-172" font-family="Helvetica,sans-Serif" font-size="10.00">/function_view.h</text>
</a>
</g>
</g>
<!-- Node1&#45;&gt;Node22 -->
<g id="edge17_Node000001_Node000022" class="edge">
<title>Node1&#45;&gt;Node22</title>
<g id="a_edge17_Node000001_Node000022"><a xlink:title=" ">
<path fill="none" stroke="#63b8ff" d="M380.52,-230.99C410.5,-222.35 457.74,-208.74 495.36,-197.9"/>
<polygon fill="#63b8ff" stroke="#63b8ff" points="496.56,-201.2 505.2,-195.06 494.62,-194.47 496.56,-201.2"/>
</a>
</g>
</g>
<!-- Node3 -->
<g id="Node000003" class="node">
<title>Node3</title>
<g id="a_Node000003"><a xlink:title=" ">
<polygon fill="#e0e0e0" stroke="#999999" points="50,-19 0,-19 0,0 50,0 50,-19"/>
<text text-anchor="middle" x="25" y="-7" font-family="Helvetica,sans-Serif" font-size="10.00">chrono</text>
</a>
</g>
</g>
<!-- Node2&#45;&gt;Node3 -->
<g id="edge2_Node000002_Node000003" class="edge">
<title>Node2&#45;&gt;Node3</title>
<g id="a_edge2_Node000002_Node000003"><a xlink:title=" ">
<path fill="none" stroke="#63b8ff" d="M241.78,-56.8C200.54,-48.85 129.93,-34.9 60.07,-19.17"/>
<polygon fill="#63b8ff" stroke="#63b8ff" points="60.75,-15.73 50.22,-16.94 59.2,-22.56 60.75,-15.73"/>
</a>
</g>
</g>
<!-- Node4 -->
<g id="Node000004" class="node">
<title>Node4</title>
<g id="a_Node000004"><a xlink:title=" ">
<polygon fill="#e0e0e0" stroke="#999999" points="472,-19 422,-19 422,0 472,0 472,-19"/>
<text text-anchor="middle" x="447" y="-7" font-family="Helvetica,sans-Serif" font-size="10.00">cstdint</text>
</a>
</g>
</g>
<!-- Node2&#45;&gt;Node4 -->
<g id="edge3_Node000002_Node000004" class="edge">
<title>Node2&#45;&gt;Node4</title>
<g id="a_edge3_Node000002_Node000004"><a xlink:title=" ">
<path fill="none" stroke="#63b8ff" d="M304.31,-54.98C333.62,-45.85 380.24,-31.31 412.16,-21.36"/>
<polygon fill="#63b8ff" stroke="#63b8ff" points="413.47,-24.62 421.97,-18.3 411.38,-17.94 413.47,-24.62"/>
</a>
</g>
</g>
<!-- Node5 -->
<g id="Node000005" class="node">
<title>Node5</title>
<g id="a_Node000005"><a xlink:title=" ">
<polygon fill="#e0e0e0" stroke="#999999" points="192,-19 68,-19 68,0 192,0 192,-19"/>
<text text-anchor="middle" x="130" y="-7" font-family="Helvetica,sans-Serif" font-size="10.00">emlabcpp/algorithm.h</text>
</a>
</g>
</g>
<!-- Node2&#45;&gt;Node5 -->
<g id="edge4_Node000002_Node000005" class="edge">
<title>Node2&#45;&gt;Node5</title>
<g id="a_edge4_Node000002_Node000005"><a xlink:title=" ">
<path fill="none" stroke="#63b8ff" d="M253.38,-54.98C229.1,-46.23 191.05,-32.51 163.63,-22.62"/>
<polygon fill="#63b8ff" stroke="#63b8ff" points="164.64,-19.27 154.05,-19.17 162.27,-25.85 164.64,-19.27"/>
</a>
</g>
</g>
<!-- Node6 -->
<g id="Node000006" class="node">
<title>Node6</title>
<g id="a_Node000006"><a xlink:title=" ">
<polygon fill="#e0e0e0" stroke="#999999" points="326,-19 210,-19 210,0 326,0 326,-19"/>
<text text-anchor="middle" x="268" y="-7" font-family="Helvetica,sans-Serif" font-size="10.00">emlabcpp/quantity.h</text>
</a>
</g>
</g>
<!-- Node2&#45;&gt;Node6 -->
<g id="edge5_Node000002_Node000006" class="edge">
<title>Node2&#45;&gt;Node6</title>
<g id="a_edge5_Node000002_Node000006"><a xlink:title=" ">
<path fill="none" stroke="#63b8ff" d="M275.51,-54.75C274.33,-47.8 272.64,-37.85 271.16,-29.13"/>
<polygon fill="#63b8ff" stroke="#63b8ff" points="274.58,-28.36 269.46,-19.09 267.68,-29.53 274.58,-28.36"/>
</a>
</g>
</g>
<!-- Node7 -->
<g id="Node000007" class="node">
<title>Node7</title>
<g id="a_Node000007"><a xlink:title=" ">
<polygon fill="#e0e0e0" stroke="#999999" points="403.5,-19 344.5,-19 344.5,0 403.5,0 403.5,-19"/>
<text text-anchor="middle" x="374" y="-7" font-family="Helvetica,sans-Serif" font-size="10.00">numbers</text>
</a>
</g>
</g>
<!-- Node2&#45;&gt;Node7 -->
<g id="edge6_Node000002_Node000007" class="edge">
<title>Node2&#45;&gt;Node7</title>
<g id="a_edge6_Node000002_Node000007"><a xlink:title=" ">
<path fill="none" stroke="#63b8ff" d="M292.58,-54.98C307.77,-46.69 331.1,-33.94 348.9,-24.22"/>
<polygon fill="#63b8ff" stroke="#63b8ff" points="351.03,-27.04 358.13,-19.17 347.68,-20.89 351.03,-27.04"/>
</a>
</g>
</g>
<!-- Node9 -->
<g id="Node000009" class="node">
<title>Node9</title>
<g id="a_Node000009"><a xlink:href="hal_8hpp.html" target="_top" xlink:title=" ">
<polygon fill="#fff0f0" stroke="red" points="266.5,-129 213.5,-129 213.5,-110 266.5,-110 266.5,-129"/>
<text text-anchor="middle" x="240" y="-117" font-family="Helvetica,sans-Serif" font-size="10.00">hal.hpp</text>
</a>
</g>
</g>
<!-- Node8&#45;&gt;Node9 -->
<g id="edge8_Node000008_Node000009" class="edge">
<title>Node8&#45;&gt;Node9</title>
<g id="a_edge8_Node000008_Node000009"><a xlink:title=" ">
<path fill="none" stroke="#63b8ff" d="M285.18,-170.37C277.19,-161.55 264.61,-147.66 254.74,-136.77"/>
<polygon fill="#63b8ff" stroke="#63b8ff" points="257.16,-134.23 247.85,-129.17 251.97,-138.93 257.16,-134.23"/>
</a>
</g>
</g>
<!-- Node11&#45;&gt;Node2 -->
<g id="edge10_Node000011_Node000002" class="edge">
<title>Node11&#45;&gt;Node2</title>
<g id="a_edge10_Node000011_Node000002"><a xlink:title=" ">
<path fill="none" stroke="#63b8ff" d="M391.91,-170.39C368.36,-162.63 336.36,-149.28 314,-129 300.14,-116.43 290.02,-97.43 283.9,-83.49"/>
<polygon fill="#63b8ff" stroke="#63b8ff" points="287.04,-81.92 280.01,-74 280.57,-84.58 287.04,-81.92"/>
</a>
</g>
</g>
<!-- Node11&#45;&gt;Node4 -->
<g id="edge13_Node000011_Node000004" class="edge">
<title>Node11&#45;&gt;Node4</title>
<g id="a_edge13_Node000011_Node000004"><a xlink:title=" ">
<path fill="none" stroke="#63b8ff" d="M424.22,-170.41C427.93,-144.39 439.1,-65.97 444.29,-29.51"/>
<polygon fill="#63b8ff" stroke="#63b8ff" points="447.81,-29.67 445.75,-19.27 440.88,-28.68 447.81,-29.67"/>
</a>
</g>
</g>
<!-- Node12 -->
<g id="Node000012" class="node">
<title>Node12</title>
<g id="a_Node000012"><a xlink:href="map_8hpp.html" target="_top" xlink:title=" ">
<polygon fill="#fff0f0" stroke="red" points="409,-129 323,-129 323,-110 409,-110 409,-129"/>
<text text-anchor="middle" x="366" y="-117" font-family="Helvetica,sans-Serif" font-size="10.00">../cfg/map.hpp</text>
</a>
</g>
</g>
<!-- Node11&#45;&gt;Node12 -->
<g id="edge11_Node000011_Node000012" class="edge">
<title>Node11&#45;&gt;Node12</title>
<g id="a_edge11_Node000011_Node000012"><a xlink:title=" ">
<path fill="none" stroke="#63b8ff" d="M414.59,-170.37C405.92,-161.47 392.2,-147.39 381.54,-136.45"/>
<polygon fill="#63b8ff" stroke="#63b8ff" points="383.93,-133.89 374.45,-129.17 378.92,-138.77 383.93,-133.89"/>
</a>
</g>
</g>
<!-- Node19 -->
<g id="Node000019" class="node">
<title>Node19</title>
<g id="a_Node000019"><a xlink:title=" ">
<polygon fill="#e0e0e0" stroke="#999999" points="584.5,-129 465.5,-129 465.5,-110 584.5,-110 584.5,-129"/>
<text text-anchor="middle" x="525" y="-117" font-family="Helvetica,sans-Serif" font-size="10.00">emlabcpp/outcome.h</text>
</a>
</g>
</g>
<!-- Node11&#45;&gt;Node19 -->
<g id="edge14_Node000011_Node000019" class="edge">
<title>Node11&#45;&gt;Node19</title>
<g id="a_edge14_Node000011_Node000019"><a xlink:title=" ">
<path fill="none" stroke="#63b8ff" d="M438.05,-170.37C454.62,-160.86 481.5,-145.45 500.99,-134.27"/>
<polygon fill="#63b8ff" stroke="#63b8ff" points="502.95,-137.18 509.89,-129.17 499.47,-131.11 502.95,-137.18"/>
</a>
</g>
</g>
<!-- Node20 -->
<g id="Node000020" class="node">
<title>Node20</title>
<g id="a_Node000020"><a xlink:title=" ">
<polygon fill="#e0e0e0" stroke="#999999" points="707,-129 603,-129 603,-110 707,-110 707,-129"/>
<text text-anchor="middle" x="655" y="-117" font-family="Helvetica,sans-Serif" font-size="10.00">emlabcpp/result.h</text>
</a>
</g>
</g>
<!-- Node11&#45;&gt;Node20 -->
<g id="edge15_Node000011_Node000020" class="edge">
<title>Node11&#45;&gt;Node20</title>
<g id="a_edge15_Node000011_Node000020"><a xlink:title=" ">
<path fill="none" stroke="#63b8ff" d="M456.73,-170.49C497.63,-160.18 566.62,-142.78 611.48,-131.47"/>
<polygon fill="#63b8ff" stroke="#63b8ff" points="612.38,-134.86 621.22,-129.02 610.67,-128.07 612.38,-134.86"/>
</a>
</g>
</g>
<!-- Node21 -->
<g id="Node000021" class="node">
<title>Node21</title>
<g id="a_Node000021"><a xlink:title=" ">
<polygon fill="#e0e0e0" stroke="#999999" points="765,-129 725,-129 725,-110 765,-110 765,-129"/>
<text text-anchor="middle" x="745" y="-117" font-family="Helvetica,sans-Serif" font-size="10.00">span</text>
</a>
</g>
</g>
<!-- Node11&#45;&gt;Node21 -->
<g id="edge16_Node000011_Node000021" class="edge">
<title>Node11&#45;&gt;Node21</title>
<g id="a_edge16_Node000011_Node000021"><a xlink:title=" ">
<path fill="none" stroke="#63b8ff" d="M454.87,-170.48C462.72,-168.53 471.14,-166.58 479,-165 580.3,-144.69 610.18,-151.58 714.79,-129"/>
<polygon fill="#63b8ff" stroke="#63b8ff" points="715.79,-132.36 724.81,-126.79 714.29,-125.52 715.79,-132.36"/>
</a>
</g>
</g>
<!-- Node12&#45;&gt;Node2 -->
<g id="edge12_Node000012_Node000002" class="edge">
<title>Node12&#45;&gt;Node2</title>
<g id="a_edge12_Node000012_Node000002"><a xlink:title=" ">
<path fill="none" stroke="#63b8ff" d="M351.7,-109.98C337.9,-101.77 316.76,-89.18 300.49,-79.49"/>
<polygon fill="#63b8ff" stroke="#63b8ff" points="301.94,-76.28 291.56,-74.17 298.36,-82.29 301.94,-76.28"/>
</a>
</g>
</g>
</g>
</svg>
