<?xml version="1.0" encoding="UTF-8" standalone="no"?>
<!DOCTYPE svg PUBLIC "-//W3C//DTD SVG 1.1//EN"
 "http://www.w3.org/Graphics/SVG/1.1/DTD/svg11.dtd">
<!-- Generated by graphviz version 2.43.0 (0)
 -->
<!-- Title: src/drv/cobs_uart.hpp Pages: 1 -->
<svg width="827pt" height="330pt"
 viewBox="0.00 0.00 826.50 330.00" xmlns="http://www.w3.org/2000/svg" xmlns:xlink="http://www.w3.org/1999/xlink">
<g id="graph0" class="graph" transform="scale(1 1) rotate(0) translate(4 326)">
<title>src/drv/cobs_uart.hpp</title>
<polygon fill="white" stroke="transparent" points="-4,4 -4,-326 822.5,-326 822.5,4 -4,4"/>
<!-- Node1 -->
<g id="node1" class="node">
<title>Node1</title>
<g id="a_node1"><a xlink:title=" ">
<polygon fill="#bfbfbf" stroke="black" points="406.5,-302.5 406.5,-321.5 527.5,-321.5 527.5,-302.5 406.5,-302.5"/>
<text text-anchor="middle" x="467" y="-309.5" font-family="Helvetica,sans-Serif" font-size="10.00">src/drv/cobs_uart.hpp</text>
</a>
</g>
</g>
<!-- Node2 -->
<g id="node2" class="node">
<title>Node2</title>
<g id="a_node2"><a xlink:href="platform_8hpp.html" target="_top" xlink:title=" ">
<polygon fill="white" stroke="black" points="0,-241 0,-260 104,-260 104,-241 0,-241"/>
<text text-anchor="middle" x="52" y="-248" font-family="Helvetica,sans-Serif" font-size="10.00">../plt/platform.hpp</text>
</a>
</g>
</g>
<!-- Node1&#45;&gt;Node2 -->
<g id="edge1" class="edge">
<title>Node1&#45;&gt;Node2</title>
<path fill="none" stroke="midnightblue" d="M407.54,-302.48C329.68,-291.31 193.79,-271.83 114.47,-260.46"/>
<polygon fill="midnightblue" stroke="midnightblue" points="114.53,-256.93 104.14,-258.97 113.54,-263.86 114.53,-256.93"/>
</g>
<!-- Node5 -->
<g id="node4" class="node">
<title>Node5</title>
<g id="a_node4"><a xlink:href="sentry_8hpp.html" target="_top" xlink:title=" ">
<polygon fill="white" stroke="black" points="569,-241 569,-260 667,-260 667,-241 569,-241"/>
<text text-anchor="middle" x="618" y="-248" font-family="Helvetica,sans-Serif" font-size="10.00">../sntr/sentry.hpp</text>
</a>
</g>
</g>
<!-- Node1&#45;&gt;Node5 -->
<g id="edge3" class="edge">
<title>Node1&#45;&gt;Node5</title>
<path fill="none" stroke="midnightblue" d="M488.63,-302.48C514.42,-292.31 557.71,-275.26 587.04,-263.7"/>
<polygon fill="midnightblue" stroke="midnightblue" points="588.38,-266.93 596.41,-260.01 585.82,-260.42 588.38,-266.93"/>
</g>
<!-- Node16 -->
<g id="node10" class="node">
<title>Node16</title>
<g id="a_node10"><a xlink:href="cobs__rx__container_8h.html" target="_top" xlink:title=" ">
<polygon fill="white" stroke="black" points="201,-241 201,-260 341,-260 341,-241 201,-241"/>
<text text-anchor="middle" x="271" y="-248" font-family="Helvetica,sans-Serif" font-size="10.00">./bits/cobs_rx_container.h</text>
</a>
</g>
</g>
<!-- Node1&#45;&gt;Node16 -->
<g id="edge12" class="edge">
<title>Node1&#45;&gt;Node16</title>
<path fill="none" stroke="midnightblue" d="M438.92,-302.48C404.71,-292.09 346.8,-274.51 308.73,-262.95"/>
<polygon fill="midnightblue" stroke="midnightblue" points="309.62,-259.56 299.03,-260.01 307.58,-266.26 309.62,-259.56"/>
</g>
<!-- Node17 -->
<g id="node11" class="node">
<title>Node17</title>
<g id="a_node11"><a xlink:title=" ">
<polygon fill="white" stroke="#bfbfbf" points="269.5,-168.5 269.5,-198.5 402.5,-198.5 402.5,-168.5 269.5,-168.5"/>
<text text-anchor="start" x="277.5" y="-186.5" font-family="Helvetica,sans-Serif" font-size="10.00">emlabcpp/experimental</text>
<text text-anchor="middle" x="336" y="-175.5" font-family="Helvetica,sans-Serif" font-size="10.00">/cobs.h</text>
</a>
</g>
</g>
<!-- Node1&#45;&gt;Node17 -->
<g id="edge24" class="edge">
<title>Node1&#45;&gt;Node17</title>
<path fill="none" stroke="midnightblue" d="M458,-302.31C437.62,-282.63 387.47,-234.21 358.21,-205.95"/>
<polygon fill="midnightblue" stroke="midnightblue" points="360.52,-203.32 350.9,-198.89 355.66,-208.35 360.52,-203.32"/>
</g>
<!-- Node19 -->
<g id="node13" class="node">
<title>Node19</title>
<g id="a_node13"><a xlink:href="interfaces_8hpp.html" target="_top" xlink:title=" ">
<polygon fill="white" stroke="black" points="421,-174 421,-193 513,-193 513,-174 421,-174"/>
<text text-anchor="middle" x="467" y="-181" font-family="Helvetica,sans-Serif" font-size="10.00">./interfaces.hpp</text>
</a>
</g>
</g>
<!-- Node1&#45;&gt;Node19 -->
<g id="edge16" class="edge">
<title>Node1&#45;&gt;Node19</title>
<path fill="none" stroke="midnightblue" d="M467,-302.31C467,-281.99 467,-231.05 467,-203.28"/>
<polygon fill="midnightblue" stroke="midnightblue" points="470.5,-203.26 467,-193.26 463.5,-203.26 470.5,-203.26"/>
</g>
<!-- Node28 -->
<g id="node16" class="node">
<title>Node28</title>
<g id="a_node16"><a xlink:title=" ">
<polygon fill="white" stroke="#bfbfbf" points="523,-112.5 523,-131.5 627,-131.5 627,-112.5 523,-112.5"/>
<text text-anchor="middle" x="575" y="-119.5" font-family="Helvetica,sans-Serif" font-size="10.00">emlabcpp/result.h</text>
</a>
</g>
</g>
<!-- Node1&#45;&gt;Node28 -->
<g id="edge26" class="edge">
<title>Node1&#45;&gt;Node28</title>
<path fill="none" stroke="midnightblue" d="M471.92,-302.43C488.51,-273.56 542.58,-179.44 565.06,-140.31"/>
<polygon fill="midnightblue" stroke="midnightblue" points="568.1,-142.03 570.05,-131.62 562.03,-138.54 568.1,-142.03"/>
</g>
<!-- Node30 -->
<g id="node18" class="node">
<title>Node30</title>
<g id="a_node18"><a xlink:title=" ">
<polygon fill="white" stroke="#bfbfbf" points="685.5,-235.5 685.5,-265.5 818.5,-265.5 818.5,-235.5 685.5,-235.5"/>
<text text-anchor="start" x="693.5" y="-253.5" font-family="Helvetica,sans-Serif" font-size="10.00">emlabcpp/experimental</text>
<text text-anchor="middle" x="752" y="-242.5" font-family="Helvetica,sans-Serif" font-size="10.00">/function_view.h</text>
</a>
</g>
</g>
<!-- Node1&#45;&gt;Node30 -->
<g id="edge25" class="edge">
<title>Node1&#45;&gt;Node30</title>
<path fill="none" stroke="midnightblue" d="M507.83,-302.48C551.45,-293.37 621.57,-278.73 675.51,-267.47"/>
<polygon fill="midnightblue" stroke="midnightblue" points="676.31,-270.88 685.38,-265.41 674.88,-264.03 676.31,-270.88"/>
</g>
<!-- Node3 -->
<g id="node3" class="node">
<title>Node3</title>
<g id="a_node3"><a xlink:href="hal_8hpp.html" target="_top" xlink:title=" ">
<polygon fill="white" stroke="red" points="5.5,-174 5.5,-193 58.5,-193 58.5,-174 5.5,-174"/>
<text text-anchor="middle" x="32" y="-181" font-family="Helvetica,sans-Serif" font-size="10.00">hal.hpp</text>
</a>
</g>
</g>
<!-- Node2&#45;&gt;Node3 -->
<g id="edge2" class="edge">
<title>Node2&#45;&gt;Node3</title>
<path fill="none" stroke="midnightblue" d="M49.3,-240.73C46.33,-231.09 41.48,-215.3 37.66,-202.91"/>
<polygon fill="midnightblue" stroke="midnightblue" points="40.94,-201.66 34.65,-193.13 34.25,-203.71 40.94,-201.66"/>
</g>
<!-- Node6 -->
<g id="node5" class="node">
<title>Node6</title>
<g id="a_node5"><a xlink:href="sntr_2base_8hpp.html" target="_top" xlink:title=" ">
<polygon fill="white" stroke="red" points="645.5,-112.5 645.5,-131.5 712.5,-131.5 712.5,-112.5 645.5,-112.5"/>
<text text-anchor="middle" x="679" y="-119.5" font-family="Helvetica,sans-Serif" font-size="10.00">./base.hpp</text>
</a>
</g>
</g>
<!-- Node5&#45;&gt;Node6 -->
<g id="edge4" class="edge">
<title>Node5&#45;&gt;Node6</title>
<path fill="none" stroke="midnightblue" d="M611.9,-240.8C601.78,-225.2 583.96,-191.86 598,-168 606.92,-152.84 622.99,-142.43 638.48,-135.46"/>
<polygon fill="midnightblue" stroke="midnightblue" points="640.06,-138.6 647.98,-131.56 637.4,-132.12 640.06,-138.6"/>
</g>
<!-- Node14 -->
<g id="node8" class="node">
<title>Node14</title>
<g id="a_node8"><a xlink:title=" ">
<polygon fill="white" stroke="#bfbfbf" points="703.5,-56.5 703.5,-75.5 754.5,-75.5 754.5,-56.5 703.5,-56.5"/>
<text text-anchor="middle" x="729" y="-63.5" font-family="Helvetica,sans-Serif" font-size="10.00">variant</text>
</a>
</g>
</g>
<!-- Node5&#45;&gt;Node14 -->
<g id="edge11" class="edge">
<title>Node5&#45;&gt;Node14</title>
<path fill="none" stroke="midnightblue" d="M647.64,-240.94C687.26,-229.21 753.29,-208.51 760,-199 785.01,-163.56 757.95,-110.75 740.83,-83.93"/>
<polygon fill="midnightblue" stroke="midnightblue" points="743.74,-81.99 735.29,-75.61 737.91,-85.87 743.74,-81.99"/>
</g>
<!-- Node15 -->
<g id="node9" class="node">
<title>Node15</title>
<g id="a_node9"><a xlink:href="central__sentry__iface_8hpp.html" target="_top" xlink:title=" ">
<polygon fill="white" stroke="black" points="607.5,-174 607.5,-193 750.5,-193 750.5,-174 607.5,-174"/>
<text text-anchor="middle" x="679" y="-181" font-family="Helvetica,sans-Serif" font-size="10.00">./central_sentry_iface.hpp</text>
</a>
</g>
</g>
<!-- Node5&#45;&gt;Node15 -->
<g id="edge9" class="edge">
<title>Node5&#45;&gt;Node15</title>
<path fill="none" stroke="midnightblue" d="M626.23,-240.73C635.83,-230.5 651.91,-213.36 663.8,-200.69"/>
<polygon fill="midnightblue" stroke="midnightblue" points="666.61,-202.81 670.9,-193.13 661.51,-198.02 666.61,-202.81"/>
</g>
<!-- Node7 -->
<g id="node6" class="node">
<title>Node7</title>
<g id="a_node6"><a xlink:href="base_2base_8hpp.html" target="_top" xlink:title=" ">
<polygon fill="white" stroke="red" points="180,-56.5 180,-75.5 276,-75.5 276,-56.5 180,-56.5"/>
<text text-anchor="middle" x="228" y="-63.5" font-family="Helvetica,sans-Serif" font-size="10.00">../base/base.hpp</text>
</a>
</g>
</g>
<!-- Node6&#45;&gt;Node7 -->
<g id="edge5" class="edge">
<title>Node6&#45;&gt;Node7</title>
<path fill="none" stroke="midnightblue" d="M645.26,-113.62C642.13,-113.03 639.01,-112.48 636,-112 512.24,-92.27 365.99,-78.41 286.54,-71.67"/>
<polygon fill="midnightblue" stroke="midnightblue" points="286.51,-68.15 276.25,-70.8 285.92,-75.13 286.51,-68.15"/>
</g>
<!-- Node9 -->
<g id="node7" class="node">
<title>Node9</title>
<g id="a_node7"><a xlink:title=" ">
<polygon fill="white" stroke="#bfbfbf" points="470,-0.5 470,-19.5 520,-19.5 520,-0.5 470,-0.5"/>
<text text-anchor="middle" x="495" y="-7.5" font-family="Helvetica,sans-Serif" font-size="10.00">cstdint</text>
</a>
</g>
</g>
<!-- Node6&#45;&gt;Node9 -->
<g id="edge7" class="edge">
<title>Node6&#45;&gt;Node9</title>
<path fill="none" stroke="midnightblue" d="M664.56,-112.37C632.85,-93.41 556.89,-48 518.32,-24.94"/>
<polygon fill="midnightblue" stroke="midnightblue" points="519.75,-21.72 509.37,-19.59 516.16,-27.73 519.75,-21.72"/>
</g>
<!-- Node6&#45;&gt;Node14 -->
<g id="edge8" class="edge">
<title>Node6&#45;&gt;Node14</title>
<path fill="none" stroke="midnightblue" d="M687.26,-112.08C694.46,-104.3 705.11,-92.8 713.85,-83.37"/>
<polygon fill="midnightblue" stroke="midnightblue" points="716.67,-85.47 720.9,-75.75 711.53,-80.71 716.67,-85.47"/>
</g>
<!-- Node7&#45;&gt;Node9 -->
<g id="edge6" class="edge">
<title>Node7&#45;&gt;Node9</title>
<path fill="none" stroke="midnightblue" d="M270.31,-56.44C322.64,-45.86 410.78,-28.03 459.67,-18.15"/>
<polygon fill="midnightblue" stroke="midnightblue" points="460.66,-21.52 469.76,-16.1 459.27,-14.66 460.66,-21.52"/>
</g>
<!-- Node15&#45;&gt;Node6 -->
<g id="edge10" class="edge">
<title>Node15&#45;&gt;Node6</title>
<path fill="none" stroke="midnightblue" d="M679,-173.98C679,-165.58 679,-152.48 679,-141.66"/>
<polygon fill="midnightblue" stroke="midnightblue" points="682.5,-141.51 679,-131.51 675.5,-141.51 682.5,-141.51"/>
</g>
<!-- Node16&#45;&gt;Node7 -->
<g id="edge13" class="edge">
<title>Node16&#45;&gt;Node7</title>
<path fill="none" stroke="midnightblue" d="M200.99,-246.69C166.54,-241.33 127.82,-228.5 106,-199 71.09,-151.81 153.36,-102.69 199.45,-79.97"/>
<polygon fill="midnightblue" stroke="midnightblue" points="201.19,-83.02 208.68,-75.53 198.15,-76.71 201.19,-83.02"/>
</g>
<!-- Node16&#45;&gt;Node17 -->
<g id="edge14" class="edge">
<title>Node16&#45;&gt;Node17</title>
<path fill="none" stroke="midnightblue" d="M279.77,-240.73C288.64,-231.86 302.69,-217.81 314.53,-205.97"/>
<polygon fill="midnightblue" stroke="midnightblue" points="317.31,-208.13 321.91,-198.59 312.37,-203.19 317.31,-208.13"/>
</g>
<!-- Node18 -->
<g id="node12" class="node">
<title>Node18</title>
<g id="a_node12"><a xlink:title=" ">
<polygon fill="white" stroke="#bfbfbf" points="115,-168.5 115,-198.5 251,-198.5 251,-168.5 115,-168.5"/>
<text text-anchor="start" x="123" y="-186.5" font-family="Helvetica,sans-Serif" font-size="10.00">emlabcpp/static_circular</text>
<text text-anchor="middle" x="183" y="-175.5" font-family="Helvetica,sans-Serif" font-size="10.00">_buffer.h</text>
</a>
</g>
</g>
<!-- Node16&#45;&gt;Node18 -->
<g id="edge15" class="edge">
<title>Node16&#45;&gt;Node18</title>
<path fill="none" stroke="midnightblue" d="M259.13,-240.73C246.67,-231.53 226.64,-216.73 210.25,-204.63"/>
<polygon fill="midnightblue" stroke="midnightblue" points="212.2,-201.72 202.07,-198.59 208.04,-207.35 212.2,-201.72"/>
</g>
<!-- Node19&#45;&gt;Node7 -->
<g id="edge17" class="edge">
<title>Node19&#45;&gt;Node7</title>
<path fill="none" stroke="midnightblue" d="M436.32,-173.96C428.13,-171.84 419.26,-169.7 411,-168 359.25,-157.36 210.41,-172.09 176,-132 161.24,-114.81 184.07,-94.29 203.98,-80.97"/>
<polygon fill="midnightblue" stroke="midnightblue" points="205.93,-83.88 212.49,-75.57 202.17,-77.97 205.93,-83.88"/>
</g>
<!-- Node19&#45;&gt;Node9 -->
<g id="edge20" class="edge">
<title>Node19&#45;&gt;Node9</title>
<path fill="none" stroke="midnightblue" d="M468.58,-173.93C470.42,-163.89 473.53,-146.76 476,-132 482.07,-95.77 488.6,-53.35 492.2,-29.58"/>
<polygon fill="midnightblue" stroke="midnightblue" points="495.69,-29.93 493.72,-19.52 488.77,-28.88 495.69,-29.93"/>
</g>
<!-- Node20 -->
<g id="node14" class="node">
<title>Node20</title>
<g id="a_node14"><a xlink:href="map_8hpp.html" target="_top" xlink:title=" ">
<polygon fill="white" stroke="red" points="185,-112.5 185,-131.5 271,-131.5 271,-112.5 185,-112.5"/>
<text text-anchor="middle" x="228" y="-119.5" font-family="Helvetica,sans-Serif" font-size="10.00">../cfg/map.hpp</text>
</a>
</g>
</g>
<!-- Node19&#45;&gt;Node20 -->
<g id="edge18" class="edge">
<title>Node19&#45;&gt;Node20</title>
<path fill="none" stroke="midnightblue" d="M434.44,-174C426.76,-172.01 418.6,-169.92 411,-168 364.17,-156.18 310.5,-143.03 273.45,-134.01"/>
<polygon fill="midnightblue" stroke="midnightblue" points="274,-130.54 263.46,-131.58 272.35,-137.35 274,-130.54"/>
</g>
<!-- Node27 -->
<g id="node15" class="node">
<title>Node27</title>
<g id="a_node15"><a xlink:title=" ">
<polygon fill="white" stroke="#bfbfbf" points="289.5,-112.5 289.5,-131.5 408.5,-131.5 408.5,-112.5 289.5,-112.5"/>
<text text-anchor="middle" x="349" y="-119.5" font-family="Helvetica,sans-Serif" font-size="10.00">emlabcpp/outcome.h</text>
</a>
</g>
</g>
<!-- Node19&#45;&gt;Node27 -->
<g id="edge21" class="edge">
<title>Node19&#45;&gt;Node27</title>
<path fill="none" stroke="midnightblue" d="M450.09,-173.98C430.47,-164.08 397.87,-147.64 375.01,-136.12"/>
<polygon fill="midnightblue" stroke="midnightblue" points="376.38,-132.89 365.88,-131.51 373.23,-139.14 376.38,-132.89"/>
</g>
<!-- Node19&#45;&gt;Node28 -->
<g id="edge22" class="edge">
<title>Node19&#45;&gt;Node28</title>
<path fill="none" stroke="midnightblue" d="M482.47,-173.98C500.28,-164.17 529.74,-147.93 550.63,-136.42"/>
<polygon fill="midnightblue" stroke="midnightblue" points="552.49,-139.4 559.55,-131.51 549.11,-133.27 552.49,-139.4"/>
</g>
<!-- Node29 -->
<g id="node17" class="node">
<title>Node29</title>
<g id="a_node17"><a xlink:title=" ">
<polygon fill="white" stroke="#bfbfbf" points="427,-112.5 427,-131.5 467,-131.5 467,-112.5 427,-112.5"/>
<text text-anchor="middle" x="447" y="-119.5" font-family="Helvetica,sans-Serif" font-size="10.00">span</text>
</a>
</g>
</g>
<!-- Node19&#45;&gt;Node29 -->
<g id="edge23" class="edge">
<title>Node19&#45;&gt;Node29</title>
<path fill="none" stroke="midnightblue" d="M464.13,-173.98C461.28,-165.49 456.82,-152.2 453.16,-141.32"/>
<polygon fill="midnightblue" stroke="midnightblue" points="456.36,-139.87 449.86,-131.51 449.73,-142.1 456.36,-139.87"/>
</g>
<!-- Node20&#45;&gt;Node7 -->
<g id="edge19" class="edge">
<title>Node20&#45;&gt;Node7</title>
<path fill="none" stroke="midnightblue" d="M228,-112.08C228,-105.01 228,-94.86 228,-85.99"/>
<polygon fill="midnightblue" stroke="midnightblue" points="231.5,-85.75 228,-75.75 224.5,-85.75 231.5,-85.75"/>
</g>
</g>
</svg>
