<?xml version="1.0" encoding="UTF-8" standalone="no"?>
<!DOCTYPE svg PUBLIC "-//W3C//DTD SVG 1.1//EN"
 "http://www.w3.org/Graphics/SVG/1.1/DTD/svg11.dtd">
<!-- Generated by graphviz version 2.43.0 (0)
 -->
<!-- Title: src/drv/cobs_uart.hpp Pages: 1 -->
<svg width="912pt" height="269pt"
 viewBox="0.00 0.00 911.50 269.00" xmlns="http://www.w3.org/2000/svg" xmlns:xlink="http://www.w3.org/1999/xlink">
<g id="graph0" class="graph" transform="scale(1 1) rotate(0) translate(4 265)">
<title>src/drv/cobs_uart.hpp</title>
<!-- Node1 -->
<g id="Node000001" class="node">
<title>Node1</title>
<g id="a_Node000001"><a xlink:title=" ">
<polygon fill="#999999" stroke="#666666" points="508.5,-261 387.5,-261 387.5,-242 508.5,-242 508.5,-261"/>
<text text-anchor="middle" x="448" y="-249" font-family="Helvetica,sans-Serif" font-size="10.00">src/drv/cobs_uart.hpp</text>
</a>
</g>
</g>
<!-- Node2 -->
<g id="Node000002" class="node">
<title>Node2</title>
<g id="a_Node000002"><a xlink:href="platform_8hpp.html" target="_top" xlink:title=" ">
<polygon fill="white" stroke="#666666" points="104,-134.5 0,-134.5 0,-115.5 104,-115.5 104,-134.5"/>
<text text-anchor="middle" x="52" y="-122.5" font-family="Helvetica,sans-Serif" font-size="10.00">../plt/platform.hpp</text>
</a>
</g>
</g>
<!-- Node1&#45;&gt;Node2 -->
<g id="edge1_Node000001_Node000002" class="edge">
<title>Node1&#45;&gt;Node2</title>
<g id="a_edge1_Node000001_Node000002"><a xlink:title=" ">
<path fill="none" stroke="#63b8ff" d="M387.28,-246.61C308.14,-240.76 174.7,-227.96 131,-206 101.77,-191.32 76.96,-161.58 63.3,-142.78"/>
<polygon fill="#63b8ff" stroke="#63b8ff" points="66.13,-140.73 57.53,-134.55 60.41,-144.75 66.13,-140.73"/>
</a>
</g>
</g>
<!-- Node5 -->
<g id="Node000005" class="node">
<title>Node5</title>
<g id="a_Node000005"><a xlink:href="cobs__rx__container_8hpp.html" target="_top" xlink:title=" ">
<polygon fill="white" stroke="#666666" points="714,-200.5 562,-200.5 562,-181.5 714,-181.5 714,-200.5"/>
<text text-anchor="middle" x="638" y="-188.5" font-family="Helvetica,sans-Serif" font-size="10.00">./bits/cobs_rx_container.hpp</text>
</a>
</g>
</g>
<!-- Node1&#45;&gt;Node5 -->
<g id="edge3_Node000001_Node000005" class="edge">
<title>Node1&#45;&gt;Node5</title>
<g id="a_edge3_Node000001_Node000005"><a xlink:title=" ">
<path fill="none" stroke="#63b8ff" d="M475.63,-241.99C508.55,-231.86 563.73,-214.87 600.49,-203.55"/>
<polygon fill="#63b8ff" stroke="#63b8ff" points="601.81,-206.8 610.34,-200.52 599.75,-200.11 601.81,-206.8"/>
</a>
</g>
</g>
<!-- Node14 -->
<g id="Node000014" class="node">
<title>Node14</title>
<g id="a_Node000014"><a xlink:title=" ">
<polygon fill="#e0e0e0" stroke="#999999" points="903.5,-140 770.5,-140 770.5,-110 903.5,-110 903.5,-140"/>
<text text-anchor="start" x="778.5" y="-128" font-family="Helvetica,sans-Serif" font-size="10.00">emlabcpp/experimental</text>
<text text-anchor="middle" x="837" y="-117" font-family="Helvetica,sans-Serif" font-size="10.00">/cobs.h</text>
</a>
</g>
</g>
<!-- Node1&#45;&gt;Node14 -->
<g id="edge20_Node000001_Node000014" class="edge">
<title>Node1&#45;&gt;Node14</title>
<g id="a_edge20_Node000001_Node000014"><a xlink:title=" ">
<path fill="none" stroke="#63b8ff" d="M508.58,-249.19C565.94,-246.01 653.41,-236.08 723,-206 743.07,-197.32 744.23,-188.74 762,-176 776.4,-165.68 792.73,-154.71 806.47,-145.68"/>
<polygon fill="#63b8ff" stroke="#63b8ff" points="808.62,-148.46 815.07,-140.06 804.79,-142.6 808.62,-148.46"/>
</a>
</g>
</g>
<!-- Node15 -->
<g id="Node000015" class="node">
<title>Node15</title>
<g id="a_Node000015"><a xlink:href="uart_8hpp.html" target="_top" xlink:title=" ">
<polygon fill="white" stroke="#666666" points="224,-200.5 140,-200.5 140,-181.5 224,-181.5 224,-200.5"/>
<text text-anchor="middle" x="182" y="-188.5" font-family="Helvetica,sans-Serif" font-size="10.00">./bits/uart.hpp</text>
</a>
</g>
</g>
<!-- Node1&#45;&gt;Node15 -->
<g id="edge8_Node000001_Node000015" class="edge">
<title>Node1&#45;&gt;Node15</title>
<g id="a_edge8_Node000001_Node000015"><a xlink:title=" ">
<path fill="none" stroke="#63b8ff" d="M408.49,-241.97C367.38,-233.08 301.15,-218.69 244,-206 239.33,-204.96 234.47,-203.88 229.6,-202.79"/>
<polygon fill="#63b8ff" stroke="#63b8ff" points="230.22,-199.34 219.7,-200.56 228.68,-206.17 230.22,-199.34"/>
</a>
</g>
</g>
<!-- Node22 -->
<g id="Node000022" class="node">
<title>Node22</title>
<g id="a_Node000022"><a xlink:title=" ">
<polygon fill="#e0e0e0" stroke="#999999" points="341,-74 237,-74 237,-55 341,-55 341,-74"/>
<text text-anchor="middle" x="289" y="-62" font-family="Helvetica,sans-Serif" font-size="10.00">emlabcpp/result.h</text>
</a>
</g>
</g>
<!-- Node1&#45;&gt;Node22 -->
<g id="edge22_Node000001_Node000022" class="edge">
<title>Node1&#45;&gt;Node22</title>
<g id="a_edge22_Node000001_Node000022"><a xlink:title=" ">
<path fill="none" stroke="#63b8ff" d="M420.11,-241.96C380,-227.99 307.51,-196.03 277,-140 267.44,-122.44 273.54,-99.35 280.03,-83.56"/>
<polygon fill="#63b8ff" stroke="#63b8ff" points="283.25,-84.92 284.19,-74.36 276.88,-82.03 283.25,-84.92"/>
</a>
</g>
</g>
<!-- Node24 -->
<g id="Node000024" class="node">
<title>Node24</title>
<g id="a_Node000024"><a xlink:href="interfaces_8hpp.html" target="_top" xlink:title=" ">
<polygon fill="white" stroke="#666666" points="494,-200.5 402,-200.5 402,-181.5 494,-181.5 494,-200.5"/>
<text text-anchor="middle" x="448" y="-188.5" font-family="Helvetica,sans-Serif" font-size="10.00">./interfaces.hpp</text>
</a>
</g>
</g>
<!-- Node1&#45;&gt;Node24 -->
<g id="edge13_Node000001_Node000024" class="edge">
<title>Node1&#45;&gt;Node24</title>
<g id="a_edge13_Node000001_Node000024"><a xlink:title=" ">
<path fill="none" stroke="#63b8ff" d="M448,-241.87C448,-233.75 448,-221.31 448,-210.89"/>
<polygon fill="#63b8ff" stroke="#63b8ff" points="451.5,-210.67 448,-200.67 444.5,-210.67 451.5,-210.67"/>
</a>
</g>
</g>
<!-- Node33 -->
<g id="Node000033" class="node">
<title>Node33</title>
<g id="a_Node000033"><a xlink:title=" ">
<polygon fill="#e0e0e0" stroke="#999999" points="903.5,-206 770.5,-206 770.5,-176 903.5,-176 903.5,-206"/>
<text text-anchor="start" x="778.5" y="-194" font-family="Helvetica,sans-Serif" font-size="10.00">emlabcpp/experimental</text>
<text text-anchor="middle" x="837" y="-183" font-family="Helvetica,sans-Serif" font-size="10.00">/function_view.h</text>
</a>
</g>
</g>
<!-- Node1&#45;&gt;Node33 -->
<g id="edge21_Node000001_Node000033" class="edge">
<title>Node1&#45;&gt;Node33</title>
<g id="a_edge21_Node000001_Node000033"><a xlink:title=" ">
<path fill="none" stroke="#63b8ff" d="M508.56,-242.25C570.73,-233.67 670.22,-219.61 756,-206 757.45,-205.77 758.92,-205.53 760.4,-205.3"/>
<polygon fill="#63b8ff" stroke="#63b8ff" points="760.97,-208.75 770.28,-203.68 759.85,-201.84 760.97,-208.75"/>
</a>
</g>
</g>
<!-- Node3 -->
<g id="Node000003" class="node">
<title>Node3</title>
<g id="a_Node000003"><a xlink:href="hal_8hpp.html" target="_top" xlink:title=" ">
<polygon fill="#fff0f0" stroke="red" points="78.5,-74 25.5,-74 25.5,-55 78.5,-55 78.5,-74"/>
<text text-anchor="middle" x="52" y="-62" font-family="Helvetica,sans-Serif" font-size="10.00">hal.hpp</text>
</a>
</g>
</g>
<!-- Node2&#45;&gt;Node3 -->
<g id="edge2_Node000002_Node000003" class="edge">
<title>Node2&#45;&gt;Node3</title>
<g id="a_edge2_Node000002_Node000003"><a xlink:title=" ">
<path fill="none" stroke="#63b8ff" d="M52,-115.37C52,-107.25 52,-94.81 52,-84.39"/>
<polygon fill="#63b8ff" stroke="#63b8ff" points="55.5,-84.17 52,-74.17 48.5,-84.17 55.5,-84.17"/>
</a>
</g>
</g>
<!-- Node6 -->
<g id="Node000006" class="node">
<title>Node6</title>
<g id="a_Node000006"><a xlink:href="base_8hpp.html" target="_top" xlink:title=" ">
<polygon fill="#fff0f0" stroke="red" points="603.5,-74 524.5,-74 524.5,-55 603.5,-55 603.5,-74"/>
<text text-anchor="middle" x="564" y="-62" font-family="Helvetica,sans-Serif" font-size="10.00">../../base.hpp</text>
</a>
</g>
</g>
<!-- Node5&#45;&gt;Node6 -->
<g id="edge4_Node000005_Node000006" class="edge">
<title>Node5&#45;&gt;Node6</title>
<g id="a_edge4_Node000005_Node000006"><a xlink:title=" ">
<path fill="none" stroke="#63b8ff" d="M636.99,-181.42C634.86,-166.05 628.81,-133.23 614,-110 606.66,-98.48 595.51,-88.16 585.61,-80.36"/>
<polygon fill="#63b8ff" stroke="#63b8ff" points="587.46,-77.37 577.35,-74.19 583.27,-82.98 587.46,-77.37"/>
</a>
</g>
</g>
<!-- Node12 -->
<g id="Node000012" class="node">
<title>Node12</title>
<g id="a_Node000012"><a xlink:href="rx__buffer_8hpp.html" target="_top" xlink:title=" ">
<polygon fill="#fff0f0" stroke="red" points="752,-134.5 666,-134.5 666,-115.5 752,-115.5 752,-134.5"/>
<text text-anchor="middle" x="709" y="-122.5" font-family="Helvetica,sans-Serif" font-size="10.00">./rx_buffer.hpp</text>
</a>
</g>
</g>
<!-- Node5&#45;&gt;Node12 -->
<g id="edge6_Node000005_Node000012" class="edge">
<title>Node5&#45;&gt;Node12</title>
<g id="a_edge6_Node000005_Node000012"><a xlink:title=" ">
<path fill="none" stroke="#63b8ff" d="M647.58,-181.37C658.84,-171.21 677.76,-154.16 691.63,-141.65"/>
<polygon fill="#63b8ff" stroke="#63b8ff" points="694.04,-144.2 699.12,-134.91 689.35,-139 694.04,-144.2"/>
</a>
</g>
</g>
<!-- Node5&#45;&gt;Node14 -->
<g id="edge7_Node000005_Node000014" class="edge">
<title>Node5&#45;&gt;Node14</title>
<g id="a_edge7_Node000005_Node000014"><a xlink:title=" ">
<path fill="none" stroke="#63b8ff" d="M664.84,-181.37C695.03,-171.66 744.84,-155.64 783.14,-143.32"/>
<polygon fill="#63b8ff" stroke="#63b8ff" points="784.66,-146.51 793.11,-140.12 782.52,-139.85 784.66,-146.51"/>
</a>
</g>
</g>
<!-- Node8 -->
<g id="Node000008" class="node">
<title>Node8</title>
<g id="a_Node000008"><a xlink:title=" ">
<polygon fill="#e0e0e0" stroke="#999999" points="489,-19 439,-19 439,0 489,0 489,-19"/>
<text text-anchor="middle" x="464" y="-7" font-family="Helvetica,sans-Serif" font-size="10.00">cstdint</text>
</a>
</g>
</g>
<!-- Node6&#45;&gt;Node8 -->
<g id="edge5_Node000006_Node000008" class="edge">
<title>Node6&#45;&gt;Node8</title>
<g id="a_edge5_Node000006_Node000008"><a xlink:title=" ">
<path fill="none" stroke="#63b8ff" d="M547.93,-54.98C532.14,-46.61 507.78,-33.7 489.37,-23.95"/>
<polygon fill="#63b8ff" stroke="#63b8ff" points="490.83,-20.76 480.36,-19.17 487.56,-26.95 490.83,-20.76"/>
</a>
</g>
</g>
<!-- Node15&#45;&gt;Node2 -->
<g id="edge9_Node000015_Node000002" class="edge">
<title>Node15&#45;&gt;Node2</title>
<g id="a_edge9_Node000015_Node000002"><a xlink:title=" ">
<path fill="none" stroke="#63b8ff" d="M164.47,-181.37C142.47,-170.54 104.51,-151.85 78.85,-139.22"/>
<polygon fill="#63b8ff" stroke="#63b8ff" points="80.19,-135.98 69.67,-134.7 77.1,-142.26 80.19,-135.98"/>
</a>
</g>
</g>
<!-- Node16 -->
<g id="Node000016" class="node">
<title>Node16</title>
<g id="a_Node000016"><a xlink:href="sentry_8hpp.html" target="_top" xlink:title=" ">
<polygon fill="#fff0f0" stroke="red" points="229.5,-134.5 122.5,-134.5 122.5,-115.5 229.5,-115.5 229.5,-134.5"/>
<text text-anchor="middle" x="176" y="-122.5" font-family="Helvetica,sans-Serif" font-size="10.00">../../sntr/sentry.hpp</text>
</a>
</g>
</g>
<!-- Node15&#45;&gt;Node16 -->
<g id="edge10_Node000015_Node000016" class="edge">
<title>Node15&#45;&gt;Node16</title>
<g id="a_edge10_Node000015_Node000016"><a xlink:title=" ">
<path fill="none" stroke="#63b8ff" d="M181.19,-181.37C180.32,-172.07 178.9,-156.98 177.77,-144.9"/>
<polygon fill="#63b8ff" stroke="#63b8ff" points="181.25,-144.53 176.83,-134.91 174.28,-145.19 181.25,-144.53"/>
</a>
</g>
</g>
<!-- Node21 -->
<g id="Node000021" class="node">
<title>Node21</title>
<g id="a_Node000021"><a xlink:href="status_8hpp.html" target="_top" xlink:title=" ">
<polygon fill="#fff0f0" stroke="red" points="372,-134.5 286,-134.5 286,-115.5 372,-115.5 372,-134.5"/>
<text text-anchor="middle" x="329" y="-122.5" font-family="Helvetica,sans-Serif" font-size="10.00">../../status.hpp</text>
</a>
</g>
</g>
<!-- Node15&#45;&gt;Node21 -->
<g id="edge11_Node000015_Node000021" class="edge">
<title>Node15&#45;&gt;Node21</title>
<g id="a_edge11_Node000015_Node000021"><a xlink:title=" ">
<path fill="none" stroke="#63b8ff" d="M201.83,-181.37C227.03,-170.39 270.76,-151.36 299.79,-138.72"/>
<polygon fill="#63b8ff" stroke="#63b8ff" points="301.25,-141.9 309.02,-134.7 298.45,-135.48 301.25,-141.9"/>
</a>
</g>
</g>
<!-- Node21&#45;&gt;Node22 -->
<g id="edge12_Node000021_Node000022" class="edge">
<title>Node21&#45;&gt;Node22</title>
<g id="a_edge12_Node000021_Node000022"><a xlink:title=" ">
<path fill="none" stroke="#63b8ff" d="M323.1,-115.37C317.25,-106.81 308.13,-93.47 300.79,-82.74"/>
<polygon fill="#63b8ff" stroke="#63b8ff" points="303.46,-80.45 294.93,-74.17 297.68,-84.4 303.46,-80.45"/>
</a>
</g>
</g>
<!-- Node24&#45;&gt;Node6 -->
<g id="edge14_Node000024_Node000006" class="edge">
<title>Node24&#45;&gt;Node6</title>
<g id="a_edge14_Node000024_Node000006"><a xlink:title=" ">
<path fill="none" stroke="#63b8ff" d="M494.04,-185.82C524.22,-180.42 561.55,-168.09 581,-140 592.76,-123.02 583.93,-99.14 575.2,-83.03"/>
<polygon fill="#63b8ff" stroke="#63b8ff" points="578.06,-80.98 569.97,-74.14 572.02,-84.53 578.06,-80.98"/>
</a>
</g>
</g>
<!-- Node24&#45;&gt;Node8 -->
<g id="edge18_Node000024_Node000008" class="edge">
<title>Node24&#45;&gt;Node8</title>
<g id="a_edge18_Node000024_Node000008"><a xlink:title=" ">
<path fill="none" stroke="#63b8ff" d="M441.11,-181.43C433.97,-171.94 423.28,-155.89 419,-140 415.54,-127.12 416.19,-123.03 419,-110 425.57,-79.54 442.25,-47.18 453.35,-27.92"/>
<polygon fill="#63b8ff" stroke="#63b8ff" points="456.48,-29.5 458.57,-19.11 450.46,-25.93 456.48,-29.5"/>
</a>
</g>
</g>
<!-- Node24&#45;&gt;Node21 -->
<g id="edge17_Node000024_Node000021" class="edge">
<title>Node24&#45;&gt;Node21</title>
<g id="a_edge17_Node000024_Node000021"><a xlink:title=" ">
<path fill="none" stroke="#63b8ff" d="M431.95,-181.37C411.99,-170.63 377.68,-152.18 354.2,-139.55"/>
<polygon fill="#63b8ff" stroke="#63b8ff" points="355.64,-136.35 345.17,-134.7 352.32,-142.52 355.64,-136.35"/>
</a>
</g>
</g>
<!-- Node25 -->
<g id="Node000025" class="node">
<title>Node25</title>
<g id="a_Node000025"><a xlink:href="map_8hpp.html" target="_top" xlink:title=" ">
<polygon fill="#fff0f0" stroke="red" points="572,-134.5 486,-134.5 486,-115.5 572,-115.5 572,-134.5"/>
<text text-anchor="middle" x="529" y="-122.5" font-family="Helvetica,sans-Serif" font-size="10.00">../cfg/map.hpp</text>
</a>
</g>
</g>
<!-- Node24&#45;&gt;Node25 -->
<g id="edge15_Node000024_Node000025" class="edge">
<title>Node24&#45;&gt;Node25</title>
<g id="a_edge15_Node000024_Node000025"><a xlink:title=" ">
<path fill="none" stroke="#63b8ff" d="M458.92,-181.37C471.97,-171.06 494.01,-153.65 509.9,-141.09"/>
<polygon fill="#63b8ff" stroke="#63b8ff" points="512.31,-143.64 517.99,-134.7 507.97,-138.15 512.31,-143.64"/>
</a>
</g>
</g>
<!-- Node32 -->
<g id="Node000032" class="node">
<title>Node32</title>
<g id="a_Node000032"><a xlink:title=" ">
<polygon fill="#e0e0e0" stroke="#999999" points="468,-134.5 428,-134.5 428,-115.5 468,-115.5 468,-134.5"/>
<text text-anchor="middle" x="448" y="-122.5" font-family="Helvetica,sans-Serif" font-size="10.00">span</text>
</a>
</g>
</g>
<!-- Node24&#45;&gt;Node32 -->
<g id="edge19_Node000024_Node000032" class="edge">
<title>Node24&#45;&gt;Node32</title>
<g id="a_edge19_Node000024_Node000032"><a xlink:title=" ">
<path fill="none" stroke="#63b8ff" d="M448,-181.37C448,-172.16 448,-157.29 448,-145.27"/>
<polygon fill="#63b8ff" stroke="#63b8ff" points="451.5,-144.91 448,-134.91 444.5,-144.91 451.5,-144.91"/>
</a>
</g>
</g>
<!-- Node25&#45;&gt;Node6 -->
<g id="edge16_Node000025_Node000006" class="edge">
<title>Node25&#45;&gt;Node6</title>
<g id="a_edge16_Node000025_Node000006"><a xlink:title=" ">
<path fill="none" stroke="#63b8ff" d="M534.16,-115.37C539.23,-106.9 547.1,-93.74 553.49,-83.07"/>
<polygon fill="#63b8ff" stroke="#63b8ff" points="556.68,-84.55 558.81,-74.17 550.68,-80.95 556.68,-84.55"/>
</a>
</g>
</g>
</g>
</svg>
