<?xml version="1.0" encoding="UTF-8" standalone="no"?>
<!DOCTYPE svg PUBLIC "-//W3C//DTD SVG 1.1//EN"
 "http://www.w3.org/Graphics/SVG/1.1/DTD/svg11.dtd">
<!-- Generated by graphviz version 2.43.0 (0)
 -->
<!-- Title: src/fw/drv/cobs_uart.hpp Pages: 1 -->
<svg width="769pt" height="207pt"
 viewBox="0.00 0.00 768.50 207.00" xmlns="http://www.w3.org/2000/svg" xmlns:xlink="http://www.w3.org/1999/xlink">
<g id="graph0" class="graph" transform="scale(1 1) rotate(0) translate(4 203)">
<title>src/fw/drv/cobs_uart.hpp</title>
<polygon fill="white" stroke="transparent" points="-4,4 -4,-203 764.5,-203 764.5,4 -4,4"/>
<!-- Node1 -->
<g id="node1" class="node">
<title>Node1</title>
<g id="a_node1"><a xlink:title=" ">
<polygon fill="#bfbfbf" stroke="black" points="321,-179.5 321,-198.5 456,-198.5 456,-179.5 321,-179.5"/>
<text text-anchor="middle" x="388.5" y="-186.5" font-family="Helvetica,sans-Serif" font-size="10.00">src/fw/drv/cobs_uart.hpp</text>
</a>
</g>
</g>
<!-- Node2 -->
<g id="node2" class="node">
<title>Node2</title>
<g id="a_node2"><a xlink:href="drv__interfaces_8hpp.html" target="_top" xlink:title=" ">
<polygon fill="white" stroke="black" points="98,-118 98,-137 205,-137 205,-118 98,-118"/>
<text text-anchor="middle" x="151.5" y="-125" font-family="Helvetica,sans-Serif" font-size="10.00">drv_interfaces.hpp</text>
</a>
</g>
</g>
<!-- Node1&#45;&gt;Node2 -->
<g id="edge1" class="edge">
<title>Node1&#45;&gt;Node2</title>
<path fill="none" stroke="midnightblue" d="M354.54,-179.48C312.66,-168.96 241.37,-151.06 195.37,-139.51"/>
<polygon fill="midnightblue" stroke="midnightblue" points="195.94,-136.05 185.39,-137.01 194.24,-142.84 195.94,-136.05"/>
</g>
<!-- Node13 -->
<g id="node8" class="node">
<title>Node13</title>
<g id="a_node8"><a xlink:title=" ">
<polygon fill="white" stroke="#bfbfbf" points="223.5,-118 223.5,-137 303.5,-137 303.5,-118 223.5,-118"/>
<text text-anchor="middle" x="263.5" y="-125" font-family="Helvetica,sans-Serif" font-size="10.00">platform.hpp</text>
</a>
</g>
</g>
<!-- Node1&#45;&gt;Node13 -->
<g id="edge8" class="edge">
<title>Node1&#45;&gt;Node13</title>
<path fill="none" stroke="midnightblue" d="M370.59,-179.48C349.61,-169.49 314.65,-152.85 290.41,-141.31"/>
<polygon fill="midnightblue" stroke="midnightblue" points="291.91,-138.15 281.38,-137.01 288.9,-144.47 291.91,-138.15"/>
</g>
<!-- Node14 -->
<g id="node9" class="node">
<title>Node14</title>
<g id="a_node9"><a xlink:title=" ">
<polygon fill="white" stroke="#bfbfbf" points="322,-112.5 322,-142.5 455,-142.5 455,-112.5 322,-112.5"/>
<text text-anchor="start" x="330" y="-130.5" font-family="Helvetica,sans-Serif" font-size="10.00">emlabcpp/experimental</text>
<text text-anchor="middle" x="388.5" y="-119.5" font-family="Helvetica,sans-Serif" font-size="10.00">/cobs.h</text>
</a>
</g>
</g>
<!-- Node1&#45;&gt;Node14 -->
<g id="edge9" class="edge">
<title>Node1&#45;&gt;Node14</title>
<path fill="none" stroke="midnightblue" d="M388.5,-179.48C388.5,-172.47 388.5,-162.19 388.5,-152.7"/>
<polygon fill="midnightblue" stroke="midnightblue" points="392,-152.52 388.5,-142.52 385,-152.52 392,-152.52"/>
</g>
<!-- Node15 -->
<g id="node10" class="node">
<title>Node15</title>
<g id="a_node10"><a xlink:title=" ">
<polygon fill="white" stroke="#bfbfbf" points="473,-112.5 473,-142.5 606,-142.5 606,-112.5 473,-112.5"/>
<text text-anchor="start" x="481" y="-130.5" font-family="Helvetica,sans-Serif" font-size="10.00">emlabcpp/experimental</text>
<text text-anchor="middle" x="539.5" y="-119.5" font-family="Helvetica,sans-Serif" font-size="10.00">/function_view.h</text>
</a>
</g>
</g>
<!-- Node1&#45;&gt;Node15 -->
<g id="edge10" class="edge">
<title>Node1&#45;&gt;Node15</title>
<path fill="none" stroke="midnightblue" d="M410.13,-179.48C432.02,-170.85 466.5,-157.26 494.36,-146.29"/>
<polygon fill="midnightblue" stroke="midnightblue" points="495.89,-149.45 503.91,-142.52 493.33,-142.93 495.89,-149.45"/>
</g>
<!-- Node16 -->
<g id="node11" class="node">
<title>Node16</title>
<g id="a_node11"><a xlink:title=" ">
<polygon fill="white" stroke="#bfbfbf" points="624.5,-112.5 624.5,-142.5 760.5,-142.5 760.5,-112.5 624.5,-112.5"/>
<text text-anchor="start" x="632.5" y="-130.5" font-family="Helvetica,sans-Serif" font-size="10.00">emlabcpp/static_circular</text>
<text text-anchor="middle" x="692.5" y="-119.5" font-family="Helvetica,sans-Serif" font-size="10.00">_buffer.h</text>
</a>
</g>
</g>
<!-- Node1&#45;&gt;Node16 -->
<g id="edge11" class="edge">
<title>Node1&#45;&gt;Node16</title>
<path fill="none" stroke="midnightblue" d="M432.06,-179.48C479.55,-170.18 556.51,-155.12 614.48,-143.77"/>
<polygon fill="midnightblue" stroke="midnightblue" points="615.2,-147.2 624.34,-141.84 613.86,-140.33 615.2,-147.2"/>
</g>
<!-- Node3 -->
<g id="node3" class="node">
<title>Node3</title>
<g id="a_node3"><a xlink:href="base_8hpp.html" target="_top" xlink:title=" ">
<polygon fill="white" stroke="red" points="0,-56.5 0,-75.5 61,-75.5 61,-56.5 0,-56.5"/>
<text text-anchor="middle" x="30.5" y="-63.5" font-family="Helvetica,sans-Serif" font-size="10.00">base.hpp</text>
</a>
</g>
</g>
<!-- Node2&#45;&gt;Node3 -->
<g id="edge2" class="edge">
<title>Node2&#45;&gt;Node3</title>
<path fill="none" stroke="midnightblue" d="M134.16,-117.98C113.95,-108.03 80.31,-91.49 56.86,-79.96"/>
<polygon fill="midnightblue" stroke="midnightblue" points="58.32,-76.78 47.8,-75.51 55.23,-83.06 58.32,-76.78"/>
</g>
<!-- Node7 -->
<g id="node4" class="node">
<title>Node7</title>
<g id="a_node4"><a xlink:title=" ">
<polygon fill="white" stroke="#bfbfbf" points="34.5,-0.5 34.5,-19.5 84.5,-19.5 84.5,-0.5 34.5,-0.5"/>
<text text-anchor="middle" x="59.5" y="-7.5" font-family="Helvetica,sans-Serif" font-size="10.00">cstdint</text>
</a>
</g>
</g>
<!-- Node2&#45;&gt;Node7 -->
<g id="edge5" class="edge">
<title>Node2&#45;&gt;Node7</title>
<path fill="none" stroke="midnightblue" d="M143.73,-117.69C134.99,-107.72 120.45,-90.92 108.5,-76 95.57,-59.87 81.42,-40.96 71.67,-27.7"/>
<polygon fill="midnightblue" stroke="midnightblue" points="74.42,-25.54 65.69,-19.54 68.77,-29.67 74.42,-25.54"/>
</g>
<!-- Node10 -->
<g id="node5" class="node">
<title>Node10</title>
<g id="a_node5"><a xlink:href="status_8hpp.html" target="_top" xlink:title=" ">
<polygon fill="white" stroke="black" points="117.5,-56.5 117.5,-75.5 185.5,-75.5 185.5,-56.5 117.5,-56.5"/>
<text text-anchor="middle" x="151.5" y="-63.5" font-family="Helvetica,sans-Serif" font-size="10.00">status.hpp</text>
</a>
</g>
</g>
<!-- Node2&#45;&gt;Node10 -->
<g id="edge4" class="edge">
<title>Node2&#45;&gt;Node10</title>
<path fill="none" stroke="midnightblue" d="M151.5,-117.98C151.5,-109.58 151.5,-96.48 151.5,-85.66"/>
<polygon fill="midnightblue" stroke="midnightblue" points="155,-85.51 151.5,-75.51 148,-85.51 155,-85.51"/>
</g>
<!-- Node11 -->
<g id="node6" class="node">
<title>Node11</title>
<g id="a_node6"><a xlink:title=" ">
<polygon fill="white" stroke="#bfbfbf" points="203.5,-56.5 203.5,-75.5 307.5,-75.5 307.5,-56.5 203.5,-56.5"/>
<text text-anchor="middle" x="255.5" y="-63.5" font-family="Helvetica,sans-Serif" font-size="10.00">emlabcpp/result.h</text>
</a>
</g>
</g>
<!-- Node2&#45;&gt;Node11 -->
<g id="edge6" class="edge">
<title>Node2&#45;&gt;Node11</title>
<path fill="none" stroke="midnightblue" d="M166.4,-117.98C183.47,-108.21 211.66,-92.08 231.76,-80.58"/>
<polygon fill="midnightblue" stroke="midnightblue" points="233.69,-83.51 240.63,-75.51 230.21,-77.44 233.69,-83.51"/>
</g>
<!-- Node12 -->
<g id="node7" class="node">
<title>Node12</title>
<g id="a_node7"><a xlink:title=" ">
<polygon fill="white" stroke="#bfbfbf" points="325.5,-56.5 325.5,-75.5 365.5,-75.5 365.5,-56.5 325.5,-56.5"/>
<text text-anchor="middle" x="345.5" y="-63.5" font-family="Helvetica,sans-Serif" font-size="10.00">span</text>
</a>
</g>
</g>
<!-- Node2&#45;&gt;Node12 -->
<g id="edge7" class="edge">
<title>Node2&#45;&gt;Node12</title>
<path fill="none" stroke="midnightblue" d="M179.54,-117.96C210.51,-108.51 262.13,-92.74 315.58,-76.28"/>
<polygon fill="midnightblue" stroke="midnightblue" points="316.7,-79.59 325.22,-73.3 314.63,-72.9 316.7,-79.59"/>
</g>
<!-- Node3&#45;&gt;Node7 -->
<g id="edge3" class="edge">
<title>Node3&#45;&gt;Node7</title>
<path fill="none" stroke="midnightblue" d="M35.29,-56.08C39.26,-48.69 45.03,-37.95 49.93,-28.81"/>
<polygon fill="midnightblue" stroke="midnightblue" points="53.15,-30.22 54.8,-19.75 46.99,-26.91 53.15,-30.22"/>
</g>
</g>
</svg>
