<?xml version="1.0" encoding="UTF-8" standalone="no"?>
<!DOCTYPE svg PUBLIC "-//W3C//DTD SVG 1.1//EN"
 "http://www.w3.org/Graphics/SVG/1.1/DTD/svg11.dtd">
<!-- Generated by graphviz version 2.43.0 (0)
 -->
<!-- Title: src/drv/bits/cobs_rx_container.hpp Pages: 1 -->
<svg width="666pt" height="170pt"
 viewBox="0.00 0.00 665.50 170.00" xmlns="http://www.w3.org/2000/svg" xmlns:xlink="http://www.w3.org/1999/xlink">
<g id="graph0" class="graph" transform="scale(1 1) rotate(0) translate(4 166)">
<title>src/drv/bits/cobs_rx_container.hpp</title>
<!-- Node1 -->
<g id="Node000001" class="node">
<title>Node1</title>
<g id="a_Node000001"><a xlink:title=" ">
<polygon fill="#999999" stroke="#666666" points="518.5,-162 407.5,-162 407.5,-132 518.5,-132 518.5,-162"/>
<text text-anchor="start" x="415.5" y="-150" font-family="Helvetica,sans-Serif" font-size="10.00">src/drv/bits/cobs_rx</text>
<text text-anchor="middle" x="463" y="-139" font-family="Helvetica,sans-Serif" font-size="10.00">_container.hpp</text>
</a>
</g>
</g>
<!-- Node2 -->
<g id="Node000002" class="node">
<title>Node2</title>
<g id="a_Node000002"><a xlink:href="base_8hpp.html" target="_top" xlink:title=" ">
<polygon fill="white" stroke="#666666" points="306.5,-90.5 227.5,-90.5 227.5,-71.5 306.5,-71.5 306.5,-90.5"/>
<text text-anchor="middle" x="267" y="-78.5" font-family="Helvetica,sans-Serif" font-size="10.00">../../base.hpp</text>
</a>
</g>
</g>
<!-- Node1&#45;&gt;Node2 -->
<g id="edge1_Node000001_Node000002" class="edge">
<title>Node1&#45;&gt;Node2</title>
<g id="a_edge1_Node000001_Node000002"><a xlink:title=" ">
<path fill="none" stroke="#63b8ff" d="M419.99,-131.95C384.86,-120.48 335.79,-104.46 302.78,-93.68"/>
<polygon fill="#63b8ff" stroke="#63b8ff" points="303.68,-90.29 293.08,-90.52 301.5,-96.95 303.68,-90.29"/>
</a>
</g>
</g>
<!-- Node8 -->
<g id="Node000008" class="node">
<title>Node8</title>
<g id="a_Node000008"><a xlink:href="rx__buffer_8hpp.html" target="_top" xlink:title=" ">
<polygon fill="white" stroke="#666666" points="506,-90.5 420,-90.5 420,-71.5 506,-71.5 506,-90.5"/>
<text text-anchor="middle" x="463" y="-78.5" font-family="Helvetica,sans-Serif" font-size="10.00">./rx_buffer.hpp</text>
</a>
</g>
</g>
<!-- Node1&#45;&gt;Node8 -->
<g id="edge7_Node000001_Node000008" class="edge">
<title>Node1&#45;&gt;Node8</title>
<g id="a_edge7_Node000001_Node000008"><a xlink:title=" ">
<path fill="none" stroke="#63b8ff" d="M463,-131.8C463,-122.7 463,-110.79 463,-100.9"/>
<polygon fill="#63b8ff" stroke="#63b8ff" points="466.5,-100.84 463,-90.84 459.5,-100.84 466.5,-100.84"/>
</a>
</g>
</g>
<!-- Node10 -->
<g id="Node000010" class="node">
<title>Node10</title>
<g id="a_Node000010"><a xlink:title=" ">
<polygon fill="#e0e0e0" stroke="#999999" points="657.5,-96 524.5,-96 524.5,-66 657.5,-66 657.5,-96"/>
<text text-anchor="start" x="532.5" y="-84" font-family="Helvetica,sans-Serif" font-size="10.00">emlabcpp/experimental</text>
<text text-anchor="middle" x="591" y="-73" font-family="Helvetica,sans-Serif" font-size="10.00">/cobs.h</text>
</a>
</g>
</g>
<!-- Node1&#45;&gt;Node10 -->
<g id="edge9_Node000001_Node000010" class="edge">
<title>Node1&#45;&gt;Node10</title>
<g id="a_edge9_Node000001_Node000010"><a xlink:title=" ">
<path fill="none" stroke="#63b8ff" d="M491.09,-131.95C509.51,-122.74 533.81,-110.6 553.83,-100.59"/>
<polygon fill="#63b8ff" stroke="#63b8ff" points="555.6,-103.61 562.98,-96.01 552.47,-97.35 555.6,-103.61"/>
</a>
</g>
</g>
<!-- Node3 -->
<g id="Node000003" class="node">
<title>Node3</title>
<g id="a_Node000003"><a xlink:title=" ">
<polygon fill="#e0e0e0" stroke="#999999" points="50,-24.5 0,-24.5 0,-5.5 50,-5.5 50,-24.5"/>
<text text-anchor="middle" x="25" y="-12.5" font-family="Helvetica,sans-Serif" font-size="10.00">chrono</text>
</a>
</g>
</g>
<!-- Node2&#45;&gt;Node3 -->
<g id="edge2_Node000002_Node000003" class="edge">
<title>Node2&#45;&gt;Node3</title>
<g id="a_edge2_Node000002_Node000003"><a xlink:title=" ">
<path fill="none" stroke="#63b8ff" d="M227.39,-72.38C185.17,-63.82 116.59,-48.66 59,-30 57.33,-29.46 55.63,-28.87 53.92,-28.26"/>
<polygon fill="#63b8ff" stroke="#63b8ff" points="54.81,-24.85 44.23,-24.52 52.3,-31.38 54.81,-24.85"/>
</a>
</g>
</g>
<!-- Node4 -->
<g id="Node000004" class="node">
<title>Node4</title>
<g id="a_Node000004"><a xlink:title=" ">
<polygon fill="#e0e0e0" stroke="#999999" points="118,-24.5 68,-24.5 68,-5.5 118,-5.5 118,-24.5"/>
<text text-anchor="middle" x="93" y="-12.5" font-family="Helvetica,sans-Serif" font-size="10.00">cstdint</text>
</a>
</g>
</g>
<!-- Node2&#45;&gt;Node4 -->
<g id="edge3_Node000002_Node000004" class="edge">
<title>Node2&#45;&gt;Node4</title>
<g id="a_edge3_Node000002_Node000004"><a xlink:title=" ">
<path fill="none" stroke="#63b8ff" d="M241.83,-71.42C213.7,-61.73 166.87,-45.32 127,-30 125.62,-29.47 124.22,-28.92 122.8,-28.36"/>
<polygon fill="#63b8ff" stroke="#63b8ff" points="124.02,-25.08 113.43,-24.6 121.41,-31.58 124.02,-25.08"/>
</a>
</g>
</g>
<!-- Node5 -->
<g id="Node000005" class="node">
<title>Node5</title>
<g id="a_Node000005"><a xlink:title=" ">
<polygon fill="#e0e0e0" stroke="#999999" points="260,-24.5 136,-24.5 136,-5.5 260,-5.5 260,-24.5"/>
<text text-anchor="middle" x="198" y="-12.5" font-family="Helvetica,sans-Serif" font-size="10.00">emlabcpp/algorithm.h</text>
</a>
</g>
</g>
<!-- Node2&#45;&gt;Node5 -->
<g id="edge4_Node000002_Node000005" class="edge">
<title>Node2&#45;&gt;Node5</title>
<g id="a_edge4_Node000002_Node000005"><a xlink:title=" ">
<path fill="none" stroke="#63b8ff" d="M257.69,-71.37C246.85,-61.31 228.7,-44.48 215.26,-32.01"/>
<polygon fill="#63b8ff" stroke="#63b8ff" points="217.31,-29.14 207.6,-24.91 212.55,-34.27 217.31,-29.14"/>
</a>
</g>
</g>
<!-- Node6 -->
<g id="Node000006" class="node">
<title>Node6</title>
<g id="a_Node000006"><a xlink:title=" ">
<polygon fill="#e0e0e0" stroke="#999999" points="394,-24.5 278,-24.5 278,-5.5 394,-5.5 394,-24.5"/>
<text text-anchor="middle" x="336" y="-12.5" font-family="Helvetica,sans-Serif" font-size="10.00">emlabcpp/quantity.h</text>
</a>
</g>
</g>
<!-- Node2&#45;&gt;Node6 -->
<g id="edge5_Node000002_Node000006" class="edge">
<title>Node2&#45;&gt;Node6</title>
<g id="a_edge5_Node000002_Node000006"><a xlink:title=" ">
<path fill="none" stroke="#63b8ff" d="M276.31,-71.37C287.15,-61.31 305.3,-44.48 318.74,-32.01"/>
<polygon fill="#63b8ff" stroke="#63b8ff" points="321.45,-34.27 326.4,-24.91 316.69,-29.14 321.45,-34.27"/>
</a>
</g>
</g>
<!-- Node7 -->
<g id="Node000007" class="node">
<title>Node7</title>
<g id="a_Node000007"><a xlink:title=" ">
<polygon fill="#e0e0e0" stroke="#999999" points="471.5,-24.5 412.5,-24.5 412.5,-5.5 471.5,-5.5 471.5,-24.5"/>
<text text-anchor="middle" x="442" y="-12.5" font-family="Helvetica,sans-Serif" font-size="10.00">numbers</text>
</a>
</g>
</g>
<!-- Node2&#45;&gt;Node7 -->
<g id="edge6_Node000002_Node000007" class="edge">
<title>Node2&#45;&gt;Node7</title>
<g id="a_edge6_Node000002_Node000007"><a xlink:title=" ">
<path fill="none" stroke="#63b8ff" d="M290.6,-71.37C321.09,-60.22 374.32,-40.75 408.85,-28.12"/>
<polygon fill="#63b8ff" stroke="#63b8ff" points="410.3,-31.32 418.49,-24.6 407.9,-24.74 410.3,-31.32"/>
</a>
</g>
</g>
<!-- Node9 -->
<g id="Node000009" class="node">
<title>Node9</title>
<g id="a_Node000009"><a xlink:title=" ">
<polygon fill="#e0e0e0" stroke="#999999" points="626,-30 490,-30 490,0 626,0 626,-30"/>
<text text-anchor="start" x="498" y="-18" font-family="Helvetica,sans-Serif" font-size="10.00">emlabcpp/static_circular</text>
<text text-anchor="middle" x="558" y="-7" font-family="Helvetica,sans-Serif" font-size="10.00">_buffer.h</text>
</a>
</g>
</g>
<!-- Node8&#45;&gt;Node9 -->
<g id="edge8_Node000008_Node000009" class="edge">
<title>Node8&#45;&gt;Node9</title>
<g id="a_edge8_Node000008_Node000009"><a xlink:title=" ">
<path fill="none" stroke="#63b8ff" d="M475.81,-71.37C489.3,-62.28 511.01,-47.66 528.72,-35.72"/>
<polygon fill="#63b8ff" stroke="#63b8ff" points="530.71,-38.61 537.05,-30.12 526.8,-32.8 530.71,-38.61"/>
</a>
</g>
</g>
</g>
</svg>
