<?xml version="1.0" encoding="UTF-8" standalone="no"?>
<!DOCTYPE svg PUBLIC "-//W3C//DTD SVG 1.1//EN"
 "http://www.w3.org/Graphics/SVG/1.1/DTD/svg11.dtd">
<!-- Generated by graphviz version 2.43.0 (0)
 -->
<!-- Title: src/drv/cobs_uart.cpp Pages: 1 -->
<svg width="925pt" height="214pt"
 viewBox="0.00 0.00 924.50 214.00" xmlns="http://www.w3.org/2000/svg" xmlns:xlink="http://www.w3.org/1999/xlink">
<g id="graph0" class="graph" transform="scale(1 1) rotate(0) translate(4 210)">
<title>src/drv/cobs_uart.cpp</title>
<!-- Node1 -->
<g id="Node000001" class="node">
<title>Node1</title>
<g id="a_Node000001"><a xlink:title=" ">
<polygon fill="#999999" stroke="#666666" points="573,-206 453,-206 453,-187 573,-187 573,-206"/>
<text text-anchor="middle" x="513" y="-194" font-family="Helvetica,sans-Serif" font-size="10.00">src/drv/cobs_uart.cpp</text>
</a>
</g>
</g>
<!-- Node2 -->
<g id="Node000002" class="node">
<title>Node2</title>
<g id="a_Node000002"><a xlink:href="cobs__uart_8hpp.html" target="_top" xlink:title=" ">
<polygon fill="white" stroke="#666666" points="359.5,-151 268.5,-151 268.5,-132 359.5,-132 359.5,-151"/>
<text text-anchor="middle" x="314" y="-139" font-family="Helvetica,sans-Serif" font-size="10.00">./cobs_uart.hpp</text>
</a>
</g>
</g>
<!-- Node1&#45;&gt;Node2 -->
<g id="edge1_Node000001_Node000002" class="edge">
<title>Node1&#45;&gt;Node2</title>
<g id="a_edge1_Node000001_Node000002"><a xlink:title=" ">
<path fill="none" stroke="#63b8ff" d="M481.03,-186.98C447.18,-177.97 393.6,-163.7 356.29,-153.76"/>
<polygon fill="#63b8ff" stroke="#63b8ff" points="356.79,-150.27 346.22,-151.08 354.99,-157.04 356.79,-150.27"/>
</a>
</g>
</g>
<!-- Node7 -->
<g id="Node000007" class="node">
<title>Node7</title>
<g id="a_Node000007"><a xlink:href="base_8hpp.html" target="_top" xlink:title=" ">
<polygon fill="#fff0f0" stroke="red" points="620.5,-24.5 541.5,-24.5 541.5,-5.5 620.5,-5.5 620.5,-24.5"/>
<text text-anchor="middle" x="581" y="-12.5" font-family="Helvetica,sans-Serif" font-size="10.00">../../base.hpp</text>
</a>
</g>
</g>
<!-- Node1&#45;&gt;Node7 -->
<g id="edge15_Node000001_Node000007" class="edge">
<title>Node1&#45;&gt;Node7</title>
<g id="a_edge15_Node000001_Node000007"><a xlink:title=" ">
<path fill="none" stroke="#63b8ff" d="M534.54,-186.9C565.82,-173.09 622.63,-142.67 646,-96 651.97,-84.08 651.89,-77.96 646,-66 638.21,-50.18 622.74,-37.96 608.85,-29.57"/>
<polygon fill="#63b8ff" stroke="#63b8ff" points="610.47,-26.46 600.04,-24.6 607.03,-32.56 610.47,-26.46"/>
</a>
</g>
</g>
<!-- Node22 -->
<g id="Node000022" class="node">
<title>Node22</title>
<g id="a_Node000022"><a xlink:title=" ">
<polygon fill="#e0e0e0" stroke="#999999" points="104,-24.5 0,-24.5 0,-5.5 104,-5.5 104,-24.5"/>
<text text-anchor="middle" x="52" y="-12.5" font-family="Helvetica,sans-Serif" font-size="10.00">emlabcpp/result.h</text>
</a>
</g>
</g>
<!-- Node1&#45;&gt;Node22 -->
<g id="edge20_Node000001_Node000022" class="edge">
<title>Node1&#45;&gt;Node22</title>
<g id="a_edge20_Node000001_Node000022"><a xlink:title=" ">
<path fill="none" stroke="#63b8ff" d="M452.91,-192.56C334.41,-185.34 77.48,-162.25 25,-96 10.2,-77.31 25.1,-50.08 37.94,-32.7"/>
<polygon fill="#63b8ff" stroke="#63b8ff" points="40.87,-34.63 44.3,-24.61 35.37,-30.31 40.87,-34.63"/>
</a>
</g>
</g>
<!-- Node34 -->
<g id="Node000034" class="node">
<title>Node34</title>
<g id="a_Node000034"><a xlink:href="fw_2util_8hpp.html" target="_top" xlink:title=" ">
<polygon fill="white" stroke="#666666" points="804.5,-151 727.5,-151 727.5,-132 804.5,-132 804.5,-151"/>
<text text-anchor="middle" x="766" y="-139" font-family="Helvetica,sans-Serif" font-size="10.00">../fw/util.hpp</text>
</a>
</g>
</g>
<!-- Node1&#45;&gt;Node34 -->
<g id="edge16_Node000001_Node000034" class="edge">
<title>Node1&#45;&gt;Node34</title>
<g id="a_edge16_Node000001_Node000034"><a xlink:title=" ">
<path fill="none" stroke="#63b8ff" d="M553.65,-186.98C598.15,-177.66 669.5,-162.71 717.05,-152.75"/>
<polygon fill="#63b8ff" stroke="#63b8ff" points="718.04,-156.12 727.11,-150.65 716.61,-149.27 718.04,-156.12"/>
</a>
</g>
</g>
<!-- Node3 -->
<g id="Node000003" class="node">
<title>Node3</title>
<g id="a_Node000003"><a xlink:href="platform_8hpp.html" target="_top" xlink:title=" ">
<polygon fill="#fff0f0" stroke="red" points="273,-24.5 169,-24.5 169,-5.5 273,-5.5 273,-24.5"/>
<text text-anchor="middle" x="221" y="-12.5" font-family="Helvetica,sans-Serif" font-size="10.00">../plt/platform.hpp</text>
</a>
</g>
</g>
<!-- Node2&#45;&gt;Node3 -->
<g id="edge2_Node000002_Node000003" class="edge">
<title>Node2&#45;&gt;Node3</title>
<g id="a_edge2_Node000002_Node000003"><a xlink:title=" ">
<path fill="none" stroke="#63b8ff" d="M307.61,-131.94C292.34,-111.51 253.55,-59.57 233.47,-32.69"/>
<polygon fill="#63b8ff" stroke="#63b8ff" points="236.23,-30.53 227.44,-24.62 230.62,-34.72 236.23,-30.53"/>
</a>
</g>
</g>
<!-- Node6 -->
<g id="Node000006" class="node">
<title>Node6</title>
<g id="a_Node000006"><a xlink:href="cobs__rx__container_8hpp.html" target="_top" xlink:title=" ">
<polygon fill="#fff0f0" stroke="red" points="637,-90.5 485,-90.5 485,-71.5 637,-71.5 637,-90.5"/>
<text text-anchor="middle" x="561" y="-78.5" font-family="Helvetica,sans-Serif" font-size="10.00">./bits/cobs_rx_container.hpp</text>
</a>
</g>
</g>
<!-- Node2&#45;&gt;Node6 -->
<g id="edge3_Node000002_Node000006" class="edge">
<title>Node2&#45;&gt;Node6</title>
<g id="a_edge3_Node000002_Node000006"><a xlink:title=" ">
<path fill="none" stroke="#63b8ff" d="M349.92,-131.99C393.64,-121.64 467.53,-104.14 515.27,-92.83"/>
<polygon fill="#63b8ff" stroke="#63b8ff" points="516.12,-96.23 525.04,-90.52 514.5,-89.42 516.12,-96.23"/>
</a>
</g>
</g>
<!-- Node15 -->
<g id="Node000015" class="node">
<title>Node15</title>
<g id="a_Node000015"><a xlink:title=" ">
<polygon fill="#e0e0e0" stroke="#999999" points="523.5,-30 390.5,-30 390.5,0 523.5,0 523.5,-30"/>
<text text-anchor="start" x="398.5" y="-18" font-family="Helvetica,sans-Serif" font-size="10.00">emlabcpp/experimental</text>
<text text-anchor="middle" x="457" y="-7" font-family="Helvetica,sans-Serif" font-size="10.00">/cobs.h</text>
</a>
</g>
</g>
<!-- Node2&#45;&gt;Node15 -->
<g id="edge12_Node000002_Node000015" class="edge">
<title>Node2&#45;&gt;Node15</title>
<g id="a_edge12_Node000002_Node000015"><a xlink:title=" ">
<path fill="none" stroke="#63b8ff" d="M359.68,-134.7C385.81,-129.05 417.22,-117.91 437,-96 450.66,-80.86 455.31,-57.8 456.75,-40.33"/>
<polygon fill="#63b8ff" stroke="#63b8ff" points="460.25,-40.45 457.28,-30.28 453.26,-40.08 460.25,-40.45"/>
</a>
</g>
</g>
<!-- Node16 -->
<g id="Node000016" class="node">
<title>Node16</title>
<g id="a_Node000016"><a xlink:href="uart_8hpp.html" target="_top" xlink:title=" ">
<polygon fill="#fff0f0" stroke="red" points="129,-90.5 45,-90.5 45,-71.5 129,-71.5 129,-90.5"/>
<text text-anchor="middle" x="87" y="-78.5" font-family="Helvetica,sans-Serif" font-size="10.00">./bits/uart.hpp</text>
</a>
</g>
</g>
<!-- Node2&#45;&gt;Node16 -->
<g id="edge6_Node000002_Node000016" class="edge">
<title>Node2&#45;&gt;Node16</title>
<g id="a_edge6_Node000002_Node000016"><a xlink:title=" ">
<path fill="none" stroke="#63b8ff" d="M279.22,-131.93C243.67,-123.11 186.91,-108.9 138,-96 134.61,-95.11 131.1,-94.17 127.58,-93.22"/>
<polygon fill="#63b8ff" stroke="#63b8ff" points="128.29,-89.78 117.72,-90.54 126.45,-96.54 128.29,-89.78"/>
</a>
</g>
</g>
<!-- Node2&#45;&gt;Node22 -->
<g id="edge14_Node000002_Node000022" class="edge">
<title>Node2&#45;&gt;Node22</title>
<g id="a_edge14_Node000002_Node000022"><a xlink:title=" ">
<path fill="none" stroke="#63b8ff" d="M268.48,-140.07C197.45,-138.32 65.33,-130.4 36,-96 21.11,-78.54 31.47,-51.14 41.09,-33.38"/>
<polygon fill="#63b8ff" stroke="#63b8ff" points="44.18,-35.02 46.19,-24.62 38.13,-31.5 44.18,-35.02"/>
</a>
</g>
</g>
<!-- Node23 -->
<g id="Node000023" class="node">
<title>Node23</title>
<g id="a_Node000023"><a xlink:href="interfaces_8hpp.html" target="_top" xlink:title=" ">
<polygon fill="#fff0f0" stroke="red" points="239,-90.5 147,-90.5 147,-71.5 239,-71.5 239,-90.5"/>
<text text-anchor="middle" x="193" y="-78.5" font-family="Helvetica,sans-Serif" font-size="10.00">./interfaces.hpp</text>
</a>
</g>
</g>
<!-- Node2&#45;&gt;Node23 -->
<g id="edge9_Node000002_Node000023" class="edge">
<title>Node2&#45;&gt;Node23</title>
<g id="a_edge9_Node000002_Node000023"><a xlink:title=" ">
<path fill="none" stroke="#63b8ff" d="M296.41,-131.99C276.24,-122.25 242.98,-106.16 219.64,-94.88"/>
<polygon fill="#63b8ff" stroke="#63b8ff" points="221.14,-91.72 210.62,-90.52 218.1,-98.02 221.14,-91.72"/>
</a>
</g>
</g>
<!-- Node33 -->
<g id="Node000033" class="node">
<title>Node33</title>
<g id="a_Node000033"><a xlink:title=" ">
<polygon fill="#e0e0e0" stroke="#999999" points="428.5,-96 295.5,-96 295.5,-66 428.5,-66 428.5,-96"/>
<text text-anchor="start" x="303.5" y="-84" font-family="Helvetica,sans-Serif" font-size="10.00">emlabcpp/experimental</text>
<text text-anchor="middle" x="362" y="-73" font-family="Helvetica,sans-Serif" font-size="10.00">/function_view.h</text>
</a>
</g>
</g>
<!-- Node2&#45;&gt;Node33 -->
<g id="edge13_Node000002_Node000033" class="edge">
<title>Node2&#45;&gt;Node33</title>
<g id="a_edge13_Node000002_Node000033"><a xlink:title=" ">
<path fill="none" stroke="#63b8ff" d="M321.08,-131.87C327.11,-124.52 336.04,-113.63 344.02,-103.91"/>
<polygon fill="#63b8ff" stroke="#63b8ff" points="346.78,-106.07 350.42,-96.11 341.37,-101.63 346.78,-106.07"/>
</a>
</g>
</g>
<!-- Node6&#45;&gt;Node7 -->
<g id="edge4_Node000006_Node000007" class="edge">
<title>Node6&#45;&gt;Node7</title>
<g id="a_edge4_Node000006_Node000007"><a xlink:title=" ">
<path fill="none" stroke="#63b8ff" d="M563.7,-71.37C566.63,-61.97 571.42,-46.67 575.21,-34.53"/>
<polygon fill="#63b8ff" stroke="#63b8ff" points="578.57,-35.49 578.22,-24.91 571.89,-33.41 578.57,-35.49"/>
</a>
</g>
</g>
<!-- Node6&#45;&gt;Node15 -->
<g id="edge5_Node000006_Node000015" class="edge">
<title>Node6&#45;&gt;Node15</title>
<g id="a_edge5_Node000006_Node000015"><a xlink:title=" ">
<path fill="none" stroke="#63b8ff" d="M546.97,-71.37C532.07,-62.2 508.01,-47.39 488.52,-35.4"/>
<polygon fill="#63b8ff" stroke="#63b8ff" points="490.29,-32.38 479.94,-30.12 486.62,-38.34 490.29,-32.38"/>
</a>
</g>
</g>
<!-- Node16&#45;&gt;Node3 -->
<g id="edge7_Node000016_Node000003" class="edge">
<title>Node16&#45;&gt;Node3</title>
<g id="a_edge7_Node000016_Node000003"><a xlink:title=" ">
<path fill="none" stroke="#63b8ff" d="M105.07,-71.37C127.85,-60.49 167.22,-41.69 193.68,-29.05"/>
<polygon fill="#63b8ff" stroke="#63b8ff" points="195.27,-32.17 202.79,-24.7 192.25,-25.85 195.27,-32.17"/>
</a>
</g>
</g>
<!-- Node16&#45;&gt;Node22 -->
<g id="edge8_Node000016_Node000022" class="edge">
<title>Node16&#45;&gt;Node22</title>
<g id="a_edge8_Node000016_Node000022"><a xlink:title=" ">
<path fill="none" stroke="#63b8ff" d="M82.28,-71.37C77.04,-61.78 68.43,-46.05 61.73,-33.8"/>
<polygon fill="#63b8ff" stroke="#63b8ff" points="64.74,-32 56.87,-24.91 58.6,-35.36 64.74,-32"/>
</a>
</g>
</g>
<!-- Node23&#45;&gt;Node7 -->
<g id="edge10_Node000023_Node000007" class="edge">
<title>Node23&#45;&gt;Node7</title>
<g id="a_edge10_Node000023_Node000007"><a xlink:title=" ">
<path fill="none" stroke="#63b8ff" d="M239.35,-72.98C254.25,-70.74 270.82,-68.25 286,-66 395.3,-49.78 423.97,-53.23 532,-30 535.83,-29.18 539.8,-28.22 543.75,-27.2"/>
<polygon fill="#63b8ff" stroke="#63b8ff" points="544.7,-30.57 553.43,-24.57 542.87,-23.81 544.7,-30.57"/>
</a>
</g>
</g>
<!-- Node23&#45;&gt;Node22 -->
<g id="edge11_Node000023_Node000022" class="edge">
<title>Node23&#45;&gt;Node22</title>
<g id="a_edge11_Node000023_Node000022"><a xlink:title=" ">
<path fill="none" stroke="#63b8ff" d="M173.98,-71.37C149.91,-60.44 108.23,-41.52 80.39,-28.88"/>
<polygon fill="#63b8ff" stroke="#63b8ff" points="81.72,-25.65 71.16,-24.7 78.82,-32.02 81.72,-25.65"/>
</a>
</g>
</g>
<!-- Node35 -->
<g id="Node000035" class="node">
<title>Node35</title>
<g id="a_Node000035"><a xlink:title=" ">
<polygon fill="#e0e0e0" stroke="#999999" points="757,-90.5 693,-90.5 693,-71.5 757,-71.5 757,-90.5"/>
<text text-anchor="middle" x="725" y="-78.5" font-family="Helvetica,sans-Serif" font-size="10.00">algorithm</text>
</a>
</g>
</g>
<!-- Node34&#45;&gt;Node35 -->
<g id="edge17_Node000034_Node000035" class="edge">
<title>Node34&#45;&gt;Node35</title>
<g id="a_edge17_Node000034_Node000035"><a xlink:title=" ">
<path fill="none" stroke="#63b8ff" d="M759.95,-131.87C753.89,-123.23 744.41,-109.7 736.86,-98.92"/>
<polygon fill="#63b8ff" stroke="#63b8ff" points="739.68,-96.85 731.07,-90.67 733.95,-100.87 739.68,-96.85"/>
</a>
</g>
</g>
<!-- Node36 -->
<g id="Node000036" class="node">
<title>Node36</title>
<g id="a_Node000036"><a xlink:title=" ">
<polygon fill="#e0e0e0" stroke="#999999" points="825,-90.5 775,-90.5 775,-71.5 825,-71.5 825,-90.5"/>
<text text-anchor="middle" x="800" y="-78.5" font-family="Helvetica,sans-Serif" font-size="10.00">cstring</text>
</a>
</g>
</g>
<!-- Node34&#45;&gt;Node36 -->
<g id="edge18_Node000034_Node000036" class="edge">
<title>Node34&#45;&gt;Node36</title>
<g id="a_edge18_Node000034_Node000036"><a xlink:title=" ">
<path fill="none" stroke="#63b8ff" d="M771.02,-131.87C775.94,-123.4 783.59,-110.24 789.79,-99.57"/>
<polygon fill="#63b8ff" stroke="#63b8ff" points="792.96,-101.07 794.96,-90.67 786.91,-97.55 792.96,-101.07"/>
</a>
</g>
</g>
<!-- Node37 -->
<g id="Node000037" class="node">
<title>Node37</title>
<g id="a_Node000037"><a xlink:title=" ">
<polygon fill="#e0e0e0" stroke="#999999" points="916.5,-90.5 843.5,-90.5 843.5,-71.5 916.5,-71.5 916.5,-90.5"/>
<text text-anchor="middle" x="880" y="-78.5" font-family="Helvetica,sans-Serif" font-size="10.00">string_view</text>
</a>
</g>
</g>
<!-- Node34&#45;&gt;Node37 -->
<g id="edge19_Node000034_Node000037" class="edge">
<title>Node34&#45;&gt;Node37</title>
<g id="a_edge19_Node000034_Node000037"><a xlink:title=" ">
<path fill="none" stroke="#63b8ff" d="M782.82,-131.87C801.6,-122.23 832.2,-106.53 854.05,-95.31"/>
<polygon fill="#63b8ff" stroke="#63b8ff" points="855.81,-98.35 863.11,-90.67 852.61,-92.12 855.81,-98.35"/>
</a>
</g>
</g>
</g>
</svg>
