<?xml version="1.0" encoding="UTF-8" standalone="no"?>
<!DOCTYPE svg PUBLIC "-//W3C//DTD SVG 1.1//EN"
 "http://www.w3.org/Graphics/SVG/1.1/DTD/svg11.dtd">
<!-- Generated by graphviz version 2.43.0 (0)
 -->
<!-- Title: src/drv/cobs_uart.hpp Pages: 1 -->
<svg width="827pt" height="324pt"
 viewBox="0.00 0.00 826.50 324.00" xmlns="http://www.w3.org/2000/svg" xmlns:xlink="http://www.w3.org/1999/xlink">
<g id="graph0" class="graph" transform="scale(1 1) rotate(0) translate(4 320)">
<title>src/drv/cobs_uart.hpp</title>
<!-- Node1 -->
<g id="Node000001" class="node">
<title>Node1</title>
<g id="a_Node000001"><a xlink:title=" ">
<polygon fill="#999999" stroke="#666666" points="527.5,-316 406.5,-316 406.5,-297 527.5,-297 527.5,-316"/>
<text text-anchor="middle" x="467" y="-304" font-family="Helvetica,sans-Serif" font-size="10.00">src/drv/cobs_uart.hpp</text>
</a>
</g>
</g>
<!-- Node2 -->
<g id="Node000002" class="node">
<title>Node2</title>
<g id="a_Node000002"><a xlink:href="platform_8hpp.html" target="_top" xlink:title=" ">
<polygon fill="white" stroke="#666666" points="104,-255.5 0,-255.5 0,-236.5 104,-236.5 104,-255.5"/>
<text text-anchor="middle" x="52" y="-243.5" font-family="Helvetica,sans-Serif" font-size="10.00">../plt/platform.hpp</text>
</a>
</g>
</g>
<!-- Node1&#45;&gt;Node2 -->
<g id="edge1_Node000001_Node000002" class="edge">
<title>Node1&#45;&gt;Node2</title>
<g id="a_edge1_Node000001_Node000002"><a xlink:title=" ">
<path fill="none" stroke="#63b8ff" d="M406.66,-296.99C328.67,-286 193.54,-266.95 114.51,-255.81"/>
<polygon fill="#63b8ff" stroke="#63b8ff" points="114.6,-252.29 104.21,-254.36 113.62,-259.22 114.6,-252.29"/>
</a>
</g>
</g>
<!-- Node5 -->
<g id="Node000005" class="node">
<title>Node5</title>
<g id="a_Node000005"><a xlink:href="sentry_8hpp.html" target="_top" xlink:title=" ">
<polygon fill="white" stroke="#666666" points="667,-255.5 569,-255.5 569,-236.5 667,-236.5 667,-255.5"/>
<text text-anchor="middle" x="618" y="-243.5" font-family="Helvetica,sans-Serif" font-size="10.00">../sntr/sentry.hpp</text>
</a>
</g>
</g>
<!-- Node1&#45;&gt;Node5 -->
<g id="edge3_Node000001_Node000005" class="edge">
<title>Node1&#45;&gt;Node5</title>
<g id="a_edge3_Node000001_Node000005"><a xlink:title=" ">
<path fill="none" stroke="#63b8ff" d="M488.96,-296.99C514.68,-287.03 557.48,-270.45 586.68,-259.13"/>
<polygon fill="#63b8ff" stroke="#63b8ff" points="587.96,-262.39 596.02,-255.52 585.43,-255.87 587.96,-262.39"/>
</a>
</g>
</g>
<!-- Node16 -->
<g id="Node000016" class="node">
<title>Node16</title>
<g id="a_Node000016"><a xlink:href="cobs__rx__container_8h.html" target="_top" xlink:title=" ">
<polygon fill="white" stroke="#666666" points="341,-255.5 201,-255.5 201,-236.5 341,-236.5 341,-255.5"/>
<text text-anchor="middle" x="271" y="-243.5" font-family="Helvetica,sans-Serif" font-size="10.00">./bits/cobs_rx_container.h</text>
</a>
</g>
</g>
<!-- Node1&#45;&gt;Node16 -->
<g id="edge12_Node000001_Node000016" class="edge">
<title>Node1&#45;&gt;Node16</title>
<g id="a_edge12_Node000001_Node000016"><a xlink:title=" ">
<path fill="none" stroke="#63b8ff" d="M438.5,-296.99C404.39,-286.81 347.13,-269.72 309.21,-258.4"/>
<polygon fill="#63b8ff" stroke="#63b8ff" points="310.12,-255.02 299.53,-255.52 308.12,-261.73 310.12,-255.02"/>
</a>
</g>
</g>
<!-- Node17 -->
<g id="Node000017" class="node">
<title>Node17</title>
<g id="a_Node000017"><a xlink:title=" ">
<polygon fill="#e0e0e0" stroke="#999999" points="402.5,-195 269.5,-195 269.5,-165 402.5,-165 402.5,-195"/>
<text text-anchor="start" x="277.5" y="-183" font-family="Helvetica,sans-Serif" font-size="10.00">emlabcpp/experimental</text>
<text text-anchor="middle" x="336" y="-172" font-family="Helvetica,sans-Serif" font-size="10.00">/cobs.h</text>
</a>
</g>
</g>
<!-- Node1&#45;&gt;Node17 -->
<g id="edge24_Node000001_Node000017" class="edge">
<title>Node1&#45;&gt;Node17</title>
<g id="a_edge24_Node000001_Node000017"><a xlink:title=" ">
<path fill="none" stroke="#63b8ff" d="M458,-296.94C437.62,-277.58 387.47,-229.92 358.21,-202.11"/>
<polygon fill="#63b8ff" stroke="#63b8ff" points="360.56,-199.51 350.9,-195.16 355.74,-204.59 360.56,-199.51"/>
</a>
</g>
</g>
<!-- Node19 -->
<g id="Node000019" class="node">
<title>Node19</title>
<g id="a_Node000019"><a xlink:href="interfaces_8hpp.html" target="_top" xlink:title=" ">
<polygon fill="white" stroke="#666666" points="513,-189.5 421,-189.5 421,-170.5 513,-170.5 513,-189.5"/>
<text text-anchor="middle" x="467" y="-177.5" font-family="Helvetica,sans-Serif" font-size="10.00">./interfaces.hpp</text>
</a>
</g>
</g>
<!-- Node1&#45;&gt;Node19 -->
<g id="edge16_Node000001_Node000019" class="edge">
<title>Node1&#45;&gt;Node19</title>
<g id="a_edge16_Node000001_Node000019"><a xlink:title=" ">
<path fill="none" stroke="#63b8ff" d="M467,-296.94C467,-277.04 467,-227.26 467,-199.85"/>
<polygon fill="#63b8ff" stroke="#63b8ff" points="470.5,-199.62 467,-189.62 463.5,-199.62 470.5,-199.62"/>
</a>
</g>
</g>
<!-- Node28 -->
<g id="Node000028" class="node">
<title>Node28</title>
<g id="a_Node000028"><a xlink:title=" ">
<polygon fill="#e0e0e0" stroke="#999999" points="627,-129 523,-129 523,-110 627,-110 627,-129"/>
<text text-anchor="middle" x="575" y="-117" font-family="Helvetica,sans-Serif" font-size="10.00">emlabcpp/result.h</text>
</a>
</g>
</g>
<!-- Node1&#45;&gt;Node28 -->
<g id="edge26_Node000001_Node000028" class="edge">
<title>Node1&#45;&gt;Node28</title>
<g id="a_edge26_Node000001_Node000028"><a xlink:title=" ">
<path fill="none" stroke="#63b8ff" d="M472.21,-296.58C489,-267.82 541.9,-177.21 564.54,-138.41"/>
<polygon fill="#63b8ff" stroke="#63b8ff" points="567.82,-139.73 569.84,-129.33 561.78,-136.2 567.82,-139.73"/>
</a>
</g>
</g>
<!-- Node30 -->
<g id="Node000030" class="node">
<title>Node30</title>
<g id="a_Node000030"><a xlink:title=" ">
<polygon fill="#e0e0e0" stroke="#999999" points="818.5,-261 685.5,-261 685.5,-231 818.5,-231 818.5,-261"/>
<text text-anchor="start" x="693.5" y="-249" font-family="Helvetica,sans-Serif" font-size="10.00">emlabcpp/experimental</text>
<text text-anchor="middle" x="752" y="-238" font-family="Helvetica,sans-Serif" font-size="10.00">/function_view.h</text>
</a>
</g>
</g>
<!-- Node1&#45;&gt;Node30 -->
<g id="edge25_Node000001_Node000030" class="edge">
<title>Node1&#45;&gt;Node30</title>
<g id="a_edge25_Node000001_Node000030"><a xlink:title=" ">
<path fill="none" stroke="#63b8ff" d="M508.44,-296.99C552.12,-288.03 621.88,-273.71 675.57,-262.69"/>
<polygon fill="#63b8ff" stroke="#63b8ff" points="676.31,-266.11 685.4,-260.67 674.9,-259.25 676.31,-266.11"/>
</a>
</g>
</g>
<!-- Node3 -->
<g id="Node000003" class="node">
<title>Node3</title>
<g id="a_Node000003"><a xlink:href="hal_8hpp.html" target="_top" xlink:title=" ">
<polygon fill="#fff0f0" stroke="red" points="58.5,-189.5 5.5,-189.5 5.5,-170.5 58.5,-170.5 58.5,-189.5"/>
<text text-anchor="middle" x="32" y="-177.5" font-family="Helvetica,sans-Serif" font-size="10.00">hal.hpp</text>
</a>
</g>
</g>
<!-- Node2&#45;&gt;Node3 -->
<g id="edge2_Node000002_Node000003" class="edge">
<title>Node2&#45;&gt;Node3</title>
<g id="a_edge2_Node000002_Node000003"><a xlink:title=" ">
<path fill="none" stroke="#63b8ff" d="M49.3,-236.37C46.37,-226.97 41.58,-211.67 37.79,-199.53"/>
<polygon fill="#63b8ff" stroke="#63b8ff" points="41.11,-198.41 34.78,-189.91 34.43,-200.49 41.11,-198.41"/>
</a>
</g>
</g>
<!-- Node6 -->
<g id="Node000006" class="node">
<title>Node6</title>
<g id="a_Node000006"><a xlink:href="sntr_2base_8hpp.html" target="_top" xlink:title=" ">
<polygon fill="#fff0f0" stroke="red" points="712.5,-129 645.5,-129 645.5,-110 712.5,-110 712.5,-129"/>
<text text-anchor="middle" x="679" y="-117" font-family="Helvetica,sans-Serif" font-size="10.00">./base.hpp</text>
</a>
</g>
</g>
<!-- Node5&#45;&gt;Node6 -->
<g id="edge4_Node000005_Node000006" class="edge">
<title>Node5&#45;&gt;Node6</title>
<g id="a_edge4_Node000005_Node000006"><a xlink:title=" ">
<path fill="none" stroke="#63b8ff" d="M611.94,-236.46C601.88,-221.14 584.15,-188.41 598,-165 606.86,-150.02 622.76,-139.74 638.14,-132.88"/>
<polygon fill="#63b8ff" stroke="#63b8ff" points="639.64,-136.04 647.58,-129.03 637,-129.56 639.64,-136.04"/>
</a>
</g>
</g>
<!-- Node14 -->
<g id="Node000014" class="node">
<title>Node14</title>
<g id="a_Node000014"><a xlink:title=" ">
<polygon fill="#e0e0e0" stroke="#999999" points="754.5,-74 703.5,-74 703.5,-55 754.5,-55 754.5,-74"/>
<text text-anchor="middle" x="729" y="-62" font-family="Helvetica,sans-Serif" font-size="10.00">variant</text>
</a>
</g>
</g>
<!-- Node5&#45;&gt;Node14 -->
<g id="edge11_Node000005_Node000014" class="edge">
<title>Node5&#45;&gt;Node14</title>
<g id="a_edge11_Node000005_Node000014"><a xlink:title=" ">
<path fill="none" stroke="#63b8ff" d="M647.98,-236.45C687.62,-224.84 753.3,-204.47 760,-195 784.39,-160.55 758.22,-109.37 741.21,-82.85"/>
<polygon fill="#63b8ff" stroke="#63b8ff" points="743.93,-80.63 735.46,-74.27 738.12,-84.52 743.93,-80.63"/>
</a>
</g>
</g>
<!-- Node15 -->
<g id="Node000015" class="node">
<title>Node15</title>
<g id="a_Node000015"><a xlink:href="central__sentry__iface_8hpp.html" target="_top" xlink:title=" ">
<polygon fill="white" stroke="#666666" points="750.5,-189.5 607.5,-189.5 607.5,-170.5 750.5,-170.5 750.5,-189.5"/>
<text text-anchor="middle" x="679" y="-177.5" font-family="Helvetica,sans-Serif" font-size="10.00">./central_sentry_iface.hpp</text>
</a>
</g>
</g>
<!-- Node5&#45;&gt;Node15 -->
<g id="edge9_Node000005_Node000015" class="edge">
<title>Node5&#45;&gt;Node15</title>
<g id="a_edge9_Node000005_Node000015"><a xlink:title=" ">
<path fill="none" stroke="#63b8ff" d="M626.23,-236.37C635.72,-226.4 651.56,-209.79 663.41,-197.36"/>
<polygon fill="#63b8ff" stroke="#63b8ff" points="666.15,-199.56 670.51,-189.91 661.08,-194.73 666.15,-199.56"/>
</a>
</g>
</g>
<!-- Node7 -->
<g id="Node000007" class="node">
<title>Node7</title>
<g id="a_Node000007"><a xlink:href="base_2base_8hpp.html" target="_top" xlink:title=" ">
<polygon fill="#fff0f0" stroke="red" points="276,-74 180,-74 180,-55 276,-55 276,-74"/>
<text text-anchor="middle" x="228" y="-62" font-family="Helvetica,sans-Serif" font-size="10.00">../base/base.hpp</text>
</a>
</g>
</g>
<!-- Node6&#45;&gt;Node7 -->
<g id="edge5_Node000006_Node000007" class="edge">
<title>Node6&#45;&gt;Node7</title>
<g id="a_edge5_Node000006_Node000007"><a xlink:title=" ">
<path fill="none" stroke="#63b8ff" d="M645.25,-111.54C642.13,-110.98 639.01,-110.46 636,-110 512.14,-91.04 365.92,-77.13 286.51,-70.28"/>
<polygon fill="#63b8ff" stroke="#63b8ff" points="286.49,-66.76 276.22,-69.4 285.89,-73.74 286.49,-66.76"/>
</a>
</g>
</g>
<!-- Node9 -->
<g id="Node000009" class="node">
<title>Node9</title>
<g id="a_Node000009"><a xlink:title=" ">
<polygon fill="#e0e0e0" stroke="#999999" points="520,-19 470,-19 470,0 520,0 520,-19"/>
<text text-anchor="middle" x="495" y="-7" font-family="Helvetica,sans-Serif" font-size="10.00">cstdint</text>
</a>
</g>
</g>
<!-- Node6&#45;&gt;Node9 -->
<g id="edge7_Node000006_Node000009" class="edge">
<title>Node6&#45;&gt;Node9</title>
<g id="a_edge7_Node000006_Node000009"><a xlink:title=" ">
<path fill="none" stroke="#63b8ff" d="M664.25,-109.84C632.41,-91.16 557.01,-46.9 518.51,-24.3"/>
<polygon fill="#63b8ff" stroke="#63b8ff" points="519.96,-21.09 509.56,-19.05 516.41,-27.13 519.96,-21.09"/>
</a>
</g>
</g>
<!-- Node6&#45;&gt;Node14 -->
<g id="edge8_Node000006_Node000014" class="edge">
<title>Node6&#45;&gt;Node14</title>
<g id="a_edge8_Node000006_Node000014"><a xlink:title=" ">
<path fill="none" stroke="#63b8ff" d="M687.26,-109.75C694.46,-102.11 705.11,-90.82 713.85,-81.56"/>
<polygon fill="#63b8ff" stroke="#63b8ff" points="716.58,-83.76 720.9,-74.09 711.49,-78.96 716.58,-83.76"/>
</a>
</g>
</g>
<!-- Node7&#45;&gt;Node9 -->
<g id="edge6_Node000007_Node000009" class="edge">
<title>Node7&#45;&gt;Node9</title>
<g id="a_edge6_Node000007_Node000009"><a xlink:title=" ">
<path fill="none" stroke="#63b8ff" d="M270.9,-54.98C323.36,-44.57 411.17,-27.14 459.83,-17.48"/>
<polygon fill="#63b8ff" stroke="#63b8ff" points="460.76,-20.87 469.89,-15.49 459.39,-14 460.76,-20.87"/>
</a>
</g>
</g>
<!-- Node15&#45;&gt;Node6 -->
<g id="edge10_Node000015_Node000006" class="edge">
<title>Node15&#45;&gt;Node6</title>
<g id="a_edge10_Node000015_Node000006"><a xlink:title=" ">
<path fill="none" stroke="#63b8ff" d="M679,-170.37C679,-162.25 679,-149.81 679,-139.39"/>
<polygon fill="#63b8ff" stroke="#63b8ff" points="682.5,-139.17 679,-129.17 675.5,-139.17 682.5,-139.17"/>
</a>
</g>
</g>
<!-- Node16&#45;&gt;Node7 -->
<g id="edge13_Node000016_Node000007" class="edge">
<title>Node16&#45;&gt;Node7</title>
<g id="a_edge13_Node000016_Node000007"><a xlink:title=" ">
<path fill="none" stroke="#63b8ff" d="M200.59,-242.35C166.25,-237.06 127.76,-224.33 106,-195 71.55,-148.56 152.71,-100.8 198.83,-78.48"/>
<polygon fill="#63b8ff" stroke="#63b8ff" points="200.53,-81.54 208.08,-74.11 197.54,-75.21 200.53,-81.54"/>
</a>
</g>
</g>
<!-- Node16&#45;&gt;Node17 -->
<g id="edge14_Node000016_Node000017" class="edge">
<title>Node16&#45;&gt;Node17</title>
<g id="a_edge14_Node000016_Node000017"><a xlink:title=" ">
<path fill="none" stroke="#63b8ff" d="M279.77,-236.37C288.52,-227.75 302.33,-214.15 314.07,-202.59"/>
<polygon fill="#63b8ff" stroke="#63b8ff" points="316.75,-204.87 321.42,-195.36 311.83,-199.88 316.75,-204.87"/>
</a>
</g>
</g>
<!-- Node18 -->
<g id="Node000018" class="node">
<title>Node18</title>
<g id="a_Node000018"><a xlink:title=" ">
<polygon fill="#e0e0e0" stroke="#999999" points="251,-195 115,-195 115,-165 251,-165 251,-195"/>
<text text-anchor="start" x="123" y="-183" font-family="Helvetica,sans-Serif" font-size="10.00">emlabcpp/static_circular</text>
<text text-anchor="middle" x="183" y="-172" font-family="Helvetica,sans-Serif" font-size="10.00">_buffer.h</text>
</a>
</g>
</g>
<!-- Node16&#45;&gt;Node18 -->
<g id="edge15_Node000016_Node000018" class="edge">
<title>Node16&#45;&gt;Node18</title>
<g id="a_edge15_Node000016_Node000018"><a xlink:title=" ">
<path fill="none" stroke="#63b8ff" d="M259.13,-236.37C246.75,-227.36 226.89,-212.92 210.57,-201.05"/>
<polygon fill="#63b8ff" stroke="#63b8ff" points="212.55,-198.17 202.41,-195.12 208.44,-203.83 212.55,-198.17"/>
</a>
</g>
</g>
<!-- Node19&#45;&gt;Node7 -->
<g id="edge17_Node000019_Node000007" class="edge">
<title>Node19&#45;&gt;Node7</title>
<g id="a_edge17_Node000019_Node000007"><a xlink:title=" ">
<path fill="none" stroke="#63b8ff" d="M435.13,-170.49C427.28,-168.54 418.86,-166.58 411,-165 359.21,-154.58 210.41,-169.09 176,-129 161.59,-112.22 183.78,-92.44 203.47,-79.47"/>
<polygon fill="#63b8ff" stroke="#63b8ff" points="205.57,-82.29 212.21,-74.03 201.87,-76.35 205.57,-82.29"/>
</a>
</g>
</g>
<!-- Node19&#45;&gt;Node9 -->
<g id="edge20_Node000019_Node000009" class="edge">
<title>Node19&#45;&gt;Node9</title>
<g id="a_edge20_Node000019_Node000009"><a xlink:title=" ">
<path fill="none" stroke="#63b8ff" d="M468.64,-170.16C470.49,-160.17 473.54,-143.43 476,-129 482.01,-93.7 488.51,-52.38 492.14,-29.04"/>
<polygon fill="#63b8ff" stroke="#63b8ff" points="495.6,-29.55 493.67,-19.13 488.68,-28.48 495.6,-29.55"/>
</a>
</g>
</g>
<!-- Node20 -->
<g id="Node000020" class="node">
<title>Node20</title>
<g id="a_Node000020"><a xlink:href="map_8hpp.html" target="_top" xlink:title=" ">
<polygon fill="#fff0f0" stroke="red" points="271,-129 185,-129 185,-110 271,-110 271,-129"/>
<text text-anchor="middle" x="228" y="-117" font-family="Helvetica,sans-Serif" font-size="10.00">../cfg/map.hpp</text>
</a>
</g>
</g>
<!-- Node19&#45;&gt;Node20 -->
<g id="edge18_Node000019_Node000020" class="edge">
<title>Node19&#45;&gt;Node20</title>
<g id="a_edge18_Node000019_Node000020"><a xlink:title=" ">
<path fill="none" stroke="#63b8ff" d="M432.95,-170.45C425.71,-168.64 418.1,-166.75 411,-165 364.14,-153.44 310.47,-140.42 273.43,-131.46"/>
<polygon fill="#63b8ff" stroke="#63b8ff" points="273.98,-127.99 263.44,-129.05 272.34,-134.8 273.98,-127.99"/>
</a>
</g>
</g>
<!-- Node27 -->
<g id="Node000027" class="node">
<title>Node27</title>
<g id="a_Node000027"><a xlink:title=" ">
<polygon fill="#e0e0e0" stroke="#999999" points="408.5,-129 289.5,-129 289.5,-110 408.5,-110 408.5,-129"/>
<text text-anchor="middle" x="349" y="-117" font-family="Helvetica,sans-Serif" font-size="10.00">emlabcpp/outcome.h</text>
</a>
</g>
</g>
<!-- Node19&#45;&gt;Node27 -->
<g id="edge21_Node000019_Node000027" class="edge">
<title>Node19&#45;&gt;Node27</title>
<g id="a_edge21_Node000019_Node000027"><a xlink:title=" ">
<path fill="none" stroke="#63b8ff" d="M449.84,-170.49C430.27,-160.79 398.03,-144.81 375.28,-133.53"/>
<polygon fill="#63b8ff" stroke="#63b8ff" points="376.69,-130.32 366.18,-129.02 373.58,-136.59 376.69,-130.32"/>
</a>
</g>
</g>
<!-- Node19&#45;&gt;Node28 -->
<g id="edge22_Node000019_Node000028" class="edge">
<title>Node19&#45;&gt;Node28</title>
<g id="a_edge22_Node000019_Node000028"><a xlink:title=" ">
<path fill="none" stroke="#63b8ff" d="M482.94,-170.37C500.64,-160.78 529.46,-145.17 550.14,-133.97"/>
<polygon fill="#63b8ff" stroke="#63b8ff" points="551.87,-137.01 559,-129.17 548.54,-130.85 551.87,-137.01"/>
</a>
</g>
</g>
<!-- Node29 -->
<g id="Node000029" class="node">
<title>Node29</title>
<g id="a_Node000029"><a xlink:title=" ">
<polygon fill="#e0e0e0" stroke="#999999" points="467,-129 427,-129 427,-110 467,-110 467,-129"/>
<text text-anchor="middle" x="447" y="-117" font-family="Helvetica,sans-Serif" font-size="10.00">span</text>
</a>
</g>
</g>
<!-- Node19&#45;&gt;Node29 -->
<g id="edge23_Node000019_Node000029" class="edge">
<title>Node19&#45;&gt;Node29</title>
<g id="a_edge23_Node000019_Node000029"><a xlink:title=" ">
<path fill="none" stroke="#63b8ff" d="M464.05,-170.37C461.21,-162.07 456.84,-149.28 453.23,-138.72"/>
<polygon fill="#63b8ff" stroke="#63b8ff" points="456.51,-137.5 449.96,-129.17 449.89,-139.76 456.51,-137.5"/>
</a>
</g>
</g>
<!-- Node20&#45;&gt;Node7 -->
<g id="edge19_Node000020_Node000007" class="edge">
<title>Node20&#45;&gt;Node7</title>
<g id="a_edge19_Node000020_Node000007"><a xlink:title=" ">
<path fill="none" stroke="#63b8ff" d="M228,-109.75C228,-102.8 228,-92.85 228,-84.13"/>
<polygon fill="#63b8ff" stroke="#63b8ff" points="231.5,-84.09 228,-74.09 224.5,-84.09 231.5,-84.09"/>
</a>
</g>
</g>
</g>
</svg>
