<?xml version="1.0" encoding="UTF-8" standalone="no"?>
<!DOCTYPE svg PUBLIC "-//W3C//DTD SVG 1.1//EN"
 "http://www.w3.org/Graphics/SVG/1.1/DTD/svg11.dtd">
<!-- Generated by graphviz version 2.43.0 (0)
 -->
<!-- Title: src/fw/drivers/comms.hpp Pages: 1 -->
<svg width="979pt" height="263pt"
 viewBox="0.00 0.00 978.89 263.00" xmlns="http://www.w3.org/2000/svg" xmlns:xlink="http://www.w3.org/1999/xlink">
<g id="graph0" class="graph" transform="scale(1 1) rotate(0) translate(4 259)">
<title>src/fw/drivers/comms.hpp</title>
<polygon fill="white" stroke="transparent" points="-4,4 -4,-259 974.89,-259 974.89,4 -4,4"/>
<!-- Node1 -->
<g id="node1" class="node">
<title>Node1</title>
<g id="a_node1"><a xlink:title=" ">
<polygon fill="#bfbfbf" stroke="black" points="468.39,-235.5 468.39,-254.5 610.39,-254.5 610.39,-235.5 468.39,-235.5"/>
<text text-anchor="middle" x="539.39" y="-242.5" font-family="Helvetica,sans-Serif" font-size="10.00">src/fw/drivers/comms.hpp</text>
</a>
</g>
</g>
<!-- Node2 -->
<g id="node2" class="node">
<title>Node2</title>
<g id="a_node2"><a xlink:href="protocol_8hpp.html" target="_top" xlink:title=" ">
<polygon fill="white" stroke="black" points="150.89,-174 150.89,-193 227.89,-193 227.89,-174 150.89,-174"/>
<text text-anchor="middle" x="189.39" y="-181" font-family="Helvetica,sans-Serif" font-size="10.00">protocol.hpp</text>
</a>
</g>
</g>
<!-- Node1&#45;&gt;Node2 -->
<g id="edge1" class="edge">
<title>Node1&#45;&gt;Node2</title>
<path fill="none" stroke="midnightblue" d="M468.37,-236.38C406.83,-229.07 315.62,-216.55 237.39,-199 233.28,-198.08 229.01,-196.99 224.79,-195.82"/>
<polygon fill="midnightblue" stroke="midnightblue" points="225.69,-192.44 215.11,-193.02 223.74,-199.17 225.69,-192.44"/>
</g>
<!-- Node17 -->
<g id="node10" class="node">
<title>Node17</title>
<g id="a_node10"><a xlink:title=" ">
<polygon fill="white" stroke="#bfbfbf" points="245.89,-168.5 245.89,-198.5 378.89,-198.5 378.89,-168.5 245.89,-168.5"/>
<text text-anchor="start" x="253.89" y="-186.5" font-family="Helvetica,sans-Serif" font-size="10.00">emlabcpp/experimental</text>
<text text-anchor="middle" x="312.39" y="-175.5" font-family="Helvetica,sans-Serif" font-size="10.00">/cobs.h</text>
</a>
</g>
</g>
<!-- Node1&#45;&gt;Node17 -->
<g id="edge11" class="edge">
<title>Node1&#45;&gt;Node17</title>
<path fill="none" stroke="midnightblue" d="M506.86,-235.48C472.74,-226.53 418.25,-212.25 375.62,-201.07"/>
<polygon fill="midnightblue" stroke="midnightblue" points="376.45,-197.67 365.89,-198.52 374.67,-204.44 376.45,-197.67"/>
</g>
<!-- Node18 -->
<g id="node11" class="node">
<title>Node18</title>
<g id="a_node11"><a xlink:title=" ">
<polygon fill="white" stroke="#bfbfbf" points="396.89,-168.5 396.89,-198.5 529.89,-198.5 529.89,-168.5 396.89,-168.5"/>
<text text-anchor="start" x="404.89" y="-186.5" font-family="Helvetica,sans-Serif" font-size="10.00">emlabcpp/experimental</text>
<text text-anchor="middle" x="463.39" y="-175.5" font-family="Helvetica,sans-Serif" font-size="10.00">/function_view.h</text>
</a>
</g>
</g>
<!-- Node1&#45;&gt;Node18 -->
<g id="edge12" class="edge">
<title>Node1&#45;&gt;Node18</title>
<path fill="none" stroke="midnightblue" d="M528.5,-235.48C518.3,-227.49 502.67,-215.25 489.28,-204.77"/>
<polygon fill="midnightblue" stroke="midnightblue" points="491.33,-201.93 481.3,-198.52 487.02,-207.44 491.33,-201.93"/>
</g>
<!-- Node19 -->
<g id="node12" class="node">
<title>Node19</title>
<g id="a_node12"><a xlink:title=" ">
<polygon fill="white" stroke="#bfbfbf" points="548.39,-168.5 548.39,-198.5 684.39,-198.5 684.39,-168.5 548.39,-168.5"/>
<text text-anchor="start" x="556.39" y="-186.5" font-family="Helvetica,sans-Serif" font-size="10.00">emlabcpp/static_circular</text>
<text text-anchor="middle" x="616.39" y="-175.5" font-family="Helvetica,sans-Serif" font-size="10.00">_buffer.h</text>
</a>
</g>
</g>
<!-- Node1&#45;&gt;Node19 -->
<g id="edge13" class="edge">
<title>Node1&#45;&gt;Node19</title>
<path fill="none" stroke="midnightblue" d="M550.42,-235.48C560.75,-227.49 576.59,-215.25 590.16,-204.77"/>
<polygon fill="midnightblue" stroke="midnightblue" points="592.47,-207.41 598.24,-198.52 588.19,-201.87 592.47,-207.41"/>
</g>
<!-- Node20 -->
<g id="node13" class="node">
<title>Node20</title>
<g id="a_node13"><a xlink:title=" ">
<polygon fill="white" stroke="#bfbfbf" points="702.89,-174 702.89,-193 851.89,-193 851.89,-174 702.89,-174"/>
<text text-anchor="middle" x="777.39" y="-181" font-family="Helvetica,sans-Serif" font-size="10.00">emlabcpp/static_function.h</text>
</a>
</g>
</g>
<!-- Node1&#45;&gt;Node20 -->
<g id="edge14" class="edge">
<title>Node1&#45;&gt;Node20</title>
<path fill="none" stroke="midnightblue" d="M573.49,-235.48C615.64,-224.94 687.44,-206.99 733.62,-195.44"/>
<polygon fill="midnightblue" stroke="midnightblue" points="734.5,-198.83 743.35,-193.01 732.8,-192.04 734.5,-198.83"/>
</g>
<!-- Node21 -->
<g id="node14" class="node">
<title>Node21</title>
<g id="a_node14"><a xlink:title=" ">
<polygon fill="white" stroke="#bfbfbf" points="869.89,-174 869.89,-193 970.89,-193 970.89,-174 869.89,-174"/>
<text text-anchor="middle" x="920.39" y="-181" font-family="Helvetica,sans-Serif" font-size="10.00">stm32g4xx_hal.h</text>
</a>
</g>
</g>
<!-- Node1&#45;&gt;Node21 -->
<g id="edge15" class="edge">
<title>Node1&#45;&gt;Node21</title>
<path fill="none" stroke="midnightblue" d="M610.4,-236.19C675.87,-228.49 775.61,-215.49 861.39,-199 866.89,-197.94 872.65,-196.7 878.32,-195.39"/>
<polygon fill="midnightblue" stroke="midnightblue" points="879.45,-198.72 888.37,-193 877.83,-191.91 879.45,-198.72"/>
</g>
<!-- Node3 -->
<g id="node3" class="node">
<title>Node3</title>
<g id="a_node3"><a xlink:href="base_8hpp.html" target="_top" xlink:title=" ">
<polygon fill="white" stroke="red" points="16.89,-56.5 16.89,-75.5 77.89,-75.5 77.89,-56.5 16.89,-56.5"/>
<text text-anchor="middle" x="47.39" y="-63.5" font-family="Helvetica,sans-Serif" font-size="10.00">base.hpp</text>
</a>
</g>
</g>
<!-- Node2&#45;&gt;Node3 -->
<g id="edge2" class="edge">
<title>Node2&#45;&gt;Node3</title>
<path fill="none" stroke="midnightblue" d="M150.86,-177.49C102.03,-170.25 22.07,-155.15 4.39,-132 -8.2,-115.52 9.7,-95.47 26.1,-82.04"/>
<polygon fill="midnightblue" stroke="midnightblue" points="28.58,-84.54 34.36,-75.67 24.3,-79 28.58,-84.54"/>
</g>
<!-- Node8 -->
<g id="node4" class="node">
<title>Node8</title>
<g id="a_node4"><a xlink:title=" ">
<polygon fill="white" stroke="#bfbfbf" points="16.39,-0.5 16.39,-19.5 140.39,-19.5 140.39,-0.5 16.39,-0.5"/>
<text text-anchor="middle" x="78.39" y="-7.5" font-family="Helvetica,sans-Serif" font-size="10.00">emlabcpp/algorithm.h</text>
</a>
</g>
</g>
<!-- Node2&#45;&gt;Node8 -->
<g id="edge6" class="edge">
<title>Node2&#45;&gt;Node8</title>
<path fill="none" stroke="midnightblue" d="M175.6,-173.99C162.01,-165 141.45,-149.7 128.39,-132 104.63,-99.8 89.91,-54.67 83.02,-29.62"/>
<polygon fill="midnightblue" stroke="midnightblue" points="86.33,-28.42 80.41,-19.64 79.56,-30.2 86.33,-28.42"/>
</g>
<!-- Node10 -->
<g id="node5" class="node">
<title>Node10</title>
<g id="a_node5"><a xlink:href="config_8hpp.html" target="_top" xlink:title=" ">
<polygon fill="white" stroke="red" points="13.89,-112.5 13.89,-131.5 80.89,-131.5 80.89,-112.5 13.89,-112.5"/>
<text text-anchor="middle" x="47.39" y="-119.5" font-family="Helvetica,sans-Serif" font-size="10.00">config.hpp</text>
</a>
</g>
</g>
<!-- Node2&#45;&gt;Node10 -->
<g id="edge4" class="edge">
<title>Node2&#45;&gt;Node10</title>
<path fill="none" stroke="midnightblue" d="M169.04,-173.98C145,-163.9 104.79,-147.05 77.23,-135.5"/>
<polygon fill="midnightblue" stroke="midnightblue" points="78.27,-132.15 67.7,-131.51 75.57,-138.6 78.27,-132.15"/>
</g>
<!-- Node13 -->
<g id="node6" class="node">
<title>Node13</title>
<g id="a_node6"><a xlink:title=" ">
<polygon fill="white" stroke="#bfbfbf" points="137.39,-112.5 137.39,-131.5 241.39,-131.5 241.39,-112.5 137.39,-112.5"/>
<text text-anchor="middle" x="189.39" y="-119.5" font-family="Helvetica,sans-Serif" font-size="10.00">emlabcpp/either.h</text>
</a>
</g>
</g>
<!-- Node2&#45;&gt;Node13 -->
<g id="edge7" class="edge">
<title>Node2&#45;&gt;Node13</title>
<path fill="none" stroke="midnightblue" d="M189.39,-173.98C189.39,-165.58 189.39,-152.48 189.39,-141.66"/>
<polygon fill="midnightblue" stroke="midnightblue" points="192.89,-141.51 189.39,-131.51 185.89,-141.51 192.89,-141.51"/>
</g>
<!-- Node14 -->
<g id="node7" class="node">
<title>Node14</title>
<g id="a_node7"><a xlink:title=" ">
<polygon fill="white" stroke="#bfbfbf" points="259.39,-112.5 259.39,-131.5 375.39,-131.5 375.39,-112.5 259.39,-112.5"/>
<text text-anchor="middle" x="317.39" y="-119.5" font-family="Helvetica,sans-Serif" font-size="10.00">emlabcpp/protocol.h</text>
</a>
</g>
</g>
<!-- Node2&#45;&gt;Node14 -->
<g id="edge8" class="edge">
<title>Node2&#45;&gt;Node14</title>
<path fill="none" stroke="midnightblue" d="M207.73,-173.98C229.21,-163.99 265.01,-147.35 289.84,-135.81"/>
<polygon fill="midnightblue" stroke="midnightblue" points="291.49,-138.9 299.08,-131.51 288.54,-132.55 291.49,-138.9"/>
</g>
<!-- Node15 -->
<g id="node8" class="node">
<title>Node15</title>
<g id="a_node8"><a xlink:title=" ">
<polygon fill="white" stroke="#bfbfbf" points="393.39,-112.5 393.39,-131.5 555.39,-131.5 555.39,-112.5 393.39,-112.5"/>
<text text-anchor="middle" x="474.39" y="-119.5" font-family="Helvetica,sans-Serif" font-size="10.00">emlabcpp/protocol/endpoint.h</text>
</a>
</g>
</g>
<!-- Node2&#45;&gt;Node15 -->
<g id="edge9" class="edge">
<title>Node2&#45;&gt;Node15</title>
<path fill="none" stroke="midnightblue" d="M215.91,-173.94C222.86,-171.85 230.37,-169.72 237.39,-168 295.68,-153.7 362.98,-141.31 410.93,-133.17"/>
<polygon fill="midnightblue" stroke="midnightblue" points="411.58,-136.61 420.86,-131.5 410.42,-129.71 411.58,-136.61"/>
</g>
<!-- Node16 -->
<g id="node9" class="node">
<title>Node16</title>
<g id="a_node9"><a xlink:title=" ">
<polygon fill="white" stroke="#bfbfbf" points="573.39,-112.5 573.39,-131.5 725.39,-131.5 725.39,-112.5 573.39,-112.5"/>
<text text-anchor="middle" x="649.39" y="-119.5" font-family="Helvetica,sans-Serif" font-size="10.00">emlabcpp/protocol/packet.h</text>
</a>
</g>
</g>
<!-- Node2&#45;&gt;Node16 -->
<g id="edge10" class="edge">
<title>Node2&#45;&gt;Node16</title>
<path fill="none" stroke="midnightblue" d="M214.57,-173.94C221.86,-171.72 229.88,-169.53 237.39,-168 245.3,-166.39 444.71,-144.91 563.16,-132.22"/>
<polygon fill="midnightblue" stroke="midnightblue" points="563.73,-135.68 573.3,-131.13 562.99,-128.72 563.73,-135.68"/>
</g>
<!-- Node3&#45;&gt;Node8 -->
<g id="edge3" class="edge">
<title>Node3&#45;&gt;Node8</title>
<path fill="none" stroke="midnightblue" d="M52.51,-56.08C56.8,-48.61 63.05,-37.72 68.33,-28.52"/>
<polygon fill="midnightblue" stroke="midnightblue" points="71.42,-30.17 73.36,-19.75 65.35,-26.68 71.42,-30.17"/>
</g>
<!-- Node10&#45;&gt;Node3 -->
<g id="edge5" class="edge">
<title>Node10&#45;&gt;Node3</title>
<path fill="none" stroke="midnightblue" d="M47.39,-112.08C47.39,-105.01 47.39,-94.86 47.39,-85.99"/>
<polygon fill="midnightblue" stroke="midnightblue" points="50.89,-85.75 47.39,-75.75 43.89,-85.75 50.89,-85.75"/>
</g>
</g>
</svg>
