<?xml version="1.0" encoding="UTF-8" standalone="no"?>
<!DOCTYPE svg PUBLIC "-//W3C//DTD SVG 1.1//EN"
 "http://www.w3.org/Graphics/SVG/1.1/DTD/svg11.dtd">
<!-- Generated by graphviz version 2.43.0 (0)
 -->
<!-- Title: src/host/config_cmds.cpp Pages: 1 -->
<svg width="550pt" height="151pt"
 viewBox="0.00 0.00 549.50 151.00" xmlns="http://www.w3.org/2000/svg" xmlns:xlink="http://www.w3.org/1999/xlink">
<g id="graph0" class="graph" transform="scale(1 1) rotate(0) translate(4 147)">
<title>src/host/config_cmds.cpp</title>
<polygon fill="white" stroke="transparent" points="-4,4 -4,-147 545.5,-147 545.5,4 -4,4"/>
<!-- Node1 -->
<g id="node1" class="node">
<title>Node1</title>
<g id="a_node1"><a xlink:title=" ">
<polygon fill="#bfbfbf" stroke="black" points="233.5,-123.5 233.5,-142.5 372.5,-142.5 372.5,-123.5 233.5,-123.5"/>
<text text-anchor="middle" x="303" y="-130.5" font-family="Helvetica,sans-Serif" font-size="10.00">src/host/config_cmds.cpp</text>
</a>
</g>
</g>
<!-- Node2 -->
<g id="node2" class="node">
<title>Node2</title>
<g id="a_node2"><a xlink:href="serial_8hpp.html" target="_top" xlink:title=" ">
<polygon fill="white" stroke="black" points="125.5,-62 125.5,-81 214.5,-81 214.5,-62 125.5,-62"/>
<text text-anchor="middle" x="170" y="-69" font-family="Helvetica,sans-Serif" font-size="10.00">host/serial.hpp</text>
</a>
</g>
</g>
<!-- Node1&#45;&gt;Node2 -->
<g id="edge1" class="edge">
<title>Node1&#45;&gt;Node2</title>
<path fill="none" stroke="midnightblue" d="M283.94,-123.48C261.53,-113.45 224.09,-96.7 198.29,-85.15"/>
<polygon fill="midnightblue" stroke="midnightblue" points="199.58,-81.9 189.02,-81.01 196.72,-88.29 199.58,-81.9"/>
</g>
<!-- Node4 -->
<g id="node4" class="node">
<title>Node4</title>
<g id="a_node4"><a xlink:title=" ">
<polygon fill="white" stroke="#bfbfbf" points="230,-0.5 230,-19.5 318,-19.5 318,-0.5 230,-0.5"/>
<text text-anchor="middle" x="274" y="-7.5" font-family="Helvetica,sans-Serif" font-size="10.00">boost/asio.hpp</text>
</a>
</g>
</g>
<!-- Node1&#45;&gt;Node4 -->
<g id="edge5" class="edge">
<title>Node1&#45;&gt;Node4</title>
<path fill="none" stroke="midnightblue" d="M296.23,-123.29C289.94,-114.63 280.96,-100.69 277,-87 271.56,-68.2 271.41,-45.69 272.25,-30.07"/>
<polygon fill="midnightblue" stroke="midnightblue" points="275.78,-29.88 273.02,-19.65 268.8,-29.36 275.78,-29.88"/>
</g>
<!-- Node6 -->
<g id="node6" class="node">
<title>Node6</title>
<g id="a_node6"><a xlink:title=" ">
<polygon fill="white" stroke="#bfbfbf" points="286,-62 286,-81 410,-81 410,-62 286,-62"/>
<text text-anchor="middle" x="348" y="-69" font-family="Helvetica,sans-Serif" font-size="10.00">emlabcpp/algorithm.h</text>
</a>
</g>
</g>
<!-- Node1&#45;&gt;Node6 -->
<g id="edge6" class="edge">
<title>Node1&#45;&gt;Node6</title>
<path fill="none" stroke="midnightblue" d="M309.45,-123.48C316.2,-114.55 326.97,-100.31 335.41,-89.14"/>
<polygon fill="midnightblue" stroke="midnightblue" points="338.32,-91.1 341.56,-81.01 332.74,-86.87 338.32,-91.1"/>
</g>
<!-- Node7 -->
<g id="node7" class="node">
<title>Node7</title>
<g id="a_node7"><a xlink:title=" ">
<polygon fill="white" stroke="#bfbfbf" points="428.5,-56.5 428.5,-86.5 541.5,-86.5 541.5,-56.5 428.5,-56.5"/>
<text text-anchor="start" x="436.5" y="-74.5" font-family="Helvetica,sans-Serif" font-size="10.00">google/protobuf/util</text>
<text text-anchor="middle" x="485" y="-63.5" font-family="Helvetica,sans-Serif" font-size="10.00">/json_util.h</text>
</a>
</g>
</g>
<!-- Node1&#45;&gt;Node7 -->
<g id="edge7" class="edge">
<title>Node1&#45;&gt;Node7</title>
<path fill="none" stroke="midnightblue" d="M329.08,-123.48C355.91,-114.7 398.47,-100.79 432.35,-89.71"/>
<polygon fill="midnightblue" stroke="midnightblue" points="433.69,-92.96 442.11,-86.52 431.51,-86.3 433.69,-92.96"/>
</g>
<!-- Node3 -->
<g id="node3" class="node">
<title>Node3</title>
<g id="a_node3"><a xlink:title=" ">
<polygon fill="white" stroke="#bfbfbf" points="0,-0.5 0,-19.5 50,-19.5 50,-0.5 0,-0.5"/>
<text text-anchor="middle" x="25" y="-7.5" font-family="Helvetica,sans-Serif" font-size="10.00">io.pb.h</text>
</a>
</g>
</g>
<!-- Node2&#45;&gt;Node3 -->
<g id="edge2" class="edge">
<title>Node2&#45;&gt;Node3</title>
<path fill="none" stroke="midnightblue" d="M149.23,-61.98C124.57,-51.86 83.25,-34.9 55.1,-23.35"/>
<polygon fill="midnightblue" stroke="midnightblue" points="56.32,-20.07 45.74,-19.51 53.66,-26.54 56.32,-20.07"/>
</g>
<!-- Node2&#45;&gt;Node4 -->
<g id="edge3" class="edge">
<title>Node2&#45;&gt;Node4</title>
<path fill="none" stroke="midnightblue" d="M184.9,-61.98C201.97,-52.21 230.16,-36.08 250.26,-24.58"/>
<polygon fill="midnightblue" stroke="midnightblue" points="252.19,-27.51 259.13,-19.51 248.71,-21.44 252.19,-27.51"/>
</g>
<!-- Node5 -->
<g id="node5" class="node">
<title>Node5</title>
<g id="a_node5"><a xlink:title=" ">
<polygon fill="white" stroke="#bfbfbf" points="68.5,-0.5 68.5,-19.5 211.5,-19.5 211.5,-0.5 68.5,-0.5"/>
<text text-anchor="middle" x="140" y="-7.5" font-family="Helvetica,sans-Serif" font-size="10.00">boost/asio/serial_port.hpp</text>
</a>
</g>
</g>
<!-- Node2&#45;&gt;Node5 -->
<g id="edge4" class="edge">
<title>Node2&#45;&gt;Node5</title>
<path fill="none" stroke="midnightblue" d="M165.7,-61.98C161.34,-53.32 154.44,-39.65 148.9,-28.65"/>
<polygon fill="midnightblue" stroke="midnightblue" points="151.92,-26.86 144.29,-19.51 145.67,-30.01 151.92,-26.86"/>
</g>
</g>
</svg>
