<?xml version="1.0" encoding="UTF-8" standalone="no"?>
<!DOCTYPE svg PUBLIC "-//W3C//DTD SVG 1.1//EN"
 "http://www.w3.org/Graphics/SVG/1.1/DTD/svg11.dtd">
<!-- Generated by graphviz version 2.43.0 (0)
 -->
<!-- Title: src/scmdio/config_cmds.hpp Pages: 1 -->
<svg width="400pt" height="151pt"
 viewBox="0.00 0.00 399.50 151.00" xmlns="http://www.w3.org/2000/svg" xmlns:xlink="http://www.w3.org/1999/xlink">
<g id="graph0" class="graph" transform="scale(1 1) rotate(0) translate(4 147)">
<title>src/scmdio/config_cmds.hpp</title>
<polygon fill="white" stroke="transparent" points="-4,4 -4,-147 395.5,-147 395.5,4 -4,4"/>
<!-- Node1 -->
<g id="node1" class="node">
<title>Node1</title>
<g id="a_node1"><a xlink:title=" ">
<polygon fill="#bfbfbf" stroke="black" points="87,-123.5 87,-142.5 241,-142.5 241,-123.5 87,-123.5"/>
<text text-anchor="middle" x="164" y="-130.5" font-family="Helvetica,sans-Serif" font-size="10.00">src/scmdio/config_cmds.hpp</text>
</a>
</g>
</g>
<!-- Node2 -->
<g id="node2" class="node">
<title>Node2</title>
<g id="a_node2"><a xlink:href="async__cobs_8hpp.html" target="_top" xlink:title=" ">
<polygon fill="white" stroke="black" points="98,-67.5 98,-86.5 230,-86.5 230,-67.5 98,-67.5"/>
<text text-anchor="middle" x="164" y="-74.5" font-family="Helvetica,sans-Serif" font-size="10.00">scmdio/async_cobs.hpp</text>
</a>
</g>
</g>
<!-- Node1&#45;&gt;Node2 -->
<g id="edge1" class="edge">
<title>Node1&#45;&gt;Node2</title>
<path fill="none" stroke="midnightblue" d="M164,-123.08C164,-116.01 164,-105.86 164,-96.99"/>
<polygon fill="midnightblue" stroke="midnightblue" points="167.5,-96.75 164,-86.75 160.5,-96.75 167.5,-96.75"/>
</g>
<!-- Node3 -->
<g id="node3" class="node">
<title>Node3</title>
<g id="a_node3"><a xlink:title=" ">
<polygon fill="white" stroke="#bfbfbf" points="0,-6 0,-25 88,-25 88,-6 0,-6"/>
<text text-anchor="middle" x="44" y="-13" font-family="Helvetica,sans-Serif" font-size="10.00">boost/asio.hpp</text>
</a>
</g>
</g>
<!-- Node1&#45;&gt;Node3 -->
<g id="edge5" class="edge">
<title>Node1&#45;&gt;Node3</title>
<path fill="none" stroke="midnightblue" d="M144.47,-123.41C128.27,-115.6 105.33,-102.88 89,-87 73.27,-71.7 60.43,-49.9 52.55,-34.6"/>
<polygon fill="midnightblue" stroke="midnightblue" points="55.48,-32.62 47.91,-25.21 49.2,-35.72 55.48,-32.62"/>
</g>
<!-- Node6 -->
<g id="node6" class="node">
<title>Node6</title>
<g id="a_node6"><a xlink:title=" ">
<polygon fill="white" stroke="#bfbfbf" points="248.5,-67.5 248.5,-86.5 391.5,-86.5 391.5,-67.5 248.5,-67.5"/>
<text text-anchor="middle" x="320" y="-74.5" font-family="Helvetica,sans-Serif" font-size="10.00">boost/asio/serial_port.hpp</text>
</a>
</g>
</g>
<!-- Node1&#45;&gt;Node6 -->
<g id="edge6" class="edge">
<title>Node1&#45;&gt;Node6</title>
<path fill="none" stroke="midnightblue" d="M188.72,-123.44C214.85,-114.4 256.26,-100.06 285.58,-89.92"/>
<polygon fill="midnightblue" stroke="midnightblue" points="287.09,-93.1 295.4,-86.52 284.8,-86.48 287.09,-93.1"/>
</g>
<!-- Node2&#45;&gt;Node3 -->
<g id="edge2" class="edge">
<title>Node2&#45;&gt;Node3</title>
<path fill="none" stroke="midnightblue" d="M146.81,-67.48C126.76,-57.53 93.4,-40.99 70.14,-29.46"/>
<polygon fill="midnightblue" stroke="midnightblue" points="71.68,-26.32 61.16,-25.01 68.57,-32.59 71.68,-26.32"/>
</g>
<!-- Node4 -->
<g id="node4" class="node">
<title>Node4</title>
<g id="a_node4"><a xlink:title=" ">
<polygon fill="white" stroke="#bfbfbf" points="106.5,-0.5 106.5,-30.5 239.5,-30.5 239.5,-0.5 106.5,-0.5"/>
<text text-anchor="start" x="114.5" y="-18.5" font-family="Helvetica,sans-Serif" font-size="10.00">emlabcpp/experimental</text>
<text text-anchor="middle" x="173" y="-7.5" font-family="Helvetica,sans-Serif" font-size="10.00">/cobs.h</text>
</a>
</g>
</g>
<!-- Node2&#45;&gt;Node4 -->
<g id="edge3" class="edge">
<title>Node2&#45;&gt;Node4</title>
<path fill="none" stroke="midnightblue" d="M165.29,-67.48C166.35,-60.47 167.9,-50.19 169.34,-40.7"/>
<polygon fill="midnightblue" stroke="midnightblue" points="172.84,-40.93 170.88,-30.52 165.92,-39.89 172.84,-40.93"/>
</g>
<!-- Node5 -->
<g id="node5" class="node">
<title>Node5</title>
<g id="a_node5"><a xlink:title=" ">
<polygon fill="white" stroke="#bfbfbf" points="257.5,-6 257.5,-25 304.5,-25 304.5,-6 257.5,-6"/>
<text text-anchor="middle" x="281" y="-13" font-family="Helvetica,sans-Serif" font-size="10.00">vector</text>
</a>
</g>
</g>
<!-- Node2&#45;&gt;Node5 -->
<g id="edge4" class="edge">
<title>Node2&#45;&gt;Node5</title>
<path fill="none" stroke="midnightblue" d="M180.76,-67.48C200.22,-57.58 232.55,-41.14 255.21,-29.62"/>
<polygon fill="midnightblue" stroke="midnightblue" points="256.94,-32.66 264.27,-25.01 253.77,-26.42 256.94,-32.66"/>
</g>
</g>
</svg>
