<?xml version="1.0" encoding="UTF-8" standalone="no"?>
<!DOCTYPE svg PUBLIC "-//W3C//DTD SVG 1.1//EN"
 "http://www.w3.org/Graphics/SVG/1.1/DTD/svg11.dtd">
<!-- Generated by graphviz version 2.43.0 (0)
 -->
<!-- Title: src/host/config_cmds.cpp Pages: 1 -->
<svg width="706pt" height="207pt"
 viewBox="0.00 0.00 705.50 207.00" xmlns="http://www.w3.org/2000/svg" xmlns:xlink="http://www.w3.org/1999/xlink">
<g id="graph0" class="graph" transform="scale(1 1) rotate(0) translate(4 203)">
<title>src/host/config_cmds.cpp</title>
<polygon fill="white" stroke="transparent" points="-4,4 -4,-203 701.5,-203 701.5,4 -4,4"/>
<!-- Node1 -->
<g id="node1" class="node">
<title>Node1</title>
<g id="a_node1"><a xlink:title=" ">
<polygon fill="#bfbfbf" stroke="black" points="389.5,-179.5 389.5,-198.5 528.5,-198.5 528.5,-179.5 389.5,-179.5"/>
<text text-anchor="middle" x="459" y="-186.5" font-family="Helvetica,sans-Serif" font-size="10.00">src/host/config_cmds.cpp</text>
</a>
</g>
</g>
<!-- Node2 -->
<g id="node2" class="node">
<title>Node2</title>
<g id="a_node2"><a xlink:href="serial_8hpp.html" target="_top" xlink:title=" ">
<polygon fill="white" stroke="black" points="154.5,-118 154.5,-137 243.5,-137 243.5,-118 154.5,-118"/>
<text text-anchor="middle" x="199" y="-125" font-family="Helvetica,sans-Serif" font-size="10.00">host/serial.hpp</text>
</a>
</g>
</g>
<!-- Node1&#45;&gt;Node2 -->
<g id="edge1" class="edge">
<title>Node1&#45;&gt;Node2</title>
<path fill="none" stroke="midnightblue" d="M421.75,-179.48C375.51,-168.89 296.6,-150.84 246.18,-139.3"/>
<polygon fill="midnightblue" stroke="midnightblue" points="246.71,-135.83 236.18,-137.01 245.15,-142.65 246.71,-135.83"/>
</g>
<!-- Node8 -->
<g id="node4" class="node">
<title>Node8</title>
<g id="a_node4"><a xlink:title=" ">
<polygon fill="white" stroke="#bfbfbf" points="102,-0.5 102,-19.5 190,-19.5 190,-0.5 102,-0.5"/>
<text text-anchor="middle" x="146" y="-7.5" font-family="Helvetica,sans-Serif" font-size="10.00">boost/asio.hpp</text>
</a>
</g>
</g>
<!-- Node1&#45;&gt;Node8 -->
<g id="edge7" class="edge">
<title>Node1&#45;&gt;Node8</title>
<path fill="none" stroke="midnightblue" d="M453.52,-179.2C448.04,-170.24 439.51,-155.89 433,-143 413.97,-105.34 428.1,-82.17 395,-56 365.54,-32.71 264.36,-20.46 200.4,-14.89"/>
<polygon fill="midnightblue" stroke="midnightblue" points="200.34,-11.37 190.08,-14.02 199.75,-18.35 200.34,-11.37"/>
</g>
<!-- Node12 -->
<g id="node7" class="node">
<title>Node12</title>
<g id="a_node7"><a xlink:title=" ">
<polygon fill="white" stroke="#bfbfbf" points="442,-118 442,-137 566,-137 566,-118 442,-118"/>
<text text-anchor="middle" x="504" y="-125" font-family="Helvetica,sans-Serif" font-size="10.00">emlabcpp/algorithm.h</text>
</a>
</g>
</g>
<!-- Node1&#45;&gt;Node12 -->
<g id="edge8" class="edge">
<title>Node1&#45;&gt;Node12</title>
<path fill="none" stroke="midnightblue" d="M465.45,-179.48C472.2,-170.55 482.97,-156.31 491.41,-145.14"/>
<polygon fill="midnightblue" stroke="midnightblue" points="494.32,-147.1 497.56,-137.01 488.74,-142.87 494.32,-147.1"/>
</g>
<!-- Node13 -->
<g id="node8" class="node">
<title>Node13</title>
<g id="a_node8"><a xlink:title=" ">
<polygon fill="white" stroke="#bfbfbf" points="584.5,-112.5 584.5,-142.5 697.5,-142.5 697.5,-112.5 584.5,-112.5"/>
<text text-anchor="start" x="592.5" y="-130.5" font-family="Helvetica,sans-Serif" font-size="10.00">google/protobuf/util</text>
<text text-anchor="middle" x="641" y="-119.5" font-family="Helvetica,sans-Serif" font-size="10.00">/json_util.h</text>
</a>
</g>
</g>
<!-- Node1&#45;&gt;Node13 -->
<g id="edge9" class="edge">
<title>Node1&#45;&gt;Node13</title>
<path fill="none" stroke="midnightblue" d="M485.08,-179.48C511.91,-170.7 554.47,-156.79 588.35,-145.71"/>
<polygon fill="midnightblue" stroke="midnightblue" points="589.69,-148.96 598.11,-142.52 587.51,-142.3 589.69,-148.96"/>
</g>
<!-- Node3 -->
<g id="node3" class="node">
<title>Node3</title>
<g id="a_node3"><a xlink:href="async__cobs_8hpp.html" target="_top" xlink:title=" ">
<polygon fill="white" stroke="red" points="0,-56.5 0,-75.5 118,-75.5 118,-56.5 0,-56.5"/>
<text text-anchor="middle" x="59" y="-63.5" font-family="Helvetica,sans-Serif" font-size="10.00">host/async_cobs.hpp</text>
</a>
</g>
</g>
<!-- Node2&#45;&gt;Node3 -->
<g id="edge2" class="edge">
<title>Node2&#45;&gt;Node3</title>
<path fill="none" stroke="midnightblue" d="M178.94,-117.98C155.24,-107.9 115.59,-91.05 88.42,-79.5"/>
<polygon fill="midnightblue" stroke="midnightblue" points="89.59,-76.2 79.02,-75.51 86.86,-82.64 89.59,-76.2"/>
</g>
<!-- Node2&#45;&gt;Node8 -->
<g id="edge5" class="edge">
<title>Node2&#45;&gt;Node8</title>
<path fill="none" stroke="midnightblue" d="M191.83,-117.7C184.24,-108.01 172.36,-91.69 165,-76 157.98,-61.03 152.94,-42.89 149.82,-29.59"/>
<polygon fill="midnightblue" stroke="midnightblue" points="153.22,-28.73 147.65,-19.72 146.38,-30.24 153.22,-28.73"/>
</g>
<!-- Node5 -->
<g id="node5" class="node">
<title>Node5</title>
<g id="a_node5"><a xlink:title=" ">
<polygon fill="white" stroke="#bfbfbf" points="174,-56.5 174,-75.5 224,-75.5 224,-56.5 174,-56.5"/>
<text text-anchor="middle" x="199" y="-63.5" font-family="Helvetica,sans-Serif" font-size="10.00">io.pb.h</text>
</a>
</g>
</g>
<!-- Node2&#45;&gt;Node5 -->
<g id="edge4" class="edge">
<title>Node2&#45;&gt;Node5</title>
<path fill="none" stroke="midnightblue" d="M199,-117.98C199,-109.58 199,-96.48 199,-85.66"/>
<polygon fill="midnightblue" stroke="midnightblue" points="202.5,-85.51 199,-75.51 195.5,-85.51 202.5,-85.51"/>
</g>
<!-- Node11 -->
<g id="node6" class="node">
<title>Node11</title>
<g id="a_node6"><a xlink:title=" ">
<polygon fill="white" stroke="#bfbfbf" points="242.5,-56.5 242.5,-75.5 385.5,-75.5 385.5,-56.5 242.5,-56.5"/>
<text text-anchor="middle" x="314" y="-63.5" font-family="Helvetica,sans-Serif" font-size="10.00">boost/asio/serial_port.hpp</text>
</a>
</g>
</g>
<!-- Node2&#45;&gt;Node11 -->
<g id="edge6" class="edge">
<title>Node2&#45;&gt;Node11</title>
<path fill="none" stroke="midnightblue" d="M215.48,-117.98C234.61,-108.08 266.37,-91.64 288.65,-80.12"/>
<polygon fill="midnightblue" stroke="midnightblue" points="290.28,-83.21 297.55,-75.51 287.06,-77 290.28,-83.21"/>
</g>
<!-- Node3&#45;&gt;Node8 -->
<g id="edge3" class="edge">
<title>Node3&#45;&gt;Node8</title>
<path fill="none" stroke="midnightblue" d="M72.98,-56.32C86.55,-47.9 107.38,-34.97 123.32,-25.07"/>
<polygon fill="midnightblue" stroke="midnightblue" points="125.41,-27.9 132.06,-19.65 121.71,-21.95 125.41,-27.9"/>
</g>
</g>
</svg>
