<?xml version="1.0" encoding="UTF-8" standalone="no"?>
<!DOCTYPE svg PUBLIC "-//W3C//DTD SVG 1.1//EN"
 "http://www.w3.org/Graphics/SVG/1.1/DTD/svg11.dtd">
<!-- Generated by graphviz version 2.43.0 (0)
 -->
<!-- Title: src/scmdio/config_cmds.hpp Pages: 1 -->
<svg width="638pt" height="203pt"
 viewBox="0.00 0.00 638.00 203.00" xmlns="http://www.w3.org/2000/svg" xmlns:xlink="http://www.w3.org/1999/xlink">
<g id="graph0" class="graph" transform="scale(1 1) rotate(0) translate(4 199)">
<title>src/scmdio/config_cmds.hpp</title>
<!-- Node1 -->
<g id="Node000001" class="node">
<title>Node1</title>
<g id="a_Node000001"><a xlink:title=" ">
<polygon fill="#999999" stroke="#666666" points="535.5,-195 381.5,-195 381.5,-176 535.5,-176 535.5,-195"/>
<text text-anchor="middle" x="458.5" y="-183" font-family="Helvetica,sans-Serif" font-size="10.00">src/scmdio/config_cmds.hpp</text>
</a>
</g>
</g>
<!-- Node2 -->
<g id="Node000002" class="node">
<title>Node2</title>
<g id="a_Node000002"><a xlink:href="port_8hpp.html" target="_top" xlink:title=" ">
<polygon fill="white" stroke="#666666" points="330,-140 267,-140 267,-121 330,-121 330,-140"/>
<text text-anchor="middle" x="298.5" y="-128" font-family="Helvetica,sans-Serif" font-size="10.00">./port.hpp</text>
</a>
</g>
</g>
<!-- Node1&#45;&gt;Node2 -->
<g id="edge1_Node000001_Node000002" class="edge">
<title>Node1&#45;&gt;Node2</title>
<g id="a_edge1_Node000001_Node000002"><a xlink:title=" ">
<path fill="none" stroke="#63b8ff" d="M432.79,-175.98C406.05,-167.13 363.97,-153.19 334.05,-143.28"/>
<polygon fill="#63b8ff" stroke="#63b8ff" points="335,-139.9 324.41,-140.08 332.8,-146.55 335,-139.9"/>
</a>
</g>
</g>
<!-- Node6 -->
<g id="Node000006" class="node">
<title>Node6</title>
<g id="a_Node000006"><a xlink:title=" ">
<polygon fill="#e0e0e0" stroke="#999999" points="288.5,-19 200.5,-19 200.5,0 288.5,0 288.5,-19"/>
<text text-anchor="middle" x="244.5" y="-7" font-family="Helvetica,sans-Serif" font-size="10.00">boost/asio.hpp</text>
</a>
</g>
</g>
<!-- Node1&#45;&gt;Node6 -->
<g id="edge7_Node000001_Node000006" class="edge">
<title>Node1&#45;&gt;Node6</title>
<g id="a_edge7_Node000001_Node000006"><a xlink:title=" ">
<path fill="none" stroke="#63b8ff" d="M460.19,-175.88C464.14,-152.89 471.43,-89.54 439.5,-55 420.7,-34.66 349.62,-22.39 298.71,-16.03"/>
<polygon fill="#63b8ff" stroke="#63b8ff" points="298.85,-12.52 288.5,-14.8 298.01,-19.47 298.85,-12.52"/>
</a>
</g>
</g>
<!-- Node13 -->
<g id="Node000013" class="node">
<title>Node13</title>
<g id="a_Node000013"><a xlink:title=" ">
<polygon fill="#e0e0e0" stroke="#999999" points="630,-140 487,-140 487,-121 630,-121 630,-140"/>
<text text-anchor="middle" x="558.5" y="-128" font-family="Helvetica,sans-Serif" font-size="10.00">boost/asio/serial_port.hpp</text>
</a>
</g>
</g>
<!-- Node1&#45;&gt;Node13 -->
<g id="edge8_Node000001_Node000013" class="edge">
<title>Node1&#45;&gt;Node13</title>
<g id="a_edge8_Node000001_Node000013"><a xlink:title=" ">
<path fill="none" stroke="#63b8ff" d="M474.57,-175.98C490.36,-167.61 514.72,-154.7 533.13,-144.95"/>
<polygon fill="#63b8ff" stroke="#63b8ff" points="534.94,-147.95 542.14,-140.17 531.67,-141.76 534.94,-147.95"/>
</a>
</g>
</g>
<!-- Node3 -->
<g id="Node000003" class="node">
<title>Node3</title>
<g id="a_Node000003"><a xlink:href="scmdio_2base_8hpp.html" target="_top" xlink:title=" ">
<polygon fill="#fff0f0" stroke="red" points="61,-79.5 0,-79.5 0,-60.5 61,-60.5 61,-79.5"/>
<text text-anchor="middle" x="30.5" y="-67.5" font-family="Helvetica,sans-Serif" font-size="10.00">base.hpp</text>
</a>
</g>
</g>
<!-- Node2&#45;&gt;Node3 -->
<g id="edge2_Node000002_Node000003" class="edge">
<title>Node2&#45;&gt;Node3</title>
<g id="a_edge2_Node000002_Node000003"><a xlink:title=" ">
<path fill="none" stroke="#63b8ff" d="M266.82,-124.8C222.48,-117.88 139.59,-103.73 70.5,-85 68.01,-84.33 65.46,-83.58 62.9,-82.78"/>
<polygon fill="#63b8ff" stroke="#63b8ff" points="63.76,-79.38 53.17,-79.57 61.57,-86.02 63.76,-79.38"/>
</a>
</g>
</g>
<!-- Node10 -->
<g id="Node000010" class="node">
<title>Node10</title>
<g id="a_Node000010"><a xlink:title=" ">
<polygon fill="#e0e0e0" stroke="#999999" points="213.5,-79.5 79.5,-79.5 79.5,-60.5 213.5,-60.5 213.5,-79.5"/>
<text text-anchor="middle" x="146.5" y="-67.5" font-family="Helvetica,sans-Serif" font-size="10.00">spdlog/fmt/bin_to_hex.h</text>
</a>
</g>
</g>
<!-- Node2&#45;&gt;Node10 -->
<g id="edge4_Node000002_Node000010" class="edge">
<title>Node2&#45;&gt;Node10</title>
<g id="a_edge4_Node000002_Node000010"><a xlink:title=" ">
<path fill="none" stroke="#63b8ff" d="M276.4,-120.99C250.51,-111.03 207.42,-94.45 178.03,-83.13"/>
<polygon fill="#63b8ff" stroke="#63b8ff" points="179.22,-79.84 168.63,-79.52 176.7,-86.38 179.22,-79.84"/>
</a>
</g>
</g>
<!-- Node11 -->
<g id="Node000011" class="node">
<title>Node11</title>
<g id="a_Node000011"><a xlink:title=" ">
<polygon fill="#e0e0e0" stroke="#999999" points="365,-85 232,-85 232,-55 365,-55 365,-85"/>
<text text-anchor="start" x="240" y="-73" font-family="Helvetica,sans-Serif" font-size="10.00">emlabcpp/experimental</text>
<text text-anchor="middle" x="298.5" y="-62" font-family="Helvetica,sans-Serif" font-size="10.00">/cobs.h</text>
</a>
</g>
</g>
<!-- Node2&#45;&gt;Node11 -->
<g id="edge5_Node000002_Node000011" class="edge">
<title>Node2&#45;&gt;Node11</title>
<g id="a_edge5_Node000002_Node000011"><a xlink:title=" ">
<path fill="none" stroke="#63b8ff" d="M298.5,-120.87C298.5,-114.11 298.5,-104.35 298.5,-95.26"/>
<polygon fill="#63b8ff" stroke="#63b8ff" points="302,-95.11 298.5,-85.11 295,-95.11 302,-95.11"/>
</a>
</g>
</g>
<!-- Node12 -->
<g id="Node000012" class="node">
<title>Node12</title>
<g id="a_Node000012"><a xlink:title=" ">
<polygon fill="#e0e0e0" stroke="#999999" points="430,-79.5 383,-79.5 383,-60.5 430,-60.5 430,-79.5"/>
<text text-anchor="middle" x="406.5" y="-67.5" font-family="Helvetica,sans-Serif" font-size="10.00">vector</text>
</a>
</g>
</g>
<!-- Node2&#45;&gt;Node12 -->
<g id="edge6_Node000002_Node000012" class="edge">
<title>Node2&#45;&gt;Node12</title>
<g id="a_edge6_Node000002_Node000012"><a xlink:title=" ">
<path fill="none" stroke="#63b8ff" d="M314.44,-120.87C332.14,-111.28 360.96,-95.67 381.64,-84.47"/>
<polygon fill="#63b8ff" stroke="#63b8ff" points="383.37,-87.51 390.5,-79.67 380.04,-81.35 383.37,-87.51"/>
</a>
</g>
</g>
<!-- Node3&#45;&gt;Node6 -->
<g id="edge3_Node000003_Node000006" class="edge">
<title>Node3&#45;&gt;Node6</title>
<g id="a_edge3_Node000003_Node000006"><a xlink:title=" ">
<path fill="none" stroke="#63b8ff" d="M54.08,-60.37C59.45,-58.51 65.15,-56.62 70.5,-55 113.01,-42.15 162.09,-29.82 197.26,-21.42"/>
<polygon fill="#63b8ff" stroke="#63b8ff" points="198.32,-24.76 207.25,-19.04 196.71,-17.95 198.32,-24.76"/>
</a>
</g>
</g>
</g>
</svg>
