<?xml version="1.0" encoding="UTF-8" standalone="no"?>
<!DOCTYPE svg PUBLIC "-//W3C//DTD SVG 1.1//EN"
 "http://www.w3.org/Graphics/SVG/1.1/DTD/svg11.dtd">
<!-- Generated by graphviz version 2.43.0 (0)
 -->
<!-- Title: src/ctl/control.cpp Pages: 1 -->
<svg width="721pt" height="218pt"
 viewBox="0.00 0.00 721.00 218.00" xmlns="http://www.w3.org/2000/svg" xmlns:xlink="http://www.w3.org/1999/xlink">
<g id="graph0" class="graph" transform="scale(1 1) rotate(0) translate(4 214)">
<title>src/ctl/control.cpp</title>
<polygon fill="white" stroke="transparent" points="-4,4 -4,-214 717,-214 717,4 -4,4"/>
<!-- Node1 -->
<g id="node1" class="node">
<title>Node1</title>
<g id="a_node1"><a xlink:title=" ">
<polygon fill="#bfbfbf" stroke="black" points="400.5,-190.5 400.5,-209.5 503.5,-209.5 503.5,-190.5 400.5,-190.5"/>
<text text-anchor="middle" x="452" y="-197.5" font-family="Helvetica,sans-Serif" font-size="10.00">src/ctl/control.cpp</text>
</a>
</g>
</g>
<!-- Node2 -->
<g id="node2" class="node">
<title>Node2</title>
<g id="a_node2"><a xlink:href="control_8hpp.html" target="_top" xlink:title=" ">
<polygon fill="white" stroke="black" points="207.5,-129 207.5,-148 278.5,-148 278.5,-129 207.5,-129"/>
<text text-anchor="middle" x="243" y="-136" font-family="Helvetica,sans-Serif" font-size="10.00">control.hpp</text>
</a>
</g>
</g>
<!-- Node1&#45;&gt;Node2 -->
<g id="edge1" class="edge">
<title>Node1&#45;&gt;Node2</title>
<path fill="none" stroke="midnightblue" d="M422.06,-190.48C385.43,-180.05 323.3,-162.36 282.72,-150.81"/>
<polygon fill="midnightblue" stroke="midnightblue" points="283.47,-147.38 272.89,-148.01 281.55,-154.11 283.47,-147.38"/>
</g>
<!-- Node4 -->
<g id="node4" class="node">
<title>Node4</title>
<g id="a_node4"><a xlink:href="base_2base_8hpp.html" target="_top" xlink:title=" ">
<polygon fill="white" stroke="red" points="151.5,-0.5 151.5,-19.5 238.5,-19.5 238.5,-0.5 151.5,-0.5"/>
<text text-anchor="middle" x="195" y="-7.5" font-family="Helvetica,sans-Serif" font-size="10.00">base/base.hpp</text>
</a>
</g>
</g>
<!-- Node1&#45;&gt;Node4 -->
<g id="edge10" class="edge">
<title>Node1&#45;&gt;Node4</title>
<path fill="none" stroke="midnightblue" d="M447.83,-190.44C443.48,-181.44 436.54,-166.82 431,-154 412.41,-110.96 427.6,-86.5 392,-56 370.75,-37.8 299.5,-24.81 248.81,-17.6"/>
<polygon fill="midnightblue" stroke="midnightblue" points="249.03,-14.1 238.64,-16.19 248.07,-21.03 249.03,-14.1"/>
</g>
<!-- Node14 -->
<g id="node9" class="node">
<title>Node14</title>
<g id="a_node9"><a xlink:title=" ">
<polygon fill="white" stroke="#bfbfbf" points="439.5,-129 439.5,-148 546.5,-148 546.5,-129 439.5,-129"/>
<text text-anchor="middle" x="493" y="-136" font-family="Helvetica,sans-Serif" font-size="10.00">emlabcpp/match.h</text>
</a>
</g>
</g>
<!-- Node1&#45;&gt;Node14 -->
<g id="edge11" class="edge">
<title>Node1&#45;&gt;Node14</title>
<path fill="none" stroke="midnightblue" d="M457.87,-190.48C463.96,-181.64 473.64,-167.59 481.3,-156.48"/>
<polygon fill="midnightblue" stroke="midnightblue" points="484.34,-158.23 487.14,-148.01 478.58,-154.26 484.34,-158.23"/>
</g>
<!-- Node15 -->
<g id="node10" class="node">
<title>Node15</title>
<g id="a_node10"><a xlink:title=" ">
<polygon fill="white" stroke="#bfbfbf" points="565,-123.5 565,-153.5 713,-153.5 713,-123.5 565,-123.5"/>
<text text-anchor="start" x="573" y="-141.5" font-family="Helvetica,sans-Serif" font-size="10.00">emlabcpp/protocol/register</text>
<text text-anchor="middle" x="639" y="-130.5" font-family="Helvetica,sans-Serif" font-size="10.00">_handler.h</text>
</a>
</g>
</g>
<!-- Node1&#45;&gt;Node15 -->
<g id="edge12" class="edge">
<title>Node1&#45;&gt;Node15</title>
<path fill="none" stroke="midnightblue" d="M478.79,-190.48C506.49,-181.66 550.47,-167.67 585.35,-156.57"/>
<polygon fill="midnightblue" stroke="midnightblue" points="586.46,-159.89 594.93,-153.52 584.34,-153.22 586.46,-159.89"/>
</g>
<!-- Node3 -->
<g id="node3" class="node">
<title>Node3</title>
<g id="a_node3"><a xlink:href="config_8hpp.html" target="_top" xlink:title=" ">
<polygon fill="white" stroke="black" points="39,-62 39,-81 121,-81 121,-62 39,-62"/>
<text text-anchor="middle" x="80" y="-69" font-family="Helvetica,sans-Serif" font-size="10.00">ctl/config.hpp</text>
</a>
</g>
</g>
<!-- Node2&#45;&gt;Node3 -->
<g id="edge2" class="edge">
<title>Node2&#45;&gt;Node3</title>
<path fill="none" stroke="midnightblue" d="M221.35,-128.87C193.02,-117.57 143.18,-97.7 110.89,-84.82"/>
<polygon fill="midnightblue" stroke="midnightblue" points="112.06,-81.52 101.48,-81.06 109.47,-88.02 112.06,-81.52"/>
</g>
<!-- Node9 -->
<g id="node5" class="node">
<title>Node9</title>
<g id="a_node5"><a xlink:title=" ">
<polygon fill="white" stroke="#bfbfbf" points="0,-0.5 0,-19.5 92,-19.5 92,-0.5 0,-0.5"/>
<text text-anchor="middle" x="46" y="-7.5" font-family="Helvetica,sans-Serif" font-size="10.00">emlabcpp/pid.h</text>
</a>
</g>
</g>
<!-- Node2&#45;&gt;Node9 -->
<g id="edge7" class="edge">
<title>Node2&#45;&gt;Node9</title>
<path fill="none" stroke="midnightblue" d="M207.08,-134.27C152.23,-128.52 51.68,-114.43 30,-87 16.72,-70.2 26.08,-44.99 35.09,-28.28"/>
<polygon fill="midnightblue" stroke="midnightblue" points="38.17,-29.94 40.19,-19.54 32.13,-26.42 38.17,-29.94"/>
</g>
<!-- Node10 -->
<g id="node6" class="node">
<title>Node10</title>
<g id="a_node6"><a xlink:href="linear__transition__regulator_8hpp.html" target="_top" xlink:title=" ">
<polygon fill="white" stroke="red" points="139.5,-56.5 139.5,-86.5 250.5,-86.5 250.5,-56.5 139.5,-56.5"/>
<text text-anchor="start" x="147.5" y="-74.5" font-family="Helvetica,sans-Serif" font-size="10.00">ctl/linear_transition</text>
<text text-anchor="middle" x="195" y="-63.5" font-family="Helvetica,sans-Serif" font-size="10.00">_regulator.hpp</text>
</a>
</g>
</g>
<!-- Node2&#45;&gt;Node10 -->
<g id="edge5" class="edge">
<title>Node2&#45;&gt;Node10</title>
<path fill="none" stroke="midnightblue" d="M236.53,-128.73C230.1,-120.03 219.99,-106.34 211.36,-94.65"/>
<polygon fill="midnightblue" stroke="midnightblue" points="214.16,-92.55 205.4,-86.59 208.53,-96.71 214.16,-92.55"/>
</g>
<!-- Node12 -->
<g id="node7" class="node">
<title>Node12</title>
<g id="a_node7"><a xlink:title=" ">
<polygon fill="white" stroke="#bfbfbf" points="269,-62 269,-81 313,-81 313,-62 269,-62"/>
<text text-anchor="middle" x="291" y="-69" font-family="Helvetica,sans-Serif" font-size="10.00">limits</text>
</a>
</g>
</g>
<!-- Node2&#45;&gt;Node12 -->
<g id="edge8" class="edge">
<title>Node2&#45;&gt;Node12</title>
<path fill="none" stroke="midnightblue" d="M249.47,-128.73C256.89,-118.7 269.2,-102.01 278.5,-89.42"/>
<polygon fill="midnightblue" stroke="midnightblue" points="281.5,-91.25 284.63,-81.13 275.87,-87.09 281.5,-91.25"/>
</g>
<!-- Node13 -->
<g id="node8" class="node">
<title>Node13</title>
<g id="a_node8"><a xlink:title=" ">
<polygon fill="white" stroke="#bfbfbf" points="331.5,-62 331.5,-81 382.5,-81 382.5,-62 331.5,-62"/>
<text text-anchor="middle" x="357" y="-69" font-family="Helvetica,sans-Serif" font-size="10.00">variant</text>
</a>
</g>
</g>
<!-- Node2&#45;&gt;Node13 -->
<g id="edge9" class="edge">
<title>Node2&#45;&gt;Node13</title>
<path fill="none" stroke="midnightblue" d="M258.37,-128.73C277.52,-117.82 310.44,-99.05 332.94,-86.22"/>
<polygon fill="midnightblue" stroke="midnightblue" points="334.92,-89.12 341.87,-81.13 331.45,-83.04 334.92,-89.12"/>
</g>
<!-- Node3&#45;&gt;Node4 -->
<g id="edge3" class="edge">
<title>Node3&#45;&gt;Node4</title>
<path fill="none" stroke="midnightblue" d="M96.48,-61.98C115.61,-52.08 147.37,-35.64 169.65,-24.12"/>
<polygon fill="midnightblue" stroke="midnightblue" points="171.28,-27.21 178.55,-19.51 168.06,-21 171.28,-27.21"/>
</g>
<!-- Node3&#45;&gt;Node9 -->
<g id="edge4" class="edge">
<title>Node3&#45;&gt;Node9</title>
<path fill="none" stroke="midnightblue" d="M75.13,-61.98C70.13,-53.23 62.21,-39.37 55.89,-28.31"/>
<polygon fill="midnightblue" stroke="midnightblue" points="58.86,-26.46 50.86,-19.51 52.78,-29.93 58.86,-26.46"/>
</g>
<!-- Node10&#45;&gt;Node4 -->
<g id="edge6" class="edge">
<title>Node10&#45;&gt;Node4</title>
<path fill="none" stroke="midnightblue" d="M195,-56.4C195,-48.47 195,-38.46 195,-29.86"/>
<polygon fill="midnightblue" stroke="midnightblue" points="198.5,-29.66 195,-19.66 191.5,-29.66 198.5,-29.66"/>
</g>
</g>
</svg>
