<?xml version="1.0" encoding="UTF-8" standalone="no"?>
<!DOCTYPE svg PUBLIC "-//W3C//DTD SVG 1.1//EN"
 "http://www.w3.org/Graphics/SVG/1.1/DTD/svg11.dtd">
<!-- Generated by graphviz version 2.43.0 (0)
 -->
<!-- Title: src/fw/context.cpp Pages: 1 -->
<svg width="709pt" height="192pt"
 viewBox="0.00 0.00 709.00 192.00" xmlns="http://www.w3.org/2000/svg" xmlns:xlink="http://www.w3.org/1999/xlink">
<g id="graph0" class="graph" transform="scale(1 1) rotate(0) translate(4 188)">
<title>src/fw/context.cpp</title>
<!-- Node1 -->
<g id="Node000001" class="node">
<title>Node1</title>
<g id="a_Node000001"><a xlink:title=" ">
<polygon fill="#999999" stroke="#666666" points="502,-184 397,-184 397,-165 502,-165 502,-184"/>
<text text-anchor="middle" x="449.5" y="-172" font-family="Helvetica,sans-Serif" font-size="10.00">src/fw/context.cpp</text>
</a>
</g>
</g>
<!-- Node2 -->
<g id="Node000002" class="node">
<title>Node2</title>
<g id="a_Node000002"><a xlink:href="context_8hpp.html" target="_top" xlink:title=" ">
<polygon fill="white" stroke="#666666" points="269.5,-129 189.5,-129 189.5,-110 269.5,-110 269.5,-129"/>
<text text-anchor="middle" x="229.5" y="-117" font-family="Helvetica,sans-Serif" font-size="10.00">./context.hpp</text>
</a>
</g>
</g>
<!-- Node1&#45;&gt;Node2 -->
<g id="edge1_Node000001_Node000002" class="edge">
<title>Node1&#45;&gt;Node2</title>
<g id="a_edge1_Node000001_Node000002"><a xlink:title=" ">
<path fill="none" stroke="#63b8ff" d="M414.15,-164.98C376.34,-155.87 316.24,-141.4 274.93,-131.45"/>
<polygon fill="#63b8ff" stroke="#63b8ff" points="275.67,-128.02 265.12,-129.08 274.03,-134.83 275.67,-128.02"/>
</a>
</g>
</g>
<!-- Node60 -->
<g id="Node000060" class="node">
<title>Node60</title>
<g id="a_Node000060"><a xlink:href="brd_8hpp.html" target="_top" xlink:title=" ">
<polygon fill="white" stroke="#666666" points="442,-129 361,-129 361,-110 442,-110 442,-129"/>
<text text-anchor="middle" x="401.5" y="-117" font-family="Helvetica,sans-Serif" font-size="10.00">../brd/brd.hpp</text>
</a>
</g>
</g>
<!-- Node1&#45;&gt;Node60 -->
<g id="edge7_Node000001_Node000060" class="edge">
<title>Node1&#45;&gt;Node60</title>
<g id="a_edge7_Node000001_Node000060"><a xlink:title=" ">
<path fill="none" stroke="#63b8ff" d="M441.57,-164.75C434.65,-157.11 424.43,-145.82 416.05,-136.56"/>
<polygon fill="#63b8ff" stroke="#63b8ff" points="418.59,-134.15 409.28,-129.09 413.4,-138.85 418.59,-134.15"/>
</a>
</g>
</g>
<!-- Node25 -->
<g id="Node000025" class="node">
<title>Node25</title>
<g id="a_Node000025"><a xlink:href="status_8hpp.html" target="_top" xlink:title=" ">
<polygon fill="#fff0f0" stroke="red" points="537,-129 460,-129 460,-110 537,-110 537,-129"/>
<text text-anchor="middle" x="498.5" y="-117" font-family="Helvetica,sans-Serif" font-size="10.00">../status.hpp</text>
</a>
</g>
</g>
<!-- Node1&#45;&gt;Node25 -->
<g id="edge9_Node000001_Node000025" class="edge">
<title>Node1&#45;&gt;Node25</title>
<g id="a_edge9_Node000001_Node000025"><a xlink:title=" ">
<path fill="none" stroke="#63b8ff" d="M457.59,-164.75C464.66,-157.11 475.09,-145.82 483.65,-136.56"/>
<polygon fill="#63b8ff" stroke="#63b8ff" points="486.34,-138.81 490.56,-129.09 481.2,-134.06 486.34,-138.81"/>
</a>
</g>
</g>
<!-- Node61 -->
<g id="Node000061" class="node">
<title>Node61</title>
<g id="a_Node000061"><a xlink:href="fw_2util_8hpp.html" target="_top" xlink:title=" ">
<polygon fill="white" stroke="#666666" points="614,-129 555,-129 555,-110 614,-110 614,-129"/>
<text text-anchor="middle" x="584.5" y="-117" font-family="Helvetica,sans-Serif" font-size="10.00">./util.hpp</text>
</a>
</g>
</g>
<!-- Node1&#45;&gt;Node61 -->
<g id="edge10_Node000001_Node000061" class="edge">
<title>Node1&#45;&gt;Node61</title>
<g id="a_edge10_Node000001_Node000061"><a xlink:title=" ">
<path fill="none" stroke="#63b8ff" d="M471.19,-164.98C493.3,-156.3 527.82,-142.75 552.95,-132.88"/>
<polygon fill="#63b8ff" stroke="#63b8ff" points="554.39,-136.08 562.42,-129.17 551.83,-129.57 554.39,-136.08"/>
</a>
</g>
</g>
<!-- Node3 -->
<g id="Node000003" class="node">
<title>Node3</title>
<g id="a_Node000003"><a xlink:href="cfg_2dispatcher_8hpp.html" target="_top" xlink:title=" ">
<polygon fill="#fff0f0" stroke="red" points="115,-74 0,-74 0,-55 115,-55 115,-74"/>
<text text-anchor="middle" x="57.5" y="-62" font-family="Helvetica,sans-Serif" font-size="10.00">../cfg/dispatcher.hpp</text>
</a>
</g>
</g>
<!-- Node2&#45;&gt;Node3 -->
<g id="edge2_Node000002_Node000003" class="edge">
<title>Node2&#45;&gt;Node3</title>
<g id="a_edge2_Node000002_Node000003"><a xlink:title=" ">
<path fill="none" stroke="#63b8ff" d="M201.87,-109.98C172.99,-101.09 127.49,-87.07 95.3,-77.15"/>
<polygon fill="#63b8ff" stroke="#63b8ff" points="95.94,-73.68 85.35,-74.08 93.88,-80.37 95.94,-73.68"/>
</a>
</g>
</g>
<!-- Node7 -->
<g id="Node000007" class="node">
<title>Node7</title>
<g id="a_Node000007"><a xlink:href="drivers_8hpp.html" target="_top" xlink:title=" ">
<polygon fill="#fff0f0" stroke="red" points="195.5,-19 91.5,-19 91.5,0 195.5,0 195.5,-19"/>
<text text-anchor="middle" x="143.5" y="-7" font-family="Helvetica,sans-Serif" font-size="10.00">../core/drivers.hpp</text>
</a>
</g>
</g>
<!-- Node2&#45;&gt;Node7 -->
<g id="edge6_Node000002_Node000007" class="edge">
<title>Node2&#45;&gt;Node7</title>
<g id="a_edge6_Node000002_Node000007"><a xlink:title=" ">
<path fill="none" stroke="#63b8ff" d="M209.74,-109.99C194.72,-102.55 174.64,-90.38 162.5,-74 152.76,-60.85 147.98,-42.72 145.65,-29.2"/>
<polygon fill="#63b8ff" stroke="#63b8ff" points="149.09,-28.54 144.22,-19.13 142.16,-29.53 149.09,-28.54"/>
</a>
</g>
</g>
<!-- Node56 -->
<g id="Node000056" class="node">
<title>Node56</title>
<g id="a_Node000056"><a xlink:href="core_2callbacks_8hpp.html" target="_top" xlink:title=" ">
<polygon fill="#fff0f0" stroke="red" points="287.5,-74 171.5,-74 171.5,-55 287.5,-55 287.5,-74"/>
<text text-anchor="middle" x="229.5" y="-62" font-family="Helvetica,sans-Serif" font-size="10.00">../core/callbacks.hpp</text>
</a>
</g>
</g>
<!-- Node2&#45;&gt;Node56 -->
<g id="edge4_Node000002_Node000056" class="edge">
<title>Node2&#45;&gt;Node56</title>
<g id="a_edge4_Node000002_Node000056"><a xlink:title=" ">
<path fill="none" stroke="#63b8ff" d="M229.5,-109.75C229.5,-102.8 229.5,-92.85 229.5,-84.13"/>
<polygon fill="#63b8ff" stroke="#63b8ff" points="233,-84.09 229.5,-74.09 226,-84.09 233,-84.09"/>
</a>
</g>
</g>
<!-- Node58 -->
<g id="Node000058" class="node">
<title>Node58</title>
<g id="a_Node000058"><a xlink:href="core_8hpp.html" target="_top" xlink:title=" ">
<polygon fill="#fff0f0" stroke="red" points="397.5,-74 305.5,-74 305.5,-55 397.5,-55 397.5,-74"/>
<text text-anchor="middle" x="351.5" y="-62" font-family="Helvetica,sans-Serif" font-size="10.00">../core/core.hpp</text>
</a>
</g>
</g>
<!-- Node2&#45;&gt;Node58 -->
<g id="edge5_Node000002_Node000058" class="edge">
<title>Node2&#45;&gt;Node58</title>
<g id="a_edge5_Node000002_Node000058"><a xlink:title=" ">
<path fill="none" stroke="#63b8ff" d="M249.1,-109.98C268.82,-101.42 299.45,-88.11 322.08,-78.28"/>
<polygon fill="#63b8ff" stroke="#63b8ff" points="323.76,-81.37 331.54,-74.17 320.98,-74.94 323.76,-81.37"/>
</a>
</g>
</g>
<!-- Node3&#45;&gt;Node7 -->
<g id="edge3_Node000003_Node000007" class="edge">
<title>Node3&#45;&gt;Node7</title>
<g id="a_edge3_Node000003_Node000007"><a xlink:title=" ">
<path fill="none" stroke="#63b8ff" d="M71.32,-54.98C84.65,-46.77 105.08,-34.18 120.81,-24.49"/>
<polygon fill="#63b8ff" stroke="#63b8ff" points="122.75,-27.4 129.43,-19.17 119.08,-21.44 122.75,-27.4"/>
</a>
</g>
</g>
<!-- Node60&#45;&gt;Node7 -->
<g id="edge8_Node000060_Node000007" class="edge">
<title>Node60&#45;&gt;Node7</title>
<g id="a_edge8_Node000060_Node000007"><a xlink:title=" ">
<path fill="none" stroke="#63b8ff" d="M405.58,-109.94C411.3,-96.55 419.63,-70.54 406.5,-55 381.34,-25.22 275.53,-15.37 206.02,-12.11"/>
<polygon fill="#63b8ff" stroke="#63b8ff" points="205.76,-8.59 195.62,-11.65 205.46,-15.59 205.76,-8.59"/>
</a>
</g>
</g>
<!-- Node62 -->
<g id="Node000062" class="node">
<title>Node62</title>
<g id="a_Node000062"><a xlink:title=" ">
<polygon fill="#e0e0e0" stroke="#999999" points="541.5,-74 477.5,-74 477.5,-55 541.5,-55 541.5,-74"/>
<text text-anchor="middle" x="509.5" y="-62" font-family="Helvetica,sans-Serif" font-size="10.00">algorithm</text>
</a>
</g>
</g>
<!-- Node61&#45;&gt;Node62 -->
<g id="edge11_Node000061_Node000062" class="edge">
<title>Node61&#45;&gt;Node62</title>
<g id="a_edge11_Node000061_Node000062"><a xlink:title=" ">
<path fill="none" stroke="#63b8ff" d="M572.45,-109.98C561.04,-101.92 543.67,-89.65 530.07,-80.03"/>
<polygon fill="#63b8ff" stroke="#63b8ff" points="531.96,-77.08 521.77,-74.17 527.92,-82.8 531.96,-77.08"/>
</a>
</g>
</g>
<!-- Node63 -->
<g id="Node000063" class="node">
<title>Node63</title>
<g id="a_Node000063"><a xlink:title=" ">
<polygon fill="#e0e0e0" stroke="#999999" points="609.5,-74 559.5,-74 559.5,-55 609.5,-55 609.5,-74"/>
<text text-anchor="middle" x="584.5" y="-62" font-family="Helvetica,sans-Serif" font-size="10.00">cstring</text>
</a>
</g>
</g>
<!-- Node61&#45;&gt;Node63 -->
<g id="edge12_Node000061_Node000063" class="edge">
<title>Node61&#45;&gt;Node63</title>
<g id="a_edge12_Node000061_Node000063"><a xlink:title=" ">
<path fill="none" stroke="#63b8ff" d="M584.5,-109.75C584.5,-102.8 584.5,-92.85 584.5,-84.13"/>
<polygon fill="#63b8ff" stroke="#63b8ff" points="588,-84.09 584.5,-74.09 581,-84.09 588,-84.09"/>
</a>
</g>
</g>
<!-- Node23 -->
<g id="Node000023" class="node">
<title>Node23</title>
<g id="a_Node000023"><a xlink:title=" ">
<polygon fill="#e0e0e0" stroke="#999999" points="701,-74 628,-74 628,-55 701,-55 701,-74"/>
<text text-anchor="middle" x="664.5" y="-62" font-family="Helvetica,sans-Serif" font-size="10.00">string_view</text>
</a>
</g>
</g>
<!-- Node61&#45;&gt;Node23 -->
<g id="edge13_Node000061_Node000023" class="edge">
<title>Node61&#45;&gt;Node23</title>
<g id="a_edge13_Node000061_Node000023"><a xlink:title=" ">
<path fill="none" stroke="#63b8ff" d="M597.35,-109.98C609.64,-101.84 628.41,-89.41 642.98,-79.76"/>
<polygon fill="#63b8ff" stroke="#63b8ff" points="645.01,-82.61 651.41,-74.17 641.14,-76.78 645.01,-82.61"/>
</a>
</g>
</g>
</g>
</svg>
