<?xml version="1.0" encoding="UTF-8" standalone="no"?>
<!DOCTYPE svg PUBLIC "-//W3C//DTD SVG 1.1//EN"
 "http://www.w3.org/Graphics/SVG/1.1/DTD/svg11.dtd">
<!-- Generated by graphviz version 2.43.0 (0)
 -->
<!-- Title: src/control.hpp Pages: 1 -->
<svg width="362pt" height="196pt"
 viewBox="0.00 0.00 362.00 196.00" xmlns="http://www.w3.org/2000/svg" xmlns:xlink="http://www.w3.org/1999/xlink">
<g id="graph0" class="graph" transform="scale(1 1) rotate(0) translate(4 192)">
<title>src/control.hpp</title>
<polygon fill="white" stroke="transparent" points="-4,4 -4,-192 358,-192 358,4 -4,4"/>
<!-- Node1 -->
<g id="node1" class="node">
<title>Node1</title>
<g id="a_node1"><a xlink:title=" ">
<polygon fill="#bfbfbf" stroke="black" points="185,-168.5 185,-187.5 274,-187.5 274,-168.5 185,-168.5"/>
<text text-anchor="middle" x="229.5" y="-175.5" font-family="Helvetica,sans-Serif" font-size="10.00">src/control.hpp</text>
</a>
</g>
</g>
<!-- Node2 -->
<g id="node2" class="node">
<title>Node2</title>
<g id="a_node2"><a xlink:href="base_8hpp.html" target="_top" xlink:title=" ">
<polygon fill="white" stroke="black" points="116,-56.5 116,-75.5 177,-75.5 177,-56.5 116,-56.5"/>
<text text-anchor="middle" x="146.5" y="-63.5" font-family="Helvetica,sans-Serif" font-size="10.00">base.hpp</text>
</a>
</g>
</g>
<!-- Node1&#45;&gt;Node2 -->
<g id="edge1" class="edge">
<title>Node1&#45;&gt;Node2</title>
<path fill="none" stroke="midnightblue" d="M211.19,-168.46C196.76,-160.83 177.2,-148.35 165.5,-132 155.77,-118.41 150.99,-99.86 148.66,-86.06"/>
<polygon fill="midnightblue" stroke="midnightblue" points="152.07,-85.21 147.22,-75.79 145.14,-86.18 152.07,-85.21"/>
</g>
<!-- Node8 -->
<g id="node7" class="node">
<title>Node8</title>
<g id="a_node7"><a xlink:href="pid__module_8hpp.html" target="_top" xlink:title=" ">
<polygon fill="white" stroke="black" points="174.5,-112.5 174.5,-131.5 284.5,-131.5 284.5,-112.5 174.5,-112.5"/>
<text text-anchor="middle" x="229.5" y="-119.5" font-family="Helvetica,sans-Serif" font-size="10.00">ctl/pid_module.hpp</text>
</a>
</g>
</g>
<!-- Node1&#45;&gt;Node8 -->
<g id="edge6" class="edge">
<title>Node1&#45;&gt;Node8</title>
<path fill="none" stroke="midnightblue" d="M229.5,-168.08C229.5,-161.01 229.5,-150.86 229.5,-141.99"/>
<polygon fill="midnightblue" stroke="midnightblue" points="233,-141.75 229.5,-131.75 226,-141.75 233,-141.75"/>
</g>
<!-- Node10 -->
<g id="node9" class="node">
<title>Node10</title>
<g id="a_node9"><a xlink:title=" ">
<polygon fill="white" stroke="#bfbfbf" points="303,-112.5 303,-131.5 354,-131.5 354,-112.5 303,-112.5"/>
<text text-anchor="middle" x="328.5" y="-119.5" font-family="Helvetica,sans-Serif" font-size="10.00">variant</text>
</a>
</g>
</g>
<!-- Node1&#45;&gt;Node10 -->
<g id="edge9" class="edge">
<title>Node1&#45;&gt;Node10</title>
<path fill="none" stroke="midnightblue" d="M245.41,-168.32C261.14,-159.74 285.44,-146.49 303.71,-136.52"/>
<polygon fill="midnightblue" stroke="midnightblue" points="305.53,-139.52 312.63,-131.65 302.18,-133.37 305.53,-139.52"/>
</g>
<!-- Node3 -->
<g id="node3" class="node">
<title>Node3</title>
<g id="a_node3"><a xlink:href="scaled_8hpp.html" target="_top" xlink:title=" ">
<polygon fill="white" stroke="red" points="0,-0.5 0,-19.5 69,-19.5 69,-0.5 0,-0.5"/>
<text text-anchor="middle" x="34.5" y="-7.5" font-family="Helvetica,sans-Serif" font-size="10.00">scaled.hpp</text>
</a>
</g>
</g>
<!-- Node2&#45;&gt;Node3 -->
<g id="edge2" class="edge">
<title>Node2&#45;&gt;Node3</title>
<path fill="none" stroke="midnightblue" d="M128.51,-56.32C110.46,-47.62 82.45,-34.12 61.7,-24.11"/>
<polygon fill="midnightblue" stroke="midnightblue" points="62.98,-20.84 52.45,-19.65 59.94,-27.15 62.98,-20.84"/>
</g>
<!-- Node5 -->
<g id="node4" class="node">
<title>Node5</title>
<g id="a_node4"><a xlink:title=" ">
<polygon fill="white" stroke="#bfbfbf" points="87.5,-0.5 87.5,-19.5 137.5,-19.5 137.5,-0.5 87.5,-0.5"/>
<text text-anchor="middle" x="112.5" y="-7.5" font-family="Helvetica,sans-Serif" font-size="10.00">chrono</text>
</a>
</g>
</g>
<!-- Node2&#45;&gt;Node5 -->
<g id="edge3" class="edge">
<title>Node2&#45;&gt;Node5</title>
<path fill="none" stroke="midnightblue" d="M140.89,-56.08C136.13,-48.53 129.18,-37.49 123.35,-28.23"/>
<polygon fill="midnightblue" stroke="midnightblue" points="126.3,-26.35 118.01,-19.75 120.38,-30.08 126.3,-26.35"/>
</g>
<!-- Node6 -->
<g id="node5" class="node">
<title>Node6</title>
<g id="a_node5"><a xlink:title=" ">
<polygon fill="white" stroke="#bfbfbf" points="155.5,-0.5 155.5,-19.5 205.5,-19.5 205.5,-0.5 155.5,-0.5"/>
<text text-anchor="middle" x="180.5" y="-7.5" font-family="Helvetica,sans-Serif" font-size="10.00">cstdint</text>
</a>
</g>
</g>
<!-- Node2&#45;&gt;Node6 -->
<g id="edge4" class="edge">
<title>Node2&#45;&gt;Node6</title>
<path fill="none" stroke="midnightblue" d="M152.11,-56.08C156.87,-48.53 163.82,-37.49 169.65,-28.23"/>
<polygon fill="midnightblue" stroke="midnightblue" points="172.62,-30.08 174.99,-19.75 166.7,-26.35 172.62,-30.08"/>
</g>
<!-- Node7 -->
<g id="node6" class="node">
<title>Node7</title>
<g id="a_node6"><a xlink:title=" ">
<polygon fill="white" stroke="#bfbfbf" points="223.5,-0.5 223.5,-19.5 347.5,-19.5 347.5,-0.5 223.5,-0.5"/>
<text text-anchor="middle" x="285.5" y="-7.5" font-family="Helvetica,sans-Serif" font-size="10.00">emlabcpp/algorithm.h</text>
</a>
</g>
</g>
<!-- Node2&#45;&gt;Node7 -->
<g id="edge5" class="edge">
<title>Node2&#45;&gt;Node7</title>
<path fill="none" stroke="midnightblue" d="M168.52,-56.44C191.6,-47.48 228.06,-33.31 254.14,-23.18"/>
<polygon fill="midnightblue" stroke="midnightblue" points="255.52,-26.4 263.58,-19.52 252.99,-19.88 255.52,-26.4"/>
</g>
<!-- Node8&#45;&gt;Node2 -->
<g id="edge7" class="edge">
<title>Node8&#45;&gt;Node2</title>
<path fill="none" stroke="midnightblue" d="M216.16,-112.32C203.34,-103.98 183.72,-91.21 168.56,-81.35"/>
<polygon fill="midnightblue" stroke="midnightblue" points="170.09,-78.17 159.8,-75.65 166.28,-84.04 170.09,-78.17"/>
</g>
<!-- Node9 -->
<g id="node8" class="node">
<title>Node9</title>
<g id="a_node8"><a xlink:title=" ">
<polygon fill="white" stroke="#bfbfbf" points="195.5,-56.5 195.5,-75.5 287.5,-75.5 287.5,-56.5 195.5,-56.5"/>
<text text-anchor="middle" x="241.5" y="-63.5" font-family="Helvetica,sans-Serif" font-size="10.00">emlabcpp/pid.h</text>
</a>
</g>
</g>
<!-- Node8&#45;&gt;Node9 -->
<g id="edge8" class="edge">
<title>Node8&#45;&gt;Node9</title>
<path fill="none" stroke="midnightblue" d="M231.48,-112.08C233.07,-104.93 235.36,-94.64 237.35,-85.69"/>
<polygon fill="midnightblue" stroke="midnightblue" points="240.8,-86.27 239.56,-75.75 233.97,-84.75 240.8,-86.27"/>
</g>
</g>
</svg>
