<?xml version="1.0" encoding="UTF-8" standalone="no"?>
<!DOCTYPE svg PUBLIC "-//W3C//DTD SVG 1.1//EN"
 "http://www.w3.org/Graphics/SVG/1.1/DTD/svg11.dtd">
<!-- Generated by graphviz version 2.43.0 (0)
 -->
<!-- Title: src/ctl/tests/control_utest.cpp Pages: 1 -->
<svg width="1067pt" height="229pt"
 viewBox="0.00 0.00 1067.00 229.00" xmlns="http://www.w3.org/2000/svg" xmlns:xlink="http://www.w3.org/1999/xlink">
<g id="graph0" class="graph" transform="scale(1 1) rotate(0) translate(4 225)">
<title>src/ctl/tests/control_utest.cpp</title>
<polygon fill="white" stroke="transparent" points="-4,4 -4,-225 1063,-225 1063,4 -4,4"/>
<!-- Node1 -->
<g id="node1" class="node">
<title>Node1</title>
<g id="a_node1"><a xlink:title=" ">
<polygon fill="#bfbfbf" stroke="black" points="643,-190.5 643,-220.5 753,-220.5 753,-190.5 643,-190.5"/>
<text text-anchor="start" x="651" y="-208.5" font-family="Helvetica,sans-Serif" font-size="10.00">src/ctl/tests/control</text>
<text text-anchor="middle" x="698" y="-197.5" font-family="Helvetica,sans-Serif" font-size="10.00">_utest.cpp</text>
</a>
</g>
</g>
<!-- Node2 -->
<g id="node2" class="node">
<title>Node2</title>
<g id="a_node2"><a xlink:href="control_8hpp.html" target="_top" xlink:title=" ">
<polygon fill="white" stroke="black" points="199,-129 199,-148 285,-148 285,-129 199,-129"/>
<text text-anchor="middle" x="242" y="-136" font-family="Helvetica,sans-Serif" font-size="10.00">ctl/control.hpp</text>
</a>
</g>
</g>
<!-- Node1&#45;&gt;Node2 -->
<g id="edge1" class="edge">
<title>Node1&#45;&gt;Node2</title>
<path fill="none" stroke="midnightblue" d="M643,-196.66C554.7,-184.07 382.44,-159.52 295.26,-147.09"/>
<polygon fill="midnightblue" stroke="midnightblue" points="295.71,-143.62 285.32,-145.67 294.72,-150.55 295.71,-143.62"/>
</g>
<!-- Node14 -->
<g id="node8" class="node">
<title>Node14</title>
<g id="a_node8"><a xlink:href="motor_8hpp.html" target="_top" xlink:title=" ">
<polygon fill="white" stroke="black" points="451.5,-129 451.5,-148 538.5,-148 538.5,-129 451.5,-129"/>
<text text-anchor="middle" x="495" y="-136" font-family="Helvetica,sans-Serif" font-size="10.00">sim/motor.hpp</text>
</a>
</g>
</g>
<!-- Node1&#45;&gt;Node14 -->
<g id="edge8" class="edge">
<title>Node1&#45;&gt;Node14</title>
<path fill="none" stroke="midnightblue" d="M653.95,-190.4C617.23,-178.64 565.55,-162.09 531.2,-151.09"/>
<polygon fill="midnightblue" stroke="midnightblue" points="532.16,-147.72 521.57,-148.01 530.02,-154.39 532.16,-147.72"/>
</g>
<!-- Node18 -->
<g id="node12" class="node">
<title>Node18</title>
<g id="a_node12"><a xlink:title=" ">
<polygon fill="white" stroke="#bfbfbf" points="556.5,-123.5 556.5,-153.5 689.5,-153.5 689.5,-123.5 556.5,-123.5"/>
<text text-anchor="start" x="564.5" y="-141.5" font-family="Helvetica,sans-Serif" font-size="10.00">emlabcpp/experimental</text>
<text text-anchor="middle" x="623" y="-130.5" font-family="Helvetica,sans-Serif" font-size="10.00">/logging.h</text>
</a>
</g>
</g>
<!-- Node1&#45;&gt;Node18 -->
<g id="edge12" class="edge">
<title>Node1&#45;&gt;Node18</title>
<path fill="none" stroke="midnightblue" d="M681.73,-190.4C671.6,-181.62 658.4,-170.18 647.08,-160.37"/>
<polygon fill="midnightblue" stroke="midnightblue" points="649.09,-157.48 639.24,-153.58 644.51,-162.77 649.09,-157.48"/>
</g>
<!-- Node19 -->
<g id="node13" class="node">
<title>Node19</title>
<g id="a_node13"><a xlink:title=" ">
<polygon fill="white" stroke="#bfbfbf" points="707.5,-123.5 707.5,-153.5 840.5,-153.5 840.5,-123.5 707.5,-123.5"/>
<text text-anchor="start" x="715.5" y="-141.5" font-family="Helvetica,sans-Serif" font-size="10.00">emlabcpp/experimental</text>
<text text-anchor="middle" x="774" y="-130.5" font-family="Helvetica,sans-Serif" font-size="10.00">/logging/util.h</text>
</a>
</g>
</g>
<!-- Node1&#45;&gt;Node19 -->
<g id="edge13" class="edge">
<title>Node1&#45;&gt;Node19</title>
<path fill="none" stroke="midnightblue" d="M714.49,-190.4C724.85,-181.54 738.38,-169.96 749.93,-160.09"/>
<polygon fill="midnightblue" stroke="midnightblue" points="752.22,-162.74 757.54,-153.58 747.67,-157.42 752.22,-162.74"/>
</g>
<!-- Node20 -->
<g id="node14" class="node">
<title>Node20</title>
<g id="a_node14"><a xlink:title=" ">
<polygon fill="white" stroke="#bfbfbf" points="859,-129 859,-148 963,-148 963,-129 859,-129"/>
<text text-anchor="middle" x="911" y="-136" font-family="Helvetica,sans-Serif" font-size="10.00">emlabcpp/range.h</text>
</a>
</g>
</g>
<!-- Node1&#45;&gt;Node20 -->
<g id="edge14" class="edge">
<title>Node1&#45;&gt;Node20</title>
<path fill="none" stroke="midnightblue" d="M743.96,-190.48C782.63,-178.67 837.27,-162 873.38,-150.98"/>
<polygon fill="midnightblue" stroke="midnightblue" points="874.51,-154.3 883.05,-148.03 872.47,-147.6 874.51,-154.3"/>
</g>
<!-- Node21 -->
<g id="node15" class="node">
<title>Node21</title>
<g id="a_node15"><a xlink:title=" ">
<polygon fill="white" stroke="#bfbfbf" points="981,-129 981,-148 1059,-148 1059,-129 981,-129"/>
<text text-anchor="middle" x="1020" y="-136" font-family="Helvetica,sans-Serif" font-size="10.00">gtest/gtest.h</text>
</a>
</g>
</g>
<!-- Node1&#45;&gt;Node21 -->
<g id="edge15" class="edge">
<title>Node1&#45;&gt;Node21</title>
<path fill="none" stroke="midnightblue" d="M753.22,-196.17C808.83,-187.35 896.9,-172.2 972,-154 975.89,-153.06 979.92,-151.99 983.93,-150.86"/>
<polygon fill="midnightblue" stroke="midnightblue" points="985.11,-154.17 993.74,-148.01 983.16,-147.44 985.11,-154.17"/>
</g>
<!-- Node3 -->
<g id="node3" class="node">
<title>Node3</title>
<g id="a_node3"><a xlink:href="config_8hpp.html" target="_top" xlink:title=" ">
<polygon fill="white" stroke="red" points="0,-62 0,-81 82,-81 82,-62 0,-62"/>
<text text-anchor="middle" x="41" y="-69" font-family="Helvetica,sans-Serif" font-size="10.00">ctl/config.hpp</text>
</a>
</g>
</g>
<!-- Node2&#45;&gt;Node3 -->
<g id="edge2" class="edge">
<title>Node2&#45;&gt;Node3</title>
<path fill="none" stroke="midnightblue" d="M215.31,-128.87C179.77,-117.38 116.79,-97.01 77.05,-84.16"/>
<polygon fill="midnightblue" stroke="midnightblue" points="78.07,-80.81 67.48,-81.06 75.92,-87.47 78.07,-80.81"/>
</g>
<!-- Node9 -->
<g id="node4" class="node">
<title>Node9</title>
<g id="a_node4"><a xlink:title=" ">
<polygon fill="white" stroke="#bfbfbf" points="29,-0.5 29,-19.5 121,-19.5 121,-0.5 29,-0.5"/>
<text text-anchor="middle" x="75" y="-7.5" font-family="Helvetica,sans-Serif" font-size="10.00">emlabcpp/pid.h</text>
</a>
</g>
</g>
<!-- Node2&#45;&gt;Node9 -->
<g id="edge5" class="edge">
<title>Node2&#45;&gt;Node9</title>
<path fill="none" stroke="midnightblue" d="M211.77,-128.88C187.52,-120.89 153.59,-107.16 129,-87 109.3,-70.85 93.42,-45.85 84.1,-28.97"/>
<polygon fill="midnightblue" stroke="midnightblue" points="86.95,-26.86 79.17,-19.66 80.76,-30.14 86.95,-26.86"/>
</g>
<!-- Node10 -->
<g id="node5" class="node">
<title>Node10</title>
<g id="a_node5"><a xlink:href="linear__transition__regulator_8hpp.html" target="_top" xlink:title=" ">
<polygon fill="white" stroke="red" points="138.5,-56.5 138.5,-86.5 249.5,-86.5 249.5,-56.5 138.5,-56.5"/>
<text text-anchor="start" x="146.5" y="-74.5" font-family="Helvetica,sans-Serif" font-size="10.00">ctl/linear_transition</text>
<text text-anchor="middle" x="194" y="-63.5" font-family="Helvetica,sans-Serif" font-size="10.00">_regulator.hpp</text>
</a>
</g>
</g>
<!-- Node2&#45;&gt;Node10 -->
<g id="edge4" class="edge">
<title>Node2&#45;&gt;Node10</title>
<path fill="none" stroke="midnightblue" d="M235.53,-128.73C229.1,-120.03 218.99,-106.34 210.36,-94.65"/>
<polygon fill="midnightblue" stroke="midnightblue" points="213.16,-92.55 204.4,-86.59 207.53,-96.71 213.16,-92.55"/>
</g>
<!-- Node12 -->
<g id="node6" class="node">
<title>Node12</title>
<g id="a_node6"><a xlink:title=" ">
<polygon fill="white" stroke="#bfbfbf" points="268,-62 268,-81 312,-81 312,-62 268,-62"/>
<text text-anchor="middle" x="290" y="-69" font-family="Helvetica,sans-Serif" font-size="10.00">limits</text>
</a>
</g>
</g>
<!-- Node2&#45;&gt;Node12 -->
<g id="edge6" class="edge">
<title>Node2&#45;&gt;Node12</title>
<path fill="none" stroke="midnightblue" d="M248.47,-128.73C255.89,-118.7 268.2,-102.01 277.5,-89.42"/>
<polygon fill="midnightblue" stroke="midnightblue" points="280.5,-91.25 283.63,-81.13 274.87,-87.09 280.5,-91.25"/>
</g>
<!-- Node13 -->
<g id="node7" class="node">
<title>Node13</title>
<g id="a_node7"><a xlink:title=" ">
<polygon fill="white" stroke="#bfbfbf" points="330.5,-62 330.5,-81 381.5,-81 381.5,-62 330.5,-62"/>
<text text-anchor="middle" x="356" y="-69" font-family="Helvetica,sans-Serif" font-size="10.00">variant</text>
</a>
</g>
</g>
<!-- Node2&#45;&gt;Node13 -->
<g id="edge7" class="edge">
<title>Node2&#45;&gt;Node13</title>
<path fill="none" stroke="midnightblue" d="M257.37,-128.73C276.52,-117.82 309.44,-99.05 331.94,-86.22"/>
<polygon fill="midnightblue" stroke="midnightblue" points="333.92,-89.12 340.87,-81.13 330.45,-83.04 333.92,-89.12"/>
</g>
<!-- Node3&#45;&gt;Node9 -->
<g id="edge3" class="edge">
<title>Node3&#45;&gt;Node9</title>
<path fill="none" stroke="midnightblue" d="M45.87,-61.98C50.87,-53.23 58.79,-39.37 65.11,-28.31"/>
<polygon fill="midnightblue" stroke="midnightblue" points="68.22,-29.93 70.14,-19.51 62.14,-26.46 68.22,-29.93"/>
</g>
<!-- Node15 -->
<g id="node9" class="node">
<title>Node15</title>
<g id="a_node9"><a xlink:title=" ">
<polygon fill="white" stroke="#bfbfbf" points="399.5,-62 399.5,-81 500.5,-81 500.5,-62 399.5,-62"/>
<text text-anchor="middle" x="450" y="-69" font-family="Helvetica,sans-Serif" font-size="10.00">emlabcpp/defer.h</text>
</a>
</g>
</g>
<!-- Node14&#45;&gt;Node15 -->
<g id="edge9" class="edge">
<title>Node14&#45;&gt;Node15</title>
<path fill="none" stroke="midnightblue" d="M488.93,-128.73C481.98,-118.7 470.43,-102.01 461.71,-89.42"/>
<polygon fill="midnightblue" stroke="midnightblue" points="464.54,-87.36 455.97,-81.13 458.79,-91.34 464.54,-87.36"/>
</g>
<!-- Node16 -->
<g id="node10" class="node">
<title>Node16</title>
<g id="a_node10"><a xlink:title=" ">
<polygon fill="white" stroke="#bfbfbf" points="519,-62 519,-81 561,-81 561,-62 519,-62"/>
<text text-anchor="middle" x="540" y="-69" font-family="Helvetica,sans-Serif" font-size="10.00">array</text>
</a>
</g>
</g>
<!-- Node14&#45;&gt;Node16 -->
<g id="edge10" class="edge">
<title>Node14&#45;&gt;Node16</title>
<path fill="none" stroke="midnightblue" d="M501.07,-128.73C508.02,-118.7 519.57,-102.01 528.29,-89.42"/>
<polygon fill="midnightblue" stroke="midnightblue" points="531.21,-91.34 534.03,-81.13 525.46,-87.36 531.21,-91.34"/>
</g>
<!-- Node17 -->
<g id="node11" class="node">
<title>Node17</title>
<g id="a_node11"><a xlink:title=" ">
<polygon fill="white" stroke="#bfbfbf" points="579,-62 579,-81 639,-81 639,-62 579,-62"/>
<text text-anchor="middle" x="609" y="-69" font-family="Helvetica,sans-Serif" font-size="10.00">iostream</text>
</a>
</g>
</g>
<!-- Node14&#45;&gt;Node17 -->
<g id="edge11" class="edge">
<title>Node14&#45;&gt;Node17</title>
<path fill="none" stroke="midnightblue" d="M510.37,-128.73C529.52,-117.82 562.44,-99.05 584.94,-86.22"/>
<polygon fill="midnightblue" stroke="midnightblue" points="586.92,-89.12 593.87,-81.13 583.45,-83.04 586.92,-89.12"/>
</g>
</g>
</svg>
