<?xml version="1.0" encoding="UTF-8" standalone="no"?>
<!DOCTYPE svg PUBLIC "-//W3C//DTD SVG 1.1//EN"
 "http://www.w3.org/Graphics/SVG/1.1/DTD/svg11.dtd">
<!-- Generated by graphviz version 2.43.0 (0)
 -->
<!-- Title: src/control.cpp Pages: 1 -->
<svg width="429pt" height="263pt"
 viewBox="0.00 0.00 428.65 263.00" xmlns="http://www.w3.org/2000/svg" xmlns:xlink="http://www.w3.org/1999/xlink">
<g id="graph0" class="graph" transform="scale(1 1) rotate(0) translate(4 259)">
<title>src/control.cpp</title>
<polygon fill="white" stroke="transparent" points="-4,4 -4,-259 424.65,-259 424.65,4 -4,4"/>
<!-- Node1 -->
<g id="node1" class="node">
<title>Node1</title>
<g id="a_node1"><a xlink:title=" ">
<polygon fill="#bfbfbf" stroke="black" points="156.65,-235.5 156.65,-254.5 244.65,-254.5 244.65,-235.5 156.65,-235.5"/>
<text text-anchor="middle" x="200.65" y="-242.5" font-family="Helvetica,sans-Serif" font-size="10.00">src/control.cpp</text>
</a>
</g>
</g>
<!-- Node2 -->
<g id="node2" class="node">
<title>Node2</title>
<g id="a_node2"><a xlink:href="control_8hpp.html" target="_top" xlink:title=" ">
<polygon fill="white" stroke="black" points="58.15,-174 58.15,-193 129.15,-193 129.15,-174 58.15,-174"/>
<text text-anchor="middle" x="93.65" y="-181" font-family="Helvetica,sans-Serif" font-size="10.00">control.hpp</text>
</a>
</g>
</g>
<!-- Node1&#45;&gt;Node2 -->
<g id="edge1" class="edge">
<title>Node1&#45;&gt;Node2</title>
<path fill="none" stroke="midnightblue" d="M185.32,-235.48C167.68,-225.67 138.5,-209.43 117.8,-197.92"/>
<polygon fill="midnightblue" stroke="midnightblue" points="119.4,-194.81 108.96,-193.01 116,-200.93 119.4,-194.81"/>
</g>
<!-- Node14 -->
<g id="node7" class="node">
<title>Node14</title>
<g id="a_node7"><a xlink:title=" ">
<polygon fill="white" stroke="#bfbfbf" points="147.15,-174 147.15,-193 254.15,-193 254.15,-174 147.15,-174"/>
<text text-anchor="middle" x="200.65" y="-181" font-family="Helvetica,sans-Serif" font-size="10.00">emlabcpp/match.h</text>
</a>
</g>
</g>
<!-- Node1&#45;&gt;Node14 -->
<g id="edge8" class="edge">
<title>Node1&#45;&gt;Node14</title>
<path fill="none" stroke="midnightblue" d="M200.65,-235.48C200.65,-227.08 200.65,-213.98 200.65,-203.16"/>
<polygon fill="midnightblue" stroke="midnightblue" points="204.15,-203.01 200.65,-193.01 197.15,-203.01 204.15,-203.01"/>
</g>
<!-- Node15 -->
<g id="node8" class="node">
<title>Node15</title>
<g id="a_node8"><a xlink:title=" ">
<polygon fill="white" stroke="#bfbfbf" points="272.65,-168.5 272.65,-198.5 420.65,-198.5 420.65,-168.5 272.65,-168.5"/>
<text text-anchor="start" x="280.65" y="-186.5" font-family="Helvetica,sans-Serif" font-size="10.00">emlabcpp/protocol/register</text>
<text text-anchor="middle" x="346.65" y="-175.5" font-family="Helvetica,sans-Serif" font-size="10.00">_handler.h</text>
</a>
</g>
</g>
<!-- Node1&#45;&gt;Node15 -->
<g id="edge9" class="edge">
<title>Node1&#45;&gt;Node15</title>
<path fill="none" stroke="midnightblue" d="M221.57,-235.48C242.64,-226.89 275.78,-213.38 302.66,-202.43"/>
<polygon fill="midnightblue" stroke="midnightblue" points="304.31,-205.54 312.25,-198.52 301.66,-199.06 304.31,-205.54"/>
</g>
<!-- Node3 -->
<g id="node3" class="node">
<title>Node3</title>
<g id="a_node3"><a xlink:href="base_8hpp.html" target="_top" xlink:title=" ">
<polygon fill="white" stroke="red" points="1.15,-0.5 1.15,-19.5 62.15,-19.5 62.15,-0.5 1.15,-0.5"/>
<text text-anchor="middle" x="31.65" y="-7.5" font-family="Helvetica,sans-Serif" font-size="10.00">base.hpp</text>
</a>
</g>
</g>
<!-- Node2&#45;&gt;Node3 -->
<g id="edge2" class="edge">
<title>Node2&#45;&gt;Node3</title>
<path fill="none" stroke="midnightblue" d="M65.59,-173.89C46.09,-166.27 21.55,-153.03 9.65,-132 -6.97,-102.6 2.04,-88.91 9.65,-56 11.88,-46.36 16.48,-36.41 20.89,-28.31"/>
<polygon fill="midnightblue" stroke="midnightblue" points="24.01,-29.92 26.02,-19.52 17.96,-26.4 24.01,-29.92"/>
</g>
<!-- Node10 -->
<g id="node4" class="node">
<title>Node10</title>
<g id="a_node4"><a xlink:href="ctl_2config_8hpp.html" target="_top" xlink:title=" ">
<polygon fill="white" stroke="black" points="18.65,-112.5 18.65,-131.5 100.65,-131.5 100.65,-112.5 18.65,-112.5"/>
<text text-anchor="middle" x="59.65" y="-119.5" font-family="Helvetica,sans-Serif" font-size="10.00">ctl/config.hpp</text>
</a>
</g>
</g>
<!-- Node2&#45;&gt;Node10 -->
<g id="edge3" class="edge">
<title>Node2&#45;&gt;Node10</title>
<path fill="none" stroke="midnightblue" d="M88.78,-173.98C83.78,-165.23 75.87,-151.37 69.55,-140.31"/>
<polygon fill="midnightblue" stroke="midnightblue" points="72.52,-138.46 64.52,-131.51 66.44,-141.93 72.52,-138.46"/>
</g>
<!-- Node11 -->
<g id="node5" class="node">
<title>Node11</title>
<g id="a_node5"><a xlink:href="pid__module_8hpp.html" target="_top" xlink:title=" ">
<polygon fill="white" stroke="red" points="18.65,-56.5 18.65,-75.5 128.65,-75.5 128.65,-56.5 18.65,-56.5"/>
<text text-anchor="middle" x="73.65" y="-63.5" font-family="Helvetica,sans-Serif" font-size="10.00">ctl/pid_module.hpp</text>
</a>
</g>
</g>
<!-- Node2&#45;&gt;Node11 -->
<g id="edge6" class="edge">
<title>Node2&#45;&gt;Node11</title>
<path fill="none" stroke="midnightblue" d="M98.79,-173.64C105.94,-160.09 117.22,-133.55 109.65,-112 105.87,-101.21 98.29,-91.08 91.05,-83.18"/>
<polygon fill="midnightblue" stroke="midnightblue" points="93.32,-80.49 83.82,-75.81 88.33,-85.4 93.32,-80.49"/>
</g>
<!-- Node13 -->
<g id="node6" class="node">
<title>Node13</title>
<g id="a_node6"><a xlink:title=" ">
<polygon fill="white" stroke="#bfbfbf" points="157.15,-112.5 157.15,-131.5 208.15,-131.5 208.15,-112.5 157.15,-112.5"/>
<text text-anchor="middle" x="182.65" y="-119.5" font-family="Helvetica,sans-Serif" font-size="10.00">variant</text>
</a>
</g>
</g>
<!-- Node2&#45;&gt;Node13 -->
<g id="edge7" class="edge">
<title>Node2&#45;&gt;Node13</title>
<path fill="none" stroke="midnightblue" d="M106.41,-173.98C120.68,-164.43 144.05,-148.81 161.16,-137.37"/>
<polygon fill="midnightblue" stroke="midnightblue" points="163.56,-139.98 169.93,-131.51 159.67,-134.16 163.56,-139.98"/>
</g>
<!-- Node10&#45;&gt;Node11 -->
<g id="edge4" class="edge">
<title>Node10&#45;&gt;Node11</title>
<path fill="none" stroke="midnightblue" d="M61.97,-112.08C63.82,-104.93 66.49,-94.64 68.81,-85.69"/>
<polygon fill="midnightblue" stroke="midnightblue" points="72.26,-86.31 71.39,-75.75 65.49,-84.55 72.26,-86.31"/>
</g>
<!-- Node11&#45;&gt;Node3 -->
<g id="edge5" class="edge">
<title>Node11&#45;&gt;Node3</title>
<path fill="none" stroke="midnightblue" d="M66.72,-56.08C60.73,-48.38 51.9,-37.03 44.61,-27.65"/>
<polygon fill="midnightblue" stroke="midnightblue" points="47.36,-25.5 38.46,-19.75 41.84,-29.79 47.36,-25.5"/>
</g>
</g>
</svg>
