<?xml version="1.0" encoding="UTF-8" standalone="no"?>
<!DOCTYPE svg PUBLIC "-//W3C//DTD SVG 1.1//EN"
 "http://www.w3.org/Graphics/SVG/1.1/DTD/svg11.dtd">
<!-- Generated by graphviz version 2.43.0 (0)
 -->
<!-- Title: src/fw/context.cpp Pages: 1 -->
<svg width="396pt" height="252pt"
 viewBox="0.00 0.00 395.50 252.00" xmlns="http://www.w3.org/2000/svg" xmlns:xlink="http://www.w3.org/1999/xlink">
<g id="graph0" class="graph" transform="scale(1 1) rotate(0) translate(4 248)">
<title>src/fw/context.cpp</title>
<polygon fill="white" stroke="transparent" points="-4,4 -4,-248 391.5,-248 391.5,4 -4,4"/>
<!-- Node1 -->
<g id="node1" class="node">
<title>Node1</title>
<g id="a_node1"><a xlink:title=" ">
<polygon fill="#bfbfbf" stroke="black" points="134.5,-224.5 134.5,-243.5 239.5,-243.5 239.5,-224.5 134.5,-224.5"/>
<text text-anchor="middle" x="187" y="-231.5" font-family="Helvetica,sans-Serif" font-size="10.00">src/fw/context.cpp</text>
</a>
</g>
</g>
<!-- Node2 -->
<g id="node2" class="node">
<title>Node2</title>
<g id="a_node2"><a xlink:href="context_8hpp.html" target="_top" xlink:title=" ">
<polygon fill="white" stroke="black" points="147,-168.5 147,-187.5 227,-187.5 227,-168.5 147,-168.5"/>
<text text-anchor="middle" x="187" y="-175.5" font-family="Helvetica,sans-Serif" font-size="10.00">./context.hpp</text>
</a>
</g>
</g>
<!-- Node1&#45;&gt;Node2 -->
<g id="edge1" class="edge">
<title>Node1&#45;&gt;Node2</title>
<path fill="none" stroke="midnightblue" d="M187,-224.08C187,-217.01 187,-206.86 187,-197.99"/>
<polygon fill="midnightblue" stroke="midnightblue" points="190.5,-197.75 187,-187.75 183.5,-197.75 190.5,-197.75"/>
</g>
<!-- Node51 -->
<g id="node8" class="node">
<title>Node51</title>
<g id="a_node8"><a xlink:href="util_8hpp.html" target="_top" xlink:title=" ">
<polygon fill="white" stroke="red" points="328.5,-56.5 328.5,-75.5 387.5,-75.5 387.5,-56.5 328.5,-56.5"/>
<text text-anchor="middle" x="358" y="-63.5" font-family="Helvetica,sans-Serif" font-size="10.00">./util.hpp</text>
</a>
</g>
</g>
<!-- Node1&#45;&gt;Node51 -->
<g id="edge14" class="edge">
<title>Node1&#45;&gt;Node51</title>
<path fill="none" stroke="midnightblue" d="M197.32,-224.45C217.63,-207.49 263.92,-168.11 300,-132 315.78,-116.2 332.66,-97 344.11,-83.58"/>
<polygon fill="midnightblue" stroke="midnightblue" points="347,-85.59 350.79,-75.69 341.66,-81.07 347,-85.59"/>
</g>
<!-- Node54 -->
<g id="node9" class="node">
<title>Node54</title>
<g id="a_node9"><a xlink:href="brd_8hpp.html" target="_top" xlink:title=" ">
<polygon fill="white" stroke="black" points="2.5,-56.5 2.5,-75.5 83.5,-75.5 83.5,-56.5 2.5,-56.5"/>
<text text-anchor="middle" x="43" y="-63.5" font-family="Helvetica,sans-Serif" font-size="10.00">../brd/brd.hpp</text>
</a>
</g>
</g>
<!-- Node1&#45;&gt;Node54 -->
<g id="edge11" class="edge">
<title>Node1&#45;&gt;Node54</title>
<path fill="none" stroke="midnightblue" d="M176.79,-224.48C166.56,-215.75 150.55,-201.56 138,-188 105.65,-153.05 72.27,-108.08 54.99,-84"/>
<polygon fill="midnightblue" stroke="midnightblue" points="57.66,-81.71 49.01,-75.6 51.96,-85.77 57.66,-81.71"/>
</g>
<!-- Node3 -->
<g id="node3" class="node">
<title>Node3</title>
<g id="a_node3"><a xlink:href="cfg_2dispatcher_8hpp.html" target="_top" xlink:title=" ">
<polygon fill="white" stroke="red" points="140.5,-56.5 140.5,-75.5 255.5,-75.5 255.5,-56.5 140.5,-56.5"/>
<text text-anchor="middle" x="198" y="-63.5" font-family="Helvetica,sans-Serif" font-size="10.00">../cfg/dispatcher.hpp</text>
</a>
</g>
</g>
<!-- Node2&#45;&gt;Node3 -->
<g id="edge2" class="edge">
<title>Node2&#45;&gt;Node3</title>
<path fill="none" stroke="midnightblue" d="M181.37,-168.14C174.12,-155.61 163.12,-131.99 169,-112 172.01,-101.76 178.15,-91.66 184.01,-83.63"/>
<polygon fill="midnightblue" stroke="midnightblue" points="186.93,-85.58 190.33,-75.54 181.41,-81.27 186.93,-85.58"/>
</g>
<!-- Node4 -->
<g id="node4" class="node">
<title>Node4</title>
<g id="a_node4"><a xlink:href="core_8hpp.html" target="_top" xlink:title=" ">
<polygon fill="white" stroke="red" points="240,-0.5 240,-19.5 332,-19.5 332,-0.5 240,-0.5"/>
<text text-anchor="middle" x="286" y="-7.5" font-family="Helvetica,sans-Serif" font-size="10.00">../core/core.hpp</text>
</a>
</g>
</g>
<!-- Node2&#45;&gt;Node4 -->
<g id="edge6" class="edge">
<title>Node2&#45;&gt;Node4</title>
<path fill="none" stroke="midnightblue" d="M226.35,-168.39C246.21,-161.88 268.65,-150.73 281,-132 301.56,-100.81 295.99,-54.62 290.65,-29.28"/>
<polygon fill="midnightblue" stroke="midnightblue" points="294.06,-28.47 288.39,-19.52 287.24,-30.05 294.06,-28.47"/>
</g>
<!-- Node44 -->
<g id="node5" class="node">
<title>Node44</title>
<g id="a_node5"><a xlink:href="drivers_8hpp.html" target="_top" xlink:title=" ">
<polygon fill="white" stroke="red" points="104,-0.5 104,-19.5 208,-19.5 208,-0.5 104,-0.5"/>
<text text-anchor="middle" x="156" y="-7.5" font-family="Helvetica,sans-Serif" font-size="10.00">../core/drivers.hpp</text>
</a>
</g>
</g>
<!-- Node2&#45;&gt;Node44 -->
<g id="edge7" class="edge">
<title>Node2&#45;&gt;Node44</title>
<path fill="none" stroke="midnightblue" d="M180.26,-168.47C167.6,-151.84 140.69,-113.46 131,-76 126.66,-59.23 135.01,-40.88 143.2,-27.97"/>
<polygon fill="midnightblue" stroke="midnightblue" points="146.15,-29.84 148.95,-19.62 140.39,-25.87 146.15,-29.84"/>
</g>
<!-- Node46 -->
<g id="node7" class="node">
<title>Node46</title>
<g id="a_node7"><a xlink:href="fw_2dispatcher_8hpp.html" target="_top" xlink:title=" ">
<polygon fill="white" stroke="red" points="178,-112.5 178,-131.5 272,-131.5 272,-112.5 178,-112.5"/>
<text text-anchor="middle" x="225" y="-119.5" font-family="Helvetica,sans-Serif" font-size="10.00">./dispatcher.hpp</text>
</a>
</g>
</g>
<!-- Node2&#45;&gt;Node46 -->
<g id="edge8" class="edge">
<title>Node2&#45;&gt;Node46</title>
<path fill="none" stroke="midnightblue" d="M193.27,-168.08C198.64,-160.46 206.52,-149.26 213.08,-139.94"/>
<polygon fill="midnightblue" stroke="midnightblue" points="215.95,-141.94 218.84,-131.75 210.22,-137.91 215.95,-141.94"/>
</g>
<!-- Node3&#45;&gt;Node4 -->
<g id="edge3" class="edge">
<title>Node3&#45;&gt;Node4</title>
<path fill="none" stroke="midnightblue" d="M212.14,-56.32C225.87,-47.9 246.94,-34.97 263.06,-25.07"/>
<polygon fill="midnightblue" stroke="midnightblue" points="265.2,-27.87 271.9,-19.65 261.54,-21.9 265.2,-27.87"/>
</g>
<!-- Node3&#45;&gt;Node44 -->
<g id="edge4" class="edge">
<title>Node3&#45;&gt;Node44</title>
<path fill="none" stroke="midnightblue" d="M191.06,-56.08C185.07,-48.38 176.25,-37.03 168.95,-27.65"/>
<polygon fill="midnightblue" stroke="midnightblue" points="171.71,-25.5 162.81,-19.75 166.18,-29.79 171.71,-25.5"/>
</g>
<!-- Node24 -->
<g id="node6" class="node">
<title>Node24</title>
<g id="a_node6"><a xlink:href="map_8hpp.html" target="_top" xlink:title=" ">
<polygon fill="white" stroke="red" points="0,-0.5 0,-19.5 86,-19.5 86,-0.5 0,-0.5"/>
<text text-anchor="middle" x="43" y="-7.5" font-family="Helvetica,sans-Serif" font-size="10.00">../cfg/map.hpp</text>
</a>
</g>
</g>
<!-- Node3&#45;&gt;Node24 -->
<g id="edge5" class="edge">
<title>Node3&#45;&gt;Node24</title>
<path fill="none" stroke="midnightblue" d="M173.44,-56.44C147.48,-47.4 106.33,-33.06 77.2,-22.92"/>
<polygon fill="midnightblue" stroke="midnightblue" points="78.04,-19.5 67.45,-19.52 75.74,-26.11 78.04,-19.5"/>
</g>
<!-- Node46&#45;&gt;Node3 -->
<g id="edge9" class="edge">
<title>Node46&#45;&gt;Node3</title>
<path fill="none" stroke="midnightblue" d="M220.54,-112.08C216.85,-104.69 211.48,-93.95 206.91,-84.81"/>
<polygon fill="midnightblue" stroke="midnightblue" points="209.98,-83.13 202.38,-75.75 203.72,-86.26 209.98,-83.13"/>
</g>
<!-- Node46&#45;&gt;Node51 -->
<g id="edge10" class="edge">
<title>Node46&#45;&gt;Node51</title>
<path fill="none" stroke="midnightblue" d="M246.07,-112.44C268.06,-103.52 302.73,-89.44 327.66,-79.32"/>
<polygon fill="midnightblue" stroke="midnightblue" points="329.08,-82.52 337.02,-75.52 326.44,-76.04 329.08,-82.52"/>
</g>
<!-- Node54&#45;&gt;Node44 -->
<g id="edge13" class="edge">
<title>Node54&#45;&gt;Node44</title>
<path fill="none" stroke="midnightblue" d="M60.91,-56.44C79.25,-47.68 108.01,-33.94 129.09,-23.86"/>
<polygon fill="midnightblue" stroke="midnightblue" points="130.67,-26.99 138.18,-19.52 127.65,-20.67 130.67,-26.99"/>
</g>
<!-- Node54&#45;&gt;Node24 -->
<g id="edge12" class="edge">
<title>Node54&#45;&gt;Node24</title>
<path fill="none" stroke="midnightblue" d="M43,-56.08C43,-49.01 43,-38.86 43,-29.99"/>
<polygon fill="midnightblue" stroke="midnightblue" points="46.5,-29.75 43,-19.75 39.5,-29.75 46.5,-29.75"/>
</g>
</g>
</svg>
