<?xml version="1.0" encoding="UTF-8" standalone="no"?>
<!DOCTYPE svg PUBLIC "-//W3C//DTD SVG 1.1//EN"
 "http://www.w3.org/Graphics/SVG/1.1/DTD/svg11.dtd">
<!-- Generated by graphviz version 2.43.0 (0)
 -->
<!-- Title: src/ctl/tests/control_utest.cpp Pages: 1 -->
<svg width="1032pt" height="229pt"
 viewBox="0.00 0.00 1032.45 229.00" xmlns="http://www.w3.org/2000/svg" xmlns:xlink="http://www.w3.org/1999/xlink">
<g id="graph0" class="graph" transform="scale(1 1) rotate(0) translate(4 225)">
<title>src/ctl/tests/control_utest.cpp</title>
<polygon fill="white" stroke="transparent" points="-4,4 -4,-225 1028.45,-225 1028.45,4 -4,4"/>
<!-- Node1 -->
<g id="node1" class="node">
<title>Node1</title>
<g id="a_node1"><a xlink:title=" ">
<polygon fill="#bfbfbf" stroke="black" points="608.45,-190.5 608.45,-220.5 718.45,-220.5 718.45,-190.5 608.45,-190.5"/>
<text text-anchor="start" x="616.45" y="-208.5" font-family="Helvetica,sans-Serif" font-size="10.00">src/ctl/tests/control</text>
<text text-anchor="middle" x="663.45" y="-197.5" font-family="Helvetica,sans-Serif" font-size="10.00">_utest.cpp</text>
</a>
</g>
</g>
<!-- Node2 -->
<g id="node2" class="node">
<title>Node2</title>
<g id="a_node2"><a xlink:href="motor_8hpp.html" target="_top" xlink:title=" ">
<polygon fill="white" stroke="black" points="74.95,-129 74.95,-148 179.95,-148 179.95,-129 74.95,-129"/>
<text text-anchor="middle" x="127.45" y="-136" font-family="Helvetica,sans-Serif" font-size="10.00">../../sim/motor.hpp</text>
</a>
</g>
</g>
<!-- Node1&#45;&gt;Node2 -->
<g id="edge1" class="edge">
<title>Node1&#45;&gt;Node2</title>
<path fill="none" stroke="midnightblue" d="M608.11,-197.79C507.68,-185.61 296.03,-159.94 190.32,-147.12"/>
<polygon fill="midnightblue" stroke="midnightblue" points="190.46,-143.62 180.12,-145.89 189.62,-150.56 190.46,-143.62"/>
</g>
<!-- Node12 -->
<g id="node7" class="node">
<title>Node12</title>
<g id="a_node7"><a xlink:href="control_8hpp.html" target="_top" xlink:title=" ">
<polygon fill="white" stroke="black" points="423.45,-129 423.45,-148 503.45,-148 503.45,-129 423.45,-129"/>
<text text-anchor="middle" x="463.45" y="-136" font-family="Helvetica,sans-Serif" font-size="10.00">../control.hpp</text>
</a>
</g>
</g>
<!-- Node1&#45;&gt;Node12 -->
<g id="edge6" class="edge">
<title>Node1&#45;&gt;Node12</title>
<path fill="none" stroke="midnightblue" d="M620.06,-190.4C584.03,-178.69 533.4,-162.23 499.56,-151.23"/>
<polygon fill="midnightblue" stroke="midnightblue" points="500.22,-147.77 489.63,-148.01 498.06,-154.43 500.22,-147.77"/>
</g>
<!-- Node19 -->
<g id="node13" class="node">
<title>Node19</title>
<g id="a_node13"><a xlink:title=" ">
<polygon fill="white" stroke="#bfbfbf" points="521.95,-123.5 521.95,-153.5 654.95,-153.5 654.95,-123.5 521.95,-123.5"/>
<text text-anchor="start" x="529.95" y="-141.5" font-family="Helvetica,sans-Serif" font-size="10.00">emlabcpp/experimental</text>
<text text-anchor="middle" x="588.45" y="-130.5" font-family="Helvetica,sans-Serif" font-size="10.00">/logging.h</text>
</a>
</g>
</g>
<!-- Node1&#45;&gt;Node19 -->
<g id="edge15" class="edge">
<title>Node1&#45;&gt;Node19</title>
<path fill="none" stroke="midnightblue" d="M647.18,-190.4C637.06,-181.62 623.86,-170.18 612.54,-160.37"/>
<polygon fill="midnightblue" stroke="midnightblue" points="614.55,-157.48 604.7,-153.58 609.96,-162.77 614.55,-157.48"/>
</g>
<!-- Node20 -->
<g id="node14" class="node">
<title>Node20</title>
<g id="a_node14"><a xlink:title=" ">
<polygon fill="white" stroke="#bfbfbf" points="672.95,-123.5 672.95,-153.5 805.95,-153.5 805.95,-123.5 672.95,-123.5"/>
<text text-anchor="start" x="680.95" y="-141.5" font-family="Helvetica,sans-Serif" font-size="10.00">emlabcpp/experimental</text>
<text text-anchor="middle" x="739.45" y="-130.5" font-family="Helvetica,sans-Serif" font-size="10.00">/logging/util.h</text>
</a>
</g>
</g>
<!-- Node1&#45;&gt;Node20 -->
<g id="edge16" class="edge">
<title>Node1&#45;&gt;Node20</title>
<path fill="none" stroke="midnightblue" d="M679.95,-190.4C690.3,-181.54 703.84,-169.96 715.38,-160.09"/>
<polygon fill="midnightblue" stroke="midnightblue" points="717.67,-162.74 723,-153.58 713.12,-157.42 717.67,-162.74"/>
</g>
<!-- Node21 -->
<g id="node15" class="node">
<title>Node21</title>
<g id="a_node15"><a xlink:title=" ">
<polygon fill="white" stroke="#bfbfbf" points="824.45,-129 824.45,-148 928.45,-148 928.45,-129 824.45,-129"/>
<text text-anchor="middle" x="876.45" y="-136" font-family="Helvetica,sans-Serif" font-size="10.00">emlabcpp/range.h</text>
</a>
</g>
</g>
<!-- Node1&#45;&gt;Node21 -->
<g id="edge17" class="edge">
<title>Node1&#45;&gt;Node21</title>
<path fill="none" stroke="midnightblue" d="M709.41,-190.48C748.09,-178.67 802.72,-162 838.84,-150.98"/>
<polygon fill="midnightblue" stroke="midnightblue" points="839.96,-154.3 848.51,-148.03 837.92,-147.6 839.96,-154.3"/>
</g>
<!-- Node22 -->
<g id="node16" class="node">
<title>Node22</title>
<g id="a_node16"><a xlink:title=" ">
<polygon fill="white" stroke="#bfbfbf" points="946.45,-129 946.45,-148 1024.45,-148 1024.45,-129 946.45,-129"/>
<text text-anchor="middle" x="985.45" y="-136" font-family="Helvetica,sans-Serif" font-size="10.00">gtest/gtest.h</text>
</a>
</g>
</g>
<!-- Node1&#45;&gt;Node22 -->
<g id="edge18" class="edge">
<title>Node1&#45;&gt;Node22</title>
<path fill="none" stroke="midnightblue" d="M718.68,-196.17C774.29,-187.35 862.36,-172.2 937.45,-154 941.34,-153.06 945.38,-151.99 949.39,-150.86"/>
<polygon fill="midnightblue" stroke="midnightblue" points="950.57,-154.17 959.19,-148.01 948.61,-147.44 950.57,-154.17"/>
</g>
<!-- Node3 -->
<g id="node3" class="node">
<title>Node3</title>
<g id="a_node3"><a xlink:href="base_2base_8hpp.html" target="_top" xlink:title=" ">
<polygon fill="white" stroke="red" points="277.45,-0.5 277.45,-19.5 373.45,-19.5 373.45,-0.5 277.45,-0.5"/>
<text text-anchor="middle" x="325.45" y="-7.5" font-family="Helvetica,sans-Serif" font-size="10.00">../base/base.hpp</text>
</a>
</g>
</g>
<!-- Node2&#45;&gt;Node3 -->
<g id="edge2" class="edge">
<title>Node2&#45;&gt;Node3</title>
<path fill="none" stroke="midnightblue" d="M93.02,-128.95C47.95,-116.17 -22.02,-89.94 7.45,-56 40.41,-18.05 184.67,-11.23 267.11,-10.52"/>
<polygon fill="midnightblue" stroke="midnightblue" points="267.36,-14.02 277.34,-10.46 267.32,-7.02 267.36,-14.02"/>
</g>
<!-- Node9 -->
<g id="node4" class="node">
<title>Node9</title>
<g id="a_node4"><a xlink:title=" ">
<polygon fill="white" stroke="#bfbfbf" points="16.45,-62 16.45,-81 58.45,-81 58.45,-62 16.45,-62"/>
<text text-anchor="middle" x="37.45" y="-69" font-family="Helvetica,sans-Serif" font-size="10.00">array</text>
</a>
</g>
</g>
<!-- Node2&#45;&gt;Node9 -->
<g id="edge3" class="edge">
<title>Node2&#45;&gt;Node9</title>
<path fill="none" stroke="midnightblue" d="M115.32,-128.73C100.61,-118.11 75.6,-100.05 57.9,-87.26"/>
<polygon fill="midnightblue" stroke="midnightblue" points="59.56,-84.14 49.4,-81.13 55.46,-89.82 59.56,-84.14"/>
</g>
<!-- Node10 -->
<g id="node5" class="node">
<title>Node10</title>
<g id="a_node5"><a xlink:title=" ">
<polygon fill="white" stroke="#bfbfbf" points="76.95,-62 76.95,-81 177.95,-81 177.95,-62 76.95,-62"/>
<text text-anchor="middle" x="127.45" y="-69" font-family="Helvetica,sans-Serif" font-size="10.00">emlabcpp/defer.h</text>
</a>
</g>
</g>
<!-- Node2&#45;&gt;Node10 -->
<g id="edge4" class="edge">
<title>Node2&#45;&gt;Node10</title>
<path fill="none" stroke="midnightblue" d="M127.45,-128.73C127.45,-119.18 127.45,-103.62 127.45,-91.28"/>
<polygon fill="midnightblue" stroke="midnightblue" points="130.95,-91.13 127.45,-81.13 123.95,-91.13 130.95,-91.13"/>
</g>
<!-- Node11 -->
<g id="node6" class="node">
<title>Node11</title>
<g id="a_node6"><a xlink:title=" ">
<polygon fill="white" stroke="#bfbfbf" points="196.45,-62 196.45,-81 256.45,-81 256.45,-62 196.45,-62"/>
<text text-anchor="middle" x="226.45" y="-69" font-family="Helvetica,sans-Serif" font-size="10.00">iostream</text>
</a>
</g>
</g>
<!-- Node2&#45;&gt;Node11 -->
<g id="edge5" class="edge">
<title>Node2&#45;&gt;Node11</title>
<path fill="none" stroke="midnightblue" d="M140.81,-128.73C157.21,-117.96 185.26,-99.55 204.77,-86.74"/>
<polygon fill="midnightblue" stroke="midnightblue" points="206.88,-89.54 213.31,-81.13 203.03,-83.69 206.88,-89.54"/>
</g>
<!-- Node13 -->
<g id="node8" class="node">
<title>Node13</title>
<g id="a_node8"><a xlink:href="ctl_2config_8hpp.html" target="_top" xlink:title=" ">
<polygon fill="white" stroke="black" points="394.95,-62 394.95,-81 467.95,-81 467.95,-62 394.95,-62"/>
<text text-anchor="middle" x="431.45" y="-69" font-family="Helvetica,sans-Serif" font-size="10.00">./config.hpp</text>
</a>
</g>
</g>
<!-- Node12&#45;&gt;Node13 -->
<g id="edge7" class="edge">
<title>Node12&#45;&gt;Node13</title>
<path fill="none" stroke="midnightblue" d="M459.14,-128.73C454.29,-118.89 446.3,-102.66 440.15,-90.16"/>
<polygon fill="midnightblue" stroke="midnightblue" points="443.26,-88.55 435.7,-81.13 436.98,-91.64 443.26,-88.55"/>
</g>
<!-- Node14 -->
<g id="node9" class="node">
<title>Node14</title>
<g id="a_node9"><a xlink:title=" ">
<polygon fill="white" stroke="#bfbfbf" points="420.45,-0.5 420.45,-19.5 512.45,-19.5 512.45,-0.5 420.45,-0.5"/>
<text text-anchor="middle" x="466.45" y="-7.5" font-family="Helvetica,sans-Serif" font-size="10.00">emlabcpp/pid.h</text>
</a>
</g>
</g>
<!-- Node12&#45;&gt;Node14 -->
<g id="edge12" class="edge">
<title>Node12&#45;&gt;Node14</title>
<path fill="none" stroke="midnightblue" d="M466.67,-128.71C470.14,-118.76 475.42,-101.96 477.45,-87 479.31,-73.35 479.1,-69.68 477.45,-56 476.38,-47.11 474.16,-37.43 471.99,-29.34"/>
<polygon fill="midnightblue" stroke="midnightblue" points="475.3,-28.17 469.18,-19.51 468.57,-30.09 475.3,-28.17"/>
</g>
<!-- Node15 -->
<g id="node10" class="node">
<title>Node15</title>
<g id="a_node10"><a xlink:href="linear__transition__regulator_8hpp.html" target="_top" xlink:title=" ">
<polygon fill="white" stroke="red" points="274.45,-56.5 274.45,-86.5 376.45,-86.5 376.45,-56.5 274.45,-56.5"/>
<text text-anchor="start" x="282.45" y="-74.5" font-family="Helvetica,sans-Serif" font-size="10.00">./linear_transition</text>
<text text-anchor="middle" x="325.45" y="-63.5" font-family="Helvetica,sans-Serif" font-size="10.00">_regulator.hpp</text>
</a>
</g>
</g>
<!-- Node12&#45;&gt;Node15 -->
<g id="edge10" class="edge">
<title>Node12&#45;&gt;Node15</title>
<path fill="none" stroke="midnightblue" d="M445.13,-128.87C424.69,-119.24 391.03,-103.39 364.61,-90.94"/>
<polygon fill="midnightblue" stroke="midnightblue" points="365.78,-87.62 355.24,-86.53 362.79,-93.96 365.78,-87.62"/>
</g>
<!-- Node17 -->
<g id="node11" class="node">
<title>Node17</title>
<g id="a_node11"><a xlink:title=" ">
<polygon fill="white" stroke="#bfbfbf" points="524.45,-62 524.45,-81 568.45,-81 568.45,-62 524.45,-62"/>
<text text-anchor="middle" x="546.45" y="-69" font-family="Helvetica,sans-Serif" font-size="10.00">limits</text>
</a>
</g>
</g>
<!-- Node12&#45;&gt;Node17 -->
<g id="edge13" class="edge">
<title>Node12&#45;&gt;Node17</title>
<path fill="none" stroke="midnightblue" d="M474.65,-128.73C488.09,-118.21 510.85,-100.38 527.15,-87.62"/>
<polygon fill="midnightblue" stroke="midnightblue" points="529.72,-90.05 535.44,-81.13 525.41,-84.54 529.72,-90.05"/>
</g>
<!-- Node18 -->
<g id="node12" class="node">
<title>Node18</title>
<g id="a_node12"><a xlink:title=" ">
<polygon fill="white" stroke="#bfbfbf" points="586.95,-62 586.95,-81 637.95,-81 637.95,-62 586.95,-62"/>
<text text-anchor="middle" x="612.45" y="-69" font-family="Helvetica,sans-Serif" font-size="10.00">variant</text>
</a>
</g>
</g>
<!-- Node12&#45;&gt;Node18 -->
<g id="edge14" class="edge">
<title>Node12&#45;&gt;Node18</title>
<path fill="none" stroke="midnightblue" d="M483.24,-128.87C508.84,-117.7 553.66,-98.15 583.2,-85.26"/>
<polygon fill="midnightblue" stroke="midnightblue" points="584.82,-88.37 592.59,-81.17 582.02,-81.96 584.82,-88.37"/>
</g>
<!-- Node13&#45;&gt;Node3 -->
<g id="edge8" class="edge">
<title>Node13&#45;&gt;Node3</title>
<path fill="none" stroke="midnightblue" d="M416.27,-61.98C398.79,-52.17 369.88,-35.93 349.37,-24.42"/>
<polygon fill="midnightblue" stroke="midnightblue" points="351.05,-21.35 340.61,-19.51 347.62,-27.46 351.05,-21.35"/>
</g>
<!-- Node13&#45;&gt;Node14 -->
<g id="edge9" class="edge">
<title>Node13&#45;&gt;Node14</title>
<path fill="none" stroke="midnightblue" d="M436.47,-61.98C441.62,-53.23 449.77,-39.37 456.27,-28.31"/>
<polygon fill="midnightblue" stroke="midnightblue" points="459.4,-29.9 461.45,-19.51 453.36,-26.35 459.4,-29.9"/>
</g>
<!-- Node15&#45;&gt;Node3 -->
<g id="edge11" class="edge">
<title>Node15&#45;&gt;Node3</title>
<path fill="none" stroke="midnightblue" d="M325.45,-56.4C325.45,-48.47 325.45,-38.46 325.45,-29.86"/>
<polygon fill="midnightblue" stroke="midnightblue" points="328.95,-29.66 325.45,-19.66 321.95,-29.66 328.95,-29.66"/>
</g>
</g>
</svg>
