<?xml version="1.0" encoding="UTF-8" standalone="no"?>
<!DOCTYPE svg PUBLIC "-//W3C//DTD SVG 1.1//EN"
 "http://www.w3.org/Graphics/SVG/1.1/DTD/svg11.dtd">
<!-- Generated by graphviz version 2.43.0 (0)
 -->
<!-- Title: src/ctl/control.cpp Pages: 1 -->
<svg width="708pt" height="214pt"
 viewBox="0.00 0.00 708.00 214.00" xmlns="http://www.w3.org/2000/svg" xmlns:xlink="http://www.w3.org/1999/xlink">
<g id="graph0" class="graph" transform="scale(1 1) rotate(0) translate(4 210)">
<title>src/ctl/control.cpp</title>
<!-- Node1 -->
<g id="Node000001" class="node">
<title>Node1</title>
<g id="a_Node000001"><a xlink:title=" ">
<polygon fill="#999999" stroke="#666666" points="490.5,-206 387.5,-206 387.5,-187 490.5,-187 490.5,-206"/>
<text text-anchor="middle" x="439" y="-194" font-family="Helvetica,sans-Serif" font-size="10.00">src/ctl/control.cpp</text>
</a>
</g>
</g>
<!-- Node2 -->
<g id="Node000002" class="node">
<title>Node2</title>
<g id="a_Node000002"><a xlink:href="control_8hpp.html" target="_top" xlink:title=" ">
<polygon fill="white" stroke="#666666" points="268.5,-145.5 197.5,-145.5 197.5,-126.5 268.5,-126.5 268.5,-145.5"/>
<text text-anchor="middle" x="233" y="-133.5" font-family="Helvetica,sans-Serif" font-size="10.00">control.hpp</text>
</a>
</g>
</g>
<!-- Node1&#45;&gt;Node2 -->
<g id="edge1_Node000001_Node000002" class="edge">
<title>Node1&#45;&gt;Node2</title>
<g id="a_edge1_Node000001_Node000002"><a xlink:title=" ">
<path fill="none" stroke="#63b8ff" d="M409.05,-186.99C373.04,-176.77 312.5,-159.58 272.65,-148.26"/>
<polygon fill="#63b8ff" stroke="#63b8ff" points="273.57,-144.88 262.99,-145.52 271.65,-151.62 273.57,-144.88"/>
</a>
</g>
</g>
<!-- Node4 -->
<g id="Node000004" class="node">
<title>Node4</title>
<g id="a_Node000004"><a xlink:href="base_2base_8hpp.html" target="_top" xlink:title=" ">
<polygon fill="#fff0f0" stroke="red" points="235,-19 139,-19 139,0 235,0 235,-19"/>
<text text-anchor="middle" x="187" y="-7" font-family="Helvetica,sans-Serif" font-size="10.00">../base/base.hpp</text>
</a>
</g>
</g>
<!-- Node1&#45;&gt;Node4 -->
<g id="edge10_Node000001_Node000004" class="edge">
<title>Node1&#45;&gt;Node4</title>
<g id="a_edge10_Node000001_Node000004"><a xlink:title=" ">
<path fill="none" stroke="#63b8ff" d="M434.67,-186.7C430.32,-177.77 423.49,-163.52 418,-151 399.5,-108.83 414.03,-84.89 379,-55 359.07,-38 294.3,-25.42 245.46,-18.05"/>
<polygon fill="#63b8ff" stroke="#63b8ff" points="245.7,-14.55 235.3,-16.55 244.68,-21.47 245.7,-14.55"/>
</a>
</g>
</g>
<!-- Node15 -->
<g id="Node000015" class="node">
<title>Node15</title>
<g id="a_Node000015"><a xlink:title=" ">
<polygon fill="#e0e0e0" stroke="#999999" points="533.5,-145.5 426.5,-145.5 426.5,-126.5 533.5,-126.5 533.5,-145.5"/>
<text text-anchor="middle" x="480" y="-133.5" font-family="Helvetica,sans-Serif" font-size="10.00">emlabcpp/match.h</text>
</a>
</g>
</g>
<!-- Node1&#45;&gt;Node15 -->
<g id="edge11_Node000001_Node000015" class="edge">
<title>Node1&#45;&gt;Node15</title>
<g id="a_edge11_Node000001_Node000015"><a xlink:title=" ">
<path fill="none" stroke="#63b8ff" d="M445.05,-186.87C451.11,-178.23 460.59,-164.7 468.14,-153.92"/>
<polygon fill="#63b8ff" stroke="#63b8ff" points="471.05,-155.87 473.93,-145.67 465.32,-151.85 471.05,-155.87"/>
</a>
</g>
</g>
<!-- Node16 -->
<g id="Node000016" class="node">
<title>Node16</title>
<g id="a_Node000016"><a xlink:title=" ">
<polygon fill="#e0e0e0" stroke="#999999" points="700,-151 552,-151 552,-121 700,-121 700,-151"/>
<text text-anchor="start" x="560" y="-139" font-family="Helvetica,sans-Serif" font-size="10.00">emlabcpp/protocol/register</text>
<text text-anchor="middle" x="626" y="-128" font-family="Helvetica,sans-Serif" font-size="10.00">_handler.h</text>
</a>
</g>
</g>
<!-- Node1&#45;&gt;Node16 -->
<g id="edge12_Node000001_Node000016" class="edge">
<title>Node1&#45;&gt;Node16</title>
<g id="a_edge12_Node000001_Node000016"><a xlink:title=" ">
<path fill="none" stroke="#63b8ff" d="M466.19,-186.99C493.57,-178.43 536.59,-164.97 571.1,-154.18"/>
<polygon fill="#63b8ff" stroke="#63b8ff" points="572.54,-157.39 581.04,-151.06 570.45,-150.71 572.54,-157.39"/>
</a>
</g>
</g>
<!-- Node3 -->
<g id="Node000003" class="node">
<title>Node3</title>
<g id="a_Node000003"><a xlink:href="ctl_2config_8hpp.html" target="_top" xlink:title=" ">
<polygon fill="white" stroke="#666666" points="117.5,-79.5 44.5,-79.5 44.5,-60.5 117.5,-60.5 117.5,-79.5"/>
<text text-anchor="middle" x="81" y="-67.5" font-family="Helvetica,sans-Serif" font-size="10.00">./config.hpp</text>
</a>
</g>
</g>
<!-- Node2&#45;&gt;Node3 -->
<g id="edge2_Node000002_Node000003" class="edge">
<title>Node2&#45;&gt;Node3</title>
<g id="a_edge2_Node000002_Node000003"><a xlink:title=" ">
<path fill="none" stroke="#63b8ff" d="M212.5,-126.37C186.44,-115.39 141.22,-96.36 111.21,-83.72"/>
<polygon fill="#63b8ff" stroke="#63b8ff" points="112.23,-80.35 101.66,-79.7 109.52,-86.81 112.23,-80.35"/>
</a>
</g>
</g>
<!-- Node10 -->
<g id="Node000010" class="node">
<title>Node10</title>
<g id="a_Node000010"><a xlink:title=" ">
<polygon fill="#e0e0e0" stroke="#999999" points="92,-19 0,-19 0,0 92,0 92,-19"/>
<text text-anchor="middle" x="46" y="-7" font-family="Helvetica,sans-Serif" font-size="10.00">emlabcpp/pid.h</text>
</a>
</g>
</g>
<!-- Node2&#45;&gt;Node10 -->
<g id="edge7_Node000002_Node000010" class="edge">
<title>Node2&#45;&gt;Node10</title>
<g id="a_edge7_Node000002_Node000010"><a xlink:title=" ">
<path fill="none" stroke="#63b8ff" d="M197.48,-131.21C146.03,-124.91 54.77,-110.38 35,-85 22.49,-68.94 29.27,-44.86 36.5,-28.46"/>
<polygon fill="#63b8ff" stroke="#63b8ff" points="39.68,-29.9 40.89,-19.37 33.38,-26.85 39.68,-29.9"/>
</a>
</g>
</g>
<!-- Node11 -->
<g id="Node000011" class="node">
<title>Node11</title>
<g id="a_Node000011"><a xlink:href="linear__transition__regulator_8hpp.html" target="_top" xlink:title=" ">
<polygon fill="#fff0f0" stroke="red" points="238,-85 136,-85 136,-55 238,-55 238,-85"/>
<text text-anchor="start" x="144" y="-73" font-family="Helvetica,sans-Serif" font-size="10.00">./linear_transition</text>
<text text-anchor="middle" x="187" y="-62" font-family="Helvetica,sans-Serif" font-size="10.00">_regulator.hpp</text>
</a>
</g>
</g>
<!-- Node2&#45;&gt;Node11 -->
<g id="edge5_Node000002_Node000011" class="edge">
<title>Node2&#45;&gt;Node11</title>
<g id="a_edge5_Node000002_Node000011"><a xlink:title=" ">
<path fill="none" stroke="#63b8ff" d="M226.8,-126.37C220.78,-117.99 211.38,-104.93 203.23,-93.59"/>
<polygon fill="#63b8ff" stroke="#63b8ff" points="206,-91.44 197.32,-85.36 200.32,-95.52 206,-91.44"/>
</a>
</g>
</g>
<!-- Node13 -->
<g id="Node000013" class="node">
<title>Node13</title>
<g id="a_Node000013"><a xlink:title=" ">
<polygon fill="#e0e0e0" stroke="#999999" points="300,-79.5 256,-79.5 256,-60.5 300,-60.5 300,-79.5"/>
<text text-anchor="middle" x="278" y="-67.5" font-family="Helvetica,sans-Serif" font-size="10.00">limits</text>
</a>
</g>
</g>
<!-- Node2&#45;&gt;Node13 -->
<g id="edge8_Node000002_Node000013" class="edge">
<title>Node2&#45;&gt;Node13</title>
<g id="a_edge8_Node000002_Node000013"><a xlink:title=" ">
<path fill="none" stroke="#63b8ff" d="M239.07,-126.37C245.87,-116.69 257.09,-100.74 265.74,-88.44"/>
<polygon fill="#63b8ff" stroke="#63b8ff" points="268.85,-90.1 271.74,-79.91 263.12,-86.07 268.85,-90.1"/>
</a>
</g>
</g>
<!-- Node14 -->
<g id="Node000014" class="node">
<title>Node14</title>
<g id="a_Node000014"><a xlink:title=" ">
<polygon fill="#e0e0e0" stroke="#999999" points="369.5,-79.5 318.5,-79.5 318.5,-60.5 369.5,-60.5 369.5,-79.5"/>
<text text-anchor="middle" x="344" y="-67.5" font-family="Helvetica,sans-Serif" font-size="10.00">variant</text>
</a>
</g>
</g>
<!-- Node2&#45;&gt;Node14 -->
<g id="edge9_Node000002_Node000014" class="edge">
<title>Node2&#45;&gt;Node14</title>
<g id="a_edge9_Node000002_Node000014"><a xlink:title=" ">
<path fill="none" stroke="#63b8ff" d="M247.97,-126.37C266.51,-115.68 298.31,-97.35 320.2,-84.72"/>
<polygon fill="#63b8ff" stroke="#63b8ff" points="322,-87.73 328.91,-79.7 318.5,-81.66 322,-87.73"/>
</a>
</g>
</g>
<!-- Node3&#45;&gt;Node4 -->
<g id="edge3_Node000003_Node000004" class="edge">
<title>Node3&#45;&gt;Node4</title>
<g id="a_edge3_Node000003_Node000004"><a xlink:title=" ">
<path fill="none" stroke="#63b8ff" d="M96.64,-60.37C113.94,-50.82 142.05,-35.31 162.33,-24.12"/>
<polygon fill="#63b8ff" stroke="#63b8ff" points="164.23,-27.06 171.3,-19.17 160.85,-20.93 164.23,-27.06"/>
</a>
</g>
</g>
<!-- Node3&#45;&gt;Node10 -->
<g id="edge4_Node000003_Node000010" class="edge">
<title>Node3&#45;&gt;Node10</title>
<g id="a_edge4_Node000003_Node000010"><a xlink:title=" ">
<path fill="none" stroke="#63b8ff" d="M75.84,-60.37C70.77,-51.9 62.9,-38.74 56.51,-28.07"/>
<polygon fill="#63b8ff" stroke="#63b8ff" points="59.32,-25.95 51.19,-19.17 53.32,-29.55 59.32,-25.95"/>
</a>
</g>
</g>
<!-- Node11&#45;&gt;Node4 -->
<g id="edge6_Node000011_Node000004" class="edge">
<title>Node11&#45;&gt;Node4</title>
<g id="a_edge6_Node000011_Node000004"><a xlink:title=" ">
<path fill="none" stroke="#63b8ff" d="M187,-54.84C187,-47.21 187,-37.7 187,-29.45"/>
<polygon fill="#63b8ff" stroke="#63b8ff" points="190.5,-29.27 187,-19.27 183.5,-29.27 190.5,-29.27"/>
</a>
</g>
</g>
</g>
</svg>
