<?xml version="1.0" encoding="UTF-8" standalone="no"?>
<!DOCTYPE svg PUBLIC "-//W3C//DTD SVG 1.1//EN"
 "http://www.w3.org/Graphics/SVG/1.1/DTD/svg11.dtd">
<!-- Generated by graphviz version 2.43.0 (0)
 -->
<!-- Title: src/control.hpp Pages: 1 -->
<svg width="433pt" height="207pt"
 viewBox="0.00 0.00 433.00 207.00" xmlns="http://www.w3.org/2000/svg" xmlns:xlink="http://www.w3.org/1999/xlink">
<g id="graph0" class="graph" transform="scale(1 1) rotate(0) translate(4 203)">
<title>src/control.hpp</title>
<polygon fill="white" stroke="transparent" points="-4,4 -4,-203 429,-203 429,4 -4,4"/>
<!-- Node1 -->
<g id="node1" class="node">
<title>Node1</title>
<g id="a_node1"><a xlink:title=" ">
<polygon fill="#bfbfbf" stroke="black" points="135,-179.5 135,-198.5 224,-198.5 224,-179.5 135,-179.5"/>
<text text-anchor="middle" x="179.5" y="-186.5" font-family="Helvetica,sans-Serif" font-size="10.00">src/control.hpp</text>
</a>
</g>
</g>
<!-- Node2 -->
<g id="node2" class="node">
<title>Node2</title>
<g id="a_node2"><a xlink:href="base_8hpp.html" target="_top" xlink:title=" ">
<polygon fill="white" stroke="black" points="150,-56.5 150,-75.5 211,-75.5 211,-56.5 150,-56.5"/>
<text text-anchor="middle" x="180.5" y="-63.5" font-family="Helvetica,sans-Serif" font-size="10.00">base.hpp</text>
</a>
</g>
</g>
<!-- Node1&#45;&gt;Node2 -->
<g id="edge1" class="edge">
<title>Node1&#45;&gt;Node2</title>
<path fill="none" stroke="midnightblue" d="M179.57,-179.3C179.73,-159.85 180.12,-112.49 180.34,-85.9"/>
<polygon fill="midnightblue" stroke="midnightblue" points="183.85,-85.65 180.43,-75.62 176.85,-85.59 183.85,-85.65"/>
</g>
<!-- Node9 -->
<g id="node8" class="node">
<title>Node9</title>
<g id="a_node8"><a xlink:href="config_8hpp.html" target="_top" xlink:title=" ">
<polygon fill="white" stroke="black" points="31.5,-118 31.5,-137 113.5,-137 113.5,-118 31.5,-118"/>
<text text-anchor="middle" x="72.5" y="-125" font-family="Helvetica,sans-Serif" font-size="10.00">ctl/config.hpp</text>
</a>
</g>
</g>
<!-- Node1&#45;&gt;Node9 -->
<g id="edge7" class="edge">
<title>Node1&#45;&gt;Node9</title>
<path fill="none" stroke="midnightblue" d="M164.17,-179.48C146.53,-169.67 117.34,-153.43 96.64,-141.92"/>
<polygon fill="midnightblue" stroke="midnightblue" points="98.24,-138.81 87.8,-137.01 94.84,-144.93 98.24,-138.81"/>
</g>
<!-- Node10 -->
<g id="node9" class="node">
<title>Node10</title>
<g id="a_node9"><a xlink:title=" ">
<polygon fill="white" stroke="#bfbfbf" points="33.5,-56.5 33.5,-75.5 125.5,-75.5 125.5,-56.5 33.5,-56.5"/>
<text text-anchor="middle" x="79.5" y="-63.5" font-family="Helvetica,sans-Serif" font-size="10.00">emlabcpp/pid.h</text>
</a>
</g>
</g>
<!-- Node1&#45;&gt;Node10 -->
<g id="edge12" class="edge">
<title>Node1&#45;&gt;Node10</title>
<path fill="none" stroke="midnightblue" d="M173.49,-179.31C163.44,-164.92 142.34,-135.4 122.5,-112 114.03,-102.01 103.94,-91.38 95.66,-82.97"/>
<polygon fill="midnightblue" stroke="midnightblue" points="97.93,-80.29 88.39,-75.67 92.97,-85.23 97.93,-80.29"/>
</g>
<!-- Node11 -->
<g id="node10" class="node">
<title>Node11</title>
<g id="a_node10"><a xlink:href="linear__transition__regulator_8hpp.html" target="_top" xlink:title=" ">
<polygon fill="white" stroke="black" points="208,-112.5 208,-142.5 319,-142.5 319,-112.5 208,-112.5"/>
<text text-anchor="start" x="216" y="-130.5" font-family="Helvetica,sans-Serif" font-size="10.00">ctl/linear_transition</text>
<text text-anchor="middle" x="263.5" y="-119.5" font-family="Helvetica,sans-Serif" font-size="10.00">_regulator.hpp</text>
</a>
</g>
</g>
<!-- Node1&#45;&gt;Node11 -->
<g id="edge9" class="edge">
<title>Node1&#45;&gt;Node11</title>
<path fill="none" stroke="midnightblue" d="M191.54,-179.48C202.91,-171.42 220.41,-159.02 235.3,-148.47"/>
<polygon fill="midnightblue" stroke="midnightblue" points="237.57,-151.16 243.7,-142.52 233.52,-145.45 237.57,-151.16"/>
</g>
<!-- Node13 -->
<g id="node12" class="node">
<title>Node13</title>
<g id="a_node12"><a xlink:title=" ">
<polygon fill="white" stroke="#bfbfbf" points="337,-118 337,-137 388,-137 388,-118 337,-118"/>
<text text-anchor="middle" x="362.5" y="-125" font-family="Helvetica,sans-Serif" font-size="10.00">variant</text>
</a>
</g>
</g>
<!-- Node1&#45;&gt;Node13 -->
<g id="edge13" class="edge">
<title>Node1&#45;&gt;Node13</title>
<path fill="none" stroke="midnightblue" d="M211.51,-179.43C241.91,-171.03 288.75,-157.43 328.5,-143 330.35,-142.33 332.25,-141.61 334.16,-140.86"/>
<polygon fill="midnightblue" stroke="midnightblue" points="335.66,-144.03 343.59,-137 333,-137.55 335.66,-144.03"/>
</g>
<!-- Node3 -->
<g id="node3" class="node">
<title>Node3</title>
<g id="a_node3"><a xlink:href="scaled_8hpp.html" target="_top" xlink:title=" ">
<polygon fill="white" stroke="red" points="0,-0.5 0,-19.5 69,-19.5 69,-0.5 0,-0.5"/>
<text text-anchor="middle" x="34.5" y="-7.5" font-family="Helvetica,sans-Serif" font-size="10.00">scaled.hpp</text>
</a>
</g>
</g>
<!-- Node2&#45;&gt;Node3 -->
<g id="edge2" class="edge">
<title>Node2&#45;&gt;Node3</title>
<path fill="none" stroke="midnightblue" d="M157.37,-56.44C133.02,-47.44 94.49,-33.19 67.08,-23.05"/>
<polygon fill="midnightblue" stroke="midnightblue" points="68.12,-19.7 57.53,-19.52 65.69,-26.27 68.12,-19.7"/>
</g>
<!-- Node5 -->
<g id="node4" class="node">
<title>Node5</title>
<g id="a_node4"><a xlink:title=" ">
<polygon fill="white" stroke="#bfbfbf" points="87.5,-0.5 87.5,-19.5 137.5,-19.5 137.5,-0.5 87.5,-0.5"/>
<text text-anchor="middle" x="112.5" y="-7.5" font-family="Helvetica,sans-Serif" font-size="10.00">chrono</text>
</a>
</g>
</g>
<!-- Node2&#45;&gt;Node5 -->
<g id="edge3" class="edge">
<title>Node2&#45;&gt;Node5</title>
<path fill="none" stroke="midnightblue" d="M169.57,-56.32C159.33,-48.18 143.78,-35.84 131.5,-26.09"/>
<polygon fill="midnightblue" stroke="midnightblue" points="133.63,-23.31 123.62,-19.83 129.28,-28.79 133.63,-23.31"/>
</g>
<!-- Node6 -->
<g id="node5" class="node">
<title>Node6</title>
<g id="a_node5"><a xlink:title=" ">
<polygon fill="white" stroke="#bfbfbf" points="155.5,-0.5 155.5,-19.5 205.5,-19.5 205.5,-0.5 155.5,-0.5"/>
<text text-anchor="middle" x="180.5" y="-7.5" font-family="Helvetica,sans-Serif" font-size="10.00">cstdint</text>
</a>
</g>
</g>
<!-- Node2&#45;&gt;Node6 -->
<g id="edge4" class="edge">
<title>Node2&#45;&gt;Node6</title>
<path fill="none" stroke="midnightblue" d="M180.5,-56.08C180.5,-49.01 180.5,-38.86 180.5,-29.99"/>
<polygon fill="midnightblue" stroke="midnightblue" points="184,-29.75 180.5,-19.75 177,-29.75 184,-29.75"/>
</g>
<!-- Node7 -->
<g id="node6" class="node">
<title>Node7</title>
<g id="a_node6"><a xlink:title=" ">
<polygon fill="white" stroke="#bfbfbf" points="223.5,-0.5 223.5,-19.5 347.5,-19.5 347.5,-0.5 223.5,-0.5"/>
<text text-anchor="middle" x="285.5" y="-7.5" font-family="Helvetica,sans-Serif" font-size="10.00">emlabcpp/algorithm.h</text>
</a>
</g>
</g>
<!-- Node2&#45;&gt;Node7 -->
<g id="edge5" class="edge">
<title>Node2&#45;&gt;Node7</title>
<path fill="none" stroke="midnightblue" d="M197.37,-56.32C214.21,-47.66 240.31,-34.24 259.74,-24.25"/>
<polygon fill="midnightblue" stroke="midnightblue" points="261.38,-27.34 268.67,-19.65 258.18,-21.12 261.38,-27.34"/>
</g>
<!-- Node8 -->
<g id="node7" class="node">
<title>Node8</title>
<g id="a_node7"><a xlink:title=" ">
<polygon fill="white" stroke="#bfbfbf" points="366,-0.5 366,-19.5 425,-19.5 425,-0.5 366,-0.5"/>
<text text-anchor="middle" x="395.5" y="-7.5" font-family="Helvetica,sans-Serif" font-size="10.00">numbers</text>
</a>
</g>
</g>
<!-- Node2&#45;&gt;Node8 -->
<g id="edge6" class="edge">
<title>Node2&#45;&gt;Node8</title>
<path fill="none" stroke="midnightblue" d="M211.3,-57.26C249.38,-47.7 314.26,-31.41 355.97,-20.93"/>
<polygon fill="midnightblue" stroke="midnightblue" points="356.94,-24.29 365.79,-18.46 355.24,-17.5 356.94,-24.29"/>
</g>
<!-- Node9&#45;&gt;Node10 -->
<g id="edge8" class="edge">
<title>Node9&#45;&gt;Node10</title>
<path fill="none" stroke="midnightblue" d="M73.5,-117.98C74.49,-109.58 76.03,-96.48 77.3,-85.66"/>
<polygon fill="midnightblue" stroke="midnightblue" points="80.81,-85.85 78.5,-75.51 73.85,-85.03 80.81,-85.85"/>
</g>
<!-- Node11&#45;&gt;Node2 -->
<g id="edge10" class="edge">
<title>Node11&#45;&gt;Node2</title>
<path fill="none" stroke="midnightblue" d="M243.83,-112.4C230.9,-103.13 214.01,-91.03 200.93,-81.65"/>
<polygon fill="midnightblue" stroke="midnightblue" points="202.74,-78.64 192.58,-75.66 198.67,-84.33 202.74,-78.64"/>
</g>
<!-- Node12 -->
<g id="node11" class="node">
<title>Node12</title>
<g id="a_node11"><a xlink:title=" ">
<polygon fill="white" stroke="#bfbfbf" points="231.5,-56.5 231.5,-75.5 295.5,-75.5 295.5,-56.5 231.5,-56.5"/>
<text text-anchor="middle" x="263.5" y="-63.5" font-family="Helvetica,sans-Serif" font-size="10.00">algorithm</text>
</a>
</g>
</g>
<!-- Node11&#45;&gt;Node12 -->
<g id="edge11" class="edge">
<title>Node11&#45;&gt;Node12</title>
<path fill="none" stroke="midnightblue" d="M263.5,-112.4C263.5,-104.47 263.5,-94.46 263.5,-85.86"/>
<polygon fill="midnightblue" stroke="midnightblue" points="267,-85.66 263.5,-75.66 260,-85.66 267,-85.66"/>
</g>
</g>
</svg>
