<?xml version="1.0" encoding="UTF-8" standalone="no"?>
<!DOCTYPE svg PUBLIC "-//W3C//DTD SVG 1.1//EN"
 "http://www.w3.org/Graphics/SVG/1.1/DTD/svg11.dtd">
<!-- Generated by graphviz version 2.43.0 (0)
 -->
<!-- Title: src/ctl/tests/control_utest.cpp Pages: 1 -->
<svg width="1032pt" height="225pt"
 viewBox="0.00 0.00 1032.39 225.00" xmlns="http://www.w3.org/2000/svg" xmlns:xlink="http://www.w3.org/1999/xlink">
<g id="graph0" class="graph" transform="scale(1 1) rotate(0) translate(4 221)">
<title>src/ctl/tests/control_utest.cpp</title>
<!-- Node1 -->
<g id="Node000001" class="node">
<title>Node1</title>
<g id="a_Node000001"><a xlink:title=" ">
<polygon fill="#999999" stroke="#666666" points="718.39,-217 608.39,-217 608.39,-187 718.39,-187 718.39,-217"/>
<text text-anchor="start" x="616.39" y="-205" font-family="Helvetica,sans-Serif" font-size="10.00">src/ctl/tests/control</text>
<text text-anchor="middle" x="663.39" y="-194" font-family="Helvetica,sans-Serif" font-size="10.00">_utest.cpp</text>
</a>
</g>
</g>
<!-- Node2 -->
<g id="Node000002" class="node">
<title>Node2</title>
<g id="a_Node000002"><a xlink:href="motor_8hpp.html" target="_top" xlink:title=" ">
<polygon fill="white" stroke="#666666" points="179.89,-145.5 74.89,-145.5 74.89,-126.5 179.89,-126.5 179.89,-145.5"/>
<text text-anchor="middle" x="127.39" y="-133.5" font-family="Helvetica,sans-Serif" font-size="10.00">../../sim/motor.hpp</text>
</a>
</g>
</g>
<!-- Node1&#45;&gt;Node2 -->
<g id="edge1_Node000001_Node000002" class="edge">
<title>Node1&#45;&gt;Node2</title>
<g id="a_edge1_Node000001_Node000002"><a xlink:title=" ">
<path fill="none" stroke="#63b8ff" d="M608.05,-194.39C507.61,-182.4 295.97,-157.13 190.25,-144.51"/>
<polygon fill="#63b8ff" stroke="#63b8ff" points="190.4,-141 180.05,-143.29 189.57,-147.95 190.4,-141"/>
</a>
</g>
</g>
<!-- Node12 -->
<g id="Node000012" class="node">
<title>Node12</title>
<g id="a_Node000012"><a xlink:href="control_8hpp.html" target="_top" xlink:title=" ">
<polygon fill="white" stroke="#666666" points="503.39,-145.5 423.39,-145.5 423.39,-126.5 503.39,-126.5 503.39,-145.5"/>
<text text-anchor="middle" x="463.39" y="-133.5" font-family="Helvetica,sans-Serif" font-size="10.00">../control.hpp</text>
</a>
</g>
</g>
<!-- Node1&#45;&gt;Node12 -->
<g id="edge6_Node000001_Node000012" class="edge">
<title>Node1&#45;&gt;Node12</title>
<g id="a_edge6_Node000001_Node000012"><a xlink:title=" ">
<path fill="none" stroke="#63b8ff" d="M619.5,-186.95C583.65,-175.48 533.58,-159.46 499.9,-148.68"/>
<polygon fill="#63b8ff" stroke="#63b8ff" points="500.6,-145.23 490.01,-145.52 498.47,-151.9 500.6,-145.23"/>
</a>
</g>
</g>
<!-- Node19 -->
<g id="Node000019" class="node">
<title>Node19</title>
<g id="a_Node000019"><a xlink:title=" ">
<polygon fill="#e0e0e0" stroke="#999999" points="654.89,-151 521.89,-151 521.89,-121 654.89,-121 654.89,-151"/>
<text text-anchor="start" x="529.89" y="-139" font-family="Helvetica,sans-Serif" font-size="10.00">emlabcpp/experimental</text>
<text text-anchor="middle" x="588.39" y="-128" font-family="Helvetica,sans-Serif" font-size="10.00">/logging.h</text>
</a>
</g>
</g>
<!-- Node1&#45;&gt;Node19 -->
<g id="edge15_Node000001_Node000019" class="edge">
<title>Node1&#45;&gt;Node19</title>
<g id="a_edge15_Node000001_Node000019"><a xlink:title=" ">
<path fill="none" stroke="#63b8ff" d="M646.75,-186.8C636.75,-178.26 623.84,-167.25 612.71,-157.75"/>
<polygon fill="#63b8ff" stroke="#63b8ff" points="614.87,-154.99 604.99,-151.16 610.33,-160.32 614.87,-154.99"/>
</a>
</g>
</g>
<!-- Node20 -->
<g id="Node000020" class="node">
<title>Node20</title>
<g id="a_Node000020"><a xlink:title=" ">
<polygon fill="#e0e0e0" stroke="#999999" points="805.89,-151 672.89,-151 672.89,-121 805.89,-121 805.89,-151"/>
<text text-anchor="start" x="680.89" y="-139" font-family="Helvetica,sans-Serif" font-size="10.00">emlabcpp/experimental</text>
<text text-anchor="middle" x="739.39" y="-128" font-family="Helvetica,sans-Serif" font-size="10.00">/logging/util.h</text>
</a>
</g>
</g>
<!-- Node1&#45;&gt;Node20 -->
<g id="edge16_Node000001_Node000020" class="edge">
<title>Node1&#45;&gt;Node20</title>
<g id="a_edge16_Node000001_Node000020"><a xlink:title=" ">
<path fill="none" stroke="#63b8ff" d="M680.26,-186.8C690.39,-178.26 703.47,-167.25 714.75,-157.75"/>
<polygon fill="#63b8ff" stroke="#63b8ff" points="717.18,-160.28 722.57,-151.16 712.67,-154.93 717.18,-160.28"/>
</a>
</g>
</g>
<!-- Node21 -->
<g id="Node000021" class="node">
<title>Node21</title>
<g id="a_Node000021"><a xlink:title=" ">
<polygon fill="#e0e0e0" stroke="#999999" points="928.39,-145.5 824.39,-145.5 824.39,-126.5 928.39,-126.5 928.39,-145.5"/>
<text text-anchor="middle" x="876.39" y="-133.5" font-family="Helvetica,sans-Serif" font-size="10.00">emlabcpp/range.h</text>
</a>
</g>
</g>
<!-- Node1&#45;&gt;Node21 -->
<g id="edge17_Node000001_Node000021" class="edge">
<title>Node1&#45;&gt;Node21</title>
<g id="a_edge17_Node000001_Node000021"><a xlink:title=" ">
<path fill="none" stroke="#63b8ff" d="M710.14,-186.95C748.64,-175.38 802.56,-159.18 838.43,-148.41"/>
<polygon fill="#63b8ff" stroke="#63b8ff" points="839.48,-151.75 848.04,-145.52 837.46,-145.04 839.48,-151.75"/>
</a>
</g>
</g>
<!-- Node22 -->
<g id="Node000022" class="node">
<title>Node22</title>
<g id="a_Node000022"><a xlink:title=" ">
<polygon fill="#e0e0e0" stroke="#999999" points="1024.39,-145.5 946.39,-145.5 946.39,-126.5 1024.39,-126.5 1024.39,-145.5"/>
<text text-anchor="middle" x="985.39" y="-133.5" font-family="Helvetica,sans-Serif" font-size="10.00">gtest/gtest.h</text>
</a>
</g>
</g>
<!-- Node1&#45;&gt;Node22 -->
<g id="edge18_Node000001_Node000022" class="edge">
<title>Node1&#45;&gt;Node22</title>
<g id="a_edge18_Node000001_Node000022"><a xlink:title=" ">
<path fill="none" stroke="#63b8ff" d="M718.58,-192.65C774.17,-183.83 862.22,-168.77 937.39,-151 940.83,-150.19 944.39,-149.28 947.95,-148.32"/>
<polygon fill="#63b8ff" stroke="#63b8ff" points="949.16,-151.62 957.85,-145.56 947.28,-144.88 949.16,-151.62"/>
</a>
</g>
</g>
<!-- Node3 -->
<g id="Node000003" class="node">
<title>Node3</title>
<g id="a_Node000003"><a xlink:href="base_2base_8hpp.html" target="_top" xlink:title=" ">
<polygon fill="#fff0f0" stroke="red" points="373.39,-19 277.39,-19 277.39,0 373.39,0 373.39,-19"/>
<text text-anchor="middle" x="325.39" y="-7" font-family="Helvetica,sans-Serif" font-size="10.00">../base/base.hpp</text>
</a>
</g>
</g>
<!-- Node2&#45;&gt;Node3 -->
<g id="edge2_Node000002_Node000003" class="edge">
<title>Node2&#45;&gt;Node3</title>
<g id="a_edge2_Node000002_Node000003"><a xlink:title=" ">
<path fill="none" stroke="#63b8ff" d="M91.85,-126.4C46.81,-113.88 -21.69,-88.44 7.39,-55 40.37,-17.08 184.62,-10.5 267.05,-9.93"/>
<polygon fill="#63b8ff" stroke="#63b8ff" points="267.29,-13.42 277.28,-9.88 267.26,-6.42 267.29,-13.42"/>
</a>
</g>
</g>
<!-- Node9 -->
<g id="Node000009" class="node">
<title>Node9</title>
<g id="a_Node000009"><a xlink:title=" ">
<polygon fill="#e0e0e0" stroke="#999999" points="58.39,-79.5 16.39,-79.5 16.39,-60.5 58.39,-60.5 58.39,-79.5"/>
<text text-anchor="middle" x="37.39" y="-67.5" font-family="Helvetica,sans-Serif" font-size="10.00">array</text>
</a>
</g>
</g>
<!-- Node2&#45;&gt;Node9 -->
<g id="edge3_Node000002_Node000009" class="edge">
<title>Node2&#45;&gt;Node9</title>
<g id="a_edge3_Node000002_Node000009"><a xlink:title=" ">
<path fill="none" stroke="#63b8ff" d="M115.25,-126.37C100.63,-115.97 75.81,-98.32 58.13,-85.75"/>
<polygon fill="#63b8ff" stroke="#63b8ff" points="59.8,-82.64 49.62,-79.7 55.75,-88.35 59.8,-82.64"/>
</a>
</g>
</g>
<!-- Node10 -->
<g id="Node000010" class="node">
<title>Node10</title>
<g id="a_Node000010"><a xlink:title=" ">
<polygon fill="#e0e0e0" stroke="#999999" points="177.89,-79.5 76.89,-79.5 76.89,-60.5 177.89,-60.5 177.89,-79.5"/>
<text text-anchor="middle" x="127.39" y="-67.5" font-family="Helvetica,sans-Serif" font-size="10.00">emlabcpp/defer.h</text>
</a>
</g>
</g>
<!-- Node2&#45;&gt;Node10 -->
<g id="edge4_Node000002_Node000010" class="edge">
<title>Node2&#45;&gt;Node10</title>
<g id="a_edge4_Node000002_Node000010"><a xlink:title=" ">
<path fill="none" stroke="#63b8ff" d="M127.39,-126.37C127.39,-117.16 127.39,-102.29 127.39,-90.27"/>
<polygon fill="#63b8ff" stroke="#63b8ff" points="130.89,-89.91 127.39,-79.91 123.89,-89.91 130.89,-89.91"/>
</a>
</g>
</g>
<!-- Node11 -->
<g id="Node000011" class="node">
<title>Node11</title>
<g id="a_Node000011"><a xlink:title=" ">
<polygon fill="#e0e0e0" stroke="#999999" points="256.39,-79.5 196.39,-79.5 196.39,-60.5 256.39,-60.5 256.39,-79.5"/>
<text text-anchor="middle" x="226.39" y="-67.5" font-family="Helvetica,sans-Serif" font-size="10.00">iostream</text>
</a>
</g>
</g>
<!-- Node2&#45;&gt;Node11 -->
<g id="edge5_Node000002_Node000011" class="edge">
<title>Node2&#45;&gt;Node11</title>
<g id="a_edge5_Node000002_Node000011"><a xlink:title=" ">
<path fill="none" stroke="#63b8ff" d="M140.74,-126.37C157.05,-115.82 184.88,-97.84 204.38,-85.23"/>
<polygon fill="#63b8ff" stroke="#63b8ff" points="206.44,-88.07 212.94,-79.7 202.64,-82.19 206.44,-88.07"/>
</a>
</g>
</g>
<!-- Node13 -->
<g id="Node000013" class="node">
<title>Node13</title>
<g id="a_Node000013"><a xlink:href="ctl_2config_8hpp.html" target="_top" xlink:title=" ">
<polygon fill="white" stroke="#666666" points="467.89,-79.5 394.89,-79.5 394.89,-60.5 467.89,-60.5 467.89,-79.5"/>
<text text-anchor="middle" x="431.39" y="-67.5" font-family="Helvetica,sans-Serif" font-size="10.00">./config.hpp</text>
</a>
</g>
</g>
<!-- Node12&#45;&gt;Node13 -->
<g id="edge7_Node000012_Node000013" class="edge">
<title>Node12&#45;&gt;Node13</title>
<g id="a_edge7_Node000012_Node000013"><a xlink:title=" ">
<path fill="none" stroke="#63b8ff" d="M459.08,-126.37C454.33,-116.88 446.57,-101.36 440.47,-89.16"/>
<polygon fill="#63b8ff" stroke="#63b8ff" points="443.45,-87.28 435.84,-79.91 437.19,-90.41 443.45,-87.28"/>
</a>
</g>
</g>
<!-- Node14 -->
<g id="Node000014" class="node">
<title>Node14</title>
<g id="a_Node000014"><a xlink:title=" ">
<polygon fill="#e0e0e0" stroke="#999999" points="512.39,-19 420.39,-19 420.39,0 512.39,0 512.39,-19"/>
<text text-anchor="middle" x="466.39" y="-7" font-family="Helvetica,sans-Serif" font-size="10.00">emlabcpp/pid.h</text>
</a>
</g>
</g>
<!-- Node12&#45;&gt;Node14 -->
<g id="edge12_Node000012_Node000014" class="edge">
<title>Node12&#45;&gt;Node14</title>
<g id="a_edge12_Node000012_Node000014"><a xlink:title=" ">
<path fill="none" stroke="#63b8ff" d="M466.61,-126.3C470.07,-116.45 475.36,-99.82 477.39,-85 479.21,-71.79 479,-68.24 477.39,-55 476.33,-46.31 474.15,-36.87 472.01,-28.93"/>
<polygon fill="#63b8ff" stroke="#63b8ff" points="475.35,-27.89 469.22,-19.25 468.63,-29.83 475.35,-27.89"/>
</a>
</g>
</g>
<!-- Node15 -->
<g id="Node000015" class="node">
<title>Node15</title>
<g id="a_Node000015"><a xlink:href="linear__transition__regulator_8hpp.html" target="_top" xlink:title=" ">
<polygon fill="#fff0f0" stroke="red" points="376.39,-85 274.39,-85 274.39,-55 376.39,-55 376.39,-85"/>
<text text-anchor="start" x="282.39" y="-73" font-family="Helvetica,sans-Serif" font-size="10.00">./linear_transition</text>
<text text-anchor="middle" x="325.39" y="-62" font-family="Helvetica,sans-Serif" font-size="10.00">_regulator.hpp</text>
</a>
</g>
</g>
<!-- Node12&#45;&gt;Node15 -->
<g id="edge10_Node000012_Node000015" class="edge">
<title>Node12&#45;&gt;Node15</title>
<g id="a_edge10_Node000012_Node000015"><a xlink:title=" ">
<path fill="none" stroke="#63b8ff" d="M444.78,-126.37C424.47,-116.95 391.35,-101.59 365.14,-89.43"/>
<polygon fill="#63b8ff" stroke="#63b8ff" points="366.37,-86.15 355.83,-85.12 363.43,-92.5 366.37,-86.15"/>
</a>
</g>
</g>
<!-- Node17 -->
<g id="Node000017" class="node">
<title>Node17</title>
<g id="a_Node000017"><a xlink:title=" ">
<polygon fill="#e0e0e0" stroke="#999999" points="568.39,-79.5 524.39,-79.5 524.39,-60.5 568.39,-60.5 568.39,-79.5"/>
<text text-anchor="middle" x="546.39" y="-67.5" font-family="Helvetica,sans-Serif" font-size="10.00">limits</text>
</a>
</g>
</g>
<!-- Node12&#45;&gt;Node17 -->
<g id="edge13_Node000012_Node000017" class="edge">
<title>Node12&#45;&gt;Node17</title>
<g id="a_edge13_Node000012_Node000017"><a xlink:title=" ">
<path fill="none" stroke="#63b8ff" d="M474.59,-126.37C487.95,-116.06 510.54,-98.65 526.82,-86.09"/>
<polygon fill="#63b8ff" stroke="#63b8ff" points="529.33,-88.58 535.11,-79.7 525.05,-83.03 529.33,-88.58"/>
</a>
</g>
</g>
<!-- Node18 -->
<g id="Node000018" class="node">
<title>Node18</title>
<g id="a_Node000018"><a xlink:title=" ">
<polygon fill="#e0e0e0" stroke="#999999" points="637.89,-79.5 586.89,-79.5 586.89,-60.5 637.89,-60.5 637.89,-79.5"/>
<text text-anchor="middle" x="612.39" y="-67.5" font-family="Helvetica,sans-Serif" font-size="10.00">variant</text>
</a>
</g>
</g>
<!-- Node12&#45;&gt;Node18 -->
<g id="edge14_Node000012_Node000018" class="edge">
<title>Node12&#45;&gt;Node18</title>
<g id="a_edge14_Node000012_Node000018"><a xlink:title=" ">
<path fill="none" stroke="#63b8ff" d="M483.49,-126.37C509.04,-115.39 553.36,-96.36 582.78,-83.72"/>
<polygon fill="#63b8ff" stroke="#63b8ff" points="584.33,-86.86 592.14,-79.7 581.57,-80.43 584.33,-86.86"/>
</a>
</g>
</g>
<!-- Node13&#45;&gt;Node3 -->
<g id="edge8_Node000013_Node000003" class="edge">
<title>Node13&#45;&gt;Node3</title>
<g id="a_edge8_Node000013_Node000003"><a xlink:title=" ">
<path fill="none" stroke="#63b8ff" d="M415.75,-60.37C398.45,-50.82 370.34,-35.31 350.07,-24.12"/>
<polygon fill="#63b8ff" stroke="#63b8ff" points="351.54,-20.93 341.1,-19.17 348.16,-27.06 351.54,-20.93"/>
</a>
</g>
</g>
<!-- Node13&#45;&gt;Node14 -->
<g id="edge9_Node000013_Node000014" class="edge">
<title>Node13&#45;&gt;Node14</title>
<g id="a_edge9_Node000013_Node000014"><a xlink:title=" ">
<path fill="none" stroke="#63b8ff" d="M436.56,-60.37C441.62,-51.9 449.5,-38.74 455.88,-28.07"/>
<polygon fill="#63b8ff" stroke="#63b8ff" points="459.08,-29.55 461.21,-19.17 453.07,-25.95 459.08,-29.55"/>
</a>
</g>
</g>
<!-- Node15&#45;&gt;Node3 -->
<g id="edge11_Node000015_Node000003" class="edge">
<title>Node15&#45;&gt;Node3</title>
<g id="a_edge11_Node000015_Node000003"><a xlink:title=" ">
<path fill="none" stroke="#63b8ff" d="M325.39,-54.84C325.39,-47.21 325.39,-37.7 325.39,-29.45"/>
<polygon fill="#63b8ff" stroke="#63b8ff" points="328.89,-29.27 325.39,-19.27 321.89,-29.27 328.89,-29.27"/>
</a>
</g>
</g>
</g>
</svg>
