<?xml version="1.0" encoding="UTF-8" standalone="no"?>
<!DOCTYPE svg PUBLIC "-//W3C//DTD SVG 1.1//EN"
 "http://www.w3.org/Graphics/SVG/1.1/DTD/svg11.dtd">
<!-- Generated by graphviz version 2.43.0 (0)
 -->
<!-- Title: src/fw/context.hpp Pages: 1 -->
<svg width="554pt" height="263pt"
 viewBox="0.00 0.00 553.85 263.00" xmlns="http://www.w3.org/2000/svg" xmlns:xlink="http://www.w3.org/1999/xlink">
<g id="graph0" class="graph" transform="scale(1 1) rotate(0) translate(4 259)">
<title>src/fw/context.hpp</title>
<polygon fill="white" stroke="transparent" points="-4,4 -4,-259 549.85,-259 549.85,4 -4,4"/>
<!-- Node1 -->
<g id="node1" class="node">
<title>Node1</title>
<g id="a_node1"><a xlink:title=" ">
<polygon fill="#bfbfbf" stroke="black" points="136.5,-235.5 136.5,-254.5 242.5,-254.5 242.5,-235.5 136.5,-235.5"/>
<text text-anchor="middle" x="189.5" y="-242.5" font-family="Helvetica,sans-Serif" font-size="10.00">src/fw/context.hpp</text>
</a>
</g>
</g>
<!-- Node2 -->
<g id="node2" class="node">
<title>Node2</title>
<g id="a_node2"><a xlink:href="cfg_2dispatcher_8hpp.html" target="_top" xlink:title=" ">
<polygon fill="white" stroke="black" points="65,-123.5 65,-142.5 180,-142.5 180,-123.5 65,-123.5"/>
<text text-anchor="middle" x="122.5" y="-130.5" font-family="Helvetica,sans-Serif" font-size="10.00">../cfg/dispatcher.hpp</text>
</a>
</g>
</g>
<!-- Node1&#45;&gt;Node2 -->
<g id="edge1" class="edge">
<title>Node1&#45;&gt;Node2</title>
<path fill="none" stroke="midnightblue" d="M184.24,-235.37C173.23,-217.3 147.58,-175.18 133.04,-151.31"/>
<polygon fill="midnightblue" stroke="midnightblue" points="135.92,-149.31 127.73,-142.59 129.95,-152.95 135.92,-149.31"/>
</g>
<!-- Node3 -->
<g id="node3" class="node">
<title>Node3</title>
<g id="a_node3"><a xlink:href="core_8hpp.html" target="_top" xlink:title=" ">
<polygon fill="white" stroke="red" points="38.5,-67.5 38.5,-86.5 130.5,-86.5 130.5,-67.5 38.5,-67.5"/>
<text text-anchor="middle" x="84.5" y="-74.5" font-family="Helvetica,sans-Serif" font-size="10.00">../core/core.hpp</text>
</a>
</g>
</g>
<!-- Node1&#45;&gt;Node3 -->
<g id="edge9" class="edge">
<title>Node1&#45;&gt;Node3</title>
<path fill="none" stroke="midnightblue" d="M168.31,-235.46C136.9,-221.48 79.15,-190.45 55.5,-143 47.36,-126.67 58.26,-107.55 68.94,-94.3"/>
<polygon fill="midnightblue" stroke="midnightblue" points="71.79,-96.36 75.73,-86.52 66.51,-91.75 71.79,-96.36"/>
</g>
<!-- Node43 -->
<g id="node5" class="node">
<title>Node43</title>
<g id="a_node5"><a xlink:href="drivers_8hpp.html" target="_top" xlink:title=" ">
<polygon fill="white" stroke="red" points="290.5,-67.5 290.5,-86.5 394.5,-86.5 394.5,-67.5 290.5,-67.5"/>
<text text-anchor="middle" x="342.5" y="-74.5" font-family="Helvetica,sans-Serif" font-size="10.00">../core/drivers.hpp</text>
</a>
</g>
</g>
<!-- Node1&#45;&gt;Node43 -->
<g id="edge10" class="edge">
<title>Node1&#45;&gt;Node43</title>
<path fill="none" stroke="midnightblue" d="M242.6,-236.42C330.96,-222.59 501.99,-190.28 537.5,-143 574.16,-94.18 474.73,-81.58 404.73,-78.6"/>
<polygon fill="midnightblue" stroke="midnightblue" points="404.76,-75.1 394.64,-78.22 404.5,-82.09 404.76,-75.1"/>
</g>
<!-- Node45 -->
<g id="node9" class="node">
<title>Node45</title>
<g id="a_node9"><a xlink:href="fw_2dispatcher_8hpp.html" target="_top" xlink:title=" ">
<polygon fill="white" stroke="black" points="180.5,-179.5 180.5,-198.5 274.5,-198.5 274.5,-179.5 180.5,-179.5"/>
<text text-anchor="middle" x="227.5" y="-186.5" font-family="Helvetica,sans-Serif" font-size="10.00">./dispatcher.hpp</text>
</a>
</g>
</g>
<!-- Node1&#45;&gt;Node45 -->
<g id="edge11" class="edge">
<title>Node1&#45;&gt;Node45</title>
<path fill="none" stroke="midnightblue" d="M195.77,-235.08C201.14,-227.46 209.02,-216.26 215.58,-206.94"/>
<polygon fill="midnightblue" stroke="midnightblue" points="218.45,-208.94 221.34,-198.75 212.72,-204.91 218.45,-208.94"/>
</g>
<!-- Node2&#45;&gt;Node3 -->
<g id="edge2" class="edge">
<title>Node2&#45;&gt;Node3</title>
<path fill="none" stroke="midnightblue" d="M116.23,-123.08C110.86,-115.46 102.98,-104.26 96.42,-94.94"/>
<polygon fill="midnightblue" stroke="midnightblue" points="99.28,-92.91 90.66,-86.75 93.55,-96.94 99.28,-92.91"/>
</g>
<!-- Node2&#45;&gt;Node43 -->
<g id="edge4" class="edge">
<title>Node2&#45;&gt;Node43</title>
<path fill="none" stroke="midnightblue" d="M157.36,-123.44C195.42,-114.1 256.46,-99.12 297.96,-88.93"/>
<polygon fill="midnightblue" stroke="midnightblue" points="298.93,-92.3 307.8,-86.52 297.26,-85.5 298.93,-92.3"/>
</g>
<!-- Node24 -->
<g id="node7" class="node">
<title>Node24</title>
<g id="a_node7"><a xlink:href="key_8hpp.html" target="_top" xlink:title=" ">
<polygon fill="white" stroke="red" points="180,-6 180,-25 239,-25 239,-6 180,-6"/>
<text text-anchor="middle" x="209.5" y="-13" font-family="Helvetica,sans-Serif" font-size="10.00">./key.hpp</text>
</a>
</g>
</g>
<!-- Node2&#45;&gt;Node24 -->
<g id="edge6" class="edge">
<title>Node2&#45;&gt;Node24</title>
<path fill="none" stroke="midnightblue" d="M180.06,-125.03C203.78,-119 229.05,-107.8 243.5,-87 255.54,-69.68 240.47,-47.44 226.75,-32.61"/>
<polygon fill="midnightblue" stroke="midnightblue" points="228.96,-29.87 219.44,-25.22 223.98,-34.79 228.96,-29.87"/>
</g>
<!-- Node23 -->
<g id="node8" class="node">
<title>Node23</title>
<g id="a_node8"><a xlink:href="map_8hpp.html" target="_top" xlink:title=" ">
<polygon fill="white" stroke="red" points="148.5,-67.5 148.5,-86.5 234.5,-86.5 234.5,-67.5 148.5,-67.5"/>
<text text-anchor="middle" x="191.5" y="-74.5" font-family="Helvetica,sans-Serif" font-size="10.00">../cfg/map.hpp</text>
</a>
</g>
</g>
<!-- Node2&#45;&gt;Node23 -->
<g id="edge7" class="edge">
<title>Node2&#45;&gt;Node23</title>
<path fill="none" stroke="midnightblue" d="M133.59,-123.32C143.99,-115.18 159.76,-102.84 172.22,-93.09"/>
<polygon fill="midnightblue" stroke="midnightblue" points="174.49,-95.75 180.21,-86.83 170.18,-90.24 174.49,-95.75"/>
</g>
<!-- Node4 -->
<g id="node4" class="node">
<title>Node4</title>
<g id="a_node4"><a xlink:href="control_8hpp.html" target="_top" xlink:title=" ">
<polygon fill="white" stroke="red" points="0,-6 0,-25 95,-25 95,-6 0,-6"/>
<text text-anchor="middle" x="47.5" y="-13" font-family="Helvetica,sans-Serif" font-size="10.00">../ctl/control.hpp</text>
</a>
</g>
</g>
<!-- Node3&#45;&gt;Node4 -->
<g id="edge3" class="edge">
<title>Node3&#45;&gt;Node4</title>
<path fill="none" stroke="midnightblue" d="M79.2,-67.48C73.76,-58.73 65.14,-44.87 58.26,-33.81"/>
<polygon fill="midnightblue" stroke="midnightblue" points="61.04,-31.65 52.79,-25.01 55.1,-35.35 61.04,-31.65"/>
</g>
<!-- Node44 -->
<g id="node6" class="node">
<title>Node44</title>
<g id="a_node6"><a xlink:title=" ">
<polygon fill="white" stroke="#bfbfbf" points="316,-0.5 316,-30.5 449,-30.5 449,-0.5 316,-0.5"/>
<text text-anchor="start" x="324" y="-18.5" font-family="Helvetica,sans-Serif" font-size="10.00">emlabcpp/experimental</text>
<text text-anchor="middle" x="382.5" y="-7.5" font-family="Helvetica,sans-Serif" font-size="10.00">/function_view.h</text>
</a>
</g>
</g>
<!-- Node43&#45;&gt;Node44 -->
<g id="edge5" class="edge">
<title>Node43&#45;&gt;Node44</title>
<path fill="none" stroke="midnightblue" d="M348.23,-67.48C353.24,-60.02 360.75,-48.85 367.46,-38.87"/>
<polygon fill="midnightblue" stroke="midnightblue" points="370.4,-40.77 373.07,-30.52 364.59,-36.87 370.4,-40.77"/>
</g>
<!-- Node23&#45;&gt;Node24 -->
<g id="edge8" class="edge">
<title>Node23&#45;&gt;Node24</title>
<path fill="none" stroke="midnightblue" d="M194.08,-67.48C196.65,-58.99 200.67,-45.7 203.96,-34.82"/>
<polygon fill="midnightblue" stroke="midnightblue" points="207.38,-35.59 206.93,-25.01 200.68,-33.57 207.38,-35.59"/>
</g>
<!-- Node45&#45;&gt;Node2 -->
<g id="edge12" class="edge">
<title>Node45&#45;&gt;Node2</title>
<path fill="none" stroke="midnightblue" d="M210.63,-179.32C193.79,-170.66 167.69,-157.24 148.26,-147.25"/>
<polygon fill="midnightblue" stroke="midnightblue" points="149.82,-144.12 139.33,-142.65 146.62,-150.34 149.82,-144.12"/>
</g>
<!-- Node45&#45;&gt;Node4 -->
<g id="edge13" class="edge">
<title>Node45&#45;&gt;Node4</title>
<path fill="none" stroke="midnightblue" d="M180.21,-186.37C142.57,-182.75 90.56,-172.29 55.5,-143 28.1,-120.11 23.42,-102.18 29.5,-67 31.41,-55.94 35.52,-44.09 39.33,-34.65"/>
<polygon fill="midnightblue" stroke="midnightblue" points="42.66,-35.76 43.37,-25.19 36.22,-33.01 42.66,-35.76"/>
</g>
<!-- Node45&#45;&gt;Node44 -->
<g id="edge16" class="edge">
<title>Node45&#45;&gt;Node44</title>
<path fill="none" stroke="midnightblue" d="M274.92,-182.42C321.51,-175.84 387.83,-163.18 403.5,-143 426.71,-113.11 409.84,-67.15 395.89,-39.63"/>
<polygon fill="midnightblue" stroke="midnightblue" points="398.93,-37.91 391.14,-30.73 392.75,-41.2 398.93,-37.91"/>
</g>
<!-- Node46 -->
<g id="node10" class="node">
<title>Node46</title>
<g id="a_node10"><a xlink:href="def_8h.html" target="_top" xlink:title=" ">
<polygon fill="white" stroke="red" points="451,-123.5 451,-142.5 528,-142.5 528,-123.5 451,-123.5"/>
<text text-anchor="middle" x="489.5" y="-130.5" font-family="Helvetica,sans-Serif" font-size="10.00">../iface/def.h</text>
</a>
</g>
</g>
<!-- Node45&#45;&gt;Node46 -->
<g id="edge14" class="edge">
<title>Node45&#45;&gt;Node46</title>
<path fill="none" stroke="midnightblue" d="M269.01,-179.44C315.72,-169.82 391.5,-154.2 440.92,-144.01"/>
<polygon fill="midnightblue" stroke="midnightblue" points="441.65,-147.43 450.74,-141.99 440.24,-140.58 441.65,-147.43"/>
</g>
<!-- Node50 -->
<g id="node11" class="node">
<title>Node50</title>
<g id="a_node11"><a xlink:href="util_8hpp.html" target="_top" xlink:title=" ">
<polygon fill="white" stroke="red" points="198,-123.5 198,-142.5 257,-142.5 257,-123.5 198,-123.5"/>
<text text-anchor="middle" x="227.5" y="-130.5" font-family="Helvetica,sans-Serif" font-size="10.00">./util.hpp</text>
</a>
</g>
</g>
<!-- Node45&#45;&gt;Node50 -->
<g id="edge15" class="edge">
<title>Node45&#45;&gt;Node50</title>
<path fill="none" stroke="midnightblue" d="M227.5,-179.08C227.5,-172.01 227.5,-161.86 227.5,-152.99"/>
<polygon fill="midnightblue" stroke="midnightblue" points="231,-152.75 227.5,-142.75 224,-152.75 231,-152.75"/>
</g>
<!-- Node30 -->
<g id="node12" class="node">
<title>Node30</title>
<g id="a_node12"><a xlink:title=" ">
<polygon fill="white" stroke="#bfbfbf" points="275,-123.5 275,-142.5 394,-142.5 394,-123.5 275,-123.5"/>
<text text-anchor="middle" x="334.5" y="-130.5" font-family="Helvetica,sans-Serif" font-size="10.00">emlabcpp/outcome.h</text>
</a>
</g>
</g>
<!-- Node45&#45;&gt;Node30 -->
<g id="edge17" class="edge">
<title>Node45&#45;&gt;Node30</title>
<path fill="none" stroke="midnightblue" d="M244.69,-179.32C261.85,-170.66 288.45,-157.24 308.25,-147.25"/>
<polygon fill="midnightblue" stroke="midnightblue" points="310,-150.28 317.35,-142.65 306.85,-144.04 310,-150.28"/>
</g>
</g>
</svg>
