<?xml version="1.0" encoding="UTF-8" standalone="no"?>
<!DOCTYPE svg PUBLIC "-//W3C//DTD SVG 1.1//EN"
 "http://www.w3.org/Graphics/SVG/1.1/DTD/svg11.dtd">
<!-- Generated by graphviz version 2.43.0 (0)
 -->
<!-- Title: src/fw/context.hpp Pages: 1 -->
<svg width="554pt" height="263pt"
 viewBox="0.00 0.00 553.69 263.00" xmlns="http://www.w3.org/2000/svg" xmlns:xlink="http://www.w3.org/1999/xlink">
<g id="graph0" class="graph" transform="scale(1 1) rotate(0) translate(4 259)">
<title>src/fw/context.hpp</title>
<polygon fill="white" stroke="transparent" points="-4,4 -4,-259 549.69,-259 549.69,4 -4,4"/>
<!-- Node1 -->
<g id="node1" class="node">
<title>Node1</title>
<g id="a_node1"><a xlink:title=" ">
<polygon fill="#bfbfbf" stroke="black" points="155.5,-235.5 155.5,-254.5 261.5,-254.5 261.5,-235.5 155.5,-235.5"/>
<text text-anchor="middle" x="208.5" y="-242.5" font-family="Helvetica,sans-Serif" font-size="10.00">src/fw/context.hpp</text>
</a>
</g>
</g>
<!-- Node2 -->
<g id="node2" class="node">
<title>Node2</title>
<g id="a_node2"><a xlink:href="cfg_2dispatcher_8hpp.html" target="_top" xlink:title=" ">
<polygon fill="white" stroke="black" points="64.5,-123.5 64.5,-142.5 170.5,-142.5 170.5,-123.5 64.5,-123.5"/>
<text text-anchor="middle" x="117.5" y="-130.5" font-family="Helvetica,sans-Serif" font-size="10.00">cfg/dispatcher.hpp</text>
</a>
</g>
</g>
<!-- Node1&#45;&gt;Node2 -->
<g id="edge1" class="edge">
<title>Node1&#45;&gt;Node2</title>
<path fill="none" stroke="midnightblue" d="M201.36,-235.37C186.21,-217.05 150.63,-174.05 131.04,-150.36"/>
<polygon fill="midnightblue" stroke="midnightblue" points="133.68,-148.07 124.61,-142.59 128.28,-152.53 133.68,-148.07"/>
</g>
<!-- Node3 -->
<g id="node3" class="node">
<title>Node3</title>
<g id="a_node3"><a xlink:href="core_8hpp.html" target="_top" xlink:title=" ">
<polygon fill="white" stroke="red" points="38.5,-67.5 38.5,-86.5 130.5,-86.5 130.5,-67.5 38.5,-67.5"/>
<text text-anchor="middle" x="84.5" y="-74.5" font-family="Helvetica,sans-Serif" font-size="10.00">../core/core.hpp</text>
</a>
</g>
</g>
<!-- Node1&#45;&gt;Node3 -->
<g id="edge9" class="edge">
<title>Node1&#45;&gt;Node3</title>
<path fill="none" stroke="midnightblue" d="M182.02,-235.48C145.83,-222.23 82.35,-192.89 55.5,-143 46.85,-126.93 57.83,-107.78 68.67,-94.44"/>
<polygon fill="midnightblue" stroke="midnightblue" points="71.58,-96.42 75.56,-86.61 66.33,-91.8 71.58,-96.42"/>
</g>
<!-- Node43 -->
<g id="node5" class="node">
<title>Node43</title>
<g id="a_node5"><a xlink:href="drivers_8hpp.html" target="_top" xlink:title=" ">
<polygon fill="white" stroke="red" points="290.5,-67.5 290.5,-86.5 394.5,-86.5 394.5,-67.5 290.5,-67.5"/>
<text text-anchor="middle" x="342.5" y="-74.5" font-family="Helvetica,sans-Serif" font-size="10.00">../core/drivers.hpp</text>
</a>
</g>
</g>
<!-- Node1&#45;&gt;Node43 -->
<g id="edge10" class="edge">
<title>Node1&#45;&gt;Node43</title>
<path fill="none" stroke="midnightblue" d="M261.44,-235.5C345.76,-220.76 504.47,-187.69 537.5,-143 573.79,-93.9 474.48,-81.4 404.61,-78.5"/>
<polygon fill="midnightblue" stroke="midnightblue" points="404.65,-75 394.53,-78.14 404.4,-82 404.65,-75"/>
</g>
<!-- Node45 -->
<g id="node9" class="node">
<title>Node45</title>
<g id="a_node9"><a xlink:href="fw_2dispatcher_8hpp.html" target="_top" xlink:title=" ">
<polygon fill="white" stroke="black" points="197.5,-179.5 197.5,-198.5 299.5,-198.5 299.5,-179.5 197.5,-179.5"/>
<text text-anchor="middle" x="248.5" y="-186.5" font-family="Helvetica,sans-Serif" font-size="10.00">fw/dispatcher.hpp</text>
</a>
</g>
</g>
<!-- Node1&#45;&gt;Node45 -->
<g id="edge11" class="edge">
<title>Node1&#45;&gt;Node45</title>
<path fill="none" stroke="midnightblue" d="M215.11,-235.08C220.76,-227.46 229.04,-216.26 235.95,-206.94"/>
<polygon fill="midnightblue" stroke="midnightblue" points="238.88,-208.87 242.02,-198.75 233.25,-204.7 238.88,-208.87"/>
</g>
<!-- Node2&#45;&gt;Node3 -->
<g id="edge2" class="edge">
<title>Node2&#45;&gt;Node3</title>
<path fill="none" stroke="midnightblue" d="M112.05,-123.08C107.49,-115.61 100.83,-104.72 95.21,-95.52"/>
<polygon fill="midnightblue" stroke="midnightblue" points="98.05,-93.46 89.85,-86.75 92.08,-97.11 98.05,-93.46"/>
</g>
<!-- Node2&#45;&gt;Node43 -->
<g id="edge4" class="edge">
<title>Node2&#45;&gt;Node43</title>
<path fill="none" stroke="midnightblue" d="M153.15,-123.44C192.16,-114.08 254.77,-99.06 297.22,-88.87"/>
<polygon fill="midnightblue" stroke="midnightblue" points="298.11,-92.25 307.01,-86.52 296.47,-85.45 298.11,-92.25"/>
</g>
<!-- Node24 -->
<g id="node7" class="node">
<title>Node24</title>
<g id="a_node7"><a xlink:href="key_8hpp.html" target="_top" xlink:title=" ">
<polygon fill="white" stroke="red" points="180,-6 180,-25 239,-25 239,-6 180,-6"/>
<text text-anchor="middle" x="209.5" y="-13" font-family="Helvetica,sans-Serif" font-size="10.00">./key.hpp</text>
</a>
</g>
</g>
<!-- Node2&#45;&gt;Node24 -->
<g id="edge6" class="edge">
<title>Node2&#45;&gt;Node24</title>
<path fill="none" stroke="midnightblue" d="M155.7,-123.46C188.84,-115.19 233.1,-101.76 243.5,-87 255.65,-69.76 240.56,-47.5 226.8,-32.65"/>
<polygon fill="midnightblue" stroke="midnightblue" points="228.99,-29.89 219.47,-25.24 224.02,-34.81 228.99,-29.89"/>
</g>
<!-- Node23 -->
<g id="node8" class="node">
<title>Node23</title>
<g id="a_node8"><a xlink:href="map_8hpp.html" target="_top" xlink:title=" ">
<polygon fill="white" stroke="red" points="148.5,-67.5 148.5,-86.5 234.5,-86.5 234.5,-67.5 148.5,-67.5"/>
<text text-anchor="middle" x="191.5" y="-74.5" font-family="Helvetica,sans-Serif" font-size="10.00">../cfg/map.hpp</text>
</a>
</g>
</g>
<!-- Node2&#45;&gt;Node23 -->
<g id="edge7" class="edge">
<title>Node2&#45;&gt;Node23</title>
<path fill="none" stroke="midnightblue" d="M129.39,-123.32C140.65,-115.11 157.79,-102.6 171.21,-92.81"/>
<polygon fill="midnightblue" stroke="midnightblue" points="173.38,-95.56 179.39,-86.83 169.25,-89.9 173.38,-95.56"/>
</g>
<!-- Node4 -->
<g id="node4" class="node">
<title>Node4</title>
<g id="a_node4"><a xlink:href="control_8hpp.html" target="_top" xlink:title=" ">
<polygon fill="white" stroke="red" points="0,-6 0,-25 95,-25 95,-6 0,-6"/>
<text text-anchor="middle" x="47.5" y="-13" font-family="Helvetica,sans-Serif" font-size="10.00">../ctl/control.hpp</text>
</a>
</g>
</g>
<!-- Node3&#45;&gt;Node4 -->
<g id="edge3" class="edge">
<title>Node3&#45;&gt;Node4</title>
<path fill="none" stroke="midnightblue" d="M79.2,-67.48C73.76,-58.73 65.14,-44.87 58.26,-33.81"/>
<polygon fill="midnightblue" stroke="midnightblue" points="61.04,-31.65 52.79,-25.01 55.1,-35.35 61.04,-31.65"/>
</g>
<!-- Node44 -->
<g id="node6" class="node">
<title>Node44</title>
<g id="a_node6"><a xlink:title=" ">
<polygon fill="white" stroke="#bfbfbf" points="316,-0.5 316,-30.5 449,-30.5 449,-0.5 316,-0.5"/>
<text text-anchor="start" x="324" y="-18.5" font-family="Helvetica,sans-Serif" font-size="10.00">emlabcpp/experimental</text>
<text text-anchor="middle" x="382.5" y="-7.5" font-family="Helvetica,sans-Serif" font-size="10.00">/function_view.h</text>
</a>
</g>
</g>
<!-- Node43&#45;&gt;Node44 -->
<g id="edge5" class="edge">
<title>Node43&#45;&gt;Node44</title>
<path fill="none" stroke="midnightblue" d="M348.23,-67.48C353.24,-60.02 360.75,-48.85 367.46,-38.87"/>
<polygon fill="midnightblue" stroke="midnightblue" points="370.4,-40.77 373.07,-30.52 364.59,-36.87 370.4,-40.77"/>
</g>
<!-- Node23&#45;&gt;Node24 -->
<g id="edge8" class="edge">
<title>Node23&#45;&gt;Node24</title>
<path fill="none" stroke="midnightblue" d="M194.08,-67.48C196.65,-58.99 200.67,-45.7 203.96,-34.82"/>
<polygon fill="midnightblue" stroke="midnightblue" points="207.38,-35.59 206.93,-25.01 200.68,-33.57 207.38,-35.59"/>
</g>
<!-- Node45&#45;&gt;Node2 -->
<g id="edge13" class="edge">
<title>Node45&#45;&gt;Node2</title>
<path fill="none" stroke="midnightblue" d="M227.74,-179.44C206.18,-170.56 172.24,-156.56 147.71,-146.45"/>
<polygon fill="midnightblue" stroke="midnightblue" points="148.74,-143.09 138.16,-142.52 146.07,-149.56 148.74,-143.09"/>
</g>
<!-- Node45&#45;&gt;Node4 -->
<g id="edge14" class="edge">
<title>Node45&#45;&gt;Node4</title>
<path fill="none" stroke="midnightblue" d="M197.23,-187.99C154.92,-185.41 95.54,-175.56 55.5,-143 27.8,-120.48 23.42,-102.18 29.5,-67 31.41,-55.94 35.52,-44.09 39.33,-34.65"/>
<polygon fill="midnightblue" stroke="midnightblue" points="42.66,-35.76 43.37,-25.19 36.22,-33.01 42.66,-35.76"/>
</g>
<!-- Node45&#45;&gt;Node44 -->
<g id="edge17" class="edge">
<title>Node45&#45;&gt;Node44</title>
<path fill="none" stroke="midnightblue" d="M299.73,-179.89C339.83,-172.37 390.88,-159.8 403.5,-143 426.22,-112.74 409.52,-66.9 395.72,-39.51"/>
<polygon fill="midnightblue" stroke="midnightblue" points="398.8,-37.85 391.03,-30.64 392.61,-41.12 398.8,-37.85"/>
</g>
<!-- Node46 -->
<g id="node10" class="node">
<title>Node46</title>
<g id="a_node10"><a xlink:href="def_8h.html" target="_top" xlink:title=" ">
<polygon fill="white" stroke="red" points="451,-123.5 451,-142.5 528,-142.5 528,-123.5 451,-123.5"/>
<text text-anchor="middle" x="489.5" y="-130.5" font-family="Helvetica,sans-Serif" font-size="10.00">../iface/def.h</text>
</a>
</g>
</g>
<!-- Node45&#45;&gt;Node46 -->
<g id="edge12" class="edge">
<title>Node45&#45;&gt;Node46</title>
<path fill="none" stroke="midnightblue" d="M286.69,-179.44C328.64,-170.04 396.09,-154.93 441.57,-144.74"/>
<polygon fill="midnightblue" stroke="midnightblue" points="442.5,-148.12 451.49,-142.52 440.97,-141.29 442.5,-148.12"/>
</g>
<!-- Node30 -->
<g id="node11" class="node">
<title>Node30</title>
<g id="a_node11"><a xlink:title=" ">
<polygon fill="white" stroke="#bfbfbf" points="189,-123.5 189,-142.5 308,-142.5 308,-123.5 189,-123.5"/>
<text text-anchor="middle" x="248.5" y="-130.5" font-family="Helvetica,sans-Serif" font-size="10.00">emlabcpp/outcome.h</text>
</a>
</g>
</g>
<!-- Node45&#45;&gt;Node30 -->
<g id="edge15" class="edge">
<title>Node45&#45;&gt;Node30</title>
<path fill="none" stroke="midnightblue" d="M248.5,-179.08C248.5,-172.01 248.5,-161.86 248.5,-152.99"/>
<polygon fill="midnightblue" stroke="midnightblue" points="252,-152.75 248.5,-142.75 245,-152.75 252,-152.75"/>
</g>
<!-- Node50 -->
<g id="node12" class="node">
<title>Node50</title>
<g id="a_node12"><a xlink:href="util_8hpp.html" target="_top" xlink:title=" ">
<polygon fill="white" stroke="red" points="326.5,-123.5 326.5,-142.5 394.5,-142.5 394.5,-123.5 326.5,-123.5"/>
<text text-anchor="middle" x="360.5" y="-130.5" font-family="Helvetica,sans-Serif" font-size="10.00">fw/util.hpp</text>
</a>
</g>
</g>
<!-- Node45&#45;&gt;Node50 -->
<g id="edge16" class="edge">
<title>Node45&#45;&gt;Node50</title>
<path fill="none" stroke="midnightblue" d="M266.49,-179.32C284.54,-170.62 312.55,-157.12 333.3,-147.11"/>
<polygon fill="midnightblue" stroke="midnightblue" points="335.06,-150.15 342.55,-142.65 332.02,-143.84 335.06,-150.15"/>
</g>
</g>
</svg>
