<?xml version="1.0" encoding="UTF-8" standalone="no"?>
<!DOCTYPE svg PUBLIC "-//W3C//DTD SVG 1.1//EN"
 "http://www.w3.org/Graphics/SVG/1.1/DTD/svg11.dtd">
<!-- Generated by graphviz version 2.43.0 (0)
 -->
<!-- Title: src/control.cpp Pages: 1 -->
<svg width="465pt" height="274pt"
 viewBox="0.00 0.00 465.10 274.00" xmlns="http://www.w3.org/2000/svg" xmlns:xlink="http://www.w3.org/1999/xlink">
<g id="graph0" class="graph" transform="scale(1 1) rotate(0) translate(4 270)">
<title>src/control.cpp</title>
<polygon fill="white" stroke="transparent" points="-4,4 -4,-270 461.1,-270 461.1,4 -4,4"/>
<!-- Node1 -->
<g id="node1" class="node">
<title>Node1</title>
<g id="a_node1"><a xlink:title=" ">
<polygon fill="#bfbfbf" stroke="black" points="193.1,-246.5 193.1,-265.5 281.1,-265.5 281.1,-246.5 193.1,-246.5"/>
<text text-anchor="middle" x="237.1" y="-253.5" font-family="Helvetica,sans-Serif" font-size="10.00">src/control.cpp</text>
</a>
</g>
</g>
<!-- Node2 -->
<g id="node2" class="node">
<title>Node2</title>
<g id="a_node2"><a xlink:href="control_8hpp.html" target="_top" xlink:title=" ">
<polygon fill="white" stroke="black" points="94.6,-185 94.6,-204 165.6,-204 165.6,-185 94.6,-185"/>
<text text-anchor="middle" x="130.1" y="-192" font-family="Helvetica,sans-Serif" font-size="10.00">control.hpp</text>
</a>
</g>
</g>
<!-- Node1&#45;&gt;Node2 -->
<g id="edge1" class="edge">
<title>Node1&#45;&gt;Node2</title>
<path fill="none" stroke="midnightblue" d="M221.77,-246.48C204.13,-236.67 174.94,-220.43 154.24,-208.92"/>
<polygon fill="midnightblue" stroke="midnightblue" points="155.84,-205.81 145.4,-204.01 152.44,-211.93 155.84,-205.81"/>
</g>
<!-- Node15 -->
<g id="node8" class="node">
<title>Node15</title>
<g id="a_node8"><a xlink:title=" ">
<polygon fill="white" stroke="#bfbfbf" points="183.6,-185 183.6,-204 290.6,-204 290.6,-185 183.6,-185"/>
<text text-anchor="middle" x="237.1" y="-192" font-family="Helvetica,sans-Serif" font-size="10.00">emlabcpp/match.h</text>
</a>
</g>
</g>
<!-- Node1&#45;&gt;Node15 -->
<g id="edge9" class="edge">
<title>Node1&#45;&gt;Node15</title>
<path fill="none" stroke="midnightblue" d="M237.1,-246.48C237.1,-238.08 237.1,-224.98 237.1,-214.16"/>
<polygon fill="midnightblue" stroke="midnightblue" points="240.6,-214.01 237.1,-204.01 233.6,-214.01 240.6,-214.01"/>
</g>
<!-- Node16 -->
<g id="node9" class="node">
<title>Node16</title>
<g id="a_node9"><a xlink:title=" ">
<polygon fill="white" stroke="#bfbfbf" points="309.1,-179.5 309.1,-209.5 457.1,-209.5 457.1,-179.5 309.1,-179.5"/>
<text text-anchor="start" x="317.1" y="-197.5" font-family="Helvetica,sans-Serif" font-size="10.00">emlabcpp/protocol/register</text>
<text text-anchor="middle" x="383.1" y="-186.5" font-family="Helvetica,sans-Serif" font-size="10.00">_handler.h</text>
</a>
</g>
</g>
<!-- Node1&#45;&gt;Node16 -->
<g id="edge10" class="edge">
<title>Node1&#45;&gt;Node16</title>
<path fill="none" stroke="midnightblue" d="M258.01,-246.48C279.08,-237.89 312.22,-224.38 339.1,-213.43"/>
<polygon fill="midnightblue" stroke="midnightblue" points="340.75,-216.54 348.69,-209.52 338.1,-210.06 340.75,-216.54"/>
</g>
<!-- Node3 -->
<g id="node3" class="node">
<title>Node3</title>
<g id="a_node3"><a xlink:href="base_8hpp.html" target="_top" xlink:title=" ">
<polygon fill="white" stroke="red" points="2.6,-0.5 2.6,-19.5 63.6,-19.5 63.6,-0.5 2.6,-0.5"/>
<text text-anchor="middle" x="33.1" y="-7.5" font-family="Helvetica,sans-Serif" font-size="10.00">base.hpp</text>
</a>
</g>
</g>
<!-- Node2&#45;&gt;Node3 -->
<g id="edge2" class="edge">
<title>Node2&#45;&gt;Node3</title>
<path fill="none" stroke="midnightblue" d="M94.5,-188.97C66.59,-183.33 29.49,-170.79 11.1,-143 -12.33,-107.61 8.88,-55.52 22.95,-28.58"/>
<polygon fill="midnightblue" stroke="midnightblue" points="26.15,-30.02 27.88,-19.57 20.01,-26.66 26.15,-30.02"/>
</g>
<!-- Node10 -->
<g id="node4" class="node">
<title>Node10</title>
<g id="a_node4"><a xlink:href="ctl_2config_8hpp.html" target="_top" xlink:title=" ">
<polygon fill="white" stroke="black" points="20.1,-118 20.1,-137 102.1,-137 102.1,-118 20.1,-118"/>
<text text-anchor="middle" x="61.1" y="-125" font-family="Helvetica,sans-Serif" font-size="10.00">ctl/config.hpp</text>
</a>
</g>
</g>
<!-- Node2&#45;&gt;Node10 -->
<g id="edge3" class="edge">
<title>Node2&#45;&gt;Node10</title>
<path fill="none" stroke="midnightblue" d="M120.79,-184.73C109.82,-174.4 91.39,-157.04 77.9,-144.33"/>
<polygon fill="midnightblue" stroke="midnightblue" points="79.93,-141.44 70.25,-137.13 75.13,-146.53 79.93,-141.44"/>
</g>
<!-- Node11 -->
<g id="node5" class="node">
<title>Node11</title>
<g id="a_node5"><a xlink:href="pid__module_8hpp.html" target="_top" xlink:title=" ">
<polygon fill="white" stroke="red" points="20.1,-56.5 20.1,-75.5 130.1,-75.5 130.1,-56.5 20.1,-56.5"/>
<text text-anchor="middle" x="75.1" y="-63.5" font-family="Helvetica,sans-Serif" font-size="10.00">ctl/pid_module.hpp</text>
</a>
</g>
</g>
<!-- Node2&#45;&gt;Node11 -->
<g id="edge7" class="edge">
<title>Node2&#45;&gt;Node11</title>
<path fill="none" stroke="midnightblue" d="M129.36,-184.99C127.78,-169.7 123.15,-136.83 111.1,-112 106.04,-101.58 98.19,-91.38 91.11,-83.33"/>
<polygon fill="midnightblue" stroke="midnightblue" points="93.52,-80.78 84.16,-75.81 88.38,-85.53 93.52,-80.78"/>
</g>
<!-- Node13 -->
<g id="node6" class="node">
<title>Node13</title>
<g id="a_node6"><a xlink:href="linear__transition__regulator_8hpp.html" target="_top" xlink:title=" ">
<polygon fill="white" stroke="black" points="158.6,-112.5 158.6,-142.5 269.6,-142.5 269.6,-112.5 158.6,-112.5"/>
<text text-anchor="start" x="166.6" y="-130.5" font-family="Helvetica,sans-Serif" font-size="10.00">ctl/linear_transition</text>
<text text-anchor="middle" x="214.1" y="-119.5" font-family="Helvetica,sans-Serif" font-size="10.00">_regulator.hpp</text>
</a>
</g>
</g>
<!-- Node2&#45;&gt;Node13 -->
<g id="edge6" class="edge">
<title>Node2&#45;&gt;Node13</title>
<path fill="none" stroke="midnightblue" d="M141.42,-184.73C153.21,-175.61 172.09,-161 187.65,-148.96"/>
<polygon fill="midnightblue" stroke="midnightblue" points="190.12,-151.48 195.89,-142.59 185.84,-145.94 190.12,-151.48"/>
</g>
<!-- Node14 -->
<g id="node7" class="node">
<title>Node14</title>
<g id="a_node7"><a xlink:title=" ">
<polygon fill="white" stroke="#bfbfbf" points="287.6,-118 287.6,-137 338.6,-137 338.6,-118 287.6,-118"/>
<text text-anchor="middle" x="313.1" y="-125" font-family="Helvetica,sans-Serif" font-size="10.00">variant</text>
</a>
</g>
</g>
<!-- Node2&#45;&gt;Node14 -->
<g id="edge8" class="edge">
<title>Node2&#45;&gt;Node14</title>
<path fill="none" stroke="midnightblue" d="M156.23,-184.91C192.51,-172.94 256.26,-151.72 279.1,-143 280.74,-142.37 282.43,-141.71 284.13,-141.03"/>
<polygon fill="midnightblue" stroke="midnightblue" points="285.88,-144.09 293.78,-137.04 283.2,-137.62 285.88,-144.09"/>
</g>
<!-- Node10&#45;&gt;Node11 -->
<g id="edge4" class="edge">
<title>Node10&#45;&gt;Node11</title>
<path fill="none" stroke="midnightblue" d="M63.1,-117.98C65.1,-109.49 68.22,-96.2 70.78,-85.32"/>
<polygon fill="midnightblue" stroke="midnightblue" points="74.21,-86.04 73.09,-75.51 67.4,-84.44 74.21,-86.04"/>
</g>
<!-- Node11&#45;&gt;Node3 -->
<g id="edge5" class="edge">
<title>Node11&#45;&gt;Node3</title>
<path fill="none" stroke="midnightblue" d="M68.16,-56.08C62.17,-48.38 53.34,-37.03 46.05,-27.65"/>
<polygon fill="midnightblue" stroke="midnightblue" points="48.8,-25.5 39.9,-19.75 43.28,-29.79 48.8,-25.5"/>
</g>
</g>
</svg>
