<?xml version="1.0" encoding="UTF-8" standalone="no"?>
<!DOCTYPE svg PUBLIC "-//W3C//DTD SVG 1.1//EN"
 "http://www.w3.org/Graphics/SVG/1.1/DTD/svg11.dtd">
<!-- Generated by graphviz version 2.43.0 (0)
 -->
<!-- Title: src/cnv/tests/conv_utest.cpp Pages: 1 -->
<svg width="608pt" height="207pt"
 viewBox="0.00 0.00 608.00 207.00" xmlns="http://www.w3.org/2000/svg" xmlns:xlink="http://www.w3.org/1999/xlink">
<g id="graph0" class="graph" transform="scale(1 1) rotate(0) translate(4 203)">
<title>src/cnv/tests/conv_utest.cpp</title>
<polygon fill="white" stroke="transparent" points="-4,4 -4,-203 604,-203 604,4 -4,4"/>
<!-- Node1 -->
<g id="node1" class="node">
<title>Node1</title>
<g id="a_node1"><a xlink:title=" ">
<polygon fill="#bfbfbf" stroke="black" points="196,-168.5 196,-198.5 300,-198.5 300,-168.5 196,-168.5"/>
<text text-anchor="start" x="204" y="-186.5" font-family="Helvetica,sans-Serif" font-size="10.00">src/cnv/tests/conv</text>
<text text-anchor="middle" x="248" y="-175.5" font-family="Helvetica,sans-Serif" font-size="10.00">_utest.cpp</text>
</a>
</g>
</g>
<!-- Node2 -->
<g id="node2" class="node">
<title>Node2</title>
<g id="a_node2"><a xlink:href="converter_8hpp.html" target="_top" xlink:title=" ">
<polygon fill="white" stroke="black" points="0,-112.5 0,-131.5 92,-131.5 92,-112.5 0,-112.5"/>
<text text-anchor="middle" x="46" y="-119.5" font-family="Helvetica,sans-Serif" font-size="10.00">../converter.hpp</text>
</a>
</g>
</g>
<!-- Node1&#45;&gt;Node2 -->
<g id="edge1" class="edge">
<title>Node1&#45;&gt;Node2</title>
<path fill="none" stroke="midnightblue" d="M200.38,-168.47C165.08,-158.08 117.56,-144.08 84.61,-134.37"/>
<polygon fill="midnightblue" stroke="midnightblue" points="85.46,-130.97 74.88,-131.51 83.48,-137.69 85.46,-130.97"/>
</g>
<!-- Node3 -->
<g id="node3" class="node">
<title>Node3</title>
<g id="a_node3"><a xlink:href="linear__converter_8hpp.html" target="_top" xlink:title=" ">
<polygon fill="white" stroke="black" points="8,-56.5 8,-75.5 130,-75.5 130,-56.5 8,-56.5"/>
<text text-anchor="middle" x="69" y="-63.5" font-family="Helvetica,sans-Serif" font-size="10.00">./linear_converter.hpp</text>
</a>
</g>
</g>
<!-- Node1&#45;&gt;Node3 -->
<g id="edge4" class="edge">
<title>Node1&#45;&gt;Node3</title>
<path fill="none" stroke="midnightblue" d="M213.53,-168.49C192.67,-159.36 165.95,-146.48 144,-132 121.91,-117.43 99.34,-96.95 84.81,-82.9"/>
<polygon fill="midnightblue" stroke="midnightblue" points="87.2,-80.34 77.62,-75.83 82.29,-85.33 87.2,-80.34"/>
</g>
<!-- Node4 -->
<g id="node4" class="node">
<title>Node4</title>
<g id="a_node4"><a xlink:title=" ">
<polygon fill="white" stroke="#bfbfbf" points="88,-0.5 88,-19.5 138,-19.5 138,-0.5 88,-0.5"/>
<text text-anchor="middle" x="113" y="-7.5" font-family="Helvetica,sans-Serif" font-size="10.00">cstdint</text>
</a>
</g>
</g>
<!-- Node1&#45;&gt;Node4 -->
<g id="edge5" class="edge">
<title>Node1&#45;&gt;Node4</title>
<path fill="none" stroke="midnightblue" d="M222.29,-168.49C207.62,-159.53 189.69,-146.82 177,-132 152.44,-103.31 156.9,-89.25 139,-56 134.02,-46.75 128.19,-36.6 123.32,-28.29"/>
<polygon fill="midnightblue" stroke="midnightblue" points="126.24,-26.37 118.14,-19.54 120.22,-29.93 126.24,-26.37"/>
</g>
<!-- Node5 -->
<g id="node5" class="node">
<title>Node5</title>
<g id="a_node5"><a xlink:title=" ">
<polygon fill="white" stroke="#bfbfbf" points="186,-112.5 186,-131.5 310,-131.5 310,-112.5 186,-112.5"/>
<text text-anchor="middle" x="248" y="-119.5" font-family="Helvetica,sans-Serif" font-size="10.00">emlabcpp/algorithm.h</text>
</a>
</g>
</g>
<!-- Node1&#45;&gt;Node5 -->
<g id="edge6" class="edge">
<title>Node1&#45;&gt;Node5</title>
<path fill="none" stroke="midnightblue" d="M248,-168.4C248,-160.47 248,-150.46 248,-141.86"/>
<polygon fill="midnightblue" stroke="midnightblue" points="251.5,-141.66 248,-131.66 244.5,-141.66 251.5,-141.66"/>
</g>
<!-- Node6 -->
<g id="node6" class="node">
<title>Node6</title>
<g id="a_node6"><a xlink:title=" ">
<polygon fill="white" stroke="#bfbfbf" points="328,-112.5 328,-131.5 432,-131.5 432,-112.5 328,-112.5"/>
<text text-anchor="middle" x="380" y="-119.5" font-family="Helvetica,sans-Serif" font-size="10.00">emlabcpp/range.h</text>
</a>
</g>
</g>
<!-- Node1&#45;&gt;Node6 -->
<g id="edge7" class="edge">
<title>Node1&#45;&gt;Node6</title>
<path fill="none" stroke="midnightblue" d="M279.28,-168.4C301.23,-158.51 330.34,-145.38 351.62,-135.79"/>
<polygon fill="midnightblue" stroke="midnightblue" points="353.11,-138.96 360.79,-131.66 350.24,-132.58 353.11,-138.96"/>
</g>
<!-- Node7 -->
<g id="node7" class="node">
<title>Node7</title>
<g id="a_node7"><a xlink:title=" ">
<polygon fill="white" stroke="#bfbfbf" points="450,-112.5 450,-131.5 528,-131.5 528,-112.5 450,-112.5"/>
<text text-anchor="middle" x="489" y="-119.5" font-family="Helvetica,sans-Serif" font-size="10.00">gtest/gtest.h</text>
</a>
</g>
</g>
<!-- Node1&#45;&gt;Node7 -->
<g id="edge8" class="edge">
<title>Node1&#45;&gt;Node7</title>
<path fill="none" stroke="midnightblue" d="M300.29,-169.59C343.3,-158.97 403.6,-144.09 444.36,-134.02"/>
<polygon fill="midnightblue" stroke="midnightblue" points="445.41,-137.37 454.28,-131.57 443.74,-130.57 445.41,-137.37"/>
</g>
<!-- Node8 -->
<g id="node8" class="node">
<title>Node8</title>
<g id="a_node8"><a xlink:title=" ">
<polygon fill="white" stroke="#bfbfbf" points="546,-112.5 546,-131.5 600,-131.5 600,-112.5 546,-112.5"/>
<text text-anchor="middle" x="573" y="-119.5" font-family="Helvetica,sans-Serif" font-size="10.00">random</text>
</a>
</g>
</g>
<!-- Node1&#45;&gt;Node8 -->
<g id="edge9" class="edge">
<title>Node1&#45;&gt;Node8</title>
<path fill="none" stroke="midnightblue" d="M300.16,-174.54C356.11,-165.75 447.74,-150.61 536.01,-132.09"/>
<polygon fill="midnightblue" stroke="midnightblue" points="536.86,-135.49 545.92,-129.99 535.41,-128.64 536.86,-135.49"/>
</g>
<!-- Node2&#45;&gt;Node3 -->
<g id="edge2" class="edge">
<title>Node2&#45;&gt;Node3</title>
<path fill="none" stroke="midnightblue" d="M49.8,-112.08C52.91,-104.77 57.42,-94.18 61.29,-85.1"/>
<polygon fill="midnightblue" stroke="midnightblue" points="64.57,-86.32 65.27,-75.75 58.13,-83.58 64.57,-86.32"/>
</g>
<!-- Node3&#45;&gt;Node4 -->
<g id="edge3" class="edge">
<title>Node3&#45;&gt;Node4</title>
<path fill="none" stroke="midnightblue" d="M76.27,-56.08C82.54,-48.38 91.79,-37.03 99.43,-27.65"/>
<polygon fill="midnightblue" stroke="midnightblue" points="102.27,-29.71 105.87,-19.75 96.84,-25.29 102.27,-29.71"/>
</g>
</g>
</svg>
