<?xml version="1.0" encoding="UTF-8" standalone="no"?>
<!DOCTYPE svg PUBLIC "-//W3C//DTD SVG 1.1//EN"
 "http://www.w3.org/Graphics/SVG/1.1/DTD/svg11.dtd">
<!-- Generated by graphviz version 2.43.0 (0)
 -->
<!-- Title: src/converter.hpp Pages: 1 -->
<svg width="466pt" height="140pt"
 viewBox="0.00 0.00 465.50 140.00" xmlns="http://www.w3.org/2000/svg" xmlns:xlink="http://www.w3.org/1999/xlink">
<g id="graph0" class="graph" transform="scale(1 1) rotate(0) translate(4 136)">
<title>src/converter.hpp</title>
<polygon fill="white" stroke="transparent" points="-4,4 -4,-136 461.5,-136 461.5,4 -4,4"/>
<!-- Node1 -->
<g id="node1" class="node">
<title>Node1</title>
<g id="a_node1"><a xlink:title=" ">
<polygon fill="#bfbfbf" stroke="black" points="171.5,-112.5 171.5,-131.5 272.5,-131.5 272.5,-112.5 171.5,-112.5"/>
<text text-anchor="middle" x="222" y="-119.5" font-family="Helvetica,sans-Serif" font-size="10.00">src/converter.hpp</text>
</a>
</g>
</g>
<!-- Node2 -->
<g id="node2" class="node">
<title>Node2</title>
<g id="a_node2"><a xlink:href="current_8hpp.html" target="_top" xlink:title=" ">
<polygon fill="white" stroke="black" points="0,-56.5 0,-75.5 92,-75.5 92,-56.5 0,-56.5"/>
<text text-anchor="middle" x="46" y="-63.5" font-family="Helvetica,sans-Serif" font-size="10.00">cnv/current.hpp</text>
</a>
</g>
</g>
<!-- Node1&#45;&gt;Node2 -->
<g id="edge1" class="edge">
<title>Node1&#45;&gt;Node2</title>
<path fill="none" stroke="midnightblue" d="M194.11,-112.44C164.25,-103.28 116.69,-88.69 83.54,-78.52"/>
<polygon fill="midnightblue" stroke="midnightblue" points="84.34,-75.1 73.76,-75.52 82.29,-81.8 84.34,-75.1"/>
</g>
<!-- Node4 -->
<g id="node4" class="node">
<title>Node4</title>
<g id="a_node4"><a xlink:href="position_8hpp.html" target="_top" xlink:title=" ">
<polygon fill="white" stroke="black" points="110.5,-56.5 110.5,-75.5 207.5,-75.5 207.5,-56.5 110.5,-56.5"/>
<text text-anchor="middle" x="159" y="-63.5" font-family="Helvetica,sans-Serif" font-size="10.00">cnv/position.hpp</text>
</a>
</g>
</g>
<!-- Node1&#45;&gt;Node4 -->
<g id="edge3" class="edge">
<title>Node1&#45;&gt;Node4</title>
<path fill="none" stroke="midnightblue" d="M211.88,-112.32C202.47,-104.26 188.26,-92.08 176.93,-82.37"/>
<polygon fill="midnightblue" stroke="midnightblue" points="179.18,-79.68 169.31,-75.83 174.62,-85 179.18,-79.68"/>
</g>
<!-- Node5 -->
<g id="node5" class="node">
<title>Node5</title>
<g id="a_node5"><a xlink:href="temperature_8hpp.html" target="_top" xlink:title=" ">
<polygon fill="white" stroke="black" points="225.5,-56.5 225.5,-75.5 344.5,-75.5 344.5,-56.5 225.5,-56.5"/>
<text text-anchor="middle" x="285" y="-63.5" font-family="Helvetica,sans-Serif" font-size="10.00">cnv/temperature.hpp</text>
</a>
</g>
</g>
<!-- Node1&#45;&gt;Node5 -->
<g id="edge5" class="edge">
<title>Node1&#45;&gt;Node5</title>
<path fill="none" stroke="midnightblue" d="M232.12,-112.32C241.53,-104.26 255.74,-92.08 267.07,-82.37"/>
<polygon fill="midnightblue" stroke="midnightblue" points="269.38,-85 274.69,-75.83 264.82,-79.68 269.38,-85"/>
</g>
<!-- Node6 -->
<g id="node6" class="node">
<title>Node6</title>
<g id="a_node6"><a xlink:href="voltage_8hpp.html" target="_top" xlink:title=" ">
<polygon fill="white" stroke="black" points="362.5,-56.5 362.5,-75.5 457.5,-75.5 457.5,-56.5 362.5,-56.5"/>
<text text-anchor="middle" x="410" y="-63.5" font-family="Helvetica,sans-Serif" font-size="10.00">cnv/voltage.hpp</text>
</a>
</g>
</g>
<!-- Node1&#45;&gt;Node6 -->
<g id="edge6" class="edge">
<title>Node1&#45;&gt;Node6</title>
<path fill="none" stroke="midnightblue" d="M251.79,-112.44C283.83,-103.24 334.93,-88.56 370.35,-78.39"/>
<polygon fill="midnightblue" stroke="midnightblue" points="371.71,-81.64 380.35,-75.52 369.77,-74.91 371.71,-81.64"/>
</g>
<!-- Node3 -->
<g id="node3" class="node">
<title>Node3</title>
<g id="a_node3"><a xlink:title=" ">
<polygon fill="white" stroke="#bfbfbf" points="77,-0.5 77,-19.5 127,-19.5 127,-0.5 77,-0.5"/>
<text text-anchor="middle" x="102" y="-7.5" font-family="Helvetica,sans-Serif" font-size="10.00">cstdint</text>
</a>
</g>
</g>
<!-- Node2&#45;&gt;Node3 -->
<g id="edge2" class="edge">
<title>Node2&#45;&gt;Node3</title>
<path fill="none" stroke="midnightblue" d="M55,-56.32C63.19,-48.42 75.51,-36.55 85.47,-26.94"/>
<polygon fill="midnightblue" stroke="midnightblue" points="88.07,-29.29 92.84,-19.83 83.21,-24.26 88.07,-29.29"/>
</g>
<!-- Node4&#45;&gt;Node3 -->
<g id="edge4" class="edge">
<title>Node4&#45;&gt;Node3</title>
<path fill="none" stroke="midnightblue" d="M149.84,-56.32C141.5,-48.42 128.97,-36.55 118.82,-26.94"/>
<polygon fill="midnightblue" stroke="midnightblue" points="120.99,-24.17 111.32,-19.83 116.18,-29.25 120.99,-24.17"/>
</g>
</g>
</svg>
