<?xml version="1.0" encoding="UTF-8" standalone="no"?>
<!DOCTYPE svg PUBLIC "-//W3C//DTD SVG 1.1//EN"
 "http://www.w3.org/Graphics/SVG/1.1/DTD/svg11.dtd">
<!-- Generated by graphviz version 2.43.0 (0)
 -->
<!-- Title: src/fw/conversion.hpp Pages: 1 -->
<svg width="1269pt" height="207pt"
 viewBox="0.00 0.00 1268.76 207.00" xmlns="http://www.w3.org/2000/svg" xmlns:xlink="http://www.w3.org/1999/xlink">
<g id="graph0" class="graph" transform="scale(1 1) rotate(0) translate(4 203)">
<title>src/fw/conversion.hpp</title>
<polygon fill="white" stroke="transparent" points="-4,4 -4,-203 1264.76,-203 1264.76,4 -4,4"/>
<!-- Node1 -->
<g id="node1" class="node">
<title>Node1</title>
<g id="a_node1"><a xlink:title=" ">
<polygon fill="#bfbfbf" stroke="black" points="804.5,-179.5 804.5,-198.5 926.5,-198.5 926.5,-179.5 804.5,-179.5"/>
<text text-anchor="middle" x="865.5" y="-186.5" font-family="Helvetica,sans-Serif" font-size="10.00">src/fw/conversion.hpp</text>
</a>
</g>
</g>
<!-- Node2 -->
<g id="node2" class="node">
<title>Node2</title>
<g id="a_node2"><a xlink:href="converter_8hpp.html" target="_top" xlink:title=" ">
<polygon fill="white" stroke="black" points="348,-123.5 348,-142.5 431,-142.5 431,-123.5 348,-123.5"/>
<text text-anchor="middle" x="389.5" y="-130.5" font-family="Helvetica,sans-Serif" font-size="10.00">converter.hpp</text>
</a>
</g>
</g>
<!-- Node1&#45;&gt;Node2 -->
<g id="edge1" class="edge">
<title>Node1&#45;&gt;Node2</title>
<path fill="none" stroke="midnightblue" d="M804.25,-181.05C709.69,-170.32 529.85,-149.92 441.34,-139.88"/>
<polygon fill="midnightblue" stroke="midnightblue" points="441.6,-136.39 431.27,-138.74 440.81,-143.34 441.6,-136.39"/>
</g>
<!-- Node8 -->
<g id="node7" class="node">
<title>Node8</title>
<g id="a_node7"><a xlink:href="acquisition_8hpp.html" target="_top" xlink:title=" ">
<polygon fill="white" stroke="black" points="803.5,-123.5 803.5,-142.5 927.5,-142.5 927.5,-123.5 803.5,-123.5"/>
<text text-anchor="middle" x="865.5" y="-130.5" font-family="Helvetica,sans-Serif" font-size="10.00">fw/drv/acquisition.hpp</text>
</a>
</g>
</g>
<!-- Node1&#45;&gt;Node8 -->
<g id="edge6" class="edge">
<title>Node1&#45;&gt;Node8</title>
<path fill="none" stroke="midnightblue" d="M865.5,-179.08C865.5,-172.01 865.5,-161.86 865.5,-152.99"/>
<polygon fill="midnightblue" stroke="midnightblue" points="869,-152.75 865.5,-142.75 862,-152.75 869,-152.75"/>
</g>
<!-- Node20 -->
<g id="node14" class="node">
<title>Node20</title>
<g id="a_node14"><a xlink:href="hbridge_8hpp.html" target="_top" xlink:title=" ">
<polygon fill="white" stroke="black" points="986,-123.5 986,-142.5 1093,-142.5 1093,-123.5 986,-123.5"/>
<text text-anchor="middle" x="1039.5" y="-130.5" font-family="Helvetica,sans-Serif" font-size="10.00">fw/drv/hbridge.hpp</text>
</a>
</g>
</g>
<!-- Node1&#45;&gt;Node20 -->
<g id="edge14" class="edge">
<title>Node1&#45;&gt;Node20</title>
<path fill="none" stroke="midnightblue" d="M893.07,-179.44C922.6,-170.28 969.62,-155.69 1002.38,-145.52"/>
<polygon fill="midnightblue" stroke="midnightblue" points="1003.54,-148.82 1012.06,-142.52 1001.47,-142.14 1003.54,-148.82"/>
</g>
<!-- Node3 -->
<g id="node3" class="node">
<title>Node3</title>
<g id="a_node3"><a xlink:href="current_8hpp.html" target="_top" xlink:title=" ">
<polygon fill="white" stroke="red" points="473.5,-62 473.5,-81 601.5,-81 601.5,-62 473.5,-62"/>
<text text-anchor="middle" x="537.5" y="-69" font-family="Helvetica,sans-Serif" font-size="10.00">conversion/current.hpp</text>
</a>
</g>
</g>
<!-- Node2&#45;&gt;Node3 -->
<g id="edge2" class="edge">
<title>Node2&#45;&gt;Node3</title>
<path fill="none" stroke="midnightblue" d="M410.7,-123.48C435.87,-113.36 478.04,-96.4 506.78,-84.85"/>
<polygon fill="midnightblue" stroke="midnightblue" points="508.36,-87.99 516.33,-81.01 505.75,-81.49 508.36,-87.99"/>
</g>
<!-- Node5 -->
<g id="node4" class="node">
<title>Node5</title>
<g id="a_node4"><a xlink:href="position_8hpp.html" target="_top" xlink:title=" ">
<polygon fill="white" stroke="red" points="0,-62 0,-81 133,-81 133,-62 0,-62"/>
<text text-anchor="middle" x="66.5" y="-69" font-family="Helvetica,sans-Serif" font-size="10.00">conversion/position.hpp</text>
</a>
</g>
</g>
<!-- Node2&#45;&gt;Node5 -->
<g id="edge3" class="edge">
<title>Node2&#45;&gt;Node5</title>
<path fill="none" stroke="midnightblue" d="M347.79,-124.58C298.48,-115.78 213.97,-100.58 141.5,-87 134.67,-85.72 127.49,-84.36 120.4,-83"/>
<polygon fill="midnightblue" stroke="midnightblue" points="120.59,-79.47 110.11,-81.02 119.27,-86.34 120.59,-79.47"/>
</g>
<!-- Node6 -->
<g id="node5" class="node">
<title>Node6</title>
<g id="a_node5"><a xlink:href="temperature_8hpp.html" target="_top" xlink:title=" ">
<polygon fill="white" stroke="black" points="151,-62 151,-81 306,-81 306,-62 151,-62"/>
<text text-anchor="middle" x="228.5" y="-69" font-family="Helvetica,sans-Serif" font-size="10.00">conversion/temperature.hpp</text>
</a>
</g>
</g>
<!-- Node2&#45;&gt;Node6 -->
<g id="edge4" class="edge">
<title>Node2&#45;&gt;Node6</title>
<path fill="none" stroke="midnightblue" d="M366.43,-123.48C338.82,-113.27 292.38,-96.11 261.1,-84.55"/>
<polygon fill="midnightblue" stroke="midnightblue" points="262.12,-81.19 251.52,-81.01 259.69,-87.76 262.12,-81.19"/>
</g>
<!-- Node7 -->
<g id="node6" class="node">
<title>Node7</title>
<g id="a_node6"><a xlink:href="voltage_8hpp.html" target="_top" xlink:title=" ">
<polygon fill="white" stroke="black" points="324,-62 324,-81 455,-81 455,-62 324,-62"/>
<text text-anchor="middle" x="389.5" y="-69" font-family="Helvetica,sans-Serif" font-size="10.00">conversion/voltage.hpp</text>
</a>
</g>
</g>
<!-- Node2&#45;&gt;Node7 -->
<g id="edge5" class="edge">
<title>Node2&#45;&gt;Node7</title>
<path fill="none" stroke="midnightblue" d="M389.5,-123.48C389.5,-115.08 389.5,-101.98 389.5,-91.16"/>
<polygon fill="midnightblue" stroke="midnightblue" points="393,-91.01 389.5,-81.01 386,-91.01 393,-91.01"/>
</g>
<!-- Node9 -->
<g id="node8" class="node">
<title>Node9</title>
<g id="a_node8"><a xlink:href="base_8hpp.html" target="_top" xlink:title=" ">
<polygon fill="white" stroke="red" points="737,-62 737,-81 798,-81 798,-62 737,-62"/>
<text text-anchor="middle" x="767.5" y="-69" font-family="Helvetica,sans-Serif" font-size="10.00">base.hpp</text>
</a>
</g>
</g>
<!-- Node8&#45;&gt;Node9 -->
<g id="edge7" class="edge">
<title>Node8&#45;&gt;Node9</title>
<path fill="none" stroke="midnightblue" d="M851.46,-123.48C835.45,-113.75 809.05,-97.73 790.13,-86.24"/>
<polygon fill="midnightblue" stroke="midnightblue" points="791.88,-83.21 781.51,-81.01 788.25,-89.19 791.88,-83.21"/>
</g>
<!-- Node15 -->
<g id="node9" class="node">
<title>Node15</title>
<g id="a_node9"><a xlink:href="drv_2callbacks_8hpp.html" target="_top" xlink:title=" ">
<polygon fill="white" stroke="red" points="854.5,-62 854.5,-81 970.5,-81 970.5,-62 854.5,-62"/>
<text text-anchor="middle" x="912.5" y="-69" font-family="Helvetica,sans-Serif" font-size="10.00">fw/drv/callbacks.hpp</text>
</a>
</g>
</g>
<!-- Node8&#45;&gt;Node15 -->
<g id="edge8" class="edge">
<title>Node8&#45;&gt;Node15</title>
<path fill="none" stroke="midnightblue" d="M872.23,-123.48C879.28,-114.55 890.53,-100.31 899.35,-89.14"/>
<polygon fill="midnightblue" stroke="midnightblue" points="902.33,-91.03 905.78,-81.01 896.83,-86.69 902.33,-91.03"/>
</g>
<!-- Node16 -->
<g id="node10" class="node">
<title>Node16</title>
<g id="a_node10"><a xlink:title=" ">
<polygon fill="white" stroke="#bfbfbf" points="892.5,-0.5 892.5,-19.5 932.5,-19.5 932.5,-0.5 892.5,-0.5"/>
<text text-anchor="middle" x="912.5" y="-7.5" font-family="Helvetica,sans-Serif" font-size="10.00">span</text>
</a>
</g>
</g>
<!-- Node8&#45;&gt;Node16 -->
<g id="edge12" class="edge">
<title>Node8&#45;&gt;Node16</title>
<path fill="none" stroke="midnightblue" d="M859.15,-123.08C849.53,-108.37 833.56,-78.39 845.5,-56 853.48,-41.03 868.89,-30.16 882.93,-22.85"/>
<polygon fill="midnightblue" stroke="midnightblue" points="884.81,-25.83 892.32,-18.36 881.79,-19.52 884.81,-25.83"/>
</g>
<!-- Node17 -->
<g id="node11" class="node">
<title>Node17</title>
<g id="a_node11"><a xlink:title=" ">
<polygon fill="white" stroke="#bfbfbf" points="1108,-56.5 1108,-86.5 1241,-86.5 1241,-56.5 1108,-56.5"/>
<text text-anchor="start" x="1116" y="-74.5" font-family="Helvetica,sans-Serif" font-size="10.00">emlabcpp/experimental</text>
<text text-anchor="middle" x="1174.5" y="-63.5" font-family="Helvetica,sans-Serif" font-size="10.00">/function_view.h</text>
</a>
</g>
</g>
<!-- Node8&#45;&gt;Node17 -->
<g id="edge10" class="edge">
<title>Node8&#45;&gt;Node17</title>
<path fill="none" stroke="midnightblue" d="M909.93,-123.47C954.88,-114.84 1026.68,-101.04 1097.81,-87.32"/>
<polygon fill="midnightblue" stroke="midnightblue" points="1098.69,-90.72 1107.84,-85.39 1097.36,-83.85 1098.69,-90.72"/>
</g>
<!-- Node18 -->
<g id="node12" class="node">
<title>Node18</title>
<g id="a_node12"><a xlink:title=" ">
<polygon fill="white" stroke="#bfbfbf" points="620,-62 620,-81 719,-81 719,-62 620,-62"/>
<text text-anchor="middle" x="669.5" y="-69" font-family="Helvetica,sans-Serif" font-size="10.00">emlabcpp/view.h</text>
</a>
</g>
</g>
<!-- Node8&#45;&gt;Node18 -->
<g id="edge11" class="edge">
<title>Node8&#45;&gt;Node18</title>
<path fill="none" stroke="midnightblue" d="M837.42,-123.48C803.21,-113.09 745.3,-95.51 707.23,-83.95"/>
<polygon fill="midnightblue" stroke="midnightblue" points="708.12,-80.56 697.53,-81.01 706.08,-87.26 708.12,-80.56"/>
</g>
<!-- Node19 -->
<g id="node13" class="node">
<title>Node19</title>
<g id="a_node13"><a xlink:title=" ">
<polygon fill="white" stroke="#bfbfbf" points="989,-62 989,-81 1090,-81 1090,-62 989,-62"/>
<text text-anchor="middle" x="1039.5" y="-69" font-family="Helvetica,sans-Serif" font-size="10.00">stm32g4xx_hal.h</text>
</a>
</g>
</g>
<!-- Node8&#45;&gt;Node19 -->
<g id="edge13" class="edge">
<title>Node8&#45;&gt;Node19</title>
<path fill="none" stroke="midnightblue" d="M890.43,-123.48C920.54,-113.18 971.33,-95.81 1005.14,-84.25"/>
<polygon fill="midnightblue" stroke="midnightblue" points="1006.29,-87.56 1014.62,-81.01 1004.02,-80.93 1006.29,-87.56"/>
</g>
<!-- Node15&#45;&gt;Node16 -->
<g id="edge9" class="edge">
<title>Node15&#45;&gt;Node16</title>
<path fill="none" stroke="midnightblue" d="M912.5,-61.98C912.5,-53.58 912.5,-40.48 912.5,-29.66"/>
<polygon fill="midnightblue" stroke="midnightblue" points="916,-29.51 912.5,-19.51 909,-29.51 916,-29.51"/>
</g>
<!-- Node20&#45;&gt;Node15 -->
<g id="edge15" class="edge">
<title>Node20&#45;&gt;Node15</title>
<path fill="none" stroke="midnightblue" d="M1021.3,-123.48C999.99,-113.49 964.47,-96.85 939.84,-85.31"/>
<polygon fill="midnightblue" stroke="midnightblue" points="941.2,-82.08 930.66,-81.01 938.23,-88.42 941.2,-82.08"/>
</g>
<!-- Node20&#45;&gt;Node16 -->
<g id="edge17" class="edge">
<title>Node20&#45;&gt;Node16</title>
<path fill="none" stroke="midnightblue" d="M1093.27,-130.02C1170.15,-125.32 1297.31,-109.46 1250.5,-56 1230.34,-32.98 1022.24,-17.79 942.95,-12.8"/>
<polygon fill="midnightblue" stroke="midnightblue" points="942.85,-9.29 932.65,-12.16 942.42,-16.27 942.85,-9.29"/>
</g>
<!-- Node20&#45;&gt;Node17 -->
<g id="edge16" class="edge">
<title>Node20&#45;&gt;Node17</title>
<path fill="none" stroke="midnightblue" d="M1058.84,-123.48C1078.24,-114.93 1108.7,-101.5 1133.49,-90.57"/>
<polygon fill="midnightblue" stroke="midnightblue" points="1134.94,-93.76 1142.68,-86.52 1132.12,-87.35 1134.94,-93.76"/>
</g>
<!-- Node20&#45;&gt;Node19 -->
<g id="edge18" class="edge">
<title>Node20&#45;&gt;Node19</title>
<path fill="none" stroke="midnightblue" d="M1039.5,-123.48C1039.5,-115.08 1039.5,-101.98 1039.5,-91.16"/>
<polygon fill="midnightblue" stroke="midnightblue" points="1043,-91.01 1039.5,-81.01 1036,-91.01 1043,-91.01"/>
</g>
</g>
</svg>
