<?xml version="1.0" encoding="UTF-8" standalone="no"?>
<!DOCTYPE svg PUBLIC "-//W3C//DTD SVG 1.1//EN"
 "http://www.w3.org/Graphics/SVG/1.1/DTD/svg11.dtd">
<!-- Generated by graphviz version 2.43.0 (0)
 -->
<!-- Title: src/fw/conversion.hpp Pages: 1 -->
<svg width="909pt" height="207pt"
 viewBox="0.00 0.00 908.50 207.00" xmlns="http://www.w3.org/2000/svg" xmlns:xlink="http://www.w3.org/1999/xlink">
<g id="graph0" class="graph" transform="scale(1 1) rotate(0) translate(4 203)">
<title>src/fw/conversion.hpp</title>
<polygon fill="white" stroke="transparent" points="-4,4 -4,-203 904.5,-203 904.5,4 -4,4"/>
<!-- Node1 -->
<g id="node1" class="node">
<title>Node1</title>
<g id="a_node1"><a xlink:title=" ">
<polygon fill="#bfbfbf" stroke="black" points="391,-179.5 391,-198.5 513,-198.5 513,-179.5 391,-179.5"/>
<text text-anchor="middle" x="452" y="-186.5" font-family="Helvetica,sans-Serif" font-size="10.00">src/fw/conversion.hpp</text>
</a>
</g>
</g>
<!-- Node2 -->
<g id="node2" class="node">
<title>Node2</title>
<g id="a_node2"><a xlink:href="converter_8hpp.html" target="_top" xlink:title=" ">
<polygon fill="white" stroke="black" points="243.5,-123.5 243.5,-142.5 326.5,-142.5 326.5,-123.5 243.5,-123.5"/>
<text text-anchor="middle" x="285" y="-130.5" font-family="Helvetica,sans-Serif" font-size="10.00">converter.hpp</text>
</a>
</g>
</g>
<!-- Node1&#45;&gt;Node2 -->
<g id="edge1" class="edge">
<title>Node1&#45;&gt;Node2</title>
<path fill="none" stroke="midnightblue" d="M425.54,-179.44C397.32,-170.32 352.46,-155.81 321.03,-145.65"/>
<polygon fill="midnightblue" stroke="midnightblue" points="321.93,-142.26 311.34,-142.52 319.78,-148.92 321.93,-142.26"/>
</g>
<!-- Node8 -->
<g id="node7" class="node">
<title>Node8</title>
<g id="a_node7"><a xlink:href="hbridge_8hpp.html" target="_top" xlink:title=" ">
<polygon fill="white" stroke="black" points="566.5,-123.5 566.5,-142.5 673.5,-142.5 673.5,-123.5 566.5,-123.5"/>
<text text-anchor="middle" x="620" y="-130.5" font-family="Helvetica,sans-Serif" font-size="10.00">fw/drv/hbridge.hpp</text>
</a>
</g>
</g>
<!-- Node1&#45;&gt;Node8 -->
<g id="edge6" class="edge">
<title>Node1&#45;&gt;Node8</title>
<path fill="none" stroke="midnightblue" d="M478.62,-179.44C507.01,-170.32 552.14,-155.81 583.75,-145.65"/>
<polygon fill="midnightblue" stroke="midnightblue" points="585.06,-148.91 593.5,-142.52 582.91,-142.24 585.06,-148.91"/>
</g>
<!-- Node3 -->
<g id="node3" class="node">
<title>Node3</title>
<g id="a_node3"><a xlink:href="current_8hpp.html" target="_top" xlink:title=" ">
<polygon fill="white" stroke="red" points="0,-62 0,-81 92,-81 92,-62 0,-62"/>
<text text-anchor="middle" x="46" y="-69" font-family="Helvetica,sans-Serif" font-size="10.00">cnv/current.hpp</text>
</a>
</g>
</g>
<!-- Node2&#45;&gt;Node3 -->
<g id="edge2" class="edge">
<title>Node2&#45;&gt;Node3</title>
<path fill="none" stroke="midnightblue" d="M249.34,-123.48C212.23,-114.57 152.48,-100.08 101,-87 96.68,-85.9 92.18,-84.74 87.69,-83.58"/>
<polygon fill="midnightblue" stroke="midnightblue" points="88.53,-80.18 77.97,-81.03 86.75,-86.95 88.53,-80.18"/>
</g>
<!-- Node5 -->
<g id="node4" class="node">
<title>Node5</title>
<g id="a_node4"><a xlink:href="position_8hpp.html" target="_top" xlink:title=" ">
<polygon fill="white" stroke="red" points="110.5,-62 110.5,-81 207.5,-81 207.5,-62 110.5,-62"/>
<text text-anchor="middle" x="159" y="-69" font-family="Helvetica,sans-Serif" font-size="10.00">cnv/position.hpp</text>
</a>
</g>
</g>
<!-- Node2&#45;&gt;Node5 -->
<g id="edge3" class="edge">
<title>Node2&#45;&gt;Node5</title>
<path fill="none" stroke="midnightblue" d="M266.95,-123.48C245.8,-113.49 210.56,-96.85 186.12,-85.31"/>
<polygon fill="midnightblue" stroke="midnightblue" points="187.56,-82.11 177.02,-81.01 184.57,-88.44 187.56,-82.11"/>
</g>
<!-- Node6 -->
<g id="node5" class="node">
<title>Node6</title>
<g id="a_node5"><a xlink:href="temperature_8hpp.html" target="_top" xlink:title=" ">
<polygon fill="white" stroke="black" points="225.5,-62 225.5,-81 344.5,-81 344.5,-62 225.5,-62"/>
<text text-anchor="middle" x="285" y="-69" font-family="Helvetica,sans-Serif" font-size="10.00">cnv/temperature.hpp</text>
</a>
</g>
</g>
<!-- Node2&#45;&gt;Node6 -->
<g id="edge4" class="edge">
<title>Node2&#45;&gt;Node6</title>
<path fill="none" stroke="midnightblue" d="M285,-123.48C285,-115.08 285,-101.98 285,-91.16"/>
<polygon fill="midnightblue" stroke="midnightblue" points="288.5,-91.01 285,-81.01 281.5,-91.01 288.5,-91.01"/>
</g>
<!-- Node7 -->
<g id="node6" class="node">
<title>Node7</title>
<g id="a_node6"><a xlink:href="voltage_8hpp.html" target="_top" xlink:title=" ">
<polygon fill="white" stroke="black" points="362.5,-62 362.5,-81 457.5,-81 457.5,-62 362.5,-62"/>
<text text-anchor="middle" x="410" y="-69" font-family="Helvetica,sans-Serif" font-size="10.00">cnv/voltage.hpp</text>
</a>
</g>
</g>
<!-- Node2&#45;&gt;Node7 -->
<g id="edge5" class="edge">
<title>Node2&#45;&gt;Node7</title>
<path fill="none" stroke="midnightblue" d="M302.91,-123.48C323.89,-113.49 358.85,-96.85 383.09,-85.31"/>
<polygon fill="midnightblue" stroke="midnightblue" points="384.6,-88.47 392.12,-81.01 381.59,-82.15 384.6,-88.47"/>
</g>
<!-- Node9 -->
<g id="node8" class="node">
<title>Node9</title>
<g id="a_node8"><a xlink:href="drv_2callbacks_8hpp.html" target="_top" xlink:title=" ">
<polygon fill="white" stroke="red" points="476,-62 476,-81 592,-81 592,-62 476,-62"/>
<text text-anchor="middle" x="534" y="-69" font-family="Helvetica,sans-Serif" font-size="10.00">fw/drv/callbacks.hpp</text>
</a>
</g>
</g>
<!-- Node8&#45;&gt;Node9 -->
<g id="edge7" class="edge">
<title>Node8&#45;&gt;Node9</title>
<path fill="none" stroke="midnightblue" d="M607.68,-123.48C593.88,-113.93 571.3,-98.31 554.77,-86.87"/>
<polygon fill="midnightblue" stroke="midnightblue" points="556.51,-83.82 546.3,-81.01 552.53,-89.58 556.51,-83.82"/>
</g>
<!-- Node11 -->
<g id="node9" class="node">
<title>Node11</title>
<g id="a_node9"><a xlink:title=" ">
<polygon fill="white" stroke="#bfbfbf" points="557,-0.5 557,-19.5 597,-19.5 597,-0.5 557,-0.5"/>
<text text-anchor="middle" x="577" y="-7.5" font-family="Helvetica,sans-Serif" font-size="10.00">span</text>
</a>
</g>
</g>
<!-- Node8&#45;&gt;Node11 -->
<g id="edge10" class="edge">
<title>Node8&#45;&gt;Node11</title>
<path fill="none" stroke="midnightblue" d="M618.55,-123.36C616,-109.03 610.09,-79.61 601,-56 597.38,-46.6 592.24,-36.67 587.64,-28.54"/>
<polygon fill="midnightblue" stroke="midnightblue" points="590.52,-26.52 582.45,-19.66 584.48,-30.06 590.52,-26.52"/>
</g>
<!-- Node12 -->
<g id="node10" class="node">
<title>Node12</title>
<g id="a_node10"><a xlink:title=" ">
<polygon fill="white" stroke="#bfbfbf" points="648.5,-56.5 648.5,-86.5 781.5,-86.5 781.5,-56.5 648.5,-56.5"/>
<text text-anchor="start" x="656.5" y="-74.5" font-family="Helvetica,sans-Serif" font-size="10.00">emlabcpp/experimental</text>
<text text-anchor="middle" x="715" y="-63.5" font-family="Helvetica,sans-Serif" font-size="10.00">/function_view.h</text>
</a>
</g>
</g>
<!-- Node8&#45;&gt;Node12 -->
<g id="edge9" class="edge">
<title>Node8&#45;&gt;Node12</title>
<path fill="none" stroke="midnightblue" d="M633.61,-123.48C646.72,-115.27 667.01,-102.56 684.05,-91.88"/>
<polygon fill="midnightblue" stroke="midnightblue" points="685.99,-94.8 692.61,-86.52 682.28,-88.86 685.99,-94.8"/>
</g>
<!-- Node13 -->
<g id="node11" class="node">
<title>Node13</title>
<g id="a_node11"><a xlink:title=" ">
<polygon fill="white" stroke="#bfbfbf" points="799.5,-62 799.5,-81 900.5,-81 900.5,-62 799.5,-62"/>
<text text-anchor="middle" x="850" y="-69" font-family="Helvetica,sans-Serif" font-size="10.00">stm32g4xx_hal.h</text>
</a>
</g>
</g>
<!-- Node8&#45;&gt;Node13 -->
<g id="edge11" class="edge">
<title>Node8&#45;&gt;Node13</title>
<path fill="none" stroke="midnightblue" d="M652.95,-123.48C693.6,-112.96 762.79,-95.06 807.42,-83.51"/>
<polygon fill="midnightblue" stroke="midnightblue" points="808.3,-86.9 817.11,-81.01 806.55,-80.13 808.3,-86.9"/>
</g>
<!-- Node9&#45;&gt;Node11 -->
<g id="edge8" class="edge">
<title>Node9&#45;&gt;Node11</title>
<path fill="none" stroke="midnightblue" d="M540.16,-61.98C546.61,-53.05 556.9,-38.81 564.97,-27.64"/>
<polygon fill="midnightblue" stroke="midnightblue" points="567.83,-29.66 570.85,-19.51 562.16,-25.56 567.83,-29.66"/>
</g>
</g>
</svg>
