<?xml version="1.0" encoding="UTF-8" standalone="no"?>
<!DOCTYPE svg PUBLIC "-//W3C//DTD SVG 1.1//EN"
 "http://www.w3.org/Graphics/SVG/1.1/DTD/svg11.dtd">
<!-- Generated by graphviz version 2.43.0 (0)
 -->
<!-- Title: src/core/core.hpp Pages: 1 -->
<svg width="556pt" height="263pt"
 viewBox="0.00 0.00 556.23 263.00" xmlns="http://www.w3.org/2000/svg" xmlns:xlink="http://www.w3.org/1999/xlink">
<g id="graph0" class="graph" transform="scale(1 1) rotate(0) translate(4 259)">
<title>src/core/core.hpp</title>
<polygon fill="white" stroke="transparent" points="-4,4 -4,-259 552.23,-259 552.23,4 -4,4"/>
<!-- Node1 -->
<g id="node1" class="node">
<title>Node1</title>
<g id="a_node1"><a xlink:title=" ">
<polygon fill="#bfbfbf" stroke="black" points="238.5,-235.5 238.5,-254.5 338.5,-254.5 338.5,-235.5 238.5,-235.5"/>
<text text-anchor="middle" x="288.5" y="-242.5" font-family="Helvetica,sans-Serif" font-size="10.00">src/core/core.hpp</text>
</a>
</g>
</g>
<!-- Node2 -->
<g id="node2" class="node">
<title>Node2</title>
<g id="a_node2"><a xlink:href="core_2callbacks_8hpp.html" target="_top" xlink:title=" ">
<polygon fill="white" stroke="black" points="150,-179.5 150,-198.5 233,-198.5 233,-179.5 150,-179.5"/>
<text text-anchor="middle" x="191.5" y="-186.5" font-family="Helvetica,sans-Serif" font-size="10.00">callbacks.hpp</text>
</a>
</g>
</g>
<!-- Node1&#45;&gt;Node2 -->
<g id="edge1" class="edge">
<title>Node1&#45;&gt;Node2</title>
<path fill="none" stroke="midnightblue" d="M272.92,-235.32C257.5,-226.74 233.69,-213.49 215.79,-203.52"/>
<polygon fill="midnightblue" stroke="midnightblue" points="217.49,-200.46 207.05,-198.65 214.08,-206.58 217.49,-200.46"/>
</g>
<!-- Node14 -->
<g id="node7" class="node">
<title>Node14</title>
<g id="a_node7"><a xlink:href="control_8hpp.html" target="_top" xlink:title=" ">
<polygon fill="white" stroke="red" points="249.5,-123.5 249.5,-142.5 335.5,-142.5 335.5,-123.5 249.5,-123.5"/>
<text text-anchor="middle" x="292.5" y="-130.5" font-family="Helvetica,sans-Serif" font-size="10.00">ctl/control.hpp</text>
</a>
</g>
</g>
<!-- Node1&#45;&gt;Node14 -->
<g id="edge10" class="edge">
<title>Node1&#45;&gt;Node14</title>
<path fill="none" stroke="midnightblue" d="M288.81,-235.37C289.46,-217.62 290.95,-176.67 291.82,-152.6"/>
<polygon fill="midnightblue" stroke="midnightblue" points="295.32,-152.71 292.19,-142.59 288.33,-152.46 295.32,-152.71"/>
</g>
<!-- Node21 -->
<g id="node8" class="node">
<title>Node21</title>
<g id="a_node8"><a xlink:href="metrics_8hpp.html" target="_top" xlink:title=" ">
<polygon fill="white" stroke="red" points="0,-123.5 0,-142.5 95,-142.5 95,-123.5 0,-123.5"/>
<text text-anchor="middle" x="47.5" y="-130.5" font-family="Helvetica,sans-Serif" font-size="10.00">mtr/metrics.hpp</text>
</a>
</g>
</g>
<!-- Node1&#45;&gt;Node21 -->
<g id="edge19" class="edge">
<title>Node1&#45;&gt;Node21</title>
<path fill="none" stroke="midnightblue" d="M248.59,-235.48C218.05,-228.12 175.4,-215.97 140.5,-199 112.34,-185.3 83.28,-163.55 65.31,-149.03"/>
<polygon fill="midnightblue" stroke="midnightblue" points="67.38,-146.2 57.43,-142.55 62.93,-151.6 67.38,-146.2"/>
</g>
<!-- Node29 -->
<g id="node9" class="node">
<title>Node29</title>
<g id="a_node9"><a xlink:href="indication_8hpp.html" target="_top" xlink:title=" ">
<polygon fill="white" stroke="black" points="429.5,-123.5 429.5,-142.5 539.5,-142.5 539.5,-123.5 429.5,-123.5"/>
<text text-anchor="middle" x="484.5" y="-130.5" font-family="Helvetica,sans-Serif" font-size="10.00">mon/indication.hpp</text>
</a>
</g>
</g>
<!-- Node1&#45;&gt;Node29 -->
<g id="edge11" class="edge">
<title>Node1&#45;&gt;Node29</title>
<path fill="none" stroke="midnightblue" d="M333.33,-235.45C361.41,-228.65 397.46,-217.19 425.5,-199 444.98,-186.36 462.17,-165.74 472.9,-151.12"/>
<polygon fill="midnightblue" stroke="midnightblue" points="475.79,-153.1 478.71,-142.91 470.07,-149.05 475.79,-153.1"/>
</g>
<!-- Node31 -->
<g id="node11" class="node">
<title>Node31</title>
<g id="a_node11"><a xlink:href="monitor_8hpp.html" target="_top" xlink:title=" ">
<polygon fill="white" stroke="black" points="316.5,-179.5 316.5,-198.5 416.5,-198.5 416.5,-179.5 316.5,-179.5"/>
<text text-anchor="middle" x="366.5" y="-186.5" font-family="Helvetica,sans-Serif" font-size="10.00">mon/monitor.hpp</text>
</a>
</g>
</g>
<!-- Node1&#45;&gt;Node31 -->
<g id="edge14" class="edge">
<title>Node1&#45;&gt;Node31</title>
<path fill="none" stroke="midnightblue" d="M301.03,-235.32C313.09,-226.98 331.53,-214.21 345.77,-204.35"/>
<polygon fill="midnightblue" stroke="midnightblue" points="347.77,-207.22 354,-198.65 343.78,-201.47 347.77,-207.22"/>
</g>
<!-- Node3 -->
<g id="node3" class="node">
<title>Node3</title>
<g id="a_node3"><a xlink:href="converter_8hpp.html" target="_top" xlink:title=" ">
<polygon fill="white" stroke="red" points="123.5,-62 123.5,-81 227.5,-81 227.5,-62 123.5,-62"/>
<text text-anchor="middle" x="175.5" y="-69" font-family="Helvetica,sans-Serif" font-size="10.00">cnv/converter.hpp</text>
</a>
</g>
</g>
<!-- Node2&#45;&gt;Node3 -->
<g id="edge2" class="edge">
<title>Node2&#45;&gt;Node3</title>
<path fill="none" stroke="midnightblue" d="M176.84,-179.4C165.09,-171.58 149.47,-158.86 142.5,-143 134.23,-124.18 147.44,-102.83 159.53,-88.6"/>
<polygon fill="midnightblue" stroke="midnightblue" points="162.2,-90.87 166.34,-81.12 157.02,-86.16 162.2,-90.87"/>
</g>
<!-- Node6 -->
<g id="node4" class="node">
<title>Node6</title>
<g id="a_node4"><a xlink:href="utils_8hpp.html" target="_top" xlink:title=" ">
<polygon fill="white" stroke="black" points="152,-123.5 152,-142.5 231,-142.5 231,-123.5 152,-123.5"/>
<text text-anchor="middle" x="191.5" y="-130.5" font-family="Helvetica,sans-Serif" font-size="10.00">cnv/utils.hpp</text>
</a>
</g>
</g>
<!-- Node2&#45;&gt;Node6 -->
<g id="edge3" class="edge">
<title>Node2&#45;&gt;Node6</title>
<path fill="none" stroke="midnightblue" d="M191.5,-179.08C191.5,-172.01 191.5,-161.86 191.5,-152.99"/>
<polygon fill="midnightblue" stroke="midnightblue" points="195,-152.75 191.5,-142.75 188,-152.75 195,-152.75"/>
</g>
<!-- Node2&#45;&gt;Node14 -->
<g id="edge7" class="edge">
<title>Node2&#45;&gt;Node14</title>
<path fill="none" stroke="midnightblue" d="M207.73,-179.32C223.85,-170.7 248.8,-157.36 267.46,-147.39"/>
<polygon fill="midnightblue" stroke="midnightblue" points="269.14,-150.46 276.31,-142.65 265.84,-144.28 269.14,-150.46"/>
</g>
<!-- Node2&#45;&gt;Node21 -->
<g id="edge8" class="edge">
<title>Node2&#45;&gt;Node21</title>
<path fill="none" stroke="midnightblue" d="M168.68,-179.44C144.67,-170.44 106.67,-156.19 79.63,-146.05"/>
<polygon fill="midnightblue" stroke="midnightblue" points="80.8,-142.75 70.21,-142.52 78.34,-149.3 80.8,-142.75"/>
</g>
<!-- Node6&#45;&gt;Node3 -->
<g id="edge6" class="edge">
<title>Node6&#45;&gt;Node3</title>
<path fill="none" stroke="midnightblue" d="M189.21,-123.48C186.93,-114.99 183.35,-101.7 180.43,-90.82"/>
<polygon fill="midnightblue" stroke="midnightblue" points="183.76,-89.76 177.79,-81.01 177.01,-91.57 183.76,-89.76"/>
</g>
<!-- Node7 -->
<g id="node5" class="node">
<title>Node7</title>
<g id="a_node5"><a xlink:href="drv__interfaces_8hpp.html" target="_top" xlink:title=" ">
<polygon fill="white" stroke="red" points="245.5,-62 245.5,-81 379.5,-81 379.5,-62 245.5,-62"/>
<text text-anchor="middle" x="312.5" y="-69" font-family="Helvetica,sans-Serif" font-size="10.00">base/drv_interfaces.hpp</text>
</a>
</g>
</g>
<!-- Node6&#45;&gt;Node7 -->
<g id="edge4" class="edge">
<title>Node6&#45;&gt;Node7</title>
<path fill="none" stroke="midnightblue" d="M208.84,-123.48C229.05,-113.53 262.69,-96.99 286.14,-85.46"/>
<polygon fill="midnightblue" stroke="midnightblue" points="287.77,-88.56 295.2,-81.01 284.68,-82.28 287.77,-88.56"/>
</g>
<!-- Node8 -->
<g id="node6" class="node">
<title>Node8</title>
<g id="a_node6"><a xlink:href="base_2base_8hpp.html" target="_top" xlink:title=" ">
<polygon fill="white" stroke="red" points="282,-0.5 282,-19.5 343,-19.5 343,-0.5 282,-0.5"/>
<text text-anchor="middle" x="312.5" y="-7.5" font-family="Helvetica,sans-Serif" font-size="10.00">base.hpp</text>
</a>
</g>
</g>
<!-- Node7&#45;&gt;Node8 -->
<g id="edge5" class="edge">
<title>Node7&#45;&gt;Node8</title>
<path fill="none" stroke="midnightblue" d="M312.5,-61.98C312.5,-53.58 312.5,-40.48 312.5,-29.66"/>
<polygon fill="midnightblue" stroke="midnightblue" points="316,-29.51 312.5,-19.51 309,-29.51 316,-29.51"/>
</g>
<!-- Node21&#45;&gt;Node8 -->
<g id="edge9" class="edge">
<title>Node21&#45;&gt;Node8</title>
<path fill="none" stroke="midnightblue" d="M52.52,-123.36C62.29,-107.37 85.46,-73.24 114.5,-56 163.54,-26.88 229.68,-16.59 271.71,-12.97"/>
<polygon fill="midnightblue" stroke="midnightblue" points="272.16,-16.44 281.86,-12.18 271.62,-9.46 272.16,-16.44"/>
</g>
<!-- Node29&#45;&gt;Node8 -->
<g id="edge12" class="edge">
<title>Node29&#45;&gt;Node8</title>
<path fill="none" stroke="midnightblue" d="M502.89,-123.47C516.6,-116 534.31,-103.71 542.5,-87 548.56,-74.63 551.26,-66.64 542.5,-56 519.02,-27.48 413.12,-16.78 353.54,-12.97"/>
<polygon fill="midnightblue" stroke="midnightblue" points="353.53,-9.46 343.34,-12.35 353.11,-16.45 353.53,-9.46"/>
</g>
<!-- Node30 -->
<g id="node10" class="node">
<title>Node30</title>
<g id="a_node10"><a xlink:title=" ">
<polygon fill="white" stroke="#bfbfbf" points="397.5,-56.5 397.5,-86.5 533.5,-86.5 533.5,-56.5 397.5,-56.5"/>
<text text-anchor="start" x="405.5" y="-74.5" font-family="Helvetica,sans-Serif" font-size="10.00">emlabcpp/static_circular</text>
<text text-anchor="middle" x="465.5" y="-63.5" font-family="Helvetica,sans-Serif" font-size="10.00">_buffer.h</text>
</a>
</g>
</g>
<!-- Node29&#45;&gt;Node30 -->
<g id="edge13" class="edge">
<title>Node29&#45;&gt;Node30</title>
<path fill="none" stroke="midnightblue" d="M481.78,-123.48C479.49,-116.32 476.12,-105.75 473.03,-96.08"/>
<polygon fill="midnightblue" stroke="midnightblue" points="476.35,-94.98 469.98,-86.52 469.69,-97.11 476.35,-94.98"/>
</g>
<!-- Node31&#45;&gt;Node3 -->
<g id="edge16" class="edge">
<title>Node31&#45;&gt;Node3</title>
<path fill="none" stroke="midnightblue" d="M366,-179.08C364.74,-165.14 360.28,-138.22 344.5,-123 335.36,-114.19 267.15,-95.6 220.23,-83.6"/>
<polygon fill="midnightblue" stroke="midnightblue" points="220.83,-80.14 210.28,-81.07 219.11,-86.93 220.83,-80.14"/>
</g>
<!-- Node31&#45;&gt;Node7 -->
<g id="edge15" class="edge">
<title>Node31&#45;&gt;Node7</title>
<path fill="none" stroke="midnightblue" d="M371.23,-179.11C377.44,-166.12 386.56,-141.5 377.5,-123 369.67,-107 354.04,-94.6 340.08,-86.1"/>
<polygon fill="midnightblue" stroke="midnightblue" points="341.66,-82.97 331.24,-81.07 338.2,-89.06 341.66,-82.97"/>
</g>
<!-- Node31&#45;&gt;Node14 -->
<g id="edge17" class="edge">
<title>Node31&#45;&gt;Node14</title>
<path fill="none" stroke="midnightblue" d="M354.61,-179.32C343.35,-171.11 326.21,-158.6 312.79,-148.81"/>
<polygon fill="midnightblue" stroke="midnightblue" points="314.75,-145.9 304.61,-142.83 310.62,-151.56 314.75,-145.9"/>
</g>
<!-- Node31&#45;&gt;Node29 -->
<g id="edge18" class="edge">
<title>Node31&#45;&gt;Node29</title>
<path fill="none" stroke="midnightblue" d="M385.2,-179.44C404.44,-170.64 434.65,-156.81 456.7,-146.72"/>
<polygon fill="midnightblue" stroke="midnightblue" points="458.25,-149.86 465.89,-142.52 455.34,-143.5 458.25,-149.86"/>
</g>
</g>
</svg>
