<?xml version="1.0" encoding="UTF-8" standalone="no"?>
<!DOCTYPE svg PUBLIC "-//W3C//DTD SVG 1.1//EN"
 "http://www.w3.org/Graphics/SVG/1.1/DTD/svg11.dtd">
<!-- Generated by graphviz version 2.43.0 (0)
 -->
<!-- Title: src/fw/core.hpp Pages: 1 -->
<svg width="827pt" height="319pt"
 viewBox="0.00 0.00 827.22 319.00" xmlns="http://www.w3.org/2000/svg" xmlns:xlink="http://www.w3.org/1999/xlink">
<g id="graph0" class="graph" transform="scale(1 1) rotate(0) translate(4 315)">
<title>src/fw/core.hpp</title>
<polygon fill="white" stroke="transparent" points="-4,4 -4,-315 823.22,-315 823.22,4 -4,4"/>
<!-- Node1 -->
<g id="node1" class="node">
<title>Node1</title>
<g id="a_node1"><a xlink:title=" ">
<polygon fill="#bfbfbf" stroke="black" points="487.22,-291.5 487.22,-310.5 577.22,-310.5 577.22,-291.5 487.22,-291.5"/>
<text text-anchor="middle" x="532.22" y="-298.5" font-family="Helvetica,sans-Serif" font-size="10.00">src/fw/core.hpp</text>
</a>
</g>
</g>
<!-- Node2 -->
<g id="node2" class="node">
<title>Node2</title>
<g id="a_node2"><a xlink:href="control_8hpp.html" target="_top" xlink:title=" ">
<polygon fill="white" stroke="black" points="88.72,-179.5 88.72,-198.5 159.72,-198.5 159.72,-179.5 88.72,-179.5"/>
<text text-anchor="middle" x="124.22" y="-186.5" font-family="Helvetica,sans-Serif" font-size="10.00">control.hpp</text>
</a>
</g>
</g>
<!-- Node1&#45;&gt;Node2 -->
<g id="edge1" class="edge">
<title>Node1&#45;&gt;Node2</title>
<path fill="none" stroke="midnightblue" d="M486.96,-294.57C436.94,-287.92 354.3,-275.01 285.22,-255 236.89,-241 183.13,-217.62 151.57,-203.04"/>
<polygon fill="midnightblue" stroke="midnightblue" points="152.68,-199.7 142.14,-198.65 149.73,-206.05 152.68,-199.7"/>
</g>
<!-- Node16 -->
<g id="node9" class="node">
<title>Node16</title>
<g id="a_node9"><a xlink:href="callbacks_8hpp.html" target="_top" xlink:title=" ">
<polygon fill="white" stroke="black" points="294.22,-235.5 294.22,-254.5 392.22,-254.5 392.22,-235.5 294.22,-235.5"/>
<text text-anchor="middle" x="343.22" y="-242.5" font-family="Helvetica,sans-Serif" font-size="10.00">fw/callbacks.hpp</text>
</a>
</g>
</g>
<!-- Node1&#45;&gt;Node16 -->
<g id="edge11" class="edge">
<title>Node1&#45;&gt;Node16</title>
<path fill="none" stroke="midnightblue" d="M502.27,-291.44C470.06,-282.24 418.69,-267.56 383.08,-257.39"/>
<polygon fill="midnightblue" stroke="midnightblue" points="383.6,-253.9 373.03,-254.52 381.68,-260.63 383.6,-253.9"/>
</g>
<!-- Node26 -->
<g id="node13" class="node">
<title>Node26</title>
<g id="a_node13"><a xlink:href="metrics_8hpp.html" target="_top" xlink:title=" ">
<polygon fill="white" stroke="red" points="459.22,-179.5 459.22,-198.5 533.22,-198.5 533.22,-179.5 459.22,-179.5"/>
<text text-anchor="middle" x="496.22" y="-186.5" font-family="Helvetica,sans-Serif" font-size="10.00">metrics.hpp</text>
</a>
</g>
</g>
<!-- Node1&#45;&gt;Node26 -->
<g id="edge31" class="edge">
<title>Node1&#45;&gt;Node26</title>
<path fill="none" stroke="midnightblue" d="M529.04,-291.41C525.73,-282.38 520.45,-267.75 516.22,-255 511.05,-239.41 505.6,-221.58 501.69,-208.54"/>
<polygon fill="midnightblue" stroke="midnightblue" points="505.02,-207.46 498.82,-198.87 498.31,-209.45 505.02,-207.46"/>
</g>
<!-- Node35 -->
<g id="node15" class="node">
<title>Node35</title>
<g id="a_node15"><a xlink:href="monitor_8hpp.html" target="_top" xlink:title=" ">
<polygon fill="white" stroke="black" points="524.72,-235.5 524.72,-254.5 613.72,-254.5 613.72,-235.5 524.72,-235.5"/>
<text text-anchor="middle" x="569.22" y="-242.5" font-family="Helvetica,sans-Serif" font-size="10.00">fw/monitor.hpp</text>
</a>
</g>
</g>
<!-- Node1&#45;&gt;Node35 -->
<g id="edge21" class="edge">
<title>Node1&#45;&gt;Node35</title>
<path fill="none" stroke="midnightblue" d="M538.33,-291.08C543.5,-283.53 551.07,-272.49 557.41,-263.23"/>
<polygon fill="midnightblue" stroke="midnightblue" points="560.46,-264.98 563.22,-254.75 554.68,-261.02 560.46,-264.98"/>
</g>
<!-- Node36 -->
<g id="node16" class="node">
<title>Node36</title>
<g id="a_node16"><a xlink:href="indication_8hpp.html" target="_top" xlink:title=" ">
<polygon fill="white" stroke="red" points="627.22,-179.5 627.22,-198.5 713.22,-198.5 713.22,-179.5 627.22,-179.5"/>
<text text-anchor="middle" x="670.22" y="-186.5" font-family="Helvetica,sans-Serif" font-size="10.00">indication.hpp</text>
</a>
</g>
</g>
<!-- Node1&#45;&gt;Node36 -->
<g id="edge30" class="edge">
<title>Node1&#45;&gt;Node36</title>
<path fill="none" stroke="midnightblue" d="M557.3,-291.42C576.74,-283.92 603.57,-271.62 623.22,-255 639.12,-241.56 652.47,-221.65 660.84,-207.41"/>
<polygon fill="midnightblue" stroke="midnightblue" points="663.94,-209.04 665.8,-198.61 657.84,-205.6 663.94,-209.04"/>
</g>
<!-- Node38 -->
<g id="node17" class="node">
<title>Node38</title>
<g id="a_node17"><a xlink:href="util_8hpp.html" target="_top" xlink:title=" ">
<polygon fill="white" stroke="black" points="707.22,-235.5 707.22,-254.5 775.22,-254.5 775.22,-235.5 707.22,-235.5"/>
<text text-anchor="middle" x="741.22" y="-242.5" font-family="Helvetica,sans-Serif" font-size="10.00">fw/util.hpp</text>
</a>
</g>
</g>
<!-- Node1&#45;&gt;Node38 -->
<g id="edge27" class="edge">
<title>Node1&#45;&gt;Node38</title>
<path fill="none" stroke="midnightblue" d="M565.34,-291.44C601.34,-282.14 658.99,-267.25 698.41,-257.06"/>
<polygon fill="midnightblue" stroke="midnightblue" points="699.45,-260.41 708.26,-254.52 697.7,-253.63 699.45,-260.41"/>
</g>
<!-- Node3 -->
<g id="node3" class="node">
<title>Node3</title>
<g id="a_node3"><a xlink:href="base_8hpp.html" target="_top" xlink:title=" ">
<polygon fill="white" stroke="red" points="303.72,-0.5 303.72,-19.5 364.72,-19.5 364.72,-0.5 303.72,-0.5"/>
<text text-anchor="middle" x="334.22" y="-7.5" font-family="Helvetica,sans-Serif" font-size="10.00">base.hpp</text>
</a>
</g>
</g>
<!-- Node2&#45;&gt;Node3 -->
<g id="edge2" class="edge">
<title>Node2&#45;&gt;Node3</title>
<path fill="none" stroke="midnightblue" d="M88.47,-185.09C60.67,-180.73 23.8,-169.89 5.22,-143 -2.61,-131.66 0,-124.75 5.22,-112 18.42,-79.71 29.25,-72.07 60.22,-56 100.13,-35.3 227.34,-20.87 293.45,-14.57"/>
<polygon fill="midnightblue" stroke="midnightblue" points="293.88,-18.04 303.51,-13.63 293.23,-11.07 293.88,-18.04"/>
</g>
<!-- Node10 -->
<g id="node4" class="node">
<title>Node10</title>
<g id="a_node4"><a xlink:href="ctl_2config_8hpp.html" target="_top" xlink:title=" ">
<polygon fill="white" stroke="black" points="14.22,-118 14.22,-137 96.22,-137 96.22,-118 14.22,-118"/>
<text text-anchor="middle" x="55.22" y="-125" font-family="Helvetica,sans-Serif" font-size="10.00">ctl/config.hpp</text>
</a>
</g>
</g>
<!-- Node2&#45;&gt;Node10 -->
<g id="edge3" class="edge">
<title>Node2&#45;&gt;Node10</title>
<path fill="none" stroke="midnightblue" d="M114.33,-179.48C103.57,-170.2 86.15,-155.17 73,-143.83"/>
<polygon fill="midnightblue" stroke="midnightblue" points="74.95,-140.89 65.09,-137.01 70.38,-146.19 74.95,-140.89"/>
</g>
<!-- Node11 -->
<g id="node5" class="node">
<title>Node11</title>
<g id="a_node5"><a xlink:href="pid__module_8hpp.html" target="_top" xlink:title=" ">
<polygon fill="white" stroke="red" points="69.22,-56.5 69.22,-75.5 179.22,-75.5 179.22,-56.5 69.22,-56.5"/>
<text text-anchor="middle" x="124.22" y="-63.5" font-family="Helvetica,sans-Serif" font-size="10.00">ctl/pid_module.hpp</text>
</a>
</g>
</g>
<!-- Node2&#45;&gt;Node11 -->
<g id="edge9" class="edge">
<title>Node2&#45;&gt;Node11</title>
<path fill="none" stroke="midnightblue" d="M124.22,-179.3C124.22,-159.85 124.22,-112.49 124.22,-85.9"/>
<polygon fill="midnightblue" stroke="midnightblue" points="127.72,-85.62 124.22,-75.62 120.72,-85.62 127.72,-85.62"/>
</g>
<!-- Node13 -->
<g id="node6" class="node">
<title>Node13</title>
<g id="a_node6"><a xlink:href="linear__transition__regulator_8hpp.html" target="_top" xlink:title=" ">
<polygon fill="white" stroke="black" points="152.72,-112.5 152.72,-142.5 263.72,-142.5 263.72,-112.5 152.72,-112.5"/>
<text text-anchor="start" x="160.72" y="-130.5" font-family="Helvetica,sans-Serif" font-size="10.00">ctl/linear_transition</text>
<text text-anchor="middle" x="208.22" y="-119.5" font-family="Helvetica,sans-Serif" font-size="10.00">_regulator.hpp</text>
</a>
</g>
</g>
<!-- Node2&#45;&gt;Node13 -->
<g id="edge6" class="edge">
<title>Node2&#45;&gt;Node13</title>
<path fill="none" stroke="midnightblue" d="M136.25,-179.48C147.63,-171.42 165.13,-159.02 180.02,-148.47"/>
<polygon fill="midnightblue" stroke="midnightblue" points="182.29,-151.16 188.42,-142.52 178.24,-145.45 182.29,-151.16"/>
</g>
<!-- Node15 -->
<g id="node8" class="node">
<title>Node15</title>
<g id="a_node8"><a xlink:title=" ">
<polygon fill="white" stroke="#bfbfbf" points="281.72,-118 281.72,-137 332.72,-137 332.72,-118 281.72,-118"/>
<text text-anchor="middle" x="307.22" y="-125" font-family="Helvetica,sans-Serif" font-size="10.00">variant</text>
</a>
</g>
</g>
<!-- Node2&#45;&gt;Node15 -->
<g id="edge10" class="edge">
<title>Node2&#45;&gt;Node15</title>
<path fill="none" stroke="midnightblue" d="M155.41,-179.48C185.56,-171.01 232.4,-157.26 272.22,-143 274.08,-142.33 275.98,-141.63 277.89,-140.89"/>
<polygon fill="midnightblue" stroke="midnightblue" points="279.37,-144.07 287.36,-137.12 276.78,-137.57 279.37,-144.07"/>
</g>
<!-- Node10&#45;&gt;Node11 -->
<g id="edge4" class="edge">
<title>Node10&#45;&gt;Node11</title>
<path fill="none" stroke="midnightblue" d="M65.11,-117.98C75.87,-108.7 93.29,-93.67 106.44,-82.33"/>
<polygon fill="midnightblue" stroke="midnightblue" points="109.06,-84.69 114.35,-75.51 104.49,-79.39 109.06,-84.69"/>
</g>
<!-- Node11&#45;&gt;Node3 -->
<g id="edge5" class="edge">
<title>Node11&#45;&gt;Node3</title>
<path fill="none" stroke="midnightblue" d="M157.49,-56.44C194.41,-46.95 253.99,-31.63 293.62,-21.44"/>
<polygon fill="midnightblue" stroke="midnightblue" points="294.68,-24.78 303.49,-18.9 292.94,-18 294.68,-24.78"/>
</g>
<!-- Node13&#45;&gt;Node3 -->
<g id="edge7" class="edge">
<title>Node13&#45;&gt;Node3</title>
<path fill="none" stroke="midnightblue" d="M219.48,-112.47C231.7,-97.65 252.15,-73.98 272.22,-56 284.81,-44.71 300.19,-33.54 312.48,-25.15"/>
<polygon fill="midnightblue" stroke="midnightblue" points="314.44,-28.05 320.8,-19.57 310.54,-22.23 314.44,-28.05"/>
</g>
<!-- Node14 -->
<g id="node7" class="node">
<title>Node14</title>
<g id="a_node7"><a xlink:title=" ">
<polygon fill="white" stroke="#bfbfbf" points="281.22,-56.5 281.22,-75.5 345.22,-75.5 345.22,-56.5 281.22,-56.5"/>
<text text-anchor="middle" x="313.22" y="-63.5" font-family="Helvetica,sans-Serif" font-size="10.00">algorithm</text>
</a>
</g>
</g>
<!-- Node13&#45;&gt;Node14 -->
<g id="edge8" class="edge">
<title>Node13&#45;&gt;Node14</title>
<path fill="none" stroke="midnightblue" d="M233.1,-112.4C249.93,-102.86 272.06,-90.32 288.79,-80.84"/>
<polygon fill="midnightblue" stroke="midnightblue" points="290.97,-83.63 297.94,-75.66 287.52,-77.54 290.97,-83.63"/>
</g>
<!-- Node16&#45;&gt;Node2 -->
<g id="edge12" class="edge">
<title>Node16&#45;&gt;Node2</title>
<path fill="none" stroke="midnightblue" d="M308.52,-235.44C270.64,-226.1 209.87,-211.12 168.56,-200.93"/>
<polygon fill="midnightblue" stroke="midnightblue" points="169.31,-197.51 158.76,-198.52 167.63,-204.31 169.31,-197.51"/>
</g>
<!-- Node17 -->
<g id="node10" class="node">
<title>Node17</title>
<g id="a_node10"><a xlink:href="converter_8hpp.html" target="_top" xlink:title=" ">
<polygon fill="white" stroke="red" points="350.72,-118 350.72,-137 433.72,-137 433.72,-118 350.72,-118"/>
<text text-anchor="middle" x="392.22" y="-125" font-family="Helvetica,sans-Serif" font-size="10.00">converter.hpp</text>
</a>
</g>
</g>
<!-- Node16&#45;&gt;Node17 -->
<g id="edge13" class="edge">
<title>Node16&#45;&gt;Node17</title>
<path fill="none" stroke="midnightblue" d="M293.92,-238.19C245.04,-230.36 180.95,-213.27 207.22,-179 244.74,-130.06 281.78,-159.43 341.22,-143 345,-141.95 348.94,-140.85 352.88,-139.75"/>
<polygon fill="midnightblue" stroke="midnightblue" points="353.9,-143.09 362.58,-137.01 352,-136.36 353.9,-143.09"/>
</g>
<!-- Node22 -->
<g id="node11" class="node">
<title>Node22</title>
<g id="a_node11"><a xlink:href="conversion_8hpp.html" target="_top" xlink:title=" ">
<polygon fill="white" stroke="black" points="216.72,-179.5 216.72,-198.5 321.72,-198.5 321.72,-179.5 216.72,-179.5"/>
<text text-anchor="middle" x="269.22" y="-186.5" font-family="Helvetica,sans-Serif" font-size="10.00">fw/conversion.hpp</text>
</a>
</g>
</g>
<!-- Node16&#45;&gt;Node22 -->
<g id="edge14" class="edge">
<title>Node16&#45;&gt;Node22</title>
<path fill="none" stroke="midnightblue" d="M331.33,-235.32C320.07,-227.11 302.93,-214.6 289.51,-204.81"/>
<polygon fill="midnightblue" stroke="midnightblue" points="291.47,-201.9 281.33,-198.83 287.34,-207.56 291.47,-201.9"/>
</g>
<!-- Node16&#45;&gt;Node26 -->
<g id="edge18" class="edge">
<title>Node16&#45;&gt;Node26</title>
<path fill="none" stroke="midnightblue" d="M367.46,-235.44C393.09,-226.4 433.71,-212.06 462.46,-201.92"/>
<polygon fill="midnightblue" stroke="midnightblue" points="463.82,-205.15 472.09,-198.52 461.5,-198.54 463.82,-205.15"/>
</g>
<!-- Node34 -->
<g id="node14" class="node">
<title>Node34</title>
<g id="a_node14"><a xlink:title=" ">
<polygon fill="white" stroke="#bfbfbf" points="339.72,-179.5 339.72,-198.5 440.72,-198.5 440.72,-179.5 339.72,-179.5"/>
<text text-anchor="middle" x="390.22" y="-186.5" font-family="Helvetica,sans-Serif" font-size="10.00">stm32g4xx_hal.h</text>
</a>
</g>
</g>
<!-- Node16&#45;&gt;Node34 -->
<g id="edge20" class="edge">
<title>Node16&#45;&gt;Node34</title>
<path fill="none" stroke="midnightblue" d="M350.98,-235.08C357.76,-227.3 367.76,-215.8 375.97,-206.37"/>
<polygon fill="midnightblue" stroke="midnightblue" points="378.68,-208.59 382.6,-198.75 373.4,-204 378.68,-208.59"/>
</g>
<!-- Node22&#45;&gt;Node17 -->
<g id="edge15" class="edge">
<title>Node22&#45;&gt;Node17</title>
<path fill="none" stroke="midnightblue" d="M286.84,-179.48C307.39,-169.53 341.58,-152.99 365.43,-141.46"/>
<polygon fill="midnightblue" stroke="midnightblue" points="367.15,-144.51 374.63,-137.01 364.1,-138.21 367.15,-144.51"/>
</g>
<!-- Node23 -->
<g id="node12" class="node">
<title>Node23</title>
<g id="a_node12"><a xlink:href="drv__interfaces_8hpp.html" target="_top" xlink:title=" ">
<polygon fill="white" stroke="red" points="451.72,-118 451.72,-137 558.72,-137 558.72,-118 451.72,-118"/>
<text text-anchor="middle" x="505.22" y="-125" font-family="Helvetica,sans-Serif" font-size="10.00">drv_interfaces.hpp</text>
</a>
</g>
</g>
<!-- Node22&#45;&gt;Node23 -->
<g id="edge16" class="edge">
<title>Node22&#45;&gt;Node23</title>
<path fill="none" stroke="midnightblue" d="M303.03,-179.48C344.74,-168.96 415.73,-151.06 461.53,-139.51"/>
<polygon fill="midnightblue" stroke="midnightblue" points="462.63,-142.85 471.47,-137.01 460.92,-136.06 462.63,-142.85"/>
</g>
<!-- Node23&#45;&gt;Node3 -->
<g id="edge17" class="edge">
<title>Node23&#45;&gt;Node3</title>
<path fill="none" stroke="midnightblue" d="M492.37,-117.82C463.15,-98.09 391.51,-49.7 355.55,-25.41"/>
<polygon fill="midnightblue" stroke="midnightblue" points="357.47,-22.48 347.22,-19.78 353.55,-28.28 357.47,-22.48"/>
</g>
<!-- Node26&#45;&gt;Node3 -->
<g id="edge19" class="edge">
<title>Node26&#45;&gt;Node3</title>
<path fill="none" stroke="midnightblue" d="M521.72,-179.47C538.21,-172.48 558.36,-160.79 568.22,-143 574.9,-130.95 575.79,-123.51 568.22,-112 525.17,-46.53 429.71,-23.31 374.94,-15.21"/>
<polygon fill="midnightblue" stroke="midnightblue" points="375.27,-11.72 364.89,-13.83 374.32,-18.66 375.27,-11.72"/>
</g>
<!-- Node35&#45;&gt;Node2 -->
<g id="edge22" class="edge">
<title>Node35&#45;&gt;Node2</title>
<path fill="none" stroke="midnightblue" d="M524.51,-238.58C439.48,-228.26 255.3,-205.91 169.68,-195.52"/>
<polygon fill="midnightblue" stroke="midnightblue" points="170.09,-192.04 159.74,-194.31 169.25,-198.99 170.09,-192.04"/>
</g>
<!-- Node35&#45;&gt;Node17 -->
<g id="edge23" class="edge">
<title>Node35&#45;&gt;Node17</title>
<path fill="none" stroke="midnightblue" d="M567.91,-235.11C565.41,-221.21 558.66,-194.34 542.22,-179 533.87,-171.21 473.16,-152.25 431.58,-139.91"/>
<polygon fill="midnightblue" stroke="midnightblue" points="432.57,-136.55 421.98,-137.08 430.58,-143.27 432.57,-136.55"/>
</g>
<!-- Node35&#45;&gt;Node23 -->
<g id="edge24" class="edge">
<title>Node35&#45;&gt;Node23</title>
<path fill="none" stroke="midnightblue" d="M572.79,-235.45C577.62,-222.47 584.61,-197.36 575.22,-179 566.74,-162.43 550.01,-150.05 535.03,-141.69"/>
<polygon fill="midnightblue" stroke="midnightblue" points="536.51,-138.52 526.02,-137.01 533.28,-144.73 536.51,-138.52"/>
</g>
<!-- Node35&#45;&gt;Node36 -->
<g id="edge25" class="edge">
<title>Node35&#45;&gt;Node36</title>
<path fill="none" stroke="midnightblue" d="M585.45,-235.32C601.57,-226.7 626.52,-213.36 645.18,-203.39"/>
<polygon fill="midnightblue" stroke="midnightblue" points="646.86,-206.46 654.03,-198.65 643.56,-200.28 646.86,-206.46"/>
</g>
<!-- Node36&#45;&gt;Node3 -->
<g id="edge26" class="edge">
<title>Node36&#45;&gt;Node3</title>
<path fill="none" stroke="midnightblue" d="M663.95,-179.26C646.34,-155.37 593.69,-88.61 533.22,-56 482.92,-28.87 416.99,-18.07 375.1,-13.78"/>
<polygon fill="midnightblue" stroke="midnightblue" points="375.28,-10.28 364.99,-12.83 374.62,-17.25 375.28,-10.28"/>
</g>
<!-- Node38&#45;&gt;Node14 -->
<g id="edge28" class="edge">
<title>Node38&#45;&gt;Node14</title>
<path fill="none" stroke="midnightblue" d="M740.95,-235.32C740.08,-221.71 736.52,-195.23 722.22,-179 672.87,-123 639.69,-133.52 568.22,-112 495.13,-89.99 406.81,-77.38 355.62,-71.38"/>
<polygon fill="midnightblue" stroke="midnightblue" points="355.92,-67.89 345.59,-70.24 355.13,-74.85 355.92,-67.89"/>
</g>
<!-- Node39 -->
<g id="node18" class="node">
<title>Node39</title>
<g id="a_node18"><a xlink:title=" ">
<polygon fill="white" stroke="#bfbfbf" points="769.22,-179.5 769.22,-198.5 819.22,-198.5 819.22,-179.5 769.22,-179.5"/>
<text text-anchor="middle" x="794.22" y="-186.5" font-family="Helvetica,sans-Serif" font-size="10.00">cstring</text>
</a>
</g>
</g>
<!-- Node38&#45;&gt;Node39 -->
<g id="edge29" class="edge">
<title>Node38&#45;&gt;Node39</title>
<path fill="none" stroke="midnightblue" d="M749.97,-235.08C757.69,-227.22 769.12,-215.57 778.44,-206.08"/>
<polygon fill="midnightblue" stroke="midnightblue" points="781.12,-208.34 785.63,-198.75 776.13,-203.44 781.12,-208.34"/>
</g>
</g>
</svg>
