<?xml version="1.0" encoding="UTF-8" standalone="no"?>
<!DOCTYPE svg PUBLIC "-//W3C//DTD SVG 1.1//EN"
 "http://www.w3.org/Graphics/SVG/1.1/DTD/svg11.dtd">
<!-- Generated by graphviz version 2.43.0 (0)
 -->
<!-- Title: src/fw/core.hpp Pages: 1 -->
<svg width="1035pt" height="386pt"
 viewBox="0.00 0.00 1034.75 386.00" xmlns="http://www.w3.org/2000/svg" xmlns:xlink="http://www.w3.org/1999/xlink">
<g id="graph0" class="graph" transform="scale(1 1) rotate(0) translate(4 382)">
<title>src/fw/core.hpp</title>
<polygon fill="white" stroke="transparent" points="-4,4 -4,-382 1030.75,-382 1030.75,4 -4,4"/>
<!-- Node1 -->
<g id="node1" class="node">
<title>Node1</title>
<g id="a_node1"><a xlink:title=" ">
<polygon fill="#bfbfbf" stroke="black" points="400.75,-358.5 400.75,-377.5 490.75,-377.5 490.75,-358.5 400.75,-358.5"/>
<text text-anchor="middle" x="445.75" y="-365.5" font-family="Helvetica,sans-Serif" font-size="10.00">src/fw/core.hpp</text>
</a>
</g>
</g>
<!-- Node2 -->
<g id="node2" class="node">
<title>Node2</title>
<g id="a_node2"><a xlink:href="control_8hpp.html" target="_top" xlink:title=" ">
<polygon fill="white" stroke="black" points="769.25,-246.5 769.25,-265.5 840.25,-265.5 840.25,-246.5 769.25,-246.5"/>
<text text-anchor="middle" x="804.75" y="-253.5" font-family="Helvetica,sans-Serif" font-size="10.00">control.hpp</text>
</a>
</g>
</g>
<!-- Node1&#45;&gt;Node2 -->
<g id="edge1" class="edge">
<title>Node1&#45;&gt;Node2</title>
<path fill="none" stroke="midnightblue" d="M490.99,-360.66C535.43,-353.72 604.8,-341 662.75,-322 705.39,-308.02 752.24,-284.95 780.04,-270.39"/>
<polygon fill="midnightblue" stroke="midnightblue" points="781.84,-273.39 789.04,-265.62 778.56,-267.21 781.84,-273.39"/>
</g>
<!-- Node15 -->
<g id="node9" class="node">
<title>Node15</title>
<g id="a_node9"><a xlink:href="callbacks_8hpp.html" target="_top" xlink:title=" ">
<polygon fill="white" stroke="black" points="285.75,-302.5 285.75,-321.5 383.75,-321.5 383.75,-302.5 285.75,-302.5"/>
<text text-anchor="middle" x="334.75" y="-309.5" font-family="Helvetica,sans-Serif" font-size="10.00">fw/callbacks.hpp</text>
</a>
</g>
</g>
<!-- Node1&#45;&gt;Node15 -->
<g id="edge10" class="edge">
<title>Node1&#45;&gt;Node15</title>
<path fill="none" stroke="midnightblue" d="M427.92,-358.32C410.03,-349.62 382.28,-336.12 361.71,-326.11"/>
<polygon fill="midnightblue" stroke="midnightblue" points="363.06,-322.88 352.54,-321.65 360,-329.18 363.06,-322.88"/>
</g>
<!-- Node21 -->
<g id="node11" class="node">
<title>Node21</title>
<g id="a_node11"><a xlink:href="acquisition_8hpp.html" target="_top" xlink:title=" ">
<polygon fill="white" stroke="red" points="196.75,-185 196.75,-204 306.75,-204 306.75,-185 196.75,-185"/>
<text text-anchor="middle" x="251.75" y="-192" font-family="Helvetica,sans-Serif" font-size="10.00">drv/acquisition.hpp</text>
</a>
</g>
</g>
<!-- Node1&#45;&gt;Node21 -->
<g id="edge32" class="edge">
<title>Node1&#45;&gt;Node21</title>
<path fill="none" stroke="midnightblue" d="M400.55,-365.7C337.67,-361.08 226.68,-341.97 183.75,-266 170.68,-242.87 198.9,-221.71 222.87,-208.73"/>
<polygon fill="midnightblue" stroke="midnightblue" points="224.78,-211.69 232.09,-204.01 221.59,-205.45 224.78,-211.69"/>
</g>
<!-- Node27 -->
<g id="node15" class="node">
<title>Node27</title>
<g id="a_node15"><a xlink:href="hbridge_8hpp.html" target="_top" xlink:title=" ">
<polygon fill="white" stroke="red" points="13.25,-185 13.25,-204 106.25,-204 106.25,-185 13.25,-185"/>
<text text-anchor="middle" x="59.75" y="-192" font-family="Helvetica,sans-Serif" font-size="10.00">drv/hbridge.hpp</text>
</a>
</g>
</g>
<!-- Node1&#45;&gt;Node27 -->
<g id="edge33" class="edge">
<title>Node1&#45;&gt;Node27</title>
<path fill="none" stroke="midnightblue" d="M400.6,-365.17C351.48,-361.67 271.7,-351.51 209.75,-322 152.06,-294.52 98.37,-239.39 73.8,-211.88"/>
<polygon fill="midnightblue" stroke="midnightblue" points="76.36,-209.5 67.14,-204.3 71.11,-214.12 76.36,-209.5"/>
</g>
<!-- Node29 -->
<g id="node16" class="node">
<title>Node29</title>
<g id="a_node16"><a xlink:href="util_8hpp.html" target="_top" xlink:title=" ">
<polygon fill="white" stroke="red" points="0.75,-123.5 0.75,-142.5 68.75,-142.5 68.75,-123.5 0.75,-123.5"/>
<text text-anchor="middle" x="34.75" y="-130.5" font-family="Helvetica,sans-Serif" font-size="10.00">fw/util.hpp</text>
</a>
</g>
</g>
<!-- Node1&#45;&gt;Node29 -->
<g id="edge44" class="edge">
<title>Node1&#45;&gt;Node29</title>
<path fill="none" stroke="midnightblue" d="M400.73,-365.34C345.33,-362.02 249.2,-352.03 172.75,-322 88.88,-289.05 46.38,-289.39 3.75,-210 -6.83,-190.3 7.21,-166.19 19.67,-150.48"/>
<polygon fill="midnightblue" stroke="midnightblue" points="22.46,-152.6 26.25,-142.7 17.12,-148.07 22.46,-152.6"/>
</g>
<!-- Node33 -->
<g id="node18" class="node">
<title>Node33</title>
<g id="a_node18"><a xlink:href="metrics_8hpp.html" target="_top" xlink:title=" ">
<polygon fill="white" stroke="red" points="546.75,-246.5 546.75,-265.5 620.75,-265.5 620.75,-246.5 546.75,-246.5"/>
<text text-anchor="middle" x="583.75" y="-253.5" font-family="Helvetica,sans-Serif" font-size="10.00">metrics.hpp</text>
</a>
</g>
</g>
<!-- Node1&#45;&gt;Node33 -->
<g id="edge46" class="edge">
<title>Node1&#45;&gt;Node33</title>
<path fill="none" stroke="midnightblue" d="M468.41,-358.45C486.96,-350.75 513.23,-338.16 532.75,-322 549.27,-308.33 563.89,-288.46 573.19,-274.29"/>
<polygon fill="midnightblue" stroke="midnightblue" points="576.34,-275.86 578.74,-265.54 570.43,-272.11 576.34,-275.86"/>
</g>
<!-- Node40 -->
<g id="node19" class="node">
<title>Node40</title>
<g id="a_node19"><a xlink:href="leds_8hpp.html" target="_top" xlink:title=" ">
<polygon fill="white" stroke="black" points="390.25,-123.5 390.25,-142.5 481.25,-142.5 481.25,-123.5 390.25,-123.5"/>
<text text-anchor="middle" x="435.75" y="-130.5" font-family="Helvetica,sans-Serif" font-size="10.00">fw/drv/leds.hpp</text>
</a>
</g>
</g>
<!-- Node1&#45;&gt;Node40 -->
<g id="edge34" class="edge">
<title>Node1&#45;&gt;Node40</title>
<path fill="none" stroke="midnightblue" d="M454.18,-358.24C471.87,-338.78 510.32,-290.15 498.75,-246 489.1,-209.15 464.3,-171.64 448.85,-150.73"/>
<polygon fill="midnightblue" stroke="midnightblue" points="451.52,-148.46 442.68,-142.6 445.94,-152.69 451.52,-148.46"/>
</g>
<!-- Node41 -->
<g id="node20" class="node">
<title>Node41</title>
<g id="a_node20"><a xlink:href="monitor_8hpp.html" target="_top" xlink:title=" ">
<polygon fill="white" stroke="black" points="401.25,-246.5 401.25,-265.5 490.25,-265.5 490.25,-246.5 401.25,-246.5"/>
<text text-anchor="middle" x="445.75" y="-253.5" font-family="Helvetica,sans-Serif" font-size="10.00">fw/monitor.hpp</text>
</a>
</g>
</g>
<!-- Node1&#45;&gt;Node41 -->
<g id="edge39" class="edge">
<title>Node1&#45;&gt;Node41</title>
<path fill="none" stroke="midnightblue" d="M445.75,-358.37C445.75,-340.62 445.75,-299.67 445.75,-275.6"/>
<polygon fill="midnightblue" stroke="midnightblue" points="449.25,-275.59 445.75,-265.59 442.25,-275.59 449.25,-275.59"/>
</g>
<!-- Node42 -->
<g id="node21" class="node">
<title>Node42</title>
<g id="a_node21"><a xlink:href="indication_8hpp.html" target="_top" xlink:title=" ">
<polygon fill="white" stroke="red" points="575.75,-185 575.75,-204 661.75,-204 661.75,-185 575.75,-185"/>
<text text-anchor="middle" x="618.75" y="-192" font-family="Helvetica,sans-Serif" font-size="10.00">indication.hpp</text>
</a>
</g>
</g>
<!-- Node1&#45;&gt;Node42 -->
<g id="edge45" class="edge">
<title>Node1&#45;&gt;Node42</title>
<path fill="none" stroke="midnightblue" d="M488.06,-358.44C533.57,-346.61 602.99,-320.25 629.75,-266 637.86,-249.55 632.91,-228.55 627.3,-213.76"/>
<polygon fill="midnightblue" stroke="midnightblue" points="630.39,-212.08 623.26,-204.24 623.94,-214.82 630.39,-212.08"/>
</g>
<!-- Node3 -->
<g id="node3" class="node">
<title>Node3</title>
<g id="a_node3"><a xlink:href="base_8hpp.html" target="_top" xlink:title=" ">
<polygon fill="white" stroke="red" points="498.25,-62 498.25,-81 559.25,-81 559.25,-62 498.25,-62"/>
<text text-anchor="middle" x="528.75" y="-69" font-family="Helvetica,sans-Serif" font-size="10.00">base.hpp</text>
</a>
</g>
</g>
<!-- Node2&#45;&gt;Node3 -->
<g id="edge2" class="edge">
<title>Node2&#45;&gt;Node3</title>
<path fill="none" stroke="midnightblue" d="M826.23,-246.36C841.14,-239.09 859.86,-227.12 868.75,-210 875.1,-197.77 876.91,-190.1 868.75,-179 832.75,-130 651.54,-93.45 569.37,-79.13"/>
<polygon fill="midnightblue" stroke="midnightblue" points="569.84,-75.66 559.39,-77.41 568.65,-82.56 569.84,-75.66"/>
</g>
<!-- Node10 -->
<g id="node5" class="node">
<title>Node10</title>
<g id="a_node5"><a xlink:href="ctl_2config_8hpp.html" target="_top" xlink:title=" ">
<polygon fill="white" stroke="black" points="916.75,-185 916.75,-204 998.75,-204 998.75,-185 916.75,-185"/>
<text text-anchor="middle" x="957.75" y="-192" font-family="Helvetica,sans-Serif" font-size="10.00">ctl/config.hpp</text>
</a>
</g>
</g>
<!-- Node2&#45;&gt;Node10 -->
<g id="edge4" class="edge">
<title>Node2&#45;&gt;Node10</title>
<path fill="none" stroke="midnightblue" d="M826.67,-246.48C852.8,-236.31 896.66,-219.26 926.38,-207.7"/>
<polygon fill="midnightblue" stroke="midnightblue" points="927.82,-210.9 935.87,-204.01 925.28,-204.37 927.82,-210.9"/>
</g>
<!-- Node11 -->
<g id="node6" class="node">
<title>Node11</title>
<g id="a_node6"><a xlink:href="pid__module_8hpp.html" target="_top" xlink:title=" ">
<polygon fill="white" stroke="red" points="916.75,-123.5 916.75,-142.5 1026.75,-142.5 1026.75,-123.5 916.75,-123.5"/>
<text text-anchor="middle" x="971.75" y="-130.5" font-family="Helvetica,sans-Serif" font-size="10.00">ctl/pid_module.hpp</text>
</a>
</g>
</g>
<!-- Node2&#45;&gt;Node11 -->
<g id="edge8" class="edge">
<title>Node2&#45;&gt;Node11</title>
<path fill="none" stroke="midnightblue" d="M840.68,-252.32C893.26,-247.56 987.19,-235.62 1007.75,-210 1022.52,-191.6 1004.31,-166.16 988.86,-149.89"/>
<polygon fill="midnightblue" stroke="midnightblue" points="991.21,-147.29 981.66,-142.71 986.27,-152.25 991.21,-147.29"/>
</g>
<!-- Node13 -->
<g id="node7" class="node">
<title>Node13</title>
<g id="a_node7"><a xlink:href="linear__transition__regulator_8hpp.html" target="_top" xlink:title=" ">
<polygon fill="white" stroke="black" points="749.25,-179.5 749.25,-209.5 860.25,-209.5 860.25,-179.5 749.25,-179.5"/>
<text text-anchor="start" x="757.25" y="-197.5" font-family="Helvetica,sans-Serif" font-size="10.00">ctl/linear_transition</text>
<text text-anchor="middle" x="804.75" y="-186.5" font-family="Helvetica,sans-Serif" font-size="10.00">_regulator.hpp</text>
</a>
</g>
</g>
<!-- Node2&#45;&gt;Node13 -->
<g id="edge7" class="edge">
<title>Node2&#45;&gt;Node13</title>
<path fill="none" stroke="midnightblue" d="M804.75,-246.48C804.75,-239.47 804.75,-229.19 804.75,-219.7"/>
<polygon fill="midnightblue" stroke="midnightblue" points="808.25,-219.52 804.75,-209.52 801.25,-219.52 808.25,-219.52"/>
</g>
<!-- Node14 -->
<g id="node8" class="node">
<title>Node14</title>
<g id="a_node8"><a xlink:title=" ">
<polygon fill="white" stroke="#bfbfbf" points="680.25,-185 680.25,-204 731.25,-204 731.25,-185 680.25,-185"/>
<text text-anchor="middle" x="705.75" y="-192" font-family="Helvetica,sans-Serif" font-size="10.00">variant</text>
</a>
</g>
</g>
<!-- Node2&#45;&gt;Node14 -->
<g id="edge9" class="edge">
<title>Node2&#45;&gt;Node14</title>
<path fill="none" stroke="midnightblue" d="M790.57,-246.48C774.39,-236.75 747.72,-220.73 728.61,-209.24"/>
<polygon fill="midnightblue" stroke="midnightblue" points="730.28,-206.16 719.91,-204.01 726.68,-212.16 730.28,-206.16"/>
</g>
<!-- Node7 -->
<g id="node4" class="node">
<title>Node7</title>
<g id="a_node4"><a xlink:title=" ">
<polygon fill="white" stroke="#bfbfbf" points="454.75,-0.5 454.75,-19.5 504.75,-19.5 504.75,-0.5 454.75,-0.5"/>
<text text-anchor="middle" x="479.75" y="-7.5" font-family="Helvetica,sans-Serif" font-size="10.00">cstdint</text>
</a>
</g>
</g>
<!-- Node3&#45;&gt;Node7 -->
<g id="edge3" class="edge">
<title>Node3&#45;&gt;Node7</title>
<path fill="none" stroke="midnightblue" d="M521.73,-61.98C514.31,-52.96 502.42,-38.52 493.18,-27.31"/>
<polygon fill="midnightblue" stroke="midnightblue" points="495.82,-25 486.76,-19.51 490.41,-29.45 495.82,-25"/>
</g>
<!-- Node10&#45;&gt;Node11 -->
<g id="edge5" class="edge">
<title>Node10&#45;&gt;Node11</title>
<path fill="none" stroke="midnightblue" d="M959.76,-184.98C961.75,-176.49 964.88,-163.2 967.44,-152.32"/>
<polygon fill="midnightblue" stroke="midnightblue" points="970.87,-153.04 969.75,-142.51 964.05,-151.44 970.87,-153.04"/>
</g>
<!-- Node11&#45;&gt;Node3 -->
<g id="edge6" class="edge">
<title>Node11&#45;&gt;Node3</title>
<path fill="none" stroke="midnightblue" d="M916.54,-124.58C826.31,-112.47 649.31,-88.69 569.5,-77.97"/>
<polygon fill="midnightblue" stroke="midnightblue" points="569.73,-74.47 559.35,-76.61 568.8,-81.41 569.73,-74.47"/>
</g>
<!-- Node15&#45;&gt;Node2 -->
<g id="edge11" class="edge">
<title>Node15&#45;&gt;Node2</title>
<path fill="none" stroke="midnightblue" d="M384.16,-305.32C475.75,-294.8 670.61,-272.41 759.2,-262.23"/>
<polygon fill="midnightblue" stroke="midnightblue" points="759.68,-265.7 769.21,-261.08 758.88,-258.75 759.68,-265.7"/>
</g>
<!-- Node16 -->
<g id="node10" class="node">
<title>Node16</title>
<g id="a_node10"><a xlink:href="converter_8hpp.html" target="_top" xlink:title=" ">
<polygon fill="white" stroke="red" points="363.25,-185 363.25,-204 446.25,-204 446.25,-185 363.25,-185"/>
<text text-anchor="middle" x="404.75" y="-192" font-family="Helvetica,sans-Serif" font-size="10.00">converter.hpp</text>
</a>
</g>
</g>
<!-- Node15&#45;&gt;Node16 -->
<g id="edge12" class="edge">
<title>Node15&#45;&gt;Node16</title>
<path fill="none" stroke="midnightblue" d="M340.01,-302.32C351.46,-283.42 378.84,-238.25 394.07,-213.12"/>
<polygon fill="midnightblue" stroke="midnightblue" points="397.24,-214.65 399.43,-204.28 391.25,-211.02 397.24,-214.65"/>
</g>
<!-- Node15&#45;&gt;Node21 -->
<g id="edge13" class="edge">
<title>Node15&#45;&gt;Node21</title>
<path fill="none" stroke="midnightblue" d="M285.51,-309.63C253.18,-305.85 213.07,-295.06 191.75,-266 176.63,-245.39 203.47,-223.17 225.96,-209.3"/>
<polygon fill="midnightblue" stroke="midnightblue" points="228.03,-212.14 234.89,-204.07 224.49,-206.1 228.03,-212.14"/>
</g>
<!-- Node25 -->
<g id="node13" class="node">
<title>Node25</title>
<g id="a_node13"><a xlink:title=" ">
<polygon fill="white" stroke="#bfbfbf" points="145.25,-62 145.25,-81 246.25,-81 246.25,-62 145.25,-62"/>
<text text-anchor="middle" x="195.75" y="-69" font-family="Helvetica,sans-Serif" font-size="10.00">stm32g4xx_hal.h</text>
</a>
</g>
</g>
<!-- Node15&#45;&gt;Node25 -->
<g id="edge31" class="edge">
<title>Node15&#45;&gt;Node25</title>
<path fill="none" stroke="midnightblue" d="M285.4,-310.7C250.89,-307.58 206.97,-297.14 183.75,-266 144.39,-213.19 172.21,-128.06 187.51,-90.87"/>
<polygon fill="midnightblue" stroke="midnightblue" points="190.87,-91.91 191.6,-81.34 184.44,-89.15 190.87,-91.91"/>
</g>
<!-- Node26 -->
<g id="node14" class="node">
<title>Node26</title>
<g id="a_node14"><a xlink:href="clock_8hpp.html" target="_top" xlink:title=" ">
<polygon fill="white" stroke="black" points="289.75,-123.5 289.75,-142.5 371.75,-142.5 371.75,-123.5 289.75,-123.5"/>
<text text-anchor="middle" x="330.75" y="-130.5" font-family="Helvetica,sans-Serif" font-size="10.00">drv/clock.hpp</text>
</a>
</g>
</g>
<!-- Node15&#45;&gt;Node26 -->
<g id="edge17" class="edge">
<title>Node15&#45;&gt;Node26</title>
<path fill="none" stroke="midnightblue" d="M334.56,-302.46C333.95,-275.43 332.04,-191.24 331.18,-153.11"/>
<polygon fill="midnightblue" stroke="midnightblue" points="334.68,-152.79 330.95,-142.87 327.68,-152.94 334.68,-152.79"/>
</g>
<!-- Node15&#45;&gt;Node27 -->
<g id="edge21" class="edge">
<title>Node15&#45;&gt;Node27</title>
<path fill="none" stroke="midnightblue" d="M285.66,-309.53C240.08,-306.2 171.78,-296.06 120.75,-266 98.6,-252.95 80.46,-228.96 69.87,-212.62"/>
<polygon fill="midnightblue" stroke="midnightblue" points="72.79,-210.68 64.54,-204.03 66.84,-214.37 72.79,-210.68"/>
</g>
<!-- Node32 -->
<g id="node17" class="node">
<title>Node32</title>
<g id="a_node17"><a xlink:href="conversion_8hpp.html" target="_top" xlink:title=" ">
<polygon fill="white" stroke="black" points="201.25,-246.5 201.25,-265.5 306.25,-265.5 306.25,-246.5 201.25,-246.5"/>
<text text-anchor="middle" x="253.75" y="-253.5" font-family="Helvetica,sans-Serif" font-size="10.00">fw/conversion.hpp</text>
</a>
</g>
</g>
<!-- Node15&#45;&gt;Node32 -->
<g id="edge25" class="edge">
<title>Node15&#45;&gt;Node32</title>
<path fill="none" stroke="midnightblue" d="M321.74,-302.32C309.22,-293.98 290.07,-281.21 275.28,-271.35"/>
<polygon fill="midnightblue" stroke="midnightblue" points="276.99,-268.29 266.73,-265.65 273.11,-274.11 276.99,-268.29"/>
</g>
<!-- Node15&#45;&gt;Node33 -->
<g id="edge29" class="edge">
<title>Node15&#45;&gt;Node33</title>
<path fill="none" stroke="midnightblue" d="M374.21,-302.44C418.28,-292.88 489.6,-277.42 536.58,-267.23"/>
<polygon fill="midnightblue" stroke="midnightblue" points="537.48,-270.62 546.51,-265.08 536,-263.77 537.48,-270.62"/>
</g>
<!-- Node21&#45;&gt;Node3 -->
<g id="edge14" class="edge">
<title>Node21&#45;&gt;Node3</title>
<path fill="none" stroke="midnightblue" d="M302.85,-184.98C368.23,-173.72 474.83,-154.04 489.75,-143 506.92,-130.29 517.49,-107.65 523.22,-91.45"/>
<polygon fill="midnightblue" stroke="midnightblue" points="526.7,-92.06 526.43,-81.47 520.03,-89.91 526.7,-92.06"/>
</g>
<!-- Node22 -->
<g id="node12" class="node">
<title>Node22</title>
<g id="a_node12"><a xlink:title=" ">
<polygon fill="white" stroke="#bfbfbf" points="264.25,-56.5 264.25,-86.5 397.25,-86.5 397.25,-56.5 264.25,-56.5"/>
<text text-anchor="start" x="272.25" y="-74.5" font-family="Helvetica,sans-Serif" font-size="10.00">emlabcpp/experimental</text>
<text text-anchor="middle" x="330.75" y="-63.5" font-family="Helvetica,sans-Serif" font-size="10.00">/function_view.h</text>
</a>
</g>
</g>
<!-- Node21&#45;&gt;Node22 -->
<g id="edge15" class="edge">
<title>Node21&#45;&gt;Node22</title>
<path fill="none" stroke="midnightblue" d="M254.15,-184.72C258.2,-170.84 267.3,-143.3 280.75,-123 287.82,-112.34 297.35,-102.04 306.21,-93.55"/>
<polygon fill="midnightblue" stroke="midnightblue" points="308.77,-95.95 313.73,-86.59 304.01,-90.81 308.77,-95.95"/>
</g>
<!-- Node21&#45;&gt;Node25 -->
<g id="edge16" class="edge">
<title>Node21&#45;&gt;Node25</title>
<path fill="none" stroke="midnightblue" d="M247.72,-184.8C238.6,-165.09 216.21,-116.71 204.01,-90.34"/>
<polygon fill="midnightblue" stroke="midnightblue" points="207.12,-88.73 199.74,-81.12 200.77,-91.67 207.12,-88.73"/>
</g>
<!-- Node26&#45;&gt;Node3 -->
<g id="edge18" class="edge">
<title>Node26&#45;&gt;Node3</title>
<path fill="none" stroke="midnightblue" d="M359.12,-123.48C393.67,-113.09 452.17,-95.51 490.64,-83.95"/>
<polygon fill="midnightblue" stroke="midnightblue" points="491.87,-87.24 500.43,-81.01 489.85,-80.54 491.87,-87.24"/>
</g>
<!-- Node26&#45;&gt;Node22 -->
<g id="edge19" class="edge">
<title>Node26&#45;&gt;Node22</title>
<path fill="none" stroke="midnightblue" d="M330.75,-123.48C330.75,-116.47 330.75,-106.19 330.75,-96.7"/>
<polygon fill="midnightblue" stroke="midnightblue" points="334.25,-96.52 330.75,-86.52 327.25,-96.52 334.25,-96.52"/>
</g>
<!-- Node26&#45;&gt;Node25 -->
<g id="edge20" class="edge">
<title>Node26&#45;&gt;Node25</title>
<path fill="none" stroke="midnightblue" d="M311.41,-123.48C288.65,-113.45 250.66,-96.7 224.46,-85.15"/>
<polygon fill="midnightblue" stroke="midnightblue" points="225.62,-81.84 215.06,-81.01 222.8,-88.24 225.62,-81.84"/>
</g>
<!-- Node27&#45;&gt;Node22 -->
<g id="edge24" class="edge">
<title>Node27&#45;&gt;Node22</title>
<path fill="none" stroke="midnightblue" d="M78.81,-184.99C122.4,-165.53 230.22,-117.39 289.71,-90.83"/>
<polygon fill="midnightblue" stroke="midnightblue" points="291.47,-93.87 299.17,-86.6 288.61,-87.48 291.47,-93.87"/>
</g>
<!-- Node27&#45;&gt;Node29 -->
<g id="edge22" class="edge">
<title>Node27&#45;&gt;Node29</title>
<path fill="none" stroke="midnightblue" d="M56.17,-184.98C52.57,-176.4 46.9,-162.93 42.31,-151.98"/>
<polygon fill="midnightblue" stroke="midnightblue" points="45.43,-150.37 38.33,-142.51 38.97,-153.08 45.43,-150.37"/>
</g>
<!-- Node29&#45;&gt;Node25 -->
<g id="edge23" class="edge">
<title>Node29&#45;&gt;Node25</title>
<path fill="none" stroke="midnightblue" d="M57.82,-123.48C85.44,-113.27 131.87,-96.11 163.15,-84.55"/>
<polygon fill="midnightblue" stroke="midnightblue" points="164.56,-87.76 172.73,-81.01 162.13,-81.19 164.56,-87.76"/>
</g>
<!-- Node32&#45;&gt;Node16 -->
<g id="edge26" class="edge">
<title>Node32&#45;&gt;Node16</title>
<path fill="none" stroke="midnightblue" d="M275.39,-246.48C301.18,-236.31 344.46,-219.26 373.79,-207.7"/>
<polygon fill="midnightblue" stroke="midnightblue" points="375.14,-210.93 383.16,-204.01 372.57,-204.42 375.14,-210.93"/>
</g>
<!-- Node32&#45;&gt;Node21 -->
<g id="edge27" class="edge">
<title>Node32&#45;&gt;Node21</title>
<path fill="none" stroke="midnightblue" d="M253.46,-246.48C253.18,-238.08 252.74,-224.98 252.38,-214.16"/>
<polygon fill="midnightblue" stroke="midnightblue" points="255.87,-213.89 252.04,-204.01 248.87,-214.12 255.87,-213.89"/>
</g>
<!-- Node32&#45;&gt;Node27 -->
<g id="edge28" class="edge">
<title>Node32&#45;&gt;Node27</title>
<path fill="none" stroke="midnightblue" d="M225.96,-246.48C192.1,-236.09 134.78,-218.51 97.1,-206.95"/>
<polygon fill="midnightblue" stroke="midnightblue" points="98.08,-203.6 87.49,-204.01 96.03,-210.29 98.08,-203.6"/>
</g>
<!-- Node33&#45;&gt;Node3 -->
<g id="edge30" class="edge">
<title>Node33&#45;&gt;Node3</title>
<path fill="none" stroke="midnightblue" d="M580.26,-246.46C576.64,-237.47 570.95,-222.86 566.75,-210 553.04,-167.97 539.97,-117.7 533.32,-91.12"/>
<polygon fill="midnightblue" stroke="midnightblue" points="536.68,-90.13 530.88,-81.27 529.89,-91.82 536.68,-90.13"/>
</g>
<!-- Node40&#45;&gt;Node3 -->
<g id="edge35" class="edge">
<title>Node40&#45;&gt;Node3</title>
<path fill="none" stroke="midnightblue" d="M449.08,-123.48C464.13,-113.84 488.87,-98.02 506.79,-86.55"/>
<polygon fill="midnightblue" stroke="midnightblue" points="508.91,-89.35 515.45,-81.01 505.14,-83.45 508.91,-89.35"/>
</g>
<!-- Node40&#45;&gt;Node7 -->
<g id="edge36" class="edge">
<title>Node40&#45;&gt;Node7</title>
<path fill="none" stroke="midnightblue" d="M438.92,-123.3C446.05,-103.68 463.52,-55.64 473.14,-29.19"/>
<polygon fill="midnightblue" stroke="midnightblue" points="476.49,-30.22 476.62,-19.62 469.91,-27.82 476.49,-30.22"/>
</g>
<!-- Node40&#45;&gt;Node22 -->
<g id="edge37" class="edge">
<title>Node40&#45;&gt;Node22</title>
<path fill="none" stroke="midnightblue" d="M420.71,-123.48C406.09,-115.19 383.38,-102.32 364.44,-91.59"/>
<polygon fill="midnightblue" stroke="midnightblue" points="365.92,-88.41 355.5,-86.52 362.47,-94.5 365.92,-88.41"/>
</g>
<!-- Node40&#45;&gt;Node25 -->
<g id="edge38" class="edge">
<title>Node40&#45;&gt;Node25</title>
<path fill="none" stroke="midnightblue" d="M401.36,-123.48C358.86,-112.94 286.45,-94.99 239.88,-83.44"/>
<polygon fill="midnightblue" stroke="midnightblue" points="240.62,-80.02 230.07,-81.01 238.94,-86.81 240.62,-80.02"/>
</g>
<!-- Node41&#45;&gt;Node16 -->
<g id="edge40" class="edge">
<title>Node41&#45;&gt;Node16</title>
<path fill="none" stroke="midnightblue" d="M439.88,-246.48C433.79,-237.64 424.11,-223.59 416.45,-212.48"/>
<polygon fill="midnightblue" stroke="midnightblue" points="419.17,-210.26 410.61,-204.01 413.41,-214.23 419.17,-210.26"/>
</g>
<!-- Node41&#45;&gt;Node21 -->
<g id="edge41" class="edge">
<title>Node41&#45;&gt;Node21</title>
<path fill="none" stroke="midnightblue" d="M417.96,-246.48C384.1,-236.09 326.78,-218.51 289.1,-206.95"/>
<polygon fill="midnightblue" stroke="midnightblue" points="290.08,-203.6 279.49,-204.01 288.03,-210.29 290.08,-203.6"/>
</g>
<!-- Node41&#45;&gt;Node42 -->
<g id="edge42" class="edge">
<title>Node41&#45;&gt;Node42</title>
<path fill="none" stroke="midnightblue" d="M470.54,-246.48C500.34,-236.22 550.54,-218.96 584.15,-207.4"/>
<polygon fill="midnightblue" stroke="midnightblue" points="585.69,-210.57 594.01,-204.01 583.42,-203.95 585.69,-210.57"/>
</g>
<!-- Node42&#45;&gt;Node3 -->
<g id="edge43" class="edge">
<title>Node42&#45;&gt;Node3</title>
<path fill="none" stroke="midnightblue" d="M612.28,-184.8C597.42,-164.83 560.68,-115.42 541.25,-89.3"/>
<polygon fill="midnightblue" stroke="midnightblue" points="543.94,-87.06 535.16,-81.12 538.32,-91.24 543.94,-87.06"/>
</g>
</g>
</svg>
