<?xml version="1.0" encoding="UTF-8" standalone="no"?>
<!DOCTYPE svg PUBLIC "-//W3C//DTD SVG 1.1//EN"
 "http://www.w3.org/Graphics/SVG/1.1/DTD/svg11.dtd">
<!-- Generated by graphviz version 2.43.0 (0)
 -->
<!-- Title: src/fw/core.hpp Pages: 1 -->
<svg width="904pt" height="375pt"
 viewBox="0.00 0.00 904.49 375.00" xmlns="http://www.w3.org/2000/svg" xmlns:xlink="http://www.w3.org/1999/xlink">
<g id="graph0" class="graph" transform="scale(1 1) rotate(0) translate(4 371)">
<title>src/fw/core.hpp</title>
<polygon fill="white" stroke="transparent" points="-4,4 -4,-371 900.49,-371 900.49,4 -4,4"/>
<!-- Node1 -->
<g id="node1" class="node">
<title>Node1</title>
<g id="a_node1"><a xlink:title=" ">
<polygon fill="#bfbfbf" stroke="black" points="406.3,-347.5 406.3,-366.5 496.3,-366.5 496.3,-347.5 406.3,-347.5"/>
<text text-anchor="middle" x="451.3" y="-354.5" font-family="Helvetica,sans-Serif" font-size="10.00">src/fw/core.hpp</text>
</a>
</g>
</g>
<!-- Node2 -->
<g id="node2" class="node">
<title>Node2</title>
<g id="a_node2"><a xlink:href="control_8hpp.html" target="_top" xlink:title=" ">
<polygon fill="white" stroke="black" points="711.8,-235.5 711.8,-254.5 782.8,-254.5 782.8,-235.5 711.8,-235.5"/>
<text text-anchor="middle" x="747.3" y="-242.5" font-family="Helvetica,sans-Serif" font-size="10.00">control.hpp</text>
</a>
</g>
</g>
<!-- Node1&#45;&gt;Node2 -->
<g id="edge1" class="edge">
<title>Node1&#45;&gt;Node2</title>
<path fill="none" stroke="midnightblue" d="M496.54,-352.98C541.89,-348.51 612.77,-337.58 668.3,-311 693.44,-298.96 717.45,-277.26 732.26,-262.26"/>
<polygon fill="midnightblue" stroke="midnightblue" points="735.1,-264.36 739.49,-254.72 730.05,-259.51 735.1,-264.36"/>
</g>
<!-- Node14 -->
<g id="node8" class="node">
<title>Node14</title>
<g id="a_node8"><a xlink:href="callbacks_8hpp.html" target="_top" xlink:title=" ">
<polygon fill="white" stroke="black" points="291.3,-291.5 291.3,-310.5 389.3,-310.5 389.3,-291.5 291.3,-291.5"/>
<text text-anchor="middle" x="340.3" y="-298.5" font-family="Helvetica,sans-Serif" font-size="10.00">fw/callbacks.hpp</text>
</a>
</g>
</g>
<!-- Node1&#45;&gt;Node14 -->
<g id="edge9" class="edge">
<title>Node1&#45;&gt;Node14</title>
<path fill="none" stroke="midnightblue" d="M433.47,-347.32C415.58,-338.62 387.83,-325.12 367.25,-315.11"/>
<polygon fill="midnightblue" stroke="midnightblue" points="368.61,-311.88 358.09,-310.65 365.55,-318.18 368.61,-311.88"/>
</g>
<!-- Node20 -->
<g id="node10" class="node">
<title>Node20</title>
<g id="a_node10"><a xlink:href="acquisition_8hpp.html" target="_top" xlink:title=" ">
<polygon fill="white" stroke="red" points="180.3,-179.5 180.3,-198.5 308.3,-198.5 308.3,-179.5 180.3,-179.5"/>
<text text-anchor="middle" x="244.3" y="-186.5" font-family="Helvetica,sans-Serif" font-size="10.00">drivers/acquisition.hpp</text>
</a>
</g>
</g>
<!-- Node1&#45;&gt;Node20 -->
<g id="edge31" class="edge">
<title>Node1&#45;&gt;Node20</title>
<path fill="none" stroke="midnightblue" d="M406.1,-354.7C343.22,-350.08 232.23,-330.97 189.3,-255 178.26,-235.47 199.64,-216.25 218.88,-203.84"/>
<polygon fill="midnightblue" stroke="midnightblue" points="220.71,-206.82 227.44,-198.64 217.08,-200.84 220.71,-206.82"/>
</g>
<!-- Node26 -->
<g id="node14" class="node">
<title>Node26</title>
<g id="a_node14"><a xlink:href="hbridge_8hpp.html" target="_top" xlink:title=" ">
<polygon fill="white" stroke="red" points="12.8,-179.5 12.8,-198.5 123.8,-198.5 123.8,-179.5 12.8,-179.5"/>
<text text-anchor="middle" x="68.3" y="-186.5" font-family="Helvetica,sans-Serif" font-size="10.00">drivers/hbridge.hpp</text>
</a>
</g>
</g>
<!-- Node1&#45;&gt;Node26 -->
<g id="edge32" class="edge">
<title>Node1&#45;&gt;Node26</title>
<path fill="none" stroke="midnightblue" d="M406.21,-354.03C357.15,-350.41 277.42,-340.14 215.3,-311 159.67,-284.91 107.33,-232.91 82.82,-206.39"/>
<polygon fill="midnightblue" stroke="midnightblue" points="85.19,-203.79 75.88,-198.74 80.01,-208.49 85.19,-203.79"/>
</g>
<!-- Node28 -->
<g id="node15" class="node">
<title>Node28</title>
<g id="a_node15"><a xlink:href="util_8hpp.html" target="_top" xlink:title=" ">
<polygon fill="white" stroke="red" points="18.3,-123.5 18.3,-142.5 86.3,-142.5 86.3,-123.5 18.3,-123.5"/>
<text text-anchor="middle" x="52.3" y="-130.5" font-family="Helvetica,sans-Serif" font-size="10.00">fw/util.hpp</text>
</a>
</g>
</g>
<!-- Node1&#45;&gt;Node28 -->
<g id="edge43" class="edge">
<title>Node1&#45;&gt;Node28</title>
<path fill="none" stroke="midnightblue" d="M406.05,-354.05C350.87,-350.44 255.52,-340.16 179.3,-311 92.7,-277.87 47.92,-280.28 3.3,-199 -6.89,-180.43 11.64,-161.33 28.77,-148.68"/>
<polygon fill="midnightblue" stroke="midnightblue" points="31.19,-151.25 37.43,-142.69 27.21,-145.5 31.19,-151.25"/>
</g>
<!-- Node30 -->
<g id="node17" class="node">
<title>Node30</title>
<g id="a_node17"><a xlink:href="metrics_8hpp.html" target="_top" xlink:title=" ">
<polygon fill="white" stroke="red" points="552.3,-235.5 552.3,-254.5 626.3,-254.5 626.3,-235.5 552.3,-235.5"/>
<text text-anchor="middle" x="589.3" y="-242.5" font-family="Helvetica,sans-Serif" font-size="10.00">metrics.hpp</text>
</a>
</g>
</g>
<!-- Node1&#45;&gt;Node30 -->
<g id="edge45" class="edge">
<title>Node1&#45;&gt;Node30</title>
<path fill="none" stroke="midnightblue" d="M473.96,-347.45C492.51,-339.75 518.78,-327.16 538.3,-311 554.82,-297.33 569.44,-277.46 578.74,-263.29"/>
<polygon fill="midnightblue" stroke="midnightblue" points="581.89,-264.86 584.29,-254.54 575.98,-261.11 581.89,-264.86"/>
</g>
<!-- Node37 -->
<g id="node18" class="node">
<title>Node37</title>
<g id="a_node18"><a xlink:href="leds_8hpp.html" target="_top" xlink:title=" ">
<polygon fill="white" stroke="black" points="386.8,-123.5 386.8,-142.5 495.8,-142.5 495.8,-123.5 386.8,-123.5"/>
<text text-anchor="middle" x="441.3" y="-130.5" font-family="Helvetica,sans-Serif" font-size="10.00">fw/drivers/leds.hpp</text>
</a>
</g>
</g>
<!-- Node1&#45;&gt;Node37 -->
<g id="edge33" class="edge">
<title>Node1&#45;&gt;Node37</title>
<path fill="none" stroke="midnightblue" d="M459.61,-347.49C477.48,-328.14 516.93,-279.1 504.3,-235 494.83,-201.92 471.03,-169.15 455.54,-150.27"/>
<polygon fill="midnightblue" stroke="midnightblue" points="458.22,-148.02 449.1,-142.63 452.87,-152.53 458.22,-148.02"/>
</g>
<!-- Node38 -->
<g id="node19" class="node">
<title>Node38</title>
<g id="a_node19"><a xlink:href="monitor_8hpp.html" target="_top" xlink:title=" ">
<polygon fill="white" stroke="black" points="406.8,-235.5 406.8,-254.5 495.8,-254.5 495.8,-235.5 406.8,-235.5"/>
<text text-anchor="middle" x="451.3" y="-242.5" font-family="Helvetica,sans-Serif" font-size="10.00">fw/monitor.hpp</text>
</a>
</g>
</g>
<!-- Node1&#45;&gt;Node38 -->
<g id="edge38" class="edge">
<title>Node1&#45;&gt;Node38</title>
<path fill="none" stroke="midnightblue" d="M451.3,-347.37C451.3,-329.62 451.3,-288.67 451.3,-264.6"/>
<polygon fill="midnightblue" stroke="midnightblue" points="454.8,-264.59 451.3,-254.59 447.8,-264.59 454.8,-264.59"/>
</g>
<!-- Node39 -->
<g id="node20" class="node">
<title>Node39</title>
<g id="a_node20"><a xlink:href="indication_8hpp.html" target="_top" xlink:title=" ">
<polygon fill="white" stroke="red" points="590.3,-179.5 590.3,-198.5 676.3,-198.5 676.3,-179.5 590.3,-179.5"/>
<text text-anchor="middle" x="633.3" y="-186.5" font-family="Helvetica,sans-Serif" font-size="10.00">indication.hpp</text>
</a>
</g>
</g>
<!-- Node1&#45;&gt;Node39 -->
<g id="edge44" class="edge">
<title>Node1&#45;&gt;Node39</title>
<path fill="none" stroke="midnightblue" d="M493.61,-347.44C539.12,-335.61 608.54,-309.25 635.3,-255 642.4,-240.6 641,-222.15 638.35,-208.58"/>
<polygon fill="midnightblue" stroke="midnightblue" points="641.68,-207.47 635.98,-198.53 634.86,-209.07 641.68,-207.47"/>
</g>
<!-- Node3 -->
<g id="node3" class="node">
<title>Node3</title>
<g id="a_node3"><a xlink:href="base_8hpp.html" target="_top" xlink:title=" ">
<polygon fill="white" stroke="red" points="512.8,-62 512.8,-81 573.8,-81 573.8,-62 512.8,-62"/>
<text text-anchor="middle" x="543.3" y="-69" font-family="Helvetica,sans-Serif" font-size="10.00">base.hpp</text>
</a>
</g>
</g>
<!-- Node2&#45;&gt;Node3 -->
<g id="edge2" class="edge">
<title>Node2&#45;&gt;Node3</title>
<path fill="none" stroke="midnightblue" d="M782.85,-242.47C831.9,-238.66 912.26,-225.35 893.3,-179 880.1,-146.71 869.21,-139.17 838.3,-123 755.56,-79.72 643.61,-72.32 584.24,-71.75"/>
<polygon fill="midnightblue" stroke="midnightblue" points="584.14,-68.25 574.13,-71.72 584.12,-75.25 584.14,-68.25"/>
</g>
<!-- Node10 -->
<g id="node5" class="node">
<title>Node10</title>
<g id="a_node5"><a xlink:href="ctl_2config_8hpp.html" target="_top" xlink:title=" ">
<polygon fill="white" stroke="black" points="802.3,-179.5 802.3,-198.5 884.3,-198.5 884.3,-179.5 802.3,-179.5"/>
<text text-anchor="middle" x="843.3" y="-186.5" font-family="Helvetica,sans-Serif" font-size="10.00">ctl/config.hpp</text>
</a>
</g>
</g>
<!-- Node2&#45;&gt;Node10 -->
<g id="edge4" class="edge">
<title>Node2&#45;&gt;Node10</title>
<path fill="none" stroke="midnightblue" d="M762.72,-235.32C777.84,-226.82 801.12,-213.73 818.77,-203.8"/>
<polygon fill="midnightblue" stroke="midnightblue" points="820.91,-206.61 827.91,-198.65 817.48,-200.51 820.91,-206.61"/>
</g>
<!-- Node11 -->
<g id="node6" class="node">
<title>Node11</title>
<g id="a_node6"><a xlink:href="pid__module_8hpp.html" target="_top" xlink:title=" ">
<polygon fill="white" stroke="red" points="719.3,-123.5 719.3,-142.5 829.3,-142.5 829.3,-123.5 719.3,-123.5"/>
<text text-anchor="middle" x="774.3" y="-130.5" font-family="Helvetica,sans-Serif" font-size="10.00">ctl/pid_module.hpp</text>
</a>
</g>
</g>
<!-- Node2&#45;&gt;Node11 -->
<g id="edge7" class="edge">
<title>Node2&#45;&gt;Node11</title>
<path fill="none" stroke="midnightblue" d="M749.42,-235.37C753.78,-217.62 763.83,-176.67 769.74,-152.6"/>
<polygon fill="midnightblue" stroke="midnightblue" points="773.21,-153.14 772.19,-142.59 766.41,-151.47 773.21,-153.14"/>
</g>
<!-- Node13 -->
<g id="node7" class="node">
<title>Node13</title>
<g id="a_node7"><a xlink:title=" ">
<polygon fill="white" stroke="#bfbfbf" points="694.8,-179.5 694.8,-198.5 745.8,-198.5 745.8,-179.5 694.8,-179.5"/>
<text text-anchor="middle" x="720.3" y="-186.5" font-family="Helvetica,sans-Serif" font-size="10.00">variant</text>
</a>
</g>
</g>
<!-- Node2&#45;&gt;Node13 -->
<g id="edge8" class="edge">
<title>Node2&#45;&gt;Node13</title>
<path fill="none" stroke="midnightblue" d="M742.84,-235.08C739.15,-227.69 733.78,-216.95 729.21,-207.81"/>
<polygon fill="midnightblue" stroke="midnightblue" points="732.28,-206.13 724.68,-198.75 726.02,-209.26 732.28,-206.13"/>
</g>
<!-- Node7 -->
<g id="node4" class="node">
<title>Node7</title>
<g id="a_node4"><a xlink:title=" ">
<polygon fill="white" stroke="#bfbfbf" points="469.3,-0.5 469.3,-19.5 519.3,-19.5 519.3,-0.5 469.3,-0.5"/>
<text text-anchor="middle" x="494.3" y="-7.5" font-family="Helvetica,sans-Serif" font-size="10.00">cstdint</text>
</a>
</g>
</g>
<!-- Node3&#45;&gt;Node7 -->
<g id="edge3" class="edge">
<title>Node3&#45;&gt;Node7</title>
<path fill="none" stroke="midnightblue" d="M536.28,-61.98C528.86,-52.96 516.97,-38.52 507.73,-27.31"/>
<polygon fill="midnightblue" stroke="midnightblue" points="510.37,-25 501.31,-19.51 504.96,-29.45 510.37,-25"/>
</g>
<!-- Node10&#45;&gt;Node11 -->
<g id="edge5" class="edge">
<title>Node10&#45;&gt;Node11</title>
<path fill="none" stroke="midnightblue" d="M832.21,-179.32C821.81,-171.18 806.04,-158.84 793.58,-149.09"/>
<polygon fill="midnightblue" stroke="midnightblue" points="795.62,-146.24 785.59,-142.83 791.31,-151.75 795.62,-146.24"/>
</g>
<!-- Node11&#45;&gt;Node3 -->
<g id="edge6" class="edge">
<title>Node11&#45;&gt;Node3</title>
<path fill="none" stroke="midnightblue" d="M741.2,-123.48C699.77,-112.8 628.81,-94.53 584.07,-83"/>
<polygon fill="midnightblue" stroke="midnightblue" points="584.68,-79.54 574.12,-80.44 582.93,-86.32 584.68,-79.54"/>
</g>
<!-- Node14&#45;&gt;Node2 -->
<g id="edge10" class="edge">
<title>Node14&#45;&gt;Node2</title>
<path fill="none" stroke="midnightblue" d="M389.39,-293.49C468.75,-282.96 624.11,-262.35 701.38,-252.09"/>
<polygon fill="midnightblue" stroke="midnightblue" points="702.3,-255.5 711.75,-250.72 701.38,-248.56 702.3,-255.5"/>
</g>
<!-- Node15 -->
<g id="node9" class="node">
<title>Node15</title>
<g id="a_node9"><a xlink:href="converter_8hpp.html" target="_top" xlink:title=" ">
<polygon fill="white" stroke="red" points="368.8,-179.5 368.8,-198.5 451.8,-198.5 451.8,-179.5 368.8,-179.5"/>
<text text-anchor="middle" x="410.3" y="-186.5" font-family="Helvetica,sans-Serif" font-size="10.00">converter.hpp</text>
</a>
</g>
</g>
<!-- Node14&#45;&gt;Node15 -->
<g id="edge11" class="edge">
<title>Node14&#45;&gt;Node15</title>
<path fill="none" stroke="midnightblue" d="M345.79,-291.37C357.29,-273.3 384.1,-231.18 399.29,-207.31"/>
<polygon fill="midnightblue" stroke="midnightblue" points="402.42,-208.91 404.83,-198.59 396.51,-205.15 402.42,-208.91"/>
</g>
<!-- Node14&#45;&gt;Node20 -->
<g id="edge12" class="edge">
<title>Node14&#45;&gt;Node20</title>
<path fill="none" stroke="midnightblue" d="M291.05,-298.63C258.73,-294.85 218.62,-284.06 197.3,-255 184.63,-237.73 204.16,-217.74 221.76,-204.54"/>
<polygon fill="midnightblue" stroke="midnightblue" points="223.95,-207.28 230.1,-198.65 219.91,-201.56 223.95,-207.28"/>
</g>
<!-- Node24 -->
<g id="node12" class="node">
<title>Node24</title>
<g id="a_node12"><a xlink:title=" ">
<polygon fill="white" stroke="#bfbfbf" points="132.8,-62 132.8,-81 233.8,-81 233.8,-62 132.8,-62"/>
<text text-anchor="middle" x="183.3" y="-69" font-family="Helvetica,sans-Serif" font-size="10.00">stm32g4xx_hal.h</text>
</a>
</g>
</g>
<!-- Node14&#45;&gt;Node24 -->
<g id="edge30" class="edge">
<title>Node14&#45;&gt;Node24</title>
<path fill="none" stroke="midnightblue" d="M291.18,-297.01C258.35,-292.5 216.37,-281.5 189.3,-255 144.97,-211.61 164.91,-127.92 176.76,-90.89"/>
<polygon fill="midnightblue" stroke="midnightblue" points="180.09,-91.97 179.96,-81.38 173.46,-89.74 180.09,-91.97"/>
</g>
<!-- Node25 -->
<g id="node13" class="node">
<title>Node25</title>
<g id="a_node13"><a xlink:href="clock_8hpp.html" target="_top" xlink:title=" ">
<polygon fill="white" stroke="black" points="268.3,-123.5 268.3,-142.5 368.3,-142.5 368.3,-123.5 268.3,-123.5"/>
<text text-anchor="middle" x="318.3" y="-130.5" font-family="Helvetica,sans-Serif" font-size="10.00">drivers/clock.hpp</text>
</a>
</g>
</g>
<!-- Node14&#45;&gt;Node25 -->
<g id="edge16" class="edge">
<title>Node14&#45;&gt;Node25</title>
<path fill="none" stroke="midnightblue" d="M339.12,-291.08C335.65,-264.95 325.49,-188.21 320.76,-152.58"/>
<polygon fill="midnightblue" stroke="midnightblue" points="324.22,-152.02 319.44,-142.57 317.28,-152.94 324.22,-152.02"/>
</g>
<!-- Node14&#45;&gt;Node26 -->
<g id="edge20" class="edge">
<title>Node14&#45;&gt;Node26</title>
<path fill="none" stroke="midnightblue" d="M290.88,-298.31C245.37,-294.83 177.39,-284.58 126.3,-255 106.14,-243.33 89.24,-222.17 78.98,-207.17"/>
<polygon fill="midnightblue" stroke="midnightblue" points="81.88,-205.21 73.48,-198.76 76.03,-209.04 81.88,-205.21"/>
</g>
<!-- Node29 -->
<g id="node16" class="node">
<title>Node29</title>
<g id="a_node16"><a xlink:href="conversion_8hpp.html" target="_top" xlink:title=" ">
<polygon fill="white" stroke="black" points="206.8,-235.5 206.8,-254.5 311.8,-254.5 311.8,-235.5 206.8,-235.5"/>
<text text-anchor="middle" x="259.3" y="-242.5" font-family="Helvetica,sans-Serif" font-size="10.00">fw/conversion.hpp</text>
</a>
</g>
</g>
<!-- Node14&#45;&gt;Node29 -->
<g id="edge24" class="edge">
<title>Node14&#45;&gt;Node29</title>
<path fill="none" stroke="midnightblue" d="M327.29,-291.32C314.77,-282.98 295.62,-270.21 280.83,-260.35"/>
<polygon fill="midnightblue" stroke="midnightblue" points="282.54,-257.29 272.28,-254.65 278.66,-263.11 282.54,-257.29"/>
</g>
<!-- Node14&#45;&gt;Node30 -->
<g id="edge28" class="edge">
<title>Node14&#45;&gt;Node30</title>
<path fill="none" stroke="midnightblue" d="M379.76,-291.44C423.83,-281.88 495.15,-266.42 542.13,-256.23"/>
<polygon fill="midnightblue" stroke="midnightblue" points="543.03,-259.62 552.06,-254.08 541.55,-252.77 543.03,-259.62"/>
</g>
<!-- Node20&#45;&gt;Node3 -->
<g id="edge13" class="edge">
<title>Node20&#45;&gt;Node3</title>
<path fill="none" stroke="midnightblue" d="M308.44,-183.24C375,-177.2 473.6,-164.84 504.3,-143 521.89,-130.48 532.45,-107.42 538.06,-91.09"/>
<polygon fill="midnightblue" stroke="midnightblue" points="541.55,-91.66 541.18,-81.07 534.87,-89.58 541.55,-91.66"/>
</g>
<!-- Node21 -->
<g id="node11" class="node">
<title>Node21</title>
<g id="a_node11"><a xlink:title=" ">
<polygon fill="white" stroke="#bfbfbf" points="251.8,-56.5 251.8,-86.5 384.8,-86.5 384.8,-56.5 251.8,-56.5"/>
<text text-anchor="start" x="259.8" y="-74.5" font-family="Helvetica,sans-Serif" font-size="10.00">emlabcpp/experimental</text>
<text text-anchor="middle" x="318.3" y="-63.5" font-family="Helvetica,sans-Serif" font-size="10.00">/function_view.h</text>
</a>
</g>
</g>
<!-- Node20&#45;&gt;Node21 -->
<g id="edge14" class="edge">
<title>Node20&#45;&gt;Node21</title>
<path fill="none" stroke="midnightblue" d="M244.6,-179.36C245.4,-166.27 248.38,-141.03 259.3,-123 266.36,-111.35 277.03,-101.04 287.37,-92.81"/>
<polygon fill="midnightblue" stroke="midnightblue" points="289.63,-95.49 295.51,-86.68 285.42,-89.9 289.63,-95.49"/>
</g>
<!-- Node20&#45;&gt;Node24 -->
<g id="edge15" class="edge">
<title>Node20&#45;&gt;Node24</title>
<path fill="none" stroke="midnightblue" d="M239.72,-179.32C229.78,-160.51 206.09,-115.65 192.78,-90.46"/>
<polygon fill="midnightblue" stroke="midnightblue" points="195.7,-88.49 187.94,-81.28 189.51,-91.76 195.7,-88.49"/>
</g>
<!-- Node25&#45;&gt;Node3 -->
<g id="edge17" class="edge">
<title>Node25&#45;&gt;Node3</title>
<path fill="none" stroke="midnightblue" d="M350.54,-123.48C390.67,-112.86 459.24,-94.73 502.85,-83.2"/>
<polygon fill="midnightblue" stroke="midnightblue" points="503.79,-86.57 512.57,-80.63 502.01,-79.8 503.79,-86.57"/>
</g>
<!-- Node25&#45;&gt;Node21 -->
<g id="edge18" class="edge">
<title>Node25&#45;&gt;Node21</title>
<path fill="none" stroke="midnightblue" d="M318.3,-123.48C318.3,-116.47 318.3,-106.19 318.3,-96.7"/>
<polygon fill="midnightblue" stroke="midnightblue" points="321.8,-96.52 318.3,-86.52 314.8,-96.52 321.8,-96.52"/>
</g>
<!-- Node25&#45;&gt;Node24 -->
<g id="edge19" class="edge">
<title>Node25&#45;&gt;Node24</title>
<path fill="none" stroke="midnightblue" d="M298.96,-123.48C276.2,-113.45 238.21,-96.7 212.01,-85.15"/>
<polygon fill="midnightblue" stroke="midnightblue" points="213.17,-81.84 202.61,-81.01 210.35,-88.24 213.17,-81.84"/>
</g>
<!-- Node26&#45;&gt;Node21 -->
<g id="edge23" class="edge">
<title>Node26&#45;&gt;Node21</title>
<path fill="none" stroke="midnightblue" d="M87.09,-179.32C127.58,-160.61 223.82,-116.15 278.52,-90.88"/>
<polygon fill="midnightblue" stroke="midnightblue" points="280.29,-93.92 287.9,-86.55 277.35,-87.56 280.29,-93.92"/>
</g>
<!-- Node26&#45;&gt;Node28 -->
<g id="edge21" class="edge">
<title>Node26&#45;&gt;Node28</title>
<path fill="none" stroke="midnightblue" d="M65.66,-179.08C63.51,-171.85 60.42,-161.41 57.75,-152.4"/>
<polygon fill="midnightblue" stroke="midnightblue" points="61.09,-151.34 54.89,-142.75 54.38,-153.33 61.09,-151.34"/>
</g>
<!-- Node28&#45;&gt;Node24 -->
<g id="edge22" class="edge">
<title>Node28&#45;&gt;Node24</title>
<path fill="none" stroke="midnightblue" d="M71.07,-123.48C93.15,-113.45 130.02,-96.7 155.44,-85.15"/>
<polygon fill="midnightblue" stroke="midnightblue" points="156.91,-88.33 164.57,-81.01 154.01,-81.96 156.91,-88.33"/>
</g>
<!-- Node29&#45;&gt;Node15 -->
<g id="edge25" class="edge">
<title>Node29&#45;&gt;Node15</title>
<path fill="none" stroke="midnightblue" d="M283.23,-235.44C308.52,-226.4 348.6,-212.06 376.98,-201.92"/>
<polygon fill="midnightblue" stroke="midnightblue" points="378.25,-205.18 386.49,-198.52 375.89,-198.59 378.25,-205.18"/>
</g>
<!-- Node29&#45;&gt;Node20 -->
<g id="edge26" class="edge">
<title>Node29&#45;&gt;Node20</title>
<path fill="none" stroke="midnightblue" d="M256.82,-235.08C254.81,-227.85 251.91,-217.41 249.41,-208.4"/>
<polygon fill="midnightblue" stroke="midnightblue" points="252.78,-207.45 246.73,-198.75 246.04,-209.32 252.78,-207.45"/>
</g>
<!-- Node29&#45;&gt;Node26 -->
<g id="edge27" class="edge">
<title>Node29&#45;&gt;Node26</title>
<path fill="none" stroke="midnightblue" d="M229.04,-235.44C196.35,-226.2 144.12,-211.44 108.12,-201.26"/>
<polygon fill="midnightblue" stroke="midnightblue" points="109,-197.87 98.42,-198.52 107.09,-204.61 109,-197.87"/>
</g>
<!-- Node30&#45;&gt;Node3 -->
<g id="edge29" class="edge">
<title>Node30&#45;&gt;Node3</title>
<path fill="none" stroke="midnightblue" d="M586.96,-235.26C579.79,-208.54 558.06,-127.52 548.23,-90.86"/>
<polygon fill="midnightblue" stroke="midnightblue" points="551.56,-89.77 545.59,-81.02 544.8,-91.58 551.56,-89.77"/>
</g>
<!-- Node37&#45;&gt;Node3 -->
<g id="edge34" class="edge">
<title>Node37&#45;&gt;Node3</title>
<path fill="none" stroke="midnightblue" d="M455.91,-123.48C472.65,-113.71 500.31,-97.58 520.02,-86.08"/>
<polygon fill="midnightblue" stroke="midnightblue" points="521.84,-89.07 528.71,-81.01 518.31,-83.02 521.84,-89.07"/>
</g>
<!-- Node37&#45;&gt;Node7 -->
<g id="edge35" class="edge">
<title>Node37&#45;&gt;Node7</title>
<path fill="none" stroke="midnightblue" d="M445.11,-123.3C453.75,-103.59 474.94,-55.21 486.49,-28.84"/>
<polygon fill="midnightblue" stroke="midnightblue" points="489.72,-30.19 490.52,-19.62 483.31,-27.38 489.72,-30.19"/>
</g>
<!-- Node37&#45;&gt;Node21 -->
<g id="edge36" class="edge">
<title>Node37&#45;&gt;Node21</title>
<path fill="none" stroke="midnightblue" d="M423.68,-123.48C406.24,-115.04 378.98,-101.86 356.56,-91.01"/>
<polygon fill="midnightblue" stroke="midnightblue" points="357.82,-87.73 347.29,-86.52 354.77,-94.03 357.82,-87.73"/>
</g>
<!-- Node37&#45;&gt;Node24 -->
<g id="edge37" class="edge">
<title>Node37&#45;&gt;Node24</title>
<path fill="none" stroke="midnightblue" d="M402.36,-123.42C362.2,-114.52 297.8,-100.09 242.3,-87 237.55,-85.88 232.58,-84.69 227.64,-83.49"/>
<polygon fill="midnightblue" stroke="midnightblue" points="228.14,-80.01 217.59,-81.04 226.48,-86.81 228.14,-80.01"/>
</g>
<!-- Node38&#45;&gt;Node15 -->
<g id="edge39" class="edge">
<title>Node38&#45;&gt;Node15</title>
<path fill="none" stroke="midnightblue" d="M444.53,-235.08C438.74,-227.46 430.24,-216.26 423.16,-206.94"/>
<polygon fill="midnightblue" stroke="midnightblue" points="425.78,-204.6 416.94,-198.75 420.2,-208.83 425.78,-204.6"/>
</g>
<!-- Node38&#45;&gt;Node20 -->
<g id="edge40" class="edge">
<title>Node38&#45;&gt;Node20</title>
<path fill="none" stroke="midnightblue" d="M418.5,-235.44C382.92,-226.16 325.99,-211.31 286.95,-201.13"/>
<polygon fill="midnightblue" stroke="midnightblue" points="287.51,-197.65 276.95,-198.52 285.74,-204.43 287.51,-197.65"/>
</g>
<!-- Node38&#45;&gt;Node39 -->
<g id="edge41" class="edge">
<title>Node38&#45;&gt;Node39</title>
<path fill="none" stroke="midnightblue" d="M480.14,-235.44C511.16,-226.24 560.63,-211.56 594.92,-201.39"/>
<polygon fill="midnightblue" stroke="midnightblue" points="596.01,-204.72 604.6,-198.52 594.01,-198.01 596.01,-204.72"/>
</g>
<!-- Node39&#45;&gt;Node3 -->
<g id="edge42" class="edge">
<title>Node39&#45;&gt;Node3</title>
<path fill="none" stroke="midnightblue" d="M626.54,-179.32C611.68,-160.26 575.99,-114.45 556.51,-89.46"/>
<polygon fill="midnightblue" stroke="midnightblue" points="559.05,-87.02 550.14,-81.28 553.53,-91.32 559.05,-87.02"/>
</g>
</g>
</svg>
