<?xml version="1.0" encoding="UTF-8" standalone="no"?>
<!DOCTYPE svg PUBLIC "-//W3C//DTD SVG 1.1//EN"
 "http://www.w3.org/Graphics/SVG/1.1/DTD/svg11.dtd">
<!-- Generated by graphviz version 2.43.0 (0)
 -->
<!-- Title: src/core/dispatcher.cpp Pages: 1 -->
<svg width="1101pt" height="148pt"
 viewBox="0.00 0.00 1100.50 148.00" xmlns="http://www.w3.org/2000/svg" xmlns:xlink="http://www.w3.org/1999/xlink">
<g id="graph0" class="graph" transform="scale(1 1) rotate(0) translate(4 144)">
<title>src/core/dispatcher.cpp</title>
<!-- Node1 -->
<g id="Node000001" class="node">
<title>Node1</title>
<g id="a_Node000001"><a xlink:title=" ">
<polygon fill="#999999" stroke="#666666" points="891.5,-140 763.5,-140 763.5,-121 891.5,-121 891.5,-140"/>
<text text-anchor="middle" x="827.5" y="-128" font-family="Helvetica,sans-Serif" font-size="10.00">src/core/dispatcher.cpp</text>
</a>
</g>
</g>
<!-- Node2 -->
<g id="Node000002" class="node">
<title>Node2</title>
<g id="a_Node000002"><a xlink:href="core_2dispatcher_8hpp.html" target="_top" xlink:title=" ">
<polygon fill="white" stroke="#666666" points="402.5,-85 308.5,-85 308.5,-66 402.5,-66 402.5,-85"/>
<text text-anchor="middle" x="355.5" y="-73" font-family="Helvetica,sans-Serif" font-size="10.00">./dispatcher.hpp</text>
</a>
</g>
</g>
<!-- Node1&#45;&gt;Node2 -->
<g id="edge1_Node000001_Node000002" class="edge">
<title>Node1&#45;&gt;Node2</title>
<g id="a_edge1_Node000001_Node000002"><a xlink:title=" ">
<path fill="none" stroke="#63b8ff" d="M763.35,-122.3C670.86,-111.91 501.43,-92.89 412.87,-82.94"/>
<polygon fill="#63b8ff" stroke="#63b8ff" points="413.07,-79.44 402.74,-81.8 412.29,-86.4 413.07,-79.44"/>
</a>
</g>
</g>
<!-- Node41 -->
<g id="Node000041" class="node">
<title>Node41</title>
<g id="a_Node000041"><a xlink:href="utils_8hpp.html" target="_top" xlink:title=" ">
<polygon fill="#fff0f0" stroke="red" points="690.5,-85 602.5,-85 602.5,-66 690.5,-66 690.5,-85"/>
<text text-anchor="middle" x="646.5" y="-73" font-family="Helvetica,sans-Serif" font-size="10.00">../cnv/utils.hpp</text>
</a>
</g>
</g>
<!-- Node1&#45;&gt;Node41 -->
<g id="edge7_Node000001_Node000041" class="edge">
<title>Node1&#45;&gt;Node41</title>
<g id="a_edge7_Node000001_Node000041"><a xlink:title=" ">
<path fill="none" stroke="#63b8ff" d="M798.42,-120.98C767.9,-112.05 719.74,-97.94 685.84,-88.02"/>
<polygon fill="#63b8ff" stroke="#63b8ff" points="686.39,-84.53 675.81,-85.08 684.42,-91.25 686.39,-84.53"/>
</a>
</g>
</g>
<!-- Node57 -->
<g id="Node000057" class="node">
<title>Node57</title>
<g id="a_Node000057"><a xlink:href="atom__visit_8hpp.html" target="_top" xlink:title=" ">
<polygon fill="white" stroke="#666666" points="822,-85 709,-85 709,-66 822,-66 822,-85"/>
<text text-anchor="middle" x="765.5" y="-73" font-family="Helvetica,sans-Serif" font-size="10.00">../lib/atom_visit.hpp</text>
</a>
</g>
</g>
<!-- Node1&#45;&gt;Node57 -->
<g id="edge8_Node000001_Node000057" class="edge">
<title>Node1&#45;&gt;Node57</title>
<g id="a_edge8_Node000001_Node000057"><a xlink:title=" ">
<path fill="none" stroke="#63b8ff" d="M817.54,-120.98C808.37,-113.15 794.56,-101.34 783.47,-91.86"/>
<polygon fill="#63b8ff" stroke="#63b8ff" points="785.52,-89.01 775.64,-85.17 780.97,-94.33 785.52,-89.01"/>
</a>
</g>
</g>
<!-- Node59 -->
<g id="Node000059" class="node">
<title>Node59</title>
<g id="a_Node000059"><a xlink:href="json__ser_8hpp.html" target="_top" xlink:title=" ">
<polygon fill="white" stroke="#666666" points="941,-85 840,-85 840,-66 941,-66 941,-85"/>
<text text-anchor="middle" x="890.5" y="-73" font-family="Helvetica,sans-Serif" font-size="10.00">../lib/json_ser.hpp</text>
</a>
</g>
</g>
<!-- Node1&#45;&gt;Node59 -->
<g id="edge11_Node000001_Node000059" class="edge">
<title>Node1&#45;&gt;Node59</title>
<g id="a_edge11_Node000001_Node000059"><a xlink:title=" ">
<path fill="none" stroke="#63b8ff" d="M837.62,-120.98C846.94,-113.15 860.97,-101.34 872.24,-91.86"/>
<polygon fill="#63b8ff" stroke="#63b8ff" points="874.79,-94.29 880.19,-85.17 870.29,-88.93 874.79,-94.29"/>
</a>
</g>
</g>
<!-- Node28 -->
<g id="Node000028" class="node">
<title>Node28</title>
<g id="a_Node000028"><a xlink:href="status_8hpp.html" target="_top" xlink:title=" ">
<polygon fill="#fff0f0" stroke="red" points="1036,-85 959,-85 959,-66 1036,-66 1036,-85"/>
<text text-anchor="middle" x="997.5" y="-73" font-family="Helvetica,sans-Serif" font-size="10.00">../status.hpp</text>
</a>
</g>
</g>
<!-- Node1&#45;&gt;Node28 -->
<g id="edge14_Node000001_Node000028" class="edge">
<title>Node1&#45;&gt;Node28</title>
<g id="a_edge14_Node000001_Node000028"><a xlink:title=" ">
<path fill="none" stroke="#63b8ff" d="M854.81,-120.98C883.35,-112.09 928.33,-98.07 960.14,-88.15"/>
<polygon fill="#63b8ff" stroke="#63b8ff" points="961.47,-91.4 969.97,-85.08 959.38,-84.72 961.47,-91.4"/>
</a>
</g>
</g>
<!-- Node61 -->
<g id="Node000061" class="node">
<title>Node61</title>
<g id="a_Node000061"><a xlink:title=" ">
<polygon fill="#e0e0e0" stroke="#999999" points="1092.5,-85 1054.5,-85 1054.5,-66 1092.5,-66 1092.5,-85"/>
<text text-anchor="middle" x="1073.5" y="-73" font-family="Helvetica,sans-Serif" font-size="10.00">git.h</text>
</a>
</g>
</g>
<!-- Node1&#45;&gt;Node61 -->
<g id="edge15_Node000001_Node000061" class="edge">
<title>Node1&#45;&gt;Node61</title>
<g id="a_edge15_Node000001_Node000061"><a xlink:title=" ">
<path fill="none" stroke="#63b8ff" d="M875.85,-120.97C918.06,-113.22 981.12,-100.93 1044.52,-85.06"/>
<polygon fill="#63b8ff" stroke="#63b8ff" points="1045.45,-88.44 1054.29,-82.59 1043.73,-81.65 1045.45,-88.44"/>
</a>
</g>
</g>
<!-- Node3 -->
<g id="Node000003" class="node">
<title>Node3</title>
<g id="a_Node000003"><a xlink:href="cfg_2dispatcher_8hpp.html" target="_top" xlink:title=" ">
<polygon fill="#fff0f0" stroke="red" points="115,-24.5 0,-24.5 0,-5.5 115,-5.5 115,-24.5"/>
<text text-anchor="middle" x="57.5" y="-12.5" font-family="Helvetica,sans-Serif" font-size="10.00">../cfg/dispatcher.hpp</text>
</a>
</g>
</g>
<!-- Node2&#45;&gt;Node3 -->
<g id="edge2_Node000002_Node000003" class="edge">
<title>Node2&#45;&gt;Node3</title>
<g id="a_edge2_Node000002_Node000003"><a xlink:title=" ">
<path fill="none" stroke="#63b8ff" d="M309.67,-65.98C262.83,-57.21 188.02,-43.03 123.5,-30 118.19,-28.93 112.64,-27.79 107.12,-26.63"/>
<polygon fill="#63b8ff" stroke="#63b8ff" points="107.77,-23.19 97.26,-24.57 106.33,-30.04 107.77,-23.19"/>
</a>
</g>
</g>
<!-- Node5 -->
<g id="Node000005" class="node">
<title>Node5</title>
<g id="a_Node000005"><a xlink:href="control_8hpp.html" target="_top" xlink:title=" ">
<polygon fill="#fff0f0" stroke="red" points="228,-24.5 133,-24.5 133,-5.5 228,-5.5 228,-24.5"/>
<text text-anchor="middle" x="180.5" y="-12.5" font-family="Helvetica,sans-Serif" font-size="10.00">../ctl/control.hpp</text>
</a>
</g>
</g>
<!-- Node2&#45;&gt;Node5 -->
<g id="edge3_Node000002_Node000005" class="edge">
<title>Node2&#45;&gt;Node5</title>
<g id="a_edge3_Node000002_Node000005"><a xlink:title=" ">
<path fill="none" stroke="#63b8ff" d="M330.05,-65.99C299.86,-55.9 249.34,-39.01 215.48,-27.69"/>
<polygon fill="#63b8ff" stroke="#63b8ff" points="216.57,-24.37 205.98,-24.52 214.35,-31.01 216.57,-24.37"/>
</a>
</g>
</g>
<!-- Node45 -->
<g id="Node000045" class="node">
<title>Node45</title>
<g id="a_Node000045"><a xlink:href="iface_2def_8hpp.html" target="_top" xlink:title=" ">
<polygon fill="#fff0f0" stroke="red" points="335,-24.5 246,-24.5 246,-5.5 335,-5.5 335,-24.5"/>
<text text-anchor="middle" x="290.5" y="-12.5" font-family="Helvetica,sans-Serif" font-size="10.00">../iface/def.hpp</text>
</a>
</g>
</g>
<!-- Node2&#45;&gt;Node45 -->
<g id="edge4_Node000002_Node000045" class="edge">
<title>Node2&#45;&gt;Node45</title>
<g id="a_edge4_Node000002_Node000045"><a xlink:title=" ">
<path fill="none" stroke="#63b8ff" d="M345.91,-65.87C335.92,-56.88 320.07,-42.61 307.87,-31.64"/>
<polygon fill="#63b8ff" stroke="#63b8ff" points="309.9,-28.76 300.13,-24.67 305.22,-33.96 309.9,-28.76"/>
</a>
</g>
</g>
<!-- Node44 -->
<g id="Node000044" class="node">
<title>Node44</title>
<g id="a_Node000044"><a xlink:title=" ">
<polygon fill="#e0e0e0" stroke="#999999" points="486,-30 353,-30 353,0 486,0 486,-30"/>
<text text-anchor="start" x="361" y="-18" font-family="Helvetica,sans-Serif" font-size="10.00">emlabcpp/experimental</text>
<text text-anchor="middle" x="419.5" y="-7" font-family="Helvetica,sans-Serif" font-size="10.00">/function_view.h</text>
</a>
</g>
</g>
<!-- Node2&#45;&gt;Node44 -->
<g id="edge5_Node000002_Node000044" class="edge">
<title>Node2&#45;&gt;Node44</title>
<g id="a_edge5_Node000002_Node000044"><a xlink:title=" ">
<path fill="none" stroke="#63b8ff" d="M364.94,-65.87C373.23,-58.3 385.61,-46.98 396.49,-37.04"/>
<polygon fill="#63b8ff" stroke="#63b8ff" points="399.04,-39.44 404.06,-30.11 394.32,-34.28 399.04,-39.44"/>
</a>
</g>
</g>
<!-- Node56 -->
<g id="Node000056" class="node">
<title>Node56</title>
<g id="a_Node000056"><a xlink:title=" ">
<polygon fill="#e0e0e0" stroke="#999999" points="623,-24.5 504,-24.5 504,-5.5 623,-5.5 623,-24.5"/>
<text text-anchor="middle" x="563.5" y="-12.5" font-family="Helvetica,sans-Serif" font-size="10.00">emlabcpp/outcome.h</text>
</a>
</g>
</g>
<!-- Node2&#45;&gt;Node56 -->
<g id="edge6_Node000002_Node000056" class="edge">
<title>Node2&#45;&gt;Node56</title>
<g id="a_edge6_Node000002_Node000056"><a xlink:title=" ">
<path fill="none" stroke="#63b8ff" d="M385.74,-65.99C422.1,-55.77 483.23,-38.58 523.47,-27.26"/>
<polygon fill="#63b8ff" stroke="#63b8ff" points="524.54,-30.59 533.22,-24.52 522.64,-23.85 524.54,-30.59"/>
</a>
</g>
</g>
<!-- Node50 -->
<g id="Node000050" class="node">
<title>Node50</title>
<g id="a_Node000050"><a xlink:title=" ">
<polygon fill="#e0e0e0" stroke="#999999" points="728,-24.5 641,-24.5 641,-5.5 728,-5.5 728,-24.5"/>
<text text-anchor="middle" x="684.5" y="-12.5" font-family="Helvetica,sans-Serif" font-size="10.00">avakar/atom.h</text>
</a>
</g>
</g>
<!-- Node57&#45;&gt;Node50 -->
<g id="edge9_Node000057_Node000050" class="edge">
<title>Node57&#45;&gt;Node50</title>
<g id="a_edge9_Node000057_Node000050"><a xlink:title=" ">
<path fill="none" stroke="#63b8ff" d="M753.55,-65.87C740.75,-56.62 720.2,-41.78 704.85,-30.69"/>
<polygon fill="#63b8ff" stroke="#63b8ff" points="706.66,-27.68 696.5,-24.67 702.56,-33.36 706.66,-27.68"/>
</a>
</g>
</g>
<!-- Node58 -->
<g id="Node000058" class="node">
<title>Node58</title>
<g id="a_Node000058"><a xlink:title=" ">
<polygon fill="#e0e0e0" stroke="#999999" points="835,-24.5 746,-24.5 746,-5.5 835,-5.5 835,-24.5"/>
<text text-anchor="middle" x="790.5" y="-12.5" font-family="Helvetica,sans-Serif" font-size="10.00">vari/dispatch.h</text>
</a>
</g>
</g>
<!-- Node57&#45;&gt;Node58 -->
<g id="edge10_Node000057_Node000058" class="edge">
<title>Node57&#45;&gt;Node58</title>
<g id="a_edge10_Node000057_Node000058"><a xlink:title=" ">
<path fill="none" stroke="#63b8ff" d="M769.19,-65.87C772.77,-57.49 778.32,-44.51 782.85,-33.89"/>
<polygon fill="#63b8ff" stroke="#63b8ff" points="786.08,-35.24 786.8,-24.67 779.65,-32.49 786.08,-35.24"/>
</a>
</g>
</g>
<!-- Node47 -->
<g id="Node000047" class="node">
<title>Node47</title>
<g id="a_Node000047"><a xlink:href="str__lib_8hpp.html" target="_top" xlink:title=" ">
<polygon fill="#fff0f0" stroke="red" points="927.5,-24.5 853.5,-24.5 853.5,-5.5 927.5,-5.5 927.5,-24.5"/>
<text text-anchor="middle" x="890.5" y="-12.5" font-family="Helvetica,sans-Serif" font-size="10.00">./str_lib.hpp</text>
</a>
</g>
</g>
<!-- Node59&#45;&gt;Node47 -->
<g id="edge12_Node000059_Node000047" class="edge">
<title>Node59&#45;&gt;Node47</title>
<g id="a_edge12_Node000059_Node000047"><a xlink:title=" ">
<path fill="none" stroke="#63b8ff" d="M890.5,-65.87C890.5,-57.75 890.5,-45.31 890.5,-34.89"/>
<polygon fill="#63b8ff" stroke="#63b8ff" points="894,-34.67 890.5,-24.67 887,-34.67 894,-34.67"/>
</a>
</g>
</g>
<!-- Node60 -->
<g id="Node000060" class="node">
<title>Node60</title>
<g id="a_Node000060"><a xlink:title=" ">
<polygon fill="#e0e0e0" stroke="#999999" points="1045,-24.5 946,-24.5 946,-5.5 1045,-5.5 1045,-24.5"/>
<text text-anchor="middle" x="995.5" y="-12.5" font-family="Helvetica,sans-Serif" font-size="10.00">emlabcpp/view.h</text>
</a>
</g>
</g>
<!-- Node59&#45;&gt;Node60 -->
<g id="edge13_Node000059_Node000060" class="edge">
<title>Node59&#45;&gt;Node60</title>
<g id="a_edge13_Node000059_Node000060"><a xlink:title=" ">
<path fill="none" stroke="#63b8ff" d="M905.99,-65.87C923.13,-56.32 950.97,-40.81 971.06,-29.62"/>
<polygon fill="#63b8ff" stroke="#63b8ff" points="972.91,-32.59 979.94,-24.67 969.5,-26.48 972.91,-32.59"/>
</a>
</g>
</g>
</g>
</svg>
