<?xml version="1.0" encoding="UTF-8" standalone="no"?>
<!DOCTYPE svg PUBLIC "-//W3C//DTD SVG 1.1//EN"
 "http://www.w3.org/Graphics/SVG/1.1/DTD/svg11.dtd">
<!-- Generated by graphviz version 2.43.0 (0)
 -->
<!-- Title: src/fw/core.hpp Pages: 1 -->
<svg width="1409pt" height="207pt"
 viewBox="0.00 0.00 1409.48 207.00" xmlns="http://www.w3.org/2000/svg" xmlns:xlink="http://www.w3.org/1999/xlink">
<g id="graph0" class="graph" transform="scale(1 1) rotate(0) translate(4 203)">
<title>src/fw/core.hpp</title>
<polygon fill="white" stroke="transparent" points="-4,4 -4,-203 1405.48,-203 1405.48,4 -4,4"/>
<!-- Node1 -->
<g id="node1" class="node">
<title>Node1</title>
<g id="a_node1"><a xlink:title=" ">
<polygon fill="#bfbfbf" stroke="black" points="426.48,-179.5 426.48,-198.5 516.48,-198.5 516.48,-179.5 426.48,-179.5"/>
<text text-anchor="middle" x="471.48" y="-186.5" font-family="Helvetica,sans-Serif" font-size="10.00">src/fw/core.hpp</text>
</a>
</g>
</g>
<!-- Node2 -->
<g id="node2" class="node">
<title>Node2</title>
<g id="a_node2"><a xlink:href="control_8hpp.html" target="_top" xlink:title=" ">
<polygon fill="white" stroke="black" points="53.98,-123.5 53.98,-142.5 124.98,-142.5 124.98,-123.5 53.98,-123.5"/>
<text text-anchor="middle" x="89.48" y="-130.5" font-family="Helvetica,sans-Serif" font-size="10.00">control.hpp</text>
</a>
</g>
</g>
<!-- Node1&#45;&gt;Node2 -->
<g id="edge1" class="edge">
<title>Node1&#45;&gt;Node2</title>
<path fill="none" stroke="midnightblue" d="M426.16,-181.59C352.88,-171.24 209.18,-150.92 135.47,-140.5"/>
<polygon fill="midnightblue" stroke="midnightblue" points="135.51,-136.97 125.12,-139.04 134.53,-143.9 135.51,-136.97"/>
</g>
<!-- Node13 -->
<g id="node6" class="node">
<title>Node13</title>
<g id="a_node6"><a xlink:href="acquisition_8hpp.html" target="_top" xlink:title=" ">
<polygon fill="white" stroke="black" points="655.48,-67.5 655.48,-86.5 797.48,-86.5 797.48,-67.5 655.48,-67.5"/>
<text text-anchor="middle" x="726.48" y="-74.5" font-family="Helvetica,sans-Serif" font-size="10.00">fw/drivers/acquisition.hpp</text>
</a>
</g>
</g>
<!-- Node1&#45;&gt;Node13 -->
<g id="edge6" class="edge">
<title>Node1&#45;&gt;Node13</title>
<path fill="none" stroke="midnightblue" d="M499.12,-179.35C525.12,-170.95 564.94,-157.39 598.48,-143 635.44,-127.14 676.67,-105.45 702.09,-91.58"/>
<polygon fill="midnightblue" stroke="midnightblue" points="703.94,-94.55 711.02,-86.67 700.57,-88.42 703.94,-94.55"/>
</g>
<!-- Node23 -->
<g id="node16" class="node">
<title>Node23</title>
<g id="a_node16"><a xlink:href="monitor_8hpp.html" target="_top" xlink:title=" ">
<polygon fill="white" stroke="black" points="499.98,-123.5 499.98,-142.5 588.98,-142.5 588.98,-123.5 499.98,-123.5"/>
<text text-anchor="middle" x="544.48" y="-130.5" font-family="Helvetica,sans-Serif" font-size="10.00">fw/monitor.hpp</text>
</a>
</g>
</g>
<!-- Node1&#45;&gt;Node23 -->
<g id="edge16" class="edge">
<title>Node1&#45;&gt;Node23</title>
<path fill="none" stroke="midnightblue" d="M483.2,-179.32C494.31,-171.11 511.22,-158.6 524.46,-148.81"/>
<polygon fill="midnightblue" stroke="midnightblue" points="526.58,-151.59 532.53,-142.83 522.41,-145.97 526.58,-151.59"/>
</g>
<!-- Node24 -->
<g id="node17" class="node">
<title>Node24</title>
<g id="a_node17"><a xlink:href="indication_8hpp.html" target="_top" xlink:title=" ">
<polygon fill="white" stroke="red" points="461.48,-67.5 461.48,-86.5 547.48,-86.5 547.48,-67.5 461.48,-67.5"/>
<text text-anchor="middle" x="504.48" y="-74.5" font-family="Helvetica,sans-Serif" font-size="10.00">indication.hpp</text>
</a>
</g>
</g>
<!-- Node1&#45;&gt;Node24 -->
<g id="edge20" class="edge">
<title>Node1&#45;&gt;Node24</title>
<path fill="none" stroke="midnightblue" d="M474.07,-179.37C479.41,-161.54 491.79,-120.3 498.99,-96.27"/>
<polygon fill="midnightblue" stroke="midnightblue" points="502.38,-97.18 501.9,-86.59 495.67,-95.16 502.38,-97.18"/>
</g>
<!-- Node26 -->
<g id="node18" class="node">
<title>Node26</title>
<g id="a_node18"><a xlink:href="metrics_8hpp.html" target="_top" xlink:title=" ">
<polygon fill="white" stroke="black" points="336.48,-123.5 336.48,-142.5 410.48,-142.5 410.48,-123.5 336.48,-123.5"/>
<text text-anchor="middle" x="373.48" y="-130.5" font-family="Helvetica,sans-Serif" font-size="10.00">metrics.hpp</text>
</a>
</g>
</g>
<!-- Node1&#45;&gt;Node26 -->
<g id="edge21" class="edge">
<title>Node1&#45;&gt;Node26</title>
<path fill="none" stroke="midnightblue" d="M455.73,-179.32C440.16,-170.74 416.1,-157.49 398.02,-147.52"/>
<polygon fill="midnightblue" stroke="midnightblue" points="399.63,-144.42 389.18,-142.65 396.25,-150.55 399.63,-144.42"/>
</g>
<!-- Node3 -->
<g id="node3" class="node">
<title>Node3</title>
<g id="a_node3"><a xlink:href="base_8hpp.html" target="_top" xlink:title=" ">
<polygon fill="white" stroke="red" points="107.98,-6 107.98,-25 168.98,-25 168.98,-6 107.98,-6"/>
<text text-anchor="middle" x="138.48" y="-13" font-family="Helvetica,sans-Serif" font-size="10.00">base.hpp</text>
</a>
</g>
</g>
<!-- Node2&#45;&gt;Node3 -->
<g id="edge2" class="edge">
<title>Node2&#45;&gt;Node3</title>
<path fill="none" stroke="midnightblue" d="M60.23,-123.43C29.13,-112.76 -13.33,-92.74 4.48,-67 25.25,-36.97 66.31,-24.77 97.52,-19.83"/>
<polygon fill="midnightblue" stroke="midnightblue" points="98.27,-23.26 107.69,-18.42 97.31,-16.33 98.27,-23.26"/>
</g>
<!-- Node10 -->
<g id="node4" class="node">
<title>Node10</title>
<g id="a_node4"><a xlink:href="pid__module_8hpp.html" target="_top" xlink:title=" ">
<polygon fill="white" stroke="red" points="83.48,-67.5 83.48,-86.5 193.48,-86.5 193.48,-67.5 83.48,-67.5"/>
<text text-anchor="middle" x="138.48" y="-74.5" font-family="Helvetica,sans-Serif" font-size="10.00">ctl/pid_module.hpp</text>
</a>
</g>
</g>
<!-- Node2&#45;&gt;Node10 -->
<g id="edge3" class="edge">
<title>Node2&#45;&gt;Node10</title>
<path fill="none" stroke="midnightblue" d="M97.57,-123.08C104.63,-115.3 115.06,-103.8 123.62,-94.37"/>
<polygon fill="midnightblue" stroke="midnightblue" points="126.41,-96.51 130.53,-86.75 121.22,-91.8 126.41,-96.51"/>
</g>
<!-- Node12 -->
<g id="node5" class="node">
<title>Node12</title>
<g id="a_node5"><a xlink:title=" ">
<polygon fill="white" stroke="#bfbfbf" points="13.98,-67.5 13.98,-86.5 64.98,-86.5 64.98,-67.5 13.98,-67.5"/>
<text text-anchor="middle" x="39.48" y="-74.5" font-family="Helvetica,sans-Serif" font-size="10.00">variant</text>
</a>
</g>
</g>
<!-- Node2&#45;&gt;Node12 -->
<g id="edge5" class="edge">
<title>Node2&#45;&gt;Node12</title>
<path fill="none" stroke="midnightblue" d="M81.22,-123.08C74.01,-115.3 63.37,-103.8 54.63,-94.37"/>
<polygon fill="midnightblue" stroke="midnightblue" points="56.94,-91.71 47.58,-86.75 51.8,-96.47 56.94,-91.71"/>
</g>
<!-- Node10&#45;&gt;Node3 -->
<g id="edge4" class="edge">
<title>Node10&#45;&gt;Node3</title>
<path fill="none" stroke="midnightblue" d="M138.48,-67.48C138.48,-59.08 138.48,-45.98 138.48,-35.16"/>
<polygon fill="midnightblue" stroke="midnightblue" points="141.98,-35.01 138.48,-25.01 134.98,-35.01 141.98,-35.01"/>
</g>
<!-- Node14 -->
<g id="node7" class="node">
<title>Node14</title>
<g id="a_node7"><a xlink:href="current_8hpp.html" target="_top" xlink:title=" ">
<polygon fill="white" stroke="red" points="1273.48,-6 1273.48,-25 1401.48,-25 1401.48,-6 1273.48,-6"/>
<text text-anchor="middle" x="1337.48" y="-13" font-family="Helvetica,sans-Serif" font-size="10.00">conversion/current.hpp</text>
</a>
</g>
</g>
<!-- Node13&#45;&gt;Node14 -->
<g id="edge7" class="edge">
<title>Node13&#45;&gt;Node14</title>
<path fill="none" stroke="midnightblue" d="M797.69,-72.6C900.95,-67.1 1098.1,-54.41 1264.48,-31 1272.3,-29.9 1280.56,-28.5 1288.59,-27"/>
<polygon fill="midnightblue" stroke="midnightblue" points="1289.44,-30.4 1298.59,-25.07 1288.11,-23.53 1289.44,-30.4"/>
</g>
<!-- Node15 -->
<g id="node8" class="node">
<title>Node15</title>
<g id="a_node8"><a xlink:href="position_8hpp.html" target="_top" xlink:title=" ">
<polygon fill="white" stroke="red" points="186.98,-6 186.98,-25 319.98,-25 319.98,-6 186.98,-6"/>
<text text-anchor="middle" x="253.48" y="-13" font-family="Helvetica,sans-Serif" font-size="10.00">conversion/position.hpp</text>
</a>
</g>
</g>
<!-- Node13&#45;&gt;Node15 -->
<g id="edge8" class="edge">
<title>Node13&#45;&gt;Node15</title>
<path fill="none" stroke="midnightblue" d="M655.26,-69.57C575.65,-61.99 442.97,-48.23 329.48,-31 321.63,-29.81 313.36,-28.4 305.28,-26.93"/>
<polygon fill="midnightblue" stroke="midnightblue" points="305.66,-23.44 295.19,-25.05 304.38,-30.32 305.66,-23.44"/>
</g>
<!-- Node16 -->
<g id="node9" class="node">
<title>Node16</title>
<g id="a_node9"><a xlink:href="temperature_8hpp.html" target="_top" xlink:title=" ">
<polygon fill="white" stroke="black" points="337.98,-6 337.98,-25 492.98,-25 492.98,-6 337.98,-6"/>
<text text-anchor="middle" x="415.48" y="-13" font-family="Helvetica,sans-Serif" font-size="10.00">conversion/temperature.hpp</text>
</a>
</g>
</g>
<!-- Node13&#45;&gt;Node16 -->
<g id="edge9" class="edge">
<title>Node13&#45;&gt;Node16</title>
<path fill="none" stroke="midnightblue" d="M681.92,-67.48C626.03,-56.78 530.25,-38.46 470.03,-26.94"/>
<polygon fill="midnightblue" stroke="midnightblue" points="470.43,-23.45 459.95,-25.01 469.12,-30.33 470.43,-23.45"/>
</g>
<!-- Node17 -->
<g id="node10" class="node">
<title>Node17</title>
<g id="a_node10"><a xlink:href="voltage_8hpp.html" target="_top" xlink:title=" ">
<polygon fill="white" stroke="black" points="510.98,-6 510.98,-25 641.98,-25 641.98,-6 510.98,-6"/>
<text text-anchor="middle" x="576.48" y="-13" font-family="Helvetica,sans-Serif" font-size="10.00">conversion/voltage.hpp</text>
</a>
</g>
</g>
<!-- Node13&#45;&gt;Node17 -->
<g id="edge10" class="edge">
<title>Node13&#45;&gt;Node17</title>
<path fill="none" stroke="midnightblue" d="M704.98,-67.48C679.37,-57.31 636.37,-40.26 607.23,-28.7"/>
<polygon fill="midnightblue" stroke="midnightblue" points="608.51,-25.44 597.93,-25.01 605.93,-31.95 608.51,-25.44"/>
</g>
<!-- Node18 -->
<g id="node11" class="node">
<title>Node18</title>
<g id="a_node11"><a xlink:title=" ">
<polygon fill="white" stroke="#bfbfbf" points="659.98,-0.5 659.98,-30.5 792.98,-30.5 792.98,-0.5 659.98,-0.5"/>
<text text-anchor="start" x="667.98" y="-18.5" font-family="Helvetica,sans-Serif" font-size="10.00">emlabcpp/experimental</text>
<text text-anchor="middle" x="726.48" y="-7.5" font-family="Helvetica,sans-Serif" font-size="10.00">/function_view.h</text>
</a>
</g>
</g>
<!-- Node13&#45;&gt;Node18 -->
<g id="edge11" class="edge">
<title>Node13&#45;&gt;Node18</title>
<path fill="none" stroke="midnightblue" d="M726.48,-67.48C726.48,-60.47 726.48,-50.19 726.48,-40.7"/>
<polygon fill="midnightblue" stroke="midnightblue" points="729.98,-40.52 726.48,-30.52 722.98,-40.52 729.98,-40.52"/>
</g>
<!-- Node19 -->
<g id="node12" class="node">
<title>Node19</title>
<g id="a_node12"><a xlink:title=" ">
<polygon fill="white" stroke="#bfbfbf" points="810.98,-6 810.98,-25 959.98,-25 959.98,-6 810.98,-6"/>
<text text-anchor="middle" x="885.48" y="-13" font-family="Helvetica,sans-Serif" font-size="10.00">emlabcpp/static_function.h</text>
</a>
</g>
</g>
<!-- Node13&#45;&gt;Node19 -->
<g id="edge12" class="edge">
<title>Node13&#45;&gt;Node19</title>
<path fill="none" stroke="midnightblue" d="M749.26,-67.48C776.53,-57.27 822.39,-40.11 853.28,-28.55"/>
<polygon fill="midnightblue" stroke="midnightblue" points="854.6,-31.79 862.74,-25.01 852.14,-25.24 854.6,-31.79"/>
</g>
<!-- Node20 -->
<g id="node13" class="node">
<title>Node20</title>
<g id="a_node13"><a xlink:title=" ">
<polygon fill="white" stroke="#bfbfbf" points="977.98,-6 977.98,-25 1076.98,-25 1076.98,-6 977.98,-6"/>
<text text-anchor="middle" x="1027.48" y="-13" font-family="Helvetica,sans-Serif" font-size="10.00">emlabcpp/view.h</text>
</a>
</g>
</g>
<!-- Node13&#45;&gt;Node20 -->
<g id="edge13" class="edge">
<title>Node13&#45;&gt;Node20</title>
<path fill="none" stroke="midnightblue" d="M777.86,-67.44C827.17,-58.99 903.65,-45.31 969.48,-31 974.48,-29.91 979.71,-28.7 984.9,-27.46"/>
<polygon fill="midnightblue" stroke="midnightblue" points="985.85,-30.83 994.74,-25.06 984.19,-24.03 985.85,-30.83"/>
</g>
<!-- Node21 -->
<g id="node14" class="node">
<title>Node21</title>
<g id="a_node14"><a xlink:title=" ">
<polygon fill="white" stroke="#bfbfbf" points="1095.48,-6 1095.48,-25 1135.48,-25 1135.48,-6 1095.48,-6"/>
<text text-anchor="middle" x="1115.48" y="-13" font-family="Helvetica,sans-Serif" font-size="10.00">span</text>
</a>
</g>
</g>
<!-- Node13&#45;&gt;Node21 -->
<g id="edge14" class="edge">
<title>Node13&#45;&gt;Node21</title>
<path fill="none" stroke="midnightblue" d="M797.63,-74.18C871.32,-70.67 989.12,-60.48 1086.48,-31 1088.14,-30.5 1089.83,-29.9 1091.51,-29.25"/>
<polygon fill="midnightblue" stroke="midnightblue" points="1093.16,-32.34 1100.82,-25.03 1090.27,-25.96 1093.16,-32.34"/>
</g>
<!-- Node22 -->
<g id="node15" class="node">
<title>Node22</title>
<g id="a_node15"><a xlink:title=" ">
<polygon fill="white" stroke="#bfbfbf" points="1153.98,-6 1153.98,-25 1254.98,-25 1254.98,-6 1153.98,-6"/>
<text text-anchor="middle" x="1204.48" y="-13" font-family="Helvetica,sans-Serif" font-size="10.00">stm32g4xx_hal.h</text>
</a>
</g>
</g>
<!-- Node13&#45;&gt;Node22 -->
<g id="edge15" class="edge">
<title>Node13&#45;&gt;Node22</title>
<path fill="none" stroke="midnightblue" d="M797.5,-71.18C880.98,-64.86 1023.49,-52.04 1144.48,-31 1150.36,-29.98 1156.53,-28.71 1162.57,-27.36"/>
<polygon fill="midnightblue" stroke="midnightblue" points="1163.62,-30.71 1172.56,-25.03 1162.03,-23.89 1163.62,-30.71"/>
</g>
<!-- Node23&#45;&gt;Node13 -->
<g id="edge17" class="edge">
<title>Node23&#45;&gt;Node13</title>
<path fill="none" stroke="midnightblue" d="M573.31,-123.44C604.33,-114.24 653.8,-99.56 688.09,-89.39"/>
<polygon fill="midnightblue" stroke="midnightblue" points="689.18,-92.72 697.77,-86.52 687.19,-86.01 689.18,-92.72"/>
</g>
<!-- Node23&#45;&gt;Node24 -->
<g id="edge18" class="edge">
<title>Node23&#45;&gt;Node24</title>
<path fill="none" stroke="midnightblue" d="M537.87,-123.08C532.22,-115.46 523.93,-104.26 517.02,-94.94"/>
<polygon fill="midnightblue" stroke="midnightblue" points="519.72,-92.7 510.96,-86.75 514.1,-96.87 519.72,-92.7"/>
</g>
<!-- Node24&#45;&gt;Node3 -->
<g id="edge19" class="edge">
<title>Node24&#45;&gt;Node3</title>
<path fill="none" stroke="midnightblue" d="M461.37,-68.4C458.36,-67.91 455.37,-67.44 452.48,-67 330.61,-48.49 297.12,-60.67 177.48,-31 174.49,-30.26 171.41,-29.36 168.36,-28.38"/>
<polygon fill="midnightblue" stroke="midnightblue" points="169.44,-25.05 158.85,-25.06 167.13,-31.66 169.44,-25.05"/>
</g>
<!-- Node26&#45;&gt;Node3 -->
<g id="edge22" class="edge">
<title>Node26&#45;&gt;Node3</title>
<path fill="none" stroke="midnightblue" d="M373.6,-123.4C373.31,-109.41 370.57,-81.8 354.48,-67 295.39,-12.66 254.66,-53.05 177.48,-31 174.83,-30.24 172.11,-29.39 169.4,-28.49"/>
<polygon fill="midnightblue" stroke="midnightblue" points="170.33,-25.11 159.73,-25.08 168,-31.71 170.33,-25.11"/>
</g>
<!-- Node27 -->
<g id="node19" class="node">
<title>Node27</title>
<g id="a_node19"><a xlink:href="kalman_8hpp.html" target="_top" xlink:title=" ">
<polygon fill="white" stroke="red" points="211.48,-67.5 211.48,-86.5 285.48,-86.5 285.48,-67.5 211.48,-67.5"/>
<text text-anchor="middle" x="248.48" y="-74.5" font-family="Helvetica,sans-Serif" font-size="10.00">kalman.hpp</text>
</a>
</g>
</g>
<!-- Node26&#45;&gt;Node27 -->
<g id="edge23" class="edge">
<title>Node26&#45;&gt;Node27</title>
<path fill="none" stroke="midnightblue" d="M353.67,-123.44C333.19,-114.6 300.99,-100.69 277.61,-90.59"/>
<polygon fill="midnightblue" stroke="midnightblue" points="278.76,-87.27 268.19,-86.52 275.98,-93.7 278.76,-87.27"/>
</g>
<!-- Node29 -->
<g id="node20" class="node">
<title>Node29</title>
<g id="a_node20"><a xlink:title=" ">
<polygon fill="white" stroke="#bfbfbf" points="401.48,-67.5 401.48,-86.5 443.48,-86.5 443.48,-67.5 401.48,-67.5"/>
<text text-anchor="middle" x="422.48" y="-74.5" font-family="Helvetica,sans-Serif" font-size="10.00">array</text>
</a>
</g>
</g>
<!-- Node26&#45;&gt;Node29 -->
<g id="edge25" class="edge">
<title>Node26&#45;&gt;Node29</title>
<path fill="none" stroke="midnightblue" d="M381.57,-123.08C388.63,-115.3 399.06,-103.8 407.62,-94.37"/>
<polygon fill="midnightblue" stroke="midnightblue" points="410.41,-96.51 414.53,-86.75 405.22,-91.8 410.41,-96.51"/>
</g>
<!-- Node30 -->
<g id="node21" class="node">
<title>Node30</title>
<g id="a_node21"><a xlink:title=" ">
<polygon fill="white" stroke="#bfbfbf" points="303.98,-67.5 303.98,-86.5 344.98,-86.5 344.98,-67.5 303.98,-67.5"/>
<text text-anchor="middle" x="324.48" y="-74.5" font-family="Helvetica,sans-Serif" font-size="10.00">tuple</text>
</a>
</g>
</g>
<!-- Node26&#45;&gt;Node30 -->
<g id="edge26" class="edge">
<title>Node26&#45;&gt;Node30</title>
<path fill="none" stroke="midnightblue" d="M365.38,-123.08C358.32,-115.3 347.89,-103.8 339.33,-94.37"/>
<polygon fill="midnightblue" stroke="midnightblue" points="341.73,-91.8 332.42,-86.75 336.54,-96.51 341.73,-91.8"/>
</g>
<!-- Node27&#45;&gt;Node3 -->
<g id="edge24" class="edge">
<title>Node27&#45;&gt;Node3</title>
<path fill="none" stroke="midnightblue" d="M232.72,-67.48C214.5,-57.62 184.3,-41.29 163.01,-29.77"/>
<polygon fill="midnightblue" stroke="midnightblue" points="164.67,-26.69 154.21,-25.01 161.34,-32.85 164.67,-26.69"/>
</g>
</g>
</svg>
