<?xml version="1.0" encoding="UTF-8" standalone="no"?>
<!DOCTYPE svg PUBLIC "-//W3C//DTD SVG 1.1//EN"
 "http://www.w3.org/Graphics/SVG/1.1/DTD/svg11.dtd">
<!-- Generated by graphviz version 2.43.0 (0)
 -->
<!-- Title: src/core.hpp Pages: 1 -->
<svg width="1081pt" height="263pt"
 viewBox="0.00 0.00 1080.50 263.00" xmlns="http://www.w3.org/2000/svg" xmlns:xlink="http://www.w3.org/1999/xlink">
<g id="graph0" class="graph" transform="scale(1 1) rotate(0) translate(4 259)">
<title>src/core.hpp</title>
<polygon fill="white" stroke="transparent" points="-4,4 -4,-259 1076.5,-259 1076.5,4 -4,4"/>
<!-- Node1 -->
<g id="node1" class="node">
<title>Node1</title>
<g id="a_node1"><a xlink:title=" ">
<polygon fill="#bfbfbf" stroke="black" points="423,-235.5 423,-254.5 499,-254.5 499,-235.5 423,-235.5"/>
<text text-anchor="middle" x="461" y="-242.5" font-family="Helvetica,sans-Serif" font-size="10.00">src/core.hpp</text>
</a>
</g>
</g>
<!-- Node2 -->
<g id="node2" class="node">
<title>Node2</title>
<g id="a_node2"><a xlink:href="control_8hpp.html" target="_top" xlink:title=" ">
<polygon fill="white" stroke="black" points="237,-123.5 237,-142.5 323,-142.5 323,-123.5 237,-123.5"/>
<text text-anchor="middle" x="280" y="-130.5" font-family="Helvetica,sans-Serif" font-size="10.00">ctl/control.hpp</text>
</a>
</g>
</g>
<!-- Node1&#45;&gt;Node2 -->
<g id="edge1" class="edge">
<title>Node1&#45;&gt;Node2</title>
<path fill="none" stroke="midnightblue" d="M446.8,-235.37C415.61,-216.41 340.88,-171 302.94,-147.94"/>
<polygon fill="midnightblue" stroke="midnightblue" points="304.5,-144.79 294.14,-142.59 300.86,-150.78 304.5,-144.79"/>
</g>
<!-- Node14 -->
<g id="node9" class="node">
<title>Node14</title>
<g id="a_node9"><a xlink:href="indication_8hpp.html" target="_top" xlink:title=" ">
<polygon fill="white" stroke="black" points="367,-123.5 367,-142.5 477,-142.5 477,-123.5 367,-123.5"/>
<text text-anchor="middle" x="422" y="-130.5" font-family="Helvetica,sans-Serif" font-size="10.00">mon/indication.hpp</text>
</a>
</g>
</g>
<!-- Node1&#45;&gt;Node14 -->
<g id="edge10" class="edge">
<title>Node1&#45;&gt;Node14</title>
<path fill="none" stroke="midnightblue" d="M456.66,-235.18C452.34,-226.21 445.71,-211.84 441,-199 435.31,-183.48 430.14,-165.39 426.63,-152.25"/>
<polygon fill="midnightblue" stroke="midnightblue" points="430.01,-151.33 424.1,-142.53 423.23,-153.09 430.01,-151.33"/>
</g>
<!-- Node16 -->
<g id="node11" class="node">
<title>Node16</title>
<g id="a_node11"><a xlink:href="monitor_8hpp.html" target="_top" xlink:title=" ">
<polygon fill="white" stroke="black" points="450,-179.5 450,-198.5 550,-198.5 550,-179.5 450,-179.5"/>
<text text-anchor="middle" x="500" y="-186.5" font-family="Helvetica,sans-Serif" font-size="10.00">mon/monitor.hpp</text>
</a>
</g>
</g>
<!-- Node1&#45;&gt;Node16 -->
<g id="edge13" class="edge">
<title>Node1&#45;&gt;Node16</title>
<path fill="none" stroke="midnightblue" d="M467.44,-235.08C472.95,-227.46 481.03,-216.26 487.76,-206.94"/>
<polygon fill="midnightblue" stroke="midnightblue" points="490.66,-208.91 493.68,-198.75 484.99,-204.81 490.66,-208.91"/>
</g>
<!-- Node26 -->
<g id="node14" class="node">
<title>Node26</title>
<g id="a_node14"><a xlink:href="metrics_8hpp.html" target="_top" xlink:title=" ">
<polygon fill="white" stroke="black" points="786.5,-179.5 786.5,-198.5 881.5,-198.5 881.5,-179.5 786.5,-179.5"/>
<text text-anchor="middle" x="834" y="-186.5" font-family="Helvetica,sans-Serif" font-size="10.00">mtr/metrics.hpp</text>
</a>
</g>
</g>
<!-- Node1&#45;&gt;Node26 -->
<g id="edge19" class="edge">
<title>Node1&#45;&gt;Node26</title>
<path fill="none" stroke="midnightblue" d="M499.16,-238.47C564.73,-228.98 699.15,-209.52 776.24,-198.36"/>
<polygon fill="midnightblue" stroke="midnightblue" points="776.87,-201.81 786.27,-196.91 775.87,-194.88 776.87,-201.81"/>
</g>
<!-- Node3 -->
<g id="node3" class="node">
<title>Node3</title>
<g id="a_node3"><a xlink:href="base_8hpp.html" target="_top" xlink:title=" ">
<polygon fill="white" stroke="red" points="417.5,-0.5 417.5,-19.5 478.5,-19.5 478.5,-0.5 417.5,-0.5"/>
<text text-anchor="middle" x="448" y="-7.5" font-family="Helvetica,sans-Serif" font-size="10.00">base.hpp</text>
</a>
</g>
</g>
<!-- Node2&#45;&gt;Node3 -->
<g id="edge2" class="edge">
<title>Node2&#45;&gt;Node3</title>
<path fill="none" stroke="midnightblue" d="M236.88,-126.73C211.98,-121.23 182.59,-109.98 167,-87 159.27,-75.6 158.06,-66.48 167,-56 197.34,-20.42 336.43,-12.85 406.87,-11.33"/>
<polygon fill="midnightblue" stroke="midnightblue" points="407.22,-14.82 417.15,-11.14 407.09,-7.82 407.22,-14.82"/>
</g>
<!-- Node8 -->
<g id="node4" class="node">
<title>Node8</title>
<g id="a_node4"><a xlink:href="config_8hpp.html" target="_top" xlink:title=" ">
<polygon fill="white" stroke="black" points="0,-62 0,-81 82,-81 82,-62 0,-62"/>
<text text-anchor="middle" x="41" y="-69" font-family="Helvetica,sans-Serif" font-size="10.00">ctl/config.hpp</text>
</a>
</g>
</g>
<!-- Node2&#45;&gt;Node8 -->
<g id="edge3" class="edge">
<title>Node2&#45;&gt;Node8</title>
<path fill="none" stroke="midnightblue" d="M244.34,-123.48C207.23,-114.57 147.48,-100.08 96,-87 91.68,-85.9 87.18,-84.74 82.69,-83.58"/>
<polygon fill="midnightblue" stroke="midnightblue" points="83.53,-80.18 72.97,-81.03 81.75,-86.95 83.53,-80.18"/>
</g>
<!-- Node9 -->
<g id="node5" class="node">
<title>Node9</title>
<g id="a_node5"><a xlink:title=" ">
<polygon fill="white" stroke="#bfbfbf" points="30,-0.5 30,-19.5 122,-19.5 122,-0.5 30,-0.5"/>
<text text-anchor="middle" x="76" y="-7.5" font-family="Helvetica,sans-Serif" font-size="10.00">emlabcpp/pid.h</text>
</a>
</g>
</g>
<!-- Node2&#45;&gt;Node9 -->
<g id="edge7" class="edge">
<title>Node2&#45;&gt;Node9</title>
<path fill="none" stroke="midnightblue" d="M245.71,-123.48C220.06,-116.18 184.78,-104.11 157,-87 130.44,-70.64 105.09,-44.6 90.04,-27.65"/>
<polygon fill="midnightblue" stroke="midnightblue" points="92.35,-24.98 83.16,-19.72 87.07,-29.56 92.35,-24.98"/>
</g>
<!-- Node10 -->
<g id="node6" class="node">
<title>Node10</title>
<g id="a_node6"><a xlink:href="linear__transition__regulator_8hpp.html" target="_top" xlink:title=" ">
<polygon fill="white" stroke="red" points="176.5,-56.5 176.5,-86.5 287.5,-86.5 287.5,-56.5 176.5,-56.5"/>
<text text-anchor="start" x="184.5" y="-74.5" font-family="Helvetica,sans-Serif" font-size="10.00">ctl/linear_transition</text>
<text text-anchor="middle" x="232" y="-63.5" font-family="Helvetica,sans-Serif" font-size="10.00">_regulator.hpp</text>
</a>
</g>
</g>
<!-- Node2&#45;&gt;Node10 -->
<g id="edge5" class="edge">
<title>Node2&#45;&gt;Node10</title>
<path fill="none" stroke="midnightblue" d="M273.12,-123.48C267.05,-115.94 257.92,-104.63 249.8,-94.57"/>
<polygon fill="midnightblue" stroke="midnightblue" points="252.32,-92.11 243.31,-86.52 246.87,-96.5 252.32,-92.11"/>
</g>
<!-- Node12 -->
<g id="node7" class="node">
<title>Node12</title>
<g id="a_node7"><a xlink:title=" ">
<polygon fill="white" stroke="#bfbfbf" points="306,-62 306,-81 350,-81 350,-62 306,-62"/>
<text text-anchor="middle" x="328" y="-69" font-family="Helvetica,sans-Serif" font-size="10.00">limits</text>
</a>
</g>
</g>
<!-- Node2&#45;&gt;Node12 -->
<g id="edge8" class="edge">
<title>Node2&#45;&gt;Node12</title>
<path fill="none" stroke="midnightblue" d="M286.88,-123.48C294.15,-114.46 305.8,-100.02 314.84,-88.81"/>
<polygon fill="midnightblue" stroke="midnightblue" points="317.58,-90.99 321.14,-81.01 312.13,-86.59 317.58,-90.99"/>
</g>
<!-- Node13 -->
<g id="node8" class="node">
<title>Node13</title>
<g id="a_node8"><a xlink:title=" ">
<polygon fill="white" stroke="#bfbfbf" points="368.5,-62 368.5,-81 419.5,-81 419.5,-62 368.5,-62"/>
<text text-anchor="middle" x="394" y="-69" font-family="Helvetica,sans-Serif" font-size="10.00">variant</text>
</a>
</g>
</g>
<!-- Node2&#45;&gt;Node13 -->
<g id="edge9" class="edge">
<title>Node2&#45;&gt;Node13</title>
<path fill="none" stroke="midnightblue" d="M296.33,-123.48C315.21,-113.62 346.51,-97.29 368.58,-85.77"/>
<polygon fill="midnightblue" stroke="midnightblue" points="370.45,-88.74 377.7,-81.01 367.21,-82.53 370.45,-88.74"/>
</g>
<!-- Node8&#45;&gt;Node9 -->
<g id="edge4" class="edge">
<title>Node8&#45;&gt;Node9</title>
<path fill="none" stroke="midnightblue" d="M46.01,-61.98C51.16,-53.23 59.31,-39.37 65.82,-28.31"/>
<polygon fill="midnightblue" stroke="midnightblue" points="68.94,-29.9 70.99,-19.51 62.91,-26.35 68.94,-29.9"/>
</g>
<!-- Node10&#45;&gt;Node3 -->
<g id="edge6" class="edge">
<title>Node10&#45;&gt;Node3</title>
<path fill="none" stroke="midnightblue" d="M282.92,-56.47C320.94,-46 372.22,-31.87 407.49,-22.16"/>
<polygon fill="midnightblue" stroke="midnightblue" points="408.72,-25.45 417.43,-19.42 406.86,-18.7 408.72,-25.45"/>
</g>
<!-- Node14&#45;&gt;Node3 -->
<g id="edge11" class="edge">
<title>Node14&#45;&gt;Node3</title>
<path fill="none" stroke="midnightblue" d="M423.87,-123.3C428.07,-103.76 438.32,-56.06 444.01,-29.55"/>
<polygon fill="midnightblue" stroke="midnightblue" points="447.47,-30.14 446.15,-19.62 440.62,-28.66 447.47,-30.14"/>
</g>
<!-- Node15 -->
<g id="node10" class="node">
<title>Node15</title>
<g id="a_node10"><a xlink:title=" ">
<polygon fill="white" stroke="#bfbfbf" points="476,-56.5 476,-86.5 612,-86.5 612,-56.5 476,-56.5"/>
<text text-anchor="start" x="484" y="-74.5" font-family="Helvetica,sans-Serif" font-size="10.00">emlabcpp/static_circular</text>
<text text-anchor="middle" x="544" y="-63.5" font-family="Helvetica,sans-Serif" font-size="10.00">_buffer.h</text>
</a>
</g>
</g>
<!-- Node14&#45;&gt;Node15 -->
<g id="edge12" class="edge">
<title>Node14&#45;&gt;Node15</title>
<path fill="none" stroke="midnightblue" d="M439.48,-123.48C456.77,-115.04 483.81,-101.86 506.05,-91.01"/>
<polygon fill="midnightblue" stroke="midnightblue" points="507.79,-94.05 515.25,-86.52 504.72,-87.76 507.79,-94.05"/>
</g>
<!-- Node16&#45;&gt;Node2 -->
<g id="edge15" class="edge">
<title>Node16&#45;&gt;Node2</title>
<path fill="none" stroke="midnightblue" d="M465.14,-179.44C427.08,-170.1 366.04,-155.12 324.54,-144.93"/>
<polygon fill="midnightblue" stroke="midnightblue" points="325.24,-141.5 314.7,-142.52 323.57,-148.3 325.24,-141.5"/>
</g>
<!-- Node16&#45;&gt;Node14 -->
<g id="edge18" class="edge">
<title>Node16&#45;&gt;Node14</title>
<path fill="none" stroke="midnightblue" d="M487.47,-179.32C475.41,-170.98 456.97,-158.21 442.73,-148.35"/>
<polygon fill="midnightblue" stroke="midnightblue" points="444.72,-145.47 434.5,-142.65 440.73,-151.22 444.72,-145.47"/>
</g>
<!-- Node17 -->
<g id="node12" class="node">
<title>Node17</title>
<g id="a_node12"><a xlink:href="converter_8hpp.html" target="_top" xlink:title=" ">
<polygon fill="white" stroke="red" points="533,-123.5 533,-142.5 637,-142.5 637,-123.5 533,-123.5"/>
<text text-anchor="middle" x="585" y="-130.5" font-family="Helvetica,sans-Serif" font-size="10.00">cnv/converter.hpp</text>
</a>
</g>
</g>
<!-- Node16&#45;&gt;Node17 -->
<g id="edge14" class="edge">
<title>Node16&#45;&gt;Node17</title>
<path fill="none" stroke="midnightblue" d="M513.66,-179.32C526.92,-170.9 547.27,-157.97 562.85,-148.07"/>
<polygon fill="midnightblue" stroke="midnightblue" points="564.81,-150.97 571.38,-142.65 561.06,-145.06 564.81,-150.97"/>
</g>
<!-- Node22 -->
<g id="node13" class="node">
<title>Node22</title>
<g id="a_node13"><a xlink:href="drv__interfaces_8hpp.html" target="_top" xlink:title=" ">
<polygon fill="white" stroke="red" points="630.5,-62 630.5,-81 737.5,-81 737.5,-62 630.5,-62"/>
<text text-anchor="middle" x="684" y="-69" font-family="Helvetica,sans-Serif" font-size="10.00">drv_interfaces.hpp</text>
</a>
</g>
</g>
<!-- Node16&#45;&gt;Node22 -->
<g id="edge16" class="edge">
<title>Node16&#45;&gt;Node22</title>
<path fill="none" stroke="midnightblue" d="M500.83,-179.09C502.59,-165.17 507.98,-138.27 524,-123 532.77,-114.64 597.75,-95.81 642.15,-83.65"/>
<polygon fill="midnightblue" stroke="midnightblue" points="643.11,-87.02 651.84,-81.02 641.28,-80.27 643.11,-87.02"/>
</g>
<!-- Node22&#45;&gt;Node3 -->
<g id="edge17" class="edge">
<title>Node22&#45;&gt;Node3</title>
<path fill="none" stroke="midnightblue" d="M650.19,-61.98C607.53,-51.22 534.25,-32.74 488.6,-21.24"/>
<polygon fill="midnightblue" stroke="midnightblue" points="489.3,-17.8 478.75,-18.75 487.59,-24.59 489.3,-17.8"/>
</g>
<!-- Node26&#45;&gt;Node3 -->
<g id="edge20" class="edge">
<title>Node26&#45;&gt;Node3</title>
<path fill="none" stroke="midnightblue" d="M852.59,-179.38C875.16,-167.68 908.54,-145.6 894,-123 849.73,-54.18 590.38,-23.76 488.79,-14.37"/>
<polygon fill="midnightblue" stroke="midnightblue" points="488.88,-10.87 478.61,-13.45 488.25,-17.84 488.88,-10.87"/>
</g>
<!-- Node27 -->
<g id="node15" class="node">
<title>Node27</title>
<g id="a_node15"><a xlink:href="posvel__kalman_8hpp.html" target="_top" xlink:title=" ">
<polygon fill="white" stroke="red" points="941.5,-123.5 941.5,-142.5 1072.5,-142.5 1072.5,-123.5 941.5,-123.5"/>
<text text-anchor="middle" x="1007" y="-130.5" font-family="Helvetica,sans-Serif" font-size="10.00">mtr/posvel_kalman.hpp</text>
</a>
</g>
</g>
<!-- Node26&#45;&gt;Node27 -->
<g id="edge21" class="edge">
<title>Node26&#45;&gt;Node27</title>
<path fill="none" stroke="midnightblue" d="M861.41,-179.44C890.77,-170.28 937.52,-155.69 970.1,-145.52"/>
<polygon fill="midnightblue" stroke="midnightblue" points="971.21,-148.84 979.72,-142.52 969.13,-142.16 971.21,-148.84"/>
</g>
<!-- Node30 -->
<g id="node16" class="node">
<title>Node30</title>
<g id="a_node16"><a xlink:href="static__detector_8hpp.html" target="_top" xlink:title=" ">
<polygon fill="white" stroke="red" points="655,-123.5 655,-142.5 765,-142.5 765,-123.5 655,-123.5"/>
<text text-anchor="middle" x="710" y="-130.5" font-family="Helvetica,sans-Serif" font-size="10.00">static_detector.hpp</text>
</a>
</g>
</g>
<!-- Node26&#45;&gt;Node30 -->
<g id="edge22" class="edge">
<title>Node26&#45;&gt;Node30</title>
<path fill="none" stroke="midnightblue" d="M814.35,-179.44C794.04,-170.6 762.1,-156.69 738.9,-146.59"/>
<polygon fill="midnightblue" stroke="midnightblue" points="740.12,-143.3 729.56,-142.52 737.33,-149.72 740.12,-143.3"/>
</g>
<!-- Node32 -->
<g id="node17" class="node">
<title>Node32</title>
<g id="a_node17"><a xlink:title=" ">
<polygon fill="white" stroke="#bfbfbf" points="783,-123.5 783,-142.5 825,-142.5 825,-123.5 783,-123.5"/>
<text text-anchor="middle" x="804" y="-130.5" font-family="Helvetica,sans-Serif" font-size="10.00">array</text>
</a>
</g>
</g>
<!-- Node26&#45;&gt;Node32 -->
<g id="edge23" class="edge">
<title>Node26&#45;&gt;Node32</title>
<path fill="none" stroke="midnightblue" d="M829.05,-179.08C824.9,-171.61 818.85,-160.72 813.73,-151.52"/>
<polygon fill="midnightblue" stroke="midnightblue" points="816.78,-149.79 808.86,-142.75 810.66,-153.19 816.78,-149.79"/>
</g>
<!-- Node33 -->
<g id="node18" class="node">
<title>Node33</title>
<g id="a_node18"><a xlink:title=" ">
<polygon fill="white" stroke="#bfbfbf" points="843.5,-123.5 843.5,-142.5 884.5,-142.5 884.5,-123.5 843.5,-123.5"/>
<text text-anchor="middle" x="864" y="-130.5" font-family="Helvetica,sans-Serif" font-size="10.00">tuple</text>
</a>
</g>
</g>
<!-- Node26&#45;&gt;Node33 -->
<g id="edge24" class="edge">
<title>Node26&#45;&gt;Node33</title>
<path fill="none" stroke="midnightblue" d="M838.95,-179.08C843.1,-171.61 849.15,-160.72 854.27,-151.52"/>
<polygon fill="midnightblue" stroke="midnightblue" points="857.34,-153.19 859.14,-142.75 851.22,-149.79 857.34,-153.19"/>
</g>
</g>
</svg>
