<?xml version="1.0" encoding="UTF-8" standalone="no"?>
<!DOCTYPE svg PUBLIC "-//W3C//DTD SVG 1.1//EN"
 "http://www.w3.org/Graphics/SVG/1.1/DTD/svg11.dtd">
<!-- Generated by graphviz version 2.43.0 (0)
 -->
<!-- Title: src/core/dispatcher.cpp Pages: 1 -->
<svg width="1192pt" height="148pt"
 viewBox="0.00 0.00 1192.00 148.00" xmlns="http://www.w3.org/2000/svg" xmlns:xlink="http://www.w3.org/1999/xlink">
<g id="graph0" class="graph" transform="scale(1 1) rotate(0) translate(4 144)">
<title>src/core/dispatcher.cpp</title>
<!-- Node1 -->
<g id="Node000001" class="node">
<title>Node1</title>
<g id="a_Node000001"><a xlink:title=" ">
<polygon fill="#999999" stroke="#666666" points="954.5,-140 826.5,-140 826.5,-121 954.5,-121 954.5,-140"/>
<text text-anchor="middle" x="890.5" y="-128" font-family="Helvetica,sans-Serif" font-size="10.00">src/core/dispatcher.cpp</text>
</a>
</g>
</g>
<!-- Node2 -->
<g id="Node000002" class="node">
<title>Node2</title>
<g id="a_Node000002"><a xlink:href="core_2dispatcher_8hpp.html" target="_top" xlink:title=" ">
<polygon fill="white" stroke="#666666" points="402.5,-85 308.5,-85 308.5,-66 402.5,-66 402.5,-85"/>
<text text-anchor="middle" x="355.5" y="-73" font-family="Helvetica,sans-Serif" font-size="10.00">./dispatcher.hpp</text>
</a>
</g>
</g>
<!-- Node1&#45;&gt;Node2 -->
<g id="edge1_Node000001_Node000002" class="edge">
<title>Node1&#45;&gt;Node2</title>
<g id="a_edge1_Node000001_Node000002"><a xlink:title=" ">
<path fill="none" stroke="#63b8ff" d="M826.5,-123.16C721.25,-112.73 513.29,-92.13 412.68,-82.16"/>
<polygon fill="#63b8ff" stroke="#63b8ff" points="413,-78.68 402.7,-81.18 412.31,-85.65 413,-78.68"/>
</a>
</g>
</g>
<!-- Node42 -->
<g id="Node000042" class="node">
<title>Node42</title>
<g id="a_Node000042"><a xlink:href="utils_8hpp.html" target="_top" xlink:title=" ">
<polygon fill="#fff0f0" stroke="red" points="690.5,-85 602.5,-85 602.5,-66 690.5,-66 690.5,-85"/>
<text text-anchor="middle" x="646.5" y="-73" font-family="Helvetica,sans-Serif" font-size="10.00">../cnv/utils.hpp</text>
</a>
</g>
</g>
<!-- Node1&#45;&gt;Node42 -->
<g id="edge7_Node000001_Node000042" class="edge">
<title>Node1&#45;&gt;Node42</title>
<g id="a_edge7_Node000001_Node000042"><a xlink:title=" ">
<path fill="none" stroke="#63b8ff" d="M851.3,-120.98C809.09,-111.82 741.85,-97.21 696.02,-87.26"/>
<polygon fill="#63b8ff" stroke="#63b8ff" points="696.53,-83.78 686.01,-85.08 695.04,-90.63 696.53,-83.78"/>
</a>
</g>
</g>
<!-- Node58 -->
<g id="Node000058" class="node">
<title>Node58</title>
<g id="a_Node000058"><a xlink:href="atom__visit_8hpp.html" target="_top" xlink:title=" ">
<polygon fill="white" stroke="#666666" points="822,-85 709,-85 709,-66 822,-66 822,-85"/>
<text text-anchor="middle" x="765.5" y="-73" font-family="Helvetica,sans-Serif" font-size="10.00">../lib/atom_visit.hpp</text>
</a>
</g>
</g>
<!-- Node1&#45;&gt;Node58 -->
<g id="edge8_Node000001_Node000058" class="edge">
<title>Node1&#45;&gt;Node58</title>
<g id="a_edge8_Node000001_Node000058"><a xlink:title=" ">
<path fill="none" stroke="#63b8ff" d="M870.42,-120.98C850.13,-112.38 818.54,-98.99 795.33,-89.15"/>
<polygon fill="#63b8ff" stroke="#63b8ff" points="796.52,-85.85 785.95,-85.17 793.79,-92.3 796.52,-85.85"/>
</a>
</g>
</g>
<!-- Node60 -->
<g id="Node000060" class="node">
<title>Node60</title>
<g id="a_Node000060"><a xlink:href="json__ser_8hpp.html" target="_top" xlink:title=" ">
<polygon fill="white" stroke="#666666" points="941,-85 840,-85 840,-66 941,-66 941,-85"/>
<text text-anchor="middle" x="890.5" y="-73" font-family="Helvetica,sans-Serif" font-size="10.00">../lib/json_ser.hpp</text>
</a>
</g>
</g>
<!-- Node1&#45;&gt;Node60 -->
<g id="edge11_Node000001_Node000060" class="edge">
<title>Node1&#45;&gt;Node60</title>
<g id="a_edge11_Node000001_Node000060"><a xlink:title=" ">
<path fill="none" stroke="#63b8ff" d="M890.5,-120.75C890.5,-113.8 890.5,-103.85 890.5,-95.13"/>
<polygon fill="#63b8ff" stroke="#63b8ff" points="894,-95.09 890.5,-85.09 887,-95.09 894,-95.09"/>
</a>
</g>
</g>
<!-- Node29 -->
<g id="Node000029" class="node">
<title>Node29</title>
<g id="a_Node000029"><a xlink:href="status_8hpp.html" target="_top" xlink:title=" ">
<polygon fill="#fff0f0" stroke="red" points="1036,-85 959,-85 959,-66 1036,-66 1036,-85"/>
<text text-anchor="middle" x="997.5" y="-73" font-family="Helvetica,sans-Serif" font-size="10.00">../status.hpp</text>
</a>
</g>
</g>
<!-- Node1&#45;&gt;Node29 -->
<g id="edge14_Node000001_Node000029" class="edge">
<title>Node1&#45;&gt;Node29</title>
<g id="a_edge14_Node000001_Node000029"><a xlink:title=" ">
<path fill="none" stroke="#63b8ff" d="M907.69,-120.98C924.75,-112.54 951.13,-99.47 970.9,-89.68"/>
<polygon fill="#63b8ff" stroke="#63b8ff" points="972.59,-92.75 980,-85.17 969.48,-86.47 972.59,-92.75"/>
</a>
</g>
</g>
<!-- Node62 -->
<g id="Node000062" class="node">
<title>Node62</title>
<g id="a_Node000062"><a xlink:title=" ">
<polygon fill="#e0e0e0" stroke="#999999" points="1092.5,-85 1054.5,-85 1054.5,-66 1092.5,-66 1092.5,-85"/>
<text text-anchor="middle" x="1073.5" y="-73" font-family="Helvetica,sans-Serif" font-size="10.00">git.h</text>
</a>
</g>
</g>
<!-- Node1&#45;&gt;Node62 -->
<g id="edge15_Node000001_Node000062" class="edge">
<title>Node1&#45;&gt;Node62</title>
<g id="a_edge15_Node000001_Node000062"><a xlink:title=" ">
<path fill="none" stroke="#63b8ff" d="M920.83,-120.94C950.16,-112.63 996.07,-99.53 1044.51,-85.26"/>
<polygon fill="#63b8ff" stroke="#63b8ff" points="1045.63,-88.58 1054.23,-82.39 1043.65,-81.87 1045.63,-88.58"/>
</a>
</g>
</g>
<!-- Node52 -->
<g id="Node000052" class="node">
<title>Node52</title>
<g id="a_Node000052"><a xlink:title=" ">
<polygon fill="#e0e0e0" stroke="#999999" points="1184,-85 1111,-85 1111,-66 1184,-66 1184,-85"/>
<text text-anchor="middle" x="1147.5" y="-73" font-family="Helvetica,sans-Serif" font-size="10.00">string_view</text>
</a>
</g>
</g>
<!-- Node1&#45;&gt;Node52 -->
<g id="edge16_Node000001_Node000052" class="edge">
<title>Node1&#45;&gt;Node52</title>
<g id="a_edge16_Node000001_Node000052"><a xlink:title=" ">
<path fill="none" stroke="#63b8ff" d="M931.79,-120.98C978.02,-111.45 1052.77,-96.04 1101.02,-86.09"/>
<polygon fill="#63b8ff" stroke="#63b8ff" points="1101.8,-89.5 1110.89,-84.05 1100.39,-82.64 1101.8,-89.5"/>
</a>
</g>
</g>
<!-- Node3 -->
<g id="Node000003" class="node">
<title>Node3</title>
<g id="a_Node000003"><a xlink:href="cfg_2dispatcher_8hpp.html" target="_top" xlink:title=" ">
<polygon fill="#fff0f0" stroke="red" points="115,-24.5 0,-24.5 0,-5.5 115,-5.5 115,-24.5"/>
<text text-anchor="middle" x="57.5" y="-12.5" font-family="Helvetica,sans-Serif" font-size="10.00">../cfg/dispatcher.hpp</text>
</a>
</g>
</g>
<!-- Node2&#45;&gt;Node3 -->
<g id="edge2_Node000002_Node000003" class="edge">
<title>Node2&#45;&gt;Node3</title>
<g id="a_edge2_Node000002_Node000003"><a xlink:title=" ">
<path fill="none" stroke="#63b8ff" d="M309.67,-65.98C262.83,-57.21 188.02,-43.03 123.5,-30 118.19,-28.93 112.64,-27.79 107.12,-26.63"/>
<polygon fill="#63b8ff" stroke="#63b8ff" points="107.77,-23.19 97.26,-24.57 106.33,-30.04 107.77,-23.19"/>
</a>
</g>
</g>
<!-- Node5 -->
<g id="Node000005" class="node">
<title>Node5</title>
<g id="a_Node000005"><a xlink:href="control_8hpp.html" target="_top" xlink:title=" ">
<polygon fill="#fff0f0" stroke="red" points="228,-24.5 133,-24.5 133,-5.5 228,-5.5 228,-24.5"/>
<text text-anchor="middle" x="180.5" y="-12.5" font-family="Helvetica,sans-Serif" font-size="10.00">../ctl/control.hpp</text>
</a>
</g>
</g>
<!-- Node2&#45;&gt;Node5 -->
<g id="edge3_Node000002_Node000005" class="edge">
<title>Node2&#45;&gt;Node5</title>
<g id="a_edge3_Node000002_Node000005"><a xlink:title=" ">
<path fill="none" stroke="#63b8ff" d="M330.05,-65.99C299.86,-55.9 249.34,-39.01 215.48,-27.69"/>
<polygon fill="#63b8ff" stroke="#63b8ff" points="216.57,-24.37 205.98,-24.52 214.35,-31.01 216.57,-24.37"/>
</a>
</g>
</g>
<!-- Node46 -->
<g id="Node000046" class="node">
<title>Node46</title>
<g id="a_Node000046"><a xlink:href="iface_2def_8hpp.html" target="_top" xlink:title=" ">
<polygon fill="#fff0f0" stroke="red" points="335,-24.5 246,-24.5 246,-5.5 335,-5.5 335,-24.5"/>
<text text-anchor="middle" x="290.5" y="-12.5" font-family="Helvetica,sans-Serif" font-size="10.00">../iface/def.hpp</text>
</a>
</g>
</g>
<!-- Node2&#45;&gt;Node46 -->
<g id="edge4_Node000002_Node000046" class="edge">
<title>Node2&#45;&gt;Node46</title>
<g id="a_edge4_Node000002_Node000046"><a xlink:title=" ">
<path fill="none" stroke="#63b8ff" d="M345.91,-65.87C335.92,-56.88 320.07,-42.61 307.87,-31.64"/>
<polygon fill="#63b8ff" stroke="#63b8ff" points="309.9,-28.76 300.13,-24.67 305.22,-33.96 309.9,-28.76"/>
</a>
</g>
</g>
<!-- Node45 -->
<g id="Node000045" class="node">
<title>Node45</title>
<g id="a_Node000045"><a xlink:title=" ">
<polygon fill="#e0e0e0" stroke="#999999" points="486,-30 353,-30 353,0 486,0 486,-30"/>
<text text-anchor="start" x="361" y="-18" font-family="Helvetica,sans-Serif" font-size="10.00">emlabcpp/experimental</text>
<text text-anchor="middle" x="419.5" y="-7" font-family="Helvetica,sans-Serif" font-size="10.00">/function_view.h</text>
</a>
</g>
</g>
<!-- Node2&#45;&gt;Node45 -->
<g id="edge5_Node000002_Node000045" class="edge">
<title>Node2&#45;&gt;Node45</title>
<g id="a_edge5_Node000002_Node000045"><a xlink:title=" ">
<path fill="none" stroke="#63b8ff" d="M364.94,-65.87C373.23,-58.3 385.61,-46.98 396.49,-37.04"/>
<polygon fill="#63b8ff" stroke="#63b8ff" points="399.04,-39.44 404.06,-30.11 394.32,-34.28 399.04,-39.44"/>
</a>
</g>
</g>
<!-- Node57 -->
<g id="Node000057" class="node">
<title>Node57</title>
<g id="a_Node000057"><a xlink:title=" ">
<polygon fill="#e0e0e0" stroke="#999999" points="623,-24.5 504,-24.5 504,-5.5 623,-5.5 623,-24.5"/>
<text text-anchor="middle" x="563.5" y="-12.5" font-family="Helvetica,sans-Serif" font-size="10.00">emlabcpp/outcome.h</text>
</a>
</g>
</g>
<!-- Node2&#45;&gt;Node57 -->
<g id="edge6_Node000002_Node000057" class="edge">
<title>Node2&#45;&gt;Node57</title>
<g id="a_edge6_Node000002_Node000057"><a xlink:title=" ">
<path fill="none" stroke="#63b8ff" d="M385.74,-65.99C422.1,-55.77 483.23,-38.58 523.47,-27.26"/>
<polygon fill="#63b8ff" stroke="#63b8ff" points="524.54,-30.59 533.22,-24.52 522.64,-23.85 524.54,-30.59"/>
</a>
</g>
</g>
<!-- Node51 -->
<g id="Node000051" class="node">
<title>Node51</title>
<g id="a_Node000051"><a xlink:title=" ">
<polygon fill="#e0e0e0" stroke="#999999" points="728,-24.5 641,-24.5 641,-5.5 728,-5.5 728,-24.5"/>
<text text-anchor="middle" x="684.5" y="-12.5" font-family="Helvetica,sans-Serif" font-size="10.00">avakar/atom.h</text>
</a>
</g>
</g>
<!-- Node58&#45;&gt;Node51 -->
<g id="edge9_Node000058_Node000051" class="edge">
<title>Node58&#45;&gt;Node51</title>
<g id="a_edge9_Node000058_Node000051"><a xlink:title=" ">
<path fill="none" stroke="#63b8ff" d="M753.55,-65.87C740.75,-56.62 720.2,-41.78 704.85,-30.69"/>
<polygon fill="#63b8ff" stroke="#63b8ff" points="706.66,-27.68 696.5,-24.67 702.56,-33.36 706.66,-27.68"/>
</a>
</g>
</g>
<!-- Node59 -->
<g id="Node000059" class="node">
<title>Node59</title>
<g id="a_Node000059"><a xlink:title=" ">
<polygon fill="#e0e0e0" stroke="#999999" points="835,-24.5 746,-24.5 746,-5.5 835,-5.5 835,-24.5"/>
<text text-anchor="middle" x="790.5" y="-12.5" font-family="Helvetica,sans-Serif" font-size="10.00">vari/dispatch.h</text>
</a>
</g>
</g>
<!-- Node58&#45;&gt;Node59 -->
<g id="edge10_Node000058_Node000059" class="edge">
<title>Node58&#45;&gt;Node59</title>
<g id="a_edge10_Node000058_Node000059"><a xlink:title=" ">
<path fill="none" stroke="#63b8ff" d="M769.19,-65.87C772.77,-57.49 778.32,-44.51 782.85,-33.89"/>
<polygon fill="#63b8ff" stroke="#63b8ff" points="786.08,-35.24 786.8,-24.67 779.65,-32.49 786.08,-35.24"/>
</a>
</g>
</g>
<!-- Node48 -->
<g id="Node000048" class="node">
<title>Node48</title>
<g id="a_Node000048"><a xlink:href="str__lib_8hpp.html" target="_top" xlink:title=" ">
<polygon fill="#fff0f0" stroke="red" points="927.5,-24.5 853.5,-24.5 853.5,-5.5 927.5,-5.5 927.5,-24.5"/>
<text text-anchor="middle" x="890.5" y="-12.5" font-family="Helvetica,sans-Serif" font-size="10.00">./str_lib.hpp</text>
</a>
</g>
</g>
<!-- Node60&#45;&gt;Node48 -->
<g id="edge12_Node000060_Node000048" class="edge">
<title>Node60&#45;&gt;Node48</title>
<g id="a_edge12_Node000060_Node000048"><a xlink:title=" ">
<path fill="none" stroke="#63b8ff" d="M890.5,-65.87C890.5,-57.75 890.5,-45.31 890.5,-34.89"/>
<polygon fill="#63b8ff" stroke="#63b8ff" points="894,-34.67 890.5,-24.67 887,-34.67 894,-34.67"/>
</a>
</g>
</g>
<!-- Node61 -->
<g id="Node000061" class="node">
<title>Node61</title>
<g id="a_Node000061"><a xlink:title=" ">
<polygon fill="#e0e0e0" stroke="#999999" points="1045,-24.5 946,-24.5 946,-5.5 1045,-5.5 1045,-24.5"/>
<text text-anchor="middle" x="995.5" y="-12.5" font-family="Helvetica,sans-Serif" font-size="10.00">emlabcpp/view.h</text>
</a>
</g>
</g>
<!-- Node60&#45;&gt;Node61 -->
<g id="edge13_Node000060_Node000061" class="edge">
<title>Node60&#45;&gt;Node61</title>
<g id="a_edge13_Node000060_Node000061"><a xlink:title=" ">
<path fill="none" stroke="#63b8ff" d="M905.99,-65.87C923.13,-56.32 950.97,-40.81 971.06,-29.62"/>
<polygon fill="#63b8ff" stroke="#63b8ff" points="972.91,-32.59 979.94,-24.67 969.5,-26.48 972.91,-32.59"/>
</a>
</g>
</g>
</g>
</svg>
