<?xml version="1.0" encoding="UTF-8" standalone="no"?>
<!DOCTYPE svg PUBLIC "-//W3C//DTD SVG 1.1//EN"
 "http://www.w3.org/Graphics/SVG/1.1/DTD/svg11.dtd">
<!-- Generated by graphviz version 2.43.0 (0)
 -->
<!-- Title: src/gov/current/current.hpp Pages: 1 -->
<svg width="1209pt" height="203pt"
 viewBox="0.00 0.00 1209.42 203.00" xmlns="http://www.w3.org/2000/svg" xmlns:xlink="http://www.w3.org/1999/xlink">
<g id="graph0" class="graph" transform="scale(1 1) rotate(0) translate(4 199)">
<title>src/gov/current/current.hpp</title>
<!-- Node1 -->
<g id="Node000001" class="node">
<title>Node1</title>
<g id="a_Node000001"><a xlink:title=" ">
<polygon fill="#999999" stroke="#666666" points="745.92,-195 597.92,-195 597.92,-176 745.92,-176 745.92,-195"/>
<text text-anchor="middle" x="671.92" y="-183" font-family="Helvetica,sans-Serif" font-size="10.00">src/gov/current/current.hpp</text>
</a>
</g>
</g>
<!-- Node2 -->
<g id="Node000002" class="node">
<title>Node2</title>
<g id="a_Node000002"><a xlink:href="handler_8hpp.html" target="_top" xlink:title=" ">
<polygon fill="white" stroke="#666666" points="508.92,-140 398.92,-140 398.92,-121 508.92,-121 508.92,-140"/>
<text text-anchor="middle" x="453.92" y="-128" font-family="Helvetica,sans-Serif" font-size="10.00">../../cfg/handler.hpp</text>
</a>
</g>
</g>
<!-- Node1&#45;&gt;Node2 -->
<g id="edge1_Node000001_Node000002" class="edge">
<title>Node1&#45;&gt;Node2</title>
<g id="a_edge1_Node000001_Node000002"><a xlink:title=" ">
<path fill="none" stroke="#63b8ff" d="M636.9,-175.98C599.43,-166.87 539.87,-152.4 498.94,-142.45"/>
<polygon fill="#63b8ff" stroke="#63b8ff" points="499.77,-139.04 489.22,-140.08 498.11,-145.85 499.77,-139.04"/>
</a>
</g>
</g>
<!-- Node30 -->
<g id="Node000030" class="node">
<title>Node30</title>
<g id="a_Node000030"><a xlink:href="governor_8hpp.html" target="_top" xlink:title=" ">
<polygon fill="white" stroke="#666666" points="822.42,-140 733.42,-140 733.42,-121 822.42,-121 822.42,-140"/>
<text text-anchor="middle" x="777.92" y="-128" font-family="Helvetica,sans-Serif" font-size="10.00">../governor.hpp</text>
</a>
</g>
</g>
<!-- Node1&#45;&gt;Node30 -->
<g id="edge11_Node000001_Node000030" class="edge">
<title>Node1&#45;&gt;Node30</title>
<g id="a_edge11_Node000001_Node000030"><a xlink:title=" ">
<path fill="none" stroke="#63b8ff" d="M688.95,-175.98C705.85,-167.54 731.99,-154.47 751.57,-144.68"/>
<polygon fill="#63b8ff" stroke="#63b8ff" points="753.2,-147.77 760.58,-140.17 750.07,-141.51 753.2,-147.77"/>
</a>
</g>
</g>
<!-- Node34 -->
<g id="Node000034" class="node">
<title>Node34</title>
<g id="a_Node000034"><a xlink:href="current_2cfg_8hpp.html" target="_top" xlink:title=" ">
<polygon fill="white" stroke="#666666" points="200.42,-140 141.42,-140 141.42,-121 200.42,-121 200.42,-140"/>
<text text-anchor="middle" x="170.92" y="-128" font-family="Helvetica,sans-Serif" font-size="10.00">./cfg.hpp</text>
</a>
</g>
</g>
<!-- Node1&#45;&gt;Node34 -->
<g id="edge22_Node000001_Node000034" class="edge">
<title>Node1&#45;&gt;Node34</title>
<g id="a_edge22_Node000001_Node000034"><a xlink:title=" ">
<path fill="none" stroke="#63b8ff" d="M597.73,-176.65C490.11,-165.27 294.43,-144.57 210.68,-135.71"/>
<polygon fill="#63b8ff" stroke="#63b8ff" points="210.88,-132.21 200.56,-134.64 210.14,-139.17 210.88,-132.21"/>
</a>
</g>
</g>
<!-- Node35 -->
<g id="Node000035" class="node">
<title>Node35</title>
<g id="a_Node000035"><a xlink:href="current_2iface_8hpp.html" target="_top" xlink:title=" ">
<polygon fill="white" stroke="#666666" points="705.92,-140 637.92,-140 637.92,-121 705.92,-121 705.92,-140"/>
<text text-anchor="middle" x="671.92" y="-128" font-family="Helvetica,sans-Serif" font-size="10.00">./iface.hpp</text>
</a>
</g>
</g>
<!-- Node1&#45;&gt;Node35 -->
<g id="edge24_Node000001_Node000035" class="edge">
<title>Node1&#45;&gt;Node35</title>
<g id="a_edge24_Node000001_Node000035"><a xlink:title=" ">
<path fill="none" stroke="#63b8ff" d="M671.92,-175.75C671.92,-168.8 671.92,-158.85 671.92,-150.13"/>
<polygon fill="#63b8ff" stroke="#63b8ff" points="675.42,-150.09 671.92,-140.09 668.42,-150.09 675.42,-150.09"/>
</a>
</g>
</g>
<!-- Node36 -->
<g id="Node000036" class="node">
<title>Node36</title>
<g id="a_Node000036"><a xlink:title=" ">
<polygon fill="#e0e0e0" stroke="#999999" points="944.92,-140 840.92,-140 840.92,-121 944.92,-121 944.92,-140"/>
<text text-anchor="middle" x="892.92" y="-128" font-family="Helvetica,sans-Serif" font-size="10.00">emlabcpp/pid.hpp</text>
</a>
</g>
</g>
<!-- Node1&#45;&gt;Node36 -->
<g id="edge26_Node000001_Node000036" class="edge">
<title>Node1&#45;&gt;Node36</title>
<g id="a_edge26_Node000001_Node000036"><a xlink:title=" ">
<path fill="none" stroke="#63b8ff" d="M707.43,-175.98C745.42,-166.87 805.79,-152.4 847.28,-142.45"/>
<polygon fill="#63b8ff" stroke="#63b8ff" points="848.23,-145.82 857.14,-140.08 846.6,-139.01 848.23,-145.82"/>
</a>
</g>
</g>
<!-- Node3 -->
<g id="Node000003" class="node">
<title>Node3</title>
<g id="a_Node000003"><a xlink:href="base_8hpp.html" target="_top" xlink:title=" ">
<polygon fill="#fff0f0" stroke="red" points="490.92,-19 420.92,-19 420.92,0 490.92,0 490.92,-19"/>
<text text-anchor="middle" x="455.92" y="-7" font-family="Helvetica,sans-Serif" font-size="10.00">../base.hpp</text>
</a>
</g>
</g>
<!-- Node2&#45;&gt;Node3 -->
<g id="edge2_Node000002_Node000003" class="edge">
<title>Node2&#45;&gt;Node3</title>
<g id="a_edge2_Node000002_Node000003"><a xlink:title=" ">
<path fill="none" stroke="#63b8ff" d="M426.27,-120.98C409.34,-114.17 389.04,-102.76 378.92,-85 372.33,-73.41 372.26,-66.55 378.92,-55 387.34,-40.41 402.57,-30.17 417.28,-23.23"/>
<polygon fill="#63b8ff" stroke="#63b8ff" points="418.99,-26.3 426.79,-19.13 416.22,-19.87 418.99,-26.3"/>
</a>
</g>
</g>
<!-- Node11 -->
<g id="Node000011" class="node">
<title>Node11</title>
<g id="a_Node000011"><a xlink:href="iface_2base_8hpp.html" target="_top" xlink:title=" ">
<polygon fill="#fff0f0" stroke="red" points="720.42,-79.5 623.42,-79.5 623.42,-60.5 720.42,-60.5 720.42,-79.5"/>
<text text-anchor="middle" x="671.92" y="-67.5" font-family="Helvetica,sans-Serif" font-size="10.00">../iface/base.hpp</text>
</a>
</g>
</g>
<!-- Node2&#45;&gt;Node11 -->
<g id="edge3_Node000002_Node000011" class="edge">
<title>Node2&#45;&gt;Node11</title>
<g id="a_edge3_Node000002_Node000011"><a xlink:title=" ">
<path fill="none" stroke="#63b8ff" d="M485.62,-120.99C523.89,-110.73 588.33,-93.43 630.5,-82.12"/>
<polygon fill="#63b8ff" stroke="#63b8ff" points="631.43,-85.49 640.19,-79.52 629.62,-78.73 631.43,-85.49"/>
</a>
</g>
</g>
<!-- Node24 -->
<g id="Node000024" class="node">
<title>Node24</title>
<g id="a_Node000024"><a xlink:href="cfg_2base_8hpp.html" target="_top" xlink:title=" ">
<polygon fill="#fff0f0" stroke="red" points="605.42,-79.5 538.42,-79.5 538.42,-60.5 605.42,-60.5 605.42,-79.5"/>
<text text-anchor="middle" x="571.92" y="-67.5" font-family="Helvetica,sans-Serif" font-size="10.00">./base.hpp</text>
</a>
</g>
</g>
<!-- Node2&#45;&gt;Node24 -->
<g id="edge5_Node000002_Node000024" class="edge">
<title>Node2&#45;&gt;Node24</title>
<g id="a_edge5_Node000002_Node000024"><a xlink:title=" ">
<path fill="none" stroke="#63b8ff" d="M471.08,-120.99C490.66,-111.29 522.89,-95.31 545.64,-84.03"/>
<polygon fill="#63b8ff" stroke="#63b8ff" points="547.34,-87.09 554.74,-79.52 544.23,-80.82 547.34,-87.09"/>
</a>
</g>
</g>
<!-- Node27 -->
<g id="Node000027" class="node">
<title>Node27</title>
<g id="a_Node000027"><a xlink:title=" ">
<polygon fill="#e0e0e0" stroke="#999999" points="151.42,-85 18.42,-85 18.42,-55 151.42,-55 151.42,-85"/>
<text text-anchor="start" x="26.42" y="-73" font-family="Helvetica,sans-Serif" font-size="10.00">emlabcpp/experimental</text>
<text text-anchor="middle" x="84.92" y="-62" font-family="Helvetica,sans-Serif" font-size="10.00">/cfg/handler.hpp</text>
</a>
</g>
</g>
<!-- Node2&#45;&gt;Node27 -->
<g id="edge8_Node000002_Node000027" class="edge">
<title>Node2&#45;&gt;Node27</title>
<g id="a_edge8_Node000002_Node000027"><a xlink:title=" ">
<path fill="none" stroke="#63b8ff" d="M398.83,-121.74C341.83,-113.58 249.96,-100.06 161.49,-85.23"/>
<polygon fill="#63b8ff" stroke="#63b8ff" points="162,-81.77 151.56,-83.56 160.84,-88.67 162,-81.77"/>
</a>
</g>
</g>
<!-- Node28 -->
<g id="Node000028" class="node">
<title>Node28</title>
<g id="a_Node000028"><a xlink:title=" ">
<polygon fill="#e0e0e0" stroke="#999999" points="520.42,-85 387.42,-85 387.42,-55 520.42,-55 520.42,-85"/>
<text text-anchor="start" x="395.42" y="-73" font-family="Helvetica,sans-Serif" font-size="10.00">emlabcpp/experimental</text>
<text text-anchor="middle" x="453.92" y="-62" font-family="Helvetica,sans-Serif" font-size="10.00">/function_view.hpp</text>
</a>
</g>
</g>
<!-- Node2&#45;&gt;Node28 -->
<g id="edge9_Node000002_Node000028" class="edge">
<title>Node2&#45;&gt;Node28</title>
<g id="a_edge9_Node000002_Node000028"><a xlink:title=" ">
<path fill="none" stroke="#63b8ff" d="M453.92,-120.87C453.92,-114.11 453.92,-104.35 453.92,-95.26"/>
<polygon fill="#63b8ff" stroke="#63b8ff" points="457.42,-95.11 453.92,-85.11 450.42,-95.11 457.42,-95.11"/>
</a>
</g>
</g>
<!-- Node29 -->
<g id="Node000029" class="node">
<title>Node29</title>
<g id="a_Node000029"><a xlink:title=" ">
<polygon fill="#e0e0e0" stroke="#999999" points="330.42,-79.5 169.42,-79.5 169.42,-60.5 330.42,-60.5 330.42,-79.5"/>
<text text-anchor="middle" x="249.92" y="-67.5" font-family="Helvetica,sans-Serif" font-size="10.00">emlabcpp/static_function.hpp</text>
</a>
</g>
</g>
<!-- Node2&#45;&gt;Node29 -->
<g id="edge10_Node000002_Node000029" class="edge">
<title>Node2&#45;&gt;Node29</title>
<g id="a_edge10_Node000002_Node000029"><a xlink:title=" ">
<path fill="none" stroke="#63b8ff" d="M424.26,-120.99C388.68,-110.79 328.91,-93.65 289.44,-82.33"/>
<polygon fill="#63b8ff" stroke="#63b8ff" points="290.2,-78.91 279.62,-79.52 288.27,-85.64 290.2,-78.91"/>
</a>
</g>
</g>
<!-- Node12 -->
<g id="Node000012" class="node">
<title>Node12</title>
<g id="a_Node000012"><a xlink:href="json__ser_8hpp.html" target="_top" xlink:title=" ">
<polygon fill="#fff0f0" stroke="red" points="838.42,-19 737.42,-19 737.42,0 838.42,0 838.42,-19"/>
<text text-anchor="middle" x="787.92" y="-7" font-family="Helvetica,sans-Serif" font-size="10.00">../lib/json_ser.hpp</text>
</a>
</g>
</g>
<!-- Node11&#45;&gt;Node12 -->
<g id="edge4_Node000011_Node000012" class="edge">
<title>Node11&#45;&gt;Node12</title>
<g id="a_edge4_Node000011_Node000012"><a xlink:title=" ">
<path fill="none" stroke="#63b8ff" d="M689.04,-60.37C708.14,-50.73 739.29,-35.03 761.52,-23.81"/>
<polygon fill="#63b8ff" stroke="#63b8ff" points="763.38,-26.8 770.74,-19.17 760.23,-20.55 763.38,-26.8"/>
</a>
</g>
</g>
<!-- Node24&#45;&gt;Node3 -->
<g id="edge6_Node000024_Node000003" class="edge">
<title>Node24&#45;&gt;Node3</title>
<g id="a_edge6_Node000024_Node000003"><a xlink:title=" ">
<path fill="none" stroke="#63b8ff" d="M554.81,-60.37C535.7,-50.73 504.56,-35.03 482.33,-23.81"/>
<polygon fill="#63b8ff" stroke="#63b8ff" points="483.61,-20.55 473.11,-19.17 480.46,-26.8 483.61,-20.55"/>
</a>
</g>
</g>
<!-- Node25 -->
<g id="Node000025" class="node">
<title>Node25</title>
<g id="a_Node000025"><a xlink:href="status_8hpp.html" target="_top" xlink:title=" ">
<polygon fill="#fff0f0" stroke="red" points="646.42,-19 569.42,-19 569.42,0 646.42,0 646.42,-19"/>
<text text-anchor="middle" x="607.92" y="-7" font-family="Helvetica,sans-Serif" font-size="10.00">../status.hpp</text>
</a>
</g>
</g>
<!-- Node24&#45;&gt;Node25 -->
<g id="edge7_Node000024_Node000025" class="edge">
<title>Node24&#45;&gt;Node25</title>
<g id="a_edge7_Node000024_Node000025"><a xlink:title=" ">
<path fill="none" stroke="#63b8ff" d="M577.23,-60.37C582.5,-51.81 590.71,-38.47 597.31,-27.74"/>
<polygon fill="#63b8ff" stroke="#63b8ff" points="600.33,-29.52 602.59,-19.17 594.37,-25.85 600.33,-29.52"/>
</a>
</g>
</g>
<!-- Node30&#45;&gt;Node3 -->
<g id="edge12_Node000030_Node000003" class="edge">
<title>Node30&#45;&gt;Node3</title>
<g id="a_edge12_Node000030_Node000003"><a xlink:title=" ">
<path fill="none" stroke="#63b8ff" d="M775.06,-120.89C769.28,-105 754.64,-71.18 729.92,-55 711.12,-42.69 574.19,-24.68 501.3,-15.83"/>
<polygon fill="#63b8ff" stroke="#63b8ff" points="501.38,-12.31 491.03,-14.59 500.54,-19.26 501.38,-12.31"/>
</a>
</g>
</g>
<!-- Node30&#45;&gt;Node11 -->
<g id="edge14_Node000030_Node000011" class="edge">
<title>Node30&#45;&gt;Node11</title>
<g id="a_edge14_Node000030_Node000011"><a xlink:title=" ">
<path fill="none" stroke="#63b8ff" d="M762.28,-120.87C744.98,-111.32 716.87,-95.81 696.6,-84.62"/>
<polygon fill="#63b8ff" stroke="#63b8ff" points="698.07,-81.43 687.63,-79.67 694.69,-87.56 698.07,-81.43"/>
</a>
</g>
</g>
<!-- Node30&#45;&gt;Node12 -->
<g id="edge15_Node000030_Node000012" class="edge">
<title>Node30&#45;&gt;Node12</title>
<g id="a_edge15_Node000030_Node000012"><a xlink:title=" ">
<path fill="none" stroke="#63b8ff" d="M784.03,-120.8C789.68,-112.17 797.68,-98.35 800.92,-85 805.52,-66.11 800.45,-44.15 795.36,-28.99"/>
<polygon fill="#63b8ff" stroke="#63b8ff" points="798.53,-27.47 791.78,-19.29 791.96,-29.89 798.53,-27.47"/>
</a>
</g>
</g>
<!-- Node30&#45;&gt;Node24 -->
<g id="edge13_Node000030_Node000024" class="edge">
<title>Node30&#45;&gt;Node24</title>
<g id="a_edge13_Node000030_Node000024"><a xlink:title=" ">
<path fill="none" stroke="#63b8ff" d="M744.7,-120.93C711.66,-112.29 659.61,-98.37 614.92,-85 612.49,-84.27 609.98,-83.5 607.46,-82.72"/>
<polygon fill="#63b8ff" stroke="#63b8ff" points="608.37,-79.34 597.78,-79.64 606.25,-86.01 608.37,-79.34"/>
</a>
</g>
</g>
<!-- Node30&#45;&gt;Node25 -->
<g id="edge16_Node000030_Node000025" class="edge">
<title>Node30&#45;&gt;Node25</title>
<g id="a_edge16_Node000030_Node000025"><a xlink:title=" ">
<path fill="none" stroke="#63b8ff" d="M778.83,-120.87C779.95,-105.54 779.92,-73.43 762.92,-55 736,-25.81 691.34,-15.31 656.85,-11.74"/>
<polygon fill="#63b8ff" stroke="#63b8ff" points="656.77,-8.22 646.51,-10.84 656.17,-15.19 656.77,-8.22"/>
</a>
</g>
</g>
<!-- Node30&#45;&gt;Node28 -->
<g id="edge17_Node000030_Node000028" class="edge">
<title>Node30&#45;&gt;Node28</title>
<g id="a_edge17_Node000030_Node000028"><a xlink:title=" ">
<path fill="none" stroke="#63b8ff" d="M733.11,-121.52C685.47,-113.03 607.65,-99.11 530.54,-85.11"/>
<polygon fill="#63b8ff" stroke="#63b8ff" points="531.11,-81.65 520.65,-83.31 529.86,-88.54 531.11,-81.65"/>
</a>
</g>
</g>
<!-- Node31 -->
<g id="Node000031" class="node">
<title>Node31</title>
<g id="a_Node000031"><a xlink:title=" ">
<polygon fill="#e0e0e0" stroke="#999999" points="984.42,-85 853.42,-85 853.42,-55 984.42,-55 984.42,-85"/>
<text text-anchor="start" x="861.42" y="-73" font-family="Helvetica,sans-Serif" font-size="10.00">emlabcpp/pmr/memory</text>
<text text-anchor="middle" x="918.92" y="-62" font-family="Helvetica,sans-Serif" font-size="10.00">_resource.hpp</text>
</a>
</g>
</g>
<!-- Node30&#45;&gt;Node31 -->
<g id="edge18_Node000030_Node000031" class="edge">
<title>Node30&#45;&gt;Node31</title>
<g id="a_edge18_Node000030_Node000031"><a xlink:title=" ">
<path fill="none" stroke="#63b8ff" d="M798.43,-120.99C818.54,-112.65 849.84,-99.66 875.5,-89.02"/>
<polygon fill="#63b8ff" stroke="#63b8ff" points="877.13,-92.13 885.02,-85.06 874.45,-85.66 877.13,-92.13"/>
</a>
</g>
</g>
<!-- Node32 -->
<g id="Node000032" class="node">
<title>Node32</title>
<g id="a_Node000032"><a xlink:title=" ">
<polygon fill="#e0e0e0" stroke="#999999" points="1042.92,-79.5 1002.92,-79.5 1002.92,-60.5 1042.92,-60.5 1042.92,-79.5"/>
<text text-anchor="middle" x="1022.92" y="-67.5" font-family="Helvetica,sans-Serif" font-size="10.00">span</text>
</a>
</g>
</g>
<!-- Node30&#45;&gt;Node32 -->
<g id="edge19_Node000030_Node000032" class="edge">
<title>Node30&#45;&gt;Node32</title>
<g id="a_edge19_Node000030_Node000032"><a xlink:title=" ">
<path fill="none" stroke="#63b8ff" d="M822.82,-121.6C876.45,-111.92 962.83,-95.53 993.92,-85 995.14,-84.59 996.38,-84.13 997.62,-83.65"/>
<polygon fill="#63b8ff" stroke="#63b8ff" points="999.2,-86.78 1006.96,-79.57 996.4,-80.37 999.2,-86.78"/>
</a>
</g>
</g>
<!-- Node21 -->
<g id="Node000021" class="node">
<title>Node21</title>
<g id="a_Node000021"><a xlink:title=" ">
<polygon fill="#e0e0e0" stroke="#999999" points="1134.42,-79.5 1061.42,-79.5 1061.42,-60.5 1134.42,-60.5 1134.42,-79.5"/>
<text text-anchor="middle" x="1097.92" y="-67.5" font-family="Helvetica,sans-Serif" font-size="10.00">string_view</text>
</a>
</g>
</g>
<!-- Node30&#45;&gt;Node21 -->
<g id="edge20_Node000030_Node000021" class="edge">
<title>Node30&#45;&gt;Node21</title>
<g id="a_edge20_Node000030_Node000021"><a xlink:title=" ">
<path fill="none" stroke="#63b8ff" d="M822.72,-122.39C897.53,-110.48 1040.86,-87.57 1051.92,-85 1055.28,-84.22 1058.74,-83.33 1062.2,-82.38"/>
<polygon fill="#63b8ff" stroke="#63b8ff" points="1063.18,-85.74 1071.82,-79.61 1061.24,-79.02 1063.18,-85.74"/>
</a>
</g>
</g>
<!-- Node33 -->
<g id="Node000033" class="node">
<title>Node33</title>
<g id="a_Node000033"><a xlink:title=" ">
<polygon fill="#e0e0e0" stroke="#999999" points="1201.42,-79.5 1152.42,-79.5 1152.42,-60.5 1201.42,-60.5 1201.42,-79.5"/>
<text text-anchor="middle" x="1176.92" y="-67.5" font-family="Helvetica,sans-Serif" font-size="10.00">zll.hpp</text>
</a>
</g>
</g>
<!-- Node30&#45;&gt;Node33 -->
<g id="edge21_Node000030_Node000033" class="edge">
<title>Node30&#45;&gt;Node33</title>
<g id="a_edge21_Node000030_Node000033"><a xlink:title=" ">
<path fill="none" stroke="#63b8ff" d="M822.69,-122.31C825.81,-121.85 828.91,-121.41 831.92,-121 970.23,-102.14 1008.96,-120.62 1143.92,-85 1145.86,-84.49 1147.84,-83.88 1149.81,-83.22"/>
<polygon fill="#63b8ff" stroke="#63b8ff" points="1151.36,-86.37 1159.44,-79.51 1148.85,-79.84 1151.36,-86.37"/>
</a>
</g>
</g>
<!-- Node34&#45;&gt;Node3 -->
<g id="edge23_Node000034_Node000003" class="edge">
<title>Node34&#45;&gt;Node3</title>
<g id="a_edge23_Node000034_Node000003"><a xlink:title=" ">
<path fill="none" stroke="#63b8ff" d="M141.25,-126.5C84.2,-119.65 -31.7,-99.86 8.92,-55 35.55,-25.59 302.24,-14.82 410.55,-11.64"/>
<polygon fill="#63b8ff" stroke="#63b8ff" points="410.94,-15.13 420.83,-11.34 410.74,-8.13 410.94,-15.13"/>
</a>
</g>
</g>
<!-- Node35&#45;&gt;Node11 -->
<g id="edge25_Node000035_Node000011" class="edge">
<title>Node35&#45;&gt;Node11</title>
<g id="a_edge25_Node000035_Node000011"><a xlink:title=" ">
<path fill="none" stroke="#63b8ff" d="M671.92,-120.87C671.92,-112.75 671.92,-100.31 671.92,-89.89"/>
<polygon fill="#63b8ff" stroke="#63b8ff" points="675.42,-89.67 671.92,-79.67 668.42,-89.67 675.42,-89.67"/>
</a>
</g>
</g>
</g>
</svg>
