<?xml version="1.0" encoding="UTF-8" standalone="no"?>
<!DOCTYPE svg PUBLIC "-//W3C//DTD SVG 1.1//EN"
 "http://www.w3.org/Graphics/SVG/1.1/DTD/svg11.dtd">
<!-- Generated by graphviz version 2.43.0 (0)
 -->
<!-- Title: src/gov/current/tests/current_utest.cpp Pages: 1 -->
<svg width="1224pt" height="324pt"
 viewBox="0.00 0.00 1224.00 324.00" xmlns="http://www.w3.org/2000/svg" xmlns:xlink="http://www.w3.org/1999/xlink">
<g id="graph0" class="graph" transform="scale(1 1) rotate(0) translate(4 320)">
<title>src/gov/current/tests/current_utest.cpp</title>
<!-- Node1 -->
<g id="Node000001" class="node">
<title>Node1</title>
<g id="a_Node000001"><a xlink:title=" ">
<polygon fill="#999999" stroke="#666666" points="770.5,-316 654.5,-316 654.5,-286 770.5,-286 770.5,-316"/>
<text text-anchor="start" x="662.5" y="-304" font-family="Helvetica,sans-Serif" font-size="10.00">src/gov/current/tests</text>
<text text-anchor="middle" x="712.5" y="-293" font-family="Helvetica,sans-Serif" font-size="10.00">/current_utest.cpp</text>
</a>
</g>
</g>
<!-- Node2 -->
<g id="Node000002" class="node">
<title>Node2</title>
<g id="a_Node000002"><a xlink:href="base_8hpp.html" target="_top" xlink:title=" ">
<polygon fill="white" stroke="#666666" points="843.5,-134.5 755.5,-134.5 755.5,-115.5 843.5,-115.5 843.5,-134.5"/>
<text text-anchor="middle" x="799.5" y="-122.5" font-family="Helvetica,sans-Serif" font-size="10.00">../../../base.hpp</text>
</a>
</g>
</g>
<!-- Node1&#45;&gt;Node2 -->
<g id="edge1_Node000001_Node000002" class="edge">
<title>Node1&#45;&gt;Node2</title>
<g id="a_edge1_Node000001_Node000002"><a xlink:title=" ">
<path fill="none" stroke="#63b8ff" d="M755.19,-286C783.14,-276.53 820.32,-263.35 852.5,-250 870.68,-242.46 873.61,-236.52 892.5,-231 953.99,-213.03 1136.13,-243.04 1178.5,-195 1222.57,-145.03 968.48,-131.05 853.64,-127.3"/>
<polygon fill="#63b8ff" stroke="#63b8ff" points="853.74,-123.8 843.63,-126.99 853.52,-130.8 853.74,-123.8"/>
</a>
</g>
</g>
<!-- Node10 -->
<g id="Node000010" class="node">
<title>Node10</title>
<g id="a_Node000010"><a xlink:href="json__ser_8hpp.html" target="_top" xlink:title=" ">
<polygon fill="white" stroke="#666666" points="609,-134.5 490,-134.5 490,-115.5 609,-115.5 609,-134.5"/>
<text text-anchor="middle" x="549.5" y="-122.5" font-family="Helvetica,sans-Serif" font-size="10.00">../../../lib/json_ser.hpp</text>
</a>
</g>
</g>
<!-- Node1&#45;&gt;Node10 -->
<g id="edge9_Node000001_Node000010" class="edge">
<title>Node1&#45;&gt;Node10</title>
<g id="a_edge9_Node000001_Node000010"><a xlink:title=" ">
<path fill="none" stroke="#63b8ff" d="M654.28,-289.56C571.45,-273.31 426.57,-239.16 399.5,-195 395.09,-187.8 394.56,-182.85 399.5,-176 411.18,-159.8 458.03,-145.86 496.31,-136.85"/>
<polygon fill="#63b8ff" stroke="#63b8ff" points="497.37,-140.2 506.33,-134.55 495.81,-133.38 497.37,-140.2"/>
</a>
</g>
</g>
<!-- Node17 -->
<g id="Node000017" class="node">
<title>Node17</title>
<g id="a_Node000017"><a xlink:href="parser_8hpp.html" target="_top" xlink:title=" ">
<polygon fill="white" stroke="#666666" points="276.5,-195 166.5,-195 166.5,-176 276.5,-176 276.5,-195"/>
<text text-anchor="middle" x="221.5" y="-183" font-family="Helvetica,sans-Serif" font-size="10.00">../../../lib/parser.hpp</text>
</a>
</g>
</g>
<!-- Node1&#45;&gt;Node17 -->
<g id="edge14_Node000001_Node000017" class="edge">
<title>Node1&#45;&gt;Node17</title>
<g id="a_edge14_Node000001_Node000017"><a xlink:title=" ">
<path fill="none" stroke="#63b8ff" d="M654.33,-297.52C554.2,-292.53 353.93,-279.16 290.5,-250 267.5,-239.43 246.99,-218.27 234.42,-203.29"/>
<polygon fill="#63b8ff" stroke="#63b8ff" points="236.99,-200.9 227.98,-195.31 231.54,-205.29 236.99,-200.9"/>
</a>
</g>
</g>
<!-- Node19 -->
<g id="Node000019" class="node">
<title>Node19</title>
<g id="a_Node000019"><a xlink:title=" ">
<polygon fill="#e0e0e0" stroke="#999999" points="350,-134.5 277,-134.5 277,-115.5 350,-115.5 350,-134.5"/>
<text text-anchor="middle" x="313.5" y="-122.5" font-family="Helvetica,sans-Serif" font-size="10.00">string_view</text>
</a>
</g>
</g>
<!-- Node1&#45;&gt;Node19 -->
<g id="edge45_Node000001_Node000019" class="edge">
<title>Node1&#45;&gt;Node19</title>
<g id="a_edge45_Node000001_Node000019"><a xlink:title=" ">
<path fill="none" stroke="#63b8ff" d="M654.23,-295.19C579.1,-288.15 453.37,-273.3 413.5,-250 369.48,-224.27 337,-171.29 322.27,-143.65"/>
<polygon fill="#63b8ff" stroke="#63b8ff" points="325.35,-142 317.66,-134.71 319.13,-145.21 325.35,-142"/>
</a>
</g>
</g>
<!-- Node21 -->
<g id="Node000021" class="node">
<title>Node21</title>
<g id="a_Node000021"><a xlink:href="status_8hpp.html" target="_top" xlink:title=" ">
<polygon fill="white" stroke="#666666" points="463,-134.5 368,-134.5 368,-115.5 463,-115.5 463,-134.5"/>
<text text-anchor="middle" x="415.5" y="-122.5" font-family="Helvetica,sans-Serif" font-size="10.00">../../../status.hpp</text>
</a>
</g>
</g>
<!-- Node1&#45;&gt;Node21 -->
<g id="edge19_Node000001_Node000021" class="edge">
<title>Node1&#45;&gt;Node21</title>
<g id="a_edge19_Node000001_Node000021"><a xlink:title=" ">
<path fill="none" stroke="#63b8ff" d="M654.24,-298.61C598.53,-295.12 513.61,-284.04 448.5,-250 417.59,-233.84 406,-227.17 392.5,-195 385.28,-177.78 394.07,-157.43 402.79,-143.31"/>
<polygon fill="#63b8ff" stroke="#63b8ff" points="405.94,-144.9 408.62,-134.65 400.13,-141 405.94,-144.9"/>
</a>
</g>
</g>
<!-- Node22 -->
<g id="Node000022" class="node">
<title>Node22</title>
<g id="a_Node000022"><a xlink:href="gov__fixture_8hpp.html" target="_top" xlink:title=" ">
<polygon fill="white" stroke="#666666" points="691,-250 554,-250 554,-231 691,-231 691,-250"/>
<text text-anchor="middle" x="622.5" y="-238" font-family="Helvetica,sans-Serif" font-size="10.00">../../tests/gov_fixture.hpp</text>
</a>
</g>
</g>
<!-- Node1&#45;&gt;Node22 -->
<g id="edge22_Node000001_Node000022" class="edge">
<title>Node1&#45;&gt;Node22</title>
<g id="a_edge22_Node000001_Node000022"><a xlink:title=" ">
<path fill="none" stroke="#63b8ff" d="M690.71,-285.84C676.63,-276.68 658.37,-264.82 644.29,-255.66"/>
<polygon fill="#63b8ff" stroke="#63b8ff" points="646.01,-252.61 635.72,-250.09 642.2,-258.48 646.01,-252.61"/>
</a>
</g>
</g>
<!-- Node36 -->
<g id="Node000036" class="node">
<title>Node36</title>
<g id="a_Node000036"><a xlink:title=" ">
<polygon fill="#e0e0e0" stroke="#999999" points="486.5,-195 408.5,-195 408.5,-176 486.5,-176 486.5,-195"/>
<text text-anchor="middle" x="447.5" y="-183" font-family="Helvetica,sans-Serif" font-size="10.00">gtest/gtest.h</text>
</a>
</g>
</g>
<!-- Node1&#45;&gt;Node36 -->
<g id="edge44_Node000001_Node000036" class="edge">
<title>Node1&#45;&gt;Node36</title>
<g id="a_edge44_Node000001_Node000036"><a xlink:title=" ">
<path fill="none" stroke="#63b8ff" d="M654.22,-287.1C621.18,-278.7 579.56,-266.27 544.5,-250 515.5,-236.54 485.14,-215.34 466.28,-201.18"/>
<polygon fill="#63b8ff" stroke="#63b8ff" points="468.3,-198.33 458.23,-195.04 464.06,-203.89 468.3,-198.33"/>
</a>
</g>
</g>
<!-- Node37 -->
<g id="Node000037" class="node">
<title>Node37</title>
<g id="a_Node000037"><a xlink:href="current_8hpp.html" target="_top" xlink:title=" ">
<polygon fill="white" stroke="#666666" points="844,-250 763,-250 763,-231 844,-231 844,-250"/>
<text text-anchor="middle" x="803.5" y="-238" font-family="Helvetica,sans-Serif" font-size="10.00">../current.hpp</text>
</a>
</g>
</g>
<!-- Node1&#45;&gt;Node37 -->
<g id="edge33_Node000001_Node000037" class="edge">
<title>Node1&#45;&gt;Node37</title>
<g id="a_edge33_Node000001_Node000037"><a xlink:title=" ">
<path fill="none" stroke="#63b8ff" d="M734.53,-285.84C748.77,-276.68 767.23,-264.82 781.47,-255.66"/>
<polygon fill="#63b8ff" stroke="#63b8ff" points="783.61,-258.45 790.13,-250.09 779.83,-252.56 783.61,-258.45"/>
</a>
</g>
</g>
<!-- Node44 -->
<g id="Node000044" class="node">
<title>Node44</title>
<g id="a_Node000044"><a xlink:title=" ">
<polygon fill="#e0e0e0" stroke="#999999" points="954,-250 901,-250 901,-231 954,-231 954,-250"/>
<text text-anchor="middle" x="927.5" y="-238" font-family="Helvetica,sans-Serif" font-size="10.00">cstddef</text>
</a>
</g>
</g>
<!-- Node1&#45;&gt;Node44 -->
<g id="edge41_Node000001_Node000044" class="edge">
<title>Node1&#45;&gt;Node44</title>
<g id="a_edge41_Node000001_Node000044"><a xlink:title=" ">
<path fill="none" stroke="#63b8ff" d="M764,-285.99C803.23,-275.31 856.28,-260.88 891.16,-251.39"/>
<polygon fill="#63b8ff" stroke="#63b8ff" points="892.2,-254.73 900.93,-248.73 890.37,-247.98 892.2,-254.73"/>
</a>
</g>
</g>
<!-- Node45 -->
<g id="Node000045" class="node">
<title>Node45</title>
<g id="a_Node000045"><a xlink:title=" ">
<polygon fill="#e0e0e0" stroke="#999999" points="1088.5,-250 972.5,-250 972.5,-231 1088.5,-231 1088.5,-250"/>
<text text-anchor="middle" x="1030.5" y="-238" font-family="Helvetica,sans-Serif" font-size="10.00">emlabcpp/range.hpp</text>
</a>
</g>
</g>
<!-- Node1&#45;&gt;Node45 -->
<g id="edge42_Node000001_Node000045" class="edge">
<title>Node1&#45;&gt;Node45</title>
<g id="a_edge42_Node000001_Node000045"><a xlink:title=" ">
<path fill="none" stroke="#63b8ff" d="M770.83,-289.27C828.67,-278.63 916.73,-262.43 973.95,-251.9"/>
<polygon fill="#63b8ff" stroke="#63b8ff" points="974.71,-255.32 983.91,-250.07 973.44,-248.44 974.71,-255.32"/>
</a>
</g>
</g>
<!-- Node46 -->
<g id="Node000046" class="node">
<title>Node46</title>
<g id="a_Node000046"><a xlink:title=" ">
<polygon fill="#e0e0e0" stroke="#999999" points="1156.5,-250 1106.5,-250 1106.5,-231 1156.5,-231 1156.5,-250"/>
<text text-anchor="middle" x="1131.5" y="-238" font-family="Helvetica,sans-Serif" font-size="10.00">format</text>
</a>
</g>
</g>
<!-- Node1&#45;&gt;Node46 -->
<g id="edge43_Node000001_Node000046" class="edge">
<title>Node1&#45;&gt;Node46</title>
<g id="a_edge43_Node000001_Node000046"><a xlink:title=" ">
<path fill="none" stroke="#63b8ff" d="M770.56,-294.58C844.14,-287.23 975.03,-272.61 1096.13,-250.06"/>
<polygon fill="#63b8ff" stroke="#63b8ff" points="1097.14,-253.43 1106.32,-248.14 1095.85,-246.55 1097.14,-253.43"/>
</a>
</g>
</g>
<!-- Node47 -->
<g id="Node000047" class="node">
<title>Node47</title>
<g id="a_Node000047"><a xlink:title=" ">
<polygon fill="#e0e0e0" stroke="#999999" points="1216,-250 1175,-250 1175,-231 1216,-231 1216,-250"/>
<text text-anchor="middle" x="1195.5" y="-238" font-family="Helvetica,sans-Serif" font-size="10.00">tuple</text>
</a>
</g>
</g>
<!-- Node1&#45;&gt;Node47 -->
<g id="edge46_Node000001_Node000047" class="edge">
<title>Node1&#45;&gt;Node47</title>
<g id="a_edge46_Node000001_Node000047"><a xlink:title=" ">
<path fill="none" stroke="#63b8ff" d="M770.53,-296.69C855.21,-291.18 1017.64,-278.04 1164.83,-249.78"/>
<polygon fill="#63b8ff" stroke="#63b8ff" points="1165.81,-253.16 1174.95,-247.81 1164.47,-246.29 1165.81,-253.16"/>
</a>
</g>
</g>
<!-- Node3 -->
<g id="Node000003" class="node">
<title>Node3</title>
<g id="a_Node000003"><a xlink:title=" ">
<polygon fill="#e0e0e0" stroke="#999999" points="795.5,-74 745.5,-74 745.5,-55 795.5,-55 795.5,-74"/>
<text text-anchor="middle" x="770.5" y="-62" font-family="Helvetica,sans-Serif" font-size="10.00">chrono</text>
</a>
</g>
</g>
<!-- Node2&#45;&gt;Node3 -->
<g id="edge2_Node000002_Node000003" class="edge">
<title>Node2&#45;&gt;Node3</title>
<g id="a_edge2_Node000002_Node000003"><a xlink:title=" ">
<path fill="none" stroke="#63b8ff" d="M795.22,-115.37C791.07,-106.99 784.63,-94.01 779.37,-83.39"/>
<polygon fill="#63b8ff" stroke="#63b8ff" points="782.37,-81.57 774.8,-74.17 776.1,-84.68 782.37,-81.57"/>
</a>
</g>
</g>
<!-- Node4 -->
<g id="Node000004" class="node">
<title>Node4</title>
<g id="a_Node000004"><a xlink:title=" ">
<polygon fill="#e0e0e0" stroke="#999999" points="315.5,-19 265.5,-19 265.5,0 315.5,0 315.5,-19"/>
<text text-anchor="middle" x="290.5" y="-7" font-family="Helvetica,sans-Serif" font-size="10.00">cstdint</text>
</a>
</g>
</g>
<!-- Node2&#45;&gt;Node4 -->
<g id="edge3_Node000002_Node000004" class="edge">
<title>Node2&#45;&gt;Node4</title>
<g id="a_edge3_Node000002_Node000004"><a xlink:title=" ">
<path fill="none" stroke="#63b8ff" d="M790.37,-115.39C773.65,-100.22 736.35,-68.99 698.5,-55 630.33,-29.81 411.74,-16.51 325.74,-12.14"/>
<polygon fill="#63b8ff" stroke="#63b8ff" points="325.85,-8.65 315.69,-11.64 325.5,-15.64 325.85,-8.65"/>
</a>
</g>
</g>
<!-- Node5 -->
<g id="Node000005" class="node">
<title>Node5</title>
<g id="a_Node000005"><a xlink:title=" ">
<polygon fill="#e0e0e0" stroke="#999999" points="949.5,-74 813.5,-74 813.5,-55 949.5,-55 949.5,-74"/>
<text text-anchor="middle" x="881.5" y="-62" font-family="Helvetica,sans-Serif" font-size="10.00">emlabcpp/algorithm.hpp</text>
</a>
</g>
</g>
<!-- Node2&#45;&gt;Node5 -->
<g id="edge4_Node000002_Node000005" class="edge">
<title>Node2&#45;&gt;Node5</title>
<g id="a_edge4_Node000002_Node000005"><a xlink:title=" ">
<path fill="none" stroke="#63b8ff" d="M811.6,-115.37C824.56,-106.12 845.36,-91.28 860.9,-80.19"/>
<polygon fill="#63b8ff" stroke="#63b8ff" points="863.24,-82.82 869.35,-74.17 859.18,-77.13 863.24,-82.82"/>
</a>
</g>
</g>
<!-- Node6 -->
<g id="Node000006" class="node">
<title>Node6</title>
<g id="a_Node000006"><a xlink:title=" ">
<polygon fill="#e0e0e0" stroke="#999999" points="485.5,-74 345.5,-74 345.5,-55 485.5,-55 485.5,-74"/>
<text text-anchor="middle" x="415.5" y="-62" font-family="Helvetica,sans-Serif" font-size="10.00">emlabcpp/error_code.hpp</text>
</a>
</g>
</g>
<!-- Node2&#45;&gt;Node6 -->
<g id="edge5_Node000002_Node000006" class="edge">
<title>Node2&#45;&gt;Node6</title>
<g id="a_edge5_Node000002_Node000006"><a xlink:title=" ">
<path fill="none" stroke="#63b8ff" d="M755.11,-116C743.53,-113.98 731.05,-111.86 719.5,-110 640.18,-97.26 548.97,-84.1 487.31,-75.44"/>
<polygon fill="#63b8ff" stroke="#63b8ff" points="487.68,-71.95 477.29,-74.03 486.71,-78.89 487.68,-71.95"/>
</a>
</g>
</g>
<!-- Node7 -->
<g id="Node000007" class="node">
<title>Node7</title>
<g id="a_Node000007"><a xlink:title=" ">
<polygon fill="#e0e0e0" stroke="#999999" points="1095.5,-74 967.5,-74 967.5,-55 1095.5,-55 1095.5,-74"/>
<text text-anchor="middle" x="1031.5" y="-62" font-family="Helvetica,sans-Serif" font-size="10.00">emlabcpp/quantity.hpp</text>
</a>
</g>
</g>
<!-- Node2&#45;&gt;Node7 -->
<g id="edge6_Node000002_Node000007" class="edge">
<title>Node2&#45;&gt;Node7</title>
<g id="a_edge6_Node000002_Node000007"><a xlink:title=" ">
<path fill="none" stroke="#63b8ff" d="M833.23,-115.49C874.13,-105.18 943.12,-87.78 987.98,-76.47"/>
<polygon fill="#63b8ff" stroke="#63b8ff" points="988.88,-79.86 997.72,-74.02 987.17,-73.07 988.88,-79.86"/>
</a>
</g>
</g>
<!-- Node8 -->
<g id="Node000008" class="node">
<title>Node8</title>
<g id="a_Node000008"><a xlink:title=" ">
<polygon fill="#e0e0e0" stroke="#999999" points="1173,-74 1114,-74 1114,-55 1173,-55 1173,-74"/>
<text text-anchor="middle" x="1143.5" y="-62" font-family="Helvetica,sans-Serif" font-size="10.00">numbers</text>
</a>
</g>
</g>
<!-- Node2&#45;&gt;Node8 -->
<g id="edge7_Node000002_Node000008" class="edge">
<title>Node2&#45;&gt;Node8</title>
<g id="a_edge7_Node000002_Node000008"><a xlink:title=" ">
<path fill="none" stroke="#63b8ff" d="M843.57,-117.51C901.07,-108.89 1005.02,-92.73 1103.87,-74.03"/>
<polygon fill="#63b8ff" stroke="#63b8ff" points="1104.55,-77.47 1113.72,-72.16 1103.24,-70.59 1104.55,-77.47"/>
</a>
</g>
</g>
<!-- Node9 -->
<g id="Node000009" class="node">
<title>Node9</title>
<g id="a_Node000009"><a xlink:title=" ">
<polygon fill="#e0e0e0" stroke="#999999" points="689.5,-74 633.5,-74 633.5,-55 689.5,-55 689.5,-74"/>
<text text-anchor="middle" x="661.5" y="-62" font-family="Helvetica,sans-Serif" font-size="10.00">optional</text>
</a>
</g>
</g>
<!-- Node2&#45;&gt;Node9 -->
<g id="edge8_Node000002_Node000009" class="edge">
<title>Node2&#45;&gt;Node9</title>
<g id="a_edge8_Node000002_Node000009"><a xlink:title=" ">
<path fill="none" stroke="#63b8ff" d="M779.43,-115.49C756.13,-105.62 717.49,-89.23 690.82,-77.93"/>
<polygon fill="#63b8ff" stroke="#63b8ff" points="692.16,-74.7 681.59,-74.02 689.43,-81.14 692.16,-74.7"/>
</a>
</g>
</g>
<!-- Node10&#45;&gt;Node9 -->
<g id="edge13_Node000010_Node000009" class="edge">
<title>Node10&#45;&gt;Node9</title>
<g id="a_edge13_Node000010_Node000009"><a xlink:title=" ">
<path fill="none" stroke="#63b8ff" d="M566.03,-115.37C584.47,-105.73 614.54,-90.03 636.01,-78.81"/>
<polygon fill="#63b8ff" stroke="#63b8ff" points="637.66,-81.9 644.91,-74.17 634.42,-75.69 637.66,-81.9"/>
</a>
</g>
</g>
<!-- Node11 -->
<g id="Node000011" class="node">
<title>Node11</title>
<g id="a_Node000011"><a xlink:href="str__lib_8hpp.html" target="_top" xlink:title=" ">
<polygon fill="#fff0f0" stroke="red" points="327.5,-74 253.5,-74 253.5,-55 327.5,-55 327.5,-74"/>
<text text-anchor="middle" x="290.5" y="-62" font-family="Helvetica,sans-Serif" font-size="10.00">./str_lib.hpp</text>
</a>
</g>
</g>
<!-- Node10&#45;&gt;Node11 -->
<g id="edge10_Node000010_Node000011" class="edge">
<title>Node10&#45;&gt;Node11</title>
<g id="a_edge10_Node000010_Node000011"><a xlink:title=" ">
<path fill="none" stroke="#63b8ff" d="M511.84,-115.49C465.77,-105.09 387.75,-87.47 337.71,-76.16"/>
<polygon fill="#63b8ff" stroke="#63b8ff" points="338.31,-72.71 327.79,-73.92 336.77,-79.54 338.31,-72.71"/>
</a>
</g>
</g>
<!-- Node16 -->
<g id="Node000016" class="node">
<title>Node16</title>
<g id="a_Node000016"><a xlink:title=" ">
<polygon fill="#e0e0e0" stroke="#999999" points="615,-74 504,-74 504,-55 615,-55 615,-74"/>
<text text-anchor="middle" x="559.5" y="-62" font-family="Helvetica,sans-Serif" font-size="10.00">emlabcpp/view.hpp</text>
</a>
</g>
</g>
<!-- Node10&#45;&gt;Node16 -->
<g id="edge12_Node000010_Node000016" class="edge">
<title>Node10&#45;&gt;Node16</title>
<g id="a_edge12_Node000010_Node000016"><a xlink:title=" ">
<path fill="none" stroke="#63b8ff" d="M550.98,-115.37C552.38,-107.16 554.54,-94.54 556.33,-84.05"/>
<polygon fill="#63b8ff" stroke="#63b8ff" points="559.78,-84.61 558.02,-74.17 552.88,-83.43 559.78,-84.61"/>
</a>
</g>
</g>
<!-- Node11&#45;&gt;Node4 -->
<g id="edge11_Node000011_Node000004" class="edge">
<title>Node11&#45;&gt;Node4</title>
<g id="a_edge11_Node000011_Node000004"><a xlink:title=" ">
<path fill="none" stroke="#63b8ff" d="M290.5,-54.75C290.5,-47.8 290.5,-37.85 290.5,-29.13"/>
<polygon fill="#63b8ff" stroke="#63b8ff" points="294,-29.09 290.5,-19.09 287,-29.09 294,-29.09"/>
</a>
</g>
</g>
<!-- Node17&#45;&gt;Node11 -->
<g id="edge15_Node000017_Node000011" class="edge">
<title>Node17&#45;&gt;Node11</title>
<g id="a_edge15_Node000017_Node000011"><a xlink:title=" ">
<path fill="none" stroke="#63b8ff" d="M226.46,-175.94C237.7,-156.57 265.26,-109.02 280.31,-83.08"/>
<polygon fill="#63b8ff" stroke="#63b8ff" points="283.41,-84.71 285.4,-74.3 277.35,-81.2 283.41,-84.71"/>
</a>
</g>
</g>
<!-- Node18 -->
<g id="Node000018" class="node">
<title>Node18</title>
<g id="a_Node000018"><a xlink:title=" ">
<polygon fill="#e0e0e0" stroke="#999999" points="133,-140 0,-140 0,-110 133,-110 133,-140"/>
<text text-anchor="start" x="8" y="-128" font-family="Helvetica,sans-Serif" font-size="10.00">emlabcpp/experimental</text>
<text text-anchor="middle" x="66.5" y="-117" font-family="Helvetica,sans-Serif" font-size="10.00">/string_buffer.hpp</text>
</a>
</g>
</g>
<!-- Node17&#45;&gt;Node18 -->
<g id="edge16_Node000017_Node000018" class="edge">
<title>Node17&#45;&gt;Node18</title>
<g id="a_edge16_Node000017_Node000018"><a xlink:title=" ">
<path fill="none" stroke="#63b8ff" d="M198.96,-175.99C176.65,-167.57 141.83,-154.43 113.49,-143.73"/>
<polygon fill="#63b8ff" stroke="#63b8ff" points="114.36,-140.32 103.76,-140.06 111.88,-146.87 114.36,-140.32"/>
</a>
</g>
</g>
<!-- Node17&#45;&gt;Node19 -->
<g id="edge17_Node000017_Node000019" class="edge">
<title>Node17&#45;&gt;Node19</title>
<g id="a_edge17_Node000017_Node000019"><a xlink:title=" ">
<path fill="none" stroke="#63b8ff" d="M235.07,-175.87C249.89,-166.45 273.83,-151.23 291.36,-140.08"/>
<polygon fill="#63b8ff" stroke="#63b8ff" points="293.31,-142.99 299.87,-134.67 289.55,-137.08 293.31,-142.99"/>
</a>
</g>
</g>
<!-- Node20 -->
<g id="Node000020" class="node">
<title>Node20</title>
<g id="a_Node000020"><a xlink:title=" ">
<polygon fill="#e0e0e0" stroke="#999999" points="220,-134.5 151,-134.5 151,-115.5 220,-115.5 220,-134.5"/>
<text text-anchor="middle" x="185.5" y="-122.5" font-family="Helvetica,sans-Serif" font-size="10.00">vari/vopt.h</text>
</a>
</g>
</g>
<!-- Node17&#45;&gt;Node20 -->
<g id="edge18_Node000017_Node000020" class="edge">
<title>Node17&#45;&gt;Node20</title>
<g id="a_edge18_Node000017_Node000020"><a xlink:title=" ">
<path fill="none" stroke="#63b8ff" d="M216.19,-175.87C210.92,-167.31 202.71,-153.97 196.11,-143.24"/>
<polygon fill="#63b8ff" stroke="#63b8ff" points="199.06,-141.35 190.83,-134.67 193.09,-145.02 199.06,-141.35"/>
</a>
</g>
</g>
<!-- Node21&#45;&gt;Node4 -->
<g id="edge20_Node000021_Node000004" class="edge">
<title>Node21&#45;&gt;Node4</title>
<g id="a_edge20_Node000021_Node000004"><a xlink:title=" ">
<path fill="none" stroke="#63b8ff" d="M382.35,-115.4C333.83,-102.65 248.73,-79.65 244.5,-74 232.01,-57.34 250.87,-37.91 268.08,-24.98"/>
<polygon fill="#63b8ff" stroke="#63b8ff" points="270.11,-27.83 276.24,-19.19 266.06,-22.12 270.11,-27.83"/>
</a>
</g>
</g>
<!-- Node21&#45;&gt;Node6 -->
<g id="edge21_Node000021_Node000006" class="edge">
<title>Node21&#45;&gt;Node6</title>
<g id="a_edge21_Node000021_Node000006"><a xlink:title=" ">
<path fill="none" stroke="#63b8ff" d="M415.5,-115.37C415.5,-107.25 415.5,-94.81 415.5,-84.39"/>
<polygon fill="#63b8ff" stroke="#63b8ff" points="419,-84.17 415.5,-74.17 412,-84.17 419,-84.17"/>
</a>
</g>
</g>
<!-- Node23 -->
<g id="Node000023" class="node">
<title>Node23</title>
<g id="a_Node000023"><a xlink:href="motor_8hpp.html" target="_top" xlink:title=" ">
<polygon fill="#fff0f0" stroke="red" points="756,-195 651,-195 651,-176 756,-176 756,-195"/>
<text text-anchor="middle" x="703.5" y="-183" font-family="Helvetica,sans-Serif" font-size="10.00">../../sim/motor.hpp</text>
</a>
</g>
</g>
<!-- Node22&#45;&gt;Node23 -->
<g id="edge23_Node000022_Node000023" class="edge">
<title>Node22&#45;&gt;Node23</title>
<g id="a_edge23_Node000022_Node000023"><a xlink:title=" ">
<path fill="none" stroke="#63b8ff" d="M635.51,-230.98C647.96,-222.84 666.96,-210.41 681.71,-200.76"/>
<polygon fill="#63b8ff" stroke="#63b8ff" points="683.8,-203.57 690.25,-195.17 679.96,-197.72 683.8,-203.57"/>
</a>
</g>
</g>
<!-- Node26 -->
<g id="Node000026" class="node">
<title>Node26</title>
<g id="a_Node000026"><a xlink:title=" ">
<polygon fill="#e0e0e0" stroke="#999999" points="710.5,-134.5 650.5,-134.5 650.5,-115.5 710.5,-115.5 710.5,-134.5"/>
<text text-anchor="middle" x="680.5" y="-122.5" font-family="Helvetica,sans-Serif" font-size="10.00">iostream</text>
</a>
</g>
</g>
<!-- Node22&#45;&gt;Node26 -->
<g id="edge32_Node000022_Node000026" class="edge">
<title>Node22&#45;&gt;Node26</title>
<g id="a_edge32_Node000022_Node000026"><a xlink:title=" ">
<path fill="none" stroke="#63b8ff" d="M624.02,-230.9C626.46,-218.32 632,-194.4 641.5,-176 647.84,-163.72 657.34,-151.45 665.38,-142.15"/>
<polygon fill="#63b8ff" stroke="#63b8ff" points="668.15,-144.3 672.22,-134.52 662.94,-139.63 668.15,-144.3"/>
</a>
</g>
</g>
<!-- Node27 -->
<g id="Node000027" class="node">
<title>Node27</title>
<g id="a_Node000027"><a xlink:href="governor_8hpp.html" target="_top" xlink:title=" ">
<polygon fill="#fff0f0" stroke="red" points="594,-195 505,-195 505,-176 594,-176 594,-195"/>
<text text-anchor="middle" x="549.5" y="-183" font-family="Helvetica,sans-Serif" font-size="10.00">../governor.hpp</text>
</a>
</g>
</g>
<!-- Node22&#45;&gt;Node27 -->
<g id="edge26_Node000022_Node000027" class="edge">
<title>Node22&#45;&gt;Node27</title>
<g id="a_edge26_Node000022_Node000027"><a xlink:title=" ">
<path fill="none" stroke="#63b8ff" d="M610.77,-230.98C599.77,-223 583.08,-210.88 569.9,-201.31"/>
<polygon fill="#63b8ff" stroke="#63b8ff" points="571.59,-198.21 561.44,-195.17 567.48,-203.88 571.59,-198.21"/>
</a>
</g>
</g>
<!-- Node22&#45;&gt;Node36 -->
<g id="edge31_Node000022_Node000036" class="edge">
<title>Node22&#45;&gt;Node36</title>
<g id="a_edge31_Node000022_Node000036"><a xlink:title=" ">
<path fill="none" stroke="#63b8ff" d="M594.38,-230.98C564.88,-222.05 518.31,-207.94 485.53,-198.02"/>
<polygon fill="#63b8ff" stroke="#63b8ff" points="486.42,-194.63 475.84,-195.08 484.39,-201.33 486.42,-194.63"/>
</a>
</g>
</g>
<!-- Node23&#45;&gt;Node2 -->
<g id="edge24_Node000023_Node000002" class="edge">
<title>Node23&#45;&gt;Node2</title>
<g id="a_edge24_Node000023_Node000002"><a xlink:title=" ">
<path fill="none" stroke="#63b8ff" d="M717.67,-175.87C733.19,-166.41 758.33,-151.09 776.65,-139.92"/>
<polygon fill="#63b8ff" stroke="#63b8ff" points="778.56,-142.86 785.28,-134.67 774.92,-136.88 778.56,-142.86"/>
</a>
</g>
</g>
<!-- Node23&#45;&gt;Node26 -->
<g id="edge25_Node000023_Node000026" class="edge">
<title>Node23&#45;&gt;Node26</title>
<g id="a_edge25_Node000023_Node000026"><a xlink:title=" ">
<path fill="none" stroke="#63b8ff" d="M700.11,-175.87C696.84,-167.57 691.81,-154.78 687.66,-144.22"/>
<polygon fill="#63b8ff" stroke="#63b8ff" points="690.82,-142.69 683.91,-134.67 684.31,-145.25 690.82,-142.69"/>
</a>
</g>
</g>
<!-- Node27&#45;&gt;Node2 -->
<g id="edge27_Node000027_Node000002" class="edge">
<title>Node27&#45;&gt;Node2</title>
<g id="a_edge27_Node000027_Node000002"><a xlink:title=" ">
<path fill="none" stroke="#63b8ff" d="M585.85,-175.99C630.1,-165.64 704.89,-148.14 753.21,-136.83"/>
<polygon fill="#63b8ff" stroke="#63b8ff" points="754.16,-140.2 763.1,-134.52 752.57,-133.39 754.16,-140.2"/>
</a>
</g>
</g>
<!-- Node27&#45;&gt;Node10 -->
<g id="edge28_Node000027_Node000010" class="edge">
<title>Node27&#45;&gt;Node10</title>
<g id="a_edge28_Node000027_Node000010"><a xlink:title=" ">
<path fill="none" stroke="#63b8ff" d="M549.5,-175.87C549.5,-167.75 549.5,-155.31 549.5,-144.89"/>
<polygon fill="#63b8ff" stroke="#63b8ff" points="553,-144.67 549.5,-134.67 546,-144.67 553,-144.67"/>
</a>
</g>
</g>
<!-- Node27&#45;&gt;Node19 -->
<g id="edge30_Node000027_Node000019" class="edge">
<title>Node27&#45;&gt;Node19</title>
<g id="a_edge30_Node000027_Node000019"><a xlink:title=" ">
<path fill="none" stroke="#63b8ff" d="M509.04,-175.97C470.24,-167.58 410.09,-154.01 358.5,-140 355.69,-139.24 352.79,-138.41 349.87,-137.56"/>
<polygon fill="#63b8ff" stroke="#63b8ff" points="350.64,-134.14 340.06,-134.61 348.63,-140.84 350.64,-134.14"/>
</a>
</g>
</g>
<!-- Node27&#45;&gt;Node21 -->
<g id="edge29_Node000027_Node000021" class="edge">
<title>Node27&#45;&gt;Node21</title>
<g id="a_edge29_Node000027_Node000021"><a xlink:title=" ">
<path fill="none" stroke="#63b8ff" d="M530.02,-175.99C507.49,-166.16 470.19,-149.88 444.31,-138.58"/>
<polygon fill="#63b8ff" stroke="#63b8ff" points="445.57,-135.31 435.01,-134.52 442.77,-141.73 445.57,-135.31"/>
</a>
</g>
</g>
<!-- Node37&#45;&gt;Node27 -->
<g id="edge36_Node000037_Node000027" class="edge">
<title>Node37&#45;&gt;Node27</title>
<g id="a_edge36_Node000037_Node000027"><a xlink:title=" ">
<path fill="none" stroke="#63b8ff" d="M762.97,-231.04C718.78,-221.82 647.97,-207.05 600.14,-197.07"/>
<polygon fill="#63b8ff" stroke="#63b8ff" points="600.81,-193.63 590.3,-195.01 599.38,-200.48 600.81,-193.63"/>
</a>
</g>
</g>
<!-- Node38 -->
<g id="Node000038" class="node">
<title>Node38</title>
<g id="a_Node000038"><a xlink:href="handler_8hpp.html" target="_top" xlink:title=" ">
<polygon fill="#fff0f0" stroke="red" points="1169.5,-195 1059.5,-195 1059.5,-176 1169.5,-176 1169.5,-195"/>
<text text-anchor="middle" x="1114.5" y="-183" font-family="Helvetica,sans-Serif" font-size="10.00">../../cfg/handler.hpp</text>
</a>
</g>
</g>
<!-- Node37&#45;&gt;Node38 -->
<g id="edge34_Node000037_Node000038" class="edge">
<title>Node37&#45;&gt;Node38</title>
<g id="a_edge34_Node000037_Node000038"><a xlink:title=" ">
<path fill="none" stroke="#63b8ff" d="M844.16,-232.57C897.81,-223.43 992.67,-207.26 1054.56,-196.71"/>
<polygon fill="#63b8ff" stroke="#63b8ff" points="1055.31,-200.14 1064.58,-195.01 1054.13,-193.24 1055.31,-200.14"/>
</a>
</g>
</g>
<!-- Node41 -->
<g id="Node000041" class="node">
<title>Node41</title>
<g id="a_Node000041"><a xlink:href="current_2cfg_8hpp.html" target="_top" xlink:title=" ">
<polygon fill="white" stroke="#666666" points="833,-195 774,-195 774,-176 833,-176 833,-195"/>
<text text-anchor="middle" x="803.5" y="-183" font-family="Helvetica,sans-Serif" font-size="10.00">./cfg.hpp</text>
</a>
</g>
</g>
<!-- Node37&#45;&gt;Node41 -->
<g id="edge37_Node000037_Node000041" class="edge">
<title>Node37&#45;&gt;Node41</title>
<g id="a_edge37_Node000037_Node000041"><a xlink:title=" ">
<path fill="none" stroke="#63b8ff" d="M803.5,-230.75C803.5,-223.8 803.5,-213.85 803.5,-205.13"/>
<polygon fill="#63b8ff" stroke="#63b8ff" points="807,-205.09 803.5,-195.09 800,-205.09 807,-205.09"/>
</a>
</g>
</g>
<!-- Node42 -->
<g id="Node000042" class="node">
<title>Node42</title>
<g id="a_Node000042"><a xlink:href="current_2iface_8hpp.html" target="_top" xlink:title=" ">
<polygon fill="#fff0f0" stroke="red" points="919.5,-195 851.5,-195 851.5,-176 919.5,-176 919.5,-195"/>
<text text-anchor="middle" x="885.5" y="-183" font-family="Helvetica,sans-Serif" font-size="10.00">./iface.hpp</text>
</a>
</g>
</g>
<!-- Node37&#45;&gt;Node42 -->
<g id="edge39_Node000037_Node000042" class="edge">
<title>Node37&#45;&gt;Node42</title>
<g id="a_edge39_Node000037_Node000042"><a xlink:title=" ">
<path fill="none" stroke="#63b8ff" d="M816.67,-230.98C829.27,-222.84 848.5,-210.41 863.44,-200.76"/>
<polygon fill="#63b8ff" stroke="#63b8ff" points="865.59,-203.54 872.09,-195.17 861.79,-197.66 865.59,-203.54"/>
</a>
</g>
</g>
<!-- Node43 -->
<g id="Node000043" class="node">
<title>Node43</title>
<g id="a_Node000043"><a xlink:title=" ">
<polygon fill="#e0e0e0" stroke="#999999" points="1041.5,-195 937.5,-195 937.5,-176 1041.5,-176 1041.5,-195"/>
<text text-anchor="middle" x="989.5" y="-183" font-family="Helvetica,sans-Serif" font-size="10.00">emlabcpp/pid.hpp</text>
</a>
</g>
</g>
<!-- Node37&#45;&gt;Node43 -->
<g id="edge40_Node000037_Node000043" class="edge">
<title>Node37&#45;&gt;Node43</title>
<g id="a_edge40_Node000037_Node000043"><a xlink:title=" ">
<path fill="none" stroke="#63b8ff" d="M833.38,-230.98C864.88,-222.01 914.67,-207.82 949.53,-197.89"/>
<polygon fill="#63b8ff" stroke="#63b8ff" points="950.72,-201.19 959.38,-195.08 948.81,-194.46 950.72,-201.19"/>
</a>
</g>
</g>
<!-- Node38&#45;&gt;Node2 -->
<g id="edge35_Node000038_Node000002" class="edge">
<title>Node38&#45;&gt;Node2</title>
<g id="a_edge35_Node000038_Node000002"><a xlink:title=" ">
<path fill="none" stroke="#63b8ff" d="M1068.7,-175.99C1011.68,-165.4 914.41,-147.34 853.73,-136.07"/>
<polygon fill="#63b8ff" stroke="#63b8ff" points="854.05,-132.57 843.58,-134.19 852.77,-139.45 854.05,-132.57"/>
</a>
</g>
</g>
<!-- Node41&#45;&gt;Node2 -->
<g id="edge38_Node000041_Node000002" class="edge">
<title>Node41&#45;&gt;Node2</title>
<g id="a_edge38_Node000041_Node000002"><a xlink:title=" ">
<path fill="none" stroke="#63b8ff" d="M802.91,-175.87C802.35,-167.75 801.5,-155.31 800.79,-144.89"/>
<polygon fill="#63b8ff" stroke="#63b8ff" points="804.27,-144.41 800.09,-134.67 797.28,-144.88 804.27,-144.41"/>
</a>
</g>
</g>
</g>
</svg>
