<?xml version="1.0" encoding="UTF-8" standalone="no"?>
<!DOCTYPE svg PUBLIC "-//W3C//DTD SVG 1.1//EN"
 "http://www.w3.org/Graphics/SVG/1.1/DTD/svg11.dtd">
<!-- Generated by graphviz version 2.43.0 (0)
 -->
<!-- Title: src/fw/drivers/debug_comms.cpp Pages: 1 -->
<svg width="874pt" height="173pt"
 viewBox="0.00 0.00 874.00 173.00" xmlns="http://www.w3.org/2000/svg" xmlns:xlink="http://www.w3.org/1999/xlink">
<g id="graph0" class="graph" transform="scale(1 1) rotate(0) translate(4 169)">
<title>src/fw/drivers/debug_comms.cpp</title>
<polygon fill="white" stroke="transparent" points="-4,4 -4,-169 870,-169 870,4 -4,4"/>
<!-- Node1 -->
<g id="node1" class="node">
<title>Node1</title>
<g id="a_node1"><a xlink:title=" ">
<polygon fill="#bfbfbf" stroke="black" points="640,-134.5 640,-164.5 755,-164.5 755,-134.5 640,-134.5"/>
<text text-anchor="start" x="648" y="-152.5" font-family="Helvetica,sans-Serif" font-size="10.00">src/fw/drivers/debug</text>
<text text-anchor="middle" x="697.5" y="-141.5" font-family="Helvetica,sans-Serif" font-size="10.00">_comms.cpp</text>
</a>
</g>
</g>
<!-- Node2 -->
<g id="node2" class="node">
<title>Node2</title>
<g id="a_node2"><a xlink:href="debug__comms_8hpp.html" target="_top" xlink:title=" ">
<polygon fill="white" stroke="black" points="349.5,-73 349.5,-92 509.5,-92 509.5,-73 349.5,-73"/>
<text text-anchor="middle" x="429.5" y="-80" font-family="Helvetica,sans-Serif" font-size="10.00">fw/drivers/debug_comms.hpp</text>
</a>
</g>
</g>
<!-- Node1&#45;&gt;Node2 -->
<g id="edge1" class="edge">
<title>Node1&#45;&gt;Node2</title>
<path fill="none" stroke="midnightblue" d="M639.68,-134.48C590.18,-122.47 519.92,-105.43 474.52,-94.42"/>
<polygon fill="midnightblue" stroke="midnightblue" points="475.21,-90.98 464.66,-92.03 473.56,-97.79 475.21,-90.98"/>
</g>
<!-- Node8 -->
<g id="node8" class="node">
<title>Node8</title>
<g id="a_node8"><a xlink:href="util_8hpp.html" target="_top" xlink:title=" ">
<polygon fill="white" stroke="black" points="632.5,-73 632.5,-92 700.5,-92 700.5,-73 632.5,-73"/>
<text text-anchor="middle" x="666.5" y="-80" font-family="Helvetica,sans-Serif" font-size="10.00">fw/util.hpp</text>
</a>
</g>
</g>
<!-- Node1&#45;&gt;Node8 -->
<g id="edge7" class="edge">
<title>Node1&#45;&gt;Node8</title>
<path fill="none" stroke="midnightblue" d="M690.77,-134.4C686.18,-124.76 680.05,-111.91 675.1,-101.54"/>
<polygon fill="midnightblue" stroke="midnightblue" points="678.11,-99.71 670.65,-92.19 671.79,-102.73 678.11,-99.71"/>
</g>
<!-- Node9 -->
<g id="node9" class="node">
<title>Node9</title>
<g id="a_node9"><a xlink:title=" ">
<polygon fill="white" stroke="#bfbfbf" points="709.5,-6 709.5,-25 833.5,-25 833.5,-6 709.5,-6"/>
<text text-anchor="middle" x="771.5" y="-13" font-family="Helvetica,sans-Serif" font-size="10.00">emlabcpp/algorithm.h</text>
</a>
</g>
</g>
<!-- Node1&#45;&gt;Node9 -->
<g id="edge11" class="edge">
<title>Node1&#45;&gt;Node9</title>
<path fill="none" stroke="midnightblue" d="M705.42,-134.37C719.04,-110.08 746.87,-60.44 761.69,-34"/>
<polygon fill="midnightblue" stroke="midnightblue" points="764.84,-35.53 766.68,-25.1 758.74,-32.11 764.84,-35.53"/>
</g>
<!-- Node11 -->
<g id="node11" class="node">
<title>Node11</title>
<g id="a_node11"><a xlink:title=" ">
<polygon fill="white" stroke="#bfbfbf" points="757,-67.5 757,-97.5 866,-97.5 866,-67.5 757,-67.5"/>
<text text-anchor="start" x="765" y="-85.5" font-family="Helvetica,sans-Serif" font-size="10.00">emlabcpp/iterators</text>
<text text-anchor="middle" x="811.5" y="-74.5" font-family="Helvetica,sans-Serif" font-size="10.00">/numeric.h</text>
</a>
</g>
</g>
<!-- Node1&#45;&gt;Node11 -->
<g id="edge12" class="edge">
<title>Node1&#45;&gt;Node11</title>
<path fill="none" stroke="midnightblue" d="M722.24,-134.4C738.52,-125.11 760.04,-112.84 777.87,-102.67"/>
<polygon fill="midnightblue" stroke="midnightblue" points="779.86,-105.57 786.81,-97.58 776.39,-99.49 779.86,-105.57"/>
</g>
<!-- Node3 -->
<g id="node3" class="node">
<title>Node3</title>
<g id="a_node3"><a xlink:title=" ">
<polygon fill="white" stroke="#bfbfbf" points="0,-0.5 0,-30.5 133,-30.5 133,-0.5 0,-0.5"/>
<text text-anchor="start" x="8" y="-18.5" font-family="Helvetica,sans-Serif" font-size="10.00">emlabcpp/experimental</text>
<text text-anchor="middle" x="66.5" y="-7.5" font-family="Helvetica,sans-Serif" font-size="10.00">/function_view.h</text>
</a>
</g>
</g>
<!-- Node2&#45;&gt;Node3 -->
<g id="edge2" class="edge">
<title>Node2&#45;&gt;Node3</title>
<path fill="none" stroke="midnightblue" d="M379.69,-72.96C324.49,-63.44 232.55,-47.45 143.25,-31.12"/>
<polygon fill="midnightblue" stroke="midnightblue" points="143.68,-27.64 133.22,-29.29 142.42,-34.53 143.68,-27.64"/>
</g>
<!-- Node4 -->
<g id="node4" class="node">
<title>Node4</title>
<g id="a_node4"><a xlink:title=" ">
<polygon fill="white" stroke="#bfbfbf" points="151.5,-0.5 151.5,-30.5 287.5,-30.5 287.5,-0.5 151.5,-0.5"/>
<text text-anchor="start" x="159.5" y="-18.5" font-family="Helvetica,sans-Serif" font-size="10.00">emlabcpp/static_circular</text>
<text text-anchor="middle" x="219.5" y="-7.5" font-family="Helvetica,sans-Serif" font-size="10.00">_buffer.h</text>
</a>
</g>
</g>
<!-- Node2&#45;&gt;Node4 -->
<g id="edge3" class="edge">
<title>Node2&#45;&gt;Node4</title>
<path fill="none" stroke="midnightblue" d="M401.61,-72.87C369.35,-62.88 315.44,-46.2 274.63,-33.56"/>
<polygon fill="midnightblue" stroke="midnightblue" points="275.41,-30.14 264.82,-30.53 273.34,-36.83 275.41,-30.14"/>
</g>
<!-- Node5 -->
<g id="node5" class="node">
<title>Node5</title>
<g id="a_node5"><a xlink:title=" ">
<polygon fill="white" stroke="#bfbfbf" points="306,-6 306,-25 445,-25 445,-6 306,-6"/>
<text text-anchor="middle" x="375.5" y="-13" font-family="Helvetica,sans-Serif" font-size="10.00">emlabcpp/static_vector.h</text>
</a>
</g>
</g>
<!-- Node2&#45;&gt;Node5 -->
<g id="edge4" class="edge">
<title>Node2&#45;&gt;Node5</title>
<path fill="none" stroke="midnightblue" d="M422.22,-72.73C413.8,-62.6 399.75,-45.69 389.25,-33.06"/>
<polygon fill="midnightblue" stroke="midnightblue" points="391.75,-30.58 382.67,-25.13 386.37,-35.06 391.75,-30.58"/>
</g>
<!-- Node6 -->
<g id="node6" class="node">
<title>Node6</title>
<g id="a_node6"><a xlink:title=" ">
<polygon fill="white" stroke="#bfbfbf" points="463.5,-6 463.5,-25 503.5,-25 503.5,-6 463.5,-6"/>
<text text-anchor="middle" x="483.5" y="-13" font-family="Helvetica,sans-Serif" font-size="10.00">span</text>
</a>
</g>
</g>
<!-- Node2&#45;&gt;Node6 -->
<g id="edge5" class="edge">
<title>Node2&#45;&gt;Node6</title>
<path fill="none" stroke="midnightblue" d="M436.78,-72.73C445.2,-62.6 459.25,-45.69 469.75,-33.06"/>
<polygon fill="midnightblue" stroke="midnightblue" points="472.63,-35.06 476.33,-25.13 467.25,-30.58 472.63,-35.06"/>
</g>
<!-- Node7 -->
<g id="node7" class="node">
<title>Node7</title>
<g id="a_node7"><a xlink:title=" ">
<polygon fill="white" stroke="#bfbfbf" points="522,-6 522,-25 623,-25 623,-6 522,-6"/>
<text text-anchor="middle" x="572.5" y="-13" font-family="Helvetica,sans-Serif" font-size="10.00">stm32g4xx_hal.h</text>
</a>
</g>
</g>
<!-- Node2&#45;&gt;Node7 -->
<g id="edge6" class="edge">
<title>Node2&#45;&gt;Node7</title>
<path fill="none" stroke="midnightblue" d="M448.49,-72.87C472.96,-61.75 515.7,-42.32 544.06,-29.43"/>
<polygon fill="midnightblue" stroke="midnightblue" points="545.78,-32.49 553.43,-25.17 542.88,-26.12 545.78,-32.49"/>
</g>
<!-- Node8&#45;&gt;Node7 -->
<g id="edge9" class="edge">
<title>Node8&#45;&gt;Node7</title>
<path fill="none" stroke="midnightblue" d="M653.82,-72.73C638.32,-62.01 611.86,-43.72 593.34,-30.91"/>
<polygon fill="midnightblue" stroke="midnightblue" points="595.19,-27.94 584.98,-25.13 591.21,-33.69 595.19,-27.94"/>
</g>
<!-- Node8&#45;&gt;Node9 -->
<g id="edge8" class="edge">
<title>Node8&#45;&gt;Node9</title>
<path fill="none" stroke="midnightblue" d="M680.66,-72.73C698.21,-61.87 728.34,-43.22 749.06,-30.39"/>
<polygon fill="midnightblue" stroke="midnightblue" points="750.9,-33.37 757.56,-25.13 747.22,-27.41 750.9,-33.37"/>
</g>
<!-- Node10 -->
<g id="node10" class="node">
<title>Node10</title>
<g id="a_node10"><a xlink:title=" ">
<polygon fill="white" stroke="#bfbfbf" points="641.5,-6 641.5,-25 691.5,-25 691.5,-6 641.5,-6"/>
<text text-anchor="middle" x="666.5" y="-13" font-family="Helvetica,sans-Serif" font-size="10.00">chrono</text>
</a>
</g>
</g>
<!-- Node8&#45;&gt;Node10 -->
<g id="edge10" class="edge">
<title>Node8&#45;&gt;Node10</title>
<path fill="none" stroke="midnightblue" d="M666.5,-72.73C666.5,-63.18 666.5,-47.62 666.5,-35.28"/>
<polygon fill="midnightblue" stroke="midnightblue" points="670,-35.13 666.5,-25.13 663,-35.13 670,-35.13"/>
</g>
</g>
</svg>
