<?xml version="1.0" encoding="UTF-8" standalone="no"?>
<!DOCTYPE svg PUBLIC "-//W3C//DTD SVG 1.1//EN"
 "http://www.w3.org/Graphics/SVG/1.1/DTD/svg11.dtd">
<!-- Generated by graphviz version 2.43.0 (0)
 -->
<!-- Title: src/fw/drv/debug_comms.cpp Pages: 1 -->
<svg width="919pt" height="162pt"
 viewBox="0.00 0.00 919.00 162.00" xmlns="http://www.w3.org/2000/svg" xmlns:xlink="http://www.w3.org/1999/xlink">
<g id="graph0" class="graph" transform="scale(1 1) rotate(0) translate(4 158)">
<title>src/fw/drv/debug_comms.cpp</title>
<polygon fill="white" stroke="transparent" points="-4,4 -4,-158 915,-158 915,4 -4,4"/>
<!-- Node1 -->
<g id="node1" class="node">
<title>Node1</title>
<g id="a_node1"><a xlink:title=" ">
<polygon fill="#bfbfbf" stroke="black" points="585.5,-134.5 585.5,-153.5 743.5,-153.5 743.5,-134.5 585.5,-134.5"/>
<text text-anchor="middle" x="664.5" y="-141.5" font-family="Helvetica,sans-Serif" font-size="10.00">src/fw/drv/debug_comms.cpp</text>
</a>
</g>
</g>
<!-- Node2 -->
<g id="node2" class="node">
<title>Node2</title>
<g id="a_node2"><a xlink:href="debug__comms_8hpp.html" target="_top" xlink:title=" ">
<polygon fill="white" stroke="black" points="376.5,-73 376.5,-92 518.5,-92 518.5,-73 376.5,-73"/>
<text text-anchor="middle" x="447.5" y="-80" font-family="Helvetica,sans-Serif" font-size="10.00">fw/drv/debug_comms.hpp</text>
</a>
</g>
</g>
<!-- Node1&#45;&gt;Node2 -->
<g id="edge1" class="edge">
<title>Node1&#45;&gt;Node2</title>
<path fill="none" stroke="midnightblue" d="M633.41,-134.48C595.22,-124 530.33,-106.21 488.2,-94.66"/>
<polygon fill="midnightblue" stroke="midnightblue" points="489.1,-91.28 478.53,-92.01 487.25,-98.03 489.1,-91.28"/>
</g>
<!-- Node8 -->
<g id="node8" class="node">
<title>Node8</title>
<g id="a_node8"><a xlink:href="util_8hpp.html" target="_top" xlink:title=" ">
<polygon fill="white" stroke="black" points="573.5,-73 573.5,-92 641.5,-92 641.5,-73 573.5,-73"/>
<text text-anchor="middle" x="607.5" y="-80" font-family="Helvetica,sans-Serif" font-size="10.00">fw/util.hpp</text>
</a>
</g>
</g>
<!-- Node1&#45;&gt;Node8 -->
<g id="edge7" class="edge">
<title>Node1&#45;&gt;Node8</title>
<path fill="none" stroke="midnightblue" d="M656.33,-134.48C647.61,-125.37 633.6,-110.74 622.81,-99.48"/>
<polygon fill="midnightblue" stroke="midnightblue" points="625.1,-96.81 615.65,-92.01 620.04,-101.65 625.1,-96.81"/>
</g>
<!-- Node11 -->
<g id="node11" class="node">
<title>Node11</title>
<g id="a_node11"><a xlink:title=" ">
<polygon fill="white" stroke="#bfbfbf" points="659.5,-73 659.5,-92 783.5,-92 783.5,-73 659.5,-73"/>
<text text-anchor="middle" x="721.5" y="-80" font-family="Helvetica,sans-Serif" font-size="10.00">emlabcpp/algorithm.h</text>
</a>
</g>
</g>
<!-- Node1&#45;&gt;Node11 -->
<g id="edge11" class="edge">
<title>Node1&#45;&gt;Node11</title>
<path fill="none" stroke="midnightblue" d="M672.67,-134.48C681.39,-125.37 695.4,-110.74 706.19,-99.48"/>
<polygon fill="midnightblue" stroke="midnightblue" points="708.96,-101.65 713.35,-92.01 703.9,-96.81 708.96,-101.65"/>
</g>
<!-- Node12 -->
<g id="node12" class="node">
<title>Node12</title>
<g id="a_node12"><a xlink:title=" ">
<polygon fill="white" stroke="#bfbfbf" points="802,-67.5 802,-97.5 911,-97.5 911,-67.5 802,-67.5"/>
<text text-anchor="start" x="810" y="-85.5" font-family="Helvetica,sans-Serif" font-size="10.00">emlabcpp/iterators</text>
<text text-anchor="middle" x="856.5" y="-74.5" font-family="Helvetica,sans-Serif" font-size="10.00">/numeric.h</text>
</a>
</g>
</g>
<!-- Node1&#45;&gt;Node12 -->
<g id="edge12" class="edge">
<title>Node1&#45;&gt;Node12</title>
<path fill="none" stroke="midnightblue" d="M692.01,-134.48C720.44,-125.66 765.6,-111.67 801.42,-100.57"/>
<polygon fill="midnightblue" stroke="midnightblue" points="802.73,-103.83 811.25,-97.52 800.66,-97.14 802.73,-103.83"/>
</g>
<!-- Node3 -->
<g id="node3" class="node">
<title>Node3</title>
<g id="a_node3"><a xlink:title=" ">
<polygon fill="white" stroke="#bfbfbf" points="0,-0.5 0,-30.5 133,-30.5 133,-0.5 0,-0.5"/>
<text text-anchor="start" x="8" y="-18.5" font-family="Helvetica,sans-Serif" font-size="10.00">emlabcpp/experimental</text>
<text text-anchor="middle" x="66.5" y="-7.5" font-family="Helvetica,sans-Serif" font-size="10.00">/function_view.h</text>
</a>
</g>
</g>
<!-- Node2&#45;&gt;Node3 -->
<g id="edge2" class="edge">
<title>Node2&#45;&gt;Node3</title>
<path fill="none" stroke="midnightblue" d="M393.44,-72.96C334.5,-63.55 237.15,-47.75 143.17,-31.09"/>
<polygon fill="midnightblue" stroke="midnightblue" points="143.67,-27.63 133.21,-29.32 142.44,-34.52 143.67,-27.63"/>
</g>
<!-- Node4 -->
<g id="node4" class="node">
<title>Node4</title>
<g id="a_node4"><a xlink:title=" ">
<polygon fill="white" stroke="#bfbfbf" points="151.5,-0.5 151.5,-30.5 287.5,-30.5 287.5,-0.5 151.5,-0.5"/>
<text text-anchor="start" x="159.5" y="-18.5" font-family="Helvetica,sans-Serif" font-size="10.00">emlabcpp/static_circular</text>
<text text-anchor="middle" x="219.5" y="-7.5" font-family="Helvetica,sans-Serif" font-size="10.00">_buffer.h</text>
</a>
</g>
</g>
<!-- Node2&#45;&gt;Node4 -->
<g id="edge3" class="edge">
<title>Node2&#45;&gt;Node4</title>
<path fill="none" stroke="midnightblue" d="M417.22,-72.87C381.97,-62.82 322.92,-45.99 278.51,-33.32"/>
<polygon fill="midnightblue" stroke="midnightblue" points="279.28,-29.9 268.71,-30.53 277.36,-36.64 279.28,-29.9"/>
</g>
<!-- Node5 -->
<g id="node5" class="node">
<title>Node5</title>
<g id="a_node5"><a xlink:title=" ">
<polygon fill="white" stroke="#bfbfbf" points="306,-6 306,-25 445,-25 445,-6 306,-6"/>
<text text-anchor="middle" x="375.5" y="-13" font-family="Helvetica,sans-Serif" font-size="10.00">emlabcpp/static_vector.h</text>
</a>
</g>
</g>
<!-- Node2&#45;&gt;Node5 -->
<g id="edge4" class="edge">
<title>Node2&#45;&gt;Node5</title>
<path fill="none" stroke="midnightblue" d="M437.79,-72.73C426.24,-62.31 406.75,-44.71 392.64,-31.97"/>
<polygon fill="midnightblue" stroke="midnightblue" points="394.82,-29.23 385.06,-25.13 390.13,-34.43 394.82,-29.23"/>
</g>
<!-- Node6 -->
<g id="node6" class="node">
<title>Node6</title>
<g id="a_node6"><a xlink:title=" ">
<polygon fill="white" stroke="#bfbfbf" points="463.5,-6 463.5,-25 503.5,-25 503.5,-6 463.5,-6"/>
<text text-anchor="middle" x="483.5" y="-13" font-family="Helvetica,sans-Serif" font-size="10.00">span</text>
</a>
</g>
</g>
<!-- Node2&#45;&gt;Node6 -->
<g id="edge5" class="edge">
<title>Node2&#45;&gt;Node6</title>
<path fill="none" stroke="midnightblue" d="M452.36,-72.73C457.81,-62.89 466.8,-46.66 473.72,-34.16"/>
<polygon fill="midnightblue" stroke="midnightblue" points="476.94,-35.57 478.72,-25.13 470.81,-32.18 476.94,-35.57"/>
</g>
<!-- Node7 -->
<g id="node7" class="node">
<title>Node7</title>
<g id="a_node7"><a xlink:title=" ">
<polygon fill="white" stroke="#bfbfbf" points="522,-6 522,-25 623,-25 623,-6 522,-6"/>
<text text-anchor="middle" x="572.5" y="-13" font-family="Helvetica,sans-Serif" font-size="10.00">stm32g4xx_hal.h</text>
</a>
</g>
</g>
<!-- Node2&#45;&gt;Node7 -->
<g id="edge6" class="edge">
<title>Node2&#45;&gt;Node7</title>
<path fill="none" stroke="midnightblue" d="M464.1,-72.87C485.21,-61.89 521.88,-42.82 546.66,-29.94"/>
<polygon fill="midnightblue" stroke="midnightblue" points="548.57,-32.89 555.83,-25.17 545.35,-26.68 548.57,-32.89"/>
</g>
<!-- Node8&#45;&gt;Node7 -->
<g id="edge10" class="edge">
<title>Node8&#45;&gt;Node7</title>
<path fill="none" stroke="midnightblue" d="M602.78,-72.73C597.48,-62.89 588.74,-46.66 582.01,-34.16"/>
<polygon fill="midnightblue" stroke="midnightblue" points="584.97,-32.27 577.15,-25.13 578.8,-35.59 584.97,-32.27"/>
</g>
<!-- Node9 -->
<g id="node9" class="node">
<title>Node9</title>
<g id="a_node9"><a xlink:title=" ">
<polygon fill="white" stroke="#bfbfbf" points="641.5,-6 641.5,-25 705.5,-25 705.5,-6 641.5,-6"/>
<text text-anchor="middle" x="673.5" y="-13" font-family="Helvetica,sans-Serif" font-size="10.00">algorithm</text>
</a>
</g>
</g>
<!-- Node8&#45;&gt;Node9 -->
<g id="edge8" class="edge">
<title>Node8&#45;&gt;Node9</title>
<path fill="none" stroke="midnightblue" d="M616.4,-72.73C626.89,-62.4 644.52,-45.04 657.42,-32.33"/>
<polygon fill="midnightblue" stroke="midnightblue" points="660.07,-34.64 664.74,-25.13 655.16,-29.65 660.07,-34.64"/>
</g>
<!-- Node10 -->
<g id="node10" class="node">
<title>Node10</title>
<g id="a_node10"><a xlink:title=" ">
<polygon fill="white" stroke="#bfbfbf" points="723.5,-6 723.5,-25 773.5,-25 773.5,-6 723.5,-6"/>
<text text-anchor="middle" x="748.5" y="-13" font-family="Helvetica,sans-Serif" font-size="10.00">cstring</text>
</a>
</g>
</g>
<!-- Node8&#45;&gt;Node10 -->
<g id="edge9" class="edge">
<title>Node8&#45;&gt;Node10</title>
<path fill="none" stroke="midnightblue" d="M626.22,-72.87C650.35,-61.75 692.5,-42.32 720.45,-29.43"/>
<polygon fill="midnightblue" stroke="midnightblue" points="722.08,-32.53 729.7,-25.17 719.15,-26.18 722.08,-32.53"/>
</g>
</g>
</svg>
