<?xml version="1.0" encoding="UTF-8" standalone="no"?>
<!DOCTYPE svg PUBLIC "-//W3C//DTD SVG 1.1//EN"
 "http://www.w3.org/Graphics/SVG/1.1/DTD/svg11.dtd">
<!-- Generated by graphviz version 2.43.0 (0)
 -->
<!-- Title: src/cfg/default.hpp Pages: 1 -->
<svg width="938pt" height="207pt"
 viewBox="0.00 0.00 938.00 207.00" xmlns="http://www.w3.org/2000/svg" xmlns:xlink="http://www.w3.org/1999/xlink">
<g id="graph0" class="graph" transform="scale(1 1) rotate(0) translate(4 203)">
<title>src/cfg/default.hpp</title>
<polygon fill="white" stroke="transparent" points="-4,4 -4,-203 934,-203 934,4 -4,4"/>
<!-- Node1 -->
<g id="node1" class="node">
<title>Node1</title>
<g id="a_node1"><a xlink:title=" ">
<polygon fill="#bfbfbf" stroke="black" points="169,-179.5 169,-198.5 276,-198.5 276,-179.5 169,-179.5"/>
<text text-anchor="middle" x="222.5" y="-186.5" font-family="Helvetica,sans-Serif" font-size="10.00">src/cfg/default.hpp</text>
</a>
</g>
</g>
<!-- Node2 -->
<g id="node2" class="node">
<title>Node2</title>
<g id="a_node2"><a xlink:href="key_8hpp.html" target="_top" xlink:title=" ">
<polygon fill="white" stroke="black" points="0,-62 0,-81 71,-81 71,-62 0,-62"/>
<text text-anchor="middle" x="35.5" y="-69" font-family="Helvetica,sans-Serif" font-size="10.00">cfg/key.hpp</text>
</a>
</g>
</g>
<!-- Node1&#45;&gt;Node2 -->
<g id="edge1" class="edge">
<title>Node1&#45;&gt;Node2</title>
<path fill="none" stroke="midnightblue" d="M208.44,-179.32C176.28,-159.45 97.1,-110.55 58.04,-86.42"/>
<polygon fill="midnightblue" stroke="midnightblue" points="59.81,-83.4 49.46,-81.12 56.13,-89.36 59.81,-83.4"/>
</g>
<!-- Node4 -->
<g id="node4" class="node">
<title>Node4</title>
<g id="a_node4"><a xlink:href="map_8hpp.html" target="_top" xlink:title=" ">
<polygon fill="white" stroke="black" points="297,-123.5 297,-142.5 374,-142.5 374,-123.5 297,-123.5"/>
<text text-anchor="middle" x="335.5" y="-130.5" font-family="Helvetica,sans-Serif" font-size="10.00">cfg/map.hpp</text>
</a>
</g>
</g>
<!-- Node1&#45;&gt;Node4 -->
<g id="edge3" class="edge">
<title>Node1&#45;&gt;Node4</title>
<path fill="none" stroke="midnightblue" d="M240.41,-179.44C258.75,-170.68 287.51,-156.94 308.59,-146.86"/>
<polygon fill="midnightblue" stroke="midnightblue" points="310.17,-149.99 317.68,-142.52 307.15,-143.67 310.17,-149.99"/>
</g>
<!-- Node3 -->
<g id="node3" class="node">
<title>Node3</title>
<g id="a_node3"><a xlink:title=" ">
<polygon fill="white" stroke="#bfbfbf" points="58.5,-0.5 58.5,-19.5 108.5,-19.5 108.5,-0.5 58.5,-0.5"/>
<text text-anchor="middle" x="83.5" y="-7.5" font-family="Helvetica,sans-Serif" font-size="10.00">cstdint</text>
</a>
</g>
</g>
<!-- Node2&#45;&gt;Node3 -->
<g id="edge2" class="edge">
<title>Node2&#45;&gt;Node3</title>
<path fill="none" stroke="midnightblue" d="M42.38,-61.98C49.65,-52.96 61.3,-38.52 70.34,-27.31"/>
<polygon fill="midnightblue" stroke="midnightblue" points="73.08,-29.49 76.64,-19.51 67.63,-25.09 73.08,-29.49"/>
</g>
<!-- Node4&#45;&gt;Node2 -->
<g id="edge6" class="edge">
<title>Node4&#45;&gt;Node2</title>
<path fill="none" stroke="midnightblue" d="M296.97,-127C246.55,-120.05 155.65,-106.13 79.5,-87 76.12,-86.15 72.63,-85.17 69.15,-84.14"/>
<polygon fill="midnightblue" stroke="midnightblue" points="70.11,-80.77 59.52,-81.11 68.01,-87.45 70.11,-80.77"/>
</g>
<!-- Node5 -->
<g id="node5" class="node">
<title>Node5</title>
<g id="a_node5"><a xlink:href="base_2base_8hpp.html" target="_top" xlink:title=" ">
<polygon fill="white" stroke="red" points="89,-62 89,-81 176,-81 176,-62 89,-62"/>
<text text-anchor="middle" x="132.5" y="-69" font-family="Helvetica,sans-Serif" font-size="10.00">base/base.hpp</text>
</a>
</g>
</g>
<!-- Node4&#45;&gt;Node5 -->
<g id="edge4" class="edge">
<title>Node4&#45;&gt;Node5</title>
<path fill="none" stroke="midnightblue" d="M306.42,-123.48C270.92,-113.07 210.75,-95.44 171.33,-83.88"/>
<polygon fill="midnightblue" stroke="midnightblue" points="172.11,-80.46 161.53,-81.01 170.14,-87.18 172.11,-80.46"/>
</g>
<!-- Node10 -->
<g id="node6" class="node">
<title>Node10</title>
<g id="a_node6"><a xlink:title=" ">
<polygon fill="white" stroke="#bfbfbf" points="194,-56.5 194,-86.5 327,-86.5 327,-56.5 194,-56.5"/>
<text text-anchor="start" x="202" y="-74.5" font-family="Helvetica,sans-Serif" font-size="10.00">emlabcpp/experimental</text>
<text text-anchor="middle" x="260.5" y="-63.5" font-family="Helvetica,sans-Serif" font-size="10.00">/string_buffer.h</text>
</a>
</g>
</g>
<!-- Node4&#45;&gt;Node10 -->
<g id="edge7" class="edge">
<title>Node4&#45;&gt;Node10</title>
<path fill="none" stroke="midnightblue" d="M324.75,-123.48C314.69,-115.49 299.27,-103.25 286.05,-92.77"/>
<polygon fill="midnightblue" stroke="midnightblue" points="288.19,-90 278.18,-86.52 283.83,-95.48 288.19,-90"/>
</g>
<!-- Node11 -->
<g id="node7" class="node">
<title>Node11</title>
<g id="a_node7"><a xlink:title=" ">
<polygon fill="white" stroke="#bfbfbf" points="345,-56.5 345,-86.5 478,-86.5 478,-56.5 345,-56.5"/>
<text text-anchor="start" x="353" y="-74.5" font-family="Helvetica,sans-Serif" font-size="10.00">emlabcpp/experimental</text>
<text text-anchor="middle" x="411.5" y="-63.5" font-family="Helvetica,sans-Serif" font-size="10.00">/testing/convert.h</text>
</a>
</g>
</g>
<!-- Node4&#45;&gt;Node11 -->
<g id="edge8" class="edge">
<title>Node4&#45;&gt;Node11</title>
<path fill="none" stroke="midnightblue" d="M346.39,-123.48C356.59,-115.49 372.22,-103.25 385.61,-92.77"/>
<polygon fill="midnightblue" stroke="midnightblue" points="387.87,-95.44 393.59,-86.52 383.56,-89.93 387.87,-95.44"/>
</g>
<!-- Node12 -->
<g id="node8" class="node">
<title>Node12</title>
<g id="a_node8"><a xlink:title=" ">
<polygon fill="white" stroke="#bfbfbf" points="496.5,-56.5 496.5,-86.5 644.5,-86.5 644.5,-56.5 496.5,-56.5"/>
<text text-anchor="start" x="504.5" y="-74.5" font-family="Helvetica,sans-Serif" font-size="10.00">emlabcpp/protocol/register</text>
<text text-anchor="middle" x="570.5" y="-63.5" font-family="Helvetica,sans-Serif" font-size="10.00">_handler.h</text>
</a>
</g>
</g>
<!-- Node4&#45;&gt;Node12 -->
<g id="edge9" class="edge">
<title>Node4&#45;&gt;Node12</title>
<path fill="none" stroke="midnightblue" d="M369.17,-123.48C404.57,-114.51 461.14,-100.19 505.32,-89"/>
<polygon fill="midnightblue" stroke="midnightblue" points="506.28,-92.37 515.12,-86.52 504.56,-85.58 506.28,-92.37"/>
</g>
<!-- Node13 -->
<g id="node9" class="node">
<title>Node13</title>
<g id="a_node9"><a xlink:title=" ">
<polygon fill="white" stroke="#bfbfbf" points="662.5,-56.5 662.5,-86.5 810.5,-86.5 810.5,-56.5 662.5,-56.5"/>
<text text-anchor="start" x="670.5" y="-74.5" font-family="Helvetica,sans-Serif" font-size="10.00">emlabcpp/protocol/register</text>
<text text-anchor="middle" x="736.5" y="-63.5" font-family="Helvetica,sans-Serif" font-size="10.00">_map.h</text>
</a>
</g>
</g>
<!-- Node4&#45;&gt;Node13 -->
<g id="edge10" class="edge">
<title>Node4&#45;&gt;Node13</title>
<path fill="none" stroke="midnightblue" d="M374.23,-126.93C432.36,-119.23 545.85,-103.85 652.36,-87.15"/>
<polygon fill="midnightblue" stroke="midnightblue" points="652.97,-90.6 662.31,-85.58 651.89,-83.68 652.97,-90.6"/>
</g>
<!-- Node14 -->
<g id="node10" class="node">
<title>Node14</title>
<g id="a_node10"><a xlink:title=" ">
<polygon fill="white" stroke="#bfbfbf" points="829,-62 829,-81 930,-81 930,-62 829,-62"/>
<text text-anchor="middle" x="879.5" y="-69" font-family="Helvetica,sans-Serif" font-size="10.00">magic_enum.hpp</text>
</a>
</g>
</g>
<!-- Node4&#45;&gt;Node14 -->
<g id="edge11" class="edge">
<title>Node4&#45;&gt;Node14</title>
<path fill="none" stroke="midnightblue" d="M374.02,-130.31C456.29,-126.29 655.09,-114.36 819.5,-87 825.46,-86.01 831.7,-84.75 837.82,-83.39"/>
<polygon fill="midnightblue" stroke="midnightblue" points="838.97,-86.72 847.91,-81.04 837.38,-79.9 838.97,-86.72"/>
</g>
<!-- Node5&#45;&gt;Node3 -->
<g id="edge5" class="edge">
<title>Node5&#45;&gt;Node3</title>
<path fill="none" stroke="midnightblue" d="M125.48,-61.98C118.06,-52.96 106.17,-38.52 96.93,-27.31"/>
<polygon fill="midnightblue" stroke="midnightblue" points="99.57,-25 90.51,-19.51 94.16,-29.45 99.57,-25"/>
</g>
</g>
</svg>
