<?xml version="1.0" encoding="UTF-8" standalone="no"?>
<!DOCTYPE svg PUBLIC "-//W3C//DTD SVG 1.1//EN"
 "http://www.w3.org/Graphics/SVG/1.1/DTD/svg11.dtd">
<!-- Generated by graphviz version 2.43.0 (0)
 -->
<!-- Title: src/cfg/default.hpp Pages: 1 -->
<svg width="976pt" height="203pt"
 viewBox="0.00 0.00 976.00 203.00" xmlns="http://www.w3.org/2000/svg" xmlns:xlink="http://www.w3.org/1999/xlink">
<g id="graph0" class="graph" transform="scale(1 1) rotate(0) translate(4 199)">
<title>src/cfg/default.hpp</title>
<!-- Node1 -->
<g id="Node000001" class="node">
<title>Node1</title>
<g id="a_Node000001"><a xlink:title=" ">
<polygon fill="#999999" stroke="#666666" points="259,-195 152,-195 152,-176 259,-176 259,-195"/>
<text text-anchor="middle" x="205.5" y="-183" font-family="Helvetica,sans-Serif" font-size="10.00">src/cfg/default.hpp</text>
</a>
</g>
</g>
<!-- Node2 -->
<g id="Node000002" class="node">
<title>Node2</title>
<g id="a_Node000002"><a xlink:href="key_8hpp.html" target="_top" xlink:title=" ">
<polygon fill="white" stroke="#666666" points="59,-79.5 0,-79.5 0,-60.5 59,-60.5 59,-79.5"/>
<text text-anchor="middle" x="29.5" y="-67.5" font-family="Helvetica,sans-Serif" font-size="10.00">./key.hpp</text>
</a>
</g>
</g>
<!-- Node1&#45;&gt;Node2 -->
<g id="edge1_Node000001_Node000002" class="edge">
<title>Node1&#45;&gt;Node2</title>
<g id="a_edge1_Node000001_Node000002"><a xlink:title=" ">
<path fill="none" stroke="#63b8ff" d="M192.27,-175.97C162.2,-156.58 88.47,-109.03 51.45,-85.16"/>
<polygon fill="#63b8ff" stroke="#63b8ff" points="53.18,-82.11 42.88,-79.63 49.39,-87.99 53.18,-82.11"/>
</a>
</g>
</g>
<!-- Node4 -->
<g id="Node000004" class="node">
<title>Node4</title>
<g id="a_Node000004"><a xlink:href="map_8hpp.html" target="_top" xlink:title=" ">
<polygon fill="white" stroke="#666666" points="340,-140 275,-140 275,-121 340,-121 340,-140"/>
<text text-anchor="middle" x="307.5" y="-128" font-family="Helvetica,sans-Serif" font-size="10.00">./map.hpp</text>
</a>
</g>
</g>
<!-- Node1&#45;&gt;Node4 -->
<g id="edge3_Node000001_Node000004" class="edge">
<title>Node1&#45;&gt;Node4</title>
<g id="a_edge3_Node000001_Node000004"><a xlink:title=" ">
<path fill="none" stroke="#63b8ff" d="M221.89,-175.98C238.07,-167.57 263.07,-154.59 281.88,-144.81"/>
<polygon fill="#63b8ff" stroke="#63b8ff" points="283.55,-147.89 290.81,-140.17 280.33,-141.68 283.55,-147.89"/>
</a>
</g>
</g>
<!-- Node3 -->
<g id="Node000003" class="node">
<title>Node3</title>
<g id="a_Node000003"><a xlink:title=" ">
<polygon fill="#e0e0e0" stroke="#999999" points="95.5,-19 45.5,-19 45.5,0 95.5,0 95.5,-19"/>
<text text-anchor="middle" x="70.5" y="-7" font-family="Helvetica,sans-Serif" font-size="10.00">cstdint</text>
</a>
</g>
</g>
<!-- Node2&#45;&gt;Node3 -->
<g id="edge2_Node000002_Node000003" class="edge">
<title>Node2&#45;&gt;Node3</title>
<g id="a_edge2_Node000002_Node000003"><a xlink:title=" ">
<path fill="none" stroke="#63b8ff" d="M35.55,-60.37C41.61,-51.73 51.09,-38.2 58.64,-27.42"/>
<polygon fill="#63b8ff" stroke="#63b8ff" points="61.55,-29.37 64.43,-19.17 55.82,-25.35 61.55,-29.37"/>
</a>
</g>
</g>
<!-- Node4&#45;&gt;Node2 -->
<g id="edge6_Node000004_Node000002" class="edge">
<title>Node4&#45;&gt;Node2</title>
<g id="a_edge6_Node000004_Node000002"><a xlink:title=" ">
<path fill="none" stroke="#63b8ff" d="M274.65,-125.09C228.24,-118.48 141.02,-104.63 68.5,-85 66.07,-84.34 63.57,-83.6 61.08,-82.82"/>
<polygon fill="#63b8ff" stroke="#63b8ff" points="62.17,-79.49 51.58,-79.62 59.94,-86.13 62.17,-79.49"/>
</a>
</g>
</g>
<!-- Node5 -->
<g id="Node000005" class="node">
<title>Node5</title>
<g id="a_Node000005"><a xlink:href="base_8hpp.html" target="_top" xlink:title=" ">
<polygon fill="#fff0f0" stroke="red" points="147.5,-79.5 77.5,-79.5 77.5,-60.5 147.5,-60.5 147.5,-79.5"/>
<text text-anchor="middle" x="112.5" y="-67.5" font-family="Helvetica,sans-Serif" font-size="10.00">../base.hpp</text>
</a>
</g>
</g>
<!-- Node4&#45;&gt;Node5 -->
<g id="edge4_Node000004_Node000005" class="edge">
<title>Node4&#45;&gt;Node5</title>
<g id="a_edge4_Node000004_Node000005"><a xlink:title=" ">
<path fill="none" stroke="#63b8ff" d="M277.93,-120.99C247.45,-112.17 198.57,-97.89 156.5,-85 153.93,-84.21 151.28,-83.39 148.61,-82.56"/>
<polygon fill="#63b8ff" stroke="#63b8ff" points="149.59,-79.2 139,-79.53 147.48,-85.87 149.59,-79.2"/>
</a>
</g>
</g>
<!-- Node10 -->
<g id="Node000010" class="node">
<title>Node10</title>
<g id="a_Node000010"><a xlink:title=" ">
<polygon fill="#e0e0e0" stroke="#999999" points="299,-85 166,-85 166,-55 299,-55 299,-85"/>
<text text-anchor="start" x="174" y="-73" font-family="Helvetica,sans-Serif" font-size="10.00">emlabcpp/experimental</text>
<text text-anchor="middle" x="232.5" y="-62" font-family="Helvetica,sans-Serif" font-size="10.00">/string_buffer.h</text>
</a>
</g>
</g>
<!-- Node4&#45;&gt;Node10 -->
<g id="edge7_Node000004_Node000010" class="edge">
<title>Node4&#45;&gt;Node10</title>
<g id="a_edge7_Node000004_Node000010"><a xlink:title=" ">
<path fill="none" stroke="#63b8ff" d="M296.43,-120.87C286.54,-113.15 271.65,-101.54 258.73,-91.46"/>
<polygon fill="#63b8ff" stroke="#63b8ff" points="260.63,-88.51 250.6,-85.11 256.33,-94.02 260.63,-88.51"/>
</a>
</g>
</g>
<!-- Node11 -->
<g id="Node000011" class="node">
<title>Node11</title>
<g id="a_Node000011"><a xlink:title=" ">
<polygon fill="#e0e0e0" stroke="#999999" points="450,-85 317,-85 317,-55 450,-55 450,-85"/>
<text text-anchor="start" x="325" y="-73" font-family="Helvetica,sans-Serif" font-size="10.00">emlabcpp/experimental</text>
<text text-anchor="middle" x="383.5" y="-62" font-family="Helvetica,sans-Serif" font-size="10.00">/testing/convert.h</text>
</a>
</g>
</g>
<!-- Node4&#45;&gt;Node11 -->
<g id="edge8_Node000004_Node000011" class="edge">
<title>Node4&#45;&gt;Node11</title>
<g id="a_edge8_Node000004_Node000011"><a xlink:title=" ">
<path fill="none" stroke="#63b8ff" d="M318.71,-120.87C328.74,-113.15 343.83,-101.54 356.92,-91.46"/>
<polygon fill="#63b8ff" stroke="#63b8ff" points="359.37,-93.99 365.16,-85.11 355.1,-88.44 359.37,-93.99"/>
</a>
</g>
</g>
<!-- Node12 -->
<g id="Node000012" class="node">
<title>Node12</title>
<g id="a_Node000012"><a xlink:title=" ">
<polygon fill="#e0e0e0" stroke="#999999" points="616.5,-85 468.5,-85 468.5,-55 616.5,-55 616.5,-85"/>
<text text-anchor="start" x="476.5" y="-73" font-family="Helvetica,sans-Serif" font-size="10.00">emlabcpp/protocol/register</text>
<text text-anchor="middle" x="542.5" y="-62" font-family="Helvetica,sans-Serif" font-size="10.00">_handler.h</text>
</a>
</g>
</g>
<!-- Node4&#45;&gt;Node12 -->
<g id="edge9_Node000004_Node000012" class="edge">
<title>Node4&#45;&gt;Node12</title>
<g id="a_edge9_Node000004_Node000012"><a xlink:title=" ">
<path fill="none" stroke="#63b8ff" d="M340.18,-121.37C375.23,-112.64 431.86,-98.54 476.3,-87.48"/>
<polygon fill="#63b8ff" stroke="#63b8ff" points="477.31,-90.84 486.16,-85.02 475.62,-84.04 477.31,-90.84"/>
</a>
</g>
</g>
<!-- Node13 -->
<g id="Node000013" class="node">
<title>Node13</title>
<g id="a_Node000013"><a xlink:title=" ">
<polygon fill="#e0e0e0" stroke="#999999" points="782.5,-85 634.5,-85 634.5,-55 782.5,-55 782.5,-85"/>
<text text-anchor="start" x="642.5" y="-73" font-family="Helvetica,sans-Serif" font-size="10.00">emlabcpp/protocol/register</text>
<text text-anchor="middle" x="708.5" y="-62" font-family="Helvetica,sans-Serif" font-size="10.00">_map.h</text>
</a>
</g>
</g>
<!-- Node4&#45;&gt;Node13 -->
<g id="edge10_Node000004_Node000013" class="edge">
<title>Node4&#45;&gt;Node13</title>
<g id="a_edge10_Node000004_Node000013"><a xlink:title=" ">
<path fill="none" stroke="#63b8ff" d="M340.05,-125.25C395.98,-117.89 514.18,-102.03 624.35,-85.15"/>
<polygon fill="#63b8ff" stroke="#63b8ff" points="624.95,-88.6 634.3,-83.62 623.89,-81.68 624.95,-88.6"/>
</a>
</g>
</g>
<!-- Node14 -->
<g id="Node000014" class="node">
<title>Node14</title>
<g id="a_Node000014"><a xlink:title=" ">
<polygon fill="#e0e0e0" stroke="#999999" points="968,-79.5 801,-79.5 801,-60.5 968,-60.5 968,-79.5"/>
<text text-anchor="middle" x="884.5" y="-67.5" font-family="Helvetica,sans-Serif" font-size="10.00">magic_enum/magic_enum.hpp</text>
</a>
</g>
</g>
<!-- Node4&#45;&gt;Node14 -->
<g id="edge11_Node000004_Node000014" class="edge">
<title>Node4&#45;&gt;Node14</title>
<g id="a_edge11_Node000004_Node000014"><a xlink:title=" ">
<path fill="none" stroke="#63b8ff" d="M340.14,-127.15C418.26,-121.39 622.08,-105.52 791.5,-85 801.23,-83.82 811.5,-82.43 821.53,-80.98"/>
<polygon fill="#63b8ff" stroke="#63b8ff" points="822.07,-84.44 831.46,-79.53 821.05,-77.51 822.07,-84.44"/>
</a>
</g>
</g>
<!-- Node5&#45;&gt;Node3 -->
<g id="edge5_Node000005_Node000003" class="edge">
<title>Node5&#45;&gt;Node3</title>
<g id="a_edge5_Node000005_Node000003"><a xlink:title=" ">
<path fill="none" stroke="#63b8ff" d="M106.3,-60.37C100.1,-51.73 90.39,-38.2 82.64,-27.42"/>
<polygon fill="#63b8ff" stroke="#63b8ff" points="85.4,-25.25 76.72,-19.17 79.71,-29.33 85.4,-25.25"/>
</a>
</g>
</g>
</g>
</svg>
