<?xml version="1.0" encoding="UTF-8" standalone="no"?>
<!DOCTYPE svg PUBLIC "-//W3C//DTD SVG 1.1//EN"
 "http://www.w3.org/Graphics/SVG/1.1/DTD/svg11.dtd">
<!-- Generated by graphviz version 2.43.0 (0)
 -->
<!-- Title: src/scmdio/tests/dfu_flash_utest.cpp Pages: 1 -->
<svg width="2198pt" height="291pt"
 viewBox="0.00 0.00 2197.50 291.00" xmlns="http://www.w3.org/2000/svg" xmlns:xlink="http://www.w3.org/1999/xlink">
<g id="graph0" class="graph" transform="scale(1 1) rotate(0) translate(4 287)">
<title>src/scmdio/tests/dfu_flash_utest.cpp</title>
<!-- Node1 -->
<g id="Node000001" class="node">
<title>Node1</title>
<g id="a_Node000001"><a xlink:title=" ">
<polygon fill="#999999" stroke="#666666" points="1296.5,-283 1181.5,-283 1181.5,-253 1296.5,-253 1296.5,-283"/>
<text text-anchor="start" x="1189.5" y="-271" font-family="Helvetica,sans-Serif" font-size="10.00">src/scmdio/tests/dfu</text>
<text text-anchor="middle" x="1239" y="-260" font-family="Helvetica,sans-Serif" font-size="10.00">_flash_utest.cpp</text>
</a>
</g>
</g>
<!-- Node2 -->
<g id="Node000002" class="node">
<title>Node2</title>
<g id="a_Node000002"><a xlink:href="base_8hpp.html" target="_top" xlink:title=" ">
<polygon fill="white" stroke="#666666" points="324.5,-206 245.5,-206 245.5,-187 324.5,-187 324.5,-206"/>
<text text-anchor="middle" x="285" y="-194" font-family="Helvetica,sans-Serif" font-size="10.00">../../base.hpp</text>
</a>
</g>
</g>
<!-- Node1&#45;&gt;Node2 -->
<g id="edge1_Node000001_Node000002" class="edge">
<title>Node1&#45;&gt;Node2</title>
<g id="a_edge1_Node000001_Node000002"><a xlink:title=" ">
<path fill="none" stroke="#63b8ff" d="M1181.47,-262.81C1008.82,-250.23 497.04,-212.95 334.88,-201.13"/>
<polygon fill="#63b8ff" stroke="#63b8ff" points="334.94,-197.63 324.71,-200.39 334.43,-204.61 334.94,-197.63"/>
</a>
</g>
</g>
<!-- Node4 -->
<g id="Node000004" class="node">
<title>Node4</title>
<g id="a_Node000004"><a xlink:title=" ">
<polygon fill="#e0e0e0" stroke="#999999" points="50,-24.5 0,-24.5 0,-5.5 50,-5.5 50,-24.5"/>
<text text-anchor="middle" x="25" y="-12.5" font-family="Helvetica,sans-Serif" font-size="10.00">cstdint</text>
</a>
</g>
</g>
<!-- Node1&#45;&gt;Node4 -->
<g id="edge30_Node000001_Node000004" class="edge">
<title>Node1&#45;&gt;Node4</title>
<g id="a_edge30_Node000001_Node000004"><a xlink:title=" ">
<path fill="none" stroke="#63b8ff" d="M1181.3,-266.44C996.17,-264.27 418.62,-254.58 236,-217 139.86,-197.21 93.34,-214.14 29,-140 3.55,-110.68 11.96,-61.17 19.16,-34.44"/>
<polygon fill="#63b8ff" stroke="#63b8ff" points="22.62,-35.09 22.07,-24.51 15.9,-33.12 22.62,-35.09"/>
</a>
</g>
</g>
<!-- Node10 -->
<g id="Node000010" class="node">
<title>Node10</title>
<g id="a_Node000010"><a xlink:href="scmdio_2base_8hpp.html" target="_top" xlink:title=" ">
<polygon fill="white" stroke="#666666" points="860,-85 790,-85 790,-66 860,-66 860,-85"/>
<text text-anchor="middle" x="825" y="-73" font-family="Helvetica,sans-Serif" font-size="10.00">../base.hpp</text>
</a>
</g>
</g>
<!-- Node1&#45;&gt;Node10 -->
<g id="edge9_Node000001_Node000010" class="edge">
<title>Node1&#45;&gt;Node10</title>
<g id="a_edge9_Node000001_Node000010"><a xlink:title=" ">
<path fill="none" stroke="#63b8ff" d="M1181.33,-264.18C1073.32,-258.29 849.27,-243.07 826,-217 795.76,-183.13 808.97,-124.23 818.43,-94.61"/>
<polygon fill="#63b8ff" stroke="#63b8ff" points="821.75,-95.72 821.66,-85.12 815.12,-93.46 821.75,-95.72"/>
</a>
</g>
</g>
<!-- Node16 -->
<g id="Node000016" class="node">
<title>Node16</title>
<g id="a_Node000016"><a xlink:title=" ">
<polygon fill="#e0e0e0" stroke="#999999" points="633.5,-24.5 540.5,-24.5 540.5,-5.5 633.5,-5.5 633.5,-24.5"/>
<text text-anchor="middle" x="587" y="-12.5" font-family="Helvetica,sans-Serif" font-size="10.00">spdlog/spdlog.h</text>
</a>
</g>
</g>
<!-- Node1&#45;&gt;Node16 -->
<g id="edge35_Node000001_Node000016" class="edge">
<title>Node1&#45;&gt;Node16</title>
<g id="a_edge35_Node000001_Node000016"><a xlink:title=" ">
<path fill="none" stroke="#63b8ff" d="M1181.25,-265.5C1078.56,-261.99 868.95,-250.81 805,-217 755.14,-190.64 762.9,-159.84 722,-121 684.47,-85.37 635.46,-49.58 608.01,-30.37"/>
<polygon fill="#63b8ff" stroke="#63b8ff" points="609.78,-27.34 599.57,-24.51 605.79,-33.09 609.78,-27.34"/>
</a>
</g>
</g>
<!-- Node17 -->
<g id="Node000017" class="node">
<title>Node17</title>
<g id="a_Node000017"><a xlink:href="dfu__flash_8hpp.html" target="_top" xlink:title=" ">
<polygon fill="white" stroke="#666666" points="936.5,-206 845.5,-206 845.5,-187 936.5,-187 936.5,-206"/>
<text text-anchor="middle" x="891" y="-194" font-family="Helvetica,sans-Serif" font-size="10.00">../dfu_flash.hpp</text>
</a>
</g>
</g>
<!-- Node1&#45;&gt;Node17 -->
<g id="edge17_Node000001_Node000017" class="edge">
<title>Node1&#45;&gt;Node17</title>
<g id="a_edge17_Node000001_Node000017"><a xlink:title=" ">
<path fill="none" stroke="#63b8ff" d="M1181.4,-259.46C1122.9,-251.23 1029.93,-236.57 951,-217 942.29,-214.84 933.01,-212.07 924.41,-209.29"/>
<polygon fill="#63b8ff" stroke="#63b8ff" points="925.31,-205.9 914.72,-206.07 923.1,-212.54 925.31,-205.9"/>
</a>
</g>
</g>
<!-- Node18 -->
<g id="Node000018" class="node">
<title>Node18</title>
<g id="a_Node000018"><a xlink:href="port_8hpp.html" target="_top" xlink:title=" ">
<polygon fill="#fff0f0" stroke="red" points="898.5,-140 841.5,-140 841.5,-121 898.5,-121 898.5,-140"/>
<text text-anchor="middle" x="870" y="-128" font-family="Helvetica,sans-Serif" font-size="10.00">port.hpp</text>
</a>
</g>
</g>
<!-- Node1&#45;&gt;Node18 -->
<g id="edge21_Node000001_Node000018" class="edge">
<title>Node1&#45;&gt;Node18</title>
<g id="a_edge21_Node000001_Node000018"><a xlink:title=" ">
<path fill="none" stroke="#63b8ff" d="M1181.47,-264.01C1075.58,-257.93 858.5,-242.46 836,-217 818.21,-196.86 838.48,-166.27 854.48,-147.66"/>
<polygon fill="#63b8ff" stroke="#63b8ff" points="857.26,-149.79 861.37,-140.03 852.07,-145.1 857.26,-149.79"/>
</a>
</g>
</g>
<!-- Node21 -->
<g id="Node000021" class="node">
<title>Node21</title>
<g id="a_Node000021"><a xlink:title=" ">
<polygon fill="#e0e0e0" stroke="#999999" points="930.5,-85 883.5,-85 883.5,-66 930.5,-66 930.5,-85"/>
<text text-anchor="middle" x="907" y="-73" font-family="Helvetica,sans-Serif" font-size="10.00">vector</text>
</a>
</g>
</g>
<!-- Node1&#45;&gt;Node21 -->
<g id="edge39_Node000001_Node000021" class="edge">
<title>Node1&#45;&gt;Node21</title>
<g id="a_edge39_Node000001_Node000021"><a xlink:title=" ">
<path fill="none" stroke="#63b8ff" d="M1181.12,-265.3C1132.52,-261.42 1063.04,-249.92 1012,-217 963.93,-185.99 929.87,-124.84 915.14,-94.48"/>
<polygon fill="#63b8ff" stroke="#63b8ff" points="918.17,-92.68 910.75,-85.12 911.83,-95.66 918.17,-92.68"/>
</a>
</g>
</g>
<!-- Node22 -->
<g id="Node000022" class="node">
<title>Node22</title>
<g id="a_Node000022"><a xlink:href="scmdio_2tests_2util_8hpp.html" target="_top" xlink:title=" ">
<polygon fill="white" stroke="#666666" points="1090.5,-206 1031.5,-206 1031.5,-187 1090.5,-187 1090.5,-206"/>
<text text-anchor="middle" x="1061" y="-194" font-family="Helvetica,sans-Serif" font-size="10.00">./util.hpp</text>
</a>
</g>
</g>
<!-- Node1&#45;&gt;Node22 -->
<g id="edge22_Node000001_Node000022" class="edge">
<title>Node1&#45;&gt;Node22</title>
<g id="a_edge22_Node000001_Node000022"><a xlink:title=" ">
<path fill="none" stroke="#63b8ff" d="M1195.91,-252.97C1168.2,-243.59 1131.59,-230.52 1100,-217 1095.45,-215.05 1090.69,-212.83 1086.11,-210.6"/>
<polygon fill="#63b8ff" stroke="#63b8ff" points="1087.63,-207.44 1077.12,-206.1 1084.49,-213.7 1087.63,-207.44"/>
</a>
</g>
</g>
<!-- Node23 -->
<g id="Node000023" class="node">
<title>Node23</title>
<g id="a_Node000023"><a xlink:title=" ">
<polygon fill="#e0e0e0" stroke="#999999" points="1086,-140 1008,-140 1008,-121 1086,-121 1086,-140"/>
<text text-anchor="middle" x="1047" y="-128" font-family="Helvetica,sans-Serif" font-size="10.00">gtest/gtest.h</text>
</a>
</g>
</g>
<!-- Node1&#45;&gt;Node23 -->
<g id="edge33_Node000001_Node000023" class="edge">
<title>Node1&#45;&gt;Node23</title>
<g id="a_edge33_Node000001_Node000023"><a xlink:title=" ">
<path fill="none" stroke="#63b8ff" d="M1181.4,-261.73C1123.98,-255.14 1041.59,-241.62 1022,-217 1006.03,-196.93 1021.25,-166.98 1033.94,-148.37"/>
<polygon fill="#63b8ff" stroke="#63b8ff" points="1036.8,-150.4 1039.83,-140.24 1031.13,-146.29 1036.8,-150.4"/>
</a>
</g>
</g>
<!-- Node24 -->
<g id="Node000024" class="node">
<title>Node24</title>
<g id="a_Node000024"><a xlink:title=" ">
<polygon fill="#e0e0e0" stroke="#999999" points="1151,-206 1109,-206 1109,-187 1151,-187 1151,-206"/>
<text text-anchor="middle" x="1130" y="-194" font-family="Helvetica,sans-Serif" font-size="10.00">array</text>
</a>
</g>
</g>
<!-- Node1&#45;&gt;Node24 -->
<g id="edge24_Node000001_Node000024" class="edge">
<title>Node1&#45;&gt;Node24</title>
<g id="a_edge24_Node000001_Node000024"><a xlink:title=" ">
<path fill="none" stroke="#63b8ff" d="M1216.94,-252.94C1198.02,-240.87 1170.89,-223.57 1151.98,-211.52"/>
<polygon fill="#63b8ff" stroke="#63b8ff" points="1153.75,-208.49 1143.44,-206.07 1149.99,-214.4 1153.75,-208.49"/>
</a>
</g>
</g>
<!-- Node25 -->
<g id="Node000025" class="node">
<title>Node25</title>
<g id="a_Node000025"><a xlink:title=" ">
<polygon fill="#e0e0e0" stroke="#999999" points="1308.5,-206 1169.5,-206 1169.5,-187 1308.5,-187 1308.5,-206"/>
<text text-anchor="middle" x="1239" y="-194" font-family="Helvetica,sans-Serif" font-size="10.00">boost/asio/co_spawn.hpp</text>
</a>
</g>
</g>
<!-- Node1&#45;&gt;Node25 -->
<g id="edge25_Node000001_Node000025" class="edge">
<title>Node1&#45;&gt;Node25</title>
<g id="a_edge25_Node000001_Node000025"><a xlink:title=" ">
<path fill="none" stroke="#63b8ff" d="M1239,-252.94C1239,-242.46 1239,-228.05 1239,-216.55"/>
<polygon fill="#63b8ff" stroke="#63b8ff" points="1242.5,-216.27 1239,-206.27 1235.5,-216.27 1242.5,-216.27"/>
</a>
</g>
</g>
<!-- Node26 -->
<g id="Node000026" class="node">
<title>Node26</title>
<g id="a_Node000026"><a xlink:title=" ">
<polygon fill="#e0e0e0" stroke="#999999" points="1469,-206 1327,-206 1327,-187 1469,-187 1469,-206"/>
<text text-anchor="middle" x="1398" y="-194" font-family="Helvetica,sans-Serif" font-size="10.00">boost/asio/io_context.hpp</text>
</a>
</g>
</g>
<!-- Node1&#45;&gt;Node26 -->
<g id="edge26_Node000001_Node000026" class="edge">
<title>Node1&#45;&gt;Node26</title>
<g id="a_edge26_Node000001_Node000026"><a xlink:title=" ">
<path fill="none" stroke="#63b8ff" d="M1271.18,-252.94C1299.79,-240.43 1341.25,-222.31 1368.89,-210.22"/>
<polygon fill="#63b8ff" stroke="#63b8ff" points="1370.64,-213.28 1378.4,-206.07 1367.83,-206.87 1370.64,-213.28"/>
</a>
</g>
</g>
<!-- Node27 -->
<g id="Node000027" class="node">
<title>Node27</title>
<g id="a_Node000027"><a xlink:title=" ">
<polygon fill="#e0e0e0" stroke="#999999" points="1539,-206 1487,-206 1487,-187 1539,-187 1539,-206"/>
<text text-anchor="middle" x="1513" y="-194" font-family="Helvetica,sans-Serif" font-size="10.00">cassert</text>
</a>
</g>
</g>
<!-- Node1&#45;&gt;Node27 -->
<g id="edge27_Node000001_Node000027" class="edge">
<title>Node1&#45;&gt;Node27</title>
<g id="a_edge27_Node000001_Node000027"><a xlink:title=" ">
<path fill="none" stroke="#63b8ff" d="M1296.86,-259.89C1346.13,-252.67 1418.23,-239.31 1478,-217 1482.37,-215.37 1486.85,-213.25 1491.09,-211.02"/>
<polygon fill="#63b8ff" stroke="#63b8ff" points="1492.84,-214.05 1499.83,-206.09 1489.4,-207.95 1492.84,-214.05"/>
</a>
</g>
</g>
<!-- Node28 -->
<g id="Node000028" class="node">
<title>Node28</title>
<g id="a_Node000028"><a xlink:title=" ">
<polygon fill="#e0e0e0" stroke="#999999" points="1619,-206 1557,-206 1557,-187 1619,-187 1619,-206"/>
<text text-anchor="middle" x="1588" y="-194" font-family="Helvetica,sans-Serif" font-size="10.00">coroutine</text>
</a>
</g>
</g>
<!-- Node1&#45;&gt;Node28 -->
<g id="edge28_Node000001_Node000028" class="edge">
<title>Node1&#45;&gt;Node28</title>
<g id="a_edge28_Node000001_Node000028"><a xlink:title=" ">
<path fill="none" stroke="#63b8ff" d="M1296.55,-262.76C1359.5,-256.96 1462.78,-244.02 1548,-217 1553.21,-215.35 1558.59,-213.12 1563.65,-210.77"/>
<polygon fill="#63b8ff" stroke="#63b8ff" points="1565.46,-213.77 1572.86,-206.19 1562.35,-207.5 1565.46,-213.77"/>
</a>
</g>
</g>
<!-- Node29 -->
<g id="Node000029" class="node">
<title>Node29</title>
<g id="a_Node000029"><a xlink:title=" ">
<polygon fill="#e0e0e0" stroke="#999999" points="1690.5,-206 1637.5,-206 1637.5,-187 1690.5,-187 1690.5,-206"/>
<text text-anchor="middle" x="1664" y="-194" font-family="Helvetica,sans-Serif" font-size="10.00">cstddef</text>
</a>
</g>
</g>
<!-- Node1&#45;&gt;Node29 -->
<g id="edge29_Node000001_Node000029" class="edge">
<title>Node1&#45;&gt;Node29</title>
<g id="a_edge29_Node000001_Node000029"><a xlink:title=" ">
<path fill="none" stroke="#63b8ff" d="M1296.8,-266.15C1374.06,-263.55 1514.44,-253.64 1628,-217 1632.61,-215.51 1637.33,-213.43 1641.76,-211.18"/>
<polygon fill="#63b8ff" stroke="#63b8ff" points="1643.8,-214.05 1650.85,-206.14 1640.41,-207.93 1643.8,-214.05"/>
</a>
</g>
</g>
<!-- Node30 -->
<g id="Node000030" class="node">
<title>Node30</title>
<g id="a_Node000030"><a xlink:title=" ">
<polygon fill="#e0e0e0" stroke="#999999" points="1755.5,-206 1708.5,-206 1708.5,-187 1755.5,-187 1755.5,-206"/>
<text text-anchor="middle" x="1732" y="-194" font-family="Helvetica,sans-Serif" font-size="10.00">deque</text>
</a>
</g>
</g>
<!-- Node1&#45;&gt;Node30 -->
<g id="edge31_Node000001_Node000030" class="edge">
<title>Node1&#45;&gt;Node30</title>
<g id="a_edge31_Node000001_Node000030"><a xlink:title=" ">
<path fill="none" stroke="#63b8ff" d="M1296.89,-263.88C1403.52,-257.6 1626.73,-241.9 1700,-217 1704.16,-215.59 1708.35,-213.56 1712.26,-211.35"/>
<polygon fill="#63b8ff" stroke="#63b8ff" points="1714.14,-214.31 1720.76,-206.04 1710.43,-208.37 1714.14,-214.31"/>
</a>
</g>
</g>
<!-- Node31 -->
<g id="Node000031" class="node">
<title>Node31</title>
<g id="a_Node000031"><a xlink:title=" ">
<polygon fill="#e0e0e0" stroke="#999999" points="1906.5,-217 1773.5,-217 1773.5,-176 1906.5,-176 1906.5,-217"/>
<text text-anchor="start" x="1781.5" y="-205" font-family="Helvetica,sans-Serif" font-size="10.00">emlabcpp/experimental</text>
<text text-anchor="start" x="1781.5" y="-194" font-family="Helvetica,sans-Serif" font-size="10.00">/coro/owning_coroutine</text>
<text text-anchor="middle" x="1840" y="-183" font-family="Helvetica,sans-Serif" font-size="10.00">_handle.hpp</text>
</a>
</g>
</g>
<!-- Node1&#45;&gt;Node31 -->
<g id="edge32_Node000001_Node000031" class="edge">
<title>Node1&#45;&gt;Node31</title>
<g id="a_edge32_Node000001_Node000031"><a xlink:title=" ">
<path fill="none" stroke="#63b8ff" d="M1296.61,-264.53C1392.01,-259.79 1588.82,-247.23 1763.58,-217.11"/>
<polygon fill="#63b8ff" stroke="#63b8ff" points="1764.22,-220.56 1773.47,-215.39 1763.01,-213.66 1764.22,-220.56"/>
</a>
</g>
</g>
<!-- Node32 -->
<g id="Node000032" class="node">
<title>Node32</title>
<g id="a_Node000032"><a xlink:title=" ">
<polygon fill="#e0e0e0" stroke="#999999" points="1965,-206 1925,-206 1925,-187 1965,-187 1965,-206"/>
<text text-anchor="middle" x="1945" y="-194" font-family="Helvetica,sans-Serif" font-size="10.00">span</text>
</a>
</g>
</g>
<!-- Node1&#45;&gt;Node32 -->
<g id="edge34_Node000001_Node000032" class="edge">
<title>Node1&#45;&gt;Node32</title>
<g id="a_edge34_Node000001_Node000032"><a xlink:title=" ">
<path fill="none" stroke="#63b8ff" d="M1296.6,-266.52C1438.61,-264.74 1802.18,-256.35 1916,-217 1919.66,-215.74 1923.29,-213.89 1926.68,-211.84"/>
<polygon fill="#63b8ff" stroke="#63b8ff" points="1928.71,-214.69 1934.97,-206.15 1924.74,-208.92 1928.71,-214.69"/>
</a>
</g>
</g>
<!-- Node33 -->
<g id="Node000033" class="node">
<title>Node33</title>
<g id="a_Node000033"><a xlink:title=" ">
<polygon fill="#e0e0e0" stroke="#999999" points="2039,-206 1983,-206 1983,-187 2039,-187 2039,-206"/>
<text text-anchor="middle" x="2011" y="-194" font-family="Helvetica,sans-Serif" font-size="10.00">sstream</text>
</a>
</g>
</g>
<!-- Node1&#45;&gt;Node33 -->
<g id="edge36_Node000001_Node000033" class="edge">
<title>Node1&#45;&gt;Node33</title>
<g id="a_edge36_Node000001_Node000033"><a xlink:title=" ">
<path fill="none" stroke="#63b8ff" d="M1296.56,-266.16C1446.63,-263.47 1846.96,-253.05 1974,-217 1978.98,-215.59 1984.05,-213.45 1988.78,-211.1"/>
<polygon fill="#63b8ff" stroke="#63b8ff" points="1990.76,-214.01 1997.87,-206.15 1987.41,-207.86 1990.76,-214.01"/>
</a>
</g>
</g>
<!-- Node34 -->
<g id="Node000034" class="node">
<title>Node34</title>
<g id="a_Node000034"><a xlink:title=" ">
<polygon fill="#e0e0e0" stroke="#999999" points="2130.5,-206 2057.5,-206 2057.5,-187 2130.5,-187 2130.5,-206"/>
<text text-anchor="middle" x="2094" y="-194" font-family="Helvetica,sans-Serif" font-size="10.00">string_view</text>
</a>
</g>
</g>
<!-- Node1&#45;&gt;Node34 -->
<g id="edge37_Node000001_Node000034" class="edge">
<title>Node1&#45;&gt;Node34</title>
<g id="a_edge37_Node000001_Node000034"><a xlink:title=" ">
<path fill="none" stroke="#63b8ff" d="M1296.61,-265.97C1456.77,-262.69 1904.95,-250.7 2048,-217 2054.65,-215.43 2061.56,-212.99 2067.94,-210.35"/>
<polygon fill="#63b8ff" stroke="#63b8ff" points="2069.7,-213.4 2077.42,-206.14 2066.86,-207 2069.7,-213.4"/>
</a>
</g>
</g>
<!-- Node35 -->
<g id="Node000035" class="node">
<title>Node35</title>
<g id="a_Node000035"><a xlink:title=" ">
<polygon fill="#e0e0e0" stroke="#999999" points="2189.5,-206 2148.5,-206 2148.5,-187 2189.5,-187 2189.5,-206"/>
<text text-anchor="middle" x="2169" y="-194" font-family="Helvetica,sans-Serif" font-size="10.00">tuple</text>
</a>
</g>
</g>
<!-- Node1&#45;&gt;Node35 -->
<g id="edge38_Node000001_Node000035" class="edge">
<title>Node1&#45;&gt;Node35</title>
<g id="a_edge38_Node000001_Node000035"><a xlink:title=" ">
<path fill="none" stroke="#63b8ff" d="M1296.73,-265.57C1482.97,-260.73 2060.44,-243.69 2140,-217 2143.67,-215.77 2147.31,-213.94 2150.7,-211.89"/>
<polygon fill="#63b8ff" stroke="#63b8ff" points="2152.73,-214.75 2158.99,-206.2 2148.76,-208.98 2152.73,-214.75"/>
</a>
</g>
</g>
<!-- Node3 -->
<g id="Node000003" class="node">
<title>Node3</title>
<g id="a_Node000003"><a xlink:title=" ">
<polygon fill="#e0e0e0" stroke="#999999" points="255,-140 205,-140 205,-121 255,-121 255,-140"/>
<text text-anchor="middle" x="230" y="-128" font-family="Helvetica,sans-Serif" font-size="10.00">chrono</text>
</a>
</g>
</g>
<!-- Node2&#45;&gt;Node3 -->
<g id="edge2_Node000002_Node000003" class="edge">
<title>Node2&#45;&gt;Node3</title>
<g id="a_edge2_Node000002_Node000003"><a xlink:title=" ">
<path fill="none" stroke="#63b8ff" d="M277.58,-186.87C269.1,-177 255.02,-160.61 244.37,-148.22"/>
<polygon fill="#63b8ff" stroke="#63b8ff" points="246.83,-145.71 237.65,-140.41 241.52,-150.27 246.83,-145.71"/>
</a>
</g>
</g>
<!-- Node2&#45;&gt;Node4 -->
<g id="edge3_Node000002_Node000004" class="edge">
<title>Node2&#45;&gt;Node4</title>
<g id="a_edge3_Node000002_Node000004"><a xlink:title=" ">
<path fill="none" stroke="#63b8ff" d="M245.41,-191.72C184.23,-185.04 70.95,-169.03 44,-140 17.29,-111.23 18.77,-61.5 21.99,-34.59"/>
<polygon fill="#63b8ff" stroke="#63b8ff" points="25.47,-34.97 23.4,-24.58 18.54,-34 25.47,-34.97"/>
</a>
</g>
</g>
<!-- Node5 -->
<g id="Node000005" class="node">
<title>Node5</title>
<g id="a_Node000005"><a xlink:title=" ">
<polygon fill="#e0e0e0" stroke="#999999" points="409,-140 273,-140 273,-121 409,-121 409,-140"/>
<text text-anchor="middle" x="341" y="-128" font-family="Helvetica,sans-Serif" font-size="10.00">emlabcpp/algorithm.hpp</text>
</a>
</g>
</g>
<!-- Node2&#45;&gt;Node5 -->
<g id="edge4_Node000002_Node000005" class="edge">
<title>Node2&#45;&gt;Node5</title>
<g id="a_edge4_Node000002_Node000005"><a xlink:title=" ">
<path fill="none" stroke="#63b8ff" d="M292.55,-186.87C301.19,-177 315.53,-160.61 326.37,-148.22"/>
<polygon fill="#63b8ff" stroke="#63b8ff" points="329.26,-150.24 333.21,-140.41 323.99,-145.63 329.26,-150.24"/>
</a>
</g>
</g>
<!-- Node6 -->
<g id="Node000006" class="node">
<title>Node6</title>
<g id="a_Node000006"><a xlink:title=" ">
<polygon fill="#e0e0e0" stroke="#999999" points="567,-140 427,-140 427,-121 567,-121 567,-140"/>
<text text-anchor="middle" x="497" y="-128" font-family="Helvetica,sans-Serif" font-size="10.00">emlabcpp/error_code.hpp</text>
</a>
</g>
</g>
<!-- Node2&#45;&gt;Node6 -->
<g id="edge5_Node000002_Node000006" class="edge">
<title>Node2&#45;&gt;Node6</title>
<g id="a_edge5_Node000002_Node000006"><a xlink:title=" ">
<path fill="none" stroke="#63b8ff" d="M313.59,-186.87C351.08,-175.55 416.96,-155.66 458.72,-143.06"/>
<polygon fill="#63b8ff" stroke="#63b8ff" points="459.96,-146.34 468.52,-140.1 457.94,-139.64 459.96,-146.34"/>
</a>
</g>
</g>
<!-- Node7 -->
<g id="Node000007" class="node">
<title>Node7</title>
<g id="a_Node000007"><a xlink:title=" ">
<polygon fill="#e0e0e0" stroke="#999999" points="713,-140 585,-140 585,-121 713,-121 713,-140"/>
<text text-anchor="middle" x="649" y="-128" font-family="Helvetica,sans-Serif" font-size="10.00">emlabcpp/quantity.hpp</text>
</a>
</g>
</g>
<!-- Node2&#45;&gt;Node7 -->
<g id="edge6_Node000002_Node000007" class="edge">
<title>Node2&#45;&gt;Node7</title>
<g id="a_edge6_Node000002_Node000007"><a xlink:title=" ">
<path fill="none" stroke="#63b8ff" d="M324.65,-188.53C388.79,-177.25 515.66,-154.94 590.3,-141.82"/>
<polygon fill="#63b8ff" stroke="#63b8ff" points="591.23,-145.21 600.47,-140.03 590.02,-138.32 591.23,-145.21"/>
</a>
</g>
</g>
<!-- Node8 -->
<g id="Node000008" class="node">
<title>Node8</title>
<g id="a_Node000008"><a xlink:title=" ">
<polygon fill="#e0e0e0" stroke="#999999" points="112.5,-140 53.5,-140 53.5,-121 112.5,-121 112.5,-140"/>
<text text-anchor="middle" x="83" y="-128" font-family="Helvetica,sans-Serif" font-size="10.00">numbers</text>
</a>
</g>
</g>
<!-- Node2&#45;&gt;Node8 -->
<g id="edge7_Node000002_Node000008" class="edge">
<title>Node2&#45;&gt;Node8</title>
<g id="a_edge7_Node000002_Node000008"><a xlink:title=" ">
<path fill="none" stroke="#63b8ff" d="M257.76,-186.87C222.12,-175.58 159.53,-155.75 119.73,-143.14"/>
<polygon fill="#63b8ff" stroke="#63b8ff" points="120.72,-139.78 110.13,-140.1 118.61,-146.45 120.72,-139.78"/>
</a>
</g>
</g>
<!-- Node9 -->
<g id="Node000009" class="node">
<title>Node9</title>
<g id="a_Node000009"><a xlink:title=" ">
<polygon fill="#e0e0e0" stroke="#999999" points="187,-140 131,-140 131,-121 187,-121 187,-140"/>
<text text-anchor="middle" x="159" y="-128" font-family="Helvetica,sans-Serif" font-size="10.00">optional</text>
</a>
</g>
</g>
<!-- Node2&#45;&gt;Node9 -->
<g id="edge8_Node000002_Node000009" class="edge">
<title>Node2&#45;&gt;Node9</title>
<g id="a_edge8_Node000002_Node000009"><a xlink:title=" ">
<path fill="none" stroke="#63b8ff" d="M268.01,-186.87C246.78,-176.09 210.22,-157.52 185.35,-144.88"/>
<polygon fill="#63b8ff" stroke="#63b8ff" points="186.63,-141.61 176.13,-140.2 183.46,-147.85 186.63,-141.61"/>
</a>
</g>
</g>
<!-- Node10&#45;&gt;Node4 -->
<g id="edge10_Node000010_Node000004" class="edge">
<title>Node10&#45;&gt;Node4</title>
<g id="a_edge10_Node000010_Node000004"><a xlink:title=" ">
<path fill="none" stroke="#63b8ff" d="M789.85,-71.93C657.87,-62.28 192.68,-28.26 60.35,-18.59"/>
<polygon fill="#63b8ff" stroke="#63b8ff" points="60.58,-15.09 50.35,-17.85 60.07,-22.07 60.58,-15.09"/>
</a>
</g>
</g>
<!-- Node11 -->
<g id="Node000011" class="node">
<title>Node11</title>
<g id="a_Node000011"><a xlink:title=" ">
<polygon fill="#e0e0e0" stroke="#999999" points="1254.5,-24.5 1167.5,-24.5 1167.5,-5.5 1254.5,-5.5 1254.5,-24.5"/>
<text text-anchor="middle" x="1211" y="-12.5" font-family="Helvetica,sans-Serif" font-size="10.00">avakar/atom.h</text>
</a>
</g>
</g>
<!-- Node10&#45;&gt;Node11 -->
<g id="edge11_Node000010_Node000011" class="edge">
<title>Node10&#45;&gt;Node11</title>
<g id="a_edge11_Node000010_Node000011"><a xlink:title=" ">
<path fill="none" stroke="#63b8ff" d="M860.03,-68.22C864.72,-67.44 869.47,-66.68 874,-66 999.82,-47.12 1033.11,-54.3 1158,-30 1162.43,-29.14 1167.03,-28.12 1171.6,-27.02"/>
<polygon fill="#63b8ff" stroke="#63b8ff" points="1172.6,-30.38 1181.45,-24.55 1170.89,-23.59 1172.6,-30.38"/>
</a>
</g>
</g>
<!-- Node12 -->
<g id="Node000012" class="node">
<title>Node12</title>
<g id="a_Node000012"><a xlink:title=" ">
<polygon fill="#e0e0e0" stroke="#999999" points="740,-24.5 652,-24.5 652,-5.5 740,-5.5 740,-24.5"/>
<text text-anchor="middle" x="696" y="-12.5" font-family="Helvetica,sans-Serif" font-size="10.00">boost/asio.hpp</text>
</a>
</g>
</g>
<!-- Node10&#45;&gt;Node12 -->
<g id="edge12_Node000010_Node000012" class="edge">
<title>Node10&#45;&gt;Node12</title>
<g id="a_edge12_Node000010_Node000012"><a xlink:title=" ">
<path fill="none" stroke="#63b8ff" d="M806.24,-65.99C784.65,-56.2 748.97,-40.02 724.07,-28.73"/>
<polygon fill="#63b8ff" stroke="#63b8ff" points="725.33,-25.46 714.78,-24.52 722.44,-31.83 725.33,-25.46"/>
</a>
</g>
</g>
<!-- Node13 -->
<g id="Node000013" class="node">
<title>Node13</title>
<g id="a_Node000013"><a xlink:title=" ">
<polygon fill="#e0e0e0" stroke="#999999" points="891.5,-30 758.5,-30 758.5,0 891.5,0 891.5,-30"/>
<text text-anchor="start" x="766.5" y="-18" font-family="Helvetica,sans-Serif" font-size="10.00">emlabcpp/experimental</text>
<text text-anchor="middle" x="825" y="-7" font-family="Helvetica,sans-Serif" font-size="10.00">/string_buffer.hpp</text>
</a>
</g>
</g>
<!-- Node10&#45;&gt;Node13 -->
<g id="edge13_Node000010_Node000013" class="edge">
<title>Node10&#45;&gt;Node13</title>
<g id="a_edge13_Node000010_Node000013"><a xlink:title=" ">
<path fill="none" stroke="#63b8ff" d="M825,-65.87C825,-59.11 825,-49.35 825,-40.26"/>
<polygon fill="#63b8ff" stroke="#63b8ff" points="828.5,-40.11 825,-30.11 821.5,-40.11 828.5,-40.11"/>
</a>
</g>
</g>
<!-- Node14 -->
<g id="Node000014" class="node">
<title>Node14</title>
<g id="a_Node000014"><a xlink:title=" ">
<polygon fill="#e0e0e0" stroke="#999999" points="1020.5,-24.5 909.5,-24.5 909.5,-5.5 1020.5,-5.5 1020.5,-24.5"/>
<text text-anchor="middle" x="965" y="-12.5" font-family="Helvetica,sans-Serif" font-size="10.00">emlabcpp/view.hpp</text>
</a>
</g>
</g>
<!-- Node10&#45;&gt;Node14 -->
<g id="edge14_Node000010_Node000014" class="edge">
<title>Node10&#45;&gt;Node14</title>
<g id="a_edge14_Node000010_Node000014"><a xlink:title=" ">
<path fill="none" stroke="#63b8ff" d="M845.36,-65.99C869,-56.12 908.2,-39.73 935.25,-28.43"/>
<polygon fill="#63b8ff" stroke="#63b8ff" points="936.74,-31.6 944.62,-24.52 934.04,-25.14 936.74,-31.6"/>
</a>
</g>
</g>
<!-- Node15 -->
<g id="Node000015" class="node">
<title>Node15</title>
<g id="a_Node000015"><a xlink:title=" ">
<polygon fill="#e0e0e0" stroke="#999999" points="1149,-24.5 1039,-24.5 1039,-5.5 1149,-5.5 1149,-24.5"/>
<text text-anchor="middle" x="1094" y="-12.5" font-family="Helvetica,sans-Serif" font-size="10.00">nlohmann/json.hpp</text>
</a>
</g>
</g>
<!-- Node10&#45;&gt;Node15 -->
<g id="edge15_Node000010_Node000015" class="edge">
<title>Node10&#45;&gt;Node15</title>
<g id="a_edge15_Node000010_Node000015"><a xlink:title=" ">
<path fill="none" stroke="#63b8ff" d="M860.17,-66.85C907.4,-56.58 991.54,-38.28 1044.97,-26.66"/>
<polygon fill="#63b8ff" stroke="#63b8ff" points="1045.87,-30.05 1054.9,-24.5 1044.38,-23.21 1045.87,-30.05"/>
</a>
</g>
</g>
<!-- Node10&#45;&gt;Node16 -->
<g id="edge16_Node000010_Node000016" class="edge">
<title>Node10&#45;&gt;Node16</title>
<g id="a_edge16_Node000010_Node000016"><a xlink:title=" ">
<path fill="none" stroke="#63b8ff" d="M789.76,-65.94C753.08,-57.02 694,-42.61 643,-30 639.12,-29.04 635.08,-28.04 631.04,-27.03"/>
<polygon fill="#63b8ff" stroke="#63b8ff" points="631.6,-23.57 621.05,-24.54 629.91,-30.36 631.6,-23.57"/>
</a>
</g>
</g>
<!-- Node17&#45;&gt;Node18 -->
<g id="edge18_Node000017_Node000018" class="edge">
<title>Node17&#45;&gt;Node18</title>
<g id="a_edge18_Node000017_Node000018"><a xlink:title=" ">
<path fill="none" stroke="#63b8ff" d="M888.17,-186.87C885.09,-177.47 880.06,-162.17 876.08,-150.03"/>
<polygon fill="#63b8ff" stroke="#63b8ff" points="879.37,-148.82 872.92,-140.41 872.71,-151 879.37,-148.82"/>
</a>
</g>
</g>
<!-- Node18&#45;&gt;Node10 -->
<g id="edge19_Node000018_Node000010" class="edge">
<title>Node18&#45;&gt;Node10</title>
<g id="a_edge19_Node000018_Node000010"><a xlink:title=" ">
<path fill="none" stroke="#63b8ff" d="M862.57,-120.75C856.15,-113.18 846.69,-102.05 838.88,-92.84"/>
<polygon fill="#63b8ff" stroke="#63b8ff" points="841.43,-90.45 832.29,-85.09 836.1,-94.98 841.43,-90.45"/>
</a>
</g>
</g>
<!-- Node18&#45;&gt;Node21 -->
<g id="edge20_Node000018_Node000021" class="edge">
<title>Node18&#45;&gt;Node21</title>
<g id="a_edge20_Node000018_Node000021"><a xlink:title=" ">
<path fill="none" stroke="#63b8ff" d="M876.11,-120.75C881.28,-113.34 888.85,-102.5 895.19,-93.41"/>
<polygon fill="#63b8ff" stroke="#63b8ff" points="898.15,-95.29 901,-85.09 892.41,-91.29 898.15,-95.29"/>
</a>
</g>
</g>
<!-- Node22&#45;&gt;Node23 -->
<g id="edge23_Node000022_Node000023" class="edge">
<title>Node22&#45;&gt;Node23</title>
<g id="a_edge23_Node000022_Node000023"><a xlink:title=" ">
<path fill="none" stroke="#63b8ff" d="M1059.11,-186.87C1057.08,-177.57 1053.78,-162.48 1051.13,-150.4"/>
<polygon fill="#63b8ff" stroke="#63b8ff" points="1054.5,-149.43 1048.95,-140.41 1047.67,-150.92 1054.5,-149.43"/>
</a>
</g>
</g>
</g>
</svg>
