<?xml version="1.0" encoding="UTF-8" standalone="no"?>
<!DOCTYPE svg PUBLIC "-//W3C//DTD SVG 1.1//EN"
 "http://www.w3.org/Graphics/SVG/1.1/DTD/svg11.dtd">
<!-- Generated by graphviz version 2.43.0 (0)
 -->
<!-- Title: src/fw/dispatcher.cpp Pages: 1 -->
<svg width="571pt" height="196pt"
 viewBox="0.00 0.00 571.00 196.00" xmlns="http://www.w3.org/2000/svg" xmlns:xlink="http://www.w3.org/1999/xlink">
<g id="graph0" class="graph" transform="scale(1 1) rotate(0) translate(4 192)">
<title>src/fw/dispatcher.cpp</title>
<polygon fill="white" stroke="transparent" points="-4,4 -4,-192 567,-192 567,4 -4,4"/>
<!-- Node1 -->
<g id="node1" class="node">
<title>Node1</title>
<g id="a_node1"><a xlink:title=" ">
<polygon fill="#bfbfbf" stroke="black" points="339,-168.5 339,-187.5 458,-187.5 458,-168.5 339,-168.5"/>
<text text-anchor="middle" x="398.5" y="-175.5" font-family="Helvetica,sans-Serif" font-size="10.00">src/fw/dispatcher.cpp</text>
</a>
</g>
</g>
<!-- Node2 -->
<g id="node2" class="node">
<title>Node2</title>
<g id="a_node2"><a xlink:href="dispatcher_8hpp.html" target="_top" xlink:title=" ">
<polygon fill="white" stroke="black" points="231.5,-112.5 231.5,-131.5 333.5,-131.5 333.5,-112.5 231.5,-112.5"/>
<text text-anchor="middle" x="282.5" y="-119.5" font-family="Helvetica,sans-Serif" font-size="10.00">fw/dispatcher.hpp</text>
</a>
</g>
</g>
<!-- Node1&#45;&gt;Node2 -->
<g id="edge1" class="edge">
<title>Node1&#45;&gt;Node2</title>
<path fill="none" stroke="midnightblue" d="M380.12,-168.44C361.28,-159.68 331.77,-145.94 310.12,-135.86"/>
<polygon fill="midnightblue" stroke="midnightblue" points="311.34,-132.56 300.79,-131.52 308.38,-138.91 311.34,-132.56"/>
</g>
<!-- Node48 -->
<g id="node8" class="node">
<title>Node48</title>
<g id="a_node8"><a xlink:href="map__cfg_8hpp.html" target="_top" xlink:title=" ">
<polygon fill="white" stroke="black" points="351.5,-112.5 351.5,-131.5 445.5,-131.5 445.5,-112.5 351.5,-112.5"/>
<text text-anchor="middle" x="398.5" y="-119.5" font-family="Helvetica,sans-Serif" font-size="10.00">fw/map_cfg.hpp</text>
</a>
</g>
</g>
<!-- Node1&#45;&gt;Node48 -->
<g id="edge8" class="edge">
<title>Node1&#45;&gt;Node48</title>
<path fill="none" stroke="midnightblue" d="M398.5,-168.08C398.5,-161.01 398.5,-150.86 398.5,-141.99"/>
<polygon fill="midnightblue" stroke="midnightblue" points="402,-141.75 398.5,-131.75 395,-141.75 402,-141.75"/>
</g>
<!-- Node49 -->
<g id="node9" class="node">
<title>Node49</title>
<g id="a_node9"><a xlink:href="servio__pb_8hpp.html" target="_top" xlink:title=" ">
<polygon fill="white" stroke="black" points="464,-112.5 464,-131.5 563,-131.5 563,-112.5 464,-112.5"/>
<text text-anchor="middle" x="513.5" y="-119.5" font-family="Helvetica,sans-Serif" font-size="10.00">fw/servio_pb.hpp</text>
</a>
</g>
</g>
<!-- Node1&#45;&gt;Node49 -->
<g id="edge10" class="edge">
<title>Node1&#45;&gt;Node49</title>
<path fill="none" stroke="midnightblue" d="M416.72,-168.44C435.4,-159.68 464.66,-145.94 486.12,-135.86"/>
<polygon fill="midnightblue" stroke="midnightblue" points="487.8,-138.93 495.36,-131.52 484.82,-132.6 487.8,-138.93"/>
</g>
<!-- Node3 -->
<g id="node3" class="node">
<title>Node3</title>
<g id="a_node3"><a xlink:href="control_8hpp.html" target="_top" xlink:title=" ">
<polygon fill="white" stroke="red" points="0,-56.5 0,-75.5 71,-75.5 71,-56.5 0,-56.5"/>
<text text-anchor="middle" x="35.5" y="-63.5" font-family="Helvetica,sans-Serif" font-size="10.00">control.hpp</text>
</a>
</g>
</g>
<!-- Node2&#45;&gt;Node3 -->
<g id="edge2" class="edge">
<title>Node2&#45;&gt;Node3</title>
<path fill="none" stroke="midnightblue" d="M243.36,-112.44C199.26,-102.8 127.66,-87.15 81.08,-76.96"/>
<polygon fill="midnightblue" stroke="midnightblue" points="81.76,-73.53 71.25,-74.82 80.27,-80.37 81.76,-73.53"/>
</g>
<!-- Node16 -->
<g id="node4" class="node">
<title>Node16</title>
<g id="a_node4"><a xlink:href="cfg__dispatcher_8hpp.html" target="_top" xlink:title=" ">
<polygon fill="white" stroke="red" points="89.5,-56.5 89.5,-75.5 211.5,-75.5 211.5,-56.5 89.5,-56.5"/>
<text text-anchor="middle" x="150.5" y="-63.5" font-family="Helvetica,sans-Serif" font-size="10.00">fw/cfg_dispatcher.hpp</text>
</a>
</g>
</g>
<!-- Node2&#45;&gt;Node16 -->
<g id="edge3" class="edge">
<title>Node2&#45;&gt;Node16</title>
<path fill="none" stroke="midnightblue" d="M261.58,-112.44C239.76,-103.52 205.35,-89.44 180.61,-79.32"/>
<polygon fill="midnightblue" stroke="midnightblue" points="181.9,-76.06 171.32,-75.52 179.25,-82.54 181.9,-76.06"/>
</g>
<!-- Node32 -->
<g id="node5" class="node">
<title>Node32</title>
<g id="a_node5"><a xlink:href="conversion_8hpp.html" target="_top" xlink:title=" ">
<polygon fill="white" stroke="red" points="230,-56.5 230,-75.5 335,-75.5 335,-56.5 230,-56.5"/>
<text text-anchor="middle" x="282.5" y="-63.5" font-family="Helvetica,sans-Serif" font-size="10.00">fw/conversion.hpp</text>
</a>
</g>
</g>
<!-- Node2&#45;&gt;Node32 -->
<g id="edge4" class="edge">
<title>Node2&#45;&gt;Node32</title>
<path fill="none" stroke="midnightblue" d="M282.5,-112.08C282.5,-105.01 282.5,-94.86 282.5,-85.99"/>
<polygon fill="midnightblue" stroke="midnightblue" points="286,-85.75 282.5,-75.75 279,-85.75 286,-85.75"/>
</g>
<!-- Node28 -->
<g id="node6" class="node">
<title>Node28</title>
<g id="a_node6"><a xlink:href="hbridge_8hpp.html" target="_top" xlink:title=" ">
<polygon fill="white" stroke="red" points="276,-0.5 276,-19.5 369,-19.5 369,-0.5 276,-0.5"/>
<text text-anchor="middle" x="322.5" y="-7.5" font-family="Helvetica,sans-Serif" font-size="10.00">drv/hbridge.hpp</text>
</a>
</g>
</g>
<!-- Node2&#45;&gt;Node28 -->
<g id="edge6" class="edge">
<title>Node2&#45;&gt;Node28</title>
<path fill="none" stroke="midnightblue" d="M302.41,-112.41C316.72,-105.04 334.96,-92.92 343.5,-76 351.32,-60.52 343.35,-41.51 335.08,-28.06"/>
<polygon fill="midnightblue" stroke="midnightblue" points="337.98,-26.1 329.5,-19.75 332.17,-30 337.98,-26.1"/>
</g>
<!-- Node47 -->
<g id="node7" class="node">
<title>Node47</title>
<g id="a_node7"><a xlink:title=" ">
<polygon fill="white" stroke="#bfbfbf" points="391.5,-56.5 391.5,-75.5 441.5,-75.5 441.5,-56.5 391.5,-56.5"/>
<text text-anchor="middle" x="416.5" y="-63.5" font-family="Helvetica,sans-Serif" font-size="10.00">io.pb.h</text>
</a>
</g>
</g>
<!-- Node2&#45;&gt;Node47 -->
<g id="edge7" class="edge">
<title>Node2&#45;&gt;Node47</title>
<path fill="none" stroke="midnightblue" d="M303.73,-112.44C325.88,-103.52 360.82,-89.44 385.94,-79.32"/>
<polygon fill="midnightblue" stroke="midnightblue" points="387.4,-82.5 395.37,-75.52 384.78,-76.01 387.4,-82.5"/>
</g>
<!-- Node32&#45;&gt;Node28 -->
<g id="edge5" class="edge">
<title>Node32&#45;&gt;Node28</title>
<path fill="none" stroke="midnightblue" d="M289.11,-56.08C294.76,-48.46 303.04,-37.26 309.95,-27.94"/>
<polygon fill="midnightblue" stroke="midnightblue" points="312.88,-29.87 316.02,-19.75 307.25,-25.7 312.88,-29.87"/>
</g>
<!-- Node48&#45;&gt;Node47 -->
<g id="edge9" class="edge">
<title>Node48&#45;&gt;Node47</title>
<path fill="none" stroke="midnightblue" d="M401.47,-112.08C403.88,-104.85 407.36,-94.41 410.37,-85.4"/>
<polygon fill="midnightblue" stroke="midnightblue" points="413.74,-86.34 413.58,-75.75 407.1,-84.13 413.74,-86.34"/>
</g>
<!-- Node49&#45;&gt;Node47 -->
<g id="edge12" class="edge">
<title>Node49&#45;&gt;Node47</title>
<path fill="none" stroke="midnightblue" d="M497.92,-112.32C482.5,-103.74 458.69,-90.49 440.79,-80.52"/>
<polygon fill="midnightblue" stroke="midnightblue" points="442.49,-77.46 432.05,-75.65 439.08,-83.58 442.49,-77.46"/>
</g>
<!-- Node50 -->
<g id="node10" class="node">
<title>Node50</title>
<g id="a_node10"><a xlink:title=" ">
<polygon fill="white" stroke="#bfbfbf" points="464,-56.5 464,-75.5 563,-75.5 563,-56.5 464,-56.5"/>
<text text-anchor="middle" x="513.5" y="-63.5" font-family="Helvetica,sans-Serif" font-size="10.00">emlabcpp/view.h</text>
</a>
</g>
</g>
<!-- Node49&#45;&gt;Node50 -->
<g id="edge11" class="edge">
<title>Node49&#45;&gt;Node50</title>
<path fill="none" stroke="midnightblue" d="M513.5,-112.08C513.5,-105.01 513.5,-94.86 513.5,-85.99"/>
<polygon fill="midnightblue" stroke="midnightblue" points="517,-85.75 513.5,-75.75 510,-85.75 517,-85.75"/>
</g>
</g>
</svg>
