<?xml version="1.0" encoding="UTF-8" standalone="no"?>
<!DOCTYPE svg PUBLIC "-//W3C//DTD SVG 1.1//EN"
 "http://www.w3.org/Graphics/SVG/1.1/DTD/svg11.dtd">
<!-- Generated by graphviz version 2.43.0 (0)
 -->
<!-- Title: src/fw/dispatcher.hpp Pages: 1 -->
<svg width="1132pt" height="375pt"
 viewBox="0.00 0.00 1131.56 375.00" xmlns="http://www.w3.org/2000/svg" xmlns:xlink="http://www.w3.org/1999/xlink">
<g id="graph0" class="graph" transform="scale(1 1) rotate(0) translate(4 371)">
<title>src/fw/dispatcher.hpp</title>
<polygon fill="white" stroke="transparent" points="-4,4 -4,-371 1127.56,-371 1127.56,4 -4,4"/>
<!-- Node1 -->
<g id="node1" class="node">
<title>Node1</title>
<g id="a_node1"><a xlink:title=" ">
<polygon fill="#bfbfbf" stroke="black" points="525.06,-347.5 525.06,-366.5 644.06,-366.5 644.06,-347.5 525.06,-347.5"/>
<text text-anchor="middle" x="584.56" y="-354.5" font-family="Helvetica,sans-Serif" font-size="10.00">src/fw/dispatcher.hpp</text>
</a>
</g>
</g>
<!-- Node2 -->
<g id="node2" class="node">
<title>Node2</title>
<g id="a_node2"><a xlink:href="control_8hpp.html" target="_top" xlink:title=" ">
<polygon fill="white" stroke="black" points="234.06,-179.5 234.06,-198.5 305.06,-198.5 305.06,-179.5 234.06,-179.5"/>
<text text-anchor="middle" x="269.56" y="-186.5" font-family="Helvetica,sans-Serif" font-size="10.00">control.hpp</text>
</a>
</g>
</g>
<!-- Node1&#45;&gt;Node2 -->
<g id="edge1" class="edge">
<title>Node1&#45;&gt;Node2</title>
<path fill="none" stroke="midnightblue" d="M525.01,-349.82C464,-342.62 374.04,-329.33 344.56,-311 306.21,-287.15 284.4,-235.69 275.05,-208.2"/>
<polygon fill="midnightblue" stroke="midnightblue" points="278.37,-207.08 271.98,-198.63 271.71,-209.22 278.37,-207.08"/>
</g>
<!-- Node15 -->
<g id="node8" class="node">
<title>Node15</title>
<g id="a_node8"><a xlink:href="acquisition_8hpp.html" target="_top" xlink:title=" ">
<polygon fill="white" stroke="black" points="442.56,-179.5 442.56,-198.5 570.56,-198.5 570.56,-179.5 442.56,-179.5"/>
<text text-anchor="middle" x="506.56" y="-186.5" font-family="Helvetica,sans-Serif" font-size="10.00">drivers/acquisition.hpp</text>
</a>
</g>
</g>
<!-- Node1&#45;&gt;Node15 -->
<g id="edge9" class="edge">
<title>Node1&#45;&gt;Node15</title>
<path fill="none" stroke="midnightblue" d="M578.09,-347.28C565.81,-330.33 538.94,-291.42 523.56,-255 517.18,-239.89 512.68,-221.77 509.92,-208.5"/>
<polygon fill="midnightblue" stroke="midnightblue" points="513.36,-207.82 508.01,-198.67 506.48,-209.16 513.36,-207.82"/>
</g>
<!-- Node20 -->
<g id="node13" class="node">
<title>Node20</title>
<g id="a_node13"><a xlink:href="comms_8hpp.html" target="_top" xlink:title=" ">
<polygon fill="white" stroke="black" points="712.56,-179.5 712.56,-198.5 822.56,-198.5 822.56,-179.5 712.56,-179.5"/>
<text text-anchor="middle" x="767.56" y="-186.5" font-family="Helvetica,sans-Serif" font-size="10.00">drivers/comms.hpp</text>
</a>
</g>
</g>
<!-- Node1&#45;&gt;Node20 -->
<g id="edge15" class="edge">
<title>Node1&#45;&gt;Node20</title>
<path fill="none" stroke="midnightblue" d="M594.15,-347.31C623.55,-320.64 712.76,-239.72 750.46,-205.52"/>
<polygon fill="midnightblue" stroke="midnightblue" points="753.02,-207.92 758.08,-198.61 748.32,-202.73 753.02,-207.92"/>
</g>
<!-- Node23 -->
<g id="node16" class="node">
<title>Node23</title>
<g id="a_node16"><a xlink:href="cfg__dispatcher_8hpp.html" target="_top" xlink:title=" ">
<polygon fill="white" stroke="black" points="353.56,-291.5 353.56,-310.5 475.56,-310.5 475.56,-291.5 353.56,-291.5"/>
<text text-anchor="middle" x="414.56" y="-298.5" font-family="Helvetica,sans-Serif" font-size="10.00">fw/cfg_dispatcher.hpp</text>
</a>
</g>
</g>
<!-- Node1&#45;&gt;Node23 -->
<g id="edge20" class="edge">
<title>Node1&#45;&gt;Node23</title>
<path fill="none" stroke="midnightblue" d="M557.63,-347.44C528.9,-338.32 483.24,-323.81 451.24,-313.65"/>
<polygon fill="midnightblue" stroke="midnightblue" points="451.97,-310.21 441.38,-310.52 449.85,-316.88 451.97,-310.21"/>
</g>
<!-- Node35 -->
<g id="node19" class="node">
<title>Node35</title>
<g id="a_node19"><a xlink:href="conversion_8hpp.html" target="_top" xlink:title=" ">
<polygon fill="white" stroke="red" points="532.06,-235.5 532.06,-254.5 637.06,-254.5 637.06,-235.5 532.06,-235.5"/>
<text text-anchor="middle" x="584.56" y="-242.5" font-family="Helvetica,sans-Serif" font-size="10.00">fw/conversion.hpp</text>
</a>
</g>
</g>
<!-- Node1&#45;&gt;Node35 -->
<g id="edge25" class="edge">
<title>Node1&#45;&gt;Node35</title>
<path fill="none" stroke="midnightblue" d="M584.56,-347.37C584.56,-329.62 584.56,-288.67 584.56,-264.6"/>
<polygon fill="midnightblue" stroke="midnightblue" points="588.06,-264.59 584.56,-254.59 581.06,-264.59 588.06,-264.59"/>
</g>
<!-- Node46 -->
<g id="node20" class="node">
<title>Node46</title>
<g id="a_node20"><a xlink:title=" ">
<polygon fill="white" stroke="#bfbfbf" points="693.56,-291.5 693.56,-310.5 743.56,-310.5 743.56,-291.5 693.56,-291.5"/>
<text text-anchor="middle" x="718.56" y="-298.5" font-family="Helvetica,sans-Serif" font-size="10.00">io.pb.h</text>
</a>
</g>
</g>
<!-- Node1&#45;&gt;Node46 -->
<g id="edge27" class="edge">
<title>Node1&#45;&gt;Node46</title>
<path fill="none" stroke="midnightblue" d="M605.8,-347.44C627.95,-338.52 662.88,-324.44 688,-314.32"/>
<polygon fill="midnightblue" stroke="midnightblue" points="689.46,-317.5 697.43,-310.52 686.85,-311.01 689.46,-317.5"/>
</g>
<!-- Node47 -->
<g id="node21" class="node">
<title>Node47</title>
<g id="a_node21"><a xlink:title=" ">
<polygon fill="white" stroke="#bfbfbf" points="761.56,-291.5 761.56,-310.5 839.56,-310.5 839.56,-291.5 761.56,-291.5"/>
<text text-anchor="middle" x="800.56" y="-298.5" font-family="Helvetica,sans-Serif" font-size="10.00">pb_encode.h</text>
</a>
</g>
</g>
<!-- Node1&#45;&gt;Node47 -->
<g id="edge28" class="edge">
<title>Node1&#45;&gt;Node47</title>
<path fill="none" stroke="midnightblue" d="M618.79,-347.44C656.08,-338.12 715.83,-323.18 756.58,-313"/>
<polygon fill="midnightblue" stroke="midnightblue" points="757.65,-316.34 766.5,-310.52 755.95,-309.55 757.65,-316.34"/>
</g>
<!-- Node3 -->
<g id="node3" class="node">
<title>Node3</title>
<g id="a_node3"><a xlink:href="base_8hpp.html" target="_top" xlink:title=" ">
<polygon fill="white" stroke="red" points="293.06,-0.5 293.06,-19.5 354.06,-19.5 354.06,-0.5 293.06,-0.5"/>
<text text-anchor="middle" x="323.56" y="-7.5" font-family="Helvetica,sans-Serif" font-size="10.00">base.hpp</text>
</a>
</g>
</g>
<!-- Node2&#45;&gt;Node3 -->
<g id="edge2" class="edge">
<title>Node2&#45;&gt;Node3</title>
<path fill="none" stroke="midnightblue" d="M278.36,-179.21C286.31,-170.71 297.63,-157.08 303.56,-143 319.55,-105.04 322.98,-56.18 323.58,-29.84"/>
<polygon fill="midnightblue" stroke="midnightblue" points="327.08,-29.77 323.7,-19.73 320.08,-29.69 327.08,-29.77"/>
</g>
<!-- Node10 -->
<g id="node4" class="node">
<title>Node10</title>
<g id="a_node4"><a xlink:href="ctl_2config_8hpp.html" target="_top" xlink:title=" ">
<polygon fill="white" stroke="black" points="14.56,-118 14.56,-137 96.56,-137 96.56,-118 14.56,-118"/>
<text text-anchor="middle" x="55.56" y="-125" font-family="Helvetica,sans-Serif" font-size="10.00">ctl/config.hpp</text>
</a>
</g>
</g>
<!-- Node2&#45;&gt;Node10 -->
<g id="edge3" class="edge">
<title>Node2&#45;&gt;Node10</title>
<path fill="none" stroke="midnightblue" d="M237.78,-179.42C204.71,-170.47 151.45,-155.95 105.56,-143 101.96,-141.98 98.21,-140.92 94.46,-139.84"/>
<polygon fill="midnightblue" stroke="midnightblue" points="95.21,-136.41 84.63,-137.01 93.27,-143.14 95.21,-136.41"/>
</g>
<!-- Node11 -->
<g id="node5" class="node">
<title>Node11</title>
<g id="a_node5"><a xlink:href="pid__module_8hpp.html" target="_top" xlink:title=" ">
<polygon fill="white" stroke="red" points="0.56,-56.5 0.56,-75.5 110.56,-75.5 110.56,-56.5 0.56,-56.5"/>
<text text-anchor="middle" x="55.56" y="-63.5" font-family="Helvetica,sans-Serif" font-size="10.00">ctl/pid_module.hpp</text>
</a>
</g>
</g>
<!-- Node2&#45;&gt;Node11 -->
<g id="edge7" class="edge">
<title>Node2&#45;&gt;Node11</title>
<path fill="none" stroke="midnightblue" d="M233.97,-187.37C168.81,-185.39 34.39,-177.15 5.56,-143 -11.1,-123.25 13.96,-97.7 34.22,-81.83"/>
<polygon fill="midnightblue" stroke="midnightblue" points="36.56,-84.46 42.47,-75.67 32.37,-78.85 36.56,-84.46"/>
</g>
<!-- Node13 -->
<g id="node6" class="node">
<title>Node13</title>
<g id="a_node6"><a xlink:href="linear__transition__regulator_8hpp.html" target="_top" xlink:title=" ">
<polygon fill="white" stroke="black" points="115.06,-112.5 115.06,-142.5 226.06,-142.5 226.06,-112.5 115.06,-112.5"/>
<text text-anchor="start" x="123.06" y="-130.5" font-family="Helvetica,sans-Serif" font-size="10.00">ctl/linear_transition</text>
<text text-anchor="middle" x="170.56" y="-119.5" font-family="Helvetica,sans-Serif" font-size="10.00">_regulator.hpp</text>
</a>
</g>
</g>
<!-- Node2&#45;&gt;Node13 -->
<g id="edge6" class="edge">
<title>Node2&#45;&gt;Node13</title>
<path fill="none" stroke="midnightblue" d="M255.38,-179.48C241.72,-171.27 220.58,-158.56 202.82,-147.88"/>
<polygon fill="midnightblue" stroke="midnightblue" points="204.27,-144.67 193.9,-142.52 200.66,-150.67 204.27,-144.67"/>
</g>
<!-- Node14 -->
<g id="node7" class="node">
<title>Node14</title>
<g id="a_node7"><a xlink:title=" ">
<polygon fill="white" stroke="#bfbfbf" points="244.06,-118 244.06,-137 295.06,-137 295.06,-118 244.06,-118"/>
<text text-anchor="middle" x="269.56" y="-125" font-family="Helvetica,sans-Serif" font-size="10.00">variant</text>
</a>
</g>
</g>
<!-- Node2&#45;&gt;Node14 -->
<g id="edge8" class="edge">
<title>Node2&#45;&gt;Node14</title>
<path fill="none" stroke="midnightblue" d="M269.56,-179.48C269.56,-171.08 269.56,-157.98 269.56,-147.16"/>
<polygon fill="midnightblue" stroke="midnightblue" points="273.06,-147.01 269.56,-137.01 266.06,-147.01 273.06,-147.01"/>
</g>
<!-- Node10&#45;&gt;Node11 -->
<g id="edge4" class="edge">
<title>Node10&#45;&gt;Node11</title>
<path fill="none" stroke="midnightblue" d="M55.56,-117.98C55.56,-109.58 55.56,-96.48 55.56,-85.66"/>
<polygon fill="midnightblue" stroke="midnightblue" points="59.06,-85.51 55.56,-75.51 52.06,-85.51 59.06,-85.51"/>
</g>
<!-- Node11&#45;&gt;Node3 -->
<g id="edge5" class="edge">
<title>Node11&#45;&gt;Node3</title>
<path fill="none" stroke="midnightblue" d="M98.03,-56.44C148.74,-46.23 232.94,-29.26 282.86,-19.2"/>
<polygon fill="midnightblue" stroke="midnightblue" points="283.86,-22.57 292.97,-17.16 282.47,-15.71 283.86,-22.57"/>
</g>
<!-- Node15&#45;&gt;Node3 -->
<g id="edge10" class="edge">
<title>Node15&#45;&gt;Node3</title>
<path fill="none" stroke="midnightblue" d="M454.57,-179.45C429.62,-173.05 400.82,-161.98 380.56,-143 363.22,-126.74 340.13,-61.61 329.45,-29.32"/>
<polygon fill="midnightblue" stroke="midnightblue" points="332.75,-28.18 326.33,-19.75 326.1,-30.35 332.75,-28.18"/>
</g>
<!-- Node16 -->
<g id="node9" class="node">
<title>Node16</title>
<g id="a_node9"><a xlink:title=" ">
<polygon fill="white" stroke="#bfbfbf" points="566.06,-112.5 566.06,-142.5 699.06,-142.5 699.06,-112.5 566.06,-112.5"/>
<text text-anchor="start" x="574.06" y="-130.5" font-family="Helvetica,sans-Serif" font-size="10.00">emlabcpp/experimental</text>
<text text-anchor="middle" x="632.56" y="-119.5" font-family="Helvetica,sans-Serif" font-size="10.00">/function_view.h</text>
</a>
</g>
</g>
<!-- Node15&#45;&gt;Node16 -->
<g id="edge11" class="edge">
<title>Node15&#45;&gt;Node16</title>
<path fill="none" stroke="midnightblue" d="M524.62,-179.48C542.56,-171 570.65,-157.74 593.68,-146.86"/>
<polygon fill="midnightblue" stroke="midnightblue" points="595.32,-149.96 602.87,-142.52 592.33,-143.63 595.32,-149.96"/>
</g>
<!-- Node17 -->
<g id="node10" class="node">
<title>Node17</title>
<g id="a_node10"><a xlink:title=" ">
<polygon fill="white" stroke="#bfbfbf" points="390.06,-118 390.06,-137 489.06,-137 489.06,-118 390.06,-118"/>
<text text-anchor="middle" x="439.56" y="-125" font-family="Helvetica,sans-Serif" font-size="10.00">emlabcpp/view.h</text>
</a>
</g>
</g>
<!-- Node15&#45;&gt;Node17 -->
<g id="edge12" class="edge">
<title>Node15&#45;&gt;Node17</title>
<path fill="none" stroke="midnightblue" d="M496.96,-179.48C486.52,-170.2 469.6,-155.17 456.83,-143.83"/>
<polygon fill="midnightblue" stroke="midnightblue" points="458.95,-141.03 449.15,-137.01 454.3,-146.27 458.95,-141.03"/>
</g>
<!-- Node18 -->
<g id="node11" class="node">
<title>Node18</title>
<g id="a_node11"><a xlink:title=" ">
<polygon fill="white" stroke="#bfbfbf" points="507.56,-118 507.56,-137 547.56,-137 547.56,-118 507.56,-118"/>
<text text-anchor="middle" x="527.56" y="-125" font-family="Helvetica,sans-Serif" font-size="10.00">span</text>
</a>
</g>
</g>
<!-- Node15&#45;&gt;Node18 -->
<g id="edge13" class="edge">
<title>Node15&#45;&gt;Node18</title>
<path fill="none" stroke="midnightblue" d="M509.57,-179.48C512.6,-170.9 517.35,-157.43 521.22,-146.48"/>
<polygon fill="midnightblue" stroke="midnightblue" points="524.53,-147.6 524.56,-137.01 517.93,-145.27 524.53,-147.6"/>
</g>
<!-- Node19 -->
<g id="node12" class="node">
<title>Node19</title>
<g id="a_node12"><a xlink:title=" ">
<polygon fill="white" stroke="#bfbfbf" points="717.06,-118 717.06,-137 818.06,-137 818.06,-118 717.06,-118"/>
<text text-anchor="middle" x="767.56" y="-125" font-family="Helvetica,sans-Serif" font-size="10.00">stm32g4xx_hal.h</text>
</a>
</g>
</g>
<!-- Node15&#45;&gt;Node19 -->
<g id="edge14" class="edge">
<title>Node15&#45;&gt;Node19</title>
<path fill="none" stroke="midnightblue" d="M546.1,-179.46C586.87,-170.59 652.24,-156.19 708.56,-143 713.32,-141.89 718.29,-140.7 723.23,-139.51"/>
<polygon fill="midnightblue" stroke="midnightblue" points="724.39,-142.83 733.28,-137.06 722.73,-136.03 724.39,-142.83"/>
</g>
<!-- Node20&#45;&gt;Node16 -->
<g id="edge17" class="edge">
<title>Node20&#45;&gt;Node16</title>
<path fill="none" stroke="midnightblue" d="M748.22,-179.48C728.83,-170.93 698.37,-157.5 673.57,-146.57"/>
<polygon fill="midnightblue" stroke="midnightblue" points="674.94,-143.35 664.38,-142.52 672.12,-149.76 674.94,-143.35"/>
</g>
<!-- Node20&#45;&gt;Node19 -->
<g id="edge19" class="edge">
<title>Node20&#45;&gt;Node19</title>
<path fill="none" stroke="midnightblue" d="M767.56,-179.48C767.56,-171.08 767.56,-157.98 767.56,-147.16"/>
<polygon fill="midnightblue" stroke="midnightblue" points="771.06,-147.01 767.56,-137.01 764.06,-147.01 771.06,-147.01"/>
</g>
<!-- Node21 -->
<g id="node14" class="node">
<title>Node21</title>
<g id="a_node14"><a xlink:title=" ">
<polygon fill="white" stroke="#bfbfbf" points="836.06,-112.5 836.06,-142.5 969.06,-142.5 969.06,-112.5 836.06,-112.5"/>
<text text-anchor="start" x="844.06" y="-130.5" font-family="Helvetica,sans-Serif" font-size="10.00">emlabcpp/experimental</text>
<text text-anchor="middle" x="902.56" y="-119.5" font-family="Helvetica,sans-Serif" font-size="10.00">/cobs.h</text>
</a>
</g>
</g>
<!-- Node20&#45;&gt;Node21 -->
<g id="edge16" class="edge">
<title>Node20&#45;&gt;Node21</title>
<path fill="none" stroke="midnightblue" d="M786.91,-179.48C806.3,-170.93 836.76,-157.5 861.56,-146.57"/>
<polygon fill="midnightblue" stroke="midnightblue" points="863.01,-149.76 870.75,-142.52 860.19,-143.35 863.01,-149.76"/>
</g>
<!-- Node22 -->
<g id="node15" class="node">
<title>Node22</title>
<g id="a_node15"><a xlink:title=" ">
<polygon fill="white" stroke="#bfbfbf" points="987.56,-112.5 987.56,-142.5 1123.56,-142.5 1123.56,-112.5 987.56,-112.5"/>
<text text-anchor="start" x="995.56" y="-130.5" font-family="Helvetica,sans-Serif" font-size="10.00">emlabcpp/static_circular</text>
<text text-anchor="middle" x="1055.56" y="-119.5" font-family="Helvetica,sans-Serif" font-size="10.00">_buffer.h</text>
</a>
</g>
</g>
<!-- Node20&#45;&gt;Node22 -->
<g id="edge18" class="edge">
<title>Node20&#45;&gt;Node22</title>
<path fill="none" stroke="midnightblue" d="M808.83,-179.48C852.75,-170.4 923.29,-155.83 977.72,-144.58"/>
<polygon fill="midnightblue" stroke="midnightblue" points="978.6,-147.97 987.69,-142.52 977.19,-141.12 978.6,-147.97"/>
</g>
<!-- Node24 -->
<g id="node17" class="node">
<title>Node24</title>
<g id="a_node17"><a xlink:title=" ">
<polygon fill="white" stroke="#bfbfbf" points="403.06,-235.5 403.06,-254.5 470.06,-254.5 470.06,-235.5 403.06,-235.5"/>
<text text-anchor="middle" x="436.56" y="-242.5" font-family="Helvetica,sans-Serif" font-size="10.00">config.hpp</text>
</a>
</g>
</g>
<!-- Node23&#45;&gt;Node24 -->
<g id="edge21" class="edge">
<title>Node23&#45;&gt;Node24</title>
<path fill="none" stroke="midnightblue" d="M418.2,-291.08C421.18,-283.77 425.49,-273.18 429.19,-264.1"/>
<polygon fill="midnightblue" stroke="midnightblue" points="432.47,-265.33 433,-254.75 425.98,-262.69 432.47,-265.33"/>
</g>
<!-- Node25 -->
<g id="node18" class="node">
<title>Node25</title>
<g id="a_node18"><a xlink:href="core_8hpp.html" target="_top" xlink:title=" ">
<polygon fill="white" stroke="red" points="312.06,-235.5 312.06,-254.5 385.06,-254.5 385.06,-235.5 312.06,-235.5"/>
<text text-anchor="middle" x="348.56" y="-242.5" font-family="Helvetica,sans-Serif" font-size="10.00">fw/core.hpp</text>
</a>
</g>
</g>
<!-- Node23&#45;&gt;Node25 -->
<g id="edge22" class="edge">
<title>Node23&#45;&gt;Node25</title>
<path fill="none" stroke="midnightblue" d="M403.96,-291.32C394.11,-283.26 379.21,-271.08 367.35,-261.37"/>
<polygon fill="midnightblue" stroke="midnightblue" points="369.32,-258.46 359.36,-254.83 364.88,-263.88 369.32,-258.46"/>
</g>
<!-- Node25&#45;&gt;Node2 -->
<g id="edge23" class="edge">
<title>Node25&#45;&gt;Node2</title>
<path fill="none" stroke="midnightblue" d="M335.87,-235.32C323.66,-226.98 304.99,-214.21 290.56,-204.35"/>
<polygon fill="midnightblue" stroke="midnightblue" points="292.46,-201.41 282.23,-198.65 288.51,-207.19 292.46,-201.41"/>
</g>
<!-- Node25&#45;&gt;Node15 -->
<g id="edge24" class="edge">
<title>Node25&#45;&gt;Node15</title>
<path fill="none" stroke="midnightblue" d="M373.6,-235.44C400.18,-226.36 442.37,-211.94 472.09,-201.78"/>
<polygon fill="midnightblue" stroke="midnightblue" points="473.32,-205.06 481.65,-198.52 471.05,-198.44 473.32,-205.06"/>
</g>
<!-- Node35&#45;&gt;Node15 -->
<g id="edge26" class="edge">
<title>Node35&#45;&gt;Node15</title>
<path fill="none" stroke="midnightblue" d="M572.03,-235.32C559.98,-226.98 541.54,-214.21 527.3,-204.35"/>
<polygon fill="midnightblue" stroke="midnightblue" points="529.28,-201.47 519.07,-198.65 525.29,-207.22 529.28,-201.47"/>
</g>
</g>
</svg>
