<?xml version="1.0" encoding="UTF-8" standalone="no"?>
<!DOCTYPE svg PUBLIC "-//W3C//DTD SVG 1.1//EN"
 "http://www.w3.org/Graphics/SVG/1.1/DTD/svg11.dtd">
<!-- Generated by graphviz version 2.43.0 (0)
 -->
<!-- Title: src/fw/dispatcher.hpp Pages: 1 -->
<svg width="1155pt" height="375pt"
 viewBox="0.00 0.00 1154.50 375.00" xmlns="http://www.w3.org/2000/svg" xmlns:xlink="http://www.w3.org/1999/xlink">
<g id="graph0" class="graph" transform="scale(1 1) rotate(0) translate(4 371)">
<title>src/fw/dispatcher.hpp</title>
<polygon fill="white" stroke="transparent" points="-4,4 -4,-371 1150.5,-371 1150.5,4 -4,4"/>
<!-- Node1 -->
<g id="node1" class="node">
<title>Node1</title>
<g id="a_node1"><a xlink:title=" ">
<polygon fill="#bfbfbf" stroke="black" points="707.5,-347.5 707.5,-366.5 826.5,-366.5 826.5,-347.5 707.5,-347.5"/>
<text text-anchor="middle" x="767" y="-354.5" font-family="Helvetica,sans-Serif" font-size="10.00">src/fw/dispatcher.hpp</text>
</a>
</g>
</g>
<!-- Node2 -->
<g id="node2" class="node">
<title>Node2</title>
<g id="a_node2"><a xlink:href="control_8hpp.html" target="_top" xlink:title=" ">
<polygon fill="white" stroke="black" points="257.5,-179.5 257.5,-198.5 328.5,-198.5 328.5,-179.5 257.5,-179.5"/>
<text text-anchor="middle" x="293" y="-186.5" font-family="Helvetica,sans-Serif" font-size="10.00">control.hpp</text>
</a>
</g>
</g>
<!-- Node1&#45;&gt;Node2 -->
<g id="edge1" class="edge">
<title>Node1&#45;&gt;Node2</title>
<path fill="none" stroke="midnightblue" d="M726.6,-347.49C690.21,-339.42 635.48,-326.29 589,-311 487.93,-277.75 372.3,-226.47 320.55,-202.79"/>
<polygon fill="midnightblue" stroke="midnightblue" points="321.91,-199.56 311.36,-198.57 318.99,-205.92 321.91,-199.56"/>
</g>
<!-- Node15 -->
<g id="node8" class="node">
<title>Node15</title>
<g id="a_node8"><a xlink:href="acquisition_8hpp.html" target="_top" xlink:title=" ">
<polygon fill="white" stroke="black" points="803,-179.5 803,-198.5 931,-198.5 931,-179.5 803,-179.5"/>
<text text-anchor="middle" x="867" y="-186.5" font-family="Helvetica,sans-Serif" font-size="10.00">drivers/acquisition.hpp</text>
</a>
</g>
</g>
<!-- Node1&#45;&gt;Node15 -->
<g id="edge9" class="edge">
<title>Node1&#45;&gt;Node15</title>
<path fill="none" stroke="midnightblue" d="M772.1,-347.13C779.34,-334.59 793.04,-310.96 805,-291 822.72,-261.42 843.81,-227.29 856.26,-207.24"/>
<polygon fill="midnightblue" stroke="midnightblue" points="859.32,-208.95 861.63,-198.61 853.38,-205.25 859.32,-208.95"/>
</g>
<!-- Node20 -->
<g id="node13" class="node">
<title>Node20</title>
<g id="a_node13"><a xlink:href="comms_8hpp.html" target="_top" xlink:title=" ">
<polygon fill="white" stroke="black" points="675,-179.5 675,-198.5 785,-198.5 785,-179.5 675,-179.5"/>
<text text-anchor="middle" x="730" y="-186.5" font-family="Helvetica,sans-Serif" font-size="10.00">drivers/comms.hpp</text>
</a>
</g>
</g>
<!-- Node1&#45;&gt;Node20 -->
<g id="edge15" class="edge">
<title>Node1&#45;&gt;Node20</title>
<path fill="none" stroke="midnightblue" d="M765.01,-347.08C759.19,-320.95 742.08,-244.21 734.14,-208.58"/>
<polygon fill="midnightblue" stroke="midnightblue" points="737.5,-207.57 731.91,-198.57 730.67,-209.09 737.5,-207.57"/>
</g>
<!-- Node23 -->
<g id="node16" class="node">
<title>Node23</title>
<g id="a_node16"><a xlink:href="cfg__dispatcher_8hpp.html" target="_top" xlink:title=" ">
<polygon fill="white" stroke="black" points="598,-291.5 598,-310.5 720,-310.5 720,-291.5 598,-291.5"/>
<text text-anchor="middle" x="659" y="-298.5" font-family="Helvetica,sans-Serif" font-size="10.00">fw/cfg_dispatcher.hpp</text>
</a>
</g>
</g>
<!-- Node1&#45;&gt;Node23 -->
<g id="edge20" class="edge">
<title>Node1&#45;&gt;Node23</title>
<path fill="none" stroke="midnightblue" d="M749.65,-347.32C732.33,-338.66 705.48,-325.24 685.5,-315.25"/>
<polygon fill="midnightblue" stroke="midnightblue" points="686.82,-312 676.31,-310.65 683.69,-318.26 686.82,-312"/>
</g>
<!-- Node35 -->
<g id="node19" class="node">
<title>Node35</title>
<g id="a_node19"><a xlink:href="conversion_8hpp.html" target="_top" xlink:title=" ">
<polygon fill="white" stroke="red" points="814.5,-291.5 814.5,-310.5 919.5,-310.5 919.5,-291.5 814.5,-291.5"/>
<text text-anchor="middle" x="867" y="-298.5" font-family="Helvetica,sans-Serif" font-size="10.00">fw/conversion.hpp</text>
</a>
</g>
</g>
<!-- Node1&#45;&gt;Node35 -->
<g id="edge25" class="edge">
<title>Node1&#45;&gt;Node35</title>
<path fill="none" stroke="midnightblue" d="M783.07,-347.32C798.96,-338.74 823.51,-325.49 841.96,-315.52"/>
<polygon fill="midnightblue" stroke="midnightblue" points="843.84,-318.49 850.97,-310.65 840.51,-312.33 843.84,-318.49"/>
</g>
<!-- Node46 -->
<g id="node20" class="node">
<title>Node46</title>
<g id="a_node20"><a xlink:href="servio__pb_8hpp.html" target="_top" xlink:title=" ">
<polygon fill="white" stroke="black" points="992.5,-291.5 992.5,-310.5 1091.5,-310.5 1091.5,-291.5 992.5,-291.5"/>
<text text-anchor="middle" x="1042" y="-298.5" font-family="Helvetica,sans-Serif" font-size="10.00">fw/servio_pb.hpp</text>
</a>
</g>
</g>
<!-- Node1&#45;&gt;Node46 -->
<g id="edge27" class="edge">
<title>Node1&#45;&gt;Node46</title>
<path fill="none" stroke="midnightblue" d="M810.57,-347.44C858.85,-337.96 936.71,-322.67 988.61,-312.48"/>
<polygon fill="midnightblue" stroke="midnightblue" points="989.49,-315.88 998.63,-310.52 988.14,-309.01 989.49,-315.88"/>
</g>
<!-- Node3 -->
<g id="node3" class="node">
<title>Node3</title>
<g id="a_node3"><a xlink:href="base_8hpp.html" target="_top" xlink:title=" ">
<polygon fill="white" stroke="red" points="316.5,-0.5 316.5,-19.5 377.5,-19.5 377.5,-0.5 316.5,-0.5"/>
<text text-anchor="middle" x="347" y="-7.5" font-family="Helvetica,sans-Serif" font-size="10.00">base.hpp</text>
</a>
</g>
</g>
<!-- Node2&#45;&gt;Node3 -->
<g id="edge2" class="edge">
<title>Node2&#45;&gt;Node3</title>
<path fill="none" stroke="midnightblue" d="M301.8,-179.21C309.74,-170.71 321.07,-157.08 327,-143 342.99,-105.04 346.42,-56.18 347.02,-29.84"/>
<polygon fill="midnightblue" stroke="midnightblue" points="350.52,-29.77 347.13,-19.73 343.52,-29.69 350.52,-29.77"/>
</g>
<!-- Node10 -->
<g id="node4" class="node">
<title>Node10</title>
<g id="a_node4"><a xlink:href="ctl_2config_8hpp.html" target="_top" xlink:title=" ">
<polygon fill="white" stroke="black" points="0,-118 0,-137 82,-137 82,-118 0,-118"/>
<text text-anchor="middle" x="41" y="-125" font-family="Helvetica,sans-Serif" font-size="10.00">ctl/config.hpp</text>
</a>
</g>
</g>
<!-- Node2&#45;&gt;Node10 -->
<g id="edge3" class="edge">
<title>Node2&#45;&gt;Node10</title>
<path fill="none" stroke="midnightblue" d="M257.33,-180.23C217.8,-171.52 152.21,-156.83 96,-143 91.62,-141.92 87.05,-140.77 82.5,-139.6"/>
<polygon fill="midnightblue" stroke="midnightblue" points="83.21,-136.17 72.66,-137.04 81.45,-142.94 83.21,-136.17"/>
</g>
<!-- Node11 -->
<g id="node5" class="node">
<title>Node11</title>
<g id="a_node5"><a xlink:href="pid__module_8hpp.html" target="_top" xlink:title=" ">
<polygon fill="white" stroke="red" points="55,-56.5 55,-75.5 165,-75.5 165,-56.5 55,-56.5"/>
<text text-anchor="middle" x="110" y="-63.5" font-family="Helvetica,sans-Serif" font-size="10.00">ctl/pid_module.hpp</text>
</a>
</g>
</g>
<!-- Node2&#45;&gt;Node11 -->
<g id="edge7" class="edge">
<title>Node2&#45;&gt;Node11</title>
<path fill="none" stroke="midnightblue" d="M257.45,-188.14C220.28,-186.3 162.74,-177.52 129,-143 114.25,-127.91 110.4,-103.18 109.66,-86.05"/>
<polygon fill="midnightblue" stroke="midnightblue" points="113.15,-85.58 109.54,-75.62 106.15,-85.66 113.15,-85.58"/>
</g>
<!-- Node13 -->
<g id="node6" class="node">
<title>Node13</title>
<g id="a_node6"><a xlink:href="linear__transition__regulator_8hpp.html" target="_top" xlink:title=" ">
<polygon fill="white" stroke="black" points="138.5,-112.5 138.5,-142.5 249.5,-142.5 249.5,-112.5 138.5,-112.5"/>
<text text-anchor="start" x="146.5" y="-130.5" font-family="Helvetica,sans-Serif" font-size="10.00">ctl/linear_transition</text>
<text text-anchor="middle" x="194" y="-119.5" font-family="Helvetica,sans-Serif" font-size="10.00">_regulator.hpp</text>
</a>
</g>
</g>
<!-- Node2&#45;&gt;Node13 -->
<g id="edge6" class="edge">
<title>Node2&#45;&gt;Node13</title>
<path fill="none" stroke="midnightblue" d="M278.82,-179.48C265.16,-171.27 244.01,-158.56 226.25,-147.88"/>
<polygon fill="midnightblue" stroke="midnightblue" points="227.71,-144.67 217.33,-142.52 224.1,-150.67 227.71,-144.67"/>
</g>
<!-- Node14 -->
<g id="node7" class="node">
<title>Node14</title>
<g id="a_node7"><a xlink:title=" ">
<polygon fill="white" stroke="#bfbfbf" points="267.5,-118 267.5,-137 318.5,-137 318.5,-118 267.5,-118"/>
<text text-anchor="middle" x="293" y="-125" font-family="Helvetica,sans-Serif" font-size="10.00">variant</text>
</a>
</g>
</g>
<!-- Node2&#45;&gt;Node14 -->
<g id="edge8" class="edge">
<title>Node2&#45;&gt;Node14</title>
<path fill="none" stroke="midnightblue" d="M293,-179.48C293,-171.08 293,-157.98 293,-147.16"/>
<polygon fill="midnightblue" stroke="midnightblue" points="296.5,-147.01 293,-137.01 289.5,-147.01 296.5,-147.01"/>
</g>
<!-- Node10&#45;&gt;Node11 -->
<g id="edge4" class="edge">
<title>Node10&#45;&gt;Node11</title>
<path fill="none" stroke="midnightblue" d="M50.89,-117.98C61.65,-108.7 79.07,-93.67 92.22,-82.33"/>
<polygon fill="midnightblue" stroke="midnightblue" points="94.84,-84.69 100.13,-75.51 90.27,-79.39 94.84,-84.69"/>
</g>
<!-- Node11&#45;&gt;Node3 -->
<g id="edge5" class="edge">
<title>Node11&#45;&gt;Node3</title>
<path fill="none" stroke="midnightblue" d="M147.55,-56.44C190.9,-46.57 261.94,-30.38 306.5,-20.23"/>
<polygon fill="midnightblue" stroke="midnightblue" points="307.43,-23.61 316.41,-17.97 305.88,-16.78 307.43,-23.61"/>
</g>
<!-- Node15&#45;&gt;Node3 -->
<g id="edge10" class="edge">
<title>Node15&#45;&gt;Node3</title>
<path fill="none" stroke="midnightblue" d="M894.28,-179.45C911.29,-172.55 931.83,-160.97 942,-143 948.79,-131.01 950.89,-122.53 942,-112 870.4,-27.22 509.91,-13.59 387.64,-11.41"/>
<polygon fill="midnightblue" stroke="midnightblue" points="387.62,-7.91 377.57,-11.25 387.51,-14.91 387.62,-7.91"/>
</g>
<!-- Node16 -->
<g id="node9" class="node">
<title>Node16</title>
<g id="a_node9"><a xlink:title=" ">
<polygon fill="white" stroke="#bfbfbf" points="799.5,-112.5 799.5,-142.5 932.5,-142.5 932.5,-112.5 799.5,-112.5"/>
<text text-anchor="start" x="807.5" y="-130.5" font-family="Helvetica,sans-Serif" font-size="10.00">emlabcpp/experimental</text>
<text text-anchor="middle" x="866" y="-119.5" font-family="Helvetica,sans-Serif" font-size="10.00">/function_view.h</text>
</a>
</g>
</g>
<!-- Node15&#45;&gt;Node16 -->
<g id="edge11" class="edge">
<title>Node15&#45;&gt;Node16</title>
<path fill="none" stroke="midnightblue" d="M866.86,-179.48C866.74,-172.47 866.57,-162.19 866.41,-152.7"/>
<polygon fill="midnightblue" stroke="midnightblue" points="869.9,-152.46 866.24,-142.52 862.9,-152.58 869.9,-152.46"/>
</g>
<!-- Node17 -->
<g id="node10" class="node">
<title>Node17</title>
<g id="a_node10"><a xlink:title=" ">
<polygon fill="white" stroke="#bfbfbf" points="1047.5,-118 1047.5,-137 1146.5,-137 1146.5,-118 1047.5,-118"/>
<text text-anchor="middle" x="1097" y="-125" font-family="Helvetica,sans-Serif" font-size="10.00">emlabcpp/view.h</text>
</a>
</g>
</g>
<!-- Node15&#45;&gt;Node17 -->
<g id="edge12" class="edge">
<title>Node15&#45;&gt;Node17</title>
<path fill="none" stroke="midnightblue" d="M899.95,-179.48C940.6,-168.96 1009.79,-151.06 1054.42,-139.51"/>
<polygon fill="midnightblue" stroke="midnightblue" points="1055.3,-142.9 1064.11,-137.01 1053.55,-136.13 1055.3,-142.9"/>
</g>
<!-- Node18 -->
<g id="node11" class="node">
<title>Node18</title>
<g id="a_node11"><a xlink:title=" ">
<polygon fill="white" stroke="#bfbfbf" points="989,-118 989,-137 1029,-137 1029,-118 989,-118"/>
<text text-anchor="middle" x="1009" y="-125" font-family="Helvetica,sans-Serif" font-size="10.00">span</text>
</a>
</g>
</g>
<!-- Node15&#45;&gt;Node18 -->
<g id="edge13" class="edge">
<title>Node15&#45;&gt;Node18</title>
<path fill="none" stroke="midnightblue" d="M887.73,-179.42C909.48,-170.41 944.68,-155.78 975,-143 976.4,-142.41 977.84,-141.8 979.29,-141.19"/>
<polygon fill="midnightblue" stroke="midnightblue" points="981.04,-144.25 988.88,-137.12 978.3,-137.8 981.04,-144.25"/>
</g>
<!-- Node19 -->
<g id="node12" class="node">
<title>Node19</title>
<g id="a_node12"><a xlink:title=" ">
<polygon fill="white" stroke="#bfbfbf" points="680.5,-118 680.5,-137 781.5,-137 781.5,-118 680.5,-118"/>
<text text-anchor="middle" x="731" y="-125" font-family="Helvetica,sans-Serif" font-size="10.00">stm32g4xx_hal.h</text>
</a>
</g>
</g>
<!-- Node15&#45;&gt;Node19 -->
<g id="edge14" class="edge">
<title>Node15&#45;&gt;Node19</title>
<path fill="none" stroke="midnightblue" d="M847.51,-179.48C824.59,-169.45 786.31,-152.7 759.92,-141.15"/>
<polygon fill="midnightblue" stroke="midnightblue" points="761.01,-137.81 750.45,-137.01 758.21,-144.22 761.01,-137.81"/>
</g>
<!-- Node20&#45;&gt;Node16 -->
<g id="edge17" class="edge">
<title>Node20&#45;&gt;Node16</title>
<path fill="none" stroke="midnightblue" d="M749.49,-179.48C769.02,-170.93 799.71,-157.5 824.69,-146.57"/>
<polygon fill="midnightblue" stroke="midnightblue" points="826.19,-149.74 833.95,-142.52 823.38,-143.32 826.19,-149.74"/>
</g>
<!-- Node20&#45;&gt;Node19 -->
<g id="edge19" class="edge">
<title>Node20&#45;&gt;Node19</title>
<path fill="none" stroke="midnightblue" d="M730.14,-179.48C730.28,-171.08 730.5,-157.98 730.69,-147.16"/>
<polygon fill="midnightblue" stroke="midnightblue" points="734.19,-147.07 730.86,-137.01 727.19,-146.95 734.19,-147.07"/>
</g>
<!-- Node21 -->
<g id="node14" class="node">
<title>Node21</title>
<g id="a_node14"><a xlink:title=" ">
<polygon fill="white" stroke="#bfbfbf" points="529.5,-112.5 529.5,-142.5 662.5,-142.5 662.5,-112.5 529.5,-112.5"/>
<text text-anchor="start" x="537.5" y="-130.5" font-family="Helvetica,sans-Serif" font-size="10.00">emlabcpp/experimental</text>
<text text-anchor="middle" x="596" y="-119.5" font-family="Helvetica,sans-Serif" font-size="10.00">/cobs.h</text>
</a>
</g>
</g>
<!-- Node20&#45;&gt;Node21 -->
<g id="edge16" class="edge">
<title>Node20&#45;&gt;Node21</title>
<path fill="none" stroke="midnightblue" d="M710.8,-179.48C691.63,-170.96 661.58,-157.62 637.03,-146.72"/>
<polygon fill="midnightblue" stroke="midnightblue" points="638.14,-143.38 627.58,-142.52 635.3,-149.78 638.14,-143.38"/>
</g>
<!-- Node22 -->
<g id="node15" class="node">
<title>Node22</title>
<g id="a_node15"><a xlink:title=" ">
<polygon fill="white" stroke="#bfbfbf" points="375,-112.5 375,-142.5 511,-142.5 511,-112.5 375,-112.5"/>
<text text-anchor="start" x="383" y="-130.5" font-family="Helvetica,sans-Serif" font-size="10.00">emlabcpp/static_circular</text>
<text text-anchor="middle" x="443" y="-119.5" font-family="Helvetica,sans-Serif" font-size="10.00">_buffer.h</text>
</a>
</g>
</g>
<!-- Node20&#45;&gt;Node22 -->
<g id="edge18" class="edge">
<title>Node20&#45;&gt;Node22</title>
<path fill="none" stroke="midnightblue" d="M688.88,-179.48C645.11,-170.4 574.81,-155.83 520.57,-144.58"/>
<polygon fill="midnightblue" stroke="midnightblue" points="521.14,-141.13 510.64,-142.52 519.72,-147.98 521.14,-141.13"/>
</g>
<!-- Node24 -->
<g id="node17" class="node">
<title>Node24</title>
<g id="a_node17"><a xlink:title=" ">
<polygon fill="white" stroke="#bfbfbf" points="639.5,-235.5 639.5,-254.5 706.5,-254.5 706.5,-235.5 639.5,-235.5"/>
<text text-anchor="middle" x="673" y="-242.5" font-family="Helvetica,sans-Serif" font-size="10.00">config.hpp</text>
</a>
</g>
</g>
<!-- Node23&#45;&gt;Node24 -->
<g id="edge21" class="edge">
<title>Node23&#45;&gt;Node24</title>
<path fill="none" stroke="midnightblue" d="M661.31,-291.08C663.17,-283.93 665.84,-273.64 668.15,-264.69"/>
<polygon fill="midnightblue" stroke="midnightblue" points="671.61,-265.31 670.73,-254.75 664.83,-263.55 671.61,-265.31"/>
</g>
<!-- Node25 -->
<g id="node18" class="node">
<title>Node25</title>
<g id="a_node18"><a xlink:href="core_8hpp.html" target="_top" xlink:title=" ">
<polygon fill="white" stroke="red" points="548.5,-235.5 548.5,-254.5 621.5,-254.5 621.5,-235.5 548.5,-235.5"/>
<text text-anchor="middle" x="585" y="-242.5" font-family="Helvetica,sans-Serif" font-size="10.00">fw/core.hpp</text>
</a>
</g>
</g>
<!-- Node23&#45;&gt;Node25 -->
<g id="edge22" class="edge">
<title>Node23&#45;&gt;Node25</title>
<path fill="none" stroke="midnightblue" d="M647.11,-291.32C635.85,-283.11 618.71,-270.6 605.29,-260.81"/>
<polygon fill="midnightblue" stroke="midnightblue" points="607.25,-257.9 597.11,-254.83 603.12,-263.56 607.25,-257.9"/>
</g>
<!-- Node25&#45;&gt;Node2 -->
<g id="edge23" class="edge">
<title>Node25&#45;&gt;Node2</title>
<path fill="none" stroke="midnightblue" d="M548.31,-237.22C495.14,-227.38 396.7,-209.18 338.82,-198.47"/>
<polygon fill="midnightblue" stroke="midnightblue" points="339.32,-195.01 328.85,-196.63 338.05,-201.89 339.32,-195.01"/>
</g>
<!-- Node25&#45;&gt;Node15 -->
<g id="edge24" class="edge">
<title>Node25&#45;&gt;Node15</title>
<path fill="none" stroke="midnightblue" d="M621.83,-236.6C624.59,-236.06 627.34,-235.52 630,-235 691.98,-222.92 763.16,-209.46 811.21,-200.43"/>
<polygon fill="midnightblue" stroke="midnightblue" points="811.91,-203.86 821.1,-198.58 810.62,-196.98 811.91,-203.86"/>
</g>
<!-- Node35&#45;&gt;Node15 -->
<g id="edge26" class="edge">
<title>Node35&#45;&gt;Node15</title>
<path fill="none" stroke="midnightblue" d="M867,-291.37C867,-273.62 867,-232.67 867,-208.6"/>
<polygon fill="midnightblue" stroke="midnightblue" points="870.5,-208.59 867,-198.59 863.5,-208.59 870.5,-208.59"/>
</g>
<!-- Node46&#45;&gt;Node17 -->
<g id="edge28" class="edge">
<title>Node46&#45;&gt;Node17</title>
<path fill="none" stroke="midnightblue" d="M1044.47,-291.13C1047.98,-278.59 1054.71,-254.96 1061,-235 1070.84,-203.77 1083.24,-167.74 1090.62,-146.61"/>
<polygon fill="midnightblue" stroke="midnightblue" points="1093.98,-147.61 1093.99,-137.02 1087.37,-145.3 1093.98,-147.61"/>
</g>
<!-- Node47 -->
<g id="node21" class="node">
<title>Node47</title>
<g id="a_node21"><a xlink:title=" ">
<polygon fill="white" stroke="#bfbfbf" points="1070,-235.5 1070,-254.5 1120,-254.5 1120,-235.5 1070,-235.5"/>
<text text-anchor="middle" x="1095" y="-242.5" font-family="Helvetica,sans-Serif" font-size="10.00">io.pb.h</text>
</a>
</g>
</g>
<!-- Node46&#45;&gt;Node47 -->
<g id="edge29" class="edge">
<title>Node46&#45;&gt;Node47</title>
<path fill="none" stroke="midnightblue" d="M1050.75,-291.08C1058.47,-283.22 1069.9,-271.57 1079.22,-262.08"/>
<polygon fill="midnightblue" stroke="midnightblue" points="1081.9,-264.34 1086.41,-254.75 1076.91,-259.44 1081.9,-264.34"/>
</g>
</g>
</svg>
