<?xml version="1.0" encoding="UTF-8" standalone="no"?>
<!DOCTYPE svg PUBLIC "-//W3C//DTD SVG 1.1//EN"
 "http://www.w3.org/Graphics/SVG/1.1/DTD/svg11.dtd">
<!-- Generated by graphviz version 2.43.0 (0)
 -->
<!-- Title: src/fw/dispatcher.hpp Pages: 1 -->
<svg width="653pt" height="375pt"
 viewBox="0.00 0.00 652.50 375.00" xmlns="http://www.w3.org/2000/svg" xmlns:xlink="http://www.w3.org/1999/xlink">
<g id="graph0" class="graph" transform="scale(1 1) rotate(0) translate(4 371)">
<title>src/fw/dispatcher.hpp</title>
<polygon fill="white" stroke="transparent" points="-4,4 -4,-371 648.5,-371 648.5,4 -4,4"/>
<!-- Node1 -->
<g id="node1" class="node">
<title>Node1</title>
<g id="a_node1"><a xlink:title=" ">
<polygon fill="#bfbfbf" stroke="black" points="385,-347.5 385,-366.5 504,-366.5 504,-347.5 385,-347.5"/>
<text text-anchor="middle" x="444.5" y="-354.5" font-family="Helvetica,sans-Serif" font-size="10.00">src/fw/dispatcher.hpp</text>
</a>
</g>
</g>
<!-- Node2 -->
<g id="node2" class="node">
<title>Node2</title>
<g id="a_node2"><a xlink:href="control_8hpp.html" target="_top" xlink:title=" ">
<polygon fill="white" stroke="black" points="173,-179.5 173,-198.5 244,-198.5 244,-179.5 173,-179.5"/>
<text text-anchor="middle" x="208.5" y="-186.5" font-family="Helvetica,sans-Serif" font-size="10.00">control.hpp</text>
</a>
</g>
</g>
<!-- Node1&#45;&gt;Node2 -->
<g id="edge1" class="edge">
<title>Node1&#45;&gt;Node2</title>
<path fill="none" stroke="midnightblue" d="M384.98,-354.1C342.78,-350.16 286.59,-339.39 245.5,-311 220.96,-294.04 217.09,-283.57 208.5,-255 203.98,-239.95 204.37,-222.05 205.68,-208.85"/>
<polygon fill="midnightblue" stroke="midnightblue" points="209.19,-209 206.95,-198.64 202.24,-208.13 209.19,-209"/>
</g>
<!-- Node15 -->
<g id="node8" class="node">
<title>Node15</title>
<g id="a_node8"><a xlink:href="cfg__dispatcher_8hpp.html" target="_top" xlink:title=" ">
<polygon fill="white" stroke="black" points="254.5,-291.5 254.5,-310.5 376.5,-310.5 376.5,-291.5 254.5,-291.5"/>
<text text-anchor="middle" x="315.5" y="-298.5" font-family="Helvetica,sans-Serif" font-size="10.00">fw/cfg_dispatcher.hpp</text>
</a>
</g>
</g>
<!-- Node1&#45;&gt;Node15 -->
<g id="edge9" class="edge">
<title>Node1&#45;&gt;Node15</title>
<path fill="none" stroke="midnightblue" d="M424.06,-347.44C402.83,-338.56 369.4,-324.56 345.25,-314.45"/>
<polygon fill="midnightblue" stroke="midnightblue" points="346.42,-311.15 335.84,-310.52 343.72,-317.61 346.42,-311.15"/>
</g>
<!-- Node24 -->
<g id="node11" class="node">
<title>Node24</title>
<g id="a_node11"><a xlink:href="acquisition_8hpp.html" target="_top" xlink:title=" ">
<polygon fill="white" stroke="red" points="329.5,-179.5 329.5,-198.5 439.5,-198.5 439.5,-179.5 329.5,-179.5"/>
<text text-anchor="middle" x="384.5" y="-186.5" font-family="Helvetica,sans-Serif" font-size="10.00">drv/acquisition.hpp</text>
</a>
</g>
</g>
<!-- Node1&#45;&gt;Node24 -->
<g id="edge19" class="edge">
<title>Node1&#45;&gt;Node24</title>
<path fill="none" stroke="midnightblue" d="M441.27,-347.08C431.79,-320.83 403.85,-243.55 391.05,-208.12"/>
<polygon fill="midnightblue" stroke="midnightblue" points="394.29,-206.78 387.6,-198.57 387.7,-209.16 394.29,-206.78"/>
</g>
<!-- Node31 -->
<g id="node12" class="node">
<title>Node31</title>
<g id="a_node12"><a xlink:href="hbridge_8hpp.html" target="_top" xlink:title=" ">
<polygon fill="white" stroke="red" points="458,-179.5 458,-198.5 551,-198.5 551,-179.5 458,-179.5"/>
<text text-anchor="middle" x="504.5" y="-186.5" font-family="Helvetica,sans-Serif" font-size="10.00">drv/hbridge.hpp</text>
</a>
</g>
</g>
<!-- Node1&#45;&gt;Node31 -->
<g id="edge20" class="edge">
<title>Node1&#45;&gt;Node31</title>
<path fill="none" stroke="midnightblue" d="M458.96,-347.35C482.77,-332.17 529.37,-298.18 547.5,-255 555.28,-236.47 539.56,-217.57 524.99,-204.96"/>
<polygon fill="midnightblue" stroke="midnightblue" points="527.15,-202.2 517.17,-198.64 522.76,-207.65 527.15,-202.2"/>
</g>
<!-- Node32 -->
<g id="node13" class="node">
<title>Node32</title>
<g id="a_node13"><a xlink:href="conversion_8hpp.html" target="_top" xlink:title=" ">
<polygon fill="white" stroke="red" points="433,-235.5 433,-254.5 538,-254.5 538,-235.5 433,-235.5"/>
<text text-anchor="middle" x="485.5" y="-242.5" font-family="Helvetica,sans-Serif" font-size="10.00">fw/conversion.hpp</text>
</a>
</g>
</g>
<!-- Node1&#45;&gt;Node32 -->
<g id="edge16" class="edge">
<title>Node1&#45;&gt;Node32</title>
<path fill="none" stroke="midnightblue" d="M447.72,-347.37C454.36,-329.54 469.74,-288.3 478.69,-264.27"/>
<polygon fill="midnightblue" stroke="midnightblue" points="482.08,-265.18 482.3,-254.59 475.53,-262.74 482.08,-265.18"/>
</g>
<!-- Node47 -->
<g id="node14" class="node">
<title>Node47</title>
<g id="a_node14"><a xlink:title=" ">
<polygon fill="white" stroke="#bfbfbf" points="594.5,-291.5 594.5,-310.5 644.5,-310.5 644.5,-291.5 594.5,-291.5"/>
<text text-anchor="middle" x="619.5" y="-298.5" font-family="Helvetica,sans-Serif" font-size="10.00">io.pb.h</text>
</a>
</g>
</g>
<!-- Node1&#45;&gt;Node47 -->
<g id="edge21" class="edge">
<title>Node1&#45;&gt;Node47</title>
<path fill="none" stroke="midnightblue" d="M472.23,-347.44C502.71,-338.04 551.73,-322.91 584.76,-312.72"/>
<polygon fill="midnightblue" stroke="midnightblue" points="585.93,-316.02 594.45,-309.73 583.86,-309.33 585.93,-316.02"/>
</g>
<!-- Node3 -->
<g id="node3" class="node">
<title>Node3</title>
<g id="a_node3"><a xlink:href="base_8hpp.html" target="_top" xlink:title=" ">
<polygon fill="white" stroke="red" points="266,-0.5 266,-19.5 327,-19.5 327,-0.5 266,-0.5"/>
<text text-anchor="middle" x="296.5" y="-7.5" font-family="Helvetica,sans-Serif" font-size="10.00">base.hpp</text>
</a>
</g>
</g>
<!-- Node2&#45;&gt;Node3 -->
<g id="edge2" class="edge">
<title>Node2&#45;&gt;Node3</title>
<path fill="none" stroke="midnightblue" d="M207.93,-179.49C206.86,-157.26 206.65,-96.42 232.5,-56 241.1,-42.56 255.28,-31.97 268.12,-24.46"/>
<polygon fill="midnightblue" stroke="midnightblue" points="270.03,-27.4 277.12,-19.53 266.67,-21.26 270.03,-27.4"/>
</g>
<!-- Node10 -->
<g id="node4" class="node">
<title>Node10</title>
<g id="a_node4"><a xlink:href="ctl_2config_8hpp.html" target="_top" xlink:title=" ">
<polygon fill="white" stroke="black" points="274.5,-118 274.5,-137 356.5,-137 356.5,-118 274.5,-118"/>
<text text-anchor="middle" x="315.5" y="-125" font-family="Helvetica,sans-Serif" font-size="10.00">ctl/config.hpp</text>
</a>
</g>
</g>
<!-- Node2&#45;&gt;Node10 -->
<g id="edge3" class="edge">
<title>Node2&#45;&gt;Node10</title>
<path fill="none" stroke="midnightblue" d="M223.83,-179.48C241.47,-169.67 270.66,-153.43 291.36,-141.92"/>
<polygon fill="midnightblue" stroke="midnightblue" points="293.16,-144.93 300.2,-137.01 289.76,-138.81 293.16,-144.93"/>
</g>
<!-- Node11 -->
<g id="node5" class="node">
<title>Node11</title>
<g id="a_node5"><a xlink:href="pid__module_8hpp.html" target="_top" xlink:title=" ">
<polygon fill="white" stroke="red" points="241.5,-56.5 241.5,-75.5 351.5,-75.5 351.5,-56.5 241.5,-56.5"/>
<text text-anchor="middle" x="296.5" y="-63.5" font-family="Helvetica,sans-Serif" font-size="10.00">ctl/pid_module.hpp</text>
</a>
</g>
</g>
<!-- Node2&#45;&gt;Node11 -->
<g id="edge7" class="edge">
<title>Node2&#45;&gt;Node11</title>
<path fill="none" stroke="midnightblue" d="M214.83,-179.3C229.35,-159.33 265.28,-109.92 284.28,-83.8"/>
<polygon fill="midnightblue" stroke="midnightblue" points="287.18,-85.77 290.23,-75.62 281.52,-81.65 287.18,-85.77"/>
</g>
<!-- Node13 -->
<g id="node6" class="node">
<title>Node13</title>
<g id="a_node6"><a xlink:href="linear__transition__regulator_8hpp.html" target="_top" xlink:title=" ">
<polygon fill="white" stroke="black" points="0,-112.5 0,-142.5 111,-142.5 111,-112.5 0,-112.5"/>
<text text-anchor="start" x="8" y="-130.5" font-family="Helvetica,sans-Serif" font-size="10.00">ctl/linear_transition</text>
<text text-anchor="middle" x="55.5" y="-119.5" font-family="Helvetica,sans-Serif" font-size="10.00">_regulator.hpp</text>
</a>
</g>
</g>
<!-- Node2&#45;&gt;Node13 -->
<g id="edge6" class="edge">
<title>Node2&#45;&gt;Node13</title>
<path fill="none" stroke="midnightblue" d="M186.58,-179.48C164.4,-170.85 129.46,-157.26 101.23,-146.29"/>
<polygon fill="midnightblue" stroke="midnightblue" points="102.15,-142.89 91.56,-142.52 99.61,-149.41 102.15,-142.89"/>
</g>
<!-- Node14 -->
<g id="node7" class="node">
<title>Node14</title>
<g id="a_node7"><a xlink:title=" ">
<polygon fill="white" stroke="#bfbfbf" points="129,-118 129,-137 180,-137 180,-118 129,-118"/>
<text text-anchor="middle" x="154.5" y="-125" font-family="Helvetica,sans-Serif" font-size="10.00">variant</text>
</a>
</g>
</g>
<!-- Node2&#45;&gt;Node14 -->
<g id="edge8" class="edge">
<title>Node2&#45;&gt;Node14</title>
<path fill="none" stroke="midnightblue" d="M200.76,-179.48C192.5,-170.37 179.22,-155.74 169.01,-144.48"/>
<polygon fill="midnightblue" stroke="midnightblue" points="171.53,-142.06 162.22,-137.01 166.35,-146.77 171.53,-142.06"/>
</g>
<!-- Node10&#45;&gt;Node11 -->
<g id="edge4" class="edge">
<title>Node10&#45;&gt;Node11</title>
<path fill="none" stroke="midnightblue" d="M312.78,-117.98C310.07,-109.49 305.83,-96.2 302.35,-85.32"/>
<polygon fill="midnightblue" stroke="midnightblue" points="305.59,-83.97 299.22,-75.51 298.93,-86.1 305.59,-83.97"/>
</g>
<!-- Node11&#45;&gt;Node3 -->
<g id="edge5" class="edge">
<title>Node11&#45;&gt;Node3</title>
<path fill="none" stroke="midnightblue" d="M296.5,-56.08C296.5,-49.01 296.5,-38.86 296.5,-29.99"/>
<polygon fill="midnightblue" stroke="midnightblue" points="300,-29.75 296.5,-19.75 293,-29.75 300,-29.75"/>
</g>
<!-- Node16 -->
<g id="node9" class="node">
<title>Node16</title>
<g id="a_node9"><a xlink:title=" ">
<polygon fill="white" stroke="#bfbfbf" points="309,-235.5 309,-254.5 376,-254.5 376,-235.5 309,-235.5"/>
<text text-anchor="middle" x="342.5" y="-242.5" font-family="Helvetica,sans-Serif" font-size="10.00">config.hpp</text>
</a>
</g>
</g>
<!-- Node15&#45;&gt;Node16 -->
<g id="edge10" class="edge">
<title>Node15&#45;&gt;Node16</title>
<path fill="none" stroke="midnightblue" d="M319.96,-291.08C323.65,-283.69 329.02,-272.95 333.59,-263.81"/>
<polygon fill="midnightblue" stroke="midnightblue" points="336.78,-265.26 338.12,-254.75 330.52,-262.13 336.78,-265.26"/>
</g>
<!-- Node17 -->
<g id="node10" class="node">
<title>Node17</title>
<g id="a_node10"><a xlink:href="core_8hpp.html" target="_top" xlink:title=" ">
<polygon fill="white" stroke="red" points="218,-235.5 218,-254.5 291,-254.5 291,-235.5 218,-235.5"/>
<text text-anchor="middle" x="254.5" y="-242.5" font-family="Helvetica,sans-Serif" font-size="10.00">fw/core.hpp</text>
</a>
</g>
</g>
<!-- Node15&#45;&gt;Node17 -->
<g id="edge11" class="edge">
<title>Node15&#45;&gt;Node17</title>
<path fill="none" stroke="midnightblue" d="M305.7,-291.32C296.68,-283.34 283.09,-271.31 272.18,-261.65"/>
<polygon fill="midnightblue" stroke="midnightblue" points="274.29,-258.84 264.48,-254.83 269.65,-264.08 274.29,-258.84"/>
</g>
<!-- Node17&#45;&gt;Node2 -->
<g id="edge12" class="edge">
<title>Node17&#45;&gt;Node2</title>
<path fill="none" stroke="midnightblue" d="M246.9,-235.08C240.27,-227.3 230.48,-215.8 222.44,-206.37"/>
<polygon fill="midnightblue" stroke="midnightblue" points="225.1,-204.09 215.95,-198.75 219.77,-208.63 225.1,-204.09"/>
</g>
<!-- Node17&#45;&gt;Node24 -->
<g id="edge13" class="edge">
<title>Node17&#45;&gt;Node24</title>
<path fill="none" stroke="midnightblue" d="M275.1,-235.44C296.49,-226.56 330.18,-212.56 354.52,-202.45"/>
<polygon fill="midnightblue" stroke="midnightblue" points="356.11,-205.58 364,-198.52 353.42,-199.12 356.11,-205.58"/>
</g>
<!-- Node17&#45;&gt;Node31 -->
<g id="edge15" class="edge">
<title>Node17&#45;&gt;Node31</title>
<path fill="none" stroke="midnightblue" d="M291.12,-236.09C334.42,-226.74 406.7,-211.12 454.97,-200.7"/>
<polygon fill="midnightblue" stroke="midnightblue" points="455.85,-204.09 464.89,-198.56 454.38,-197.25 455.85,-204.09"/>
</g>
<!-- Node24&#45;&gt;Node3 -->
<g id="edge14" class="edge">
<title>Node24&#45;&gt;Node3</title>
<path fill="none" stroke="midnightblue" d="M385.07,-179.49C386.14,-157.26 386.35,-96.42 360.5,-56 351.9,-42.56 337.72,-31.97 324.88,-24.46"/>
<polygon fill="midnightblue" stroke="midnightblue" points="326.33,-21.26 315.88,-19.53 322.97,-27.4 326.33,-21.26"/>
</g>
<!-- Node32&#45;&gt;Node24 -->
<g id="edge17" class="edge">
<title>Node32&#45;&gt;Node24</title>
<path fill="none" stroke="midnightblue" d="M469.27,-235.32C453.15,-226.7 428.2,-213.36 409.54,-203.39"/>
<polygon fill="midnightblue" stroke="midnightblue" points="411.16,-200.28 400.69,-198.65 407.86,-206.46 411.16,-200.28"/>
</g>
<!-- Node32&#45;&gt;Node31 -->
<g id="edge18" class="edge">
<title>Node32&#45;&gt;Node31</title>
<path fill="none" stroke="midnightblue" d="M488.64,-235.08C491.18,-227.85 494.86,-217.41 498.03,-208.4"/>
<polygon fill="midnightblue" stroke="midnightblue" points="501.4,-209.35 501.42,-198.75 494.8,-207.02 501.4,-209.35"/>
</g>
</g>
</svg>
