<?xml version="1.0" encoding="UTF-8" standalone="no"?>
<!DOCTYPE svg PUBLIC "-//W3C//DTD SVG 1.1//EN"
 "http://www.w3.org/Graphics/SVG/1.1/DTD/svg11.dtd">
<!-- Generated by graphviz version 2.43.0 (0)
 -->
<!-- Title: src/fw/dispatcher.hpp Pages: 1 -->
<svg width="1387pt" height="263pt"
 viewBox="0.00 0.00 1387.00 263.00" xmlns="http://www.w3.org/2000/svg" xmlns:xlink="http://www.w3.org/1999/xlink">
<g id="graph0" class="graph" transform="scale(1 1) rotate(0) translate(4 259)">
<title>src/fw/dispatcher.hpp</title>
<polygon fill="white" stroke="transparent" points="-4,4 -4,-259 1383,-259 1383,4 -4,4"/>
<!-- Node1 -->
<g id="node1" class="node">
<title>Node1</title>
<g id="a_node1"><a xlink:title=" ">
<polygon fill="#bfbfbf" stroke="black" points="568,-235.5 568,-254.5 687,-254.5 687,-235.5 568,-235.5"/>
<text text-anchor="middle" x="627.5" y="-242.5" font-family="Helvetica,sans-Serif" font-size="10.00">src/fw/dispatcher.hpp</text>
</a>
</g>
</g>
<!-- Node2 -->
<g id="node2" class="node">
<title>Node2</title>
<g id="a_node2"><a xlink:href="control_8hpp.html" target="_top" xlink:title=" ">
<polygon fill="white" stroke="black" points="177,-123.5 177,-142.5 248,-142.5 248,-123.5 177,-123.5"/>
<text text-anchor="middle" x="212.5" y="-130.5" font-family="Helvetica,sans-Serif" font-size="10.00">control.hpp</text>
</a>
</g>
</g>
<!-- Node1&#45;&gt;Node2 -->
<g id="edge1" class="edge">
<title>Node1&#45;&gt;Node2</title>
<path fill="none" stroke="midnightblue" d="M595.28,-235.46C520.97,-215.76 337.58,-167.15 254.55,-145.15"/>
<polygon fill="midnightblue" stroke="midnightblue" points="255.26,-141.71 244.7,-142.53 253.47,-148.48 255.26,-141.71"/>
</g>
<!-- Node13 -->
<g id="node6" class="node">
<title>Node13</title>
<g id="a_node6"><a xlink:href="acquisition_8hpp.html" target="_top" xlink:title=" ">
<polygon fill="white" stroke="black" points="636.5,-67.5 636.5,-86.5 764.5,-86.5 764.5,-67.5 636.5,-67.5"/>
<text text-anchor="middle" x="700.5" y="-74.5" font-family="Helvetica,sans-Serif" font-size="10.00">drivers/acquisition.hpp</text>
</a>
</g>
</g>
<!-- Node1&#45;&gt;Node13 -->
<g id="edge6" class="edge">
<title>Node1&#45;&gt;Node13</title>
<path fill="none" stroke="midnightblue" d="M632.74,-235.35C642.97,-218.21 665.86,-178.52 680.5,-143 686.83,-127.65 692.24,-109.55 695.83,-96.35"/>
<polygon fill="midnightblue" stroke="midnightblue" points="699.24,-97.15 698.4,-86.59 692.47,-95.37 699.24,-97.15"/>
</g>
<!-- Node23 -->
<g id="node16" class="node">
<title>Node23</title>
<g id="a_node16"><a xlink:href="comms_8hpp.html" target="_top" xlink:title=" ">
<polygon fill="white" stroke="black" points="971.5,-123.5 971.5,-142.5 1081.5,-142.5 1081.5,-123.5 971.5,-123.5"/>
<text text-anchor="middle" x="1026.5" y="-130.5" font-family="Helvetica,sans-Serif" font-size="10.00">drivers/comms.hpp</text>
</a>
</g>
</g>
<!-- Node1&#45;&gt;Node23 -->
<g id="edge16" class="edge">
<title>Node1&#45;&gt;Node23</title>
<path fill="none" stroke="midnightblue" d="M658.48,-235.46C729.85,-215.78 905.88,-167.25 985.83,-145.21"/>
<polygon fill="midnightblue" stroke="midnightblue" points="986.83,-148.57 995.54,-142.53 984.97,-141.82 986.83,-148.57"/>
</g>
<!-- Node31 -->
<g id="node19" class="node">
<title>Node31</title>
<g id="a_node19"><a xlink:href="cfg__dispatcher_8hpp.html" target="_top" xlink:title=" ">
<polygon fill="white" stroke="black" points="493.5,-179.5 493.5,-198.5 615.5,-198.5 615.5,-179.5 493.5,-179.5"/>
<text text-anchor="middle" x="554.5" y="-186.5" font-family="Helvetica,sans-Serif" font-size="10.00">fw/cfg_dispatcher.hpp</text>
</a>
</g>
</g>
<!-- Node1&#45;&gt;Node31 -->
<g id="edge23" class="edge">
<title>Node1&#45;&gt;Node31</title>
<path fill="none" stroke="midnightblue" d="M615.77,-235.32C604.66,-227.11 587.76,-214.6 574.52,-204.81"/>
<polygon fill="midnightblue" stroke="midnightblue" points="576.56,-201.97 566.44,-198.83 572.4,-207.59 576.56,-201.97"/>
</g>
<!-- Node3 -->
<g id="node3" class="node">
<title>Node3</title>
<g id="a_node3"><a xlink:href="base_8hpp.html" target="_top" xlink:title=" ">
<polygon fill="white" stroke="red" points="0,-6 0,-25 61,-25 61,-6 0,-6"/>
<text text-anchor="middle" x="30.5" y="-13" font-family="Helvetica,sans-Serif" font-size="10.00">base.hpp</text>
</a>
</g>
</g>
<!-- Node2&#45;&gt;Node3 -->
<g id="edge2" class="edge">
<title>Node2&#45;&gt;Node3</title>
<path fill="none" stroke="midnightblue" d="M176.95,-131.94C140.09,-129.9 83.23,-120.94 49.5,-87 35.98,-73.4 31.81,-51.25 30.65,-35.41"/>
<polygon fill="midnightblue" stroke="midnightblue" points="34.14,-35.06 30.25,-25.2 27.14,-35.33 34.14,-35.06"/>
</g>
<!-- Node10 -->
<g id="node4" class="node">
<title>Node10</title>
<g id="a_node4"><a xlink:href="pid__module_8hpp.html" target="_top" xlink:title=" ">
<polygon fill="white" stroke="red" points="58.5,-67.5 58.5,-86.5 168.5,-86.5 168.5,-67.5 58.5,-67.5"/>
<text text-anchor="middle" x="113.5" y="-74.5" font-family="Helvetica,sans-Serif" font-size="10.00">ctl/pid_module.hpp</text>
</a>
</g>
</g>
<!-- Node2&#45;&gt;Node10 -->
<g id="edge3" class="edge">
<title>Node2&#45;&gt;Node10</title>
<path fill="none" stroke="midnightblue" d="M196.59,-123.32C180.86,-114.74 156.56,-101.49 138.29,-91.52"/>
<polygon fill="midnightblue" stroke="midnightblue" points="139.82,-88.37 129.37,-86.65 136.47,-94.52 139.82,-88.37"/>
</g>
<!-- Node12 -->
<g id="node5" class="node">
<title>Node12</title>
<g id="a_node5"><a xlink:title=" ">
<polygon fill="white" stroke="#bfbfbf" points="187,-67.5 187,-86.5 238,-86.5 238,-67.5 187,-67.5"/>
<text text-anchor="middle" x="212.5" y="-74.5" font-family="Helvetica,sans-Serif" font-size="10.00">variant</text>
</a>
</g>
</g>
<!-- Node2&#45;&gt;Node12 -->
<g id="edge5" class="edge">
<title>Node2&#45;&gt;Node12</title>
<path fill="none" stroke="midnightblue" d="M212.5,-123.08C212.5,-116.01 212.5,-105.86 212.5,-96.99"/>
<polygon fill="midnightblue" stroke="midnightblue" points="216,-96.75 212.5,-86.75 209,-96.75 216,-96.75"/>
</g>
<!-- Node10&#45;&gt;Node3 -->
<g id="edge4" class="edge">
<title>Node10&#45;&gt;Node3</title>
<path fill="none" stroke="midnightblue" d="M101.61,-67.48C88.3,-57.93 66.5,-42.31 50.54,-30.87"/>
<polygon fill="midnightblue" stroke="midnightblue" points="52.54,-27.99 42.37,-25.01 48.46,-33.68 52.54,-27.99"/>
</g>
<!-- Node14 -->
<g id="node7" class="node">
<title>Node14</title>
<g id="a_node7"><a xlink:href="current_8hpp.html" target="_top" xlink:title=" ">
<polygon fill="white" stroke="red" points="164.5,-6 164.5,-25 292.5,-25 292.5,-6 164.5,-6"/>
<text text-anchor="middle" x="228.5" y="-13" font-family="Helvetica,sans-Serif" font-size="10.00">conversion/current.hpp</text>
</a>
</g>
</g>
<!-- Node13&#45;&gt;Node14 -->
<g id="edge7" class="edge">
<title>Node13&#45;&gt;Node14</title>
<path fill="none" stroke="midnightblue" d="M636.36,-70.43C557.34,-63.19 419.12,-49.28 301.5,-31 293.95,-29.83 286,-28.42 278.23,-26.96"/>
<polygon fill="midnightblue" stroke="midnightblue" points="278.66,-23.47 268.17,-25.01 277.33,-30.35 278.66,-23.47"/>
</g>
<!-- Node15 -->
<g id="node8" class="node">
<title>Node15</title>
<g id="a_node8"><a xlink:href="position_8hpp.html" target="_top" xlink:title=" ">
<polygon fill="white" stroke="red" points="311,-6 311,-25 444,-25 444,-6 311,-6"/>
<text text-anchor="middle" x="377.5" y="-13" font-family="Helvetica,sans-Serif" font-size="10.00">conversion/position.hpp</text>
</a>
</g>
</g>
<!-- Node13&#45;&gt;Node15 -->
<g id="edge8" class="edge">
<title>Node13&#45;&gt;Node15</title>
<path fill="none" stroke="midnightblue" d="M652.46,-67.45C602.48,-58.52 521.96,-44.02 452.5,-31 445.67,-29.72 438.49,-28.36 431.4,-27"/>
<polygon fill="midnightblue" stroke="midnightblue" points="431.59,-23.47 421.11,-25.02 430.27,-30.34 431.59,-23.47"/>
</g>
<!-- Node16 -->
<g id="node9" class="node">
<title>Node16</title>
<g id="a_node9"><a xlink:href="temperature_8hpp.html" target="_top" xlink:title=" ">
<polygon fill="white" stroke="black" points="462,-6 462,-25 617,-25 617,-6 462,-6"/>
<text text-anchor="middle" x="539.5" y="-13" font-family="Helvetica,sans-Serif" font-size="10.00">conversion/temperature.hpp</text>
</a>
</g>
</g>
<!-- Node13&#45;&gt;Node16 -->
<g id="edge9" class="edge">
<title>Node13&#45;&gt;Node16</title>
<path fill="none" stroke="midnightblue" d="M677.43,-67.48C649.82,-57.27 603.38,-40.11 572.1,-28.55"/>
<polygon fill="midnightblue" stroke="midnightblue" points="573.12,-25.19 562.52,-25.01 570.69,-31.76 573.12,-25.19"/>
</g>
<!-- Node17 -->
<g id="node10" class="node">
<title>Node17</title>
<g id="a_node10"><a xlink:href="voltage_8hpp.html" target="_top" xlink:title=" ">
<polygon fill="white" stroke="black" points="635,-6 635,-25 766,-25 766,-6 635,-6"/>
<text text-anchor="middle" x="700.5" y="-13" font-family="Helvetica,sans-Serif" font-size="10.00">conversion/voltage.hpp</text>
</a>
</g>
</g>
<!-- Node13&#45;&gt;Node17 -->
<g id="edge10" class="edge">
<title>Node13&#45;&gt;Node17</title>
<path fill="none" stroke="midnightblue" d="M700.5,-67.48C700.5,-59.08 700.5,-45.98 700.5,-35.16"/>
<polygon fill="midnightblue" stroke="midnightblue" points="704,-35.01 700.5,-25.01 697,-35.01 704,-35.01"/>
</g>
<!-- Node18 -->
<g id="node11" class="node">
<title>Node18</title>
<g id="a_node11"><a xlink:title=" ">
<polygon fill="white" stroke="#bfbfbf" points="960,-0.5 960,-30.5 1093,-30.5 1093,-0.5 960,-0.5"/>
<text text-anchor="start" x="968" y="-18.5" font-family="Helvetica,sans-Serif" font-size="10.00">emlabcpp/experimental</text>
<text text-anchor="middle" x="1026.5" y="-7.5" font-family="Helvetica,sans-Serif" font-size="10.00">/function_view.h</text>
</a>
</g>
</g>
<!-- Node13&#45;&gt;Node18 -->
<g id="edge11" class="edge">
<title>Node13&#45;&gt;Node18</title>
<path fill="none" stroke="midnightblue" d="M748.92,-67.44C797.14,-58.88 873.55,-45.22 949.55,-31.17"/>
<polygon fill="midnightblue" stroke="midnightblue" points="950.58,-34.53 959.78,-29.27 949.31,-27.65 950.58,-34.53"/>
</g>
<!-- Node19 -->
<g id="node12" class="node">
<title>Node19</title>
<g id="a_node12"><a xlink:title=" ">
<polygon fill="white" stroke="#bfbfbf" points="1111,-6 1111,-25 1260,-25 1260,-6 1111,-6"/>
<text text-anchor="middle" x="1185.5" y="-13" font-family="Helvetica,sans-Serif" font-size="10.00">emlabcpp/static_function.h</text>
</a>
</g>
</g>
<!-- Node13&#45;&gt;Node19 -->
<g id="edge12" class="edge">
<title>Node13&#45;&gt;Node19</title>
<path fill="none" stroke="midnightblue" d="M764.71,-70.04C844.19,-62.38 983.62,-48.02 1102.5,-31 1111.23,-29.75 1120.46,-28.28 1129.46,-26.77"/>
<polygon fill="midnightblue" stroke="midnightblue" points="1130.22,-30.19 1139.48,-25.06 1129.04,-23.29 1130.22,-30.19"/>
</g>
<!-- Node20 -->
<g id="node13" class="node">
<title>Node20</title>
<g id="a_node13"><a xlink:title=" ">
<polygon fill="white" stroke="#bfbfbf" points="784,-6 784,-25 883,-25 883,-6 784,-6"/>
<text text-anchor="middle" x="833.5" y="-13" font-family="Helvetica,sans-Serif" font-size="10.00">emlabcpp/view.h</text>
</a>
</g>
</g>
<!-- Node13&#45;&gt;Node20 -->
<g id="edge13" class="edge">
<title>Node13&#45;&gt;Node20</title>
<path fill="none" stroke="midnightblue" d="M719.56,-67.48C741.97,-57.45 779.41,-40.7 805.21,-29.15"/>
<polygon fill="midnightblue" stroke="midnightblue" points="806.78,-32.29 814.48,-25.01 803.92,-25.9 806.78,-32.29"/>
</g>
<!-- Node21 -->
<g id="node14" class="node">
<title>Node21</title>
<g id="a_node14"><a xlink:title=" ">
<polygon fill="white" stroke="#bfbfbf" points="901.5,-6 901.5,-25 941.5,-25 941.5,-6 901.5,-6"/>
<text text-anchor="middle" x="921.5" y="-13" font-family="Helvetica,sans-Serif" font-size="10.00">span</text>
</a>
</g>
</g>
<!-- Node13&#45;&gt;Node21 -->
<g id="edge14" class="edge">
<title>Node13&#45;&gt;Node21</title>
<path fill="none" stroke="midnightblue" d="M751.16,-67.48C790.42,-60.07 845.81,-47.88 892.5,-31 893.92,-30.49 895.37,-29.92 896.81,-29.32"/>
<polygon fill="midnightblue" stroke="midnightblue" points="898.53,-32.38 906.14,-25.01 895.6,-26.02 898.53,-32.38"/>
</g>
<!-- Node22 -->
<g id="node15" class="node">
<title>Node22</title>
<g id="a_node15"><a xlink:title=" ">
<polygon fill="white" stroke="#bfbfbf" points="1278,-6 1278,-25 1379,-25 1379,-6 1278,-6"/>
<text text-anchor="middle" x="1328.5" y="-13" font-family="Helvetica,sans-Serif" font-size="10.00">stm32g4xx_hal.h</text>
</a>
</g>
</g>
<!-- Node13&#45;&gt;Node22 -->
<g id="edge15" class="edge">
<title>Node13&#45;&gt;Node22</title>
<path fill="none" stroke="midnightblue" d="M764.9,-74.3C870.79,-70.75 1088.03,-60.28 1269.5,-31 1275.44,-30.04 1281.66,-28.79 1287.74,-27.43"/>
<polygon fill="midnightblue" stroke="midnightblue" points="1288.84,-30.76 1297.77,-25.05 1287.23,-23.95 1288.84,-30.76"/>
</g>
<!-- Node23&#45;&gt;Node18 -->
<g id="edge20" class="edge">
<title>Node23&#45;&gt;Node18</title>
<path fill="none" stroke="midnightblue" d="M1026.5,-123.32C1026.5,-105.97 1026.5,-66.46 1026.5,-40.66"/>
<polygon fill="midnightblue" stroke="midnightblue" points="1030,-40.55 1026.5,-30.55 1023,-40.55 1030,-40.55"/>
</g>
<!-- Node23&#45;&gt;Node19 -->
<g id="edge21" class="edge">
<title>Node23&#45;&gt;Node19</title>
<path fill="none" stroke="midnightblue" d="M1038.45,-123.32C1065.5,-103.67 1131.66,-55.61 1165.24,-31.22"/>
<polygon fill="midnightblue" stroke="midnightblue" points="1167.38,-33.99 1173.41,-25.28 1163.26,-28.33 1167.38,-33.99"/>
</g>
<!-- Node23&#45;&gt;Node22 -->
<g id="edge22" class="edge">
<title>Node23&#45;&gt;Node22</title>
<path fill="none" stroke="midnightblue" d="M1049.2,-123.32C1102.34,-102.99 1234.99,-52.26 1296.38,-28.78"/>
<polygon fill="midnightblue" stroke="midnightblue" points="1297.86,-31.97 1305.95,-25.12 1295.36,-25.43 1297.86,-31.97"/>
</g>
<!-- Node24 -->
<g id="node17" class="node">
<title>Node24</title>
<g id="a_node17"><a xlink:href="protocol_8hpp.html" target="_top" xlink:title=" ">
<polygon fill="white" stroke="red" points="256,-67.5 256,-86.5 333,-86.5 333,-67.5 256,-67.5"/>
<text text-anchor="middle" x="294.5" y="-74.5" font-family="Helvetica,sans-Serif" font-size="10.00">protocol.hpp</text>
</a>
</g>
</g>
<!-- Node23&#45;&gt;Node24 -->
<g id="edge17" class="edge">
<title>Node23&#45;&gt;Node24</title>
<path fill="none" stroke="midnightblue" d="M971.48,-127.94C833.57,-117.77 474.83,-91.3 343.55,-81.62"/>
<polygon fill="midnightblue" stroke="midnightblue" points="343.63,-78.11 333.4,-80.87 343.11,-85.1 343.63,-78.11"/>
</g>
<!-- Node24&#45;&gt;Node3 -->
<g id="edge18" class="edge">
<title>Node24&#45;&gt;Node3</title>
<path fill="none" stroke="midnightblue" d="M255.79,-68.6C196.24,-57.18 87.18,-36.02 69.5,-31 66.86,-30.25 64.13,-29.4 61.42,-28.5"/>
<polygon fill="midnightblue" stroke="midnightblue" points="62.35,-25.12 51.75,-25.1 60.02,-31.72 62.35,-25.12"/>
</g>
<!-- Node25 -->
<g id="node18" class="node">
<title>Node25</title>
<g id="a_node18"><a xlink:href="config_8hpp.html" target="_top" xlink:title=" ">
<polygon fill="white" stroke="red" points="79,-6 79,-25 146,-25 146,-6 79,-6"/>
<text text-anchor="middle" x="112.5" y="-13" font-family="Helvetica,sans-Serif" font-size="10.00">config.hpp</text>
</a>
</g>
</g>
<!-- Node24&#45;&gt;Node25 -->
<g id="edge19" class="edge">
<title>Node24&#45;&gt;Node25</title>
<path fill="none" stroke="midnightblue" d="M267.82,-67.47C239.82,-58.49 194.52,-43.89 155.5,-31 152.92,-30.15 150.26,-29.26 147.59,-28.37"/>
<polygon fill="midnightblue" stroke="midnightblue" points="148.54,-25 137.95,-25.14 146.32,-31.64 148.54,-25"/>
</g>
<!-- Node31&#45;&gt;Node2 -->
<g id="edge25" class="edge">
<title>Node31&#45;&gt;Node2</title>
<path fill="none" stroke="midnightblue" d="M500.31,-179.44C433.4,-168.88 320.8,-151.1 258.11,-141.2"/>
<polygon fill="midnightblue" stroke="midnightblue" points="258.54,-137.73 248.12,-139.62 257.45,-144.64 258.54,-137.73"/>
</g>
<!-- Node31&#45;&gt;Node13 -->
<g id="edge26" class="edge">
<title>Node31&#45;&gt;Node13</title>
<path fill="none" stroke="midnightblue" d="M554.79,-179.19C555.72,-165.41 559.48,-138.7 574.5,-123 590.37,-106.41 612.78,-95.92 634.3,-89.29"/>
<polygon fill="midnightblue" stroke="midnightblue" points="635.43,-92.61 644.1,-86.51 633.52,-85.87 635.43,-92.61"/>
</g>
<!-- Node31&#45;&gt;Node25 -->
<g id="edge24" class="edge">
<title>Node31&#45;&gt;Node25</title>
<path fill="none" stroke="midnightblue" d="M542.7,-179.43C511.52,-157.21 423.68,-97.36 341.5,-67 262.52,-37.82 236.91,-52.5 155.5,-31 152.3,-30.16 148.99,-29.2 145.7,-28.19"/>
<polygon fill="midnightblue" stroke="midnightblue" points="146.58,-24.79 135.98,-25.05 144.43,-31.45 146.58,-24.79"/>
</g>
<!-- Node32 -->
<g id="node20" class="node">
<title>Node32</title>
<g id="a_node20"><a xlink:href="monitor_8hpp.html" target="_top" xlink:title=" ">
<polygon fill="white" stroke="red" points="583,-123.5 583,-142.5 672,-142.5 672,-123.5 583,-123.5"/>
<text text-anchor="middle" x="627.5" y="-130.5" font-family="Helvetica,sans-Serif" font-size="10.00">fw/monitor.hpp</text>
</a>
</g>
</g>
<!-- Node31&#45;&gt;Node32 -->
<g id="edge27" class="edge">
<title>Node31&#45;&gt;Node32</title>
<path fill="none" stroke="midnightblue" d="M566.23,-179.32C577.34,-171.11 594.24,-158.6 607.48,-148.81"/>
<polygon fill="midnightblue" stroke="midnightblue" points="609.6,-151.59 615.56,-142.83 605.44,-145.97 609.6,-151.59"/>
</g>
<!-- Node32&#45;&gt;Node13 -->
<g id="edge28" class="edge">
<title>Node32&#45;&gt;Node13</title>
<path fill="none" stroke="midnightblue" d="M639.23,-123.32C650.34,-115.11 667.24,-102.6 680.48,-92.81"/>
<polygon fill="midnightblue" stroke="midnightblue" points="682.6,-95.59 688.56,-86.83 678.44,-89.97 682.6,-95.59"/>
</g>
</g>
</svg>
