<?xml version="1.0" encoding="UTF-8" standalone="no"?>
<!DOCTYPE svg PUBLIC "-//W3C//DTD SVG 1.1//EN"
 "http://www.w3.org/Graphics/SVG/1.1/DTD/svg11.dtd">
<!-- Generated by graphviz version 2.43.0 (0)
 -->
<!-- Title: src/fw/dispatcher.cpp Pages: 1 -->
<svg width="540pt" height="140pt"
 viewBox="0.00 0.00 540.00 140.00" xmlns="http://www.w3.org/2000/svg" xmlns:xlink="http://www.w3.org/1999/xlink">
<g id="graph0" class="graph" transform="scale(1 1) rotate(0) translate(4 136)">
<title>src/fw/dispatcher.cpp</title>
<polygon fill="white" stroke="transparent" points="-4,4 -4,-136 536,-136 536,4 -4,4"/>
<!-- Node1 -->
<g id="node1" class="node">
<title>Node1</title>
<g id="a_node1"><a xlink:title=" ">
<polygon fill="#bfbfbf" stroke="black" points="308,-112.5 308,-131.5 427,-131.5 427,-112.5 308,-112.5"/>
<text text-anchor="middle" x="367.5" y="-119.5" font-family="Helvetica,sans-Serif" font-size="10.00">src/fw/dispatcher.cpp</text>
</a>
</g>
</g>
<!-- Node2 -->
<g id="node2" class="node">
<title>Node2</title>
<g id="a_node2"><a xlink:href="dispatcher_8hpp.html" target="_top" xlink:title=" ">
<polygon fill="white" stroke="black" points="200.5,-56.5 200.5,-75.5 302.5,-75.5 302.5,-56.5 200.5,-56.5"/>
<text text-anchor="middle" x="251.5" y="-63.5" font-family="Helvetica,sans-Serif" font-size="10.00">fw/dispatcher.hpp</text>
</a>
</g>
</g>
<!-- Node1&#45;&gt;Node2 -->
<g id="edge1" class="edge">
<title>Node1&#45;&gt;Node2</title>
<path fill="none" stroke="midnightblue" d="M349.12,-112.44C330.28,-103.68 300.77,-89.94 279.12,-79.86"/>
<polygon fill="midnightblue" stroke="midnightblue" points="280.34,-76.56 269.79,-75.52 277.38,-82.91 280.34,-76.56"/>
</g>
<!-- Node47 -->
<g id="node7" class="node">
<title>Node47</title>
<g id="a_node7"><a xlink:href="map__cfg_8hpp.html" target="_top" xlink:title=" ">
<polygon fill="white" stroke="black" points="320.5,-56.5 320.5,-75.5 414.5,-75.5 414.5,-56.5 320.5,-56.5"/>
<text text-anchor="middle" x="367.5" y="-63.5" font-family="Helvetica,sans-Serif" font-size="10.00">fw/map_cfg.hpp</text>
</a>
</g>
</g>
<!-- Node1&#45;&gt;Node47 -->
<g id="edge6" class="edge">
<title>Node1&#45;&gt;Node47</title>
<path fill="none" stroke="midnightblue" d="M367.5,-112.08C367.5,-105.01 367.5,-94.86 367.5,-85.99"/>
<polygon fill="midnightblue" stroke="midnightblue" points="371,-85.75 367.5,-75.75 364,-85.75 371,-85.75"/>
</g>
<!-- Node48 -->
<g id="node8" class="node">
<title>Node48</title>
<g id="a_node8"><a xlink:href="servio__pb_8hpp.html" target="_top" xlink:title=" ">
<polygon fill="white" stroke="black" points="433,-56.5 433,-75.5 532,-75.5 532,-56.5 433,-56.5"/>
<text text-anchor="middle" x="482.5" y="-63.5" font-family="Helvetica,sans-Serif" font-size="10.00">fw/servio_pb.hpp</text>
</a>
</g>
</g>
<!-- Node1&#45;&gt;Node48 -->
<g id="edge8" class="edge">
<title>Node1&#45;&gt;Node48</title>
<path fill="none" stroke="midnightblue" d="M385.72,-112.44C404.4,-103.68 433.66,-89.94 455.12,-79.86"/>
<polygon fill="midnightblue" stroke="midnightblue" points="456.8,-82.93 464.36,-75.52 453.82,-76.6 456.8,-82.93"/>
</g>
<!-- Node3 -->
<g id="node3" class="node">
<title>Node3</title>
<g id="a_node3"><a xlink:href="control_8hpp.html" target="_top" xlink:title=" ">
<polygon fill="white" stroke="red" points="0,-0.5 0,-19.5 71,-19.5 71,-0.5 0,-0.5"/>
<text text-anchor="middle" x="35.5" y="-7.5" font-family="Helvetica,sans-Serif" font-size="10.00">control.hpp</text>
</a>
</g>
</g>
<!-- Node2&#45;&gt;Node3 -->
<g id="edge2" class="edge">
<title>Node2&#45;&gt;Node3</title>
<path fill="none" stroke="midnightblue" d="M217.27,-56.44C179.99,-47.12 120.23,-32.18 79.49,-22"/>
<polygon fill="midnightblue" stroke="midnightblue" points="80.12,-18.55 69.57,-19.52 78.42,-25.34 80.12,-18.55"/>
</g>
<!-- Node16 -->
<g id="node4" class="node">
<title>Node16</title>
<g id="a_node4"><a xlink:href="cfg__dispatcher_8hpp.html" target="_top" xlink:title=" ">
<polygon fill="white" stroke="red" points="89.5,-0.5 89.5,-19.5 211.5,-19.5 211.5,-0.5 89.5,-0.5"/>
<text text-anchor="middle" x="150.5" y="-7.5" font-family="Helvetica,sans-Serif" font-size="10.00">fw/cfg_dispatcher.hpp</text>
</a>
</g>
</g>
<!-- Node2&#45;&gt;Node16 -->
<g id="edge3" class="edge">
<title>Node2&#45;&gt;Node16</title>
<path fill="none" stroke="midnightblue" d="M235.27,-56.32C219.15,-47.7 194.2,-34.36 175.54,-24.39"/>
<polygon fill="midnightblue" stroke="midnightblue" points="177.16,-21.28 166.69,-19.65 173.86,-27.46 177.16,-21.28"/>
</g>
<!-- Node28 -->
<g id="node5" class="node">
<title>Node28</title>
<g id="a_node5"><a xlink:href="conversion_8hpp.html" target="_top" xlink:title=" ">
<polygon fill="white" stroke="red" points="230,-0.5 230,-19.5 335,-19.5 335,-0.5 230,-0.5"/>
<text text-anchor="middle" x="282.5" y="-7.5" font-family="Helvetica,sans-Serif" font-size="10.00">fw/conversion.hpp</text>
</a>
</g>
</g>
<!-- Node2&#45;&gt;Node28 -->
<g id="edge4" class="edge">
<title>Node2&#45;&gt;Node28</title>
<path fill="none" stroke="midnightblue" d="M256.62,-56.08C260.91,-48.61 267.16,-37.72 272.44,-28.52"/>
<polygon fill="midnightblue" stroke="midnightblue" points="275.53,-30.17 277.48,-19.75 269.46,-26.68 275.53,-30.17"/>
</g>
<!-- Node46 -->
<g id="node6" class="node">
<title>Node46</title>
<g id="a_node6"><a xlink:title=" ">
<polygon fill="white" stroke="#bfbfbf" points="353.5,-0.5 353.5,-19.5 403.5,-19.5 403.5,-0.5 353.5,-0.5"/>
<text text-anchor="middle" x="378.5" y="-7.5" font-family="Helvetica,sans-Serif" font-size="10.00">io.pb.h</text>
</a>
</g>
</g>
<!-- Node2&#45;&gt;Node46 -->
<g id="edge5" class="edge">
<title>Node2&#45;&gt;Node46</title>
<path fill="none" stroke="midnightblue" d="M271.62,-56.44C292.52,-47.56 325.43,-33.56 349.22,-23.45"/>
<polygon fill="midnightblue" stroke="midnightblue" points="350.64,-26.65 358.47,-19.52 347.9,-20.21 350.64,-26.65"/>
</g>
<!-- Node47&#45;&gt;Node46 -->
<g id="edge7" class="edge">
<title>Node47&#45;&gt;Node46</title>
<path fill="none" stroke="midnightblue" d="M369.32,-56.08C370.77,-48.93 372.87,-38.64 374.69,-29.69"/>
<polygon fill="midnightblue" stroke="midnightblue" points="378.15,-30.25 376.72,-19.75 371.29,-28.85 378.15,-30.25"/>
</g>
<!-- Node48&#45;&gt;Node46 -->
<g id="edge10" class="edge">
<title>Node48&#45;&gt;Node46</title>
<path fill="none" stroke="midnightblue" d="M465.79,-56.32C449.19,-47.7 423.5,-34.36 404.28,-24.39"/>
<polygon fill="midnightblue" stroke="midnightblue" points="405.66,-21.16 395.17,-19.65 402.43,-27.37 405.66,-21.16"/>
</g>
<!-- Node49 -->
<g id="node9" class="node">
<title>Node49</title>
<g id="a_node9"><a xlink:title=" ">
<polygon fill="white" stroke="#bfbfbf" points="433,-0.5 433,-19.5 532,-19.5 532,-0.5 433,-0.5"/>
<text text-anchor="middle" x="482.5" y="-7.5" font-family="Helvetica,sans-Serif" font-size="10.00">emlabcpp/view.h</text>
</a>
</g>
</g>
<!-- Node48&#45;&gt;Node49 -->
<g id="edge9" class="edge">
<title>Node48&#45;&gt;Node49</title>
<path fill="none" stroke="midnightblue" d="M482.5,-56.08C482.5,-49.01 482.5,-38.86 482.5,-29.99"/>
<polygon fill="midnightblue" stroke="midnightblue" points="486,-29.75 482.5,-19.75 479,-29.75 486,-29.75"/>
</g>
</g>
</svg>
