<?xml version="1.0" encoding="UTF-8" standalone="no"?>
<!DOCTYPE svg PUBLIC "-//W3C//DTD SVG 1.1//EN"
 "http://www.w3.org/Graphics/SVG/1.1/DTD/svg11.dtd">
<!-- Generated by graphviz version 2.43.0 (0)
 -->
<!-- Title: src/fw/dispatcher.hpp Pages: 1 -->
<svg width="1432pt" height="263pt"
 viewBox="0.00 0.00 1431.50 263.00" xmlns="http://www.w3.org/2000/svg" xmlns:xlink="http://www.w3.org/1999/xlink">
<g id="graph0" class="graph" transform="scale(1 1) rotate(0) translate(4 259)">
<title>src/fw/dispatcher.hpp</title>
<polygon fill="white" stroke="transparent" points="-4,4 -4,-259 1427.5,-259 1427.5,4 -4,4"/>
<!-- Node1 -->
<g id="node1" class="node">
<title>Node1</title>
<g id="a_node1"><a xlink:title=" ">
<polygon fill="#bfbfbf" stroke="black" points="443.5,-235.5 443.5,-254.5 562.5,-254.5 562.5,-235.5 443.5,-235.5"/>
<text text-anchor="middle" x="503" y="-242.5" font-family="Helvetica,sans-Serif" font-size="10.00">src/fw/dispatcher.hpp</text>
</a>
</g>
</g>
<!-- Node2 -->
<g id="node2" class="node">
<title>Node2</title>
<g id="a_node2"><a xlink:href="control_8hpp.html" target="_top" xlink:title=" ">
<polygon fill="white" stroke="black" points="214.5,-123.5 214.5,-142.5 285.5,-142.5 285.5,-123.5 214.5,-123.5"/>
<text text-anchor="middle" x="250" y="-130.5" font-family="Helvetica,sans-Serif" font-size="10.00">control.hpp</text>
</a>
</g>
</g>
<!-- Node1&#45;&gt;Node2 -->
<g id="edge1" class="edge">
<title>Node1&#45;&gt;Node2</title>
<path fill="none" stroke="midnightblue" d="M483.15,-235.37C438.72,-216.05 331.1,-169.26 279.09,-146.65"/>
<polygon fill="midnightblue" stroke="midnightblue" points="280.33,-143.37 269.76,-142.59 277.54,-149.79 280.33,-143.37"/>
</g>
<!-- Node14 -->
<g id="node7" class="node">
<title>Node14</title>
<g id="a_node7"><a xlink:href="acquisition_8hpp.html" target="_top" xlink:title=" ">
<polygon fill="white" stroke="black" points="644,-67.5 644,-86.5 772,-86.5 772,-67.5 644,-67.5"/>
<text text-anchor="middle" x="708" y="-74.5" font-family="Helvetica,sans-Serif" font-size="10.00">drivers/acquisition.hpp</text>
</a>
</g>
</g>
<!-- Node1&#45;&gt;Node14 -->
<g id="edge7" class="edge">
<title>Node1&#45;&gt;Node14</title>
<path fill="none" stroke="midnightblue" d="M505.64,-235.25C512.75,-213.12 534.44,-154.44 573,-123 593.45,-106.33 620.33,-95.74 644.71,-89.05"/>
<polygon fill="midnightblue" stroke="midnightblue" points="645.81,-92.38 654.63,-86.5 644.07,-85.6 645.81,-92.38"/>
</g>
<!-- Node24 -->
<g id="node17" class="node">
<title>Node24</title>
<g id="a_node17"><a xlink:href="comms_8hpp.html" target="_top" xlink:title=" ">
<polygon fill="white" stroke="black" points="386,-123.5 386,-142.5 496,-142.5 496,-123.5 386,-123.5"/>
<text text-anchor="middle" x="441" y="-130.5" font-family="Helvetica,sans-Serif" font-size="10.00">drivers/comms.hpp</text>
</a>
</g>
</g>
<!-- Node1&#45;&gt;Node24 -->
<g id="edge17" class="edge">
<title>Node1&#45;&gt;Node24</title>
<path fill="none" stroke="midnightblue" d="M498.13,-235.37C487.95,-217.3 464.21,-175.18 450.76,-151.31"/>
<polygon fill="midnightblue" stroke="midnightblue" points="453.8,-149.58 445.84,-142.59 447.7,-153.02 453.8,-149.58"/>
</g>
<!-- Node32 -->
<g id="node19" class="node">
<title>Node32</title>
<g id="a_node19"><a xlink:href="cfg__dispatcher_8hpp.html" target="_top" xlink:title=" ">
<polygon fill="white" stroke="black" points="552,-179.5 552,-198.5 674,-198.5 674,-179.5 552,-179.5"/>
<text text-anchor="middle" x="613" y="-186.5" font-family="Helvetica,sans-Serif" font-size="10.00">fw/cfg_dispatcher.hpp</text>
</a>
</g>
</g>
<!-- Node1&#45;&gt;Node32 -->
<g id="edge23" class="edge">
<title>Node1&#45;&gt;Node32</title>
<path fill="none" stroke="midnightblue" d="M520.67,-235.32C538.39,-226.62 565.9,-213.12 586.29,-203.11"/>
<polygon fill="midnightblue" stroke="midnightblue" points="587.94,-206.2 595.37,-198.65 584.85,-199.92 587.94,-206.2"/>
</g>
<!-- Node3 -->
<g id="node3" class="node">
<title>Node3</title>
<g id="a_node3"><a xlink:href="base_8hpp.html" target="_top" xlink:title=" ">
<polygon fill="white" stroke="red" points="107.5,-6 107.5,-25 168.5,-25 168.5,-6 107.5,-6"/>
<text text-anchor="middle" x="138" y="-13" font-family="Helvetica,sans-Serif" font-size="10.00">base.hpp</text>
</a>
</g>
</g>
<!-- Node2&#45;&gt;Node3 -->
<g id="edge2" class="edge">
<title>Node2&#45;&gt;Node3</title>
<path fill="none" stroke="midnightblue" d="M216.31,-123.39C196.36,-116.63 172.1,-105.23 157,-87 145.02,-72.53 140.54,-51.18 138.89,-35.77"/>
<polygon fill="midnightblue" stroke="midnightblue" points="142.35,-35.07 138.11,-25.36 135.37,-35.59 142.35,-35.07"/>
</g>
<!-- Node10 -->
<g id="node4" class="node">
<title>Node10</title>
<g id="a_node4"><a xlink:href="ctl_2config_8hpp.html" target="_top" xlink:title=" ">
<polygon fill="white" stroke="black" points="166,-67.5 166,-86.5 248,-86.5 248,-67.5 166,-67.5"/>
<text text-anchor="middle" x="207" y="-74.5" font-family="Helvetica,sans-Serif" font-size="10.00">ctl/config.hpp</text>
</a>
</g>
</g>
<!-- Node2&#45;&gt;Node10 -->
<g id="edge3" class="edge">
<title>Node2&#45;&gt;Node10</title>
<path fill="none" stroke="midnightblue" d="M242.9,-123.08C236.76,-115.38 227.73,-104.03 220.26,-94.65"/>
<polygon fill="midnightblue" stroke="midnightblue" points="222.94,-92.39 213.97,-86.75 217.46,-96.75 222.94,-92.39"/>
</g>
<!-- Node11 -->
<g id="node5" class="node">
<title>Node11</title>
<g id="a_node5"><a xlink:href="pid__module_8hpp.html" target="_top" xlink:title=" ">
<polygon fill="white" stroke="red" points="0,-67.5 0,-86.5 110,-86.5 110,-67.5 0,-67.5"/>
<text text-anchor="middle" x="55" y="-74.5" font-family="Helvetica,sans-Serif" font-size="10.00">ctl/pid_module.hpp</text>
</a>
</g>
</g>
<!-- Node2&#45;&gt;Node11 -->
<g id="edge4" class="edge">
<title>Node2&#45;&gt;Node11</title>
<path fill="none" stroke="midnightblue" d="M219.1,-123.44C185.73,-114.2 132.41,-99.44 95.65,-89.26"/>
<polygon fill="midnightblue" stroke="midnightblue" points="96.33,-85.81 85.75,-86.52 94.46,-92.56 96.33,-85.81"/>
</g>
<!-- Node13 -->
<g id="node6" class="node">
<title>Node13</title>
<g id="a_node6"><a xlink:title=" ">
<polygon fill="white" stroke="#bfbfbf" points="266.5,-67.5 266.5,-86.5 317.5,-86.5 317.5,-67.5 266.5,-67.5"/>
<text text-anchor="middle" x="292" y="-74.5" font-family="Helvetica,sans-Serif" font-size="10.00">variant</text>
</a>
</g>
</g>
<!-- Node2&#45;&gt;Node13 -->
<g id="edge6" class="edge">
<title>Node2&#45;&gt;Node13</title>
<path fill="none" stroke="midnightblue" d="M256.94,-123.08C262.93,-115.38 271.75,-104.03 279.05,-94.65"/>
<polygon fill="midnightblue" stroke="midnightblue" points="281.82,-96.79 285.19,-86.75 276.29,-92.5 281.82,-96.79"/>
</g>
<!-- Node11&#45;&gt;Node3 -->
<g id="edge5" class="edge">
<title>Node11&#45;&gt;Node3</title>
<path fill="none" stroke="midnightblue" d="M66.89,-67.48C80.2,-57.93 102,-42.31 117.96,-30.87"/>
<polygon fill="midnightblue" stroke="midnightblue" points="120.04,-33.68 126.13,-25.01 115.96,-27.99 120.04,-33.68"/>
</g>
<!-- Node15 -->
<g id="node8" class="node">
<title>Node15</title>
<g id="a_node8"><a xlink:href="current_8hpp.html" target="_top" xlink:title=" ">
<polygon fill="white" stroke="red" points="822,-6 822,-25 950,-25 950,-6 822,-6"/>
<text text-anchor="middle" x="886" y="-13" font-family="Helvetica,sans-Serif" font-size="10.00">conversion/current.hpp</text>
</a>
</g>
</g>
<!-- Node14&#45;&gt;Node15 -->
<g id="edge8" class="edge">
<title>Node14&#45;&gt;Node15</title>
<path fill="none" stroke="midnightblue" d="M733.5,-67.48C764.3,-57.18 816.27,-39.81 850.85,-28.25"/>
<polygon fill="midnightblue" stroke="midnightblue" points="852.17,-31.5 860.54,-25.01 849.95,-24.86 852.17,-31.5"/>
</g>
<!-- Node16 -->
<g id="node9" class="node">
<title>Node16</title>
<g id="a_node9"><a xlink:href="position_8hpp.html" target="_top" xlink:title=" ">
<polygon fill="white" stroke="red" points="968.5,-6 968.5,-25 1101.5,-25 1101.5,-6 968.5,-6"/>
<text text-anchor="middle" x="1035" y="-13" font-family="Helvetica,sans-Serif" font-size="10.00">conversion/position.hpp</text>
</a>
</g>
</g>
<!-- Node14&#45;&gt;Node16 -->
<g id="edge9" class="edge">
<title>Node14&#45;&gt;Node16</title>
<path fill="none" stroke="midnightblue" d="M756.62,-67.45C807.2,-58.51 888.7,-44.01 959,-31 966.08,-29.69 973.53,-28.29 980.89,-26.9"/>
<polygon fill="midnightblue" stroke="midnightblue" points="981.64,-30.32 990.81,-25.02 980.33,-23.44 981.64,-30.32"/>
</g>
<!-- Node17 -->
<g id="node10" class="node">
<title>Node17</title>
<g id="a_node10"><a xlink:href="temperature_8hpp.html" target="_top" xlink:title=" ">
<polygon fill="white" stroke="black" points="1119.5,-6 1119.5,-25 1274.5,-25 1274.5,-6 1119.5,-6"/>
<text text-anchor="middle" x="1197" y="-13" font-family="Helvetica,sans-Serif" font-size="10.00">conversion/temperature.hpp</text>
</a>
</g>
</g>
<!-- Node14&#45;&gt;Node17 -->
<g id="edge10" class="edge">
<title>Node14&#45;&gt;Node17</title>
<path fill="none" stroke="midnightblue" d="M772,-69.97C851.61,-62.21 991.6,-47.72 1111,-31 1120.14,-29.72 1129.8,-28.23 1139.22,-26.7"/>
<polygon fill="midnightblue" stroke="midnightblue" points="1140.01,-30.11 1149.31,-25.03 1138.87,-23.21 1140.01,-30.11"/>
</g>
<!-- Node18 -->
<g id="node11" class="node">
<title>Node18</title>
<g id="a_node11"><a xlink:href="voltage_8hpp.html" target="_top" xlink:title=" ">
<polygon fill="white" stroke="black" points="1292.5,-6 1292.5,-25 1423.5,-25 1423.5,-6 1292.5,-6"/>
<text text-anchor="middle" x="1358" y="-13" font-family="Helvetica,sans-Serif" font-size="10.00">conversion/voltage.hpp</text>
</a>
</g>
</g>
<!-- Node14&#45;&gt;Node18 -->
<g id="edge11" class="edge">
<title>Node14&#45;&gt;Node18</title>
<path fill="none" stroke="midnightblue" d="M772.18,-73.41C878.84,-68.56 1099.15,-56.25 1284,-31 1292.12,-29.89 1300.68,-28.46 1309,-26.93"/>
<polygon fill="midnightblue" stroke="midnightblue" points="1309.8,-30.34 1318.97,-25.02 1308.49,-23.46 1309.8,-30.34"/>
</g>
<!-- Node19 -->
<g id="node12" class="node">
<title>Node19</title>
<g id="a_node12"><a xlink:title=" ">
<polygon fill="white" stroke="#bfbfbf" points="209.5,-0.5 209.5,-30.5 342.5,-30.5 342.5,-0.5 209.5,-0.5"/>
<text text-anchor="start" x="217.5" y="-18.5" font-family="Helvetica,sans-Serif" font-size="10.00">emlabcpp/experimental</text>
<text text-anchor="middle" x="276" y="-7.5" font-family="Helvetica,sans-Serif" font-size="10.00">/function_view.h</text>
</a>
</g>
</g>
<!-- Node14&#45;&gt;Node19 -->
<g id="edge12" class="edge">
<title>Node14&#45;&gt;Node19</title>
<path fill="none" stroke="midnightblue" d="M643.98,-69.21C574.56,-61.56 460.28,-48.13 352.67,-31.21"/>
<polygon fill="midnightblue" stroke="midnightblue" points="353.04,-27.72 342.62,-29.61 351.94,-34.64 353.04,-27.72"/>
</g>
<!-- Node20 -->
<g id="node13" class="node">
<title>Node20</title>
<g id="a_node13"><a xlink:title=" ">
<polygon fill="white" stroke="#bfbfbf" points="360.5,-6 360.5,-25 509.5,-25 509.5,-6 360.5,-6"/>
<text text-anchor="middle" x="435" y="-13" font-family="Helvetica,sans-Serif" font-size="10.00">emlabcpp/static_function.h</text>
</a>
</g>
</g>
<!-- Node14&#45;&gt;Node20 -->
<g id="edge13" class="edge">
<title>Node14&#45;&gt;Node20</title>
<path fill="none" stroke="midnightblue" d="M668.89,-67.48C620.13,-56.85 536.79,-38.68 483.88,-27.15"/>
<polygon fill="midnightblue" stroke="midnightblue" points="484.56,-23.72 474.04,-25.01 483.07,-30.56 484.56,-23.72"/>
</g>
<!-- Node21 -->
<g id="node14" class="node">
<title>Node21</title>
<g id="a_node14"><a xlink:title=" ">
<polygon fill="white" stroke="#bfbfbf" points="646.5,-6 646.5,-25 745.5,-25 745.5,-6 646.5,-6"/>
<text text-anchor="middle" x="696" y="-13" font-family="Helvetica,sans-Serif" font-size="10.00">emlabcpp/view.h</text>
</a>
</g>
</g>
<!-- Node14&#45;&gt;Node21 -->
<g id="edge14" class="edge">
<title>Node14&#45;&gt;Node21</title>
<path fill="none" stroke="midnightblue" d="M706.28,-67.48C704.57,-58.99 701.89,-45.7 699.7,-34.82"/>
<polygon fill="midnightblue" stroke="midnightblue" points="703.12,-34.12 697.72,-25.01 696.26,-35.5 703.12,-34.12"/>
</g>
<!-- Node22 -->
<g id="node15" class="node">
<title>Node22</title>
<g id="a_node15"><a xlink:title=" ">
<polygon fill="white" stroke="#bfbfbf" points="764,-6 764,-25 804,-25 804,-6 764,-6"/>
<text text-anchor="middle" x="784" y="-13" font-family="Helvetica,sans-Serif" font-size="10.00">span</text>
</a>
</g>
</g>
<!-- Node14&#45;&gt;Node22 -->
<g id="edge15" class="edge">
<title>Node14&#45;&gt;Node22</title>
<path fill="none" stroke="midnightblue" d="M718.89,-67.48C730.97,-58.02 750.67,-42.6 765.24,-31.19"/>
<polygon fill="midnightblue" stroke="midnightblue" points="767.41,-33.93 773.13,-25.01 763.1,-28.42 767.41,-33.93"/>
</g>
<!-- Node23 -->
<g id="node16" class="node">
<title>Node23</title>
<g id="a_node16"><a xlink:title=" ">
<polygon fill="white" stroke="#bfbfbf" points="527.5,-6 527.5,-25 628.5,-25 628.5,-6 527.5,-6"/>
<text text-anchor="middle" x="578" y="-13" font-family="Helvetica,sans-Serif" font-size="10.00">stm32g4xx_hal.h</text>
</a>
</g>
</g>
<!-- Node14&#45;&gt;Node23 -->
<g id="edge16" class="edge">
<title>Node14&#45;&gt;Node23</title>
<path fill="none" stroke="midnightblue" d="M689.37,-67.48C667.56,-57.49 631.2,-40.85 605.98,-29.31"/>
<polygon fill="midnightblue" stroke="midnightblue" points="607.14,-25.99 596.59,-25.01 604.23,-32.35 607.14,-25.99"/>
</g>
<!-- Node24&#45;&gt;Node19 -->
<g id="edge20" class="edge">
<title>Node24&#45;&gt;Node19</title>
<path fill="none" stroke="midnightblue" d="M440.72,-123.18C439.81,-109.38 436.08,-82.64 421,-67 409.52,-55.09 375.06,-42.85 342.63,-33.41"/>
<polygon fill="midnightblue" stroke="midnightblue" points="343.23,-29.94 332.65,-30.57 341.31,-36.67 343.23,-29.94"/>
</g>
<!-- Node24&#45;&gt;Node20 -->
<g id="edge21" class="edge">
<title>Node24&#45;&gt;Node20</title>
<path fill="none" stroke="midnightblue" d="M445.18,-123.2C450.58,-110.72 458.85,-87.18 455,-67 452.85,-55.71 448.21,-43.72 443.94,-34.26"/>
<polygon fill="midnightblue" stroke="midnightblue" points="447.05,-32.65 439.59,-25.13 440.74,-35.67 447.05,-32.65"/>
</g>
<!-- Node24&#45;&gt;Node23 -->
<g id="edge22" class="edge">
<title>Node24&#45;&gt;Node23</title>
<path fill="none" stroke="midnightblue" d="M451.3,-123.32C474.41,-103.84 530.64,-56.42 559.8,-31.84"/>
<polygon fill="midnightblue" stroke="midnightblue" points="562.19,-34.4 567.58,-25.28 557.68,-29.05 562.19,-34.4"/>
</g>
<!-- Node25 -->
<g id="node18" class="node">
<title>Node25</title>
<g id="a_node18"><a xlink:href="protocol_8hpp.html" target="_top" xlink:title=" ">
<polygon fill="white" stroke="red" points="335.5,-67.5 335.5,-86.5 412.5,-86.5 412.5,-67.5 335.5,-67.5"/>
<text text-anchor="middle" x="374" y="-74.5" font-family="Helvetica,sans-Serif" font-size="10.00">protocol.hpp</text>
</a>
</g>
</g>
<!-- Node24&#45;&gt;Node25 -->
<g id="edge18" class="edge">
<title>Node24&#45;&gt;Node25</title>
<path fill="none" stroke="midnightblue" d="M430.24,-123.32C420.23,-115.26 405.11,-103.08 393.07,-93.37"/>
<polygon fill="midnightblue" stroke="midnightblue" points="394.94,-90.38 384.96,-86.83 390.55,-95.83 394.94,-90.38"/>
</g>
<!-- Node25&#45;&gt;Node3 -->
<g id="edge19" class="edge">
<title>Node25&#45;&gt;Node3</title>
<path fill="none" stroke="midnightblue" d="M340.19,-67.48C297.53,-56.72 224.25,-38.24 178.6,-26.74"/>
<polygon fill="midnightblue" stroke="midnightblue" points="179.3,-23.3 168.75,-24.25 177.59,-30.09 179.3,-23.3"/>
</g>
<!-- Node32&#45;&gt;Node2 -->
<g id="edge25" class="edge">
<title>Node32&#45;&gt;Node2</title>
<path fill="none" stroke="midnightblue" d="M555.48,-179.44C483.56,-168.74 361.89,-150.64 295.89,-140.83"/>
<polygon fill="midnightblue" stroke="midnightblue" points="296.2,-137.33 285.79,-139.32 295.17,-144.26 296.2,-137.33"/>
</g>
<!-- Node32&#45;&gt;Node14 -->
<g id="edge26" class="edge">
<title>Node32&#45;&gt;Node14</title>
<path fill="none" stroke="midnightblue" d="M602.76,-179.1C589.06,-166.11 567.93,-141.49 581,-123 593.47,-105.35 613.47,-94.58 633.95,-88.02"/>
<polygon fill="midnightblue" stroke="midnightblue" points="635.05,-91.35 643.69,-85.21 633.11,-84.62 635.05,-91.35"/>
</g>
<!-- Node33 -->
<g id="node20" class="node">
<title>Node33</title>
<g id="a_node20"><a xlink:title=" ">
<polygon fill="white" stroke="#bfbfbf" points="590.5,-123.5 590.5,-142.5 657.5,-142.5 657.5,-123.5 590.5,-123.5"/>
<text text-anchor="middle" x="624" y="-130.5" font-family="Helvetica,sans-Serif" font-size="10.00">config.hpp</text>
</a>
</g>
</g>
<!-- Node32&#45;&gt;Node33 -->
<g id="edge24" class="edge">
<title>Node32&#45;&gt;Node33</title>
<path fill="none" stroke="midnightblue" d="M614.82,-179.08C616.27,-171.93 618.37,-161.64 620.19,-152.69"/>
<polygon fill="midnightblue" stroke="midnightblue" points="623.65,-153.25 622.22,-142.75 616.79,-151.85 623.65,-153.25"/>
</g>
<!-- Node34 -->
<g id="node21" class="node">
<title>Node34</title>
<g id="a_node21"><a xlink:href="monitor_8hpp.html" target="_top" xlink:title=" ">
<polygon fill="white" stroke="red" points="675.5,-123.5 675.5,-142.5 764.5,-142.5 764.5,-123.5 675.5,-123.5"/>
<text text-anchor="middle" x="720" y="-130.5" font-family="Helvetica,sans-Serif" font-size="10.00">fw/monitor.hpp</text>
</a>
</g>
</g>
<!-- Node32&#45;&gt;Node34 -->
<g id="edge27" class="edge">
<title>Node32&#45;&gt;Node34</title>
<path fill="none" stroke="midnightblue" d="M630.19,-179.32C647.35,-170.66 673.95,-157.24 693.75,-147.25"/>
<polygon fill="midnightblue" stroke="midnightblue" points="695.5,-150.28 702.85,-142.65 692.35,-144.04 695.5,-150.28"/>
</g>
<!-- Node34&#45;&gt;Node14 -->
<g id="edge28" class="edge">
<title>Node34&#45;&gt;Node14</title>
<path fill="none" stroke="midnightblue" d="M718.02,-123.08C716.43,-115.93 714.14,-105.64 712.15,-96.69"/>
<polygon fill="midnightblue" stroke="midnightblue" points="715.53,-95.75 709.94,-86.75 708.7,-97.27 715.53,-95.75"/>
</g>
</g>
</svg>
