<?xml version="1.0" encoding="UTF-8" standalone="no"?>
<!DOCTYPE svg PUBLIC "-//W3C//DTD SVG 1.1//EN"
 "http://www.w3.org/Graphics/SVG/1.1/DTD/svg11.dtd">
<!-- Generated by graphviz version 2.43.0 (0)
 -->
<!-- Title: src/core/tests/disp_utest.cpp Pages: 1 -->
<svg width="1016pt" height="214pt"
 viewBox="0.00 0.00 1016.00 214.00" xmlns="http://www.w3.org/2000/svg" xmlns:xlink="http://www.w3.org/1999/xlink">
<g id="graph0" class="graph" transform="scale(1 1) rotate(0) translate(4 210)">
<title>src/core/tests/disp_utest.cpp</title>
<!-- Node1 -->
<g id="Node000001" class="node">
<title>Node1</title>
<g id="a_Node000001"><a xlink:title=" ">
<polygon fill="#999999" stroke="#666666" points="673,-206 568,-206 568,-176 673,-176 673,-206"/>
<text text-anchor="start" x="576" y="-194" font-family="Helvetica,sans-Serif" font-size="10.00">src/core/tests/disp</text>
<text text-anchor="middle" x="620.5" y="-183" font-family="Helvetica,sans-Serif" font-size="10.00">_utest.cpp</text>
</a>
</g>
</g>
<!-- Node2 -->
<g id="Node000002" class="node">
<title>Node2</title>
<g id="a_Node000002"><a xlink:href="mock_8hpp.html" target="_top" xlink:title=" ">
<polygon fill="white" stroke="#666666" points="122,-140 21,-140 21,-121 122,-121 122,-140"/>
<text text-anchor="middle" x="71.5" y="-128" font-family="Helvetica,sans-Serif" font-size="10.00">../../drv/mock.hpp</text>
</a>
</g>
</g>
<!-- Node1&#45;&gt;Node2 -->
<g id="edge1_Node000001_Node000002" class="edge">
<title>Node1&#45;&gt;Node2</title>
<g id="a_edge1_Node000001_Node000002"><a xlink:title=" ">
<path fill="none" stroke="#63b8ff" d="M567.81,-185.03C478.84,-176.53 293.19,-158.33 136.5,-140 135.2,-139.85 133.88,-139.69 132.55,-139.53"/>
<polygon fill="#63b8ff" stroke="#63b8ff" points="132.58,-136.01 122.23,-138.27 131.73,-142.96 132.58,-136.01"/>
</a>
</g>
</g>
<!-- Node9 -->
<g id="Node000009" class="node">
<title>Node9</title>
<g id="a_Node000009"><a xlink:title=" ">
<polygon fill="#e0e0e0" stroke="#999999" points="160.5,-19 110.5,-19 110.5,0 160.5,0 160.5,-19"/>
<text text-anchor="middle" x="135.5" y="-7" font-family="Helvetica,sans-Serif" font-size="10.00">cstdint</text>
</a>
</g>
</g>
<!-- Node1&#45;&gt;Node9 -->
<g id="edge12_Node000001_Node000009" class="edge">
<title>Node1&#45;&gt;Node9</title>
<g id="a_edge12_Node000001_Node000009"><a xlink:title=" ">
<path fill="none" stroke="#63b8ff" d="M567.91,-185.57C504.18,-179.32 393.96,-165.71 302.5,-140 240.92,-122.69 215.54,-129.41 169.5,-85 153.7,-69.76 144.59,-45.81 139.85,-29.2"/>
<polygon fill="#63b8ff" stroke="#63b8ff" points="143.12,-27.87 137.24,-19.06 136.35,-29.62 143.12,-27.87"/>
</a>
</g>
</g>
<!-- Node18 -->
<g id="Node000018" class="node">
<title>Node18</title>
<g id="a_Node000018"><a xlink:href="core_2dispatcher_8hpp.html" target="_top" xlink:title=" ">
<polygon fill="white" stroke="#666666" points="408,-140 311,-140 311,-121 408,-121 408,-140"/>
<text text-anchor="middle" x="359.5" y="-128" font-family="Helvetica,sans-Serif" font-size="10.00">../dispatcher.hpp</text>
</a>
</g>
</g>
<!-- Node1&#45;&gt;Node18 -->
<g id="edge6_Node000001_Node000018" class="edge">
<title>Node1&#45;&gt;Node18</title>
<g id="a_edge6_Node000001_Node000018"><a xlink:title=" ">
<path fill="none" stroke="#63b8ff" d="M568,-178.23C521.08,-167.72 452.92,-152.44 407.45,-142.25"/>
<polygon fill="#63b8ff" stroke="#63b8ff" points="408.07,-138.8 397.54,-140.03 406.53,-145.63 408.07,-138.8"/>
</a>
</g>
</g>
<!-- Node10 -->
<g id="Node000010" class="node">
<title>Node10</title>
<g id="a_Node000010"><a xlink:title=" ">
<polygon fill="#e0e0e0" stroke="#999999" points="550.5,-140 426.5,-140 426.5,-121 550.5,-121 550.5,-140"/>
<text text-anchor="middle" x="488.5" y="-128" font-family="Helvetica,sans-Serif" font-size="10.00">emlabcpp/algorithm.h</text>
</a>
</g>
</g>
<!-- Node1&#45;&gt;Node10 -->
<g id="edge13_Node000001_Node000010" class="edge">
<title>Node1&#45;&gt;Node10</title>
<g id="a_edge13_Node000001_Node000010"><a xlink:title=" ">
<path fill="none" stroke="#63b8ff" d="M588.88,-175.99C567.15,-166.36 538.53,-153.67 517.41,-144.31"/>
<polygon fill="#63b8ff" stroke="#63b8ff" points="518.55,-140.99 507.99,-140.14 515.72,-147.39 518.55,-140.99"/>
</a>
</g>
</g>
<!-- Node59 -->
<g id="Node000059" class="node">
<title>Node59</title>
<g id="a_Node000059"><a xlink:title=" ">
<polygon fill="#e0e0e0" stroke="#999999" points="672.5,-140 568.5,-140 568.5,-121 672.5,-121 672.5,-140"/>
<text text-anchor="middle" x="620.5" y="-128" font-family="Helvetica,sans-Serif" font-size="10.00">emlabcpp/range.h</text>
</a>
</g>
</g>
<!-- Node1&#45;&gt;Node59 -->
<g id="edge14_Node000001_Node000059" class="edge">
<title>Node1&#45;&gt;Node59</title>
<g id="a_edge14_Node000001_Node000059"><a xlink:title=" ">
<path fill="none" stroke="#63b8ff" d="M620.5,-175.84C620.5,-168.21 620.5,-158.7 620.5,-150.45"/>
<polygon fill="#63b8ff" stroke="#63b8ff" points="624,-150.27 620.5,-140.27 617,-150.27 624,-150.27"/>
</a>
</g>
</g>
<!-- Node60 -->
<g id="Node000060" class="node">
<title>Node60</title>
<g id="a_Node000060"><a xlink:title=" ">
<polygon fill="#e0e0e0" stroke="#999999" points="728.5,-140 690.5,-140 690.5,-121 728.5,-121 728.5,-140"/>
<text text-anchor="middle" x="709.5" y="-128" font-family="Helvetica,sans-Serif" font-size="10.00">git.h</text>
</a>
</g>
</g>
<!-- Node1&#45;&gt;Node60 -->
<g id="edge15_Node000001_Node000060" class="edge">
<title>Node1&#45;&gt;Node60</title>
<g id="a_edge15_Node000001_Node000060"><a xlink:title=" ">
<path fill="none" stroke="#63b8ff" d="M642.04,-175.84C655.97,-166.68 674.03,-154.82 687.95,-145.66"/>
<polygon fill="#63b8ff" stroke="#63b8ff" points="689.99,-148.51 696.42,-140.09 686.15,-142.66 689.99,-148.51"/>
</a>
</g>
</g>
<!-- Node61 -->
<g id="Node000061" class="node">
<title>Node61</title>
<g id="a_Node000061"><a xlink:title=" ">
<polygon fill="#e0e0e0" stroke="#999999" points="824.5,-140 746.5,-140 746.5,-121 824.5,-121 824.5,-140"/>
<text text-anchor="middle" x="785.5" y="-128" font-family="Helvetica,sans-Serif" font-size="10.00">gtest/gtest.h</text>
</a>
</g>
</g>
<!-- Node1&#45;&gt;Node61 -->
<g id="edge16_Node000001_Node000061" class="edge">
<title>Node1&#45;&gt;Node61</title>
<g id="a_edge16_Node000001_Node000061"><a xlink:title=" ">
<path fill="none" stroke="#63b8ff" d="M660.02,-175.99C687.92,-166.1 724.91,-152.98 751.5,-143.56"/>
<polygon fill="#63b8ff" stroke="#63b8ff" points="752.88,-146.78 761.13,-140.14 750.54,-140.18 752.88,-146.78"/>
</a>
</g>
</g>
<!-- Node62 -->
<g id="Node000062" class="node">
<title>Node62</title>
<g id="a_Node000062"><a xlink:title=" ">
<polygon fill="#e0e0e0" stroke="#999999" points="896.5,-140 842.5,-140 842.5,-121 896.5,-121 896.5,-140"/>
<text text-anchor="middle" x="869.5" y="-128" font-family="Helvetica,sans-Serif" font-size="10.00">random</text>
</a>
</g>
</g>
<!-- Node1&#45;&gt;Node62 -->
<g id="edge17_Node000001_Node000062" class="edge">
<title>Node1&#45;&gt;Node62</title>
<g id="a_edge17_Node000001_Node000062"><a xlink:title=" ">
<path fill="none" stroke="#63b8ff" d="M673.02,-177.69C713.87,-168.11 772.23,-154.42 832.32,-140.27"/>
<polygon fill="#63b8ff" stroke="#63b8ff" points="833.44,-143.61 842.37,-137.91 831.84,-136.79 833.44,-143.61"/>
</a>
</g>
</g>
<!-- Node63 -->
<g id="Node000063" class="node">
<title>Node63</title>
<g id="a_Node000063"><a xlink:title=" ">
<polygon fill="#e0e0e0" stroke="#999999" points="1008,-140 915,-140 915,-121 1008,-121 1008,-140"/>
<text text-anchor="middle" x="961.5" y="-128" font-family="Helvetica,sans-Serif" font-size="10.00">source_location</text>
</a>
</g>
</g>
<!-- Node1&#45;&gt;Node63 -->
<g id="edge18_Node000001_Node000063" class="edge">
<title>Node1&#45;&gt;Node63</title>
<g id="a_edge18_Node000001_Node000063"><a xlink:title=" ">
<path fill="none" stroke="#63b8ff" d="M673.03,-180.99C735.81,-170.22 840.44,-152.27 904.94,-141.2"/>
<polygon fill="#63b8ff" stroke="#63b8ff" points="905.67,-144.63 914.94,-139.49 904.49,-137.73 905.67,-144.63"/>
</a>
</g>
</g>
<!-- Node3 -->
<g id="Node000003" class="node">
<title>Node3</title>
<g id="a_Node000003"><a xlink:href="status_8hpp.html" target="_top" xlink:title=" ">
<polygon fill="#fff0f0" stroke="red" points="77,-19 0,-19 0,0 77,0 77,-19"/>
<text text-anchor="middle" x="38.5" y="-7" font-family="Helvetica,sans-Serif" font-size="10.00">../status.hpp</text>
</a>
</g>
</g>
<!-- Node2&#45;&gt;Node3 -->
<g id="edge2_Node000002_Node000003" class="edge">
<title>Node2&#45;&gt;Node3</title>
<g id="a_edge2_Node000002_Node000003"><a xlink:title=" ">
<path fill="none" stroke="#63b8ff" d="M58.72,-121C48.11,-113.1 33.78,-100.27 27.5,-85 19.99,-66.72 25.18,-44.06 30.69,-28.56"/>
<polygon fill="#63b8ff" stroke="#63b8ff" points="34,-29.71 34.41,-19.12 27.49,-27.14 34,-29.71"/>
</a>
</g>
</g>
<!-- Node6 -->
<g id="Node000006" class="node">
<title>Node6</title>
<g id="a_Node000006"><a xlink:href="interfaces_8hpp.html" target="_top" xlink:title=" ">
<polygon fill="#fff0f0" stroke="red" points="122.5,-79.5 36.5,-79.5 36.5,-60.5 122.5,-60.5 122.5,-79.5"/>
<text text-anchor="middle" x="79.5" y="-67.5" font-family="Helvetica,sans-Serif" font-size="10.00">interfaces.hpp</text>
</a>
</g>
</g>
<!-- Node2&#45;&gt;Node6 -->
<g id="edge3_Node000002_Node000006" class="edge">
<title>Node2&#45;&gt;Node6</title>
<g id="a_edge3_Node000002_Node000006"><a xlink:title=" ">
<path fill="none" stroke="#63b8ff" d="M72.68,-120.87C73.79,-112.75 75.49,-100.31 76.92,-89.89"/>
<polygon fill="#63b8ff" stroke="#63b8ff" points="80.43,-90.05 78.31,-79.67 73.49,-89.1 80.43,-90.05"/>
</a>
</g>
</g>
<!-- Node6&#45;&gt;Node3 -->
<g id="edge4_Node000006_Node000003" class="edge">
<title>Node6&#45;&gt;Node3</title>
<g id="a_edge4_Node000006_Node000003"><a xlink:title=" ">
<path fill="none" stroke="#63b8ff" d="M73.45,-60.37C67.39,-51.73 57.91,-38.2 50.36,-27.42"/>
<polygon fill="#63b8ff" stroke="#63b8ff" points="53.18,-25.35 44.57,-19.17 47.45,-29.37 53.18,-25.35"/>
</a>
</g>
</g>
<!-- Node6&#45;&gt;Node9 -->
<g id="edge5_Node000006_Node000009" class="edge">
<title>Node6&#45;&gt;Node9</title>
<g id="a_edge5_Node000006_Node000009"><a xlink:title=" ">
<path fill="none" stroke="#63b8ff" d="M87.76,-60.37C96.28,-51.47 109.76,-37.39 120.23,-26.45"/>
<polygon fill="#63b8ff" stroke="#63b8ff" points="122.82,-28.81 127.2,-19.17 117.76,-23.97 122.82,-28.81"/>
</a>
</g>
</g>
<!-- Node19 -->
<g id="Node000019" class="node">
<title>Node19</title>
<g id="a_Node000019"><a xlink:href="cfg_2dispatcher_8hpp.html" target="_top" xlink:title=" ">
<polygon fill="#fff0f0" stroke="red" points="294,-79.5 179,-79.5 179,-60.5 294,-60.5 294,-79.5"/>
<text text-anchor="middle" x="236.5" y="-67.5" font-family="Helvetica,sans-Serif" font-size="10.00">../cfg/dispatcher.hpp</text>
</a>
</g>
</g>
<!-- Node18&#45;&gt;Node19 -->
<g id="edge7_Node000018_Node000019" class="edge">
<title>Node18&#45;&gt;Node19</title>
<g id="a_edge7_Node000018_Node000019"><a xlink:title=" ">
<path fill="none" stroke="#63b8ff" d="M341.61,-120.99C321.12,-111.25 287.31,-95.16 263.58,-83.88"/>
<polygon fill="#63b8ff" stroke="#63b8ff" points="264.94,-80.65 254.41,-79.52 261.93,-86.97 264.94,-80.65"/>
</a>
</g>
</g>
<!-- Node21 -->
<g id="Node000021" class="node">
<title>Node21</title>
<g id="a_Node000021"><a xlink:href="control_8hpp.html" target="_top" xlink:title=" ">
<polygon fill="#fff0f0" stroke="red" points="407,-79.5 312,-79.5 312,-60.5 407,-60.5 407,-79.5"/>
<text text-anchor="middle" x="359.5" y="-67.5" font-family="Helvetica,sans-Serif" font-size="10.00">../ctl/control.hpp</text>
</a>
</g>
</g>
<!-- Node18&#45;&gt;Node21 -->
<g id="edge8_Node000018_Node000021" class="edge">
<title>Node18&#45;&gt;Node21</title>
<g id="a_edge8_Node000018_Node000021"><a xlink:title=" ">
<path fill="none" stroke="#63b8ff" d="M359.5,-120.87C359.5,-112.75 359.5,-100.31 359.5,-89.89"/>
<polygon fill="#63b8ff" stroke="#63b8ff" points="363,-89.67 359.5,-79.67 356,-89.67 363,-89.67"/>
</a>
</g>
</g>
<!-- Node47 -->
<g id="Node000047" class="node">
<title>Node47</title>
<g id="a_Node000047"><a xlink:href="iface_2def_8hpp.html" target="_top" xlink:title=" ">
<polygon fill="#fff0f0" stroke="red" points="514,-79.5 425,-79.5 425,-60.5 514,-60.5 514,-79.5"/>
<text text-anchor="middle" x="469.5" y="-67.5" font-family="Helvetica,sans-Serif" font-size="10.00">../iface/def.hpp</text>
</a>
</g>
</g>
<!-- Node18&#45;&gt;Node47 -->
<g id="edge9_Node000018_Node000047" class="edge">
<title>Node18&#45;&gt;Node47</title>
<g id="a_edge9_Node000018_Node000047"><a xlink:title=" ">
<path fill="none" stroke="#63b8ff" d="M375.73,-120.87C393.77,-111.28 423.12,-95.67 444.18,-84.47"/>
<polygon fill="#63b8ff" stroke="#63b8ff" points="446.02,-87.45 453.2,-79.67 442.73,-81.27 446.02,-87.45"/>
</a>
</g>
</g>
<!-- Node46 -->
<g id="Node000046" class="node">
<title>Node46</title>
<g id="a_Node000046"><a xlink:title=" ">
<polygon fill="#e0e0e0" stroke="#999999" points="665,-85 532,-85 532,-55 665,-55 665,-85"/>
<text text-anchor="start" x="540" y="-73" font-family="Helvetica,sans-Serif" font-size="10.00">emlabcpp/experimental</text>
<text text-anchor="middle" x="598.5" y="-62" font-family="Helvetica,sans-Serif" font-size="10.00">/function_view.h</text>
</a>
</g>
</g>
<!-- Node18&#45;&gt;Node46 -->
<g id="edge10_Node000018_Node000046" class="edge">
<title>Node18&#45;&gt;Node46</title>
<g id="a_edge10_Node000018_Node000046"><a xlink:title=" ">
<path fill="none" stroke="#63b8ff" d="M394.25,-120.99C430,-112.24 486.59,-98.39 531.15,-87.48"/>
<polygon fill="#63b8ff" stroke="#63b8ff" points="532.16,-90.84 541.04,-85.06 530.5,-84.04 532.16,-90.84"/>
</a>
</g>
</g>
<!-- Node58 -->
<g id="Node000058" class="node">
<title>Node58</title>
<g id="a_Node000058"><a xlink:title=" ">
<polygon fill="#e0e0e0" stroke="#999999" points="802,-79.5 683,-79.5 683,-60.5 802,-60.5 802,-79.5"/>
<text text-anchor="middle" x="742.5" y="-67.5" font-family="Helvetica,sans-Serif" font-size="10.00">emlabcpp/outcome.h</text>
</a>
</g>
</g>
<!-- Node18&#45;&gt;Node58 -->
<g id="edge11_Node000018_Node000058" class="edge">
<title>Node18&#45;&gt;Node58</title>
<g id="a_edge11_Node000018_Node000058"><a xlink:title=" ">
<path fill="none" stroke="#63b8ff" d="M408.23,-122.34C411.37,-121.88 414.48,-121.43 417.5,-121 531.67,-104.64 560.85,-104.64 674.5,-85 680.43,-83.97 686.64,-82.82 692.79,-81.62"/>
<polygon fill="#63b8ff" stroke="#63b8ff" points="693.91,-84.96 703.03,-79.57 692.54,-78.1 693.91,-84.96"/>
</a>
</g>
</g>
</g>
</svg>
