<?xml version="1.0" encoding="UTF-8" standalone="no"?>
<!DOCTYPE svg PUBLIC "-//W3C//DTD SVG 1.1//EN"
 "http://www.w3.org/Graphics/SVG/1.1/DTD/svg11.dtd">
<!-- Generated by graphviz version 2.43.0 (0)
 -->
<!-- Title: src/fw/dispatcher.cpp Pages: 1 -->
<svg width="941pt" height="151pt"
 viewBox="0.00 0.00 941.00 151.00" xmlns="http://www.w3.org/2000/svg" xmlns:xlink="http://www.w3.org/1999/xlink">
<g id="graph0" class="graph" transform="scale(1 1) rotate(0) translate(4 147)">
<title>src/fw/dispatcher.cpp</title>
<polygon fill="white" stroke="transparent" points="-4,4 -4,-147 937,-147 937,4 -4,4"/>
<!-- Node1 -->
<g id="node1" class="node">
<title>Node1</title>
<g id="a_node1"><a xlink:title=" ">
<polygon fill="#bfbfbf" stroke="black" points="512,-123.5 512,-142.5 631,-142.5 631,-123.5 512,-123.5"/>
<text text-anchor="middle" x="571.5" y="-130.5" font-family="Helvetica,sans-Serif" font-size="10.00">src/fw/dispatcher.cpp</text>
</a>
</g>
</g>
<!-- Node2 -->
<g id="node2" class="node">
<title>Node2</title>
<g id="a_node2"><a xlink:href="dispatcher_8hpp.html" target="_top" xlink:title=" ">
<polygon fill="white" stroke="black" points="318.5,-67.5 318.5,-86.5 420.5,-86.5 420.5,-67.5 318.5,-67.5"/>
<text text-anchor="middle" x="369.5" y="-74.5" font-family="Helvetica,sans-Serif" font-size="10.00">fw/dispatcher.hpp</text>
</a>
</g>
</g>
<!-- Node1&#45;&gt;Node2 -->
<g id="edge1" class="edge">
<title>Node1&#45;&gt;Node2</title>
<path fill="none" stroke="midnightblue" d="M539.49,-123.44C504.77,-114.16 449.21,-99.31 411.12,-89.13"/>
<polygon fill="midnightblue" stroke="midnightblue" points="411.92,-85.72 401.36,-86.52 410.11,-92.48 411.92,-85.72"/>
</g>
<!-- Node45 -->
<g id="node8" class="node">
<title>Node45</title>
<g id="a_node8"><a xlink:href="utils_8hpp.html" target="_top" xlink:title=" ">
<polygon fill="white" stroke="black" points="739,-67.5 739,-86.5 818,-86.5 818,-67.5 739,-67.5"/>
<text text-anchor="middle" x="778.5" y="-74.5" font-family="Helvetica,sans-Serif" font-size="10.00">cnv/utils.hpp</text>
</a>
</g>
</g>
<!-- Node1&#45;&gt;Node45 -->
<g id="edge7" class="edge">
<title>Node1&#45;&gt;Node45</title>
<path fill="none" stroke="midnightblue" d="M604.3,-123.44C639.88,-114.16 696.81,-99.31 735.85,-89.13"/>
<polygon fill="midnightblue" stroke="midnightblue" points="737.06,-92.43 745.85,-86.52 735.29,-85.65 737.06,-92.43"/>
</g>
<!-- Node46 -->
<g id="node11" class="node">
<title>Node46</title>
<g id="a_node11"><a xlink:href="map__cfg_8hpp.html" target="_top" xlink:title=" ">
<polygon fill="white" stroke="black" points="467.5,-67.5 467.5,-86.5 561.5,-86.5 561.5,-67.5 467.5,-67.5"/>
<text text-anchor="middle" x="514.5" y="-74.5" font-family="Helvetica,sans-Serif" font-size="10.00">fw/map_cfg.hpp</text>
</a>
</g>
</g>
<!-- Node1&#45;&gt;Node46 -->
<g id="edge10" class="edge">
<title>Node1&#45;&gt;Node46</title>
<path fill="none" stroke="midnightblue" d="M562.34,-123.32C554,-115.42 541.47,-103.55 531.32,-93.94"/>
<polygon fill="midnightblue" stroke="midnightblue" points="533.49,-91.17 523.82,-86.83 528.68,-96.25 533.49,-91.17"/>
</g>
<!-- Node48 -->
<g id="node13" class="node">
<title>Node48</title>
<g id="a_node13"><a xlink:href="servio__pb_8hpp.html" target="_top" xlink:title=" ">
<polygon fill="white" stroke="black" points="580,-67.5 580,-86.5 679,-86.5 679,-67.5 580,-67.5"/>
<text text-anchor="middle" x="629.5" y="-74.5" font-family="Helvetica,sans-Serif" font-size="10.00">fw/servio_pb.hpp</text>
</a>
</g>
</g>
<!-- Node1&#45;&gt;Node48 -->
<g id="edge13" class="edge">
<title>Node1&#45;&gt;Node48</title>
<path fill="none" stroke="midnightblue" d="M580.82,-123.32C589.39,-115.34 602.31,-103.31 612.69,-93.65"/>
<polygon fill="midnightblue" stroke="midnightblue" points="615.08,-96.21 620.01,-86.83 610.31,-91.09 615.08,-96.21"/>
</g>
<!-- Node3 -->
<g id="node3" class="node">
<title>Node3</title>
<g id="a_node3"><a xlink:href="cfg__dispatcher_8hpp.html" target="_top" xlink:title=" ">
<polygon fill="white" stroke="red" points="151.5,-6 151.5,-25 259.5,-25 259.5,-6 151.5,-6"/>
<text text-anchor="middle" x="205.5" y="-13" font-family="Helvetica,sans-Serif" font-size="10.00">cfg_dispatcher.hpp</text>
</a>
</g>
</g>
<!-- Node2&#45;&gt;Node3 -->
<g id="edge2" class="edge">
<title>Node2&#45;&gt;Node3</title>
<path fill="none" stroke="midnightblue" d="M346,-67.48C317.87,-57.27 270.57,-40.11 238.71,-28.55"/>
<polygon fill="midnightblue" stroke="midnightblue" points="239.55,-25.13 228.95,-25.01 237.16,-31.71 239.55,-25.13"/>
</g>
<!-- Node15 -->
<g id="node4" class="node">
<title>Node15</title>
<g id="a_node4"><a xlink:href="control_8hpp.html" target="_top" xlink:title=" ">
<polygon fill="white" stroke="red" points="278,-6 278,-25 349,-25 349,-6 278,-6"/>
<text text-anchor="middle" x="313.5" y="-13" font-family="Helvetica,sans-Serif" font-size="10.00">control.hpp</text>
</a>
</g>
</g>
<!-- Node2&#45;&gt;Node15 -->
<g id="edge3" class="edge">
<title>Node2&#45;&gt;Node15</title>
<path fill="none" stroke="midnightblue" d="M361.48,-67.48C352.91,-58.37 339.14,-43.74 328.54,-32.48"/>
<polygon fill="midnightblue" stroke="midnightblue" points="330.91,-29.89 321.51,-25.01 325.81,-34.69 330.91,-29.89"/>
</g>
<!-- Node41 -->
<g id="node5" class="node">
<title>Node41</title>
<g id="a_node5"><a xlink:href="util_8hpp.html" target="_top" xlink:title=" ">
<polygon fill="white" stroke="red" points="367.5,-6 367.5,-25 435.5,-25 435.5,-6 367.5,-6"/>
<text text-anchor="middle" x="401.5" y="-13" font-family="Helvetica,sans-Serif" font-size="10.00">fw/util.hpp</text>
</a>
</g>
</g>
<!-- Node2&#45;&gt;Node41 -->
<g id="edge4" class="edge">
<title>Node2&#45;&gt;Node41</title>
<path fill="none" stroke="midnightblue" d="M374.08,-67.48C378.74,-58.82 386.09,-45.15 392.01,-34.15"/>
<polygon fill="midnightblue" stroke="midnightblue" points="395.27,-35.47 396.92,-25.01 389.1,-32.16 395.27,-35.47"/>
</g>
<!-- Node43 -->
<g id="node6" class="node">
<title>Node43</title>
<g id="a_node6"><a xlink:title=" ">
<polygon fill="white" stroke="#bfbfbf" points="0,-0.5 0,-30.5 133,-30.5 133,-0.5 0,-0.5"/>
<text text-anchor="start" x="8" y="-18.5" font-family="Helvetica,sans-Serif" font-size="10.00">emlabcpp/experimental</text>
<text text-anchor="middle" x="66.5" y="-7.5" font-family="Helvetica,sans-Serif" font-size="10.00">/function_view.h</text>
</a>
</g>
</g>
<!-- Node2&#45;&gt;Node43 -->
<g id="edge5" class="edge">
<title>Node2&#45;&gt;Node43</title>
<path fill="none" stroke="midnightblue" d="M326.09,-67.48C278.37,-58.1 200.79,-42.87 142.85,-31.49"/>
<polygon fill="midnightblue" stroke="midnightblue" points="143.49,-28.05 133,-29.56 142.14,-34.92 143.49,-28.05"/>
</g>
<!-- Node44 -->
<g id="node7" class="node">
<title>Node44</title>
<g id="a_node7"><a xlink:title=" ">
<polygon fill="white" stroke="#bfbfbf" points="539.5,-6 539.5,-25 589.5,-25 589.5,-6 539.5,-6"/>
<text text-anchor="middle" x="564.5" y="-13" font-family="Helvetica,sans-Serif" font-size="10.00">io.pb.h</text>
</a>
</g>
</g>
<!-- Node2&#45;&gt;Node44 -->
<g id="edge6" class="edge">
<title>Node2&#45;&gt;Node44</title>
<path fill="none" stroke="midnightblue" d="M404.51,-67.43C437.18,-59.13 487.1,-45.69 529.5,-31 531.41,-30.34 533.37,-29.63 535.33,-28.89"/>
<polygon fill="midnightblue" stroke="midnightblue" points="537.03,-31.98 545.04,-25.04 534.45,-25.47 537.03,-31.98"/>
</g>
<!-- Node32 -->
<g id="node9" class="node">
<title>Node32</title>
<g id="a_node9"><a xlink:href="converter_8hpp.html" target="_top" xlink:title=" ">
<polygon fill="white" stroke="red" points="850,-6 850,-25 933,-25 933,-6 850,-6"/>
<text text-anchor="middle" x="891.5" y="-13" font-family="Helvetica,sans-Serif" font-size="10.00">converter.hpp</text>
</a>
</g>
</g>
<!-- Node45&#45;&gt;Node32 -->
<g id="edge8" class="edge">
<title>Node45&#45;&gt;Node32</title>
<path fill="none" stroke="midnightblue" d="M794.69,-67.48C813.4,-57.62 844.42,-41.29 866.3,-29.77"/>
<polygon fill="midnightblue" stroke="midnightblue" points="868.12,-32.77 875.34,-25.01 864.86,-26.57 868.12,-32.77"/>
</g>
<!-- Node37 -->
<g id="node10" class="node">
<title>Node37</title>
<g id="a_node10"><a xlink:href="drv__interfaces_8hpp.html" target="_top" xlink:title=" ">
<polygon fill="white" stroke="red" points="725,-6 725,-25 832,-25 832,-6 725,-6"/>
<text text-anchor="middle" x="778.5" y="-13" font-family="Helvetica,sans-Serif" font-size="10.00">drv_interfaces.hpp</text>
</a>
</g>
</g>
<!-- Node45&#45;&gt;Node37 -->
<g id="edge9" class="edge">
<title>Node45&#45;&gt;Node37</title>
<path fill="none" stroke="midnightblue" d="M778.5,-67.48C778.5,-59.08 778.5,-45.98 778.5,-35.16"/>
<polygon fill="midnightblue" stroke="midnightblue" points="782,-35.01 778.5,-25.01 775,-35.01 782,-35.01"/>
</g>
<!-- Node46&#45;&gt;Node44 -->
<g id="edge12" class="edge">
<title>Node46&#45;&gt;Node44</title>
<path fill="none" stroke="midnightblue" d="M521.66,-67.48C529.24,-58.46 541.37,-44.02 550.79,-32.81"/>
<polygon fill="midnightblue" stroke="midnightblue" points="553.6,-34.92 557.35,-25.01 548.24,-30.41 553.6,-34.92"/>
</g>
<!-- Node47 -->
<g id="node12" class="node">
<title>Node47</title>
<g id="a_node12"><a xlink:title=" ">
<polygon fill="white" stroke="#bfbfbf" points="454,-6 454,-25 521,-25 521,-6 454,-6"/>
<text text-anchor="middle" x="487.5" y="-13" font-family="Helvetica,sans-Serif" font-size="10.00">config.hpp</text>
</a>
</g>
</g>
<!-- Node46&#45;&gt;Node47 -->
<g id="edge11" class="edge">
<title>Node46&#45;&gt;Node47</title>
<path fill="none" stroke="midnightblue" d="M510.63,-67.48C506.7,-58.82 500.5,-45.15 495.51,-34.15"/>
<polygon fill="midnightblue" stroke="midnightblue" points="498.68,-32.67 491.36,-25.01 492.31,-35.56 498.68,-32.67"/>
</g>
<!-- Node48&#45;&gt;Node44 -->
<g id="edge15" class="edge">
<title>Node48&#45;&gt;Node44</title>
<path fill="none" stroke="midnightblue" d="M620.19,-67.48C610.05,-58.2 593.64,-43.17 581.25,-31.83"/>
<polygon fill="midnightblue" stroke="midnightblue" points="583.54,-29.18 573.8,-25.01 578.81,-34.34 583.54,-29.18"/>
</g>
<!-- Node49 -->
<g id="node14" class="node">
<title>Node49</title>
<g id="a_node14"><a xlink:title=" ">
<polygon fill="white" stroke="#bfbfbf" points="608,-6 608,-25 707,-25 707,-6 608,-6"/>
<text text-anchor="middle" x="657.5" y="-13" font-family="Helvetica,sans-Serif" font-size="10.00">emlabcpp/view.h</text>
</a>
</g>
</g>
<!-- Node48&#45;&gt;Node49 -->
<g id="edge14" class="edge">
<title>Node48&#45;&gt;Node49</title>
<path fill="none" stroke="midnightblue" d="M633.51,-67.48C637.59,-58.82 644.02,-45.15 649.2,-34.15"/>
<polygon fill="midnightblue" stroke="midnightblue" points="652.4,-35.55 653.5,-25.01 646.07,-32.57 652.4,-35.55"/>
</g>
</g>
</svg>
