<?xml version="1.0" encoding="UTF-8" standalone="no"?>
<!DOCTYPE svg PUBLIC "-//W3C//DTD SVG 1.1//EN"
 "http://www.w3.org/Graphics/SVG/1.1/DTD/svg11.dtd">
<!-- Generated by graphviz version 2.43.0 (0)
 -->
<!-- Title: src/fw/dispatcher.hpp Pages: 1 -->
<svg width="1476pt" height="375pt"
 viewBox="0.00 0.00 1475.64 375.00" xmlns="http://www.w3.org/2000/svg" xmlns:xlink="http://www.w3.org/1999/xlink">
<g id="graph0" class="graph" transform="scale(1 1) rotate(0) translate(4 371)">
<title>src/fw/dispatcher.hpp</title>
<polygon fill="white" stroke="transparent" points="-4,4 -4,-371 1471.64,-371 1471.64,4 -4,4"/>
<!-- Node1 -->
<g id="node1" class="node">
<title>Node1</title>
<g id="a_node1"><a xlink:title=" ">
<polygon fill="#bfbfbf" stroke="black" points="446.14,-347.5 446.14,-366.5 565.14,-366.5 565.14,-347.5 446.14,-347.5"/>
<text text-anchor="middle" x="505.64" y="-354.5" font-family="Helvetica,sans-Serif" font-size="10.00">src/fw/dispatcher.hpp</text>
</a>
</g>
</g>
<!-- Node2 -->
<g id="node2" class="node">
<title>Node2</title>
<g id="a_node2"><a xlink:href="control_8hpp.html" target="_top" xlink:title=" ">
<polygon fill="white" stroke="black" points="93.14,-179.5 93.14,-198.5 164.14,-198.5 164.14,-179.5 93.14,-179.5"/>
<text text-anchor="middle" x="128.64" y="-186.5" font-family="Helvetica,sans-Serif" font-size="10.00">control.hpp</text>
</a>
</g>
</g>
<!-- Node1&#45;&gt;Node2 -->
<g id="edge1" class="edge">
<title>Node1&#45;&gt;Node2</title>
<path fill="none" stroke="midnightblue" d="M486.17,-347.42C424.24,-320.16 231.63,-235.35 157.83,-202.85"/>
<polygon fill="midnightblue" stroke="midnightblue" points="158.79,-199.45 148.23,-198.62 155.97,-205.86 158.79,-199.45"/>
</g>
<!-- Node14 -->
<g id="node7" class="node">
<title>Node14</title>
<g id="a_node7"><a xlink:href="acquisition_8hpp.html" target="_top" xlink:title=" ">
<polygon fill="white" stroke="black" points="682.64,-179.5 682.64,-198.5 810.64,-198.5 810.64,-179.5 682.64,-179.5"/>
<text text-anchor="middle" x="746.64" y="-186.5" font-family="Helvetica,sans-Serif" font-size="10.00">drivers/acquisition.hpp</text>
</a>
</g>
</g>
<!-- Node1&#45;&gt;Node14 -->
<g id="edge8" class="edge">
<title>Node1&#45;&gt;Node14</title>
<path fill="none" stroke="midnightblue" d="M511.59,-347.36C527.06,-325.5 570.85,-267.41 620.64,-235 644.43,-219.52 674.2,-208.57 698.84,-201.35"/>
<polygon fill="midnightblue" stroke="midnightblue" points="700.02,-204.65 708.7,-198.57 698.13,-197.91 700.02,-204.65"/>
</g>
<!-- Node24 -->
<g id="node17" class="node">
<title>Node24</title>
<g id="a_node17"><a xlink:href="comms_8hpp.html" target="_top" xlink:title=" ">
<polygon fill="white" stroke="black" points="423.64,-179.5 423.64,-198.5 533.64,-198.5 533.64,-179.5 423.64,-179.5"/>
<text text-anchor="middle" x="478.64" y="-186.5" font-family="Helvetica,sans-Serif" font-size="10.00">drivers/comms.hpp</text>
</a>
</g>
</g>
<!-- Node1&#45;&gt;Node24 -->
<g id="edge18" class="edge">
<title>Node1&#45;&gt;Node24</title>
<path fill="none" stroke="midnightblue" d="M504.19,-347.08C499.94,-320.95 487.46,-244.21 481.66,-208.58"/>
<polygon fill="midnightblue" stroke="midnightblue" points="485.09,-207.88 480.03,-198.57 478.19,-209 485.09,-207.88"/>
</g>
<!-- Node32 -->
<g id="node19" class="node">
<title>Node32</title>
<g id="a_node19"><a xlink:href="cfg__dispatcher_8hpp.html" target="_top" xlink:title=" ">
<polygon fill="white" stroke="black" points="626.64,-291.5 626.64,-310.5 748.64,-310.5 748.64,-291.5 626.64,-291.5"/>
<text text-anchor="middle" x="687.64" y="-298.5" font-family="Helvetica,sans-Serif" font-size="10.00">fw/cfg_dispatcher.hpp</text>
</a>
</g>
</g>
<!-- Node1&#45;&gt;Node32 -->
<g id="edge24" class="edge">
<title>Node1&#45;&gt;Node32</title>
<path fill="none" stroke="midnightblue" d="M534.48,-347.44C565.5,-338.24 614.97,-323.56 649.26,-313.39"/>
<polygon fill="midnightblue" stroke="midnightblue" points="650.35,-316.72 658.94,-310.52 648.36,-310.01 650.35,-316.72"/>
</g>
<!-- Node3 -->
<g id="node3" class="node">
<title>Node3</title>
<g id="a_node3"><a xlink:href="base_8hpp.html" target="_top" xlink:title=" ">
<polygon fill="white" stroke="red" points="43.14,-0.5 43.14,-19.5 104.14,-19.5 104.14,-0.5 43.14,-0.5"/>
<text text-anchor="middle" x="73.64" y="-7.5" font-family="Helvetica,sans-Serif" font-size="10.00">base.hpp</text>
</a>
</g>
</g>
<!-- Node2&#45;&gt;Node3 -->
<g id="edge2" class="edge">
<title>Node2&#45;&gt;Node3</title>
<path fill="none" stroke="midnightblue" d="M93.07,-180.41C71.24,-173.97 44.35,-162.56 27.64,-143 1.99,-112.98 -8.56,-91.04 9.64,-56 16.79,-42.23 30.31,-31.78 43.09,-24.44"/>
<polygon fill="midnightblue" stroke="midnightblue" points="44.96,-27.41 52.16,-19.64 41.68,-21.23 44.96,-27.41"/>
</g>
<!-- Node10 -->
<g id="node4" class="node">
<title>Node10</title>
<g id="a_node4"><a xlink:href="ctl_2config_8hpp.html" target="_top" xlink:title=" ">
<polygon fill="white" stroke="black" points="44.64,-118 44.64,-137 126.64,-137 126.64,-118 44.64,-118"/>
<text text-anchor="middle" x="85.64" y="-125" font-family="Helvetica,sans-Serif" font-size="10.00">ctl/config.hpp</text>
</a>
</g>
</g>
<!-- Node2&#45;&gt;Node10 -->
<g id="edge3" class="edge">
<title>Node2&#45;&gt;Node10</title>
<path fill="none" stroke="midnightblue" d="M122.48,-179.48C116.03,-170.55 105.74,-156.31 97.67,-145.14"/>
<polygon fill="midnightblue" stroke="midnightblue" points="100.48,-143.06 91.79,-137.01 94.81,-147.16 100.48,-143.06"/>
</g>
<!-- Node11 -->
<g id="node5" class="node">
<title>Node11</title>
<g id="a_node5"><a xlink:href="pid__module_8hpp.html" target="_top" xlink:title=" ">
<polygon fill="white" stroke="red" points="18.64,-56.5 18.64,-75.5 128.64,-75.5 128.64,-56.5 18.64,-56.5"/>
<text text-anchor="middle" x="73.64" y="-63.5" font-family="Helvetica,sans-Serif" font-size="10.00">ctl/pid_module.hpp</text>
</a>
</g>
</g>
<!-- Node2&#45;&gt;Node11 -->
<g id="edge6" class="edge">
<title>Node2&#45;&gt;Node11</title>
<path fill="none" stroke="midnightblue" d="M92.7,-180.53C72.18,-174.22 48.12,-162.91 35.64,-143 23.23,-123.2 40.72,-98.81 55.87,-83.09"/>
<polygon fill="midnightblue" stroke="midnightblue" points="58.7,-85.22 63.4,-75.73 53.8,-80.21 58.7,-85.22"/>
</g>
<!-- Node13 -->
<g id="node6" class="node">
<title>Node13</title>
<g id="a_node6"><a xlink:title=" ">
<polygon fill="white" stroke="#bfbfbf" points="145.14,-118 145.14,-137 196.14,-137 196.14,-118 145.14,-118"/>
<text text-anchor="middle" x="170.64" y="-125" font-family="Helvetica,sans-Serif" font-size="10.00">variant</text>
</a>
</g>
</g>
<!-- Node2&#45;&gt;Node13 -->
<g id="edge7" class="edge">
<title>Node2&#45;&gt;Node13</title>
<path fill="none" stroke="midnightblue" d="M134.66,-179.48C140.9,-170.64 150.81,-156.59 158.66,-145.48"/>
<polygon fill="midnightblue" stroke="midnightblue" points="161.73,-147.2 164.63,-137.01 156.01,-143.16 161.73,-147.2"/>
</g>
<!-- Node10&#45;&gt;Node11 -->
<g id="edge4" class="edge">
<title>Node10&#45;&gt;Node11</title>
<path fill="none" stroke="midnightblue" d="M83.92,-117.98C82.21,-109.49 79.53,-96.2 77.34,-85.32"/>
<polygon fill="midnightblue" stroke="midnightblue" points="80.77,-84.62 75.36,-75.51 73.9,-86 80.77,-84.62"/>
</g>
<!-- Node11&#45;&gt;Node3 -->
<g id="edge5" class="edge">
<title>Node11&#45;&gt;Node3</title>
<path fill="none" stroke="midnightblue" d="M73.64,-56.08C73.64,-49.01 73.64,-38.86 73.64,-29.99"/>
<polygon fill="midnightblue" stroke="midnightblue" points="77.14,-29.75 73.64,-19.75 70.14,-29.75 77.14,-29.75"/>
</g>
<!-- Node15 -->
<g id="node8" class="node">
<title>Node15</title>
<g id="a_node8"><a xlink:href="current_8hpp.html" target="_top" xlink:title=" ">
<polygon fill="white" stroke="red" points="690.64,-118 690.64,-137 818.64,-137 818.64,-118 690.64,-118"/>
<text text-anchor="middle" x="754.64" y="-125" font-family="Helvetica,sans-Serif" font-size="10.00">conversion/current.hpp</text>
</a>
</g>
</g>
<!-- Node14&#45;&gt;Node15 -->
<g id="edge9" class="edge">
<title>Node14&#45;&gt;Node15</title>
<path fill="none" stroke="midnightblue" d="M747.79,-179.48C748.92,-171.08 750.68,-157.98 752.13,-147.16"/>
<polygon fill="midnightblue" stroke="midnightblue" points="755.63,-147.39 753.5,-137.01 748.7,-146.45 755.63,-147.39"/>
</g>
<!-- Node16 -->
<g id="node9" class="node">
<title>Node16</title>
<g id="a_node9"><a xlink:href="position_8hpp.html" target="_top" xlink:title=" ">
<polygon fill="white" stroke="red" points="837.14,-118 837.14,-137 970.14,-137 970.14,-118 837.14,-118"/>
<text text-anchor="middle" x="903.64" y="-125" font-family="Helvetica,sans-Serif" font-size="10.00">conversion/position.hpp</text>
</a>
</g>
</g>
<!-- Node14&#45;&gt;Node16 -->
<g id="edge10" class="edge">
<title>Node14&#45;&gt;Node16</title>
<path fill="none" stroke="midnightblue" d="M769.14,-179.48C795.95,-169.31 840.96,-152.26 871.45,-140.7"/>
<polygon fill="midnightblue" stroke="midnightblue" points="873.08,-143.83 881.19,-137.01 870.6,-137.28 873.08,-143.83"/>
</g>
<!-- Node17 -->
<g id="node10" class="node">
<title>Node17</title>
<g id="a_node10"><a xlink:href="temperature_8hpp.html" target="_top" xlink:title=" ">
<polygon fill="white" stroke="black" points="988.14,-118 988.14,-137 1143.14,-137 1143.14,-118 988.14,-118"/>
<text text-anchor="middle" x="1065.64" y="-125" font-family="Helvetica,sans-Serif" font-size="10.00">conversion/temperature.hpp</text>
</a>
</g>
</g>
<!-- Node14&#45;&gt;Node17 -->
<g id="edge11" class="edge">
<title>Node14&#45;&gt;Node17</title>
<path fill="none" stroke="midnightblue" d="M792.35,-179.48C849.79,-168.76 948.32,-150.38 1010.07,-138.87"/>
<polygon fill="midnightblue" stroke="midnightblue" points="1010.83,-142.28 1020.02,-137.01 1009.55,-135.4 1010.83,-142.28"/>
</g>
<!-- Node18 -->
<g id="node11" class="node">
<title>Node18</title>
<g id="a_node11"><a xlink:href="voltage_8hpp.html" target="_top" xlink:title=" ">
<polygon fill="white" stroke="black" points="1161.14,-118 1161.14,-137 1292.14,-137 1292.14,-118 1161.14,-118"/>
<text text-anchor="middle" x="1226.64" y="-125" font-family="Helvetica,sans-Serif" font-size="10.00">conversion/voltage.hpp</text>
</a>
</g>
</g>
<!-- Node14&#45;&gt;Node18 -->
<g id="edge12" class="edge">
<title>Node14&#45;&gt;Node18</title>
<path fill="none" stroke="midnightblue" d="M810.85,-182.55C891.06,-175.35 1032.42,-161.41 1152.64,-143 1160.38,-141.82 1168.53,-140.39 1176.49,-138.91"/>
<polygon fill="midnightblue" stroke="midnightblue" points="1177.26,-142.33 1186.42,-137.01 1175.94,-135.45 1177.26,-142.33"/>
</g>
<!-- Node19 -->
<g id="node12" class="node">
<title>Node19</title>
<g id="a_node12"><a xlink:title=" ">
<polygon fill="white" stroke="#bfbfbf" points="253.14,-112.5 253.14,-142.5 386.14,-142.5 386.14,-112.5 253.14,-112.5"/>
<text text-anchor="start" x="261.14" y="-130.5" font-family="Helvetica,sans-Serif" font-size="10.00">emlabcpp/experimental</text>
<text text-anchor="middle" x="319.64" y="-119.5" font-family="Helvetica,sans-Serif" font-size="10.00">/function_view.h</text>
</a>
</g>
</g>
<!-- Node14&#45;&gt;Node19 -->
<g id="edge13" class="edge">
<title>Node14&#45;&gt;Node19</title>
<path fill="none" stroke="midnightblue" d="M682.42,-180.96C614.05,-173.19 502.45,-159.75 396.26,-143.04"/>
<polygon fill="midnightblue" stroke="midnightblue" points="396.75,-139.57 386.33,-141.46 395.66,-146.48 396.75,-139.57"/>
</g>
<!-- Node20 -->
<g id="node13" class="node">
<title>Node20</title>
<g id="a_node13"><a xlink:title=" ">
<polygon fill="white" stroke="#bfbfbf" points="404.14,-118 404.14,-137 553.14,-137 553.14,-118 404.14,-118"/>
<text text-anchor="middle" x="478.64" y="-125" font-family="Helvetica,sans-Serif" font-size="10.00">emlabcpp/static_function.h</text>
</a>
</g>
</g>
<!-- Node14&#45;&gt;Node20 -->
<g id="edge14" class="edge">
<title>Node14&#45;&gt;Node20</title>
<path fill="none" stroke="midnightblue" d="M708.24,-179.48C660.48,-168.87 578.91,-150.76 526.95,-139.22"/>
<polygon fill="midnightblue" stroke="midnightblue" points="527.49,-135.76 516.97,-137.01 525.97,-142.59 527.49,-135.76"/>
</g>
<!-- Node21 -->
<g id="node14" class="node">
<title>Node21</title>
<g id="a_node14"><a xlink:title=" ">
<polygon fill="white" stroke="#bfbfbf" points="1310.14,-118 1310.14,-137 1409.14,-137 1409.14,-118 1310.14,-118"/>
<text text-anchor="middle" x="1359.64" y="-125" font-family="Helvetica,sans-Serif" font-size="10.00">emlabcpp/view.h</text>
</a>
</g>
</g>
<!-- Node14&#45;&gt;Node21 -->
<g id="edge15" class="edge">
<title>Node14&#45;&gt;Node21</title>
<path fill="none" stroke="midnightblue" d="M810.73,-186.22C914.49,-182.56 1125.41,-171.97 1301.64,-143 1307.48,-142.04 1313.6,-140.79 1319.57,-139.42"/>
<polygon fill="midnightblue" stroke="midnightblue" points="1320.53,-142.79 1329.43,-137.05 1318.89,-135.99 1320.53,-142.79"/>
</g>
<!-- Node22 -->
<g id="node15" class="node">
<title>Node22</title>
<g id="a_node15"><a xlink:title=" ">
<polygon fill="white" stroke="#bfbfbf" points="1427.64,-118 1427.64,-137 1467.64,-137 1467.64,-118 1427.64,-118"/>
<text text-anchor="middle" x="1447.64" y="-125" font-family="Helvetica,sans-Serif" font-size="10.00">span</text>
</a>
</g>
</g>
<!-- Node14&#45;&gt;Node22 -->
<g id="edge16" class="edge">
<title>Node14&#45;&gt;Node22</title>
<path fill="none" stroke="midnightblue" d="M810.66,-186.93C955.65,-183.98 1305.24,-173.81 1418.64,-143 1420.36,-142.53 1422.1,-141.96 1423.82,-141.32"/>
<polygon fill="midnightblue" stroke="midnightblue" points="1425.64,-144.34 1433.34,-137.06 1422.78,-137.95 1425.64,-144.34"/>
</g>
<!-- Node23 -->
<g id="node16" class="node">
<title>Node23</title>
<g id="a_node16"><a xlink:title=" ">
<polygon fill="white" stroke="#bfbfbf" points="571.14,-118 571.14,-137 672.14,-137 672.14,-118 571.14,-118"/>
<text text-anchor="middle" x="621.64" y="-125" font-family="Helvetica,sans-Serif" font-size="10.00">stm32g4xx_hal.h</text>
</a>
</g>
</g>
<!-- Node14&#45;&gt;Node23 -->
<g id="edge17" class="edge">
<title>Node14&#45;&gt;Node23</title>
<path fill="none" stroke="midnightblue" d="M728.73,-179.48C707.75,-169.49 672.79,-152.85 648.55,-141.31"/>
<polygon fill="midnightblue" stroke="midnightblue" points="650.05,-138.15 639.52,-137.01 647.04,-144.47 650.05,-138.15"/>
</g>
<!-- Node24&#45;&gt;Node19 -->
<g id="edge21" class="edge">
<title>Node24&#45;&gt;Node19</title>
<path fill="none" stroke="midnightblue" d="M455.86,-179.48C432.72,-170.81 396.19,-157.15 366.78,-146.14"/>
<polygon fill="midnightblue" stroke="midnightblue" points="367.71,-142.75 357.11,-142.52 365.25,-149.31 367.71,-142.75"/>
</g>
<!-- Node24&#45;&gt;Node20 -->
<g id="edge22" class="edge">
<title>Node24&#45;&gt;Node20</title>
<path fill="none" stroke="midnightblue" d="M478.64,-179.48C478.64,-171.08 478.64,-157.98 478.64,-147.16"/>
<polygon fill="midnightblue" stroke="midnightblue" points="482.14,-147.01 478.64,-137.01 475.14,-147.01 482.14,-147.01"/>
</g>
<!-- Node24&#45;&gt;Node23 -->
<g id="edge23" class="edge">
<title>Node24&#45;&gt;Node23</title>
<path fill="none" stroke="midnightblue" d="M499.13,-179.48C523.45,-169.36 564.19,-152.4 591.96,-140.85"/>
<polygon fill="midnightblue" stroke="midnightblue" points="593.3,-144.08 601.19,-137.01 590.61,-137.62 593.3,-144.08"/>
</g>
<!-- Node25 -->
<g id="node18" class="node">
<title>Node25</title>
<g id="a_node18"><a xlink:href="protocol_8hpp.html" target="_top" xlink:title=" ">
<polygon fill="white" stroke="red" points="166.14,-56.5 166.14,-75.5 243.14,-75.5 243.14,-56.5 166.14,-56.5"/>
<text text-anchor="middle" x="204.64" y="-63.5" font-family="Helvetica,sans-Serif" font-size="10.00">protocol.hpp</text>
</a>
</g>
</g>
<!-- Node24&#45;&gt;Node25 -->
<g id="edge19" class="edge">
<title>Node24&#45;&gt;Node25</title>
<path fill="none" stroke="midnightblue" d="M423.52,-183.03C363.22,-176.65 271.44,-163.83 243.64,-143 224.77,-128.86 214.3,-102.97 209.07,-85.38"/>
<polygon fill="midnightblue" stroke="midnightblue" points="212.44,-84.42 206.46,-75.67 205.68,-86.24 212.44,-84.42"/>
</g>
<!-- Node25&#45;&gt;Node3 -->
<g id="edge20" class="edge">
<title>Node25&#45;&gt;Node3</title>
<path fill="none" stroke="midnightblue" d="M183.88,-56.44C162.32,-47.56 128.38,-33.56 103.85,-23.45"/>
<polygon fill="midnightblue" stroke="midnightblue" points="104.88,-20.09 94.3,-19.52 102.21,-26.56 104.88,-20.09"/>
</g>
<!-- Node32&#45;&gt;Node14 -->
<g id="edge29" class="edge">
<title>Node32&#45;&gt;Node14</title>
<path fill="none" stroke="midnightblue" d="M692.27,-291.37C701.92,-273.38 724.36,-231.55 737.19,-207.63"/>
<polygon fill="midnightblue" stroke="midnightblue" points="740.39,-209.06 742.03,-198.59 734.22,-205.75 740.39,-209.06"/>
</g>
<!-- Node33 -->
<g id="node20" class="node">
<title>Node33</title>
<g id="a_node20"><a xlink:title=" ">
<polygon fill="white" stroke="#bfbfbf" points="759.14,-235.5 759.14,-254.5 826.14,-254.5 826.14,-235.5 759.14,-235.5"/>
<text text-anchor="middle" x="792.64" y="-242.5" font-family="Helvetica,sans-Serif" font-size="10.00">config.hpp</text>
</a>
</g>
</g>
<!-- Node32&#45;&gt;Node33 -->
<g id="edge25" class="edge">
<title>Node32&#45;&gt;Node33</title>
<path fill="none" stroke="midnightblue" d="M704.51,-291.32C721.35,-282.66 747.45,-269.24 766.88,-259.25"/>
<polygon fill="midnightblue" stroke="midnightblue" points="768.52,-262.34 775.81,-254.65 765.32,-256.12 768.52,-262.34"/>
</g>
<!-- Node34 -->
<g id="node21" class="node">
<title>Node34</title>
<g id="a_node21"><a xlink:href="core_8hpp.html" target="_top" xlink:title=" ">
<polygon fill="white" stroke="red" points="629.14,-235.5 629.14,-254.5 702.14,-254.5 702.14,-235.5 629.14,-235.5"/>
<text text-anchor="middle" x="665.64" y="-242.5" font-family="Helvetica,sans-Serif" font-size="10.00">fw/core.hpp</text>
</a>
</g>
</g>
<!-- Node32&#45;&gt;Node34 -->
<g id="edge26" class="edge">
<title>Node32&#45;&gt;Node34</title>
<path fill="none" stroke="midnightblue" d="M684.01,-291.08C681.03,-283.77 676.72,-273.18 673.02,-264.1"/>
<polygon fill="midnightblue" stroke="midnightblue" points="676.22,-262.69 669.21,-254.75 669.74,-265.33 676.22,-262.69"/>
</g>
<!-- Node34&#45;&gt;Node2 -->
<g id="edge27" class="edge">
<title>Node34&#45;&gt;Node2</title>
<path fill="none" stroke="midnightblue" d="M628.73,-240.29C533.43,-230.7 279.27,-205.15 174.63,-194.63"/>
<polygon fill="midnightblue" stroke="midnightblue" points="174.7,-191.11 164.4,-193.6 174,-198.08 174.7,-191.11"/>
</g>
<!-- Node34&#45;&gt;Node14 -->
<g id="edge28" class="edge">
<title>Node34&#45;&gt;Node14</title>
<path fill="none" stroke="midnightblue" d="M678.66,-235.32C691.17,-226.98 710.32,-214.21 725.11,-204.35"/>
<polygon fill="midnightblue" stroke="midnightblue" points="727.28,-207.11 733.66,-198.65 723.4,-201.29 727.28,-207.11"/>
</g>
</g>
</svg>
