<?xml version="1.0" encoding="UTF-8" standalone="no"?>
<!DOCTYPE svg PUBLIC "-//W3C//DTD SVG 1.1//EN"
 "http://www.w3.org/Graphics/SVG/1.1/DTD/svg11.dtd">
<!-- Generated by graphviz version 2.43.0 (0)
 -->
<!-- Title: src/core/drivers.hpp Pages: 1 -->
<svg width="463pt" height="258pt"
 viewBox="0.00 0.00 463.28 258.00" xmlns="http://www.w3.org/2000/svg" xmlns:xlink="http://www.w3.org/1999/xlink">
<g id="graph0" class="graph" transform="scale(1 1) rotate(0) translate(4 254)">
<title>src/core/drivers.hpp</title>
<!-- Node1 -->
<g id="Node000001" class="node">
<title>Node1</title>
<g id="a_Node000001"><a xlink:title=" ">
<polygon fill="#999999" stroke="#666666" points="298.78,-250 185.78,-250 185.78,-231 298.78,-231 298.78,-250"/>
<text text-anchor="middle" x="242.28" y="-238" font-family="Helvetica,sans-Serif" font-size="10.00">src/core/drivers.hpp</text>
</a>
</g>
</g>
<!-- Node2 -->
<g id="Node000002" class="node">
<title>Node2</title>
<g id="a_Node000002"><a xlink:href="interfaces_8hpp.html" target="_top" xlink:title=" ">
<polygon fill="white" stroke="#666666" points="228.28,-189.5 114.28,-189.5 114.28,-170.5 228.28,-170.5 228.28,-189.5"/>
<text text-anchor="middle" x="171.28" y="-177.5" font-family="Helvetica,sans-Serif" font-size="10.00">../drv/interfaces.hpp</text>
</a>
</g>
</g>
<!-- Node1&#45;&gt;Node2 -->
<g id="edge1_Node000001_Node000002" class="edge">
<title>Node1&#45;&gt;Node2</title>
<g id="a_edge1_Node000001_Node000002"><a xlink:title=" ">
<path fill="none" stroke="#63b8ff" d="M231.8,-230.87C220.79,-221.8 203.24,-207.34 189.87,-196.32"/>
<polygon fill="#63b8ff" stroke="#63b8ff" points="191.74,-193.33 181.8,-189.67 187.29,-198.73 191.74,-193.33"/>
</a>
</g>
</g>
<!-- Node19 -->
<g id="Node000019" class="node">
<title>Node19</title>
<g id="a_Node000019"><a xlink:title=" ">
<polygon fill="#e0e0e0" stroke="#999999" points="379.78,-195 246.78,-195 246.78,-165 379.78,-165 379.78,-195"/>
<text text-anchor="start" x="254.78" y="-183" font-family="Helvetica,sans-Serif" font-size="10.00">emlabcpp/experimental</text>
<text text-anchor="middle" x="313.28" y="-172" font-family="Helvetica,sans-Serif" font-size="10.00">/function_view.h</text>
</a>
</g>
</g>
<!-- Node1&#45;&gt;Node19 -->
<g id="edge10_Node000001_Node000019" class="edge">
<title>Node1&#45;&gt;Node19</title>
<g id="a_edge10_Node000001_Node000019"><a xlink:title=" ">
<path fill="none" stroke="#63b8ff" d="M252.76,-230.87C262.03,-223.22 275.95,-211.76 288.1,-201.75"/>
<polygon fill="#63b8ff" stroke="#63b8ff" points="290.66,-204.17 296.15,-195.11 286.21,-198.77 290.66,-204.17"/>
</a>
</g>
</g>
<!-- Node3 -->
<g id="Node000003" class="node">
<title>Node3</title>
<g id="a_Node000003"><a xlink:href="base_2base_8hpp.html" target="_top" xlink:title=" ">
<polygon fill="#fff0f0" stroke="red" points="99.28,-74 3.28,-74 3.28,-55 99.28,-55 99.28,-74"/>
<text text-anchor="middle" x="51.28" y="-62" font-family="Helvetica,sans-Serif" font-size="10.00">../base/base.hpp</text>
</a>
</g>
</g>
<!-- Node2&#45;&gt;Node3 -->
<g id="edge2_Node000002_Node000003" class="edge">
<title>Node2&#45;&gt;Node3</title>
<g id="a_edge2_Node000002_Node000003"><a xlink:title=" ">
<path fill="none" stroke="#63b8ff" d="M114.26,-178.36C76.48,-174.58 29.4,-162.74 4.28,-129 -8.25,-112.17 10.98,-92.78 28.48,-79.9"/>
<polygon fill="#63b8ff" stroke="#63b8ff" points="30.57,-82.71 36.79,-74.14 26.58,-76.96 30.57,-82.71"/>
</a>
</g>
</g>
<!-- Node5 -->
<g id="Node000005" class="node">
<title>Node5</title>
<g id="a_Node000005"><a xlink:title=" ">
<polygon fill="#e0e0e0" stroke="#999999" points="114.28,-19 64.28,-19 64.28,0 114.28,0 114.28,-19"/>
<text text-anchor="middle" x="89.28" y="-7" font-family="Helvetica,sans-Serif" font-size="10.00">cstdint</text>
</a>
</g>
</g>
<!-- Node2&#45;&gt;Node5 -->
<g id="edge6_Node000002_Node000005" class="edge">
<title>Node2&#45;&gt;Node5</title>
<g id="a_edge6_Node000002_Node000005"><a xlink:title=" ">
<path fill="none" stroke="#63b8ff" d="M167.1,-170.41C154.33,-144.17 115.61,-64.61 98.08,-28.58"/>
<polygon fill="#63b8ff" stroke="#63b8ff" points="101.07,-26.73 93.55,-19.27 94.78,-29.8 101.07,-26.73"/>
</a>
</g>
</g>
<!-- Node9 -->
<g id="Node000009" class="node">
<title>Node9</title>
<g id="a_Node000009"><a xlink:href="map_8hpp.html" target="_top" xlink:title=" ">
<polygon fill="#fff0f0" stroke="red" points="99.28,-129 13.28,-129 13.28,-110 99.28,-110 99.28,-129"/>
<text text-anchor="middle" x="56.28" y="-117" font-family="Helvetica,sans-Serif" font-size="10.00">../cfg/map.hpp</text>
</a>
</g>
</g>
<!-- Node2&#45;&gt;Node9 -->
<g id="edge4_Node000002_Node000009" class="edge">
<title>Node2&#45;&gt;Node9</title>
<g id="a_edge4_Node000002_Node000009"><a xlink:title=" ">
<path fill="none" stroke="#63b8ff" d="M154.31,-170.37C135.37,-160.73 104.49,-145.03 82.45,-133.81"/>
<polygon fill="#63b8ff" stroke="#63b8ff" points="83.82,-130.58 73.32,-129.17 80.64,-136.82 83.82,-130.58"/>
</a>
</g>
</g>
<!-- Node16 -->
<g id="Node000016" class="node">
<title>Node16</title>
<g id="a_Node000016"><a xlink:title=" ">
<polygon fill="#e0e0e0" stroke="#999999" points="274.78,-129 155.78,-129 155.78,-110 274.78,-110 274.78,-129"/>
<text text-anchor="middle" x="215.28" y="-117" font-family="Helvetica,sans-Serif" font-size="10.00">emlabcpp/outcome.h</text>
</a>
</g>
</g>
<!-- Node2&#45;&gt;Node16 -->
<g id="edge7_Node000002_Node000016" class="edge">
<title>Node2&#45;&gt;Node16</title>
<g id="a_edge7_Node000002_Node000016"><a xlink:title=" ">
<path fill="none" stroke="#63b8ff" d="M177.77,-170.37C184.27,-161.73 194.44,-148.2 202.56,-137.42"/>
<polygon fill="#63b8ff" stroke="#63b8ff" points="205.55,-139.26 208.76,-129.17 199.95,-135.06 205.55,-139.26"/>
</a>
</g>
</g>
<!-- Node17 -->
<g id="Node000017" class="node">
<title>Node17</title>
<g id="a_Node000017"><a xlink:title=" ">
<polygon fill="#e0e0e0" stroke="#999999" points="397.28,-129 293.28,-129 293.28,-110 397.28,-110 397.28,-129"/>
<text text-anchor="middle" x="345.28" y="-117" font-family="Helvetica,sans-Serif" font-size="10.00">emlabcpp/result.h</text>
</a>
</g>
</g>
<!-- Node2&#45;&gt;Node17 -->
<g id="edge8_Node000002_Node000017" class="edge">
<title>Node2&#45;&gt;Node17</title>
<g id="a_edge8_Node000002_Node000017"><a xlink:title=" ">
<path fill="none" stroke="#63b8ff" d="M196.58,-170.49C226.48,-160.44 276.4,-143.66 310.06,-132.34"/>
<polygon fill="#63b8ff" stroke="#63b8ff" points="311.58,-135.52 319.95,-129.02 309.35,-128.89 311.58,-135.52"/>
</a>
</g>
</g>
<!-- Node18 -->
<g id="Node000018" class="node">
<title>Node18</title>
<g id="a_Node000018"><a xlink:title=" ">
<polygon fill="#e0e0e0" stroke="#999999" points="455.28,-129 415.28,-129 415.28,-110 455.28,-110 455.28,-129"/>
<text text-anchor="middle" x="435.28" y="-117" font-family="Helvetica,sans-Serif" font-size="10.00">span</text>
</a>
</g>
</g>
<!-- Node2&#45;&gt;Node18 -->
<g id="edge9_Node000002_Node000018" class="edge">
<title>Node2&#45;&gt;Node18</title>
<g id="a_edge9_Node000002_Node000018"><a xlink:title=" ">
<path fill="none" stroke="#63b8ff" d="M211.75,-170.47C269.11,-158.38 370.29,-137 405.16,-129"/>
<polygon fill="#63b8ff" stroke="#63b8ff" points="406.14,-132.37 415.05,-126.64 404.51,-125.56 406.14,-132.37"/>
</a>
</g>
</g>
<!-- Node3&#45;&gt;Node5 -->
<g id="edge3_Node000003_Node000005" class="edge">
<title>Node3&#45;&gt;Node5</title>
<g id="a_edge3_Node000003_Node000005"><a xlink:title=" ">
<path fill="none" stroke="#63b8ff" d="M57.55,-54.75C62.87,-47.34 70.64,-36.5 77.16,-27.41"/>
<polygon fill="#63b8ff" stroke="#63b8ff" points="80.14,-29.26 83.12,-19.09 74.45,-25.18 80.14,-29.26"/>
</a>
</g>
</g>
<!-- Node9&#45;&gt;Node3 -->
<g id="edge5_Node000009_Node000003" class="edge">
<title>Node9&#45;&gt;Node3</title>
<g id="a_edge5_Node000009_Node000003"><a xlink:title=" ">
<path fill="none" stroke="#63b8ff" d="M55.45,-109.75C54.8,-102.8 53.86,-92.85 53.04,-84.13"/>
<polygon fill="#63b8ff" stroke="#63b8ff" points="56.51,-83.72 52.09,-74.09 49.54,-84.37 56.51,-83.72"/>
</a>
</g>
</g>
</g>
</svg>
