<?xml version="1.0" encoding="UTF-8" standalone="no"?>
<!DOCTYPE svg PUBLIC "-//W3C//DTD SVG 1.1//EN"
 "http://www.w3.org/Graphics/SVG/1.1/DTD/svg11.dtd">
<!-- Generated by graphviz version 2.43.0 (0)
 -->
<!-- Title: src/core/drivers.hpp Pages: 1 -->
<svg width="566pt" height="214pt"
 viewBox="0.00 0.00 565.50 214.00" xmlns="http://www.w3.org/2000/svg" xmlns:xlink="http://www.w3.org/1999/xlink">
<g id="graph0" class="graph" transform="scale(1 1) rotate(0) translate(4 210)">
<title>src/core/drivers.hpp</title>
<!-- Node1 -->
<g id="Node000001" class="node">
<title>Node1</title>
<g id="a_Node000001"><a xlink:title=" ">
<polygon fill="#999999" stroke="#666666" points="452.5,-206 339.5,-206 339.5,-187 452.5,-187 452.5,-206"/>
<text text-anchor="middle" x="396" y="-194" font-family="Helvetica,sans-Serif" font-size="10.00">src/core/drivers.hpp</text>
</a>
</g>
</g>
<!-- Node2 -->
<g id="Node000002" class="node">
<title>Node2</title>
<g id="a_Node000002"><a xlink:href="interfaces_8hpp.html" target="_top" xlink:title=" ">
<polygon fill="white" stroke="#666666" points="320,-145.5 206,-145.5 206,-126.5 320,-126.5 320,-145.5"/>
<text text-anchor="middle" x="263" y="-133.5" font-family="Helvetica,sans-Serif" font-size="10.00">../drv/interfaces.hpp</text>
</a>
</g>
</g>
<!-- Node1&#45;&gt;Node2 -->
<g id="edge1_Node000001_Node000002" class="edge">
<title>Node1&#45;&gt;Node2</title>
<g id="a_edge1_Node000001_Node000002"><a xlink:title=" ">
<path fill="none" stroke="#63b8ff" d="M376.66,-186.99C354.3,-177.16 317.29,-160.88 291.6,-149.58"/>
<polygon fill="#63b8ff" stroke="#63b8ff" points="292.93,-146.34 282.36,-145.52 290.11,-152.75 292.93,-146.34"/>
</a>
</g>
</g>
<!-- Node24 -->
<g id="Node000024" class="node">
<title>Node24</title>
<g id="a_Node000024"><a xlink:title=" ">
<polygon fill="#e0e0e0" stroke="#999999" points="511.5,-85 378.5,-85 378.5,-55 511.5,-55 511.5,-85"/>
<text text-anchor="start" x="386.5" y="-73" font-family="Helvetica,sans-Serif" font-size="10.00">emlabcpp/experimental</text>
<text text-anchor="middle" x="445" y="-62" font-family="Helvetica,sans-Serif" font-size="10.00">/function_view.hpp</text>
</a>
</g>
</g>
<!-- Node1&#45;&gt;Node24 -->
<g id="edge11_Node000001_Node000024" class="edge">
<title>Node1&#45;&gt;Node24</title>
<g id="a_edge11_Node000001_Node000024"><a xlink:title=" ">
<path fill="none" stroke="#63b8ff" d="M397.52,-186.99C400.21,-172.91 406.44,-144 416,-121 419.81,-111.84 424.99,-102.31 429.93,-94.05"/>
<polygon fill="#63b8ff" stroke="#63b8ff" points="433.03,-95.7 435.31,-85.35 427.07,-92.01 433.03,-95.7"/>
</a>
</g>
</g>
<!-- Node26 -->
<g id="Node000026" class="node">
<title>Node26</title>
<g id="a_Node000026"><a xlink:title=" ">
<polygon fill="#e0e0e0" stroke="#999999" points="557.5,-151 424.5,-151 424.5,-121 557.5,-121 557.5,-151"/>
<text text-anchor="start" x="432.5" y="-139" font-family="Helvetica,sans-Serif" font-size="10.00">emlabcpp/experimental</text>
<text text-anchor="middle" x="491" y="-128" font-family="Helvetica,sans-Serif" font-size="10.00">/decompose.hpp</text>
</a>
</g>
</g>
<!-- Node1&#45;&gt;Node26 -->
<g id="edge10_Node000001_Node000026" class="edge">
<title>Node1&#45;&gt;Node26</title>
<g id="a_edge10_Node000001_Node000026"><a xlink:title=" ">
<path fill="none" stroke="#63b8ff" d="M410.02,-186.87C422.91,-178.93 442.49,-166.87 459.17,-156.6"/>
<polygon fill="#63b8ff" stroke="#63b8ff" points="461.4,-159.34 468.08,-151.11 457.73,-153.38 461.4,-159.34"/>
</a>
</g>
</g>
<!-- Node3 -->
<g id="Node000003" class="node">
<title>Node3</title>
<g id="a_Node000003"><a xlink:href="base_8hpp.html" target="_top" xlink:title=" ">
<polygon fill="#fff0f0" stroke="red" points="70,-79.5 0,-79.5 0,-60.5 70,-60.5 70,-79.5"/>
<text text-anchor="middle" x="35" y="-67.5" font-family="Helvetica,sans-Serif" font-size="10.00">../base.hpp</text>
</a>
</g>
</g>
<!-- Node2&#45;&gt;Node3 -->
<g id="edge2_Node000002_Node000003" class="edge">
<title>Node2&#45;&gt;Node3</title>
<g id="a_edge2_Node000002_Node000003"><a xlink:title=" ">
<path fill="none" stroke="#63b8ff" d="M232.26,-126.47C196.59,-116.56 136.01,-99.69 84,-85 80.89,-84.12 77.67,-83.21 74.44,-82.29"/>
<polygon fill="#63b8ff" stroke="#63b8ff" points="75.37,-78.92 64.79,-79.54 73.45,-85.65 75.37,-78.92"/>
</a>
</g>
</g>
<!-- Node5 -->
<g id="Node000005" class="node">
<title>Node5</title>
<g id="a_Node000005"><a xlink:title=" ">
<polygon fill="#e0e0e0" stroke="#999999" points="123,-19 73,-19 73,0 123,0 123,-19"/>
<text text-anchor="middle" x="98" y="-7" font-family="Helvetica,sans-Serif" font-size="10.00">cstdint</text>
</a>
</g>
</g>
<!-- Node2&#45;&gt;Node5 -->
<g id="edge7_Node000002_Node000005" class="edge">
<title>Node2&#45;&gt;Node5</title>
<g id="a_edge7_Node000002_Node000005"><a xlink:title=" ">
<path fill="none" stroke="#63b8ff" d="M205.64,-128.53C175.34,-122.21 139.8,-109.71 117,-85 103.03,-69.86 99,-45.89 98,-29.24"/>
<polygon fill="#63b8ff" stroke="#63b8ff" points="101.49,-28.98 97.71,-19.09 94.5,-29.18 101.49,-28.98"/>
</a>
</g>
</g>
<!-- Node11 -->
<g id="Node000011" class="node">
<title>Node11</title>
<g id="a_Node000011"><a xlink:href="cfg_2def_8hpp.html" target="_top" xlink:title=" ">
<polygon fill="#fff0f0" stroke="red" points="206,-79.5 126,-79.5 126,-60.5 206,-60.5 206,-79.5"/>
<text text-anchor="middle" x="166" y="-67.5" font-family="Helvetica,sans-Serif" font-size="10.00">../cfg/def.hpp</text>
</a>
</g>
</g>
<!-- Node2&#45;&gt;Node11 -->
<g id="edge4_Node000002_Node000011" class="edge">
<title>Node2&#45;&gt;Node11</title>
<g id="a_edge4_Node000002_Node000011"><a xlink:title=" ">
<path fill="none" stroke="#63b8ff" d="M249.92,-126.37C233.94,-115.82 206.67,-97.84 187.57,-85.23"/>
<polygon fill="#63b8ff" stroke="#63b8ff" points="189.46,-82.28 179.18,-79.7 185.6,-88.13 189.46,-82.28"/>
</a>
</g>
</g>
<!-- Node22 -->
<g id="Node000022" class="node">
<title>Node22</title>
<g id="a_Node000022"><a xlink:href="status_8hpp.html" target="_top" xlink:title=" ">
<polygon fill="#fff0f0" stroke="red" points="301.5,-79.5 224.5,-79.5 224.5,-60.5 301.5,-60.5 301.5,-79.5"/>
<text text-anchor="middle" x="263" y="-67.5" font-family="Helvetica,sans-Serif" font-size="10.00">../status.hpp</text>
</a>
</g>
</g>
<!-- Node2&#45;&gt;Node22 -->
<g id="edge5_Node000002_Node000022" class="edge">
<title>Node2&#45;&gt;Node22</title>
<g id="a_edge5_Node000002_Node000022"><a xlink:title=" ">
<path fill="none" stroke="#63b8ff" d="M263,-126.37C263,-117.16 263,-102.29 263,-90.27"/>
<polygon fill="#63b8ff" stroke="#63b8ff" points="266.5,-89.91 263,-79.91 259.5,-89.91 266.5,-89.91"/>
</a>
</g>
</g>
<!-- Node2&#45;&gt;Node24 -->
<g id="edge8_Node000002_Node000024" class="edge">
<title>Node2&#45;&gt;Node24</title>
<g id="a_edge8_Node000002_Node000024"><a xlink:title=" ">
<path fill="none" stroke="#63b8ff" d="M287.55,-126.37C315.04,-116.7 360.33,-100.77 395.29,-88.48"/>
<polygon fill="#63b8ff" stroke="#63b8ff" points="396.59,-91.73 404.86,-85.12 394.26,-85.13 396.59,-91.73"/>
</a>
</g>
</g>
<!-- Node25 -->
<g id="Node000025" class="node">
<title>Node25</title>
<g id="a_Node000025"><a xlink:title=" ">
<polygon fill="#e0e0e0" stroke="#999999" points="360,-79.5 320,-79.5 320,-60.5 360,-60.5 360,-79.5"/>
<text text-anchor="middle" x="340" y="-67.5" font-family="Helvetica,sans-Serif" font-size="10.00">span</text>
</a>
</g>
</g>
<!-- Node2&#45;&gt;Node25 -->
<g id="edge9_Node000002_Node000025" class="edge">
<title>Node2&#45;&gt;Node25</title>
<g id="a_edge9_Node000002_Node000025"><a xlink:title=" ">
<path fill="none" stroke="#63b8ff" d="M273.38,-126.37C285.72,-116.12 306.51,-98.84 321.59,-86.31"/>
<polygon fill="#63b8ff" stroke="#63b8ff" points="323.83,-88.99 329.29,-79.91 319.36,-83.61 323.83,-88.99"/>
</a>
</g>
</g>
<!-- Node3&#45;&gt;Node5 -->
<g id="edge3_Node000003_Node000005" class="edge">
<title>Node3&#45;&gt;Node5</title>
<g id="a_edge3_Node000003_Node000005"><a xlink:title=" ">
<path fill="none" stroke="#63b8ff" d="M44.3,-60.37C53.97,-51.38 69.34,-37.11 81.16,-26.14"/>
<polygon fill="#63b8ff" stroke="#63b8ff" points="83.72,-28.54 88.67,-19.17 78.96,-23.41 83.72,-28.54"/>
</a>
</g>
</g>
<!-- Node22&#45;&gt;Node5 -->
<g id="edge6_Node000022_Node000005" class="edge">
<title>Node22&#45;&gt;Node5</title>
<g id="a_edge6_Node000022_Node000005"><a xlink:title=" ">
<path fill="none" stroke="#63b8ff" d="M239.01,-60.49C210.78,-50.49 163.72,-33.8 131.81,-22.49"/>
<polygon fill="#63b8ff" stroke="#63b8ff" points="132.62,-19.06 122.02,-19.02 130.28,-25.66 132.62,-19.06"/>
</a>
</g>
</g>
</g>
</svg>
