<?xml version="1.0" encoding="UTF-8" standalone="no"?>
<!DOCTYPE svg PUBLIC "-//W3C//DTD SVG 1.1//EN"
 "http://www.w3.org/Graphics/SVG/1.1/DTD/svg11.dtd">
<!-- Generated by graphviz version 2.43.0 (0)
 -->
<!-- Title: src/core/drivers.hpp Pages: 1 -->
<svg width="463pt" height="263pt"
 viewBox="0.00 0.00 463.36 263.00" xmlns="http://www.w3.org/2000/svg" xmlns:xlink="http://www.w3.org/1999/xlink">
<g id="graph0" class="graph" transform="scale(1 1) rotate(0) translate(4 259)">
<title>src/core/drivers.hpp</title>
<polygon fill="white" stroke="transparent" points="-4,4 -4,-259 459.36,-259 459.36,4 -4,4"/>
<!-- Node1 -->
<g id="node1" class="node">
<title>Node1</title>
<g id="a_node1"><a xlink:title=" ">
<polygon fill="#bfbfbf" stroke="black" points="185.86,-235.5 185.86,-254.5 298.86,-254.5 298.86,-235.5 185.86,-235.5"/>
<text text-anchor="middle" x="242.36" y="-242.5" font-family="Helvetica,sans-Serif" font-size="10.00">src/core/drivers.hpp</text>
</a>
</g>
</g>
<!-- Node2 -->
<g id="node2" class="node">
<title>Node2</title>
<g id="a_node2"><a xlink:href="interfaces_8hpp.html" target="_top" xlink:title=" ">
<polygon fill="white" stroke="black" points="114.36,-174 114.36,-193 228.36,-193 228.36,-174 114.36,-174"/>
<text text-anchor="middle" x="171.36" y="-181" font-family="Helvetica,sans-Serif" font-size="10.00">../drv/interfaces.hpp</text>
</a>
</g>
</g>
<!-- Node1&#45;&gt;Node2 -->
<g id="edge1" class="edge">
<title>Node1&#45;&gt;Node2</title>
<path fill="none" stroke="midnightblue" d="M232.19,-235.48C221.01,-226.11 202.85,-210.88 189.27,-199.51"/>
<polygon fill="midnightblue" stroke="midnightblue" points="191.43,-196.75 181.52,-193.01 186.93,-202.11 191.43,-196.75"/>
</g>
<!-- Node19 -->
<g id="node9" class="node">
<title>Node19</title>
<g id="a_node9"><a xlink:title=" ">
<polygon fill="white" stroke="#bfbfbf" points="246.86,-168.5 246.86,-198.5 379.86,-198.5 379.86,-168.5 246.86,-168.5"/>
<text text-anchor="start" x="254.86" y="-186.5" font-family="Helvetica,sans-Serif" font-size="10.00">emlabcpp/experimental</text>
<text text-anchor="middle" x="313.36" y="-175.5" font-family="Helvetica,sans-Serif" font-size="10.00">/function_view.h</text>
</a>
</g>
</g>
<!-- Node1&#45;&gt;Node19 -->
<g id="edge10" class="edge">
<title>Node1&#45;&gt;Node19</title>
<path fill="none" stroke="midnightblue" d="M252.54,-235.48C261.97,-227.57 276.39,-215.48 288.82,-205.07"/>
<polygon fill="midnightblue" stroke="midnightblue" points="291.21,-207.63 296.63,-198.52 286.72,-202.26 291.21,-207.63"/>
</g>
<!-- Node3 -->
<g id="node3" class="node">
<title>Node3</title>
<g id="a_node3"><a xlink:href="base_2base_8hpp.html" target="_top" xlink:title=" ">
<polygon fill="white" stroke="red" points="3.36,-56.5 3.36,-75.5 99.36,-75.5 99.36,-56.5 3.36,-56.5"/>
<text text-anchor="middle" x="51.36" y="-63.5" font-family="Helvetica,sans-Serif" font-size="10.00">../base/base.hpp</text>
</a>
</g>
</g>
<!-- Node2&#45;&gt;Node3 -->
<g id="edge2" class="edge">
<title>Node2&#45;&gt;Node3</title>
<path fill="none" stroke="midnightblue" d="M114.33,-181.68C76.54,-177.79 29.46,-165.81 4.36,-132 -8.4,-114.8 11.14,-94.8 28.78,-81.58"/>
<polygon fill="midnightblue" stroke="midnightblue" points="30.99,-84.3 37.13,-75.67 26.95,-78.59 30.99,-84.3"/>
</g>
<!-- Node5 -->
<g id="node4" class="node">
<title>Node5</title>
<g id="a_node4"><a xlink:title=" ">
<polygon fill="white" stroke="#bfbfbf" points="64.36,-0.5 64.36,-19.5 114.36,-19.5 114.36,-0.5 64.36,-0.5"/>
<text text-anchor="middle" x="89.36" y="-7.5" font-family="Helvetica,sans-Serif" font-size="10.00">cstdint</text>
</a>
</g>
</g>
<!-- Node2&#45;&gt;Node5 -->
<g id="edge6" class="edge">
<title>Node2&#45;&gt;Node5</title>
<path fill="none" stroke="midnightblue" d="M167.19,-173.76C154.35,-146.92 115.34,-65.32 97.92,-28.89"/>
<polygon fill="midnightblue" stroke="midnightblue" points="100.91,-27.03 93.44,-19.52 94.59,-30.05 100.91,-27.03"/>
</g>
<!-- Node9 -->
<g id="node5" class="node">
<title>Node9</title>
<g id="a_node5"><a xlink:href="map_8hpp.html" target="_top" xlink:title=" ">
<polygon fill="white" stroke="red" points="13.36,-112.5 13.36,-131.5 99.36,-131.5 99.36,-112.5 13.36,-112.5"/>
<text text-anchor="middle" x="56.36" y="-119.5" font-family="Helvetica,sans-Serif" font-size="10.00">../cfg/map.hpp</text>
</a>
</g>
</g>
<!-- Node2&#45;&gt;Node9 -->
<g id="edge4" class="edge">
<title>Node2&#45;&gt;Node9</title>
<path fill="none" stroke="midnightblue" d="M154.89,-173.98C135.76,-164.08 103.99,-147.64 81.71,-136.12"/>
<polygon fill="midnightblue" stroke="midnightblue" points="83.3,-133 72.81,-131.51 80.08,-139.21 83.3,-133"/>
</g>
<!-- Node16 -->
<g id="node6" class="node">
<title>Node16</title>
<g id="a_node6"><a xlink:title=" ">
<polygon fill="white" stroke="#bfbfbf" points="155.86,-112.5 155.86,-131.5 274.86,-131.5 274.86,-112.5 155.86,-112.5"/>
<text text-anchor="middle" x="215.36" y="-119.5" font-family="Helvetica,sans-Serif" font-size="10.00">emlabcpp/outcome.h</text>
</a>
</g>
</g>
<!-- Node2&#45;&gt;Node16 -->
<g id="edge7" class="edge">
<title>Node2&#45;&gt;Node16</title>
<path fill="none" stroke="midnightblue" d="M177.67,-173.98C184.27,-165.05 194.8,-150.81 203.06,-139.64"/>
<polygon fill="midnightblue" stroke="midnightblue" points="205.94,-141.63 209.07,-131.51 200.31,-137.47 205.94,-141.63"/>
</g>
<!-- Node17 -->
<g id="node7" class="node">
<title>Node17</title>
<g id="a_node7"><a xlink:title=" ">
<polygon fill="white" stroke="#bfbfbf" points="293.36,-112.5 293.36,-131.5 397.36,-131.5 397.36,-112.5 293.36,-112.5"/>
<text text-anchor="middle" x="345.36" y="-119.5" font-family="Helvetica,sans-Serif" font-size="10.00">emlabcpp/result.h</text>
</a>
</g>
</g>
<!-- Node2&#45;&gt;Node17 -->
<g id="edge8" class="edge">
<title>Node2&#45;&gt;Node17</title>
<path fill="none" stroke="midnightblue" d="M196.29,-173.98C226.4,-163.68 277.2,-146.31 311,-134.75"/>
<polygon fill="midnightblue" stroke="midnightblue" points="312.15,-138.06 320.48,-131.51 309.89,-131.43 312.15,-138.06"/>
</g>
<!-- Node18 -->
<g id="node8" class="node">
<title>Node18</title>
<g id="a_node8"><a xlink:title=" ">
<polygon fill="white" stroke="#bfbfbf" points="415.36,-112.5 415.36,-131.5 455.36,-131.5 455.36,-112.5 415.36,-112.5"/>
<text text-anchor="middle" x="435.36" y="-119.5" font-family="Helvetica,sans-Serif" font-size="10.00">span</text>
</a>
</g>
</g>
<!-- Node2&#45;&gt;Node18 -->
<g id="edge9" class="edge">
<title>Node2&#45;&gt;Node18</title>
<path fill="none" stroke="midnightblue" d="M210.69,-173.98C219.78,-172.01 229.41,-169.93 238.36,-168 309.95,-152.58 330.8,-151.41 405.29,-132.11"/>
<polygon fill="midnightblue" stroke="midnightblue" points="406.36,-135.44 415.15,-129.53 404.59,-128.67 406.36,-135.44"/>
</g>
<!-- Node3&#45;&gt;Node5 -->
<g id="edge3" class="edge">
<title>Node3&#45;&gt;Node5</title>
<path fill="none" stroke="midnightblue" d="M57.64,-56.08C63.01,-48.46 70.88,-37.26 77.44,-27.94"/>
<polygon fill="midnightblue" stroke="midnightblue" points="80.31,-29.94 83.21,-19.75 74.59,-25.91 80.31,-29.94"/>
</g>
<!-- Node9&#45;&gt;Node3 -->
<g id="edge5" class="edge">
<title>Node9&#45;&gt;Node3</title>
<path fill="none" stroke="midnightblue" d="M55.54,-112.08C54.88,-105.01 53.94,-94.86 53.12,-85.99"/>
<polygon fill="midnightblue" stroke="midnightblue" points="56.58,-85.39 52.17,-75.75 49.61,-86.03 56.58,-85.39"/>
</g>
</g>
</svg>
