<?xml version="1.0" encoding="UTF-8" standalone="no"?>
<!DOCTYPE svg PUBLIC "-//W3C//DTD SVG 1.1//EN"
 "http://www.w3.org/Graphics/SVG/1.1/DTD/svg11.dtd">
<!-- Generated by graphviz version 2.43.0 (0)
 -->
<!-- Title: src/drv/callbacks.hpp Pages: 1 -->
<svg width="495pt" height="252pt"
 viewBox="0.00 0.00 495.07 252.00" xmlns="http://www.w3.org/2000/svg" xmlns:xlink="http://www.w3.org/1999/xlink">
<g id="graph0" class="graph" transform="scale(1 1) rotate(0) translate(4 248)">
<title>src/drv/callbacks.hpp</title>
<polygon fill="white" stroke="transparent" points="-4,4 -4,-248 491.07,-248 491.07,4 -4,4"/>
<!-- Node1 -->
<g id="node1" class="node">
<title>Node1</title>
<g id="a_node1"><a xlink:title=" ">
<polygon fill="#bfbfbf" stroke="black" points="368.07,-224.5 368.07,-243.5 487.07,-243.5 487.07,-224.5 368.07,-224.5"/>
<text text-anchor="middle" x="427.57" y="-231.5" font-family="Helvetica,sans-Serif" font-size="10.00">src/drv/callbacks.hpp</text>
</a>
</g>
</g>
<!-- Node2 -->
<g id="node2" class="node">
<title>Node2</title>
<g id="a_node2"><a xlink:href="interfaces_8hpp.html" target="_top" xlink:title=" ">
<polygon fill="white" stroke="black" points="155.07,-168.5 155.07,-187.5 260.07,-187.5 260.07,-168.5 155.07,-168.5"/>
<text text-anchor="middle" x="207.57" y="-175.5" font-family="Helvetica,sans-Serif" font-size="10.00">drv/interfaces.hpp</text>
</a>
</g>
</g>
<!-- Node1&#45;&gt;Node2 -->
<g id="edge1" class="edge">
<title>Node1&#45;&gt;Node2</title>
<path fill="none" stroke="midnightblue" d="M392.71,-224.44C354.65,-215.1 293.61,-200.12 252.11,-189.93"/>
<polygon fill="midnightblue" stroke="midnightblue" points="252.81,-186.5 242.27,-187.52 251.14,-193.3 252.81,-186.5"/>
</g>
<!-- Node5 -->
<g id="node4" class="node">
<title>Node5</title>
<g id="a_node4"><a xlink:title=" ">
<polygon fill="white" stroke="#bfbfbf" points="94.57,-0.5 94.57,-19.5 144.57,-19.5 144.57,-0.5 94.57,-0.5"/>
<text text-anchor="middle" x="119.57" y="-7.5" font-family="Helvetica,sans-Serif" font-size="10.00">cstdint</text>
</a>
</g>
</g>
<!-- Node1&#45;&gt;Node5 -->
<g id="edge10" class="edge">
<title>Node1&#45;&gt;Node5</title>
<path fill="none" stroke="midnightblue" d="M433.93,-224.43C448.84,-203.2 482.88,-147.35 456.57,-112 419.93,-62.76 233.12,-28.59 154.5,-16.17"/>
<polygon fill="midnightblue" stroke="midnightblue" points="155.01,-12.71 144.59,-14.63 153.94,-19.62 155.01,-12.71"/>
</g>
<!-- Node18 -->
<g id="node8" class="node">
<title>Node18</title>
<g id="a_node8"><a xlink:title=" ">
<polygon fill="white" stroke="#bfbfbf" points="407.57,-112.5 407.57,-131.5 447.57,-131.5 447.57,-112.5 407.57,-112.5"/>
<text text-anchor="middle" x="427.57" y="-119.5" font-family="Helvetica,sans-Serif" font-size="10.00">span</text>
</a>
</g>
</g>
<!-- Node1&#45;&gt;Node18 -->
<g id="edge11" class="edge">
<title>Node1&#45;&gt;Node18</title>
<path fill="none" stroke="midnightblue" d="M427.57,-224.37C427.57,-206.62 427.57,-165.67 427.57,-141.6"/>
<polygon fill="midnightblue" stroke="midnightblue" points="431.07,-141.59 427.57,-131.59 424.07,-141.59 431.07,-141.59"/>
</g>
<!-- Node3 -->
<g id="node3" class="node">
<title>Node3</title>
<g id="a_node3"><a xlink:href="base_2base_8hpp.html" target="_top" xlink:title=" ">
<polygon fill="white" stroke="red" points="4.07,-56.5 4.07,-75.5 91.07,-75.5 91.07,-56.5 4.07,-56.5"/>
<text text-anchor="middle" x="47.57" y="-63.5" font-family="Helvetica,sans-Serif" font-size="10.00">base/base.hpp</text>
</a>
</g>
</g>
<!-- Node2&#45;&gt;Node3 -->
<g id="edge2" class="edge">
<title>Node2&#45;&gt;Node3</title>
<path fill="none" stroke="midnightblue" d="M154.94,-172.69C101.2,-167.06 23.1,-155.09 4.57,-132 -8.48,-115.74 9.77,-95.49 26.36,-81.96"/>
<polygon fill="midnightblue" stroke="midnightblue" points="28.91,-84.42 34.71,-75.55 24.65,-78.86 28.91,-84.42"/>
</g>
<!-- Node2&#45;&gt;Node5 -->
<g id="edge6" class="edge">
<title>Node2&#45;&gt;Node5</title>
<path fill="none" stroke="midnightblue" d="M185.6,-168.47C169.91,-161.2 149.68,-149.17 138.57,-132 118.23,-100.57 116.88,-55.15 118.02,-29.84"/>
<polygon fill="midnightblue" stroke="midnightblue" points="121.52,-29.95 118.66,-19.75 114.54,-29.51 121.52,-29.95"/>
</g>
<!-- Node9 -->
<g id="node5" class="node">
<title>Node9</title>
<g id="a_node5"><a xlink:href="map_8hpp.html" target="_top" xlink:title=" ">
<polygon fill="white" stroke="red" points="14.07,-112.5 14.07,-131.5 91.07,-131.5 91.07,-112.5 14.07,-112.5"/>
<text text-anchor="middle" x="52.57" y="-119.5" font-family="Helvetica,sans-Serif" font-size="10.00">cfg/map.hpp</text>
</a>
</g>
</g>
<!-- Node2&#45;&gt;Node9 -->
<g id="edge4" class="edge">
<title>Node2&#45;&gt;Node9</title>
<path fill="none" stroke="midnightblue" d="M183.01,-168.44C157.05,-159.4 115.9,-145.06 86.77,-134.92"/>
<polygon fill="midnightblue" stroke="midnightblue" points="87.61,-131.5 77.02,-131.52 85.31,-138.11 87.61,-131.5"/>
</g>
<!-- Node16 -->
<g id="node6" class="node">
<title>Node16</title>
<g id="a_node6"><a xlink:title=" ">
<polygon fill="white" stroke="#bfbfbf" points="148.07,-112.5 148.07,-131.5 267.07,-131.5 267.07,-112.5 148.07,-112.5"/>
<text text-anchor="middle" x="207.57" y="-119.5" font-family="Helvetica,sans-Serif" font-size="10.00">emlabcpp/outcome.h</text>
</a>
</g>
</g>
<!-- Node2&#45;&gt;Node16 -->
<g id="edge7" class="edge">
<title>Node2&#45;&gt;Node16</title>
<path fill="none" stroke="midnightblue" d="M207.57,-168.08C207.57,-161.01 207.57,-150.86 207.57,-141.99"/>
<polygon fill="midnightblue" stroke="midnightblue" points="211.07,-141.75 207.57,-131.75 204.07,-141.75 211.07,-141.75"/>
</g>
<!-- Node17 -->
<g id="node7" class="node">
<title>Node17</title>
<g id="a_node7"><a xlink:title=" ">
<polygon fill="white" stroke="#bfbfbf" points="285.57,-112.5 285.57,-131.5 389.57,-131.5 389.57,-112.5 285.57,-112.5"/>
<text text-anchor="middle" x="337.57" y="-119.5" font-family="Helvetica,sans-Serif" font-size="10.00">emlabcpp/result.h</text>
</a>
</g>
</g>
<!-- Node2&#45;&gt;Node17 -->
<g id="edge8" class="edge">
<title>Node2&#45;&gt;Node17</title>
<path fill="none" stroke="midnightblue" d="M228.17,-168.44C249.56,-159.56 283.25,-145.56 307.59,-135.45"/>
<polygon fill="midnightblue" stroke="midnightblue" points="309.18,-138.58 317.07,-131.52 306.49,-132.12 309.18,-138.58"/>
</g>
<!-- Node2&#45;&gt;Node18 -->
<g id="edge9" class="edge">
<title>Node2&#45;&gt;Node18</title>
<path fill="none" stroke="midnightblue" d="M247.28,-168.49C283.93,-160.45 340.08,-147.65 397.39,-132.19"/>
<polygon fill="midnightblue" stroke="midnightblue" points="398.61,-135.48 407.34,-129.47 396.77,-128.73 398.61,-135.48"/>
</g>
<!-- Node3&#45;&gt;Node5 -->
<g id="edge3" class="edge">
<title>Node3&#45;&gt;Node5</title>
<path fill="none" stroke="midnightblue" d="M59.14,-56.32C69.99,-48.18 86.45,-35.84 99.45,-26.09"/>
<polygon fill="midnightblue" stroke="midnightblue" points="101.89,-28.63 107.79,-19.83 97.69,-23.03 101.89,-28.63"/>
</g>
<!-- Node9&#45;&gt;Node3 -->
<g id="edge5" class="edge">
<title>Node9&#45;&gt;Node3</title>
<path fill="none" stroke="midnightblue" d="M51.74,-112.08C51.09,-105.01 50.15,-94.86 49.33,-85.99"/>
<polygon fill="midnightblue" stroke="midnightblue" points="52.79,-85.39 48.38,-75.75 45.82,-86.03 52.79,-85.39"/>
</g>
</g>
</svg>
