<?xml version="1.0" encoding="UTF-8" standalone="no"?>
<!DOCTYPE svg PUBLIC "-//W3C//DTD SVG 1.1//EN"
 "http://www.w3.org/Graphics/SVG/1.1/DTD/svg11.dtd">
<!-- Generated by graphviz version 2.43.0 (0)
 -->
<!-- Title: src/drv/flash_cfg.hpp Pages: 1 -->
<svg width="579pt" height="258pt"
 viewBox="0.00 0.00 579.00 258.00" xmlns="http://www.w3.org/2000/svg" xmlns:xlink="http://www.w3.org/1999/xlink">
<g id="graph0" class="graph" transform="scale(1 1) rotate(0) translate(4 254)">
<title>src/drv/flash_cfg.hpp</title>
<!-- Node1 -->
<g id="Node000001" class="node">
<title>Node1</title>
<g id="a_Node000001"><a xlink:title=" ">
<polygon fill="#999999" stroke="#666666" points="405,-250 288,-250 288,-231 405,-231 405,-250"/>
<text text-anchor="middle" x="346.5" y="-238" font-family="Helvetica,sans-Serif" font-size="10.00">src/drv/flash_cfg.hpp</text>
</a>
</g>
</g>
<!-- Node2 -->
<g id="Node000002" class="node">
<title>Node2</title>
<g id="a_Node000002"><a xlink:href="platform_8hpp.html" target="_top" xlink:title=" ">
<polygon fill="white" stroke="#666666" points="149.5,-189.5 45.5,-189.5 45.5,-170.5 149.5,-170.5 149.5,-189.5"/>
<text text-anchor="middle" x="97.5" y="-177.5" font-family="Helvetica,sans-Serif" font-size="10.00">../plt/platform.hpp</text>
</a>
</g>
</g>
<!-- Node1&#45;&gt;Node2 -->
<g id="edge1_Node000001_Node000002" class="edge">
<title>Node1&#45;&gt;Node2</title>
<g id="a_edge1_Node000001_Node000002"><a xlink:title=" ">
<path fill="none" stroke="#63b8ff" d="M310.29,-230.99C266.22,-220.64 191.73,-203.14 143.6,-191.83"/>
<polygon fill="#63b8ff" stroke="#63b8ff" points="144.29,-188.4 133.75,-189.52 142.68,-195.21 144.29,-188.4"/>
</a>
</g>
</g>
<!-- Node5 -->
<g id="Node000005" class="node">
<title>Node5</title>
<g id="a_Node000005"><a xlink:href="interfaces_8hpp.html" target="_top" xlink:title=" ">
<polygon fill="white" stroke="#666666" points="296.5,-189.5 204.5,-189.5 204.5,-170.5 296.5,-170.5 296.5,-189.5"/>
<text text-anchor="middle" x="250.5" y="-177.5" font-family="Helvetica,sans-Serif" font-size="10.00">./interfaces.hpp</text>
</a>
</g>
</g>
<!-- Node1&#45;&gt;Node5 -->
<g id="edge3_Node000001_Node000005" class="edge">
<title>Node1&#45;&gt;Node5</title>
<g id="a_edge3_Node000001_Node000005"><a xlink:title=" ">
<path fill="none" stroke="#63b8ff" d="M332.33,-230.87C316.81,-221.41 291.67,-206.09 273.35,-194.92"/>
<polygon fill="#63b8ff" stroke="#63b8ff" points="275.08,-191.88 264.72,-189.67 271.44,-197.86 275.08,-191.88"/>
</a>
</g>
</g>
<!-- Node8 -->
<g id="Node000008" class="node">
<title>Node8</title>
<g id="a_Node000008"><a xlink:title=" ">
<polygon fill="#e0e0e0" stroke="#999999" points="242.5,-19 192.5,-19 192.5,0 242.5,0 242.5,-19"/>
<text text-anchor="middle" x="217.5" y="-7" font-family="Helvetica,sans-Serif" font-size="10.00">cstdint</text>
</a>
</g>
</g>
<!-- Node1&#45;&gt;Node8 -->
<g id="edge11_Node000001_Node000008" class="edge">
<title>Node1&#45;&gt;Node8</title>
<g id="a_edge11_Node000001_Node000008"><a xlink:title=" ">
<path fill="none" stroke="#63b8ff" d="M354.21,-230.83C372.41,-209.27 414.75,-151.93 390.5,-110 360.85,-58.74 293.68,-31.58 252.31,-19.18"/>
<polygon fill="#63b8ff" stroke="#63b8ff" points="253.21,-15.8 242.63,-16.41 251.28,-22.53 253.21,-15.8"/>
</a>
</g>
</g>
<!-- Node20 -->
<g id="Node000020" class="node">
<title>Node20</title>
<g id="a_Node000020"><a xlink:title=" ">
<polygon fill="#e0e0e0" stroke="#999999" points="571,-195 438,-195 438,-165 571,-165 571,-195"/>
<text text-anchor="start" x="446" y="-183" font-family="Helvetica,sans-Serif" font-size="10.00">emlabcpp/experimental</text>
<text text-anchor="middle" x="504.5" y="-172" font-family="Helvetica,sans-Serif" font-size="10.00">/function_view.h</text>
</a>
</g>
</g>
<!-- Node1&#45;&gt;Node20 -->
<g id="edge12_Node000001_Node000020" class="edge">
<title>Node1&#45;&gt;Node20</title>
<g id="a_edge12_Node000001_Node000020"><a xlink:title=" ">
<path fill="none" stroke="#63b8ff" d="M369.47,-230.99C392.31,-222.54 428.02,-209.32 456.98,-198.59"/>
<polygon fill="#63b8ff" stroke="#63b8ff" points="458.35,-201.82 466.51,-195.06 455.92,-195.25 458.35,-201.82"/>
</a>
</g>
</g>
<!-- Node3 -->
<g id="Node000003" class="node">
<title>Node3</title>
<g id="a_Node000003"><a xlink:href="hal_8hpp.html" target="_top" xlink:title=" ">
<polygon fill="#fff0f0" stroke="red" points="53,-129 0,-129 0,-110 53,-110 53,-129"/>
<text text-anchor="middle" x="26.5" y="-117" font-family="Helvetica,sans-Serif" font-size="10.00">hal.hpp</text>
</a>
</g>
</g>
<!-- Node2&#45;&gt;Node3 -->
<g id="edge2_Node000002_Node000003" class="edge">
<title>Node2&#45;&gt;Node3</title>
<g id="a_edge2_Node000002_Node000003"><a xlink:title=" ">
<path fill="none" stroke="#63b8ff" d="M87.02,-170.37C76.01,-161.3 58.46,-146.84 45.09,-135.82"/>
<polygon fill="#63b8ff" stroke="#63b8ff" points="46.96,-132.83 37.02,-129.17 42.51,-138.23 46.96,-132.83"/>
</a>
</g>
</g>
<!-- Node6 -->
<g id="Node000006" class="node">
<title>Node6</title>
<g id="a_Node000006"><a xlink:href="base_8hpp.html" target="_top" xlink:title=" ">
<polygon fill="#fff0f0" stroke="red" points="184.5,-74 114.5,-74 114.5,-55 184.5,-55 184.5,-74"/>
<text text-anchor="middle" x="149.5" y="-62" font-family="Helvetica,sans-Serif" font-size="10.00">../base.hpp</text>
</a>
</g>
</g>
<!-- Node5&#45;&gt;Node6 -->
<g id="edge4_Node000005_Node000006" class="edge">
<title>Node5&#45;&gt;Node6</title>
<g id="a_edge4_Node000005_Node000006"><a xlink:title=" ">
<path fill="none" stroke="#63b8ff" d="M207.33,-170.45C167.69,-161.61 113.22,-146.65 100.5,-129 88.12,-111.82 107.75,-92.64 125.72,-79.9"/>
<polygon fill="#63b8ff" stroke="#63b8ff" points="127.89,-82.66 134.26,-74.2 124,-76.83 127.89,-82.66"/>
</a>
</g>
</g>
<!-- Node5&#45;&gt;Node8 -->
<g id="edge9_Node000005_Node000008" class="edge">
<title>Node5&#45;&gt;Node8</title>
<g id="a_edge9_Node000005_Node000008"><a xlink:title=" ">
<path fill="none" stroke="#63b8ff" d="M247.96,-170.2C245.16,-160.26 240.62,-143.56 237.5,-129 230,-93.93 223.55,-52.54 220.13,-29.12"/>
<polygon fill="#63b8ff" stroke="#63b8ff" points="223.59,-28.57 218.7,-19.17 216.66,-29.57 223.59,-28.57"/>
</a>
</g>
</g>
<!-- Node13 -->
<g id="Node000013" class="node">
<title>Node13</title>
<g id="a_Node000013"><a xlink:href="cfg_2def_8hpp.html" target="_top" xlink:title=" ">
<polygon fill="#fff0f0" stroke="red" points="189.5,-129 109.5,-129 109.5,-110 189.5,-110 189.5,-129"/>
<text text-anchor="middle" x="149.5" y="-117" font-family="Helvetica,sans-Serif" font-size="10.00">../cfg/def.hpp</text>
</a>
</g>
</g>
<!-- Node5&#45;&gt;Node13 -->
<g id="edge6_Node000005_Node000013" class="edge">
<title>Node5&#45;&gt;Node13</title>
<g id="a_edge6_Node000005_Node000013"><a xlink:title=" ">
<path fill="none" stroke="#63b8ff" d="M235.6,-170.37C219.19,-160.86 192.57,-145.45 173.27,-134.27"/>
<polygon fill="#63b8ff" stroke="#63b8ff" points="174.87,-131.15 164.46,-129.17 171.36,-137.21 174.87,-131.15"/>
</a>
</g>
</g>
<!-- Node16 -->
<g id="Node000016" class="node">
<title>Node16</title>
<g id="a_Node000016"><a xlink:href="status_8hpp.html" target="_top" xlink:title=" ">
<polygon fill="#fff0f0" stroke="red" points="323,-129 246,-129 246,-110 323,-110 323,-129"/>
<text text-anchor="middle" x="284.5" y="-117" font-family="Helvetica,sans-Serif" font-size="10.00">../status.hpp</text>
</a>
</g>
</g>
<!-- Node5&#45;&gt;Node16 -->
<g id="edge8_Node000005_Node000016" class="edge">
<title>Node5&#45;&gt;Node16</title>
<g id="a_edge8_Node000005_Node000016"><a xlink:title=" ">
<path fill="none" stroke="#63b8ff" d="M255.52,-170.37C260.44,-161.9 268.09,-148.74 274.29,-138.07"/>
<polygon fill="#63b8ff" stroke="#63b8ff" points="277.46,-139.57 279.46,-129.17 271.41,-136.05 277.46,-139.57"/>
</a>
</g>
</g>
<!-- Node19 -->
<g id="Node000019" class="node">
<title>Node19</title>
<g id="a_Node000019"><a xlink:title=" ">
<polygon fill="#e0e0e0" stroke="#999999" points="381.5,-129 341.5,-129 341.5,-110 381.5,-110 381.5,-129"/>
<text text-anchor="middle" x="361.5" y="-117" font-family="Helvetica,sans-Serif" font-size="10.00">span</text>
</a>
</g>
</g>
<!-- Node5&#45;&gt;Node19 -->
<g id="edge10_Node000005_Node000019" class="edge">
<title>Node5&#45;&gt;Node19</title>
<g id="a_edge10_Node000005_Node000019"><a xlink:title=" ">
<path fill="none" stroke="#63b8ff" d="M266.88,-170.37C285.08,-160.78 314.7,-145.17 335.95,-133.97"/>
<polygon fill="#63b8ff" stroke="#63b8ff" points="337.84,-136.93 345.05,-129.17 334.58,-130.73 337.84,-136.93"/>
</a>
</g>
</g>
<!-- Node6&#45;&gt;Node8 -->
<g id="edge5_Node000006_Node000008" class="edge">
<title>Node6&#45;&gt;Node8</title>
<g id="a_edge5_Node000006_Node000008"><a xlink:title=" ">
<path fill="none" stroke="#63b8ff" d="M160.43,-54.98C170.58,-47.07 185.92,-35.11 198.15,-25.58"/>
<polygon fill="#63b8ff" stroke="#63b8ff" points="200.64,-28.08 206.38,-19.17 196.34,-22.56 200.64,-28.08"/>
</a>
</g>
</g>
<!-- Node13&#45;&gt;Node6 -->
<g id="edge7_Node000013_Node000006" class="edge">
<title>Node13&#45;&gt;Node6</title>
<g id="a_edge7_Node000013_Node000006"><a xlink:title=" ">
<path fill="none" stroke="#63b8ff" d="M149.5,-109.75C149.5,-102.8 149.5,-92.85 149.5,-84.13"/>
<polygon fill="#63b8ff" stroke="#63b8ff" points="153,-84.09 149.5,-74.09 146,-84.09 153,-84.09"/>
</a>
</g>
</g>
</g>
</svg>
