<?xml version="1.0" encoding="UTF-8" standalone="no"?>
<!DOCTYPE svg PUBLIC "-//W3C//DTD SVG 1.1//EN"
 "http://www.w3.org/Graphics/SVG/1.1/DTD/svg11.dtd">
<!-- Generated by graphviz version 2.43.0 (0)
 -->
<!-- Title: src/drv/flash_cfg.hpp Pages: 1 -->
<svg width="744pt" height="269pt"
 viewBox="0.00 0.00 743.50 269.00" xmlns="http://www.w3.org/2000/svg" xmlns:xlink="http://www.w3.org/1999/xlink">
<g id="graph0" class="graph" transform="scale(1 1) rotate(0) translate(4 265)">
<title>src/drv/flash_cfg.hpp</title>
<!-- Node1 -->
<g id="Node000001" class="node">
<title>Node1</title>
<g id="a_Node000001"><a xlink:title=" ">
<polygon fill="#999999" stroke="#666666" points="419.5,-261 302.5,-261 302.5,-242 419.5,-242 419.5,-261"/>
<text text-anchor="middle" x="361" y="-249" font-family="Helvetica,sans-Serif" font-size="10.00">src/drv/flash_cfg.hpp</text>
</a>
</g>
</g>
<!-- Node2 -->
<g id="Node000002" class="node">
<title>Node2</title>
<g id="a_Node000002"><a xlink:href="storage_8hpp.html" target="_top" xlink:title=" ">
<polygon fill="white" stroke="#666666" points="522.5,-206 421.5,-206 421.5,-187 522.5,-187 522.5,-206"/>
<text text-anchor="middle" x="472" y="-194" font-family="Helvetica,sans-Serif" font-size="10.00">../cfg/storage.hpp</text>
</a>
</g>
</g>
<!-- Node1&#45;&gt;Node2 -->
<g id="edge1_Node000001_Node000002" class="edge">
<title>Node1&#45;&gt;Node2</title>
<g id="a_edge1_Node000001_Node000002"><a xlink:title=" ">
<path fill="none" stroke="#63b8ff" d="M378.83,-241.98C396.61,-233.5 424.15,-220.35 444.68,-210.54"/>
<polygon fill="#63b8ff" stroke="#63b8ff" points="446.33,-213.64 453.84,-206.17 443.31,-207.32 446.33,-213.64"/>
</a>
</g>
</g>
<!-- Node6 -->
<g id="Node000006" class="node">
<title>Node6</title>
<g id="a_Node000006"><a xlink:title=" ">
<polygon fill="#e0e0e0" stroke="#999999" points="50,-19 0,-19 0,0 50,0 50,-19"/>
<text text-anchor="middle" x="25" y="-7" font-family="Helvetica,sans-Serif" font-size="10.00">cstdint</text>
</a>
</g>
</g>
<!-- Node1&#45;&gt;Node6 -->
<g id="edge17_Node000001_Node000006" class="edge">
<title>Node1&#45;&gt;Node6</title>
<g id="a_edge17_Node000001_Node000006"><a xlink:title=" ">
<path fill="none" stroke="#63b8ff" d="M302.32,-248.06C231.53,-241.94 113.4,-221.09 44,-151 11.9,-118.58 16.32,-59.47 21.21,-29.3"/>
<polygon fill="#63b8ff" stroke="#63b8ff" points="24.68,-29.74 23.03,-19.27 17.8,-28.49 24.68,-29.74"/>
</a>
</g>
</g>
<!-- Node17 -->
<g id="Node000017" class="node">
<title>Node17</title>
<g id="a_Node000017"><a xlink:href="platform_8hpp.html" target="_top" xlink:title=" ">
<polygon fill="white" stroke="#666666" points="718,-206 614,-206 614,-187 718,-187 718,-206"/>
<text text-anchor="middle" x="666" y="-194" font-family="Helvetica,sans-Serif" font-size="10.00">../plt/platform.hpp</text>
</a>
</g>
</g>
<!-- Node1&#45;&gt;Node17 -->
<g id="edge8_Node000001_Node000017" class="edge">
<title>Node1&#45;&gt;Node17</title>
<g id="a_edge8_Node000001_Node000017"><a xlink:title=" ">
<path fill="none" stroke="#63b8ff" d="M410,-241.98C463.62,-232.67 549.54,-217.74 606.86,-207.78"/>
<polygon fill="#63b8ff" stroke="#63b8ff" points="607.61,-211.2 616.87,-206.04 606.41,-204.3 607.61,-211.2"/>
</a>
</g>
</g>
<!-- Node20 -->
<g id="Node000020" class="node">
<title>Node20</title>
<g id="a_Node000020"><a xlink:href="interfaces_8hpp.html" target="_top" xlink:title=" ">
<polygon fill="white" stroke="#666666" points="327,-206 235,-206 235,-187 327,-187 327,-206"/>
<text text-anchor="middle" x="281" y="-194" font-family="Helvetica,sans-Serif" font-size="10.00">./interfaces.hpp</text>
</a>
</g>
</g>
<!-- Node1&#45;&gt;Node20 -->
<g id="edge10_Node000001_Node000020" class="edge">
<title>Node1&#45;&gt;Node20</title>
<g id="a_edge10_Node000001_Node000020"><a xlink:title=" ">
<path fill="none" stroke="#63b8ff" d="M348.15,-241.98C335.86,-233.84 317.09,-221.41 302.52,-211.76"/>
<polygon fill="#63b8ff" stroke="#63b8ff" points="304.36,-208.78 294.09,-206.17 300.49,-214.61 304.36,-208.78"/>
</a>
</g>
</g>
<!-- Node3 -->
<g id="Node000003" class="node">
<title>Node3</title>
<g id="a_Node000003"><a xlink:href="map_8hpp.html" target="_top" xlink:title=" ">
<polygon fill="#fff0f0" stroke="red" points="474.5,-145.5 409.5,-145.5 409.5,-126.5 474.5,-126.5 474.5,-145.5"/>
<text text-anchor="middle" x="442" y="-133.5" font-family="Helvetica,sans-Serif" font-size="10.00">./map.hpp</text>
</a>
</g>
</g>
<!-- Node2&#45;&gt;Node3 -->
<g id="edge2_Node000002_Node000003" class="edge">
<title>Node2&#45;&gt;Node3</title>
<g id="a_edge2_Node000002_Node000003"><a xlink:title=" ">
<path fill="none" stroke="#63b8ff" d="M467.57,-186.87C463.23,-178.4 456.48,-165.24 451.01,-154.57"/>
<polygon fill="#63b8ff" stroke="#63b8ff" points="454.12,-152.97 446.44,-145.67 447.89,-156.16 454.12,-152.97"/>
</a>
</g>
</g>
<!-- Node11 -->
<g id="Node000011" class="node">
<title>Node11</title>
<g id="a_Node000011"><a xlink:title=" ">
<polygon fill="#e0e0e0" stroke="#999999" points="538.5,-85 405.5,-85 405.5,-55 538.5,-55 538.5,-85"/>
<text text-anchor="start" x="413.5" y="-73" font-family="Helvetica,sans-Serif" font-size="10.00">emlabcpp/experimental</text>
<text text-anchor="middle" x="472" y="-62" font-family="Helvetica,sans-Serif" font-size="10.00">/string_buffer.h</text>
</a>
</g>
</g>
<!-- Node2&#45;&gt;Node11 -->
<g id="edge7_Node000002_Node000011" class="edge">
<title>Node2&#45;&gt;Node11</title>
<g id="a_edge7_Node000002_Node000011"><a xlink:title=" ">
<path fill="none" stroke="#63b8ff" d="M474.83,-186.75C477.55,-177.86 481.46,-163.64 483,-151 484.61,-137.76 484.44,-134.26 483,-121 482.08,-112.52 480.3,-103.37 478.44,-95.25"/>
<polygon fill="#63b8ff" stroke="#63b8ff" points="481.79,-94.19 476.01,-85.3 474.98,-95.85 481.79,-94.19"/>
</a>
</g>
</g>
<!-- Node16 -->
<g id="Node000016" class="node">
<title>Node16</title>
<g id="a_Node000016"><a xlink:title=" ">
<polygon fill="#e0e0e0" stroke="#999999" points="664.5,-151 531.5,-151 531.5,-121 664.5,-121 664.5,-151"/>
<text text-anchor="start" x="539.5" y="-139" font-family="Helvetica,sans-Serif" font-size="10.00">emlabcpp/experimental</text>
<text text-anchor="middle" x="598" y="-128" font-family="Helvetica,sans-Serif" font-size="10.00">/function_view.h</text>
</a>
</g>
</g>
<!-- Node2&#45;&gt;Node16 -->
<g id="edge6_Node000002_Node000016" class="edge">
<title>Node2&#45;&gt;Node16</title>
<g id="a_edge6_Node000002_Node000016"><a xlink:title=" ">
<path fill="none" stroke="#63b8ff" d="M490.32,-186.99C508.08,-178.75 535.59,-165.98 558.36,-155.4"/>
<polygon fill="#63b8ff" stroke="#63b8ff" points="559.87,-158.56 567.46,-151.18 556.92,-152.21 559.87,-158.56"/>
</a>
</g>
</g>
<!-- Node4 -->
<g id="Node000004" class="node">
<title>Node4</title>
<g id="a_Node000004"><a xlink:href="base_8hpp.html" target="_top" xlink:title=" ">
<polygon fill="#fff0f0" stroke="red" points="123,-79.5 53,-79.5 53,-60.5 123,-60.5 123,-79.5"/>
<text text-anchor="middle" x="88" y="-67.5" font-family="Helvetica,sans-Serif" font-size="10.00">../base.hpp</text>
</a>
</g>
</g>
<!-- Node3&#45;&gt;Node4 -->
<g id="edge3_Node000003_Node000004" class="edge">
<title>Node3&#45;&gt;Node4</title>
<g id="a_edge3_Node000003_Node000004"><a xlink:title=" ">
<path fill="none" stroke="#63b8ff" d="M418.65,-126.47C412.63,-124.48 406.12,-122.5 400,-121 306.57,-98.1 194.74,-83.11 133.56,-75.94"/>
<polygon fill="#63b8ff" stroke="#63b8ff" points="133.8,-72.45 123.47,-74.78 133,-79.4 133.8,-72.45"/>
</a>
</g>
</g>
<!-- Node3&#45;&gt;Node11 -->
<g id="edge5_Node000003_Node000011" class="edge">
<title>Node3&#45;&gt;Node11</title>
<g id="a_edge5_Node000003_Node000011"><a xlink:title=" ">
<path fill="none" stroke="#63b8ff" d="M446.05,-126.37C449.86,-118.24 455.74,-105.69 460.94,-94.59"/>
<polygon fill="#63b8ff" stroke="#63b8ff" points="464.19,-95.9 465.27,-85.36 457.86,-92.93 464.19,-95.9"/>
</a>
</g>
</g>
<!-- Node4&#45;&gt;Node6 -->
<g id="edge4_Node000004_Node000006" class="edge">
<title>Node4&#45;&gt;Node6</title>
<g id="a_edge4_Node000004_Node000006"><a xlink:title=" ">
<path fill="none" stroke="#63b8ff" d="M78.7,-60.37C69.03,-51.38 53.66,-37.11 41.84,-26.14"/>
<polygon fill="#63b8ff" stroke="#63b8ff" points="44.04,-23.41 34.33,-19.17 39.28,-28.54 44.04,-23.41"/>
</a>
</g>
</g>
<!-- Node18 -->
<g id="Node000018" class="node">
<title>Node18</title>
<g id="a_Node000018"><a xlink:href="hal_8hpp.html" target="_top" xlink:title=" ">
<polygon fill="#fff0f0" stroke="red" points="735.5,-145.5 682.5,-145.5 682.5,-126.5 735.5,-126.5 735.5,-145.5"/>
<text text-anchor="middle" x="709" y="-133.5" font-family="Helvetica,sans-Serif" font-size="10.00">hal.hpp</text>
</a>
</g>
</g>
<!-- Node17&#45;&gt;Node18 -->
<g id="edge9_Node000017_Node000018" class="edge">
<title>Node17&#45;&gt;Node18</title>
<g id="a_edge9_Node000017_Node000018"><a xlink:title=" ">
<path fill="none" stroke="#63b8ff" d="M672.34,-186.87C678.7,-178.23 688.64,-164.7 696.57,-153.92"/>
<polygon fill="#63b8ff" stroke="#63b8ff" points="699.53,-155.8 702.63,-145.67 693.89,-151.65 699.53,-155.8"/>
</a>
</g>
</g>
<!-- Node20&#45;&gt;Node3 -->
<g id="edge12_Node000020_Node000003" class="edge">
<title>Node20&#45;&gt;Node3</title>
<g id="a_edge12_Node000020_Node000003"><a xlink:title=" ">
<path fill="none" stroke="#63b8ff" d="M304.41,-186.99C331.95,-176.99 377.87,-160.3 409.01,-148.99"/>
<polygon fill="#63b8ff" stroke="#63b8ff" points="410.36,-152.22 418.56,-145.52 407.97,-145.64 410.36,-152.22"/>
</a>
</g>
</g>
<!-- Node20&#45;&gt;Node4 -->
<g id="edge11_Node000020_Node000004" class="edge">
<title>Node20&#45;&gt;Node4</title>
<g id="a_edge11_Node000020_Node000004"><a xlink:title=" ">
<path fill="none" stroke="#63b8ff" d="M234.62,-191.71C181.92,-186.33 100.76,-174.42 82,-151 68.15,-133.72 73.82,-107.04 80.11,-89.31"/>
<polygon fill="#63b8ff" stroke="#63b8ff" points="83.53,-90.17 83.93,-79.59 77.01,-87.61 83.53,-90.17"/>
</a>
</g>
</g>
<!-- Node20&#45;&gt;Node6 -->
<g id="edge13_Node000020_Node000006" class="edge">
<title>Node20&#45;&gt;Node6</title>
<g id="a_edge13_Node000020_Node000006"><a xlink:title=" ">
<path fill="none" stroke="#63b8ff" d="M234.75,-190.87C180.38,-184.58 94.45,-171.66 70,-151 33.57,-120.21 26.33,-59.88 25.09,-29.27"/>
<polygon fill="#63b8ff" stroke="#63b8ff" points="28.58,-29.03 24.86,-19.12 21.59,-29.19 28.58,-29.03"/>
</a>
</g>
</g>
<!-- Node21 -->
<g id="Node000021" class="node">
<title>Node21</title>
<g id="a_Node000021"><a xlink:title=" ">
<polygon fill="#e0e0e0" stroke="#999999" points="210.5,-145.5 91.5,-145.5 91.5,-126.5 210.5,-126.5 210.5,-145.5"/>
<text text-anchor="middle" x="151" y="-133.5" font-family="Helvetica,sans-Serif" font-size="10.00">emlabcpp/outcome.h</text>
</a>
</g>
</g>
<!-- Node20&#45;&gt;Node21 -->
<g id="edge14_Node000020_Node000021" class="edge">
<title>Node20&#45;&gt;Node21</title>
<g id="a_edge14_Node000020_Node000021"><a xlink:title=" ">
<path fill="none" stroke="#63b8ff" d="M262.1,-186.99C240.34,-177.2 204.38,-161.02 179.29,-149.73"/>
<polygon fill="#63b8ff" stroke="#63b8ff" points="180.48,-146.43 169.93,-145.52 177.61,-152.81 180.48,-146.43"/>
</a>
</g>
</g>
<!-- Node22 -->
<g id="Node000022" class="node">
<title>Node22</title>
<g id="a_Node000022"><a xlink:title=" ">
<polygon fill="#e0e0e0" stroke="#999999" points="333,-145.5 229,-145.5 229,-126.5 333,-126.5 333,-145.5"/>
<text text-anchor="middle" x="281" y="-133.5" font-family="Helvetica,sans-Serif" font-size="10.00">emlabcpp/result.h</text>
</a>
</g>
</g>
<!-- Node20&#45;&gt;Node22 -->
<g id="edge15_Node000020_Node000022" class="edge">
<title>Node20&#45;&gt;Node22</title>
<g id="a_edge15_Node000020_Node000022"><a xlink:title=" ">
<path fill="none" stroke="#63b8ff" d="M281,-186.87C281,-178.75 281,-166.31 281,-155.89"/>
<polygon fill="#63b8ff" stroke="#63b8ff" points="284.5,-155.67 281,-145.67 277.5,-155.67 284.5,-155.67"/>
</a>
</g>
</g>
<!-- Node23 -->
<g id="Node000023" class="node">
<title>Node23</title>
<g id="a_Node000023"><a xlink:title=" ">
<polygon fill="#e0e0e0" stroke="#999999" points="391,-145.5 351,-145.5 351,-126.5 391,-126.5 391,-145.5"/>
<text text-anchor="middle" x="371" y="-133.5" font-family="Helvetica,sans-Serif" font-size="10.00">span</text>
</a>
</g>
</g>
<!-- Node20&#45;&gt;Node23 -->
<g id="edge16_Node000020_Node000023" class="edge">
<title>Node20&#45;&gt;Node23</title>
<g id="a_edge16_Node000020_Node000023"><a xlink:title=" ">
<path fill="none" stroke="#63b8ff" d="M294.28,-186.87C308.64,-177.54 331.76,-162.51 348.87,-151.38"/>
<polygon fill="#63b8ff" stroke="#63b8ff" points="351.19,-154.05 357.67,-145.67 347.37,-148.18 351.19,-154.05"/>
</a>
</g>
</g>
</g>
</svg>
