<?xml version="1.0" encoding="UTF-8" standalone="no"?>
<!DOCTYPE svg PUBLIC "-//W3C//DTD SVG 1.1//EN"
 "http://www.w3.org/Graphics/SVG/1.1/DTD/svg11.dtd">
<!-- Generated by graphviz version 2.43.0 (0)
 -->
<!-- Title: src/drv/flash_cfg.hpp Pages: 1 -->
<svg width="583pt" height="269pt"
 viewBox="0.00 0.00 583.00 269.00" xmlns="http://www.w3.org/2000/svg" xmlns:xlink="http://www.w3.org/1999/xlink">
<g id="graph0" class="graph" transform="scale(1 1) rotate(0) translate(4 265)">
<title>src/drv/flash_cfg.hpp</title>
<!-- Node1 -->
<g id="Node000001" class="node">
<title>Node1</title>
<g id="a_Node000001"><a xlink:title=" ">
<polygon fill="#999999" stroke="#666666" points="305.5,-261 188.5,-261 188.5,-242 305.5,-242 305.5,-261"/>
<text text-anchor="middle" x="247" y="-249" font-family="Helvetica,sans-Serif" font-size="10.00">src/drv/flash_cfg.hpp</text>
</a>
</g>
</g>
<!-- Node2 -->
<g id="Node000002" class="node">
<title>Node2</title>
<g id="a_Node000002"><a xlink:href="storage_8hpp.html" target="_top" xlink:title=" ">
<polygon fill="white" stroke="#666666" points="410.5,-206 309.5,-206 309.5,-187 410.5,-187 410.5,-206"/>
<text text-anchor="middle" x="360" y="-194" font-family="Helvetica,sans-Serif" font-size="10.00">../cfg/storage.hpp</text>
</a>
</g>
</g>
<!-- Node1&#45;&gt;Node2 -->
<g id="edge1_Node000001_Node000002" class="edge">
<title>Node1&#45;&gt;Node2</title>
<g id="a_edge1_Node000001_Node000002"><a xlink:title=" ">
<path fill="none" stroke="#63b8ff" d="M265.16,-241.98C283.25,-233.5 311.28,-220.35 332.19,-210.54"/>
<polygon fill="#63b8ff" stroke="#63b8ff" points="333.95,-213.59 341.51,-206.17 330.97,-207.25 333.95,-213.59"/>
</a>
</g>
</g>
<!-- Node6 -->
<g id="Node000006" class="node">
<title>Node6</title>
<g id="a_Node000006"><a xlink:title=" ">
<polygon fill="#e0e0e0" stroke="#999999" points="50,-19 0,-19 0,0 50,0 50,-19"/>
<text text-anchor="middle" x="25" y="-7" font-family="Helvetica,sans-Serif" font-size="10.00">cstdint</text>
</a>
</g>
</g>
<!-- Node1&#45;&gt;Node6 -->
<g id="edge16_Node000001_Node000006" class="edge">
<title>Node1&#45;&gt;Node6</title>
<g id="a_edge16_Node000001_Node000006"><a xlink:title=" ">
<path fill="none" stroke="#63b8ff" d="M192.37,-241.99C140.26,-230.76 64.09,-205.6 25,-151 -1.19,-114.42 10.36,-57.62 18.86,-28.72"/>
<polygon fill="#63b8ff" stroke="#63b8ff" points="22.22,-29.7 21.89,-19.12 15.54,-27.6 22.22,-29.7"/>
</a>
</g>
</g>
<!-- Node17 -->
<g id="Node000017" class="node">
<title>Node17</title>
<g id="a_Node000017"><a xlink:href="platform_8hpp.html" target="_top" xlink:title=" ">
<polygon fill="white" stroke="#666666" points="575,-206 471,-206 471,-187 575,-187 575,-206"/>
<text text-anchor="middle" x="523" y="-194" font-family="Helvetica,sans-Serif" font-size="10.00">../plt/platform.hpp</text>
</a>
</g>
</g>
<!-- Node1&#45;&gt;Node17 -->
<g id="edge8_Node000001_Node000017" class="edge">
<title>Node1&#45;&gt;Node17</title>
<g id="a_edge8_Node000001_Node000017"><a xlink:title=" ">
<path fill="none" stroke="#63b8ff" d="M291.34,-241.98C339.49,-232.74 416.42,-217.97 468.29,-208.01"/>
<polygon fill="#63b8ff" stroke="#63b8ff" points="469.15,-211.41 478.31,-206.08 467.83,-204.53 469.15,-211.41"/>
</a>
</g>
</g>
<!-- Node20 -->
<g id="Node000020" class="node">
<title>Node20</title>
<g id="a_Node000020"><a xlink:href="interfaces_8hpp.html" target="_top" xlink:title=" ">
<polygon fill="white" stroke="#666666" points="236,-206 144,-206 144,-187 236,-187 236,-206"/>
<text text-anchor="middle" x="190" y="-194" font-family="Helvetica,sans-Serif" font-size="10.00">./interfaces.hpp</text>
</a>
</g>
</g>
<!-- Node1&#45;&gt;Node20 -->
<g id="edge10_Node000001_Node000020" class="edge">
<title>Node1&#45;&gt;Node20</title>
<g id="a_edge10_Node000001_Node000020"><a xlink:title=" ">
<path fill="none" stroke="#63b8ff" d="M237.84,-241.98C229.5,-234.23 216.97,-222.58 206.82,-213.14"/>
<polygon fill="#63b8ff" stroke="#63b8ff" points="209.03,-210.42 199.32,-206.17 204.26,-215.54 209.03,-210.42"/>
</a>
</g>
</g>
<!-- Node3 -->
<g id="Node000003" class="node">
<title>Node3</title>
<g id="a_Node000003"><a xlink:href="map_8hpp.html" target="_top" xlink:title=" ">
<polygon fill="#fff0f0" stroke="red" points="310.5,-145.5 245.5,-145.5 245.5,-126.5 310.5,-126.5 310.5,-145.5"/>
<text text-anchor="middle" x="278" y="-133.5" font-family="Helvetica,sans-Serif" font-size="10.00">./map.hpp</text>
</a>
</g>
</g>
<!-- Node2&#45;&gt;Node3 -->
<g id="edge2_Node000002_Node000003" class="edge">
<title>Node2&#45;&gt;Node3</title>
<g id="a_edge2_Node000002_Node000003"><a xlink:title=" ">
<path fill="none" stroke="#63b8ff" d="M347.9,-186.87C334.94,-177.62 314.14,-162.78 298.6,-151.69"/>
<polygon fill="#63b8ff" stroke="#63b8ff" points="300.32,-148.63 290.15,-145.67 296.26,-154.32 300.32,-148.63"/>
</a>
</g>
</g>
<!-- Node11 -->
<g id="Node000011" class="node">
<title>Node11</title>
<g id="a_Node000011"><a xlink:title=" ">
<polygon fill="#e0e0e0" stroke="#999999" points="479.5,-85 346.5,-85 346.5,-55 479.5,-55 479.5,-85"/>
<text text-anchor="start" x="354.5" y="-73" font-family="Helvetica,sans-Serif" font-size="10.00">emlabcpp/experimental</text>
<text text-anchor="middle" x="413" y="-62" font-family="Helvetica,sans-Serif" font-size="10.00">/string_buffer.h</text>
</a>
</g>
</g>
<!-- Node2&#45;&gt;Node11 -->
<g id="edge7_Node000002_Node000011" class="edge">
<title>Node2&#45;&gt;Node11</title>
<g id="a_edge7_Node000002_Node000011"><a xlink:title=" ">
<path fill="none" stroke="#63b8ff" d="M410.6,-188.18C433.03,-182.14 457.39,-171.12 471,-151 485,-130.3 464.29,-107.26 443.84,-91.24"/>
<polygon fill="#63b8ff" stroke="#63b8ff" points="445.9,-88.41 435.79,-85.25 441.72,-94.03 445.9,-88.41"/>
</a>
</g>
</g>
<!-- Node16 -->
<g id="Node000016" class="node">
<title>Node16</title>
<g id="a_Node000016"><a xlink:title=" ">
<polygon fill="#e0e0e0" stroke="#999999" points="461.5,-151 328.5,-151 328.5,-121 461.5,-121 461.5,-151"/>
<text text-anchor="start" x="336.5" y="-139" font-family="Helvetica,sans-Serif" font-size="10.00">emlabcpp/experimental</text>
<text text-anchor="middle" x="395" y="-128" font-family="Helvetica,sans-Serif" font-size="10.00">/function_view.h</text>
</a>
</g>
</g>
<!-- Node2&#45;&gt;Node16 -->
<g id="edge6_Node000002_Node000016" class="edge">
<title>Node2&#45;&gt;Node16</title>
<g id="a_edge6_Node000002_Node000016"><a xlink:title=" ">
<path fill="none" stroke="#63b8ff" d="M365.16,-186.87C369.43,-179.74 375.68,-169.28 381.37,-159.79"/>
<polygon fill="#63b8ff" stroke="#63b8ff" points="384.42,-161.49 386.56,-151.11 378.42,-157.9 384.42,-161.49"/>
</a>
</g>
</g>
<!-- Node4 -->
<g id="Node000004" class="node">
<title>Node4</title>
<g id="a_Node000004"><a xlink:href="base_8hpp.html" target="_top" xlink:title=" ">
<polygon fill="#fff0f0" stroke="red" points="252,-79.5 182,-79.5 182,-60.5 252,-60.5 252,-79.5"/>
<text text-anchor="middle" x="217" y="-67.5" font-family="Helvetica,sans-Serif" font-size="10.00">../base.hpp</text>
</a>
</g>
</g>
<!-- Node3&#45;&gt;Node4 -->
<g id="edge3_Node000003_Node000004" class="edge">
<title>Node3&#45;&gt;Node4</title>
<g id="a_edge3_Node000003_Node000004"><a xlink:title=" ">
<path fill="none" stroke="#63b8ff" d="M269.77,-126.37C260.28,-116.4 244.44,-99.79 232.59,-87.36"/>
<polygon fill="#63b8ff" stroke="#63b8ff" points="234.92,-84.73 225.49,-79.91 229.85,-89.56 234.92,-84.73"/>
</a>
</g>
</g>
<!-- Node3&#45;&gt;Node11 -->
<g id="edge5_Node000003_Node000011" class="edge">
<title>Node3&#45;&gt;Node11</title>
<g id="a_edge5_Node000003_Node000011"><a xlink:title=" ">
<path fill="none" stroke="#63b8ff" d="M296.21,-126.37C316.08,-116.95 348.48,-101.59 374.12,-89.43"/>
<polygon fill="#63b8ff" stroke="#63b8ff" points="375.69,-92.56 383.22,-85.12 372.69,-86.24 375.69,-92.56"/>
</a>
</g>
</g>
<!-- Node4&#45;&gt;Node6 -->
<g id="edge4_Node000004_Node000006" class="edge">
<title>Node4&#45;&gt;Node6</title>
<g id="a_edge4_Node000004_Node000006"><a xlink:title=" ">
<path fill="none" stroke="#63b8ff" d="M189.08,-60.49C154.95,-50.09 97.17,-32.49 60.07,-21.19"/>
<polygon fill="#63b8ff" stroke="#63b8ff" points="60.78,-17.74 50.2,-18.18 58.74,-24.44 60.78,-17.74"/>
</a>
</g>
</g>
<!-- Node18 -->
<g id="Node000018" class="node">
<title>Node18</title>
<g id="a_Node000018"><a xlink:href="hal_8hpp.html" target="_top" xlink:title=" ">
<polygon fill="#fff0f0" stroke="red" points="571.5,-145.5 518.5,-145.5 518.5,-126.5 571.5,-126.5 571.5,-145.5"/>
<text text-anchor="middle" x="545" y="-133.5" font-family="Helvetica,sans-Serif" font-size="10.00">hal.hpp</text>
</a>
</g>
</g>
<!-- Node17&#45;&gt;Node18 -->
<g id="edge9_Node000017_Node000018" class="edge">
<title>Node17&#45;&gt;Node18</title>
<g id="a_edge9_Node000017_Node000018"><a xlink:title=" ">
<path fill="none" stroke="#63b8ff" d="M526.25,-186.87C529.37,-178.57 534.18,-165.78 538.15,-155.22"/>
<polygon fill="#63b8ff" stroke="#63b8ff" points="541.5,-156.26 541.74,-145.67 534.94,-153.8 541.5,-156.26"/>
</a>
</g>
</g>
<!-- Node20&#45;&gt;Node3 -->
<g id="edge12_Node000020_Node000003" class="edge">
<title>Node20&#45;&gt;Node3</title>
<g id="a_edge12_Node000020_Node000003"><a xlink:title=" ">
<path fill="none" stroke="#63b8ff" d="M202.98,-186.87C217.02,-177.54 239.63,-162.51 256.36,-151.38"/>
<polygon fill="#63b8ff" stroke="#63b8ff" points="258.57,-154.12 264.96,-145.67 254.7,-148.29 258.57,-154.12"/>
</a>
</g>
</g>
<!-- Node20&#45;&gt;Node4 -->
<g id="edge11_Node000020_Node000004" class="edge">
<title>Node20&#45;&gt;Node4</title>
<g id="a_edge11_Node000020_Node000004"><a xlink:title=" ">
<path fill="none" stroke="#63b8ff" d="M191.86,-186.94C196.19,-166.95 207.06,-116.82 212.99,-89.48"/>
<polygon fill="#63b8ff" stroke="#63b8ff" points="216.43,-90.13 215.13,-79.62 209.59,-88.65 216.43,-90.13"/>
</a>
</g>
</g>
<!-- Node20&#45;&gt;Node6 -->
<g id="edge14_Node000020_Node000006" class="edge">
<title>Node20&#45;&gt;Node6</title>
<g id="a_edge14_Node000020_Node000006"><a xlink:title=" ">
<path fill="none" stroke="#63b8ff" d="M143.78,-193.98C110.93,-190.3 68.46,-179.77 44,-151 14.58,-116.4 17.7,-58.69 21.73,-29.16"/>
<polygon fill="#63b8ff" stroke="#63b8ff" points="25.23,-29.43 23.32,-19.01 18.32,-28.35 25.23,-29.43"/>
</a>
</g>
</g>
<!-- Node21 -->
<g id="Node000021" class="node">
<title>Node21</title>
<g id="a_Node000021"><a xlink:href="status_8hpp.html" target="_top" xlink:title=" ">
<polygon fill="#fff0f0" stroke="red" points="130.5,-145.5 53.5,-145.5 53.5,-126.5 130.5,-126.5 130.5,-145.5"/>
<text text-anchor="middle" x="92" y="-133.5" font-family="Helvetica,sans-Serif" font-size="10.00">../status.hpp</text>
</a>
</g>
</g>
<!-- Node20&#45;&gt;Node21 -->
<g id="edge13_Node000020_Node000021" class="edge">
<title>Node20&#45;&gt;Node21</title>
<g id="a_edge13_Node000020_Node000021"><a xlink:title=" ">
<path fill="none" stroke="#63b8ff" d="M175.54,-186.87C159.69,-177.41 134.03,-162.09 115.32,-150.92"/>
<polygon fill="#63b8ff" stroke="#63b8ff" points="116.9,-147.79 106.52,-145.67 113.31,-153.8 116.9,-147.79"/>
</a>
</g>
</g>
<!-- Node24 -->
<g id="Node000024" class="node">
<title>Node24</title>
<g id="a_Node000024"><a xlink:title=" ">
<polygon fill="#e0e0e0" stroke="#999999" points="189,-145.5 149,-145.5 149,-126.5 189,-126.5 189,-145.5"/>
<text text-anchor="middle" x="169" y="-133.5" font-family="Helvetica,sans-Serif" font-size="10.00">span</text>
</a>
</g>
</g>
<!-- Node20&#45;&gt;Node24 -->
<g id="edge15_Node000020_Node000024" class="edge">
<title>Node20&#45;&gt;Node24</title>
<g id="a_edge15_Node000020_Node000024"><a xlink:title=" ">
<path fill="none" stroke="#63b8ff" d="M186.9,-186.87C183.92,-178.57 179.33,-165.78 175.54,-155.22"/>
<polygon fill="#63b8ff" stroke="#63b8ff" points="178.78,-153.9 172.11,-145.67 172.2,-156.26 178.78,-153.9"/>
</a>
</g>
</g>
</g>
</svg>
