<?xml version="1.0" encoding="UTF-8" standalone="no"?>
<!DOCTYPE svg PUBLIC "-//W3C//DTD SVG 1.1//EN"
 "http://www.w3.org/Graphics/SVG/1.1/DTD/svg11.dtd">
<!-- Generated by graphviz version 2.43.0 (0)
 -->
<!-- Title: src/drv/dts_temp.hpp Pages: 1 -->
<svg width="801pt" height="252pt"
 viewBox="0.00 0.00 801.00 252.00" xmlns="http://www.w3.org/2000/svg" xmlns:xlink="http://www.w3.org/1999/xlink">
<g id="graph0" class="graph" transform="scale(1 1) rotate(0) translate(4 248)">
<title>src/drv/dts_temp.hpp</title>
<polygon fill="white" stroke="transparent" points="-4,4 -4,-248 797,-248 797,4 -4,4"/>
<!-- Node1 -->
<g id="node1" class="node">
<title>Node1</title>
<g id="a_node1"><a xlink:title=" ">
<polygon fill="#bfbfbf" stroke="black" points="208.5,-224.5 208.5,-243.5 327.5,-243.5 327.5,-224.5 208.5,-224.5"/>
<text text-anchor="middle" x="268" y="-231.5" font-family="Helvetica,sans-Serif" font-size="10.00">src/drv/dts_temp.hpp</text>
</a>
</g>
</g>
<!-- Node2 -->
<g id="node2" class="node">
<title>Node2</title>
<g id="a_node2"><a xlink:href="util_8hpp.html" target="_top" xlink:title=" ">
<polygon fill="white" stroke="black" points="94.5,-168.5 94.5,-187.5 171.5,-187.5 171.5,-168.5 94.5,-168.5"/>
<text text-anchor="middle" x="133" y="-175.5" font-family="Helvetica,sans-Serif" font-size="10.00">../fw/util.hpp</text>
</a>
</g>
</g>
<!-- Node1&#45;&gt;Node2 -->
<g id="edge1" class="edge">
<title>Node1&#45;&gt;Node2</title>
<path fill="none" stroke="midnightblue" d="M246.61,-224.44C224.29,-215.52 189.1,-201.44 163.79,-191.32"/>
<polygon fill="midnightblue" stroke="midnightblue" points="164.88,-187.98 154.29,-187.52 162.28,-194.48 164.88,-187.98"/>
</g>
<!-- Node6 -->
<g id="node6" class="node">
<title>Node6</title>
<g id="a_node6"><a xlink:href="platform_8hpp.html" target="_top" xlink:title=" ">
<polygon fill="white" stroke="black" points="216,-168.5 216,-187.5 320,-187.5 320,-168.5 216,-168.5"/>
<text text-anchor="middle" x="268" y="-175.5" font-family="Helvetica,sans-Serif" font-size="10.00">../plt/platform.hpp</text>
</a>
</g>
</g>
<!-- Node1&#45;&gt;Node6 -->
<g id="edge5" class="edge">
<title>Node1&#45;&gt;Node6</title>
<path fill="none" stroke="midnightblue" d="M268,-224.08C268,-217.01 268,-206.86 268,-197.99"/>
<polygon fill="midnightblue" stroke="midnightblue" points="271.5,-197.75 268,-187.75 264.5,-197.75 271.5,-197.75"/>
</g>
<!-- Node9 -->
<g id="node8" class="node">
<title>Node9</title>
<g id="a_node8"><a xlink:href="interfaces_8hpp.html" target="_top" xlink:title=" ">
<polygon fill="white" stroke="black" points="419,-168.5 419,-187.5 511,-187.5 511,-168.5 419,-168.5"/>
<text text-anchor="middle" x="465" y="-175.5" font-family="Helvetica,sans-Serif" font-size="10.00">./interfaces.hpp</text>
</a>
</g>
</g>
<!-- Node1&#45;&gt;Node9 -->
<g id="edge7" class="edge">
<title>Node1&#45;&gt;Node9</title>
<path fill="none" stroke="midnightblue" d="M299.22,-224.44C332.93,-215.2 386.8,-200.44 423.93,-190.26"/>
<polygon fill="midnightblue" stroke="midnightblue" points="425.21,-193.54 433.93,-187.52 423.36,-186.78 425.21,-193.54"/>
</g>
<!-- Node3 -->
<g id="node3" class="node">
<title>Node3</title>
<g id="a_node3"><a xlink:title=" ">
<polygon fill="white" stroke="#bfbfbf" points="0,-112.5 0,-131.5 64,-131.5 64,-112.5 0,-112.5"/>
<text text-anchor="middle" x="32" y="-119.5" font-family="Helvetica,sans-Serif" font-size="10.00">algorithm</text>
</a>
</g>
</g>
<!-- Node2&#45;&gt;Node3 -->
<g id="edge2" class="edge">
<title>Node2&#45;&gt;Node3</title>
<path fill="none" stroke="midnightblue" d="M116.77,-168.32C100.65,-159.7 75.7,-146.36 57.04,-136.39"/>
<polygon fill="midnightblue" stroke="midnightblue" points="58.66,-133.28 48.19,-131.65 55.36,-139.46 58.66,-133.28"/>
</g>
<!-- Node4 -->
<g id="node4" class="node">
<title>Node4</title>
<g id="a_node4"><a xlink:title=" ">
<polygon fill="white" stroke="#bfbfbf" points="82,-112.5 82,-131.5 132,-131.5 132,-112.5 82,-112.5"/>
<text text-anchor="middle" x="107" y="-119.5" font-family="Helvetica,sans-Serif" font-size="10.00">cstring</text>
</a>
</g>
</g>
<!-- Node2&#45;&gt;Node4 -->
<g id="edge3" class="edge">
<title>Node2&#45;&gt;Node4</title>
<path fill="none" stroke="midnightblue" d="M128.71,-168.08C125.15,-160.69 119.98,-149.95 115.58,-140.81"/>
<polygon fill="midnightblue" stroke="midnightblue" points="118.71,-139.24 111.21,-131.75 112.4,-142.28 118.71,-139.24"/>
</g>
<!-- Node5 -->
<g id="node5" class="node">
<title>Node5</title>
<g id="a_node5"><a xlink:title=" ">
<polygon fill="white" stroke="#bfbfbf" points="150.5,-112.5 150.5,-131.5 223.5,-131.5 223.5,-112.5 150.5,-112.5"/>
<text text-anchor="middle" x="187" y="-119.5" font-family="Helvetica,sans-Serif" font-size="10.00">string_view</text>
</a>
</g>
</g>
<!-- Node2&#45;&gt;Node5 -->
<g id="edge4" class="edge">
<title>Node2&#45;&gt;Node5</title>
<path fill="none" stroke="midnightblue" d="M141.92,-168.08C149.78,-160.22 161.43,-148.57 170.92,-139.08"/>
<polygon fill="midnightblue" stroke="midnightblue" points="173.65,-141.3 178.25,-131.75 168.7,-136.35 173.65,-141.3"/>
</g>
<!-- Node7 -->
<g id="node7" class="node">
<title>Node7</title>
<g id="a_node7"><a xlink:href="hal_8hpp.html" target="_top" xlink:title=" ">
<polygon fill="white" stroke="red" points="241.5,-112.5 241.5,-131.5 294.5,-131.5 294.5,-112.5 241.5,-112.5"/>
<text text-anchor="middle" x="268" y="-119.5" font-family="Helvetica,sans-Serif" font-size="10.00">hal.hpp</text>
</a>
</g>
</g>
<!-- Node6&#45;&gt;Node7 -->
<g id="edge6" class="edge">
<title>Node6&#45;&gt;Node7</title>
<path fill="none" stroke="midnightblue" d="M268,-168.08C268,-161.01 268,-150.86 268,-141.99"/>
<polygon fill="midnightblue" stroke="midnightblue" points="271.5,-141.75 268,-131.75 264.5,-141.75 271.5,-141.75"/>
</g>
<!-- Node10 -->
<g id="node9" class="node">
<title>Node10</title>
<g id="a_node9"><a xlink:href="base_2base_8hpp.html" target="_top" xlink:title=" ">
<polygon fill="white" stroke="red" points="341,-56.5 341,-75.5 437,-75.5 437,-56.5 341,-56.5"/>
<text text-anchor="middle" x="389" y="-63.5" font-family="Helvetica,sans-Serif" font-size="10.00">../base/base.hpp</text>
</a>
</g>
</g>
<!-- Node9&#45;&gt;Node10 -->
<g id="edge8" class="edge">
<title>Node9&#45;&gt;Node10</title>
<path fill="none" stroke="midnightblue" d="M418.79,-172.93C391.6,-167.88 359.26,-156.69 342,-132 329.73,-114.44 349.17,-94.52 366.65,-81.41"/>
<polygon fill="midnightblue" stroke="midnightblue" points="368.78,-84.19 374.93,-75.56 364.74,-78.47 368.78,-84.19"/>
</g>
<!-- Node12 -->
<g id="node10" class="node">
<title>Node12</title>
<g id="a_node10"><a xlink:title=" ">
<polygon fill="white" stroke="#bfbfbf" points="402,-0.5 402,-19.5 452,-19.5 452,-0.5 402,-0.5"/>
<text text-anchor="middle" x="427" y="-7.5" font-family="Helvetica,sans-Serif" font-size="10.00">cstdint</text>
</a>
</g>
</g>
<!-- Node9&#45;&gt;Node12 -->
<g id="edge12" class="edge">
<title>Node9&#45;&gt;Node12</title>
<path fill="none" stroke="midnightblue" d="M464.37,-168.34C462.75,-148.26 457.71,-97.1 446,-56 443.39,-46.82 439.4,-37.02 435.75,-28.92"/>
<polygon fill="midnightblue" stroke="midnightblue" points="438.86,-27.3 431.44,-19.73 432.52,-30.27 438.86,-27.3"/>
</g>
<!-- Node16 -->
<g id="node11" class="node">
<title>Node16</title>
<g id="a_node11"><a xlink:href="map_8hpp.html" target="_top" xlink:title=" ">
<polygon fill="white" stroke="red" points="351,-112.5 351,-131.5 437,-131.5 437,-112.5 351,-112.5"/>
<text text-anchor="middle" x="394" y="-119.5" font-family="Helvetica,sans-Serif" font-size="10.00">../cfg/map.hpp</text>
</a>
</g>
</g>
<!-- Node9&#45;&gt;Node16 -->
<g id="edge10" class="edge">
<title>Node9&#45;&gt;Node16</title>
<path fill="none" stroke="midnightblue" d="M453.59,-168.32C442.89,-160.18 426.66,-147.84 413.84,-138.09"/>
<polygon fill="midnightblue" stroke="midnightblue" points="415.69,-135.1 405.61,-131.83 411.46,-140.67 415.69,-135.1"/>
</g>
<!-- Node23 -->
<g id="node12" class="node">
<title>Node23</title>
<g id="a_node12"><a xlink:title=" ">
<polygon fill="white" stroke="#bfbfbf" points="493.5,-112.5 493.5,-131.5 612.5,-131.5 612.5,-112.5 493.5,-112.5"/>
<text text-anchor="middle" x="553" y="-119.5" font-family="Helvetica,sans-Serif" font-size="10.00">emlabcpp/outcome.h</text>
</a>
</g>
</g>
<!-- Node9&#45;&gt;Node23 -->
<g id="edge13" class="edge">
<title>Node9&#45;&gt;Node23</title>
<path fill="none" stroke="midnightblue" d="M479.14,-168.32C492.87,-159.9 513.94,-146.97 530.06,-137.07"/>
<polygon fill="midnightblue" stroke="midnightblue" points="532.2,-139.87 538.9,-131.65 528.54,-133.9 532.2,-139.87"/>
</g>
<!-- Node24 -->
<g id="node13" class="node">
<title>Node24</title>
<g id="a_node13"><a xlink:title=" ">
<polygon fill="white" stroke="#bfbfbf" points="631,-112.5 631,-131.5 735,-131.5 735,-112.5 631,-112.5"/>
<text text-anchor="middle" x="683" y="-119.5" font-family="Helvetica,sans-Serif" font-size="10.00">emlabcpp/result.h</text>
</a>
</g>
</g>
<!-- Node9&#45;&gt;Node24 -->
<g id="edge14" class="edge">
<title>Node9&#45;&gt;Node24</title>
<path fill="none" stroke="midnightblue" d="M499.54,-168.44C537.25,-159.1 597.74,-144.12 638.86,-133.93"/>
<polygon fill="midnightblue" stroke="midnightblue" points="639.75,-137.32 648.62,-131.52 638.07,-130.52 639.75,-137.32"/>
</g>
<!-- Node25 -->
<g id="node14" class="node">
<title>Node25</title>
<g id="a_node14"><a xlink:title=" ">
<polygon fill="white" stroke="#bfbfbf" points="753,-112.5 753,-131.5 793,-131.5 793,-112.5 753,-112.5"/>
<text text-anchor="middle" x="773" y="-119.5" font-family="Helvetica,sans-Serif" font-size="10.00">span</text>
</a>
</g>
</g>
<!-- Node9&#45;&gt;Node25 -->
<g id="edge15" class="edge">
<title>Node9&#45;&gt;Node25</title>
<path fill="none" stroke="midnightblue" d="M511.3,-171.56C564.96,-164.82 656.15,-151.96 743.06,-131.94"/>
<polygon fill="midnightblue" stroke="midnightblue" points="743.88,-135.35 752.82,-129.66 742.28,-128.53 743.88,-135.35"/>
</g>
<!-- Node10&#45;&gt;Node12 -->
<g id="edge9" class="edge">
<title>Node10&#45;&gt;Node12</title>
<path fill="none" stroke="midnightblue" d="M395.27,-56.08C400.64,-48.46 408.52,-37.26 415.08,-27.94"/>
<polygon fill="midnightblue" stroke="midnightblue" points="417.95,-29.94 420.84,-19.75 412.22,-25.91 417.95,-29.94"/>
</g>
<!-- Node16&#45;&gt;Node10 -->
<g id="edge11" class="edge">
<title>Node16&#45;&gt;Node10</title>
<path fill="none" stroke="midnightblue" d="M393.17,-112.08C392.52,-105.01 391.58,-94.86 390.76,-85.99"/>
<polygon fill="midnightblue" stroke="midnightblue" points="394.22,-85.39 389.81,-75.75 387.25,-86.03 394.22,-85.39"/>
</g>
</g>
</svg>
