<?xml version="1.0" encoding="UTF-8" standalone="no"?>
<!DOCTYPE svg PUBLIC "-//W3C//DTD SVG 1.1//EN"
 "http://www.w3.org/Graphics/SVG/1.1/DTD/svg11.dtd">
<!-- Generated by graphviz version 2.43.0 (0)
 -->
<!-- Title: src/plt/stm32h5/dts.cpp Pages: 1 -->
<svg width="429pt" height="192pt"
 viewBox="0.00 0.00 428.50 192.00" xmlns="http://www.w3.org/2000/svg" xmlns:xlink="http://www.w3.org/1999/xlink">
<g id="graph0" class="graph" transform="scale(1 1) rotate(0) translate(4 188)">
<title>src/plt/stm32h5/dts.cpp</title>
<!-- Node1 -->
<g id="Node000001" class="node">
<title>Node1</title>
<g id="a_Node000001"><a xlink:title=" ">
<polygon fill="#999999" stroke="#666666" points="296,-184 165,-184 165,-165 296,-165 296,-184"/>
<text text-anchor="middle" x="230.5" y="-172" font-family="Helvetica,sans-Serif" font-size="10.00">src/plt/stm32h5/dts.cpp</text>
</a>
</g>
</g>
<!-- Node2 -->
<g id="Node000002" class="node">
<title>Node2</title>
<g id="a_Node000002"><a xlink:href="plt_2stm32h5_2setup_8hpp.html" target="_top" xlink:title=" ">
<polygon fill="white" stroke="#666666" points="263,-129 198,-129 198,-110 263,-110 263,-129"/>
<text text-anchor="middle" x="230.5" y="-117" font-family="Helvetica,sans-Serif" font-size="10.00">setup.hpp</text>
</a>
</g>
</g>
<!-- Node1&#45;&gt;Node2 -->
<g id="edge1_Node000001_Node000002" class="edge">
<title>Node1&#45;&gt;Node2</title>
<g id="a_edge1_Node000001_Node000002"><a xlink:title=" ">
<path fill="none" stroke="#63b8ff" d="M230.5,-164.75C230.5,-157.8 230.5,-147.85 230.5,-139.13"/>
<polygon fill="#63b8ff" stroke="#63b8ff" points="234,-139.09 230.5,-129.09 227,-139.09 234,-139.09"/>
</a>
</g>
</g>
<!-- Node3 -->
<g id="Node000003" class="node">
<title>Node3</title>
<g id="a_Node000003"><a xlink:href="cfg_2def_8hpp.html" target="_top" xlink:title=" ">
<polygon fill="#fff0f0" stroke="red" points="89,-74 0,-74 0,-55 89,-55 89,-74"/>
<text text-anchor="middle" x="44.5" y="-62" font-family="Helvetica,sans-Serif" font-size="10.00">../../cfg/def.hpp</text>
</a>
</g>
</g>
<!-- Node2&#45;&gt;Node3 -->
<g id="edge2_Node000002_Node000003" class="edge">
<title>Node2&#45;&gt;Node3</title>
<g id="a_edge2_Node000002_Node000003"><a xlink:title=" ">
<path fill="none" stroke="#63b8ff" d="M200.62,-109.98C169.12,-101.01 119.33,-86.82 84.47,-76.89"/>
<polygon fill="#63b8ff" stroke="#63b8ff" points="85.19,-73.46 74.62,-74.08 83.28,-80.19 85.19,-73.46"/>
</a>
</g>
</g>
<!-- Node13 -->
<g id="Node000013" class="node">
<title>Node13</title>
<g id="a_Node000013"><a xlink:href="defs_8hpp.html" target="_top" xlink:title=" ">
<polygon fill="#fff0f0" stroke="red" points="202,-74 107,-74 107,-55 202,-55 202,-74"/>
<text text-anchor="middle" x="154.5" y="-62" font-family="Helvetica,sans-Serif" font-size="10.00">../../drv/defs.hpp</text>
</a>
</g>
</g>
<!-- Node2&#45;&gt;Node13 -->
<g id="edge3_Node000002_Node000013" class="edge">
<title>Node2&#45;&gt;Node13</title>
<g id="a_edge3_Node000002_Node000013"><a xlink:title=" ">
<path fill="none" stroke="#63b8ff" d="M218.29,-109.98C206.72,-101.92 189.12,-89.65 175.34,-80.03"/>
<polygon fill="#63b8ff" stroke="#63b8ff" points="177.14,-77.02 166.93,-74.17 173.13,-82.76 177.14,-77.02"/>
</a>
</g>
</g>
<!-- Node10 -->
<g id="Node000010" class="node">
<title>Node10</title>
<g id="a_Node000010"><a xlink:title=" ">
<polygon fill="#e0e0e0" stroke="#999999" points="220.5,-19 164.5,-19 164.5,0 220.5,0 220.5,-19"/>
<text text-anchor="middle" x="192.5" y="-7" font-family="Helvetica,sans-Serif" font-size="10.00">optional</text>
</a>
</g>
</g>
<!-- Node2&#45;&gt;Node10 -->
<g id="edge7_Node000002_Node000010" class="edge">
<title>Node2&#45;&gt;Node10</title>
<g id="a_edge7_Node000002_Node000010"><a xlink:title=" ">
<path fill="none" stroke="#63b8ff" d="M228.22,-109.77C224.93,-97.44 218.47,-74.26 211.5,-55 208.28,-46.11 204.23,-36.44 200.69,-28.39"/>
<polygon fill="#63b8ff" stroke="#63b8ff" points="203.87,-26.94 196.58,-19.25 197.48,-29.8 203.87,-26.94"/>
</a>
</g>
</g>
<!-- Node17 -->
<g id="Node000017" class="node">
<title>Node17</title>
<g id="a_Node000017"><a xlink:href="status_8hpp.html" target="_top" xlink:title=" ">
<polygon fill="#fff0f0" stroke="red" points="344.5,-74 258.5,-74 258.5,-55 344.5,-55 344.5,-74"/>
<text text-anchor="middle" x="301.5" y="-62" font-family="Helvetica,sans-Serif" font-size="10.00">../../status.hpp</text>
</a>
</g>
</g>
<!-- Node2&#45;&gt;Node17 -->
<g id="edge5_Node000002_Node000017" class="edge">
<title>Node2&#45;&gt;Node17</title>
<g id="a_edge5_Node000002_Node000017"><a xlink:title=" ">
<path fill="none" stroke="#63b8ff" d="M241.91,-109.98C252.61,-102 268.84,-89.88 281.66,-80.31"/>
<polygon fill="#63b8ff" stroke="#63b8ff" points="283.97,-82.96 289.89,-74.17 279.78,-77.35 283.97,-82.96"/>
</a>
</g>
</g>
<!-- Node20 -->
<g id="Node000020" class="node">
<title>Node20</title>
<g id="a_Node000020"><a xlink:title=" ">
<polygon fill="#e0e0e0" stroke="#999999" points="420.5,-74 362.5,-74 362.5,-55 420.5,-55 420.5,-74"/>
<text text-anchor="middle" x="391.5" y="-62" font-family="Helvetica,sans-Serif" font-size="10.00">memory</text>
</a>
</g>
</g>
<!-- Node2&#45;&gt;Node20 -->
<g id="edge6_Node000002_Node000020" class="edge">
<title>Node2&#45;&gt;Node20</title>
<g id="a_edge6_Node000002_Node000020"><a xlink:title=" ">
<path fill="none" stroke="#63b8ff" d="M256.37,-109.98C283.28,-101.13 325.62,-87.19 355.73,-77.28"/>
<polygon fill="#63b8ff" stroke="#63b8ff" points="357.03,-80.53 365.43,-74.08 354.84,-73.88 357.03,-80.53"/>
</a>
</g>
</g>
<!-- Node13&#45;&gt;Node10 -->
<g id="edge4_Node000013_Node000010" class="edge">
<title>Node13&#45;&gt;Node10</title>
<g id="a_edge4_Node000013_Node000010"><a xlink:title=" ">
<path fill="none" stroke="#63b8ff" d="M160.77,-54.75C166.09,-47.34 173.86,-36.5 180.38,-27.41"/>
<polygon fill="#63b8ff" stroke="#63b8ff" points="183.36,-29.26 186.34,-19.09 177.67,-25.18 183.36,-29.26"/>
</a>
</g>
</g>
</g>
</svg>
