<?xml version="1.0" encoding="UTF-8" standalone="no"?>
<!DOCTYPE svg PUBLIC "-//W3C//DTD SVG 1.1//EN"
 "http://www.w3.org/Graphics/SVG/1.1/DTD/svg11.dtd">
<!-- Generated by graphviz version 2.43.0 (0)
 -->
<!-- Title: src/mon/effects.cpp Pages: 1 -->
<svg width="156pt" height="192pt"
 viewBox="0.00 0.00 156.00 192.00" xmlns="http://www.w3.org/2000/svg" xmlns:xlink="http://www.w3.org/1999/xlink">
<g id="graph0" class="graph" transform="scale(1 1) rotate(0) translate(4 188)">
<title>src/mon/effects.cpp</title>
<!-- Node1 -->
<g id="Node000001" class="node">
<title>Node1</title>
<g id="a_Node000001"><a xlink:title=" ">
<polygon fill="#999999" stroke="#666666" points="142,-184 30,-184 30,-165 142,-165 142,-184"/>
<text text-anchor="middle" x="86" y="-172" font-family="Helvetica,sans-Serif" font-size="10.00">src/mon/effects.cpp</text>
</a>
</g>
</g>
<!-- Node2 -->
<g id="Node000002" class="node">
<title>Node2</title>
<g id="a_Node000002"><a xlink:href="effects_8hpp.html" target="_top" xlink:title=" ">
<polygon fill="white" stroke="#666666" points="91.5,-129 14.5,-129 14.5,-110 91.5,-110 91.5,-129"/>
<text text-anchor="middle" x="53" y="-117" font-family="Helvetica,sans-Serif" font-size="10.00">./effects.hpp</text>
</a>
</g>
</g>
<!-- Node1&#45;&gt;Node2 -->
<g id="edge1_Node000001_Node000002" class="edge">
<title>Node1&#45;&gt;Node2</title>
<g id="a_edge1_Node000001_Node000002"><a xlink:title=" ">
<path fill="none" stroke="#63b8ff" d="M80.55,-164.75C75.99,-157.42 69.33,-146.73 63.71,-137.7"/>
<polygon fill="#63b8ff" stroke="#63b8ff" points="66.6,-135.73 58.35,-129.09 60.66,-139.43 66.6,-135.73"/>
</a>
</g>
</g>
<!-- Node6 -->
<g id="Node000006" class="node">
<title>Node6</title>
<g id="a_Node000006"><a xlink:title=" ">
<polygon fill="#e0e0e0" stroke="#999999" points="148,-19 24,-19 24,0 148,0 148,-19"/>
<text text-anchor="middle" x="86" y="-7" font-family="Helvetica,sans-Serif" font-size="10.00">emlabcpp/algorithm.h</text>
</a>
</g>
</g>
<!-- Node1&#45;&gt;Node6 -->
<g id="edge4_Node000001_Node000006" class="edge">
<title>Node1&#45;&gt;Node6</title>
<g id="a_edge4_Node000001_Node000006"><a xlink:title=" ">
<path fill="none" stroke="#63b8ff" d="M89.66,-164.81C93.21,-155.97 98.42,-141.79 101,-129 107.51,-96.71 111.6,-87.27 105,-55 103.11,-45.74 99.21,-36.03 95.43,-28.04"/>
<polygon fill="#63b8ff" stroke="#63b8ff" points="98.51,-26.37 90.88,-19.02 92.26,-29.53 98.51,-26.37"/>
</a>
</g>
</g>
<!-- Node3 -->
<g id="Node000003" class="node">
<title>Node3</title>
<g id="a_Node000003"><a xlink:href="base_2base_8hpp.html" target="_top" xlink:title=" ">
<polygon fill="#fff0f0" stroke="red" points="96,-74 0,-74 0,-55 96,-55 96,-74"/>
<text text-anchor="middle" x="48" y="-62" font-family="Helvetica,sans-Serif" font-size="10.00">../base/base.hpp</text>
</a>
</g>
</g>
<!-- Node2&#45;&gt;Node3 -->
<g id="edge2_Node000002_Node000003" class="edge">
<title>Node2&#45;&gt;Node3</title>
<g id="a_edge2_Node000002_Node000003"><a xlink:title=" ">
<path fill="none" stroke="#63b8ff" d="M52.17,-109.75C51.52,-102.8 50.58,-92.85 49.76,-84.13"/>
<polygon fill="#63b8ff" stroke="#63b8ff" points="53.23,-83.72 48.81,-74.09 46.27,-84.37 53.23,-83.72"/>
</a>
</g>
</g>
<!-- Node3&#45;&gt;Node6 -->
<g id="edge3_Node000003_Node000006" class="edge">
<title>Node3&#45;&gt;Node6</title>
<g id="a_edge3_Node000003_Node000006"><a xlink:title=" ">
<path fill="none" stroke="#63b8ff" d="M54.27,-54.75C59.59,-47.34 67.36,-36.5 73.88,-27.41"/>
<polygon fill="#63b8ff" stroke="#63b8ff" points="76.86,-29.26 79.84,-19.09 71.17,-25.18 76.86,-29.26"/>
</a>
</g>
</g>
</g>
</svg>
