<?xml version="1.0" encoding="UTF-8" standalone="no"?>
<!DOCTYPE svg PUBLIC "-//W3C//DTD SVG 1.1//EN"
 "http://www.w3.org/Graphics/SVG/1.1/DTD/svg11.dtd">
<!-- Generated by graphviz version 2.43.0 (0)
 -->
<!-- Title: src/mon/tests/effects_utest.cpp Pages: 1 -->
<svg width="222pt" height="203pt"
 viewBox="0.00 0.00 222.00 203.00" xmlns="http://www.w3.org/2000/svg" xmlns:xlink="http://www.w3.org/1999/xlink">
<g id="graph0" class="graph" transform="scale(1 1) rotate(0) translate(4 199)">
<title>src/mon/tests/effects_utest.cpp</title>
<!-- Node1 -->
<g id="Node000001" class="node">
<title>Node1</title>
<g id="a_Node000001"><a xlink:title=" ">
<polygon fill="#999999" stroke="#666666" points="167.5,-195 48.5,-195 48.5,-165 167.5,-165 167.5,-195"/>
<text text-anchor="start" x="56.5" y="-183" font-family="Helvetica,sans-Serif" font-size="10.00">src/mon/tests/effects</text>
<text text-anchor="middle" x="108" y="-172" font-family="Helvetica,sans-Serif" font-size="10.00">_utest.cpp</text>
</a>
</g>
</g>
<!-- Node2 -->
<g id="Node000002" class="node">
<title>Node2</title>
<g id="a_Node000002"><a xlink:href="effects_8hpp.html" target="_top" xlink:title=" ">
<polygon fill="white" stroke="#666666" points="80,-129 0,-129 0,-110 80,-110 80,-129"/>
<text text-anchor="middle" x="40" y="-117" font-family="Helvetica,sans-Serif" font-size="10.00">../effects.hpp</text>
</a>
</g>
</g>
<!-- Node1&#45;&gt;Node2 -->
<g id="edge1_Node000001_Node000002" class="edge">
<title>Node1&#45;&gt;Node2</title>
<g id="a_edge1_Node000001_Node000002"><a xlink:title=" ">
<path fill="none" stroke="#63b8ff" d="M91.54,-164.84C81.37,-156.09 68.31,-144.85 57.88,-135.88"/>
<polygon fill="#63b8ff" stroke="#63b8ff" points="60.05,-133.13 50.19,-129.27 55.49,-138.44 60.05,-133.13"/>
</a>
</g>
</g>
<!-- Node6 -->
<g id="Node000006" class="node">
<title>Node6</title>
<g id="a_Node000006"><a xlink:title=" ">
<polygon fill="#e0e0e0" stroke="#999999" points="137,-19 13,-19 13,0 137,0 137,-19"/>
<text text-anchor="middle" x="75" y="-7" font-family="Helvetica,sans-Serif" font-size="10.00">emlabcpp/algorithm.h</text>
</a>
</g>
</g>
<!-- Node1&#45;&gt;Node6 -->
<g id="edge4_Node000001_Node000006" class="edge">
<title>Node1&#45;&gt;Node6</title>
<g id="a_edge4_Node000001_Node000006"><a xlink:title=" ">
<path fill="none" stroke="#63b8ff" d="M105.8,-164.81C102.14,-141.7 94.39,-94.57 86,-55 84.18,-46.44 81.9,-37.02 79.88,-29.06"/>
<polygon fill="#63b8ff" stroke="#63b8ff" points="83.26,-28.13 77.37,-19.33 76.48,-29.88 83.26,-28.13"/>
</a>
</g>
</g>
<!-- Node9 -->
<g id="Node000009" class="node">
<title>Node9</title>
<g id="a_Node000009"><a xlink:title=" ">
<polygon fill="#e0e0e0" stroke="#999999" points="214,-129 136,-129 136,-110 214,-110 214,-129"/>
<text text-anchor="middle" x="175" y="-117" font-family="Helvetica,sans-Serif" font-size="10.00">gtest/gtest.h</text>
</a>
</g>
</g>
<!-- Node1&#45;&gt;Node9 -->
<g id="edge5_Node000001_Node000009" class="edge">
<title>Node1&#45;&gt;Node9</title>
<g id="a_edge5_Node000001_Node000009"><a xlink:title=" ">
<path fill="none" stroke="#63b8ff" d="M124.22,-164.84C134.24,-156.09 147.11,-144.85 157.38,-135.88"/>
<polygon fill="#63b8ff" stroke="#63b8ff" points="159.73,-138.48 164.96,-129.27 155.13,-133.21 159.73,-138.48"/>
</a>
</g>
</g>
<!-- Node3 -->
<g id="Node000003" class="node">
<title>Node3</title>
<g id="a_Node000003"><a xlink:href="base_8hpp.html" target="_top" xlink:title=" ">
<polygon fill="#fff0f0" stroke="red" points="77,-74 7,-74 7,-55 77,-55 77,-74"/>
<text text-anchor="middle" x="42" y="-62" font-family="Helvetica,sans-Serif" font-size="10.00">../base.hpp</text>
</a>
</g>
</g>
<!-- Node2&#45;&gt;Node3 -->
<g id="edge2_Node000002_Node000003" class="edge">
<title>Node2&#45;&gt;Node3</title>
<g id="a_edge2_Node000002_Node000003"><a xlink:title=" ">
<path fill="none" stroke="#63b8ff" d="M40.33,-109.75C40.59,-102.8 40.97,-92.85 41.3,-84.13"/>
<polygon fill="#63b8ff" stroke="#63b8ff" points="44.8,-84.21 41.68,-74.09 37.8,-83.95 44.8,-84.21"/>
</a>
</g>
</g>
<!-- Node3&#45;&gt;Node6 -->
<g id="edge3_Node000003_Node000006" class="edge">
<title>Node3&#45;&gt;Node6</title>
<g id="a_edge3_Node000003_Node000006"><a xlink:title=" ">
<path fill="none" stroke="#63b8ff" d="M47.45,-54.75C52.01,-47.42 58.67,-36.73 64.29,-27.7"/>
<polygon fill="#63b8ff" stroke="#63b8ff" points="67.34,-29.43 69.65,-19.09 61.4,-25.73 67.34,-29.43"/>
</a>
</g>
</g>
</g>
</svg>
