<?xml version="1.0" encoding="UTF-8" standalone="no"?>
<!DOCTYPE svg PUBLIC "-//W3C//DTD SVG 1.1//EN"
 "http://www.w3.org/Graphics/SVG/1.1/DTD/svg11.dtd">
<!-- Generated by graphviz version 2.43.0 (0)
 -->
<!-- Title: src/mon/effects.cpp Pages: 1 -->
<svg width="190pt" height="192pt"
 viewBox="0.00 0.00 190.00 192.00" xmlns="http://www.w3.org/2000/svg" xmlns:xlink="http://www.w3.org/1999/xlink">
<g id="graph0" class="graph" transform="scale(1 1) rotate(0) translate(4 188)">
<title>src/mon/effects.cpp</title>
<!-- Node1 -->
<g id="Node000001" class="node">
<title>Node1</title>
<g id="a_Node000001"><a xlink:title=" ">
<polygon fill="#999999" stroke="#666666" points="182,-184 70,-184 70,-165 182,-165 182,-184"/>
<text text-anchor="middle" x="126" y="-172" font-family="Helvetica,sans-Serif" font-size="10.00">src/mon/effects.cpp</text>
</a>
</g>
</g>
<!-- Node2 -->
<g id="Node000002" class="node">
<title>Node2</title>
<g id="a_Node000002"><a xlink:href="effects_8hpp.html" target="_top" xlink:title=" ">
<polygon fill="white" stroke="#666666" points="131.5,-129 54.5,-129 54.5,-110 131.5,-110 131.5,-129"/>
<text text-anchor="middle" x="93" y="-117" font-family="Helvetica,sans-Serif" font-size="10.00">./effects.hpp</text>
</a>
</g>
</g>
<!-- Node1&#45;&gt;Node2 -->
<g id="edge1_Node000001_Node000002" class="edge">
<title>Node1&#45;&gt;Node2</title>
<g id="a_edge1_Node000001_Node000002"><a xlink:title=" ">
<path fill="none" stroke="#63b8ff" d="M120.55,-164.75C115.99,-157.42 109.33,-146.73 103.71,-137.7"/>
<polygon fill="#63b8ff" stroke="#63b8ff" points="106.6,-135.73 98.35,-129.09 100.66,-139.43 106.6,-135.73"/>
</a>
</g>
</g>
<!-- Node6 -->
<g id="Node000006" class="node">
<title>Node6</title>
<g id="a_Node000006"><a xlink:title=" ">
<polygon fill="#e0e0e0" stroke="#999999" points="159,-19 35,-19 35,0 159,0 159,-19"/>
<text text-anchor="middle" x="97" y="-7" font-family="Helvetica,sans-Serif" font-size="10.00">emlabcpp/algorithm.h</text>
</a>
</g>
</g>
<!-- Node1&#45;&gt;Node6 -->
<g id="edge5_Node000001_Node000006" class="edge">
<title>Node1&#45;&gt;Node6</title>
<g id="a_edge5_Node000001_Node000006"><a xlink:title=" ">
<path fill="none" stroke="#63b8ff" d="M129.97,-164.78C138.56,-144.62 156.84,-93.55 141,-55 136.19,-43.31 126.67,-33.05 117.7,-25.34"/>
<polygon fill="#63b8ff" stroke="#63b8ff" points="119.77,-22.51 109.78,-19 115.4,-27.98 119.77,-22.51"/>
</a>
</g>
</g>
<!-- Node3 -->
<g id="Node000003" class="node">
<title>Node3</title>
<g id="a_Node000003"><a xlink:href="base_8hpp.html" target="_top" xlink:title=" ">
<polygon fill="#fff0f0" stroke="red" points="70,-74 0,-74 0,-55 70,-55 70,-74"/>
<text text-anchor="middle" x="35" y="-62" font-family="Helvetica,sans-Serif" font-size="10.00">../base.hpp</text>
</a>
</g>
</g>
<!-- Node2&#45;&gt;Node3 -->
<g id="edge2_Node000002_Node000003" class="edge">
<title>Node2&#45;&gt;Node3</title>
<g id="a_edge2_Node000002_Node000003"><a xlink:title=" ">
<path fill="none" stroke="#63b8ff" d="M83.68,-109.98C75.19,-102.23 62.44,-90.58 52.12,-81.14"/>
<polygon fill="#63b8ff" stroke="#63b8ff" points="54.23,-78.33 44.49,-74.17 49.51,-83.5 54.23,-78.33"/>
</a>
</g>
</g>
<!-- Node10 -->
<g id="Node000010" class="node">
<title>Node10</title>
<g id="a_Node000010"><a xlink:title=" ">
<polygon fill="#e0e0e0" stroke="#999999" points="132,-74 88,-74 88,-55 132,-55 132,-74"/>
<text text-anchor="middle" x="110" y="-62" font-family="Helvetica,sans-Serif" font-size="10.00">bitset</text>
</a>
</g>
</g>
<!-- Node2&#45;&gt;Node10 -->
<g id="edge4_Node000002_Node000010" class="edge">
<title>Node2&#45;&gt;Node10</title>
<g id="a_edge4_Node000002_Node000010"><a xlink:title=" ">
<path fill="none" stroke="#63b8ff" d="M95.81,-109.75C98.06,-102.72 101.3,-92.62 104.12,-83.84"/>
<polygon fill="#63b8ff" stroke="#63b8ff" points="107.52,-84.68 107.25,-74.09 100.86,-82.54 107.52,-84.68"/>
</a>
</g>
</g>
<!-- Node3&#45;&gt;Node6 -->
<g id="edge3_Node000003_Node000006" class="edge">
<title>Node3&#45;&gt;Node6</title>
<g id="a_edge3_Node000003_Node000006"><a xlink:title=" ">
<path fill="none" stroke="#63b8ff" d="M44.96,-54.98C54.13,-47.15 67.94,-35.34 79.03,-25.86"/>
<polygon fill="#63b8ff" stroke="#63b8ff" points="81.53,-28.33 86.86,-19.17 76.98,-23.01 81.53,-28.33"/>
</a>
</g>
</g>
</g>
</svg>
