<?xml version="1.0" encoding="UTF-8" standalone="no"?>
<!DOCTYPE svg PUBLIC "-//W3C//DTD SVG 1.1//EN"
 "http://www.w3.org/Graphics/SVG/1.1/DTD/svg11.dtd">
<!-- Generated by graphviz version 2.43.0 (0)
 -->
<!-- Title: src/fw/extra.cpp Pages: 1 -->
<svg width="309pt" height="140pt"
 viewBox="0.00 0.00 308.50 140.00" xmlns="http://www.w3.org/2000/svg" xmlns:xlink="http://www.w3.org/1999/xlink">
<g id="graph0" class="graph" transform="scale(1 1) rotate(0) translate(4 136)">
<title>src/fw/extra.cpp</title>
<polygon fill="white" stroke="transparent" points="-4,4 -4,-136 304.5,-136 304.5,4 -4,4"/>
<!-- Node1 -->
<g id="node1" class="node">
<title>Node1</title>
<g id="a_node1"><a xlink:title=" ">
<polygon fill="#bfbfbf" stroke="black" points="128,-112.5 128,-131.5 222,-131.5 222,-112.5 128,-112.5"/>
<text text-anchor="middle" x="175" y="-119.5" font-family="Helvetica,sans-Serif" font-size="10.00">src/fw/extra.cpp</text>
</a>
</g>
</g>
<!-- Node2 -->
<g id="node2" class="node">
<title>Node2</title>
<g id="a_node2"><a xlink:href="util_8hpp.html" target="_top" xlink:title=" ">
<polygon fill="white" stroke="black" points="42.5,-56.5 42.5,-75.5 95.5,-75.5 95.5,-56.5 42.5,-56.5"/>
<text text-anchor="middle" x="69" y="-63.5" font-family="Helvetica,sans-Serif" font-size="10.00">util.hpp</text>
</a>
</g>
</g>
<!-- Node1&#45;&gt;Node2 -->
<g id="edge1" class="edge">
<title>Node1&#45;&gt;Node2</title>
<path fill="none" stroke="midnightblue" d="M157.97,-112.32C140.97,-103.66 114.62,-90.24 95.01,-80.25"/>
<polygon fill="midnightblue" stroke="midnightblue" points="96.49,-77.08 85.99,-75.65 93.31,-83.31 96.49,-77.08"/>
</g>
<!-- Node5 -->
<g id="node5" class="node">
<title>Node5</title>
<g id="a_node5"><a xlink:title=" ">
<polygon fill="white" stroke="#bfbfbf" points="113.5,-56.5 113.5,-75.5 162.5,-75.5 162.5,-56.5 113.5,-56.5"/>
<text text-anchor="middle" x="138" y="-63.5" font-family="Helvetica,sans-Serif" font-size="10.00">cstdlib</text>
</a>
</g>
</g>
<!-- Node1&#45;&gt;Node5 -->
<g id="edge4" class="edge">
<title>Node1&#45;&gt;Node5</title>
<path fill="none" stroke="midnightblue" d="M168.89,-112.08C163.72,-104.53 156.15,-93.49 149.81,-84.23"/>
<polygon fill="midnightblue" stroke="midnightblue" points="152.54,-82.02 144,-75.75 146.76,-85.98 152.54,-82.02"/>
</g>
<!-- Node6 -->
<g id="node6" class="node">
<title>Node6</title>
<g id="a_node6"><a xlink:title=" ">
<polygon fill="white" stroke="#bfbfbf" points="180.5,-56.5 180.5,-75.5 245.5,-75.5 245.5,-56.5 180.5,-56.5"/>
<text text-anchor="middle" x="213" y="-63.5" font-family="Helvetica,sans-Serif" font-size="10.00">exception</text>
</a>
</g>
</g>
<!-- Node1&#45;&gt;Node6 -->
<g id="edge5" class="edge">
<title>Node1&#45;&gt;Node6</title>
<path fill="none" stroke="midnightblue" d="M181.27,-112.08C186.64,-104.46 194.52,-93.26 201.08,-83.94"/>
<polygon fill="midnightblue" stroke="midnightblue" points="203.95,-85.94 206.84,-75.75 198.22,-81.91 203.95,-85.94"/>
</g>
<!-- Node7 -->
<g id="node7" class="node">
<title>Node7</title>
<g id="a_node7"><a xlink:title=" ">
<polygon fill="white" stroke="#bfbfbf" points="263.5,-56.5 263.5,-75.5 300.5,-75.5 300.5,-56.5 263.5,-56.5"/>
<text text-anchor="middle" x="282" y="-63.5" font-family="Helvetica,sans-Serif" font-size="10.00">new</text>
</a>
</g>
</g>
<!-- Node1&#45;&gt;Node7 -->
<g id="edge6" class="edge">
<title>Node1&#45;&gt;Node7</title>
<path fill="none" stroke="midnightblue" d="M192.19,-112.32C209.35,-103.66 235.95,-90.24 255.75,-80.25"/>
<polygon fill="midnightblue" stroke="midnightblue" points="257.5,-83.28 264.85,-75.65 254.35,-77.04 257.5,-83.28"/>
</g>
<!-- Node3 -->
<g id="node3" class="node">
<title>Node3</title>
<g id="a_node3"><a xlink:title=" ">
<polygon fill="white" stroke="#bfbfbf" points="0,-0.5 0,-19.5 64,-19.5 64,-0.5 0,-0.5"/>
<text text-anchor="middle" x="32" y="-7.5" font-family="Helvetica,sans-Serif" font-size="10.00">algorithm</text>
</a>
</g>
</g>
<!-- Node2&#45;&gt;Node3 -->
<g id="edge2" class="edge">
<title>Node2&#45;&gt;Node3</title>
<path fill="none" stroke="midnightblue" d="M62.89,-56.08C57.72,-48.53 50.15,-37.49 43.81,-28.23"/>
<polygon fill="midnightblue" stroke="midnightblue" points="46.54,-26.02 38,-19.75 40.76,-29.98 46.54,-26.02"/>
</g>
<!-- Node4 -->
<g id="node4" class="node">
<title>Node4</title>
<g id="a_node4"><a xlink:title=" ">
<polygon fill="white" stroke="#bfbfbf" points="82,-0.5 82,-19.5 132,-19.5 132,-0.5 82,-0.5"/>
<text text-anchor="middle" x="107" y="-7.5" font-family="Helvetica,sans-Serif" font-size="10.00">cstring</text>
</a>
</g>
</g>
<!-- Node2&#45;&gt;Node4 -->
<g id="edge3" class="edge">
<title>Node2&#45;&gt;Node4</title>
<path fill="none" stroke="midnightblue" d="M75.27,-56.08C80.64,-48.46 88.52,-37.26 95.08,-27.94"/>
<polygon fill="midnightblue" stroke="midnightblue" points="97.95,-29.94 100.84,-19.75 92.22,-25.91 97.95,-29.94"/>
</g>
</g>
</svg>
