<?xml version="1.0" encoding="UTF-8" standalone="no"?>
<!DOCTYPE svg PUBLIC "-//W3C//DTD SVG 1.1//EN"
 "http://www.w3.org/Graphics/SVG/1.1/DTD/svg11.dtd">
<!-- Generated by graphviz version 2.43.0 (0)
 -->
<!-- Title: src/drv/flash_cfg.cpp Pages: 1 -->
<svg width="657pt" height="203pt"
 viewBox="0.00 0.00 656.50 203.00" xmlns="http://www.w3.org/2000/svg" xmlns:xlink="http://www.w3.org/1999/xlink">
<g id="graph0" class="graph" transform="scale(1 1) rotate(0) translate(4 199)">
<title>src/drv/flash_cfg.cpp</title>
<!-- Node1 -->
<g id="Node000001" class="node">
<title>Node1</title>
<g id="a_Node000001"><a xlink:title=" ">
<polygon fill="#999999" stroke="#666666" points="549,-195 433,-195 433,-176 549,-176 549,-195"/>
<text text-anchor="middle" x="491" y="-183" font-family="Helvetica,sans-Serif" font-size="10.00">src/drv/flash_cfg.cpp</text>
</a>
</g>
</g>
<!-- Node2 -->
<g id="Node000002" class="node">
<title>Node2</title>
<g id="a_Node000002"><a xlink:href="drv_2flash__cfg_8hpp.html" target="_top" xlink:title=" ">
<polygon fill="white" stroke="#666666" points="285.5,-140 198.5,-140 198.5,-121 285.5,-121 285.5,-140"/>
<text text-anchor="middle" x="242" y="-128" font-family="Helvetica,sans-Serif" font-size="10.00">./flash_cfg.hpp</text>
</a>
</g>
</g>
<!-- Node1&#45;&gt;Node2 -->
<g id="edge1_Node000001_Node000002" class="edge">
<title>Node1&#45;&gt;Node2</title>
<g id="a_edge1_Node000001_Node000002"><a xlink:title=" ">
<path fill="none" stroke="#63b8ff" d="M450.99,-175.98C407.83,-166.8 339.02,-152.15 292.24,-142.19"/>
<polygon fill="#63b8ff" stroke="#63b8ff" points="292.83,-138.74 282.32,-140.08 291.37,-145.59 292.83,-138.74"/>
</a>
</g>
</g>
<!-- Node25 -->
<g id="Node000025" class="node">
<title>Node25</title>
<g id="a_Node000025"><a xlink:href="fw_2util_8hpp.html" target="_top" xlink:title=" ">
<polygon fill="white" stroke="#666666" points="529.5,-140 452.5,-140 452.5,-121 529.5,-121 529.5,-140"/>
<text text-anchor="middle" x="491" y="-128" font-family="Helvetica,sans-Serif" font-size="10.00">../fw/util.hpp</text>
</a>
</g>
</g>
<!-- Node1&#45;&gt;Node25 -->
<g id="edge7_Node000001_Node000025" class="edge">
<title>Node1&#45;&gt;Node25</title>
<g id="a_edge7_Node000001_Node000025"><a xlink:title=" ">
<path fill="none" stroke="#63b8ff" d="M491,-175.75C491,-168.8 491,-158.85 491,-150.13"/>
<polygon fill="#63b8ff" stroke="#63b8ff" points="494.5,-150.09 491,-140.09 487.5,-150.09 494.5,-150.09"/>
</a>
</g>
</g>
<!-- Node29 -->
<g id="Node000029" class="node">
<title>Node29</title>
<g id="a_Node000029"><a xlink:title=" ">
<polygon fill="#e0e0e0" stroke="#999999" points="648.5,-140 547.5,-140 547.5,-121 648.5,-121 648.5,-140"/>
<text text-anchor="middle" x="598" y="-128" font-family="Helvetica,sans-Serif" font-size="10.00">emlabcpp/defer.h</text>
</a>
</g>
</g>
<!-- Node1&#45;&gt;Node29 -->
<g id="edge11_Node000001_Node000029" class="edge">
<title>Node1&#45;&gt;Node29</title>
<g id="a_edge11_Node000001_Node000029"><a xlink:title=" ">
<path fill="none" stroke="#63b8ff" d="M508.19,-175.98C525.25,-167.54 551.63,-154.47 571.4,-144.68"/>
<polygon fill="#63b8ff" stroke="#63b8ff" points="573.09,-147.75 580.5,-140.17 569.98,-141.47 573.09,-147.75"/>
</a>
</g>
</g>
<!-- Node3 -->
<g id="Node000003" class="node">
<title>Node3</title>
<g id="a_Node000003"><a xlink:href="platform_8hpp.html" target="_top" xlink:title=" ">
<polygon fill="#fff0f0" stroke="red" points="104,-79.5 0,-79.5 0,-60.5 104,-60.5 104,-79.5"/>
<text text-anchor="middle" x="52" y="-67.5" font-family="Helvetica,sans-Serif" font-size="10.00">../plt/platform.hpp</text>
</a>
</g>
</g>
<!-- Node2&#45;&gt;Node3 -->
<g id="edge2_Node000002_Node000003" class="edge">
<title>Node2&#45;&gt;Node3</title>
<g id="a_edge2_Node000002_Node000003"><a xlink:title=" ">
<path fill="none" stroke="#63b8ff" d="M214.37,-120.99C181.45,-110.86 126.27,-93.87 89.51,-82.55"/>
<polygon fill="#63b8ff" stroke="#63b8ff" points="90.25,-79.11 79.66,-79.52 88.19,-85.8 90.25,-79.11"/>
</a>
</g>
</g>
<!-- Node6 -->
<g id="Node000006" class="node">
<title>Node6</title>
<g id="a_Node000006"><a xlink:href="interfaces_8hpp.html" target="_top" xlink:title=" ">
<polygon fill="#fff0f0" stroke="red" points="214,-79.5 122,-79.5 122,-60.5 214,-60.5 214,-79.5"/>
<text text-anchor="middle" x="168" y="-67.5" font-family="Helvetica,sans-Serif" font-size="10.00">./interfaces.hpp</text>
</a>
</g>
</g>
<!-- Node2&#45;&gt;Node6 -->
<g id="edge3_Node000002_Node000006" class="edge">
<title>Node2&#45;&gt;Node6</title>
<g id="a_edge3_Node000002_Node000006"><a xlink:title=" ">
<path fill="none" stroke="#63b8ff" d="M231.08,-120.87C219.49,-111.71 200.97,-97.06 186.98,-86.01"/>
<polygon fill="#63b8ff" stroke="#63b8ff" points="188.98,-83.12 178.96,-79.67 184.64,-88.61 188.98,-83.12"/>
</a>
</g>
</g>
<!-- Node9 -->
<g id="Node000009" class="node">
<title>Node9</title>
<g id="a_Node000009"><a xlink:title=" ">
<polygon fill="#e0e0e0" stroke="#999999" points="230,-19 180,-19 180,0 230,0 230,-19"/>
<text text-anchor="middle" x="205" y="-7" font-family="Helvetica,sans-Serif" font-size="10.00">cstdint</text>
</a>
</g>
</g>
<!-- Node2&#45;&gt;Node9 -->
<g id="edge5_Node000002_Node000009" class="edge">
<title>Node2&#45;&gt;Node9</title>
<g id="a_edge5_Node000002_Node000009"><a xlink:title=" ">
<path fill="none" stroke="#63b8ff" d="M240.15,-120.67C237.12,-106.61 230.66,-78.34 223,-55 220.11,-46.19 216.33,-36.63 212.98,-28.64"/>
<polygon fill="#63b8ff" stroke="#63b8ff" points="216.11,-27.04 208.94,-19.24 209.67,-29.8 216.11,-27.04"/>
</a>
</g>
</g>
<!-- Node24 -->
<g id="Node000024" class="node">
<title>Node24</title>
<g id="a_Node000024"><a xlink:title=" ">
<polygon fill="#e0e0e0" stroke="#999999" points="403.5,-85 270.5,-85 270.5,-55 403.5,-55 403.5,-85"/>
<text text-anchor="start" x="278.5" y="-73" font-family="Helvetica,sans-Serif" font-size="10.00">emlabcpp/experimental</text>
<text text-anchor="middle" x="337" y="-62" font-family="Helvetica,sans-Serif" font-size="10.00">/function_view.h</text>
</a>
</g>
</g>
<!-- Node2&#45;&gt;Node24 -->
<g id="edge6_Node000002_Node000024" class="edge">
<title>Node2&#45;&gt;Node24</title>
<g id="a_edge6_Node000002_Node000024"><a xlink:title=" ">
<path fill="none" stroke="#63b8ff" d="M256.02,-120.87C268.91,-112.93 288.49,-100.87 305.17,-90.6"/>
<polygon fill="#63b8ff" stroke="#63b8ff" points="307.4,-93.34 314.08,-85.11 303.73,-87.38 307.4,-93.34"/>
</a>
</g>
</g>
<!-- Node6&#45;&gt;Node9 -->
<g id="edge4_Node000006_Node000009" class="edge">
<title>Node6&#45;&gt;Node9</title>
<g id="a_edge4_Node000006_Node000009"><a xlink:title=" ">
<path fill="none" stroke="#63b8ff" d="M173.46,-60.37C178.87,-51.81 187.31,-38.47 194.1,-27.74"/>
<polygon fill="#63b8ff" stroke="#63b8ff" points="197.13,-29.49 199.52,-19.17 191.21,-25.75 197.13,-29.49"/>
</a>
</g>
</g>
<!-- Node26 -->
<g id="Node000026" class="node">
<title>Node26</title>
<g id="a_Node000026"><a xlink:title=" ">
<polygon fill="#e0e0e0" stroke="#999999" points="486,-79.5 422,-79.5 422,-60.5 486,-60.5 486,-79.5"/>
<text text-anchor="middle" x="454" y="-67.5" font-family="Helvetica,sans-Serif" font-size="10.00">algorithm</text>
</a>
</g>
</g>
<!-- Node25&#45;&gt;Node26 -->
<g id="edge8_Node000025_Node000026" class="edge">
<title>Node25&#45;&gt;Node26</title>
<g id="a_edge8_Node000025_Node000026"><a xlink:title=" ">
<path fill="none" stroke="#63b8ff" d="M485.54,-120.87C480.13,-112.31 471.69,-98.97 464.9,-88.24"/>
<polygon fill="#63b8ff" stroke="#63b8ff" points="467.79,-86.25 459.48,-79.67 461.87,-89.99 467.79,-86.25"/>
</a>
</g>
</g>
<!-- Node27 -->
<g id="Node000027" class="node">
<title>Node27</title>
<g id="a_Node000027"><a xlink:title=" ">
<polygon fill="#e0e0e0" stroke="#999999" points="554,-79.5 504,-79.5 504,-60.5 554,-60.5 554,-79.5"/>
<text text-anchor="middle" x="529" y="-67.5" font-family="Helvetica,sans-Serif" font-size="10.00">cstring</text>
</a>
</g>
</g>
<!-- Node25&#45;&gt;Node27 -->
<g id="edge9_Node000025_Node000027" class="edge">
<title>Node25&#45;&gt;Node27</title>
<g id="a_edge9_Node000025_Node000027"><a xlink:title=" ">
<path fill="none" stroke="#63b8ff" d="M496.61,-120.87C502.16,-112.31 510.83,-98.97 517.8,-88.24"/>
<polygon fill="#63b8ff" stroke="#63b8ff" points="520.86,-89.96 523.37,-79.67 514.99,-86.15 520.86,-89.96"/>
</a>
</g>
</g>
<!-- Node28 -->
<g id="Node000028" class="node">
<title>Node28</title>
<g id="a_Node000028"><a xlink:title=" ">
<polygon fill="#e0e0e0" stroke="#999999" points="645.5,-79.5 572.5,-79.5 572.5,-60.5 645.5,-60.5 645.5,-79.5"/>
<text text-anchor="middle" x="609" y="-67.5" font-family="Helvetica,sans-Serif" font-size="10.00">string_view</text>
</a>
</g>
</g>
<!-- Node25&#45;&gt;Node28 -->
<g id="edge10_Node000025_Node000028" class="edge">
<title>Node25&#45;&gt;Node28</title>
<g id="a_edge10_Node000025_Node000028"><a xlink:title=" ">
<path fill="none" stroke="#63b8ff" d="M508.16,-120.99C527.73,-111.29 559.97,-95.31 582.72,-84.03"/>
<polygon fill="#63b8ff" stroke="#63b8ff" points="584.42,-87.09 591.82,-79.52 581.31,-80.82 584.42,-87.09"/>
</a>
</g>
</g>
</g>
</svg>
