<?xml version="1.0" encoding="UTF-8" standalone="no"?>
<!DOCTYPE svg PUBLIC "-//W3C//DTD SVG 1.1//EN"
 "http://www.w3.org/Graphics/SVG/1.1/DTD/svg11.dtd">
<!-- Generated by graphviz version 2.43.0 (0)
 -->
<!-- Title: src/ftester/flash.hpp Pages: 1 -->
<svg width="184pt" height="84pt"
 viewBox="0.00 0.00 183.50 84.00" xmlns="http://www.w3.org/2000/svg" xmlns:xlink="http://www.w3.org/1999/xlink">
<g id="graph0" class="graph" transform="scale(1 1) rotate(0) translate(4 80)">
<title>src/ftester/flash.hpp</title>
<polygon fill="white" stroke="transparent" points="-4,4 -4,-80 179.5,-80 179.5,4 -4,4"/>
<!-- Node1 -->
<g id="node1" class="node">
<title>Node1</title>
<g id="a_node1"><a xlink:title=" ">
<polygon fill="#bfbfbf" stroke="black" points="25.5,-56.5 25.5,-75.5 138.5,-75.5 138.5,-56.5 25.5,-56.5"/>
<text text-anchor="middle" x="82" y="-63.5" font-family="Helvetica,sans-Serif" font-size="10.00">src/ftester/flash.hpp</text>
</a>
</g>
</g>
<!-- Node2 -->
<g id="node2" class="node">
<title>Node2</title>
<g id="a_node2"><a xlink:title=" ">
<polygon fill="white" stroke="#bfbfbf" points="0,-0.5 0,-19.5 68,-19.5 68,-0.5 0,-0.5"/>
<text text-anchor="middle" x="34" y="-7.5" font-family="Helvetica,sans-Serif" font-size="10.00">filesystem</text>
</a>
</g>
</g>
<!-- Node1&#45;&gt;Node2 -->
<g id="edge1" class="edge">
<title>Node1&#45;&gt;Node2</title>
<path fill="none" stroke="midnightblue" d="M74.07,-56.08C67.15,-48.3 56.93,-36.8 48.55,-27.37"/>
<polygon fill="midnightblue" stroke="midnightblue" points="51.04,-24.9 41.78,-19.75 45.81,-29.55 51.04,-24.9"/>
</g>
<!-- Node3 -->
<g id="node3" class="node">
<title>Node3</title>
<g id="a_node3"><a xlink:title=" ">
<polygon fill="white" stroke="#bfbfbf" points="86.5,-0.5 86.5,-19.5 175.5,-19.5 175.5,-0.5 86.5,-0.5"/>
<text text-anchor="middle" x="131" y="-7.5" font-family="Helvetica,sans-Serif" font-size="10.00">joque/task.hpp</text>
</a>
</g>
</g>
<!-- Node1&#45;&gt;Node3 -->
<g id="edge2" class="edge">
<title>Node1&#45;&gt;Node3</title>
<path fill="none" stroke="midnightblue" d="M90.09,-56.08C97.16,-48.3 107.59,-36.8 116.15,-27.37"/>
<polygon fill="midnightblue" stroke="midnightblue" points="118.93,-29.51 123.06,-19.75 113.75,-24.8 118.93,-29.51"/>
</g>
</g>
</svg>
