<?xml version="1.0" encoding="UTF-8" standalone="no"?>
<!DOCTYPE svg PUBLIC "-//W3C//DTD SVG 1.1//EN"
 "http://www.w3.org/Graphics/SVG/1.1/DTD/svg11.dtd">
<!-- Generated by graphviz version 2.43.0 (0)
 -->
<!-- Title: src/drv/flash_cfg.hpp Pages: 1 -->
<svg width="773pt" height="274pt"
 viewBox="0.00 0.00 772.50 274.00" xmlns="http://www.w3.org/2000/svg" xmlns:xlink="http://www.w3.org/1999/xlink">
<g id="graph0" class="graph" transform="scale(1 1) rotate(0) translate(4 270)">
<title>src/drv/flash_cfg.hpp</title>
<polygon fill="white" stroke="transparent" points="-4,4 -4,-270 768.5,-270 768.5,4 -4,4"/>
<!-- Node1 -->
<g id="node1" class="node">
<title>Node1</title>
<g id="a_node1"><a xlink:title=" ">
<polygon fill="#bfbfbf" stroke="black" points="413.5,-246.5 413.5,-265.5 530.5,-265.5 530.5,-246.5 413.5,-246.5"/>
<text text-anchor="middle" x="472" y="-253.5" font-family="Helvetica,sans-Serif" font-size="10.00">src/drv/flash_cfg.hpp</text>
</a>
</g>
</g>
<!-- Node2 -->
<g id="node2" class="node">
<title>Node2</title>
<g id="a_node2"><a xlink:href="storage_8hpp.html" target="_top" xlink:title=" ">
<polygon fill="white" stroke="black" points="421.5,-190.5 421.5,-209.5 522.5,-209.5 522.5,-190.5 421.5,-190.5"/>
<text text-anchor="middle" x="472" y="-197.5" font-family="Helvetica,sans-Serif" font-size="10.00">../cfg/storage.hpp</text>
</a>
</g>
</g>
<!-- Node1&#45;&gt;Node2 -->
<g id="edge1" class="edge">
<title>Node1&#45;&gt;Node2</title>
<path fill="none" stroke="midnightblue" d="M472,-246.08C472,-239.01 472,-228.86 472,-219.99"/>
<polygon fill="midnightblue" stroke="midnightblue" points="475.5,-219.75 472,-209.75 468.5,-219.75 475.5,-219.75"/>
</g>
<!-- Node6 -->
<g id="node5" class="node">
<title>Node6</title>
<g id="a_node5"><a xlink:title=" ">
<polygon fill="white" stroke="#bfbfbf" points="0,-0.5 0,-19.5 50,-19.5 50,-0.5 0,-0.5"/>
<text text-anchor="middle" x="25" y="-7.5" font-family="Helvetica,sans-Serif" font-size="10.00">cstdint</text>
</a>
</g>
</g>
<!-- Node1&#45;&gt;Node6 -->
<g id="edge17" class="edge">
<title>Node1&#45;&gt;Node6</title>
<path fill="none" stroke="midnightblue" d="M413.36,-248.7C308.86,-236.3 96.54,-205.35 45,-154 11.93,-121.05 16.39,-60.38 21.28,-29.74"/>
<polygon fill="midnightblue" stroke="midnightblue" points="24.78,-30.05 23.09,-19.59 17.89,-28.82 24.78,-30.05"/>
</g>
<!-- Node17 -->
<g id="node8" class="node">
<title>Node17</title>
<g id="a_node8"><a xlink:href="platform_8hpp.html" target="_top" xlink:title=" ">
<polygon fill="white" stroke="black" points="541,-190.5 541,-209.5 645,-209.5 645,-190.5 541,-190.5"/>
<text text-anchor="middle" x="593" y="-197.5" font-family="Helvetica,sans-Serif" font-size="10.00">../plt/platform.hpp</text>
</a>
</g>
</g>
<!-- Node1&#45;&gt;Node17 -->
<g id="edge8" class="edge">
<title>Node1&#45;&gt;Node17</title>
<path fill="none" stroke="midnightblue" d="M491.17,-246.44C510.91,-237.64 541.89,-223.81 564.49,-213.72"/>
<polygon fill="midnightblue" stroke="midnightblue" points="566.21,-216.79 573.92,-209.52 563.36,-210.4 566.21,-216.79"/>
</g>
<!-- Node20 -->
<g id="node10" class="node">
<title>Node20</title>
<g id="a_node10"><a xlink:href="interfaces_8hpp.html" target="_top" xlink:title=" ">
<polygon fill="white" stroke="black" points="235,-190.5 235,-209.5 327,-209.5 327,-190.5 235,-190.5"/>
<text text-anchor="middle" x="281" y="-197.5" font-family="Helvetica,sans-Serif" font-size="10.00">./interfaces.hpp</text>
</a>
</g>
</g>
<!-- Node1&#45;&gt;Node20 -->
<g id="edge10" class="edge">
<title>Node1&#45;&gt;Node20</title>
<path fill="none" stroke="midnightblue" d="M441.74,-246.44C409.04,-237.2 356.82,-222.44 320.82,-212.26"/>
<polygon fill="midnightblue" stroke="midnightblue" points="321.7,-208.87 311.12,-209.52 319.79,-215.61 321.7,-208.87"/>
</g>
<!-- Node24 -->
<g id="node14" class="node">
<title>Node24</title>
<g id="a_node14"><a xlink:title=" ">
<polygon fill="white" stroke="#bfbfbf" points="663.5,-190.5 663.5,-209.5 764.5,-209.5 764.5,-190.5 663.5,-190.5"/>
<text text-anchor="middle" x="714" y="-197.5" font-family="Helvetica,sans-Serif" font-size="10.00">emlabcpp/defer.h</text>
</a>
</g>
</g>
<!-- Node1&#45;&gt;Node24 -->
<g id="edge18" class="edge">
<title>Node1&#45;&gt;Node24</title>
<path fill="none" stroke="midnightblue" d="M510.35,-246.44C552.47,-237.04 620.21,-221.93 665.87,-211.74"/>
<polygon fill="midnightblue" stroke="midnightblue" points="666.84,-215.11 675.83,-209.52 665.31,-208.28 666.84,-215.11"/>
</g>
<!-- Node3 -->
<g id="node3" class="node">
<title>Node3</title>
<g id="a_node3"><a xlink:href="map_8hpp.html" target="_top" xlink:title=" ">
<polygon fill="white" stroke="red" points="409.5,-129 409.5,-148 474.5,-148 474.5,-129 409.5,-129"/>
<text text-anchor="middle" x="442" y="-136" font-family="Helvetica,sans-Serif" font-size="10.00">./map.hpp</text>
</a>
</g>
</g>
<!-- Node2&#45;&gt;Node3 -->
<g id="edge2" class="edge">
<title>Node2&#45;&gt;Node3</title>
<path fill="none" stroke="midnightblue" d="M467.7,-190.48C463.34,-181.82 456.44,-168.15 450.9,-157.15"/>
<polygon fill="midnightblue" stroke="midnightblue" points="453.92,-155.36 446.29,-148.01 447.67,-158.51 453.92,-155.36"/>
</g>
<!-- Node11 -->
<g id="node6" class="node">
<title>Node11</title>
<g id="a_node6"><a xlink:title=" ">
<polygon fill="white" stroke="#bfbfbf" points="405.5,-56.5 405.5,-86.5 538.5,-86.5 538.5,-56.5 405.5,-56.5"/>
<text text-anchor="start" x="413.5" y="-74.5" font-family="Helvetica,sans-Serif" font-size="10.00">emlabcpp/experimental</text>
<text text-anchor="middle" x="472" y="-63.5" font-family="Helvetica,sans-Serif" font-size="10.00">/string_buffer.h</text>
</a>
</g>
</g>
<!-- Node2&#45;&gt;Node11 -->
<g id="edge7" class="edge">
<title>Node2&#45;&gt;Node11</title>
<path fill="none" stroke="midnightblue" d="M474.73,-190.49C477.45,-181.52 481.44,-166.94 483,-154 484.65,-140.32 484.47,-136.7 483,-123 482.05,-114.22 480.21,-104.72 478.3,-96.36"/>
<polygon fill="midnightblue" stroke="midnightblue" points="481.67,-95.4 475.9,-86.52 474.87,-97.06 481.67,-95.4"/>
</g>
<!-- Node16 -->
<g id="node7" class="node">
<title>Node16</title>
<g id="a_node7"><a xlink:title=" ">
<polygon fill="white" stroke="#bfbfbf" points="531.5,-123.5 531.5,-153.5 664.5,-153.5 664.5,-123.5 531.5,-123.5"/>
<text text-anchor="start" x="539.5" y="-141.5" font-family="Helvetica,sans-Serif" font-size="10.00">emlabcpp/experimental</text>
<text text-anchor="middle" x="598" y="-130.5" font-family="Helvetica,sans-Serif" font-size="10.00">/function_view.h</text>
</a>
</g>
</g>
<!-- Node2&#45;&gt;Node16 -->
<g id="edge6" class="edge">
<title>Node2&#45;&gt;Node16</title>
<path fill="none" stroke="midnightblue" d="M490.05,-190.48C507.99,-182 536.09,-168.74 559.11,-157.86"/>
<polygon fill="midnightblue" stroke="midnightblue" points="560.76,-160.96 568.3,-153.52 557.77,-154.63 560.76,-160.96"/>
</g>
<!-- Node4 -->
<g id="node4" class="node">
<title>Node4</title>
<g id="a_node4"><a xlink:href="base_2base_8hpp.html" target="_top" xlink:title=" ">
<polygon fill="white" stroke="red" points="53,-62 53,-81 149,-81 149,-62 53,-62"/>
<text text-anchor="middle" x="101" y="-69" font-family="Helvetica,sans-Serif" font-size="10.00">../base/base.hpp</text>
</a>
</g>
</g>
<!-- Node3&#45;&gt;Node4 -->
<g id="edge3" class="edge">
<title>Node3&#45;&gt;Node4</title>
<path fill="none" stroke="midnightblue" d="M419.54,-128.98C413.28,-126.82 406.43,-124.64 400,-123 317.54,-101.96 220,-87.35 159.31,-79.45"/>
<polygon fill="midnightblue" stroke="midnightblue" points="159.52,-75.95 149.15,-78.14 158.62,-82.89 159.52,-75.95"/>
</g>
<!-- Node3&#45;&gt;Node11 -->
<g id="edge5" class="edge">
<title>Node3&#45;&gt;Node11</title>
<path fill="none" stroke="midnightblue" d="M446.05,-128.73C449.94,-120.29 456.01,-107.14 461.3,-95.68"/>
<polygon fill="midnightblue" stroke="midnightblue" points="464.48,-97.14 465.5,-86.59 458.13,-94.2 464.48,-97.14"/>
</g>
<!-- Node4&#45;&gt;Node6 -->
<g id="edge4" class="edge">
<title>Node4&#45;&gt;Node6</title>
<path fill="none" stroke="midnightblue" d="M90.11,-61.98C78.03,-52.52 58.33,-37.1 43.76,-25.69"/>
<polygon fill="midnightblue" stroke="midnightblue" points="45.9,-22.92 35.87,-19.51 41.59,-28.43 45.9,-22.92"/>
</g>
<!-- Node18 -->
<g id="node9" class="node">
<title>Node18</title>
<g id="a_node9"><a xlink:href="hal_8hpp.html" target="_top" xlink:title=" ">
<polygon fill="white" stroke="red" points="682.5,-129 682.5,-148 735.5,-148 735.5,-129 682.5,-129"/>
<text text-anchor="middle" x="709" y="-136" font-family="Helvetica,sans-Serif" font-size="10.00">hal.hpp</text>
</a>
</g>
</g>
<!-- Node17&#45;&gt;Node18 -->
<g id="edge9" class="edge">
<title>Node17&#45;&gt;Node18</title>
<path fill="none" stroke="midnightblue" d="M609.62,-190.48C628.92,-180.58 660.96,-164.14 683.43,-152.62"/>
<polygon fill="midnightblue" stroke="midnightblue" points="685.11,-155.69 692.41,-148.01 681.92,-149.46 685.11,-155.69"/>
</g>
<!-- Node20&#45;&gt;Node3 -->
<g id="edge12" class="edge">
<title>Node20&#45;&gt;Node3</title>
<path fill="none" stroke="midnightblue" d="M304.07,-190.48C331.68,-180.27 378.12,-163.11 409.4,-151.55"/>
<polygon fill="midnightblue" stroke="midnightblue" points="410.81,-154.76 418.98,-148.01 408.38,-148.19 410.81,-154.76"/>
</g>
<!-- Node20&#45;&gt;Node4 -->
<g id="edge11" class="edge">
<title>Node20&#45;&gt;Node4</title>
<path fill="none" stroke="midnightblue" d="M234.61,-195.09C181.9,-189.58 100.74,-177.45 82,-154 67.31,-135.61 78.82,-107.86 89.25,-89.96"/>
<polygon fill="midnightblue" stroke="midnightblue" points="92.43,-91.48 94.77,-81.15 86.49,-87.77 92.43,-91.48"/>
</g>
<!-- Node20&#45;&gt;Node6 -->
<g id="edge13" class="edge">
<title>Node20&#45;&gt;Node6</title>
<path fill="none" stroke="midnightblue" d="M234.78,-194.06C180.96,-187.47 96.33,-174.23 72,-154 34.58,-122.89 26.73,-61.38 25.23,-30.15"/>
<polygon fill="midnightblue" stroke="midnightblue" points="28.72,-29.68 24.92,-19.79 21.72,-29.89 28.72,-29.68"/>
</g>
<!-- Node21 -->
<g id="node11" class="node">
<title>Node21</title>
<g id="a_node11"><a xlink:title=" ">
<polygon fill="white" stroke="#bfbfbf" points="91.5,-129 91.5,-148 210.5,-148 210.5,-129 91.5,-129"/>
<text text-anchor="middle" x="151" y="-136" font-family="Helvetica,sans-Serif" font-size="10.00">emlabcpp/outcome.h</text>
</a>
</g>
</g>
<!-- Node20&#45;&gt;Node21 -->
<g id="edge14" class="edge">
<title>Node20&#45;&gt;Node21</title>
<path fill="none" stroke="midnightblue" d="M262.37,-190.48C240.56,-180.49 204.2,-163.85 178.98,-152.31"/>
<polygon fill="midnightblue" stroke="midnightblue" points="180.14,-148.99 169.59,-148.01 177.23,-155.35 180.14,-148.99"/>
</g>
<!-- Node22 -->
<g id="node12" class="node">
<title>Node22</title>
<g id="a_node12"><a xlink:title=" ">
<polygon fill="white" stroke="#bfbfbf" points="229,-129 229,-148 333,-148 333,-129 229,-129"/>
<text text-anchor="middle" x="281" y="-136" font-family="Helvetica,sans-Serif" font-size="10.00">emlabcpp/result.h</text>
</a>
</g>
</g>
<!-- Node20&#45;&gt;Node22 -->
<g id="edge15" class="edge">
<title>Node20&#45;&gt;Node22</title>
<path fill="none" stroke="midnightblue" d="M281,-190.48C281,-182.08 281,-168.98 281,-158.16"/>
<polygon fill="midnightblue" stroke="midnightblue" points="284.5,-158.01 281,-148.01 277.5,-158.01 284.5,-158.01"/>
</g>
<!-- Node23 -->
<g id="node13" class="node">
<title>Node23</title>
<g id="a_node13"><a xlink:title=" ">
<polygon fill="white" stroke="#bfbfbf" points="351,-129 351,-148 391,-148 391,-129 351,-129"/>
<text text-anchor="middle" x="371" y="-136" font-family="Helvetica,sans-Serif" font-size="10.00">span</text>
</a>
</g>
</g>
<!-- Node20&#45;&gt;Node23 -->
<g id="edge16" class="edge">
<title>Node20&#45;&gt;Node23</title>
<path fill="none" stroke="midnightblue" d="M293.89,-190.48C308.46,-180.84 332.4,-165.02 349.75,-153.55"/>
<polygon fill="midnightblue" stroke="midnightblue" points="351.72,-156.44 358.13,-148.01 347.86,-150.6 351.72,-156.44"/>
</g>
</g>
</svg>
