<?xml version="1.0" encoding="UTF-8" standalone="no"?>
<!DOCTYPE svg PUBLIC "-//W3C//DTD SVG 1.1//EN"
 "http://www.w3.org/Graphics/SVG/1.1/DTD/svg11.dtd">
<!-- Generated by graphviz version 2.43.0 (0)
 -->
<!-- Title: src/drv/flash_cfg.cpp Pages: 1 -->
<svg width="722pt" height="196pt"
 viewBox="0.00 0.00 721.50 196.00" xmlns="http://www.w3.org/2000/svg" xmlns:xlink="http://www.w3.org/1999/xlink">
<g id="graph0" class="graph" transform="scale(1 1) rotate(0) translate(4 192)">
<title>src/drv/flash_cfg.cpp</title>
<polygon fill="white" stroke="transparent" points="-4,4 -4,-192 717.5,-192 717.5,4 -4,4"/>
<!-- Node1 -->
<g id="node1" class="node">
<title>Node1</title>
<g id="a_node1"><a xlink:title=" ">
<polygon fill="#bfbfbf" stroke="black" points="325,-168.5 325,-187.5 441,-187.5 441,-168.5 325,-168.5"/>
<text text-anchor="middle" x="383" y="-175.5" font-family="Helvetica,sans-Serif" font-size="10.00">src/drv/flash_cfg.cpp</text>
</a>
</g>
</g>
<!-- Node2 -->
<g id="node2" class="node">
<title>Node2</title>
<g id="a_node2"><a xlink:href="flash__cfg_8hpp.html" target="_top" xlink:title=" ">
<polygon fill="white" stroke="black" points="228,-112.5 228,-131.5 328,-131.5 328,-112.5 228,-112.5"/>
<text text-anchor="middle" x="278" y="-119.5" font-family="Helvetica,sans-Serif" font-size="10.00">drv/flash_cfg.hpp</text>
</a>
</g>
</g>
<!-- Node1&#45;&gt;Node2 -->
<g id="edge1" class="edge">
<title>Node1&#45;&gt;Node2</title>
<path fill="none" stroke="midnightblue" d="M366.13,-168.32C349.29,-159.66 323.19,-146.24 303.76,-136.25"/>
<polygon fill="midnightblue" stroke="midnightblue" points="305.32,-133.12 294.83,-131.65 302.12,-139.34 305.32,-133.12"/>
</g>
<!-- Node26 -->
<g id="node8" class="node">
<title>Node26</title>
<g id="a_node8"><a xlink:href="util_8hpp.html" target="_top" xlink:title=" ">
<polygon fill="white" stroke="black" points="525,-112.5 525,-131.5 593,-131.5 593,-112.5 525,-112.5"/>
<text text-anchor="middle" x="559" y="-119.5" font-family="Helvetica,sans-Serif" font-size="10.00">fw/util.hpp</text>
</a>
</g>
</g>
<!-- Node1&#45;&gt;Node26 -->
<g id="edge8" class="edge">
<title>Node1&#45;&gt;Node26</title>
<path fill="none" stroke="midnightblue" d="M410.89,-168.44C440.75,-159.28 488.31,-144.69 521.46,-134.52"/>
<polygon fill="midnightblue" stroke="midnightblue" points="522.71,-137.8 531.24,-131.52 520.66,-131.1 522.71,-137.8"/>
</g>
<!-- Node3 -->
<g id="node3" class="node">
<title>Node3</title>
<g id="a_node3"><a xlink:href="storage_8hpp.html" target="_top" xlink:title=" ">
<polygon fill="white" stroke="red" points="0,-56.5 0,-75.5 92,-75.5 92,-56.5 0,-56.5"/>
<text text-anchor="middle" x="46" y="-63.5" font-family="Helvetica,sans-Serif" font-size="10.00">cfg/storage.hpp</text>
</a>
</g>
</g>
<!-- Node2&#45;&gt;Node3 -->
<g id="edge2" class="edge">
<title>Node2&#45;&gt;Node3</title>
<path fill="none" stroke="midnightblue" d="M241.24,-112.44C200.94,-103.06 136.19,-87.99 92.42,-77.8"/>
<polygon fill="midnightblue" stroke="midnightblue" points="93.12,-74.37 82.59,-75.52 91.54,-81.19 93.12,-74.37"/>
</g>
<!-- Node18 -->
<g id="node4" class="node">
<title>Node18</title>
<g id="a_node4"><a xlink:href="interfaces_8hpp.html" target="_top" xlink:title=" ">
<polygon fill="white" stroke="red" points="110.5,-56.5 110.5,-75.5 215.5,-75.5 215.5,-56.5 110.5,-56.5"/>
<text text-anchor="middle" x="163" y="-63.5" font-family="Helvetica,sans-Serif" font-size="10.00">drv/interfaces.hpp</text>
</a>
</g>
</g>
<!-- Node2&#45;&gt;Node18 -->
<g id="edge3" class="edge">
<title>Node2&#45;&gt;Node18</title>
<path fill="none" stroke="midnightblue" d="M259.78,-112.44C241.1,-103.68 211.84,-89.94 190.38,-79.86"/>
<polygon fill="midnightblue" stroke="midnightblue" points="191.68,-76.6 181.14,-75.52 188.7,-82.93 191.68,-76.6"/>
</g>
<!-- Node7 -->
<g id="node5" class="node">
<title>Node7</title>
<g id="a_node5"><a xlink:title=" ">
<polygon fill="white" stroke="#bfbfbf" points="178,-0.5 178,-19.5 228,-19.5 228,-0.5 178,-0.5"/>
<text text-anchor="middle" x="203" y="-7.5" font-family="Helvetica,sans-Serif" font-size="10.00">cstdint</text>
</a>
</g>
</g>
<!-- Node2&#45;&gt;Node7 -->
<g id="edge6" class="edge">
<title>Node2&#45;&gt;Node7</title>
<path fill="none" stroke="midnightblue" d="M272.11,-112.37C259.74,-94.22 230.82,-51.8 214.58,-27.99"/>
<polygon fill="midnightblue" stroke="midnightblue" points="217.38,-25.88 208.86,-19.59 211.6,-29.83 217.38,-25.88"/>
</g>
<!-- Node22 -->
<g id="node6" class="node">
<title>Node22</title>
<g id="a_node6"><a xlink:href="platform_8hpp.html" target="_top" xlink:title=" ">
<polygon fill="white" stroke="red" points="272,-56.5 272,-75.5 352,-75.5 352,-56.5 272,-56.5"/>
<text text-anchor="middle" x="312" y="-63.5" font-family="Helvetica,sans-Serif" font-size="10.00">platform.hpp</text>
</a>
</g>
</g>
<!-- Node2&#45;&gt;Node22 -->
<g id="edge5" class="edge">
<title>Node2&#45;&gt;Node22</title>
<path fill="none" stroke="midnightblue" d="M283.61,-112.08C288.37,-104.53 295.32,-93.49 301.15,-84.23"/>
<polygon fill="midnightblue" stroke="midnightblue" points="304.12,-86.08 306.49,-75.75 298.2,-82.35 304.12,-86.08"/>
</g>
<!-- Node25 -->
<g id="node7" class="node">
<title>Node25</title>
<g id="a_node7"><a xlink:title=" ">
<polygon fill="white" stroke="#bfbfbf" points="370.5,-56.5 370.5,-75.5 471.5,-75.5 471.5,-56.5 370.5,-56.5"/>
<text text-anchor="middle" x="421" y="-63.5" font-family="Helvetica,sans-Serif" font-size="10.00">emlabcpp/defer.h</text>
</a>
</g>
</g>
<!-- Node2&#45;&gt;Node25 -->
<g id="edge7" class="edge">
<title>Node2&#45;&gt;Node25</title>
<path fill="none" stroke="midnightblue" d="M300.66,-112.44C324.4,-103.48 361.91,-89.31 388.74,-79.18"/>
<polygon fill="midnightblue" stroke="midnightblue" points="390.33,-82.32 398.45,-75.52 387.86,-75.77 390.33,-82.32"/>
</g>
<!-- Node18&#45;&gt;Node7 -->
<g id="edge4" class="edge">
<title>Node18&#45;&gt;Node7</title>
<path fill="none" stroke="midnightblue" d="M169.61,-56.08C175.26,-48.46 183.54,-37.26 190.45,-27.94"/>
<polygon fill="midnightblue" stroke="midnightblue" points="193.38,-29.87 196.52,-19.75 187.75,-25.7 193.38,-29.87"/>
</g>
<!-- Node27 -->
<g id="node9" class="node">
<title>Node27</title>
<g id="a_node9"><a xlink:title=" ">
<polygon fill="white" stroke="#bfbfbf" points="490,-56.5 490,-75.5 554,-75.5 554,-56.5 490,-56.5"/>
<text text-anchor="middle" x="522" y="-63.5" font-family="Helvetica,sans-Serif" font-size="10.00">algorithm</text>
</a>
</g>
</g>
<!-- Node26&#45;&gt;Node27 -->
<g id="edge9" class="edge">
<title>Node26&#45;&gt;Node27</title>
<path fill="none" stroke="midnightblue" d="M552.89,-112.08C547.72,-104.53 540.15,-93.49 533.81,-84.23"/>
<polygon fill="midnightblue" stroke="midnightblue" points="536.54,-82.02 528,-75.75 530.76,-85.98 536.54,-82.02"/>
</g>
<!-- Node28 -->
<g id="node10" class="node">
<title>Node28</title>
<g id="a_node10"><a xlink:title=" ">
<polygon fill="white" stroke="#bfbfbf" points="572,-56.5 572,-75.5 622,-75.5 622,-56.5 572,-56.5"/>
<text text-anchor="middle" x="597" y="-63.5" font-family="Helvetica,sans-Serif" font-size="10.00">cstring</text>
</a>
</g>
</g>
<!-- Node26&#45;&gt;Node28 -->
<g id="edge10" class="edge">
<title>Node26&#45;&gt;Node28</title>
<path fill="none" stroke="midnightblue" d="M565.27,-112.08C570.64,-104.46 578.52,-93.26 585.08,-83.94"/>
<polygon fill="midnightblue" stroke="midnightblue" points="587.95,-85.94 590.84,-75.75 582.22,-81.91 587.95,-85.94"/>
</g>
<!-- Node29 -->
<g id="node11" class="node">
<title>Node29</title>
<g id="a_node11"><a xlink:title=" ">
<polygon fill="white" stroke="#bfbfbf" points="640.5,-56.5 640.5,-75.5 713.5,-75.5 713.5,-56.5 640.5,-56.5"/>
<text text-anchor="middle" x="677" y="-63.5" font-family="Helvetica,sans-Serif" font-size="10.00">string_view</text>
</a>
</g>
</g>
<!-- Node26&#45;&gt;Node29 -->
<g id="edge11" class="edge">
<title>Node26&#45;&gt;Node29</title>
<path fill="none" stroke="midnightblue" d="M577.7,-112.44C596.94,-103.64 627.15,-89.81 649.2,-79.72"/>
<polygon fill="midnightblue" stroke="midnightblue" points="650.75,-82.86 658.39,-75.52 647.84,-76.5 650.75,-82.86"/>
</g>
</g>
</svg>
