<?xml version="1.0" encoding="UTF-8" standalone="no"?>
<!DOCTYPE svg PUBLIC "-//W3C//DTD SVG 1.1//EN"
 "http://www.w3.org/Graphics/SVG/1.1/DTD/svg11.dtd">
<!-- Generated by graphviz version 2.43.0 (0)
 -->
<!-- Title: src/ftest/main.cpp Pages: 1 -->
<svg width="941pt" height="324pt"
 viewBox="0.00 0.00 940.50 324.00" xmlns="http://www.w3.org/2000/svg" xmlns:xlink="http://www.w3.org/1999/xlink">
<g id="graph0" class="graph" transform="scale(1 1) rotate(0) translate(4 320)">
<title>src/ftest/main.cpp</title>
<!-- Node1 -->
<g id="Node000001" class="node">
<title>Node1</title>
<g id="a_Node000001"><a xlink:title=" ">
<polygon fill="#999999" stroke="#666666" points="411.5,-316 307.5,-316 307.5,-297 411.5,-297 411.5,-316"/>
<text text-anchor="middle" x="359.5" y="-304" font-family="Helvetica,sans-Serif" font-size="10.00">src/ftest/main.cpp</text>
</a>
</g>
</g>
<!-- Node2 -->
<g id="Node000002" class="node">
<title>Node2</title>
<g id="a_Node000002"><a xlink:href="brd_8hpp.html" target="_top" xlink:title=" ">
<polygon fill="white" stroke="#666666" points="81,-261 0,-261 0,-242 81,-242 81,-261"/>
<text text-anchor="middle" x="40.5" y="-249" font-family="Helvetica,sans-Serif" font-size="10.00">../brd/brd.hpp</text>
</a>
</g>
</g>
<!-- Node1&#45;&gt;Node2 -->
<g id="edge1_Node000001_Node000002" class="edge">
<title>Node1&#45;&gt;Node2</title>
<g id="a_edge1_Node000001_Node000002"><a xlink:title=" ">
<path fill="none" stroke="#63b8ff" d="M308.25,-296.98C248.48,-287.05 150.31,-270.74 90.91,-260.87"/>
<polygon fill="#63b8ff" stroke="#63b8ff" points="91.44,-257.42 81,-259.23 90.29,-264.32 91.44,-257.42"/>
</a>
</g>
</g>
<!-- Node20 -->
<g id="Node000020" class="node">
<title>Node20</title>
<g id="a_Node000020"><a xlink:href="context_8hpp.html" target="_top" xlink:title=" ">
<polygon fill="white" stroke="#666666" points="248.5,-261 150.5,-261 150.5,-242 248.5,-242 248.5,-261"/>
<text text-anchor="middle" x="199.5" y="-249" font-family="Helvetica,sans-Serif" font-size="10.00">../fw/context.hpp</text>
</a>
</g>
</g>
<!-- Node1&#45;&gt;Node20 -->
<g id="edge5_Node000001_Node000020" class="edge">
<title>Node1&#45;&gt;Node20</title>
<g id="a_edge5_Node000001_Node000020"><a xlink:title=" ">
<path fill="none" stroke="#63b8ff" d="M333.79,-296.98C307.05,-288.13 264.97,-274.19 235.05,-264.28"/>
<polygon fill="#63b8ff" stroke="#63b8ff" points="236,-260.9 225.41,-261.08 233.8,-267.55 236,-260.9"/>
</a>
</g>
</g>
<!-- Node46 -->
<g id="Node000046" class="node">
<title>Node46</title>
<g id="a_Node000046"><a xlink:href="fw_2util_8hpp.html" target="_top" xlink:title=" ">
<polygon fill="white" stroke="#666666" points="398,-261 321,-261 321,-242 398,-242 398,-261"/>
<text text-anchor="middle" x="359.5" y="-249" font-family="Helvetica,sans-Serif" font-size="10.00">../fw/util.hpp</text>
</a>
</g>
</g>
<!-- Node1&#45;&gt;Node46 -->
<g id="edge11_Node000001_Node000046" class="edge">
<title>Node1&#45;&gt;Node46</title>
<g id="a_edge11_Node000001_Node000046"><a xlink:title=" ">
<path fill="none" stroke="#63b8ff" d="M359.5,-296.75C359.5,-289.8 359.5,-279.85 359.5,-271.13"/>
<polygon fill="#63b8ff" stroke="#63b8ff" points="363,-271.09 359.5,-261.09 356,-271.09 363,-271.09"/>
</a>
</g>
</g>
<!-- Node49 -->
<g id="Node000049" class="node">
<title>Node49</title>
<g id="a_Node000049"><a xlink:href="setup__tests_8hpp.html" target="_top" xlink:title=" ">
<polygon fill="white" stroke="#666666" points="594.5,-206 494.5,-206 494.5,-187 594.5,-187 594.5,-206"/>
<text text-anchor="middle" x="544.5" y="-194" font-family="Helvetica,sans-Serif" font-size="10.00">./setup_tests.hpp</text>
</a>
</g>
</g>
<!-- Node1&#45;&gt;Node49 -->
<g id="edge15_Node000001_Node000049" class="edge">
<title>Node1&#45;&gt;Node49</title>
<g id="a_edge15_Node000001_Node000049"><a xlink:title=" ">
<path fill="none" stroke="#63b8ff" d="M374.33,-296.84C406.34,-278.16 482.15,-233.9 520.87,-211.3"/>
<polygon fill="#63b8ff" stroke="#63b8ff" points="522.99,-214.11 529.86,-206.05 519.46,-208.07 522.99,-214.11"/>
</a>
</g>
</g>
<!-- Node57 -->
<g id="Node000057" class="node">
<title>Node57</title>
<g id="a_Node000057"><a xlink:href="testing__system_8hpp.html" target="_top" xlink:title=" ">
<polygon fill="white" stroke="#666666" points="765,-206 646,-206 646,-187 765,-187 765,-206"/>
<text text-anchor="middle" x="705.5" y="-194" font-family="Helvetica,sans-Serif" font-size="10.00">./testing_system.hpp</text>
</a>
</g>
</g>
<!-- Node1&#45;&gt;Node57 -->
<g id="edge25_Node000001_Node000057" class="edge">
<title>Node1&#45;&gt;Node57</title>
<g id="a_edge25_Node000001_Node000057"><a xlink:title=" ">
<path fill="none" stroke="#63b8ff" d="M386.94,-296.94C448.64,-277.68 598.38,-230.94 668.34,-209.1"/>
<polygon fill="#63b8ff" stroke="#63b8ff" points="669.56,-212.39 678.06,-206.07 667.47,-205.7 669.56,-212.39"/>
</a>
</g>
</g>
<!-- Node3 -->
<g id="Node000003" class="node">
<title>Node3</title>
<g id="a_Node000003"><a xlink:href="drivers_8hpp.html" target="_top" xlink:title=" ">
<polygon fill="#fff0f0" stroke="red" points="175.5,-145.5 71.5,-145.5 71.5,-126.5 175.5,-126.5 175.5,-145.5"/>
<text text-anchor="middle" x="123.5" y="-133.5" font-family="Helvetica,sans-Serif" font-size="10.00">../core/drivers.hpp</text>
</a>
</g>
</g>
<!-- Node2&#45;&gt;Node3 -->
<g id="edge2_Node000002_Node000003" class="edge">
<title>Node2&#45;&gt;Node3</title>
<g id="a_edge2_Node000002_Node000003"><a xlink:title=" ">
<path fill="none" stroke="#63b8ff" d="M42.17,-241.6C44.93,-228.65 51.38,-204.28 63.5,-187 73.4,-172.89 88.27,-160.46 100.72,-151.52"/>
<polygon fill="#63b8ff" stroke="#63b8ff" points="103,-154.21 109.26,-145.66 99.04,-148.44 103,-154.21"/>
</a>
</g>
</g>
<!-- Node4 -->
<g id="Node000004" class="node">
<title>Node4</title>
<g id="a_Node000004"><a xlink:href="interfaces_8hpp.html" target="_top" xlink:title=" ">
<polygon fill="#fff0f0" stroke="red" points="358.5,-79.5 244.5,-79.5 244.5,-60.5 358.5,-60.5 358.5,-79.5"/>
<text text-anchor="middle" x="301.5" y="-67.5" font-family="Helvetica,sans-Serif" font-size="10.00">../drv/interfaces.hpp</text>
</a>
</g>
</g>
<!-- Node3&#45;&gt;Node4 -->
<g id="edge3_Node000003_Node000004" class="edge">
<title>Node3&#45;&gt;Node4</title>
<g id="a_edge3_Node000003_Node000004"><a xlink:title=" ">
<path fill="none" stroke="#63b8ff" d="M147.51,-126.37C178.51,-115.22 232.66,-95.75 267.79,-83.12"/>
<polygon fill="#63b8ff" stroke="#63b8ff" points="269.36,-86.27 277.59,-79.6 267,-79.69 269.36,-86.27"/>
</a>
</g>
</g>
<!-- Node5 -->
<g id="Node000005" class="node">
<title>Node5</title>
<g id="a_Node000005"><a xlink:href="base_8hpp.html" target="_top" xlink:title=" ">
<polygon fill="#fff0f0" stroke="red" points="421.5,-19 351.5,-19 351.5,0 421.5,0 421.5,-19"/>
<text text-anchor="middle" x="386.5" y="-7" font-family="Helvetica,sans-Serif" font-size="10.00">../base.hpp</text>
</a>
</g>
</g>
<!-- Node4&#45;&gt;Node5 -->
<g id="edge4_Node000004_Node000005" class="edge">
<title>Node4&#45;&gt;Node5</title>
<g id="a_edge4_Node000004_Node000005"><a xlink:title=" ">
<path fill="none" stroke="#63b8ff" d="M314.04,-60.37C327.6,-51.04 349.44,-36.01 365.6,-24.88"/>
<polygon fill="#63b8ff" stroke="#63b8ff" points="367.65,-27.72 373.91,-19.17 363.68,-21.95 367.65,-27.72"/>
</a>
</g>
</g>
<!-- Node20&#45;&gt;Node3 -->
<g id="edge10_Node000020_Node000003" class="edge">
<title>Node20&#45;&gt;Node3</title>
<g id="a_edge10_Node000020_Node000003"><a xlink:title=" ">
<path fill="none" stroke="#63b8ff" d="M150.2,-246.94C122.21,-242.1 89.29,-231.02 71.5,-206 57.79,-186.73 80.7,-165.02 100.31,-151.19"/>
<polygon fill="#63b8ff" stroke="#63b8ff" points="102.31,-154.07 108.67,-145.6 98.42,-148.25 102.31,-154.07"/>
</a>
</g>
</g>
<!-- Node21 -->
<g id="Node000021" class="node">
<title>Node21</title>
<g id="a_Node000021"><a xlink:href="cfg_2dispatcher_8hpp.html" target="_top" xlink:title=" ">
<polygon fill="#fff0f0" stroke="red" points="196,-206 81,-206 81,-187 196,-187 196,-206"/>
<text text-anchor="middle" x="138.5" y="-194" font-family="Helvetica,sans-Serif" font-size="10.00">../cfg/dispatcher.hpp</text>
</a>
</g>
</g>
<!-- Node20&#45;&gt;Node21 -->
<g id="edge6_Node000020_Node000021" class="edge">
<title>Node20&#45;&gt;Node21</title>
<g id="a_edge6_Node000020_Node000021"><a xlink:title=" ">
<path fill="none" stroke="#63b8ff" d="M189.7,-241.98C180.68,-234.15 167.09,-222.34 156.18,-212.86"/>
<polygon fill="#63b8ff" stroke="#63b8ff" points="158.32,-210.09 148.48,-206.17 153.73,-215.37 158.32,-210.09"/>
</a>
</g>
</g>
<!-- Node22 -->
<g id="Node000022" class="node">
<title>Node22</title>
<g id="a_Node000022"><a xlink:href="core_8hpp.html" target="_top" xlink:title=" ">
<polygon fill="#fff0f0" stroke="red" points="285.5,-145.5 193.5,-145.5 193.5,-126.5 285.5,-126.5 285.5,-145.5"/>
<text text-anchor="middle" x="239.5" y="-133.5" font-family="Helvetica,sans-Serif" font-size="10.00">../core/core.hpp</text>
</a>
</g>
</g>
<!-- Node20&#45;&gt;Node22 -->
<g id="edge9_Node000020_Node000022" class="edge">
<title>Node20&#45;&gt;Node22</title>
<g id="a_edge9_Node000020_Node000022"><a xlink:title=" ">
<path fill="none" stroke="#63b8ff" d="M202.51,-241.97C208.96,-223.65 224.28,-180.18 233.05,-155.31"/>
<polygon fill="#63b8ff" stroke="#63b8ff" points="236.44,-156.22 236.46,-145.63 229.83,-153.9 236.44,-156.22"/>
</a>
</g>
</g>
<!-- Node21&#45;&gt;Node3 -->
<g id="edge8_Node000021_Node000003" class="edge">
<title>Node21&#45;&gt;Node3</title>
<g id="a_edge8_Node000021_Node000003"><a xlink:title=" ">
<path fill="none" stroke="#63b8ff" d="M136.29,-186.87C134.18,-178.66 130.95,-166.04 128.26,-155.55"/>
<polygon fill="#63b8ff" stroke="#63b8ff" points="131.6,-154.48 125.72,-145.67 124.82,-156.22 131.6,-154.48"/>
</a>
</g>
</g>
<!-- Node21&#45;&gt;Node22 -->
<g id="edge7_Node000021_Node000022" class="edge">
<title>Node21&#45;&gt;Node22</title>
<g id="a_edge7_Node000021_Node000022"><a xlink:title=" ">
<path fill="none" stroke="#63b8ff" d="M153.4,-186.87C169.81,-177.36 196.43,-161.95 215.73,-150.77"/>
<polygon fill="#63b8ff" stroke="#63b8ff" points="217.64,-153.71 224.54,-145.67 214.13,-147.65 217.64,-153.71"/>
</a>
</g>
</g>
<!-- Node27 -->
<g id="Node000027" class="node">
<title>Node27</title>
<g id="a_Node000027"><a xlink:title=" ">
<polygon fill="#e0e0e0" stroke="#999999" points="316.5,-206 252.5,-206 252.5,-187 316.5,-187 316.5,-206"/>
<text text-anchor="middle" x="284.5" y="-194" font-family="Helvetica,sans-Serif" font-size="10.00">algorithm</text>
</a>
</g>
</g>
<!-- Node46&#45;&gt;Node27 -->
<g id="edge12_Node000046_Node000027" class="edge">
<title>Node46&#45;&gt;Node27</title>
<g id="a_edge12_Node000046_Node000027"><a xlink:title=" ">
<path fill="none" stroke="#63b8ff" d="M347.45,-241.98C336.04,-233.92 318.67,-221.65 305.07,-212.03"/>
<polygon fill="#63b8ff" stroke="#63b8ff" points="306.96,-209.08 296.77,-206.17 302.92,-214.8 306.96,-209.08"/>
</a>
</g>
</g>
<!-- Node47 -->
<g id="Node000047" class="node">
<title>Node47</title>
<g id="a_Node000047"><a xlink:title=" ">
<polygon fill="#e0e0e0" stroke="#999999" points="384.5,-206 334.5,-206 334.5,-187 384.5,-187 384.5,-206"/>
<text text-anchor="middle" x="359.5" y="-194" font-family="Helvetica,sans-Serif" font-size="10.00">cstring</text>
</a>
</g>
</g>
<!-- Node46&#45;&gt;Node47 -->
<g id="edge13_Node000046_Node000047" class="edge">
<title>Node46&#45;&gt;Node47</title>
<g id="a_edge13_Node000046_Node000047"><a xlink:title=" ">
<path fill="none" stroke="#63b8ff" d="M359.5,-241.75C359.5,-234.8 359.5,-224.85 359.5,-216.13"/>
<polygon fill="#63b8ff" stroke="#63b8ff" points="363,-216.09 359.5,-206.09 356,-216.09 363,-216.09"/>
</a>
</g>
</g>
<!-- Node48 -->
<g id="Node000048" class="node">
<title>Node48</title>
<g id="a_Node000048"><a xlink:title=" ">
<polygon fill="#e0e0e0" stroke="#999999" points="476,-206 403,-206 403,-187 476,-187 476,-206"/>
<text text-anchor="middle" x="439.5" y="-194" font-family="Helvetica,sans-Serif" font-size="10.00">string_view</text>
</a>
</g>
</g>
<!-- Node46&#45;&gt;Node48 -->
<g id="edge14_Node000046_Node000048" class="edge">
<title>Node46&#45;&gt;Node48</title>
<g id="a_edge14_Node000046_Node000048"><a xlink:title=" ">
<path fill="none" stroke="#63b8ff" d="M372.35,-241.98C384.64,-233.84 403.41,-221.41 417.98,-211.76"/>
<polygon fill="#63b8ff" stroke="#63b8ff" points="420.01,-214.61 426.41,-206.17 416.14,-208.78 420.01,-214.61"/>
</a>
</g>
</g>
<!-- Node49&#45;&gt;Node3 -->
<g id="edge17_Node000049_Node000003" class="edge">
<title>Node49&#45;&gt;Node3</title>
<g id="a_edge17_Node000049_Node000003"><a xlink:title=" ">
<path fill="none" stroke="#63b8ff" d="M494.3,-188.18C491.32,-187.78 488.37,-187.38 485.5,-187 351.92,-169.39 317.24,-174.1 184.5,-151 179.08,-150.06 173.42,-148.94 167.82,-147.75"/>
<polygon fill="#63b8ff" stroke="#63b8ff" points="168.41,-144.3 157.89,-145.57 166.9,-151.13 168.41,-144.3"/>
</a>
</g>
</g>
<!-- Node49&#45;&gt;Node22 -->
<g id="edge16_Node000049_Node000022" class="edge">
<title>Node49&#45;&gt;Node22</title>
<g id="a_edge16_Node000049_Node000022"><a xlink:title=" ">
<path fill="none" stroke="#63b8ff" d="M500.15,-186.99C445.49,-176.51 352.63,-158.7 293.76,-147.41"/>
<polygon fill="#63b8ff" stroke="#63b8ff" points="294.38,-143.96 283.9,-145.52 293.06,-150.84 294.38,-143.96"/>
</a>
</g>
</g>
<!-- Node50 -->
<g id="Node000050" class="node">
<title>Node50</title>
<g id="a_Node000050"><a xlink:href="utest_8hpp.html" target="_top" xlink:title=" ">
<polygon fill="#fff0f0" stroke="red" points="468.5,-145.5 400.5,-145.5 400.5,-126.5 468.5,-126.5 468.5,-145.5"/>
<text text-anchor="middle" x="434.5" y="-133.5" font-family="Helvetica,sans-Serif" font-size="10.00">./utest.hpp</text>
</a>
</g>
</g>
<!-- Node49&#45;&gt;Node50 -->
<g id="edge18_Node000049_Node000050" class="edge">
<title>Node49&#45;&gt;Node50</title>
<g id="a_edge18_Node000049_Node000050"><a xlink:title=" ">
<path fill="none" stroke="#63b8ff" d="M528.27,-186.87C510.23,-177.28 480.88,-161.67 459.82,-150.47"/>
<polygon fill="#63b8ff" stroke="#63b8ff" points="461.27,-147.27 450.8,-145.67 457.98,-153.45 461.27,-147.27"/>
</a>
</g>
</g>
<!-- Node52 -->
<g id="Node000052" class="node">
<title>Node52</title>
<g id="a_Node000052"><a xlink:title=" ">
<polygon fill="#e0e0e0" stroke="#999999" points="548,-85 415,-85 415,-55 548,-55 548,-85"/>
<text text-anchor="start" x="423" y="-73" font-family="Helvetica,sans-Serif" font-size="10.00">emlabcpp/experimental</text>
<text text-anchor="middle" x="481.5" y="-62" font-family="Helvetica,sans-Serif" font-size="10.00">/testing/collect.h</text>
</a>
</g>
</g>
<!-- Node49&#45;&gt;Node52 -->
<g id="edge22_Node000049_Node000052" class="edge">
<title>Node49&#45;&gt;Node52</title>
<g id="a_edge22_Node000049_Node000052"><a xlink:title=" ">
<path fill="none" stroke="#63b8ff" d="M494.33,-187.54C454.68,-180.1 404,-167.65 391.5,-151 383.5,-140.34 384.74,-132.49 391.5,-121 399.53,-107.35 412.78,-97.16 426.68,-89.67"/>
<polygon fill="#63b8ff" stroke="#63b8ff" points="428.45,-92.7 435.85,-85.13 425.34,-86.43 428.45,-92.7"/>
</a>
</g>
</g>
<!-- Node55 -->
<g id="Node000055" class="node">
<title>Node55</title>
<g id="a_Node000055"><a xlink:title=" ">
<polygon fill="#e0e0e0" stroke="#999999" points="699,-85 566,-85 566,-55 699,-55 699,-85"/>
<text text-anchor="start" x="574" y="-73" font-family="Helvetica,sans-Serif" font-size="10.00">emlabcpp/experimental</text>
<text text-anchor="middle" x="632.5" y="-62" font-family="Helvetica,sans-Serif" font-size="10.00">/testing/reactor.h</text>
</a>
</g>
</g>
<!-- Node49&#45;&gt;Node55 -->
<g id="edge24_Node000049_Node000055" class="edge">
<title>Node49&#45;&gt;Node55</title>
<g id="a_edge24_Node000049_Node000055"><a xlink:title=" ">
<path fill="none" stroke="#63b8ff" d="M536.2,-186.65C523.56,-172.07 502.37,-142.47 516.5,-121 526.02,-106.53 540.71,-96.23 556.48,-88.9"/>
<polygon fill="#63b8ff" stroke="#63b8ff" points="558.01,-92.05 565.85,-84.92 555.28,-85.61 558.01,-92.05"/>
</a>
</g>
</g>
<!-- Node56 -->
<g id="Node000056" class="node">
<title>Node56</title>
<g id="a_Node000056"><a xlink:title=" ">
<polygon fill="#e0e0e0" stroke="#999999" points="658,-151 525,-151 525,-121 658,-121 658,-151"/>
<text text-anchor="start" x="533" y="-139" font-family="Helvetica,sans-Serif" font-size="10.00">emlabcpp/experimental</text>
<text text-anchor="middle" x="591.5" y="-128" font-family="Helvetica,sans-Serif" font-size="10.00">/testing/parameters.h</text>
</a>
</g>
</g>
<!-- Node49&#45;&gt;Node56 -->
<g id="edge23_Node000049_Node000056" class="edge">
<title>Node49&#45;&gt;Node56</title>
<g id="a_edge23_Node000049_Node000056"><a xlink:title=" ">
<path fill="none" stroke="#63b8ff" d="M551.44,-186.87C557.28,-179.59 565.91,-168.85 573.66,-159.2"/>
<polygon fill="#63b8ff" stroke="#63b8ff" points="576.63,-161.1 580.16,-151.11 571.17,-156.72 576.63,-161.1"/>
</a>
</g>
</g>
<!-- Node50&#45;&gt;Node5 -->
<g id="edge19_Node000050_Node000005" class="edge">
<title>Node50&#45;&gt;Node5</title>
<g id="a_edge19_Node000050_Node000005"><a xlink:title=" ">
<path fill="none" stroke="#63b8ff" d="M428.86,-126.48C422.65,-116.78 412.72,-100.3 406.5,-85 399.03,-66.63 393.51,-44.59 390.18,-29.27"/>
<polygon fill="#63b8ff" stroke="#63b8ff" points="393.6,-28.53 388.15,-19.45 386.75,-29.95 393.6,-28.53"/>
</a>
</g>
</g>
<!-- Node50&#45;&gt;Node52 -->
<g id="edge20_Node000050_Node000052" class="edge">
<title>Node50&#45;&gt;Node52</title>
<g id="a_edge20_Node000050_Node000052"><a xlink:title=" ">
<path fill="none" stroke="#63b8ff" d="M440.84,-126.37C446.99,-117.99 456.59,-104.93 464.91,-93.59"/>
<polygon fill="#63b8ff" stroke="#63b8ff" points="467.86,-95.49 470.95,-85.36 462.21,-91.35 467.86,-95.49"/>
</a>
</g>
</g>
<!-- Node50&#45;&gt;Node55 -->
<g id="edge21_Node000050_Node000055" class="edge">
<title>Node50&#45;&gt;Node55</title>
<g id="a_edge21_Node000050_Node000055"><a xlink:title=" ">
<path fill="none" stroke="#63b8ff" d="M461.2,-126.37C491.24,-116.66 540.81,-100.64 578.91,-88.32"/>
<polygon fill="#63b8ff" stroke="#63b8ff" points="580.39,-91.52 588.83,-85.12 578.24,-84.86 580.39,-91.52"/>
</a>
</g>
</g>
<!-- Node57&#45;&gt;Node4 -->
<g id="edge27_Node000057_Node000004" class="edge">
<title>Node57&#45;&gt;Node4</title>
<g id="a_edge27_Node000057_Node000004"><a xlink:title=" ">
<path fill="none" stroke="#63b8ff" d="M703.82,-186.89C700.24,-170.98 690.23,-137.14 667.5,-121 665.98,-119.92 474.35,-94.13 369.02,-80.03"/>
<polygon fill="#63b8ff" stroke="#63b8ff" points="369.17,-76.52 358.79,-78.66 368.24,-83.45 369.17,-76.52"/>
</a>
</g>
</g>
<!-- Node57&#45;&gt;Node5 -->
<g id="edge26_Node000057_Node000005" class="edge">
<title>Node57&#45;&gt;Node5</title>
<g id="a_edge26_Node000057_Node000005"><a xlink:title=" ">
<path fill="none" stroke="#63b8ff" d="M720.63,-186.73C732.31,-178.99 747.62,-166.55 754.5,-151 773.65,-107.74 748.84,-79.72 708.5,-55 663.06,-27.16 509.41,-16.18 431.94,-12.33"/>
<polygon fill="#63b8ff" stroke="#63b8ff" points="431.69,-8.82 421.54,-11.84 431.36,-15.81 431.69,-8.82"/>
</a>
</g>
</g>
<!-- Node57&#45;&gt;Node50 -->
<g id="edge29_Node000057_Node000050" class="edge">
<title>Node57&#45;&gt;Node50</title>
<g id="a_edge29_Node000057_Node000050"><a xlink:title=" ">
<path fill="none" stroke="#63b8ff" d="M666.09,-186.99C616.27,-176.24 530.75,-157.78 478.74,-146.55"/>
<polygon fill="#63b8ff" stroke="#63b8ff" points="479.32,-143.09 468.8,-144.4 477.84,-149.94 479.32,-143.09"/>
</a>
</g>
</g>
<!-- Node57&#45;&gt;Node52 -->
<g id="edge30_Node000057_Node000052" class="edge">
<title>Node57&#45;&gt;Node52</title>
<g id="a_edge30_Node000057_Node000052"><a xlink:title=" ">
<path fill="none" stroke="#63b8ff" d="M707.86,-186.93C711.5,-171.7 716.49,-139.73 700.5,-121 695.69,-115.36 619.35,-98.79 558.14,-86.25"/>
<polygon fill="#63b8ff" stroke="#63b8ff" points="558.57,-82.77 548.07,-84.2 557.17,-89.63 558.57,-82.77"/>
</a>
</g>
</g>
<!-- Node57&#45;&gt;Node55 -->
<g id="edge32_Node000057_Node000055" class="edge">
<title>Node57&#45;&gt;Node55</title>
<g id="a_edge32_Node000057_Node000055"><a xlink:title=" ">
<path fill="none" stroke="#63b8ff" d="M714.71,-186.82C728.78,-172.48 752.59,-143.22 738.5,-121 729.52,-106.84 715.34,-96.62 700.24,-89.26"/>
<polygon fill="#63b8ff" stroke="#63b8ff" points="701.31,-85.91 690.75,-85.04 698.47,-92.3 701.31,-85.91"/>
</a>
</g>
</g>
<!-- Node57&#45;&gt;Node56 -->
<g id="edge31_Node000057_Node000056" class="edge">
<title>Node57&#45;&gt;Node56</title>
<g id="a_edge31_Node000057_Node000056"><a xlink:title=" ">
<path fill="none" stroke="#63b8ff" d="M688.68,-186.87C672.78,-178.71 648.4,-166.2 628.03,-155.75"/>
<polygon fill="#63b8ff" stroke="#63b8ff" points="629.5,-152.57 619.01,-151.11 626.3,-158.79 629.5,-152.57"/>
</a>
</g>
</g>
<!-- Node58 -->
<g id="Node000058" class="node">
<title>Node58</title>
<g id="a_Node000058"><a xlink:href="ftester_2base_8hpp.html" target="_top" xlink:title=" ">
<polygon fill="#fff0f0" stroke="red" points="932.5,-145.5 828.5,-145.5 828.5,-126.5 932.5,-126.5 932.5,-145.5"/>
<text text-anchor="middle" x="880.5" y="-133.5" font-family="Helvetica,sans-Serif" font-size="10.00">../ftester/base.hpp</text>
</a>
</g>
</g>
<!-- Node57&#45;&gt;Node58 -->
<g id="edge28_Node000057_Node000058" class="edge">
<title>Node57&#45;&gt;Node58</title>
<g id="a_edge28_Node000057_Node000058"><a xlink:title=" ">
<path fill="none" stroke="#63b8ff" d="M730.95,-186.99C761.14,-176.9 811.66,-160.01 845.52,-148.69"/>
<polygon fill="#63b8ff" stroke="#63b8ff" points="846.65,-152.01 855.02,-145.52 844.43,-145.37 846.65,-152.01"/>
</a>
</g>
</g>
</g>
</svg>
