<?xml version="1.0" encoding="UTF-8" standalone="no"?>
<!DOCTYPE svg PUBLIC "-//W3C//DTD SVG 1.1//EN"
 "http://www.w3.org/Graphics/SVG/1.1/DTD/svg11.dtd">
<!-- Generated by graphviz version 2.43.0 (0)
 -->
<!-- Title: src/ftester/main.cpp Pages: 1 -->
<svg width="2211pt" height="207pt"
 viewBox="0.00 0.00 2210.50 207.00" xmlns="http://www.w3.org/2000/svg" xmlns:xlink="http://www.w3.org/1999/xlink">
<g id="graph0" class="graph" transform="scale(1 1) rotate(0) translate(4 203)">
<title>src/ftester/main.cpp</title>
<polygon fill="white" stroke="transparent" points="-4,4 -4,-203 2206.5,-203 2206.5,4 -4,4"/>
<!-- Node1 -->
<g id="node1" class="node">
<title>Node1</title>
<g id="a_node1"><a xlink:title=" ">
<polygon fill="#bfbfbf" stroke="black" points="1343.5,-179.5 1343.5,-198.5 1456.5,-198.5 1456.5,-179.5 1343.5,-179.5"/>
<text text-anchor="middle" x="1400" y="-186.5" font-family="Helvetica,sans-Serif" font-size="10.00">src/ftester/main.cpp</text>
</a>
</g>
</g>
<!-- Node2 -->
<g id="node2" class="node">
<title>Node2</title>
<g id="a_node2"><a xlink:href="base_2base_8hpp.html" target="_top" xlink:title=" ">
<polygon fill="white" stroke="black" points="281,-123.5 281,-142.5 377,-142.5 377,-123.5 281,-123.5"/>
<text text-anchor="middle" x="329" y="-130.5" font-family="Helvetica,sans-Serif" font-size="10.00">../base/base.hpp</text>
</a>
</g>
</g>
<!-- Node1&#45;&gt;Node2 -->
<g id="edge1" class="edge">
<title>Node1&#45;&gt;Node2</title>
<path fill="none" stroke="midnightblue" d="M1343.17,-185.13C1158.23,-175.81 574.66,-146.39 387.43,-136.95"/>
<polygon fill="midnightblue" stroke="midnightblue" points="387.41,-133.44 377.24,-136.43 387.05,-140.43 387.41,-133.44"/>
</g>
<!-- Node8 -->
<g id="node8" class="node">
<title>Node8</title>
<g id="a_node8"><a xlink:href="ftest_2bench_2base_8hpp.html" target="_top" xlink:title=" ">
<polygon fill="white" stroke="black" points="44.5,-123.5 44.5,-142.5 171.5,-142.5 171.5,-123.5 44.5,-123.5"/>
<text text-anchor="middle" x="108" y="-130.5" font-family="Helvetica,sans-Serif" font-size="10.00">../ftest/bench/base.hpp</text>
</a>
</g>
</g>
<!-- Node1&#45;&gt;Node8 -->
<g id="edge7" class="edge">
<title>Node1&#45;&gt;Node8</title>
<path fill="none" stroke="midnightblue" d="M1343.35,-186.04C1178.2,-180.26 682.87,-162.47 272,-143 242.57,-141.61 210.19,-139.87 182.02,-138.3"/>
<polygon fill="midnightblue" stroke="midnightblue" points="182.03,-134.79 171.85,-137.73 181.64,-141.78 182.03,-134.79"/>
</g>
<!-- Node9 -->
<g id="node9" class="node">
<title>Node9</title>
<g id="a_node9"><a xlink:href="ftester_2config_8hpp.html" target="_top" xlink:title=" ">
<polygon fill="white" stroke="black" points="549.5,-123.5 549.5,-142.5 622.5,-142.5 622.5,-123.5 549.5,-123.5"/>
<text text-anchor="middle" x="586" y="-130.5" font-family="Helvetica,sans-Serif" font-size="10.00">./config.hpp</text>
</a>
</g>
</g>
<!-- Node1&#45;&gt;Node9 -->
<g id="edge9" class="edge">
<title>Node1&#45;&gt;Node9</title>
<path fill="none" stroke="midnightblue" d="M1343.38,-185.29C1220.97,-179.26 922.53,-163.62 673,-143 659.98,-141.92 645.89,-140.56 632.92,-139.21"/>
<polygon fill="midnightblue" stroke="midnightblue" points="633.11,-135.71 622.8,-138.15 632.38,-142.67 633.11,-135.71"/>
</g>
<!-- Node13 -->
<g id="node13" class="node">
<title>Node13</title>
<g id="a_node13"><a xlink:href="flash_8hpp.html" target="_top" xlink:title=" ">
<polygon fill="white" stroke="black" points="681.5,-123.5 681.5,-142.5 748.5,-142.5 748.5,-123.5 681.5,-123.5"/>
<text text-anchor="middle" x="715" y="-130.5" font-family="Helvetica,sans-Serif" font-size="10.00">./flash.hpp</text>
</a>
</g>
</g>
<!-- Node1&#45;&gt;Node13 -->
<g id="edge14" class="edge">
<title>Node1&#45;&gt;Node13</title>
<path fill="none" stroke="midnightblue" d="M1343.36,-183.54C1210.03,-173.02 878.63,-146.9 758.97,-137.47"/>
<polygon fill="midnightblue" stroke="midnightblue" points="758.97,-133.96 748.73,-136.66 758.42,-140.93 758.97,-133.96"/>
</g>
<!-- Node15 -->
<g id="node15" class="node">
<title>Node15</title>
<g id="a_node15"><a xlink:href="system_8hpp.html" target="_top" xlink:title=" ">
<polygon fill="white" stroke="black" points="1299,-123.5 1299,-142.5 1379,-142.5 1379,-123.5 1299,-123.5"/>
<text text-anchor="middle" x="1339" y="-130.5" font-family="Helvetica,sans-Serif" font-size="10.00">./system.hpp</text>
</a>
</g>
</g>
<!-- Node1&#45;&gt;Node15 -->
<g id="edge18" class="edge">
<title>Node1&#45;&gt;Node15</title>
<path fill="none" stroke="midnightblue" d="M1390.2,-179.32C1381.18,-171.34 1367.59,-159.31 1356.68,-149.65"/>
<polygon fill="midnightblue" stroke="midnightblue" points="1358.79,-146.84 1348.98,-142.83 1354.15,-152.08 1358.79,-146.84"/>
</g>
<!-- Node34 -->
<g id="node27" class="node">
<title>Node34</title>
<g id="a_node27"><a xlink:title=" ">
<polygon fill="white" stroke="#bfbfbf" points="1397,-123.5 1397,-142.5 1527,-142.5 1527,-123.5 1397,-123.5"/>
<text text-anchor="middle" x="1462" y="-130.5" font-family="Helvetica,sans-Serif" font-size="10.00">emlabcpp/enumerate.h</text>
</a>
</g>
</g>
<!-- Node1&#45;&gt;Node34 -->
<g id="edge31" class="edge">
<title>Node1&#45;&gt;Node34</title>
<path fill="none" stroke="midnightblue" d="M1409.96,-179.32C1419.13,-171.34 1432.94,-159.31 1444.03,-149.65"/>
<polygon fill="midnightblue" stroke="midnightblue" points="1446.62,-152.04 1451.86,-142.83 1442.02,-146.76 1446.62,-152.04"/>
</g>
<!-- Node35 -->
<g id="node28" class="node">
<title>Node35</title>
<g id="a_node28"><a xlink:title=" ">
<polygon fill="white" stroke="#bfbfbf" points="1545.5,-123.5 1545.5,-142.5 1600.5,-142.5 1600.5,-123.5 1545.5,-123.5"/>
<text text-anchor="middle" x="1573" y="-130.5" font-family="Helvetica,sans-Serif" font-size="10.00">fstream</text>
</a>
</g>
</g>
<!-- Node1&#45;&gt;Node35 -->
<g id="edge32" class="edge">
<title>Node1&#45;&gt;Node35</title>
<path fill="none" stroke="midnightblue" d="M1427.41,-179.44C1456.77,-170.28 1503.52,-155.69 1536.1,-145.52"/>
<polygon fill="midnightblue" stroke="midnightblue" points="1537.21,-148.84 1545.72,-142.52 1535.13,-142.16 1537.21,-148.84"/>
</g>
<!-- Node36 -->
<g id="node29" class="node">
<title>Node36</title>
<g id="a_node29"><a xlink:title=" ">
<polygon fill="white" stroke="#bfbfbf" points="1619,-123.5 1619,-142.5 1709,-142.5 1709,-123.5 1619,-123.5"/>
<text text-anchor="middle" x="1664" y="-130.5" font-family="Helvetica,sans-Serif" font-size="10.00">joque/exec.hpp</text>
</a>
</g>
</g>
<!-- Node1&#45;&gt;Node36 -->
<g id="edge33" class="edge">
<title>Node1&#45;&gt;Node36</title>
<path fill="none" stroke="midnightblue" d="M1441.83,-179.44C1488.08,-169.98 1562.61,-154.74 1612.44,-144.55"/>
<polygon fill="midnightblue" stroke="midnightblue" points="1613.27,-147.95 1622.36,-142.52 1611.87,-141.09 1613.27,-147.95"/>
</g>
<!-- Node37 -->
<g id="node30" class="node">
<title>Node37</title>
<g id="a_node30"><a xlink:title=" ">
<polygon fill="white" stroke="#bfbfbf" points="1727,-123.5 1727,-142.5 1815,-142.5 1815,-123.5 1727,-123.5"/>
<text text-anchor="middle" x="1771" y="-130.5" font-family="Helvetica,sans-Serif" font-size="10.00">joque/json.hpp</text>
</a>
</g>
</g>
<!-- Node1&#45;&gt;Node37 -->
<g id="edge34" class="edge">
<title>Node1&#45;&gt;Node37</title>
<path fill="none" stroke="midnightblue" d="M1456.65,-180.46C1518.19,-172.17 1619.66,-158.18 1716.78,-143.16"/>
<polygon fill="midnightblue" stroke="midnightblue" points="1717.42,-146.6 1726.77,-141.6 1716.35,-139.68 1717.42,-146.6"/>
</g>
<!-- Node38 -->
<g id="node31" class="node">
<title>Node38</title>
<g id="a_node31"><a xlink:title=" ">
<polygon fill="white" stroke="#bfbfbf" points="1833,-123.5 1833,-142.5 1943,-142.5 1943,-123.5 1833,-123.5"/>
<text text-anchor="middle" x="1888" y="-130.5" font-family="Helvetica,sans-Serif" font-size="10.00">nlohmann/json.hpp</text>
</a>
</g>
</g>
<!-- Node1&#45;&gt;Node38 -->
<g id="edge35" class="edge">
<title>Node1&#45;&gt;Node38</title>
<path fill="none" stroke="midnightblue" d="M1456.65,-182.6C1536.04,-174.91 1685.17,-159.95 1822.57,-143.14"/>
<polygon fill="midnightblue" stroke="midnightblue" points="1823.36,-146.57 1832.86,-141.88 1822.51,-139.62 1823.36,-146.57"/>
</g>
<!-- Node3 -->
<g id="node3" class="node">
<title>Node3</title>
<g id="a_node3"><a xlink:title=" ">
<polygon fill="white" stroke="#bfbfbf" points="142,-62 142,-81 192,-81 192,-62 142,-62"/>
<text text-anchor="middle" x="167" y="-69" font-family="Helvetica,sans-Serif" font-size="10.00">chrono</text>
</a>
</g>
</g>
<!-- Node2&#45;&gt;Node3 -->
<g id="edge2" class="edge">
<title>Node2&#45;&gt;Node3</title>
<path fill="none" stroke="midnightblue" d="M302.83,-123.36C276.83,-114.64 235.91,-100.56 201,-87 199.36,-86.36 197.67,-85.69 195.98,-85.01"/>
<polygon fill="midnightblue" stroke="midnightblue" points="196.91,-81.6 186.33,-81 194.22,-88.07 196.91,-81.6"/>
</g>
<!-- Node4 -->
<g id="node4" class="node">
<title>Node4</title>
<g id="a_node4"><a xlink:title=" ">
<polygon fill="white" stroke="#bfbfbf" points="422,-62 422,-81 472,-81 472,-62 422,-62"/>
<text text-anchor="middle" x="447" y="-69" font-family="Helvetica,sans-Serif" font-size="10.00">cstdint</text>
</a>
</g>
</g>
<!-- Node2&#45;&gt;Node4 -->
<g id="edge3" class="edge">
<title>Node2&#45;&gt;Node4</title>
<path fill="none" stroke="midnightblue" d="M345.91,-123.48C365.53,-113.58 398.13,-97.14 420.99,-85.62"/>
<polygon fill="midnightblue" stroke="midnightblue" points="422.77,-88.64 430.12,-81.01 419.62,-82.39 422.77,-88.64"/>
</g>
<!-- Node5 -->
<g id="node5" class="node">
<title>Node5</title>
<g id="a_node5"><a xlink:title=" ">
<polygon fill="white" stroke="#bfbfbf" points="0,-62 0,-81 124,-81 124,-62 0,-62"/>
<text text-anchor="middle" x="62" y="-69" font-family="Helvetica,sans-Serif" font-size="10.00">emlabcpp/algorithm.h</text>
</a>
</g>
</g>
<!-- Node2&#45;&gt;Node5 -->
<g id="edge4" class="edge">
<title>Node2&#45;&gt;Node5</title>
<path fill="none" stroke="midnightblue" d="M290.75,-123.48C243.16,-112.87 161.89,-94.76 110.12,-83.22"/>
<polygon fill="midnightblue" stroke="midnightblue" points="110.71,-79.77 100.18,-81.01 109.18,-86.6 110.71,-79.77"/>
</g>
<!-- Node6 -->
<g id="node6" class="node">
<title>Node6</title>
<g id="a_node6"><a xlink:title=" ">
<polygon fill="white" stroke="#bfbfbf" points="210,-62 210,-81 326,-81 326,-62 210,-62"/>
<text text-anchor="middle" x="268" y="-69" font-family="Helvetica,sans-Serif" font-size="10.00">emlabcpp/quantity.h</text>
</a>
</g>
</g>
<!-- Node2&#45;&gt;Node6 -->
<g id="edge5" class="edge">
<title>Node2&#45;&gt;Node6</title>
<path fill="none" stroke="midnightblue" d="M320.26,-123.48C310.84,-114.28 295.64,-99.46 284.05,-88.16"/>
<polygon fill="midnightblue" stroke="midnightblue" points="286.33,-85.49 276.72,-81.01 281.44,-90.5 286.33,-85.49"/>
</g>
<!-- Node7 -->
<g id="node7" class="node">
<title>Node7</title>
<g id="a_node7"><a xlink:title=" ">
<polygon fill="white" stroke="#bfbfbf" points="344.5,-62 344.5,-81 403.5,-81 403.5,-62 344.5,-62"/>
<text text-anchor="middle" x="374" y="-69" font-family="Helvetica,sans-Serif" font-size="10.00">numbers</text>
</a>
</g>
</g>
<!-- Node2&#45;&gt;Node7 -->
<g id="edge6" class="edge">
<title>Node2&#45;&gt;Node7</title>
<path fill="none" stroke="midnightblue" d="M335.45,-123.48C342.2,-114.55 352.97,-100.31 361.41,-89.14"/>
<polygon fill="midnightblue" stroke="midnightblue" points="364.32,-91.1 367.56,-81.01 358.74,-86.87 364.32,-91.1"/>
</g>
<!-- Node8&#45;&gt;Node5 -->
<g id="edge8" class="edge">
<title>Node8&#45;&gt;Node5</title>
<path fill="none" stroke="midnightblue" d="M101.41,-123.48C94.51,-114.55 83.5,-100.31 74.87,-89.14"/>
<polygon fill="midnightblue" stroke="midnightblue" points="77.46,-86.78 68.58,-81.01 71.93,-91.06 77.46,-86.78"/>
</g>
<!-- Node9&#45;&gt;Node4 -->
<g id="edge10" class="edge">
<title>Node9&#45;&gt;Node4</title>
<path fill="none" stroke="midnightblue" d="M566.08,-123.48C542.55,-113.4 503.19,-96.55 476.21,-85"/>
<polygon fill="midnightblue" stroke="midnightblue" points="477.45,-81.73 466.88,-81.01 474.69,-88.16 477.45,-81.73"/>
</g>
<!-- Node10 -->
<g id="node10" class="node">
<title>Node10</title>
<g id="a_node10"><a xlink:title=" ">
<polygon fill="white" stroke="#bfbfbf" points="552,-62 552,-81 620,-81 620,-62 552,-62"/>
<text text-anchor="middle" x="586" y="-69" font-family="Helvetica,sans-Serif" font-size="10.00">filesystem</text>
</a>
</g>
</g>
<!-- Node9&#45;&gt;Node10 -->
<g id="edge11" class="edge">
<title>Node9&#45;&gt;Node10</title>
<path fill="none" stroke="midnightblue" d="M586,-123.48C586,-115.08 586,-101.98 586,-91.16"/>
<polygon fill="midnightblue" stroke="midnightblue" points="589.5,-91.01 586,-81.01 582.5,-91.01 589.5,-91.01"/>
</g>
<!-- Node11 -->
<g id="node11" class="node">
<title>Node11</title>
<g id="a_node11"><a xlink:title=" ">
<polygon fill="white" stroke="#bfbfbf" points="638,-62 638,-81 694,-81 694,-62 638,-62"/>
<text text-anchor="middle" x="666" y="-69" font-family="Helvetica,sans-Serif" font-size="10.00">optional</text>
</a>
</g>
</g>
<!-- Node9&#45;&gt;Node11 -->
<g id="edge12" class="edge">
<title>Node9&#45;&gt;Node11</title>
<path fill="none" stroke="midnightblue" d="M597.46,-123.48C610.17,-114.02 630.91,-98.6 646.25,-87.19"/>
<polygon fill="midnightblue" stroke="midnightblue" points="648.62,-89.79 654.56,-81.01 644.45,-84.17 648.62,-89.79"/>
</g>
<!-- Node12 -->
<g id="node12" class="node">
<title>Node12</title>
<g id="a_node12"><a xlink:title=" ">
<polygon fill="white" stroke="#bfbfbf" points="490,-62 490,-81 534,-81 534,-62 490,-62"/>
<text text-anchor="middle" x="512" y="-69" font-family="Helvetica,sans-Serif" font-size="10.00">string</text>
</a>
</g>
</g>
<!-- Node9&#45;&gt;Node12 -->
<g id="edge13" class="edge">
<title>Node9&#45;&gt;Node12</title>
<path fill="none" stroke="midnightblue" d="M575.4,-123.48C563.75,-114.11 544.81,-98.88 530.67,-87.51"/>
<polygon fill="midnightblue" stroke="midnightblue" points="532.57,-84.55 522.58,-81.01 528.18,-90 532.57,-84.55"/>
</g>
<!-- Node13&#45;&gt;Node10 -->
<g id="edge15" class="edge">
<title>Node13&#45;&gt;Node10</title>
<path fill="none" stroke="midnightblue" d="M696.52,-123.48C674.87,-113.49 638.79,-96.85 613.77,-85.31"/>
<polygon fill="midnightblue" stroke="midnightblue" points="614.99,-82.02 604.45,-81.01 612.06,-88.38 614.99,-82.02"/>
</g>
<!-- Node13&#45;&gt;Node11 -->
<g id="edge17" class="edge">
<title>Node13&#45;&gt;Node11</title>
<path fill="none" stroke="midnightblue" d="M707.98,-123.48C700.56,-114.46 688.67,-100.02 679.43,-88.81"/>
<polygon fill="midnightblue" stroke="midnightblue" points="682.07,-86.5 673.01,-81.01 676.66,-90.95 682.07,-86.5"/>
</g>
<!-- Node14 -->
<g id="node14" class="node">
<title>Node14</title>
<g id="a_node14"><a xlink:title=" ">
<polygon fill="white" stroke="#bfbfbf" points="712.5,-62 712.5,-81 801.5,-81 801.5,-62 712.5,-62"/>
<text text-anchor="middle" x="757" y="-69" font-family="Helvetica,sans-Serif" font-size="10.00">joque/task.hpp</text>
</a>
</g>
</g>
<!-- Node13&#45;&gt;Node14 -->
<g id="edge16" class="edge">
<title>Node13&#45;&gt;Node14</title>
<path fill="none" stroke="midnightblue" d="M721.02,-123.48C727.26,-114.64 737.17,-100.59 745.02,-89.48"/>
<polygon fill="midnightblue" stroke="midnightblue" points="748.09,-91.2 750.99,-81.01 742.37,-87.16 748.09,-91.2"/>
</g>
<!-- Node16 -->
<g id="node16" class="node">
<title>Node16</title>
<g id="a_node16"><a xlink:href="async__cobs_8hpp.html" target="_top" xlink:title=" ">
<polygon fill="white" stroke="red" points="1651.5,-62 1651.5,-81 1792.5,-81 1792.5,-62 1651.5,-62"/>
<text text-anchor="middle" x="1722" y="-69" font-family="Helvetica,sans-Serif" font-size="10.00">../scmdio/async_cobs.hpp</text>
</a>
</g>
</g>
<!-- Node15&#45;&gt;Node16 -->
<g id="edge19" class="edge">
<title>Node15&#45;&gt;Node16</title>
<path fill="none" stroke="midnightblue" d="M1379.09,-124.5C1382.1,-123.98 1385.1,-123.47 1388,-123 1500.98,-104.66 1530.02,-105.34 1643,-87 1650.93,-85.71 1659.28,-84.27 1667.48,-82.81"/>
<polygon fill="midnightblue" stroke="midnightblue" points="1668.13,-86.25 1677.35,-81.03 1666.89,-79.36 1668.13,-86.25"/>
</g>
<!-- Node20 -->
<g id="node17" class="node">
<title>Node20</title>
<g id="a_node17"><a xlink:href="handle__eptr_8hpp.html" target="_top" xlink:title=" ">
<polygon fill="white" stroke="red" points="1810.5,-62 1810.5,-81 1911.5,-81 1911.5,-62 1810.5,-62"/>
<text text-anchor="middle" x="1861" y="-69" font-family="Helvetica,sans-Serif" font-size="10.00">./handle_eptr.hpp</text>
</a>
</g>
</g>
<!-- Node15&#45;&gt;Node20 -->
<g id="edge20" class="edge">
<title>Node15&#45;&gt;Node20</title>
<path fill="none" stroke="midnightblue" d="M1379.06,-124.32C1382.08,-123.84 1385.09,-123.39 1388,-123 1571.03,-98.29 1619.78,-117.13 1802,-87 1807.93,-86.02 1814.15,-84.76 1820.23,-83.38"/>
<polygon fill="midnightblue" stroke="midnightblue" points="1821.34,-86.72 1830.26,-81.01 1819.72,-79.91 1821.34,-86.72"/>
</g>
<!-- Node22 -->
<g id="node18" class="node">
<title>Node22</title>
<g id="a_node18"><a xlink:href="recorder_8hpp.html" target="_top" xlink:title=" ">
<polygon fill="white" stroke="red" points="1929.5,-62 1929.5,-81 2012.5,-81 2012.5,-62 1929.5,-62"/>
<text text-anchor="middle" x="1971" y="-69" font-family="Helvetica,sans-Serif" font-size="10.00">./recorder.hpp</text>
</a>
</g>
</g>
<!-- Node15&#45;&gt;Node22 -->
<g id="edge21" class="edge">
<title>Node15&#45;&gt;Node22</title>
<path fill="none" stroke="midnightblue" d="M1379.05,-124.26C1382.07,-123.79 1385.08,-123.37 1388,-123 1623.59,-93.51 1687.19,-128.3 1921,-87 1925.81,-86.15 1930.82,-85.01 1935.72,-83.75"/>
<polygon fill="midnightblue" stroke="midnightblue" points="1936.85,-87.07 1945.56,-81.02 1934.98,-80.32 1936.85,-87.07"/>
</g>
<!-- Node25 -->
<g id="node19" class="node">
<title>Node25</title>
<g id="a_node19"><a xlink:title=" ">
<polygon fill="white" stroke="#bfbfbf" points="1935.5,-0.5 1935.5,-19.5 2076.5,-19.5 2076.5,-0.5 1935.5,-0.5"/>
<text text-anchor="middle" x="2006" y="-7.5" font-family="Helvetica,sans-Serif" font-size="10.00">emlabcpp/convert_view.h</text>
</a>
</g>
</g>
<!-- Node15&#45;&gt;Node25 -->
<g id="edge23" class="edge">
<title>Node15&#45;&gt;Node25</title>
<path fill="none" stroke="midnightblue" d="M1379.05,-124.22C1382.07,-123.77 1385.08,-123.35 1388,-123 1458.06,-114.61 1973.54,-138.29 2022,-87 2036.79,-71.35 2026.9,-45.66 2017.37,-28.54"/>
<polygon fill="midnightblue" stroke="midnightblue" points="2020.14,-26.36 2011.99,-19.59 2014.15,-29.96 2020.14,-26.36"/>
</g>
<!-- Node27 -->
<g id="node20" class="node">
<title>Node27</title>
<g id="a_node20"><a xlink:title=" ">
<polygon fill="white" stroke="#bfbfbf" points="2069.5,-56.5 2069.5,-86.5 2202.5,-86.5 2202.5,-56.5 2069.5,-56.5"/>
<text text-anchor="start" x="2077.5" y="-74.5" font-family="Helvetica,sans-Serif" font-size="10.00">emlabcpp/experimental</text>
<text text-anchor="middle" x="2136" y="-63.5" font-family="Helvetica,sans-Serif" font-size="10.00">/logging/eabi_logger.h</text>
</a>
</g>
</g>
<!-- Node15&#45;&gt;Node27 -->
<g id="edge24" class="edge">
<title>Node15&#45;&gt;Node27</title>
<path fill="none" stroke="midnightblue" d="M1379.05,-124.21C1382.07,-123.76 1385.08,-123.35 1388,-123 1682.82,-88.11 1760.1,-121.22 2055,-87 2056.46,-86.83 2057.94,-86.65 2059.43,-86.46"/>
<polygon fill="midnightblue" stroke="midnightblue" points="2059.92,-89.93 2069.35,-85.1 2058.97,-82.99 2059.92,-89.93"/>
</g>
<!-- Node28 -->
<g id="node21" class="node">
<title>Node28</title>
<g id="a_node21"><a xlink:title=" ">
<polygon fill="white" stroke="#bfbfbf" points="819.5,-56.5 819.5,-86.5 952.5,-86.5 952.5,-56.5 819.5,-56.5"/>
<text text-anchor="start" x="827.5" y="-74.5" font-family="Helvetica,sans-Serif" font-size="10.00">emlabcpp/experimental</text>
<text text-anchor="middle" x="886" y="-63.5" font-family="Helvetica,sans-Serif" font-size="10.00">/testing/collect.h</text>
</a>
</g>
</g>
<!-- Node15&#45;&gt;Node28 -->
<g id="edge25" class="edge">
<title>Node15&#45;&gt;Node28</title>
<path fill="none" stroke="midnightblue" d="M1298.98,-128.15C1231.74,-121.48 1091.65,-106.72 962.73,-87.04"/>
<polygon fill="midnightblue" stroke="midnightblue" points="963.1,-83.56 952.68,-85.49 962.03,-90.48 963.1,-83.56"/>
</g>
<!-- Node29 -->
<g id="node22" class="node">
<title>Node29</title>
<g id="a_node22"><a xlink:title=" ">
<polygon fill="white" stroke="#bfbfbf" points="970.5,-56.5 970.5,-86.5 1103.5,-86.5 1103.5,-56.5 970.5,-56.5"/>
<text text-anchor="start" x="978.5" y="-74.5" font-family="Helvetica,sans-Serif" font-size="10.00">emlabcpp/experimental</text>
<text text-anchor="middle" x="1037" y="-63.5" font-family="Helvetica,sans-Serif" font-size="10.00">/testing/controller.h</text>
</a>
</g>
</g>
<!-- Node15&#45;&gt;Node29 -->
<g id="edge26" class="edge">
<title>Node15&#45;&gt;Node29</title>
<path fill="none" stroke="midnightblue" d="M1298.9,-124.1C1251.8,-114.82 1172.63,-99.22 1113.64,-87.6"/>
<polygon fill="midnightblue" stroke="midnightblue" points="1114.1,-84.12 1103.61,-85.62 1112.75,-90.99 1114.1,-84.12"/>
</g>
<!-- Node30 -->
<g id="node23" class="node">
<title>Node30</title>
<g id="a_node23"><a xlink:title=" ">
<polygon fill="white" stroke="#bfbfbf" points="1121.5,-56.5 1121.5,-86.5 1254.5,-86.5 1254.5,-56.5 1121.5,-56.5"/>
<text text-anchor="start" x="1129.5" y="-74.5" font-family="Helvetica,sans-Serif" font-size="10.00">emlabcpp/experimental</text>
<text text-anchor="middle" x="1188" y="-63.5" font-family="Helvetica,sans-Serif" font-size="10.00">/testing/json.h</text>
</a>
</g>
</g>
<!-- Node15&#45;&gt;Node30 -->
<g id="edge27" class="edge">
<title>Node15&#45;&gt;Node30</title>
<path fill="none" stroke="midnightblue" d="M1317.37,-123.48C1295.48,-114.85 1261,-101.26 1233.14,-90.29"/>
<polygon fill="midnightblue" stroke="midnightblue" points="1234.17,-86.93 1223.59,-86.52 1231.61,-93.45 1234.17,-86.93"/>
</g>
<!-- Node31 -->
<g id="node24" class="node">
<title>Node31</title>
<g id="a_node24"><a xlink:title=" ">
<polygon fill="white" stroke="#bfbfbf" points="1272.5,-56.5 1272.5,-86.5 1405.5,-86.5 1405.5,-56.5 1272.5,-56.5"/>
<text text-anchor="start" x="1280.5" y="-74.5" font-family="Helvetica,sans-Serif" font-size="10.00">emlabcpp/experimental</text>
<text text-anchor="middle" x="1339" y="-63.5" font-family="Helvetica,sans-Serif" font-size="10.00">/testing/parameters.h</text>
</a>
</g>
</g>
<!-- Node15&#45;&gt;Node31 -->
<g id="edge28" class="edge">
<title>Node15&#45;&gt;Node31</title>
<path fill="none" stroke="midnightblue" d="M1339,-123.48C1339,-116.47 1339,-106.19 1339,-96.7"/>
<polygon fill="midnightblue" stroke="midnightblue" points="1342.5,-96.52 1339,-86.52 1335.5,-96.52 1342.5,-96.52"/>
</g>
<!-- Node32 -->
<g id="node25" class="node">
<title>Node32</title>
<g id="a_node25"><a xlink:title=" ">
<polygon fill="white" stroke="#bfbfbf" points="1424,-56.5 1424,-86.5 1570,-86.5 1570,-56.5 1424,-56.5"/>
<text text-anchor="start" x="1432" y="-74.5" font-family="Helvetica,sans-Serif" font-size="10.00">emlabcpp/pmr/new_delete</text>
<text text-anchor="middle" x="1497" y="-63.5" font-family="Helvetica,sans-Serif" font-size="10.00">_resource.h</text>
</a>
</g>
</g>
<!-- Node15&#45;&gt;Node32 -->
<g id="edge29" class="edge">
<title>Node15&#45;&gt;Node32</title>
<path fill="none" stroke="midnightblue" d="M1361.64,-123.48C1384.64,-114.81 1420.93,-101.15 1450.15,-90.14"/>
<polygon fill="midnightblue" stroke="midnightblue" points="1451.64,-93.32 1459.76,-86.52 1449.17,-86.77 1451.64,-93.32"/>
</g>
<!-- Node33 -->
<g id="node26" class="node">
<title>Node33</title>
<g id="a_node26"><a xlink:title=" ">
<polygon fill="white" stroke="#bfbfbf" points="1588.5,-62 1588.5,-81 1633.5,-81 1633.5,-62 1588.5,-62"/>
<text text-anchor="middle" x="1611" y="-69" font-family="Helvetica,sans-Serif" font-size="10.00">utility</text>
</a>
</g>
</g>
<!-- Node15&#45;&gt;Node33 -->
<g id="edge30" class="edge">
<title>Node15&#45;&gt;Node33</title>
<path fill="none" stroke="midnightblue" d="M1379.26,-124.58C1446.37,-112.19 1574.24,-88.5 1579,-87 1580.88,-86.41 1582.79,-85.74 1584.69,-85.01"/>
<polygon fill="midnightblue" stroke="midnightblue" points="1586.15,-88.2 1594.03,-81.1 1583.45,-81.74 1586.15,-88.2"/>
</g>
<!-- Node22&#45;&gt;Node25 -->
<g id="edge22" class="edge">
<title>Node22&#45;&gt;Node25</title>
<path fill="none" stroke="midnightblue" d="M1976.01,-61.98C1981.16,-53.23 1989.31,-39.37 1995.82,-28.31"/>
<polygon fill="midnightblue" stroke="midnightblue" points="1998.94,-29.9 2000.99,-19.51 1992.91,-26.35 1998.94,-29.9"/>
</g>
</g>
</svg>
