<?xml version="1.0" encoding="UTF-8" standalone="no"?>
<!DOCTYPE svg PUBLIC "-//W3C//DTD SVG 1.1//EN"
 "http://www.w3.org/Graphics/SVG/1.1/DTD/svg11.dtd">
<!-- Generated by graphviz version 2.43.0 (0)
 -->
<!-- Title: src/ftester/config.cpp Pages: 1 -->
<svg width="490pt" height="192pt"
 viewBox="0.00 0.00 489.50 192.00" xmlns="http://www.w3.org/2000/svg" xmlns:xlink="http://www.w3.org/1999/xlink">
<g id="graph0" class="graph" transform="scale(1 1) rotate(0) translate(4 188)">
<title>src/ftester/config.cpp</title>
<!-- Node1 -->
<g id="Node000001" class="node">
<title>Node1</title>
<g id="a_Node000001"><a xlink:title=" ">
<polygon fill="#999999" stroke="#666666" points="268,-184 150,-184 150,-165 268,-165 268,-184"/>
<text text-anchor="middle" x="209" y="-172" font-family="Helvetica,sans-Serif" font-size="10.00">src/ftester/config.cpp</text>
</a>
</g>
</g>
<!-- Node2 -->
<g id="Node000002" class="node">
<title>Node2</title>
<g id="a_Node000002"><a xlink:href="ftester_2config_8hpp.html" target="_top" xlink:title=" ">
<polygon fill="white" stroke="#666666" points="180.5,-129 107.5,-129 107.5,-110 180.5,-110 180.5,-129"/>
<text text-anchor="middle" x="144" y="-117" font-family="Helvetica,sans-Serif" font-size="10.00">./config.hpp</text>
</a>
</g>
</g>
<!-- Node1&#45;&gt;Node2 -->
<g id="edge1_Node000001_Node000002" class="edge">
<title>Node1&#45;&gt;Node2</title>
<g id="a_edge1_Node000001_Node000002"><a xlink:title=" ">
<path fill="none" stroke="#63b8ff" d="M198.56,-164.98C188.85,-157.07 174.18,-145.11 162.5,-135.58"/>
<polygon fill="#63b8ff" stroke="#63b8ff" points="164.6,-132.78 154.63,-129.17 160.17,-138.2 164.6,-132.78"/>
</a>
</g>
</g>
<!-- Node3 -->
<g id="Node000003" class="node">
<title>Node3</title>
<g id="a_Node000003"><a xlink:href="ftester_2cli_8hpp.html" target="_top" xlink:title=" ">
<polygon fill="white" stroke="#666666" points="197.5,-74 142.5,-74 142.5,-55 197.5,-55 197.5,-74"/>
<text text-anchor="middle" x="170" y="-62" font-family="Helvetica,sans-Serif" font-size="10.00">./cli.hpp</text>
</a>
</g>
</g>
<!-- Node1&#45;&gt;Node3 -->
<g id="edge18_Node000001_Node000003" class="edge">
<title>Node1&#45;&gt;Node3</title>
<g id="a_edge18_Node000001_Node000003"><a xlink:title=" ">
<path fill="none" stroke="#63b8ff" d="M206.77,-164.75C203.54,-152.4 197.15,-129.19 190,-110 186.67,-101.07 182.41,-91.4 178.67,-83.35"/>
<polygon fill="#63b8ff" stroke="#63b8ff" points="181.79,-81.75 174.33,-74.22 175.46,-84.76 181.79,-81.75"/>
</a>
</g>
</g>
<!-- Node10 -->
<g id="Node000010" class="node">
<title>Node10</title>
<g id="a_Node000010"><a xlink:href="scmdio_2cli_8hpp.html" target="_top" xlink:title=" ">
<polygon fill="white" stroke="#666666" points="337,-129 241,-129 241,-110 337,-110 337,-129"/>
<text text-anchor="middle" x="289" y="-117" font-family="Helvetica,sans-Serif" font-size="10.00">../scmdio/cli.hpp</text>
</a>
</g>
</g>
<!-- Node1&#45;&gt;Node10 -->
<g id="edge12_Node000001_Node000010" class="edge">
<title>Node1&#45;&gt;Node10</title>
<g id="a_edge12_Node000001_Node000010"><a xlink:title=" ">
<path fill="none" stroke="#63b8ff" d="M221.85,-164.98C234.14,-156.84 252.91,-144.41 267.48,-134.76"/>
<polygon fill="#63b8ff" stroke="#63b8ff" points="269.51,-137.61 275.91,-129.17 265.64,-131.78 269.51,-137.61"/>
</a>
</g>
</g>
<!-- Node2&#45;&gt;Node3 -->
<g id="edge2_Node000002_Node000003" class="edge">
<title>Node2&#45;&gt;Node3</title>
<g id="a_edge2_Node000002_Node000003"><a xlink:title=" ">
<path fill="none" stroke="#63b8ff" d="M148.29,-109.75C151.81,-102.57 156.91,-92.18 161.28,-83.27"/>
<polygon fill="#63b8ff" stroke="#63b8ff" points="164.52,-84.61 165.79,-74.09 158.24,-81.53 164.52,-84.61"/>
</a>
</g>
</g>
<!-- Node5 -->
<g id="Node000005" class="node">
<title>Node5</title>
<g id="a_Node000005"><a xlink:title=" ">
<polygon fill="#e0e0e0" stroke="#999999" points="158,-19 90,-19 90,0 158,0 158,-19"/>
<text text-anchor="middle" x="124" y="-7" font-family="Helvetica,sans-Serif" font-size="10.00">filesystem</text>
</a>
</g>
</g>
<!-- Node2&#45;&gt;Node5 -->
<g id="edge8_Node000002_Node000005" class="edge">
<title>Node2&#45;&gt;Node5</title>
<g id="a_edge8_Node000002_Node000005"><a xlink:title=" ">
<path fill="none" stroke="#63b8ff" d="M141.84,-109.67C139.69,-100.72 136.38,-86.44 134,-74 131.15,-59.06 128.5,-42.03 126.64,-29.37"/>
<polygon fill="#63b8ff" stroke="#63b8ff" points="130.06,-28.56 125.18,-19.16 123.13,-29.55 130.06,-28.56"/>
</a>
</g>
</g>
<!-- Node6 -->
<g id="Node000006" class="node">
<title>Node6</title>
<g id="a_Node000006"><a xlink:title=" ">
<polygon fill="#e0e0e0" stroke="#999999" points="322,-19 266,-19 266,0 322,0 322,-19"/>
<text text-anchor="middle" x="294" y="-7" font-family="Helvetica,sans-Serif" font-size="10.00">optional</text>
</a>
</g>
</g>
<!-- Node2&#45;&gt;Node6 -->
<g id="edge9_Node000002_Node000006" class="edge">
<title>Node2&#45;&gt;Node6</title>
<g id="a_edge9_Node000002_Node000006"><a xlink:title=" ">
<path fill="none" stroke="#63b8ff" d="M156.59,-109.69C169.34,-100.76 189.6,-86.5 207,-74 230.02,-57.47 256.28,-38.25 273.88,-25.32"/>
<polygon fill="#63b8ff" stroke="#63b8ff" points="276.24,-27.93 282.22,-19.19 272.09,-22.29 276.24,-27.93"/>
</a>
</g>
</g>
<!-- Node7 -->
<g id="Node000007" class="node">
<title>Node7</title>
<g id="a_Node000007"><a xlink:title=" ">
<polygon fill="#e0e0e0" stroke="#999999" points="72,-19 0,-19 0,0 72,0 72,-19"/>
<text text-anchor="middle" x="36" y="-7" font-family="Helvetica,sans-Serif" font-size="10.00">vari/uvptr.h</text>
</a>
</g>
</g>
<!-- Node2&#45;&gt;Node7 -->
<g id="edge11_Node000002_Node000007" class="edge">
<title>Node2&#45;&gt;Node7</title>
<g id="a_edge11_Node000002_Node000007"><a xlink:title=" ">
<path fill="none" stroke="#63b8ff" d="M135.16,-109.66C116.96,-91.46 75.05,-49.55 51.97,-26.47"/>
<polygon fill="#63b8ff" stroke="#63b8ff" points="54.2,-23.75 44.66,-19.16 49.25,-28.7 54.2,-23.75"/>
</a>
</g>
</g>
<!-- Node8 -->
<g id="Node000008" class="node">
<title>Node8</title>
<g id="a_Node000008"><a xlink:title=" ">
<polygon fill="#e0e0e0" stroke="#999999" points="390,-19 340,-19 340,0 390,0 390,-19"/>
<text text-anchor="middle" x="365" y="-7" font-family="Helvetica,sans-Serif" font-size="10.00">cstdint</text>
</a>
</g>
</g>
<!-- Node2&#45;&gt;Node8 -->
<g id="edge7_Node000002_Node000008" class="edge">
<title>Node2&#45;&gt;Node8</title>
<g id="a_edge7_Node000002_Node000008"><a xlink:title=" ">
<path fill="none" stroke="#63b8ff" d="M161.71,-109.84C200.44,-90.92 292.83,-45.77 338.51,-23.45"/>
<polygon fill="#63b8ff" stroke="#63b8ff" points="340.06,-26.58 347.51,-19.05 336.99,-20.29 340.06,-26.58"/>
</a>
</g>
</g>
<!-- Node9 -->
<g id="Node000009" class="node">
<title>Node9</title>
<g id="a_Node000009"><a xlink:title=" ">
<polygon fill="#e0e0e0" stroke="#999999" points="48,-74 4,-74 4,-55 48,-55 48,-74"/>
<text text-anchor="middle" x="26" y="-62" font-family="Helvetica,sans-Serif" font-size="10.00">string</text>
</a>
</g>
</g>
<!-- Node2&#45;&gt;Node9 -->
<g id="edge10_Node000002_Node000009" class="edge">
<title>Node2&#45;&gt;Node9</title>
<g id="a_edge10_Node000002_Node000009"><a xlink:title=" ">
<path fill="none" stroke="#63b8ff" d="M125.04,-109.98C105.97,-101.42 76.34,-88.11 54.45,-78.28"/>
<polygon fill="#63b8ff" stroke="#63b8ff" points="55.86,-75.07 45.3,-74.17 52.99,-81.46 55.86,-75.07"/>
</a>
</g>
</g>
<!-- Node4 -->
<g id="Node000004" class="node">
<title>Node4</title>
<g id="a_Node000004"><a xlink:title=" ">
<polygon fill="#e0e0e0" stroke="#999999" points="247.5,-19 176.5,-19 176.5,0 247.5,0 247.5,-19"/>
<text text-anchor="middle" x="212" y="-7" font-family="Helvetica,sans-Serif" font-size="10.00">CLI/CLI.hpp</text>
</a>
</g>
</g>
<!-- Node3&#45;&gt;Node4 -->
<g id="edge3_Node000003_Node000004" class="edge">
<title>Node3&#45;&gt;Node4</title>
<g id="a_edge3_Node000003_Node000004"><a xlink:title=" ">
<path fill="none" stroke="#63b8ff" d="M176.94,-54.75C182.87,-47.26 191.57,-36.28 198.82,-27.13"/>
<polygon fill="#63b8ff" stroke="#63b8ff" points="201.73,-29.1 205.19,-19.09 196.24,-24.75 201.73,-29.1"/>
</a>
</g>
</g>
<!-- Node3&#45;&gt;Node5 -->
<g id="edge4_Node000003_Node000005" class="edge">
<title>Node3&#45;&gt;Node5</title>
<g id="a_edge4_Node000003_Node000005"><a xlink:title=" ">
<path fill="none" stroke="#63b8ff" d="M162.4,-54.75C155.84,-47.18 146.18,-36.05 138.19,-26.84"/>
<polygon fill="#63b8ff" stroke="#63b8ff" points="140.65,-24.35 131.45,-19.09 135.37,-28.94 140.65,-24.35"/>
</a>
</g>
</g>
<!-- Node3&#45;&gt;Node6 -->
<g id="edge5_Node000003_Node000006" class="edge">
<title>Node3&#45;&gt;Node6</title>
<g id="a_edge5_Node000003_Node000006"><a xlink:title=" ">
<path fill="none" stroke="#63b8ff" d="M189.92,-54.98C210.05,-46.38 241.38,-32.99 264.41,-23.15"/>
<polygon fill="#63b8ff" stroke="#63b8ff" points="265.9,-26.32 273.71,-19.17 263.14,-19.88 265.9,-26.32"/>
</a>
</g>
</g>
<!-- Node3&#45;&gt;Node7 -->
<g id="edge6_Node000003_Node000007" class="edge">
<title>Node3&#45;&gt;Node7</title>
<g id="a_edge6_Node000003_Node000007"><a xlink:title=" ">
<path fill="none" stroke="#63b8ff" d="M148.47,-54.98C126.53,-46.3 92.26,-32.75 67.31,-22.88"/>
<polygon fill="#63b8ff" stroke="#63b8ff" points="68.51,-19.59 57.92,-19.17 65.93,-26.1 68.51,-19.59"/>
</a>
</g>
</g>
<!-- Node10&#45;&gt;Node4 -->
<g id="edge17_Node000010_Node000004" class="edge">
<title>Node10&#45;&gt;Node4</title>
<g id="a_edge17_Node000010_Node000004"><a xlink:title=" ">
<path fill="none" stroke="#63b8ff" d="M282.7,-109.66C269.89,-91.69 240.62,-50.64 224.04,-27.38"/>
<polygon fill="#63b8ff" stroke="#63b8ff" points="226.83,-25.27 218.17,-19.16 221.13,-29.33 226.83,-25.27"/>
</a>
</g>
</g>
<!-- Node11 -->
<g id="Node000011" class="node">
<title>Node11</title>
<g id="a_Node000011"><a xlink:href="base_8hpp.html" target="_top" xlink:title=" ">
<polygon fill="#fff0f0" stroke="red" points="400,-74 330,-74 330,-55 400,-55 400,-74"/>
<text text-anchor="middle" x="365" y="-62" font-family="Helvetica,sans-Serif" font-size="10.00">../base.hpp</text>
</a>
</g>
</g>
<!-- Node10&#45;&gt;Node11 -->
<g id="edge13_Node000010_Node000011" class="edge">
<title>Node10&#45;&gt;Node11</title>
<g id="a_edge13_Node000010_Node000011"><a xlink:title=" ">
<path fill="none" stroke="#63b8ff" d="M301.21,-109.98C312.78,-101.92 330.38,-89.65 344.16,-80.03"/>
<polygon fill="#63b8ff" stroke="#63b8ff" points="346.37,-82.76 352.57,-74.17 342.36,-77.02 346.37,-82.76"/>
</a>
</g>
</g>
<!-- Node16 -->
<g id="Node000016" class="node">
<title>Node16</title>
<g id="a_Node000016"><a xlink:href="port_8hpp.html" target="_top" xlink:title=" ">
<polygon fill="#fff0f0" stroke="red" points="481.5,-74 418.5,-74 418.5,-55 481.5,-55 481.5,-74"/>
<text text-anchor="middle" x="450" y="-62" font-family="Helvetica,sans-Serif" font-size="10.00">./port.hpp</text>
</a>
</g>
</g>
<!-- Node10&#45;&gt;Node16 -->
<g id="edge16_Node000010_Node000016" class="edge">
<title>Node10&#45;&gt;Node16</title>
<g id="a_edge16_Node000010_Node000016"><a xlink:title=" ">
<path fill="none" stroke="#63b8ff" d="M314.87,-109.98C341.78,-101.13 384.12,-87.19 414.23,-77.28"/>
<polygon fill="#63b8ff" stroke="#63b8ff" points="415.53,-80.53 423.93,-74.08 413.34,-73.88 415.53,-80.53"/>
</a>
</g>
</g>
<!-- Node11&#45;&gt;Node6 -->
<g id="edge15_Node000011_Node000006" class="edge">
<title>Node11&#45;&gt;Node6</title>
<g id="a_edge15_Node000011_Node000006"><a xlink:title=" ">
<path fill="none" stroke="#63b8ff" d="M353.59,-54.98C342.89,-47 326.66,-34.88 313.84,-25.31"/>
<polygon fill="#63b8ff" stroke="#63b8ff" points="315.72,-22.35 305.61,-19.17 311.53,-27.96 315.72,-22.35"/>
</a>
</g>
</g>
<!-- Node11&#45;&gt;Node8 -->
<g id="edge14_Node000011_Node000008" class="edge">
<title>Node11&#45;&gt;Node8</title>
<g id="a_edge14_Node000011_Node000008"><a xlink:title=" ">
<path fill="none" stroke="#63b8ff" d="M365,-54.75C365,-47.8 365,-37.85 365,-29.13"/>
<polygon fill="#63b8ff" stroke="#63b8ff" points="368.5,-29.09 365,-19.09 361.5,-29.09 368.5,-29.09"/>
</a>
</g>
</g>
</g>
</svg>
