<?xml version="1.0" encoding="UTF-8" standalone="no"?>
<!DOCTYPE svg PUBLIC "-//W3C//DTD SVG 1.1//EN"
 "http://www.w3.org/Graphics/SVG/1.1/DTD/svg11.dtd">
<!-- Generated by graphviz version 2.43.0 (0)
 -->
<!-- Title: src/ftester/main.cpp Pages: 1 -->
<svg width="2175pt" height="203pt"
 viewBox="0.00 0.00 2174.50 203.00" xmlns="http://www.w3.org/2000/svg" xmlns:xlink="http://www.w3.org/1999/xlink">
<g id="graph0" class="graph" transform="scale(1 1) rotate(0) translate(4 199)">
<title>src/ftester/main.cpp</title>
<!-- Node1 -->
<g id="Node000001" class="node">
<title>Node1</title>
<g id="a_Node000001"><a xlink:title=" ">
<polygon fill="#999999" stroke="#666666" points="1456.5,-195 1343.5,-195 1343.5,-176 1456.5,-176 1456.5,-195"/>
<text text-anchor="middle" x="1400" y="-183" font-family="Helvetica,sans-Serif" font-size="10.00">src/ftester/main.cpp</text>
</a>
</g>
</g>
<!-- Node2 -->
<g id="Node000002" class="node">
<title>Node2</title>
<g id="a_Node000002"><a xlink:href="base_2base_8hpp.html" target="_top" xlink:title=" ">
<polygon fill="white" stroke="#666666" points="377,-140 281,-140 281,-121 377,-121 377,-140"/>
<text text-anchor="middle" x="329" y="-128" font-family="Helvetica,sans-Serif" font-size="10.00">../base/base.hpp</text>
</a>
</g>
</g>
<!-- Node1&#45;&gt;Node2 -->
<g id="edge1_Node000001_Node000002" class="edge">
<title>Node1&#45;&gt;Node2</title>
<g id="a_edge1_Node000001_Node000002"><a xlink:title=" ">
<path fill="none" stroke="#63b8ff" d="M1343.17,-181.69C1158.23,-172.54 574.66,-143.66 387.43,-134.39"/>
<polygon fill="#63b8ff" stroke="#63b8ff" points="387.4,-130.89 377.24,-133.89 387.06,-137.88 387.4,-130.89"/>
</a>
</g>
</g>
<!-- Node8 -->
<g id="Node000008" class="node">
<title>Node8</title>
<g id="a_Node000008"><a xlink:href="ftest_2bench_2base_8hpp.html" target="_top" xlink:title=" ">
<polygon fill="white" stroke="#666666" points="171.5,-140 44.5,-140 44.5,-121 171.5,-121 171.5,-140"/>
<text text-anchor="middle" x="108" y="-128" font-family="Helvetica,sans-Serif" font-size="10.00">../ftest/bench/base.hpp</text>
</a>
</g>
</g>
<!-- Node1&#45;&gt;Node8 -->
<g id="edge7_Node000001_Node000008" class="edge">
<title>Node1&#45;&gt;Node8</title>
<g id="a_edge7_Node000001_Node000008"><a xlink:title=" ">
<path fill="none" stroke="#63b8ff" d="M1343.36,-182.51C1178.21,-176.67 682.9,-158.75 272,-140 242.58,-138.66 210.19,-137.01 182.03,-135.53"/>
<polygon fill="#63b8ff" stroke="#63b8ff" points="182.03,-132.03 171.86,-134.99 181.66,-139.02 182.03,-132.03"/>
</a>
</g>
</g>
<!-- Node9 -->
<g id="Node000009" class="node">
<title>Node9</title>
<g id="a_Node000009"><a xlink:href="ftester_2config_8hpp.html" target="_top" xlink:title=" ">
<polygon fill="white" stroke="#666666" points="622.5,-140 549.5,-140 549.5,-121 622.5,-121 622.5,-140"/>
<text text-anchor="middle" x="586" y="-128" font-family="Helvetica,sans-Serif" font-size="10.00">./config.hpp</text>
</a>
</g>
</g>
<!-- Node1&#45;&gt;Node9 -->
<g id="edge9_Node000001_Node000009" class="edge">
<title>Node1&#45;&gt;Node9</title>
<g id="a_edge9_Node000001_Node000009"><a xlink:title=" ">
<path fill="none" stroke="#63b8ff" d="M1343.39,-181.74C1220.99,-175.6 922.59,-159.82 673,-140 659.99,-138.97 645.9,-137.67 632.93,-136.4"/>
<polygon fill="#63b8ff" stroke="#63b8ff" points="633.1,-132.9 622.8,-135.39 632.41,-139.87 633.1,-132.9"/>
</a>
</g>
</g>
<!-- Node13 -->
<g id="Node000013" class="node">
<title>Node13</title>
<g id="a_Node000013"><a xlink:href="flash_8hpp.html" target="_top" xlink:title=" ">
<polygon fill="white" stroke="#666666" points="748.5,-140 681.5,-140 681.5,-121 748.5,-121 748.5,-140"/>
<text text-anchor="middle" x="715" y="-128" font-family="Helvetica,sans-Serif" font-size="10.00">./flash.hpp</text>
</a>
</g>
</g>
<!-- Node1&#45;&gt;Node13 -->
<g id="edge14_Node000001_Node000013" class="edge">
<title>Node1&#45;&gt;Node13</title>
<g id="a_edge14_Node000001_Node000013"><a xlink:title=" ">
<path fill="none" stroke="#63b8ff" d="M1343.36,-180.12C1210.03,-169.8 878.63,-144.16 758.97,-134.9"/>
<polygon fill="#63b8ff" stroke="#63b8ff" points="758.97,-131.39 748.73,-134.11 758.43,-138.37 758.97,-131.39"/>
</a>
</g>
</g>
<!-- Node15 -->
<g id="Node000015" class="node">
<title>Node15</title>
<g id="a_Node000015"><a xlink:href="system_8hpp.html" target="_top" xlink:title=" ">
<polygon fill="white" stroke="#666666" points="1379,-140 1299,-140 1299,-121 1379,-121 1379,-140"/>
<text text-anchor="middle" x="1339" y="-128" font-family="Helvetica,sans-Serif" font-size="10.00">./system.hpp</text>
</a>
</g>
</g>
<!-- Node1&#45;&gt;Node15 -->
<g id="edge18_Node000001_Node000015" class="edge">
<title>Node1&#45;&gt;Node15</title>
<g id="a_edge18_Node000001_Node000015"><a xlink:title=" ">
<path fill="none" stroke="#63b8ff" d="M1390.2,-175.98C1381.18,-168.15 1367.59,-156.34 1356.68,-146.86"/>
<polygon fill="#63b8ff" stroke="#63b8ff" points="1358.82,-144.09 1348.98,-140.17 1354.23,-149.37 1358.82,-144.09"/>
</a>
</g>
</g>
<!-- Node40 -->
<g id="Node000040" class="node">
<title>Node40</title>
<g id="a_Node000040"><a xlink:title=" ">
<polygon fill="#e0e0e0" stroke="#999999" points="1527,-140 1397,-140 1397,-121 1527,-121 1527,-140"/>
<text text-anchor="middle" x="1462" y="-128" font-family="Helvetica,sans-Serif" font-size="10.00">emlabcpp/enumerate.h</text>
</a>
</g>
</g>
<!-- Node1&#45;&gt;Node40 -->
<g id="edge31_Node000001_Node000040" class="edge">
<title>Node1&#45;&gt;Node40</title>
<g id="a_edge31_Node000001_Node000040"><a xlink:title=" ">
<path fill="none" stroke="#63b8ff" d="M1409.96,-175.98C1419.13,-168.15 1432.94,-156.34 1444.03,-146.86"/>
<polygon fill="#63b8ff" stroke="#63b8ff" points="1446.53,-149.33 1451.86,-140.17 1441.98,-144.01 1446.53,-149.33"/>
</a>
</g>
</g>
<!-- Node41 -->
<g id="Node000041" class="node">
<title>Node41</title>
<g id="a_Node000041"><a xlink:title=" ">
<polygon fill="#e0e0e0" stroke="#999999" points="1600.5,-140 1545.5,-140 1545.5,-121 1600.5,-121 1600.5,-140"/>
<text text-anchor="middle" x="1573" y="-128" font-family="Helvetica,sans-Serif" font-size="10.00">fstream</text>
</a>
</g>
</g>
<!-- Node1&#45;&gt;Node41 -->
<g id="edge32_Node000001_Node000041" class="edge">
<title>Node1&#45;&gt;Node41</title>
<g id="a_edge32_Node000001_Node000041"><a xlink:title=" ">
<path fill="none" stroke="#63b8ff" d="M1427.8,-175.98C1457.05,-167.02 1503.27,-152.86 1535.69,-142.93"/>
<polygon fill="#63b8ff" stroke="#63b8ff" points="1536.74,-146.27 1545.27,-139.99 1534.69,-139.58 1536.74,-146.27"/>
</a>
</g>
</g>
<!-- Node42 -->
<g id="Node000042" class="node">
<title>Node42</title>
<g id="a_Node000042"><a xlink:title=" ">
<polygon fill="#e0e0e0" stroke="#999999" points="1709,-140 1619,-140 1619,-121 1709,-121 1709,-140"/>
<text text-anchor="middle" x="1664" y="-128" font-family="Helvetica,sans-Serif" font-size="10.00">joque/exec.hpp</text>
</a>
</g>
</g>
<!-- Node1&#45;&gt;Node42 -->
<g id="edge33_Node000001_Node000042" class="edge">
<title>Node1&#45;&gt;Node42</title>
<g id="a_edge33_Node000001_Node000042"><a xlink:title=" ">
<path fill="none" stroke="#63b8ff" d="M1442.42,-175.98C1488.37,-166.76 1561.75,-152.03 1611.35,-142.07"/>
<polygon fill="#63b8ff" stroke="#63b8ff" points="1612.14,-145.48 1621.25,-140.08 1610.76,-138.62 1612.14,-145.48"/>
</a>
</g>
</g>
<!-- Node43 -->
<g id="Node000043" class="node">
<title>Node43</title>
<g id="a_Node000043"><a xlink:title=" ">
<polygon fill="#e0e0e0" stroke="#999999" points="1815,-140 1727,-140 1727,-121 1815,-121 1815,-140"/>
<text text-anchor="middle" x="1771" y="-128" font-family="Helvetica,sans-Serif" font-size="10.00">joque/json.hpp</text>
</a>
</g>
</g>
<!-- Node1&#45;&gt;Node43 -->
<g id="edge34_Node000001_Node000043" class="edge">
<title>Node1&#45;&gt;Node43</title>
<g id="a_edge34_Node000001_Node000043"><a xlink:title=" ">
<path fill="none" stroke="#63b8ff" d="M1456.63,-176.92C1518.15,-168.61 1619.61,-154.68 1716.77,-140.16"/>
<polygon fill="#63b8ff" stroke="#63b8ff" points="1717.39,-143.61 1726.76,-138.66 1716.36,-136.68 1717.39,-143.61"/>
</a>
</g>
</g>
<!-- Node21 -->
<g id="Node000021" class="node">
<title>Node21</title>
<g id="a_Node000021"><a xlink:title=" ">
<polygon fill="#e0e0e0" stroke="#999999" points="1943,-140 1833,-140 1833,-121 1943,-121 1943,-140"/>
<text text-anchor="middle" x="1888" y="-128" font-family="Helvetica,sans-Serif" font-size="10.00">nlohmann/json.hpp</text>
</a>
</g>
</g>
<!-- Node1&#45;&gt;Node21 -->
<g id="edge35_Node000001_Node000021" class="edge">
<title>Node1&#45;&gt;Node21</title>
<g id="a_edge35_Node000001_Node000021"><a xlink:title=" ">
<path fill="none" stroke="#63b8ff" d="M1456.64,-179.06C1536.01,-171.31 1685.12,-156.37 1822.56,-140.14"/>
<polygon fill="#63b8ff" stroke="#63b8ff" points="1823.34,-143.57 1832.85,-138.92 1822.51,-136.62 1823.34,-143.57"/>
</a>
</g>
</g>
<!-- Node3 -->
<g id="Node000003" class="node">
<title>Node3</title>
<g id="a_Node000003"><a xlink:title=" ">
<polygon fill="#e0e0e0" stroke="#999999" points="192,-79.5 142,-79.5 142,-60.5 192,-60.5 192,-79.5"/>
<text text-anchor="middle" x="167" y="-67.5" font-family="Helvetica,sans-Serif" font-size="10.00">chrono</text>
</a>
</g>
</g>
<!-- Node2&#45;&gt;Node3 -->
<g id="edge2_Node000002_Node000003" class="edge">
<title>Node2&#45;&gt;Node3</title>
<g id="a_edge2_Node000002_Node000003"><a xlink:title=" ">
<path fill="none" stroke="#63b8ff" d="M302.86,-120.89C276.88,-112.22 235.98,-98.27 201,-85 199.62,-84.48 198.21,-83.93 196.79,-83.38"/>
<polygon fill="#63b8ff" stroke="#63b8ff" points="198.01,-80.09 187.42,-79.63 195.4,-86.59 198.01,-80.09"/>
</a>
</g>
</g>
<!-- Node4 -->
<g id="Node000004" class="node">
<title>Node4</title>
<g id="a_Node000004"><a xlink:title=" ">
<polygon fill="#e0e0e0" stroke="#999999" points="472,-79.5 422,-79.5 422,-60.5 472,-60.5 472,-79.5"/>
<text text-anchor="middle" x="447" y="-67.5" font-family="Helvetica,sans-Serif" font-size="10.00">cstdint</text>
</a>
</g>
</g>
<!-- Node2&#45;&gt;Node4 -->
<g id="edge3_Node000002_Node000004" class="edge">
<title>Node2&#45;&gt;Node4</title>
<g id="a_edge3_Node000002_Node000004"><a xlink:title=" ">
<path fill="none" stroke="#63b8ff" d="M346.16,-120.99C365.73,-111.29 397.97,-95.31 420.72,-84.03"/>
<polygon fill="#63b8ff" stroke="#63b8ff" points="422.42,-87.09 429.82,-79.52 419.31,-80.82 422.42,-87.09"/>
</a>
</g>
</g>
<!-- Node5 -->
<g id="Node000005" class="node">
<title>Node5</title>
<g id="a_Node000005"><a xlink:title=" ">
<polygon fill="#e0e0e0" stroke="#999999" points="124,-79.5 0,-79.5 0,-60.5 124,-60.5 124,-79.5"/>
<text text-anchor="middle" x="62" y="-67.5" font-family="Helvetica,sans-Serif" font-size="10.00">emlabcpp/algorithm.h</text>
</a>
</g>
</g>
<!-- Node2&#45;&gt;Node5 -->
<g id="edge4_Node000002_Node000005" class="edge">
<title>Node2&#45;&gt;Node5</title>
<g id="a_edge4_Node000002_Node000005"><a xlink:title=" ">
<path fill="none" stroke="#63b8ff" d="M290.18,-120.99C242.72,-110.6 162.37,-92.99 110.79,-81.69"/>
<polygon fill="#63b8ff" stroke="#63b8ff" points="111.39,-78.24 100.87,-79.52 109.89,-85.08 111.39,-78.24"/>
</a>
</g>
</g>
<!-- Node6 -->
<g id="Node000006" class="node">
<title>Node6</title>
<g id="a_Node000006"><a xlink:title=" ">
<polygon fill="#e0e0e0" stroke="#999999" points="326,-79.5 210,-79.5 210,-60.5 326,-60.5 326,-79.5"/>
<text text-anchor="middle" x="268" y="-67.5" font-family="Helvetica,sans-Serif" font-size="10.00">emlabcpp/quantity.h</text>
</a>
</g>
</g>
<!-- Node2&#45;&gt;Node6 -->
<g id="edge5_Node000002_Node000006" class="edge">
<title>Node2&#45;&gt;Node6</title>
<g id="a_edge5_Node000002_Node000006"><a xlink:title=" ">
<path fill="none" stroke="#63b8ff" d="M320,-120.87C310.63,-111.88 295.75,-97.61 284.3,-86.64"/>
<polygon fill="#63b8ff" stroke="#63b8ff" points="286.68,-84.06 277.04,-79.67 281.83,-89.12 286.68,-84.06"/>
</a>
</g>
</g>
<!-- Node7 -->
<g id="Node000007" class="node">
<title>Node7</title>
<g id="a_Node000007"><a xlink:title=" ">
<polygon fill="#e0e0e0" stroke="#999999" points="403.5,-79.5 344.5,-79.5 344.5,-60.5 403.5,-60.5 403.5,-79.5"/>
<text text-anchor="middle" x="374" y="-67.5" font-family="Helvetica,sans-Serif" font-size="10.00">numbers</text>
</a>
</g>
</g>
<!-- Node2&#45;&gt;Node7 -->
<g id="edge6_Node000002_Node000007" class="edge">
<title>Node2&#45;&gt;Node7</title>
<g id="a_edge6_Node000002_Node000007"><a xlink:title=" ">
<path fill="none" stroke="#63b8ff" d="M335.64,-120.87C342.29,-112.23 352.69,-98.7 360.99,-87.92"/>
<polygon fill="#63b8ff" stroke="#63b8ff" points="364.01,-89.73 367.33,-79.67 358.46,-85.46 364.01,-89.73"/>
</a>
</g>
</g>
<!-- Node8&#45;&gt;Node5 -->
<g id="edge8_Node000008_Node000005" class="edge">
<title>Node8&#45;&gt;Node5</title>
<g id="a_edge8_Node000008_Node000005"><a xlink:title=" ">
<path fill="none" stroke="#63b8ff" d="M101.21,-120.87C94.35,-112.14 83.57,-98.43 75.05,-87.59"/>
<polygon fill="#63b8ff" stroke="#63b8ff" points="77.75,-85.36 68.82,-79.67 72.25,-89.69 77.75,-85.36"/>
</a>
</g>
</g>
<!-- Node9&#45;&gt;Node4 -->
<g id="edge10_Node000009_Node000004" class="edge">
<title>Node9&#45;&gt;Node4</title>
<g id="a_edge10_Node000009_Node000004"><a xlink:title=" ">
<path fill="none" stroke="#63b8ff" d="M565.79,-120.99C542.32,-111.12 503.39,-94.73 476.54,-83.43"/>
<polygon fill="#63b8ff" stroke="#63b8ff" points="477.81,-80.17 467.24,-79.52 475.1,-86.62 477.81,-80.17"/>
</a>
</g>
</g>
<!-- Node10 -->
<g id="Node000010" class="node">
<title>Node10</title>
<g id="a_Node000010"><a xlink:title=" ">
<polygon fill="#e0e0e0" stroke="#999999" points="620,-79.5 552,-79.5 552,-60.5 620,-60.5 620,-79.5"/>
<text text-anchor="middle" x="586" y="-67.5" font-family="Helvetica,sans-Serif" font-size="10.00">filesystem</text>
</a>
</g>
</g>
<!-- Node9&#45;&gt;Node10 -->
<g id="edge11_Node000009_Node000010" class="edge">
<title>Node9&#45;&gt;Node10</title>
<g id="a_edge11_Node000009_Node000010"><a xlink:title=" ">
<path fill="none" stroke="#63b8ff" d="M586,-120.87C586,-112.75 586,-100.31 586,-89.89"/>
<polygon fill="#63b8ff" stroke="#63b8ff" points="589.5,-89.67 586,-79.67 582.5,-89.67 589.5,-89.67"/>
</a>
</g>
</g>
<!-- Node11 -->
<g id="Node000011" class="node">
<title>Node11</title>
<g id="a_Node000011"><a xlink:title=" ">
<polygon fill="#e0e0e0" stroke="#999999" points="694,-79.5 638,-79.5 638,-60.5 694,-60.5 694,-79.5"/>
<text text-anchor="middle" x="666" y="-67.5" font-family="Helvetica,sans-Serif" font-size="10.00">optional</text>
</a>
</g>
</g>
<!-- Node9&#45;&gt;Node11 -->
<g id="edge12_Node000009_Node000011" class="edge">
<title>Node9&#45;&gt;Node11</title>
<g id="a_edge12_Node000009_Node000011"><a xlink:title=" ">
<path fill="none" stroke="#63b8ff" d="M597.8,-120.87C610.45,-111.62 630.74,-96.78 645.91,-85.69"/>
<polygon fill="#63b8ff" stroke="#63b8ff" points="648.14,-88.4 654.15,-79.67 644.01,-82.74 648.14,-88.4"/>
</a>
</g>
</g>
<!-- Node12 -->
<g id="Node000012" class="node">
<title>Node12</title>
<g id="a_Node000012"><a xlink:title=" ">
<polygon fill="#e0e0e0" stroke="#999999" points="534,-79.5 490,-79.5 490,-60.5 534,-60.5 534,-79.5"/>
<text text-anchor="middle" x="512" y="-67.5" font-family="Helvetica,sans-Serif" font-size="10.00">string</text>
</a>
</g>
</g>
<!-- Node9&#45;&gt;Node12 -->
<g id="edge13_Node000009_Node000012" class="edge">
<title>Node9&#45;&gt;Node12</title>
<g id="a_edge13_Node000009_Node000012"><a xlink:title=" ">
<path fill="none" stroke="#63b8ff" d="M575.08,-120.87C563.49,-111.71 544.97,-97.06 530.98,-86.01"/>
<polygon fill="#63b8ff" stroke="#63b8ff" points="532.98,-83.12 522.96,-79.67 528.64,-88.61 532.98,-83.12"/>
</a>
</g>
</g>
<!-- Node13&#45;&gt;Node10 -->
<g id="edge15_Node000013_Node000010" class="edge">
<title>Node13&#45;&gt;Node10</title>
<g id="a_edge15_Node000013_Node000010"><a xlink:title=" ">
<path fill="none" stroke="#63b8ff" d="M696.24,-120.99C674.65,-111.2 638.97,-95.02 614.07,-83.73"/>
<polygon fill="#63b8ff" stroke="#63b8ff" points="615.33,-80.46 604.78,-79.52 612.44,-86.83 615.33,-80.46"/>
</a>
</g>
</g>
<!-- Node13&#45;&gt;Node11 -->
<g id="edge17_Node000013_Node000011" class="edge">
<title>Node13&#45;&gt;Node11</title>
<g id="a_edge17_Node000013_Node000011"><a xlink:title=" ">
<path fill="none" stroke="#63b8ff" d="M707.77,-120.87C700.46,-112.14 688.98,-98.43 679.9,-87.59"/>
<polygon fill="#63b8ff" stroke="#63b8ff" points="682.36,-85.09 673.26,-79.67 677,-89.58 682.36,-85.09"/>
</a>
</g>
</g>
<!-- Node14 -->
<g id="Node000014" class="node">
<title>Node14</title>
<g id="a_Node000014"><a xlink:title=" ">
<polygon fill="#e0e0e0" stroke="#999999" points="801.5,-79.5 712.5,-79.5 712.5,-60.5 801.5,-60.5 801.5,-79.5"/>
<text text-anchor="middle" x="757" y="-67.5" font-family="Helvetica,sans-Serif" font-size="10.00">joque/task.hpp</text>
</a>
</g>
</g>
<!-- Node13&#45;&gt;Node14 -->
<g id="edge16_Node000013_Node000014" class="edge">
<title>Node13&#45;&gt;Node14</title>
<g id="a_edge16_Node000013_Node000014"><a xlink:title=" ">
<path fill="none" stroke="#63b8ff" d="M721.2,-120.87C727.4,-112.23 737.11,-98.7 744.86,-87.92"/>
<polygon fill="#63b8ff" stroke="#63b8ff" points="747.79,-89.83 750.78,-79.67 742.1,-85.75 747.79,-89.83"/>
</a>
</g>
</g>
<!-- Node16 -->
<g id="Node000016" class="node">
<title>Node16</title>
<g id="a_Node000016"><a xlink:href="port_8hpp.html" target="_top" xlink:title=" ">
<polygon fill="#fff0f0" stroke="red" points="1756,-79.5 1652,-79.5 1652,-60.5 1756,-60.5 1756,-79.5"/>
<text text-anchor="middle" x="1704" y="-67.5" font-family="Helvetica,sans-Serif" font-size="10.00">../scmdio/port.hpp</text>
</a>
</g>
</g>
<!-- Node15&#45;&gt;Node16 -->
<g id="edge19_Node000015_Node000016" class="edge">
<title>Node15&#45;&gt;Node16</title>
<g id="a_edge19_Node000015_Node000016"><a xlink:title=" ">
<path fill="none" stroke="#63b8ff" d="M1379.09,-122.44C1382.11,-121.94 1385.1,-121.46 1388,-121 1501.07,-103.22 1530.45,-105.82 1643,-85 1648.34,-84.01 1653.92,-82.88 1659.45,-81.69"/>
<polygon fill="#63b8ff" stroke="#63b8ff" points="1660.26,-85.09 1669.27,-79.51 1658.75,-78.26 1660.26,-85.09"/>
</a>
</g>
</g>
<!-- Node26 -->
<g id="Node000026" class="node">
<title>Node26</title>
<g id="a_Node000026"><a xlink:href="handle__eptr_8hpp.html" target="_top" xlink:title=" ">
<polygon fill="#fff0f0" stroke="red" points="1875.5,-79.5 1774.5,-79.5 1774.5,-60.5 1875.5,-60.5 1875.5,-79.5"/>
<text text-anchor="middle" x="1825" y="-67.5" font-family="Helvetica,sans-Serif" font-size="10.00">./handle_eptr.hpp</text>
</a>
</g>
</g>
<!-- Node15&#45;&gt;Node26 -->
<g id="edge20_Node000015_Node000026" class="edge">
<title>Node15&#45;&gt;Node26</title>
<g id="a_edge20_Node000015_Node000026"><a xlink:title=" ">
<path fill="none" stroke="#63b8ff" d="M1379.07,-122.29C1382.09,-121.83 1385.09,-121.39 1388,-121 1554.82,-98.6 1598.89,-112.18 1765,-85 1770.54,-84.09 1776.33,-82.97 1782.04,-81.76"/>
<polygon fill="#63b8ff" stroke="#63b8ff" points="1783.15,-85.09 1792.15,-79.5 1781.63,-78.26 1783.15,-85.09"/>
</a>
</g>
</g>
<!-- Node28 -->
<g id="Node000028" class="node">
<title>Node28</title>
<g id="a_Node000028"><a xlink:href="recorder_8hpp.html" target="_top" xlink:title=" ">
<polygon fill="#fff0f0" stroke="red" points="1976.5,-79.5 1893.5,-79.5 1893.5,-60.5 1976.5,-60.5 1976.5,-79.5"/>
<text text-anchor="middle" x="1935" y="-67.5" font-family="Helvetica,sans-Serif" font-size="10.00">./recorder.hpp</text>
</a>
</g>
</g>
<!-- Node15&#45;&gt;Node28 -->
<g id="edge21_Node000015_Node000028" class="edge">
<title>Node15&#45;&gt;Node28</title>
<g id="a_edge21_Node000015_Node000028"><a xlink:title=" ">
<path fill="none" stroke="#63b8ff" d="M1379.06,-122.22C1382.08,-121.77 1385.09,-121.36 1388,-121 1607.82,-94.04 1666.83,-123.05 1885,-85 1889.42,-84.23 1894,-83.23 1898.53,-82.12"/>
<polygon fill="#63b8ff" stroke="#63b8ff" points="1899.46,-85.49 1908.24,-79.56 1897.68,-78.72 1899.46,-85.49"/>
</a>
</g>
</g>
<!-- Node31 -->
<g id="Node000031" class="node">
<title>Node31</title>
<g id="a_Node000031"><a xlink:title=" ">
<polygon fill="#e0e0e0" stroke="#999999" points="2040.5,-19 1899.5,-19 1899.5,0 2040.5,0 2040.5,-19"/>
<text text-anchor="middle" x="1970" y="-7" font-family="Helvetica,sans-Serif" font-size="10.00">emlabcpp/convert_view.h</text>
</a>
</g>
</g>
<!-- Node15&#45;&gt;Node31 -->
<g id="edge23_Node000015_Node000031" class="edge">
<title>Node15&#45;&gt;Node31</title>
<g id="a_edge23_Node000015_Node000031"><a xlink:title=" ">
<path fill="none" stroke="#63b8ff" d="M1379.06,-122.18C1382.08,-121.74 1385.08,-121.34 1388,-121 1454.12,-113.3 1940.37,-133.46 1986,-85 2000.4,-69.7 1990.78,-44.71 1981.39,-27.94"/>
<polygon fill="#63b8ff" stroke="#63b8ff" points="1984.25,-25.9 1976.08,-19.15 1978.26,-29.52 1984.25,-25.9"/>
</a>
</g>
</g>
<!-- Node33 -->
<g id="Node000033" class="node">
<title>Node33</title>
<g id="a_Node000033"><a xlink:title=" ">
<polygon fill="#e0e0e0" stroke="#999999" points="2166.5,-85 2033.5,-85 2033.5,-55 2166.5,-55 2166.5,-85"/>
<text text-anchor="start" x="2041.5" y="-73" font-family="Helvetica,sans-Serif" font-size="10.00">emlabcpp/experimental</text>
<text text-anchor="middle" x="2100" y="-62" font-family="Helvetica,sans-Serif" font-size="10.00">/logging/eabi_logger.h</text>
</a>
</g>
</g>
<!-- Node15&#45;&gt;Node33 -->
<g id="edge24_Node000015_Node000033" class="edge">
<title>Node15&#45;&gt;Node33</title>
<g id="a_edge24_Node000015_Node000033"><a xlink:title=" ">
<path fill="none" stroke="#63b8ff" d="M1379.06,-122.17C1382.08,-121.73 1385.08,-121.34 1388,-121 1667.07,-88.94 1739.93,-116.97 2019,-85 2020.46,-84.83 2021.94,-84.66 2023.42,-84.47"/>
<polygon fill="#63b8ff" stroke="#63b8ff" points="2023.9,-87.94 2033.34,-83.14 2022.97,-81 2023.9,-87.94"/>
</a>
</g>
</g>
<!-- Node34 -->
<g id="Node000034" class="node">
<title>Node34</title>
<g id="a_Node000034"><a xlink:title=" ">
<polygon fill="#e0e0e0" stroke="#999999" points="952.5,-85 819.5,-85 819.5,-55 952.5,-55 952.5,-85"/>
<text text-anchor="start" x="827.5" y="-73" font-family="Helvetica,sans-Serif" font-size="10.00">emlabcpp/experimental</text>
<text text-anchor="middle" x="886" y="-62" font-family="Helvetica,sans-Serif" font-size="10.00">/testing/collect.h</text>
</a>
</g>
</g>
<!-- Node15&#45;&gt;Node34 -->
<g id="edge25_Node000015_Node000034" class="edge">
<title>Node15&#45;&gt;Node34</title>
<g id="a_edge25_Node000015_Node000034"><a xlink:title=" ">
<path fill="none" stroke="#63b8ff" d="M1298.99,-125.64C1231.77,-118.96 1091.7,-104.24 962.74,-85.05"/>
<polygon fill="#63b8ff" stroke="#63b8ff" points="963.1,-81.56 952.69,-83.54 962.06,-88.48 963.1,-81.56"/>
</a>
</g>
</g>
<!-- Node35 -->
<g id="Node000035" class="node">
<title>Node35</title>
<g id="a_Node000035"><a xlink:title=" ">
<polygon fill="#e0e0e0" stroke="#999999" points="1103.5,-85 970.5,-85 970.5,-55 1103.5,-55 1103.5,-85"/>
<text text-anchor="start" x="978.5" y="-73" font-family="Helvetica,sans-Serif" font-size="10.00">emlabcpp/experimental</text>
<text text-anchor="middle" x="1037" y="-62" font-family="Helvetica,sans-Serif" font-size="10.00">/testing/controller.h</text>
</a>
</g>
</g>
<!-- Node15&#45;&gt;Node35 -->
<g id="edge26_Node000015_Node000035" class="edge">
<title>Node15&#45;&gt;Node35</title>
<g id="a_edge26_Node000015_Node000035"><a xlink:title=" ">
<path fill="none" stroke="#63b8ff" d="M1298.9,-121.73C1251.8,-112.61 1172.63,-97.27 1113.64,-85.85"/>
<polygon fill="#63b8ff" stroke="#63b8ff" points="1114.1,-82.37 1103.61,-83.9 1112.77,-89.24 1114.1,-82.37"/>
</a>
</g>
</g>
<!-- Node36 -->
<g id="Node000036" class="node">
<title>Node36</title>
<g id="a_Node000036"><a xlink:title=" ">
<polygon fill="#e0e0e0" stroke="#999999" points="1254.5,-85 1121.5,-85 1121.5,-55 1254.5,-55 1254.5,-85"/>
<text text-anchor="start" x="1129.5" y="-73" font-family="Helvetica,sans-Serif" font-size="10.00">emlabcpp/experimental</text>
<text text-anchor="middle" x="1188" y="-62" font-family="Helvetica,sans-Serif" font-size="10.00">/testing/json.h</text>
</a>
</g>
</g>
<!-- Node15&#45;&gt;Node36 -->
<g id="edge27_Node000015_Node000036" class="edge">
<title>Node15&#45;&gt;Node36</title>
<g id="a_edge27_Node000015_Node000036"><a xlink:title=" ">
<path fill="none" stroke="#63b8ff" d="M1317.04,-120.99C1295.31,-112.57 1261.39,-99.43 1233.78,-88.73"/>
<polygon fill="#63b8ff" stroke="#63b8ff" points="1234.89,-85.41 1224.3,-85.06 1232.36,-91.94 1234.89,-85.41"/>
</a>
</g>
</g>
<!-- Node37 -->
<g id="Node000037" class="node">
<title>Node37</title>
<g id="a_Node000037"><a xlink:title=" ">
<polygon fill="#e0e0e0" stroke="#999999" points="1405.5,-85 1272.5,-85 1272.5,-55 1405.5,-55 1405.5,-85"/>
<text text-anchor="start" x="1280.5" y="-73" font-family="Helvetica,sans-Serif" font-size="10.00">emlabcpp/experimental</text>
<text text-anchor="middle" x="1339" y="-62" font-family="Helvetica,sans-Serif" font-size="10.00">/testing/parameters.h</text>
</a>
</g>
</g>
<!-- Node15&#45;&gt;Node37 -->
<g id="edge28_Node000015_Node000037" class="edge">
<title>Node15&#45;&gt;Node37</title>
<g id="a_edge28_Node000015_Node000037"><a xlink:title=" ">
<path fill="none" stroke="#63b8ff" d="M1339,-120.87C1339,-114.11 1339,-104.35 1339,-95.26"/>
<polygon fill="#63b8ff" stroke="#63b8ff" points="1342.5,-95.11 1339,-85.11 1335.5,-95.11 1342.5,-95.11"/>
</a>
</g>
</g>
<!-- Node38 -->
<g id="Node000038" class="node">
<title>Node38</title>
<g id="a_Node000038"><a xlink:title=" ">
<polygon fill="#e0e0e0" stroke="#999999" points="1570,-85 1424,-85 1424,-55 1570,-55 1570,-85"/>
<text text-anchor="start" x="1432" y="-73" font-family="Helvetica,sans-Serif" font-size="10.00">emlabcpp/pmr/new_delete</text>
<text text-anchor="middle" x="1497" y="-62" font-family="Helvetica,sans-Serif" font-size="10.00">_resource.h</text>
</a>
</g>
</g>
<!-- Node15&#45;&gt;Node38 -->
<g id="edge29_Node000015_Node000038" class="edge">
<title>Node15&#45;&gt;Node38</title>
<g id="a_edge29_Node000015_Node000038"><a xlink:title=" ">
<path fill="none" stroke="#63b8ff" d="M1361.97,-120.99C1384.81,-112.54 1420.52,-99.32 1449.48,-88.59"/>
<polygon fill="#63b8ff" stroke="#63b8ff" points="1450.85,-91.82 1459.01,-85.06 1448.42,-85.25 1450.85,-91.82"/>
</a>
</g>
</g>
<!-- Node39 -->
<g id="Node000039" class="node">
<title>Node39</title>
<g id="a_Node000039"><a xlink:title=" ">
<polygon fill="#e0e0e0" stroke="#999999" points="1633.5,-79.5 1588.5,-79.5 1588.5,-60.5 1633.5,-60.5 1633.5,-79.5"/>
<text text-anchor="middle" x="1611" y="-67.5" font-family="Helvetica,sans-Serif" font-size="10.00">utility</text>
</a>
</g>
</g>
<!-- Node15&#45;&gt;Node39 -->
<g id="edge30_Node000015_Node000039" class="edge">
<title>Node15&#45;&gt;Node39</title>
<g id="a_edge30_Node000015_Node000039"><a xlink:title=" ">
<path fill="none" stroke="#63b8ff" d="M1379.05,-122.32C1444.84,-110.49 1569.49,-87.92 1579,-85 1580.63,-84.5 1582.3,-83.94 1583.96,-83.34"/>
<polygon fill="#63b8ff" stroke="#63b8ff" points="1585.35,-86.55 1593.33,-79.59 1582.75,-80.05 1585.35,-86.55"/>
</a>
</g>
</g>
<!-- Node28&#45;&gt;Node31 -->
<g id="edge22_Node000028_Node000031" class="edge">
<title>Node28&#45;&gt;Node31</title>
<g id="a_edge22_Node000028_Node000031"><a xlink:title=" ">
<path fill="none" stroke="#63b8ff" d="M1940.16,-60.37C1945.23,-51.9 1953.1,-38.74 1959.49,-28.07"/>
<polygon fill="#63b8ff" stroke="#63b8ff" points="1962.68,-29.55 1964.81,-19.17 1956.68,-25.95 1962.68,-29.55"/>
</a>
</g>
</g>
</g>
</svg>
