<?xml version="1.0" encoding="UTF-8" standalone="no"?>
<!DOCTYPE svg PUBLIC "-//W3C//DTD SVG 1.1//EN"
 "http://www.w3.org/Graphics/SVG/1.1/DTD/svg11.dtd">
<!-- Generated by graphviz version 2.43.0 (0)
 -->
<!-- Title: src/ftester/config.cpp Pages: 1 -->
<svg width="572pt" height="196pt"
 viewBox="0.00 0.00 572.00 196.00" xmlns="http://www.w3.org/2000/svg" xmlns:xlink="http://www.w3.org/1999/xlink">
<g id="graph0" class="graph" transform="scale(1 1) rotate(0) translate(4 192)">
<title>src/ftester/config.cpp</title>
<polygon fill="white" stroke="transparent" points="-4,4 -4,-192 568,-192 568,4 -4,4"/>
<!-- Node1 -->
<g id="node1" class="node">
<title>Node1</title>
<g id="a_node1"><a xlink:title=" ">
<polygon fill="#bfbfbf" stroke="black" points="290,-168.5 290,-187.5 408,-187.5 408,-168.5 290,-168.5"/>
<text text-anchor="middle" x="349" y="-175.5" font-family="Helvetica,sans-Serif" font-size="10.00">src/ftester/config.cpp</text>
</a>
</g>
</g>
<!-- Node2 -->
<g id="node2" class="node">
<title>Node2</title>
<g id="a_node2"><a xlink:href="ftester_2config_8hpp.html" target="_top" xlink:title=" ">
<polygon fill="white" stroke="black" points="394.5,-112.5 394.5,-131.5 467.5,-131.5 467.5,-112.5 394.5,-112.5"/>
<text text-anchor="middle" x="431" y="-119.5" font-family="Helvetica,sans-Serif" font-size="10.00">./config.hpp</text>
</a>
</g>
</g>
<!-- Node1&#45;&gt;Node2 -->
<g id="edge1" class="edge">
<title>Node1&#45;&gt;Node2</title>
<path fill="none" stroke="midnightblue" d="M362.17,-168.32C374.85,-159.98 394.23,-147.21 409.21,-137.35"/>
<polygon fill="midnightblue" stroke="midnightblue" points="411.43,-140.08 417.86,-131.65 407.58,-134.23 411.43,-140.08"/>
</g>
<!-- Node7 -->
<g id="node7" class="node">
<title>Node7</title>
<g id="a_node7"><a xlink:href="scmdio_2cli_8hpp.html" target="_top" xlink:title=" ">
<polygon fill="white" stroke="black" points="163,-112.5 163,-131.5 259,-131.5 259,-112.5 163,-112.5"/>
<text text-anchor="middle" x="211" y="-119.5" font-family="Helvetica,sans-Serif" font-size="10.00">../scmdio/cli.hpp</text>
</a>
</g>
</g>
<!-- Node1&#45;&gt;Node7 -->
<g id="edge6" class="edge">
<title>Node1&#45;&gt;Node7</title>
<path fill="none" stroke="midnightblue" d="M327.13,-168.44C304.22,-159.48 268.02,-145.31 242.13,-135.18"/>
<polygon fill="midnightblue" stroke="midnightblue" points="243.35,-131.9 232.76,-131.52 240.8,-138.42 243.35,-131.9"/>
</g>
<!-- Node18 -->
<g id="node11" class="node">
<title>Node18</title>
<g id="a_node11"><a xlink:href="ftester_2cli_8hpp.html" target="_top" xlink:title=" ">
<polygon fill="white" stroke="black" points="321.5,-112.5 321.5,-131.5 376.5,-131.5 376.5,-112.5 321.5,-112.5"/>
<text text-anchor="middle" x="349" y="-119.5" font-family="Helvetica,sans-Serif" font-size="10.00">./cli.hpp</text>
</a>
</g>
</g>
<!-- Node1&#45;&gt;Node18 -->
<g id="edge11" class="edge">
<title>Node1&#45;&gt;Node18</title>
<path fill="none" stroke="midnightblue" d="M349,-168.08C349,-161.01 349,-150.86 349,-141.99"/>
<polygon fill="midnightblue" stroke="midnightblue" points="352.5,-141.75 349,-131.75 345.5,-141.75 352.5,-141.75"/>
</g>
<!-- Node3 -->
<g id="node3" class="node">
<title>Node3</title>
<g id="a_node3"><a xlink:title=" ">
<polygon fill="white" stroke="#bfbfbf" points="304,-0.5 304,-19.5 354,-19.5 354,-0.5 304,-0.5"/>
<text text-anchor="middle" x="329" y="-7.5" font-family="Helvetica,sans-Serif" font-size="10.00">cstdint</text>
</a>
</g>
</g>
<!-- Node2&#45;&gt;Node3 -->
<g id="edge2" class="edge">
<title>Node2&#45;&gt;Node3</title>
<path fill="none" stroke="midnightblue" d="M443.69,-112.37C460.74,-99.7 487.33,-75.48 473,-56 448.18,-22.25 398.16,-13.1 364.12,-11"/>
<polygon fill="midnightblue" stroke="midnightblue" points="364.26,-7.5 354.11,-10.55 363.95,-14.49 364.26,-7.5"/>
</g>
<!-- Node4 -->
<g id="node4" class="node">
<title>Node4</title>
<g id="a_node4"><a xlink:title=" ">
<polygon fill="white" stroke="#bfbfbf" points="396,-56.5 396,-75.5 464,-75.5 464,-56.5 396,-56.5"/>
<text text-anchor="middle" x="430" y="-63.5" font-family="Helvetica,sans-Serif" font-size="10.00">filesystem</text>
</a>
</g>
</g>
<!-- Node2&#45;&gt;Node4 -->
<g id="edge3" class="edge">
<title>Node2&#45;&gt;Node4</title>
<path fill="none" stroke="midnightblue" d="M430.83,-112.08C430.7,-105.01 430.52,-94.86 430.35,-85.99"/>
<polygon fill="midnightblue" stroke="midnightblue" points="433.85,-85.68 430.16,-75.75 426.85,-85.81 433.85,-85.68"/>
</g>
<!-- Node5 -->
<g id="node5" class="node">
<title>Node5</title>
<g id="a_node5"><a xlink:title=" ">
<polygon fill="white" stroke="#bfbfbf" points="322,-56.5 322,-75.5 378,-75.5 378,-56.5 322,-56.5"/>
<text text-anchor="middle" x="350" y="-63.5" font-family="Helvetica,sans-Serif" font-size="10.00">optional</text>
</a>
</g>
</g>
<!-- Node2&#45;&gt;Node5 -->
<g id="edge4" class="edge">
<title>Node2&#45;&gt;Node5</title>
<path fill="none" stroke="midnightblue" d="M417.99,-112.32C405.47,-103.98 386.32,-91.21 371.53,-81.35"/>
<polygon fill="midnightblue" stroke="midnightblue" points="373.24,-78.29 362.98,-75.65 369.36,-84.11 373.24,-78.29"/>
</g>
<!-- Node6 -->
<g id="node6" class="node">
<title>Node6</title>
<g id="a_node6"><a xlink:title=" ">
<polygon fill="white" stroke="#bfbfbf" points="520,-56.5 520,-75.5 564,-75.5 564,-56.5 520,-56.5"/>
<text text-anchor="middle" x="542" y="-63.5" font-family="Helvetica,sans-Serif" font-size="10.00">string</text>
</a>
</g>
</g>
<!-- Node2&#45;&gt;Node6 -->
<g id="edge5" class="edge">
<title>Node2&#45;&gt;Node6</title>
<path fill="none" stroke="midnightblue" d="M448.83,-112.32C466.72,-103.62 494.48,-90.12 515.05,-80.11"/>
<polygon fill="midnightblue" stroke="midnightblue" points="516.75,-83.18 524.21,-75.65 513.69,-76.88 516.75,-83.18"/>
</g>
<!-- Node8 -->
<g id="node8" class="node">
<title>Node8</title>
<g id="a_node8"><a xlink:href="base_2base_8hpp.html" target="_top" xlink:title=" ">
<polygon fill="white" stroke="red" points="118,-56.5 118,-75.5 214,-75.5 214,-56.5 118,-56.5"/>
<text text-anchor="middle" x="166" y="-63.5" font-family="Helvetica,sans-Serif" font-size="10.00">../base/base.hpp</text>
</a>
</g>
</g>
<!-- Node7&#45;&gt;Node8 -->
<g id="edge7" class="edge">
<title>Node7&#45;&gt;Node8</title>
<path fill="none" stroke="midnightblue" d="M203.57,-112.08C197.15,-104.38 187.69,-93.03 179.88,-83.65"/>
<polygon fill="midnightblue" stroke="midnightblue" points="182.38,-81.19 173.29,-75.75 177.01,-85.67 182.38,-81.19"/>
</g>
<!-- Node13 -->
<g id="node9" class="node">
<title>Node13</title>
<g id="a_node9"><a xlink:href="async__cobs_8hpp.html" target="_top" xlink:title=" ">
<polygon fill="white" stroke="red" points="0,-56.5 0,-75.5 100,-75.5 100,-56.5 0,-56.5"/>
<text text-anchor="middle" x="50" y="-63.5" font-family="Helvetica,sans-Serif" font-size="10.00">./async_cobs.hpp</text>
</a>
</g>
</g>
<!-- Node7&#45;&gt;Node13 -->
<g id="edge9" class="edge">
<title>Node7&#45;&gt;Node13</title>
<path fill="none" stroke="midnightblue" d="M185.49,-112.44C158.4,-103.36 115.41,-88.94 85.13,-78.78"/>
<polygon fill="midnightblue" stroke="midnightblue" points="85.99,-75.38 75.39,-75.52 83.76,-82.01 85.99,-75.38"/>
</g>
<!-- Node17 -->
<g id="node10" class="node">
<title>Node17</title>
<g id="a_node10"><a xlink:title=" ">
<polygon fill="white" stroke="#bfbfbf" points="232.5,-56.5 232.5,-75.5 303.5,-75.5 303.5,-56.5 232.5,-56.5"/>
<text text-anchor="middle" x="268" y="-63.5" font-family="Helvetica,sans-Serif" font-size="10.00">CLI/CLI.hpp</text>
</a>
</g>
</g>
<!-- Node7&#45;&gt;Node17 -->
<g id="edge10" class="edge">
<title>Node7&#45;&gt;Node17</title>
<path fill="none" stroke="midnightblue" d="M220.16,-112.32C228.5,-104.42 241.03,-92.55 251.18,-82.94"/>
<polygon fill="midnightblue" stroke="midnightblue" points="253.82,-85.25 258.68,-75.83 249.01,-80.17 253.82,-85.25"/>
</g>
<!-- Node8&#45;&gt;Node3 -->
<g id="edge8" class="edge">
<title>Node8&#45;&gt;Node3</title>
<path fill="none" stroke="midnightblue" d="M191.83,-56.44C219.41,-47.31 263.29,-32.77 293.97,-22.6"/>
<polygon fill="midnightblue" stroke="midnightblue" points="295.44,-25.81 303.83,-19.34 293.24,-19.16 295.44,-25.81"/>
</g>
<!-- Node18&#45;&gt;Node4 -->
<g id="edge13" class="edge">
<title>Node18&#45;&gt;Node4</title>
<path fill="none" stroke="midnightblue" d="M362.01,-112.32C374.53,-103.98 393.68,-91.21 408.47,-81.35"/>
<polygon fill="midnightblue" stroke="midnightblue" points="410.64,-84.11 417.02,-75.65 406.76,-78.29 410.64,-84.11"/>
</g>
<!-- Node18&#45;&gt;Node5 -->
<g id="edge14" class="edge">
<title>Node18&#45;&gt;Node5</title>
<path fill="none" stroke="midnightblue" d="M349.17,-112.08C349.3,-105.01 349.48,-94.86 349.65,-85.99"/>
<polygon fill="midnightblue" stroke="midnightblue" points="353.15,-85.81 349.84,-75.75 346.15,-85.68 353.15,-85.81"/>
</g>
<!-- Node18&#45;&gt;Node17 -->
<g id="edge12" class="edge">
<title>Node18&#45;&gt;Node17</title>
<path fill="none" stroke="midnightblue" d="M335.99,-112.32C323.47,-103.98 304.32,-91.21 289.53,-81.35"/>
<polygon fill="midnightblue" stroke="midnightblue" points="291.24,-78.29 280.98,-75.65 287.36,-84.11 291.24,-78.29"/>
</g>
</g>
</svg>
