<?xml version="1.0" encoding="UTF-8" standalone="no"?>
<!DOCTYPE svg PUBLIC "-//W3C//DTD SVG 1.1//EN"
 "http://www.w3.org/Graphics/SVG/1.1/DTD/svg11.dtd">
<!-- Generated by graphviz version 2.43.0 (0)
 -->
<!-- Title: src/ftester/config.cpp Pages: 1 -->
<svg width="572pt" height="192pt"
 viewBox="0.00 0.00 572.00 192.00" xmlns="http://www.w3.org/2000/svg" xmlns:xlink="http://www.w3.org/1999/xlink">
<g id="graph0" class="graph" transform="scale(1 1) rotate(0) translate(4 188)">
<title>src/ftester/config.cpp</title>
<!-- Node1 -->
<g id="Node000001" class="node">
<title>Node1</title>
<g id="a_Node000001"><a xlink:title=" ">
<polygon fill="#999999" stroke="#666666" points="408,-184 290,-184 290,-165 408,-165 408,-184"/>
<text text-anchor="middle" x="349" y="-172" font-family="Helvetica,sans-Serif" font-size="10.00">src/ftester/config.cpp</text>
</a>
</g>
</g>
<!-- Node2 -->
<g id="Node000002" class="node">
<title>Node2</title>
<g id="a_Node000002"><a xlink:href="ftester_2config_8hpp.html" target="_top" xlink:title=" ">
<polygon fill="white" stroke="#666666" points="467.5,-129 394.5,-129 394.5,-110 467.5,-110 467.5,-129"/>
<text text-anchor="middle" x="431" y="-117" font-family="Helvetica,sans-Serif" font-size="10.00">./config.hpp</text>
</a>
</g>
</g>
<!-- Node1&#45;&gt;Node2 -->
<g id="edge1_Node000001_Node000002" class="edge">
<title>Node1&#45;&gt;Node2</title>
<g id="a_edge1_Node000001_Node000002"><a xlink:title=" ">
<path fill="none" stroke="#63b8ff" d="M362.17,-164.98C374.77,-156.84 394,-144.41 408.94,-134.76"/>
<polygon fill="#63b8ff" stroke="#63b8ff" points="411.09,-137.54 417.59,-129.17 407.29,-131.66 411.09,-137.54"/>
</a>
</g>
</g>
<!-- Node7 -->
<g id="Node000007" class="node">
<title>Node7</title>
<g id="a_Node000007"><a xlink:href="scmdio_2cli_8hpp.html" target="_top" xlink:title=" ">
<polygon fill="white" stroke="#666666" points="259,-129 163,-129 163,-110 259,-110 259,-129"/>
<text text-anchor="middle" x="211" y="-117" font-family="Helvetica,sans-Serif" font-size="10.00">../scmdio/cli.hpp</text>
</a>
</g>
</g>
<!-- Node1&#45;&gt;Node7 -->
<g id="edge6_Node000001_Node000007" class="edge">
<title>Node1&#45;&gt;Node7</title>
<g id="a_edge6_Node000001_Node000007"><a xlink:title=" ">
<path fill="none" stroke="#63b8ff" d="M326.83,-164.98C304.23,-156.3 268.94,-142.75 243.25,-132.88"/>
<polygon fill="#63b8ff" stroke="#63b8ff" points="244.17,-129.49 233.58,-129.17 241.66,-136.02 244.17,-129.49"/>
</a>
</g>
</g>
<!-- Node18 -->
<g id="Node000018" class="node">
<title>Node18</title>
<g id="a_Node000018"><a xlink:href="ftester_2cli_8hpp.html" target="_top" xlink:title=" ">
<polygon fill="white" stroke="#666666" points="376.5,-129 321.5,-129 321.5,-110 376.5,-110 376.5,-129"/>
<text text-anchor="middle" x="349" y="-117" font-family="Helvetica,sans-Serif" font-size="10.00">./cli.hpp</text>
</a>
</g>
</g>
<!-- Node1&#45;&gt;Node18 -->
<g id="edge11_Node000001_Node000018" class="edge">
<title>Node1&#45;&gt;Node18</title>
<g id="a_edge11_Node000001_Node000018"><a xlink:title=" ">
<path fill="none" stroke="#63b8ff" d="M349,-164.75C349,-157.8 349,-147.85 349,-139.13"/>
<polygon fill="#63b8ff" stroke="#63b8ff" points="352.5,-139.09 349,-129.09 345.5,-139.09 352.5,-139.09"/>
</a>
</g>
</g>
<!-- Node3 -->
<g id="Node000003" class="node">
<title>Node3</title>
<g id="a_Node000003"><a xlink:title=" ">
<polygon fill="#e0e0e0" stroke="#999999" points="354,-19 304,-19 304,0 354,0 354,-19"/>
<text text-anchor="middle" x="329" y="-7" font-family="Helvetica,sans-Serif" font-size="10.00">cstdint</text>
</a>
</g>
</g>
<!-- Node2&#45;&gt;Node3 -->
<g id="edge2_Node000002_Node000003" class="edge">
<title>Node2&#45;&gt;Node3</title>
<g id="a_edge2_Node000002_Node000003"><a xlink:title=" ">
<path fill="none" stroke="#63b8ff" d="M443.93,-109.89C460.91,-97.5 487.04,-74.04 473,-55 448.15,-21.32 398.14,-12.35 364.11,-10.37"/>
<polygon fill="#63b8ff" stroke="#63b8ff" points="364.24,-6.87 354.1,-9.96 363.95,-13.86 364.24,-6.87"/>
</a>
</g>
</g>
<!-- Node4 -->
<g id="Node000004" class="node">
<title>Node4</title>
<g id="a_Node000004"><a xlink:title=" ">
<polygon fill="#e0e0e0" stroke="#999999" points="464,-74 396,-74 396,-55 464,-55 464,-74"/>
<text text-anchor="middle" x="430" y="-62" font-family="Helvetica,sans-Serif" font-size="10.00">filesystem</text>
</a>
</g>
</g>
<!-- Node2&#45;&gt;Node4 -->
<g id="edge3_Node000002_Node000004" class="edge">
<title>Node2&#45;&gt;Node4</title>
<g id="a_edge3_Node000002_Node000004"><a xlink:title=" ">
<path fill="none" stroke="#63b8ff" d="M430.83,-109.75C430.7,-102.8 430.52,-92.85 430.35,-84.13"/>
<polygon fill="#63b8ff" stroke="#63b8ff" points="433.85,-84.02 430.16,-74.09 426.85,-84.15 433.85,-84.02"/>
</a>
</g>
</g>
<!-- Node5 -->
<g id="Node000005" class="node">
<title>Node5</title>
<g id="a_Node000005"><a xlink:title=" ">
<polygon fill="#e0e0e0" stroke="#999999" points="378,-74 322,-74 322,-55 378,-55 378,-74"/>
<text text-anchor="middle" x="350" y="-62" font-family="Helvetica,sans-Serif" font-size="10.00">optional</text>
</a>
</g>
</g>
<!-- Node2&#45;&gt;Node5 -->
<g id="edge4_Node000002_Node000005" class="edge">
<title>Node2&#45;&gt;Node5</title>
<g id="a_edge4_Node000002_Node000005"><a xlink:title=" ">
<path fill="none" stroke="#63b8ff" d="M417.99,-109.98C405.54,-101.84 386.54,-89.41 371.79,-79.76"/>
<polygon fill="#63b8ff" stroke="#63b8ff" points="373.54,-76.72 363.25,-74.17 369.7,-82.57 373.54,-76.72"/>
</a>
</g>
</g>
<!-- Node6 -->
<g id="Node000006" class="node">
<title>Node6</title>
<g id="a_Node000006"><a xlink:title=" ">
<polygon fill="#e0e0e0" stroke="#999999" points="564,-74 520,-74 520,-55 564,-55 564,-74"/>
<text text-anchor="middle" x="542" y="-62" font-family="Helvetica,sans-Serif" font-size="10.00">string</text>
</a>
</g>
</g>
<!-- Node2&#45;&gt;Node6 -->
<g id="edge5_Node000002_Node000006" class="edge">
<title>Node2&#45;&gt;Node6</title>
<g id="a_edge5_Node000002_Node000006"><a xlink:title=" ">
<path fill="none" stroke="#63b8ff" d="M448.83,-109.98C466.61,-101.5 494.15,-88.35 514.68,-78.54"/>
<polygon fill="#63b8ff" stroke="#63b8ff" points="516.33,-81.64 523.84,-74.17 513.31,-75.32 516.33,-81.64"/>
</a>
</g>
</g>
<!-- Node8 -->
<g id="Node000008" class="node">
<title>Node8</title>
<g id="a_Node000008"><a xlink:href="base_2base_8hpp.html" target="_top" xlink:title=" ">
<polygon fill="#fff0f0" stroke="red" points="214,-74 118,-74 118,-55 214,-55 214,-74"/>
<text text-anchor="middle" x="166" y="-62" font-family="Helvetica,sans-Serif" font-size="10.00">../base/base.hpp</text>
</a>
</g>
</g>
<!-- Node7&#45;&gt;Node8 -->
<g id="edge7_Node000007_Node000008" class="edge">
<title>Node7&#45;&gt;Node8</title>
<g id="a_edge7_Node000007_Node000008"><a xlink:title=" ">
<path fill="none" stroke="#63b8ff" d="M203.57,-109.75C197.15,-102.18 187.69,-91.05 179.88,-81.84"/>
<polygon fill="#63b8ff" stroke="#63b8ff" points="182.43,-79.45 173.29,-74.09 177.1,-83.98 182.43,-79.45"/>
</a>
</g>
</g>
<!-- Node13 -->
<g id="Node000013" class="node">
<title>Node13</title>
<g id="a_Node000013"><a xlink:href="async__cobs_8hpp.html" target="_top" xlink:title=" ">
<polygon fill="#fff0f0" stroke="red" points="100,-74 0,-74 0,-55 100,-55 100,-74"/>
<text text-anchor="middle" x="50" y="-62" font-family="Helvetica,sans-Serif" font-size="10.00">./async_cobs.hpp</text>
</a>
</g>
</g>
<!-- Node7&#45;&gt;Node13 -->
<g id="edge9_Node000007_Node000013" class="edge">
<title>Node7&#45;&gt;Node13</title>
<g id="a_edge9_Node000007_Node000013"><a xlink:title=" ">
<path fill="none" stroke="#63b8ff" d="M185.13,-109.98C158.22,-101.13 115.88,-87.19 85.77,-77.28"/>
<polygon fill="#63b8ff" stroke="#63b8ff" points="86.66,-73.88 76.07,-74.08 84.47,-80.53 86.66,-73.88"/>
</a>
</g>
</g>
<!-- Node17 -->
<g id="Node000017" class="node">
<title>Node17</title>
<g id="a_Node000017"><a xlink:title=" ">
<polygon fill="#e0e0e0" stroke="#999999" points="303.5,-74 232.5,-74 232.5,-55 303.5,-55 303.5,-74"/>
<text text-anchor="middle" x="268" y="-62" font-family="Helvetica,sans-Serif" font-size="10.00">CLI/CLI.hpp</text>
</a>
</g>
</g>
<!-- Node7&#45;&gt;Node17 -->
<g id="edge10_Node000007_Node000017" class="edge">
<title>Node7&#45;&gt;Node17</title>
<g id="a_edge10_Node000007_Node000017"><a xlink:title=" ">
<path fill="none" stroke="#63b8ff" d="M220.16,-109.98C228.5,-102.23 241.03,-90.58 251.18,-81.14"/>
<polygon fill="#63b8ff" stroke="#63b8ff" points="253.74,-83.54 258.68,-74.17 248.97,-78.42 253.74,-83.54"/>
</a>
</g>
</g>
<!-- Node8&#45;&gt;Node3 -->
<g id="edge8_Node000008_Node000003" class="edge">
<title>Node8&#45;&gt;Node3</title>
<g id="a_edge8_Node000008_Node000003"><a xlink:title=" ">
<path fill="none" stroke="#63b8ff" d="M192.19,-54.98C219.84,-45.99 263.58,-31.77 294.13,-21.84"/>
<polygon fill="#63b8ff" stroke="#63b8ff" points="295.52,-25.07 303.95,-18.65 293.35,-18.41 295.52,-25.07"/>
</a>
</g>
</g>
<!-- Node18&#45;&gt;Node4 -->
<g id="edge13_Node000018_Node000004" class="edge">
<title>Node18&#45;&gt;Node4</title>
<g id="a_edge13_Node000018_Node000004"><a xlink:title=" ">
<path fill="none" stroke="#63b8ff" d="M362.01,-109.98C374.46,-101.84 393.46,-89.41 408.21,-79.76"/>
<polygon fill="#63b8ff" stroke="#63b8ff" points="410.3,-82.57 416.75,-74.17 406.46,-76.72 410.3,-82.57"/>
</a>
</g>
</g>
<!-- Node18&#45;&gt;Node5 -->
<g id="edge14_Node000018_Node000005" class="edge">
<title>Node18&#45;&gt;Node5</title>
<g id="a_edge14_Node000018_Node000005"><a xlink:title=" ">
<path fill="none" stroke="#63b8ff" d="M349.17,-109.75C349.3,-102.8 349.48,-92.85 349.65,-84.13"/>
<polygon fill="#63b8ff" stroke="#63b8ff" points="353.15,-84.15 349.84,-74.09 346.15,-84.02 353.15,-84.15"/>
</a>
</g>
</g>
<!-- Node18&#45;&gt;Node17 -->
<g id="edge12_Node000018_Node000017" class="edge">
<title>Node18&#45;&gt;Node17</title>
<g id="a_edge12_Node000018_Node000017"><a xlink:title=" ">
<path fill="none" stroke="#63b8ff" d="M335.99,-109.98C323.54,-101.84 304.54,-89.41 289.79,-79.76"/>
<polygon fill="#63b8ff" stroke="#63b8ff" points="291.54,-76.72 281.25,-74.17 287.7,-82.57 291.54,-76.72"/>
</a>
</g>
</g>
</g>
</svg>
