<?xml version="1.0" encoding="UTF-8" standalone="no"?>
<!DOCTYPE svg PUBLIC "-//W3C//DTD SVG 1.1//EN"
 "http://www.w3.org/Graphics/SVG/1.1/DTD/svg11.dtd">
<!-- Generated by graphviz version 2.43.0 (0)
 -->
<!-- Title: src/ftest/main.cpp Pages: 1 -->
<svg width="1025pt" height="313pt"
 viewBox="0.00 0.00 1024.64 313.00" xmlns="http://www.w3.org/2000/svg" xmlns:xlink="http://www.w3.org/1999/xlink">
<g id="graph0" class="graph" transform="scale(1 1) rotate(0) translate(4 309)">
<title>src/ftest/main.cpp</title>
<!-- Node1 -->
<g id="Node000001" class="node">
<title>Node1</title>
<g id="a_Node000001"><a xlink:title=" ">
<polygon fill="#999999" stroke="#666666" points="508.64,-305 404.64,-305 404.64,-286 508.64,-286 508.64,-305"/>
<text text-anchor="middle" x="456.64" y="-293" font-family="Helvetica,sans-Serif" font-size="10.00">src/ftest/main.cpp</text>
</a>
</g>
</g>
<!-- Node2 -->
<g id="Node000002" class="node">
<title>Node2</title>
<g id="a_Node000002"><a xlink:href="brd_8hpp.html" target="_top" xlink:title=" ">
<polygon fill="white" stroke="#666666" points="95.14,-250 14.14,-250 14.14,-231 95.14,-231 95.14,-250"/>
<text text-anchor="middle" x="54.64" y="-238" font-family="Helvetica,sans-Serif" font-size="10.00">../brd/brd.hpp</text>
</a>
</g>
</g>
<!-- Node1&#45;&gt;Node2 -->
<g id="edge1_Node000001_Node000002" class="edge">
<title>Node1&#45;&gt;Node2</title>
<g id="a_edge1_Node000001_Node000002"><a xlink:title=" ">
<path fill="none" stroke="#63b8ff" d="M404.5,-287.63C326.99,-277.41 182.3,-258.33 105.53,-248.21"/>
<polygon fill="#63b8ff" stroke="#63b8ff" points="105.53,-244.68 95.16,-246.84 104.61,-251.62 105.53,-244.68"/>
</a>
</g>
</g>
<!-- Node29 -->
<g id="Node000029" class="node">
<title>Node29</title>
<g id="a_Node000029"><a xlink:href="context_8hpp.html" target="_top" xlink:title=" ">
<polygon fill="white" stroke="#666666" points="286.64,-250 188.64,-250 188.64,-231 286.64,-231 286.64,-250"/>
<text text-anchor="middle" x="237.64" y="-238" font-family="Helvetica,sans-Serif" font-size="10.00">../fw/context.hpp</text>
</a>
</g>
</g>
<!-- Node1&#45;&gt;Node29 -->
<g id="edge5_Node000001_Node000029" class="edge">
<title>Node1&#45;&gt;Node29</title>
<g id="a_edge5_Node000001_Node000029"><a xlink:title=" ">
<path fill="none" stroke="#63b8ff" d="M421.46,-285.98C383.81,-276.87 323.99,-262.4 282.87,-252.45"/>
<polygon fill="#63b8ff" stroke="#63b8ff" points="283.65,-249.03 273.1,-250.08 282,-255.84 283.65,-249.03"/>
</a>
</g>
</g>
<!-- Node61 -->
<g id="Node000061" class="node">
<title>Node61</title>
<g id="a_Node000061"><a xlink:href="fw_2util_8hpp.html" target="_top" xlink:title=" ">
<polygon fill="white" stroke="#666666" points="495.14,-250 418.14,-250 418.14,-231 495.14,-231 495.14,-250"/>
<text text-anchor="middle" x="456.64" y="-238" font-family="Helvetica,sans-Serif" font-size="10.00">../fw/util.hpp</text>
</a>
</g>
</g>
<!-- Node1&#45;&gt;Node61 -->
<g id="edge11_Node000001_Node000061" class="edge">
<title>Node1&#45;&gt;Node61</title>
<g id="a_edge11_Node000001_Node000061"><a xlink:title=" ">
<path fill="none" stroke="#63b8ff" d="M456.64,-285.75C456.64,-278.8 456.64,-268.85 456.64,-260.13"/>
<polygon fill="#63b8ff" stroke="#63b8ff" points="460.14,-260.09 456.64,-250.09 453.14,-260.09 460.14,-260.09"/>
</a>
</g>
</g>
<!-- Node64 -->
<g id="Node000064" class="node">
<title>Node64</title>
<g id="a_Node000064"><a xlink:href="setup__tests_8hpp.html" target="_top" xlink:title=" ">
<polygon fill="white" stroke="#666666" points="693.64,-195 593.64,-195 593.64,-176 693.64,-176 693.64,-195"/>
<text text-anchor="middle" x="643.64" y="-183" font-family="Helvetica,sans-Serif" font-size="10.00">./setup_tests.hpp</text>
</a>
</g>
</g>
<!-- Node1&#45;&gt;Node64 -->
<g id="edge15_Node000001_Node000064" class="edge">
<title>Node1&#45;&gt;Node64</title>
<g id="a_edge15_Node000001_Node000064"><a xlink:title=" ">
<path fill="none" stroke="#63b8ff" d="M471.63,-285.84C503.99,-267.16 580.62,-222.9 619.75,-200.3"/>
<polygon fill="#63b8ff" stroke="#63b8ff" points="621.94,-203.08 628.84,-195.05 618.43,-197.02 621.94,-203.08"/>
</a>
</g>
</g>
<!-- Node72 -->
<g id="Node000072" class="node">
<title>Node72</title>
<g id="a_Node000072"><a xlink:href="testing__system_8hpp.html" target="_top" xlink:title=" ">
<polygon fill="white" stroke="#666666" points="831.14,-195 712.14,-195 712.14,-176 831.14,-176 831.14,-195"/>
<text text-anchor="middle" x="771.64" y="-183" font-family="Helvetica,sans-Serif" font-size="10.00">./testing_system.hpp</text>
</a>
</g>
</g>
<!-- Node1&#45;&gt;Node72 -->
<g id="edge26_Node000001_Node000072" class="edge">
<title>Node1&#45;&gt;Node72</title>
<g id="a_edge26_Node000001_Node000072"><a xlink:title=" ">
<path fill="none" stroke="#63b8ff" d="M481.62,-285.94C537.57,-266.76 673,-220.32 737.02,-198.37"/>
<polygon fill="#63b8ff" stroke="#63b8ff" points="738.34,-201.62 746.66,-195.07 736.07,-195 738.34,-201.62"/>
</a>
</g>
</g>
<!-- Node3 -->
<g id="Node000003" class="node">
<title>Node3</title>
<g id="a_Node000003"><a xlink:href="drivers_8hpp.html" target="_top" xlink:title=" ">
<polygon fill="#fff0f0" stroke="red" points="155.64,-140 51.64,-140 51.64,-121 155.64,-121 155.64,-140"/>
<text text-anchor="middle" x="103.64" y="-128" font-family="Helvetica,sans-Serif" font-size="10.00">../core/drivers.hpp</text>
</a>
</g>
</g>
<!-- Node2&#45;&gt;Node3 -->
<g id="edge2_Node000002_Node000003" class="edge">
<title>Node2&#45;&gt;Node3</title>
<g id="a_edge2_Node000002_Node000003"><a xlink:title=" ">
<path fill="none" stroke="#63b8ff" d="M38.84,-230.89C19.28,-219.06 -9.91,-196.87 3.64,-176 13.91,-160.2 31.22,-149.97 48.58,-143.35"/>
<polygon fill="#63b8ff" stroke="#63b8ff" points="49.87,-146.61 58.18,-140.04 47.59,-139.99 49.87,-146.61"/>
</a>
</g>
</g>
<!-- Node4 -->
<g id="Node000004" class="node">
<title>Node4</title>
<g id="a_Node000004"><a xlink:href="interfaces_8hpp.html" target="_top" xlink:title=" ">
<polygon fill="#fff0f0" stroke="red" points="363.64,-79.5 249.64,-79.5 249.64,-60.5 363.64,-60.5 363.64,-79.5"/>
<text text-anchor="middle" x="306.64" y="-67.5" font-family="Helvetica,sans-Serif" font-size="10.00">../drv/interfaces.hpp</text>
</a>
</g>
</g>
<!-- Node3&#45;&gt;Node4 -->
<g id="edge3_Node000003_Node000004" class="edge">
<title>Node3&#45;&gt;Node4</title>
<g id="a_edge3_Node000003_Node000004"><a xlink:title=" ">
<path fill="none" stroke="#63b8ff" d="M133.16,-120.99C168.57,-110.79 228.05,-93.65 267.32,-82.33"/>
<polygon fill="#63b8ff" stroke="#63b8ff" points="268.45,-85.65 277.09,-79.52 266.51,-78.92 268.45,-85.65"/>
</a>
</g>
</g>
<!-- Node5 -->
<g id="Node000005" class="node">
<title>Node5</title>
<g id="a_Node000005"><a xlink:href="base_8hpp.html" target="_top" xlink:title=" ">
<polygon fill="#fff0f0" stroke="red" points="578.64,-19 508.64,-19 508.64,0 578.64,0 578.64,-19"/>
<text text-anchor="middle" x="543.64" y="-7" font-family="Helvetica,sans-Serif" font-size="10.00">../base.hpp</text>
</a>
</g>
</g>
<!-- Node4&#45;&gt;Node5 -->
<g id="edge4_Node000004_Node000005" class="edge">
<title>Node4&#45;&gt;Node5</title>
<g id="a_edge4_Node000004_Node000005"><a xlink:title=" ">
<path fill="none" stroke="#63b8ff" d="M341.1,-60.49C382.88,-50.18 453.36,-32.78 499.19,-21.47"/>
<polygon fill="#63b8ff" stroke="#63b8ff" points="500.27,-24.81 509.14,-19.02 498.59,-18.02 500.27,-24.81"/>
</a>
</g>
</g>
<!-- Node29&#45;&gt;Node3 -->
<g id="edge10_Node000029_Node000003" class="edge">
<title>Node29&#45;&gt;Node3</title>
<g id="a_edge10_Node000029_Node000003"><a xlink:title=" ">
<path fill="none" stroke="#63b8ff" d="M188.43,-235.54C135.17,-230.12 55.33,-218.27 36.64,-195 21.16,-175.72 48.68,-156.61 72.99,-144.48"/>
<polygon fill="#63b8ff" stroke="#63b8ff" points="74.51,-147.62 82.05,-140.18 71.52,-141.3 74.51,-147.62"/>
</a>
</g>
</g>
<!-- Node30 -->
<g id="Node000030" class="node">
<title>Node30</title>
<g id="a_Node000030"><a xlink:href="cfg_2dispatcher_8hpp.html" target="_top" xlink:title=" ">
<polygon fill="#fff0f0" stroke="red" points="161.14,-195 46.14,-195 46.14,-176 161.14,-176 161.14,-195"/>
<text text-anchor="middle" x="103.64" y="-183" font-family="Helvetica,sans-Serif" font-size="10.00">../cfg/dispatcher.hpp</text>
</a>
</g>
</g>
<!-- Node29&#45;&gt;Node30 -->
<g id="edge6_Node000029_Node000030" class="edge">
<title>Node29&#45;&gt;Node30</title>
<g id="a_edge6_Node000029_Node000030"><a xlink:title=" ">
<path fill="none" stroke="#63b8ff" d="M216.11,-230.98C194.17,-222.3 159.9,-208.75 134.96,-198.88"/>
<polygon fill="#63b8ff" stroke="#63b8ff" points="136.15,-195.59 125.56,-195.17 133.58,-202.1 136.15,-195.59"/>
</a>
</g>
</g>
<!-- Node57 -->
<g id="Node000057" class="node">
<title>Node57</title>
<g id="a_Node000057"><a xlink:href="core_2callbacks_8hpp.html" target="_top" xlink:title=" ">
<polygon fill="#fff0f0" stroke="red" points="295.64,-195 179.64,-195 179.64,-176 295.64,-176 295.64,-195"/>
<text text-anchor="middle" x="237.64" y="-183" font-family="Helvetica,sans-Serif" font-size="10.00">../core/callbacks.hpp</text>
</a>
</g>
</g>
<!-- Node29&#45;&gt;Node57 -->
<g id="edge8_Node000029_Node000057" class="edge">
<title>Node29&#45;&gt;Node57</title>
<g id="a_edge8_Node000029_Node000057"><a xlink:title=" ">
<path fill="none" stroke="#63b8ff" d="M237.64,-230.75C237.64,-223.8 237.64,-213.85 237.64,-205.13"/>
<polygon fill="#63b8ff" stroke="#63b8ff" points="241.14,-205.09 237.64,-195.09 234.14,-205.09 241.14,-205.09"/>
</a>
</g>
</g>
<!-- Node59 -->
<g id="Node000059" class="node">
<title>Node59</title>
<g id="a_Node000059"><a xlink:href="core_8hpp.html" target="_top" xlink:title=" ">
<polygon fill="#fff0f0" stroke="red" points="373.64,-140 281.64,-140 281.64,-121 373.64,-121 373.64,-140"/>
<text text-anchor="middle" x="327.64" y="-128" font-family="Helvetica,sans-Serif" font-size="10.00">../core/core.hpp</text>
</a>
</g>
</g>
<!-- Node29&#45;&gt;Node59 -->
<g id="edge9_Node000029_Node000059" class="edge">
<title>Node29&#45;&gt;Node59</title>
<g id="a_edge9_Node000029_Node000059"><a xlink:title=" ">
<path fill="none" stroke="#63b8ff" d="M256.84,-230.95C271.75,-223.42 291.96,-211.14 304.64,-195 314.94,-181.89 320.9,-163.75 324.16,-150.22"/>
<polygon fill="#63b8ff" stroke="#63b8ff" points="327.64,-150.65 326.29,-140.14 320.79,-149.2 327.64,-150.65"/>
</a>
</g>
</g>
<!-- Node30&#45;&gt;Node3 -->
<g id="edge7_Node000030_Node000003" class="edge">
<title>Node30&#45;&gt;Node3</title>
<g id="a_edge7_Node000030_Node000003"><a xlink:title=" ">
<path fill="none" stroke="#63b8ff" d="M103.64,-175.75C103.64,-168.8 103.64,-158.85 103.64,-150.13"/>
<polygon fill="#63b8ff" stroke="#63b8ff" points="107.14,-150.09 103.64,-140.09 100.14,-150.09 107.14,-150.09"/>
</a>
</g>
</g>
<!-- Node62 -->
<g id="Node000062" class="node">
<title>Node62</title>
<g id="a_Node000062"><a xlink:title=" ">
<polygon fill="#e0e0e0" stroke="#999999" points="575.64,-195 511.64,-195 511.64,-176 575.64,-176 575.64,-195"/>
<text text-anchor="middle" x="543.64" y="-183" font-family="Helvetica,sans-Serif" font-size="10.00">algorithm</text>
</a>
</g>
</g>
<!-- Node61&#45;&gt;Node62 -->
<g id="edge12_Node000061_Node000062" class="edge">
<title>Node61&#45;&gt;Node62</title>
<g id="a_edge12_Node000061_Node000062"><a xlink:title=" ">
<path fill="none" stroke="#63b8ff" d="M470.62,-230.98C484.11,-222.77 504.78,-210.18 520.68,-200.49"/>
<polygon fill="#63b8ff" stroke="#63b8ff" points="522.69,-203.36 529.41,-195.17 519.05,-197.38 522.69,-203.36"/>
</a>
</g>
</g>
<!-- Node63 -->
<g id="Node000063" class="node">
<title>Node63</title>
<g id="a_Node000063"><a xlink:title=" ">
<polygon fill="#e0e0e0" stroke="#999999" points="401.64,-195 351.64,-195 351.64,-176 401.64,-176 401.64,-195"/>
<text text-anchor="middle" x="376.64" y="-183" font-family="Helvetica,sans-Serif" font-size="10.00">cstring</text>
</a>
</g>
</g>
<!-- Node61&#45;&gt;Node63 -->
<g id="edge13_Node000061_Node000063" class="edge">
<title>Node61&#45;&gt;Node63</title>
<g id="a_edge13_Node000061_Node000063"><a xlink:title=" ">
<path fill="none" stroke="#63b8ff" d="M443.79,-230.98C431.5,-222.84 412.74,-210.41 398.17,-200.76"/>
<polygon fill="#63b8ff" stroke="#63b8ff" points="400,-197.78 389.73,-195.17 396.13,-203.61 400,-197.78"/>
</a>
</g>
</g>
<!-- Node20 -->
<g id="Node000020" class="node">
<title>Node20</title>
<g id="a_Node000020"><a xlink:title=" ">
<polygon fill="#e0e0e0" stroke="#999999" points="493.14,-195 420.14,-195 420.14,-176 493.14,-176 493.14,-195"/>
<text text-anchor="middle" x="456.64" y="-183" font-family="Helvetica,sans-Serif" font-size="10.00">string_view</text>
</a>
</g>
</g>
<!-- Node61&#45;&gt;Node20 -->
<g id="edge14_Node000061_Node000020" class="edge">
<title>Node61&#45;&gt;Node20</title>
<g id="a_edge14_Node000061_Node000020"><a xlink:title=" ">
<path fill="none" stroke="#63b8ff" d="M456.64,-230.75C456.64,-223.8 456.64,-213.85 456.64,-205.13"/>
<polygon fill="#63b8ff" stroke="#63b8ff" points="460.14,-205.09 456.64,-195.09 453.14,-205.09 460.14,-205.09"/>
</a>
</g>
</g>
<!-- Node64&#45;&gt;Node3 -->
<g id="edge17_Node000064_Node000003" class="edge">
<title>Node64&#45;&gt;Node3</title>
<g id="a_edge17_Node000064_Node000003"><a xlink:title=" ">
<path fill="none" stroke="#63b8ff" d="M593.45,-177.09C590.47,-176.71 587.52,-176.34 584.64,-176 434.68,-158.27 257.72,-143.47 165.92,-136.24"/>
<polygon fill="#63b8ff" stroke="#63b8ff" points="165.94,-132.73 155.69,-135.44 165.39,-139.71 165.94,-132.73"/>
</a>
</g>
</g>
<!-- Node64&#45;&gt;Node59 -->
<g id="edge16_Node000064_Node000059" class="edge">
<title>Node64&#45;&gt;Node59</title>
<g id="a_edge16_Node000064_Node000059"><a xlink:title=" ">
<path fill="none" stroke="#63b8ff" d="M593.57,-176.1C536.49,-166.53 443.39,-150.91 383.86,-140.93"/>
<polygon fill="#63b8ff" stroke="#63b8ff" points="384.32,-137.46 373.88,-139.26 383.16,-144.36 384.32,-137.46"/>
</a>
</g>
</g>
<!-- Node65 -->
<g id="Node000065" class="node">
<title>Node65</title>
<g id="a_Node000065"><a xlink:href="utest_8hpp.html" target="_top" xlink:title=" ">
<polygon fill="#fff0f0" stroke="red" points="617.64,-140 549.64,-140 549.64,-121 617.64,-121 617.64,-140"/>
<text text-anchor="middle" x="583.64" y="-128" font-family="Helvetica,sans-Serif" font-size="10.00">./utest.hpp</text>
</a>
</g>
</g>
<!-- Node64&#45;&gt;Node65 -->
<g id="edge18_Node000064_Node000065" class="edge">
<title>Node64&#45;&gt;Node65</title>
<g id="a_edge18_Node000064_Node000065"><a xlink:title=" ">
<path fill="none" stroke="#63b8ff" d="M634,-175.98C625.13,-168.15 611.77,-156.34 601.04,-146.86"/>
<polygon fill="#63b8ff" stroke="#63b8ff" points="603.27,-144.17 593.46,-140.17 598.64,-149.41 603.27,-144.17"/>
</a>
</g>
</g>
<!-- Node67 -->
<g id="Node000067" class="node">
<title>Node67</title>
<g id="a_Node000067"><a xlink:title=" ">
<polygon fill="#e0e0e0" stroke="#999999" points="856.14,-85 723.14,-85 723.14,-55 856.14,-55 856.14,-85"/>
<text text-anchor="start" x="731.14" y="-73" font-family="Helvetica,sans-Serif" font-size="10.00">emlabcpp/experimental</text>
<text text-anchor="middle" x="789.64" y="-62" font-family="Helvetica,sans-Serif" font-size="10.00">/testing/collect.h</text>
</a>
</g>
</g>
<!-- Node64&#45;&gt;Node67 -->
<g id="edge23_Node000064_Node000067" class="edge">
<title>Node64&#45;&gt;Node67</title>
<g id="a_edge23_Node000064_Node000067"><a xlink:title=" ">
<path fill="none" stroke="#63b8ff" d="M654.62,-175.97C677.51,-158.17 730.9,-116.67 763.26,-91.51"/>
<polygon fill="#63b8ff" stroke="#63b8ff" points="765.65,-94.08 771.4,-85.18 761.36,-88.56 765.65,-94.08"/>
</a>
</g>
</g>
<!-- Node70 -->
<g id="Node000070" class="node">
<title>Node70</title>
<g id="a_Node000070"><a xlink:title=" ">
<polygon fill="#e0e0e0" stroke="#999999" points="515.14,-85 382.14,-85 382.14,-55 515.14,-55 515.14,-85"/>
<text text-anchor="start" x="390.14" y="-73" font-family="Helvetica,sans-Serif" font-size="10.00">emlabcpp/experimental</text>
<text text-anchor="middle" x="448.64" y="-62" font-family="Helvetica,sans-Serif" font-size="10.00">/testing/parameters.h</text>
</a>
</g>
</g>
<!-- Node64&#45;&gt;Node70 -->
<g id="edge24_Node000064_Node000070" class="edge">
<title>Node64&#45;&gt;Node70</title>
<g id="a_edge24_Node000064_Node000070"><a xlink:title=" ">
<path fill="none" stroke="#63b8ff" d="M593.31,-176.53C564.53,-170.15 528.86,-159.01 501.64,-140 484.62,-128.11 470.6,-109.09 461.26,-94.03"/>
<polygon fill="#63b8ff" stroke="#63b8ff" points="464.17,-92.08 456.07,-85.26 458.15,-95.65 464.17,-92.08"/>
</a>
</g>
</g>
<!-- Node71 -->
<g id="Node000071" class="node">
<title>Node71</title>
<g id="a_Node000071"><a xlink:title=" ">
<polygon fill="#e0e0e0" stroke="#999999" points="705.14,-85 572.14,-85 572.14,-55 705.14,-55 705.14,-85"/>
<text text-anchor="start" x="580.14" y="-73" font-family="Helvetica,sans-Serif" font-size="10.00">emlabcpp/experimental</text>
<text text-anchor="middle" x="638.64" y="-62" font-family="Helvetica,sans-Serif" font-size="10.00">/testing/reactor.h</text>
</a>
</g>
</g>
<!-- Node64&#45;&gt;Node71 -->
<g id="edge25_Node000064_Node000071" class="edge">
<title>Node64&#45;&gt;Node71</title>
<g id="a_edge25_Node000064_Node000071"><a xlink:title=" ">
<path fill="none" stroke="#63b8ff" d="M643.27,-175.97C642.52,-159.08 640.84,-120.85 639.72,-95.48"/>
<polygon fill="#63b8ff" stroke="#63b8ff" points="643.2,-95.02 639.27,-85.18 636.21,-95.33 643.2,-95.02"/>
</a>
</g>
</g>
<!-- Node65&#45;&gt;Node5 -->
<g id="edge19_Node000065_Node000005" class="edge">
<title>Node65&#45;&gt;Node5</title>
<g id="a_edge19_Node000065_Node000005"><a xlink:title=" ">
<path fill="none" stroke="#63b8ff" d="M579.23,-120.81C574.87,-111.96 568.19,-97.77 563.64,-85 557.05,-66.5 551.45,-44.76 547.87,-29.55"/>
<polygon fill="#63b8ff" stroke="#63b8ff" points="551.18,-28.32 545.54,-19.36 544.35,-29.88 551.18,-28.32"/>
</a>
</g>
</g>
<!-- Node65&#45;&gt;Node67 -->
<g id="edge20_Node000065_Node000067" class="edge">
<title>Node65&#45;&gt;Node67</title>
<g id="a_edge20_Node000065_Node000067"><a xlink:title=" ">
<path fill="none" stroke="#63b8ff" d="M613.6,-120.99C644.02,-112.35 691.96,-98.74 730.14,-87.9"/>
<polygon fill="#63b8ff" stroke="#63b8ff" points="731.45,-91.16 740.12,-85.06 729.54,-84.43 731.45,-91.16"/>
</a>
</g>
</g>
<!-- Node65&#45;&gt;Node70 -->
<g id="edge21_Node000065_Node000070" class="edge">
<title>Node65&#45;&gt;Node70</title>
<g id="a_edge21_Node000065_Node000070"><a xlink:title=" ">
<path fill="none" stroke="#63b8ff" d="M564.01,-120.99C544.84,-112.68 515.05,-99.78 490.54,-89.16"/>
<polygon fill="#63b8ff" stroke="#63b8ff" points="491.67,-85.83 481.1,-85.06 488.88,-92.25 491.67,-85.83"/>
</a>
</g>
</g>
<!-- Node65&#45;&gt;Node71 -->
<g id="edge22_Node000065_Node000071" class="edge">
<title>Node65&#45;&gt;Node71</title>
<g id="a_edge22_Node000065_Node000071"><a xlink:title=" ">
<path fill="none" stroke="#63b8ff" d="M591.76,-120.87C598.74,-113.44 609.11,-102.42 618.32,-92.62"/>
<polygon fill="#63b8ff" stroke="#63b8ff" points="621.07,-94.8 625.37,-85.11 615.97,-90 621.07,-94.8"/>
</a>
</g>
</g>
<!-- Node72&#45;&gt;Node4 -->
<g id="edge28_Node000072_Node000004" class="edge">
<title>Node72&#45;&gt;Node4</title>
<g id="a_edge28_Node000072_Node000004"><a xlink:title=" ">
<path fill="none" stroke="#63b8ff" d="M712.91,-175.96C646.37,-166.07 542.19,-149.87 503.64,-140 443.22,-124.52 374.99,-98.67 336.77,-83.38"/>
<polygon fill="#63b8ff" stroke="#63b8ff" points="337.85,-80.05 327.27,-79.56 335.24,-86.54 337.85,-80.05"/>
</a>
</g>
</g>
<!-- Node72&#45;&gt;Node5 -->
<g id="edge27_Node000072_Node000005" class="edge">
<title>Node72&#45;&gt;Node5</title>
<g id="a_edge27_Node000072_Node000005"><a xlink:title=" ">
<path fill="none" stroke="#63b8ff" d="M786.31,-175.93C821.08,-154.59 902.87,-97.73 865.64,-55 830.3,-14.43 668.95,-9.61 588.92,-9.79"/>
<polygon fill="#63b8ff" stroke="#63b8ff" points="588.64,-6.29 578.65,-9.84 588.67,-13.29 588.64,-6.29"/>
</a>
</g>
</g>
<!-- Node72&#45;&gt;Node65 -->
<g id="edge30_Node000072_Node000065" class="edge">
<title>Node72&#45;&gt;Node65</title>
<g id="a_edge30_Node000072_Node000065"><a xlink:title=" ">
<path fill="none" stroke="#63b8ff" d="M741.44,-175.98C709.6,-167.01 659.28,-152.82 624.05,-142.89"/>
<polygon fill="#63b8ff" stroke="#63b8ff" points="624.66,-139.43 614.09,-140.08 622.76,-146.16 624.66,-139.43"/>
</a>
</g>
</g>
<!-- Node72&#45;&gt;Node67 -->
<g id="edge31_Node000072_Node000067" class="edge">
<title>Node72&#45;&gt;Node67</title>
<g id="a_edge31_Node000072_Node000067"><a xlink:title=" ">
<path fill="none" stroke="#63b8ff" d="M773,-175.97C775.69,-159.01 781.79,-120.5 785.81,-95.14"/>
<polygon fill="#63b8ff" stroke="#63b8ff" points="789.28,-95.61 787.39,-85.18 782.37,-94.51 789.28,-95.61"/>
</a>
</g>
</g>
<!-- Node72&#45;&gt;Node70 -->
<g id="edge32_Node000072_Node000070" class="edge">
<title>Node72&#45;&gt;Node70</title>
<g id="a_edge32_Node000072_Node000070"><a xlink:title=" ">
<path fill="none" stroke="#63b8ff" d="M711.97,-176.12C654.06,-167.44 570.66,-153.29 540.64,-140 514.05,-128.22 487.93,-107.5 470.35,-91.83"/>
<polygon fill="#63b8ff" stroke="#63b8ff" points="472.66,-89.2 462.91,-85.04 467.94,-94.37 472.66,-89.2"/>
</a>
</g>
</g>
<!-- Node72&#45;&gt;Node71 -->
<g id="edge33_Node000072_Node000071" class="edge">
<title>Node72&#45;&gt;Node71</title>
<g id="a_edge33_Node000072_Node000071"><a xlink:title=" ">
<path fill="none" stroke="#63b8ff" d="M761.65,-175.97C740.88,-158.25 692.57,-117.02 663.05,-91.83"/>
<polygon fill="#63b8ff" stroke="#63b8ff" points="665.14,-89.01 655.26,-85.18 660.6,-94.33 665.14,-89.01"/>
</a>
</g>
</g>
<!-- Node73 -->
<g id="Node000073" class="node">
<title>Node73</title>
<g id="a_Node000073"><a xlink:href="ftester_2base_8hpp.html" target="_top" xlink:title=" ">
<polygon fill="#fff0f0" stroke="red" points="1016.64,-140 912.64,-140 912.64,-121 1016.64,-121 1016.64,-140"/>
<text text-anchor="middle" x="964.64" y="-128" font-family="Helvetica,sans-Serif" font-size="10.00">../ftester/base.hpp</text>
</a>
</g>
</g>
<!-- Node72&#45;&gt;Node73 -->
<g id="edge29_Node000072_Node000073" class="edge">
<title>Node72&#45;&gt;Node73</title>
<g id="a_edge29_Node000072_Node000073"><a xlink:title=" ">
<path fill="none" stroke="#63b8ff" d="M802.65,-175.98C835.48,-166.97 887.44,-152.7 923.63,-142.76"/>
<polygon fill="#63b8ff" stroke="#63b8ff" points="924.68,-146.11 933.39,-140.08 922.82,-139.36 924.68,-146.11"/>
</a>
</g>
</g>
</g>
</svg>
