<?xml version="1.0" encoding="UTF-8" standalone="no"?>
<!DOCTYPE svg PUBLIC "-//W3C//DTD SVG 1.1//EN"
 "http://www.w3.org/Graphics/SVG/1.1/DTD/svg11.dtd">
<!-- Generated by graphviz version 2.43.0 (0)
 -->
<!-- Title: src/ftester/main.cpp Pages: 1 -->
<svg width="1690pt" height="151pt"
 viewBox="0.00 0.00 1689.50 151.00" xmlns="http://www.w3.org/2000/svg" xmlns:xlink="http://www.w3.org/1999/xlink">
<g id="graph0" class="graph" transform="scale(1 1) rotate(0) translate(4 147)">
<title>src/ftester/main.cpp</title>
<polygon fill="white" stroke="transparent" points="-4,4 -4,-147 1685.5,-147 1685.5,4 -4,4"/>
<!-- Node1 -->
<g id="node1" class="node">
<title>Node1</title>
<g id="a_node1"><a xlink:title=" ">
<polygon fill="#bfbfbf" stroke="black" points="859.5,-123.5 859.5,-142.5 972.5,-142.5 972.5,-123.5 859.5,-123.5"/>
<text text-anchor="middle" x="916" y="-130.5" font-family="Helvetica,sans-Serif" font-size="10.00">src/ftester/main.cpp</text>
</a>
</g>
</g>
<!-- Node2 -->
<g id="node2" class="node">
<title>Node2</title>
<g id="a_node2"><a xlink:href="ftester_2config_8hpp.html" target="_top" xlink:title=" ">
<polygon fill="white" stroke="black" points="48.5,-67.5 48.5,-86.5 149.5,-86.5 149.5,-67.5 48.5,-67.5"/>
<text text-anchor="middle" x="99" y="-74.5" font-family="Helvetica,sans-Serif" font-size="10.00">ftester/config.hpp</text>
</a>
</g>
</g>
<!-- Node1&#45;&gt;Node2 -->
<g id="edge1" class="edge">
<title>Node1&#45;&gt;Node2</title>
<path fill="none" stroke="midnightblue" d="M859.28,-130.42C734.6,-126.55 427.15,-114.92 160.09,-87.13"/>
<polygon fill="midnightblue" stroke="midnightblue" points="160.12,-83.62 149.81,-86.05 159.39,-90.58 160.12,-83.62"/>
</g>
<!-- Node5 -->
<g id="node5" class="node">
<title>Node5</title>
<g id="a_node5"><a xlink:href="flash_8hpp.html" target="_top" xlink:title=" ">
<polygon fill="white" stroke="black" points="167.5,-67.5 167.5,-86.5 262.5,-86.5 262.5,-67.5 167.5,-67.5"/>
<text text-anchor="middle" x="215" y="-74.5" font-family="Helvetica,sans-Serif" font-size="10.00">ftester/flash.hpp</text>
</a>
</g>
</g>
<!-- Node1&#45;&gt;Node5 -->
<g id="edge4" class="edge">
<title>Node1&#45;&gt;Node5</title>
<path fill="none" stroke="midnightblue" d="M859.23,-127.63C728.16,-117.53 405.6,-92.68 273.18,-82.48"/>
<polygon fill="midnightblue" stroke="midnightblue" points="273.08,-78.96 262.85,-81.69 272.55,-85.94 273.08,-78.96"/>
</g>
<!-- Node7 -->
<g id="node7" class="node">
<title>Node7</title>
<g id="a_node7"><a xlink:href="system_8hpp.html" target="_top" xlink:title=" ">
<polygon fill="white" stroke="black" points="804,-67.5 804,-86.5 912,-86.5 912,-67.5 804,-67.5"/>
<text text-anchor="middle" x="858" y="-74.5" font-family="Helvetica,sans-Serif" font-size="10.00">ftester/system.hpp</text>
</a>
</g>
</g>
<!-- Node1&#45;&gt;Node7 -->
<g id="edge7" class="edge">
<title>Node1&#45;&gt;Node7</title>
<path fill="none" stroke="midnightblue" d="M906.68,-123.32C898.11,-115.34 885.19,-103.31 874.81,-93.65"/>
<polygon fill="midnightblue" stroke="midnightblue" points="877.19,-91.09 867.49,-86.83 872.42,-96.21 877.19,-91.09"/>
</g>
<!-- Node22 -->
<g id="node18" class="node">
<title>Node22</title>
<g id="a_node18"><a xlink:title=" ">
<polygon fill="white" stroke="#bfbfbf" points="930,-67.5 930,-86.5 1020,-86.5 1020,-67.5 930,-67.5"/>
<text text-anchor="middle" x="975" y="-74.5" font-family="Helvetica,sans-Serif" font-size="10.00">joque/exec.hpp</text>
</a>
</g>
</g>
<!-- Node1&#45;&gt;Node22 -->
<g id="edge18" class="edge">
<title>Node1&#45;&gt;Node22</title>
<path fill="none" stroke="midnightblue" d="M925.48,-123.32C934.2,-115.34 947.34,-103.31 957.9,-93.65"/>
<polygon fill="midnightblue" stroke="midnightblue" points="960.33,-96.17 965.35,-86.83 955.61,-91 960.33,-96.17"/>
</g>
<!-- Node23 -->
<g id="node19" class="node">
<title>Node23</title>
<g id="a_node19"><a xlink:title=" ">
<polygon fill="white" stroke="#bfbfbf" points="1038.5,-67.5 1038.5,-86.5 1093.5,-86.5 1093.5,-67.5 1038.5,-67.5"/>
<text text-anchor="middle" x="1066" y="-74.5" font-family="Helvetica,sans-Serif" font-size="10.00">fstream</text>
</a>
</g>
</g>
<!-- Node1&#45;&gt;Node23 -->
<g id="edge19" class="edge">
<title>Node1&#45;&gt;Node23</title>
<path fill="none" stroke="midnightblue" d="M939.77,-123.44C964.89,-114.4 1004.71,-100.06 1032.9,-89.92"/>
<polygon fill="midnightblue" stroke="midnightblue" points="1034.12,-93.2 1042.34,-86.52 1031.75,-86.61 1034.12,-93.2"/>
</g>
<!-- Node24 -->
<g id="node20" class="node">
<title>Node24</title>
<g id="a_node20"><a xlink:title=" ">
<polygon fill="white" stroke="#bfbfbf" points="1112,-67.5 1112,-86.5 1222,-86.5 1222,-67.5 1112,-67.5"/>
<text text-anchor="middle" x="1167" y="-74.5" font-family="Helvetica,sans-Serif" font-size="10.00">nlohmann/json.hpp</text>
</a>
</g>
</g>
<!-- Node1&#45;&gt;Node24 -->
<g id="edge20" class="edge">
<title>Node1&#45;&gt;Node24</title>
<path fill="none" stroke="midnightblue" d="M955.77,-123.44C999.56,-114.02 1070.01,-98.87 1117.38,-88.68"/>
<polygon fill="midnightblue" stroke="midnightblue" points="1118.37,-92.04 1127.41,-86.52 1116.9,-85.2 1118.37,-92.04"/>
</g>
<!-- Node3 -->
<g id="node3" class="node">
<title>Node3</title>
<g id="a_node3"><a xlink:title=" ">
<polygon fill="white" stroke="#bfbfbf" points="74,-6 74,-25 142,-25 142,-6 74,-6"/>
<text text-anchor="middle" x="108" y="-13" font-family="Helvetica,sans-Serif" font-size="10.00">filesystem</text>
</a>
</g>
</g>
<!-- Node2&#45;&gt;Node3 -->
<g id="edge2" class="edge">
<title>Node2&#45;&gt;Node3</title>
<path fill="none" stroke="midnightblue" d="M100.29,-67.48C101.56,-59.08 103.54,-45.98 105.18,-35.16"/>
<polygon fill="midnightblue" stroke="midnightblue" points="108.68,-35.42 106.71,-25.01 101.76,-34.37 108.68,-35.42"/>
</g>
<!-- Node4 -->
<g id="node4" class="node">
<title>Node4</title>
<g id="a_node4"><a xlink:title=" ">
<polygon fill="white" stroke="#bfbfbf" points="0,-6 0,-25 56,-25 56,-6 0,-6"/>
<text text-anchor="middle" x="28" y="-13" font-family="Helvetica,sans-Serif" font-size="10.00">optional</text>
</a>
</g>
</g>
<!-- Node2&#45;&gt;Node4 -->
<g id="edge3" class="edge">
<title>Node2&#45;&gt;Node4</title>
<path fill="none" stroke="midnightblue" d="M88.83,-67.48C77.65,-58.11 59.48,-42.88 45.91,-31.51"/>
<polygon fill="midnightblue" stroke="midnightblue" points="48.07,-28.75 38.15,-25.01 43.57,-34.11 48.07,-28.75"/>
</g>
<!-- Node5&#45;&gt;Node3 -->
<g id="edge5" class="edge">
<title>Node5&#45;&gt;Node3</title>
<path fill="none" stroke="midnightblue" d="M199.67,-67.48C182.03,-57.67 152.84,-41.43 132.14,-29.92"/>
<polygon fill="midnightblue" stroke="midnightblue" points="133.74,-26.81 123.3,-25.01 130.34,-32.93 133.74,-26.81"/>
</g>
<!-- Node6 -->
<g id="node6" class="node">
<title>Node6</title>
<g id="a_node6"><a xlink:title=" ">
<polygon fill="white" stroke="#bfbfbf" points="160.5,-6 160.5,-25 249.5,-25 249.5,-6 160.5,-6"/>
<text text-anchor="middle" x="205" y="-13" font-family="Helvetica,sans-Serif" font-size="10.00">joque/task.hpp</text>
</a>
</g>
</g>
<!-- Node5&#45;&gt;Node6 -->
<g id="edge6" class="edge">
<title>Node5&#45;&gt;Node6</title>
<path fill="none" stroke="midnightblue" d="M213.57,-67.48C212.16,-59.08 209.95,-45.98 208.14,-35.16"/>
<polygon fill="midnightblue" stroke="midnightblue" points="211.54,-34.29 206.43,-25.01 204.64,-35.45 211.54,-34.29"/>
</g>
<!-- Node8 -->
<g id="node8" class="node">
<title>Node8</title>
<g id="a_node8"><a xlink:href="handle__eptr_8hpp.html" target="_top" xlink:title=" ">
<polygon fill="white" stroke="red" points="267.5,-6 267.5,-25 396.5,-25 396.5,-6 267.5,-6"/>
<text text-anchor="middle" x="332" y="-13" font-family="Helvetica,sans-Serif" font-size="10.00">ftester/handle_eptr.hpp</text>
</a>
</g>
</g>
<!-- Node7&#45;&gt;Node8 -->
<g id="edge8" class="edge">
<title>Node7&#45;&gt;Node8</title>
<path fill="none" stroke="midnightblue" d="M803.88,-72.27C718.86,-66.04 548.97,-52.08 406,-31 398.17,-29.85 389.91,-28.43 381.86,-26.93"/>
<polygon fill="midnightblue" stroke="midnightblue" points="382.3,-23.46 371.82,-25.02 380.99,-30.33 382.3,-23.46"/>
</g>
<!-- Node10 -->
<g id="node9" class="node">
<title>Node10</title>
<g id="a_node9"><a xlink:href="async__cobs_8hpp.html" target="_top" xlink:title=" ">
<polygon fill="white" stroke="red" points="415,-6 415,-25 547,-25 547,-6 415,-6"/>
<text text-anchor="middle" x="481" y="-13" font-family="Helvetica,sans-Serif" font-size="10.00">scmdio/async_cobs.hpp</text>
</a>
</g>
</g>
<!-- Node7&#45;&gt;Node10 -->
<g id="edge9" class="edge">
<title>Node7&#45;&gt;Node10</title>
<path fill="none" stroke="midnightblue" d="M803.88,-68.65C743.36,-60.27 642.47,-45.79 556,-31 548.64,-29.74 540.88,-28.33 533.27,-26.9"/>
<polygon fill="midnightblue" stroke="midnightblue" points="533.86,-23.45 523.38,-25.02 532.55,-30.33 533.86,-23.45"/>
</g>
<!-- Node14 -->
<g id="node10" class="node">
<title>Node14</title>
<g id="a_node10"><a xlink:title=" ">
<polygon fill="white" stroke="#bfbfbf" points="565.5,-0.5 565.5,-30.5 698.5,-30.5 698.5,-0.5 565.5,-0.5"/>
<text text-anchor="start" x="573.5" y="-18.5" font-family="Helvetica,sans-Serif" font-size="10.00">emlabcpp/experimental</text>
<text text-anchor="middle" x="632" y="-7.5" font-family="Helvetica,sans-Serif" font-size="10.00">/logging/eabi_logger.h</text>
</a>
</g>
</g>
<!-- Node7&#45;&gt;Node14 -->
<g id="edge10" class="edge">
<title>Node7&#45;&gt;Node14</title>
<path fill="none" stroke="midnightblue" d="M825.62,-67.48C791.65,-58.53 737.4,-44.25 694.95,-33.07"/>
<polygon fill="midnightblue" stroke="midnightblue" points="695.83,-29.68 685.26,-30.52 694.04,-36.45 695.83,-29.68"/>
</g>
<!-- Node15 -->
<g id="node11" class="node">
<title>Node15</title>
<g id="a_node11"><a xlink:title=" ">
<polygon fill="white" stroke="#bfbfbf" points="716.5,-0.5 716.5,-30.5 849.5,-30.5 849.5,-0.5 716.5,-0.5"/>
<text text-anchor="start" x="724.5" y="-18.5" font-family="Helvetica,sans-Serif" font-size="10.00">emlabcpp/experimental</text>
<text text-anchor="middle" x="783" y="-7.5" font-family="Helvetica,sans-Serif" font-size="10.00">/testing/collect.h</text>
</a>
</g>
</g>
<!-- Node7&#45;&gt;Node15 -->
<g id="edge11" class="edge">
<title>Node7&#45;&gt;Node15</title>
<path fill="none" stroke="midnightblue" d="M847.25,-67.48C837.19,-59.49 821.77,-47.25 808.55,-36.77"/>
<polygon fill="midnightblue" stroke="midnightblue" points="810.69,-34 800.68,-30.52 806.33,-39.48 810.69,-34"/>
</g>
<!-- Node16 -->
<g id="node12" class="node">
<title>Node16</title>
<g id="a_node12"><a xlink:title=" ">
<polygon fill="white" stroke="#bfbfbf" points="867.5,-0.5 867.5,-30.5 1000.5,-30.5 1000.5,-0.5 867.5,-0.5"/>
<text text-anchor="start" x="875.5" y="-18.5" font-family="Helvetica,sans-Serif" font-size="10.00">emlabcpp/experimental</text>
<text text-anchor="middle" x="934" y="-7.5" font-family="Helvetica,sans-Serif" font-size="10.00">/testing/controller.h</text>
</a>
</g>
</g>
<!-- Node7&#45;&gt;Node16 -->
<g id="edge12" class="edge">
<title>Node7&#45;&gt;Node16</title>
<path fill="none" stroke="midnightblue" d="M868.89,-67.48C879.09,-59.49 894.72,-47.25 908.11,-36.77"/>
<polygon fill="midnightblue" stroke="midnightblue" points="910.37,-39.44 916.09,-30.52 906.06,-33.93 910.37,-39.44"/>
</g>
<!-- Node17 -->
<g id="node13" class="node">
<title>Node17</title>
<g id="a_node13"><a xlink:title=" ">
<polygon fill="white" stroke="#bfbfbf" points="1018.5,-0.5 1018.5,-30.5 1151.5,-30.5 1151.5,-0.5 1018.5,-0.5"/>
<text text-anchor="start" x="1026.5" y="-18.5" font-family="Helvetica,sans-Serif" font-size="10.00">emlabcpp/experimental</text>
<text text-anchor="middle" x="1085" y="-7.5" font-family="Helvetica,sans-Serif" font-size="10.00">/testing/gtest.h</text>
</a>
</g>
</g>
<!-- Node7&#45;&gt;Node17 -->
<g id="edge13" class="edge">
<title>Node7&#45;&gt;Node17</title>
<path fill="none" stroke="midnightblue" d="M890.52,-67.48C924.64,-58.53 979.14,-44.25 1021.77,-33.07"/>
<polygon fill="midnightblue" stroke="midnightblue" points="1022.71,-36.44 1031.5,-30.52 1020.94,-29.67 1022.71,-36.44"/>
</g>
<!-- Node18 -->
<g id="node14" class="node">
<title>Node18</title>
<g id="a_node14"><a xlink:title=" ">
<polygon fill="white" stroke="#bfbfbf" points="1169.5,-0.5 1169.5,-30.5 1302.5,-30.5 1302.5,-0.5 1169.5,-0.5"/>
<text text-anchor="start" x="1177.5" y="-18.5" font-family="Helvetica,sans-Serif" font-size="10.00">emlabcpp/experimental</text>
<text text-anchor="middle" x="1236" y="-7.5" font-family="Helvetica,sans-Serif" font-size="10.00">/testing/json.h</text>
</a>
</g>
</g>
<!-- Node7&#45;&gt;Node18 -->
<g id="edge14" class="edge">
<title>Node7&#45;&gt;Node18</title>
<path fill="none" stroke="midnightblue" d="M912.25,-68.23C981.9,-58.21 1099.99,-41.06 1159.34,-31.23"/>
<polygon fill="midnightblue" stroke="midnightblue" points="1160.09,-34.65 1169.37,-29.54 1158.93,-27.75 1160.09,-34.65"/>
</g>
<!-- Node19 -->
<g id="node15" class="node">
<title>Node19</title>
<g id="a_node15"><a xlink:title=" ">
<polygon fill="white" stroke="#bfbfbf" points="1320.5,-0.5 1320.5,-30.5 1453.5,-30.5 1453.5,-0.5 1320.5,-0.5"/>
<text text-anchor="start" x="1328.5" y="-18.5" font-family="Helvetica,sans-Serif" font-size="10.00">emlabcpp/experimental</text>
<text text-anchor="middle" x="1387" y="-7.5" font-family="Helvetica,sans-Serif" font-size="10.00">/testing/parameters.h</text>
</a>
</g>
</g>
<!-- Node7&#45;&gt;Node19 -->
<g id="edge15" class="edge">
<title>Node7&#45;&gt;Node19</title>
<path fill="none" stroke="midnightblue" d="M912.27,-68.07C915.22,-67.69 918.15,-67.33 921,-67 1091.11,-47.03 1137.52,-55.27 1310.46,-31.14"/>
<polygon fill="midnightblue" stroke="midnightblue" points="1310.99,-34.59 1320.4,-29.73 1310.01,-27.66 1310.99,-34.59"/>
</g>
<!-- Node20 -->
<g id="node16" class="node">
<title>Node20</title>
<g id="a_node16"><a xlink:title=" ">
<polygon fill="white" stroke="#bfbfbf" points="1472,-0.5 1472,-30.5 1618,-30.5 1618,-0.5 1472,-0.5"/>
<text text-anchor="start" x="1480" y="-18.5" font-family="Helvetica,sans-Serif" font-size="10.00">emlabcpp/pmr/new_delete</text>
<text text-anchor="middle" x="1545" y="-7.5" font-family="Helvetica,sans-Serif" font-size="10.00">_resource.h</text>
</a>
</g>
</g>
<!-- Node7&#45;&gt;Node20 -->
<g id="edge16" class="edge">
<title>Node7&#45;&gt;Node20</title>
<path fill="none" stroke="midnightblue" d="M912.26,-67.98C915.22,-67.63 918.14,-67.3 921,-67 1157.83,-42.25 1221.6,-59.57 1461.66,-31.07"/>
<polygon fill="midnightblue" stroke="midnightblue" points="1462.23,-34.53 1471.74,-29.86 1461.4,-27.58 1462.23,-34.53"/>
</g>
<!-- Node21 -->
<g id="node17" class="node">
<title>Node21</title>
<g id="a_node17"><a xlink:title=" ">
<polygon fill="white" stroke="#bfbfbf" points="1636.5,-6 1636.5,-25 1681.5,-25 1681.5,-6 1636.5,-6"/>
<text text-anchor="middle" x="1659" y="-13" font-family="Helvetica,sans-Serif" font-size="10.00">utility</text>
</a>
</g>
</g>
<!-- Node7&#45;&gt;Node21 -->
<g id="edge17" class="edge">
<title>Node7&#45;&gt;Node21</title>
<path fill="none" stroke="midnightblue" d="M912.26,-67.93C915.21,-67.59 918.14,-67.28 921,-67 1077.36,-51.88 1474.34,-68.07 1627,-31 1629.22,-30.46 1631.47,-29.77 1633.69,-28.99"/>
<polygon fill="midnightblue" stroke="midnightblue" points="1635.23,-32.14 1643.14,-25.1 1632.56,-25.67 1635.23,-32.14"/>
</g>
</g>
</svg>
