<?xml version="1.0" encoding="UTF-8" standalone="no"?>
<!DOCTYPE svg PUBLIC "-//W3C//DTD SVG 1.1//EN"
 "http://www.w3.org/Graphics/SVG/1.1/DTD/svg11.dtd">
<!-- Generated by graphviz version 2.43.0 (0)
 -->
<!-- Title: src/ftester/main.cpp Pages: 1 -->
<svg width="2075pt" height="203pt"
 viewBox="0.00 0.00 2075.00 203.00" xmlns="http://www.w3.org/2000/svg" xmlns:xlink="http://www.w3.org/1999/xlink">
<g id="graph0" class="graph" transform="scale(1 1) rotate(0) translate(4 199)">
<title>src/ftester/main.cpp</title>
<!-- Node1 -->
<g id="Node000001" class="node">
<title>Node1</title>
<g id="a_Node000001"><a xlink:title=" ">
<polygon fill="#999999" stroke="#666666" points="1382,-195 1269,-195 1269,-176 1382,-176 1382,-195"/>
<text text-anchor="middle" x="1325.5" y="-183" font-family="Helvetica,sans-Serif" font-size="10.00">src/ftester/main.cpp</text>
</a>
</g>
</g>
<!-- Node2 -->
<g id="Node000002" class="node">
<title>Node2</title>
<g id="a_Node000002"><a xlink:href="base_8hpp.html" target="_top" xlink:title=" ">
<polygon fill="white" stroke="#666666" points="663.5,-140 593.5,-140 593.5,-121 663.5,-121 663.5,-140"/>
<text text-anchor="middle" x="628.5" y="-128" font-family="Helvetica,sans-Serif" font-size="10.00">../base.hpp</text>
</a>
</g>
</g>
<!-- Node1&#45;&gt;Node2 -->
<g id="edge1_Node000001_Node000002" class="edge">
<title>Node1&#45;&gt;Node2</title>
<g id="a_edge1_Node000001_Node000002"><a xlink:title=" ">
<path fill="none" stroke="#63b8ff" d="M1268.76,-180.19C1133.92,-169.93 796.44,-144.27 673.88,-134.95"/>
<polygon fill="#63b8ff" stroke="#63b8ff" points="673.96,-131.45 663.72,-134.18 673.43,-138.43 673.96,-131.45"/>
</a>
</g>
</g>
<!-- Node8 -->
<g id="Node000008" class="node">
<title>Node8</title>
<g id="a_Node000008"><a xlink:href="ftest_2bench_2base_8hpp.html" target="_top" xlink:title=" ">
<polygon fill="white" stroke="#666666" points="1041,-140 914,-140 914,-121 1041,-121 1041,-140"/>
<text text-anchor="middle" x="977.5" y="-128" font-family="Helvetica,sans-Serif" font-size="10.00">../ftest/bench/base.hpp</text>
</a>
</g>
</g>
<!-- Node1&#45;&gt;Node8 -->
<g id="edge7_Node000001_Node000008" class="edge">
<title>Node1&#45;&gt;Node8</title>
<g id="a_edge7_Node000001_Node000008"><a xlink:title=" ">
<path fill="none" stroke="#63b8ff" d="M1269.59,-175.98C1208.04,-166.61 1109.16,-151.55 1043.76,-141.59"/>
<polygon fill="#63b8ff" stroke="#63b8ff" points="1043.97,-138.08 1033.56,-140.04 1042.92,-145 1043.97,-138.08"/>
</a>
</g>
</g>
<!-- Node9 -->
<g id="Node000009" class="node">
<title>Node9</title>
<g id="a_Node000009"><a xlink:href="ftester_2config_8hpp.html" target="_top" xlink:title=" ">
<polygon fill="white" stroke="#666666" points="340,-140 267,-140 267,-121 340,-121 340,-140"/>
<text text-anchor="middle" x="303.5" y="-128" font-family="Helvetica,sans-Serif" font-size="10.00">./config.hpp</text>
</a>
</g>
</g>
<!-- Node1&#45;&gt;Node9 -->
<g id="edge9_Node000001_Node000009" class="edge">
<title>Node1&#45;&gt;Node9</title>
<g id="a_edge9_Node000001_Node000009"><a xlink:title=" ">
<path fill="none" stroke="#63b8ff" d="M1268.73,-181.56C1086.42,-172.1 517.96,-142.62 350.42,-133.93"/>
<polygon fill="#63b8ff" stroke="#63b8ff" points="350.37,-130.43 340.2,-133.4 350.01,-137.42 350.37,-130.43"/>
</a>
</g>
</g>
<!-- Node16 -->
<g id="Node000016" class="node">
<title>Node16</title>
<g id="a_Node000016"><a xlink:href="flash_8hpp.html" target="_top" xlink:title=" ">
<polygon fill="white" stroke="#666666" points="113,-79.5 46,-79.5 46,-60.5 113,-60.5 113,-79.5"/>
<text text-anchor="middle" x="79.5" y="-67.5" font-family="Helvetica,sans-Serif" font-size="10.00">./flash.hpp</text>
</a>
</g>
</g>
<!-- Node1&#45;&gt;Node16 -->
<g id="edge19_Node000001_Node000016" class="edge">
<title>Node1&#45;&gt;Node16</title>
<g id="a_edge19_Node000001_Node000016"><a xlink:title=" ">
<path fill="none" stroke="#63b8ff" d="M1268.8,-184.58C1076.97,-184.46 453.36,-180.87 257.5,-140 201.1,-128.23 139.22,-100.63 105.31,-84.12"/>
<polygon fill="#63b8ff" stroke="#63b8ff" points="106.63,-80.87 96.11,-79.59 103.53,-87.15 106.63,-80.87"/>
</a>
</g>
</g>
<!-- Node18 -->
<g id="Node000018" class="node">
<title>Node18</title>
<g id="a_Node000018"><a xlink:href="system_8hpp.html" target="_top" xlink:title=" ">
<polygon fill="white" stroke="#666666" points="1242.5,-140 1162.5,-140 1162.5,-121 1242.5,-121 1242.5,-140"/>
<text text-anchor="middle" x="1202.5" y="-128" font-family="Helvetica,sans-Serif" font-size="10.00">./system.hpp</text>
</a>
</g>
</g>
<!-- Node1&#45;&gt;Node18 -->
<g id="edge23_Node000001_Node000018" class="edge">
<title>Node1&#45;&gt;Node18</title>
<g id="a_edge23_Node000001_Node000018"><a xlink:title=" ">
<path fill="none" stroke="#63b8ff" d="M1305.74,-175.98C1285.77,-167.38 1254.7,-153.99 1231.85,-144.15"/>
<polygon fill="#63b8ff" stroke="#63b8ff" points="1233.19,-140.91 1222.62,-140.17 1230.42,-147.34 1233.19,-140.91"/>
</a>
</g>
</g>
<!-- Node42 -->
<g id="Node000042" class="node">
<title>Node42</title>
<g id="a_Node000042"><a xlink:title=" ">
<polygon fill="#e0e0e0" stroke="#999999" points="1390.5,-140 1260.5,-140 1260.5,-121 1390.5,-121 1390.5,-140"/>
<text text-anchor="middle" x="1325.5" y="-128" font-family="Helvetica,sans-Serif" font-size="10.00">emlabcpp/enumerate.h</text>
</a>
</g>
</g>
<!-- Node1&#45;&gt;Node42 -->
<g id="edge35_Node000001_Node000042" class="edge">
<title>Node1&#45;&gt;Node42</title>
<g id="a_edge35_Node000001_Node000042"><a xlink:title=" ">
<path fill="none" stroke="#63b8ff" d="M1325.5,-175.75C1325.5,-168.8 1325.5,-158.85 1325.5,-150.13"/>
<polygon fill="#63b8ff" stroke="#63b8ff" points="1329,-150.09 1325.5,-140.09 1322,-150.09 1329,-150.09"/>
</a>
</g>
</g>
<!-- Node43 -->
<g id="Node000043" class="node">
<title>Node43</title>
<g id="a_Node000043"><a xlink:title=" ">
<polygon fill="#e0e0e0" stroke="#999999" points="1464,-140 1409,-140 1409,-121 1464,-121 1464,-140"/>
<text text-anchor="middle" x="1436.5" y="-128" font-family="Helvetica,sans-Serif" font-size="10.00">fstream</text>
</a>
</g>
</g>
<!-- Node1&#45;&gt;Node43 -->
<g id="edge36_Node000001_Node000043" class="edge">
<title>Node1&#45;&gt;Node43</title>
<g id="a_edge36_Node000001_Node000043"><a xlink:title=" ">
<path fill="none" stroke="#63b8ff" d="M1343.33,-175.98C1361.11,-167.5 1388.65,-154.35 1409.18,-144.54"/>
<polygon fill="#63b8ff" stroke="#63b8ff" points="1410.83,-147.64 1418.34,-140.17 1407.81,-141.32 1410.83,-147.64"/>
</a>
</g>
</g>
<!-- Node44 -->
<g id="Node000044" class="node">
<title>Node44</title>
<g id="a_Node000044"><a xlink:title=" ">
<polygon fill="#e0e0e0" stroke="#999999" points="1572.5,-140 1482.5,-140 1482.5,-121 1572.5,-121 1572.5,-140"/>
<text text-anchor="middle" x="1527.5" y="-128" font-family="Helvetica,sans-Serif" font-size="10.00">joque/exec.hpp</text>
</a>
</g>
</g>
<!-- Node1&#45;&gt;Node44 -->
<g id="edge37_Node000001_Node000044" class="edge">
<title>Node1&#45;&gt;Node44</title>
<g id="a_edge37_Node000001_Node000044"><a xlink:title=" ">
<path fill="none" stroke="#63b8ff" d="M1357.95,-175.98C1392.46,-166.93 1447.16,-152.58 1485.06,-142.64"/>
<polygon fill="#63b8ff" stroke="#63b8ff" points="1486.01,-146.01 1494.79,-140.08 1484.23,-139.23 1486.01,-146.01"/>
</a>
</g>
</g>
<!-- Node45 -->
<g id="Node000045" class="node">
<title>Node45</title>
<g id="a_Node000045"><a xlink:title=" ">
<polygon fill="#e0e0e0" stroke="#999999" points="1678.5,-140 1590.5,-140 1590.5,-121 1678.5,-121 1678.5,-140"/>
<text text-anchor="middle" x="1634.5" y="-128" font-family="Helvetica,sans-Serif" font-size="10.00">joque/json.hpp</text>
</a>
</g>
</g>
<!-- Node1&#45;&gt;Node45 -->
<g id="edge38_Node000001_Node000045" class="edge">
<title>Node1&#45;&gt;Node45</title>
<g id="a_edge38_Node000001_Node000045"><a xlink:title=" ">
<path fill="none" stroke="#63b8ff" d="M1375.15,-175.98C1431.31,-166.35 1522.49,-150.71 1580.42,-140.78"/>
<polygon fill="#63b8ff" stroke="#63b8ff" points="1581.22,-144.19 1590.48,-139.05 1580.03,-137.29 1581.22,-144.19"/>
</a>
</g>
</g>
<!-- Node24 -->
<g id="Node000024" class="node">
<title>Node24</title>
<g id="a_Node000024"><a xlink:title=" ">
<polygon fill="#e0e0e0" stroke="#999999" points="1806.5,-140 1696.5,-140 1696.5,-121 1806.5,-121 1806.5,-140"/>
<text text-anchor="middle" x="1751.5" y="-128" font-family="Helvetica,sans-Serif" font-size="10.00">nlohmann/json.hpp</text>
</a>
</g>
</g>
<!-- Node1&#45;&gt;Node24 -->
<g id="edge39_Node000001_Node000024" class="edge">
<title>Node1&#45;&gt;Node24</title>
<g id="a_edge39_Node000001_Node000024"><a xlink:title=" ">
<path fill="none" stroke="#63b8ff" d="M1382.26,-177.7C1451.54,-169.35 1572.53,-154.66 1686.41,-140.13"/>
<polygon fill="#63b8ff" stroke="#63b8ff" points="1686.87,-143.6 1696.35,-138.86 1685.98,-136.66 1686.87,-143.6"/>
</a>
</g>
</g>
<!-- Node46 -->
<g id="Node000046" class="node">
<title>Node46</title>
<g id="a_Node000046"><a xlink:title=" ">
<polygon fill="#e0e0e0" stroke="#999999" points="1890.5,-140 1824.5,-140 1824.5,-121 1890.5,-121 1890.5,-140"/>
<text text-anchor="middle" x="1857.5" y="-128" font-family="Helvetica,sans-Serif" font-size="10.00">vari/vref.h</text>
</a>
</g>
</g>
<!-- Node1&#45;&gt;Node46 -->
<g id="edge40_Node000001_Node000046" class="edge">
<title>Node1&#45;&gt;Node46</title>
<g id="a_edge40_Node000001_Node000046"><a xlink:title=" ">
<path fill="none" stroke="#63b8ff" d="M1382.32,-181.36C1472,-175.96 1651.98,-163.32 1813.94,-140.08"/>
<polygon fill="#63b8ff" stroke="#63b8ff" points="1814.69,-143.51 1824.09,-138.6 1813.69,-136.58 1814.69,-143.51"/>
</a>
</g>
</g>
<!-- Node3 -->
<g id="Node000003" class="node">
<title>Node3</title>
<g id="a_Node000003"><a xlink:title=" ">
<polygon fill="#e0e0e0" stroke="#999999" points="499.5,-79.5 449.5,-79.5 449.5,-60.5 499.5,-60.5 499.5,-79.5"/>
<text text-anchor="middle" x="474.5" y="-67.5" font-family="Helvetica,sans-Serif" font-size="10.00">chrono</text>
</a>
</g>
</g>
<!-- Node2&#45;&gt;Node3 -->
<g id="edge2_Node000002_Node000003" class="edge">
<title>Node2&#45;&gt;Node3</title>
<g id="a_edge2_Node000002_Node000003"><a xlink:title=" ">
<path fill="none" stroke="#63b8ff" d="M604.5,-120.88C580.21,-112.1 541.61,-97.95 508.5,-85 507.13,-84.46 505.72,-83.91 504.3,-83.34"/>
<polygon fill="#63b8ff" stroke="#63b8ff" points="505.53,-80.06 494.95,-79.56 502.91,-86.55 505.53,-80.06"/>
</a>
</g>
</g>
<!-- Node4 -->
<g id="Node000004" class="node">
<title>Node4</title>
<g id="a_Node000004"><a xlink:title=" ">
<polygon fill="#e0e0e0" stroke="#999999" points="431.5,-79.5 381.5,-79.5 381.5,-60.5 431.5,-60.5 431.5,-79.5"/>
<text text-anchor="middle" x="406.5" y="-67.5" font-family="Helvetica,sans-Serif" font-size="10.00">cstdint</text>
</a>
</g>
</g>
<!-- Node2&#45;&gt;Node4 -->
<g id="edge3_Node000002_Node000004" class="edge">
<title>Node2&#45;&gt;Node4</title>
<g id="a_edge3_Node000002_Node000004"><a xlink:title=" ">
<path fill="none" stroke="#63b8ff" d="M593.4,-122.92C555.29,-115.38 492.86,-101.86 440.5,-85 438.83,-84.46 437.12,-83.88 435.41,-83.26"/>
<polygon fill="#63b8ff" stroke="#63b8ff" points="436.31,-79.86 425.72,-79.53 433.8,-86.39 436.31,-79.86"/>
</a>
</g>
</g>
<!-- Node5 -->
<g id="Node000005" class="node">
<title>Node5</title>
<g id="a_Node000005"><a xlink:title=" ">
<polygon fill="#e0e0e0" stroke="#999999" points="853.5,-79.5 729.5,-79.5 729.5,-60.5 853.5,-60.5 853.5,-79.5"/>
<text text-anchor="middle" x="791.5" y="-67.5" font-family="Helvetica,sans-Serif" font-size="10.00">emlabcpp/algorithm.h</text>
</a>
</g>
</g>
<!-- Node2&#45;&gt;Node5 -->
<g id="edge4_Node000002_Node000005" class="edge">
<title>Node2&#45;&gt;Node5</title>
<g id="a_edge4_Node000002_Node000005"><a xlink:title=" ">
<path fill="none" stroke="#63b8ff" d="M652.2,-120.99C680.09,-110.99 726.57,-94.3 758.1,-82.99"/>
<polygon fill="#63b8ff" stroke="#63b8ff" points="759.54,-86.19 767.77,-79.52 757.18,-79.6 759.54,-86.19"/>
</a>
</g>
</g>
<!-- Node6 -->
<g id="Node000006" class="node">
<title>Node6</title>
<g id="a_Node000006"><a xlink:title=" ">
<polygon fill="#e0e0e0" stroke="#999999" points="633.5,-79.5 517.5,-79.5 517.5,-60.5 633.5,-60.5 633.5,-79.5"/>
<text text-anchor="middle" x="575.5" y="-67.5" font-family="Helvetica,sans-Serif" font-size="10.00">emlabcpp/quantity.h</text>
</a>
</g>
</g>
<!-- Node2&#45;&gt;Node6 -->
<g id="edge5_Node000002_Node000006" class="edge">
<title>Node2&#45;&gt;Node6</title>
<g id="a_edge5_Node000002_Node000006"><a xlink:title=" ">
<path fill="none" stroke="#63b8ff" d="M620.68,-120.87C612.69,-112.05 600.11,-98.16 590.24,-87.27"/>
<polygon fill="#63b8ff" stroke="#63b8ff" points="592.66,-84.73 583.35,-79.67 587.47,-89.43 592.66,-84.73"/>
</a>
</g>
</g>
<!-- Node7 -->
<g id="Node000007" class="node">
<title>Node7</title>
<g id="a_Node000007"><a xlink:title=" ">
<polygon fill="#e0e0e0" stroke="#999999" points="711,-79.5 652,-79.5 652,-60.5 711,-60.5 711,-79.5"/>
<text text-anchor="middle" x="681.5" y="-67.5" font-family="Helvetica,sans-Serif" font-size="10.00">numbers</text>
</a>
</g>
</g>
<!-- Node2&#45;&gt;Node7 -->
<g id="edge6_Node000002_Node000007" class="edge">
<title>Node2&#45;&gt;Node7</title>
<g id="a_edge6_Node000002_Node000007"><a xlink:title=" ">
<path fill="none" stroke="#63b8ff" d="M636.32,-120.87C644.31,-112.05 656.89,-98.16 666.76,-87.27"/>
<polygon fill="#63b8ff" stroke="#63b8ff" points="669.53,-89.43 673.65,-79.67 664.34,-84.73 669.53,-89.43"/>
</a>
</g>
</g>
<!-- Node8&#45;&gt;Node5 -->
<g id="edge8_Node000008_Node000005" class="edge">
<title>Node8&#45;&gt;Node5</title>
<g id="a_edge8_Node000008_Node000005"><a xlink:title=" ">
<path fill="none" stroke="#63b8ff" d="M950.45,-120.99C918.22,-110.86 864.21,-93.87 828.22,-82.55"/>
<polygon fill="#63b8ff" stroke="#63b8ff" points="829.17,-79.18 818.58,-79.52 827.07,-85.86 829.17,-79.18"/>
</a>
</g>
</g>
<!-- Node9&#45;&gt;Node4 -->
<g id="edge14_Node000009_Node000004" class="edge">
<title>Node9&#45;&gt;Node4</title>
<g id="a_edge14_Node000009_Node000004"><a xlink:title=" ">
<path fill="none" stroke="#63b8ff" d="M318.7,-120.87C335.51,-111.32 362.82,-95.81 382.52,-84.62"/>
<polygon fill="#63b8ff" stroke="#63b8ff" points="384.27,-87.65 391.24,-79.67 380.82,-81.56 384.27,-87.65"/>
</a>
</g>
</g>
<!-- Node10 -->
<g id="Node000010" class="node">
<title>Node10</title>
<g id="a_Node000010"><a xlink:href="ftester_2cli_8hpp.html" target="_top" xlink:title=" ">
<polygon fill="#fff0f0" stroke="red" points="225,-79.5 170,-79.5 170,-60.5 225,-60.5 225,-79.5"/>
<text text-anchor="middle" x="197.5" y="-67.5" font-family="Helvetica,sans-Serif" font-size="10.00">./cli.hpp</text>
</a>
</g>
</g>
<!-- Node9&#45;&gt;Node10 -->
<g id="edge10_Node000009_Node000010" class="edge">
<title>Node9&#45;&gt;Node10</title>
<g id="a_edge10_Node000009_Node000010"><a xlink:title=" ">
<path fill="none" stroke="#63b8ff" d="M287.86,-120.87C270.56,-111.32 242.45,-95.81 222.17,-84.62"/>
<polygon fill="#63b8ff" stroke="#63b8ff" points="223.65,-81.43 213.2,-79.67 220.27,-87.56 223.65,-81.43"/>
</a>
</g>
</g>
<!-- Node12 -->
<g id="Node000012" class="node">
<title>Node12</title>
<g id="a_Node000012"><a xlink:title=" ">
<polygon fill="#e0e0e0" stroke="#999999" points="175.5,-19 107.5,-19 107.5,0 175.5,0 175.5,-19"/>
<text text-anchor="middle" x="141.5" y="-7" font-family="Helvetica,sans-Serif" font-size="10.00">filesystem</text>
</a>
</g>
</g>
<!-- Node9&#45;&gt;Node12 -->
<g id="edge15_Node000009_Node000012" class="edge">
<title>Node9&#45;&gt;Node12</title>
<g id="a_edge15_Node000009_Node000012"><a xlink:title=" ">
<path fill="none" stroke="#63b8ff" d="M266.93,-127.8C234.52,-124.31 188.16,-114.13 160.5,-85 146.31,-70.06 142.33,-46.04 141.4,-29.33"/>
<polygon fill="#63b8ff" stroke="#63b8ff" points="144.89,-29.05 141.16,-19.13 137.89,-29.21 144.89,-29.05"/>
</a>
</g>
</g>
<!-- Node13 -->
<g id="Node000013" class="node">
<title>Node13</title>
<g id="a_Node000013"><a xlink:title=" ">
<polygon fill="#e0e0e0" stroke="#999999" points="249.5,-19 193.5,-19 193.5,0 249.5,0 249.5,-19"/>
<text text-anchor="middle" x="221.5" y="-7" font-family="Helvetica,sans-Serif" font-size="10.00">optional</text>
</a>
</g>
</g>
<!-- Node9&#45;&gt;Node13 -->
<g id="edge16_Node000009_Node000013" class="edge">
<title>Node9&#45;&gt;Node13</title>
<g id="a_edge16_Node000009_Node000013"><a xlink:title=" ">
<path fill="none" stroke="#63b8ff" d="M297.54,-120.98C291.28,-112.04 281.17,-97.55 272.5,-85 258.93,-65.35 243.44,-42.7 233.13,-27.58"/>
<polygon fill="#63b8ff" stroke="#63b8ff" points="235.97,-25.52 227.44,-19.23 230.18,-29.47 235.97,-25.52"/>
</a>
</g>
</g>
<!-- Node14 -->
<g id="Node000014" class="node">
<title>Node14</title>
<g id="a_Node000014"><a xlink:title=" ">
<polygon fill="#e0e0e0" stroke="#999999" points="364.5,-19 292.5,-19 292.5,0 364.5,0 364.5,-19"/>
<text text-anchor="middle" x="328.5" y="-7" font-family="Helvetica,sans-Serif" font-size="10.00">vari/uvptr.h</text>
</a>
</g>
</g>
<!-- Node9&#45;&gt;Node14 -->
<g id="edge18_Node000009_Node000014" class="edge">
<title>Node9&#45;&gt;Node14</title>
<g id="a_edge18_Node000009_Node000014"><a xlink:title=" ">
<path fill="none" stroke="#63b8ff" d="M311.98,-120.85C319.55,-112.47 330.1,-99.01 334.5,-85 340.26,-66.67 337.35,-44.62 333.87,-29.29"/>
<polygon fill="#63b8ff" stroke="#63b8ff" points="337.22,-28.28 331.35,-19.46 330.44,-30.01 337.22,-28.28"/>
</a>
</g>
</g>
<!-- Node15 -->
<g id="Node000015" class="node">
<title>Node15</title>
<g id="a_Node000015"><a xlink:title=" ">
<polygon fill="#e0e0e0" stroke="#999999" points="325.5,-79.5 281.5,-79.5 281.5,-60.5 325.5,-60.5 325.5,-79.5"/>
<text text-anchor="middle" x="303.5" y="-67.5" font-family="Helvetica,sans-Serif" font-size="10.00">string</text>
</a>
</g>
</g>
<!-- Node9&#45;&gt;Node15 -->
<g id="edge17_Node000009_Node000015" class="edge">
<title>Node9&#45;&gt;Node15</title>
<g id="a_edge17_Node000009_Node000015"><a xlink:title=" ">
<path fill="none" stroke="#63b8ff" d="M303.5,-120.87C303.5,-112.75 303.5,-100.31 303.5,-89.89"/>
<polygon fill="#63b8ff" stroke="#63b8ff" points="307,-89.67 303.5,-79.67 300,-89.67 307,-89.67"/>
</a>
</g>
</g>
<!-- Node10&#45;&gt;Node12 -->
<g id="edge11_Node000010_Node000012" class="edge">
<title>Node10&#45;&gt;Node12</title>
<g id="a_edge11_Node000010_Node000012"><a xlink:title=" ">
<path fill="none" stroke="#63b8ff" d="M189.24,-60.37C180.72,-51.47 167.24,-37.39 156.77,-26.45"/>
<polygon fill="#63b8ff" stroke="#63b8ff" points="159.24,-23.97 149.8,-19.17 154.18,-28.81 159.24,-23.97"/>
</a>
</g>
</g>
<!-- Node10&#45;&gt;Node13 -->
<g id="edge12_Node000010_Node000013" class="edge">
<title>Node10&#45;&gt;Node13</title>
<g id="a_edge12_Node000010_Node000013"><a xlink:title=" ">
<path fill="none" stroke="#63b8ff" d="M201.04,-60.37C204.44,-52.07 209.69,-39.28 214.02,-28.72"/>
<polygon fill="#63b8ff" stroke="#63b8ff" points="217.39,-29.75 217.94,-19.17 210.91,-27.09 217.39,-29.75"/>
</a>
</g>
</g>
<!-- Node10&#45;&gt;Node14 -->
<g id="edge13_Node000010_Node000014" class="edge">
<title>Node10&#45;&gt;Node14</title>
<g id="a_edge13_Node000010_Node000014"><a xlink:title=" ">
<path fill="none" stroke="#63b8ff" d="M216.55,-60.49C238.47,-50.7 274.71,-34.52 300,-23.23"/>
<polygon fill="#63b8ff" stroke="#63b8ff" points="301.72,-26.29 309.43,-19.02 298.87,-19.9 301.72,-26.29"/>
</a>
</g>
</g>
<!-- Node16&#45;&gt;Node12 -->
<g id="edge20_Node000016_Node000012" class="edge">
<title>Node16&#45;&gt;Node12</title>
<g id="a_edge20_Node000016_Node000012"><a xlink:title=" ">
<path fill="none" stroke="#63b8ff" d="M88.65,-60.37C98.17,-51.38 113.3,-37.11 124.93,-26.14"/>
<polygon fill="#63b8ff" stroke="#63b8ff" points="127.44,-28.58 132.31,-19.17 122.64,-23.48 127.44,-28.58"/>
</a>
</g>
</g>
<!-- Node16&#45;&gt;Node13 -->
<g id="edge22_Node000016_Node000013" class="edge">
<title>Node16&#45;&gt;Node13</title>
<g id="a_edge22_Node000016_Node000013"><a xlink:title=" ">
<path fill="none" stroke="#63b8ff" d="M100.15,-60.49C124.13,-50.62 163.89,-34.23 191.33,-22.93"/>
<polygon fill="#63b8ff" stroke="#63b8ff" points="192.91,-26.06 200.83,-19.02 190.25,-19.59 192.91,-26.06"/>
</a>
</g>
</g>
<!-- Node17 -->
<g id="Node000017" class="node">
<title>Node17</title>
<g id="a_Node000017"><a xlink:title=" ">
<polygon fill="#e0e0e0" stroke="#999999" points="89,-19 0,-19 0,0 89,0 89,-19"/>
<text text-anchor="middle" x="44.5" y="-7" font-family="Helvetica,sans-Serif" font-size="10.00">joque/task.hpp</text>
</a>
</g>
</g>
<!-- Node16&#45;&gt;Node17 -->
<g id="edge21_Node000016_Node000017" class="edge">
<title>Node16&#45;&gt;Node17</title>
<g id="a_edge21_Node000016_Node000017"><a xlink:title=" ">
<path fill="none" stroke="#63b8ff" d="M74.34,-60.37C69.27,-51.9 61.4,-38.74 55.01,-28.07"/>
<polygon fill="#63b8ff" stroke="#63b8ff" points="57.82,-25.95 49.69,-19.17 51.82,-29.55 57.82,-25.95"/>
</a>
</g>
</g>
<!-- Node19 -->
<g id="Node000019" class="node">
<title>Node19</title>
<g id="a_Node000019"><a xlink:href="port_8hpp.html" target="_top" xlink:title=" ">
<polygon fill="#fff0f0" stroke="red" points="1846.5,-79.5 1742.5,-79.5 1742.5,-60.5 1846.5,-60.5 1846.5,-79.5"/>
<text text-anchor="middle" x="1794.5" y="-67.5" font-family="Helvetica,sans-Serif" font-size="10.00">../scmdio/port.hpp</text>
</a>
</g>
</g>
<!-- Node18&#45;&gt;Node19 -->
<g id="edge24_Node000018_Node000019" class="edge">
<title>Node18&#45;&gt;Node19</title>
<g id="a_edge24_Node000018_Node000019"><a xlink:title=" ">
<path fill="none" stroke="#63b8ff" d="M1242.56,-122.22C1245.58,-121.78 1248.59,-121.36 1251.5,-121 1464.69,-94.61 1521.1,-117.12 1733.5,-85 1739.35,-84.12 1745.47,-82.97 1751.48,-81.72"/>
<polygon fill="#63b8ff" stroke="#63b8ff" points="1752.41,-85.1 1761.43,-79.55 1750.92,-78.27 1752.41,-85.1"/>
</a>
</g>
</g>
<!-- Node29 -->
<g id="Node000029" class="node">
<title>Node29</title>
<g id="a_Node000029"><a xlink:href="handle__eptr_8hpp.html" target="_top" xlink:title=" ">
<polygon fill="#fff0f0" stroke="red" points="1966,-79.5 1865,-79.5 1865,-60.5 1966,-60.5 1966,-79.5"/>
<text text-anchor="middle" x="1915.5" y="-67.5" font-family="Helvetica,sans-Serif" font-size="10.00">./handle_eptr.hpp</text>
</a>
</g>
</g>
<!-- Node18&#45;&gt;Node29 -->
<g id="edge25_Node000018_Node000029" class="edge">
<title>Node18&#45;&gt;Node29</title>
<g id="a_edge25_Node000018_Node000029"><a xlink:title=" ">
<path fill="none" stroke="#63b8ff" d="M1242.56,-122.17C1245.58,-121.74 1248.58,-121.34 1251.5,-121 1518.62,-89.97 1589.38,-123.69 1855.5,-85 1861.33,-84.15 1867.43,-83.02 1873.42,-81.77"/>
<polygon fill="#63b8ff" stroke="#63b8ff" points="1874.3,-85.16 1883.31,-79.57 1872.79,-78.32 1874.3,-85.16"/>
</a>
</g>
</g>
<!-- Node31 -->
<g id="Node000031" class="node">
<title>Node31</title>
<g id="a_Node000031"><a xlink:href="recorder_8hpp.html" target="_top" xlink:title=" ">
<polygon fill="#fff0f0" stroke="red" points="2067,-79.5 1984,-79.5 1984,-60.5 2067,-60.5 2067,-79.5"/>
<text text-anchor="middle" x="2025.5" y="-67.5" font-family="Helvetica,sans-Serif" font-size="10.00">./recorder.hpp</text>
</a>
</g>
</g>
<!-- Node18&#45;&gt;Node31 -->
<g id="edge26_Node000018_Node000031" class="edge">
<title>Node18&#45;&gt;Node31</title>
<g id="a_edge26_Node000018_Node000031"><a xlink:title=" ">
<path fill="none" stroke="#63b8ff" d="M1242.55,-122.14C1245.58,-121.71 1248.58,-121.32 1251.5,-121 1571.7,-85.4 1657.51,-136.76 1975.5,-85 1980.03,-84.26 1984.73,-83.27 1989.36,-82.14"/>
<polygon fill="#63b8ff" stroke="#63b8ff" points="1990.5,-85.46 1999.28,-79.53 1988.72,-78.69 1990.5,-85.46"/>
</a>
</g>
</g>
<!-- Node34 -->
<g id="Node000034" class="node">
<title>Node34</title>
<g id="a_Node000034"><a xlink:title=" ">
<polygon fill="#e0e0e0" stroke="#999999" points="1524,-19 1383,-19 1383,0 1524,0 1524,-19"/>
<text text-anchor="middle" x="1453.5" y="-7" font-family="Helvetica,sans-Serif" font-size="10.00">emlabcpp/convert_view.h</text>
</a>
</g>
</g>
<!-- Node18&#45;&gt;Node34 -->
<g id="edge28_Node000018_Node000034" class="edge">
<title>Node18&#45;&gt;Node34</title>
<g id="a_edge28_Node000018_Node000034"><a xlink:title=" ">
<path fill="none" stroke="#63b8ff" d="M1162.24,-126.45C1084.16,-120.11 918.33,-104.5 901.5,-85 892.79,-74.91 892.46,-64.8 901.5,-55 932.76,-21.12 1226.95,-13.03 1372.6,-11.1"/>
<polygon fill="#63b8ff" stroke="#63b8ff" points="1372.87,-14.6 1382.82,-10.97 1372.78,-7.6 1372.87,-14.6"/>
</a>
</g>
</g>
<!-- Node36 -->
<g id="Node000036" class="node">
<title>Node36</title>
<g id="a_Node000036"><a xlink:title=" ">
<polygon fill="#e0e0e0" stroke="#999999" points="1043,-85 910,-85 910,-55 1043,-55 1043,-85"/>
<text text-anchor="start" x="918" y="-73" font-family="Helvetica,sans-Serif" font-size="10.00">emlabcpp/experimental</text>
<text text-anchor="middle" x="976.5" y="-62" font-family="Helvetica,sans-Serif" font-size="10.00">/testing/collect.h</text>
</a>
</g>
</g>
<!-- Node18&#45;&gt;Node36 -->
<g id="edge29_Node000018_Node000036" class="edge">
<title>Node18&#45;&gt;Node36</title>
<g id="a_edge29_Node000018_Node000036"><a xlink:title=" ">
<path fill="none" stroke="#63b8ff" d="M1169.64,-120.99C1135.98,-112.28 1082.77,-98.51 1040.72,-87.62"/>
<polygon fill="#63b8ff" stroke="#63b8ff" points="1041.39,-84.18 1030.83,-85.06 1039.64,-90.96 1041.39,-84.18"/>
</a>
</g>
</g>
<!-- Node37 -->
<g id="Node000037" class="node">
<title>Node37</title>
<g id="a_Node000037"><a xlink:title=" ">
<polygon fill="#e0e0e0" stroke="#999999" points="1194,-85 1061,-85 1061,-55 1194,-55 1194,-85"/>
<text text-anchor="start" x="1069" y="-73" font-family="Helvetica,sans-Serif" font-size="10.00">emlabcpp/experimental</text>
<text text-anchor="middle" x="1127.5" y="-62" font-family="Helvetica,sans-Serif" font-size="10.00">/testing/controller.h</text>
</a>
</g>
</g>
<!-- Node18&#45;&gt;Node37 -->
<g id="edge30_Node000018_Node000037" class="edge">
<title>Node18&#45;&gt;Node37</title>
<g id="a_edge30_Node000018_Node000037"><a xlink:title=" ">
<path fill="none" stroke="#63b8ff" d="M1191.43,-120.87C1181.54,-113.15 1166.65,-101.54 1153.73,-91.46"/>
<polygon fill="#63b8ff" stroke="#63b8ff" points="1155.63,-88.51 1145.6,-85.11 1151.33,-94.02 1155.63,-88.51"/>
</a>
</g>
</g>
<!-- Node38 -->
<g id="Node000038" class="node">
<title>Node38</title>
<g id="a_Node000038"><a xlink:title=" ">
<polygon fill="#e0e0e0" stroke="#999999" points="1345,-85 1212,-85 1212,-55 1345,-55 1345,-85"/>
<text text-anchor="start" x="1220" y="-73" font-family="Helvetica,sans-Serif" font-size="10.00">emlabcpp/experimental</text>
<text text-anchor="middle" x="1278.5" y="-62" font-family="Helvetica,sans-Serif" font-size="10.00">/testing/json.h</text>
</a>
</g>
</g>
<!-- Node18&#45;&gt;Node38 -->
<g id="edge31_Node000018_Node000038" class="edge">
<title>Node18&#45;&gt;Node38</title>
<g id="a_edge31_Node000018_Node000038"><a xlink:title=" ">
<path fill="none" stroke="#63b8ff" d="M1213.71,-120.87C1223.74,-113.15 1238.83,-101.54 1251.92,-91.46"/>
<polygon fill="#63b8ff" stroke="#63b8ff" points="1254.37,-93.99 1260.16,-85.11 1250.1,-88.44 1254.37,-93.99"/>
</a>
</g>
</g>
<!-- Node39 -->
<g id="Node000039" class="node">
<title>Node39</title>
<g id="a_Node000039"><a xlink:title=" ">
<polygon fill="#e0e0e0" stroke="#999999" points="1496,-85 1363,-85 1363,-55 1496,-55 1496,-85"/>
<text text-anchor="start" x="1371" y="-73" font-family="Helvetica,sans-Serif" font-size="10.00">emlabcpp/experimental</text>
<text text-anchor="middle" x="1429.5" y="-62" font-family="Helvetica,sans-Serif" font-size="10.00">/testing/parameters.h</text>
</a>
</g>
</g>
<!-- Node18&#45;&gt;Node39 -->
<g id="edge32_Node000018_Node000039" class="edge">
<title>Node18&#45;&gt;Node39</title>
<g id="a_edge32_Node000018_Node000039"><a xlink:title=" ">
<path fill="none" stroke="#63b8ff" d="M1235.51,-120.99C1269.32,-112.28 1322.76,-98.51 1365,-87.62"/>
<polygon fill="#63b8ff" stroke="#63b8ff" points="1366.12,-90.95 1374.93,-85.06 1364.37,-84.17 1366.12,-90.95"/>
</a>
</g>
</g>
<!-- Node40 -->
<g id="Node000040" class="node">
<title>Node40</title>
<g id="a_Node000040"><a xlink:title=" ">
<polygon fill="#e0e0e0" stroke="#999999" points="1660.5,-85 1514.5,-85 1514.5,-55 1660.5,-55 1660.5,-85"/>
<text text-anchor="start" x="1522.5" y="-73" font-family="Helvetica,sans-Serif" font-size="10.00">emlabcpp/pmr/new_delete</text>
<text text-anchor="middle" x="1587.5" y="-62" font-family="Helvetica,sans-Serif" font-size="10.00">_resource.h</text>
</a>
</g>
</g>
<!-- Node18&#45;&gt;Node40 -->
<g id="edge33_Node000018_Node000040" class="edge">
<title>Node18&#45;&gt;Node40</title>
<g id="a_edge33_Node000018_Node000040"><a xlink:title=" ">
<path fill="none" stroke="#63b8ff" d="M1242.59,-122.44C1245.61,-121.94 1248.6,-121.46 1251.5,-121 1360.94,-103.76 1391.15,-102.65 1504.11,-85.19"/>
<polygon fill="#63b8ff" stroke="#63b8ff" points="1504.86,-88.62 1514.2,-83.62 1503.78,-81.7 1504.86,-88.62"/>
</a>
</g>
</g>
<!-- Node41 -->
<g id="Node000041" class="node">
<title>Node41</title>
<g id="a_Node000041"><a xlink:title=" ">
<polygon fill="#e0e0e0" stroke="#999999" points="1724,-79.5 1679,-79.5 1679,-60.5 1724,-60.5 1724,-79.5"/>
<text text-anchor="middle" x="1701.5" y="-67.5" font-family="Helvetica,sans-Serif" font-size="10.00">utility</text>
</a>
</g>
</g>
<!-- Node18&#45;&gt;Node41 -->
<g id="edge34_Node000018_Node000041" class="edge">
<title>Node18&#45;&gt;Node41</title>
<g id="a_edge34_Node000018_Node000041"><a xlink:title=" ">
<path fill="none" stroke="#63b8ff" d="M1242.57,-122.26C1245.59,-121.8 1248.59,-121.38 1251.5,-121 1436.42,-97.04 1488.79,-130.98 1669.5,-85 1671.4,-84.52 1673.32,-83.93 1675.24,-83.28"/>
<polygon fill="#63b8ff" stroke="#63b8ff" points="1676.56,-86.53 1684.59,-79.62 1674.01,-80.01 1676.56,-86.53"/>
</a>
</g>
</g>
<!-- Node31&#45;&gt;Node34 -->
<g id="edge27_Node000031_Node000034" class="edge">
<title>Node31&#45;&gt;Node34</title>
<g id="a_edge27_Node000031_Node000034"><a xlink:title=" ">
<path fill="none" stroke="#63b8ff" d="M1998.47,-60.43C1991.08,-58.37 1983.04,-56.36 1975.5,-55 1820.89,-27.02 1637.25,-16.54 1534.16,-12.68"/>
<polygon fill="#63b8ff" stroke="#63b8ff" points="1534.25,-9.18 1524.13,-12.32 1534,-16.18 1534.25,-9.18"/>
</a>
</g>
</g>
</g>
</svg>
