<?xml version="1.0" encoding="UTF-8" standalone="no"?>
<!DOCTYPE svg PUBLIC "-//W3C//DTD SVG 1.1//EN"
 "http://www.w3.org/Graphics/SVG/1.1/DTD/svg11.dtd">
<!-- Generated by graphviz version 2.43.0 (0)
 -->
<!-- Title: src/fw/main.cpp Pages: 1 -->
<svg width="804pt" height="258pt"
 viewBox="0.00 0.00 804.00 258.00" xmlns="http://www.w3.org/2000/svg" xmlns:xlink="http://www.w3.org/1999/xlink">
<g id="graph0" class="graph" transform="scale(1 1) rotate(0) translate(4 254)">
<title>src/fw/main.cpp</title>
<!-- Node1 -->
<g id="Node000001" class="node">
<title>Node1</title>
<g id="a_Node000001"><a xlink:title=" ">
<polygon fill="#999999" stroke="#666666" points="260,-250 167,-250 167,-231 260,-231 260,-250"/>
<text text-anchor="middle" x="213.5" y="-238" font-family="Helvetica,sans-Serif" font-size="10.00">src/fw/main.cpp</text>
</a>
</g>
</g>
<!-- Node2 -->
<g id="Node000002" class="node">
<title>Node2</title>
<g id="a_Node000002"><a xlink:href="brd_8hpp.html" target="_top" xlink:title=" ">
<polygon fill="white" stroke="#666666" points="81,-195 0,-195 0,-176 81,-176 81,-195"/>
<text text-anchor="middle" x="40.5" y="-183" font-family="Helvetica,sans-Serif" font-size="10.00">../brd/brd.hpp</text>
</a>
</g>
</g>
<!-- Node1&#45;&gt;Node2 -->
<g id="edge1_Node000001_Node000002" class="edge">
<title>Node1&#45;&gt;Node2</title>
<g id="a_edge1_Node000001_Node000002"><a xlink:title=" ">
<path fill="none" stroke="#63b8ff" d="M185.7,-230.98C156.53,-222.05 110.5,-207.94 78.1,-198.02"/>
<polygon fill="#63b8ff" stroke="#63b8ff" points="79.1,-194.66 68.51,-195.08 77.05,-201.36 79.1,-194.66"/>
</a>
</g>
</g>
<!-- Node20 -->
<g id="Node000020" class="node">
<title>Node20</title>
<g id="a_Node000020"><a xlink:href="core_2dispatcher_8hpp.html" target="_top" xlink:title=" ">
<polygon fill="white" stroke="#666666" points="341,-195 220,-195 220,-176 341,-176 341,-195"/>
<text text-anchor="middle" x="280.5" y="-183" font-family="Helvetica,sans-Serif" font-size="10.00">../core/dispatcher.hpp</text>
</a>
</g>
</g>
<!-- Node1&#45;&gt;Node20 -->
<g id="edge4_Node000001_Node000020" class="edge">
<title>Node1&#45;&gt;Node20</title>
<g id="a_edge4_Node000001_Node000020"><a xlink:title=" ">
<path fill="none" stroke="#63b8ff" d="M224.26,-230.98C234.27,-223.07 249.39,-211.11 261.43,-201.58"/>
<polygon fill="#63b8ff" stroke="#63b8ff" points="263.87,-204.12 269.54,-195.17 259.53,-198.63 263.87,-204.12"/>
</a>
</g>
</g>
<!-- Node58 -->
<g id="Node000058" class="node">
<title>Node58</title>
<g id="a_Node000058"><a xlink:href="context_8hpp.html" target="_top" xlink:title=" ">
<polygon fill="white" stroke="#666666" points="194.5,-195 114.5,-195 114.5,-176 194.5,-176 194.5,-195"/>
<text text-anchor="middle" x="154.5" y="-183" font-family="Helvetica,sans-Serif" font-size="10.00">./context.hpp</text>
</a>
</g>
</g>
<!-- Node1&#45;&gt;Node58 -->
<g id="edge13_Node000001_Node000058" class="edge">
<title>Node1&#45;&gt;Node58</title>
<g id="a_edge13_Node000001_Node000058"><a xlink:title=" ">
<path fill="none" stroke="#63b8ff" d="M204.02,-230.98C195.3,-223.15 182.16,-211.34 171.6,-201.86"/>
<polygon fill="#63b8ff" stroke="#63b8ff" points="173.93,-199.25 164.15,-195.17 169.25,-204.46 173.93,-199.25"/>
</a>
</g>
</g>
<!-- Node59 -->
<g id="Node000059" class="node">
<title>Node59</title>
<g id="a_Node000059"><a xlink:href="fw_2util_8hpp.html" target="_top" xlink:title=" ">
<polygon fill="white" stroke="#666666" points="671,-195 612,-195 612,-176 671,-176 671,-195"/>
<text text-anchor="middle" x="641.5" y="-183" font-family="Helvetica,sans-Serif" font-size="10.00">./util.hpp</text>
</a>
</g>
</g>
<!-- Node1&#45;&gt;Node59 -->
<g id="edge17_Node000001_Node000059" class="edge">
<title>Node1&#45;&gt;Node59</title>
<g id="a_edge17_Node000001_Node000059"><a xlink:title=" ">
<path fill="none" stroke="#63b8ff" d="M260.12,-233.73C344.82,-223.24 522.53,-201.23 601.83,-191.41"/>
<polygon fill="#63b8ff" stroke="#63b8ff" points="602.4,-194.87 611.9,-190.17 601.54,-187.92 602.4,-194.87"/>
</a>
</g>
</g>
<!-- Node3 -->
<g id="Node000003" class="node">
<title>Node3</title>
<g id="a_Node000003"><a xlink:href="drivers_8hpp.html" target="_top" xlink:title=" ">
<polygon fill="#fff0f0" stroke="red" points="107.5,-85 3.5,-85 3.5,-66 107.5,-66 107.5,-85"/>
<text text-anchor="middle" x="55.5" y="-73" font-family="Helvetica,sans-Serif" font-size="10.00">../core/drivers.hpp</text>
</a>
</g>
</g>
<!-- Node2&#45;&gt;Node3 -->
<g id="edge2_Node000002_Node000003" class="edge">
<title>Node2&#45;&gt;Node3</title>
<g id="a_edge2_Node000002_Node000003"><a xlink:title=" ">
<path fill="none" stroke="#63b8ff" d="M38.79,-175.78C36.66,-163.45 33.75,-140.28 37.5,-121 39.29,-111.8 42.98,-102.09 46.56,-94.1"/>
<polygon fill="#63b8ff" stroke="#63b8ff" points="49.73,-95.59 50.88,-85.06 43.41,-92.57 49.73,-95.59"/>
</a>
</g>
</g>
<!-- Node19 -->
<g id="Node000019" class="node">
<title>Node19</title>
<g id="a_Node000019"><a xlink:title=" ">
<polygon fill="#e0e0e0" stroke="#999999" points="176,-30 43,-30 43,0 176,0 176,-30"/>
<text text-anchor="start" x="51" y="-18" font-family="Helvetica,sans-Serif" font-size="10.00">emlabcpp/experimental</text>
<text text-anchor="middle" x="109.5" y="-7" font-family="Helvetica,sans-Serif" font-size="10.00">/function_view.h</text>
</a>
</g>
</g>
<!-- Node3&#45;&gt;Node19 -->
<g id="edge3_Node000003_Node000019" class="edge">
<title>Node3&#45;&gt;Node19</title>
<g id="a_edge3_Node000003_Node000019"><a xlink:title=" ">
<path fill="none" stroke="#63b8ff" d="M63.47,-65.87C70.32,-58.44 80.5,-47.42 89.55,-37.62"/>
<polygon fill="#63b8ff" stroke="#63b8ff" points="92.26,-39.84 96.47,-30.11 87.12,-35.09 92.26,-39.84"/>
</a>
</g>
</g>
<!-- Node20&#45;&gt;Node19 -->
<g id="edge11_Node000020_Node000019" class="edge">
<title>Node20&#45;&gt;Node19</title>
<g id="a_edge11_Node000020_Node000019"><a xlink:title=" ">
<path fill="none" stroke="#63b8ff" d="M279.15,-175.79C275.38,-154.29 262.83,-98.09 230.5,-66 215.94,-51.55 196.61,-41.07 177.68,-33.56"/>
<polygon fill="#63b8ff" stroke="#63b8ff" points="178.73,-30.22 168.14,-30.01 176.29,-36.78 178.73,-30.22"/>
</a>
</g>
</g>
<!-- Node21 -->
<g id="Node000021" class="node">
<title>Node21</title>
<g id="a_Node000021"><a xlink:href="cfg_2dispatcher_8hpp.html" target="_top" xlink:title=" ">
<polygon fill="#fff0f0" stroke="red" points="233,-140 118,-140 118,-121 233,-121 233,-140"/>
<text text-anchor="middle" x="175.5" y="-128" font-family="Helvetica,sans-Serif" font-size="10.00">../cfg/dispatcher.hpp</text>
</a>
</g>
</g>
<!-- Node20&#45;&gt;Node21 -->
<g id="edge5_Node000020_Node000021" class="edge">
<title>Node20&#45;&gt;Node21</title>
<g id="a_edge5_Node000020_Node000021"><a xlink:title=" ">
<path fill="none" stroke="#63b8ff" d="M263.63,-175.98C246.89,-167.54 221,-154.47 201.61,-144.68"/>
<polygon fill="#63b8ff" stroke="#63b8ff" points="203.18,-141.55 192.68,-140.17 200.03,-147.8 203.18,-141.55"/>
</a>
</g>
</g>
<!-- Node23 -->
<g id="Node000023" class="node">
<title>Node23</title>
<g id="a_Node000023"><a xlink:href="control_8hpp.html" target="_top" xlink:title=" ">
<polygon fill="#fff0f0" stroke="red" points="316,-24.5 221,-24.5 221,-5.5 316,-5.5 316,-24.5"/>
<text text-anchor="middle" x="268.5" y="-12.5" font-family="Helvetica,sans-Serif" font-size="10.00">../ctl/control.hpp</text>
</a>
</g>
</g>
<!-- Node20&#45;&gt;Node23 -->
<g id="edge9_Node000020_Node000023" class="edge">
<title>Node20&#45;&gt;Node23</title>
<g id="a_edge9_Node000020_Node000023"><a xlink:title=" ">
<path fill="none" stroke="#63b8ff" d="M280.42,-175.86C280.18,-156.27 279.23,-107.01 275.5,-66 274.56,-55.7 273,-44.27 271.59,-34.94"/>
<polygon fill="#63b8ff" stroke="#63b8ff" points="275.01,-34.15 270,-24.82 268.1,-35.24 275.01,-34.15"/>
</a>
</g>
</g>
<!-- Node46 -->
<g id="Node000046" class="node">
<title>Node46</title>
<g id="a_Node000046"><a xlink:href="iface_2def_8hpp.html" target="_top" xlink:title=" ">
<polygon fill="#fff0f0" stroke="red" points="417,-140 328,-140 328,-121 417,-121 417,-140"/>
<text text-anchor="middle" x="372.5" y="-128" font-family="Helvetica,sans-Serif" font-size="10.00">../iface/def.hpp</text>
</a>
</g>
</g>
<!-- Node20&#45;&gt;Node46 -->
<g id="edge10_Node000020_Node000046" class="edge">
<title>Node20&#45;&gt;Node46</title>
<g id="a_edge10_Node000020_Node000046"><a xlink:title=" ">
<path fill="none" stroke="#63b8ff" d="M295.28,-175.98C309.68,-167.69 331.81,-154.94 348.69,-145.22"/>
<polygon fill="#63b8ff" stroke="#63b8ff" points="350.53,-148.19 357.45,-140.17 347.04,-142.13 350.53,-148.19"/>
</a>
</g>
</g>
<!-- Node57 -->
<g id="Node000057" class="node">
<title>Node57</title>
<g id="a_Node000057"><a xlink:title=" ">
<polygon fill="#e0e0e0" stroke="#999999" points="554,-140 435,-140 435,-121 554,-121 554,-140"/>
<text text-anchor="middle" x="494.5" y="-128" font-family="Helvetica,sans-Serif" font-size="10.00">emlabcpp/outcome.h</text>
</a>
</g>
</g>
<!-- Node20&#45;&gt;Node57 -->
<g id="edge12_Node000020_Node000057" class="edge">
<title>Node20&#45;&gt;Node57</title>
<g id="a_edge12_Node000020_Node000057"><a xlink:title=" ">
<path fill="none" stroke="#63b8ff" d="M314.88,-175.98C351.59,-166.89 409.88,-152.46 450.05,-142.51"/>
<polygon fill="#63b8ff" stroke="#63b8ff" points="450.98,-145.88 459.85,-140.08 449.3,-139.09 450.98,-145.88"/>
</a>
</g>
</g>
<!-- Node21&#45;&gt;Node3 -->
<g id="edge8_Node000021_Node000003" class="edge">
<title>Node21&#45;&gt;Node3</title>
<g id="a_edge8_Node000021_Node000003"><a xlink:title=" ">
<path fill="none" stroke="#63b8ff" d="M156.22,-120.98C136.83,-112.42 106.69,-99.11 84.43,-89.28"/>
<polygon fill="#63b8ff" stroke="#63b8ff" points="85.69,-86.01 75.13,-85.17 82.86,-92.41 85.69,-86.01"/>
</a>
</g>
</g>
<!-- Node22 -->
<g id="Node000022" class="node">
<title>Node22</title>
<g id="a_Node000022"><a xlink:href="core_8hpp.html" target="_top" xlink:title=" ">
<polygon fill="#fff0f0" stroke="red" points="221.5,-85 129.5,-85 129.5,-66 221.5,-66 221.5,-85"/>
<text text-anchor="middle" x="175.5" y="-73" font-family="Helvetica,sans-Serif" font-size="10.00">../core/core.hpp</text>
</a>
</g>
</g>
<!-- Node21&#45;&gt;Node22 -->
<g id="edge6_Node000021_Node000022" class="edge">
<title>Node21&#45;&gt;Node22</title>
<g id="a_edge6_Node000021_Node000022"><a xlink:title=" ">
<path fill="none" stroke="#63b8ff" d="M175.5,-120.75C175.5,-113.8 175.5,-103.85 175.5,-95.13"/>
<polygon fill="#63b8ff" stroke="#63b8ff" points="179,-95.09 175.5,-85.09 172,-95.09 179,-95.09"/>
</a>
</g>
</g>
<!-- Node22&#45;&gt;Node23 -->
<g id="edge7_Node000022_Node000023" class="edge">
<title>Node22&#45;&gt;Node23</title>
<g id="a_edge7_Node000022_Node000023"><a xlink:title=" ">
<path fill="none" stroke="#63b8ff" d="M189.22,-65.87C204.2,-56.45 228.39,-41.23 246.12,-30.08"/>
<polygon fill="#63b8ff" stroke="#63b8ff" points="248.12,-32.95 254.72,-24.67 244.39,-27.03 248.12,-32.95"/>
</a>
</g>
</g>
<!-- Node58&#45;&gt;Node3 -->
<g id="edge16_Node000058_Node000003" class="edge">
<title>Node58&#45;&gt;Node3</title>
<g id="a_edge16_Node000058_Node000003"><a xlink:title=" ">
<path fill="none" stroke="#63b8ff" d="M143.1,-175.97C132.11,-167.47 115.3,-153.74 102.5,-140 88.96,-125.47 75.69,-107.05 66.73,-93.8"/>
<polygon fill="#63b8ff" stroke="#63b8ff" points="69.46,-91.59 61.02,-85.19 63.63,-95.46 69.46,-91.59"/>
</a>
</g>
</g>
<!-- Node58&#45;&gt;Node21 -->
<g id="edge14_Node000058_Node000021" class="edge">
<title>Node58&#45;&gt;Node21</title>
<g id="a_edge14_Node000058_Node000021"><a xlink:title=" ">
<path fill="none" stroke="#63b8ff" d="M157.97,-175.75C160.78,-168.65 164.84,-158.4 168.35,-149.56"/>
<polygon fill="#63b8ff" stroke="#63b8ff" points="171.67,-150.68 172.1,-140.09 165.16,-148.1 171.67,-150.68"/>
</a>
</g>
</g>
<!-- Node58&#45;&gt;Node22 -->
<g id="edge15_Node000058_Node000022" class="edge">
<title>Node58&#45;&gt;Node22</title>
<g id="a_edge15_Node000058_Node000022"><a xlink:title=" ">
<path fill="none" stroke="#63b8ff" d="M140.51,-175.96C123.17,-164.21 97.18,-142.11 108.5,-121 116.01,-107 130.07,-96.66 143.38,-89.48"/>
<polygon fill="#63b8ff" stroke="#63b8ff" points="144.98,-92.6 152.39,-85.02 141.87,-86.33 144.98,-92.6"/>
</a>
</g>
</g>
<!-- Node27 -->
<g id="Node000027" class="node">
<title>Node27</title>
<g id="a_Node000027"><a xlink:title=" ">
<polygon fill="#e0e0e0" stroke="#999999" points="636.5,-140 572.5,-140 572.5,-121 636.5,-121 636.5,-140"/>
<text text-anchor="middle" x="604.5" y="-128" font-family="Helvetica,sans-Serif" font-size="10.00">algorithm</text>
</a>
</g>
</g>
<!-- Node59&#45;&gt;Node27 -->
<g id="edge18_Node000059_Node000027" class="edge">
<title>Node59&#45;&gt;Node27</title>
<g id="a_edge18_Node000059_Node000027"><a xlink:title=" ">
<path fill="none" stroke="#63b8ff" d="M635.39,-175.75C630.22,-168.34 622.65,-157.5 616.31,-148.41"/>
<polygon fill="#63b8ff" stroke="#63b8ff" points="619.09,-146.29 610.5,-140.09 613.35,-150.29 619.09,-146.29"/>
</a>
</g>
</g>
<!-- Node60 -->
<g id="Node000060" class="node">
<title>Node60</title>
<g id="a_Node000060"><a xlink:title=" ">
<polygon fill="#e0e0e0" stroke="#999999" points="704.5,-140 654.5,-140 654.5,-121 704.5,-121 704.5,-140"/>
<text text-anchor="middle" x="679.5" y="-128" font-family="Helvetica,sans-Serif" font-size="10.00">cstring</text>
</a>
</g>
</g>
<!-- Node59&#45;&gt;Node60 -->
<g id="edge19_Node000059_Node000060" class="edge">
<title>Node59&#45;&gt;Node60</title>
<g id="a_edge19_Node000059_Node000060"><a xlink:title=" ">
<path fill="none" stroke="#63b8ff" d="M647.77,-175.75C653.09,-168.34 660.86,-157.5 667.38,-148.41"/>
<polygon fill="#63b8ff" stroke="#63b8ff" points="670.36,-150.26 673.34,-140.09 664.67,-146.18 670.36,-150.26"/>
</a>
</g>
</g>
<!-- Node52 -->
<g id="Node000052" class="node">
<title>Node52</title>
<g id="a_Node000052"><a xlink:title=" ">
<polygon fill="#e0e0e0" stroke="#999999" points="796,-140 723,-140 723,-121 796,-121 796,-140"/>
<text text-anchor="middle" x="759.5" y="-128" font-family="Helvetica,sans-Serif" font-size="10.00">string_view</text>
</a>
</g>
</g>
<!-- Node59&#45;&gt;Node52 -->
<g id="edge20_Node000059_Node000052" class="edge">
<title>Node59&#45;&gt;Node52</title>
<g id="a_edge20_Node000059_Node000052"><a xlink:title=" ">
<path fill="none" stroke="#63b8ff" d="M660.46,-175.98C679.53,-167.42 709.16,-154.11 731.05,-144.28"/>
<polygon fill="#63b8ff" stroke="#63b8ff" points="732.51,-147.46 740.2,-140.17 729.64,-141.07 732.51,-147.46"/>
</a>
</g>
</g>
</g>
</svg>
