<?xml version="1.0" encoding="UTF-8" standalone="no"?>
<!DOCTYPE svg PUBLIC "-//W3C//DTD SVG 1.1//EN"
 "http://www.w3.org/Graphics/SVG/1.1/DTD/svg11.dtd">
<!-- Generated by graphviz version 2.43.0 (0)
 -->
<!-- Title: src/fw/main.cpp Pages: 1 -->
<svg width="897pt" height="274pt"
 viewBox="0.00 0.00 897.00 274.00" xmlns="http://www.w3.org/2000/svg" xmlns:xlink="http://www.w3.org/1999/xlink">
<g id="graph0" class="graph" transform="scale(1 1) rotate(0) translate(4 270)">
<title>src/fw/main.cpp</title>
<polygon fill="white" stroke="transparent" points="-4,4 -4,-270 893,-270 893,4 -4,4"/>
<!-- Node1 -->
<g id="node1" class="node">
<title>Node1</title>
<g id="a_node1"><a xlink:title=" ">
<polygon fill="#bfbfbf" stroke="black" points="379.5,-246.5 379.5,-265.5 472.5,-265.5 472.5,-246.5 379.5,-246.5"/>
<text text-anchor="middle" x="426" y="-253.5" font-family="Helvetica,sans-Serif" font-size="10.00">src/fw/main.cpp</text>
</a>
</g>
</g>
<!-- Node2 -->
<g id="node2" class="node">
<title>Node2</title>
<g id="a_node2"><a xlink:href="board_8hpp.html" target="_top" xlink:title=" ">
<polygon fill="white" stroke="black" points="367,-123.5 367,-142.5 447,-142.5 447,-123.5 367,-123.5"/>
<text text-anchor="middle" x="407" y="-130.5" font-family="Helvetica,sans-Serif" font-size="10.00">fw/board.hpp</text>
</a>
</g>
</g>
<!-- Node1&#45;&gt;Node2 -->
<g id="edge1" class="edge">
<title>Node1&#45;&gt;Node2</title>
<path fill="none" stroke="midnightblue" d="M424.63,-246.3C421.57,-226.76 414.08,-179.06 409.91,-152.55"/>
<polygon fill="midnightblue" stroke="midnightblue" points="413.36,-151.96 408.35,-142.62 406.45,-153.05 413.36,-151.96"/>
</g>
<!-- Node14 -->
<g id="node5" class="node">
<title>Node14</title>
<g id="a_node5"><a xlink:href="globals_8hpp.html" target="_top" xlink:title=" ">
<polygon fill="white" stroke="red" points="706.5,-62 706.5,-81 779.5,-81 779.5,-62 706.5,-62"/>
<text text-anchor="middle" x="743" y="-69" font-family="Helvetica,sans-Serif" font-size="10.00">globals.hpp</text>
</a>
</g>
</g>
<!-- Node1&#45;&gt;Node14 -->
<g id="edge19" class="edge">
<title>Node1&#45;&gt;Node14</title>
<path fill="none" stroke="midnightblue" d="M472.69,-254.22C530.65,-251.78 631.56,-242.7 711,-210 758.11,-190.61 780.78,-188.34 804,-143 815.49,-120.56 790.42,-99.33 769.02,-86.14"/>
<polygon fill="midnightblue" stroke="midnightblue" points="770.6,-83.01 760.19,-81 767.08,-89.06 770.6,-83.01"/>
</g>
<!-- Node17 -->
<g id="node7" class="node">
<title>Node17</title>
<g id="a_node7"><a xlink:href="cfg__dispatcher_8hpp.html" target="_top" xlink:title=" ">
<polygon fill="white" stroke="black" points="79,-123.5 79,-142.5 201,-142.5 201,-123.5 79,-123.5"/>
<text text-anchor="middle" x="140" y="-130.5" font-family="Helvetica,sans-Serif" font-size="10.00">fw/cfg_dispatcher.hpp</text>
</a>
</g>
</g>
<!-- Node1&#45;&gt;Node17 -->
<g id="edge6" class="edge">
<title>Node1&#45;&gt;Node17</title>
<path fill="none" stroke="midnightblue" d="M383.5,-246.45C353.22,-239.31 312.19,-227.46 279,-210 259.4,-199.69 258.91,-190.52 240,-179 218.62,-165.98 192.83,-154.46 172.79,-146.34"/>
<polygon fill="midnightblue" stroke="midnightblue" points="174.04,-143.07 163.46,-142.63 171.46,-149.58 174.04,-143.07"/>
</g>
<!-- Node18 -->
<g id="node8" class="node">
<title>Node18</title>
<g id="a_node8"><a xlink:href="core_8hpp.html" target="_top" xlink:title=" ">
<polygon fill="white" stroke="red" points="85.5,-62 85.5,-81 158.5,-81 158.5,-62 85.5,-62"/>
<text text-anchor="middle" x="122" y="-69" font-family="Helvetica,sans-Serif" font-size="10.00">fw/core.hpp</text>
</a>
</g>
</g>
<!-- Node1&#45;&gt;Node18 -->
<g id="edge11" class="edge">
<title>Node1&#45;&gt;Node18</title>
<path fill="none" stroke="midnightblue" d="M379.22,-252.25C288.48,-246.47 95.61,-231.73 75,-210 48.35,-181.9 54.92,-158.67 70,-123 76.09,-108.59 88.53,-96.27 99.71,-87.4"/>
<polygon fill="midnightblue" stroke="midnightblue" points="101.96,-90.09 107.89,-81.32 97.78,-84.48 101.96,-90.09"/>
</g>
<!-- Node47 -->
<g id="node11" class="node">
<title>Node47</title>
<g id="a_node11"><a xlink:href="dispatcher_8hpp.html" target="_top" xlink:title=" ">
<polygon fill="white" stroke="black" points="458,-185 458,-204 560,-204 560,-185 458,-185"/>
<text text-anchor="middle" x="509" y="-192" font-family="Helvetica,sans-Serif" font-size="10.00">fw/dispatcher.hpp</text>
</a>
</g>
</g>
<!-- Node1&#45;&gt;Node47 -->
<g id="edge12" class="edge">
<title>Node1&#45;&gt;Node47</title>
<path fill="none" stroke="midnightblue" d="M437.89,-246.48C451.2,-236.93 473,-221.31 488.96,-209.87"/>
<polygon fill="midnightblue" stroke="midnightblue" points="491.04,-212.68 497.13,-204.01 486.96,-206.99 491.04,-212.68"/>
</g>
<!-- Node49 -->
<g id="node14" class="node">
<title>Node49</title>
<g id="a_node14"><a xlink:href="servio__pb_8hpp.html" target="_top" xlink:title=" ">
<polygon fill="white" stroke="black" points="602.5,-185 602.5,-204 701.5,-204 701.5,-185 602.5,-185"/>
<text text-anchor="middle" x="652" y="-192" font-family="Helvetica,sans-Serif" font-size="10.00">fw/servio_pb.hpp</text>
</a>
</g>
</g>
<!-- Node1&#45;&gt;Node49 -->
<g id="edge20" class="edge">
<title>Node1&#45;&gt;Node49</title>
<path fill="none" stroke="midnightblue" d="M458.38,-246.48C498.24,-235.98 566.02,-218.14 609.89,-206.59"/>
<polygon fill="midnightblue" stroke="midnightblue" points="610.9,-209.94 619.68,-204.01 609.12,-203.17 610.9,-209.94"/>
</g>
<!-- Node51 -->
<g id="node16" class="node">
<title>Node51</title>
<g id="a_node16"><a xlink:href="store__persistent__config_8hpp.html" target="_top" xlink:title=" ">
<polygon fill="white" stroke="black" points="288,-179.5 288,-209.5 398,-209.5 398,-179.5 288,-179.5"/>
<text text-anchor="start" x="296" y="-197.5" font-family="Helvetica,sans-Serif" font-size="10.00">fw/store_persistent</text>
<text text-anchor="middle" x="343" y="-186.5" font-family="Helvetica,sans-Serif" font-size="10.00">_config.hpp</text>
</a>
</g>
</g>
<!-- Node1&#45;&gt;Node51 -->
<g id="edge23" class="edge">
<title>Node1&#45;&gt;Node51</title>
<path fill="none" stroke="midnightblue" d="M414.11,-246.48C402.87,-238.42 385.58,-226.02 370.86,-215.47"/>
<polygon fill="midnightblue" stroke="midnightblue" points="372.73,-212.5 362.56,-209.52 368.65,-218.19 372.73,-212.5"/>
</g>
<!-- Node54 -->
<g id="node18" class="node">
<title>Node54</title>
<g id="a_node18"><a xlink:title=" ">
<polygon fill="white" stroke="#bfbfbf" points="851,-185 851,-204 889,-204 889,-185 851,-185"/>
<text text-anchor="middle" x="870" y="-192" font-family="Helvetica,sans-Serif" font-size="10.00">git.h</text>
</a>
</g>
</g>
<!-- Node1&#45;&gt;Node54 -->
<g id="edge27" class="edge">
<title>Node1&#45;&gt;Node54</title>
<path fill="none" stroke="midnightblue" d="M472.77,-254.48C549.93,-252.61 708.2,-244.47 837,-210 839.3,-209.39 841.64,-208.63 843.96,-207.8"/>
<polygon fill="midnightblue" stroke="midnightblue" points="845.27,-211.04 853.23,-204.05 842.65,-204.55 845.27,-211.04"/>
</g>
<!-- Node55 -->
<g id="node19" class="node">
<title>Node55</title>
<g id="a_node19"><a xlink:href="load__persistent__config_8hpp.html" target="_top" xlink:title=" ">
<polygon fill="white" stroke="black" points="84.5,-185 84.5,-204 231.5,-204 231.5,-185 84.5,-185"/>
<text text-anchor="middle" x="158" y="-192" font-family="Helvetica,sans-Serif" font-size="10.00">load_persistent_config.hpp</text>
</a>
</g>
</g>
<!-- Node1&#45;&gt;Node55 -->
<g id="edge28" class="edge">
<title>Node1&#45;&gt;Node55</title>
<path fill="none" stroke="midnightblue" d="M387.6,-246.48C339.84,-235.87 258.26,-217.76 206.3,-206.22"/>
<polygon fill="midnightblue" stroke="midnightblue" points="206.85,-202.76 196.33,-204.01 205.33,-209.59 206.85,-202.76"/>
</g>
<!-- Node3 -->
<g id="node3" class="node">
<title>Node3</title>
<g id="a_node3"><a xlink:title=" ">
<polygon fill="white" stroke="#bfbfbf" points="197.5,-62 197.5,-81 264.5,-81 264.5,-62 197.5,-62"/>
<text text-anchor="middle" x="231" y="-69" font-family="Helvetica,sans-Serif" font-size="10.00">config.hpp</text>
</a>
</g>
</g>
<!-- Node2&#45;&gt;Node3 -->
<g id="edge2" class="edge">
<title>Node2&#45;&gt;Node3</title>
<path fill="none" stroke="midnightblue" d="M381.29,-123.44C354.3,-114.43 310.63,-99.82 273,-87 270.57,-86.17 268.07,-85.32 265.54,-84.45"/>
<polygon fill="midnightblue" stroke="midnightblue" points="266.46,-81.06 255.86,-81.12 264.18,-87.68 266.46,-81.06"/>
</g>
<!-- Node4 -->
<g id="node4" class="node">
<title>Node4</title>
<g id="a_node4"><a xlink:href="drv__interfaces_8hpp.html" target="_top" xlink:title=" ">
<polygon fill="white" stroke="red" points="443.5,-62 443.5,-81 550.5,-81 550.5,-62 443.5,-62"/>
<text text-anchor="middle" x="497" y="-69" font-family="Helvetica,sans-Serif" font-size="10.00">drv_interfaces.hpp</text>
</a>
</g>
</g>
<!-- Node2&#45;&gt;Node4 -->
<g id="edge3" class="edge">
<title>Node2&#45;&gt;Node4</title>
<path fill="none" stroke="midnightblue" d="M419.89,-123.48C434.46,-113.84 458.4,-98.02 475.75,-86.55"/>
<polygon fill="midnightblue" stroke="midnightblue" points="477.72,-89.44 484.13,-81.01 473.86,-83.6 477.72,-89.44"/>
</g>
<!-- Node2&#45;&gt;Node14 -->
<g id="edge4" class="edge">
<title>Node2&#45;&gt;Node14</title>
<path fill="none" stroke="midnightblue" d="M447.11,-124.61C450.12,-124.06 453.11,-123.52 456,-123 540.61,-107.79 639.35,-90.52 696.18,-80.63"/>
<polygon fill="midnightblue" stroke="midnightblue" points="697.04,-84.03 706.29,-78.87 695.84,-77.14 697.04,-84.03"/>
</g>
<!-- Node16 -->
<g id="node6" class="node">
<title>Node16</title>
<g id="a_node6"><a xlink:title=" ">
<polygon fill="white" stroke="#bfbfbf" points="282.5,-56.5 282.5,-86.5 415.5,-86.5 415.5,-56.5 282.5,-56.5"/>
<text text-anchor="start" x="290.5" y="-74.5" font-family="Helvetica,sans-Serif" font-size="10.00">emlabcpp/experimental</text>
<text text-anchor="middle" x="349" y="-63.5" font-family="Helvetica,sans-Serif" font-size="10.00">/function_view.h</text>
</a>
</g>
</g>
<!-- Node2&#45;&gt;Node16 -->
<g id="edge5" class="edge">
<title>Node2&#45;&gt;Node16</title>
<path fill="none" stroke="midnightblue" d="M398.69,-123.48C391.2,-115.79 379.87,-104.17 369.92,-93.96"/>
<polygon fill="midnightblue" stroke="midnightblue" points="372.16,-91.24 362.67,-86.52 367.14,-96.13 372.16,-91.24"/>
</g>
<!-- Node17&#45;&gt;Node3 -->
<g id="edge7" class="edge">
<title>Node17&#45;&gt;Node3</title>
<path fill="none" stroke="midnightblue" d="M153.04,-123.48C167.77,-113.84 191.97,-98.02 209.51,-86.55"/>
<polygon fill="midnightblue" stroke="midnightblue" points="211.53,-89.41 217.99,-81.01 207.7,-83.55 211.53,-89.41"/>
</g>
<!-- Node17&#45;&gt;Node18 -->
<g id="edge8" class="edge">
<title>Node17&#45;&gt;Node18</title>
<path fill="none" stroke="midnightblue" d="M137.42,-123.48C134.85,-114.99 130.83,-101.7 127.54,-90.82"/>
<polygon fill="midnightblue" stroke="midnightblue" points="130.82,-89.57 124.57,-81.01 124.12,-91.59 130.82,-89.57"/>
</g>
<!-- Node19 -->
<g id="node9" class="node">
<title>Node19</title>
<g id="a_node9"><a xlink:href="control_8hpp.html" target="_top" xlink:title=" ">
<polygon fill="white" stroke="red" points="97.5,-0.5 97.5,-19.5 168.5,-19.5 168.5,-0.5 97.5,-0.5"/>
<text text-anchor="middle" x="133" y="-7.5" font-family="Helvetica,sans-Serif" font-size="10.00">control.hpp</text>
</a>
</g>
</g>
<!-- Node18&#45;&gt;Node19 -->
<g id="edge9" class="edge">
<title>Node18&#45;&gt;Node19</title>
<path fill="none" stroke="midnightblue" d="M123.58,-61.98C125.13,-53.58 127.55,-40.48 129.55,-29.66"/>
<polygon fill="midnightblue" stroke="midnightblue" points="133.05,-29.98 131.43,-19.51 126.17,-28.71 133.05,-29.98"/>
</g>
<!-- Node45 -->
<g id="node10" class="node">
<title>Node45</title>
<g id="a_node10"><a xlink:href="util_8hpp.html" target="_top" xlink:title=" ">
<polygon fill="white" stroke="red" points="0,-0.5 0,-19.5 68,-19.5 68,-0.5 0,-0.5"/>
<text text-anchor="middle" x="34" y="-7.5" font-family="Helvetica,sans-Serif" font-size="10.00">fw/util.hpp</text>
</a>
</g>
</g>
<!-- Node18&#45;&gt;Node45 -->
<g id="edge10" class="edge">
<title>Node18&#45;&gt;Node45</title>
<path fill="none" stroke="midnightblue" d="M109.39,-61.98C95.28,-52.43 72.17,-36.81 55.25,-25.37"/>
<polygon fill="midnightblue" stroke="midnightblue" points="56.83,-22.21 46.58,-19.51 52.91,-28.01 56.83,-22.21"/>
</g>
<!-- Node47&#45;&gt;Node16 -->
<g id="edge17" class="edge">
<title>Node47&#45;&gt;Node16</title>
<path fill="none" stroke="midnightblue" d="M457.76,-189.99C424.2,-184.85 382.21,-172.48 358,-143 347.54,-130.26 345.55,-111.62 346.03,-96.71"/>
<polygon fill="midnightblue" stroke="midnightblue" points="349.53,-96.86 346.74,-86.64 342.54,-96.38 349.53,-96.86"/>
</g>
<!-- Node47&#45;&gt;Node17 -->
<g id="edge14" class="edge">
<title>Node47&#45;&gt;Node17</title>
<path fill="none" stroke="midnightblue" d="M457.69,-185.23C391.16,-174.5 275.14,-155.79 203.24,-144.2"/>
<polygon fill="midnightblue" stroke="midnightblue" points="203.39,-140.68 192.96,-142.54 202.28,-147.59 203.39,-140.68"/>
</g>
<!-- Node47&#45;&gt;Node19 -->
<g id="edge13" class="edge">
<title>Node47&#45;&gt;Node19</title>
<path fill="none" stroke="midnightblue" d="M529.8,-184.99C546.49,-176.91 568.76,-163.01 579,-143 592.18,-117.25 575.85,-69.99 559,-56 530.2,-32.09 283.21,-17.95 179.04,-13.01"/>
<polygon fill="midnightblue" stroke="midnightblue" points="178.98,-9.5 168.82,-12.53 178.65,-16.49 178.98,-9.5"/>
</g>
<!-- Node32 -->
<g id="node12" class="node">
<title>Node32</title>
<g id="a_node12"><a xlink:href="conversion_8hpp.html" target="_top" xlink:title=" ">
<polygon fill="white" stroke="red" points="465.5,-123.5 465.5,-142.5 570.5,-142.5 570.5,-123.5 465.5,-123.5"/>
<text text-anchor="middle" x="518" y="-130.5" font-family="Helvetica,sans-Serif" font-size="10.00">fw/conversion.hpp</text>
</a>
</g>
</g>
<!-- Node47&#45;&gt;Node32 -->
<g id="edge15" class="edge">
<title>Node47&#45;&gt;Node32</title>
<path fill="none" stroke="midnightblue" d="M510.29,-184.98C511.56,-176.58 513.54,-163.48 515.18,-152.66"/>
<polygon fill="midnightblue" stroke="midnightblue" points="518.68,-152.92 516.71,-142.51 511.76,-151.87 518.68,-152.92"/>
</g>
<!-- Node48 -->
<g id="node13" class="node">
<title>Node48</title>
<g id="a_node13"><a xlink:title=" ">
<polygon fill="white" stroke="#bfbfbf" points="627,-123.5 627,-142.5 677,-142.5 677,-123.5 627,-123.5"/>
<text text-anchor="middle" x="652" y="-130.5" font-family="Helvetica,sans-Serif" font-size="10.00">io.pb.h</text>
</a>
</g>
</g>
<!-- Node47&#45;&gt;Node48 -->
<g id="edge18" class="edge">
<title>Node47&#45;&gt;Node48</title>
<path fill="none" stroke="midnightblue" d="M529.49,-184.98C553.81,-174.86 594.55,-157.9 622.32,-146.35"/>
<polygon fill="midnightblue" stroke="midnightblue" points="623.66,-149.58 631.55,-142.51 620.97,-143.12 623.66,-149.58"/>
</g>
<!-- Node32&#45;&gt;Node4 -->
<g id="edge16" class="edge">
<title>Node32&#45;&gt;Node4</title>
<path fill="none" stroke="midnightblue" d="M514.99,-123.48C511.97,-114.9 507.21,-101.43 503.35,-90.48"/>
<polygon fill="midnightblue" stroke="midnightblue" points="506.63,-89.27 500,-81.01 500.03,-91.6 506.63,-89.27"/>
</g>
<!-- Node49&#45;&gt;Node48 -->
<g id="edge22" class="edge">
<title>Node49&#45;&gt;Node48</title>
<path fill="none" stroke="midnightblue" d="M652,-184.98C652,-176.58 652,-163.48 652,-152.66"/>
<polygon fill="midnightblue" stroke="midnightblue" points="655.5,-152.51 652,-142.51 648.5,-152.51 655.5,-152.51"/>
</g>
<!-- Node50 -->
<g id="node15" class="node">
<title>Node50</title>
<g id="a_node15"><a xlink:title=" ">
<polygon fill="white" stroke="#bfbfbf" points="695.5,-123.5 695.5,-142.5 794.5,-142.5 794.5,-123.5 695.5,-123.5"/>
<text text-anchor="middle" x="745" y="-130.5" font-family="Helvetica,sans-Serif" font-size="10.00">emlabcpp/view.h</text>
</a>
</g>
</g>
<!-- Node49&#45;&gt;Node50 -->
<g id="edge21" class="edge">
<title>Node49&#45;&gt;Node50</title>
<path fill="none" stroke="midnightblue" d="M665.32,-184.98C680.38,-175.34 705.12,-159.52 723.04,-148.05"/>
<polygon fill="midnightblue" stroke="midnightblue" points="725.16,-150.85 731.7,-142.51 721.39,-144.95 725.16,-150.85"/>
</g>
<!-- Node52 -->
<g id="node17" class="node">
<title>Node52</title>
<g id="a_node17"><a xlink:href="storage_8hpp.html" target="_top" xlink:title=" ">
<polygon fill="white" stroke="red" points="219,-123.5 219,-142.5 311,-142.5 311,-123.5 219,-123.5"/>
<text text-anchor="middle" x="265" y="-130.5" font-family="Helvetica,sans-Serif" font-size="10.00">cfg/storage.hpp</text>
</a>
</g>
</g>
<!-- Node51&#45;&gt;Node52 -->
<g id="edge24" class="edge">
<title>Node51&#45;&gt;Node52</title>
<path fill="none" stroke="midnightblue" d="M324.52,-179.4C312.48,-170.22 296.8,-158.26 284.56,-148.92"/>
<polygon fill="midnightblue" stroke="midnightblue" points="286.42,-145.94 276.35,-142.66 282.18,-151.51 286.42,-145.94"/>
</g>
<!-- Node52&#45;&gt;Node3 -->
<g id="edge25" class="edge">
<title>Node52&#45;&gt;Node3</title>
<path fill="none" stroke="midnightblue" d="M260.13,-123.48C255.13,-114.73 247.21,-100.87 240.89,-89.81"/>
<polygon fill="midnightblue" stroke="midnightblue" points="243.86,-87.96 235.86,-81.01 237.78,-91.43 243.86,-87.96"/>
</g>
<!-- Node52&#45;&gt;Node16 -->
<g id="edge26" class="edge">
<title>Node52&#45;&gt;Node16</title>
<path fill="none" stroke="midnightblue" d="M277.04,-123.48C288.41,-115.42 305.91,-103.02 320.8,-92.47"/>
<polygon fill="midnightblue" stroke="midnightblue" points="323.07,-95.16 329.2,-86.52 319.02,-89.45 323.07,-95.16"/>
</g>
<!-- Node55&#45;&gt;Node45 -->
<g id="edge30" class="edge">
<title>Node55&#45;&gt;Node45</title>
<path fill="none" stroke="midnightblue" d="M132.34,-184.97C112.5,-177.1 85.84,-163.49 70,-143 43.82,-109.12 36.66,-57.51 34.71,-29.93"/>
<polygon fill="midnightblue" stroke="midnightblue" points="38.19,-29.5 34.16,-19.71 31.21,-29.88 38.19,-29.5"/>
</g>
<!-- Node55&#45;&gt;Node52 -->
<g id="edge29" class="edge">
<title>Node55&#45;&gt;Node52</title>
<path fill="none" stroke="midnightblue" d="M173.33,-184.98C190.97,-175.17 220.16,-158.93 240.86,-147.42"/>
<polygon fill="midnightblue" stroke="midnightblue" points="242.66,-150.43 249.7,-142.51 239.26,-144.31 242.66,-150.43"/>
</g>
</g>
</svg>
