<?xml version="1.0" encoding="UTF-8" standalone="no"?>
<!DOCTYPE svg PUBLIC "-//W3C//DTD SVG 1.1//EN"
 "http://www.w3.org/Graphics/SVG/1.1/DTD/svg11.dtd">
<!-- Generated by graphviz version 2.43.0 (0)
 -->
<!-- Title: src/fw/main.cpp Pages: 1 -->
<svg width="979pt" height="263pt"
 viewBox="0.00 0.00 978.50 263.00" xmlns="http://www.w3.org/2000/svg" xmlns:xlink="http://www.w3.org/1999/xlink">
<g id="graph0" class="graph" transform="scale(1 1) rotate(0) translate(4 259)">
<title>src/fw/main.cpp</title>
<polygon fill="white" stroke="transparent" points="-4,4 -4,-259 974.5,-259 974.5,4 -4,4"/>
<!-- Node1 -->
<g id="node1" class="node">
<title>Node1</title>
<g id="a_node1"><a xlink:title=" ">
<polygon fill="#bfbfbf" stroke="black" points="528.5,-235.5 528.5,-254.5 621.5,-254.5 621.5,-235.5 528.5,-235.5"/>
<text text-anchor="middle" x="575" y="-242.5" font-family="Helvetica,sans-Serif" font-size="10.00">src/fw/main.cpp</text>
</a>
</g>
</g>
<!-- Node2 -->
<g id="node2" class="node">
<title>Node2</title>
<g id="a_node2"><a xlink:href="board_8hpp.html" target="_top" xlink:title=" ">
<polygon fill="white" stroke="black" points="135,-112.5 135,-131.5 215,-131.5 215,-112.5 135,-112.5"/>
<text text-anchor="middle" x="175" y="-119.5" font-family="Helvetica,sans-Serif" font-size="10.00">fw/board.hpp</text>
</a>
</g>
</g>
<!-- Node1&#45;&gt;Node2 -->
<g id="edge1" class="edge">
<title>Node1&#45;&gt;Node2</title>
<path fill="none" stroke="midnightblue" d="M528.35,-242.51C445.9,-239.13 278.45,-228.72 229,-199 206.73,-185.62 191.16,-159.14 182.64,-141.25"/>
<polygon fill="midnightblue" stroke="midnightblue" points="185.72,-139.57 178.44,-131.87 179.34,-142.43 185.72,-139.57"/>
</g>
<!-- Node20 -->
<g id="node7" class="node">
<title>Node20</title>
<g id="a_node7"><a xlink:href="globals_8hpp.html" target="_top" xlink:title=" ">
<polygon fill="white" stroke="red" points="174.5,-56.5 174.5,-75.5 247.5,-75.5 247.5,-56.5 174.5,-56.5"/>
<text text-anchor="middle" x="211" y="-63.5" font-family="Helvetica,sans-Serif" font-size="10.00">globals.hpp</text>
</a>
</g>
</g>
<!-- Node1&#45;&gt;Node20 -->
<g id="edge20" class="edge">
<title>Node1&#45;&gt;Node20</title>
<path fill="none" stroke="midnightblue" d="M528.41,-242.94C451.45,-240.3 302.26,-231.06 262,-199 252.72,-191.61 228.42,-120.27 217.04,-85.65"/>
<polygon fill="midnightblue" stroke="midnightblue" points="220.27,-84.25 213.84,-75.83 213.61,-86.42 220.27,-84.25"/>
</g>
<!-- Node22 -->
<g id="node8" class="node">
<title>Node22</title>
<g id="a_node8"><a xlink:href="cfg__dispatcher_8hpp.html" target="_top" xlink:title=" ">
<polygon fill="white" stroke="black" points="463,-112.5 463,-131.5 585,-131.5 585,-112.5 463,-112.5"/>
<text text-anchor="middle" x="524" y="-119.5" font-family="Helvetica,sans-Serif" font-size="10.00">fw/cfg_dispatcher.hpp</text>
</a>
</g>
</g>
<!-- Node1&#45;&gt;Node22 -->
<g id="edge7" class="edge">
<title>Node1&#45;&gt;Node22</title>
<path fill="none" stroke="midnightblue" d="M573.89,-235.21C571.82,-220.69 566.58,-190.98 556,-168 551.35,-157.9 544.34,-147.71 538.06,-139.59"/>
<polygon fill="midnightblue" stroke="midnightblue" points="540.7,-137.27 531.69,-131.69 535.25,-141.67 540.7,-137.27"/>
</g>
<!-- Node23 -->
<g id="node9" class="node">
<title>Node23</title>
<g id="a_node9"><a xlink:href="core_8hpp.html" target="_top" xlink:title=" ">
<polygon fill="white" stroke="red" points="514.5,-56.5 514.5,-75.5 587.5,-75.5 587.5,-56.5 514.5,-56.5"/>
<text text-anchor="middle" x="551" y="-63.5" font-family="Helvetica,sans-Serif" font-size="10.00">fw/core.hpp</text>
</a>
</g>
</g>
<!-- Node1&#45;&gt;Node23 -->
<g id="edge13" class="edge">
<title>Node1&#45;&gt;Node23</title>
<path fill="none" stroke="midnightblue" d="M579.21,-235.3C589.08,-213.63 611.58,-155.84 594,-112 589.32,-100.33 580.01,-89.97 571.24,-82.14"/>
<polygon fill="midnightblue" stroke="midnightblue" points="573.42,-79.4 563.5,-75.7 568.95,-84.78 573.42,-79.4"/>
</g>
<!-- Node50 -->
<g id="node12" class="node">
<title>Node50</title>
<g id="a_node12"><a xlink:href="dispatcher_8hpp.html" target="_top" xlink:title=" ">
<polygon fill="white" stroke="black" points="641,-174 641,-193 743,-193 743,-174 641,-174"/>
<text text-anchor="middle" x="692" y="-181" font-family="Helvetica,sans-Serif" font-size="10.00">fw/dispatcher.hpp</text>
</a>
</g>
</g>
<!-- Node1&#45;&gt;Node50 -->
<g id="edge14" class="edge">
<title>Node1&#45;&gt;Node50</title>
<path fill="none" stroke="midnightblue" d="M591.76,-235.48C611.22,-225.58 643.55,-209.14 666.21,-197.62"/>
<polygon fill="midnightblue" stroke="midnightblue" points="667.94,-200.66 675.27,-193.01 664.77,-194.42 667.94,-200.66"/>
</g>
<!-- Node52 -->
<g id="node15" class="node">
<title>Node52</title>
<g id="a_node15"><a xlink:href="servio__pb_8hpp.html" target="_top" xlink:title=" ">
<polygon fill="white" stroke="black" points="817.5,-174 817.5,-193 916.5,-193 916.5,-174 817.5,-174"/>
<text text-anchor="middle" x="867" y="-181" font-family="Helvetica,sans-Serif" font-size="10.00">fw/servio_pb.hpp</text>
</a>
</g>
</g>
<!-- Node1&#45;&gt;Node52 -->
<g id="edge21" class="edge">
<title>Node1&#45;&gt;Node52</title>
<path fill="none" stroke="midnightblue" d="M621.56,-235.72C668.69,-227.17 743.61,-213.12 808,-199 813.02,-197.9 818.27,-196.69 823.48,-195.46"/>
<polygon fill="midnightblue" stroke="midnightblue" points="824.47,-198.82 833.37,-193.07 822.83,-192.01 824.47,-198.82"/>
</g>
<!-- Node54 -->
<g id="node17" class="node">
<title>Node54</title>
<g id="a_node17"><a xlink:href="store__persistent__config_8hpp.html" target="_top" xlink:title=" ">
<polygon fill="white" stroke="black" points="271,-168.5 271,-198.5 381,-198.5 381,-168.5 271,-168.5"/>
<text text-anchor="start" x="279" y="-186.5" font-family="Helvetica,sans-Serif" font-size="10.00">fw/store_persistent</text>
<text text-anchor="middle" x="326" y="-175.5" font-family="Helvetica,sans-Serif" font-size="10.00">_config.hpp</text>
</a>
</g>
</g>
<!-- Node1&#45;&gt;Node54 -->
<g id="edge24" class="edge">
<title>Node1&#45;&gt;Node54</title>
<path fill="none" stroke="midnightblue" d="M539.32,-235.48C500.78,-226.27 438.54,-211.39 391.21,-200.08"/>
<polygon fill="midnightblue" stroke="midnightblue" points="391.9,-196.65 381.36,-197.73 390.27,-203.46 391.9,-196.65"/>
</g>
<!-- Node57 -->
<g id="node19" class="node">
<title>Node57</title>
<g id="a_node19"><a xlink:title=" ">
<polygon fill="white" stroke="#bfbfbf" points="761,-174 761,-193 799,-193 799,-174 761,-174"/>
<text text-anchor="middle" x="780" y="-181" font-family="Helvetica,sans-Serif" font-size="10.00">git.h</text>
</a>
</g>
</g>
<!-- Node1&#45;&gt;Node57 -->
<g id="edge27" class="edge">
<title>Node1&#45;&gt;Node57</title>
<path fill="none" stroke="midnightblue" d="M620.25,-235.48C656.54,-227.95 708.43,-215.57 752,-199 753.21,-198.54 754.43,-198.04 755.66,-197.52"/>
<polygon fill="midnightblue" stroke="midnightblue" points="757.36,-200.58 764.89,-193.13 754.35,-194.26 757.36,-200.58"/>
</g>
<!-- Node58 -->
<g id="node20" class="node">
<title>Node58</title>
<g id="a_node20"><a xlink:href="load__persistent__config_8hpp.html" target="_top" xlink:title=" ">
<polygon fill="white" stroke="black" points="399.5,-174 399.5,-193 546.5,-193 546.5,-174 399.5,-174"/>
<text text-anchor="middle" x="473" y="-181" font-family="Helvetica,sans-Serif" font-size="10.00">load_persistent_config.hpp</text>
</a>
</g>
</g>
<!-- Node1&#45;&gt;Node58 -->
<g id="edge28" class="edge">
<title>Node1&#45;&gt;Node58</title>
<path fill="none" stroke="midnightblue" d="M560.39,-235.48C543.65,-225.71 516,-209.58 496.28,-198.08"/>
<polygon fill="midnightblue" stroke="midnightblue" points="497.99,-195.02 487.59,-193.01 494.46,-201.07 497.99,-195.02"/>
</g>
<!-- Node3 -->
<g id="node3" class="node">
<title>Node3</title>
<g id="a_node3"><a xlink:title=" ">
<polygon fill="white" stroke="#bfbfbf" points="265.5,-56.5 265.5,-75.5 332.5,-75.5 332.5,-56.5 265.5,-56.5"/>
<text text-anchor="middle" x="299" y="-63.5" font-family="Helvetica,sans-Serif" font-size="10.00">config.hpp</text>
</a>
</g>
</g>
<!-- Node2&#45;&gt;Node3 -->
<g id="edge2" class="edge">
<title>Node2&#45;&gt;Node3</title>
<path fill="none" stroke="midnightblue" d="M194.65,-112.44C214.96,-103.6 246.9,-89.69 270.1,-79.59"/>
<polygon fill="midnightblue" stroke="midnightblue" points="271.67,-82.72 279.44,-75.52 268.88,-76.3 271.67,-82.72"/>
</g>
<!-- Node4 -->
<g id="node4" class="node">
<title>Node4</title>
<g id="a_node4"><a xlink:href="drv__interfaces_8hpp.html" target="_top" xlink:title=" ">
<polygon fill="white" stroke="red" points="350.5,-56.5 350.5,-75.5 457.5,-75.5 457.5,-56.5 350.5,-56.5"/>
<text text-anchor="middle" x="404" y="-63.5" font-family="Helvetica,sans-Serif" font-size="10.00">drv_interfaces.hpp</text>
</a>
</g>
</g>
<!-- Node2&#45;&gt;Node4 -->
<g id="edge3" class="edge">
<title>Node2&#45;&gt;Node4</title>
<path fill="none" stroke="midnightblue" d="M211.29,-112.44C250.98,-103.08 314.71,-88.06 357.91,-77.87"/>
<polygon fill="midnightblue" stroke="midnightblue" points="358.95,-81.22 367.88,-75.52 357.35,-74.41 358.95,-81.22"/>
</g>
<!-- Node14 -->
<g id="node5" class="node">
<title>Node14</title>
<g id="a_node5"><a xlink:href="cobs__uart_8hpp.html" target="_top" xlink:title=" ">
<polygon fill="white" stroke="red" points="0,-56.5 0,-75.5 118,-75.5 118,-56.5 0,-56.5"/>
<text text-anchor="middle" x="59" y="-63.5" font-family="Helvetica,sans-Serif" font-size="10.00">fw/drv/cobs_uart.hpp</text>
</a>
</g>
</g>
<!-- Node2&#45;&gt;Node14 -->
<g id="edge4" class="edge">
<title>Node2&#45;&gt;Node14</title>
<path fill="none" stroke="midnightblue" d="M156.62,-112.44C137.78,-103.68 108.27,-89.94 86.62,-79.86"/>
<polygon fill="midnightblue" stroke="midnightblue" points="87.84,-76.56 77.29,-75.52 84.88,-82.91 87.84,-76.56"/>
</g>
<!-- Node19 -->
<g id="node6" class="node">
<title>Node19</title>
<g id="a_node6"><a xlink:href="leds_8hpp.html" target="_top" xlink:title=" ">
<polygon fill="white" stroke="red" points="253.5,-0.5 253.5,-19.5 344.5,-19.5 344.5,-0.5 253.5,-0.5"/>
<text text-anchor="middle" x="299" y="-7.5" font-family="Helvetica,sans-Serif" font-size="10.00">fw/drv/leds.hpp</text>
</a>
</g>
</g>
<!-- Node2&#45;&gt;Node19 -->
<g id="edge5" class="edge">
<title>Node2&#45;&gt;Node19</title>
<path fill="none" stroke="midnightblue" d="M169.94,-112.08C163.04,-98.61 152.87,-72.87 165,-56 182.8,-31.25 214.88,-19.92 243.2,-14.82"/>
<polygon fill="midnightblue" stroke="midnightblue" points="244.09,-18.22 253.42,-13.21 243,-11.31 244.09,-18.22"/>
</g>
<!-- Node2&#45;&gt;Node20 -->
<g id="edge6" class="edge">
<title>Node2&#45;&gt;Node20</title>
<path fill="none" stroke="midnightblue" d="M180.94,-112.08C185.98,-104.53 193.34,-93.49 199.51,-84.23"/>
<polygon fill="midnightblue" stroke="midnightblue" points="202.53,-86.01 205.17,-75.75 196.71,-82.13 202.53,-86.01"/>
</g>
<!-- Node22&#45;&gt;Node3 -->
<g id="edge8" class="edge">
<title>Node22&#45;&gt;Node3</title>
<path fill="none" stroke="midnightblue" d="M488.35,-112.44C448.77,-102.94 384.89,-87.61 342.42,-77.42"/>
<polygon fill="midnightblue" stroke="midnightblue" points="343.19,-74.01 332.65,-75.08 341.55,-80.81 343.19,-74.01"/>
</g>
<!-- Node22&#45;&gt;Node23 -->
<g id="edge9" class="edge">
<title>Node22&#45;&gt;Node23</title>
<path fill="none" stroke="midnightblue" d="M528.46,-112.08C532.15,-104.69 537.52,-93.95 542.09,-84.81"/>
<polygon fill="midnightblue" stroke="midnightblue" points="545.28,-86.26 546.62,-75.75 539.02,-83.13 545.28,-86.26"/>
</g>
<!-- Node23&#45;&gt;Node19 -->
<g id="edge11" class="edge">
<title>Node23&#45;&gt;Node19</title>
<path fill="none" stroke="midnightblue" d="M514.36,-57.15C470.77,-47.81 397.8,-32.17 349.04,-21.72"/>
<polygon fill="midnightblue" stroke="midnightblue" points="349.53,-18.25 339.02,-19.58 348.06,-25.09 349.53,-18.25"/>
</g>
<!-- Node24 -->
<g id="node10" class="node">
<title>Node24</title>
<g id="a_node10"><a xlink:href="control_8hpp.html" target="_top" xlink:title=" ">
<polygon fill="white" stroke="red" points="657.5,-0.5 657.5,-19.5 728.5,-19.5 728.5,-0.5 657.5,-0.5"/>
<text text-anchor="middle" x="693" y="-7.5" font-family="Helvetica,sans-Serif" font-size="10.00">control.hpp</text>
</a>
</g>
</g>
<!-- Node23&#45;&gt;Node24 -->
<g id="edge10" class="edge">
<title>Node23&#45;&gt;Node24</title>
<path fill="none" stroke="midnightblue" d="M573.5,-56.44C597.08,-47.48 634.32,-33.31 660.96,-23.18"/>
<polygon fill="midnightblue" stroke="midnightblue" points="662.5,-26.34 670.6,-19.52 660.01,-19.8 662.5,-26.34"/>
</g>
<!-- Node48 -->
<g id="node11" class="node">
<title>Node48</title>
<g id="a_node11"><a xlink:href="util_8hpp.html" target="_top" xlink:title=" ">
<polygon fill="white" stroke="red" points="484,-0.5 484,-19.5 552,-19.5 552,-0.5 484,-0.5"/>
<text text-anchor="middle" x="518" y="-7.5" font-family="Helvetica,sans-Serif" font-size="10.00">fw/util.hpp</text>
</a>
</g>
</g>
<!-- Node23&#45;&gt;Node48 -->
<g id="edge12" class="edge">
<title>Node23&#45;&gt;Node48</title>
<path fill="none" stroke="midnightblue" d="M545.55,-56.08C540.99,-48.61 534.33,-37.72 528.71,-28.52"/>
<polygon fill="midnightblue" stroke="midnightblue" points="531.55,-26.46 523.35,-19.75 525.58,-30.11 531.55,-26.46"/>
</g>
<!-- Node50&#45;&gt;Node22 -->
<g id="edge16" class="edge">
<title>Node50&#45;&gt;Node22</title>
<path fill="none" stroke="midnightblue" d="M667.93,-173.98C638.99,-163.72 590.24,-146.46 557.6,-134.9"/>
<polygon fill="midnightblue" stroke="midnightblue" points="558.62,-131.55 548.03,-131.51 556.28,-138.15 558.62,-131.55"/>
</g>
<!-- Node50&#45;&gt;Node24 -->
<g id="edge15" class="edge">
<title>Node50&#45;&gt;Node24</title>
<path fill="none" stroke="midnightblue" d="M710.46,-173.85C725.81,-165.53 746.62,-151.36 756,-132 759.88,-124 758.45,-120.55 756,-112 746.53,-78.92 722.73,-46.15 707.24,-27.27"/>
<polygon fill="midnightblue" stroke="midnightblue" points="709.92,-25.02 700.8,-19.63 704.57,-29.53 709.92,-25.02"/>
</g>
<!-- Node37 -->
<g id="node13" class="node">
<title>Node37</title>
<g id="a_node13"><a xlink:href="conversion_8hpp.html" target="_top" xlink:title=" ">
<polygon fill="white" stroke="red" points="641.5,-112.5 641.5,-131.5 746.5,-131.5 746.5,-112.5 641.5,-112.5"/>
<text text-anchor="middle" x="694" y="-119.5" font-family="Helvetica,sans-Serif" font-size="10.00">fw/conversion.hpp</text>
</a>
</g>
</g>
<!-- Node50&#45;&gt;Node37 -->
<g id="edge17" class="edge">
<title>Node50&#45;&gt;Node37</title>
<path fill="none" stroke="midnightblue" d="M692.29,-173.98C692.57,-165.58 693.01,-152.48 693.37,-141.66"/>
<polygon fill="midnightblue" stroke="midnightblue" points="696.88,-141.62 693.71,-131.51 689.88,-141.39 696.88,-141.62"/>
</g>
<!-- Node51 -->
<g id="node14" class="node">
<title>Node51</title>
<g id="a_node14"><a xlink:title=" ">
<polygon fill="white" stroke="#bfbfbf" points="803,-112.5 803,-131.5 853,-131.5 853,-112.5 803,-112.5"/>
<text text-anchor="middle" x="828" y="-119.5" font-family="Helvetica,sans-Serif" font-size="10.00">io.pb.h</text>
</a>
</g>
</g>
<!-- Node50&#45;&gt;Node51 -->
<g id="edge19" class="edge">
<title>Node50&#45;&gt;Node51</title>
<path fill="none" stroke="midnightblue" d="M711.49,-173.98C734.41,-163.95 772.69,-147.2 799.08,-135.65"/>
<polygon fill="midnightblue" stroke="midnightblue" points="800.79,-138.72 808.55,-131.51 797.99,-132.31 800.79,-138.72"/>
</g>
<!-- Node37&#45;&gt;Node4 -->
<g id="edge18" class="edge">
<title>Node37&#45;&gt;Node4</title>
<path fill="none" stroke="midnightblue" d="M648.05,-112.44C596.93,-102.92 514.35,-87.55 459.62,-77.36"/>
<polygon fill="midnightblue" stroke="midnightblue" points="460.21,-73.91 449.74,-75.52 458.93,-80.79 460.21,-73.91"/>
</g>
<!-- Node52&#45;&gt;Node51 -->
<g id="edge23" class="edge">
<title>Node52&#45;&gt;Node51</title>
<path fill="none" stroke="midnightblue" d="M861.41,-173.98C855.62,-165.14 846.41,-151.09 839.13,-139.98"/>
<polygon fill="midnightblue" stroke="midnightblue" points="841.99,-137.95 833.58,-131.51 836.13,-141.79 841.99,-137.95"/>
</g>
<!-- Node53 -->
<g id="node16" class="node">
<title>Node53</title>
<g id="a_node16"><a xlink:title=" ">
<polygon fill="white" stroke="#bfbfbf" points="871.5,-112.5 871.5,-131.5 970.5,-131.5 970.5,-112.5 871.5,-112.5"/>
<text text-anchor="middle" x="921" y="-119.5" font-family="Helvetica,sans-Serif" font-size="10.00">emlabcpp/view.h</text>
</a>
</g>
</g>
<!-- Node52&#45;&gt;Node53 -->
<g id="edge22" class="edge">
<title>Node52&#45;&gt;Node53</title>
<path fill="none" stroke="midnightblue" d="M874.74,-173.98C883,-164.87 896.28,-150.24 906.49,-138.98"/>
<polygon fill="midnightblue" stroke="midnightblue" points="909.15,-141.27 913.28,-131.51 903.97,-136.56 909.15,-141.27"/>
</g>
<!-- Node55 -->
<g id="node18" class="node">
<title>Node55</title>
<g id="a_node18"><a xlink:href="storage_8hpp.html" target="_top" xlink:title=" ">
<polygon fill="white" stroke="red" points="280,-112.5 280,-131.5 372,-131.5 372,-112.5 280,-112.5"/>
<text text-anchor="middle" x="326" y="-119.5" font-family="Helvetica,sans-Serif" font-size="10.00">cfg/storage.hpp</text>
</a>
</g>
</g>
<!-- Node54&#45;&gt;Node55 -->
<g id="edge25" class="edge">
<title>Node54&#45;&gt;Node55</title>
<path fill="none" stroke="midnightblue" d="M326,-168.4C326,-160.47 326,-150.46 326,-141.86"/>
<polygon fill="midnightblue" stroke="midnightblue" points="329.5,-141.66 326,-131.66 322.5,-141.66 329.5,-141.66"/>
</g>
<!-- Node55&#45;&gt;Node3 -->
<g id="edge26" class="edge">
<title>Node55&#45;&gt;Node3</title>
<path fill="none" stroke="midnightblue" d="M321.54,-112.08C317.85,-104.69 312.48,-93.95 307.91,-84.81"/>
<polygon fill="midnightblue" stroke="midnightblue" points="310.98,-83.13 303.38,-75.75 304.72,-86.26 310.98,-83.13"/>
</g>
<!-- Node58&#45;&gt;Node48 -->
<g id="edge30" class="edge">
<title>Node58&#45;&gt;Node48</title>
<path fill="none" stroke="midnightblue" d="M467.54,-173.79C459.89,-160.44 447.57,-134.16 454,-112 463.63,-78.81 487.81,-46.07 503.53,-27.23"/>
<polygon fill="midnightblue" stroke="midnightblue" points="506.22,-29.47 510.08,-19.6 500.91,-24.91 506.22,-29.47"/>
</g>
<!-- Node58&#45;&gt;Node55 -->
<g id="edge29" class="edge">
<title>Node58&#45;&gt;Node55</title>
<path fill="none" stroke="midnightblue" d="M451.94,-173.98C426.94,-163.86 385.06,-146.9 356.51,-135.35"/>
<polygon fill="midnightblue" stroke="midnightblue" points="357.61,-132.02 347.02,-131.51 354.98,-138.51 357.61,-132.02"/>
</g>
</g>
</svg>
