<?xml version="1.0" encoding="UTF-8" standalone="no"?>
<!DOCTYPE svg PUBLIC "-//W3C//DTD SVG 1.1//EN"
 "http://www.w3.org/Graphics/SVG/1.1/DTD/svg11.dtd">
<!-- Generated by graphviz version 2.43.0 (0)
 -->
<!-- Title: src/fw/setup.hpp Pages: 1 -->
<svg width="799pt" height="330pt"
 viewBox="0.00 0.00 799.14 330.00" xmlns="http://www.w3.org/2000/svg" xmlns:xlink="http://www.w3.org/1999/xlink">
<g id="graph0" class="graph" transform="scale(1 1) rotate(0) translate(4 326)">
<title>src/fw/setup.hpp</title>
<polygon fill="white" stroke="transparent" points="-4,4 -4,-326 795.14,-326 795.14,4 -4,4"/>
<!-- Node1 -->
<g id="node1" class="node">
<title>Node1</title>
<g id="a_node1"><a xlink:title=" ">
<polygon fill="#bfbfbf" stroke="black" points="418.5,-302.5 418.5,-321.5 514.5,-321.5 514.5,-302.5 418.5,-302.5"/>
<text text-anchor="middle" x="466.5" y="-309.5" font-family="Helvetica,sans-Serif" font-size="10.00">src/fw/setup.hpp</text>
</a>
</g>
</g>
<!-- Node2 -->
<g id="node2" class="node">
<title>Node2</title>
<g id="a_node2"><a xlink:href="cfg_2dispatcher_8hpp.html" target="_top" xlink:title=" ">
<polygon fill="white" stroke="black" points="672.5,-123.5 672.5,-142.5 778.5,-142.5 778.5,-123.5 672.5,-123.5"/>
<text text-anchor="middle" x="725.5" y="-130.5" font-family="Helvetica,sans-Serif" font-size="10.00">cfg/dispatcher.hpp</text>
</a>
</g>
</g>
<!-- Node1&#45;&gt;Node2 -->
<g id="edge1" class="edge">
<title>Node1&#45;&gt;Node2</title>
<path fill="none" stroke="midnightblue" d="M478.99,-302.46C520.27,-274.26 652.58,-183.83 704.4,-148.42"/>
<polygon fill="midnightblue" stroke="midnightblue" points="706.55,-151.19 712.83,-142.66 702.6,-145.41 706.55,-151.19"/>
</g>
<!-- Node13 -->
<g id="node5" class="node">
<title>Node13</title>
<g id="a_node5"><a xlink:href="core_8hpp.html" target="_top" xlink:title=" ">
<polygon fill="white" stroke="red" points="684,-62 684,-81 767,-81 767,-62 684,-62"/>
<text text-anchor="middle" x="725.5" y="-69" font-family="Helvetica,sans-Serif" font-size="10.00">core/core.hpp</text>
</a>
</g>
</g>
<!-- Node1&#45;&gt;Node13 -->
<g id="edge7" class="edge">
<title>Node1&#45;&gt;Node13</title>
<path fill="none" stroke="midnightblue" d="M513.14,-302.47C586.84,-286.19 727.96,-242.98 787.5,-143 800.55,-121.09 774.49,-99.63 752.26,-86.25"/>
<polygon fill="midnightblue" stroke="midnightblue" points="753.82,-83.11 743.39,-81.2 750.35,-89.2 753.82,-83.11"/>
</g>
<!-- Node39 -->
<g id="node7" class="node">
<title>Node39</title>
<g id="a_node7"><a xlink:href="drivers_8hpp.html" target="_top" xlink:title=" ">
<polygon fill="white" stroke="black" points="5,-123.5 5,-142.5 100,-142.5 100,-123.5 5,-123.5"/>
<text text-anchor="middle" x="52.5" y="-130.5" font-family="Helvetica,sans-Serif" font-size="10.00">core/drivers.hpp</text>
</a>
</g>
</g>
<!-- Node1&#45;&gt;Node39 -->
<g id="edge8" class="edge">
<title>Node1&#45;&gt;Node39</title>
<path fill="none" stroke="midnightblue" d="M418.04,-305.41C367.33,-298.83 285.75,-286.17 217.5,-266 155.6,-247.71 128.95,-255.84 83.5,-210 67.86,-194.23 59.78,-169.49 55.84,-152.55"/>
<polygon fill="midnightblue" stroke="midnightblue" points="59.26,-151.81 53.82,-142.72 52.41,-153.22 59.26,-151.81"/>
</g>
<!-- Node41 -->
<g id="node10" class="node">
<title>Node41</title>
<g id="a_node10"><a xlink:href="cfg__context_8hpp.html" target="_top" xlink:title=" ">
<polygon fill="white" stroke="black" points="227,-246.5 227,-265.5 336,-265.5 336,-246.5 227,-246.5"/>
<text text-anchor="middle" x="281.5" y="-253.5" font-family="Helvetica,sans-Serif" font-size="10.00">fw/cfg_context.hpp</text>
</a>
</g>
</g>
<!-- Node1&#45;&gt;Node41 -->
<g id="edge11" class="edge">
<title>Node1&#45;&gt;Node41</title>
<path fill="none" stroke="midnightblue" d="M437.19,-302.44C405.66,-293.24 355.37,-278.56 320.51,-268.39"/>
<polygon fill="midnightblue" stroke="midnightblue" points="321.26,-264.96 310.68,-265.52 319.3,-271.68 321.26,-264.96"/>
</g>
<!-- Node47 -->
<g id="node15" class="node">
<title>Node47</title>
<g id="a_node15"><a xlink:href="fw_2dispatcher_8hpp.html" target="_top" xlink:title=" ">
<polygon fill="white" stroke="black" points="415.5,-185 415.5,-204 517.5,-204 517.5,-185 415.5,-185"/>
<text text-anchor="middle" x="466.5" y="-192" font-family="Helvetica,sans-Serif" font-size="10.00">fw/dispatcher.hpp</text>
</a>
</g>
</g>
<!-- Node1&#45;&gt;Node47 -->
<g id="edge22" class="edge">
<title>Node1&#45;&gt;Node47</title>
<path fill="none" stroke="midnightblue" d="M466.5,-302.32C466.5,-283.76 466.5,-239.84 466.5,-214.47"/>
<polygon fill="midnightblue" stroke="midnightblue" points="470,-214.28 466.5,-204.28 463,-214.28 470,-214.28"/>
</g>
<!-- Node3 -->
<g id="node3" class="node">
<title>Node3</title>
<g id="a_node3"><a xlink:href="key_8hpp.html" target="_top" xlink:title=" ">
<polygon fill="white" stroke="red" points="429,-0.5 429,-19.5 500,-19.5 500,-0.5 429,-0.5"/>
<text text-anchor="middle" x="464.5" y="-7.5" font-family="Helvetica,sans-Serif" font-size="10.00">cfg/key.hpp</text>
</a>
</g>
</g>
<!-- Node2&#45;&gt;Node3 -->
<g id="edge2" class="edge">
<title>Node2&#45;&gt;Node3</title>
<path fill="none" stroke="midnightblue" d="M707.15,-123.49C662.14,-102.63 546.08,-48.82 492.44,-23.95"/>
<polygon fill="midnightblue" stroke="midnightblue" points="493.73,-20.69 483.18,-19.66 490.78,-27.04 493.73,-20.69"/>
</g>
<!-- Node5 -->
<g id="node4" class="node">
<title>Node5</title>
<g id="a_node4"><a xlink:href="map_8hpp.html" target="_top" xlink:title=" ">
<polygon fill="white" stroke="red" points="324,-62 324,-81 401,-81 401,-62 324,-62"/>
<text text-anchor="middle" x="362.5" y="-69" font-family="Helvetica,sans-Serif" font-size="10.00">cfg/map.hpp</text>
</a>
</g>
</g>
<!-- Node2&#45;&gt;Node5 -->
<g id="edge3" class="edge">
<title>Node2&#45;&gt;Node5</title>
<path fill="none" stroke="midnightblue" d="M673.49,-123.48C603.38,-111.98 479.48,-91.67 411.14,-80.47"/>
<polygon fill="midnightblue" stroke="midnightblue" points="411.5,-76.99 401.07,-78.82 410.37,-83.89 411.5,-76.99"/>
</g>
<!-- Node2&#45;&gt;Node13 -->
<g id="edge5" class="edge">
<title>Node2&#45;&gt;Node13</title>
<path fill="none" stroke="midnightblue" d="M725.5,-123.48C725.5,-115.08 725.5,-101.98 725.5,-91.16"/>
<polygon fill="midnightblue" stroke="midnightblue" points="729,-91.01 725.5,-81.01 722,-91.01 729,-91.01"/>
</g>
<!-- Node5&#45;&gt;Node3 -->
<g id="edge4" class="edge">
<title>Node5&#45;&gt;Node3</title>
<path fill="none" stroke="midnightblue" d="M377.11,-61.98C393.85,-52.21 421.5,-36.08 441.22,-24.58"/>
<polygon fill="midnightblue" stroke="midnightblue" points="443.04,-27.57 449.91,-19.51 439.51,-21.52 443.04,-27.57"/>
</g>
<!-- Node21 -->
<g id="node6" class="node">
<title>Node21</title>
<g id="a_node6"><a xlink:href="control_8hpp.html" target="_top" xlink:title=" ">
<polygon fill="white" stroke="red" points="600.5,-0.5 600.5,-19.5 686.5,-19.5 686.5,-0.5 600.5,-0.5"/>
<text text-anchor="middle" x="643.5" y="-7.5" font-family="Helvetica,sans-Serif" font-size="10.00">ctl/control.hpp</text>
</a>
</g>
</g>
<!-- Node13&#45;&gt;Node21 -->
<g id="edge6" class="edge">
<title>Node13&#45;&gt;Node21</title>
<path fill="none" stroke="midnightblue" d="M713.75,-61.98C700.72,-52.52 679.46,-37.1 663.74,-25.69"/>
<polygon fill="midnightblue" stroke="midnightblue" points="665.38,-22.55 655.23,-19.51 661.27,-28.21 665.38,-22.55"/>
</g>
<!-- Node18 -->
<g id="node8" class="node">
<title>Node18</title>
<g id="a_node8"><a xlink:href="interfaces_8hpp.html" target="_top" xlink:title=" ">
<polygon fill="white" stroke="red" points="0,-62 0,-81 105,-81 105,-62 0,-62"/>
<text text-anchor="middle" x="52.5" y="-69" font-family="Helvetica,sans-Serif" font-size="10.00">drv/interfaces.hpp</text>
</a>
</g>
</g>
<!-- Node39&#45;&gt;Node18 -->
<g id="edge9" class="edge">
<title>Node39&#45;&gt;Node18</title>
<path fill="none" stroke="midnightblue" d="M52.5,-123.48C52.5,-115.08 52.5,-101.98 52.5,-91.16"/>
<polygon fill="midnightblue" stroke="midnightblue" points="56,-91.01 52.5,-81.01 49,-91.01 56,-91.01"/>
</g>
<!-- Node40 -->
<g id="node9" class="node">
<title>Node40</title>
<g id="a_node9"><a xlink:title=" ">
<polygon fill="white" stroke="#bfbfbf" points="136,-56.5 136,-86.5 269,-86.5 269,-56.5 136,-56.5"/>
<text text-anchor="start" x="144" y="-74.5" font-family="Helvetica,sans-Serif" font-size="10.00">emlabcpp/experimental</text>
<text text-anchor="middle" x="202.5" y="-63.5" font-family="Helvetica,sans-Serif" font-size="10.00">/function_view.h</text>
</a>
</g>
</g>
<!-- Node39&#45;&gt;Node40 -->
<g id="edge10" class="edge">
<title>Node39&#45;&gt;Node40</title>
<path fill="none" stroke="midnightblue" d="M73.99,-123.48C95.73,-114.85 129.99,-101.26 157.66,-90.29"/>
<polygon fill="midnightblue" stroke="midnightblue" points="159.14,-93.46 167.15,-86.52 156.56,-86.96 159.14,-93.46"/>
</g>
<!-- Node41&#45;&gt;Node5 -->
<g id="edge15" class="edge">
<title>Node41&#45;&gt;Node5</title>
<path fill="none" stroke="midnightblue" d="M300.47,-246.44C314.75,-238.95 333.51,-226.65 343.5,-210 365.94,-172.58 366.14,-119.31 364.34,-91.33"/>
<polygon fill="midnightblue" stroke="midnightblue" points="367.82,-91 363.53,-81.31 360.84,-91.56 367.82,-91"/>
</g>
<!-- Node42 -->
<g id="node11" class="node">
<title>Node42</title>
<g id="a_node11"><a xlink:href="brd_8hpp.html" target="_top" xlink:title=" ">
<polygon fill="white" stroke="black" points="92.5,-185 92.5,-204 164.5,-204 164.5,-185 92.5,-185"/>
<text text-anchor="middle" x="128.5" y="-192" font-family="Helvetica,sans-Serif" font-size="10.00">brd/brd.hpp</text>
</a>
</g>
</g>
<!-- Node41&#45;&gt;Node42 -->
<g id="edge12" class="edge">
<title>Node41&#45;&gt;Node42</title>
<path fill="none" stroke="midnightblue" d="M259.58,-246.48C233.45,-236.31 189.59,-219.26 159.87,-207.7"/>
<polygon fill="midnightblue" stroke="midnightblue" points="160.97,-204.37 150.38,-204.01 158.43,-210.9 160.97,-204.37"/>
</g>
<!-- Node43 -->
<g id="node12" class="node">
<title>Node43</title>
<g id="a_node12"><a xlink:href="storage_8hpp.html" target="_top" xlink:title=" ">
<polygon fill="white" stroke="red" points="156.5,-123.5 156.5,-142.5 248.5,-142.5 248.5,-123.5 156.5,-123.5"/>
<text text-anchor="middle" x="202.5" y="-130.5" font-family="Helvetica,sans-Serif" font-size="10.00">cfg/storage.hpp</text>
</a>
</g>
</g>
<!-- Node41&#45;&gt;Node43 -->
<g id="edge16" class="edge">
<title>Node41&#45;&gt;Node43</title>
<path fill="none" stroke="midnightblue" d="M263.19,-246.36C249.09,-238.75 230.24,-226.34 219.5,-210 208.26,-192.91 204.37,-169.48 203.07,-153.17"/>
<polygon fill="midnightblue" stroke="midnightblue" points="206.54,-152.54 202.51,-142.74 199.55,-152.92 206.54,-152.54"/>
</g>
<!-- Node44 -->
<g id="node13" class="node">
<title>Node44</title>
<g id="a_node13"><a xlink:href="load__persistent__config_8hpp.html" target="_top" xlink:title=" ">
<polygon fill="white" stroke="black" points="228.5,-179.5 228.5,-209.5 334.5,-209.5 334.5,-179.5 228.5,-179.5"/>
<text text-anchor="start" x="236.5" y="-197.5" font-family="Helvetica,sans-Serif" font-size="10.00">fw/load_persistent</text>
<text text-anchor="middle" x="281.5" y="-186.5" font-family="Helvetica,sans-Serif" font-size="10.00">_config.hpp</text>
</a>
</g>
</g>
<!-- Node41&#45;&gt;Node44 -->
<g id="edge19" class="edge">
<title>Node41&#45;&gt;Node44</title>
<path fill="none" stroke="midnightblue" d="M281.5,-246.48C281.5,-239.47 281.5,-229.19 281.5,-219.7"/>
<polygon fill="midnightblue" stroke="midnightblue" points="285,-219.52 281.5,-209.52 278,-219.52 285,-219.52"/>
</g>
<!-- Node42&#45;&gt;Node5 -->
<g id="edge13" class="edge">
<title>Node42&#45;&gt;Node5</title>
<path fill="none" stroke="midnightblue" d="M128.19,-184.73C128.16,-169.83 130.38,-139.57 147.5,-123 159.45,-111.44 253.92,-92.36 313.59,-81.26"/>
<polygon fill="midnightblue" stroke="midnightblue" points="314.38,-84.67 323.58,-79.41 313.11,-77.79 314.38,-84.67"/>
</g>
<!-- Node42&#45;&gt;Node39 -->
<g id="edge14" class="edge">
<title>Node42&#45;&gt;Node39</title>
<path fill="none" stroke="midnightblue" d="M117.61,-184.98C105.53,-175.52 85.83,-160.1 71.26,-148.69"/>
<polygon fill="midnightblue" stroke="midnightblue" points="73.4,-145.92 63.37,-142.51 69.09,-151.43 73.4,-145.92"/>
</g>
<!-- Node43&#45;&gt;Node5 -->
<g id="edge17" class="edge">
<title>Node43&#45;&gt;Node5</title>
<path fill="none" stroke="midnightblue" d="M225.42,-123.48C252.87,-113.27 299.02,-96.11 330.1,-84.55"/>
<polygon fill="midnightblue" stroke="midnightblue" points="331.47,-87.78 339.62,-81.01 329.03,-81.21 331.47,-87.78"/>
</g>
<!-- Node43&#45;&gt;Node40 -->
<g id="edge18" class="edge">
<title>Node43&#45;&gt;Node40</title>
<path fill="none" stroke="midnightblue" d="M202.5,-123.48C202.5,-116.47 202.5,-106.19 202.5,-96.7"/>
<polygon fill="midnightblue" stroke="midnightblue" points="206,-96.52 202.5,-86.52 199,-96.52 206,-96.52"/>
</g>
<!-- Node44&#45;&gt;Node43 -->
<g id="edge20" class="edge">
<title>Node44&#45;&gt;Node43</title>
<path fill="none" stroke="midnightblue" d="M262.78,-179.4C250.59,-170.22 234.71,-158.26 222.31,-148.92"/>
<polygon fill="midnightblue" stroke="midnightblue" points="224.09,-145.88 214,-142.66 219.88,-151.47 224.09,-145.88"/>
</g>
<!-- Node45 -->
<g id="node14" class="node">
<title>Node45</title>
<g id="a_node14"><a xlink:href="util_8hpp.html" target="_top" xlink:title=" ">
<polygon fill="white" stroke="red" points="266.5,-123.5 266.5,-142.5 334.5,-142.5 334.5,-123.5 266.5,-123.5"/>
<text text-anchor="middle" x="300.5" y="-130.5" font-family="Helvetica,sans-Serif" font-size="10.00">fw/util.hpp</text>
</a>
</g>
</g>
<!-- Node44&#45;&gt;Node45 -->
<g id="edge21" class="edge">
<title>Node44&#45;&gt;Node45</title>
<path fill="none" stroke="midnightblue" d="M286,-179.4C288.59,-171.29 291.88,-161.01 294.66,-152.28"/>
<polygon fill="midnightblue" stroke="midnightblue" points="298.03,-153.25 297.74,-142.66 291.36,-151.12 298.03,-153.25"/>
</g>
<!-- Node47&#45;&gt;Node2 -->
<g id="edge23" class="edge">
<title>Node47&#45;&gt;Node2</title>
<path fill="none" stroke="midnightblue" d="M503.61,-184.98C549.67,-174.39 628.27,-156.34 678.5,-144.8"/>
<polygon fill="midnightblue" stroke="midnightblue" points="679.5,-148.16 688.46,-142.51 677.93,-141.34 679.5,-148.16"/>
</g>
<!-- Node47&#45;&gt;Node21 -->
<g id="edge24" class="edge">
<title>Node47&#45;&gt;Node21</title>
<path fill="none" stroke="midnightblue" d="M462.11,-184.6C455.87,-170.54 446.33,-142.77 457.5,-123 488.19,-68.69 556.93,-37.8 601.69,-22.74"/>
<polygon fill="midnightblue" stroke="midnightblue" points="602.98,-26 611.41,-19.59 600.82,-19.34 602.98,-26"/>
</g>
<!-- Node47&#45;&gt;Node40 -->
<g id="edge27" class="edge">
<title>Node47&#45;&gt;Node40</title>
<path fill="none" stroke="midnightblue" d="M453.26,-184.87C431.16,-170.7 385.07,-142.18 343.5,-123 315.97,-110.3 284.27,-98.69 257.9,-89.82"/>
<polygon fill="midnightblue" stroke="midnightblue" points="258.67,-86.39 248.08,-86.55 256.46,-93.03 258.67,-86.39"/>
</g>
<!-- Node47&#45;&gt;Node45 -->
<g id="edge26" class="edge">
<title>Node47&#45;&gt;Node45</title>
<path fill="none" stroke="midnightblue" d="M442.72,-184.98C414.12,-174.72 365.95,-157.46 333.7,-145.9"/>
<polygon fill="midnightblue" stroke="midnightblue" points="334.83,-142.59 324.24,-142.51 332.47,-149.18 334.83,-142.59"/>
</g>
<!-- Node48 -->
<g id="node16" class="node">
<title>Node48</title>
<g id="a_node16"><a xlink:title=" ">
<polygon fill="white" stroke="#bfbfbf" points="535,-123.5 535,-142.5 654,-142.5 654,-123.5 535,-123.5"/>
<text text-anchor="middle" x="594.5" y="-130.5" font-family="Helvetica,sans-Serif" font-size="10.00">emlabcpp/outcome.h</text>
</a>
</g>
</g>
<!-- Node47&#45;&gt;Node48 -->
<g id="edge25" class="edge">
<title>Node47&#45;&gt;Node48</title>
<path fill="none" stroke="midnightblue" d="M484.84,-184.98C506.32,-174.99 542.12,-158.35 566.95,-146.81"/>
<polygon fill="midnightblue" stroke="midnightblue" points="568.6,-149.9 576.19,-142.51 565.65,-143.55 568.6,-149.9"/>
</g>
<!-- Node49 -->
<g id="node17" class="node">
<title>Node49</title>
<g id="a_node17"><a xlink:title=" ">
<polygon fill="white" stroke="#bfbfbf" points="466.5,-123.5 466.5,-142.5 516.5,-142.5 516.5,-123.5 466.5,-123.5"/>
<text text-anchor="middle" x="491.5" y="-130.5" font-family="Helvetica,sans-Serif" font-size="10.00">io.pb.h</text>
</a>
</g>
</g>
<!-- Node47&#45;&gt;Node49 -->
<g id="edge28" class="edge">
<title>Node47&#45;&gt;Node49</title>
<path fill="none" stroke="midnightblue" d="M470.08,-184.98C473.68,-176.4 479.35,-162.93 483.94,-151.98"/>
<polygon fill="midnightblue" stroke="midnightblue" points="487.28,-153.08 487.92,-142.51 480.82,-150.37 487.28,-153.08"/>
</g>
</g>
</svg>
