<?xml version="1.0" encoding="UTF-8" standalone="no"?>
<!DOCTYPE svg PUBLIC "-//W3C//DTD SVG 1.1//EN"
 "http://www.w3.org/Graphics/SVG/1.1/DTD/svg11.dtd">
<!-- Generated by graphviz version 2.43.0 (0)
 -->
<!-- Title: src/fw/main.cpp Pages: 1 -->
<svg width="855pt" height="263pt"
 viewBox="0.00 0.00 855.00 263.00" xmlns="http://www.w3.org/2000/svg" xmlns:xlink="http://www.w3.org/1999/xlink">
<g id="graph0" class="graph" transform="scale(1 1) rotate(0) translate(4 259)">
<title>src/fw/main.cpp</title>
<polygon fill="white" stroke="transparent" points="-4,4 -4,-259 851,-259 851,4 -4,4"/>
<!-- Node1 -->
<g id="node1" class="node">
<title>Node1</title>
<g id="a_node1"><a xlink:title=" ">
<polygon fill="#bfbfbf" stroke="black" points="282,-235.5 282,-254.5 375,-254.5 375,-235.5 282,-235.5"/>
<text text-anchor="middle" x="328.5" y="-242.5" font-family="Helvetica,sans-Serif" font-size="10.00">src/fw/main.cpp</text>
</a>
</g>
</g>
<!-- Node2 -->
<g id="node2" class="node">
<title>Node2</title>
<g id="a_node2"><a xlink:href="board_8hpp.html" target="_top" xlink:title=" ">
<polygon fill="white" stroke="black" points="50.5,-112.5 50.5,-131.5 130.5,-131.5 130.5,-112.5 50.5,-112.5"/>
<text text-anchor="middle" x="90.5" y="-119.5" font-family="Helvetica,sans-Serif" font-size="10.00">fw/board.hpp</text>
</a>
</g>
</g>
<!-- Node1&#45;&gt;Node2 -->
<g id="edge1" class="edge">
<title>Node1&#45;&gt;Node2</title>
<path fill="none" stroke="midnightblue" d="M281.76,-241.58C242.22,-237.54 185.58,-226.89 144.5,-199 123.01,-184.41 107.24,-158.24 98.46,-140.75"/>
<polygon fill="midnightblue" stroke="midnightblue" points="101.57,-139.13 94.12,-131.6 95.25,-142.14 101.57,-139.13"/>
</g>
<!-- Node17 -->
<g id="node6" class="node">
<title>Node17</title>
<g id="a_node6"><a xlink:href="globals_8hpp.html" target="_top" xlink:title=" ">
<polygon fill="white" stroke="red" points="0,-56.5 0,-75.5 73,-75.5 73,-56.5 0,-56.5"/>
<text text-anchor="middle" x="36.5" y="-63.5" font-family="Helvetica,sans-Serif" font-size="10.00">globals.hpp</text>
</a>
</g>
</g>
<!-- Node1&#45;&gt;Node17 -->
<g id="edge19" class="edge">
<title>Node1&#45;&gt;Node17</title>
<path fill="none" stroke="midnightblue" d="M281.97,-241.77C236.24,-237.93 165.65,-227.47 111.5,-199 73.38,-178.96 59.92,-170.93 41.5,-132 34.69,-117.61 33.85,-99.42 34.48,-85.94"/>
<polygon fill="midnightblue" stroke="midnightblue" points="37.98,-86.16 35.26,-75.92 31,-85.62 37.98,-86.16"/>
</g>
<!-- Node19 -->
<g id="node7" class="node">
<title>Node19</title>
<g id="a_node7"><a xlink:href="cfg__dispatcher_8hpp.html" target="_top" xlink:title=" ">
<polygon fill="white" stroke="black" points="310.5,-112.5 310.5,-131.5 432.5,-131.5 432.5,-112.5 310.5,-112.5"/>
<text text-anchor="middle" x="371.5" y="-119.5" font-family="Helvetica,sans-Serif" font-size="10.00">fw/cfg_dispatcher.hpp</text>
</a>
</g>
</g>
<!-- Node1&#45;&gt;Node19 -->
<g id="edge6" class="edge">
<title>Node1&#45;&gt;Node19</title>
<path fill="none" stroke="midnightblue" d="M309.2,-235.48C295.07,-228.08 276.94,-215.89 268.5,-199 262.34,-186.68 260.96,-179.53 268.5,-168 279,-151.95 296.63,-141.59 314.35,-134.92"/>
<polygon fill="midnightblue" stroke="midnightblue" points="315.83,-138.11 324.17,-131.58 313.57,-131.49 315.83,-138.11"/>
</g>
<!-- Node20 -->
<g id="node8" class="node">
<title>Node20</title>
<g id="a_node8"><a xlink:href="core_8hpp.html" target="_top" xlink:title=" ">
<polygon fill="white" stroke="red" points="260,-56.5 260,-75.5 333,-75.5 333,-56.5 260,-56.5"/>
<text text-anchor="middle" x="296.5" y="-63.5" font-family="Helvetica,sans-Serif" font-size="10.00">fw/core.hpp</text>
</a>
</g>
</g>
<!-- Node1&#45;&gt;Node20 -->
<g id="edge12" class="edge">
<title>Node1&#45;&gt;Node20</title>
<path fill="none" stroke="midnightblue" d="M305.87,-235.38C270.58,-220.52 203.87,-186.33 178.5,-132 174.74,-123.95 173.46,-119.32 178.5,-112 187.3,-99.23 222.42,-86.82 252.08,-78.29"/>
<polygon fill="midnightblue" stroke="midnightblue" points="253.2,-81.61 261.89,-75.54 251.31,-74.87 253.2,-81.61"/>
</g>
<!-- Node48 -->
<g id="node11" class="node">
<title>Node48</title>
<g id="a_node11"><a xlink:href="dispatcher_8hpp.html" target="_top" xlink:title=" ">
<polygon fill="white" stroke="black" points="277.5,-174 277.5,-193 379.5,-193 379.5,-174 277.5,-174"/>
<text text-anchor="middle" x="328.5" y="-181" font-family="Helvetica,sans-Serif" font-size="10.00">fw/dispatcher.hpp</text>
</a>
</g>
</g>
<!-- Node1&#45;&gt;Node48 -->
<g id="edge13" class="edge">
<title>Node1&#45;&gt;Node48</title>
<path fill="none" stroke="midnightblue" d="M328.5,-235.48C328.5,-227.08 328.5,-213.98 328.5,-203.16"/>
<polygon fill="midnightblue" stroke="midnightblue" points="332,-203.01 328.5,-193.01 325,-203.01 332,-203.01"/>
</g>
<!-- Node50 -->
<g id="node14" class="node">
<title>Node50</title>
<g id="a_node14"><a xlink:href="servio__pb_8hpp.html" target="_top" xlink:title=" ">
<polygon fill="white" stroke="black" points="748,-174 748,-193 847,-193 847,-174 748,-174"/>
<text text-anchor="middle" x="797.5" y="-181" font-family="Helvetica,sans-Serif" font-size="10.00">fw/servio_pb.hpp</text>
</a>
</g>
</g>
<!-- Node1&#45;&gt;Node50 -->
<g id="edge20" class="edge">
<title>Node1&#45;&gt;Node50</title>
<path fill="none" stroke="midnightblue" d="M375.21,-240.89C451.61,-235.34 607.88,-222.12 738.5,-199 744.29,-197.98 750.35,-196.71 756.3,-195.36"/>
<polygon fill="midnightblue" stroke="midnightblue" points="757.2,-198.74 766.13,-193.02 755.59,-191.93 757.2,-198.74"/>
</g>
<!-- Node52 -->
<g id="node16" class="node">
<title>Node52</title>
<g id="a_node16"><a xlink:href="store__persistent__config_8hpp.html" target="_top" xlink:title=" ">
<polygon fill="white" stroke="black" points="397.5,-168.5 397.5,-198.5 507.5,-198.5 507.5,-168.5 397.5,-168.5"/>
<text text-anchor="start" x="405.5" y="-186.5" font-family="Helvetica,sans-Serif" font-size="10.00">fw/store_persistent</text>
<text text-anchor="middle" x="452.5" y="-175.5" font-family="Helvetica,sans-Serif" font-size="10.00">_config.hpp</text>
</a>
</g>
</g>
<!-- Node1&#45;&gt;Node52 -->
<g id="edge23" class="edge">
<title>Node1&#45;&gt;Node52</title>
<path fill="none" stroke="midnightblue" d="M346.27,-235.48C363.92,-227 391.57,-213.74 414.23,-202.86"/>
<polygon fill="midnightblue" stroke="midnightblue" points="415.77,-206 423.28,-198.52 412.75,-199.69 415.77,-206"/>
</g>
<!-- Node55 -->
<g id="node18" class="node">
<title>Node55</title>
<g id="a_node18"><a xlink:title=" ">
<polygon fill="white" stroke="#bfbfbf" points="691.5,-174 691.5,-193 729.5,-193 729.5,-174 691.5,-174"/>
<text text-anchor="middle" x="710.5" y="-181" font-family="Helvetica,sans-Serif" font-size="10.00">git.h</text>
</a>
</g>
</g>
<!-- Node1&#45;&gt;Node55 -->
<g id="edge26" class="edge">
<title>Node1&#45;&gt;Node55</title>
<path fill="none" stroke="midnightblue" d="M375.14,-243.24C443.91,-240.97 575.89,-232.23 682.5,-199 683.97,-198.54 685.45,-198.01 686.93,-197.42"/>
<polygon fill="midnightblue" stroke="midnightblue" points="688.79,-200.42 696.38,-193.03 685.84,-194.07 688.79,-200.42"/>
</g>
<!-- Node56 -->
<g id="node19" class="node">
<title>Node56</title>
<g id="a_node19"><a xlink:href="load__persistent__config_8hpp.html" target="_top" xlink:title=" ">
<polygon fill="white" stroke="black" points="526,-174 526,-193 673,-193 673,-174 526,-174"/>
<text text-anchor="middle" x="599.5" y="-181" font-family="Helvetica,sans-Serif" font-size="10.00">load_persistent_config.hpp</text>
</a>
</g>
</g>
<!-- Node1&#45;&gt;Node56 -->
<g id="edge27" class="edge">
<title>Node1&#45;&gt;Node56</title>
<path fill="none" stroke="midnightblue" d="M367.33,-235.48C415.62,-224.87 498.11,-206.76 550.65,-195.22"/>
<polygon fill="midnightblue" stroke="midnightblue" points="551.73,-198.57 560.74,-193.01 550.23,-191.74 551.73,-198.57"/>
</g>
<!-- Node3 -->
<g id="node3" class="node">
<title>Node3</title>
<g id="a_node3"><a xlink:title=" ">
<polygon fill="white" stroke="#bfbfbf" points="351,-56.5 351,-75.5 418,-75.5 418,-56.5 351,-56.5"/>
<text text-anchor="middle" x="384.5" y="-63.5" font-family="Helvetica,sans-Serif" font-size="10.00">config.hpp</text>
</a>
</g>
</g>
<!-- Node2&#45;&gt;Node3 -->
<g id="edge2" class="edge">
<title>Node2&#45;&gt;Node3</title>
<path fill="none" stroke="midnightblue" d="M130.73,-114.25C178.5,-106.15 260.82,-91.88 340.4,-76.37"/>
<polygon fill="midnightblue" stroke="midnightblue" points="341.45,-79.73 350.59,-74.37 340.11,-72.86 341.45,-79.73"/>
</g>
<!-- Node4 -->
<g id="node4" class="node">
<title>Node4</title>
<g id="a_node4"><a xlink:href="drv__interfaces_8hpp.html" target="_top" xlink:title=" ">
<polygon fill="white" stroke="red" points="134,-56.5 134,-75.5 241,-75.5 241,-56.5 134,-56.5"/>
<text text-anchor="middle" x="187.5" y="-63.5" font-family="Helvetica,sans-Serif" font-size="10.00">drv_interfaces.hpp</text>
</a>
</g>
</g>
<!-- Node2&#45;&gt;Node4 -->
<g id="edge3" class="edge">
<title>Node2&#45;&gt;Node4</title>
<path fill="none" stroke="midnightblue" d="M106.08,-112.32C121.5,-103.74 145.31,-90.49 163.21,-80.52"/>
<polygon fill="midnightblue" stroke="midnightblue" points="164.92,-83.58 171.95,-75.65 161.51,-77.46 164.92,-83.58"/>
</g>
<!-- Node14 -->
<g id="node5" class="node">
<title>Node14</title>
<g id="a_node5"><a xlink:href="leds_8hpp.html" target="_top" xlink:title=" ">
<polygon fill="white" stroke="red" points="176,-0.5 176,-19.5 267,-19.5 267,-0.5 176,-0.5"/>
<text text-anchor="middle" x="221.5" y="-7.5" font-family="Helvetica,sans-Serif" font-size="10.00">fw/drv/leds.hpp</text>
</a>
</g>
</g>
<!-- Node2&#45;&gt;Node14 -->
<g id="edge4" class="edge">
<title>Node2&#45;&gt;Node14</title>
<path fill="none" stroke="midnightblue" d="M93.18,-112.31C97.78,-98.69 108.37,-72.21 125.5,-56 141.33,-41.03 163.04,-30.28 181.82,-23.05"/>
<polygon fill="midnightblue" stroke="midnightblue" points="183.12,-26.3 191.32,-19.59 180.73,-19.72 183.12,-26.3"/>
</g>
<!-- Node2&#45;&gt;Node17 -->
<g id="edge5" class="edge">
<title>Node2&#45;&gt;Node17</title>
<path fill="none" stroke="midnightblue" d="M81.58,-112.08C73.72,-104.22 62.07,-92.57 52.58,-83.08"/>
<polygon fill="midnightblue" stroke="midnightblue" points="54.8,-80.35 45.25,-75.75 49.85,-85.3 54.8,-80.35"/>
</g>
<!-- Node19&#45;&gt;Node3 -->
<g id="edge7" class="edge">
<title>Node19&#45;&gt;Node3</title>
<path fill="none" stroke="midnightblue" d="M373.65,-112.08C375.37,-104.93 377.85,-94.64 380,-85.69"/>
<polygon fill="midnightblue" stroke="midnightblue" points="383.46,-86.29 382.39,-75.75 376.65,-84.65 383.46,-86.29"/>
</g>
<!-- Node19&#45;&gt;Node20 -->
<g id="edge8" class="edge">
<title>Node19&#45;&gt;Node20</title>
<path fill="none" stroke="midnightblue" d="M359.45,-112.32C348.04,-104.11 330.67,-91.6 317.07,-81.81"/>
<polygon fill="midnightblue" stroke="midnightblue" points="318.93,-78.84 308.77,-75.83 314.84,-84.52 318.93,-78.84"/>
</g>
<!-- Node20&#45;&gt;Node14 -->
<g id="edge10" class="edge">
<title>Node20&#45;&gt;Node14</title>
<path fill="none" stroke="midnightblue" d="M284.45,-56.32C273.04,-48.11 255.67,-35.6 242.07,-25.81"/>
<polygon fill="midnightblue" stroke="midnightblue" points="243.93,-22.84 233.77,-19.83 239.84,-28.52 243.93,-22.84"/>
</g>
<!-- Node21 -->
<g id="node9" class="node">
<title>Node21</title>
<g id="a_node9"><a xlink:href="control_8hpp.html" target="_top" xlink:title=" ">
<polygon fill="white" stroke="red" points="331,-0.5 331,-19.5 402,-19.5 402,-0.5 331,-0.5"/>
<text text-anchor="middle" x="366.5" y="-7.5" font-family="Helvetica,sans-Serif" font-size="10.00">control.hpp</text>
</a>
</g>
</g>
<!-- Node20&#45;&gt;Node21 -->
<g id="edge9" class="edge">
<title>Node20&#45;&gt;Node21</title>
<path fill="none" stroke="midnightblue" d="M307.75,-56.32C318.3,-48.18 334.3,-35.84 346.94,-26.09"/>
<polygon fill="midnightblue" stroke="midnightblue" points="349.27,-28.71 355.05,-19.83 344.99,-23.17 349.27,-28.71"/>
</g>
<!-- Node46 -->
<g id="node10" class="node">
<title>Node46</title>
<g id="a_node10"><a xlink:href="util_8hpp.html" target="_top" xlink:title=" ">
<polygon fill="white" stroke="red" points="572.5,-0.5 572.5,-19.5 640.5,-19.5 640.5,-0.5 572.5,-0.5"/>
<text text-anchor="middle" x="606.5" y="-7.5" font-family="Helvetica,sans-Serif" font-size="10.00">fw/util.hpp</text>
</a>
</g>
</g>
<!-- Node20&#45;&gt;Node46 -->
<g id="edge11" class="edge">
<title>Node20&#45;&gt;Node46</title>
<path fill="none" stroke="midnightblue" d="M333.14,-57.75C336.31,-57.15 339.46,-56.56 342.5,-56 419.68,-41.87 509.82,-26.82 562.3,-18.2"/>
<polygon fill="midnightblue" stroke="midnightblue" points="562.98,-21.63 572.28,-16.56 561.84,-14.72 562.98,-21.63"/>
</g>
<!-- Node48&#45;&gt;Node19 -->
<g id="edge15" class="edge">
<title>Node48&#45;&gt;Node19</title>
<path fill="none" stroke="midnightblue" d="M334.66,-173.98C341.11,-165.05 351.4,-150.81 359.47,-139.64"/>
<polygon fill="midnightblue" stroke="midnightblue" points="362.33,-141.66 365.35,-131.51 356.66,-137.56 362.33,-141.66"/>
</g>
<!-- Node48&#45;&gt;Node21 -->
<g id="edge14" class="edge">
<title>Node48&#45;&gt;Node21</title>
<path fill="none" stroke="midnightblue" d="M356.17,-173.98C386.35,-164.06 431.71,-147.1 441.5,-132 452.78,-114.61 439.23,-73.52 427.5,-56 418.86,-43.1 405.24,-32.54 393.05,-24.9"/>
<polygon fill="midnightblue" stroke="midnightblue" points="394.51,-21.69 384.12,-19.63 390.96,-27.72 394.51,-21.69"/>
</g>
<!-- Node34 -->
<g id="node12" class="node">
<title>Node34</title>
<g id="a_node12"><a xlink:href="conversion_8hpp.html" target="_top" xlink:title=" ">
<polygon fill="white" stroke="red" points="187,-112.5 187,-131.5 292,-131.5 292,-112.5 187,-112.5"/>
<text text-anchor="middle" x="239.5" y="-119.5" font-family="Helvetica,sans-Serif" font-size="10.00">fw/conversion.hpp</text>
</a>
</g>
</g>
<!-- Node48&#45;&gt;Node34 -->
<g id="edge16" class="edge">
<title>Node48&#45;&gt;Node34</title>
<path fill="none" stroke="midnightblue" d="M315.75,-173.98C301.47,-164.43 278.1,-148.81 260.99,-137.37"/>
<polygon fill="midnightblue" stroke="midnightblue" points="262.49,-134.16 252.23,-131.51 258.6,-139.98 262.49,-134.16"/>
</g>
<!-- Node49 -->
<g id="node13" class="node">
<title>Node49</title>
<g id="a_node13"><a xlink:title=" ">
<polygon fill="white" stroke="#bfbfbf" points="598.5,-112.5 598.5,-131.5 648.5,-131.5 648.5,-112.5 598.5,-112.5"/>
<text text-anchor="middle" x="623.5" y="-119.5" font-family="Helvetica,sans-Serif" font-size="10.00">io.pb.h</text>
</a>
</g>
</g>
<!-- Node48&#45;&gt;Node49 -->
<g id="edge18" class="edge">
<title>Node48&#45;&gt;Node49</title>
<path fill="none" stroke="midnightblue" d="M362.37,-173.94C370.88,-171.89 380.01,-169.79 388.5,-168 474.19,-149.99 499.15,-151.49 588.3,-132.12"/>
<polygon fill="midnightblue" stroke="midnightblue" points="589.29,-135.48 598.3,-129.91 587.79,-128.65 589.29,-135.48"/>
</g>
<!-- Node34&#45;&gt;Node4 -->
<g id="edge17" class="edge">
<title>Node34&#45;&gt;Node4</title>
<path fill="none" stroke="midnightblue" d="M230.91,-112.08C223.34,-104.22 212.12,-92.57 202.99,-83.08"/>
<polygon fill="midnightblue" stroke="midnightblue" points="205.38,-80.53 195.93,-75.75 200.34,-85.38 205.38,-80.53"/>
</g>
<!-- Node50&#45;&gt;Node49 -->
<g id="edge22" class="edge">
<title>Node50&#45;&gt;Node49</title>
<path fill="none" stroke="midnightblue" d="M772.57,-173.98C742.46,-163.68 691.67,-146.31 657.86,-134.75"/>
<polygon fill="midnightblue" stroke="midnightblue" points="658.98,-131.43 648.38,-131.51 656.71,-138.06 658.98,-131.43"/>
</g>
<!-- Node51 -->
<g id="node15" class="node">
<title>Node51</title>
<g id="a_node15"><a xlink:title=" ">
<polygon fill="white" stroke="#bfbfbf" points="748,-112.5 748,-131.5 847,-131.5 847,-112.5 748,-112.5"/>
<text text-anchor="middle" x="797.5" y="-119.5" font-family="Helvetica,sans-Serif" font-size="10.00">emlabcpp/view.h</text>
</a>
</g>
</g>
<!-- Node50&#45;&gt;Node51 -->
<g id="edge21" class="edge">
<title>Node50&#45;&gt;Node51</title>
<path fill="none" stroke="midnightblue" d="M797.5,-173.98C797.5,-165.58 797.5,-152.48 797.5,-141.66"/>
<polygon fill="midnightblue" stroke="midnightblue" points="801,-141.51 797.5,-131.51 794,-141.51 801,-141.51"/>
</g>
<!-- Node53 -->
<g id="node17" class="node">
<title>Node53</title>
<g id="a_node17"><a xlink:href="storage_8hpp.html" target="_top" xlink:title=" ">
<polygon fill="white" stroke="red" points="488.5,-112.5 488.5,-131.5 580.5,-131.5 580.5,-112.5 488.5,-112.5"/>
<text text-anchor="middle" x="534.5" y="-119.5" font-family="Helvetica,sans-Serif" font-size="10.00">cfg/storage.hpp</text>
</a>
</g>
</g>
<!-- Node52&#45;&gt;Node53 -->
<g id="edge24" class="edge">
<title>Node52&#45;&gt;Node53</title>
<path fill="none" stroke="midnightblue" d="M471.93,-168.4C484.71,-159.13 501.39,-147.03 514.31,-137.65"/>
<polygon fill="midnightblue" stroke="midnightblue" points="516.53,-140.36 522.57,-131.66 512.42,-134.7 516.53,-140.36"/>
</g>
<!-- Node53&#45;&gt;Node3 -->
<g id="edge25" class="edge">
<title>Node53&#45;&gt;Node3</title>
<path fill="none" stroke="midnightblue" d="M510.73,-112.44C485.61,-103.4 445.79,-89.06 417.6,-78.92"/>
<polygon fill="midnightblue" stroke="midnightblue" points="418.75,-75.61 408.16,-75.52 416.38,-82.2 418.75,-75.61"/>
</g>
<!-- Node56&#45;&gt;Node46 -->
<g id="edge29" class="edge">
<title>Node56&#45;&gt;Node46</title>
<path fill="none" stroke="midnightblue" d="M615.46,-173.92C629.47,-165.37 648.93,-150.83 657.5,-132 674.41,-94.86 642.73,-50.49 622.15,-27.17"/>
<polygon fill="midnightblue" stroke="midnightblue" points="624.52,-24.58 615.18,-19.58 619.37,-29.31 624.52,-24.58"/>
</g>
<!-- Node56&#45;&gt;Node53 -->
<g id="edge28" class="edge">
<title>Node56&#45;&gt;Node53</title>
<path fill="none" stroke="midnightblue" d="M590.19,-173.98C580.05,-164.7 563.64,-149.67 551.25,-138.33"/>
<polygon fill="midnightblue" stroke="midnightblue" points="553.54,-135.68 543.8,-131.51 548.81,-140.84 553.54,-135.68"/>
</g>
</g>
</svg>
