<?xml version="1.0" encoding="UTF-8" standalone="no"?>
<!DOCTYPE svg PUBLIC "-//W3C//DTD SVG 1.1//EN"
 "http://www.w3.org/Graphics/SVG/1.1/DTD/svg11.dtd">
<!-- Generated by graphviz version 2.43.0 (0)
 -->
<!-- Title: src/fw/main.cpp Pages: 1 -->
<svg width="942pt" height="274pt"
 viewBox="0.00 0.00 941.98 274.00" xmlns="http://www.w3.org/2000/svg" xmlns:xlink="http://www.w3.org/1999/xlink">
<g id="graph0" class="graph" transform="scale(1 1) rotate(0) translate(4 270)">
<title>src/fw/main.cpp</title>
<polygon fill="white" stroke="transparent" points="-4,4 -4,-270 937.98,-270 937.98,4 -4,4"/>
<!-- Node1 -->
<g id="node1" class="node">
<title>Node1</title>
<g id="a_node1"><a xlink:title=" ">
<polygon fill="#bfbfbf" stroke="black" points="404.95,-246.5 404.95,-265.5 497.95,-265.5 497.95,-246.5 404.95,-246.5"/>
<text text-anchor="middle" x="451.45" y="-253.5" font-family="Helvetica,sans-Serif" font-size="10.00">src/fw/main.cpp</text>
</a>
</g>
</g>
<!-- Node2 -->
<g id="node2" class="node">
<title>Node2</title>
<g id="a_node2"><a xlink:href="brd_8hpp.html" target="_top" xlink:title=" ">
<polygon fill="white" stroke="black" points="306.95,-185 306.95,-204 359.95,-204 359.95,-185 306.95,-185"/>
<text text-anchor="middle" x="333.45" y="-192" font-family="Helvetica,sans-Serif" font-size="10.00">brd.hpp</text>
</a>
</g>
</g>
<!-- Node1&#45;&gt;Node2 -->
<g id="edge1" class="edge">
<title>Node1&#45;&gt;Node2</title>
<path fill="none" stroke="midnightblue" d="M434.54,-246.48C414.92,-236.58 382.32,-220.14 359.46,-208.62"/>
<polygon fill="midnightblue" stroke="midnightblue" points="360.83,-205.39 350.33,-204.01 357.68,-211.64 360.83,-205.39"/>
</g>
<!-- Node13 -->
<g id="node5" class="node">
<title>Node13</title>
<g id="a_node5"><a xlink:href="drivers_8hpp.html" target="_top" xlink:title=" ">
<polygon fill="white" stroke="black" points="205.95,-123.5 205.95,-142.5 300.95,-142.5 300.95,-123.5 205.95,-123.5"/>
<text text-anchor="middle" x="253.45" y="-130.5" font-family="Helvetica,sans-Serif" font-size="10.00">core/drivers.hpp</text>
</a>
</g>
</g>
<!-- Node1&#45;&gt;Node13 -->
<g id="edge14" class="edge">
<title>Node1&#45;&gt;Node13</title>
<path fill="none" stroke="midnightblue" d="M404.69,-254.57C332.51,-252.81 199.13,-244.79 169.45,-210 160.51,-199.52 162.37,-190.82 169.45,-179 178.6,-163.72 194.91,-153.33 210.74,-146.43"/>
<polygon fill="midnightblue" stroke="midnightblue" points="212.46,-149.51 220.46,-142.56 209.88,-143 212.46,-149.51"/>
</g>
<!-- Node16 -->
<g id="node7" class="node">
<title>Node16</title>
<g id="a_node7"><a xlink:title=" ">
<polygon fill="white" stroke="#bfbfbf" points="10.45,-0.5 10.45,-19.5 114.45,-19.5 114.45,-0.5 10.45,-0.5"/>
<text text-anchor="middle" x="62.45" y="-7.5" font-family="Helvetica,sans-Serif" font-size="10.00">emlabcpp/result.h</text>
</a>
</g>
</g>
<!-- Node1&#45;&gt;Node16 -->
<g id="edge15" class="edge">
<title>Node1&#45;&gt;Node16</title>
<path fill="none" stroke="midnightblue" d="M404.67,-255.72C308.21,-256.31 91.41,-252.69 33.45,-210 0.63,-185.83 -5.2,-162.6 4.45,-123 13.26,-86.84 35.94,-49.32 50.19,-28.19"/>
<polygon fill="midnightblue" stroke="midnightblue" points="53.25,-29.92 56.06,-19.7 47.49,-25.93 53.25,-29.92"/>
</g>
<!-- Node19 -->
<g id="node9" class="node">
<title>Node19</title>
<g id="a_node9"><a xlink:href="cfg_2dispatcher_8hpp.html" target="_top" xlink:title=" ">
<polygon fill="white" stroke="black" points="591.45,-123.5 591.45,-142.5 697.45,-142.5 697.45,-123.5 591.45,-123.5"/>
<text text-anchor="middle" x="644.45" y="-130.5" font-family="Helvetica,sans-Serif" font-size="10.00">cfg/dispatcher.hpp</text>
</a>
</g>
</g>
<!-- Node1&#45;&gt;Node19 -->
<g id="edge8" class="edge">
<title>Node1&#45;&gt;Node19</title>
<path fill="none" stroke="midnightblue" d="M498.2,-253.13C561.19,-249.51 668.25,-239.14 692.45,-210 708.77,-190.36 684.62,-164.78 665.06,-148.87"/>
<polygon fill="midnightblue" stroke="midnightblue" points="667.14,-146.06 657.1,-142.69 662.85,-151.59 667.14,-146.06"/>
</g>
<!-- Node20 -->
<g id="node10" class="node">
<title>Node20</title>
<g id="a_node10"><a xlink:href="core_8hpp.html" target="_top" xlink:title=" ">
<polygon fill="white" stroke="red" points="753.95,-62 753.95,-81 836.95,-81 836.95,-62 753.95,-62"/>
<text text-anchor="middle" x="795.45" y="-69" font-family="Helvetica,sans-Serif" font-size="10.00">core/core.hpp</text>
</a>
</g>
</g>
<!-- Node1&#45;&gt;Node20 -->
<g id="edge13" class="edge">
<title>Node1&#45;&gt;Node20</title>
<path fill="none" stroke="midnightblue" d="M498.07,-253.01C588.91,-248.6 786.21,-236.24 848.45,-210 891.82,-191.72 910.28,-185.52 930.45,-143 948.41,-105.13 892.37,-87.13 847.09,-78.91"/>
<polygon fill="midnightblue" stroke="midnightblue" points="847.48,-75.43 837.03,-77.21 846.31,-82.33 847.48,-75.43"/>
</g>
<!-- Node46 -->
<g id="node12" class="node">
<title>Node46</title>
<g id="a_node12"><a xlink:href="board_8hpp.html" target="_top" xlink:title=" ">
<polygon fill="white" stroke="black" points="42.45,-185 42.45,-204 122.45,-204 122.45,-185 42.45,-185"/>
<text text-anchor="middle" x="82.45" y="-192" font-family="Helvetica,sans-Serif" font-size="10.00">fw/board.hpp</text>
</a>
</g>
</g>
<!-- Node1&#45;&gt;Node46 -->
<g id="edge16" class="edge">
<title>Node1&#45;&gt;Node46</title>
<path fill="none" stroke="midnightblue" d="M404.71,-250.11C342.94,-243.23 230.89,-229.35 136.45,-210 131.65,-209.02 126.65,-207.86 121.7,-206.63"/>
<polygon fill="midnightblue" stroke="midnightblue" points="122.28,-203.17 111.72,-204.05 120.53,-209.94 122.28,-203.17"/>
</g>
<!-- Node49 -->
<g id="node14" class="node">
<title>Node49</title>
<g id="a_node14"><a xlink:href="fw_2dispatcher_8hpp.html" target="_top" xlink:title=" ">
<polygon fill="white" stroke="black" points="581.45,-185 581.45,-204 683.45,-204 683.45,-185 581.45,-185"/>
<text text-anchor="middle" x="632.45" y="-192" font-family="Helvetica,sans-Serif" font-size="10.00">fw/dispatcher.hpp</text>
</a>
</g>
</g>
<!-- Node1&#45;&gt;Node49 -->
<g id="edge19" class="edge">
<title>Node1&#45;&gt;Node49</title>
<path fill="none" stroke="midnightblue" d="M477.38,-246.48C508.7,-236.18 561.54,-218.81 596.71,-207.25"/>
<polygon fill="midnightblue" stroke="midnightblue" points="598.16,-210.46 606.57,-204.01 595.97,-203.81 598.16,-210.46"/>
</g>
<!-- Node50 -->
<g id="node15" class="node">
<title>Node50</title>
<g id="a_node15"><a xlink:href="util_8hpp.html" target="_top" xlink:title=" ">
<polygon fill="white" stroke="red" points="467.45,-123.5 467.45,-142.5 535.45,-142.5 535.45,-123.5 467.45,-123.5"/>
<text text-anchor="middle" x="501.45" y="-130.5" font-family="Helvetica,sans-Serif" font-size="10.00">fw/util.hpp</text>
</a>
</g>
</g>
<!-- Node1&#45;&gt;Node50 -->
<g id="edge33" class="edge">
<title>Node1&#45;&gt;Node50</title>
<path fill="none" stroke="midnightblue" d="M483.26,-246.38C501.4,-239.66 522.61,-228.31 533.45,-210 544.89,-190.67 530.28,-166.47 517.26,-150.65"/>
<polygon fill="midnightblue" stroke="midnightblue" points="519.59,-148 510.36,-142.8 514.33,-152.62 519.59,-148"/>
</g>
<!-- Node53 -->
<g id="node17" class="node">
<title>Node53</title>
<g id="a_node17"><a xlink:href="servio__pb_8hpp.html" target="_top" xlink:title=" ">
<polygon fill="white" stroke="black" points="739.95,-185 739.95,-204 838.95,-204 838.95,-185 739.95,-185"/>
<text text-anchor="middle" x="789.45" y="-192" font-family="Helvetica,sans-Serif" font-size="10.00">fw/servio_pb.hpp</text>
</a>
</g>
</g>
<!-- Node1&#45;&gt;Node53 -->
<g id="edge25" class="edge">
<title>Node1&#45;&gt;Node53</title>
<path fill="none" stroke="midnightblue" d="M498.14,-248.2C552.8,-240.05 645.96,-225.52 725.45,-210 731.32,-208.85 737.48,-207.57 743.56,-206.25"/>
<polygon fill="midnightblue" stroke="midnightblue" points="744.64,-209.59 753.65,-204.01 743.13,-202.76 744.64,-209.59"/>
</g>
<!-- Node55 -->
<g id="node19" class="node">
<title>Node55</title>
<g id="a_node19"><a xlink:href="store__persistent__config_8hpp.html" target="_top" xlink:title=" ">
<polygon fill="white" stroke="black" points="178.45,-179.5 178.45,-209.5 288.45,-209.5 288.45,-179.5 178.45,-179.5"/>
<text text-anchor="start" x="186.45" y="-197.5" font-family="Helvetica,sans-Serif" font-size="10.00">fw/store_persistent</text>
<text text-anchor="middle" x="233.45" y="-186.5" font-family="Helvetica,sans-Serif" font-size="10.00">_config.hpp</text>
</a>
</g>
</g>
<!-- Node1&#45;&gt;Node55 -->
<g id="edge28" class="edge">
<title>Node1&#45;&gt;Node55</title>
<path fill="none" stroke="midnightblue" d="M420.22,-246.48C387.59,-237.57 335.56,-223.37 294.69,-212.22"/>
<polygon fill="midnightblue" stroke="midnightblue" points="295.4,-208.78 284.83,-209.52 293.55,-215.53 295.4,-208.78"/>
</g>
<!-- Node57 -->
<g id="node21" class="node">
<title>Node57</title>
<g id="a_node21"><a xlink:href="load__persistent__config_8hpp.html" target="_top" xlink:title=" ">
<polygon fill="white" stroke="black" points="377.95,-185 377.95,-204 524.95,-204 524.95,-185 377.95,-185"/>
<text text-anchor="middle" x="451.45" y="-192" font-family="Helvetica,sans-Serif" font-size="10.00">load_persistent_config.hpp</text>
</a>
</g>
</g>
<!-- Node1&#45;&gt;Node57 -->
<g id="edge34" class="edge">
<title>Node1&#45;&gt;Node57</title>
<path fill="none" stroke="midnightblue" d="M451.45,-246.48C451.45,-238.08 451.45,-224.98 451.45,-214.16"/>
<polygon fill="midnightblue" stroke="midnightblue" points="454.95,-214.01 451.45,-204.01 447.95,-214.01 454.95,-214.01"/>
</g>
<!-- Node3 -->
<g id="node3" class="node">
<title>Node3</title>
<g id="a_node3"><a xlink:href="map_8hpp.html" target="_top" xlink:title=" ">
<polygon fill="white" stroke="red" points="472.95,-62 472.95,-81 549.95,-81 549.95,-62 472.95,-62"/>
<text text-anchor="middle" x="511.45" y="-69" font-family="Helvetica,sans-Serif" font-size="10.00">cfg/map.hpp</text>
</a>
</g>
</g>
<!-- Node2&#45;&gt;Node3 -->
<g id="edge2" class="edge">
<title>Node2&#45;&gt;Node3</title>
<path fill="none" stroke="midnightblue" d="M349.55,-184.99C367.31,-175.42 396.55,-159.09 420.45,-143 446.66,-125.35 475.21,-102.61 493.21,-87.8"/>
<polygon fill="midnightblue" stroke="midnightblue" points="495.68,-90.3 501.14,-81.22 491.21,-84.91 495.68,-90.3"/>
</g>
<!-- Node2&#45;&gt;Node13 -->
<g id="edge4" class="edge">
<title>Node2&#45;&gt;Node13</title>
<path fill="none" stroke="midnightblue" d="M321.99,-184.98C309.28,-175.52 288.54,-160.1 273.2,-148.69"/>
<polygon fill="midnightblue" stroke="midnightblue" points="275,-145.67 264.89,-142.51 270.83,-151.29 275,-145.67"/>
</g>
<!-- Node9 -->
<g id="node4" class="node">
<title>Node9</title>
<g id="a_node4"><a xlink:href="key_8hpp.html" target="_top" xlink:title=" ">
<polygon fill="white" stroke="red" points="530.95,-0.5 530.95,-19.5 601.95,-19.5 601.95,-0.5 530.95,-0.5"/>
<text text-anchor="middle" x="566.45" y="-7.5" font-family="Helvetica,sans-Serif" font-size="10.00">cfg/key.hpp</text>
</a>
</g>
</g>
<!-- Node3&#45;&gt;Node9 -->
<g id="edge3" class="edge">
<title>Node3&#45;&gt;Node9</title>
<path fill="none" stroke="midnightblue" d="M519.33,-61.98C527.74,-52.87 541.27,-38.24 551.68,-26.98"/>
<polygon fill="midnightblue" stroke="midnightblue" points="554.37,-29.23 558.58,-19.51 549.23,-24.48 554.37,-29.23"/>
</g>
<!-- Node14 -->
<g id="node6" class="node">
<title>Node14</title>
<g id="a_node6"><a xlink:href="drv__interfaces_8hpp.html" target="_top" xlink:title=" ">
<polygon fill="white" stroke="red" points="91.45,-62 91.45,-81 225.45,-81 225.45,-62 91.45,-62"/>
<text text-anchor="middle" x="158.45" y="-69" font-family="Helvetica,sans-Serif" font-size="10.00">base/drv_interfaces.hpp</text>
</a>
</g>
</g>
<!-- Node13&#45;&gt;Node14 -->
<g id="edge5" class="edge">
<title>Node13&#45;&gt;Node14</title>
<path fill="none" stroke="midnightblue" d="M239.84,-123.48C224.39,-113.8 198.96,-97.87 180.63,-86.39"/>
<polygon fill="midnightblue" stroke="midnightblue" points="182.37,-83.35 172.04,-81.01 178.65,-89.28 182.37,-83.35"/>
</g>
<!-- Node18 -->
<g id="node8" class="node">
<title>Node18</title>
<g id="a_node8"><a xlink:title=" ">
<polygon fill="white" stroke="#bfbfbf" points="298.95,-56.5 298.95,-86.5 431.95,-86.5 431.95,-56.5 298.95,-56.5"/>
<text text-anchor="start" x="306.95" y="-74.5" font-family="Helvetica,sans-Serif" font-size="10.00">emlabcpp/experimental</text>
<text text-anchor="middle" x="365.45" y="-63.5" font-family="Helvetica,sans-Serif" font-size="10.00">/function_view.h</text>
</a>
</g>
</g>
<!-- Node13&#45;&gt;Node18 -->
<g id="edge7" class="edge">
<title>Node13&#45;&gt;Node18</title>
<path fill="none" stroke="midnightblue" d="M269.5,-123.48C285.23,-115.12 309.75,-102.09 330.06,-91.3"/>
<polygon fill="midnightblue" stroke="midnightblue" points="331.87,-94.31 339.05,-86.52 328.58,-88.12 331.87,-94.31"/>
</g>
<!-- Node14&#45;&gt;Node16 -->
<g id="edge6" class="edge">
<title>Node14&#45;&gt;Node16</title>
<path fill="none" stroke="midnightblue" d="M144.7,-61.98C129.08,-52.3 103.39,-36.37 84.87,-24.89"/>
<polygon fill="midnightblue" stroke="midnightblue" points="86.52,-21.8 76.18,-19.51 82.84,-27.75 86.52,-21.8"/>
</g>
<!-- Node19&#45;&gt;Node3 -->
<g id="edge10" class="edge">
<title>Node19&#45;&gt;Node3</title>
<path fill="none" stroke="midnightblue" d="M625.39,-123.48C602.98,-113.45 565.54,-96.7 539.74,-85.15"/>
<polygon fill="midnightblue" stroke="midnightblue" points="541.03,-81.9 530.47,-81.01 538.17,-88.29 541.03,-81.9"/>
</g>
<!-- Node19&#45;&gt;Node9 -->
<g id="edge9" class="edge">
<title>Node19&#45;&gt;Node9</title>
<path fill="none" stroke="midnightblue" d="M638.84,-123.3C626.02,-103.41 594.4,-54.35 577.5,-28.15"/>
<polygon fill="midnightblue" stroke="midnightblue" points="580.37,-26.13 572.01,-19.62 574.49,-29.92 580.37,-26.13"/>
</g>
<!-- Node19&#45;&gt;Node20 -->
<g id="edge11" class="edge">
<title>Node19&#45;&gt;Node20</title>
<path fill="none" stroke="midnightblue" d="M666.09,-123.48C691.87,-113.31 735.16,-96.26 764.49,-84.7"/>
<polygon fill="midnightblue" stroke="midnightblue" points="765.84,-87.93 773.86,-81.01 763.27,-81.42 765.84,-87.93"/>
</g>
<!-- Node28 -->
<g id="node11" class="node">
<title>Node28</title>
<g id="a_node11"><a xlink:href="control_8hpp.html" target="_top" xlink:title=" ">
<polygon fill="white" stroke="red" points="717.45,-0.5 717.45,-19.5 803.45,-19.5 803.45,-0.5 717.45,-0.5"/>
<text text-anchor="middle" x="760.45" y="-7.5" font-family="Helvetica,sans-Serif" font-size="10.00">ctl/control.hpp</text>
</a>
</g>
</g>
<!-- Node20&#45;&gt;Node28 -->
<g id="edge12" class="edge">
<title>Node20&#45;&gt;Node28</title>
<path fill="none" stroke="midnightblue" d="M790.44,-61.98C785.29,-53.23 777.14,-39.37 770.63,-28.31"/>
<polygon fill="midnightblue" stroke="midnightblue" points="773.54,-26.35 765.46,-19.51 767.51,-29.9 773.54,-26.35"/>
</g>
<!-- Node46&#45;&gt;Node14 -->
<g id="edge17" class="edge">
<title>Node46&#45;&gt;Node14</title>
<path fill="none" stroke="midnightblue" d="M89.35,-184.8C97.06,-174.92 109.73,-158.2 119.45,-143 130.48,-125.74 141.66,-105.16 149.2,-90.7"/>
<polygon fill="midnightblue" stroke="midnightblue" points="152.53,-91.88 154,-81.39 146.3,-88.68 152.53,-91.88"/>
</g>
<!-- Node47 -->
<g id="node13" class="node">
<title>Node47</title>
<g id="a_node13"><a xlink:href="globals_8hpp.html" target="_top" xlink:title=" ">
<polygon fill="white" stroke="red" points="13.95,-123.5 13.95,-142.5 110.95,-142.5 110.95,-123.5 13.95,-123.5"/>
<text text-anchor="middle" x="62.45" y="-130.5" font-family="Helvetica,sans-Serif" font-size="10.00">core/globals.hpp</text>
</a>
</g>
</g>
<!-- Node46&#45;&gt;Node47 -->
<g id="edge18" class="edge">
<title>Node46&#45;&gt;Node47</title>
<path fill="none" stroke="midnightblue" d="M79.58,-184.98C76.73,-176.49 72.27,-163.2 68.61,-152.32"/>
<polygon fill="midnightblue" stroke="midnightblue" points="71.81,-150.87 65.31,-142.51 65.18,-153.1 71.81,-150.87"/>
</g>
<!-- Node49&#45;&gt;Node18 -->
<g id="edge23" class="edge">
<title>Node49&#45;&gt;Node18</title>
<path fill="none" stroke="midnightblue" d="M624.05,-184.78C609.29,-169.97 577.18,-139.84 544.45,-123 512.58,-106.6 474.68,-94.93 441.99,-86.96"/>
<polygon fill="midnightblue" stroke="midnightblue" points="442.56,-83.5 432.02,-84.61 440.95,-90.32 442.56,-83.5"/>
</g>
<!-- Node49&#45;&gt;Node19 -->
<g id="edge20" class="edge">
<title>Node49&#45;&gt;Node19</title>
<path fill="none" stroke="midnightblue" d="M634.17,-184.98C635.88,-176.49 638.56,-163.2 640.76,-152.32"/>
<polygon fill="midnightblue" stroke="midnightblue" points="644.19,-153 642.73,-142.51 637.33,-151.62 644.19,-153"/>
</g>
<!-- Node49&#45;&gt;Node28 -->
<g id="edge21" class="edge">
<title>Node49&#45;&gt;Node28</title>
<path fill="none" stroke="midnightblue" d="M650.84,-184.87C667.36,-176.3 691.29,-161.74 706.45,-143 713.97,-133.71 740.87,-63.33 753.63,-29.31"/>
<polygon fill="midnightblue" stroke="midnightblue" points="757.02,-30.25 757.24,-19.66 750.46,-27.8 757.02,-30.25"/>
</g>
<!-- Node49&#45;&gt;Node50 -->
<g id="edge22" class="edge">
<title>Node49&#45;&gt;Node50</title>
<path fill="none" stroke="midnightblue" d="M613.68,-184.98C591.6,-174.95 554.73,-158.2 529.31,-146.65"/>
<polygon fill="midnightblue" stroke="midnightblue" points="530.74,-143.46 520.18,-142.51 527.84,-149.83 530.74,-143.46"/>
</g>
<!-- Node52 -->
<g id="node16" class="node">
<title>Node52</title>
<g id="a_node16"><a xlink:title=" ">
<polygon fill="white" stroke="#bfbfbf" points="753.45,-123.5 753.45,-142.5 803.45,-142.5 803.45,-123.5 753.45,-123.5"/>
<text text-anchor="middle" x="778.45" y="-130.5" font-family="Helvetica,sans-Serif" font-size="10.00">io.pb.h</text>
</a>
</g>
</g>
<!-- Node49&#45;&gt;Node52 -->
<g id="edge24" class="edge">
<title>Node49&#45;&gt;Node52</title>
<path fill="none" stroke="midnightblue" d="M653.37,-184.98C678.2,-174.86 719.79,-157.9 748.14,-146.35"/>
<polygon fill="midnightblue" stroke="midnightblue" points="749.63,-149.52 757.57,-142.51 746.99,-143.04 749.63,-149.52"/>
</g>
<!-- Node53&#45;&gt;Node52 -->
<g id="edge27" class="edge">
<title>Node53&#45;&gt;Node52</title>
<path fill="none" stroke="midnightblue" d="M787.87,-184.98C786.32,-176.58 783.9,-163.48 781.9,-152.66"/>
<polygon fill="midnightblue" stroke="midnightblue" points="785.28,-151.71 780.02,-142.51 778.4,-152.98 785.28,-151.71"/>
</g>
<!-- Node54 -->
<g id="node18" class="node">
<title>Node54</title>
<g id="a_node18"><a xlink:title=" ">
<polygon fill="white" stroke="#bfbfbf" points="821.95,-123.5 821.95,-142.5 920.95,-142.5 920.95,-123.5 821.95,-123.5"/>
<text text-anchor="middle" x="871.45" y="-130.5" font-family="Helvetica,sans-Serif" font-size="10.00">emlabcpp/view.h</text>
</a>
</g>
</g>
<!-- Node53&#45;&gt;Node54 -->
<g id="edge26" class="edge">
<title>Node53&#45;&gt;Node54</title>
<path fill="none" stroke="midnightblue" d="M801.2,-184.98C814.23,-175.52 835.49,-160.1 851.21,-148.69"/>
<polygon fill="midnightblue" stroke="midnightblue" points="853.69,-151.21 859.72,-142.51 849.57,-145.55 853.69,-151.21"/>
</g>
<!-- Node55&#45;&gt;Node14 -->
<g id="edge29" class="edge">
<title>Node55&#45;&gt;Node14</title>
<path fill="none" stroke="midnightblue" d="M222.22,-179.29C214.59,-169.37 204.46,-155.68 196.45,-143 185.58,-125.78 174.71,-105.19 167.4,-90.72"/>
<polygon fill="midnightblue" stroke="midnightblue" points="170.35,-88.79 162.75,-81.4 164.08,-91.91 170.35,-88.79"/>
</g>
<!-- Node56 -->
<g id="node20" class="node">
<title>Node56</title>
<g id="a_node20"><a xlink:href="storage_8hpp.html" target="_top" xlink:title=" ">
<polygon fill="white" stroke="red" points="319.45,-123.5 319.45,-142.5 411.45,-142.5 411.45,-123.5 319.45,-123.5"/>
<text text-anchor="middle" x="365.45" y="-130.5" font-family="Helvetica,sans-Serif" font-size="10.00">cfg/storage.hpp</text>
</a>
</g>
</g>
<!-- Node55&#45;&gt;Node56 -->
<g id="edge30" class="edge">
<title>Node55&#45;&gt;Node56</title>
<path fill="none" stroke="midnightblue" d="M264.73,-179.4C286.68,-169.51 315.79,-156.38 337.07,-146.79"/>
<polygon fill="midnightblue" stroke="midnightblue" points="338.56,-149.96 346.24,-142.66 335.69,-143.58 338.56,-149.96"/>
</g>
<!-- Node56&#45;&gt;Node3 -->
<g id="edge31" class="edge">
<title>Node56&#45;&gt;Node3</title>
<path fill="none" stroke="midnightblue" d="M386.37,-123.48C411.2,-113.36 452.79,-96.4 481.14,-84.85"/>
<polygon fill="midnightblue" stroke="midnightblue" points="482.63,-88.02 490.57,-81.01 479.99,-81.54 482.63,-88.02"/>
</g>
<!-- Node56&#45;&gt;Node18 -->
<g id="edge32" class="edge">
<title>Node56&#45;&gt;Node18</title>
<path fill="none" stroke="midnightblue" d="M365.45,-123.48C365.45,-116.47 365.45,-106.19 365.45,-96.7"/>
<polygon fill="midnightblue" stroke="midnightblue" points="368.95,-96.52 365.45,-86.52 361.95,-96.52 368.95,-96.52"/>
</g>
<!-- Node57&#45;&gt;Node50 -->
<g id="edge36" class="edge">
<title>Node57&#45;&gt;Node50</title>
<path fill="none" stroke="midnightblue" d="M458.61,-184.98C466.19,-175.96 478.32,-161.52 487.74,-150.31"/>
<polygon fill="midnightblue" stroke="midnightblue" points="490.55,-152.42 494.3,-142.51 485.19,-147.91 490.55,-152.42"/>
</g>
<!-- Node57&#45;&gt;Node56 -->
<g id="edge35" class="edge">
<title>Node57&#45;&gt;Node56</title>
<path fill="none" stroke="midnightblue" d="M439.13,-184.98C425.33,-175.43 402.75,-159.81 386.22,-148.37"/>
<polygon fill="midnightblue" stroke="midnightblue" points="387.96,-145.32 377.75,-142.51 383.98,-151.08 387.96,-145.32"/>
</g>
</g>
</svg>
