<?xml version="1.0" encoding="UTF-8" standalone="no"?>
<!DOCTYPE svg PUBLIC "-//W3C//DTD SVG 1.1//EN"
 "http://www.w3.org/Graphics/SVG/1.1/DTD/svg11.dtd">
<!-- Generated by graphviz version 2.43.0 (0)
 -->
<!-- Title: src/fw/main.cpp Pages: 1 -->
<svg width="1256pt" height="263pt"
 viewBox="0.00 0.00 1256.45 263.00" xmlns="http://www.w3.org/2000/svg" xmlns:xlink="http://www.w3.org/1999/xlink">
<g id="graph0" class="graph" transform="scale(1 1) rotate(0) translate(4 259)">
<title>src/fw/main.cpp</title>
<polygon fill="white" stroke="transparent" points="-4,4 -4,-259 1252.45,-259 1252.45,4 -4,4"/>
<!-- Node1 -->
<g id="node1" class="node">
<title>Node1</title>
<g id="a_node1"><a xlink:title=" ">
<polygon fill="#bfbfbf" stroke="black" points="743.5,-235.5 743.5,-254.5 836.5,-254.5 836.5,-235.5 743.5,-235.5"/>
<text text-anchor="middle" x="790" y="-242.5" font-family="Helvetica,sans-Serif" font-size="10.00">src/fw/main.cpp</text>
</a>
</g>
</g>
<!-- Node2 -->
<g id="node2" class="node">
<title>Node2</title>
<g id="a_node2"><a xlink:href="board_8hpp.html" target="_top" xlink:title=" ">
<polygon fill="white" stroke="black" points="244,-112.5 244,-131.5 324,-131.5 324,-112.5 244,-112.5"/>
<text text-anchor="middle" x="284" y="-119.5" font-family="Helvetica,sans-Serif" font-size="10.00">fw/board.hpp</text>
</a>
</g>
</g>
<!-- Node1&#45;&gt;Node2 -->
<g id="edge1" class="edge">
<title>Node1&#45;&gt;Node2</title>
<path fill="none" stroke="midnightblue" d="M743.23,-244.16C641.94,-243.75 405.94,-238.45 338,-199 315.43,-185.89 299.87,-159.14 291.44,-141.14"/>
<polygon fill="midnightblue" stroke="midnightblue" points="294.63,-139.69 287.4,-131.95 288.22,-142.51 294.63,-139.69"/>
</g>
<!-- Node21 -->
<g id="node8" class="node">
<title>Node21</title>
<g id="a_node8"><a xlink:href="globals_8hpp.html" target="_top" xlink:title=" ">
<polygon fill="white" stroke="red" points="288.5,-56.5 288.5,-75.5 361.5,-75.5 361.5,-56.5 288.5,-56.5"/>
<text text-anchor="middle" x="325" y="-63.5" font-family="Helvetica,sans-Serif" font-size="10.00">globals.hpp</text>
</a>
</g>
</g>
<!-- Node1&#45;&gt;Node21 -->
<g id="edge21" class="edge">
<title>Node1&#45;&gt;Node21</title>
<path fill="none" stroke="midnightblue" d="M743.29,-243.07C659.93,-239.11 483.74,-220.08 371,-132 354.71,-119.28 341.76,-99.25 333.8,-84.78"/>
<polygon fill="midnightblue" stroke="midnightblue" points="336.85,-83.05 329.11,-75.82 330.65,-86.3 336.85,-83.05"/>
</g>
<!-- Node23 -->
<g id="node9" class="node">
<title>Node23</title>
<g id="a_node9"><a xlink:href="cfg__dispatcher_8hpp.html" target="_top" xlink:title=" ">
<polygon fill="white" stroke="black" points="542,-112.5 542,-131.5 664,-131.5 664,-112.5 542,-112.5"/>
<text text-anchor="middle" x="603" y="-119.5" font-family="Helvetica,sans-Serif" font-size="10.00">fw/cfg_dispatcher.hpp</text>
</a>
</g>
</g>
<!-- Node1&#45;&gt;Node23 -->
<g id="edge8" class="edge">
<title>Node1&#45;&gt;Node23</title>
<path fill="none" stroke="midnightblue" d="M776.85,-235.49C745.14,-214.97 664.19,-162.6 624.97,-137.21"/>
<polygon fill="midnightblue" stroke="midnightblue" points="626.68,-134.16 616.39,-131.66 622.88,-140.03 626.68,-134.16"/>
</g>
<!-- Node24 -->
<g id="node10" class="node">
<title>Node24</title>
<g id="a_node10"><a xlink:href="core_8hpp.html" target="_top" xlink:title=" ">
<polygon fill="white" stroke="red" points="641.5,-56.5 641.5,-75.5 714.5,-75.5 714.5,-56.5 641.5,-56.5"/>
<text text-anchor="middle" x="678" y="-63.5" font-family="Helvetica,sans-Serif" font-size="10.00">fw/core.hpp</text>
</a>
</g>
</g>
<!-- Node1&#45;&gt;Node24 -->
<g id="edge14" class="edge">
<title>Node1&#45;&gt;Node24</title>
<path fill="none" stroke="midnightblue" d="M836.57,-242.43C943,-238.39 1196.97,-226.01 1224,-199 1251.44,-171.58 1257.29,-140.52 1231,-112 1196.98,-75.1 851.91,-68.46 724.73,-67.26"/>
<polygon fill="midnightblue" stroke="midnightblue" points="724.57,-63.76 714.54,-67.17 724.51,-70.76 724.57,-63.76"/>
</g>
<!-- Node51 -->
<g id="node13" class="node">
<title>Node51</title>
<g id="a_node13"><a xlink:href="dispatcher_8hpp.html" target="_top" xlink:title=" ">
<polygon fill="white" stroke="black" points="552,-174 552,-193 654,-193 654,-174 552,-174"/>
<text text-anchor="middle" x="603" y="-181" font-family="Helvetica,sans-Serif" font-size="10.00">fw/dispatcher.hpp</text>
</a>
</g>
</g>
<!-- Node1&#45;&gt;Node51 -->
<g id="edge15" class="edge">
<title>Node1&#45;&gt;Node51</title>
<path fill="none" stroke="midnightblue" d="M763.21,-235.48C730.71,-225.14 675.79,-207.66 639.46,-196.1"/>
<polygon fill="midnightblue" stroke="midnightblue" points="640.33,-192.71 629.74,-193.01 638.21,-199.38 640.33,-192.71"/>
</g>
<!-- Node53 -->
<g id="node16" class="node">
<title>Node53</title>
<g id="a_node16"><a xlink:href="servio__pb_8hpp.html" target="_top" xlink:title=" ">
<polygon fill="white" stroke="black" points="740.5,-174 740.5,-193 839.5,-193 839.5,-174 740.5,-174"/>
<text text-anchor="middle" x="790" y="-181" font-family="Helvetica,sans-Serif" font-size="10.00">fw/servio_pb.hpp</text>
</a>
</g>
</g>
<!-- Node1&#45;&gt;Node53 -->
<g id="edge22" class="edge">
<title>Node1&#45;&gt;Node53</title>
<path fill="none" stroke="midnightblue" d="M790,-235.48C790,-227.08 790,-213.98 790,-203.16"/>
<polygon fill="midnightblue" stroke="midnightblue" points="793.5,-203.01 790,-193.01 786.5,-203.01 793.5,-203.01"/>
</g>
<!-- Node55 -->
<g id="node18" class="node">
<title>Node55</title>
<g id="a_node18"><a xlink:href="store__persistent__config_8hpp.html" target="_top" xlink:title=" ">
<polygon fill="white" stroke="black" points="879,-168.5 879,-198.5 989,-198.5 989,-168.5 879,-168.5"/>
<text text-anchor="start" x="887" y="-186.5" font-family="Helvetica,sans-Serif" font-size="10.00">fw/store_persistent</text>
<text text-anchor="middle" x="934" y="-175.5" font-family="Helvetica,sans-Serif" font-size="10.00">_config.hpp</text>
</a>
</g>
</g>
<!-- Node1&#45;&gt;Node55 -->
<g id="edge25" class="edge">
<title>Node1&#45;&gt;Node55</title>
<path fill="none" stroke="midnightblue" d="M810.63,-235.48C831.41,-226.89 864.1,-213.38 890.61,-202.43"/>
<polygon fill="midnightblue" stroke="midnightblue" points="892.16,-205.58 900.06,-198.52 889.48,-199.11 892.16,-205.58"/>
</g>
<!-- Node59 -->
<g id="node22" class="node">
<title>Node59</title>
<g id="a_node22"><a xlink:title=" ">
<polygon fill="white" stroke="#bfbfbf" points="1177,-174 1177,-193 1215,-193 1215,-174 1177,-174"/>
<text text-anchor="middle" x="1196" y="-181" font-family="Helvetica,sans-Serif" font-size="10.00">git.h</text>
</a>
</g>
</g>
<!-- Node1&#45;&gt;Node59 -->
<g id="edge30" class="edge">
<title>Node1&#45;&gt;Node59</title>
<path fill="none" stroke="midnightblue" d="M836.78,-243.77C909.3,-242.24 1052.55,-234.48 1168,-199 1169.47,-198.55 1170.96,-198.02 1172.44,-197.44"/>
<polygon fill="midnightblue" stroke="midnightblue" points="1174.29,-200.44 1181.89,-193.06 1171.34,-194.09 1174.29,-200.44"/>
</g>
<!-- Node60 -->
<g id="node23" class="node">
<title>Node60</title>
<g id="a_node23"><a xlink:href="load__persistent__config_8hpp.html" target="_top" xlink:title=" ">
<polygon fill="white" stroke="black" points="1011.5,-174 1011.5,-193 1158.5,-193 1158.5,-174 1011.5,-174"/>
<text text-anchor="middle" x="1085" y="-181" font-family="Helvetica,sans-Serif" font-size="10.00">load_persistent_config.hpp</text>
</a>
</g>
</g>
<!-- Node1&#45;&gt;Node60 -->
<g id="edge31" class="edge">
<title>Node1&#45;&gt;Node60</title>
<path fill="none" stroke="midnightblue" d="M832.27,-235.48C885.17,-224.8 975.76,-206.53 1032.9,-195.01"/>
<polygon fill="midnightblue" stroke="midnightblue" points="1033.7,-198.42 1042.81,-193.01 1032.32,-191.56 1033.7,-198.42"/>
</g>
<!-- Node3 -->
<g id="node3" class="node">
<title>Node3</title>
<g id="a_node3"><a xlink:title=" ">
<polygon fill="white" stroke="#bfbfbf" points="556.5,-56.5 556.5,-75.5 623.5,-75.5 623.5,-56.5 556.5,-56.5"/>
<text text-anchor="middle" x="590" y="-63.5" font-family="Helvetica,sans-Serif" font-size="10.00">config.hpp</text>
</a>
</g>
</g>
<!-- Node2&#45;&gt;Node3 -->
<g id="edge2" class="edge">
<title>Node2&#45;&gt;Node3</title>
<path fill="none" stroke="midnightblue" d="M324,-113.94C381.31,-103.83 486.41,-85.28 545.9,-74.78"/>
<polygon fill="midnightblue" stroke="midnightblue" points="546.87,-78.17 556.11,-72.98 545.65,-71.27 546.87,-78.17"/>
</g>
<!-- Node4 -->
<g id="node4" class="node">
<title>Node4</title>
<g id="a_node4"><a xlink:href="drv__interfaces_8hpp.html" target="_top" xlink:title=" ">
<polygon fill="white" stroke="red" points="379.5,-56.5 379.5,-75.5 486.5,-75.5 486.5,-56.5 379.5,-56.5"/>
<text text-anchor="middle" x="433" y="-63.5" font-family="Helvetica,sans-Serif" font-size="10.00">drv_interfaces.hpp</text>
</a>
</g>
</g>
<!-- Node2&#45;&gt;Node4 -->
<g id="edge3" class="edge">
<title>Node2&#45;&gt;Node4</title>
<path fill="none" stroke="midnightblue" d="M307.61,-112.44C332.46,-103.44 371.77,-89.19 399.75,-79.05"/>
<polygon fill="midnightblue" stroke="midnightblue" points="401.29,-82.21 409.5,-75.52 398.91,-75.63 401.29,-82.21"/>
</g>
<!-- Node8 -->
<g id="node5" class="node">
<title>Node8</title>
<g id="a_node5"><a xlink:href="clock_8hpp.html" target="_top" xlink:title=" ">
<polygon fill="white" stroke="red" points="0,-56.5 0,-75.5 96,-75.5 96,-56.5 0,-56.5"/>
<text text-anchor="middle" x="48" y="-63.5" font-family="Helvetica,sans-Serif" font-size="10.00">fw/drv/clock.hpp</text>
</a>
</g>
</g>
<!-- Node2&#45;&gt;Node8 -->
<g id="edge4" class="edge">
<title>Node2&#45;&gt;Node8</title>
<path fill="none" stroke="midnightblue" d="M246.61,-112.44C205.61,-103.06 139.75,-87.99 95.22,-77.8"/>
<polygon fill="midnightblue" stroke="midnightblue" points="95.75,-74.34 85.22,-75.52 94.19,-81.16 95.75,-74.34"/>
</g>
<!-- Node17 -->
<g id="node6" class="node">
<title>Node17</title>
<g id="a_node6"><a xlink:href="cobs__uart_8hpp.html" target="_top" xlink:title=" ">
<polygon fill="white" stroke="red" points="114,-56.5 114,-75.5 232,-75.5 232,-56.5 114,-56.5"/>
<text text-anchor="middle" x="173" y="-63.5" font-family="Helvetica,sans-Serif" font-size="10.00">fw/drv/cobs_uart.hpp</text>
</a>
</g>
</g>
<!-- Node2&#45;&gt;Node17 -->
<g id="edge5" class="edge">
<title>Node2&#45;&gt;Node17</title>
<path fill="none" stroke="midnightblue" d="M266.17,-112.32C248.28,-103.62 220.52,-90.12 199.95,-80.11"/>
<polygon fill="midnightblue" stroke="midnightblue" points="201.31,-76.88 190.79,-75.65 198.25,-83.18 201.31,-76.88"/>
</g>
<!-- Node20 -->
<g id="node7" class="node">
<title>Node20</title>
<g id="a_node7"><a xlink:href="leds_8hpp.html" target="_top" xlink:title=" ">
<polygon fill="white" stroke="red" points="373.5,-0.5 373.5,-19.5 464.5,-19.5 464.5,-0.5 373.5,-0.5"/>
<text text-anchor="middle" x="419" y="-7.5" font-family="Helvetica,sans-Serif" font-size="10.00">fw/drv/leds.hpp</text>
</a>
</g>
</g>
<!-- Node2&#45;&gt;Node20 -->
<g id="edge6" class="edge">
<title>Node2&#45;&gt;Node20</title>
<path fill="none" stroke="midnightblue" d="M280.12,-112.46C274.68,-99.05 266.73,-72.83 279,-56 298.25,-29.59 333.26,-18.34 363.46,-13.69"/>
<polygon fill="midnightblue" stroke="midnightblue" points="364.03,-17.15 373.48,-12.36 363.11,-10.21 364.03,-17.15"/>
</g>
<!-- Node2&#45;&gt;Node21 -->
<g id="edge7" class="edge">
<title>Node2&#45;&gt;Node21</title>
<path fill="none" stroke="midnightblue" d="M290.77,-112.08C296.56,-104.46 305.06,-93.26 312.14,-83.94"/>
<polygon fill="midnightblue" stroke="midnightblue" points="315.1,-85.83 318.36,-75.75 309.52,-81.6 315.1,-85.83"/>
</g>
<!-- Node23&#45;&gt;Node3 -->
<g id="edge9" class="edge">
<title>Node23&#45;&gt;Node3</title>
<path fill="none" stroke="midnightblue" d="M600.85,-112.08C599.13,-104.93 596.65,-94.64 594.5,-85.69"/>
<polygon fill="midnightblue" stroke="midnightblue" points="597.85,-84.65 592.11,-75.75 591.04,-86.29 597.85,-84.65"/>
</g>
<!-- Node23&#45;&gt;Node24 -->
<g id="edge10" class="edge">
<title>Node23&#45;&gt;Node24</title>
<path fill="none" stroke="midnightblue" d="M615.05,-112.32C626.46,-104.11 643.83,-91.6 657.43,-81.81"/>
<polygon fill="midnightblue" stroke="midnightblue" points="659.66,-84.52 665.73,-75.83 655.57,-78.84 659.66,-84.52"/>
</g>
<!-- Node24&#45;&gt;Node20 -->
<g id="edge12" class="edge">
<title>Node24&#45;&gt;Node20</title>
<path fill="none" stroke="midnightblue" d="M641.44,-57.38C596.7,-48.05 520.66,-32.2 470.14,-21.66"/>
<polygon fill="midnightblue" stroke="midnightblue" points="470.58,-18.18 460.07,-19.56 469.15,-25.03 470.58,-18.18"/>
</g>
<!-- Node25 -->
<g id="node11" class="node">
<title>Node25</title>
<g id="a_node11"><a xlink:href="control_8hpp.html" target="_top" xlink:title=" ">
<polygon fill="white" stroke="red" points="560.5,-0.5 560.5,-19.5 631.5,-19.5 631.5,-0.5 560.5,-0.5"/>
<text text-anchor="middle" x="596" y="-7.5" font-family="Helvetica,sans-Serif" font-size="10.00">control.hpp</text>
</a>
</g>
</g>
<!-- Node24&#45;&gt;Node25 -->
<g id="edge11" class="edge">
<title>Node24&#45;&gt;Node25</title>
<path fill="none" stroke="midnightblue" d="M664.83,-56.32C652.15,-47.98 632.77,-35.21 617.79,-25.35"/>
<polygon fill="midnightblue" stroke="midnightblue" points="619.42,-22.23 609.14,-19.65 615.57,-28.08 619.42,-22.23"/>
</g>
<!-- Node49 -->
<g id="node12" class="node">
<title>Node49</title>
<g id="a_node12"><a xlink:href="util_8hpp.html" target="_top" xlink:title=" ">
<polygon fill="white" stroke="red" points="949,-0.5 949,-19.5 1017,-19.5 1017,-0.5 949,-0.5"/>
<text text-anchor="middle" x="983" y="-7.5" font-family="Helvetica,sans-Serif" font-size="10.00">fw/util.hpp</text>
</a>
</g>
</g>
<!-- Node24&#45;&gt;Node49 -->
<g id="edge13" class="edge">
<title>Node24&#45;&gt;Node49</title>
<path fill="none" stroke="midnightblue" d="M714.79,-58.49C771.11,-48.52 878.49,-29.5 938.9,-18.81"/>
<polygon fill="midnightblue" stroke="midnightblue" points="939.65,-22.23 948.89,-17.04 938.43,-15.34 939.65,-22.23"/>
</g>
<!-- Node51&#45;&gt;Node23 -->
<g id="edge17" class="edge">
<title>Node51&#45;&gt;Node23</title>
<path fill="none" stroke="midnightblue" d="M603,-173.98C603,-165.58 603,-152.48 603,-141.66"/>
<polygon fill="midnightblue" stroke="midnightblue" points="606.5,-141.51 603,-131.51 599.5,-141.51 606.5,-141.51"/>
</g>
<!-- Node51&#45;&gt;Node25 -->
<g id="edge16" class="edge">
<title>Node51&#45;&gt;Node25</title>
<path fill="none" stroke="midnightblue" d="M582.2,-173.99C565.51,-165.91 543.24,-152.01 533,-132 522.91,-112.28 541.06,-67.59 548,-56 554.99,-44.33 565.87,-33.78 575.5,-25.83"/>
<polygon fill="midnightblue" stroke="midnightblue" points="577.8,-28.47 583.52,-19.55 573.49,-22.96 577.8,-28.47"/>
</g>
<!-- Node38 -->
<g id="node14" class="node">
<title>Node38</title>
<g id="a_node14"><a xlink:href="conversion_8hpp.html" target="_top" xlink:title=" ">
<polygon fill="white" stroke="red" points="380.5,-112.5 380.5,-131.5 485.5,-131.5 485.5,-112.5 380.5,-112.5"/>
<text text-anchor="middle" x="433" y="-119.5" font-family="Helvetica,sans-Serif" font-size="10.00">fw/conversion.hpp</text>
</a>
</g>
</g>
<!-- Node51&#45;&gt;Node38 -->
<g id="edge18" class="edge">
<title>Node51&#45;&gt;Node38</title>
<path fill="none" stroke="midnightblue" d="M578.64,-173.98C549.36,-163.72 500.03,-146.46 467,-134.9"/>
<polygon fill="midnightblue" stroke="midnightblue" points="467.91,-131.51 457.31,-131.51 465.59,-138.12 467.91,-131.51"/>
</g>
<!-- Node52 -->
<g id="node15" class="node">
<title>Node52</title>
<g id="a_node15"><a xlink:title=" ">
<polygon fill="white" stroke="#bfbfbf" points="682,-112.5 682,-131.5 732,-131.5 732,-112.5 682,-112.5"/>
<text text-anchor="middle" x="707" y="-119.5" font-family="Helvetica,sans-Serif" font-size="10.00">io.pb.h</text>
</a>
</g>
</g>
<!-- Node51&#45;&gt;Node52 -->
<g id="edge20" class="edge">
<title>Node51&#45;&gt;Node52</title>
<path fill="none" stroke="midnightblue" d="M617.9,-173.98C634.97,-164.21 663.16,-148.08 683.26,-136.58"/>
<polygon fill="midnightblue" stroke="midnightblue" points="685.19,-139.51 692.13,-131.51 681.71,-133.44 685.19,-139.51"/>
</g>
<!-- Node38&#45;&gt;Node4 -->
<g id="edge19" class="edge">
<title>Node38&#45;&gt;Node4</title>
<path fill="none" stroke="midnightblue" d="M433,-112.08C433,-105.01 433,-94.86 433,-85.99"/>
<polygon fill="midnightblue" stroke="midnightblue" points="436.5,-85.75 433,-75.75 429.5,-85.75 436.5,-85.75"/>
</g>
<!-- Node53&#45;&gt;Node52 -->
<g id="edge24" class="edge">
<title>Node53&#45;&gt;Node52</title>
<path fill="none" stroke="midnightblue" d="M778.11,-173.98C764.8,-164.43 743,-148.81 727.04,-137.37"/>
<polygon fill="midnightblue" stroke="midnightblue" points="729.04,-134.49 718.87,-131.51 724.96,-140.18 729.04,-134.49"/>
</g>
<!-- Node54 -->
<g id="node17" class="node">
<title>Node54</title>
<g id="a_node17"><a xlink:title=" ">
<polygon fill="white" stroke="#bfbfbf" points="750.5,-112.5 750.5,-131.5 849.5,-131.5 849.5,-112.5 750.5,-112.5"/>
<text text-anchor="middle" x="800" y="-119.5" font-family="Helvetica,sans-Serif" font-size="10.00">emlabcpp/view.h</text>
</a>
</g>
</g>
<!-- Node53&#45;&gt;Node54 -->
<g id="edge23" class="edge">
<title>Node53&#45;&gt;Node54</title>
<path fill="none" stroke="midnightblue" d="M791.43,-173.98C792.84,-165.58 795.05,-152.48 796.86,-141.66"/>
<polygon fill="midnightblue" stroke="midnightblue" points="800.36,-141.95 798.57,-131.51 793.46,-140.79 800.36,-141.95"/>
</g>
<!-- Node56 -->
<g id="node19" class="node">
<title>Node56</title>
<g id="a_node19"><a xlink:href="storage_8hpp.html" target="_top" xlink:title=" ">
<polygon fill="white" stroke="red" points="1130,-112.5 1130,-131.5 1222,-131.5 1222,-112.5 1130,-112.5"/>
<text text-anchor="middle" x="1176" y="-119.5" font-family="Helvetica,sans-Serif" font-size="10.00">cfg/storage.hpp</text>
</a>
</g>
</g>
<!-- Node55&#45;&gt;Node56 -->
<g id="edge26" class="edge">
<title>Node55&#45;&gt;Node56</title>
<path fill="none" stroke="midnightblue" d="M989.22,-168.92C1032.3,-158.33 1091.36,-143.81 1131.46,-133.95"/>
<polygon fill="midnightblue" stroke="midnightblue" points="1132.35,-137.34 1141.22,-131.55 1130.67,-130.54 1132.35,-137.34"/>
</g>
<!-- Node13 -->
<g id="node20" class="node">
<title>Node13</title>
<g id="a_node20"><a xlink:title=" ">
<polygon fill="white" stroke="#bfbfbf" points="868,-112.5 868,-131.5 992,-131.5 992,-112.5 868,-112.5"/>
<text text-anchor="middle" x="930" y="-119.5" font-family="Helvetica,sans-Serif" font-size="10.00">emlabcpp/algorithm.h</text>
</a>
</g>
</g>
<!-- Node55&#45;&gt;Node13 -->
<g id="edge28" class="edge">
<title>Node55&#45;&gt;Node13</title>
<path fill="none" stroke="midnightblue" d="M933.05,-168.4C932.52,-160.47 931.85,-150.46 931.27,-141.86"/>
<polygon fill="midnightblue" stroke="midnightblue" points="934.74,-141.4 930.58,-131.66 927.76,-141.87 934.74,-141.4"/>
</g>
<!-- Node58 -->
<g id="node21" class="node">
<title>Node58</title>
<g id="a_node21"><a xlink:title=" ">
<polygon fill="white" stroke="#bfbfbf" points="1010.5,-112.5 1010.5,-131.5 1111.5,-131.5 1111.5,-112.5 1010.5,-112.5"/>
<text text-anchor="middle" x="1061" y="-119.5" font-family="Helvetica,sans-Serif" font-size="10.00">emlabcpp/defer.h</text>
</a>
</g>
</g>
<!-- Node55&#45;&gt;Node58 -->
<g id="edge29" class="edge">
<title>Node55&#45;&gt;Node58</title>
<path fill="none" stroke="midnightblue" d="M964.1,-168.4C985.12,-158.55 1012.97,-145.5 1033.42,-135.92"/>
<polygon fill="midnightblue" stroke="midnightblue" points="1034.95,-139.07 1042.52,-131.66 1031.98,-132.73 1034.95,-139.07"/>
</g>
<!-- Node56&#45;&gt;Node3 -->
<g id="edge27" class="edge">
<title>Node56&#45;&gt;Node3</title>
<path fill="none" stroke="midnightblue" d="M1129.83,-113.14C1126.84,-112.73 1123.88,-112.34 1121,-112 908.3,-86.8 850.1,-105.75 633.81,-75.91"/>
<polygon fill="midnightblue" stroke="midnightblue" points="634.12,-72.42 623.73,-74.5 633.15,-79.35 634.12,-72.42"/>
</g>
<!-- Node60&#45;&gt;Node49 -->
<g id="edge33" class="edge">
<title>Node60&#45;&gt;Node49</title>
<path fill="none" stroke="midnightblue" d="M1125.58,-173.98C1164.3,-164.93 1218.51,-149.53 1231,-132 1236.16,-124.76 1235.96,-119.38 1231,-112 1185.36,-44.13 1085.32,-21.84 1027.21,-14.54"/>
<polygon fill="midnightblue" stroke="midnightblue" points="1027.55,-11.06 1017.21,-13.38 1026.74,-18.01 1027.55,-11.06"/>
</g>
<!-- Node60&#45;&gt;Node56 -->
<g id="edge32" class="edge">
<title>Node60&#45;&gt;Node56</title>
<path fill="none" stroke="midnightblue" d="M1098.04,-173.98C1112.77,-164.34 1136.97,-148.52 1154.51,-137.05"/>
<polygon fill="midnightblue" stroke="midnightblue" points="1156.53,-139.91 1162.99,-131.51 1152.7,-134.05 1156.53,-139.91"/>
</g>
</g>
</svg>
