<?xml version="1.0" encoding="UTF-8" standalone="no"?>
<!DOCTYPE svg PUBLIC "-//W3C//DTD SVG 1.1//EN"
 "http://www.w3.org/Graphics/SVG/1.1/DTD/svg11.dtd">
<!-- Generated by graphviz version 2.43.0 (0)
 -->
<!-- Title: src/fw/main.cpp Pages: 1 -->
<svg width="1121pt" height="274pt"
 viewBox="0.00 0.00 1121.23 274.00" xmlns="http://www.w3.org/2000/svg" xmlns:xlink="http://www.w3.org/1999/xlink">
<g id="graph0" class="graph" transform="scale(1 1) rotate(0) translate(4 270)">
<title>src/fw/main.cpp</title>
<polygon fill="white" stroke="transparent" points="-4,4 -4,-270 1117.23,-270 1117.23,4 -4,4"/>
<!-- Node1 -->
<g id="node1" class="node">
<title>Node1</title>
<g id="a_node1"><a xlink:title=" ">
<polygon fill="#bfbfbf" stroke="black" points="507.14,-246.5 507.14,-265.5 600.14,-265.5 600.14,-246.5 507.14,-246.5"/>
<text text-anchor="middle" x="553.64" y="-253.5" font-family="Helvetica,sans-Serif" font-size="10.00">src/fw/main.cpp</text>
</a>
</g>
</g>
<!-- Node2 -->
<g id="node2" class="node">
<title>Node2</title>
<g id="a_node2"><a xlink:href="brd_8hpp.html" target="_top" xlink:title=" ">
<polygon fill="white" stroke="black" points="527.14,-185 527.14,-204 580.14,-204 580.14,-185 527.14,-185"/>
<text text-anchor="middle" x="553.64" y="-192" font-family="Helvetica,sans-Serif" font-size="10.00">brd.hpp</text>
</a>
</g>
</g>
<!-- Node1&#45;&gt;Node2 -->
<g id="edge1" class="edge">
<title>Node1&#45;&gt;Node2</title>
<path fill="none" stroke="midnightblue" d="M553.64,-246.48C553.64,-238.08 553.64,-224.98 553.64,-214.16"/>
<polygon fill="midnightblue" stroke="midnightblue" points="557.14,-214.01 553.64,-204.01 550.14,-214.01 557.14,-214.01"/>
</g>
<!-- Node13 -->
<g id="node5" class="node">
<title>Node13</title>
<g id="a_node5"><a xlink:href="drivers_8hpp.html" target="_top" xlink:title=" ">
<polygon fill="white" stroke="black" points="653.14,-123.5 653.14,-142.5 748.14,-142.5 748.14,-123.5 653.14,-123.5"/>
<text text-anchor="middle" x="700.64" y="-130.5" font-family="Helvetica,sans-Serif" font-size="10.00">core/drivers.hpp</text>
</a>
</g>
</g>
<!-- Node1&#45;&gt;Node13 -->
<g id="edge14" class="edge">
<title>Node1&#45;&gt;Node13</title>
<path fill="none" stroke="midnightblue" d="M600.3,-248.55C643.59,-241.5 703.41,-228.66 717.64,-210 730.53,-193.1 721.18,-168.31 712.05,-151.68"/>
<polygon fill="midnightblue" stroke="midnightblue" points="714.98,-149.77 706.87,-142.96 708.97,-153.34 714.98,-149.77"/>
</g>
<!-- Node16 -->
<g id="node7" class="node">
<title>Node16</title>
<g id="a_node7"><a xlink:title=" ">
<polygon fill="white" stroke="#bfbfbf" points="762.64,-0.5 762.64,-19.5 866.64,-19.5 866.64,-0.5 762.64,-0.5"/>
<text text-anchor="middle" x="814.64" y="-7.5" font-family="Helvetica,sans-Serif" font-size="10.00">emlabcpp/result.h</text>
</a>
</g>
</g>
<!-- Node1&#45;&gt;Node16 -->
<g id="edge15" class="edge">
<title>Node1&#45;&gt;Node16</title>
<path fill="none" stroke="midnightblue" d="M600.33,-253.79C702.79,-250.6 944.23,-240.04 1019.64,-210 1064.65,-192.07 1084.37,-186.53 1105.64,-143 1151.1,-49.97 975.59,-22.43 877.15,-14.33"/>
<polygon fill="midnightblue" stroke="midnightblue" points="877.25,-10.83 867.01,-13.54 876.7,-17.81 877.25,-10.83"/>
</g>
<!-- Node19 -->
<g id="node9" class="node">
<title>Node19</title>
<g id="a_node9"><a xlink:href="cfg_2dispatcher_8hpp.html" target="_top" xlink:title=" ">
<polygon fill="white" stroke="black" points="12.64,-123.5 12.64,-142.5 118.64,-142.5 118.64,-123.5 12.64,-123.5"/>
<text text-anchor="middle" x="65.64" y="-130.5" font-family="Helvetica,sans-Serif" font-size="10.00">cfg/dispatcher.hpp</text>
</a>
</g>
</g>
<!-- Node1&#45;&gt;Node19 -->
<g id="edge8" class="edge">
<title>Node1&#45;&gt;Node19</title>
<path fill="none" stroke="midnightblue" d="M506.97,-255.12C437.16,-253.99 302.25,-246.69 194.64,-210 152.54,-195.65 109.08,-166.52 84.89,-148.79"/>
<polygon fill="midnightblue" stroke="midnightblue" points="86.71,-145.78 76.61,-142.6 82.53,-151.39 86.71,-145.78"/>
</g>
<!-- Node20 -->
<g id="node10" class="node">
<title>Node20</title>
<g id="a_node10"><a xlink:href="core_8hpp.html" target="_top" xlink:title=" ">
<polygon fill="white" stroke="red" points="24.14,-62 24.14,-81 107.14,-81 107.14,-62 24.14,-62"/>
<text text-anchor="middle" x="65.64" y="-69" font-family="Helvetica,sans-Serif" font-size="10.00">core/core.hpp</text>
</a>
</g>
</g>
<!-- Node1&#45;&gt;Node20 -->
<g id="edge13" class="edge">
<title>Node1&#45;&gt;Node20</title>
<path fill="none" stroke="midnightblue" d="M507.07,-255.92C427.45,-256.22 260.84,-251.25 127.64,-210 67.8,-191.47 35.72,-196.8 3.64,-143 -9.42,-121.1 16.64,-99.64 38.88,-86.26"/>
<polygon fill="midnightblue" stroke="midnightblue" points="40.79,-89.2 47.74,-81.21 37.32,-83.12 40.79,-89.2"/>
</g>
<!-- Node46 -->
<g id="node12" class="node">
<title>Node46</title>
<g id="a_node12"><a xlink:href="board_8hpp.html" target="_top" xlink:title=" ">
<polygon fill="white" stroke="black" points="930.64,-185 930.64,-204 1010.64,-204 1010.64,-185 930.64,-185"/>
<text text-anchor="middle" x="970.64" y="-192" font-family="Helvetica,sans-Serif" font-size="10.00">fw/board.hpp</text>
</a>
</g>
</g>
<!-- Node1&#45;&gt;Node46 -->
<g id="edge16" class="edge">
<title>Node1&#45;&gt;Node46</title>
<path fill="none" stroke="midnightblue" d="M600.3,-248.57C662.62,-239.95 776.48,-224.09 873.64,-210 888.84,-207.8 905.37,-205.34 920.4,-203.09"/>
<polygon fill="midnightblue" stroke="midnightblue" points="921.17,-206.52 930.54,-201.57 920.13,-199.6 921.17,-206.52"/>
</g>
<!-- Node49 -->
<g id="node14" class="node">
<title>Node49</title>
<g id="a_node14"><a xlink:href="fw_2dispatcher_8hpp.html" target="_top" xlink:title=" ">
<polygon fill="white" stroke="black" points="203.64,-185 203.64,-204 305.64,-204 305.64,-185 203.64,-185"/>
<text text-anchor="middle" x="254.64" y="-192" font-family="Helvetica,sans-Serif" font-size="10.00">fw/dispatcher.hpp</text>
</a>
</g>
</g>
<!-- Node1&#45;&gt;Node49 -->
<g id="edge19" class="edge">
<title>Node1&#45;&gt;Node49</title>
<path fill="none" stroke="midnightblue" d="M506.94,-246.44C459.65,-237.67 384.45,-223.46 319.64,-210 313.91,-208.81 307.91,-207.52 301.96,-206.23"/>
<polygon fill="midnightblue" stroke="midnightblue" points="302.59,-202.78 292.07,-204.05 301.08,-209.62 302.59,-202.78"/>
</g>
<!-- Node51 -->
<g id="node16" class="node">
<title>Node51</title>
<g id="a_node16"><a xlink:href="util_8hpp.html" target="_top" xlink:title=" ">
<polygon fill="white" stroke="red" points="350.64,-123.5 350.64,-142.5 418.64,-142.5 418.64,-123.5 350.64,-123.5"/>
<text text-anchor="middle" x="384.64" y="-130.5" font-family="Helvetica,sans-Serif" font-size="10.00">fw/util.hpp</text>
</a>
</g>
</g>
<!-- Node1&#45;&gt;Node51 -->
<g id="edge35" class="edge">
<title>Node1&#45;&gt;Node51</title>
<path fill="none" stroke="midnightblue" d="M507.02,-251.13C454.05,-245.64 372.48,-233.55 353.64,-210 339.39,-192.19 355.09,-166.93 368.85,-150.51"/>
<polygon fill="midnightblue" stroke="midnightblue" points="371.67,-152.61 375.7,-142.81 366.44,-147.95 371.67,-152.61"/>
</g>
<!-- Node54 -->
<g id="node18" class="node">
<title>Node54</title>
<g id="a_node18"><a xlink:href="servio__pb_8hpp.html" target="_top" xlink:title=" ">
<polygon fill="white" stroke="black" points="765.14,-185 765.14,-204 864.14,-204 864.14,-185 765.14,-185"/>
<text text-anchor="middle" x="814.64" y="-192" font-family="Helvetica,sans-Serif" font-size="10.00">fw/servio_pb.hpp</text>
</a>
</g>
</g>
<!-- Node1&#45;&gt;Node54 -->
<g id="edge26" class="edge">
<title>Node1&#45;&gt;Node54</title>
<path fill="none" stroke="midnightblue" d="M591.04,-246.48C637.45,-235.89 716.67,-217.84 767.28,-206.3"/>
<polygon fill="midnightblue" stroke="midnightblue" points="768.34,-209.64 777.32,-204.01 766.79,-202.82 768.34,-209.64"/>
</g>
<!-- Node56 -->
<g id="node20" class="node">
<title>Node56</title>
<g id="a_node20"><a xlink:href="store__persistent__config_8hpp.html" target="_top" xlink:title=" ">
<polygon fill="white" stroke="black" points="598.64,-179.5 598.64,-209.5 708.64,-209.5 708.64,-179.5 598.64,-179.5"/>
<text text-anchor="start" x="606.64" y="-197.5" font-family="Helvetica,sans-Serif" font-size="10.00">fw/store_persistent</text>
<text text-anchor="middle" x="653.64" y="-186.5" font-family="Helvetica,sans-Serif" font-size="10.00">_config.hpp</text>
</a>
</g>
</g>
<!-- Node1&#45;&gt;Node56 -->
<g id="edge30" class="edge">
<title>Node1&#45;&gt;Node56</title>
<path fill="none" stroke="midnightblue" d="M567.97,-246.48C581.77,-238.27 603.12,-225.56 621.06,-214.88"/>
<polygon fill="midnightblue" stroke="midnightblue" points="623.27,-217.64 630.07,-209.52 619.69,-211.63 623.27,-217.64"/>
</g>
<!-- Node58 -->
<g id="node22" class="node">
<title>Node58</title>
<g id="a_node22"><a xlink:href="load__persistent__config_8hpp.html" target="_top" xlink:title=" ">
<polygon fill="white" stroke="black" points="362.14,-185 362.14,-204 509.14,-204 509.14,-185 362.14,-185"/>
<text text-anchor="middle" x="435.64" y="-192" font-family="Helvetica,sans-Serif" font-size="10.00">load_persistent_config.hpp</text>
</a>
</g>
</g>
<!-- Node1&#45;&gt;Node58 -->
<g id="edge36" class="edge">
<title>Node1&#45;&gt;Node58</title>
<path fill="none" stroke="midnightblue" d="M536.74,-246.48C517.11,-236.58 484.51,-220.14 461.65,-208.62"/>
<polygon fill="midnightblue" stroke="midnightblue" points="463.02,-205.39 452.52,-204.01 459.87,-211.64 463.02,-205.39"/>
</g>
<!-- Node3 -->
<g id="node3" class="node">
<title>Node3</title>
<g id="a_node3"><a xlink:href="map_8hpp.html" target="_top" xlink:title=" ">
<polygon fill="white" stroke="red" points="327.14,-62 327.14,-81 404.14,-81 404.14,-62 327.14,-62"/>
<text text-anchor="middle" x="365.64" y="-69" font-family="Helvetica,sans-Serif" font-size="10.00">cfg/map.hpp</text>
</a>
</g>
</g>
<!-- Node2&#45;&gt;Node3 -->
<g id="edge2" class="edge">
<title>Node2&#45;&gt;Node3</title>
<path fill="none" stroke="midnightblue" d="M548.65,-184.92C539.75,-170.3 519.78,-140.47 495.64,-123 470.33,-104.69 437.52,-92 411.19,-83.93"/>
<polygon fill="midnightblue" stroke="midnightblue" points="412.02,-80.53 401.44,-81.06 410.05,-87.24 412.02,-80.53"/>
</g>
<!-- Node2&#45;&gt;Node13 -->
<g id="edge4" class="edge">
<title>Node2&#45;&gt;Node13</title>
<path fill="none" stroke="midnightblue" d="M574.7,-184.98C599.7,-174.86 641.58,-157.9 670.13,-146.35"/>
<polygon fill="midnightblue" stroke="midnightblue" points="671.66,-149.51 679.62,-142.51 669.04,-143.02 671.66,-149.51"/>
</g>
<!-- Node9 -->
<g id="node4" class="node">
<title>Node9</title>
<g id="a_node4"><a xlink:href="key_8hpp.html" target="_top" xlink:title=" ">
<polygon fill="white" stroke="red" points="201.14,-0.5 201.14,-19.5 272.14,-19.5 272.14,-0.5 201.14,-0.5"/>
<text text-anchor="middle" x="236.64" y="-7.5" font-family="Helvetica,sans-Serif" font-size="10.00">cfg/key.hpp</text>
</a>
</g>
</g>
<!-- Node3&#45;&gt;Node9 -->
<g id="edge3" class="edge">
<title>Node3&#45;&gt;Node9</title>
<path fill="none" stroke="midnightblue" d="M347.16,-61.98C325.51,-51.99 289.43,-35.35 264.41,-23.81"/>
<polygon fill="midnightblue" stroke="midnightblue" points="265.64,-20.52 255.09,-19.51 262.7,-26.88 265.64,-20.52"/>
</g>
<!-- Node14 -->
<g id="node6" class="node">
<title>Node14</title>
<g id="a_node6"><a xlink:href="drv__interfaces_8hpp.html" target="_top" xlink:title=" ">
<polygon fill="white" stroke="red" points="652.64,-62 652.64,-81 786.64,-81 786.64,-62 652.64,-62"/>
<text text-anchor="middle" x="719.64" y="-69" font-family="Helvetica,sans-Serif" font-size="10.00">base/drv_interfaces.hpp</text>
</a>
</g>
</g>
<!-- Node13&#45;&gt;Node14 -->
<g id="edge5" class="edge">
<title>Node13&#45;&gt;Node14</title>
<path fill="none" stroke="midnightblue" d="M703.36,-123.48C706.07,-114.99 710.32,-101.7 713.79,-90.82"/>
<polygon fill="midnightblue" stroke="midnightblue" points="717.22,-91.6 716.92,-81.01 710.55,-89.47 717.22,-91.6"/>
</g>
<!-- Node18 -->
<g id="node8" class="node">
<title>Node18</title>
<g id="a_node8"><a xlink:title=" ">
<polygon fill="white" stroke="#bfbfbf" points="501.14,-56.5 501.14,-86.5 634.14,-86.5 634.14,-56.5 501.14,-56.5"/>
<text text-anchor="start" x="509.14" y="-74.5" font-family="Helvetica,sans-Serif" font-size="10.00">emlabcpp/experimental</text>
<text text-anchor="middle" x="567.64" y="-63.5" font-family="Helvetica,sans-Serif" font-size="10.00">/function_view.h</text>
</a>
</g>
</g>
<!-- Node13&#45;&gt;Node18 -->
<g id="edge7" class="edge">
<title>Node13&#45;&gt;Node18</title>
<path fill="none" stroke="midnightblue" d="M681.59,-123.48C662.56,-114.96 632.73,-101.62 608.36,-90.72"/>
<polygon fill="midnightblue" stroke="midnightblue" points="609.54,-87.41 598.99,-86.52 606.69,-93.8 609.54,-87.41"/>
</g>
<!-- Node14&#45;&gt;Node16 -->
<g id="edge6" class="edge">
<title>Node14&#45;&gt;Node16</title>
<path fill="none" stroke="midnightblue" d="M733.25,-61.98C748.7,-52.3 774.13,-36.37 792.46,-24.89"/>
<polygon fill="midnightblue" stroke="midnightblue" points="794.44,-27.78 801.06,-19.51 790.72,-21.85 794.44,-27.78"/>
</g>
<!-- Node19&#45;&gt;Node3 -->
<g id="edge10" class="edge">
<title>Node19&#45;&gt;Node3</title>
<path fill="none" stroke="midnightblue" d="M108.62,-123.48C163.8,-112.53 259.28,-93.59 317.04,-82.14"/>
<polygon fill="midnightblue" stroke="midnightblue" points="317.9,-85.54 327.02,-80.16 316.53,-78.67 317.9,-85.54"/>
</g>
<!-- Node19&#45;&gt;Node9 -->
<g id="edge9" class="edge">
<title>Node19&#45;&gt;Node9</title>
<path fill="none" stroke="midnightblue" d="M77.67,-123.49C106.54,-103.06 180.06,-51.04 216.1,-25.54"/>
<polygon fill="midnightblue" stroke="midnightblue" points="218.26,-28.29 224.4,-19.66 214.22,-22.58 218.26,-28.29"/>
</g>
<!-- Node19&#45;&gt;Node20 -->
<g id="edge11" class="edge">
<title>Node19&#45;&gt;Node20</title>
<path fill="none" stroke="midnightblue" d="M65.64,-123.48C65.64,-115.08 65.64,-101.98 65.64,-91.16"/>
<polygon fill="midnightblue" stroke="midnightblue" points="69.14,-91.01 65.64,-81.01 62.14,-91.01 69.14,-91.01"/>
</g>
<!-- Node28 -->
<g id="node11" class="node">
<title>Node28</title>
<g id="a_node11"><a xlink:href="control_8hpp.html" target="_top" xlink:title=" ">
<polygon fill="white" stroke="red" points="85.64,-0.5 85.64,-19.5 171.64,-19.5 171.64,-0.5 85.64,-0.5"/>
<text text-anchor="middle" x="128.64" y="-7.5" font-family="Helvetica,sans-Serif" font-size="10.00">ctl/control.hpp</text>
</a>
</g>
</g>
<!-- Node20&#45;&gt;Node28 -->
<g id="edge12" class="edge">
<title>Node20&#45;&gt;Node28</title>
<path fill="none" stroke="midnightblue" d="M74.67,-61.98C84.4,-52.78 100.1,-37.96 112.06,-26.66"/>
<polygon fill="midnightblue" stroke="midnightblue" points="114.77,-28.92 119.63,-19.51 109.96,-23.83 114.77,-28.92"/>
</g>
<!-- Node46&#45;&gt;Node14 -->
<g id="edge17" class="edge">
<title>Node46&#45;&gt;Node14</title>
<path fill="none" stroke="midnightblue" d="M970.99,-184.7C971.06,-169.75 968.9,-139.43 951.64,-123 929.52,-101.94 855.28,-88.34 796.67,-80.62"/>
<polygon fill="midnightblue" stroke="midnightblue" points="797.03,-77.14 786.67,-79.34 796.14,-84.08 797.03,-77.14"/>
</g>
<!-- Node47 -->
<g id="node13" class="node">
<title>Node47</title>
<g id="a_node13"><a xlink:href="globals_8hpp.html" target="_top" xlink:title=" ">
<polygon fill="white" stroke="red" points="999.14,-123.5 999.14,-142.5 1096.14,-142.5 1096.14,-123.5 999.14,-123.5"/>
<text text-anchor="middle" x="1047.64" y="-130.5" font-family="Helvetica,sans-Serif" font-size="10.00">core/globals.hpp</text>
</a>
</g>
</g>
<!-- Node46&#45;&gt;Node47 -->
<g id="edge18" class="edge">
<title>Node46&#45;&gt;Node47</title>
<path fill="none" stroke="midnightblue" d="M981.67,-184.98C993.91,-175.52 1013.87,-160.1 1028.63,-148.69"/>
<polygon fill="midnightblue" stroke="midnightblue" points="1030.86,-151.39 1036.63,-142.51 1026.58,-145.85 1030.86,-151.39"/>
</g>
<!-- Node49&#45;&gt;Node18 -->
<g id="edge24" class="edge">
<title>Node49&#45;&gt;Node18</title>
<path fill="none" stroke="midnightblue" d="M262.83,-184.59C277.24,-169.47 308.74,-138.91 341.64,-123 388.5,-100.34 445.76,-87.68 490.92,-80.71"/>
<polygon fill="midnightblue" stroke="midnightblue" points="491.57,-84.15 500.95,-79.22 490.54,-77.23 491.57,-84.15"/>
</g>
<!-- Node49&#45;&gt;Node19 -->
<g id="edge20" class="edge">
<title>Node49&#45;&gt;Node19</title>
<path fill="none" stroke="midnightblue" d="M227.56,-184.98C194.72,-174.64 139.21,-157.16 102.49,-145.6"/>
<polygon fill="midnightblue" stroke="midnightblue" points="103.26,-142.17 92.67,-142.51 101.16,-148.85 103.26,-142.17"/>
</g>
<!-- Node49&#45;&gt;Node28 -->
<g id="edge21" class="edge">
<title>Node49&#45;&gt;Node28</title>
<path fill="none" stroke="midnightblue" d="M229.06,-184.91C209.26,-177 182.62,-163.38 166.64,-143 140.12,-109.18 132.1,-57.54 129.69,-29.95"/>
<polygon fill="midnightblue" stroke="midnightblue" points="133.16,-29.44 128.95,-19.72 126.18,-29.94 133.16,-29.44"/>
</g>
<!-- Node50 -->
<g id="node15" class="node">
<title>Node50</title>
<g id="a_node15"><a xlink:title=" ">
<polygon fill="white" stroke="#bfbfbf" points="175.14,-123.5 175.14,-142.5 294.14,-142.5 294.14,-123.5 175.14,-123.5"/>
<text text-anchor="middle" x="234.64" y="-130.5" font-family="Helvetica,sans-Serif" font-size="10.00">emlabcpp/outcome.h</text>
</a>
</g>
</g>
<!-- Node49&#45;&gt;Node50 -->
<g id="edge22" class="edge">
<title>Node49&#45;&gt;Node50</title>
<path fill="none" stroke="midnightblue" d="M251.78,-184.98C248.92,-176.49 244.46,-163.2 240.8,-152.32"/>
<polygon fill="midnightblue" stroke="midnightblue" points="244.01,-150.87 237.5,-142.51 237.37,-153.1 244.01,-150.87"/>
</g>
<!-- Node49&#45;&gt;Node51 -->
<g id="edge23" class="edge">
<title>Node49&#45;&gt;Node51</title>
<path fill="none" stroke="midnightblue" d="M273.27,-184.98C295.08,-174.99 331.45,-158.35 356.66,-146.81"/>
<polygon fill="midnightblue" stroke="midnightblue" points="358.41,-149.85 366.05,-142.51 355.5,-143.49 358.41,-149.85"/>
</g>
<!-- Node53 -->
<g id="node17" class="node">
<title>Node53</title>
<g id="a_node17"><a xlink:title=" ">
<polygon fill="white" stroke="#bfbfbf" points="436.64,-123.5 436.64,-142.5 486.64,-142.5 486.64,-123.5 436.64,-123.5"/>
<text text-anchor="middle" x="461.64" y="-130.5" font-family="Helvetica,sans-Serif" font-size="10.00">io.pb.h</text>
</a>
</g>
</g>
<!-- Node49&#45;&gt;Node53 -->
<g id="edge25" class="edge">
<title>Node49&#45;&gt;Node53</title>
<path fill="none" stroke="midnightblue" d="M284.3,-184.98C321.94,-174.16 386.76,-155.52 426.74,-144.03"/>
<polygon fill="midnightblue" stroke="midnightblue" points="427.94,-147.33 436.59,-141.2 426.01,-140.6 427.94,-147.33"/>
</g>
<!-- Node54&#45;&gt;Node16 -->
<g id="edge27" class="edge">
<title>Node54&#45;&gt;Node16</title>
<path fill="none" stroke="midnightblue" d="M814.64,-184.7C814.64,-156.69 814.64,-69.21 814.64,-30.16"/>
<polygon fill="midnightblue" stroke="midnightblue" points="818.14,-29.71 814.64,-19.71 811.14,-29.71 818.14,-29.71"/>
</g>
<!-- Node54&#45;&gt;Node53 -->
<g id="edge29" class="edge">
<title>Node54&#45;&gt;Node53</title>
<path fill="none" stroke="midnightblue" d="M764.81,-185.1C692.44,-172.9 560.02,-150.58 496.9,-139.94"/>
<polygon fill="midnightblue" stroke="midnightblue" points="497.47,-136.49 487.03,-138.28 496.31,-143.39 497.47,-136.49"/>
</g>
<!-- Node55 -->
<g id="node19" class="node">
<title>Node55</title>
<g id="a_node19"><a xlink:title=" ">
<polygon fill="white" stroke="#bfbfbf" points="843.14,-123.5 843.14,-142.5 942.14,-142.5 942.14,-123.5 843.14,-123.5"/>
<text text-anchor="middle" x="892.64" y="-130.5" font-family="Helvetica,sans-Serif" font-size="10.00">emlabcpp/view.h</text>
</a>
</g>
</g>
<!-- Node54&#45;&gt;Node55 -->
<g id="edge28" class="edge">
<title>Node54&#45;&gt;Node55</title>
<path fill="none" stroke="midnightblue" d="M825.82,-184.98C838.21,-175.52 858.43,-160.1 873.39,-148.69"/>
<polygon fill="midnightblue" stroke="midnightblue" points="875.66,-151.36 881.49,-142.51 871.41,-145.79 875.66,-151.36"/>
</g>
<!-- Node56&#45;&gt;Node14 -->
<g id="edge31" class="edge">
<title>Node56&#45;&gt;Node14</title>
<path fill="none" stroke="midnightblue" d="M708.65,-179.83C727.51,-172.23 746.62,-160.61 757.64,-143 769.14,-124.63 752.56,-102.5 737.82,-88"/>
<polygon fill="midnightblue" stroke="midnightblue" points="740.16,-85.39 730.44,-81.17 735.4,-90.53 740.16,-85.39"/>
</g>
<!-- Node57 -->
<g id="node21" class="node">
<title>Node57</title>
<g id="a_node21"><a xlink:href="storage_8hpp.html" target="_top" xlink:title=" ">
<polygon fill="white" stroke="red" points="542.64,-123.5 542.64,-142.5 634.64,-142.5 634.64,-123.5 542.64,-123.5"/>
<text text-anchor="middle" x="588.64" y="-130.5" font-family="Helvetica,sans-Serif" font-size="10.00">cfg/storage.hpp</text>
</a>
</g>
</g>
<!-- Node56&#45;&gt;Node57 -->
<g id="edge32" class="edge">
<title>Node56&#45;&gt;Node57</title>
<path fill="none" stroke="midnightblue" d="M638.24,-179.4C628.4,-170.4 615.65,-158.72 605.54,-149.47"/>
<polygon fill="midnightblue" stroke="midnightblue" points="607.84,-146.83 598.1,-142.66 603.11,-151.99 607.84,-146.83"/>
</g>
<!-- Node57&#45;&gt;Node3 -->
<g id="edge33" class="edge">
<title>Node57&#45;&gt;Node3</title>
<path fill="none" stroke="midnightblue" d="M556.69,-123.48C517.45,-113 450.76,-95.21 407.47,-83.66"/>
<polygon fill="midnightblue" stroke="midnightblue" points="408.1,-80.21 397.53,-81.01 406.29,-86.97 408.1,-80.21"/>
</g>
<!-- Node57&#45;&gt;Node18 -->
<g id="edge34" class="edge">
<title>Node57&#45;&gt;Node18</title>
<path fill="none" stroke="midnightblue" d="M585.63,-123.48C583.11,-116.32 579.38,-105.75 575.97,-96.08"/>
<polygon fill="midnightblue" stroke="midnightblue" points="579.22,-94.79 572.59,-86.52 572.62,-97.12 579.22,-94.79"/>
</g>
<!-- Node58&#45;&gt;Node51 -->
<g id="edge38" class="edge">
<title>Node58&#45;&gt;Node51</title>
<path fill="none" stroke="midnightblue" d="M428.33,-184.98C420.61,-175.96 408.23,-161.52 398.62,-150.31"/>
<polygon fill="midnightblue" stroke="midnightblue" points="401.1,-147.82 391.94,-142.51 395.79,-152.38 401.1,-147.82"/>
</g>
<!-- Node58&#45;&gt;Node57 -->
<g id="edge37" class="edge">
<title>Node58&#45;&gt;Node57</title>
<path fill="none" stroke="midnightblue" d="M457.56,-184.98C483.69,-174.81 527.55,-157.76 557.27,-146.2"/>
<polygon fill="midnightblue" stroke="midnightblue" points="558.71,-149.4 566.76,-142.51 556.17,-142.87 558.71,-149.4"/>
</g>
</g>
</svg>
