<?xml version="1.0" encoding="UTF-8" standalone="no"?>
<!DOCTYPE svg PUBLIC "-//W3C//DTD SVG 1.1//EN"
 "http://www.w3.org/Graphics/SVG/1.1/DTD/svg11.dtd">
<!-- Generated by graphviz version 2.43.0 (0)
 -->
<!-- Title: src/fw/main.cpp Pages: 1 -->
<svg width="1145pt" height="330pt"
 viewBox="0.00 0.00 1145.00 330.00" xmlns="http://www.w3.org/2000/svg" xmlns:xlink="http://www.w3.org/1999/xlink">
<g id="graph0" class="graph" transform="scale(1 1) rotate(0) translate(4 326)">
<title>src/fw/main.cpp</title>
<polygon fill="white" stroke="transparent" points="-4,4 -4,-326 1141,-326 1141,4 -4,4"/>
<!-- Node1 -->
<g id="node1" class="node">
<title>Node1</title>
<g id="a_node1"><a xlink:title=" ">
<polygon fill="#bfbfbf" stroke="black" points="553,-302.5 553,-321.5 646,-321.5 646,-302.5 553,-302.5"/>
<text text-anchor="middle" x="599.5" y="-309.5" font-family="Helvetica,sans-Serif" font-size="10.00">src/fw/main.cpp</text>
</a>
</g>
</g>
<!-- Node2 -->
<g id="node2" class="node">
<title>Node2</title>
<g id="a_node2"><a xlink:href="brd_8hpp.html" target="_top" xlink:title=" ">
<polygon fill="white" stroke="black" points="81,-241 81,-260 134,-260 134,-241 81,-241"/>
<text text-anchor="middle" x="107.5" y="-248" font-family="Helvetica,sans-Serif" font-size="10.00">brd.hpp</text>
</a>
</g>
</g>
<!-- Node1&#45;&gt;Node2 -->
<g id="edge1" class="edge">
<title>Node1&#45;&gt;Node2</title>
<path fill="none" stroke="midnightblue" d="M552.82,-310.03C470.3,-307.49 293.64,-298.41 148.5,-266 145.08,-265.24 141.55,-264.27 138.07,-263.21"/>
<polygon fill="midnightblue" stroke="midnightblue" points="139.09,-259.86 128.5,-260.02 136.88,-266.5 139.09,-259.86"/>
</g>
<!-- Node13 -->
<g id="node4" class="node">
<title>Node13</title>
<g id="a_node4"><a xlink:href="core__drivers_8hpp.html" target="_top" xlink:title=" ">
<polygon fill="white" stroke="black" points="85.5,-179.5 85.5,-198.5 183.5,-198.5 183.5,-179.5 85.5,-179.5"/>
<text text-anchor="middle" x="134.5" y="-186.5" font-family="Helvetica,sans-Serif" font-size="10.00">core_drivers.hpp</text>
</a>
</g>
</g>
<!-- Node1&#45;&gt;Node13 -->
<g id="edge14" class="edge">
<title>Node1&#45;&gt;Node13</title>
<path fill="none" stroke="midnightblue" d="M552.82,-311.04C457.07,-310.31 242.33,-304.32 181.5,-266 160.53,-252.79 147.43,-226.47 140.54,-208.55"/>
<polygon fill="midnightblue" stroke="midnightblue" points="143.76,-207.15 137.12,-198.9 137.16,-209.49 143.76,-207.15"/>
</g>
<!-- Node18 -->
<g id="node7" class="node">
<title>Node18</title>
<g id="a_node7"><a xlink:href="core_8hpp.html" target="_top" xlink:title=" ">
<polygon fill="white" stroke="black" points="673,-118 673,-137 732,-137 732,-118 673,-118"/>
<text text-anchor="middle" x="702.5" y="-125" font-family="Helvetica,sans-Serif" font-size="10.00">core.hpp</text>
</a>
</g>
</g>
<!-- Node1&#45;&gt;Node18 -->
<g id="edge6" class="edge">
<title>Node1&#45;&gt;Node18</title>
<path fill="none" stroke="midnightblue" d="M646.23,-311.28C730,-310.77 900.98,-304.85 943.5,-266 972.47,-239.53 983.42,-209.31 958.5,-179 944.85,-162.4 810.78,-142.66 742.31,-133.56"/>
<polygon fill="midnightblue" stroke="midnightblue" points="742.68,-130.08 732.31,-132.24 741.77,-137.02 742.68,-130.08"/>
</g>
<!-- Node42 -->
<g id="node12" class="node">
<title>Node42</title>
<g id="a_node12"><a xlink:href="board_8hpp.html" target="_top" xlink:title=" ">
<polygon fill="white" stroke="black" points="190.5,-241 190.5,-260 270.5,-260 270.5,-241 190.5,-241"/>
<text text-anchor="middle" x="230.5" y="-248" font-family="Helvetica,sans-Serif" font-size="10.00">fw/board.hpp</text>
</a>
</g>
</g>
<!-- Node1&#45;&gt;Node42 -->
<g id="edge15" class="edge">
<title>Node1&#45;&gt;Node42</title>
<path fill="none" stroke="midnightblue" d="M552.76,-306.11C490.99,-299.23 378.94,-285.35 284.5,-266 279.7,-265.02 274.69,-263.86 269.75,-262.63"/>
<polygon fill="midnightblue" stroke="midnightblue" points="270.33,-259.17 259.77,-260.05 268.58,-265.94 270.33,-259.17"/>
</g>
<!-- Node44 -->
<g id="node14" class="node">
<title>Node44</title>
<g id="a_node14"><a xlink:href="globals_8hpp.html" target="_top" xlink:title=" ">
<polygon fill="white" stroke="red" points="278,-179.5 278,-198.5 351,-198.5 351,-179.5 278,-179.5"/>
<text text-anchor="middle" x="314.5" y="-186.5" font-family="Helvetica,sans-Serif" font-size="10.00">globals.hpp</text>
</a>
</g>
</g>
<!-- Node1&#45;&gt;Node44 -->
<g id="edge28" class="edge">
<title>Node1&#45;&gt;Node44</title>
<path fill="none" stroke="midnightblue" d="M552.9,-310.43C480.94,-308.48 347.86,-300.2 317.5,-266 303.84,-250.61 305.7,-225.79 309.25,-208.72"/>
<polygon fill="midnightblue" stroke="midnightblue" points="312.7,-209.35 311.67,-198.81 305.9,-207.69 312.7,-209.35"/>
</g>
<!-- Node46 -->
<g id="node15" class="node">
<title>Node46</title>
<g id="a_node15"><a xlink:href="cfg__dispatcher_8hpp.html" target="_top" xlink:title=" ">
<polygon fill="white" stroke="black" points="641.5,-179.5 641.5,-198.5 763.5,-198.5 763.5,-179.5 641.5,-179.5"/>
<text text-anchor="middle" x="702.5" y="-186.5" font-family="Helvetica,sans-Serif" font-size="10.00">fw/cfg_dispatcher.hpp</text>
</a>
</g>
</g>
<!-- Node1&#45;&gt;Node46 -->
<g id="edge19" class="edge">
<title>Node1&#45;&gt;Node46</title>
<path fill="none" stroke="midnightblue" d="M646.04,-308.36C675.75,-303.97 712.2,-292.97 731.5,-266 744.54,-247.78 730.28,-222.96 717.55,-206.72"/>
<polygon fill="midnightblue" stroke="midnightblue" points="719.92,-204.09 710.82,-198.67 714.55,-208.58 719.92,-204.09"/>
</g>
<!-- Node47 -->
<g id="node16" class="node">
<title>Node47</title>
<g id="a_node16"><a xlink:href="dispatcher_8hpp.html" target="_top" xlink:title=" ">
<polygon fill="white" stroke="black" points="620.5,-241 620.5,-260 722.5,-260 722.5,-241 620.5,-241"/>
<text text-anchor="middle" x="671.5" y="-248" font-family="Helvetica,sans-Serif" font-size="10.00">fw/dispatcher.hpp</text>
</a>
</g>
</g>
<!-- Node1&#45;&gt;Node47 -->
<g id="edge22" class="edge">
<title>Node1&#45;&gt;Node47</title>
<path fill="none" stroke="midnightblue" d="M609.82,-302.48C621.15,-293.11 639.57,-277.88 653.34,-266.51"/>
<polygon fill="midnightblue" stroke="midnightblue" points="655.72,-269.08 661.2,-260.01 651.27,-263.68 655.72,-269.08"/>
</g>
<!-- Node51 -->
<g id="node19" class="node">
<title>Node51</title>
<g id="a_node19"><a xlink:href="servio__pb_8hpp.html" target="_top" xlink:title=" ">
<polygon fill="white" stroke="black" points="779,-241 779,-260 878,-260 878,-241 779,-241"/>
<text text-anchor="middle" x="828.5" y="-248" font-family="Helvetica,sans-Serif" font-size="10.00">fw/servio_pb.hpp</text>
</a>
</g>
</g>
<!-- Node1&#45;&gt;Node51 -->
<g id="edge29" class="edge">
<title>Node1&#45;&gt;Node51</title>
<path fill="none" stroke="midnightblue" d="M632.31,-302.48C672.7,-291.98 741.38,-274.14 785.83,-262.59"/>
<polygon fill="midnightblue" stroke="midnightblue" points="786.95,-265.91 795.75,-260.01 785.19,-259.14 786.95,-265.91"/>
</g>
<!-- Node53 -->
<g id="node21" class="node">
<title>Node53</title>
<g id="a_node21"><a xlink:href="store__persistent__config_8hpp.html" target="_top" xlink:title=" ">
<polygon fill="white" stroke="black" points="326.5,-235.5 326.5,-265.5 436.5,-265.5 436.5,-235.5 326.5,-235.5"/>
<text text-anchor="start" x="334.5" y="-253.5" font-family="Helvetica,sans-Serif" font-size="10.00">fw/store_persistent</text>
<text text-anchor="middle" x="381.5" y="-242.5" font-family="Helvetica,sans-Serif" font-size="10.00">_config.hpp</text>
</a>
</g>
</g>
<!-- Node1&#45;&gt;Node53 -->
<g id="edge32" class="edge">
<title>Node1&#45;&gt;Node53</title>
<path fill="none" stroke="midnightblue" d="M568.27,-302.48C535.64,-293.57 483.61,-279.37 442.74,-268.22"/>
<polygon fill="midnightblue" stroke="midnightblue" points="443.45,-264.78 432.88,-265.52 441.6,-271.53 443.45,-264.78"/>
</g>
<!-- Node55 -->
<g id="node23" class="node">
<title>Node55</title>
<g id="a_node23"><a xlink:title=" ">
<polygon fill="white" stroke="#bfbfbf" points="896.5,-241 896.5,-260 934.5,-260 934.5,-241 896.5,-241"/>
<text text-anchor="middle" x="915.5" y="-248" font-family="Helvetica,sans-Serif" font-size="10.00">git.h</text>
</a>
</g>
</g>
<!-- Node1&#45;&gt;Node55 -->
<g id="edge36" class="edge">
<title>Node1&#45;&gt;Node55</title>
<path fill="none" stroke="midnightblue" d="M646.21,-308.34C704.09,-303.99 805.14,-292.97 887.5,-266 888.93,-265.53 890.38,-265 891.82,-264.41"/>
<polygon fill="midnightblue" stroke="midnightblue" points="893.48,-267.5 901.07,-260.1 890.52,-261.16 893.48,-267.5"/>
</g>
<!-- Node56 -->
<g id="node24" class="node">
<title>Node56</title>
<g id="a_node24"><a xlink:href="load__persistent__config_8hpp.html" target="_top" xlink:title=" ">
<polygon fill="white" stroke="black" points="455,-241 455,-260 602,-260 602,-241 455,-241"/>
<text text-anchor="middle" x="528.5" y="-248" font-family="Helvetica,sans-Serif" font-size="10.00">load_persistent_config.hpp</text>
</a>
</g>
</g>
<!-- Node1&#45;&gt;Node56 -->
<g id="edge37" class="edge">
<title>Node1&#45;&gt;Node56</title>
<path fill="none" stroke="midnightblue" d="M589.33,-302.48C578.15,-293.11 559.98,-277.88 546.41,-266.51"/>
<polygon fill="midnightblue" stroke="midnightblue" points="548.57,-263.75 538.65,-260.01 544.07,-269.11 548.57,-263.75"/>
</g>
<!-- Node57 -->
<g id="node25" class="node">
<title>Node57</title>
<g id="a_node25"><a xlink:href="standard__callbacks_8hpp.html" target="_top" xlink:title=" ">
<polygon fill="white" stroke="black" points="1006,-179.5 1006,-198.5 1137,-198.5 1137,-179.5 1006,-179.5"/>
<text text-anchor="middle" x="1071.5" y="-186.5" font-family="Helvetica,sans-Serif" font-size="10.00">standard_callbacks.hpp</text>
</a>
</g>
</g>
<!-- Node1&#45;&gt;Node57 -->
<g id="edge40" class="edge">
<title>Node1&#45;&gt;Node57</title>
<path fill="none" stroke="midnightblue" d="M646.05,-309.34C736.22,-305.52 931.14,-294.2 991.5,-266 1019.88,-252.74 1044.64,-225.42 1058.83,-207.4"/>
<polygon fill="midnightblue" stroke="midnightblue" points="1061.99,-209.04 1065.25,-198.96 1056.41,-204.8 1061.99,-209.04"/>
</g>
<!-- Node3 -->
<g id="node3" class="node">
<title>Node3</title>
<g id="a_node3"><a xlink:href="config_8hpp.html" target="_top" xlink:title=" ">
<polygon fill="white" stroke="red" points="0,-179.5 0,-198.5 67,-198.5 67,-179.5 0,-179.5"/>
<text text-anchor="middle" x="33.5" y="-186.5" font-family="Helvetica,sans-Serif" font-size="10.00">config.hpp</text>
</a>
</g>
</g>
<!-- Node2&#45;&gt;Node3 -->
<g id="edge2" class="edge">
<title>Node2&#45;&gt;Node3</title>
<path fill="none" stroke="midnightblue" d="M96.9,-240.98C85.25,-231.61 66.31,-216.38 52.17,-205.01"/>
<polygon fill="midnightblue" stroke="midnightblue" points="54.07,-202.05 44.08,-198.51 49.68,-207.5 54.07,-202.05"/>
</g>
<!-- Node2&#45;&gt;Node13 -->
<g id="edge3" class="edge">
<title>Node2&#45;&gt;Node13</title>
<path fill="none" stroke="midnightblue" d="M111.37,-240.98C115.3,-232.32 121.5,-218.65 126.49,-207.65"/>
<polygon fill="midnightblue" stroke="midnightblue" points="129.69,-209.06 130.64,-198.51 123.32,-206.17 129.69,-209.06"/>
</g>
<!-- Node14 -->
<g id="node5" class="node">
<title>Node14</title>
<g id="a_node5"><a xlink:href="drv__interfaces_8hpp.html" target="_top" xlink:title=" ">
<polygon fill="white" stroke="red" points="158,-0.5 158,-19.5 265,-19.5 265,-0.5 158,-0.5"/>
<text text-anchor="middle" x="211.5" y="-7.5" font-family="Helvetica,sans-Serif" font-size="10.00">drv_interfaces.hpp</text>
</a>
</g>
</g>
<!-- Node13&#45;&gt;Node14 -->
<g id="edge4" class="edge">
<title>Node13&#45;&gt;Node14</title>
<path fill="none" stroke="midnightblue" d="M138.21,-179.46C150.08,-152.19 187.23,-66.78 203.61,-29.13"/>
<polygon fill="midnightblue" stroke="midnightblue" points="206.86,-30.43 207.64,-19.87 200.44,-27.64 206.86,-30.43"/>
</g>
<!-- Node17 -->
<g id="node6" class="node">
<title>Node17</title>
<g id="a_node6"><a xlink:title=" ">
<polygon fill="white" stroke="#bfbfbf" points="295,-112.5 295,-142.5 428,-142.5 428,-112.5 295,-112.5"/>
<text text-anchor="start" x="303" y="-130.5" font-family="Helvetica,sans-Serif" font-size="10.00">emlabcpp/experimental</text>
<text text-anchor="middle" x="361.5" y="-119.5" font-family="Helvetica,sans-Serif" font-size="10.00">/function_view.h</text>
</a>
</g>
</g>
<!-- Node13&#45;&gt;Node17 -->
<g id="edge5" class="edge">
<title>Node13&#45;&gt;Node17</title>
<path fill="none" stroke="midnightblue" d="M167.02,-179.48C201.14,-170.53 255.64,-156.25 298.27,-145.07"/>
<polygon fill="midnightblue" stroke="midnightblue" points="299.21,-148.44 308,-142.52 297.44,-141.67 299.21,-148.44"/>
</g>
<!-- Node19 -->
<g id="node8" class="node">
<title>Node19</title>
<g id="a_node8"><a xlink:href="control_8hpp.html" target="_top" xlink:title=" ">
<polygon fill="white" stroke="red" points="667,-0.5 667,-19.5 738,-19.5 738,-0.5 667,-0.5"/>
<text text-anchor="middle" x="702.5" y="-7.5" font-family="Helvetica,sans-Serif" font-size="10.00">control.hpp</text>
</a>
</g>
</g>
<!-- Node18&#45;&gt;Node19 -->
<g id="edge7" class="edge">
<title>Node18&#45;&gt;Node19</title>
<path fill="none" stroke="midnightblue" d="M702.5,-117.82C702.5,-99.26 702.5,-55.34 702.5,-29.97"/>
<polygon fill="midnightblue" stroke="midnightblue" points="706,-29.78 702.5,-19.78 699,-29.78 706,-29.78"/>
</g>
<!-- Node26 -->
<g id="node9" class="node">
<title>Node26</title>
<g id="a_node9"><a xlink:href="indication_8hpp.html" target="_top" xlink:title=" ">
<polygon fill="white" stroke="red" points="533.5,-0.5 533.5,-19.5 619.5,-19.5 619.5,-0.5 533.5,-0.5"/>
<text text-anchor="middle" x="576.5" y="-7.5" font-family="Helvetica,sans-Serif" font-size="10.00">indication.hpp</text>
</a>
</g>
</g>
<!-- Node18&#45;&gt;Node26 -->
<g id="edge8" class="edge">
<title>Node18&#45;&gt;Node26</title>
<path fill="none" stroke="midnightblue" d="M693.03,-117.82C671.87,-98.42 620.5,-51.33 593.59,-26.66"/>
<polygon fill="midnightblue" stroke="midnightblue" points="595.82,-23.96 586.08,-19.78 591.09,-29.12 595.82,-23.96"/>
</g>
<!-- Node28 -->
<g id="node10" class="node">
<title>Node28</title>
<g id="a_node10"><a xlink:href="metrics_8hpp.html" target="_top" xlink:title=" ">
<polygon fill="white" stroke="red" points="920.5,-56.5 920.5,-75.5 994.5,-75.5 994.5,-56.5 920.5,-56.5"/>
<text text-anchor="middle" x="957.5" y="-63.5" font-family="Helvetica,sans-Serif" font-size="10.00">metrics.hpp</text>
</a>
</g>
</g>
<!-- Node18&#45;&gt;Node28 -->
<g id="edge9" class="edge">
<title>Node18&#45;&gt;Node28</title>
<path fill="none" stroke="midnightblue" d="M732,-119.62C775.88,-109.38 858.75,-90.04 910.88,-77.88"/>
<polygon fill="midnightblue" stroke="midnightblue" points="911.94,-81.23 920.88,-75.54 910.35,-74.41 911.94,-81.23"/>
</g>
<!-- Node36 -->
<g id="node11" class="node">
<title>Node36</title>
<g id="a_node11"><a xlink:href="monitor_8hpp.html" target="_top" xlink:title=" ">
<polygon fill="white" stroke="red" points="510,-56.5 510,-75.5 585,-75.5 585,-56.5 510,-56.5"/>
<text text-anchor="middle" x="547.5" y="-63.5" font-family="Helvetica,sans-Serif" font-size="10.00">monitor.hpp</text>
</a>
</g>
</g>
<!-- Node18&#45;&gt;Node36 -->
<g id="edge10" class="edge">
<title>Node18&#45;&gt;Node36</title>
<path fill="none" stroke="midnightblue" d="M680.29,-117.98C653.82,-107.81 609.39,-90.76 579.28,-79.2"/>
<polygon fill="midnightblue" stroke="midnightblue" points="580.26,-75.83 569.67,-75.51 577.75,-82.36 580.26,-75.83"/>
</g>
<!-- Node36&#45;&gt;Node14 -->
<g id="edge12" class="edge">
<title>Node36&#45;&gt;Node14</title>
<path fill="none" stroke="midnightblue" d="M509.93,-58.96C452.89,-49.79 343.74,-32.25 274.44,-21.12"/>
<polygon fill="midnightblue" stroke="midnightblue" points="274.95,-17.65 264.52,-19.52 273.83,-24.56 274.95,-17.65"/>
</g>
<!-- Node36&#45;&gt;Node19 -->
<g id="edge11" class="edge">
<title>Node36&#45;&gt;Node19</title>
<path fill="none" stroke="midnightblue" d="M572.06,-56.44C598.02,-47.4 639.17,-33.06 668.3,-22.92"/>
<polygon fill="midnightblue" stroke="midnightblue" points="669.76,-26.11 678.05,-19.52 667.46,-19.5 669.76,-26.11"/>
</g>
<!-- Node36&#45;&gt;Node26 -->
<g id="edge13" class="edge">
<title>Node36&#45;&gt;Node26</title>
<path fill="none" stroke="midnightblue" d="M552.29,-56.08C556.26,-48.69 562.03,-37.95 566.93,-28.81"/>
<polygon fill="midnightblue" stroke="midnightblue" points="570.15,-30.22 571.8,-19.75 563.99,-26.91 570.15,-30.22"/>
</g>
<!-- Node42&#45;&gt;Node14 -->
<g id="edge17" class="edge">
<title>Node42&#45;&gt;Node14</title>
<path fill="none" stroke="midnightblue" d="M229.8,-240.73C227.04,-206.03 216.83,-77.89 212.98,-29.59"/>
<polygon fill="midnightblue" stroke="midnightblue" points="216.47,-29.29 212.19,-19.6 209.49,-29.85 216.47,-29.29"/>
</g>
<!-- Node43 -->
<g id="node13" class="node">
<title>Node43</title>
<g id="a_node13"><a xlink:title=" ">
<polygon fill="white" stroke="#bfbfbf" points="446,-118 446,-137 513,-137 513,-118 446,-118"/>
<text text-anchor="middle" x="479.5" y="-125" font-family="Helvetica,sans-Serif" font-size="10.00">config.hpp</text>
</a>
</g>
</g>
<!-- Node42&#45;&gt;Node43 -->
<g id="edge16" class="edge">
<title>Node42&#45;&gt;Node43</title>
<path fill="none" stroke="midnightblue" d="M232.69,-240.54C236.9,-225.36 247.59,-194.69 268.5,-179 329.58,-133.17 362.87,-163.23 436.5,-143 439.52,-142.17 442.63,-141.25 445.75,-140.29"/>
<polygon fill="midnightblue" stroke="midnightblue" points="447.1,-143.52 455.54,-137.12 444.95,-136.86 447.1,-143.52"/>
</g>
<!-- Node42&#45;&gt;Node44 -->
<g id="edge18" class="edge">
<title>Node42&#45;&gt;Node44</title>
<path fill="none" stroke="midnightblue" d="M242.54,-240.98C256.01,-231.43 278.07,-215.81 294.22,-204.37"/>
<polygon fill="midnightblue" stroke="midnightblue" points="296.35,-207.15 302.49,-198.51 292.3,-201.43 296.35,-207.15"/>
</g>
<!-- Node46&#45;&gt;Node18 -->
<g id="edge21" class="edge">
<title>Node46&#45;&gt;Node18</title>
<path fill="none" stroke="midnightblue" d="M702.5,-179.48C702.5,-171.08 702.5,-157.98 702.5,-147.16"/>
<polygon fill="midnightblue" stroke="midnightblue" points="706,-147.01 702.5,-137.01 699,-147.01 706,-147.01"/>
</g>
<!-- Node46&#45;&gt;Node43 -->
<g id="edge20" class="edge">
<title>Node46&#45;&gt;Node43</title>
<path fill="none" stroke="midnightblue" d="M670.55,-179.48C631.3,-169 564.62,-151.21 521.33,-139.66"/>
<polygon fill="midnightblue" stroke="midnightblue" points="521.96,-136.21 511.39,-137.01 520.15,-142.97 521.96,-136.21"/>
</g>
<!-- Node47&#45;&gt;Node17 -->
<g id="edge26" class="edge">
<title>Node47&#45;&gt;Node17</title>
<path fill="none" stroke="midnightblue" d="M660.05,-240.86C640.05,-226.17 597.02,-196.21 556.5,-179 534.38,-169.61 479.82,-155.75 434.02,-144.92"/>
<polygon fill="midnightblue" stroke="midnightblue" points="434.64,-141.47 424.1,-142.59 433.03,-148.28 434.64,-141.47"/>
</g>
<!-- Node47&#45;&gt;Node19 -->
<g id="edge23" class="edge">
<title>Node47&#45;&gt;Node19</title>
<path fill="none" stroke="midnightblue" d="M661.93,-240.94C652.37,-231.7 638.29,-215.98 632.5,-199 629.63,-190.59 630.76,-187.72 632.5,-179 644.08,-121.1 676.05,-58.21 692.48,-28.47"/>
<polygon fill="midnightblue" stroke="midnightblue" points="695.55,-30.14 697.4,-19.71 689.45,-26.71 695.55,-30.14"/>
</g>
<!-- Node47&#45;&gt;Node46 -->
<g id="edge24" class="edge">
<title>Node47&#45;&gt;Node46</title>
<path fill="none" stroke="midnightblue" d="M675.94,-240.98C680.45,-232.32 687.57,-218.65 693.31,-207.65"/>
<polygon fill="midnightblue" stroke="midnightblue" points="696.55,-208.99 698.07,-198.51 690.34,-205.76 696.55,-208.99"/>
</g>
<!-- Node48 -->
<g id="node17" class="node">
<title>Node48</title>
<g id="a_node17"><a xlink:href="util_8hpp.html" target="_top" xlink:title=" ">
<polygon fill="white" stroke="red" points="479.5,-179.5 479.5,-198.5 547.5,-198.5 547.5,-179.5 479.5,-179.5"/>
<text text-anchor="middle" x="513.5" y="-186.5" font-family="Helvetica,sans-Serif" font-size="10.00">fw/util.hpp</text>
</a>
</g>
</g>
<!-- Node47&#45;&gt;Node48 -->
<g id="edge25" class="edge">
<title>Node47&#45;&gt;Node48</title>
<path fill="none" stroke="midnightblue" d="M648.86,-240.98C621.76,-230.77 576.19,-213.61 545.5,-202.05"/>
<polygon fill="midnightblue" stroke="midnightblue" points="546.69,-198.76 536.1,-198.51 544.22,-205.31 546.69,-198.76"/>
</g>
<!-- Node50 -->
<g id="node18" class="node">
<title>Node50</title>
<g id="a_node18"><a xlink:title=" ">
<polygon fill="white" stroke="#bfbfbf" points="781.5,-179.5 781.5,-198.5 831.5,-198.5 831.5,-179.5 781.5,-179.5"/>
<text text-anchor="middle" x="806.5" y="-186.5" font-family="Helvetica,sans-Serif" font-size="10.00">io.pb.h</text>
</a>
</g>
</g>
<!-- Node47&#45;&gt;Node50 -->
<g id="edge27" class="edge">
<title>Node47&#45;&gt;Node50</title>
<path fill="none" stroke="midnightblue" d="M690.84,-240.98C713.6,-230.95 751.59,-214.2 777.79,-202.65"/>
<polygon fill="midnightblue" stroke="midnightblue" points="779.45,-205.74 787.19,-198.51 776.63,-199.34 779.45,-205.74"/>
</g>
<!-- Node51&#45;&gt;Node50 -->
<g id="edge31" class="edge">
<title>Node51&#45;&gt;Node50</title>
<path fill="none" stroke="midnightblue" d="M825.35,-240.98C822.18,-232.4 817.2,-218.93 813.15,-207.98"/>
<polygon fill="midnightblue" stroke="midnightblue" points="816.4,-206.67 809.65,-198.51 809.83,-209.1 816.4,-206.67"/>
</g>
<!-- Node52 -->
<g id="node20" class="node">
<title>Node52</title>
<g id="a_node20"><a xlink:title=" ">
<polygon fill="white" stroke="#bfbfbf" points="850,-179.5 850,-198.5 949,-198.5 949,-179.5 850,-179.5"/>
<text text-anchor="middle" x="899.5" y="-186.5" font-family="Helvetica,sans-Serif" font-size="10.00">emlabcpp/view.h</text>
</a>
</g>
</g>
<!-- Node51&#45;&gt;Node52 -->
<g id="edge30" class="edge">
<title>Node51&#45;&gt;Node52</title>
<path fill="none" stroke="midnightblue" d="M838.67,-240.98C849.85,-231.61 868.02,-216.38 881.59,-205.01"/>
<polygon fill="midnightblue" stroke="midnightblue" points="883.93,-207.61 889.35,-198.51 879.43,-202.25 883.93,-207.61"/>
</g>
<!-- Node54 -->
<g id="node22" class="node">
<title>Node54</title>
<g id="a_node22"><a xlink:href="storage_8hpp.html" target="_top" xlink:title=" ">
<polygon fill="white" stroke="red" points="369.5,-179.5 369.5,-198.5 461.5,-198.5 461.5,-179.5 369.5,-179.5"/>
<text text-anchor="middle" x="415.5" y="-186.5" font-family="Helvetica,sans-Serif" font-size="10.00">cfg/storage.hpp</text>
</a>
</g>
</g>
<!-- Node53&#45;&gt;Node54 -->
<g id="edge33" class="edge">
<title>Node53&#45;&gt;Node54</title>
<path fill="none" stroke="midnightblue" d="M389.56,-235.4C394.35,-227.02 400.46,-216.33 405.54,-207.42"/>
<polygon fill="midnightblue" stroke="midnightblue" points="408.63,-209.08 410.55,-198.66 402.55,-205.6 408.63,-209.08"/>
</g>
<!-- Node54&#45;&gt;Node17 -->
<g id="edge35" class="edge">
<title>Node54&#45;&gt;Node17</title>
<path fill="none" stroke="midnightblue" d="M407.76,-179.48C400.79,-171.79 390.24,-160.17 380.98,-149.96"/>
<polygon fill="midnightblue" stroke="midnightblue" points="383.54,-147.58 374.23,-142.52 378.36,-152.28 383.54,-147.58"/>
</g>
<!-- Node54&#45;&gt;Node43 -->
<g id="edge34" class="edge">
<title>Node54&#45;&gt;Node43</title>
<path fill="none" stroke="midnightblue" d="M424.67,-179.48C434.65,-170.2 450.81,-155.17 463.01,-143.83"/>
<polygon fill="midnightblue" stroke="midnightblue" points="465.41,-146.38 470.35,-137.01 460.64,-141.25 465.41,-146.38"/>
</g>
<!-- Node56&#45;&gt;Node48 -->
<g id="edge39" class="edge">
<title>Node56&#45;&gt;Node48</title>
<path fill="none" stroke="midnightblue" d="M526.35,-240.98C524.21,-232.49 520.86,-219.2 518.12,-208.32"/>
<polygon fill="midnightblue" stroke="midnightblue" points="521.48,-207.35 515.65,-198.51 514.7,-209.06 521.48,-207.35"/>
</g>
<!-- Node56&#45;&gt;Node54 -->
<g id="edge38" class="edge">
<title>Node56&#45;&gt;Node54</title>
<path fill="none" stroke="midnightblue" d="M512.31,-240.98C493.6,-231.12 462.58,-214.79 440.7,-203.27"/>
<polygon fill="midnightblue" stroke="midnightblue" points="442.14,-200.07 431.66,-198.51 438.88,-206.27 442.14,-200.07"/>
</g>
<!-- Node57&#45;&gt;Node19 -->
<g id="edge44" class="edge">
<title>Node57&#45;&gt;Node19</title>
<path fill="none" stroke="midnightblue" d="M1047.85,-179.35C1024.79,-170.73 988.86,-156.83 958.5,-143 871.59,-103.4 771.87,-49.42 726.83,-24.55"/>
<polygon fill="midnightblue" stroke="midnightblue" points="728.27,-21.35 717.83,-19.57 724.88,-27.47 728.27,-21.35"/>
</g>
<!-- Node57&#45;&gt;Node28 -->
<g id="edge45" class="edge">
<title>Node57&#45;&gt;Node28</title>
<path fill="none" stroke="midnightblue" d="M1036.95,-179.36C1016.86,-172.62 992.6,-161.27 977.5,-143 964.08,-126.77 959.57,-102.47 958.11,-85.75"/>
<polygon fill="midnightblue" stroke="midnightblue" points="961.59,-85.34 957.51,-75.57 954.6,-85.75 961.59,-85.34"/>
</g>
<!-- Node58 -->
<g id="node26" class="node">
<title>Node58</title>
<g id="a_node26"><a xlink:href="callbacks_8hpp.html" target="_top" xlink:title=" ">
<polygon fill="white" stroke="red" points="986,-118 986,-137 1069,-137 1069,-118 986,-118"/>
<text text-anchor="middle" x="1027.5" y="-125" font-family="Helvetica,sans-Serif" font-size="10.00">callbacks.hpp</text>
</a>
</g>
</g>
<!-- Node57&#45;&gt;Node58 -->
<g id="edge41" class="edge">
<title>Node57&#45;&gt;Node58</title>
<path fill="none" stroke="midnightblue" d="M1065.2,-179.48C1058.6,-170.55 1048.06,-156.31 1039.81,-145.14"/>
<polygon fill="midnightblue" stroke="midnightblue" points="1042.55,-142.97 1033.79,-137.01 1036.92,-147.13 1042.55,-142.97"/>
</g>
<!-- Node58&#45;&gt;Node19 -->
<g id="edge42" class="edge">
<title>Node58&#45;&gt;Node19</title>
<path fill="none" stroke="midnightblue" d="M1027.3,-118C1026.44,-102.95 1022.36,-71.74 1003.5,-56 965.58,-24.35 822.51,-14.93 748.1,-12.15"/>
<polygon fill="midnightblue" stroke="midnightblue" points="748.19,-8.65 738.07,-11.8 747.94,-15.64 748.19,-8.65"/>
</g>
<!-- Node58&#45;&gt;Node28 -->
<g id="edge43" class="edge">
<title>Node58&#45;&gt;Node28</title>
<path fill="none" stroke="midnightblue" d="M1017.47,-117.98C1006.45,-108.61 988.54,-93.38 975.16,-82.01"/>
<polygon fill="midnightblue" stroke="midnightblue" points="977.4,-79.32 967.51,-75.51 972.86,-84.65 977.4,-79.32"/>
</g>
</g>
</svg>
