<?xml version="1.0" encoding="UTF-8" standalone="no"?>
<!DOCTYPE svg PUBLIC "-//W3C//DTD SVG 1.1//EN"
 "http://www.w3.org/Graphics/SVG/1.1/DTD/svg11.dtd">
<!-- Generated by graphviz version 2.43.0 (0)
 -->
<!-- Title: src/fw/main.cpp Pages: 1 -->
<svg width="976pt" height="258pt"
 viewBox="0.00 0.00 976.20 258.00" xmlns="http://www.w3.org/2000/svg" xmlns:xlink="http://www.w3.org/1999/xlink">
<g id="graph0" class="graph" transform="scale(1 1) rotate(0) translate(4 254)">
<title>src/fw/main.cpp</title>
<!-- Node1 -->
<g id="Node000001" class="node">
<title>Node1</title>
<g id="a_Node000001"><a xlink:title=" ">
<polygon fill="#999999" stroke="#666666" points="376.2,-250 283.2,-250 283.2,-231 376.2,-231 376.2,-250"/>
<text text-anchor="middle" x="329.7" y="-238" font-family="Helvetica,sans-Serif" font-size="10.00">src/fw/main.cpp</text>
</a>
</g>
</g>
<!-- Node2 -->
<g id="Node000002" class="node">
<title>Node2</title>
<g id="a_Node000002"><a xlink:href="brd_8hpp.html" target="_top" xlink:title=" ">
<polygon fill="white" stroke="#666666" points="94.2,-195 13.2,-195 13.2,-176 94.2,-176 94.2,-195"/>
<text text-anchor="middle" x="53.7" y="-183" font-family="Helvetica,sans-Serif" font-size="10.00">../brd/brd.hpp</text>
</a>
</g>
</g>
<!-- Node1&#45;&gt;Node2 -->
<g id="edge1_Node000001_Node000002" class="edge">
<title>Node1&#45;&gt;Node2</title>
<g id="a_edge1_Node000001_Node000002"><a xlink:title=" ">
<path fill="none" stroke="#63b8ff" d="M285.35,-230.98C235.92,-221.49 156.14,-206.17 104.31,-196.22"/>
<polygon fill="#63b8ff" stroke="#63b8ff" points="104.81,-192.75 94.33,-194.3 103.49,-199.63 104.81,-192.75"/>
</a>
</g>
</g>
<!-- Node29 -->
<g id="Node000029" class="node">
<title>Node29</title>
<g id="a_Node000029"><a xlink:href="core_2dispatcher_8hpp.html" target="_top" xlink:title=" ">
<polygon fill="white" stroke="#666666" points="513.2,-195 392.2,-195 392.2,-176 513.2,-176 513.2,-195"/>
<text text-anchor="middle" x="452.7" y="-183" font-family="Helvetica,sans-Serif" font-size="10.00">../core/dispatcher.hpp</text>
</a>
</g>
</g>
<!-- Node1&#45;&gt;Node29 -->
<g id="edge4_Node000001_Node000029" class="edge">
<title>Node1&#45;&gt;Node29</title>
<g id="a_edge4_Node000001_Node000029"><a xlink:title=" ">
<path fill="none" stroke="#63b8ff" d="M349.46,-230.98C369.42,-222.38 400.5,-208.99 423.34,-199.15"/>
<polygon fill="#63b8ff" stroke="#63b8ff" points="424.77,-202.34 432.57,-195.17 422,-195.91 424.77,-202.34"/>
</a>
</g>
</g>
<!-- Node60 -->
<g id="Node000060" class="node">
<title>Node60</title>
<g id="a_Node000060"><a xlink:href="context_8hpp.html" target="_top" xlink:title=" ">
<polygon fill="white" stroke="#666666" points="265.7,-195 185.7,-195 185.7,-176 265.7,-176 265.7,-195"/>
<text text-anchor="middle" x="225.7" y="-183" font-family="Helvetica,sans-Serif" font-size="10.00">./context.hpp</text>
</a>
</g>
</g>
<!-- Node1&#45;&gt;Node60 -->
<g id="edge12_Node000001_Node000060" class="edge">
<title>Node1&#45;&gt;Node60</title>
<g id="a_edge12_Node000001_Node000060"><a xlink:title=" ">
<path fill="none" stroke="#63b8ff" d="M312.99,-230.98C296.48,-222.57 271,-209.59 251.82,-199.81"/>
<polygon fill="#63b8ff" stroke="#63b8ff" points="253.21,-196.59 242.71,-195.17 250.03,-202.83 253.21,-196.59"/>
</a>
</g>
</g>
<!-- Node65 -->
<g id="Node000065" class="node">
<title>Node65</title>
<g id="a_Node000065"><a xlink:href="fw_2util_8hpp.html" target="_top" xlink:title=" ">
<polygon fill="white" stroke="#666666" points="843.2,-195 784.2,-195 784.2,-176 843.2,-176 843.2,-195"/>
<text text-anchor="middle" x="813.7" y="-183" font-family="Helvetica,sans-Serif" font-size="10.00">./util.hpp</text>
</a>
</g>
</g>
<!-- Node1&#45;&gt;Node65 -->
<g id="edge19_Node000001_Node000065" class="edge">
<title>Node1&#45;&gt;Node65</title>
<g id="a_edge19_Node000001_Node000065"><a xlink:title=" ">
<path fill="none" stroke="#63b8ff" d="M376.54,-234.37C471.49,-223.97 685.12,-200.58 773.87,-190.86"/>
<polygon fill="#63b8ff" stroke="#63b8ff" points="774.5,-194.31 784.06,-189.75 773.73,-187.36 774.5,-194.31"/>
</a>
</g>
</g>
<!-- Node3 -->
<g id="Node000003" class="node">
<title>Node3</title>
<g id="a_Node000003"><a xlink:href="drivers_8hpp.html" target="_top" xlink:title=" ">
<polygon fill="#fff0f0" stroke="red" points="159.7,-85 55.7,-85 55.7,-66 159.7,-66 159.7,-85"/>
<text text-anchor="middle" x="107.7" y="-73" font-family="Helvetica,sans-Serif" font-size="10.00">../core/drivers.hpp</text>
</a>
</g>
</g>
<!-- Node2&#45;&gt;Node3 -->
<g id="edge2_Node000002_Node000003" class="edge">
<title>Node2&#45;&gt;Node3</title>
<g id="a_edge2_Node000002_Node000003"><a xlink:title=" ">
<path fill="none" stroke="#63b8ff" d="M38.11,-175.81C18.83,-163.9 -9.91,-141.61 3.7,-121 14.14,-105.16 31.52,-94.94 49.1,-88.35"/>
<polygon fill="#63b8ff" stroke="#63b8ff" points="50.5,-91.58 58.85,-85.05 48.26,-84.95 50.5,-91.58"/>
</a>
</g>
</g>
<!-- Node28 -->
<g id="Node000028" class="node">
<title>Node28</title>
<g id="a_Node000028"><a xlink:title=" ">
<polygon fill="#e0e0e0" stroke="#999999" points="372.2,-30 239.2,-30 239.2,0 372.2,0 372.2,-30"/>
<text text-anchor="start" x="247.2" y="-18" font-family="Helvetica,sans-Serif" font-size="10.00">emlabcpp/experimental</text>
<text text-anchor="middle" x="305.7" y="-7" font-family="Helvetica,sans-Serif" font-size="10.00">/function_view.h</text>
</a>
</g>
</g>
<!-- Node3&#45;&gt;Node28 -->
<g id="edge3_Node000003_Node000028" class="edge">
<title>Node3&#45;&gt;Node28</title>
<g id="a_edge3_Node000003_Node000028"><a xlink:title=" ">
<path fill="none" stroke="#63b8ff" d="M136.49,-65.99C165.73,-57.35 211.81,-43.74 248.5,-32.9"/>
<polygon fill="#63b8ff" stroke="#63b8ff" points="249.49,-36.25 258.09,-30.06 247.51,-29.54 249.49,-36.25"/>
</a>
</g>
</g>
<!-- Node29&#45;&gt;Node28 -->
<g id="edge10_Node000029_Node000028" class="edge">
<title>Node29&#45;&gt;Node28</title>
<g id="a_edge10_Node000029_Node000028"><a xlink:title=" ">
<path fill="none" stroke="#63b8ff" d="M452.11,-175.66C450.91,-162.78 447.32,-138.49 436.7,-121 413.72,-83.19 371.93,-53.3 341.72,-35.23"/>
<polygon fill="#63b8ff" stroke="#63b8ff" points="343.15,-32.02 332.75,-30.01 339.63,-38.07 343.15,-32.02"/>
</a>
</g>
</g>
<!-- Node30 -->
<g id="Node000030" class="node">
<title>Node30</title>
<g id="a_Node000030"><a xlink:href="cfg_2dispatcher_8hpp.html" target="_top" xlink:title=" ">
<polygon fill="#fff0f0" stroke="red" points="405.2,-140 290.2,-140 290.2,-121 405.2,-121 405.2,-140"/>
<text text-anchor="middle" x="347.7" y="-128" font-family="Helvetica,sans-Serif" font-size="10.00">../cfg/dispatcher.hpp</text>
</a>
</g>
</g>
<!-- Node29&#45;&gt;Node30 -->
<g id="edge5_Node000029_Node000030" class="edge">
<title>Node29&#45;&gt;Node30</title>
<g id="a_edge5_Node000029_Node000030"><a xlink:title=" ">
<path fill="none" stroke="#63b8ff" d="M435.83,-175.98C419.09,-167.54 393.2,-154.47 373.8,-144.68"/>
<polygon fill="#63b8ff" stroke="#63b8ff" points="375.38,-141.55 364.87,-140.17 372.22,-147.8 375.38,-141.55"/>
</a>
</g>
</g>
<!-- Node33 -->
<g id="Node000033" class="node">
<title>Node33</title>
<g id="a_Node000033"><a xlink:href="governor__manager_8hpp.html" target="_top" xlink:title=" ">
<polygon fill="#fff0f0" stroke="red" points="366.2,-85 207.2,-85 207.2,-66 366.2,-66 366.2,-85"/>
<text text-anchor="middle" x="286.7" y="-73" font-family="Helvetica,sans-Serif" font-size="10.00">../gov/governor_manager.hpp</text>
</a>
</g>
</g>
<!-- Node29&#45;&gt;Node33 -->
<g id="edge8_Node000029_Node000033" class="edge">
<title>Node29&#45;&gt;Node33</title>
<g id="a_edge8_Node000029_Node000033"><a xlink:title=" ">
<path fill="none" stroke="#63b8ff" d="M449.57,-175.8C444.27,-162.21 432.23,-135.94 413.7,-121 393.72,-104.9 367.52,-94.42 344.1,-87.71"/>
<polygon fill="#63b8ff" stroke="#63b8ff" points="344.83,-84.28 334.26,-85.06 343,-91.04 344.83,-84.28"/>
</a>
</g>
</g>
<!-- Node57 -->
<g id="Node000057" class="node">
<title>Node57</title>
<g id="a_Node000057"><a xlink:href="iface_2def_8hpp.html" target="_top" xlink:title=" ">
<polygon fill="#fff0f0" stroke="red" points="589.2,-140 500.2,-140 500.2,-121 589.2,-121 589.2,-140"/>
<text text-anchor="middle" x="544.7" y="-128" font-family="Helvetica,sans-Serif" font-size="10.00">../iface/def.hpp</text>
</a>
</g>
</g>
<!-- Node29&#45;&gt;Node57 -->
<g id="edge9_Node000029_Node000057" class="edge">
<title>Node29&#45;&gt;Node57</title>
<g id="a_edge9_Node000029_Node000057"><a xlink:title=" ">
<path fill="none" stroke="#63b8ff" d="M467.48,-175.98C481.88,-167.69 504,-154.94 520.89,-145.22"/>
<polygon fill="#63b8ff" stroke="#63b8ff" points="522.73,-148.19 529.64,-140.17 519.23,-142.13 522.73,-148.19"/>
</a>
</g>
</g>
<!-- Node59 -->
<g id="Node000059" class="node">
<title>Node59</title>
<g id="a_Node000059"><a xlink:title=" ">
<polygon fill="#e0e0e0" stroke="#999999" points="726.2,-140 607.2,-140 607.2,-121 726.2,-121 726.2,-140"/>
<text text-anchor="middle" x="666.7" y="-128" font-family="Helvetica,sans-Serif" font-size="10.00">emlabcpp/outcome.h</text>
</a>
</g>
</g>
<!-- Node29&#45;&gt;Node59 -->
<g id="edge11_Node000029_Node000059" class="edge">
<title>Node29&#45;&gt;Node59</title>
<g id="a_edge11_Node000029_Node000059"><a xlink:title=" ">
<path fill="none" stroke="#63b8ff" d="M487.08,-175.98C523.78,-166.89 582.08,-152.46 622.25,-142.51"/>
<polygon fill="#63b8ff" stroke="#63b8ff" points="623.18,-145.88 632.04,-140.08 621.49,-139.09 623.18,-145.88"/>
</a>
</g>
</g>
<!-- Node30&#45;&gt;Node3 -->
<g id="edge6_Node000030_Node000003" class="edge">
<title>Node30&#45;&gt;Node3</title>
<g id="a_edge6_Node000030_Node000003"><a xlink:title=" ">
<path fill="none" stroke="#63b8ff" d="M309.14,-120.98C267.62,-111.82 201.48,-97.21 156.4,-87.26"/>
<polygon fill="#63b8ff" stroke="#63b8ff" points="157.08,-83.82 146.56,-85.08 155.57,-90.66 157.08,-83.82"/>
</a>
</g>
</g>
<!-- Node30&#45;&gt;Node33 -->
<g id="edge7_Node000030_Node000033" class="edge">
<title>Node30&#45;&gt;Node33</title>
<g id="a_edge7_Node000030_Node000033"><a xlink:title=" ">
<path fill="none" stroke="#63b8ff" d="M337.89,-120.98C328.88,-113.15 315.29,-101.34 304.38,-91.86"/>
<polygon fill="#63b8ff" stroke="#63b8ff" points="306.52,-89.09 296.67,-85.17 301.93,-94.37 306.52,-89.09"/>
</a>
</g>
</g>
<!-- Node60&#45;&gt;Node3 -->
<g id="edge18_Node000060_Node000003" class="edge">
<title>Node60&#45;&gt;Node3</title>
<g id="a_edge18_Node000060_Node000003"><a xlink:title=" ">
<path fill="none" stroke="#63b8ff" d="M185.55,-180.8C135.67,-175.29 54.9,-162.99 36.7,-140 20.88,-120.02 49.82,-101.09 75.37,-89.18"/>
<polygon fill="#63b8ff" stroke="#63b8ff" points="76.82,-92.37 84.54,-85.12 73.98,-85.97 76.82,-92.37"/>
</a>
</g>
</g>
<!-- Node60&#45;&gt;Node30 -->
<g id="edge13_Node000060_Node000030" class="edge">
<title>Node60&#45;&gt;Node30</title>
<g id="a_edge13_Node000060_Node000030"><a xlink:title=" ">
<path fill="none" stroke="#63b8ff" d="M245.3,-175.98C265.01,-167.42 295.65,-154.11 318.28,-144.28"/>
<polygon fill="#63b8ff" stroke="#63b8ff" points="319.96,-147.37 327.74,-140.17 317.17,-140.94 319.96,-147.37"/>
</a>
</g>
</g>
<!-- Node61 -->
<g id="Node000061" class="node">
<title>Node61</title>
<g id="a_Node000061"><a xlink:href="core_2callbacks_8hpp.html" target="_top" xlink:title=" ">
<polygon fill="#fff0f0" stroke="red" points="161.7,-140 45.7,-140 45.7,-121 161.7,-121 161.7,-140"/>
<text text-anchor="middle" x="103.7" y="-128" font-family="Helvetica,sans-Serif" font-size="10.00">../core/callbacks.hpp</text>
</a>
</g>
</g>
<!-- Node60&#45;&gt;Node61 -->
<g id="edge14_Node000060_Node000061" class="edge">
<title>Node60&#45;&gt;Node61</title>
<g id="a_edge14_Node000060_Node000061"><a xlink:title=" ">
<path fill="none" stroke="#63b8ff" d="M206.09,-175.98C186.38,-167.42 155.74,-154.11 133.11,-144.28"/>
<polygon fill="#63b8ff" stroke="#63b8ff" points="134.22,-140.94 123.65,-140.17 131.43,-147.37 134.22,-140.94"/>
</a>
</g>
</g>
<!-- Node63 -->
<g id="Node000063" class="node">
<title>Node63</title>
<g id="a_Node000063"><a xlink:href="core_8hpp.html" target="_top" xlink:title=" ">
<polygon fill="#fff0f0" stroke="red" points="271.7,-140 179.7,-140 179.7,-121 271.7,-121 271.7,-140"/>
<text text-anchor="middle" x="225.7" y="-128" font-family="Helvetica,sans-Serif" font-size="10.00">../core/core.hpp</text>
</a>
</g>
</g>
<!-- Node60&#45;&gt;Node63 -->
<g id="edge16_Node000060_Node000063" class="edge">
<title>Node60&#45;&gt;Node63</title>
<g id="a_edge16_Node000060_Node000063"><a xlink:title=" ">
<path fill="none" stroke="#63b8ff" d="M225.7,-175.75C225.7,-168.8 225.7,-158.85 225.7,-150.13"/>
<polygon fill="#63b8ff" stroke="#63b8ff" points="229.2,-150.09 225.7,-140.09 222.2,-150.09 229.2,-150.09"/>
</a>
</g>
</g>
<!-- Node61&#45;&gt;Node33 -->
<g id="edge15_Node000061_Node000033" class="edge">
<title>Node61&#45;&gt;Node33</title>
<g id="a_edge15_Node000061_Node000033"><a xlink:title=" ">
<path fill="none" stroke="#63b8ff" d="M133.1,-120.98C164.09,-112.01 213.07,-97.82 247.37,-87.89"/>
<polygon fill="#63b8ff" stroke="#63b8ff" points="248.43,-91.23 257.06,-85.08 246.48,-84.5 248.43,-91.23"/>
</a>
</g>
</g>
<!-- Node63&#45;&gt;Node33 -->
<g id="edge17_Node000063_Node000033" class="edge">
<title>Node63&#45;&gt;Node33</title>
<g id="a_edge17_Node000063_Node000033"><a xlink:title=" ">
<path fill="none" stroke="#63b8ff" d="M235.5,-120.98C244.51,-113.15 258.1,-101.34 269.01,-91.86"/>
<polygon fill="#63b8ff" stroke="#63b8ff" points="271.46,-94.37 276.72,-85.17 266.87,-89.09 271.46,-94.37"/>
</a>
</g>
</g>
<!-- Node66 -->
<g id="Node000066" class="node">
<title>Node66</title>
<g id="a_Node000066"><a xlink:title=" ">
<polygon fill="#e0e0e0" stroke="#999999" points="808.7,-140 744.7,-140 744.7,-121 808.7,-121 808.7,-140"/>
<text text-anchor="middle" x="776.7" y="-128" font-family="Helvetica,sans-Serif" font-size="10.00">algorithm</text>
</a>
</g>
</g>
<!-- Node65&#45;&gt;Node66 -->
<g id="edge20_Node000065_Node000066" class="edge">
<title>Node65&#45;&gt;Node66</title>
<g id="a_edge20_Node000065_Node000066"><a xlink:title=" ">
<path fill="none" stroke="#63b8ff" d="M807.59,-175.75C802.41,-168.34 794.85,-157.5 788.5,-148.41"/>
<polygon fill="#63b8ff" stroke="#63b8ff" points="791.29,-146.29 782.69,-140.09 785.55,-150.29 791.29,-146.29"/>
</a>
</g>
</g>
<!-- Node67 -->
<g id="Node000067" class="node">
<title>Node67</title>
<g id="a_Node000067"><a xlink:title=" ">
<polygon fill="#e0e0e0" stroke="#999999" points="876.7,-140 826.7,-140 826.7,-121 876.7,-121 876.7,-140"/>
<text text-anchor="middle" x="851.7" y="-128" font-family="Helvetica,sans-Serif" font-size="10.00">cstring</text>
</a>
</g>
</g>
<!-- Node65&#45;&gt;Node67 -->
<g id="edge21_Node000065_Node000067" class="edge">
<title>Node65&#45;&gt;Node67</title>
<g id="a_edge21_Node000065_Node000067"><a xlink:title=" ">
<path fill="none" stroke="#63b8ff" d="M819.97,-175.75C825.28,-168.34 833.05,-157.5 839.57,-148.41"/>
<polygon fill="#63b8ff" stroke="#63b8ff" points="842.55,-150.26 845.54,-140.09 836.87,-146.18 842.55,-150.26"/>
</a>
</g>
</g>
<!-- Node20 -->
<g id="Node000020" class="node">
<title>Node20</title>
<g id="a_Node000020"><a xlink:title=" ">
<polygon fill="#e0e0e0" stroke="#999999" points="968.2,-140 895.2,-140 895.2,-121 968.2,-121 968.2,-140"/>
<text text-anchor="middle" x="931.7" y="-128" font-family="Helvetica,sans-Serif" font-size="10.00">string_view</text>
</a>
</g>
</g>
<!-- Node65&#45;&gt;Node20 -->
<g id="edge22_Node000065_Node000020" class="edge">
<title>Node65&#45;&gt;Node20</title>
<g id="a_edge22_Node000065_Node000020"><a xlink:title=" ">
<path fill="none" stroke="#63b8ff" d="M832.65,-175.98C851.72,-167.42 881.36,-154.11 903.24,-144.28"/>
<polygon fill="#63b8ff" stroke="#63b8ff" points="904.7,-147.46 912.39,-140.17 901.84,-141.07 904.7,-147.46"/>
</a>
</g>
</g>
</g>
</svg>
