<?xml version="1.0" encoding="UTF-8" standalone="no"?>
<!DOCTYPE svg PUBLIC "-//W3C//DTD SVG 1.1//EN"
 "http://www.w3.org/Graphics/SVG/1.1/DTD/svg11.dtd">
<!-- Generated by graphviz version 2.43.0 (0)
 -->
<!-- Title: src/fw/dispatcher.hpp Pages: 1 -->
<svg width="1091pt" height="263pt"
 viewBox="0.00 0.00 1090.98 263.00" xmlns="http://www.w3.org/2000/svg" xmlns:xlink="http://www.w3.org/1999/xlink">
<g id="graph0" class="graph" transform="scale(1 1) rotate(0) translate(4 259)">
<title>src/fw/dispatcher.hpp</title>
<polygon fill="white" stroke="transparent" points="-4,4 -4,-259 1086.98,-259 1086.98,4 -4,4"/>
<!-- Node1 -->
<g id="node1" class="node">
<title>Node1</title>
<g id="a_node1"><a xlink:title=" ">
<polygon fill="#bfbfbf" stroke="black" points="685.48,-235.5 685.48,-254.5 804.48,-254.5 804.48,-235.5 685.48,-235.5"/>
<text text-anchor="middle" x="744.98" y="-242.5" font-family="Helvetica,sans-Serif" font-size="10.00">src/fw/dispatcher.hpp</text>
</a>
</g>
</g>
<!-- Node2 -->
<g id="node2" class="node">
<title>Node2</title>
<g id="a_node2"><a xlink:href="def_8h.html" target="_top" xlink:title=" ">
<polygon fill="white" stroke="black" points="163.48,-123.5 163.48,-142.5 240.48,-142.5 240.48,-123.5 163.48,-123.5"/>
<text text-anchor="middle" x="201.98" y="-130.5" font-family="Helvetica,sans-Serif" font-size="10.00">../iface/def.h</text>
</a>
</g>
</g>
<!-- Node1&#45;&gt;Node2 -->
<g id="edge1" class="edge">
<title>Node1&#45;&gt;Node2</title>
<path fill="none" stroke="midnightblue" d="M685.29,-235.69C629.03,-227.53 542.46,-214.13 467.98,-199 387.83,-182.72 295.28,-158.97 243.19,-145.14"/>
<polygon fill="midnightblue" stroke="midnightblue" points="243.89,-141.7 233.33,-142.51 242.09,-148.47 243.89,-141.7"/>
</g>
<!-- Node8 -->
<g id="node8" class="node">
<title>Node8</title>
<g id="a_node8"><a xlink:href="cfg_2dispatcher_8hpp.html" target="_top" xlink:title=" ">
<polygon fill="white" stroke="black" points="476.98,-179.5 476.98,-198.5 582.98,-198.5 582.98,-179.5 476.98,-179.5"/>
<text text-anchor="middle" x="529.98" y="-186.5" font-family="Helvetica,sans-Serif" font-size="10.00">cfg/dispatcher.hpp</text>
</a>
</g>
</g>
<!-- Node1&#45;&gt;Node8 -->
<g id="edge7" class="edge">
<title>Node1&#45;&gt;Node8</title>
<path fill="none" stroke="midnightblue" d="M710.91,-235.44C673.8,-226.12 614.32,-211.18 573.76,-201"/>
<polygon fill="midnightblue" stroke="midnightblue" points="574.44,-197.56 563.89,-198.52 572.73,-204.35 574.44,-197.56"/>
</g>
<!-- Node10 -->
<g id="node10" class="node">
<title>Node10</title>
<g id="a_node10"><a xlink:href="control_8hpp.html" target="_top" xlink:title=" ">
<polygon fill="white" stroke="red" points="545.48,-62 545.48,-81 640.48,-81 640.48,-62 545.48,-62"/>
<text text-anchor="middle" x="592.98" y="-69" font-family="Helvetica,sans-Serif" font-size="10.00">../ctl/control.hpp</text>
</a>
</g>
</g>
<!-- Node1&#45;&gt;Node10 -->
<g id="edge17" class="edge">
<title>Node1&#45;&gt;Node10</title>
<path fill="none" stroke="midnightblue" d="M744.61,-235.2C743.26,-213.45 736.9,-156.5 706.98,-123 690.02,-104.01 664.59,-91.82 642.04,-84.17"/>
<polygon fill="midnightblue" stroke="midnightblue" points="642.85,-80.76 632.26,-81.07 640.73,-87.43 642.85,-80.76"/>
</g>
<!-- Node48 -->
<g id="node12" class="node">
<title>Node48</title>
<g id="a_node12"><a xlink:title=" ">
<polygon fill="white" stroke="#bfbfbf" points="677.48,-56.5 677.48,-86.5 810.48,-86.5 810.48,-56.5 677.48,-56.5"/>
<text text-anchor="start" x="685.48" y="-74.5" font-family="Helvetica,sans-Serif" font-size="10.00">emlabcpp/experimental</text>
<text text-anchor="middle" x="743.98" y="-63.5" font-family="Helvetica,sans-Serif" font-size="10.00">/function_view.h</text>
</a>
</g>
</g>
<!-- Node1&#45;&gt;Node48 -->
<g id="edge23" class="edge">
<title>Node1&#45;&gt;Node48</title>
<path fill="none" stroke="midnightblue" d="M744.93,-235.26C744.78,-209.97 744.35,-136.08 744.12,-97.15"/>
<polygon fill="midnightblue" stroke="midnightblue" points="747.62,-96.7 744.06,-86.72 740.62,-96.74 747.62,-96.7"/>
</g>
<!-- Node34 -->
<g id="node15" class="node">
<title>Node34</title>
<g id="a_node15"><a xlink:title=" ">
<polygon fill="white" stroke="#bfbfbf" points="792.48,-179.5 792.48,-198.5 911.48,-198.5 911.48,-179.5 792.48,-179.5"/>
<text text-anchor="middle" x="851.98" y="-186.5" font-family="Helvetica,sans-Serif" font-size="10.00">emlabcpp/outcome.h</text>
</a>
</g>
</g>
<!-- Node1&#45;&gt;Node34 -->
<g id="edge18" class="edge">
<title>Node1&#45;&gt;Node34</title>
<path fill="none" stroke="midnightblue" d="M762.17,-235.32C779.33,-226.66 805.92,-213.24 825.72,-203.25"/>
<polygon fill="midnightblue" stroke="midnightblue" points="827.48,-206.28 834.83,-198.65 824.32,-200.04 827.48,-206.28"/>
</g>
<!-- Node49 -->
<g id="node16" class="node">
<title>Node49</title>
<g id="a_node16"><a xlink:href="util_8hpp.html" target="_top" xlink:title=" ">
<polygon fill="white" stroke="black" points="929.98,-179.5 929.98,-198.5 997.98,-198.5 997.98,-179.5 929.98,-179.5"/>
<text text-anchor="middle" x="963.98" y="-186.5" font-family="Helvetica,sans-Serif" font-size="10.00">fw/util.hpp</text>
</a>
</g>
</g>
<!-- Node1&#45;&gt;Node49 -->
<g id="edge19" class="edge">
<title>Node1&#45;&gt;Node49</title>
<path fill="none" stroke="midnightblue" d="M779.68,-235.44C817.67,-226.07 878.68,-211.03 920,-200.84"/>
<polygon fill="midnightblue" stroke="midnightblue" points="920.93,-204.22 929.8,-198.43 919.25,-197.42 920.93,-204.22"/>
</g>
<!-- Node3 -->
<g id="node3" class="node">
<title>Node3</title>
<g id="a_node3"><a xlink:title=" ">
<polygon fill="white" stroke="#bfbfbf" points="208.98,-0.5 208.98,-19.5 258.98,-19.5 258.98,-0.5 208.98,-0.5"/>
<text text-anchor="middle" x="233.98" y="-7.5" font-family="Helvetica,sans-Serif" font-size="10.00">cstdint</text>
</a>
</g>
</g>
<!-- Node2&#45;&gt;Node3 -->
<g id="edge2" class="edge">
<title>Node2&#45;&gt;Node3</title>
<path fill="none" stroke="midnightblue" d="M163.34,-130.13C95.28,-125.44 -34.8,-109.4 8.98,-56 32.58,-27.22 141.61,-16.48 198.78,-12.78"/>
<polygon fill="midnightblue" stroke="midnightblue" points="199.05,-16.27 208.82,-12.16 198.62,-9.28 199.05,-16.27"/>
</g>
<!-- Node4 -->
<g id="node4" class="node">
<title>Node4</title>
<g id="a_node4"><a xlink:title=" ">
<polygon fill="white" stroke="#bfbfbf" points="18.48,-62 18.48,-81 105.48,-81 105.48,-62 18.48,-62"/>
<text text-anchor="middle" x="61.98" y="-69" font-family="Helvetica,sans-Serif" font-size="10.00">avakar/atom.h</text>
</a>
</g>
</g>
<!-- Node2&#45;&gt;Node4 -->
<g id="edge3" class="edge">
<title>Node2&#45;&gt;Node4</title>
<path fill="none" stroke="midnightblue" d="M181.92,-123.48C158.22,-113.4 118.57,-96.55 91.39,-85"/>
<polygon fill="midnightblue" stroke="midnightblue" points="92.57,-81.7 82,-81.01 89.83,-88.14 92.57,-81.7"/>
</g>
<!-- Node5 -->
<g id="node5" class="node">
<title>Node5</title>
<g id="a_node5"><a xlink:title=" ">
<polygon fill="white" stroke="#bfbfbf" points="297.48,-56.5 297.48,-86.5 430.48,-86.5 430.48,-56.5 297.48,-56.5"/>
<text text-anchor="start" x="305.48" y="-74.5" font-family="Helvetica,sans-Serif" font-size="10.00">emlabcpp/experimental</text>
<text text-anchor="middle" x="363.98" y="-63.5" font-family="Helvetica,sans-Serif" font-size="10.00">/string_buffer.h</text>
</a>
</g>
</g>
<!-- Node2&#45;&gt;Node5 -->
<g id="edge4" class="edge">
<title>Node2&#45;&gt;Node5</title>
<path fill="none" stroke="midnightblue" d="M225.19,-123.48C248.87,-114.78 286.31,-101.03 316.34,-90"/>
<polygon fill="midnightblue" stroke="midnightblue" points="317.62,-93.26 325.8,-86.52 315.2,-86.69 317.62,-93.26"/>
</g>
<!-- Node6 -->
<g id="node6" class="node">
<title>Node6</title>
<g id="a_node6"><a xlink:title=" ">
<polygon fill="white" stroke="#bfbfbf" points="123.48,-62 123.48,-81 192.48,-81 192.48,-62 123.48,-62"/>
<text text-anchor="middle" x="157.98" y="-69" font-family="Helvetica,sans-Serif" font-size="10.00">vari/vopt.h</text>
</a>
</g>
</g>
<!-- Node2&#45;&gt;Node6 -->
<g id="edge5" class="edge">
<title>Node2&#45;&gt;Node6</title>
<path fill="none" stroke="midnightblue" d="M195.67,-123.48C189.07,-114.55 178.54,-100.31 170.28,-89.14"/>
<polygon fill="midnightblue" stroke="midnightblue" points="173.03,-86.97 164.27,-81.01 167.4,-91.13 173.03,-86.97"/>
</g>
<!-- Node7 -->
<g id="node7" class="node">
<title>Node7</title>
<g id="a_node7"><a xlink:title=" ">
<polygon fill="white" stroke="#bfbfbf" points="210.98,-62 210.98,-81 278.98,-81 278.98,-62 210.98,-62"/>
<text text-anchor="middle" x="244.98" y="-69" font-family="Helvetica,sans-Serif" font-size="10.00">vari/vval.h</text>
</a>
</g>
</g>
<!-- Node2&#45;&gt;Node7 -->
<g id="edge6" class="edge">
<title>Node2&#45;&gt;Node7</title>
<path fill="none" stroke="midnightblue" d="M208.14,-123.48C214.59,-114.55 224.88,-100.31 232.95,-89.14"/>
<polygon fill="midnightblue" stroke="midnightblue" points="235.81,-91.16 238.83,-81.01 230.13,-87.06 235.81,-91.16"/>
</g>
<!-- Node9 -->
<g id="node9" class="node">
<title>Node9</title>
<g id="a_node9"><a xlink:href="core_8hpp.html" target="_top" xlink:title=" ">
<polygon fill="white" stroke="red" points="483.98,-123.5 483.98,-142.5 575.98,-142.5 575.98,-123.5 483.98,-123.5"/>
<text text-anchor="middle" x="529.98" y="-130.5" font-family="Helvetica,sans-Serif" font-size="10.00">../core/core.hpp</text>
</a>
</g>
</g>
<!-- Node8&#45;&gt;Node9 -->
<g id="edge8" class="edge">
<title>Node8&#45;&gt;Node9</title>
<path fill="none" stroke="midnightblue" d="M529.98,-179.08C529.98,-172.01 529.98,-161.86 529.98,-152.99"/>
<polygon fill="midnightblue" stroke="midnightblue" points="533.48,-152.75 529.98,-142.75 526.48,-152.75 533.48,-152.75"/>
</g>
<!-- Node47 -->
<g id="node11" class="node">
<title>Node47</title>
<g id="a_node11"><a xlink:href="drivers_8hpp.html" target="_top" xlink:title=" ">
<polygon fill="white" stroke="red" points="593.98,-123.5 593.98,-142.5 697.98,-142.5 697.98,-123.5 593.98,-123.5"/>
<text text-anchor="middle" x="645.98" y="-130.5" font-family="Helvetica,sans-Serif" font-size="10.00">../core/drivers.hpp</text>
</a>
</g>
</g>
<!-- Node8&#45;&gt;Node47 -->
<g id="edge10" class="edge">
<title>Node8&#45;&gt;Node47</title>
<path fill="none" stroke="midnightblue" d="M548.36,-179.44C567.19,-170.68 596.71,-156.94 618.36,-146.86"/>
<polygon fill="midnightblue" stroke="midnightblue" points="620.09,-149.91 627.68,-142.52 617.14,-143.56 620.09,-149.91"/>
</g>
<!-- Node29 -->
<g id="node13" class="node">
<title>Node29</title>
<g id="a_node13"><a xlink:href="key_8hpp.html" target="_top" xlink:title=" ">
<polygon fill="white" stroke="black" points="448.48,-62 448.48,-81 507.48,-81 507.48,-62 448.48,-62"/>
<text text-anchor="middle" x="477.98" y="-69" font-family="Helvetica,sans-Serif" font-size="10.00">./key.hpp</text>
</a>
</g>
</g>
<!-- Node8&#45;&gt;Node29 -->
<g id="edge12" class="edge">
<title>Node8&#45;&gt;Node29</title>
<path fill="none" stroke="midnightblue" d="M512.78,-179.39C499.73,-171.79 482.74,-159.39 474.98,-143 467.29,-126.77 469.39,-106 472.59,-91.22"/>
<polygon fill="midnightblue" stroke="midnightblue" points="476.05,-91.81 475.11,-81.26 469.26,-90.1 476.05,-91.81"/>
</g>
<!-- Node28 -->
<g id="node14" class="node">
<title>Node28</title>
<g id="a_node14"><a xlink:href="map_8hpp.html" target="_top" xlink:title=" ">
<polygon fill="white" stroke="red" points="341.98,-123.5 341.98,-142.5 427.98,-142.5 427.98,-123.5 341.98,-123.5"/>
<text text-anchor="middle" x="384.98" y="-130.5" font-family="Helvetica,sans-Serif" font-size="10.00">../cfg/map.hpp</text>
</a>
</g>
</g>
<!-- Node8&#45;&gt;Node28 -->
<g id="edge14" class="edge">
<title>Node8&#45;&gt;Node28</title>
<path fill="none" stroke="midnightblue" d="M507,-179.44C482.82,-170.44 444.56,-156.19 417.33,-146.05"/>
<polygon fill="midnightblue" stroke="midnightblue" points="418.44,-142.73 407.85,-142.52 416,-149.29 418.44,-142.73"/>
</g>
<!-- Node9&#45;&gt;Node10 -->
<g id="edge9" class="edge">
<title>Node9&#45;&gt;Node10</title>
<path fill="none" stroke="midnightblue" d="M539,-123.48C548.73,-114.28 564.44,-99.46 576.4,-88.16"/>
<polygon fill="midnightblue" stroke="midnightblue" points="579.1,-90.42 583.97,-81.01 574.29,-85.33 579.1,-90.42"/>
</g>
<!-- Node47&#45;&gt;Node48 -->
<g id="edge11" class="edge">
<title>Node47&#45;&gt;Node48</title>
<path fill="none" stroke="midnightblue" d="M660.02,-123.48C673.54,-115.27 694.47,-102.56 712.05,-91.88"/>
<polygon fill="midnightblue" stroke="midnightblue" points="714.15,-94.7 720.88,-86.52 710.52,-88.72 714.15,-94.7"/>
</g>
<!-- Node29&#45;&gt;Node3 -->
<g id="edge13" class="edge">
<title>Node29&#45;&gt;Node3</title>
<path fill="none" stroke="midnightblue" d="M456.7,-61.98C451,-59.86 444.8,-57.71 438.98,-56 380.29,-38.74 310.41,-24.77 269.26,-17.19"/>
<polygon fill="midnightblue" stroke="midnightblue" points="269.66,-13.7 259.19,-15.36 268.41,-20.59 269.66,-13.7"/>
</g>
<!-- Node28&#45;&gt;Node5 -->
<g id="edge16" class="edge">
<title>Node28&#45;&gt;Node5</title>
<path fill="none" stroke="midnightblue" d="M381.97,-123.48C379.44,-116.32 375.71,-105.75 372.3,-96.08"/>
<polygon fill="midnightblue" stroke="midnightblue" points="375.56,-94.79 368.93,-86.52 368.95,-97.12 375.56,-94.79"/>
</g>
<!-- Node28&#45;&gt;Node29 -->
<g id="edge15" class="edge">
<title>Node28&#45;&gt;Node29</title>
<path fill="none" stroke="midnightblue" d="M398.3,-123.48C413.36,-113.84 438.09,-98.02 456.01,-86.55"/>
<polygon fill="midnightblue" stroke="midnightblue" points="458.14,-89.35 464.68,-81.01 454.37,-83.45 458.14,-89.35"/>
</g>
<!-- Node19 -->
<g id="node17" class="node">
<title>Node19</title>
<g id="a_node17"><a xlink:title=" ">
<polygon fill="white" stroke="#bfbfbf" points="1018.98,-123.5 1018.98,-142.5 1082.98,-142.5 1082.98,-123.5 1018.98,-123.5"/>
<text text-anchor="middle" x="1050.98" y="-130.5" font-family="Helvetica,sans-Serif" font-size="10.00">algorithm</text>
</a>
</g>
</g>
<!-- Node49&#45;&gt;Node19 -->
<g id="edge20" class="edge">
<title>Node49&#45;&gt;Node19</title>
<path fill="none" stroke="midnightblue" d="M977.96,-179.32C991.53,-170.9 1012.36,-157.97 1028.3,-148.07"/>
<polygon fill="midnightblue" stroke="midnightblue" points="1030.38,-150.9 1037.03,-142.65 1026.69,-144.95 1030.38,-150.9"/>
</g>
<!-- Node50 -->
<g id="node18" class="node">
<title>Node50</title>
<g id="a_node18"><a xlink:title=" ">
<polygon fill="white" stroke="#bfbfbf" points="858.98,-123.5 858.98,-142.5 908.98,-142.5 908.98,-123.5 858.98,-123.5"/>
<text text-anchor="middle" x="883.98" y="-130.5" font-family="Helvetica,sans-Serif" font-size="10.00">cstring</text>
</a>
</g>
</g>
<!-- Node49&#45;&gt;Node50 -->
<g id="edge21" class="edge">
<title>Node49&#45;&gt;Node50</title>
<path fill="none" stroke="midnightblue" d="M951.12,-179.32C938.76,-170.98 919.85,-158.21 905.24,-148.35"/>
<polygon fill="midnightblue" stroke="midnightblue" points="907.05,-145.35 896.8,-142.65 903.13,-151.15 907.05,-145.35"/>
</g>
<!-- Node51 -->
<g id="node19" class="node">
<title>Node51</title>
<g id="a_node19"><a xlink:title=" ">
<polygon fill="white" stroke="#bfbfbf" points="927.48,-123.5 927.48,-142.5 1000.48,-142.5 1000.48,-123.5 927.48,-123.5"/>
<text text-anchor="middle" x="963.98" y="-130.5" font-family="Helvetica,sans-Serif" font-size="10.00">string_view</text>
</a>
</g>
</g>
<!-- Node49&#45;&gt;Node51 -->
<g id="edge22" class="edge">
<title>Node49&#45;&gt;Node51</title>
<path fill="none" stroke="midnightblue" d="M963.98,-179.08C963.98,-172.01 963.98,-161.86 963.98,-152.99"/>
<polygon fill="midnightblue" stroke="midnightblue" points="967.48,-152.75 963.98,-142.75 960.48,-152.75 967.48,-152.75"/>
</g>
</g>
</svg>
