<?xml version="1.0" encoding="UTF-8" standalone="no"?>
<!DOCTYPE svg PUBLIC "-//W3C//DTD SVG 1.1//EN"
 "http://www.w3.org/Graphics/SVG/1.1/DTD/svg11.dtd">
<!-- Generated by graphviz version 2.43.0 (0)
 -->
<!-- Title: src/fw/dispatcher.hpp Pages: 1 -->
<svg width="812pt" height="263pt"
 viewBox="0.00 0.00 811.50 263.00" xmlns="http://www.w3.org/2000/svg" xmlns:xlink="http://www.w3.org/1999/xlink">
<g id="graph0" class="graph" transform="scale(1 1) rotate(0) translate(4 259)">
<title>src/fw/dispatcher.hpp</title>
<polygon fill="white" stroke="transparent" points="-4,4 -4,-259 807.5,-259 807.5,4 -4,4"/>
<!-- Node1 -->
<g id="node1" class="node">
<title>Node1</title>
<g id="a_node1"><a xlink:title=" ">
<polygon fill="#bfbfbf" stroke="black" points="372,-235.5 372,-254.5 491,-254.5 491,-235.5 372,-235.5"/>
<text text-anchor="middle" x="431.5" y="-242.5" font-family="Helvetica,sans-Serif" font-size="10.00">src/fw/dispatcher.hpp</text>
</a>
</g>
</g>
<!-- Node2 -->
<g id="node2" class="node">
<title>Node2</title>
<g id="a_node2"><a xlink:href="cfg_2dispatcher_8hpp.html" target="_top" xlink:title=" ">
<polygon fill="white" stroke="black" points="289,-179.5 289,-198.5 404,-198.5 404,-179.5 289,-179.5"/>
<text text-anchor="middle" x="346.5" y="-186.5" font-family="Helvetica,sans-Serif" font-size="10.00">../cfg/dispatcher.hpp</text>
</a>
</g>
</g>
<!-- Node1&#45;&gt;Node2 -->
<g id="edge1" class="edge">
<title>Node1&#45;&gt;Node2</title>
<path fill="none" stroke="midnightblue" d="M417.84,-235.32C404.58,-226.9 384.23,-213.97 368.65,-204.07"/>
<polygon fill="midnightblue" stroke="midnightblue" points="370.44,-201.06 360.12,-198.65 366.69,-206.97 370.44,-201.06"/>
</g>
<!-- Node4 -->
<g id="node4" class="node">
<title>Node4</title>
<g id="a_node4"><a xlink:href="control_8hpp.html" target="_top" xlink:title=" ">
<polygon fill="white" stroke="red" points="0,-62 0,-81 95,-81 95,-62 0,-62"/>
<text text-anchor="middle" x="47.5" y="-69" font-family="Helvetica,sans-Serif" font-size="10.00">../ctl/control.hpp</text>
</a>
</g>
</g>
<!-- Node1&#45;&gt;Node4 -->
<g id="edge11" class="edge">
<title>Node1&#45;&gt;Node4</title>
<path fill="none" stroke="midnightblue" d="M371.99,-236.16C277.1,-222.37 98.04,-190.64 57.5,-143 45.38,-128.76 44.09,-106.73 45.07,-91.09"/>
<polygon fill="midnightblue" stroke="midnightblue" points="48.56,-91.33 46.05,-81.03 41.59,-90.64 48.56,-91.33"/>
</g>
<!-- Node44 -->
<g id="node6" class="node">
<title>Node44</title>
<g id="a_node6"><a xlink:title=" ">
<polygon fill="white" stroke="#bfbfbf" points="121,-56.5 121,-86.5 254,-86.5 254,-56.5 121,-56.5"/>
<text text-anchor="start" x="129" y="-74.5" font-family="Helvetica,sans-Serif" font-size="10.00">emlabcpp/experimental</text>
<text text-anchor="middle" x="187.5" y="-63.5" font-family="Helvetica,sans-Serif" font-size="10.00">/function_view.h</text>
</a>
</g>
</g>
<!-- Node1&#45;&gt;Node44 -->
<g id="edge22" class="edge">
<title>Node1&#45;&gt;Node44</title>
<path fill="none" stroke="midnightblue" d="M387.67,-235.43C356.43,-228.29 314.01,-216.44 279.5,-199 242.69,-180.4 228.33,-177.35 205.5,-143 196.36,-129.25 191.86,-111.17 189.65,-96.76"/>
<polygon fill="midnightblue" stroke="midnightblue" points="193.09,-96.07 188.36,-86.59 186.15,-96.95 193.09,-96.07"/>
</g>
<!-- Node45 -->
<g id="node11" class="node">
<title>Node45</title>
<g id="a_node11"><a xlink:href="def_8h.html" target="_top" xlink:title=" ">
<polygon fill="white" stroke="black" points="479,-123.5 479,-142.5 556,-142.5 556,-123.5 479,-123.5"/>
<text text-anchor="middle" x="517.5" y="-130.5" font-family="Helvetica,sans-Serif" font-size="10.00">../iface/def.h</text>
</a>
</g>
</g>
<!-- Node1&#45;&gt;Node45 -->
<g id="edge12" class="edge">
<title>Node1&#45;&gt;Node45</title>
<path fill="none" stroke="midnightblue" d="M438.25,-235.37C452.5,-217.14 485.89,-174.43 504.46,-150.68"/>
<polygon fill="midnightblue" stroke="midnightblue" points="507.38,-152.63 510.78,-142.59 501.87,-148.31 507.38,-152.63"/>
</g>
<!-- Node49 -->
<g id="node15" class="node">
<title>Node49</title>
<g id="a_node15"><a xlink:href="util_8hpp.html" target="_top" xlink:title=" ">
<polygon fill="white" stroke="black" points="577,-179.5 577,-198.5 636,-198.5 636,-179.5 577,-179.5"/>
<text text-anchor="middle" x="606.5" y="-186.5" font-family="Helvetica,sans-Serif" font-size="10.00">./util.hpp</text>
</a>
</g>
</g>
<!-- Node1&#45;&gt;Node49 -->
<g id="edge18" class="edge">
<title>Node1&#45;&gt;Node49</title>
<path fill="none" stroke="midnightblue" d="M459.23,-235.44C488.93,-226.28 536.22,-211.69 569.17,-201.52"/>
<polygon fill="midnightblue" stroke="midnightblue" points="570.38,-204.81 578.9,-198.52 568.31,-198.12 570.38,-204.81"/>
</g>
<!-- Node30 -->
<g id="node19" class="node">
<title>Node30</title>
<g id="a_node19"><a xlink:title=" ">
<polygon fill="white" stroke="#bfbfbf" points="654,-179.5 654,-198.5 773,-198.5 773,-179.5 654,-179.5"/>
<text text-anchor="middle" x="713.5" y="-186.5" font-family="Helvetica,sans-Serif" font-size="10.00">emlabcpp/outcome.h</text>
</a>
</g>
</g>
<!-- Node1&#45;&gt;Node30 -->
<g id="edge23" class="edge">
<title>Node1&#45;&gt;Node30</title>
<path fill="none" stroke="midnightblue" d="M476.18,-235.44C525.79,-225.94 605.86,-210.61 659.09,-200.42"/>
<polygon fill="midnightblue" stroke="midnightblue" points="659.86,-203.83 669.03,-198.52 658.55,-196.96 659.86,-203.83"/>
</g>
<!-- Node3 -->
<g id="node3" class="node">
<title>Node3</title>
<g id="a_node3"><a xlink:href="core_8hpp.html" target="_top" xlink:title=" ">
<polygon fill="white" stroke="red" points="66.5,-123.5 66.5,-142.5 158.5,-142.5 158.5,-123.5 66.5,-123.5"/>
<text text-anchor="middle" x="112.5" y="-130.5" font-family="Helvetica,sans-Serif" font-size="10.00">../core/core.hpp</text>
</a>
</g>
</g>
<!-- Node2&#45;&gt;Node3 -->
<g id="edge2" class="edge">
<title>Node2&#45;&gt;Node3</title>
<path fill="none" stroke="midnightblue" d="M309.42,-179.44C268.77,-170.06 203.47,-154.99 159.32,-144.8"/>
<polygon fill="midnightblue" stroke="midnightblue" points="159.94,-141.35 149.4,-142.52 158.36,-148.18 159.94,-141.35"/>
</g>
<!-- Node43 -->
<g id="node5" class="node">
<title>Node43</title>
<g id="a_node5"><a xlink:href="drivers_8hpp.html" target="_top" xlink:title=" ">
<polygon fill="white" stroke="red" points="214.5,-123.5 214.5,-142.5 318.5,-142.5 318.5,-123.5 214.5,-123.5"/>
<text text-anchor="middle" x="266.5" y="-130.5" font-family="Helvetica,sans-Serif" font-size="10.00">../core/drivers.hpp</text>
</a>
</g>
</g>
<!-- Node2&#45;&gt;Node43 -->
<g id="edge4" class="edge">
<title>Node2&#45;&gt;Node43</title>
<path fill="none" stroke="midnightblue" d="M333.65,-179.32C321.28,-170.98 302.37,-158.21 287.76,-148.35"/>
<polygon fill="midnightblue" stroke="midnightblue" points="289.57,-145.35 279.32,-142.65 285.65,-151.15 289.57,-145.35"/>
</g>
<!-- Node24 -->
<g id="node7" class="node">
<title>Node24</title>
<g id="a_node7"><a xlink:href="key_8hpp.html" target="_top" xlink:title=" ">
<polygon fill="white" stroke="black" points="276,-62 276,-81 335,-81 335,-62 276,-62"/>
<text text-anchor="middle" x="305.5" y="-69" font-family="Helvetica,sans-Serif" font-size="10.00">./key.hpp</text>
</a>
</g>
</g>
<!-- Node2&#45;&gt;Node24 -->
<g id="edge6" class="edge">
<title>Node2&#45;&gt;Node24</title>
<path fill="none" stroke="midnightblue" d="M344.38,-179.48C341.17,-166.95 334.71,-142.9 327.5,-123 323.53,-112.04 318.35,-100.07 314.02,-90.53"/>
<polygon fill="midnightblue" stroke="midnightblue" points="317.12,-88.9 309.74,-81.3 310.77,-91.85 317.12,-88.9"/>
</g>
<!-- Node23 -->
<g id="node9" class="node">
<title>Node23</title>
<g id="a_node9"><a xlink:href="map_8hpp.html" target="_top" xlink:title=" ">
<polygon fill="white" stroke="red" points="374.5,-123.5 374.5,-142.5 460.5,-142.5 460.5,-123.5 374.5,-123.5"/>
<text text-anchor="middle" x="417.5" y="-130.5" font-family="Helvetica,sans-Serif" font-size="10.00">../cfg/map.hpp</text>
</a>
</g>
</g>
<!-- Node2&#45;&gt;Node23 -->
<g id="edge8" class="edge">
<title>Node2&#45;&gt;Node23</title>
<path fill="none" stroke="midnightblue" d="M357.91,-179.32C368.61,-171.18 384.84,-158.84 397.66,-149.09"/>
<polygon fill="midnightblue" stroke="midnightblue" points="400.04,-151.67 405.89,-142.83 395.81,-146.1 400.04,-151.67"/>
</g>
<!-- Node3&#45;&gt;Node4 -->
<g id="edge3" class="edge">
<title>Node3&#45;&gt;Node4</title>
<path fill="none" stroke="midnightblue" d="M103.19,-123.48C93.05,-114.2 76.64,-99.17 64.25,-87.83"/>
<polygon fill="midnightblue" stroke="midnightblue" points="66.54,-85.18 56.8,-81.01 61.81,-90.34 66.54,-85.18"/>
</g>
<!-- Node43&#45;&gt;Node44 -->
<g id="edge5" class="edge">
<title>Node43&#45;&gt;Node44</title>
<path fill="none" stroke="midnightblue" d="M255.18,-123.48C244.58,-115.49 228.33,-103.25 214.41,-92.77"/>
<polygon fill="midnightblue" stroke="midnightblue" points="216.21,-89.74 206.12,-86.52 212,-95.33 216.21,-89.74"/>
</g>
<!-- Node8 -->
<g id="node8" class="node">
<title>Node8</title>
<g id="a_node8"><a xlink:title=" ">
<polygon fill="white" stroke="#bfbfbf" points="384.5,-0.5 384.5,-19.5 434.5,-19.5 434.5,-0.5 384.5,-0.5"/>
<text text-anchor="middle" x="409.5" y="-7.5" font-family="Helvetica,sans-Serif" font-size="10.00">cstdint</text>
</a>
</g>
</g>
<!-- Node24&#45;&gt;Node8 -->
<g id="edge7" class="edge">
<title>Node24&#45;&gt;Node8</title>
<path fill="none" stroke="midnightblue" d="M320.4,-61.98C337.47,-52.21 365.66,-36.08 385.76,-24.58"/>
<polygon fill="midnightblue" stroke="midnightblue" points="387.69,-27.51 394.63,-19.51 384.21,-21.44 387.69,-27.51"/>
</g>
<!-- Node23&#45;&gt;Node24 -->
<g id="edge9" class="edge">
<title>Node23&#45;&gt;Node24</title>
<path fill="none" stroke="midnightblue" d="M401.45,-123.48C382.91,-113.62 352.16,-97.29 330.48,-85.77"/>
<polygon fill="midnightblue" stroke="midnightblue" points="331.99,-82.61 321.52,-81.01 328.71,-88.79 331.99,-82.61"/>
</g>
<!-- Node25 -->
<g id="node10" class="node">
<title>Node25</title>
<g id="a_node10"><a xlink:title=" ">
<polygon fill="white" stroke="#bfbfbf" points="353,-56.5 353,-86.5 486,-86.5 486,-56.5 353,-56.5"/>
<text text-anchor="start" x="361" y="-74.5" font-family="Helvetica,sans-Serif" font-size="10.00">emlabcpp/experimental</text>
<text text-anchor="middle" x="419.5" y="-63.5" font-family="Helvetica,sans-Serif" font-size="10.00">/string_buffer.h</text>
</a>
</g>
</g>
<!-- Node23&#45;&gt;Node25 -->
<g id="edge10" class="edge">
<title>Node23&#45;&gt;Node25</title>
<path fill="none" stroke="midnightblue" d="M417.79,-123.48C418.02,-116.47 418.37,-106.19 418.69,-96.7"/>
<polygon fill="midnightblue" stroke="midnightblue" points="422.19,-96.63 419.03,-86.52 415.19,-96.4 422.19,-96.63"/>
</g>
<!-- Node45&#45;&gt;Node8 -->
<g id="edge13" class="edge">
<title>Node45&#45;&gt;Node8</title>
<path fill="none" stroke="midnightblue" d="M517.02,-123.48C515.75,-108.29 511.15,-76.22 494.5,-56 481.55,-40.27 461.62,-29.31 444.32,-22.15"/>
<polygon fill="midnightblue" stroke="midnightblue" points="445.1,-18.7 434.51,-18.36 442.58,-25.23 445.1,-18.7"/>
</g>
<!-- Node45&#45;&gt;Node25 -->
<g id="edge15" class="edge">
<title>Node45&#45;&gt;Node25</title>
<path fill="none" stroke="midnightblue" d="M503.46,-123.48C489.94,-115.27 469.01,-102.56 451.43,-91.88"/>
<polygon fill="midnightblue" stroke="midnightblue" points="452.96,-88.72 442.6,-86.52 449.33,-94.7 452.96,-88.72"/>
</g>
<!-- Node46 -->
<g id="node12" class="node">
<title>Node46</title>
<g id="a_node12"><a xlink:title=" ">
<polygon fill="white" stroke="#bfbfbf" points="543,-62 543,-81 630,-81 630,-62 543,-62"/>
<text text-anchor="middle" x="586.5" y="-69" font-family="Helvetica,sans-Serif" font-size="10.00">avakar/atom.h</text>
</a>
</g>
</g>
<!-- Node45&#45;&gt;Node46 -->
<g id="edge14" class="edge">
<title>Node45&#45;&gt;Node46</title>
<path fill="none" stroke="midnightblue" d="M527.39,-123.48C538.15,-114.2 555.57,-99.17 568.72,-87.83"/>
<polygon fill="midnightblue" stroke="midnightblue" points="571.34,-90.19 576.63,-81.01 566.77,-84.89 571.34,-90.19"/>
</g>
<!-- Node47 -->
<g id="node13" class="node">
<title>Node47</title>
<g id="a_node13"><a xlink:title=" ">
<polygon fill="white" stroke="#bfbfbf" points="648,-62 648,-81 717,-81 717,-62 648,-62"/>
<text text-anchor="middle" x="682.5" y="-69" font-family="Helvetica,sans-Serif" font-size="10.00">vari/vopt.h</text>
</a>
</g>
</g>
<!-- Node45&#45;&gt;Node47 -->
<g id="edge16" class="edge">
<title>Node45&#45;&gt;Node47</title>
<path fill="none" stroke="midnightblue" d="M541.14,-123.48C569.44,-113.27 617.03,-96.11 649.09,-84.55"/>
<polygon fill="midnightblue" stroke="midnightblue" points="650.68,-87.69 658.9,-81.01 648.31,-81.11 650.68,-87.69"/>
</g>
<!-- Node48 -->
<g id="node14" class="node">
<title>Node48</title>
<g id="a_node14"><a xlink:title=" ">
<polygon fill="white" stroke="#bfbfbf" points="735.5,-62 735.5,-81 803.5,-81 803.5,-62 735.5,-62"/>
<text text-anchor="middle" x="769.5" y="-69" font-family="Helvetica,sans-Serif" font-size="10.00">vari/vval.h</text>
</a>
</g>
</g>
<!-- Node45&#45;&gt;Node48 -->
<g id="edge17" class="edge">
<title>Node45&#45;&gt;Node48</title>
<path fill="none" stroke="midnightblue" d="M556.31,-124.19C607.54,-113.79 694.92,-95.69 726.5,-87 729.52,-86.17 732.63,-85.25 735.74,-84.28"/>
<polygon fill="midnightblue" stroke="midnightblue" points="737.1,-87.52 745.54,-81.11 734.95,-80.86 737.1,-87.52"/>
</g>
<!-- Node14 -->
<g id="node16" class="node">
<title>Node14</title>
<g id="a_node16"><a xlink:title=" ">
<polygon fill="white" stroke="#bfbfbf" points="574.5,-123.5 574.5,-142.5 638.5,-142.5 638.5,-123.5 574.5,-123.5"/>
<text text-anchor="middle" x="606.5" y="-130.5" font-family="Helvetica,sans-Serif" font-size="10.00">algorithm</text>
</a>
</g>
</g>
<!-- Node49&#45;&gt;Node14 -->
<g id="edge19" class="edge">
<title>Node49&#45;&gt;Node14</title>
<path fill="none" stroke="midnightblue" d="M606.5,-179.08C606.5,-172.01 606.5,-161.86 606.5,-152.99"/>
<polygon fill="midnightblue" stroke="midnightblue" points="610,-152.75 606.5,-142.75 603,-152.75 610,-152.75"/>
</g>
<!-- Node50 -->
<g id="node17" class="node">
<title>Node50</title>
<g id="a_node17"><a xlink:title=" ">
<polygon fill="white" stroke="#bfbfbf" points="656.5,-123.5 656.5,-142.5 706.5,-142.5 706.5,-123.5 656.5,-123.5"/>
<text text-anchor="middle" x="681.5" y="-130.5" font-family="Helvetica,sans-Serif" font-size="10.00">cstring</text>
</a>
</g>
</g>
<!-- Node49&#45;&gt;Node50 -->
<g id="edge20" class="edge">
<title>Node49&#45;&gt;Node50</title>
<path fill="none" stroke="midnightblue" d="M618.55,-179.32C629.96,-171.11 647.33,-158.6 660.93,-148.81"/>
<polygon fill="midnightblue" stroke="midnightblue" points="663.16,-151.52 669.23,-142.83 659.07,-145.84 663.16,-151.52"/>
</g>
<!-- Node51 -->
<g id="node18" class="node">
<title>Node51</title>
<g id="a_node18"><a xlink:title=" ">
<polygon fill="white" stroke="#bfbfbf" points="725,-123.5 725,-142.5 798,-142.5 798,-123.5 725,-123.5"/>
<text text-anchor="middle" x="761.5" y="-130.5" font-family="Helvetica,sans-Serif" font-size="10.00">string_view</text>
</a>
</g>
</g>
<!-- Node49&#45;&gt;Node51 -->
<g id="edge21" class="edge">
<title>Node49&#45;&gt;Node51</title>
<path fill="none" stroke="midnightblue" d="M631.06,-179.44C657.02,-170.4 698.17,-156.06 727.3,-145.92"/>
<polygon fill="midnightblue" stroke="midnightblue" points="728.76,-149.11 737.05,-142.52 726.46,-142.5 728.76,-149.11"/>
</g>
</g>
</svg>
