<?xml version="1.0" encoding="UTF-8" standalone="no"?>
<!DOCTYPE svg PUBLIC "-//W3C//DTD SVG 1.1//EN"
 "http://www.w3.org/Graphics/SVG/1.1/DTD/svg11.dtd">
<!-- Generated by graphviz version 2.43.0 (0)
 -->
<!-- Title: src/fw/dispatcher.hpp Pages: 1 -->
<svg width="524pt" height="207pt"
 viewBox="0.00 0.00 523.50 207.00" xmlns="http://www.w3.org/2000/svg" xmlns:xlink="http://www.w3.org/1999/xlink">
<g id="graph0" class="graph" transform="scale(1 1) rotate(0) translate(4 203)">
<title>src/fw/dispatcher.hpp</title>
<polygon fill="white" stroke="transparent" points="-4,4 -4,-203 519.5,-203 519.5,4 -4,4"/>
<!-- Node1 -->
<g id="node1" class="node">
<title>Node1</title>
<g id="a_node1"><a xlink:title=" ">
<polygon fill="#bfbfbf" stroke="black" points="202,-179.5 202,-198.5 321,-198.5 321,-179.5 202,-179.5"/>
<text text-anchor="middle" x="261.5" y="-186.5" font-family="Helvetica,sans-Serif" font-size="10.00">src/fw/dispatcher.hpp</text>
</a>
</g>
</g>
<!-- Node2 -->
<g id="node2" class="node">
<title>Node2</title>
<g id="a_node2"><a xlink:href="cfg_2dispatcher_8hpp.html" target="_top" xlink:title=" ">
<polygon fill="white" stroke="black" points="34.5,-118 34.5,-137 140.5,-137 140.5,-118 34.5,-118"/>
<text text-anchor="middle" x="87.5" y="-125" font-family="Helvetica,sans-Serif" font-size="10.00">cfg/dispatcher.hpp</text>
</a>
</g>
</g>
<!-- Node1&#45;&gt;Node2 -->
<g id="edge1" class="edge">
<title>Node1&#45;&gt;Node2</title>
<path fill="none" stroke="midnightblue" d="M236.57,-179.48C206.46,-169.18 155.67,-151.81 121.86,-140.25"/>
<polygon fill="midnightblue" stroke="midnightblue" points="122.98,-136.93 112.38,-137.01 120.71,-143.56 122.98,-136.93"/>
</g>
<!-- Node14 -->
<g id="node6" class="node">
<title>Node14</title>
<g id="a_node6"><a xlink:href="control_8hpp.html" target="_top" xlink:title=" ">
<polygon fill="white" stroke="red" points="117.5,-0.5 117.5,-19.5 203.5,-19.5 203.5,-0.5 117.5,-0.5"/>
<text text-anchor="middle" x="160.5" y="-7.5" font-family="Helvetica,sans-Serif" font-size="10.00">ctl/control.hpp</text>
</a>
</g>
</g>
<!-- Node1&#45;&gt;Node14 -->
<g id="edge7" class="edge">
<title>Node1&#45;&gt;Node14</title>
<path fill="none" stroke="midnightblue" d="M251.22,-179.18C241.78,-170.67 227.86,-157.02 218.5,-143 215.12,-137.93 183.28,-64.11 168.27,-29.13"/>
<polygon fill="midnightblue" stroke="midnightblue" points="171.36,-27.45 164.2,-19.64 164.92,-30.21 171.36,-27.45"/>
</g>
<!-- Node41 -->
<g id="node7" class="node">
<title>Node41</title>
<g id="a_node7"><a xlink:href="util_8hpp.html" target="_top" xlink:title=" ">
<polygon fill="white" stroke="black" points="227.5,-118 227.5,-137 295.5,-137 295.5,-118 227.5,-118"/>
<text text-anchor="middle" x="261.5" y="-125" font-family="Helvetica,sans-Serif" font-size="10.00">fw/util.hpp</text>
</a>
</g>
</g>
<!-- Node1&#45;&gt;Node41 -->
<g id="edge8" class="edge">
<title>Node1&#45;&gt;Node41</title>
<path fill="none" stroke="midnightblue" d="M261.5,-179.48C261.5,-171.08 261.5,-157.98 261.5,-147.16"/>
<polygon fill="midnightblue" stroke="midnightblue" points="265,-147.01 261.5,-137.01 258,-147.01 265,-147.01"/>
</g>
<!-- Node43 -->
<g id="node10" class="node">
<title>Node43</title>
<g id="a_node10"><a xlink:title=" ">
<polygon fill="white" stroke="#bfbfbf" points="314,-112.5 314,-142.5 447,-142.5 447,-112.5 314,-112.5"/>
<text text-anchor="start" x="322" y="-130.5" font-family="Helvetica,sans-Serif" font-size="10.00">emlabcpp/experimental</text>
<text text-anchor="middle" x="380.5" y="-119.5" font-family="Helvetica,sans-Serif" font-size="10.00">/function_view.h</text>
</a>
</g>
</g>
<!-- Node1&#45;&gt;Node43 -->
<g id="edge11" class="edge">
<title>Node1&#45;&gt;Node43</title>
<path fill="none" stroke="midnightblue" d="M278.55,-179.48C295.42,-171.04 321.79,-157.86 343.48,-147.01"/>
<polygon fill="midnightblue" stroke="midnightblue" points="345.08,-150.13 352.45,-142.52 341.94,-143.86 345.08,-150.13"/>
</g>
<!-- Node44 -->
<g id="node11" class="node">
<title>Node44</title>
<g id="a_node11"><a xlink:title=" ">
<polygon fill="white" stroke="#bfbfbf" points="465.5,-118 465.5,-137 515.5,-137 515.5,-118 465.5,-118"/>
<text text-anchor="middle" x="490.5" y="-125" font-family="Helvetica,sans-Serif" font-size="10.00">io.pb.h</text>
</a>
</g>
</g>
<!-- Node1&#45;&gt;Node44 -->
<g id="edge12" class="edge">
<title>Node1&#45;&gt;Node44</title>
<path fill="none" stroke="midnightblue" d="M309.02,-179.47C348.91,-171.73 407.11,-159.09 456.5,-143 458.42,-142.37 460.39,-141.68 462.35,-140.95"/>
<polygon fill="midnightblue" stroke="midnightblue" points="464.04,-144.05 472.02,-137.08 461.44,-137.55 464.04,-144.05"/>
</g>
<!-- Node3 -->
<g id="node3" class="node">
<title>Node3</title>
<g id="a_node3"><a xlink:href="key_8hpp.html" target="_top" xlink:title=" ">
<polygon fill="white" stroke="red" points="0,-0.5 0,-19.5 71,-19.5 71,-0.5 0,-0.5"/>
<text text-anchor="middle" x="35.5" y="-7.5" font-family="Helvetica,sans-Serif" font-size="10.00">cfg/key.hpp</text>
</a>
</g>
</g>
<!-- Node2&#45;&gt;Node3 -->
<g id="edge2" class="edge">
<title>Node2&#45;&gt;Node3</title>
<path fill="none" stroke="midnightblue" d="M61.52,-117.85C42.8,-110.1 18.92,-96.71 7.5,-76 -1.26,-60.11 9.4,-40.93 19.99,-27.54"/>
<polygon fill="midnightblue" stroke="midnightblue" points="22.89,-29.53 26.74,-19.66 17.57,-24.98 22.89,-29.53"/>
</g>
<!-- Node5 -->
<g id="node4" class="node">
<title>Node5</title>
<g id="a_node4"><a xlink:href="map_8hpp.html" target="_top" xlink:title=" ">
<polygon fill="white" stroke="red" points="17,-56.5 17,-75.5 94,-75.5 94,-56.5 17,-56.5"/>
<text text-anchor="middle" x="55.5" y="-63.5" font-family="Helvetica,sans-Serif" font-size="10.00">cfg/map.hpp</text>
</a>
</g>
</g>
<!-- Node2&#45;&gt;Node5 -->
<g id="edge3" class="edge">
<title>Node2&#45;&gt;Node5</title>
<path fill="none" stroke="midnightblue" d="M82.92,-117.98C78.26,-109.32 70.91,-95.65 64.99,-84.65"/>
<polygon fill="midnightblue" stroke="midnightblue" points="67.9,-82.66 60.08,-75.51 61.73,-85.97 67.9,-82.66"/>
</g>
<!-- Node13 -->
<g id="node5" class="node">
<title>Node13</title>
<g id="a_node5"><a xlink:href="core_8hpp.html" target="_top" xlink:title=" ">
<polygon fill="white" stroke="red" points="112,-56.5 112,-75.5 171,-75.5 171,-56.5 112,-56.5"/>
<text text-anchor="middle" x="141.5" y="-63.5" font-family="Helvetica,sans-Serif" font-size="10.00">core.hpp</text>
</a>
</g>
</g>
<!-- Node2&#45;&gt;Node13 -->
<g id="edge5" class="edge">
<title>Node2&#45;&gt;Node13</title>
<path fill="none" stroke="midnightblue" d="M95.24,-117.98C103.5,-108.87 116.78,-94.24 126.99,-82.98"/>
<polygon fill="midnightblue" stroke="midnightblue" points="129.65,-85.27 133.78,-75.51 124.47,-80.56 129.65,-85.27"/>
</g>
<!-- Node5&#45;&gt;Node3 -->
<g id="edge4" class="edge">
<title>Node5&#45;&gt;Node3</title>
<path fill="none" stroke="midnightblue" d="M52.2,-56.08C49.52,-48.85 45.65,-38.41 42.31,-29.4"/>
<polygon fill="midnightblue" stroke="midnightblue" points="45.5,-27.91 38.74,-19.75 38.93,-30.34 45.5,-27.91"/>
</g>
<!-- Node13&#45;&gt;Node14 -->
<g id="edge6" class="edge">
<title>Node13&#45;&gt;Node14</title>
<path fill="none" stroke="midnightblue" d="M144.64,-56.08C147.18,-48.85 150.86,-38.41 154.03,-29.4"/>
<polygon fill="midnightblue" stroke="midnightblue" points="157.4,-30.35 157.42,-19.75 150.8,-28.02 157.4,-30.35"/>
</g>
<!-- Node18 -->
<g id="node8" class="node">
<title>Node18</title>
<g id="a_node8"><a xlink:title=" ">
<polygon fill="white" stroke="#bfbfbf" points="228.5,-56.5 228.5,-75.5 292.5,-75.5 292.5,-56.5 228.5,-56.5"/>
<text text-anchor="middle" x="260.5" y="-63.5" font-family="Helvetica,sans-Serif" font-size="10.00">algorithm</text>
</a>
</g>
</g>
<!-- Node41&#45;&gt;Node18 -->
<g id="edge9" class="edge">
<title>Node41&#45;&gt;Node18</title>
<path fill="none" stroke="midnightblue" d="M261.36,-117.98C261.22,-109.58 261,-96.48 260.81,-85.66"/>
<polygon fill="midnightblue" stroke="midnightblue" points="264.31,-85.45 260.64,-75.51 257.31,-85.57 264.31,-85.45"/>
</g>
<!-- Node42 -->
<g id="node9" class="node">
<title>Node42</title>
<g id="a_node9"><a xlink:title=" ">
<polygon fill="white" stroke="#bfbfbf" points="310.5,-56.5 310.5,-75.5 360.5,-75.5 360.5,-56.5 310.5,-56.5"/>
<text text-anchor="middle" x="335.5" y="-63.5" font-family="Helvetica,sans-Serif" font-size="10.00">cstring</text>
</a>
</g>
</g>
<!-- Node41&#45;&gt;Node42 -->
<g id="edge10" class="edge">
<title>Node41&#45;&gt;Node42</title>
<path fill="none" stroke="midnightblue" d="M272.1,-117.98C283.75,-108.61 302.69,-93.38 316.83,-82.01"/>
<polygon fill="midnightblue" stroke="midnightblue" points="319.32,-84.5 324.92,-75.51 314.93,-79.05 319.32,-84.5"/>
</g>
</g>
</svg>
