<?xml version="1.0" encoding="UTF-8" standalone="no"?>
<!DOCTYPE svg PUBLIC "-//W3C//DTD SVG 1.1//EN"
 "http://www.w3.org/Graphics/SVG/1.1/DTD/svg11.dtd">
<!-- Generated by graphviz version 2.43.0 (0)
 -->
<!-- Title: src/gov/governor.hpp Pages: 1 -->
<svg width="1370pt" height="214pt"
 viewBox="0.00 0.00 1369.50 214.00" xmlns="http://www.w3.org/2000/svg" xmlns:xlink="http://www.w3.org/1999/xlink">
<g id="graph0" class="graph" transform="scale(1 1) rotate(0) translate(4 210)">
<title>src/gov/governor.hpp</title>
<!-- Node1 -->
<g id="Node000001" class="node">
<title>Node1</title>
<g id="a_Node000001"><a xlink:title=" ">
<polygon fill="#999999" stroke="#666666" points="977.5,-206 858.5,-206 858.5,-187 977.5,-187 977.5,-206"/>
<text text-anchor="middle" x="918" y="-194" font-family="Helvetica,sans-Serif" font-size="10.00">src/gov/governor.hpp</text>
</a>
</g>
</g>
<!-- Node2 -->
<g id="Node000002" class="node">
<title>Node2</title>
<g id="a_Node000002"><a xlink:href="base_8hpp.html" target="_top" xlink:title=" ">
<polygon fill="white" stroke="#666666" points="341,-85 271,-85 271,-66 341,-66 341,-85"/>
<text text-anchor="middle" x="306" y="-73" font-family="Helvetica,sans-Serif" font-size="10.00">../base.hpp</text>
</a>
</g>
</g>
<!-- Node1&#45;&gt;Node2 -->
<g id="edge1_Node000001_Node000002" class="edge">
<title>Node1&#45;&gt;Node2</title>
<g id="a_edge1_Node000001_Node000002"><a xlink:title=" ">
<path fill="none" stroke="#63b8ff" d="M858.45,-193.28C746.9,-188.58 510.68,-175.97 433,-151 391.35,-137.61 348.63,-108.83 324.89,-91.22"/>
<polygon fill="#63b8ff" stroke="#63b8ff" points="326.84,-88.31 316.76,-85.07 322.62,-93.89 326.84,-88.31"/>
</a>
</g>
</g>
<!-- Node9 -->
<g id="Node000009" class="node">
<title>Node9</title>
<g id="a_Node000009"><a xlink:href="cfg_2base_8hpp.html" target="_top" xlink:title=" ">
<polygon fill="white" stroke="#666666" points="530,-145.5 442,-145.5 442,-126.5 530,-126.5 530,-145.5"/>
<text text-anchor="middle" x="486" y="-133.5" font-family="Helvetica,sans-Serif" font-size="10.00">../cfg/base.hpp</text>
</a>
</g>
</g>
<!-- Node1&#45;&gt;Node9 -->
<g id="edge8_Node000001_Node000009" class="edge">
<title>Node1&#45;&gt;Node9</title>
<g id="a_edge8_Node000001_Node000009"><a xlink:title=" ">
<path fill="none" stroke="#63b8ff" d="M858.39,-187.43C774.15,-176.02 621.52,-155.35 540.28,-144.35"/>
<polygon fill="#63b8ff" stroke="#63b8ff" points="540.64,-140.87 530.26,-142.99 539.7,-147.8 540.64,-140.87"/>
</a>
</g>
</g>
<!-- Node16 -->
<g id="Node000016" class="node">
<title>Node16</title>
<g id="a_Node000016"><a xlink:title=" ">
<polygon fill="#e0e0e0" stroke="#999999" points="913.5,-24.5 840.5,-24.5 840.5,-5.5 913.5,-5.5 913.5,-24.5"/>
<text text-anchor="middle" x="877" y="-12.5" font-family="Helvetica,sans-Serif" font-size="10.00">string_view</text>
</a>
</g>
</g>
<!-- Node1&#45;&gt;Node16 -->
<g id="edge26_Node000001_Node000016" class="edge">
<title>Node1&#45;&gt;Node16</title>
<g id="a_edge26_Node000001_Node000016"><a xlink:title=" ">
<path fill="none" stroke="#63b8ff" d="M922.48,-186.91C935.43,-161.6 971.18,-87.69 959,-66 949.22,-48.58 930.63,-36.51 913.62,-28.61"/>
<polygon fill="#63b8ff" stroke="#63b8ff" points="914.97,-25.38 904.4,-24.63 912.2,-31.8 914.97,-25.38"/>
</a>
</g>
</g>
<!-- Node18 -->
<g id="Node000018" class="node">
<title>Node18</title>
<g id="a_Node000018"><a xlink:href="status_8hpp.html" target="_top" xlink:title=" ">
<polygon fill="#fff0f0" stroke="red" points="558.5,-85 481.5,-85 481.5,-66 558.5,-66 558.5,-85"/>
<text text-anchor="middle" x="520" y="-73" font-family="Helvetica,sans-Serif" font-size="10.00">../status.hpp</text>
</a>
</g>
</g>
<!-- Node1&#45;&gt;Node18 -->
<g id="edge22_Node000001_Node000018" class="edge">
<title>Node1&#45;&gt;Node18</title>
<g id="a_edge22_Node000001_Node000018"><a xlink:title=" ">
<path fill="none" stroke="#63b8ff" d="M871.93,-186.99C831.51,-179.08 771.34,-166.25 720,-151 658.38,-132.69 588.42,-104.98 549.73,-89.02"/>
<polygon fill="#63b8ff" stroke="#63b8ff" points="550.71,-85.64 540.13,-85.04 548.03,-92.1 550.71,-85.64"/>
</a>
</g>
</g>
<!-- Node22 -->
<g id="Node000022" class="node">
<title>Node22</title>
<g id="a_Node000022"><a xlink:href="iface_2base_8hpp.html" target="_top" xlink:title=" ">
<polygon fill="white" stroke="#666666" points="826.5,-145.5 729.5,-145.5 729.5,-126.5 826.5,-126.5 826.5,-145.5"/>
<text text-anchor="middle" x="778" y="-133.5" font-family="Helvetica,sans-Serif" font-size="10.00">../iface/base.hpp</text>
</a>
</g>
</g>
<!-- Node1&#45;&gt;Node22 -->
<g id="edge16_Node000001_Node000022" class="edge">
<title>Node1&#45;&gt;Node22</title>
<g id="a_edge16_Node000001_Node000022"><a xlink:title=" ">
<path fill="none" stroke="#63b8ff" d="M897.64,-186.99C874,-177.12 834.8,-160.73 807.75,-149.43"/>
<polygon fill="#63b8ff" stroke="#63b8ff" points="808.96,-146.14 798.38,-145.52 806.26,-152.6 808.96,-146.14"/>
</a>
</g>
</g>
<!-- Node23 -->
<g id="Node000023" class="node">
<title>Node23</title>
<g id="a_Node000023"><a xlink:href="json__ser_8hpp.html" target="_top" xlink:title=" ">
<polygon fill="#fff0f0" stroke="red" points="949.5,-85 848.5,-85 848.5,-66 949.5,-66 949.5,-85"/>
<text text-anchor="middle" x="899" y="-73" font-family="Helvetica,sans-Serif" font-size="10.00">../lib/json_ser.hpp</text>
</a>
</g>
</g>
<!-- Node1&#45;&gt;Node23 -->
<g id="edge21_Node000001_Node000023" class="edge">
<title>Node1&#45;&gt;Node23</title>
<g id="a_edge21_Node000001_Node000023"><a xlink:title=" ">
<path fill="none" stroke="#63b8ff" d="M916.63,-186.94C913.59,-167.91 906.22,-121.69 902.03,-95.47"/>
<polygon fill="#63b8ff" stroke="#63b8ff" points="905.44,-94.62 900.41,-85.3 898.53,-95.73 905.44,-94.62"/>
</a>
</g>
</g>
<!-- Node26 -->
<g id="Node000026" class="node">
<title>Node26</title>
<g id="a_Node000026"><a xlink:title=" ">
<polygon fill="#e0e0e0" stroke="#999999" points="1098.5,-151 965.5,-151 965.5,-121 1098.5,-121 1098.5,-151"/>
<text text-anchor="start" x="973.5" y="-139" font-family="Helvetica,sans-Serif" font-size="10.00">emlabcpp/experimental</text>
<text text-anchor="middle" x="1032" y="-128" font-family="Helvetica,sans-Serif" font-size="10.00">/function_view.h</text>
</a>
</g>
</g>
<!-- Node1&#45;&gt;Node26 -->
<g id="edge23_Node000001_Node000026" class="edge">
<title>Node1&#45;&gt;Node26</title>
<g id="a_edge23_Node000001_Node000026"><a xlink:title=" ">
<path fill="none" stroke="#63b8ff" d="M934.82,-186.87C950.72,-178.71 975.1,-166.2 995.47,-155.75"/>
<polygon fill="#63b8ff" stroke="#63b8ff" points="997.2,-158.79 1004.49,-151.11 994,-152.57 997.2,-158.79"/>
</a>
</g>
</g>
<!-- Node27 -->
<g id="Node000027" class="node">
<title>Node27</title>
<g id="a_Node000027"><a xlink:title=" ">
<polygon fill="#e0e0e0" stroke="#999999" points="1247.5,-151 1116.5,-151 1116.5,-121 1247.5,-121 1247.5,-151"/>
<text text-anchor="start" x="1124.5" y="-139" font-family="Helvetica,sans-Serif" font-size="10.00">emlabcpp/pmr/memory</text>
<text text-anchor="middle" x="1182" y="-128" font-family="Helvetica,sans-Serif" font-size="10.00">_resource.h</text>
</a>
</g>
</g>
<!-- Node1&#45;&gt;Node27 -->
<g id="edge24_Node000001_Node000027" class="edge">
<title>Node1&#45;&gt;Node27</title>
<g id="a_edge24_Node000001_Node000027"><a xlink:title=" ">
<path fill="none" stroke="#63b8ff" d="M956.39,-186.99C996.19,-178.17 1059.39,-164.17 1108.79,-153.22"/>
<polygon fill="#63b8ff" stroke="#63b8ff" points="1109.78,-156.59 1118.79,-151.01 1108.27,-149.75 1109.78,-156.59"/>
</a>
</g>
</g>
<!-- Node28 -->
<g id="Node000028" class="node">
<title>Node28</title>
<g id="a_Node000028"><a xlink:title=" ">
<polygon fill="#e0e0e0" stroke="#999999" points="1306,-145.5 1266,-145.5 1266,-126.5 1306,-126.5 1306,-145.5"/>
<text text-anchor="middle" x="1286" y="-133.5" font-family="Helvetica,sans-Serif" font-size="10.00">span</text>
</a>
</g>
</g>
<!-- Node1&#45;&gt;Node28 -->
<g id="edge25_Node000001_Node000028" class="edge">
<title>Node1&#45;&gt;Node28</title>
<g id="a_edge25_Node000001_Node000028"><a xlink:title=" ">
<path fill="none" stroke="#63b8ff" d="M977.68,-193.4C1046.35,-189.69 1161.87,-179.4 1257,-151 1258.44,-150.57 1259.9,-150.08 1261.35,-149.54"/>
<polygon fill="#63b8ff" stroke="#63b8ff" points="1262.92,-152.67 1270.71,-145.5 1260.15,-146.25 1262.92,-152.67"/>
</a>
</g>
</g>
<!-- Node29 -->
<g id="Node000029" class="node">
<title>Node29</title>
<g id="a_Node000029"><a xlink:title=" ">
<polygon fill="#e0e0e0" stroke="#999999" points="1361.5,-145.5 1324.5,-145.5 1324.5,-126.5 1361.5,-126.5 1361.5,-145.5"/>
<text text-anchor="middle" x="1343" y="-133.5" font-family="Helvetica,sans-Serif" font-size="10.00">zll.h</text>
</a>
</g>
</g>
<!-- Node1&#45;&gt;Node29 -->
<g id="edge27_Node000001_Node000029" class="edge">
<title>Node1&#45;&gt;Node29</title>
<g id="a_edge27_Node000001_Node000029"><a xlink:title=" ">
<path fill="none" stroke="#63b8ff" d="M977.8,-195.28C1056.65,-193.54 1198.95,-185.33 1315,-151 1316.26,-150.63 1317.53,-150.2 1318.8,-149.73"/>
<polygon fill="#63b8ff" stroke="#63b8ff" points="1320.54,-152.79 1328.29,-145.57 1317.72,-146.38 1320.54,-152.79"/>
</a>
</g>
</g>
<!-- Node3 -->
<g id="Node000003" class="node">
<title>Node3</title>
<g id="a_Node000003"><a xlink:title=" ">
<polygon fill="#e0e0e0" stroke="#999999" points="478,-24.5 428,-24.5 428,-5.5 478,-5.5 478,-24.5"/>
<text text-anchor="middle" x="453" y="-12.5" font-family="Helvetica,sans-Serif" font-size="10.00">chrono</text>
</a>
</g>
</g>
<!-- Node2&#45;&gt;Node3 -->
<g id="edge2_Node000002_Node000003" class="edge">
<title>Node2&#45;&gt;Node3</title>
<g id="a_edge2_Node000002_Node000003"><a xlink:title=" ">
<path fill="none" stroke="#63b8ff" d="M328.13,-65.9C350.94,-57.01 387.51,-42.68 419,-30 420.2,-29.52 421.42,-29.02 422.66,-28.52"/>
<polygon fill="#63b8ff" stroke="#63b8ff" points="424.23,-31.66 432.16,-24.64 421.58,-25.18 424.23,-31.66"/>
</a>
</g>
</g>
<!-- Node4 -->
<g id="Node000004" class="node">
<title>Node4</title>
<g id="a_Node000004"><a xlink:title=" ">
<polygon fill="#e0e0e0" stroke="#999999" points="554,-24.5 504,-24.5 504,-5.5 554,-5.5 554,-24.5"/>
<text text-anchor="middle" x="529" y="-12.5" font-family="Helvetica,sans-Serif" font-size="10.00">cstdint</text>
</a>
</g>
</g>
<!-- Node2&#45;&gt;Node4 -->
<g id="edge3_Node000002_Node000004" class="edge">
<title>Node2&#45;&gt;Node4</title>
<g id="a_edge3_Node000002_Node000004"><a xlink:title=" ">
<path fill="none" stroke="#63b8ff" d="M341.26,-66.72C377.9,-58.43 436.8,-44.51 487,-30 489.46,-29.29 491.98,-28.53 494.52,-27.74"/>
<polygon fill="#63b8ff" stroke="#63b8ff" points="495.78,-31.01 504.23,-24.62 493.64,-24.35 495.78,-31.01"/>
</a>
</g>
</g>
<!-- Node5 -->
<g id="Node000005" class="node">
<title>Node5</title>
<g id="a_Node000005"><a xlink:title=" ">
<polygon fill="#e0e0e0" stroke="#999999" points="124,-24.5 0,-24.5 0,-5.5 124,-5.5 124,-24.5"/>
<text text-anchor="middle" x="62" y="-12.5" font-family="Helvetica,sans-Serif" font-size="10.00">emlabcpp/algorithm.h</text>
</a>
</g>
</g>
<!-- Node2&#45;&gt;Node5 -->
<g id="edge4_Node000002_Node000005" class="edge">
<title>Node2&#45;&gt;Node5</title>
<g id="a_edge4_Node000002_Node000005"><a xlink:title=" ">
<path fill="none" stroke="#63b8ff" d="M270.78,-66.06C227.75,-55.74 154.85,-38.26 107.57,-26.93"/>
<polygon fill="#63b8ff" stroke="#63b8ff" points="108.15,-23.46 97.61,-24.54 106.51,-30.27 108.15,-23.46"/>
</a>
</g>
</g>
<!-- Node6 -->
<g id="Node000006" class="node">
<title>Node6</title>
<g id="a_Node000006"><a xlink:title=" ">
<polygon fill="#e0e0e0" stroke="#999999" points="258,-24.5 142,-24.5 142,-5.5 258,-5.5 258,-24.5"/>
<text text-anchor="middle" x="200" y="-12.5" font-family="Helvetica,sans-Serif" font-size="10.00">emlabcpp/quantity.h</text>
</a>
</g>
</g>
<!-- Node2&#45;&gt;Node6 -->
<g id="edge5_Node000002_Node000006" class="edge">
<title>Node2&#45;&gt;Node6</title>
<g id="a_edge5_Node000002_Node000006"><a xlink:title=" ">
<path fill="none" stroke="#63b8ff" d="M290.36,-65.87C273.06,-56.32 244.95,-40.81 224.67,-29.62"/>
<polygon fill="#63b8ff" stroke="#63b8ff" points="226.15,-26.43 215.7,-24.67 222.77,-32.56 226.15,-26.43"/>
</a>
</g>
</g>
<!-- Node7 -->
<g id="Node000007" class="node">
<title>Node7</title>
<g id="a_Node000007"><a xlink:title=" ">
<polygon fill="#e0e0e0" stroke="#999999" points="335.5,-24.5 276.5,-24.5 276.5,-5.5 335.5,-5.5 335.5,-24.5"/>
<text text-anchor="middle" x="306" y="-12.5" font-family="Helvetica,sans-Serif" font-size="10.00">numbers</text>
</a>
</g>
</g>
<!-- Node2&#45;&gt;Node7 -->
<g id="edge6_Node000002_Node000007" class="edge">
<title>Node2&#45;&gt;Node7</title>
<g id="a_edge6_Node000002_Node000007"><a xlink:title=" ">
<path fill="none" stroke="#63b8ff" d="M306,-65.87C306,-57.75 306,-45.31 306,-34.89"/>
<polygon fill="#63b8ff" stroke="#63b8ff" points="309.5,-34.67 306,-24.67 302.5,-34.67 309.5,-34.67"/>
</a>
</g>
</g>
<!-- Node8 -->
<g id="Node000008" class="node">
<title>Node8</title>
<g id="a_Node000008"><a xlink:title=" ">
<polygon fill="#e0e0e0" stroke="#999999" points="410,-24.5 354,-24.5 354,-5.5 410,-5.5 410,-24.5"/>
<text text-anchor="middle" x="382" y="-12.5" font-family="Helvetica,sans-Serif" font-size="10.00">optional</text>
</a>
</g>
</g>
<!-- Node2&#45;&gt;Node8 -->
<g id="edge7_Node000002_Node000008" class="edge">
<title>Node2&#45;&gt;Node8</title>
<g id="a_edge7_Node000002_Node000008"><a xlink:title=" ">
<path fill="none" stroke="#63b8ff" d="M317.21,-65.87C329.11,-56.71 348.14,-42.06 362.51,-31.01"/>
<polygon fill="#63b8ff" stroke="#63b8ff" points="364.95,-33.54 370.74,-24.67 360.68,-27.99 364.95,-33.54"/>
</a>
</g>
</g>
<!-- Node9&#45;&gt;Node2 -->
<g id="edge9_Node000009_Node000002" class="edge">
<title>Node9&#45;&gt;Node2</title>
<g id="a_edge9_Node000009_Node000002"><a xlink:title=" ">
<path fill="none" stroke="#63b8ff" d="M459.83,-126.49C428.77,-116.4 376.81,-99.51 341.98,-88.19"/>
<polygon fill="#63b8ff" stroke="#63b8ff" points="342.8,-84.78 332.21,-85.02 340.63,-91.44 342.8,-84.78"/>
</a>
</g>
</g>
<!-- Node10 -->
<g id="Node000010" class="node">
<title>Node10</title>
<g id="a_Node000010"><a xlink:href="parser_8hpp.html" target="_top" xlink:title=" ">
<polygon fill="#fff0f0" stroke="red" points="707,-85 615,-85 615,-66 707,-66 707,-85"/>
<text text-anchor="middle" x="661" y="-73" font-family="Helvetica,sans-Serif" font-size="10.00">../lib/parser.hpp</text>
</a>
</g>
</g>
<!-- Node9&#45;&gt;Node10 -->
<g id="edge10_Node000009_Node000010" class="edge">
<title>Node9&#45;&gt;Node10</title>
<g id="a_edge10_Node000009_Node000010"><a xlink:title=" ">
<path fill="none" stroke="#63b8ff" d="M511.45,-126.49C541.64,-116.4 592.16,-99.51 626.02,-88.19"/>
<polygon fill="#63b8ff" stroke="#63b8ff" points="627.15,-91.51 635.52,-85.02 624.93,-84.87 627.15,-91.51"/>
</a>
</g>
</g>
<!-- Node15 -->
<g id="Node000015" class="node">
<title>Node15</title>
<g id="a_Node000015"><a xlink:title=" ">
<polygon fill="#e0e0e0" stroke="#999999" points="720.5,-30 587.5,-30 587.5,0 720.5,0 720.5,-30"/>
<text text-anchor="start" x="595.5" y="-18" font-family="Helvetica,sans-Serif" font-size="10.00">emlabcpp/experimental</text>
<text text-anchor="middle" x="654" y="-7" font-family="Helvetica,sans-Serif" font-size="10.00">/string_buffer.h</text>
</a>
</g>
</g>
<!-- Node9&#45;&gt;Node15 -->
<g id="edge14_Node000009_Node000015" class="edge">
<title>Node9&#45;&gt;Node15</title>
<g id="a_edge14_Node000009_Node000015"><a xlink:title=" ">
<path fill="none" stroke="#63b8ff" d="M480.34,-126.4C471.85,-112.31 458.22,-84.08 472,-66 485.18,-48.71 533.57,-35.92 577.15,-27.6"/>
<polygon fill="#63b8ff" stroke="#63b8ff" points="578.03,-30.99 587.23,-25.73 576.76,-24.11 578.03,-30.99"/>
</a>
</g>
</g>
<!-- Node9&#45;&gt;Node18 -->
<g id="edge13_Node000009_Node000018" class="edge">
<title>Node9&#45;&gt;Node18</title>
<g id="a_edge13_Node000009_Node000018"><a xlink:title=" ">
<path fill="none" stroke="#63b8ff" d="M491.02,-126.37C495.94,-117.9 503.59,-104.74 509.79,-94.07"/>
<polygon fill="#63b8ff" stroke="#63b8ff" points="512.96,-95.57 514.96,-85.17 506.91,-92.05 512.96,-95.57"/>
</a>
</g>
</g>
<!-- Node21 -->
<g id="Node000021" class="node">
<title>Node21</title>
<g id="a_Node000021"><a xlink:title=" ">
<polygon fill="#e0e0e0" stroke="#999999" points="425,-85 359,-85 359,-66 425,-66 425,-85"/>
<text text-anchor="middle" x="392" y="-73" font-family="Helvetica,sans-Serif" font-size="10.00">vari/vref.h</text>
</a>
</g>
</g>
<!-- Node9&#45;&gt;Node21 -->
<g id="edge15_Node000009_Node000021" class="edge">
<title>Node9&#45;&gt;Node21</title>
<g id="a_edge15_Node000009_Node000021"><a xlink:title=" ">
<path fill="none" stroke="#63b8ff" d="M472.13,-126.37C457,-116.95 432.54,-101.73 414.62,-90.58"/>
<polygon fill="#63b8ff" stroke="#63b8ff" points="416.27,-87.48 405.93,-85.17 412.57,-93.42 416.27,-87.48"/>
</a>
</g>
</g>
<!-- Node10&#45;&gt;Node15 -->
<g id="edge11_Node000010_Node000015" class="edge">
<title>Node10&#45;&gt;Node15</title>
<g id="a_edge11_Node000010_Node000015"><a xlink:title=" ">
<path fill="none" stroke="#63b8ff" d="M659.97,-65.87C659.16,-59.11 657.99,-49.35 656.9,-40.26"/>
<polygon fill="#63b8ff" stroke="#63b8ff" points="660.35,-39.63 655.69,-30.11 653.4,-40.46 660.35,-39.63"/>
</a>
</g>
</g>
<!-- Node10&#45;&gt;Node16 -->
<g id="edge12_Node000010_Node000016" class="edge">
<title>Node10&#45;&gt;Node16</title>
<g id="a_edge12_Node000010_Node000016"><a xlink:title=" ">
<path fill="none" stroke="#63b8ff" d="M692.41,-65.99C730.24,-55.75 793.91,-38.5 835.69,-27.19"/>
<polygon fill="#63b8ff" stroke="#63b8ff" points="836.82,-30.51 845.55,-24.52 834.99,-23.75 836.82,-30.51"/>
</a>
</g>
</g>
<!-- Node22&#45;&gt;Node4 -->
<g id="edge17_Node000022_Node000004" class="edge">
<title>Node22&#45;&gt;Node4</title>
<g id="a_edge17_Node000022_Node000004"><a xlink:title=" ">
<path fill="none" stroke="#63b8ff" d="M729.4,-126.91C693.65,-119.56 644.74,-106.51 606,-85 581.11,-71.18 557.5,-47.99 543.14,-32.36"/>
<polygon fill="#63b8ff" stroke="#63b8ff" points="545.44,-29.68 536.17,-24.55 540.22,-34.34 545.44,-29.68"/>
</a>
</g>
</g>
<!-- Node22&#45;&gt;Node10 -->
<g id="edge19_Node000022_Node000010" class="edge">
<title>Node22&#45;&gt;Node10</title>
<g id="a_edge19_Node000022_Node000010"><a xlink:title=" ">
<path fill="none" stroke="#63b8ff" d="M760.99,-126.49C741.58,-116.79 709.61,-100.81 687.06,-89.53"/>
<polygon fill="#63b8ff" stroke="#63b8ff" points="688.54,-86.36 678.03,-85.02 685.41,-92.62 688.54,-86.36"/>
</a>
</g>
</g>
<!-- Node22&#45;&gt;Node23 -->
<g id="edge18_Node000022_Node000023" class="edge">
<title>Node22&#45;&gt;Node23</title>
<g id="a_edge18_Node000022_Node000023"><a xlink:title=" ">
<path fill="none" stroke="#63b8ff" d="M795.59,-126.49C815.76,-116.75 849.02,-100.66 872.36,-89.38"/>
<polygon fill="#63b8ff" stroke="#63b8ff" points="873.9,-92.52 881.38,-85.02 870.86,-86.22 873.9,-92.52"/>
</a>
</g>
</g>
<!-- Node25 -->
<g id="Node000025" class="node">
<title>Node25</title>
<g id="a_Node000025"><a xlink:title=" ">
<polygon fill="#e0e0e0" stroke="#999999" points="830.5,-85 725.5,-85 725.5,-66 830.5,-66 830.5,-85"/>
<text text-anchor="middle" x="778" y="-73" font-family="Helvetica,sans-Serif" font-size="10.00">vari/bits/typelist.h</text>
</a>
</g>
</g>
<!-- Node22&#45;&gt;Node25 -->
<g id="edge20_Node000022_Node000025" class="edge">
<title>Node22&#45;&gt;Node25</title>
<g id="a_edge20_Node000022_Node000025"><a xlink:title=" ">
<path fill="none" stroke="#63b8ff" d="M778,-126.37C778,-118.25 778,-105.81 778,-95.39"/>
<polygon fill="#63b8ff" stroke="#63b8ff" points="781.5,-95.17 778,-85.17 774.5,-95.17 781.5,-95.17"/>
</a>
</g>
</g>
</g>
</svg>
