<?xml version="1.0" encoding="UTF-8" standalone="no"?>
<!DOCTYPE svg PUBLIC "-//W3C//DTD SVG 1.1//EN"
 "http://www.w3.org/Graphics/SVG/1.1/DTD/svg11.dtd">
<!-- Generated by graphviz version 2.43.0 (0)
 -->
<!-- Title: src/plt/stm32h5/gpio.cpp Pages: 1 -->
<svg width="667pt" height="319pt"
 viewBox="0.00 0.00 666.64 319.00" xmlns="http://www.w3.org/2000/svg" xmlns:xlink="http://www.w3.org/1999/xlink">
<g id="graph0" class="graph" transform="scale(1 1) rotate(0) translate(4 315)">
<title>src/plt/stm32h5/gpio.cpp</title>
<polygon fill="white" stroke="transparent" points="-4,4 -4,-315 662.64,-315 662.64,4 -4,4"/>
<!-- Node1 -->
<g id="node1" class="node">
<title>Node1</title>
<g id="a_node1"><a xlink:title=" ">
<polygon fill="#bfbfbf" stroke="black" points="443.14,-291.5 443.14,-310.5 580.14,-310.5 580.14,-291.5 443.14,-291.5"/>
<text text-anchor="middle" x="511.64" y="-298.5" font-family="Helvetica,sans-Serif" font-size="10.00">src/plt/stm32h5/gpio.cpp</text>
</a>
</g>
</g>
<!-- Node2 -->
<g id="node2" class="node">
<title>Node2</title>
<g id="a_node2"><a xlink:href="leds_8hpp.html" target="_top" xlink:title=" ">
<polygon fill="white" stroke="black" points="201.14,-235.5 201.14,-254.5 278.14,-254.5 278.14,-235.5 201.14,-235.5"/>
<text text-anchor="middle" x="239.64" y="-242.5" font-family="Helvetica,sans-Serif" font-size="10.00">drv/leds.hpp</text>
</a>
</g>
</g>
<!-- Node1&#45;&gt;Node2 -->
<g id="edge1" class="edge">
<title>Node1&#45;&gt;Node2</title>
<path fill="none" stroke="midnightblue" d="M468.54,-291.44C419.53,-281.71 339.68,-265.86 288.42,-255.69"/>
<polygon fill="midnightblue" stroke="midnightblue" points="289.06,-252.24 278.57,-253.73 287.7,-259.11 289.06,-252.24"/>
</g>
<!-- Node23 -->
<g id="node10" class="node">
<title>Node23</title>
<g id="a_node10"><a xlink:title=" ">
<polygon fill="white" stroke="#bfbfbf" points="554.64,-112.5 554.64,-131.5 658.64,-131.5 658.64,-112.5 554.64,-112.5"/>
<text text-anchor="middle" x="606.64" y="-119.5" font-family="Helvetica,sans-Serif" font-size="10.00">emlabcpp/result.h</text>
</a>
</g>
</g>
<!-- Node1&#45;&gt;Node23 -->
<g id="edge16" class="edge">
<title>Node1&#45;&gt;Node23</title>
<path fill="none" stroke="midnightblue" d="M521.12,-291.34C538.22,-275.09 574.01,-238.13 590.64,-199 598.53,-180.43 602.67,-157.59 604.74,-141.83"/>
<polygon fill="midnightblue" stroke="midnightblue" points="608.23,-142.1 605.91,-131.76 601.28,-141.29 608.23,-142.1"/>
</g>
<!-- Node26 -->
<g id="node12" class="node">
<title>Node26</title>
<g id="a_node12"><a xlink:href="plt_2stm32h5_2setup_8hpp.html" target="_top" xlink:title=" ">
<polygon fill="white" stroke="black" points="479.14,-235.5 479.14,-254.5 544.14,-254.5 544.14,-235.5 479.14,-235.5"/>
<text text-anchor="middle" x="511.64" y="-242.5" font-family="Helvetica,sans-Serif" font-size="10.00">setup.hpp</text>
</a>
</g>
</g>
<!-- Node1&#45;&gt;Node26 -->
<g id="edge17" class="edge">
<title>Node1&#45;&gt;Node26</title>
<path fill="none" stroke="midnightblue" d="M511.64,-291.08C511.64,-284.01 511.64,-273.86 511.64,-264.99"/>
<polygon fill="midnightblue" stroke="midnightblue" points="515.14,-264.75 511.64,-254.75 508.14,-264.75 515.14,-264.75"/>
</g>
<!-- Node3 -->
<g id="node3" class="node">
<title>Node3</title>
<g id="a_node3"><a xlink:href="base_2base_8hpp.html" target="_top" xlink:title=" ">
<polygon fill="white" stroke="red" points="87.14,-56.5 87.14,-75.5 174.14,-75.5 174.14,-56.5 87.14,-56.5"/>
<text text-anchor="middle" x="130.64" y="-63.5" font-family="Helvetica,sans-Serif" font-size="10.00">base/base.hpp</text>
</a>
</g>
</g>
<!-- Node2&#45;&gt;Node3 -->
<g id="edge2" class="edge">
<title>Node2&#45;&gt;Node3</title>
<path fill="none" stroke="midnightblue" d="M201.05,-241.52C145.74,-237.06 48.18,-225.57 26.64,-199 -8.05,-156.22 64.99,-104.75 105.73,-80.67"/>
<polygon fill="midnightblue" stroke="midnightblue" points="107.68,-83.59 114.59,-75.56 104.18,-77.52 107.68,-83.59"/>
</g>
<!-- Node5 -->
<g id="node4" class="node">
<title>Node5</title>
<g id="a_node4"><a xlink:title=" ">
<polygon fill="white" stroke="#bfbfbf" points="105.64,-0.5 105.64,-19.5 155.64,-19.5 155.64,-0.5 105.64,-0.5"/>
<text text-anchor="middle" x="130.64" y="-7.5" font-family="Helvetica,sans-Serif" font-size="10.00">cstdint</text>
</a>
</g>
</g>
<!-- Node2&#45;&gt;Node5 -->
<g id="edge14" class="edge">
<title>Node2&#45;&gt;Node5</title>
<path fill="none" stroke="midnightblue" d="M201.13,-242.04C142.95,-238.19 36.92,-227.38 13.64,-199 -35.17,-139.51 63.87,-58.12 109.4,-25.44"/>
<polygon fill="midnightblue" stroke="midnightblue" points="111.57,-28.2 117.73,-19.58 107.54,-22.47 111.57,-28.2"/>
</g>
<!-- Node9 -->
<g id="node5" class="node">
<title>Node9</title>
<g id="a_node5"><a xlink:href="defs_8hpp.html" target="_top" xlink:title=" ">
<polygon fill="white" stroke="black" points="387.14,-174 387.14,-193 464.14,-193 464.14,-174 387.14,-174"/>
<text text-anchor="middle" x="425.64" y="-181" font-family="Helvetica,sans-Serif" font-size="10.00">drv/defs.hpp</text>
</a>
</g>
</g>
<!-- Node2&#45;&gt;Node9 -->
<g id="edge4" class="edge">
<title>Node2&#45;&gt;Node9</title>
<path fill="none" stroke="midnightblue" d="M266.29,-235.48C298.61,-225.14 353.24,-207.66 389.37,-196.1"/>
<polygon fill="midnightblue" stroke="midnightblue" points="390.58,-199.39 399.04,-193.01 388.45,-192.72 390.58,-199.39"/>
</g>
<!-- Node10 -->
<g id="node6" class="node">
<title>Node10</title>
<g id="a_node6"><a xlink:href="platform_8hpp.html" target="_top" xlink:title=" ">
<polygon fill="white" stroke="red" points="334.64,-112.5 334.64,-131.5 414.64,-131.5 414.64,-112.5 334.64,-112.5"/>
<text text-anchor="middle" x="374.64" y="-119.5" font-family="Helvetica,sans-Serif" font-size="10.00">platform.hpp</text>
</a>
</g>
</g>
<!-- Node2&#45;&gt;Node10 -->
<g id="edge13" class="edge">
<title>Node2&#45;&gt;Node10</title>
<path fill="none" stroke="midnightblue" d="M252.72,-235.27C265.41,-226.6 284.97,-212.67 300.64,-199 322.62,-179.83 345.73,-155.29 360.16,-139.36"/>
<polygon fill="midnightblue" stroke="midnightblue" points="362.79,-141.67 366.86,-131.89 357.58,-137 362.79,-141.67"/>
</g>
<!-- Node14 -->
<g id="node8" class="node">
<title>Node14</title>
<g id="a_node8"><a xlink:href="interfaces_8hpp.html" target="_top" xlink:title=" ">
<polygon fill="white" stroke="red" points="187.14,-174 187.14,-193 292.14,-193 292.14,-174 187.14,-174"/>
<text text-anchor="middle" x="239.64" y="-181" font-family="Helvetica,sans-Serif" font-size="10.00">drv/interfaces.hpp</text>
</a>
</g>
</g>
<!-- Node2&#45;&gt;Node14 -->
<g id="edge7" class="edge">
<title>Node2&#45;&gt;Node14</title>
<path fill="none" stroke="midnightblue" d="M239.64,-235.48C239.64,-227.08 239.64,-213.98 239.64,-203.16"/>
<polygon fill="midnightblue" stroke="midnightblue" points="243.14,-203.01 239.64,-193.01 236.14,-203.01 243.14,-203.01"/>
</g>
<!-- Node25 -->
<g id="node11" class="node">
<title>Node25</title>
<g id="a_node11"><a xlink:title=" ">
<polygon fill="white" stroke="#bfbfbf" points="36.14,-168.5 36.14,-198.5 169.14,-198.5 169.14,-168.5 36.14,-168.5"/>
<text text-anchor="start" x="44.14" y="-186.5" font-family="Helvetica,sans-Serif" font-size="10.00">emlabcpp/experimental</text>
<text text-anchor="middle" x="102.64" y="-175.5" font-family="Helvetica,sans-Serif" font-size="10.00">/function_view.h</text>
</a>
</g>
</g>
<!-- Node2&#45;&gt;Node25 -->
<g id="edge15" class="edge">
<title>Node2&#45;&gt;Node25</title>
<path fill="none" stroke="midnightblue" d="M220.01,-235.48C200.33,-226.93 169.42,-213.5 144.25,-202.57"/>
<polygon fill="midnightblue" stroke="midnightblue" points="145.5,-199.3 134.93,-198.52 142.71,-205.72 145.5,-199.3"/>
</g>
<!-- Node3&#45;&gt;Node5 -->
<g id="edge3" class="edge">
<title>Node3&#45;&gt;Node5</title>
<path fill="none" stroke="midnightblue" d="M130.64,-56.08C130.64,-49.01 130.64,-38.86 130.64,-29.99"/>
<polygon fill="midnightblue" stroke="midnightblue" points="134.14,-29.75 130.64,-19.75 127.14,-29.75 134.14,-29.75"/>
</g>
<!-- Node9&#45;&gt;Node10 -->
<g id="edge5" class="edge">
<title>Node9&#45;&gt;Node10</title>
<path fill="none" stroke="midnightblue" d="M418.33,-173.98C410.61,-164.96 398.23,-150.52 388.62,-139.31"/>
<polygon fill="midnightblue" stroke="midnightblue" points="391.1,-136.82 381.93,-131.51 385.78,-141.38 391.1,-136.82"/>
</g>
<!-- Node13 -->
<g id="node7" class="node">
<title>Node13</title>
<g id="a_node7"><a xlink:title=" ">
<polygon fill="white" stroke="#bfbfbf" points="448.64,-112.5 448.64,-131.5 504.64,-131.5 504.64,-112.5 448.64,-112.5"/>
<text text-anchor="middle" x="476.64" y="-119.5" font-family="Helvetica,sans-Serif" font-size="10.00">optional</text>
</a>
</g>
</g>
<!-- Node9&#45;&gt;Node13 -->
<g id="edge6" class="edge">
<title>Node9&#45;&gt;Node13</title>
<path fill="none" stroke="midnightblue" d="M432.95,-173.98C440.67,-164.96 453.05,-150.52 462.66,-139.31"/>
<polygon fill="midnightblue" stroke="midnightblue" points="465.5,-141.38 469.35,-131.51 460.18,-136.82 465.5,-141.38"/>
</g>
<!-- Node14&#45;&gt;Node3 -->
<g id="edge8" class="edge">
<title>Node14&#45;&gt;Node3</title>
<path fill="none" stroke="midnightblue" d="M213.09,-173.88C192.91,-166.02 165.92,-152.47 149.64,-132 139.01,-118.64 134.33,-99.53 132.27,-85.48"/>
<polygon fill="midnightblue" stroke="midnightblue" points="135.74,-85.04 131.11,-75.51 128.78,-85.85 135.74,-85.04"/>
</g>
<!-- Node14&#45;&gt;Node5 -->
<g id="edge11" class="edge">
<title>Node14&#45;&gt;Node5</title>
<path fill="none" stroke="midnightblue" d="M242.78,-173.8C247.21,-160.03 253.81,-132.63 244.64,-112 226.8,-71.84 184.07,-41.25 156.29,-24.74"/>
<polygon fill="midnightblue" stroke="midnightblue" points="157.91,-21.63 147.5,-19.68 154.42,-27.7 157.91,-21.63"/>
</g>
<!-- Node15 -->
<g id="node9" class="node">
<title>Node15</title>
<g id="a_node9"><a xlink:href="map_8hpp.html" target="_top" xlink:title=" ">
<polygon fill="white" stroke="red" points="159.14,-112.5 159.14,-131.5 236.14,-131.5 236.14,-112.5 159.14,-112.5"/>
<text text-anchor="middle" x="197.64" y="-119.5" font-family="Helvetica,sans-Serif" font-size="10.00">cfg/map.hpp</text>
</a>
</g>
</g>
<!-- Node14&#45;&gt;Node15 -->
<g id="edge9" class="edge">
<title>Node14&#45;&gt;Node15</title>
<path fill="none" stroke="midnightblue" d="M233.62,-173.98C227.39,-165.14 217.47,-151.09 209.62,-139.98"/>
<polygon fill="midnightblue" stroke="midnightblue" points="212.27,-137.66 203.65,-131.51 206.55,-141.7 212.27,-137.66"/>
</g>
<!-- Node14&#45;&gt;Node23 -->
<g id="edge12" class="edge">
<title>Node14&#45;&gt;Node23</title>
<path fill="none" stroke="midnightblue" d="M292.22,-173.98C358.81,-163.18 473.4,-144.6 544.32,-133.1"/>
<polygon fill="midnightblue" stroke="midnightblue" points="545.14,-136.52 554.45,-131.46 544.02,-129.61 545.14,-136.52"/>
</g>
<!-- Node15&#45;&gt;Node3 -->
<g id="edge10" class="edge">
<title>Node15&#45;&gt;Node3</title>
<path fill="none" stroke="midnightblue" d="M186.88,-112.32C176.87,-104.26 161.75,-92.08 149.71,-82.37"/>
<polygon fill="midnightblue" stroke="midnightblue" points="151.58,-79.38 141.6,-75.83 147.19,-84.83 151.58,-79.38"/>
</g>
<!-- Node26&#45;&gt;Node9 -->
<g id="edge19" class="edge">
<title>Node26&#45;&gt;Node9</title>
<path fill="none" stroke="midnightblue" d="M499.32,-235.48C485.52,-225.93 462.94,-210.31 446.41,-198.87"/>
<polygon fill="midnightblue" stroke="midnightblue" points="448.15,-195.82 437.94,-193.01 444.17,-201.58 448.15,-195.82"/>
</g>
<!-- Node26&#45;&gt;Node13 -->
<g id="edge22" class="edge">
<title>Node26&#45;&gt;Node13</title>
<path fill="none" stroke="midnightblue" d="M522.35,-235.3C531.58,-227.07 544.23,-213.79 549.64,-199 554.37,-186.06 556.36,-180.03 549.64,-168 541.48,-153.39 526.42,-142.94 512.09,-135.8"/>
<polygon fill="midnightblue" stroke="midnightblue" points="513.4,-132.56 502.85,-131.59 510.49,-138.92 513.4,-132.56"/>
</g>
<!-- Node26&#45;&gt;Node15 -->
<g id="edge18" class="edge">
<title>Node26&#45;&gt;Node15</title>
<path fill="none" stroke="midnightblue" d="M484.22,-235.46C456.99,-226.82 414.13,-212.81 377.64,-199 348.8,-188.09 270.11,-154.33 226.95,-135.69"/>
<polygon fill="midnightblue" stroke="midnightblue" points="228.11,-132.38 217.54,-131.63 225.34,-138.81 228.11,-132.38"/>
</g>
<!-- Node26&#45;&gt;Node23 -->
<g id="edge20" class="edge">
<title>Node26&#45;&gt;Node23</title>
<path fill="none" stroke="midnightblue" d="M525.15,-235.27C537.16,-227.01 554.62,-213.72 566.64,-199 581.18,-181.19 592.72,-157.26 599.6,-141.04"/>
<polygon fill="midnightblue" stroke="midnightblue" points="602.89,-142.22 603.43,-131.64 596.41,-139.58 602.89,-142.22"/>
</g>
<!-- Node27 -->
<g id="node13" class="node">
<title>Node27</title>
<g id="a_node13"><a xlink:title=" ">
<polygon fill="white" stroke="#bfbfbf" points="482.64,-174 482.64,-193 540.64,-193 540.64,-174 482.64,-174"/>
<text text-anchor="middle" x="511.64" y="-181" font-family="Helvetica,sans-Serif" font-size="10.00">memory</text>
</a>
</g>
</g>
<!-- Node26&#45;&gt;Node27 -->
<g id="edge21" class="edge">
<title>Node26&#45;&gt;Node27</title>
<path fill="none" stroke="midnightblue" d="M511.64,-235.48C511.64,-227.08 511.64,-213.98 511.64,-203.16"/>
<polygon fill="midnightblue" stroke="midnightblue" points="515.14,-203.01 511.64,-193.01 508.14,-203.01 515.14,-203.01"/>
</g>
</g>
</svg>
