<?xml version="1.0" encoding="UTF-8" standalone="no"?>
<!DOCTYPE svg PUBLIC "-//W3C//DTD SVG 1.1//EN"
 "http://www.w3.org/Graphics/SVG/1.1/DTD/svg11.dtd">
<!-- Generated by graphviz version 2.43.0 (0)
 -->
<!-- Title: src/plt/stm32h5/gpio.cpp Pages: 1 -->
<svg width="696pt" height="313pt"
 viewBox="0.00 0.00 696.38 313.00" xmlns="http://www.w3.org/2000/svg" xmlns:xlink="http://www.w3.org/1999/xlink">
<g id="graph0" class="graph" transform="scale(1 1) rotate(0) translate(4 309)">
<title>src/plt/stm32h5/gpio.cpp</title>
<!-- Node1 -->
<g id="Node000001" class="node">
<title>Node1</title>
<g id="a_Node000001"><a xlink:title=" ">
<polygon fill="#999999" stroke="#666666" points="630,-305 493,-305 493,-286 630,-286 630,-305"/>
<text text-anchor="middle" x="561.5" y="-293" font-family="Helvetica,sans-Serif" font-size="10.00">src/plt/stm32h5/gpio.cpp</text>
</a>
</g>
</g>
<!-- Node2 -->
<g id="Node000002" class="node">
<title>Node2</title>
<g id="a_Node000002"><a xlink:href="leds_8hpp.html" target="_top" xlink:title=" ">
<polygon fill="white" stroke="#666666" points="372,-250 277,-250 277,-231 372,-231 372,-250"/>
<text text-anchor="middle" x="324.5" y="-238" font-family="Helvetica,sans-Serif" font-size="10.00">../../drv/leds.hpp</text>
</a>
</g>
</g>
<!-- Node1&#45;&gt;Node2 -->
<g id="edge1_Node000001_Node000002" class="edge">
<title>Node1&#45;&gt;Node2</title>
<g id="a_edge1_Node000001_Node000002"><a xlink:title=" ">
<path fill="none" stroke="#63b8ff" d="M523.42,-285.98C482.51,-276.84 417.39,-262.27 372.88,-252.32"/>
<polygon fill="#63b8ff" stroke="#63b8ff" points="373.4,-248.85 362.88,-250.08 371.87,-255.68 373.4,-248.85"/>
</a>
</g>
</g>
<!-- Node19 -->
<g id="Node000019" class="node">
<title>Node19</title>
<g id="a_Node000019"><a xlink:title=" ">
<polygon fill="#e0e0e0" stroke="#999999" points="649.5,-74 545.5,-74 545.5,-55 649.5,-55 649.5,-74"/>
<text text-anchor="middle" x="597.5" y="-62" font-family="Helvetica,sans-Serif" font-size="10.00">emlabcpp/result.h</text>
</a>
</g>
</g>
<!-- Node1&#45;&gt;Node19 -->
<g id="edge24_Node000001_Node000019" class="edge">
<title>Node1&#45;&gt;Node19</title>
<g id="a_edge24_Node000001_Node000019"><a xlink:title=" ">
<path fill="none" stroke="#63b8ff" d="M571.53,-285.73C596.72,-262.95 662.24,-198.83 685.5,-129 688.17,-120.99 689.92,-117.19 685.5,-110 676.05,-94.64 659.48,-84.39 643.25,-77.64"/>
<polygon fill="#63b8ff" stroke="#63b8ff" points="644.38,-74.32 633.79,-74.06 641.9,-80.87 644.38,-74.32"/>
</a>
</g>
</g>
<!-- Node23 -->
<g id="Node000023" class="node">
<title>Node23</title>
<g id="a_Node000023"><a xlink:href="plt_2stm32h5_2setup_8hpp.html" target="_top" xlink:title=" ">
<polygon fill="white" stroke="#666666" points="594,-189.5 529,-189.5 529,-170.5 594,-170.5 594,-189.5"/>
<text text-anchor="middle" x="561.5" y="-177.5" font-family="Helvetica,sans-Serif" font-size="10.00">setup.hpp</text>
</a>
</g>
</g>
<!-- Node1&#45;&gt;Node23 -->
<g id="edge18_Node000001_Node000023" class="edge">
<title>Node1&#45;&gt;Node23</title>
<g id="a_edge18_Node000001_Node000023"><a xlink:title=" ">
<path fill="none" stroke="#63b8ff" d="M561.5,-285.97C561.5,-267.73 561.5,-224.57 561.5,-199.64"/>
<polygon fill="#63b8ff" stroke="#63b8ff" points="565,-199.63 561.5,-189.63 558,-199.63 565,-199.63"/>
</a>
</g>
</g>
<!-- Node3 -->
<g id="Node000003" class="node">
<title>Node3</title>
<g id="a_Node000003"><a xlink:href="base_8hpp.html" target="_top" xlink:title=" ">
<polygon fill="#fff0f0" stroke="red" points="310.5,-74 240.5,-74 240.5,-55 310.5,-55 310.5,-74"/>
<text text-anchor="middle" x="275.5" y="-62" font-family="Helvetica,sans-Serif" font-size="10.00">../base.hpp</text>
</a>
</g>
</g>
<!-- Node2&#45;&gt;Node3 -->
<g id="edge2_Node000002_Node000003" class="edge">
<title>Node2&#45;&gt;Node3</title>
<g id="a_edge2_Node000002_Node000003"><a xlink:title=" ">
<path fill="none" stroke="#63b8ff" d="M307.04,-230.88C294.03,-223.38 277.22,-211.18 269.5,-195 252.2,-158.74 261.94,-110.09 269.43,-83.95"/>
<polygon fill="#63b8ff" stroke="#63b8ff" points="272.82,-84.82 272.41,-74.23 266.13,-82.76 272.82,-84.82"/>
</a>
</g>
</g>
<!-- Node5 -->
<g id="Node000005" class="node">
<title>Node5</title>
<g id="a_Node000005"><a xlink:title=" ">
<polygon fill="#e0e0e0" stroke="#999999" points="224.5,-19 174.5,-19 174.5,0 224.5,0 224.5,-19"/>
<text text-anchor="middle" x="199.5" y="-7" font-family="Helvetica,sans-Serif" font-size="10.00">cstdint</text>
</a>
</g>
</g>
<!-- Node2&#45;&gt;Node5 -->
<g id="edge16_Node000002_Node000005" class="edge">
<title>Node2&#45;&gt;Node5</title>
<g id="a_edge16_Node000002_Node000005"><a xlink:title=" ">
<path fill="none" stroke="#63b8ff" d="M304.87,-230.89C289.92,-223.4 269.87,-211.21 257.5,-195 218.16,-143.46 205.17,-64.7 201.16,-29.11"/>
<polygon fill="#63b8ff" stroke="#63b8ff" points="204.64,-28.75 200.15,-19.16 197.68,-29.46 204.64,-28.75"/>
</a>
</g>
</g>
<!-- Node10 -->
<g id="Node000010" class="node">
<title>Node10</title>
<g id="a_Node000010"><a xlink:href="platform_8hpp.html" target="_top" xlink:title=" ">
<polygon fill="#fff0f0" stroke="red" points="463.5,-74 359.5,-74 359.5,-55 463.5,-55 463.5,-74"/>
<text text-anchor="middle" x="411.5" y="-62" font-family="Helvetica,sans-Serif" font-size="10.00">../plt/platform.hpp</text>
</a>
</g>
</g>
<!-- Node2&#45;&gt;Node10 -->
<g id="edge5_Node000002_Node000010" class="edge">
<title>Node2&#45;&gt;Node10</title>
<g id="a_edge5_Node000002_Node000010"><a xlink:title=" ">
<path fill="none" stroke="#63b8ff" d="M339.9,-230.93C352.43,-223.15 369.61,-210.55 379.5,-195 401.69,-160.1 408.49,-110.88 410.58,-84.3"/>
<polygon fill="#63b8ff" stroke="#63b8ff" points="414.09,-84.3 411.23,-74.1 407.1,-83.86 414.09,-84.3"/>
</a>
</g>
</g>
<!-- Node13 -->
<g id="Node000013" class="node">
<title>Node13</title>
<g id="a_Node000013"><a xlink:href="defs_8hpp.html" target="_top" xlink:title=" ">
<polygon fill="white" stroke="#666666" points="505,-129 440,-129 440,-110 505,-110 505,-129"/>
<text text-anchor="middle" x="472.5" y="-117" font-family="Helvetica,sans-Serif" font-size="10.00">./defs.hpp</text>
</a>
</g>
</g>
<!-- Node2&#45;&gt;Node13 -->
<g id="edge6_Node000002_Node000013" class="edge">
<title>Node2&#45;&gt;Node13</title>
<g id="a_edge6_Node000002_Node000013"><a xlink:title=" ">
<path fill="none" stroke="#63b8ff" d="M356.33,-230.86C377.69,-223.85 405.47,-212.27 425.5,-195 443.72,-179.29 457.3,-154.75 465.06,-138.16"/>
<polygon fill="#63b8ff" stroke="#63b8ff" points="468.26,-139.58 469.13,-129.02 461.87,-136.73 468.26,-139.58"/>
</a>
</g>
</g>
<!-- Node14 -->
<g id="Node000014" class="node">
<title>Node14</title>
<g id="a_Node000014"><a xlink:href="interfaces_8hpp.html" target="_top" xlink:title=" ">
<polygon fill="#fff0f0" stroke="red" points="370.5,-189.5 278.5,-189.5 278.5,-170.5 370.5,-170.5 370.5,-189.5"/>
<text text-anchor="middle" x="324.5" y="-177.5" font-family="Helvetica,sans-Serif" font-size="10.00">./interfaces.hpp</text>
</a>
</g>
</g>
<!-- Node2&#45;&gt;Node14 -->
<g id="edge9_Node000002_Node000014" class="edge">
<title>Node2&#45;&gt;Node14</title>
<g id="a_edge9_Node000002_Node000014"><a xlink:title=" ">
<path fill="none" stroke="#63b8ff" d="M324.5,-230.87C324.5,-222.75 324.5,-210.31 324.5,-199.89"/>
<polygon fill="#63b8ff" stroke="#63b8ff" points="328,-199.67 324.5,-189.67 321,-199.67 328,-199.67"/>
</a>
</g>
</g>
<!-- Node22 -->
<g id="Node000022" class="node">
<title>Node22</title>
<g id="a_Node000022"><a xlink:title=" ">
<polygon fill="#e0e0e0" stroke="#999999" points="133,-195 0,-195 0,-165 133,-165 133,-195"/>
<text text-anchor="start" x="8" y="-183" font-family="Helvetica,sans-Serif" font-size="10.00">emlabcpp/experimental</text>
<text text-anchor="middle" x="66.5" y="-172" font-family="Helvetica,sans-Serif" font-size="10.00">/function_view.h</text>
</a>
</g>
</g>
<!-- Node2&#45;&gt;Node22 -->
<g id="edge17_Node000002_Node000022" class="edge">
<title>Node2&#45;&gt;Node22</title>
<g id="a_edge17_Node000002_Node000022"><a xlink:title=" ">
<path fill="none" stroke="#63b8ff" d="M286.98,-230.99C248.15,-222.19 186.53,-208.22 138.29,-197.28"/>
<polygon fill="#63b8ff" stroke="#63b8ff" points="139.05,-193.86 128.53,-195.06 137.51,-200.69 139.05,-193.86"/>
</a>
</g>
</g>
<!-- Node3&#45;&gt;Node5 -->
<g id="edge3_Node000003_Node000005" class="edge">
<title>Node3&#45;&gt;Node5</title>
<g id="a_edge3_Node000003_Node000005"><a xlink:title=" ">
<path fill="none" stroke="#63b8ff" d="M263.29,-54.98C251.72,-46.92 234.12,-34.65 220.34,-25.03"/>
<polygon fill="#63b8ff" stroke="#63b8ff" points="222.14,-22.02 211.93,-19.17 218.13,-27.76 222.14,-22.02"/>
</a>
</g>
</g>
<!-- Node9 -->
<g id="Node000009" class="node">
<title>Node9</title>
<g id="a_Node000009"><a xlink:title=" ">
<polygon fill="#e0e0e0" stroke="#999999" points="519.5,-19 463.5,-19 463.5,0 519.5,0 519.5,-19"/>
<text text-anchor="middle" x="491.5" y="-7" font-family="Helvetica,sans-Serif" font-size="10.00">optional</text>
</a>
</g>
</g>
<!-- Node3&#45;&gt;Node9 -->
<g id="edge4_Node000003_Node000009" class="edge">
<title>Node3&#45;&gt;Node9</title>
<g id="a_edge4_Node000003_Node000009"><a xlink:title=" ">
<path fill="none" stroke="#63b8ff" d="M310.2,-54.98C349.45,-45.35 413.15,-29.72 453.65,-19.79"/>
<polygon fill="#63b8ff" stroke="#63b8ff" points="454.54,-23.17 463.42,-17.39 452.87,-16.37 454.54,-23.17"/>
</a>
</g>
</g>
<!-- Node13&#45;&gt;Node9 -->
<g id="edge8_Node000013_Node000009" class="edge">
<title>Node13&#45;&gt;Node9</title>
<g id="a_edge8_Node000013_Node000009"><a xlink:title=" ">
<path fill="none" stroke="#63b8ff" d="M474.05,-109.66C477.13,-92.17 484.06,-52.8 488.2,-29.27"/>
<polygon fill="#63b8ff" stroke="#63b8ff" points="491.69,-29.61 489.98,-19.16 484.8,-28.4 491.69,-29.61"/>
</a>
</g>
</g>
<!-- Node13&#45;&gt;Node10 -->
<g id="edge7_Node000013_Node000010" class="edge">
<title>Node13&#45;&gt;Node10</title>
<g id="a_edge7_Node000013_Node000010"><a xlink:title=" ">
<path fill="none" stroke="#63b8ff" d="M462.7,-109.98C453.68,-102.15 440.09,-90.34 429.18,-80.86"/>
<polygon fill="#63b8ff" stroke="#63b8ff" points="431.32,-78.09 421.48,-74.17 426.73,-83.37 431.32,-78.09"/>
</a>
</g>
</g>
<!-- Node14&#45;&gt;Node3 -->
<g id="edge10_Node000014_Node000003" class="edge">
<title>Node14&#45;&gt;Node3</title>
<g id="a_edge10_Node000014_Node000003"><a xlink:title=" ">
<path fill="none" stroke="#63b8ff" d="M318.26,-170.15C311.63,-160.44 301.2,-144.19 294.5,-129 288.1,-114.51 283.09,-97.24 279.83,-84.37"/>
<polygon fill="#63b8ff" stroke="#63b8ff" points="283.16,-83.27 277.41,-74.37 276.36,-84.92 283.16,-83.27"/>
</a>
</g>
</g>
<!-- Node14&#45;&gt;Node5 -->
<g id="edge15_Node000014_Node000005" class="edge">
<title>Node14&#45;&gt;Node5</title>
<g id="a_edge15_Node000014_Node000005"><a xlink:title=" ">
<path fill="none" stroke="#63b8ff" d="M315.44,-170.39C297.75,-153.24 258.01,-113.1 231.5,-74 221.66,-59.49 212.89,-41.53 207.03,-28.42"/>
<polygon fill="#63b8ff" stroke="#63b8ff" points="210.18,-26.89 202.99,-19.1 203.76,-29.67 210.18,-26.89"/>
</a>
</g>
</g>
<!-- Node15 -->
<g id="Node000015" class="node">
<title>Node15</title>
<g id="a_Node000015"><a xlink:href="cfg_2def_8hpp.html" target="_top" xlink:title=" ">
<polygon fill="#fff0f0" stroke="red" points="383.5,-129 303.5,-129 303.5,-110 383.5,-110 383.5,-129"/>
<text text-anchor="middle" x="343.5" y="-117" font-family="Helvetica,sans-Serif" font-size="10.00">../cfg/def.hpp</text>
</a>
</g>
</g>
<!-- Node14&#45;&gt;Node15 -->
<g id="edge11_Node000014_Node000015" class="edge">
<title>Node14&#45;&gt;Node15</title>
<g id="a_edge11_Node000014_Node000015"><a xlink:title=" ">
<path fill="none" stroke="#63b8ff" d="M327.3,-170.37C330,-162.07 334.15,-149.28 337.58,-138.72"/>
<polygon fill="#63b8ff" stroke="#63b8ff" points="340.92,-139.76 340.68,-129.17 334.27,-137.6 340.92,-139.76"/>
</a>
</g>
</g>
<!-- Node18 -->
<g id="Node000018" class="node">
<title>Node18</title>
<g id="a_Node000018"><a xlink:href="status_8hpp.html" target="_top" xlink:title=" ">
<polygon fill="#fff0f0" stroke="red" points="600,-129 523,-129 523,-110 600,-110 600,-129"/>
<text text-anchor="middle" x="561.5" y="-117" font-family="Helvetica,sans-Serif" font-size="10.00">../status.hpp</text>
</a>
</g>
</g>
<!-- Node14&#45;&gt;Node18 -->
<g id="edge13_Node000014_Node000018" class="edge">
<title>Node14&#45;&gt;Node18</title>
<g id="a_edge13_Node000014_Node000018"><a xlink:title=" ">
<path fill="none" stroke="#63b8ff" d="M358.96,-170.49C400.74,-160.18 471.22,-142.78 517.04,-131.47"/>
<polygon fill="#63b8ff" stroke="#63b8ff" points="518.13,-134.81 527,-129.02 516.45,-128.02 518.13,-134.81"/>
</a>
</g>
</g>
<!-- Node15&#45;&gt;Node3 -->
<g id="edge12_Node000015_Node000003" class="edge">
<title>Node15&#45;&gt;Node3</title>
<g id="a_edge12_Node000015_Node000003"><a xlink:title=" ">
<path fill="none" stroke="#63b8ff" d="M332.57,-109.98C322.42,-102.07 307.08,-90.11 294.85,-80.58"/>
<polygon fill="#63b8ff" stroke="#63b8ff" points="296.66,-77.56 286.62,-74.17 292.36,-83.08 296.66,-77.56"/>
</a>
</g>
</g>
<!-- Node18&#45;&gt;Node19 -->
<g id="edge14_Node000018_Node000019" class="edge">
<title>Node18&#45;&gt;Node19</title>
<g id="a_edge14_Node000018_Node000019"><a xlink:title=" ">
<path fill="none" stroke="#63b8ff" d="M567.44,-109.75C572.48,-102.34 579.84,-91.5 586.01,-82.41"/>
<polygon fill="#63b8ff" stroke="#63b8ff" points="588.94,-84.33 591.67,-74.09 583.15,-80.39 588.94,-84.33"/>
</a>
</g>
</g>
<!-- Node23&#45;&gt;Node9 -->
<g id="edge23_Node000023_Node000009" class="edge">
<title>Node23&#45;&gt;Node9</title>
<g id="a_edge23_Node000023_Node000009"><a xlink:title=" ">
<path fill="none" stroke="#63b8ff" d="M594.21,-175.81C623.63,-171.01 665.24,-159.01 685.5,-129 690.22,-122 687.41,-118.23 685.5,-110 679.34,-83.47 679.55,-72.28 658.5,-55 621.77,-24.85 566.58,-14.97 529.82,-11.82"/>
<polygon fill="#63b8ff" stroke="#63b8ff" points="529.73,-8.31 519.51,-11.08 529.23,-15.29 529.73,-8.31"/>
</a>
</g>
</g>
<!-- Node23&#45;&gt;Node13 -->
<g id="edge20_Node000023_Node000013" class="edge">
<title>Node23&#45;&gt;Node13</title>
<g id="a_edge20_Node000023_Node000013"><a xlink:title=" ">
<path fill="none" stroke="#63b8ff" d="M548.37,-170.37C534.17,-161.04 511.3,-146.01 494.38,-134.88"/>
<polygon fill="#63b8ff" stroke="#63b8ff" points="495.97,-131.74 485.69,-129.17 492.12,-137.58 495.97,-131.74"/>
</a>
</g>
</g>
<!-- Node23&#45;&gt;Node15 -->
<g id="edge19_Node000023_Node000015" class="edge">
<title>Node23&#45;&gt;Node15</title>
<g id="a_edge19_Node000023_Node000015"><a xlink:title=" ">
<path fill="none" stroke="#63b8ff" d="M529.8,-170.49C491.54,-160.23 427.09,-142.93 384.92,-131.62"/>
<polygon fill="#63b8ff" stroke="#63b8ff" points="385.8,-128.23 375.24,-129.02 383.99,-134.99 385.8,-128.23"/>
</a>
</g>
</g>
<!-- Node23&#45;&gt;Node18 -->
<g id="edge21_Node000023_Node000018" class="edge">
<title>Node23&#45;&gt;Node18</title>
<g id="a_edge21_Node000023_Node000018"><a xlink:title=" ">
<path fill="none" stroke="#63b8ff" d="M561.5,-170.37C561.5,-162.25 561.5,-149.81 561.5,-139.39"/>
<polygon fill="#63b8ff" stroke="#63b8ff" points="565,-139.17 561.5,-129.17 558,-139.17 565,-139.17"/>
</a>
</g>
</g>
<!-- Node24 -->
<g id="Node000024" class="node">
<title>Node24</title>
<g id="a_Node000024"><a xlink:title=" ">
<polygon fill="#e0e0e0" stroke="#999999" points="676.5,-129 618.5,-129 618.5,-110 676.5,-110 676.5,-129"/>
<text text-anchor="middle" x="647.5" y="-117" font-family="Helvetica,sans-Serif" font-size="10.00">memory</text>
</a>
</g>
</g>
<!-- Node23&#45;&gt;Node24 -->
<g id="edge22_Node000023_Node000024" class="edge">
<title>Node23&#45;&gt;Node24</title>
<g id="a_edge22_Node000023_Node000024"><a xlink:title=" ">
<path fill="none" stroke="#63b8ff" d="M574.19,-170.37C587.91,-161.04 610,-146.01 626.35,-134.88"/>
<polygon fill="#63b8ff" stroke="#63b8ff" points="628.46,-137.69 634.76,-129.17 624.52,-131.9 628.46,-137.69"/>
</a>
</g>
</g>
</g>
</svg>
