<?xml version="1.0" encoding="UTF-8" standalone="no"?>
<!DOCTYPE svg PUBLIC "-//W3C//DTD SVG 1.1//EN"
 "http://www.w3.org/Graphics/SVG/1.1/DTD/svg11.dtd">
<!-- Generated by graphviz version 2.43.0 (0)
 -->
<!-- Title: src/plt/stm32h5/gpio.cpp Pages: 1 -->
<svg width="641pt" height="313pt"
 viewBox="0.00 0.00 640.75 313.00" xmlns="http://www.w3.org/2000/svg" xmlns:xlink="http://www.w3.org/1999/xlink">
<g id="graph0" class="graph" transform="scale(1 1) rotate(0) translate(4 309)">
<title>src/plt/stm32h5/gpio.cpp</title>
<!-- Node1 -->
<g id="Node000001" class="node">
<title>Node1</title>
<g id="a_Node000001"><a xlink:title=" ">
<polygon fill="#999999" stroke="#666666" points="554.25,-305 417.25,-305 417.25,-286 554.25,-286 554.25,-305"/>
<text text-anchor="middle" x="485.75" y="-293" font-family="Helvetica,sans-Serif" font-size="10.00">src/plt/stm32h5/gpio.cpp</text>
</a>
</g>
</g>
<!-- Node2 -->
<g id="Node000002" class="node">
<title>Node2</title>
<g id="a_Node000002"><a xlink:href="leds_8hpp.html" target="_top" xlink:title=" ">
<polygon fill="white" stroke="#666666" points="280.25,-250 185.25,-250 185.25,-231 280.25,-231 280.25,-250"/>
<text text-anchor="middle" x="232.75" y="-238" font-family="Helvetica,sans-Serif" font-size="10.00">../../drv/leds.hpp</text>
</a>
</g>
</g>
<!-- Node1&#45;&gt;Node2 -->
<g id="edge1_Node000001_Node000002" class="edge">
<title>Node1&#45;&gt;Node2</title>
<g id="a_edge1_Node000001_Node000002"><a xlink:title=" ">
<path fill="none" stroke="#63b8ff" d="M445.1,-285.98C401.24,-276.8 331.32,-262.15 283.8,-252.19"/>
<polygon fill="#63b8ff" stroke="#63b8ff" points="284.22,-248.71 273.72,-250.08 282.79,-255.56 284.22,-248.71"/>
</a>
</g>
</g>
<!-- Node23 -->
<g id="Node000023" class="node">
<title>Node23</title>
<g id="a_Node000023"><a xlink:title=" ">
<polygon fill="#e0e0e0" stroke="#999999" points="632.75,-129 528.75,-129 528.75,-110 632.75,-110 632.75,-129"/>
<text text-anchor="middle" x="580.75" y="-117" font-family="Helvetica,sans-Serif" font-size="10.00">emlabcpp/result.h</text>
</a>
</g>
</g>
<!-- Node1&#45;&gt;Node23 -->
<g id="edge22_Node000001_Node000023" class="edge">
<title>Node1&#45;&gt;Node23</title>
<g id="a_edge22_Node000001_Node000023"><a xlink:title=" ">
<path fill="none" stroke="#63b8ff" d="M495.21,-285.99C512.28,-270.02 548.03,-233.67 564.75,-195 572.53,-177 576.66,-154.87 578.77,-139.43"/>
<polygon fill="#63b8ff" stroke="#63b8ff" points="582.29,-139.44 580,-129.1 575.34,-138.61 582.29,-139.44"/>
</a>
</g>
</g>
<!-- Node26 -->
<g id="Node000026" class="node">
<title>Node26</title>
<g id="a_Node000026"><a xlink:href="plt_2stm32h5_2setup_8hpp.html" target="_top" xlink:title=" ">
<polygon fill="white" stroke="#666666" points="518.25,-250 453.25,-250 453.25,-231 518.25,-231 518.25,-250"/>
<text text-anchor="middle" x="485.75" y="-238" font-family="Helvetica,sans-Serif" font-size="10.00">setup.hpp</text>
</a>
</g>
</g>
<!-- Node1&#45;&gt;Node26 -->
<g id="edge16_Node000001_Node000026" class="edge">
<title>Node1&#45;&gt;Node26</title>
<g id="a_edge16_Node000001_Node000026"><a xlink:title=" ">
<path fill="none" stroke="#63b8ff" d="M485.75,-285.75C485.75,-278.8 485.75,-268.85 485.75,-260.13"/>
<polygon fill="#63b8ff" stroke="#63b8ff" points="489.25,-260.09 485.75,-250.09 482.25,-260.09 489.25,-260.09"/>
</a>
</g>
</g>
<!-- Node3 -->
<g id="Node000003" class="node">
<title>Node3</title>
<g id="a_Node000003"><a xlink:href="base_8hpp.html" target="_top" xlink:title=" ">
<polygon fill="#fff0f0" stroke="red" points="141.75,-74 71.75,-74 71.75,-55 141.75,-55 141.75,-74"/>
<text text-anchor="middle" x="106.75" y="-62" font-family="Helvetica,sans-Serif" font-size="10.00">../base.hpp</text>
</a>
</g>
</g>
<!-- Node2&#45;&gt;Node3 -->
<g id="edge2_Node000002_Node000003" class="edge">
<title>Node2&#45;&gt;Node3</title>
<g id="a_edge2_Node000002_Node000003"><a xlink:title=" ">
<path fill="none" stroke="#63b8ff" d="M185.01,-236.04C130.22,-230.95 45.38,-219.3 25.75,-195 -5.46,-156.37 52.33,-104.96 85.62,-80.14"/>
<polygon fill="#63b8ff" stroke="#63b8ff" points="87.83,-82.86 93.87,-74.15 83.72,-77.19 87.83,-82.86"/>
</a>
</g>
</g>
<!-- Node5 -->
<g id="Node000005" class="node">
<title>Node5</title>
<g id="a_Node000005"><a xlink:title=" ">
<polygon fill="#e0e0e0" stroke="#999999" points="131.75,-19 81.75,-19 81.75,0 131.75,0 131.75,-19"/>
<text text-anchor="middle" x="106.75" y="-7" font-family="Helvetica,sans-Serif" font-size="10.00">cstdint</text>
</a>
</g>
</g>
<!-- Node2&#45;&gt;Node5 -->
<g id="edge14_Node000002_Node000005" class="edge">
<title>Node2&#45;&gt;Node5</title>
<g id="a_edge14_Node000002_Node000005"><a xlink:title=" ">
<path fill="none" stroke="#63b8ff" d="M185.06,-236.68C127.26,-232.14 34.95,-220.95 13.75,-195 -31.2,-140 49.03,-59.69 87.68,-26.14"/>
<polygon fill="#63b8ff" stroke="#63b8ff" points="90.31,-28.5 95.67,-19.36 85.78,-23.17 90.31,-28.5"/>
</a>
</g>
</g>
<!-- Node9 -->
<g id="Node000009" class="node">
<title>Node9</title>
<g id="a_Node000009"><a xlink:href="platform_8hpp.html" target="_top" xlink:title=" ">
<polygon fill="#fff0f0" stroke="red" points="406.75,-129 302.75,-129 302.75,-110 406.75,-110 406.75,-129"/>
<text text-anchor="middle" x="354.75" y="-117" font-family="Helvetica,sans-Serif" font-size="10.00">../plt/platform.hpp</text>
</a>
</g>
</g>
<!-- Node2&#45;&gt;Node9 -->
<g id="edge4_Node000002_Node000009" class="edge">
<title>Node2&#45;&gt;Node9</title>
<g id="a_edge4_Node000002_Node000009"><a xlink:title=" ">
<path fill="none" stroke="#63b8ff" d="M244.57,-230.8C256.02,-222.18 273.67,-208.36 287.75,-195 307.55,-176.21 328.25,-152.46 341.31,-136.89"/>
<polygon fill="#63b8ff" stroke="#63b8ff" points="344.03,-139.1 347.72,-129.17 338.64,-134.63 344.03,-139.1"/>
</a>
</g>
</g>
<!-- Node12 -->
<g id="Node000012" class="node">
<title>Node12</title>
<g id="a_Node000012"><a xlink:href="defs_8hpp.html" target="_top" xlink:title=" ">
<polygon fill="white" stroke="#666666" points="438.25,-189.5 373.25,-189.5 373.25,-170.5 438.25,-170.5 438.25,-189.5"/>
<text text-anchor="middle" x="405.75" y="-177.5" font-family="Helvetica,sans-Serif" font-size="10.00">./defs.hpp</text>
</a>
</g>
</g>
<!-- Node2&#45;&gt;Node12 -->
<g id="edge5_Node000002_Node000012" class="edge">
<title>Node2&#45;&gt;Node12</title>
<g id="a_edge5_Node000002_Node000012"><a xlink:title=" ">
<path fill="none" stroke="#63b8ff" d="M257.9,-230.99C287.63,-220.94 337.26,-204.16 370.73,-192.84"/>
<polygon fill="#63b8ff" stroke="#63b8ff" points="372.21,-196.04 380.56,-189.52 369.97,-189.4 372.21,-196.04"/>
</a>
</g>
</g>
<!-- Node14 -->
<g id="Node000014" class="node">
<title>Node14</title>
<g id="a_Node000014"><a xlink:href="interfaces_8hpp.html" target="_top" xlink:title=" ">
<polygon fill="#fff0f0" stroke="red" points="278.75,-189.5 186.75,-189.5 186.75,-170.5 278.75,-170.5 278.75,-189.5"/>
<text text-anchor="middle" x="232.75" y="-177.5" font-family="Helvetica,sans-Serif" font-size="10.00">./interfaces.hpp</text>
</a>
</g>
</g>
<!-- Node2&#45;&gt;Node14 -->
<g id="edge8_Node000002_Node000014" class="edge">
<title>Node2&#45;&gt;Node14</title>
<g id="a_edge8_Node000002_Node000014"><a xlink:title=" ">
<path fill="none" stroke="#63b8ff" d="M232.75,-230.87C232.75,-222.75 232.75,-210.31 232.75,-199.89"/>
<polygon fill="#63b8ff" stroke="#63b8ff" points="236.25,-199.67 232.75,-189.67 229.25,-199.67 236.25,-199.67"/>
</a>
</g>
</g>
<!-- Node25 -->
<g id="Node000025" class="node">
<title>Node25</title>
<g id="a_Node000025"><a xlink:title=" ">
<polygon fill="#e0e0e0" stroke="#999999" points="168.25,-195 35.25,-195 35.25,-165 168.25,-165 168.25,-195"/>
<text text-anchor="start" x="43.25" y="-183" font-family="Helvetica,sans-Serif" font-size="10.00">emlabcpp/experimental</text>
<text text-anchor="middle" x="101.75" y="-172" font-family="Helvetica,sans-Serif" font-size="10.00">/function_view.h</text>
</a>
</g>
</g>
<!-- Node2&#45;&gt;Node25 -->
<g id="edge15_Node000002_Node000025" class="edge">
<title>Node2&#45;&gt;Node25</title>
<g id="a_edge15_Node000002_Node000025"><a xlink:title=" ">
<path fill="none" stroke="#63b8ff" d="M213.7,-230.99C195.09,-222.68 166.18,-209.78 142.4,-199.16"/>
<polygon fill="#63b8ff" stroke="#63b8ff" points="143.8,-195.95 133.24,-195.06 140.95,-202.34 143.8,-195.95"/>
</a>
</g>
</g>
<!-- Node3&#45;&gt;Node5 -->
<g id="edge3_Node000003_Node000005" class="edge">
<title>Node3&#45;&gt;Node5</title>
<g id="a_edge3_Node000003_Node000005"><a xlink:title=" ">
<path fill="none" stroke="#63b8ff" d="M106.75,-54.75C106.75,-47.8 106.75,-37.85 106.75,-29.13"/>
<polygon fill="#63b8ff" stroke="#63b8ff" points="110.25,-29.09 106.75,-19.09 103.25,-29.09 110.25,-29.09"/>
</a>
</g>
</g>
<!-- Node12&#45;&gt;Node9 -->
<g id="edge6_Node000012_Node000009" class="edge">
<title>Node12&#45;&gt;Node9</title>
<g id="a_edge6_Node000012_Node000009"><a xlink:title=" ">
<path fill="none" stroke="#63b8ff" d="M398.22,-170.37C390.54,-161.55 378.42,-147.66 368.93,-136.77"/>
<polygon fill="#63b8ff" stroke="#63b8ff" points="371.51,-134.41 362.3,-129.17 366.24,-139.01 371.51,-134.41"/>
</a>
</g>
</g>
<!-- Node13 -->
<g id="Node000013" class="node">
<title>Node13</title>
<g id="a_Node000013"><a xlink:title=" ">
<polygon fill="#e0e0e0" stroke="#999999" points="490.75,-129 434.75,-129 434.75,-110 490.75,-110 490.75,-129"/>
<text text-anchor="middle" x="462.75" y="-117" font-family="Helvetica,sans-Serif" font-size="10.00">optional</text>
</a>
</g>
</g>
<!-- Node12&#45;&gt;Node13 -->
<g id="edge7_Node000012_Node000013" class="edge">
<title>Node12&#45;&gt;Node13</title>
<g id="a_edge7_Node000012_Node000013"><a xlink:title=" ">
<path fill="none" stroke="#63b8ff" d="M414.16,-170.37C422.83,-161.47 436.55,-147.39 447.2,-136.45"/>
<polygon fill="#63b8ff" stroke="#63b8ff" points="449.83,-138.77 454.3,-129.17 444.82,-133.89 449.83,-138.77"/>
</a>
</g>
</g>
<!-- Node14&#45;&gt;Node3 -->
<g id="edge9_Node000014_Node000003" class="edge">
<title>Node14&#45;&gt;Node3</title>
<g id="a_edge9_Node000014_Node000003"><a xlink:title=" ">
<path fill="none" stroke="#63b8ff" d="M197.04,-170.5C173.67,-163.18 144.17,-150.34 125.75,-129 115.06,-116.62 110.38,-98.4 108.33,-84.65"/>
<polygon fill="#63b8ff" stroke="#63b8ff" points="111.77,-83.91 107.16,-74.38 104.82,-84.71 111.77,-83.91"/>
</a>
</g>
</g>
<!-- Node14&#45;&gt;Node5 -->
<g id="edge12_Node000014_Node000005" class="edge">
<title>Node14&#45;&gt;Node5</title>
<g id="a_edge12_Node000014_Node000005"><a xlink:title=" ">
<path fill="none" stroke="#63b8ff" d="M234.53,-170.37C236.89,-156.73 239.68,-129.7 229.75,-110 209.33,-69.5 164.07,-39.85 134.52,-23.9"/>
<polygon fill="#63b8ff" stroke="#63b8ff" points="136.01,-20.73 125.53,-19.21 132.77,-26.94 136.01,-20.73"/>
</a>
</g>
</g>
<!-- Node15 -->
<g id="Node000015" class="node">
<title>Node15</title>
<g id="a_Node000015"><a xlink:href="map_8hpp.html" target="_top" xlink:title=" ">
<polygon fill="#fff0f0" stroke="red" points="220.75,-129 134.75,-129 134.75,-110 220.75,-110 220.75,-129"/>
<text text-anchor="middle" x="177.75" y="-117" font-family="Helvetica,sans-Serif" font-size="10.00">../cfg/map.hpp</text>
</a>
</g>
</g>
<!-- Node14&#45;&gt;Node15 -->
<g id="edge10_Node000014_Node000015" class="edge">
<title>Node14&#45;&gt;Node15</title>
<g id="a_edge10_Node000014_Node000015"><a xlink:title=" ">
<path fill="none" stroke="#63b8ff" d="M224.63,-170.37C216.35,-161.55 203.28,-147.66 193.05,-136.77"/>
<polygon fill="#63b8ff" stroke="#63b8ff" points="195.3,-134.06 185.9,-129.17 190.2,-138.85 195.3,-134.06"/>
</a>
</g>
</g>
<!-- Node14&#45;&gt;Node23 -->
<g id="edge13_Node000014_Node000023" class="edge">
<title>Node14&#45;&gt;Node23</title>
<g id="a_edge13_Node000014_Node000023"><a xlink:title=" ">
<path fill="none" stroke="#63b8ff" d="M278.96,-171.23C340.95,-160.81 451.17,-142.28 519.87,-130.73"/>
<polygon fill="#63b8ff" stroke="#63b8ff" points="520.83,-134.12 530.11,-129.01 519.67,-127.22 520.83,-134.12"/>
</a>
</g>
</g>
<!-- Node15&#45;&gt;Node3 -->
<g id="edge11_Node000015_Node000003" class="edge">
<title>Node15&#45;&gt;Node3</title>
<g id="a_edge11_Node000015_Node000003"><a xlink:title=" ">
<path fill="none" stroke="#63b8ff" d="M166.34,-109.98C155.64,-102 139.41,-89.88 126.59,-80.31"/>
<polygon fill="#63b8ff" stroke="#63b8ff" points="128.47,-77.35 118.36,-74.17 124.28,-82.96 128.47,-77.35"/>
</a>
</g>
</g>
<!-- Node26&#45;&gt;Node12 -->
<g id="edge18_Node000026_Node000012" class="edge">
<title>Node26&#45;&gt;Node12</title>
<g id="a_edge18_Node000026_Node000012"><a xlink:title=" ">
<path fill="none" stroke="#63b8ff" d="M473.94,-230.87C461.3,-221.62 441.01,-206.78 425.84,-195.69"/>
<polygon fill="#63b8ff" stroke="#63b8ff" points="427.74,-192.74 417.6,-189.67 423.61,-198.4 427.74,-192.74"/>
</a>
</g>
</g>
<!-- Node26&#45;&gt;Node13 -->
<g id="edge21_Node000026_Node000013" class="edge">
<title>Node26&#45;&gt;Node13</title>
<g id="a_edge21_Node000026_Node000013"><a xlink:title=" ">
<path fill="none" stroke="#63b8ff" d="M496.46,-230.93C505.68,-222.8 518.33,-209.68 523.75,-195 528.36,-182.49 529.79,-176.89 523.75,-165 516.98,-151.68 504.15,-141.41 492,-134.1"/>
<polygon fill="#63b8ff" stroke="#63b8ff" points="493.39,-130.87 482.95,-129.09 490,-136.99 493.39,-130.87"/>
</a>
</g>
</g>
<!-- Node26&#45;&gt;Node15 -->
<g id="edge17_Node000026_Node000015" class="edge">
<title>Node26&#45;&gt;Node15</title>
<g id="a_edge17_Node000026_Node000015"><a xlink:title=" ">
<path fill="none" stroke="#63b8ff" d="M461.36,-230.86C436.67,-222.05 397.44,-207.89 363.75,-195 334.3,-183.73 253.28,-151.06 208.5,-132.95"/>
<polygon fill="#63b8ff" stroke="#63b8ff" points="209.58,-129.62 199,-129.11 206.96,-136.1 209.58,-129.62"/>
</a>
</g>
</g>
<!-- Node26&#45;&gt;Node23 -->
<g id="edge19_Node000026_Node000023" class="edge">
<title>Node26&#45;&gt;Node23</title>
<g id="a_edge19_Node000026_Node000023"><a xlink:title=" ">
<path fill="none" stroke="#63b8ff" d="M499.24,-230.87C511.23,-222.71 528.68,-209.57 540.75,-195 555.03,-177.75 566.5,-154.6 573.43,-138.71"/>
<polygon fill="#63b8ff" stroke="#63b8ff" points="576.68,-140.02 577.32,-129.45 570.22,-137.31 576.68,-140.02"/>
</a>
</g>
</g>
<!-- Node27 -->
<g id="Node000027" class="node">
<title>Node27</title>
<g id="a_Node000027"><a xlink:title=" ">
<polygon fill="#e0e0e0" stroke="#999999" points="514.75,-189.5 456.75,-189.5 456.75,-170.5 514.75,-170.5 514.75,-189.5"/>
<text text-anchor="middle" x="485.75" y="-177.5" font-family="Helvetica,sans-Serif" font-size="10.00">memory</text>
</a>
</g>
</g>
<!-- Node26&#45;&gt;Node27 -->
<g id="edge20_Node000026_Node000027" class="edge">
<title>Node26&#45;&gt;Node27</title>
<g id="a_edge20_Node000026_Node000027"><a xlink:title=" ">
<path fill="none" stroke="#63b8ff" d="M485.75,-230.87C485.75,-222.75 485.75,-210.31 485.75,-199.89"/>
<polygon fill="#63b8ff" stroke="#63b8ff" points="489.25,-199.67 485.75,-189.67 482.25,-199.67 489.25,-199.67"/>
</a>
</g>
</g>
</g>
</svg>
