<?xml version="1.0" encoding="UTF-8" standalone="no"?>
<!DOCTYPE svg PUBLIC "-//W3C//DTD SVG 1.1//EN"
 "http://www.w3.org/Graphics/SVG/1.1/DTD/svg11.dtd">
<!-- Generated by graphviz version 2.43.0 (0)
 -->
<!-- Title: src/ftester/handle_eptr.cpp Pages: 1 -->
<svg width="260pt" height="159pt"
 viewBox="0.00 0.00 260.00 159.00" xmlns="http://www.w3.org/2000/svg" xmlns:xlink="http://www.w3.org/1999/xlink">
<g id="graph0" class="graph" transform="scale(1 1) rotate(0) translate(4 155)">
<title>src/ftester/handle_eptr.cpp</title>
<!-- Node1 -->
<g id="Node000001" class="node">
<title>Node1</title>
<g id="a_Node000001"><a xlink:title=" ">
<polygon fill="#999999" stroke="#666666" points="168,-151 67,-151 67,-121 168,-121 168,-151"/>
<text text-anchor="start" x="75" y="-139" font-family="Helvetica,sans-Serif" font-size="10.00">src/ftester/handle</text>
<text text-anchor="middle" x="117.5" y="-128" font-family="Helvetica,sans-Serif" font-size="10.00">_eptr.cpp</text>
</a>
</g>
</g>
<!-- Node2 -->
<g id="Node000002" class="node">
<title>Node2</title>
<g id="a_Node000002"><a xlink:href="handle__eptr_8hpp.html" target="_top" xlink:title=" ">
<polygon fill="white" stroke="#666666" points="101,-79.5 0,-79.5 0,-60.5 101,-60.5 101,-79.5"/>
<text text-anchor="middle" x="50.5" y="-67.5" font-family="Helvetica,sans-Serif" font-size="10.00">./handle_eptr.hpp</text>
</a>
</g>
</g>
<!-- Node1&#45;&gt;Node2 -->
<g id="edge1_Node000001_Node000002" class="edge">
<title>Node1&#45;&gt;Node2</title>
<g id="a_edge1_Node000001_Node000002"><a xlink:title=" ">
<path fill="none" stroke="#63b8ff" d="M102.63,-120.8C92.08,-110.72 77.92,-97.19 67.02,-86.78"/>
<polygon fill="#63b8ff" stroke="#63b8ff" points="69.41,-84.22 59.76,-79.84 64.57,-89.28 69.41,-84.22"/>
</a>
</g>
</g>
<!-- Node4 -->
<g id="Node000004" class="node">
<title>Node4</title>
<g id="a_Node000004"><a xlink:title=" ">
<polygon fill="#e0e0e0" stroke="#999999" points="252,-85 119,-85 119,-55 252,-55 252,-85"/>
<text text-anchor="start" x="127" y="-73" font-family="Helvetica,sans-Serif" font-size="10.00">emlabcpp/experimental</text>
<text text-anchor="middle" x="185.5" y="-62" font-family="Helvetica,sans-Serif" font-size="10.00">/logging.h</text>
</a>
</g>
</g>
<!-- Node1&#45;&gt;Node4 -->
<g id="edge3_Node000001_Node000004" class="edge">
<title>Node1&#45;&gt;Node4</title>
<g id="a_edge3_Node000001_Node000004"><a xlink:title=" ">
<path fill="none" stroke="#63b8ff" d="M132.59,-120.8C141.57,-112.34 153.13,-101.46 163.15,-92.03"/>
<polygon fill="#63b8ff" stroke="#63b8ff" points="165.57,-94.57 170.45,-85.16 160.77,-89.47 165.57,-94.57"/>
</a>
</g>
</g>
<!-- Node3 -->
<g id="Node000003" class="node">
<title>Node3</title>
<g id="a_Node000003"><a xlink:title=" ">
<polygon fill="#e0e0e0" stroke="#999999" points="83,-19 18,-19 18,0 83,0 83,-19"/>
<text text-anchor="middle" x="50.5" y="-7" font-family="Helvetica,sans-Serif" font-size="10.00">exception</text>
</a>
</g>
</g>
<!-- Node2&#45;&gt;Node3 -->
<g id="edge2_Node000002_Node000003" class="edge">
<title>Node2&#45;&gt;Node3</title>
<g id="a_edge2_Node000002_Node000003"><a xlink:title=" ">
<path fill="none" stroke="#63b8ff" d="M50.5,-60.37C50.5,-52.25 50.5,-39.81 50.5,-29.39"/>
<polygon fill="#63b8ff" stroke="#63b8ff" points="54,-29.17 50.5,-19.17 47,-29.17 54,-29.17"/>
</a>
</g>
</g>
</g>
</svg>
