<?xml version="1.0" encoding="UTF-8" standalone="no"?>
<!DOCTYPE svg PUBLIC "-//W3C//DTD SVG 1.1//EN"
 "http://www.w3.org/Graphics/SVG/1.1/DTD/svg11.dtd">
<!-- Generated by graphviz version 2.43.0 (0)
 -->
<!-- Title: src/cfg/handler.hpp Pages: 1 -->
<svg width="946pt" height="214pt"
 viewBox="0.00 0.00 945.50 214.00" xmlns="http://www.w3.org/2000/svg" xmlns:xlink="http://www.w3.org/1999/xlink">
<g id="graph0" class="graph" transform="scale(1 1) rotate(0) translate(4 210)">
<title>src/cfg/handler.hpp</title>
<!-- Node1 -->
<g id="Node000001" class="node">
<title>Node1</title>
<g id="a_Node000001"><a xlink:title=" ">
<polygon fill="#999999" stroke="#666666" points="548.5,-206 439.5,-206 439.5,-187 548.5,-187 548.5,-206"/>
<text text-anchor="middle" x="494" y="-194" font-family="Helvetica,sans-Serif" font-size="10.00">src/cfg/handler.hpp</text>
</a>
</g>
</g>
<!-- Node2 -->
<g id="Node000002" class="node">
<title>Node2</title>
<g id="a_Node000002"><a xlink:href="base_8hpp.html" target="_top" xlink:title=" ">
<polygon fill="white" stroke="#666666" points="371,-85 301,-85 301,-66 371,-66 371,-85"/>
<text text-anchor="middle" x="336" y="-73" font-family="Helvetica,sans-Serif" font-size="10.00">../base.hpp</text>
</a>
</g>
</g>
<!-- Node1&#45;&gt;Node2 -->
<g id="edge1_Node000001_Node000002" class="edge">
<title>Node1&#45;&gt;Node2</title>
<g id="a_edge1_Node000001_Node000002"><a xlink:title=" ">
<path fill="none" stroke="#63b8ff" d="M463.68,-186.85C442.14,-179.68 413.37,-167.89 392,-151 372.03,-135.21 355.45,-110.69 345.64,-94.13"/>
<polygon fill="#63b8ff" stroke="#63b8ff" points="348.43,-91.96 340.44,-85 342.35,-95.42 348.43,-91.96"/>
</a>
</g>
</g>
<!-- Node9 -->
<g id="Node000009" class="node">
<title>Node9</title>
<g id="a_Node000009"><a xlink:href="iface_2base_8hpp.html" target="_top" xlink:title=" ">
<polygon fill="white" stroke="#666666" points="321.5,-145.5 224.5,-145.5 224.5,-126.5 321.5,-126.5 321.5,-145.5"/>
<text text-anchor="middle" x="273" y="-133.5" font-family="Helvetica,sans-Serif" font-size="10.00">../iface/base.hpp</text>
</a>
</g>
</g>
<!-- Node1&#45;&gt;Node9 -->
<g id="edge8_Node000001_Node000009" class="edge">
<title>Node1&#45;&gt;Node9</title>
<g id="a_edge8_Node000001_Node000009"><a xlink:title=" ">
<path fill="none" stroke="#63b8ff" d="M461.86,-186.99C423.07,-176.73 357.74,-159.43 314.99,-148.12"/>
<polygon fill="#63b8ff" stroke="#63b8ff" points="315.74,-144.69 305.17,-145.52 313.95,-151.46 315.74,-144.69"/>
</a>
</g>
</g>
<!-- Node21 -->
<g id="Node000021" class="node">
<title>Node21</title>
<g id="a_Node000021"><a xlink:href="cfg_2base_8hpp.html" target="_top" xlink:title=" ">
<polygon fill="white" stroke="#666666" points="468.5,-145.5 401.5,-145.5 401.5,-126.5 468.5,-126.5 468.5,-145.5"/>
<text text-anchor="middle" x="435" y="-133.5" font-family="Helvetica,sans-Serif" font-size="10.00">./base.hpp</text>
</a>
</g>
</g>
<!-- Node1&#45;&gt;Node21 -->
<g id="edge14_Node000001_Node000021" class="edge">
<title>Node1&#45;&gt;Node21</title>
<g id="a_edge14_Node000001_Node000021"><a xlink:title=" ">
<path fill="none" stroke="#63b8ff" d="M485.29,-186.87C476.32,-177.97 462.12,-163.89 451.09,-152.95"/>
<polygon fill="#63b8ff" stroke="#63b8ff" points="453.31,-150.22 443.74,-145.67 448.38,-155.19 453.31,-150.22"/>
</a>
</g>
</g>
<!-- Node26 -->
<g id="Node000026" class="node">
<title>Node26</title>
<g id="a_Node000026"><a xlink:title=" ">
<polygon fill="#e0e0e0" stroke="#999999" points="619.5,-151 486.5,-151 486.5,-121 619.5,-121 619.5,-151"/>
<text text-anchor="start" x="494.5" y="-139" font-family="Helvetica,sans-Serif" font-size="10.00">emlabcpp/experimental</text>
<text text-anchor="middle" x="553" y="-128" font-family="Helvetica,sans-Serif" font-size="10.00">/cfg/handler.h</text>
</a>
</g>
</g>
<!-- Node1&#45;&gt;Node26 -->
<g id="edge20_Node000001_Node000026" class="edge">
<title>Node1&#45;&gt;Node26</title>
<g id="a_edge20_Node000001_Node000026"><a xlink:title=" ">
<path fill="none" stroke="#63b8ff" d="M502.71,-186.87C510.27,-179.37 521.54,-168.2 531.49,-158.33"/>
<polygon fill="#63b8ff" stroke="#63b8ff" points="534.13,-160.64 538.76,-151.11 529.2,-155.67 534.13,-160.64"/>
</a>
</g>
</g>
<!-- Node27 -->
<g id="Node000027" class="node">
<title>Node27</title>
<g id="a_Node000027"><a xlink:title=" ">
<polygon fill="#e0e0e0" stroke="#999999" points="770.5,-151 637.5,-151 637.5,-121 770.5,-121 770.5,-151"/>
<text text-anchor="start" x="645.5" y="-139" font-family="Helvetica,sans-Serif" font-size="10.00">emlabcpp/experimental</text>
<text text-anchor="middle" x="704" y="-128" font-family="Helvetica,sans-Serif" font-size="10.00">/function_view.h</text>
</a>
</g>
</g>
<!-- Node1&#45;&gt;Node27 -->
<g id="edge21_Node000001_Node000027" class="edge">
<title>Node1&#45;&gt;Node27</title>
<g id="a_edge21_Node000001_Node000027"><a xlink:title=" ">
<path fill="none" stroke="#63b8ff" d="M524.54,-186.99C555.68,-178.32 604.84,-164.62 643.83,-153.76"/>
<polygon fill="#63b8ff" stroke="#63b8ff" points="644.82,-157.12 653.51,-151.06 642.94,-150.38 644.82,-157.12"/>
</a>
</g>
</g>
<!-- Node28 -->
<g id="Node000028" class="node">
<title>Node28</title>
<g id="a_Node000028"><a xlink:title=" ">
<polygon fill="#e0e0e0" stroke="#999999" points="937.5,-145.5 788.5,-145.5 788.5,-126.5 937.5,-126.5 937.5,-145.5"/>
<text text-anchor="middle" x="863" y="-133.5" font-family="Helvetica,sans-Serif" font-size="10.00">emlabcpp/static_function.h</text>
</a>
</g>
</g>
<!-- Node1&#45;&gt;Node28 -->
<g id="edge22_Node000001_Node000028" class="edge">
<title>Node1&#45;&gt;Node28</title>
<g id="a_edge22_Node000001_Node000028"><a xlink:title=" ">
<path fill="none" stroke="#63b8ff" d="M548.59,-187.22C606.17,-178.43 699.52,-164.05 780,-151 787.42,-149.8 795.21,-148.51 802.93,-147.23"/>
<polygon fill="#63b8ff" stroke="#63b8ff" points="803.7,-150.65 812.98,-145.54 802.54,-143.74 803.7,-150.65"/>
</a>
</g>
</g>
<!-- Node3 -->
<g id="Node000003" class="node">
<title>Node3</title>
<g id="a_Node000003"><a xlink:title=" ">
<polygon fill="#e0e0e0" stroke="#999999" points="118,-24.5 68,-24.5 68,-5.5 118,-5.5 118,-24.5"/>
<text text-anchor="middle" x="93" y="-12.5" font-family="Helvetica,sans-Serif" font-size="10.00">chrono</text>
</a>
</g>
</g>
<!-- Node2&#45;&gt;Node3 -->
<g id="edge2_Node000002_Node000003" class="edge">
<title>Node2&#45;&gt;Node3</title>
<g id="a_edge2_Node000002_Node000003"><a xlink:title=" ">
<path fill="none" stroke="#63b8ff" d="M300.95,-67.84C250.27,-58.06 159.07,-39.93 127,-30 125.32,-29.48 123.61,-28.91 121.9,-28.31"/>
<polygon fill="#63b8ff" stroke="#63b8ff" points="122.79,-24.9 112.2,-24.61 120.29,-31.44 122.79,-24.9"/>
</a>
</g>
</g>
<!-- Node4 -->
<g id="Node000004" class="node">
<title>Node4</title>
<g id="a_Node000004"><a xlink:title=" ">
<polygon fill="#e0e0e0" stroke="#999999" points="50,-24.5 0,-24.5 0,-5.5 50,-5.5 50,-24.5"/>
<text text-anchor="middle" x="25" y="-12.5" font-family="Helvetica,sans-Serif" font-size="10.00">cstdint</text>
</a>
</g>
</g>
<!-- Node2&#45;&gt;Node4 -->
<g id="edge3_Node000002_Node000004" class="edge">
<title>Node2&#45;&gt;Node4</title>
<g id="a_edge3_Node000002_Node000004"><a xlink:title=" ">
<path fill="none" stroke="#63b8ff" d="M300.95,-68.35C296.26,-67.55 291.51,-66.75 287,-66 185.79,-49.23 157.77,-57.72 59,-30 57.06,-29.46 55.09,-28.84 53.12,-28.16"/>
<polygon fill="#63b8ff" stroke="#63b8ff" points="54.02,-24.76 43.43,-24.51 51.55,-31.31 54.02,-24.76"/>
</a>
</g>
</g>
<!-- Node5 -->
<g id="Node000005" class="node">
<title>Node5</title>
<g id="a_Node000005"><a xlink:title=" ">
<polygon fill="#e0e0e0" stroke="#999999" points="260,-24.5 136,-24.5 136,-5.5 260,-5.5 260,-24.5"/>
<text text-anchor="middle" x="198" y="-12.5" font-family="Helvetica,sans-Serif" font-size="10.00">emlabcpp/algorithm.h</text>
</a>
</g>
</g>
<!-- Node2&#45;&gt;Node5 -->
<g id="edge4_Node000002_Node000005" class="edge">
<title>Node2&#45;&gt;Node5</title>
<g id="a_edge4_Node000002_Node000005"><a xlink:title=" ">
<path fill="none" stroke="#63b8ff" d="M315.93,-65.99C292.63,-56.12 253.99,-39.73 227.32,-28.43"/>
<polygon fill="#63b8ff" stroke="#63b8ff" points="228.66,-25.2 218.09,-24.52 225.93,-31.64 228.66,-25.2"/>
</a>
</g>
</g>
<!-- Node6 -->
<g id="Node000006" class="node">
<title>Node6</title>
<g id="a_Node000006"><a xlink:title=" ">
<polygon fill="#e0e0e0" stroke="#999999" points="394,-24.5 278,-24.5 278,-5.5 394,-5.5 394,-24.5"/>
<text text-anchor="middle" x="336" y="-12.5" font-family="Helvetica,sans-Serif" font-size="10.00">emlabcpp/quantity.h</text>
</a>
</g>
</g>
<!-- Node2&#45;&gt;Node6 -->
<g id="edge5_Node000002_Node000006" class="edge">
<title>Node2&#45;&gt;Node6</title>
<g id="a_edge5_Node000002_Node000006"><a xlink:title=" ">
<path fill="none" stroke="#63b8ff" d="M336,-65.87C336,-57.75 336,-45.31 336,-34.89"/>
<polygon fill="#63b8ff" stroke="#63b8ff" points="339.5,-34.67 336,-24.67 332.5,-34.67 339.5,-34.67"/>
</a>
</g>
</g>
<!-- Node7 -->
<g id="Node000007" class="node">
<title>Node7</title>
<g id="a_Node000007"><a xlink:title=" ">
<polygon fill="#e0e0e0" stroke="#999999" points="471.5,-24.5 412.5,-24.5 412.5,-5.5 471.5,-5.5 471.5,-24.5"/>
<text text-anchor="middle" x="442" y="-12.5" font-family="Helvetica,sans-Serif" font-size="10.00">numbers</text>
</a>
</g>
</g>
<!-- Node2&#45;&gt;Node7 -->
<g id="edge6_Node000002_Node000007" class="edge">
<title>Node2&#45;&gt;Node7</title>
<g id="a_edge6_Node000002_Node000007"><a xlink:title=" ">
<path fill="none" stroke="#63b8ff" d="M351.64,-65.87C368.94,-56.32 397.05,-40.81 417.33,-29.62"/>
<polygon fill="#63b8ff" stroke="#63b8ff" points="419.23,-32.56 426.3,-24.67 415.85,-26.43 419.23,-32.56"/>
</a>
</g>
</g>
<!-- Node8 -->
<g id="Node000008" class="node">
<title>Node8</title>
<g id="a_Node000008"><a xlink:title=" ">
<polygon fill="#e0e0e0" stroke="#999999" points="546,-24.5 490,-24.5 490,-5.5 546,-5.5 546,-24.5"/>
<text text-anchor="middle" x="518" y="-12.5" font-family="Helvetica,sans-Serif" font-size="10.00">optional</text>
</a>
</g>
</g>
<!-- Node2&#45;&gt;Node8 -->
<g id="edge7_Node000002_Node000008" class="edge">
<title>Node2&#45;&gt;Node8</title>
<g id="a_edge7_Node000002_Node000008"><a xlink:title=" ">
<path fill="none" stroke="#63b8ff" d="M365.89,-65.93C395.34,-57.35 441.51,-43.51 481,-30 482.85,-29.37 484.75,-28.7 486.66,-28.02"/>
<polygon fill="#63b8ff" stroke="#63b8ff" points="487.99,-31.26 496.17,-24.52 485.58,-24.69 487.99,-31.26"/>
</a>
</g>
</g>
<!-- Node9&#45;&gt;Node4 -->
<g id="edge9_Node000009_Node000004" class="edge">
<title>Node9&#45;&gt;Node4</title>
<g id="a_edge9_Node000009_Node000004"><a xlink:title=" ">
<path fill="none" stroke="#63b8ff" d="M273.19,-126.31C273.02,-111.58 270.38,-81.74 253,-66 188.01,-7.12 143.11,-54.83 59,-30 57.12,-29.44 55.2,-28.82 53.27,-28.15"/>
<polygon fill="#63b8ff" stroke="#63b8ff" points="54.4,-24.84 43.81,-24.56 51.92,-31.38 54.4,-24.84"/>
</a>
</g>
</g>
<!-- Node10 -->
<g id="Node000010" class="node">
<title>Node10</title>
<g id="a_Node000010"><a xlink:href="json__ser_8hpp.html" target="_top" xlink:title=" ">
<polygon fill="#fff0f0" stroke="red" points="121.5,-85 20.5,-85 20.5,-66 121.5,-66 121.5,-85"/>
<text text-anchor="middle" x="71" y="-73" font-family="Helvetica,sans-Serif" font-size="10.00">../lib/json_ser.hpp</text>
</a>
</g>
</g>
<!-- Node9&#45;&gt;Node10 -->
<g id="edge10_Node000009_Node000010" class="edge">
<title>Node9&#45;&gt;Node10</title>
<g id="a_edge10_Node000009_Node000010"><a xlink:title=" ">
<path fill="none" stroke="#63b8ff" d="M243.63,-126.49C208.4,-116.29 149.21,-99.15 110.13,-87.83"/>
<polygon fill="#63b8ff" stroke="#63b8ff" points="110.99,-84.44 100.41,-85.02 109.04,-91.16 110.99,-84.44"/>
</a>
</g>
</g>
<!-- Node16 -->
<g id="Node000016" class="node">
<title>Node16</title>
<g id="a_Node000016"><a xlink:href="parser_8hpp.html" target="_top" xlink:title=" ">
<polygon fill="#fff0f0" stroke="red" points="481,-85 389,-85 389,-66 481,-66 481,-85"/>
<text text-anchor="middle" x="435" y="-73" font-family="Helvetica,sans-Serif" font-size="10.00">../lib/parser.hpp</text>
</a>
</g>
</g>
<!-- Node9&#45;&gt;Node16 -->
<g id="edge11_Node000009_Node000016" class="edge">
<title>Node9&#45;&gt;Node16</title>
<g id="a_edge11_Node000009_Node000016"><a xlink:title=" ">
<path fill="none" stroke="#63b8ff" d="M296.56,-126.49C324.27,-116.49 370.47,-99.8 401.81,-88.49"/>
<polygon fill="#63b8ff" stroke="#63b8ff" points="403.2,-91.71 411.42,-85.02 400.82,-85.12 403.2,-91.71"/>
</a>
</g>
</g>
<!-- Node20 -->
<g id="Node000020" class="node">
<title>Node20</title>
<g id="a_Node000020"><a xlink:title=" ">
<polygon fill="#e0e0e0" stroke="#999999" points="244.5,-85 139.5,-85 139.5,-66 244.5,-66 244.5,-85"/>
<text text-anchor="middle" x="192" y="-73" font-family="Helvetica,sans-Serif" font-size="10.00">vari/bits/typelist.h</text>
</a>
</g>
</g>
<!-- Node9&#45;&gt;Node20 -->
<g id="edge13_Node000009_Node000020" class="edge">
<title>Node9&#45;&gt;Node20</title>
<g id="a_edge13_Node000009_Node000020"><a xlink:title=" ">
<path fill="none" stroke="#63b8ff" d="M261.05,-126.37C248.25,-117.12 227.7,-102.28 212.35,-91.19"/>
<polygon fill="#63b8ff" stroke="#63b8ff" points="214.16,-88.18 204,-85.17 210.06,-93.86 214.16,-88.18"/>
</a>
</g>
</g>
<!-- Node17 -->
<g id="Node000017" class="node">
<title>Node17</title>
<g id="a_Node000017"><a xlink:title=" ">
<polygon fill="#e0e0e0" stroke="#999999" points="697.5,-30 564.5,-30 564.5,0 697.5,0 697.5,-30"/>
<text text-anchor="start" x="572.5" y="-18" font-family="Helvetica,sans-Serif" font-size="10.00">emlabcpp/experimental</text>
<text text-anchor="middle" x="631" y="-7" font-family="Helvetica,sans-Serif" font-size="10.00">/string_buffer.h</text>
</a>
</g>
</g>
<!-- Node16&#45;&gt;Node17 -->
<g id="edge12_Node000016_Node000017" class="edge">
<title>Node16&#45;&gt;Node17</title>
<g id="a_edge12_Node000016_Node000017"><a xlink:title=" ">
<path fill="none" stroke="#63b8ff" d="M463.5,-65.99C492.32,-57.39 537.67,-43.86 573.92,-33.04"/>
<polygon fill="#63b8ff" stroke="#63b8ff" points="575.3,-36.28 583.88,-30.06 573.3,-29.57 575.3,-36.28"/>
</a>
</g>
</g>
<!-- Node21&#45;&gt;Node2 -->
<g id="edge15_Node000021_Node000002" class="edge">
<title>Node21&#45;&gt;Node2</title>
<g id="a_edge15_Node000021_Node000002"><a xlink:title=" ">
<path fill="none" stroke="#63b8ff" d="M420.39,-126.37C404.31,-116.86 378.22,-101.45 359.3,-90.27"/>
<polygon fill="#63b8ff" stroke="#63b8ff" points="361.06,-87.24 350.67,-85.17 357.5,-93.27 361.06,-87.24"/>
</a>
</g>
</g>
<!-- Node21&#45;&gt;Node16 -->
<g id="edge16_Node000021_Node000016" class="edge">
<title>Node21&#45;&gt;Node16</title>
<g id="a_edge16_Node000021_Node000016"><a xlink:title=" ">
<path fill="none" stroke="#63b8ff" d="M435,-126.37C435,-118.25 435,-105.81 435,-95.39"/>
<polygon fill="#63b8ff" stroke="#63b8ff" points="438.5,-95.17 435,-85.17 431.5,-95.17 438.5,-95.17"/>
</a>
</g>
</g>
<!-- Node21&#45;&gt;Node17 -->
<g id="edge18_Node000021_Node000017" class="edge">
<title>Node21&#45;&gt;Node17</title>
<g id="a_edge18_Node000021_Node000017"><a xlink:title=" ">
<path fill="none" stroke="#63b8ff" d="M445.29,-126.5C462.14,-112.79 496.96,-85.4 529,-66 548.19,-54.38 570.47,-43.21 589.31,-34.39"/>
<polygon fill="#63b8ff" stroke="#63b8ff" points="590.92,-37.5 598.53,-30.13 587.98,-31.15 590.92,-37.5"/>
</a>
</g>
</g>
<!-- Node22 -->
<g id="Node000022" class="node">
<title>Node22</title>
<g id="a_Node000022"><a xlink:href="status_8hpp.html" target="_top" xlink:title=" ">
<polygon fill="#fff0f0" stroke="red" points="614.5,-85 537.5,-85 537.5,-66 614.5,-66 614.5,-85"/>
<text text-anchor="middle" x="576" y="-73" font-family="Helvetica,sans-Serif" font-size="10.00">../status.hpp</text>
</a>
</g>
</g>
<!-- Node21&#45;&gt;Node22 -->
<g id="edge17_Node000021_Node000022" class="edge">
<title>Node21&#45;&gt;Node22</title>
<g id="a_edge17_Node000021_Node000022"><a xlink:title=" ">
<path fill="none" stroke="#63b8ff" d="M455.5,-126.49C479.31,-116.62 518.79,-100.23 546.04,-88.93"/>
<polygon fill="#63b8ff" stroke="#63b8ff" points="547.58,-92.08 555.47,-85.02 544.89,-85.62 547.58,-92.08"/>
</a>
</g>
</g>
<!-- Node25 -->
<g id="Node000025" class="node">
<title>Node25</title>
<g id="a_Node000025"><a xlink:title=" ">
<polygon fill="#e0e0e0" stroke="#999999" points="699,-85 633,-85 633,-66 699,-66 699,-85"/>
<text text-anchor="middle" x="666" y="-73" font-family="Helvetica,sans-Serif" font-size="10.00">vari/vref.h</text>
</a>
</g>
</g>
<!-- Node21&#45;&gt;Node25 -->
<g id="edge19_Node000021_Node000025" class="edge">
<title>Node21&#45;&gt;Node25</title>
<g id="a_edge19_Node000021_Node000025"><a xlink:title=" ">
<path fill="none" stroke="#63b8ff" d="M460.36,-126.36C466.13,-124.5 472.26,-122.61 478,-121 527.36,-107.15 584.79,-93.97 623.07,-85.61"/>
<polygon fill="#63b8ff" stroke="#63b8ff" points="623.82,-89.02 632.85,-83.48 622.33,-82.18 623.82,-89.02"/>
</a>
</g>
</g>
</g>
</svg>
