<?xml version="1.0" encoding="UTF-8" standalone="no"?>
<!DOCTYPE svg PUBLIC "-//W3C//DTD SVG 1.1//EN"
 "http://www.w3.org/Graphics/SVG/1.1/DTD/svg11.dtd">
<!-- Generated by graphviz version 2.43.0 (0)
 -->
<!-- Title: src/fw/drv/hbridge.hpp Pages: 1 -->
<svg width="523pt" height="151pt"
 viewBox="0.00 0.00 522.50 151.00" xmlns="http://www.w3.org/2000/svg" xmlns:xlink="http://www.w3.org/1999/xlink">
<g id="graph0" class="graph" transform="scale(1 1) rotate(0) translate(4 147)">
<title>src/fw/drv/hbridge.hpp</title>
<polygon fill="white" stroke="transparent" points="-4,4 -4,-147 518.5,-147 518.5,4 -4,4"/>
<!-- Node1 -->
<g id="node1" class="node">
<title>Node1</title>
<g id="a_node1"><a xlink:title=" ">
<polygon fill="#bfbfbf" stroke="black" points="218.5,-123.5 218.5,-142.5 343.5,-142.5 343.5,-123.5 218.5,-123.5"/>
<text text-anchor="middle" x="281" y="-130.5" font-family="Helvetica,sans-Serif" font-size="10.00">src/fw/drv/hbridge.hpp</text>
</a>
</g>
</g>
<!-- Node2 -->
<g id="node2" class="node">
<title>Node2</title>
<g id="a_node2"><a xlink:href="drv__interfaces_8hpp.html" target="_top" xlink:title=" ">
<polygon fill="white" stroke="black" points="98.5,-62 98.5,-81 205.5,-81 205.5,-62 98.5,-62"/>
<text text-anchor="middle" x="152" y="-69" font-family="Helvetica,sans-Serif" font-size="10.00">drv_interfaces.hpp</text>
</a>
</g>
</g>
<!-- Node1&#45;&gt;Node2 -->
<g id="edge1" class="edge">
<title>Node1&#45;&gt;Node2</title>
<path fill="none" stroke="midnightblue" d="M262.52,-123.48C240.87,-113.49 204.79,-96.85 179.77,-85.31"/>
<polygon fill="midnightblue" stroke="midnightblue" points="180.99,-82.02 170.45,-81.01 178.06,-88.38 180.99,-82.02"/>
</g>
<!-- Node5 -->
<g id="node5" class="node">
<title>Node5</title>
<g id="a_node5"><a xlink:title=" ">
<polygon fill="white" stroke="#bfbfbf" points="209,-0.5 209,-19.5 249,-19.5 249,-0.5 209,-0.5"/>
<text text-anchor="middle" x="229" y="-7.5" font-family="Helvetica,sans-Serif" font-size="10.00">span</text>
</a>
</g>
</g>
<!-- Node1&#45;&gt;Node5 -->
<g id="edge6" class="edge">
<title>Node1&#45;&gt;Node5</title>
<path fill="none" stroke="midnightblue" d="M275.02,-123.35C269.1,-114.52 260.07,-100.26 254,-87 245.35,-68.1 238.27,-45.32 233.88,-29.66"/>
<polygon fill="midnightblue" stroke="midnightblue" points="237.17,-28.41 231.17,-19.67 230.41,-30.24 237.17,-28.41"/>
</g>
<!-- Node6 -->
<g id="node6" class="node">
<title>Node6</title>
<g id="a_node6"><a xlink:title=" ">
<polygon fill="white" stroke="#bfbfbf" points="262.5,-56.5 262.5,-86.5 395.5,-86.5 395.5,-56.5 262.5,-56.5"/>
<text text-anchor="start" x="270.5" y="-74.5" font-family="Helvetica,sans-Serif" font-size="10.00">emlabcpp/experimental</text>
<text text-anchor="middle" x="329" y="-63.5" font-family="Helvetica,sans-Serif" font-size="10.00">/function_view.h</text>
</a>
</g>
</g>
<!-- Node1&#45;&gt;Node6 -->
<g id="edge5" class="edge">
<title>Node1&#45;&gt;Node6</title>
<path fill="none" stroke="midnightblue" d="M287.88,-123.48C293.95,-115.94 303.08,-104.63 311.2,-94.57"/>
<polygon fill="midnightblue" stroke="midnightblue" points="314.13,-96.5 317.69,-86.52 308.68,-92.11 314.13,-96.5"/>
</g>
<!-- Node7 -->
<g id="node7" class="node">
<title>Node7</title>
<g id="a_node7"><a xlink:title=" ">
<polygon fill="white" stroke="#bfbfbf" points="413.5,-62 413.5,-81 514.5,-81 514.5,-62 413.5,-62"/>
<text text-anchor="middle" x="464" y="-69" font-family="Helvetica,sans-Serif" font-size="10.00">stm32g4xx_hal.h</text>
</a>
</g>
</g>
<!-- Node1&#45;&gt;Node7 -->
<g id="edge7" class="edge">
<title>Node1&#45;&gt;Node7</title>
<path fill="none" stroke="midnightblue" d="M307.22,-123.48C339.02,-113.14 392.77,-95.66 428.32,-84.1"/>
<polygon fill="midnightblue" stroke="midnightblue" points="429.4,-87.43 437.83,-81.01 427.24,-80.77 429.4,-87.43"/>
</g>
<!-- Node3 -->
<g id="node3" class="node">
<title>Node3</title>
<g id="a_node3"><a xlink:href="status__category_8hpp.html" target="_top" xlink:title=" ">
<polygon fill="white" stroke="black" points="0,-0.5 0,-19.5 114,-19.5 114,-0.5 0,-0.5"/>
<text text-anchor="middle" x="57" y="-7.5" font-family="Helvetica,sans-Serif" font-size="10.00">status_category.hpp</text>
</a>
</g>
</g>
<!-- Node2&#45;&gt;Node3 -->
<g id="edge2" class="edge">
<title>Node2&#45;&gt;Node3</title>
<path fill="none" stroke="midnightblue" d="M138.39,-61.98C122.94,-52.3 97.51,-36.37 79.18,-24.89"/>
<polygon fill="midnightblue" stroke="midnightblue" points="80.92,-21.85 70.59,-19.51 77.2,-27.78 80.92,-21.85"/>
</g>
<!-- Node4 -->
<g id="node4" class="node">
<title>Node4</title>
<g id="a_node4"><a xlink:title=" ">
<polygon fill="white" stroke="#bfbfbf" points="132,-0.5 132,-19.5 182,-19.5 182,-0.5 132,-0.5"/>
<text text-anchor="middle" x="157" y="-7.5" font-family="Helvetica,sans-Serif" font-size="10.00">cstdint</text>
</a>
</g>
</g>
<!-- Node2&#45;&gt;Node4 -->
<g id="edge3" class="edge">
<title>Node2&#45;&gt;Node4</title>
<path fill="none" stroke="midnightblue" d="M152.72,-61.98C153.42,-53.58 154.52,-40.48 155.43,-29.66"/>
<polygon fill="midnightblue" stroke="midnightblue" points="158.94,-29.77 156.28,-19.51 151.96,-29.18 158.94,-29.77"/>
</g>
<!-- Node2&#45;&gt;Node5 -->
<g id="edge4" class="edge">
<title>Node2&#45;&gt;Node5</title>
<path fill="none" stroke="midnightblue" d="M163.03,-61.98C175.27,-52.52 195.23,-37.1 209.99,-25.69"/>
<polygon fill="midnightblue" stroke="midnightblue" points="212.22,-28.39 217.99,-19.51 207.94,-22.85 212.22,-28.39"/>
</g>
</g>
</svg>
