<?xml version="1.0" encoding="UTF-8" standalone="no"?>
<!DOCTYPE svg PUBLIC "-//W3C//DTD SVG 1.1//EN"
 "http://www.w3.org/Graphics/SVG/1.1/DTD/svg11.dtd">
<!-- Generated by graphviz version 2.43.0 (0)
 -->
<!-- Title: src/fw/drv/hbridge.cpp Pages: 1 -->
<svg width="451pt" height="263pt"
 viewBox="0.00 0.00 451.47 263.00" xmlns="http://www.w3.org/2000/svg" xmlns:xlink="http://www.w3.org/1999/xlink">
<g id="graph0" class="graph" transform="scale(1 1) rotate(0) translate(4 259)">
<title>src/fw/drv/hbridge.cpp</title>
<polygon fill="white" stroke="transparent" points="-4,4 -4,-259 447.47,-259 447.47,4 -4,4"/>
<!-- Node1 -->
<g id="node1" class="node">
<title>Node1</title>
<g id="a_node1"><a xlink:title=" ">
<polygon fill="#bfbfbf" stroke="black" points="131.97,-235.5 131.97,-254.5 255.97,-254.5 255.97,-235.5 131.97,-235.5"/>
<text text-anchor="middle" x="193.97" y="-242.5" font-family="Helvetica,sans-Serif" font-size="10.00">src/fw/drv/hbridge.cpp</text>
</a>
</g>
</g>
<!-- Node2 -->
<g id="node2" class="node">
<title>Node2</title>
<g id="a_node2"><a xlink:href="hbridge_8hpp.html" target="_top" xlink:title=" ">
<polygon fill="white" stroke="black" points="98.97,-179.5 98.97,-198.5 172.97,-198.5 172.97,-179.5 98.97,-179.5"/>
<text text-anchor="middle" x="135.97" y="-186.5" font-family="Helvetica,sans-Serif" font-size="10.00">hbridge.hpp</text>
</a>
</g>
</g>
<!-- Node1&#45;&gt;Node2 -->
<g id="edge1" class="edge">
<title>Node1&#45;&gt;Node2</title>
<path fill="none" stroke="midnightblue" d="M184.65,-235.32C176.08,-227.34 163.16,-215.31 152.78,-205.65"/>
<polygon fill="midnightblue" stroke="midnightblue" points="155.16,-203.09 145.46,-198.83 150.39,-208.21 155.16,-203.09"/>
</g>
<!-- Node7 -->
<g id="node8" class="node">
<title>Node7</title>
<g id="a_node8"><a xlink:title=" ">
<polygon fill="white" stroke="#bfbfbf" points="190.97,-179.5 190.97,-198.5 314.97,-198.5 314.97,-179.5 190.97,-179.5"/>
<text text-anchor="middle" x="252.97" y="-186.5" font-family="Helvetica,sans-Serif" font-size="10.00">emlabcpp/algorithm.h</text>
</a>
</g>
</g>
<!-- Node1&#45;&gt;Node7 -->
<g id="edge10" class="edge">
<title>Node1&#45;&gt;Node7</title>
<path fill="none" stroke="midnightblue" d="M203.45,-235.32C212.17,-227.34 225.31,-215.31 235.87,-205.65"/>
<polygon fill="midnightblue" stroke="midnightblue" points="238.3,-208.17 243.32,-198.83 233.58,-203 238.3,-208.17"/>
</g>
<!-- Node3 -->
<g id="node3" class="node">
<title>Node3</title>
<g id="a_node3"><a xlink:href="drv__interfaces_8hpp.html" target="_top" xlink:title=" ">
<polygon fill="white" stroke="red" points="11.97,-56.5 11.97,-75.5 145.97,-75.5 145.97,-56.5 11.97,-56.5"/>
<text text-anchor="middle" x="78.97" y="-63.5" font-family="Helvetica,sans-Serif" font-size="10.00">base/drv_interfaces.hpp</text>
</a>
</g>
</g>
<!-- Node2&#45;&gt;Node3 -->
<g id="edge2" class="edge">
<title>Node2&#45;&gt;Node3</title>
<path fill="none" stroke="midnightblue" d="M113.18,-179.47C97.64,-172.32 78.26,-160.44 68.97,-143 59.31,-124.89 64.92,-101.02 70.91,-84.9"/>
<polygon fill="midnightblue" stroke="midnightblue" points="74.18,-86.14 74.74,-75.56 67.7,-83.49 74.18,-86.14"/>
</g>
<!-- Node11 -->
<g id="node4" class="node">
<title>Node11</title>
<g id="a_node4"><a xlink:title=" ">
<polygon fill="white" stroke="#bfbfbf" points="58.97,-0.5 58.97,-19.5 98.97,-19.5 98.97,-0.5 58.97,-0.5"/>
<text text-anchor="middle" x="78.97" y="-7.5" font-family="Helvetica,sans-Serif" font-size="10.00">span</text>
</a>
</g>
</g>
<!-- Node2&#45;&gt;Node11 -->
<g id="edge9" class="edge">
<title>Node2&#45;&gt;Node11</title>
<path fill="none" stroke="midnightblue" d="M116.18,-179.4C84.11,-164.13 22.4,-128.84 2.97,-76 -0.1,-67.66 -1.43,-63.72 2.97,-56 12.87,-38.63 32.41,-27.28 49.19,-20.32"/>
<polygon fill="midnightblue" stroke="midnightblue" points="50.56,-23.55 58.66,-16.72 48.07,-17 50.56,-23.55"/>
</g>
<!-- Node12 -->
<g id="node5" class="node">
<title>Node12</title>
<g id="a_node5"><a xlink:href="fw_2drv_2callbacks_8hpp.html" target="_top" xlink:title=" ">
<polygon fill="white" stroke="red" points="77.97,-118 77.97,-137 193.97,-137 193.97,-118 77.97,-118"/>
<text text-anchor="middle" x="135.97" y="-125" font-family="Helvetica,sans-Serif" font-size="10.00">fw/drv/callbacks.hpp</text>
</a>
</g>
</g>
<!-- Node2&#45;&gt;Node12 -->
<g id="edge4" class="edge">
<title>Node2&#45;&gt;Node12</title>
<path fill="none" stroke="midnightblue" d="M135.97,-179.48C135.97,-171.08 135.97,-157.98 135.97,-147.16"/>
<polygon fill="midnightblue" stroke="midnightblue" points="139.47,-147.01 135.97,-137.01 132.47,-147.01 139.47,-147.01"/>
</g>
<!-- Node13 -->
<g id="node6" class="node">
<title>Node13</title>
<g id="a_node6"><a xlink:href="platform_8hpp.html" target="_top" xlink:title=" ">
<polygon fill="white" stroke="red" points="211.97,-118 211.97,-137 291.97,-137 291.97,-118 211.97,-118"/>
<text text-anchor="middle" x="251.97" y="-125" font-family="Helvetica,sans-Serif" font-size="10.00">platform.hpp</text>
</a>
</g>
</g>
<!-- Node2&#45;&gt;Node13 -->
<g id="edge7" class="edge">
<title>Node2&#45;&gt;Node13</title>
<path fill="none" stroke="midnightblue" d="M152.59,-179.48C171.88,-169.58 203.93,-153.14 226.4,-141.62"/>
<polygon fill="midnightblue" stroke="midnightblue" points="228.08,-144.69 235.38,-137.01 224.88,-138.46 228.08,-144.69"/>
</g>
<!-- Node15 -->
<g id="node7" class="node">
<title>Node15</title>
<g id="a_node7"><a xlink:title=" ">
<polygon fill="white" stroke="#bfbfbf" points="310.47,-112.5 310.47,-142.5 443.47,-142.5 443.47,-112.5 310.47,-112.5"/>
<text text-anchor="start" x="318.47" y="-130.5" font-family="Helvetica,sans-Serif" font-size="10.00">emlabcpp/experimental</text>
<text text-anchor="middle" x="376.97" y="-119.5" font-family="Helvetica,sans-Serif" font-size="10.00">/function_view.h</text>
</a>
</g>
</g>
<!-- Node2&#45;&gt;Node15 -->
<g id="edge8" class="edge">
<title>Node2&#45;&gt;Node15</title>
<path fill="none" stroke="midnightblue" d="M170.5,-179.48C206.87,-170.49 265.06,-156.13 310.41,-144.93"/>
<polygon fill="midnightblue" stroke="midnightblue" points="311.3,-148.32 320.17,-142.52 309.62,-141.52 311.3,-148.32"/>
</g>
<!-- Node3&#45;&gt;Node11 -->
<g id="edge3" class="edge">
<title>Node3&#45;&gt;Node11</title>
<path fill="none" stroke="midnightblue" d="M78.97,-56.08C78.97,-49.01 78.97,-38.86 78.97,-29.99"/>
<polygon fill="midnightblue" stroke="midnightblue" points="82.47,-29.75 78.97,-19.75 75.47,-29.75 82.47,-29.75"/>
</g>
<!-- Node12&#45;&gt;Node3 -->
<g id="edge5" class="edge">
<title>Node12&#45;&gt;Node3</title>
<path fill="none" stroke="midnightblue" d="M127.8,-117.98C119.08,-108.87 105.06,-94.24 94.28,-82.98"/>
<polygon fill="midnightblue" stroke="midnightblue" points="96.56,-80.31 87.12,-75.51 91.51,-85.15 96.56,-80.31"/>
</g>
<!-- Node12&#45;&gt;Node11 -->
<g id="edge6" class="edge">
<title>Node12&#45;&gt;Node11</title>
<path fill="none" stroke="midnightblue" d="M142.37,-117.72C151.65,-103.82 166.52,-76.26 154.97,-56 145.07,-38.63 125.53,-27.28 108.75,-20.32"/>
<polygon fill="midnightblue" stroke="midnightblue" points="109.87,-17 99.28,-16.72 107.38,-23.55 109.87,-17"/>
</g>
</g>
</svg>
