<?xml version="1.0" encoding="UTF-8" standalone="no"?>
<!DOCTYPE svg PUBLIC "-//W3C//DTD SVG 1.1//EN"
 "http://www.w3.org/Graphics/SVG/1.1/DTD/svg11.dtd">
<!-- Generated by graphviz version 2.43.0 (0)
 -->
<!-- Title: src/fw/drv/hbridge.hpp Pages: 1 -->
<svg width="680pt" height="263pt"
 viewBox="0.00 0.00 679.50 263.00" xmlns="http://www.w3.org/2000/svg" xmlns:xlink="http://www.w3.org/1999/xlink">
<g id="graph0" class="graph" transform="scale(1 1) rotate(0) translate(4 259)">
<title>src/fw/drv/hbridge.hpp</title>
<polygon fill="white" stroke="transparent" points="-4,4 -4,-259 675.5,-259 675.5,4 -4,4"/>
<!-- Node1 -->
<g id="node1" class="node">
<title>Node1</title>
<g id="a_node1"><a xlink:title=" ">
<polygon fill="#bfbfbf" stroke="black" points="349.5,-235.5 349.5,-254.5 474.5,-254.5 474.5,-235.5 349.5,-235.5"/>
<text text-anchor="middle" x="412" y="-242.5" font-family="Helvetica,sans-Serif" font-size="10.00">src/fw/drv/hbridge.hpp</text>
</a>
</g>
</g>
<!-- Node2 -->
<g id="node2" class="node">
<title>Node2</title>
<g id="a_node2"><a xlink:href="drv__interfaces_8hpp.html" target="_top" xlink:title=" ">
<polygon fill="white" stroke="black" points="173,-112.5 173,-131.5 307,-131.5 307,-112.5 173,-112.5"/>
<text text-anchor="middle" x="240" y="-119.5" font-family="Helvetica,sans-Serif" font-size="10.00">base/drv_interfaces.hpp</text>
</a>
</g>
</g>
<!-- Node1&#45;&gt;Node2 -->
<g id="edge1" class="edge">
<title>Node1&#45;&gt;Node2</title>
<path fill="none" stroke="midnightblue" d="M349.35,-239.95C318.23,-234.73 282.39,-223.37 259,-199 244.39,-183.77 240.51,-159.08 239.72,-141.99"/>
<polygon fill="midnightblue" stroke="midnightblue" points="243.21,-141.54 239.57,-131.59 236.21,-141.63 243.21,-141.54"/>
</g>
<!-- Node10 -->
<g id="node7" class="node">
<title>Node10</title>
<g id="a_node7"><a xlink:title=" ">
<polygon fill="white" stroke="#bfbfbf" points="378,-56.5 378,-75.5 418,-75.5 418,-56.5 378,-56.5"/>
<text text-anchor="middle" x="398" y="-63.5" font-family="Helvetica,sans-Serif" font-size="10.00">span</text>
</a>
</g>
</g>
<!-- Node1&#45;&gt;Node10 -->
<g id="edge16" class="edge">
<title>Node1&#45;&gt;Node10</title>
<path fill="none" stroke="midnightblue" d="M411.32,-235.46C409.19,-208.43 402.53,-124.24 399.51,-86.11"/>
<polygon fill="midnightblue" stroke="midnightblue" points="402.98,-85.56 398.7,-75.87 396,-86.11 402.98,-85.56"/>
</g>
<!-- Node11 -->
<g id="node8" class="node">
<title>Node11</title>
<g id="a_node8"><a xlink:href="fw_2drv_2callbacks_8hpp.html" target="_top" xlink:title=" ">
<polygon fill="white" stroke="black" points="268,-174 268,-193 384,-193 384,-174 268,-174"/>
<text text-anchor="middle" x="326" y="-181" font-family="Helvetica,sans-Serif" font-size="10.00">fw/drv/callbacks.hpp</text>
</a>
</g>
</g>
<!-- Node1&#45;&gt;Node11 -->
<g id="edge8" class="edge">
<title>Node1&#45;&gt;Node11</title>
<path fill="none" stroke="midnightblue" d="M399.68,-235.48C385.88,-225.93 363.3,-210.31 346.77,-198.87"/>
<polygon fill="midnightblue" stroke="midnightblue" points="348.51,-195.82 338.3,-193.01 344.53,-201.58 348.51,-195.82"/>
</g>
<!-- Node12 -->
<g id="node9" class="node">
<title>Node12</title>
<g id="a_node9"><a xlink:href="platform_8hpp.html" target="_top" xlink:title=" ">
<polygon fill="white" stroke="black" points="440,-174 440,-193 520,-193 520,-174 440,-174"/>
<text text-anchor="middle" x="480" y="-181" font-family="Helvetica,sans-Serif" font-size="10.00">platform.hpp</text>
</a>
</g>
</g>
<!-- Node1&#45;&gt;Node12 -->
<g id="edge12" class="edge">
<title>Node1&#45;&gt;Node12</title>
<path fill="none" stroke="midnightblue" d="M421.74,-235.48C432.35,-226.2 449.52,-211.17 462.48,-199.83"/>
<polygon fill="midnightblue" stroke="midnightblue" points="465.05,-202.23 470.28,-193.01 460.44,-196.96 465.05,-202.23"/>
</g>
<!-- Node14 -->
<g id="node11" class="node">
<title>Node14</title>
<g id="a_node11"><a xlink:title=" ">
<polygon fill="white" stroke="#bfbfbf" points="538.5,-168.5 538.5,-198.5 671.5,-198.5 671.5,-168.5 538.5,-168.5"/>
<text text-anchor="start" x="546.5" y="-186.5" font-family="Helvetica,sans-Serif" font-size="10.00">emlabcpp/experimental</text>
<text text-anchor="middle" x="605" y="-175.5" font-family="Helvetica,sans-Serif" font-size="10.00">/function_view.h</text>
</a>
</g>
</g>
<!-- Node1&#45;&gt;Node14 -->
<g id="edge15" class="edge">
<title>Node1&#45;&gt;Node14</title>
<path fill="none" stroke="midnightblue" d="M439.65,-235.48C468.23,-226.66 513.63,-212.67 549.63,-201.57"/>
<polygon fill="midnightblue" stroke="midnightblue" points="550.99,-204.81 559.51,-198.52 548.93,-198.12 550.99,-204.81"/>
</g>
<!-- Node3 -->
<g id="node3" class="node">
<title>Node3</title>
<g id="a_node3"><a xlink:href="base_8hpp.html" target="_top" xlink:title=" ">
<polygon fill="white" stroke="red" points="246.5,-56.5 246.5,-75.5 307.5,-75.5 307.5,-56.5 246.5,-56.5"/>
<text text-anchor="middle" x="277" y="-63.5" font-family="Helvetica,sans-Serif" font-size="10.00">base.hpp</text>
</a>
</g>
</g>
<!-- Node2&#45;&gt;Node3 -->
<g id="edge2" class="edge">
<title>Node2&#45;&gt;Node3</title>
<path fill="none" stroke="midnightblue" d="M246.11,-112.08C251.28,-104.53 258.85,-93.49 265.19,-84.23"/>
<polygon fill="midnightblue" stroke="midnightblue" points="268.24,-85.98 271,-75.75 262.46,-82.02 268.24,-85.98"/>
</g>
<!-- Node5 -->
<g id="node4" class="node">
<title>Node5</title>
<g id="a_node4"><a xlink:title=" ">
<polygon fill="white" stroke="#bfbfbf" points="252,-0.5 252,-19.5 302,-19.5 302,-0.5 252,-0.5"/>
<text text-anchor="middle" x="277" y="-7.5" font-family="Helvetica,sans-Serif" font-size="10.00">cstdint</text>
</a>
</g>
</g>
<!-- Node2&#45;&gt;Node5 -->
<g id="edge5" class="edge">
<title>Node2&#45;&gt;Node5</title>
<path fill="none" stroke="midnightblue" d="M237.45,-112.24C234.19,-99.42 229.77,-75.01 237,-56 241.34,-44.6 250.03,-34.24 258.21,-26.34"/>
<polygon fill="midnightblue" stroke="midnightblue" points="260.64,-28.86 265.73,-19.57 255.96,-23.66 260.64,-28.86"/>
</g>
<!-- Node8 -->
<g id="node5" class="node">
<title>Node8</title>
<g id="a_node5"><a xlink:href="status_8hpp.html" target="_top" xlink:title=" ">
<polygon fill="white" stroke="black" points="0,-56.5 0,-75.5 68,-75.5 68,-56.5 0,-56.5"/>
<text text-anchor="middle" x="34" y="-63.5" font-family="Helvetica,sans-Serif" font-size="10.00">status.hpp</text>
</a>
</g>
</g>
<!-- Node2&#45;&gt;Node8 -->
<g id="edge4" class="edge">
<title>Node2&#45;&gt;Node8</title>
<path fill="none" stroke="midnightblue" d="M207.36,-112.44C171.95,-103.16 115.29,-88.31 76.45,-78.13"/>
<polygon fill="midnightblue" stroke="midnightblue" points="77.05,-74.67 66.49,-75.52 75.27,-81.44 77.05,-74.67"/>
</g>
<!-- Node9 -->
<g id="node6" class="node">
<title>Node9</title>
<g id="a_node6"><a xlink:title=" ">
<polygon fill="white" stroke="#bfbfbf" points="86,-56.5 86,-75.5 190,-75.5 190,-56.5 86,-56.5"/>
<text text-anchor="middle" x="138" y="-63.5" font-family="Helvetica,sans-Serif" font-size="10.00">emlabcpp/result.h</text>
</a>
</g>
</g>
<!-- Node2&#45;&gt;Node9 -->
<g id="edge6" class="edge">
<title>Node2&#45;&gt;Node9</title>
<path fill="none" stroke="midnightblue" d="M223.61,-112.32C207.33,-103.7 182.13,-90.36 163.28,-80.39"/>
<polygon fill="midnightblue" stroke="midnightblue" points="164.82,-77.24 154.35,-75.65 161.55,-83.43 164.82,-77.24"/>
</g>
<!-- Node2&#45;&gt;Node10 -->
<g id="edge7" class="edge">
<title>Node2&#45;&gt;Node10</title>
<path fill="none" stroke="midnightblue" d="M265.04,-112.44C293.02,-102.88 338.32,-87.4 368.13,-77.21"/>
<polygon fill="midnightblue" stroke="midnightblue" points="369.27,-80.52 377.6,-73.97 367.01,-73.89 369.27,-80.52"/>
</g>
<!-- Node3&#45;&gt;Node5 -->
<g id="edge3" class="edge">
<title>Node3&#45;&gt;Node5</title>
<path fill="none" stroke="midnightblue" d="M277,-56.08C277,-49.01 277,-38.86 277,-29.99"/>
<polygon fill="midnightblue" stroke="midnightblue" points="280.5,-29.75 277,-19.75 273.5,-29.75 280.5,-29.75"/>
</g>
<!-- Node11&#45;&gt;Node2 -->
<g id="edge9" class="edge">
<title>Node11&#45;&gt;Node2</title>
<path fill="none" stroke="midnightblue" d="M313.68,-173.98C299.88,-164.43 277.3,-148.81 260.77,-137.37"/>
<polygon fill="midnightblue" stroke="midnightblue" points="262.51,-134.32 252.3,-131.51 258.53,-140.08 262.51,-134.32"/>
</g>
<!-- Node11&#45;&gt;Node5 -->
<g id="edge10" class="edge">
<title>Node11&#45;&gt;Node5</title>
<path fill="none" stroke="midnightblue" d="M327.11,-173.78C329.44,-152.62 333.27,-97.25 316,-56 311.39,-44.99 303,-34.75 295.18,-26.83"/>
<polygon fill="midnightblue" stroke="midnightblue" points="297.37,-24.09 287.71,-19.74 292.56,-29.17 297.37,-24.09"/>
</g>
<!-- Node11&#45;&gt;Node10 -->
<g id="edge11" class="edge">
<title>Node11&#45;&gt;Node10</title>
<path fill="none" stroke="midnightblue" d="M331.41,-173.82C343.24,-154.84 371.6,-109.35 387.22,-84.29"/>
<polygon fill="midnightblue" stroke="midnightblue" points="390.21,-86.12 392.53,-75.78 384.27,-82.42 390.21,-86.12"/>
</g>
<!-- Node12&#45;&gt;Node10 -->
<g id="edge14" class="edge">
<title>Node12&#45;&gt;Node10</title>
<path fill="none" stroke="midnightblue" d="M473.84,-173.82C460.3,-154.76 427.78,-108.95 410.04,-83.96"/>
<polygon fill="midnightblue" stroke="midnightblue" points="412.88,-81.91 404.23,-75.78 407.17,-85.96 412.88,-81.91"/>
</g>
<!-- Node13 -->
<g id="node10" class="node">
<title>Node13</title>
<g id="a_node10"><a xlink:title=" ">
<polygon fill="white" stroke="#bfbfbf" points="478.5,-112.5 478.5,-131.5 531.5,-131.5 531.5,-112.5 478.5,-112.5"/>
<text text-anchor="middle" x="505" y="-119.5" font-family="Helvetica,sans-Serif" font-size="10.00">hal.hpp</text>
</a>
</g>
</g>
<!-- Node12&#45;&gt;Node13 -->
<g id="edge13" class="edge">
<title>Node12&#45;&gt;Node13</title>
<path fill="none" stroke="midnightblue" d="M483.58,-173.98C487.18,-165.4 492.85,-151.93 497.44,-140.98"/>
<polygon fill="midnightblue" stroke="midnightblue" points="500.78,-142.08 501.42,-131.51 494.32,-139.37 500.78,-142.08"/>
</g>
</g>
</svg>
