<?xml version="1.0" encoding="UTF-8" standalone="no"?>
<!DOCTYPE svg PUBLIC "-//W3C//DTD SVG 1.1//EN"
 "http://www.w3.org/Graphics/SVG/1.1/DTD/svg11.dtd">
<!-- Generated by graphviz version 2.43.0 (0)
 -->
<!-- Title: src/drv/hbridge.cpp Pages: 1 -->
<svg width="408pt" height="263pt"
 viewBox="0.00 0.00 407.50 263.00" xmlns="http://www.w3.org/2000/svg" xmlns:xlink="http://www.w3.org/1999/xlink">
<g id="graph0" class="graph" transform="scale(1 1) rotate(0) translate(4 259)">
<title>src/drv/hbridge.cpp</title>
<polygon fill="white" stroke="transparent" points="-4,4 -4,-259 403.5,-259 403.5,4 -4,4"/>
<!-- Node1 -->
<g id="node1" class="node">
<title>Node1</title>
<g id="a_node1"><a xlink:title=" ">
<polygon fill="#bfbfbf" stroke="black" points="203,-235.5 203,-254.5 313,-254.5 313,-235.5 203,-235.5"/>
<text text-anchor="middle" x="258" y="-242.5" font-family="Helvetica,sans-Serif" font-size="10.00">src/drv/hbridge.cpp</text>
</a>
</g>
</g>
<!-- Node2 -->
<g id="node2" class="node">
<title>Node2</title>
<g id="a_node2"><a xlink:href="hbridge_8hpp.html" target="_top" xlink:title=" ">
<polygon fill="white" stroke="black" points="163,-179.5 163,-198.5 237,-198.5 237,-179.5 163,-179.5"/>
<text text-anchor="middle" x="200" y="-186.5" font-family="Helvetica,sans-Serif" font-size="10.00">hbridge.hpp</text>
</a>
</g>
</g>
<!-- Node1&#45;&gt;Node2 -->
<g id="edge1" class="edge">
<title>Node1&#45;&gt;Node2</title>
<path fill="none" stroke="midnightblue" d="M248.68,-235.32C240.11,-227.34 227.19,-215.31 216.81,-205.65"/>
<polygon fill="midnightblue" stroke="midnightblue" points="219.19,-203.09 209.49,-198.83 214.42,-208.21 219.19,-203.09"/>
</g>
<!-- Node7 -->
<g id="node8" class="node">
<title>Node7</title>
<g id="a_node8"><a xlink:title=" ">
<polygon fill="white" stroke="#bfbfbf" points="255,-179.5 255,-198.5 379,-198.5 379,-179.5 255,-179.5"/>
<text text-anchor="middle" x="317" y="-186.5" font-family="Helvetica,sans-Serif" font-size="10.00">emlabcpp/algorithm.h</text>
</a>
</g>
</g>
<!-- Node1&#45;&gt;Node7 -->
<g id="edge11" class="edge">
<title>Node1&#45;&gt;Node7</title>
<path fill="none" stroke="midnightblue" d="M267.48,-235.32C276.2,-227.34 289.34,-215.31 299.9,-205.65"/>
<polygon fill="midnightblue" stroke="midnightblue" points="302.33,-208.17 307.35,-198.83 297.61,-203 302.33,-208.17"/>
</g>
<!-- Node3 -->
<g id="node3" class="node">
<title>Node3</title>
<g id="a_node3"><a xlink:href="drv__interfaces_8hpp.html" target="_top" xlink:title=" ">
<polygon fill="white" stroke="red" points="0,-56.5 0,-75.5 134,-75.5 134,-56.5 0,-56.5"/>
<text text-anchor="middle" x="67" y="-63.5" font-family="Helvetica,sans-Serif" font-size="10.00">base/drv_interfaces.hpp</text>
</a>
</g>
</g>
<!-- Node2&#45;&gt;Node3 -->
<g id="edge2" class="edge">
<title>Node2&#45;&gt;Node3</title>
<path fill="none" stroke="midnightblue" d="M162.96,-187.36C130.2,-184.58 84.13,-174.79 61,-143 48.99,-126.49 53.63,-102.29 59.22,-85.66"/>
<polygon fill="midnightblue" stroke="midnightblue" points="62.61,-86.57 62.86,-75.98 56.06,-84.11 62.61,-86.57"/>
</g>
<!-- Node11 -->
<g id="node4" class="node">
<title>Node11</title>
<g id="a_node4"><a xlink:title=" ">
<polygon fill="white" stroke="#bfbfbf" points="161,-0.5 161,-19.5 201,-19.5 201,-0.5 161,-0.5"/>
<text text-anchor="middle" x="181" y="-7.5" font-family="Helvetica,sans-Serif" font-size="10.00">span</text>
</a>
</g>
</g>
<!-- Node2&#45;&gt;Node11 -->
<g id="edge10" class="edge">
<title>Node2&#45;&gt;Node11</title>
<path fill="none" stroke="midnightblue" d="M199.08,-179.46C196.18,-152.43 187.14,-68.24 183.05,-30.11"/>
<polygon fill="midnightblue" stroke="midnightblue" points="186.5,-29.44 181.95,-19.87 179.54,-30.18 186.5,-29.44"/>
</g>
<!-- Node12 -->
<g id="node5" class="node">
<title>Node12</title>
<g id="a_node5"><a xlink:href="drv_2callbacks_8hpp.html" target="_top" xlink:title=" ">
<polygon fill="white" stroke="red" points="70,-118 70,-137 172,-137 172,-118 70,-118"/>
<text text-anchor="middle" x="121" y="-125" font-family="Helvetica,sans-Serif" font-size="10.00">drv/callbacks.hpp</text>
</a>
</g>
</g>
<!-- Node2&#45;&gt;Node12 -->
<g id="edge4" class="edge">
<title>Node2&#45;&gt;Node12</title>
<path fill="none" stroke="midnightblue" d="M188.68,-179.48C176.13,-170.02 155.65,-154.6 140.5,-143.19"/>
<polygon fill="midnightblue" stroke="midnightblue" points="142.39,-140.23 132.3,-137.01 138.18,-145.82 142.39,-140.23"/>
</g>
<!-- Node13 -->
<g id="node6" class="node">
<title>Node13</title>
<g id="a_node6"><a xlink:href="platform_8hpp.html" target="_top" xlink:title=" ">
<polygon fill="white" stroke="red" points="228,-56.5 228,-75.5 308,-75.5 308,-56.5 228,-56.5"/>
<text text-anchor="middle" x="268" y="-63.5" font-family="Helvetica,sans-Serif" font-size="10.00">platform.hpp</text>
</a>
</g>
</g>
<!-- Node2&#45;&gt;Node13 -->
<g id="edge7" class="edge">
<title>Node2&#45;&gt;Node13</title>
<path fill="none" stroke="midnightblue" d="M204.89,-179.3C216.02,-159.5 243.4,-110.78 258.17,-84.49"/>
<polygon fill="midnightblue" stroke="midnightblue" points="261.31,-86.06 263.15,-75.62 255.2,-82.63 261.31,-86.06"/>
</g>
<!-- Node15 -->
<g id="node7" class="node">
<title>Node15</title>
<g id="a_node7"><a xlink:title=" ">
<polygon fill="white" stroke="#bfbfbf" points="266.5,-112.5 266.5,-142.5 399.5,-142.5 399.5,-112.5 266.5,-112.5"/>
<text text-anchor="start" x="274.5" y="-130.5" font-family="Helvetica,sans-Serif" font-size="10.00">emlabcpp/experimental</text>
<text text-anchor="middle" x="333" y="-119.5" font-family="Helvetica,sans-Serif" font-size="10.00">/function_view.h</text>
</a>
</g>
</g>
<!-- Node2&#45;&gt;Node15 -->
<g id="edge9" class="edge">
<title>Node2&#45;&gt;Node15</title>
<path fill="none" stroke="midnightblue" d="M219.06,-179.48C238.08,-170.96 267.91,-157.62 292.28,-146.72"/>
<polygon fill="midnightblue" stroke="midnightblue" points="293.96,-149.8 301.65,-142.52 291.1,-143.41 293.96,-149.8"/>
</g>
<!-- Node3&#45;&gt;Node11 -->
<g id="edge3" class="edge">
<title>Node3&#45;&gt;Node11</title>
<path fill="none" stroke="midnightblue" d="M85.06,-56.44C103.57,-47.68 132.58,-33.94 153.86,-23.86"/>
<polygon fill="midnightblue" stroke="midnightblue" points="155.48,-26.96 163.02,-19.52 152.49,-20.63 155.48,-26.96"/>
</g>
<!-- Node12&#45;&gt;Node3 -->
<g id="edge5" class="edge">
<title>Node12&#45;&gt;Node3</title>
<path fill="none" stroke="midnightblue" d="M113.26,-117.98C105,-108.87 91.72,-94.24 81.51,-82.98"/>
<polygon fill="midnightblue" stroke="midnightblue" points="84.03,-80.56 74.72,-75.51 78.85,-85.27 84.03,-80.56"/>
</g>
<!-- Node12&#45;&gt;Node11 -->
<g id="edge6" class="edge">
<title>Node12&#45;&gt;Node11</title>
<path fill="none" stroke="midnightblue" d="M125.51,-117.82C135.28,-99.01 158.59,-54.15 171.67,-28.96"/>
<polygon fill="midnightblue" stroke="midnightblue" points="174.93,-30.27 176.44,-19.78 168.72,-27.04 174.93,-30.27"/>
</g>
<!-- Node13&#45;&gt;Node11 -->
<g id="edge8" class="edge">
<title>Node13&#45;&gt;Node11</title>
<path fill="none" stroke="midnightblue" d="M254.02,-56.32C240.45,-47.9 219.62,-34.97 203.68,-25.07"/>
<polygon fill="midnightblue" stroke="midnightblue" points="205.29,-21.95 194.94,-19.65 201.59,-27.9 205.29,-21.95"/>
</g>
</g>
</svg>
