<?xml version="1.0" encoding="UTF-8" standalone="no"?>
<!DOCTYPE svg PUBLIC "-//W3C//DTD SVG 1.1//EN"
 "http://www.w3.org/Graphics/SVG/1.1/DTD/svg11.dtd">
<!-- Generated by graphviz version 2.43.0 (0)
 -->
<!-- Title: src/drv/hbridge.hpp Pages: 1 -->
<svg width="688pt" height="258pt"
 viewBox="0.00 0.00 688.00 258.00" xmlns="http://www.w3.org/2000/svg" xmlns:xlink="http://www.w3.org/1999/xlink">
<g id="graph0" class="graph" transform="scale(1 1) rotate(0) translate(4 254)">
<title>src/drv/hbridge.hpp</title>
<!-- Node1 -->
<g id="Node000001" class="node">
<title>Node1</title>
<g id="a_Node000001"><a xlink:title=" ">
<polygon fill="#999999" stroke="#666666" points="429.5,-250 319.5,-250 319.5,-231 429.5,-231 429.5,-250"/>
<text text-anchor="middle" x="374.5" y="-238" font-family="Helvetica,sans-Serif" font-size="10.00">src/drv/hbridge.hpp</text>
</a>
</g>
</g>
<!-- Node2 -->
<g id="Node000002" class="node">
<title>Node2</title>
<g id="a_Node000002"><a xlink:href="platform_8hpp.html" target="_top" xlink:title=" ">
<polygon fill="white" stroke="#666666" points="112.5,-189.5 8.5,-189.5 8.5,-170.5 112.5,-170.5 112.5,-189.5"/>
<text text-anchor="middle" x="60.5" y="-177.5" font-family="Helvetica,sans-Serif" font-size="10.00">../plt/platform.hpp</text>
</a>
</g>
</g>
<!-- Node1&#45;&gt;Node2 -->
<g id="edge1_Node000001_Node000002" class="edge">
<title>Node1&#45;&gt;Node2</title>
<g id="a_edge1_Node000001_Node000002"><a xlink:title=" ">
<path fill="none" stroke="#63b8ff" d="M328.84,-230.99C272.57,-220.51 176.97,-202.7 116.37,-191.41"/>
<polygon fill="#63b8ff" stroke="#63b8ff" points="116.69,-187.91 106.21,-189.52 115.4,-194.79 116.69,-187.91"/>
</a>
</g>
</g>
<!-- Node5 -->
<g id="Node000005" class="node">
<title>Node5</title>
<g id="a_Node000005"><a xlink:href="sentry_8hpp.html" target="_top" xlink:title=" ">
<polygon fill="white" stroke="#666666" points="294.5,-189.5 196.5,-189.5 196.5,-170.5 294.5,-170.5 294.5,-189.5"/>
<text text-anchor="middle" x="245.5" y="-177.5" font-family="Helvetica,sans-Serif" font-size="10.00">../sntr/sentry.hpp</text>
</a>
</g>
</g>
<!-- Node1&#45;&gt;Node5 -->
<g id="edge3_Node000001_Node000005" class="edge">
<title>Node1&#45;&gt;Node5</title>
<g id="a_edge3_Node000001_Node000005"><a xlink:title=" ">
<path fill="none" stroke="#63b8ff" d="M355.74,-230.99C334.15,-221.2 298.47,-205.02 273.57,-193.73"/>
<polygon fill="#63b8ff" stroke="#63b8ff" points="274.83,-190.46 264.28,-189.52 271.94,-196.83 274.83,-190.46"/>
</a>
</g>
</g>
<!-- Node16 -->
<g id="Node000016" class="node">
<title>Node16</title>
<g id="a_Node000016"><a xlink:href="drv_2callbacks_8hpp.html" target="_top" xlink:title=" ">
<polygon fill="white" stroke="#666666" points="529,-189.5 440,-189.5 440,-170.5 529,-170.5 529,-189.5"/>
<text text-anchor="middle" x="484.5" y="-177.5" font-family="Helvetica,sans-Serif" font-size="10.00">./callbacks.hpp</text>
</a>
</g>
</g>
<!-- Node1&#45;&gt;Node16 -->
<g id="edge10_Node000001_Node000016" class="edge">
<title>Node1&#45;&gt;Node16</title>
<g id="a_edge10_Node000001_Node000016"><a xlink:title=" ">
<path fill="none" stroke="#63b8ff" d="M390.73,-230.87C408.77,-221.28 438.12,-205.67 459.18,-194.47"/>
<polygon fill="#63b8ff" stroke="#63b8ff" points="461.02,-197.45 468.2,-189.67 457.73,-191.27 461.02,-197.45"/>
</a>
</g>
</g>
<!-- Node17 -->
<g id="Node000017" class="node">
<title>Node17</title>
<g id="a_Node000017"><a xlink:href="interfaces_8hpp.html" target="_top" xlink:title=" ">
<polygon fill="#fff0f0" stroke="red" points="401.5,-129 309.5,-129 309.5,-110 401.5,-110 401.5,-129"/>
<text text-anchor="middle" x="355.5" y="-117" font-family="Helvetica,sans-Serif" font-size="10.00">./interfaces.hpp</text>
</a>
</g>
</g>
<!-- Node1&#45;&gt;Node17 -->
<g id="edge16_Node000001_Node000017" class="edge">
<title>Node1&#45;&gt;Node17</title>
<g id="a_edge16_Node000001_Node000017"><a xlink:title=" ">
<path fill="none" stroke="#63b8ff" d="M373.13,-230.94C370.09,-211.91 362.72,-165.69 358.53,-139.47"/>
<polygon fill="#63b8ff" stroke="#63b8ff" points="361.94,-138.62 356.91,-129.3 355.03,-139.73 361.94,-138.62"/>
</a>
</g>
</g>
<!-- Node24 -->
<g id="Node000024" class="node">
<title>Node24</title>
<g id="a_Node000024"><a xlink:title=" ">
<polygon fill="#e0e0e0" stroke="#999999" points="449.5,-74 409.5,-74 409.5,-55 449.5,-55 449.5,-74"/>
<text text-anchor="middle" x="429.5" y="-62" font-family="Helvetica,sans-Serif" font-size="10.00">span</text>
</a>
</g>
</g>
<!-- Node1&#45;&gt;Node24 -->
<g id="edge18_Node000001_Node000024" class="edge">
<title>Node1&#45;&gt;Node24</title>
<g id="a_edge18_Node000001_Node000024"><a xlink:title=" ">
<path fill="none" stroke="#63b8ff" d="M377.37,-230.93C383.57,-212.38 398.59,-167.13 410.5,-129 415.22,-113.88 420.36,-96.66 424.1,-83.97"/>
<polygon fill="#63b8ff" stroke="#63b8ff" points="427.53,-84.73 426.98,-74.15 420.81,-82.76 427.53,-84.73"/>
</a>
</g>
</g>
<!-- Node25 -->
<g id="Node000025" class="node">
<title>Node25</title>
<g id="a_Node000025"><a xlink:title=" ">
<polygon fill="#e0e0e0" stroke="#999999" points="680,-195 547,-195 547,-165 680,-165 680,-195"/>
<text text-anchor="start" x="555" y="-183" font-family="Helvetica,sans-Serif" font-size="10.00">emlabcpp/experimental</text>
<text text-anchor="middle" x="613.5" y="-172" font-family="Helvetica,sans-Serif" font-size="10.00">/function_view.h</text>
</a>
</g>
</g>
<!-- Node1&#45;&gt;Node25 -->
<g id="edge17_Node000001_Node000025" class="edge">
<title>Node1&#45;&gt;Node25</title>
<g id="a_edge17_Node000001_Node000025"><a xlink:title=" ">
<path fill="none" stroke="#63b8ff" d="M409.25,-230.99C445,-222.24 501.59,-208.39 546.15,-197.48"/>
<polygon fill="#63b8ff" stroke="#63b8ff" points="547.16,-200.84 556.04,-195.06 545.5,-194.04 547.16,-200.84"/>
</a>
</g>
</g>
<!-- Node3 -->
<g id="Node000003" class="node">
<title>Node3</title>
<g id="a_Node000003"><a xlink:href="hal_8hpp.html" target="_top" xlink:title=" ">
<polygon fill="#fff0f0" stroke="red" points="53,-129 0,-129 0,-110 53,-110 53,-129"/>
<text text-anchor="middle" x="26.5" y="-117" font-family="Helvetica,sans-Serif" font-size="10.00">hal.hpp</text>
</a>
</g>
</g>
<!-- Node2&#45;&gt;Node3 -->
<g id="edge2_Node000002_Node000003" class="edge">
<title>Node2&#45;&gt;Node3</title>
<g id="a_edge2_Node000002_Node000003"><a xlink:title=" ">
<path fill="none" stroke="#63b8ff" d="M55.48,-170.37C50.56,-161.9 42.91,-148.74 36.71,-138.07"/>
<polygon fill="#63b8ff" stroke="#63b8ff" points="39.59,-136.05 31.54,-129.17 33.54,-139.57 39.59,-136.05"/>
</a>
</g>
</g>
<!-- Node6 -->
<g id="Node000006" class="node">
<title>Node6</title>
<g id="a_Node000006"><a xlink:href="sntr_2base_8hpp.html" target="_top" xlink:title=" ">
<polygon fill="#fff0f0" stroke="red" points="265,-74 198,-74 198,-55 265,-55 265,-74"/>
<text text-anchor="middle" x="231.5" y="-62" font-family="Helvetica,sans-Serif" font-size="10.00">./base.hpp</text>
</a>
</g>
</g>
<!-- Node5&#45;&gt;Node6 -->
<g id="edge4_Node000005_Node000006" class="edge">
<title>Node5&#45;&gt;Node6</title>
<g id="a_edge4_Node000005_Node000006"><a xlink:title=" ">
<path fill="none" stroke="#63b8ff" d="M250.63,-170.41C257.8,-157.26 269.23,-131.42 262.5,-110 259.27,-99.71 252.72,-89.72 246.47,-81.82"/>
<polygon fill="#63b8ff" stroke="#63b8ff" points="249.11,-79.52 239.98,-74.15 243.77,-84.04 249.11,-79.52"/>
</a>
</g>
</g>
<!-- Node14 -->
<g id="Node000014" class="node">
<title>Node14</title>
<g id="a_Node000014"><a xlink:title=" ">
<polygon fill="#e0e0e0" stroke="#999999" points="157,-19 106,-19 106,0 157,0 157,-19"/>
<text text-anchor="middle" x="131.5" y="-7" font-family="Helvetica,sans-Serif" font-size="10.00">variant</text>
</a>
</g>
</g>
<!-- Node5&#45;&gt;Node14 -->
<g id="edge9_Node000005_Node000014" class="edge">
<title>Node5&#45;&gt;Node14</title>
<g id="a_edge9_Node000005_Node000014"><a xlink:title=" ">
<path fill="none" stroke="#63b8ff" d="M196.5,-176.2C163.48,-171.46 122.14,-159.35 100.5,-129 78.28,-97.83 102.63,-51.91 119.05,-27.39"/>
<polygon fill="#63b8ff" stroke="#63b8ff" points="121.98,-29.31 124.84,-19.11 116.24,-25.3 121.98,-29.31"/>
</a>
</g>
</g>
<!-- Node15 -->
<g id="Node000015" class="node">
<title>Node15</title>
<g id="a_Node000015"><a xlink:href="central__sentry__iface_8hpp.html" target="_top" xlink:title=" ">
<polygon fill="white" stroke="#666666" points="253,-129 110,-129 110,-110 253,-110 253,-129"/>
<text text-anchor="middle" x="181.5" y="-117" font-family="Helvetica,sans-Serif" font-size="10.00">./central_sentry_iface.hpp</text>
</a>
</g>
</g>
<!-- Node5&#45;&gt;Node15 -->
<g id="edge7_Node000005_Node000015" class="edge">
<title>Node5&#45;&gt;Node15</title>
<g id="a_edge7_Node000005_Node000015"><a xlink:title=" ">
<path fill="none" stroke="#63b8ff" d="M236.06,-170.37C226.23,-161.38 210.61,-147.11 198.61,-136.14"/>
<polygon fill="#63b8ff" stroke="#63b8ff" points="200.72,-133.33 190.98,-129.17 196,-138.5 200.72,-133.33"/>
</a>
</g>
</g>
<!-- Node9 -->
<g id="Node000009" class="node">
<title>Node9</title>
<g id="a_Node000009"><a xlink:title=" ">
<polygon fill="#e0e0e0" stroke="#999999" points="380.5,-19 330.5,-19 330.5,0 380.5,0 380.5,-19"/>
<text text-anchor="middle" x="355.5" y="-7" font-family="Helvetica,sans-Serif" font-size="10.00">cstdint</text>
</a>
</g>
</g>
<!-- Node6&#45;&gt;Node9 -->
<g id="edge5_Node000006_Node000009" class="edge">
<title>Node6&#45;&gt;Node9</title>
<g id="a_edge5_Node000006_Node000009"><a xlink:title=" ">
<path fill="none" stroke="#63b8ff" d="M251.42,-54.98C271.55,-46.38 302.88,-32.99 325.91,-23.15"/>
<polygon fill="#63b8ff" stroke="#63b8ff" points="327.4,-26.32 335.21,-19.17 324.64,-19.88 327.4,-26.32"/>
</a>
</g>
</g>
<!-- Node6&#45;&gt;Node14 -->
<g id="edge6_Node000006_Node000014" class="edge">
<title>Node6&#45;&gt;Node14</title>
<g id="a_edge6_Node000006_Node000014"><a xlink:title=" ">
<path fill="none" stroke="#63b8ff" d="M215.43,-54.98C199.64,-46.61 175.28,-33.7 156.87,-23.95"/>
<polygon fill="#63b8ff" stroke="#63b8ff" points="158.33,-20.76 147.86,-19.17 155.06,-26.95 158.33,-20.76"/>
</a>
</g>
</g>
<!-- Node15&#45;&gt;Node6 -->
<g id="edge8_Node000015_Node000006" class="edge">
<title>Node15&#45;&gt;Node6</title>
<g id="a_edge8_Node000015_Node000006"><a xlink:title=" ">
<path fill="none" stroke="#63b8ff" d="M189.76,-109.75C196.96,-102.11 207.61,-90.82 216.35,-81.56"/>
<polygon fill="#63b8ff" stroke="#63b8ff" points="219.08,-83.76 223.4,-74.09 213.99,-78.96 219.08,-83.76"/>
</a>
</g>
</g>
<!-- Node16&#45;&gt;Node9 -->
<g id="edge14_Node000016_Node000009" class="edge">
<title>Node16&#45;&gt;Node9</title>
<g id="a_edge14_Node000016_Node000009"><a xlink:title=" ">
<path fill="none" stroke="#63b8ff" d="M485.21,-170.36C486.54,-148.43 487.02,-89.92 458.5,-55 441.62,-34.33 413.3,-23.04 390.63,-17.01"/>
<polygon fill="#63b8ff" stroke="#63b8ff" points="391.21,-13.55 380.67,-14.59 389.56,-20.35 391.21,-13.55"/>
</a>
</g>
</g>
<!-- Node16&#45;&gt;Node17 -->
<g id="edge11_Node000016_Node000017" class="edge">
<title>Node16&#45;&gt;Node17</title>
<g id="a_edge11_Node000016_Node000017"><a xlink:title=" ">
<path fill="none" stroke="#63b8ff" d="M465.74,-170.49C444.15,-160.7 408.47,-144.52 383.57,-133.23"/>
<polygon fill="#63b8ff" stroke="#63b8ff" points="384.83,-129.96 374.28,-129.02 381.94,-136.33 384.83,-129.96"/>
</a>
</g>
</g>
<!-- Node16&#45;&gt;Node24 -->
<g id="edge15_Node000016_Node000024" class="edge">
<title>Node16&#45;&gt;Node24</title>
<g id="a_edge15_Node000016_Node000024"><a xlink:title=" ">
<path fill="none" stroke="#63b8ff" d="M480.37,-170.47C471.41,-151.98 450.05,-107.9 438.05,-83.14"/>
<polygon fill="#63b8ff" stroke="#63b8ff" points="441.19,-81.6 433.68,-74.13 434.89,-84.66 441.19,-81.6"/>
</a>
</g>
</g>
<!-- Node17&#45;&gt;Node9 -->
<g id="edge12_Node000017_Node000009" class="edge">
<title>Node17&#45;&gt;Node9</title>
<g id="a_edge12_Node000017_Node000009"><a xlink:title=" ">
<path fill="none" stroke="#63b8ff" d="M355.5,-109.66C355.5,-92.17 355.5,-52.8 355.5,-29.27"/>
<polygon fill="#63b8ff" stroke="#63b8ff" points="359,-29.16 355.5,-19.16 352,-29.16 359,-29.16"/>
</a>
</g>
</g>
<!-- Node17&#45;&gt;Node24 -->
<g id="edge13_Node000017_Node000024" class="edge">
<title>Node17&#45;&gt;Node24</title>
<g id="a_edge13_Node000017_Node000024"><a xlink:title=" ">
<path fill="none" stroke="#63b8ff" d="M367.39,-109.98C378.65,-101.92 395.79,-89.65 409.21,-80.03"/>
<polygon fill="#63b8ff" stroke="#63b8ff" points="411.3,-82.84 417.39,-74.17 407.23,-77.15 411.3,-82.84"/>
</a>
</g>
</g>
</g>
</svg>
