<?xml version="1.0" encoding="UTF-8" standalone="no"?>
<!DOCTYPE svg PUBLIC "-//W3C//DTD SVG 1.1//EN"
 "http://www.w3.org/Graphics/SVG/1.1/DTD/svg11.dtd">
<!-- Generated by graphviz version 2.43.0 (0)
 -->
<!-- Title: src/drv/hbridge.hpp Pages: 1 -->
<svg width="612pt" height="263pt"
 viewBox="0.00 0.00 612.00 263.00" xmlns="http://www.w3.org/2000/svg" xmlns:xlink="http://www.w3.org/1999/xlink">
<g id="graph0" class="graph" transform="scale(1 1) rotate(0) translate(4 259)">
<title>src/drv/hbridge.hpp</title>
<polygon fill="white" stroke="transparent" points="-4,4 -4,-259 608,-259 608,4 -4,4"/>
<!-- Node1 -->
<g id="node1" class="node">
<title>Node1</title>
<g id="a_node1"><a xlink:title=" ">
<polygon fill="#bfbfbf" stroke="black" points="204.5,-235.5 204.5,-254.5 314.5,-254.5 314.5,-235.5 204.5,-235.5"/>
<text text-anchor="middle" x="259.5" y="-242.5" font-family="Helvetica,sans-Serif" font-size="10.00">src/drv/hbridge.hpp</text>
</a>
</g>
</g>
<!-- Node2 -->
<g id="node2" class="node">
<title>Node2</title>
<g id="a_node2"><a xlink:href="drv_2callbacks_8hpp.html" target="_top" xlink:title=" ">
<polygon fill="white" stroke="black" points="80.5,-174 80.5,-193 182.5,-193 182.5,-174 80.5,-174"/>
<text text-anchor="middle" x="131.5" y="-181" font-family="Helvetica,sans-Serif" font-size="10.00">drv/callbacks.hpp</text>
</a>
</g>
</g>
<!-- Node1&#45;&gt;Node2 -->
<g id="edge1" class="edge">
<title>Node1&#45;&gt;Node2</title>
<path fill="none" stroke="midnightblue" d="M241.16,-235.48C219.68,-225.49 183.88,-208.85 159.05,-197.31"/>
<polygon fill="midnightblue" stroke="midnightblue" points="160.35,-194.05 149.81,-193.01 157.4,-200.4 160.35,-194.05"/>
</g>
<!-- Node3 -->
<g id="node3" class="node">
<title>Node3</title>
<g id="a_node3"><a xlink:href="interfaces_8hpp.html" target="_top" xlink:title=" ">
<polygon fill="white" stroke="red" points="0,-112.5 0,-131.5 105,-131.5 105,-112.5 0,-112.5"/>
<text text-anchor="middle" x="52.5" y="-119.5" font-family="Helvetica,sans-Serif" font-size="10.00">drv/interfaces.hpp</text>
</a>
</g>
</g>
<!-- Node1&#45;&gt;Node3 -->
<g id="edge7" class="edge">
<title>Node1&#45;&gt;Node3</title>
<path fill="none" stroke="midnightblue" d="M204.37,-237.2C155.85,-230.1 90.1,-217.42 71.5,-199 56.5,-184.15 52.7,-159.38 52.04,-142.17"/>
<polygon fill="midnightblue" stroke="midnightblue" points="55.54,-141.66 51.98,-131.68 48.54,-141.7 55.54,-141.66"/>
</g>
<!-- Node19 -->
<g id="node5" class="node">
<title>Node19</title>
<g id="a_node5"><a xlink:title=" ">
<polygon fill="white" stroke="#bfbfbf" points="103.5,-56.5 103.5,-75.5 143.5,-75.5 143.5,-56.5 103.5,-56.5"/>
<text text-anchor="middle" x="123.5" y="-63.5" font-family="Helvetica,sans-Serif" font-size="10.00">span</text>
</a>
</g>
</g>
<!-- Node1&#45;&gt;Node19 -->
<g id="edge18" class="edge">
<title>Node1&#45;&gt;Node19</title>
<path fill="none" stroke="midnightblue" d="M252.94,-235.46C231.81,-207.96 165.24,-121.32 136.7,-84.18"/>
<polygon fill="midnightblue" stroke="midnightblue" points="139.18,-81.67 130.31,-75.87 133.63,-85.93 139.18,-81.67"/>
</g>
<!-- Node20 -->
<g id="node6" class="node">
<title>Node20</title>
<g id="a_node6"><a xlink:href="platform_8hpp.html" target="_top" xlink:title=" ">
<polygon fill="white" stroke="black" points="372.5,-174 372.5,-193 452.5,-193 452.5,-174 372.5,-174"/>
<text text-anchor="middle" x="412.5" y="-181" font-family="Helvetica,sans-Serif" font-size="10.00">platform.hpp</text>
</a>
</g>
</g>
<!-- Node1&#45;&gt;Node20 -->
<g id="edge8" class="edge">
<title>Node1&#45;&gt;Node20</title>
<path fill="none" stroke="midnightblue" d="M281.42,-235.48C307.55,-225.31 351.41,-208.26 381.13,-196.7"/>
<polygon fill="midnightblue" stroke="midnightblue" points="382.57,-199.9 390.62,-193.01 380.03,-193.37 382.57,-199.9"/>
</g>
<!-- Node23 -->
<g id="node8" class="node">
<title>Node23</title>
<g id="a_node8"><a xlink:href="sentry_8hpp.html" target="_top" xlink:title=" ">
<polygon fill="white" stroke="black" points="265,-174 265,-193 354,-193 354,-174 265,-174"/>
<text text-anchor="middle" x="309.5" y="-181" font-family="Helvetica,sans-Serif" font-size="10.00">sntr/sentry.hpp</text>
</a>
</g>
</g>
<!-- Node1&#45;&gt;Node23 -->
<g id="edge10" class="edge">
<title>Node1&#45;&gt;Node23</title>
<path fill="none" stroke="midnightblue" d="M266.66,-235.48C274.24,-226.46 286.37,-212.02 295.79,-200.81"/>
<polygon fill="midnightblue" stroke="midnightblue" points="298.6,-202.92 302.35,-193.01 293.24,-198.41 298.6,-202.92"/>
</g>
<!-- Node28 -->
<g id="node12" class="node">
<title>Node28</title>
<g id="a_node12"><a xlink:title=" ">
<polygon fill="white" stroke="#bfbfbf" points="471,-168.5 471,-198.5 604,-198.5 604,-168.5 471,-168.5"/>
<text text-anchor="start" x="479" y="-186.5" font-family="Helvetica,sans-Serif" font-size="10.00">emlabcpp/experimental</text>
<text text-anchor="middle" x="537.5" y="-175.5" font-family="Helvetica,sans-Serif" font-size="10.00">/function_view.h</text>
</a>
</g>
</g>
<!-- Node1&#45;&gt;Node28 -->
<g id="edge17" class="edge">
<title>Node1&#45;&gt;Node28</title>
<path fill="none" stroke="midnightblue" d="M299.33,-235.48C341.64,-226.42 409.54,-211.89 462.03,-200.65"/>
<polygon fill="midnightblue" stroke="midnightblue" points="462.93,-204.04 471.98,-198.52 461.47,-197.19 462.93,-204.04"/>
</g>
<!-- Node2&#45;&gt;Node3 -->
<g id="edge2" class="edge">
<title>Node2&#45;&gt;Node3</title>
<path fill="none" stroke="midnightblue" d="M120.18,-173.98C107.63,-164.52 87.15,-149.1 72,-137.69"/>
<polygon fill="midnightblue" stroke="midnightblue" points="73.89,-134.73 63.8,-131.51 69.68,-140.32 73.89,-134.73"/>
</g>
<!-- Node6 -->
<g id="node4" class="node">
<title>Node6</title>
<g id="a_node4"><a xlink:title=" ">
<polygon fill="white" stroke="#bfbfbf" points="146.5,-0.5 146.5,-19.5 196.5,-19.5 196.5,-0.5 146.5,-0.5"/>
<text text-anchor="middle" x="171.5" y="-7.5" font-family="Helvetica,sans-Serif" font-size="10.00">cstdint</text>
</a>
</g>
</g>
<!-- Node2&#45;&gt;Node6 -->
<g id="edge5" class="edge">
<title>Node2&#45;&gt;Node6</title>
<path fill="none" stroke="midnightblue" d="M133.54,-173.76C139.77,-147.04 158.67,-66.02 167.22,-29.36"/>
<polygon fill="midnightblue" stroke="midnightblue" points="170.65,-30.05 169.51,-19.52 163.83,-28.46 170.65,-30.05"/>
</g>
<!-- Node2&#45;&gt;Node19 -->
<g id="edge6" class="edge">
<title>Node2&#45;&gt;Node19</title>
<path fill="none" stroke="midnightblue" d="M130.9,-173.82C129.61,-155.26 126.57,-111.34 124.81,-85.97"/>
<polygon fill="midnightblue" stroke="midnightblue" points="128.29,-85.52 124.11,-75.78 121.31,-86 128.29,-85.52"/>
</g>
<!-- Node3&#45;&gt;Node6 -->
<g id="edge3" class="edge">
<title>Node3&#45;&gt;Node6</title>
<path fill="none" stroke="midnightblue" d="M56.57,-112.08C63.05,-98.62 76.83,-72.9 94.5,-56 108.4,-42.71 126.94,-31.72 142.35,-23.93"/>
<polygon fill="midnightblue" stroke="midnightblue" points="144,-27.02 151.46,-19.5 140.94,-20.72 144,-27.02"/>
</g>
<!-- Node3&#45;&gt;Node19 -->
<g id="edge4" class="edge">
<title>Node3&#45;&gt;Node19</title>
<path fill="none" stroke="midnightblue" d="M63.91,-112.32C74.61,-104.18 90.84,-91.84 103.66,-82.09"/>
<polygon fill="midnightblue" stroke="midnightblue" points="106.04,-84.67 111.89,-75.83 101.81,-79.1 106.04,-84.67"/>
</g>
<!-- Node21 -->
<g id="node7" class="node">
<title>Node21</title>
<g id="a_node7"><a xlink:href="hal_8hpp.html" target="_top" xlink:title=" ">
<polygon fill="white" stroke="red" points="476,-112.5 476,-131.5 529,-131.5 529,-112.5 476,-112.5"/>
<text text-anchor="middle" x="502.5" y="-119.5" font-family="Helvetica,sans-Serif" font-size="10.00">hal.hpp</text>
</a>
</g>
</g>
<!-- Node20&#45;&gt;Node21 -->
<g id="edge9" class="edge">
<title>Node20&#45;&gt;Node21</title>
<path fill="none" stroke="midnightblue" d="M425.39,-173.98C439.96,-164.34 463.9,-148.52 481.25,-137.05"/>
<polygon fill="midnightblue" stroke="midnightblue" points="483.22,-139.94 489.63,-131.51 479.36,-134.1 483.22,-139.94"/>
</g>
<!-- Node24 -->
<g id="node9" class="node">
<title>Node24</title>
<g id="a_node9"><a xlink:href="sntr_2base_8hpp.html" target="_top" xlink:title=" ">
<polygon fill="white" stroke="red" points="310,-56.5 310,-75.5 377,-75.5 377,-56.5 310,-56.5"/>
<text text-anchor="middle" x="343.5" y="-63.5" font-family="Helvetica,sans-Serif" font-size="10.00">./base.hpp</text>
</a>
</g>
</g>
<!-- Node23&#45;&gt;Node24 -->
<g id="edge11" class="edge">
<title>Node23&#45;&gt;Node24</title>
<path fill="none" stroke="midnightblue" d="M335.8,-173.94C354.74,-166.24 378.92,-152.87 390.5,-132 400.69,-113.65 382.58,-94.37 365.97,-81.62"/>
<polygon fill="midnightblue" stroke="midnightblue" points="367.74,-78.59 357.58,-75.59 363.66,-84.27 367.74,-78.59"/>
</g>
<!-- Node26 -->
<g id="node10" class="node">
<title>Node26</title>
<g id="a_node10"><a xlink:title=" ">
<polygon fill="white" stroke="#bfbfbf" points="387,-0.5 387,-19.5 438,-19.5 438,-0.5 387,-0.5"/>
<text text-anchor="middle" x="412.5" y="-7.5" font-family="Helvetica,sans-Serif" font-size="10.00">variant</text>
</a>
</g>
</g>
<!-- Node23&#45;&gt;Node26 -->
<g id="edge16" class="edge">
<title>Node23&#45;&gt;Node26</title>
<path fill="none" stroke="midnightblue" d="M343.39,-173.97C365.02,-166.63 391.53,-153.69 405.5,-132 425.56,-100.86 421.34,-55.33 416.75,-29.93"/>
<polygon fill="midnightblue" stroke="midnightblue" points="420.11,-28.9 414.7,-19.79 413.25,-30.29 420.11,-28.9"/>
</g>
<!-- Node27 -->
<g id="node11" class="node">
<title>Node27</title>
<g id="a_node11"><a xlink:href="central__sentry__iface_8hpp.html" target="_top" xlink:title=" ">
<polygon fill="white" stroke="black" points="238,-112.5 238,-131.5 381,-131.5 381,-112.5 238,-112.5"/>
<text text-anchor="middle" x="309.5" y="-119.5" font-family="Helvetica,sans-Serif" font-size="10.00">./central_sentry_iface.hpp</text>
</a>
</g>
</g>
<!-- Node23&#45;&gt;Node27 -->
<g id="edge14" class="edge">
<title>Node23&#45;&gt;Node27</title>
<path fill="none" stroke="midnightblue" d="M309.5,-173.98C309.5,-165.58 309.5,-152.48 309.5,-141.66"/>
<polygon fill="midnightblue" stroke="midnightblue" points="313,-141.51 309.5,-131.51 306,-141.51 313,-141.51"/>
</g>
<!-- Node24&#45;&gt;Node6 -->
<g id="edge12" class="edge">
<title>Node24&#45;&gt;Node6</title>
<path fill="none" stroke="midnightblue" d="M316.25,-56.44C286.59,-47.13 239.07,-32.21 206.63,-22.03"/>
<polygon fill="midnightblue" stroke="midnightblue" points="207.26,-18.56 196.67,-18.9 205.16,-25.24 207.26,-18.56"/>
</g>
<!-- Node24&#45;&gt;Node26 -->
<g id="edge13" class="edge">
<title>Node24&#45;&gt;Node26</title>
<path fill="none" stroke="midnightblue" d="M354.59,-56.32C364.99,-48.18 380.76,-35.84 393.22,-26.09"/>
<polygon fill="midnightblue" stroke="midnightblue" points="395.49,-28.75 401.21,-19.83 391.18,-23.24 395.49,-28.75"/>
</g>
<!-- Node27&#45;&gt;Node24 -->
<g id="edge15" class="edge">
<title>Node27&#45;&gt;Node24</title>
<path fill="none" stroke="midnightblue" d="M315.11,-112.08C319.87,-104.53 326.82,-93.49 332.65,-84.23"/>
<polygon fill="midnightblue" stroke="midnightblue" points="335.62,-86.08 337.99,-75.75 329.7,-82.35 335.62,-86.08"/>
</g>
</g>
</svg>
