<?xml version="1.0" encoding="UTF-8" standalone="no"?>
<!DOCTYPE svg PUBLIC "-//W3C//DTD SVG 1.1//EN"
 "http://www.w3.org/Graphics/SVG/1.1/DTD/svg11.dtd">
<!-- Generated by graphviz version 2.43.0 (0)
 -->
<!-- Title: src/fw/drv/hbridge.cpp Pages: 1 -->
<svg width="496pt" height="207pt"
 viewBox="0.00 0.00 495.50 207.00" xmlns="http://www.w3.org/2000/svg" xmlns:xlink="http://www.w3.org/1999/xlink">
<g id="graph0" class="graph" transform="scale(1 1) rotate(0) translate(4 203)">
<title>src/fw/drv/hbridge.cpp</title>
<polygon fill="white" stroke="transparent" points="-4,4 -4,-203 491.5,-203 491.5,4 -4,4"/>
<!-- Node1 -->
<g id="node1" class="node">
<title>Node1</title>
<g id="a_node1"><a xlink:title=" ">
<polygon fill="#bfbfbf" stroke="black" points="145,-179.5 145,-198.5 269,-198.5 269,-179.5 145,-179.5"/>
<text text-anchor="middle" x="207" y="-186.5" font-family="Helvetica,sans-Serif" font-size="10.00">src/fw/drv/hbridge.cpp</text>
</a>
</g>
</g>
<!-- Node2 -->
<g id="node2" class="node">
<title>Node2</title>
<g id="a_node2"><a xlink:href="hbridge_8hpp.html" target="_top" xlink:title=" ">
<polygon fill="white" stroke="black" points="170,-123.5 170,-142.5 244,-142.5 244,-123.5 170,-123.5"/>
<text text-anchor="middle" x="207" y="-130.5" font-family="Helvetica,sans-Serif" font-size="10.00">hbridge.hpp</text>
</a>
</g>
</g>
<!-- Node1&#45;&gt;Node2 -->
<g id="edge1" class="edge">
<title>Node1&#45;&gt;Node2</title>
<path fill="none" stroke="midnightblue" d="M207,-179.08C207,-172.01 207,-161.86 207,-152.99"/>
<polygon fill="midnightblue" stroke="midnightblue" points="210.5,-152.75 207,-142.75 203.5,-152.75 210.5,-152.75"/>
</g>
<!-- Node9 -->
<g id="node8" class="node">
<title>Node9</title>
<g id="a_node8"><a xlink:href="drv_2callbacks_8hpp.html" target="_top" xlink:title=" ">
<polygon fill="white" stroke="black" points="5,-123.5 5,-142.5 121,-142.5 121,-123.5 5,-123.5"/>
<text text-anchor="middle" x="63" y="-130.5" font-family="Helvetica,sans-Serif" font-size="10.00">fw/drv/callbacks.hpp</text>
</a>
</g>
</g>
<!-- Node1&#45;&gt;Node9 -->
<g id="edge8" class="edge">
<title>Node1&#45;&gt;Node9</title>
<path fill="none" stroke="midnightblue" d="M184.18,-179.44C160.17,-170.44 122.17,-156.19 95.13,-146.05"/>
<polygon fill="midnightblue" stroke="midnightblue" points="96.3,-142.75 85.71,-142.52 93.84,-149.3 96.3,-142.75"/>
</g>
<!-- Node10 -->
<g id="node9" class="node">
<title>Node10</title>
<g id="a_node9"><a xlink:title=" ">
<polygon fill="white" stroke="#bfbfbf" points="262,-123.5 262,-142.5 386,-142.5 386,-123.5 262,-123.5"/>
<text text-anchor="middle" x="324" y="-130.5" font-family="Helvetica,sans-Serif" font-size="10.00">emlabcpp/algorithm.h</text>
</a>
</g>
</g>
<!-- Node1&#45;&gt;Node10 -->
<g id="edge12" class="edge">
<title>Node1&#45;&gt;Node10</title>
<path fill="none" stroke="midnightblue" d="M225.54,-179.44C244.62,-170.64 274.57,-156.81 296.44,-146.72"/>
<polygon fill="midnightblue" stroke="midnightblue" points="297.93,-149.88 305.55,-142.52 295,-143.53 297.93,-149.88"/>
</g>
<!-- Node3 -->
<g id="node3" class="node">
<title>Node3</title>
<g id="a_node3"><a xlink:href="interfaces_8hpp.html" target="_top" xlink:title=" ">
<polygon fill="white" stroke="red" points="59.5,-62 59.5,-81 178.5,-81 178.5,-62 59.5,-62"/>
<text text-anchor="middle" x="119" y="-69" font-family="Helvetica,sans-Serif" font-size="10.00">fw/drv/interfaces.hpp</text>
</a>
</g>
</g>
<!-- Node2&#45;&gt;Node3 -->
<g id="edge2" class="edge">
<title>Node2&#45;&gt;Node3</title>
<path fill="none" stroke="midnightblue" d="M194.39,-123.48C180.28,-113.93 157.17,-98.31 140.25,-86.87"/>
<polygon fill="midnightblue" stroke="midnightblue" points="141.83,-83.71 131.58,-81.01 137.91,-89.51 141.83,-83.71"/>
</g>
<!-- Node6 -->
<g id="node5" class="node">
<title>Node6</title>
<g id="a_node5"><a xlink:title=" ">
<polygon fill="white" stroke="#bfbfbf" points="99,-0.5 99,-19.5 139,-19.5 139,-0.5 99,-0.5"/>
<text text-anchor="middle" x="119" y="-7.5" font-family="Helvetica,sans-Serif" font-size="10.00">span</text>
</a>
</g>
</g>
<!-- Node2&#45;&gt;Node6 -->
<g id="edge6" class="edge">
<title>Node2&#45;&gt;Node6</title>
<path fill="none" stroke="midnightblue" d="M206.83,-123.17C206.13,-108.05 202.83,-76.83 188,-56 178.09,-42.09 162.41,-31.36 148.5,-23.88"/>
<polygon fill="midnightblue" stroke="midnightblue" points="149.75,-20.59 139.24,-19.21 146.6,-26.84 149.75,-20.59"/>
</g>
<!-- Node7 -->
<g id="node6" class="node">
<title>Node7</title>
<g id="a_node6"><a xlink:title=" ">
<polygon fill="white" stroke="#bfbfbf" points="235.5,-56.5 235.5,-86.5 368.5,-86.5 368.5,-56.5 235.5,-56.5"/>
<text text-anchor="start" x="243.5" y="-74.5" font-family="Helvetica,sans-Serif" font-size="10.00">emlabcpp/experimental</text>
<text text-anchor="middle" x="302" y="-63.5" font-family="Helvetica,sans-Serif" font-size="10.00">/function_view.h</text>
</a>
</g>
</g>
<!-- Node2&#45;&gt;Node7 -->
<g id="edge5" class="edge">
<title>Node2&#45;&gt;Node7</title>
<path fill="none" stroke="midnightblue" d="M220.61,-123.48C233.72,-115.27 254.01,-102.56 271.05,-91.88"/>
<polygon fill="midnightblue" stroke="midnightblue" points="272.99,-94.8 279.61,-86.52 269.28,-88.86 272.99,-94.8"/>
</g>
<!-- Node8 -->
<g id="node7" class="node">
<title>Node8</title>
<g id="a_node7"><a xlink:title=" ">
<polygon fill="white" stroke="#bfbfbf" points="386.5,-62 386.5,-81 487.5,-81 487.5,-62 386.5,-62"/>
<text text-anchor="middle" x="437" y="-69" font-family="Helvetica,sans-Serif" font-size="10.00">stm32g4xx_hal.h</text>
</a>
</g>
</g>
<!-- Node2&#45;&gt;Node8 -->
<g id="edge7" class="edge">
<title>Node2&#45;&gt;Node8</title>
<path fill="none" stroke="midnightblue" d="M239.95,-123.48C280.6,-112.96 349.79,-95.06 394.42,-83.51"/>
<polygon fill="midnightblue" stroke="midnightblue" points="395.3,-86.9 404.11,-81.01 393.55,-80.13 395.3,-86.9"/>
</g>
<!-- Node5 -->
<g id="node4" class="node">
<title>Node5</title>
<g id="a_node4"><a xlink:title=" ">
<polygon fill="white" stroke="#bfbfbf" points="0,-0.5 0,-19.5 50,-19.5 50,-0.5 0,-0.5"/>
<text text-anchor="middle" x="25" y="-7.5" font-family="Helvetica,sans-Serif" font-size="10.00">cstdint</text>
</a>
</g>
</g>
<!-- Node3&#45;&gt;Node5 -->
<g id="edge3" class="edge">
<title>Node3&#45;&gt;Node5</title>
<path fill="none" stroke="midnightblue" d="M105.53,-61.98C90.32,-52.34 65.31,-36.52 47.2,-25.05"/>
<polygon fill="midnightblue" stroke="midnightblue" points="48.76,-21.9 38.44,-19.51 45.02,-27.81 48.76,-21.9"/>
</g>
<!-- Node3&#45;&gt;Node6 -->
<g id="edge4" class="edge">
<title>Node3&#45;&gt;Node6</title>
<path fill="none" stroke="midnightblue" d="M119,-61.98C119,-53.58 119,-40.48 119,-29.66"/>
<polygon fill="midnightblue" stroke="midnightblue" points="122.5,-29.51 119,-19.51 115.5,-29.51 122.5,-29.51"/>
</g>
<!-- Node9&#45;&gt;Node3 -->
<g id="edge9" class="edge">
<title>Node9&#45;&gt;Node3</title>
<path fill="none" stroke="midnightblue" d="M71.02,-123.48C79.59,-114.37 93.36,-99.74 103.96,-88.48"/>
<polygon fill="midnightblue" stroke="midnightblue" points="106.69,-90.69 110.99,-81.01 101.59,-85.89 106.69,-90.69"/>
</g>
<!-- Node9&#45;&gt;Node5 -->
<g id="edge10" class="edge">
<title>Node9&#45;&gt;Node5</title>
<path fill="none" stroke="midnightblue" d="M49.21,-123.19C38.17,-115.24 23.5,-102.45 17,-87 9.23,-68.52 13.42,-45.37 18.16,-29.51"/>
<polygon fill="midnightblue" stroke="midnightblue" points="21.54,-30.43 21.39,-19.84 14.9,-28.21 21.54,-30.43"/>
</g>
<!-- Node9&#45;&gt;Node6 -->
<g id="edge11" class="edge">
<title>Node9&#45;&gt;Node6</title>
<path fill="none" stroke="midnightblue" d="M58.2,-123.45C50.64,-108.74 38.01,-78.13 50,-56 58.44,-40.42 74.86,-29.39 89.57,-22.14"/>
<polygon fill="midnightblue" stroke="midnightblue" points="91.23,-25.23 98.89,-17.92 88.34,-18.86 91.23,-25.23"/>
</g>
</g>
</svg>
