<?xml version="1.0" encoding="UTF-8" standalone="no"?>
<!DOCTYPE svg PUBLIC "-//W3C//DTD SVG 1.1//EN"
 "http://www.w3.org/Graphics/SVG/1.1/DTD/svg11.dtd">
<!-- Generated by graphviz version 2.43.0 (0)
 -->
<!-- Title: src/fw/drv/hbridge.hpp Pages: 1 -->
<svg width="700pt" height="263pt"
 viewBox="0.00 0.00 699.50 263.00" xmlns="http://www.w3.org/2000/svg" xmlns:xlink="http://www.w3.org/1999/xlink">
<g id="graph0" class="graph" transform="scale(1 1) rotate(0) translate(4 259)">
<title>src/fw/drv/hbridge.hpp</title>
<polygon fill="white" stroke="transparent" points="-4,4 -4,-259 695.5,-259 695.5,4 -4,4"/>
<!-- Node1 -->
<g id="node1" class="node">
<title>Node1</title>
<g id="a_node1"><a xlink:title=" ">
<polygon fill="#bfbfbf" stroke="black" points="369.5,-235.5 369.5,-254.5 494.5,-254.5 494.5,-235.5 369.5,-235.5"/>
<text text-anchor="middle" x="432" y="-242.5" font-family="Helvetica,sans-Serif" font-size="10.00">src/fw/drv/hbridge.hpp</text>
</a>
</g>
</g>
<!-- Node2 -->
<g id="node2" class="node">
<title>Node2</title>
<g id="a_node2"><a xlink:href="drv__interfaces_8hpp.html" target="_top" xlink:title=" ">
<polygon fill="white" stroke="black" points="206.5,-112.5 206.5,-131.5 313.5,-131.5 313.5,-112.5 206.5,-112.5"/>
<text text-anchor="middle" x="260" y="-119.5" font-family="Helvetica,sans-Serif" font-size="10.00">drv_interfaces.hpp</text>
</a>
</g>
</g>
<!-- Node1&#45;&gt;Node2 -->
<g id="edge1" class="edge">
<title>Node1&#45;&gt;Node2</title>
<path fill="none" stroke="midnightblue" d="M369.35,-239.95C338.23,-234.73 302.39,-223.37 279,-199 264.39,-183.77 260.51,-159.08 259.72,-141.99"/>
<polygon fill="midnightblue" stroke="midnightblue" points="263.21,-141.54 259.57,-131.59 256.21,-141.63 263.21,-141.54"/>
</g>
<!-- Node12 -->
<g id="node7" class="node">
<title>Node12</title>
<g id="a_node7"><a xlink:title=" ">
<polygon fill="white" stroke="#bfbfbf" points="326,-56.5 326,-75.5 366,-75.5 366,-56.5 326,-56.5"/>
<text text-anchor="middle" x="346" y="-63.5" font-family="Helvetica,sans-Serif" font-size="10.00">span</text>
</a>
</g>
</g>
<!-- Node1&#45;&gt;Node12 -->
<g id="edge15" class="edge">
<title>Node1&#45;&gt;Node12</title>
<path fill="none" stroke="midnightblue" d="M430.8,-235.25C428.61,-220.78 423.21,-191.15 413,-168 398.85,-135.92 374.74,-102.82 359.63,-83.61"/>
<polygon fill="midnightblue" stroke="midnightblue" points="362.18,-81.2 353.2,-75.59 356.72,-85.58 362.18,-81.2"/>
</g>
<!-- Node13 -->
<g id="node8" class="node">
<title>Node13</title>
<g id="a_node8"><a xlink:href="fw_2drv_2callbacks_8hpp.html" target="_top" xlink:title=" ">
<polygon fill="white" stroke="black" points="288,-174 288,-193 404,-193 404,-174 288,-174"/>
<text text-anchor="middle" x="346" y="-181" font-family="Helvetica,sans-Serif" font-size="10.00">fw/drv/callbacks.hpp</text>
</a>
</g>
</g>
<!-- Node1&#45;&gt;Node13 -->
<g id="edge8" class="edge">
<title>Node1&#45;&gt;Node13</title>
<path fill="none" stroke="midnightblue" d="M419.68,-235.48C405.88,-225.93 383.3,-210.31 366.77,-198.87"/>
<polygon fill="midnightblue" stroke="midnightblue" points="368.51,-195.82 358.3,-193.01 364.53,-201.58 368.51,-195.82"/>
</g>
<!-- Node14 -->
<g id="node9" class="node">
<title>Node14</title>
<g id="a_node9"><a xlink:href="platform_8hpp.html" target="_top" xlink:title=" ">
<polygon fill="white" stroke="black" points="460,-174 460,-193 540,-193 540,-174 460,-174"/>
<text text-anchor="middle" x="500" y="-181" font-family="Helvetica,sans-Serif" font-size="10.00">platform.hpp</text>
</a>
</g>
</g>
<!-- Node1&#45;&gt;Node14 -->
<g id="edge12" class="edge">
<title>Node1&#45;&gt;Node14</title>
<path fill="none" stroke="midnightblue" d="M441.74,-235.48C452.35,-226.2 469.52,-211.17 482.48,-199.83"/>
<polygon fill="midnightblue" stroke="midnightblue" points="485.05,-202.23 490.28,-193.01 480.44,-196.96 485.05,-202.23"/>
</g>
<!-- Node16 -->
<g id="node11" class="node">
<title>Node16</title>
<g id="a_node11"><a xlink:title=" ">
<polygon fill="white" stroke="#bfbfbf" points="558.5,-168.5 558.5,-198.5 691.5,-198.5 691.5,-168.5 558.5,-168.5"/>
<text text-anchor="start" x="566.5" y="-186.5" font-family="Helvetica,sans-Serif" font-size="10.00">emlabcpp/experimental</text>
<text text-anchor="middle" x="625" y="-175.5" font-family="Helvetica,sans-Serif" font-size="10.00">/function_view.h</text>
</a>
</g>
</g>
<!-- Node1&#45;&gt;Node16 -->
<g id="edge14" class="edge">
<title>Node1&#45;&gt;Node16</title>
<path fill="none" stroke="midnightblue" d="M459.65,-235.48C488.23,-226.66 533.63,-212.67 569.63,-201.57"/>
<polygon fill="midnightblue" stroke="midnightblue" points="570.99,-204.81 579.51,-198.52 568.93,-198.12 570.99,-204.81"/>
</g>
<!-- Node3 -->
<g id="node3" class="node">
<title>Node3</title>
<g id="a_node3"><a xlink:href="base_8hpp.html" target="_top" xlink:title=" ">
<polygon fill="white" stroke="red" points="246.5,-56.5 246.5,-75.5 307.5,-75.5 307.5,-56.5 246.5,-56.5"/>
<text text-anchor="middle" x="277" y="-63.5" font-family="Helvetica,sans-Serif" font-size="10.00">base.hpp</text>
</a>
</g>
</g>
<!-- Node2&#45;&gt;Node3 -->
<g id="edge2" class="edge">
<title>Node2&#45;&gt;Node3</title>
<path fill="none" stroke="midnightblue" d="M262.81,-112.08C265.08,-104.85 268.37,-94.41 271.21,-85.4"/>
<polygon fill="midnightblue" stroke="midnightblue" points="274.58,-86.34 274.25,-75.75 267.9,-84.24 274.58,-86.34"/>
</g>
<!-- Node7 -->
<g id="node4" class="node">
<title>Node7</title>
<g id="a_node4"><a xlink:title=" ">
<polygon fill="white" stroke="#bfbfbf" points="252,-0.5 252,-19.5 302,-19.5 302,-0.5 252,-0.5"/>
<text text-anchor="middle" x="277" y="-7.5" font-family="Helvetica,sans-Serif" font-size="10.00">cstdint</text>
</a>
</g>
</g>
<!-- Node2&#45;&gt;Node7 -->
<g id="edge5" class="edge">
<title>Node2&#45;&gt;Node7</title>
<path fill="none" stroke="midnightblue" d="M252.79,-112.12C243.51,-99.56 229.43,-75.92 237,-56 241.34,-44.6 250.03,-34.24 258.21,-26.34"/>
<polygon fill="midnightblue" stroke="midnightblue" points="260.64,-28.86 265.73,-19.57 255.96,-23.66 260.64,-28.86"/>
</g>
<!-- Node10 -->
<g id="node5" class="node">
<title>Node10</title>
<g id="a_node5"><a xlink:href="status_8hpp.html" target="_top" xlink:title=" ">
<polygon fill="white" stroke="black" points="0,-56.5 0,-75.5 68,-75.5 68,-56.5 0,-56.5"/>
<text text-anchor="middle" x="34" y="-63.5" font-family="Helvetica,sans-Serif" font-size="10.00">status.hpp</text>
</a>
</g>
</g>
<!-- Node2&#45;&gt;Node10 -->
<g id="edge4" class="edge">
<title>Node2&#45;&gt;Node10</title>
<path fill="none" stroke="midnightblue" d="M224.19,-112.44C184.55,-102.97 120.64,-87.7 77.99,-77.51"/>
<polygon fill="midnightblue" stroke="midnightblue" points="78.7,-74.08 68.16,-75.16 77.08,-80.89 78.7,-74.08"/>
</g>
<!-- Node11 -->
<g id="node6" class="node">
<title>Node11</title>
<g id="a_node6"><a xlink:title=" ">
<polygon fill="white" stroke="#bfbfbf" points="86,-56.5 86,-75.5 190,-75.5 190,-56.5 86,-56.5"/>
<text text-anchor="middle" x="138" y="-63.5" font-family="Helvetica,sans-Serif" font-size="10.00">emlabcpp/result.h</text>
</a>
</g>
</g>
<!-- Node2&#45;&gt;Node11 -->
<g id="edge6" class="edge">
<title>Node2&#45;&gt;Node11</title>
<path fill="none" stroke="midnightblue" d="M240.67,-112.44C220.68,-103.6 189.26,-89.69 166.44,-79.59"/>
<polygon fill="midnightblue" stroke="midnightblue" points="167.8,-76.36 157.24,-75.52 164.97,-82.76 167.8,-76.36"/>
</g>
<!-- Node2&#45;&gt;Node12 -->
<g id="edge7" class="edge">
<title>Node2&#45;&gt;Node12</title>
<path fill="none" stroke="midnightblue" d="M273.82,-112.32C287.23,-103.9 307.82,-90.97 323.59,-81.07"/>
<polygon fill="midnightblue" stroke="midnightblue" points="325.61,-83.94 332.22,-75.65 321.89,-78.01 325.61,-83.94"/>
</g>
<!-- Node3&#45;&gt;Node7 -->
<g id="edge3" class="edge">
<title>Node3&#45;&gt;Node7</title>
<path fill="none" stroke="midnightblue" d="M277,-56.08C277,-49.01 277,-38.86 277,-29.99"/>
<polygon fill="midnightblue" stroke="midnightblue" points="280.5,-29.75 277,-19.75 273.5,-29.75 280.5,-29.75"/>
</g>
<!-- Node13&#45;&gt;Node2 -->
<g id="edge9" class="edge">
<title>Node13&#45;&gt;Node2</title>
<path fill="none" stroke="midnightblue" d="M333.68,-173.98C319.88,-164.43 297.3,-148.81 280.77,-137.37"/>
<polygon fill="midnightblue" stroke="midnightblue" points="282.51,-134.32 272.3,-131.51 278.53,-140.08 282.51,-134.32"/>
</g>
<!-- Node13&#45;&gt;Node7 -->
<g id="edge10" class="edge">
<title>Node13&#45;&gt;Node7</title>
<path fill="none" stroke="midnightblue" d="M352.17,-173.75C366.66,-152.05 399.81,-94.69 375,-56 361.15,-34.41 334.06,-23.04 311.86,-17.13"/>
<polygon fill="midnightblue" stroke="midnightblue" points="312.61,-13.71 302.07,-14.79 310.98,-20.52 312.61,-13.71"/>
</g>
<!-- Node13&#45;&gt;Node12 -->
<g id="edge11" class="edge">
<title>Node13&#45;&gt;Node12</title>
<path fill="none" stroke="midnightblue" d="M346,-173.82C346,-155.26 346,-111.34 346,-85.97"/>
<polygon fill="midnightblue" stroke="midnightblue" points="349.5,-85.78 346,-75.78 342.5,-85.78 349.5,-85.78"/>
</g>
<!-- Node15 -->
<g id="node10" class="node">
<title>Node15</title>
<g id="a_node10"><a xlink:title=" ">
<polygon fill="white" stroke="#bfbfbf" points="473.5,-112.5 473.5,-131.5 526.5,-131.5 526.5,-112.5 473.5,-112.5"/>
<text text-anchor="middle" x="500" y="-119.5" font-family="Helvetica,sans-Serif" font-size="10.00">hal.hpp</text>
</a>
</g>
</g>
<!-- Node14&#45;&gt;Node15 -->
<g id="edge13" class="edge">
<title>Node14&#45;&gt;Node15</title>
<path fill="none" stroke="midnightblue" d="M500,-173.98C500,-165.58 500,-152.48 500,-141.66"/>
<polygon fill="midnightblue" stroke="midnightblue" points="503.5,-141.51 500,-131.51 496.5,-141.51 503.5,-141.51"/>
</g>
</g>
</svg>
