<?xml version="1.0" encoding="UTF-8" standalone="no"?>
<!DOCTYPE svg PUBLIC "-//W3C//DTD SVG 1.1//EN"
 "http://www.w3.org/Graphics/SVG/1.1/DTD/svg11.dtd">
<!-- Generated by graphviz version 2.43.0 (0)
 -->
<!-- Title: src/fw/drivers/hbridge.cpp Pages: 1 -->
<svg width="372pt" height="151pt"
 viewBox="0.00 0.00 371.50 151.00" xmlns="http://www.w3.org/2000/svg" xmlns:xlink="http://www.w3.org/1999/xlink">
<g id="graph0" class="graph" transform="scale(1 1) rotate(0) translate(4 147)">
<title>src/fw/drivers/hbridge.cpp</title>
<polygon fill="white" stroke="transparent" points="-4,4 -4,-147 367.5,-147 367.5,4 -4,4"/>
<!-- Node1 -->
<g id="node1" class="node">
<title>Node1</title>
<g id="a_node1"><a xlink:title=" ">
<polygon fill="#bfbfbf" stroke="black" points="107.5,-123.5 107.5,-142.5 249.5,-142.5 249.5,-123.5 107.5,-123.5"/>
<text text-anchor="middle" x="178.5" y="-130.5" font-family="Helvetica,sans-Serif" font-size="10.00">src/fw/drivers/hbridge.cpp</text>
</a>
</g>
</g>
<!-- Node2 -->
<g id="node2" class="node">
<title>Node2</title>
<g id="a_node2"><a xlink:href="hbridge_8hpp.html" target="_top" xlink:title=" ">
<polygon fill="white" stroke="black" points="141.5,-67.5 141.5,-86.5 215.5,-86.5 215.5,-67.5 141.5,-67.5"/>
<text text-anchor="middle" x="178.5" y="-74.5" font-family="Helvetica,sans-Serif" font-size="10.00">hbridge.hpp</text>
</a>
</g>
</g>
<!-- Node1&#45;&gt;Node2 -->
<g id="edge1" class="edge">
<title>Node1&#45;&gt;Node2</title>
<path fill="none" stroke="midnightblue" d="M178.5,-123.08C178.5,-116.01 178.5,-105.86 178.5,-96.99"/>
<polygon fill="midnightblue" stroke="midnightblue" points="182,-96.75 178.5,-86.75 175,-96.75 182,-96.75"/>
</g>
<!-- Node3 -->
<g id="node3" class="node">
<title>Node3</title>
<g id="a_node3"><a xlink:title=" ">
<polygon fill="white" stroke="#bfbfbf" points="0,-6 0,-25 67,-25 67,-6 0,-6"/>
<text text-anchor="middle" x="33.5" y="-13" font-family="Helvetica,sans-Serif" font-size="10.00">config.hpp</text>
</a>
</g>
</g>
<!-- Node2&#45;&gt;Node3 -->
<g id="edge2" class="edge">
<title>Node2&#45;&gt;Node3</title>
<path fill="none" stroke="midnightblue" d="M157.73,-67.48C133.07,-57.36 91.75,-40.4 63.6,-28.85"/>
<polygon fill="midnightblue" stroke="midnightblue" points="64.82,-25.57 54.24,-25.01 62.16,-32.04 64.82,-25.57"/>
</g>
<!-- Node4 -->
<g id="node4" class="node">
<title>Node4</title>
<g id="a_node4"><a xlink:href="util_8hpp.html" target="_top" xlink:title=" ">
<polygon fill="white" stroke="red" points="85.5,-6 85.5,-25 153.5,-25 153.5,-6 85.5,-6"/>
<text text-anchor="middle" x="119.5" y="-13" font-family="Helvetica,sans-Serif" font-size="10.00">fw/util.hpp</text>
</a>
</g>
</g>
<!-- Node2&#45;&gt;Node4 -->
<g id="edge3" class="edge">
<title>Node2&#45;&gt;Node4</title>
<path fill="none" stroke="midnightblue" d="M170.05,-67.48C160.93,-58.28 146.23,-43.46 135.02,-32.16"/>
<polygon fill="midnightblue" stroke="midnightblue" points="137.46,-29.65 127.94,-25.01 132.49,-34.57 137.46,-29.65"/>
</g>
<!-- Node8 -->
<g id="node5" class="node">
<title>Node8</title>
<g id="a_node5"><a xlink:title=" ">
<polygon fill="white" stroke="#bfbfbf" points="172,-0.5 172,-30.5 305,-30.5 305,-0.5 172,-0.5"/>
<text text-anchor="start" x="180" y="-18.5" font-family="Helvetica,sans-Serif" font-size="10.00">emlabcpp/experimental</text>
<text text-anchor="middle" x="238.5" y="-7.5" font-family="Helvetica,sans-Serif" font-size="10.00">/function_view.h</text>
</a>
</g>
</g>
<!-- Node2&#45;&gt;Node8 -->
<g id="edge4" class="edge">
<title>Node2&#45;&gt;Node8</title>
<path fill="none" stroke="midnightblue" d="M187.1,-67.48C194.92,-59.72 206.79,-47.94 217.16,-37.66"/>
<polygon fill="midnightblue" stroke="midnightblue" points="219.72,-40.05 224.36,-30.52 214.79,-35.08 219.72,-40.05"/>
</g>
<!-- Node9 -->
<g id="node6" class="node">
<title>Node9</title>
<g id="a_node6"><a xlink:title=" ">
<polygon fill="white" stroke="#bfbfbf" points="323.5,-6 323.5,-25 363.5,-25 363.5,-6 323.5,-6"/>
<text text-anchor="middle" x="343.5" y="-13" font-family="Helvetica,sans-Serif" font-size="10.00">span</text>
</a>
</g>
</g>
<!-- Node2&#45;&gt;Node9 -->
<g id="edge5" class="edge">
<title>Node2&#45;&gt;Node9</title>
<path fill="none" stroke="midnightblue" d="M208.4,-67.46C236.26,-59.19 278.75,-45.76 314.5,-31 315.7,-30.5 316.92,-29.98 318.14,-29.44"/>
<polygon fill="midnightblue" stroke="midnightblue" points="319.89,-32.49 327.43,-25.05 316.9,-26.16 319.89,-32.49"/>
</g>
</g>
</svg>
