<?xml version="1.0" encoding="UTF-8" standalone="no"?>
<!DOCTYPE svg PUBLIC "-//W3C//DTD SVG 1.1//EN"
 "http://www.w3.org/Graphics/SVG/1.1/DTD/svg11.dtd">
<!-- Generated by graphviz version 2.43.0 (0)
 -->
<!-- Title: src/fw/drv/hbridge.hpp Pages: 1 -->
<svg width="551pt" height="207pt"
 viewBox="0.00 0.00 551.00 207.00" xmlns="http://www.w3.org/2000/svg" xmlns:xlink="http://www.w3.org/1999/xlink">
<g id="graph0" class="graph" transform="scale(1 1) rotate(0) translate(4 203)">
<title>src/fw/drv/hbridge.hpp</title>
<polygon fill="white" stroke="transparent" points="-4,4 -4,-203 547,-203 547,4 -4,4"/>
<!-- Node1 -->
<g id="node1" class="node">
<title>Node1</title>
<g id="a_node1"><a xlink:title=" ">
<polygon fill="#bfbfbf" stroke="black" points="247,-179.5 247,-198.5 372,-198.5 372,-179.5 247,-179.5"/>
<text text-anchor="middle" x="309.5" y="-186.5" font-family="Helvetica,sans-Serif" font-size="10.00">src/fw/drv/hbridge.hpp</text>
</a>
</g>
</g>
<!-- Node2 -->
<g id="node2" class="node">
<title>Node2</title>
<g id="a_node2"><a xlink:href="drv__interfaces_8hpp.html" target="_top" xlink:title=" ">
<polygon fill="white" stroke="black" points="121,-118 121,-137 228,-137 228,-118 121,-118"/>
<text text-anchor="middle" x="174.5" y="-125" font-family="Helvetica,sans-Serif" font-size="10.00">drv_interfaces.hpp</text>
</a>
</g>
</g>
<!-- Node1&#45;&gt;Node2 -->
<g id="edge1" class="edge">
<title>Node1&#45;&gt;Node2</title>
<path fill="none" stroke="midnightblue" d="M290.16,-179.48C267.4,-169.45 229.41,-152.7 203.21,-141.15"/>
<polygon fill="midnightblue" stroke="midnightblue" points="204.37,-137.84 193.81,-137.01 201.55,-144.24 204.37,-137.84"/>
</g>
<!-- Node11 -->
<g id="node6" class="node">
<title>Node11</title>
<g id="a_node6"><a xlink:title=" ">
<polygon fill="white" stroke="#bfbfbf" points="249.5,-56.5 249.5,-75.5 289.5,-75.5 289.5,-56.5 249.5,-56.5"/>
<text text-anchor="middle" x="269.5" y="-63.5" font-family="Helvetica,sans-Serif" font-size="10.00">span</text>
</a>
</g>
</g>
<!-- Node1&#45;&gt;Node11 -->
<g id="edge8" class="edge">
<title>Node1&#45;&gt;Node11</title>
<path fill="none" stroke="midnightblue" d="M302.86,-179.2C296.61,-170.48 287.5,-156.5 282.5,-143 275.54,-124.21 272.27,-101.42 270.76,-85.72"/>
<polygon fill="midnightblue" stroke="midnightblue" points="274.25,-85.38 269.94,-75.7 267.27,-85.95 274.25,-85.38"/>
</g>
<!-- Node12 -->
<g id="node7" class="node">
<title>Node12</title>
<g id="a_node7"><a xlink:title=" ">
<polygon fill="white" stroke="#bfbfbf" points="291,-112.5 291,-142.5 424,-142.5 424,-112.5 291,-112.5"/>
<text text-anchor="start" x="299" y="-130.5" font-family="Helvetica,sans-Serif" font-size="10.00">emlabcpp/experimental</text>
<text text-anchor="middle" x="357.5" y="-119.5" font-family="Helvetica,sans-Serif" font-size="10.00">/function_view.h</text>
</a>
</g>
</g>
<!-- Node1&#45;&gt;Node12 -->
<g id="edge7" class="edge">
<title>Node1&#45;&gt;Node12</title>
<path fill="none" stroke="midnightblue" d="M316.38,-179.48C322.45,-171.94 331.58,-160.63 339.7,-150.57"/>
<polygon fill="midnightblue" stroke="midnightblue" points="342.63,-152.5 346.19,-142.52 337.18,-148.11 342.63,-152.5"/>
</g>
<!-- Node13 -->
<g id="node8" class="node">
<title>Node13</title>
<g id="a_node8"><a xlink:title=" ">
<polygon fill="white" stroke="#bfbfbf" points="442,-118 442,-137 543,-137 543,-118 442,-118"/>
<text text-anchor="middle" x="492.5" y="-125" font-family="Helvetica,sans-Serif" font-size="10.00">stm32g4xx_hal.h</text>
</a>
</g>
</g>
<!-- Node1&#45;&gt;Node13 -->
<g id="edge9" class="edge">
<title>Node1&#45;&gt;Node13</title>
<path fill="none" stroke="midnightblue" d="M335.72,-179.48C367.52,-169.14 421.27,-151.66 456.82,-140.1"/>
<polygon fill="midnightblue" stroke="midnightblue" points="457.9,-143.43 466.33,-137.01 455.74,-136.77 457.9,-143.43"/>
</g>
<!-- Node3 -->
<g id="node3" class="node">
<title>Node3</title>
<g id="a_node3"><a xlink:href="base_8hpp.html" target="_top" xlink:title=" ">
<polygon fill="white" stroke="red" points="0,-56.5 0,-75.5 61,-75.5 61,-56.5 0,-56.5"/>
<text text-anchor="middle" x="30.5" y="-63.5" font-family="Helvetica,sans-Serif" font-size="10.00">base.hpp</text>
</a>
</g>
</g>
<!-- Node2&#45;&gt;Node3 -->
<g id="edge2" class="edge">
<title>Node2&#45;&gt;Node3</title>
<path fill="none" stroke="midnightblue" d="M153.87,-117.98C129.38,-107.86 88.35,-90.9 60.39,-79.35"/>
<polygon fill="midnightblue" stroke="midnightblue" points="61.67,-76.09 51.09,-75.51 59,-82.56 61.67,-76.09"/>
</g>
<!-- Node7 -->
<g id="node4" class="node">
<title>Node7</title>
<g id="a_node4"><a xlink:title=" ">
<polygon fill="white" stroke="#bfbfbf" points="34.5,-0.5 34.5,-19.5 84.5,-19.5 84.5,-0.5 34.5,-0.5"/>
<text text-anchor="middle" x="59.5" y="-7.5" font-family="Helvetica,sans-Serif" font-size="10.00">cstdint</text>
</a>
</g>
</g>
<!-- Node2&#45;&gt;Node7 -->
<g id="edge5" class="edge">
<title>Node2&#45;&gt;Node7</title>
<path fill="none" stroke="midnightblue" d="M161.26,-117.96C147.3,-108.6 125.07,-92.69 108.5,-76 93.78,-61.17 79.71,-41.78 70.46,-28.05"/>
<polygon fill="midnightblue" stroke="midnightblue" points="73.3,-26 64.87,-19.58 67.45,-29.85 73.3,-26"/>
</g>
<!-- Node10 -->
<g id="node5" class="node">
<title>Node10</title>
<g id="a_node5"><a xlink:href="status__category_8hpp.html" target="_top" xlink:title=" ">
<polygon fill="white" stroke="black" points="117.5,-56.5 117.5,-75.5 231.5,-75.5 231.5,-56.5 117.5,-56.5"/>
<text text-anchor="middle" x="174.5" y="-63.5" font-family="Helvetica,sans-Serif" font-size="10.00">status_category.hpp</text>
</a>
</g>
</g>
<!-- Node2&#45;&gt;Node10 -->
<g id="edge4" class="edge">
<title>Node2&#45;&gt;Node10</title>
<path fill="none" stroke="midnightblue" d="M174.5,-117.98C174.5,-109.58 174.5,-96.48 174.5,-85.66"/>
<polygon fill="midnightblue" stroke="midnightblue" points="178,-85.51 174.5,-75.51 171,-85.51 178,-85.51"/>
</g>
<!-- Node2&#45;&gt;Node11 -->
<g id="edge6" class="edge">
<title>Node2&#45;&gt;Node11</title>
<path fill="none" stroke="midnightblue" d="M188.11,-117.98C203.56,-108.3 228.99,-92.37 247.32,-80.89"/>
<polygon fill="midnightblue" stroke="midnightblue" points="249.3,-83.78 255.91,-75.51 245.58,-77.85 249.3,-83.78"/>
</g>
<!-- Node3&#45;&gt;Node7 -->
<g id="edge3" class="edge">
<title>Node3&#45;&gt;Node7</title>
<path fill="none" stroke="midnightblue" d="M35.29,-56.08C39.26,-48.69 45.03,-37.95 49.93,-28.81"/>
<polygon fill="midnightblue" stroke="midnightblue" points="53.15,-30.22 54.8,-19.75 46.99,-26.91 53.15,-30.22"/>
</g>
</g>
</svg>
