<?xml version="1.0" encoding="UTF-8" standalone="no"?>
<!DOCTYPE svg PUBLIC "-//W3C//DTD SVG 1.1//EN"
 "http://www.w3.org/Graphics/SVG/1.1/DTD/svg11.dtd">
<!-- Generated by graphviz version 2.43.0 (0)
 -->
<!-- Title: src/scmdio/tests/iface_utest.cpp Pages: 1 -->
<svg width="1494pt" height="511pt"
 viewBox="0.00 0.00 1494.00 511.00" xmlns="http://www.w3.org/2000/svg" xmlns:xlink="http://www.w3.org/1999/xlink">
<g id="graph0" class="graph" transform="scale(1 1) rotate(0) translate(4 507)">
<title>src/scmdio/tests/iface_utest.cpp</title>
<!-- Node1 -->
<g id="Node000001" class="node">
<title>Node1</title>
<g id="a_Node000001"><a xlink:title=" ">
<polygon fill="#999999" stroke="#666666" points="882.5,-503 759.5,-503 759.5,-473 882.5,-473 882.5,-503"/>
<text text-anchor="start" x="767.5" y="-491" font-family="Helvetica,sans-Serif" font-size="10.00">src/scmdio/tests/iface</text>
<text text-anchor="middle" x="821" y="-480" font-family="Helvetica,sans-Serif" font-size="10.00">_utest.cpp</text>
</a>
</g>
</g>
<!-- Node2 -->
<g id="Node000002" class="node">
<title>Node2</title>
<g id="a_Node000002"><a xlink:href="base_8hpp.html" target="_top" xlink:title=" ">
<polygon fill="white" stroke="#666666" points="782.5,-85 703.5,-85 703.5,-66 782.5,-66 782.5,-85"/>
<text text-anchor="middle" x="743" y="-73" font-family="Helvetica,sans-Serif" font-size="10.00">../../base.hpp</text>
</a>
</g>
</g>
<!-- Node1&#45;&gt;Node2 -->
<g id="edge1_Node000001_Node000002" class="edge">
<title>Node1&#45;&gt;Node2</title>
<g id="a_edge1_Node000001_Node000002"><a xlink:title=" ">
<path fill="none" stroke="#63b8ff" d="M831.45,-472.96C863.77,-428.98 960,-293.66 960,-241.5 960,-241.5 960,-241.5 960,-184.5 960,-110.26 856.93,-87.05 792.86,-79.8"/>
<polygon fill="#63b8ff" stroke="#63b8ff" points="792.86,-76.28 782.55,-78.73 792.13,-83.24 792.86,-76.28"/>
</a>
</g>
</g>
<!-- Node10 -->
<g id="Node000010" class="node">
<title>Node10</title>
<g id="a_Node000010"><a xlink:href="cfg_2def_8hpp.html" target="_top" xlink:title=" ">
<polygon fill="white" stroke="#666666" points="485.5,-195 396.5,-195 396.5,-176 485.5,-176 485.5,-195"/>
<text text-anchor="middle" x="441" y="-183" font-family="Helvetica,sans-Serif" font-size="10.00">../../cfg/def.hpp</text>
</a>
</g>
</g>
<!-- Node1&#45;&gt;Node10 -->
<g id="edge9_Node000001_Node000010" class="edge">
<title>Node1&#45;&gt;Node10</title>
<g id="a_edge9_Node000001_Node000010"><a xlink:title=" ">
<path fill="none" stroke="#63b8ff" d="M759.17,-483.93C635.06,-476.33 362.69,-451.9 307,-382 299.33,-372.38 292.67,-316.05 308,-286 329.56,-243.75 378.32,-214.72 410.43,-199.36"/>
<polygon fill="#63b8ff" stroke="#63b8ff" points="412.19,-202.4 419.81,-195.03 409.26,-196.04 412.19,-202.4"/>
</a>
</g>
</g>
<!-- Node23 -->
<g id="Node000023" class="node">
<title>Node23</title>
<g id="a_Node000023"><a xlink:href="core_8hpp.html" target="_top" xlink:title=" ">
<polygon fill="white" stroke="#666666" points="871.5,-376.5 770.5,-376.5 770.5,-357.5 871.5,-357.5 871.5,-376.5"/>
<text text-anchor="middle" x="821" y="-364.5" font-family="Helvetica,sans-Serif" font-size="10.00">../../core/core.hpp</text>
</a>
</g>
</g>
<!-- Node1&#45;&gt;Node23 -->
<g id="edge19_Node000001_Node000023" class="edge">
<title>Node1&#45;&gt;Node23</title>
<g id="a_edge19_Node000001_Node000023"><a xlink:title=" ">
<path fill="none" stroke="#63b8ff" d="M821,-472.88C821,-451.51 821,-410.89 821,-386.96"/>
<polygon fill="#63b8ff" stroke="#63b8ff" points="824.5,-386.71 821,-376.71 817.5,-386.71 824.5,-386.71"/>
</a>
</g>
</g>
<!-- Node24 -->
<g id="Node000024" class="node">
<title>Node24</title>
<g id="a_Node000024"><a xlink:href="governor__manager_8hpp.html" target="_top" xlink:title=" ">
<polygon fill="#fff0f0" stroke="red" points="594.5,-310.5 435.5,-310.5 435.5,-291.5 594.5,-291.5 594.5,-310.5"/>
<text text-anchor="middle" x="515" y="-298.5" font-family="Helvetica,sans-Serif" font-size="10.00">../gov/governor_manager.hpp</text>
</a>
</g>
</g>
<!-- Node1&#45;&gt;Node24 -->
<g id="edge36_Node000001_Node000024" class="edge">
<title>Node1&#45;&gt;Node24</title>
<g id="a_edge36_Node000001_Node000024"><a xlink:title=" ">
<path fill="none" stroke="#63b8ff" d="M814.22,-472.6C800.32,-444.72 765.83,-383.36 718,-352 694.81,-336.8 626.97,-321.93 576.05,-312.41"/>
<polygon fill="#63b8ff" stroke="#63b8ff" points="576.58,-308.95 566.11,-310.58 575.31,-315.83 576.58,-308.95"/>
</a>
</g>
</g>
<!-- Node51 -->
<g id="Node000051" class="node">
<title>Node51</title>
<g id="a_Node000051"><a xlink:href="mock_8hpp.html" target="_top" xlink:title=" ">
<polygon fill="white" stroke="#666666" points="417.5,-310.5 316.5,-310.5 316.5,-291.5 417.5,-291.5 417.5,-310.5"/>
<text text-anchor="middle" x="367" y="-298.5" font-family="Helvetica,sans-Serif" font-size="10.00">../../drv/mock.hpp</text>
</a>
</g>
</g>
<!-- Node1&#45;&gt;Node51 -->
<g id="edge33_Node000001_Node000051" class="edge">
<title>Node1&#45;&gt;Node51</title>
<g id="a_edge33_Node000001_Node000051"><a xlink:title=" ">
<path fill="none" stroke="#63b8ff" d="M807.14,-472.77C774.05,-438.85 692.58,-355.76 685,-352 581.27,-300.58 540.82,-337.18 427,-316 421.87,-315.05 416.52,-313.95 411.22,-312.8"/>
<polygon fill="#63b8ff" stroke="#63b8ff" points="411.68,-309.31 401.15,-310.53 410.14,-316.14 411.68,-309.31"/>
</a>
</g>
</g>
<!-- Node52 -->
<g id="Node000052" class="node">
<title>Node52</title>
<g id="a_Node000052"><a xlink:href="iface_2def_8hpp.html" target="_top" xlink:title=" ">
<polygon fill="white" stroke="#666666" points="98,-195 0,-195 0,-176 98,-176 98,-195"/>
<text text-anchor="middle" x="49" y="-183" font-family="Helvetica,sans-Serif" font-size="10.00">../../iface/def.hpp</text>
</a>
</g>
</g>
<!-- Node1&#45;&gt;Node52 -->
<g id="edge37_Node000001_Node000052" class="edge">
<title>Node1&#45;&gt;Node52</title>
<g id="a_edge37_Node000001_Node000052"><a xlink:title=" ">
<path fill="none" stroke="#63b8ff" d="M759.38,-484.73C626.91,-479.38 318.82,-464.34 218,-437 149.51,-418.43 74,-438.97 74,-368 74,-368 74,-368 74,-300 74,-265.67 62.96,-226.83 55.55,-204.65"/>
<polygon fill="#63b8ff" stroke="#63b8ff" points="58.85,-203.49 52.27,-195.19 52.24,-205.78 58.85,-203.49"/>
</a>
</g>
</g>
<!-- Node54 -->
<g id="Node000054" class="node">
<title>Node54</title>
<g id="a_Node000054"><a xlink:href="serial_8hpp.html" target="_top" xlink:title=" ">
<polygon fill="white" stroke="#666666" points="260,-250 186,-250 186,-231 260,-231 260,-250"/>
<text text-anchor="middle" x="223" y="-238" font-family="Helvetica,sans-Serif" font-size="10.00">../serial.hpp</text>
</a>
</g>
</g>
<!-- Node1&#45;&gt;Node54 -->
<g id="edge45_Node000001_Node000054" class="edge">
<title>Node1&#45;&gt;Node54</title>
<g id="a_edge45_Node000001_Node000054"><a xlink:title=" ">
<path fill="none" stroke="#63b8ff" d="M759.24,-486.18C616.29,-483.66 272.1,-473.79 236,-437 188.94,-389.05 206.76,-298.72 217.36,-259.95"/>
<polygon fill="#63b8ff" stroke="#63b8ff" points="220.8,-260.64 220.21,-250.06 214.07,-258.7 220.8,-260.64"/>
</a>
</g>
</g>
<!-- Node65 -->
<g id="Node000065" class="node">
<title>Node65</title>
<g id="a_Node000065"><a xlink:href="port__mock_8hpp.html" target="_top" xlink:title=" ">
<polygon fill="white" stroke="#666666" points="650.5,-437 555.5,-437 555.5,-418 650.5,-418 650.5,-437"/>
<text text-anchor="middle" x="603" y="-425" font-family="Helvetica,sans-Serif" font-size="10.00">./port_mock.hpp</text>
</a>
</g>
</g>
<!-- Node1&#45;&gt;Node65 -->
<g id="edge54_Node000001_Node000065" class="edge">
<title>Node1&#45;&gt;Node65</title>
<g id="a_edge54_Node000001_Node000065"><a xlink:title=" ">
<path fill="none" stroke="#63b8ff" d="M768.78,-472.99C730.84,-462.8 680.15,-449.2 644.85,-439.73"/>
<polygon fill="#63b8ff" stroke="#63b8ff" points="645.44,-436.27 634.88,-437.05 643.63,-443.03 645.44,-436.27"/>
</a>
</g>
</g>
<!-- Node73 -->
<g id="Node000073" class="node">
<title>Node73</title>
<g id="a_Node000073"><a xlink:href="scmdio_2tests_2util_8hpp.html" target="_top" xlink:title=" ">
<polygon fill="white" stroke="#666666" points="987.5,-376.5 928.5,-376.5 928.5,-357.5 987.5,-357.5 987.5,-376.5"/>
<text text-anchor="middle" x="958" y="-364.5" font-family="Helvetica,sans-Serif" font-size="10.00">./util.hpp</text>
</a>
</g>
</g>
<!-- Node1&#45;&gt;Node73 -->
<g id="edge64_Node000001_Node000073" class="edge">
<title>Node1&#45;&gt;Node73</title>
<g id="a_edge64_Node000001_Node000073"><a xlink:title=" ">
<path fill="none" stroke="#63b8ff" d="M856.84,-472.96C875.36,-464.48 897.47,-452.34 914,-437 929.74,-422.39 942.23,-400.99 949.82,-385.9"/>
<polygon fill="#63b8ff" stroke="#63b8ff" points="953.1,-387.15 954.27,-376.62 946.79,-384.12 953.1,-387.15"/>
</a>
</g>
</g>
<!-- Node74 -->
<g id="Node000074" class="node">
<title>Node74</title>
<g id="a_Node000074"><a xlink:title=" ">
<polygon fill="#e0e0e0" stroke="#999999" points="1066,-310.5 988,-310.5 988,-291.5 1066,-291.5 1066,-310.5"/>
<text text-anchor="middle" x="1027" y="-298.5" font-family="Helvetica,sans-Serif" font-size="10.00">gtest/gtest.h</text>
</a>
</g>
</g>
<!-- Node1&#45;&gt;Node74 -->
<g id="edge68_Node000001_Node000074" class="edge">
<title>Node1&#45;&gt;Node74</title>
<g id="a_edge68_Node000001_Node000074"><a xlink:title=" ">
<path fill="none" stroke="#63b8ff" d="M865.11,-472.9C906.11,-457.39 965.45,-428.32 997,-382 1010.01,-362.89 1018.3,-337.4 1022.79,-320.38"/>
<polygon fill="#63b8ff" stroke="#63b8ff" points="1026.22,-321.11 1025.21,-310.57 1019.42,-319.44 1026.22,-321.11"/>
</a>
</g>
</g>
<!-- Node77 -->
<g id="Node000077" class="node">
<title>Node77</title>
<g id="a_Node000077"><a xlink:title=" ">
<polygon fill="#e0e0e0" stroke="#999999" points="1168.5,-437 1029.5,-437 1029.5,-418 1168.5,-418 1168.5,-437"/>
<text text-anchor="middle" x="1099" y="-425" font-family="Helvetica,sans-Serif" font-size="10.00">boost/asio/awaitable.hpp</text>
</a>
</g>
</g>
<!-- Node1&#45;&gt;Node77 -->
<g id="edge65_Node000001_Node000077" class="edge">
<title>Node1&#45;&gt;Node77</title>
<g id="a_edge65_Node000001_Node000077"><a xlink:title=" ">
<path fill="none" stroke="#63b8ff" d="M882.7,-474.02C932.62,-463.51 1002.05,-448.9 1048.66,-439.09"/>
<polygon fill="#63b8ff" stroke="#63b8ff" points="1049.47,-442.5 1058.53,-437.02 1048.03,-435.65 1049.47,-442.5"/>
</a>
</g>
</g>
<!-- Node78 -->
<g id="Node000078" class="node">
<title>Node78</title>
<g id="a_Node000078"><a xlink:title=" ">
<polygon fill="#e0e0e0" stroke="#999999" points="1325.5,-437 1186.5,-437 1186.5,-418 1325.5,-418 1325.5,-437"/>
<text text-anchor="middle" x="1256" y="-425" font-family="Helvetica,sans-Serif" font-size="10.00">boost/asio/co_spawn.hpp</text>
</a>
</g>
</g>
<!-- Node1&#45;&gt;Node78 -->
<g id="edge66_Node000001_Node000078" class="edge">
<title>Node1&#45;&gt;Node78</title>
<g id="a_edge66_Node000001_Node000078"><a xlink:title=" ">
<path fill="none" stroke="#63b8ff" d="M882.86,-478.68C961.87,-468.06 1098.4,-449.69 1182.58,-438.37"/>
<polygon fill="#63b8ff" stroke="#63b8ff" points="1183.14,-441.83 1192.58,-437.03 1182.21,-434.89 1183.14,-441.83"/>
</a>
</g>
</g>
<!-- Node79 -->
<g id="Node000079" class="node">
<title>Node79</title>
<g id="a_Node000079"><a xlink:title=" ">
<polygon fill="#e0e0e0" stroke="#999999" points="1486,-437 1344,-437 1344,-418 1486,-418 1486,-437"/>
<text text-anchor="middle" x="1415" y="-425" font-family="Helvetica,sans-Serif" font-size="10.00">boost/asio/io_context.hpp</text>
</a>
</g>
</g>
<!-- Node1&#45;&gt;Node79 -->
<g id="edge67_Node000001_Node000079" class="edge">
<title>Node1&#45;&gt;Node79</title>
<g id="a_edge67_Node000001_Node000079"><a xlink:title=" ">
<path fill="none" stroke="#63b8ff" d="M882.73,-481.17C977.37,-472.2 1164.29,-454.33 1333.8,-437.11"/>
<polygon fill="#63b8ff" stroke="#63b8ff" points="1334.31,-440.58 1343.9,-436.09 1333.6,-433.62 1334.31,-440.58"/>
</a>
</g>
</g>
<!-- Node3 -->
<g id="Node000003" class="node">
<title>Node3</title>
<g id="a_Node000003"><a xlink:title=" ">
<polygon fill="#e0e0e0" stroke="#999999" points="915,-24.5 865,-24.5 865,-5.5 915,-5.5 915,-24.5"/>
<text text-anchor="middle" x="890" y="-12.5" font-family="Helvetica,sans-Serif" font-size="10.00">chrono</text>
</a>
</g>
</g>
<!-- Node2&#45;&gt;Node3 -->
<g id="edge2_Node000002_Node000003" class="edge">
<title>Node2&#45;&gt;Node3</title>
<g id="a_edge2_Node000002_Node000003"><a xlink:title=" ">
<path fill="none" stroke="#63b8ff" d="M765.13,-65.9C787.94,-57.01 824.51,-42.68 856,-30 857.2,-29.52 858.42,-29.02 859.66,-28.52"/>
<polygon fill="#63b8ff" stroke="#63b8ff" points="861.23,-31.66 869.16,-24.64 858.58,-25.18 861.23,-31.66"/>
</a>
</g>
</g>
<!-- Node4 -->
<g id="Node000004" class="node">
<title>Node4</title>
<g id="a_Node000004"><a xlink:title=" ">
<polygon fill="#e0e0e0" stroke="#999999" points="391,-24.5 341,-24.5 341,-5.5 391,-5.5 391,-24.5"/>
<text text-anchor="middle" x="366" y="-12.5" font-family="Helvetica,sans-Serif" font-size="10.00">cstdint</text>
</a>
</g>
</g>
<!-- Node2&#45;&gt;Node4 -->
<g id="edge3_Node000002_Node000004" class="edge">
<title>Node2&#45;&gt;Node4</title>
<g id="a_edge3_Node000002_Node000004"><a xlink:title=" ">
<path fill="none" stroke="#63b8ff" d="M703.26,-72.72C638.68,-69.07 507.36,-58.54 400,-30 398.06,-29.48 396.08,-28.88 394.1,-28.22"/>
<polygon fill="#63b8ff" stroke="#63b8ff" points="394.99,-24.82 384.4,-24.6 392.54,-31.38 394.99,-24.82"/>
</a>
</g>
</g>
<!-- Node5 -->
<g id="Node000005" class="node">
<title>Node5</title>
<g id="a_Node000005"><a xlink:title=" ">
<polygon fill="#e0e0e0" stroke="#999999" points="1069,-24.5 933,-24.5 933,-5.5 1069,-5.5 1069,-24.5"/>
<text text-anchor="middle" x="1001" y="-12.5" font-family="Helvetica,sans-Serif" font-size="10.00">emlabcpp/algorithm.hpp</text>
</a>
</g>
</g>
<!-- Node2&#45;&gt;Node5 -->
<g id="edge4_Node000002_Node000005" class="edge">
<title>Node2&#45;&gt;Node5</title>
<g id="a_edge4_Node000002_Node000005"><a xlink:title=" ">
<path fill="none" stroke="#63b8ff" d="M780.52,-65.99C826.28,-55.62 903.69,-38.07 953.55,-26.76"/>
<polygon fill="#63b8ff" stroke="#63b8ff" points="954.46,-30.14 963.44,-24.52 952.91,-23.31 954.46,-30.14"/>
</a>
</g>
</g>
<!-- Node6 -->
<g id="Node000006" class="node">
<title>Node6</title>
<g id="a_Node000006"><a xlink:title=" ">
<polygon fill="#e0e0e0" stroke="#999999" points="549,-24.5 409,-24.5 409,-5.5 549,-5.5 549,-24.5"/>
<text text-anchor="middle" x="479" y="-12.5" font-family="Helvetica,sans-Serif" font-size="10.00">emlabcpp/error_code.hpp</text>
</a>
</g>
</g>
<!-- Node2&#45;&gt;Node6 -->
<g id="edge5_Node000002_Node000006" class="edge">
<title>Node2&#45;&gt;Node6</title>
<g id="a_edge5_Node000002_Node000006"><a xlink:title=" ">
<path fill="none" stroke="#63b8ff" d="M704.61,-65.99C657.69,-55.6 578.25,-37.99 527.24,-26.69"/>
<polygon fill="#63b8ff" stroke="#63b8ff" points="527.95,-23.26 517.43,-24.52 526.44,-30.1 527.95,-23.26"/>
</a>
</g>
</g>
<!-- Node7 -->
<g id="Node000007" class="node">
<title>Node7</title>
<g id="a_Node000007"><a xlink:title=" ">
<polygon fill="#e0e0e0" stroke="#999999" points="695,-24.5 567,-24.5 567,-5.5 695,-5.5 695,-24.5"/>
<text text-anchor="middle" x="631" y="-12.5" font-family="Helvetica,sans-Serif" font-size="10.00">emlabcpp/quantity.hpp</text>
</a>
</g>
</g>
<!-- Node2&#45;&gt;Node7 -->
<g id="edge6_Node000002_Node000007" class="edge">
<title>Node2&#45;&gt;Node7</title>
<g id="a_edge6_Node000002_Node000007"><a xlink:title=" ">
<path fill="none" stroke="#63b8ff" d="M726.47,-65.87C708.03,-56.23 677.96,-40.53 656.49,-29.31"/>
<polygon fill="#63b8ff" stroke="#63b8ff" points="658.08,-26.19 647.59,-24.67 654.84,-32.4 658.08,-26.19"/>
</a>
</g>
</g>
<!-- Node8 -->
<g id="Node000008" class="node">
<title>Node8</title>
<g id="a_Node000008"><a xlink:title=" ">
<polygon fill="#e0e0e0" stroke="#999999" points="772.5,-24.5 713.5,-24.5 713.5,-5.5 772.5,-5.5 772.5,-24.5"/>
<text text-anchor="middle" x="743" y="-12.5" font-family="Helvetica,sans-Serif" font-size="10.00">numbers</text>
</a>
</g>
</g>
<!-- Node2&#45;&gt;Node8 -->
<g id="edge7_Node000002_Node000008" class="edge">
<title>Node2&#45;&gt;Node8</title>
<g id="a_edge7_Node000002_Node000008"><a xlink:title=" ">
<path fill="none" stroke="#63b8ff" d="M743,-65.87C743,-57.75 743,-45.31 743,-34.89"/>
<polygon fill="#63b8ff" stroke="#63b8ff" points="746.5,-34.67 743,-24.67 739.5,-34.67 746.5,-34.67"/>
</a>
</g>
</g>
<!-- Node9 -->
<g id="Node000009" class="node">
<title>Node9</title>
<g id="a_Node000009"><a xlink:title=" ">
<polygon fill="#e0e0e0" stroke="#999999" points="847,-24.5 791,-24.5 791,-5.5 847,-5.5 847,-24.5"/>
<text text-anchor="middle" x="819" y="-12.5" font-family="Helvetica,sans-Serif" font-size="10.00">optional</text>
</a>
</g>
</g>
<!-- Node2&#45;&gt;Node9 -->
<g id="edge8_Node000002_Node000009" class="edge">
<title>Node2&#45;&gt;Node9</title>
<g id="a_edge8_Node000002_Node000009"><a xlink:title=" ">
<path fill="none" stroke="#63b8ff" d="M754.21,-65.87C766.11,-56.71 785.14,-42.06 799.51,-31.01"/>
<polygon fill="#63b8ff" stroke="#63b8ff" points="801.95,-33.54 807.74,-24.67 797.68,-27.99 801.95,-33.54"/>
</a>
</g>
</g>
<!-- Node11 -->
<g id="Node000011" class="node">
<title>Node11</title>
<g id="a_Node000011"><a xlink:href="cfg_2base_8hpp.html" target="_top" xlink:title=" ">
<polygon fill="#fff0f0" stroke="red" points="474.5,-140 407.5,-140 407.5,-121 474.5,-121 474.5,-140"/>
<text text-anchor="middle" x="441" y="-128" font-family="Helvetica,sans-Serif" font-size="10.00">./base.hpp</text>
</a>
</g>
</g>
<!-- Node10&#45;&gt;Node11 -->
<g id="edge10_Node000010_Node000011" class="edge">
<title>Node10&#45;&gt;Node11</title>
<g id="a_edge10_Node000010_Node000011"><a xlink:title=" ">
<path fill="none" stroke="#63b8ff" d="M441,-175.75C441,-168.8 441,-158.85 441,-150.13"/>
<polygon fill="#63b8ff" stroke="#63b8ff" points="444.5,-150.09 441,-140.09 437.5,-150.09 444.5,-150.09"/>
</a>
</g>
</g>
<!-- Node11&#45;&gt;Node2 -->
<g id="edge11_Node000011_Node000002" class="edge">
<title>Node11&#45;&gt;Node2</title>
<g id="a_edge11_Node000011_Node000002"><a xlink:title=" ">
<path fill="none" stroke="#63b8ff" d="M474.76,-123.57C527.98,-114.24 631.65,-96.04 693.36,-85.21"/>
<polygon fill="#63b8ff" stroke="#63b8ff" points="694.01,-88.65 703.26,-83.47 692.8,-81.76 694.01,-88.65"/>
</a>
</g>
</g>
<!-- Node12 -->
<g id="Node000012" class="node">
<title>Node12</title>
<g id="a_Node000012"><a xlink:href="parser_8hpp.html" target="_top" xlink:title=" ">
<polygon fill="#fff0f0" stroke="red" points="171,-85 79,-85 79,-66 171,-66 171,-85"/>
<text text-anchor="middle" x="125" y="-73" font-family="Helvetica,sans-Serif" font-size="10.00">../lib/parser.hpp</text>
</a>
</g>
</g>
<!-- Node11&#45;&gt;Node12 -->
<g id="edge12_Node000011_Node000012" class="edge">
<title>Node11&#45;&gt;Node12</title>
<g id="a_edge12_Node000011_Node000012"><a xlink:title=" ">
<path fill="none" stroke="#63b8ff" d="M407.48,-123.88C353.58,-114.84 247.04,-96.97 181.31,-85.95"/>
<polygon fill="#63b8ff" stroke="#63b8ff" points="181.57,-82.44 171.13,-84.24 180.41,-89.34 181.57,-82.44"/>
</a>
</g>
</g>
<!-- Node18 -->
<g id="Node000018" class="node">
<title>Node18</title>
<g id="a_Node000018"><a xlink:title=" ">
<polygon fill="#e0e0e0" stroke="#999999" points="312.5,-30 179.5,-30 179.5,0 312.5,0 312.5,-30"/>
<text text-anchor="start" x="187.5" y="-18" font-family="Helvetica,sans-Serif" font-size="10.00">emlabcpp/experimental</text>
<text text-anchor="middle" x="246" y="-7" font-family="Helvetica,sans-Serif" font-size="10.00">/string_buffer.hpp</text>
</a>
</g>
</g>
<!-- Node11&#45;&gt;Node18 -->
<g id="edge18_Node000011_Node000018" class="edge">
<title>Node11&#45;&gt;Node18</title>
<g id="a_edge18_Node000011_Node000018"><a xlink:title=" ">
<path fill="none" stroke="#63b8ff" d="M431.6,-120.83C417.07,-107.75 387.91,-82.7 360,-66 339.17,-53.54 314.68,-42.39 293.75,-33.8"/>
<polygon fill="#63b8ff" stroke="#63b8ff" points="294.99,-30.53 284.4,-30.04 292.37,-37.02 294.99,-30.53"/>
</a>
</g>
</g>
<!-- Node21 -->
<g id="Node000021" class="node">
<title>Node21</title>
<g id="a_Node000021"><a xlink:href="status_8hpp.html" target="_top" xlink:title=" ">
<polygon fill="white" stroke="#666666" points="517.5,-85 440.5,-85 440.5,-66 517.5,-66 517.5,-85"/>
<text text-anchor="middle" x="479" y="-73" font-family="Helvetica,sans-Serif" font-size="10.00">../status.hpp</text>
</a>
</g>
</g>
<!-- Node11&#45;&gt;Node21 -->
<g id="edge15_Node000011_Node000021" class="edge">
<title>Node11&#45;&gt;Node21</title>
<g id="a_edge15_Node000011_Node000021"><a xlink:title=" ">
<path fill="none" stroke="#63b8ff" d="M447.27,-120.75C452.59,-113.34 460.36,-102.5 466.88,-93.41"/>
<polygon fill="#63b8ff" stroke="#63b8ff" points="469.86,-95.26 472.84,-85.09 464.17,-91.18 469.86,-95.26"/>
</a>
</g>
</g>
<!-- Node12&#45;&gt;Node18 -->
<g id="edge13_Node000012_Node000018" class="edge">
<title>Node12&#45;&gt;Node18</title>
<g id="a_edge13_Node000012_Node000018"><a xlink:title=" ">
<path fill="none" stroke="#63b8ff" d="M142.59,-65.99C159.57,-57.79 185.83,-45.09 207.64,-34.55"/>
<polygon fill="#63b8ff" stroke="#63b8ff" points="209.2,-37.68 216.68,-30.18 206.15,-31.38 209.2,-37.68"/>
</a>
</g>
</g>
<!-- Node20 -->
<g id="Node000020" class="node">
<title>Node20</title>
<g id="a_Node000020"><a xlink:title=" ">
<polygon fill="#e0e0e0" stroke="#999999" points="82.5,-24.5 13.5,-24.5 13.5,-5.5 82.5,-5.5 82.5,-24.5"/>
<text text-anchor="middle" x="48" y="-12.5" font-family="Helvetica,sans-Serif" font-size="10.00">vari/vopt.h</text>
</a>
</g>
</g>
<!-- Node12&#45;&gt;Node20 -->
<g id="edge14_Node000012_Node000020" class="edge">
<title>Node12&#45;&gt;Node20</title>
<g id="a_edge14_Node000012_Node000020"><a xlink:title=" ">
<path fill="none" stroke="#63b8ff" d="M113.64,-65.87C101.58,-56.71 82.3,-42.06 67.75,-31.01"/>
<polygon fill="#63b8ff" stroke="#63b8ff" points="69.49,-27.93 59.41,-24.67 65.25,-33.5 69.49,-27.93"/>
</a>
</g>
</g>
<!-- Node21&#45;&gt;Node4 -->
<g id="edge16_Node000021_Node000004" class="edge">
<title>Node21&#45;&gt;Node4</title>
<g id="a_edge16_Node000021_Node000004"><a xlink:title=" ">
<path fill="none" stroke="#63b8ff" d="M462.33,-65.87C443.72,-56.23 413.38,-40.53 391.72,-29.31"/>
<polygon fill="#63b8ff" stroke="#63b8ff" points="393.23,-26.16 382.74,-24.67 390.01,-32.37 393.23,-26.16"/>
</a>
</g>
</g>
<!-- Node21&#45;&gt;Node6 -->
<g id="edge17_Node000021_Node000006" class="edge">
<title>Node21&#45;&gt;Node6</title>
<g id="a_edge17_Node000021_Node000006"><a xlink:title=" ">
<path fill="none" stroke="#63b8ff" d="M479,-65.87C479,-57.75 479,-45.31 479,-34.89"/>
<polygon fill="#63b8ff" stroke="#63b8ff" points="482.5,-34.67 479,-24.67 475.5,-34.67 482.5,-34.67"/>
</a>
</g>
</g>
<!-- Node23&#45;&gt;Node24 -->
<g id="edge20_Node000023_Node000024" class="edge">
<title>Node23&#45;&gt;Node24</title>
<g id="a_edge20_Node000023_Node000024"><a xlink:title=" ">
<path fill="none" stroke="#63b8ff" d="M781.48,-357.44C773.07,-355.63 764.24,-353.74 756,-352 690.82,-338.22 615.64,-322.68 566.82,-312.63"/>
<polygon fill="#63b8ff" stroke="#63b8ff" points="567.32,-309.16 556.82,-310.58 565.91,-316.02 567.32,-309.16"/>
</a>
</g>
</g>
<!-- Node35 -->
<g id="Node000035" class="node">
<title>Node35</title>
<g id="a_Node000035"><a xlink:href="indication_8hpp.html" target="_top" xlink:title=" ">
<polygon fill="#fff0f0" stroke="red" points="802.5,-250 683.5,-250 683.5,-231 802.5,-231 802.5,-250"/>
<text text-anchor="middle" x="743" y="-238" font-family="Helvetica,sans-Serif" font-size="10.00">../mon/indication.hpp</text>
</a>
</g>
</g>
<!-- Node23&#45;&gt;Node35 -->
<g id="edge21_Node000023_Node000035" class="edge">
<title>Node23&#45;&gt;Node35</title>
<g id="a_edge21_Node000023_Node000035"><a xlink:title=" ">
<path fill="none" stroke="#63b8ff" d="M809.11,-357.3C797.43,-348.18 779.82,-332.87 769,-316 757.93,-298.74 750.92,-276.2 747,-260.45"/>
<polygon fill="#63b8ff" stroke="#63b8ff" points="750.33,-259.32 744.68,-250.35 743.51,-260.88 750.33,-259.32"/>
</a>
</g>
</g>
<!-- Node38 -->
<g id="Node000038" class="node">
<title>Node38</title>
<g id="a_Node000038"><a xlink:href="monitor_8hpp.html" target="_top" xlink:title=" ">
<polygon fill="#fff0f0" stroke="red" points="721.5,-310.5 612.5,-310.5 612.5,-291.5 721.5,-291.5 721.5,-310.5"/>
<text text-anchor="middle" x="667" y="-298.5" font-family="Helvetica,sans-Serif" font-size="10.00">../mon/monitor.hpp</text>
</a>
</g>
</g>
<!-- Node23&#45;&gt;Node38 -->
<g id="edge23_Node000023_Node000038" class="edge">
<title>Node23&#45;&gt;Node38</title>
<g id="a_edge23_Node000023_Node000038"><a xlink:title=" ">
<path fill="none" stroke="#63b8ff" d="M800.23,-357.37C773.71,-346.35 727.62,-327.19 697.21,-314.55"/>
<polygon fill="#63b8ff" stroke="#63b8ff" points="698.51,-311.3 687.93,-310.7 695.82,-317.77 698.51,-311.3"/>
</a>
</g>
</g>
<!-- Node42 -->
<g id="Node000042" class="node">
<title>Node42</title>
<g id="a_Node000042"><a xlink:href="metrics_8hpp.html" target="_top" xlink:title=" ">
<polygon fill="#fff0f0" stroke="red" points="930,-250 826,-250 826,-231 930,-231 930,-250"/>
<text text-anchor="middle" x="878" y="-238" font-family="Helvetica,sans-Serif" font-size="10.00">../mtr/metrics.hpp</text>
</a>
</g>
</g>
<!-- Node23&#45;&gt;Node42 -->
<g id="edge30_Node000023_Node000042" class="edge">
<title>Node23&#45;&gt;Node42</title>
<g id="a_edge30_Node000023_Node000042"><a xlink:title=" ">
<path fill="none" stroke="#63b8ff" d="M848.4,-357.37C867.45,-349.77 891.41,-336.65 903,-316 913.39,-297.5 901.93,-273.99 891.34,-258.38"/>
<polygon fill="#63b8ff" stroke="#63b8ff" points="894.09,-256.22 885.37,-250.2 888.44,-260.34 894.09,-256.22"/>
</a>
</g>
</g>
<!-- Node50 -->
<g id="Node000050" class="node">
<title>Node50</title>
<g id="a_Node000050"><a xlink:title=" ">
<polygon fill="#e0e0e0" stroke="#999999" points="894,-316 778,-316 778,-286 894,-286 894,-316"/>
<text text-anchor="start" x="786" y="-304" font-family="Helvetica,sans-Serif" font-size="10.00">emlabcpp/pmr/stack</text>
<text text-anchor="middle" x="836" y="-293" font-family="Helvetica,sans-Serif" font-size="10.00">_resource.hpp</text>
</a>
</g>
</g>
<!-- Node23&#45;&gt;Node50 -->
<g id="edge32_Node000023_Node000050" class="edge">
<title>Node23&#45;&gt;Node50</title>
<g id="a_edge32_Node000023_Node000050"><a xlink:title=" ">
<path fill="none" stroke="#63b8ff" d="M823.02,-357.37C824.89,-349.4 827.75,-337.2 830.31,-326.27"/>
<polygon fill="#63b8ff" stroke="#63b8ff" points="833.76,-326.9 832.63,-316.36 826.94,-325.3 833.76,-326.9"/>
</a>
</g>
</g>
<!-- Node35&#45;&gt;Node2 -->
<g id="edge22_Node000035_Node000002" class="edge">
<title>Node35&#45;&gt;Node2</title>
<g id="a_edge22_Node000035_Node000002"><a xlink:title=" ">
<path fill="none" stroke="#63b8ff" d="M743,-230.74C743,-205.31 743,-131.08 743,-95.69"/>
<polygon fill="#63b8ff" stroke="#63b8ff" points="746.5,-95.31 743,-85.31 739.5,-95.31 746.5,-95.31"/>
</a>
</g>
</g>
<!-- Node38&#45;&gt;Node35 -->
<g id="edge29_Node000038_Node000035" class="edge">
<title>Node38&#45;&gt;Node35</title>
<g id="a_edge29_Node000038_Node000035"><a xlink:title=" ">
<path fill="none" stroke="#63b8ff" d="M678.21,-291.37C690.11,-282.21 709.14,-267.56 723.51,-256.51"/>
<polygon fill="#63b8ff" stroke="#63b8ff" points="725.95,-259.04 731.74,-250.17 721.68,-253.49 725.95,-259.04"/>
</a>
</g>
</g>
<!-- Node41 -->
<g id="Node000041" class="node">
<title>Node41</title>
<g id="a_Node000041"><a xlink:href="interfaces_8hpp.html" target="_top" xlink:title=" ">
<polygon fill="#fff0f0" stroke="red" points="656,-250 542,-250 542,-231 656,-231 656,-250"/>
<text text-anchor="middle" x="599" y="-238" font-family="Helvetica,sans-Serif" font-size="10.00">../drv/interfaces.hpp</text>
</a>
</g>
</g>
<!-- Node38&#45;&gt;Node41 -->
<g id="edge24_Node000038_Node000041" class="edge">
<title>Node38&#45;&gt;Node41</title>
<g id="a_edge24_Node000038_Node000041"><a xlink:title=" ">
<path fill="none" stroke="#63b8ff" d="M656.97,-291.37C646.42,-282.3 629.61,-267.84 616.81,-256.82"/>
<polygon fill="#63b8ff" stroke="#63b8ff" points="618.94,-254.04 609.07,-250.17 614.37,-259.34 618.94,-254.04"/>
</a>
</g>
</g>
<!-- Node41&#45;&gt;Node2 -->
<g id="edge25_Node000041_Node000002" class="edge">
<title>Node41&#45;&gt;Node2</title>
<g id="a_edge25_Node000041_Node000002"><a xlink:title=" ">
<path fill="none" stroke="#63b8ff" d="M606.74,-230.74C629.79,-204.65 698.24,-127.17 728.42,-93"/>
<polygon fill="#63b8ff" stroke="#63b8ff" points="731.22,-95.12 735.22,-85.31 725.98,-90.48 731.22,-95.12"/>
</a>
</g>
</g>
<!-- Node41&#45;&gt;Node4 -->
<g id="edge28_Node000041_Node000004" class="edge">
<title>Node41&#45;&gt;Node4</title>
<g id="a_edge28_Node000041_Node000004"><a xlink:title=" ">
<path fill="none" stroke="#63b8ff" d="M598.18,-230.6C595,-201.78 580.91,-110.32 527,-66 481.68,-28.74 455.44,-49.2 400,-30 398.38,-29.44 396.73,-28.84 395.07,-28.22"/>
<polygon fill="#63b8ff" stroke="#63b8ff" points="396.22,-24.92 385.63,-24.53 393.67,-31.43 396.22,-24.92"/>
</a>
</g>
</g>
<!-- Node41&#45;&gt;Node10 -->
<g id="edge26_Node000041_Node000010" class="edge">
<title>Node41&#45;&gt;Node10</title>
<g id="a_edge26_Node000041_Node000010"><a xlink:title=" ">
<path fill="none" stroke="#63b8ff" d="M573.61,-230.98C547.2,-222.13 505.65,-208.19 476.11,-198.28"/>
<polygon fill="#63b8ff" stroke="#63b8ff" points="477.18,-194.94 466.58,-195.08 474.95,-201.58 477.18,-194.94"/>
</a>
</g>
</g>
<!-- Node41&#45;&gt;Node21 -->
<g id="edge27_Node000041_Node000021" class="edge">
<title>Node41&#45;&gt;Node21</title>
<g id="a_edge27_Node000041_Node000021"><a xlink:title=" ">
<path fill="none" stroke="#63b8ff" d="M594.95,-230.91C585.16,-210.59 558.71,-158.47 528,-121 519.21,-110.28 507.82,-99.78 498.24,-91.67"/>
<polygon fill="#63b8ff" stroke="#63b8ff" points="500.33,-88.87 490.39,-85.22 495.89,-94.27 500.33,-88.87"/>
</a>
</g>
</g>
<!-- Node42&#45;&gt;Node2 -->
<g id="edge31_Node000042_Node000002" class="edge">
<title>Node42&#45;&gt;Node2</title>
<g id="a_edge31_Node000042_Node000002"><a xlink:title=" ">
<path fill="none" stroke="#63b8ff" d="M870.74,-230.74C849.22,-204.76 785.51,-127.83 757.03,-93.44"/>
<polygon fill="#63b8ff" stroke="#63b8ff" points="759.37,-90.78 750.29,-85.31 753.98,-95.24 759.37,-90.78"/>
</a>
</g>
</g>
<!-- Node51&#45;&gt;Node21 -->
<g id="edge34_Node000051_Node000021" class="edge">
<title>Node51&#45;&gt;Node21</title>
<g id="a_edge34_Node000051_Node000021"><a xlink:title=" ">
<path fill="none" stroke="#63b8ff" d="M385.83,-291.34C415.54,-276.5 472.26,-243.07 495,-195 510.62,-161.98 497.21,-118.37 487.3,-94.32"/>
<polygon fill="#63b8ff" stroke="#63b8ff" points="490.44,-92.79 483.23,-85.03 484.03,-95.6 490.44,-92.79"/>
</a>
</g>
</g>
<!-- Node51&#45;&gt;Node41 -->
<g id="edge35_Node000051_Node000041" class="edge">
<title>Node51&#45;&gt;Node41</title>
<g id="a_edge35_Node000051_Node000041"><a xlink:title=" ">
<path fill="none" stroke="#63b8ff" d="M400.73,-291.49C441.63,-281.18 510.62,-263.78 555.48,-252.47"/>
<polygon fill="#63b8ff" stroke="#63b8ff" points="556.38,-255.86 565.22,-250.02 554.67,-249.07 556.38,-255.86"/>
</a>
</g>
</g>
<!-- Node52&#45;&gt;Node12 -->
<g id="edge38_Node000052_Node000012" class="edge">
<title>Node52&#45;&gt;Node12</title>
<g id="a_edge38_Node000052_Node000012"><a xlink:title=" ">
<path fill="none" stroke="#63b8ff" d="M38.7,-175.94C24.91,-163.42 3.53,-139.56 16,-121 28.1,-102.99 48.9,-92.27 69.11,-85.88"/>
<polygon fill="#63b8ff" stroke="#63b8ff" points="70.28,-89.19 78.94,-83.08 68.36,-82.46 70.28,-89.19"/>
</a>
</g>
</g>
<!-- Node52&#45;&gt;Node18 -->
<g id="edge42_Node000052_Node000018" class="edge">
<title>Node52&#45;&gt;Node18</title>
<g id="a_edge42_Node000052_Node000018"><a xlink:title=" ">
<path fill="none" stroke="#63b8ff" d="M98.27,-177.3C142.02,-169.91 201.51,-157.08 218,-140 243.84,-113.22 247.79,-67.93 247.47,-40.12"/>
<polygon fill="#63b8ff" stroke="#63b8ff" points="250.97,-39.94 247.16,-30.06 243.97,-40.16 250.97,-39.94"/>
</a>
</g>
</g>
<!-- Node52&#45;&gt;Node20 -->
<g id="edge43_Node000052_Node000020" class="edge">
<title>Node52&#45;&gt;Node20</title>
<g id="a_edge43_Node000052_Node000020"><a xlink:title=" ">
<path fill="none" stroke="#63b8ff" d="M37.36,-175.73C27.69,-167.67 14.65,-154.74 9,-140 -5.41,-102.42 19.18,-57.03 35.43,-32.94"/>
<polygon fill="#63b8ff" stroke="#63b8ff" points="38.45,-34.73 41.35,-24.54 32.73,-30.7 38.45,-34.73"/>
</a>
</g>
</g>
<!-- Node26 -->
<g id="Node000026" class="node">
<title>Node26</title>
<g id="a_Node000026"><a xlink:href="iface_2base_8hpp.html" target="_top" xlink:title=" ">
<polygon fill="#fff0f0" stroke="red" points="208.5,-140 111.5,-140 111.5,-121 208.5,-121 208.5,-140"/>
<text text-anchor="middle" x="160" y="-128" font-family="Helvetica,sans-Serif" font-size="10.00">../iface/base.hpp</text>
</a>
</g>
</g>
<!-- Node52&#45;&gt;Node26 -->
<g id="edge39_Node000052_Node000026" class="edge">
<title>Node52&#45;&gt;Node26</title>
<g id="a_edge39_Node000052_Node000026"><a xlink:title=" ">
<path fill="none" stroke="#63b8ff" d="M66.83,-175.98C84.61,-167.5 112.15,-154.35 132.68,-144.54"/>
<polygon fill="#63b8ff" stroke="#63b8ff" points="134.33,-147.64 141.84,-140.17 131.31,-141.32 134.33,-147.64"/>
</a>
</g>
</g>
<!-- Node53 -->
<g id="Node000053" class="node">
<title>Node53</title>
<g id="a_Node000053"><a xlink:title=" ">
<polygon fill="#e0e0e0" stroke="#999999" points="93,-140 25,-140 25,-121 93,-121 93,-140"/>
<text text-anchor="middle" x="59" y="-128" font-family="Helvetica,sans-Serif" font-size="10.00">vari/vval.h</text>
</a>
</g>
</g>
<!-- Node52&#45;&gt;Node53 -->
<g id="edge44_Node000052_Node000053" class="edge">
<title>Node52&#45;&gt;Node53</title>
<g id="a_edge44_Node000052_Node000053"><a xlink:title=" ">
<path fill="none" stroke="#63b8ff" d="M50.65,-175.75C51.96,-168.8 53.84,-158.85 55.48,-150.13"/>
<polygon fill="#63b8ff" stroke="#63b8ff" points="58.96,-150.56 57.38,-140.09 52.09,-149.27 58.96,-150.56"/>
</a>
</g>
</g>
<!-- Node26&#45;&gt;Node4 -->
<g id="edge40_Node000026_Node000004" class="edge">
<title>Node26&#45;&gt;Node4</title>
<g id="a_edge40_Node000026_Node000004"><a xlink:title=" ">
<path fill="none" stroke="#63b8ff" d="M175.48,-120.97C210.98,-101.41 298.44,-53.22 341.4,-29.56"/>
<polygon fill="#63b8ff" stroke="#63b8ff" points="343.27,-32.52 350.34,-24.63 339.89,-26.39 343.27,-32.52"/>
</a>
</g>
</g>
<!-- Node26&#45;&gt;Node12 -->
<g id="edge41_Node000026_Node000012" class="edge">
<title>Node26&#45;&gt;Node12</title>
<g id="a_edge41_Node000026_Node000012"><a xlink:title=" ">
<path fill="none" stroke="#63b8ff" d="M154.22,-120.75C149.38,-113.42 142.32,-102.73 136.36,-93.7"/>
<polygon fill="#63b8ff" stroke="#63b8ff" points="139.1,-91.5 130.67,-85.09 133.26,-95.36 139.1,-91.5"/>
</a>
</g>
</g>
<!-- Node54&#45;&gt;Node10 -->
<g id="edge46_Node000054_Node000010" class="edge">
<title>Node54&#45;&gt;Node10</title>
<g id="a_edge46_Node000054_Node000010"><a xlink:title=" ">
<path fill="none" stroke="#63b8ff" d="M258.03,-230.98C295.5,-221.87 355.05,-207.4 395.98,-197.45"/>
<polygon fill="#63b8ff" stroke="#63b8ff" points="396.81,-200.85 405.7,-195.08 395.16,-194.04 396.81,-200.85"/>
</a>
</g>
</g>
<!-- Node54&#45;&gt;Node52 -->
<g id="edge47_Node000054_Node000052" class="edge">
<title>Node54&#45;&gt;Node52</title>
<g id="a_edge47_Node000054_Node000052"><a xlink:title=" ">
<path fill="none" stroke="#63b8ff" d="M195.04,-230.98C165.7,-222.05 119.4,-207.94 86.81,-198.02"/>
<polygon fill="#63b8ff" stroke="#63b8ff" points="87.76,-194.65 77.18,-195.08 85.72,-201.34 87.76,-194.65"/>
</a>
</g>
</g>
<!-- Node55 -->
<g id="Node000055" class="node">
<title>Node55</title>
<g id="a_Node000055"><a xlink:href="port_8hpp.html" target="_top" xlink:title=" ">
<polygon fill="#fff0f0" stroke="red" points="378.5,-195 315.5,-195 315.5,-176 378.5,-176 378.5,-195"/>
<text text-anchor="middle" x="347" y="-183" font-family="Helvetica,sans-Serif" font-size="10.00">./port.hpp</text>
</a>
</g>
</g>
<!-- Node54&#45;&gt;Node55 -->
<g id="edge48_Node000054_Node000055" class="edge">
<title>Node54&#45;&gt;Node55</title>
<g id="a_edge48_Node000054_Node000055"><a xlink:title=" ">
<path fill="none" stroke="#63b8ff" d="M242.92,-230.98C263.05,-222.38 294.38,-208.99 317.41,-199.15"/>
<polygon fill="#63b8ff" stroke="#63b8ff" points="318.9,-202.32 326.71,-195.17 316.14,-195.88 318.9,-202.32"/>
</a>
</g>
</g>
<!-- Node56 -->
<g id="Node000056" class="node">
<title>Node56</title>
<g id="a_Node000056"><a xlink:href="scmdio_2base_8hpp.html" target="_top" xlink:title=" ">
<polygon fill="#fff0f0" stroke="red" points="350.5,-85 289.5,-85 289.5,-66 350.5,-66 350.5,-85"/>
<text text-anchor="middle" x="320" y="-73" font-family="Helvetica,sans-Serif" font-size="10.00">base.hpp</text>
</a>
</g>
</g>
<!-- Node54&#45;&gt;Node56 -->
<g id="edge52_Node000054_Node000056" class="edge">
<title>Node54&#45;&gt;Node56</title>
<g id="a_edge52_Node000054_Node000056"><a xlink:title=" ">
<path fill="none" stroke="#63b8ff" d="M196.97,-230.93C168.45,-220.11 128.88,-199.97 146,-176 174.67,-135.86 208.61,-165.24 251,-140 272.51,-127.19 293.08,-106.85 306.08,-92.65"/>
<polygon fill="#63b8ff" stroke="#63b8ff" points="308.76,-94.9 312.8,-85.11 303.54,-90.24 308.76,-94.9"/>
</a>
</g>
</g>
<!-- Node64 -->
<g id="Node000064" class="node">
<title>Node64</title>
<g id="a_Node000064"><a xlink:title=" ">
<polygon fill="#e0e0e0" stroke="#999999" points="297.5,-195 154.5,-195 154.5,-176 297.5,-176 297.5,-195"/>
<text text-anchor="middle" x="226" y="-183" font-family="Helvetica,sans-Serif" font-size="10.00">boost/asio/serial_port.hpp</text>
</a>
</g>
</g>
<!-- Node54&#45;&gt;Node64 -->
<g id="edge53_Node000054_Node000064" class="edge">
<title>Node54&#45;&gt;Node64</title>
<g id="a_edge53_Node000054_Node000064"><a xlink:title=" ">
<path fill="none" stroke="#63b8ff" d="M223.5,-230.75C223.89,-223.8 224.45,-213.85 224.95,-205.13"/>
<polygon fill="#63b8ff" stroke="#63b8ff" points="228.44,-205.27 225.51,-195.09 221.45,-204.88 228.44,-205.27"/>
</a>
</g>
</g>
<!-- Node55&#45;&gt;Node56 -->
<g id="edge49_Node000055_Node000056" class="edge">
<title>Node55&#45;&gt;Node56</title>
<g id="a_edge49_Node000055_Node000056"><a xlink:title=" ">
<path fill="none" stroke="#63b8ff" d="M344.79,-175.66C340.4,-158.09 330.49,-118.45 324.61,-94.95"/>
<polygon fill="#63b8ff" stroke="#63b8ff" points="327.99,-94.01 322.16,-85.16 321.19,-95.71 327.99,-94.01"/>
</a>
</g>
</g>
<!-- Node56&#45;&gt;Node4 -->
<g id="edge50_Node000056_Node000004" class="edge">
<title>Node56&#45;&gt;Node4</title>
<g id="a_edge50_Node000056_Node000004"><a xlink:title=" ">
<path fill="none" stroke="#63b8ff" d="M326.79,-65.87C333.65,-57.14 344.43,-43.43 352.95,-32.59"/>
<polygon fill="#63b8ff" stroke="#63b8ff" points="355.75,-34.69 359.18,-24.67 350.25,-30.36 355.75,-34.69"/>
</a>
</g>
</g>
<!-- Node56&#45;&gt;Node18 -->
<g id="edge51_Node000056_Node000018" class="edge">
<title>Node56&#45;&gt;Node18</title>
<g id="a_edge51_Node000056_Node000018"><a xlink:title=" ">
<path fill="none" stroke="#63b8ff" d="M309.08,-65.87C299.32,-58.15 284.63,-46.54 271.88,-36.46"/>
<polygon fill="#63b8ff" stroke="#63b8ff" points="273.87,-33.57 263.85,-30.11 269.53,-39.06 273.87,-33.57"/>
</a>
</g>
</g>
<!-- Node65&#45;&gt;Node23 -->
<g id="edge55_Node000065_Node000023" class="edge">
<title>Node65&#45;&gt;Node23</title>
<g id="a_edge55_Node000065_Node000023"><a xlink:title=" ">
<path fill="none" stroke="#63b8ff" d="M634.7,-417.99C672.96,-407.73 737.41,-390.43 779.58,-379.12"/>
<polygon fill="#63b8ff" stroke="#63b8ff" points="780.51,-382.49 789.26,-376.52 778.7,-375.73 780.51,-382.49"/>
</a>
</g>
</g>
<!-- Node65&#45;&gt;Node55 -->
<g id="edge59_Node000065_Node000055" class="edge">
<title>Node65&#45;&gt;Node55</title>
<g id="a_edge59_Node000065_Node000055"><a xlink:title=" ">
<path fill="none" stroke="#63b8ff" d="M555.48,-426.55C480.12,-425.5 338.49,-418.58 307,-382 262.18,-329.94 310.79,-241.24 334.98,-203.89"/>
<polygon fill="#63b8ff" stroke="#63b8ff" points="338.16,-205.43 340.8,-195.17 332.34,-201.55 338.16,-205.43"/>
</a>
</g>
</g>
<!-- Node66 -->
<g id="Node000066" class="node">
<title>Node66</title>
<g id="a_Node000066"><a xlink:href="core_2dispatcher_8hpp.html" target="_top" xlink:title=" ">
<polygon fill="#fff0f0" stroke="red" points="446,-376.5 316,-376.5 316,-357.5 446,-357.5 446,-376.5"/>
<text text-anchor="middle" x="381" y="-364.5" font-family="Helvetica,sans-Serif" font-size="10.00">../../core/dispatcher.hpp</text>
</a>
</g>
</g>
<!-- Node65&#45;&gt;Node66 -->
<g id="edge56_Node000065_Node000066" class="edge">
<title>Node65&#45;&gt;Node66</title>
<g id="a_edge56_Node000065_Node000066"><a xlink:title=" ">
<path fill="none" stroke="#63b8ff" d="M570.72,-417.99C531.75,-407.73 466.12,-390.43 423.18,-379.12"/>
<polygon fill="#63b8ff" stroke="#63b8ff" points="423.88,-375.68 413.32,-376.52 422.1,-382.45 423.88,-375.68"/>
</a>
</g>
</g>
<!-- Node65&#45;&gt;Node73 -->
<g id="edge60_Node000065_Node000073" class="edge">
<title>Node65&#45;&gt;Node73</title>
<g id="a_edge60_Node000065_Node000073"><a xlink:title=" ">
<path fill="none" stroke="#63b8ff" d="M650.77,-419.17C706.19,-410.59 800.3,-395.79 881,-382 893.12,-379.93 906.29,-377.57 918.26,-375.39"/>
<polygon fill="#63b8ff" stroke="#63b8ff" points="919.2,-378.78 928.41,-373.53 917.94,-371.89 919.2,-378.78"/>
</a>
</g>
</g>
<!-- Node75 -->
<g id="Node000075" class="node">
<title>Node75</title>
<g id="a_Node000075"><a xlink:title=" ">
<polygon fill="#e0e0e0" stroke="#999999" points="511.5,-376.5 464.5,-376.5 464.5,-357.5 511.5,-357.5 511.5,-376.5"/>
<text text-anchor="middle" x="488" y="-364.5" font-family="Helvetica,sans-Serif" font-size="10.00">deque</text>
</a>
</g>
</g>
<!-- Node65&#45;&gt;Node75 -->
<g id="edge62_Node000065_Node000075" class="edge">
<title>Node65&#45;&gt;Node75</title>
<g id="a_edge62_Node000065_Node000075"><a xlink:title=" ">
<path fill="none" stroke="#63b8ff" d="M586.03,-417.87C567.09,-408.23 536.21,-392.53 514.17,-381.31"/>
<polygon fill="#63b8ff" stroke="#63b8ff" points="515.54,-378.08 505.04,-376.67 512.36,-384.32 515.54,-378.08"/>
</a>
</g>
</g>
<!-- Node76 -->
<g id="Node000076" class="node">
<title>Node76</title>
<g id="a_Node000076"><a xlink:title=" ">
<polygon fill="#e0e0e0" stroke="#999999" points="676,-382 530,-382 530,-352 676,-352 676,-382"/>
<text text-anchor="start" x="538" y="-370" font-family="Helvetica,sans-Serif" font-size="10.00">emlabcpp/pmr/new_delete</text>
<text text-anchor="middle" x="603" y="-359" font-family="Helvetica,sans-Serif" font-size="10.00">_resource.hpp</text>
</a>
</g>
</g>
<!-- Node65&#45;&gt;Node76 -->
<g id="edge63_Node000065_Node000076" class="edge">
<title>Node65&#45;&gt;Node76</title>
<g id="a_edge63_Node000065_Node000076"><a xlink:title=" ">
<path fill="none" stroke="#63b8ff" d="M603,-417.87C603,-411.11 603,-401.35 603,-392.26"/>
<polygon fill="#63b8ff" stroke="#63b8ff" points="606.5,-392.11 603,-382.11 599.5,-392.11 606.5,-392.11"/>
</a>
</g>
</g>
<!-- Node66&#45;&gt;Node24 -->
<g id="edge57_Node000066_Node000024" class="edge">
<title>Node66&#45;&gt;Node24</title>
<g id="a_edge57_Node000066_Node000024"><a xlink:title=" ">
<path fill="none" stroke="#63b8ff" d="M399.07,-357.37C421.85,-346.49 461.22,-327.69 487.68,-315.05"/>
<polygon fill="#63b8ff" stroke="#63b8ff" points="489.27,-318.17 496.79,-310.7 486.25,-311.85 489.27,-318.17"/>
</a>
</g>
</g>
<!-- Node66&#45;&gt;Node52 -->
<g id="edge58_Node000066_Node000052" class="edge">
<title>Node66&#45;&gt;Node52</title>
<g id="a_edge58_Node000066_Node000052"><a xlink:title=" ">
<path fill="none" stroke="#63b8ff" d="M364.99,-357.34C311.52,-328.43 138.86,-235.08 73.96,-200"/>
<polygon fill="#63b8ff" stroke="#63b8ff" points="75.31,-196.75 64.85,-195.07 71.98,-202.91 75.31,-196.75"/>
</a>
</g>
</g>
<!-- Node73&#45;&gt;Node74 -->
<g id="edge61_Node000073_Node000074" class="edge">
<title>Node73&#45;&gt;Node74</title>
<g id="a_edge61_Node000073_Node000074"><a xlink:title=" ">
<path fill="none" stroke="#63b8ff" d="M967.31,-357.37C978.15,-347.31 996.3,-330.48 1009.74,-318.01"/>
<polygon fill="#63b8ff" stroke="#63b8ff" points="1012.45,-320.27 1017.4,-310.91 1007.69,-315.14 1012.45,-320.27"/>
</a>
</g>
</g>
</g>
</svg>
