<?xml version="1.0" encoding="UTF-8" standalone="no"?>
<!DOCTYPE svg PUBLIC "-//W3C//DTD SVG 1.1//EN"
 "http://www.w3.org/Graphics/SVG/1.1/DTD/svg11.dtd">
<!-- Generated by graphviz version 2.43.0 (0)
 -->
<!-- Title: src/mon/indication.cpp Pages: 1 -->
<svg width="157pt" height="196pt"
 viewBox="0.00 0.00 157.00 196.00" xmlns="http://www.w3.org/2000/svg" xmlns:xlink="http://www.w3.org/1999/xlink">
<g id="graph0" class="graph" transform="scale(1 1) rotate(0) translate(4 192)">
<title>src/mon/indication.cpp</title>
<polygon fill="white" stroke="transparent" points="-4,4 -4,-192 153,-192 153,4 -4,4"/>
<!-- Node1 -->
<g id="node1" class="node">
<title>Node1</title>
<g id="a_node1"><a xlink:title=" ">
<polygon fill="#bfbfbf" stroke="black" points="0,-168.5 0,-187.5 127,-187.5 127,-168.5 0,-168.5"/>
<text text-anchor="middle" x="63.5" y="-175.5" font-family="Helvetica,sans-Serif" font-size="10.00">src/mon/indication.cpp</text>
</a>
</g>
</g>
<!-- Node2 -->
<g id="node2" class="node">
<title>Node2</title>
<g id="a_node2"><a xlink:href="indication_8hpp.html" target="_top" xlink:title=" ">
<polygon fill="white" stroke="black" points="20.5,-112.5 20.5,-131.5 106.5,-131.5 106.5,-112.5 20.5,-112.5"/>
<text text-anchor="middle" x="63.5" y="-119.5" font-family="Helvetica,sans-Serif" font-size="10.00">indication.hpp</text>
</a>
</g>
</g>
<!-- Node1&#45;&gt;Node2 -->
<g id="edge1" class="edge">
<title>Node1&#45;&gt;Node2</title>
<path fill="none" stroke="midnightblue" d="M63.5,-168.08C63.5,-161.01 63.5,-150.86 63.5,-141.99"/>
<polygon fill="midnightblue" stroke="midnightblue" points="67,-141.75 63.5,-131.75 60,-141.75 67,-141.75"/>
</g>
<!-- Node3 -->
<g id="node3" class="node">
<title>Node3</title>
<g id="a_node3"><a xlink:href="base_2base_8hpp.html" target="_top" xlink:title=" ">
<polygon fill="white" stroke="red" points="20,-0.5 20,-19.5 107,-19.5 107,-0.5 20,-0.5"/>
<text text-anchor="middle" x="63.5" y="-7.5" font-family="Helvetica,sans-Serif" font-size="10.00">base/base.hpp</text>
</a>
</g>
</g>
<!-- Node2&#45;&gt;Node3 -->
<g id="edge2" class="edge">
<title>Node2&#45;&gt;Node3</title>
<path fill="none" stroke="midnightblue" d="M58.62,-112.37C53.94,-103.55 47.19,-89.3 44.5,-76 41.22,-59.82 47.26,-41.82 53.38,-28.88"/>
<polygon fill="midnightblue" stroke="midnightblue" points="56.64,-30.2 58.13,-19.71 50.42,-26.98 56.64,-30.2"/>
</g>
<!-- Node8 -->
<g id="node4" class="node">
<title>Node8</title>
<g id="a_node4"><a xlink:href="effects_8hpp.html" target="_top" xlink:title=" ">
<polygon fill="white" stroke="black" points="54,-56.5 54,-75.5 149,-75.5 149,-56.5 54,-56.5"/>
<text text-anchor="middle" x="101.5" y="-63.5" font-family="Helvetica,sans-Serif" font-size="10.00">mon/effects.hpp</text>
</a>
</g>
</g>
<!-- Node2&#45;&gt;Node8 -->
<g id="edge3" class="edge">
<title>Node2&#45;&gt;Node8</title>
<path fill="none" stroke="midnightblue" d="M69.77,-112.08C75.14,-104.46 83.02,-93.26 89.58,-83.94"/>
<polygon fill="midnightblue" stroke="midnightblue" points="92.45,-85.94 95.34,-75.75 86.72,-81.91 92.45,-85.94"/>
</g>
<!-- Node8&#45;&gt;Node3 -->
<g id="edge4" class="edge">
<title>Node8&#45;&gt;Node3</title>
<path fill="none" stroke="midnightblue" d="M95.23,-56.08C89.86,-48.46 81.98,-37.26 75.42,-27.94"/>
<polygon fill="midnightblue" stroke="midnightblue" points="78.28,-25.91 69.66,-19.75 72.55,-29.94 78.28,-25.91"/>
</g>
</g>
</svg>
