<?xml version="1.0" encoding="UTF-8" standalone="no"?>
<!DOCTYPE svg PUBLIC "-//W3C//DTD SVG 1.1//EN"
 "http://www.w3.org/Graphics/SVG/1.1/DTD/svg11.dtd">
<!-- Generated by graphviz version 2.43.0 (0)
 -->
<!-- Title: src/drv/interfaces.hpp Pages: 1 -->
<svg width="1173pt" height="207pt"
 viewBox="0.00 0.00 1173.19 207.00" xmlns="http://www.w3.org/2000/svg" xmlns:xlink="http://www.w3.org/1999/xlink">
<g id="graph0" class="graph" transform="scale(1 1) rotate(0) translate(4 203)">
<title>src/drv/interfaces.hpp</title>
<polygon fill="white" stroke="transparent" points="-4,4 -4,-203 1169.19,-203 1169.19,4 -4,4"/>
<!-- Node1 -->
<g id="node1" class="node">
<title>Node1</title>
<g id="a_node1"><a xlink:title=" ">
<polygon fill="#bfbfbf" stroke="black" points="537.69,-179.5 537.69,-198.5 659.69,-198.5 659.69,-179.5 537.69,-179.5"/>
<text text-anchor="middle" x="598.69" y="-186.5" font-family="Helvetica,sans-Serif" font-size="10.00">src/drv/interfaces.hpp</text>
</a>
</g>
</g>
<!-- Node2 -->
<g id="node2" class="node">
<title>Node2</title>
<g id="a_node2"><a xlink:href="base_2base_8hpp.html" target="_top" xlink:title=" ">
<polygon fill="white" stroke="black" points="912.69,-62 912.69,-81 1008.69,-81 1008.69,-62 912.69,-62"/>
<text text-anchor="middle" x="960.69" y="-69" font-family="Helvetica,sans-Serif" font-size="10.00">../base/base.hpp</text>
</a>
</g>
</g>
<!-- Node1&#45;&gt;Node2 -->
<g id="edge1" class="edge">
<title>Node1&#45;&gt;Node2</title>
<path fill="none" stroke="midnightblue" d="M590.56,-179.38C578.78,-165.85 559.92,-139.48 574.69,-123 623.79,-68.24 831.32,-100.1 903.69,-87 909.16,-86.01 914.87,-84.79 920.48,-83.48"/>
<polygon fill="midnightblue" stroke="midnightblue" points="921.52,-86.83 930.4,-81.05 919.85,-80.03 921.52,-86.83"/>
</g>
<!-- Node4 -->
<g id="node4" class="node">
<title>Node4</title>
<g id="a_node4"><a xlink:title=" ">
<polygon fill="white" stroke="#bfbfbf" points="19.69,-0.5 19.69,-19.5 69.69,-19.5 69.69,-0.5 19.69,-0.5"/>
<text text-anchor="middle" x="44.69" y="-7.5" font-family="Helvetica,sans-Serif" font-size="10.00">cstdint</text>
</a>
</g>
</g>
<!-- Node1&#45;&gt;Node4 -->
<g id="edge16" class="edge">
<title>Node1&#45;&gt;Node4</title>
<path fill="none" stroke="midnightblue" d="M537.46,-187.12C399.94,-183.71 73.35,-167.15 5.69,-87 -9.76,-68.69 9.83,-43.22 26.38,-26.92"/>
<polygon fill="midnightblue" stroke="midnightblue" points="29.17,-29.11 34.09,-19.73 24.39,-23.99 29.17,-29.11"/>
</g>
<!-- Node8 -->
<g id="node8" class="node">
<title>Node8</title>
<g id="a_node8"><a xlink:href="map_8hpp.html" target="_top" xlink:title=" ">
<polygon fill="white" stroke="black" points="440.69,-123.5 440.69,-142.5 526.69,-142.5 526.69,-123.5 440.69,-123.5"/>
<text text-anchor="middle" x="483.69" y="-130.5" font-family="Helvetica,sans-Serif" font-size="10.00">../cfg/map.hpp</text>
</a>
</g>
</g>
<!-- Node1&#45;&gt;Node8 -->
<g id="edge7" class="edge">
<title>Node1&#45;&gt;Node8</title>
<path fill="none" stroke="midnightblue" d="M580.47,-179.44C561.8,-170.68 532.54,-156.94 511.08,-146.86"/>
<polygon fill="midnightblue" stroke="midnightblue" points="512.37,-143.6 501.83,-142.52 509.4,-149.93 512.37,-143.6"/>
</g>
<!-- Node15 -->
<g id="node15" class="node">
<title>Node15</title>
<g id="a_node15"><a xlink:title=" ">
<polygon fill="white" stroke="#bfbfbf" points="583.19,-123.5 583.19,-142.5 702.19,-142.5 702.19,-123.5 583.19,-123.5"/>
<text text-anchor="middle" x="642.69" y="-130.5" font-family="Helvetica,sans-Serif" font-size="10.00">emlabcpp/outcome.h</text>
</a>
</g>
</g>
<!-- Node1&#45;&gt;Node15 -->
<g id="edge17" class="edge">
<title>Node1&#45;&gt;Node15</title>
<path fill="none" stroke="midnightblue" d="M605.96,-179.08C612.24,-171.38 621.48,-160.03 629.13,-150.65"/>
<polygon fill="midnightblue" stroke="midnightblue" points="631.96,-152.71 635.56,-142.75 626.53,-148.29 631.96,-152.71"/>
</g>
<!-- Node16 -->
<g id="node16" class="node">
<title>Node16</title>
<g id="a_node16"><a xlink:title=" ">
<polygon fill="white" stroke="#bfbfbf" points="720.69,-123.5 720.69,-142.5 824.69,-142.5 824.69,-123.5 720.69,-123.5"/>
<text text-anchor="middle" x="772.69" y="-130.5" font-family="Helvetica,sans-Serif" font-size="10.00">emlabcpp/result.h</text>
</a>
</g>
</g>
<!-- Node1&#45;&gt;Node16 -->
<g id="edge18" class="edge">
<title>Node1&#45;&gt;Node16</title>
<path fill="none" stroke="midnightblue" d="M626.27,-179.44C655.79,-170.28 702.81,-155.69 735.58,-145.52"/>
<polygon fill="midnightblue" stroke="midnightblue" points="736.74,-148.82 745.25,-142.52 734.66,-142.14 736.74,-148.82"/>
</g>
<!-- Node17 -->
<g id="node17" class="node">
<title>Node17</title>
<g id="a_node17"><a xlink:title=" ">
<polygon fill="white" stroke="#bfbfbf" points="842.69,-123.5 842.69,-142.5 882.69,-142.5 882.69,-123.5 842.69,-123.5"/>
<text text-anchor="middle" x="862.69" y="-130.5" font-family="Helvetica,sans-Serif" font-size="10.00">span</text>
</a>
</g>
</g>
<!-- Node1&#45;&gt;Node17 -->
<g id="edge19" class="edge">
<title>Node1&#45;&gt;Node17</title>
<path fill="none" stroke="midnightblue" d="M652.27,-179.5C697.9,-171.86 765.35,-159.63 832.58,-143.06"/>
<polygon fill="midnightblue" stroke="midnightblue" points="833.64,-146.4 842.49,-140.58 831.94,-139.61 833.64,-146.4"/>
</g>
<!-- Node3 -->
<g id="node3" class="node">
<title>Node3</title>
<g id="a_node3"><a xlink:title=" ">
<polygon fill="white" stroke="#bfbfbf" points="761.69,-0.5 761.69,-19.5 811.69,-19.5 811.69,-0.5 761.69,-0.5"/>
<text text-anchor="middle" x="786.69" y="-7.5" font-family="Helvetica,sans-Serif" font-size="10.00">chrono</text>
</a>
</g>
</g>
<!-- Node2&#45;&gt;Node3 -->
<g id="edge2" class="edge">
<title>Node2&#45;&gt;Node3</title>
<path fill="none" stroke="midnightblue" d="M935.76,-61.98C905.66,-51.68 854.86,-34.31 821.06,-22.75"/>
<polygon fill="midnightblue" stroke="midnightblue" points="822.17,-19.43 811.58,-19.51 819.91,-26.06 822.17,-19.43"/>
</g>
<!-- Node2&#45;&gt;Node4 -->
<g id="edge3" class="edge">
<title>Node2&#45;&gt;Node4</title>
<path fill="none" stroke="midnightblue" d="M931.63,-61.93C922.74,-59.63 912.88,-57.4 903.69,-56 740.91,-31.28 221.24,-15.76 80.27,-11.93"/>
<polygon fill="midnightblue" stroke="midnightblue" points="80.12,-8.42 70.03,-11.65 79.94,-15.42 80.12,-8.42"/>
</g>
<!-- Node5 -->
<g id="node5" class="node">
<title>Node5</title>
<g id="a_node5"><a xlink:title=" ">
<polygon fill="white" stroke="#bfbfbf" points="829.69,-0.5 829.69,-19.5 953.69,-19.5 953.69,-0.5 829.69,-0.5"/>
<text text-anchor="middle" x="891.69" y="-7.5" font-family="Helvetica,sans-Serif" font-size="10.00">emlabcpp/algorithm.h</text>
</a>
</g>
</g>
<!-- Node2&#45;&gt;Node5 -->
<g id="edge4" class="edge">
<title>Node2&#45;&gt;Node5</title>
<path fill="none" stroke="midnightblue" d="M950.81,-61.98C940.05,-52.7 922.62,-37.67 909.47,-26.33"/>
<polygon fill="midnightblue" stroke="midnightblue" points="911.42,-23.39 901.56,-19.51 906.85,-28.69 911.42,-23.39"/>
</g>
<!-- Node6 -->
<g id="node6" class="node">
<title>Node6</title>
<g id="a_node6"><a xlink:title=" ">
<polygon fill="white" stroke="#bfbfbf" points="971.69,-0.5 971.69,-19.5 1087.69,-19.5 1087.69,-0.5 971.69,-0.5"/>
<text text-anchor="middle" x="1029.69" y="-7.5" font-family="Helvetica,sans-Serif" font-size="10.00">emlabcpp/quantity.h</text>
</a>
</g>
</g>
<!-- Node2&#45;&gt;Node6 -->
<g id="edge5" class="edge">
<title>Node2&#45;&gt;Node6</title>
<path fill="none" stroke="midnightblue" d="M970.58,-61.98C981.34,-52.7 998.77,-37.67 1011.92,-26.33"/>
<polygon fill="midnightblue" stroke="midnightblue" points="1014.54,-28.69 1019.83,-19.51 1009.97,-23.39 1014.54,-28.69"/>
</g>
<!-- Node7 -->
<g id="node7" class="node">
<title>Node7</title>
<g id="a_node7"><a xlink:title=" ">
<polygon fill="white" stroke="#bfbfbf" points="1106.19,-0.5 1106.19,-19.5 1165.19,-19.5 1165.19,-0.5 1106.19,-0.5"/>
<text text-anchor="middle" x="1135.69" y="-7.5" font-family="Helvetica,sans-Serif" font-size="10.00">numbers</text>
</a>
</g>
</g>
<!-- Node2&#45;&gt;Node7 -->
<g id="edge6" class="edge">
<title>Node2&#45;&gt;Node7</title>
<path fill="none" stroke="midnightblue" d="M985.77,-61.98C1016.05,-51.68 1067.13,-34.31 1101.13,-22.75"/>
<polygon fill="midnightblue" stroke="midnightblue" points="1102.33,-26.04 1110.67,-19.51 1100.07,-19.41 1102.33,-26.04"/>
</g>
<!-- Node8&#45;&gt;Node2 -->
<g id="edge8" class="edge">
<title>Node8&#45;&gt;Node2</title>
<path fill="none" stroke="midnightblue" d="M526.92,-124.91C531.56,-124.22 536.22,-123.57 540.69,-123 701.5,-102.35 744.02,-115.06 903.69,-87 909.23,-86.03 915.01,-84.8 920.69,-83.48"/>
<polygon fill="midnightblue" stroke="midnightblue" points="921.82,-86.81 930.7,-81.03 920.16,-80.01 921.82,-86.81"/>
</g>
<!-- Node9 -->
<g id="node9" class="node">
<title>Node9</title>
<g id="a_node9"><a xlink:href="key_8hpp.html" target="_top" xlink:title=" ">
<polygon fill="white" stroke="black" points="15.19,-62 15.19,-81 74.19,-81 74.19,-62 15.19,-62"/>
<text text-anchor="middle" x="44.69" y="-69" font-family="Helvetica,sans-Serif" font-size="10.00">./key.hpp</text>
</a>
</g>
</g>
<!-- Node8&#45;&gt;Node9 -->
<g id="edge9" class="edge">
<title>Node8&#45;&gt;Node9</title>
<path fill="none" stroke="midnightblue" d="M440.64,-130.73C366.53,-127.75 210.51,-118.03 82.69,-87 79.86,-86.31 76.96,-85.47 74.08,-84.54"/>
<polygon fill="midnightblue" stroke="midnightblue" points="75.1,-81.19 64.51,-81.14 72.76,-87.79 75.1,-81.19"/>
</g>
<!-- Node10 -->
<g id="node10" class="node">
<title>Node10</title>
<g id="a_node10"><a xlink:title=" ">
<polygon fill="white" stroke="#bfbfbf" points="761.19,-56.5 761.19,-86.5 894.19,-86.5 894.19,-56.5 761.19,-56.5"/>
<text text-anchor="start" x="769.19" y="-74.5" font-family="Helvetica,sans-Serif" font-size="10.00">emlabcpp/experimental</text>
<text text-anchor="middle" x="827.69" y="-63.5" font-family="Helvetica,sans-Serif" font-size="10.00">/string_buffer.h</text>
</a>
</g>
</g>
<!-- Node8&#45;&gt;Node10 -->
<g id="edge11" class="edge">
<title>Node8&#45;&gt;Node10</title>
<path fill="none" stroke="midnightblue" d="M527.08,-125.09C578.27,-116.85 666.22,-102.47 751,-87.28"/>
<polygon fill="midnightblue" stroke="midnightblue" points="751.83,-90.69 761.05,-85.47 750.59,-83.8 751.83,-90.69"/>
</g>
<!-- Node11 -->
<g id="node11" class="node">
<title>Node11</title>
<g id="a_node11"><a xlink:title=" ">
<polygon fill="white" stroke="#bfbfbf" points="92.19,-56.5 92.19,-86.5 225.19,-86.5 225.19,-56.5 92.19,-56.5"/>
<text text-anchor="start" x="100.19" y="-74.5" font-family="Helvetica,sans-Serif" font-size="10.00">emlabcpp/experimental</text>
<text text-anchor="middle" x="158.69" y="-63.5" font-family="Helvetica,sans-Serif" font-size="10.00">/testing/convert.h</text>
</a>
</g>
</g>
<!-- Node8&#45;&gt;Node11 -->
<g id="edge12" class="edge">
<title>Node8&#45;&gt;Node11</title>
<path fill="none" stroke="midnightblue" d="M440.49,-124.32C392.85,-115.83 313.65,-101.62 235.44,-87.13"/>
<polygon fill="midnightblue" stroke="midnightblue" points="235.89,-83.65 225.42,-85.27 234.61,-90.53 235.89,-83.65"/>
</g>
<!-- Node12 -->
<g id="node12" class="node">
<title>Node12</title>
<g id="a_node12"><a xlink:title=" ">
<polygon fill="white" stroke="#bfbfbf" points="243.69,-56.5 243.69,-86.5 391.69,-86.5 391.69,-56.5 243.69,-56.5"/>
<text text-anchor="start" x="251.69" y="-74.5" font-family="Helvetica,sans-Serif" font-size="10.00">emlabcpp/protocol/register</text>
<text text-anchor="middle" x="317.69" y="-63.5" font-family="Helvetica,sans-Serif" font-size="10.00">_handler.h</text>
</a>
</g>
</g>
<!-- Node8&#45;&gt;Node12 -->
<g id="edge13" class="edge">
<title>Node8&#45;&gt;Node12</title>
<path fill="none" stroke="midnightblue" d="M459.91,-123.48C435.64,-114.78 397.28,-101.03 366.51,-90"/>
<polygon fill="midnightblue" stroke="midnightblue" points="367.41,-86.6 356.82,-86.52 365.05,-93.19 367.41,-86.6"/>
</g>
<!-- Node13 -->
<g id="node13" class="node">
<title>Node13</title>
<g id="a_node13"><a xlink:title=" ">
<polygon fill="white" stroke="#bfbfbf" points="409.69,-56.5 409.69,-86.5 557.69,-86.5 557.69,-56.5 409.69,-56.5"/>
<text text-anchor="start" x="417.69" y="-74.5" font-family="Helvetica,sans-Serif" font-size="10.00">emlabcpp/protocol/register</text>
<text text-anchor="middle" x="483.69" y="-63.5" font-family="Helvetica,sans-Serif" font-size="10.00">_map.h</text>
</a>
</g>
</g>
<!-- Node8&#45;&gt;Node13 -->
<g id="edge14" class="edge">
<title>Node8&#45;&gt;Node13</title>
<path fill="none" stroke="midnightblue" d="M483.69,-123.48C483.69,-116.47 483.69,-106.19 483.69,-96.7"/>
<polygon fill="midnightblue" stroke="midnightblue" points="487.19,-96.52 483.69,-86.52 480.19,-96.52 487.19,-96.52"/>
</g>
<!-- Node14 -->
<g id="node14" class="node">
<title>Node14</title>
<g id="a_node14"><a xlink:title=" ">
<polygon fill="white" stroke="#bfbfbf" points="576.19,-62 576.19,-81 743.19,-81 743.19,-62 576.19,-62"/>
<text text-anchor="middle" x="659.69" y="-69" font-family="Helvetica,sans-Serif" font-size="10.00">magic_enum/magic_enum.hpp</text>
</a>
</g>
</g>
<!-- Node8&#45;&gt;Node14 -->
<g id="edge15" class="edge">
<title>Node8&#45;&gt;Node14</title>
<path fill="none" stroke="midnightblue" d="M508.91,-123.48C539.36,-113.18 590.74,-95.81 624.94,-84.25"/>
<polygon fill="midnightblue" stroke="midnightblue" points="626.17,-87.53 634.52,-81.01 623.93,-80.9 626.17,-87.53"/>
</g>
<!-- Node9&#45;&gt;Node4 -->
<g id="edge10" class="edge">
<title>Node9&#45;&gt;Node4</title>
<path fill="none" stroke="midnightblue" d="M44.69,-61.98C44.69,-53.58 44.69,-40.48 44.69,-29.66"/>
<polygon fill="midnightblue" stroke="midnightblue" points="48.19,-29.51 44.69,-19.51 41.19,-29.51 48.19,-29.51"/>
</g>
</g>
</svg>
