<?xml version="1.0" encoding="UTF-8" standalone="no"?>
<!DOCTYPE svg PUBLIC "-//W3C//DTD SVG 1.1//EN"
 "http://www.w3.org/Graphics/SVG/1.1/DTD/svg11.dtd">
<!-- Generated by graphviz version 2.43.0 (0)
 -->
<!-- Title: src/fw/drv/leds.hpp Pages: 1 -->
<svg width="662pt" height="207pt"
 viewBox="0.00 0.00 662.00 207.00" xmlns="http://www.w3.org/2000/svg" xmlns:xlink="http://www.w3.org/1999/xlink">
<g id="graph0" class="graph" transform="scale(1 1) rotate(0) translate(4 203)">
<title>src/fw/drv/leds.hpp</title>
<polygon fill="white" stroke="transparent" points="-4,4 -4,-203 658,-203 658,4 -4,4"/>
<!-- Node1 -->
<g id="node1" class="node">
<title>Node1</title>
<g id="a_node1"><a xlink:title=" ">
<polygon fill="#bfbfbf" stroke="black" points="276.5,-179.5 276.5,-198.5 384.5,-198.5 384.5,-179.5 276.5,-179.5"/>
<text text-anchor="middle" x="330.5" y="-186.5" font-family="Helvetica,sans-Serif" font-size="10.00">src/fw/drv/leds.hpp</text>
</a>
</g>
</g>
<!-- Node2 -->
<g id="node2" class="node">
<title>Node2</title>
<g id="a_node2"><a xlink:href="base_8hpp.html" target="_top" xlink:title=" ">
<polygon fill="white" stroke="black" points="159,-56.5 159,-75.5 220,-75.5 220,-56.5 159,-56.5"/>
<text text-anchor="middle" x="189.5" y="-63.5" font-family="Helvetica,sans-Serif" font-size="10.00">base.hpp</text>
</a>
</g>
</g>
<!-- Node1&#45;&gt;Node2 -->
<g id="edge1" class="edge">
<title>Node1&#45;&gt;Node2</title>
<path fill="none" stroke="midnightblue" d="M301.42,-179.48C280.88,-172.33 253.71,-160.45 234.5,-143 216.64,-126.78 203.73,-101.79 196.44,-84.94"/>
<polygon fill="midnightblue" stroke="midnightblue" points="199.66,-83.57 192.63,-75.64 193.19,-86.22 199.66,-83.57"/>
</g>
<!-- Node6 -->
<g id="node5" class="node">
<title>Node6</title>
<g id="a_node5"><a xlink:title=" ">
<polygon fill="white" stroke="#bfbfbf" points="374.5,-0.5 374.5,-19.5 424.5,-19.5 424.5,-0.5 374.5,-0.5"/>
<text text-anchor="middle" x="399.5" y="-7.5" font-family="Helvetica,sans-Serif" font-size="10.00">cstdint</text>
</a>
</g>
</g>
<!-- Node1&#45;&gt;Node6 -->
<g id="edge13" class="edge">
<title>Node1&#45;&gt;Node6</title>
<path fill="none" stroke="midnightblue" d="M310.35,-179.46C295.84,-172.11 277.33,-160 268.5,-143 250.68,-108.68 245,-87.45 267.5,-56 273.36,-47.81 327.35,-31.26 364.44,-20.68"/>
<polygon fill="midnightblue" stroke="midnightblue" points="365.72,-23.95 374.39,-17.86 363.82,-17.21 365.72,-23.95"/>
</g>
<!-- Node9 -->
<g id="node8" class="node">
<title>Node9</title>
<g id="a_node8"><a xlink:href="drv__interfaces_8hpp.html" target="_top" xlink:title=" ">
<polygon fill="white" stroke="black" points="277,-118 277,-137 384,-137 384,-118 277,-118"/>
<text text-anchor="middle" x="330.5" y="-125" font-family="Helvetica,sans-Serif" font-size="10.00">drv_interfaces.hpp</text>
</a>
</g>
</g>
<!-- Node1&#45;&gt;Node9 -->
<g id="edge7" class="edge">
<title>Node1&#45;&gt;Node9</title>
<path fill="none" stroke="midnightblue" d="M330.5,-179.48C330.5,-171.08 330.5,-157.98 330.5,-147.16"/>
<polygon fill="midnightblue" stroke="midnightblue" points="334,-147.01 330.5,-137.01 327,-147.01 334,-147.01"/>
</g>
<!-- Node13 -->
<g id="node12" class="node">
<title>Node13</title>
<g id="a_node12"><a xlink:title=" ">
<polygon fill="white" stroke="#bfbfbf" points="402,-112.5 402,-142.5 535,-142.5 535,-112.5 402,-112.5"/>
<text text-anchor="start" x="410" y="-130.5" font-family="Helvetica,sans-Serif" font-size="10.00">emlabcpp/experimental</text>
<text text-anchor="middle" x="468.5" y="-119.5" font-family="Helvetica,sans-Serif" font-size="10.00">/function_view.h</text>
</a>
</g>
</g>
<!-- Node1&#45;&gt;Node13 -->
<g id="edge14" class="edge">
<title>Node1&#45;&gt;Node13</title>
<path fill="none" stroke="midnightblue" d="M350.27,-179.48C370.1,-170.93 401.24,-157.5 426.58,-146.57"/>
<polygon fill="midnightblue" stroke="midnightblue" points="428.18,-149.7 435.98,-142.52 425.41,-143.27 428.18,-149.7"/>
</g>
<!-- Node14 -->
<g id="node13" class="node">
<title>Node14</title>
<g id="a_node13"><a xlink:title=" ">
<polygon fill="white" stroke="#bfbfbf" points="553,-118 553,-137 654,-137 654,-118 553,-118"/>
<text text-anchor="middle" x="603.5" y="-125" font-family="Helvetica,sans-Serif" font-size="10.00">stm32g4xx_hal.h</text>
</a>
</g>
</g>
<!-- Node1&#45;&gt;Node14 -->
<g id="edge15" class="edge">
<title>Node1&#45;&gt;Node14</title>
<path fill="none" stroke="midnightblue" d="M373.23,-179.46C416.49,-170.7 485.27,-156.5 544.5,-143 549.45,-141.87 554.63,-140.65 559.77,-139.42"/>
<polygon fill="midnightblue" stroke="midnightblue" points="560.65,-142.81 569.54,-137.05 559,-136.01 560.65,-142.81"/>
</g>
<!-- Node3 -->
<g id="node3" class="node">
<title>Node3</title>
<g id="a_node3"><a xlink:href="scaled_8hpp.html" target="_top" xlink:title=" ">
<polygon fill="white" stroke="red" points="77,-0.5 77,-19.5 146,-19.5 146,-0.5 77,-0.5"/>
<text text-anchor="middle" x="111.5" y="-7.5" font-family="Helvetica,sans-Serif" font-size="10.00">scaled.hpp</text>
</a>
</g>
</g>
<!-- Node2&#45;&gt;Node3 -->
<g id="edge2" class="edge">
<title>Node2&#45;&gt;Node3</title>
<path fill="none" stroke="midnightblue" d="M176.97,-56.32C164.91,-47.98 146.47,-35.21 132.23,-25.35"/>
<polygon fill="midnightblue" stroke="midnightblue" points="134.22,-22.47 124,-19.65 130.23,-28.22 134.22,-22.47"/>
</g>
<!-- Node5 -->
<g id="node4" class="node">
<title>Node5</title>
<g id="a_node4"><a xlink:title=" ">
<polygon fill="white" stroke="#bfbfbf" points="164.5,-0.5 164.5,-19.5 214.5,-19.5 214.5,-0.5 164.5,-0.5"/>
<text text-anchor="middle" x="189.5" y="-7.5" font-family="Helvetica,sans-Serif" font-size="10.00">chrono</text>
</a>
</g>
</g>
<!-- Node2&#45;&gt;Node5 -->
<g id="edge3" class="edge">
<title>Node2&#45;&gt;Node5</title>
<path fill="none" stroke="midnightblue" d="M189.5,-56.08C189.5,-49.01 189.5,-38.86 189.5,-29.99"/>
<polygon fill="midnightblue" stroke="midnightblue" points="193,-29.75 189.5,-19.75 186,-29.75 193,-29.75"/>
</g>
<!-- Node2&#45;&gt;Node6 -->
<g id="edge4" class="edge">
<title>Node2&#45;&gt;Node6</title>
<path fill="none" stroke="midnightblue" d="M220.04,-57.27C253.24,-48.86 308.11,-34.9 364.46,-20.25"/>
<polygon fill="midnightblue" stroke="midnightblue" points="365.46,-23.61 374.26,-17.71 363.7,-16.84 365.46,-23.61"/>
</g>
<!-- Node7 -->
<g id="node6" class="node">
<title>Node7</title>
<g id="a_node6"><a xlink:title=" ">
<polygon fill="white" stroke="#bfbfbf" points="232.5,-0.5 232.5,-19.5 356.5,-19.5 356.5,-0.5 232.5,-0.5"/>
<text text-anchor="middle" x="294.5" y="-7.5" font-family="Helvetica,sans-Serif" font-size="10.00">emlabcpp/algorithm.h</text>
</a>
</g>
</g>
<!-- Node2&#45;&gt;Node7 -->
<g id="edge5" class="edge">
<title>Node2&#45;&gt;Node7</title>
<path fill="none" stroke="midnightblue" d="M206.37,-56.32C223.21,-47.66 249.31,-34.24 268.74,-24.25"/>
<polygon fill="midnightblue" stroke="midnightblue" points="270.38,-27.34 277.67,-19.65 267.18,-21.12 270.38,-27.34"/>
</g>
<!-- Node8 -->
<g id="node7" class="node">
<title>Node8</title>
<g id="a_node7"><a xlink:title=" ">
<polygon fill="white" stroke="#bfbfbf" points="0,-0.5 0,-19.5 59,-19.5 59,-0.5 0,-0.5"/>
<text text-anchor="middle" x="29.5" y="-7.5" font-family="Helvetica,sans-Serif" font-size="10.00">numbers</text>
</a>
</g>
</g>
<!-- Node2&#45;&gt;Node8 -->
<g id="edge6" class="edge">
<title>Node2&#45;&gt;Node8</title>
<path fill="none" stroke="midnightblue" d="M164.15,-56.44C137.23,-47.36 94.5,-32.94 64.41,-22.78"/>
<polygon fill="midnightblue" stroke="midnightblue" points="65.33,-19.4 54.73,-19.52 63.09,-26.03 65.33,-19.4"/>
</g>
<!-- Node9&#45;&gt;Node2 -->
<g id="edge8" class="edge">
<title>Node9&#45;&gt;Node2</title>
<path fill="none" stroke="midnightblue" d="M310.3,-117.98C286.43,-107.9 246.5,-91.05 219.13,-79.5"/>
<polygon fill="midnightblue" stroke="midnightblue" points="220.24,-76.17 209.66,-75.51 217.52,-82.62 220.24,-76.17"/>
</g>
<!-- Node9&#45;&gt;Node6 -->
<g id="edge10" class="edge">
<title>Node9&#45;&gt;Node6</title>
<path fill="none" stroke="midnightblue" d="M359.69,-117.94C390.93,-108.12 437.38,-91.39 447.5,-76 459.29,-58.07 439.85,-38.36 422.3,-25.4"/>
<polygon fill="midnightblue" stroke="midnightblue" points="424.18,-22.45 413.97,-19.61 420.19,-28.2 424.18,-22.45"/>
</g>
<!-- Node10 -->
<g id="node9" class="node">
<title>Node10</title>
<g id="a_node9"><a xlink:href="status_8hpp.html" target="_top" xlink:title=" ">
<polygon fill="white" stroke="black" points="494.5,-56.5 494.5,-75.5 562.5,-75.5 562.5,-56.5 494.5,-56.5"/>
<text text-anchor="middle" x="528.5" y="-63.5" font-family="Helvetica,sans-Serif" font-size="10.00">status.hpp</text>
</a>
</g>
</g>
<!-- Node9&#45;&gt;Node10 -->
<g id="edge9" class="edge">
<title>Node9&#45;&gt;Node10</title>
<path fill="none" stroke="midnightblue" d="M358.87,-117.98C393.42,-107.59 451.92,-90.01 490.38,-78.45"/>
<polygon fill="midnightblue" stroke="midnightblue" points="491.61,-81.74 500.18,-75.51 489.6,-75.04 491.61,-81.74"/>
</g>
<!-- Node11 -->
<g id="node10" class="node">
<title>Node11</title>
<g id="a_node10"><a xlink:title=" ">
<polygon fill="white" stroke="#bfbfbf" points="276.5,-56.5 276.5,-75.5 380.5,-75.5 380.5,-56.5 276.5,-56.5"/>
<text text-anchor="middle" x="328.5" y="-63.5" font-family="Helvetica,sans-Serif" font-size="10.00">emlabcpp/result.h</text>
</a>
</g>
</g>
<!-- Node9&#45;&gt;Node11 -->
<g id="edge11" class="edge">
<title>Node9&#45;&gt;Node11</title>
<path fill="none" stroke="midnightblue" d="M330.21,-117.98C329.93,-109.58 329.49,-96.48 329.13,-85.66"/>
<polygon fill="midnightblue" stroke="midnightblue" points="332.62,-85.39 328.79,-75.51 325.62,-85.62 332.62,-85.39"/>
</g>
<!-- Node12 -->
<g id="node11" class="node">
<title>Node12</title>
<g id="a_node11"><a xlink:title=" ">
<polygon fill="white" stroke="#bfbfbf" points="398.5,-56.5 398.5,-75.5 438.5,-75.5 438.5,-56.5 398.5,-56.5"/>
<text text-anchor="middle" x="418.5" y="-63.5" font-family="Helvetica,sans-Serif" font-size="10.00">span</text>
</a>
</g>
</g>
<!-- Node9&#45;&gt;Node12 -->
<g id="edge12" class="edge">
<title>Node9&#45;&gt;Node12</title>
<path fill="none" stroke="midnightblue" d="M343.11,-117.98C357.22,-108.43 380.33,-92.81 397.25,-81.37"/>
<polygon fill="midnightblue" stroke="midnightblue" points="399.59,-84.01 405.92,-75.51 395.67,-78.21 399.59,-84.01"/>
</g>
</g>
</svg>
