<?xml version="1.0" encoding="UTF-8" standalone="no"?>
<!DOCTYPE svg PUBLIC "-//W3C//DTD SVG 1.1//EN"
 "http://www.w3.org/Graphics/SVG/1.1/DTD/svg11.dtd">
<!-- Generated by graphviz version 2.43.0 (0)
 -->
<!-- Title: src/fw/drv/leds.hpp Pages: 1 -->
<svg width="898pt" height="207pt"
 viewBox="0.00 0.00 898.00 207.00" xmlns="http://www.w3.org/2000/svg" xmlns:xlink="http://www.w3.org/1999/xlink">
<g id="graph0" class="graph" transform="scale(1 1) rotate(0) translate(4 203)">
<title>src/fw/drv/leds.hpp</title>
<polygon fill="white" stroke="transparent" points="-4,4 -4,-203 894,-203 894,4 -4,4"/>
<!-- Node1 -->
<g id="node1" class="node">
<title>Node1</title>
<g id="a_node1"><a xlink:title=" ">
<polygon fill="#bfbfbf" stroke="black" points="563.5,-179.5 563.5,-198.5 671.5,-198.5 671.5,-179.5 563.5,-179.5"/>
<text text-anchor="middle" x="617.5" y="-186.5" font-family="Helvetica,sans-Serif" font-size="10.00">src/fw/drv/leds.hpp</text>
</a>
</g>
</g>
<!-- Node2 -->
<g id="node2" class="node">
<title>Node2</title>
<g id="a_node2"><a xlink:href="base_8hpp.html" target="_top" xlink:title=" ">
<polygon fill="white" stroke="black" points="187,-56.5 187,-75.5 248,-75.5 248,-56.5 187,-56.5"/>
<text text-anchor="middle" x="217.5" y="-63.5" font-family="Helvetica,sans-Serif" font-size="10.00">base.hpp</text>
</a>
</g>
</g>
<!-- Node1&#45;&gt;Node2 -->
<g id="edge1" class="edge">
<title>Node1&#45;&gt;Node2</title>
<path fill="none" stroke="midnightblue" d="M563.32,-188.77C499.83,-187.75 392.73,-179.94 309.5,-143 277.97,-129.01 248.54,-101.07 231.81,-83.24"/>
<polygon fill="midnightblue" stroke="midnightblue" points="234.39,-80.87 225.06,-75.85 229.22,-85.59 234.39,-80.87"/>
</g>
<!-- Node6 -->
<g id="node5" class="node">
<title>Node6</title>
<g id="a_node5"><a xlink:title=" ">
<polygon fill="white" stroke="#bfbfbf" points="375.5,-0.5 375.5,-19.5 425.5,-19.5 425.5,-0.5 375.5,-0.5"/>
<text text-anchor="middle" x="400.5" y="-7.5" font-family="Helvetica,sans-Serif" font-size="10.00">cstdint</text>
</a>
</g>
</g>
<!-- Node1&#45;&gt;Node6 -->
<g id="edge16" class="edge">
<title>Node1&#45;&gt;Node6</title>
<path fill="none" stroke="midnightblue" d="M614.04,-179.27C602.61,-150.52 566.53,-60.42 561.5,-56 526.28,-25.05 471.4,-15.24 435.69,-12.22"/>
<polygon fill="midnightblue" stroke="midnightblue" points="435.94,-8.72 425.72,-11.51 435.44,-15.71 435.94,-8.72"/>
</g>
<!-- Node9 -->
<g id="node8" class="node">
<title>Node9</title>
<g id="a_node8"><a xlink:href="drv__interfaces_8hpp.html" target="_top" xlink:title=" ">
<polygon fill="white" stroke="black" points="319,-118 319,-137 426,-137 426,-118 319,-118"/>
<text text-anchor="middle" x="372.5" y="-125" font-family="Helvetica,sans-Serif" font-size="10.00">drv_interfaces.hpp</text>
</a>
</g>
</g>
<!-- Node1&#45;&gt;Node9 -->
<g id="edge7" class="edge">
<title>Node1&#45;&gt;Node9</title>
<path fill="none" stroke="midnightblue" d="M582.4,-179.48C539.01,-168.94 465.09,-150.99 417.55,-139.44"/>
<polygon fill="midnightblue" stroke="midnightblue" points="418.08,-135.97 407.54,-137.01 416.43,-142.77 418.08,-135.97"/>
</g>
<!-- Node13 -->
<g id="node12" class="node">
<title>Node13</title>
<g id="a_node12"><a xlink:href="defs_8hpp.html" target="_top" xlink:title=" ">
<polygon fill="white" stroke="black" points="608.5,-118 608.5,-137 700.5,-137 700.5,-118 608.5,-118"/>
<text text-anchor="middle" x="654.5" y="-125" font-family="Helvetica,sans-Serif" font-size="10.00">fw/drv/defs.hpp</text>
</a>
</g>
</g>
<!-- Node1&#45;&gt;Node13 -->
<g id="edge13" class="edge">
<title>Node1&#45;&gt;Node13</title>
<path fill="none" stroke="midnightblue" d="M622.8,-179.48C628.24,-170.73 636.86,-156.87 643.74,-145.81"/>
<polygon fill="midnightblue" stroke="midnightblue" points="646.9,-147.35 649.21,-137.01 640.96,-143.65 646.9,-147.35"/>
</g>
<!-- Node14 -->
<g id="node13" class="node">
<title>Node14</title>
<g id="a_node13"><a xlink:href="platform_8hpp.html" target="_top" xlink:title=" ">
<polygon fill="white" stroke="red" points="651.5,-56.5 651.5,-75.5 731.5,-75.5 731.5,-56.5 651.5,-56.5"/>
<text text-anchor="middle" x="691.5" y="-63.5" font-family="Helvetica,sans-Serif" font-size="10.00">platform.hpp</text>
</a>
</g>
</g>
<!-- Node1&#45;&gt;Node14 -->
<g id="edge15" class="edge">
<title>Node1&#45;&gt;Node14</title>
<path fill="none" stroke="midnightblue" d="M656.35,-179.36C675.88,-172.85 697.83,-161.7 709.5,-143 720.68,-125.09 711.6,-100.86 702.77,-84.61"/>
<polygon fill="midnightblue" stroke="midnightblue" points="705.59,-82.5 697.49,-75.66 699.56,-86.05 705.59,-82.5"/>
</g>
<!-- Node16 -->
<g id="node14" class="node">
<title>Node16</title>
<g id="a_node14"><a xlink:title=" ">
<polygon fill="white" stroke="#bfbfbf" points="757,-112.5 757,-142.5 890,-142.5 890,-112.5 757,-112.5"/>
<text text-anchor="start" x="765" y="-130.5" font-family="Helvetica,sans-Serif" font-size="10.00">emlabcpp/experimental</text>
<text text-anchor="middle" x="823.5" y="-119.5" font-family="Helvetica,sans-Serif" font-size="10.00">/function_view.h</text>
</a>
</g>
</g>
<!-- Node1&#45;&gt;Node16 -->
<g id="edge17" class="edge">
<title>Node1&#45;&gt;Node16</title>
<path fill="none" stroke="midnightblue" d="M647.01,-179.48C677.65,-170.63 726.39,-156.55 764.89,-145.43"/>
<polygon fill="midnightblue" stroke="midnightblue" points="766.31,-148.66 774.95,-142.52 764.37,-141.94 766.31,-148.66"/>
</g>
<!-- Node3 -->
<g id="node3" class="node">
<title>Node3</title>
<g id="a_node3"><a xlink:href="scaled_8hpp.html" target="_top" xlink:title=" ">
<polygon fill="white" stroke="red" points="0,-0.5 0,-19.5 69,-19.5 69,-0.5 0,-0.5"/>
<text text-anchor="middle" x="34.5" y="-7.5" font-family="Helvetica,sans-Serif" font-size="10.00">scaled.hpp</text>
</a>
</g>
</g>
<!-- Node2&#45;&gt;Node3 -->
<g id="edge2" class="edge">
<title>Node2&#45;&gt;Node3</title>
<path fill="none" stroke="midnightblue" d="M188.5,-56.44C157.32,-47.24 107.57,-32.56 73.09,-22.39"/>
<polygon fill="midnightblue" stroke="midnightblue" points="73.94,-18.99 63.36,-19.52 71.96,-25.7 73.94,-18.99"/>
</g>
<!-- Node5 -->
<g id="node4" class="node">
<title>Node5</title>
<g id="a_node4"><a xlink:title=" ">
<polygon fill="white" stroke="#bfbfbf" points="87.5,-0.5 87.5,-19.5 137.5,-19.5 137.5,-0.5 87.5,-0.5"/>
<text text-anchor="middle" x="112.5" y="-7.5" font-family="Helvetica,sans-Serif" font-size="10.00">chrono</text>
</a>
</g>
</g>
<!-- Node2&#45;&gt;Node5 -->
<g id="edge3" class="edge">
<title>Node2&#45;&gt;Node5</title>
<path fill="none" stroke="midnightblue" d="M200.63,-56.32C183.79,-47.66 157.69,-34.24 138.26,-24.25"/>
<polygon fill="midnightblue" stroke="midnightblue" points="139.82,-21.12 129.33,-19.65 136.62,-27.34 139.82,-21.12"/>
</g>
<!-- Node2&#45;&gt;Node6 -->
<g id="edge4" class="edge">
<title>Node2&#45;&gt;Node6</title>
<path fill="none" stroke="midnightblue" d="M246.5,-56.44C278.88,-46.89 331.26,-31.43 365.79,-21.24"/>
<polygon fill="midnightblue" stroke="midnightblue" points="366.86,-24.58 375.46,-18.39 364.88,-17.86 366.86,-24.58"/>
</g>
<!-- Node7 -->
<g id="node6" class="node">
<title>Node7</title>
<g id="a_node6"><a xlink:title=" ">
<polygon fill="white" stroke="#bfbfbf" points="155.5,-0.5 155.5,-19.5 279.5,-19.5 279.5,-0.5 155.5,-0.5"/>
<text text-anchor="middle" x="217.5" y="-7.5" font-family="Helvetica,sans-Serif" font-size="10.00">emlabcpp/algorithm.h</text>
</a>
</g>
</g>
<!-- Node2&#45;&gt;Node7 -->
<g id="edge5" class="edge">
<title>Node2&#45;&gt;Node7</title>
<path fill="none" stroke="midnightblue" d="M217.5,-56.08C217.5,-49.01 217.5,-38.86 217.5,-29.99"/>
<polygon fill="midnightblue" stroke="midnightblue" points="221,-29.75 217.5,-19.75 214,-29.75 221,-29.75"/>
</g>
<!-- Node8 -->
<g id="node7" class="node">
<title>Node8</title>
<g id="a_node7"><a xlink:title=" ">
<polygon fill="white" stroke="#bfbfbf" points="298,-0.5 298,-19.5 357,-19.5 357,-0.5 298,-0.5"/>
<text text-anchor="middle" x="327.5" y="-7.5" font-family="Helvetica,sans-Serif" font-size="10.00">numbers</text>
</a>
</g>
</g>
<!-- Node2&#45;&gt;Node8 -->
<g id="edge6" class="edge">
<title>Node2&#45;&gt;Node8</title>
<path fill="none" stroke="midnightblue" d="M235.17,-56.32C252.89,-47.62 280.4,-34.12 300.79,-24.11"/>
<polygon fill="midnightblue" stroke="midnightblue" points="302.44,-27.2 309.87,-19.65 299.35,-20.92 302.44,-27.2"/>
</g>
<!-- Node9&#45;&gt;Node2 -->
<g id="edge8" class="edge">
<title>Node9&#45;&gt;Node2</title>
<path fill="none" stroke="midnightblue" d="M350.29,-117.98C323.82,-107.81 279.39,-90.76 249.28,-79.2"/>
<polygon fill="midnightblue" stroke="midnightblue" points="250.26,-75.83 239.67,-75.51 247.75,-82.36 250.26,-75.83"/>
</g>
<!-- Node9&#45;&gt;Node6 -->
<g id="edge10" class="edge">
<title>Node9&#45;&gt;Node6</title>
<path fill="none" stroke="midnightblue" d="M349.5,-117.95C320.92,-105.97 277.94,-82.63 295.5,-56 303.67,-43.61 338.16,-30.33 365.41,-21.44"/>
<polygon fill="midnightblue" stroke="midnightblue" points="366.59,-24.73 375.06,-18.37 364.47,-18.06 366.59,-24.73"/>
</g>
<!-- Node10 -->
<g id="node9" class="node">
<title>Node10</title>
<g id="a_node9"><a xlink:href="status_8hpp.html" target="_top" xlink:title=" ">
<polygon fill="white" stroke="black" points="362.5,-56.5 362.5,-75.5 430.5,-75.5 430.5,-56.5 362.5,-56.5"/>
<text text-anchor="middle" x="396.5" y="-63.5" font-family="Helvetica,sans-Serif" font-size="10.00">status.hpp</text>
</a>
</g>
</g>
<!-- Node9&#45;&gt;Node10 -->
<g id="edge9" class="edge">
<title>Node9&#45;&gt;Node10</title>
<path fill="none" stroke="midnightblue" d="M375.94,-117.98C379.4,-109.4 384.83,-95.93 389.25,-84.98"/>
<polygon fill="midnightblue" stroke="midnightblue" points="392.57,-86.09 393.07,-75.51 386.08,-83.47 392.57,-86.09"/>
</g>
<!-- Node11 -->
<g id="node10" class="node">
<title>Node11</title>
<g id="a_node10"><a xlink:title=" ">
<polygon fill="white" stroke="#bfbfbf" points="448.5,-56.5 448.5,-75.5 552.5,-75.5 552.5,-56.5 448.5,-56.5"/>
<text text-anchor="middle" x="500.5" y="-63.5" font-family="Helvetica,sans-Serif" font-size="10.00">emlabcpp/result.h</text>
</a>
</g>
</g>
<!-- Node9&#45;&gt;Node11 -->
<g id="edge11" class="edge">
<title>Node9&#45;&gt;Node11</title>
<path fill="none" stroke="midnightblue" d="M390.84,-117.98C412.32,-107.99 448.12,-91.35 472.95,-79.81"/>
<polygon fill="midnightblue" stroke="midnightblue" points="474.6,-82.9 482.19,-75.51 471.65,-76.55 474.6,-82.9"/>
</g>
<!-- Node12 -->
<g id="node11" class="node">
<title>Node12</title>
<g id="a_node11"><a xlink:title=" ">
<polygon fill="white" stroke="#bfbfbf" points="304.5,-56.5 304.5,-75.5 344.5,-75.5 344.5,-56.5 304.5,-56.5"/>
<text text-anchor="middle" x="324.5" y="-63.5" font-family="Helvetica,sans-Serif" font-size="10.00">span</text>
</a>
</g>
</g>
<!-- Node9&#45;&gt;Node12 -->
<g id="edge12" class="edge">
<title>Node9&#45;&gt;Node12</title>
<path fill="none" stroke="midnightblue" d="M365.62,-117.98C358.35,-108.96 346.7,-94.52 337.66,-83.31"/>
<polygon fill="midnightblue" stroke="midnightblue" points="340.37,-81.09 331.36,-75.51 334.92,-85.49 340.37,-81.09"/>
</g>
<!-- Node13&#45;&gt;Node14 -->
<g id="edge14" class="edge">
<title>Node13&#45;&gt;Node14</title>
<path fill="none" stroke="midnightblue" d="M659.8,-117.98C665.24,-109.23 673.86,-95.37 680.74,-84.31"/>
<polygon fill="midnightblue" stroke="midnightblue" points="683.9,-85.85 686.21,-75.51 677.96,-82.15 683.9,-85.85"/>
</g>
</g>
</svg>
