<?xml version="1.0" encoding="UTF-8" standalone="no"?>
<!DOCTYPE svg PUBLIC "-//W3C//DTD SVG 1.1//EN"
 "http://www.w3.org/Graphics/SVG/1.1/DTD/svg11.dtd">
<!-- Generated by graphviz version 2.43.0 (0)
 -->
<!-- Title: src/drv/leds.hpp Pages: 1 -->
<svg width="780pt" height="207pt"
 viewBox="0.00 0.00 780.00 207.00" xmlns="http://www.w3.org/2000/svg" xmlns:xlink="http://www.w3.org/1999/xlink">
<g id="graph0" class="graph" transform="scale(1 1) rotate(0) translate(4 203)">
<title>src/drv/leds.hpp</title>
<polygon fill="white" stroke="transparent" points="-4,4 -4,-203 776,-203 776,4 -4,4"/>
<!-- Node1 -->
<g id="node1" class="node">
<title>Node1</title>
<g id="a_node1"><a xlink:title=" ">
<polygon fill="#bfbfbf" stroke="black" points="449.5,-179.5 449.5,-198.5 543.5,-198.5 543.5,-179.5 449.5,-179.5"/>
<text text-anchor="middle" x="496.5" y="-186.5" font-family="Helvetica,sans-Serif" font-size="10.00">src/drv/leds.hpp</text>
</a>
</g>
</g>
<!-- Node2 -->
<g id="node2" class="node">
<title>Node2</title>
<g id="a_node2"><a xlink:href="base_2base_8hpp.html" target="_top" xlink:title=" ">
<polygon fill="white" stroke="black" points="164,-56.5 164,-75.5 251,-75.5 251,-56.5 164,-56.5"/>
<text text-anchor="middle" x="207.5" y="-63.5" font-family="Helvetica,sans-Serif" font-size="10.00">base/base.hpp</text>
</a>
</g>
</g>
<!-- Node1&#45;&gt;Node2 -->
<g id="edge1" class="edge">
<title>Node1&#45;&gt;Node2</title>
<path fill="none" stroke="midnightblue" d="M453.83,-179.44C420.53,-171.99 373.53,-159.74 334.5,-143 294.71,-125.94 252.29,-98.42 227.93,-81.59"/>
<polygon fill="midnightblue" stroke="midnightblue" points="229.73,-78.58 219.52,-75.71 225.71,-84.31 229.73,-78.58"/>
</g>
<!-- Node4 -->
<g id="node4" class="node">
<title>Node4</title>
<g id="a_node4"><a xlink:title=" ">
<polygon fill="white" stroke="#bfbfbf" points="421.5,-0.5 421.5,-19.5 471.5,-19.5 471.5,-0.5 421.5,-0.5"/>
<text text-anchor="middle" x="446.5" y="-7.5" font-family="Helvetica,sans-Serif" font-size="10.00">cstdint</text>
</a>
</g>
</g>
<!-- Node1&#45;&gt;Node4 -->
<g id="edge17" class="edge">
<title>Node1&#45;&gt;Node4</title>
<path fill="none" stroke="midnightblue" d="M494.09,-179.46C486.42,-152.31 462.46,-67.51 451.76,-29.62"/>
<polygon fill="midnightblue" stroke="midnightblue" points="455.09,-28.54 449.01,-19.87 448.36,-30.44 455.09,-28.54"/>
</g>
<!-- Node8 -->
<g id="node8" class="node">
<title>Node8</title>
<g id="a_node8"><a xlink:href="defs_8hpp.html" target="_top" xlink:title=" ">
<polygon fill="white" stroke="black" points="544,-118 544,-137 621,-137 621,-118 544,-118"/>
<text text-anchor="middle" x="582.5" y="-125" font-family="Helvetica,sans-Serif" font-size="10.00">drv/defs.hpp</text>
</a>
</g>
</g>
<!-- Node1&#45;&gt;Node8 -->
<g id="edge7" class="edge">
<title>Node1&#45;&gt;Node8</title>
<path fill="none" stroke="midnightblue" d="M508.82,-179.48C522.62,-169.93 545.2,-154.31 561.73,-142.87"/>
<polygon fill="midnightblue" stroke="midnightblue" points="563.97,-145.58 570.2,-137.01 559.99,-139.82 563.97,-145.58"/>
</g>
<!-- Node9 -->
<g id="node9" class="node">
<title>Node9</title>
<g id="a_node9"><a xlink:href="platform_8hpp.html" target="_top" xlink:title=" ">
<polygon fill="white" stroke="red" points="505.5,-56.5 505.5,-75.5 585.5,-75.5 585.5,-56.5 505.5,-56.5"/>
<text text-anchor="middle" x="545.5" y="-63.5" font-family="Helvetica,sans-Serif" font-size="10.00">platform.hpp</text>
</a>
</g>
</g>
<!-- Node1&#45;&gt;Node9 -->
<g id="edge16" class="edge">
<title>Node1&#45;&gt;Node9</title>
<path fill="none" stroke="midnightblue" d="M500.02,-179.3C507.97,-159.68 527.42,-111.64 538.13,-85.19"/>
<polygon fill="midnightblue" stroke="midnightblue" points="541.5,-86.21 542.01,-75.62 535.01,-83.58 541.5,-86.21"/>
</g>
<!-- Node13 -->
<g id="node12" class="node">
<title>Node13</title>
<g id="a_node12"><a xlink:href="interfaces_8hpp.html" target="_top" xlink:title=" ">
<polygon fill="white" stroke="black" points="344,-118 344,-137 449,-137 449,-118 344,-118"/>
<text text-anchor="middle" x="396.5" y="-125" font-family="Helvetica,sans-Serif" font-size="10.00">drv/interfaces.hpp</text>
</a>
</g>
</g>
<!-- Node1&#45;&gt;Node13 -->
<g id="edge11" class="edge">
<title>Node1&#45;&gt;Node13</title>
<path fill="none" stroke="midnightblue" d="M482.17,-179.48C465.84,-169.75 438.9,-153.73 419.59,-142.24"/>
<polygon fill="midnightblue" stroke="midnightblue" points="421.18,-139.11 410.8,-137.01 417.61,-145.13 421.18,-139.11"/>
</g>
<!-- Node15 -->
<g id="node14" class="node">
<title>Node15</title>
<g id="a_node14"><a xlink:title=" ">
<polygon fill="white" stroke="#bfbfbf" points="639,-112.5 639,-142.5 772,-142.5 772,-112.5 639,-112.5"/>
<text text-anchor="start" x="647" y="-130.5" font-family="Helvetica,sans-Serif" font-size="10.00">emlabcpp/experimental</text>
<text text-anchor="middle" x="705.5" y="-119.5" font-family="Helvetica,sans-Serif" font-size="10.00">/function_view.h</text>
</a>
</g>
</g>
<!-- Node1&#45;&gt;Node15 -->
<g id="edge18" class="edge">
<title>Node1&#45;&gt;Node15</title>
<path fill="none" stroke="midnightblue" d="M526.44,-179.48C557.66,-170.59 607.4,-156.43 646.54,-145.29"/>
<polygon fill="midnightblue" stroke="midnightblue" points="647.58,-148.63 656.24,-142.52 645.67,-141.89 647.58,-148.63"/>
</g>
<!-- Node3 -->
<g id="node3" class="node">
<title>Node3</title>
<g id="a_node3"><a xlink:title=" ">
<polygon fill="white" stroke="#bfbfbf" points="77.5,-0.5 77.5,-19.5 127.5,-19.5 127.5,-0.5 77.5,-0.5"/>
<text text-anchor="middle" x="102.5" y="-7.5" font-family="Helvetica,sans-Serif" font-size="10.00">chrono</text>
</a>
</g>
</g>
<!-- Node2&#45;&gt;Node3 -->
<g id="edge2" class="edge">
<title>Node2&#45;&gt;Node3</title>
<path fill="none" stroke="midnightblue" d="M190.63,-56.32C173.79,-47.66 147.69,-34.24 128.26,-24.25"/>
<polygon fill="midnightblue" stroke="midnightblue" points="129.82,-21.12 119.33,-19.65 126.62,-27.34 129.82,-21.12"/>
</g>
<!-- Node2&#45;&gt;Node4 -->
<g id="edge3" class="edge">
<title>Node2&#45;&gt;Node4</title>
<path fill="none" stroke="midnightblue" d="M248.85,-56.47C288.23,-48.22 349.4,-35.09 411.34,-20.21"/>
<polygon fill="midnightblue" stroke="midnightblue" points="412.38,-23.56 421.28,-17.8 410.74,-16.75 412.38,-23.56"/>
</g>
<!-- Node5 -->
<g id="node5" class="node">
<title>Node5</title>
<g id="a_node5"><a xlink:title=" ">
<polygon fill="white" stroke="#bfbfbf" points="145.5,-0.5 145.5,-19.5 269.5,-19.5 269.5,-0.5 145.5,-0.5"/>
<text text-anchor="middle" x="207.5" y="-7.5" font-family="Helvetica,sans-Serif" font-size="10.00">emlabcpp/algorithm.h</text>
</a>
</g>
</g>
<!-- Node2&#45;&gt;Node5 -->
<g id="edge4" class="edge">
<title>Node2&#45;&gt;Node5</title>
<path fill="none" stroke="midnightblue" d="M207.5,-56.08C207.5,-49.01 207.5,-38.86 207.5,-29.99"/>
<polygon fill="midnightblue" stroke="midnightblue" points="211,-29.75 207.5,-19.75 204,-29.75 211,-29.75"/>
</g>
<!-- Node6 -->
<g id="node6" class="node">
<title>Node6</title>
<g id="a_node6"><a xlink:title=" ">
<polygon fill="white" stroke="#bfbfbf" points="287.5,-0.5 287.5,-19.5 403.5,-19.5 403.5,-0.5 287.5,-0.5"/>
<text text-anchor="middle" x="345.5" y="-7.5" font-family="Helvetica,sans-Serif" font-size="10.00">emlabcpp/quantity.h</text>
</a>
</g>
</g>
<!-- Node2&#45;&gt;Node6 -->
<g id="edge5" class="edge">
<title>Node2&#45;&gt;Node6</title>
<path fill="none" stroke="midnightblue" d="M229.37,-56.44C252.28,-47.48 288.48,-33.31 314.37,-23.18"/>
<polygon fill="midnightblue" stroke="midnightblue" points="315.7,-26.42 323.74,-19.52 313.15,-19.9 315.7,-26.42"/>
</g>
<!-- Node7 -->
<g id="node7" class="node">
<title>Node7</title>
<g id="a_node7"><a xlink:title=" ">
<polygon fill="white" stroke="#bfbfbf" points="0,-0.5 0,-19.5 59,-19.5 59,-0.5 0,-0.5"/>
<text text-anchor="middle" x="29.5" y="-7.5" font-family="Helvetica,sans-Serif" font-size="10.00">numbers</text>
</a>
</g>
</g>
<!-- Node2&#45;&gt;Node7 -->
<g id="edge6" class="edge">
<title>Node2&#45;&gt;Node7</title>
<path fill="none" stroke="midnightblue" d="M179.3,-56.44C149.09,-47.28 100.99,-32.69 67.47,-22.52"/>
<polygon fill="midnightblue" stroke="midnightblue" points="68.16,-19.07 57.57,-19.52 66.13,-25.77 68.16,-19.07"/>
</g>
<!-- Node8&#45;&gt;Node9 -->
<g id="edge8" class="edge">
<title>Node8&#45;&gt;Node9</title>
<path fill="none" stroke="midnightblue" d="M577.2,-117.98C571.76,-109.23 563.14,-95.37 556.26,-84.31"/>
<polygon fill="midnightblue" stroke="midnightblue" points="559.04,-82.15 550.79,-75.51 553.1,-85.85 559.04,-82.15"/>
</g>
<!-- Node12 -->
<g id="node11" class="node">
<title>Node12</title>
<g id="a_node11"><a xlink:title=" ">
<polygon fill="white" stroke="#bfbfbf" points="603.5,-56.5 603.5,-75.5 659.5,-75.5 659.5,-56.5 603.5,-56.5"/>
<text text-anchor="middle" x="631.5" y="-63.5" font-family="Helvetica,sans-Serif" font-size="10.00">optional</text>
</a>
</g>
</g>
<!-- Node8&#45;&gt;Node12 -->
<g id="edge10" class="edge">
<title>Node8&#45;&gt;Node12</title>
<path fill="none" stroke="midnightblue" d="M589.52,-117.98C596.94,-108.96 608.83,-94.52 618.07,-83.31"/>
<polygon fill="midnightblue" stroke="midnightblue" points="620.84,-85.45 624.49,-75.51 615.43,-81 620.84,-85.45"/>
</g>
<!-- Node11 -->
<g id="node10" class="node">
<title>Node11</title>
<g id="a_node10"><a xlink:title=" ">
<polygon fill="white" stroke="#bfbfbf" points="507.5,-0.5 507.5,-19.5 547.5,-19.5 547.5,-0.5 507.5,-0.5"/>
<text text-anchor="middle" x="527.5" y="-7.5" font-family="Helvetica,sans-Serif" font-size="10.00">span</text>
</a>
</g>
</g>
<!-- Node9&#45;&gt;Node11 -->
<g id="edge9" class="edge">
<title>Node9&#45;&gt;Node11</title>
<path fill="none" stroke="midnightblue" d="M542.53,-56.08C540.12,-48.85 536.64,-38.41 533.63,-29.4"/>
<polygon fill="midnightblue" stroke="midnightblue" points="536.9,-28.13 530.42,-19.75 530.26,-30.34 536.9,-28.13"/>
</g>
<!-- Node13&#45;&gt;Node2 -->
<g id="edge12" class="edge">
<title>Node13&#45;&gt;Node2</title>
<path fill="none" stroke="midnightblue" d="M369.42,-117.98C336.58,-107.64 281.07,-90.16 244.35,-78.6"/>
<polygon fill="midnightblue" stroke="midnightblue" points="245.12,-75.17 234.53,-75.51 243.02,-81.85 245.12,-75.17"/>
</g>
<!-- Node13&#45;&gt;Node4 -->
<g id="edge13" class="edge">
<title>Node13&#45;&gt;Node4</title>
<path fill="none" stroke="midnightblue" d="M399.94,-117.76C405.25,-104.39 415.82,-78.06 425.5,-56 429.49,-46.91 434.14,-36.89 438.05,-28.62"/>
<polygon fill="midnightblue" stroke="midnightblue" points="441.22,-30.11 442.35,-19.57 434.9,-27.1 441.22,-30.11"/>
</g>
<!-- Node13&#45;&gt;Node11 -->
<g id="edge15" class="edge">
<title>Node13&#45;&gt;Node11</title>
<path fill="none" stroke="midnightblue" d="M406.35,-117.82C428.35,-98.42 481.76,-51.33 509.74,-26.66"/>
<polygon fill="midnightblue" stroke="midnightblue" points="512.35,-29.02 517.54,-19.78 507.72,-23.77 512.35,-29.02"/>
</g>
<!-- Node14 -->
<g id="node13" class="node">
<title>Node14</title>
<g id="a_node13"><a xlink:title=" ">
<polygon fill="white" stroke="#bfbfbf" points="269.5,-56.5 269.5,-75.5 373.5,-75.5 373.5,-56.5 269.5,-56.5"/>
<text text-anchor="middle" x="321.5" y="-63.5" font-family="Helvetica,sans-Serif" font-size="10.00">emlabcpp/result.h</text>
</a>
</g>
</g>
<!-- Node13&#45;&gt;Node14 -->
<g id="edge14" class="edge">
<title>Node13&#45;&gt;Node14</title>
<path fill="none" stroke="midnightblue" d="M385.75,-117.98C373.95,-108.61 354.76,-93.38 340.42,-82.01"/>
<polygon fill="midnightblue" stroke="midnightblue" points="342.24,-78.98 332.23,-75.51 337.88,-84.47 342.24,-78.98"/>
</g>
</g>
</svg>
