<?xml version="1.0" encoding="UTF-8" standalone="no"?>
<!DOCTYPE svg PUBLIC "-//W3C//DTD SVG 1.1//EN"
 "http://www.w3.org/Graphics/SVG/1.1/DTD/svg11.dtd">
<!-- Generated by graphviz version 2.43.0 (0)
 -->
<!-- Title: src/drv/leds.hpp Pages: 1 -->
<svg width="712pt" height="203pt"
 viewBox="0.00 0.00 711.50 203.00" xmlns="http://www.w3.org/2000/svg" xmlns:xlink="http://www.w3.org/1999/xlink">
<g id="graph0" class="graph" transform="scale(1 1) rotate(0) translate(4 199)">
<title>src/drv/leds.hpp</title>
<!-- Node1 -->
<g id="Node000001" class="node">
<title>Node1</title>
<g id="a_Node000001"><a xlink:title=" ">
<polygon fill="#999999" stroke="#666666" points="417,-195 323,-195 323,-176 417,-176 417,-195"/>
<text text-anchor="middle" x="370" y="-183" font-family="Helvetica,sans-Serif" font-size="10.00">src/drv/leds.hpp</text>
</a>
</g>
</g>
<!-- Node2 -->
<g id="Node000002" class="node">
<title>Node2</title>
<g id="a_Node000002"><a xlink:href="base_8hpp.html" target="_top" xlink:title=" ">
<polygon fill="white" stroke="#666666" points="233,-74 163,-74 163,-55 233,-55 233,-74"/>
<text text-anchor="middle" x="198" y="-62" font-family="Helvetica,sans-Serif" font-size="10.00">../base.hpp</text>
</a>
</g>
</g>
<!-- Node1&#45;&gt;Node2 -->
<g id="edge1_Node000001_Node000002" class="edge">
<title>Node1&#45;&gt;Node2</title>
<g id="a_edge1_Node000001_Node000002"><a xlink:title=" ">
<path fill="none" stroke="#63b8ff" d="M341.7,-175.86C320.04,-168.42 290.06,-156.31 267,-140 244.17,-123.85 223.14,-99.11 210.45,-82.63"/>
<polygon fill="#63b8ff" stroke="#63b8ff" points="213.09,-80.32 204.29,-74.42 207.49,-84.52 213.09,-80.32"/>
</a>
</g>
</g>
<!-- Node4 -->
<g id="Node000004" class="node">
<title>Node4</title>
<g id="a_Node000004"><a xlink:title=" ">
<polygon fill="#e0e0e0" stroke="#999999" points="50,-19 0,-19 0,0 50,0 50,-19"/>
<text text-anchor="middle" x="25" y="-7" font-family="Helvetica,sans-Serif" font-size="10.00">cstdint</text>
</a>
</g>
</g>
<!-- Node1&#45;&gt;Node4 -->
<g id="edge19_Node000001_Node000004" class="edge">
<title>Node1&#45;&gt;Node4</title>
<g id="a_edge19_Node000001_Node000004"><a xlink:title=" ">
<path fill="none" stroke="#63b8ff" d="M337.42,-175.99C308.65,-168.04 265.82,-155.15 230,-140 172.86,-115.83 159.04,-107.78 107,-74 84.06,-59.11 59.48,-39.54 43.28,-26.08"/>
<polygon fill="#63b8ff" stroke="#63b8ff" points="45.11,-23.05 35.2,-19.3 40.61,-28.41 45.11,-23.05"/>
</a>
</g>
</g>
<!-- Node9 -->
<g id="Node000009" class="node">
<title>Node9</title>
<g id="a_Node000009"><a xlink:href="platform_8hpp.html" target="_top" xlink:title=" ">
<polygon fill="white" stroke="#666666" points="645,-74 541,-74 541,-55 645,-55 645,-74"/>
<text text-anchor="middle" x="593" y="-62" font-family="Helvetica,sans-Serif" font-size="10.00">../plt/platform.hpp</text>
</a>
</g>
</g>
<!-- Node1&#45;&gt;Node9 -->
<g id="edge8_Node000001_Node000009" class="edge">
<title>Node1&#45;&gt;Node9</title>
<g id="a_edge8_Node000001_Node000009"><a xlink:title=" ">
<path fill="none" stroke="#63b8ff" d="M417.14,-177.3C448.56,-170.96 489.83,-159.6 522,-140 546.46,-125.1 568.13,-99.65 580.91,-82.7"/>
<polygon fill="#63b8ff" stroke="#63b8ff" points="583.99,-84.42 587.06,-74.28 578.33,-80.29 583.99,-84.42"/>
</a>
</g>
</g>
<!-- Node12 -->
<g id="Node000012" class="node">
<title>Node12</title>
<g id="a_Node000012"><a xlink:href="defs_8hpp.html" target="_top" xlink:title=" ">
<polygon fill="white" stroke="#666666" points="513.5,-134.5 448.5,-134.5 448.5,-115.5 513.5,-115.5 513.5,-134.5"/>
<text text-anchor="middle" x="481" y="-122.5" font-family="Helvetica,sans-Serif" font-size="10.00">./defs.hpp</text>
</a>
</g>
</g>
<!-- Node1&#45;&gt;Node12 -->
<g id="edge10_Node000001_Node000012" class="edge">
<title>Node1&#45;&gt;Node12</title>
<g id="a_edge10_Node000001_Node000012"><a xlink:title=" ">
<path fill="none" stroke="#63b8ff" d="M386.38,-175.87C404.58,-166.28 434.2,-150.67 455.45,-139.47"/>
<polygon fill="#63b8ff" stroke="#63b8ff" points="457.34,-142.43 464.55,-134.67 454.08,-136.23 457.34,-142.43"/>
</a>
</g>
</g>
<!-- Node13 -->
<g id="Node000013" class="node">
<title>Node13</title>
<g id="a_Node000013"><a xlink:href="interfaces_8hpp.html" target="_top" xlink:title=" ">
<polygon fill="white" stroke="#666666" points="368,-134.5 276,-134.5 276,-115.5 368,-115.5 368,-134.5"/>
<text text-anchor="middle" x="322" y="-122.5" font-family="Helvetica,sans-Serif" font-size="10.00">./interfaces.hpp</text>
</a>
</g>
</g>
<!-- Node1&#45;&gt;Node13 -->
<g id="edge13_Node000001_Node000013" class="edge">
<title>Node1&#45;&gt;Node13</title>
<g id="a_edge13_Node000001_Node000013"><a xlink:title=" ">
<path fill="none" stroke="#63b8ff" d="M362.92,-175.87C355.76,-167.14 344.51,-153.43 335.61,-142.59"/>
<polygon fill="#63b8ff" stroke="#63b8ff" points="338.16,-140.18 329.11,-134.67 332.75,-144.62 338.16,-140.18"/>
</a>
</g>
</g>
<!-- Node29 -->
<g id="Node000029" class="node">
<title>Node29</title>
<g id="a_Node000029"><a xlink:title=" ">
<polygon fill="#e0e0e0" stroke="#999999" points="703.5,-140 570.5,-140 570.5,-110 703.5,-110 703.5,-140"/>
<text text-anchor="start" x="578.5" y="-128" font-family="Helvetica,sans-Serif" font-size="10.00">emlabcpp/experimental</text>
<text text-anchor="middle" x="637" y="-117" font-family="Helvetica,sans-Serif" font-size="10.00">/function_view.h</text>
</a>
</g>
</g>
<!-- Node1&#45;&gt;Node29 -->
<g id="edge20_Node000001_Node000029" class="edge">
<title>Node1&#45;&gt;Node29</title>
<g id="a_edge20_Node000001_Node000029"><a xlink:title=" ">
<path fill="none" stroke="#63b8ff" d="M408.82,-175.99C449.16,-167.16 513.26,-153.11 563.27,-142.16"/>
<polygon fill="#63b8ff" stroke="#63b8ff" points="564.05,-145.57 573.07,-140.01 562.55,-138.73 564.05,-145.57"/>
</a>
</g>
</g>
<!-- Node3 -->
<g id="Node000003" class="node">
<title>Node3</title>
<g id="a_Node000003"><a xlink:title=" ">
<polygon fill="#e0e0e0" stroke="#999999" points="118,-19 68,-19 68,0 118,0 118,-19"/>
<text text-anchor="middle" x="93" y="-7" font-family="Helvetica,sans-Serif" font-size="10.00">chrono</text>
</a>
</g>
</g>
<!-- Node2&#45;&gt;Node3 -->
<g id="edge2_Node000002_Node000003" class="edge">
<title>Node2&#45;&gt;Node3</title>
<g id="a_edge2_Node000002_Node000003"><a xlink:title=" ">
<path fill="none" stroke="#63b8ff" d="M181.13,-54.98C164.39,-46.54 138.5,-33.47 119.11,-23.68"/>
<polygon fill="#63b8ff" stroke="#63b8ff" points="120.68,-20.55 110.18,-19.17 117.53,-26.8 120.68,-20.55"/>
</a>
</g>
</g>
<!-- Node2&#45;&gt;Node4 -->
<g id="edge3_Node000002_Node000004" class="edge">
<title>Node2&#45;&gt;Node4</title>
<g id="a_edge3_Node000002_Node000004"><a xlink:title=" ">
<path fill="none" stroke="#63b8ff" d="M170.2,-54.98C140.3,-45.82 92.66,-31.23 60.17,-21.27"/>
<polygon fill="#63b8ff" stroke="#63b8ff" points="60.78,-17.8 50.19,-18.22 58.73,-24.49 60.78,-17.8"/>
</a>
</g>
</g>
<!-- Node5 -->
<g id="Node000005" class="node">
<title>Node5</title>
<g id="a_Node000005"><a xlink:title=" ">
<polygon fill="#e0e0e0" stroke="#999999" points="260,-19 136,-19 136,0 260,0 260,-19"/>
<text text-anchor="middle" x="198" y="-7" font-family="Helvetica,sans-Serif" font-size="10.00">emlabcpp/algorithm.h</text>
</a>
</g>
</g>
<!-- Node2&#45;&gt;Node5 -->
<g id="edge4_Node000002_Node000005" class="edge">
<title>Node2&#45;&gt;Node5</title>
<g id="a_edge4_Node000002_Node000005"><a xlink:title=" ">
<path fill="none" stroke="#63b8ff" d="M198,-54.75C198,-47.8 198,-37.85 198,-29.13"/>
<polygon fill="#63b8ff" stroke="#63b8ff" points="201.5,-29.09 198,-19.09 194.5,-29.09 201.5,-29.09"/>
</a>
</g>
</g>
<!-- Node6 -->
<g id="Node000006" class="node">
<title>Node6</title>
<g id="a_Node000006"><a xlink:title=" ">
<polygon fill="#e0e0e0" stroke="#999999" points="394,-19 278,-19 278,0 394,0 394,-19"/>
<text text-anchor="middle" x="336" y="-7" font-family="Helvetica,sans-Serif" font-size="10.00">emlabcpp/quantity.h</text>
</a>
</g>
</g>
<!-- Node2&#45;&gt;Node6 -->
<g id="edge5_Node000002_Node000006" class="edge">
<title>Node2&#45;&gt;Node6</title>
<g id="a_edge5_Node000002_Node000006"><a xlink:title=" ">
<path fill="none" stroke="#63b8ff" d="M220.17,-54.98C242.77,-46.3 278.06,-32.75 303.75,-22.88"/>
<polygon fill="#63b8ff" stroke="#63b8ff" points="305.34,-26.02 313.42,-19.17 302.83,-19.49 305.34,-26.02"/>
</a>
</g>
</g>
<!-- Node7 -->
<g id="Node000007" class="node">
<title>Node7</title>
<g id="a_Node000007"><a xlink:title=" ">
<polygon fill="#e0e0e0" stroke="#999999" points="471.5,-19 412.5,-19 412.5,0 471.5,0 471.5,-19"/>
<text text-anchor="middle" x="442" y="-7" font-family="Helvetica,sans-Serif" font-size="10.00">numbers</text>
</a>
</g>
</g>
<!-- Node2&#45;&gt;Node7 -->
<g id="edge6_Node000002_Node000007" class="edge">
<title>Node2&#45;&gt;Node7</title>
<g id="a_edge6_Node000002_Node000007"><a xlink:title=" ">
<path fill="none" stroke="#63b8ff" d="M233.19,-55.87C272.03,-47.45 336.69,-33.42 402.11,-19.19"/>
<polygon fill="#63b8ff" stroke="#63b8ff" points="403.16,-22.55 412.19,-17 401.67,-15.71 403.16,-22.55"/>
</a>
</g>
</g>
<!-- Node8 -->
<g id="Node000008" class="node">
<title>Node8</title>
<g id="a_Node000008"><a xlink:title=" ">
<polygon fill="#e0e0e0" stroke="#999999" points="546,-19 490,-19 490,0 546,0 546,-19"/>
<text text-anchor="middle" x="518" y="-7" font-family="Helvetica,sans-Serif" font-size="10.00">optional</text>
</a>
</g>
</g>
<!-- Node2&#45;&gt;Node8 -->
<g id="edge7_Node000002_Node000008" class="edge">
<title>Node2&#45;&gt;Node8</title>
<g id="a_edge7_Node000002_Node000008"><a xlink:title=" ">
<path fill="none" stroke="#63b8ff" d="M233.04,-56.6C236.07,-56.04 239.09,-55.5 242,-55 347.43,-36.85 374.85,-38.69 480,-19 480.1,-18.98 480.2,-18.96 480.3,-18.94"/>
<polygon fill="#63b8ff" stroke="#63b8ff" points="480.71,-22.43 489.82,-17.03 479.33,-15.57 480.71,-22.43"/>
</a>
</g>
</g>
<!-- Node10 -->
<g id="Node000010" class="node">
<title>Node10</title>
<g id="a_Node000010"><a xlink:href="hal_8hpp.html" target="_top" xlink:title=" ">
<polygon fill="#fff0f0" stroke="red" points="619.5,-19 566.5,-19 566.5,0 619.5,0 619.5,-19"/>
<text text-anchor="middle" x="593" y="-7" font-family="Helvetica,sans-Serif" font-size="10.00">hal.hpp</text>
</a>
</g>
</g>
<!-- Node9&#45;&gt;Node10 -->
<g id="edge9_Node000009_Node000010" class="edge">
<title>Node9&#45;&gt;Node10</title>
<g id="a_edge9_Node000009_Node000010"><a xlink:title=" ">
<path fill="none" stroke="#63b8ff" d="M593,-54.75C593,-47.8 593,-37.85 593,-29.13"/>
<polygon fill="#63b8ff" stroke="#63b8ff" points="596.5,-29.09 593,-19.09 589.5,-29.09 596.5,-29.09"/>
</a>
</g>
</g>
<!-- Node12&#45;&gt;Node8 -->
<g id="edge12_Node000012_Node000008" class="edge">
<title>Node12&#45;&gt;Node8</title>
<g id="a_edge12_Node000012_Node000008"><a xlink:title=" ">
<path fill="none" stroke="#63b8ff" d="M483.78,-115.47C489.75,-97.15 503.92,-53.68 512.03,-28.81"/>
<polygon fill="#63b8ff" stroke="#63b8ff" points="515.41,-29.72 515.19,-19.13 508.76,-27.55 515.41,-29.72"/>
</a>
</g>
</g>
<!-- Node12&#45;&gt;Node9 -->
<g id="edge11_Node000012_Node000009" class="edge">
<title>Node12&#45;&gt;Node9</title>
<g id="a_edge11_Node000012_Node000009"><a xlink:title=" ">
<path fill="none" stroke="#63b8ff" d="M497.53,-115.37C515.97,-105.73 546.04,-90.03 567.51,-78.81"/>
<polygon fill="#63b8ff" stroke="#63b8ff" points="569.16,-81.9 576.41,-74.17 565.92,-75.69 569.16,-81.9"/>
</a>
</g>
</g>
<!-- Node13&#45;&gt;Node2 -->
<g id="edge14_Node000013_Node000002" class="edge">
<title>Node13&#45;&gt;Node2</title>
<g id="a_edge14_Node000013_Node000002"><a xlink:title=" ">
<path fill="none" stroke="#63b8ff" d="M303.97,-115.49C283.31,-105.75 249.22,-89.66 225.3,-78.38"/>
<polygon fill="#63b8ff" stroke="#63b8ff" points="226.59,-75.12 216.05,-74.02 223.6,-81.45 226.59,-75.12"/>
</a>
</g>
</g>
<!-- Node13&#45;&gt;Node4 -->
<g id="edge17_Node000013_Node000004" class="edge">
<title>Node13&#45;&gt;Node4</title>
<g id="a_edge17_Node000013_Node000004"><a xlink:title=" ">
<path fill="none" stroke="#63b8ff" d="M287,-115.42C252.61,-106.57 198.91,-91.59 154,-74 116.49,-59.31 75.01,-37.9 49.47,-24.09"/>
<polygon fill="#63b8ff" stroke="#63b8ff" points="50.96,-20.91 40.5,-19.2 47.6,-27.06 50.96,-20.91"/>
</a>
</g>
</g>
<!-- Node14 -->
<g id="Node000014" class="node">
<title>Node14</title>
<g id="a_Node000014"><a xlink:href="cfg_2def_8hpp.html" target="_top" xlink:title=" ">
<polygon fill="#fff0f0" stroke="red" points="331,-74 251,-74 251,-55 331,-55 331,-74"/>
<text text-anchor="middle" x="291" y="-62" font-family="Helvetica,sans-Serif" font-size="10.00">../cfg/def.hpp</text>
</a>
</g>
</g>
<!-- Node13&#45;&gt;Node14 -->
<g id="edge15_Node000013_Node000014" class="edge">
<title>Node13&#45;&gt;Node14</title>
<g id="a_edge15_Node000013_Node000014"><a xlink:title=" ">
<path fill="none" stroke="#63b8ff" d="M317.43,-115.37C312.94,-106.9 305.97,-93.74 300.31,-83.07"/>
<polygon fill="#63b8ff" stroke="#63b8ff" points="303.37,-81.36 295.59,-74.17 297.18,-84.64 303.37,-81.36"/>
</a>
</g>
</g>
<!-- Node24 -->
<g id="Node000024" class="node">
<title>Node24</title>
<g id="a_Node000024"><a xlink:href="status_8hpp.html" target="_top" xlink:title=" ">
<polygon fill="#fff0f0" stroke="red" points="426.5,-74 349.5,-74 349.5,-55 426.5,-55 426.5,-74"/>
<text text-anchor="middle" x="388" y="-62" font-family="Helvetica,sans-Serif" font-size="10.00">../status.hpp</text>
</a>
</g>
</g>
<!-- Node13&#45;&gt;Node24 -->
<g id="edge16_Node000013_Node000024" class="edge">
<title>Node13&#45;&gt;Node24</title>
<g id="a_edge16_Node000013_Node000024"><a xlink:title=" ">
<path fill="none" stroke="#63b8ff" d="M331.74,-115.37C341.97,-106.3 358.29,-91.84 370.72,-80.82"/>
<polygon fill="#63b8ff" stroke="#63b8ff" points="373.06,-83.42 378.22,-74.17 368.42,-78.18 373.06,-83.42"/>
</a>
</g>
</g>
<!-- Node28 -->
<g id="Node000028" class="node">
<title>Node28</title>
<g id="a_Node000028"><a xlink:title=" ">
<polygon fill="#e0e0e0" stroke="#999999" points="485,-74 445,-74 445,-55 485,-55 485,-74"/>
<text text-anchor="middle" x="465" y="-62" font-family="Helvetica,sans-Serif" font-size="10.00">span</text>
</a>
</g>
</g>
<!-- Node13&#45;&gt;Node28 -->
<g id="edge18_Node000013_Node000028" class="edge">
<title>Node13&#45;&gt;Node28</title>
<g id="a_edge18_Node000013_Node000028"><a xlink:title=" ">
<path fill="none" stroke="#63b8ff" d="M342.79,-115.49C367.08,-105.56 407.44,-89.05 435.09,-77.74"/>
<polygon fill="#63b8ff" stroke="#63b8ff" points="436.71,-80.85 444.64,-73.83 434.06,-74.37 436.71,-80.85"/>
</a>
</g>
</g>
</g>
</svg>
