<?xml version="1.0" encoding="UTF-8" standalone="no"?>
<!DOCTYPE svg PUBLIC "-//W3C//DTD SVG 1.1//EN"
 "http://www.w3.org/Graphics/SVG/1.1/DTD/svg11.dtd">
<!-- Generated by graphviz version 2.43.0 (0)
 -->
<!-- Title: src/drv/leds.hpp Pages: 1 -->
<svg width="854pt" height="263pt"
 viewBox="0.00 0.00 853.57 263.00" xmlns="http://www.w3.org/2000/svg" xmlns:xlink="http://www.w3.org/1999/xlink">
<g id="graph0" class="graph" transform="scale(1 1) rotate(0) translate(4 259)">
<title>src/drv/leds.hpp</title>
<polygon fill="white" stroke="transparent" points="-4,4 -4,-259 849.57,-259 849.57,4 -4,4"/>
<!-- Node1 -->
<g id="node1" class="node">
<title>Node1</title>
<g id="a_node1"><a xlink:title=" ">
<polygon fill="#bfbfbf" stroke="black" points="205.07,-235.5 205.07,-254.5 299.07,-254.5 299.07,-235.5 205.07,-235.5"/>
<text text-anchor="middle" x="252.07" y="-242.5" font-family="Helvetica,sans-Serif" font-size="10.00">src/drv/leds.hpp</text>
</a>
</g>
</g>
<!-- Node2 -->
<g id="node2" class="node">
<title>Node2</title>
<g id="a_node2"><a xlink:href="base_2base_8hpp.html" target="_top" xlink:title=" ">
<polygon fill="white" stroke="black" points="402.57,-56.5 402.57,-75.5 489.57,-75.5 489.57,-56.5 402.57,-56.5"/>
<text text-anchor="middle" x="446.07" y="-63.5" font-family="Helvetica,sans-Serif" font-size="10.00">base/base.hpp</text>
</a>
</g>
</g>
<!-- Node1&#45;&gt;Node2 -->
<g id="edge1" class="edge">
<title>Node1&#45;&gt;Node2</title>
<path fill="none" stroke="midnightblue" d="M299.23,-238.39C397.89,-225.57 620.67,-190.63 665.07,-132 670.44,-124.91 670.69,-118.89 665.07,-112 644.65,-86.96 558.15,-75.45 500.17,-70.47"/>
<polygon fill="midnightblue" stroke="midnightblue" points="500.3,-66.97 490.05,-69.64 499.73,-73.95 500.3,-66.97"/>
</g>
<!-- Node4 -->
<g id="node4" class="node">
<title>Node4</title>
<g id="a_node4"><a xlink:title=" ">
<polygon fill="white" stroke="#bfbfbf" points="170.07,-0.5 170.07,-19.5 220.07,-19.5 220.07,-0.5 170.07,-0.5"/>
<text text-anchor="middle" x="195.07" y="-7.5" font-family="Helvetica,sans-Serif" font-size="10.00">cstdint</text>
</a>
</g>
</g>
<!-- Node1&#45;&gt;Node4 -->
<g id="edge19" class="edge">
<title>Node1&#45;&gt;Node4</title>
<path fill="none" stroke="midnightblue" d="M204.95,-240.92C141.86,-233.8 34.34,-210.2 4.07,-132 -23.05,-61.92 97.18,-28.99 159.57,-16.84"/>
<polygon fill="midnightblue" stroke="midnightblue" points="160.58,-20.21 169.77,-14.93 159.3,-13.33 160.58,-20.21"/>
</g>
<!-- Node8 -->
<g id="node8" class="node">
<title>Node8</title>
<g id="a_node8"><a xlink:href="defs_8hpp.html" target="_top" xlink:title=" ">
<polygon fill="white" stroke="black" points="100.57,-174 100.57,-193 177.57,-193 177.57,-174 100.57,-174"/>
<text text-anchor="middle" x="139.07" y="-181" font-family="Helvetica,sans-Serif" font-size="10.00">drv/defs.hpp</text>
</a>
</g>
</g>
<!-- Node1&#45;&gt;Node8 -->
<g id="edge7" class="edge">
<title>Node1&#45;&gt;Node8</title>
<path fill="none" stroke="midnightblue" d="M235.88,-235.48C217.17,-225.62 186.15,-209.29 164.27,-197.77"/>
<polygon fill="midnightblue" stroke="midnightblue" points="165.71,-194.57 155.23,-193.01 162.45,-200.77 165.71,-194.57"/>
</g>
<!-- Node9 -->
<g id="node9" class="node">
<title>Node9</title>
<g id="a_node9"><a xlink:href="platform_8hpp.html" target="_top" xlink:title=" ">
<polygon fill="white" stroke="red" points="13.07,-112.5 13.07,-131.5 93.07,-131.5 93.07,-112.5 13.07,-112.5"/>
<text text-anchor="middle" x="53.07" y="-119.5" font-family="Helvetica,sans-Serif" font-size="10.00">platform.hpp</text>
</a>
</g>
</g>
<!-- Node1&#45;&gt;Node9 -->
<g id="edge18" class="edge">
<title>Node1&#45;&gt;Node9</title>
<path fill="none" stroke="midnightblue" d="M204.73,-240.92C169.89,-236.44 123.2,-225.51 91.07,-199 73.24,-184.29 63,-159.12 57.74,-141.8"/>
<polygon fill="midnightblue" stroke="midnightblue" points="61,-140.46 54.97,-131.74 54.25,-142.31 61,-140.46"/>
</g>
<!-- Node13 -->
<g id="node11" class="node">
<title>Node13</title>
<g id="a_node11"><a xlink:href="interfaces_8hpp.html" target="_top" xlink:title=" ">
<polygon fill="white" stroke="black" points="312.57,-174 312.57,-193 417.57,-193 417.57,-174 312.57,-174"/>
<text text-anchor="middle" x="365.07" y="-181" font-family="Helvetica,sans-Serif" font-size="10.00">drv/interfaces.hpp</text>
</a>
</g>
</g>
<!-- Node1&#45;&gt;Node13 -->
<g id="edge10" class="edge">
<title>Node1&#45;&gt;Node13</title>
<path fill="none" stroke="midnightblue" d="M268.26,-235.48C286.97,-225.62 317.99,-209.29 339.87,-197.77"/>
<polygon fill="midnightblue" stroke="midnightblue" points="341.69,-200.77 348.91,-193.01 338.43,-194.57 341.69,-200.77"/>
</g>
<!-- Node24 -->
<g id="node16" class="node">
<title>Node24</title>
<g id="a_node16"><a xlink:title=" ">
<polygon fill="white" stroke="#bfbfbf" points="712.57,-168.5 712.57,-198.5 845.57,-198.5 845.57,-168.5 712.57,-168.5"/>
<text text-anchor="start" x="720.57" y="-186.5" font-family="Helvetica,sans-Serif" font-size="10.00">emlabcpp/experimental</text>
<text text-anchor="middle" x="779.07" y="-175.5" font-family="Helvetica,sans-Serif" font-size="10.00">/function_view.h</text>
</a>
</g>
</g>
<!-- Node1&#45;&gt;Node24 -->
<g id="edge20" class="edge">
<title>Node1&#45;&gt;Node24</title>
<path fill="none" stroke="midnightblue" d="M299.09,-240.45C380.56,-234.03 553.17,-219.25 698.07,-199 699.53,-198.8 701,-198.59 702.49,-198.37"/>
<polygon fill="midnightblue" stroke="midnightblue" points="703.03,-201.82 712.39,-196.85 701.98,-194.91 703.03,-201.82"/>
</g>
<!-- Node3 -->
<g id="node3" class="node">
<title>Node3</title>
<g id="a_node3"><a xlink:title=" ">
<polygon fill="white" stroke="#bfbfbf" points="294.07,-0.5 294.07,-19.5 344.07,-19.5 344.07,-0.5 294.07,-0.5"/>
<text text-anchor="middle" x="319.07" y="-7.5" font-family="Helvetica,sans-Serif" font-size="10.00">chrono</text>
</a>
</g>
</g>
<!-- Node2&#45;&gt;Node3 -->
<g id="edge2" class="edge">
<title>Node2&#45;&gt;Node3</title>
<path fill="none" stroke="midnightblue" d="M425.95,-56.44C405.05,-47.56 372.14,-33.56 348.35,-23.45"/>
<polygon fill="midnightblue" stroke="midnightblue" points="349.67,-20.21 339.1,-19.52 346.93,-26.65 349.67,-20.21"/>
</g>
<!-- Node2&#45;&gt;Node4 -->
<g id="edge3" class="edge">
<title>Node2&#45;&gt;Node4</title>
<path fill="none" stroke="midnightblue" d="M406.3,-56.44C357.72,-45.99 276.32,-28.48 230.03,-18.52"/>
<polygon fill="midnightblue" stroke="midnightblue" points="230.68,-15.08 220.17,-16.4 229.21,-21.92 230.68,-15.08"/>
</g>
<!-- Node5 -->
<g id="node5" class="node">
<title>Node5</title>
<g id="a_node5"><a xlink:title=" ">
<polygon fill="white" stroke="#bfbfbf" points="362.07,-0.5 362.07,-19.5 486.07,-19.5 486.07,-0.5 362.07,-0.5"/>
<text text-anchor="middle" x="424.07" y="-7.5" font-family="Helvetica,sans-Serif" font-size="10.00">emlabcpp/algorithm.h</text>
</a>
</g>
</g>
<!-- Node2&#45;&gt;Node5 -->
<g id="edge4" class="edge">
<title>Node2&#45;&gt;Node5</title>
<path fill="none" stroke="midnightblue" d="M442.44,-56.08C439.46,-48.77 435.14,-38.18 431.45,-29.1"/>
<polygon fill="midnightblue" stroke="midnightblue" points="434.65,-27.69 427.64,-19.75 428.17,-30.33 434.65,-27.69"/>
</g>
<!-- Node6 -->
<g id="node6" class="node">
<title>Node6</title>
<g id="a_node6"><a xlink:title=" ">
<polygon fill="white" stroke="#bfbfbf" points="504.07,-0.5 504.07,-19.5 620.07,-19.5 620.07,-0.5 504.07,-0.5"/>
<text text-anchor="middle" x="562.07" y="-7.5" font-family="Helvetica,sans-Serif" font-size="10.00">emlabcpp/quantity.h</text>
</a>
</g>
</g>
<!-- Node2&#45;&gt;Node6 -->
<g id="edge5" class="edge">
<title>Node2&#45;&gt;Node6</title>
<path fill="none" stroke="midnightblue" d="M464.45,-56.44C483.29,-47.68 512.8,-33.94 534.45,-23.86"/>
<polygon fill="midnightblue" stroke="midnightblue" points="536.19,-26.91 543.78,-19.52 533.23,-20.56 536.19,-26.91"/>
</g>
<!-- Node7 -->
<g id="node7" class="node">
<title>Node7</title>
<g id="a_node7"><a xlink:title=" ">
<polygon fill="white" stroke="#bfbfbf" points="638.57,-0.5 638.57,-19.5 697.57,-19.5 697.57,-0.5 638.57,-0.5"/>
<text text-anchor="middle" x="668.07" y="-7.5" font-family="Helvetica,sans-Serif" font-size="10.00">numbers</text>
</a>
</g>
</g>
<!-- Node2&#45;&gt;Node7 -->
<g id="edge6" class="edge">
<title>Node2&#45;&gt;Node7</title>
<path fill="none" stroke="midnightblue" d="M481.25,-56.44C521.34,-46.69 586.73,-30.79 628.55,-20.61"/>
<polygon fill="midnightblue" stroke="midnightblue" points="629.5,-23.98 638.39,-18.22 627.84,-17.18 629.5,-23.98"/>
</g>
<!-- Node8&#45;&gt;Node9 -->
<g id="edge8" class="edge">
<title>Node8&#45;&gt;Node9</title>
<path fill="none" stroke="midnightblue" d="M126.75,-173.98C112.96,-164.43 90.37,-148.81 73.84,-137.37"/>
<polygon fill="midnightblue" stroke="midnightblue" points="75.58,-134.32 65.37,-131.51 71.6,-140.08 75.58,-134.32"/>
</g>
<!-- Node12 -->
<g id="node10" class="node">
<title>Node12</title>
<g id="a_node10"><a xlink:title=" ">
<polygon fill="white" stroke="#bfbfbf" points="111.07,-112.5 111.07,-131.5 167.07,-131.5 167.07,-112.5 111.07,-112.5"/>
<text text-anchor="middle" x="139.07" y="-119.5" font-family="Helvetica,sans-Serif" font-size="10.00">optional</text>
</a>
</g>
</g>
<!-- Node8&#45;&gt;Node12 -->
<g id="edge9" class="edge">
<title>Node8&#45;&gt;Node12</title>
<path fill="none" stroke="midnightblue" d="M139.07,-173.98C139.07,-165.58 139.07,-152.48 139.07,-141.66"/>
<polygon fill="midnightblue" stroke="midnightblue" points="142.57,-141.51 139.07,-131.51 135.57,-141.51 142.57,-141.51"/>
</g>
<!-- Node13&#45;&gt;Node2 -->
<g id="edge11" class="edge">
<title>Node13&#45;&gt;Node2</title>
<path fill="none" stroke="midnightblue" d="M371.16,-173.82C384.47,-154.84 416.37,-109.35 433.95,-84.29"/>
<polygon fill="midnightblue" stroke="midnightblue" points="437.04,-85.98 439.91,-75.78 431.3,-81.96 437.04,-85.98"/>
</g>
<!-- Node13&#45;&gt;Node4 -->
<g id="edge14" class="edge">
<title>Node13&#45;&gt;Node4</title>
<path fill="none" stroke="midnightblue" d="M312.27,-178.48C279.14,-173.07 238.26,-160.6 214.07,-132 189.55,-103 190,-55.58 192.51,-29.55"/>
<polygon fill="midnightblue" stroke="midnightblue" points="195.99,-29.87 193.68,-19.53 189.04,-29.05 195.99,-29.87"/>
</g>
<!-- Node14 -->
<g id="node12" class="node">
<title>Node14</title>
<g id="a_node12"><a xlink:href="map_8hpp.html" target="_top" xlink:title=" ">
<polygon fill="white" stroke="red" points="441.57,-112.5 441.57,-131.5 518.57,-131.5 518.57,-112.5 441.57,-112.5"/>
<text text-anchor="middle" x="480.07" y="-119.5" font-family="Helvetica,sans-Serif" font-size="10.00">cfg/map.hpp</text>
</a>
</g>
</g>
<!-- Node13&#45;&gt;Node14 -->
<g id="edge12" class="edge">
<title>Node13&#45;&gt;Node14</title>
<path fill="none" stroke="midnightblue" d="M381.55,-173.98C400.68,-164.08 432.44,-147.64 454.72,-136.12"/>
<polygon fill="midnightblue" stroke="midnightblue" points="456.35,-139.21 463.62,-131.51 453.13,-133 456.35,-139.21"/>
</g>
<!-- Node21 -->
<g id="node13" class="node">
<title>Node21</title>
<g id="a_node13"><a xlink:title=" ">
<polygon fill="white" stroke="#bfbfbf" points="536.57,-112.5 536.57,-131.5 655.57,-131.5 655.57,-112.5 536.57,-112.5"/>
<text text-anchor="middle" x="596.07" y="-119.5" font-family="Helvetica,sans-Serif" font-size="10.00">emlabcpp/outcome.h</text>
</a>
</g>
</g>
<!-- Node13&#45;&gt;Node21 -->
<g id="edge15" class="edge">
<title>Node13&#45;&gt;Node21</title>
<path fill="none" stroke="midnightblue" d="M398.17,-173.98C438.99,-163.46 508.48,-145.56 553.31,-134.01"/>
<polygon fill="midnightblue" stroke="midnightblue" points="554.22,-137.39 563.04,-131.51 552.48,-130.61 554.22,-137.39"/>
</g>
<!-- Node22 -->
<g id="node14" class="node">
<title>Node22</title>
<g id="a_node14"><a xlink:title=" ">
<polygon fill="white" stroke="#bfbfbf" points="223.07,-112.5 223.07,-131.5 327.07,-131.5 327.07,-112.5 223.07,-112.5"/>
<text text-anchor="middle" x="275.07" y="-119.5" font-family="Helvetica,sans-Serif" font-size="10.00">emlabcpp/result.h</text>
</a>
</g>
</g>
<!-- Node13&#45;&gt;Node22 -->
<g id="edge16" class="edge">
<title>Node13&#45;&gt;Node22</title>
<path fill="none" stroke="midnightblue" d="M352.18,-173.98C337.61,-164.34 313.67,-148.52 296.33,-137.05"/>
<polygon fill="midnightblue" stroke="midnightblue" points="298.21,-134.1 287.94,-131.51 294.35,-139.94 298.21,-134.1"/>
</g>
<!-- Node23 -->
<g id="node15" class="node">
<title>Node23</title>
<g id="a_node15"><a xlink:title=" ">
<polygon fill="white" stroke="#bfbfbf" points="345.07,-112.5 345.07,-131.5 385.07,-131.5 385.07,-112.5 345.07,-112.5"/>
<text text-anchor="middle" x="365.07" y="-119.5" font-family="Helvetica,sans-Serif" font-size="10.00">span</text>
</a>
</g>
</g>
<!-- Node13&#45;&gt;Node23 -->
<g id="edge17" class="edge">
<title>Node13&#45;&gt;Node23</title>
<path fill="none" stroke="midnightblue" d="M365.07,-173.98C365.07,-165.58 365.07,-152.48 365.07,-141.66"/>
<polygon fill="midnightblue" stroke="midnightblue" points="368.57,-141.51 365.07,-131.51 361.57,-141.51 368.57,-141.51"/>
</g>
<!-- Node14&#45;&gt;Node2 -->
<g id="edge13" class="edge">
<title>Node14&#45;&gt;Node2</title>
<path fill="none" stroke="midnightblue" d="M474.46,-112.08C469.7,-104.53 462.75,-93.49 456.92,-84.23"/>
<polygon fill="midnightblue" stroke="midnightblue" points="459.87,-82.35 451.58,-75.75 453.95,-86.08 459.87,-82.35"/>
</g>
</g>
</svg>
