<?xml version="1.0" encoding="UTF-8" standalone="no"?>
<!DOCTYPE svg PUBLIC "-//W3C//DTD SVG 1.1//EN"
 "http://www.w3.org/Graphics/SVG/1.1/DTD/svg11.dtd">
<!-- Generated by graphviz version 2.43.0 (0)
 -->
<!-- Title: src/drv/leds.cpp Pages: 1 -->
<svg width="712pt" height="258pt"
 viewBox="0.00 0.00 712.26 258.00" xmlns="http://www.w3.org/2000/svg" xmlns:xlink="http://www.w3.org/1999/xlink">
<g id="graph0" class="graph" transform="scale(1 1) rotate(0) translate(4 254)">
<title>src/drv/leds.cpp</title>
<!-- Node1 -->
<g id="Node000001" class="node">
<title>Node1</title>
<g id="a_Node000001"><a xlink:title=" ">
<polygon fill="#999999" stroke="#666666" points="498.76,-250 405.76,-250 405.76,-231 498.76,-231 498.76,-250"/>
<text text-anchor="middle" x="452.26" y="-238" font-family="Helvetica,sans-Serif" font-size="10.00">src/drv/leds.cpp</text>
</a>
</g>
</g>
<!-- Node2 -->
<g id="Node000002" class="node">
<title>Node2</title>
<g id="a_Node000002"><a xlink:href="leds_8hpp.html" target="_top" xlink:title=" ">
<polygon fill="white" stroke="#666666" points="324.26,-195 260.26,-195 260.26,-176 324.26,-176 324.26,-195"/>
<text text-anchor="middle" x="292.26" y="-183" font-family="Helvetica,sans-Serif" font-size="10.00">./leds.hpp</text>
</a>
</g>
</g>
<!-- Node1&#45;&gt;Node2 -->
<g id="edge1_Node000001_Node000002" class="edge">
<title>Node1&#45;&gt;Node2</title>
<g id="a_edge1_Node000001_Node000002"><a xlink:title=" ">
<path fill="none" stroke="#63b8ff" d="M426.55,-230.98C399.8,-222.13 357.73,-208.19 327.81,-198.28"/>
<polygon fill="#63b8ff" stroke="#63b8ff" points="328.76,-194.9 318.17,-195.08 326.56,-201.55 328.76,-194.9"/>
</a>
</g>
</g>
<!-- Node6 -->
<g id="Node000006" class="node">
<title>Node6</title>
<g id="a_Node000006"><a xlink:title=" ">
<polygon fill="#e0e0e0" stroke="#999999" points="442.26,-19 318.26,-19 318.26,0 442.26,0 442.26,-19"/>
<text text-anchor="middle" x="380.26" y="-7" font-family="Helvetica,sans-Serif" font-size="10.00">emlabcpp/algorithm.h</text>
</a>
</g>
</g>
<!-- Node1&#45;&gt;Node6 -->
<g id="edge17_Node000001_Node000006" class="edge">
<title>Node1&#45;&gt;Node6</title>
<g id="a_edge17_Node000001_Node000006"><a xlink:title=" ">
<path fill="none" stroke="#63b8ff" d="M453.55,-230.76C457.2,-203.08 465.38,-115.6 433.26,-55 426.75,-42.73 415.31,-32.46 404.72,-24.9"/>
<polygon fill="#63b8ff" stroke="#63b8ff" points="406.41,-21.82 396.15,-19.19 402.53,-27.65 406.41,-21.82"/>
</a>
</g>
</g>
<!-- Node23 -->
<g id="Node000023" class="node">
<title>Node23</title>
<g id="a_Node000023"><a xlink:href="fw_2util_8hpp.html" target="_top" xlink:title=" ">
<polygon fill="white" stroke="#666666" points="590.76,-195 513.76,-195 513.76,-176 590.76,-176 590.76,-195"/>
<text text-anchor="middle" x="552.26" y="-183" font-family="Helvetica,sans-Serif" font-size="10.00">../fw/util.hpp</text>
</a>
</g>
</g>
<!-- Node1&#45;&gt;Node23 -->
<g id="edge13_Node000001_Node000023" class="edge">
<title>Node1&#45;&gt;Node23</title>
<g id="a_edge13_Node000001_Node000023"><a xlink:title=" ">
<path fill="none" stroke="#63b8ff" d="M468.32,-230.98C484.12,-222.61 508.47,-209.7 526.89,-199.95"/>
<polygon fill="#63b8ff" stroke="#63b8ff" points="528.7,-202.95 535.9,-195.17 525.42,-196.76 528.7,-202.95"/>
</a>
</g>
</g>
<!-- Node3 -->
<g id="Node000003" class="node">
<title>Node3</title>
<g id="a_Node000003"><a xlink:href="base_8hpp.html" target="_top" xlink:title=" ">
<polygon fill="#fff0f0" stroke="red" points="302.26,-74 232.26,-74 232.26,-55 302.26,-55 302.26,-74"/>
<text text-anchor="middle" x="267.26" y="-62" font-family="Helvetica,sans-Serif" font-size="10.00">../base.hpp</text>
</a>
</g>
</g>
<!-- Node2&#45;&gt;Node3 -->
<g id="edge2_Node000002_Node000003" class="edge">
<title>Node2&#45;&gt;Node3</title>
<g id="a_edge2_Node000002_Node000003"><a xlink:title=" ">
<path fill="none" stroke="#63b8ff" d="M290.46,-175.94C286.44,-156.82 276.66,-110.27 271.17,-84.12"/>
<polygon fill="#63b8ff" stroke="#63b8ff" points="274.59,-83.37 269.11,-74.3 267.74,-84.81 274.59,-83.37"/>
</a>
</g>
</g>
<!-- Node5 -->
<g id="Node000005" class="node">
<title>Node5</title>
<g id="a_Node000005"><a xlink:title=" ">
<polygon fill="#e0e0e0" stroke="#999999" points="229.26,-19 179.26,-19 179.26,0 229.26,0 229.26,-19"/>
<text text-anchor="middle" x="204.26" y="-7" font-family="Helvetica,sans-Serif" font-size="10.00">cstdint</text>
</a>
</g>
</g>
<!-- Node2&#45;&gt;Node5 -->
<g id="edge11_Node000002_Node000005" class="edge">
<title>Node2&#45;&gt;Node5</title>
<g id="a_edge11_Node000002_Node000005"><a xlink:title=" ">
<path fill="none" stroke="#63b8ff" d="M260.16,-184.4C193.36,-183.45 42.97,-177.14 11.26,-140 -40.09,-79.88 100.23,-35.93 168.9,-18.61"/>
<polygon fill="#63b8ff" stroke="#63b8ff" points="169.99,-21.95 178.87,-16.16 168.32,-15.15 169.99,-21.95"/>
</a>
</g>
</g>
<!-- Node10 -->
<g id="Node000010" class="node">
<title>Node10</title>
<g id="a_Node000010"><a xlink:href="platform_8hpp.html" target="_top" xlink:title=" ">
<polygon fill="#fff0f0" stroke="red" points="424.26,-74 320.26,-74 320.26,-55 424.26,-55 424.26,-74"/>
<text text-anchor="middle" x="372.26" y="-62" font-family="Helvetica,sans-Serif" font-size="10.00">../plt/platform.hpp</text>
</a>
</g>
</g>
<!-- Node2&#45;&gt;Node10 -->
<g id="edge5_Node000002_Node000010" class="edge">
<title>Node2&#45;&gt;Node10</title>
<g id="a_edge5_Node000002_Node000010"><a xlink:title=" ">
<path fill="none" stroke="#63b8ff" d="M298.01,-175.94C311.09,-156.48 343.28,-108.6 360.67,-82.74"/>
<polygon fill="#63b8ff" stroke="#63b8ff" points="363.67,-84.55 366.34,-74.3 357.86,-80.65 363.67,-84.55"/>
</a>
</g>
</g>
<!-- Node13 -->
<g id="Node000013" class="node">
<title>Node13</title>
<g id="a_Node000013"><a xlink:href="defs_8hpp.html" target="_top" xlink:title=" ">
<polygon fill="#fff0f0" stroke="red" points="423.76,-134.5 358.76,-134.5 358.76,-115.5 423.76,-115.5 423.76,-134.5"/>
<text text-anchor="middle" x="391.26" y="-122.5" font-family="Helvetica,sans-Serif" font-size="10.00">./defs.hpp</text>
</a>
</g>
</g>
<!-- Node2&#45;&gt;Node13 -->
<g id="edge6_Node000002_Node000013" class="edge">
<title>Node2&#45;&gt;Node13</title>
<g id="a_edge6_Node000002_Node000013"><a xlink:title=" ">
<path fill="none" stroke="#63b8ff" d="M306.86,-175.87C322.95,-166.36 349.04,-150.95 367.95,-139.77"/>
<polygon fill="#63b8ff" stroke="#63b8ff" points="369.76,-142.77 376.59,-134.67 366.2,-136.74 369.76,-142.77"/>
</a>
</g>
</g>
<!-- Node14 -->
<g id="Node000014" class="node">
<title>Node14</title>
<g id="a_Node000014"><a xlink:href="interfaces_8hpp.html" target="_top" xlink:title=" ">
<polygon fill="#fff0f0" stroke="red" points="264.26,-134.5 172.26,-134.5 172.26,-115.5 264.26,-115.5 264.26,-134.5"/>
<text text-anchor="middle" x="218.26" y="-122.5" font-family="Helvetica,sans-Serif" font-size="10.00">./interfaces.hpp</text>
</a>
</g>
</g>
<!-- Node2&#45;&gt;Node14 -->
<g id="edge8_Node000002_Node000014" class="edge">
<title>Node2&#45;&gt;Node14</title>
<g id="a_edge8_Node000002_Node000014"><a xlink:title=" ">
<path fill="none" stroke="#63b8ff" d="M281.34,-175.87C269.75,-166.71 251.22,-152.06 237.24,-141.01"/>
<polygon fill="#63b8ff" stroke="#63b8ff" points="239.24,-138.12 229.22,-134.67 234.9,-143.61 239.24,-138.12"/>
</a>
</g>
</g>
<!-- Node22 -->
<g id="Node000022" class="node">
<title>Node22</title>
<g id="a_Node000022"><a xlink:title=" ">
<polygon fill="#e0e0e0" stroke="#999999" points="153.76,-140 20.76,-140 20.76,-110 153.76,-110 153.76,-140"/>
<text text-anchor="start" x="28.76" y="-128" font-family="Helvetica,sans-Serif" font-size="10.00">emlabcpp/experimental</text>
<text text-anchor="middle" x="87.26" y="-117" font-family="Helvetica,sans-Serif" font-size="10.00">/function_view.h</text>
</a>
</g>
</g>
<!-- Node2&#45;&gt;Node22 -->
<g id="edge12_Node000002_Node000022" class="edge">
<title>Node2&#45;&gt;Node22</title>
<g id="a_edge12_Node000002_Node000022"><a xlink:title=" ">
<path fill="none" stroke="#63b8ff" d="M262.45,-175.99C232.17,-167.35 184.46,-153.74 146.47,-142.9"/>
<polygon fill="#63b8ff" stroke="#63b8ff" points="147.12,-139.44 136.54,-140.06 145.2,-146.17 147.12,-139.44"/>
</a>
</g>
</g>
<!-- Node3&#45;&gt;Node5 -->
<g id="edge3_Node000003_Node000005" class="edge">
<title>Node3&#45;&gt;Node5</title>
<g id="a_edge3_Node000003_Node000005"><a xlink:title=" ">
<path fill="none" stroke="#63b8ff" d="M257.14,-54.98C247.82,-47.15 233.79,-35.34 222.52,-25.86"/>
<polygon fill="#63b8ff" stroke="#63b8ff" points="224.47,-22.93 214.56,-19.17 219.96,-28.29 224.47,-22.93"/>
</a>
</g>
</g>
<!-- Node3&#45;&gt;Node6 -->
<g id="edge4_Node000003_Node000006" class="edge">
<title>Node3&#45;&gt;Node6</title>
<g id="a_edge4_Node000003_Node000006"><a xlink:title=" ">
<path fill="none" stroke="#63b8ff" d="M285.41,-54.98C303.51,-46.5 331.54,-33.35 352.44,-23.54"/>
<polygon fill="#63b8ff" stroke="#63b8ff" points="354.2,-26.59 361.77,-19.17 351.23,-20.25 354.2,-26.59"/>
</a>
</g>
</g>
<!-- Node13&#45;&gt;Node10 -->
<g id="edge7_Node000013_Node000010" class="edge">
<title>Node13&#45;&gt;Node10</title>
<g id="a_edge7_Node000013_Node000010"><a xlink:title=" ">
<path fill="none" stroke="#63b8ff" d="M388.45,-115.37C385.76,-107.07 381.6,-94.28 378.18,-83.72"/>
<polygon fill="#63b8ff" stroke="#63b8ff" points="381.49,-82.6 375.07,-74.17 374.83,-84.76 381.49,-82.6"/>
</a>
</g>
</g>
<!-- Node14&#45;&gt;Node3 -->
<g id="edge9_Node000014_Node000003" class="edge">
<title>Node14&#45;&gt;Node3</title>
<g id="a_edge9_Node000014_Node000003"><a xlink:title=" ">
<path fill="none" stroke="#63b8ff" d="M225.49,-115.37C232.8,-106.64 244.28,-92.93 253.36,-82.09"/>
<polygon fill="#63b8ff" stroke="#63b8ff" points="256.26,-84.08 260,-74.17 250.89,-79.59 256.26,-84.08"/>
</a>
</g>
</g>
<!-- Node14&#45;&gt;Node5 -->
<g id="edge10_Node000014_Node000005" class="edge">
<title>Node14&#45;&gt;Node5</title>
<g id="a_edge10_Node000014_Node000005"><a xlink:title=" ">
<path fill="none" stroke="#63b8ff" d="M217.2,-115.47C214.95,-97.23 209.63,-54.07 206.56,-29.14"/>
<polygon fill="#63b8ff" stroke="#63b8ff" points="210.02,-28.63 205.32,-19.13 203.07,-29.48 210.02,-28.63"/>
</a>
</g>
</g>
<!-- Node24 -->
<g id="Node000024" class="node">
<title>Node24</title>
<g id="a_Node000024"><a xlink:title=" ">
<polygon fill="#e0e0e0" stroke="#999999" points="704.26,-134.5 640.26,-134.5 640.26,-115.5 704.26,-115.5 704.26,-134.5"/>
<text text-anchor="middle" x="672.26" y="-122.5" font-family="Helvetica,sans-Serif" font-size="10.00">algorithm</text>
</a>
</g>
</g>
<!-- Node23&#45;&gt;Node24 -->
<g id="edge14_Node000023_Node000024" class="edge">
<title>Node23&#45;&gt;Node24</title>
<g id="a_edge14_Node000023_Node000024"><a xlink:title=" ">
<path fill="none" stroke="#63b8ff" d="M569.71,-175.99C589.61,-166.29 622.4,-150.31 645.53,-139.03"/>
<polygon fill="#63b8ff" stroke="#63b8ff" points="647.33,-142.04 654.79,-134.52 644.26,-135.75 647.33,-142.04"/>
</a>
</g>
</g>
<!-- Node25 -->
<g id="Node000025" class="node">
<title>Node25</title>
<g id="a_Node000025"><a xlink:title=" ">
<polygon fill="#e0e0e0" stroke="#999999" points="530.26,-134.5 480.26,-134.5 480.26,-115.5 530.26,-115.5 530.26,-134.5"/>
<text text-anchor="middle" x="505.26" y="-122.5" font-family="Helvetica,sans-Serif" font-size="10.00">cstring</text>
</a>
</g>
</g>
<!-- Node23&#45;&gt;Node25 -->
<g id="edge15_Node000023_Node000025" class="edge">
<title>Node23&#45;&gt;Node25</title>
<g id="a_edge15_Node000023_Node000025"><a xlink:title=" ">
<path fill="none" stroke="#63b8ff" d="M545.32,-175.87C538.31,-167.14 527.3,-153.43 518.59,-142.59"/>
<polygon fill="#63b8ff" stroke="#63b8ff" points="521.21,-140.27 512.22,-134.67 515.76,-144.66 521.21,-140.27"/>
</a>
</g>
</g>
<!-- Node26 -->
<g id="Node000026" class="node">
<title>Node26</title>
<g id="a_Node000026"><a xlink:title=" ">
<polygon fill="#e0e0e0" stroke="#999999" points="621.76,-134.5 548.76,-134.5 548.76,-115.5 621.76,-115.5 621.76,-134.5"/>
<text text-anchor="middle" x="585.26" y="-122.5" font-family="Helvetica,sans-Serif" font-size="10.00">string_view</text>
</a>
</g>
</g>
<!-- Node23&#45;&gt;Node26 -->
<g id="edge16_Node000023_Node000026" class="edge">
<title>Node23&#45;&gt;Node26</title>
<g id="a_edge16_Node000023_Node000026"><a xlink:title=" ">
<path fill="none" stroke="#63b8ff" d="M557.13,-175.87C561.9,-167.4 569.33,-154.24 575.35,-143.57"/>
<polygon fill="#63b8ff" stroke="#63b8ff" points="578.5,-145.1 580.37,-134.67 572.41,-141.66 578.5,-145.1"/>
</a>
</g>
</g>
</g>
</svg>
