<?xml version="1.0" encoding="UTF-8" standalone="no"?>
<!DOCTYPE svg PUBLIC "-//W3C//DTD SVG 1.1//EN"
 "http://www.w3.org/Graphics/SVG/1.1/DTD/svg11.dtd">
<!-- Generated by graphviz version 2.43.0 (0)
 -->
<!-- Title: src/drv/leds.hpp Pages: 1 -->
<svg width="860pt" height="258pt"
 viewBox="0.00 0.00 859.50 258.00" xmlns="http://www.w3.org/2000/svg" xmlns:xlink="http://www.w3.org/1999/xlink">
<g id="graph0" class="graph" transform="scale(1 1) rotate(0) translate(4 254)">
<title>src/drv/leds.hpp</title>
<!-- Node1 -->
<g id="Node000001" class="node">
<title>Node1</title>
<g id="a_Node000001"><a xlink:title=" ">
<polygon fill="#999999" stroke="#666666" points="635,-250 541,-250 541,-231 635,-231 635,-250"/>
<text text-anchor="middle" x="588" y="-238" font-family="Helvetica,sans-Serif" font-size="10.00">src/drv/leds.hpp</text>
</a>
</g>
</g>
<!-- Node2 -->
<g id="Node000002" class="node">
<title>Node2</title>
<g id="a_Node000002"><a xlink:href="base_8hpp.html" target="_top" xlink:title=" ">
<polygon fill="white" stroke="#666666" points="303,-74 233,-74 233,-55 303,-55 303,-74"/>
<text text-anchor="middle" x="268" y="-62" font-family="Helvetica,sans-Serif" font-size="10.00">../base.hpp</text>
</a>
</g>
</g>
<!-- Node1&#45;&gt;Node2 -->
<g id="edge1_Node000001_Node000002" class="edge">
<title>Node1&#45;&gt;Node2</title>
<g id="a_edge1_Node000001_Node000002"><a xlink:title=" ">
<path fill="none" stroke="#63b8ff" d="M540.76,-233.08C448.78,-219.44 251.55,-184.24 216,-129 204.28,-110.79 224.79,-91.83 243.4,-79.42"/>
<polygon fill="#63b8ff" stroke="#63b8ff" points="245.35,-82.33 251.96,-74.05 241.63,-76.4 245.35,-82.33"/>
</a>
</g>
</g>
<!-- Node4 -->
<g id="Node000004" class="node">
<title>Node4</title>
<g id="a_Node000004"><a xlink:title=" ">
<polygon fill="#e0e0e0" stroke="#999999" points="472,-19 422,-19 422,0 472,0 472,-19"/>
<text text-anchor="middle" x="447" y="-7" font-family="Helvetica,sans-Serif" font-size="10.00">cstdint</text>
</a>
</g>
</g>
<!-- Node1&#45;&gt;Node4 -->
<g id="edge19_Node000001_Node000004" class="edge">
<title>Node1&#45;&gt;Node4</title>
<g id="a_edge19_Node000001_Node000004"><a xlink:title=" ">
<path fill="none" stroke="#63b8ff" d="M586.9,-230.71C583.86,-208.87 573.84,-150.96 549,-110 527.5,-74.55 490.44,-42.87 467.4,-25.22"/>
<polygon fill="#63b8ff" stroke="#63b8ff" points="469.42,-22.36 459.32,-19.16 465.22,-27.96 469.42,-22.36"/>
</a>
</g>
</g>
<!-- Node8 -->
<g id="Node000008" class="node">
<title>Node8</title>
<g id="a_Node000008"><a xlink:href="platform_8hpp.html" target="_top" xlink:title=" ">
<polygon fill="white" stroke="#666666" points="701,-129 597,-129 597,-110 701,-110 701,-129"/>
<text text-anchor="middle" x="649" y="-117" font-family="Helvetica,sans-Serif" font-size="10.00">../plt/platform.hpp</text>
</a>
</g>
</g>
<!-- Node1&#45;&gt;Node8 -->
<g id="edge7_Node000001_Node000008" class="edge">
<title>Node1&#45;&gt;Node8</title>
<g id="a_edge7_Node000001_Node000008"><a xlink:title=" ">
<path fill="none" stroke="#63b8ff" d="M592.43,-230.78C599.51,-216.86 613.8,-188.77 626,-165 630.57,-156.09 635.69,-146.19 639.93,-137.99"/>
<polygon fill="#63b8ff" stroke="#63b8ff" points="643.09,-139.51 644.58,-129.02 636.87,-136.29 643.09,-139.51"/>
</a>
</g>
</g>
<!-- Node11 -->
<g id="Node000011" class="node">
<title>Node11</title>
<g id="a_Node000011"><a xlink:href="defs_8hpp.html" target="_top" xlink:title=" ">
<polygon fill="white" stroke="#666666" points="700.5,-189.5 635.5,-189.5 635.5,-170.5 700.5,-170.5 700.5,-189.5"/>
<text text-anchor="middle" x="668" y="-177.5" font-family="Helvetica,sans-Serif" font-size="10.00">./defs.hpp</text>
</a>
</g>
</g>
<!-- Node1&#45;&gt;Node11 -->
<g id="edge9_Node000001_Node000011" class="edge">
<title>Node1&#45;&gt;Node11</title>
<g id="a_edge9_Node000001_Node000011"><a xlink:title=" ">
<path fill="none" stroke="#63b8ff" d="M599.8,-230.87C612.45,-221.62 632.74,-206.78 647.91,-195.69"/>
<polygon fill="#63b8ff" stroke="#63b8ff" points="650.14,-198.4 656.15,-189.67 646.01,-192.74 650.14,-198.4"/>
</a>
</g>
</g>
<!-- Node13 -->
<g id="Node000013" class="node">
<title>Node13</title>
<g id="a_Node000013"><a xlink:href="interfaces_8hpp.html" target="_top" xlink:title=" ">
<polygon fill="white" stroke="#666666" points="462,-189.5 370,-189.5 370,-170.5 462,-170.5 462,-189.5"/>
<text text-anchor="middle" x="416" y="-177.5" font-family="Helvetica,sans-Serif" font-size="10.00">./interfaces.hpp</text>
</a>
</g>
</g>
<!-- Node1&#45;&gt;Node13 -->
<g id="edge12_Node000001_Node000013" class="edge">
<title>Node1&#45;&gt;Node13</title>
<g id="a_edge12_Node000001_Node000013"><a xlink:title=" ">
<path fill="none" stroke="#63b8ff" d="M562.99,-230.99C533.44,-220.94 484.09,-204.16 450.81,-192.84"/>
<polygon fill="#63b8ff" stroke="#63b8ff" points="451.63,-189.42 441.04,-189.52 449.38,-196.05 451.63,-189.42"/>
</a>
</g>
</g>
<!-- Node25 -->
<g id="Node000025" class="node">
<title>Node25</title>
<g id="a_Node000025"><a xlink:title=" ">
<polygon fill="#e0e0e0" stroke="#999999" points="851.5,-195 718.5,-195 718.5,-165 851.5,-165 851.5,-195"/>
<text text-anchor="start" x="726.5" y="-183" font-family="Helvetica,sans-Serif" font-size="10.00">emlabcpp/experimental</text>
<text text-anchor="middle" x="785" y="-172" font-family="Helvetica,sans-Serif" font-size="10.00">/function_view.h</text>
</a>
</g>
</g>
<!-- Node1&#45;&gt;Node25 -->
<g id="edge20_Node000001_Node000025" class="edge">
<title>Node1&#45;&gt;Node25</title>
<g id="a_edge20_Node000001_Node000025"><a xlink:title=" ">
<path fill="none" stroke="#63b8ff" d="M616.65,-230.99C645.62,-222.39 691.2,-208.86 727.63,-198.04"/>
<polygon fill="#63b8ff" stroke="#63b8ff" points="729.05,-201.27 737.64,-195.06 727.06,-194.56 729.05,-201.27"/>
</a>
</g>
</g>
<!-- Node3 -->
<g id="Node000003" class="node">
<title>Node3</title>
<g id="a_Node000003"><a xlink:title=" ">
<polygon fill="#e0e0e0" stroke="#999999" points="50,-19 0,-19 0,0 50,0 50,-19"/>
<text text-anchor="middle" x="25" y="-7" font-family="Helvetica,sans-Serif" font-size="10.00">chrono</text>
</a>
</g>
</g>
<!-- Node2&#45;&gt;Node3 -->
<g id="edge2_Node000002_Node000003" class="edge">
<title>Node2&#45;&gt;Node3</title>
<g id="a_edge2_Node000002_Node000003"><a xlink:title=" ">
<path fill="none" stroke="#63b8ff" d="M232.79,-56.4C193.13,-48.31 126.52,-34.47 60.03,-19.18"/>
<polygon fill="#63b8ff" stroke="#63b8ff" points="60.76,-15.75 50.23,-16.91 59.18,-22.57 60.76,-15.75"/>
</a>
</g>
</g>
<!-- Node2&#45;&gt;Node4 -->
<g id="edge3_Node000002_Node000004" class="edge">
<title>Node2&#45;&gt;Node4</title>
<g id="a_edge3_Node000002_Node000004"><a xlink:title=" ">
<path fill="none" stroke="#63b8ff" d="M296.76,-54.98C328.11,-45.7 378.27,-30.85 411.91,-20.89"/>
<polygon fill="#63b8ff" stroke="#63b8ff" points="413.19,-24.16 421.78,-17.97 411.2,-17.45 413.19,-24.16"/>
</a>
</g>
</g>
<!-- Node5 -->
<g id="Node000005" class="node">
<title>Node5</title>
<g id="a_Node000005"><a xlink:title=" ">
<polygon fill="#e0e0e0" stroke="#999999" points="192,-19 68,-19 68,0 192,0 192,-19"/>
<text text-anchor="middle" x="130" y="-7" font-family="Helvetica,sans-Serif" font-size="10.00">emlabcpp/algorithm.h</text>
</a>
</g>
</g>
<!-- Node2&#45;&gt;Node5 -->
<g id="edge4_Node000002_Node000005" class="edge">
<title>Node2&#45;&gt;Node5</title>
<g id="a_edge4_Node000002_Node000005"><a xlink:title=" ">
<path fill="none" stroke="#63b8ff" d="M245.83,-54.98C223.23,-46.3 187.94,-32.75 162.25,-22.88"/>
<polygon fill="#63b8ff" stroke="#63b8ff" points="163.17,-19.49 152.58,-19.17 160.66,-26.02 163.17,-19.49"/>
</a>
</g>
</g>
<!-- Node6 -->
<g id="Node000006" class="node">
<title>Node6</title>
<g id="a_Node000006"><a xlink:title=" ">
<polygon fill="#e0e0e0" stroke="#999999" points="326,-19 210,-19 210,0 326,0 326,-19"/>
<text text-anchor="middle" x="268" y="-7" font-family="Helvetica,sans-Serif" font-size="10.00">emlabcpp/quantity.h</text>
</a>
</g>
</g>
<!-- Node2&#45;&gt;Node6 -->
<g id="edge5_Node000002_Node000006" class="edge">
<title>Node2&#45;&gt;Node6</title>
<g id="a_edge5_Node000002_Node000006"><a xlink:title=" ">
<path fill="none" stroke="#63b8ff" d="M268,-54.75C268,-47.8 268,-37.85 268,-29.13"/>
<polygon fill="#63b8ff" stroke="#63b8ff" points="271.5,-29.09 268,-19.09 264.5,-29.09 271.5,-29.09"/>
</a>
</g>
</g>
<!-- Node7 -->
<g id="Node000007" class="node">
<title>Node7</title>
<g id="a_Node000007"><a xlink:title=" ">
<polygon fill="#e0e0e0" stroke="#999999" points="403.5,-19 344.5,-19 344.5,0 403.5,0 403.5,-19"/>
<text text-anchor="middle" x="374" y="-7" font-family="Helvetica,sans-Serif" font-size="10.00">numbers</text>
</a>
</g>
</g>
<!-- Node2&#45;&gt;Node7 -->
<g id="edge6_Node000002_Node000007" class="edge">
<title>Node2&#45;&gt;Node7</title>
<g id="a_edge6_Node000002_Node000007"><a xlink:title=" ">
<path fill="none" stroke="#63b8ff" d="M285.03,-54.98C301.93,-46.54 328.06,-33.47 347.64,-23.68"/>
<polygon fill="#63b8ff" stroke="#63b8ff" points="349.28,-26.77 356.66,-19.17 346.15,-20.51 349.28,-26.77"/>
</a>
</g>
</g>
<!-- Node9 -->
<g id="Node000009" class="node">
<title>Node9</title>
<g id="a_Node000009"><a xlink:href="hal_8hpp.html" target="_top" xlink:title=" ">
<polygon fill="#fff0f0" stroke="red" points="675.5,-74 622.5,-74 622.5,-55 675.5,-55 675.5,-74"/>
<text text-anchor="middle" x="649" y="-62" font-family="Helvetica,sans-Serif" font-size="10.00">hal.hpp</text>
</a>
</g>
</g>
<!-- Node8&#45;&gt;Node9 -->
<g id="edge8_Node000008_Node000009" class="edge">
<title>Node8&#45;&gt;Node9</title>
<g id="a_edge8_Node000008_Node000009"><a xlink:title=" ">
<path fill="none" stroke="#63b8ff" d="M649,-109.75C649,-102.8 649,-92.85 649,-84.13"/>
<polygon fill="#63b8ff" stroke="#63b8ff" points="652.5,-84.09 649,-74.09 645.5,-84.09 652.5,-84.09"/>
</a>
</g>
</g>
<!-- Node11&#45;&gt;Node8 -->
<g id="edge10_Node000011_Node000008" class="edge">
<title>Node11&#45;&gt;Node8</title>
<g id="a_edge10_Node000011_Node000008"><a xlink:title=" ">
<path fill="none" stroke="#63b8ff" d="M665.2,-170.37C662.5,-162.07 658.35,-149.28 654.92,-138.72"/>
<polygon fill="#63b8ff" stroke="#63b8ff" points="658.23,-137.6 651.82,-129.17 651.58,-139.76 658.23,-137.6"/>
</a>
</g>
</g>
<!-- Node12 -->
<g id="Node000012" class="node">
<title>Node12</title>
<g id="a_Node000012"><a xlink:title=" ">
<polygon fill="#e0e0e0" stroke="#999999" points="775,-129 719,-129 719,-110 775,-110 775,-129"/>
<text text-anchor="middle" x="747" y="-117" font-family="Helvetica,sans-Serif" font-size="10.00">optional</text>
</a>
</g>
</g>
<!-- Node11&#45;&gt;Node12 -->
<g id="edge11_Node000011_Node000012" class="edge">
<title>Node11&#45;&gt;Node12</title>
<g id="a_edge11_Node000011_Node000012"><a xlink:title=" ">
<path fill="none" stroke="#63b8ff" d="M679.66,-170.37C692.14,-161.12 712.18,-146.28 727.16,-135.19"/>
<polygon fill="#63b8ff" stroke="#63b8ff" points="729.34,-137.93 735.3,-129.17 725.18,-132.31 729.34,-137.93"/>
</a>
</g>
</g>
<!-- Node13&#45;&gt;Node2 -->
<g id="edge13_Node000013_Node000002" class="edge">
<title>Node13&#45;&gt;Node2</title>
<g id="a_edge13_Node000013_Node000002"><a xlink:title=" ">
<path fill="none" stroke="#63b8ff" d="M413.3,-170.13C408.46,-155.66 397.02,-126.89 378,-110 359.56,-93.63 334.32,-82.85 312.67,-76"/>
<polygon fill="#63b8ff" stroke="#63b8ff" points="313.6,-72.62 303.02,-73.12 311.6,-79.33 313.6,-72.62"/>
</a>
</g>
</g>
<!-- Node13&#45;&gt;Node4 -->
<g id="edge17_Node000013_Node000004" class="edge">
<title>Node13&#45;&gt;Node4</title>
<g id="a_edge17_Node000013_Node000004"><a xlink:title=" ">
<path fill="none" stroke="#63b8ff" d="M417.58,-170.41C422.37,-144.39 436.79,-65.97 443.5,-29.51"/>
<polygon fill="#63b8ff" stroke="#63b8ff" points="447.02,-29.74 445.39,-19.27 440.13,-28.47 447.02,-29.74"/>
</a>
</g>
</g>
<!-- Node14 -->
<g id="Node000014" class="node">
<title>Node14</title>
<g id="a_Node000014"><a xlink:href="map_8hpp.html" target="_top" xlink:title=" ">
<polygon fill="#fff0f0" stroke="red" points="311,-129 225,-129 225,-110 311,-110 311,-129"/>
<text text-anchor="middle" x="268" y="-117" font-family="Helvetica,sans-Serif" font-size="10.00">../cfg/map.hpp</text>
</a>
</g>
</g>
<!-- Node13&#45;&gt;Node14 -->
<g id="edge14_Node000013_Node000014" class="edge">
<title>Node13&#45;&gt;Node14</title>
<g id="a_edge14_Node000013_Node000014"><a xlink:title=" ">
<path fill="none" stroke="#63b8ff" d="M394.48,-170.49C369.38,-160.57 327.68,-144.09 299.07,-132.78"/>
<polygon fill="#63b8ff" stroke="#63b8ff" points="300.13,-129.44 289.55,-129.02 297.56,-135.95 300.13,-129.44"/>
</a>
</g>
</g>
<!-- Node21 -->
<g id="Node000021" class="node">
<title>Node21</title>
<g id="a_Node000021"><a xlink:href="status_8hpp.html" target="_top" xlink:title=" ">
<polygon fill="#fff0f0" stroke="red" points="540.5,-129 463.5,-129 463.5,-110 540.5,-110 540.5,-129"/>
<text text-anchor="middle" x="502" y="-117" font-family="Helvetica,sans-Serif" font-size="10.00">../status.hpp</text>
</a>
</g>
</g>
<!-- Node13&#45;&gt;Node21 -->
<g id="edge16_Node000013_Node000021" class="edge">
<title>Node13&#45;&gt;Node21</title>
<g id="a_edge16_Node000013_Node000021"><a xlink:title=" ">
<path fill="none" stroke="#63b8ff" d="M428.69,-170.37C442.41,-161.04 464.5,-146.01 480.85,-134.88"/>
<polygon fill="#63b8ff" stroke="#63b8ff" points="482.96,-137.69 489.26,-129.17 479.02,-131.9 482.96,-137.69"/>
</a>
</g>
</g>
<!-- Node24 -->
<g id="Node000024" class="node">
<title>Node24</title>
<g id="a_Node000024"><a xlink:title=" ">
<polygon fill="#e0e0e0" stroke="#999999" points="369,-129 329,-129 329,-110 369,-110 369,-129"/>
<text text-anchor="middle" x="349" y="-117" font-family="Helvetica,sans-Serif" font-size="10.00">span</text>
</a>
</g>
</g>
<!-- Node13&#45;&gt;Node24 -->
<g id="edge18_Node000013_Node000024" class="edge">
<title>Node13&#45;&gt;Node24</title>
<g id="a_edge18_Node000013_Node000024"><a xlink:title=" ">
<path fill="none" stroke="#63b8ff" d="M406.11,-170.37C395.72,-161.3 379.16,-146.84 366.55,-135.82"/>
<polygon fill="#63b8ff" stroke="#63b8ff" points="368.76,-133.11 358.93,-129.17 364.16,-138.38 368.76,-133.11"/>
</a>
</g>
</g>
<!-- Node14&#45;&gt;Node2 -->
<g id="edge15_Node000014_Node000002" class="edge">
<title>Node14&#45;&gt;Node2</title>
<g id="a_edge15_Node000014_Node000002"><a xlink:title=" ">
<path fill="none" stroke="#63b8ff" d="M268,-109.75C268,-102.8 268,-92.85 268,-84.13"/>
<polygon fill="#63b8ff" stroke="#63b8ff" points="271.5,-84.09 268,-74.09 264.5,-84.09 271.5,-84.09"/>
</a>
</g>
</g>
</g>
</svg>
