<?xml version="1.0" encoding="UTF-8" standalone="no"?>
<!DOCTYPE svg PUBLIC "-//W3C//DTD SVG 1.1//EN"
 "http://www.w3.org/Graphics/SVG/1.1/DTD/svg11.dtd">
<!-- Generated by graphviz version 2.43.0 (0)
 -->
<!-- Title: src/fw/drv/leds.hpp Pages: 1 -->
<svg width="786pt" height="207pt"
 viewBox="0.00 0.00 785.50 207.00" xmlns="http://www.w3.org/2000/svg" xmlns:xlink="http://www.w3.org/1999/xlink">
<g id="graph0" class="graph" transform="scale(1 1) rotate(0) translate(4 203)">
<title>src/fw/drv/leds.hpp</title>
<polygon fill="white" stroke="transparent" points="-4,4 -4,-203 781.5,-203 781.5,4 -4,4"/>
<!-- Node1 -->
<g id="node1" class="node">
<title>Node1</title>
<g id="a_node1"><a xlink:title=" ">
<polygon fill="#bfbfbf" stroke="black" points="404,-179.5 404,-198.5 512,-198.5 512,-179.5 404,-179.5"/>
<text text-anchor="middle" x="458" y="-186.5" font-family="Helvetica,sans-Serif" font-size="10.00">src/fw/drv/leds.hpp</text>
</a>
</g>
</g>
<!-- Node2 -->
<g id="node2" class="node">
<title>Node2</title>
<g id="a_node2"><a xlink:href="base_8hpp.html" target="_top" xlink:title=" ">
<polygon fill="white" stroke="black" points="177.5,-56.5 177.5,-75.5 264.5,-75.5 264.5,-56.5 177.5,-56.5"/>
<text text-anchor="middle" x="221" y="-63.5" font-family="Helvetica,sans-Serif" font-size="10.00">base/base.hpp</text>
</a>
</g>
</g>
<!-- Node1&#45;&gt;Node2 -->
<g id="edge1" class="edge">
<title>Node1&#45;&gt;Node2</title>
<path fill="none" stroke="midnightblue" d="M403.72,-183.8C366.12,-178.75 316.33,-167.59 279,-143 256.76,-128.34 239.61,-102.19 229.91,-84.72"/>
<polygon fill="midnightblue" stroke="midnightblue" points="232.84,-82.79 225.07,-75.59 226.66,-86.06 232.84,-82.79"/>
</g>
<!-- Node4 -->
<g id="node4" class="node">
<title>Node4</title>
<g id="a_node4"><a xlink:title=" ">
<polygon fill="white" stroke="#bfbfbf" points="288,-0.5 288,-19.5 338,-19.5 338,-0.5 288,-0.5"/>
<text text-anchor="middle" x="313" y="-7.5" font-family="Helvetica,sans-Serif" font-size="10.00">cstdint</text>
</a>
</g>
</g>
<!-- Node1&#45;&gt;Node4 -->
<g id="edge16" class="edge">
<title>Node1&#45;&gt;Node4</title>
<path fill="none" stroke="midnightblue" d="M403.93,-180.79C379.37,-174.73 352.06,-163.56 335,-143 308.01,-110.47 308.27,-57.51 310.68,-29.59"/>
<polygon fill="midnightblue" stroke="midnightblue" points="314.17,-29.9 311.73,-19.59 307.21,-29.17 314.17,-29.9"/>
</g>
<!-- Node7 -->
<g id="node7" class="node">
<title>Node7</title>
<g id="a_node7"><a xlink:href="drv__interfaces_8hpp.html" target="_top" xlink:title=" ">
<polygon fill="white" stroke="black" points="344,-118 344,-137 478,-137 478,-118 344,-118"/>
<text text-anchor="middle" x="411" y="-125" font-family="Helvetica,sans-Serif" font-size="10.00">base/drv_interfaces.hpp</text>
</a>
</g>
</g>
<!-- Node1&#45;&gt;Node7 -->
<g id="edge6" class="edge">
<title>Node1&#45;&gt;Node7</title>
<path fill="none" stroke="midnightblue" d="M451.27,-179.48C444.22,-170.55 432.97,-156.31 424.15,-145.14"/>
<polygon fill="midnightblue" stroke="midnightblue" points="426.67,-142.69 417.72,-137.01 421.17,-147.03 426.67,-142.69"/>
</g>
<!-- Node11 -->
<g id="node11" class="node">
<title>Node11</title>
<g id="a_node11"><a xlink:href="defs_8hpp.html" target="_top" xlink:title=" ">
<polygon fill="white" stroke="black" points="534,-118 534,-137 626,-137 626,-118 534,-118"/>
<text text-anchor="middle" x="580" y="-125" font-family="Helvetica,sans-Serif" font-size="10.00">fw/drv/defs.hpp</text>
</a>
</g>
</g>
<!-- Node1&#45;&gt;Node11 -->
<g id="edge12" class="edge">
<title>Node1&#45;&gt;Node11</title>
<path fill="none" stroke="midnightblue" d="M475.48,-179.48C495.86,-169.53 529.78,-152.99 553.42,-141.46"/>
<polygon fill="midnightblue" stroke="midnightblue" points="555.1,-144.54 562.55,-137.01 552.03,-138.25 555.1,-144.54"/>
</g>
<!-- Node12 -->
<g id="node12" class="node">
<title>Node12</title>
<g id="a_node12"><a xlink:href="platform_8hpp.html" target="_top" xlink:title=" ">
<polygon fill="white" stroke="red" points="605,-56.5 605,-75.5 685,-75.5 685,-56.5 605,-56.5"/>
<text text-anchor="middle" x="645" y="-63.5" font-family="Helvetica,sans-Serif" font-size="10.00">platform.hpp</text>
</a>
</g>
</g>
<!-- Node1&#45;&gt;Node12 -->
<g id="edge15" class="edge">
<title>Node1&#45;&gt;Node12</title>
<path fill="none" stroke="midnightblue" d="M463.58,-179.23C473.91,-163.64 497.48,-130.97 525,-112 547.36,-96.59 575.68,-85.64 599.19,-78.41"/>
<polygon fill="midnightblue" stroke="midnightblue" points="600.34,-81.72 608.94,-75.53 598.36,-75 600.34,-81.72"/>
</g>
<!-- Node14 -->
<g id="node13" class="node">
<title>Node14</title>
<g id="a_node13"><a xlink:title=" ">
<polygon fill="white" stroke="#bfbfbf" points="644.5,-112.5 644.5,-142.5 777.5,-142.5 777.5,-112.5 644.5,-112.5"/>
<text text-anchor="start" x="652.5" y="-130.5" font-family="Helvetica,sans-Serif" font-size="10.00">emlabcpp/experimental</text>
<text text-anchor="middle" x="711" y="-119.5" font-family="Helvetica,sans-Serif" font-size="10.00">/function_view.h</text>
</a>
</g>
</g>
<!-- Node1&#45;&gt;Node14 -->
<g id="edge17" class="edge">
<title>Node1&#45;&gt;Node14</title>
<path fill="none" stroke="midnightblue" d="M494.25,-179.48C532.52,-170.48 593.78,-156.07 641.43,-144.86"/>
<polygon fill="midnightblue" stroke="midnightblue" points="642.44,-148.22 651.37,-142.52 640.84,-141.41 642.44,-148.22"/>
</g>
<!-- Node3 -->
<g id="node3" class="node">
<title>Node3</title>
<g id="a_node3"><a xlink:title=" ">
<polygon fill="white" stroke="#bfbfbf" points="0,-0.5 0,-19.5 50,-19.5 50,-0.5 0,-0.5"/>
<text text-anchor="middle" x="25" y="-7.5" font-family="Helvetica,sans-Serif" font-size="10.00">chrono</text>
</a>
</g>
</g>
<!-- Node2&#45;&gt;Node3 -->
<g id="edge2" class="edge">
<title>Node2&#45;&gt;Node3</title>
<path fill="none" stroke="midnightblue" d="M189.94,-56.44C154.52,-46.68 96.75,-30.77 59.83,-20.6"/>
<polygon fill="midnightblue" stroke="midnightblue" points="60.57,-17.17 50,-17.89 58.71,-23.92 60.57,-17.17"/>
</g>
<!-- Node2&#45;&gt;Node4 -->
<g id="edge3" class="edge">
<title>Node2&#45;&gt;Node4</title>
<path fill="none" stroke="midnightblue" d="M235.78,-56.32C250.27,-47.82 272.57,-34.73 289.49,-24.8"/>
<polygon fill="midnightblue" stroke="midnightblue" points="291.4,-27.74 298.26,-19.65 287.86,-21.7 291.4,-27.74"/>
</g>
<!-- Node5 -->
<g id="node5" class="node">
<title>Node5</title>
<g id="a_node5"><a xlink:title=" ">
<polygon fill="white" stroke="#bfbfbf" points="68,-0.5 68,-19.5 192,-19.5 192,-0.5 68,-0.5"/>
<text text-anchor="middle" x="130" y="-7.5" font-family="Helvetica,sans-Serif" font-size="10.00">emlabcpp/algorithm.h</text>
</a>
</g>
</g>
<!-- Node2&#45;&gt;Node5 -->
<g id="edge4" class="edge">
<title>Node2&#45;&gt;Node5</title>
<path fill="none" stroke="midnightblue" d="M206.38,-56.32C192.05,-47.82 169.99,-34.73 153.25,-24.8"/>
<polygon fill="midnightblue" stroke="midnightblue" points="154.97,-21.75 144.58,-19.65 151.4,-27.77 154.97,-21.75"/>
</g>
<!-- Node6 -->
<g id="node6" class="node">
<title>Node6</title>
<g id="a_node6"><a xlink:title=" ">
<polygon fill="white" stroke="#bfbfbf" points="210.5,-0.5 210.5,-19.5 269.5,-19.5 269.5,-0.5 210.5,-0.5"/>
<text text-anchor="middle" x="240" y="-7.5" font-family="Helvetica,sans-Serif" font-size="10.00">numbers</text>
</a>
</g>
</g>
<!-- Node2&#45;&gt;Node6 -->
<g id="edge5" class="edge">
<title>Node2&#45;&gt;Node6</title>
<path fill="none" stroke="midnightblue" d="M224.14,-56.08C226.68,-48.85 230.36,-38.41 233.53,-29.4"/>
<polygon fill="midnightblue" stroke="midnightblue" points="236.9,-30.35 236.92,-19.75 230.3,-28.02 236.9,-30.35"/>
</g>
<!-- Node7&#45;&gt;Node2 -->
<g id="edge7" class="edge">
<title>Node7&#45;&gt;Node2</title>
<path fill="none" stroke="midnightblue" d="M383.78,-117.98C350.76,-107.64 294.96,-90.16 258.05,-78.6"/>
<polygon fill="midnightblue" stroke="midnightblue" points="258.76,-75.16 248.17,-75.51 256.67,-81.84 258.76,-75.16"/>
</g>
<!-- Node7&#45;&gt;Node4 -->
<g id="edge9" class="edge">
<title>Node7&#45;&gt;Node4</title>
<path fill="none" stroke="midnightblue" d="M398.16,-117.97C384.94,-108.75 364.32,-93.06 350,-76 337.89,-61.58 327.63,-42.63 321,-28.92"/>
<polygon fill="midnightblue" stroke="midnightblue" points="324.07,-27.21 316.68,-19.62 317.72,-30.16 324.07,-27.21"/>
</g>
<!-- Node8 -->
<g id="node8" class="node">
<title>Node8</title>
<g id="a_node8"><a xlink:href="status_8hpp.html" target="_top" xlink:title=" ">
<polygon fill="white" stroke="black" points="481,-56.5 481,-75.5 549,-75.5 549,-56.5 481,-56.5"/>
<text text-anchor="middle" x="515" y="-63.5" font-family="Helvetica,sans-Serif" font-size="10.00">status.hpp</text>
</a>
</g>
</g>
<!-- Node7&#45;&gt;Node8 -->
<g id="edge8" class="edge">
<title>Node7&#45;&gt;Node8</title>
<path fill="none" stroke="midnightblue" d="M425.9,-117.98C442.97,-108.21 471.16,-92.08 491.26,-80.58"/>
<polygon fill="midnightblue" stroke="midnightblue" points="493.19,-83.51 500.13,-75.51 489.71,-77.44 493.19,-83.51"/>
</g>
<!-- Node9 -->
<g id="node9" class="node">
<title>Node9</title>
<g id="a_node9"><a xlink:title=" ">
<polygon fill="white" stroke="#bfbfbf" points="359,-56.5 359,-75.5 463,-75.5 463,-56.5 359,-56.5"/>
<text text-anchor="middle" x="411" y="-63.5" font-family="Helvetica,sans-Serif" font-size="10.00">emlabcpp/result.h</text>
</a>
</g>
</g>
<!-- Node7&#45;&gt;Node9 -->
<g id="edge10" class="edge">
<title>Node7&#45;&gt;Node9</title>
<path fill="none" stroke="midnightblue" d="M411,-117.98C411,-109.58 411,-96.48 411,-85.66"/>
<polygon fill="midnightblue" stroke="midnightblue" points="414.5,-85.51 411,-75.51 407.5,-85.51 414.5,-85.51"/>
</g>
<!-- Node10 -->
<g id="node10" class="node">
<title>Node10</title>
<g id="a_node10"><a xlink:title=" ">
<polygon fill="white" stroke="#bfbfbf" points="591,-0.5 591,-19.5 631,-19.5 631,-0.5 591,-0.5"/>
<text text-anchor="middle" x="611" y="-7.5" font-family="Helvetica,sans-Serif" font-size="10.00">span</text>
</a>
</g>
</g>
<!-- Node7&#45;&gt;Node10 -->
<g id="edge11" class="edge">
<title>Node7&#45;&gt;Node10</title>
<path fill="none" stroke="midnightblue" d="M455.77,-117.94C486.54,-110.5 527.23,-97.45 558,-76 576.03,-63.43 591.22,-43.09 600.66,-28.51"/>
<polygon fill="midnightblue" stroke="midnightblue" points="603.7,-30.24 606,-19.9 597.75,-26.55 603.7,-30.24"/>
</g>
<!-- Node11&#45;&gt;Node12 -->
<g id="edge13" class="edge">
<title>Node11&#45;&gt;Node12</title>
<path fill="none" stroke="midnightblue" d="M589.31,-117.98C599.45,-108.7 615.86,-93.67 628.25,-82.33"/>
<polygon fill="midnightblue" stroke="midnightblue" points="630.69,-84.84 635.7,-75.51 625.96,-79.68 630.69,-84.84"/>
</g>
<!-- Node12&#45;&gt;Node10 -->
<g id="edge14" class="edge">
<title>Node12&#45;&gt;Node10</title>
<path fill="none" stroke="midnightblue" d="M639.39,-56.08C634.63,-48.53 627.68,-37.49 621.85,-28.23"/>
<polygon fill="midnightblue" stroke="midnightblue" points="624.8,-26.35 616.51,-19.75 618.88,-30.08 624.8,-26.35"/>
</g>
</g>
</svg>
