<?xml version="1.0" encoding="UTF-8" standalone="no"?>
<!DOCTYPE svg PUBLIC "-//W3C//DTD SVG 1.1//EN"
 "http://www.w3.org/Graphics/SVG/1.1/DTD/svg11.dtd">
<!-- Generated by graphviz version 2.43.0 (0)
 -->
<!-- Title: src/drv/leds.hpp Pages: 1 -->
<svg width="857pt" height="258pt"
 viewBox="0.00 0.00 856.50 258.00" xmlns="http://www.w3.org/2000/svg" xmlns:xlink="http://www.w3.org/1999/xlink">
<g id="graph0" class="graph" transform="scale(1 1) rotate(0) translate(4 254)">
<title>src/drv/leds.hpp</title>
<!-- Node1 -->
<g id="Node000001" class="node">
<title>Node1</title>
<g id="a_Node000001"><a xlink:title=" ">
<polygon fill="#999999" stroke="#666666" points="632,-250 538,-250 538,-231 632,-231 632,-250"/>
<text text-anchor="middle" x="585" y="-238" font-family="Helvetica,sans-Serif" font-size="10.00">src/drv/leds.hpp</text>
</a>
</g>
</g>
<!-- Node2 -->
<g id="Node000002" class="node">
<title>Node2</title>
<g id="a_Node000002"><a xlink:href="base_8hpp.html" target="_top" xlink:title=" ">
<polygon fill="white" stroke="#666666" points="303,-74 233,-74 233,-55 303,-55 303,-74"/>
<text text-anchor="middle" x="268" y="-62" font-family="Helvetica,sans-Serif" font-size="10.00">../base.hpp</text>
</a>
</g>
</g>
<!-- Node1&#45;&gt;Node2 -->
<g id="edge1_Node000001_Node000002" class="edge">
<title>Node1&#45;&gt;Node2</title>
<g id="a_edge1_Node000001_Node000002"><a xlink:title=" ">
<path fill="none" stroke="#63b8ff" d="M537.75,-232.88C446.84,-219 253.49,-183.56 219,-129 207.75,-111.2 226.89,-92.27 244.45,-79.75"/>
<polygon fill="#63b8ff" stroke="#63b8ff" points="246.44,-82.63 252.8,-74.16 242.54,-76.82 246.44,-82.63"/>
</a>
</g>
</g>
<!-- Node4 -->
<g id="Node000004" class="node">
<title>Node4</title>
<g id="a_Node000004"><a xlink:title=" ">
<polygon fill="#e0e0e0" stroke="#999999" points="472,-19 422,-19 422,0 472,0 472,-19"/>
<text text-anchor="middle" x="447" y="-7" font-family="Helvetica,sans-Serif" font-size="10.00">cstdint</text>
</a>
</g>
</g>
<!-- Node1&#45;&gt;Node4 -->
<g id="edge19_Node000001_Node000004" class="edge">
<title>Node1&#45;&gt;Node4</title>
<g id="a_edge19_Node000001_Node000004"><a xlink:title=" ">
<path fill="none" stroke="#63b8ff" d="M583.86,-230.73C580.73,-208.95 570.53,-151.14 546,-110 525.07,-74.89 489.06,-43.08 466.73,-25.31"/>
<polygon fill="#63b8ff" stroke="#63b8ff" points="468.66,-22.38 458.62,-19 464.36,-27.9 468.66,-22.38"/>
</a>
</g>
</g>
<!-- Node8 -->
<g id="Node000008" class="node">
<title>Node8</title>
<g id="a_Node000008"><a xlink:href="platform_8hpp.html" target="_top" xlink:title=" ">
<polygon fill="white" stroke="#666666" points="698,-129 594,-129 594,-110 698,-110 698,-129"/>
<text text-anchor="middle" x="646" y="-117" font-family="Helvetica,sans-Serif" font-size="10.00">../plt/platform.hpp</text>
</a>
</g>
</g>
<!-- Node1&#45;&gt;Node8 -->
<g id="edge7_Node000001_Node000008" class="edge">
<title>Node1&#45;&gt;Node8</title>
<g id="a_edge7_Node000001_Node000008"><a xlink:title=" ">
<path fill="none" stroke="#63b8ff" d="M589.43,-230.78C596.51,-216.86 610.8,-188.77 623,-165 627.57,-156.09 632.69,-146.19 636.93,-137.99"/>
<polygon fill="#63b8ff" stroke="#63b8ff" points="640.09,-139.51 641.58,-129.02 633.87,-136.29 640.09,-139.51"/>
</a>
</g>
</g>
<!-- Node11 -->
<g id="Node000011" class="node">
<title>Node11</title>
<g id="a_Node000011"><a xlink:href="defs_8hpp.html" target="_top" xlink:title=" ">
<polygon fill="white" stroke="#666666" points="697.5,-189.5 632.5,-189.5 632.5,-170.5 697.5,-170.5 697.5,-189.5"/>
<text text-anchor="middle" x="665" y="-177.5" font-family="Helvetica,sans-Serif" font-size="10.00">./defs.hpp</text>
</a>
</g>
</g>
<!-- Node1&#45;&gt;Node11 -->
<g id="edge9_Node000001_Node000011" class="edge">
<title>Node1&#45;&gt;Node11</title>
<g id="a_edge9_Node000001_Node000011"><a xlink:title=" ">
<path fill="none" stroke="#63b8ff" d="M596.8,-230.87C609.45,-221.62 629.74,-206.78 644.91,-195.69"/>
<polygon fill="#63b8ff" stroke="#63b8ff" points="647.14,-198.4 653.15,-189.67 643.01,-192.74 647.14,-198.4"/>
</a>
</g>
</g>
<!-- Node13 -->
<g id="Node000013" class="node">
<title>Node13</title>
<g id="a_Node000013"><a xlink:href="interfaces_8hpp.html" target="_top" xlink:title=" ">
<polygon fill="white" stroke="#666666" points="459,-189.5 367,-189.5 367,-170.5 459,-170.5 459,-189.5"/>
<text text-anchor="middle" x="413" y="-177.5" font-family="Helvetica,sans-Serif" font-size="10.00">./interfaces.hpp</text>
</a>
</g>
</g>
<!-- Node1&#45;&gt;Node13 -->
<g id="edge12_Node000001_Node000013" class="edge">
<title>Node1&#45;&gt;Node13</title>
<g id="a_edge12_Node000001_Node000013"><a xlink:title=" ">
<path fill="none" stroke="#63b8ff" d="M559.99,-230.99C530.44,-220.94 481.09,-204.16 447.81,-192.84"/>
<polygon fill="#63b8ff" stroke="#63b8ff" points="448.63,-189.42 438.04,-189.52 446.38,-196.05 448.63,-189.42"/>
</a>
</g>
</g>
<!-- Node21 -->
<g id="Node000021" class="node">
<title>Node21</title>
<g id="a_Node000021"><a xlink:title=" ">
<polygon fill="#e0e0e0" stroke="#999999" points="848.5,-195 715.5,-195 715.5,-165 848.5,-165 848.5,-195"/>
<text text-anchor="start" x="723.5" y="-183" font-family="Helvetica,sans-Serif" font-size="10.00">emlabcpp/experimental</text>
<text text-anchor="middle" x="782" y="-172" font-family="Helvetica,sans-Serif" font-size="10.00">/function_view.h</text>
</a>
</g>
</g>
<!-- Node1&#45;&gt;Node21 -->
<g id="edge20_Node000001_Node000021" class="edge">
<title>Node1&#45;&gt;Node21</title>
<g id="a_edge20_Node000001_Node000021"><a xlink:title=" ">
<path fill="none" stroke="#63b8ff" d="M613.65,-230.99C642.62,-222.39 688.2,-208.86 724.63,-198.04"/>
<polygon fill="#63b8ff" stroke="#63b8ff" points="726.05,-201.27 734.64,-195.06 724.06,-194.56 726.05,-201.27"/>
</a>
</g>
</g>
<!-- Node3 -->
<g id="Node000003" class="node">
<title>Node3</title>
<g id="a_Node000003"><a xlink:title=" ">
<polygon fill="#e0e0e0" stroke="#999999" points="50,-19 0,-19 0,0 50,0 50,-19"/>
<text text-anchor="middle" x="25" y="-7" font-family="Helvetica,sans-Serif" font-size="10.00">chrono</text>
</a>
</g>
</g>
<!-- Node2&#45;&gt;Node3 -->
<g id="edge2_Node000002_Node000003" class="edge">
<title>Node2&#45;&gt;Node3</title>
<g id="a_edge2_Node000002_Node000003"><a xlink:title=" ">
<path fill="none" stroke="#63b8ff" d="M232.79,-56.4C193.13,-48.31 126.52,-34.47 60.03,-19.18"/>
<polygon fill="#63b8ff" stroke="#63b8ff" points="60.76,-15.75 50.23,-16.91 59.18,-22.57 60.76,-15.75"/>
</a>
</g>
</g>
<!-- Node2&#45;&gt;Node4 -->
<g id="edge3_Node000002_Node000004" class="edge">
<title>Node2&#45;&gt;Node4</title>
<g id="a_edge3_Node000002_Node000004"><a xlink:title=" ">
<path fill="none" stroke="#63b8ff" d="M296.76,-54.98C328.11,-45.7 378.27,-30.85 411.91,-20.89"/>
<polygon fill="#63b8ff" stroke="#63b8ff" points="413.19,-24.16 421.78,-17.97 411.2,-17.45 413.19,-24.16"/>
</a>
</g>
</g>
<!-- Node5 -->
<g id="Node000005" class="node">
<title>Node5</title>
<g id="a_Node000005"><a xlink:title=" ">
<polygon fill="#e0e0e0" stroke="#999999" points="192,-19 68,-19 68,0 192,0 192,-19"/>
<text text-anchor="middle" x="130" y="-7" font-family="Helvetica,sans-Serif" font-size="10.00">emlabcpp/algorithm.h</text>
</a>
</g>
</g>
<!-- Node2&#45;&gt;Node5 -->
<g id="edge4_Node000002_Node000005" class="edge">
<title>Node2&#45;&gt;Node5</title>
<g id="a_edge4_Node000002_Node000005"><a xlink:title=" ">
<path fill="none" stroke="#63b8ff" d="M245.83,-54.98C223.23,-46.3 187.94,-32.75 162.25,-22.88"/>
<polygon fill="#63b8ff" stroke="#63b8ff" points="163.17,-19.49 152.58,-19.17 160.66,-26.02 163.17,-19.49"/>
</a>
</g>
</g>
<!-- Node6 -->
<g id="Node000006" class="node">
<title>Node6</title>
<g id="a_Node000006"><a xlink:title=" ">
<polygon fill="#e0e0e0" stroke="#999999" points="326,-19 210,-19 210,0 326,0 326,-19"/>
<text text-anchor="middle" x="268" y="-7" font-family="Helvetica,sans-Serif" font-size="10.00">emlabcpp/quantity.h</text>
</a>
</g>
</g>
<!-- Node2&#45;&gt;Node6 -->
<g id="edge5_Node000002_Node000006" class="edge">
<title>Node2&#45;&gt;Node6</title>
<g id="a_edge5_Node000002_Node000006"><a xlink:title=" ">
<path fill="none" stroke="#63b8ff" d="M268,-54.75C268,-47.8 268,-37.85 268,-29.13"/>
<polygon fill="#63b8ff" stroke="#63b8ff" points="271.5,-29.09 268,-19.09 264.5,-29.09 271.5,-29.09"/>
</a>
</g>
</g>
<!-- Node7 -->
<g id="Node000007" class="node">
<title>Node7</title>
<g id="a_Node000007"><a xlink:title=" ">
<polygon fill="#e0e0e0" stroke="#999999" points="403.5,-19 344.5,-19 344.5,0 403.5,0 403.5,-19"/>
<text text-anchor="middle" x="374" y="-7" font-family="Helvetica,sans-Serif" font-size="10.00">numbers</text>
</a>
</g>
</g>
<!-- Node2&#45;&gt;Node7 -->
<g id="edge6_Node000002_Node000007" class="edge">
<title>Node2&#45;&gt;Node7</title>
<g id="a_edge6_Node000002_Node000007"><a xlink:title=" ">
<path fill="none" stroke="#63b8ff" d="M285.03,-54.98C301.93,-46.54 328.06,-33.47 347.64,-23.68"/>
<polygon fill="#63b8ff" stroke="#63b8ff" points="349.28,-26.77 356.66,-19.17 346.15,-20.51 349.28,-26.77"/>
</a>
</g>
</g>
<!-- Node9 -->
<g id="Node000009" class="node">
<title>Node9</title>
<g id="a_Node000009"><a xlink:href="hal_8hpp.html" target="_top" xlink:title=" ">
<polygon fill="#fff0f0" stroke="red" points="672.5,-74 619.5,-74 619.5,-55 672.5,-55 672.5,-74"/>
<text text-anchor="middle" x="646" y="-62" font-family="Helvetica,sans-Serif" font-size="10.00">hal.hpp</text>
</a>
</g>
</g>
<!-- Node8&#45;&gt;Node9 -->
<g id="edge8_Node000008_Node000009" class="edge">
<title>Node8&#45;&gt;Node9</title>
<g id="a_edge8_Node000008_Node000009"><a xlink:title=" ">
<path fill="none" stroke="#63b8ff" d="M646,-109.75C646,-102.8 646,-92.85 646,-84.13"/>
<polygon fill="#63b8ff" stroke="#63b8ff" points="649.5,-84.09 646,-74.09 642.5,-84.09 649.5,-84.09"/>
</a>
</g>
</g>
<!-- Node11&#45;&gt;Node8 -->
<g id="edge10_Node000011_Node000008" class="edge">
<title>Node11&#45;&gt;Node8</title>
<g id="a_edge10_Node000011_Node000008"><a xlink:title=" ">
<path fill="none" stroke="#63b8ff" d="M662.2,-170.37C659.5,-162.07 655.35,-149.28 651.92,-138.72"/>
<polygon fill="#63b8ff" stroke="#63b8ff" points="655.23,-137.6 648.82,-129.17 648.58,-139.76 655.23,-137.6"/>
</a>
</g>
</g>
<!-- Node12 -->
<g id="Node000012" class="node">
<title>Node12</title>
<g id="a_Node000012"><a xlink:title=" ">
<polygon fill="#e0e0e0" stroke="#999999" points="772,-129 716,-129 716,-110 772,-110 772,-129"/>
<text text-anchor="middle" x="744" y="-117" font-family="Helvetica,sans-Serif" font-size="10.00">optional</text>
</a>
</g>
</g>
<!-- Node11&#45;&gt;Node12 -->
<g id="edge11_Node000011_Node000012" class="edge">
<title>Node11&#45;&gt;Node12</title>
<g id="a_edge11_Node000011_Node000012"><a xlink:title=" ">
<path fill="none" stroke="#63b8ff" d="M676.66,-170.37C689.14,-161.12 709.18,-146.28 724.16,-135.19"/>
<polygon fill="#63b8ff" stroke="#63b8ff" points="726.34,-137.93 732.3,-129.17 722.18,-132.31 726.34,-137.93"/>
</a>
</g>
</g>
<!-- Node13&#45;&gt;Node2 -->
<g id="edge13_Node000013_Node000002" class="edge">
<title>Node13&#45;&gt;Node2</title>
<g id="a_edge13_Node000013_Node000002"><a xlink:title=" ">
<path fill="none" stroke="#63b8ff" d="M410.28,-170.15C405.42,-155.71 393.94,-126.98 375,-110 357.41,-94.23 333.45,-83.57 312.66,-76.64"/>
<polygon fill="#63b8ff" stroke="#63b8ff" points="313.65,-73.29 303.06,-73.63 311.55,-79.96 313.65,-73.29"/>
</a>
</g>
</g>
<!-- Node13&#45;&gt;Node4 -->
<g id="edge17_Node000013_Node000004" class="edge">
<title>Node13&#45;&gt;Node4</title>
<g id="a_edge17_Node000013_Node000004"><a xlink:title=" ">
<path fill="none" stroke="#63b8ff" d="M414.73,-170.41C419.98,-144.39 435.81,-65.97 443.16,-29.51"/>
<polygon fill="#63b8ff" stroke="#63b8ff" points="446.68,-29.77 445.23,-19.27 439.82,-28.38 446.68,-29.77"/>
</a>
</g>
</g>
<!-- Node14 -->
<g id="Node000014" class="node">
<title>Node14</title>
<g id="a_Node000014"><a xlink:href="cfg_2def_8hpp.html" target="_top" xlink:title=" ">
<polygon fill="#fff0f0" stroke="red" points="308,-129 228,-129 228,-110 308,-110 308,-129"/>
<text text-anchor="middle" x="268" y="-117" font-family="Helvetica,sans-Serif" font-size="10.00">../cfg/def.hpp</text>
</a>
</g>
</g>
<!-- Node13&#45;&gt;Node14 -->
<g id="edge14_Node000013_Node000014" class="edge">
<title>Node13&#45;&gt;Node14</title>
<g id="a_edge14_Node000013_Node000014"><a xlink:title=" ">
<path fill="none" stroke="#63b8ff" d="M391.92,-170.49C367.32,-160.57 326.47,-144.09 298.44,-132.78"/>
<polygon fill="#63b8ff" stroke="#63b8ff" points="299.69,-129.51 289.11,-129.02 297.07,-136 299.69,-129.51"/>
</a>
</g>
</g>
<!-- Node17 -->
<g id="Node000017" class="node">
<title>Node17</title>
<g id="a_Node000017"><a xlink:href="status_8hpp.html" target="_top" xlink:title=" ">
<polygon fill="#fff0f0" stroke="red" points="537.5,-129 460.5,-129 460.5,-110 537.5,-110 537.5,-129"/>
<text text-anchor="middle" x="499" y="-117" font-family="Helvetica,sans-Serif" font-size="10.00">../status.hpp</text>
</a>
</g>
</g>
<!-- Node13&#45;&gt;Node17 -->
<g id="edge16_Node000013_Node000017" class="edge">
<title>Node13&#45;&gt;Node17</title>
<g id="a_edge16_Node000013_Node000017"><a xlink:title=" ">
<path fill="none" stroke="#63b8ff" d="M425.69,-170.37C439.41,-161.04 461.5,-146.01 477.85,-134.88"/>
<polygon fill="#63b8ff" stroke="#63b8ff" points="479.96,-137.69 486.26,-129.17 476.02,-131.9 479.96,-137.69"/>
</a>
</g>
</g>
<!-- Node20 -->
<g id="Node000020" class="node">
<title>Node20</title>
<g id="a_Node000020"><a xlink:title=" ">
<polygon fill="#e0e0e0" stroke="#999999" points="366,-129 326,-129 326,-110 366,-110 366,-129"/>
<text text-anchor="middle" x="346" y="-117" font-family="Helvetica,sans-Serif" font-size="10.00">span</text>
</a>
</g>
</g>
<!-- Node13&#45;&gt;Node20 -->
<g id="edge18_Node000013_Node000020" class="edge">
<title>Node13&#45;&gt;Node20</title>
<g id="a_edge18_Node000013_Node000020"><a xlink:title=" ">
<path fill="none" stroke="#63b8ff" d="M403.11,-170.37C392.72,-161.3 376.16,-146.84 363.55,-135.82"/>
<polygon fill="#63b8ff" stroke="#63b8ff" points="365.76,-133.11 355.93,-129.17 361.16,-138.38 365.76,-133.11"/>
</a>
</g>
</g>
<!-- Node14&#45;&gt;Node2 -->
<g id="edge15_Node000014_Node000002" class="edge">
<title>Node14&#45;&gt;Node2</title>
<g id="a_edge15_Node000014_Node000002"><a xlink:title=" ">
<path fill="none" stroke="#63b8ff" d="M268,-109.75C268,-102.8 268,-92.85 268,-84.13"/>
<polygon fill="#63b8ff" stroke="#63b8ff" points="271.5,-84.09 268,-74.09 264.5,-84.09 271.5,-84.09"/>
</a>
</g>
</g>
</g>
</svg>
