<?xml version="1.0" encoding="UTF-8" standalone="no"?>
<!DOCTYPE svg PUBLIC "-//W3C//DTD SVG 1.1//EN"
 "http://www.w3.org/Graphics/SVG/1.1/DTD/svg11.dtd">
<!-- Generated by graphviz version 2.43.0 (0)
 -->
<!-- Title: src/ctl/linear_transition_regulator.hpp Pages: 1 -->
<svg width="480pt" height="148pt"
 viewBox="0.00 0.00 479.50 148.00" xmlns="http://www.w3.org/2000/svg" xmlns:xlink="http://www.w3.org/1999/xlink">
<g id="graph0" class="graph" transform="scale(1 1) rotate(0) translate(4 144)">
<title>src/ctl/linear_transition_regulator.hpp</title>
<!-- Node1 -->
<g id="Node000001" class="node">
<title>Node1</title>
<g id="a_Node000001"><a xlink:title=" ">
<polygon fill="#999999" stroke="#666666" points="311,-140 183,-140 183,-110 311,-110 311,-140"/>
<text text-anchor="start" x="191" y="-128" font-family="Helvetica,sans-Serif" font-size="10.00">src/ctl/linear_transition</text>
<text text-anchor="middle" x="247" y="-117" font-family="Helvetica,sans-Serif" font-size="10.00">_regulator.hpp</text>
</a>
</g>
</g>
<!-- Node2 -->
<g id="Node000002" class="node">
<title>Node2</title>
<g id="a_Node000002"><a xlink:href="base_2base_8hpp.html" target="_top" xlink:title=" ">
<polygon fill="white" stroke="#666666" points="246,-74 150,-74 150,-55 246,-55 246,-74"/>
<text text-anchor="middle" x="198" y="-62" font-family="Helvetica,sans-Serif" font-size="10.00">../base/base.hpp</text>
</a>
</g>
</g>
<!-- Node1&#45;&gt;Node2 -->
<g id="edge1_Node000001_Node000002" class="edge">
<title>Node1&#45;&gt;Node2</title>
<g id="a_edge1_Node000001_Node000002"><a xlink:title=" ">
<path fill="none" stroke="#63b8ff" d="M235.14,-109.84C228.1,-101.43 219.14,-90.74 211.79,-81.96"/>
<polygon fill="#63b8ff" stroke="#63b8ff" points="214.45,-79.68 205.34,-74.27 209.08,-84.18 214.45,-79.68"/>
</a>
</g>
</g>
<!-- Node8 -->
<g id="Node000008" class="node">
<title>Node8</title>
<g id="a_Node000008"><a xlink:title=" ">
<polygon fill="#e0e0e0" stroke="#999999" points="328,-74 264,-74 264,-55 328,-55 328,-74"/>
<text text-anchor="middle" x="296" y="-62" font-family="Helvetica,sans-Serif" font-size="10.00">algorithm</text>
</a>
</g>
</g>
<!-- Node1&#45;&gt;Node8 -->
<g id="edge7_Node000001_Node000008" class="edge">
<title>Node1&#45;&gt;Node8</title>
<g id="a_edge7_Node000001_Node000008"><a xlink:title=" ">
<path fill="none" stroke="#63b8ff" d="M258.86,-109.84C265.9,-101.43 274.86,-90.74 282.21,-81.96"/>
<polygon fill="#63b8ff" stroke="#63b8ff" points="284.92,-84.18 288.66,-74.27 279.55,-79.68 284.92,-84.18"/>
</a>
</g>
</g>
<!-- Node3 -->
<g id="Node000003" class="node">
<title>Node3</title>
<g id="a_Node000003"><a xlink:title=" ">
<polygon fill="#e0e0e0" stroke="#999999" points="50,-19 0,-19 0,0 50,0 50,-19"/>
<text text-anchor="middle" x="25" y="-7" font-family="Helvetica,sans-Serif" font-size="10.00">chrono</text>
</a>
</g>
</g>
<!-- Node2&#45;&gt;Node3 -->
<g id="edge2_Node000002_Node000003" class="edge">
<title>Node2&#45;&gt;Node3</title>
<g id="a_edge2_Node000002_Node000003"><a xlink:title=" ">
<path fill="none" stroke="#63b8ff" d="M170.2,-54.98C140.3,-45.82 92.66,-31.23 60.17,-21.27"/>
<polygon fill="#63b8ff" stroke="#63b8ff" points="60.78,-17.8 50.19,-18.22 58.73,-24.49 60.78,-17.8"/>
</a>
</g>
</g>
<!-- Node4 -->
<g id="Node000004" class="node">
<title>Node4</title>
<g id="a_Node000004"><a xlink:title=" ">
<polygon fill="#e0e0e0" stroke="#999999" points="118,-19 68,-19 68,0 118,0 118,-19"/>
<text text-anchor="middle" x="93" y="-7" font-family="Helvetica,sans-Serif" font-size="10.00">cstdint</text>
</a>
</g>
</g>
<!-- Node2&#45;&gt;Node4 -->
<g id="edge3_Node000002_Node000004" class="edge">
<title>Node2&#45;&gt;Node4</title>
<g id="a_edge3_Node000002_Node000004"><a xlink:title=" ">
<path fill="none" stroke="#63b8ff" d="M181.13,-54.98C164.39,-46.54 138.5,-33.47 119.11,-23.68"/>
<polygon fill="#63b8ff" stroke="#63b8ff" points="120.68,-20.55 110.18,-19.17 117.53,-26.8 120.68,-20.55"/>
</a>
</g>
</g>
<!-- Node5 -->
<g id="Node000005" class="node">
<title>Node5</title>
<g id="a_Node000005"><a xlink:title=" ">
<polygon fill="#e0e0e0" stroke="#999999" points="260,-19 136,-19 136,0 260,0 260,-19"/>
<text text-anchor="middle" x="198" y="-7" font-family="Helvetica,sans-Serif" font-size="10.00">emlabcpp/algorithm.h</text>
</a>
</g>
</g>
<!-- Node2&#45;&gt;Node5 -->
<g id="edge4_Node000002_Node000005" class="edge">
<title>Node2&#45;&gt;Node5</title>
<g id="a_edge4_Node000002_Node000005"><a xlink:title=" ">
<path fill="none" stroke="#63b8ff" d="M198,-54.75C198,-47.8 198,-37.85 198,-29.13"/>
<polygon fill="#63b8ff" stroke="#63b8ff" points="201.5,-29.09 198,-19.09 194.5,-29.09 201.5,-29.09"/>
</a>
</g>
</g>
<!-- Node6 -->
<g id="Node000006" class="node">
<title>Node6</title>
<g id="a_Node000006"><a xlink:title=" ">
<polygon fill="#e0e0e0" stroke="#999999" points="394,-19 278,-19 278,0 394,0 394,-19"/>
<text text-anchor="middle" x="336" y="-7" font-family="Helvetica,sans-Serif" font-size="10.00">emlabcpp/quantity.h</text>
</a>
</g>
</g>
<!-- Node2&#45;&gt;Node6 -->
<g id="edge5_Node000002_Node000006" class="edge">
<title>Node2&#45;&gt;Node6</title>
<g id="a_edge5_Node000002_Node000006"><a xlink:title=" ">
<path fill="none" stroke="#63b8ff" d="M220.17,-54.98C242.77,-46.3 278.06,-32.75 303.75,-22.88"/>
<polygon fill="#63b8ff" stroke="#63b8ff" points="305.34,-26.02 313.42,-19.17 302.83,-19.49 305.34,-26.02"/>
</a>
</g>
</g>
<!-- Node7 -->
<g id="Node000007" class="node">
<title>Node7</title>
<g id="a_Node000007"><a xlink:title=" ">
<polygon fill="#e0e0e0" stroke="#999999" points="471.5,-19 412.5,-19 412.5,0 471.5,0 471.5,-19"/>
<text text-anchor="middle" x="442" y="-7" font-family="Helvetica,sans-Serif" font-size="10.00">numbers</text>
</a>
</g>
</g>
<!-- Node2&#45;&gt;Node7 -->
<g id="edge6_Node000002_Node000007" class="edge">
<title>Node2&#45;&gt;Node7</title>
<g id="a_edge6_Node000002_Node000007"><a xlink:title=" ">
<path fill="none" stroke="#63b8ff" d="M237.3,-54.98C276.55,-46.47 338.89,-32.94 402.4,-19.13"/>
<polygon fill="#63b8ff" stroke="#63b8ff" points="403.16,-22.55 412.19,-17 401.67,-15.71 403.16,-22.55"/>
</a>
</g>
</g>
</g>
</svg>
