<?xml version="1.0" encoding="UTF-8" standalone="no"?>
<!DOCTYPE svg PUBLIC "-//W3C//DTD SVG 1.1//EN"
 "http://www.w3.org/Graphics/SVG/1.1/DTD/svg11.dtd">
<!-- Generated by graphviz version 2.43.0 (0)
 -->
<!-- Title: src/ctl/linear_transition_regulator.hpp Pages: 1 -->
<svg width="346pt" height="151pt"
 viewBox="0.00 0.00 345.50 151.00" xmlns="http://www.w3.org/2000/svg" xmlns:xlink="http://www.w3.org/1999/xlink">
<g id="graph0" class="graph" transform="scale(1 1) rotate(0) translate(4 147)">
<title>src/ctl/linear_transition_regulator.hpp</title>
<polygon fill="white" stroke="transparent" points="-4,4 -4,-147 341.5,-147 341.5,4 -4,4"/>
<!-- Node1 -->
<g id="node1" class="node">
<title>Node1</title>
<g id="a_node1"><a xlink:title=" ">
<polygon fill="#bfbfbf" stroke="black" points="128,-112.5 128,-142.5 256,-142.5 256,-112.5 128,-112.5"/>
<text text-anchor="start" x="136" y="-130.5" font-family="Helvetica,sans-Serif" font-size="10.00">src/ctl/linear_transition</text>
<text text-anchor="middle" x="192" y="-119.5" font-family="Helvetica,sans-Serif" font-size="10.00">_regulator.hpp</text>
</a>
</g>
</g>
<!-- Node2 -->
<g id="node2" class="node">
<title>Node2</title>
<g id="a_node2"><a xlink:href="base_8hpp.html" target="_top" xlink:title=" ">
<polygon fill="white" stroke="black" points="101.5,-56.5 101.5,-75.5 188.5,-75.5 188.5,-56.5 101.5,-56.5"/>
<text text-anchor="middle" x="145" y="-63.5" font-family="Helvetica,sans-Serif" font-size="10.00">base/base.hpp</text>
</a>
</g>
</g>
<!-- Node1&#45;&gt;Node2 -->
<g id="edge1" class="edge">
<title>Node1&#45;&gt;Node2</title>
<path fill="none" stroke="midnightblue" d="M180.86,-112.4C174.03,-103.75 165.26,-92.64 158.09,-83.58"/>
<polygon fill="midnightblue" stroke="midnightblue" points="160.78,-81.34 151.84,-75.66 155.29,-85.67 160.78,-81.34"/>
</g>
<!-- Node7 -->
<g id="node7" class="node">
<title>Node7</title>
<g id="a_node7"><a xlink:title=" ">
<polygon fill="white" stroke="#bfbfbf" points="207,-56.5 207,-75.5 271,-75.5 271,-56.5 207,-56.5"/>
<text text-anchor="middle" x="239" y="-63.5" font-family="Helvetica,sans-Serif" font-size="10.00">algorithm</text>
</a>
</g>
</g>
<!-- Node1&#45;&gt;Node7 -->
<g id="edge6" class="edge">
<title>Node1&#45;&gt;Node7</title>
<path fill="none" stroke="midnightblue" d="M203.14,-112.4C209.97,-103.75 218.74,-92.64 225.91,-83.58"/>
<polygon fill="midnightblue" stroke="midnightblue" points="228.71,-85.67 232.16,-75.66 223.22,-81.34 228.71,-85.67"/>
</g>
<!-- Node3 -->
<g id="node3" class="node">
<title>Node3</title>
<g id="a_node3"><a xlink:title=" ">
<polygon fill="white" stroke="#bfbfbf" points="0,-0.5 0,-19.5 50,-19.5 50,-0.5 0,-0.5"/>
<text text-anchor="middle" x="25" y="-7.5" font-family="Helvetica,sans-Serif" font-size="10.00">chrono</text>
</a>
</g>
</g>
<!-- Node2&#45;&gt;Node3 -->
<g id="edge2" class="edge">
<title>Node2&#45;&gt;Node3</title>
<path fill="none" stroke="midnightblue" d="M125.99,-56.44C106.41,-47.64 75.69,-33.81 53.27,-23.72"/>
<polygon fill="midnightblue" stroke="midnightblue" points="54.48,-20.43 43.93,-19.52 51.61,-26.81 54.48,-20.43"/>
</g>
<!-- Node4 -->
<g id="node4" class="node">
<title>Node4</title>
<g id="a_node4"><a xlink:title=" ">
<polygon fill="white" stroke="#bfbfbf" points="68,-0.5 68,-19.5 118,-19.5 118,-0.5 68,-0.5"/>
<text text-anchor="middle" x="93" y="-7.5" font-family="Helvetica,sans-Serif" font-size="10.00">cstdint</text>
</a>
</g>
</g>
<!-- Node2&#45;&gt;Node4 -->
<g id="edge3" class="edge">
<title>Node2&#45;&gt;Node4</title>
<path fill="none" stroke="midnightblue" d="M136.41,-56.08C128.84,-48.22 117.62,-36.57 108.49,-27.08"/>
<polygon fill="midnightblue" stroke="midnightblue" points="110.88,-24.53 101.43,-19.75 105.84,-29.38 110.88,-24.53"/>
</g>
<!-- Node5 -->
<g id="node5" class="node">
<title>Node5</title>
<g id="a_node5"><a xlink:title=" ">
<polygon fill="white" stroke="#bfbfbf" points="136,-0.5 136,-19.5 260,-19.5 260,-0.5 136,-0.5"/>
<text text-anchor="middle" x="198" y="-7.5" font-family="Helvetica,sans-Serif" font-size="10.00">emlabcpp/algorithm.h</text>
</a>
</g>
</g>
<!-- Node2&#45;&gt;Node5 -->
<g id="edge4" class="edge">
<title>Node2&#45;&gt;Node5</title>
<path fill="none" stroke="midnightblue" d="M153.75,-56.08C161.47,-48.22 172.9,-36.57 182.22,-27.08"/>
<polygon fill="midnightblue" stroke="midnightblue" points="184.9,-29.34 189.41,-19.75 179.91,-24.44 184.9,-29.34"/>
</g>
<!-- Node6 -->
<g id="node6" class="node">
<title>Node6</title>
<g id="a_node6"><a xlink:title=" ">
<polygon fill="white" stroke="#bfbfbf" points="278.5,-0.5 278.5,-19.5 337.5,-19.5 337.5,-0.5 278.5,-0.5"/>
<text text-anchor="middle" x="308" y="-7.5" font-family="Helvetica,sans-Serif" font-size="10.00">numbers</text>
</a>
</g>
</g>
<!-- Node2&#45;&gt;Node6 -->
<g id="edge5" class="edge">
<title>Node2&#45;&gt;Node6</title>
<path fill="none" stroke="midnightblue" d="M170.83,-56.44C198.25,-47.36 241.78,-32.94 272.43,-22.78"/>
<polygon fill="midnightblue" stroke="midnightblue" points="273.9,-25.98 282.29,-19.52 271.7,-19.34 273.9,-25.98"/>
</g>
</g>
</svg>
