<?xml version="1.0" encoding="UTF-8" standalone="no"?>
<!DOCTYPE svg PUBLIC "-//W3C//DTD SVG 1.1//EN"
 "http://www.w3.org/Graphics/SVG/1.1/DTD/svg11.dtd">
<!-- Generated by graphviz version 2.43.0 (0)
 -->
<!-- Title: src/fw/load_persistent_config.hpp Pages: 1 -->
<svg width="904pt" height="280pt"
 viewBox="0.00 0.00 904.00 280.00" xmlns="http://www.w3.org/2000/svg" xmlns:xlink="http://www.w3.org/1999/xlink">
<g id="graph0" class="graph" transform="scale(1 1) rotate(0) translate(4 276)">
<title>src/fw/load_persistent_config.hpp</title>
<!-- Node1 -->
<g id="Node000001" class="node">
<title>Node1</title>
<g id="a_Node000001"><a xlink:title=" ">
<polygon fill="#999999" stroke="#666666" points="424,-272 301,-272 301,-242 424,-242 424,-272"/>
<text text-anchor="start" x="309" y="-260" font-family="Helvetica,sans-Serif" font-size="10.00">src/fw/load_persistent</text>
<text text-anchor="middle" x="362.5" y="-249" font-family="Helvetica,sans-Serif" font-size="10.00">_config.hpp</text>
</a>
</g>
</g>
<!-- Node2 -->
<g id="Node000002" class="node">
<title>Node2</title>
<g id="a_Node000002"><a xlink:href="storage_8hpp.html" target="_top" xlink:title=" ">
<polygon fill="white" stroke="#666666" points="242,-206 141,-206 141,-187 242,-187 242,-206"/>
<text text-anchor="middle" x="191.5" y="-194" font-family="Helvetica,sans-Serif" font-size="10.00">../cfg/storage.hpp</text>
</a>
</g>
</g>
<!-- Node1&#45;&gt;Node2 -->
<g id="edge1_Node000001_Node000002" class="edge">
<title>Node1&#45;&gt;Node2</title>
<g id="a_edge1_Node000001_Node000002"><a xlink:title=" ">
<path fill="none" stroke="#63b8ff" d="M321.54,-241.99C292.5,-232.05 253.95,-218.86 226.38,-209.43"/>
<polygon fill="#63b8ff" stroke="#63b8ff" points="227.35,-206.06 216.75,-206.14 225.08,-212.69 227.35,-206.06"/>
</a>
</g>
</g>
<!-- Node17 -->
<g id="Node000017" class="node">
<title>Node17</title>
<g id="a_Node000017"><a xlink:href="interfaces_8hpp.html" target="_top" xlink:title=" ">
<polygon fill="white" stroke="#666666" points="419.5,-206 305.5,-206 305.5,-187 419.5,-187 419.5,-206"/>
<text text-anchor="middle" x="362.5" y="-194" font-family="Helvetica,sans-Serif" font-size="10.00">../drv/interfaces.hpp</text>
</a>
</g>
</g>
<!-- Node1&#45;&gt;Node17 -->
<g id="edge8_Node000001_Node000017" class="edge">
<title>Node1&#45;&gt;Node17</title>
<g id="a_edge8_Node000001_Node000017"><a xlink:title=" ">
<path fill="none" stroke="#63b8ff" d="M362.5,-241.84C362.5,-234.21 362.5,-224.7 362.5,-216.45"/>
<polygon fill="#63b8ff" stroke="#63b8ff" points="366,-216.27 362.5,-206.27 359,-216.27 366,-216.27"/>
</a>
</g>
</g>
<!-- Node21 -->
<g id="Node000021" class="node">
<title>Node21</title>
<g id="a_Node000021"><a xlink:href="util_8hpp.html" target="_top" xlink:title=" ">
<polygon fill="white" stroke="#666666" points="771,-206 712,-206 712,-187 771,-187 771,-206"/>
<text text-anchor="middle" x="741.5" y="-194" font-family="Helvetica,sans-Serif" font-size="10.00">./util.hpp</text>
</a>
</g>
</g>
<!-- Node1&#45;&gt;Node21 -->
<g id="edge15_Node000001_Node000021" class="edge">
<title>Node1&#45;&gt;Node21</title>
<g id="a_edge15_Node000001_Node000021"><a xlink:title=" ">
<path fill="none" stroke="#63b8ff" d="M424.24,-246.47C502.68,-234.36 635.81,-213.81 701.87,-203.62"/>
<polygon fill="#63b8ff" stroke="#63b8ff" points="702.53,-207.06 711.88,-202.07 701.46,-200.14 702.53,-207.06"/>
</a>
</g>
</g>
<!-- Node3 -->
<g id="Node000003" class="node">
<title>Node3</title>
<g id="a_Node000003"><a xlink:href="map_8hpp.html" target="_top" xlink:title=" ">
<polygon fill="#fff0f0" stroke="red" points="260,-145.5 195,-145.5 195,-126.5 260,-126.5 260,-145.5"/>
<text text-anchor="middle" x="227.5" y="-133.5" font-family="Helvetica,sans-Serif" font-size="10.00">./map.hpp</text>
</a>
</g>
</g>
<!-- Node2&#45;&gt;Node3 -->
<g id="edge2_Node000002_Node000003" class="edge">
<title>Node2&#45;&gt;Node3</title>
<g id="a_edge2_Node000002_Node000003"><a xlink:title=" ">
<path fill="none" stroke="#63b8ff" d="M196.81,-186.87C202.08,-178.31 210.29,-164.97 216.89,-154.24"/>
<polygon fill="#63b8ff" stroke="#63b8ff" points="219.91,-156.02 222.17,-145.67 213.94,-152.35 219.91,-156.02"/>
</a>
</g>
</g>
<!-- Node11 -->
<g id="Node000011" class="node">
<title>Node11</title>
<g id="a_Node000011"><a xlink:title=" ">
<polygon fill="#e0e0e0" stroke="#999999" points="133,-85 0,-85 0,-55 133,-55 133,-85"/>
<text text-anchor="start" x="8" y="-73" font-family="Helvetica,sans-Serif" font-size="10.00">emlabcpp/experimental</text>
<text text-anchor="middle" x="66.5" y="-62" font-family="Helvetica,sans-Serif" font-size="10.00">/string_buffer.h</text>
</a>
</g>
</g>
<!-- Node2&#45;&gt;Node11 -->
<g id="edge7_Node000002_Node000011" class="edge">
<title>Node2&#45;&gt;Node11</title>
<g id="a_edge7_Node000002_Node000011"><a xlink:title=" ">
<path fill="none" stroke="#63b8ff" d="M140.84,-187.87C100.05,-180.56 47.44,-168.12 34.5,-151 21.32,-133.57 33.61,-109.98 46.58,-92.94"/>
<polygon fill="#63b8ff" stroke="#63b8ff" points="49.32,-95.12 52.9,-85.15 43.88,-90.71 49.32,-95.12"/>
</a>
</g>
</g>
<!-- Node16 -->
<g id="Node000016" class="node">
<title>Node16</title>
<g id="a_Node000016"><a xlink:title=" ">
<polygon fill="#e0e0e0" stroke="#999999" points="177,-151 44,-151 44,-121 177,-121 177,-151"/>
<text text-anchor="start" x="52" y="-139" font-family="Helvetica,sans-Serif" font-size="10.00">emlabcpp/experimental</text>
<text text-anchor="middle" x="110.5" y="-128" font-family="Helvetica,sans-Serif" font-size="10.00">/function_view.h</text>
</a>
</g>
</g>
<!-- Node2&#45;&gt;Node16 -->
<g id="edge6_Node000002_Node000016" class="edge">
<title>Node2&#45;&gt;Node16</title>
<g id="a_edge6_Node000002_Node000016"><a xlink:title=" ">
<path fill="none" stroke="#63b8ff" d="M179.55,-186.87C168.76,-179.08 152.48,-167.32 138.43,-157.17"/>
<polygon fill="#63b8ff" stroke="#63b8ff" points="140.2,-154.13 130.04,-151.11 136.1,-159.81 140.2,-154.13"/>
</a>
</g>
</g>
<!-- Node4 -->
<g id="Node000004" class="node">
<title>Node4</title>
<g id="a_Node000004"><a xlink:href="base_2base_8hpp.html" target="_top" xlink:title=" ">
<polygon fill="#fff0f0" stroke="red" points="298.5,-79.5 202.5,-79.5 202.5,-60.5 298.5,-60.5 298.5,-79.5"/>
<text text-anchor="middle" x="250.5" y="-67.5" font-family="Helvetica,sans-Serif" font-size="10.00">../base/base.hpp</text>
</a>
</g>
</g>
<!-- Node3&#45;&gt;Node4 -->
<g id="edge3_Node000003_Node000004" class="edge">
<title>Node3&#45;&gt;Node4</title>
<g id="a_edge3_Node000003_Node000004"><a xlink:title=" ">
<path fill="none" stroke="#63b8ff" d="M230.6,-126.37C233.98,-116.97 239.48,-101.67 243.84,-89.53"/>
<polygon fill="#63b8ff" stroke="#63b8ff" points="247.21,-90.5 247.3,-79.91 240.62,-88.13 247.21,-90.5"/>
</a>
</g>
</g>
<!-- Node3&#45;&gt;Node11 -->
<g id="edge5_Node000003_Node000011" class="edge">
<title>Node3&#45;&gt;Node11</title>
<g id="a_edge5_Node000003_Node000011"><a xlink:title=" ">
<path fill="none" stroke="#63b8ff" d="M205.79,-126.37C181.78,-116.82 142.43,-101.18 111.67,-88.95"/>
<polygon fill="#63b8ff" stroke="#63b8ff" points="112.6,-85.56 102.01,-85.12 110.01,-92.06 112.6,-85.56"/>
</a>
</g>
</g>
<!-- Node6 -->
<g id="Node000006" class="node">
<title>Node6</title>
<g id="a_Node000006"><a xlink:title=" ">
<polygon fill="#e0e0e0" stroke="#999999" points="313.5,-19 263.5,-19 263.5,0 313.5,0 313.5,-19"/>
<text text-anchor="middle" x="288.5" y="-7" font-family="Helvetica,sans-Serif" font-size="10.00">cstdint</text>
</a>
</g>
</g>
<!-- Node4&#45;&gt;Node6 -->
<g id="edge4_Node000004_Node000006" class="edge">
<title>Node4&#45;&gt;Node6</title>
<g id="a_edge4_Node000004_Node000006"><a xlink:title=" ">
<path fill="none" stroke="#63b8ff" d="M256.11,-60.37C261.66,-51.81 270.33,-38.47 277.3,-27.74"/>
<polygon fill="#63b8ff" stroke="#63b8ff" points="280.36,-29.46 282.87,-19.17 274.49,-25.65 280.36,-29.46"/>
</a>
</g>
</g>
<!-- Node17&#45;&gt;Node3 -->
<g id="edge10_Node000017_Node000003" class="edge">
<title>Node17&#45;&gt;Node3</title>
<g id="a_edge10_Node000017_Node000003"><a xlink:title=" ">
<path fill="none" stroke="#63b8ff" d="M342.87,-186.99C320.17,-177.16 282.6,-160.88 256.53,-149.58"/>
<polygon fill="#63b8ff" stroke="#63b8ff" points="257.72,-146.28 247.15,-145.52 254.94,-152.7 257.72,-146.28"/>
</a>
</g>
</g>
<!-- Node17&#45;&gt;Node4 -->
<g id="edge9_Node000017_Node000004" class="edge">
<title>Node17&#45;&gt;Node4</title>
<g id="a_edge9_Node000017_Node000004"><a xlink:title=" ">
<path fill="none" stroke="#63b8ff" d="M351.64,-186.83C341.14,-178.22 325.03,-164.42 312.5,-151 293.47,-130.63 274.22,-104.79 262.33,-88.08"/>
<polygon fill="#63b8ff" stroke="#63b8ff" points="265.14,-85.99 256.53,-79.83 259.41,-90.02 265.14,-85.99"/>
</a>
</g>
</g>
<!-- Node17&#45;&gt;Node6 -->
<g id="edge11_Node000017_Node000006" class="edge">
<title>Node17&#45;&gt;Node6</title>
<g id="a_edge11_Node000017_Node000006"><a xlink:title=" ">
<path fill="none" stroke="#63b8ff" d="M359.24,-186.91C350.87,-164.9 327.83,-104.7 307.5,-55 303.92,-46.25 299.82,-36.6 296.34,-28.53"/>
<polygon fill="#63b8ff" stroke="#63b8ff" points="299.55,-27.12 292.36,-19.33 293.12,-29.9 299.55,-27.12"/>
</a>
</g>
</g>
<!-- Node18 -->
<g id="Node000018" class="node">
<title>Node18</title>
<g id="a_Node000018"><a xlink:title=" ">
<polygon fill="#e0e0e0" stroke="#999999" points="474,-145.5 355,-145.5 355,-126.5 474,-126.5 474,-145.5"/>
<text text-anchor="middle" x="414.5" y="-133.5" font-family="Helvetica,sans-Serif" font-size="10.00">emlabcpp/outcome.h</text>
</a>
</g>
</g>
<!-- Node17&#45;&gt;Node18 -->
<g id="edge12_Node000017_Node000018" class="edge">
<title>Node17&#45;&gt;Node18</title>
<g id="a_edge12_Node000017_Node000018"><a xlink:title=" ">
<path fill="none" stroke="#63b8ff" d="M370.17,-186.87C378.01,-178.05 390.36,-164.16 400.04,-153.27"/>
<polygon fill="#63b8ff" stroke="#63b8ff" points="402.77,-155.47 406.8,-145.67 397.54,-150.82 402.77,-155.47"/>
</a>
</g>
</g>
<!-- Node19 -->
<g id="Node000019" class="node">
<title>Node19</title>
<g id="a_Node000019"><a xlink:title=" ">
<polygon fill="#e0e0e0" stroke="#999999" points="596.5,-145.5 492.5,-145.5 492.5,-126.5 596.5,-126.5 596.5,-145.5"/>
<text text-anchor="middle" x="544.5" y="-133.5" font-family="Helvetica,sans-Serif" font-size="10.00">emlabcpp/result.h</text>
</a>
</g>
</g>
<!-- Node17&#45;&gt;Node19 -->
<g id="edge13_Node000017_Node000019" class="edge">
<title>Node17&#45;&gt;Node19</title>
<g id="a_edge13_Node000017_Node000019"><a xlink:title=" ">
<path fill="none" stroke="#63b8ff" d="M388.96,-186.99C420.37,-176.9 472.9,-160.01 508.12,-148.69"/>
<polygon fill="#63b8ff" stroke="#63b8ff" points="509.55,-151.91 518,-145.52 507.41,-145.24 509.55,-151.91"/>
</a>
</g>
</g>
<!-- Node20 -->
<g id="Node000020" class="node">
<title>Node20</title>
<g id="a_Node000020"><a xlink:title=" ">
<polygon fill="#e0e0e0" stroke="#999999" points="654.5,-145.5 614.5,-145.5 614.5,-126.5 654.5,-126.5 654.5,-145.5"/>
<text text-anchor="middle" x="634.5" y="-133.5" font-family="Helvetica,sans-Serif" font-size="10.00">span</text>
</a>
</g>
</g>
<!-- Node17&#45;&gt;Node20 -->
<g id="edge14_Node000017_Node000020" class="edge">
<title>Node17&#45;&gt;Node20</title>
<g id="a_edge14_Node000017_Node000020"><a xlink:title=" ">
<path fill="none" stroke="#63b8ff" d="M419.54,-189.45C469.48,-183.12 543.53,-171.22 605.5,-151 606.73,-150.6 607.97,-150.16 609.21,-149.69"/>
<polygon fill="#63b8ff" stroke="#63b8ff" points="610.77,-152.82 618.56,-145.64 607.99,-146.4 610.77,-152.82"/>
</a>
</g>
</g>
<!-- Node22 -->
<g id="Node000022" class="node">
<title>Node22</title>
<g id="a_Node000022"><a xlink:title=" ">
<polygon fill="#e0e0e0" stroke="#999999" points="736.5,-145.5 672.5,-145.5 672.5,-126.5 736.5,-126.5 736.5,-145.5"/>
<text text-anchor="middle" x="704.5" y="-133.5" font-family="Helvetica,sans-Serif" font-size="10.00">algorithm</text>
</a>
</g>
</g>
<!-- Node21&#45;&gt;Node22 -->
<g id="edge16_Node000021_Node000022" class="edge">
<title>Node21&#45;&gt;Node22</title>
<g id="a_edge16_Node000021_Node000022"><a xlink:title=" ">
<path fill="none" stroke="#63b8ff" d="M736.04,-186.87C730.63,-178.31 722.19,-164.97 715.4,-154.24"/>
<polygon fill="#63b8ff" stroke="#63b8ff" points="718.29,-152.25 709.98,-145.67 712.37,-155.99 718.29,-152.25"/>
</a>
</g>
</g>
<!-- Node23 -->
<g id="Node000023" class="node">
<title>Node23</title>
<g id="a_Node000023"><a xlink:title=" ">
<polygon fill="#e0e0e0" stroke="#999999" points="804.5,-145.5 754.5,-145.5 754.5,-126.5 804.5,-126.5 804.5,-145.5"/>
<text text-anchor="middle" x="779.5" y="-133.5" font-family="Helvetica,sans-Serif" font-size="10.00">cstring</text>
</a>
</g>
</g>
<!-- Node21&#45;&gt;Node23 -->
<g id="edge17_Node000021_Node000023" class="edge">
<title>Node21&#45;&gt;Node23</title>
<g id="a_edge17_Node000021_Node000023"><a xlink:title=" ">
<path fill="none" stroke="#63b8ff" d="M747.11,-186.87C752.66,-178.31 761.33,-164.97 768.3,-154.24"/>
<polygon fill="#63b8ff" stroke="#63b8ff" points="771.36,-155.96 773.87,-145.67 765.49,-152.15 771.36,-155.96"/>
</a>
</g>
</g>
<!-- Node24 -->
<g id="Node000024" class="node">
<title>Node24</title>
<g id="a_Node000024"><a xlink:title=" ">
<polygon fill="#e0e0e0" stroke="#999999" points="896,-145.5 823,-145.5 823,-126.5 896,-126.5 896,-145.5"/>
<text text-anchor="middle" x="859.5" y="-133.5" font-family="Helvetica,sans-Serif" font-size="10.00">string_view</text>
</a>
</g>
</g>
<!-- Node21&#45;&gt;Node24 -->
<g id="edge18_Node000021_Node000024" class="edge">
<title>Node21&#45;&gt;Node24</title>
<g id="a_edge18_Node000021_Node000024"><a xlink:title=" ">
<path fill="none" stroke="#63b8ff" d="M758.66,-186.99C778.23,-177.29 810.47,-161.31 833.22,-150.03"/>
<polygon fill="#63b8ff" stroke="#63b8ff" points="834.92,-153.09 842.32,-145.52 831.81,-146.82 834.92,-153.09"/>
</a>
</g>
</g>
</g>
</svg>
