<?xml version="1.0" encoding="UTF-8" standalone="no"?>
<!DOCTYPE svg PUBLIC "-//W3C//DTD SVG 1.1//EN"
 "http://www.w3.org/Graphics/SVG/1.1/DTD/svg11.dtd">
<!-- Generated by graphviz version 2.43.0 (0)
 -->
<!-- Title: src/fw/load_persistent_config.hpp Pages: 1 -->
<svg width="904pt" height="285pt"
 viewBox="0.00 0.00 904.00 285.00" xmlns="http://www.w3.org/2000/svg" xmlns:xlink="http://www.w3.org/1999/xlink">
<g id="graph0" class="graph" transform="scale(1 1) rotate(0) translate(4 281)">
<title>src/fw/load_persistent_config.hpp</title>
<polygon fill="white" stroke="transparent" points="-4,4 -4,-281 900,-281 900,4 -4,4"/>
<!-- Node1 -->
<g id="node1" class="node">
<title>Node1</title>
<g id="a_node1"><a xlink:title=" ">
<polygon fill="#bfbfbf" stroke="black" points="301,-246.5 301,-276.5 424,-276.5 424,-246.5 301,-246.5"/>
<text text-anchor="start" x="309" y="-264.5" font-family="Helvetica,sans-Serif" font-size="10.00">src/fw/load_persistent</text>
<text text-anchor="middle" x="362.5" y="-253.5" font-family="Helvetica,sans-Serif" font-size="10.00">_config.hpp</text>
</a>
</g>
</g>
<!-- Node2 -->
<g id="node2" class="node">
<title>Node2</title>
<g id="a_node2"><a xlink:href="storage_8hpp.html" target="_top" xlink:title=" ">
<polygon fill="white" stroke="black" points="141,-190.5 141,-209.5 242,-209.5 242,-190.5 141,-190.5"/>
<text text-anchor="middle" x="191.5" y="-197.5" font-family="Helvetica,sans-Serif" font-size="10.00">../cfg/storage.hpp</text>
</a>
</g>
</g>
<!-- Node1&#45;&gt;Node2 -->
<g id="edge1" class="edge">
<title>Node1&#45;&gt;Node2</title>
<path fill="none" stroke="midnightblue" d="M321.98,-246.4C292.77,-236.24 253.78,-222.67 226.05,-213.02"/>
<polygon fill="midnightblue" stroke="midnightblue" points="226.98,-209.64 216.38,-209.66 224.68,-216.25 226.98,-209.64"/>
</g>
<!-- Node17 -->
<g id="node8" class="node">
<title>Node17</title>
<g id="a_node8"><a xlink:href="interfaces_8hpp.html" target="_top" xlink:title=" ">
<polygon fill="white" stroke="black" points="305.5,-190.5 305.5,-209.5 419.5,-209.5 419.5,-190.5 305.5,-190.5"/>
<text text-anchor="middle" x="362.5" y="-197.5" font-family="Helvetica,sans-Serif" font-size="10.00">../drv/interfaces.hpp</text>
</a>
</g>
</g>
<!-- Node1&#45;&gt;Node17 -->
<g id="edge8" class="edge">
<title>Node1&#45;&gt;Node17</title>
<path fill="none" stroke="midnightblue" d="M362.5,-246.4C362.5,-238.47 362.5,-228.46 362.5,-219.86"/>
<polygon fill="midnightblue" stroke="midnightblue" points="366,-219.66 362.5,-209.66 359,-219.66 366,-219.66"/>
</g>
<!-- Node21 -->
<g id="node12" class="node">
<title>Node21</title>
<g id="a_node12"><a xlink:href="util_8hpp.html" target="_top" xlink:title=" ">
<polygon fill="white" stroke="black" points="712,-190.5 712,-209.5 771,-209.5 771,-190.5 712,-190.5"/>
<text text-anchor="middle" x="741.5" y="-197.5" font-family="Helvetica,sans-Serif" font-size="10.00">./util.hpp</text>
</a>
</g>
</g>
<!-- Node1&#45;&gt;Node21 -->
<g id="edge15" class="edge">
<title>Node1&#45;&gt;Node21</title>
<path fill="none" stroke="midnightblue" d="M424.24,-250.81C502.68,-238.49 635.81,-217.59 701.87,-207.22"/>
<polygon fill="midnightblue" stroke="midnightblue" points="702.55,-210.66 711.88,-205.65 701.46,-203.74 702.55,-210.66"/>
</g>
<!-- Node3 -->
<g id="node3" class="node">
<title>Node3</title>
<g id="a_node3"><a xlink:href="map_8hpp.html" target="_top" xlink:title=" ">
<polygon fill="white" stroke="red" points="195,-129 195,-148 260,-148 260,-129 195,-129"/>
<text text-anchor="middle" x="227.5" y="-136" font-family="Helvetica,sans-Serif" font-size="10.00">./map.hpp</text>
</a>
</g>
</g>
<!-- Node2&#45;&gt;Node3 -->
<g id="edge2" class="edge">
<title>Node2&#45;&gt;Node3</title>
<path fill="none" stroke="midnightblue" d="M196.66,-190.48C201.95,-181.73 210.34,-167.87 217.03,-156.81"/>
<polygon fill="midnightblue" stroke="midnightblue" points="220.17,-158.38 222.35,-148.01 214.18,-154.75 220.17,-158.38"/>
</g>
<!-- Node11 -->
<g id="node6" class="node">
<title>Node11</title>
<g id="a_node6"><a xlink:title=" ">
<polygon fill="white" stroke="#bfbfbf" points="0,-56.5 0,-86.5 133,-86.5 133,-56.5 0,-56.5"/>
<text text-anchor="start" x="8" y="-74.5" font-family="Helvetica,sans-Serif" font-size="10.00">emlabcpp/experimental</text>
<text text-anchor="middle" x="66.5" y="-63.5" font-family="Helvetica,sans-Serif" font-size="10.00">/string_buffer.h</text>
</a>
</g>
</g>
<!-- Node2&#45;&gt;Node11 -->
<g id="edge7" class="edge">
<title>Node2&#45;&gt;Node11</title>
<path fill="none" stroke="midnightblue" d="M140.84,-191.2C100.04,-183.76 47.43,-171.15 34.5,-154 21.06,-136.16 33.59,-111.95 46.71,-94.55"/>
<polygon fill="midnightblue" stroke="midnightblue" points="49.55,-96.61 53.09,-86.62 44.09,-92.22 49.55,-96.61"/>
</g>
<!-- Node16 -->
<g id="node7" class="node">
<title>Node16</title>
<g id="a_node7"><a xlink:title=" ">
<polygon fill="white" stroke="#bfbfbf" points="44,-123.5 44,-153.5 177,-153.5 177,-123.5 44,-123.5"/>
<text text-anchor="start" x="52" y="-141.5" font-family="Helvetica,sans-Serif" font-size="10.00">emlabcpp/experimental</text>
<text text-anchor="middle" x="110.5" y="-130.5" font-family="Helvetica,sans-Serif" font-size="10.00">/function_view.h</text>
</a>
</g>
</g>
<!-- Node2&#45;&gt;Node16 -->
<g id="edge6" class="edge">
<title>Node2&#45;&gt;Node16</title>
<path fill="none" stroke="midnightblue" d="M179.89,-190.48C168.92,-182.42 152.05,-170.02 137.69,-159.47"/>
<polygon fill="midnightblue" stroke="midnightblue" points="139.72,-156.62 129.59,-153.52 135.58,-162.26 139.72,-156.62"/>
</g>
<!-- Node4 -->
<g id="node4" class="node">
<title>Node4</title>
<g id="a_node4"><a xlink:href="base_2base_8hpp.html" target="_top" xlink:title=" ">
<polygon fill="white" stroke="red" points="202.5,-62 202.5,-81 298.5,-81 298.5,-62 202.5,-62"/>
<text text-anchor="middle" x="250.5" y="-69" font-family="Helvetica,sans-Serif" font-size="10.00">../base/base.hpp</text>
</a>
</g>
</g>
<!-- Node3&#45;&gt;Node4 -->
<g id="edge3" class="edge">
<title>Node3&#45;&gt;Node4</title>
<path fill="none" stroke="midnightblue" d="M230.6,-128.73C234.02,-119.09 239.6,-103.3 243.99,-90.91"/>
<polygon fill="midnightblue" stroke="midnightblue" points="247.41,-91.72 247.45,-81.13 240.81,-89.39 247.41,-91.72"/>
</g>
<!-- Node3&#45;&gt;Node11 -->
<g id="edge5" class="edge">
<title>Node3&#45;&gt;Node11</title>
<path fill="none" stroke="midnightblue" d="M206.12,-128.87C181.86,-119.07 141.62,-102.83 110.56,-90.29"/>
<polygon fill="midnightblue" stroke="midnightblue" points="111.83,-87.03 101.25,-86.53 109.21,-93.52 111.83,-87.03"/>
</g>
<!-- Node6 -->
<g id="node5" class="node">
<title>Node6</title>
<g id="a_node5"><a xlink:title=" ">
<polygon fill="white" stroke="#bfbfbf" points="263.5,-0.5 263.5,-19.5 313.5,-19.5 313.5,-0.5 263.5,-0.5"/>
<text text-anchor="middle" x="288.5" y="-7.5" font-family="Helvetica,sans-Serif" font-size="10.00">cstdint</text>
</a>
</g>
</g>
<!-- Node4&#45;&gt;Node6 -->
<g id="edge4" class="edge">
<title>Node4&#45;&gt;Node6</title>
<path fill="none" stroke="midnightblue" d="M255.94,-61.98C261.59,-53.14 270.56,-39.09 277.66,-27.98"/>
<polygon fill="midnightblue" stroke="midnightblue" points="280.63,-29.82 283.07,-19.51 274.73,-26.05 280.63,-29.82"/>
</g>
<!-- Node17&#45;&gt;Node3 -->
<g id="edge10" class="edge">
<title>Node17&#45;&gt;Node3</title>
<path fill="none" stroke="midnightblue" d="M343.16,-190.48C320.4,-180.45 282.41,-163.7 256.21,-152.15"/>
<polygon fill="midnightblue" stroke="midnightblue" points="257.37,-148.84 246.81,-148.01 254.55,-155.24 257.37,-148.84"/>
</g>
<!-- Node17&#45;&gt;Node4 -->
<g id="edge9" class="edge">
<title>Node17&#45;&gt;Node4</title>
<path fill="none" stroke="midnightblue" d="M351.62,-190.23C341.12,-181.53 325,-167.57 312.5,-154 293.19,-133.03 273.75,-106.37 261.92,-89.36"/>
<polygon fill="midnightblue" stroke="midnightblue" points="264.72,-87.26 256.18,-81 258.96,-91.23 264.72,-87.26"/>
</g>
<!-- Node17&#45;&gt;Node6 -->
<g id="edge11" class="edge">
<title>Node17&#45;&gt;Node6</title>
<path fill="none" stroke="midnightblue" d="M359.26,-190.48C349.13,-163.82 318.1,-82.27 307.5,-56 303.89,-47.04 299.73,-37.15 296.22,-28.92"/>
<polygon fill="midnightblue" stroke="midnightblue" points="299.38,-27.41 292.23,-19.59 292.95,-30.16 299.38,-27.41"/>
</g>
<!-- Node18 -->
<g id="node9" class="node">
<title>Node18</title>
<g id="a_node9"><a xlink:title=" ">
<polygon fill="white" stroke="#bfbfbf" points="355,-129 355,-148 474,-148 474,-129 355,-129"/>
<text text-anchor="middle" x="414.5" y="-136" font-family="Helvetica,sans-Serif" font-size="10.00">emlabcpp/outcome.h</text>
</a>
</g>
</g>
<!-- Node17&#45;&gt;Node18 -->
<g id="edge12" class="edge">
<title>Node17&#45;&gt;Node18</title>
<path fill="none" stroke="midnightblue" d="M369.95,-190.48C377.83,-181.46 390.44,-167.02 400.24,-155.81"/>
<polygon fill="midnightblue" stroke="midnightblue" points="403.12,-157.84 407.06,-148.01 397.85,-153.24 403.12,-157.84"/>
</g>
<!-- Node19 -->
<g id="node10" class="node">
<title>Node19</title>
<g id="a_node10"><a xlink:title=" ">
<polygon fill="white" stroke="#bfbfbf" points="492.5,-129 492.5,-148 596.5,-148 596.5,-129 492.5,-129"/>
<text text-anchor="middle" x="544.5" y="-136" font-family="Helvetica,sans-Serif" font-size="10.00">emlabcpp/result.h</text>
</a>
</g>
</g>
<!-- Node17&#45;&gt;Node19 -->
<g id="edge13" class="edge">
<title>Node17&#45;&gt;Node19</title>
<path fill="none" stroke="midnightblue" d="M388.58,-190.48C420.07,-180.18 473.2,-162.81 508.56,-151.25"/>
<polygon fill="midnightblue" stroke="midnightblue" points="510.05,-154.44 518.47,-148.01 507.88,-147.79 510.05,-154.44"/>
</g>
<!-- Node20 -->
<g id="node11" class="node">
<title>Node20</title>
<g id="a_node11"><a xlink:title=" ">
<polygon fill="white" stroke="#bfbfbf" points="614.5,-129 614.5,-148 654.5,-148 654.5,-129 614.5,-129"/>
<text text-anchor="middle" x="634.5" y="-136" font-family="Helvetica,sans-Serif" font-size="10.00">span</text>
</a>
</g>
</g>
<!-- Node17&#45;&gt;Node20 -->
<g id="edge14" class="edge">
<title>Node17&#45;&gt;Node20</title>
<path fill="none" stroke="midnightblue" d="M419.61,-193.01C469.59,-186.7 543.67,-174.72 605.5,-154 607.11,-153.46 608.75,-152.84 610.39,-152.18"/>
<polygon fill="midnightblue" stroke="midnightblue" points="611.86,-155.35 619.49,-148 608.94,-148.99 611.86,-155.35"/>
</g>
<!-- Node22 -->
<g id="node13" class="node">
<title>Node22</title>
<g id="a_node13"><a xlink:title=" ">
<polygon fill="white" stroke="#bfbfbf" points="672.5,-129 672.5,-148 736.5,-148 736.5,-129 672.5,-129"/>
<text text-anchor="middle" x="704.5" y="-136" font-family="Helvetica,sans-Serif" font-size="10.00">algorithm</text>
</a>
</g>
</g>
<!-- Node21&#45;&gt;Node22 -->
<g id="edge16" class="edge">
<title>Node21&#45;&gt;Node22</title>
<path fill="none" stroke="midnightblue" d="M736.2,-190.48C730.76,-181.73 722.14,-167.87 715.26,-156.81"/>
<polygon fill="midnightblue" stroke="midnightblue" points="718.04,-154.65 709.79,-148.01 712.1,-158.35 718.04,-154.65"/>
</g>
<!-- Node23 -->
<g id="node14" class="node">
<title>Node23</title>
<g id="a_node14"><a xlink:title=" ">
<polygon fill="white" stroke="#bfbfbf" points="754.5,-129 754.5,-148 804.5,-148 804.5,-129 754.5,-129"/>
<text text-anchor="middle" x="779.5" y="-136" font-family="Helvetica,sans-Serif" font-size="10.00">cstring</text>
</a>
</g>
</g>
<!-- Node21&#45;&gt;Node23 -->
<g id="edge17" class="edge">
<title>Node21&#45;&gt;Node23</title>
<path fill="none" stroke="midnightblue" d="M746.94,-190.48C752.59,-181.64 761.56,-167.59 768.66,-156.48"/>
<polygon fill="midnightblue" stroke="midnightblue" points="771.63,-158.32 774.07,-148.01 765.73,-154.55 771.63,-158.32"/>
</g>
<!-- Node24 -->
<g id="node15" class="node">
<title>Node24</title>
<g id="a_node15"><a xlink:title=" ">
<polygon fill="white" stroke="#bfbfbf" points="823,-129 823,-148 896,-148 896,-129 823,-129"/>
<text text-anchor="middle" x="859.5" y="-136" font-family="Helvetica,sans-Serif" font-size="10.00">string_view</text>
</a>
</g>
</g>
<!-- Node21&#45;&gt;Node24 -->
<g id="edge18" class="edge">
<title>Node21&#45;&gt;Node24</title>
<path fill="none" stroke="midnightblue" d="M758.41,-190.48C778.03,-180.58 810.63,-164.14 833.49,-152.62"/>
<polygon fill="midnightblue" stroke="midnightblue" points="835.27,-155.64 842.62,-148.01 832.12,-149.39 835.27,-155.64"/>
</g>
</g>
</svg>
