<?xml version="1.0" encoding="UTF-8" standalone="no"?>
<!DOCTYPE svg PUBLIC "-//W3C//DTD SVG 1.1//EN"
 "http://www.w3.org/Graphics/SVG/1.1/DTD/svg11.dtd">
<!-- Generated by graphviz version 2.43.0 (0)
 -->
<!-- Title: src/fw/load_persistent_config.hpp Pages: 1 -->
<svg width="891pt" height="280pt"
 viewBox="0.00 0.00 891.00 280.00" xmlns="http://www.w3.org/2000/svg" xmlns:xlink="http://www.w3.org/1999/xlink">
<g id="graph0" class="graph" transform="scale(1 1) rotate(0) translate(4 276)">
<title>src/fw/load_persistent_config.hpp</title>
<!-- Node1 -->
<g id="Node000001" class="node">
<title>Node1</title>
<g id="a_Node000001"><a xlink:title=" ">
<polygon fill="#999999" stroke="#666666" points="411,-272 288,-272 288,-242 411,-242 411,-272"/>
<text text-anchor="start" x="296" y="-260" font-family="Helvetica,sans-Serif" font-size="10.00">src/fw/load_persistent</text>
<text text-anchor="middle" x="349.5" y="-249" font-family="Helvetica,sans-Serif" font-size="10.00">_config.hpp</text>
</a>
</g>
</g>
<!-- Node2 -->
<g id="Node000002" class="node">
<title>Node2</title>
<g id="a_Node000002"><a xlink:href="storage_8hpp.html" target="_top" xlink:title=" ">
<polygon fill="white" stroke="#666666" points="229,-206 128,-206 128,-187 229,-187 229,-206"/>
<text text-anchor="middle" x="178.5" y="-194" font-family="Helvetica,sans-Serif" font-size="10.00">../cfg/storage.hpp</text>
</a>
</g>
</g>
<!-- Node1&#45;&gt;Node2 -->
<g id="edge1_Node000001_Node000002" class="edge">
<title>Node1&#45;&gt;Node2</title>
<g id="a_edge1_Node000001_Node000002"><a xlink:title=" ">
<path fill="none" stroke="#63b8ff" d="M308.54,-241.99C279.5,-232.05 240.95,-218.86 213.38,-209.43"/>
<polygon fill="#63b8ff" stroke="#63b8ff" points="214.35,-206.06 203.75,-206.14 212.08,-212.69 214.35,-206.06"/>
</a>
</g>
</g>
<!-- Node17 -->
<g id="Node000017" class="node">
<title>Node17</title>
<g id="a_Node000017"><a xlink:href="interfaces_8hpp.html" target="_top" xlink:title=" ">
<polygon fill="white" stroke="#666666" points="406.5,-206 292.5,-206 292.5,-187 406.5,-187 406.5,-206"/>
<text text-anchor="middle" x="349.5" y="-194" font-family="Helvetica,sans-Serif" font-size="10.00">../drv/interfaces.hpp</text>
</a>
</g>
</g>
<!-- Node1&#45;&gt;Node17 -->
<g id="edge8_Node000001_Node000017" class="edge">
<title>Node1&#45;&gt;Node17</title>
<g id="a_edge8_Node000001_Node000017"><a xlink:title=" ">
<path fill="none" stroke="#63b8ff" d="M349.5,-241.84C349.5,-234.21 349.5,-224.7 349.5,-216.45"/>
<polygon fill="#63b8ff" stroke="#63b8ff" points="353,-216.27 349.5,-206.27 346,-216.27 353,-216.27"/>
</a>
</g>
</g>
<!-- Node21 -->
<g id="Node000021" class="node">
<title>Node21</title>
<g id="a_Node000021"><a xlink:href="fw_2util_8hpp.html" target="_top" xlink:title=" ">
<polygon fill="white" stroke="#666666" points="758,-206 699,-206 699,-187 758,-187 758,-206"/>
<text text-anchor="middle" x="728.5" y="-194" font-family="Helvetica,sans-Serif" font-size="10.00">./util.hpp</text>
</a>
</g>
</g>
<!-- Node1&#45;&gt;Node21 -->
<g id="edge15_Node000001_Node000021" class="edge">
<title>Node1&#45;&gt;Node21</title>
<g id="a_edge15_Node000001_Node000021"><a xlink:title=" ">
<path fill="none" stroke="#63b8ff" d="M411.24,-246.47C489.68,-234.36 622.81,-213.81 688.87,-203.62"/>
<polygon fill="#63b8ff" stroke="#63b8ff" points="689.53,-207.06 698.88,-202.07 688.46,-200.14 689.53,-207.06"/>
</a>
</g>
</g>
<!-- Node3 -->
<g id="Node000003" class="node">
<title>Node3</title>
<g id="a_Node000003"><a xlink:href="map_8hpp.html" target="_top" xlink:title=" ">
<polygon fill="#fff0f0" stroke="red" points="247,-145.5 182,-145.5 182,-126.5 247,-126.5 247,-145.5"/>
<text text-anchor="middle" x="214.5" y="-133.5" font-family="Helvetica,sans-Serif" font-size="10.00">./map.hpp</text>
</a>
</g>
</g>
<!-- Node2&#45;&gt;Node3 -->
<g id="edge2_Node000002_Node000003" class="edge">
<title>Node2&#45;&gt;Node3</title>
<g id="a_edge2_Node000002_Node000003"><a xlink:title=" ">
<path fill="none" stroke="#63b8ff" d="M183.81,-186.87C189.08,-178.31 197.29,-164.97 203.89,-154.24"/>
<polygon fill="#63b8ff" stroke="#63b8ff" points="206.91,-156.02 209.17,-145.67 200.94,-152.35 206.91,-156.02"/>
</a>
</g>
</g>
<!-- Node11 -->
<g id="Node000011" class="node">
<title>Node11</title>
<g id="a_Node000011"><a xlink:title=" ">
<polygon fill="#e0e0e0" stroke="#999999" points="133,-85 0,-85 0,-55 133,-55 133,-85"/>
<text text-anchor="start" x="8" y="-73" font-family="Helvetica,sans-Serif" font-size="10.00">emlabcpp/experimental</text>
<text text-anchor="middle" x="66.5" y="-62" font-family="Helvetica,sans-Serif" font-size="10.00">/string_buffer.h</text>
</a>
</g>
</g>
<!-- Node2&#45;&gt;Node11 -->
<g id="edge7_Node000002_Node000011" class="edge">
<title>Node2&#45;&gt;Node11</title>
<g id="a_edge7_Node000002_Node000011"><a xlink:title=" ">
<path fill="none" stroke="#63b8ff" d="M127.84,-187.87C87.05,-180.56 34.44,-168.12 21.5,-151 7.5,-132.48 24.01,-109.13 40.84,-92.45"/>
<polygon fill="#63b8ff" stroke="#63b8ff" points="43.57,-94.68 48.48,-85.29 38.79,-89.57 43.57,-94.68"/>
</a>
</g>
</g>
<!-- Node16 -->
<g id="Node000016" class="node">
<title>Node16</title>
<g id="a_Node000016"><a xlink:title=" ">
<polygon fill="#e0e0e0" stroke="#999999" points="164,-151 31,-151 31,-121 164,-121 164,-151"/>
<text text-anchor="start" x="39" y="-139" font-family="Helvetica,sans-Serif" font-size="10.00">emlabcpp/experimental</text>
<text text-anchor="middle" x="97.5" y="-128" font-family="Helvetica,sans-Serif" font-size="10.00">/function_view.h</text>
</a>
</g>
</g>
<!-- Node2&#45;&gt;Node16 -->
<g id="edge6_Node000002_Node000016" class="edge">
<title>Node2&#45;&gt;Node16</title>
<g id="a_edge6_Node000002_Node000016"><a xlink:title=" ">
<path fill="none" stroke="#63b8ff" d="M166.55,-186.87C155.76,-179.08 139.48,-167.32 125.43,-157.17"/>
<polygon fill="#63b8ff" stroke="#63b8ff" points="127.2,-154.13 117.04,-151.11 123.1,-159.81 127.2,-154.13"/>
</a>
</g>
</g>
<!-- Node4 -->
<g id="Node000004" class="node">
<title>Node4</title>
<g id="a_Node000004"><a xlink:href="base_8hpp.html" target="_top" xlink:title=" ">
<polygon fill="#fff0f0" stroke="red" points="285.5,-79.5 215.5,-79.5 215.5,-60.5 285.5,-60.5 285.5,-79.5"/>
<text text-anchor="middle" x="250.5" y="-67.5" font-family="Helvetica,sans-Serif" font-size="10.00">../base.hpp</text>
</a>
</g>
</g>
<!-- Node3&#45;&gt;Node4 -->
<g id="edge3_Node000003_Node000004" class="edge">
<title>Node3&#45;&gt;Node4</title>
<g id="a_edge3_Node000003_Node000004"><a xlink:title=" ">
<path fill="none" stroke="#63b8ff" d="M219.36,-126.37C224.75,-116.78 233.6,-101.05 240.49,-88.8"/>
<polygon fill="#63b8ff" stroke="#63b8ff" points="243.64,-90.34 245.49,-79.91 237.54,-86.91 243.64,-90.34"/>
</a>
</g>
</g>
<!-- Node3&#45;&gt;Node11 -->
<g id="edge5_Node000003_Node000011" class="edge">
<title>Node3&#45;&gt;Node11</title>
<g id="a_edge5_Node000003_Node000011"><a xlink:title=" ">
<path fill="none" stroke="#63b8ff" d="M194.54,-126.37C172.56,-116.87 136.61,-101.32 108.39,-89.11"/>
<polygon fill="#63b8ff" stroke="#63b8ff" points="109.71,-85.87 99.14,-85.12 106.93,-92.3 109.71,-85.87"/>
</a>
</g>
</g>
<!-- Node6 -->
<g id="Node000006" class="node">
<title>Node6</title>
<g id="a_Node000006"><a xlink:title=" ">
<polygon fill="#e0e0e0" stroke="#999999" points="306.5,-19 256.5,-19 256.5,0 306.5,0 306.5,-19"/>
<text text-anchor="middle" x="281.5" y="-7" font-family="Helvetica,sans-Serif" font-size="10.00">cstdint</text>
</a>
</g>
</g>
<!-- Node4&#45;&gt;Node6 -->
<g id="edge4_Node000004_Node000006" class="edge">
<title>Node4&#45;&gt;Node6</title>
<g id="a_edge4_Node000004_Node000006"><a xlink:title=" ">
<path fill="none" stroke="#63b8ff" d="M255.07,-60.37C259.56,-51.9 266.53,-38.74 272.19,-28.07"/>
<polygon fill="#63b8ff" stroke="#63b8ff" points="275.32,-29.64 276.91,-19.17 269.13,-26.36 275.32,-29.64"/>
</a>
</g>
</g>
<!-- Node17&#45;&gt;Node3 -->
<g id="edge10_Node000017_Node000003" class="edge">
<title>Node17&#45;&gt;Node3</title>
<g id="a_edge10_Node000017_Node000003"><a xlink:title=" ">
<path fill="none" stroke="#63b8ff" d="M329.87,-186.99C307.17,-177.16 269.6,-160.88 243.53,-149.58"/>
<polygon fill="#63b8ff" stroke="#63b8ff" points="244.72,-146.28 234.15,-145.52 241.94,-152.7 244.72,-146.28"/>
</a>
</g>
</g>
<!-- Node17&#45;&gt;Node4 -->
<g id="edge9_Node000017_Node000004" class="edge">
<title>Node17&#45;&gt;Node4</title>
<g id="a_edge9_Node000017_Node000004"><a xlink:title=" ">
<path fill="none" stroke="#63b8ff" d="M337.9,-186.8C327.15,-178.39 311.13,-164.91 299.5,-151 283.23,-131.55 268.63,-106.17 259.68,-89.26"/>
<polygon fill="#63b8ff" stroke="#63b8ff" points="262.58,-87.24 254.88,-79.96 256.36,-90.45 262.58,-87.24"/>
</a>
</g>
</g>
<!-- Node17&#45;&gt;Node6 -->
<g id="edge11_Node000017_Node000006" class="edge">
<title>Node17&#45;&gt;Node6</title>
<g id="a_edge11_Node000017_Node000006"><a xlink:title=" ">
<path fill="none" stroke="#63b8ff" d="M346.2,-186.99C342.74,-178.04 337.18,-163.56 332.5,-151 316.18,-107.19 297.57,-55.45 287.98,-28.64"/>
<polygon fill="#63b8ff" stroke="#63b8ff" points="291.22,-27.31 284.55,-19.07 284.63,-29.67 291.22,-27.31"/>
</a>
</g>
</g>
<!-- Node18 -->
<g id="Node000018" class="node">
<title>Node18</title>
<g id="a_Node000018"><a xlink:title=" ">
<polygon fill="#e0e0e0" stroke="#999999" points="461,-145.5 342,-145.5 342,-126.5 461,-126.5 461,-145.5"/>
<text text-anchor="middle" x="401.5" y="-133.5" font-family="Helvetica,sans-Serif" font-size="10.00">emlabcpp/outcome.h</text>
</a>
</g>
</g>
<!-- Node17&#45;&gt;Node18 -->
<g id="edge12_Node000017_Node000018" class="edge">
<title>Node17&#45;&gt;Node18</title>
<g id="a_edge12_Node000017_Node000018"><a xlink:title=" ">
<path fill="none" stroke="#63b8ff" d="M357.17,-186.87C365.01,-178.05 377.36,-164.16 387.04,-153.27"/>
<polygon fill="#63b8ff" stroke="#63b8ff" points="389.77,-155.47 393.8,-145.67 384.54,-150.82 389.77,-155.47"/>
</a>
</g>
</g>
<!-- Node19 -->
<g id="Node000019" class="node">
<title>Node19</title>
<g id="a_Node000019"><a xlink:title=" ">
<polygon fill="#e0e0e0" stroke="#999999" points="583.5,-145.5 479.5,-145.5 479.5,-126.5 583.5,-126.5 583.5,-145.5"/>
<text text-anchor="middle" x="531.5" y="-133.5" font-family="Helvetica,sans-Serif" font-size="10.00">emlabcpp/result.h</text>
</a>
</g>
</g>
<!-- Node17&#45;&gt;Node19 -->
<g id="edge13_Node000017_Node000019" class="edge">
<title>Node17&#45;&gt;Node19</title>
<g id="a_edge13_Node000017_Node000019"><a xlink:title=" ">
<path fill="none" stroke="#63b8ff" d="M375.96,-186.99C407.37,-176.9 459.9,-160.01 495.12,-148.69"/>
<polygon fill="#63b8ff" stroke="#63b8ff" points="496.55,-151.91 505,-145.52 494.41,-145.24 496.55,-151.91"/>
</a>
</g>
</g>
<!-- Node20 -->
<g id="Node000020" class="node">
<title>Node20</title>
<g id="a_Node000020"><a xlink:title=" ">
<polygon fill="#e0e0e0" stroke="#999999" points="641.5,-145.5 601.5,-145.5 601.5,-126.5 641.5,-126.5 641.5,-145.5"/>
<text text-anchor="middle" x="621.5" y="-133.5" font-family="Helvetica,sans-Serif" font-size="10.00">span</text>
</a>
</g>
</g>
<!-- Node17&#45;&gt;Node20 -->
<g id="edge14_Node000017_Node000020" class="edge">
<title>Node17&#45;&gt;Node20</title>
<g id="a_edge14_Node000017_Node000020"><a xlink:title=" ">
<path fill="none" stroke="#63b8ff" d="M406.54,-189.45C456.48,-183.12 530.53,-171.22 592.5,-151 593.73,-150.6 594.97,-150.16 596.21,-149.69"/>
<polygon fill="#63b8ff" stroke="#63b8ff" points="597.77,-152.82 605.56,-145.64 594.99,-146.4 597.77,-152.82"/>
</a>
</g>
</g>
<!-- Node22 -->
<g id="Node000022" class="node">
<title>Node22</title>
<g id="a_Node000022"><a xlink:title=" ">
<polygon fill="#e0e0e0" stroke="#999999" points="723.5,-145.5 659.5,-145.5 659.5,-126.5 723.5,-126.5 723.5,-145.5"/>
<text text-anchor="middle" x="691.5" y="-133.5" font-family="Helvetica,sans-Serif" font-size="10.00">algorithm</text>
</a>
</g>
</g>
<!-- Node21&#45;&gt;Node22 -->
<g id="edge16_Node000021_Node000022" class="edge">
<title>Node21&#45;&gt;Node22</title>
<g id="a_edge16_Node000021_Node000022"><a xlink:title=" ">
<path fill="none" stroke="#63b8ff" d="M723.04,-186.87C717.63,-178.31 709.19,-164.97 702.4,-154.24"/>
<polygon fill="#63b8ff" stroke="#63b8ff" points="705.29,-152.25 696.98,-145.67 699.37,-155.99 705.29,-152.25"/>
</a>
</g>
</g>
<!-- Node23 -->
<g id="Node000023" class="node">
<title>Node23</title>
<g id="a_Node000023"><a xlink:title=" ">
<polygon fill="#e0e0e0" stroke="#999999" points="791.5,-145.5 741.5,-145.5 741.5,-126.5 791.5,-126.5 791.5,-145.5"/>
<text text-anchor="middle" x="766.5" y="-133.5" font-family="Helvetica,sans-Serif" font-size="10.00">cstring</text>
</a>
</g>
</g>
<!-- Node21&#45;&gt;Node23 -->
<g id="edge17_Node000021_Node000023" class="edge">
<title>Node21&#45;&gt;Node23</title>
<g id="a_edge17_Node000021_Node000023"><a xlink:title=" ">
<path fill="none" stroke="#63b8ff" d="M734.11,-186.87C739.66,-178.31 748.33,-164.97 755.3,-154.24"/>
<polygon fill="#63b8ff" stroke="#63b8ff" points="758.36,-155.96 760.87,-145.67 752.49,-152.15 758.36,-155.96"/>
</a>
</g>
</g>
<!-- Node24 -->
<g id="Node000024" class="node">
<title>Node24</title>
<g id="a_Node000024"><a xlink:title=" ">
<polygon fill="#e0e0e0" stroke="#999999" points="883,-145.5 810,-145.5 810,-126.5 883,-126.5 883,-145.5"/>
<text text-anchor="middle" x="846.5" y="-133.5" font-family="Helvetica,sans-Serif" font-size="10.00">string_view</text>
</a>
</g>
</g>
<!-- Node21&#45;&gt;Node24 -->
<g id="edge18_Node000021_Node000024" class="edge">
<title>Node21&#45;&gt;Node24</title>
<g id="a_edge18_Node000021_Node000024"><a xlink:title=" ">
<path fill="none" stroke="#63b8ff" d="M745.66,-186.99C765.23,-177.29 797.47,-161.31 820.22,-150.03"/>
<polygon fill="#63b8ff" stroke="#63b8ff" points="821.92,-153.09 829.32,-145.52 818.81,-146.82 821.92,-153.09"/>
</a>
</g>
</g>
</g>
</svg>
