<?xml version="1.0" encoding="UTF-8" standalone="no"?>
<!DOCTYPE svg PUBLIC "-//W3C//DTD SVG 1.1//EN"
 "http://www.w3.org/Graphics/SVG/1.1/DTD/svg11.dtd">
<!-- Generated by graphviz version 2.43.0 (0)
 -->
<!-- Title: src/fw/main.cpp Pages: 1 -->
<svg width="1522pt" height="319pt"
 viewBox="0.00 0.00 1522.00 319.00" xmlns="http://www.w3.org/2000/svg" xmlns:xlink="http://www.w3.org/1999/xlink">
<g id="graph0" class="graph" transform="scale(1 1) rotate(0) translate(4 315)">
<title>src/fw/main.cpp</title>
<polygon fill="white" stroke="transparent" points="-4,4 -4,-315 1518,-315 1518,4 -4,4"/>
<!-- Node1 -->
<g id="node1" class="node">
<title>Node1</title>
<g id="a_node1"><a xlink:title=" ">
<polygon fill="#bfbfbf" stroke="black" points="994.5,-291.5 994.5,-310.5 1087.5,-310.5 1087.5,-291.5 994.5,-291.5"/>
<text text-anchor="middle" x="1041" y="-298.5" font-family="Helvetica,sans-Serif" font-size="10.00">src/fw/main.cpp</text>
</a>
</g>
</g>
<!-- Node2 -->
<g id="node2" class="node">
<title>Node2</title>
<g id="a_node2"><a xlink:href="board_8hpp.html" target="_top" xlink:title=" ">
<polygon fill="white" stroke="black" points="608,-230 608,-249 688,-249 688,-230 608,-230"/>
<text text-anchor="middle" x="648" y="-237" font-family="Helvetica,sans-Serif" font-size="10.00">fw/board.hpp</text>
</a>
</g>
</g>
<!-- Node1&#45;&gt;Node2 -->
<g id="edge1" class="edge">
<title>Node1&#45;&gt;Node2</title>
<path fill="none" stroke="midnightblue" d="M994.37,-292.94C920,-281.68 775.1,-259.74 698.41,-248.13"/>
<polygon fill="midnightblue" stroke="midnightblue" points="698.47,-244.6 688.05,-246.56 697.42,-251.52 698.47,-244.6"/>
</g>
<!-- Node18 -->
<g id="node7" class="node">
<title>Node18</title>
<g id="a_node7"><a xlink:href="protocol_8hpp.html" target="_top" xlink:title=" ">
<polygon fill="white" stroke="red" points="973.5,-112.5 973.5,-131.5 1050.5,-131.5 1050.5,-112.5 973.5,-112.5"/>
<text text-anchor="middle" x="1012" y="-119.5" font-family="Helvetica,sans-Serif" font-size="10.00">protocol.hpp</text>
</a>
</g>
</g>
<!-- Node1&#45;&gt;Node18 -->
<g id="edge30" class="edge">
<title>Node1&#45;&gt;Node18</title>
<path fill="none" stroke="midnightblue" d="M1039.98,-291.31C1037.45,-270.15 1030.45,-214.23 1022,-168 1020.4,-159.23 1018.3,-149.58 1016.43,-141.46"/>
<polygon fill="midnightblue" stroke="midnightblue" points="1019.81,-140.52 1014.11,-131.59 1012.99,-142.12 1019.81,-140.52"/>
</g>
<!-- Node10 -->
<g id="node8" class="node">
<title>Node10</title>
<g id="a_node8"><a xlink:title=" ">
<polygon fill="white" stroke="#bfbfbf" points="984,-56.5 984,-75.5 1108,-75.5 1108,-56.5 984,-56.5"/>
<text text-anchor="middle" x="1046" y="-63.5" font-family="Helvetica,sans-Serif" font-size="10.00">emlabcpp/algorithm.h</text>
</a>
</g>
</g>
<!-- Node1&#45;&gt;Node10 -->
<g id="edge31" class="edge">
<title>Node1&#45;&gt;Node10</title>
<path fill="none" stroke="midnightblue" d="M1043.42,-291.34C1050.56,-264.56 1070.45,-180.76 1060,-112 1058.63,-103 1055.81,-93.33 1053.05,-85.26"/>
<polygon fill="midnightblue" stroke="midnightblue" points="1056.31,-83.98 1049.6,-75.78 1049.73,-86.37 1056.31,-83.98"/>
</g>
<!-- Node32 -->
<g id="node12" class="node">
<title>Node32</title>
<g id="a_node12"><a xlink:href="globals_8hpp.html" target="_top" xlink:title=" ">
<polygon fill="white" stroke="red" points="939.5,-168.5 939.5,-187.5 1012.5,-187.5 1012.5,-168.5 939.5,-168.5"/>
<text text-anchor="middle" x="976" y="-175.5" font-family="Helvetica,sans-Serif" font-size="10.00">globals.hpp</text>
</a>
</g>
</g>
<!-- Node1&#45;&gt;Node32 -->
<g id="edge29" class="edge">
<title>Node1&#45;&gt;Node32</title>
<path fill="none" stroke="midnightblue" d="M1036.33,-291.3C1025.69,-271.5 999.52,-222.78 985.4,-196.49"/>
<polygon fill="midnightblue" stroke="midnightblue" points="988.45,-194.78 980.63,-187.62 982.28,-198.09 988.45,-194.78"/>
</g>
<!-- Node33 -->
<g id="node13" class="node">
<title>Node33</title>
<g id="a_node13"><a xlink:href="cfg__dispatcher_8hpp.html" target="_top" xlink:title=" ">
<polygon fill="white" stroke="black" points="0,-168.5 0,-187.5 122,-187.5 122,-168.5 0,-168.5"/>
<text text-anchor="middle" x="61" y="-175.5" font-family="Helvetica,sans-Serif" font-size="10.00">fw/cfg_dispatcher.hpp</text>
</a>
</g>
</g>
<!-- Node1&#45;&gt;Node33 -->
<g id="edge13" class="edge">
<title>Node1&#45;&gt;Node33</title>
<path fill="none" stroke="midnightblue" d="M994.2,-299.81C818.79,-298.83 206.29,-292.7 128,-255 101.94,-242.45 81.71,-214.66 70.58,-196.39"/>
<polygon fill="midnightblue" stroke="midnightblue" points="73.53,-194.5 65.48,-187.61 67.47,-198.01 73.53,-194.5"/>
</g>
<!-- Node34 -->
<g id="node14" class="node">
<title>Node34</title>
<g id="a_node14"><a xlink:href="core_8hpp.html" target="_top" xlink:title=" ">
<polygon fill="white" stroke="red" points="216.5,-112.5 216.5,-131.5 289.5,-131.5 289.5,-112.5 216.5,-112.5"/>
<text text-anchor="middle" x="253" y="-119.5" font-family="Helvetica,sans-Serif" font-size="10.00">fw/core.hpp</text>
</a>
</g>
</g>
<!-- Node1&#45;&gt;Node34 -->
<g id="edge20" class="edge">
<title>Node1&#45;&gt;Node34</title>
<path fill="none" stroke="midnightblue" d="M994.18,-300.37C879.81,-299.6 579.19,-287.49 355,-188 324.21,-174.34 291.95,-152.27 272.16,-137.7"/>
<polygon fill="midnightblue" stroke="midnightblue" points="274.1,-134.78 263.99,-131.59 269.9,-140.38 274.1,-134.78"/>
</g>
<!-- Node55 -->
<g id="node16" class="node">
<title>Node55</title>
<g id="a_node16"><a xlink:href="dispatcher_8hpp.html" target="_top" xlink:title=" ">
<polygon fill="white" stroke="black" points="137,-230 137,-249 239,-249 239,-230 137,-230"/>
<text text-anchor="middle" x="188" y="-237" font-family="Helvetica,sans-Serif" font-size="10.00">fw/dispatcher.hpp</text>
</a>
</g>
</g>
<!-- Node1&#45;&gt;Node55 -->
<g id="edge21" class="edge">
<title>Node1&#45;&gt;Node55</title>
<path fill="none" stroke="midnightblue" d="M994.11,-299.97C871.64,-299.32 532.25,-293.86 253,-255 246.08,-254.04 238.8,-252.72 231.71,-251.27"/>
<polygon fill="midnightblue" stroke="midnightblue" points="232.06,-247.76 221.55,-249.07 230.58,-254.61 232.06,-247.76"/>
</g>
<!-- Node56 -->
<g id="node18" class="node">
<title>Node56</title>
<g id="a_node18"><a xlink:title=" ">
<polygon fill="white" stroke="#bfbfbf" points="1107.5,-224.5 1107.5,-254.5 1216.5,-254.5 1216.5,-224.5 1107.5,-224.5"/>
<text text-anchor="start" x="1115.5" y="-242.5" font-family="Helvetica,sans-Serif" font-size="10.00">emlabcpp/iterators</text>
<text text-anchor="middle" x="1162" y="-231.5" font-family="Helvetica,sans-Serif" font-size="10.00">/numeric.h</text>
</a>
</g>
</g>
<!-- Node1&#45;&gt;Node56 -->
<g id="edge32" class="edge">
<title>Node1&#45;&gt;Node56</title>
<path fill="none" stroke="midnightblue" d="M1058.34,-291.48C1075.49,-283.04 1102.3,-269.86 1124.36,-259.01"/>
<polygon fill="midnightblue" stroke="midnightblue" points="1126.05,-262.08 1133.48,-254.52 1122.96,-255.79 1126.05,-262.08"/>
</g>
<!-- Node57 -->
<g id="node19" class="node">
<title>Node57</title>
<g id="a_node19"><a xlink:title=" ">
<polygon fill="white" stroke="#bfbfbf" points="1234.5,-230 1234.5,-249 1341.5,-249 1341.5,-230 1234.5,-230"/>
<text text-anchor="middle" x="1288" y="-237" font-family="Helvetica,sans-Serif" font-size="10.00">emlabcpp/match.h</text>
</a>
</g>
</g>
<!-- Node1&#45;&gt;Node57 -->
<g id="edge33" class="edge">
<title>Node1&#45;&gt;Node57</title>
<path fill="none" stroke="midnightblue" d="M1076.39,-291.48C1120.23,-280.92 1194.97,-262.91 1242.88,-251.37"/>
<polygon fill="midnightblue" stroke="midnightblue" points="1243.77,-254.75 1252.68,-249.01 1242.13,-247.95 1243.77,-254.75"/>
</g>
<!-- Node38 -->
<g id="node20" class="node">
<title>Node38</title>
<g id="a_node20"><a xlink:title=" ">
<polygon fill="white" stroke="#bfbfbf" points="1360,-230 1360,-249 1452,-249 1452,-230 1360,-230"/>
<text text-anchor="middle" x="1406" y="-237" font-family="Helvetica,sans-Serif" font-size="10.00">emlabcpp/pid.h</text>
</a>
</g>
</g>
<!-- Node1&#45;&gt;Node38 -->
<g id="edge34" class="edge">
<title>Node1&#45;&gt;Node38</title>
<path fill="none" stroke="midnightblue" d="M1087.5,-294.92C1148.39,-287.89 1258.28,-273.89 1351,-255 1356.01,-253.98 1361.25,-252.78 1366.41,-251.51"/>
<polygon fill="midnightblue" stroke="midnightblue" points="1367.35,-254.88 1376.17,-249.02 1365.62,-248.1 1367.35,-254.88"/>
</g>
<!-- Node58 -->
<g id="node21" class="node">
<title>Node58</title>
<g id="a_node21"><a xlink:title=" ">
<polygon fill="white" stroke="#bfbfbf" points="1470,-230 1470,-249 1514,-249 1514,-230 1470,-230"/>
<text text-anchor="middle" x="1492" y="-237" font-family="Helvetica,sans-Serif" font-size="10.00">string</text>
</a>
</g>
</g>
<!-- Node1&#45;&gt;Node58 -->
<g id="edge35" class="edge">
<title>Node1&#45;&gt;Node58</title>
<path fill="none" stroke="midnightblue" d="M1087.61,-299.98C1166.13,-298.86 1329.09,-291.81 1461,-255 1462.93,-254.46 1464.89,-253.81 1466.84,-253.09"/>
<polygon fill="midnightblue" stroke="midnightblue" points="1468.46,-256.2 1476.3,-249.07 1465.73,-249.76 1468.46,-256.2"/>
</g>
<!-- Node3 -->
<g id="node3" class="node">
<title>Node3</title>
<g id="a_node3"><a xlink:title=" ">
<polygon fill="white" stroke="#bfbfbf" points="371.5,-0.5 371.5,-19.5 438.5,-19.5 438.5,-0.5 371.5,-0.5"/>
<text text-anchor="middle" x="405" y="-7.5" font-family="Helvetica,sans-Serif" font-size="10.00">config.hpp</text>
</a>
</g>
</g>
<!-- Node2&#45;&gt;Node3 -->
<g id="edge2" class="edge">
<title>Node2&#45;&gt;Node3</title>
<path fill="none" stroke="midnightblue" d="M628.67,-229.84C612.88,-221.59 591.65,-207.53 582,-188 555.69,-134.74 640.06,-102.43 603,-56 584.08,-32.3 501.18,-20.13 448.83,-14.7"/>
<polygon fill="midnightblue" stroke="midnightblue" points="449.09,-11.21 438.79,-13.7 448.4,-18.17 449.09,-11.21"/>
</g>
<!-- Node4 -->
<g id="node4" class="node">
<title>Node4</title>
<g id="a_node4"><a xlink:href="acquisition_8hpp.html" target="_top" xlink:title=" ">
<polygon fill="white" stroke="red" points="182,-56.5 182,-75.5 324,-75.5 324,-56.5 182,-56.5"/>
<text text-anchor="middle" x="253" y="-63.5" font-family="Helvetica,sans-Serif" font-size="10.00">fw/drivers/acquisition.hpp</text>
</a>
</g>
</g>
<!-- Node2&#45;&gt;Node4 -->
<g id="edge3" class="edge">
<title>Node2&#45;&gt;Node4</title>
<path fill="none" stroke="midnightblue" d="M607.75,-237.51C536.54,-234.82 392.91,-224.84 362,-188 356.29,-181.19 357.65,-175.75 362,-168 377.04,-141.21 405.96,-158.79 421,-132 425.35,-124.25 426.41,-119.05 421,-112 408.88,-96.21 364.7,-84.75 324.68,-77.35"/>
<polygon fill="midnightblue" stroke="midnightblue" points="325.08,-73.86 314.62,-75.55 323.85,-80.75 325.08,-73.86"/>
</g>
<!-- Node16 -->
<g id="node5" class="node">
<title>Node16</title>
<g id="a_node5"><a xlink:href="clock_8hpp.html" target="_top" xlink:title=" ">
<polygon fill="white" stroke="red" points="591,-168.5 591,-187.5 705,-187.5 705,-168.5 591,-168.5"/>
<text text-anchor="middle" x="648" y="-175.5" font-family="Helvetica,sans-Serif" font-size="10.00">fw/drivers/clock.hpp</text>
</a>
</g>
</g>
<!-- Node2&#45;&gt;Node16 -->
<g id="edge4" class="edge">
<title>Node2&#45;&gt;Node16</title>
<path fill="none" stroke="midnightblue" d="M648,-229.98C648,-221.58 648,-208.48 648,-197.66"/>
<polygon fill="midnightblue" stroke="midnightblue" points="651.5,-197.51 648,-187.51 644.5,-197.51 651.5,-197.51"/>
</g>
<!-- Node17 -->
<g id="node6" class="node">
<title>Node17</title>
<g id="a_node6"><a xlink:href="comms_8hpp.html" target="_top" xlink:title=" ">
<polygon fill="white" stroke="red" points="371.5,-168.5 371.5,-187.5 496.5,-187.5 496.5,-168.5 371.5,-168.5"/>
<text text-anchor="middle" x="434" y="-175.5" font-family="Helvetica,sans-Serif" font-size="10.00">fw/drivers/comms.hpp</text>
</a>
</g>
</g>
<!-- Node2&#45;&gt;Node17 -->
<g id="edge5" class="edge">
<title>Node2&#45;&gt;Node17</title>
<path fill="none" stroke="midnightblue" d="M617.34,-229.98C579.76,-219.53 515.96,-201.79 474.4,-190.23"/>
<polygon fill="midnightblue" stroke="midnightblue" points="475.18,-186.82 464.6,-187.51 473.3,-193.56 475.18,-186.82"/>
</g>
<!-- Node26 -->
<g id="node9" class="node">
<title>Node26</title>
<g id="a_node9"><a xlink:href="debug__comms_8hpp.html" target="_top" xlink:title=" ">
<polygon fill="white" stroke="red" points="723,-168.5 723,-187.5 883,-187.5 883,-168.5 723,-168.5"/>
<text text-anchor="middle" x="803" y="-175.5" font-family="Helvetica,sans-Serif" font-size="10.00">fw/drivers/debug_comms.hpp</text>
</a>
</g>
</g>
<!-- Node2&#45;&gt;Node26 -->
<g id="edge8" class="edge">
<title>Node2&#45;&gt;Node26</title>
<path fill="none" stroke="midnightblue" d="M670.21,-229.98C696.68,-219.81 741.11,-202.76 771.22,-191.2"/>
<polygon fill="midnightblue" stroke="midnightblue" points="772.75,-194.36 780.83,-187.51 770.24,-187.83 772.75,-194.36"/>
</g>
<!-- Node29 -->
<g id="node10" class="node">
<title>Node29</title>
<g id="a_node10"><a xlink:href="hbridge_8hpp.html" target="_top" xlink:title=" ">
<polygon fill="white" stroke="red" points="342.5,-56.5 342.5,-75.5 467.5,-75.5 467.5,-56.5 342.5,-56.5"/>
<text text-anchor="middle" x="405" y="-63.5" font-family="Helvetica,sans-Serif" font-size="10.00">fw/drivers/hbridge.hpp</text>
</a>
</g>
</g>
<!-- Node2&#45;&gt;Node29 -->
<g id="edge9" class="edge">
<title>Node2&#45;&gt;Node29</title>
<path fill="none" stroke="midnightblue" d="M627.92,-229.89C607.38,-220.71 574.89,-205.16 549,-188 522.89,-170.7 455.04,-111.37 422.67,-82.72"/>
<polygon fill="midnightblue" stroke="midnightblue" points="424.71,-79.85 414.9,-75.83 420.06,-85.09 424.71,-79.85"/>
</g>
<!-- Node31 -->
<g id="node11" class="node">
<title>Node31</title>
<g id="a_node11"><a xlink:href="leds_8hpp.html" target="_top" xlink:title=" ">
<polygon fill="white" stroke="red" points="485.5,-56.5 485.5,-75.5 594.5,-75.5 594.5,-56.5 485.5,-56.5"/>
<text text-anchor="middle" x="540" y="-63.5" font-family="Helvetica,sans-Serif" font-size="10.00">fw/drivers/leds.hpp</text>
</a>
</g>
</g>
<!-- Node2&#45;&gt;Node31 -->
<g id="edge11" class="edge">
<title>Node2&#45;&gt;Node31</title>
<path fill="none" stroke="midnightblue" d="M688.06,-236.16C750.56,-231.58 866.73,-219.03 892,-188 897.61,-181.11 897.35,-175.1 892,-168 857.48,-122.18 696.67,-90.76 604.81,-76.22"/>
<polygon fill="midnightblue" stroke="midnightblue" points="605.2,-72.74 594.78,-74.65 604.12,-79.65 605.2,-72.74"/>
</g>
<!-- Node2&#45;&gt;Node32 -->
<g id="edge12" class="edge">
<title>Node2&#45;&gt;Node32</title>
<path fill="none" stroke="midnightblue" d="M688.22,-231.2C749.27,-220.13 865.05,-199.13 929.59,-187.42"/>
<polygon fill="midnightblue" stroke="midnightblue" points="930.27,-190.85 939.49,-185.62 929.02,-183.96 930.27,-190.85"/>
</g>
<!-- Node17&#45;&gt;Node18 -->
<g id="edge6" class="edge">
<title>Node17&#45;&gt;Node18</title>
<path fill="none" stroke="midnightblue" d="M496.68,-171.14C612.78,-160.3 858.96,-137.3 963.46,-127.53"/>
<polygon fill="midnightblue" stroke="midnightblue" points="963.79,-131.02 973.42,-126.6 963.14,-124.05 963.79,-131.02"/>
</g>
<!-- Node18&#45;&gt;Node10 -->
<g id="edge7" class="edge">
<title>Node18&#45;&gt;Node10</title>
<path fill="none" stroke="midnightblue" d="M1017.61,-112.08C1022.37,-104.53 1029.32,-93.49 1035.15,-84.23"/>
<polygon fill="midnightblue" stroke="midnightblue" points="1038.12,-86.08 1040.49,-75.75 1032.2,-82.35 1038.12,-86.08"/>
</g>
<!-- Node29&#45;&gt;Node3 -->
<g id="edge10" class="edge">
<title>Node29&#45;&gt;Node3</title>
<path fill="none" stroke="midnightblue" d="M405,-56.08C405,-49.01 405,-38.86 405,-29.99"/>
<polygon fill="midnightblue" stroke="midnightblue" points="408.5,-29.75 405,-19.75 401.5,-29.75 408.5,-29.75"/>
</g>
<!-- Node33&#45;&gt;Node3 -->
<g id="edge14" class="edge">
<title>Node33&#45;&gt;Node3</title>
<path fill="none" stroke="midnightblue" d="M59.56,-168.44C56.36,-146.25 51.27,-86.46 83,-56 121.97,-18.59 282.67,-11.97 361.29,-11"/>
<polygon fill="midnightblue" stroke="midnightblue" points="361.4,-14.5 371.36,-10.91 361.33,-7.5 361.4,-14.5"/>
</g>
<!-- Node33&#45;&gt;Node34 -->
<g id="edge15" class="edge">
<title>Node33&#45;&gt;Node34</title>
<path fill="none" stroke="midnightblue" d="M91.42,-168.44C124.28,-159.2 176.78,-144.44 212.97,-134.26"/>
<polygon fill="midnightblue" stroke="midnightblue" points="214.04,-137.59 222.72,-131.52 212.15,-130.85 214.04,-137.59"/>
</g>
<!-- Node34&#45;&gt;Node4 -->
<g id="edge17" class="edge">
<title>Node34&#45;&gt;Node4</title>
<path fill="none" stroke="midnightblue" d="M253,-112.08C253,-105.01 253,-94.86 253,-85.99"/>
<polygon fill="midnightblue" stroke="midnightblue" points="256.5,-85.75 253,-75.75 249.5,-85.75 256.5,-85.75"/>
</g>
<!-- Node34&#45;&gt;Node29 -->
<g id="edge18" class="edge">
<title>Node34&#45;&gt;Node29</title>
<path fill="none" stroke="midnightblue" d="M277.08,-112.44C302.54,-103.4 342.89,-89.06 371.46,-78.92"/>
<polygon fill="midnightblue" stroke="midnightblue" points="372.78,-82.16 381.03,-75.52 370.43,-75.57 372.78,-82.16"/>
</g>
<!-- Node34&#45;&gt;Node31 -->
<g id="edge19" class="edge">
<title>Node34&#45;&gt;Node31</title>
<path fill="none" stroke="midnightblue" d="M289.83,-113.59C292.59,-113.05 295.34,-112.51 298,-112 361.27,-99.79 433.95,-86.35 483.02,-77.37"/>
<polygon fill="midnightblue" stroke="midnightblue" points="483.91,-80.77 493.12,-75.52 482.65,-73.88 483.91,-80.77"/>
</g>
<!-- Node35 -->
<g id="node15" class="node">
<title>Node35</title>
<g id="a_node15"><a xlink:href="control_8hpp.html" target="_top" xlink:title=" ">
<polygon fill="white" stroke="red" points="92.5,-56.5 92.5,-75.5 163.5,-75.5 163.5,-56.5 92.5,-56.5"/>
<text text-anchor="middle" x="128" y="-63.5" font-family="Helvetica,sans-Serif" font-size="10.00">control.hpp</text>
</a>
</g>
</g>
<!-- Node34&#45;&gt;Node35 -->
<g id="edge16" class="edge">
<title>Node34&#45;&gt;Node35</title>
<path fill="none" stroke="midnightblue" d="M233.19,-112.44C212.71,-103.6 180.52,-89.69 157.14,-79.59"/>
<polygon fill="midnightblue" stroke="midnightblue" points="158.28,-76.27 147.71,-75.52 155.51,-82.7 158.28,-76.27"/>
</g>
<!-- Node55&#45;&gt;Node4 -->
<g id="edge23" class="edge">
<title>Node55&#45;&gt;Node4</title>
<path fill="none" stroke="midnightblue" d="M187.48,-229.96C186.55,-208.72 186.37,-152.34 207,-112 212.92,-100.42 222.96,-90.07 232.16,-82.23"/>
<polygon fill="midnightblue" stroke="midnightblue" points="234.61,-84.75 240.22,-75.76 230.23,-79.29 234.61,-84.75"/>
</g>
<!-- Node55&#45;&gt;Node17 -->
<g id="edge24" class="edge">
<title>Node55&#45;&gt;Node17</title>
<path fill="none" stroke="midnightblue" d="M223.25,-229.98C266.9,-219.42 341.34,-201.41 389.06,-189.87"/>
<polygon fill="midnightblue" stroke="midnightblue" points="389.92,-193.26 398.82,-187.51 388.28,-186.46 389.92,-193.26"/>
</g>
<!-- Node55&#45;&gt;Node33 -->
<g id="edge25" class="edge">
<title>Node55&#45;&gt;Node33</title>
<path fill="none" stroke="midnightblue" d="M169.8,-229.98C148.49,-219.99 112.97,-203.35 88.34,-191.81"/>
<polygon fill="midnightblue" stroke="midnightblue" points="89.7,-188.58 79.16,-187.51 86.73,-194.92 89.7,-188.58"/>
</g>
<!-- Node55&#45;&gt;Node35 -->
<g id="edge22" class="edge">
<title>Node55&#45;&gt;Node35</title>
<path fill="none" stroke="midnightblue" d="M184.94,-229.76C175.59,-203.04 147.25,-122.02 134.42,-85.36"/>
<polygon fill="midnightblue" stroke="midnightblue" points="137.59,-83.8 130.98,-75.52 130.98,-86.11 137.59,-83.8"/>
</g>
<!-- Node46 -->
<g id="node17" class="node">
<title>Node46</title>
<g id="a_node17"><a xlink:href="conversion_8hpp.html" target="_top" xlink:title=" ">
<polygon fill="white" stroke="red" points="307.5,-112.5 307.5,-131.5 412.5,-131.5 412.5,-112.5 307.5,-112.5"/>
<text text-anchor="middle" x="360" y="-119.5" font-family="Helvetica,sans-Serif" font-size="10.00">fw/conversion.hpp</text>
</a>
</g>
</g>
<!-- Node55&#45;&gt;Node46 -->
<g id="edge26" class="edge">
<title>Node55&#45;&gt;Node46</title>
<path fill="none" stroke="midnightblue" d="M200.93,-229.82C230.31,-210.09 302.37,-161.7 338.55,-137.41"/>
<polygon fill="midnightblue" stroke="midnightblue" points="340.57,-140.26 346.92,-131.78 336.67,-134.45 340.57,-140.26"/>
</g>
<!-- Node46&#45;&gt;Node4 -->
<g id="edge27" class="edge">
<title>Node46&#45;&gt;Node4</title>
<path fill="none" stroke="midnightblue" d="M342.81,-112.32C325.65,-103.66 299.05,-90.24 279.25,-80.25"/>
<polygon fill="midnightblue" stroke="midnightblue" points="280.65,-77.04 270.15,-75.65 277.5,-83.28 280.65,-77.04"/>
</g>
<!-- Node46&#45;&gt;Node29 -->
<g id="edge28" class="edge">
<title>Node46&#45;&gt;Node29</title>
<path fill="none" stroke="midnightblue" d="M367.43,-112.08C373.85,-104.38 383.31,-93.03 391.12,-83.65"/>
<polygon fill="midnightblue" stroke="midnightblue" points="393.99,-85.67 397.71,-75.75 388.62,-81.19 393.99,-85.67"/>
</g>
</g>
</svg>
