<?xml version="1.0" encoding="UTF-8" standalone="no"?>
<!DOCTYPE svg PUBLIC "-//W3C//DTD SVG 1.1//EN"
 "http://www.w3.org/Graphics/SVG/1.1/DTD/svg11.dtd">
<!-- Generated by graphviz version 2.43.0 (0)
 -->
<!-- Title: src/fw/main.cpp Pages: 1 -->
<svg width="1523pt" height="319pt"
 viewBox="0.00 0.00 1523.00 319.00" xmlns="http://www.w3.org/2000/svg" xmlns:xlink="http://www.w3.org/1999/xlink">
<g id="graph0" class="graph" transform="scale(1 1) rotate(0) translate(4 315)">
<title>src/fw/main.cpp</title>
<polygon fill="white" stroke="transparent" points="-4,4 -4,-315 1519,-315 1519,4 -4,4"/>
<!-- Node1 -->
<g id="node1" class="node">
<title>Node1</title>
<g id="a_node1"><a xlink:title=" ">
<polygon fill="#bfbfbf" stroke="black" points="955.5,-291.5 955.5,-310.5 1048.5,-310.5 1048.5,-291.5 955.5,-291.5"/>
<text text-anchor="middle" x="1002" y="-298.5" font-family="Helvetica,sans-Serif" font-size="10.00">src/fw/main.cpp</text>
</a>
</g>
</g>
<!-- Node2 -->
<g id="node2" class="node">
<title>Node2</title>
<g id="a_node2"><a xlink:href="board_8hpp.html" target="_top" xlink:title=" ">
<polygon fill="white" stroke="black" points="339,-168.5 339,-187.5 419,-187.5 419,-168.5 339,-168.5"/>
<text text-anchor="middle" x="379" y="-175.5" font-family="Helvetica,sans-Serif" font-size="10.00">fw/board.hpp</text>
</a>
</g>
</g>
<!-- Node1&#45;&gt;Node2 -->
<g id="edge1" class="edge">
<title>Node1&#45;&gt;Node2</title>
<path fill="none" stroke="midnightblue" d="M958.19,-291.49C845.83,-269.67 547.91,-211.81 429.02,-188.72"/>
<polygon fill="midnightblue" stroke="midnightblue" points="429.58,-185.26 419.09,-186.79 428.24,-192.13 429.58,-185.26"/>
</g>
<!-- Node17 -->
<g id="node8" class="node">
<title>Node17</title>
<g id="a_node8"><a xlink:href="protocol_8hpp.html" target="_top" xlink:title=" ">
<polygon fill="white" stroke="red" points="52.5,-56.5 52.5,-75.5 129.5,-75.5 129.5,-56.5 52.5,-56.5"/>
<text text-anchor="middle" x="91" y="-63.5" font-family="Helvetica,sans-Serif" font-size="10.00">protocol.hpp</text>
</a>
</g>
</g>
<!-- Node1&#45;&gt;Node17 -->
<g id="edge45" class="edge">
<title>Node1&#45;&gt;Node17</title>
<path fill="none" stroke="midnightblue" d="M955.5,-297.51C844.47,-290.44 556.32,-265.48 330,-188 246.11,-159.28 154.62,-106.23 113.37,-81.01"/>
<polygon fill="midnightblue" stroke="midnightblue" points="115.03,-77.92 104.68,-75.65 111.35,-83.88 115.03,-77.92"/>
</g>
<!-- Node23 -->
<g id="node9" class="node">
<title>Node23</title>
<g id="a_node9"><a xlink:title=" ">
<polygon fill="white" stroke="#bfbfbf" points="0,-0.5 0,-19.5 124,-19.5 124,-0.5 0,-0.5"/>
<text text-anchor="middle" x="62" y="-7.5" font-family="Helvetica,sans-Serif" font-size="10.00">emlabcpp/algorithm.h</text>
</a>
</g>
</g>
<!-- Node1&#45;&gt;Node23 -->
<g id="edge46" class="edge">
<title>Node1&#45;&gt;Node23</title>
<path fill="none" stroke="midnightblue" d="M955.49,-299.2C761.13,-295.26 24,-274.06 24,-179 24,-179 24,-179 24,-121 24,-86.81 40.6,-49.76 51.86,-28.57"/>
<polygon fill="midnightblue" stroke="midnightblue" points="54.95,-30.22 56.72,-19.77 48.82,-26.83 54.95,-30.22"/>
</g>
<!-- Node34 -->
<g id="node13" class="node">
<title>Node34</title>
<g id="a_node13"><a xlink:href="callbacks_8hpp.html" target="_top" xlink:title=" ">
<polygon fill="white" stroke="black" points="675,-168.5 675,-187.5 773,-187.5 773,-168.5 675,-168.5"/>
<text text-anchor="middle" x="724" y="-175.5" font-family="Helvetica,sans-Serif" font-size="10.00">fw/callbacks.hpp</text>
</a>
</g>
</g>
<!-- Node1&#45;&gt;Node34 -->
<g id="edge19" class="edge">
<title>Node1&#45;&gt;Node34</title>
<path fill="none" stroke="midnightblue" d="M975.09,-291.44C949.33,-283 909.54,-269.31 876,-255 829.97,-235.36 778.2,-208.37 748.51,-192.4"/>
<polygon fill="midnightblue" stroke="midnightblue" points="750.14,-189.31 739.68,-187.63 746.81,-195.47 750.14,-189.31"/>
</g>
<!-- Node44 -->
<g id="node16" class="node">
<title>Node44</title>
<g id="a_node16"><a xlink:href="cfg__dispatcher_8hpp.html" target="_top" xlink:title=" ">
<polygon fill="white" stroke="black" points="1013,-168.5 1013,-187.5 1135,-187.5 1135,-168.5 1013,-168.5"/>
<text text-anchor="middle" x="1074" y="-175.5" font-family="Helvetica,sans-Serif" font-size="10.00">fw/cfg_dispatcher.hpp</text>
</a>
</g>
</g>
<!-- Node1&#45;&gt;Node44 -->
<g id="edge25" class="edge">
<title>Node1&#45;&gt;Node44</title>
<path fill="none" stroke="midnightblue" d="M1007.18,-291.3C1018.96,-271.5 1047.95,-222.78 1063.59,-196.49"/>
<polygon fill="midnightblue" stroke="midnightblue" points="1066.76,-198.01 1068.87,-187.62 1060.75,-194.43 1066.76,-198.01"/>
</g>
<!-- Node47 -->
<g id="node19" class="node">
<title>Node47</title>
<g id="a_node19"><a xlink:href="core_8hpp.html" target="_top" xlink:title=" ">
<polygon fill="white" stroke="black" points="823.5,-168.5 823.5,-187.5 896.5,-187.5 896.5,-168.5 823.5,-168.5"/>
<text text-anchor="middle" x="860" y="-175.5" font-family="Helvetica,sans-Serif" font-size="10.00">fw/core.hpp</text>
</a>
</g>
</g>
<!-- Node1&#45;&gt;Node47 -->
<g id="edge32" class="edge">
<title>Node1&#45;&gt;Node47</title>
<path fill="none" stroke="midnightblue" d="M970.99,-291.5C949.88,-284.46 922.36,-272.72 903,-255 885.57,-239.05 873.43,-214.35 866.59,-197.47"/>
<polygon fill="midnightblue" stroke="midnightblue" points="869.69,-195.77 862.86,-187.67 863.15,-198.26 869.69,-195.77"/>
</g>
<!-- Node48 -->
<g id="node20" class="node">
<title>Node48</title>
<g id="a_node20"><a xlink:href="dispatcher_8hpp.html" target="_top" xlink:title=" ">
<polygon fill="white" stroke="black" points="912,-230 912,-249 1014,-249 1014,-230 912,-230"/>
<text text-anchor="middle" x="963" y="-237" font-family="Helvetica,sans-Serif" font-size="10.00">fw/dispatcher.hpp</text>
</a>
</g>
</g>
<!-- Node1&#45;&gt;Node48 -->
<g id="edge38" class="edge">
<title>Node1&#45;&gt;Node48</title>
<path fill="none" stroke="midnightblue" d="M996.41,-291.48C990.62,-282.64 981.41,-268.59 974.13,-257.48"/>
<polygon fill="midnightblue" stroke="midnightblue" points="976.99,-255.45 968.58,-249.01 971.13,-259.29 976.99,-255.45"/>
</g>
<!-- Node49 -->
<g id="node21" class="node">
<title>Node49</title>
<g id="a_node21"><a xlink:href="globals_8hpp.html" target="_top" xlink:title=" ">
<polygon fill="white" stroke="black" points="1197.5,-56.5 1197.5,-75.5 1284.5,-75.5 1284.5,-56.5 1197.5,-56.5"/>
<text text-anchor="middle" x="1241" y="-63.5" font-family="Helvetica,sans-Serif" font-size="10.00">fw/globals.hpp</text>
</a>
</g>
</g>
<!-- Node1&#45;&gt;Node49 -->
<g id="edge43" class="edge">
<title>Node1&#45;&gt;Node49</title>
<path fill="none" stroke="midnightblue" d="M1012.88,-291.47C1045.6,-265.82 1141.05,-190.93 1144,-188 1178.23,-154.03 1212.05,-108.36 1229.27,-83.99"/>
<polygon fill="midnightblue" stroke="midnightblue" points="1232.16,-85.97 1235.03,-75.77 1226.43,-81.96 1232.16,-85.97"/>
</g>
<!-- Node50 -->
<g id="node22" class="node">
<title>Node50</title>
<g id="a_node22"><a xlink:title=" ">
<polygon fill="white" stroke="#bfbfbf" points="1108.5,-224.5 1108.5,-254.5 1217.5,-254.5 1217.5,-224.5 1108.5,-224.5"/>
<text text-anchor="start" x="1116.5" y="-242.5" font-family="Helvetica,sans-Serif" font-size="10.00">emlabcpp/iterators</text>
<text text-anchor="middle" x="1163" y="-231.5" font-family="Helvetica,sans-Serif" font-size="10.00">/numeric.h</text>
</a>
</g>
</g>
<!-- Node1&#45;&gt;Node50 -->
<g id="edge47" class="edge">
<title>Node1&#45;&gt;Node50</title>
<path fill="none" stroke="midnightblue" d="M1025.07,-291.48C1048.6,-282.78 1085.81,-269.03 1115.65,-258"/>
<polygon fill="midnightblue" stroke="midnightblue" points="1116.89,-261.27 1125.06,-254.52 1114.46,-254.71 1116.89,-261.27"/>
</g>
<!-- Node51 -->
<g id="node23" class="node">
<title>Node51</title>
<g id="a_node23"><a xlink:title=" ">
<polygon fill="white" stroke="#bfbfbf" points="1235.5,-230 1235.5,-249 1342.5,-249 1342.5,-230 1235.5,-230"/>
<text text-anchor="middle" x="1289" y="-237" font-family="Helvetica,sans-Serif" font-size="10.00">emlabcpp/match.h</text>
</a>
</g>
</g>
<!-- Node1&#45;&gt;Node51 -->
<g id="edge48" class="edge">
<title>Node1&#45;&gt;Node51</title>
<path fill="none" stroke="midnightblue" d="M1046.28,-291.48C1091.52,-282.69 1163.76,-268.41 1226,-255 1231.42,-253.83 1237.09,-252.58 1242.71,-251.31"/>
<polygon fill="midnightblue" stroke="midnightblue" points="1243.75,-254.66 1252.73,-249.03 1242.2,-247.84 1243.75,-254.66"/>
</g>
<!-- Node37 -->
<g id="node24" class="node">
<title>Node37</title>
<g id="a_node24"><a xlink:title=" ">
<polygon fill="white" stroke="#bfbfbf" points="1361,-230 1361,-249 1453,-249 1453,-230 1361,-230"/>
<text text-anchor="middle" x="1407" y="-237" font-family="Helvetica,sans-Serif" font-size="10.00">emlabcpp/pid.h</text>
</a>
</g>
</g>
<!-- Node1&#45;&gt;Node37 -->
<g id="edge49" class="edge">
<title>Node1&#45;&gt;Node37</title>
<path fill="none" stroke="midnightblue" d="M1048.59,-295.86C1115.78,-289.48 1243.63,-275.74 1351,-255 1356.17,-254 1361.57,-252.8 1366.88,-251.53"/>
<polygon fill="midnightblue" stroke="midnightblue" points="1368.08,-254.84 1376.93,-249.02 1366.38,-248.05 1368.08,-254.84"/>
</g>
<!-- Node52 -->
<g id="node25" class="node">
<title>Node52</title>
<g id="a_node25"><a xlink:title=" ">
<polygon fill="white" stroke="#bfbfbf" points="1471,-230 1471,-249 1515,-249 1515,-230 1471,-230"/>
<text text-anchor="middle" x="1493" y="-237" font-family="Helvetica,sans-Serif" font-size="10.00">string</text>
</a>
</g>
</g>
<!-- Node1&#45;&gt;Node52 -->
<g id="edge50" class="edge">
<title>Node1&#45;&gt;Node52</title>
<path fill="none" stroke="midnightblue" d="M1048.64,-300.61C1132.8,-300.57 1314.96,-295.3 1462,-255 1463.93,-254.47 1465.9,-253.83 1467.85,-253.11"/>
<polygon fill="midnightblue" stroke="midnightblue" points="1469.47,-256.23 1477.31,-249.1 1466.73,-249.78 1469.47,-256.23"/>
</g>
<!-- Node3 -->
<g id="node3" class="node">
<title>Node3</title>
<g id="a_node3"><a xlink:href="config_8hpp.html" target="_top" xlink:title=" ">
<polygon fill="white" stroke="red" points="152.5,-0.5 152.5,-19.5 219.5,-19.5 219.5,-0.5 152.5,-0.5"/>
<text text-anchor="middle" x="186" y="-7.5" font-family="Helvetica,sans-Serif" font-size="10.00">config.hpp</text>
</a>
</g>
</g>
<!-- Node2&#45;&gt;Node3 -->
<g id="edge2" class="edge">
<title>Node2&#45;&gt;Node3</title>
<path fill="none" stroke="midnightblue" d="M338.96,-170.35C290.4,-159.87 210.85,-134.33 177,-76 168.71,-61.71 172.7,-42.75 177.72,-29"/>
<polygon fill="midnightblue" stroke="midnightblue" points="180.99,-30.24 181.57,-19.66 174.52,-27.57 180.99,-30.24"/>
</g>
<!-- Node5 -->
<g id="node4" class="node">
<title>Node5</title>
<g id="a_node4"><a xlink:href="acquisition_8hpp.html" target="_top" xlink:title=" ">
<polygon fill="white" stroke="red" points="729,-56.5 729,-75.5 871,-75.5 871,-56.5 729,-56.5"/>
<text text-anchor="middle" x="800" y="-63.5" font-family="Helvetica,sans-Serif" font-size="10.00">fw/drivers/acquisition.hpp</text>
</a>
</g>
</g>
<!-- Node2&#45;&gt;Node5 -->
<g id="edge3" class="edge">
<title>Node2&#45;&gt;Node5</title>
<path fill="none" stroke="midnightblue" d="M419.11,-169.77C462.31,-161.7 532.95,-147.7 593,-132 654.48,-115.92 724.82,-92.81 765.65,-78.91"/>
<polygon fill="midnightblue" stroke="midnightblue" points="767.04,-82.14 775.37,-75.59 764.78,-75.51 767.04,-82.14"/>
</g>
<!-- Node16 -->
<g id="node7" class="node">
<title>Node16</title>
<g id="a_node7"><a xlink:href="comms_8hpp.html" target="_top" xlink:title=" ">
<polygon fill="white" stroke="red" points="316.5,-112.5 316.5,-131.5 441.5,-131.5 441.5,-112.5 316.5,-112.5"/>
<text text-anchor="middle" x="379" y="-119.5" font-family="Helvetica,sans-Serif" font-size="10.00">fw/drivers/comms.hpp</text>
</a>
</g>
</g>
<!-- Node2&#45;&gt;Node16 -->
<g id="edge6" class="edge">
<title>Node2&#45;&gt;Node16</title>
<path fill="none" stroke="midnightblue" d="M379,-168.08C379,-161.01 379,-150.86 379,-141.99"/>
<polygon fill="midnightblue" stroke="midnightblue" points="382.5,-141.75 379,-131.75 375.5,-141.75 382.5,-141.75"/>
</g>
<!-- Node28 -->
<g id="node10" class="node">
<title>Node28</title>
<g id="a_node10"><a xlink:href="debug__comms_8hpp.html" target="_top" xlink:title=" ">
<polygon fill="white" stroke="red" points="314,-56.5 314,-75.5 474,-75.5 474,-56.5 314,-56.5"/>
<text text-anchor="middle" x="394" y="-63.5" font-family="Helvetica,sans-Serif" font-size="10.00">fw/drivers/debug_comms.hpp</text>
</a>
</g>
</g>
<!-- Node2&#45;&gt;Node28 -->
<g id="edge12" class="edge">
<title>Node2&#45;&gt;Node28</title>
<path fill="none" stroke="midnightblue" d="M355.51,-168.4C329.18,-157.34 292.03,-136.6 307,-112 316.46,-96.46 333.21,-86.05 349.5,-79.19"/>
<polygon fill="midnightblue" stroke="midnightblue" points="350.9,-82.4 358.99,-75.55 348.4,-75.87 350.9,-82.4"/>
</g>
<!-- Node31 -->
<g id="node11" class="node">
<title>Node31</title>
<g id="a_node11"><a xlink:href="hbridge_8hpp.html" target="_top" xlink:title=" ">
<polygon fill="white" stroke="red" points="459.5,-112.5 459.5,-131.5 584.5,-131.5 584.5,-112.5 459.5,-112.5"/>
<text text-anchor="middle" x="522" y="-119.5" font-family="Helvetica,sans-Serif" font-size="10.00">fw/drivers/hbridge.hpp</text>
</a>
</g>
</g>
<!-- Node2&#45;&gt;Node31 -->
<g id="edge14" class="edge">
<title>Node2&#45;&gt;Node31</title>
<path fill="none" stroke="midnightblue" d="M401.66,-168.44C425.4,-159.48 462.91,-145.31 489.74,-135.18"/>
<polygon fill="midnightblue" stroke="midnightblue" points="491.33,-138.32 499.45,-131.52 488.86,-131.77 491.33,-138.32"/>
</g>
<!-- Node33 -->
<g id="node12" class="node">
<title>Node33</title>
<g id="a_node12"><a xlink:href="leds_8hpp.html" target="_top" xlink:title=" ">
<polygon fill="white" stroke="red" points="186.5,-56.5 186.5,-75.5 295.5,-75.5 295.5,-56.5 186.5,-56.5"/>
<text text-anchor="middle" x="241" y="-63.5" font-family="Helvetica,sans-Serif" font-size="10.00">fw/drivers/leds.hpp</text>
</a>
</g>
</g>
<!-- Node2&#45;&gt;Node33 -->
<g id="edge17" class="edge">
<title>Node2&#45;&gt;Node33</title>
<path fill="none" stroke="midnightblue" d="M360.08,-168.34C343.38,-160.23 318.84,-147.11 300,-132 282.25,-117.77 265.13,-98.03 253.95,-84.05"/>
<polygon fill="midnightblue" stroke="midnightblue" points="256.43,-81.53 247.51,-75.8 250.91,-85.84 256.43,-81.53"/>
</g>
<!-- Node12 -->
<g id="node5" class="node">
<title>Node12</title>
<g id="a_node5"><a xlink:title=" ">
<polygon fill="white" stroke="#bfbfbf" points="675.5,-0.5 675.5,-19.5 824.5,-19.5 824.5,-0.5 675.5,-0.5"/>
<text text-anchor="middle" x="750" y="-7.5" font-family="Helvetica,sans-Serif" font-size="10.00">emlabcpp/static_function.h</text>
</a>
</g>
</g>
<!-- Node5&#45;&gt;Node12 -->
<g id="edge4" class="edge">
<title>Node5&#45;&gt;Node12</title>
<path fill="none" stroke="midnightblue" d="M791.74,-56.08C784.54,-48.3 773.89,-36.8 765.15,-27.37"/>
<polygon fill="midnightblue" stroke="midnightblue" points="767.47,-24.71 758.1,-19.75 762.33,-29.47 767.47,-24.71"/>
</g>
<!-- Node15 -->
<g id="node6" class="node">
<title>Node15</title>
<g id="a_node6"><a xlink:title=" ">
<polygon fill="white" stroke="#bfbfbf" points="451.5,-0.5 451.5,-19.5 552.5,-19.5 552.5,-0.5 451.5,-0.5"/>
<text text-anchor="middle" x="502" y="-7.5" font-family="Helvetica,sans-Serif" font-size="10.00">stm32g4xx_hal.h</text>
</a>
</g>
</g>
<!-- Node5&#45;&gt;Node15 -->
<g id="edge5" class="edge">
<title>Node5&#45;&gt;Node15</title>
<path fill="none" stroke="midnightblue" d="M752.78,-56.44C700.25,-46.92 615.39,-31.55 559.15,-21.36"/>
<polygon fill="midnightblue" stroke="midnightblue" points="559.46,-17.86 549,-19.52 558.21,-24.74 559.46,-17.86"/>
</g>
<!-- Node16&#45;&gt;Node12 -->
<g id="edge10" class="edge">
<title>Node16&#45;&gt;Node12</title>
<path fill="none" stroke="midnightblue" d="M407.8,-112.46C473.9,-92.86 636.52,-44.65 711.27,-22.48"/>
<polygon fill="midnightblue" stroke="midnightblue" points="712.62,-25.73 721.22,-19.53 710.63,-19.02 712.62,-25.73"/>
</g>
<!-- Node16&#45;&gt;Node15 -->
<g id="edge11" class="edge">
<title>Node16&#45;&gt;Node15</title>
<path fill="none" stroke="midnightblue" d="M419.27,-112.42C440.94,-105.86 466.53,-94.65 483,-76 494.3,-63.21 498.89,-44.02 500.75,-29.8"/>
<polygon fill="midnightblue" stroke="midnightblue" points="504.25,-29.98 501.73,-19.68 497.29,-29.3 504.25,-29.98"/>
</g>
<!-- Node16&#45;&gt;Node17 -->
<g id="edge7" class="edge">
<title>Node16&#45;&gt;Node17</title>
<path fill="none" stroke="midnightblue" d="M333.37,-112.44C280.47,-102.53 193.65,-86.25 139.54,-76.1"/>
<polygon fill="midnightblue" stroke="midnightblue" points="139.98,-72.62 129.51,-74.22 138.69,-79.5 139.98,-72.62"/>
</g>
<!-- Node17&#45;&gt;Node3 -->
<g id="edge8" class="edge">
<title>Node17&#45;&gt;Node3</title>
<path fill="none" stroke="midnightblue" d="M106.26,-56.32C121.22,-47.82 144.25,-34.73 161.73,-24.8"/>
<polygon fill="midnightblue" stroke="midnightblue" points="163.81,-27.64 170.77,-19.65 160.35,-21.55 163.81,-27.64"/>
</g>
<!-- Node17&#45;&gt;Node23 -->
<g id="edge9" class="edge">
<title>Node17&#45;&gt;Node23</title>
<path fill="none" stroke="midnightblue" d="M86.21,-56.08C82.24,-48.69 76.47,-37.95 71.57,-28.81"/>
<polygon fill="midnightblue" stroke="midnightblue" points="74.51,-26.91 66.7,-19.75 68.35,-30.22 74.51,-26.91"/>
</g>
<!-- Node28&#45;&gt;Node15 -->
<g id="edge13" class="edge">
<title>Node28&#45;&gt;Node15</title>
<path fill="none" stroke="midnightblue" d="M411.35,-56.32C428.67,-47.66 455.52,-34.24 475.5,-24.25"/>
<polygon fill="midnightblue" stroke="midnightblue" points="477.31,-27.26 484.69,-19.65 474.18,-21 477.31,-27.26"/>
</g>
<!-- Node31&#45;&gt;Node3 -->
<g id="edge15" class="edge">
<title>Node31&#45;&gt;Node3</title>
<path fill="none" stroke="midnightblue" d="M519.41,-112.13C514.71,-97.76 503.33,-69.63 483,-56 442.38,-28.78 301.9,-17.29 229.66,-13.09"/>
<polygon fill="midnightblue" stroke="midnightblue" points="229.69,-9.59 219.51,-12.53 229.3,-16.58 229.69,-9.59"/>
</g>
<!-- Node31&#45;&gt;Node12 -->
<g id="edge16" class="edge">
<title>Node31&#45;&gt;Node12</title>
<path fill="none" stroke="midnightblue" d="M539.89,-112.37C579.68,-93.17 675.71,-46.84 722.9,-24.07"/>
<polygon fill="midnightblue" stroke="midnightblue" points="724.71,-27.09 732.19,-19.59 721.66,-20.78 724.71,-27.09"/>
</g>
<!-- Node33&#45;&gt;Node15 -->
<g id="edge18" class="edge">
<title>Node33&#45;&gt;Node15</title>
<path fill="none" stroke="midnightblue" d="M282.36,-56.44C328.08,-46.98 401.76,-31.74 451.02,-21.55"/>
<polygon fill="midnightblue" stroke="midnightblue" points="451.75,-24.97 460.84,-19.52 450.34,-18.12 451.75,-24.97"/>
</g>
<!-- Node34&#45;&gt;Node5 -->
<g id="edge21" class="edge">
<title>Node34&#45;&gt;Node5</title>
<path fill="none" stroke="midnightblue" d="M717.96,-168.34C709.61,-155.23 696.8,-129.94 708,-112 717.76,-96.36 734.7,-86.01 751.4,-79.23"/>
<polygon fill="midnightblue" stroke="midnightblue" points="752.98,-82.38 761.15,-75.64 750.56,-75.81 752.98,-82.38"/>
</g>
<!-- Node34&#45;&gt;Node15 -->
<g id="edge24" class="edge">
<title>Node34&#45;&gt;Node15</title>
<path fill="none" stroke="midnightblue" d="M712.38,-168.31C676.41,-141.42 566.66,-59.35 521.61,-25.67"/>
<polygon fill="midnightblue" stroke="midnightblue" points="523.61,-22.79 513.51,-19.61 519.42,-28.4 523.61,-22.79"/>
</g>
<!-- Node34&#45;&gt;Node31 -->
<g id="edge22" class="edge">
<title>Node34&#45;&gt;Node31</title>
<path fill="none" stroke="midnightblue" d="M691.99,-168.44C657.27,-159.16 601.71,-144.31 563.62,-134.13"/>
<polygon fill="midnightblue" stroke="midnightblue" points="564.42,-130.72 553.86,-131.52 562.61,-137.48 564.42,-130.72"/>
</g>
<!-- Node35 -->
<g id="node14" class="node">
<title>Node35</title>
<g id="a_node14"><a xlink:href="control_8hpp.html" target="_top" xlink:title=" ">
<polygon fill="white" stroke="red" points="885.5,-112.5 885.5,-131.5 956.5,-131.5 956.5,-112.5 885.5,-112.5"/>
<text text-anchor="middle" x="921" y="-119.5" font-family="Helvetica,sans-Serif" font-size="10.00">control.hpp</text>
</a>
</g>
</g>
<!-- Node34&#45;&gt;Node35 -->
<g id="edge20" class="edge">
<title>Node34&#45;&gt;Node35</title>
<path fill="none" stroke="midnightblue" d="M755.22,-168.44C788.93,-159.2 842.8,-144.44 879.93,-134.26"/>
<polygon fill="midnightblue" stroke="midnightblue" points="881.21,-137.54 889.93,-131.52 879.36,-130.78 881.21,-137.54"/>
</g>
<!-- Node39 -->
<g id="node15" class="node">
<title>Node39</title>
<g id="a_node15"><a xlink:href="metrics_8hpp.html" target="_top" xlink:title=" ">
<polygon fill="white" stroke="red" points="717,-112.5 717,-131.5 791,-131.5 791,-112.5 717,-112.5"/>
<text text-anchor="middle" x="754" y="-119.5" font-family="Helvetica,sans-Serif" font-size="10.00">metrics.hpp</text>
</a>
</g>
</g>
<!-- Node34&#45;&gt;Node39 -->
<g id="edge23" class="edge">
<title>Node34&#45;&gt;Node39</title>
<path fill="none" stroke="midnightblue" d="M728.95,-168.08C733.1,-160.61 739.15,-149.72 744.27,-140.52"/>
<polygon fill="midnightblue" stroke="midnightblue" points="747.34,-142.19 749.14,-131.75 741.22,-138.79 747.34,-142.19"/>
</g>
<!-- Node44&#45;&gt;Node3 -->
<g id="edge26" class="edge">
<title>Node44&#45;&gt;Node3</title>
<path fill="none" stroke="midnightblue" d="M1090.5,-168.34C1110.19,-156.74 1139.14,-134.97 1128,-112 1110.47,-75.84 1094.62,-70.15 1057,-56 1017.98,-41.32 401.31,-18.59 229.9,-12.53"/>
<polygon fill="midnightblue" stroke="midnightblue" points="229.85,-9.02 219.73,-12.17 229.6,-16.02 229.85,-9.02"/>
</g>
<!-- Node44&#45;&gt;Node5 -->
<g id="edge28" class="edge">
<title>Node44&#45;&gt;Node5</title>
<path fill="none" stroke="midnightblue" d="M1085.36,-168.33C1101.24,-155.18 1126.47,-129.87 1111,-112 1096.1,-94.79 968.45,-80.89 881.39,-73.31"/>
<polygon fill="midnightblue" stroke="midnightblue" points="881.52,-69.8 871.25,-72.43 880.92,-76.78 881.52,-69.8"/>
</g>
<!-- Node44&#45;&gt;Node35 -->
<g id="edge27" class="edge">
<title>Node44&#45;&gt;Node35</title>
<path fill="none" stroke="midnightblue" d="M1049.76,-168.44C1024.13,-159.4 983.51,-145.06 954.76,-134.92"/>
<polygon fill="midnightblue" stroke="midnightblue" points="955.72,-131.54 945.13,-131.52 953.39,-138.15 955.72,-131.54"/>
</g>
<!-- Node45 -->
<g id="node17" class="node">
<title>Node45</title>
<g id="a_node17"><a xlink:href="monitor_8hpp.html" target="_top" xlink:title=" ">
<polygon fill="white" stroke="black" points="1013.5,-112.5 1013.5,-131.5 1102.5,-131.5 1102.5,-112.5 1013.5,-112.5"/>
<text text-anchor="middle" x="1058" y="-119.5" font-family="Helvetica,sans-Serif" font-size="10.00">fw/monitor.hpp</text>
</a>
</g>
</g>
<!-- Node44&#45;&gt;Node45 -->
<g id="edge29" class="edge">
<title>Node44&#45;&gt;Node45</title>
<path fill="none" stroke="midnightblue" d="M1071.36,-168.08C1069.21,-160.85 1066.12,-150.41 1063.45,-141.4"/>
<polygon fill="midnightblue" stroke="midnightblue" points="1066.79,-140.34 1060.59,-131.75 1060.08,-142.33 1066.79,-140.34"/>
</g>
<!-- Node45&#45;&gt;Node5 -->
<g id="edge30" class="edge">
<title>Node45&#45;&gt;Node5</title>
<path fill="none" stroke="midnightblue" d="M1017.12,-112.44C972.02,-103 899.39,-87.8 850.7,-77.61"/>
<polygon fill="midnightblue" stroke="midnightblue" points="851.19,-74.14 840.69,-75.52 849.76,-80.99 851.19,-74.14"/>
</g>
<!-- Node46 -->
<g id="node18" class="node">
<title>Node46</title>
<g id="a_node18"><a xlink:href="indication_8hpp.html" target="_top" xlink:title=" ">
<polygon fill="white" stroke="red" points="962,-56.5 962,-75.5 1048,-75.5 1048,-56.5 962,-56.5"/>
<text text-anchor="middle" x="1005" y="-63.5" font-family="Helvetica,sans-Serif" font-size="10.00">indication.hpp</text>
</a>
</g>
</g>
<!-- Node45&#45;&gt;Node46 -->
<g id="edge31" class="edge">
<title>Node45&#45;&gt;Node46</title>
<path fill="none" stroke="midnightblue" d="M1049.25,-112.08C1041.53,-104.22 1030.1,-92.57 1020.78,-83.08"/>
<polygon fill="midnightblue" stroke="midnightblue" points="1023.09,-80.44 1013.59,-75.75 1018.1,-85.34 1023.09,-80.44"/>
</g>
<!-- Node47&#45;&gt;Node5 -->
<g id="edge34" class="edge">
<title>Node47&#45;&gt;Node5</title>
<path fill="none" stroke="midnightblue" d="M855.29,-168.37C845.48,-150.38 822.66,-108.55 809.61,-84.63"/>
<polygon fill="midnightblue" stroke="midnightblue" points="812.55,-82.69 804.69,-75.59 806.4,-86.05 812.55,-82.69"/>
</g>
<!-- Node47&#45;&gt;Node35 -->
<g id="edge33" class="edge">
<title>Node47&#45;&gt;Node35</title>
<path fill="none" stroke="midnightblue" d="M869.8,-168.32C878.82,-160.34 892.41,-148.31 903.32,-138.65"/>
<polygon fill="midnightblue" stroke="midnightblue" points="905.85,-141.08 911.02,-131.83 901.21,-135.84 905.85,-141.08"/>
</g>
<!-- Node47&#45;&gt;Node39 -->
<g id="edge37" class="edge">
<title>Node47&#45;&gt;Node39</title>
<path fill="none" stroke="midnightblue" d="M842.97,-168.32C825.97,-159.66 799.62,-146.24 780.01,-136.25"/>
<polygon fill="midnightblue" stroke="midnightblue" points="781.49,-133.08 770.99,-131.65 778.31,-139.31 781.49,-133.08"/>
</g>
<!-- Node47&#45;&gt;Node45 -->
<g id="edge35" class="edge">
<title>Node47&#45;&gt;Node45</title>
<path fill="none" stroke="midnightblue" d="M891.37,-168.44C925.26,-159.2 979.4,-144.44 1016.72,-134.26"/>
<polygon fill="midnightblue" stroke="midnightblue" points="1018.05,-137.52 1026.77,-131.52 1016.2,-130.77 1018.05,-137.52"/>
</g>
<!-- Node47&#45;&gt;Node46 -->
<g id="edge36" class="edge">
<title>Node47&#45;&gt;Node46</title>
<path fill="none" stroke="midnightblue" d="M859.67,-168.22C859.64,-154.48 861.61,-127.82 876,-112 895.46,-90.61 925.65,-79.39 951.93,-73.5"/>
<polygon fill="midnightblue" stroke="midnightblue" points="952.68,-76.92 961.78,-71.49 951.28,-70.06 952.68,-76.92"/>
</g>
<!-- Node48&#45;&gt;Node5 -->
<g id="edge40" class="edge">
<title>Node48&#45;&gt;Node5</title>
<path fill="none" stroke="midnightblue" d="M966.46,-229.7C974.61,-207.38 992.33,-147.78 965,-112 953.04,-96.34 909.11,-84.82 869.59,-77.36"/>
<polygon fill="midnightblue" stroke="midnightblue" points="870.13,-73.9 859.66,-75.55 868.87,-80.78 870.13,-73.9"/>
</g>
<!-- Node48&#45;&gt;Node16 -->
<g id="edge41" class="edge">
<title>Node48&#45;&gt;Node16</title>
<path fill="none" stroke="midnightblue" d="M911.87,-230.67C852.56,-221.39 751.94,-205.02 666,-188 579.9,-170.94 480.1,-147.5 423.77,-133.93"/>
<polygon fill="midnightblue" stroke="midnightblue" points="424.31,-130.46 413.77,-131.52 422.67,-137.27 424.31,-130.46"/>
</g>
<!-- Node48&#45;&gt;Node35 -->
<g id="edge39" class="edge">
<title>Node48&#45;&gt;Node35</title>
<path fill="none" stroke="midnightblue" d="M959.84,-229.82C953.03,-211.09 936.83,-166.55 927.65,-141.29"/>
<polygon fill="midnightblue" stroke="midnightblue" points="930.9,-139.98 924.19,-131.78 924.32,-142.38 930.9,-139.98"/>
</g>
<!-- Node48&#45;&gt;Node44 -->
<g id="edge42" class="edge">
<title>Node48&#45;&gt;Node44</title>
<path fill="none" stroke="midnightblue" d="M978.9,-229.98C997.28,-220.12 1027.76,-203.79 1049.24,-192.27"/>
<polygon fill="midnightblue" stroke="midnightblue" points="1050.97,-195.32 1058.13,-187.51 1047.66,-189.15 1050.97,-195.32"/>
</g>
<!-- Node49&#45;&gt;Node12 -->
<g id="edge44" class="edge">
<title>Node49&#45;&gt;Node12</title>
<path fill="none" stroke="midnightblue" d="M1197.33,-57.98C1192.5,-57.28 1187.65,-56.6 1183,-56 1062.42,-40.39 922.38,-26.63 834.97,-18.56"/>
<polygon fill="midnightblue" stroke="midnightblue" points="835.12,-15.05 824.84,-17.62 834.48,-22.02 835.12,-15.05"/>
</g>
</g>
</svg>
