<?xml version="1.0" encoding="UTF-8" standalone="no"?>
<!DOCTYPE svg PUBLIC "-//W3C//DTD SVG 1.1//EN"
 "http://www.w3.org/Graphics/SVG/1.1/DTD/svg11.dtd">
<!-- Generated by graphviz version 2.43.0 (0)
 -->
<!-- Title: src/fw/main.cpp Pages: 1 -->
<svg width="1404pt" height="319pt"
 viewBox="0.00 0.00 1403.58 319.00" xmlns="http://www.w3.org/2000/svg" xmlns:xlink="http://www.w3.org/1999/xlink">
<g id="graph0" class="graph" transform="scale(1 1) rotate(0) translate(4 315)">
<title>src/fw/main.cpp</title>
<polygon fill="white" stroke="transparent" points="-4,4 -4,-315 1399.58,-315 1399.58,4 -4,4"/>
<!-- Node1 -->
<g id="node1" class="node">
<title>Node1</title>
<g id="a_node1"><a xlink:title=" ">
<polygon fill="#bfbfbf" stroke="black" points="876.08,-291.5 876.08,-310.5 969.08,-310.5 969.08,-291.5 876.08,-291.5"/>
<text text-anchor="middle" x="922.58" y="-298.5" font-family="Helvetica,sans-Serif" font-size="10.00">src/fw/main.cpp</text>
</a>
</g>
</g>
<!-- Node2 -->
<g id="node2" class="node">
<title>Node2</title>
<g id="a_node2"><a xlink:href="board_8hpp.html" target="_top" xlink:title=" ">
<polygon fill="white" stroke="black" points="316.58,-230 316.58,-249 396.58,-249 396.58,-230 316.58,-230"/>
<text text-anchor="middle" x="356.58" y="-237" font-family="Helvetica,sans-Serif" font-size="10.00">fw/board.hpp</text>
</a>
</g>
</g>
<!-- Node1&#45;&gt;Node2 -->
<g id="edge1" class="edge">
<title>Node1&#45;&gt;Node2</title>
<path fill="none" stroke="midnightblue" d="M875.84,-296.13C792.23,-289.05 611.55,-273.07 459.58,-255 442.35,-252.95 423.55,-250.4 406.78,-248.01"/>
<polygon fill="midnightblue" stroke="midnightblue" points="407.03,-244.51 396.63,-246.55 406.03,-251.44 407.03,-244.51"/>
</g>
<!-- Node19 -->
<g id="node7" class="node">
<title>Node19</title>
<g id="a_node7"><a xlink:href="protocol_8hpp.html" target="_top" xlink:title=" ">
<polygon fill="white" stroke="red" points="855.08,-112.5 855.08,-131.5 932.08,-131.5 932.08,-112.5 855.08,-112.5"/>
<text text-anchor="middle" x="893.58" y="-119.5" font-family="Helvetica,sans-Serif" font-size="10.00">protocol.hpp</text>
</a>
</g>
</g>
<!-- Node1&#45;&gt;Node19 -->
<g id="edge27" class="edge">
<title>Node1&#45;&gt;Node19</title>
<path fill="none" stroke="midnightblue" d="M921.56,-291.31C919.02,-270.15 912.03,-214.23 903.58,-168 901.97,-159.23 899.87,-149.58 898.01,-141.46"/>
<polygon fill="midnightblue" stroke="midnightblue" points="901.38,-140.52 895.69,-131.59 894.57,-142.12 901.38,-140.52"/>
</g>
<!-- Node16 -->
<g id="node8" class="node">
<title>Node16</title>
<g id="a_node8"><a xlink:title=" ">
<polygon fill="white" stroke="#bfbfbf" points="865.58,-56.5 865.58,-75.5 989.58,-75.5 989.58,-56.5 865.58,-56.5"/>
<text text-anchor="middle" x="927.58" y="-63.5" font-family="Helvetica,sans-Serif" font-size="10.00">emlabcpp/algorithm.h</text>
</a>
</g>
</g>
<!-- Node1&#45;&gt;Node16 -->
<g id="edge28" class="edge">
<title>Node1&#45;&gt;Node16</title>
<path fill="none" stroke="midnightblue" d="M924.99,-291.34C932.14,-264.56 952.02,-180.76 941.58,-112 940.21,-103 937.39,-93.33 934.63,-85.26"/>
<polygon fill="midnightblue" stroke="midnightblue" points="937.89,-83.98 931.18,-75.78 931.31,-86.37 937.89,-83.98"/>
</g>
<!-- Node32 -->
<g id="node12" class="node">
<title>Node32</title>
<g id="a_node12"><a xlink:href="globals_8hpp.html" target="_top" xlink:title=" ">
<polygon fill="white" stroke="red" points="423.08,-168.5 423.08,-187.5 496.08,-187.5 496.08,-168.5 423.08,-168.5"/>
<text text-anchor="middle" x="459.58" y="-175.5" font-family="Helvetica,sans-Serif" font-size="10.00">globals.hpp</text>
</a>
</g>
</g>
<!-- Node1&#45;&gt;Node32 -->
<g id="edge26" class="edge">
<title>Node1&#45;&gt;Node32</title>
<path fill="none" stroke="midnightblue" d="M875.95,-299.77C781.43,-298.53 571.05,-291.61 510.58,-255 488.76,-241.79 474.25,-215.27 466.46,-197.33"/>
<polygon fill="midnightblue" stroke="midnightblue" points="469.65,-195.87 462.65,-187.91 463.16,-198.5 469.65,-195.87"/>
</g>
<!-- Node33 -->
<g id="node13" class="node">
<title>Node33</title>
<g id="a_node13"><a xlink:href="cfg__dispatcher_8hpp.html" target="_top" xlink:title=" ">
<polygon fill="white" stroke="black" points="552.58,-168.5 552.58,-187.5 674.58,-187.5 674.58,-168.5 552.58,-168.5"/>
<text text-anchor="middle" x="613.58" y="-175.5" font-family="Helvetica,sans-Serif" font-size="10.00">fw/cfg_dispatcher.hpp</text>
</a>
</g>
</g>
<!-- Node1&#45;&gt;Node33 -->
<g id="edge13" class="edge">
<title>Node1&#45;&gt;Node33</title>
<path fill="none" stroke="midnightblue" d="M875.83,-300.17C824.71,-298.43 741.9,-289.79 680.58,-255 655.79,-240.94 635.54,-214.24 624.02,-196.53"/>
<polygon fill="midnightblue" stroke="midnightblue" points="626.8,-194.38 618.54,-187.75 620.86,-198.09 626.8,-194.38"/>
</g>
<!-- Node34 -->
<g id="node14" class="node">
<title>Node34</title>
<g id="a_node14"><a xlink:href="core_8hpp.html" target="_top" xlink:title=" ">
<polygon fill="white" stroke="red" points="488.08,-112.5 488.08,-131.5 561.08,-131.5 561.08,-112.5 488.08,-112.5"/>
<text text-anchor="middle" x="524.58" y="-119.5" font-family="Helvetica,sans-Serif" font-size="10.00">fw/core.hpp</text>
</a>
</g>
</g>
<!-- Node1&#45;&gt;Node34 -->
<g id="edge20" class="edge">
<title>Node1&#45;&gt;Node34</title>
<path fill="none" stroke="midnightblue" d="M875.98,-298.85C818.65,-296.03 719.26,-286.55 640.58,-255 591.94,-235.5 574.25,-230.48 543.58,-188 533.79,-174.45 529.01,-155.9 526.7,-142.08"/>
<polygon fill="midnightblue" stroke="midnightblue" points="530.12,-141.23 525.28,-131.81 523.18,-142.19 530.12,-141.23"/>
</g>
<!-- Node53 -->
<g id="node16" class="node">
<title>Node53</title>
<g id="a_node16"><a xlink:href="dispatcher_8hpp.html" target="_top" xlink:title=" ">
<polygon fill="white" stroke="black" points="689.58,-230 689.58,-249 791.58,-249 791.58,-230 689.58,-230"/>
<text text-anchor="middle" x="740.58" y="-237" font-family="Helvetica,sans-Serif" font-size="10.00">fw/dispatcher.hpp</text>
</a>
</g>
</g>
<!-- Node1&#45;&gt;Node53 -->
<g id="edge21" class="edge">
<title>Node1&#45;&gt;Node53</title>
<path fill="none" stroke="midnightblue" d="M896.5,-291.48C865.01,-281.18 811.88,-263.81 776.52,-252.25"/>
<polygon fill="midnightblue" stroke="midnightblue" points="777.2,-248.79 766.6,-249.01 775.02,-255.44 777.2,-248.79"/>
</g>
<!-- Node54 -->
<g id="node17" class="node">
<title>Node54</title>
<g id="a_node17"><a xlink:title=" ">
<polygon fill="white" stroke="#bfbfbf" points="989.08,-224.5 989.08,-254.5 1098.08,-254.5 1098.08,-224.5 989.08,-224.5"/>
<text text-anchor="start" x="997.08" y="-242.5" font-family="Helvetica,sans-Serif" font-size="10.00">emlabcpp/iterators</text>
<text text-anchor="middle" x="1043.58" y="-231.5" font-family="Helvetica,sans-Serif" font-size="10.00">/numeric.h</text>
</a>
</g>
</g>
<!-- Node1&#45;&gt;Node54 -->
<g id="edge29" class="edge">
<title>Node1&#45;&gt;Node54</title>
<path fill="none" stroke="midnightblue" d="M939.91,-291.48C957.07,-283.04 983.88,-269.86 1005.94,-259.01"/>
<polygon fill="midnightblue" stroke="midnightblue" points="1007.63,-262.08 1015.06,-254.52 1004.54,-255.79 1007.63,-262.08"/>
</g>
<!-- Node55 -->
<g id="node18" class="node">
<title>Node55</title>
<g id="a_node18"><a xlink:title=" ">
<polygon fill="white" stroke="#bfbfbf" points="1116.08,-230 1116.08,-249 1223.08,-249 1223.08,-230 1116.08,-230"/>
<text text-anchor="middle" x="1169.58" y="-237" font-family="Helvetica,sans-Serif" font-size="10.00">emlabcpp/match.h</text>
</a>
</g>
</g>
<!-- Node1&#45;&gt;Node55 -->
<g id="edge30" class="edge">
<title>Node1&#45;&gt;Node55</title>
<path fill="none" stroke="midnightblue" d="M957.96,-291.48C1001.8,-280.92 1076.54,-262.91 1124.46,-251.37"/>
<polygon fill="midnightblue" stroke="midnightblue" points="1125.35,-254.75 1134.25,-249.01 1123.71,-247.95 1125.35,-254.75"/>
</g>
<!-- Node38 -->
<g id="node19" class="node">
<title>Node38</title>
<g id="a_node19"><a xlink:title=" ">
<polygon fill="white" stroke="#bfbfbf" points="1241.58,-230 1241.58,-249 1333.58,-249 1333.58,-230 1241.58,-230"/>
<text text-anchor="middle" x="1287.58" y="-237" font-family="Helvetica,sans-Serif" font-size="10.00">emlabcpp/pid.h</text>
</a>
</g>
</g>
<!-- Node1&#45;&gt;Node38 -->
<g id="edge31" class="edge">
<title>Node1&#45;&gt;Node38</title>
<path fill="none" stroke="midnightblue" d="M969.08,-294.92C1029.96,-287.89 1139.85,-273.89 1232.58,-255 1237.59,-253.98 1242.82,-252.78 1247.99,-251.51"/>
<polygon fill="midnightblue" stroke="midnightblue" points="1248.92,-254.88 1257.75,-249.02 1247.19,-248.1 1248.92,-254.88"/>
</g>
<!-- Node56 -->
<g id="node20" class="node">
<title>Node56</title>
<g id="a_node20"><a xlink:title=" ">
<polygon fill="white" stroke="#bfbfbf" points="1351.58,-230 1351.58,-249 1395.58,-249 1395.58,-230 1351.58,-230"/>
<text text-anchor="middle" x="1373.58" y="-237" font-family="Helvetica,sans-Serif" font-size="10.00">string</text>
</a>
</g>
</g>
<!-- Node1&#45;&gt;Node56 -->
<g id="edge32" class="edge">
<title>Node1&#45;&gt;Node56</title>
<path fill="none" stroke="midnightblue" d="M969.19,-299.98C1047.7,-298.86 1210.66,-291.81 1342.58,-255 1344.51,-254.46 1346.47,-253.81 1348.42,-253.09"/>
<polygon fill="midnightblue" stroke="midnightblue" points="1350.04,-256.2 1357.87,-249.07 1347.3,-249.76 1350.04,-256.2"/>
</g>
<!-- Node3 -->
<g id="node3" class="node">
<title>Node3</title>
<g id="a_node3"><a xlink:title=" ">
<polygon fill="white" stroke="#bfbfbf" points="108.08,-0.5 108.08,-19.5 175.08,-19.5 175.08,-0.5 108.08,-0.5"/>
<text text-anchor="middle" x="141.58" y="-7.5" font-family="Helvetica,sans-Serif" font-size="10.00">config.hpp</text>
</a>
</g>
</g>
<!-- Node2&#45;&gt;Node3 -->
<g id="edge2" class="edge">
<title>Node2&#45;&gt;Node3</title>
<path fill="none" stroke="midnightblue" d="M316.41,-238.8C234.8,-238.46 54.04,-232.58 15.58,-188 -25.83,-140.01 24.47,-100.53 69.58,-56 82.57,-43.17 99.84,-32.22 114.22,-24.34"/>
<polygon fill="midnightblue" stroke="midnightblue" points="115.96,-27.37 123.17,-19.61 112.69,-21.18 115.96,-27.37"/>
</g>
<!-- Node4 -->
<g id="node4" class="node">
<title>Node4</title>
<g id="a_node4"><a xlink:href="acquisition_8hpp.html" target="_top" xlink:title=" ">
<polygon fill="white" stroke="red" points="453.58,-56.5 453.58,-75.5 595.58,-75.5 595.58,-56.5 453.58,-56.5"/>
<text text-anchor="middle" x="524.58" y="-63.5" font-family="Helvetica,sans-Serif" font-size="10.00">fw/drivers/acquisition.hpp</text>
</a>
</g>
</g>
<!-- Node2&#45;&gt;Node4 -->
<g id="edge3" class="edge">
<title>Node2&#45;&gt;Node4</title>
<path fill="none" stroke="midnightblue" d="M362.85,-229.91C372.95,-216.27 393.7,-189.07 413.58,-168 444.17,-135.56 483.47,-101.36 506.16,-82.25"/>
<polygon fill="midnightblue" stroke="midnightblue" points="508.56,-84.8 513.99,-75.69 504.07,-79.43 508.56,-84.8"/>
</g>
<!-- Node10 -->
<g id="node5" class="node">
<title>Node10</title>
<g id="a_node5"><a xlink:href="clock_8hpp.html" target="_top" xlink:title=" ">
<polygon fill="white" stroke="red" points="36.58,-168.5 36.58,-187.5 150.58,-187.5 150.58,-168.5 36.58,-168.5"/>
<text text-anchor="middle" x="93.58" y="-175.5" font-family="Helvetica,sans-Serif" font-size="10.00">fw/drivers/clock.hpp</text>
</a>
</g>
</g>
<!-- Node2&#45;&gt;Node10 -->
<g id="edge4" class="edge">
<title>Node2&#45;&gt;Node10</title>
<path fill="none" stroke="midnightblue" d="M318.89,-229.98C272.02,-219.37 191.97,-201.26 140.98,-189.72"/>
<polygon fill="midnightblue" stroke="midnightblue" points="141.71,-186.3 131.19,-187.51 140.17,-193.13 141.71,-186.3"/>
</g>
<!-- Node18 -->
<g id="node6" class="node">
<title>Node18</title>
<g id="a_node6"><a xlink:href="comms_8hpp.html" target="_top" xlink:title=" ">
<polygon fill="white" stroke="red" points="769.08,-168.5 769.08,-187.5 894.08,-187.5 894.08,-168.5 769.08,-168.5"/>
<text text-anchor="middle" x="831.58" y="-175.5" font-family="Helvetica,sans-Serif" font-size="10.00">fw/drivers/comms.hpp</text>
</a>
</g>
</g>
<!-- Node2&#45;&gt;Node18 -->
<g id="edge5" class="edge">
<title>Node2&#45;&gt;Node18</title>
<path fill="none" stroke="midnightblue" d="M396.66,-233.48C476.67,-223.46 657.18,-200.85 758.7,-188.13"/>
<polygon fill="midnightblue" stroke="midnightblue" points="759.38,-191.57 768.87,-186.85 758.51,-184.62 759.38,-191.57"/>
</g>
<!-- Node26 -->
<g id="node9" class="node">
<title>Node26</title>
<g id="a_node9"><a xlink:href="debug__comms_8hpp.html" target="_top" xlink:title=" ">
<polygon fill="white" stroke="red" points="168.58,-168.5 168.58,-187.5 328.58,-187.5 328.58,-168.5 168.58,-168.5"/>
<text text-anchor="middle" x="248.58" y="-175.5" font-family="Helvetica,sans-Serif" font-size="10.00">fw/drivers/debug_comms.hpp</text>
</a>
</g>
</g>
<!-- Node2&#45;&gt;Node26 -->
<g id="edge8" class="edge">
<title>Node2&#45;&gt;Node26</title>
<path fill="none" stroke="midnightblue" d="M341.1,-229.98C323.3,-220.17 293.83,-203.93 272.94,-192.42"/>
<polygon fill="midnightblue" stroke="midnightblue" points="274.47,-189.27 264.02,-187.51 271.09,-195.4 274.47,-189.27"/>
</g>
<!-- Node29 -->
<g id="node10" class="node">
<title>Node29</title>
<g id="a_node10"><a xlink:href="hbridge_8hpp.html" target="_top" xlink:title=" ">
<polygon fill="white" stroke="red" points="79.08,-56.5 79.08,-75.5 204.08,-75.5 204.08,-56.5 79.08,-56.5"/>
<text text-anchor="middle" x="141.58" y="-63.5" font-family="Helvetica,sans-Serif" font-size="10.00">fw/drivers/hbridge.hpp</text>
</a>
</g>
</g>
<!-- Node2&#45;&gt;Node29 -->
<g id="edge9" class="edge">
<title>Node2&#45;&gt;Node29</title>
<path fill="none" stroke="midnightblue" d="M316.3,-238.55C236.83,-237.71 64.36,-230.87 27.58,-188 -7.45,-147.19 68.9,-101.69 113.06,-79.94"/>
<polygon fill="midnightblue" stroke="midnightblue" points="114.7,-83.03 122.2,-75.55 111.67,-76.72 114.7,-83.03"/>
</g>
<!-- Node31 -->
<g id="node11" class="node">
<title>Node31</title>
<g id="a_node11"><a xlink:href="leds_8hpp.html" target="_top" xlink:title=" ">
<polygon fill="white" stroke="red" points="314.08,-56.5 314.08,-75.5 423.08,-75.5 423.08,-56.5 314.08,-56.5"/>
<text text-anchor="middle" x="368.58" y="-63.5" font-family="Helvetica,sans-Serif" font-size="10.00">fw/drivers/leds.hpp</text>
</a>
</g>
</g>
<!-- Node2&#45;&gt;Node31 -->
<g id="edge11" class="edge">
<title>Node2&#45;&gt;Node31</title>
<path fill="none" stroke="midnightblue" d="M357.19,-229.76C359.05,-203.15 364.68,-122.71 367.26,-85.84"/>
<polygon fill="midnightblue" stroke="midnightblue" points="370.77,-85.74 367.98,-75.52 363.79,-85.25 370.77,-85.74"/>
</g>
<!-- Node2&#45;&gt;Node32 -->
<g id="edge12" class="edge">
<title>Node2&#45;&gt;Node32</title>
<path fill="none" stroke="midnightblue" d="M371.33,-229.98C388.24,-220.21 416.16,-204.08 436.07,-192.58"/>
<polygon fill="midnightblue" stroke="midnightblue" points="437.94,-195.54 444.85,-187.51 434.44,-189.48 437.94,-195.54"/>
</g>
<!-- Node18&#45;&gt;Node19 -->
<g id="edge6" class="edge">
<title>Node18&#45;&gt;Node19</title>
<path fill="none" stroke="midnightblue" d="M841.54,-168.32C850.7,-160.34 864.51,-148.31 875.6,-138.65"/>
<polygon fill="midnightblue" stroke="midnightblue" points="878.19,-141.04 883.43,-131.83 873.59,-135.76 878.19,-141.04"/>
</g>
<!-- Node19&#45;&gt;Node16 -->
<g id="edge7" class="edge">
<title>Node19&#45;&gt;Node16</title>
<path fill="none" stroke="midnightblue" d="M899.19,-112.08C903.94,-104.53 910.89,-93.49 916.73,-84.23"/>
<polygon fill="midnightblue" stroke="midnightblue" points="919.7,-86.08 922.07,-75.75 913.78,-82.35 919.7,-86.08"/>
</g>
<!-- Node29&#45;&gt;Node3 -->
<g id="edge10" class="edge">
<title>Node29&#45;&gt;Node3</title>
<path fill="none" stroke="midnightblue" d="M141.58,-56.08C141.58,-49.01 141.58,-38.86 141.58,-29.99"/>
<polygon fill="midnightblue" stroke="midnightblue" points="145.08,-29.75 141.58,-19.75 138.08,-29.75 145.08,-29.75"/>
</g>
<!-- Node33&#45;&gt;Node3 -->
<g id="edge14" class="edge">
<title>Node33&#45;&gt;Node3</title>
<path fill="none" stroke="midnightblue" d="M632.87,-168.39C674.7,-148.63 766.9,-98.46 727.58,-56 690.95,-16.45 315.53,-11.53 185.57,-11.02"/>
<polygon fill="midnightblue" stroke="midnightblue" points="185.21,-7.52 175.2,-10.99 185.19,-14.52 185.21,-7.52"/>
</g>
<!-- Node33&#45;&gt;Node34 -->
<g id="edge15" class="edge">
<title>Node33&#45;&gt;Node34</title>
<path fill="none" stroke="midnightblue" d="M599.28,-168.32C585.39,-159.9 564.08,-146.97 547.77,-137.07"/>
<polygon fill="midnightblue" stroke="midnightblue" points="549.2,-133.85 538.84,-131.65 545.57,-139.83 549.2,-133.85"/>
</g>
<!-- Node34&#45;&gt;Node4 -->
<g id="edge17" class="edge">
<title>Node34&#45;&gt;Node4</title>
<path fill="none" stroke="midnightblue" d="M524.58,-112.08C524.58,-105.01 524.58,-94.86 524.58,-85.99"/>
<polygon fill="midnightblue" stroke="midnightblue" points="528.08,-85.75 524.58,-75.75 521.08,-85.75 528.08,-85.75"/>
</g>
<!-- Node34&#45;&gt;Node29 -->
<g id="edge18" class="edge">
<title>Node34&#45;&gt;Node29</title>
<path fill="none" stroke="midnightblue" d="M487.85,-115.82C424.47,-106.89 293.53,-88.42 212.07,-76.94"/>
<polygon fill="midnightblue" stroke="midnightblue" points="212.29,-73.44 201.9,-75.5 211.31,-80.37 212.29,-73.44"/>
</g>
<!-- Node34&#45;&gt;Node31 -->
<g id="edge19" class="edge">
<title>Node34&#45;&gt;Node31</title>
<path fill="none" stroke="midnightblue" d="M499.86,-112.44C473.73,-103.4 432.32,-89.06 403,-78.92"/>
<polygon fill="midnightblue" stroke="midnightblue" points="403.77,-75.48 393.18,-75.52 401.48,-82.1 403.77,-75.48"/>
</g>
<!-- Node35 -->
<g id="node15" class="node">
<title>Node35</title>
<g id="a_node15"><a xlink:href="control_8hpp.html" target="_top" xlink:title=" ">
<polygon fill="white" stroke="red" points="647.08,-56.5 647.08,-75.5 718.08,-75.5 718.08,-56.5 647.08,-56.5"/>
<text text-anchor="middle" x="682.58" y="-63.5" font-family="Helvetica,sans-Serif" font-size="10.00">control.hpp</text>
</a>
</g>
</g>
<!-- Node34&#45;&gt;Node35 -->
<g id="edge16" class="edge">
<title>Node34&#45;&gt;Node35</title>
<path fill="none" stroke="midnightblue" d="M549.61,-112.44C576.19,-103.36 618.38,-88.94 648.1,-78.78"/>
<polygon fill="midnightblue" stroke="midnightblue" points="649.33,-82.06 657.66,-75.52 647.06,-75.44 649.33,-82.06"/>
</g>
<!-- Node53&#45;&gt;Node4 -->
<g id="edge23" class="edge">
<title>Node53&#45;&gt;Node4</title>
<path fill="none" stroke="midnightblue" d="M735.02,-229.94C725.61,-215.87 705.42,-187.49 683.58,-168 641.6,-130.55 584.24,-97.83 551.13,-80.39"/>
<polygon fill="midnightblue" stroke="midnightblue" points="552.56,-77.18 542.07,-75.68 549.33,-83.4 552.56,-77.18"/>
</g>
<!-- Node53&#45;&gt;Node18 -->
<g id="edge24" class="edge">
<title>Node53&#45;&gt;Node18</title>
<path fill="none" stroke="midnightblue" d="M753.61,-229.98C768.34,-220.34 792.55,-204.52 810.08,-193.05"/>
<polygon fill="midnightblue" stroke="midnightblue" points="812.11,-195.91 818.56,-187.51 808.28,-190.05 812.11,-195.91"/>
</g>
<!-- Node53&#45;&gt;Node33 -->
<g id="edge25" class="edge">
<title>Node53&#45;&gt;Node33</title>
<path fill="none" stroke="midnightblue" d="M722.38,-229.98C701.07,-219.99 665.54,-203.35 640.91,-191.81"/>
<polygon fill="midnightblue" stroke="midnightblue" points="642.28,-188.58 631.74,-187.51 639.31,-194.92 642.28,-188.58"/>
</g>
<!-- Node53&#45;&gt;Node35 -->
<g id="edge22" class="edge">
<title>Node53&#45;&gt;Node35</title>
<path fill="none" stroke="midnightblue" d="M740.28,-229.81C739.28,-208.72 734.97,-153.48 716.58,-112 711.92,-101.5 704.4,-91.18 697.61,-83.08"/>
<polygon fill="midnightblue" stroke="midnightblue" points="700.19,-80.71 690.95,-75.52 694.93,-85.33 700.19,-80.71"/>
</g>
</g>
</svg>
