<?xml version="1.0" encoding="UTF-8" standalone="no"?>
<!DOCTYPE svg PUBLIC "-//W3C//DTD SVG 1.1//EN"
 "http://www.w3.org/Graphics/SVG/1.1/DTD/svg11.dtd">
<!-- Generated by graphviz version 2.43.0 (0)
 -->
<!-- Title: src/fw/main.cpp Pages: 1 -->
<svg width="1330pt" height="319pt"
 viewBox="0.00 0.00 1330.00 319.00" xmlns="http://www.w3.org/2000/svg" xmlns:xlink="http://www.w3.org/1999/xlink">
<g id="graph0" class="graph" transform="scale(1 1) rotate(0) translate(4 315)">
<title>src/fw/main.cpp</title>
<polygon fill="white" stroke="transparent" points="-4,4 -4,-315 1326,-315 1326,4 -4,4"/>
<!-- Node1 -->
<g id="node1" class="node">
<title>Node1</title>
<g id="a_node1"><a xlink:title=" ">
<polygon fill="#bfbfbf" stroke="black" points="802.5,-291.5 802.5,-310.5 895.5,-310.5 895.5,-291.5 802.5,-291.5"/>
<text text-anchor="middle" x="849" y="-298.5" font-family="Helvetica,sans-Serif" font-size="10.00">src/fw/main.cpp</text>
</a>
</g>
</g>
<!-- Node2 -->
<g id="node2" class="node">
<title>Node2</title>
<g id="a_node2"><a xlink:href="board_8hpp.html" target="_top" xlink:title=" ">
<polygon fill="white" stroke="black" points="446,-230 446,-249 526,-249 526,-230 446,-230"/>
<text text-anchor="middle" x="486" y="-237" font-family="Helvetica,sans-Serif" font-size="10.00">fw/board.hpp</text>
</a>
</g>
</g>
<!-- Node1&#45;&gt;Node2 -->
<g id="edge1" class="edge">
<title>Node1&#45;&gt;Node2</title>
<path fill="none" stroke="midnightblue" d="M802.29,-292.34C733.75,-281.11 606.49,-260.25 536.08,-248.71"/>
<polygon fill="midnightblue" stroke="midnightblue" points="536.56,-245.24 526.12,-247.08 535.43,-252.15 536.56,-245.24"/>
</g>
<!-- Node16 -->
<g id="node6" class="node">
<title>Node16</title>
<g id="a_node6"><a xlink:href="protocol_8hpp.html" target="_top" xlink:title=" ">
<polygon fill="white" stroke="red" points="56.5,-112.5 56.5,-131.5 133.5,-131.5 133.5,-112.5 56.5,-112.5"/>
<text text-anchor="middle" x="95" y="-119.5" font-family="Helvetica,sans-Serif" font-size="10.00">protocol.hpp</text>
</a>
</g>
</g>
<!-- Node1&#45;&gt;Node16 -->
<g id="edge26" class="edge">
<title>Node1&#45;&gt;Node16</title>
<path fill="none" stroke="midnightblue" d="M802.45,-299.69C706.95,-298.28 482.38,-291.06 298,-255 200.61,-235.95 143.71,-268.01 85,-188 75,-174.37 79.91,-154.76 85.83,-140.65"/>
<polygon fill="midnightblue" stroke="midnightblue" points="89.04,-142.05 90.12,-131.51 82.7,-139.08 89.04,-142.05"/>
</g>
<!-- Node21 -->
<g id="node7" class="node">
<title>Node21</title>
<g id="a_node7"><a xlink:title=" ">
<polygon fill="white" stroke="#bfbfbf" points="0,-56.5 0,-75.5 124,-75.5 124,-56.5 0,-56.5"/>
<text text-anchor="middle" x="62" y="-63.5" font-family="Helvetica,sans-Serif" font-size="10.00">emlabcpp/algorithm.h</text>
</a>
</g>
</g>
<!-- Node1&#45;&gt;Node21 -->
<g id="edge27" class="edge">
<title>Node1&#45;&gt;Node21</title>
<path fill="none" stroke="midnightblue" d="M802.3,-299.55C650.54,-297.77 177.72,-289.47 119,-255 64.37,-222.93 61.99,-193.54 47,-132 43.15,-116.2 48.04,-98.17 53.24,-85.11"/>
<polygon fill="midnightblue" stroke="midnightblue" points="56.49,-86.41 57.31,-75.85 50.08,-83.59 56.49,-86.41"/>
</g>
<!-- Node35 -->
<g id="node11" class="node">
<title>Node35</title>
<g id="a_node11"><a xlink:href="globals_8hpp.html" target="_top" xlink:title=" ">
<polygon fill="white" stroke="red" points="94.5,-168.5 94.5,-187.5 167.5,-187.5 167.5,-168.5 94.5,-168.5"/>
<text text-anchor="middle" x="131" y="-175.5" font-family="Helvetica,sans-Serif" font-size="10.00">globals.hpp</text>
</a>
</g>
</g>
<!-- Node1&#45;&gt;Node35 -->
<g id="edge25" class="edge">
<title>Node1&#45;&gt;Node35</title>
<path fill="none" stroke="midnightblue" d="M802.37,-296.96C725.7,-291.51 568.41,-278.39 437,-255 339.64,-237.67 227.31,-206.95 169.62,-190.37"/>
<polygon fill="midnightblue" stroke="midnightblue" points="170.41,-186.96 159.83,-187.54 168.47,-193.68 170.41,-186.96"/>
</g>
<!-- Node36 -->
<g id="node12" class="node">
<title>Node36</title>
<g id="a_node12"><a xlink:href="cfg__dispatcher_8hpp.html" target="_top" xlink:title=" ">
<polygon fill="white" stroke="black" points="788,-168.5 788,-187.5 910,-187.5 910,-168.5 788,-168.5"/>
<text text-anchor="middle" x="849" y="-175.5" font-family="Helvetica,sans-Serif" font-size="10.00">fw/cfg_dispatcher.hpp</text>
</a>
</g>
</g>
<!-- Node1&#45;&gt;Node36 -->
<g id="edge12" class="edge">
<title>Node1&#45;&gt;Node36</title>
<path fill="none" stroke="midnightblue" d="M849,-291.3C849,-271.85 849,-224.49 849,-197.9"/>
<polygon fill="midnightblue" stroke="midnightblue" points="852.5,-197.62 849,-187.62 845.5,-197.62 852.5,-197.62"/>
</g>
<!-- Node37 -->
<g id="node13" class="node">
<title>Node37</title>
<g id="a_node13"><a xlink:href="core_8hpp.html" target="_top" xlink:title=" ">
<polygon fill="white" stroke="red" points="826.5,-112.5 826.5,-131.5 899.5,-131.5 899.5,-112.5 826.5,-112.5"/>
<text text-anchor="middle" x="863" y="-119.5" font-family="Helvetica,sans-Serif" font-size="10.00">fw/core.hpp</text>
</a>
</g>
</g>
<!-- Node1&#45;&gt;Node37 -->
<g id="edge19" class="edge">
<title>Node1&#45;&gt;Node37</title>
<path fill="none" stroke="midnightblue" d="M856.93,-291.27C872.51,-273.47 906.67,-230.98 919,-188 921.45,-179.46 922.84,-176.02 919,-168 912.75,-154.95 900.66,-144.49 889.32,-136.95"/>
<polygon fill="midnightblue" stroke="midnightblue" points="890.85,-133.79 880.5,-131.54 887.19,-139.75 890.85,-133.79"/>
</g>
<!-- Node51 -->
<g id="node15" class="node">
<title>Node51</title>
<g id="a_node15"><a xlink:href="dispatcher_8hpp.html" target="_top" xlink:title=" ">
<polygon fill="white" stroke="black" points="719,-230 719,-249 821,-249 821,-230 719,-230"/>
<text text-anchor="middle" x="770" y="-237" font-family="Helvetica,sans-Serif" font-size="10.00">fw/dispatcher.hpp</text>
</a>
</g>
</g>
<!-- Node1&#45;&gt;Node51 -->
<g id="edge20" class="edge">
<title>Node1&#45;&gt;Node51</title>
<path fill="none" stroke="midnightblue" d="M837.68,-291.48C825.13,-282.02 804.65,-266.6 789.5,-255.19"/>
<polygon fill="midnightblue" stroke="midnightblue" points="791.39,-252.23 781.3,-249.01 787.18,-257.82 791.39,-252.23"/>
</g>
<!-- Node52 -->
<g id="node16" class="node">
<title>Node52</title>
<g id="a_node16"><a xlink:title=" ">
<polygon fill="white" stroke="#bfbfbf" points="915.5,-224.5 915.5,-254.5 1024.5,-254.5 1024.5,-224.5 915.5,-224.5"/>
<text text-anchor="start" x="923.5" y="-242.5" font-family="Helvetica,sans-Serif" font-size="10.00">emlabcpp/iterators</text>
<text text-anchor="middle" x="970" y="-231.5" font-family="Helvetica,sans-Serif" font-size="10.00">/numeric.h</text>
</a>
</g>
</g>
<!-- Node1&#45;&gt;Node52 -->
<g id="edge28" class="edge">
<title>Node1&#45;&gt;Node52</title>
<path fill="none" stroke="midnightblue" d="M866.34,-291.48C883.49,-283.04 910.3,-269.86 932.36,-259.01"/>
<polygon fill="midnightblue" stroke="midnightblue" points="934.05,-262.08 941.48,-254.52 930.96,-255.79 934.05,-262.08"/>
</g>
<!-- Node53 -->
<g id="node17" class="node">
<title>Node53</title>
<g id="a_node17"><a xlink:title=" ">
<polygon fill="white" stroke="#bfbfbf" points="1042.5,-230 1042.5,-249 1149.5,-249 1149.5,-230 1042.5,-230"/>
<text text-anchor="middle" x="1096" y="-237" font-family="Helvetica,sans-Serif" font-size="10.00">emlabcpp/match.h</text>
</a>
</g>
</g>
<!-- Node1&#45;&gt;Node53 -->
<g id="edge29" class="edge">
<title>Node1&#45;&gt;Node53</title>
<path fill="none" stroke="midnightblue" d="M884.39,-291.48C928.23,-280.92 1002.97,-262.91 1050.88,-251.37"/>
<polygon fill="midnightblue" stroke="midnightblue" points="1051.77,-254.75 1060.68,-249.01 1050.13,-247.95 1051.77,-254.75"/>
</g>
<!-- Node41 -->
<g id="node18" class="node">
<title>Node41</title>
<g id="a_node18"><a xlink:title=" ">
<polygon fill="white" stroke="#bfbfbf" points="1168,-230 1168,-249 1260,-249 1260,-230 1168,-230"/>
<text text-anchor="middle" x="1214" y="-237" font-family="Helvetica,sans-Serif" font-size="10.00">emlabcpp/pid.h</text>
</a>
</g>
</g>
<!-- Node1&#45;&gt;Node41 -->
<g id="edge30" class="edge">
<title>Node1&#45;&gt;Node41</title>
<path fill="none" stroke="midnightblue" d="M895.5,-294.92C956.39,-287.89 1066.28,-273.89 1159,-255 1164.01,-253.98 1169.25,-252.78 1174.41,-251.51"/>
<polygon fill="midnightblue" stroke="midnightblue" points="1175.35,-254.88 1184.17,-249.02 1173.62,-248.1 1175.35,-254.88"/>
</g>
<!-- Node54 -->
<g id="node19" class="node">
<title>Node54</title>
<g id="a_node19"><a xlink:title=" ">
<polygon fill="white" stroke="#bfbfbf" points="1278,-230 1278,-249 1322,-249 1322,-230 1278,-230"/>
<text text-anchor="middle" x="1300" y="-237" font-family="Helvetica,sans-Serif" font-size="10.00">string</text>
</a>
</g>
</g>
<!-- Node1&#45;&gt;Node54 -->
<g id="edge31" class="edge">
<title>Node1&#45;&gt;Node54</title>
<path fill="none" stroke="midnightblue" d="M895.61,-299.98C974.13,-298.86 1137.09,-291.81 1269,-255 1270.93,-254.46 1272.89,-253.81 1274.84,-253.09"/>
<polygon fill="midnightblue" stroke="midnightblue" points="1276.46,-256.2 1284.3,-249.07 1273.73,-249.76 1276.46,-256.2"/>
</g>
<!-- Node3 -->
<g id="node3" class="node">
<title>Node3</title>
<g id="a_node3"><a xlink:title=" ">
<polygon fill="white" stroke="#bfbfbf" points="532.5,-0.5 532.5,-19.5 599.5,-19.5 599.5,-0.5 532.5,-0.5"/>
<text text-anchor="middle" x="566" y="-7.5" font-family="Helvetica,sans-Serif" font-size="10.00">config.hpp</text>
</a>
</g>
</g>
<!-- Node2&#45;&gt;Node3 -->
<g id="edge2" class="edge">
<title>Node2&#45;&gt;Node3</title>
<path fill="none" stroke="midnightblue" d="M445.9,-232.4C372.27,-221.01 222.37,-196.87 215,-188 209.32,-181.16 210.17,-175.46 215,-168 284.15,-61.32 444.67,-26.47 522.35,-15.63"/>
<polygon fill="midnightblue" stroke="midnightblue" points="522.84,-19.09 532.29,-14.3 521.92,-12.15 522.84,-19.09"/>
</g>
<!-- Node4 -->
<g id="node4" class="node">
<title>Node4</title>
<g id="a_node4"><a xlink:href="acquisition_8hpp.html" target="_top" xlink:title=" ">
<polygon fill="white" stroke="red" points="673,-56.5 673,-75.5 815,-75.5 815,-56.5 673,-56.5"/>
<text text-anchor="middle" x="744" y="-63.5" font-family="Helvetica,sans-Serif" font-size="10.00">fw/drivers/acquisition.hpp</text>
</a>
</g>
</g>
<!-- Node2&#45;&gt;Node4 -->
<g id="edge3" class="edge">
<title>Node2&#45;&gt;Node4</title>
<path fill="none" stroke="midnightblue" d="M526.12,-233.85C581.48,-226.68 677.35,-211.25 703,-188 732.49,-161.27 740.78,-112.56 743.1,-85.82"/>
<polygon fill="midnightblue" stroke="midnightblue" points="746.62,-85.74 743.79,-75.53 739.63,-85.28 746.62,-85.74"/>
</g>
<!-- Node15 -->
<g id="node5" class="node">
<title>Node15</title>
<g id="a_node5"><a xlink:href="comms_8hpp.html" target="_top" xlink:title=" ">
<polygon fill="white" stroke="red" points="568.5,-168.5 568.5,-187.5 693.5,-187.5 693.5,-168.5 568.5,-168.5"/>
<text text-anchor="middle" x="631" y="-175.5" font-family="Helvetica,sans-Serif" font-size="10.00">fw/drivers/comms.hpp</text>
</a>
</g>
</g>
<!-- Node2&#45;&gt;Node15 -->
<g id="edge4" class="edge">
<title>Node2&#45;&gt;Node15</title>
<path fill="none" stroke="midnightblue" d="M506.77,-229.98C531.43,-219.86 572.75,-202.9 600.9,-191.35"/>
<polygon fill="midnightblue" stroke="midnightblue" points="602.34,-194.54 610.26,-187.51 599.68,-188.07 602.34,-194.54"/>
</g>
<!-- Node29 -->
<g id="node8" class="node">
<title>Node29</title>
<g id="a_node8"><a xlink:href="debug__comms_8hpp.html" target="_top" xlink:title=" ">
<polygon fill="white" stroke="red" points="352,-168.5 352,-187.5 512,-187.5 512,-168.5 352,-168.5"/>
<text text-anchor="middle" x="432" y="-175.5" font-family="Helvetica,sans-Serif" font-size="10.00">fw/drivers/debug_comms.hpp</text>
</a>
</g>
</g>
<!-- Node2&#45;&gt;Node29 -->
<g id="edge7" class="edge">
<title>Node2&#45;&gt;Node29</title>
<path fill="none" stroke="midnightblue" d="M478.26,-229.98C470,-220.87 456.72,-206.24 446.51,-194.98"/>
<polygon fill="midnightblue" stroke="midnightblue" points="449.03,-192.56 439.72,-187.51 443.85,-197.27 449.03,-192.56"/>
</g>
<!-- Node32 -->
<g id="node9" class="node">
<title>Node32</title>
<g id="a_node9"><a xlink:href="hbridge_8hpp.html" target="_top" xlink:title=" ">
<polygon fill="white" stroke="red" points="503.5,-56.5 503.5,-75.5 628.5,-75.5 628.5,-56.5 503.5,-56.5"/>
<text text-anchor="middle" x="566" y="-63.5" font-family="Helvetica,sans-Serif" font-size="10.00">fw/drivers/hbridge.hpp</text>
</a>
</g>
</g>
<!-- Node2&#45;&gt;Node32 -->
<g id="edge8" class="edge">
<title>Node2&#45;&gt;Node32</title>
<path fill="none" stroke="midnightblue" d="M492.9,-229.98C500.52,-220.27 512.81,-203.7 521,-188 539.17,-153.2 553.54,-109.37 560.81,-85.16"/>
<polygon fill="midnightblue" stroke="midnightblue" points="564.18,-86.1 563.63,-75.52 557.46,-84.13 564.18,-86.1"/>
</g>
<!-- Node34 -->
<g id="node10" class="node">
<title>Node34</title>
<g id="a_node10"><a xlink:href="leds_8hpp.html" target="_top" xlink:title=" ">
<polygon fill="white" stroke="red" points="224.5,-168.5 224.5,-187.5 333.5,-187.5 333.5,-168.5 224.5,-168.5"/>
<text text-anchor="middle" x="279" y="-175.5" font-family="Helvetica,sans-Serif" font-size="10.00">fw/drivers/leds.hpp</text>
</a>
</g>
</g>
<!-- Node2&#45;&gt;Node34 -->
<g id="edge10" class="edge">
<title>Node2&#45;&gt;Node34</title>
<path fill="none" stroke="midnightblue" d="M456.34,-229.98C420.07,-219.55 358.54,-201.86 318.34,-190.31"/>
<polygon fill="midnightblue" stroke="midnightblue" points="319.18,-186.91 308.6,-187.51 317.25,-193.64 319.18,-186.91"/>
</g>
<!-- Node2&#45;&gt;Node35 -->
<g id="edge11" class="edge">
<title>Node2&#45;&gt;Node35</title>
<path fill="none" stroke="midnightblue" d="M445.66,-231.93C387.41,-222.42 276.39,-204.17 182,-188 180.56,-187.75 179.1,-187.5 177.62,-187.25"/>
<polygon fill="midnightblue" stroke="midnightblue" points="178.22,-183.8 167.76,-185.53 177.02,-190.69 178.22,-183.8"/>
</g>
<!-- Node15&#45;&gt;Node16 -->
<g id="edge5" class="edge">
<title>Node15&#45;&gt;Node16</title>
<path fill="none" stroke="midnightblue" d="M568.46,-170.7C460.55,-159.83 241.57,-137.77 143.92,-127.93"/>
<polygon fill="midnightblue" stroke="midnightblue" points="144.04,-124.42 133.74,-126.9 143.34,-131.39 144.04,-124.42"/>
</g>
<!-- Node16&#45;&gt;Node21 -->
<g id="edge6" class="edge">
<title>Node16&#45;&gt;Node21</title>
<path fill="none" stroke="midnightblue" d="M89.55,-112.08C84.99,-104.61 78.33,-93.72 72.71,-84.52"/>
<polygon fill="midnightblue" stroke="midnightblue" points="75.55,-82.46 67.35,-75.75 69.58,-86.11 75.55,-82.46"/>
</g>
<!-- Node32&#45;&gt;Node3 -->
<g id="edge9" class="edge">
<title>Node32&#45;&gt;Node3</title>
<path fill="none" stroke="midnightblue" d="M566,-56.08C566,-49.01 566,-38.86 566,-29.99"/>
<polygon fill="midnightblue" stroke="midnightblue" points="569.5,-29.75 566,-19.75 562.5,-29.75 569.5,-29.75"/>
</g>
<!-- Node36&#45;&gt;Node3 -->
<g id="edge13" class="edge">
<title>Node36&#45;&gt;Node3</title>
<path fill="none" stroke="midnightblue" d="M867.59,-168.41C881.54,-160.91 899.75,-148.61 909,-132 925.47,-102.43 936.35,-81.42 914,-56 894.2,-33.47 698.89,-18.97 609.84,-13.48"/>
<polygon fill="midnightblue" stroke="midnightblue" points="609.98,-9.98 599.78,-12.87 609.55,-16.97 609.98,-9.98"/>
</g>
<!-- Node36&#45;&gt;Node4 -->
<g id="edge18" class="edge">
<title>Node36&#45;&gt;Node4</title>
<path fill="none" stroke="midnightblue" d="M840.76,-168.37C823.2,-149.97 781.87,-106.67 759.32,-83.05"/>
<polygon fill="midnightblue" stroke="midnightblue" points="761.64,-80.41 752.2,-75.59 756.57,-85.24 761.64,-80.41"/>
</g>
<!-- Node36&#45;&gt;Node37 -->
<g id="edge14" class="edge">
<title>Node36&#45;&gt;Node37</title>
<path fill="none" stroke="midnightblue" d="M851.31,-168.08C853.17,-160.93 855.84,-150.64 858.15,-141.69"/>
<polygon fill="midnightblue" stroke="midnightblue" points="861.61,-142.31 860.73,-131.75 854.83,-140.55 861.61,-142.31"/>
</g>
<!-- Node37&#45;&gt;Node4 -->
<g id="edge16" class="edge">
<title>Node37&#45;&gt;Node4</title>
<path fill="none" stroke="midnightblue" d="M844.14,-112.44C824.73,-103.64 794.27,-89.81 772.04,-79.72"/>
<polygon fill="midnightblue" stroke="midnightblue" points="773.32,-76.46 762.77,-75.52 770.43,-82.84 773.32,-76.46"/>
</g>
<!-- Node37&#45;&gt;Node32 -->
<g id="edge17" class="edge">
<title>Node37&#45;&gt;Node32</title>
<path fill="none" stroke="midnightblue" d="M826.28,-114.32C775.37,-105.07 682.86,-88.25 622.95,-77.35"/>
<polygon fill="midnightblue" stroke="midnightblue" points="623.36,-73.87 612.89,-75.53 622.11,-80.76 623.36,-73.87"/>
</g>
<!-- Node38 -->
<g id="node14" class="node">
<title>Node38</title>
<g id="a_node14"><a xlink:href="control_8hpp.html" target="_top" xlink:title=" ">
<polygon fill="white" stroke="red" points="833.5,-56.5 833.5,-75.5 904.5,-75.5 904.5,-56.5 833.5,-56.5"/>
<text text-anchor="middle" x="869" y="-63.5" font-family="Helvetica,sans-Serif" font-size="10.00">control.hpp</text>
</a>
</g>
</g>
<!-- Node37&#45;&gt;Node38 -->
<g id="edge15" class="edge">
<title>Node37&#45;&gt;Node38</title>
<path fill="none" stroke="midnightblue" d="M863.99,-112.08C864.79,-104.93 865.93,-94.64 866.92,-85.69"/>
<polygon fill="midnightblue" stroke="midnightblue" points="870.4,-86.08 868.03,-75.75 863.44,-85.3 870.4,-86.08"/>
</g>
<!-- Node51&#45;&gt;Node4 -->
<g id="edge22" class="edge">
<title>Node51&#45;&gt;Node4</title>
<path fill="none" stroke="midnightblue" d="M768.67,-229.76C764.64,-203.15 752.45,-122.71 746.86,-85.84"/>
<polygon fill="midnightblue" stroke="midnightblue" points="750.25,-84.88 745.29,-75.52 743.33,-85.93 750.25,-84.88"/>
</g>
<!-- Node51&#45;&gt;Node15 -->
<g id="edge23" class="edge">
<title>Node51&#45;&gt;Node15</title>
<path fill="none" stroke="midnightblue" d="M750.08,-229.98C726.55,-219.9 687.19,-203.05 660.21,-191.5"/>
<polygon fill="midnightblue" stroke="midnightblue" points="661.45,-188.23 650.88,-187.51 658.69,-194.66 661.45,-188.23"/>
</g>
<!-- Node51&#45;&gt;Node36 -->
<g id="edge24" class="edge">
<title>Node51&#45;&gt;Node36</title>
<path fill="none" stroke="midnightblue" d="M781.32,-229.98C793.87,-220.52 814.35,-205.1 829.5,-193.69"/>
<polygon fill="midnightblue" stroke="midnightblue" points="831.82,-196.32 837.7,-187.51 827.61,-190.73 831.82,-196.32"/>
</g>
<!-- Node51&#45;&gt;Node38 -->
<g id="edge21" class="edge">
<title>Node51&#45;&gt;Node38</title>
<path fill="none" stroke="midnightblue" d="M821.06,-235.83C854.85,-231.09 896.88,-218.86 919,-188 928.67,-174.51 921.61,-137.98 909,-112 903.66,-101 894.85,-90.65 886.85,-82.66"/>
<polygon fill="midnightblue" stroke="midnightblue" points="888.96,-79.84 879.28,-75.52 884.15,-84.93 888.96,-79.84"/>
</g>
</g>
</svg>
