<?xml version="1.0" encoding="UTF-8" standalone="no"?>
<!DOCTYPE svg PUBLIC "-//W3C//DTD SVG 1.1//EN"
 "http://www.w3.org/Graphics/SVG/1.1/DTD/svg11.dtd">
<!-- Generated by graphviz version 2.43.0 (0)
 -->
<!-- Title: src/fw/main.cpp Pages: 1 -->
<svg width="1586pt" height="330pt"
 viewBox="0.00 0.00 1585.50 330.00" xmlns="http://www.w3.org/2000/svg" xmlns:xlink="http://www.w3.org/1999/xlink">
<g id="graph0" class="graph" transform="scale(1 1) rotate(0) translate(4 326)">
<title>src/fw/main.cpp</title>
<polygon fill="white" stroke="transparent" points="-4,4 -4,-326 1581.5,-326 1581.5,4 -4,4"/>
<!-- Node1 -->
<g id="node1" class="node">
<title>Node1</title>
<g id="a_node1"><a xlink:title=" ">
<polygon fill="#bfbfbf" stroke="black" points="914,-302.5 914,-321.5 1007,-321.5 1007,-302.5 914,-302.5"/>
<text text-anchor="middle" x="960.5" y="-309.5" font-family="Helvetica,sans-Serif" font-size="10.00">src/fw/main.cpp</text>
</a>
</g>
</g>
<!-- Node2 -->
<g id="node2" class="node">
<title>Node2</title>
<g id="a_node2"><a xlink:href="storage_8hpp.html" target="_top" xlink:title=" ">
<polygon fill="white" stroke="black" points="20.5,-67.5 20.5,-86.5 112.5,-86.5 112.5,-67.5 20.5,-67.5"/>
<text text-anchor="middle" x="66.5" y="-74.5" font-family="Helvetica,sans-Serif" font-size="10.00">cfg/storage.hpp</text>
</a>
</g>
</g>
<!-- Node1&#45;&gt;Node2 -->
<g id="edge1" class="edge">
<title>Node1&#45;&gt;Node2</title>
<path fill="none" stroke="midnightblue" d="M913.82,-308.05C846.2,-303.09 717.42,-291.07 610.5,-266 408.51,-218.64 176.34,-124.44 95.8,-90.53"/>
<polygon fill="midnightblue" stroke="midnightblue" points="96.89,-87.19 86.31,-86.52 94.16,-93.64 96.89,-87.19"/>
</g>
<!-- Node6 -->
<g id="node6" class="node">
<title>Node6</title>
<g id="a_node6"><a xlink:href="board_8hpp.html" target="_top" xlink:title=" ">
<polygon fill="white" stroke="black" points="620.5,-123.5 620.5,-142.5 700.5,-142.5 700.5,-123.5 620.5,-123.5"/>
<text text-anchor="middle" x="660.5" y="-130.5" font-family="Helvetica,sans-Serif" font-size="10.00">fw/board.hpp</text>
</a>
</g>
</g>
<!-- Node1&#45;&gt;Node6 -->
<g id="edge5" class="edge">
<title>Node1&#45;&gt;Node6</title>
<path fill="none" stroke="midnightblue" d="M913.93,-302.92C878.56,-295.81 829.23,-283.8 788.5,-266 737.77,-243.84 717.94,-242.34 683.5,-199 672.81,-185.54 666.87,-166.73 663.72,-152.8"/>
<polygon fill="midnightblue" stroke="midnightblue" points="667.13,-152.01 661.76,-142.88 660.27,-153.37 667.13,-152.01"/>
</g>
<!-- Node27 -->
<g id="node13" class="node">
<title>Node27</title>
<g id="a_node13"><a xlink:href="globals_8hpp.html" target="_top" xlink:title=" ">
<polygon fill="white" stroke="red" points="169,-67.5 169,-86.5 242,-86.5 242,-67.5 169,-67.5"/>
<text text-anchor="middle" x="205.5" y="-74.5" font-family="Helvetica,sans-Serif" font-size="10.00">globals.hpp</text>
</a>
</g>
</g>
<!-- Node1&#45;&gt;Node27 -->
<g id="edge38" class="edge">
<title>Node1&#45;&gt;Node27</title>
<path fill="none" stroke="midnightblue" d="M913.84,-304.75C864.53,-297.59 784.74,-284.43 717.5,-266 529.15,-214.38 311.98,-123.91 234.66,-90.7"/>
<polygon fill="midnightblue" stroke="midnightblue" points="235.68,-87.32 225.11,-86.58 232.91,-93.75 235.68,-87.32"/>
</g>
<!-- Node29 -->
<g id="node14" class="node">
<title>Node29</title>
<g id="a_node14"><a xlink:href="cfg__dispatcher_8hpp.html" target="_top" xlink:title=" ">
<polygon fill="white" stroke="black" points="692.5,-179.5 692.5,-198.5 814.5,-198.5 814.5,-179.5 692.5,-179.5"/>
<text text-anchor="middle" x="753.5" y="-186.5" font-family="Helvetica,sans-Serif" font-size="10.00">fw/cfg_dispatcher.hpp</text>
</a>
</g>
</g>
<!-- Node1&#45;&gt;Node29 -->
<g id="edge21" class="edge">
<title>Node1&#45;&gt;Node29</title>
<path fill="none" stroke="midnightblue" d="M920.26,-302.45C892.95,-295.45 856.8,-283.76 828.5,-266 802.96,-249.98 779.6,-223.64 765.96,-206.56"/>
<polygon fill="midnightblue" stroke="midnightblue" points="768.65,-204.32 759.75,-198.57 763.12,-208.61 768.65,-204.32"/>
</g>
<!-- Node30 -->
<g id="node15" class="node">
<title>Node30</title>
<g id="a_node15"><a xlink:href="core_8hpp.html" target="_top" xlink:title=" ">
<polygon fill="white" stroke="red" points="719,-123.5 719,-142.5 792,-142.5 792,-123.5 719,-123.5"/>
<text text-anchor="middle" x="755.5" y="-130.5" font-family="Helvetica,sans-Serif" font-size="10.00">fw/core.hpp</text>
</a>
</g>
</g>
<!-- Node1&#45;&gt;Node30 -->
<g id="edge28" class="edge">
<title>Node1&#45;&gt;Node30</title>
<path fill="none" stroke="midnightblue" d="M926.58,-302.36C905.55,-295.51 879.26,-284.02 861.5,-266 831.89,-235.94 850.65,-211.3 823.5,-179 812.47,-165.88 796.67,-155.11 783.07,-147.39"/>
<polygon fill="midnightblue" stroke="midnightblue" points="784.56,-144.22 774.09,-142.55 781.23,-150.38 784.56,-144.22"/>
</g>
<!-- Node53 -->
<g id="node17" class="node">
<title>Node53</title>
<g id="a_node17"><a xlink:href="dispatcher_8hpp.html" target="_top" xlink:title=" ">
<polygon fill="white" stroke="black" points="870.5,-241 870.5,-260 972.5,-260 972.5,-241 870.5,-241"/>
<text text-anchor="middle" x="921.5" y="-248" font-family="Helvetica,sans-Serif" font-size="10.00">fw/dispatcher.hpp</text>
</a>
</g>
</g>
<!-- Node1&#45;&gt;Node53 -->
<g id="edge29" class="edge">
<title>Node1&#45;&gt;Node53</title>
<path fill="none" stroke="midnightblue" d="M954.91,-302.48C949.12,-293.64 939.91,-279.59 932.63,-268.48"/>
<polygon fill="midnightblue" stroke="midnightblue" points="935.49,-266.45 927.08,-260.01 929.63,-270.29 935.49,-266.45"/>
</g>
<!-- Node54 -->
<g id="node19" class="node">
<title>Node54</title>
<g id="a_node19"><a xlink:href="servio__pb_8hpp.html" target="_top" xlink:title=" ">
<polygon fill="white" stroke="red" points="1048,-179.5 1048,-198.5 1147,-198.5 1147,-179.5 1048,-179.5"/>
<text text-anchor="middle" x="1097.5" y="-186.5" font-family="Helvetica,sans-Serif" font-size="10.00">fw/servio_pb.hpp</text>
</a>
</g>
</g>
<!-- Node1&#45;&gt;Node54 -->
<g id="edge39" class="edge">
<title>Node1&#45;&gt;Node54</title>
<path fill="none" stroke="midnightblue" d="M965.77,-302.13C975.11,-286.95 995.83,-255.64 1019.5,-235 1034.33,-222.07 1053.44,-210.97 1069.03,-203.04"/>
<polygon fill="midnightblue" stroke="midnightblue" points="1070.78,-206.07 1078.21,-198.51 1067.69,-199.79 1070.78,-206.07"/>
</g>
<!-- Node13 -->
<g id="node20" class="node">
<title>Node13</title>
<g id="a_node20"><a xlink:title=" ">
<polygon fill="white" stroke="#bfbfbf" points="1028.5,-241 1028.5,-260 1152.5,-260 1152.5,-241 1028.5,-241"/>
<text text-anchor="middle" x="1090.5" y="-248" font-family="Helvetica,sans-Serif" font-size="10.00">emlabcpp/algorithm.h</text>
</a>
</g>
</g>
<!-- Node1&#45;&gt;Node13 -->
<g id="edge40" class="edge">
<title>Node1&#45;&gt;Node13</title>
<path fill="none" stroke="midnightblue" d="M979.13,-302.48C1000.94,-292.49 1037.3,-275.85 1062.52,-264.31"/>
<polygon fill="midnightblue" stroke="midnightblue" points="1064.27,-267.35 1071.91,-260.01 1061.36,-260.99 1064.27,-267.35"/>
</g>
<!-- Node56 -->
<g id="node21" class="node">
<title>Node56</title>
<g id="a_node21"><a xlink:title=" ">
<polygon fill="white" stroke="#bfbfbf" points="1171,-235.5 1171,-265.5 1280,-265.5 1280,-235.5 1171,-235.5"/>
<text text-anchor="start" x="1179" y="-253.5" font-family="Helvetica,sans-Serif" font-size="10.00">emlabcpp/iterators</text>
<text text-anchor="middle" x="1225.5" y="-242.5" font-family="Helvetica,sans-Serif" font-size="10.00">/numeric.h</text>
</a>
</g>
</g>
<!-- Node1&#45;&gt;Node56 -->
<g id="edge41" class="edge">
<title>Node1&#45;&gt;Node56</title>
<path fill="none" stroke="midnightblue" d="M998.67,-302.49C1037.05,-293.92 1098.2,-280.25 1160.66,-266.19"/>
<polygon fill="midnightblue" stroke="midnightblue" points="1161.7,-269.54 1170.69,-263.93 1160.16,-262.71 1161.7,-269.54"/>
</g>
<!-- Node57 -->
<g id="node22" class="node">
<title>Node57</title>
<g id="a_node22"><a xlink:title=" ">
<polygon fill="white" stroke="#bfbfbf" points="1298,-241 1298,-260 1405,-260 1405,-241 1298,-241"/>
<text text-anchor="middle" x="1351.5" y="-248" font-family="Helvetica,sans-Serif" font-size="10.00">emlabcpp/match.h</text>
</a>
</g>
</g>
<!-- Node1&#45;&gt;Node57 -->
<g id="edge42" class="edge">
<title>Node1&#45;&gt;Node57</title>
<path fill="none" stroke="midnightblue" d="M1007.03,-306.03C1070.97,-298.88 1189.44,-284.5 1289.5,-266 1295.35,-264.92 1301.48,-263.65 1307.51,-262.32"/>
<polygon fill="midnightblue" stroke="midnightblue" points="1308.53,-265.68 1317.51,-260.05 1306.98,-258.85 1308.53,-265.68"/>
</g>
<!-- Node34 -->
<g id="node23" class="node">
<title>Node34</title>
<g id="a_node23"><a xlink:title=" ">
<polygon fill="white" stroke="#bfbfbf" points="1423.5,-241 1423.5,-260 1515.5,-260 1515.5,-241 1423.5,-241"/>
<text text-anchor="middle" x="1469.5" y="-248" font-family="Helvetica,sans-Serif" font-size="10.00">emlabcpp/pid.h</text>
</a>
</g>
</g>
<!-- Node1&#45;&gt;Node34 -->
<g id="edge43" class="edge">
<title>Node1&#45;&gt;Node34</title>
<path fill="none" stroke="midnightblue" d="M1007.24,-308.82C1089.93,-304.42 1267.17,-292.55 1414.5,-266 1419.71,-265.06 1425.15,-263.88 1430.5,-262.6"/>
<polygon fill="midnightblue" stroke="midnightblue" points="1431.74,-265.89 1440.58,-260.05 1430.03,-259.11 1431.74,-265.89"/>
</g>
<!-- Node58 -->
<g id="node24" class="node">
<title>Node58</title>
<g id="a_node24"><a xlink:title=" ">
<polygon fill="white" stroke="#bfbfbf" points="1533.5,-241 1533.5,-260 1577.5,-260 1577.5,-241 1533.5,-241"/>
<text text-anchor="middle" x="1555.5" y="-248" font-family="Helvetica,sans-Serif" font-size="10.00">string</text>
</a>
</g>
</g>
<!-- Node1&#45;&gt;Node58 -->
<g id="edge44" class="edge">
<title>Node1&#45;&gt;Node58</title>
<path fill="none" stroke="midnightblue" d="M1007.14,-309.42C1124.05,-305.11 1427.16,-291.74 1524.5,-266 1526.48,-265.48 1528.49,-264.83 1530.49,-264.1"/>
<polygon fill="midnightblue" stroke="midnightblue" points="1532.3,-267.14 1540.14,-260.01 1529.57,-260.69 1532.3,-267.14"/>
</g>
<!-- Node3 -->
<g id="node3" class="node">
<title>Node3</title>
<g id="a_node3"><a xlink:title=" ">
<polygon fill="white" stroke="#bfbfbf" points="194,-6 194,-25 261,-25 261,-6 194,-6"/>
<text text-anchor="middle" x="227.5" y="-13" font-family="Helvetica,sans-Serif" font-size="10.00">config.hpp</text>
</a>
</g>
</g>
<!-- Node2&#45;&gt;Node3 -->
<g id="edge2" class="edge">
<title>Node2&#45;&gt;Node3</title>
<path fill="none" stroke="midnightblue" d="M89.57,-67.48C117.18,-57.27 163.62,-40.11 194.9,-28.55"/>
<polygon fill="midnightblue" stroke="midnightblue" points="196.31,-31.76 204.48,-25.01 193.88,-25.19 196.31,-31.76"/>
</g>
<!-- Node4 -->
<g id="node4" class="node">
<title>Node4</title>
<g id="a_node4"><a xlink:title=" ">
<polygon fill="white" stroke="#bfbfbf" points="597,-0.5 597,-30.5 730,-30.5 730,-0.5 597,-0.5"/>
<text text-anchor="start" x="605" y="-18.5" font-family="Helvetica,sans-Serif" font-size="10.00">emlabcpp/experimental</text>
<text text-anchor="middle" x="663.5" y="-7.5" font-family="Helvetica,sans-Serif" font-size="10.00">/function_view.h</text>
</a>
</g>
</g>
<!-- Node2&#45;&gt;Node4 -->
<g id="edge3" class="edge">
<title>Node2&#45;&gt;Node4</title>
<path fill="none" stroke="midnightblue" d="M112.85,-71.38C215.04,-61.2 460.6,-36.72 586.39,-24.19"/>
<polygon fill="midnightblue" stroke="midnightblue" points="587.11,-27.63 596.71,-23.16 586.41,-20.67 587.11,-27.63"/>
</g>
<!-- Node5 -->
<g id="node5" class="node">
<title>Node5</title>
<g id="a_node5"><a xlink:title=" ">
<polygon fill="white" stroke="#bfbfbf" points="0,-0.5 0,-30.5 133,-30.5 133,-0.5 0,-0.5"/>
<text text-anchor="start" x="8" y="-18.5" font-family="Helvetica,sans-Serif" font-size="10.00">emlabcpp/experimental</text>
<text text-anchor="middle" x="66.5" y="-7.5" font-family="Helvetica,sans-Serif" font-size="10.00">/string_buffer.h</text>
</a>
</g>
</g>
<!-- Node2&#45;&gt;Node5 -->
<g id="edge4" class="edge">
<title>Node2&#45;&gt;Node5</title>
<path fill="none" stroke="midnightblue" d="M66.5,-67.48C66.5,-60.47 66.5,-50.19 66.5,-40.7"/>
<polygon fill="midnightblue" stroke="midnightblue" points="70,-40.52 66.5,-30.52 63,-40.52 70,-40.52"/>
</g>
<!-- Node6&#45;&gt;Node3 -->
<g id="edge6" class="edge">
<title>Node6&#45;&gt;Node3</title>
<path fill="none" stroke="midnightblue" d="M620.43,-130.72C536.7,-127.46 346.25,-116.91 289.5,-87 266.6,-74.93 248.25,-50.7 237.62,-34.04"/>
<polygon fill="midnightblue" stroke="midnightblue" points="240.46,-31.99 232.28,-25.26 234.48,-35.62 240.46,-31.99"/>
</g>
<!-- Node7 -->
<g id="node7" class="node">
<title>Node7</title>
<g id="a_node7"><a xlink:href="acquisition_8hpp.html" target="_top" xlink:title=" ">
<polygon fill="white" stroke="red" points="1022.5,-67.5 1022.5,-86.5 1164.5,-86.5 1164.5,-67.5 1022.5,-67.5"/>
<text text-anchor="middle" x="1093.5" y="-74.5" font-family="Helvetica,sans-Serif" font-size="10.00">fw/drivers/acquisition.hpp</text>
</a>
</g>
</g>
<!-- Node6&#45;&gt;Node7 -->
<g id="edge7" class="edge">
<title>Node6&#45;&gt;Node7</title>
<path fill="none" stroke="midnightblue" d="M700.58,-124.56C703.93,-124.01 707.27,-123.48 710.5,-123 739.54,-118.68 908.6,-99.16 1012.16,-87.29"/>
<polygon fill="midnightblue" stroke="midnightblue" points="1012.75,-90.74 1022.28,-86.13 1011.95,-83.79 1012.75,-90.74"/>
</g>
<!-- Node18 -->
<g id="node8" class="node">
<title>Node18</title>
<g id="a_node8"><a xlink:href="clock_8hpp.html" target="_top" xlink:title=" ">
<polygon fill="white" stroke="red" points="476.5,-67.5 476.5,-86.5 590.5,-86.5 590.5,-67.5 476.5,-67.5"/>
<text text-anchor="middle" x="533.5" y="-74.5" font-family="Helvetica,sans-Serif" font-size="10.00">fw/drivers/clock.hpp</text>
</a>
</g>
</g>
<!-- Node6&#45;&gt;Node18 -->
<g id="edge9" class="edge">
<title>Node6&#45;&gt;Node18</title>
<path fill="none" stroke="midnightblue" d="M640.38,-123.44C619.48,-114.56 586.57,-100.56 562.78,-90.45"/>
<polygon fill="midnightblue" stroke="midnightblue" points="564.1,-87.21 553.53,-86.52 561.36,-93.65 564.1,-87.21"/>
</g>
<!-- Node19 -->
<g id="node9" class="node">
<title>Node19</title>
<g id="a_node9"><a xlink:href="comms_8hpp.html" target="_top" xlink:title=" ">
<polygon fill="white" stroke="red" points="879,-67.5 879,-86.5 1004,-86.5 1004,-67.5 879,-67.5"/>
<text text-anchor="middle" x="941.5" y="-74.5" font-family="Helvetica,sans-Serif" font-size="10.00">fw/drivers/comms.hpp</text>
</a>
</g>
</g>
<!-- Node6&#45;&gt;Node19 -->
<g id="edge11" class="edge">
<title>Node6&#45;&gt;Node19</title>
<path fill="none" stroke="midnightblue" d="M700.76,-124.26C749.76,-114.85 832.71,-98.91 887.29,-88.42"/>
<polygon fill="midnightblue" stroke="midnightblue" points="887.98,-91.85 897.14,-86.52 886.66,-84.97 887.98,-91.85"/>
</g>
<!-- Node22 -->
<g id="node10" class="node">
<title>Node22</title>
<g id="a_node10"><a xlink:href="debug__comms_8hpp.html" target="_top" xlink:title=" ">
<polygon fill="white" stroke="red" points="298.5,-67.5 298.5,-86.5 458.5,-86.5 458.5,-67.5 298.5,-67.5"/>
<text text-anchor="middle" x="378.5" y="-74.5" font-family="Helvetica,sans-Serif" font-size="10.00">fw/drivers/debug_comms.hpp</text>
</a>
</g>
</g>
<!-- Node6&#45;&gt;Node22 -->
<g id="edge13" class="edge">
<title>Node6&#45;&gt;Node22</title>
<path fill="none" stroke="midnightblue" d="M620.4,-124.32C571.29,-114.92 487.91,-98.95 433.02,-88.44"/>
<polygon fill="midnightblue" stroke="midnightblue" points="433.6,-84.99 423.12,-86.54 432.28,-91.86 433.6,-84.99"/>
</g>
<!-- Node24 -->
<g id="node11" class="node">
<title>Node24</title>
<g id="a_node11"><a xlink:href="hbridge_8hpp.html" target="_top" xlink:title=" ">
<polygon fill="white" stroke="red" points="736,-67.5 736,-86.5 861,-86.5 861,-67.5 736,-67.5"/>
<text text-anchor="middle" x="798.5" y="-74.5" font-family="Helvetica,sans-Serif" font-size="10.00">fw/drivers/hbridge.hpp</text>
</a>
</g>
</g>
<!-- Node6&#45;&gt;Node24 -->
<g id="edge15" class="edge">
<title>Node6&#45;&gt;Node24</title>
<path fill="none" stroke="midnightblue" d="M682.37,-123.44C705.28,-114.48 741.48,-100.31 767.37,-90.18"/>
<polygon fill="midnightblue" stroke="midnightblue" points="768.7,-93.42 776.74,-86.52 766.15,-86.9 768.7,-93.42"/>
</g>
<!-- Node26 -->
<g id="node12" class="node">
<title>Node26</title>
<g id="a_node12"><a xlink:href="leds_8hpp.html" target="_top" xlink:title=" ">
<polygon fill="white" stroke="red" points="609,-67.5 609,-86.5 718,-86.5 718,-67.5 609,-67.5"/>
<text text-anchor="middle" x="663.5" y="-74.5" font-family="Helvetica,sans-Serif" font-size="10.00">fw/drivers/leds.hpp</text>
</a>
</g>
</g>
<!-- Node6&#45;&gt;Node26 -->
<g id="edge18" class="edge">
<title>Node6&#45;&gt;Node26</title>
<path fill="none" stroke="midnightblue" d="M661,-123.08C661.39,-116.01 661.95,-105.86 662.45,-96.99"/>
<polygon fill="midnightblue" stroke="midnightblue" points="665.95,-96.93 663.01,-86.75 658.96,-96.54 665.95,-96.93"/>
</g>
<!-- Node6&#45;&gt;Node27 -->
<g id="edge20" class="edge">
<title>Node6&#45;&gt;Node27</title>
<path fill="none" stroke="midnightblue" d="M620.25,-128.37C547.48,-121.63 389.22,-106.08 256.5,-87 255.05,-86.79 253.59,-86.57 252.1,-86.35"/>
<polygon fill="midnightblue" stroke="midnightblue" points="252.65,-82.89 242.23,-84.77 251.55,-89.8 252.65,-82.89"/>
</g>
<!-- Node7&#45;&gt;Node4 -->
<g id="edge8" class="edge">
<title>Node7&#45;&gt;Node4</title>
<path fill="none" stroke="midnightblue" d="M1031.89,-67.48C955.02,-56.84 823.54,-38.65 740.22,-27.12"/>
<polygon fill="midnightblue" stroke="midnightblue" points="740.68,-23.65 730.3,-25.74 739.72,-30.58 740.68,-23.65"/>
</g>
<!-- Node18&#45;&gt;Node4 -->
<g id="edge10" class="edge">
<title>Node18&#45;&gt;Node4</title>
<path fill="none" stroke="midnightblue" d="M552.13,-67.48C570.72,-58.96 599.88,-45.62 623.7,-34.72"/>
<polygon fill="midnightblue" stroke="midnightblue" points="625.23,-37.87 632.86,-30.52 622.31,-31.5 625.23,-37.87"/>
</g>
<!-- Node19&#45;&gt;Node4 -->
<g id="edge12" class="edge">
<title>Node19&#45;&gt;Node4</title>
<path fill="none" stroke="midnightblue" d="M901.67,-67.48C859.36,-58.42 791.46,-43.89 738.97,-32.65"/>
<polygon fill="midnightblue" stroke="midnightblue" points="739.53,-29.19 729.02,-30.52 738.07,-36.04 739.53,-29.19"/>
</g>
<!-- Node22&#45;&gt;Node4 -->
<g id="edge14" class="edge">
<title>Node22&#45;&gt;Node4</title>
<path fill="none" stroke="midnightblue" d="M419.33,-67.48C462.95,-58.37 533.07,-43.73 587.01,-32.47"/>
<polygon fill="midnightblue" stroke="midnightblue" points="587.81,-35.88 596.88,-30.41 586.38,-29.03 587.81,-35.88"/>
</g>
<!-- Node24&#45;&gt;Node3 -->
<g id="edge16" class="edge">
<title>Node24&#45;&gt;Node3</title>
<path fill="none" stroke="midnightblue" d="M735.79,-67.96C732.99,-67.63 730.22,-67.31 727.5,-67 559.02,-47.82 358.18,-28.65 271.21,-20.54"/>
<polygon fill="midnightblue" stroke="midnightblue" points="271.46,-17.05 261.18,-19.6 270.82,-24.02 271.46,-17.05"/>
</g>
<!-- Node24&#45;&gt;Node4 -->
<g id="edge17" class="edge">
<title>Node24&#45;&gt;Node4</title>
<path fill="none" stroke="midnightblue" d="M779.16,-67.48C759.76,-58.93 729.3,-45.5 704.51,-34.57"/>
<polygon fill="midnightblue" stroke="midnightblue" points="705.88,-31.35 695.32,-30.52 703.06,-37.76 705.88,-31.35"/>
</g>
<!-- Node26&#45;&gt;Node4 -->
<g id="edge19" class="edge">
<title>Node26&#45;&gt;Node4</title>
<path fill="none" stroke="midnightblue" d="M663.5,-67.48C663.5,-60.47 663.5,-50.19 663.5,-40.7"/>
<polygon fill="midnightblue" stroke="midnightblue" points="667,-40.52 663.5,-30.52 660,-40.52 667,-40.52"/>
</g>
<!-- Node29&#45;&gt;Node3 -->
<g id="edge22" class="edge">
<title>Node29&#45;&gt;Node3</title>
<path fill="none" stroke="midnightblue" d="M692.42,-187.14C554.83,-183.78 227.32,-167.33 159.5,-87 141.82,-66.05 173.37,-43.53 199.16,-29.73"/>
<polygon fill="midnightblue" stroke="midnightblue" points="200.99,-32.72 208.3,-25.05 197.8,-26.49 200.99,-32.72"/>
</g>
<!-- Node29&#45;&gt;Node30 -->
<g id="edge23" class="edge">
<title>Node29&#45;&gt;Node30</title>
<path fill="none" stroke="midnightblue" d="M753.83,-179.08C754.09,-172.01 754.47,-161.86 754.8,-152.99"/>
<polygon fill="midnightblue" stroke="midnightblue" points="758.3,-152.87 755.18,-142.75 751.31,-152.61 758.3,-152.87"/>
</g>
<!-- Node30&#45;&gt;Node7 -->
<g id="edge25" class="edge">
<title>Node30&#45;&gt;Node7</title>
<path fill="none" stroke="midnightblue" d="M792.13,-124.69C795.3,-124.11 798.45,-123.53 801.5,-123 877.21,-109.77 964.32,-96.61 1023.55,-87.97"/>
<polygon fill="midnightblue" stroke="midnightblue" points="1024.15,-91.42 1033.55,-86.52 1023.15,-84.49 1024.15,-91.42"/>
</g>
<!-- Node30&#45;&gt;Node24 -->
<g id="edge26" class="edge">
<title>Node30&#45;&gt;Node24</title>
<path fill="none" stroke="midnightblue" d="M762.6,-123.08C768.74,-115.38 777.77,-104.03 785.24,-94.65"/>
<polygon fill="midnightblue" stroke="midnightblue" points="788.04,-96.75 791.53,-86.75 782.56,-92.39 788.04,-96.75"/>
</g>
<!-- Node30&#45;&gt;Node26 -->
<g id="edge27" class="edge">
<title>Node30&#45;&gt;Node26</title>
<path fill="none" stroke="midnightblue" d="M740.72,-123.32C726.23,-114.82 703.93,-101.73 687.01,-91.8"/>
<polygon fill="midnightblue" stroke="midnightblue" points="688.64,-88.7 678.24,-86.65 685.1,-94.74 688.64,-88.7"/>
</g>
<!-- Node31 -->
<g id="node16" class="node">
<title>Node31</title>
<g id="a_node16"><a xlink:href="control_8hpp.html" target="_top" xlink:title=" ">
<polygon fill="white" stroke="red" points="1183,-67.5 1183,-86.5 1254,-86.5 1254,-67.5 1183,-67.5"/>
<text text-anchor="middle" x="1218.5" y="-74.5" font-family="Helvetica,sans-Serif" font-size="10.00">control.hpp</text>
</a>
</g>
</g>
<!-- Node30&#45;&gt;Node31 -->
<g id="edge24" class="edge">
<title>Node30&#45;&gt;Node31</title>
<path fill="none" stroke="midnightblue" d="M792.1,-124.51C795.28,-123.96 798.44,-123.45 801.5,-123 962.66,-99.49 1007.45,-110.85 1172.68,-86.97"/>
<polygon fill="midnightblue" stroke="midnightblue" points="1173.31,-90.41 1182.7,-85.5 1172.29,-83.49 1173.31,-90.41"/>
</g>
<!-- Node53&#45;&gt;Node7 -->
<g id="edge31" class="edge">
<title>Node53&#45;&gt;Node7</title>
<path fill="none" stroke="midnightblue" d="M925.37,-240.72C935.57,-218.46 965.18,-158.99 1005.5,-123 1021.27,-108.92 1042.24,-97.98 1059.75,-90.4"/>
<polygon fill="midnightblue" stroke="midnightblue" points="1061.17,-93.6 1069.07,-86.55 1058.49,-87.14 1061.17,-93.6"/>
</g>
<!-- Node53&#45;&gt;Node19 -->
<g id="edge32" class="edge">
<title>Node53&#45;&gt;Node19</title>
<path fill="none" stroke="midnightblue" d="M922.52,-240.76C925.62,-214.15 935,-133.71 939.3,-96.84"/>
<polygon fill="midnightblue" stroke="midnightblue" points="942.82,-96.86 940.51,-86.52 935.87,-96.05 942.82,-96.86"/>
</g>
<!-- Node53&#45;&gt;Node29 -->
<g id="edge33" class="edge">
<title>Node53&#45;&gt;Node29</title>
<path fill="none" stroke="midnightblue" d="M897.43,-240.98C868.49,-230.72 819.74,-213.46 787.1,-201.9"/>
<polygon fill="midnightblue" stroke="midnightblue" points="788.12,-198.55 777.53,-198.51 785.78,-205.15 788.12,-198.55"/>
</g>
<!-- Node53&#45;&gt;Node31 -->
<g id="edge30" class="edge">
<title>Node53&#45;&gt;Node31</title>
<path fill="none" stroke="midnightblue" d="M935.6,-240.92C957.66,-227.53 1001.74,-200.93 1039.5,-179 1094.5,-147.06 1159.69,-110.63 1194.21,-91.45"/>
<polygon fill="midnightblue" stroke="midnightblue" points="1196.06,-94.43 1203.1,-86.52 1192.66,-88.31 1196.06,-94.43"/>
</g>
<!-- Node43 -->
<g id="node18" class="node">
<title>Node43</title>
<g id="a_node18"><a xlink:href="conversion_8hpp.html" target="_top" xlink:title=" ">
<polygon fill="white" stroke="red" points="810,-123.5 810,-142.5 915,-142.5 915,-123.5 810,-123.5"/>
<text text-anchor="middle" x="862.5" y="-130.5" font-family="Helvetica,sans-Serif" font-size="10.00">fw/conversion.hpp</text>
</a>
</g>
</g>
<!-- Node53&#45;&gt;Node43 -->
<g id="edge34" class="edge">
<title>Node53&#45;&gt;Node43</title>
<path fill="none" stroke="midnightblue" d="M917.07,-240.82C907.46,-222.01 884.54,-177.15 871.67,-151.96"/>
<polygon fill="midnightblue" stroke="midnightblue" points="874.65,-150.1 866.99,-142.78 868.42,-153.28 874.65,-150.1"/>
</g>
<!-- Node53&#45;&gt;Node54 -->
<g id="edge37" class="edge">
<title>Node53&#45;&gt;Node54</title>
<path fill="none" stroke="midnightblue" d="M946.72,-240.98C977.17,-230.68 1028.55,-213.31 1062.74,-201.75"/>
<polygon fill="midnightblue" stroke="midnightblue" points="1063.98,-205.03 1072.33,-198.51 1061.74,-198.4 1063.98,-205.03"/>
</g>
<!-- Node43&#45;&gt;Node7 -->
<g id="edge35" class="edge">
<title>Node43&#45;&gt;Node7</title>
<path fill="none" stroke="midnightblue" d="M899.1,-123.44C939.23,-114.06 1003.7,-98.99 1047.28,-88.8"/>
<polygon fill="midnightblue" stroke="midnightblue" points="1048.13,-92.2 1057.07,-86.52 1046.53,-85.38 1048.13,-92.2"/>
</g>
<!-- Node43&#45;&gt;Node24 -->
<g id="edge36" class="edge">
<title>Node43&#45;&gt;Node24</title>
<path fill="none" stroke="midnightblue" d="M852.22,-123.32C842.66,-115.26 828.22,-103.08 816.72,-93.37"/>
<polygon fill="midnightblue" stroke="midnightblue" points="818.87,-90.61 808.97,-86.83 814.36,-95.96 818.87,-90.61"/>
</g>
</g>
</svg>
