<?xml version="1.0" encoding="UTF-8" standalone="no"?>
<!DOCTYPE svg PUBLIC "-//W3C//DTD SVG 1.1//EN"
 "http://www.w3.org/Graphics/SVG/1.1/DTD/svg11.dtd">
<!-- Generated by graphviz version 2.43.0 (0)
 -->
<!-- Title: src/cfg/map.hpp Pages: 1 -->
<svg width="714pt" height="151pt"
 viewBox="0.00 0.00 714.00 151.00" xmlns="http://www.w3.org/2000/svg" xmlns:xlink="http://www.w3.org/1999/xlink">
<g id="graph0" class="graph" transform="scale(1 1) rotate(0) translate(4 147)">
<title>src/cfg/map.hpp</title>
<polygon fill="white" stroke="transparent" points="-4,4 -4,-147 710,-147 710,4 -4,4"/>
<!-- Node1 -->
<g id="node1" class="node">
<title>Node1</title>
<g id="a_node1"><a xlink:title=" ">
<polygon fill="#bfbfbf" stroke="black" points="259.5,-123.5 259.5,-142.5 354.5,-142.5 354.5,-123.5 259.5,-123.5"/>
<text text-anchor="middle" x="307" y="-130.5" font-family="Helvetica,sans-Serif" font-size="10.00">src/cfg/map.hpp</text>
</a>
</g>
</g>
<!-- Node2 -->
<g id="node2" class="node">
<title>Node2</title>
<g id="a_node2"><a xlink:href="base_2base_8hpp.html" target="_top" xlink:title=" ">
<polygon fill="white" stroke="black" points="135.5,-62 135.5,-81 222.5,-81 222.5,-62 135.5,-62"/>
<text text-anchor="middle" x="179" y="-69" font-family="Helvetica,sans-Serif" font-size="10.00">base/base.hpp</text>
</a>
</g>
</g>
<!-- Node1&#45;&gt;Node2 -->
<g id="edge1" class="edge">
<title>Node1&#45;&gt;Node2</title>
<path fill="none" stroke="midnightblue" d="M288.66,-123.48C267.18,-113.49 231.38,-96.85 206.55,-85.31"/>
<polygon fill="midnightblue" stroke="midnightblue" points="207.85,-82.05 197.31,-81.01 204.9,-88.4 207.85,-82.05"/>
</g>
<!-- Node8 -->
<g id="node8" class="node">
<title>Node8</title>
<g id="a_node8"><a xlink:href="key_8hpp.html" target="_top" xlink:title=" ">
<polygon fill="white" stroke="black" points="27.5,-62 27.5,-81 98.5,-81 98.5,-62 27.5,-62"/>
<text text-anchor="middle" x="63" y="-69" font-family="Helvetica,sans-Serif" font-size="10.00">cfg/key.hpp</text>
</a>
</g>
</g>
<!-- Node1&#45;&gt;Node8 -->
<g id="edge7" class="edge">
<title>Node1&#45;&gt;Node8</title>
<path fill="none" stroke="midnightblue" d="M272.04,-123.48C228.83,-112.94 155.21,-94.99 107.87,-83.44"/>
<polygon fill="midnightblue" stroke="midnightblue" points="108.44,-79.98 97.89,-81.01 106.78,-86.78 108.44,-79.98"/>
</g>
<!-- Node9 -->
<g id="node9" class="node">
<title>Node9</title>
<g id="a_node9"><a xlink:title=" ">
<polygon fill="white" stroke="#bfbfbf" points="240.5,-56.5 240.5,-86.5 373.5,-86.5 373.5,-56.5 240.5,-56.5"/>
<text text-anchor="start" x="248.5" y="-74.5" font-family="Helvetica,sans-Serif" font-size="10.00">emlabcpp/experimental</text>
<text text-anchor="middle" x="307" y="-63.5" font-family="Helvetica,sans-Serif" font-size="10.00">/string_buffer.h</text>
</a>
</g>
</g>
<!-- Node1&#45;&gt;Node9 -->
<g id="edge9" class="edge">
<title>Node1&#45;&gt;Node9</title>
<path fill="none" stroke="midnightblue" d="M307,-123.48C307,-116.47 307,-106.19 307,-96.7"/>
<polygon fill="midnightblue" stroke="midnightblue" points="310.5,-96.52 307,-86.52 303.5,-96.52 310.5,-96.52"/>
</g>
<!-- Node10 -->
<g id="node10" class="node">
<title>Node10</title>
<g id="a_node10"><a xlink:title=" ">
<polygon fill="white" stroke="#bfbfbf" points="392,-56.5 392,-86.5 540,-86.5 540,-56.5 392,-56.5"/>
<text text-anchor="start" x="400" y="-74.5" font-family="Helvetica,sans-Serif" font-size="10.00">emlabcpp/protocol/register</text>
<text text-anchor="middle" x="466" y="-63.5" font-family="Helvetica,sans-Serif" font-size="10.00">_handler.h</text>
</a>
</g>
</g>
<!-- Node1&#45;&gt;Node10 -->
<g id="edge10" class="edge">
<title>Node1&#45;&gt;Node10</title>
<path fill="none" stroke="midnightblue" d="M329.78,-123.48C352.93,-114.81 389.45,-101.15 418.86,-90.14"/>
<polygon fill="midnightblue" stroke="midnightblue" points="420.39,-93.31 428.53,-86.52 417.93,-86.75 420.39,-93.31"/>
</g>
<!-- Node11 -->
<g id="node11" class="node">
<title>Node11</title>
<g id="a_node11"><a xlink:title=" ">
<polygon fill="white" stroke="#bfbfbf" points="558,-56.5 558,-86.5 706,-86.5 706,-56.5 558,-56.5"/>
<text text-anchor="start" x="566" y="-74.5" font-family="Helvetica,sans-Serif" font-size="10.00">emlabcpp/protocol/register</text>
<text text-anchor="middle" x="632" y="-63.5" font-family="Helvetica,sans-Serif" font-size="10.00">_map.h</text>
</a>
</g>
</g>
<!-- Node1&#45;&gt;Node11 -->
<g id="edge11" class="edge">
<title>Node1&#45;&gt;Node11</title>
<path fill="none" stroke="midnightblue" d="M353.56,-123.48C404.11,-114.22 485.88,-99.25 547.76,-87.92"/>
<polygon fill="midnightblue" stroke="midnightblue" points="548.69,-91.31 557.9,-86.07 547.43,-84.42 548.69,-91.31"/>
</g>
<!-- Node3 -->
<g id="node3" class="node">
<title>Node3</title>
<g id="a_node3"><a xlink:title=" ">
<polygon fill="white" stroke="#bfbfbf" points="68,-0.5 68,-19.5 118,-19.5 118,-0.5 68,-0.5"/>
<text text-anchor="middle" x="93" y="-7.5" font-family="Helvetica,sans-Serif" font-size="10.00">chrono</text>
</a>
</g>
</g>
<!-- Node2&#45;&gt;Node3 -->
<g id="edge2" class="edge">
<title>Node2&#45;&gt;Node3</title>
<path fill="none" stroke="midnightblue" d="M166.68,-61.98C152.88,-52.43 130.3,-36.81 113.77,-25.37"/>
<polygon fill="midnightblue" stroke="midnightblue" points="115.51,-22.32 105.3,-19.51 111.53,-28.08 115.51,-22.32"/>
</g>
<!-- Node4 -->
<g id="node4" class="node">
<title>Node4</title>
<g id="a_node4"><a xlink:title=" ">
<polygon fill="white" stroke="#bfbfbf" points="0,-0.5 0,-19.5 50,-19.5 50,-0.5 0,-0.5"/>
<text text-anchor="middle" x="25" y="-7.5" font-family="Helvetica,sans-Serif" font-size="10.00">cstdint</text>
</a>
</g>
</g>
<!-- Node2&#45;&gt;Node4 -->
<g id="edge3" class="edge">
<title>Node2&#45;&gt;Node4</title>
<path fill="none" stroke="midnightblue" d="M156.94,-61.98C130.63,-51.81 86.49,-34.76 56.58,-23.2"/>
<polygon fill="midnightblue" stroke="midnightblue" points="57.61,-19.85 47.02,-19.51 55.09,-26.38 57.61,-19.85"/>
</g>
<!-- Node5 -->
<g id="node5" class="node">
<title>Node5</title>
<g id="a_node5"><a xlink:title=" ">
<polygon fill="white" stroke="#bfbfbf" points="136,-0.5 136,-19.5 260,-19.5 260,-0.5 136,-0.5"/>
<text text-anchor="middle" x="198" y="-7.5" font-family="Helvetica,sans-Serif" font-size="10.00">emlabcpp/algorithm.h</text>
</a>
</g>
</g>
<!-- Node2&#45;&gt;Node5 -->
<g id="edge4" class="edge">
<title>Node2&#45;&gt;Node5</title>
<path fill="none" stroke="midnightblue" d="M181.72,-61.98C184.43,-53.49 188.67,-40.2 192.15,-29.32"/>
<polygon fill="midnightblue" stroke="midnightblue" points="195.57,-30.1 195.28,-19.51 188.91,-27.97 195.57,-30.1"/>
</g>
<!-- Node6 -->
<g id="node6" class="node">
<title>Node6</title>
<g id="a_node6"><a xlink:title=" ">
<polygon fill="white" stroke="#bfbfbf" points="278,-0.5 278,-19.5 394,-19.5 394,-0.5 278,-0.5"/>
<text text-anchor="middle" x="336" y="-7.5" font-family="Helvetica,sans-Serif" font-size="10.00">emlabcpp/quantity.h</text>
</a>
</g>
</g>
<!-- Node2&#45;&gt;Node6 -->
<g id="edge5" class="edge">
<title>Node2&#45;&gt;Node6</title>
<path fill="none" stroke="midnightblue" d="M201.49,-61.98C228.31,-51.81 273.32,-34.76 303.81,-23.2"/>
<polygon fill="midnightblue" stroke="midnightblue" points="305.44,-26.33 313.55,-19.51 302.96,-19.78 305.44,-26.33"/>
</g>
<!-- Node7 -->
<g id="node7" class="node">
<title>Node7</title>
<g id="a_node7"><a xlink:title=" ">
<polygon fill="white" stroke="#bfbfbf" points="412.5,-0.5 412.5,-19.5 471.5,-19.5 471.5,-0.5 412.5,-0.5"/>
<text text-anchor="middle" x="442" y="-7.5" font-family="Helvetica,sans-Serif" font-size="10.00">numbers</text>
</a>
</g>
</g>
<!-- Node2&#45;&gt;Node7 -->
<g id="edge6" class="edge">
<title>Node2&#45;&gt;Node7</title>
<path fill="none" stroke="midnightblue" d="M208.91,-61.98C216.43,-59.93 224.49,-57.82 232,-56 304.39,-38.49 325.45,-36.84 402.06,-20.16"/>
<polygon fill="midnightblue" stroke="midnightblue" points="403.19,-23.5 412.2,-17.94 401.69,-16.66 403.19,-23.5"/>
</g>
<!-- Node8&#45;&gt;Node4 -->
<g id="edge8" class="edge">
<title>Node8&#45;&gt;Node4</title>
<path fill="none" stroke="midnightblue" d="M57.56,-61.98C51.91,-53.14 42.94,-39.09 35.84,-27.98"/>
<polygon fill="midnightblue" stroke="midnightblue" points="38.77,-26.05 30.43,-19.51 32.87,-29.82 38.77,-26.05"/>
</g>
</g>
</svg>
