<?xml version="1.0" encoding="UTF-8" standalone="no"?>
<!DOCTYPE svg PUBLIC "-//W3C//DTD SVG 1.1//EN"
 "http://www.w3.org/Graphics/SVG/1.1/DTD/svg11.dtd">
<!-- Generated by graphviz version 2.43.0 (0)
 -->
<!-- Title: src/cfg/map.hpp Pages: 1 -->
<svg width="903pt" height="151pt"
 viewBox="0.00 0.00 902.50 151.00" xmlns="http://www.w3.org/2000/svg" xmlns:xlink="http://www.w3.org/1999/xlink">
<g id="graph0" class="graph" transform="scale(1 1) rotate(0) translate(4 147)">
<title>src/cfg/map.hpp</title>
<polygon fill="white" stroke="transparent" points="-4,4 -4,-147 898.5,-147 898.5,4 -4,4"/>
<!-- Node1 -->
<g id="node1" class="node">
<title>Node1</title>
<g id="a_node1"><a xlink:title=" ">
<polygon fill="#bfbfbf" stroke="black" points="448,-123.5 448,-142.5 543,-142.5 543,-123.5 448,-123.5"/>
<text text-anchor="middle" x="495.5" y="-130.5" font-family="Helvetica,sans-Serif" font-size="10.00">src/cfg/map.hpp</text>
</a>
</g>
</g>
<!-- Node2 -->
<g id="node2" class="node">
<title>Node2</title>
<g id="a_node2"><a xlink:href="base_8hpp.html" target="_top" xlink:title=" ">
<polygon fill="white" stroke="black" points="236,-62 236,-81 297,-81 297,-62 236,-62"/>
<text text-anchor="middle" x="266.5" y="-69" font-family="Helvetica,sans-Serif" font-size="10.00">base.hpp</text>
</a>
</g>
</g>
<!-- Node1&#45;&gt;Node2 -->
<g id="edge1" class="edge">
<title>Node1&#45;&gt;Node2</title>
<path fill="none" stroke="midnightblue" d="M462.69,-123.48C421.61,-112.8 351.27,-94.53 306.92,-83"/>
<polygon fill="midnightblue" stroke="midnightblue" points="307.61,-79.57 297.05,-80.44 305.85,-86.34 307.61,-79.57"/>
</g>
<!-- Node9 -->
<g id="node8" class="node">
<title>Node9</title>
<g id="a_node8"><a xlink:href="key_8hpp.html" target="_top" xlink:title=" ">
<polygon fill="white" stroke="black" points="340,-62 340,-81 411,-81 411,-62 340,-62"/>
<text text-anchor="middle" x="375.5" y="-69" font-family="Helvetica,sans-Serif" font-size="10.00">cfg/key.hpp</text>
</a>
</g>
</g>
<!-- Node1&#45;&gt;Node9 -->
<g id="edge7" class="edge">
<title>Node1&#45;&gt;Node9</title>
<path fill="none" stroke="midnightblue" d="M478.31,-123.48C458.26,-113.53 424.9,-96.99 401.64,-85.46"/>
<polygon fill="midnightblue" stroke="midnightblue" points="403.18,-82.32 392.66,-81.01 400.07,-88.59 403.18,-82.32"/>
</g>
<!-- Node10 -->
<g id="node9" class="node">
<title>Node10</title>
<g id="a_node9"><a xlink:title=" ">
<polygon fill="white" stroke="#bfbfbf" points="429,-56.5 429,-86.5 562,-86.5 562,-56.5 429,-56.5"/>
<text text-anchor="start" x="437" y="-74.5" font-family="Helvetica,sans-Serif" font-size="10.00">emlabcpp/experimental</text>
<text text-anchor="middle" x="495.5" y="-63.5" font-family="Helvetica,sans-Serif" font-size="10.00">/string_buffer.h</text>
</a>
</g>
</g>
<!-- Node1&#45;&gt;Node10 -->
<g id="edge9" class="edge">
<title>Node1&#45;&gt;Node10</title>
<path fill="none" stroke="midnightblue" d="M495.5,-123.48C495.5,-116.47 495.5,-106.19 495.5,-96.7"/>
<polygon fill="midnightblue" stroke="midnightblue" points="499,-96.52 495.5,-86.52 492,-96.52 499,-96.52"/>
</g>
<!-- Node11 -->
<g id="node10" class="node">
<title>Node11</title>
<g id="a_node10"><a xlink:title=" ">
<polygon fill="white" stroke="#bfbfbf" points="580.5,-56.5 580.5,-86.5 728.5,-86.5 728.5,-56.5 580.5,-56.5"/>
<text text-anchor="start" x="588.5" y="-74.5" font-family="Helvetica,sans-Serif" font-size="10.00">emlabcpp/protocol/register</text>
<text text-anchor="middle" x="654.5" y="-63.5" font-family="Helvetica,sans-Serif" font-size="10.00">_handler.h</text>
</a>
</g>
</g>
<!-- Node1&#45;&gt;Node11 -->
<g id="edge10" class="edge">
<title>Node1&#45;&gt;Node11</title>
<path fill="none" stroke="midnightblue" d="M518.28,-123.48C541.43,-114.81 577.95,-101.15 607.36,-90.14"/>
<polygon fill="midnightblue" stroke="midnightblue" points="608.89,-93.31 617.03,-86.52 606.43,-86.75 608.89,-93.31"/>
</g>
<!-- Node12 -->
<g id="node11" class="node">
<title>Node12</title>
<g id="a_node11"><a xlink:title=" ">
<polygon fill="white" stroke="#bfbfbf" points="746.5,-56.5 746.5,-86.5 894.5,-86.5 894.5,-56.5 746.5,-56.5"/>
<text text-anchor="start" x="754.5" y="-74.5" font-family="Helvetica,sans-Serif" font-size="10.00">emlabcpp/protocol/register</text>
<text text-anchor="middle" x="820.5" y="-63.5" font-family="Helvetica,sans-Serif" font-size="10.00">_map.h</text>
</a>
</g>
</g>
<!-- Node1&#45;&gt;Node12 -->
<g id="edge11" class="edge">
<title>Node1&#45;&gt;Node12</title>
<path fill="none" stroke="midnightblue" d="M542.06,-123.48C592.61,-114.22 674.38,-99.25 736.26,-87.92"/>
<polygon fill="midnightblue" stroke="midnightblue" points="737.19,-91.31 746.4,-86.07 735.93,-84.42 737.19,-91.31"/>
</g>
<!-- Node3 -->
<g id="node3" class="node">
<title>Node3</title>
<g id="a_node3"><a xlink:href="scaled_8hpp.html" target="_top" xlink:title=" ">
<polygon fill="white" stroke="red" points="0,-0.5 0,-19.5 69,-19.5 69,-0.5 0,-0.5"/>
<text text-anchor="middle" x="34.5" y="-7.5" font-family="Helvetica,sans-Serif" font-size="10.00">scaled.hpp</text>
</a>
</g>
</g>
<!-- Node2&#45;&gt;Node3 -->
<g id="edge2" class="edge">
<title>Node2&#45;&gt;Node3</title>
<path fill="none" stroke="midnightblue" d="M235.69,-62.6C195.13,-52.2 123.58,-33.85 77.65,-22.07"/>
<polygon fill="midnightblue" stroke="midnightblue" points="78.24,-18.61 67.69,-19.51 76.5,-25.39 78.24,-18.61"/>
</g>
<!-- Node5 -->
<g id="node4" class="node">
<title>Node5</title>
<g id="a_node4"><a xlink:title=" ">
<polygon fill="white" stroke="#bfbfbf" points="87.5,-0.5 87.5,-19.5 137.5,-19.5 137.5,-0.5 87.5,-0.5"/>
<text text-anchor="middle" x="112.5" y="-7.5" font-family="Helvetica,sans-Serif" font-size="10.00">chrono</text>
</a>
</g>
</g>
<!-- Node2&#45;&gt;Node5 -->
<g id="edge3" class="edge">
<title>Node2&#45;&gt;Node5</title>
<path fill="none" stroke="midnightblue" d="M244.44,-61.98C218.13,-51.81 173.99,-34.76 144.08,-23.2"/>
<polygon fill="midnightblue" stroke="midnightblue" points="145.11,-19.85 134.52,-19.51 142.59,-26.38 145.11,-19.85"/>
</g>
<!-- Node6 -->
<g id="node5" class="node">
<title>Node6</title>
<g id="a_node5"><a xlink:title=" ">
<polygon fill="white" stroke="#bfbfbf" points="375.5,-0.5 375.5,-19.5 425.5,-19.5 425.5,-0.5 375.5,-0.5"/>
<text text-anchor="middle" x="400.5" y="-7.5" font-family="Helvetica,sans-Serif" font-size="10.00">cstdint</text>
</a>
</g>
</g>
<!-- Node2&#45;&gt;Node6 -->
<g id="edge4" class="edge">
<title>Node2&#45;&gt;Node6</title>
<path fill="none" stroke="midnightblue" d="M285.7,-61.98C308.29,-51.95 346,-35.2 372,-23.65"/>
<polygon fill="midnightblue" stroke="midnightblue" points="373.62,-26.77 381.34,-19.51 370.78,-20.37 373.62,-26.77"/>
</g>
<!-- Node7 -->
<g id="node6" class="node">
<title>Node7</title>
<g id="a_node6"><a xlink:title=" ">
<polygon fill="white" stroke="#bfbfbf" points="155.5,-0.5 155.5,-19.5 279.5,-19.5 279.5,-0.5 155.5,-0.5"/>
<text text-anchor="middle" x="217.5" y="-7.5" font-family="Helvetica,sans-Serif" font-size="10.00">emlabcpp/algorithm.h</text>
</a>
</g>
</g>
<!-- Node2&#45;&gt;Node7 -->
<g id="edge5" class="edge">
<title>Node2&#45;&gt;Node7</title>
<path fill="none" stroke="midnightblue" d="M259.48,-61.98C252.06,-52.96 240.17,-38.52 230.93,-27.31"/>
<polygon fill="midnightblue" stroke="midnightblue" points="233.57,-25 224.51,-19.51 228.16,-29.45 233.57,-25"/>
</g>
<!-- Node8 -->
<g id="node7" class="node">
<title>Node8</title>
<g id="a_node7"><a xlink:title=" ">
<polygon fill="white" stroke="#bfbfbf" points="298,-0.5 298,-19.5 357,-19.5 357,-0.5 298,-0.5"/>
<text text-anchor="middle" x="327.5" y="-7.5" font-family="Helvetica,sans-Serif" font-size="10.00">numbers</text>
</a>
</g>
</g>
<!-- Node2&#45;&gt;Node8 -->
<g id="edge6" class="edge">
<title>Node2&#45;&gt;Node8</title>
<path fill="none" stroke="midnightblue" d="M275.24,-61.98C284.66,-52.78 299.86,-37.96 311.45,-26.66"/>
<polygon fill="midnightblue" stroke="midnightblue" points="314.06,-29 318.78,-19.51 309.17,-23.99 314.06,-29"/>
</g>
<!-- Node9&#45;&gt;Node6 -->
<g id="edge8" class="edge">
<title>Node9&#45;&gt;Node6</title>
<path fill="none" stroke="midnightblue" d="M379.08,-61.98C382.68,-53.4 388.35,-39.93 392.94,-28.98"/>
<polygon fill="midnightblue" stroke="midnightblue" points="396.28,-30.08 396.92,-19.51 389.82,-27.37 396.28,-30.08"/>
</g>
</g>
</svg>
