<?xml version="1.0" encoding="UTF-8" standalone="no"?>
<!DOCTYPE svg PUBLIC "-//W3C//DTD SVG 1.1//EN"
 "http://www.w3.org/Graphics/SVG/1.1/DTD/svg11.dtd">
<!-- Generated by graphviz version 2.43.0 (0)
 -->
<!-- Title: src/cfg/map.hpp Pages: 1 -->
<svg width="642pt" height="151pt"
 viewBox="0.00 0.00 641.50 151.00" xmlns="http://www.w3.org/2000/svg" xmlns:xlink="http://www.w3.org/1999/xlink">
<g id="graph0" class="graph" transform="scale(1 1) rotate(0) translate(4 147)">
<title>src/cfg/map.hpp</title>
<polygon fill="white" stroke="transparent" points="-4,4 -4,-147 637.5,-147 637.5,4 -4,4"/>
<!-- Node1 -->
<g id="node1" class="node">
<title>Node1</title>
<g id="a_node1"><a xlink:title=" ">
<polygon fill="#bfbfbf" stroke="black" points="187,-123.5 187,-142.5 282,-142.5 282,-123.5 187,-123.5"/>
<text text-anchor="middle" x="234.5" y="-130.5" font-family="Helvetica,sans-Serif" font-size="10.00">src/cfg/map.hpp</text>
</a>
</g>
</g>
<!-- Node2 -->
<g id="node2" class="node">
<title>Node2</title>
<g id="a_node2"><a xlink:href="base_8hpp.html" target="_top" xlink:title=" ">
<polygon fill="white" stroke="black" points="89,-62 89,-81 150,-81 150,-62 89,-62"/>
<text text-anchor="middle" x="119.5" y="-69" font-family="Helvetica,sans-Serif" font-size="10.00">base.hpp</text>
</a>
</g>
</g>
<!-- Node1&#45;&gt;Node2 -->
<g id="edge1" class="edge">
<title>Node1&#45;&gt;Node2</title>
<path fill="none" stroke="midnightblue" d="M218.02,-123.48C198.89,-113.58 167.13,-97.14 144.85,-85.62"/>
<polygon fill="midnightblue" stroke="midnightblue" points="146.44,-82.5 135.95,-81.01 143.22,-88.71 146.44,-82.5"/>
</g>
<!-- Node7 -->
<g id="node7" class="node">
<title>Node7</title>
<g id="a_node7"><a xlink:href="key_8hpp.html" target="_top" xlink:title=" ">
<polygon fill="white" stroke="black" points="0,-62 0,-81 71,-81 71,-62 0,-62"/>
<text text-anchor="middle" x="35.5" y="-69" font-family="Helvetica,sans-Serif" font-size="10.00">cfg/key.hpp</text>
</a>
</g>
</g>
<!-- Node1&#45;&gt;Node7 -->
<g id="edge6" class="edge">
<title>Node1&#45;&gt;Node7</title>
<path fill="none" stroke="midnightblue" d="M203.82,-123.44C172.48,-114.62 122.46,-100.31 79.5,-87 76.6,-86.1 73.59,-85.15 70.58,-84.19"/>
<polygon fill="midnightblue" stroke="midnightblue" points="71.64,-80.85 61.04,-81.09 69.47,-87.51 71.64,-80.85"/>
</g>
<!-- Node8 -->
<g id="node8" class="node">
<title>Node8</title>
<g id="a_node8"><a xlink:title=" ">
<polygon fill="white" stroke="#bfbfbf" points="168,-56.5 168,-86.5 301,-86.5 301,-56.5 168,-56.5"/>
<text text-anchor="start" x="176" y="-74.5" font-family="Helvetica,sans-Serif" font-size="10.00">emlabcpp/experimental</text>
<text text-anchor="middle" x="234.5" y="-63.5" font-family="Helvetica,sans-Serif" font-size="10.00">/string_buffer.h</text>
</a>
</g>
</g>
<!-- Node1&#45;&gt;Node8 -->
<g id="edge8" class="edge">
<title>Node1&#45;&gt;Node8</title>
<path fill="none" stroke="midnightblue" d="M234.5,-123.48C234.5,-116.47 234.5,-106.19 234.5,-96.7"/>
<polygon fill="midnightblue" stroke="midnightblue" points="238,-96.52 234.5,-86.52 231,-96.52 238,-96.52"/>
</g>
<!-- Node9 -->
<g id="node9" class="node">
<title>Node9</title>
<g id="a_node9"><a xlink:title=" ">
<polygon fill="white" stroke="#bfbfbf" points="319.5,-56.5 319.5,-86.5 467.5,-86.5 467.5,-56.5 319.5,-56.5"/>
<text text-anchor="start" x="327.5" y="-74.5" font-family="Helvetica,sans-Serif" font-size="10.00">emlabcpp/protocol/register</text>
<text text-anchor="middle" x="393.5" y="-63.5" font-family="Helvetica,sans-Serif" font-size="10.00">_handler.h</text>
</a>
</g>
</g>
<!-- Node1&#45;&gt;Node9 -->
<g id="edge9" class="edge">
<title>Node1&#45;&gt;Node9</title>
<path fill="none" stroke="midnightblue" d="M257.28,-123.48C280.43,-114.81 316.95,-101.15 346.36,-90.14"/>
<polygon fill="midnightblue" stroke="midnightblue" points="347.89,-93.31 356.03,-86.52 345.43,-86.75 347.89,-93.31"/>
</g>
<!-- Node10 -->
<g id="node10" class="node">
<title>Node10</title>
<g id="a_node10"><a xlink:title=" ">
<polygon fill="white" stroke="#bfbfbf" points="485.5,-56.5 485.5,-86.5 633.5,-86.5 633.5,-56.5 485.5,-56.5"/>
<text text-anchor="start" x="493.5" y="-74.5" font-family="Helvetica,sans-Serif" font-size="10.00">emlabcpp/protocol/register</text>
<text text-anchor="middle" x="559.5" y="-63.5" font-family="Helvetica,sans-Serif" font-size="10.00">_map.h</text>
</a>
</g>
</g>
<!-- Node1&#45;&gt;Node10 -->
<g id="edge10" class="edge">
<title>Node1&#45;&gt;Node10</title>
<path fill="none" stroke="midnightblue" d="M281.06,-123.48C331.61,-114.22 413.38,-99.25 475.26,-87.92"/>
<polygon fill="midnightblue" stroke="midnightblue" points="476.19,-91.31 485.4,-86.07 474.93,-84.42 476.19,-91.31"/>
</g>
<!-- Node3 -->
<g id="node3" class="node">
<title>Node3</title>
<g id="a_node3"><a xlink:title=" ">
<polygon fill="white" stroke="#bfbfbf" points="78.5,-0.5 78.5,-19.5 128.5,-19.5 128.5,-0.5 78.5,-0.5"/>
<text text-anchor="middle" x="103.5" y="-7.5" font-family="Helvetica,sans-Serif" font-size="10.00">chrono</text>
</a>
</g>
</g>
<!-- Node2&#45;&gt;Node3 -->
<g id="edge2" class="edge">
<title>Node2&#45;&gt;Node3</title>
<path fill="none" stroke="midnightblue" d="M117.21,-61.98C114.93,-53.49 111.35,-40.2 108.43,-29.32"/>
<polygon fill="midnightblue" stroke="midnightblue" points="111.76,-28.26 105.79,-19.51 105.01,-30.07 111.76,-28.26"/>
</g>
<!-- Node4 -->
<g id="node4" class="node">
<title>Node4</title>
<g id="a_node4"><a xlink:title=" ">
<polygon fill="white" stroke="#bfbfbf" points="10.5,-0.5 10.5,-19.5 60.5,-19.5 60.5,-0.5 10.5,-0.5"/>
<text text-anchor="middle" x="35.5" y="-7.5" font-family="Helvetica,sans-Serif" font-size="10.00">cstdint</text>
</a>
</g>
</g>
<!-- Node2&#45;&gt;Node4 -->
<g id="edge3" class="edge">
<title>Node2&#45;&gt;Node4</title>
<path fill="none" stroke="midnightblue" d="M107.46,-61.98C93.99,-52.43 71.93,-36.81 55.78,-25.37"/>
<polygon fill="midnightblue" stroke="midnightblue" points="57.7,-22.43 47.51,-19.51 53.65,-28.15 57.7,-22.43"/>
</g>
<!-- Node5 -->
<g id="node5" class="node">
<title>Node5</title>
<g id="a_node5"><a xlink:title=" ">
<polygon fill="white" stroke="#bfbfbf" points="146.5,-0.5 146.5,-19.5 270.5,-19.5 270.5,-0.5 146.5,-0.5"/>
<text text-anchor="middle" x="208.5" y="-7.5" font-family="Helvetica,sans-Serif" font-size="10.00">emlabcpp/algorithm.h</text>
</a>
</g>
</g>
<!-- Node2&#45;&gt;Node5 -->
<g id="edge4" class="edge">
<title>Node2&#45;&gt;Node5</title>
<path fill="none" stroke="midnightblue" d="M132.25,-61.98C146.53,-52.43 169.9,-36.81 187.01,-25.37"/>
<polygon fill="midnightblue" stroke="midnightblue" points="189.4,-27.98 195.77,-19.51 185.51,-22.16 189.4,-27.98"/>
</g>
<!-- Node6 -->
<g id="node6" class="node">
<title>Node6</title>
<g id="a_node6"><a xlink:title=" ">
<polygon fill="white" stroke="#bfbfbf" points="289,-0.5 289,-19.5 348,-19.5 348,-0.5 289,-0.5"/>
<text text-anchor="middle" x="318.5" y="-7.5" font-family="Helvetica,sans-Serif" font-size="10.00">numbers</text>
</a>
</g>
</g>
<!-- Node2&#45;&gt;Node6 -->
<g id="edge5" class="edge">
<title>Node2&#45;&gt;Node6</title>
<path fill="none" stroke="midnightblue" d="M142.25,-61.93C147.86,-59.91 153.88,-57.81 159.5,-56 199.78,-43.02 246.44,-30.05 278.75,-21.4"/>
<polygon fill="midnightblue" stroke="midnightblue" points="279.95,-24.7 288.71,-18.74 278.15,-17.94 279.95,-24.7"/>
</g>
<!-- Node7&#45;&gt;Node4 -->
<g id="edge7" class="edge">
<title>Node7&#45;&gt;Node4</title>
<path fill="none" stroke="midnightblue" d="M35.5,-61.98C35.5,-53.58 35.5,-40.48 35.5,-29.66"/>
<polygon fill="midnightblue" stroke="midnightblue" points="39,-29.51 35.5,-19.51 32,-29.51 39,-29.51"/>
</g>
</g>
</svg>
