<?xml version="1.0" encoding="UTF-8" standalone="no"?>
<!DOCTYPE svg PUBLIC "-//W3C//DTD SVG 1.1//EN"
 "http://www.w3.org/Graphics/SVG/1.1/DTD/svg11.dtd">
<!-- Generated by graphviz version 2.43.0 (0)
 -->
<!-- Title: src/cfg/map.hpp Pages: 1 -->
<svg width="985pt" height="151pt"
 viewBox="0.00 0.00 984.50 151.00" xmlns="http://www.w3.org/2000/svg" xmlns:xlink="http://www.w3.org/1999/xlink">
<g id="graph0" class="graph" transform="scale(1 1) rotate(0) translate(4 147)">
<title>src/cfg/map.hpp</title>
<polygon fill="white" stroke="transparent" points="-4,4 -4,-147 980.5,-147 980.5,4 -4,4"/>
<!-- Node1 -->
<g id="node1" class="node">
<title>Node1</title>
<g id="a_node1"><a xlink:title=" ">
<polygon fill="#bfbfbf" stroke="black" points="410.5,-123.5 410.5,-142.5 505.5,-142.5 505.5,-123.5 410.5,-123.5"/>
<text text-anchor="middle" x="458" y="-130.5" font-family="Helvetica,sans-Serif" font-size="10.00">src/cfg/map.hpp</text>
</a>
</g>
</g>
<!-- Node2 -->
<g id="node2" class="node">
<title>Node2</title>
<g id="a_node2"><a xlink:href="base_2base_8hpp.html" target="_top" xlink:title=" ">
<polygon fill="white" stroke="black" points="135.5,-62 135.5,-81 222.5,-81 222.5,-62 135.5,-62"/>
<text text-anchor="middle" x="179" y="-69" font-family="Helvetica,sans-Serif" font-size="10.00">base/base.hpp</text>
</a>
</g>
</g>
<!-- Node1&#45;&gt;Node2 -->
<g id="edge1" class="edge">
<title>Node1&#45;&gt;Node2</title>
<path fill="none" stroke="midnightblue" d="M410.17,-123.49C364.28,-115.09 293.13,-101.43 232,-87 227.65,-85.97 223.12,-84.84 218.62,-83.67"/>
<polygon fill="midnightblue" stroke="midnightblue" points="219.46,-80.27 208.9,-81.08 217.66,-87.03 219.46,-80.27"/>
</g>
<!-- Node8 -->
<g id="node8" class="node">
<title>Node8</title>
<g id="a_node8"><a xlink:href="key_8hpp.html" target="_top" xlink:title=" ">
<polygon fill="white" stroke="black" points="27.5,-62 27.5,-81 98.5,-81 98.5,-62 27.5,-62"/>
<text text-anchor="middle" x="63" y="-69" font-family="Helvetica,sans-Serif" font-size="10.00">cfg/key.hpp</text>
</a>
</g>
</g>
<!-- Node1&#45;&gt;Node8 -->
<g id="edge7" class="edge">
<title>Node1&#45;&gt;Node8</title>
<path fill="none" stroke="midnightblue" d="M410.38,-126.86C345.89,-119.58 227.3,-105.14 127,-87 120.82,-85.88 114.33,-84.57 107.96,-83.21"/>
<polygon fill="midnightblue" stroke="midnightblue" points="108.62,-79.77 98.1,-81.03 107.11,-86.6 108.62,-79.77"/>
</g>
<!-- Node9 -->
<g id="node9" class="node">
<title>Node9</title>
<g id="a_node9"><a xlink:title=" ">
<polygon fill="white" stroke="#bfbfbf" points="240.5,-56.5 240.5,-86.5 373.5,-86.5 373.5,-56.5 240.5,-56.5"/>
<text text-anchor="start" x="248.5" y="-74.5" font-family="Helvetica,sans-Serif" font-size="10.00">emlabcpp/experimental</text>
<text text-anchor="middle" x="307" y="-63.5" font-family="Helvetica,sans-Serif" font-size="10.00">/string_buffer.h</text>
</a>
</g>
</g>
<!-- Node1&#45;&gt;Node9 -->
<g id="edge9" class="edge">
<title>Node1&#45;&gt;Node9</title>
<path fill="none" stroke="midnightblue" d="M436.37,-123.48C414.48,-114.85 380,-101.26 352.14,-90.29"/>
<polygon fill="midnightblue" stroke="midnightblue" points="353.17,-86.93 342.59,-86.52 350.61,-93.45 353.17,-86.93"/>
</g>
<!-- Node10 -->
<g id="node10" class="node">
<title>Node10</title>
<g id="a_node10"><a xlink:title=" ">
<polygon fill="white" stroke="#bfbfbf" points="391.5,-56.5 391.5,-86.5 524.5,-86.5 524.5,-56.5 391.5,-56.5"/>
<text text-anchor="start" x="399.5" y="-74.5" font-family="Helvetica,sans-Serif" font-size="10.00">emlabcpp/experimental</text>
<text text-anchor="middle" x="458" y="-63.5" font-family="Helvetica,sans-Serif" font-size="10.00">/testing/convert.h</text>
</a>
</g>
</g>
<!-- Node1&#45;&gt;Node10 -->
<g id="edge10" class="edge">
<title>Node1&#45;&gt;Node10</title>
<path fill="none" stroke="midnightblue" d="M458,-123.48C458,-116.47 458,-106.19 458,-96.7"/>
<polygon fill="midnightblue" stroke="midnightblue" points="461.5,-96.52 458,-86.52 454.5,-96.52 461.5,-96.52"/>
</g>
<!-- Node11 -->
<g id="node11" class="node">
<title>Node11</title>
<g id="a_node11"><a xlink:title=" ">
<polygon fill="white" stroke="#bfbfbf" points="543,-56.5 543,-86.5 691,-86.5 691,-56.5 543,-56.5"/>
<text text-anchor="start" x="551" y="-74.5" font-family="Helvetica,sans-Serif" font-size="10.00">emlabcpp/protocol/register</text>
<text text-anchor="middle" x="617" y="-63.5" font-family="Helvetica,sans-Serif" font-size="10.00">_handler.h</text>
</a>
</g>
</g>
<!-- Node1&#45;&gt;Node11 -->
<g id="edge11" class="edge">
<title>Node1&#45;&gt;Node11</title>
<path fill="none" stroke="midnightblue" d="M480.78,-123.48C503.93,-114.81 540.45,-101.15 569.86,-90.14"/>
<polygon fill="midnightblue" stroke="midnightblue" points="571.39,-93.31 579.53,-86.52 568.93,-86.75 571.39,-93.31"/>
</g>
<!-- Node12 -->
<g id="node12" class="node">
<title>Node12</title>
<g id="a_node12"><a xlink:title=" ">
<polygon fill="white" stroke="#bfbfbf" points="709,-56.5 709,-86.5 857,-86.5 857,-56.5 709,-56.5"/>
<text text-anchor="start" x="717" y="-74.5" font-family="Helvetica,sans-Serif" font-size="10.00">emlabcpp/protocol/register</text>
<text text-anchor="middle" x="783" y="-63.5" font-family="Helvetica,sans-Serif" font-size="10.00">_map.h</text>
</a>
</g>
</g>
<!-- Node1&#45;&gt;Node12 -->
<g id="edge12" class="edge">
<title>Node1&#45;&gt;Node12</title>
<path fill="none" stroke="midnightblue" d="M504.56,-123.48C555.11,-114.22 636.88,-99.25 698.76,-87.92"/>
<polygon fill="midnightblue" stroke="midnightblue" points="699.69,-91.31 708.9,-86.07 698.43,-84.42 699.69,-91.31"/>
</g>
<!-- Node13 -->
<g id="node13" class="node">
<title>Node13</title>
<g id="a_node13"><a xlink:title=" ">
<polygon fill="white" stroke="#bfbfbf" points="875.5,-62 875.5,-81 976.5,-81 976.5,-62 875.5,-62"/>
<text text-anchor="middle" x="926" y="-69" font-family="Helvetica,sans-Serif" font-size="10.00">magic_enum.hpp</text>
</a>
</g>
</g>
<!-- Node1&#45;&gt;Node13 -->
<g id="edge13" class="edge">
<title>Node1&#45;&gt;Node13</title>
<path fill="none" stroke="midnightblue" d="M505.71,-128.72C582.16,-123.01 736.67,-109.66 866,-87 871.88,-85.97 878.05,-84.7 884.09,-83.34"/>
<polygon fill="midnightblue" stroke="midnightblue" points="885.14,-86.69 894.09,-81.01 883.55,-79.88 885.14,-86.69"/>
</g>
<!-- Node3 -->
<g id="node3" class="node">
<title>Node3</title>
<g id="a_node3"><a xlink:title=" ">
<polygon fill="white" stroke="#bfbfbf" points="68,-0.5 68,-19.5 118,-19.5 118,-0.5 68,-0.5"/>
<text text-anchor="middle" x="93" y="-7.5" font-family="Helvetica,sans-Serif" font-size="10.00">chrono</text>
</a>
</g>
</g>
<!-- Node2&#45;&gt;Node3 -->
<g id="edge2" class="edge">
<title>Node2&#45;&gt;Node3</title>
<path fill="none" stroke="midnightblue" d="M166.68,-61.98C152.88,-52.43 130.3,-36.81 113.77,-25.37"/>
<polygon fill="midnightblue" stroke="midnightblue" points="115.51,-22.32 105.3,-19.51 111.53,-28.08 115.51,-22.32"/>
</g>
<!-- Node4 -->
<g id="node4" class="node">
<title>Node4</title>
<g id="a_node4"><a xlink:title=" ">
<polygon fill="white" stroke="#bfbfbf" points="0,-0.5 0,-19.5 50,-19.5 50,-0.5 0,-0.5"/>
<text text-anchor="middle" x="25" y="-7.5" font-family="Helvetica,sans-Serif" font-size="10.00">cstdint</text>
</a>
</g>
</g>
<!-- Node2&#45;&gt;Node4 -->
<g id="edge3" class="edge">
<title>Node2&#45;&gt;Node4</title>
<path fill="none" stroke="midnightblue" d="M156.94,-61.98C130.63,-51.81 86.49,-34.76 56.58,-23.2"/>
<polygon fill="midnightblue" stroke="midnightblue" points="57.61,-19.85 47.02,-19.51 55.09,-26.38 57.61,-19.85"/>
</g>
<!-- Node5 -->
<g id="node5" class="node">
<title>Node5</title>
<g id="a_node5"><a xlink:title=" ">
<polygon fill="white" stroke="#bfbfbf" points="136,-0.5 136,-19.5 260,-19.5 260,-0.5 136,-0.5"/>
<text text-anchor="middle" x="198" y="-7.5" font-family="Helvetica,sans-Serif" font-size="10.00">emlabcpp/algorithm.h</text>
</a>
</g>
</g>
<!-- Node2&#45;&gt;Node5 -->
<g id="edge4" class="edge">
<title>Node2&#45;&gt;Node5</title>
<path fill="none" stroke="midnightblue" d="M181.72,-61.98C184.43,-53.49 188.67,-40.2 192.15,-29.32"/>
<polygon fill="midnightblue" stroke="midnightblue" points="195.57,-30.1 195.28,-19.51 188.91,-27.97 195.57,-30.1"/>
</g>
<!-- Node6 -->
<g id="node6" class="node">
<title>Node6</title>
<g id="a_node6"><a xlink:title=" ">
<polygon fill="white" stroke="#bfbfbf" points="278,-0.5 278,-19.5 394,-19.5 394,-0.5 278,-0.5"/>
<text text-anchor="middle" x="336" y="-7.5" font-family="Helvetica,sans-Serif" font-size="10.00">emlabcpp/quantity.h</text>
</a>
</g>
</g>
<!-- Node2&#45;&gt;Node6 -->
<g id="edge5" class="edge">
<title>Node2&#45;&gt;Node6</title>
<path fill="none" stroke="midnightblue" d="M201.49,-61.98C228.31,-51.81 273.32,-34.76 303.81,-23.2"/>
<polygon fill="midnightblue" stroke="midnightblue" points="305.44,-26.33 313.55,-19.51 302.96,-19.78 305.44,-26.33"/>
</g>
<!-- Node7 -->
<g id="node7" class="node">
<title>Node7</title>
<g id="a_node7"><a xlink:title=" ">
<polygon fill="white" stroke="#bfbfbf" points="412.5,-0.5 412.5,-19.5 471.5,-19.5 471.5,-0.5 412.5,-0.5"/>
<text text-anchor="middle" x="442" y="-7.5" font-family="Helvetica,sans-Serif" font-size="10.00">numbers</text>
</a>
</g>
</g>
<!-- Node2&#45;&gt;Node7 -->
<g id="edge6" class="edge">
<title>Node2&#45;&gt;Node7</title>
<path fill="none" stroke="midnightblue" d="M208.91,-61.98C216.43,-59.93 224.49,-57.82 232,-56 304.39,-38.49 325.45,-36.84 402.06,-20.16"/>
<polygon fill="midnightblue" stroke="midnightblue" points="403.19,-23.5 412.2,-17.94 401.69,-16.66 403.19,-23.5"/>
</g>
<!-- Node8&#45;&gt;Node4 -->
<g id="edge8" class="edge">
<title>Node8&#45;&gt;Node4</title>
<path fill="none" stroke="midnightblue" d="M57.56,-61.98C51.91,-53.14 42.94,-39.09 35.84,-27.98"/>
<polygon fill="midnightblue" stroke="midnightblue" points="38.77,-26.05 30.43,-19.51 32.87,-29.82 38.77,-26.05"/>
</g>
</g>
</svg>
