<?xml version="1.0" encoding="UTF-8" standalone="no"?>
<!DOCTYPE svg PUBLIC "-//W3C//DTD SVG 1.1//EN"
 "http://www.w3.org/Graphics/SVG/1.1/DTD/svg11.dtd">
<!-- Generated by graphviz version 2.43.0 (0)
 -->
<!-- Title: src/cfg/map.hpp Pages: 1 -->
<svg width="1055pt" height="151pt"
 viewBox="0.00 0.00 1054.50 151.00" xmlns="http://www.w3.org/2000/svg" xmlns:xlink="http://www.w3.org/1999/xlink">
<g id="graph0" class="graph" transform="scale(1 1) rotate(0) translate(4 147)">
<title>src/cfg/map.hpp</title>
<polygon fill="white" stroke="transparent" points="-4,4 -4,-147 1050.5,-147 1050.5,4 -4,4"/>
<!-- Node1 -->
<g id="node1" class="node">
<title>Node1</title>
<g id="a_node1"><a xlink:title=" ">
<polygon fill="#bfbfbf" stroke="black" points="414.5,-123.5 414.5,-142.5 509.5,-142.5 509.5,-123.5 414.5,-123.5"/>
<text text-anchor="middle" x="462" y="-130.5" font-family="Helvetica,sans-Serif" font-size="10.00">src/cfg/map.hpp</text>
</a>
</g>
</g>
<!-- Node2 -->
<g id="node2" class="node">
<title>Node2</title>
<g id="a_node2"><a xlink:href="base_2base_8hpp.html" target="_top" xlink:title=" ">
<polygon fill="white" stroke="black" points="130,-62 130,-81 226,-81 226,-62 130,-62"/>
<text text-anchor="middle" x="178" y="-69" font-family="Helvetica,sans-Serif" font-size="10.00">../base/base.hpp</text>
</a>
</g>
</g>
<!-- Node1&#45;&gt;Node2 -->
<g id="edge1" class="edge">
<title>Node1&#45;&gt;Node2</title>
<path fill="none" stroke="midnightblue" d="M415.55,-123.43C369.76,-114.83 297.87,-100.89 236,-87 231.06,-85.89 225.9,-84.68 220.78,-83.44"/>
<polygon fill="midnightblue" stroke="midnightblue" points="221.61,-80.04 211.06,-81.06 219.94,-86.84 221.61,-80.04"/>
</g>
<!-- Node8 -->
<g id="node8" class="node">
<title>Node8</title>
<g id="a_node8"><a xlink:href="key_8hpp.html" target="_top" xlink:title=" ">
<polygon fill="white" stroke="black" points="33.5,-62 33.5,-81 92.5,-81 92.5,-62 33.5,-62"/>
<text text-anchor="middle" x="63" y="-69" font-family="Helvetica,sans-Serif" font-size="10.00">./key.hpp</text>
</a>
</g>
</g>
<!-- Node1&#45;&gt;Node8 -->
<g id="edge7" class="edge">
<title>Node1&#45;&gt;Node8</title>
<path fill="none" stroke="midnightblue" d="M414.29,-127.44C348.1,-120.71 224.83,-106.76 121,-87 115.06,-85.87 108.81,-84.5 102.71,-83.06"/>
<polygon fill="midnightblue" stroke="midnightblue" points="103.21,-79.58 92.66,-80.6 101.54,-86.38 103.21,-79.58"/>
</g>
<!-- Node9 -->
<g id="node9" class="node">
<title>Node9</title>
<g id="a_node9"><a xlink:title=" ">
<polygon fill="white" stroke="#bfbfbf" points="244.5,-56.5 244.5,-86.5 377.5,-86.5 377.5,-56.5 244.5,-56.5"/>
<text text-anchor="start" x="252.5" y="-74.5" font-family="Helvetica,sans-Serif" font-size="10.00">emlabcpp/experimental</text>
<text text-anchor="middle" x="311" y="-63.5" font-family="Helvetica,sans-Serif" font-size="10.00">/string_buffer.h</text>
</a>
</g>
</g>
<!-- Node1&#45;&gt;Node9 -->
<g id="edge9" class="edge">
<title>Node1&#45;&gt;Node9</title>
<path fill="none" stroke="midnightblue" d="M440.37,-123.48C418.48,-114.85 384,-101.26 356.14,-90.29"/>
<polygon fill="midnightblue" stroke="midnightblue" points="357.17,-86.93 346.59,-86.52 354.61,-93.45 357.17,-86.93"/>
</g>
<!-- Node10 -->
<g id="node10" class="node">
<title>Node10</title>
<g id="a_node10"><a xlink:title=" ">
<polygon fill="white" stroke="#bfbfbf" points="395.5,-56.5 395.5,-86.5 528.5,-86.5 528.5,-56.5 395.5,-56.5"/>
<text text-anchor="start" x="403.5" y="-74.5" font-family="Helvetica,sans-Serif" font-size="10.00">emlabcpp/experimental</text>
<text text-anchor="middle" x="462" y="-63.5" font-family="Helvetica,sans-Serif" font-size="10.00">/testing/convert.h</text>
</a>
</g>
</g>
<!-- Node1&#45;&gt;Node10 -->
<g id="edge10" class="edge">
<title>Node1&#45;&gt;Node10</title>
<path fill="none" stroke="midnightblue" d="M462,-123.48C462,-116.47 462,-106.19 462,-96.7"/>
<polygon fill="midnightblue" stroke="midnightblue" points="465.5,-96.52 462,-86.52 458.5,-96.52 465.5,-96.52"/>
</g>
<!-- Node11 -->
<g id="node11" class="node">
<title>Node11</title>
<g id="a_node11"><a xlink:title=" ">
<polygon fill="white" stroke="#bfbfbf" points="547,-56.5 547,-86.5 695,-86.5 695,-56.5 547,-56.5"/>
<text text-anchor="start" x="555" y="-74.5" font-family="Helvetica,sans-Serif" font-size="10.00">emlabcpp/protocol/register</text>
<text text-anchor="middle" x="621" y="-63.5" font-family="Helvetica,sans-Serif" font-size="10.00">_handler.h</text>
</a>
</g>
</g>
<!-- Node1&#45;&gt;Node11 -->
<g id="edge11" class="edge">
<title>Node1&#45;&gt;Node11</title>
<path fill="none" stroke="midnightblue" d="M484.78,-123.48C507.93,-114.81 544.45,-101.15 573.86,-90.14"/>
<polygon fill="midnightblue" stroke="midnightblue" points="575.39,-93.31 583.53,-86.52 572.93,-86.75 575.39,-93.31"/>
</g>
<!-- Node12 -->
<g id="node12" class="node">
<title>Node12</title>
<g id="a_node12"><a xlink:title=" ">
<polygon fill="white" stroke="#bfbfbf" points="713,-56.5 713,-86.5 861,-86.5 861,-56.5 713,-56.5"/>
<text text-anchor="start" x="721" y="-74.5" font-family="Helvetica,sans-Serif" font-size="10.00">emlabcpp/protocol/register</text>
<text text-anchor="middle" x="787" y="-63.5" font-family="Helvetica,sans-Serif" font-size="10.00">_map.h</text>
</a>
</g>
</g>
<!-- Node1&#45;&gt;Node12 -->
<g id="edge12" class="edge">
<title>Node1&#45;&gt;Node12</title>
<path fill="none" stroke="midnightblue" d="M508.56,-123.48C559.11,-114.22 640.88,-99.25 702.76,-87.92"/>
<polygon fill="midnightblue" stroke="midnightblue" points="703.69,-91.31 712.9,-86.07 702.43,-84.42 703.69,-91.31"/>
</g>
<!-- Node13 -->
<g id="node13" class="node">
<title>Node13</title>
<g id="a_node13"><a xlink:title=" ">
<polygon fill="white" stroke="#bfbfbf" points="879.5,-62 879.5,-81 1046.5,-81 1046.5,-62 879.5,-62"/>
<text text-anchor="middle" x="963" y="-69" font-family="Helvetica,sans-Serif" font-size="10.00">magic_enum/magic_enum.hpp</text>
</a>
</g>
</g>
<!-- Node1&#45;&gt;Node13 -->
<g id="edge13" class="edge">
<title>Node1&#45;&gt;Node13</title>
<path fill="none" stroke="midnightblue" d="M509.51,-127.46C585.7,-120.02 739.84,-104.32 870,-87 879.96,-85.67 890.5,-84.15 900.77,-82.6"/>
<polygon fill="midnightblue" stroke="midnightblue" points="901.57,-86.02 910.92,-81.04 900.51,-79.1 901.57,-86.02"/>
</g>
<!-- Node3 -->
<g id="node3" class="node">
<title>Node3</title>
<g id="a_node3"><a xlink:title=" ">
<polygon fill="white" stroke="#bfbfbf" points="68,-0.5 68,-19.5 118,-19.5 118,-0.5 68,-0.5"/>
<text text-anchor="middle" x="93" y="-7.5" font-family="Helvetica,sans-Serif" font-size="10.00">chrono</text>
</a>
</g>
</g>
<!-- Node2&#45;&gt;Node3 -->
<g id="edge2" class="edge">
<title>Node2&#45;&gt;Node3</title>
<path fill="none" stroke="midnightblue" d="M165.82,-61.98C152.19,-52.43 129.87,-36.81 113.53,-25.37"/>
<polygon fill="midnightblue" stroke="midnightblue" points="115.36,-22.38 105.16,-19.51 111.34,-28.11 115.36,-22.38"/>
</g>
<!-- Node4 -->
<g id="node4" class="node">
<title>Node4</title>
<g id="a_node4"><a xlink:title=" ">
<polygon fill="white" stroke="#bfbfbf" points="0,-0.5 0,-19.5 50,-19.5 50,-0.5 0,-0.5"/>
<text text-anchor="middle" x="25" y="-7.5" font-family="Helvetica,sans-Serif" font-size="10.00">cstdint</text>
</a>
</g>
</g>
<!-- Node2&#45;&gt;Node4 -->
<g id="edge3" class="edge">
<title>Node2&#45;&gt;Node4</title>
<path fill="none" stroke="midnightblue" d="M156.08,-61.98C129.95,-51.81 86.09,-34.76 56.37,-23.2"/>
<polygon fill="midnightblue" stroke="midnightblue" points="57.47,-19.87 46.88,-19.51 54.93,-26.4 57.47,-19.87"/>
</g>
<!-- Node5 -->
<g id="node5" class="node">
<title>Node5</title>
<g id="a_node5"><a xlink:title=" ">
<polygon fill="white" stroke="#bfbfbf" points="136,-0.5 136,-19.5 260,-19.5 260,-0.5 136,-0.5"/>
<text text-anchor="middle" x="198" y="-7.5" font-family="Helvetica,sans-Serif" font-size="10.00">emlabcpp/algorithm.h</text>
</a>
</g>
</g>
<!-- Node2&#45;&gt;Node5 -->
<g id="edge4" class="edge">
<title>Node2&#45;&gt;Node5</title>
<path fill="none" stroke="midnightblue" d="M180.87,-61.98C183.72,-53.49 188.18,-40.2 191.84,-29.32"/>
<polygon fill="midnightblue" stroke="midnightblue" points="195.27,-30.1 195.14,-19.51 188.64,-27.87 195.27,-30.1"/>
</g>
<!-- Node6 -->
<g id="node6" class="node">
<title>Node6</title>
<g id="a_node6"><a xlink:title=" ">
<polygon fill="white" stroke="#bfbfbf" points="278,-0.5 278,-19.5 394,-19.5 394,-0.5 278,-0.5"/>
<text text-anchor="middle" x="336" y="-7.5" font-family="Helvetica,sans-Serif" font-size="10.00">emlabcpp/quantity.h</text>
</a>
</g>
</g>
<!-- Node2&#45;&gt;Node6 -->
<g id="edge5" class="edge">
<title>Node2&#45;&gt;Node6</title>
<path fill="none" stroke="midnightblue" d="M200.64,-61.98C227.74,-51.77 273.31,-34.61 304,-23.05"/>
<polygon fill="midnightblue" stroke="midnightblue" points="305.28,-26.31 313.4,-19.51 302.81,-19.76 305.28,-26.31"/>
</g>
<!-- Node7 -->
<g id="node7" class="node">
<title>Node7</title>
<g id="a_node7"><a xlink:title=" ">
<polygon fill="white" stroke="#bfbfbf" points="412.5,-0.5 412.5,-19.5 471.5,-19.5 471.5,-0.5 412.5,-0.5"/>
<text text-anchor="middle" x="442" y="-7.5" font-family="Helvetica,sans-Serif" font-size="10.00">numbers</text>
</a>
</g>
</g>
<!-- Node2&#45;&gt;Node7 -->
<g id="edge6" class="edge">
<title>Node2&#45;&gt;Node7</title>
<path fill="none" stroke="midnightblue" d="M211.39,-61.96C219.43,-59.95 228.01,-57.86 236,-56 306.92,-39.5 327.25,-36.75 402.27,-20.13"/>
<polygon fill="midnightblue" stroke="midnightblue" points="403.2,-23.51 412.2,-17.92 401.68,-16.68 403.2,-23.51"/>
</g>
<!-- Node8&#45;&gt;Node4 -->
<g id="edge8" class="edge">
<title>Node8&#45;&gt;Node4</title>
<path fill="none" stroke="midnightblue" d="M57.56,-61.98C51.91,-53.14 42.94,-39.09 35.84,-27.98"/>
<polygon fill="midnightblue" stroke="midnightblue" points="38.77,-26.05 30.43,-19.51 32.87,-29.82 38.77,-26.05"/>
</g>
</g>
</svg>
