<?xml version="1.0" encoding="UTF-8" standalone="no"?>
<!DOCTYPE svg PUBLIC "-//W3C//DTD SVG 1.1//EN"
 "http://www.w3.org/Graphics/SVG/1.1/DTD/svg11.dtd">
<!-- Generated by graphviz version 2.43.0 (0)
 -->
<!-- Title: src/drv/mock.hpp Pages: 1 -->
<svg width="463pt" height="247pt"
 viewBox="0.00 0.00 463.39 247.00" xmlns="http://www.w3.org/2000/svg" xmlns:xlink="http://www.w3.org/1999/xlink">
<g id="graph0" class="graph" transform="scale(1 1) rotate(0) translate(4 243)">
<title>src/drv/mock.hpp</title>
<!-- Node1 -->
<g id="Node000001" class="node">
<title>Node1</title>
<g id="a_Node000001"><a xlink:title=" ">
<polygon fill="#999999" stroke="#666666" points="221.89,-239 120.89,-239 120.89,-220 221.89,-220 221.89,-239"/>
<text text-anchor="middle" x="171.39" y="-227" font-family="Helvetica,sans-Serif" font-size="10.00">src/drv/mock.hpp</text>
</a>
</g>
</g>
<!-- Node2 -->
<g id="Node000002" class="node">
<title>Node2</title>
<g id="a_Node000002"><a xlink:href="interfaces_8hpp.html" target="_top" xlink:title=" ">
<polygon fill="white" stroke="#666666" points="214.39,-184 128.39,-184 128.39,-165 214.39,-165 214.39,-184"/>
<text text-anchor="middle" x="171.39" y="-172" font-family="Helvetica,sans-Serif" font-size="10.00">interfaces.hpp</text>
</a>
</g>
</g>
<!-- Node1&#45;&gt;Node2 -->
<g id="edge1_Node000001_Node000002" class="edge">
<title>Node1&#45;&gt;Node2</title>
<g id="a_edge1_Node000001_Node000002"><a xlink:title=" ">
<path fill="none" stroke="#63b8ff" d="M171.39,-219.75C171.39,-212.8 171.39,-202.85 171.39,-194.13"/>
<polygon fill="#63b8ff" stroke="#63b8ff" points="174.89,-194.09 171.39,-184.09 167.89,-194.09 174.89,-194.09"/>
</a>
</g>
</g>
<!-- Node3 -->
<g id="Node000003" class="node">
<title>Node3</title>
<g id="a_Node000003"><a xlink:href="base_2base_8hpp.html" target="_top" xlink:title=" ">
<polygon fill="#fff0f0" stroke="red" points="99.39,-74 3.39,-74 3.39,-55 99.39,-55 99.39,-74"/>
<text text-anchor="middle" x="51.39" y="-62" font-family="Helvetica,sans-Serif" font-size="10.00">../base/base.hpp</text>
</a>
</g>
</g>
<!-- Node2&#45;&gt;Node3 -->
<g id="edge2_Node000002_Node000003" class="edge">
<title>Node2&#45;&gt;Node3</title>
<g id="a_edge2_Node000002_Node000003"><a xlink:title=" ">
<path fill="none" stroke="#63b8ff" d="M127.99,-167.95C83.7,-161.29 19.38,-148.51 4.39,-129 -8.4,-112.36 10.88,-92.94 28.47,-79.99"/>
<polygon fill="#63b8ff" stroke="#63b8ff" points="30.59,-82.78 36.81,-74.2 26.6,-77.03 30.59,-82.78"/>
</a>
</g>
</g>
<!-- Node5 -->
<g id="Node000005" class="node">
<title>Node5</title>
<g id="a_Node000005"><a xlink:title=" ">
<polygon fill="#e0e0e0" stroke="#999999" points="114.39,-19 64.39,-19 64.39,0 114.39,0 114.39,-19"/>
<text text-anchor="middle" x="89.39" y="-7" font-family="Helvetica,sans-Serif" font-size="10.00">cstdint</text>
</a>
</g>
</g>
<!-- Node2&#45;&gt;Node5 -->
<g id="edge6_Node000002_Node000005" class="edge">
<title>Node2&#45;&gt;Node5</title>
<g id="a_edge6_Node000002_Node000005"><a xlink:title=" ">
<path fill="none" stroke="#63b8ff" d="M166.5,-164.69C161.58,-155.75 153.81,-141.49 147.39,-129 129.22,-93.67 109.05,-51.82 97.93,-28.5"/>
<polygon fill="#63b8ff" stroke="#63b8ff" points="100.95,-26.71 93.49,-19.18 94.63,-29.72 100.95,-26.71"/>
</a>
</g>
</g>
<!-- Node9 -->
<g id="Node000009" class="node">
<title>Node9</title>
<g id="a_Node000009"><a xlink:href="map_8hpp.html" target="_top" xlink:title=" ">
<polygon fill="#fff0f0" stroke="red" points="99.39,-129 13.39,-129 13.39,-110 99.39,-110 99.39,-129"/>
<text text-anchor="middle" x="56.39" y="-117" font-family="Helvetica,sans-Serif" font-size="10.00">../cfg/map.hpp</text>
</a>
</g>
</g>
<!-- Node2&#45;&gt;Node9 -->
<g id="edge4_Node000002_Node000009" class="edge">
<title>Node2&#45;&gt;Node9</title>
<g id="a_edge4_Node000002_Node000009"><a xlink:title=" ">
<path fill="none" stroke="#63b8ff" d="M152.91,-164.98C134.41,-156.46 105.71,-143.23 84.4,-133.41"/>
<polygon fill="#63b8ff" stroke="#63b8ff" points="85.75,-130.18 75.2,-129.17 82.82,-136.53 85.75,-130.18"/>
</a>
</g>
</g>
<!-- Node16 -->
<g id="Node000016" class="node">
<title>Node16</title>
<g id="a_Node000016"><a xlink:title=" ">
<polygon fill="#e0e0e0" stroke="#999999" points="274.89,-129 155.89,-129 155.89,-110 274.89,-110 274.89,-129"/>
<text text-anchor="middle" x="215.39" y="-117" font-family="Helvetica,sans-Serif" font-size="10.00">emlabcpp/outcome.h</text>
</a>
</g>
</g>
<!-- Node2&#45;&gt;Node16 -->
<g id="edge7_Node000002_Node000016" class="edge">
<title>Node2&#45;&gt;Node16</title>
<g id="a_edge7_Node000002_Node000016"><a xlink:title=" ">
<path fill="none" stroke="#63b8ff" d="M178.65,-164.75C184.93,-157.18 194.18,-146.05 201.82,-136.84"/>
<polygon fill="#63b8ff" stroke="#63b8ff" points="204.56,-139.02 208.26,-129.09 199.18,-134.55 204.56,-139.02"/>
</a>
</g>
</g>
<!-- Node17 -->
<g id="Node000017" class="node">
<title>Node17</title>
<g id="a_Node000017"><a xlink:title=" ">
<polygon fill="#e0e0e0" stroke="#999999" points="397.39,-129 293.39,-129 293.39,-110 397.39,-110 397.39,-129"/>
<text text-anchor="middle" x="345.39" y="-117" font-family="Helvetica,sans-Serif" font-size="10.00">emlabcpp/result.h</text>
</a>
</g>
</g>
<!-- Node2&#45;&gt;Node17 -->
<g id="edge8_Node000002_Node000017" class="edge">
<title>Node2&#45;&gt;Node17</title>
<g id="a_edge8_Node000002_Node000017"><a xlink:title=" ">
<path fill="none" stroke="#63b8ff" d="M199.34,-164.98C228.68,-156.05 274.98,-141.94 307.57,-132.02"/>
<polygon fill="#63b8ff" stroke="#63b8ff" points="308.67,-135.34 317.21,-129.08 306.63,-128.65 308.67,-135.34"/>
</a>
</g>
</g>
<!-- Node18 -->
<g id="Node000018" class="node">
<title>Node18</title>
<g id="a_Node000018"><a xlink:title=" ">
<polygon fill="#e0e0e0" stroke="#999999" points="455.39,-129 415.39,-129 415.39,-110 455.39,-110 455.39,-129"/>
<text text-anchor="middle" x="435.39" y="-117" font-family="Helvetica,sans-Serif" font-size="10.00">span</text>
</a>
</g>
</g>
<!-- Node2&#45;&gt;Node18 -->
<g id="edge9_Node000002_Node000018" class="edge">
<title>Node2&#45;&gt;Node18</title>
<g id="a_edge9_Node000002_Node000018"><a xlink:title=" ">
<path fill="none" stroke="#63b8ff" d="M214.54,-166.63C259.75,-159.15 333.02,-146.21 405.03,-129.14"/>
<polygon fill="#63b8ff" stroke="#63b8ff" points="406.27,-132.44 415.17,-126.7 404.63,-125.63 406.27,-132.44"/>
</a>
</g>
</g>
<!-- Node3&#45;&gt;Node5 -->
<g id="edge3_Node000003_Node000005" class="edge">
<title>Node3&#45;&gt;Node5</title>
<g id="a_edge3_Node000003_Node000005"><a xlink:title=" ">
<path fill="none" stroke="#63b8ff" d="M57.66,-54.75C62.98,-47.34 70.74,-36.5 77.26,-27.41"/>
<polygon fill="#63b8ff" stroke="#63b8ff" points="80.25,-29.26 83.23,-19.09 74.56,-25.18 80.25,-29.26"/>
</a>
</g>
</g>
<!-- Node9&#45;&gt;Node3 -->
<g id="edge5_Node000009_Node000003" class="edge">
<title>Node9&#45;&gt;Node3</title>
<g id="a_edge5_Node000009_Node000003"><a xlink:title=" ">
<path fill="none" stroke="#63b8ff" d="M55.56,-109.75C54.91,-102.8 53.97,-92.85 53.15,-84.13"/>
<polygon fill="#63b8ff" stroke="#63b8ff" points="56.62,-83.72 52.2,-74.09 49.65,-84.37 56.62,-83.72"/>
</a>
</g>
</g>
</g>
</svg>
