<?xml version="1.0" encoding="UTF-8" standalone="no"?>
<!DOCTYPE svg PUBLIC "-//W3C//DTD SVG 1.1//EN"
 "http://www.w3.org/Graphics/SVG/1.1/DTD/svg11.dtd">
<!-- Generated by graphviz version 2.43.0 (0)
 -->
<!-- Title: src/monitor.hpp Pages: 1 -->
<svg width="1026pt" height="263pt"
 viewBox="0.00 0.00 1025.50 263.00" xmlns="http://www.w3.org/2000/svg" xmlns:xlink="http://www.w3.org/1999/xlink">
<g id="graph0" class="graph" transform="scale(1 1) rotate(0) translate(4 259)">
<title>src/monitor.hpp</title>
<polygon fill="white" stroke="transparent" points="-4,4 -4,-259 1021.5,-259 1021.5,4 -4,4"/>
<!-- Node1 -->
<g id="node1" class="node">
<title>Node1</title>
<g id="a_node1"><a xlink:title=" ">
<polygon fill="#bfbfbf" stroke="black" points="542.5,-235.5 542.5,-254.5 634.5,-254.5 634.5,-235.5 542.5,-235.5"/>
<text text-anchor="middle" x="588.5" y="-242.5" font-family="Helvetica,sans-Serif" font-size="10.00">src/monitor.hpp</text>
</a>
</g>
</g>
<!-- Node2 -->
<g id="node2" class="node">
<title>Node2</title>
<g id="a_node2"><a xlink:href="converter_8hpp.html" target="_top" xlink:title=" ">
<polygon fill="white" stroke="black" points="157.5,-118 157.5,-137 261.5,-137 261.5,-118 157.5,-118"/>
<text text-anchor="middle" x="209.5" y="-125" font-family="Helvetica,sans-Serif" font-size="10.00">cnv/converter.hpp</text>
</a>
</g>
</g>
<!-- Node1&#45;&gt;Node2 -->
<g id="edge1" class="edge">
<title>Node1&#45;&gt;Node2</title>
<path fill="none" stroke="midnightblue" d="M560.32,-235.41C493.09,-214.92 323.24,-163.16 247.25,-140.01"/>
<polygon fill="midnightblue" stroke="midnightblue" points="248.19,-136.63 237.6,-137.06 246.15,-143.33 248.19,-136.63"/>
</g>
<!-- Node8 -->
<g id="node8" class="node">
<title>Node8</title>
<g id="a_node8"><a xlink:href="control_8hpp.html" target="_top" xlink:title=" ">
<polygon fill="white" stroke="black" points="478.5,-179.5 478.5,-198.5 564.5,-198.5 564.5,-179.5 478.5,-179.5"/>
<text text-anchor="middle" x="521.5" y="-186.5" font-family="Helvetica,sans-Serif" font-size="10.00">ctl/control.hpp</text>
</a>
</g>
</g>
<!-- Node1&#45;&gt;Node8 -->
<g id="edge10" class="edge">
<title>Node1&#45;&gt;Node8</title>
<path fill="none" stroke="midnightblue" d="M577.74,-235.32C567.73,-227.26 552.61,-215.08 540.57,-205.37"/>
<polygon fill="midnightblue" stroke="midnightblue" points="542.44,-202.38 532.46,-198.83 538.05,-207.83 542.44,-202.38"/>
</g>
<!-- Node19 -->
<g id="node15" class="node">
<title>Node19</title>
<g id="a_node15"><a xlink:href="drv__interfaces_8hpp.html" target="_top" xlink:title=" ">
<polygon fill="white" stroke="black" points="756,-118 756,-137 863,-137 863,-118 756,-118"/>
<text text-anchor="middle" x="809.5" y="-125" font-family="Helvetica,sans-Serif" font-size="10.00">drv_interfaces.hpp</text>
</a>
</g>
</g>
<!-- Node1&#45;&gt;Node19 -->
<g id="edge20" class="edge">
<title>Node1&#45;&gt;Node19</title>
<path fill="none" stroke="midnightblue" d="M598.05,-235.42C613.44,-221.95 645.07,-195.66 675.5,-179 705.8,-162.41 742.68,-148.95 770.07,-140.11"/>
<polygon fill="midnightblue" stroke="midnightblue" points="771.22,-143.42 779.71,-137.07 769.12,-136.75 771.22,-143.42"/>
</g>
<!-- Node23 -->
<g id="node19" class="node">
<title>Node23</title>
<g id="a_node19"><a xlink:href="indication_8hpp.html" target="_top" xlink:title=" ">
<polygon fill="white" stroke="black" points="684.5,-179.5 684.5,-198.5 770.5,-198.5 770.5,-179.5 684.5,-179.5"/>
<text text-anchor="middle" x="727.5" y="-186.5" font-family="Helvetica,sans-Serif" font-size="10.00">indication.hpp</text>
</a>
</g>
</g>
<!-- Node1&#45;&gt;Node23 -->
<g id="edge26" class="edge">
<title>Node1&#45;&gt;Node23</title>
<path fill="none" stroke="midnightblue" d="M610.52,-235.44C633.6,-226.48 670.06,-212.31 696.14,-202.18"/>
<polygon fill="midnightblue" stroke="midnightblue" points="697.52,-205.4 705.58,-198.52 694.99,-198.88 697.52,-205.4"/>
</g>
<!-- Node3 -->
<g id="node3" class="node">
<title>Node3</title>
<g id="a_node3"><a xlink:href="current_8hpp.html" target="_top" xlink:title=" ">
<polygon fill="white" stroke="black" points="250.5,-56.5 250.5,-75.5 342.5,-75.5 342.5,-56.5 250.5,-56.5"/>
<text text-anchor="middle" x="296.5" y="-63.5" font-family="Helvetica,sans-Serif" font-size="10.00">cnv/current.hpp</text>
</a>
</g>
</g>
<!-- Node2&#45;&gt;Node3 -->
<g id="edge2" class="edge">
<title>Node2&#45;&gt;Node3</title>
<path fill="none" stroke="midnightblue" d="M221.96,-117.98C235.92,-108.43 258.76,-92.81 275.49,-81.37"/>
<polygon fill="midnightblue" stroke="midnightblue" points="277.78,-84.04 284.06,-75.51 273.83,-78.27 277.78,-84.04"/>
</g>
<!-- Node5 -->
<g id="node5" class="node">
<title>Node5</title>
<g id="a_node5"><a xlink:href="position_8hpp.html" target="_top" xlink:title=" ">
<polygon fill="white" stroke="black" points="361,-56.5 361,-75.5 458,-75.5 458,-56.5 361,-56.5"/>
<text text-anchor="middle" x="409.5" y="-63.5" font-family="Helvetica,sans-Serif" font-size="10.00">cnv/position.hpp</text>
</a>
</g>
</g>
<!-- Node2&#45;&gt;Node5 -->
<g id="edge4" class="edge">
<title>Node2&#45;&gt;Node5</title>
<path fill="none" stroke="midnightblue" d="M238.16,-117.98C273.06,-107.59 332.15,-90.01 371,-78.45"/>
<polygon fill="midnightblue" stroke="midnightblue" points="372.31,-81.72 380.9,-75.51 370.32,-75.01 372.31,-81.72"/>
</g>
<!-- Node6 -->
<g id="node6" class="node">
<title>Node6</title>
<g id="a_node6"><a xlink:href="temperature_8hpp.html" target="_top" xlink:title=" ">
<polygon fill="white" stroke="black" points="0,-56.5 0,-75.5 119,-75.5 119,-56.5 0,-56.5"/>
<text text-anchor="middle" x="59.5" y="-63.5" font-family="Helvetica,sans-Serif" font-size="10.00">cnv/temperature.hpp</text>
</a>
</g>
</g>
<!-- Node2&#45;&gt;Node6 -->
<g id="edge6" class="edge">
<title>Node2&#45;&gt;Node6</title>
<path fill="none" stroke="midnightblue" d="M188.01,-117.98C162.39,-107.81 119.39,-90.76 90.26,-79.2"/>
<polygon fill="midnightblue" stroke="midnightblue" points="91.54,-75.94 80.95,-75.51 88.96,-82.45 91.54,-75.94"/>
</g>
<!-- Node7 -->
<g id="node7" class="node">
<title>Node7</title>
<g id="a_node7"><a xlink:href="voltage_8hpp.html" target="_top" xlink:title=" ">
<polygon fill="white" stroke="black" points="137,-56.5 137,-75.5 232,-75.5 232,-56.5 137,-56.5"/>
<text text-anchor="middle" x="184.5" y="-63.5" font-family="Helvetica,sans-Serif" font-size="10.00">cnv/voltage.hpp</text>
</a>
</g>
</g>
<!-- Node2&#45;&gt;Node7 -->
<g id="edge8" class="edge">
<title>Node2&#45;&gt;Node7</title>
<path fill="none" stroke="midnightblue" d="M205.92,-117.98C202.32,-109.4 196.65,-95.93 192.06,-84.98"/>
<polygon fill="midnightblue" stroke="midnightblue" points="195.18,-83.37 188.08,-75.51 188.72,-86.08 195.18,-83.37"/>
</g>
<!-- Node4 -->
<g id="node4" class="node">
<title>Node4</title>
<g id="a_node4"><a xlink:title=" ">
<polygon fill="white" stroke="#bfbfbf" points="327.5,-0.5 327.5,-19.5 377.5,-19.5 377.5,-0.5 327.5,-0.5"/>
<text text-anchor="middle" x="352.5" y="-7.5" font-family="Helvetica,sans-Serif" font-size="10.00">cstdint</text>
</a>
</g>
</g>
<!-- Node3&#45;&gt;Node4 -->
<g id="edge3" class="edge">
<title>Node3&#45;&gt;Node4</title>
<path fill="none" stroke="midnightblue" d="M305.5,-56.32C313.69,-48.42 326.01,-36.55 335.97,-26.94"/>
<polygon fill="midnightblue" stroke="midnightblue" points="338.57,-29.29 343.34,-19.83 333.71,-24.26 338.57,-29.29"/>
</g>
<!-- Node5&#45;&gt;Node4 -->
<g id="edge5" class="edge">
<title>Node5&#45;&gt;Node4</title>
<path fill="none" stroke="midnightblue" d="M400.34,-56.32C392,-48.42 379.47,-36.55 369.32,-26.94"/>
<polygon fill="midnightblue" stroke="midnightblue" points="371.49,-24.17 361.82,-19.83 366.68,-29.25 371.49,-24.17"/>
</g>
<!-- Node6&#45;&gt;Node4 -->
<g id="edge7" class="edge">
<title>Node6&#45;&gt;Node4</title>
<path fill="none" stroke="midnightblue" d="M105.93,-56.44C164.62,-45.63 264.37,-27.24 317.22,-17.5"/>
<polygon fill="midnightblue" stroke="midnightblue" points="317.93,-20.93 327.13,-15.67 316.67,-14.05 317.93,-20.93"/>
</g>
<!-- Node7&#45;&gt;Node4 -->
<g id="edge9" class="edge">
<title>Node7&#45;&gt;Node4</title>
<path fill="none" stroke="midnightblue" d="M211.12,-56.44C239.92,-47.19 285.97,-32.39 317.64,-22.21"/>
<polygon fill="midnightblue" stroke="midnightblue" points="318.93,-25.47 327.38,-19.08 316.79,-18.8 318.93,-25.47"/>
</g>
<!-- Node9 -->
<g id="node9" class="node">
<title>Node9</title>
<g id="a_node9"><a xlink:href="base_8hpp.html" target="_top" xlink:title=" ">
<polygon fill="white" stroke="red" points="588,-56.5 588,-75.5 649,-75.5 649,-56.5 588,-56.5"/>
<text text-anchor="middle" x="618.5" y="-63.5" font-family="Helvetica,sans-Serif" font-size="10.00">base.hpp</text>
</a>
</g>
</g>
<!-- Node8&#45;&gt;Node9 -->
<g id="edge11" class="edge">
<title>Node8&#45;&gt;Node9</title>
<path fill="none" stroke="midnightblue" d="M527.6,-179.39C537.8,-165.11 559.09,-135.76 578.5,-112 586.44,-102.29 595.72,-91.79 603.35,-83.38"/>
<polygon fill="midnightblue" stroke="midnightblue" points="606.14,-85.52 610.31,-75.77 600.98,-80.79 606.14,-85.52"/>
</g>
<!-- Node13 -->
<g id="node10" class="node">
<title>Node13</title>
<g id="a_node10"><a xlink:href="config_8hpp.html" target="_top" xlink:title=" ">
<polygon fill="white" stroke="black" points="411.5,-118 411.5,-137 493.5,-137 493.5,-118 411.5,-118"/>
<text text-anchor="middle" x="452.5" y="-125" font-family="Helvetica,sans-Serif" font-size="10.00">ctl/config.hpp</text>
</a>
</g>
</g>
<!-- Node8&#45;&gt;Node13 -->
<g id="edge13" class="edge">
<title>Node8&#45;&gt;Node13</title>
<path fill="none" stroke="midnightblue" d="M511.61,-179.48C500.85,-170.2 483.43,-155.17 470.28,-143.83"/>
<polygon fill="midnightblue" stroke="midnightblue" points="472.23,-140.89 462.37,-137.01 467.66,-146.19 472.23,-140.89"/>
</g>
<!-- Node14 -->
<g id="node11" class="node">
<title>Node14</title>
<g id="a_node11"><a xlink:title=" ">
<polygon fill="white" stroke="#bfbfbf" points="476.5,-56.5 476.5,-75.5 568.5,-75.5 568.5,-56.5 476.5,-56.5"/>
<text text-anchor="middle" x="522.5" y="-63.5" font-family="Helvetica,sans-Serif" font-size="10.00">emlabcpp/pid.h</text>
</a>
</g>
</g>
<!-- Node8&#45;&gt;Node14 -->
<g id="edge17" class="edge">
<title>Node8&#45;&gt;Node14</title>
<path fill="none" stroke="midnightblue" d="M521.57,-179.3C521.73,-159.85 522.12,-112.49 522.34,-85.9"/>
<polygon fill="midnightblue" stroke="midnightblue" points="525.85,-85.65 522.43,-75.62 518.85,-85.59 525.85,-85.65"/>
</g>
<!-- Node15 -->
<g id="node12" class="node">
<title>Node15</title>
<g id="a_node12"><a xlink:href="linear__transition__regulator_8hpp.html" target="_top" xlink:title=" ">
<polygon fill="white" stroke="red" points="588,-112.5 588,-142.5 699,-142.5 699,-112.5 588,-112.5"/>
<text text-anchor="start" x="596" y="-130.5" font-family="Helvetica,sans-Serif" font-size="10.00">ctl/linear_transition</text>
<text text-anchor="middle" x="643.5" y="-119.5" font-family="Helvetica,sans-Serif" font-size="10.00">_regulator.hpp</text>
</a>
</g>
</g>
<!-- Node8&#45;&gt;Node15 -->
<g id="edge15" class="edge">
<title>Node8&#45;&gt;Node15</title>
<path fill="none" stroke="midnightblue" d="M538.98,-179.48C556.27,-171.04 583.31,-157.86 605.55,-147.01"/>
<polygon fill="midnightblue" stroke="midnightblue" points="607.29,-150.05 614.75,-142.52 604.22,-143.76 607.29,-150.05"/>
</g>
<!-- Node17 -->
<g id="node13" class="node">
<title>Node17</title>
<g id="a_node13"><a xlink:title=" ">
<polygon fill="white" stroke="#bfbfbf" points="279.5,-118 279.5,-137 323.5,-137 323.5,-118 279.5,-118"/>
<text text-anchor="middle" x="301.5" y="-125" font-family="Helvetica,sans-Serif" font-size="10.00">limits</text>
</a>
</g>
</g>
<!-- Node8&#45;&gt;Node17 -->
<g id="edge18" class="edge">
<title>Node8&#45;&gt;Node17</title>
<path fill="none" stroke="midnightblue" d="M478.38,-180.34C439.6,-172.83 381.39,-160.05 332.5,-143 330.88,-142.43 329.23,-141.81 327.58,-141.15"/>
<polygon fill="midnightblue" stroke="midnightblue" points="328.86,-137.89 318.3,-137.11 326.07,-144.31 328.86,-137.89"/>
</g>
<!-- Node18 -->
<g id="node14" class="node">
<title>Node18</title>
<g id="a_node14"><a xlink:title=" ">
<polygon fill="white" stroke="#bfbfbf" points="342,-118 342,-137 393,-137 393,-118 342,-118"/>
<text text-anchor="middle" x="367.5" y="-125" font-family="Helvetica,sans-Serif" font-size="10.00">variant</text>
</a>
</g>
</g>
<!-- Node8&#45;&gt;Node18 -->
<g id="edge19" class="edge">
<title>Node8&#45;&gt;Node18</title>
<path fill="none" stroke="midnightblue" d="M498.16,-179.42C474.11,-170.52 435.56,-156.1 402.5,-143 400.86,-142.35 399.18,-141.68 397.49,-140.99"/>
<polygon fill="midnightblue" stroke="midnightblue" points="398.4,-137.59 387.81,-137.04 395.75,-144.06 398.4,-137.59"/>
</g>
<!-- Node9&#45;&gt;Node4 -->
<g id="edge12" class="edge">
<title>Node9&#45;&gt;Node4</title>
<path fill="none" stroke="midnightblue" d="M587.62,-58.16C584.21,-57.42 580.78,-56.69 577.5,-56 510.36,-41.92 431.75,-26.42 387.47,-17.78"/>
<polygon fill="midnightblue" stroke="midnightblue" points="387.99,-14.32 377.5,-15.84 386.65,-21.19 387.99,-14.32"/>
</g>
<!-- Node13&#45;&gt;Node14 -->
<g id="edge14" class="edge">
<title>Node13&#45;&gt;Node14</title>
<path fill="none" stroke="midnightblue" d="M462.53,-117.98C473.55,-108.61 491.46,-93.38 504.84,-82.01"/>
<polygon fill="midnightblue" stroke="midnightblue" points="507.14,-84.65 512.49,-75.51 502.6,-79.32 507.14,-84.65"/>
</g>
<!-- Node15&#45;&gt;Node9 -->
<g id="edge16" class="edge">
<title>Node15&#45;&gt;Node9</title>
<path fill="none" stroke="midnightblue" d="M637.58,-112.4C634.13,-104.2 629.75,-93.78 626.06,-84.99"/>
<polygon fill="midnightblue" stroke="midnightblue" points="629.24,-83.52 622.14,-75.66 622.78,-86.23 629.24,-83.52"/>
</g>
<!-- Node19&#45;&gt;Node4 -->
<g id="edge23" class="edge">
<title>Node19&#45;&gt;Node4</title>
<path fill="none" stroke="midnightblue" d="M818.54,-117.65C832.26,-103.16 855.08,-74.19 838.5,-56 808.25,-22.82 494.89,-13.73 388,-11.59"/>
<polygon fill="midnightblue" stroke="midnightblue" points="387.8,-8.09 377.74,-11.39 387.67,-15.09 387.8,-8.09"/>
</g>
<!-- Node19&#45;&gt;Node9 -->
<g id="edge21" class="edge">
<title>Node19&#45;&gt;Node9</title>
<path fill="none" stroke="midnightblue" d="M782.13,-117.98C748.95,-107.64 692.85,-90.16 655.74,-78.6"/>
<polygon fill="midnightblue" stroke="midnightblue" points="656.4,-75.14 645.81,-75.51 654.32,-81.82 656.4,-75.14"/>
</g>
<!-- Node20 -->
<g id="node16" class="node">
<title>Node20</title>
<g id="a_node16"><a xlink:href="status_8hpp.html" target="_top" xlink:title=" ">
<polygon fill="white" stroke="black" points="885.5,-56.5 885.5,-75.5 953.5,-75.5 953.5,-56.5 885.5,-56.5"/>
<text text-anchor="middle" x="919.5" y="-63.5" font-family="Helvetica,sans-Serif" font-size="10.00">status.hpp</text>
</a>
</g>
</g>
<!-- Node19&#45;&gt;Node20 -->
<g id="edge22" class="edge">
<title>Node19&#45;&gt;Node20</title>
<path fill="none" stroke="midnightblue" d="M825.26,-117.98C843.48,-108.12 873.67,-91.79 894.97,-80.27"/>
<polygon fill="midnightblue" stroke="midnightblue" points="896.64,-83.35 903.77,-75.51 893.31,-77.19 896.64,-83.35"/>
</g>
<!-- Node21 -->
<g id="node17" class="node">
<title>Node21</title>
<g id="a_node17"><a xlink:title=" ">
<polygon fill="white" stroke="#bfbfbf" points="667.5,-56.5 667.5,-75.5 771.5,-75.5 771.5,-56.5 667.5,-56.5"/>
<text text-anchor="middle" x="719.5" y="-63.5" font-family="Helvetica,sans-Serif" font-size="10.00">emlabcpp/result.h</text>
</a>
</g>
</g>
<!-- Node19&#45;&gt;Node21 -->
<g id="edge24" class="edge">
<title>Node19&#45;&gt;Node21</title>
<path fill="none" stroke="midnightblue" d="M796.61,-117.98C782.04,-108.34 758.1,-92.52 740.75,-81.05"/>
<polygon fill="midnightblue" stroke="midnightblue" points="742.64,-78.1 732.37,-75.51 738.78,-83.94 742.64,-78.1"/>
</g>
<!-- Node22 -->
<g id="node18" class="node">
<title>Node22</title>
<g id="a_node18"><a xlink:title=" ">
<polygon fill="white" stroke="#bfbfbf" points="789.5,-56.5 789.5,-75.5 829.5,-75.5 829.5,-56.5 789.5,-56.5"/>
<text text-anchor="middle" x="809.5" y="-63.5" font-family="Helvetica,sans-Serif" font-size="10.00">span</text>
</a>
</g>
</g>
<!-- Node19&#45;&gt;Node22 -->
<g id="edge25" class="edge">
<title>Node19&#45;&gt;Node22</title>
<path fill="none" stroke="midnightblue" d="M809.5,-117.98C809.5,-109.58 809.5,-96.48 809.5,-85.66"/>
<polygon fill="midnightblue" stroke="midnightblue" points="813,-85.51 809.5,-75.51 806,-85.51 813,-85.51"/>
</g>
<!-- Node23&#45;&gt;Node9 -->
<g id="edge27" class="edge">
<title>Node23&#45;&gt;Node9</title>
<path fill="none" stroke="midnightblue" d="M727.45,-179.47C726.92,-164.26 723.8,-132.16 707.5,-112 695.01,-96.55 675.83,-85.91 658.48,-78.87"/>
<polygon fill="midnightblue" stroke="midnightblue" points="659.67,-75.58 649.07,-75.32 657.19,-82.13 659.67,-75.58"/>
</g>
<!-- Node24 -->
<g id="node20" class="node">
<title>Node24</title>
<g id="a_node20"><a xlink:title=" ">
<polygon fill="white" stroke="#bfbfbf" points="881.5,-112.5 881.5,-142.5 1017.5,-142.5 1017.5,-112.5 881.5,-112.5"/>
<text text-anchor="start" x="889.5" y="-130.5" font-family="Helvetica,sans-Serif" font-size="10.00">emlabcpp/static_circular</text>
<text text-anchor="middle" x="949.5" y="-119.5" font-family="Helvetica,sans-Serif" font-size="10.00">_buffer.h</text>
</a>
</g>
</g>
<!-- Node23&#45;&gt;Node24 -->
<g id="edge28" class="edge">
<title>Node23&#45;&gt;Node24</title>
<path fill="none" stroke="midnightblue" d="M759.31,-179.48C792.61,-170.55 845.74,-156.31 887.4,-145.14"/>
<polygon fill="midnightblue" stroke="midnightblue" points="888.43,-148.49 897.18,-142.52 886.61,-141.73 888.43,-148.49"/>
</g>
</g>
</svg>
