<?xml version="1.0" encoding="UTF-8" standalone="no"?>
<!DOCTYPE svg PUBLIC "-//W3C//DTD SVG 1.1//EN"
 "http://www.w3.org/Graphics/SVG/1.1/DTD/svg11.dtd">
<!-- Generated by graphviz version 2.43.0 (0)
 -->
<!-- Title: src/mon/monitor.hpp Pages: 1 -->
<svg width="857pt" height="263pt"
 viewBox="0.00 0.00 857.31 263.00" xmlns="http://www.w3.org/2000/svg" xmlns:xlink="http://www.w3.org/1999/xlink">
<g id="graph0" class="graph" transform="scale(1 1) rotate(0) translate(4 259)">
<title>src/mon/monitor.hpp</title>
<polygon fill="white" stroke="transparent" points="-4,4 -4,-259 853.31,-259 853.31,4 -4,4"/>
<!-- Node1 -->
<g id="node1" class="node">
<title>Node1</title>
<g id="a_node1"><a xlink:title=" ">
<polygon fill="#bfbfbf" stroke="black" points="465.31,-235.5 465.31,-254.5 582.31,-254.5 582.31,-235.5 465.31,-235.5"/>
<text text-anchor="middle" x="523.81" y="-242.5" font-family="Helvetica,sans-Serif" font-size="10.00">src/mon/monitor.hpp</text>
</a>
</g>
</g>
<!-- Node2 -->
<g id="node2" class="node">
<title>Node2</title>
<g id="a_node2"><a xlink:href="drv__interfaces_8hpp.html" target="_top" xlink:title=" ">
<polygon fill="white" stroke="black" points="568.81,-118 568.81,-137 702.81,-137 702.81,-118 568.81,-118"/>
<text text-anchor="middle" x="635.81" y="-125" font-family="Helvetica,sans-Serif" font-size="10.00">base/drv_interfaces.hpp</text>
</a>
</g>
</g>
<!-- Node1&#45;&gt;Node2 -->
<g id="edge1" class="edge">
<title>Node1&#45;&gt;Node2</title>
<path fill="none" stroke="midnightblue" d="M532.23,-235.32C550.96,-216 596.31,-169.24 620.31,-144.48"/>
<polygon fill="midnightblue" stroke="midnightblue" points="622.85,-146.9 627.3,-137.28 617.82,-142.02 622.85,-146.9"/>
</g>
<!-- Node11 -->
<g id="node8" class="node">
<title>Node11</title>
<g id="a_node8"><a xlink:href="converter_8hpp.html" target="_top" xlink:title=" ">
<polygon fill="white" stroke="black" points="678.81,-179.5 678.81,-198.5 782.81,-198.5 782.81,-179.5 678.81,-179.5"/>
<text text-anchor="middle" x="730.81" y="-186.5" font-family="Helvetica,sans-Serif" font-size="10.00">cnv/converter.hpp</text>
</a>
</g>
</g>
<!-- Node1&#45;&gt;Node11 -->
<g id="edge8" class="edge">
<title>Node1&#45;&gt;Node11</title>
<path fill="none" stroke="midnightblue" d="M556.61,-235.44C592.19,-226.16 649.13,-211.31 688.16,-201.13"/>
<polygon fill="midnightblue" stroke="midnightblue" points="689.37,-204.43 698.17,-198.52 687.61,-197.65 689.37,-204.43"/>
</g>
<!-- Node13 -->
<g id="node10" class="node">
<title>Node13</title>
<g id="a_node10"><a xlink:href="control_8hpp.html" target="_top" xlink:title=" ">
<polygon fill="white" stroke="black" points="102.81,-179.5 102.81,-198.5 188.81,-198.5 188.81,-179.5 102.81,-179.5"/>
<text text-anchor="middle" x="145.81" y="-186.5" font-family="Helvetica,sans-Serif" font-size="10.00">ctl/control.hpp</text>
</a>
</g>
</g>
<!-- Node1&#45;&gt;Node13 -->
<g id="edge11" class="edge">
<title>Node1&#45;&gt;Node13</title>
<path fill="none" stroke="midnightblue" d="M465.16,-235.62C392.33,-225.22 269.14,-207.62 198.96,-197.59"/>
<polygon fill="midnightblue" stroke="midnightblue" points="199.4,-194.12 189,-196.17 198.41,-201.05 199.4,-194.12"/>
</g>
<!-- Node20 -->
<g id="node16" class="node">
<title>Node20</title>
<g id="a_node16"><a xlink:href="indication_8hpp.html" target="_top" xlink:title=" ">
<polygon fill="white" stroke="black" points="427.81,-179.5 427.81,-198.5 537.81,-198.5 537.81,-179.5 427.81,-179.5"/>
<text text-anchor="middle" x="482.81" y="-186.5" font-family="Helvetica,sans-Serif" font-size="10.00">mon/indication.hpp</text>
</a>
</g>
</g>
<!-- Node1&#45;&gt;Node20 -->
<g id="edge20" class="edge">
<title>Node1&#45;&gt;Node20</title>
<path fill="none" stroke="midnightblue" d="M517.04,-235.08C511.25,-227.46 502.75,-216.26 495.67,-206.94"/>
<polygon fill="midnightblue" stroke="midnightblue" points="498.29,-204.6 489.46,-198.75 492.72,-208.83 498.29,-204.6"/>
</g>
<!-- Node3 -->
<g id="node3" class="node">
<title>Node3</title>
<g id="a_node3"><a xlink:href="base_8hpp.html" target="_top" xlink:title=" ">
<polygon fill="white" stroke="red" points="328.31,-56.5 328.31,-75.5 389.31,-75.5 389.31,-56.5 328.31,-56.5"/>
<text text-anchor="middle" x="358.81" y="-63.5" font-family="Helvetica,sans-Serif" font-size="10.00">base.hpp</text>
</a>
</g>
</g>
<!-- Node2&#45;&gt;Node3 -->
<g id="edge2" class="edge">
<title>Node2&#45;&gt;Node3</title>
<path fill="none" stroke="midnightblue" d="M595.1,-117.97C549.9,-108.47 474.48,-92.52 399.48,-76.13"/>
<polygon fill="midnightblue" stroke="midnightblue" points="399.9,-72.63 389.38,-73.92 398.4,-79.47 399.9,-72.63"/>
</g>
<!-- Node5 -->
<g id="node4" class="node">
<title>Node5</title>
<g id="a_node4"><a xlink:title=" ">
<polygon fill="white" stroke="#bfbfbf" points="658.81,-0.5 658.81,-19.5 708.81,-19.5 708.81,-0.5 658.81,-0.5"/>
<text text-anchor="middle" x="683.81" y="-7.5" font-family="Helvetica,sans-Serif" font-size="10.00">cstdint</text>
</a>
</g>
</g>
<!-- Node2&#45;&gt;Node5 -->
<g id="edge5" class="edge">
<title>Node2&#45;&gt;Node5</title>
<path fill="none" stroke="midnightblue" d="M641.61,-117.89C647.99,-108.09 658.23,-91.44 664.81,-76 671.29,-60.79 676.39,-42.68 679.66,-29.44"/>
<polygon fill="midnightblue" stroke="midnightblue" points="683.09,-30.17 681.98,-19.64 676.27,-28.57 683.09,-30.17"/>
</g>
<!-- Node8 -->
<g id="node5" class="node">
<title>Node8</title>
<g id="a_node5"><a xlink:href="status_8hpp.html" target="_top" xlink:title=" ">
<polygon fill="white" stroke="black" points="407.81,-56.5 407.81,-75.5 475.81,-75.5 475.81,-56.5 407.81,-56.5"/>
<text text-anchor="middle" x="441.81" y="-63.5" font-family="Helvetica,sans-Serif" font-size="10.00">status.hpp</text>
</a>
</g>
</g>
<!-- Node2&#45;&gt;Node8 -->
<g id="edge4" class="edge">
<title>Node2&#45;&gt;Node8</title>
<path fill="none" stroke="midnightblue" d="M608.02,-117.98C574.16,-107.59 516.84,-90.01 479.16,-78.45"/>
<polygon fill="midnightblue" stroke="midnightblue" points="480.14,-75.1 469.56,-75.51 478.09,-81.79 480.14,-75.1"/>
</g>
<!-- Node9 -->
<g id="node6" class="node">
<title>Node9</title>
<g id="a_node6"><a xlink:title=" ">
<polygon fill="white" stroke="#bfbfbf" points="493.81,-56.5 493.81,-75.5 597.81,-75.5 597.81,-56.5 493.81,-56.5"/>
<text text-anchor="middle" x="545.81" y="-63.5" font-family="Helvetica,sans-Serif" font-size="10.00">emlabcpp/result.h</text>
</a>
</g>
</g>
<!-- Node2&#45;&gt;Node9 -->
<g id="edge6" class="edge">
<title>Node2&#45;&gt;Node9</title>
<path fill="none" stroke="midnightblue" d="M622.92,-117.98C608.35,-108.34 584.41,-92.52 567.07,-81.05"/>
<polygon fill="midnightblue" stroke="midnightblue" points="568.96,-78.1 558.68,-75.51 565.09,-83.94 568.96,-78.1"/>
</g>
<!-- Node10 -->
<g id="node7" class="node">
<title>Node10</title>
<g id="a_node7"><a xlink:title=" ">
<polygon fill="white" stroke="#bfbfbf" points="615.81,-56.5 615.81,-75.5 655.81,-75.5 655.81,-56.5 615.81,-56.5"/>
<text text-anchor="middle" x="635.81" y="-63.5" font-family="Helvetica,sans-Serif" font-size="10.00">span</text>
</a>
</g>
</g>
<!-- Node2&#45;&gt;Node10 -->
<g id="edge7" class="edge">
<title>Node2&#45;&gt;Node10</title>
<path fill="none" stroke="midnightblue" d="M635.81,-117.98C635.81,-109.58 635.81,-96.48 635.81,-85.66"/>
<polygon fill="midnightblue" stroke="midnightblue" points="639.31,-85.51 635.81,-75.51 632.31,-85.51 639.31,-85.51"/>
</g>
<!-- Node3&#45;&gt;Node5 -->
<g id="edge3" class="edge">
<title>Node3&#45;&gt;Node5</title>
<path fill="none" stroke="midnightblue" d="M389.34,-57.92C392.54,-57.24 395.74,-56.59 398.81,-56 488.3,-38.89 594.48,-23.38 648.47,-15.83"/>
<polygon fill="midnightblue" stroke="midnightblue" points="649.13,-19.27 658.56,-14.43 648.17,-12.34 649.13,-19.27"/>
</g>
<!-- Node12 -->
<g id="node9" class="node">
<title>Node12</title>
<g id="a_node9"><a xlink:href="linear__converter_8hpp.html" target="_top" xlink:title=" ">
<polygon fill="white" stroke="black" points="712.31,-56.5 712.31,-75.5 849.31,-75.5 849.31,-56.5 712.31,-56.5"/>
<text text-anchor="middle" x="780.81" y="-63.5" font-family="Helvetica,sans-Serif" font-size="10.00">cnv/linear_converter.hpp</text>
</a>
</g>
</g>
<!-- Node11&#45;&gt;Node12 -->
<g id="edge9" class="edge">
<title>Node11&#45;&gt;Node12</title>
<path fill="none" stroke="midnightblue" d="M734.41,-179.3C742.52,-159.68 762.37,-111.64 773.29,-85.19"/>
<polygon fill="midnightblue" stroke="midnightblue" points="776.66,-86.2 777.25,-75.62 770.2,-83.53 776.66,-86.2"/>
</g>
<!-- Node12&#45;&gt;Node5 -->
<g id="edge10" class="edge">
<title>Node12&#45;&gt;Node5</title>
<path fill="none" stroke="midnightblue" d="M765.23,-56.32C749.81,-47.74 726,-34.49 708.1,-24.52"/>
<polygon fill="midnightblue" stroke="midnightblue" points="709.8,-21.46 699.36,-19.65 706.39,-27.58 709.8,-21.46"/>
</g>
<!-- Node14 -->
<g id="node11" class="node">
<title>Node14</title>
<g id="a_node11"><a xlink:href="config_8hpp.html" target="_top" xlink:title=" ">
<polygon fill="white" stroke="black" points="146.81,-118 146.81,-137 228.81,-137 228.81,-118 146.81,-118"/>
<text text-anchor="middle" x="187.81" y="-125" font-family="Helvetica,sans-Serif" font-size="10.00">ctl/config.hpp</text>
</a>
</g>
</g>
<!-- Node13&#45;&gt;Node14 -->
<g id="edge12" class="edge">
<title>Node13&#45;&gt;Node14</title>
<path fill="none" stroke="midnightblue" d="M151.83,-179.48C158.07,-170.64 167.99,-156.59 175.83,-145.48"/>
<polygon fill="midnightblue" stroke="midnightblue" points="178.9,-147.2 181.81,-137.01 173.18,-143.16 178.9,-147.2"/>
</g>
<!-- Node15 -->
<g id="node12" class="node">
<title>Node15</title>
<g id="a_node12"><a xlink:title=" ">
<polygon fill="white" stroke="#bfbfbf" points="41.81,-56.5 41.81,-75.5 133.81,-75.5 133.81,-56.5 41.81,-56.5"/>
<text text-anchor="middle" x="87.81" y="-63.5" font-family="Helvetica,sans-Serif" font-size="10.00">emlabcpp/pid.h</text>
</a>
</g>
</g>
<!-- Node13&#45;&gt;Node15 -->
<g id="edge17" class="edge">
<title>Node13&#45;&gt;Node15</title>
<path fill="none" stroke="midnightblue" d="M102.64,-186.9C70.22,-183.52 27.77,-173.12 5.81,-143 -2.3,-131.87 -1.21,-123.86 5.81,-112 14.79,-96.84 30.88,-86.45 46.45,-79.5"/>
<polygon fill="midnightblue" stroke="midnightblue" points="48.06,-82.63 56,-75.62 45.42,-76.14 48.06,-82.63"/>
</g>
<!-- Node16 -->
<g id="node13" class="node">
<title>Node16</title>
<g id="a_node13"><a xlink:href="linear__transition__regulator_8hpp.html" target="_top" xlink:title=" ">
<polygon fill="white" stroke="red" points="247.31,-112.5 247.31,-142.5 358.31,-142.5 358.31,-112.5 247.31,-112.5"/>
<text text-anchor="start" x="255.31" y="-130.5" font-family="Helvetica,sans-Serif" font-size="10.00">ctl/linear_transition</text>
<text text-anchor="middle" x="302.81" y="-119.5" font-family="Helvetica,sans-Serif" font-size="10.00">_regulator.hpp</text>
</a>
</g>
</g>
<!-- Node13&#45;&gt;Node16 -->
<g id="edge15" class="edge">
<title>Node13&#45;&gt;Node16</title>
<path fill="none" stroke="midnightblue" d="M168.31,-179.48C191.16,-170.81 227.23,-157.15 256.26,-146.14"/>
<polygon fill="midnightblue" stroke="midnightblue" points="257.7,-149.34 265.81,-142.52 255.22,-142.79 257.7,-149.34"/>
</g>
<!-- Node18 -->
<g id="node14" class="node">
<title>Node18</title>
<g id="a_node14"><a xlink:title=" ">
<polygon fill="white" stroke="#bfbfbf" points="14.81,-118 14.81,-137 58.81,-137 58.81,-118 14.81,-118"/>
<text text-anchor="middle" x="36.81" y="-125" font-family="Helvetica,sans-Serif" font-size="10.00">limits</text>
</a>
</g>
</g>
<!-- Node13&#45;&gt;Node18 -->
<g id="edge18" class="edge">
<title>Node13&#45;&gt;Node18</title>
<path fill="none" stroke="midnightblue" d="M130.2,-179.48C112.23,-169.67 82.49,-153.43 61.41,-141.92"/>
<polygon fill="midnightblue" stroke="midnightblue" points="62.85,-138.73 52.4,-137.01 59.5,-144.87 62.85,-138.73"/>
</g>
<!-- Node19 -->
<g id="node15" class="node">
<title>Node19</title>
<g id="a_node15"><a xlink:title=" ">
<polygon fill="white" stroke="#bfbfbf" points="77.31,-118 77.31,-137 128.31,-137 128.31,-118 77.31,-118"/>
<text text-anchor="middle" x="102.81" y="-125" font-family="Helvetica,sans-Serif" font-size="10.00">variant</text>
</a>
</g>
</g>
<!-- Node13&#45;&gt;Node19 -->
<g id="edge19" class="edge">
<title>Node13&#45;&gt;Node19</title>
<path fill="none" stroke="midnightblue" d="M139.65,-179.48C133.2,-170.55 122.91,-156.31 114.84,-145.14"/>
<polygon fill="midnightblue" stroke="midnightblue" points="117.66,-143.06 108.96,-137.01 111.98,-147.16 117.66,-143.06"/>
</g>
<!-- Node14&#45;&gt;Node3 -->
<g id="edge13" class="edge">
<title>Node14&#45;&gt;Node3</title>
<path fill="none" stroke="midnightblue" d="M212.31,-117.98C241.77,-107.72 291.39,-90.46 324.61,-78.9"/>
<polygon fill="midnightblue" stroke="midnightblue" points="326.06,-82.1 334.36,-75.51 323.76,-75.49 326.06,-82.1"/>
</g>
<!-- Node14&#45;&gt;Node15 -->
<g id="edge14" class="edge">
<title>Node14&#45;&gt;Node15</title>
<path fill="none" stroke="midnightblue" d="M173.48,-117.98C157.15,-108.25 130.21,-92.23 110.9,-80.74"/>
<polygon fill="midnightblue" stroke="midnightblue" points="112.5,-77.61 102.11,-75.51 108.92,-83.63 112.5,-77.61"/>
</g>
<!-- Node16&#45;&gt;Node3 -->
<g id="edge16" class="edge">
<title>Node16&#45;&gt;Node3</title>
<path fill="none" stroke="midnightblue" d="M316.08,-112.4C324.39,-103.58 335.11,-92.18 343.74,-83.02"/>
<polygon fill="midnightblue" stroke="midnightblue" points="346.36,-85.34 350.66,-75.66 341.26,-80.54 346.36,-85.34"/>
</g>
<!-- Node20&#45;&gt;Node3 -->
<g id="edge21" class="edge">
<title>Node20&#45;&gt;Node3</title>
<path fill="none" stroke="midnightblue" d="M462.36,-179.43C445.7,-171.71 422.33,-159.11 405.81,-143 388.52,-126.14 374.88,-101.68 366.84,-85.09"/>
<polygon fill="midnightblue" stroke="midnightblue" points="369.97,-83.52 362.58,-75.93 363.62,-86.47 369.97,-83.52"/>
</g>
<!-- Node21 -->
<g id="node17" class="node">
<title>Node21</title>
<g id="a_node17"><a xlink:title=" ">
<polygon fill="white" stroke="#bfbfbf" points="414.81,-112.5 414.81,-142.5 550.81,-142.5 550.81,-112.5 414.81,-112.5"/>
<text text-anchor="start" x="422.81" y="-130.5" font-family="Helvetica,sans-Serif" font-size="10.00">emlabcpp/static_circular</text>
<text text-anchor="middle" x="482.81" y="-119.5" font-family="Helvetica,sans-Serif" font-size="10.00">_buffer.h</text>
</a>
</g>
</g>
<!-- Node20&#45;&gt;Node21 -->
<g id="edge22" class="edge">
<title>Node20&#45;&gt;Node21</title>
<path fill="none" stroke="midnightblue" d="M482.81,-179.48C482.81,-172.47 482.81,-162.19 482.81,-152.7"/>
<polygon fill="midnightblue" stroke="midnightblue" points="486.31,-152.52 482.81,-142.52 479.31,-152.52 486.31,-152.52"/>
</g>
</g>
</svg>
