<?xml version="1.0" encoding="UTF-8" standalone="no"?>
<!DOCTYPE svg PUBLIC "-//W3C//DTD SVG 1.1//EN"
 "http://www.w3.org/Graphics/SVG/1.1/DTD/svg11.dtd">
<!-- Generated by graphviz version 2.43.0 (0)
 -->
<!-- Title: src/monitor.hpp Pages: 1 -->
<svg width="1036pt" height="263pt"
 viewBox="0.00 0.00 1035.50 263.00" xmlns="http://www.w3.org/2000/svg" xmlns:xlink="http://www.w3.org/1999/xlink">
<g id="graph0" class="graph" transform="scale(1 1) rotate(0) translate(4 259)">
<title>src/monitor.hpp</title>
<polygon fill="white" stroke="transparent" points="-4,4 -4,-259 1031.5,-259 1031.5,4 -4,4"/>
<!-- Node1 -->
<g id="node1" class="node">
<title>Node1</title>
<g id="a_node1"><a xlink:title=" ">
<polygon fill="#bfbfbf" stroke="black" points="343,-235.5 343,-254.5 435,-254.5 435,-235.5 343,-235.5"/>
<text text-anchor="middle" x="389" y="-242.5" font-family="Helvetica,sans-Serif" font-size="10.00">src/monitor.hpp</text>
</a>
</g>
</g>
<!-- Node2 -->
<g id="node2" class="node">
<title>Node2</title>
<g id="a_node2"><a xlink:href="control_8hpp.html" target="_top" xlink:title=" ">
<polygon fill="white" stroke="black" points="463.5,-179.5 463.5,-198.5 534.5,-198.5 534.5,-179.5 463.5,-179.5"/>
<text text-anchor="middle" x="499" y="-186.5" font-family="Helvetica,sans-Serif" font-size="10.00">control.hpp</text>
</a>
</g>
</g>
<!-- Node1&#45;&gt;Node2 -->
<g id="edge1" class="edge">
<title>Node1&#45;&gt;Node2</title>
<path fill="none" stroke="midnightblue" d="M406.67,-235.32C424.39,-226.62 451.9,-213.12 472.29,-203.11"/>
<polygon fill="midnightblue" stroke="midnightblue" points="473.94,-206.2 481.37,-198.65 470.85,-199.92 473.94,-206.2"/>
</g>
<!-- Node15 -->
<g id="node9" class="node">
<title>Node15</title>
<g id="a_node9"><a xlink:href="converter_8hpp.html" target="_top" xlink:title=" ">
<polygon fill="white" stroke="black" points="731.5,-118 731.5,-137 814.5,-137 814.5,-118 731.5,-118"/>
<text text-anchor="middle" x="773" y="-125" font-family="Helvetica,sans-Serif" font-size="10.00">converter.hpp</text>
</a>
</g>
</g>
<!-- Node1&#45;&gt;Node15 -->
<g id="edge10" class="edge">
<title>Node1&#45;&gt;Node15</title>
<path fill="none" stroke="midnightblue" d="M419.05,-235.43C450.3,-226.48 500.64,-211.97 544,-199 611.81,-178.72 690.63,-154.26 735.88,-140.13"/>
<polygon fill="midnightblue" stroke="midnightblue" points="737.05,-143.43 745.55,-137.11 734.96,-136.75 737.05,-143.43"/>
</g>
<!-- Node20 -->
<g id="node14" class="node">
<title>Node20</title>
<g id="a_node14"><a xlink:href="drv__interfaces_8hpp.html" target="_top" xlink:title=" ">
<polygon fill="white" stroke="black" points="38.5,-118 38.5,-137 145.5,-137 145.5,-118 38.5,-118"/>
<text text-anchor="middle" x="92" y="-125" font-family="Helvetica,sans-Serif" font-size="10.00">drv_interfaces.hpp</text>
</a>
</g>
</g>
<!-- Node1&#45;&gt;Node20 -->
<g id="edge19" class="edge">
<title>Node1&#45;&gt;Node20</title>
<path fill="none" stroke="midnightblue" d="M366.68,-235.32C314.41,-214.99 183.96,-164.26 123.58,-140.78"/>
<polygon fill="midnightblue" stroke="midnightblue" points="124.77,-137.49 114.18,-137.12 122.23,-144.01 124.77,-137.49"/>
</g>
<!-- Node24 -->
<g id="node18" class="node">
<title>Node24</title>
<g id="a_node18"><a xlink:href="indication_8hpp.html" target="_top" xlink:title=" ">
<polygon fill="white" stroke="black" points="285,-179.5 285,-198.5 371,-198.5 371,-179.5 285,-179.5"/>
<text text-anchor="middle" x="328" y="-186.5" font-family="Helvetica,sans-Serif" font-size="10.00">indication.hpp</text>
</a>
</g>
</g>
<!-- Node1&#45;&gt;Node24 -->
<g id="edge25" class="edge">
<title>Node1&#45;&gt;Node24</title>
<path fill="none" stroke="midnightblue" d="M379.2,-235.32C370.18,-227.34 356.59,-215.31 345.68,-205.65"/>
<polygon fill="midnightblue" stroke="midnightblue" points="347.79,-202.84 337.98,-198.83 343.15,-208.08 347.79,-202.84"/>
</g>
<!-- Node3 -->
<g id="node3" class="node">
<title>Node3</title>
<g id="a_node3"><a xlink:href="base_8hpp.html" target="_top" xlink:title=" ">
<polygon fill="white" stroke="red" points="335.5,-56.5 335.5,-75.5 396.5,-75.5 396.5,-56.5 335.5,-56.5"/>
<text text-anchor="middle" x="366" y="-63.5" font-family="Helvetica,sans-Serif" font-size="10.00">base.hpp</text>
</a>
</g>
</g>
<!-- Node2&#45;&gt;Node3 -->
<g id="edge2" class="edge">
<title>Node2&#45;&gt;Node3</title>
<path fill="none" stroke="midnightblue" d="M463.43,-182.75C438.05,-177.16 404.99,-165.8 385,-143 371.16,-127.21 367.1,-102.83 366.06,-85.96"/>
<polygon fill="midnightblue" stroke="midnightblue" points="369.55,-85.56 365.74,-75.68 362.55,-85.78 369.55,-85.56"/>
</g>
<!-- Node10 -->
<g id="node5" class="node">
<title>Node10</title>
<g id="a_node5"><a xlink:href="config_8hpp.html" target="_top" xlink:title=" ">
<polygon fill="white" stroke="black" points="593,-118 593,-137 675,-137 675,-118 593,-118"/>
<text text-anchor="middle" x="634" y="-125" font-family="Helvetica,sans-Serif" font-size="10.00">ctl/config.hpp</text>
</a>
</g>
</g>
<!-- Node2&#45;&gt;Node10 -->
<g id="edge4" class="edge">
<title>Node2&#45;&gt;Node10</title>
<path fill="none" stroke="midnightblue" d="M518.34,-179.48C541.1,-169.45 579.09,-152.7 605.29,-141.15"/>
<polygon fill="midnightblue" stroke="midnightblue" points="606.95,-144.24 614.69,-137.01 604.13,-137.84 606.95,-144.24"/>
</g>
<!-- Node11 -->
<g id="node6" class="node">
<title>Node11</title>
<g id="a_node6"><a xlink:title=" ">
<polygon fill="white" stroke="#bfbfbf" points="459,-56.5 459,-75.5 551,-75.5 551,-56.5 459,-56.5"/>
<text text-anchor="middle" x="505" y="-63.5" font-family="Helvetica,sans-Serif" font-size="10.00">emlabcpp/pid.h</text>
</a>
</g>
</g>
<!-- Node2&#45;&gt;Node11 -->
<g id="edge8" class="edge">
<title>Node2&#45;&gt;Node11</title>
<path fill="none" stroke="midnightblue" d="M534.59,-184.5C583.02,-178.92 665.77,-166.2 684,-143 692.51,-132.17 692.47,-122.87 684,-112 676.26,-102.07 610.55,-87.37 560.97,-77.5"/>
<polygon fill="midnightblue" stroke="midnightblue" points="561.47,-74.03 550.98,-75.53 560.11,-80.9 561.47,-74.03"/>
</g>
<!-- Node12 -->
<g id="node7" class="node">
<title>Node12</title>
<g id="a_node7"><a xlink:href="linear__transition__regulator_8hpp.html" target="_top" xlink:title=" ">
<polygon fill="white" stroke="red" points="394.5,-112.5 394.5,-142.5 505.5,-142.5 505.5,-112.5 394.5,-112.5"/>
<text text-anchor="start" x="402.5" y="-130.5" font-family="Helvetica,sans-Serif" font-size="10.00">ctl/linear_transition</text>
<text text-anchor="middle" x="450" y="-119.5" font-family="Helvetica,sans-Serif" font-size="10.00">_regulator.hpp</text>
</a>
</g>
</g>
<!-- Node2&#45;&gt;Node12 -->
<g id="edge6" class="edge">
<title>Node2&#45;&gt;Node12</title>
<path fill="none" stroke="midnightblue" d="M491.98,-179.48C485.72,-171.87 476.27,-160.4 467.92,-150.26"/>
<polygon fill="midnightblue" stroke="midnightblue" points="470.61,-148.02 461.55,-142.52 465.2,-152.47 470.61,-148.02"/>
</g>
<!-- Node14 -->
<g id="node8" class="node">
<title>Node14</title>
<g id="a_node8"><a xlink:title=" ">
<polygon fill="white" stroke="#bfbfbf" points="523.5,-118 523.5,-137 574.5,-137 574.5,-118 523.5,-118"/>
<text text-anchor="middle" x="549" y="-125" font-family="Helvetica,sans-Serif" font-size="10.00">variant</text>
</a>
</g>
</g>
<!-- Node2&#45;&gt;Node14 -->
<g id="edge9" class="edge">
<title>Node2&#45;&gt;Node14</title>
<path fill="none" stroke="midnightblue" d="M506.16,-179.48C513.74,-170.46 525.87,-156.02 535.29,-144.81"/>
<polygon fill="midnightblue" stroke="midnightblue" points="538.1,-146.92 541.85,-137.01 532.74,-142.41 538.1,-146.92"/>
</g>
<!-- Node7 -->
<g id="node4" class="node">
<title>Node7</title>
<g id="a_node4"><a xlink:title=" ">
<polygon fill="white" stroke="#bfbfbf" points="648,-0.5 648,-19.5 698,-19.5 698,-0.5 648,-0.5"/>
<text text-anchor="middle" x="673" y="-7.5" font-family="Helvetica,sans-Serif" font-size="10.00">cstdint</text>
</a>
</g>
</g>
<!-- Node3&#45;&gt;Node7 -->
<g id="edge3" class="edge">
<title>Node3&#45;&gt;Node7</title>
<path fill="none" stroke="midnightblue" d="M396.56,-59.62C453.91,-49.54 577.33,-27.83 637.95,-17.17"/>
<polygon fill="midnightblue" stroke="midnightblue" points="638.57,-20.61 647.81,-15.43 637.36,-13.72 638.57,-20.61"/>
</g>
<!-- Node10&#45;&gt;Node11 -->
<g id="edge5" class="edge">
<title>Node10&#45;&gt;Node11</title>
<path fill="none" stroke="midnightblue" d="M615.52,-117.98C593.87,-107.99 557.79,-91.35 532.77,-79.81"/>
<polygon fill="midnightblue" stroke="midnightblue" points="533.99,-76.52 523.45,-75.51 531.06,-82.88 533.99,-76.52"/>
</g>
<!-- Node12&#45;&gt;Node3 -->
<g id="edge7" class="edge">
<title>Node12&#45;&gt;Node3</title>
<path fill="none" stroke="midnightblue" d="M430.09,-112.4C417.01,-103.13 399.92,-91.03 386.68,-81.65"/>
<polygon fill="midnightblue" stroke="midnightblue" points="388.41,-78.58 378.22,-75.66 384.36,-84.29 388.41,-78.58"/>
</g>
<!-- Node16 -->
<g id="node10" class="node">
<title>Node16</title>
<g id="a_node10"><a xlink:href="current_8hpp.html" target="_top" xlink:title=" ">
<polygon fill="white" stroke="black" points="683,-56.5 683,-75.5 775,-75.5 775,-56.5 683,-56.5"/>
<text text-anchor="middle" x="729" y="-63.5" font-family="Helvetica,sans-Serif" font-size="10.00">cnv/current.hpp</text>
</a>
</g>
</g>
<!-- Node15&#45;&gt;Node16 -->
<g id="edge11" class="edge">
<title>Node15&#45;&gt;Node16</title>
<path fill="none" stroke="midnightblue" d="M766.7,-117.98C760.1,-109.05 749.56,-94.81 741.31,-83.64"/>
<polygon fill="midnightblue" stroke="midnightblue" points="744.05,-81.47 735.29,-75.51 738.42,-85.63 744.05,-81.47"/>
</g>
<!-- Node17 -->
<g id="node11" class="node">
<title>Node17</title>
<g id="a_node11"><a xlink:href="position_8hpp.html" target="_top" xlink:title=" ">
<polygon fill="white" stroke="black" points="793.5,-56.5 793.5,-75.5 890.5,-75.5 890.5,-56.5 793.5,-56.5"/>
<text text-anchor="middle" x="842" y="-63.5" font-family="Helvetica,sans-Serif" font-size="10.00">cnv/position.hpp</text>
</a>
</g>
</g>
<!-- Node15&#45;&gt;Node17 -->
<g id="edge13" class="edge">
<title>Node15&#45;&gt;Node17</title>
<path fill="none" stroke="midnightblue" d="M782.89,-117.98C793.65,-108.7 811.07,-93.67 824.22,-82.33"/>
<polygon fill="midnightblue" stroke="midnightblue" points="826.84,-84.69 832.13,-75.51 822.27,-79.39 826.84,-84.69"/>
</g>
<!-- Node18 -->
<g id="node12" class="node">
<title>Node18</title>
<g id="a_node12"><a xlink:href="temperature_8hpp.html" target="_top" xlink:title=" ">
<polygon fill="white" stroke="black" points="908.5,-56.5 908.5,-75.5 1027.5,-75.5 1027.5,-56.5 908.5,-56.5"/>
<text text-anchor="middle" x="968" y="-63.5" font-family="Helvetica,sans-Serif" font-size="10.00">cnv/temperature.hpp</text>
</a>
</g>
</g>
<!-- Node15&#45;&gt;Node18 -->
<g id="edge15" class="edge">
<title>Node15&#45;&gt;Node18</title>
<path fill="none" stroke="midnightblue" d="M800.94,-117.98C834.97,-107.59 892.58,-90.01 930.46,-78.45"/>
<polygon fill="midnightblue" stroke="midnightblue" points="931.57,-81.78 940.11,-75.51 929.53,-75.08 931.57,-81.78"/>
</g>
<!-- Node19 -->
<g id="node13" class="node">
<title>Node19</title>
<g id="a_node13"><a xlink:href="voltage_8hpp.html" target="_top" xlink:title=" ">
<polygon fill="white" stroke="black" points="569.5,-56.5 569.5,-75.5 664.5,-75.5 664.5,-56.5 569.5,-56.5"/>
<text text-anchor="middle" x="617" y="-63.5" font-family="Helvetica,sans-Serif" font-size="10.00">cnv/voltage.hpp</text>
</a>
</g>
</g>
<!-- Node15&#45;&gt;Node19 -->
<g id="edge17" class="edge">
<title>Node15&#45;&gt;Node19</title>
<path fill="none" stroke="midnightblue" d="M750.65,-117.98C724.01,-107.81 679.29,-90.76 648.99,-79.2"/>
<polygon fill="midnightblue" stroke="midnightblue" points="649.9,-75.8 639.31,-75.51 647.41,-82.34 649.9,-75.8"/>
</g>
<!-- Node16&#45;&gt;Node7 -->
<g id="edge12" class="edge">
<title>Node16&#45;&gt;Node7</title>
<path fill="none" stroke="midnightblue" d="M720,-56.32C711.81,-48.42 699.49,-36.55 689.53,-26.94"/>
<polygon fill="midnightblue" stroke="midnightblue" points="691.79,-24.26 682.16,-19.83 686.93,-29.29 691.79,-24.26"/>
</g>
<!-- Node17&#45;&gt;Node7 -->
<g id="edge14" class="edge">
<title>Node17&#45;&gt;Node7</title>
<path fill="none" stroke="midnightblue" d="M815.22,-56.44C786.16,-47.16 739.66,-32.3 707.79,-22.12"/>
<polygon fill="midnightblue" stroke="midnightblue" points="708.59,-18.7 698,-18.99 706.46,-25.37 708.59,-18.7"/>
</g>
<!-- Node18&#45;&gt;Node7 -->
<g id="edge16" class="edge">
<title>Node18&#45;&gt;Node7</title>
<path fill="none" stroke="midnightblue" d="M921.26,-56.44C862.01,-45.6 761.21,-27.15 708.11,-17.43"/>
<polygon fill="midnightblue" stroke="midnightblue" points="708.62,-13.96 698.16,-15.6 707.36,-20.85 708.62,-13.96"/>
</g>
<!-- Node19&#45;&gt;Node7 -->
<g id="edge18" class="edge">
<title>Node19&#45;&gt;Node7</title>
<path fill="none" stroke="midnightblue" d="M626,-56.32C634.19,-48.42 646.51,-36.55 656.47,-26.94"/>
<polygon fill="midnightblue" stroke="midnightblue" points="659.07,-29.29 663.84,-19.83 654.21,-24.26 659.07,-29.29"/>
</g>
<!-- Node20&#45;&gt;Node3 -->
<g id="edge20" class="edge">
<title>Node20&#45;&gt;Node3</title>
<path fill="none" stroke="midnightblue" d="M128.62,-117.97C137.27,-115.98 146.45,-113.89 155,-112 214.12,-98.89 282.72,-84.39 325.25,-75.49"/>
<polygon fill="midnightblue" stroke="midnightblue" points="326.14,-78.88 335.22,-73.4 324.71,-72.02 326.14,-78.88"/>
</g>
<!-- Node20&#45;&gt;Node7 -->
<g id="edge22" class="edge">
<title>Node20&#45;&gt;Node7</title>
<path fill="none" stroke="midnightblue" d="M120.1,-117.9C180.01,-99.58 315.68,-58.21 326,-56 438.59,-31.91 574.67,-18.82 637.74,-13.65"/>
<polygon fill="midnightblue" stroke="midnightblue" points="638.25,-17.12 647.94,-12.83 637.69,-10.15 638.25,-17.12"/>
</g>
<!-- Node21 -->
<g id="node15" class="node">
<title>Node21</title>
<g id="a_node15"><a xlink:href="status_8hpp.html" target="_top" xlink:title=" ">
<polygon fill="white" stroke="black" points="58,-56.5 58,-75.5 126,-75.5 126,-56.5 58,-56.5"/>
<text text-anchor="middle" x="92" y="-63.5" font-family="Helvetica,sans-Serif" font-size="10.00">status.hpp</text>
</a>
</g>
</g>
<!-- Node20&#45;&gt;Node21 -->
<g id="edge21" class="edge">
<title>Node20&#45;&gt;Node21</title>
<path fill="none" stroke="midnightblue" d="M92,-117.98C92,-109.58 92,-96.48 92,-85.66"/>
<polygon fill="midnightblue" stroke="midnightblue" points="95.5,-85.51 92,-75.51 88.5,-85.51 95.5,-85.51"/>
</g>
<!-- Node22 -->
<g id="node16" class="node">
<title>Node22</title>
<g id="a_node16"><a xlink:title=" ">
<polygon fill="white" stroke="#bfbfbf" points="144,-56.5 144,-75.5 248,-75.5 248,-56.5 144,-56.5"/>
<text text-anchor="middle" x="196" y="-63.5" font-family="Helvetica,sans-Serif" font-size="10.00">emlabcpp/result.h</text>
</a>
</g>
</g>
<!-- Node20&#45;&gt;Node22 -->
<g id="edge23" class="edge">
<title>Node20&#45;&gt;Node22</title>
<path fill="none" stroke="midnightblue" d="M106.9,-117.98C123.97,-108.21 152.16,-92.08 172.26,-80.58"/>
<polygon fill="midnightblue" stroke="midnightblue" points="174.19,-83.51 181.13,-75.51 170.71,-77.44 174.19,-83.51"/>
</g>
<!-- Node23 -->
<g id="node17" class="node">
<title>Node23</title>
<g id="a_node17"><a xlink:title=" ">
<polygon fill="white" stroke="#bfbfbf" points="0,-56.5 0,-75.5 40,-75.5 40,-56.5 0,-56.5"/>
<text text-anchor="middle" x="20" y="-63.5" font-family="Helvetica,sans-Serif" font-size="10.00">span</text>
</a>
</g>
</g>
<!-- Node20&#45;&gt;Node23 -->
<g id="edge24" class="edge">
<title>Node20&#45;&gt;Node23</title>
<path fill="none" stroke="midnightblue" d="M81.68,-117.98C70.35,-108.61 51.93,-93.38 38.16,-82.01"/>
<polygon fill="midnightblue" stroke="midnightblue" points="40.23,-79.18 30.3,-75.51 35.78,-84.58 40.23,-79.18"/>
</g>
<!-- Node24&#45;&gt;Node3 -->
<g id="edge26" class="edge">
<title>Node24&#45;&gt;Node3</title>
<path fill="none" stroke="midnightblue" d="M330.73,-179.3C336.9,-159.68 351.98,-111.64 360.29,-85.19"/>
<polygon fill="midnightblue" stroke="midnightblue" points="363.63,-86.21 363.29,-75.62 356.96,-84.12 363.63,-86.21"/>
</g>
<!-- Node25 -->
<g id="node19" class="node">
<title>Node25</title>
<g id="a_node19"><a xlink:title=" ">
<polygon fill="white" stroke="#bfbfbf" points="164,-112.5 164,-142.5 300,-142.5 300,-112.5 164,-112.5"/>
<text text-anchor="start" x="172" y="-130.5" font-family="Helvetica,sans-Serif" font-size="10.00">emlabcpp/static_circular</text>
<text text-anchor="middle" x="232" y="-119.5" font-family="Helvetica,sans-Serif" font-size="10.00">_buffer.h</text>
</a>
</g>
</g>
<!-- Node24&#45;&gt;Node25 -->
<g id="edge27" class="edge">
<title>Node24&#45;&gt;Node25</title>
<path fill="none" stroke="midnightblue" d="M314.25,-179.48C301,-171.27 280.5,-158.56 263.28,-147.88"/>
<polygon fill="midnightblue" stroke="midnightblue" points="264.97,-144.82 254.63,-142.52 261.28,-150.77 264.97,-144.82"/>
</g>
</g>
</svg>
