<?xml version="1.0" encoding="UTF-8" standalone="no"?>
<!DOCTYPE svg PUBLIC "-//W3C//DTD SVG 1.1//EN"
 "http://www.w3.org/Graphics/SVG/1.1/DTD/svg11.dtd">
<!-- Generated by graphviz version 2.43.0 (0)
 -->
<!-- Title: src/fw/monitor.hpp Pages: 1 -->
<svg width="728pt" height="330pt"
 viewBox="0.00 0.00 728.41 330.00" xmlns="http://www.w3.org/2000/svg" xmlns:xlink="http://www.w3.org/1999/xlink">
<g id="graph0" class="graph" transform="scale(1 1) rotate(0) translate(4 326)">
<title>src/fw/monitor.hpp</title>
<polygon fill="white" stroke="transparent" points="-4,4 -4,-326 724.41,-326 724.41,4 -4,4"/>
<!-- Node1 -->
<g id="node1" class="node">
<title>Node1</title>
<g id="a_node1"><a xlink:title=" ">
<polygon fill="#bfbfbf" stroke="black" points="379.6,-302.5 379.6,-321.5 486.6,-321.5 486.6,-302.5 379.6,-302.5"/>
<text text-anchor="middle" x="433.1" y="-309.5" font-family="Helvetica,sans-Serif" font-size="10.00">src/fw/monitor.hpp</text>
</a>
</g>
</g>
<!-- Node2 -->
<g id="node2" class="node">
<title>Node2</title>
<g id="a_node2"><a xlink:href="control_8hpp.html" target="_top" xlink:title=" ">
<polygon fill="white" stroke="black" points="107.6,-246.5 107.6,-265.5 178.6,-265.5 178.6,-246.5 107.6,-246.5"/>
<text text-anchor="middle" x="143.1" y="-253.5" font-family="Helvetica,sans-Serif" font-size="10.00">control.hpp</text>
</a>
</g>
</g>
<!-- Node1&#45;&gt;Node2 -->
<g id="edge1" class="edge">
<title>Node1&#45;&gt;Node2</title>
<path fill="none" stroke="midnightblue" d="M387.15,-302.44C332.83,-292.33 243,-275.6 188.8,-265.51"/>
<polygon fill="midnightblue" stroke="midnightblue" points="189.25,-262.03 178.78,-263.64 187.97,-268.92 189.25,-262.03"/>
</g>
<!-- Node16 -->
<g id="node9" class="node">
<title>Node16</title>
<g id="a_node9"><a xlink:href="converter_8hpp.html" target="_top" xlink:title=" ">
<polygon fill="white" stroke="black" points="439.6,-118 439.6,-137 522.6,-137 522.6,-118 439.6,-118"/>
<text text-anchor="middle" x="481.1" y="-125" font-family="Helvetica,sans-Serif" font-size="10.00">converter.hpp</text>
</a>
</g>
</g>
<!-- Node1&#45;&gt;Node16 -->
<g id="edge11" class="edge">
<title>Node1&#45;&gt;Node16</title>
<path fill="none" stroke="midnightblue" d="M435.73,-302.39C441.01,-285.01 453.15,-244.43 462.1,-210 467.68,-188.52 473.37,-163.66 477.05,-147.1"/>
<polygon fill="midnightblue" stroke="midnightblue" points="480.51,-147.62 479.25,-137.1 473.68,-146.11 480.51,-147.62"/>
</g>
<!-- Node21 -->
<g id="node14" class="node">
<title>Node21</title>
<g id="a_node14"><a xlink:href="drv__interfaces_8hpp.html" target="_top" xlink:title=" ">
<polygon fill="white" stroke="black" points="539.6,-246.5 539.6,-265.5 646.6,-265.5 646.6,-246.5 539.6,-246.5"/>
<text text-anchor="middle" x="593.1" y="-253.5" font-family="Helvetica,sans-Serif" font-size="10.00">drv_interfaces.hpp</text>
</a>
</g>
</g>
<!-- Node1&#45;&gt;Node21 -->
<g id="edge20" class="edge">
<title>Node1&#45;&gt;Node21</title>
<path fill="none" stroke="midnightblue" d="M458.45,-302.44C485.37,-293.36 528.1,-278.94 558.19,-268.78"/>
<polygon fill="midnightblue" stroke="midnightblue" points="559.51,-272.03 567.87,-265.52 557.27,-265.4 559.51,-272.03"/>
</g>
<!-- Node24 -->
<g id="node17" class="node">
<title>Node24</title>
<g id="a_node17"><a xlink:href="indication_8hpp.html" target="_top" xlink:title=" ">
<polygon fill="white" stroke="black" points="342.1,-246.5 342.1,-265.5 428.1,-265.5 428.1,-246.5 342.1,-246.5"/>
<text text-anchor="middle" x="385.1" y="-253.5" font-family="Helvetica,sans-Serif" font-size="10.00">indication.hpp</text>
</a>
</g>
</g>
<!-- Node1&#45;&gt;Node24 -->
<g id="edge24" class="edge">
<title>Node1&#45;&gt;Node24</title>
<path fill="none" stroke="midnightblue" d="M425.17,-302.08C418.25,-294.3 408.04,-282.8 399.65,-273.37"/>
<polygon fill="midnightblue" stroke="midnightblue" points="402.14,-270.9 392.88,-265.75 396.91,-275.55 402.14,-270.9"/>
</g>
<!-- Node3 -->
<g id="node3" class="node">
<title>Node3</title>
<g id="a_node3"><a xlink:href="base_8hpp.html" target="_top" xlink:title=" ">
<polygon fill="white" stroke="red" points="143.6,-56.5 143.6,-75.5 204.6,-75.5 204.6,-56.5 143.6,-56.5"/>
<text text-anchor="middle" x="174.1" y="-63.5" font-family="Helvetica,sans-Serif" font-size="10.00">base.hpp</text>
</a>
</g>
</g>
<!-- Node2&#45;&gt;Node3 -->
<g id="edge2" class="edge">
<title>Node2&#45;&gt;Node3</title>
<path fill="none" stroke="midnightblue" d="M107.65,-246.47C86.06,-239.7 59.24,-228.27 41.1,-210 9.09,-177.77 -15.39,-148.16 12.1,-112 26.78,-92.69 90.66,-79.49 133.69,-72.6"/>
<polygon fill="midnightblue" stroke="midnightblue" points="134.25,-76.06 143.59,-71.07 133.18,-69.14 134.25,-76.06"/>
</g>
<!-- Node10 -->
<g id="node5" class="node">
<title>Node10</title>
<g id="a_node5"><a xlink:href="ctl_2config_8hpp.html" target="_top" xlink:title=" ">
<polygon fill="white" stroke="black" points="59.1,-185 59.1,-204 141.1,-204 141.1,-185 59.1,-185"/>
<text text-anchor="middle" x="100.1" y="-192" font-family="Helvetica,sans-Serif" font-size="10.00">ctl/config.hpp</text>
</a>
</g>
</g>
<!-- Node2&#45;&gt;Node10 -->
<g id="edge4" class="edge">
<title>Node2&#45;&gt;Node10</title>
<path fill="none" stroke="midnightblue" d="M136.94,-246.48C130.49,-237.55 120.2,-223.31 112.13,-212.14"/>
<polygon fill="midnightblue" stroke="midnightblue" points="114.94,-210.06 106.25,-204.01 109.27,-214.16 114.94,-210.06"/>
</g>
<!-- Node11 -->
<g id="node6" class="node">
<title>Node11</title>
<g id="a_node6"><a xlink:href="pid__module_8hpp.html" target="_top" xlink:title=" ">
<polygon fill="white" stroke="red" points="21.1,-118 21.1,-137 131.1,-137 131.1,-118 21.1,-118"/>
<text text-anchor="middle" x="76.1" y="-125" font-family="Helvetica,sans-Serif" font-size="10.00">ctl/pid_module.hpp</text>
</a>
</g>
</g>
<!-- Node2&#45;&gt;Node11 -->
<g id="edge9" class="edge">
<title>Node2&#45;&gt;Node11</title>
<path fill="none" stroke="midnightblue" d="M107.16,-247.53C86.64,-241.22 62.58,-229.91 50.1,-210 37.45,-189.83 50.84,-162.96 62.62,-145.69"/>
<polygon fill="midnightblue" stroke="midnightblue" points="65.75,-147.33 68.82,-137.19 60.1,-143.21 65.75,-147.33"/>
</g>
<!-- Node13 -->
<g id="node7" class="node">
<title>Node13</title>
<g id="a_node7"><a xlink:href="linear__transition__regulator_8hpp.html" target="_top" xlink:title=" ">
<polygon fill="white" stroke="red" points="149.6,-112.5 149.6,-142.5 260.6,-142.5 260.6,-112.5 149.6,-112.5"/>
<text text-anchor="start" x="157.6" y="-130.5" font-family="Helvetica,sans-Serif" font-size="10.00">ctl/linear_transition</text>
<text text-anchor="middle" x="205.1" y="-119.5" font-family="Helvetica,sans-Serif" font-size="10.00">_regulator.hpp</text>
</a>
</g>
</g>
<!-- Node2&#45;&gt;Node13 -->
<g id="edge7" class="edge">
<title>Node2&#45;&gt;Node13</title>
<path fill="none" stroke="midnightblue" d="M171.12,-246.4C188.27,-239.51 208.85,-227.98 219.1,-210 229.2,-192.28 223.78,-169.11 216.95,-152.02"/>
<polygon fill="midnightblue" stroke="midnightblue" points="220.1,-150.48 212.87,-142.73 213.69,-153.3 220.1,-150.48"/>
</g>
<!-- Node15 -->
<g id="node8" class="node">
<title>Node15</title>
<g id="a_node8"><a xlink:title=" ">
<polygon fill="white" stroke="#bfbfbf" points="159.6,-185 159.6,-204 210.6,-204 210.6,-185 159.6,-185"/>
<text text-anchor="middle" x="185.1" y="-192" font-family="Helvetica,sans-Serif" font-size="10.00">variant</text>
</a>
</g>
</g>
<!-- Node2&#45;&gt;Node15 -->
<g id="edge10" class="edge">
<title>Node2&#45;&gt;Node15</title>
<path fill="none" stroke="midnightblue" d="M149.12,-246.48C155.36,-237.64 165.27,-223.59 173.12,-212.48"/>
<polygon fill="midnightblue" stroke="midnightblue" points="176.19,-214.2 179.09,-204.01 170.47,-210.16 176.19,-214.2"/>
</g>
<!-- Node7 -->
<g id="node4" class="node">
<title>Node7</title>
<g id="a_node4"><a xlink:title=" ">
<polygon fill="white" stroke="#bfbfbf" points="438.1,-0.5 438.1,-19.5 488.1,-19.5 488.1,-0.5 438.1,-0.5"/>
<text text-anchor="middle" x="463.1" y="-7.5" font-family="Helvetica,sans-Serif" font-size="10.00">cstdint</text>
</a>
</g>
</g>
<!-- Node3&#45;&gt;Node7 -->
<g id="edge3" class="edge">
<title>Node3&#45;&gt;Node7</title>
<path fill="none" stroke="midnightblue" d="M204.73,-57.78C207.55,-57.16 210.38,-56.56 213.1,-56 289.37,-40.35 379.34,-24.88 427.84,-16.79"/>
<polygon fill="midnightblue" stroke="midnightblue" points="428.54,-20.22 437.83,-15.13 427.39,-13.32 428.54,-20.22"/>
</g>
<!-- Node10&#45;&gt;Node11 -->
<g id="edge5" class="edge">
<title>Node10&#45;&gt;Node11</title>
<path fill="none" stroke="midnightblue" d="M96.86,-184.73C93.27,-174.99 87.35,-158.98 82.76,-146.53"/>
<polygon fill="midnightblue" stroke="midnightblue" points="86.03,-145.3 79.29,-137.13 79.47,-147.72 86.03,-145.3"/>
</g>
<!-- Node11&#45;&gt;Node3 -->
<g id="edge6" class="edge">
<title>Node11&#45;&gt;Node3</title>
<path fill="none" stroke="midnightblue" d="M90.14,-117.98C106.15,-108.25 132.55,-92.23 151.47,-80.74"/>
<polygon fill="midnightblue" stroke="midnightblue" points="153.35,-83.69 160.09,-75.51 149.72,-77.71 153.35,-83.69"/>
</g>
<!-- Node13&#45;&gt;Node3 -->
<g id="edge8" class="edge">
<title>Node13&#45;&gt;Node3</title>
<path fill="none" stroke="midnightblue" d="M197.75,-112.4C193.44,-104.11 187.94,-93.55 183.33,-84.71"/>
<polygon fill="midnightblue" stroke="midnightblue" points="186.34,-82.91 178.61,-75.66 180.13,-86.14 186.34,-82.91"/>
</g>
<!-- Node17 -->
<g id="node10" class="node">
<title>Node17</title>
<g id="a_node10"><a xlink:href="current_8hpp.html" target="_top" xlink:title=" ">
<polygon fill="white" stroke="black" points="473.1,-56.5 473.1,-75.5 565.1,-75.5 565.1,-56.5 473.1,-56.5"/>
<text text-anchor="middle" x="519.1" y="-63.5" font-family="Helvetica,sans-Serif" font-size="10.00">cnv/current.hpp</text>
</a>
</g>
</g>
<!-- Node16&#45;&gt;Node17 -->
<g id="edge12" class="edge">
<title>Node16&#45;&gt;Node17</title>
<path fill="none" stroke="midnightblue" d="M486.54,-117.98C492.19,-109.14 501.16,-95.09 508.26,-83.98"/>
<polygon fill="midnightblue" stroke="midnightblue" points="511.23,-85.82 513.67,-75.51 505.33,-82.05 511.23,-85.82"/>
</g>
<!-- Node18 -->
<g id="node11" class="node">
<title>Node18</title>
<g id="a_node11"><a xlink:href="position_8hpp.html" target="_top" xlink:title=" ">
<polygon fill="white" stroke="black" points="583.6,-56.5 583.6,-75.5 680.6,-75.5 680.6,-56.5 583.6,-56.5"/>
<text text-anchor="middle" x="632.1" y="-63.5" font-family="Helvetica,sans-Serif" font-size="10.00">cnv/position.hpp</text>
</a>
</g>
</g>
<!-- Node16&#45;&gt;Node18 -->
<g id="edge14" class="edge">
<title>Node16&#45;&gt;Node18</title>
<path fill="none" stroke="midnightblue" d="M502.74,-117.98C528.52,-107.81 571.81,-90.76 601.14,-79.2"/>
<polygon fill="midnightblue" stroke="midnightblue" points="602.49,-82.43 610.51,-75.51 599.92,-75.92 602.49,-82.43"/>
</g>
<!-- Node19 -->
<g id="node12" class="node">
<title>Node19</title>
<g id="a_node12"><a xlink:href="temperature_8hpp.html" target="_top" xlink:title=" ">
<polygon fill="white" stroke="black" points="222.6,-56.5 222.6,-75.5 341.6,-75.5 341.6,-56.5 222.6,-56.5"/>
<text text-anchor="middle" x="282.1" y="-63.5" font-family="Helvetica,sans-Serif" font-size="10.00">cnv/temperature.hpp</text>
</a>
</g>
</g>
<!-- Node16&#45;&gt;Node19 -->
<g id="edge16" class="edge">
<title>Node16&#45;&gt;Node19</title>
<path fill="none" stroke="midnightblue" d="M452.59,-117.98C417.86,-107.59 359.06,-90.01 320.41,-78.45"/>
<polygon fill="midnightblue" stroke="midnightblue" points="321.14,-75.02 310.56,-75.51 319.14,-81.73 321.14,-75.02"/>
</g>
<!-- Node20 -->
<g id="node13" class="node">
<title>Node20</title>
<g id="a_node13"><a xlink:href="voltage_8hpp.html" target="_top" xlink:title=" ">
<polygon fill="white" stroke="black" points="359.6,-56.5 359.6,-75.5 454.6,-75.5 454.6,-56.5 359.6,-56.5"/>
<text text-anchor="middle" x="407.1" y="-63.5" font-family="Helvetica,sans-Serif" font-size="10.00">cnv/voltage.hpp</text>
</a>
</g>
</g>
<!-- Node16&#45;&gt;Node20 -->
<g id="edge18" class="edge">
<title>Node16&#45;&gt;Node20</title>
<path fill="none" stroke="midnightblue" d="M470.5,-117.98C458.85,-108.61 439.91,-93.38 425.77,-82.01"/>
<polygon fill="midnightblue" stroke="midnightblue" points="427.67,-79.05 417.68,-75.51 423.28,-84.5 427.67,-79.05"/>
</g>
<!-- Node17&#45;&gt;Node7 -->
<g id="edge13" class="edge">
<title>Node17&#45;&gt;Node7</title>
<path fill="none" stroke="midnightblue" d="M510.1,-56.32C501.91,-48.42 489.59,-36.55 479.63,-26.94"/>
<polygon fill="midnightblue" stroke="midnightblue" points="481.89,-24.26 472.26,-19.83 477.03,-29.29 481.89,-24.26"/>
</g>
<!-- Node18&#45;&gt;Node7 -->
<g id="edge15" class="edge">
<title>Node18&#45;&gt;Node7</title>
<path fill="none" stroke="midnightblue" d="M605.32,-56.44C576.26,-47.16 529.76,-32.3 497.89,-22.12"/>
<polygon fill="midnightblue" stroke="midnightblue" points="498.69,-18.7 488.1,-18.99 496.56,-25.37 498.69,-18.7"/>
</g>
<!-- Node19&#45;&gt;Node7 -->
<g id="edge17" class="edge">
<title>Node19&#45;&gt;Node7</title>
<path fill="none" stroke="midnightblue" d="M310.78,-56.44C342.58,-46.96 393.88,-31.65 428.04,-21.46"/>
<polygon fill="midnightblue" stroke="midnightblue" points="429.47,-24.69 438.05,-18.47 427.47,-17.98 429.47,-24.69"/>
</g>
<!-- Node20&#45;&gt;Node7 -->
<g id="edge19" class="edge">
<title>Node20&#45;&gt;Node7</title>
<path fill="none" stroke="midnightblue" d="M416.1,-56.32C424.29,-48.42 436.61,-36.55 446.57,-26.94"/>
<polygon fill="midnightblue" stroke="midnightblue" points="449.17,-29.29 453.94,-19.83 444.31,-24.26 449.17,-29.29"/>
</g>
<!-- Node21&#45;&gt;Node7 -->
<g id="edge22" class="edge">
<title>Node21&#45;&gt;Node7</title>
<path fill="none" stroke="midnightblue" d="M635.49,-246.45C655.68,-240.02 678.01,-228.93 690.1,-210 726.93,-152.31 733.54,-108.89 690.1,-56 666.28,-26.99 556.28,-16.35 498.61,-12.73"/>
<polygon fill="midnightblue" stroke="midnightblue" points="498.67,-9.22 488.48,-12.13 498.26,-16.21 498.67,-9.22"/>
</g>
<!-- Node22 -->
<g id="node15" class="node">
<title>Node22</title>
<g id="a_node15"><a xlink:href="status__category_8hpp.html" target="_top" xlink:title=" ">
<polygon fill="white" stroke="black" points="567.1,-185 567.1,-204 681.1,-204 681.1,-185 567.1,-185"/>
<text text-anchor="middle" x="624.1" y="-192" font-family="Helvetica,sans-Serif" font-size="10.00">status_category.hpp</text>
</a>
</g>
</g>
<!-- Node21&#45;&gt;Node22 -->
<g id="edge21" class="edge">
<title>Node21&#45;&gt;Node22</title>
<path fill="none" stroke="midnightblue" d="M597.54,-246.48C602.05,-237.82 609.17,-224.15 614.91,-213.15"/>
<polygon fill="midnightblue" stroke="midnightblue" points="618.15,-214.49 619.67,-204.01 611.94,-211.26 618.15,-214.49"/>
</g>
<!-- Node23 -->
<g id="node16" class="node">
<title>Node23</title>
<g id="a_node16"><a xlink:title=" ">
<polygon fill="white" stroke="#bfbfbf" points="509.1,-185 509.1,-204 549.1,-204 549.1,-185 509.1,-185"/>
<text text-anchor="middle" x="529.1" y="-192" font-family="Helvetica,sans-Serif" font-size="10.00">span</text>
</a>
</g>
</g>
<!-- Node21&#45;&gt;Node23 -->
<g id="edge23" class="edge">
<title>Node21&#45;&gt;Node23</title>
<path fill="none" stroke="midnightblue" d="M583.93,-246.48C573.95,-237.2 557.79,-222.17 545.59,-210.83"/>
<polygon fill="midnightblue" stroke="midnightblue" points="547.96,-208.25 538.25,-204.01 543.19,-213.38 547.96,-208.25"/>
</g>
<!-- Node24&#45;&gt;Node3 -->
<g id="edge25" class="edge">
<title>Node24&#45;&gt;Node3</title>
<path fill="none" stroke="midnightblue" d="M362.13,-246.4C345.19,-239.03 322.64,-226.9 308.1,-210 277.53,-174.46 301.18,-146.19 269.1,-112 254.32,-96.25 232.9,-85.44 214.14,-78.38"/>
<polygon fill="midnightblue" stroke="midnightblue" points="215.21,-75.04 204.62,-75.01 212.88,-81.64 215.21,-75.04"/>
</g>
<!-- Node25 -->
<g id="node18" class="node">
<title>Node25</title>
<g id="a_node18"><a xlink:title=" ">
<polygon fill="white" stroke="#bfbfbf" points="317.1,-179.5 317.1,-209.5 453.1,-209.5 453.1,-179.5 317.1,-179.5"/>
<text text-anchor="start" x="325.1" y="-197.5" font-family="Helvetica,sans-Serif" font-size="10.00">emlabcpp/static_circular</text>
<text text-anchor="middle" x="385.1" y="-186.5" font-family="Helvetica,sans-Serif" font-size="10.00">_buffer.h</text>
</a>
</g>
</g>
<!-- Node24&#45;&gt;Node25 -->
<g id="edge26" class="edge">
<title>Node24&#45;&gt;Node25</title>
<path fill="none" stroke="midnightblue" d="M385.1,-246.48C385.1,-239.47 385.1,-229.19 385.1,-219.7"/>
<polygon fill="midnightblue" stroke="midnightblue" points="388.6,-219.52 385.1,-209.52 381.6,-219.52 388.6,-219.52"/>
</g>
</g>
</svg>
