<?xml version="1.0" encoding="UTF-8" standalone="no"?>
<!DOCTYPE svg PUBLIC "-//W3C//DTD SVG 1.1//EN"
 "http://www.w3.org/Graphics/SVG/1.1/DTD/svg11.dtd">
<!-- Generated by graphviz version 2.43.0 (0)
 -->
<!-- Title: src/mon/monitor.hpp Pages: 1 -->
<svg width="804pt" height="263pt"
 viewBox="0.00 0.00 803.50 263.00" xmlns="http://www.w3.org/2000/svg" xmlns:xlink="http://www.w3.org/1999/xlink">
<g id="graph0" class="graph" transform="scale(1 1) rotate(0) translate(4 259)">
<title>src/mon/monitor.hpp</title>
<polygon fill="white" stroke="transparent" points="-4,4 -4,-259 799.5,-259 799.5,4 -4,4"/>
<!-- Node1 -->
<g id="node1" class="node">
<title>Node1</title>
<g id="a_node1"><a xlink:title=" ">
<polygon fill="#bfbfbf" stroke="black" points="363,-235.5 363,-254.5 480,-254.5 480,-235.5 363,-235.5"/>
<text text-anchor="middle" x="421.5" y="-242.5" font-family="Helvetica,sans-Serif" font-size="10.00">src/mon/monitor.hpp</text>
</a>
</g>
</g>
<!-- Node2 -->
<g id="node2" class="node">
<title>Node2</title>
<g id="a_node2"><a xlink:href="converter_8hpp.html" target="_top" xlink:title=" ">
<polygon fill="white" stroke="black" points="94.5,-179.5 94.5,-198.5 198.5,-198.5 198.5,-179.5 94.5,-179.5"/>
<text text-anchor="middle" x="146.5" y="-186.5" font-family="Helvetica,sans-Serif" font-size="10.00">cnv/converter.hpp</text>
</a>
</g>
</g>
<!-- Node1&#45;&gt;Node2 -->
<g id="edge1" class="edge">
<title>Node1&#45;&gt;Node2</title>
<path fill="none" stroke="midnightblue" d="M377.93,-235.44C329.65,-225.96 251.79,-210.67 199.89,-200.48"/>
<polygon fill="midnightblue" stroke="midnightblue" points="200.36,-197.01 189.87,-198.52 199.01,-203.88 200.36,-197.01"/>
</g>
<!-- Node5 -->
<g id="node5" class="node">
<title>Node5</title>
<g id="a_node5"><a xlink:href="control_8hpp.html" target="_top" xlink:title=" ">
<polygon fill="white" stroke="black" points="248.5,-179.5 248.5,-198.5 334.5,-198.5 334.5,-179.5 248.5,-179.5"/>
<text text-anchor="middle" x="291.5" y="-186.5" font-family="Helvetica,sans-Serif" font-size="10.00">ctl/control.hpp</text>
</a>
</g>
</g>
<!-- Node1&#45;&gt;Node5 -->
<g id="edge4" class="edge">
<title>Node1&#45;&gt;Node5</title>
<path fill="none" stroke="midnightblue" d="M400.9,-235.44C379.51,-226.56 345.82,-212.56 321.48,-202.45"/>
<polygon fill="midnightblue" stroke="midnightblue" points="322.58,-199.12 312,-198.52 319.89,-205.58 322.58,-199.12"/>
</g>
<!-- Node16 -->
<g id="node12" class="node">
<title>Node16</title>
<g id="a_node12"><a xlink:href="interfaces_8hpp.html" target="_top" xlink:title=" ">
<polygon fill="white" stroke="black" points="678,-118 678,-137 783,-137 783,-118 678,-118"/>
<text text-anchor="middle" x="730.5" y="-125" font-family="Helvetica,sans-Serif" font-size="10.00">drv/interfaces.hpp</text>
</a>
</g>
</g>
<!-- Node1&#45;&gt;Node16 -->
<g id="edge14" class="edge">
<title>Node1&#45;&gt;Node16</title>
<path fill="none" stroke="midnightblue" d="M449.73,-235.48C477.78,-226.86 521.9,-212.86 559.5,-199 610.23,-180.3 668.2,-155.7 701.95,-141.05"/>
<polygon fill="midnightblue" stroke="midnightblue" points="703.43,-144.22 711.2,-137.02 700.63,-137.81 703.43,-144.22"/>
</g>
<!-- Node19 -->
<g id="node15" class="node">
<title>Node19</title>
<g id="a_node15"><a xlink:href="indication_8hpp.html" target="_top" xlink:title=" ">
<polygon fill="white" stroke="black" points="440.5,-179.5 440.5,-198.5 550.5,-198.5 550.5,-179.5 440.5,-179.5"/>
<text text-anchor="middle" x="495.5" y="-186.5" font-family="Helvetica,sans-Serif" font-size="10.00">mon/indication.hpp</text>
</a>
</g>
</g>
<!-- Node1&#45;&gt;Node19 -->
<g id="edge19" class="edge">
<title>Node1&#45;&gt;Node19</title>
<path fill="none" stroke="midnightblue" d="M433.39,-235.32C444.65,-227.11 461.79,-214.6 475.21,-204.81"/>
<polygon fill="midnightblue" stroke="midnightblue" points="477.38,-207.56 483.39,-198.83 473.25,-201.9 477.38,-207.56"/>
</g>
<!-- Node3 -->
<g id="node3" class="node">
<title>Node3</title>
<g id="a_node3"><a xlink:href="linear__converter_8hpp.html" target="_top" xlink:title=" ">
<polygon fill="white" stroke="black" points="0,-56.5 0,-75.5 137,-75.5 137,-56.5 0,-56.5"/>
<text text-anchor="middle" x="68.5" y="-63.5" font-family="Helvetica,sans-Serif" font-size="10.00">cnv/linear_converter.hpp</text>
</a>
</g>
</g>
<!-- Node2&#45;&gt;Node3 -->
<g id="edge2" class="edge">
<title>Node2&#45;&gt;Node3</title>
<path fill="none" stroke="midnightblue" d="M123.28,-179.42C107.34,-172.23 87.19,-160.34 76.5,-143 65.97,-125.91 65.09,-102.48 66.14,-86.17"/>
<polygon fill="midnightblue" stroke="midnightblue" points="69.66,-86.03 67.12,-75.74 62.7,-85.37 69.66,-86.03"/>
</g>
<!-- Node4 -->
<g id="node4" class="node">
<title>Node4</title>
<g id="a_node4"><a xlink:title=" ">
<polygon fill="white" stroke="#bfbfbf" points="359.5,-0.5 359.5,-19.5 409.5,-19.5 409.5,-0.5 359.5,-0.5"/>
<text text-anchor="middle" x="384.5" y="-7.5" font-family="Helvetica,sans-Serif" font-size="10.00">cstdint</text>
</a>
</g>
</g>
<!-- Node3&#45;&gt;Node4 -->
<g id="edge3" class="edge">
<title>Node3&#45;&gt;Node4</title>
<path fill="none" stroke="midnightblue" d="M118.57,-56.44C182.82,-45.46 292.69,-26.69 348.98,-17.07"/>
<polygon fill="midnightblue" stroke="midnightblue" points="349.9,-20.46 359.17,-15.33 348.72,-13.56 349.9,-20.46"/>
</g>
<!-- Node6 -->
<g id="node6" class="node">
<title>Node6</title>
<g id="a_node6"><a xlink:href="config_8hpp.html" target="_top" xlink:title=" ">
<polygon fill="white" stroke="black" points="193.5,-118 193.5,-137 275.5,-137 275.5,-118 193.5,-118"/>
<text text-anchor="middle" x="234.5" y="-125" font-family="Helvetica,sans-Serif" font-size="10.00">ctl/config.hpp</text>
</a>
</g>
</g>
<!-- Node5&#45;&gt;Node6 -->
<g id="edge5" class="edge">
<title>Node5&#45;&gt;Node6</title>
<path fill="none" stroke="midnightblue" d="M283.33,-179.48C274.61,-170.37 260.6,-155.74 249.81,-144.48"/>
<polygon fill="midnightblue" stroke="midnightblue" points="252.1,-141.81 242.65,-137.01 247.04,-146.65 252.1,-141.81"/>
</g>
<!-- Node11 -->
<g id="node8" class="node">
<title>Node11</title>
<g id="a_node8"><a xlink:title=" ">
<polygon fill="white" stroke="#bfbfbf" points="166.5,-56.5 166.5,-75.5 258.5,-75.5 258.5,-56.5 166.5,-56.5"/>
<text text-anchor="middle" x="212.5" y="-63.5" font-family="Helvetica,sans-Serif" font-size="10.00">emlabcpp/pid.h</text>
</a>
</g>
</g>
<!-- Node5&#45;&gt;Node11 -->
<g id="edge11" class="edge">
<title>Node5&#45;&gt;Node11</title>
<path fill="none" stroke="midnightblue" d="M248.43,-181.55C225.31,-175.65 198.72,-164.4 184.5,-143 172.16,-124.42 185.86,-99.69 198.07,-83.56"/>
<polygon fill="midnightblue" stroke="midnightblue" points="200.96,-85.55 204.53,-75.58 195.52,-81.15 200.96,-85.55"/>
</g>
<!-- Node12 -->
<g id="node9" class="node">
<title>Node12</title>
<g id="a_node9"><a xlink:href="linear__transition__regulator_8hpp.html" target="_top" xlink:title=" ">
<polygon fill="white" stroke="red" points="294,-112.5 294,-142.5 405,-142.5 405,-112.5 294,-112.5"/>
<text text-anchor="start" x="302" y="-130.5" font-family="Helvetica,sans-Serif" font-size="10.00">ctl/linear_transition</text>
<text text-anchor="middle" x="349.5" y="-119.5" font-family="Helvetica,sans-Serif" font-size="10.00">_regulator.hpp</text>
</a>
</g>
</g>
<!-- Node5&#45;&gt;Node12 -->
<g id="edge9" class="edge">
<title>Node5&#45;&gt;Node12</title>
<path fill="none" stroke="midnightblue" d="M299.81,-179.48C307.3,-171.79 318.63,-160.17 328.58,-149.96"/>
<polygon fill="midnightblue" stroke="midnightblue" points="331.36,-152.13 335.83,-142.52 326.34,-147.24 331.36,-152.13"/>
</g>
<!-- Node14 -->
<g id="node10" class="node">
<title>Node14</title>
<g id="a_node10"><a xlink:title=" ">
<polygon fill="white" stroke="#bfbfbf" points="423.5,-118 423.5,-137 467.5,-137 467.5,-118 423.5,-118"/>
<text text-anchor="middle" x="445.5" y="-125" font-family="Helvetica,sans-Serif" font-size="10.00">limits</text>
</a>
</g>
</g>
<!-- Node5&#45;&gt;Node14 -->
<g id="edge12" class="edge">
<title>Node5&#45;&gt;Node14</title>
<path fill="none" stroke="midnightblue" d="M316.47,-179.38C341.27,-170.69 380.29,-156.63 413.5,-143 414.91,-142.42 416.35,-141.82 417.8,-141.2"/>
<polygon fill="midnightblue" stroke="midnightblue" points="419.58,-144.24 427.32,-137.01 416.76,-137.83 419.58,-144.24"/>
</g>
<!-- Node15 -->
<g id="node11" class="node">
<title>Node15</title>
<g id="a_node11"><a xlink:title=" ">
<polygon fill="white" stroke="#bfbfbf" points="86,-118 86,-137 137,-137 137,-118 86,-118"/>
<text text-anchor="middle" x="111.5" y="-125" font-family="Helvetica,sans-Serif" font-size="10.00">variant</text>
</a>
</g>
</g>
<!-- Node5&#45;&gt;Node15 -->
<g id="edge13" class="edge">
<title>Node5&#45;&gt;Node15</title>
<path fill="none" stroke="midnightblue" d="M263.77,-179.42C235.46,-170.58 190.27,-156.25 151.5,-143 149.11,-142.18 146.65,-141.33 144.18,-140.46"/>
<polygon fill="midnightblue" stroke="midnightblue" points="145.31,-137.14 134.72,-137.08 142.96,-143.74 145.31,-137.14"/>
</g>
<!-- Node7 -->
<g id="node7" class="node">
<title>Node7</title>
<g id="a_node7"><a xlink:href="base_2base_8hpp.html" target="_top" xlink:title=" ">
<polygon fill="white" stroke="red" points="341,-56.5 341,-75.5 428,-75.5 428,-56.5 341,-56.5"/>
<text text-anchor="middle" x="384.5" y="-63.5" font-family="Helvetica,sans-Serif" font-size="10.00">base/base.hpp</text>
</a>
</g>
</g>
<!-- Node6&#45;&gt;Node7 -->
<g id="edge6" class="edge">
<title>Node6&#45;&gt;Node7</title>
<path fill="none" stroke="midnightblue" d="M255.99,-117.98C281.61,-107.81 324.61,-90.76 353.74,-79.2"/>
<polygon fill="midnightblue" stroke="midnightblue" points="355.04,-82.45 363.05,-75.51 352.46,-75.94 355.04,-82.45"/>
</g>
<!-- Node6&#45;&gt;Node11 -->
<g id="edge8" class="edge">
<title>Node6&#45;&gt;Node11</title>
<path fill="none" stroke="midnightblue" d="M231.35,-117.98C228.18,-109.4 223.2,-95.93 219.15,-84.98"/>
<polygon fill="midnightblue" stroke="midnightblue" points="222.4,-83.67 215.65,-75.51 215.83,-86.1 222.4,-83.67"/>
</g>
<!-- Node7&#45;&gt;Node4 -->
<g id="edge7" class="edge">
<title>Node7&#45;&gt;Node4</title>
<path fill="none" stroke="midnightblue" d="M384.5,-56.08C384.5,-49.01 384.5,-38.86 384.5,-29.99"/>
<polygon fill="midnightblue" stroke="midnightblue" points="388,-29.75 384.5,-19.75 381,-29.75 388,-29.75"/>
</g>
<!-- Node12&#45;&gt;Node7 -->
<g id="edge10" class="edge">
<title>Node12&#45;&gt;Node7</title>
<path fill="none" stroke="midnightblue" d="M357.79,-112.4C362.72,-104.02 369.01,-93.33 374.25,-84.42"/>
<polygon fill="midnightblue" stroke="midnightblue" points="377.35,-86.05 379.41,-75.66 371.32,-82.5 377.35,-86.05"/>
</g>
<!-- Node16&#45;&gt;Node4 -->
<g id="edge16" class="edge">
<title>Node16&#45;&gt;Node4</title>
<path fill="none" stroke="midnightblue" d="M704.78,-117.91C643.57,-97.48 489.22,-45.96 419.57,-22.71"/>
<polygon fill="midnightblue" stroke="midnightblue" points="420.52,-19.33 409.92,-19.49 418.3,-25.97 420.52,-19.33"/>
</g>
<!-- Node16&#45;&gt;Node7 -->
<g id="edge15" class="edge">
<title>Node16&#45;&gt;Node7</title>
<path fill="none" stroke="midnightblue" d="M695.84,-117.93C686.95,-115.86 677.4,-113.74 668.5,-112 588.78,-96.38 495.65,-82.44 438.38,-74.35"/>
<polygon fill="midnightblue" stroke="midnightblue" points="438.85,-70.88 428.46,-72.96 437.88,-77.81 438.85,-70.88"/>
</g>
<!-- Node17 -->
<g id="node13" class="node">
<title>Node17</title>
<g id="a_node13"><a xlink:title=" ">
<polygon fill="white" stroke="#bfbfbf" points="633.5,-56.5 633.5,-75.5 737.5,-75.5 737.5,-56.5 633.5,-56.5"/>
<text text-anchor="middle" x="685.5" y="-63.5" font-family="Helvetica,sans-Serif" font-size="10.00">emlabcpp/result.h</text>
</a>
</g>
</g>
<!-- Node16&#45;&gt;Node17 -->
<g id="edge17" class="edge">
<title>Node16&#45;&gt;Node17</title>
<path fill="none" stroke="midnightblue" d="M724.05,-117.98C717.3,-109.05 706.53,-94.81 698.09,-83.64"/>
<polygon fill="midnightblue" stroke="midnightblue" points="700.76,-81.37 691.94,-75.51 695.18,-85.6 700.76,-81.37"/>
</g>
<!-- Node18 -->
<g id="node14" class="node">
<title>Node18</title>
<g id="a_node14"><a xlink:title=" ">
<polygon fill="white" stroke="#bfbfbf" points="755.5,-56.5 755.5,-75.5 795.5,-75.5 795.5,-56.5 755.5,-56.5"/>
<text text-anchor="middle" x="775.5" y="-63.5" font-family="Helvetica,sans-Serif" font-size="10.00">span</text>
</a>
</g>
</g>
<!-- Node16&#45;&gt;Node18 -->
<g id="edge18" class="edge">
<title>Node16&#45;&gt;Node18</title>
<path fill="none" stroke="midnightblue" d="M736.95,-117.98C743.7,-109.05 754.47,-94.81 762.91,-83.64"/>
<polygon fill="midnightblue" stroke="midnightblue" points="765.82,-85.6 769.06,-75.51 760.24,-81.37 765.82,-85.6"/>
</g>
<!-- Node19&#45;&gt;Node7 -->
<g id="edge20" class="edge">
<title>Node19&#45;&gt;Node7</title>
<path fill="none" stroke="midnightblue" d="M495.6,-179.46C495.35,-164.22 492.76,-132.09 476.5,-112 464.04,-96.61 445.01,-86.09 427.48,-79.12"/>
<polygon fill="midnightblue" stroke="midnightblue" points="428.54,-75.78 417.95,-75.6 426.12,-82.35 428.54,-75.78"/>
</g>
<!-- Node20 -->
<g id="node16" class="node">
<title>Node20</title>
<g id="a_node16"><a xlink:title=" ">
<polygon fill="white" stroke="#bfbfbf" points="523.5,-112.5 523.5,-142.5 659.5,-142.5 659.5,-112.5 523.5,-112.5"/>
<text text-anchor="start" x="531.5" y="-130.5" font-family="Helvetica,sans-Serif" font-size="10.00">emlabcpp/static_circular</text>
<text text-anchor="middle" x="591.5" y="-119.5" font-family="Helvetica,sans-Serif" font-size="10.00">_buffer.h</text>
</a>
</g>
</g>
<!-- Node19&#45;&gt;Node20 -->
<g id="edge21" class="edge">
<title>Node19&#45;&gt;Node20</title>
<path fill="none" stroke="midnightblue" d="M509.25,-179.48C522.5,-171.27 543,-158.56 560.22,-147.88"/>
<polygon fill="midnightblue" stroke="midnightblue" points="562.22,-150.77 568.87,-142.52 558.53,-144.82 562.22,-150.77"/>
</g>
</g>
</svg>
