<?xml version="1.0" encoding="UTF-8" standalone="no"?>
<!DOCTYPE svg PUBLIC "-//W3C//DTD SVG 1.1//EN"
 "http://www.w3.org/Graphics/SVG/1.1/DTD/svg11.dtd">
<!-- Generated by graphviz version 2.43.0 (0)
 -->
<!-- Title: src/sim/motor.hpp Pages: 1 -->
<svg width="507pt" height="140pt"
 viewBox="0.00 0.00 507.00 140.00" xmlns="http://www.w3.org/2000/svg" xmlns:xlink="http://www.w3.org/1999/xlink">
<g id="graph0" class="graph" transform="scale(1 1) rotate(0) translate(4 136)">
<title>src/sim/motor.hpp</title>
<polygon fill="white" stroke="transparent" points="-4,4 -4,-136 503,-136 503,4 -4,4"/>
<!-- Node1 -->
<g id="node1" class="node">
<title>Node1</title>
<g id="a_node1"><a xlink:title=" ">
<polygon fill="#bfbfbf" stroke="black" points="303,-112.5 303,-131.5 407,-131.5 407,-112.5 303,-112.5"/>
<text text-anchor="middle" x="355" y="-119.5" font-family="Helvetica,sans-Serif" font-size="10.00">src/sim/motor.hpp</text>
</a>
</g>
</g>
<!-- Node2 -->
<g id="node2" class="node">
<title>Node2</title>
<g id="a_node2"><a xlink:href="base_2base_8hpp.html" target="_top" xlink:title=" ">
<polygon fill="white" stroke="black" points="154.5,-56.5 154.5,-75.5 241.5,-75.5 241.5,-56.5 154.5,-56.5"/>
<text text-anchor="middle" x="198" y="-63.5" font-family="Helvetica,sans-Serif" font-size="10.00">base/base.hpp</text>
</a>
</g>
</g>
<!-- Node1&#45;&gt;Node2 -->
<g id="edge1" class="edge">
<title>Node1&#45;&gt;Node2</title>
<path fill="none" stroke="midnightblue" d="M330.12,-112.44C303.71,-103.36 261.78,-88.94 232.26,-78.78"/>
<polygon fill="midnightblue" stroke="midnightblue" points="233.36,-75.46 222.76,-75.52 231.08,-82.08 233.36,-75.46"/>
</g>
<!-- Node8 -->
<g id="node8" class="node">
<title>Node8</title>
<g id="a_node8"><a xlink:title=" ">
<polygon fill="white" stroke="#bfbfbf" points="259.5,-56.5 259.5,-75.5 360.5,-75.5 360.5,-56.5 259.5,-56.5"/>
<text text-anchor="middle" x="310" y="-63.5" font-family="Helvetica,sans-Serif" font-size="10.00">emlabcpp/defer.h</text>
</a>
</g>
</g>
<!-- Node1&#45;&gt;Node8 -->
<g id="edge7" class="edge">
<title>Node1&#45;&gt;Node8</title>
<path fill="none" stroke="midnightblue" d="M347.57,-112.08C341.15,-104.38 331.69,-93.03 323.88,-83.65"/>
<polygon fill="midnightblue" stroke="midnightblue" points="326.38,-81.19 317.29,-75.75 321.01,-85.67 326.38,-81.19"/>
</g>
<!-- Node9 -->
<g id="node9" class="node">
<title>Node9</title>
<g id="a_node9"><a xlink:title=" ">
<polygon fill="white" stroke="#bfbfbf" points="379,-56.5 379,-75.5 421,-75.5 421,-56.5 379,-56.5"/>
<text text-anchor="middle" x="400" y="-63.5" font-family="Helvetica,sans-Serif" font-size="10.00">array</text>
</a>
</g>
</g>
<!-- Node1&#45;&gt;Node9 -->
<g id="edge8" class="edge">
<title>Node1&#45;&gt;Node9</title>
<path fill="none" stroke="midnightblue" d="M362.43,-112.08C368.85,-104.38 378.31,-93.03 386.12,-83.65"/>
<polygon fill="midnightblue" stroke="midnightblue" points="388.99,-85.67 392.71,-75.75 383.62,-81.19 388.99,-85.67"/>
</g>
<!-- Node10 -->
<g id="node10" class="node">
<title>Node10</title>
<g id="a_node10"><a xlink:title=" ">
<polygon fill="white" stroke="#bfbfbf" points="439,-56.5 439,-75.5 499,-75.5 499,-56.5 439,-56.5"/>
<text text-anchor="middle" x="469" y="-63.5" font-family="Helvetica,sans-Serif" font-size="10.00">iostream</text>
</a>
</g>
</g>
<!-- Node1&#45;&gt;Node10 -->
<g id="edge9" class="edge">
<title>Node1&#45;&gt;Node10</title>
<path fill="none" stroke="midnightblue" d="M373.06,-112.44C391.57,-103.68 420.58,-89.94 441.86,-79.86"/>
<polygon fill="midnightblue" stroke="midnightblue" points="443.48,-82.96 451.02,-75.52 440.49,-76.63 443.48,-82.96"/>
</g>
<!-- Node3 -->
<g id="node3" class="node">
<title>Node3</title>
<g id="a_node3"><a xlink:title=" ">
<polygon fill="white" stroke="#bfbfbf" points="0,-0.5 0,-19.5 50,-19.5 50,-0.5 0,-0.5"/>
<text text-anchor="middle" x="25" y="-7.5" font-family="Helvetica,sans-Serif" font-size="10.00">chrono</text>
</a>
</g>
</g>
<!-- Node2&#45;&gt;Node3 -->
<g id="edge2" class="edge">
<title>Node2&#45;&gt;Node3</title>
<path fill="none" stroke="midnightblue" d="M170.59,-56.44C140.54,-47.06 92.27,-32 59.63,-21.81"/>
<polygon fill="midnightblue" stroke="midnightblue" points="60.63,-18.45 50.04,-18.82 58.54,-25.14 60.63,-18.45"/>
</g>
<!-- Node4 -->
<g id="node4" class="node">
<title>Node4</title>
<g id="a_node4"><a xlink:title=" ">
<polygon fill="white" stroke="#bfbfbf" points="68,-0.5 68,-19.5 118,-19.5 118,-0.5 68,-0.5"/>
<text text-anchor="middle" x="93" y="-7.5" font-family="Helvetica,sans-Serif" font-size="10.00">cstdint</text>
</a>
</g>
</g>
<!-- Node2&#45;&gt;Node4 -->
<g id="edge3" class="edge">
<title>Node2&#45;&gt;Node4</title>
<path fill="none" stroke="midnightblue" d="M181.13,-56.32C164.29,-47.66 138.19,-34.24 118.76,-24.25"/>
<polygon fill="midnightblue" stroke="midnightblue" points="120.32,-21.12 109.83,-19.65 117.12,-27.34 120.32,-21.12"/>
</g>
<!-- Node5 -->
<g id="node5" class="node">
<title>Node5</title>
<g id="a_node5"><a xlink:title=" ">
<polygon fill="white" stroke="#bfbfbf" points="136,-0.5 136,-19.5 260,-19.5 260,-0.5 136,-0.5"/>
<text text-anchor="middle" x="198" y="-7.5" font-family="Helvetica,sans-Serif" font-size="10.00">emlabcpp/algorithm.h</text>
</a>
</g>
</g>
<!-- Node2&#45;&gt;Node5 -->
<g id="edge4" class="edge">
<title>Node2&#45;&gt;Node5</title>
<path fill="none" stroke="midnightblue" d="M198,-56.08C198,-49.01 198,-38.86 198,-29.99"/>
<polygon fill="midnightblue" stroke="midnightblue" points="201.5,-29.75 198,-19.75 194.5,-29.75 201.5,-29.75"/>
</g>
<!-- Node6 -->
<g id="node6" class="node">
<title>Node6</title>
<g id="a_node6"><a xlink:title=" ">
<polygon fill="white" stroke="#bfbfbf" points="278,-0.5 278,-19.5 394,-19.5 394,-0.5 278,-0.5"/>
<text text-anchor="middle" x="336" y="-7.5" font-family="Helvetica,sans-Serif" font-size="10.00">emlabcpp/quantity.h</text>
</a>
</g>
</g>
<!-- Node2&#45;&gt;Node6 -->
<g id="edge5" class="edge">
<title>Node2&#45;&gt;Node6</title>
<path fill="none" stroke="midnightblue" d="M219.87,-56.44C242.78,-47.48 278.98,-33.31 304.87,-23.18"/>
<polygon fill="midnightblue" stroke="midnightblue" points="306.2,-26.42 314.24,-19.52 303.65,-19.9 306.2,-26.42"/>
</g>
<!-- Node7 -->
<g id="node7" class="node">
<title>Node7</title>
<g id="a_node7"><a xlink:title=" ">
<polygon fill="white" stroke="#bfbfbf" points="412.5,-0.5 412.5,-19.5 471.5,-19.5 471.5,-0.5 412.5,-0.5"/>
<text text-anchor="middle" x="442" y="-7.5" font-family="Helvetica,sans-Serif" font-size="10.00">numbers</text>
</a>
</g>
</g>
<!-- Node2&#45;&gt;Node7 -->
<g id="edge6" class="edge">
<title>Node2&#45;&gt;Node7</title>
<path fill="none" stroke="midnightblue" d="M237.33,-56.5C276.6,-47.98 338.95,-34.38 402.42,-20.11"/>
<polygon fill="midnightblue" stroke="midnightblue" points="403.21,-23.52 412.2,-17.91 401.67,-16.69 403.21,-23.52"/>
</g>
</g>
</svg>
