<?xml version="1.0" encoding="UTF-8" standalone="no"?>
<!DOCTYPE svg PUBLIC "-//W3C//DTD SVG 1.1//EN"
 "http://www.w3.org/Graphics/SVG/1.1/DTD/svg11.dtd">
<!-- Generated by graphviz version 2.43.0 (0)
 -->
<!-- Title: src/drv/paged_i2c_eeprom.hpp Pages: 1 -->
<svg width="440pt" height="192pt"
 viewBox="0.00 0.00 439.50 192.00" xmlns="http://www.w3.org/2000/svg" xmlns:xlink="http://www.w3.org/1999/xlink">
<g id="graph0" class="graph" transform="scale(1 1) rotate(0) translate(4 188)">
<title>src/drv/paged_i2c_eeprom.hpp</title>
<!-- Node1 -->
<g id="Node000001" class="node">
<title>Node1</title>
<g id="a_Node000001"><a xlink:title=" ">
<polygon fill="#999999" stroke="#666666" points="215.5,-184 49.5,-184 49.5,-165 215.5,-165 215.5,-184"/>
<text text-anchor="middle" x="132.5" y="-172" font-family="Helvetica,sans-Serif" font-size="10.00">src/drv/paged_i2c_eeprom.hpp</text>
</a>
</g>
</g>
<!-- Node2 -->
<g id="Node000002" class="node">
<title>Node2</title>
<g id="a_Node000002"><a xlink:href="platform_8hpp.html" target="_top" xlink:title=" ">
<polygon fill="white" stroke="#666666" points="126.5,-129 22.5,-129 22.5,-110 126.5,-110 126.5,-129"/>
<text text-anchor="middle" x="74.5" y="-117" font-family="Helvetica,sans-Serif" font-size="10.00">../plt/platform.hpp</text>
</a>
</g>
</g>
<!-- Node1&#45;&gt;Node2 -->
<g id="edge1_Node000001_Node000002" class="edge">
<title>Node1&#45;&gt;Node2</title>
<g id="a_edge1_Node000001_Node000002"><a xlink:title=" ">
<path fill="none" stroke="#63b8ff" d="M123.18,-164.98C114.69,-157.23 101.94,-145.58 91.62,-136.14"/>
<polygon fill="#63b8ff" stroke="#63b8ff" points="93.73,-133.33 83.99,-129.17 89.01,-138.5 93.73,-133.33"/>
</a>
</g>
</g>
<!-- Node5 -->
<g id="Node000005" class="node">
<title>Node5</title>
<g id="a_Node000005"><a xlink:href="interfaces_8hpp.html" target="_top" xlink:title=" ">
<polygon fill="white" stroke="#666666" points="249.5,-129 157.5,-129 157.5,-110 249.5,-110 249.5,-129"/>
<text text-anchor="middle" x="203.5" y="-117" font-family="Helvetica,sans-Serif" font-size="10.00">./interfaces.hpp</text>
</a>
</g>
</g>
<!-- Node1&#45;&gt;Node5 -->
<g id="edge3_Node000001_Node000005" class="edge">
<title>Node1&#45;&gt;Node5</title>
<g id="a_edge3_Node000001_Node000005"><a xlink:title=" ">
<path fill="none" stroke="#63b8ff" d="M143.91,-164.98C154.61,-157 170.84,-144.88 183.66,-135.31"/>
<polygon fill="#63b8ff" stroke="#63b8ff" points="185.97,-137.96 191.89,-129.17 181.78,-132.35 185.97,-137.96"/>
</a>
</g>
</g>
<!-- Node3 -->
<g id="Node000003" class="node">
<title>Node3</title>
<g id="a_Node000003"><a xlink:href="hal_8hpp.html" target="_top" xlink:title=" ">
<polygon fill="#fff0f0" stroke="red" points="53,-74 0,-74 0,-55 53,-55 53,-74"/>
<text text-anchor="middle" x="26.5" y="-62" font-family="Helvetica,sans-Serif" font-size="10.00">hal.hpp</text>
</a>
</g>
</g>
<!-- Node2&#45;&gt;Node3 -->
<g id="edge2_Node000002_Node000003" class="edge">
<title>Node2&#45;&gt;Node3</title>
<g id="a_edge2_Node000002_Node000003"><a xlink:title=" ">
<path fill="none" stroke="#63b8ff" d="M66.57,-109.75C59.65,-102.11 49.43,-90.82 41.05,-81.56"/>
<polygon fill="#63b8ff" stroke="#63b8ff" points="43.59,-79.15 34.28,-74.09 38.4,-83.85 43.59,-79.15"/>
</a>
</g>
</g>
<!-- Node6 -->
<g id="Node000006" class="node">
<title>Node6</title>
<g id="a_Node000006"><a xlink:href="base_8hpp.html" target="_top" xlink:title=" ">
<polygon fill="#fff0f0" stroke="red" points="141.5,-74 71.5,-74 71.5,-55 141.5,-55 141.5,-74"/>
<text text-anchor="middle" x="106.5" y="-62" font-family="Helvetica,sans-Serif" font-size="10.00">../base.hpp</text>
</a>
</g>
</g>
<!-- Node5&#45;&gt;Node6 -->
<g id="edge4_Node000005_Node000006" class="edge">
<title>Node5&#45;&gt;Node6</title>
<g id="a_edge4_Node000005_Node000006"><a xlink:title=" ">
<path fill="none" stroke="#63b8ff" d="M187.92,-109.98C172.73,-101.69 149.4,-88.94 131.6,-79.22"/>
<polygon fill="#63b8ff" stroke="#63b8ff" points="132.82,-75.89 122.37,-74.17 129.47,-82.04 132.82,-75.89"/>
</a>
</g>
</g>
<!-- Node8 -->
<g id="Node000008" class="node">
<title>Node8</title>
<g id="a_Node000008"><a xlink:title=" ">
<polygon fill="#e0e0e0" stroke="#999999" points="162.5,-19 112.5,-19 112.5,0 162.5,0 162.5,-19"/>
<text text-anchor="middle" x="137.5" y="-7" font-family="Helvetica,sans-Serif" font-size="10.00">cstdint</text>
</a>
</g>
</g>
<!-- Node5&#45;&gt;Node8 -->
<g id="edge8_Node000005_Node000008" class="edge">
<title>Node5&#45;&gt;Node8</title>
<g id="a_edge8_Node000005_Node000008"><a xlink:title=" ">
<path fill="none" stroke="#63b8ff" d="M198.1,-109.66C187.17,-91.77 162.25,-51 148.01,-27.69"/>
<polygon fill="#63b8ff" stroke="#63b8ff" points="150.99,-25.87 142.79,-19.16 145.02,-29.52 150.99,-25.87"/>
</a>
</g>
</g>
<!-- Node13 -->
<g id="Node000013" class="node">
<title>Node13</title>
<g id="a_Node000013"><a xlink:href="cfg_2def_8hpp.html" target="_top" xlink:title=" ">
<polygon fill="#fff0f0" stroke="red" points="277.5,-74 197.5,-74 197.5,-55 277.5,-55 277.5,-74"/>
<text text-anchor="middle" x="237.5" y="-62" font-family="Helvetica,sans-Serif" font-size="10.00">../cfg/def.hpp</text>
</a>
</g>
</g>
<!-- Node5&#45;&gt;Node13 -->
<g id="edge6_Node000005_Node000013" class="edge">
<title>Node5&#45;&gt;Node13</title>
<g id="a_edge6_Node000005_Node000013"><a xlink:title=" ">
<path fill="none" stroke="#63b8ff" d="M209.11,-109.75C213.82,-102.42 220.67,-91.73 226.47,-82.7"/>
<polygon fill="#63b8ff" stroke="#63b8ff" points="229.54,-84.4 231.99,-74.09 223.64,-80.62 229.54,-84.4"/>
</a>
</g>
</g>
<!-- Node23 -->
<g id="Node000023" class="node">
<title>Node23</title>
<g id="a_Node000023"><a xlink:href="status_8hpp.html" target="_top" xlink:title=" ">
<polygon fill="#fff0f0" stroke="red" points="373,-74 296,-74 296,-55 373,-55 373,-74"/>
<text text-anchor="middle" x="334.5" y="-62" font-family="Helvetica,sans-Serif" font-size="10.00">../status.hpp</text>
</a>
</g>
</g>
<!-- Node5&#45;&gt;Node23 -->
<g id="edge7_Node000005_Node000023" class="edge">
<title>Node5&#45;&gt;Node23</title>
<g id="a_edge7_Node000005_Node000023"><a xlink:title=" ">
<path fill="none" stroke="#63b8ff" d="M224.55,-109.98C245.91,-101.34 279.2,-87.87 303.56,-78.02"/>
<polygon fill="#63b8ff" stroke="#63b8ff" points="305.11,-81.17 313.07,-74.17 302.49,-74.68 305.11,-81.17"/>
</a>
</g>
</g>
<!-- Node27 -->
<g id="Node000027" class="node">
<title>Node27</title>
<g id="a_Node000027"><a xlink:title=" ">
<polygon fill="#e0e0e0" stroke="#999999" points="431.5,-74 391.5,-74 391.5,-55 431.5,-55 431.5,-74"/>
<text text-anchor="middle" x="411.5" y="-62" font-family="Helvetica,sans-Serif" font-size="10.00">span</text>
</a>
</g>
</g>
<!-- Node5&#45;&gt;Node27 -->
<g id="edge9_Node000005_Node000027" class="edge">
<title>Node5&#45;&gt;Node27</title>
<g id="a_edge9_Node000005_Node000027"><a xlink:title=" ">
<path fill="none" stroke="#63b8ff" d="M239.61,-109.99C273.79,-101.83 326.77,-88.91 381.4,-74.22"/>
<polygon fill="#63b8ff" stroke="#63b8ff" points="382.51,-77.54 391.25,-71.55 380.68,-70.79 382.51,-77.54"/>
</a>
</g>
</g>
<!-- Node6&#45;&gt;Node8 -->
<g id="edge5_Node000006_Node000008" class="edge">
<title>Node6&#45;&gt;Node8</title>
<g id="a_edge5_Node000006_Node000008"><a xlink:title=" ">
<path fill="none" stroke="#63b8ff" d="M111.62,-54.75C115.86,-47.49 122.03,-36.95 127.28,-27.98"/>
<polygon fill="#63b8ff" stroke="#63b8ff" points="130.45,-29.49 132.48,-19.09 124.41,-25.95 130.45,-29.49"/>
</a>
</g>
</g>
</g>
</svg>
