<?xml version="1.0" encoding="UTF-8" standalone="no"?>
<!DOCTYPE svg PUBLIC "-//W3C//DTD SVG 1.1//EN"
 "http://www.w3.org/Graphics/SVG/1.1/DTD/svg11.dtd">
<!-- Generated by graphviz version 2.43.0 (0)
 -->
<!-- Title: src/drv/paged_i2c_eeprom.hpp Pages: 1 -->
<svg width="676pt" height="247pt"
 viewBox="0.00 0.00 675.50 247.00" xmlns="http://www.w3.org/2000/svg" xmlns:xlink="http://www.w3.org/1999/xlink">
<g id="graph0" class="graph" transform="scale(1 1) rotate(0) translate(4 243)">
<title>src/drv/paged_i2c_eeprom.hpp</title>
<!-- Node1 -->
<g id="Node000001" class="node">
<title>Node1</title>
<g id="a_Node000001"><a xlink:title=" ">
<polygon fill="#999999" stroke="#666666" points="248.5,-239 82.5,-239 82.5,-220 248.5,-220 248.5,-239"/>
<text text-anchor="middle" x="165.5" y="-227" font-family="Helvetica,sans-Serif" font-size="10.00">src/drv/paged_i2c_eeprom.hpp</text>
</a>
</g>
</g>
<!-- Node2 -->
<g id="Node000002" class="node">
<title>Node2</title>
<g id="a_Node000002"><a xlink:href="paging_8hpp.html" target="_top" xlink:title=" ">
<polygon fill="white" stroke="#666666" points="95,-184 0,-184 0,-165 95,-165 95,-184"/>
<text text-anchor="middle" x="47.5" y="-172" font-family="Helvetica,sans-Serif" font-size="10.00">../lib/paging.hpp</text>
</a>
</g>
</g>
<!-- Node1&#45;&gt;Node2 -->
<g id="edge1_Node000001_Node000002" class="edge">
<title>Node1&#45;&gt;Node2</title>
<g id="a_edge1_Node000001_Node000002"><a xlink:title=" ">
<path fill="none" stroke="#63b8ff" d="M146.54,-219.98C127.47,-211.42 97.84,-198.11 75.95,-188.28"/>
<polygon fill="#63b8ff" stroke="#63b8ff" points="77.36,-185.07 66.8,-184.17 74.49,-191.46 77.36,-185.07"/>
</a>
</g>
</g>
<!-- Node10 -->
<g id="Node000010" class="node">
<title>Node10</title>
<g id="a_Node000010"><a xlink:href="platform_8hpp.html" target="_top" xlink:title=" ">
<polygon fill="white" stroke="#666666" points="217.5,-184 113.5,-184 113.5,-165 217.5,-165 217.5,-184"/>
<text text-anchor="middle" x="165.5" y="-172" font-family="Helvetica,sans-Serif" font-size="10.00">../plt/platform.hpp</text>
</a>
</g>
</g>
<!-- Node1&#45;&gt;Node10 -->
<g id="edge5_Node000001_Node000010" class="edge">
<title>Node1&#45;&gt;Node10</title>
<g id="a_edge5_Node000001_Node000010"><a xlink:title=" ">
<path fill="none" stroke="#63b8ff" d="M165.5,-219.75C165.5,-212.8 165.5,-202.85 165.5,-194.13"/>
<polygon fill="#63b8ff" stroke="#63b8ff" points="169,-194.09 165.5,-184.09 162,-194.09 169,-194.09"/>
</a>
</g>
</g>
<!-- Node13 -->
<g id="Node000013" class="node">
<title>Node13</title>
<g id="a_Node000013"><a xlink:href="interfaces_8hpp.html" target="_top" xlink:title=" ">
<polygon fill="white" stroke="#666666" points="385.5,-184 293.5,-184 293.5,-165 385.5,-165 385.5,-184"/>
<text text-anchor="middle" x="339.5" y="-172" font-family="Helvetica,sans-Serif" font-size="10.00">./interfaces.hpp</text>
</a>
</g>
</g>
<!-- Node1&#45;&gt;Node13 -->
<g id="edge7_Node000001_Node000013" class="edge">
<title>Node1&#45;&gt;Node13</title>
<g id="a_edge7_Node000001_Node000013"><a xlink:title=" ">
<path fill="none" stroke="#63b8ff" d="M193.46,-219.98C222.8,-211.05 269.1,-196.94 301.69,-187.02"/>
<polygon fill="#63b8ff" stroke="#63b8ff" points="302.78,-190.34 311.32,-184.08 300.74,-183.65 302.78,-190.34"/>
</a>
</g>
</g>
<!-- Node3 -->
<g id="Node000003" class="node">
<title>Node3</title>
<g id="a_Node000003"><a xlink:href="base_8hpp.html" target="_top" xlink:title=" ">
<polygon fill="#fff0f0" stroke="red" points="268.5,-74 198.5,-74 198.5,-55 268.5,-55 268.5,-74"/>
<text text-anchor="middle" x="233.5" y="-62" font-family="Helvetica,sans-Serif" font-size="10.00">../base.hpp</text>
</a>
</g>
</g>
<!-- Node2&#45;&gt;Node3 -->
<g id="edge2_Node000002_Node000003" class="edge">
<title>Node2&#45;&gt;Node3</title>
<g id="a_edge2_Node000002_Node000003"><a xlink:title=" ">
<path fill="none" stroke="#63b8ff" d="M42.09,-164.64C34.71,-151.29 23.79,-125.91 36.5,-110 55.13,-86.7 136.02,-74.71 188.18,-69.29"/>
<polygon fill="#63b8ff" stroke="#63b8ff" points="188.6,-72.77 198.21,-68.3 187.91,-65.81 188.6,-72.77"/>
</a>
</g>
</g>
<!-- Node9 -->
<g id="Node000009" class="node">
<title>Node9</title>
<g id="a_Node000009"><a xlink:title=" ">
<polygon fill="#e0e0e0" stroke="#999999" points="98,-129 45,-129 45,-110 98,-110 98,-129"/>
<text text-anchor="middle" x="71.5" y="-117" font-family="Helvetica,sans-Serif" font-size="10.00">cstddef</text>
</a>
</g>
</g>
<!-- Node2&#45;&gt;Node9 -->
<g id="edge4_Node000002_Node000009" class="edge">
<title>Node2&#45;&gt;Node9</title>
<g id="a_edge4_Node000002_Node000009"><a xlink:title=" ">
<path fill="none" stroke="#63b8ff" d="M51.46,-164.75C54.71,-157.57 59.42,-147.18 63.45,-138.27"/>
<polygon fill="#63b8ff" stroke="#63b8ff" points="66.67,-139.64 67.61,-129.09 60.3,-136.75 66.67,-139.64"/>
</a>
</g>
</g>
<!-- Node5 -->
<g id="Node000005" class="node">
<title>Node5</title>
<g id="a_Node000005"><a xlink:title=" ">
<polygon fill="#e0e0e0" stroke="#999999" points="293.5,-19 243.5,-19 243.5,0 293.5,0 293.5,-19"/>
<text text-anchor="middle" x="268.5" y="-7" font-family="Helvetica,sans-Serif" font-size="10.00">cstdint</text>
</a>
</g>
</g>
<!-- Node3&#45;&gt;Node5 -->
<g id="edge3_Node000003_Node000005" class="edge">
<title>Node3&#45;&gt;Node5</title>
<g id="a_edge3_Node000003_Node000005"><a xlink:title=" ">
<path fill="none" stroke="#63b8ff" d="M239.28,-54.75C244.12,-47.42 251.18,-36.73 257.14,-27.7"/>
<polygon fill="#63b8ff" stroke="#63b8ff" points="260.24,-29.36 262.83,-19.09 254.4,-25.5 260.24,-29.36"/>
</a>
</g>
</g>
<!-- Node11 -->
<g id="Node000011" class="node">
<title>Node11</title>
<g id="a_Node000011"><a xlink:href="hal_8hpp.html" target="_top" xlink:title=" ">
<polygon fill="#fff0f0" stroke="red" points="169,-129 116,-129 116,-110 169,-110 169,-129"/>
<text text-anchor="middle" x="142.5" y="-117" font-family="Helvetica,sans-Serif" font-size="10.00">hal.hpp</text>
</a>
</g>
</g>
<!-- Node10&#45;&gt;Node11 -->
<g id="edge6_Node000010_Node000011" class="edge">
<title>Node10&#45;&gt;Node11</title>
<g id="a_edge6_Node000010_Node000011"><a xlink:title=" ">
<path fill="none" stroke="#63b8ff" d="M161.7,-164.75C158.59,-157.57 154.08,-147.18 150.21,-138.27"/>
<polygon fill="#63b8ff" stroke="#63b8ff" points="153.42,-136.87 146.23,-129.09 147,-139.66 153.42,-136.87"/>
</a>
</g>
</g>
<!-- Node13&#45;&gt;Node3 -->
<g id="edge8_Node000013_Node000003" class="edge">
<title>Node13&#45;&gt;Node3</title>
<g id="a_edge8_Node000013_Node000003"><a xlink:title=" ">
<path fill="none" stroke="#63b8ff" d="M293.31,-169.62C266.12,-164.69 233.78,-153.63 216.5,-129 206.9,-115.32 213.85,-96.51 221.55,-82.92"/>
<polygon fill="#63b8ff" stroke="#63b8ff" points="224.74,-84.42 227.07,-74.09 218.8,-80.71 224.74,-84.42"/>
</a>
</g>
</g>
<!-- Node13&#45;&gt;Node5 -->
<g id="edge11_Node000013_Node000005" class="edge">
<title>Node13&#45;&gt;Node5</title>
<g id="a_edge11_Node000013_Node000005"><a xlink:title=" ">
<path fill="none" stroke="#63b8ff" d="M337.43,-164.69C334.39,-152.26 328.21,-128.97 320.5,-110 308.32,-80.03 290.08,-47.1 278.75,-27.65"/>
<polygon fill="#63b8ff" stroke="#63b8ff" points="281.76,-25.86 273.67,-19.02 275.73,-29.41 281.76,-25.86"/>
</a>
</g>
</g>
<!-- Node14 -->
<g id="Node000014" class="node">
<title>Node14</title>
<g id="a_Node000014"><a xlink:href="map_8hpp.html" target="_top" xlink:title=" ">
<polygon fill="#fff0f0" stroke="red" points="311.5,-129 225.5,-129 225.5,-110 311.5,-110 311.5,-129"/>
<text text-anchor="middle" x="268.5" y="-117" font-family="Helvetica,sans-Serif" font-size="10.00">../cfg/map.hpp</text>
</a>
</g>
</g>
<!-- Node13&#45;&gt;Node14 -->
<g id="edge9_Node000013_Node000014" class="edge">
<title>Node13&#45;&gt;Node14</title>
<g id="a_edge9_Node000013_Node000014"><a xlink:title=" ">
<path fill="none" stroke="#63b8ff" d="M328.09,-164.98C317.39,-157 301.16,-144.88 288.34,-135.31"/>
<polygon fill="#63b8ff" stroke="#63b8ff" points="290.22,-132.35 280.11,-129.17 286.03,-137.96 290.22,-132.35"/>
</a>
</g>
</g>
<!-- Node21 -->
<g id="Node000021" class="node">
<title>Node21</title>
<g id="a_Node000021"><a xlink:title=" ">
<polygon fill="#e0e0e0" stroke="#999999" points="487,-129 368,-129 368,-110 487,-110 487,-129"/>
<text text-anchor="middle" x="427.5" y="-117" font-family="Helvetica,sans-Serif" font-size="10.00">emlabcpp/outcome.h</text>
</a>
</g>
</g>
<!-- Node13&#45;&gt;Node21 -->
<g id="edge12_Node000013_Node000021" class="edge">
<title>Node13&#45;&gt;Node21</title>
<g id="a_edge12_Node000013_Node000021"><a xlink:title=" ">
<path fill="none" stroke="#63b8ff" d="M353.64,-164.98C367.29,-156.77 388.19,-144.18 404.28,-134.49"/>
<polygon fill="#63b8ff" stroke="#63b8ff" points="406.34,-137.33 413.1,-129.17 402.73,-131.33 406.34,-137.33"/>
</a>
</g>
</g>
<!-- Node22 -->
<g id="Node000022" class="node">
<title>Node22</title>
<g id="a_Node000022"><a xlink:title=" ">
<polygon fill="#e0e0e0" stroke="#999999" points="609.5,-129 505.5,-129 505.5,-110 609.5,-110 609.5,-129"/>
<text text-anchor="middle" x="557.5" y="-117" font-family="Helvetica,sans-Serif" font-size="10.00">emlabcpp/result.h</text>
</a>
</g>
</g>
<!-- Node13&#45;&gt;Node22 -->
<g id="edge13_Node000013_Node000022" class="edge">
<title>Node13&#45;&gt;Node22</title>
<g id="a_edge13_Node000013_Node000022"><a xlink:title=" ">
<path fill="none" stroke="#63b8ff" d="M374.53,-164.98C412,-155.87 471.55,-141.4 512.48,-131.45"/>
<polygon fill="#63b8ff" stroke="#63b8ff" points="513.31,-134.85 522.2,-129.08 511.66,-128.04 513.31,-134.85"/>
</a>
</g>
</g>
<!-- Node23 -->
<g id="Node000023" class="node">
<title>Node23</title>
<g id="a_Node000023"><a xlink:title=" ">
<polygon fill="#e0e0e0" stroke="#999999" points="667.5,-129 627.5,-129 627.5,-110 667.5,-110 667.5,-129"/>
<text text-anchor="middle" x="647.5" y="-117" font-family="Helvetica,sans-Serif" font-size="10.00">span</text>
</a>
</g>
</g>
<!-- Node13&#45;&gt;Node23 -->
<g id="edge14_Node000013_Node000023" class="edge">
<title>Node13&#45;&gt;Node23</title>
<g id="a_edge14_Node000013_Node000023"><a xlink:title=" ">
<path fill="none" stroke="#63b8ff" d="M385.75,-167.95C439.37,-161.12 530.51,-148.25 617.54,-128.97"/>
<polygon fill="#63b8ff" stroke="#63b8ff" points="618.31,-132.38 627.3,-126.78 616.78,-125.55 618.31,-132.38"/>
</a>
</g>
</g>
<!-- Node14&#45;&gt;Node3 -->
<g id="edge10_Node000014_Node000003" class="edge">
<title>Node14&#45;&gt;Node3</title>
<g id="a_edge10_Node000014_Node000003"><a xlink:title=" ">
<path fill="none" stroke="#63b8ff" d="M262.72,-109.75C257.88,-102.42 250.82,-91.73 244.86,-82.7"/>
<polygon fill="#63b8ff" stroke="#63b8ff" points="247.6,-80.5 239.17,-74.09 241.76,-84.36 247.6,-80.5"/>
</a>
</g>
</g>
</g>
</svg>
