<?xml version="1.0" encoding="UTF-8" standalone="no"?>
<!DOCTYPE svg PUBLIC "-//W3C//DTD SVG 1.1//EN"
 "http://www.w3.org/Graphics/SVG/1.1/DTD/svg11.dtd">
<!-- Generated by graphviz version 2.43.0 (0)
 -->
<!-- Title: src/drv/paged_i2c_eeprom.hpp Pages: 1 -->
<svg width="390pt" height="247pt"
 viewBox="0.00 0.00 389.50 247.00" xmlns="http://www.w3.org/2000/svg" xmlns:xlink="http://www.w3.org/1999/xlink">
<g id="graph0" class="graph" transform="scale(1 1) rotate(0) translate(4 243)">
<title>src/drv/paged_i2c_eeprom.hpp</title>
<!-- Node1 -->
<g id="Node000001" class="node">
<title>Node1</title>
<g id="a_Node000001"><a xlink:title=" ">
<polygon fill="#999999" stroke="#666666" points="205.5,-239 39.5,-239 39.5,-220 205.5,-220 205.5,-239"/>
<text text-anchor="middle" x="122.5" y="-227" font-family="Helvetica,sans-Serif" font-size="10.00">src/drv/paged_i2c_eeprom.hpp</text>
</a>
</g>
</g>
<!-- Node2 -->
<g id="Node000002" class="node">
<title>Node2</title>
<g id="a_Node000002"><a xlink:href="platform_8hpp.html" target="_top" xlink:title=" ">
<polygon fill="white" stroke="#666666" points="116.5,-184 12.5,-184 12.5,-165 116.5,-165 116.5,-184"/>
<text text-anchor="middle" x="64.5" y="-172" font-family="Helvetica,sans-Serif" font-size="10.00">../plt/platform.hpp</text>
</a>
</g>
</g>
<!-- Node1&#45;&gt;Node2 -->
<g id="edge1_Node000001_Node000002" class="edge">
<title>Node1&#45;&gt;Node2</title>
<g id="a_edge1_Node000001_Node000002"><a xlink:title=" ">
<path fill="none" stroke="#63b8ff" d="M113.18,-219.98C104.69,-212.23 91.94,-200.58 81.62,-191.14"/>
<polygon fill="#63b8ff" stroke="#63b8ff" points="83.73,-188.33 73.99,-184.17 79.01,-193.5 83.73,-188.33"/>
</a>
</g>
</g>
<!-- Node5 -->
<g id="Node000005" class="node">
<title>Node5</title>
<g id="a_Node000005"><a xlink:href="interfaces_8hpp.html" target="_top" xlink:title=" ">
<polygon fill="white" stroke="#666666" points="229.5,-184 137.5,-184 137.5,-165 229.5,-165 229.5,-184"/>
<text text-anchor="middle" x="183.5" y="-172" font-family="Helvetica,sans-Serif" font-size="10.00">./interfaces.hpp</text>
</a>
</g>
</g>
<!-- Node1&#45;&gt;Node5 -->
<g id="edge3_Node000001_Node000005" class="edge">
<title>Node1&#45;&gt;Node5</title>
<g id="a_edge3_Node000001_Node000005"><a xlink:title=" ">
<path fill="none" stroke="#63b8ff" d="M132.3,-219.98C141.32,-212.15 154.91,-200.34 165.82,-190.86"/>
<polygon fill="#63b8ff" stroke="#63b8ff" points="168.27,-193.37 173.52,-184.17 163.68,-188.09 168.27,-193.37"/>
</a>
</g>
</g>
<!-- Node3 -->
<g id="Node000003" class="node">
<title>Node3</title>
<g id="a_Node000003"><a xlink:href="hal_8hpp.html" target="_top" xlink:title=" ">
<polygon fill="#fff0f0" stroke="red" points="53,-129 0,-129 0,-110 53,-110 53,-129"/>
<text text-anchor="middle" x="26.5" y="-117" font-family="Helvetica,sans-Serif" font-size="10.00">hal.hpp</text>
</a>
</g>
</g>
<!-- Node2&#45;&gt;Node3 -->
<g id="edge2_Node000002_Node000003" class="edge">
<title>Node2&#45;&gt;Node3</title>
<g id="a_edge2_Node000002_Node000003"><a xlink:title=" ">
<path fill="none" stroke="#63b8ff" d="M58.23,-164.75C52.91,-157.34 45.14,-146.5 38.62,-137.41"/>
<polygon fill="#63b8ff" stroke="#63b8ff" points="41.33,-135.18 32.66,-129.09 35.64,-139.26 41.33,-135.18"/>
</a>
</g>
</g>
<!-- Node6 -->
<g id="Node000006" class="node">
<title>Node6</title>
<g id="a_Node000006"><a xlink:href="base_8hpp.html" target="_top" xlink:title=" ">
<polygon fill="#fff0f0" stroke="red" points="184.5,-74 114.5,-74 114.5,-55 184.5,-55 184.5,-74"/>
<text text-anchor="middle" x="149.5" y="-62" font-family="Helvetica,sans-Serif" font-size="10.00">../base.hpp</text>
</a>
</g>
</g>
<!-- Node5&#45;&gt;Node6 -->
<g id="edge4_Node000005_Node000006" class="edge">
<title>Node5&#45;&gt;Node6</title>
<g id="a_edge4_Node000005_Node000006"><a xlink:title=" ">
<path fill="none" stroke="#63b8ff" d="M150.48,-164.87C132.32,-158.26 111.33,-147.1 100.5,-129 89.78,-111.09 108.41,-92.39 125.69,-79.96"/>
<polygon fill="#63b8ff" stroke="#63b8ff" points="128.11,-82.55 134.45,-74.07 124.2,-76.75 128.11,-82.55"/>
</a>
</g>
</g>
<!-- Node8 -->
<g id="Node000008" class="node">
<title>Node8</title>
<g id="a_Node000008"><a xlink:title=" ">
<polygon fill="#e0e0e0" stroke="#999999" points="208.5,-19 158.5,-19 158.5,0 208.5,0 208.5,-19"/>
<text text-anchor="middle" x="183.5" y="-7" font-family="Helvetica,sans-Serif" font-size="10.00">cstdint</text>
</a>
</g>
</g>
<!-- Node5&#45;&gt;Node8 -->
<g id="edge9_Node000005_Node000008" class="edge">
<title>Node5&#45;&gt;Node8</title>
<g id="a_edge9_Node000005_Node000008"><a xlink:title=" ">
<path fill="none" stroke="#63b8ff" d="M187.36,-164.85C191.06,-156.04 196.39,-141.87 198.5,-129 204.29,-93.67 195.45,-52.09 189.08,-28.77"/>
<polygon fill="#63b8ff" stroke="#63b8ff" points="192.44,-27.79 186.3,-19.16 185.71,-29.73 192.44,-27.79"/>
</a>
</g>
</g>
<!-- Node12 -->
<g id="Node000012" class="node">
<title>Node12</title>
<g id="a_Node000012"><a xlink:href="cfg_2def_8hpp.html" target="_top" xlink:title=" ">
<polygon fill="#fff0f0" stroke="red" points="189.5,-129 109.5,-129 109.5,-110 189.5,-110 189.5,-129"/>
<text text-anchor="middle" x="149.5" y="-117" font-family="Helvetica,sans-Serif" font-size="10.00">../cfg/def.hpp</text>
</a>
</g>
</g>
<!-- Node5&#45;&gt;Node12 -->
<g id="edge6_Node000005_Node000012" class="edge">
<title>Node5&#45;&gt;Node12</title>
<g id="a_edge6_Node000005_Node000012"><a xlink:title=" ">
<path fill="none" stroke="#63b8ff" d="M177.89,-164.75C173.18,-157.42 166.33,-146.73 160.53,-137.7"/>
<polygon fill="#63b8ff" stroke="#63b8ff" points="163.36,-135.62 155.01,-129.09 157.46,-139.4 163.36,-135.62"/>
</a>
</g>
</g>
<!-- Node15 -->
<g id="Node000015" class="node">
<title>Node15</title>
<g id="a_Node000015"><a xlink:href="status_8hpp.html" target="_top" xlink:title=" ">
<polygon fill="#fff0f0" stroke="red" points="323,-129 246,-129 246,-110 323,-110 323,-129"/>
<text text-anchor="middle" x="284.5" y="-117" font-family="Helvetica,sans-Serif" font-size="10.00">../status.hpp</text>
</a>
</g>
</g>
<!-- Node5&#45;&gt;Node15 -->
<g id="edge8_Node000005_Node000015" class="edge">
<title>Node5&#45;&gt;Node15</title>
<g id="a_edge8_Node000005_Node000015"><a xlink:title=" ">
<path fill="none" stroke="#63b8ff" d="M199.73,-164.98C215.68,-156.61 240.28,-143.7 258.88,-133.95"/>
<polygon fill="#63b8ff" stroke="#63b8ff" points="260.75,-136.92 267.98,-129.17 257.5,-130.72 260.75,-136.92"/>
</a>
</g>
</g>
<!-- Node18 -->
<g id="Node000018" class="node">
<title>Node18</title>
<g id="a_Node000018"><a xlink:title=" ">
<polygon fill="#e0e0e0" stroke="#999999" points="381.5,-129 341.5,-129 341.5,-110 381.5,-110 381.5,-129"/>
<text text-anchor="middle" x="361.5" y="-117" font-family="Helvetica,sans-Serif" font-size="10.00">span</text>
</a>
</g>
</g>
<!-- Node5&#45;&gt;Node18 -->
<g id="edge10_Node000005_Node000018" class="edge">
<title>Node5&#45;&gt;Node18</title>
<g id="a_edge10_Node000005_Node000018"><a xlink:title=" ">
<path fill="none" stroke="#63b8ff" d="M212.1,-164.98C244.87,-155.23 298.34,-139.31 331.64,-129.39"/>
<polygon fill="#63b8ff" stroke="#63b8ff" points="332.69,-132.73 341.28,-126.52 330.69,-126.02 332.69,-132.73"/>
</a>
</g>
</g>
<!-- Node6&#45;&gt;Node8 -->
<g id="edge5_Node000006_Node000008" class="edge">
<title>Node6&#45;&gt;Node8</title>
<g id="a_edge5_Node000006_Node000008"><a xlink:title=" ">
<path fill="none" stroke="#63b8ff" d="M155.11,-54.75C159.82,-47.42 166.67,-36.73 172.47,-27.7"/>
<polygon fill="#63b8ff" stroke="#63b8ff" points="175.54,-29.4 177.99,-19.09 169.64,-25.62 175.54,-29.4"/>
</a>
</g>
</g>
<!-- Node12&#45;&gt;Node6 -->
<g id="edge7_Node000012_Node000006" class="edge">
<title>Node12&#45;&gt;Node6</title>
<g id="a_edge7_Node000012_Node000006"><a xlink:title=" ">
<path fill="none" stroke="#63b8ff" d="M149.5,-109.75C149.5,-102.8 149.5,-92.85 149.5,-84.13"/>
<polygon fill="#63b8ff" stroke="#63b8ff" points="153,-84.09 149.5,-74.09 146,-84.09 153,-84.09"/>
</a>
</g>
</g>
</g>
</svg>
