<?xml version="1.0" encoding="UTF-8" standalone="no"?>
<!DOCTYPE svg PUBLIC "-//W3C//DTD SVG 1.1//EN"
 "http://www.w3.org/Graphics/SVG/1.1/DTD/svg11.dtd">
<!-- Generated by graphviz version 2.43.0 (0)
 -->
<!-- Title: src/iface/tests/parse_utest.cpp Pages: 1 -->
<svg width="626pt" height="324pt"
 viewBox="0.00 0.00 625.91 324.00" xmlns="http://www.w3.org/2000/svg" xmlns:xlink="http://www.w3.org/1999/xlink">
<g id="graph0" class="graph" transform="scale(1 1) rotate(0) translate(4 320)">
<title>src/iface/tests/parse_utest.cpp</title>
<!-- Node1 -->
<g id="Node000001" class="node">
<title>Node1</title>
<g id="a_Node000001"><a xlink:title=" ">
<polygon fill="#999999" stroke="#666666" points="426.41,-316 311.41,-316 311.41,-286 426.41,-286 426.41,-316"/>
<text text-anchor="start" x="319.41" y="-304" font-family="Helvetica,sans-Serif" font-size="10.00">src/iface/tests/parse</text>
<text text-anchor="middle" x="368.91" y="-293" font-family="Helvetica,sans-Serif" font-size="10.00">_utest.cpp</text>
</a>
</g>
</g>
<!-- Node2 -->
<g id="Node000002" class="node">
<title>Node2</title>
<g id="a_Node000002"><a xlink:href="parser_8hpp.html" target="_top" xlink:title=" ">
<polygon fill="white" stroke="#666666" points="360.41,-140 259.41,-140 259.41,-121 360.41,-121 360.41,-140"/>
<text text-anchor="middle" x="309.91" y="-128" font-family="Helvetica,sans-Serif" font-size="10.00">../../lib/parser.hpp</text>
</a>
</g>
</g>
<!-- Node1&#45;&gt;Node2 -->
<g id="edge1_Node000001_Node000002" class="edge">
<title>Node1&#45;&gt;Node2</title>
<g id="a_edge1_Node000001_Node000002"><a xlink:title=" ">
<path fill="none" stroke="#63b8ff" d="M354.03,-285.62C345.3,-276.29 334.85,-263.42 328.91,-250 314.34,-217.09 310.78,-174.64 310.01,-150.51"/>
<polygon fill="#63b8ff" stroke="#63b8ff" points="313.5,-150.19 309.81,-140.26 306.5,-150.32 313.5,-150.19"/>
</a>
</g>
</g>
<!-- Node10 -->
<g id="Node000010" class="node">
<title>Node10</title>
<g id="a_Node000010"><a xlink:title=" ">
<polygon fill="#e0e0e0" stroke="#999999" points="111.41,-79.5 38.41,-79.5 38.41,-60.5 111.41,-60.5 111.41,-79.5"/>
<text text-anchor="middle" x="74.91" y="-67.5" font-family="Helvetica,sans-Serif" font-size="10.00">string_view</text>
</a>
</g>
</g>
<!-- Node1&#45;&gt;Node10 -->
<g id="edge20_Node000001_Node000010" class="edge">
<title>Node1&#45;&gt;Node10</title>
<g id="a_edge20_Node000001_Node000010"><a xlink:title=" ">
<path fill="none" stroke="#63b8ff" d="M311.19,-293.58C227.6,-280.82 75.48,-243.86 7.91,-140 -6.38,-118.03 22.03,-97.07 46.16,-84.13"/>
<polygon fill="#63b8ff" stroke="#63b8ff" points="47.78,-87.24 55.1,-79.58 44.6,-81 47.78,-87.24"/>
</a>
</g>
</g>
<!-- Node12 -->
<g id="Node000012" class="node">
<title>Node12</title>
<g id="a_Node000012"><a xlink:href="iface_2base_8hpp.html" target="_top" xlink:title=" ">
<polygon fill="white" stroke="#666666" points="245.91,-195 175.91,-195 175.91,-176 245.91,-176 245.91,-195"/>
<text text-anchor="middle" x="210.91" y="-183" font-family="Helvetica,sans-Serif" font-size="10.00">../base.hpp</text>
</a>
</g>
</g>
<!-- Node1&#45;&gt;Node12 -->
<g id="edge7_Node000001_Node000012" class="edge">
<title>Node1&#45;&gt;Node12</title>
<g id="a_edge7_Node000001_Node000012"><a xlink:title=" ">
<path fill="none" stroke="#63b8ff" d="M347.66,-285.79C333.01,-275.9 313.15,-262.34 295.91,-250 273.07,-233.66 247.3,-214.27 230.18,-201.25"/>
<polygon fill="#63b8ff" stroke="#63b8ff" points="232.15,-198.35 222.07,-195.07 227.9,-203.92 232.15,-198.35"/>
</a>
</g>
</g>
<!-- Node16 -->
<g id="Node000016" class="node">
<title>Node16</title>
<g id="a_Node000016"><a xlink:href="iface_2def_8hpp.html" target="_top" xlink:title=" ">
<polygon fill="white" stroke="#666666" points="399.91,-250 337.91,-250 337.91,-231 399.91,-231 399.91,-250"/>
<text text-anchor="middle" x="368.91" y="-238" font-family="Helvetica,sans-Serif" font-size="10.00">../def.hpp</text>
</a>
</g>
</g>
<!-- Node1&#45;&gt;Node16 -->
<g id="edge13_Node000001_Node000016" class="edge">
<title>Node1&#45;&gt;Node16</title>
<g id="a_edge13_Node000001_Node000016"><a xlink:title=" ">
<path fill="none" stroke="#63b8ff" d="M368.91,-285.84C368.91,-278.21 368.91,-268.7 368.91,-260.45"/>
<polygon fill="#63b8ff" stroke="#63b8ff" points="372.41,-260.27 368.91,-250.27 365.41,-260.27 372.41,-260.27"/>
</a>
</g>
</g>
<!-- Node17 -->
<g id="Node000017" class="node">
<title>Node17</title>
<g id="a_Node000017"><a xlink:title=" ">
<polygon fill="#e0e0e0" stroke="#999999" points="522.91,-195 454.91,-195 454.91,-176 522.91,-176 522.91,-195"/>
<text text-anchor="middle" x="488.91" y="-183" font-family="Helvetica,sans-Serif" font-size="10.00">vari/vval.h</text>
</a>
</g>
</g>
<!-- Node1&#45;&gt;Node17 -->
<g id="edge22_Node000001_Node000017" class="edge">
<title>Node1&#45;&gt;Node17</title>
<g id="a_edge22_Node000001_Node000017"><a xlink:title=" ">
<path fill="none" stroke="#63b8ff" d="M384.11,-285.63C406.67,-264.28 448.88,-224.36 472.26,-202.25"/>
<polygon fill="#63b8ff" stroke="#63b8ff" points="474.82,-204.64 479.68,-195.23 470.01,-199.56 474.82,-204.64"/>
</a>
</g>
</g>
<!-- Node18 -->
<g id="Node000018" class="node">
<title>Node18</title>
<g id="a_Node000018"><a xlink:title=" ">
<polygon fill="#e0e0e0" stroke="#999999" points="533.91,-250 455.91,-250 455.91,-231 533.91,-231 533.91,-250"/>
<text text-anchor="middle" x="494.91" y="-238" font-family="Helvetica,sans-Serif" font-size="10.00">gtest/gtest.h</text>
</a>
</g>
</g>
<!-- Node1&#45;&gt;Node18 -->
<g id="edge19_Node000001_Node000018" class="edge">
<title>Node1&#45;&gt;Node18</title>
<g id="a_edge19_Node000001_Node000018"><a xlink:title=" ">
<path fill="none" stroke="#63b8ff" d="M399.09,-285.99C419.73,-276.4 446.91,-263.79 467.04,-254.44"/>
<polygon fill="#63b8ff" stroke="#63b8ff" points="468.7,-257.52 476.3,-250.14 465.76,-251.18 468.7,-257.52"/>
</a>
</g>
</g>
<!-- Node19 -->
<g id="Node000019" class="node">
<title>Node19</title>
<g id="a_Node000019"><a xlink:title=" ">
<polygon fill="#e0e0e0" stroke="#999999" points="617.91,-250 551.91,-250 551.91,-231 617.91,-231 617.91,-250"/>
<text text-anchor="middle" x="584.91" y="-238" font-family="Helvetica,sans-Serif" font-size="10.00">vari/vref.h</text>
</a>
</g>
</g>
<!-- Node1&#45;&gt;Node19 -->
<g id="edge21_Node000001_Node000019" class="edge">
<title>Node1&#45;&gt;Node19</title>
<g id="a_edge21_Node000001_Node000019"><a xlink:title=" ">
<path fill="none" stroke="#63b8ff" d="M420.64,-285.99C458.24,-275.8 508.47,-262.2 543.44,-252.73"/>
<polygon fill="#63b8ff" stroke="#63b8ff" points="544.59,-256.05 553.32,-250.05 542.76,-249.29 544.59,-256.05"/>
</a>
</g>
</g>
<!-- Node3 -->
<g id="Node000003" class="node">
<title>Node3</title>
<g id="a_Node000003"><a xlink:href="str__lib_8hpp.html" target="_top" xlink:title=" ">
<polygon fill="#fff0f0" stroke="red" points="224.91,-79.5 150.91,-79.5 150.91,-60.5 224.91,-60.5 224.91,-79.5"/>
<text text-anchor="middle" x="187.91" y="-67.5" font-family="Helvetica,sans-Serif" font-size="10.00">./str_lib.hpp</text>
</a>
</g>
</g>
<!-- Node2&#45;&gt;Node3 -->
<g id="edge2_Node000002_Node000003" class="edge">
<title>Node2&#45;&gt;Node3</title>
<g id="a_edge2_Node000002_Node000003"><a xlink:title=" ">
<path fill="none" stroke="#63b8ff" d="M292.17,-120.99C271.84,-111.25 238.3,-95.16 214.77,-83.88"/>
<polygon fill="#63b8ff" stroke="#63b8ff" points="216.2,-80.68 205.67,-79.52 213.17,-87 216.2,-80.68"/>
</a>
</g>
</g>
<!-- Node9 -->
<g id="Node000009" class="node">
<title>Node9</title>
<g id="a_Node000009"><a xlink:title=" ">
<polygon fill="#e0e0e0" stroke="#999999" points="376.41,-85 243.41,-85 243.41,-55 376.41,-55 376.41,-85"/>
<text text-anchor="start" x="251.41" y="-73" font-family="Helvetica,sans-Serif" font-size="10.00">emlabcpp/experimental</text>
<text text-anchor="middle" x="309.91" y="-62" font-family="Helvetica,sans-Serif" font-size="10.00">/string_buffer.hpp</text>
</a>
</g>
</g>
<!-- Node2&#45;&gt;Node9 -->
<g id="edge4_Node000002_Node000009" class="edge">
<title>Node2&#45;&gt;Node9</title>
<g id="a_edge4_Node000002_Node000009"><a xlink:title=" ">
<path fill="none" stroke="#63b8ff" d="M309.91,-120.87C309.91,-114.11 309.91,-104.35 309.91,-95.26"/>
<polygon fill="#63b8ff" stroke="#63b8ff" points="313.41,-95.11 309.91,-85.11 306.41,-95.11 313.41,-95.11"/>
</a>
</g>
</g>
<!-- Node2&#45;&gt;Node10 -->
<g id="edge5_Node000002_Node000010" class="edge">
<title>Node2&#45;&gt;Node10</title>
<g id="a_edge5_Node000002_Node000010"><a xlink:title=" ">
<path fill="none" stroke="#63b8ff" d="M275.74,-120.99C234.31,-110.68 164.43,-93.28 118.99,-81.97"/>
<polygon fill="#63b8ff" stroke="#63b8ff" points="119.67,-78.54 109.12,-79.52 117.98,-85.33 119.67,-78.54"/>
</a>
</g>
</g>
<!-- Node11 -->
<g id="Node000011" class="node">
<title>Node11</title>
<g id="a_Node000011"><a xlink:title=" ">
<polygon fill="#e0e0e0" stroke="#999999" points="463.41,-79.5 394.41,-79.5 394.41,-60.5 463.41,-60.5 463.41,-79.5"/>
<text text-anchor="middle" x="428.91" y="-67.5" font-family="Helvetica,sans-Serif" font-size="10.00">vari/vopt.h</text>
</a>
</g>
</g>
<!-- Node2&#45;&gt;Node11 -->
<g id="edge6_Node000002_Node000011" class="edge">
<title>Node2&#45;&gt;Node11</title>
<g id="a_edge6_Node000002_Node000011"><a xlink:title=" ">
<path fill="none" stroke="#63b8ff" d="M327.21,-120.99C346.95,-111.29 379.46,-95.31 402.4,-84.03"/>
<polygon fill="#63b8ff" stroke="#63b8ff" points="404.15,-87.07 411.58,-79.52 401.06,-80.79 404.15,-87.07"/>
</a>
</g>
</g>
<!-- Node6 -->
<g id="Node000006" class="node">
<title>Node6</title>
<g id="a_Node000006"><a xlink:title=" ">
<polygon fill="#e0e0e0" stroke="#999999" points="112.91,-19 62.91,-19 62.91,0 112.91,0 112.91,-19"/>
<text text-anchor="middle" x="87.91" y="-7" font-family="Helvetica,sans-Serif" font-size="10.00">cstdint</text>
</a>
</g>
</g>
<!-- Node3&#45;&gt;Node6 -->
<g id="edge3_Node000003_Node000006" class="edge">
<title>Node3&#45;&gt;Node6</title>
<g id="a_edge3_Node000003_Node000006"><a xlink:title=" ">
<path fill="none" stroke="#63b8ff" d="M173.15,-60.37C156.9,-50.86 130.55,-35.45 111.45,-24.27"/>
<polygon fill="#63b8ff" stroke="#63b8ff" points="113.12,-21.2 102.72,-19.17 109.59,-27.24 113.12,-21.2"/>
</a>
</g>
</g>
<!-- Node12&#45;&gt;Node2 -->
<g id="edge11_Node000012_Node000002" class="edge">
<title>Node12&#45;&gt;Node2</title>
<g id="a_edge11_Node000012_Node000002"><a xlink:title=" ">
<path fill="none" stroke="#63b8ff" d="M226.81,-175.98C242.45,-167.61 266.56,-154.7 284.79,-144.95"/>
<polygon fill="#63b8ff" stroke="#63b8ff" points="286.55,-147.98 293.71,-140.17 283.24,-141.8 286.55,-147.98"/>
</a>
</g>
</g>
<!-- Node12&#45;&gt;Node6 -->
<g id="edge8_Node000012_Node000006" class="edge">
<title>Node12&#45;&gt;Node6</title>
<g id="a_edge8_Node000012_Node000006"><a xlink:title=" ">
<path fill="none" stroke="#63b8ff" d="M175.85,-181.98C123.44,-177.41 28.6,-165.72 7.91,-140 -7.76,-120.52 2.34,-92.5 28.91,-55 37.71,-42.57 51.04,-32.1 62.8,-24.44"/>
<polygon fill="#63b8ff" stroke="#63b8ff" points="64.72,-27.37 71.39,-19.15 61.04,-21.41 64.72,-27.37"/>
</a>
</g>
</g>
<!-- Node13 -->
<g id="Node000013" class="node">
<title>Node13</title>
<g id="a_Node000013"><a xlink:href="json__ser_8hpp.html" target="_top" xlink:title=" ">
<polygon fill="#fff0f0" stroke="red" points="241.41,-140 140.41,-140 140.41,-121 241.41,-121 241.41,-140"/>
<text text-anchor="middle" x="190.91" y="-128" font-family="Helvetica,sans-Serif" font-size="10.00">../lib/json_ser.hpp</text>
</a>
</g>
</g>
<!-- Node12&#45;&gt;Node13 -->
<g id="edge9_Node000012_Node000013" class="edge">
<title>Node12&#45;&gt;Node13</title>
<g id="a_edge9_Node000012_Node000013"><a xlink:title=" ">
<path fill="none" stroke="#63b8ff" d="M207.6,-175.75C204.93,-168.65 201.06,-158.4 197.72,-149.56"/>
<polygon fill="#63b8ff" stroke="#63b8ff" points="200.95,-148.21 194.15,-140.09 194.4,-150.68 200.95,-148.21"/>
</a>
</g>
</g>
<!-- Node15 -->
<g id="Node000015" class="node">
<title>Node15</title>
<g id="a_Node000015"><a xlink:title=" ">
<polygon fill="#e0e0e0" stroke="#999999" points="122.41,-140 17.41,-140 17.41,-121 122.41,-121 122.41,-140"/>
<text text-anchor="middle" x="69.91" y="-128" font-family="Helvetica,sans-Serif" font-size="10.00">vari/bits/typelist.h</text>
</a>
</g>
</g>
<!-- Node12&#45;&gt;Node15 -->
<g id="edge12_Node000012_Node000015" class="edge">
<title>Node12&#45;&gt;Node15</title>
<g id="a_edge12_Node000012_Node000015"><a xlink:title=" ">
<path fill="none" stroke="#63b8ff" d="M188.25,-175.98C165.06,-167.27 128.79,-153.63 102.51,-143.75"/>
<polygon fill="#63b8ff" stroke="#63b8ff" points="103.57,-140.41 92.97,-140.17 101.1,-146.97 103.57,-140.41"/>
</a>
</g>
</g>
<!-- Node13&#45;&gt;Node3 -->
<g id="edge10_Node000013_Node000003" class="edge">
<title>Node13&#45;&gt;Node3</title>
<g id="a_edge10_Node000013_Node000003"><a xlink:title=" ">
<path fill="none" stroke="#63b8ff" d="M190.46,-120.87C190.05,-112.75 189.41,-100.31 188.88,-89.89"/>
<polygon fill="#63b8ff" stroke="#63b8ff" points="192.36,-89.47 188.35,-79.67 185.37,-89.83 192.36,-89.47"/>
</a>
</g>
</g>
<!-- Node16&#45;&gt;Node2 -->
<g id="edge14_Node000016_Node000002" class="edge">
<title>Node16&#45;&gt;Node2</title>
<g id="a_edge14_Node000016_Node000002"><a xlink:title=" ">
<path fill="none" stroke="#63b8ff" d="M364.08,-230.66C354.35,-212.85 332.23,-172.37 319.47,-149.01"/>
<polygon fill="#63b8ff" stroke="#63b8ff" points="322.5,-147.26 314.64,-140.16 316.36,-150.61 322.5,-147.26"/>
</a>
</g>
</g>
<!-- Node16&#45;&gt;Node9 -->
<g id="edge16_Node000016_Node000009" class="edge">
<title>Node16&#45;&gt;Node9</title>
<g id="a_edge16_Node000016_Node000009"><a xlink:title=" ">
<path fill="none" stroke="#63b8ff" d="M371.38,-230.93C376.72,-210.66 387.53,-158.64 369.91,-121 364.28,-108.99 354.19,-98.85 343.87,-90.91"/>
<polygon fill="#63b8ff" stroke="#63b8ff" points="345.8,-87.99 335.63,-85.03 341.73,-93.69 345.8,-87.99"/>
</a>
</g>
</g>
<!-- Node16&#45;&gt;Node11 -->
<g id="edge17_Node000016_Node000011" class="edge">
<title>Node16&#45;&gt;Node11</title>
<g id="a_edge17_Node000016_Node000011"><a xlink:title=" ">
<path fill="none" stroke="#63b8ff" d="M373.99,-230.86C379.02,-222.06 386.7,-207.9 391.91,-195 406.63,-158.51 418.53,-113.9 424.58,-89.36"/>
<polygon fill="#63b8ff" stroke="#63b8ff" points="427.99,-90.15 426.93,-79.61 421.18,-88.51 427.99,-90.15"/>
</a>
</g>
</g>
<!-- Node16&#45;&gt;Node12 -->
<g id="edge15_Node000016_Node000012" class="edge">
<title>Node16&#45;&gt;Node12</title>
<g id="a_edge15_Node000016_Node000012"><a xlink:title=" ">
<path fill="none" stroke="#63b8ff" d="M343.52,-230.98C317.11,-222.13 275.56,-208.19 246.01,-198.28"/>
<polygon fill="#63b8ff" stroke="#63b8ff" points="247.09,-194.94 236.49,-195.08 244.86,-201.58 247.09,-194.94"/>
</a>
</g>
</g>
<!-- Node16&#45;&gt;Node17 -->
<g id="edge18_Node000016_Node000017" class="edge">
<title>Node16&#45;&gt;Node17</title>
<g id="a_edge18_Node000016_Node000017"><a xlink:title=" ">
<path fill="none" stroke="#63b8ff" d="M388.19,-230.98C407.58,-222.42 437.71,-209.11 459.97,-199.28"/>
<polygon fill="#63b8ff" stroke="#63b8ff" points="461.54,-202.41 469.28,-195.17 458.72,-196.01 461.54,-202.41"/>
</a>
</g>
</g>
</g>
</svg>
