<?xml version="1.0" encoding="UTF-8" standalone="no"?>
<!DOCTYPE svg PUBLIC "-//W3C//DTD SVG 1.1//EN"
 "http://www.w3.org/Graphics/SVG/1.1/DTD/svg11.dtd">
<!-- Generated by graphviz version 2.43.0 (0)
 -->
<!-- Title: src/iface/tests/parse_utest.cpp Pages: 1 -->
<svg width="470pt" height="159pt"
 viewBox="0.00 0.00 469.50 159.00" xmlns="http://www.w3.org/2000/svg" xmlns:xlink="http://www.w3.org/1999/xlink">
<g id="graph0" class="graph" transform="scale(1 1) rotate(0) translate(4 155)">
<title>src/iface/tests/parse_utest.cpp</title>
<!-- Node1 -->
<g id="Node000001" class="node">
<title>Node1</title>
<g id="a_Node000001"><a xlink:title=" ">
<polygon fill="#999999" stroke="#666666" points="361,-151 246,-151 246,-121 361,-121 361,-151"/>
<text text-anchor="start" x="254" y="-139" font-family="Helvetica,sans-Serif" font-size="10.00">src/iface/tests/parse</text>
<text text-anchor="middle" x="303.5" y="-128" font-family="Helvetica,sans-Serif" font-size="10.00">_utest.cpp</text>
</a>
</g>
</g>
<!-- Node2 -->
<g id="Node000002" class="node">
<title>Node2</title>
<g id="a_Node000002"><a xlink:href="def_8h.html" target="_top" xlink:title=" ">
<polygon fill="white" stroke="#666666" points="223.5,-85 173.5,-85 173.5,-66 223.5,-66 223.5,-85"/>
<text text-anchor="middle" x="198.5" y="-73" font-family="Helvetica,sans-Serif" font-size="10.00">../def.h</text>
</a>
</g>
</g>
<!-- Node1&#45;&gt;Node2 -->
<g id="edge1_Node000001_Node000002" class="edge">
<title>Node1&#45;&gt;Node2</title>
<g id="a_edge1_Node000001_Node000002"><a xlink:title=" ">
<path fill="none" stroke="#63b8ff" d="M278.35,-120.99C261.61,-111.66 239.73,-99.47 223.11,-90.21"/>
<polygon fill="#63b8ff" stroke="#63b8ff" points="224.45,-86.95 214.01,-85.14 221.04,-93.06 224.45,-86.95"/>
</a>
</g>
</g>
<!-- Node10 -->
<g id="Node000010" class="node">
<title>Node10</title>
<g id="a_Node000010"><a xlink:title=" ">
<polygon fill="#e0e0e0" stroke="#999999" points="365.5,-85 241.5,-85 241.5,-66 365.5,-66 365.5,-85"/>
<text text-anchor="middle" x="303.5" y="-73" font-family="Helvetica,sans-Serif" font-size="10.00">emlabcpp/algorithm.h</text>
</a>
</g>
</g>
<!-- Node1&#45;&gt;Node10 -->
<g id="edge6_Node000001_Node000010" class="edge">
<title>Node1&#45;&gt;Node10</title>
<g id="a_edge6_Node000001_Node000010"><a xlink:title=" ">
<path fill="none" stroke="#63b8ff" d="M303.5,-120.84C303.5,-113.21 303.5,-103.7 303.5,-95.45"/>
<polygon fill="#63b8ff" stroke="#63b8ff" points="307,-95.27 303.5,-85.27 300,-95.27 307,-95.27"/>
</a>
</g>
</g>
<!-- Node11 -->
<g id="Node000011" class="node">
<title>Node11</title>
<g id="a_Node000011"><a xlink:title=" ">
<polygon fill="#e0e0e0" stroke="#999999" points="461.5,-85 383.5,-85 383.5,-66 461.5,-66 461.5,-85"/>
<text text-anchor="middle" x="422.5" y="-73" font-family="Helvetica,sans-Serif" font-size="10.00">gtest/gtest.h</text>
</a>
</g>
</g>
<!-- Node1&#45;&gt;Node11 -->
<g id="edge7_Node000001_Node000011" class="edge">
<title>Node1&#45;&gt;Node11</title>
<g id="a_edge7_Node000001_Node000011"><a xlink:title=" ">
<path fill="none" stroke="#63b8ff" d="M332,-120.99C351.41,-111.45 376.93,-98.9 395.92,-89.57"/>
<polygon fill="#63b8ff" stroke="#63b8ff" points="397.5,-92.69 404.93,-85.14 394.41,-86.41 397.5,-92.69"/>
</a>
</g>
</g>
<!-- Node3 -->
<g id="Node000003" class="node">
<title>Node3</title>
<g id="a_Node000003"><a xlink:href="base_8h.html" target="_top" xlink:title=" ">
<polygon fill="#fff0f0" stroke="red" points="55,-24.5 0,-24.5 0,-5.5 55,-5.5 55,-24.5"/>
<text text-anchor="middle" x="27.5" y="-12.5" font-family="Helvetica,sans-Serif" font-size="10.00">./base.h</text>
</a>
</g>
</g>
<!-- Node2&#45;&gt;Node3 -->
<g id="edge2_Node000002_Node000003" class="edge">
<title>Node2&#45;&gt;Node3</title>
<g id="a_edge2_Node000002_Node000003"><a xlink:title=" ">
<path fill="none" stroke="#63b8ff" d="M173.48,-66.69C146.28,-58.09 101.59,-43.67 63.5,-30 61.89,-29.42 60.25,-28.82 58.6,-28.21"/>
<polygon fill="#63b8ff" stroke="#63b8ff" points="59.72,-24.89 49.13,-24.62 57.24,-31.44 59.72,-24.89"/>
</a>
</g>
</g>
<!-- Node7 -->
<g id="Node000007" class="node">
<title>Node7</title>
<g id="a_Node000007"><a xlink:title=" ">
<polygon fill="#e0e0e0" stroke="#999999" points="206,-30 73,-30 73,0 206,0 206,-30"/>
<text text-anchor="start" x="81" y="-18" font-family="Helvetica,sans-Serif" font-size="10.00">emlabcpp/experimental</text>
<text text-anchor="middle" x="139.5" y="-7" font-family="Helvetica,sans-Serif" font-size="10.00">/string_buffer.h</text>
</a>
</g>
</g>
<!-- Node2&#45;&gt;Node7 -->
<g id="edge3_Node000002_Node000007" class="edge">
<title>Node2&#45;&gt;Node7</title>
<g id="a_edge3_Node000002_Node000007"><a xlink:title=" ">
<path fill="none" stroke="#63b8ff" d="M189.79,-65.87C182.23,-58.37 170.96,-47.2 161.01,-37.33"/>
<polygon fill="#63b8ff" stroke="#63b8ff" points="163.3,-34.67 153.74,-30.11 158.37,-39.64 163.3,-34.67"/>
</a>
</g>
</g>
<!-- Node8 -->
<g id="Node000008" class="node">
<title>Node8</title>
<g id="a_Node000008"><a xlink:title=" ">
<polygon fill="#e0e0e0" stroke="#999999" points="293,-24.5 224,-24.5 224,-5.5 293,-5.5 293,-24.5"/>
<text text-anchor="middle" x="258.5" y="-12.5" font-family="Helvetica,sans-Serif" font-size="10.00">vari/vopt.h</text>
</a>
</g>
</g>
<!-- Node2&#45;&gt;Node8 -->
<g id="edge4_Node000002_Node000008" class="edge">
<title>Node2&#45;&gt;Node8</title>
<g id="a_edge4_Node000002_Node000008"><a xlink:title=" ">
<path fill="none" stroke="#63b8ff" d="M207.35,-65.87C216.48,-56.97 230.92,-42.89 242.14,-31.95"/>
<polygon fill="#63b8ff" stroke="#63b8ff" points="244.89,-34.15 249.61,-24.67 240.01,-29.14 244.89,-34.15"/>
</a>
</g>
</g>
<!-- Node9 -->
<g id="Node000009" class="node">
<title>Node9</title>
<g id="a_Node000009"><a xlink:title=" ">
<polygon fill="#e0e0e0" stroke="#999999" points="379.5,-24.5 311.5,-24.5 311.5,-5.5 379.5,-5.5 379.5,-24.5"/>
<text text-anchor="middle" x="345.5" y="-12.5" font-family="Helvetica,sans-Serif" font-size="10.00">vari/vval.h</text>
</a>
</g>
</g>
<!-- Node2&#45;&gt;Node9 -->
<g id="edge5_Node000002_Node000009" class="edge">
<title>Node2&#45;&gt;Node9</title>
<g id="a_edge5_Node000002_Node000009"><a xlink:title=" ">
<path fill="none" stroke="#63b8ff" d="M219.88,-65.99C244.81,-56.07 286.22,-39.59 314.64,-28.28"/>
<polygon fill="#63b8ff" stroke="#63b8ff" points="316.1,-31.47 324.1,-24.52 313.51,-24.96 316.1,-31.47"/>
</a>
</g>
</g>
</g>
</svg>
