<?xml version="1.0" encoding="UTF-8" standalone="no"?>
<!DOCTYPE svg PUBLIC "-//W3C//DTD SVG 1.1//EN"
 "http://www.w3.org/Graphics/SVG/1.1/DTD/svg11.dtd">
<!-- Generated by graphviz version 2.43.0 (0)
 -->
<!-- Title: src/lib/tests/parser_utest.cpp Pages: 1 -->
<svg width="470pt" height="159pt"
 viewBox="0.00 0.00 470.00 159.00" xmlns="http://www.w3.org/2000/svg" xmlns:xlink="http://www.w3.org/1999/xlink">
<g id="graph0" class="graph" transform="scale(1 1) rotate(0) translate(4 155)">
<title>src/lib/tests/parser_utest.cpp</title>
<!-- Node1 -->
<g id="Node000001" class="node">
<title>Node1</title>
<g id="a_Node000001"><a xlink:title=" ">
<polygon fill="#999999" stroke="#666666" points="409.5,-151 302.5,-151 302.5,-121 409.5,-121 409.5,-151"/>
<text text-anchor="start" x="310.5" y="-139" font-family="Helvetica,sans-Serif" font-size="10.00">src/lib/tests/parser</text>
<text text-anchor="middle" x="356" y="-128" font-family="Helvetica,sans-Serif" font-size="10.00">_utest.cpp</text>
</a>
</g>
</g>
<!-- Node2 -->
<g id="Node000002" class="node">
<title>Node2</title>
<g id="a_Node000002"><a xlink:href="parser_8hpp.html" target="_top" xlink:title=" ">
<polygon fill="white" stroke="#666666" points="316.5,-85 239.5,-85 239.5,-66 316.5,-66 316.5,-85"/>
<text text-anchor="middle" x="278" y="-73" font-family="Helvetica,sans-Serif" font-size="10.00">../parser.hpp</text>
</a>
</g>
</g>
<!-- Node1&#45;&gt;Node2 -->
<g id="edge1_Node000001_Node000002" class="edge">
<title>Node1&#45;&gt;Node2</title>
<g id="a_edge1_Node000001_Node000002"><a xlink:title=" ">
<path fill="none" stroke="#63b8ff" d="M337.12,-120.84C325.22,-111.91 309.88,-100.41 297.8,-91.35"/>
<polygon fill="#63b8ff" stroke="#63b8ff" points="299.79,-88.47 289.69,-85.27 295.59,-94.07 299.79,-88.47"/>
</a>
</g>
</g>
<!-- Node10 -->
<g id="Node000010" class="node">
<title>Node10</title>
<g id="a_Node000010"><a xlink:title=" ">
<polygon fill="#e0e0e0" stroke="#999999" points="403.5,-24.5 330.5,-24.5 330.5,-5.5 403.5,-5.5 403.5,-24.5"/>
<text text-anchor="middle" x="367" y="-12.5" font-family="Helvetica,sans-Serif" font-size="10.00">string_view</text>
</a>
</g>
</g>
<!-- Node1&#45;&gt;Node10 -->
<g id="edge7_Node000001_Node000010" class="edge">
<title>Node1&#45;&gt;Node10</title>
<g id="a_edge7_Node000001_Node000010"><a xlink:title=" ">
<path fill="none" stroke="#63b8ff" d="M357.31,-120.88C359.28,-99.51 363.04,-58.89 365.25,-34.96"/>
<polygon fill="#63b8ff" stroke="#63b8ff" points="368.76,-34.99 366.19,-24.71 361.79,-34.35 368.76,-34.99"/>
</a>
</g>
</g>
<!-- Node12 -->
<g id="Node000012" class="node">
<title>Node12</title>
<g id="a_Node000012"><a xlink:title=" ">
<polygon fill="#e0e0e0" stroke="#999999" points="462,-85 384,-85 384,-66 462,-66 462,-85"/>
<text text-anchor="middle" x="423" y="-73" font-family="Helvetica,sans-Serif" font-size="10.00">gtest/gtest.h</text>
</a>
</g>
</g>
<!-- Node1&#45;&gt;Node12 -->
<g id="edge6_Node000001_Node000012" class="edge">
<title>Node1&#45;&gt;Node12</title>
<g id="a_edge6_Node000001_Node000012"><a xlink:title=" ">
<path fill="none" stroke="#63b8ff" d="M372.22,-120.84C382.24,-112.09 395.11,-100.85 405.38,-91.88"/>
<polygon fill="#63b8ff" stroke="#63b8ff" points="407.73,-94.48 412.96,-85.27 403.13,-89.21 407.73,-94.48"/>
</a>
</g>
</g>
<!-- Node3 -->
<g id="Node000003" class="node">
<title>Node3</title>
<g id="a_Node000003"><a xlink:href="str__lib_8hpp.html" target="_top" xlink:title=" ">
<polygon fill="#fff0f0" stroke="red" points="74,-24.5 0,-24.5 0,-5.5 74,-5.5 74,-24.5"/>
<text text-anchor="middle" x="37" y="-12.5" font-family="Helvetica,sans-Serif" font-size="10.00">./str_lib.hpp</text>
</a>
</g>
</g>
<!-- Node2&#45;&gt;Node3 -->
<g id="edge2_Node000002_Node000003" class="edge">
<title>Node2&#45;&gt;Node3</title>
<g id="a_edge2_Node000002_Node000003"><a xlink:title=" ">
<path fill="none" stroke="#63b8ff" d="M239.32,-66.52C199.83,-58.18 136.86,-44.32 83,-30 80.03,-29.21 76.96,-28.36 73.89,-27.48"/>
<polygon fill="#63b8ff" stroke="#63b8ff" points="74.73,-24.08 64.15,-24.61 72.76,-30.79 74.73,-24.08"/>
</a>
</g>
</g>
<!-- Node9 -->
<g id="Node000009" class="node">
<title>Node9</title>
<g id="a_Node000009"><a xlink:title=" ">
<polygon fill="#e0e0e0" stroke="#999999" points="225.5,-30 92.5,-30 92.5,0 225.5,0 225.5,-30"/>
<text text-anchor="start" x="100.5" y="-18" font-family="Helvetica,sans-Serif" font-size="10.00">emlabcpp/experimental</text>
<text text-anchor="middle" x="159" y="-7" font-family="Helvetica,sans-Serif" font-size="10.00">/string_buffer.hpp</text>
</a>
</g>
</g>
<!-- Node2&#45;&gt;Node9 -->
<g id="edge3_Node000002_Node000009" class="edge">
<title>Node2&#45;&gt;Node9</title>
<g id="a_edge3_Node000002_Node000009"><a xlink:title=" ">
<path fill="none" stroke="#63b8ff" d="M260.7,-65.99C244.08,-57.82 218.4,-45.2 197.01,-34.69"/>
<polygon fill="#63b8ff" stroke="#63b8ff" points="198.36,-31.45 187.84,-30.18 195.27,-37.73 198.36,-31.45"/>
</a>
</g>
</g>
<!-- Node2&#45;&gt;Node10 -->
<g id="edge4_Node000002_Node000010" class="edge">
<title>Node2&#45;&gt;Node10</title>
<g id="a_edge4_Node000002_Node000010"><a xlink:title=" ">
<path fill="none" stroke="#63b8ff" d="M291.13,-65.87C305.33,-56.54 328.2,-41.51 345.12,-30.38"/>
<polygon fill="#63b8ff" stroke="#63b8ff" points="347.38,-33.08 353.81,-24.67 343.53,-27.24 347.38,-33.08"/>
</a>
</g>
</g>
<!-- Node11 -->
<g id="Node000011" class="node">
<title>Node11</title>
<g id="a_Node000011"><a xlink:title=" ">
<polygon fill="#e0e0e0" stroke="#999999" points="312.5,-24.5 243.5,-24.5 243.5,-5.5 312.5,-5.5 312.5,-24.5"/>
<text text-anchor="middle" x="278" y="-12.5" font-family="Helvetica,sans-Serif" font-size="10.00">vari/vopt.h</text>
</a>
</g>
</g>
<!-- Node2&#45;&gt;Node11 -->
<g id="edge5_Node000002_Node000011" class="edge">
<title>Node2&#45;&gt;Node11</title>
<g id="a_edge5_Node000002_Node000011"><a xlink:title=" ">
<path fill="none" stroke="#63b8ff" d="M278,-65.87C278,-57.75 278,-45.31 278,-34.89"/>
<polygon fill="#63b8ff" stroke="#63b8ff" points="281.5,-34.67 278,-24.67 274.5,-34.67 281.5,-34.67"/>
</a>
</g>
</g>
</g>
</svg>
