<?xml version="1.0" encoding="UTF-8" standalone="no"?>
<!DOCTYPE svg PUBLIC "-//W3C//DTD SVG 1.1//EN"
 "http://www.w3.org/Graphics/SVG/1.1/DTD/svg11.dtd">
<!-- Generated by graphviz version 2.43.0 (0)
 -->
<!-- Title: src/iface/parse.cpp Pages: 1 -->
<svg width="580pt" height="151pt"
 viewBox="0.00 0.00 579.50 151.00" xmlns="http://www.w3.org/2000/svg" xmlns:xlink="http://www.w3.org/1999/xlink">
<g id="graph0" class="graph" transform="scale(1 1) rotate(0) translate(4 147)">
<title>src/iface/parse.cpp</title>
<polygon fill="white" stroke="transparent" points="-4,4 -4,-147 575.5,-147 575.5,4 -4,4"/>
<!-- Node1 -->
<g id="node1" class="node">
<title>Node1</title>
<g id="a_node1"><a xlink:title=" ">
<polygon fill="#bfbfbf" stroke="black" points="289,-123.5 289,-142.5 397,-142.5 397,-123.5 289,-123.5"/>
<text text-anchor="middle" x="343" y="-130.5" font-family="Helvetica,sans-Serif" font-size="10.00">src/iface/parse.cpp</text>
</a>
</g>
</g>
<!-- Node2 -->
<g id="node2" class="node">
<title>Node2</title>
<g id="a_node2"><a xlink:href="def_8h.html" target="_top" xlink:title=" ">
<polygon fill="white" stroke="black" points="276.5,-67.5 276.5,-86.5 323.5,-86.5 323.5,-67.5 276.5,-67.5"/>
<text text-anchor="middle" x="300" y="-74.5" font-family="Helvetica,sans-Serif" font-size="10.00">./def.h</text>
</a>
</g>
</g>
<!-- Node1&#45;&gt;Node2 -->
<g id="edge1" class="edge">
<title>Node1&#45;&gt;Node2</title>
<path fill="none" stroke="midnightblue" d="M335.9,-123.08C329.76,-115.38 320.73,-104.03 313.26,-94.65"/>
<polygon fill="midnightblue" stroke="midnightblue" points="315.94,-92.39 306.97,-86.75 310.46,-96.75 315.94,-92.39"/>
</g>
<!-- Node8 -->
<g id="node8" class="node">
<title>Node8</title>
<g id="a_node8"><a xlink:href="util_8h.html" target="_top" xlink:title=" ">
<polygon fill="white" stroke="black" points="422.5,-67.5 422.5,-86.5 469.5,-86.5 469.5,-67.5 422.5,-67.5"/>
<text text-anchor="middle" x="446" y="-74.5" font-family="Helvetica,sans-Serif" font-size="10.00">./util.h</text>
</a>
</g>
</g>
<!-- Node1&#45;&gt;Node8 -->
<g id="edge7" class="edge">
<title>Node1&#45;&gt;Node8</title>
<path fill="none" stroke="midnightblue" d="M359.55,-123.32C375.99,-114.7 401.43,-101.36 420.47,-91.39"/>
<polygon fill="midnightblue" stroke="midnightblue" points="422.26,-94.4 429.49,-86.65 419.01,-88.2 422.26,-94.4"/>
</g>
<!-- Node3 -->
<g id="node3" class="node">
<title>Node3</title>
<g id="a_node3"><a xlink:title=" ">
<polygon fill="white" stroke="#bfbfbf" points="0,-6 0,-25 50,-25 50,-6 0,-6"/>
<text text-anchor="middle" x="25" y="-13" font-family="Helvetica,sans-Serif" font-size="10.00">cstdint</text>
</a>
</g>
</g>
<!-- Node2&#45;&gt;Node3 -->
<g id="edge2" class="edge">
<title>Node2&#45;&gt;Node3</title>
<path fill="none" stroke="midnightblue" d="M276.33,-73.32C232.67,-68.01 136.81,-54.55 59,-31 56.85,-30.35 54.66,-29.61 52.47,-28.81"/>
<polygon fill="midnightblue" stroke="midnightblue" points="53.66,-25.52 43.08,-25.08 51.08,-32.02 53.66,-25.52"/>
</g>
<!-- Node4 -->
<g id="node4" class="node">
<title>Node4</title>
<g id="a_node4"><a xlink:title=" ">
<polygon fill="white" stroke="#bfbfbf" points="68.5,-6 68.5,-25 155.5,-25 155.5,-6 68.5,-6"/>
<text text-anchor="middle" x="112" y="-13" font-family="Helvetica,sans-Serif" font-size="10.00">avakar/atom.h</text>
</a>
</g>
</g>
<!-- Node2&#45;&gt;Node4 -->
<g id="edge3" class="edge">
<title>Node2&#45;&gt;Node4</title>
<path fill="none" stroke="midnightblue" d="M276.19,-68.46C243.99,-58.27 186.27,-40 148.55,-28.07"/>
<polygon fill="midnightblue" stroke="midnightblue" points="149.54,-24.71 138.95,-25.03 147.43,-31.38 149.54,-24.71"/>
</g>
<!-- Node5 -->
<g id="node5" class="node">
<title>Node5</title>
<g id="a_node5"><a xlink:title=" ">
<polygon fill="white" stroke="#bfbfbf" points="173.5,-0.5 173.5,-30.5 306.5,-30.5 306.5,-0.5 173.5,-0.5"/>
<text text-anchor="start" x="181.5" y="-18.5" font-family="Helvetica,sans-Serif" font-size="10.00">emlabcpp/experimental</text>
<text text-anchor="middle" x="240" y="-7.5" font-family="Helvetica,sans-Serif" font-size="10.00">/string_buffer.h</text>
</a>
</g>
</g>
<!-- Node2&#45;&gt;Node5 -->
<g id="edge4" class="edge">
<title>Node2&#45;&gt;Node5</title>
<path fill="none" stroke="midnightblue" d="M291.4,-67.48C283.58,-59.72 271.71,-47.94 261.34,-37.66"/>
<polygon fill="midnightblue" stroke="midnightblue" points="263.71,-35.08 254.14,-30.52 258.78,-40.05 263.71,-35.08"/>
</g>
<!-- Node6 -->
<g id="node6" class="node">
<title>Node6</title>
<g id="a_node6"><a xlink:title=" ">
<polygon fill="white" stroke="#bfbfbf" points="411.5,-6 411.5,-25 480.5,-25 480.5,-6 411.5,-6"/>
<text text-anchor="middle" x="446" y="-13" font-family="Helvetica,sans-Serif" font-size="10.00">vari/vopt.h</text>
</a>
</g>
</g>
<!-- Node2&#45;&gt;Node6 -->
<g id="edge5" class="edge">
<title>Node2&#45;&gt;Node6</title>
<path fill="none" stroke="midnightblue" d="M320.92,-67.48C345.75,-57.36 387.34,-40.4 415.69,-28.85"/>
<polygon fill="midnightblue" stroke="midnightblue" points="417.18,-32.02 425.12,-25.01 414.54,-25.54 417.18,-32.02"/>
</g>
<!-- Node7 -->
<g id="node7" class="node">
<title>Node7</title>
<g id="a_node7"><a xlink:title=" ">
<polygon fill="white" stroke="#bfbfbf" points="325,-6 325,-25 393,-25 393,-6 325,-6"/>
<text text-anchor="middle" x="359" y="-13" font-family="Helvetica,sans-Serif" font-size="10.00">vari/vval.h</text>
</a>
</g>
</g>
<!-- Node2&#45;&gt;Node7 -->
<g id="edge6" class="edge">
<title>Node2&#45;&gt;Node7</title>
<path fill="none" stroke="midnightblue" d="M308.45,-67.48C317.57,-58.28 332.27,-43.46 343.48,-32.16"/>
<polygon fill="midnightblue" stroke="midnightblue" points="346.01,-34.57 350.56,-25.01 341.04,-29.65 346.01,-34.57"/>
</g>
<!-- Node8&#45;&gt;Node6 -->
<g id="edge9" class="edge">
<title>Node8&#45;&gt;Node6</title>
<path fill="none" stroke="midnightblue" d="M446,-67.48C446,-59.08 446,-45.98 446,-35.16"/>
<polygon fill="midnightblue" stroke="midnightblue" points="449.5,-35.01 446,-25.01 442.5,-35.01 449.5,-35.01"/>
</g>
<!-- Node9 -->
<g id="node9" class="node">
<title>Node9</title>
<g id="a_node9"><a xlink:title=" ">
<polygon fill="white" stroke="#bfbfbf" points="498.5,-6 498.5,-25 571.5,-25 571.5,-6 498.5,-6"/>
<text text-anchor="middle" x="535" y="-13" font-family="Helvetica,sans-Serif" font-size="10.00">string_view</text>
</a>
</g>
</g>
<!-- Node8&#45;&gt;Node9 -->
<g id="edge8" class="edge">
<title>Node8&#45;&gt;Node9</title>
<path fill="none" stroke="midnightblue" d="M458.75,-67.48C473.03,-57.93 496.4,-42.31 513.51,-30.87"/>
<polygon fill="midnightblue" stroke="midnightblue" points="515.9,-33.48 522.27,-25.01 512.01,-27.66 515.9,-33.48"/>
</g>
</g>
</svg>
