<?xml version="1.0" encoding="UTF-8" standalone="no"?>
<!DOCTYPE svg PUBLIC "-//W3C//DTD SVG 1.1//EN"
 "http://www.w3.org/Graphics/SVG/1.1/DTD/svg11.dtd">
<!-- Generated by graphviz version 2.43.0 (0)
 -->
<!-- Title: src/iface/tests/parse_utest.cpp Pages: 1 -->
<svg width="488pt" height="162pt"
 viewBox="0.00 0.00 488.00 162.00" xmlns="http://www.w3.org/2000/svg" xmlns:xlink="http://www.w3.org/1999/xlink">
<g id="graph0" class="graph" transform="scale(1 1) rotate(0) translate(4 158)">
<title>src/iface/tests/parse_utest.cpp</title>
<polygon fill="white" stroke="transparent" points="-4,4 -4,-158 484,-158 484,4 -4,4"/>
<!-- Node1 -->
<g id="node1" class="node">
<title>Node1</title>
<g id="a_node1"><a xlink:title=" ">
<polygon fill="#bfbfbf" stroke="black" points="223.5,-123.5 223.5,-153.5 338.5,-153.5 338.5,-123.5 223.5,-123.5"/>
<text text-anchor="start" x="231.5" y="-141.5" font-family="Helvetica,sans-Serif" font-size="10.00">src/iface/tests/parse</text>
<text text-anchor="middle" x="281" y="-130.5" font-family="Helvetica,sans-Serif" font-size="10.00">_utest.cpp</text>
</a>
</g>
</g>
<!-- Node2 -->
<g id="node2" class="node">
<title>Node2</title>
<g id="a_node2"><a xlink:href="def_8h.html" target="_top" xlink:title=" ">
<polygon fill="white" stroke="black" points="215,-67.5 215,-86.5 265,-86.5 265,-67.5 215,-67.5"/>
<text text-anchor="middle" x="240" y="-74.5" font-family="Helvetica,sans-Serif" font-size="10.00">../def.h</text>
</a>
</g>
</g>
<!-- Node1&#45;&gt;Node2 -->
<g id="edge1" class="edge">
<title>Node1&#45;&gt;Node2</title>
<path fill="none" stroke="midnightblue" d="M271.28,-123.4C265.45,-114.93 257.98,-104.1 251.81,-95.14"/>
<polygon fill="midnightblue" stroke="midnightblue" points="254.52,-92.91 245.97,-86.66 248.76,-96.88 254.52,-92.91"/>
</g>
<!-- Node8 -->
<g id="node8" class="node">
<title>Node8</title>
<g id="a_node8"><a xlink:title=" ">
<polygon fill="white" stroke="#bfbfbf" points="283,-67.5 283,-86.5 361,-86.5 361,-67.5 283,-67.5"/>
<text text-anchor="middle" x="322" y="-74.5" font-family="Helvetica,sans-Serif" font-size="10.00">gtest/gtest.h</text>
</a>
</g>
</g>
<!-- Node1&#45;&gt;Node8 -->
<g id="edge7" class="edge">
<title>Node1&#45;&gt;Node8</title>
<path fill="none" stroke="midnightblue" d="M290.72,-123.4C296.55,-114.93 304.02,-104.1 310.19,-95.14"/>
<polygon fill="midnightblue" stroke="midnightblue" points="313.24,-96.88 316.03,-86.66 307.48,-92.91 313.24,-96.88"/>
</g>
<!-- Node3 -->
<g id="node3" class="node">
<title>Node3</title>
<g id="a_node3"><a xlink:title=" ">
<polygon fill="white" stroke="#bfbfbf" points="0,-6 0,-25 50,-25 50,-6 0,-6"/>
<text text-anchor="middle" x="25" y="-13" font-family="Helvetica,sans-Serif" font-size="10.00">cstdint</text>
</a>
</g>
</g>
<!-- Node2&#45;&gt;Node3 -->
<g id="edge2" class="edge">
<title>Node2&#45;&gt;Node3</title>
<path fill="none" stroke="midnightblue" d="M214.75,-71.05C179.44,-63.84 113.5,-49.26 59,-31 57.08,-30.36 55.12,-29.65 53.16,-28.91"/>
<polygon fill="midnightblue" stroke="midnightblue" points="54.08,-25.51 43.5,-25.02 51.47,-32 54.08,-25.51"/>
</g>
<!-- Node4 -->
<g id="node4" class="node">
<title>Node4</title>
<g id="a_node4"><a xlink:title=" ">
<polygon fill="white" stroke="#bfbfbf" points="68.5,-6 68.5,-25 155.5,-25 155.5,-6 68.5,-6"/>
<text text-anchor="middle" x="112" y="-13" font-family="Helvetica,sans-Serif" font-size="10.00">avakar/atom.h</text>
</a>
</g>
</g>
<!-- Node2&#45;&gt;Node4 -->
<g id="edge3" class="edge">
<title>Node2&#45;&gt;Node4</title>
<path fill="none" stroke="midnightblue" d="M221.66,-67.48C200.18,-57.49 164.38,-40.85 139.55,-29.31"/>
<polygon fill="midnightblue" stroke="midnightblue" points="140.85,-26.05 130.31,-25.01 137.9,-32.4 140.85,-26.05"/>
</g>
<!-- Node5 -->
<g id="node5" class="node">
<title>Node5</title>
<g id="a_node5"><a xlink:title=" ">
<polygon fill="white" stroke="#bfbfbf" points="173.5,-0.5 173.5,-30.5 306.5,-30.5 306.5,-0.5 173.5,-0.5"/>
<text text-anchor="start" x="181.5" y="-18.5" font-family="Helvetica,sans-Serif" font-size="10.00">emlabcpp/experimental</text>
<text text-anchor="middle" x="240" y="-7.5" font-family="Helvetica,sans-Serif" font-size="10.00">/string_buffer.h</text>
</a>
</g>
</g>
<!-- Node2&#45;&gt;Node5 -->
<g id="edge4" class="edge">
<title>Node2&#45;&gt;Node5</title>
<path fill="none" stroke="midnightblue" d="M240,-67.48C240,-60.47 240,-50.19 240,-40.7"/>
<polygon fill="midnightblue" stroke="midnightblue" points="243.5,-40.52 240,-30.52 236.5,-40.52 243.5,-40.52"/>
</g>
<!-- Node6 -->
<g id="node6" class="node">
<title>Node6</title>
<g id="a_node6"><a xlink:title=" ">
<polygon fill="white" stroke="#bfbfbf" points="324.5,-6 324.5,-25 393.5,-25 393.5,-6 324.5,-6"/>
<text text-anchor="middle" x="359" y="-13" font-family="Helvetica,sans-Serif" font-size="10.00">vari/vopt.h</text>
</a>
</g>
</g>
<!-- Node2&#45;&gt;Node6 -->
<g id="edge5" class="edge">
<title>Node2&#45;&gt;Node6</title>
<path fill="none" stroke="midnightblue" d="M257.05,-67.48C276.84,-57.58 309.72,-41.14 332.77,-29.62"/>
<polygon fill="midnightblue" stroke="midnightblue" points="334.6,-32.61 341.98,-25.01 331.47,-26.35 334.6,-32.61"/>
</g>
<!-- Node7 -->
<g id="node7" class="node">
<title>Node7</title>
<g id="a_node7"><a xlink:title=" ">
<polygon fill="white" stroke="#bfbfbf" points="412,-6 412,-25 480,-25 480,-6 412,-6"/>
<text text-anchor="middle" x="446" y="-13" font-family="Helvetica,sans-Serif" font-size="10.00">vari/vval.h</text>
</a>
</g>
</g>
<!-- Node2&#45;&gt;Node7 -->
<g id="edge6" class="edge">
<title>Node2&#45;&gt;Node7</title>
<path fill="none" stroke="midnightblue" d="M265.3,-69.2C304.27,-58.7 377.18,-38.91 403,-31 405.92,-30.11 408.94,-29.15 411.96,-28.17"/>
<polygon fill="midnightblue" stroke="midnightblue" points="413.12,-31.48 421.52,-25.02 410.92,-24.83 413.12,-31.48"/>
</g>
</g>
</svg>
