<?xml version="1.0" encoding="UTF-8" standalone="no"?>
<!DOCTYPE svg PUBLIC "-//W3C//DTD SVG 1.1//EN"
 "http://www.w3.org/Graphics/SVG/1.1/DTD/svg11.dtd">
<!-- Generated by graphviz version 2.43.0 (0)
 -->
<!-- Title: src/scmdio/pid_autotune.hpp Pages: 1 -->
<svg width="553pt" height="148pt"
 viewBox="0.00 0.00 552.50 148.00" xmlns="http://www.w3.org/2000/svg" xmlns:xlink="http://www.w3.org/1999/xlink">
<g id="graph0" class="graph" transform="scale(1 1) rotate(0) translate(4 144)">
<title>src/scmdio/pid_autotune.hpp</title>
<!-- Node1 -->
<g id="Node000001" class="node">
<title>Node1</title>
<g id="a_Node000001"><a xlink:title=" ">
<polygon fill="#999999" stroke="#666666" points="413,-140 256,-140 256,-121 413,-121 413,-140"/>
<text text-anchor="middle" x="334.5" y="-128" font-family="Helvetica,sans-Serif" font-size="10.00">src/scmdio/pid_autotune.hpp</text>
</a>
</g>
</g>
<!-- Node2 -->
<g id="Node000002" class="node">
<title>Node2</title>
<g id="a_Node000002"><a xlink:href="port_8hpp.html" target="_top" xlink:title=" ">
<polygon fill="white" stroke="#666666" points="254,-85 191,-85 191,-66 254,-66 254,-85"/>
<text text-anchor="middle" x="222.5" y="-73" font-family="Helvetica,sans-Serif" font-size="10.00">./port.hpp</text>
</a>
</g>
</g>
<!-- Node1&#45;&gt;Node2 -->
<g id="edge1_Node000001_Node000002" class="edge">
<title>Node1&#45;&gt;Node2</title>
<g id="a_edge1_Node000001_Node000002"><a xlink:title=" ">
<path fill="none" stroke="#63b8ff" d="M316.51,-120.98C298.57,-112.5 270.78,-99.35 250.07,-89.54"/>
<polygon fill="#63b8ff" stroke="#63b8ff" points="251.36,-86.28 240.82,-85.17 248.36,-92.61 251.36,-86.28"/>
</a>
</g>
</g>
<!-- Node13 -->
<g id="Node000013" class="node">
<title>Node13</title>
<g id="a_Node000013"><a xlink:title=" ">
<polygon fill="#e0e0e0" stroke="#999999" points="396.5,-85 272.5,-85 272.5,-66 396.5,-66 396.5,-85"/>
<text text-anchor="middle" x="334.5" y="-73" font-family="Helvetica,sans-Serif" font-size="10.00">emlabcpp/algorithm.h</text>
</a>
</g>
</g>
<!-- Node1&#45;&gt;Node13 -->
<g id="edge6_Node000001_Node000013" class="edge">
<title>Node1&#45;&gt;Node13</title>
<g id="a_edge6_Node000001_Node000013"><a xlink:title=" ">
<path fill="none" stroke="#63b8ff" d="M334.5,-120.75C334.5,-113.8 334.5,-103.85 334.5,-95.13"/>
<polygon fill="#63b8ff" stroke="#63b8ff" points="338,-95.09 334.5,-85.09 331,-95.09 338,-95.09"/>
</a>
</g>
</g>
<!-- Node14 -->
<g id="Node000014" class="node">
<title>Node14</title>
<g id="a_Node000014"><a xlink:title=" ">
<polygon fill="#e0e0e0" stroke="#999999" points="544.5,-85 414.5,-85 414.5,-66 544.5,-66 544.5,-85"/>
<text text-anchor="middle" x="479.5" y="-73" font-family="Helvetica,sans-Serif" font-size="10.00">emlabcpp/enumerate.h</text>
</a>
</g>
</g>
<!-- Node1&#45;&gt;Node14 -->
<g id="edge7_Node000001_Node000014" class="edge">
<title>Node1&#45;&gt;Node14</title>
<g id="a_edge7_Node000001_Node000014"><a xlink:title=" ">
<path fill="none" stroke="#63b8ff" d="M357.8,-120.98C381.75,-112.23 419.28,-98.51 446.33,-88.62"/>
<polygon fill="#63b8ff" stroke="#63b8ff" points="447.59,-91.89 455.78,-85.17 445.19,-85.32 447.59,-91.89"/>
</a>
</g>
</g>
<!-- Node3 -->
<g id="Node000003" class="node">
<title>Node3</title>
<g id="a_Node000003"><a xlink:href="scmdio_2base_8hpp.html" target="_top" xlink:title=" ">
<polygon fill="#fff0f0" stroke="red" points="61,-24.5 0,-24.5 0,-5.5 61,-5.5 61,-24.5"/>
<text text-anchor="middle" x="30.5" y="-12.5" font-family="Helvetica,sans-Serif" font-size="10.00">base.hpp</text>
</a>
</g>
</g>
<!-- Node2&#45;&gt;Node3 -->
<g id="edge2_Node000002_Node000003" class="edge">
<title>Node2&#45;&gt;Node3</title>
<g id="a_edge2_Node000002_Node000003"><a xlink:title=" ">
<path fill="none" stroke="#63b8ff" d="M191.5,-65.93C160.68,-57.3 112.13,-43.37 70.5,-30 68.39,-29.32 66.23,-28.61 64.05,-27.89"/>
<polygon fill="#63b8ff" stroke="#63b8ff" points="65.14,-24.56 54.55,-24.64 62.88,-31.18 65.14,-24.56"/>
</a>
</g>
</g>
<!-- Node10 -->
<g id="Node000010" class="node">
<title>Node10</title>
<g id="a_Node000010"><a xlink:title=" ">
<polygon fill="#e0e0e0" stroke="#999999" points="213.5,-24.5 79.5,-24.5 79.5,-5.5 213.5,-5.5 213.5,-24.5"/>
<text text-anchor="middle" x="146.5" y="-12.5" font-family="Helvetica,sans-Serif" font-size="10.00">spdlog/fmt/bin_to_hex.h</text>
</a>
</g>
</g>
<!-- Node2&#45;&gt;Node10 -->
<g id="edge3_Node000002_Node000010" class="edge">
<title>Node2&#45;&gt;Node10</title>
<g id="a_edge3_Node000002_Node000010"><a xlink:title=" ">
<path fill="none" stroke="#63b8ff" d="M211.29,-65.87C199.39,-56.71 180.36,-42.06 165.99,-31.01"/>
<polygon fill="#63b8ff" stroke="#63b8ff" points="167.82,-27.99 157.76,-24.67 163.55,-33.54 167.82,-27.99"/>
</a>
</g>
</g>
<!-- Node11 -->
<g id="Node000011" class="node">
<title>Node11</title>
<g id="a_Node000011"><a xlink:title=" ">
<polygon fill="#e0e0e0" stroke="#999999" points="365,-30 232,-30 232,0 365,0 365,-30"/>
<text text-anchor="start" x="240" y="-18" font-family="Helvetica,sans-Serif" font-size="10.00">emlabcpp/experimental</text>
<text text-anchor="middle" x="298.5" y="-7" font-family="Helvetica,sans-Serif" font-size="10.00">/cobs.h</text>
</a>
</g>
</g>
<!-- Node2&#45;&gt;Node11 -->
<g id="edge4_Node000002_Node000011" class="edge">
<title>Node2&#45;&gt;Node11</title>
<g id="a_edge4_Node000002_Node000011"><a xlink:title=" ">
<path fill="none" stroke="#63b8ff" d="M233.71,-65.87C243.74,-58.15 258.83,-46.54 271.92,-36.46"/>
<polygon fill="#63b8ff" stroke="#63b8ff" points="274.37,-38.99 280.16,-30.11 270.1,-33.44 274.37,-38.99"/>
</a>
</g>
</g>
<!-- Node12 -->
<g id="Node000012" class="node">
<title>Node12</title>
<g id="a_Node000012"><a xlink:title=" ">
<polygon fill="#e0e0e0" stroke="#999999" points="430,-24.5 383,-24.5 383,-5.5 430,-5.5 430,-24.5"/>
<text text-anchor="middle" x="406.5" y="-12.5" font-family="Helvetica,sans-Serif" font-size="10.00">vector</text>
</a>
</g>
</g>
<!-- Node2&#45;&gt;Node12 -->
<g id="edge5_Node000002_Node000012" class="edge">
<title>Node2&#45;&gt;Node12</title>
<g id="a_edge5_Node000002_Node000012"><a xlink:title=" ">
<path fill="none" stroke="#63b8ff" d="M254.03,-66.53C285.03,-58.4 333.54,-44.89 374.5,-30 375.89,-29.5 377.3,-28.96 378.73,-28.4"/>
<polygon fill="#63b8ff" stroke="#63b8ff" points="380.14,-31.6 388.05,-24.55 377.47,-25.14 380.14,-31.6"/>
</a>
</g>
</g>
</g>
</svg>
