<?xml version="1.0" encoding="UTF-8" standalone="no"?>
<!DOCTYPE svg PUBLIC "-//W3C//DTD SVG 1.1//EN"
 "http://www.w3.org/Graphics/SVG/1.1/DTD/svg11.dtd">
<!-- Generated by graphviz version 2.43.0 (0)
 -->
<!-- Title: src/scmdio/pid_autotune_cmd.hpp Pages: 1 -->
<svg width="313pt" height="162pt"
 viewBox="0.00 0.00 312.50 162.00" xmlns="http://www.w3.org/2000/svg" xmlns:xlink="http://www.w3.org/1999/xlink">
<g id="graph0" class="graph" transform="scale(1 1) rotate(0) translate(4 158)">
<title>src/scmdio/pid_autotune_cmd.hpp</title>
<polygon fill="white" stroke="transparent" points="-4,4 -4,-158 308.5,-158 308.5,4 -4,4"/>
<!-- Node1 -->
<g id="node1" class="node">
<title>Node1</title>
<g id="a_node1"><a xlink:title=" ">
<polygon fill="#bfbfbf" stroke="black" points="105,-123.5 105,-153.5 241,-153.5 241,-123.5 105,-123.5"/>
<text text-anchor="start" x="113" y="-141.5" font-family="Helvetica,sans-Serif" font-size="10.00">src/scmdio/pid_autotune</text>
<text text-anchor="middle" x="173" y="-130.5" font-family="Helvetica,sans-Serif" font-size="10.00">_cmd.hpp</text>
</a>
</g>
</g>
<!-- Node2 -->
<g id="node2" class="node">
<title>Node2</title>
<g id="a_node2"><a xlink:href="async__cobs_8hpp.html" target="_top" xlink:title=" ">
<polygon fill="white" stroke="black" points="126,-67.5 126,-86.5 220,-86.5 220,-67.5 126,-67.5"/>
<text text-anchor="middle" x="173" y="-74.5" font-family="Helvetica,sans-Serif" font-size="10.00">async_cobs.hpp</text>
</a>
</g>
</g>
<!-- Node1&#45;&gt;Node2 -->
<g id="edge1" class="edge">
<title>Node1&#45;&gt;Node2</title>
<path fill="none" stroke="midnightblue" d="M173,-123.4C173,-115.47 173,-105.46 173,-96.86"/>
<polygon fill="midnightblue" stroke="midnightblue" points="176.5,-96.66 173,-86.66 169.5,-96.66 176.5,-96.66"/>
</g>
<!-- Node3 -->
<g id="node3" class="node">
<title>Node3</title>
<g id="a_node3"><a xlink:title=" ">
<polygon fill="white" stroke="#bfbfbf" points="0,-6 0,-25 88,-25 88,-6 0,-6"/>
<text text-anchor="middle" x="44" y="-13" font-family="Helvetica,sans-Serif" font-size="10.00">boost/asio.hpp</text>
</a>
</g>
</g>
<!-- Node2&#45;&gt;Node3 -->
<g id="edge2" class="edge">
<title>Node2&#45;&gt;Node3</title>
<path fill="none" stroke="midnightblue" d="M154.52,-67.48C132.87,-57.49 96.79,-40.85 71.77,-29.31"/>
<polygon fill="midnightblue" stroke="midnightblue" points="72.99,-26.02 62.45,-25.01 70.06,-32.38 72.99,-26.02"/>
</g>
<!-- Node4 -->
<g id="node4" class="node">
<title>Node4</title>
<g id="a_node4"><a xlink:title=" ">
<polygon fill="white" stroke="#bfbfbf" points="106.5,-0.5 106.5,-30.5 239.5,-30.5 239.5,-0.5 106.5,-0.5"/>
<text text-anchor="start" x="114.5" y="-18.5" font-family="Helvetica,sans-Serif" font-size="10.00">emlabcpp/experimental</text>
<text text-anchor="middle" x="173" y="-7.5" font-family="Helvetica,sans-Serif" font-size="10.00">/cobs.h</text>
</a>
</g>
</g>
<!-- Node2&#45;&gt;Node4 -->
<g id="edge3" class="edge">
<title>Node2&#45;&gt;Node4</title>
<path fill="none" stroke="midnightblue" d="M173,-67.48C173,-60.47 173,-50.19 173,-40.7"/>
<polygon fill="midnightblue" stroke="midnightblue" points="176.5,-40.52 173,-30.52 169.5,-40.52 176.5,-40.52"/>
</g>
<!-- Node5 -->
<g id="node5" class="node">
<title>Node5</title>
<g id="a_node5"><a xlink:title=" ">
<polygon fill="white" stroke="#bfbfbf" points="257.5,-6 257.5,-25 304.5,-25 304.5,-6 257.5,-6"/>
<text text-anchor="middle" x="281" y="-13" font-family="Helvetica,sans-Serif" font-size="10.00">vector</text>
</a>
</g>
</g>
<!-- Node2&#45;&gt;Node5 -->
<g id="edge4" class="edge">
<title>Node2&#45;&gt;Node5</title>
<path fill="none" stroke="midnightblue" d="M188.47,-67.48C206.28,-57.67 235.74,-41.43 256.63,-29.92"/>
<polygon fill="midnightblue" stroke="midnightblue" points="258.49,-32.9 265.55,-25.01 255.11,-26.77 258.49,-32.9"/>
</g>
</g>
</svg>
