<?xml version="1.0" encoding="UTF-8" standalone="no"?>
<!DOCTYPE svg PUBLIC "-//W3C//DTD SVG 1.1//EN"
 "http://www.w3.org/Graphics/SVG/1.1/DTD/svg11.dtd">
<!-- Generated by graphviz version 2.43.0 (0)
 -->
<!-- Title: src/scmdio/pid_autotune_cmd.cpp Pages: 1 -->
<svg width="766pt" height="203pt"
 viewBox="0.00 0.00 765.50 203.00" xmlns="http://www.w3.org/2000/svg" xmlns:xlink="http://www.w3.org/1999/xlink">
<g id="graph0" class="graph" transform="scale(1 1) rotate(0) translate(4 199)">
<title>src/scmdio/pid_autotune_cmd.cpp</title>
<!-- Node1 -->
<g id="Node000001" class="node">
<title>Node1</title>
<g id="a_Node000001"><a xlink:title=" ">
<polygon fill="#999999" stroke="#666666" points="414,-195 278,-195 278,-165 414,-165 414,-195"/>
<text text-anchor="start" x="286" y="-183" font-family="Helvetica,sans-Serif" font-size="10.00">src/scmdio/pid_autotune</text>
<text text-anchor="middle" x="346" y="-172" font-family="Helvetica,sans-Serif" font-size="10.00">_cmd.cpp</text>
</a>
</g>
</g>
<!-- Node2 -->
<g id="Node000002" class="node">
<title>Node2</title>
<g id="a_Node000002"><a xlink:href="pid__autotune__cmd_8hpp.html" target="_top" xlink:title=" ">
<polygon fill="white" stroke="#666666" points="413,-129 279,-129 279,-110 413,-110 413,-129"/>
<text text-anchor="middle" x="346" y="-117" font-family="Helvetica,sans-Serif" font-size="10.00">./pid_autotune_cmd.hpp</text>
</a>
</g>
</g>
<!-- Node1&#45;&gt;Node2 -->
<g id="edge1_Node000001_Node000002" class="edge">
<title>Node1&#45;&gt;Node2</title>
<g id="a_edge1_Node000001_Node000002"><a xlink:title=" ">
<path fill="none" stroke="#63b8ff" d="M346,-164.84C346,-157.21 346,-147.7 346,-139.45"/>
<polygon fill="#63b8ff" stroke="#63b8ff" points="349.5,-139.27 346,-129.27 342.5,-139.27 349.5,-139.27"/>
</a>
</g>
</g>
<!-- Node7 -->
<g id="Node000007" class="node">
<title>Node7</title>
<g id="a_Node000007"><a xlink:href="pid__autotune_8hpp.html" target="_top" xlink:title=" ">
<polygon fill="white" stroke="#666666" points="260.5,-129 153.5,-129 153.5,-110 260.5,-110 260.5,-129"/>
<text text-anchor="middle" x="207" y="-117" font-family="Helvetica,sans-Serif" font-size="10.00">./pid_autotune.hpp</text>
</a>
</g>
</g>
<!-- Node1&#45;&gt;Node7 -->
<g id="edge4_Node000001_Node000007" class="edge">
<title>Node1&#45;&gt;Node7</title>
<g id="a_edge4_Node000001_Node000007"><a xlink:title=" ">
<path fill="none" stroke="#63b8ff" d="M312.71,-164.99C289.62,-155.27 259.13,-142.44 236.84,-133.06"/>
<polygon fill="#63b8ff" stroke="#63b8ff" points="238.1,-129.79 227.53,-129.14 235.39,-136.24 238.1,-129.79"/>
</a>
</g>
</g>
<!-- Node10 -->
<g id="Node000010" class="node">
<title>Node10</title>
<g id="a_Node000010"><a xlink:href="serial_8hpp.html" target="_top" xlink:title=" ">
<polygon fill="white" stroke="#666666" points="537.5,-129 466.5,-129 466.5,-110 537.5,-110 537.5,-129"/>
<text text-anchor="middle" x="502" y="-117" font-family="Helvetica,sans-Serif" font-size="10.00">./serial.hpp</text>
</a>
</g>
</g>
<!-- Node1&#45;&gt;Node10 -->
<g id="edge8_Node000001_Node000010" class="edge">
<title>Node1&#45;&gt;Node10</title>
<g id="a_edge8_Node000001_Node000010"><a xlink:title=" ">
<path fill="none" stroke="#63b8ff" d="M383.37,-164.99C409.63,-155.14 444.41,-142.1 469.52,-132.68"/>
<polygon fill="#63b8ff" stroke="#63b8ff" points="470.83,-135.93 478.96,-129.14 468.37,-129.37 470.83,-135.93"/>
</a>
</g>
</g>
<!-- Node3 -->
<g id="Node000003" class="node">
<title>Node3</title>
<g id="a_Node000003"><a xlink:href="port_8hpp.html" target="_top" xlink:title=" ">
<polygon fill="#fff0f0" stroke="red" points="347.5,-74 290.5,-74 290.5,-55 347.5,-55 347.5,-74"/>
<text text-anchor="middle" x="319" y="-62" font-family="Helvetica,sans-Serif" font-size="10.00">port.hpp</text>
</a>
</g>
</g>
<!-- Node2&#45;&gt;Node3 -->
<g id="edge2_Node000002_Node000003" class="edge">
<title>Node2&#45;&gt;Node3</title>
<g id="a_edge2_Node000002_Node000003"><a xlink:title=" ">
<path fill="none" stroke="#63b8ff" d="M341.54,-109.75C337.88,-102.57 332.59,-92.18 328.05,-83.27"/>
<polygon fill="#63b8ff" stroke="#63b8ff" points="331.03,-81.41 323.38,-74.09 324.8,-84.59 331.03,-81.41"/>
</a>
</g>
</g>
<!-- Node4 -->
<g id="Node000004" class="node">
<title>Node4</title>
<g id="a_Node000004"><a xlink:title=" ">
<polygon fill="#e0e0e0" stroke="#999999" points="472,-19 384,-19 384,0 472,0 472,-19"/>
<text text-anchor="middle" x="428" y="-7" font-family="Helvetica,sans-Serif" font-size="10.00">boost/asio.hpp</text>
</a>
</g>
</g>
<!-- Node3&#45;&gt;Node4 -->
<g id="edge3_Node000003_Node000004" class="edge">
<title>Node3&#45;&gt;Node4</title>
<g id="a_edge3_Node000003_Node000004"><a xlink:title=" ">
<path fill="none" stroke="#63b8ff" d="M336.51,-54.98C353.97,-46.5 381.01,-33.35 401.17,-23.54"/>
<polygon fill="#63b8ff" stroke="#63b8ff" points="402.71,-26.69 410.17,-19.17 399.64,-20.4 402.71,-26.69"/>
</a>
</g>
</g>
<!-- Node7&#45;&gt;Node3 -->
<g id="edge5_Node000007_Node000003" class="edge">
<title>Node7&#45;&gt;Node3</title>
<g id="a_edge5_Node000007_Node000003"><a xlink:title=" ">
<path fill="none" stroke="#63b8ff" d="M224.99,-109.98C242.93,-101.5 270.72,-88.35 291.43,-78.54"/>
<polygon fill="#63b8ff" stroke="#63b8ff" points="293.14,-81.61 300.68,-74.17 290.14,-75.28 293.14,-81.61"/>
</a>
</g>
</g>
<!-- Node8 -->
<g id="Node000008" class="node">
<title>Node8</title>
<g id="a_Node000008"><a xlink:title=" ">
<polygon fill="#e0e0e0" stroke="#999999" points="124,-74 0,-74 0,-55 124,-55 124,-74"/>
<text text-anchor="middle" x="62" y="-62" font-family="Helvetica,sans-Serif" font-size="10.00">emlabcpp/algorithm.h</text>
</a>
</g>
</g>
<!-- Node7&#45;&gt;Node8 -->
<g id="edge6_Node000007_Node000008" class="edge">
<title>Node7&#45;&gt;Node8</title>
<g id="a_edge6_Node000007_Node000008"><a xlink:title=" ">
<path fill="none" stroke="#63b8ff" d="M183.7,-109.98C159.75,-101.23 122.22,-87.51 95.17,-77.62"/>
<polygon fill="#63b8ff" stroke="#63b8ff" points="96.31,-74.32 85.72,-74.17 93.91,-80.89 96.31,-74.32"/>
</a>
</g>
</g>
<!-- Node9 -->
<g id="Node000009" class="node">
<title>Node9</title>
<g id="a_Node000009"><a xlink:title=" ">
<polygon fill="#e0e0e0" stroke="#999999" points="272,-74 142,-74 142,-55 272,-55 272,-74"/>
<text text-anchor="middle" x="207" y="-62" font-family="Helvetica,sans-Serif" font-size="10.00">emlabcpp/enumerate.h</text>
</a>
</g>
</g>
<!-- Node7&#45;&gt;Node9 -->
<g id="edge7_Node000007_Node000009" class="edge">
<title>Node7&#45;&gt;Node9</title>
<g id="a_edge7_Node000007_Node000009"><a xlink:title=" ">
<path fill="none" stroke="#63b8ff" d="M207,-109.75C207,-102.8 207,-92.85 207,-84.13"/>
<polygon fill="#63b8ff" stroke="#63b8ff" points="210.5,-84.09 207,-74.09 203.5,-84.09 210.5,-84.09"/>
</a>
</g>
</g>
<!-- Node10&#45;&gt;Node3 -->
<g id="edge11_Node000010_Node000003" class="edge">
<title>Node10&#45;&gt;Node3</title>
<g id="a_edge11_Node000010_Node000003"><a xlink:title=" ">
<path fill="none" stroke="#63b8ff" d="M472.6,-109.98C441.33,-100.93 391.75,-86.57 357.42,-76.63"/>
<polygon fill="#63b8ff" stroke="#63b8ff" points="358.3,-73.24 347.73,-73.82 356.36,-79.96 358.3,-73.24"/>
</a>
</g>
</g>
<!-- Node10&#45;&gt;Node4 -->
<g id="edge12_Node000010_Node000004" class="edge">
<title>Node10&#45;&gt;Node4</title>
<g id="a_edge12_Node000010_Node000004"><a xlink:title=" ">
<path fill="none" stroke="#63b8ff" d="M508.25,-109.63C516.5,-96.72 528.8,-72.38 518,-55 508.47,-39.65 491.9,-29.44 475.55,-22.71"/>
<polygon fill="#63b8ff" stroke="#63b8ff" points="476.61,-19.37 466.01,-19.15 474.15,-25.93 476.61,-19.37"/>
</a>
</g>
</g>
<!-- Node11 -->
<g id="Node000011" class="node">
<title>Node11</title>
<g id="a_Node000011"><a xlink:href="def_8h.html" target="_top" xlink:title=" ">
<polygon fill="#fff0f0" stroke="red" points="642.5,-74 565.5,-74 565.5,-55 642.5,-55 642.5,-74"/>
<text text-anchor="middle" x="604" y="-62" font-family="Helvetica,sans-Serif" font-size="10.00">../iface/def.h</text>
</a>
</g>
</g>
<!-- Node10&#45;&gt;Node11 -->
<g id="edge9_Node000010_Node000011" class="edge">
<title>Node10&#45;&gt;Node11</title>
<g id="a_edge9_Node000010_Node000011"><a xlink:title=" ">
<path fill="none" stroke="#63b8ff" d="M518.39,-109.98C534.57,-101.57 559.57,-88.59 578.38,-78.81"/>
<polygon fill="#63b8ff" stroke="#63b8ff" points="580.05,-81.89 587.31,-74.17 576.83,-75.68 580.05,-81.89"/>
</a>
</g>
</g>
<!-- Node19 -->
<g id="Node000019" class="node">
<title>Node19</title>
<g id="a_Node000019"><a xlink:href="exceptions_8hpp.html" target="_top" xlink:title=" ">
<polygon fill="#fff0f0" stroke="red" points="757.5,-74 660.5,-74 660.5,-55 757.5,-55 757.5,-74"/>
<text text-anchor="middle" x="709" y="-62" font-family="Helvetica,sans-Serif" font-size="10.00">./exceptions.hpp</text>
</a>
</g>
</g>
<!-- Node10&#45;&gt;Node19 -->
<g id="edge10_Node000010_Node000019" class="edge">
<title>Node10&#45;&gt;Node19</title>
<g id="a_edge10_Node000010_Node000019"><a xlink:title=" ">
<path fill="none" stroke="#63b8ff" d="M535.26,-109.98C570.61,-100.93 626.67,-86.58 665.51,-76.64"/>
<polygon fill="#63b8ff" stroke="#63b8ff" points="666.66,-79.95 675.48,-74.08 664.93,-73.17 666.66,-79.95"/>
</a>
</g>
</g>
<!-- Node21 -->
<g id="Node000021" class="node">
<title>Node21</title>
<g id="a_Node000021"><a xlink:title=" ">
<polygon fill="#e0e0e0" stroke="#999999" points="508.5,-74 365.5,-74 365.5,-55 508.5,-55 508.5,-74"/>
<text text-anchor="middle" x="437" y="-62" font-family="Helvetica,sans-Serif" font-size="10.00">boost/asio/serial_port.hpp</text>
</a>
</g>
</g>
<!-- Node10&#45;&gt;Node21 -->
<g id="edge13_Node000010_Node000021" class="edge">
<title>Node10&#45;&gt;Node21</title>
<g id="a_edge13_Node000010_Node000021"><a xlink:title=" ">
<path fill="none" stroke="#63b8ff" d="M491.56,-109.98C481.85,-102.07 467.18,-90.11 455.5,-80.58"/>
<polygon fill="#63b8ff" stroke="#63b8ff" points="457.6,-77.78 447.63,-74.17 453.17,-83.2 457.6,-77.78"/>
</a>
</g>
</g>
</g>
</svg>
