<?xml version="1.0" encoding="UTF-8" standalone="no"?>
<!DOCTYPE svg PUBLIC "-//W3C//DTD SVG 1.1//EN"
 "http://www.w3.org/Graphics/SVG/1.1/DTD/svg11.dtd">
<!-- Generated by graphviz version 2.43.0 (0)
 -->
<!-- Title: src/scmdio/pid_autotune_cmd.cpp Pages: 1 -->
<svg width="691pt" height="203pt"
 viewBox="0.00 0.00 690.50 203.00" xmlns="http://www.w3.org/2000/svg" xmlns:xlink="http://www.w3.org/1999/xlink">
<g id="graph0" class="graph" transform="scale(1 1) rotate(0) translate(4 199)">
<title>src/scmdio/pid_autotune_cmd.cpp</title>
<!-- Node1 -->
<g id="Node000001" class="node">
<title>Node1</title>
<g id="a_Node000001"><a xlink:title=" ">
<polygon fill="#999999" stroke="#666666" points="411,-195 275,-195 275,-165 411,-165 411,-195"/>
<text text-anchor="start" x="283" y="-183" font-family="Helvetica,sans-Serif" font-size="10.00">src/scmdio/pid_autotune</text>
<text text-anchor="middle" x="343" y="-172" font-family="Helvetica,sans-Serif" font-size="10.00">_cmd.cpp</text>
</a>
</g>
</g>
<!-- Node2 -->
<g id="Node000002" class="node">
<title>Node2</title>
<g id="a_Node000002"><a xlink:href="pid__autotune__cmd_8hpp.html" target="_top" xlink:title=" ">
<polygon fill="white" stroke="#666666" points="410,-129 276,-129 276,-110 410,-110 410,-129"/>
<text text-anchor="middle" x="343" y="-117" font-family="Helvetica,sans-Serif" font-size="10.00">./pid_autotune_cmd.hpp</text>
</a>
</g>
</g>
<!-- Node1&#45;&gt;Node2 -->
<g id="edge1_Node000001_Node000002" class="edge">
<title>Node1&#45;&gt;Node2</title>
<g id="a_edge1_Node000001_Node000002"><a xlink:title=" ">
<path fill="none" stroke="#63b8ff" d="M343,-164.84C343,-157.21 343,-147.7 343,-139.45"/>
<polygon fill="#63b8ff" stroke="#63b8ff" points="346.5,-139.27 343,-129.27 339.5,-139.27 346.5,-139.27"/>
</a>
</g>
</g>
<!-- Node7 -->
<g id="Node000007" class="node">
<title>Node7</title>
<g id="a_Node000007"><a xlink:href="pid__autotune_8hpp.html" target="_top" xlink:title=" ">
<polygon fill="white" stroke="#666666" points="257.5,-129 150.5,-129 150.5,-110 257.5,-110 257.5,-129"/>
<text text-anchor="middle" x="204" y="-117" font-family="Helvetica,sans-Serif" font-size="10.00">./pid_autotune.hpp</text>
</a>
</g>
</g>
<!-- Node1&#45;&gt;Node7 -->
<g id="edge4_Node000001_Node000007" class="edge">
<title>Node1&#45;&gt;Node7</title>
<g id="a_edge4_Node000001_Node000007"><a xlink:title=" ">
<path fill="none" stroke="#63b8ff" d="M309.71,-164.99C286.62,-155.27 256.13,-142.44 233.84,-133.06"/>
<polygon fill="#63b8ff" stroke="#63b8ff" points="235.1,-129.79 224.53,-129.14 232.39,-136.24 235.1,-129.79"/>
</a>
</g>
</g>
<!-- Node10 -->
<g id="Node000010" class="node">
<title>Node10</title>
<g id="a_Node000010"><a xlink:href="serial_8hpp.html" target="_top" xlink:title=" ">
<polygon fill="white" stroke="#666666" points="499.5,-129 428.5,-129 428.5,-110 499.5,-110 499.5,-129"/>
<text text-anchor="middle" x="464" y="-117" font-family="Helvetica,sans-Serif" font-size="10.00">./serial.hpp</text>
</a>
</g>
</g>
<!-- Node1&#45;&gt;Node10 -->
<g id="edge8_Node000001_Node000010" class="edge">
<title>Node1&#45;&gt;Node10</title>
<g id="a_edge8_Node000001_Node000010"><a xlink:title=" ">
<path fill="none" stroke="#63b8ff" d="M371.98,-164.99C391.72,-155.45 417.67,-142.9 436.97,-133.57"/>
<polygon fill="#63b8ff" stroke="#63b8ff" points="438.65,-136.64 446.13,-129.14 435.6,-130.34 438.65,-136.64"/>
</a>
</g>
</g>
<!-- Node3 -->
<g id="Node000003" class="node">
<title>Node3</title>
<g id="a_Node000003"><a xlink:href="async__cobs_8hpp.html" target="_top" xlink:title=" ">
<polygon fill="#fff0f0" stroke="red" points="388,-74 294,-74 294,-55 388,-55 388,-74"/>
<text text-anchor="middle" x="341" y="-62" font-family="Helvetica,sans-Serif" font-size="10.00">async_cobs.hpp</text>
</a>
</g>
</g>
<!-- Node2&#45;&gt;Node3 -->
<g id="edge2_Node000002_Node000003" class="edge">
<title>Node2&#45;&gt;Node3</title>
<g id="a_edge2_Node000002_Node000003"><a xlink:title=" ">
<path fill="none" stroke="#63b8ff" d="M342.67,-109.75C342.41,-102.8 342.03,-92.85 341.7,-84.13"/>
<polygon fill="#63b8ff" stroke="#63b8ff" points="345.2,-83.95 341.32,-74.09 338.2,-84.21 345.2,-83.95"/>
</a>
</g>
</g>
<!-- Node4 -->
<g id="Node000004" class="node">
<title>Node4</title>
<g id="a_Node000004"><a xlink:title=" ">
<polygon fill="#e0e0e0" stroke="#999999" points="422,-19 334,-19 334,0 422,0 422,-19"/>
<text text-anchor="middle" x="378" y="-7" font-family="Helvetica,sans-Serif" font-size="10.00">boost/asio.hpp</text>
</a>
</g>
</g>
<!-- Node3&#45;&gt;Node4 -->
<g id="edge3_Node000003_Node000004" class="edge">
<title>Node3&#45;&gt;Node4</title>
<g id="a_edge3_Node000003_Node000004"><a xlink:title=" ">
<path fill="none" stroke="#63b8ff" d="M347.11,-54.75C352.28,-47.34 359.85,-36.5 366.19,-27.41"/>
<polygon fill="#63b8ff" stroke="#63b8ff" points="369.15,-29.29 372,-19.09 363.41,-25.29 369.15,-29.29"/>
</a>
</g>
</g>
<!-- Node7&#45;&gt;Node3 -->
<g id="edge5_Node000007_Node000003" class="edge">
<title>Node7&#45;&gt;Node3</title>
<g id="a_edge5_Node000007_Node000003"><a xlink:title=" ">
<path fill="none" stroke="#63b8ff" d="M226.01,-109.98C248.45,-101.3 283.48,-87.75 308.99,-77.88"/>
<polygon fill="#63b8ff" stroke="#63b8ff" points="310.52,-81.04 318.59,-74.17 308,-74.51 310.52,-81.04"/>
</a>
</g>
</g>
<!-- Node8 -->
<g id="Node000008" class="node">
<title>Node8</title>
<g id="a_Node000008"><a xlink:title=" ">
<polygon fill="#e0e0e0" stroke="#999999" points="124,-74 0,-74 0,-55 124,-55 124,-74"/>
<text text-anchor="middle" x="62" y="-62" font-family="Helvetica,sans-Serif" font-size="10.00">emlabcpp/algorithm.h</text>
</a>
</g>
</g>
<!-- Node7&#45;&gt;Node8 -->
<g id="edge6_Node000007_Node000008" class="edge">
<title>Node7&#45;&gt;Node8</title>
<g id="a_edge6_Node000007_Node000008"><a xlink:title=" ">
<path fill="none" stroke="#63b8ff" d="M181.19,-109.98C157.83,-101.27 121.3,-87.63 94.83,-77.75"/>
<polygon fill="#63b8ff" stroke="#63b8ff" points="95.82,-74.39 85.23,-74.17 93.37,-80.95 95.82,-74.39"/>
</a>
</g>
</g>
<!-- Node9 -->
<g id="Node000009" class="node">
<title>Node9</title>
<g id="a_Node000009"><a xlink:title=" ">
<polygon fill="#e0e0e0" stroke="#999999" points="272,-74 142,-74 142,-55 272,-55 272,-74"/>
<text text-anchor="middle" x="207" y="-62" font-family="Helvetica,sans-Serif" font-size="10.00">emlabcpp/enumerate.h</text>
</a>
</g>
</g>
<!-- Node7&#45;&gt;Node9 -->
<g id="edge7_Node000007_Node000009" class="edge">
<title>Node7&#45;&gt;Node9</title>
<g id="a_edge7_Node000007_Node000009"><a xlink:title=" ">
<path fill="none" stroke="#63b8ff" d="M204.5,-109.75C204.89,-102.8 205.45,-92.85 205.95,-84.13"/>
<polygon fill="#63b8ff" stroke="#63b8ff" points="209.44,-84.27 206.51,-74.09 202.45,-83.88 209.44,-84.27"/>
</a>
</g>
</g>
<!-- Node10&#45;&gt;Node3 -->
<g id="edge10_Node000010_Node000003" class="edge">
<title>Node10&#45;&gt;Node3</title>
<g id="a_edge10_Node000010_Node000003"><a xlink:title=" ">
<path fill="none" stroke="#63b8ff" d="M444.24,-109.98C424.27,-101.38 393.2,-87.99 370.35,-78.15"/>
<polygon fill="#63b8ff" stroke="#63b8ff" points="371.69,-74.91 361.12,-74.17 368.92,-81.34 371.69,-74.91"/>
</a>
</g>
</g>
<!-- Node10&#45;&gt;Node4 -->
<g id="edge11_Node000010_Node000004" class="edge">
<title>Node10&#45;&gt;Node4</title>
<g id="a_edge11_Node000010_Node000004"><a xlink:title=" ">
<path fill="none" stroke="#63b8ff" d="M456.96,-109.66C442.59,-91.61 409.67,-50.28 391.2,-27.08"/>
<polygon fill="#63b8ff" stroke="#63b8ff" points="393.86,-24.8 384.89,-19.16 388.39,-29.16 393.86,-24.8"/>
</a>
</g>
</g>
<!-- Node11 -->
<g id="Node000011" class="node">
<title>Node11</title>
<g id="a_Node000011"><a xlink:href="def_8h.html" target="_top" xlink:title=" ">
<polygon fill="#fff0f0" stroke="red" points="521.5,-74 444.5,-74 444.5,-55 521.5,-55 521.5,-74"/>
<text text-anchor="middle" x="483" y="-62" font-family="Helvetica,sans-Serif" font-size="10.00">../iface/def.h</text>
</a>
</g>
</g>
<!-- Node10&#45;&gt;Node11 -->
<g id="edge9_Node000010_Node000011" class="edge">
<title>Node10&#45;&gt;Node11</title>
<g id="a_edge9_Node000010_Node000011"><a xlink:title=" ">
<path fill="none" stroke="#63b8ff" d="M467.14,-109.75C469.68,-102.65 473.36,-92.4 476.53,-83.56"/>
<polygon fill="#63b8ff" stroke="#63b8ff" points="479.84,-84.68 479.92,-74.09 473.25,-82.32 479.84,-84.68"/>
</a>
</g>
</g>
<!-- Node19 -->
<g id="Node000019" class="node">
<title>Node19</title>
<g id="a_Node000019"><a xlink:title=" ">
<polygon fill="#e0e0e0" stroke="#999999" points="682.5,-74 539.5,-74 539.5,-55 682.5,-55 682.5,-74"/>
<text text-anchor="middle" x="611" y="-62" font-family="Helvetica,sans-Serif" font-size="10.00">boost/asio/serial_port.hpp</text>
</a>
</g>
</g>
<!-- Node10&#45;&gt;Node19 -->
<g id="edge12_Node000010_Node000019" class="edge">
<title>Node10&#45;&gt;Node19</title>
<g id="a_edge12_Node000010_Node000019"><a xlink:title=" ">
<path fill="none" stroke="#63b8ff" d="M487.62,-109.98C511.9,-101.23 549.95,-87.51 577.37,-77.62"/>
<polygon fill="#63b8ff" stroke="#63b8ff" points="578.73,-80.85 586.95,-74.17 576.36,-74.27 578.73,-80.85"/>
</a>
</g>
</g>
</g>
</svg>
