<?xml version="1.0" encoding="UTF-8" standalone="no"?>
<!DOCTYPE svg PUBLIC "-//W3C//DTD SVG 1.1//EN"
 "http://www.w3.org/Graphics/SVG/1.1/DTD/svg11.dtd">
<!-- Generated by graphviz version 2.43.0 (0)
 -->
<!-- Title: platforms/stm32h5/uart.cpp Pages: 1 -->
<svg width="645pt" height="140pt"
 viewBox="0.00 0.00 645.00 140.00" xmlns="http://www.w3.org/2000/svg" xmlns:xlink="http://www.w3.org/1999/xlink">
<g id="graph0" class="graph" transform="scale(1 1) rotate(0) translate(4 136)">
<title>platforms/stm32h5/uart.cpp</title>
<polygon fill="white" stroke="transparent" points="-4,4 -4,-136 641,-136 641,4 -4,4"/>
<!-- Node1 -->
<g id="node1" class="node">
<title>Node1</title>
<g id="a_node1"><a xlink:title=" ">
<polygon fill="#bfbfbf" stroke="black" points="266,-112.5 266,-131.5 418,-131.5 418,-112.5 266,-112.5"/>
<text text-anchor="middle" x="342" y="-119.5" font-family="Helvetica,sans-Serif" font-size="10.00">platforms/stm32h5/uart.cpp</text>
</a>
</g>
</g>
<!-- Node2 -->
<g id="node2" class="node">
<title>Node2</title>
<g id="a_node2"><a xlink:href="util_8hpp.html" target="_top" xlink:title=" ">
<polygon fill="white" stroke="black" points="73,-56.5 73,-75.5 141,-75.5 141,-56.5 73,-56.5"/>
<text text-anchor="middle" x="107" y="-63.5" font-family="Helvetica,sans-Serif" font-size="10.00">fw/util.hpp</text>
</a>
</g>
</g>
<!-- Node1&#45;&gt;Node2 -->
<g id="edge1" class="edge">
<title>Node1&#45;&gt;Node2</title>
<path fill="none" stroke="midnightblue" d="M304.76,-112.44C262.98,-102.84 195.26,-87.28 150.92,-77.09"/>
<polygon fill="midnightblue" stroke="midnightblue" points="151.54,-73.64 141.01,-74.82 149.97,-80.47 151.54,-73.64"/>
</g>
<!-- Node5 -->
<g id="node5" class="node">
<title>Node5</title>
<g id="a_node5"><a xlink:href="platforms_2stm32h5_2setup_8hpp.html" target="_top" xlink:title=" ">
<polygon fill="white" stroke="black" points="309.5,-56.5 309.5,-75.5 374.5,-75.5 374.5,-56.5 309.5,-56.5"/>
<text text-anchor="middle" x="342" y="-63.5" font-family="Helvetica,sans-Serif" font-size="10.00">setup.hpp</text>
</a>
</g>
</g>
<!-- Node1&#45;&gt;Node5 -->
<g id="edge4" class="edge">
<title>Node1&#45;&gt;Node5</title>
<path fill="none" stroke="midnightblue" d="M342,-112.08C342,-105.01 342,-94.86 342,-85.99"/>
<polygon fill="midnightblue" stroke="midnightblue" points="345.5,-85.75 342,-75.75 338.5,-85.75 345.5,-85.75"/>
</g>
<!-- Node32 -->
<g id="node11" class="node">
<title>Node32</title>
<g id="a_node11"><a xlink:title=" ">
<polygon fill="white" stroke="#bfbfbf" points="392.5,-56.5 392.5,-75.5 441.5,-75.5 441.5,-56.5 392.5,-56.5"/>
<text text-anchor="middle" x="417" y="-63.5" font-family="Helvetica,sans-Serif" font-size="10.00">cstdlib</text>
</a>
</g>
</g>
<!-- Node1&#45;&gt;Node32 -->
<g id="edge10" class="edge">
<title>Node1&#45;&gt;Node32</title>
<path fill="none" stroke="midnightblue" d="M354.05,-112.32C365.46,-104.11 382.83,-91.6 396.43,-81.81"/>
<polygon fill="midnightblue" stroke="midnightblue" points="398.66,-84.52 404.73,-75.83 394.57,-78.84 398.66,-84.52"/>
</g>
<!-- Node3 -->
<g id="node3" class="node">
<title>Node3</title>
<g id="a_node3"><a xlink:title=" ">
<polygon fill="white" stroke="#bfbfbf" points="0,-0.5 0,-19.5 64,-19.5 64,-0.5 0,-0.5"/>
<text text-anchor="middle" x="32" y="-7.5" font-family="Helvetica,sans-Serif" font-size="10.00">algorithm</text>
</a>
</g>
</g>
<!-- Node2&#45;&gt;Node3 -->
<g id="edge2" class="edge">
<title>Node2&#45;&gt;Node3</title>
<path fill="none" stroke="midnightblue" d="M94.95,-56.32C83.54,-48.11 66.17,-35.6 52.57,-25.81"/>
<polygon fill="midnightblue" stroke="midnightblue" points="54.43,-22.84 44.27,-19.83 50.34,-28.52 54.43,-22.84"/>
</g>
<!-- Node4 -->
<g id="node4" class="node">
<title>Node4</title>
<g id="a_node4"><a xlink:title=" ">
<polygon fill="white" stroke="#bfbfbf" points="82,-0.5 82,-19.5 132,-19.5 132,-0.5 82,-0.5"/>
<text text-anchor="middle" x="107" y="-7.5" font-family="Helvetica,sans-Serif" font-size="10.00">cstring</text>
</a>
</g>
</g>
<!-- Node2&#45;&gt;Node4 -->
<g id="edge3" class="edge">
<title>Node2&#45;&gt;Node4</title>
<path fill="none" stroke="midnightblue" d="M107,-56.08C107,-49.01 107,-38.86 107,-29.99"/>
<polygon fill="midnightblue" stroke="midnightblue" points="110.5,-29.75 107,-19.75 103.5,-29.75 110.5,-29.75"/>
</g>
<!-- Node6 -->
<g id="node6" class="node">
<title>Node6</title>
<g id="a_node6"><a xlink:href="map_8hpp.html" target="_top" xlink:title=" ">
<polygon fill="white" stroke="red" points="150.5,-0.5 150.5,-19.5 227.5,-19.5 227.5,-0.5 150.5,-0.5"/>
<text text-anchor="middle" x="189" y="-7.5" font-family="Helvetica,sans-Serif" font-size="10.00">cfg/map.hpp</text>
</a>
</g>
</g>
<!-- Node5&#45;&gt;Node6 -->
<g id="edge5" class="edge">
<title>Node5&#45;&gt;Node6</title>
<path fill="none" stroke="midnightblue" d="M317.76,-56.44C292.13,-47.4 251.51,-33.06 222.76,-22.92"/>
<polygon fill="midnightblue" stroke="midnightblue" points="223.72,-19.54 213.13,-19.52 221.39,-26.15 223.72,-19.54"/>
</g>
<!-- Node18 -->
<g id="node7" class="node">
<title>Node18</title>
<g id="a_node7"><a xlink:href="board_8hpp.html" target="_top" xlink:title=" ">
<polygon fill="white" stroke="red" points="246,-0.5 246,-19.5 326,-19.5 326,-0.5 246,-0.5"/>
<text text-anchor="middle" x="286" y="-7.5" font-family="Helvetica,sans-Serif" font-size="10.00">fw/board.hpp</text>
</a>
</g>
</g>
<!-- Node5&#45;&gt;Node18 -->
<g id="edge6" class="edge">
<title>Node5&#45;&gt;Node18</title>
<path fill="none" stroke="midnightblue" d="M333,-56.32C324.81,-48.42 312.49,-36.55 302.53,-26.94"/>
<polygon fill="midnightblue" stroke="midnightblue" points="304.79,-24.26 295.16,-19.83 299.93,-29.29 304.79,-24.26"/>
</g>
<!-- Node25 -->
<g id="node8" class="node">
<title>Node25</title>
<g id="a_node8"><a xlink:href="hbridge_8hpp.html" target="_top" xlink:title=" ">
<polygon fill="white" stroke="red" points="344.5,-0.5 344.5,-19.5 451.5,-19.5 451.5,-0.5 344.5,-0.5"/>
<text text-anchor="middle" x="398" y="-7.5" font-family="Helvetica,sans-Serif" font-size="10.00">fw/drv/hbridge.hpp</text>
</a>
</g>
</g>
<!-- Node5&#45;&gt;Node25 -->
<g id="edge7" class="edge">
<title>Node5&#45;&gt;Node25</title>
<path fill="none" stroke="midnightblue" d="M351,-56.32C359.19,-48.42 371.51,-36.55 381.47,-26.94"/>
<polygon fill="midnightblue" stroke="midnightblue" points="384.07,-29.29 388.84,-19.83 379.21,-24.26 384.07,-29.29"/>
</g>
<!-- Node30 -->
<g id="node9" class="node">
<title>Node30</title>
<g id="a_node9"><a xlink:href="leds_8hpp.html" target="_top" xlink:title=" ">
<polygon fill="white" stroke="red" points="469.5,-0.5 469.5,-19.5 560.5,-19.5 560.5,-0.5 469.5,-0.5"/>
<text text-anchor="middle" x="515" y="-7.5" font-family="Helvetica,sans-Serif" font-size="10.00">fw/drv/leds.hpp</text>
</a>
</g>
</g>
<!-- Node5&#45;&gt;Node30 -->
<g id="edge8" class="edge">
<title>Node5&#45;&gt;Node30</title>
<path fill="none" stroke="midnightblue" d="M369.41,-56.44C398.77,-47.28 445.52,-32.69 478.1,-22.52"/>
<polygon fill="midnightblue" stroke="midnightblue" points="479.21,-25.84 487.72,-19.52 477.13,-19.16 479.21,-25.84"/>
</g>
<!-- Node31 -->
<g id="node10" class="node">
<title>Node31</title>
<g id="a_node10"><a xlink:title=" ">
<polygon fill="white" stroke="#bfbfbf" points="579,-0.5 579,-19.5 637,-19.5 637,-0.5 579,-0.5"/>
<text text-anchor="middle" x="608" y="-7.5" font-family="Helvetica,sans-Serif" font-size="10.00">memory</text>
</a>
</g>
</g>
<!-- Node5&#45;&gt;Node31 -->
<g id="edge9" class="edge">
<title>Node5&#45;&gt;Node31</title>
<path fill="none" stroke="midnightblue" d="M374.55,-57.96C377.74,-57.29 380.93,-56.63 384,-56 463.44,-39.8 486.03,-37.84 569.1,-20.12"/>
<polygon fill="midnightblue" stroke="midnightblue" points="569.94,-23.52 578.98,-18 568.47,-16.68 569.94,-23.52"/>
</g>
</g>
</svg>
