<?xml version="1.0" encoding="UTF-8" standalone="no"?>
<!DOCTYPE svg PUBLIC "-//W3C//DTD SVG 1.1//EN"
 "http://www.w3.org/Graphics/SVG/1.1/DTD/svg11.dtd">
<!-- Generated by graphviz version 2.43.0 (0)
 -->
<!-- Title: platforms/stm32h5/adc.cpp Pages: 1 -->
<svg width="392pt" height="252pt"
 viewBox="0.00 0.00 391.50 252.00" xmlns="http://www.w3.org/2000/svg" xmlns:xlink="http://www.w3.org/1999/xlink">
<g id="graph0" class="graph" transform="scale(1 1) rotate(0) translate(4 248)">
<title>platforms/stm32h5/adc.cpp</title>
<polygon fill="white" stroke="transparent" points="-4,4 -4,-248 387.5,-248 387.5,4 -4,4"/>
<!-- Node1 -->
<g id="node1" class="node">
<title>Node1</title>
<g id="a_node1"><a xlink:title=" ">
<polygon fill="#bfbfbf" stroke="black" points="0,-224.5 0,-243.5 150,-243.5 150,-224.5 0,-224.5"/>
<text text-anchor="middle" x="75" y="-231.5" font-family="Helvetica,sans-Serif" font-size="10.00">platforms/stm32h5/adc.cpp</text>
</a>
</g>
</g>
<!-- Node2 -->
<g id="node2" class="node">
<title>Node2</title>
<g id="a_node2"><a xlink:href="platform_8hpp.html" target="_top" xlink:title=" ">
<polygon fill="white" stroke="black" points="181,-56.5 181,-75.5 261,-75.5 261,-56.5 181,-56.5"/>
<text text-anchor="middle" x="221" y="-63.5" font-family="Helvetica,sans-Serif" font-size="10.00">platform.hpp</text>
</a>
</g>
</g>
<!-- Node1&#45;&gt;Node2 -->
<g id="edge1" class="edge">
<title>Node1&#45;&gt;Node2</title>
<path fill="none" stroke="midnightblue" d="M70.16,-224.31C58.92,-202.81 33.9,-146.4 60,-112 73.45,-94.27 128.56,-81.64 170.59,-74.35"/>
<polygon fill="midnightblue" stroke="midnightblue" points="171.41,-77.76 180.69,-72.66 170.25,-70.86 171.41,-77.76"/>
</g>
<!-- Node4 -->
<g id="node4" class="node">
<title>Node4</title>
<g id="a_node4"><a xlink:href="platforms_2stm32h5_2setup_8hpp.html" target="_top" xlink:title=" ">
<polygon fill="white" stroke="black" points="132.5,-168.5 132.5,-187.5 197.5,-187.5 197.5,-168.5 132.5,-168.5"/>
<text text-anchor="middle" x="165" y="-175.5" font-family="Helvetica,sans-Serif" font-size="10.00">setup.hpp</text>
</a>
</g>
</g>
<!-- Node1&#45;&gt;Node4 -->
<g id="edge3" class="edge">
<title>Node1&#45;&gt;Node4</title>
<path fill="none" stroke="midnightblue" d="M89.46,-224.32C103.5,-215.9 125.05,-202.97 141.54,-193.07"/>
<polygon fill="midnightblue" stroke="midnightblue" points="143.8,-195.8 150.58,-187.65 140.2,-189.8 143.8,-195.8"/>
</g>
<!-- Node3 -->
<g id="node3" class="node">
<title>Node3</title>
<g id="a_node3"><a xlink:title=" ">
<polygon fill="white" stroke="#bfbfbf" points="194.5,-0.5 194.5,-19.5 247.5,-19.5 247.5,-0.5 194.5,-0.5"/>
<text text-anchor="middle" x="221" y="-7.5" font-family="Helvetica,sans-Serif" font-size="10.00">hal.hpp</text>
</a>
</g>
</g>
<!-- Node2&#45;&gt;Node3 -->
<g id="edge2" class="edge">
<title>Node2&#45;&gt;Node3</title>
<path fill="none" stroke="midnightblue" d="M221,-56.08C221,-49.01 221,-38.86 221,-29.99"/>
<polygon fill="midnightblue" stroke="midnightblue" points="224.5,-29.75 221,-19.75 217.5,-29.75 224.5,-29.75"/>
</g>
<!-- Node5 -->
<g id="node5" class="node">
<title>Node5</title>
<g id="a_node5"><a xlink:href="board_8hpp.html" target="_top" xlink:title=" ">
<polygon fill="white" stroke="red" points="69,-112.5 69,-131.5 149,-131.5 149,-112.5 69,-112.5"/>
<text text-anchor="middle" x="109" y="-119.5" font-family="Helvetica,sans-Serif" font-size="10.00">fw/board.hpp</text>
</a>
</g>
</g>
<!-- Node4&#45;&gt;Node5 -->
<g id="edge4" class="edge">
<title>Node4&#45;&gt;Node5</title>
<path fill="none" stroke="midnightblue" d="M156,-168.32C147.81,-160.42 135.49,-148.55 125.53,-138.94"/>
<polygon fill="midnightblue" stroke="midnightblue" points="127.79,-136.26 118.16,-131.83 122.93,-141.29 127.79,-136.26"/>
</g>
<!-- Node19 -->
<g id="node6" class="node">
<title>Node19</title>
<g id="a_node6"><a xlink:href="hbridge_8hpp.html" target="_top" xlink:title=" ">
<polygon fill="white" stroke="red" points="167.5,-112.5 167.5,-131.5 274.5,-131.5 274.5,-112.5 167.5,-112.5"/>
<text text-anchor="middle" x="221" y="-119.5" font-family="Helvetica,sans-Serif" font-size="10.00">fw/drv/hbridge.hpp</text>
</a>
</g>
</g>
<!-- Node4&#45;&gt;Node19 -->
<g id="edge5" class="edge">
<title>Node4&#45;&gt;Node19</title>
<path fill="none" stroke="midnightblue" d="M174,-168.32C182.19,-160.42 194.51,-148.55 204.47,-138.94"/>
<polygon fill="midnightblue" stroke="midnightblue" points="207.07,-141.29 211.84,-131.83 202.21,-136.26 207.07,-141.29"/>
</g>
<!-- Node22 -->
<g id="node7" class="node">
<title>Node22</title>
<g id="a_node7"><a xlink:href="leds_8hpp.html" target="_top" xlink:title=" ">
<polygon fill="white" stroke="red" points="292.5,-112.5 292.5,-131.5 383.5,-131.5 383.5,-112.5 292.5,-112.5"/>
<text text-anchor="middle" x="338" y="-119.5" font-family="Helvetica,sans-Serif" font-size="10.00">fw/drv/leds.hpp</text>
</a>
</g>
</g>
<!-- Node4&#45;&gt;Node22 -->
<g id="edge7" class="edge">
<title>Node4&#45;&gt;Node22</title>
<path fill="none" stroke="midnightblue" d="M192.41,-168.44C221.77,-159.28 268.52,-144.69 301.1,-134.52"/>
<polygon fill="midnightblue" stroke="midnightblue" points="302.21,-137.84 310.72,-131.52 300.13,-131.16 302.21,-137.84"/>
</g>
<!-- Node19&#45;&gt;Node2 -->
<g id="edge6" class="edge">
<title>Node19&#45;&gt;Node2</title>
<path fill="none" stroke="midnightblue" d="M221,-112.08C221,-105.01 221,-94.86 221,-85.99"/>
<polygon fill="midnightblue" stroke="midnightblue" points="224.5,-85.75 221,-75.75 217.5,-85.75 224.5,-85.75"/>
</g>
<!-- Node22&#45;&gt;Node2 -->
<g id="edge8" class="edge">
<title>Node22&#45;&gt;Node2</title>
<path fill="none" stroke="midnightblue" d="M319.46,-112.44C300.38,-103.64 270.43,-89.81 248.56,-79.72"/>
<polygon fill="midnightblue" stroke="midnightblue" points="250,-76.53 239.45,-75.52 247.07,-82.88 250,-76.53"/>
</g>
</g>
</svg>
