<?xml version="1.0" encoding="UTF-8" standalone="no"?>
<!DOCTYPE svg PUBLIC "-//W3C//DTD SVG 1.1//EN"
 "http://www.w3.org/Graphics/SVG/1.1/DTD/svg11.dtd">
<!-- Generated by graphviz version 2.43.0 (0)
 -->
<!-- Title: platforms/stm32h5/adc.cpp Pages: 1 -->
<svg width="562pt" height="252pt"
 viewBox="0.00 0.00 562.00 252.00" xmlns="http://www.w3.org/2000/svg" xmlns:xlink="http://www.w3.org/1999/xlink">
<g id="graph0" class="graph" transform="scale(1 1) rotate(0) translate(4 248)">
<title>platforms/stm32h5/adc.cpp</title>
<polygon fill="white" stroke="transparent" points="-4,4 -4,-248 558,-248 558,4 -4,4"/>
<!-- Node1 -->
<g id="node1" class="node">
<title>Node1</title>
<g id="a_node1"><a xlink:title=" ">
<polygon fill="#bfbfbf" stroke="black" points="89,-224.5 89,-243.5 239,-243.5 239,-224.5 89,-224.5"/>
<text text-anchor="middle" x="164" y="-231.5" font-family="Helvetica,sans-Serif" font-size="10.00">platforms/stm32h5/adc.cpp</text>
</a>
</g>
</g>
<!-- Node2 -->
<g id="node2" class="node">
<title>Node2</title>
<g id="a_node2"><a xlink:href="util_8hpp.html" target="_top" xlink:title=" ">
<polygon fill="white" stroke="black" points="68,-168.5 68,-187.5 136,-187.5 136,-168.5 68,-168.5"/>
<text text-anchor="middle" x="102" y="-175.5" font-family="Helvetica,sans-Serif" font-size="10.00">fw/util.hpp</text>
</a>
</g>
</g>
<!-- Node1&#45;&gt;Node2 -->
<g id="edge1" class="edge">
<title>Node1&#45;&gt;Node2</title>
<path fill="none" stroke="midnightblue" d="M154.04,-224.32C144.87,-216.34 131.06,-204.31 119.97,-194.65"/>
<polygon fill="midnightblue" stroke="midnightblue" points="121.98,-191.76 112.14,-187.83 117.38,-197.04 121.98,-191.76"/>
</g>
<!-- Node5 -->
<g id="node5" class="node">
<title>Node5</title>
<g id="a_node5"><a xlink:href="platform_8hpp.html" target="_top" xlink:title=" ">
<polygon fill="white" stroke="black" points="258,-56.5 258,-75.5 338,-75.5 338,-56.5 258,-56.5"/>
<text text-anchor="middle" x="298" y="-63.5" font-family="Helvetica,sans-Serif" font-size="10.00">platform.hpp</text>
</a>
</g>
</g>
<!-- Node1&#45;&gt;Node5 -->
<g id="edge4" class="edge">
<title>Node1&#45;&gt;Node5</title>
<path fill="none" stroke="midnightblue" d="M162.67,-224.24C159.9,-202.57 155.83,-145.82 183,-112 198.98,-92.11 224.95,-80.99 248.17,-74.78"/>
<polygon fill="midnightblue" stroke="midnightblue" points="249.03,-78.17 257.92,-72.41 247.38,-71.37 249.03,-78.17"/>
</g>
<!-- Node7 -->
<g id="node7" class="node">
<title>Node7</title>
<g id="a_node7"><a xlink:href="platforms_2stm32h5_2setup_8hpp.html" target="_top" xlink:title=" ">
<polygon fill="white" stroke="black" points="295.5,-168.5 295.5,-187.5 360.5,-187.5 360.5,-168.5 295.5,-168.5"/>
<text text-anchor="middle" x="328" y="-175.5" font-family="Helvetica,sans-Serif" font-size="10.00">setup.hpp</text>
</a>
</g>
</g>
<!-- Node1&#45;&gt;Node7 -->
<g id="edge6" class="edge">
<title>Node1&#45;&gt;Node7</title>
<path fill="none" stroke="midnightblue" d="M189.99,-224.44C217.7,-215.32 261.75,-200.81 292.62,-190.65"/>
<polygon fill="midnightblue" stroke="midnightblue" points="293.73,-193.97 302.14,-187.52 291.54,-187.32 293.73,-193.97"/>
</g>
<!-- Node3 -->
<g id="node3" class="node">
<title>Node3</title>
<g id="a_node3"><a xlink:title=" ">
<polygon fill="white" stroke="#bfbfbf" points="0,-112.5 0,-131.5 64,-131.5 64,-112.5 0,-112.5"/>
<text text-anchor="middle" x="32" y="-119.5" font-family="Helvetica,sans-Serif" font-size="10.00">algorithm</text>
</a>
</g>
</g>
<!-- Node2&#45;&gt;Node3 -->
<g id="edge2" class="edge">
<title>Node2&#45;&gt;Node3</title>
<path fill="none" stroke="midnightblue" d="M90.75,-168.32C80.2,-160.18 64.2,-147.84 51.56,-138.09"/>
<polygon fill="midnightblue" stroke="midnightblue" points="53.51,-135.17 43.45,-131.83 49.23,-140.71 53.51,-135.17"/>
</g>
<!-- Node4 -->
<g id="node4" class="node">
<title>Node4</title>
<g id="a_node4"><a xlink:title=" ">
<polygon fill="white" stroke="#bfbfbf" points="82,-112.5 82,-131.5 132,-131.5 132,-112.5 82,-112.5"/>
<text text-anchor="middle" x="107" y="-119.5" font-family="Helvetica,sans-Serif" font-size="10.00">cstring</text>
</a>
</g>
</g>
<!-- Node2&#45;&gt;Node4 -->
<g id="edge3" class="edge">
<title>Node2&#45;&gt;Node4</title>
<path fill="none" stroke="midnightblue" d="M102.83,-168.08C103.48,-161.01 104.42,-150.86 105.24,-141.99"/>
<polygon fill="midnightblue" stroke="midnightblue" points="108.75,-142.03 106.19,-131.75 101.78,-141.39 108.75,-142.03"/>
</g>
<!-- Node6 -->
<g id="node6" class="node">
<title>Node6</title>
<g id="a_node6"><a xlink:title=" ">
<polygon fill="white" stroke="#bfbfbf" points="271.5,-0.5 271.5,-19.5 324.5,-19.5 324.5,-0.5 271.5,-0.5"/>
<text text-anchor="middle" x="298" y="-7.5" font-family="Helvetica,sans-Serif" font-size="10.00">hal.hpp</text>
</a>
</g>
</g>
<!-- Node5&#45;&gt;Node6 -->
<g id="edge5" class="edge">
<title>Node5&#45;&gt;Node6</title>
<path fill="none" stroke="midnightblue" d="M298,-56.08C298,-49.01 298,-38.86 298,-29.99"/>
<polygon fill="midnightblue" stroke="midnightblue" points="301.5,-29.75 298,-19.75 294.5,-29.75 301.5,-29.75"/>
</g>
<!-- Node8 -->
<g id="node8" class="node">
<title>Node8</title>
<g id="a_node8"><a xlink:href="map_8hpp.html" target="_top" xlink:title=" ">
<polygon fill="white" stroke="red" points="192.5,-112.5 192.5,-131.5 269.5,-131.5 269.5,-112.5 192.5,-112.5"/>
<text text-anchor="middle" x="231" y="-119.5" font-family="Helvetica,sans-Serif" font-size="10.00">cfg/map.hpp</text>
</a>
</g>
</g>
<!-- Node7&#45;&gt;Node8 -->
<g id="edge7" class="edge">
<title>Node7&#45;&gt;Node8</title>
<path fill="none" stroke="midnightblue" d="M312.42,-168.32C297,-159.74 273.19,-146.49 255.29,-136.52"/>
<polygon fill="midnightblue" stroke="midnightblue" points="256.99,-133.46 246.55,-131.65 253.58,-139.58 256.99,-133.46"/>
</g>
<!-- Node18 -->
<g id="node9" class="node">
<title>Node18</title>
<g id="a_node9"><a xlink:href="board_8hpp.html" target="_top" xlink:title=" ">
<polygon fill="white" stroke="red" points="288,-112.5 288,-131.5 368,-131.5 368,-112.5 288,-112.5"/>
<text text-anchor="middle" x="328" y="-119.5" font-family="Helvetica,sans-Serif" font-size="10.00">fw/board.hpp</text>
</a>
</g>
</g>
<!-- Node7&#45;&gt;Node18 -->
<g id="edge8" class="edge">
<title>Node7&#45;&gt;Node18</title>
<path fill="none" stroke="midnightblue" d="M328,-168.08C328,-161.01 328,-150.86 328,-141.99"/>
<polygon fill="midnightblue" stroke="midnightblue" points="331.5,-141.75 328,-131.75 324.5,-141.75 331.5,-141.75"/>
</g>
<!-- Node25 -->
<g id="node10" class="node">
<title>Node25</title>
<g id="a_node10"><a xlink:href="defs_8hpp.html" target="_top" xlink:title=" ">
<polygon fill="white" stroke="black" points="386,-112.5 386,-131.5 478,-131.5 478,-112.5 386,-112.5"/>
<text text-anchor="middle" x="432" y="-119.5" font-family="Helvetica,sans-Serif" font-size="10.00">fw/drv/defs.hpp</text>
</a>
</g>
</g>
<!-- Node7&#45;&gt;Node25 -->
<g id="edge9" class="edge">
<title>Node7&#45;&gt;Node25</title>
<path fill="none" stroke="midnightblue" d="M344.71,-168.32C361.31,-159.7 387,-146.36 406.22,-136.39"/>
<polygon fill="midnightblue" stroke="midnightblue" points="408.07,-139.37 415.33,-131.65 404.84,-133.16 408.07,-139.37"/>
</g>
<!-- Node26 -->
<g id="node11" class="node">
<title>Node26</title>
<g id="a_node11"><a xlink:title=" ">
<polygon fill="white" stroke="#bfbfbf" points="496,-112.5 496,-131.5 554,-131.5 554,-112.5 496,-112.5"/>
<text text-anchor="middle" x="525" y="-119.5" font-family="Helvetica,sans-Serif" font-size="10.00">memory</text>
</a>
</g>
</g>
<!-- Node7&#45;&gt;Node26 -->
<g id="edge11" class="edge">
<title>Node7&#45;&gt;Node26</title>
<path fill="none" stroke="midnightblue" d="M359.22,-168.44C393.53,-159.04 448.71,-143.91 485.88,-133.72"/>
<polygon fill="midnightblue" stroke="midnightblue" points="487.14,-137.01 495.86,-130.99 485.29,-130.26 487.14,-137.01"/>
</g>
<!-- Node25&#45;&gt;Node5 -->
<g id="edge10" class="edge">
<title>Node25&#45;&gt;Node5</title>
<path fill="none" stroke="midnightblue" d="M410.77,-112.44C388.62,-103.52 353.68,-89.44 328.56,-79.32"/>
<polygon fill="midnightblue" stroke="midnightblue" points="329.72,-76.01 319.13,-75.52 327.1,-82.5 329.72,-76.01"/>
</g>
</g>
</svg>
