<?xml version="1.0" encoding="UTF-8" standalone="no"?>
<!DOCTYPE svg PUBLIC "-//W3C//DTD SVG 1.1//EN"
 "http://www.w3.org/Graphics/SVG/1.1/DTD/svg11.dtd">
<!-- Generated by graphviz version 2.43.0 (0)
 -->
<!-- Title: platforms/stm32h5/config.cpp Pages: 1 -->
<svg width="495pt" height="196pt"
 viewBox="0.00 0.00 495.00 196.00" xmlns="http://www.w3.org/2000/svg" xmlns:xlink="http://www.w3.org/1999/xlink">
<g id="graph0" class="graph" transform="scale(1 1) rotate(0) translate(4 192)">
<title>platforms/stm32h5/config.cpp</title>
<polygon fill="white" stroke="transparent" points="-4,4 -4,-192 491,-192 491,4 -4,4"/>
<!-- Node1 -->
<g id="node1" class="node">
<title>Node1</title>
<g id="a_node1"><a xlink:title=" ">
<polygon fill="#bfbfbf" stroke="black" points="190.5,-168.5 190.5,-187.5 352.5,-187.5 352.5,-168.5 190.5,-168.5"/>
<text text-anchor="middle" x="271.5" y="-175.5" font-family="Helvetica,sans-Serif" font-size="10.00">platforms/stm32h5/config.cpp</text>
</a>
</g>
</g>
<!-- Node2 -->
<g id="node2" class="node">
<title>Node2</title>
<g id="a_node2"><a xlink:href="default_8hpp.html" target="_top" xlink:title=" ">
<polygon fill="white" stroke="black" points="23.5,-112.5 23.5,-131.5 113.5,-131.5 113.5,-112.5 23.5,-112.5"/>
<text text-anchor="middle" x="68.5" y="-119.5" font-family="Helvetica,sans-Serif" font-size="10.00">cfg/default.hpp</text>
</a>
</g>
</g>
<!-- Node1&#45;&gt;Node2 -->
<g id="edge1" class="edge">
<title>Node1&#45;&gt;Node2</title>
<path fill="none" stroke="midnightblue" d="M239.33,-168.44C204.44,-159.16 148.61,-144.31 110.33,-134.13"/>
<polygon fill="midnightblue" stroke="midnightblue" points="111.08,-130.7 100.52,-131.52 109.28,-137.47 111.08,-130.7"/>
</g>
<!-- Node15 -->
<g id="node5" class="node">
<title>Node15</title>
<g id="a_node5"><a xlink:href="math_8hpp.html" target="_top" xlink:title=" ">
<polygon fill="white" stroke="black" points="132,-112.5 132,-131.5 213,-131.5 213,-112.5 132,-112.5"/>
<text text-anchor="middle" x="172.5" y="-119.5" font-family="Helvetica,sans-Serif" font-size="10.00">cfg/math.hpp</text>
</a>
</g>
</g>
<!-- Node1&#45;&gt;Node15 -->
<g id="edge5" class="edge">
<title>Node1&#45;&gt;Node15</title>
<path fill="none" stroke="midnightblue" d="M255.59,-168.32C239.86,-159.74 215.56,-146.49 197.29,-136.52"/>
<polygon fill="midnightblue" stroke="midnightblue" points="198.82,-133.37 188.37,-131.65 195.47,-139.52 198.82,-133.37"/>
</g>
<!-- Node16 -->
<g id="node6" class="node">
<title>Node16</title>
<g id="a_node6"><a xlink:href="board_8hpp.html" target="_top" xlink:title=" ">
<polygon fill="white" stroke="black" points="231.5,-112.5 231.5,-131.5 311.5,-131.5 311.5,-112.5 231.5,-112.5"/>
<text text-anchor="middle" x="271.5" y="-119.5" font-family="Helvetica,sans-Serif" font-size="10.00">fw/board.hpp</text>
</a>
</g>
</g>
<!-- Node1&#45;&gt;Node16 -->
<g id="edge6" class="edge">
<title>Node1&#45;&gt;Node16</title>
<path fill="none" stroke="midnightblue" d="M271.5,-168.08C271.5,-161.01 271.5,-150.86 271.5,-141.99"/>
<polygon fill="midnightblue" stroke="midnightblue" points="275,-141.75 271.5,-131.75 268,-141.75 275,-141.75"/>
</g>
<!-- Node23 -->
<g id="node9" class="node">
<title>Node23</title>
<g id="a_node9"><a xlink:href="platform_8hpp.html" target="_top" xlink:title=" ">
<polygon fill="white" stroke="black" points="329.5,-112.5 329.5,-131.5 409.5,-131.5 409.5,-112.5 329.5,-112.5"/>
<text text-anchor="middle" x="369.5" y="-119.5" font-family="Helvetica,sans-Serif" font-size="10.00">platform.hpp</text>
</a>
</g>
</g>
<!-- Node1&#45;&gt;Node23 -->
<g id="edge9" class="edge">
<title>Node1&#45;&gt;Node23</title>
<path fill="none" stroke="midnightblue" d="M287.25,-168.32C302.82,-159.74 326.88,-146.49 344.96,-136.52"/>
<polygon fill="midnightblue" stroke="midnightblue" points="346.72,-139.55 353.79,-131.65 343.35,-133.42 346.72,-139.55"/>
</g>
<!-- Node11 -->
<g id="node11" class="node">
<title>Node11</title>
<g id="a_node11"><a xlink:title=" ">
<polygon fill="white" stroke="#bfbfbf" points="428,-112.5 428,-131.5 487,-131.5 487,-112.5 428,-112.5"/>
<text text-anchor="middle" x="457.5" y="-119.5" font-family="Helvetica,sans-Serif" font-size="10.00">numbers</text>
</a>
</g>
</g>
<!-- Node1&#45;&gt;Node11 -->
<g id="edge11" class="edge">
<title>Node1&#45;&gt;Node11</title>
<path fill="none" stroke="midnightblue" d="M300.97,-168.44C332.67,-159.24 383.23,-144.56 418.27,-134.39"/>
<polygon fill="midnightblue" stroke="midnightblue" points="419.54,-137.67 428.17,-131.52 417.59,-130.94 419.54,-137.67"/>
</g>
<!-- Node3 -->
<g id="node3" class="node">
<title>Node3</title>
<g id="a_node3"><a xlink:href="key_8hpp.html" target="_top" xlink:title=" ">
<polygon fill="white" stroke="red" points="0,-0.5 0,-19.5 71,-19.5 71,-0.5 0,-0.5"/>
<text text-anchor="middle" x="35.5" y="-7.5" font-family="Helvetica,sans-Serif" font-size="10.00">cfg/key.hpp</text>
</a>
</g>
</g>
<!-- Node2&#45;&gt;Node3 -->
<g id="edge2" class="edge">
<title>Node2&#45;&gt;Node3</title>
<path fill="none" stroke="midnightblue" d="M54.42,-112.26C43.15,-104.35 28.15,-91.58 21.5,-76 15,-60.77 20.18,-42.2 25.99,-28.82"/>
<polygon fill="midnightblue" stroke="midnightblue" points="29.18,-30.26 30.37,-19.73 22.87,-27.22 29.18,-30.26"/>
</g>
<!-- Node5 -->
<g id="node4" class="node">
<title>Node5</title>
<g id="a_node4"><a xlink:href="map_8hpp.html" target="_top" xlink:title=" ">
<polygon fill="white" stroke="red" points="31,-56.5 31,-75.5 108,-75.5 108,-56.5 31,-56.5"/>
<text text-anchor="middle" x="69.5" y="-63.5" font-family="Helvetica,sans-Serif" font-size="10.00">cfg/map.hpp</text>
</a>
</g>
</g>
<!-- Node2&#45;&gt;Node5 -->
<g id="edge3" class="edge">
<title>Node2&#45;&gt;Node5</title>
<path fill="none" stroke="midnightblue" d="M68.67,-112.08C68.8,-105.01 68.98,-94.86 69.15,-85.99"/>
<polygon fill="midnightblue" stroke="midnightblue" points="72.65,-85.81 69.34,-75.75 65.65,-85.68 72.65,-85.81"/>
</g>
<!-- Node5&#45;&gt;Node3 -->
<g id="edge4" class="edge">
<title>Node5&#45;&gt;Node3</title>
<path fill="none" stroke="midnightblue" d="M63.89,-56.08C59.13,-48.53 52.18,-37.49 46.35,-28.23"/>
<polygon fill="midnightblue" stroke="midnightblue" points="49.3,-26.35 41.01,-19.75 43.38,-30.08 49.3,-26.35"/>
</g>
<!-- Node17 -->
<g id="node7" class="node">
<title>Node17</title>
<g id="a_node7"><a xlink:href="drv__interfaces_8hpp.html" target="_top" xlink:title=" ">
<polygon fill="white" stroke="red" points="127,-56.5 127,-75.5 234,-75.5 234,-56.5 127,-56.5"/>
<text text-anchor="middle" x="180.5" y="-63.5" font-family="Helvetica,sans-Serif" font-size="10.00">drv_interfaces.hpp</text>
</a>
</g>
</g>
<!-- Node16&#45;&gt;Node17 -->
<g id="edge7" class="edge">
<title>Node16&#45;&gt;Node17</title>
<path fill="none" stroke="midnightblue" d="M256.88,-112.32C242.55,-103.82 220.49,-90.73 203.75,-80.8"/>
<polygon fill="midnightblue" stroke="midnightblue" points="205.47,-77.75 195.08,-75.65 201.9,-83.77 205.47,-77.75"/>
</g>
<!-- Node21 -->
<g id="node8" class="node">
<title>Node21</title>
<g id="a_node8"><a xlink:href="globals_8hpp.html" target="_top" xlink:title=" ">
<polygon fill="white" stroke="red" points="252,-56.5 252,-75.5 325,-75.5 325,-56.5 252,-56.5"/>
<text text-anchor="middle" x="288.5" y="-63.5" font-family="Helvetica,sans-Serif" font-size="10.00">globals.hpp</text>
</a>
</g>
</g>
<!-- Node16&#45;&gt;Node21 -->
<g id="edge8" class="edge">
<title>Node16&#45;&gt;Node21</title>
<path fill="none" stroke="midnightblue" d="M274.31,-112.08C276.58,-104.85 279.87,-94.41 282.71,-85.4"/>
<polygon fill="midnightblue" stroke="midnightblue" points="286.08,-86.34 285.75,-75.75 279.4,-84.24 286.08,-86.34"/>
</g>
<!-- Node24 -->
<g id="node10" class="node">
<title>Node24</title>
<g id="a_node10"><a xlink:title=" ">
<polygon fill="white" stroke="#bfbfbf" points="343,-56.5 343,-75.5 396,-75.5 396,-56.5 343,-56.5"/>
<text text-anchor="middle" x="369.5" y="-63.5" font-family="Helvetica,sans-Serif" font-size="10.00">hal.hpp</text>
</a>
</g>
</g>
<!-- Node23&#45;&gt;Node24 -->
<g id="edge10" class="edge">
<title>Node23&#45;&gt;Node24</title>
<path fill="none" stroke="midnightblue" d="M369.5,-112.08C369.5,-105.01 369.5,-94.86 369.5,-85.99"/>
<polygon fill="midnightblue" stroke="midnightblue" points="373,-85.75 369.5,-75.75 366,-85.75 373,-85.75"/>
</g>
</g>
</svg>
