<?xml version="1.0" encoding="UTF-8" standalone="no"?>
<!DOCTYPE svg PUBLIC "-//W3C//DTD SVG 1.1//EN"
 "http://www.w3.org/Graphics/SVG/1.1/DTD/svg11.dtd">
<!-- Generated by graphviz version 2.43.0 (0)
 -->
<!-- Title: platforms/stm32h5/timers.cpp Pages: 1 -->
<svg width="535pt" height="252pt"
 viewBox="0.00 0.00 534.91 252.00" xmlns="http://www.w3.org/2000/svg" xmlns:xlink="http://www.w3.org/1999/xlink">
<g id="graph0" class="graph" transform="scale(1 1) rotate(0) translate(4 248)">
<title>platforms/stm32h5/timers.cpp</title>
<polygon fill="white" stroke="transparent" points="-4,4 -4,-248 530.91,-248 530.91,4 -4,4"/>
<!-- Node1 -->
<g id="node1" class="node">
<title>Node1</title>
<g id="a_node1"><a xlink:title=" ">
<polygon fill="#bfbfbf" stroke="black" points="150.91,-224.5 150.91,-243.5 314.91,-243.5 314.91,-224.5 150.91,-224.5"/>
<text text-anchor="middle" x="232.91" y="-231.5" font-family="Helvetica,sans-Serif" font-size="10.00">platforms/stm32h5/timers.cpp</text>
</a>
</g>
</g>
<!-- Node2 -->
<g id="node2" class="node">
<title>Node2</title>
<g id="a_node2"><a xlink:title=" ">
<polygon fill="white" stroke="#bfbfbf" points="41.91,-0.5 41.91,-19.5 145.91,-19.5 145.91,-0.5 41.91,-0.5"/>
<text text-anchor="middle" x="93.91" y="-7.5" font-family="Helvetica,sans-Serif" font-size="10.00">emlabcpp/result.h</text>
</a>
</g>
</g>
<!-- Node1&#45;&gt;Node2 -->
<g id="edge1" class="edge">
<title>Node1&#45;&gt;Node2</title>
<path fill="none" stroke="midnightblue" d="M150.87,-224.61C95.16,-213.76 27.48,-188.9 3.91,-132 -14.13,-88.44 37.74,-46.3 70.09,-25.12"/>
<polygon fill="midnightblue" stroke="midnightblue" points="72.05,-28.03 78.63,-19.73 68.3,-22.11 72.05,-28.03"/>
</g>
<!-- Node3 -->
<g id="node3" class="node">
<title>Node3</title>
<g id="a_node3"><a xlink:href="board_8hpp.html" target="_top" xlink:title=" ">
<polygon fill="white" stroke="black" points="162.91,-112.5 162.91,-131.5 242.91,-131.5 242.91,-112.5 162.91,-112.5"/>
<text text-anchor="middle" x="202.91" y="-119.5" font-family="Helvetica,sans-Serif" font-size="10.00">fw/board.hpp</text>
</a>
</g>
</g>
<!-- Node1&#45;&gt;Node3 -->
<g id="edge2" class="edge">
<title>Node1&#45;&gt;Node3</title>
<path fill="none" stroke="midnightblue" d="M230.55,-224.37C225.69,-206.54 214.44,-165.3 207.89,-141.27"/>
<polygon fill="midnightblue" stroke="midnightblue" points="211.26,-140.32 205.25,-131.59 204.51,-142.16 211.26,-140.32"/>
</g>
<!-- Node14 -->
<g id="node6" class="node">
<title>Node14</title>
<g id="a_node6"><a xlink:href="util_8hpp.html" target="_top" xlink:title=" ">
<polygon fill="white" stroke="black" points="68.91,-168.5 68.91,-187.5 136.91,-187.5 136.91,-168.5 68.91,-168.5"/>
<text text-anchor="middle" x="102.91" y="-175.5" font-family="Helvetica,sans-Serif" font-size="10.00">fw/util.hpp</text>
</a>
</g>
</g>
<!-- Node1&#45;&gt;Node14 -->
<g id="edge6" class="edge">
<title>Node1&#45;&gt;Node14</title>
<path fill="none" stroke="midnightblue" d="M212.31,-224.44C190.91,-215.56 157.23,-201.56 132.88,-191.45"/>
<polygon fill="midnightblue" stroke="midnightblue" points="133.99,-188.12 123.41,-187.52 131.3,-194.58 133.99,-188.12"/>
</g>
<!-- Node16 -->
<g id="node8" class="node">
<title>Node16</title>
<g id="a_node8"><a xlink:title=" ">
<polygon fill="white" stroke="#bfbfbf" points="94.91,-112.5 94.91,-131.5 144.91,-131.5 144.91,-112.5 94.91,-112.5"/>
<text text-anchor="middle" x="119.91" y="-119.5" font-family="Helvetica,sans-Serif" font-size="10.00">cstring</text>
</a>
</g>
</g>
<!-- Node1&#45;&gt;Node16 -->
<g id="edge15" class="edge">
<title>Node1&#45;&gt;Node16</title>
<path fill="none" stroke="midnightblue" d="M224.04,-224.37C205.06,-205.89 160.27,-162.29 136.08,-138.74"/>
<polygon fill="midnightblue" stroke="midnightblue" points="138.34,-136.06 128.73,-131.59 133.46,-141.07 138.34,-136.06"/>
</g>
<!-- Node17 -->
<g id="node9" class="node">
<title>Node17</title>
<g id="a_node9"><a xlink:href="platforms_2stm32h5_2setup_8hpp.html" target="_top" xlink:title=" ">
<polygon fill="white" stroke="black" points="231.41,-168.5 231.41,-187.5 296.41,-187.5 296.41,-168.5 231.41,-168.5"/>
<text text-anchor="middle" x="263.91" y="-175.5" font-family="Helvetica,sans-Serif" font-size="10.00">setup.hpp</text>
</a>
</g>
</g>
<!-- Node1&#45;&gt;Node17 -->
<g id="edge9" class="edge">
<title>Node1&#45;&gt;Node17</title>
<path fill="none" stroke="midnightblue" d="M238.03,-224.08C242.32,-216.61 248.57,-205.72 253.85,-196.52"/>
<polygon fill="midnightblue" stroke="midnightblue" points="256.94,-198.17 258.88,-187.75 250.87,-194.68 256.94,-198.17"/>
</g>
<!-- Node27 -->
<g id="node13" class="node">
<title>Node27</title>
<g id="a_node13"><a xlink:title=" ">
<polygon fill="white" stroke="#bfbfbf" points="314.41,-168.5 314.41,-187.5 363.41,-187.5 363.41,-168.5 314.41,-168.5"/>
<text text-anchor="middle" x="338.91" y="-175.5" font-family="Helvetica,sans-Serif" font-size="10.00">cstdlib</text>
</a>
</g>
</g>
<!-- Node1&#45;&gt;Node27 -->
<g id="edge14" class="edge">
<title>Node1&#45;&gt;Node27</title>
<path fill="none" stroke="midnightblue" d="M249.94,-224.32C266.94,-215.66 293.28,-202.24 312.9,-192.25"/>
<polygon fill="midnightblue" stroke="midnightblue" points="314.6,-195.31 321.92,-187.65 311.42,-189.08 314.6,-195.31"/>
</g>
<!-- Node28 -->
<g id="node14" class="node">
<title>Node28</title>
<g id="a_node14"><a xlink:title=" ">
<polygon fill="white" stroke="#bfbfbf" points="381.41,-168.5 381.41,-187.5 464.41,-187.5 464.41,-168.5 381.41,-168.5"/>
<text text-anchor="middle" x="422.91" y="-175.5" font-family="Helvetica,sans-Serif" font-size="10.00">initializer_list</text>
</a>
</g>
</g>
<!-- Node1&#45;&gt;Node28 -->
<g id="edge16" class="edge">
<title>Node1&#45;&gt;Node28</title>
<path fill="none" stroke="midnightblue" d="M263.01,-224.44C295.53,-215.2 347.49,-200.44 383.3,-190.26"/>
<polygon fill="midnightblue" stroke="midnightblue" points="384.28,-193.62 392.94,-187.52 382.37,-186.88 384.28,-193.62"/>
</g>
<!-- Node29 -->
<g id="node15" class="node">
<title>Node29</title>
<g id="a_node15"><a xlink:title=" ">
<polygon fill="white" stroke="#bfbfbf" points="482.91,-168.5 482.91,-187.5 526.91,-187.5 526.91,-168.5 482.91,-168.5"/>
<text text-anchor="middle" x="504.91" y="-175.5" font-family="Helvetica,sans-Serif" font-size="10.00">limits</text>
</a>
</g>
</g>
<!-- Node1&#45;&gt;Node29 -->
<g id="edge17" class="edge">
<title>Node1&#45;&gt;Node29</title>
<path fill="none" stroke="midnightblue" d="M286.83,-224.49C333.68,-216.74 403.52,-204.35 472.85,-188.07"/>
<polygon fill="midnightblue" stroke="midnightblue" points="473.71,-191.47 482.63,-185.75 472.09,-184.66 473.71,-191.47"/>
</g>
<!-- Node4 -->
<g id="node4" class="node">
<title>Node4</title>
<g id="a_node4"><a xlink:href="drv__interfaces_8hpp.html" target="_top" xlink:title=" ">
<polygon fill="white" stroke="red" points="135.91,-56.5 135.91,-75.5 269.91,-75.5 269.91,-56.5 135.91,-56.5"/>
<text text-anchor="middle" x="202.91" y="-63.5" font-family="Helvetica,sans-Serif" font-size="10.00">base/drv_interfaces.hpp</text>
</a>
</g>
</g>
<!-- Node3&#45;&gt;Node4 -->
<g id="edge3" class="edge">
<title>Node3&#45;&gt;Node4</title>
<path fill="none" stroke="midnightblue" d="M202.91,-112.08C202.91,-105.01 202.91,-94.86 202.91,-85.99"/>
<polygon fill="midnightblue" stroke="midnightblue" points="206.41,-85.75 202.91,-75.75 199.41,-85.75 206.41,-85.75"/>
</g>
<!-- Node12 -->
<g id="node5" class="node">
<title>Node12</title>
<g id="a_node5"><a xlink:href="globals_8hpp.html" target="_top" xlink:title=" ">
<polygon fill="white" stroke="red" points="44.41,-56.5 44.41,-75.5 117.41,-75.5 117.41,-56.5 44.41,-56.5"/>
<text text-anchor="middle" x="80.91" y="-63.5" font-family="Helvetica,sans-Serif" font-size="10.00">globals.hpp</text>
</a>
</g>
</g>
<!-- Node3&#45;&gt;Node12 -->
<g id="edge5" class="edge">
<title>Node3&#45;&gt;Node12</title>
<path fill="none" stroke="midnightblue" d="M183.58,-112.44C163.59,-103.6 132.17,-89.69 109.34,-79.59"/>
<polygon fill="midnightblue" stroke="midnightblue" points="110.71,-76.36 100.15,-75.52 107.88,-82.76 110.71,-76.36"/>
</g>
<!-- Node4&#45;&gt;Node2 -->
<g id="edge4" class="edge">
<title>Node4&#45;&gt;Node2</title>
<path fill="none" stroke="midnightblue" d="M185.4,-56.32C167.84,-47.62 140.58,-34.12 120.38,-24.11"/>
<polygon fill="midnightblue" stroke="midnightblue" points="121.89,-20.96 111.38,-19.65 118.78,-27.23 121.89,-20.96"/>
</g>
<!-- Node15 -->
<g id="node7" class="node">
<title>Node15</title>
<g id="a_node7"><a xlink:title=" ">
<polygon fill="white" stroke="#bfbfbf" points="12.91,-112.5 12.91,-131.5 76.91,-131.5 76.91,-112.5 12.91,-112.5"/>
<text text-anchor="middle" x="44.91" y="-119.5" font-family="Helvetica,sans-Serif" font-size="10.00">algorithm</text>
</a>
</g>
</g>
<!-- Node14&#45;&gt;Node15 -->
<g id="edge7" class="edge">
<title>Node14&#45;&gt;Node15</title>
<path fill="none" stroke="midnightblue" d="M93.59,-168.32C85.02,-160.34 72.1,-148.31 61.72,-138.65"/>
<polygon fill="midnightblue" stroke="midnightblue" points="64.1,-136.09 54.4,-131.83 59.33,-141.21 64.1,-136.09"/>
</g>
<!-- Node14&#45;&gt;Node16 -->
<g id="edge8" class="edge">
<title>Node14&#45;&gt;Node16</title>
<path fill="none" stroke="midnightblue" d="M105.72,-168.08C107.99,-160.85 111.28,-150.41 114.12,-141.4"/>
<polygon fill="midnightblue" stroke="midnightblue" points="117.49,-142.34 117.15,-131.75 110.81,-140.24 117.49,-142.34"/>
</g>
<!-- Node17&#45;&gt;Node3 -->
<g id="edge11" class="edge">
<title>Node17&#45;&gt;Node3</title>
<path fill="none" stroke="midnightblue" d="M254.11,-168.32C245.09,-160.34 231.5,-148.31 220.59,-138.65"/>
<polygon fill="midnightblue" stroke="midnightblue" points="222.69,-135.84 212.89,-131.83 218.05,-141.08 222.69,-135.84"/>
</g>
<!-- Node18 -->
<g id="node10" class="node">
<title>Node18</title>
<g id="a_node10"><a xlink:href="map_8hpp.html" target="_top" xlink:title=" ">
<polygon fill="white" stroke="red" points="447.41,-112.5 447.41,-131.5 524.41,-131.5 524.41,-112.5 447.41,-112.5"/>
<text text-anchor="middle" x="485.91" y="-119.5" font-family="Helvetica,sans-Serif" font-size="10.00">cfg/map.hpp</text>
</a>
</g>
</g>
<!-- Node17&#45;&gt;Node18 -->
<g id="edge10" class="edge">
<title>Node17&#45;&gt;Node18</title>
<path fill="none" stroke="midnightblue" d="M296.67,-169.03C334.85,-159.74 398.18,-144.34 440.95,-133.94"/>
<polygon fill="midnightblue" stroke="midnightblue" points="441.93,-137.3 450.82,-131.54 440.27,-130.5 441.93,-137.3"/>
</g>
<!-- Node23 -->
<g id="node11" class="node">
<title>Node23</title>
<g id="a_node11"><a xlink:href="defs_8hpp.html" target="_top" xlink:title=" ">
<polygon fill="white" stroke="red" points="260.91,-112.5 260.91,-131.5 352.91,-131.5 352.91,-112.5 260.91,-112.5"/>
<text text-anchor="middle" x="306.91" y="-119.5" font-family="Helvetica,sans-Serif" font-size="10.00">fw/drv/defs.hpp</text>
</a>
</g>
</g>
<!-- Node17&#45;&gt;Node23 -->
<g id="edge12" class="edge">
<title>Node17&#45;&gt;Node23</title>
<path fill="none" stroke="midnightblue" d="M271.01,-168.08C277.15,-160.38 286.18,-149.03 293.65,-139.65"/>
<polygon fill="midnightblue" stroke="midnightblue" points="296.45,-141.75 299.94,-131.75 290.97,-137.39 296.45,-141.75"/>
</g>
<!-- Node26 -->
<g id="node12" class="node">
<title>Node26</title>
<g id="a_node12"><a xlink:title=" ">
<polygon fill="white" stroke="#bfbfbf" points="370.91,-112.5 370.91,-131.5 428.91,-131.5 428.91,-112.5 370.91,-112.5"/>
<text text-anchor="middle" x="399.91" y="-119.5" font-family="Helvetica,sans-Serif" font-size="10.00">memory</text>
</a>
</g>
</g>
<!-- Node17&#45;&gt;Node26 -->
<g id="edge13" class="edge">
<title>Node17&#45;&gt;Node26</title>
<path fill="none" stroke="midnightblue" d="M285.46,-168.44C307.94,-159.52 343.4,-145.44 368.89,-135.32"/>
<polygon fill="midnightblue" stroke="midnightblue" points="370.46,-138.46 378.46,-131.52 367.87,-131.95 370.46,-138.46"/>
</g>
</g>
</svg>
