<?xml version="1.0" encoding="UTF-8" standalone="no"?>
<!DOCTYPE svg PUBLIC "-//W3C//DTD SVG 1.1//EN"
 "http://www.w3.org/Graphics/SVG/1.1/DTD/svg11.dtd">
<!-- Generated by graphviz version 2.43.0 (0)
 -->
<!-- Title: src/plt/stm32h5/setup.hpp Pages: 1 -->
<svg width="949pt" height="207pt"
 viewBox="0.00 0.00 949.20 207.00" xmlns="http://www.w3.org/2000/svg" xmlns:xlink="http://www.w3.org/1999/xlink">
<g id="graph0" class="graph" transform="scale(1 1) rotate(0) translate(4 203)">
<title>src/plt/stm32h5/setup.hpp</title>
<polygon fill="white" stroke="transparent" points="-4,4 -4,-203 945.2,-203 945.2,4 -4,4"/>
<!-- Node1 -->
<g id="node1" class="node">
<title>Node1</title>
<g id="a_node1"><a xlink:title=" ">
<polygon fill="#bfbfbf" stroke="black" points="617.2,-179.5 617.2,-198.5 760.2,-198.5 760.2,-179.5 617.2,-179.5"/>
<text text-anchor="middle" x="688.7" y="-186.5" font-family="Helvetica,sans-Serif" font-size="10.00">src/plt/stm32h5/setup.hpp</text>
</a>
</g>
</g>
<!-- Node2 -->
<g id="node2" class="node">
<title>Node2</title>
<g id="a_node2"><a xlink:href="map_8hpp.html" target="_top" xlink:title=" ">
<polygon fill="white" stroke="black" points="218.2,-123.5 218.2,-142.5 295.2,-142.5 295.2,-123.5 218.2,-123.5"/>
<text text-anchor="middle" x="256.7" y="-130.5" font-family="Helvetica,sans-Serif" font-size="10.00">cfg/map.hpp</text>
</a>
</g>
</g>
<!-- Node1&#45;&gt;Node2 -->
<g id="edge1" class="edge">
<title>Node1&#45;&gt;Node2</title>
<path fill="none" stroke="midnightblue" d="M620.25,-179.44C532.54,-168.48 382.66,-149.74 305.61,-140.11"/>
<polygon fill="midnightblue" stroke="midnightblue" points="305.59,-136.58 295.23,-138.82 304.72,-143.53 305.59,-136.58"/>
</g>
<!-- Node12 -->
<g id="node8" class="node">
<title>Node12</title>
<g id="a_node8"><a xlink:href="defs_8hpp.html" target="_top" xlink:title=" ">
<polygon fill="white" stroke="black" points="602.2,-123.5 602.2,-142.5 679.2,-142.5 679.2,-123.5 602.2,-123.5"/>
<text text-anchor="middle" x="640.7" y="-130.5" font-family="Helvetica,sans-Serif" font-size="10.00">drv/defs.hpp</text>
</a>
</g>
</g>
<!-- Node1&#45;&gt;Node12 -->
<g id="edge7" class="edge">
<title>Node1&#45;&gt;Node12</title>
<path fill="none" stroke="midnightblue" d="M680.78,-179.08C673.86,-171.3 663.64,-159.8 655.25,-150.37"/>
<polygon fill="midnightblue" stroke="midnightblue" points="657.74,-147.9 648.48,-142.75 652.51,-152.55 657.74,-147.9"/>
</g>
<!-- Node16 -->
<g id="node10" class="node">
<title>Node16</title>
<g id="a_node10"><a xlink:href="board_8hpp.html" target="_top" xlink:title=" ">
<polygon fill="white" stroke="black" points="711.7,-123.5 711.7,-142.5 791.7,-142.5 791.7,-123.5 711.7,-123.5"/>
<text text-anchor="middle" x="751.7" y="-130.5" font-family="Helvetica,sans-Serif" font-size="10.00">fw/board.hpp</text>
</a>
</g>
</g>
<!-- Node1&#45;&gt;Node16 -->
<g id="edge9" class="edge">
<title>Node1&#45;&gt;Node16</title>
<path fill="none" stroke="midnightblue" d="M698.82,-179.32C708.23,-171.26 722.45,-159.08 733.77,-149.37"/>
<polygon fill="midnightblue" stroke="midnightblue" points="736.08,-152 741.4,-142.83 731.53,-146.68 736.08,-152"/>
</g>
<!-- Node22 -->
<g id="node13" class="node">
<title>Node22</title>
<g id="a_node13"><a xlink:title=" ">
<polygon fill="white" stroke="#bfbfbf" points="809.7,-123.5 809.7,-142.5 867.7,-142.5 867.7,-123.5 809.7,-123.5"/>
<text text-anchor="middle" x="838.7" y="-130.5" font-family="Helvetica,sans-Serif" font-size="10.00">memory</text>
</a>
</g>
</g>
<!-- Node1&#45;&gt;Node22 -->
<g id="edge13" class="edge">
<title>Node1&#45;&gt;Node22</title>
<path fill="none" stroke="midnightblue" d="M712.47,-179.44C737.6,-170.4 777.41,-156.06 805.6,-145.92"/>
<polygon fill="midnightblue" stroke="midnightblue" points="806.82,-149.2 815.05,-142.52 804.45,-142.61 806.82,-149.2"/>
</g>
<!-- Node3 -->
<g id="node3" class="node">
<title>Node3</title>
<g id="a_node3"><a xlink:href="base_8hpp.html" target="_top" xlink:title=" ">
<polygon fill="white" stroke="red" points="332.2,-0.5 332.2,-19.5 419.2,-19.5 419.2,-0.5 332.2,-0.5"/>
<text text-anchor="middle" x="375.7" y="-7.5" font-family="Helvetica,sans-Serif" font-size="10.00">base/base.hpp</text>
</a>
</g>
</g>
<!-- Node2&#45;&gt;Node3 -->
<g id="edge2" class="edge">
<title>Node2&#45;&gt;Node3</title>
<path fill="none" stroke="midnightblue" d="M218.19,-132.26C135.43,-131.58 -47.29,-122.73 11.7,-56 31.9,-33.16 225.61,-19.31 321.9,-13.78"/>
<polygon fill="midnightblue" stroke="midnightblue" points="322.24,-17.27 332.03,-13.21 321.85,-10.28 322.24,-17.27"/>
</g>
<!-- Node8 -->
<g id="node4" class="node">
<title>Node8</title>
<g id="a_node4"><a xlink:href="key_8hpp.html" target="_top" xlink:title=" ">
<polygon fill="white" stroke="red" points="21.2,-62 21.2,-81 92.2,-81 92.2,-62 21.2,-62"/>
<text text-anchor="middle" x="56.7" y="-69" font-family="Helvetica,sans-Serif" font-size="10.00">cfg/key.hpp</text>
</a>
</g>
</g>
<!-- Node2&#45;&gt;Node8 -->
<g id="edge3" class="edge">
<title>Node2&#45;&gt;Node8</title>
<path fill="none" stroke="midnightblue" d="M225.82,-123.46C194.27,-114.65 143.93,-100.35 100.7,-87 97.8,-86.1 94.79,-85.16 91.78,-84.19"/>
<polygon fill="midnightblue" stroke="midnightblue" points="92.84,-80.85 82.24,-81.1 90.68,-87.51 92.84,-80.85"/>
</g>
<!-- Node9 -->
<g id="node5" class="node">
<title>Node9</title>
<g id="a_node5"><a xlink:title=" ">
<polygon fill="white" stroke="#bfbfbf" points="110.2,-56.5 110.2,-86.5 243.2,-86.5 243.2,-56.5 110.2,-56.5"/>
<text text-anchor="start" x="118.2" y="-74.5" font-family="Helvetica,sans-Serif" font-size="10.00">emlabcpp/experimental</text>
<text text-anchor="middle" x="176.7" y="-63.5" font-family="Helvetica,sans-Serif" font-size="10.00">/string_buffer.h</text>
</a>
</g>
</g>
<!-- Node2&#45;&gt;Node9 -->
<g id="edge4" class="edge">
<title>Node2&#45;&gt;Node9</title>
<path fill="none" stroke="midnightblue" d="M245.24,-123.48C234.51,-115.49 218.05,-103.25 203.96,-92.77"/>
<polygon fill="midnightblue" stroke="midnightblue" points="205.67,-89.68 195.56,-86.52 201.49,-95.3 205.67,-89.68"/>
</g>
<!-- Node10 -->
<g id="node6" class="node">
<title>Node10</title>
<g id="a_node6"><a xlink:title=" ">
<polygon fill="white" stroke="#bfbfbf" points="261.7,-56.5 261.7,-86.5 409.7,-86.5 409.7,-56.5 261.7,-56.5"/>
<text text-anchor="start" x="269.7" y="-74.5" font-family="Helvetica,sans-Serif" font-size="10.00">emlabcpp/protocol/register</text>
<text text-anchor="middle" x="335.7" y="-63.5" font-family="Helvetica,sans-Serif" font-size="10.00">_handler.h</text>
</a>
</g>
</g>
<!-- Node2&#45;&gt;Node10 -->
<g id="edge5" class="edge">
<title>Node2&#45;&gt;Node10</title>
<path fill="none" stroke="midnightblue" d="M268.02,-123.48C278.62,-115.49 294.87,-103.25 308.79,-92.77"/>
<polygon fill="midnightblue" stroke="midnightblue" points="311.2,-95.33 317.08,-86.52 306.99,-89.74 311.2,-95.33"/>
</g>
<!-- Node11 -->
<g id="node7" class="node">
<title>Node11</title>
<g id="a_node7"><a xlink:title=" ">
<polygon fill="white" stroke="#bfbfbf" points="427.7,-56.5 427.7,-86.5 575.7,-86.5 575.7,-56.5 427.7,-56.5"/>
<text text-anchor="start" x="435.7" y="-74.5" font-family="Helvetica,sans-Serif" font-size="10.00">emlabcpp/protocol/register</text>
<text text-anchor="middle" x="501.7" y="-63.5" font-family="Helvetica,sans-Serif" font-size="10.00">_map.h</text>
</a>
</g>
</g>
<!-- Node2&#45;&gt;Node11 -->
<g id="edge6" class="edge">
<title>Node2&#45;&gt;Node11</title>
<path fill="none" stroke="midnightblue" d="M291.81,-123.48C328.79,-114.49 387.94,-100.13 434.04,-88.93"/>
<polygon fill="midnightblue" stroke="midnightblue" points="435.07,-92.28 443.96,-86.52 433.42,-85.48 435.07,-92.28"/>
</g>
<!-- Node13 -->
<g id="node9" class="node">
<title>Node13</title>
<g id="a_node9"><a xlink:href="platform_8hpp.html" target="_top" xlink:title=" ">
<polygon fill="white" stroke="red" points="593.7,-62 593.7,-81 673.7,-81 673.7,-62 593.7,-62"/>
<text text-anchor="middle" x="633.7" y="-69" font-family="Helvetica,sans-Serif" font-size="10.00">platform.hpp</text>
</a>
</g>
</g>
<!-- Node12&#45;&gt;Node13 -->
<g id="edge8" class="edge">
<title>Node12&#45;&gt;Node13</title>
<path fill="none" stroke="midnightblue" d="M639.7,-123.48C638.71,-115.08 637.17,-101.98 635.9,-91.16"/>
<polygon fill="midnightblue" stroke="midnightblue" points="639.35,-90.53 634.7,-81.01 632.4,-91.35 639.35,-90.53"/>
</g>
<!-- Node17 -->
<g id="node11" class="node">
<title>Node17</title>
<g id="a_node11"><a xlink:href="drv__interfaces_8hpp.html" target="_top" xlink:title=" ">
<polygon fill="white" stroke="red" points="691.7,-62 691.7,-81 825.7,-81 825.7,-62 691.7,-62"/>
<text text-anchor="middle" x="758.7" y="-69" font-family="Helvetica,sans-Serif" font-size="10.00">base/drv_interfaces.hpp</text>
</a>
</g>
</g>
<!-- Node16&#45;&gt;Node17 -->
<g id="edge10" class="edge">
<title>Node16&#45;&gt;Node17</title>
<path fill="none" stroke="midnightblue" d="M752.71,-123.48C753.69,-115.08 755.23,-101.98 756.51,-91.16"/>
<polygon fill="midnightblue" stroke="midnightblue" points="760.01,-91.35 757.7,-81.01 753.06,-90.53 760.01,-91.35"/>
</g>
<!-- Node20 -->
<g id="node12" class="node">
<title>Node20</title>
<g id="a_node12"><a xlink:href="globals_8hpp.html" target="_top" xlink:title=" ">
<polygon fill="white" stroke="red" points="844.2,-62 844.2,-81 941.2,-81 941.2,-62 844.2,-62"/>
<text text-anchor="middle" x="892.7" y="-69" font-family="Helvetica,sans-Serif" font-size="10.00">core/globals.hpp</text>
</a>
</g>
</g>
<!-- Node16&#45;&gt;Node20 -->
<g id="edge12" class="edge">
<title>Node16&#45;&gt;Node20</title>
<path fill="none" stroke="midnightblue" d="M771.9,-123.48C795.78,-113.4 835.7,-96.55 863.08,-85"/>
<polygon fill="midnightblue" stroke="midnightblue" points="864.69,-88.12 872.54,-81.01 861.96,-81.67 864.69,-88.12"/>
</g>
<!-- Node17&#45;&gt;Node3 -->
<g id="edge11" class="edge">
<title>Node17&#45;&gt;Node3</title>
<path fill="none" stroke="midnightblue" d="M715.75,-61.97C704.98,-59.92 693.43,-57.81 682.7,-56 594.2,-41.08 490.86,-26.52 429.48,-18.17"/>
<polygon fill="midnightblue" stroke="midnightblue" points="429.64,-14.66 419.26,-16.78 428.7,-21.6 429.64,-14.66"/>
</g>
</g>
</svg>
