<?xml version="1.0" encoding="UTF-8" standalone="no"?>
<!DOCTYPE svg PUBLIC "-//W3C//DTD SVG 1.1//EN"
 "http://www.w3.org/Graphics/SVG/1.1/DTD/svg11.dtd">
<!-- Generated by graphviz version 2.43.0 (0)
 -->
<!-- Title: src/plt/stm32h5/setup.hpp Pages: 1 -->
<svg width="1367pt" height="148pt"
 viewBox="0.00 0.00 1367.00 148.00" xmlns="http://www.w3.org/2000/svg" xmlns:xlink="http://www.w3.org/1999/xlink">
<g id="graph0" class="graph" transform="scale(1 1) rotate(0) translate(4 144)">
<title>src/plt/stm32h5/setup.hpp</title>
<!-- Node1 -->
<g id="Node000001" class="node">
<title>Node1</title>
<g id="a_Node000001"><a xlink:title=" ">
<polygon fill="#999999" stroke="#666666" points="1222.5,-140 1079.5,-140 1079.5,-121 1222.5,-121 1222.5,-140"/>
<text text-anchor="middle" x="1151" y="-128" font-family="Helvetica,sans-Serif" font-size="10.00">src/plt/stm32h5/setup.hpp</text>
</a>
</g>
</g>
<!-- Node2 -->
<g id="Node000002" class="node">
<title>Node2</title>
<g id="a_Node000002"><a xlink:href="map_8hpp.html" target="_top" xlink:title=" ">
<polygon fill="white" stroke="#666666" points="536.5,-85 441.5,-85 441.5,-66 536.5,-66 536.5,-85"/>
<text text-anchor="middle" x="489" y="-73" font-family="Helvetica,sans-Serif" font-size="10.00">../../cfg/map.hpp</text>
</a>
</g>
</g>
<!-- Node1&#45;&gt;Node2 -->
<g id="edge1_Node000001_Node000002" class="edge">
<title>Node1&#45;&gt;Node2</title>
<g id="a_edge1_Node000001_Node000002"><a xlink:title=" ">
<path fill="none" stroke="#63b8ff" d="M1079.21,-123.75C947,-113.17 667.51,-90.79 546.67,-81.12"/>
<polygon fill="#63b8ff" stroke="#63b8ff" points="546.77,-77.61 536.52,-80.3 546.21,-84.59 546.77,-77.61"/>
</a>
</g>
</g>
<!-- Node15 -->
<g id="Node000015" class="node">
<title>Node15</title>
<g id="a_Node000015"><a xlink:href="defs_8hpp.html" target="_top" xlink:title=" ">
<polygon fill="white" stroke="#666666" points="1122.5,-85 1027.5,-85 1027.5,-66 1122.5,-66 1122.5,-85"/>
<text text-anchor="middle" x="1075" y="-73" font-family="Helvetica,sans-Serif" font-size="10.00">../../drv/defs.hpp</text>
</a>
</g>
</g>
<!-- Node1&#45;&gt;Node15 -->
<g id="edge9_Node000001_Node000015" class="edge">
<title>Node1&#45;&gt;Node15</title>
<g id="a_edge9_Node000001_Node000015"><a xlink:title=" ">
<path fill="none" stroke="#63b8ff" d="M1138.79,-120.98C1127.22,-112.92 1109.62,-100.65 1095.84,-91.03"/>
<polygon fill="#63b8ff" stroke="#63b8ff" points="1097.64,-88.02 1087.43,-85.17 1093.63,-93.76 1097.64,-88.02"/>
</a>
</g>
</g>
<!-- Node19 -->
<g id="Node000019" class="node">
<title>Node19</title>
<g id="a_Node000019"><a xlink:title=" ">
<polygon fill="#e0e0e0" stroke="#999999" points="1190,-24.5 1134,-24.5 1134,-5.5 1190,-5.5 1190,-24.5"/>
<text text-anchor="middle" x="1162" y="-12.5" font-family="Helvetica,sans-Serif" font-size="10.00">optional</text>
</a>
</g>
</g>
<!-- Node1&#45;&gt;Node19 -->
<g id="edge14_Node000001_Node000019" class="edge">
<title>Node1&#45;&gt;Node19</title>
<g id="a_edge14_Node000001_Node000019"><a xlink:title=" ">
<path fill="none" stroke="#63b8ff" d="M1151.83,-120.97C1153.59,-102.73 1157.78,-59.57 1160.19,-34.64"/>
<polygon fill="#63b8ff" stroke="#63b8ff" points="1163.68,-34.92 1161.16,-24.63 1156.72,-34.25 1163.68,-34.92"/>
</a>
</g>
</g>
<!-- Node20 -->
<g id="Node000020" class="node">
<title>Node20</title>
<g id="a_Node000020"><a xlink:title=" ">
<polygon fill="#e0e0e0" stroke="#999999" points="1283,-85 1179,-85 1179,-66 1283,-66 1283,-85"/>
<text text-anchor="middle" x="1231" y="-73" font-family="Helvetica,sans-Serif" font-size="10.00">emlabcpp/result.h</text>
</a>
</g>
</g>
<!-- Node1&#45;&gt;Node20 -->
<g id="edge12_Node000001_Node000020" class="edge">
<title>Node1&#45;&gt;Node20</title>
<g id="a_edge12_Node000001_Node000020"><a xlink:title=" ">
<path fill="none" stroke="#63b8ff" d="M1163.85,-120.98C1176.14,-112.84 1194.91,-100.41 1209.48,-90.76"/>
<polygon fill="#63b8ff" stroke="#63b8ff" points="1211.51,-93.61 1217.91,-85.17 1207.64,-87.78 1211.51,-93.61"/>
</a>
</g>
</g>
<!-- Node21 -->
<g id="Node000021" class="node">
<title>Node21</title>
<g id="a_Node000021"><a xlink:title=" ">
<polygon fill="#e0e0e0" stroke="#999999" points="1359,-85 1301,-85 1301,-66 1359,-66 1359,-85"/>
<text text-anchor="middle" x="1330" y="-73" font-family="Helvetica,sans-Serif" font-size="10.00">memory</text>
</a>
</g>
</g>
<!-- Node1&#45;&gt;Node21 -->
<g id="edge13_Node000001_Node000021" class="edge">
<title>Node1&#45;&gt;Node21</title>
<g id="a_edge13_Node000001_Node000021"><a xlink:title=" ">
<path fill="none" stroke="#63b8ff" d="M1179.76,-120.98C1209.94,-112.05 1257.57,-97.94 1291.1,-88.02"/>
<polygon fill="#63b8ff" stroke="#63b8ff" points="1292.42,-91.28 1301.02,-85.08 1290.43,-84.57 1292.42,-91.28"/>
</a>
</g>
</g>
<!-- Node3 -->
<g id="Node000003" class="node">
<title>Node3</title>
<g id="a_Node000003"><a xlink:href="base_2base_8hpp.html" target="_top" xlink:title=" ">
<polygon fill="#fff0f0" stroke="red" points="96,-24.5 0,-24.5 0,-5.5 96,-5.5 96,-24.5"/>
<text text-anchor="middle" x="48" y="-12.5" font-family="Helvetica,sans-Serif" font-size="10.00">../base/base.hpp</text>
</a>
</g>
</g>
<!-- Node2&#45;&gt;Node3 -->
<g id="edge2_Node000002_Node000003" class="edge">
<title>Node2&#45;&gt;Node3</title>
<g id="a_edge2_Node000002_Node000003"><a xlink:title=" ">
<path fill="none" stroke="#63b8ff" d="M441.43,-70.92C368.58,-65 225.21,-51.64 105,-30 99.99,-29.1 94.76,-28.01 89.6,-26.86"/>
<polygon fill="#63b8ff" stroke="#63b8ff" points="90.34,-23.43 79.8,-24.56 88.74,-30.25 90.34,-23.43"/>
</a>
</g>
</g>
<!-- Node9 -->
<g id="Node000009" class="node">
<title>Node9</title>
<g id="a_Node000009"><a xlink:href="key_8hpp.html" target="_top" xlink:title=" ">
<polygon fill="#fff0f0" stroke="red" points="173.5,-24.5 114.5,-24.5 114.5,-5.5 173.5,-5.5 173.5,-24.5"/>
<text text-anchor="middle" x="144" y="-12.5" font-family="Helvetica,sans-Serif" font-size="10.00">./key.hpp</text>
</a>
</g>
</g>
<!-- Node2&#45;&gt;Node9 -->
<g id="edge3_Node000002_Node000009" class="edge">
<title>Node2&#45;&gt;Node9</title>
<g id="a_edge3_Node000002_Node000009"><a xlink:title=" ">
<path fill="none" stroke="#63b8ff" d="M441.33,-70.7C380.45,-65.14 272.18,-52.88 182,-30 179.5,-29.36 176.93,-28.62 174.36,-27.82"/>
<polygon fill="#63b8ff" stroke="#63b8ff" points="175.25,-24.42 164.66,-24.5 172.99,-31.05 175.25,-24.42"/>
</a>
</g>
</g>
<!-- Node10 -->
<g id="Node000010" class="node">
<title>Node10</title>
<g id="a_Node000010"><a xlink:title=" ">
<polygon fill="#e0e0e0" stroke="#999999" points="324.5,-30 191.5,-30 191.5,0 324.5,0 324.5,-30"/>
<text text-anchor="start" x="199.5" y="-18" font-family="Helvetica,sans-Serif" font-size="10.00">emlabcpp/experimental</text>
<text text-anchor="middle" x="258" y="-7" font-family="Helvetica,sans-Serif" font-size="10.00">/string_buffer.h</text>
</a>
</g>
</g>
<!-- Node2&#45;&gt;Node10 -->
<g id="edge4_Node000002_Node000010" class="edge">
<title>Node2&#45;&gt;Node10</title>
<g id="a_edge4_Node000002_Node000010"><a xlink:title=" ">
<path fill="none" stroke="#63b8ff" d="M455.41,-65.99C420.93,-57.26 366.39,-43.45 323.37,-32.55"/>
<polygon fill="#63b8ff" stroke="#63b8ff" points="324.09,-29.13 313.54,-30.06 322.37,-35.91 324.09,-29.13"/>
</a>
</g>
</g>
<!-- Node11 -->
<g id="Node000011" class="node">
<title>Node11</title>
<g id="a_Node000011"><a xlink:title=" ">
<polygon fill="#e0e0e0" stroke="#999999" points="475.5,-30 342.5,-30 342.5,0 475.5,0 475.5,-30"/>
<text text-anchor="start" x="350.5" y="-18" font-family="Helvetica,sans-Serif" font-size="10.00">emlabcpp/experimental</text>
<text text-anchor="middle" x="409" y="-7" font-family="Helvetica,sans-Serif" font-size="10.00">/testing/convert.h</text>
</a>
</g>
</g>
<!-- Node2&#45;&gt;Node11 -->
<g id="edge5_Node000002_Node000011" class="edge">
<title>Node2&#45;&gt;Node11</title>
<g id="a_edge5_Node000002_Node000011"><a xlink:title=" ">
<path fill="none" stroke="#63b8ff" d="M477.2,-65.87C466.54,-58.08 450.46,-46.32 436.59,-36.17"/>
<polygon fill="#63b8ff" stroke="#63b8ff" points="438.44,-33.19 428.3,-30.11 434.31,-38.84 438.44,-33.19"/>
</a>
</g>
</g>
<!-- Node12 -->
<g id="Node000012" class="node">
<title>Node12</title>
<g id="a_Node000012"><a xlink:title=" ">
<polygon fill="#e0e0e0" stroke="#999999" points="642,-30 494,-30 494,0 642,0 642,-30"/>
<text text-anchor="start" x="502" y="-18" font-family="Helvetica,sans-Serif" font-size="10.00">emlabcpp/protocol/register</text>
<text text-anchor="middle" x="568" y="-7" font-family="Helvetica,sans-Serif" font-size="10.00">_handler.h</text>
</a>
</g>
</g>
<!-- Node2&#45;&gt;Node12 -->
<g id="edge6_Node000002_Node000012" class="edge">
<title>Node2&#45;&gt;Node12</title>
<g id="a_edge6_Node000002_Node000012"><a xlink:title=" ">
<path fill="none" stroke="#63b8ff" d="M500.66,-65.87C511.18,-58.08 527.06,-46.32 540.76,-36.17"/>
<polygon fill="#63b8ff" stroke="#63b8ff" points="542.99,-38.88 548.94,-30.11 538.82,-33.25 542.99,-38.88"/>
</a>
</g>
</g>
<!-- Node13 -->
<g id="Node000013" class="node">
<title>Node13</title>
<g id="a_Node000013"><a xlink:title=" ">
<polygon fill="#e0e0e0" stroke="#999999" points="808,-30 660,-30 660,0 808,0 808,-30"/>
<text text-anchor="start" x="668" y="-18" font-family="Helvetica,sans-Serif" font-size="10.00">emlabcpp/protocol/register</text>
<text text-anchor="middle" x="734" y="-7" font-family="Helvetica,sans-Serif" font-size="10.00">_map.h</text>
</a>
</g>
</g>
<!-- Node2&#45;&gt;Node13 -->
<g id="edge7_Node000002_Node000013" class="edge">
<title>Node2&#45;&gt;Node13</title>
<g id="a_edge7_Node000002_Node000013"><a xlink:title=" ">
<path fill="none" stroke="#63b8ff" d="M524.63,-65.99C561.35,-57.23 619.53,-43.33 665.25,-32.42"/>
<polygon fill="#63b8ff" stroke="#63b8ff" points="666.18,-35.79 675.1,-30.06 664.56,-28.98 666.18,-35.79"/>
</a>
</g>
</g>
<!-- Node14 -->
<g id="Node000014" class="node">
<title>Node14</title>
<g id="a_Node000014"><a xlink:title=" ">
<polygon fill="#e0e0e0" stroke="#999999" points="993.5,-24.5 826.5,-24.5 826.5,-5.5 993.5,-5.5 993.5,-24.5"/>
<text text-anchor="middle" x="910" y="-12.5" font-family="Helvetica,sans-Serif" font-size="10.00">magic_enum/magic_enum.hpp</text>
</a>
</g>
</g>
<!-- Node2&#45;&gt;Node14 -->
<g id="edge8_Node000002_Node000014" class="edge">
<title>Node2&#45;&gt;Node14</title>
<g id="a_edge8_Node000002_Node000014"><a xlink:title=" ">
<path fill="none" stroke="#63b8ff" d="M536.56,-68.27C600.39,-59.85 717.31,-44.27 817,-30 825.69,-28.76 834.83,-27.42 843.85,-26.08"/>
<polygon fill="#63b8ff" stroke="#63b8ff" points="844.58,-29.51 853.96,-24.57 843.55,-22.59 844.58,-29.51"/>
</a>
</g>
</g>
<!-- Node16 -->
<g id="Node000016" class="node">
<title>Node16</title>
<g id="a_Node000016"><a xlink:href="platform_8hpp.html" target="_top" xlink:title=" ">
<polygon fill="#fff0f0" stroke="red" points="1116,-24.5 1012,-24.5 1012,-5.5 1116,-5.5 1116,-24.5"/>
<text text-anchor="middle" x="1064" y="-12.5" font-family="Helvetica,sans-Serif" font-size="10.00">../plt/platform.hpp</text>
</a>
</g>
</g>
<!-- Node15&#45;&gt;Node16 -->
<g id="edge10_Node000015_Node000016" class="edge">
<title>Node15&#45;&gt;Node16</title>
<g id="a_edge10_Node000015_Node000016"><a xlink:title=" ">
<path fill="none" stroke="#63b8ff" d="M1073.38,-65.87C1071.83,-57.66 1069.46,-45.04 1067.49,-34.55"/>
<polygon fill="#63b8ff" stroke="#63b8ff" points="1070.92,-33.85 1065.63,-24.67 1064.04,-35.14 1070.92,-33.85"/>
</a>
</g>
</g>
<!-- Node15&#45;&gt;Node19 -->
<g id="edge11_Node000015_Node000019" class="edge">
<title>Node15&#45;&gt;Node19</title>
<g id="a_edge11_Node000015_Node000019"><a xlink:title=" ">
<path fill="none" stroke="#63b8ff" d="M1087.84,-65.87C1101.72,-56.54 1124.07,-41.51 1140.61,-30.38"/>
<polygon fill="#63b8ff" stroke="#63b8ff" points="1142.76,-33.15 1149.11,-24.67 1138.86,-27.34 1142.76,-33.15"/>
</a>
</g>
</g>
</g>
</svg>
