<?xml version="1.0" encoding="UTF-8" standalone="no"?>
<!DOCTYPE svg PUBLIC "-//W3C//DTD SVG 1.1//EN"
 "http://www.w3.org/Graphics/SVG/1.1/DTD/svg11.dtd">
<!-- Generated by graphviz version 2.43.0 (0)
 -->
<!-- Title: src/plt/stm32h5/config.cpp Pages: 1 -->
<svg width="791pt" height="252pt"
 viewBox="0.00 0.00 790.50 252.00" xmlns="http://www.w3.org/2000/svg" xmlns:xlink="http://www.w3.org/1999/xlink">
<g id="graph0" class="graph" transform="scale(1 1) rotate(0) translate(4 248)">
<title>src/plt/stm32h5/config.cpp</title>
<polygon fill="white" stroke="transparent" points="-4,4 -4,-248 786.5,-248 786.5,4 -4,4"/>
<!-- Node1 -->
<g id="node1" class="node">
<title>Node1</title>
<g id="a_node1"><a xlink:title=" ">
<polygon fill="#bfbfbf" stroke="black" points="354.5,-224.5 354.5,-243.5 499.5,-243.5 499.5,-224.5 354.5,-224.5"/>
<text text-anchor="middle" x="427" y="-231.5" font-family="Helvetica,sans-Serif" font-size="10.00">src/plt/stm32h5/config.cpp</text>
</a>
</g>
</g>
<!-- Node2 -->
<g id="node2" class="node">
<title>Node2</title>
<g id="a_node2"><a xlink:href="default_8hpp.html" target="_top" xlink:title=" ">
<polygon fill="white" stroke="black" points="0,-168.5 0,-187.5 108,-187.5 108,-168.5 0,-168.5"/>
<text text-anchor="middle" x="54" y="-175.5" font-family="Helvetica,sans-Serif" font-size="10.00">../../cfg/default.hpp</text>
</a>
</g>
</g>
<!-- Node1&#45;&gt;Node2 -->
<g id="edge1" class="edge">
<title>Node1&#45;&gt;Node2</title>
<path fill="none" stroke="midnightblue" d="M367.9,-224.44C299.86,-214.59 188.49,-198.47 118.32,-188.31"/>
<polygon fill="midnightblue" stroke="midnightblue" points="118.68,-184.83 108.28,-186.86 117.68,-191.76 118.68,-184.83"/>
</g>
<!-- Node16 -->
<g id="node5" class="node">
<title>Node16</title>
<g id="a_node5"><a xlink:href="math_8hpp.html" target="_top" xlink:title=" ">
<polygon fill="white" stroke="black" points="377.5,-168.5 377.5,-187.5 476.5,-187.5 476.5,-168.5 377.5,-168.5"/>
<text text-anchor="middle" x="427" y="-175.5" font-family="Helvetica,sans-Serif" font-size="10.00">../../cfg/math.hpp</text>
</a>
</g>
</g>
<!-- Node1&#45;&gt;Node16 -->
<g id="edge5" class="edge">
<title>Node1&#45;&gt;Node16</title>
<path fill="none" stroke="midnightblue" d="M427,-224.08C427,-217.01 427,-206.86 427,-197.99"/>
<polygon fill="midnightblue" stroke="midnightblue" points="430.5,-197.75 427,-187.75 423.5,-197.75 430.5,-197.75"/>
</g>
<!-- Node17 -->
<g id="node6" class="node">
<title>Node17</title>
<g id="a_node6"><a xlink:href="util_8hpp.html" target="_top" xlink:title=" ">
<polygon fill="white" stroke="black" points="500,-168.5 500,-187.5 586,-187.5 586,-168.5 500,-168.5"/>
<text text-anchor="middle" x="543" y="-175.5" font-family="Helvetica,sans-Serif" font-size="10.00">../../fw/util.hpp</text>
</a>
</g>
</g>
<!-- Node1&#45;&gt;Node17 -->
<g id="edge6" class="edge">
<title>Node1&#45;&gt;Node17</title>
<path fill="none" stroke="midnightblue" d="M445.38,-224.44C464.22,-215.68 493.73,-201.94 515.38,-191.86"/>
<polygon fill="midnightblue" stroke="midnightblue" points="517.12,-194.91 524.71,-187.52 514.16,-188.56 517.12,-194.91"/>
</g>
<!-- Node21 -->
<g id="node10" class="node">
<title>Node21</title>
<g id="a_node10"><a xlink:href="platform_8hpp.html" target="_top" xlink:title=" ">
<polygon fill="white" stroke="black" points="114.5,-56.5 114.5,-75.5 203.5,-75.5 203.5,-56.5 114.5,-56.5"/>
<text text-anchor="middle" x="159" y="-63.5" font-family="Helvetica,sans-Serif" font-size="10.00">../platform.hpp</text>
</a>
</g>
</g>
<!-- Node1&#45;&gt;Node21 -->
<g id="edge10" class="edge">
<title>Node1&#45;&gt;Node21</title>
<path fill="none" stroke="midnightblue" d="M354.24,-229.15C288.98,-221.29 197.21,-198.28 155,-132 146.28,-118.3 148.6,-99.52 152.32,-85.67"/>
<polygon fill="midnightblue" stroke="midnightblue" points="155.76,-86.39 155.42,-75.8 149.08,-84.29 155.76,-86.39"/>
</g>
<!-- Node24 -->
<g id="node12" class="node">
<title>Node24</title>
<g id="a_node12"><a xlink:href="plt_2stm32h5_2setup_8hpp.html" target="_top" xlink:title=" ">
<polygon fill="white" stroke="black" points="284.5,-168.5 284.5,-187.5 349.5,-187.5 349.5,-168.5 284.5,-168.5"/>
<text text-anchor="middle" x="317" y="-175.5" font-family="Helvetica,sans-Serif" font-size="10.00">setup.hpp</text>
</a>
</g>
</g>
<!-- Node1&#45;&gt;Node24 -->
<g id="edge12" class="edge">
<title>Node1&#45;&gt;Node24</title>
<path fill="none" stroke="midnightblue" d="M409.33,-224.32C391.61,-215.62 364.1,-202.12 343.71,-192.11"/>
<polygon fill="midnightblue" stroke="midnightblue" points="345.15,-188.92 334.63,-187.65 342.06,-195.2 345.15,-188.92"/>
</g>
<!-- Node29 -->
<g id="node17" class="node">
<title>Node29</title>
<g id="a_node17"><a xlink:title=" ">
<polygon fill="white" stroke="#bfbfbf" points="604.5,-168.5 604.5,-187.5 705.5,-187.5 705.5,-168.5 604.5,-168.5"/>
<text text-anchor="middle" x="655" y="-175.5" font-family="Helvetica,sans-Serif" font-size="10.00">emlabcpp/defer.h</text>
</a>
</g>
</g>
<!-- Node1&#45;&gt;Node29 -->
<g id="edge20" class="edge">
<title>Node1&#45;&gt;Node29</title>
<path fill="none" stroke="midnightblue" d="M463.13,-224.44C502.65,-215.08 566.1,-200.06 609.11,-189.87"/>
<polygon fill="midnightblue" stroke="midnightblue" points="610.12,-193.23 619.04,-187.52 608.5,-186.42 610.12,-193.23"/>
</g>
<!-- Node10 -->
<g id="node18" class="node">
<title>Node10</title>
<g id="a_node18"><a xlink:title=" ">
<polygon fill="white" stroke="#bfbfbf" points="723.5,-168.5 723.5,-187.5 782.5,-187.5 782.5,-168.5 723.5,-168.5"/>
<text text-anchor="middle" x="753" y="-175.5" font-family="Helvetica,sans-Serif" font-size="10.00">numbers</text>
</a>
</g>
</g>
<!-- Node1&#45;&gt;Node10 -->
<g id="edge21" class="edge">
<title>Node1&#45;&gt;Node10</title>
<path fill="none" stroke="midnightblue" d="M490.74,-224.49C546.98,-216.65 631.37,-204.09 713.21,-188.24"/>
<polygon fill="midnightblue" stroke="midnightblue" points="714.03,-191.65 723.18,-186.29 712.69,-184.78 714.03,-191.65"/>
</g>
<!-- Node3 -->
<g id="node3" class="node">
<title>Node3</title>
<g id="a_node3"><a xlink:href="key_8hpp.html" target="_top" xlink:title=" ">
<polygon fill="white" stroke="red" points="22.5,-56.5 22.5,-75.5 81.5,-75.5 81.5,-56.5 22.5,-56.5"/>
<text text-anchor="middle" x="52" y="-63.5" font-family="Helvetica,sans-Serif" font-size="10.00">./key.hpp</text>
</a>
</g>
</g>
<!-- Node2&#45;&gt;Node3 -->
<g id="edge2" class="edge">
<title>Node2&#45;&gt;Node3</title>
<path fill="none" stroke="midnightblue" d="M48.62,-168.44C43.44,-159.68 35.99,-145.47 33,-132 29.42,-115.88 35.49,-97.88 41.7,-84.92"/>
<polygon fill="midnightblue" stroke="midnightblue" points="44.97,-86.22 46.52,-75.74 38.77,-82.96 44.97,-86.22"/>
</g>
<!-- Node5 -->
<g id="node4" class="node">
<title>Node5</title>
<g id="a_node4"><a xlink:href="map_8hpp.html" target="_top" xlink:title=" ">
<polygon fill="white" stroke="red" points="42.5,-112.5 42.5,-131.5 107.5,-131.5 107.5,-112.5 42.5,-112.5"/>
<text text-anchor="middle" x="75" y="-119.5" font-family="Helvetica,sans-Serif" font-size="10.00">./map.hpp</text>
</a>
</g>
</g>
<!-- Node2&#45;&gt;Node5 -->
<g id="edge3" class="edge">
<title>Node2&#45;&gt;Node5</title>
<path fill="none" stroke="midnightblue" d="M57.47,-168.08C60.31,-160.77 64.43,-150.18 67.96,-141.1"/>
<polygon fill="midnightblue" stroke="midnightblue" points="71.23,-142.34 71.6,-131.75 64.71,-139.8 71.23,-142.34"/>
</g>
<!-- Node5&#45;&gt;Node3 -->
<g id="edge4" class="edge">
<title>Node5&#45;&gt;Node3</title>
<path fill="none" stroke="midnightblue" d="M71.2,-112.08C68.09,-104.77 63.58,-94.18 59.71,-85.1"/>
<polygon fill="midnightblue" stroke="midnightblue" points="62.87,-83.58 55.73,-75.75 56.43,-86.32 62.87,-83.58"/>
</g>
<!-- Node18 -->
<g id="node7" class="node">
<title>Node18</title>
<g id="a_node7"><a xlink:title=" ">
<polygon fill="white" stroke="#bfbfbf" points="514,-112.5 514,-131.5 578,-131.5 578,-112.5 514,-112.5"/>
<text text-anchor="middle" x="546" y="-119.5" font-family="Helvetica,sans-Serif" font-size="10.00">algorithm</text>
</a>
</g>
</g>
<!-- Node17&#45;&gt;Node18 -->
<g id="edge7" class="edge">
<title>Node17&#45;&gt;Node18</title>
<path fill="none" stroke="midnightblue" d="M543.5,-168.08C543.89,-161.01 544.45,-150.86 544.95,-141.99"/>
<polygon fill="midnightblue" stroke="midnightblue" points="548.45,-141.93 545.51,-131.75 541.46,-141.54 548.45,-141.93"/>
</g>
<!-- Node19 -->
<g id="node8" class="node">
<title>Node19</title>
<g id="a_node8"><a xlink:title=" ">
<polygon fill="white" stroke="#bfbfbf" points="596,-112.5 596,-131.5 646,-131.5 646,-112.5 596,-112.5"/>
<text text-anchor="middle" x="621" y="-119.5" font-family="Helvetica,sans-Serif" font-size="10.00">cstring</text>
</a>
</g>
</g>
<!-- Node17&#45;&gt;Node19 -->
<g id="edge8" class="edge">
<title>Node17&#45;&gt;Node19</title>
<path fill="none" stroke="midnightblue" d="M555.53,-168.32C567.59,-159.98 586.03,-147.21 600.27,-137.35"/>
<polygon fill="midnightblue" stroke="midnightblue" points="602.27,-140.22 608.5,-131.65 598.28,-134.47 602.27,-140.22"/>
</g>
<!-- Node20 -->
<g id="node9" class="node">
<title>Node20</title>
<g id="a_node9"><a xlink:title=" ">
<polygon fill="white" stroke="#bfbfbf" points="664.5,-112.5 664.5,-131.5 737.5,-131.5 737.5,-112.5 664.5,-112.5"/>
<text text-anchor="middle" x="701" y="-119.5" font-family="Helvetica,sans-Serif" font-size="10.00">string_view</text>
</a>
</g>
</g>
<!-- Node17&#45;&gt;Node20 -->
<g id="edge9" class="edge">
<title>Node17&#45;&gt;Node20</title>
<path fill="none" stroke="midnightblue" d="M568.04,-168.44C594.62,-159.36 636.81,-144.94 666.52,-134.78"/>
<polygon fill="midnightblue" stroke="midnightblue" points="667.75,-138.06 676.08,-131.52 665.49,-131.44 667.75,-138.06"/>
</g>
<!-- Node22 -->
<g id="node11" class="node">
<title>Node22</title>
<g id="a_node11"><a xlink:href="hal_8hpp.html" target="_top" xlink:title=" ">
<polygon fill="white" stroke="red" points="132.5,-0.5 132.5,-19.5 185.5,-19.5 185.5,-0.5 132.5,-0.5"/>
<text text-anchor="middle" x="159" y="-7.5" font-family="Helvetica,sans-Serif" font-size="10.00">hal.hpp</text>
</a>
</g>
</g>
<!-- Node21&#45;&gt;Node22 -->
<g id="edge11" class="edge">
<title>Node21&#45;&gt;Node22</title>
<path fill="none" stroke="midnightblue" d="M159,-56.08C159,-49.01 159,-38.86 159,-29.99"/>
<polygon fill="midnightblue" stroke="midnightblue" points="162.5,-29.75 159,-19.75 155.5,-29.75 162.5,-29.75"/>
</g>
<!-- Node24&#45;&gt;Node5 -->
<g id="edge13" class="edge">
<title>Node24&#45;&gt;Node5</title>
<path fill="none" stroke="midnightblue" d="M284.36,-169.72C241.21,-160.09 165.1,-143.1 117.5,-132.48"/>
<polygon fill="midnightblue" stroke="midnightblue" points="118.03,-129.02 107.51,-130.25 116.5,-135.85 118.03,-129.02"/>
</g>
<!-- Node25 -->
<g id="node13" class="node">
<title>Node25</title>
<g id="a_node13"><a xlink:href="defs_8hpp.html" target="_top" xlink:title=" ">
<polygon fill="white" stroke="black" points="362.5,-112.5 362.5,-131.5 457.5,-131.5 457.5,-112.5 362.5,-112.5"/>
<text text-anchor="middle" x="410" y="-119.5" font-family="Helvetica,sans-Serif" font-size="10.00">../../drv/defs.hpp</text>
</a>
</g>
</g>
<!-- Node24&#45;&gt;Node25 -->
<g id="edge14" class="edge">
<title>Node24&#45;&gt;Node25</title>
<path fill="none" stroke="midnightblue" d="M331.94,-168.32C346.59,-159.82 369.13,-146.73 386.24,-136.8"/>
<polygon fill="midnightblue" stroke="midnightblue" points="388.2,-139.7 395.1,-131.65 384.69,-133.65 388.2,-139.7"/>
</g>
<!-- Node26 -->
<g id="node14" class="node">
<title>Node26</title>
<g id="a_node14"><a xlink:title=" ">
<polygon fill="white" stroke="#bfbfbf" points="420,-56.5 420,-75.5 476,-75.5 476,-56.5 420,-56.5"/>
<text text-anchor="middle" x="448" y="-63.5" font-family="Helvetica,sans-Serif" font-size="10.00">optional</text>
</a>
</g>
</g>
<!-- Node24&#45;&gt;Node26 -->
<g id="edge19" class="edge">
<title>Node24&#45;&gt;Node26</title>
<path fill="none" stroke="midnightblue" d="M349.84,-169.27C391.53,-159.14 458.93,-141.52 466,-132 476.32,-118.1 468.71,-98.57 460.45,-84.55"/>
<polygon fill="midnightblue" stroke="midnightblue" points="463.2,-82.36 454.83,-75.86 457.32,-86.16 463.2,-82.36"/>
</g>
<!-- Node27 -->
<g id="node15" class="node">
<title>Node27</title>
<g id="a_node15"><a xlink:title=" ">
<polygon fill="white" stroke="#bfbfbf" points="164,-112.5 164,-131.5 268,-131.5 268,-112.5 164,-112.5"/>
<text text-anchor="middle" x="216" y="-119.5" font-family="Helvetica,sans-Serif" font-size="10.00">emlabcpp/result.h</text>
</a>
</g>
</g>
<!-- Node24&#45;&gt;Node27 -->
<g id="edge17" class="edge">
<title>Node24&#45;&gt;Node27</title>
<path fill="none" stroke="midnightblue" d="M300.77,-168.32C284.65,-159.7 259.7,-146.36 241.04,-136.39"/>
<polygon fill="midnightblue" stroke="midnightblue" points="242.66,-133.28 232.19,-131.65 239.36,-139.46 242.66,-133.28"/>
</g>
<!-- Node28 -->
<g id="node16" class="node">
<title>Node28</title>
<g id="a_node16"><a xlink:title=" ">
<polygon fill="white" stroke="#bfbfbf" points="286,-112.5 286,-131.5 344,-131.5 344,-112.5 286,-112.5"/>
<text text-anchor="middle" x="315" y="-119.5" font-family="Helvetica,sans-Serif" font-size="10.00">memory</text>
</a>
</g>
</g>
<!-- Node24&#45;&gt;Node28 -->
<g id="edge18" class="edge">
<title>Node24&#45;&gt;Node28</title>
<path fill="none" stroke="midnightblue" d="M316.67,-168.08C316.41,-161.01 316.03,-150.86 315.7,-141.99"/>
<polygon fill="midnightblue" stroke="midnightblue" points="319.19,-141.61 315.32,-131.75 312.2,-141.87 319.19,-141.61"/>
</g>
<!-- Node25&#45;&gt;Node21 -->
<g id="edge15" class="edge">
<title>Node25&#45;&gt;Node21</title>
<path fill="none" stroke="midnightblue" d="M370.23,-112.44C326.44,-103.02 255.99,-87.87 208.62,-77.68"/>
<polygon fill="midnightblue" stroke="midnightblue" points="209.1,-74.2 198.59,-75.52 207.63,-81.04 209.1,-74.2"/>
</g>
<!-- Node25&#45;&gt;Node26 -->
<g id="edge16" class="edge">
<title>Node25&#45;&gt;Node26</title>
<path fill="none" stroke="midnightblue" d="M416.27,-112.08C421.64,-104.46 429.52,-93.26 436.08,-83.94"/>
<polygon fill="midnightblue" stroke="midnightblue" points="438.95,-85.94 441.84,-75.75 433.22,-81.91 438.95,-85.94"/>
</g>
</g>
</svg>
