<?xml version="1.0" encoding="UTF-8" standalone="no"?>
<!DOCTYPE svg PUBLIC "-//W3C//DTD SVG 1.1//EN"
 "http://www.w3.org/Graphics/SVG/1.1/DTD/svg11.dtd">
<!-- Generated by graphviz version 2.43.0 (0)
 -->
<!-- Title: src/plt/stm32h5/config.cpp Pages: 1 -->
<svg width="745pt" height="252pt"
 viewBox="0.00 0.00 744.50 252.00" xmlns="http://www.w3.org/2000/svg" xmlns:xlink="http://www.w3.org/1999/xlink">
<g id="graph0" class="graph" transform="scale(1 1) rotate(0) translate(4 248)">
<title>src/plt/stm32h5/config.cpp</title>
<polygon fill="white" stroke="transparent" points="-4,4 -4,-248 740.5,-248 740.5,4 -4,4"/>
<!-- Node1 -->
<g id="node1" class="node">
<title>Node1</title>
<g id="a_node1"><a xlink:title=" ">
<polygon fill="#bfbfbf" stroke="black" points="333.5,-224.5 333.5,-243.5 478.5,-243.5 478.5,-224.5 333.5,-224.5"/>
<text text-anchor="middle" x="406" y="-231.5" font-family="Helvetica,sans-Serif" font-size="10.00">src/plt/stm32h5/config.cpp</text>
</a>
</g>
</g>
<!-- Node2 -->
<g id="node2" class="node">
<title>Node2</title>
<g id="a_node2"><a xlink:href="default_8hpp.html" target="_top" xlink:title=" ">
<polygon fill="white" stroke="black" points="0,-168.5 0,-187.5 90,-187.5 90,-168.5 0,-168.5"/>
<text text-anchor="middle" x="45" y="-175.5" font-family="Helvetica,sans-Serif" font-size="10.00">cfg/default.hpp</text>
</a>
</g>
</g>
<!-- Node1&#45;&gt;Node2 -->
<g id="edge1" class="edge">
<title>Node1&#45;&gt;Node2</title>
<path fill="none" stroke="midnightblue" d="M348.38,-224.47C287.6,-215.47 189.05,-200.82 104,-188 102.73,-187.81 101.45,-187.62 100.15,-187.42"/>
<polygon fill="midnightblue" stroke="midnightblue" points="100.51,-183.93 90.1,-185.9 99.46,-190.85 100.51,-183.93"/>
</g>
<!-- Node16 -->
<g id="node5" class="node">
<title>Node16</title>
<g id="a_node5"><a xlink:href="math_8hpp.html" target="_top" xlink:title=" ">
<polygon fill="white" stroke="black" points="365.5,-168.5 365.5,-187.5 446.5,-187.5 446.5,-168.5 365.5,-168.5"/>
<text text-anchor="middle" x="406" y="-175.5" font-family="Helvetica,sans-Serif" font-size="10.00">cfg/math.hpp</text>
</a>
</g>
</g>
<!-- Node1&#45;&gt;Node16 -->
<g id="edge5" class="edge">
<title>Node1&#45;&gt;Node16</title>
<path fill="none" stroke="midnightblue" d="M406,-224.08C406,-217.01 406,-206.86 406,-197.99"/>
<polygon fill="midnightblue" stroke="midnightblue" points="409.5,-197.75 406,-187.75 402.5,-197.75 409.5,-197.75"/>
</g>
<!-- Node17 -->
<g id="node6" class="node">
<title>Node17</title>
<g id="a_node6"><a xlink:href="util_8hpp.html" target="_top" xlink:title=" ">
<polygon fill="white" stroke="black" points="472,-168.5 472,-187.5 540,-187.5 540,-168.5 472,-168.5"/>
<text text-anchor="middle" x="506" y="-175.5" font-family="Helvetica,sans-Serif" font-size="10.00">fw/util.hpp</text>
</a>
</g>
</g>
<!-- Node1&#45;&gt;Node17 -->
<g id="edge6" class="edge">
<title>Node1&#45;&gt;Node17</title>
<path fill="none" stroke="midnightblue" d="M422.07,-224.32C437.96,-215.74 462.51,-202.49 480.96,-192.52"/>
<polygon fill="midnightblue" stroke="midnightblue" points="482.84,-195.49 489.97,-187.65 479.51,-189.33 482.84,-195.49"/>
</g>
<!-- Node21 -->
<g id="node10" class="node">
<title>Node21</title>
<g id="a_node10"><a xlink:href="platform_8hpp.html" target="_top" xlink:title=" ">
<polygon fill="white" stroke="black" points="100,-56.5 100,-75.5 180,-75.5 180,-56.5 100,-56.5"/>
<text text-anchor="middle" x="140" y="-63.5" font-family="Helvetica,sans-Serif" font-size="10.00">platform.hpp</text>
</a>
</g>
</g>
<!-- Node1&#45;&gt;Node21 -->
<g id="edge10" class="edge">
<title>Node1&#45;&gt;Node21</title>
<path fill="none" stroke="midnightblue" d="M333.23,-228.67C268.84,-220.46 178.81,-197.19 137,-132 128.24,-118.34 130.25,-99.55 133.71,-85.69"/>
<polygon fill="midnightblue" stroke="midnightblue" points="137.15,-86.4 136.61,-75.82 130.43,-84.42 137.15,-86.4"/>
</g>
<!-- Node24 -->
<g id="node12" class="node">
<title>Node24</title>
<g id="a_node12"><a xlink:href="plt_2stm32h5_2setup_8hpp.html" target="_top" xlink:title=" ">
<polygon fill="white" stroke="black" points="268.5,-168.5 268.5,-187.5 333.5,-187.5 333.5,-168.5 268.5,-168.5"/>
<text text-anchor="middle" x="301" y="-175.5" font-family="Helvetica,sans-Serif" font-size="10.00">setup.hpp</text>
</a>
</g>
</g>
<!-- Node1&#45;&gt;Node24 -->
<g id="edge12" class="edge">
<title>Node1&#45;&gt;Node24</title>
<path fill="none" stroke="midnightblue" d="M389.13,-224.32C372.29,-215.66 346.19,-202.24 326.76,-192.25"/>
<polygon fill="midnightblue" stroke="midnightblue" points="328.32,-189.12 317.83,-187.65 325.12,-195.34 328.32,-189.12"/>
</g>
<!-- Node29 -->
<g id="node17" class="node">
<title>Node29</title>
<g id="a_node17"><a xlink:title=" ">
<polygon fill="white" stroke="#bfbfbf" points="558.5,-168.5 558.5,-187.5 659.5,-187.5 659.5,-168.5 558.5,-168.5"/>
<text text-anchor="middle" x="609" y="-175.5" font-family="Helvetica,sans-Serif" font-size="10.00">emlabcpp/defer.h</text>
</a>
</g>
</g>
<!-- Node1&#45;&gt;Node29 -->
<g id="edge20" class="edge">
<title>Node1&#45;&gt;Node29</title>
<path fill="none" stroke="midnightblue" d="M438.17,-224.44C473.06,-215.16 528.89,-200.31 567.17,-190.13"/>
<polygon fill="midnightblue" stroke="midnightblue" points="568.22,-193.47 576.98,-187.52 566.42,-186.7 568.22,-193.47"/>
</g>
<!-- Node10 -->
<g id="node18" class="node">
<title>Node10</title>
<g id="a_node18"><a xlink:title=" ">
<polygon fill="white" stroke="#bfbfbf" points="677.5,-168.5 677.5,-187.5 736.5,-187.5 736.5,-168.5 677.5,-168.5"/>
<text text-anchor="middle" x="707" y="-175.5" font-family="Helvetica,sans-Serif" font-size="10.00">numbers</text>
</a>
</g>
</g>
<!-- Node1&#45;&gt;Node10 -->
<g id="edge21" class="edge">
<title>Node1&#45;&gt;Node10</title>
<path fill="none" stroke="midnightblue" d="M461.86,-224.49C512.93,-216.47 590.8,-203.66 666.93,-188.33"/>
<polygon fill="midnightblue" stroke="midnightblue" points="668.07,-191.67 677.17,-186.25 666.67,-184.81 668.07,-191.67"/>
</g>
<!-- Node3 -->
<g id="node3" class="node">
<title>Node3</title>
<g id="a_node3"><a xlink:href="key_8hpp.html" target="_top" xlink:title=" ">
<polygon fill="white" stroke="red" points="5.5,-56.5 5.5,-75.5 64.5,-75.5 64.5,-56.5 5.5,-56.5"/>
<text text-anchor="middle" x="35" y="-63.5" font-family="Helvetica,sans-Serif" font-size="10.00">./key.hpp</text>
</a>
</g>
</g>
<!-- Node2&#45;&gt;Node3 -->
<g id="edge2" class="edge">
<title>Node2&#45;&gt;Node3</title>
<path fill="none" stroke="midnightblue" d="M36.79,-168.18C29.46,-159.66 19.24,-146.02 15,-132 10.15,-115.97 16.81,-97.75 23.72,-84.69"/>
<polygon fill="midnightblue" stroke="midnightblue" points="26.87,-86.23 28.87,-75.82 20.82,-82.72 26.87,-86.23"/>
</g>
<!-- Node5 -->
<g id="node4" class="node">
<title>Node5</title>
<g id="a_node4"><a xlink:href="map_8hpp.html" target="_top" xlink:title=" ">
<polygon fill="white" stroke="red" points="24.5,-112.5 24.5,-131.5 89.5,-131.5 89.5,-112.5 24.5,-112.5"/>
<text text-anchor="middle" x="57" y="-119.5" font-family="Helvetica,sans-Serif" font-size="10.00">./map.hpp</text>
</a>
</g>
</g>
<!-- Node2&#45;&gt;Node5 -->
<g id="edge3" class="edge">
<title>Node2&#45;&gt;Node5</title>
<path fill="none" stroke="midnightblue" d="M46.98,-168.08C48.57,-160.93 50.86,-150.64 52.85,-141.69"/>
<polygon fill="midnightblue" stroke="midnightblue" points="56.3,-142.27 55.06,-131.75 49.47,-140.75 56.3,-142.27"/>
</g>
<!-- Node5&#45;&gt;Node3 -->
<g id="edge4" class="edge">
<title>Node5&#45;&gt;Node3</title>
<path fill="none" stroke="midnightblue" d="M53.37,-112.08C50.39,-104.77 46.07,-94.18 42.38,-85.1"/>
<polygon fill="midnightblue" stroke="midnightblue" points="45.58,-83.69 38.57,-75.75 39.1,-86.33 45.58,-83.69"/>
</g>
<!-- Node18 -->
<g id="node7" class="node">
<title>Node18</title>
<g id="a_node7"><a xlink:title=" ">
<polygon fill="white" stroke="#bfbfbf" points="478,-112.5 478,-131.5 542,-131.5 542,-112.5 478,-112.5"/>
<text text-anchor="middle" x="510" y="-119.5" font-family="Helvetica,sans-Serif" font-size="10.00">algorithm</text>
</a>
</g>
</g>
<!-- Node17&#45;&gt;Node18 -->
<g id="edge7" class="edge">
<title>Node17&#45;&gt;Node18</title>
<path fill="none" stroke="midnightblue" d="M506.66,-168.08C507.18,-161.01 507.94,-150.86 508.59,-141.99"/>
<polygon fill="midnightblue" stroke="midnightblue" points="512.1,-141.98 509.35,-131.75 505.12,-141.47 512.1,-141.98"/>
</g>
<!-- Node19 -->
<g id="node8" class="node">
<title>Node19</title>
<g id="a_node8"><a xlink:title=" ">
<polygon fill="white" stroke="#bfbfbf" points="560,-112.5 560,-131.5 610,-131.5 610,-112.5 560,-112.5"/>
<text text-anchor="middle" x="585" y="-119.5" font-family="Helvetica,sans-Serif" font-size="10.00">cstring</text>
</a>
</g>
</g>
<!-- Node17&#45;&gt;Node19 -->
<g id="edge8" class="edge">
<title>Node17&#45;&gt;Node19</title>
<path fill="none" stroke="midnightblue" d="M518.69,-168.32C530.9,-159.98 549.58,-147.21 564,-137.35"/>
<polygon fill="midnightblue" stroke="midnightblue" points="566.06,-140.19 572.34,-131.65 562.11,-134.41 566.06,-140.19"/>
</g>
<!-- Node20 -->
<g id="node9" class="node">
<title>Node20</title>
<g id="a_node9"><a xlink:title=" ">
<polygon fill="white" stroke="#bfbfbf" points="628.5,-112.5 628.5,-131.5 701.5,-131.5 701.5,-112.5 628.5,-112.5"/>
<text text-anchor="middle" x="665" y="-119.5" font-family="Helvetica,sans-Serif" font-size="10.00">string_view</text>
</a>
</g>
</g>
<!-- Node17&#45;&gt;Node20 -->
<g id="edge9" class="edge">
<title>Node17&#45;&gt;Node20</title>
<path fill="none" stroke="midnightblue" d="M531.19,-168.44C557.94,-159.36 600.4,-144.94 630.31,-134.78"/>
<polygon fill="midnightblue" stroke="midnightblue" points="631.58,-138.05 639.92,-131.52 629.33,-131.42 631.58,-138.05"/>
</g>
<!-- Node22 -->
<g id="node11" class="node">
<title>Node22</title>
<g id="a_node11"><a xlink:href="hal_8hpp.html" target="_top" xlink:title=" ">
<polygon fill="white" stroke="red" points="113.5,-0.5 113.5,-19.5 166.5,-19.5 166.5,-0.5 113.5,-0.5"/>
<text text-anchor="middle" x="140" y="-7.5" font-family="Helvetica,sans-Serif" font-size="10.00">hal.hpp</text>
</a>
</g>
</g>
<!-- Node21&#45;&gt;Node22 -->
<g id="edge11" class="edge">
<title>Node21&#45;&gt;Node22</title>
<path fill="none" stroke="midnightblue" d="M140,-56.08C140,-49.01 140,-38.86 140,-29.99"/>
<polygon fill="midnightblue" stroke="midnightblue" points="143.5,-29.75 140,-19.75 136.5,-29.75 143.5,-29.75"/>
</g>
<!-- Node24&#45;&gt;Node5 -->
<g id="edge13" class="edge">
<title>Node24&#45;&gt;Node5</title>
<path fill="none" stroke="midnightblue" d="M268.35,-169.77C224.82,-160.14 147.72,-143.08 99.64,-132.44"/>
<polygon fill="midnightblue" stroke="midnightblue" points="100.37,-129.01 89.85,-130.27 98.86,-135.85 100.37,-129.01"/>
</g>
<!-- Node25 -->
<g id="node13" class="node">
<title>Node25</title>
<g id="a_node13"><a xlink:href="defs_8hpp.html" target="_top" xlink:title=" ">
<polygon fill="white" stroke="black" points="344.5,-112.5 344.5,-131.5 421.5,-131.5 421.5,-112.5 344.5,-112.5"/>
<text text-anchor="middle" x="383" y="-119.5" font-family="Helvetica,sans-Serif" font-size="10.00">drv/defs.hpp</text>
</a>
</g>
</g>
<!-- Node24&#45;&gt;Node25 -->
<g id="edge14" class="edge">
<title>Node24&#45;&gt;Node25</title>
<path fill="none" stroke="midnightblue" d="M314.17,-168.32C326.85,-159.98 346.23,-147.21 361.21,-137.35"/>
<polygon fill="midnightblue" stroke="midnightblue" points="363.43,-140.08 369.86,-131.65 359.58,-134.23 363.43,-140.08"/>
</g>
<!-- Node26 -->
<g id="node14" class="node">
<title>Node26</title>
<g id="a_node14"><a xlink:title=" ">
<polygon fill="white" stroke="#bfbfbf" points="388,-56.5 388,-75.5 444,-75.5 444,-56.5 388,-56.5"/>
<text text-anchor="middle" x="416" y="-63.5" font-family="Helvetica,sans-Serif" font-size="10.00">optional</text>
</a>
</g>
</g>
<!-- Node24&#45;&gt;Node26 -->
<g id="edge19" class="edge">
<title>Node24&#45;&gt;Node26</title>
<path fill="none" stroke="midnightblue" d="M333.7,-170.1C368.05,-162.12 418.63,-148 430,-132 439.79,-118.22 433.8,-98.93 426.87,-84.95"/>
<polygon fill="midnightblue" stroke="midnightblue" points="429.76,-82.94 421.88,-75.86 423.63,-86.31 429.76,-82.94"/>
</g>
<!-- Node27 -->
<g id="node15" class="node">
<title>Node27</title>
<g id="a_node15"><a xlink:title=" ">
<polygon fill="white" stroke="#bfbfbf" points="146,-112.5 146,-131.5 250,-131.5 250,-112.5 146,-112.5"/>
<text text-anchor="middle" x="198" y="-119.5" font-family="Helvetica,sans-Serif" font-size="10.00">emlabcpp/result.h</text>
</a>
</g>
</g>
<!-- Node24&#45;&gt;Node27 -->
<g id="edge17" class="edge">
<title>Node24&#45;&gt;Node27</title>
<path fill="none" stroke="midnightblue" d="M284.45,-168.32C268.01,-159.7 242.57,-146.36 223.53,-136.39"/>
<polygon fill="midnightblue" stroke="midnightblue" points="224.99,-133.2 214.51,-131.65 221.74,-139.4 224.99,-133.2"/>
</g>
<!-- Node28 -->
<g id="node16" class="node">
<title>Node28</title>
<g id="a_node16"><a xlink:title=" ">
<polygon fill="white" stroke="#bfbfbf" points="268,-112.5 268,-131.5 326,-131.5 326,-112.5 268,-112.5"/>
<text text-anchor="middle" x="297" y="-119.5" font-family="Helvetica,sans-Serif" font-size="10.00">memory</text>
</a>
</g>
</g>
<!-- Node24&#45;&gt;Node28 -->
<g id="edge18" class="edge">
<title>Node24&#45;&gt;Node28</title>
<path fill="none" stroke="midnightblue" d="M300.34,-168.08C299.82,-161.01 299.06,-150.86 298.41,-141.99"/>
<polygon fill="midnightblue" stroke="midnightblue" points="301.88,-141.47 297.65,-131.75 294.9,-141.98 301.88,-141.47"/>
</g>
<!-- Node25&#45;&gt;Node21 -->
<g id="edge15" class="edge">
<title>Node25&#45;&gt;Node21</title>
<path fill="none" stroke="midnightblue" d="M344.5,-112.44C302.19,-103.04 234.18,-87.93 188.33,-77.74"/>
<polygon fill="midnightblue" stroke="midnightblue" points="188.85,-74.27 178.32,-75.52 187.33,-81.1 188.85,-74.27"/>
</g>
<!-- Node25&#45;&gt;Node26 -->
<g id="edge16" class="edge">
<title>Node25&#45;&gt;Node26</title>
<path fill="none" stroke="midnightblue" d="M388.45,-112.08C393.01,-104.61 399.67,-93.72 405.29,-84.52"/>
<polygon fill="midnightblue" stroke="midnightblue" points="408.42,-86.11 410.65,-75.75 402.45,-82.46 408.42,-86.11"/>
</g>
</g>
</svg>
