<?xml version="1.0" encoding="UTF-8" standalone="no"?>
<!DOCTYPE svg PUBLIC "-//W3C//DTD SVG 1.1//EN"
 "http://www.w3.org/Graphics/SVG/1.1/DTD/svg11.dtd">
<!-- Generated by graphviz version 2.43.0 (0)
 -->
<!-- Title: src/plt/stm32h5/setup.hpp Pages: 1 -->
<svg width="1281pt" height="151pt"
 viewBox="0.00 0.00 1280.50 151.00" xmlns="http://www.w3.org/2000/svg" xmlns:xlink="http://www.w3.org/1999/xlink">
<g id="graph0" class="graph" transform="scale(1 1) rotate(0) translate(4 147)">
<title>src/plt/stm32h5/setup.hpp</title>
<polygon fill="white" stroke="transparent" points="-4,4 -4,-147 1276.5,-147 1276.5,4 -4,4"/>
<!-- Node1 -->
<g id="node1" class="node">
<title>Node1</title>
<g id="a_node1"><a xlink:title=" ">
<polygon fill="#bfbfbf" stroke="black" points="993,-123.5 993,-142.5 1136,-142.5 1136,-123.5 993,-123.5"/>
<text text-anchor="middle" x="1064.5" y="-130.5" font-family="Helvetica,sans-Serif" font-size="10.00">src/plt/stm32h5/setup.hpp</text>
</a>
</g>
</g>
<!-- Node2 -->
<g id="node2" class="node">
<title>Node2</title>
<g id="a_node2"><a xlink:href="map_8hpp.html" target="_top" xlink:title=" ">
<polygon fill="white" stroke="black" points="453,-67.5 453,-86.5 530,-86.5 530,-67.5 453,-67.5"/>
<text text-anchor="middle" x="491.5" y="-74.5" font-family="Helvetica,sans-Serif" font-size="10.00">cfg/map.hpp</text>
</a>
</g>
</g>
<!-- Node1&#45;&gt;Node2 -->
<g id="edge1" class="edge">
<title>Node1&#45;&gt;Node2</title>
<path fill="none" stroke="midnightblue" d="M992.8,-125.24C874.61,-114.1 641.91,-92.17 540.58,-82.63"/>
<polygon fill="midnightblue" stroke="midnightblue" points="540.62,-79.11 530.33,-81.66 539.96,-86.08 540.62,-79.11"/>
</g>
<!-- Node15 -->
<g id="node10" class="node">
<title>Node15</title>
<g id="a_node10"><a xlink:href="defs_8hpp.html" target="_top" xlink:title=" ">
<polygon fill="white" stroke="black" points="959,-67.5 959,-86.5 1036,-86.5 1036,-67.5 959,-67.5"/>
<text text-anchor="middle" x="997.5" y="-74.5" font-family="Helvetica,sans-Serif" font-size="10.00">drv/defs.hpp</text>
</a>
</g>
</g>
<!-- Node1&#45;&gt;Node15 -->
<g id="edge9" class="edge">
<title>Node1&#45;&gt;Node15</title>
<path fill="none" stroke="midnightblue" d="M1053.74,-123.32C1043.73,-115.26 1028.61,-103.08 1016.57,-93.37"/>
<polygon fill="midnightblue" stroke="midnightblue" points="1018.44,-90.38 1008.46,-86.83 1014.05,-95.83 1018.44,-90.38"/>
</g>
<!-- Node19 -->
<g id="node12" class="node">
<title>Node19</title>
<g id="a_node12"><a xlink:title=" ">
<polygon fill="white" stroke="#bfbfbf" points="1046.5,-6 1046.5,-25 1102.5,-25 1102.5,-6 1046.5,-6"/>
<text text-anchor="middle" x="1074.5" y="-13" font-family="Helvetica,sans-Serif" font-size="10.00">optional</text>
</a>
</g>
</g>
<!-- Node1&#45;&gt;Node19 -->
<g id="edge14" class="edge">
<title>Node1&#45;&gt;Node19</title>
<path fill="none" stroke="midnightblue" d="M1065.25,-123.32C1066.86,-104.76 1070.66,-60.84 1072.86,-35.47"/>
<polygon fill="midnightblue" stroke="midnightblue" points="1076.36,-35.55 1073.74,-25.28 1069.39,-34.94 1076.36,-35.55"/>
</g>
<!-- Node20 -->
<g id="node13" class="node">
<title>Node20</title>
<g id="a_node13"><a xlink:title=" ">
<polygon fill="white" stroke="#bfbfbf" points="1092.5,-67.5 1092.5,-86.5 1196.5,-86.5 1196.5,-67.5 1092.5,-67.5"/>
<text text-anchor="middle" x="1144.5" y="-74.5" font-family="Helvetica,sans-Serif" font-size="10.00">emlabcpp/result.h</text>
</a>
</g>
</g>
<!-- Node1&#45;&gt;Node20 -->
<g id="edge12" class="edge">
<title>Node1&#45;&gt;Node20</title>
<path fill="none" stroke="midnightblue" d="M1077.35,-123.32C1089.72,-114.98 1108.63,-102.21 1123.24,-92.35"/>
<polygon fill="midnightblue" stroke="midnightblue" points="1125.35,-95.15 1131.68,-86.65 1121.43,-89.35 1125.35,-95.15"/>
</g>
<!-- Node21 -->
<g id="node14" class="node">
<title>Node21</title>
<g id="a_node14"><a xlink:title=" ">
<polygon fill="white" stroke="#bfbfbf" points="1214.5,-67.5 1214.5,-86.5 1272.5,-86.5 1272.5,-67.5 1214.5,-67.5"/>
<text text-anchor="middle" x="1243.5" y="-74.5" font-family="Helvetica,sans-Serif" font-size="10.00">memory</text>
</a>
</g>
</g>
<!-- Node1&#45;&gt;Node21 -->
<g id="edge13" class="edge">
<title>Node1&#45;&gt;Node21</title>
<path fill="none" stroke="midnightblue" d="M1092.86,-123.44C1123.24,-114.28 1171.61,-99.69 1205.32,-89.52"/>
<polygon fill="midnightblue" stroke="midnightblue" points="1206.71,-92.76 1215.27,-86.52 1204.68,-86.05 1206.71,-92.76"/>
</g>
<!-- Node3 -->
<g id="node3" class="node">
<title>Node3</title>
<g id="a_node3"><a xlink:href="base_2base_8hpp.html" target="_top" xlink:title=" ">
<polygon fill="white" stroke="red" points="0,-6 0,-25 87,-25 87,-6 0,-6"/>
<text text-anchor="middle" x="43.5" y="-13" font-family="Helvetica,sans-Serif" font-size="10.00">base/base.hpp</text>
</a>
</g>
</g>
<!-- Node2&#45;&gt;Node3 -->
<g id="edge2" class="edge">
<title>Node2&#45;&gt;Node3</title>
<path fill="none" stroke="midnightblue" d="M452.96,-73.66C381.81,-68.89 225.22,-56.29 95.5,-31 90.75,-30.07 85.8,-28.93 80.92,-27.7"/>
<polygon fill="midnightblue" stroke="midnightblue" points="81.67,-24.27 71.1,-25.07 79.86,-31.04 81.67,-24.27"/>
</g>
<!-- Node9 -->
<g id="node4" class="node">
<title>Node9</title>
<g id="a_node4"><a xlink:href="key_8hpp.html" target="_top" xlink:title=" ">
<polygon fill="white" stroke="red" points="105,-6 105,-25 176,-25 176,-6 105,-6"/>
<text text-anchor="middle" x="140.5" y="-13" font-family="Helvetica,sans-Serif" font-size="10.00">cfg/key.hpp</text>
</a>
</g>
</g>
<!-- Node2&#45;&gt;Node9 -->
<g id="edge3" class="edge">
<title>Node2&#45;&gt;Node9</title>
<path fill="none" stroke="midnightblue" d="M452.81,-72.5C394.2,-66.7 279.65,-53.47 184.5,-31 181.03,-30.18 177.44,-29.21 173.88,-28.16"/>
<polygon fill="midnightblue" stroke="midnightblue" points="174.62,-24.73 164.03,-25.09 172.53,-31.41 174.62,-24.73"/>
</g>
<!-- Node10 -->
<g id="node5" class="node">
<title>Node10</title>
<g id="a_node5"><a xlink:title=" ">
<polygon fill="white" stroke="#bfbfbf" points="194,-0.5 194,-30.5 327,-30.5 327,-0.5 194,-0.5"/>
<text text-anchor="start" x="202" y="-18.5" font-family="Helvetica,sans-Serif" font-size="10.00">emlabcpp/experimental</text>
<text text-anchor="middle" x="260.5" y="-7.5" font-family="Helvetica,sans-Serif" font-size="10.00">/string_buffer.h</text>
</a>
</g>
</g>
<!-- Node2&#45;&gt;Node10 -->
<g id="edge4" class="edge">
<title>Node2&#45;&gt;Node10</title>
<path fill="none" stroke="midnightblue" d="M458.4,-67.48C423.68,-58.53 368.23,-44.25 324.85,-33.07"/>
<polygon fill="midnightblue" stroke="midnightblue" points="325.5,-29.63 314.94,-30.52 323.75,-36.41 325.5,-29.63"/>
</g>
<!-- Node11 -->
<g id="node6" class="node">
<title>Node11</title>
<g id="a_node6"><a xlink:title=" ">
<polygon fill="white" stroke="#bfbfbf" points="345,-0.5 345,-30.5 478,-30.5 478,-0.5 345,-0.5"/>
<text text-anchor="start" x="353" y="-18.5" font-family="Helvetica,sans-Serif" font-size="10.00">emlabcpp/experimental</text>
<text text-anchor="middle" x="411.5" y="-7.5" font-family="Helvetica,sans-Serif" font-size="10.00">/testing/convert.h</text>
</a>
</g>
</g>
<!-- Node2&#45;&gt;Node11 -->
<g id="edge5" class="edge">
<title>Node2&#45;&gt;Node11</title>
<path fill="none" stroke="midnightblue" d="M480.04,-67.48C469.3,-59.49 452.85,-47.25 438.75,-36.77"/>
<polygon fill="midnightblue" stroke="midnightblue" points="440.47,-33.68 430.35,-30.52 436.29,-39.3 440.47,-33.68"/>
</g>
<!-- Node12 -->
<g id="node7" class="node">
<title>Node12</title>
<g id="a_node7"><a xlink:title=" ">
<polygon fill="white" stroke="#bfbfbf" points="496.5,-0.5 496.5,-30.5 644.5,-30.5 644.5,-0.5 496.5,-0.5"/>
<text text-anchor="start" x="504.5" y="-18.5" font-family="Helvetica,sans-Serif" font-size="10.00">emlabcpp/protocol/register</text>
<text text-anchor="middle" x="570.5" y="-7.5" font-family="Helvetica,sans-Serif" font-size="10.00">_handler.h</text>
</a>
</g>
</g>
<!-- Node2&#45;&gt;Node12 -->
<g id="edge6" class="edge">
<title>Node2&#45;&gt;Node12</title>
<path fill="none" stroke="midnightblue" d="M502.82,-67.48C513.42,-59.49 529.67,-47.25 543.59,-36.77"/>
<polygon fill="midnightblue" stroke="midnightblue" points="546,-39.33 551.88,-30.52 541.79,-33.74 546,-39.33"/>
</g>
<!-- Node13 -->
<g id="node8" class="node">
<title>Node13</title>
<g id="a_node8"><a xlink:title=" ">
<polygon fill="white" stroke="#bfbfbf" points="662.5,-0.5 662.5,-30.5 810.5,-30.5 810.5,-0.5 662.5,-0.5"/>
<text text-anchor="start" x="670.5" y="-18.5" font-family="Helvetica,sans-Serif" font-size="10.00">emlabcpp/protocol/register</text>
<text text-anchor="middle" x="736.5" y="-7.5" font-family="Helvetica,sans-Serif" font-size="10.00">_map.h</text>
</a>
</g>
</g>
<!-- Node2&#45;&gt;Node13 -->
<g id="edge7" class="edge">
<title>Node2&#45;&gt;Node13</title>
<path fill="none" stroke="midnightblue" d="M526.6,-67.48C563.58,-58.49 622.74,-44.13 668.84,-32.93"/>
<polygon fill="midnightblue" stroke="midnightblue" points="669.87,-36.28 678.76,-30.52 668.21,-29.48 669.87,-36.28"/>
</g>
<!-- Node14 -->
<g id="node9" class="node">
<title>Node14</title>
<g id="a_node9"><a xlink:title=" ">
<polygon fill="white" stroke="#bfbfbf" points="829,-6 829,-25 930,-25 930,-6 829,-6"/>
<text text-anchor="middle" x="879.5" y="-13" font-family="Helvetica,sans-Serif" font-size="10.00">magic_enum.hpp</text>
</a>
</g>
</g>
<!-- Node2&#45;&gt;Node14 -->
<g id="edge8" class="edge">
<title>Node2&#45;&gt;Node14</title>
<path fill="none" stroke="midnightblue" d="M530.08,-71.98C591.6,-65.29 715.58,-50.63 819.5,-31 825.23,-29.92 831.24,-28.64 837.15,-27.3"/>
<polygon fill="midnightblue" stroke="midnightblue" points="838,-30.69 846.93,-25 836.4,-23.88 838,-30.69"/>
</g>
<!-- Node16 -->
<g id="node11" class="node">
<title>Node16</title>
<g id="a_node11"><a xlink:href="platform_8hpp.html" target="_top" xlink:title=" ">
<polygon fill="white" stroke="red" points="948.5,-6 948.5,-25 1028.5,-25 1028.5,-6 948.5,-6"/>
<text text-anchor="middle" x="988.5" y="-13" font-family="Helvetica,sans-Serif" font-size="10.00">platform.hpp</text>
</a>
</g>
</g>
<!-- Node15&#45;&gt;Node16 -->
<g id="edge10" class="edge">
<title>Node15&#45;&gt;Node16</title>
<path fill="none" stroke="midnightblue" d="M996.21,-67.48C994.94,-59.08 992.96,-45.98 991.32,-35.16"/>
<polygon fill="midnightblue" stroke="midnightblue" points="994.74,-34.37 989.79,-25.01 987.82,-35.42 994.74,-34.37"/>
</g>
<!-- Node15&#45;&gt;Node19 -->
<g id="edge11" class="edge">
<title>Node15&#45;&gt;Node19</title>
<path fill="none" stroke="midnightblue" d="M1008.53,-67.48C1020.77,-58.02 1040.73,-42.6 1055.49,-31.19"/>
<polygon fill="midnightblue" stroke="midnightblue" points="1057.72,-33.89 1063.49,-25.01 1053.44,-28.35 1057.72,-33.89"/>
</g>
</g>
</svg>
