<?xml version="1.0" encoding="UTF-8" standalone="no"?>
<!DOCTYPE svg PUBLIC "-//W3C//DTD SVG 1.1//EN"
 "http://www.w3.org/Graphics/SVG/1.1/DTD/svg11.dtd">
<!-- Generated by graphviz version 2.43.0 (0)
 -->
<!-- Title: src/plt/stm32h5/config.cpp Pages: 1 -->
<svg width="374pt" height="196pt"
 viewBox="0.00 0.00 373.50 196.00" xmlns="http://www.w3.org/2000/svg" xmlns:xlink="http://www.w3.org/1999/xlink">
<g id="graph0" class="graph" transform="scale(1 1) rotate(0) translate(4 192)">
<title>src/plt/stm32h5/config.cpp</title>
<polygon fill="white" stroke="transparent" points="-4,4 -4,-192 369.5,-192 369.5,4 -4,4"/>
<!-- Node1 -->
<g id="node1" class="node">
<title>Node1</title>
<g id="a_node1"><a xlink:title=" ">
<polygon fill="#bfbfbf" stroke="black" points="125.5,-168.5 125.5,-187.5 270.5,-187.5 270.5,-168.5 125.5,-168.5"/>
<text text-anchor="middle" x="198" y="-175.5" font-family="Helvetica,sans-Serif" font-size="10.00">src/plt/stm32h5/config.cpp</text>
</a>
</g>
</g>
<!-- Node2 -->
<g id="node2" class="node">
<title>Node2</title>
<g id="a_node2"><a xlink:href="default_8hpp.html" target="_top" xlink:title=" ">
<polygon fill="white" stroke="black" points="0,-112.5 0,-131.5 90,-131.5 90,-112.5 0,-112.5"/>
<text text-anchor="middle" x="45" y="-119.5" font-family="Helvetica,sans-Serif" font-size="10.00">cfg/default.hpp</text>
</a>
</g>
</g>
<!-- Node1&#45;&gt;Node2 -->
<g id="edge1" class="edge">
<title>Node1&#45;&gt;Node2</title>
<path fill="none" stroke="midnightblue" d="M173.76,-168.44C148.13,-159.4 107.51,-145.06 78.76,-134.92"/>
<polygon fill="midnightblue" stroke="midnightblue" points="79.72,-131.54 69.13,-131.52 77.39,-138.15 79.72,-131.54"/>
</g>
<!-- Node13 -->
<g id="node5" class="node">
<title>Node13</title>
<g id="a_node5"><a xlink:href="math_8hpp.html" target="_top" xlink:title=" ">
<polygon fill="white" stroke="black" points="108.5,-112.5 108.5,-131.5 189.5,-131.5 189.5,-112.5 108.5,-112.5"/>
<text text-anchor="middle" x="149" y="-119.5" font-family="Helvetica,sans-Serif" font-size="10.00">cfg/math.hpp</text>
</a>
</g>
</g>
<!-- Node1&#45;&gt;Node13 -->
<g id="edge5" class="edge">
<title>Node1&#45;&gt;Node13</title>
<path fill="none" stroke="midnightblue" d="M189.91,-168.08C182.84,-160.3 172.41,-148.8 163.85,-139.37"/>
<polygon fill="midnightblue" stroke="midnightblue" points="166.25,-136.8 156.94,-131.75 161.07,-141.51 166.25,-136.8"/>
</g>
<!-- Node14 -->
<g id="node6" class="node">
<title>Node14</title>
<g id="a_node6"><a xlink:href="platform_8hpp.html" target="_top" xlink:title=" ">
<polygon fill="white" stroke="black" points="208,-112.5 208,-131.5 288,-131.5 288,-112.5 208,-112.5"/>
<text text-anchor="middle" x="248" y="-119.5" font-family="Helvetica,sans-Serif" font-size="10.00">platform.hpp</text>
</a>
</g>
</g>
<!-- Node1&#45;&gt;Node14 -->
<g id="edge6" class="edge">
<title>Node1&#45;&gt;Node14</title>
<path fill="none" stroke="midnightblue" d="M206.26,-168.08C213.46,-160.3 224.11,-148.8 232.85,-139.37"/>
<polygon fill="midnightblue" stroke="midnightblue" points="235.67,-141.47 239.9,-131.75 230.53,-136.71 235.67,-141.47"/>
</g>
<!-- Node9 -->
<g id="node9" class="node">
<title>Node9</title>
<g id="a_node9"><a xlink:title=" ">
<polygon fill="white" stroke="#bfbfbf" points="306.5,-112.5 306.5,-131.5 365.5,-131.5 365.5,-112.5 306.5,-112.5"/>
<text text-anchor="middle" x="336" y="-119.5" font-family="Helvetica,sans-Serif" font-size="10.00">numbers</text>
</a>
</g>
</g>
<!-- Node1&#45;&gt;Node9 -->
<g id="edge9" class="edge">
<title>Node1&#45;&gt;Node9</title>
<path fill="none" stroke="midnightblue" d="M219.87,-168.44C242.78,-159.48 278.98,-145.31 304.87,-135.18"/>
<polygon fill="midnightblue" stroke="midnightblue" points="306.2,-138.42 314.24,-131.52 303.65,-131.9 306.2,-138.42"/>
</g>
<!-- Node3 -->
<g id="node3" class="node">
<title>Node3</title>
<g id="a_node3"><a xlink:href="key_8hpp.html" target="_top" xlink:title=" ">
<polygon fill="white" stroke="red" points="36.5,-0.5 36.5,-19.5 107.5,-19.5 107.5,-0.5 36.5,-0.5"/>
<text text-anchor="middle" x="72" y="-7.5" font-family="Helvetica,sans-Serif" font-size="10.00">cfg/key.hpp</text>
</a>
</g>
</g>
<!-- Node2&#45;&gt;Node3 -->
<g id="edge2" class="edge">
<title>Node2&#45;&gt;Node3</title>
<path fill="none" stroke="midnightblue" d="M46.48,-112.1C48.63,-99.52 52.94,-75.85 58,-56 60.28,-47.07 63.26,-37.29 65.89,-29.13"/>
<polygon fill="midnightblue" stroke="midnightblue" points="69.24,-30.14 69.05,-19.55 62.59,-27.95 69.24,-30.14"/>
</g>
<!-- Node5 -->
<g id="node4" class="node">
<title>Node5</title>
<g id="a_node4"><a xlink:href="map_8hpp.html" target="_top" xlink:title=" ">
<polygon fill="white" stroke="red" points="67.5,-56.5 67.5,-75.5 144.5,-75.5 144.5,-56.5 67.5,-56.5"/>
<text text-anchor="middle" x="106" y="-63.5" font-family="Helvetica,sans-Serif" font-size="10.00">cfg/map.hpp</text>
</a>
</g>
</g>
<!-- Node2&#45;&gt;Node5 -->
<g id="edge3" class="edge">
<title>Node2&#45;&gt;Node5</title>
<path fill="none" stroke="midnightblue" d="M54.8,-112.32C63.82,-104.34 77.41,-92.31 88.32,-82.65"/>
<polygon fill="midnightblue" stroke="midnightblue" points="90.85,-85.08 96.02,-75.83 86.21,-79.84 90.85,-85.08"/>
</g>
<!-- Node5&#45;&gt;Node3 -->
<g id="edge4" class="edge">
<title>Node5&#45;&gt;Node3</title>
<path fill="none" stroke="midnightblue" d="M100.39,-56.08C95.63,-48.53 88.68,-37.49 82.85,-28.23"/>
<polygon fill="midnightblue" stroke="midnightblue" points="85.8,-26.35 77.51,-19.75 79.88,-30.08 85.8,-26.35"/>
</g>
<!-- Node15 -->
<g id="node7" class="node">
<title>Node15</title>
<g id="a_node7"><a xlink:title=" ">
<polygon fill="white" stroke="#bfbfbf" points="191.5,-56.5 191.5,-75.5 244.5,-75.5 244.5,-56.5 191.5,-56.5"/>
<text text-anchor="middle" x="218" y="-63.5" font-family="Helvetica,sans-Serif" font-size="10.00">hal.hpp</text>
</a>
</g>
</g>
<!-- Node14&#45;&gt;Node15 -->
<g id="edge7" class="edge">
<title>Node14&#45;&gt;Node15</title>
<path fill="none" stroke="midnightblue" d="M243.05,-112.08C238.9,-104.61 232.85,-93.72 227.73,-84.52"/>
<polygon fill="midnightblue" stroke="midnightblue" points="230.78,-82.79 222.86,-75.75 224.66,-86.19 230.78,-82.79"/>
</g>
<!-- Node16 -->
<g id="node8" class="node">
<title>Node16</title>
<g id="a_node8"><a xlink:title=" ">
<polygon fill="white" stroke="#bfbfbf" points="263,-56.5 263,-75.5 303,-75.5 303,-56.5 263,-56.5"/>
<text text-anchor="middle" x="283" y="-63.5" font-family="Helvetica,sans-Serif" font-size="10.00">span</text>
</a>
</g>
</g>
<!-- Node14&#45;&gt;Node16 -->
<g id="edge8" class="edge">
<title>Node14&#45;&gt;Node16</title>
<path fill="none" stroke="midnightblue" d="M253.78,-112.08C258.67,-104.53 265.83,-93.49 271.83,-84.23"/>
<polygon fill="midnightblue" stroke="midnightblue" points="274.83,-86.05 277.33,-75.75 268.95,-82.24 274.83,-86.05"/>
</g>
</g>
</svg>
