<?xml version="1.0" encoding="UTF-8" standalone="no"?>
<!DOCTYPE svg PUBLIC "-//W3C//DTD SVG 1.1//EN"
 "http://www.w3.org/Graphics/SVG/1.1/DTD/svg11.dtd">
<!-- Generated by graphviz version 2.43.0 (0)
 -->
<!-- Title: src/plt/stm32h5/setup.hpp Pages: 1 -->
<svg width="1341pt" height="148pt"
 viewBox="0.00 0.00 1341.00 148.00" xmlns="http://www.w3.org/2000/svg" xmlns:xlink="http://www.w3.org/1999/xlink">
<g id="graph0" class="graph" transform="scale(1 1) rotate(0) translate(4 144)">
<title>src/plt/stm32h5/setup.hpp</title>
<!-- Node1 -->
<g id="Node000001" class="node">
<title>Node1</title>
<g id="a_Node000001"><a xlink:title=" ">
<polygon fill="#999999" stroke="#666666" points="1196.5,-140 1053.5,-140 1053.5,-121 1196.5,-121 1196.5,-140"/>
<text text-anchor="middle" x="1125" y="-128" font-family="Helvetica,sans-Serif" font-size="10.00">src/plt/stm32h5/setup.hpp</text>
</a>
</g>
</g>
<!-- Node2 -->
<g id="Node000002" class="node">
<title>Node2</title>
<g id="a_Node000002"><a xlink:href="map_8hpp.html" target="_top" xlink:title=" ">
<polygon fill="white" stroke="#666666" points="510.5,-85 415.5,-85 415.5,-66 510.5,-66 510.5,-85"/>
<text text-anchor="middle" x="463" y="-73" font-family="Helvetica,sans-Serif" font-size="10.00">../../cfg/map.hpp</text>
</a>
</g>
</g>
<!-- Node1&#45;&gt;Node2 -->
<g id="edge1_Node000001_Node000002" class="edge">
<title>Node1&#45;&gt;Node2</title>
<g id="a_edge1_Node000001_Node000002"><a xlink:title=" ">
<path fill="none" stroke="#63b8ff" d="M1053.21,-123.75C921,-113.17 641.51,-90.79 520.67,-81.12"/>
<polygon fill="#63b8ff" stroke="#63b8ff" points="520.77,-77.61 510.52,-80.3 520.21,-84.59 520.77,-77.61"/>
</a>
</g>
</g>
<!-- Node15 -->
<g id="Node000015" class="node">
<title>Node15</title>
<g id="a_Node000015"><a xlink:href="defs_8hpp.html" target="_top" xlink:title=" ">
<polygon fill="white" stroke="#666666" points="1096.5,-85 1001.5,-85 1001.5,-66 1096.5,-66 1096.5,-85"/>
<text text-anchor="middle" x="1049" y="-73" font-family="Helvetica,sans-Serif" font-size="10.00">../../drv/defs.hpp</text>
</a>
</g>
</g>
<!-- Node1&#45;&gt;Node15 -->
<g id="edge9_Node000001_Node000015" class="edge">
<title>Node1&#45;&gt;Node15</title>
<g id="a_edge9_Node000001_Node000015"><a xlink:title=" ">
<path fill="none" stroke="#63b8ff" d="M1112.79,-120.98C1101.22,-112.92 1083.62,-100.65 1069.84,-91.03"/>
<polygon fill="#63b8ff" stroke="#63b8ff" points="1071.64,-88.02 1061.43,-85.17 1067.63,-93.76 1071.64,-88.02"/>
</a>
</g>
</g>
<!-- Node19 -->
<g id="Node000019" class="node">
<title>Node19</title>
<g id="a_Node000019"><a xlink:title=" ">
<polygon fill="#e0e0e0" stroke="#999999" points="1164,-24.5 1108,-24.5 1108,-5.5 1164,-5.5 1164,-24.5"/>
<text text-anchor="middle" x="1136" y="-12.5" font-family="Helvetica,sans-Serif" font-size="10.00">optional</text>
</a>
</g>
</g>
<!-- Node1&#45;&gt;Node19 -->
<g id="edge14_Node000001_Node000019" class="edge">
<title>Node1&#45;&gt;Node19</title>
<g id="a_edge14_Node000001_Node000019"><a xlink:title=" ">
<path fill="none" stroke="#63b8ff" d="M1125.83,-120.97C1127.59,-102.73 1131.78,-59.57 1134.19,-34.64"/>
<polygon fill="#63b8ff" stroke="#63b8ff" points="1137.68,-34.92 1135.16,-24.63 1130.72,-34.25 1137.68,-34.92"/>
</a>
</g>
</g>
<!-- Node20 -->
<g id="Node000020" class="node">
<title>Node20</title>
<g id="a_Node000020"><a xlink:title=" ">
<polygon fill="#e0e0e0" stroke="#999999" points="1257,-85 1153,-85 1153,-66 1257,-66 1257,-85"/>
<text text-anchor="middle" x="1205" y="-73" font-family="Helvetica,sans-Serif" font-size="10.00">emlabcpp/result.h</text>
</a>
</g>
</g>
<!-- Node1&#45;&gt;Node20 -->
<g id="edge12_Node000001_Node000020" class="edge">
<title>Node1&#45;&gt;Node20</title>
<g id="a_edge12_Node000001_Node000020"><a xlink:title=" ">
<path fill="none" stroke="#63b8ff" d="M1137.85,-120.98C1150.14,-112.84 1168.91,-100.41 1183.48,-90.76"/>
<polygon fill="#63b8ff" stroke="#63b8ff" points="1185.51,-93.61 1191.91,-85.17 1181.64,-87.78 1185.51,-93.61"/>
</a>
</g>
</g>
<!-- Node21 -->
<g id="Node000021" class="node">
<title>Node21</title>
<g id="a_Node000021"><a xlink:title=" ">
<polygon fill="#e0e0e0" stroke="#999999" points="1333,-85 1275,-85 1275,-66 1333,-66 1333,-85"/>
<text text-anchor="middle" x="1304" y="-73" font-family="Helvetica,sans-Serif" font-size="10.00">memory</text>
</a>
</g>
</g>
<!-- Node1&#45;&gt;Node21 -->
<g id="edge13_Node000001_Node000021" class="edge">
<title>Node1&#45;&gt;Node21</title>
<g id="a_edge13_Node000001_Node000021"><a xlink:title=" ">
<path fill="none" stroke="#63b8ff" d="M1153.76,-120.98C1183.94,-112.05 1231.57,-97.94 1265.1,-88.02"/>
<polygon fill="#63b8ff" stroke="#63b8ff" points="1266.42,-91.28 1275.02,-85.08 1264.43,-84.57 1266.42,-91.28"/>
</a>
</g>
</g>
<!-- Node3 -->
<g id="Node000003" class="node">
<title>Node3</title>
<g id="a_Node000003"><a xlink:href="base_8hpp.html" target="_top" xlink:title=" ">
<polygon fill="#fff0f0" stroke="red" points="70,-24.5 0,-24.5 0,-5.5 70,-5.5 70,-24.5"/>
<text text-anchor="middle" x="35" y="-12.5" font-family="Helvetica,sans-Serif" font-size="10.00">../base.hpp</text>
</a>
</g>
</g>
<!-- Node2&#45;&gt;Node3 -->
<g id="edge2_Node000002_Node000003" class="edge">
<title>Node2&#45;&gt;Node3</title>
<g id="a_edge2_Node000002_Node000003"><a xlink:title=" ">
<path fill="none" stroke="#63b8ff" d="M415.23,-71.93C342.12,-67.33 198.42,-55.67 79,-30 75.61,-29.27 72.1,-28.39 68.62,-27.42"/>
<polygon fill="#63b8ff" stroke="#63b8ff" points="69.56,-24.05 58.98,-24.55 67.57,-30.76 69.56,-24.05"/>
</a>
</g>
</g>
<!-- Node9 -->
<g id="Node000009" class="node">
<title>Node9</title>
<g id="a_Node000009"><a xlink:href="key_8hpp.html" target="_top" xlink:title=" ">
<polygon fill="#fff0f0" stroke="red" points="147.5,-24.5 88.5,-24.5 88.5,-5.5 147.5,-5.5 147.5,-24.5"/>
<text text-anchor="middle" x="118" y="-12.5" font-family="Helvetica,sans-Serif" font-size="10.00">./key.hpp</text>
</a>
</g>
</g>
<!-- Node2&#45;&gt;Node9 -->
<g id="edge3_Node000002_Node000009" class="edge">
<title>Node2&#45;&gt;Node9</title>
<g id="a_edge3_Node000002_Node000009"><a xlink:title=" ">
<path fill="none" stroke="#63b8ff" d="M415.33,-70.7C354.45,-65.14 246.18,-52.88 156,-30 153.5,-29.36 150.93,-28.62 148.36,-27.82"/>
<polygon fill="#63b8ff" stroke="#63b8ff" points="149.25,-24.42 138.66,-24.5 146.99,-31.05 149.25,-24.42"/>
</a>
</g>
</g>
<!-- Node10 -->
<g id="Node000010" class="node">
<title>Node10</title>
<g id="a_Node000010"><a xlink:title=" ">
<polygon fill="#e0e0e0" stroke="#999999" points="298.5,-30 165.5,-30 165.5,0 298.5,0 298.5,-30"/>
<text text-anchor="start" x="173.5" y="-18" font-family="Helvetica,sans-Serif" font-size="10.00">emlabcpp/experimental</text>
<text text-anchor="middle" x="232" y="-7" font-family="Helvetica,sans-Serif" font-size="10.00">/string_buffer.h</text>
</a>
</g>
</g>
<!-- Node2&#45;&gt;Node10 -->
<g id="edge4_Node000002_Node000010" class="edge">
<title>Node2&#45;&gt;Node10</title>
<g id="a_edge4_Node000002_Node000010"><a xlink:title=" ">
<path fill="none" stroke="#63b8ff" d="M429.41,-65.99C394.93,-57.26 340.39,-43.45 297.37,-32.55"/>
<polygon fill="#63b8ff" stroke="#63b8ff" points="298.09,-29.13 287.54,-30.06 296.37,-35.91 298.09,-29.13"/>
</a>
</g>
</g>
<!-- Node11 -->
<g id="Node000011" class="node">
<title>Node11</title>
<g id="a_Node000011"><a xlink:title=" ">
<polygon fill="#e0e0e0" stroke="#999999" points="449.5,-30 316.5,-30 316.5,0 449.5,0 449.5,-30"/>
<text text-anchor="start" x="324.5" y="-18" font-family="Helvetica,sans-Serif" font-size="10.00">emlabcpp/experimental</text>
<text text-anchor="middle" x="383" y="-7" font-family="Helvetica,sans-Serif" font-size="10.00">/testing/convert.h</text>
</a>
</g>
</g>
<!-- Node2&#45;&gt;Node11 -->
<g id="edge5_Node000002_Node000011" class="edge">
<title>Node2&#45;&gt;Node11</title>
<g id="a_edge5_Node000002_Node000011"><a xlink:title=" ">
<path fill="none" stroke="#63b8ff" d="M451.2,-65.87C440.54,-58.08 424.46,-46.32 410.59,-36.17"/>
<polygon fill="#63b8ff" stroke="#63b8ff" points="412.44,-33.19 402.3,-30.11 408.31,-38.84 412.44,-33.19"/>
</a>
</g>
</g>
<!-- Node12 -->
<g id="Node000012" class="node">
<title>Node12</title>
<g id="a_Node000012"><a xlink:title=" ">
<polygon fill="#e0e0e0" stroke="#999999" points="616,-30 468,-30 468,0 616,0 616,-30"/>
<text text-anchor="start" x="476" y="-18" font-family="Helvetica,sans-Serif" font-size="10.00">emlabcpp/protocol/register</text>
<text text-anchor="middle" x="542" y="-7" font-family="Helvetica,sans-Serif" font-size="10.00">_handler.h</text>
</a>
</g>
</g>
<!-- Node2&#45;&gt;Node12 -->
<g id="edge6_Node000002_Node000012" class="edge">
<title>Node2&#45;&gt;Node12</title>
<g id="a_edge6_Node000002_Node000012"><a xlink:title=" ">
<path fill="none" stroke="#63b8ff" d="M474.66,-65.87C485.18,-58.08 501.06,-46.32 514.76,-36.17"/>
<polygon fill="#63b8ff" stroke="#63b8ff" points="516.99,-38.88 522.94,-30.11 512.82,-33.25 516.99,-38.88"/>
</a>
</g>
</g>
<!-- Node13 -->
<g id="Node000013" class="node">
<title>Node13</title>
<g id="a_Node000013"><a xlink:title=" ">
<polygon fill="#e0e0e0" stroke="#999999" points="782,-30 634,-30 634,0 782,0 782,-30"/>
<text text-anchor="start" x="642" y="-18" font-family="Helvetica,sans-Serif" font-size="10.00">emlabcpp/protocol/register</text>
<text text-anchor="middle" x="708" y="-7" font-family="Helvetica,sans-Serif" font-size="10.00">_map.h</text>
</a>
</g>
</g>
<!-- Node2&#45;&gt;Node13 -->
<g id="edge7_Node000002_Node000013" class="edge">
<title>Node2&#45;&gt;Node13</title>
<g id="a_edge7_Node000002_Node000013"><a xlink:title=" ">
<path fill="none" stroke="#63b8ff" d="M498.63,-65.99C535.35,-57.23 593.53,-43.33 639.25,-32.42"/>
<polygon fill="#63b8ff" stroke="#63b8ff" points="640.18,-35.79 649.1,-30.06 638.56,-28.98 640.18,-35.79"/>
</a>
</g>
</g>
<!-- Node14 -->
<g id="Node000014" class="node">
<title>Node14</title>
<g id="a_Node000014"><a xlink:title=" ">
<polygon fill="#e0e0e0" stroke="#999999" points="967.5,-24.5 800.5,-24.5 800.5,-5.5 967.5,-5.5 967.5,-24.5"/>
<text text-anchor="middle" x="884" y="-12.5" font-family="Helvetica,sans-Serif" font-size="10.00">magic_enum/magic_enum.hpp</text>
</a>
</g>
</g>
<!-- Node2&#45;&gt;Node14 -->
<g id="edge8_Node000002_Node000014" class="edge">
<title>Node2&#45;&gt;Node14</title>
<g id="a_edge8_Node000002_Node000014"><a xlink:title=" ">
<path fill="none" stroke="#63b8ff" d="M510.56,-68.27C574.39,-59.85 691.31,-44.27 791,-30 799.69,-28.76 808.83,-27.42 817.85,-26.08"/>
<polygon fill="#63b8ff" stroke="#63b8ff" points="818.58,-29.51 827.96,-24.57 817.55,-22.59 818.58,-29.51"/>
</a>
</g>
</g>
<!-- Node16 -->
<g id="Node000016" class="node">
<title>Node16</title>
<g id="a_Node000016"><a xlink:href="platform_8hpp.html" target="_top" xlink:title=" ">
<polygon fill="#fff0f0" stroke="red" points="1090,-24.5 986,-24.5 986,-5.5 1090,-5.5 1090,-24.5"/>
<text text-anchor="middle" x="1038" y="-12.5" font-family="Helvetica,sans-Serif" font-size="10.00">../plt/platform.hpp</text>
</a>
</g>
</g>
<!-- Node15&#45;&gt;Node16 -->
<g id="edge10_Node000015_Node000016" class="edge">
<title>Node15&#45;&gt;Node16</title>
<g id="a_edge10_Node000015_Node000016"><a xlink:title=" ">
<path fill="none" stroke="#63b8ff" d="M1047.38,-65.87C1045.83,-57.66 1043.46,-45.04 1041.49,-34.55"/>
<polygon fill="#63b8ff" stroke="#63b8ff" points="1044.92,-33.85 1039.63,-24.67 1038.04,-35.14 1044.92,-33.85"/>
</a>
</g>
</g>
<!-- Node15&#45;&gt;Node19 -->
<g id="edge11_Node000015_Node000019" class="edge">
<title>Node15&#45;&gt;Node19</title>
<g id="a_edge11_Node000015_Node000019"><a xlink:title=" ">
<path fill="none" stroke="#63b8ff" d="M1061.84,-65.87C1075.72,-56.54 1098.07,-41.51 1114.61,-30.38"/>
<polygon fill="#63b8ff" stroke="#63b8ff" points="1116.76,-33.15 1123.11,-24.67 1112.86,-27.34 1116.76,-33.15"/>
</a>
</g>
</g>
</g>
</svg>
