<?xml version="1.0" encoding="UTF-8" standalone="no"?>
<!DOCTYPE svg PUBLIC "-//W3C//DTD SVG 1.1//EN"
 "http://www.w3.org/Graphics/SVG/1.1/DTD/svg11.dtd">
<!-- Generated by graphviz version 2.43.0 (0)
 -->
<!-- Title: src/plt/stm32h5/config.cpp Pages: 1 -->
<svg width="791pt" height="247pt"
 viewBox="0.00 0.00 790.50 247.00" xmlns="http://www.w3.org/2000/svg" xmlns:xlink="http://www.w3.org/1999/xlink">
<g id="graph0" class="graph" transform="scale(1 1) rotate(0) translate(4 243)">
<title>src/plt/stm32h5/config.cpp</title>
<!-- Node1 -->
<g id="Node000001" class="node">
<title>Node1</title>
<g id="a_Node000001"><a xlink:title=" ">
<polygon fill="#999999" stroke="#666666" points="499.5,-239 354.5,-239 354.5,-220 499.5,-220 499.5,-239"/>
<text text-anchor="middle" x="427" y="-227" font-family="Helvetica,sans-Serif" font-size="10.00">src/plt/stm32h5/config.cpp</text>
</a>
</g>
</g>
<!-- Node2 -->
<g id="Node000002" class="node">
<title>Node2</title>
<g id="a_Node000002"><a xlink:href="default_8hpp.html" target="_top" xlink:title=" ">
<polygon fill="white" stroke="#666666" points="108,-184 0,-184 0,-165 108,-165 108,-184"/>
<text text-anchor="middle" x="54" y="-172" font-family="Helvetica,sans-Serif" font-size="10.00">../../cfg/default.hpp</text>
</a>
</g>
</g>
<!-- Node1&#45;&gt;Node2 -->
<g id="edge1_Node000001_Node000002" class="edge">
<title>Node1&#45;&gt;Node2</title>
<g id="a_edge1_Node000001_Node000002"><a xlink:title=" ">
<path fill="none" stroke="#63b8ff" d="M367.07,-219.98C298.86,-210.29 187.89,-194.52 118.02,-184.6"/>
<polygon fill="#63b8ff" stroke="#63b8ff" points="118.42,-181.12 108.02,-183.18 117.43,-188.05 118.42,-181.12"/>
</a>
</g>
</g>
<!-- Node16 -->
<g id="Node000016" class="node">
<title>Node16</title>
<g id="a_Node000016"><a xlink:href="math_8hpp.html" target="_top" xlink:title=" ">
<polygon fill="white" stroke="#666666" points="476.5,-184 377.5,-184 377.5,-165 476.5,-165 476.5,-184"/>
<text text-anchor="middle" x="427" y="-172" font-family="Helvetica,sans-Serif" font-size="10.00">../../cfg/math.hpp</text>
</a>
</g>
</g>
<!-- Node1&#45;&gt;Node16 -->
<g id="edge5_Node000001_Node000016" class="edge">
<title>Node1&#45;&gt;Node16</title>
<g id="a_edge5_Node000001_Node000016"><a xlink:title=" ">
<path fill="none" stroke="#63b8ff" d="M427,-219.75C427,-212.8 427,-202.85 427,-194.13"/>
<polygon fill="#63b8ff" stroke="#63b8ff" points="430.5,-194.09 427,-184.09 423.5,-194.09 430.5,-194.09"/>
</a>
</g>
</g>
<!-- Node17 -->
<g id="Node000017" class="node">
<title>Node17</title>
<g id="a_Node000017"><a xlink:href="fw_2util_8hpp.html" target="_top" xlink:title=" ">
<polygon fill="white" stroke="#666666" points="586,-184 500,-184 500,-165 586,-165 586,-184"/>
<text text-anchor="middle" x="543" y="-172" font-family="Helvetica,sans-Serif" font-size="10.00">../../fw/util.hpp</text>
</a>
</g>
</g>
<!-- Node1&#45;&gt;Node17 -->
<g id="edge6_Node000001_Node000017" class="edge">
<title>Node1&#45;&gt;Node17</title>
<g id="a_edge6_Node000001_Node000017"><a xlink:title=" ">
<path fill="none" stroke="#63b8ff" d="M445.64,-219.98C464.3,-211.46 493.25,-198.23 514.74,-188.41"/>
<polygon fill="#63b8ff" stroke="#63b8ff" points="516.38,-191.51 524.02,-184.17 513.47,-185.14 516.38,-191.51"/>
</a>
</g>
</g>
<!-- Node21 -->
<g id="Node000021" class="node">
<title>Node21</title>
<g id="a_Node000021"><a xlink:href="platform_8hpp.html" target="_top" xlink:title=" ">
<polygon fill="white" stroke="#666666" points="203.5,-74 114.5,-74 114.5,-55 203.5,-55 203.5,-74"/>
<text text-anchor="middle" x="159" y="-62" font-family="Helvetica,sans-Serif" font-size="10.00">../platform.hpp</text>
</a>
</g>
</g>
<!-- Node1&#45;&gt;Node21 -->
<g id="edge10_Node000001_Node000021" class="edge">
<title>Node1&#45;&gt;Node21</title>
<g id="a_edge10_Node000001_Node000021"><a xlink:title=" ">
<path fill="none" stroke="#63b8ff" d="M354.31,-225.03C289.1,-217.52 197.36,-195.02 155,-129 146.43,-115.65 148.74,-97.29 152.41,-83.75"/>
<polygon fill="#63b8ff" stroke="#63b8ff" points="155.78,-84.7 155.47,-74.11 149.11,-82.58 155.78,-84.7"/>
</a>
</g>
</g>
<!-- Node24 -->
<g id="Node000024" class="node">
<title>Node24</title>
<g id="a_Node000024"><a xlink:href="plt_2stm32h5_2setup_8hpp.html" target="_top" xlink:title=" ">
<polygon fill="white" stroke="#666666" points="349.5,-184 284.5,-184 284.5,-165 349.5,-165 349.5,-184"/>
<text text-anchor="middle" x="317" y="-172" font-family="Helvetica,sans-Serif" font-size="10.00">setup.hpp</text>
</a>
</g>
</g>
<!-- Node1&#45;&gt;Node24 -->
<g id="edge12_Node000001_Node000024" class="edge">
<title>Node1&#45;&gt;Node24</title>
<g id="a_edge12_Node000001_Node000024"><a xlink:title=" ">
<path fill="none" stroke="#63b8ff" d="M409.33,-219.98C391.71,-211.5 364.42,-198.35 344.07,-188.54"/>
<polygon fill="#63b8ff" stroke="#63b8ff" points="345.52,-185.36 334.99,-184.17 342.48,-191.66 345.52,-185.36"/>
</a>
</g>
</g>
<!-- Node29 -->
<g id="Node000029" class="node">
<title>Node29</title>
<g id="a_Node000029"><a xlink:title=" ">
<polygon fill="#e0e0e0" stroke="#999999" points="705.5,-184 604.5,-184 604.5,-165 705.5,-165 705.5,-184"/>
<text text-anchor="middle" x="655" y="-172" font-family="Helvetica,sans-Serif" font-size="10.00">emlabcpp/defer.h</text>
</a>
</g>
</g>
<!-- Node1&#45;&gt;Node29 -->
<g id="edge20_Node000001_Node000029" class="edge">
<title>Node1&#45;&gt;Node29</title>
<g id="a_edge20_Node000001_Node000029"><a xlink:title=" ">
<path fill="none" stroke="#63b8ff" d="M463.63,-219.98C502.91,-210.86 565.37,-196.33 608.19,-186.38"/>
<polygon fill="#63b8ff" stroke="#63b8ff" points="609.13,-189.76 618.08,-184.08 607.55,-182.94 609.13,-189.76"/>
</a>
</g>
</g>
<!-- Node10 -->
<g id="Node000010" class="node">
<title>Node10</title>
<g id="a_Node000010"><a xlink:title=" ">
<polygon fill="#e0e0e0" stroke="#999999" points="782.5,-184 723.5,-184 723.5,-165 782.5,-165 782.5,-184"/>
<text text-anchor="middle" x="753" y="-172" font-family="Helvetica,sans-Serif" font-size="10.00">numbers</text>
</a>
</g>
</g>
<!-- Node1&#45;&gt;Node10 -->
<g id="edge21_Node000001_Node000010" class="edge">
<title>Node1&#45;&gt;Node10</title>
<g id="a_edge21_Node000001_Node000010"><a xlink:title=" ">
<path fill="none" stroke="#63b8ff" d="M490.13,-219.98C546.33,-212.12 631.01,-199.58 713.16,-184.25"/>
<polygon fill="#63b8ff" stroke="#63b8ff" points="713.99,-187.66 723.17,-182.37 712.69,-180.78 713.99,-187.66"/>
</a>
</g>
</g>
<!-- Node3 -->
<g id="Node000003" class="node">
<title>Node3</title>
<g id="a_Node000003"><a xlink:href="key_8hpp.html" target="_top" xlink:title=" ">
<polygon fill="#fff0f0" stroke="red" points="81.5,-74 22.5,-74 22.5,-55 81.5,-55 81.5,-74"/>
<text text-anchor="middle" x="52" y="-62" font-family="Helvetica,sans-Serif" font-size="10.00">./key.hpp</text>
</a>
</g>
</g>
<!-- Node2&#45;&gt;Node3 -->
<g id="edge2_Node000002_Node000003" class="edge">
<title>Node2&#45;&gt;Node3</title>
<g id="a_edge2_Node000002_Node000003"><a xlink:title=" ">
<path fill="none" stroke="#63b8ff" d="M48.42,-164.72C43.26,-156.03 35.95,-142.17 33,-129 29.47,-113.23 35.53,-95.65 41.72,-82.99"/>
<polygon fill="#63b8ff" stroke="#63b8ff" points="44.89,-84.49 46.54,-74.03 38.72,-81.18 44.89,-84.49"/>
</a>
</g>
</g>
<!-- Node5 -->
<g id="Node000005" class="node">
<title>Node5</title>
<g id="a_Node000005"><a xlink:href="map_8hpp.html" target="_top" xlink:title=" ">
<polygon fill="#fff0f0" stroke="red" points="107.5,-129 42.5,-129 42.5,-110 107.5,-110 107.5,-129"/>
<text text-anchor="middle" x="75" y="-117" font-family="Helvetica,sans-Serif" font-size="10.00">./map.hpp</text>
</a>
</g>
</g>
<!-- Node2&#45;&gt;Node5 -->
<g id="edge3_Node000002_Node000005" class="edge">
<title>Node2&#45;&gt;Node5</title>
<g id="a_edge3_Node000002_Node000005"><a xlink:title=" ">
<path fill="none" stroke="#63b8ff" d="M57.47,-164.75C60.28,-157.65 64.34,-147.4 67.85,-138.56"/>
<polygon fill="#63b8ff" stroke="#63b8ff" points="71.17,-139.68 71.6,-129.09 64.66,-137.1 71.17,-139.68"/>
</a>
</g>
</g>
<!-- Node5&#45;&gt;Node3 -->
<g id="edge4_Node000005_Node000003" class="edge">
<title>Node5&#45;&gt;Node3</title>
<g id="a_edge4_Node000005_Node000003"><a xlink:title=" ">
<path fill="none" stroke="#63b8ff" d="M71.2,-109.75C68.09,-102.57 63.58,-92.18 59.71,-83.27"/>
<polygon fill="#63b8ff" stroke="#63b8ff" points="62.92,-81.87 55.73,-74.09 56.5,-84.66 62.92,-81.87"/>
</a>
</g>
</g>
<!-- Node18 -->
<g id="Node000018" class="node">
<title>Node18</title>
<g id="a_Node000018"><a xlink:title=" ">
<polygon fill="#e0e0e0" stroke="#999999" points="578,-129 514,-129 514,-110 578,-110 578,-129"/>
<text text-anchor="middle" x="546" y="-117" font-family="Helvetica,sans-Serif" font-size="10.00">algorithm</text>
</a>
</g>
</g>
<!-- Node17&#45;&gt;Node18 -->
<g id="edge7_Node000017_Node000018" class="edge">
<title>Node17&#45;&gt;Node18</title>
<g id="a_edge7_Node000017_Node000018"><a xlink:title=" ">
<path fill="none" stroke="#63b8ff" d="M543.5,-164.75C543.89,-157.8 544.45,-147.85 544.95,-139.13"/>
<polygon fill="#63b8ff" stroke="#63b8ff" points="548.44,-139.27 545.51,-129.09 541.45,-138.88 548.44,-139.27"/>
</a>
</g>
</g>
<!-- Node19 -->
<g id="Node000019" class="node">
<title>Node19</title>
<g id="a_Node000019"><a xlink:title=" ">
<polygon fill="#e0e0e0" stroke="#999999" points="646,-129 596,-129 596,-110 646,-110 646,-129"/>
<text text-anchor="middle" x="621" y="-117" font-family="Helvetica,sans-Serif" font-size="10.00">cstring</text>
</a>
</g>
</g>
<!-- Node17&#45;&gt;Node19 -->
<g id="edge8_Node000017_Node000019" class="edge">
<title>Node17&#45;&gt;Node19</title>
<g id="a_edge8_Node000017_Node000019"><a xlink:title=" ">
<path fill="none" stroke="#63b8ff" d="M555.53,-164.98C567.4,-156.92 585.46,-144.65 599.61,-135.03"/>
<polygon fill="#63b8ff" stroke="#63b8ff" points="601.94,-137.69 608.24,-129.17 598,-131.9 601.94,-137.69"/>
</a>
</g>
</g>
<!-- Node20 -->
<g id="Node000020" class="node">
<title>Node20</title>
<g id="a_Node000020"><a xlink:title=" ">
<polygon fill="#e0e0e0" stroke="#999999" points="737.5,-129 664.5,-129 664.5,-110 737.5,-110 737.5,-129"/>
<text text-anchor="middle" x="701" y="-117" font-family="Helvetica,sans-Serif" font-size="10.00">string_view</text>
</a>
</g>
</g>
<!-- Node17&#45;&gt;Node20 -->
<g id="edge9_Node000017_Node000020" class="edge">
<title>Node17&#45;&gt;Node20</title>
<g id="a_edge9_Node000017_Node000020"><a xlink:title=" ">
<path fill="none" stroke="#63b8ff" d="M568.39,-164.98C594.8,-156.13 636.35,-142.19 665.89,-132.28"/>
<polygon fill="#63b8ff" stroke="#63b8ff" points="667.05,-135.58 675.42,-129.08 664.82,-128.94 667.05,-135.58"/>
</a>
</g>
</g>
<!-- Node22 -->
<g id="Node000022" class="node">
<title>Node22</title>
<g id="a_Node000022"><a xlink:href="hal_8hpp.html" target="_top" xlink:title=" ">
<polygon fill="#fff0f0" stroke="red" points="185.5,-19 132.5,-19 132.5,0 185.5,0 185.5,-19"/>
<text text-anchor="middle" x="159" y="-7" font-family="Helvetica,sans-Serif" font-size="10.00">hal.hpp</text>
</a>
</g>
</g>
<!-- Node21&#45;&gt;Node22 -->
<g id="edge11_Node000021_Node000022" class="edge">
<title>Node21&#45;&gt;Node22</title>
<g id="a_edge11_Node000021_Node000022"><a xlink:title=" ">
<path fill="none" stroke="#63b8ff" d="M159,-54.75C159,-47.8 159,-37.85 159,-29.13"/>
<polygon fill="#63b8ff" stroke="#63b8ff" points="162.5,-29.09 159,-19.09 155.5,-29.09 162.5,-29.09"/>
</a>
</g>
</g>
<!-- Node24&#45;&gt;Node5 -->
<g id="edge13_Node000024_Node000005" class="edge">
<title>Node24&#45;&gt;Node5</title>
<g id="a_edge13_Node000024_Node000005"><a xlink:title=" ">
<path fill="none" stroke="#63b8ff" d="M284.36,-166.35C241.21,-156.9 165.1,-140.23 117.5,-129.81"/>
<polygon fill="#63b8ff" stroke="#63b8ff" points="118.02,-126.34 107.51,-127.62 116.53,-133.18 118.02,-126.34"/>
</a>
</g>
</g>
<!-- Node25 -->
<g id="Node000025" class="node">
<title>Node25</title>
<g id="a_Node000025"><a xlink:href="defs_8hpp.html" target="_top" xlink:title=" ">
<polygon fill="white" stroke="#666666" points="457.5,-129 362.5,-129 362.5,-110 457.5,-110 457.5,-129"/>
<text text-anchor="middle" x="410" y="-117" font-family="Helvetica,sans-Serif" font-size="10.00">../../drv/defs.hpp</text>
</a>
</g>
</g>
<!-- Node24&#45;&gt;Node25 -->
<g id="edge14_Node000024_Node000025" class="edge">
<title>Node24&#45;&gt;Node25</title>
<g id="a_edge14_Node000024_Node000025"><a xlink:title=" ">
<path fill="none" stroke="#63b8ff" d="M331.94,-164.98C346.5,-156.69 368.87,-143.94 385.93,-134.22"/>
<polygon fill="#63b8ff" stroke="#63b8ff" points="387.83,-137.16 394.79,-129.17 384.36,-131.08 387.83,-137.16"/>
</a>
</g>
</g>
<!-- Node26 -->
<g id="Node000026" class="node">
<title>Node26</title>
<g id="a_Node000026"><a xlink:title=" ">
<polygon fill="#e0e0e0" stroke="#999999" points="476,-74 420,-74 420,-55 476,-55 476,-74"/>
<text text-anchor="middle" x="448" y="-62" font-family="Helvetica,sans-Serif" font-size="10.00">optional</text>
</a>
</g>
</g>
<!-- Node24&#45;&gt;Node26 -->
<g id="edge19_Node000024_Node000026" class="edge">
<title>Node24&#45;&gt;Node26</title>
<g id="a_edge19_Node000024_Node000026"><a xlink:title=" ">
<path fill="none" stroke="#63b8ff" d="M349.77,-168.35C389.27,-161.39 452.09,-147.67 466,-129 476.12,-115.41 468.55,-96.33 460.34,-82.64"/>
<polygon fill="#63b8ff" stroke="#63b8ff" points="463.18,-80.59 454.77,-74.16 457.33,-84.44 463.18,-80.59"/>
</a>
</g>
</g>
<!-- Node27 -->
<g id="Node000027" class="node">
<title>Node27</title>
<g id="a_Node000027"><a xlink:title=" ">
<polygon fill="#e0e0e0" stroke="#999999" points="268,-129 164,-129 164,-110 268,-110 268,-129"/>
<text text-anchor="middle" x="216" y="-117" font-family="Helvetica,sans-Serif" font-size="10.00">emlabcpp/result.h</text>
</a>
</g>
</g>
<!-- Node24&#45;&gt;Node27 -->
<g id="edge17_Node000024_Node000027" class="edge">
<title>Node24&#45;&gt;Node27</title>
<g id="a_edge17_Node000024_Node000027"><a xlink:title=" ">
<path fill="none" stroke="#63b8ff" d="M300.77,-164.98C284.82,-156.61 260.22,-143.7 241.62,-133.95"/>
<polygon fill="#63b8ff" stroke="#63b8ff" points="243,-130.72 232.52,-129.17 239.75,-136.92 243,-130.72"/>
</a>
</g>
</g>
<!-- Node28 -->
<g id="Node000028" class="node">
<title>Node28</title>
<g id="a_Node000028"><a xlink:title=" ">
<polygon fill="#e0e0e0" stroke="#999999" points="344,-129 286,-129 286,-110 344,-110 344,-129"/>
<text text-anchor="middle" x="315" y="-117" font-family="Helvetica,sans-Serif" font-size="10.00">memory</text>
</a>
</g>
</g>
<!-- Node24&#45;&gt;Node28 -->
<g id="edge18_Node000024_Node000028" class="edge">
<title>Node24&#45;&gt;Node28</title>
<g id="a_edge18_Node000024_Node000028"><a xlink:title=" ">
<path fill="none" stroke="#63b8ff" d="M316.67,-164.75C316.41,-157.8 316.03,-147.85 315.7,-139.13"/>
<polygon fill="#63b8ff" stroke="#63b8ff" points="319.2,-138.95 315.32,-129.09 312.2,-139.21 319.2,-138.95"/>
</a>
</g>
</g>
<!-- Node25&#45;&gt;Node21 -->
<g id="edge15_Node000025_Node000021" class="edge">
<title>Node25&#45;&gt;Node21</title>
<g id="a_edge15_Node000025_Node000021"><a xlink:title=" ">
<path fill="none" stroke="#63b8ff" d="M369.67,-109.98C326.16,-100.8 256.8,-86.15 209.65,-76.19"/>
<polygon fill="#63b8ff" stroke="#63b8ff" points="210.15,-72.72 199.64,-74.08 208.7,-79.57 210.15,-72.72"/>
</a>
</g>
</g>
<!-- Node25&#45;&gt;Node26 -->
<g id="edge16_Node000025_Node000026" class="edge">
<title>Node25&#45;&gt;Node26</title>
<g id="a_edge16_Node000025_Node000026"><a xlink:title=" ">
<path fill="none" stroke="#63b8ff" d="M416.27,-109.75C421.59,-102.34 429.36,-91.5 435.88,-82.41"/>
<polygon fill="#63b8ff" stroke="#63b8ff" points="438.86,-84.26 441.84,-74.09 433.17,-80.18 438.86,-84.26"/>
</a>
</g>
</g>
</g>
</svg>
