<?xml version="1.0" encoding="UTF-8" standalone="no"?>
<!DOCTYPE svg PUBLIC "-//W3C//DTD SVG 1.1//EN"
 "http://www.w3.org/Graphics/SVG/1.1/DTD/svg11.dtd">
<!-- Generated by graphviz version 2.43.0 (0)
 -->
<!-- Title: src/plt/stm32h5/config.cpp Pages: 1 -->
<svg width="773pt" height="247pt"
 viewBox="0.00 0.00 772.50 247.00" xmlns="http://www.w3.org/2000/svg" xmlns:xlink="http://www.w3.org/1999/xlink">
<g id="graph0" class="graph" transform="scale(1 1) rotate(0) translate(4 243)">
<title>src/plt/stm32h5/config.cpp</title>
<!-- Node1 -->
<g id="Node000001" class="node">
<title>Node1</title>
<g id="a_Node000001"><a xlink:title=" ">
<polygon fill="#999999" stroke="#666666" points="481.5,-239 336.5,-239 336.5,-220 481.5,-220 481.5,-239"/>
<text text-anchor="middle" x="409" y="-227" font-family="Helvetica,sans-Serif" font-size="10.00">src/plt/stm32h5/config.cpp</text>
</a>
</g>
</g>
<!-- Node2 -->
<g id="Node000002" class="node">
<title>Node2</title>
<g id="a_Node000002"><a xlink:href="default_8hpp.html" target="_top" xlink:title=" ">
<polygon fill="white" stroke="#666666" points="108,-184 0,-184 0,-165 108,-165 108,-184"/>
<text text-anchor="middle" x="54" y="-172" font-family="Helvetica,sans-Serif" font-size="10.00">../../cfg/default.hpp</text>
</a>
</g>
</g>
<!-- Node1&#45;&gt;Node2 -->
<g id="edge1_Node000001_Node000002" class="edge">
<title>Node1&#45;&gt;Node2</title>
<g id="a_edge1_Node000001_Node000002"><a xlink:title=" ">
<path fill="none" stroke="#63b8ff" d="M351.96,-219.98C288.11,-210.45 184.88,-195.04 118.24,-185.09"/>
<polygon fill="#63b8ff" stroke="#63b8ff" points="118.68,-181.62 108.27,-183.6 117.65,-188.54 118.68,-181.62"/>
</a>
</g>
</g>
<!-- Node16 -->
<g id="Node000016" class="node">
<title>Node16</title>
<g id="a_Node000016"><a xlink:href="math_8hpp.html" target="_top" xlink:title=" ">
<polygon fill="white" stroke="#666666" points="458.5,-184 359.5,-184 359.5,-165 458.5,-165 458.5,-184"/>
<text text-anchor="middle" x="409" y="-172" font-family="Helvetica,sans-Serif" font-size="10.00">../../cfg/math.hpp</text>
</a>
</g>
</g>
<!-- Node1&#45;&gt;Node16 -->
<g id="edge5_Node000001_Node000016" class="edge">
<title>Node1&#45;&gt;Node16</title>
<g id="a_edge5_Node000001_Node000016"><a xlink:title=" ">
<path fill="none" stroke="#63b8ff" d="M409,-219.75C409,-212.8 409,-202.85 409,-194.13"/>
<polygon fill="#63b8ff" stroke="#63b8ff" points="412.5,-194.09 409,-184.09 405.5,-194.09 412.5,-194.09"/>
</a>
</g>
</g>
<!-- Node17 -->
<g id="Node000017" class="node">
<title>Node17</title>
<g id="a_Node000017"><a xlink:href="fw_2util_8hpp.html" target="_top" xlink:title=" ">
<polygon fill="white" stroke="#666666" points="568,-184 482,-184 482,-165 568,-165 568,-184"/>
<text text-anchor="middle" x="525" y="-172" font-family="Helvetica,sans-Serif" font-size="10.00">../../fw/util.hpp</text>
</a>
</g>
</g>
<!-- Node1&#45;&gt;Node17 -->
<g id="edge6_Node000001_Node000017" class="edge">
<title>Node1&#45;&gt;Node17</title>
<g id="a_edge6_Node000001_Node000017"><a xlink:title=" ">
<path fill="none" stroke="#63b8ff" d="M427.64,-219.98C446.3,-211.46 475.25,-198.23 496.74,-188.41"/>
<polygon fill="#63b8ff" stroke="#63b8ff" points="498.38,-191.51 506.02,-184.17 495.47,-185.14 498.38,-191.51"/>
</a>
</g>
</g>
<!-- Node21 -->
<g id="Node000021" class="node">
<title>Node21</title>
<g id="a_Node000021"><a xlink:href="platform_8hpp.html" target="_top" xlink:title=" ">
<polygon fill="white" stroke="#666666" points="203.5,-74 114.5,-74 114.5,-55 203.5,-55 203.5,-74"/>
<text text-anchor="middle" x="159" y="-62" font-family="Helvetica,sans-Serif" font-size="10.00">../platform.hpp</text>
</a>
</g>
</g>
<!-- Node1&#45;&gt;Node21 -->
<g id="edge10_Node000001_Node000021" class="edge">
<title>Node1&#45;&gt;Node21</title>
<g id="a_edge10_Node000001_Node000021"><a xlink:title=" ">
<path fill="none" stroke="#63b8ff" d="M336.47,-223.31C275.34,-214.53 192.08,-191.12 155,-129 146.87,-115.38 149.12,-97.06 152.66,-83.59"/>
<polygon fill="#63b8ff" stroke="#63b8ff" points="156.01,-84.61 155.61,-74.02 149.32,-82.55 156.01,-84.61"/>
</a>
</g>
</g>
<!-- Node24 -->
<g id="Node000024" class="node">
<title>Node24</title>
<g id="a_Node000024"><a xlink:href="plt_2stm32h5_2setup_8hpp.html" target="_top" xlink:title=" ">
<polygon fill="white" stroke="#666666" points="331.5,-184 266.5,-184 266.5,-165 331.5,-165 331.5,-184"/>
<text text-anchor="middle" x="299" y="-172" font-family="Helvetica,sans-Serif" font-size="10.00">setup.hpp</text>
</a>
</g>
</g>
<!-- Node1&#45;&gt;Node24 -->
<g id="edge12_Node000001_Node000024" class="edge">
<title>Node1&#45;&gt;Node24</title>
<g id="a_edge12_Node000001_Node000024"><a xlink:title=" ">
<path fill="none" stroke="#63b8ff" d="M391.33,-219.98C373.71,-211.5 346.42,-198.35 326.07,-188.54"/>
<polygon fill="#63b8ff" stroke="#63b8ff" points="327.52,-185.36 316.99,-184.17 324.48,-191.66 327.52,-185.36"/>
</a>
</g>
</g>
<!-- Node31 -->
<g id="Node000031" class="node">
<title>Node31</title>
<g id="a_Node000031"><a xlink:title=" ">
<polygon fill="#e0e0e0" stroke="#999999" points="687.5,-184 586.5,-184 586.5,-165 687.5,-165 687.5,-184"/>
<text text-anchor="middle" x="637" y="-172" font-family="Helvetica,sans-Serif" font-size="10.00">emlabcpp/defer.h</text>
</a>
</g>
</g>
<!-- Node1&#45;&gt;Node31 -->
<g id="edge20_Node000001_Node000031" class="edge">
<title>Node1&#45;&gt;Node31</title>
<g id="a_edge20_Node000001_Node000031"><a xlink:title=" ">
<path fill="none" stroke="#63b8ff" d="M445.63,-219.98C484.91,-210.86 547.37,-196.33 590.19,-186.38"/>
<polygon fill="#63b8ff" stroke="#63b8ff" points="591.13,-189.76 600.08,-184.08 589.55,-182.94 591.13,-189.76"/>
</a>
</g>
</g>
<!-- Node10 -->
<g id="Node000010" class="node">
<title>Node10</title>
<g id="a_Node000010"><a xlink:title=" ">
<polygon fill="#e0e0e0" stroke="#999999" points="764.5,-184 705.5,-184 705.5,-165 764.5,-165 764.5,-184"/>
<text text-anchor="middle" x="735" y="-172" font-family="Helvetica,sans-Serif" font-size="10.00">numbers</text>
</a>
</g>
</g>
<!-- Node1&#45;&gt;Node10 -->
<g id="edge21_Node000001_Node000010" class="edge">
<title>Node1&#45;&gt;Node10</title>
<g id="a_edge21_Node000001_Node000010"><a xlink:title=" ">
<path fill="none" stroke="#63b8ff" d="M472.13,-219.98C528.33,-212.12 613.01,-199.58 695.16,-184.25"/>
<polygon fill="#63b8ff" stroke="#63b8ff" points="695.99,-187.66 705.17,-182.37 694.69,-180.78 695.99,-187.66"/>
</a>
</g>
</g>
<!-- Node3 -->
<g id="Node000003" class="node">
<title>Node3</title>
<g id="a_Node000003"><a xlink:href="key_8hpp.html" target="_top" xlink:title=" ">
<polygon fill="#fff0f0" stroke="red" points="81.5,-74 22.5,-74 22.5,-55 81.5,-55 81.5,-74"/>
<text text-anchor="middle" x="52" y="-62" font-family="Helvetica,sans-Serif" font-size="10.00">./key.hpp</text>
</a>
</g>
</g>
<!-- Node2&#45;&gt;Node3 -->
<g id="edge2_Node000002_Node000003" class="edge">
<title>Node2&#45;&gt;Node3</title>
<g id="a_edge2_Node000002_Node000003"><a xlink:title=" ">
<path fill="none" stroke="#63b8ff" d="M48.42,-164.72C43.26,-156.03 35.95,-142.17 33,-129 29.47,-113.23 35.53,-95.65 41.72,-82.99"/>
<polygon fill="#63b8ff" stroke="#63b8ff" points="44.89,-84.49 46.54,-74.03 38.72,-81.18 44.89,-84.49"/>
</a>
</g>
</g>
<!-- Node5 -->
<g id="Node000005" class="node">
<title>Node5</title>
<g id="a_Node000005"><a xlink:href="map_8hpp.html" target="_top" xlink:title=" ">
<polygon fill="#fff0f0" stroke="red" points="107.5,-129 42.5,-129 42.5,-110 107.5,-110 107.5,-129"/>
<text text-anchor="middle" x="75" y="-117" font-family="Helvetica,sans-Serif" font-size="10.00">./map.hpp</text>
</a>
</g>
</g>
<!-- Node2&#45;&gt;Node5 -->
<g id="edge3_Node000002_Node000005" class="edge">
<title>Node2&#45;&gt;Node5</title>
<g id="a_edge3_Node000002_Node000005"><a xlink:title=" ">
<path fill="none" stroke="#63b8ff" d="M57.47,-164.75C60.28,-157.65 64.34,-147.4 67.85,-138.56"/>
<polygon fill="#63b8ff" stroke="#63b8ff" points="71.17,-139.68 71.6,-129.09 64.66,-137.1 71.17,-139.68"/>
</a>
</g>
</g>
<!-- Node5&#45;&gt;Node3 -->
<g id="edge4_Node000005_Node000003" class="edge">
<title>Node5&#45;&gt;Node3</title>
<g id="a_edge4_Node000005_Node000003"><a xlink:title=" ">
<path fill="none" stroke="#63b8ff" d="M71.2,-109.75C68.09,-102.57 63.58,-92.18 59.71,-83.27"/>
<polygon fill="#63b8ff" stroke="#63b8ff" points="62.92,-81.87 55.73,-74.09 56.5,-84.66 62.92,-81.87"/>
</a>
</g>
</g>
<!-- Node18 -->
<g id="Node000018" class="node">
<title>Node18</title>
<g id="a_Node000018"><a xlink:title=" ">
<polygon fill="#e0e0e0" stroke="#999999" points="560,-129 496,-129 496,-110 560,-110 560,-129"/>
<text text-anchor="middle" x="528" y="-117" font-family="Helvetica,sans-Serif" font-size="10.00">algorithm</text>
</a>
</g>
</g>
<!-- Node17&#45;&gt;Node18 -->
<g id="edge7_Node000017_Node000018" class="edge">
<title>Node17&#45;&gt;Node18</title>
<g id="a_edge7_Node000017_Node000018"><a xlink:title=" ">
<path fill="none" stroke="#63b8ff" d="M525.5,-164.75C525.89,-157.8 526.45,-147.85 526.95,-139.13"/>
<polygon fill="#63b8ff" stroke="#63b8ff" points="530.44,-139.27 527.51,-129.09 523.45,-138.88 530.44,-139.27"/>
</a>
</g>
</g>
<!-- Node19 -->
<g id="Node000019" class="node">
<title>Node19</title>
<g id="a_Node000019"><a xlink:title=" ">
<polygon fill="#e0e0e0" stroke="#999999" points="628,-129 578,-129 578,-110 628,-110 628,-129"/>
<text text-anchor="middle" x="603" y="-117" font-family="Helvetica,sans-Serif" font-size="10.00">cstring</text>
</a>
</g>
</g>
<!-- Node17&#45;&gt;Node19 -->
<g id="edge8_Node000017_Node000019" class="edge">
<title>Node17&#45;&gt;Node19</title>
<g id="a_edge8_Node000017_Node000019"><a xlink:title=" ">
<path fill="none" stroke="#63b8ff" d="M537.53,-164.98C549.4,-156.92 567.46,-144.65 581.61,-135.03"/>
<polygon fill="#63b8ff" stroke="#63b8ff" points="583.94,-137.69 590.24,-129.17 580,-131.9 583.94,-137.69"/>
</a>
</g>
</g>
<!-- Node20 -->
<g id="Node000020" class="node">
<title>Node20</title>
<g id="a_Node000020"><a xlink:title=" ">
<polygon fill="#e0e0e0" stroke="#999999" points="719.5,-129 646.5,-129 646.5,-110 719.5,-110 719.5,-129"/>
<text text-anchor="middle" x="683" y="-117" font-family="Helvetica,sans-Serif" font-size="10.00">string_view</text>
</a>
</g>
</g>
<!-- Node17&#45;&gt;Node20 -->
<g id="edge9_Node000017_Node000020" class="edge">
<title>Node17&#45;&gt;Node20</title>
<g id="a_edge9_Node000017_Node000020"><a xlink:title=" ">
<path fill="none" stroke="#63b8ff" d="M550.39,-164.98C576.8,-156.13 618.35,-142.19 647.89,-132.28"/>
<polygon fill="#63b8ff" stroke="#63b8ff" points="649.05,-135.58 657.42,-129.08 646.82,-128.94 649.05,-135.58"/>
</a>
</g>
</g>
<!-- Node22 -->
<g id="Node000022" class="node">
<title>Node22</title>
<g id="a_Node000022"><a xlink:href="hal_8hpp.html" target="_top" xlink:title=" ">
<polygon fill="#fff0f0" stroke="red" points="185.5,-19 132.5,-19 132.5,0 185.5,0 185.5,-19"/>
<text text-anchor="middle" x="159" y="-7" font-family="Helvetica,sans-Serif" font-size="10.00">hal.hpp</text>
</a>
</g>
</g>
<!-- Node21&#45;&gt;Node22 -->
<g id="edge11_Node000021_Node000022" class="edge">
<title>Node21&#45;&gt;Node22</title>
<g id="a_edge11_Node000021_Node000022"><a xlink:title=" ">
<path fill="none" stroke="#63b8ff" d="M159,-54.75C159,-47.8 159,-37.85 159,-29.13"/>
<polygon fill="#63b8ff" stroke="#63b8ff" points="162.5,-29.09 159,-19.09 155.5,-29.09 162.5,-29.09"/>
</a>
</g>
</g>
<!-- Node24&#45;&gt;Node5 -->
<g id="edge13_Node000024_Node000005" class="edge">
<title>Node24&#45;&gt;Node5</title>
<g id="a_edge13_Node000024_Node000005"><a xlink:title=" ">
<path fill="none" stroke="#63b8ff" d="M266.43,-165.79C227.11,-156.49 160.89,-140.82 117.56,-130.57"/>
<polygon fill="#63b8ff" stroke="#63b8ff" points="118.15,-127.11 107.61,-128.22 116.54,-133.92 118.15,-127.11"/>
</a>
</g>
</g>
<!-- Node25 -->
<g id="Node000025" class="node">
<title>Node25</title>
<g id="a_Node000025"><a xlink:href="defs_8hpp.html" target="_top" xlink:title=" ">
<polygon fill="white" stroke="#666666" points="439.5,-129 344.5,-129 344.5,-110 439.5,-110 439.5,-129"/>
<text text-anchor="middle" x="392" y="-117" font-family="Helvetica,sans-Serif" font-size="10.00">../../drv/defs.hpp</text>
</a>
</g>
</g>
<!-- Node24&#45;&gt;Node25 -->
<g id="edge14_Node000024_Node000025" class="edge">
<title>Node24&#45;&gt;Node25</title>
<g id="a_edge14_Node000024_Node000025"><a xlink:title=" ">
<path fill="none" stroke="#63b8ff" d="M313.94,-164.98C328.5,-156.69 350.87,-143.94 367.93,-134.22"/>
<polygon fill="#63b8ff" stroke="#63b8ff" points="369.83,-137.16 376.79,-129.17 366.36,-131.08 369.83,-137.16"/>
</a>
</g>
</g>
<!-- Node26 -->
<g id="Node000026" class="node">
<title>Node26</title>
<g id="a_Node000026"><a xlink:title=" ">
<polygon fill="#e0e0e0" stroke="#999999" points="458,-74 402,-74 402,-55 458,-55 458,-74"/>
<text text-anchor="middle" x="430" y="-62" font-family="Helvetica,sans-Serif" font-size="10.00">optional</text>
</a>
</g>
</g>
<!-- Node24&#45;&gt;Node26 -->
<g id="edge19_Node000024_Node000026" class="edge">
<title>Node24&#45;&gt;Node26</title>
<g id="a_edge19_Node000024_Node000026"><a xlink:title=" ">
<path fill="none" stroke="#63b8ff" d="M331.77,-168.35C371.27,-161.39 434.09,-147.67 448,-129 458.12,-115.41 450.55,-96.33 442.34,-82.64"/>
<polygon fill="#63b8ff" stroke="#63b8ff" points="445.18,-80.59 436.77,-74.16 439.33,-84.44 445.18,-80.59"/>
</a>
</g>
</g>
<!-- Node27 -->
<g id="Node000027" class="node">
<title>Node27</title>
<g id="a_Node000027"><a xlink:href="status_8hpp.html" target="_top" xlink:title=" ">
<polygon fill="#fff0f0" stroke="red" points="250,-129 164,-129 164,-110 250,-110 250,-129"/>
<text text-anchor="middle" x="207" y="-117" font-family="Helvetica,sans-Serif" font-size="10.00">../../status.hpp</text>
</a>
</g>
</g>
<!-- Node24&#45;&gt;Node27 -->
<g id="edge17_Node000024_Node000027" class="edge">
<title>Node24&#45;&gt;Node27</title>
<g id="a_edge17_Node000024_Node000027"><a xlink:title=" ">
<path fill="none" stroke="#63b8ff" d="M284.22,-164.98C269.82,-156.69 247.69,-143.94 230.81,-134.22"/>
<polygon fill="#63b8ff" stroke="#63b8ff" points="232.46,-131.13 222.05,-129.17 228.97,-137.19 232.46,-131.13"/>
</a>
</g>
</g>
<!-- Node30 -->
<g id="Node000030" class="node">
<title>Node30</title>
<g id="a_Node000030"><a xlink:title=" ">
<polygon fill="#e0e0e0" stroke="#999999" points="326,-129 268,-129 268,-110 326,-110 326,-129"/>
<text text-anchor="middle" x="297" y="-117" font-family="Helvetica,sans-Serif" font-size="10.00">memory</text>
</a>
</g>
</g>
<!-- Node24&#45;&gt;Node30 -->
<g id="edge18_Node000024_Node000030" class="edge">
<title>Node24&#45;&gt;Node30</title>
<g id="a_edge18_Node000024_Node000030"><a xlink:title=" ">
<path fill="none" stroke="#63b8ff" d="M298.67,-164.75C298.41,-157.8 298.03,-147.85 297.7,-139.13"/>
<polygon fill="#63b8ff" stroke="#63b8ff" points="301.2,-138.95 297.32,-129.09 294.2,-139.21 301.2,-138.95"/>
</a>
</g>
</g>
<!-- Node25&#45;&gt;Node21 -->
<g id="edge15_Node000025_Node000021" class="edge">
<title>Node25&#45;&gt;Node21</title>
<g id="a_edge15_Node000025_Node000021"><a xlink:title=" ">
<path fill="none" stroke="#63b8ff" d="M354.56,-109.98C314.35,-100.84 250.32,-86.27 206.56,-76.32"/>
<polygon fill="#63b8ff" stroke="#63b8ff" points="207.26,-72.89 196.73,-74.08 205.7,-79.71 207.26,-72.89"/>
</a>
</g>
</g>
<!-- Node25&#45;&gt;Node26 -->
<g id="edge16_Node000025_Node000026" class="edge">
<title>Node25&#45;&gt;Node26</title>
<g id="a_edge16_Node000025_Node000026"><a xlink:title=" ">
<path fill="none" stroke="#63b8ff" d="M398.27,-109.75C403.59,-102.34 411.36,-91.5 417.88,-82.41"/>
<polygon fill="#63b8ff" stroke="#63b8ff" points="420.86,-84.26 423.84,-74.09 415.17,-80.18 420.86,-84.26"/>
</a>
</g>
</g>
</g>
</svg>
