<?xml version="1.0" encoding="UTF-8" standalone="no"?>
<!DOCTYPE svg PUBLIC "-//W3C//DTD SVG 1.1//EN"
 "http://www.w3.org/Graphics/SVG/1.1/DTD/svg11.dtd">
<!-- Generated by graphviz version 2.43.0 (0)
 -->
<!-- Title: src/scmdio/tests/port_mock.hpp Pages: 1 -->
<svg width="1169pt" height="291pt"
 viewBox="0.00 0.00 1169.00 291.00" xmlns="http://www.w3.org/2000/svg" xmlns:xlink="http://www.w3.org/1999/xlink">
<g id="graph0" class="graph" transform="scale(1 1) rotate(0) translate(4 287)">
<title>src/scmdio/tests/port_mock.hpp</title>
<!-- Node1 -->
<g id="Node000001" class="node">
<title>Node1</title>
<g id="a_Node000001"><a xlink:title=" ">
<polygon fill="#999999" stroke="#666666" points="909.5,-283 790.5,-283 790.5,-253 909.5,-253 909.5,-283"/>
<text text-anchor="start" x="798.5" y="-271" font-family="Helvetica,sans-Serif" font-size="10.00">src/scmdio/tests/port</text>
<text text-anchor="middle" x="850" y="-260" font-family="Helvetica,sans-Serif" font-size="10.00">_mock.hpp</text>
</a>
</g>
</g>
<!-- Node2 -->
<g id="Node000002" class="node">
<title>Node2</title>
<g id="a_Node000002"><a xlink:href="core_8hpp.html" target="_top" xlink:title=" ">
<polygon fill="white" stroke="#666666" points="187.5,-145.5 86.5,-145.5 86.5,-126.5 187.5,-126.5 187.5,-145.5"/>
<text text-anchor="middle" x="137" y="-133.5" font-family="Helvetica,sans-Serif" font-size="10.00">../../core/core.hpp</text>
</a>
</g>
</g>
<!-- Node1&#45;&gt;Node2 -->
<g id="edge1_Node000001_Node000002" class="edge">
<title>Node1&#45;&gt;Node2</title>
<g id="a_edge1_Node000001_Node000002"><a xlink:title=" ">
<path fill="none" stroke="#63b8ff" d="M790.22,-262.01C711.2,-254.87 567.86,-239.99 447,-217 347.58,-198.09 232.78,-165.61 174.76,-148.43"/>
<polygon fill="#63b8ff" stroke="#63b8ff" points="175.52,-145.01 164.94,-145.51 173.52,-151.71 175.52,-145.01"/>
</a>
</g>
</g>
<!-- Node51 -->
<g id="Node000051" class="node">
<title>Node51</title>
<g id="a_Node000051"><a xlink:href="core_2dispatcher_8hpp.html" target="_top" xlink:title=" ">
<polygon fill="white" stroke="#666666" points="586,-211.5 456,-211.5 456,-192.5 586,-192.5 586,-211.5"/>
<text text-anchor="middle" x="521" y="-199.5" font-family="Helvetica,sans-Serif" font-size="10.00">../../core/dispatcher.hpp</text>
</a>
</g>
</g>
<!-- Node1&#45;&gt;Node51 -->
<g id="edge8_Node000001_Node000051" class="edge">
<title>Node1&#45;&gt;Node51</title>
<g id="a_edge8_Node000001_Node000051"><a xlink:title=" ">
<path fill="none" stroke="#63b8ff" d="M790.42,-255.41C728.98,-243.46 634.02,-224.99 574.79,-213.46"/>
<polygon fill="#63b8ff" stroke="#63b8ff" points="575.37,-210.01 564.89,-211.54 574.03,-216.88 575.37,-210.01"/>
</a>
</g>
</g>
<!-- Node60 -->
<g id="Node000060" class="node">
<title>Node60</title>
<g id="a_Node000060"><a xlink:href="port_8hpp.html" target="_top" xlink:title=" ">
<polygon fill="white" stroke="#666666" points="843,-211.5 777,-211.5 777,-192.5 843,-192.5 843,-211.5"/>
<text text-anchor="middle" x="810" y="-199.5" font-family="Helvetica,sans-Serif" font-size="10.00">../port.hpp</text>
</a>
</g>
</g>
<!-- Node1&#45;&gt;Node60 -->
<g id="edge16_Node000001_Node000060" class="edge">
<title>Node1&#45;&gt;Node60</title>
<g id="a_edge16_Node000001_Node000060"><a xlink:title=" ">
<path fill="none" stroke="#63b8ff" d="M841.12,-252.8C835.19,-243.31 827.35,-230.76 821.02,-220.63"/>
<polygon fill="#63b8ff" stroke="#63b8ff" points="823.8,-218.47 815.53,-211.84 817.86,-222.18 823.8,-218.47"/>
</a>
</g>
</g>
<!-- Node69 -->
<g id="Node000069" class="node">
<title>Node69</title>
<g id="a_Node000069"><a xlink:href="scmdio_2tests_2util_8hpp.html" target="_top" xlink:title=" ">
<polygon fill="white" stroke="#666666" points="920.5,-211.5 861.5,-211.5 861.5,-192.5 920.5,-192.5 920.5,-211.5"/>
<text text-anchor="middle" x="891" y="-199.5" font-family="Helvetica,sans-Serif" font-size="10.00">./util.hpp</text>
</a>
</g>
</g>
<!-- Node1&#45;&gt;Node69 -->
<g id="edge21_Node000001_Node000069" class="edge">
<title>Node1&#45;&gt;Node69</title>
<g id="a_edge21_Node000001_Node000069"><a xlink:title=" ">
<path fill="none" stroke="#63b8ff" d="M859.1,-252.8C865.24,-243.21 873.38,-230.5 879.9,-220.32"/>
<polygon fill="#63b8ff" stroke="#63b8ff" points="882.89,-222.15 885.33,-211.84 876.99,-218.38 882.89,-222.15"/>
</a>
</g>
</g>
<!-- Node71 -->
<g id="Node000071" class="node">
<title>Node71</title>
<g id="a_Node000071"><a xlink:title=" ">
<polygon fill="#e0e0e0" stroke="#999999" points="985.5,-211.5 938.5,-211.5 938.5,-192.5 985.5,-192.5 985.5,-211.5"/>
<text text-anchor="middle" x="962" y="-199.5" font-family="Helvetica,sans-Serif" font-size="10.00">deque</text>
</a>
</g>
</g>
<!-- Node1&#45;&gt;Node71 -->
<g id="edge23_Node000001_Node000071" class="edge">
<title>Node1&#45;&gt;Node71</title>
<g id="a_edge23_Node000001_Node000071"><a xlink:title=" ">
<path fill="none" stroke="#63b8ff" d="M874.58,-252.95C893.53,-242.13 919.58,-227.24 938.3,-216.54"/>
<polygon fill="#63b8ff" stroke="#63b8ff" points="940.15,-219.52 947.09,-211.52 936.68,-213.44 940.15,-219.52"/>
</a>
</g>
</g>
<!-- Node72 -->
<g id="Node000072" class="node">
<title>Node72</title>
<g id="a_Node000072"><a xlink:title=" ">
<polygon fill="#e0e0e0" stroke="#999999" points="1150,-217 1004,-217 1004,-187 1150,-187 1150,-217"/>
<text text-anchor="start" x="1012" y="-205" font-family="Helvetica,sans-Serif" font-size="10.00">emlabcpp/pmr/new_delete</text>
<text text-anchor="middle" x="1077" y="-194" font-family="Helvetica,sans-Serif" font-size="10.00">_resource.hpp</text>
</a>
</g>
</g>
<!-- Node1&#45;&gt;Node72 -->
<g id="edge24_Node000001_Node000072" class="edge">
<title>Node1&#45;&gt;Node72</title>
<g id="a_edge24_Node000001_Node000072"><a xlink:title=" ">
<path fill="none" stroke="#63b8ff" d="M899.82,-252.95C934.41,-243.2 980.68,-230.16 1017.26,-219.84"/>
<polygon fill="#63b8ff" stroke="#63b8ff" points="1018.63,-223.09 1027.3,-217.01 1016.73,-216.36 1018.63,-223.09"/>
</a>
</g>
</g>
<!-- Node3 -->
<g id="Node000003" class="node">
<title>Node3</title>
<g id="a_Node000003"><a xlink:href="governor__manager_8hpp.html" target="_top" xlink:title=" ">
<polygon fill="#fff0f0" stroke="red" points="600.5,-79.5 441.5,-79.5 441.5,-60.5 600.5,-60.5 600.5,-79.5"/>
<text text-anchor="middle" x="521" y="-67.5" font-family="Helvetica,sans-Serif" font-size="10.00">../gov/governor_manager.hpp</text>
</a>
</g>
</g>
<!-- Node2&#45;&gt;Node3 -->
<g id="edge2_Node000002_Node000003" class="edge">
<title>Node2&#45;&gt;Node3</title>
<g id="a_edge2_Node000002_Node000003"><a xlink:title=" ">
<path fill="none" stroke="#63b8ff" d="M170.91,-126.46C179.09,-124.54 187.84,-122.59 196,-121 220.72,-116.17 365.86,-94.23 453.61,-81.07"/>
<polygon fill="#63b8ff" stroke="#63b8ff" points="454.38,-84.5 463.75,-79.55 453.34,-77.57 454.38,-84.5"/>
</a>
</g>
</g>
<!-- Node34 -->
<g id="Node000034" class="node">
<title>Node34</title>
<g id="a_Node000034"><a xlink:href="indication_8hpp.html" target="_top" xlink:title=" ">
<polygon fill="#fff0f0" stroke="red" points="244.5,-19 125.5,-19 125.5,0 244.5,0 244.5,-19"/>
<text text-anchor="middle" x="185" y="-7" font-family="Helvetica,sans-Serif" font-size="10.00">../mon/indication.hpp</text>
</a>
</g>
</g>
<!-- Node2&#45;&gt;Node34 -->
<g id="edge3_Node000002_Node000034" class="edge">
<title>Node2&#45;&gt;Node34</title>
<g id="a_edge3_Node000002_Node000034"><a xlink:title=" ">
<path fill="none" stroke="#63b8ff" d="M139.34,-126.45C143.48,-111.65 152.65,-80.43 163,-55 166.66,-46.02 171.35,-36.34 175.46,-28.31"/>
<polygon fill="#63b8ff" stroke="#63b8ff" points="178.69,-29.67 180.23,-19.19 172.49,-26.43 178.69,-29.67"/>
</a>
</g>
</g>
<!-- Node37 -->
<g id="Node000037" class="node">
<title>Node37</title>
<g id="a_Node000037"><a xlink:href="monitor_8hpp.html" target="_top" xlink:title=" ">
<polygon fill="#fff0f0" stroke="red" points="281.5,-79.5 172.5,-79.5 172.5,-60.5 281.5,-60.5 281.5,-79.5"/>
<text text-anchor="middle" x="227" y="-67.5" font-family="Helvetica,sans-Serif" font-size="10.00">../mon/monitor.hpp</text>
</a>
</g>
</g>
<!-- Node2&#45;&gt;Node37 -->
<g id="edge4_Node000002_Node000037" class="edge">
<title>Node2&#45;&gt;Node37</title>
<g id="a_edge4_Node000002_Node000037"><a xlink:title=" ">
<path fill="none" stroke="#63b8ff" d="M149.14,-126.37C163.77,-115.97 188.58,-98.32 206.26,-85.75"/>
<polygon fill="#63b8ff" stroke="#63b8ff" points="208.65,-88.35 214.77,-79.7 204.59,-82.64 208.65,-88.35"/>
</a>
</g>
</g>
<!-- Node42 -->
<g id="Node000042" class="node">
<title>Node42</title>
<g id="a_Node000042"><a xlink:href="metrics_8hpp.html" target="_top" xlink:title=" ">
<polygon fill="#fff0f0" stroke="red" points="417,-79.5 313,-79.5 313,-60.5 417,-60.5 417,-79.5"/>
<text text-anchor="middle" x="365" y="-67.5" font-family="Helvetica,sans-Serif" font-size="10.00">../mtr/metrics.hpp</text>
</a>
</g>
</g>
<!-- Node2&#45;&gt;Node42 -->
<g id="edge6_Node000002_Node000042" class="edge">
<title>Node2&#45;&gt;Node42</title>
<g id="a_edge6_Node000002_Node000042"><a xlink:title=" ">
<path fill="none" stroke="#63b8ff" d="M167.75,-126.37C208.32,-114.98 279.81,-94.91 324.68,-82.32"/>
<polygon fill="#63b8ff" stroke="#63b8ff" points="325.69,-85.67 334.37,-79.6 323.8,-78.93 325.69,-85.67"/>
</a>
</g>
</g>
<!-- Node50 -->
<g id="Node000050" class="node">
<title>Node50</title>
<g id="a_Node000050"><a xlink:title=" ">
<polygon fill="#e0e0e0" stroke="#999999" points="116,-85 0,-85 0,-55 116,-55 116,-85"/>
<text text-anchor="start" x="8" y="-73" font-family="Helvetica,sans-Serif" font-size="10.00">emlabcpp/pmr/stack</text>
<text text-anchor="middle" x="58" y="-62" font-family="Helvetica,sans-Serif" font-size="10.00">_resource.hpp</text>
</a>
</g>
</g>
<!-- Node2&#45;&gt;Node50 -->
<g id="edge7_Node000002_Node000050" class="edge">
<title>Node2&#45;&gt;Node50</title>
<g id="a_edge7_Node000002_Node000050"><a xlink:title=" ">
<path fill="none" stroke="#63b8ff" d="M126.35,-126.37C115.43,-117.53 98.06,-103.45 83.56,-91.71"/>
<polygon fill="#63b8ff" stroke="#63b8ff" points="85.4,-88.69 75.42,-85.12 80.99,-94.13 85.4,-88.69"/>
</a>
</g>
</g>
<!-- Node37&#45;&gt;Node34 -->
<g id="edge5_Node000037_Node000034" class="edge">
<title>Node37&#45;&gt;Node34</title>
<g id="a_edge5_Node000037_Node000034"><a xlink:title=" ">
<path fill="none" stroke="#63b8ff" d="M220.8,-60.37C214.6,-51.73 204.89,-38.2 197.14,-27.42"/>
<polygon fill="#63b8ff" stroke="#63b8ff" points="199.9,-25.25 191.22,-19.17 194.21,-29.33 199.9,-25.25"/>
</a>
</g>
</g>
<!-- Node51&#45;&gt;Node3 -->
<g id="edge13_Node000051_Node000003" class="edge">
<title>Node51&#45;&gt;Node3</title>
<g id="a_edge13_Node000051_Node000003"><a xlink:title=" ">
<path fill="none" stroke="#63b8ff" d="M540.33,-192.48C556.11,-184.34 577.34,-170.44 587,-151 592.93,-139.06 592.93,-132.94 587,-121 579.08,-105.05 563.37,-92.83 549.26,-84.47"/>
<polygon fill="#63b8ff" stroke="#63b8ff" points="550.77,-81.3 540.33,-79.52 547.38,-87.43 550.77,-81.3"/>
</a>
</g>
</g>
<!-- Node52 -->
<g id="Node000052" class="node">
<title>Node52</title>
<g id="a_Node000052"><a xlink:href="cfg_2dispatcher_8hpp.html" target="_top" xlink:title=" ">
<polygon fill="#fff0f0" stroke="red" points="578.5,-145.5 463.5,-145.5 463.5,-126.5 578.5,-126.5 578.5,-145.5"/>
<text text-anchor="middle" x="521" y="-133.5" font-family="Helvetica,sans-Serif" font-size="10.00">../cfg/dispatcher.hpp</text>
</a>
</g>
</g>
<!-- Node51&#45;&gt;Node52 -->
<g id="edge9_Node000051_Node000052" class="edge">
<title>Node51&#45;&gt;Node52</title>
<g id="a_edge9_Node000051_Node000052"><a xlink:title=" ">
<path fill="none" stroke="#63b8ff" d="M521,-192.37C521,-183.16 521,-168.29 521,-156.27"/>
<polygon fill="#63b8ff" stroke="#63b8ff" points="524.5,-155.91 521,-145.91 517.5,-155.91 524.5,-155.91"/>
</a>
</g>
</g>
<!-- Node58 -->
<g id="Node000058" class="node">
<title>Node58</title>
<g id="a_Node000058"><a xlink:href="iface_2def_8hpp.html" target="_top" xlink:title=" ">
<polygon fill="#fff0f0" stroke="red" points="294.5,-145.5 205.5,-145.5 205.5,-126.5 294.5,-126.5 294.5,-145.5"/>
<text text-anchor="middle" x="250" y="-133.5" font-family="Helvetica,sans-Serif" font-size="10.00">../iface/def.hpp</text>
</a>
</g>
</g>
<!-- Node51&#45;&gt;Node58 -->
<g id="edge14_Node000051_Node000058" class="edge">
<title>Node51&#45;&gt;Node58</title>
<g id="a_edge14_Node000051_Node000058"><a xlink:title=" ">
<path fill="none" stroke="#63b8ff" d="M481.92,-192.44C438.23,-182.78 365.39,-166.39 303,-151 299.21,-150.07 295.27,-149.07 291.34,-148.06"/>
<polygon fill="#63b8ff" stroke="#63b8ff" points="292.18,-144.66 281.63,-145.54 290.42,-151.44 292.18,-144.66"/>
</a>
</g>
</g>
<!-- Node29 -->
<g id="Node000029" class="node">
<title>Node29</title>
<g id="a_Node000029"><a xlink:title=" ">
<polygon fill="#e0e0e0" stroke="#999999" points="445.5,-151 312.5,-151 312.5,-121 445.5,-121 445.5,-151"/>
<text text-anchor="start" x="320.5" y="-139" font-family="Helvetica,sans-Serif" font-size="10.00">emlabcpp/experimental</text>
<text text-anchor="middle" x="379" y="-128" font-family="Helvetica,sans-Serif" font-size="10.00">/function_view.hpp</text>
</a>
</g>
</g>
<!-- Node51&#45;&gt;Node29 -->
<g id="edge15_Node000051_Node000029" class="edge">
<title>Node51&#45;&gt;Node29</title>
<g id="a_edge15_Node000051_Node000029"><a xlink:title=" ">
<path fill="none" stroke="#63b8ff" d="M501.85,-192.37C480.86,-182.91 446.57,-167.45 419.54,-155.27"/>
<polygon fill="#63b8ff" stroke="#63b8ff" points="420.87,-152.03 410.32,-151.12 418,-158.42 420.87,-152.03"/>
</a>
</g>
</g>
<!-- Node52&#45;&gt;Node3 -->
<g id="edge10_Node000052_Node000003" class="edge">
<title>Node52&#45;&gt;Node3</title>
<g id="a_edge10_Node000052_Node000003"><a xlink:title=" ">
<path fill="none" stroke="#63b8ff" d="M521,-126.37C521,-117.16 521,-102.29 521,-90.27"/>
<polygon fill="#63b8ff" stroke="#63b8ff" points="524.5,-89.91 521,-79.91 517.5,-89.91 524.5,-89.91"/>
</a>
</g>
</g>
<!-- Node52&#45;&gt;Node37 -->
<g id="edge11_Node000052_Node000037" class="edge">
<title>Node52&#45;&gt;Node37</title>
<g id="a_edge11_Node000052_Node000037"><a xlink:title=" ">
<path fill="none" stroke="#63b8ff" d="M481.65,-126.44C428.52,-114.87 333.83,-94.26 276.1,-81.69"/>
<polygon fill="#63b8ff" stroke="#63b8ff" points="276.63,-78.22 266.11,-79.51 275.14,-85.06 276.63,-78.22"/>
</a>
</g>
</g>
<!-- Node52&#45;&gt;Node42 -->
<g id="edge12_Node000052_Node000042" class="edge">
<title>Node52&#45;&gt;Node42</title>
<g id="a_edge12_Node000052_Node000042"><a xlink:title=" ">
<path fill="none" stroke="#63b8ff" d="M499.96,-126.37C473.02,-115.32 426.14,-96.08 395.34,-83.45"/>
<polygon fill="#63b8ff" stroke="#63b8ff" points="396.53,-80.15 385.95,-79.6 393.88,-86.63 396.53,-80.15"/>
</a>
</g>
</g>
<!-- Node61 -->
<g id="Node000061" class="node">
<title>Node61</title>
<g id="a_Node000061"><a xlink:href="scmdio_2base_8hpp.html" target="_top" xlink:title=" ">
<polygon fill="#fff0f0" stroke="red" points="912.5,-145.5 851.5,-145.5 851.5,-126.5 912.5,-126.5 912.5,-145.5"/>
<text text-anchor="middle" x="882" y="-133.5" font-family="Helvetica,sans-Serif" font-size="10.00">base.hpp</text>
</a>
</g>
</g>
<!-- Node60&#45;&gt;Node61 -->
<g id="edge17_Node000060_Node000061" class="edge">
<title>Node60&#45;&gt;Node61</title>
<g id="a_edge17_Node000060_Node000061"><a xlink:title=" ">
<path fill="none" stroke="#63b8ff" d="M819.71,-192.37C831.13,-182.21 850.32,-165.16 864.39,-152.65"/>
<polygon fill="#63b8ff" stroke="#63b8ff" points="866.83,-155.16 871.98,-145.91 862.18,-149.93 866.83,-155.16"/>
</a>
</g>
</g>
<!-- Node66 -->
<g id="Node000066" class="node">
<title>Node66</title>
<g id="a_Node000066"><a xlink:title=" ">
<polygon fill="#e0e0e0" stroke="#999999" points="1065,-145.5 931,-145.5 931,-126.5 1065,-126.5 1065,-145.5"/>
<text text-anchor="middle" x="998" y="-133.5" font-family="Helvetica,sans-Serif" font-size="10.00">spdlog/fmt/bin_to_hex.h</text>
</a>
</g>
</g>
<!-- Node60&#45;&gt;Node66 -->
<g id="edge18_Node000060_Node000066" class="edge">
<title>Node60&#45;&gt;Node66</title>
<g id="a_edge18_Node000060_Node000066"><a xlink:title=" ">
<path fill="none" stroke="#63b8ff" d="M835.35,-192.37C868.24,-181.17 925.78,-161.58 962.87,-148.96"/>
<polygon fill="#63b8ff" stroke="#63b8ff" points="964.41,-152.13 972.75,-145.6 962.15,-145.51 964.41,-152.13"/>
</a>
</g>
</g>
<!-- Node67 -->
<g id="Node000067" class="node">
<title>Node67</title>
<g id="a_Node000067"><a xlink:title=" ">
<polygon fill="#e0e0e0" stroke="#999999" points="768.5,-151 635.5,-151 635.5,-121 768.5,-121 768.5,-151"/>
<text text-anchor="start" x="643.5" y="-139" font-family="Helvetica,sans-Serif" font-size="10.00">emlabcpp/experimental</text>
<text text-anchor="middle" x="702" y="-128" font-family="Helvetica,sans-Serif" font-size="10.00">/cobs.hpp</text>
</a>
</g>
</g>
<!-- Node60&#45;&gt;Node67 -->
<g id="edge19_Node000060_Node000067" class="edge">
<title>Node60&#45;&gt;Node67</title>
<g id="a_edge19_Node000060_Node000067"><a xlink:title=" ">
<path fill="none" stroke="#63b8ff" d="M795.43,-192.37C779.89,-183.16 754.75,-168.26 734.46,-156.24"/>
<polygon fill="#63b8ff" stroke="#63b8ff" points="736.21,-153.2 725.82,-151.12 732.64,-159.22 736.21,-153.2"/>
</a>
</g>
</g>
<!-- Node68 -->
<g id="Node000068" class="node">
<title>Node68</title>
<g id="a_Node000068"><a xlink:title=" ">
<polygon fill="#e0e0e0" stroke="#999999" points="833.5,-145.5 786.5,-145.5 786.5,-126.5 833.5,-126.5 833.5,-145.5"/>
<text text-anchor="middle" x="810" y="-133.5" font-family="Helvetica,sans-Serif" font-size="10.00">vector</text>
</a>
</g>
</g>
<!-- Node60&#45;&gt;Node68 -->
<g id="edge20_Node000060_Node000068" class="edge">
<title>Node60&#45;&gt;Node68</title>
<g id="a_edge20_Node000060_Node000068"><a xlink:title=" ">
<path fill="none" stroke="#63b8ff" d="M810,-192.37C810,-183.16 810,-168.29 810,-156.27"/>
<polygon fill="#63b8ff" stroke="#63b8ff" points="813.5,-155.91 810,-145.91 806.5,-155.91 813.5,-155.91"/>
</a>
</g>
</g>
<!-- Node70 -->
<g id="Node000070" class="node">
<title>Node70</title>
<g id="a_Node000070"><a xlink:title=" ">
<polygon fill="#e0e0e0" stroke="#999999" points="1161,-145.5 1083,-145.5 1083,-126.5 1161,-126.5 1161,-145.5"/>
<text text-anchor="middle" x="1122" y="-133.5" font-family="Helvetica,sans-Serif" font-size="10.00">gtest/gtest.h</text>
</a>
</g>
</g>
<!-- Node69&#45;&gt;Node70 -->
<g id="edge22_Node000069_Node000070" class="edge">
<title>Node69&#45;&gt;Node70</title>
<g id="a_edge22_Node000069_Node000070"><a xlink:title=" ">
<path fill="none" stroke="#63b8ff" d="M913.56,-192.47C918.91,-190.57 924.63,-188.63 930,-187 993.12,-167.83 1010.32,-168.24 1074,-151 1077.14,-150.15 1080.39,-149.25 1083.66,-148.33"/>
<polygon fill="#63b8ff" stroke="#63b8ff" points="1084.72,-151.66 1093.37,-145.55 1082.79,-144.93 1084.72,-151.66"/>
</a>
</g>
</g>
</g>
</svg>
