<?xml version="1.0" encoding="UTF-8" standalone="no"?>
<!DOCTYPE svg PUBLIC "-//W3C//DTD SVG 1.1//EN"
 "http://www.w3.org/Graphics/SVG/1.1/DTD/svg11.dtd">
<!-- Generated by graphviz version 2.43.0 (0)
 -->
<!-- Title: src/gov/power/power.hpp Pages: 1 -->
<svg width="814pt" height="203pt"
 viewBox="0.00 0.00 813.63 203.00" xmlns="http://www.w3.org/2000/svg" xmlns:xlink="http://www.w3.org/1999/xlink">
<g id="graph0" class="graph" transform="scale(1 1) rotate(0) translate(4 199)">
<title>src/gov/power/power.hpp</title>
<!-- Node1 -->
<g id="Node000001" class="node">
<title>Node1</title>
<g id="a_Node000001"><a xlink:title=" ">
<polygon fill="#999999" stroke="#666666" points="433.5,-195 295.5,-195 295.5,-176 433.5,-176 433.5,-195"/>
<text text-anchor="middle" x="364.5" y="-183" font-family="Helvetica,sans-Serif" font-size="10.00">src/gov/power/power.hpp</text>
</a>
</g>
</g>
<!-- Node2 -->
<g id="Node000002" class="node">
<title>Node2</title>
<g id="a_Node000002"><a xlink:href="governor_8hpp.html" target="_top" xlink:title=" ">
<polygon fill="white" stroke="#666666" points="409,-140 320,-140 320,-121 409,-121 409,-140"/>
<text text-anchor="middle" x="364.5" y="-128" font-family="Helvetica,sans-Serif" font-size="10.00">../governor.hpp</text>
</a>
</g>
</g>
<!-- Node1&#45;&gt;Node2 -->
<g id="edge1_Node000001_Node000002" class="edge">
<title>Node1&#45;&gt;Node2</title>
<g id="a_edge1_Node000001_Node000002"><a xlink:title=" ">
<path fill="none" stroke="#63b8ff" d="M364.5,-175.75C364.5,-168.8 364.5,-158.85 364.5,-150.13"/>
<polygon fill="#63b8ff" stroke="#63b8ff" points="368,-150.09 364.5,-140.09 361,-150.09 368,-150.09"/>
</a>
</g>
</g>
<!-- Node31 -->
<g id="Node000031" class="node">
<title>Node31</title>
<g id="a_Node000031"><a xlink:href="power_2iface_8hpp.html" target="_top" xlink:title=" ">
<polygon fill="white" stroke="#666666" points="192.5,-140 124.5,-140 124.5,-121 192.5,-121 192.5,-140"/>
<text text-anchor="middle" x="158.5" y="-128" font-family="Helvetica,sans-Serif" font-size="10.00">./iface.hpp</text>
</a>
</g>
</g>
<!-- Node1&#45;&gt;Node31 -->
<g id="edge15_Node000001_Node000031" class="edge">
<title>Node1&#45;&gt;Node31</title>
<g id="a_edge15_Node000001_Node000031"><a xlink:title=" ">
<path fill="none" stroke="#63b8ff" d="M331.4,-175.98C296.22,-166.93 240.43,-152.58 201.78,-142.64"/>
<polygon fill="#63b8ff" stroke="#63b8ff" points="202.41,-139.18 191.86,-140.08 200.67,-145.96 202.41,-139.18"/>
</a>
</g>
</g>
<!-- Node32 -->
<g id="Node000032" class="node">
<title>Node32</title>
<g id="a_Node000032"><a xlink:title=" ">
<polygon fill="#e0e0e0" stroke="#999999" points="519.5,-140 427.5,-140 427.5,-121 519.5,-121 519.5,-140"/>
<text text-anchor="middle" x="473.5" y="-128" font-family="Helvetica,sans-Serif" font-size="10.00">emlabcpp/pid.h</text>
</a>
</g>
</g>
<!-- Node1&#45;&gt;Node32 -->
<g id="edge17_Node000001_Node000032" class="edge">
<title>Node1&#45;&gt;Node32</title>
<g id="a_edge17_Node000001_Node000032"><a xlink:title=" ">
<path fill="none" stroke="#63b8ff" d="M382.01,-175.98C399.47,-167.5 426.51,-154.35 446.67,-144.54"/>
<polygon fill="#63b8ff" stroke="#63b8ff" points="448.21,-147.69 455.67,-140.17 445.14,-141.4 448.21,-147.69"/>
</a>
</g>
</g>
<!-- Node3 -->
<g id="Node000003" class="node">
<title>Node3</title>
<g id="a_Node000003"><a xlink:href="base_8hpp.html" target="_top" xlink:title=" ">
<polygon fill="#fff0f0" stroke="red" points="605.5,-19 535.5,-19 535.5,0 605.5,0 605.5,-19"/>
<text text-anchor="middle" x="570.5" y="-7" font-family="Helvetica,sans-Serif" font-size="10.00">../base.hpp</text>
</a>
</g>
</g>
<!-- Node2&#45;&gt;Node3 -->
<g id="edge2_Node000002_Node000003" class="edge">
<title>Node2&#45;&gt;Node3</title>
<g id="a_edge2_Node000002_Node000003"><a xlink:title=" ">
<path fill="none" stroke="#63b8ff" d="M409.26,-122.24C412.38,-121.8 415.49,-121.38 418.5,-121 460.14,-115.73 766.27,-116.06 794.5,-85 847.33,-26.88 695.52,-14.03 615.86,-11.24"/>
<polygon fill="#63b8ff" stroke="#63b8ff" points="615.7,-7.73 605.6,-10.92 615.48,-14.73 615.7,-7.73"/>
</a>
</g>
</g>
<!-- Node10 -->
<g id="Node000010" class="node">
<title>Node10</title>
<g id="a_Node000010"><a xlink:href="cfg_2base_8hpp.html" target="_top" xlink:title=" ">
<polygon fill="#fff0f0" stroke="red" points="279.5,-79.5 191.5,-79.5 191.5,-60.5 279.5,-60.5 279.5,-79.5"/>
<text text-anchor="middle" x="235.5" y="-67.5" font-family="Helvetica,sans-Serif" font-size="10.00">../cfg/base.hpp</text>
</a>
</g>
</g>
<!-- Node2&#45;&gt;Node10 -->
<g id="edge3_Node000002_Node000010" class="edge">
<title>Node2&#45;&gt;Node10</title>
<g id="a_edge3_Node000002_Node000010"><a xlink:title=" ">
<path fill="none" stroke="#63b8ff" d="M345.74,-120.99C324.15,-111.2 288.47,-95.02 263.57,-83.73"/>
<polygon fill="#63b8ff" stroke="#63b8ff" points="264.83,-80.46 254.28,-79.52 261.94,-86.83 264.83,-80.46"/>
</a>
</g>
</g>
<!-- Node19 -->
<g id="Node000019" class="node">
<title>Node19</title>
<g id="a_Node000019"><a xlink:href="status_8hpp.html" target="_top" xlink:title=" ">
<polygon fill="#fff0f0" stroke="red" points="238,-19 161,-19 161,0 238,0 238,-19"/>
<text text-anchor="middle" x="199.5" y="-7" font-family="Helvetica,sans-Serif" font-size="10.00">../status.hpp</text>
</a>
</g>
</g>
<!-- Node2&#45;&gt;Node19 -->
<g id="edge9_Node000002_Node000019" class="edge">
<title>Node2&#45;&gt;Node19</title>
<g id="a_edge9_Node000002_Node000019"><a xlink:title=" ">
<path fill="none" stroke="#63b8ff" d="M319.88,-124.85C271.61,-118.79 199.27,-106.37 182.5,-85 169.63,-68.6 178.97,-44.26 188.1,-27.91"/>
<polygon fill="#63b8ff" stroke="#63b8ff" points="191.11,-29.69 193.28,-19.32 185.11,-26.08 191.11,-29.69"/>
</a>
</g>
</g>
<!-- Node23 -->
<g id="Node000023" class="node">
<title>Node23</title>
<g id="a_Node000023"><a xlink:href="iface_2base_8hpp.html" target="_top" xlink:title=" ">
<polygon fill="#fff0f0" stroke="red" points="97,-79.5 0,-79.5 0,-60.5 97,-60.5 97,-79.5"/>
<text text-anchor="middle" x="48.5" y="-67.5" font-family="Helvetica,sans-Serif" font-size="10.00">../iface/base.hpp</text>
</a>
</g>
</g>
<!-- Node2&#45;&gt;Node23 -->
<g id="edge6_Node000002_Node000023" class="edge">
<title>Node2&#45;&gt;Node23</title>
<g id="a_edge6_Node000002_Node000023"><a xlink:title=" ">
<path fill="none" stroke="#63b8ff" d="M319.6,-122.22C268.93,-113.87 184.11,-99.45 111.5,-85 106.41,-83.99 101.1,-82.88 95.82,-81.75"/>
<polygon fill="#63b8ff" stroke="#63b8ff" points="96.27,-78.27 85.75,-79.57 94.78,-85.11 96.27,-78.27"/>
</a>
</g>
</g>
<!-- Node24 -->
<g id="Node000024" class="node">
<title>Node24</title>
<g id="a_Node000024"><a xlink:href="json__ser_8hpp.html" target="_top" xlink:title=" ">
<polygon fill="#fff0f0" stroke="red" points="139,-19 38,-19 38,0 139,0 139,-19"/>
<text text-anchor="middle" x="88.5" y="-7" font-family="Helvetica,sans-Serif" font-size="10.00">../lib/json_ser.hpp</text>
</a>
</g>
</g>
<!-- Node2&#45;&gt;Node24 -->
<g id="edge8_Node000002_Node000024" class="edge">
<title>Node2&#45;&gt;Node24</title>
<g id="a_edge8_Node000002_Node000024"><a xlink:title=" ">
<path fill="none" stroke="#63b8ff" d="M319.77,-125.61C279.18,-120.63 218.65,-109.49 171.5,-85 143.55,-70.48 117.61,-44.34 102.41,-27.2"/>
<polygon fill="#63b8ff" stroke="#63b8ff" points="104.67,-24.46 95.49,-19.17 99.37,-29.03 104.67,-24.46"/>
</a>
</g>
</g>
<!-- Node27 -->
<g id="Node000027" class="node">
<title>Node27</title>
<g id="a_Node000027"><a xlink:title=" ">
<polygon fill="#e0e0e0" stroke="#999999" points="431,-85 298,-85 298,-55 431,-55 431,-85"/>
<text text-anchor="start" x="306" y="-73" font-family="Helvetica,sans-Serif" font-size="10.00">emlabcpp/experimental</text>
<text text-anchor="middle" x="364.5" y="-62" font-family="Helvetica,sans-Serif" font-size="10.00">/function_view.h</text>
</a>
</g>
</g>
<!-- Node2&#45;&gt;Node27 -->
<g id="edge10_Node000002_Node000027" class="edge">
<title>Node2&#45;&gt;Node27</title>
<g id="a_edge10_Node000002_Node000027"><a xlink:title=" ">
<path fill="none" stroke="#63b8ff" d="M364.5,-120.87C364.5,-114.11 364.5,-104.35 364.5,-95.26"/>
<polygon fill="#63b8ff" stroke="#63b8ff" points="368,-95.11 364.5,-85.11 361,-95.11 368,-95.11"/>
</a>
</g>
</g>
<!-- Node28 -->
<g id="Node000028" class="node">
<title>Node28</title>
<g id="a_Node000028"><a xlink:title=" ">
<polygon fill="#e0e0e0" stroke="#999999" points="580,-85 449,-85 449,-55 580,-55 580,-85"/>
<text text-anchor="start" x="457" y="-73" font-family="Helvetica,sans-Serif" font-size="10.00">emlabcpp/pmr/memory</text>
<text text-anchor="middle" x="514.5" y="-62" font-family="Helvetica,sans-Serif" font-size="10.00">_resource.h</text>
</a>
</g>
</g>
<!-- Node2&#45;&gt;Node28 -->
<g id="edge11_Node000002_Node000028" class="edge">
<title>Node2&#45;&gt;Node28</title>
<g id="a_edge11_Node000002_Node000028"><a xlink:title=" ">
<path fill="none" stroke="#63b8ff" d="M386.31,-120.99C407.9,-112.57 441.6,-99.43 469.03,-88.73"/>
<polygon fill="#63b8ff" stroke="#63b8ff" points="470.39,-91.96 478.44,-85.06 467.85,-85.44 470.39,-91.96"/>
</a>
</g>
</g>
<!-- Node29 -->
<g id="Node000029" class="node">
<title>Node29</title>
<g id="a_Node000029"><a xlink:title=" ">
<polygon fill="#e0e0e0" stroke="#999999" points="638.5,-79.5 598.5,-79.5 598.5,-60.5 638.5,-60.5 638.5,-79.5"/>
<text text-anchor="middle" x="618.5" y="-67.5" font-family="Helvetica,sans-Serif" font-size="10.00">span</text>
</a>
</g>
</g>
<!-- Node2&#45;&gt;Node29 -->
<g id="edge12_Node000002_Node000029" class="edge">
<title>Node2&#45;&gt;Node29</title>
<g id="a_edge12_Node000002_Node000029"><a xlink:title=" ">
<path fill="none" stroke="#63b8ff" d="M409.33,-122.03C465.04,-112.5 556.74,-95.95 589.5,-85 590.72,-84.59 591.96,-84.14 593.2,-83.66"/>
<polygon fill="#63b8ff" stroke="#63b8ff" points="594.77,-86.8 602.55,-79.6 591.98,-80.38 594.77,-86.8"/>
</a>
</g>
</g>
<!-- Node17 -->
<g id="Node000017" class="node">
<title>Node17</title>
<g id="a_Node000017"><a xlink:title=" ">
<polygon fill="#e0e0e0" stroke="#999999" points="730,-79.5 657,-79.5 657,-60.5 730,-60.5 730,-79.5"/>
<text text-anchor="middle" x="693.5" y="-67.5" font-family="Helvetica,sans-Serif" font-size="10.00">string_view</text>
</a>
</g>
</g>
<!-- Node2&#45;&gt;Node17 -->
<g id="edge13_Node000002_Node000017" class="edge">
<title>Node2&#45;&gt;Node17</title>
<g id="a_edge13_Node000002_Node000017"><a xlink:title=" ">
<path fill="none" stroke="#63b8ff" d="M409.29,-122.45C412.41,-121.96 415.5,-121.47 418.5,-121 520.28,-104.99 547.08,-108.05 647.5,-85 650.86,-84.23 654.33,-83.34 657.78,-82.4"/>
<polygon fill="#63b8ff" stroke="#63b8ff" points="658.76,-85.76 667.4,-79.63 656.82,-79.04 658.76,-85.76"/>
</a>
</g>
</g>
<!-- Node30 -->
<g id="Node000030" class="node">
<title>Node30</title>
<g id="a_Node000030"><a xlink:title=" ">
<polygon fill="#e0e0e0" stroke="#999999" points="785,-79.5 748,-79.5 748,-60.5 785,-60.5 785,-79.5"/>
<text text-anchor="middle" x="766.5" y="-67.5" font-family="Helvetica,sans-Serif" font-size="10.00">zll.h</text>
</a>
</g>
</g>
<!-- Node2&#45;&gt;Node30 -->
<g id="edge14_Node000002_Node000030" class="edge">
<title>Node2&#45;&gt;Node30</title>
<g id="a_edge14_Node000002_Node000030"><a xlink:title=" ">
<path fill="none" stroke="#63b8ff" d="M409.27,-122.3C412.39,-121.84 415.49,-121.41 418.5,-121 560.78,-101.83 602.14,-126.74 739.5,-85 740.72,-84.63 741.95,-84.2 743.18,-83.74"/>
<polygon fill="#63b8ff" stroke="#63b8ff" points="744.68,-86.9 752.34,-79.57 741.79,-80.52 744.68,-86.9"/>
</a>
</g>
</g>
<!-- Node10&#45;&gt;Node3 -->
<g id="edge4_Node000010_Node000003" class="edge">
<title>Node10&#45;&gt;Node3</title>
<g id="a_edge4_Node000010_Node000003"><a xlink:title=" ">
<path fill="none" stroke="#63b8ff" d="M266.22,-60.49C273.8,-58.54 281.91,-56.58 289.5,-55 371.95,-37.83 469.23,-23.79 525,-16.33"/>
<polygon fill="#63b8ff" stroke="#63b8ff" points="525.8,-19.75 535.26,-14.97 524.88,-12.81 525.8,-19.75"/>
</a>
</g>
</g>
<!-- Node10&#45;&gt;Node19 -->
<g id="edge5_Node000010_Node000019" class="edge">
<title>Node10&#45;&gt;Node19</title>
<g id="a_edge5_Node000010_Node000019"><a xlink:title=" ">
<path fill="none" stroke="#63b8ff" d="M230.19,-60.37C224.92,-51.81 216.71,-38.47 210.11,-27.74"/>
<polygon fill="#63b8ff" stroke="#63b8ff" points="213.06,-25.85 204.83,-19.17 207.09,-29.52 213.06,-25.85"/>
</a>
</g>
</g>
<!-- Node23&#45;&gt;Node24 -->
<g id="edge7_Node000023_Node000024" class="edge">
<title>Node23&#45;&gt;Node24</title>
<g id="a_edge7_Node000023_Node000024"><a xlink:title=" ">
<path fill="none" stroke="#63b8ff" d="M54.4,-60.37C60.25,-51.81 69.37,-38.47 76.71,-27.74"/>
<polygon fill="#63b8ff" stroke="#63b8ff" points="79.82,-29.4 82.57,-19.17 74.04,-25.45 79.82,-29.4"/>
</a>
</g>
</g>
<!-- Node31&#45;&gt;Node23 -->
<g id="edge16_Node000031_Node000023" class="edge">
<title>Node31&#45;&gt;Node23</title>
<g id="a_edge16_Node000031_Node000023"><a xlink:title=" ">
<path fill="none" stroke="#63b8ff" d="M142.27,-120.87C124.23,-111.28 94.88,-95.67 73.82,-84.47"/>
<polygon fill="#63b8ff" stroke="#63b8ff" points="75.27,-81.27 64.8,-79.67 71.98,-87.45 75.27,-81.27"/>
</a>
</g>
</g>
</g>
</svg>
