<?xml version="1.0" encoding="UTF-8" standalone="no"?>
<!DOCTYPE svg PUBLIC "-//W3C//DTD SVG 1.1//EN"
 "http://www.w3.org/Graphics/SVG/1.1/DTD/svg11.dtd">
<!-- Generated by graphviz version 2.43.0 (0)
 -->
<!-- Title: src/brd/proto3/board.cpp Pages: 1 -->
<svg width="1838pt" height="386pt"
 viewBox="0.00 0.00 1838.09 386.00" xmlns="http://www.w3.org/2000/svg" xmlns:xlink="http://www.w3.org/1999/xlink">
<g id="graph0" class="graph" transform="scale(1 1) rotate(0) translate(4 382)">
<title>src/brd/proto3/board.cpp</title>
<polygon fill="white" stroke="transparent" points="-4,4 -4,-382 1834.09,-382 1834.09,4 -4,4"/>
<!-- Node1 -->
<g id="node1" class="node">
<title>Node1</title>
<g id="a_node1"><a xlink:title=" ">
<polygon fill="#bfbfbf" stroke="black" points="876.09,-358.5 876.09,-377.5 1011.09,-377.5 1011.09,-358.5 876.09,-358.5"/>
<text text-anchor="middle" x="943.59" y="-365.5" font-family="Helvetica,sans-Serif" font-size="10.00">src/brd/proto3/board.cpp</text>
</a>
</g>
</g>
<!-- Node2 -->
<g id="node2" class="node">
<title>Node2</title>
<g id="a_node2"><a xlink:href="brd_8hpp.html" target="_top" xlink:title=" ">
<polygon fill="white" stroke="black" points="301.09,-302.5 301.09,-321.5 354.09,-321.5 354.09,-302.5 301.09,-302.5"/>
<text text-anchor="middle" x="327.59" y="-309.5" font-family="Helvetica,sans-Serif" font-size="10.00">brd.hpp</text>
</a>
</g>
</g>
<!-- Node1&#45;&gt;Node2 -->
<g id="edge1" class="edge">
<title>Node1&#45;&gt;Node2</title>
<path fill="none" stroke="midnightblue" d="M875.97,-364.73C768.15,-360.44 550.84,-349 368.59,-322 367.29,-321.81 365.98,-321.6 364.65,-321.37"/>
<polygon fill="midnightblue" stroke="midnightblue" points="364.87,-317.86 354.4,-319.44 363.58,-324.73 364.87,-317.86"/>
</g>
<!-- Node16 -->
<g id="node7" class="node">
<title>Node16</title>
<g id="a_node7"><a xlink:href="drivers_8hpp.html" target="_top" xlink:title=" ">
<polygon fill="white" stroke="black" points="284.09,-246.5 284.09,-265.5 379.09,-265.5 379.09,-246.5 284.09,-246.5"/>
<text text-anchor="middle" x="331.59" y="-253.5" font-family="Helvetica,sans-Serif" font-size="10.00">core/drivers.hpp</text>
</a>
</g>
</g>
<!-- Node1&#45;&gt;Node16 -->
<g id="edge18" class="edge">
<title>Node1&#45;&gt;Node16</title>
<path fill="none" stroke="midnightblue" d="M875.93,-366.84C749.99,-365.67 484.84,-358.74 401.59,-322 377.75,-311.48 356.8,-289.38 344.18,-273.88"/>
<polygon fill="midnightblue" stroke="midnightblue" points="346.66,-271.38 337.75,-265.66 341.15,-275.69 346.66,-271.38"/>
</g>
<!-- Node18 -->
<g id="node9" class="node">
<title>Node18</title>
<g id="a_node9"><a xlink:title=" ">
<polygon fill="white" stroke="#bfbfbf" points="1521.59,-56.5 1521.59,-75.5 1625.59,-75.5 1625.59,-56.5 1521.59,-56.5"/>
<text text-anchor="middle" x="1573.59" y="-63.5" font-family="Helvetica,sans-Serif" font-size="10.00">emlabcpp/result.h</text>
</a>
</g>
</g>
<!-- Node1&#45;&gt;Node18 -->
<g id="edge77" class="edge">
<title>Node1&#45;&gt;Node18</title>
<path fill="none" stroke="midnightblue" d="M1011.47,-365.02C1117.41,-359.65 1326.43,-339.71 1485.59,-266 1548.52,-236.86 1568.83,-211.16 1581.59,-143 1585.21,-123.69 1581.96,-101.3 1578.59,-85.84"/>
<polygon fill="midnightblue" stroke="midnightblue" points="1581.95,-84.86 1576.2,-75.96 1575.15,-86.5 1581.95,-84.86"/>
</g>
<!-- Node21 -->
<g id="node12" class="node">
<title>Node21</title>
<g id="a_node12"><a xlink:href="default_8hpp.html" target="_top" xlink:title=" ">
<polygon fill="white" stroke="black" points="5.59,-302.5 5.59,-321.5 95.59,-321.5 95.59,-302.5 5.59,-302.5"/>
<text text-anchor="middle" x="50.59" y="-309.5" font-family="Helvetica,sans-Serif" font-size="10.00">cfg/default.hpp</text>
</a>
</g>
</g>
<!-- Node1&#45;&gt;Node21 -->
<g id="edge14" class="edge">
<title>Node1&#45;&gt;Node21</title>
<path fill="none" stroke="midnightblue" d="M875.74,-362.9C705.35,-352.59 261.95,-325.78 105.91,-316.34"/>
<polygon fill="midnightblue" stroke="midnightblue" points="105.8,-312.83 95.61,-315.72 105.38,-319.82 105.8,-312.83"/>
</g>
<!-- Node22 -->
<g id="node13" class="node">
<title>Node22</title>
<g id="a_node13"><a xlink:href="cnv_2setup_8hpp.html" target="_top" xlink:title=" ">
<polygon fill="white" stroke="black" points="1547.09,-302.5 1547.09,-321.5 1632.09,-321.5 1632.09,-302.5 1547.09,-302.5"/>
<text text-anchor="middle" x="1589.59" y="-309.5" font-family="Helvetica,sans-Serif" font-size="10.00">cnv/setup.hpp</text>
</a>
</g>
</g>
<!-- Node1&#45;&gt;Node22 -->
<g id="edge17" class="edge">
<title>Node1&#45;&gt;Node22</title>
<path fill="none" stroke="midnightblue" d="M1011.34,-363.6C1121.07,-357.69 1344.4,-344.01 1532.59,-322 1534.05,-321.83 1535.53,-321.65 1537.03,-321.46"/>
<polygon fill="midnightblue" stroke="midnightblue" points="1537.56,-324.92 1547,-320.11 1536.62,-317.98 1537.56,-324.92"/>
</g>
<!-- Node23 -->
<g id="node14" class="node">
<title>Node23</title>
<g id="a_node14"><a xlink:href="globals_8hpp.html" target="_top" xlink:title=" ">
<polygon fill="white" stroke="black" points="1650.09,-302.5 1650.09,-321.5 1747.09,-321.5 1747.09,-302.5 1650.09,-302.5"/>
<text text-anchor="middle" x="1698.59" y="-309.5" font-family="Helvetica,sans-Serif" font-size="10.00">core/globals.hpp</text>
</a>
</g>
</g>
<!-- Node1&#45;&gt;Node23 -->
<g id="edge19" class="edge">
<title>Node1&#45;&gt;Node23</title>
<path fill="none" stroke="midnightblue" d="M1011.15,-364.72C1134.22,-360.1 1403.31,-347.93 1639.65,-322.13"/>
<polygon fill="midnightblue" stroke="midnightblue" points="1640.26,-325.58 1649.81,-321 1639.49,-318.62 1640.26,-325.58"/>
</g>
<!-- Node25 -->
<g id="node16" class="node">
<title>Node25</title>
<g id="a_node16"><a xlink:href="adc__pooler__def_8hpp.html" target="_top" xlink:title=" ">
<polygon fill="white" stroke="black" points="747.59,-302.5 747.59,-321.5 877.59,-321.5 877.59,-302.5 747.59,-302.5"/>
<text text-anchor="middle" x="812.59" y="-309.5" font-family="Helvetica,sans-Serif" font-size="10.00">drv/adc_pooler_def.hpp</text>
</a>
</g>
</g>
<!-- Node1&#45;&gt;Node25 -->
<g id="edge21" class="edge">
<title>Node1&#45;&gt;Node25</title>
<path fill="none" stroke="midnightblue" d="M922.83,-358.44C901.27,-349.56 867.33,-335.56 842.8,-325.45"/>
<polygon fill="midnightblue" stroke="midnightblue" points="843.83,-322.09 833.25,-321.52 841.16,-328.56 843.83,-322.09"/>
</g>
<!-- Node28 -->
<g id="node19" class="node">
<title>Node28</title>
<g id="a_node19"><a xlink:href="platform_8hpp.html" target="_top" xlink:title=" ">
<polygon fill="white" stroke="red" points="875.59,-185 875.59,-204 955.59,-204 955.59,-185 875.59,-185"/>
<text text-anchor="middle" x="915.59" y="-192" font-family="Helvetica,sans-Serif" font-size="10.00">platform.hpp</text>
</a>
</g>
</g>
<!-- Node1&#45;&gt;Node28 -->
<g id="edge69" class="edge">
<title>Node1&#45;&gt;Node28</title>
<path fill="none" stroke="midnightblue" d="M942.16,-358.26C937.82,-331.65 924.69,-251.21 918.67,-214.34"/>
<polygon fill="midnightblue" stroke="midnightblue" points="922.05,-213.32 916.98,-204.02 915.14,-214.45 922.05,-213.32"/>
</g>
<!-- Node35 -->
<g id="node22" class="node">
<title>Node35</title>
<g id="a_node22"><a xlink:href="clock_8hpp.html" target="_top" xlink:title=" ">
<polygon fill="white" stroke="black" points="183.59,-246.5 183.59,-265.5 265.59,-265.5 265.59,-246.5 183.59,-246.5"/>
<text text-anchor="middle" x="224.59" y="-253.5" font-family="Helvetica,sans-Serif" font-size="10.00">drv/clock.hpp</text>
</a>
</g>
</g>
<!-- Node1&#45;&gt;Node35 -->
<g id="edge32" class="edge">
<title>Node1&#45;&gt;Node35</title>
<path fill="none" stroke="midnightblue" d="M876.07,-364.96C720.08,-359.88 343.95,-345.36 291.59,-322 268.33,-311.62 248.38,-289.49 236.44,-273.95"/>
<polygon fill="midnightblue" stroke="midnightblue" points="239.12,-271.68 230.37,-265.69 233.48,-275.82 239.12,-271.68"/>
</g>
<!-- Node36 -->
<g id="node23" class="node">
<title>Node36</title>
<g id="a_node23"><a xlink:href="cobs__uart_8hpp.html" target="_top" xlink:title=" ">
<polygon fill="white" stroke="black" points="1372.59,-246.5 1372.59,-265.5 1476.59,-265.5 1476.59,-246.5 1372.59,-246.5"/>
<text text-anchor="middle" x="1424.59" y="-253.5" font-family="Helvetica,sans-Serif" font-size="10.00">drv/cobs_uart.hpp</text>
</a>
</g>
</g>
<!-- Node1&#45;&gt;Node36 -->
<g id="edge37" class="edge">
<title>Node1&#45;&gt;Node36</title>
<path fill="none" stroke="midnightblue" d="M980.93,-358.46C1067.51,-338.66 1281.78,-289.66 1377.31,-267.81"/>
<polygon fill="midnightblue" stroke="midnightblue" points="1378.3,-271.18 1387.27,-265.53 1376.74,-264.35 1378.3,-271.18"/>
</g>
<!-- Node40 -->
<g id="node26" class="node">
<title>Node40</title>
<g id="a_node26"><a xlink:href="dts__temp_8hpp.html" target="_top" xlink:title=" ">
<polygon fill="white" stroke="black" points="971.59,-302.5 971.59,-321.5 1073.59,-321.5 1073.59,-302.5 971.59,-302.5"/>
<text text-anchor="middle" x="1022.59" y="-309.5" font-family="Helvetica,sans-Serif" font-size="10.00">drv/dts_temp.hpp</text>
</a>
</g>
</g>
<!-- Node1&#45;&gt;Node40 -->
<g id="edge46" class="edge">
<title>Node1&#45;&gt;Node40</title>
<path fill="none" stroke="midnightblue" d="M956.28,-358.32C968.49,-349.98 987.17,-337.21 1001.59,-327.35"/>
<polygon fill="midnightblue" stroke="midnightblue" points="1003.65,-330.19 1009.93,-321.65 999.7,-324.41 1003.65,-330.19"/>
</g>
<!-- Node41 -->
<g id="node27" class="node">
<title>Node41</title>
<g id="a_node27"><a xlink:href="util_8hpp.html" target="_top" xlink:title=" ">
<polygon fill="white" stroke="red" points="1047.59,-246.5 1047.59,-265.5 1115.59,-265.5 1115.59,-246.5 1047.59,-246.5"/>
<text text-anchor="middle" x="1081.59" y="-253.5" font-family="Helvetica,sans-Serif" font-size="10.00">fw/util.hpp</text>
</a>
</g>
</g>
<!-- Node1&#45;&gt;Node41 -->
<g id="edge68" class="edge">
<title>Node1&#45;&gt;Node41</title>
<path fill="none" stroke="midnightblue" d="M1011.28,-361.88C1037.95,-356.15 1066.1,-344.67 1082.59,-322 1092.23,-308.75 1090.61,-289.62 1087.41,-275.54"/>
<polygon fill="midnightblue" stroke="midnightblue" points="1090.69,-274.27 1084.68,-265.55 1083.94,-276.12 1090.69,-274.27"/>
</g>
<!-- Node44 -->
<g id="node28" class="node">
<title>Node44</title>
<g id="a_node28"><a xlink:href="hbridge_8hpp.html" target="_top" xlink:title=" ">
<polygon fill="white" stroke="black" points="1134.09,-246.5 1134.09,-265.5 1227.09,-265.5 1227.09,-246.5 1134.09,-246.5"/>
<text text-anchor="middle" x="1180.59" y="-253.5" font-family="Helvetica,sans-Serif" font-size="10.00">drv/hbridge.hpp</text>
</a>
</g>
</g>
<!-- Node1&#45;&gt;Node44 -->
<g id="edge50" class="edge">
<title>Node1&#45;&gt;Node44</title>
<path fill="none" stroke="midnightblue" d="M991.85,-358.44C1023.92,-351.5 1066.27,-339.9 1100.59,-322 1125.22,-309.15 1149.4,-287.98 1164.62,-273.31"/>
<polygon fill="midnightblue" stroke="midnightblue" points="1167.44,-275.44 1172.09,-265.92 1162.52,-270.46 1167.44,-275.44"/>
</g>
<!-- Node45 -->
<g id="node29" class="node">
<title>Node45</title>
<g id="a_node29"><a xlink:href="leds_8hpp.html" target="_top" xlink:title=" ">
<polygon fill="white" stroke="black" points="411.09,-302.5 411.09,-321.5 488.09,-321.5 488.09,-302.5 411.09,-302.5"/>
<text text-anchor="middle" x="449.59" y="-309.5" font-family="Helvetica,sans-Serif" font-size="10.00">drv/leds.hpp</text>
</a>
</g>
</g>
<!-- Node1&#45;&gt;Node45 -->
<g id="edge57" class="edge">
<title>Node1&#45;&gt;Node45</title>
<path fill="none" stroke="midnightblue" d="M875.94,-359.6C774.9,-348.56 587,-328.02 498.32,-318.33"/>
<polygon fill="midnightblue" stroke="midnightblue" points="498.58,-314.83 488.26,-317.23 497.82,-321.79 498.58,-314.83"/>
</g>
<!-- Node48 -->
<g id="node31" class="node">
<title>Node48</title>
<g id="a_node31"><a xlink:href="quad__encoder_8hpp.html" target="_top" xlink:title=" ">
<polygon fill="white" stroke="black" points="473.59,-246.5 473.59,-265.5 597.59,-265.5 597.59,-246.5 473.59,-246.5"/>
<text text-anchor="middle" x="535.59" y="-253.5" font-family="Helvetica,sans-Serif" font-size="10.00">drv/quad_encoder.hpp</text>
</a>
</g>
</g>
<!-- Node1&#45;&gt;Node48 -->
<g id="edge65" class="edge">
<title>Node1&#45;&gt;Node48</title>
<path fill="none" stroke="midnightblue" d="M898.91,-358.45C857.19,-350.17 793.3,-336.73 738.59,-322 678.31,-305.77 609.32,-282.7 569.28,-268.86"/>
<polygon fill="midnightblue" stroke="midnightblue" points="570.34,-265.52 559.75,-265.55 568.04,-272.13 570.34,-265.52"/>
</g>
<!-- Node49 -->
<g id="node32" class="node">
<title>Node49</title>
<g id="a_node32"><a xlink:title=" ">
<polygon fill="white" stroke="#bfbfbf" points="1765.09,-302.5 1765.09,-321.5 1830.09,-321.5 1830.09,-302.5 1765.09,-302.5"/>
<text text-anchor="middle" x="1797.59" y="-309.5" font-family="Helvetica,sans-Serif" font-size="10.00">setup.hpp</text>
</a>
</g>
</g>
<!-- Node1&#45;&gt;Node49 -->
<g id="edge70" class="edge">
<title>Node1&#45;&gt;Node49</title>
<path fill="none" stroke="midnightblue" d="M1011.13,-366.92C1149.28,-365.97 1474.16,-359.65 1755.03,-322"/>
<polygon fill="midnightblue" stroke="midnightblue" points="1755.56,-325.46 1765,-320.65 1754.62,-318.52 1755.56,-325.46"/>
</g>
<!-- Node50 -->
<g id="node33" class="node">
<title>Node50</title>
<g id="a_node33"><a xlink:href="central__sentry_8hpp.html" target="_top" xlink:title=" ">
<polygon fill="white" stroke="black" points="653.59,-246.5 653.59,-265.5 781.59,-265.5 781.59,-246.5 653.59,-246.5"/>
<text text-anchor="middle" x="717.59" y="-253.5" font-family="Helvetica,sans-Serif" font-size="10.00">sntr/central_sentry.hpp</text>
</a>
</g>
</g>
<!-- Node1&#45;&gt;Node50 -->
<g id="edge71" class="edge">
<title>Node1&#45;&gt;Node50</title>
<path fill="none" stroke="midnightblue" d="M938.46,-358.38C929.65,-344.37 910.31,-316.72 886.59,-302 858.08,-284.3 822.68,-273.49 791.66,-266.93"/>
<polygon fill="midnightblue" stroke="midnightblue" points="792.25,-263.48 781.75,-264.95 790.87,-270.34 792.25,-263.48"/>
</g>
<!-- Node3 -->
<g id="node3" class="node">
<title>Node3</title>
<g id="a_node3"><a xlink:href="map_8hpp.html" target="_top" xlink:title=" ">
<polygon fill="white" stroke="red" points="12.09,-246.5 12.09,-265.5 89.09,-265.5 89.09,-246.5 12.09,-246.5"/>
<text text-anchor="middle" x="50.59" y="-253.5" font-family="Helvetica,sans-Serif" font-size="10.00">cfg/map.hpp</text>
</a>
</g>
</g>
<!-- Node2&#45;&gt;Node3 -->
<g id="edge2" class="edge">
<title>Node2&#45;&gt;Node3</title>
<path fill="none" stroke="midnightblue" d="M301.03,-305.82C254.66,-296.78 158.29,-278 99.54,-266.54"/>
<polygon fill="midnightblue" stroke="midnightblue" points="99.87,-263.04 89.39,-264.56 98.53,-269.91 99.87,-263.04"/>
</g>
<!-- Node2&#45;&gt;Node16 -->
<g id="edge7" class="edge">
<title>Node2&#45;&gt;Node16</title>
<path fill="none" stroke="midnightblue" d="M328.25,-302.08C328.78,-295.01 329.53,-284.86 330.18,-275.99"/>
<polygon fill="midnightblue" stroke="midnightblue" points="333.69,-275.98 330.94,-265.75 326.71,-275.47 333.69,-275.98"/>
</g>
<!-- Node4 -->
<g id="node4" class="node">
<title>Node4</title>
<g id="a_node4"><a xlink:href="base_2base_8hpp.html" target="_top" xlink:title=" ">
<polygon fill="white" stroke="red" points="167.09,-56.5 167.09,-75.5 254.09,-75.5 254.09,-56.5 167.09,-56.5"/>
<text text-anchor="middle" x="210.59" y="-63.5" font-family="Helvetica,sans-Serif" font-size="10.00">base/base.hpp</text>
</a>
</g>
</g>
<!-- Node3&#45;&gt;Node4 -->
<g id="edge3" class="edge">
<title>Node3&#45;&gt;Node4</title>
<path fill="none" stroke="midnightblue" d="M59.61,-246.27C68.68,-237.37 82.96,-223.05 94.59,-210 133.95,-165.83 177.03,-110.78 197.88,-83.67"/>
<polygon fill="midnightblue" stroke="midnightblue" points="200.75,-85.67 204.06,-75.61 195.2,-81.42 200.75,-85.67"/>
</g>
<!-- Node10 -->
<g id="node6" class="node">
<title>Node10</title>
<g id="a_node6"><a xlink:href="key_8hpp.html" target="_top" xlink:title=" ">
<polygon fill="white" stroke="black" points="15.09,-185 15.09,-204 86.09,-204 86.09,-185 15.09,-185"/>
<text text-anchor="middle" x="50.59" y="-192" font-family="Helvetica,sans-Serif" font-size="10.00">cfg/key.hpp</text>
</a>
</g>
</g>
<!-- Node3&#45;&gt;Node10 -->
<g id="edge5" class="edge">
<title>Node3&#45;&gt;Node10</title>
<path fill="none" stroke="midnightblue" d="M50.59,-246.48C50.59,-238.08 50.59,-224.98 50.59,-214.16"/>
<polygon fill="midnightblue" stroke="midnightblue" points="54.09,-214.01 50.59,-204.01 47.09,-214.01 54.09,-214.01"/>
</g>
<!-- Node6 -->
<g id="node5" class="node">
<title>Node6</title>
<g id="a_node5"><a xlink:title=" ">
<polygon fill="white" stroke="#bfbfbf" points="185.59,-0.5 185.59,-19.5 235.59,-19.5 235.59,-0.5 185.59,-0.5"/>
<text text-anchor="middle" x="210.59" y="-7.5" font-family="Helvetica,sans-Serif" font-size="10.00">cstdint</text>
</a>
</g>
</g>
<!-- Node4&#45;&gt;Node6 -->
<g id="edge4" class="edge">
<title>Node4&#45;&gt;Node6</title>
<path fill="none" stroke="midnightblue" d="M210.59,-56.08C210.59,-49.01 210.59,-38.86 210.59,-29.99"/>
<polygon fill="midnightblue" stroke="midnightblue" points="214.09,-29.75 210.59,-19.75 207.09,-29.75 214.09,-29.75"/>
</g>
<!-- Node10&#45;&gt;Node6 -->
<g id="edge6" class="edge">
<title>Node10&#45;&gt;Node6</title>
<path fill="none" stroke="midnightblue" d="M51.42,-184.83C54.14,-161.07 64.83,-94.12 101.59,-56 121.27,-35.59 151.56,-24.09 175.22,-17.84"/>
<polygon fill="midnightblue" stroke="midnightblue" points="176.35,-21.17 185.23,-15.39 174.69,-14.36 176.35,-21.17"/>
</g>
<!-- Node17 -->
<g id="node8" class="node">
<title>Node17</title>
<g id="a_node8"><a xlink:href="interfaces_8hpp.html" target="_top" xlink:title=" ">
<polygon fill="white" stroke="black" points="592.09,-118 592.09,-137 697.09,-137 697.09,-118 592.09,-118"/>
<text text-anchor="middle" x="644.59" y="-125" font-family="Helvetica,sans-Serif" font-size="10.00">drv/interfaces.hpp</text>
</a>
</g>
</g>
<!-- Node16&#45;&gt;Node17 -->
<g id="edge8" class="edge">
<title>Node16&#45;&gt;Node17</title>
<path fill="none" stroke="midnightblue" d="M334.9,-246.28C341.51,-230.17 357.93,-195.85 383.59,-179 415.56,-158.01 515.54,-143.03 582.06,-135.08"/>
<polygon fill="midnightblue" stroke="midnightblue" points="582.5,-138.55 592.03,-133.91 581.69,-131.6 582.5,-138.55"/>
</g>
<!-- Node20 -->
<g id="node11" class="node">
<title>Node20</title>
<g id="a_node11"><a xlink:title=" ">
<polygon fill="white" stroke="#bfbfbf" points="464.09,-179.5 464.09,-209.5 597.09,-209.5 597.09,-179.5 464.09,-179.5"/>
<text text-anchor="start" x="472.09" y="-197.5" font-family="Helvetica,sans-Serif" font-size="10.00">emlabcpp/experimental</text>
<text text-anchor="middle" x="530.59" y="-186.5" font-family="Helvetica,sans-Serif" font-size="10.00">/function_view.h</text>
</a>
</g>
</g>
<!-- Node16&#45;&gt;Node20 -->
<g id="edge13" class="edge">
<title>Node16&#45;&gt;Node20</title>
<path fill="none" stroke="midnightblue" d="M360.1,-246.48C389.7,-237.63 436.78,-223.55 473.98,-212.43"/>
<polygon fill="midnightblue" stroke="midnightblue" points="475.11,-215.74 483.69,-209.52 473.11,-209.03 475.11,-215.74"/>
</g>
<!-- Node17&#45;&gt;Node4 -->
<g id="edge9" class="edge">
<title>Node17&#45;&gt;Node4</title>
<path fill="none" stroke="midnightblue" d="M591.81,-119.26C508.64,-107.86 347.98,-85.84 264.27,-74.36"/>
<polygon fill="midnightblue" stroke="midnightblue" points="264.59,-70.87 254.2,-72.98 263.64,-77.81 264.59,-70.87"/>
</g>
<!-- Node17&#45;&gt;Node6 -->
<g id="edge10" class="edge">
<title>Node17&#45;&gt;Node6</title>
<path fill="none" stroke="midnightblue" d="M612.33,-117.91C532.82,-96.76 328.02,-42.25 245.66,-20.33"/>
<polygon fill="midnightblue" stroke="midnightblue" points="246.35,-16.89 235.78,-17.7 244.55,-23.66 246.35,-16.89"/>
</g>
<!-- Node17&#45;&gt;Node18 -->
<g id="edge11" class="edge">
<title>Node17&#45;&gt;Node18</title>
<path fill="none" stroke="midnightblue" d="M697.32,-122.09C734.09,-119.07 784.32,-115.08 828.59,-112 1081.56,-94.39 1383.13,-77.41 1511.17,-70.38"/>
<polygon fill="midnightblue" stroke="midnightblue" points="1511.39,-73.88 1521.18,-69.83 1511.01,-66.89 1511.39,-73.88"/>
</g>
<!-- Node19 -->
<g id="node10" class="node">
<title>Node19</title>
<g id="a_node10"><a xlink:title=" ">
<polygon fill="white" stroke="#bfbfbf" points="953.59,-56.5 953.59,-75.5 993.59,-75.5 993.59,-56.5 953.59,-56.5"/>
<text text-anchor="middle" x="973.59" y="-63.5" font-family="Helvetica,sans-Serif" font-size="10.00">span</text>
</a>
</g>
</g>
<!-- Node17&#45;&gt;Node19 -->
<g id="edge12" class="edge">
<title>Node17&#45;&gt;Node19</title>
<path fill="none" stroke="midnightblue" d="M691.73,-117.98C760.48,-105.54 886.28,-82.79 943.65,-72.41"/>
<polygon fill="midnightblue" stroke="midnightblue" points="944.32,-75.85 953.54,-70.63 943.08,-68.96 944.32,-75.85"/>
</g>
<!-- Node21&#45;&gt;Node3 -->
<g id="edge16" class="edge">
<title>Node21&#45;&gt;Node3</title>
<path fill="none" stroke="midnightblue" d="M50.59,-302.08C50.59,-295.01 50.59,-284.86 50.59,-275.99"/>
<polygon fill="midnightblue" stroke="midnightblue" points="54.09,-275.75 50.59,-265.75 47.09,-275.75 54.09,-275.75"/>
</g>
<!-- Node21&#45;&gt;Node10 -->
<g id="edge15" class="edge">
<title>Node21&#45;&gt;Node10</title>
<path fill="none" stroke="midnightblue" d="M36.22,-302.33C24.71,-294.47 9.4,-281.72 2.59,-266 -0.94,-257.84 -0.71,-254.25 2.59,-246 8.18,-232 19.71,-219.65 30.07,-210.68"/>
<polygon fill="midnightblue" stroke="midnightblue" points="32.44,-213.26 37.99,-204.23 28.03,-207.83 32.44,-213.26"/>
</g>
<!-- Node24 -->
<g id="node15" class="node">
<title>Node24</title>
<g id="a_node15"><a xlink:title=" ">
<polygon fill="white" stroke="#bfbfbf" points="1624.09,-246.5 1624.09,-265.5 1773.09,-265.5 1773.09,-246.5 1624.09,-246.5"/>
<text text-anchor="middle" x="1698.59" y="-253.5" font-family="Helvetica,sans-Serif" font-size="10.00">emlabcpp/static_function.h</text>
</a>
</g>
</g>
<!-- Node23&#45;&gt;Node24 -->
<g id="edge20" class="edge">
<title>Node23&#45;&gt;Node24</title>
<path fill="none" stroke="midnightblue" d="M1698.59,-302.08C1698.59,-295.01 1698.59,-284.86 1698.59,-275.99"/>
<polygon fill="midnightblue" stroke="midnightblue" points="1702.09,-275.75 1698.59,-265.75 1695.09,-275.75 1702.09,-275.75"/>
</g>
<!-- Node25&#45;&gt;Node17 -->
<g id="edge31" class="edge">
<title>Node25&#45;&gt;Node17</title>
<path fill="none" stroke="midnightblue" d="M750.97,-302.45C708.61,-295.16 657.73,-283.13 644.59,-266 617.91,-231.23 629.5,-175.59 638.19,-146.92"/>
<polygon fill="midnightblue" stroke="midnightblue" points="641.64,-147.63 641.4,-137.03 634.98,-145.46 641.64,-147.63"/>
</g>
<!-- Node26 -->
<g id="node17" class="node">
<title>Node26</title>
<g id="a_node17"><a xlink:href="adc__pooler_8hpp.html" target="_top" xlink:title=" ">
<polygon fill="white" stroke="black" points="1245.09,-246.5 1245.09,-265.5 1354.09,-265.5 1354.09,-246.5 1245.09,-246.5"/>
<text text-anchor="middle" x="1299.59" y="-253.5" font-family="Helvetica,sans-Serif" font-size="10.00">drv/adc_pooler.hpp</text>
</a>
</g>
</g>
<!-- Node25&#45;&gt;Node26 -->
<g id="edge22" class="edge">
<title>Node25&#45;&gt;Node26</title>
<path fill="none" stroke="midnightblue" d="M877.89,-304.74C959.02,-296.81 1101.96,-282.34 1234.84,-266.06"/>
<polygon fill="midnightblue" stroke="midnightblue" points="1235.3,-269.53 1244.79,-264.83 1234.44,-262.58 1235.3,-269.53"/>
</g>
<!-- Node27 -->
<g id="node18" class="node">
<title>Node27</title>
<g id="a_node18"><a xlink:href="drv_2callbacks_8hpp.html" target="_top" xlink:title=" ">
<polygon fill="white" stroke="black" points="1087.59,-185 1087.59,-204 1189.59,-204 1189.59,-185 1087.59,-185"/>
<text text-anchor="middle" x="1138.59" y="-192" font-family="Helvetica,sans-Serif" font-size="10.00">drv/callbacks.hpp</text>
</a>
</g>
</g>
<!-- Node26&#45;&gt;Node27 -->
<g id="edge23" class="edge">
<title>Node26&#45;&gt;Node27</title>
<path fill="none" stroke="midnightblue" d="M1276.52,-246.48C1248.91,-236.27 1202.47,-219.11 1171.19,-207.55"/>
<polygon fill="midnightblue" stroke="midnightblue" points="1172.21,-204.19 1161.62,-204.01 1169.78,-210.76 1172.21,-204.19"/>
</g>
<!-- Node26&#45;&gt;Node28 -->
<g id="edge27" class="edge">
<title>Node26&#45;&gt;Node28</title>
<path fill="none" stroke="midnightblue" d="M1244.98,-246.54C1170.48,-234.99 1038.02,-214.47 965.85,-203.29"/>
<polygon fill="midnightblue" stroke="midnightblue" points="966.08,-199.78 955.66,-201.71 965,-206.7 966.08,-199.78"/>
</g>
<!-- Node30 -->
<g id="node20" class="node">
<title>Node30</title>
<g id="a_node20"><a xlink:href="sentry_8hpp.html" target="_top" xlink:title=" ">
<polygon fill="white" stroke="red" points="1208.09,-185 1208.09,-204 1297.09,-204 1297.09,-185 1208.09,-185"/>
<text text-anchor="middle" x="1252.59" y="-192" font-family="Helvetica,sans-Serif" font-size="10.00">sntr/sentry.hpp</text>
</a>
</g>
</g>
<!-- Node26&#45;&gt;Node30 -->
<g id="edge29" class="edge">
<title>Node26&#45;&gt;Node30</title>
<path fill="none" stroke="midnightblue" d="M1292.86,-246.48C1285.81,-237.55 1274.56,-223.31 1265.74,-212.14"/>
<polygon fill="midnightblue" stroke="midnightblue" points="1268.26,-209.69 1259.31,-204.01 1262.76,-214.03 1268.26,-209.69"/>
</g>
<!-- Node27&#45;&gt;Node6 -->
<g id="edge25" class="edge">
<title>Node27&#45;&gt;Node6</title>
<path fill="none" stroke="midnightblue" d="M1136.84,-184.88C1133.19,-168.81 1123.42,-133.93 1103.59,-112 1069.17,-73.93 1051.9,-70.26 1002.59,-56 857.52,-14.05 379.75,-10.95 245.79,-10.92"/>
<polygon fill="midnightblue" stroke="midnightblue" points="245.68,-7.42 235.68,-10.93 245.68,-14.42 245.68,-7.42"/>
</g>
<!-- Node27&#45;&gt;Node17 -->
<g id="edge24" class="edge">
<title>Node27&#45;&gt;Node17</title>
<path fill="none" stroke="midnightblue" d="M1087.53,-186.19C1070.96,-183.86 1052.5,-181.28 1035.59,-179 919.72,-163.36 784.38,-146.11 707.15,-136.36"/>
<polygon fill="midnightblue" stroke="midnightblue" points="707.47,-132.87 697.11,-135.09 706.59,-139.81 707.47,-132.87"/>
</g>
<!-- Node27&#45;&gt;Node19 -->
<g id="edge26" class="edge">
<title>Node27&#45;&gt;Node19</title>
<path fill="none" stroke="midnightblue" d="M1133.58,-184.76C1123.88,-168.5 1101.04,-133.31 1073.59,-112 1052.53,-95.65 1024.57,-83.72 1003.58,-76.26"/>
<polygon fill="midnightblue" stroke="midnightblue" points="1004.48,-72.88 993.89,-72.97 1002.23,-79.5 1004.48,-72.88"/>
</g>
<!-- Node28&#45;&gt;Node19 -->
<g id="edge28" class="edge">
<title>Node28&#45;&gt;Node19</title>
<path fill="none" stroke="midnightblue" d="M924.01,-184.96C932.89,-175.48 946.67,-159.35 954.59,-143 963.47,-124.68 968.46,-101.8 971.08,-85.96"/>
<polygon fill="midnightblue" stroke="midnightblue" points="974.57,-86.24 972.58,-75.83 967.65,-85.21 974.57,-86.24"/>
</g>
<!-- Node34 -->
<g id="node21" class="node">
<title>Node34</title>
<g id="a_node21"><a xlink:href="central__sentry__iface_8hpp.html" target="_top" xlink:title=" ">
<polygon fill="white" stroke="red" points="837.59,-112.5 837.59,-142.5 945.59,-142.5 945.59,-112.5 837.59,-112.5"/>
<text text-anchor="start" x="845.59" y="-130.5" font-family="Helvetica,sans-Serif" font-size="10.00">sntr/central_sentry</text>
<text text-anchor="middle" x="891.59" y="-119.5" font-family="Helvetica,sans-Serif" font-size="10.00">_iface.hpp</text>
</a>
</g>
</g>
<!-- Node30&#45;&gt;Node34 -->
<g id="edge30" class="edge">
<title>Node30&#45;&gt;Node34</title>
<path fill="none" stroke="midnightblue" d="M1223.01,-184.99C1215.12,-182.87 1206.56,-180.72 1198.59,-179 1115.32,-161.02 1018.13,-146.02 955.77,-137.16"/>
<polygon fill="midnightblue" stroke="midnightblue" points="956.08,-133.67 945.69,-135.74 955.1,-140.6 956.08,-133.67"/>
</g>
<!-- Node35&#45;&gt;Node4 -->
<g id="edge33" class="edge">
<title>Node35&#45;&gt;Node4</title>
<path fill="none" stroke="midnightblue" d="M223.95,-246.43C221.83,-217.93 214.97,-125.82 211.99,-85.83"/>
<polygon fill="midnightblue" stroke="midnightblue" points="215.47,-85.33 211.23,-75.62 208.49,-85.85 215.47,-85.33"/>
</g>
<!-- Node35&#45;&gt;Node17 -->
<g id="edge34" class="edge">
<title>Node35&#45;&gt;Node17</title>
<path fill="none" stroke="midnightblue" d="M235.66,-246.33C256.73,-230.31 304.63,-196.11 350.59,-179 427.21,-150.47 521.13,-137.92 581.88,-132.5"/>
<polygon fill="midnightblue" stroke="midnightblue" points="582.42,-135.96 592.08,-131.62 581.82,-128.99 582.42,-135.96"/>
</g>
<!-- Node35&#45;&gt;Node20 -->
<g id="edge36" class="edge">
<title>Node35&#45;&gt;Node20</title>
<path fill="none" stroke="midnightblue" d="M265.86,-246.98C313.9,-237.63 394.24,-222.01 453.85,-210.42"/>
<polygon fill="midnightblue" stroke="midnightblue" points="454.83,-213.8 463.97,-208.45 453.49,-206.93 454.83,-213.8"/>
</g>
<!-- Node35&#45;&gt;Node28 -->
<g id="edge35" class="edge">
<title>Node35&#45;&gt;Node28</title>
<path fill="none" stroke="midnightblue" d="M265.74,-247.23C268.73,-246.78 271.7,-246.36 274.59,-246 502.72,-217.6 561.68,-231.25 790.59,-210 815.21,-207.71 842.49,-204.62 865.27,-201.87"/>
<polygon fill="midnightblue" stroke="midnightblue" points="865.89,-205.32 875.39,-200.64 865.04,-198.37 865.89,-205.32"/>
</g>
<!-- Node36&#45;&gt;Node17 -->
<g id="edge40" class="edge">
<title>Node36&#45;&gt;Node17</title>
<path fill="none" stroke="midnightblue" d="M1407.58,-246.44C1391.06,-237.9 1365.48,-224.05 1344.59,-210 1326.22,-197.64 1326.21,-187.08 1305.59,-179 1206.62,-140.22 934.58,-151.18 828.59,-143 788.32,-139.89 743.09,-136.33 707.56,-133.51"/>
<polygon fill="midnightblue" stroke="midnightblue" points="707.58,-130 697.33,-132.7 707.02,-136.98 707.58,-130"/>
</g>
<!-- Node36&#45;&gt;Node18 -->
<g id="edge45" class="edge">
<title>Node36&#45;&gt;Node18</title>
<path fill="none" stroke="midnightblue" d="M1467.76,-246.45C1489.98,-239.95 1515.84,-228.81 1532.59,-210 1564.28,-174.42 1571.59,-115.84 1573.2,-85.9"/>
<polygon fill="midnightblue" stroke="midnightblue" points="1576.71,-85.74 1573.58,-75.61 1569.71,-85.48 1576.71,-85.74"/>
</g>
<!-- Node36&#45;&gt;Node20 -->
<g id="edge44" class="edge">
<title>Node36&#45;&gt;Node20</title>
<path fill="none" stroke="midnightblue" d="M1372.54,-247.09C1369.18,-246.69 1365.84,-246.32 1362.59,-246 1061.41,-216.23 984.41,-232.38 682.59,-210 658.07,-208.18 631.37,-205.78 607.28,-203.45"/>
<polygon fill="midnightblue" stroke="midnightblue" points="607.42,-199.95 597.13,-202.46 606.74,-206.92 607.42,-199.95"/>
</g>
<!-- Node36&#45;&gt;Node28 -->
<g id="edge41" class="edge">
<title>Node36&#45;&gt;Node28</title>
<path fill="none" stroke="midnightblue" d="M1372.51,-247.32C1369.16,-246.86 1365.83,-246.42 1362.59,-246 1218.86,-227.45 1048.64,-209.26 965.85,-200.65"/>
<polygon fill="midnightblue" stroke="midnightblue" points="966.02,-197.15 955.71,-199.6 965.3,-204.12 966.02,-197.15"/>
</g>
<!-- Node36&#45;&gt;Node30 -->
<g id="edge42" class="edge">
<title>Node36&#45;&gt;Node30</title>
<path fill="none" stroke="midnightblue" d="M1399.95,-246.48C1370.32,-236.22 1320.41,-218.96 1286.99,-207.4"/>
<polygon fill="midnightblue" stroke="midnightblue" points="1287.78,-203.97 1277.19,-204.01 1285.5,-210.59 1287.78,-203.97"/>
</g>
<!-- Node37 -->
<g id="node24" class="node">
<title>Node37</title>
<g id="a_node24"><a xlink:href="cobs__rx__container_8h.html" target="_top" xlink:title=" ">
<polygon fill="white" stroke="red" points="1354.09,-185 1354.09,-204 1507.09,-204 1507.09,-185 1354.09,-185"/>
<text text-anchor="middle" x="1430.59" y="-192" font-family="Helvetica,sans-Serif" font-size="10.00">drv/bits/cobs_rx_container.h</text>
</a>
</g>
</g>
<!-- Node36&#45;&gt;Node37 -->
<g id="edge38" class="edge">
<title>Node36&#45;&gt;Node37</title>
<path fill="none" stroke="midnightblue" d="M1425.45,-246.48C1426.3,-238.08 1427.62,-224.98 1428.71,-214.16"/>
<polygon fill="midnightblue" stroke="midnightblue" points="1432.21,-214.31 1429.73,-204.01 1425.25,-213.61 1432.21,-214.31"/>
</g>
<!-- Node38 -->
<g id="node25" class="node">
<title>Node38</title>
<g id="a_node25"><a xlink:title=" ">
<polygon fill="white" stroke="#bfbfbf" points="1388.09,-112.5 1388.09,-142.5 1521.09,-142.5 1521.09,-112.5 1388.09,-112.5"/>
<text text-anchor="start" x="1396.09" y="-130.5" font-family="Helvetica,sans-Serif" font-size="10.00">emlabcpp/experimental</text>
<text text-anchor="middle" x="1454.59" y="-119.5" font-family="Helvetica,sans-Serif" font-size="10.00">/cobs.h</text>
</a>
</g>
</g>
<!-- Node36&#45;&gt;Node38 -->
<g id="edge43" class="edge">
<title>Node36&#45;&gt;Node38</title>
<path fill="none" stroke="midnightblue" d="M1463.44,-246.36C1482.97,-239.85 1504.92,-228.7 1516.59,-210 1523.89,-198.31 1522.5,-191.44 1516.59,-179 1510.76,-166.73 1500.33,-156.46 1489.67,-148.46"/>
<polygon fill="midnightblue" stroke="midnightblue" points="1491.36,-145.37 1481.15,-142.53 1487.36,-151.12 1491.36,-145.37"/>
</g>
<!-- Node37&#45;&gt;Node38 -->
<g id="edge39" class="edge">
<title>Node37&#45;&gt;Node38</title>
<path fill="none" stroke="midnightblue" d="M1433.83,-184.73C1436.92,-176.37 1441.7,-163.4 1445.91,-152.02"/>
<polygon fill="midnightblue" stroke="midnightblue" points="1449.21,-153.18 1449.39,-142.59 1442.64,-150.76 1449.21,-153.18"/>
</g>
<!-- Node40&#45;&gt;Node17 -->
<g id="edge47" class="edge">
<title>Node40&#45;&gt;Node17</title>
<path fill="none" stroke="midnightblue" d="M1021.59,-302.17C1018.34,-278.06 1005.83,-210.78 964.59,-179 944.56,-163.56 794.69,-144.89 707.33,-135.14"/>
<polygon fill="midnightblue" stroke="midnightblue" points="707.59,-131.65 697.26,-134.03 706.82,-138.61 707.59,-131.65"/>
</g>
<!-- Node40&#45;&gt;Node28 -->
<g id="edge49" class="edge">
<title>Node40&#45;&gt;Node28</title>
<path fill="none" stroke="midnightblue" d="M1014.55,-302.32C996.73,-283.09 953.7,-236.64 930.7,-211.81"/>
<polygon fill="midnightblue" stroke="midnightblue" points="933.09,-209.24 923.73,-204.28 927.96,-214 933.09,-209.24"/>
</g>
<!-- Node40&#45;&gt;Node41 -->
<g id="edge48" class="edge">
<title>Node40&#45;&gt;Node41</title>
<path fill="none" stroke="midnightblue" d="M1032.07,-302.32C1040.79,-294.34 1053.93,-282.31 1064.49,-272.65"/>
<polygon fill="midnightblue" stroke="midnightblue" points="1066.93,-275.17 1071.94,-265.83 1062.2,-270 1066.93,-275.17"/>
</g>
<!-- Node44&#45;&gt;Node17 -->
<g id="edge52" class="edge">
<title>Node44&#45;&gt;Node17</title>
<path fill="none" stroke="midnightblue" d="M1147.5,-246.49C1119.61,-238.73 1079,-226.04 1045.59,-210 1022.7,-199.01 1021.38,-187.89 997.59,-179 945.72,-159.61 793.93,-142.65 707.22,-134.2"/>
<polygon fill="midnightblue" stroke="midnightblue" points="707.53,-130.72 697.24,-133.24 706.86,-137.68 707.53,-130.72"/>
</g>
<!-- Node44&#45;&gt;Node19 -->
<g id="edge56" class="edge">
<title>Node44&#45;&gt;Node19</title>
<path fill="none" stroke="midnightblue" d="M1150.67,-246.41C1129.06,-239.17 1100.02,-227.21 1078.59,-210 1033.69,-173.95 998.37,-114.29 982.59,-84.73"/>
<polygon fill="midnightblue" stroke="midnightblue" points="985.56,-82.86 977.83,-75.62 979.35,-86.1 985.56,-82.86"/>
</g>
<!-- Node44&#45;&gt;Node20 -->
<g id="edge55" class="edge">
<title>Node44&#45;&gt;Node20</title>
<path fill="none" stroke="midnightblue" d="M1133.88,-247.21C1130.74,-246.78 1127.62,-246.37 1124.59,-246 928.92,-222.34 878.92,-227.36 682.59,-210 658.1,-207.83 631.4,-205.33 607.31,-203.03"/>
<polygon fill="midnightblue" stroke="midnightblue" points="607.45,-199.52 597.16,-202.05 606.78,-206.49 607.45,-199.52"/>
</g>
<!-- Node44&#45;&gt;Node27 -->
<g id="edge51" class="edge">
<title>Node44&#45;&gt;Node27</title>
<path fill="none" stroke="midnightblue" d="M1174.57,-246.48C1168.34,-237.64 1158.42,-223.59 1150.57,-212.48"/>
<polygon fill="midnightblue" stroke="midnightblue" points="1153.22,-210.16 1144.6,-204.01 1147.5,-214.2 1153.22,-210.16"/>
</g>
<!-- Node44&#45;&gt;Node28 -->
<g id="edge53" class="edge">
<title>Node44&#45;&gt;Node28</title>
<path fill="none" stroke="midnightblue" d="M1142.62,-246.48C1095.4,-235.87 1014.73,-217.76 963.36,-206.22"/>
<polygon fill="midnightblue" stroke="midnightblue" points="964.01,-202.78 953.49,-204.01 962.48,-209.61 964.01,-202.78"/>
</g>
<!-- Node44&#45;&gt;Node30 -->
<g id="edge54" class="edge">
<title>Node44&#45;&gt;Node30</title>
<path fill="none" stroke="midnightblue" d="M1190.91,-246.48C1202.24,-237.11 1220.66,-221.88 1234.43,-210.51"/>
<polygon fill="midnightblue" stroke="midnightblue" points="1236.82,-213.08 1242.29,-204.01 1232.36,-207.68 1236.82,-213.08"/>
</g>
<!-- Node45&#45;&gt;Node4 -->
<g id="edge58" class="edge">
<title>Node45&#45;&gt;Node4</title>
<path fill="none" stroke="midnightblue" d="M410.92,-306.01C336.99,-296.28 182.21,-274.96 174.59,-266 151.49,-238.81 187.76,-129.36 203.69,-85.41"/>
<polygon fill="midnightblue" stroke="midnightblue" points="207,-86.55 207.17,-75.95 200.43,-84.13 207,-86.55"/>
</g>
<!-- Node45&#45;&gt;Node6 -->
<g id="edge63" class="edge">
<title>Node45&#45;&gt;Node6</title>
<path fill="none" stroke="midnightblue" d="M411.01,-306.22C335.06,-296.63 172.72,-275.17 164.59,-266 102.63,-196.13 118.37,-140.75 157.59,-56 163.51,-43.21 175.06,-32.72 185.87,-25.1"/>
<polygon fill="midnightblue" stroke="midnightblue" points="187.8,-28.02 194.26,-19.61 183.97,-22.16 187.8,-28.02"/>
</g>
<!-- Node45&#45;&gt;Node17 -->
<g id="edge61" class="edge">
<title>Node45&#45;&gt;Node17</title>
<path fill="none" stroke="midnightblue" d="M446,-302.46C437.05,-279.64 416.45,-216.46 445.59,-179 462.31,-157.5 529.98,-143.68 581.81,-136.02"/>
<polygon fill="midnightblue" stroke="midnightblue" points="582.54,-139.45 591.95,-134.57 581.55,-132.52 582.54,-139.45"/>
</g>
<!-- Node45&#45;&gt;Node20 -->
<g id="edge64" class="edge">
<title>Node45&#45;&gt;Node20</title>
<path fill="none" stroke="midnightblue" d="M449.77,-302.29C450.41,-289.1 453.18,-263.72 464.59,-246 472.44,-233.82 484.28,-223.43 495.78,-215.29"/>
<polygon fill="midnightblue" stroke="midnightblue" points="498.06,-217.98 504.43,-209.52 494.17,-212.16 498.06,-217.98"/>
</g>
<!-- Node45&#45;&gt;Node28 -->
<g id="edge62" class="edge">
<title>Node45&#45;&gt;Node28</title>
<path fill="none" stroke="midnightblue" d="M488.28,-309.24C589.03,-304.34 853.94,-289.35 885.59,-266 902.11,-253.81 909.62,-230.68 912.97,-214.25"/>
<polygon fill="midnightblue" stroke="midnightblue" points="916.46,-214.6 914.69,-204.15 909.56,-213.42 916.46,-214.6"/>
</g>
<!-- Node46 -->
<g id="node30" class="node">
<title>Node46</title>
<g id="a_node30"><a xlink:href="defs_8hpp.html" target="_top" xlink:title=" ">
<polygon fill="white" stroke="red" points="800.09,-246.5 800.09,-265.5 877.09,-265.5 877.09,-246.5 800.09,-246.5"/>
<text text-anchor="middle" x="838.59" y="-253.5" font-family="Helvetica,sans-Serif" font-size="10.00">drv/defs.hpp</text>
</a>
</g>
</g>
<!-- Node45&#45;&gt;Node46 -->
<g id="edge59" class="edge">
<title>Node45&#45;&gt;Node46</title>
<path fill="none" stroke="midnightblue" d="M488.3,-306.58C549.85,-299.41 674.06,-284.32 789.76,-266.06"/>
<polygon fill="midnightblue" stroke="midnightblue" points="790.52,-269.48 799.85,-264.45 789.42,-262.56 790.52,-269.48"/>
</g>
<!-- Node46&#45;&gt;Node28 -->
<g id="edge60" class="edge">
<title>Node46&#45;&gt;Node28</title>
<path fill="none" stroke="midnightblue" d="M849.62,-246.48C861.86,-237.02 881.82,-221.6 896.58,-210.19"/>
<polygon fill="midnightblue" stroke="midnightblue" points="898.81,-212.89 904.58,-204.01 894.53,-207.35 898.81,-212.89"/>
</g>
<!-- Node48&#45;&gt;Node17 -->
<g id="edge66" class="edge">
<title>Node48&#45;&gt;Node17</title>
<path fill="none" stroke="midnightblue" d="M504.57,-246.44C486.56,-239.69 465.36,-228.3 454.59,-210 447.6,-198.13 446.19,-189.92 454.59,-179 470.21,-158.69 532.87,-144.83 582.02,-136.84"/>
<polygon fill="midnightblue" stroke="midnightblue" points="582.63,-140.29 591.97,-135.27 581.54,-133.37 582.63,-140.29"/>
</g>
<!-- Node48&#45;&gt;Node28 -->
<g id="edge67" class="edge">
<title>Node48&#45;&gt;Node28</title>
<path fill="none" stroke="midnightblue" d="M590.04,-246.48C663.68,-234.94 794.02,-214.54 865.4,-203.36"/>
<polygon fill="midnightblue" stroke="midnightblue" points="866.15,-206.78 875.49,-201.78 865.07,-199.87 866.15,-206.78"/>
</g>
<!-- Node50&#45;&gt;Node17 -->
<g id="edge72" class="edge">
<title>Node50&#45;&gt;Node17</title>
<path fill="none" stroke="midnightblue" d="M710,-246.46C702.46,-237.71 690.85,-223.51 682.59,-210 669.91,-189.26 658.6,-163.6 651.68,-146.68"/>
<polygon fill="midnightblue" stroke="midnightblue" points="654.93,-145.38 647.97,-137.4 648.43,-147.98 654.93,-145.38"/>
</g>
<!-- Node50&#45;&gt;Node19 -->
<g id="edge76" class="edge">
<title>Node50&#45;&gt;Node19</title>
<path fill="none" stroke="midnightblue" d="M738.74,-246.47C754.9,-238.99 776.69,-226.71 790.59,-210 820.48,-174.09 794.44,-143.87 828.59,-112 860.27,-82.43 911.07,-72.28 943.36,-68.8"/>
<polygon fill="midnightblue" stroke="midnightblue" points="943.91,-72.27 953.55,-67.86 943.27,-65.3 943.91,-72.27"/>
</g>
<!-- Node50&#45;&gt;Node20 -->
<g id="edge75" class="edge">
<title>Node50&#45;&gt;Node20</title>
<path fill="none" stroke="midnightblue" d="M690.8,-246.48C663.11,-237.66 619.12,-223.67 584.24,-212.57"/>
<polygon fill="midnightblue" stroke="midnightblue" points="585.25,-209.22 574.66,-209.52 583.13,-215.89 585.25,-209.22"/>
</g>
<!-- Node50&#45;&gt;Node34 -->
<g id="edge73" class="edge">
<title>Node50&#45;&gt;Node34</title>
<path fill="none" stroke="midnightblue" d="M747.9,-246.4C770.25,-239.08 800.63,-227.04 823.59,-210 845.39,-193.82 864.62,-169.27 877.02,-151.35"/>
<polygon fill="midnightblue" stroke="midnightblue" points="880.18,-152.91 882.86,-142.65 874.37,-149 880.18,-152.91"/>
</g>
<!-- Node51 -->
<g id="node34" class="node">
<title>Node51</title>
<g id="a_node34"><a xlink:href="record_8hpp.html" target="_top" xlink:title=" ">
<polygon fill="white" stroke="red" points="691.59,-185 691.59,-204 781.59,-204 781.59,-185 691.59,-185"/>
<text text-anchor="middle" x="736.59" y="-192" font-family="Helvetica,sans-Serif" font-size="10.00">sntr/record.hpp</text>
</a>
</g>
</g>
<!-- Node50&#45;&gt;Node51 -->
<g id="edge74" class="edge">
<title>Node50&#45;&gt;Node51</title>
<path fill="none" stroke="midnightblue" d="M720.31,-246.48C723.02,-237.99 727.27,-224.7 730.74,-213.82"/>
<polygon fill="midnightblue" stroke="midnightblue" points="734.17,-214.6 733.87,-204.01 727.5,-212.47 734.17,-214.6"/>
</g>
</g>
</svg>
