<?xml version="1.0" encoding="UTF-8" standalone="no"?>
<!DOCTYPE svg PUBLIC "-//W3C//DTD SVG 1.1//EN"
 "http://www.w3.org/Graphics/SVG/1.1/DTD/svg11.dtd">
<!-- Generated by graphviz version 2.43.0 (0)
 -->
<!-- Title: src/brd/proto3/board.cpp Pages: 1 -->
<svg width="2019pt" height="375pt"
 viewBox="0.00 0.00 2018.50 375.00" xmlns="http://www.w3.org/2000/svg" xmlns:xlink="http://www.w3.org/1999/xlink">
<g id="graph0" class="graph" transform="scale(1 1) rotate(0) translate(4 371)">
<title>src/brd/proto3/board.cpp</title>
<polygon fill="white" stroke="transparent" points="-4,4 -4,-371 2014.5,-371 2014.5,4 -4,4"/>
<!-- Node1 -->
<g id="node1" class="node">
<title>Node1</title>
<g id="a_node1"><a xlink:title=" ">
<polygon fill="#bfbfbf" stroke="black" points="822,-347.5 822,-366.5 957,-366.5 957,-347.5 822,-347.5"/>
<text text-anchor="middle" x="889.5" y="-354.5" font-family="Helvetica,sans-Serif" font-size="10.00">src/brd/proto3/board.cpp</text>
</a>
</g>
</g>
<!-- Node2 -->
<g id="node2" class="node">
<title>Node2</title>
<g id="a_node2"><a xlink:href="brd_8hpp.html" target="_top" xlink:title=" ">
<polygon fill="white" stroke="black" points="639,-291.5 639,-310.5 692,-310.5 692,-291.5 639,-291.5"/>
<text text-anchor="middle" x="665.5" y="-298.5" font-family="Helvetica,sans-Serif" font-size="10.00">brd.hpp</text>
</a>
</g>
</g>
<!-- Node1&#45;&gt;Node2 -->
<g id="edge1" class="edge">
<title>Node1&#45;&gt;Node2</title>
<path fill="none" stroke="midnightblue" d="M854.01,-347.44C812.41,-337.42 743.84,-320.89 701.87,-310.77"/>
<polygon fill="midnightblue" stroke="midnightblue" points="702.6,-307.34 692.06,-308.4 700.96,-314.15 702.6,-307.34"/>
</g>
<!-- Node13 -->
<g id="node7" class="node">
<title>Node13</title>
<g id="a_node7"><a xlink:href="drivers_8hpp.html" target="_top" xlink:title=" ">
<polygon fill="white" stroke="black" points="729,-235.5 729,-254.5 824,-254.5 824,-235.5 729,-235.5"/>
<text text-anchor="middle" x="776.5" y="-242.5" font-family="Helvetica,sans-Serif" font-size="10.00">core/drivers.hpp</text>
</a>
</g>
</g>
<!-- Node1&#45;&gt;Node13 -->
<g id="edge17" class="edge">
<title>Node1&#45;&gt;Node13</title>
<path fill="none" stroke="midnightblue" d="M870.12,-347.47C854.07,-339.7 831.4,-327 815.5,-311 801.91,-297.33 791.11,-278.03 784.35,-264.01"/>
<polygon fill="midnightblue" stroke="midnightblue" points="787.51,-262.52 780.16,-254.9 781.15,-265.44 787.51,-262.52"/>
</g>
<!-- Node15 -->
<g id="node9" class="node">
<title>Node15</title>
<g id="a_node9"><a xlink:title=" ">
<polygon fill="white" stroke="#bfbfbf" points="1663.5,-56.5 1663.5,-75.5 1767.5,-75.5 1767.5,-56.5 1663.5,-56.5"/>
<text text-anchor="middle" x="1715.5" y="-63.5" font-family="Helvetica,sans-Serif" font-size="10.00">emlabcpp/result.h</text>
</a>
</g>
</g>
<!-- Node1&#45;&gt;Node15 -->
<g id="edge75" class="edge">
<title>Node1&#45;&gt;Node15</title>
<path fill="none" stroke="midnightblue" d="M957.31,-354.58C1052.69,-351.49 1231.49,-341.75 1380.5,-311 1537.56,-278.59 1616.49,-318.44 1723.5,-199 1749.63,-169.83 1746.33,-150.16 1737.5,-112 1735.27,-102.36 1730.68,-92.41 1726.26,-84.31"/>
<polygon fill="midnightblue" stroke="midnightblue" points="1729.2,-82.4 1721.14,-75.52 1723.15,-85.92 1729.2,-82.4"/>
</g>
<!-- Node18 -->
<g id="node12" class="node">
<title>Node18</title>
<g id="a_node12"><a xlink:href="default_8hpp.html" target="_top" xlink:title=" ">
<polygon fill="white" stroke="black" points="313.5,-291.5 313.5,-310.5 403.5,-310.5 403.5,-291.5 313.5,-291.5"/>
<text text-anchor="middle" x="358.5" y="-298.5" font-family="Helvetica,sans-Serif" font-size="10.00">cfg/default.hpp</text>
</a>
</g>
</g>
<!-- Node1&#45;&gt;Node18 -->
<g id="edge14" class="edge">
<title>Node1&#45;&gt;Node18</title>
<path fill="none" stroke="midnightblue" d="M821.98,-349.13C715.82,-338.34 511.89,-317.6 413.83,-307.63"/>
<polygon fill="midnightblue" stroke="midnightblue" points="414.13,-304.14 403.83,-306.61 413.42,-311.1 414.13,-304.14"/>
</g>
<!-- Node19 -->
<g id="node13" class="node">
<title>Node19</title>
<g id="a_node13"><a xlink:href="globals_8hpp.html" target="_top" xlink:title=" ">
<polygon fill="white" stroke="black" points="26,-291.5 26,-310.5 123,-310.5 123,-291.5 26,-291.5"/>
<text text-anchor="middle" x="74.5" y="-298.5" font-family="Helvetica,sans-Serif" font-size="10.00">core/globals.hpp</text>
</a>
</g>
</g>
<!-- Node1&#45;&gt;Node19 -->
<g id="edge18" class="edge">
<title>Node1&#45;&gt;Node19</title>
<path fill="none" stroke="midnightblue" d="M821.98,-354.13C691.14,-350.04 393.81,-338.45 133.22,-310.97"/>
<polygon fill="midnightblue" stroke="midnightblue" points="133.5,-307.48 123.19,-309.9 132.76,-314.44 133.5,-307.48"/>
</g>
<!-- Node21 -->
<g id="node15" class="node">
<title>Node21</title>
<g id="a_node15"><a xlink:href="adc__pooler__def_8hpp.html" target="_top" xlink:title=" ">
<polygon fill="white" stroke="black" points="824.5,-291.5 824.5,-310.5 954.5,-310.5 954.5,-291.5 824.5,-291.5"/>
<text text-anchor="middle" x="889.5" y="-298.5" font-family="Helvetica,sans-Serif" font-size="10.00">drv/adc_pooler_def.hpp</text>
</a>
</g>
</g>
<!-- Node1&#45;&gt;Node21 -->
<g id="edge20" class="edge">
<title>Node1&#45;&gt;Node21</title>
<path fill="none" stroke="midnightblue" d="M889.5,-347.08C889.5,-340.01 889.5,-329.86 889.5,-320.99"/>
<polygon fill="midnightblue" stroke="midnightblue" points="893,-320.75 889.5,-310.75 886,-320.75 893,-320.75"/>
</g>
<!-- Node24 -->
<g id="node18" class="node">
<title>Node24</title>
<g id="a_node18"><a xlink:href="platform_8hpp.html" target="_top" xlink:title=" ">
<polygon fill="white" stroke="red" points="1267.5,-174 1267.5,-193 1347.5,-193 1347.5,-174 1267.5,-174"/>
<text text-anchor="middle" x="1307.5" y="-181" font-family="Helvetica,sans-Serif" font-size="10.00">platform.hpp</text>
</a>
</g>
</g>
<!-- Node1&#45;&gt;Node24 -->
<g id="edge66" class="edge">
<title>Node1&#45;&gt;Node24</title>
<path fill="none" stroke="midnightblue" d="M957.18,-349.17C1062.77,-337 1259.14,-307.74 1302.5,-255 1314.29,-240.66 1313.89,-218.65 1311.59,-203.04"/>
<polygon fill="midnightblue" stroke="midnightblue" points="1315,-202.2 1309.73,-193.01 1308.11,-203.48 1315,-202.2"/>
</g>
<!-- Node30 -->
<g id="node21" class="node">
<title>Node30</title>
<g id="a_node21"><a xlink:href="clock_8hpp.html" target="_top" xlink:title=" ">
<polygon fill="white" stroke="black" points="628.5,-235.5 628.5,-254.5 710.5,-254.5 710.5,-235.5 628.5,-235.5"/>
<text text-anchor="middle" x="669.5" y="-242.5" font-family="Helvetica,sans-Serif" font-size="10.00">drv/clock.hpp</text>
</a>
</g>
</g>
<!-- Node1&#45;&gt;Node30 -->
<g id="edge33" class="edge">
<title>Node1&#45;&gt;Node30</title>
<path fill="none" stroke="midnightblue" d="M871.61,-347.49C852.85,-338.53 822.51,-323.95 796.5,-311 761.11,-293.38 720.48,-272.47 694.9,-259.21"/>
<polygon fill="midnightblue" stroke="midnightblue" points="696.37,-256.03 685.88,-254.53 693.15,-262.24 696.37,-256.03"/>
</g>
<!-- Node31 -->
<g id="node22" class="node">
<title>Node31</title>
<g id="a_node22"><a xlink:href="cobs__uart_8hpp.html" target="_top" xlink:title=" ">
<polygon fill="white" stroke="black" points="1366.5,-235.5 1366.5,-254.5 1470.5,-254.5 1470.5,-235.5 1366.5,-235.5"/>
<text text-anchor="middle" x="1418.5" y="-242.5" font-family="Helvetica,sans-Serif" font-size="10.00">drv/cobs_uart.hpp</text>
</a>
</g>
</g>
<!-- Node1&#45;&gt;Node31 -->
<g id="edge38" class="edge">
<title>Node1&#45;&gt;Node31</title>
<path fill="none" stroke="midnightblue" d="M957.37,-354.92C1068.58,-352.25 1284.1,-342.98 1352.5,-311 1375.4,-300.3 1395.05,-278.24 1406.82,-262.8"/>
<polygon fill="midnightblue" stroke="midnightblue" points="1409.73,-264.75 1412.8,-254.61 1404.08,-260.62 1409.73,-264.75"/>
</g>
<!-- Node34 -->
<g id="node25" class="node">
<title>Node34</title>
<g id="a_node25"><a xlink:href="hbridge_8hpp.html" target="_top" xlink:title=" ">
<polygon fill="white" stroke="black" points="957,-235.5 957,-254.5 1050,-254.5 1050,-235.5 957,-235.5"/>
<text text-anchor="middle" x="1003.5" y="-242.5" font-family="Helvetica,sans-Serif" font-size="10.00">drv/hbridge.hpp</text>
</a>
</g>
</g>
<!-- Node1&#45;&gt;Node34 -->
<g id="edge46" class="edge">
<title>Node1&#45;&gt;Node34</title>
<path fill="none" stroke="midnightblue" d="M908.83,-347.42C924.85,-339.62 947.51,-326.91 963.5,-311 977.26,-297.31 988.37,-278.01 995.35,-264"/>
<polygon fill="midnightblue" stroke="midnightblue" points="998.55,-265.42 999.69,-254.89 992.23,-262.41 998.55,-265.42"/>
</g>
<!-- Node35 -->
<g id="node26" class="node">
<title>Node35</title>
<g id="a_node26"><a xlink:href="leds_8hpp.html" target="_top" xlink:title=" ">
<polygon fill="white" stroke="black" points="1011,-291.5 1011,-310.5 1088,-310.5 1088,-291.5 1011,-291.5"/>
<text text-anchor="middle" x="1049.5" y="-298.5" font-family="Helvetica,sans-Serif" font-size="10.00">drv/leds.hpp</text>
</a>
</g>
</g>
<!-- Node1&#45;&gt;Node35 -->
<g id="edge53" class="edge">
<title>Node1&#45;&gt;Node35</title>
<path fill="none" stroke="midnightblue" d="M914.85,-347.44C941.77,-338.36 984.5,-323.94 1014.59,-313.78"/>
<polygon fill="midnightblue" stroke="midnightblue" points="1015.91,-317.03 1024.27,-310.52 1013.67,-310.4 1015.91,-317.03"/>
</g>
<!-- Node37 -->
<g id="node28" class="node">
<title>Node37</title>
<g id="a_node28"><a xlink:href="install__stop__callback_8hpp.html" target="_top" xlink:title=" ">
<polygon fill="white" stroke="black" points="141.5,-291.5 141.5,-310.5 295.5,-310.5 295.5,-291.5 141.5,-291.5"/>
<text text-anchor="middle" x="218.5" y="-298.5" font-family="Helvetica,sans-Serif" font-size="10.00">fw/install_stop_callback.hpp</text>
</a>
</g>
</g>
<!-- Node1&#45;&gt;Node37 -->
<g id="edge61" class="edge">
<title>Node1&#45;&gt;Node37</title>
<path fill="none" stroke="midnightblue" d="M821.89,-351.41C714.77,-343.99 499.2,-328.53 305.91,-311.11"/>
<polygon fill="midnightblue" stroke="midnightblue" points="306.12,-307.61 295.85,-310.2 305.49,-314.58 306.12,-307.61"/>
</g>
<!-- Node38 -->
<g id="node29" class="node">
<title>Node38</title>
<g id="a_node29"><a xlink:href="util_8hpp.html" target="_top" xlink:title=" ">
<polygon fill="white" stroke="black" points="1907.5,-291.5 1907.5,-310.5 1975.5,-310.5 1975.5,-291.5 1907.5,-291.5"/>
<text text-anchor="middle" x="1941.5" y="-298.5" font-family="Helvetica,sans-Serif" font-size="10.00">fw/util.hpp</text>
</a>
</g>
</g>
<!-- Node1&#45;&gt;Node38 -->
<g id="edge63" class="edge">
<title>Node1&#45;&gt;Node38</title>
<path fill="none" stroke="midnightblue" d="M957.05,-356.64C1119.65,-357.38 1545.46,-354.59 1897.5,-311 1897.6,-310.99 1897.7,-310.97 1897.81,-310.96"/>
<polygon fill="midnightblue" stroke="midnightblue" points="1898.11,-314.46 1907.48,-309.51 1897.07,-307.53 1898.11,-314.46"/>
</g>
<!-- Node41 -->
<g id="node32" class="node">
<title>Node41</title>
<g id="a_node32"><a xlink:title=" ">
<polygon fill="white" stroke="#bfbfbf" points="1824,-291.5 1824,-310.5 1889,-310.5 1889,-291.5 1824,-291.5"/>
<text text-anchor="middle" x="1856.5" y="-298.5" font-family="Helvetica,sans-Serif" font-size="10.00">setup.hpp</text>
</a>
</g>
</g>
<!-- Node1&#45;&gt;Node41 -->
<g id="edge67" class="edge">
<title>Node1&#45;&gt;Node41</title>
<path fill="none" stroke="midnightblue" d="M957.01,-355.93C1109.52,-355.07 1492.14,-348.96 1809.5,-311 1810.97,-310.82 1812.46,-310.63 1813.97,-310.42"/>
<polygon fill="midnightblue" stroke="midnightblue" points="1814.64,-313.86 1823.98,-308.84 1813.55,-306.94 1814.64,-313.86"/>
</g>
<!-- Node42 -->
<g id="node33" class="node">
<title>Node42</title>
<g id="a_node33"><a xlink:href="central__sentry_8hpp.html" target="_top" xlink:title=" ">
<polygon fill="white" stroke="black" points="482.5,-235.5 482.5,-254.5 610.5,-254.5 610.5,-235.5 482.5,-235.5"/>
<text text-anchor="middle" x="546.5" y="-242.5" font-family="Helvetica,sans-Serif" font-size="10.00">sntr/central_sentry.hpp</text>
</a>
</g>
</g>
<!-- Node1&#45;&gt;Node42 -->
<g id="edge68" class="edge">
<title>Node1&#45;&gt;Node42</title>
<path fill="none" stroke="midnightblue" d="M863.03,-347.46C835.74,-338.59 792.02,-324.2 754.5,-311 730.36,-302.51 724.8,-299.04 700.5,-291 662.68,-278.49 619.05,-265.91 587.91,-257.25"/>
<polygon fill="midnightblue" stroke="midnightblue" points="588.83,-253.87 578.26,-254.58 586.96,-260.62 588.83,-253.87"/>
</g>
<!-- Node3 -->
<g id="node3" class="node">
<title>Node3</title>
<g id="a_node3"><a xlink:href="map_8hpp.html" target="_top" xlink:title=" ">
<polygon fill="white" stroke="red" points="226,-235.5 226,-254.5 303,-254.5 303,-235.5 226,-235.5"/>
<text text-anchor="middle" x="264.5" y="-242.5" font-family="Helvetica,sans-Serif" font-size="10.00">cfg/map.hpp</text>
</a>
</g>
</g>
<!-- Node2&#45;&gt;Node3 -->
<g id="edge2" class="edge">
<title>Node2&#45;&gt;Node3</title>
<path fill="none" stroke="midnightblue" d="M638.88,-296.42C572.4,-287.46 398.33,-264.02 313.03,-252.54"/>
<polygon fill="midnightblue" stroke="midnightblue" points="313.46,-249.06 303.08,-251.2 312.53,-256 313.46,-249.06"/>
</g>
<!-- Node2&#45;&gt;Node13 -->
<g id="edge7" class="edge">
<title>Node2&#45;&gt;Node13</title>
<path fill="none" stroke="midnightblue" d="M683.33,-291.32C701.22,-282.62 728.98,-269.12 749.55,-259.11"/>
<polygon fill="midnightblue" stroke="midnightblue" points="751.25,-262.18 758.71,-254.65 748.19,-255.88 751.25,-262.18"/>
</g>
<!-- Node4 -->
<g id="node4" class="node">
<title>Node4</title>
<g id="a_node4"><a xlink:href="base_2base_8hpp.html" target="_top" xlink:title=" ">
<polygon fill="white" stroke="red" points="559,-56.5 559,-75.5 646,-75.5 646,-56.5 559,-56.5"/>
<text text-anchor="middle" x="602.5" y="-63.5" font-family="Helvetica,sans-Serif" font-size="10.00">base/base.hpp</text>
</a>
</g>
</g>
<!-- Node3&#45;&gt;Node4 -->
<g id="edge3" class="edge">
<title>Node3&#45;&gt;Node4</title>
<path fill="none" stroke="midnightblue" d="M260.13,-235.36C253.3,-220.53 242.09,-189.72 254.5,-168 278.81,-125.44 303.53,-129.01 349.5,-112 415.6,-87.55 496.46,-76.14 548.69,-70.99"/>
<polygon fill="midnightblue" stroke="midnightblue" points="549.12,-74.46 558.74,-70.04 548.46,-67.49 549.12,-74.46"/>
</g>
<!-- Node9 -->
<g id="node6" class="node">
<title>Node9</title>
<g id="a_node6"><a xlink:href="key_8hpp.html" target="_top" xlink:title=" ">
<polygon fill="white" stroke="black" points="264,-174 264,-193 335,-193 335,-174 264,-174"/>
<text text-anchor="middle" x="299.5" y="-181" font-family="Helvetica,sans-Serif" font-size="10.00">cfg/key.hpp</text>
</a>
</g>
</g>
<!-- Node3&#45;&gt;Node9 -->
<g id="edge5" class="edge">
<title>Node3&#45;&gt;Node9</title>
<path fill="none" stroke="midnightblue" d="M269.51,-235.48C274.66,-226.73 282.81,-212.87 289.32,-201.81"/>
<polygon fill="midnightblue" stroke="midnightblue" points="292.44,-203.4 294.49,-193.01 286.41,-199.85 292.44,-203.4"/>
</g>
<!-- Node6 -->
<g id="node5" class="node">
<title>Node6</title>
<g id="a_node5"><a xlink:title=" ">
<polygon fill="white" stroke="#bfbfbf" points="813.5,-0.5 813.5,-19.5 863.5,-19.5 863.5,-0.5 813.5,-0.5"/>
<text text-anchor="middle" x="838.5" y="-7.5" font-family="Helvetica,sans-Serif" font-size="10.00">cstdint</text>
</a>
</g>
</g>
<!-- Node4&#45;&gt;Node6 -->
<g id="edge4" class="edge">
<title>Node4&#45;&gt;Node6</title>
<path fill="none" stroke="midnightblue" d="M639.89,-56.44C684.78,-46.17 759.46,-29.09 803.33,-19.05"/>
<polygon fill="midnightblue" stroke="midnightblue" points="804.29,-22.42 813.25,-16.78 802.72,-15.6 804.29,-22.42"/>
</g>
<!-- Node9&#45;&gt;Node6 -->
<g id="edge6" class="edge">
<title>Node9&#45;&gt;Node6</title>
<path fill="none" stroke="midnightblue" d="M303.33,-173.66C310.28,-158.65 326.43,-128.24 349.5,-112 423.7,-59.76 703.62,-25.41 803.13,-14.63"/>
<polygon fill="midnightblue" stroke="midnightblue" points="803.69,-18.09 813.27,-13.55 802.95,-11.13 803.69,-18.09"/>
</g>
<!-- Node14 -->
<g id="node8" class="node">
<title>Node14</title>
<g id="a_node8"><a xlink:href="drv__interfaces_8hpp.html" target="_top" xlink:title=" ">
<polygon fill="white" stroke="black" points="822.5,-112.5 822.5,-131.5 956.5,-131.5 956.5,-112.5 822.5,-112.5"/>
<text text-anchor="middle" x="889.5" y="-119.5" font-family="Helvetica,sans-Serif" font-size="10.00">base/drv_interfaces.hpp</text>
</a>
</g>
</g>
<!-- Node13&#45;&gt;Node14 -->
<g id="edge8" class="edge">
<title>Node13&#45;&gt;Node14</title>
<path fill="none" stroke="midnightblue" d="M758.11,-235.47C744.4,-228 726.69,-215.71 718.5,-199 712.44,-186.63 710.09,-178.91 718.5,-168 730.79,-152.05 775.39,-140.63 815.96,-133.29"/>
<polygon fill="midnightblue" stroke="midnightblue" points="816.64,-136.72 825.89,-131.55 815.43,-129.83 816.64,-136.72"/>
</g>
<!-- Node17 -->
<g id="node11" class="node">
<title>Node17</title>
<g id="a_node11"><a xlink:title=" ">
<polygon fill="white" stroke="#bfbfbf" points="728,-168.5 728,-198.5 861,-198.5 861,-168.5 728,-168.5"/>
<text text-anchor="start" x="736" y="-186.5" font-family="Helvetica,sans-Serif" font-size="10.00">emlabcpp/experimental</text>
<text text-anchor="middle" x="794.5" y="-175.5" font-family="Helvetica,sans-Serif" font-size="10.00">/function_view.h</text>
</a>
</g>
</g>
<!-- Node13&#45;&gt;Node17 -->
<g id="edge13" class="edge">
<title>Node13&#45;&gt;Node17</title>
<path fill="none" stroke="midnightblue" d="M779.08,-235.48C781.22,-228.4 784.37,-217.97 787.27,-208.39"/>
<polygon fill="midnightblue" stroke="midnightblue" points="790.71,-209.11 790.26,-198.52 784.01,-207.08 790.71,-209.11"/>
</g>
<!-- Node14&#45;&gt;Node4 -->
<g id="edge9" class="edge">
<title>Node14&#45;&gt;Node4</title>
<path fill="none" stroke="midnightblue" d="M844.02,-112.44C793.09,-102.86 710.6,-87.34 656.45,-77.15"/>
<polygon fill="midnightblue" stroke="midnightblue" points="656.83,-73.66 646.35,-75.25 655.53,-80.54 656.83,-73.66"/>
</g>
<!-- Node14&#45;&gt;Node6 -->
<g id="edge10" class="edge">
<title>Node14&#45;&gt;Node6</title>
<path fill="none" stroke="midnightblue" d="M885.5,-112.37C877.19,-94.46 857.94,-52.92 846.82,-28.95"/>
<polygon fill="midnightblue" stroke="midnightblue" points="849.86,-27.19 842.48,-19.59 843.51,-30.14 849.86,-27.19"/>
</g>
<!-- Node14&#45;&gt;Node15 -->
<g id="edge11" class="edge">
<title>Node14&#45;&gt;Node15</title>
<path fill="none" stroke="midnightblue" d="M956.74,-116.6C1113.55,-106.35 1501.63,-80.98 1653.32,-71.07"/>
<polygon fill="midnightblue" stroke="midnightblue" points="1653.64,-74.55 1663.4,-70.41 1653.19,-67.57 1653.64,-74.55"/>
</g>
<!-- Node16 -->
<g id="node10" class="node">
<title>Node16</title>
<g id="a_node10"><a xlink:title=" ">
<polygon fill="white" stroke="#bfbfbf" points="983.5,-56.5 983.5,-75.5 1023.5,-75.5 1023.5,-56.5 983.5,-56.5"/>
<text text-anchor="middle" x="1003.5" y="-63.5" font-family="Helvetica,sans-Serif" font-size="10.00">span</text>
</a>
</g>
</g>
<!-- Node14&#45;&gt;Node16 -->
<g id="edge12" class="edge">
<title>Node14&#45;&gt;Node16</title>
<path fill="none" stroke="midnightblue" d="M907.56,-112.44C926.07,-103.68 955.08,-89.94 976.36,-79.86"/>
<polygon fill="midnightblue" stroke="midnightblue" points="977.98,-82.96 985.52,-75.52 974.99,-76.63 977.98,-82.96"/>
</g>
<!-- Node18&#45;&gt;Node3 -->
<g id="edge16" class="edge">
<title>Node18&#45;&gt;Node3</title>
<path fill="none" stroke="midnightblue" d="M343.4,-291.32C328.6,-282.82 305.81,-269.73 288.52,-259.8"/>
<polygon fill="midnightblue" stroke="midnightblue" points="289.98,-256.6 279.57,-254.65 286.49,-262.67 289.98,-256.6"/>
</g>
<!-- Node18&#45;&gt;Node9 -->
<g id="edge15" class="edge">
<title>Node18&#45;&gt;Node9</title>
<path fill="none" stroke="midnightblue" d="M354.07,-291.32C344.46,-272.51 321.54,-227.65 308.67,-202.46"/>
<polygon fill="midnightblue" stroke="midnightblue" points="311.65,-200.6 303.99,-193.28 305.42,-203.78 311.65,-200.6"/>
</g>
<!-- Node20 -->
<g id="node14" class="node">
<title>Node20</title>
<g id="a_node14"><a xlink:title=" ">
<polygon fill="white" stroke="#bfbfbf" points="0,-235.5 0,-254.5 149,-254.5 149,-235.5 0,-235.5"/>
<text text-anchor="middle" x="74.5" y="-242.5" font-family="Helvetica,sans-Serif" font-size="10.00">emlabcpp/static_function.h</text>
</a>
</g>
</g>
<!-- Node19&#45;&gt;Node20 -->
<g id="edge19" class="edge">
<title>Node19&#45;&gt;Node20</title>
<path fill="none" stroke="midnightblue" d="M74.5,-291.08C74.5,-284.01 74.5,-273.86 74.5,-264.99"/>
<polygon fill="midnightblue" stroke="midnightblue" points="78,-264.75 74.5,-254.75 71,-264.75 78,-264.75"/>
</g>
<!-- Node21&#45;&gt;Node14 -->
<g id="edge21" class="edge">
<title>Node21&#45;&gt;Node14</title>
<path fill="none" stroke="midnightblue" d="M889.5,-291.46C889.5,-264.43 889.5,-180.24 889.5,-142.11"/>
<polygon fill="midnightblue" stroke="midnightblue" points="893,-141.87 889.5,-131.87 886,-141.87 893,-141.87"/>
</g>
<!-- Node22 -->
<g id="node16" class="node">
<title>Node22</title>
<g id="a_node16"><a xlink:href="adc__pooler_8hpp.html" target="_top" xlink:title=" ">
<polygon fill="white" stroke="black" points="1068,-235.5 1068,-254.5 1177,-254.5 1177,-235.5 1068,-235.5"/>
<text text-anchor="middle" x="1122.5" y="-242.5" font-family="Helvetica,sans-Serif" font-size="10.00">drv/adc_pooler.hpp</text>
</a>
</g>
</g>
<!-- Node21&#45;&gt;Node22 -->
<g id="edge22" class="edge">
<title>Node21&#45;&gt;Node22</title>
<path fill="none" stroke="midnightblue" d="M926.42,-291.44C966.9,-282.06 1031.92,-266.99 1075.88,-256.8"/>
<polygon fill="midnightblue" stroke="midnightblue" points="1076.8,-260.18 1085.75,-254.52 1075.22,-253.36 1076.8,-260.18"/>
</g>
<!-- Node23 -->
<g id="node17" class="node">
<title>Node23</title>
<g id="a_node17"><a xlink:href="base_2callbacks_8hpp.html" target="_top" xlink:title=" ">
<polygon fill="white" stroke="black" points="1139.5,-174 1139.5,-193 1249.5,-193 1249.5,-174 1139.5,-174"/>
<text text-anchor="middle" x="1194.5" y="-181" font-family="Helvetica,sans-Serif" font-size="10.00">base/callbacks.hpp</text>
</a>
</g>
</g>
<!-- Node22&#45;&gt;Node23 -->
<g id="edge23" class="edge">
<title>Node22&#45;&gt;Node23</title>
<path fill="none" stroke="midnightblue" d="M1132.82,-235.48C1144.15,-226.11 1162.57,-210.88 1176.34,-199.51"/>
<polygon fill="midnightblue" stroke="midnightblue" points="1178.72,-202.08 1184.2,-193.01 1174.27,-196.68 1178.72,-202.08"/>
</g>
<!-- Node22&#45;&gt;Node24 -->
<g id="edge27" class="edge">
<title>Node22&#45;&gt;Node24</title>
<path fill="none" stroke="midnightblue" d="M1149.01,-235.48C1181.15,-225.14 1235.49,-207.66 1271.43,-196.1"/>
<polygon fill="midnightblue" stroke="midnightblue" points="1272.6,-199.4 1281.04,-193.01 1270.45,-192.74 1272.6,-199.4"/>
</g>
<!-- Node26 -->
<g id="node19" class="node">
<title>Node26</title>
<g id="a_node19"><a xlink:href="sentry_8hpp.html" target="_top" xlink:title=" ">
<polygon fill="white" stroke="red" points="1032,-174 1032,-193 1121,-193 1121,-174 1032,-174"/>
<text text-anchor="middle" x="1076.5" y="-181" font-family="Helvetica,sans-Serif" font-size="10.00">sntr/sentry.hpp</text>
</a>
</g>
</g>
<!-- Node22&#45;&gt;Node26 -->
<g id="edge29" class="edge">
<title>Node22&#45;&gt;Node26</title>
<path fill="none" stroke="midnightblue" d="M1115.91,-235.48C1109.01,-226.55 1098,-212.31 1089.37,-201.14"/>
<polygon fill="midnightblue" stroke="midnightblue" points="1091.96,-198.78 1083.08,-193.01 1086.43,-203.06 1091.96,-198.78"/>
</g>
<!-- Node23&#45;&gt;Node6 -->
<g id="edge25" class="edge">
<title>Node23&#45;&gt;Node6</title>
<path fill="none" stroke="midnightblue" d="M1184.62,-173.79C1169.12,-160.22 1138.01,-133.37 1110.5,-112 1076.8,-85.82 1071.37,-73.61 1032.5,-56 980.03,-32.23 913.68,-20.34 873.75,-14.93"/>
<polygon fill="midnightblue" stroke="midnightblue" points="874.07,-11.45 863.7,-13.64 873.17,-18.39 874.07,-11.45"/>
</g>
<!-- Node23&#45;&gt;Node14 -->
<g id="edge24" class="edge">
<title>Node23&#45;&gt;Node14</title>
<path fill="none" stroke="midnightblue" d="M1157.42,-174C1148.31,-171.97 1138.56,-169.86 1129.5,-168 1067.66,-155.31 996.56,-142.16 947.9,-133.37"/>
<polygon fill="midnightblue" stroke="midnightblue" points="948.32,-129.89 937.86,-131.57 947.08,-136.78 948.32,-129.89"/>
</g>
<!-- Node23&#45;&gt;Node16 -->
<g id="edge26" class="edge">
<title>Node23&#45;&gt;Node16</title>
<path fill="none" stroke="midnightblue" d="M1180.14,-173.82C1147.29,-153.95 1066.42,-105.05 1026.52,-80.92"/>
<polygon fill="midnightblue" stroke="midnightblue" points="1028.13,-77.8 1017.76,-75.62 1024.51,-83.79 1028.13,-77.8"/>
</g>
<!-- Node24&#45;&gt;Node16 -->
<g id="edge28" class="edge">
<title>Node24&#45;&gt;Node16</title>
<path fill="none" stroke="midnightblue" d="M1284.65,-173.82C1230.37,-153.19 1093.7,-101.27 1033.16,-78.27"/>
<polygon fill="midnightblue" stroke="midnightblue" points="1034.37,-74.98 1023.78,-74.7 1031.88,-81.53 1034.37,-74.98"/>
</g>
<!-- Node27 -->
<g id="node20" class="node">
<title>Node27</title>
<g id="a_node20"><a xlink:href="sntr_2base_8hpp.html" target="_top" xlink:title=" ">
<polygon fill="white" stroke="red" points="614,-112.5 614,-131.5 697,-131.5 697,-112.5 614,-112.5"/>
<text text-anchor="middle" x="655.5" y="-119.5" font-family="Helvetica,sans-Serif" font-size="10.00">sntr/base.hpp</text>
</a>
</g>
</g>
<!-- Node26&#45;&gt;Node27 -->
<g id="edge30" class="edge">
<title>Node26&#45;&gt;Node27</title>
<path fill="none" stroke="midnightblue" d="M1031.84,-176.19C953.23,-165.08 790.56,-142.09 707.2,-130.31"/>
<polygon fill="midnightblue" stroke="midnightblue" points="707.59,-126.83 697.2,-128.89 706.61,-133.76 707.59,-126.83"/>
</g>
<!-- Node27&#45;&gt;Node4 -->
<g id="edge31" class="edge">
<title>Node27&#45;&gt;Node4</title>
<path fill="none" stroke="midnightblue" d="M646.75,-112.08C639.03,-104.22 627.6,-92.57 618.28,-83.08"/>
<polygon fill="midnightblue" stroke="midnightblue" points="620.59,-80.44 611.09,-75.75 615.6,-85.34 620.59,-80.44"/>
</g>
<!-- Node27&#45;&gt;Node6 -->
<g id="edge32" class="edge">
<title>Node27&#45;&gt;Node6</title>
<path fill="none" stroke="midnightblue" d="M669.86,-112.37C701.4,-93.41 776.94,-48 815.3,-24.94"/>
<polygon fill="midnightblue" stroke="midnightblue" points="817.44,-27.74 824.21,-19.59 813.83,-21.74 817.44,-27.74"/>
</g>
<!-- Node30&#45;&gt;Node4 -->
<g id="edge34" class="edge">
<title>Node30&#45;&gt;Node4</title>
<path fill="none" stroke="midnightblue" d="M662.46,-235.41C648.28,-217.51 616.61,-174.37 604.5,-132 600.18,-116.89 599.97,-98.99 600.67,-85.8"/>
<polygon fill="midnightblue" stroke="midnightblue" points="604.18,-85.86 601.45,-75.62 597.2,-85.32 604.18,-85.86"/>
</g>
<!-- Node30&#45;&gt;Node14 -->
<g id="edge35" class="edge">
<title>Node30&#45;&gt;Node14</title>
<path fill="none" stroke="midnightblue" d="M671.53,-235.44C675.74,-219.59 686.98,-185.68 709.5,-168 738.55,-145.19 777.7,-133.78 812.06,-128.14"/>
<polygon fill="midnightblue" stroke="midnightblue" points="812.72,-131.58 822.09,-126.64 811.68,-124.66 812.72,-131.58"/>
</g>
<!-- Node30&#45;&gt;Node17 -->
<g id="edge37" class="edge">
<title>Node30&#45;&gt;Node17</title>
<path fill="none" stroke="midnightblue" d="M687.41,-235.48C705.21,-227 733.08,-213.74 755.92,-202.86"/>
<polygon fill="midnightblue" stroke="midnightblue" points="757.51,-205.98 765.04,-198.52 754.51,-199.66 757.51,-205.98"/>
</g>
<!-- Node30&#45;&gt;Node24 -->
<g id="edge36" class="edge">
<title>Node30&#45;&gt;Node24</title>
<path fill="none" stroke="midnightblue" d="M710.65,-236.22C713.64,-235.77 716.61,-235.36 719.5,-235 957.79,-205.69 1022.17,-241.32 1258.5,-199 1263.22,-198.16 1268.13,-197.02 1272.94,-195.76"/>
<polygon fill="midnightblue" stroke="midnightblue" points="1273.91,-199.12 1282.58,-193.03 1272,-192.38 1273.91,-199.12"/>
</g>
<!-- Node31&#45;&gt;Node14 -->
<g id="edge39" class="edge">
<title>Node31&#45;&gt;Node14</title>
<path fill="none" stroke="midnightblue" d="M1414.22,-235.02C1405.79,-218.46 1385.33,-183.42 1356.5,-168 1290.97,-132.94 1081.55,-125 966.69,-123.33"/>
<polygon fill="midnightblue" stroke="midnightblue" points="966.6,-119.83 956.56,-123.19 966.51,-126.83 966.6,-119.83"/>
</g>
<!-- Node31&#45;&gt;Node15 -->
<g id="edge44" class="edge">
<title>Node31&#45;&gt;Node15</title>
<path fill="none" stroke="midnightblue" d="M1470.76,-242.96C1543.48,-240.35 1669.75,-231.16 1700.5,-199 1729.76,-168.39 1724.76,-113.78 1719.6,-85.34"/>
<polygon fill="midnightblue" stroke="midnightblue" points="1723.02,-84.63 1717.61,-75.52 1716.16,-86.02 1723.02,-84.63"/>
</g>
<!-- Node31&#45;&gt;Node17 -->
<g id="edge43" class="edge">
<title>Node31&#45;&gt;Node17</title>
<path fill="none" stroke="midnightblue" d="M1366.37,-239.03C1256.43,-228.55 1000.36,-204.13 871.48,-191.84"/>
<polygon fill="midnightblue" stroke="midnightblue" points="871.59,-188.33 861.3,-190.87 870.92,-195.3 871.59,-188.33"/>
</g>
<!-- Node31&#45;&gt;Node24 -->
<g id="edge40" class="edge">
<title>Node31&#45;&gt;Node24</title>
<path fill="none" stroke="midnightblue" d="M1402.6,-235.48C1384.22,-225.62 1353.74,-209.29 1332.26,-197.77"/>
<polygon fill="midnightblue" stroke="midnightblue" points="1333.84,-194.65 1323.37,-193.01 1330.53,-200.82 1333.84,-194.65"/>
</g>
<!-- Node31&#45;&gt;Node26 -->
<g id="edge41" class="edge">
<title>Node31&#45;&gt;Node26</title>
<path fill="none" stroke="midnightblue" d="M1366.43,-237.58C1308.51,-230.03 1212.31,-216.32 1130.5,-199 1125.76,-198 1120.82,-196.83 1115.94,-195.61"/>
<polygon fill="midnightblue" stroke="midnightblue" points="1116.63,-192.18 1106.07,-193.05 1114.87,-198.95 1116.63,-192.18"/>
</g>
<!-- Node32 -->
<g id="node23" class="node">
<title>Node32</title>
<g id="a_node23"><a xlink:title=" ">
<polygon fill="white" stroke="#bfbfbf" points="1404,-168.5 1404,-198.5 1537,-198.5 1537,-168.5 1404,-168.5"/>
<text text-anchor="start" x="1412" y="-186.5" font-family="Helvetica,sans-Serif" font-size="10.00">emlabcpp/experimental</text>
<text text-anchor="middle" x="1470.5" y="-175.5" font-family="Helvetica,sans-Serif" font-size="10.00">/cobs.h</text>
</a>
</g>
</g>
<!-- Node31&#45;&gt;Node32 -->
<g id="edge42" class="edge">
<title>Node31&#45;&gt;Node32</title>
<path fill="none" stroke="midnightblue" d="M1425.95,-235.48C1432.6,-227.87 1442.62,-216.4 1451.48,-206.26"/>
<polygon fill="midnightblue" stroke="midnightblue" points="1454.3,-208.36 1458.24,-198.52 1449.03,-203.75 1454.3,-208.36"/>
</g>
<!-- Node33 -->
<g id="node24" class="node">
<title>Node33</title>
<g id="a_node24"><a xlink:title=" ">
<polygon fill="white" stroke="#bfbfbf" points="1555.5,-168.5 1555.5,-198.5 1691.5,-198.5 1691.5,-168.5 1555.5,-168.5"/>
<text text-anchor="start" x="1563.5" y="-186.5" font-family="Helvetica,sans-Serif" font-size="10.00">emlabcpp/static_circular</text>
<text text-anchor="middle" x="1623.5" y="-175.5" font-family="Helvetica,sans-Serif" font-size="10.00">_buffer.h</text>
</a>
</g>
</g>
<!-- Node31&#45;&gt;Node33 -->
<g id="edge45" class="edge">
<title>Node31&#45;&gt;Node33</title>
<path fill="none" stroke="midnightblue" d="M1447.87,-235.48C1478.36,-226.63 1526.86,-212.55 1565.18,-201.43"/>
<polygon fill="midnightblue" stroke="midnightblue" points="1566.56,-204.67 1575.19,-198.52 1564.61,-197.95 1566.56,-204.67"/>
</g>
<!-- Node34&#45;&gt;Node14 -->
<g id="edge48" class="edge">
<title>Node34&#45;&gt;Node14</title>
<path fill="none" stroke="midnightblue" d="M997.08,-235.16C986.3,-220.54 963.57,-190.72 941.5,-168 931.23,-157.43 918.78,-146.59 908.63,-138.2"/>
<polygon fill="midnightblue" stroke="midnightblue" points="910.71,-135.38 900.75,-131.79 906.3,-140.81 910.71,-135.38"/>
</g>
<!-- Node34&#45;&gt;Node16 -->
<g id="edge52" class="edge">
<title>Node34&#45;&gt;Node16</title>
<path fill="none" stroke="midnightblue" d="M1003.5,-235.46C1003.5,-208.43 1003.5,-124.24 1003.5,-86.11"/>
<polygon fill="midnightblue" stroke="midnightblue" points="1007,-85.87 1003.5,-75.87 1000,-85.87 1007,-85.87"/>
</g>
<!-- Node34&#45;&gt;Node17 -->
<g id="edge51" class="edge">
<title>Node34&#45;&gt;Node17</title>
<path fill="none" stroke="midnightblue" d="M973.56,-235.48C942.34,-226.59 892.6,-212.43 853.46,-201.29"/>
<polygon fill="midnightblue" stroke="midnightblue" points="854.33,-197.89 843.76,-198.52 852.42,-204.63 854.33,-197.89"/>
</g>
<!-- Node34&#45;&gt;Node23 -->
<g id="edge47" class="edge">
<title>Node34&#45;&gt;Node23</title>
<path fill="none" stroke="midnightblue" d="M1030.87,-235.48C1064.05,-225.14 1120.15,-207.66 1157.26,-196.1"/>
<polygon fill="midnightblue" stroke="midnightblue" points="1158.68,-199.32 1167.19,-193.01 1156.6,-192.64 1158.68,-199.32"/>
</g>
<!-- Node34&#45;&gt;Node24 -->
<g id="edge49" class="edge">
<title>Node34&#45;&gt;Node24</title>
<path fill="none" stroke="midnightblue" d="M1050.11,-236.07C1118.1,-224.45 1238.59,-203.69 1258.5,-199 1262.58,-198.04 1266.82,-196.94 1271.03,-195.78"/>
<polygon fill="midnightblue" stroke="midnightblue" points="1272.03,-199.14 1280.69,-193.03 1270.11,-192.41 1272.03,-199.14"/>
</g>
<!-- Node34&#45;&gt;Node26 -->
<g id="edge50" class="edge">
<title>Node34&#45;&gt;Node26</title>
<path fill="none" stroke="midnightblue" d="M1013.96,-235.48C1025.45,-226.11 1044.13,-210.88 1058.09,-199.51"/>
<polygon fill="midnightblue" stroke="midnightblue" points="1060.52,-202.04 1066.06,-193.01 1056.1,-196.61 1060.52,-202.04"/>
</g>
<!-- Node35&#45;&gt;Node4 -->
<g id="edge54" class="edge">
<title>Node35&#45;&gt;Node4</title>
<path fill="none" stroke="midnightblue" d="M1011,-295.71C996.16,-294.13 979.05,-292.38 963.5,-291 854.75,-281.32 574.06,-297.52 473.5,-255 429.53,-236.41 385.82,-208.87 410.5,-168 440.88,-117.69 505.57,-91.18 551.45,-78.16"/>
<polygon fill="midnightblue" stroke="midnightblue" points="552.49,-81.5 561.22,-75.5 550.65,-74.75 552.49,-81.5"/>
</g>
<!-- Node35&#45;&gt;Node6 -->
<g id="edge59" class="edge">
<title>Node35&#45;&gt;Node6</title>
<path fill="none" stroke="midnightblue" d="M1088.29,-299.67C1265.76,-296.97 1983.06,-272.71 1776.5,-56 1744.79,-22.73 1040.84,-13.15 873.81,-11.35"/>
<polygon fill="midnightblue" stroke="midnightblue" points="873.64,-7.84 863.6,-11.24 873.56,-14.84 873.64,-7.84"/>
</g>
<!-- Node35&#45;&gt;Node14 -->
<g id="edge55" class="edge">
<title>Node35&#45;&gt;Node14</title>
<path fill="none" stroke="midnightblue" d="M1014.08,-291.43C992.51,-284.65 965.69,-273.22 947.5,-255 930.66,-238.13 906.77,-173.29 895.64,-141.2"/>
<polygon fill="midnightblue" stroke="midnightblue" points="898.94,-140.02 892.39,-131.69 892.32,-142.29 898.94,-140.02"/>
</g>
<!-- Node35&#45;&gt;Node17 -->
<g id="edge60" class="edge">
<title>Node35&#45;&gt;Node17</title>
<path fill="none" stroke="midnightblue" d="M1017.69,-291.44C989.87,-283.49 948.69,-270.53 914.5,-255 882.31,-240.38 847.72,-219.44 823.99,-204.18"/>
<polygon fill="midnightblue" stroke="midnightblue" points="825.74,-201.15 815.45,-198.64 821.93,-207.02 825.74,-201.15"/>
</g>
<!-- Node35&#45;&gt;Node24 -->
<g id="edge58" class="edge">
<title>Node35&#45;&gt;Node24</title>
<path fill="none" stroke="midnightblue" d="M1088.16,-296.98C1146.13,-291.71 1251.88,-279.05 1280.5,-255 1295.83,-242.12 1302.48,-219.51 1305.35,-203.37"/>
<polygon fill="midnightblue" stroke="midnightblue" points="1308.82,-203.82 1306.79,-193.43 1301.89,-202.82 1308.82,-203.82"/>
</g>
<!-- Node36 -->
<g id="node27" class="node">
<title>Node36</title>
<g id="a_node27"><a xlink:href="defs_8hpp.html" target="_top" xlink:title=" ">
<polygon fill="white" stroke="black" points="1195,-235.5 1195,-254.5 1272,-254.5 1272,-235.5 1195,-235.5"/>
<text text-anchor="middle" x="1233.5" y="-242.5" font-family="Helvetica,sans-Serif" font-size="10.00">drv/defs.hpp</text>
</a>
</g>
</g>
<!-- Node35&#45;&gt;Node36 -->
<g id="edge56" class="edge">
<title>Node35&#45;&gt;Node36</title>
<path fill="none" stroke="midnightblue" d="M1078.66,-291.44C1110.01,-282.24 1160.03,-267.56 1194.7,-257.39"/>
<polygon fill="midnightblue" stroke="midnightblue" points="1195.87,-260.69 1204.48,-254.52 1193.9,-253.97 1195.87,-260.69"/>
</g>
<!-- Node36&#45;&gt;Node24 -->
<g id="edge57" class="edge">
<title>Node36&#45;&gt;Node24</title>
<path fill="none" stroke="midnightblue" d="M1244.1,-235.48C1255.75,-226.11 1274.69,-210.88 1288.83,-199.51"/>
<polygon fill="midnightblue" stroke="midnightblue" points="1291.32,-202 1296.92,-193.01 1286.93,-196.55 1291.32,-202"/>
</g>
<!-- Node37&#45;&gt;Node14 -->
<g id="edge62" class="edge">
<title>Node37&#45;&gt;Node14</title>
<path fill="none" stroke="midnightblue" d="M218,-291.38C217.51,-282.32 216.78,-267.67 216.5,-255 216.3,-246.11 214.23,-243.59 216.5,-235 225.23,-201.9 225.55,-186.27 254.5,-168 266.16,-160.64 645.55,-137.41 812.24,-127.52"/>
<polygon fill="midnightblue" stroke="midnightblue" points="812.65,-131.01 822.43,-126.92 812.24,-124.02 812.65,-131.01"/>
</g>
<!-- Node39 -->
<g id="node30" class="node">
<title>Node39</title>
<g id="a_node30"><a xlink:title=" ">
<polygon fill="white" stroke="#bfbfbf" points="1946.5,-235.5 1946.5,-254.5 2010.5,-254.5 2010.5,-235.5 1946.5,-235.5"/>
<text text-anchor="middle" x="1978.5" y="-242.5" font-family="Helvetica,sans-Serif" font-size="10.00">algorithm</text>
</a>
</g>
</g>
<!-- Node38&#45;&gt;Node39 -->
<g id="edge64" class="edge">
<title>Node38&#45;&gt;Node39</title>
<path fill="none" stroke="midnightblue" d="M1947.61,-291.08C1952.78,-283.53 1960.35,-272.49 1966.69,-263.23"/>
<polygon fill="midnightblue" stroke="midnightblue" points="1969.74,-264.98 1972.5,-254.75 1963.96,-261.02 1969.74,-264.98"/>
</g>
<!-- Node40 -->
<g id="node31" class="node">
<title>Node40</title>
<g id="a_node31"><a xlink:title=" ">
<polygon fill="white" stroke="#bfbfbf" points="1878.5,-235.5 1878.5,-254.5 1928.5,-254.5 1928.5,-235.5 1878.5,-235.5"/>
<text text-anchor="middle" x="1903.5" y="-242.5" font-family="Helvetica,sans-Serif" font-size="10.00">cstring</text>
</a>
</g>
</g>
<!-- Node38&#45;&gt;Node40 -->
<g id="edge65" class="edge">
<title>Node38&#45;&gt;Node40</title>
<path fill="none" stroke="midnightblue" d="M1935.23,-291.08C1929.86,-283.46 1921.98,-272.26 1915.42,-262.94"/>
<polygon fill="midnightblue" stroke="midnightblue" points="1918.28,-260.91 1909.66,-254.75 1912.55,-264.94 1918.28,-260.91"/>
</g>
<!-- Node42&#45;&gt;Node14 -->
<g id="edge69" class="edge">
<title>Node42&#45;&gt;Node14</title>
<path fill="none" stroke="midnightblue" d="M558.9,-235.32C581.96,-219.57 633.47,-186.24 681.5,-168 724.96,-151.5 775.96,-140.34 816.57,-133.27"/>
<polygon fill="midnightblue" stroke="midnightblue" points="817.39,-136.68 826.66,-131.56 816.22,-129.78 817.39,-136.68"/>
</g>
<!-- Node42&#45;&gt;Node16 -->
<g id="edge74" class="edge">
<title>Node42&#45;&gt;Node16</title>
<path fill="none" stroke="midnightblue" d="M552.1,-235.26C562.72,-219.43 587.32,-185.96 616.5,-168 677.76,-130.29 893.37,-87.46 973.35,-72.5"/>
<polygon fill="midnightblue" stroke="midnightblue" points="974.08,-75.92 983.27,-70.66 972.8,-69.04 974.08,-75.92"/>
</g>
<!-- Node42&#45;&gt;Node17 -->
<g id="edge73" class="edge">
<title>Node42&#45;&gt;Node17</title>
<path fill="none" stroke="midnightblue" d="M582.03,-235.48C619.54,-226.48 679.59,-212.07 726.3,-200.86"/>
<polygon fill="midnightblue" stroke="midnightblue" points="727.14,-204.26 736.05,-198.52 725.51,-197.45 727.14,-204.26"/>
</g>
<!-- Node42&#45;&gt;Node27 -->
<g id="edge70" class="edge">
<title>Node42&#45;&gt;Node27</title>
<path fill="none" stroke="midnightblue" d="M482.36,-236.57C458.95,-230.41 434.75,-219.22 420.5,-199 412.56,-187.74 411.72,-178.62 420.5,-168 443.32,-140.4 541.98,-129.57 603.99,-125.43"/>
<polygon fill="midnightblue" stroke="midnightblue" points="604.22,-128.93 613.98,-124.8 603.78,-121.94 604.22,-128.93"/>
</g>
<!-- Node43 -->
<g id="node34" class="node">
<title>Node43</title>
<g id="a_node34"><a xlink:href="record_8hpp.html" target="_top" xlink:title=" ">
<polygon fill="white" stroke="black" points="429.5,-174 429.5,-193 519.5,-193 519.5,-174 429.5,-174"/>
<text text-anchor="middle" x="474.5" y="-181" font-family="Helvetica,sans-Serif" font-size="10.00">sntr/record.hpp</text>
</a>
</g>
</g>
<!-- Node42&#45;&gt;Node43 -->
<g id="edge71" class="edge">
<title>Node42&#45;&gt;Node43</title>
<path fill="none" stroke="midnightblue" d="M536.18,-235.48C524.85,-226.11 506.43,-210.88 492.66,-199.51"/>
<polygon fill="midnightblue" stroke="midnightblue" points="494.73,-196.68 484.8,-193.01 490.28,-202.08 494.73,-196.68"/>
</g>
<!-- Node43&#45;&gt;Node27 -->
<g id="edge72" class="edge">
<title>Node43&#45;&gt;Node27</title>
<path fill="none" stroke="midnightblue" d="M500.43,-173.98C531.75,-163.68 584.59,-146.31 619.76,-134.75"/>
<polygon fill="midnightblue" stroke="midnightblue" points="621.21,-137.96 629.62,-131.51 619.02,-131.31 621.21,-137.96"/>
</g>
</g>
</svg>
