<?xml version="1.0" encoding="UTF-8" standalone="no"?>
<!DOCTYPE svg PUBLIC "-//W3C//DTD SVG 1.1//EN"
 "http://www.w3.org/Graphics/SVG/1.1/DTD/svg11.dtd">
<!-- Generated by graphviz version 2.43.0 (0)
 -->
<!-- Title: src/protocol.cpp Pages: 1 -->
<svg width="733pt" height="252pt"
 viewBox="0.00 0.00 733.50 252.00" xmlns="http://www.w3.org/2000/svg" xmlns:xlink="http://www.w3.org/1999/xlink">
<g id="graph0" class="graph" transform="scale(1 1) rotate(0) translate(4 248)">
<title>src/protocol.cpp</title>
<polygon fill="white" stroke="transparent" points="-4,4 -4,-248 729.5,-248 729.5,4 -4,4"/>
<!-- Node1 -->
<g id="node1" class="node">
<title>Node1</title>
<g id="a_node1"><a xlink:title=" ">
<polygon fill="#bfbfbf" stroke="black" points="142.5,-224.5 142.5,-243.5 236.5,-243.5 236.5,-224.5 142.5,-224.5"/>
<text text-anchor="middle" x="189.5" y="-231.5" font-family="Helvetica,sans-Serif" font-size="10.00">src/protocol.cpp</text>
</a>
</g>
</g>
<!-- Node2 -->
<g id="node2" class="node">
<title>Node2</title>
<g id="a_node2"><a xlink:href="protocol_8hpp.html" target="_top" xlink:title=" ">
<polygon fill="white" stroke="black" points="151,-168.5 151,-187.5 228,-187.5 228,-168.5 151,-168.5"/>
<text text-anchor="middle" x="189.5" y="-175.5" font-family="Helvetica,sans-Serif" font-size="10.00">protocol.hpp</text>
</a>
</g>
</g>
<!-- Node1&#45;&gt;Node2 -->
<g id="edge1" class="edge">
<title>Node1&#45;&gt;Node2</title>
<path fill="none" stroke="midnightblue" d="M189.5,-224.08C189.5,-217.01 189.5,-206.86 189.5,-197.99"/>
<polygon fill="midnightblue" stroke="midnightblue" points="193,-197.75 189.5,-187.75 186,-197.75 193,-197.75"/>
</g>
<!-- Node3 -->
<g id="node3" class="node">
<title>Node3</title>
<g id="a_node3"><a xlink:href="base_8hpp.html" target="_top" xlink:title=" ">
<polygon fill="white" stroke="red" points="17,-56.5 17,-75.5 78,-75.5 78,-56.5 17,-56.5"/>
<text text-anchor="middle" x="47.5" y="-63.5" font-family="Helvetica,sans-Serif" font-size="10.00">base.hpp</text>
</a>
</g>
</g>
<!-- Node2&#45;&gt;Node3 -->
<g id="edge2" class="edge">
<title>Node2&#45;&gt;Node3</title>
<path fill="none" stroke="midnightblue" d="M150.61,-173.12C101.8,-167.35 22.32,-154.68 4.5,-132 -8.39,-115.6 9.83,-95.39 26.37,-81.9"/>
<polygon fill="midnightblue" stroke="midnightblue" points="28.89,-84.37 34.69,-75.51 24.63,-78.82 28.89,-84.37"/>
</g>
<!-- Node8 -->
<g id="node4" class="node">
<title>Node8</title>
<g id="a_node4"><a xlink:title=" ">
<polygon fill="white" stroke="#bfbfbf" points="16.5,-0.5 16.5,-19.5 140.5,-19.5 140.5,-0.5 16.5,-0.5"/>
<text text-anchor="middle" x="78.5" y="-7.5" font-family="Helvetica,sans-Serif" font-size="10.00">emlabcpp/algorithm.h</text>
</a>
</g>
</g>
<!-- Node2&#45;&gt;Node8 -->
<g id="edge6" class="edge">
<title>Node2&#45;&gt;Node8</title>
<path fill="none" stroke="midnightblue" d="M173.31,-168.4C159.76,-160.5 140.74,-147.66 128.5,-132 103.74,-100.33 89.33,-54.68 82.78,-29.47"/>
<polygon fill="midnightblue" stroke="midnightblue" points="86.18,-28.61 80.39,-19.74 79.38,-30.28 86.18,-28.61"/>
</g>
<!-- Node10 -->
<g id="node5" class="node">
<title>Node10</title>
<g id="a_node5"><a xlink:href="config_8hpp.html" target="_top" xlink:title=" ">
<polygon fill="white" stroke="red" points="14,-112.5 14,-131.5 81,-131.5 81,-112.5 14,-112.5"/>
<text text-anchor="middle" x="47.5" y="-119.5" font-family="Helvetica,sans-Serif" font-size="10.00">config.hpp</text>
</a>
</g>
</g>
<!-- Node2&#45;&gt;Node10 -->
<g id="edge4" class="edge">
<title>Node2&#45;&gt;Node10</title>
<path fill="none" stroke="midnightblue" d="M167,-168.44C143.42,-159.48 106.18,-145.31 79.54,-135.18"/>
<polygon fill="midnightblue" stroke="midnightblue" points="80.49,-131.8 69.89,-131.52 78,-138.34 80.49,-131.8"/>
</g>
<!-- Node13 -->
<g id="node6" class="node">
<title>Node13</title>
<g id="a_node6"><a xlink:title=" ">
<polygon fill="white" stroke="#bfbfbf" points="137.5,-112.5 137.5,-131.5 241.5,-131.5 241.5,-112.5 137.5,-112.5"/>
<text text-anchor="middle" x="189.5" y="-119.5" font-family="Helvetica,sans-Serif" font-size="10.00">emlabcpp/either.h</text>
</a>
</g>
</g>
<!-- Node2&#45;&gt;Node13 -->
<g id="edge7" class="edge">
<title>Node2&#45;&gt;Node13</title>
<path fill="none" stroke="midnightblue" d="M189.5,-168.08C189.5,-161.01 189.5,-150.86 189.5,-141.99"/>
<polygon fill="midnightblue" stroke="midnightblue" points="193,-141.75 189.5,-131.75 186,-141.75 193,-141.75"/>
</g>
<!-- Node14 -->
<g id="node7" class="node">
<title>Node14</title>
<g id="a_node7"><a xlink:title=" ">
<polygon fill="white" stroke="#bfbfbf" points="259.5,-112.5 259.5,-131.5 375.5,-131.5 375.5,-112.5 259.5,-112.5"/>
<text text-anchor="middle" x="317.5" y="-119.5" font-family="Helvetica,sans-Serif" font-size="10.00">emlabcpp/protocol.h</text>
</a>
</g>
</g>
<!-- Node2&#45;&gt;Node14 -->
<g id="edge8" class="edge">
<title>Node2&#45;&gt;Node14</title>
<path fill="none" stroke="midnightblue" d="M209.78,-168.44C230.85,-159.56 264.02,-145.56 287.98,-135.45"/>
<polygon fill="midnightblue" stroke="midnightblue" points="289.46,-138.63 297.31,-131.52 286.74,-132.18 289.46,-138.63"/>
</g>
<!-- Node15 -->
<g id="node8" class="node">
<title>Node15</title>
<g id="a_node8"><a xlink:title=" ">
<polygon fill="white" stroke="#bfbfbf" points="393.5,-112.5 393.5,-131.5 555.5,-131.5 555.5,-112.5 393.5,-112.5"/>
<text text-anchor="middle" x="474.5" y="-119.5" font-family="Helvetica,sans-Serif" font-size="10.00">emlabcpp/protocol/endpoint.h</text>
</a>
</g>
</g>
<!-- Node2&#45;&gt;Node15 -->
<g id="edge9" class="edge">
<title>Node2&#45;&gt;Node15</title>
<path fill="none" stroke="midnightblue" d="M228.23,-169.66C277.52,-160.32 362.98,-144.13 419.14,-133.49"/>
<polygon fill="midnightblue" stroke="midnightblue" points="420.09,-136.87 429.27,-131.57 418.79,-129.99 420.09,-136.87"/>
</g>
<!-- Node16 -->
<g id="node9" class="node">
<title>Node16</title>
<g id="a_node9"><a xlink:title=" ">
<polygon fill="white" stroke="#bfbfbf" points="573.5,-112.5 573.5,-131.5 725.5,-131.5 725.5,-112.5 573.5,-112.5"/>
<text text-anchor="middle" x="649.5" y="-119.5" font-family="Helvetica,sans-Serif" font-size="10.00">emlabcpp/protocol/packet.h</text>
</a>
</g>
</g>
<!-- Node2&#45;&gt;Node16 -->
<g id="edge10" class="edge">
<title>Node2&#45;&gt;Node16</title>
<path fill="none" stroke="midnightblue" d="M228.32,-172.44C302.77,-163.7 467.06,-144.42 567.02,-132.68"/>
<polygon fill="midnightblue" stroke="midnightblue" points="567.56,-136.14 577.09,-131.5 566.75,-129.19 567.56,-136.14"/>
</g>
<!-- Node3&#45;&gt;Node8 -->
<g id="edge3" class="edge">
<title>Node3&#45;&gt;Node8</title>
<path fill="none" stroke="midnightblue" d="M52.62,-56.08C56.91,-48.61 63.16,-37.72 68.44,-28.52"/>
<polygon fill="midnightblue" stroke="midnightblue" points="71.53,-30.17 73.48,-19.75 65.46,-26.68 71.53,-30.17"/>
</g>
<!-- Node10&#45;&gt;Node3 -->
<g id="edge5" class="edge">
<title>Node10&#45;&gt;Node3</title>
<path fill="none" stroke="midnightblue" d="M47.5,-112.08C47.5,-105.01 47.5,-94.86 47.5,-85.99"/>
<polygon fill="midnightblue" stroke="midnightblue" points="51,-85.75 47.5,-75.75 44,-85.75 51,-85.75"/>
</g>
</g>
</svg>
