<?xml version="1.0" encoding="UTF-8" standalone="no"?>
<!DOCTYPE svg PUBLIC "-//W3C//DTD SVG 1.1//EN"
 "http://www.w3.org/Graphics/SVG/1.1/DTD/svg11.dtd">
<!-- Generated by graphviz version 2.43.0 (0)
 -->
<!-- Title: boards/proto3/board.cpp Pages: 1 -->
<svg width="1344pt" height="375pt"
 viewBox="0.00 0.00 1343.50 375.00" xmlns="http://www.w3.org/2000/svg" xmlns:xlink="http://www.w3.org/1999/xlink">
<g id="graph0" class="graph" transform="scale(1 1) rotate(0) translate(4 371)">
<title>boards/proto3/board.cpp</title>
<polygon fill="white" stroke="transparent" points="-4,4 -4,-371 1339.5,-371 1339.5,4 -4,4"/>
<!-- Node1 -->
<g id="node1" class="node">
<title>Node1</title>
<g id="a_node1"><a xlink:title=" ">
<polygon fill="#bfbfbf" stroke="black" points="587,-347.5 587,-366.5 722,-366.5 722,-347.5 587,-347.5"/>
<text text-anchor="middle" x="654.5" y="-354.5" font-family="Helvetica,sans-Serif" font-size="10.00">boards/proto3/board.cpp</text>
</a>
</g>
</g>
<!-- Node2 -->
<g id="node2" class="node">
<title>Node2</title>
<g id="a_node2"><a xlink:href="brd_8hpp.html" target="_top" xlink:title=" ">
<polygon fill="white" stroke="black" points="256,-291.5 256,-310.5 309,-310.5 309,-291.5 256,-291.5"/>
<text text-anchor="middle" x="282.5" y="-298.5" font-family="Helvetica,sans-Serif" font-size="10.00">brd.hpp</text>
</a>
</g>
</g>
<!-- Node1&#45;&gt;Node2 -->
<g id="edge1" class="edge">
<title>Node1&#45;&gt;Node2</title>
<path fill="none" stroke="midnightblue" d="M595.56,-347.44C517.93,-336.18 383.74,-316.7 319.23,-307.33"/>
<polygon fill="midnightblue" stroke="midnightblue" points="319.52,-303.84 309.12,-305.86 318.52,-310.76 319.52,-303.84"/>
</g>
<!-- Node13 -->
<g id="node7" class="node">
<title>Node13</title>
<g id="a_node7"><a xlink:href="core__drivers_8hpp.html" target="_top" xlink:title=" ">
<polygon fill="white" stroke="black" points="233.5,-235.5 233.5,-254.5 331.5,-254.5 331.5,-235.5 233.5,-235.5"/>
<text text-anchor="middle" x="282.5" y="-242.5" font-family="Helvetica,sans-Serif" font-size="10.00">core_drivers.hpp</text>
</a>
</g>
</g>
<!-- Node1&#45;&gt;Node13 -->
<g id="edge17" class="edge">
<title>Node1&#45;&gt;Node13</title>
<path fill="none" stroke="midnightblue" d="M586.87,-348.07C538.57,-341.25 472.5,-329.51 416.5,-311 375.83,-297.56 331.69,-274.29 305.59,-259.55"/>
<polygon fill="midnightblue" stroke="midnightblue" points="307.25,-256.47 296.84,-254.54 303.78,-262.54 307.25,-256.47"/>
</g>
<!-- Node16 -->
<g id="node9" class="node">
<title>Node16</title>
<g id="a_node9"><a xlink:title=" ">
<polygon fill="white" stroke="#bfbfbf" points="726.5,-56.5 726.5,-75.5 830.5,-75.5 830.5,-56.5 726.5,-56.5"/>
<text text-anchor="middle" x="778.5" y="-63.5" font-family="Helvetica,sans-Serif" font-size="10.00">emlabcpp/result.h</text>
</a>
</g>
</g>
<!-- Node1&#45;&gt;Node16 -->
<g id="edge55" class="edge">
<title>Node1&#45;&gt;Node16</title>
<path fill="none" stroke="midnightblue" d="M722.17,-354.58C855.1,-349.94 1137.5,-330.17 1137.5,-246 1137.5,-246 1137.5,-246 1137.5,-182.5 1137.5,-120.88 943.41,-87.43 840.65,-74.04"/>
<polygon fill="midnightblue" stroke="midnightblue" points="841.06,-70.57 830.7,-72.77 840.18,-77.51 841.06,-70.57"/>
</g>
<!-- Node19 -->
<g id="node12" class="node">
<title>Node19</title>
<g id="a_node12"><a xlink:href="default_8hpp.html" target="_top" xlink:title=" ">
<polygon fill="white" stroke="black" points="6.5,-291.5 6.5,-310.5 96.5,-310.5 96.5,-291.5 6.5,-291.5"/>
<text text-anchor="middle" x="51.5" y="-298.5" font-family="Helvetica,sans-Serif" font-size="10.00">cfg/default.hpp</text>
</a>
</g>
</g>
<!-- Node1&#45;&gt;Node19 -->
<g id="edge14" class="edge">
<title>Node1&#45;&gt;Node19</title>
<path fill="none" stroke="midnightblue" d="M586.79,-349.94C466.53,-339.17 217.89,-316.9 107,-306.97"/>
<polygon fill="midnightblue" stroke="midnightblue" points="106.98,-303.45 96.7,-306.05 106.35,-310.43 106.98,-303.45"/>
</g>
<!-- Node20 -->
<g id="node13" class="node">
<title>Node20</title>
<g id="a_node13"><a xlink:href="adc__pooler__def_8hpp.html" target="_top" xlink:title=" ">
<polygon fill="white" stroke="black" points="425.5,-291.5 425.5,-310.5 569.5,-310.5 569.5,-291.5 425.5,-291.5"/>
<text text-anchor="middle" x="497.5" y="-298.5" font-family="Helvetica,sans-Serif" font-size="10.00">fw/drv/adc_pooler_def.hpp</text>
</a>
</g>
</g>
<!-- Node1&#45;&gt;Node20 -->
<g id="edge18" class="edge">
<title>Node1&#45;&gt;Node20</title>
<path fill="none" stroke="midnightblue" d="M629.62,-347.44C603.21,-338.36 561.28,-323.94 531.76,-313.78"/>
<polygon fill="midnightblue" stroke="midnightblue" points="532.86,-310.46 522.26,-310.52 530.58,-317.08 532.86,-310.46"/>
</g>
<!-- Node23 -->
<g id="node16" class="node">
<title>Node23</title>
<g id="a_node16"><a xlink:href="platform_8hpp.html" target="_top" xlink:title=" ">
<polygon fill="white" stroke="red" points="647.5,-174 647.5,-193 727.5,-193 727.5,-174 647.5,-174"/>
<text text-anchor="middle" x="687.5" y="-181" font-family="Helvetica,sans-Serif" font-size="10.00">platform.hpp</text>
</a>
</g>
</g>
<!-- Node1&#45;&gt;Node23 -->
<g id="edge53" class="edge">
<title>Node1&#45;&gt;Node23</title>
<path fill="none" stroke="midnightblue" d="M687.29,-347.49C727.73,-334.95 794.34,-307.17 820.5,-255 824.48,-247.05 825.55,-242.32 820.5,-235 817.53,-230.7 760.28,-209.98 721.87,-196.46"/>
<polygon fill="midnightblue" stroke="midnightblue" points="722.67,-193.03 712.07,-193.02 720.35,-199.63 722.67,-193.03"/>
</g>
<!-- Node25 -->
<g id="node17" class="node">
<title>Node25</title>
<g id="a_node17"><a xlink:href="clock_8hpp.html" target="_top" xlink:title=" ">
<polygon fill="white" stroke="black" points="567.5,-235.5 567.5,-254.5 663.5,-254.5 663.5,-235.5 567.5,-235.5"/>
<text text-anchor="middle" x="615.5" y="-242.5" font-family="Helvetica,sans-Serif" font-size="10.00">fw/drv/clock.hpp</text>
</a>
</g>
</g>
<!-- Node1&#45;&gt;Node25 -->
<g id="edge25" class="edge">
<title>Node1&#45;&gt;Node25</title>
<path fill="none" stroke="midnightblue" d="M650.87,-347.44C647.11,-338.44 641.13,-323.82 636.5,-311 630.9,-295.49 625.19,-277.65 621.14,-264.59"/>
<polygon fill="midnightblue" stroke="midnightblue" points="624.44,-263.43 618.16,-254.9 617.75,-265.48 624.44,-263.43"/>
</g>
<!-- Node26 -->
<g id="node18" class="node">
<title>Node26</title>
<g id="a_node18"><a xlink:href="cobs__uart_8hpp.html" target="_top" xlink:title=" ">
<polygon fill="white" stroke="black" points="867.5,-235.5 867.5,-254.5 985.5,-254.5 985.5,-235.5 867.5,-235.5"/>
<text text-anchor="middle" x="926.5" y="-242.5" font-family="Helvetica,sans-Serif" font-size="10.00">fw/drv/cobs_uart.hpp</text>
</a>
</g>
</g>
<!-- Node1&#45;&gt;Node26 -->
<g id="edge30" class="edge">
<title>Node1&#45;&gt;Node26</title>
<path fill="none" stroke="midnightblue" d="M722.37,-349.26C762.26,-343.25 812.71,-331.98 853.5,-311 876.96,-298.93 898.86,-277.55 912.43,-262.61"/>
<polygon fill="midnightblue" stroke="midnightblue" points="915.43,-264.5 919.41,-254.68 910.17,-259.88 915.43,-264.5"/>
</g>
<!-- Node29 -->
<g id="node21" class="node">
<title>Node29</title>
<g id="a_node21"><a xlink:href="hbridge_8hpp.html" target="_top" xlink:title=" ">
<polygon fill="white" stroke="black" points="108,-235.5 108,-254.5 215,-254.5 215,-235.5 108,-235.5"/>
<text text-anchor="middle" x="161.5" y="-242.5" font-family="Helvetica,sans-Serif" font-size="10.00">fw/drv/hbridge.hpp</text>
</a>
</g>
</g>
<!-- Node1&#45;&gt;Node29 -->
<g id="edge36" class="edge">
<title>Node1&#45;&gt;Node29</title>
<path fill="none" stroke="midnightblue" d="M586.61,-352.92C487.02,-347.66 306.61,-335.1 246.5,-311 218.9,-299.93 192.57,-277.29 176.73,-261.87"/>
<polygon fill="midnightblue" stroke="midnightblue" points="178.98,-259.18 169.44,-254.57 174.03,-264.12 178.98,-259.18"/>
</g>
<!-- Node30 -->
<g id="node22" class="node">
<title>Node30</title>
<g id="a_node22"><a xlink:href="leds_8hpp.html" target="_top" xlink:title=" ">
<polygon fill="white" stroke="black" points="646,-291.5 646,-310.5 737,-310.5 737,-291.5 646,-291.5"/>
<text text-anchor="middle" x="691.5" y="-298.5" font-family="Helvetica,sans-Serif" font-size="10.00">fw/drv/leds.hpp</text>
</a>
</g>
</g>
<!-- Node1&#45;&gt;Node30 -->
<g id="edge42" class="edge">
<title>Node1&#45;&gt;Node30</title>
<path fill="none" stroke="midnightblue" d="M660.61,-347.08C665.78,-339.53 673.35,-328.49 679.69,-319.23"/>
<polygon fill="midnightblue" stroke="midnightblue" points="682.74,-320.98 685.5,-310.75 676.96,-317.02 682.74,-320.98"/>
</g>
<!-- Node32 -->
<g id="node24" class="node">
<title>Node32</title>
<g id="a_node24"><a xlink:href="util_8hpp.html" target="_top" xlink:title=" ">
<polygon fill="white" stroke="black" points="1179.5,-291.5 1179.5,-310.5 1247.5,-310.5 1247.5,-291.5 1179.5,-291.5"/>
<text text-anchor="middle" x="1213.5" y="-298.5" font-family="Helvetica,sans-Serif" font-size="10.00">fw/util.hpp</text>
</a>
</g>
</g>
<!-- Node1&#45;&gt;Node32 -->
<g id="edge50" class="edge">
<title>Node1&#45;&gt;Node32</title>
<path fill="none" stroke="midnightblue" d="M722.15,-351.04C817.89,-343.75 998.34,-329.04 1151.5,-311 1157.31,-310.32 1163.42,-309.52 1169.44,-308.69"/>
<polygon fill="midnightblue" stroke="midnightblue" points="1170.02,-312.15 1179.43,-307.28 1169.04,-305.22 1170.02,-312.15"/>
</g>
<!-- Node35 -->
<g id="node27" class="node">
<title>Node35</title>
<g id="a_node27"><a xlink:title=" ">
<polygon fill="white" stroke="#bfbfbf" points="1266,-291.5 1266,-310.5 1331,-310.5 1331,-291.5 1266,-291.5"/>
<text text-anchor="middle" x="1298.5" y="-298.5" font-family="Helvetica,sans-Serif" font-size="10.00">setup.hpp</text>
</a>
</g>
</g>
<!-- Node1&#45;&gt;Node35 -->
<g id="edge54" class="edge">
<title>Node1&#45;&gt;Node35</title>
<path fill="none" stroke="midnightblue" d="M722.09,-353.96C831.95,-349.97 1056.2,-339.09 1255.49,-310.94"/>
<polygon fill="midnightblue" stroke="midnightblue" points="1256.16,-314.38 1265.56,-309.5 1255.17,-307.45 1256.16,-314.38"/>
</g>
<!-- Node3 -->
<g id="node3" class="node">
<title>Node3</title>
<g id="a_node3"><a xlink:href="map_8hpp.html" target="_top" xlink:title=" ">
<polygon fill="white" stroke="red" points="13,-235.5 13,-254.5 90,-254.5 90,-235.5 13,-235.5"/>
<text text-anchor="middle" x="51.5" y="-242.5" font-family="Helvetica,sans-Serif" font-size="10.00">cfg/map.hpp</text>
</a>
</g>
</g>
<!-- Node2&#45;&gt;Node3 -->
<g id="edge2" class="edge">
<title>Node2&#45;&gt;Node3</title>
<path fill="none" stroke="midnightblue" d="M255.55,-293.7C216.96,-284.68 145.43,-267.96 98.14,-256.9"/>
<polygon fill="midnightblue" stroke="midnightblue" points="98.68,-253.43 88.15,-254.57 97.09,-260.25 98.68,-253.43"/>
</g>
<!-- Node2&#45;&gt;Node13 -->
<g id="edge7" class="edge">
<title>Node2&#45;&gt;Node13</title>
<path fill="none" stroke="midnightblue" d="M282.5,-291.08C282.5,-284.01 282.5,-273.86 282.5,-264.99"/>
<polygon fill="midnightblue" stroke="midnightblue" points="286,-264.75 282.5,-254.75 279,-264.75 286,-264.75"/>
</g>
<!-- Node4 -->
<g id="node4" class="node">
<title>Node4</title>
<g id="a_node4"><a xlink:href="base_8hpp.html" target="_top" xlink:title=" ">
<polygon fill="white" stroke="red" points="329,-56.5 329,-75.5 390,-75.5 390,-56.5 329,-56.5"/>
<text text-anchor="middle" x="359.5" y="-63.5" font-family="Helvetica,sans-Serif" font-size="10.00">base.hpp</text>
</a>
</g>
</g>
<!-- Node3&#45;&gt;Node4 -->
<g id="edge3" class="edge">
<title>Node3&#45;&gt;Node4</title>
<path fill="none" stroke="midnightblue" d="M90.08,-236.64C145.71,-225.87 243.49,-206.3 258.5,-199 300.52,-178.57 313.54,-170.84 339.5,-132 348.83,-118.04 353.96,-99.54 356.69,-85.84"/>
<polygon fill="midnightblue" stroke="midnightblue" points="360.19,-86.13 358.45,-75.68 353.29,-84.93 360.19,-86.13"/>
</g>
<!-- Node9 -->
<g id="node6" class="node">
<title>Node9</title>
<g id="a_node6"><a xlink:href="key_8hpp.html" target="_top" xlink:title=" ">
<polygon fill="white" stroke="black" points="0,-174 0,-193 71,-193 71,-174 0,-174"/>
<text text-anchor="middle" x="35.5" y="-181" font-family="Helvetica,sans-Serif" font-size="10.00">cfg/key.hpp</text>
</a>
</g>
</g>
<!-- Node3&#45;&gt;Node9 -->
<g id="edge5" class="edge">
<title>Node3&#45;&gt;Node9</title>
<path fill="none" stroke="midnightblue" d="M49.21,-235.48C46.93,-226.99 43.35,-213.7 40.43,-202.82"/>
<polygon fill="midnightblue" stroke="midnightblue" points="43.76,-201.76 37.79,-193.01 37.01,-203.57 43.76,-201.76"/>
</g>
<!-- Node6 -->
<g id="node5" class="node">
<title>Node6</title>
<g id="a_node5"><a xlink:title=" ">
<polygon fill="white" stroke="#bfbfbf" points="252.5,-0.5 252.5,-19.5 302.5,-19.5 302.5,-0.5 252.5,-0.5"/>
<text text-anchor="middle" x="277.5" y="-7.5" font-family="Helvetica,sans-Serif" font-size="10.00">cstdint</text>
</a>
</g>
</g>
<!-- Node4&#45;&gt;Node6 -->
<g id="edge4" class="edge">
<title>Node4&#45;&gt;Node6</title>
<path fill="none" stroke="midnightblue" d="M346.33,-56.32C333.65,-47.98 314.27,-35.21 299.29,-25.35"/>
<polygon fill="midnightblue" stroke="midnightblue" points="300.92,-22.23 290.64,-19.65 297.07,-28.08 300.92,-22.23"/>
</g>
<!-- Node9&#45;&gt;Node6 -->
<g id="edge6" class="edge">
<title>Node9&#45;&gt;Node6</title>
<path fill="none" stroke="midnightblue" d="M41.12,-173.78C56.15,-151.13 99.58,-89.85 150.5,-56 178.83,-37.17 215.95,-25.21 242.74,-18.39"/>
<polygon fill="midnightblue" stroke="midnightblue" points="243.57,-21.79 252.46,-16.03 241.92,-14.99 243.57,-21.79"/>
</g>
<!-- Node14 -->
<g id="node8" class="node">
<title>Node14</title>
<g id="a_node8"><a xlink:href="drv__interfaces_8hpp.html" target="_top" xlink:title=" ">
<polygon fill="white" stroke="red" points="224,-112.5 224,-131.5 331,-131.5 331,-112.5 224,-112.5"/>
<text text-anchor="middle" x="277.5" y="-119.5" font-family="Helvetica,sans-Serif" font-size="10.00">drv_interfaces.hpp</text>
</a>
</g>
</g>
<!-- Node13&#45;&gt;Node14 -->
<g id="edge8" class="edge">
<title>Node13&#45;&gt;Node14</title>
<path fill="none" stroke="midnightblue" d="M285.11,-235.08C288.92,-220.86 295.17,-192.17 291.5,-168 290.13,-159 287.31,-149.33 284.55,-141.26"/>
<polygon fill="midnightblue" stroke="midnightblue" points="287.81,-139.98 281.1,-131.78 281.23,-142.37 287.81,-139.98"/>
</g>
<!-- Node18 -->
<g id="node11" class="node">
<title>Node18</title>
<g id="a_node11"><a xlink:title=" ">
<polygon fill="white" stroke="#bfbfbf" points="420,-168.5 420,-198.5 553,-198.5 553,-168.5 420,-168.5"/>
<text text-anchor="start" x="428" y="-186.5" font-family="Helvetica,sans-Serif" font-size="10.00">emlabcpp/experimental</text>
<text text-anchor="middle" x="486.5" y="-175.5" font-family="Helvetica,sans-Serif" font-size="10.00">/function_view.h</text>
</a>
</g>
</g>
<!-- Node13&#45;&gt;Node18 -->
<g id="edge13" class="edge">
<title>Node13&#45;&gt;Node18</title>
<path fill="none" stroke="midnightblue" d="M311.73,-235.48C342.07,-226.63 390.33,-212.55 428.46,-201.43"/>
<polygon fill="midnightblue" stroke="midnightblue" points="429.8,-204.68 438.42,-198.52 427.84,-197.96 429.8,-204.68"/>
</g>
<!-- Node14&#45;&gt;Node4 -->
<g id="edge9" class="edge">
<title>Node14&#45;&gt;Node4</title>
<path fill="none" stroke="midnightblue" d="M290.67,-112.32C303.35,-103.98 322.73,-91.21 337.71,-81.35"/>
<polygon fill="midnightblue" stroke="midnightblue" points="339.93,-84.08 346.36,-75.65 336.08,-78.23 339.93,-84.08"/>
</g>
<!-- Node14&#45;&gt;Node6 -->
<g id="edge10" class="edge">
<title>Node14&#45;&gt;Node6</title>
<path fill="none" stroke="midnightblue" d="M277.5,-112.37C277.5,-94.62 277.5,-53.67 277.5,-29.6"/>
<polygon fill="midnightblue" stroke="midnightblue" points="281,-29.59 277.5,-19.59 274,-29.59 281,-29.59"/>
</g>
<!-- Node14&#45;&gt;Node16 -->
<g id="edge11" class="edge">
<title>Node14&#45;&gt;Node16</title>
<path fill="none" stroke="midnightblue" d="M331.12,-115.22C424.61,-105.14 616.97,-84.41 716.22,-73.71"/>
<polygon fill="midnightblue" stroke="midnightblue" points="716.83,-77.17 726.4,-72.62 716.08,-70.21 716.83,-77.17"/>
</g>
<!-- Node17 -->
<g id="node10" class="node">
<title>Node17</title>
<g id="a_node10"><a xlink:title=" ">
<polygon fill="white" stroke="#bfbfbf" points="171.5,-56.5 171.5,-75.5 211.5,-75.5 211.5,-56.5 171.5,-56.5"/>
<text text-anchor="middle" x="191.5" y="-63.5" font-family="Helvetica,sans-Serif" font-size="10.00">span</text>
</a>
</g>
</g>
<!-- Node14&#45;&gt;Node17 -->
<g id="edge12" class="edge">
<title>Node14&#45;&gt;Node17</title>
<path fill="none" stroke="midnightblue" d="M263.68,-112.32C250.27,-103.9 229.68,-90.97 213.91,-81.07"/>
<polygon fill="midnightblue" stroke="midnightblue" points="215.61,-78.01 205.28,-75.65 211.89,-83.94 215.61,-78.01"/>
</g>
<!-- Node19&#45;&gt;Node3 -->
<g id="edge16" class="edge">
<title>Node19&#45;&gt;Node3</title>
<path fill="none" stroke="midnightblue" d="M51.5,-291.08C51.5,-284.01 51.5,-273.86 51.5,-264.99"/>
<polygon fill="midnightblue" stroke="midnightblue" points="55,-264.75 51.5,-254.75 48,-264.75 55,-264.75"/>
</g>
<!-- Node19&#45;&gt;Node9 -->
<g id="edge15" class="edge">
<title>Node19&#45;&gt;Node9</title>
<path fill="none" stroke="midnightblue" d="M37.13,-291.33C25.62,-283.47 10.31,-270.72 3.5,-255 -4.63,-236.24 8.21,-214.87 19.96,-200.63"/>
<polygon fill="midnightblue" stroke="midnightblue" points="22.58,-202.95 26.59,-193.14 17.34,-198.31 22.58,-202.95"/>
</g>
<!-- Node21 -->
<g id="node14" class="node">
<title>Node21</title>
<g id="a_node14"><a xlink:href="adc__pooler_8hpp.html" target="_top" xlink:title=" ">
<polygon fill="white" stroke="black" points="350,-235.5 350,-254.5 473,-254.5 473,-235.5 350,-235.5"/>
<text text-anchor="middle" x="411.5" y="-242.5" font-family="Helvetica,sans-Serif" font-size="10.00">fw/drv/adc_pooler.hpp</text>
</a>
</g>
</g>
<!-- Node20&#45;&gt;Node21 -->
<g id="edge19" class="edge">
<title>Node20&#45;&gt;Node21</title>
<path fill="none" stroke="midnightblue" d="M483.68,-291.32C470.27,-282.9 449.68,-269.97 433.91,-260.07"/>
<polygon fill="midnightblue" stroke="midnightblue" points="435.61,-257.01 425.28,-254.65 431.89,-262.94 435.61,-257.01"/>
</g>
<!-- Node22 -->
<g id="node15" class="node">
<title>Node22</title>
<g id="a_node15"><a xlink:href="fw_2drv_2callbacks_8hpp.html" target="_top" xlink:title=" ">
<polygon fill="white" stroke="black" points="133.5,-174 133.5,-193 249.5,-193 249.5,-174 133.5,-174"/>
<text text-anchor="middle" x="191.5" y="-181" font-family="Helvetica,sans-Serif" font-size="10.00">fw/drv/callbacks.hpp</text>
</a>
</g>
</g>
<!-- Node21&#45;&gt;Node22 -->
<g id="edge20" class="edge">
<title>Node21&#45;&gt;Node22</title>
<path fill="none" stroke="midnightblue" d="M379.98,-235.48C341.26,-225 275.48,-207.21 232.76,-195.66"/>
<polygon fill="midnightblue" stroke="midnightblue" points="233.53,-192.24 222.96,-193.01 231.7,-199 233.53,-192.24"/>
</g>
<!-- Node21&#45;&gt;Node23 -->
<g id="edge24" class="edge">
<title>Node21&#45;&gt;Node23</title>
<path fill="none" stroke="midnightblue" d="M451.04,-235.48C500.33,-224.85 584.59,-206.68 638.09,-195.15"/>
<polygon fill="midnightblue" stroke="midnightblue" points="638.99,-198.54 648.03,-193.01 637.52,-191.7 638.99,-198.54"/>
</g>
<!-- Node22&#45;&gt;Node6 -->
<g id="edge22" class="edge">
<title>Node22&#45;&gt;Node6</title>
<path fill="none" stroke="midnightblue" d="M185.41,-173.98C170.72,-152.32 136.46,-94.15 162.5,-56 180.21,-30.05 215.33,-19.06 242.12,-14.41"/>
<polygon fill="midnightblue" stroke="midnightblue" points="242.93,-17.83 252.29,-12.88 241.88,-10.91 242.93,-17.83"/>
</g>
<!-- Node22&#45;&gt;Node14 -->
<g id="edge21" class="edge">
<title>Node22&#45;&gt;Node14</title>
<path fill="none" stroke="midnightblue" d="M203.82,-173.98C217.62,-164.43 240.2,-148.81 256.73,-137.37"/>
<polygon fill="midnightblue" stroke="midnightblue" points="258.97,-140.08 265.2,-131.51 254.99,-134.32 258.97,-140.08"/>
</g>
<!-- Node22&#45;&gt;Node17 -->
<g id="edge23" class="edge">
<title>Node22&#45;&gt;Node17</title>
<path fill="none" stroke="midnightblue" d="M191.5,-173.82C191.5,-155.26 191.5,-111.34 191.5,-85.97"/>
<polygon fill="midnightblue" stroke="midnightblue" points="195,-85.78 191.5,-75.78 188,-85.78 195,-85.78"/>
</g>
<!-- Node25&#45;&gt;Node4 -->
<g id="edge26" class="edge">
<title>Node25&#45;&gt;Node4</title>
<path fill="none" stroke="midnightblue" d="M615.04,-235.35C613.79,-219.94 609.09,-187.54 591.5,-168 540.38,-111.23 451.65,-84.98 400,-73.98"/>
<polygon fill="midnightblue" stroke="midnightblue" points="400.69,-70.55 390.19,-71.98 399.29,-77.41 400.69,-70.55"/>
</g>
<!-- Node25&#45;&gt;Node14 -->
<g id="edge27" class="edge">
<title>Node25&#45;&gt;Node14</title>
<path fill="none" stroke="midnightblue" d="M612.01,-235.2C605.08,-218.94 587.91,-184.38 561.5,-168 525.71,-145.81 413.76,-133.32 341.57,-127.39"/>
<polygon fill="midnightblue" stroke="midnightblue" points="341.46,-123.87 331.22,-126.56 340.91,-130.85 341.46,-123.87"/>
</g>
<!-- Node25&#45;&gt;Node18 -->
<g id="edge29" class="edge">
<title>Node25&#45;&gt;Node18</title>
<path fill="none" stroke="midnightblue" d="M597.02,-235.48C578.57,-226.96 549.63,-213.62 526,-202.72"/>
<polygon fill="midnightblue" stroke="midnightblue" points="527.45,-199.53 516.9,-198.52 524.52,-205.89 527.45,-199.53"/>
</g>
<!-- Node25&#45;&gt;Node23 -->
<g id="edge28" class="edge">
<title>Node25&#45;&gt;Node23</title>
<path fill="none" stroke="midnightblue" d="M625.82,-235.48C637.15,-226.11 655.57,-210.88 669.34,-199.51"/>
<polygon fill="midnightblue" stroke="midnightblue" points="671.72,-202.08 677.2,-193.01 667.27,-196.68 671.72,-202.08"/>
</g>
<!-- Node26&#45;&gt;Node14 -->
<g id="edge31" class="edge">
<title>Node26&#45;&gt;Node14</title>
<path fill="none" stroke="midnightblue" d="M880.79,-235.44C849.63,-228.43 808.08,-216.74 774.5,-199 755.23,-188.82 756.65,-176.31 736.5,-168 666.67,-139.21 450.47,-128.42 341.57,-124.73"/>
<polygon fill="midnightblue" stroke="midnightblue" points="341.48,-121.22 331.37,-124.39 341.25,-128.22 341.48,-121.22"/>
</g>
<!-- Node26&#45;&gt;Node18 -->
<g id="edge34" class="edge">
<title>Node26&#45;&gt;Node18</title>
<path fill="none" stroke="midnightblue" d="M867.16,-235.98C788.52,-225.34 649.68,-206.57 563.17,-194.87"/>
<polygon fill="midnightblue" stroke="midnightblue" points="563.53,-191.39 553.15,-193.51 562.59,-198.32 563.53,-191.39"/>
</g>
<!-- Node26&#45;&gt;Node23 -->
<g id="edge32" class="edge">
<title>Node26&#45;&gt;Node23</title>
<path fill="none" stroke="midnightblue" d="M890.28,-235.46C852.94,-226.59 793.06,-212.19 741.5,-199 737.37,-197.94 733.08,-196.82 728.79,-195.69"/>
<polygon fill="midnightblue" stroke="midnightblue" points="729.44,-192.25 718.88,-193.06 727.64,-199.01 729.44,-192.25"/>
</g>
<!-- Node27 -->
<g id="node19" class="node">
<title>Node27</title>
<g id="a_node19"><a xlink:title=" ">
<polygon fill="white" stroke="#bfbfbf" points="784,-168.5 784,-198.5 917,-198.5 917,-168.5 784,-168.5"/>
<text text-anchor="start" x="792" y="-186.5" font-family="Helvetica,sans-Serif" font-size="10.00">emlabcpp/experimental</text>
<text text-anchor="middle" x="850.5" y="-175.5" font-family="Helvetica,sans-Serif" font-size="10.00">/cobs.h</text>
</a>
</g>
</g>
<!-- Node26&#45;&gt;Node27 -->
<g id="edge33" class="edge">
<title>Node26&#45;&gt;Node27</title>
<path fill="none" stroke="midnightblue" d="M915.61,-235.48C905.41,-227.49 889.78,-215.25 876.39,-204.77"/>
<polygon fill="midnightblue" stroke="midnightblue" points="878.44,-201.93 868.41,-198.52 874.13,-207.44 878.44,-201.93"/>
</g>
<!-- Node28 -->
<g id="node20" class="node">
<title>Node28</title>
<g id="a_node20"><a xlink:title=" ">
<polygon fill="white" stroke="#bfbfbf" points="935.5,-168.5 935.5,-198.5 1071.5,-198.5 1071.5,-168.5 935.5,-168.5"/>
<text text-anchor="start" x="943.5" y="-186.5" font-family="Helvetica,sans-Serif" font-size="10.00">emlabcpp/static_circular</text>
<text text-anchor="middle" x="1003.5" y="-175.5" font-family="Helvetica,sans-Serif" font-size="10.00">_buffer.h</text>
</a>
</g>
</g>
<!-- Node26&#45;&gt;Node28 -->
<g id="edge35" class="edge">
<title>Node26&#45;&gt;Node28</title>
<path fill="none" stroke="midnightblue" d="M937.53,-235.48C947.86,-227.49 963.7,-215.25 977.27,-204.77"/>
<polygon fill="midnightblue" stroke="midnightblue" points="979.58,-207.41 985.35,-198.52 975.3,-201.87 979.58,-207.41"/>
</g>
<!-- Node29&#45;&gt;Node14 -->
<g id="edge37" class="edge">
<title>Node29&#45;&gt;Node14</title>
<path fill="none" stroke="midnightblue" d="M198.17,-235.39C218.73,-228.74 243.24,-217.46 258.5,-199 271.88,-182.82 276.03,-158.51 277.22,-141.77"/>
<polygon fill="midnightblue" stroke="midnightblue" points="280.72,-141.72 277.65,-131.58 273.73,-141.42 280.72,-141.72"/>
</g>
<!-- Node29&#45;&gt;Node17 -->
<g id="edge41" class="edge">
<title>Node29&#45;&gt;Node17</title>
<path fill="none" stroke="midnightblue" d="M151.06,-235.24C142.08,-226.97 129.75,-213.66 124.5,-199 119.85,-186.03 120.52,-181.19 124.5,-168 134.61,-134.46 159.91,-101.82 176.37,-83.1"/>
<polygon fill="midnightblue" stroke="midnightblue" points="179.11,-85.29 183.22,-75.53 173.91,-80.6 179.11,-85.29"/>
</g>
<!-- Node29&#45;&gt;Node18 -->
<g id="edge40" class="edge">
<title>Node29&#45;&gt;Node18</title>
<path fill="none" stroke="midnightblue" d="M208.06,-235.48C260.71,-225.84 347.24,-210 409.87,-198.53"/>
<polygon fill="midnightblue" stroke="midnightblue" points="410.51,-201.97 419.71,-196.73 409.25,-195.09 410.51,-201.97"/>
</g>
<!-- Node29&#45;&gt;Node22 -->
<g id="edge38" class="edge">
<title>Node29&#45;&gt;Node22</title>
<path fill="none" stroke="midnightblue" d="M165.8,-235.48C170.16,-226.82 177.06,-213.15 182.6,-202.15"/>
<polygon fill="midnightblue" stroke="midnightblue" points="185.83,-203.51 187.21,-193.01 179.58,-200.36 185.83,-203.51"/>
</g>
<!-- Node29&#45;&gt;Node23 -->
<g id="edge39" class="edge">
<title>Node29&#45;&gt;Node23</title>
<path fill="none" stroke="midnightblue" d="M215.1,-236.21C218.28,-235.79 221.43,-235.38 224.5,-235 373.97,-216.35 411.79,-215.61 561.5,-199 586.36,-196.24 613.97,-193.08 636.99,-190.41"/>
<polygon fill="midnightblue" stroke="midnightblue" points="637.69,-193.85 647.22,-189.22 636.88,-186.9 637.69,-193.85"/>
</g>
<!-- Node30&#45;&gt;Node4 -->
<g id="edge43" class="edge">
<title>Node30&#45;&gt;Node4</title>
<path fill="none" stroke="midnightblue" d="M737.22,-299.63C859.44,-297.16 1177.96,-280.07 1080.5,-168 1035.39,-116.13 546.24,-79.48 400.34,-69.64"/>
<polygon fill="midnightblue" stroke="midnightblue" points="400.26,-66.13 390.05,-68.95 399.79,-73.11 400.26,-66.13"/>
</g>
<!-- Node30&#45;&gt;Node6 -->
<g id="edge48" class="edge">
<title>Node30&#45;&gt;Node6</title>
<path fill="none" stroke="midnightblue" d="M737.03,-297.91C826.79,-293.28 1023.31,-280.5 1085.5,-255 1132.51,-235.72 1175.5,-235.31 1175.5,-184.5 1175.5,-184.5 1175.5,-184.5 1175.5,-121 1175.5,-32.53 479.95,-14.58 313.14,-11.55"/>
<polygon fill="midnightblue" stroke="midnightblue" points="312.99,-8.05 302.93,-11.37 312.87,-15.05 312.99,-8.05"/>
</g>
<!-- Node30&#45;&gt;Node14 -->
<g id="edge44" class="edge">
<title>Node30&#45;&gt;Node14</title>
<path fill="none" stroke="midnightblue" d="M653.36,-291.46C619.94,-283.51 570.32,-270.56 528.5,-255 501.3,-244.88 436.23,-212.43 410.5,-199 371.24,-178.5 326.77,-152.51 300.49,-136.85"/>
<polygon fill="midnightblue" stroke="midnightblue" points="302.05,-133.7 291.67,-131.57 298.45,-139.71 302.05,-133.7"/>
</g>
<!-- Node30&#45;&gt;Node18 -->
<g id="edge49" class="edge">
<title>Node30&#45;&gt;Node18</title>
<path fill="none" stroke="midnightblue" d="M651.35,-291.43C623.84,-284.39 587.27,-272.66 558.5,-255 537.49,-242.1 517.8,-222.05 504.33,-206.62"/>
<polygon fill="midnightblue" stroke="midnightblue" points="506.67,-203.96 497.53,-198.6 501.33,-208.49 506.67,-203.96"/>
</g>
<!-- Node30&#45;&gt;Node23 -->
<g id="edge47" class="edge">
<title>Node30&#45;&gt;Node23</title>
<path fill="none" stroke="midnightblue" d="M691.2,-291.32C690.56,-272.76 689.04,-228.84 688.16,-203.47"/>
<polygon fill="midnightblue" stroke="midnightblue" points="691.65,-203.15 687.8,-193.28 684.65,-203.4 691.65,-203.15"/>
</g>
<!-- Node31 -->
<g id="node23" class="node">
<title>Node31</title>
<g id="a_node23"><a xlink:href="defs_8hpp.html" target="_top" xlink:title=" ">
<polygon fill="white" stroke="black" points="719.5,-235.5 719.5,-254.5 811.5,-254.5 811.5,-235.5 719.5,-235.5"/>
<text text-anchor="middle" x="765.5" y="-242.5" font-family="Helvetica,sans-Serif" font-size="10.00">fw/drv/defs.hpp</text>
</a>
</g>
</g>
<!-- Node30&#45;&gt;Node31 -->
<g id="edge45" class="edge">
<title>Node30&#45;&gt;Node31</title>
<path fill="none" stroke="midnightblue" d="M703.39,-291.32C714.65,-283.11 731.79,-270.6 745.21,-260.81"/>
<polygon fill="midnightblue" stroke="midnightblue" points="747.38,-263.56 753.39,-254.83 743.25,-257.9 747.38,-263.56"/>
</g>
<!-- Node31&#45;&gt;Node23 -->
<g id="edge46" class="edge">
<title>Node31&#45;&gt;Node23</title>
<path fill="none" stroke="midnightblue" d="M754.32,-235.48C741.93,-226.02 721.71,-210.6 706.75,-199.19"/>
<polygon fill="midnightblue" stroke="midnightblue" points="708.73,-196.29 698.65,-193.01 704.48,-201.86 708.73,-196.29"/>
</g>
<!-- Node33 -->
<g id="node25" class="node">
<title>Node33</title>
<g id="a_node25"><a xlink:title=" ">
<polygon fill="white" stroke="#bfbfbf" points="1271.5,-235.5 1271.5,-254.5 1335.5,-254.5 1335.5,-235.5 1271.5,-235.5"/>
<text text-anchor="middle" x="1303.5" y="-242.5" font-family="Helvetica,sans-Serif" font-size="10.00">algorithm</text>
</a>
</g>
</g>
<!-- Node32&#45;&gt;Node33 -->
<g id="edge51" class="edge">
<title>Node32&#45;&gt;Node33</title>
<path fill="none" stroke="midnightblue" d="M1227.96,-291.32C1242,-282.9 1263.55,-269.97 1280.04,-260.07"/>
<polygon fill="midnightblue" stroke="midnightblue" points="1282.3,-262.8 1289.08,-254.65 1278.7,-256.8 1282.3,-262.8"/>
</g>
<!-- Node34 -->
<g id="node26" class="node">
<title>Node34</title>
<g id="a_node26"><a xlink:title=" ">
<polygon fill="white" stroke="#bfbfbf" points="1203.5,-235.5 1203.5,-254.5 1253.5,-254.5 1253.5,-235.5 1203.5,-235.5"/>
<text text-anchor="middle" x="1228.5" y="-242.5" font-family="Helvetica,sans-Serif" font-size="10.00">cstring</text>
</a>
</g>
</g>
<!-- Node32&#45;&gt;Node34 -->
<g id="edge52" class="edge">
<title>Node32&#45;&gt;Node34</title>
<path fill="none" stroke="midnightblue" d="M1215.98,-291.08C1217.99,-283.85 1220.89,-273.41 1223.39,-264.4"/>
<polygon fill="midnightblue" stroke="midnightblue" points="1226.76,-265.32 1226.07,-254.75 1220.02,-263.45 1226.76,-265.32"/>
</g>
</g>
</svg>
