<?xml version="1.0" encoding="UTF-8" standalone="no"?>
<!DOCTYPE svg PUBLIC "-//W3C//DTD SVG 1.1//EN"
 "http://www.w3.org/Graphics/SVG/1.1/DTD/svg11.dtd">
<!-- Generated by graphviz version 2.43.0 (0)
 -->
<!-- Title: src/protocol.cpp Pages: 1 -->
<svg width="802pt" height="196pt"
 viewBox="0.00 0.00 802.00 196.00" xmlns="http://www.w3.org/2000/svg" xmlns:xlink="http://www.w3.org/1999/xlink">
<g id="graph0" class="graph" transform="scale(1 1) rotate(0) translate(4 192)">
<title>src/protocol.cpp</title>
<polygon fill="white" stroke="transparent" points="-4,4 -4,-192 798,-192 798,4 -4,4"/>
<!-- Node1 -->
<g id="node1" class="node">
<title>Node1</title>
<g id="a_node1"><a xlink:title=" ">
<polygon fill="#bfbfbf" stroke="black" points="211,-168.5 211,-187.5 305,-187.5 305,-168.5 211,-168.5"/>
<text text-anchor="middle" x="258" y="-175.5" font-family="Helvetica,sans-Serif" font-size="10.00">src/protocol.cpp</text>
</a>
</g>
</g>
<!-- Node2 -->
<g id="node2" class="node">
<title>Node2</title>
<g id="a_node2"><a xlink:href="protocol_8hpp.html" target="_top" xlink:title=" ">
<polygon fill="white" stroke="black" points="219.5,-112.5 219.5,-131.5 296.5,-131.5 296.5,-112.5 219.5,-112.5"/>
<text text-anchor="middle" x="258" y="-119.5" font-family="Helvetica,sans-Serif" font-size="10.00">protocol.hpp</text>
</a>
</g>
</g>
<!-- Node1&#45;&gt;Node2 -->
<g id="edge1" class="edge">
<title>Node1&#45;&gt;Node2</title>
<path fill="none" stroke="midnightblue" d="M258,-168.08C258,-161.01 258,-150.86 258,-141.99"/>
<polygon fill="midnightblue" stroke="midnightblue" points="261.5,-141.75 258,-131.75 254.5,-141.75 261.5,-141.75"/>
</g>
<!-- Node3 -->
<g id="node3" class="node">
<title>Node3</title>
<g id="a_node3"><a xlink:href="base_8hpp.html" target="_top" xlink:title=" ">
<polygon fill="white" stroke="red" points="2.5,-56.5 2.5,-75.5 63.5,-75.5 63.5,-56.5 2.5,-56.5"/>
<text text-anchor="middle" x="33" y="-63.5" font-family="Helvetica,sans-Serif" font-size="10.00">base.hpp</text>
</a>
</g>
</g>
<!-- Node2&#45;&gt;Node3 -->
<g id="edge2" class="edge">
<title>Node2&#45;&gt;Node3</title>
<path fill="none" stroke="midnightblue" d="M222.35,-112.44C181.94,-102.75 116.19,-86.97 73.77,-76.79"/>
<polygon fill="midnightblue" stroke="midnightblue" points="74.33,-73.32 63.79,-74.39 72.69,-80.13 74.33,-73.32"/>
</g>
<!-- Node8 -->
<g id="node4" class="node">
<title>Node8</title>
<g id="a_node4"><a xlink:title=" ">
<polygon fill="white" stroke="#bfbfbf" points="0,-0.5 0,-19.5 124,-19.5 124,-0.5 0,-0.5"/>
<text text-anchor="middle" x="62" y="-7.5" font-family="Helvetica,sans-Serif" font-size="10.00">emlabcpp/algorithm.h</text>
</a>
</g>
</g>
<!-- Node2&#45;&gt;Node8 -->
<g id="edge5" class="edge">
<title>Node2&#45;&gt;Node8</title>
<path fill="none" stroke="midnightblue" d="M219.19,-115.69C188,-109.93 144.24,-98.39 112,-76 94.33,-63.73 80.1,-43.29 71.4,-28.61"/>
<polygon fill="midnightblue" stroke="midnightblue" points="74.25,-26.53 66.29,-19.53 68.15,-29.96 74.25,-26.53"/>
</g>
<!-- Node9 -->
<g id="node5" class="node">
<title>Node9</title>
<g id="a_node5"><a xlink:href="config_8hpp.html" target="_top" xlink:title=" ">
<polygon fill="white" stroke="red" points="120.5,-56.5 120.5,-75.5 187.5,-75.5 187.5,-56.5 120.5,-56.5"/>
<text text-anchor="middle" x="154" y="-63.5" font-family="Helvetica,sans-Serif" font-size="10.00">config.hpp</text>
</a>
</g>
</g>
<!-- Node2&#45;&gt;Node9 -->
<g id="edge4" class="edge">
<title>Node2&#45;&gt;Node9</title>
<path fill="none" stroke="midnightblue" d="M241.29,-112.32C224.69,-103.7 199,-90.36 179.78,-80.39"/>
<polygon fill="midnightblue" stroke="midnightblue" points="181.16,-77.16 170.67,-75.65 177.93,-83.37 181.16,-77.16"/>
</g>
<!-- Node11 -->
<g id="node6" class="node">
<title>Node11</title>
<g id="a_node6"><a xlink:title=" ">
<polygon fill="white" stroke="#bfbfbf" points="206,-56.5 206,-75.5 310,-75.5 310,-56.5 206,-56.5"/>
<text text-anchor="middle" x="258" y="-63.5" font-family="Helvetica,sans-Serif" font-size="10.00">emlabcpp/either.h</text>
</a>
</g>
</g>
<!-- Node2&#45;&gt;Node11 -->
<g id="edge6" class="edge">
<title>Node2&#45;&gt;Node11</title>
<path fill="none" stroke="midnightblue" d="M258,-112.08C258,-105.01 258,-94.86 258,-85.99"/>
<polygon fill="midnightblue" stroke="midnightblue" points="261.5,-85.75 258,-75.75 254.5,-85.75 261.5,-85.75"/>
</g>
<!-- Node12 -->
<g id="node7" class="node">
<title>Node12</title>
<g id="a_node7"><a xlink:title=" ">
<polygon fill="white" stroke="#bfbfbf" points="328,-56.5 328,-75.5 444,-75.5 444,-56.5 328,-56.5"/>
<text text-anchor="middle" x="386" y="-63.5" font-family="Helvetica,sans-Serif" font-size="10.00">emlabcpp/protocol.h</text>
</a>
</g>
</g>
<!-- Node2&#45;&gt;Node12 -->
<g id="edge7" class="edge">
<title>Node2&#45;&gt;Node12</title>
<path fill="none" stroke="midnightblue" d="M278.28,-112.44C299.35,-103.56 332.52,-89.56 356.49,-79.45"/>
<polygon fill="midnightblue" stroke="midnightblue" points="357.96,-82.63 365.81,-75.52 355.24,-76.18 357.96,-82.63"/>
</g>
<!-- Node13 -->
<g id="node8" class="node">
<title>Node13</title>
<g id="a_node8"><a xlink:title=" ">
<polygon fill="white" stroke="#bfbfbf" points="462,-56.5 462,-75.5 624,-75.5 624,-56.5 462,-56.5"/>
<text text-anchor="middle" x="543" y="-63.5" font-family="Helvetica,sans-Serif" font-size="10.00">emlabcpp/protocol/endpoint.h</text>
</a>
</g>
</g>
<!-- Node2&#45;&gt;Node13 -->
<g id="edge8" class="edge">
<title>Node2&#45;&gt;Node13</title>
<path fill="none" stroke="midnightblue" d="M296.73,-113.66C346.02,-104.32 431.48,-88.13 487.64,-77.49"/>
<polygon fill="midnightblue" stroke="midnightblue" points="488.59,-80.87 497.77,-75.57 487.29,-73.99 488.59,-80.87"/>
</g>
<!-- Node14 -->
<g id="node9" class="node">
<title>Node14</title>
<g id="a_node9"><a xlink:title=" ">
<polygon fill="white" stroke="#bfbfbf" points="642,-56.5 642,-75.5 794,-75.5 794,-56.5 642,-56.5"/>
<text text-anchor="middle" x="718" y="-63.5" font-family="Helvetica,sans-Serif" font-size="10.00">emlabcpp/protocol/packet.h</text>
</a>
</g>
</g>
<!-- Node2&#45;&gt;Node14 -->
<g id="edge9" class="edge">
<title>Node2&#45;&gt;Node14</title>
<path fill="none" stroke="midnightblue" d="M296.82,-116.44C371.27,-107.7 535.56,-88.42 635.52,-76.68"/>
<polygon fill="midnightblue" stroke="midnightblue" points="636.06,-80.14 645.59,-75.5 635.25,-73.19 636.06,-80.14"/>
</g>
<!-- Node3&#45;&gt;Node8 -->
<g id="edge3" class="edge">
<title>Node3&#45;&gt;Node8</title>
<path fill="none" stroke="midnightblue" d="M37.79,-56.08C41.76,-48.69 47.53,-37.95 52.43,-28.81"/>
<polygon fill="midnightblue" stroke="midnightblue" points="55.65,-30.22 57.3,-19.75 49.49,-26.91 55.65,-30.22"/>
</g>
</g>
</svg>
