<?xml version="1.0" encoding="UTF-8" standalone="no"?>
<!DOCTYPE svg PUBLIC "-//W3C//DTD SVG 1.1//EN"
 "http://www.w3.org/Graphics/SVG/1.1/DTD/svg11.dtd">
<!-- Generated by graphviz version 2.43.0 (0)
 -->
<!-- Title: src/brd/proto3/board.cpp Pages: 1 -->
<svg width="1566pt" height="386pt"
 viewBox="0.00 0.00 1566.00 386.00" xmlns="http://www.w3.org/2000/svg" xmlns:xlink="http://www.w3.org/1999/xlink">
<g id="graph0" class="graph" transform="scale(1 1) rotate(0) translate(4 382)">
<title>src/brd/proto3/board.cpp</title>
<polygon fill="white" stroke="transparent" points="-4,4 -4,-382 1562,-382 1562,4 -4,4"/>
<!-- Node1 -->
<g id="node1" class="node">
<title>Node1</title>
<g id="a_node1"><a xlink:title=" ">
<polygon fill="#bfbfbf" stroke="black" points="795,-358.5 795,-377.5 930,-377.5 930,-358.5 795,-358.5"/>
<text text-anchor="middle" x="862.5" y="-365.5" font-family="Helvetica,sans-Serif" font-size="10.00">src/brd/proto3/board.cpp</text>
</a>
</g>
</g>
<!-- Node2 -->
<g id="node2" class="node">
<title>Node2</title>
<g id="a_node2"><a xlink:href="brd_8hpp.html" target="_top" xlink:title=" ">
<polygon fill="white" stroke="black" points="221,-302.5 221,-321.5 274,-321.5 274,-302.5 221,-302.5"/>
<text text-anchor="middle" x="247.5" y="-309.5" font-family="Helvetica,sans-Serif" font-size="10.00">brd.hpp</text>
</a>
</g>
</g>
<!-- Node1&#45;&gt;Node2 -->
<g id="edge1" class="edge">
<title>Node1&#45;&gt;Node2</title>
<path fill="none" stroke="midnightblue" d="M794.56,-364.71C686.78,-360.39 470.19,-348.93 288.5,-322 287.2,-321.81 285.88,-321.6 284.56,-321.37"/>
<polygon fill="midnightblue" stroke="midnightblue" points="284.78,-317.86 274.31,-319.44 283.49,-324.73 284.78,-317.86"/>
</g>
<!-- Node14 -->
<g id="node7" class="node">
<title>Node14</title>
<g id="a_node7"><a xlink:href="drivers_8hpp.html" target="_top" xlink:title=" ">
<polygon fill="white" stroke="black" points="204,-246.5 204,-265.5 299,-265.5 299,-246.5 204,-246.5"/>
<text text-anchor="middle" x="251.5" y="-253.5" font-family="Helvetica,sans-Serif" font-size="10.00">core/drivers.hpp</text>
</a>
</g>
</g>
<!-- Node1&#45;&gt;Node14 -->
<g id="edge18" class="edge">
<title>Node1&#45;&gt;Node14</title>
<path fill="none" stroke="midnightblue" d="M794.96,-366.83C669.26,-365.64 404.6,-358.68 321.5,-322 297.66,-311.48 276.71,-289.38 264.08,-273.88"/>
<polygon fill="midnightblue" stroke="midnightblue" points="266.57,-271.38 257.66,-265.66 261.06,-275.69 266.57,-271.38"/>
</g>
<!-- Node16 -->
<g id="node9" class="node">
<title>Node16</title>
<g id="a_node9"><a xlink:title=" ">
<polygon fill="white" stroke="#bfbfbf" points="1165.5,-56.5 1165.5,-75.5 1269.5,-75.5 1269.5,-56.5 1165.5,-56.5"/>
<text text-anchor="middle" x="1217.5" y="-63.5" font-family="Helvetica,sans-Serif" font-size="10.00">emlabcpp/result.h</text>
</a>
</g>
</g>
<!-- Node1&#45;&gt;Node16 -->
<g id="edge72" class="edge">
<title>Node1&#45;&gt;Node16</title>
<path fill="none" stroke="midnightblue" d="M891.85,-358.43C922.66,-349.42 972.51,-334.79 1015.5,-322 1098.25,-297.38 1121.78,-299.14 1201.5,-266 1218.76,-258.82 1220.9,-252.29 1238.5,-246 1317.79,-217.65 1370.92,-274.95 1424.5,-210 1435.34,-196.86 1440.33,-134.39 1421.5,-112 1403.46,-90.55 1332.86,-78.6 1279.73,-72.5"/>
<polygon fill="midnightblue" stroke="midnightblue" points="1280.02,-69.01 1269.7,-71.39 1279.25,-75.96 1280.02,-69.01"/>
</g>
<!-- Node19 -->
<g id="node12" class="node">
<title>Node19</title>
<g id="a_node12"><a xlink:href="default_8hpp.html" target="_top" xlink:title=" ">
<polygon fill="white" stroke="black" points="25.5,-302.5 25.5,-321.5 115.5,-321.5 115.5,-302.5 25.5,-302.5"/>
<text text-anchor="middle" x="70.5" y="-309.5" font-family="Helvetica,sans-Serif" font-size="10.00">cfg/default.hpp</text>
</a>
</g>
</g>
<!-- Node1&#45;&gt;Node19 -->
<g id="edge14" class="edge">
<title>Node1&#45;&gt;Node19</title>
<path fill="none" stroke="midnightblue" d="M794.97,-362.4C641.15,-351.91 267.1,-326.4 125.79,-316.77"/>
<polygon fill="midnightblue" stroke="midnightblue" points="125.84,-313.27 115.62,-316.08 125.36,-320.25 125.84,-313.27"/>
</g>
<!-- Node20 -->
<g id="node13" class="node">
<title>Node20</title>
<g id="a_node13"><a xlink:href="cnv_2setup_8hpp.html" target="_top" xlink:title=" ">
<polygon fill="white" stroke="black" points="1177,-302.5 1177,-321.5 1262,-321.5 1262,-302.5 1177,-302.5"/>
<text text-anchor="middle" x="1219.5" y="-309.5" font-family="Helvetica,sans-Serif" font-size="10.00">cnv/setup.hpp</text>
</a>
</g>
</g>
<!-- Node1&#45;&gt;Node20 -->
<g id="edge17" class="edge">
<title>Node1&#45;&gt;Node20</title>
<path fill="none" stroke="midnightblue" d="M920.31,-358.46C980.74,-349.51 1078.3,-334.96 1162.5,-322 1163.95,-321.78 1165.43,-321.55 1166.92,-321.32"/>
<polygon fill="midnightblue" stroke="midnightblue" points="1167.52,-324.77 1176.86,-319.77 1166.44,-317.85 1167.52,-324.77"/>
</g>
<!-- Node21 -->
<g id="node14" class="node">
<title>Node21</title>
<g id="a_node14"><a xlink:href="globals_8hpp.html" target="_top" xlink:title=" ">
<polygon fill="white" stroke="black" points="1280,-302.5 1280,-321.5 1377,-321.5 1377,-302.5 1280,-302.5"/>
<text text-anchor="middle" x="1328.5" y="-309.5" font-family="Helvetica,sans-Serif" font-size="10.00">core/globals.hpp</text>
</a>
</g>
</g>
<!-- Node1&#45;&gt;Node21 -->
<g id="edge19" class="edge">
<title>Node1&#45;&gt;Node21</title>
<path fill="none" stroke="midnightblue" d="M930.11,-360.46C1009,-352.63 1143.6,-338.63 1269.57,-322.07"/>
<polygon fill="midnightblue" stroke="midnightblue" points="1270.33,-325.5 1279.79,-320.72 1269.42,-318.56 1270.33,-325.5"/>
</g>
<!-- Node23 -->
<g id="node16" class="node">
<title>Node23</title>
<g id="a_node16"><a xlink:href="adc__pooler__def_8hpp.html" target="_top" xlink:title=" ">
<polygon fill="white" stroke="black" points="797.5,-302.5 797.5,-321.5 927.5,-321.5 927.5,-302.5 797.5,-302.5"/>
<text text-anchor="middle" x="862.5" y="-309.5" font-family="Helvetica,sans-Serif" font-size="10.00">drv/adc_pooler_def.hpp</text>
</a>
</g>
</g>
<!-- Node1&#45;&gt;Node23 -->
<g id="edge21" class="edge">
<title>Node1&#45;&gt;Node23</title>
<path fill="none" stroke="midnightblue" d="M862.5,-358.08C862.5,-351.01 862.5,-340.86 862.5,-331.99"/>
<polygon fill="midnightblue" stroke="midnightblue" points="866,-331.75 862.5,-321.75 859,-331.75 866,-331.75"/>
</g>
<!-- Node26 -->
<g id="node19" class="node">
<title>Node26</title>
<g id="a_node19"><a xlink:href="platform_8hpp.html" target="_top" xlink:title=" ">
<polygon fill="white" stroke="red" points="545.5,-185 545.5,-204 625.5,-204 625.5,-185 545.5,-185"/>
<text text-anchor="middle" x="585.5" y="-192" font-family="Helvetica,sans-Serif" font-size="10.00">platform.hpp</text>
</a>
</g>
</g>
<!-- Node1&#45;&gt;Node26 -->
<g id="edge64" class="edge">
<title>Node1&#45;&gt;Node26</title>
<path fill="none" stroke="midnightblue" d="M842.46,-358.36C823.31,-349.87 793.85,-336.15 769.5,-322 707,-285.68 637.93,-235.15 605.02,-210.39"/>
<polygon fill="midnightblue" stroke="midnightblue" points="606.82,-207.36 596.73,-204.12 602.59,-212.94 606.82,-207.36"/>
</g>
<!-- Node33 -->
<g id="node22" class="node">
<title>Node33</title>
<g id="a_node22"><a xlink:href="clock_8hpp.html" target="_top" xlink:title=" ">
<polygon fill="white" stroke="black" points="393.5,-246.5 393.5,-265.5 475.5,-265.5 475.5,-246.5 393.5,-246.5"/>
<text text-anchor="middle" x="434.5" y="-253.5" font-family="Helvetica,sans-Serif" font-size="10.00">drv/clock.hpp</text>
</a>
</g>
</g>
<!-- Node1&#45;&gt;Node33 -->
<g id="edge32" class="edge">
<title>Node1&#45;&gt;Node33</title>
<path fill="none" stroke="midnightblue" d="M821.14,-358.48C780.39,-349.91 716.42,-336 661.5,-322 594.29,-304.87 516.76,-281.99 471.91,-268.44"/>
<polygon fill="midnightblue" stroke="midnightblue" points="472.9,-265.08 462.31,-265.53 470.87,-271.78 472.9,-265.08"/>
</g>
<!-- Node34 -->
<g id="node23" class="node">
<title>Node34</title>
<g id="a_node23"><a xlink:href="cobs__uart_8hpp.html" target="_top" xlink:title=" ">
<polygon fill="white" stroke="black" points="1088.5,-246.5 1088.5,-265.5 1192.5,-265.5 1192.5,-246.5 1088.5,-246.5"/>
<text text-anchor="middle" x="1140.5" y="-253.5" font-family="Helvetica,sans-Serif" font-size="10.00">drv/cobs_uart.hpp</text>
</a>
</g>
</g>
<!-- Node1&#45;&gt;Node34 -->
<g id="edge37" class="edge">
<title>Node1&#45;&gt;Node34</title>
<path fill="none" stroke="midnightblue" d="M884.31,-358.37C933.34,-338.97 1052.38,-291.87 1109.24,-269.37"/>
<polygon fill="midnightblue" stroke="midnightblue" points="1110.78,-272.53 1118.79,-265.59 1108.2,-266.02 1110.78,-272.53"/>
</g>
<!-- Node38 -->
<g id="node26" class="node">
<title>Node38</title>
<g id="a_node26"><a xlink:href="hbridge_8hpp.html" target="_top" xlink:title=" ">
<polygon fill="white" stroke="black" points="704,-246.5 704,-265.5 797,-265.5 797,-246.5 704,-246.5"/>
<text text-anchor="middle" x="750.5" y="-253.5" font-family="Helvetica,sans-Serif" font-size="10.00">drv/hbridge.hpp</text>
</a>
</g>
</g>
<!-- Node1&#45;&gt;Node38 -->
<g id="edge46" class="edge">
<title>Node1&#45;&gt;Node38</title>
<path fill="none" stroke="midnightblue" d="M842.75,-358.36C826.7,-350.6 804.2,-337.98 788.5,-322 775.21,-308.48 764.78,-289.42 758.24,-275.43"/>
<polygon fill="midnightblue" stroke="midnightblue" points="761.27,-273.62 754.01,-265.9 754.87,-276.46 761.27,-273.62"/>
</g>
<!-- Node39 -->
<g id="node27" class="node">
<title>Node39</title>
<g id="a_node27"><a xlink:href="leds_8hpp.html" target="_top" xlink:title=" ">
<polygon fill="white" stroke="black" points="331,-302.5 331,-321.5 408,-321.5 408,-302.5 331,-302.5"/>
<text text-anchor="middle" x="369.5" y="-309.5" font-family="Helvetica,sans-Serif" font-size="10.00">drv/leds.hpp</text>
</a>
</g>
</g>
<!-- Node1&#45;&gt;Node39 -->
<g id="edge53" class="edge">
<title>Node1&#45;&gt;Node39</title>
<path fill="none" stroke="midnightblue" d="M794.98,-359.6C694.15,-348.56 506.63,-328.02 418.13,-318.33"/>
<polygon fill="midnightblue" stroke="midnightblue" points="418.41,-314.84 408.09,-317.23 417.65,-321.8 418.41,-314.84"/>
</g>
<!-- Node41 -->
<g id="node29" class="node">
<title>Node41</title>
<g id="a_node29"><a xlink:href="util_8hpp.html" target="_top" xlink:title=" ">
<polygon fill="white" stroke="black" points="1406.5,-302.5 1406.5,-321.5 1474.5,-321.5 1474.5,-302.5 1406.5,-302.5"/>
<text text-anchor="middle" x="1440.5" y="-309.5" font-family="Helvetica,sans-Serif" font-size="10.00">fw/util.hpp</text>
</a>
</g>
</g>
<!-- Node1&#45;&gt;Node41 -->
<g id="edge61" class="edge">
<title>Node1&#45;&gt;Node41</title>
<path fill="none" stroke="midnightblue" d="M930.37,-362.82C1030.29,-356.3 1222.72,-342.29 1385.5,-322 1388.97,-321.57 1392.55,-321.08 1396.14,-320.56"/>
<polygon fill="midnightblue" stroke="midnightblue" points="1396.87,-323.99 1406.23,-319.02 1395.82,-317.07 1396.87,-323.99"/>
</g>
<!-- Node44 -->
<g id="node32" class="node">
<title>Node44</title>
<g id="a_node32"><a xlink:title=" ">
<polygon fill="white" stroke="#bfbfbf" points="1493,-302.5 1493,-321.5 1558,-321.5 1558,-302.5 1493,-302.5"/>
<text text-anchor="middle" x="1525.5" y="-309.5" font-family="Helvetica,sans-Serif" font-size="10.00">setup.hpp</text>
</a>
</g>
</g>
<!-- Node1&#45;&gt;Node44 -->
<g id="edge65" class="edge">
<title>Node1&#45;&gt;Node44</title>
<path fill="none" stroke="midnightblue" d="M930.37,-365.16C1043.06,-361.43 1275.99,-350.86 1482.44,-321.95"/>
<polygon fill="midnightblue" stroke="midnightblue" points="1483.15,-325.38 1492.56,-320.51 1482.17,-318.45 1483.15,-325.38"/>
</g>
<!-- Node45 -->
<g id="node33" class="node">
<title>Node45</title>
<g id="a_node33"><a xlink:href="central__sentry_8hpp.html" target="_top" xlink:title=" ">
<polygon fill="white" stroke="black" points="942.5,-246.5 942.5,-265.5 1070.5,-265.5 1070.5,-246.5 942.5,-246.5"/>
<text text-anchor="middle" x="1006.5" y="-253.5" font-family="Helvetica,sans-Serif" font-size="10.00">sntr/central_sentry.hpp</text>
</a>
</g>
</g>
<!-- Node1&#45;&gt;Node45 -->
<g id="edge66" class="edge">
<title>Node1&#45;&gt;Node45</title>
<path fill="none" stroke="midnightblue" d="M878.69,-358.4C894.1,-349.94 917.67,-336.24 936.5,-322 956.63,-306.78 977.55,-286.7 991.22,-272.9"/>
<polygon fill="midnightblue" stroke="midnightblue" points="993.88,-275.19 998.37,-265.59 988.88,-270.29 993.88,-275.19"/>
</g>
<!-- Node3 -->
<g id="node3" class="node">
<title>Node3</title>
<g id="a_node3"><a xlink:href="map_8hpp.html" target="_top" xlink:title=" ">
<polygon fill="white" stroke="red" points="32,-246.5 32,-265.5 109,-265.5 109,-246.5 32,-246.5"/>
<text text-anchor="middle" x="70.5" y="-253.5" font-family="Helvetica,sans-Serif" font-size="10.00">cfg/map.hpp</text>
</a>
</g>
</g>
<!-- Node2&#45;&gt;Node3 -->
<g id="edge2" class="edge">
<title>Node2&#45;&gt;Node3</title>
<path fill="none" stroke="midnightblue" d="M220.62,-302.8C190.73,-293.68 142.23,-278.88 108.48,-268.59"/>
<polygon fill="midnightblue" stroke="midnightblue" points="109.1,-265.12 98.51,-265.55 107.06,-271.81 109.1,-265.12"/>
</g>
<!-- Node2&#45;&gt;Node14 -->
<g id="edge7" class="edge">
<title>Node2&#45;&gt;Node14</title>
<path fill="none" stroke="midnightblue" d="M248.16,-302.08C248.68,-295.01 249.44,-284.86 250.09,-275.99"/>
<polygon fill="midnightblue" stroke="midnightblue" points="253.6,-275.98 250.85,-265.75 246.62,-275.47 253.6,-275.98"/>
</g>
<!-- Node4 -->
<g id="node4" class="node">
<title>Node4</title>
<g id="a_node4"><a xlink:href="base_2base_8hpp.html" target="_top" xlink:title=" ">
<polygon fill="white" stroke="red" points="206,-56.5 206,-75.5 293,-75.5 293,-56.5 206,-56.5"/>
<text text-anchor="middle" x="249.5" y="-63.5" font-family="Helvetica,sans-Serif" font-size="10.00">base/base.hpp</text>
</a>
</g>
</g>
<!-- Node3&#45;&gt;Node4 -->
<g id="edge3" class="edge">
<title>Node3&#45;&gt;Node4</title>
<path fill="none" stroke="midnightblue" d="M73.98,-246.5C84.15,-222.51 116.02,-153.4 161.5,-112 177.03,-97.87 197.81,-86.97 215.28,-79.44"/>
<polygon fill="midnightblue" stroke="midnightblue" points="216.68,-82.64 224.59,-75.6 214.01,-76.17 216.68,-82.64"/>
</g>
<!-- Node10 -->
<g id="node6" class="node">
<title>Node10</title>
<g id="a_node6"><a xlink:href="key_8hpp.html" target="_top" xlink:title=" ">
<polygon fill="white" stroke="black" points="0,-185 0,-204 71,-204 71,-185 0,-185"/>
<text text-anchor="middle" x="35.5" y="-192" font-family="Helvetica,sans-Serif" font-size="10.00">cfg/key.hpp</text>
</a>
</g>
</g>
<!-- Node3&#45;&gt;Node10 -->
<g id="edge5" class="edge">
<title>Node3&#45;&gt;Node10</title>
<path fill="none" stroke="midnightblue" d="M65.49,-246.48C60.34,-237.73 52.19,-223.87 45.68,-212.81"/>
<polygon fill="midnightblue" stroke="midnightblue" points="48.59,-210.85 40.51,-204.01 42.56,-214.4 48.59,-210.85"/>
</g>
<!-- Node6 -->
<g id="node5" class="node">
<title>Node6</title>
<g id="a_node5"><a xlink:title=" ">
<polygon fill="white" stroke="#bfbfbf" points="224.5,-0.5 224.5,-19.5 274.5,-19.5 274.5,-0.5 224.5,-0.5"/>
<text text-anchor="middle" x="249.5" y="-7.5" font-family="Helvetica,sans-Serif" font-size="10.00">cstdint</text>
</a>
</g>
</g>
<!-- Node4&#45;&gt;Node6 -->
<g id="edge4" class="edge">
<title>Node4&#45;&gt;Node6</title>
<path fill="none" stroke="midnightblue" d="M249.5,-56.08C249.5,-49.01 249.5,-38.86 249.5,-29.99"/>
<polygon fill="midnightblue" stroke="midnightblue" points="253,-29.75 249.5,-19.75 246,-29.75 253,-29.75"/>
</g>
<!-- Node10&#45;&gt;Node6 -->
<g id="edge6" class="edge">
<title>Node10&#45;&gt;Node6</title>
<path fill="none" stroke="midnightblue" d="M38.76,-184.68C48.11,-160.54 77.38,-92.71 123.5,-56 150.09,-34.84 187.44,-23.16 214.57,-17.05"/>
<polygon fill="midnightblue" stroke="midnightblue" points="215.36,-20.46 224.42,-14.97 213.92,-13.61 215.36,-20.46"/>
</g>
<!-- Node15 -->
<g id="node8" class="node">
<title>Node15</title>
<g id="a_node8"><a xlink:href="interfaces_8hpp.html" target="_top" xlink:title=" ">
<polygon fill="white" stroke="black" points="489,-118 489,-137 594,-137 594,-118 489,-118"/>
<text text-anchor="middle" x="541.5" y="-125" font-family="Helvetica,sans-Serif" font-size="10.00">drv/interfaces.hpp</text>
</a>
</g>
</g>
<!-- Node14&#45;&gt;Node15 -->
<g id="edge8" class="edge">
<title>Node14&#45;&gt;Node15</title>
<path fill="none" stroke="midnightblue" d="M245.9,-246.33C236.71,-230.89 221.02,-198.45 237.5,-179 267.75,-143.31 398.56,-132.81 478.41,-129.75"/>
<polygon fill="midnightblue" stroke="midnightblue" points="478.97,-133.23 488.84,-129.38 478.72,-126.23 478.97,-133.23"/>
</g>
<!-- Node18 -->
<g id="node11" class="node">
<title>Node18</title>
<g id="a_node11"><a xlink:title=" ">
<polygon fill="white" stroke="#bfbfbf" points="356,-179.5 356,-209.5 489,-209.5 489,-179.5 356,-179.5"/>
<text text-anchor="start" x="364" y="-197.5" font-family="Helvetica,sans-Serif" font-size="10.00">emlabcpp/experimental</text>
<text text-anchor="middle" x="422.5" y="-186.5" font-family="Helvetica,sans-Serif" font-size="10.00">/function_view.h</text>
</a>
</g>
</g>
<!-- Node14&#45;&gt;Node18 -->
<g id="edge13" class="edge">
<title>Node14&#45;&gt;Node18</title>
<path fill="none" stroke="midnightblue" d="M276,-246.48C301.11,-237.74 340.86,-223.91 372.62,-212.86"/>
<polygon fill="midnightblue" stroke="midnightblue" points="373.9,-216.11 382.2,-209.52 371.6,-209.5 373.9,-216.11"/>
</g>
<!-- Node15&#45;&gt;Node4 -->
<g id="edge9" class="edge">
<title>Node15&#45;&gt;Node4</title>
<path fill="none" stroke="midnightblue" d="M499.66,-117.98C447.3,-107.3 357.63,-89.03 301.07,-77.51"/>
<polygon fill="midnightblue" stroke="midnightblue" points="301.76,-74.08 291.26,-75.51 300.36,-80.94 301.76,-74.08"/>
</g>
<!-- Node15&#45;&gt;Node6 -->
<g id="edge10" class="edge">
<title>Node15&#45;&gt;Node6</title>
<path fill="none" stroke="midnightblue" d="M519.55,-117.82C468.27,-97.53 340.45,-46.97 280.92,-23.43"/>
<polygon fill="midnightblue" stroke="midnightblue" points="281.89,-20.05 271.3,-19.62 279.32,-26.56 281.89,-20.05"/>
</g>
<!-- Node15&#45;&gt;Node16 -->
<g id="edge11" class="edge">
<title>Node15&#45;&gt;Node16</title>
<path fill="none" stroke="midnightblue" d="M594.26,-121.86C717.25,-111.03 1022.51,-84.16 1154.75,-72.52"/>
<polygon fill="midnightblue" stroke="midnightblue" points="1155.45,-75.97 1165.11,-71.61 1154.84,-69 1155.45,-75.97"/>
</g>
<!-- Node17 -->
<g id="node10" class="node">
<title>Node17</title>
<g id="a_node10"><a xlink:title=" ">
<polygon fill="white" stroke="#bfbfbf" points="709.5,-56.5 709.5,-75.5 749.5,-75.5 749.5,-56.5 709.5,-56.5"/>
<text text-anchor="middle" x="729.5" y="-63.5" font-family="Helvetica,sans-Serif" font-size="10.00">span</text>
</a>
</g>
</g>
<!-- Node15&#45;&gt;Node17 -->
<g id="edge12" class="edge">
<title>Node15&#45;&gt;Node17</title>
<path fill="none" stroke="midnightblue" d="M568.44,-117.98C603.09,-107.01 663.12,-88.01 699.29,-76.56"/>
<polygon fill="midnightblue" stroke="midnightblue" points="700.78,-79.76 709.25,-73.41 698.66,-73.09 700.78,-79.76"/>
</g>
<!-- Node19&#45;&gt;Node3 -->
<g id="edge16" class="edge">
<title>Node19&#45;&gt;Node3</title>
<path fill="none" stroke="midnightblue" d="M70.5,-302.08C70.5,-295.01 70.5,-284.86 70.5,-275.99"/>
<polygon fill="midnightblue" stroke="midnightblue" points="74,-275.75 70.5,-265.75 67,-275.75 74,-275.75"/>
</g>
<!-- Node19&#45;&gt;Node10 -->
<g id="edge15" class="edge">
<title>Node19&#45;&gt;Node10</title>
<path fill="none" stroke="midnightblue" d="M56.13,-302.33C44.62,-294.47 29.31,-281.72 22.5,-266 15.17,-249.09 20.67,-228.16 26.61,-213.51"/>
<polygon fill="midnightblue" stroke="midnightblue" points="29.93,-214.66 30.83,-204.11 23.54,-211.79 29.93,-214.66"/>
</g>
<!-- Node22 -->
<g id="node15" class="node">
<title>Node22</title>
<g id="a_node15"><a xlink:title=" ">
<polygon fill="white" stroke="#bfbfbf" points="1248,-246.5 1248,-265.5 1397,-265.5 1397,-246.5 1248,-246.5"/>
<text text-anchor="middle" x="1322.5" y="-253.5" font-family="Helvetica,sans-Serif" font-size="10.00">emlabcpp/static_function.h</text>
</a>
</g>
</g>
<!-- Node21&#45;&gt;Node22 -->
<g id="edge20" class="edge">
<title>Node21&#45;&gt;Node22</title>
<path fill="none" stroke="midnightblue" d="M1327.51,-302.08C1326.71,-294.93 1325.57,-284.64 1324.58,-275.69"/>
<polygon fill="midnightblue" stroke="midnightblue" points="1328.06,-275.3 1323.47,-265.75 1321.1,-276.08 1328.06,-275.3"/>
</g>
<!-- Node23&#45;&gt;Node15 -->
<g id="edge31" class="edge">
<title>Node23&#45;&gt;Node15</title>
<path fill="none" stroke="midnightblue" d="M797.4,-306.95C703.77,-300.45 540.31,-286.32 522.5,-266 492.95,-232.28 516.39,-174.94 531.4,-146.13"/>
<polygon fill="midnightblue" stroke="midnightblue" points="534.55,-147.67 536.26,-137.21 528.4,-144.32 534.55,-147.67"/>
</g>
<!-- Node24 -->
<g id="node17" class="node">
<title>Node24</title>
<g id="a_node17"><a xlink:href="adc__pooler_8hpp.html" target="_top" xlink:title=" ">
<polygon fill="white" stroke="black" points="815,-246.5 815,-265.5 924,-265.5 924,-246.5 815,-246.5"/>
<text text-anchor="middle" x="869.5" y="-253.5" font-family="Helvetica,sans-Serif" font-size="10.00">drv/adc_pooler.hpp</text>
</a>
</g>
</g>
<!-- Node23&#45;&gt;Node24 -->
<g id="edge22" class="edge">
<title>Node23&#45;&gt;Node24</title>
<path fill="none" stroke="midnightblue" d="M863.66,-302.08C864.58,-294.93 865.92,-284.64 867.08,-275.69"/>
<polygon fill="midnightblue" stroke="midnightblue" points="870.55,-276.12 868.37,-265.75 863.61,-275.22 870.55,-276.12"/>
</g>
<!-- Node25 -->
<g id="node18" class="node">
<title>Node25</title>
<g id="a_node18"><a xlink:href="drv_2callbacks_8hpp.html" target="_top" xlink:title=" ">
<polygon fill="white" stroke="black" points="757.5,-185 757.5,-204 859.5,-204 859.5,-185 757.5,-185"/>
<text text-anchor="middle" x="808.5" y="-192" font-family="Helvetica,sans-Serif" font-size="10.00">drv/callbacks.hpp</text>
</a>
</g>
</g>
<!-- Node24&#45;&gt;Node25 -->
<g id="edge23" class="edge">
<title>Node24&#45;&gt;Node25</title>
<path fill="none" stroke="midnightblue" d="M860.76,-246.48C851.34,-237.28 836.14,-222.46 824.55,-211.16"/>
<polygon fill="midnightblue" stroke="midnightblue" points="826.83,-208.49 817.22,-204.01 821.94,-213.5 826.83,-208.49"/>
</g>
<!-- Node24&#45;&gt;Node26 -->
<g id="edge27" class="edge">
<title>Node24&#45;&gt;Node26</title>
<path fill="none" stroke="midnightblue" d="M828.81,-246.48C777.84,-235.8 690.54,-217.51 635.53,-205.98"/>
<polygon fill="midnightblue" stroke="midnightblue" points="636.16,-202.54 625.66,-203.91 634.73,-209.39 636.16,-202.54"/>
</g>
<!-- Node28 -->
<g id="node20" class="node">
<title>Node28</title>
<g id="a_node20"><a xlink:href="sentry_8hpp.html" target="_top" xlink:title=" ">
<polygon fill="white" stroke="red" points="916,-185 916,-204 1005,-204 1005,-185 916,-185"/>
<text text-anchor="middle" x="960.5" y="-192" font-family="Helvetica,sans-Serif" font-size="10.00">sntr/sentry.hpp</text>
</a>
</g>
</g>
<!-- Node24&#45;&gt;Node28 -->
<g id="edge29" class="edge">
<title>Node24&#45;&gt;Node28</title>
<path fill="none" stroke="midnightblue" d="M882.54,-246.48C897.27,-236.84 921.47,-221.02 939.01,-209.55"/>
<polygon fill="midnightblue" stroke="midnightblue" points="941.03,-212.41 947.49,-204.01 937.2,-206.55 941.03,-212.41"/>
</g>
<!-- Node25&#45;&gt;Node6 -->
<g id="edge25" class="edge">
<title>Node25&#45;&gt;Node6</title>
<path fill="none" stroke="midnightblue" d="M808.42,-184.81C807.67,-159.77 801.69,-87.3 758.5,-56 720.26,-28.29 393.56,-15.55 284.66,-12.04"/>
<polygon fill="midnightblue" stroke="midnightblue" points="284.63,-8.54 274.52,-11.72 284.41,-15.53 284.63,-8.54"/>
</g>
<!-- Node25&#45;&gt;Node15 -->
<g id="edge24" class="edge">
<title>Node25&#45;&gt;Node15</title>
<path fill="none" stroke="midnightblue" d="M773.32,-184.94C725.3,-173.24 639.18,-152.28 586.51,-139.46"/>
<polygon fill="midnightblue" stroke="midnightblue" points="587.3,-136.05 576.76,-137.08 585.65,-142.85 587.3,-136.05"/>
</g>
<!-- Node25&#45;&gt;Node17 -->
<g id="edge26" class="edge">
<title>Node25&#45;&gt;Node17</title>
<path fill="none" stroke="midnightblue" d="M803.07,-184.81C790.16,-164.13 757.44,-111.73 740.31,-84.32"/>
<polygon fill="midnightblue" stroke="midnightblue" points="743.23,-82.38 734.97,-75.76 737.3,-86.09 743.23,-82.38"/>
</g>
<!-- Node26&#45;&gt;Node17 -->
<g id="edge28" class="edge">
<title>Node26&#45;&gt;Node17</title>
<path fill="none" stroke="midnightblue" d="M595.4,-184.81C619.44,-163.68 681.2,-109.43 711.79,-82.56"/>
<polygon fill="midnightblue" stroke="midnightblue" points="714.33,-84.99 719.53,-75.76 709.71,-79.73 714.33,-84.99"/>
</g>
<!-- Node32 -->
<g id="node21" class="node">
<title>Node32</title>
<g id="a_node21"><a xlink:href="central__sentry__iface_8hpp.html" target="_top" xlink:title=" ">
<polygon fill="white" stroke="red" points="1017.5,-112.5 1017.5,-142.5 1125.5,-142.5 1125.5,-112.5 1017.5,-112.5"/>
<text text-anchor="start" x="1025.5" y="-130.5" font-family="Helvetica,sans-Serif" font-size="10.00">sntr/central_sentry</text>
<text text-anchor="middle" x="1071.5" y="-119.5" font-family="Helvetica,sans-Serif" font-size="10.00">_iface.hpp</text>
</a>
</g>
</g>
<!-- Node28&#45;&gt;Node32 -->
<g id="edge30" class="edge">
<title>Node28&#45;&gt;Node32</title>
<path fill="none" stroke="midnightblue" d="M975.47,-184.73C991.55,-175.32 1017.62,-160.05 1038.54,-147.8"/>
<polygon fill="midnightblue" stroke="midnightblue" points="1040.58,-150.66 1047.44,-142.59 1037.04,-144.62 1040.58,-150.66"/>
</g>
<!-- Node33&#45;&gt;Node4 -->
<g id="edge33" class="edge">
<title>Node33&#45;&gt;Node4</title>
<path fill="none" stroke="midnightblue" d="M405.21,-246.45C384.5,-239.28 357.06,-227.39 337.5,-210 296.95,-173.95 268.84,-114.72 256.52,-85.08"/>
<polygon fill="midnightblue" stroke="midnightblue" points="259.69,-83.57 252.71,-75.6 253.19,-86.18 259.69,-83.57"/>
</g>
<!-- Node33&#45;&gt;Node15 -->
<g id="edge34" class="edge">
<title>Node33&#45;&gt;Node15</title>
<path fill="none" stroke="midnightblue" d="M398.65,-246.4C379.62,-239.81 357.87,-228.59 346.5,-210 339.31,-198.25 338.07,-189.9 346.5,-179 362.75,-158 428.35,-144.14 479.03,-136.34"/>
<polygon fill="midnightblue" stroke="midnightblue" points="479.57,-139.8 488.95,-134.87 478.54,-132.88 479.57,-139.8"/>
</g>
<!-- Node33&#45;&gt;Node18 -->
<g id="edge36" class="edge">
<title>Node33&#45;&gt;Node18</title>
<path fill="none" stroke="midnightblue" d="M432.78,-246.48C431.35,-239.4 429.25,-228.97 427.32,-219.39"/>
<polygon fill="midnightblue" stroke="midnightblue" points="430.74,-218.63 425.33,-209.52 423.87,-220.02 430.74,-218.63"/>
</g>
<!-- Node33&#45;&gt;Node26 -->
<g id="edge35" class="edge">
<title>Node33&#45;&gt;Node26</title>
<path fill="none" stroke="midnightblue" d="M456.13,-246.48C481.92,-236.31 525.21,-219.26 554.54,-207.7"/>
<polygon fill="midnightblue" stroke="midnightblue" points="555.88,-210.93 563.91,-204.01 553.32,-204.42 555.88,-210.93"/>
</g>
<!-- Node34&#45;&gt;Node15 -->
<g id="edge40" class="edge">
<title>Node34&#45;&gt;Node15</title>
<path fill="none" stroke="midnightblue" d="M1141.38,-246.32C1142.48,-230.26 1142.2,-196.02 1122.5,-179 1083.96,-145.71 747.07,-133.55 604.64,-129.87"/>
<polygon fill="midnightblue" stroke="midnightblue" points="604.41,-126.37 594.32,-129.61 604.23,-133.36 604.41,-126.37"/>
</g>
<!-- Node34&#45;&gt;Node16 -->
<g id="edge45" class="edge">
<title>Node34&#45;&gt;Node16</title>
<path fill="none" stroke="midnightblue" d="M1144.01,-246.43C1155.76,-217.74 1193.89,-124.63 1210.1,-85.06"/>
<polygon fill="midnightblue" stroke="midnightblue" points="1213.42,-86.2 1213.97,-75.62 1206.94,-83.54 1213.42,-86.2"/>
</g>
<!-- Node34&#45;&gt;Node18 -->
<g id="edge44" class="edge">
<title>Node34&#45;&gt;Node18</title>
<path fill="none" stroke="midnightblue" d="M1088.29,-247.02C1085.32,-246.65 1082.37,-246.31 1079.5,-246 839,-220.33 777.24,-233.27 536.5,-210 524.36,-208.83 511.51,-207.39 498.99,-205.87"/>
<polygon fill="midnightblue" stroke="midnightblue" points="499.39,-202.4 489.03,-204.65 498.53,-209.34 499.39,-202.4"/>
</g>
<!-- Node34&#45;&gt;Node26 -->
<g id="edge41" class="edge">
<title>Node34&#45;&gt;Node26</title>
<path fill="none" stroke="midnightblue" d="M1088.28,-247.14C1085.31,-246.74 1082.37,-246.36 1079.5,-246 917.6,-225.79 725.09,-207.86 635.71,-199.89"/>
<polygon fill="midnightblue" stroke="midnightblue" points="635.86,-196.39 625.59,-198.99 635.24,-203.36 635.86,-196.39"/>
</g>
<!-- Node34&#45;&gt;Node28 -->
<g id="edge42" class="edge">
<title>Node34&#45;&gt;Node28</title>
<path fill="none" stroke="midnightblue" d="M1114.71,-246.48C1083.57,-236.18 1031.02,-218.81 996.05,-207.25"/>
<polygon fill="midnightblue" stroke="midnightblue" points="996.84,-203.82 986.24,-204.01 994.64,-210.47 996.84,-203.82"/>
</g>
<!-- Node35 -->
<g id="node24" class="node">
<title>Node35</title>
<g id="a_node24"><a xlink:href="cobs__rx__container_8h.html" target="_top" xlink:title=" ">
<polygon fill="white" stroke="red" points="1246,-185 1246,-204 1399,-204 1399,-185 1246,-185"/>
<text text-anchor="middle" x="1322.5" y="-192" font-family="Helvetica,sans-Serif" font-size="10.00">drv/bits/cobs_rx_container.h</text>
</a>
</g>
</g>
<!-- Node34&#45;&gt;Node35 -->
<g id="edge38" class="edge">
<title>Node34&#45;&gt;Node35</title>
<path fill="none" stroke="midnightblue" d="M1166.58,-246.48C1198.07,-236.18 1251.2,-218.81 1286.56,-207.25"/>
<polygon fill="midnightblue" stroke="midnightblue" points="1288.05,-210.44 1296.47,-204.01 1285.88,-203.79 1288.05,-210.44"/>
</g>
<!-- Node36 -->
<g id="node25" class="node">
<title>Node36</title>
<g id="a_node25"><a xlink:title=" ">
<polygon fill="white" stroke="#bfbfbf" points="1280,-112.5 1280,-142.5 1413,-142.5 1413,-112.5 1280,-112.5"/>
<text text-anchor="start" x="1288" y="-130.5" font-family="Helvetica,sans-Serif" font-size="10.00">emlabcpp/experimental</text>
<text text-anchor="middle" x="1346.5" y="-119.5" font-family="Helvetica,sans-Serif" font-size="10.00">/cobs.h</text>
</a>
</g>
</g>
<!-- Node34&#45;&gt;Node36 -->
<g id="edge43" class="edge">
<title>Node34&#45;&gt;Node36</title>
<path fill="none" stroke="midnightblue" d="M1192.72,-247.06C1269.45,-235.28 1404.03,-214.1 1407.5,-210 1424.57,-189.81 1400.85,-165.38 1378.19,-148.56"/>
<polygon fill="midnightblue" stroke="midnightblue" points="1380.15,-145.66 1369.96,-142.73 1376.1,-151.37 1380.15,-145.66"/>
</g>
<!-- Node35&#45;&gt;Node36 -->
<g id="edge39" class="edge">
<title>Node35&#45;&gt;Node36</title>
<path fill="none" stroke="midnightblue" d="M1325.74,-184.73C1328.82,-176.37 1333.61,-163.4 1337.81,-152.02"/>
<polygon fill="midnightblue" stroke="midnightblue" points="1341.12,-153.18 1341.3,-142.59 1334.55,-150.76 1341.12,-153.18"/>
</g>
<!-- Node38&#45;&gt;Node15 -->
<g id="edge48" class="edge">
<title>Node38&#45;&gt;Node15</title>
<path fill="none" stroke="midnightblue" d="M735.76,-246.34C720.88,-237.5 697.31,-223.22 677.5,-210 657.9,-196.92 654.45,-191.54 634.5,-179 612.68,-165.29 586.84,-151.44 567.95,-141.72"/>
<polygon fill="midnightblue" stroke="midnightblue" points="569.51,-138.59 559.02,-137.17 566.34,-144.83 569.51,-138.59"/>
</g>
<!-- Node38&#45;&gt;Node17 -->
<g id="edge52" class="edge">
<title>Node38&#45;&gt;Node17</title>
<path fill="none" stroke="midnightblue" d="M749.54,-246.43C746.35,-217.87 736.03,-125.43 731.57,-85.57"/>
<polygon fill="midnightblue" stroke="midnightblue" points="735.05,-85.17 730.46,-75.62 728.09,-85.94 735.05,-85.17"/>
</g>
<!-- Node38&#45;&gt;Node18 -->
<g id="edge51" class="edge">
<title>Node38&#45;&gt;Node18</title>
<path fill="none" stroke="midnightblue" d="M703.85,-246.54C650.55,-236.87 562.52,-220.9 499.1,-209.4"/>
<polygon fill="midnightblue" stroke="midnightblue" points="499.61,-205.93 489.15,-207.59 498.36,-212.82 499.61,-205.93"/>
</g>
<!-- Node38&#45;&gt;Node25 -->
<g id="edge47" class="edge">
<title>Node38&#45;&gt;Node25</title>
<path fill="none" stroke="midnightblue" d="M758.81,-246.48C767.68,-237.37 781.95,-222.74 792.92,-211.48"/>
<polygon fill="midnightblue" stroke="midnightblue" points="795.73,-213.61 800.21,-204.01 790.72,-208.73 795.73,-213.61"/>
</g>
<!-- Node38&#45;&gt;Node26 -->
<g id="edge49" class="edge">
<title>Node38&#45;&gt;Node26</title>
<path fill="none" stroke="midnightblue" d="M726.86,-246.48C698.56,-236.27 650.97,-219.11 618.91,-207.55"/>
<polygon fill="midnightblue" stroke="midnightblue" points="619.69,-204.11 609.1,-204.01 617.32,-210.69 619.69,-204.11"/>
</g>
<!-- Node38&#45;&gt;Node28 -->
<g id="edge50" class="edge">
<title>Node38&#45;&gt;Node28</title>
<path fill="none" stroke="midnightblue" d="M780.59,-246.48C817.39,-236.05 879.81,-218.36 920.59,-206.81"/>
<polygon fill="midnightblue" stroke="midnightblue" points="921.8,-210.1 930.47,-204.01 919.89,-203.37 921.8,-210.1"/>
</g>
<!-- Node39&#45;&gt;Node4 -->
<g id="edge54" class="edge">
<title>Node39&#45;&gt;Node4</title>
<path fill="none" stroke="midnightblue" d="M330.68,-306.53C284.35,-300.31 211.03,-287.32 194.5,-266 150.76,-209.6 208.34,-120.54 236.09,-83.75"/>
<polygon fill="midnightblue" stroke="midnightblue" points="239.06,-85.63 242.42,-75.58 233.53,-81.34 239.06,-85.63"/>
</g>
<!-- Node39&#45;&gt;Node6 -->
<g id="edge59" class="edge">
<title>Node39&#45;&gt;Node6</title>
<path fill="none" stroke="midnightblue" d="M330.64,-305.35C282.57,-297.76 204.17,-283.2 180.5,-266 150.81,-244.42 137.5,-232.2 137.5,-195.5 137.5,-195.5 137.5,-195.5 137.5,-126.5 137.5,-78.33 188.34,-42.64 221.51,-24.48"/>
<polygon fill="midnightblue" stroke="midnightblue" points="223.53,-27.37 230.75,-19.62 220.27,-21.17 223.53,-27.37"/>
</g>
<!-- Node39&#45;&gt;Node15 -->
<g id="edge57" class="edge">
<title>Node39&#45;&gt;Node15</title>
<path fill="none" stroke="midnightblue" d="M362.89,-302.24C346.53,-279.42 307.56,-217.25 337.5,-179 354.82,-156.87 425.19,-143.08 478.47,-135.62"/>
<polygon fill="midnightblue" stroke="midnightblue" points="479.1,-139.06 488.54,-134.25 478.16,-132.13 479.1,-139.06"/>
</g>
<!-- Node39&#45;&gt;Node18 -->
<g id="edge60" class="edge">
<title>Node39&#45;&gt;Node18</title>
<path fill="none" stroke="midnightblue" d="M370.35,-302.21C371.86,-289.35 375.7,-264.9 384.5,-246 389.16,-236 396.01,-226.07 402.63,-217.7"/>
<polygon fill="midnightblue" stroke="midnightblue" points="405.4,-219.84 409.07,-209.9 400,-215.38 405.4,-219.84"/>
</g>
<!-- Node39&#45;&gt;Node26 -->
<g id="edge58" class="edge">
<title>Node39&#45;&gt;Node26</title>
<path fill="none" stroke="midnightblue" d="M408.12,-309.8C471.04,-306.94 591.28,-297.41 617.5,-266 631.02,-249.81 615.94,-226.97 602.24,-211.73"/>
<polygon fill="midnightblue" stroke="midnightblue" points="604.41,-208.93 594.96,-204.13 599.35,-213.77 604.41,-208.93"/>
</g>
<!-- Node40 -->
<g id="node28" class="node">
<title>Node40</title>
<g id="a_node28"><a xlink:href="defs_8hpp.html" target="_top" xlink:title=" ">
<polygon fill="white" stroke="black" points="532,-246.5 532,-265.5 609,-265.5 609,-246.5 532,-246.5"/>
<text text-anchor="middle" x="570.5" y="-253.5" font-family="Helvetica,sans-Serif" font-size="10.00">drv/defs.hpp</text>
</a>
</g>
</g>
<!-- Node39&#45;&gt;Node40 -->
<g id="edge55" class="edge">
<title>Node39&#45;&gt;Node40</title>
<path fill="none" stroke="midnightblue" d="M401.35,-302.44C435.9,-293.16 491.18,-278.31 529.08,-268.13"/>
<polygon fill="midnightblue" stroke="midnightblue" points="530.05,-271.49 538.8,-265.52 528.23,-264.73 530.05,-271.49"/>
</g>
<!-- Node40&#45;&gt;Node26 -->
<g id="edge56" class="edge">
<title>Node40&#45;&gt;Node26</title>
<path fill="none" stroke="midnightblue" d="M572.65,-246.48C574.79,-237.99 578.14,-224.7 580.88,-213.82"/>
<polygon fill="midnightblue" stroke="midnightblue" points="584.3,-214.56 583.35,-204.01 577.52,-212.85 584.3,-214.56"/>
</g>
<!-- Node42 -->
<g id="node30" class="node">
<title>Node42</title>
<g id="a_node30"><a xlink:title=" ">
<polygon fill="white" stroke="#bfbfbf" points="1414.5,-246.5 1414.5,-265.5 1478.5,-265.5 1478.5,-246.5 1414.5,-246.5"/>
<text text-anchor="middle" x="1446.5" y="-253.5" font-family="Helvetica,sans-Serif" font-size="10.00">algorithm</text>
</a>
</g>
</g>
<!-- Node41&#45;&gt;Node42 -->
<g id="edge62" class="edge">
<title>Node41&#45;&gt;Node42</title>
<path fill="none" stroke="midnightblue" d="M1441.49,-302.08C1442.29,-294.93 1443.43,-284.64 1444.42,-275.69"/>
<polygon fill="midnightblue" stroke="midnightblue" points="1447.9,-276.08 1445.53,-265.75 1440.94,-275.3 1447.9,-276.08"/>
</g>
<!-- Node43 -->
<g id="node31" class="node">
<title>Node43</title>
<g id="a_node31"><a xlink:title=" ">
<polygon fill="white" stroke="#bfbfbf" points="1496.5,-246.5 1496.5,-265.5 1546.5,-265.5 1546.5,-246.5 1496.5,-246.5"/>
<text text-anchor="middle" x="1521.5" y="-253.5" font-family="Helvetica,sans-Serif" font-size="10.00">cstring</text>
</a>
</g>
</g>
<!-- Node41&#45;&gt;Node43 -->
<g id="edge63" class="edge">
<title>Node41&#45;&gt;Node43</title>
<path fill="none" stroke="midnightblue" d="M1453.51,-302.32C1466.03,-293.98 1485.18,-281.21 1499.97,-271.35"/>
<polygon fill="midnightblue" stroke="midnightblue" points="1502.14,-274.11 1508.52,-265.65 1498.26,-268.29 1502.14,-274.11"/>
</g>
<!-- Node45&#45;&gt;Node15 -->
<g id="edge67" class="edge">
<title>Node45&#45;&gt;Node15</title>
<path fill="none" stroke="midnightblue" d="M949.6,-246.47C885.47,-236.62 785.36,-220.42 748.5,-210 712.6,-199.85 705.2,-192.69 670.5,-179 637.17,-165.85 598.95,-150.91 572.81,-140.71"/>
<polygon fill="midnightblue" stroke="midnightblue" points="574.01,-137.42 563.43,-137.04 571.47,-143.94 574.01,-137.42"/>
</g>
<!-- Node45&#45;&gt;Node17 -->
<g id="edge71" class="edge">
<title>Node45&#45;&gt;Node17</title>
<path fill="none" stroke="midnightblue" d="M983,-246.44C962.16,-238.4 931.28,-225.31 906.5,-210 887.96,-198.54 885.43,-192.73 868.5,-179 825.68,-144.28 775.25,-103.73 748.46,-82.22"/>
<polygon fill="midnightblue" stroke="midnightblue" points="750.32,-79.22 740.33,-75.69 745.94,-84.68 750.32,-79.22"/>
</g>
<!-- Node45&#45;&gt;Node18 -->
<g id="edge70" class="edge">
<title>Node45&#45;&gt;Node18</title>
<path fill="none" stroke="midnightblue" d="M942.34,-247.08C939.01,-246.7 935.72,-246.34 932.5,-246 756.76,-227.33 712.18,-229.15 536.5,-210 524.37,-208.68 511.53,-207.16 499.01,-205.62"/>
<polygon fill="midnightblue" stroke="midnightblue" points="499.42,-202.14 489.06,-204.37 498.55,-209.08 499.42,-202.14"/>
</g>
<!-- Node45&#45;&gt;Node32 -->
<g id="edge68" class="edge">
<title>Node45&#45;&gt;Node32</title>
<path fill="none" stroke="midnightblue" d="M1065.07,-246.48C1086.83,-240.16 1109.38,-229.16 1122.5,-210 1136.36,-189.75 1117.49,-165.89 1098.9,-149.23"/>
<polygon fill="midnightblue" stroke="midnightblue" points="1100.94,-146.37 1091.05,-142.57 1096.41,-151.71 1100.94,-146.37"/>
</g>
<!-- Node46 -->
<g id="node34" class="node">
<title>Node46</title>
<g id="a_node34"><a xlink:href="record_8hpp.html" target="_top" xlink:title=" ">
<polygon fill="white" stroke="red" points="1023.5,-185 1023.5,-204 1113.5,-204 1113.5,-185 1023.5,-185"/>
<text text-anchor="middle" x="1068.5" y="-192" font-family="Helvetica,sans-Serif" font-size="10.00">sntr/record.hpp</text>
</a>
</g>
</g>
<!-- Node45&#45;&gt;Node46 -->
<g id="edge69" class="edge">
<title>Node45&#45;&gt;Node46</title>
<path fill="none" stroke="midnightblue" d="M1015.38,-246.48C1024.96,-237.28 1040.41,-222.46 1052.19,-211.16"/>
<polygon fill="midnightblue" stroke="midnightblue" points="1054.84,-213.46 1059.63,-204.01 1049.99,-208.41 1054.84,-213.46"/>
</g>
</g>
</svg>
