<?xml version="1.0" encoding="UTF-8" standalone="no"?>
<!DOCTYPE svg PUBLIC "-//W3C//DTD SVG 1.1//EN"
 "http://www.w3.org/Graphics/SVG/1.1/DTD/svg11.dtd">
<!-- Generated by graphviz version 2.43.0 (0)
 -->
<!-- Title: src/protocol.hpp Pages: 1 -->
<svg width="1073pt" height="151pt"
 viewBox="0.00 0.00 1072.50 151.00" xmlns="http://www.w3.org/2000/svg" xmlns:xlink="http://www.w3.org/1999/xlink">
<g id="graph0" class="graph" transform="scale(1 1) rotate(0) translate(4 147)">
<title>src/protocol.hpp</title>
<polygon fill="white" stroke="transparent" points="-4,4 -4,-147 1068.5,-147 1068.5,4 -4,4"/>
<!-- Node1 -->
<g id="node1" class="node">
<title>Node1</title>
<g id="a_node1"><a xlink:title=" ">
<polygon fill="#bfbfbf" stroke="black" points="481,-123.5 481,-142.5 576,-142.5 576,-123.5 481,-123.5"/>
<text text-anchor="middle" x="528.5" y="-130.5" font-family="Helvetica,sans-Serif" font-size="10.00">src/protocol.hpp</text>
</a>
</g>
</g>
<!-- Node2 -->
<g id="node2" class="node">
<title>Node2</title>
<g id="a_node2"><a xlink:href="base_8hpp.html" target="_top" xlink:title=" ">
<polygon fill="white" stroke="black" points="193,-67.5 193,-86.5 254,-86.5 254,-67.5 193,-67.5"/>
<text text-anchor="middle" x="223.5" y="-74.5" font-family="Helvetica,sans-Serif" font-size="10.00">base.hpp</text>
</a>
</g>
</g>
<!-- Node1&#45;&gt;Node2 -->
<g id="edge1" class="edge">
<title>Node1&#45;&gt;Node2</title>
<path fill="none" stroke="midnightblue" d="M480.84,-123.56C421.22,-113.01 320.17,-95.11 264.07,-85.18"/>
<polygon fill="midnightblue" stroke="midnightblue" points="264.6,-81.72 254.14,-83.42 263.38,-88.61 264.6,-81.72"/>
</g>
<!-- Node8 -->
<g id="node7" class="node">
<title>Node8</title>
<g id="a_node7"><a xlink:title=" ">
<polygon fill="white" stroke="#bfbfbf" points="300.5,-6 300.5,-25 424.5,-25 424.5,-6 300.5,-6"/>
<text text-anchor="middle" x="362.5" y="-13" font-family="Helvetica,sans-Serif" font-size="10.00">emlabcpp/algorithm.h</text>
</a>
</g>
</g>
<!-- Node1&#45;&gt;Node8 -->
<g id="edge9" class="edge">
<title>Node1&#45;&gt;Node8</title>
<path fill="none" stroke="midnightblue" d="M480.69,-128.86C448.81,-124.28 408.18,-113.27 382.5,-87 369.04,-73.24 364.51,-51.12 363.05,-35.33"/>
<polygon fill="midnightblue" stroke="midnightblue" points="366.53,-34.94 362.44,-25.16 359.54,-35.35 366.53,-34.94"/>
</g>
<!-- Node9 -->
<g id="node8" class="node">
<title>Node9</title>
<g id="a_node8"><a xlink:href="config_8hpp.html" target="_top" xlink:title=" ">
<polygon fill="white" stroke="black" points="391,-67.5 391,-86.5 458,-86.5 458,-67.5 391,-67.5"/>
<text text-anchor="middle" x="424.5" y="-74.5" font-family="Helvetica,sans-Serif" font-size="10.00">config.hpp</text>
</a>
</g>
</g>
<!-- Node1&#45;&gt;Node9 -->
<g id="edge7" class="edge">
<title>Node1&#45;&gt;Node9</title>
<path fill="none" stroke="midnightblue" d="M511.79,-123.32C495.19,-114.7 469.5,-101.36 450.28,-91.39"/>
<polygon fill="midnightblue" stroke="midnightblue" points="451.66,-88.16 441.17,-86.65 448.43,-94.37 451.66,-88.16"/>
</g>
<!-- Node11 -->
<g id="node10" class="node">
<title>Node11</title>
<g id="a_node10"><a xlink:title=" ">
<polygon fill="white" stroke="#bfbfbf" points="476.5,-67.5 476.5,-86.5 580.5,-86.5 580.5,-67.5 476.5,-67.5"/>
<text text-anchor="middle" x="528.5" y="-74.5" font-family="Helvetica,sans-Serif" font-size="10.00">emlabcpp/either.h</text>
</a>
</g>
</g>
<!-- Node1&#45;&gt;Node11 -->
<g id="edge10" class="edge">
<title>Node1&#45;&gt;Node11</title>
<path fill="none" stroke="midnightblue" d="M528.5,-123.08C528.5,-116.01 528.5,-105.86 528.5,-96.99"/>
<polygon fill="midnightblue" stroke="midnightblue" points="532,-96.75 528.5,-86.75 525,-96.75 532,-96.75"/>
</g>
<!-- Node12 -->
<g id="node11" class="node">
<title>Node12</title>
<g id="a_node11"><a xlink:title=" ">
<polygon fill="white" stroke="#bfbfbf" points="598.5,-67.5 598.5,-86.5 714.5,-86.5 714.5,-67.5 598.5,-67.5"/>
<text text-anchor="middle" x="656.5" y="-74.5" font-family="Helvetica,sans-Serif" font-size="10.00">emlabcpp/protocol.h</text>
</a>
</g>
</g>
<!-- Node1&#45;&gt;Node12 -->
<g id="edge11" class="edge">
<title>Node1&#45;&gt;Node12</title>
<path fill="none" stroke="midnightblue" d="M548.78,-123.44C569.85,-114.56 603.02,-100.56 626.99,-90.45"/>
<polygon fill="midnightblue" stroke="midnightblue" points="628.46,-93.63 636.31,-86.52 625.74,-87.18 628.46,-93.63"/>
</g>
<!-- Node13 -->
<g id="node12" class="node">
<title>Node13</title>
<g id="a_node12"><a xlink:title=" ">
<polygon fill="white" stroke="#bfbfbf" points="732.5,-67.5 732.5,-86.5 894.5,-86.5 894.5,-67.5 732.5,-67.5"/>
<text text-anchor="middle" x="813.5" y="-74.5" font-family="Helvetica,sans-Serif" font-size="10.00">emlabcpp/protocol/endpoint.h</text>
</a>
</g>
</g>
<!-- Node1&#45;&gt;Node13 -->
<g id="edge12" class="edge">
<title>Node1&#45;&gt;Node13</title>
<path fill="none" stroke="midnightblue" d="M573.66,-123.44C623.79,-113.94 704.72,-98.61 758.51,-88.42"/>
<polygon fill="midnightblue" stroke="midnightblue" points="759.38,-91.82 768.55,-86.52 758.08,-84.94 759.38,-91.82"/>
</g>
<!-- Node14 -->
<g id="node13" class="node">
<title>Node14</title>
<g id="a_node13"><a xlink:title=" ">
<polygon fill="white" stroke="#bfbfbf" points="912.5,-67.5 912.5,-86.5 1064.5,-86.5 1064.5,-67.5 912.5,-67.5"/>
<text text-anchor="middle" x="988.5" y="-74.5" font-family="Helvetica,sans-Serif" font-size="10.00">emlabcpp/protocol/packet.h</text>
</a>
</g>
</g>
<!-- Node1&#45;&gt;Node14 -->
<g id="edge13" class="edge">
<title>Node1&#45;&gt;Node14</title>
<path fill="none" stroke="midnightblue" d="M576.43,-126.37C654.43,-117.22 809.79,-98.98 905.87,-87.7"/>
<polygon fill="midnightblue" stroke="midnightblue" points="906.32,-91.17 915.85,-86.53 905.51,-84.22 906.32,-91.17"/>
</g>
<!-- Node3 -->
<g id="node3" class="node">
<title>Node3</title>
<g id="a_node3"><a xlink:href="scaled_8hpp.html" target="_top" xlink:title=" ">
<polygon fill="white" stroke="red" points="0,-6 0,-25 69,-25 69,-6 0,-6"/>
<text text-anchor="middle" x="34.5" y="-13" font-family="Helvetica,sans-Serif" font-size="10.00">scaled.hpp</text>
</a>
</g>
</g>
<!-- Node2&#45;&gt;Node3 -->
<g id="edge2" class="edge">
<title>Node2&#45;&gt;Node3</title>
<path fill="none" stroke="midnightblue" d="M194.89,-67.43C165.41,-58.53 118.14,-44.11 77.5,-31 74.76,-30.12 71.92,-29.19 69.08,-28.25"/>
<polygon fill="midnightblue" stroke="midnightblue" points="70.07,-24.89 59.47,-25.05 67.85,-31.53 70.07,-24.89"/>
</g>
<!-- Node5 -->
<g id="node4" class="node">
<title>Node5</title>
<g id="a_node4"><a xlink:title=" ">
<polygon fill="white" stroke="#bfbfbf" points="87,-6 87,-25 146,-25 146,-6 87,-6"/>
<text text-anchor="middle" x="116.5" y="-13" font-family="Helvetica,sans-Serif" font-size="10.00">numbers</text>
</a>
</g>
</g>
<!-- Node2&#45;&gt;Node5 -->
<g id="edge3" class="edge">
<title>Node2&#45;&gt;Node5</title>
<path fill="none" stroke="midnightblue" d="M208.17,-67.48C190.53,-57.67 161.34,-41.43 140.64,-29.92"/>
<polygon fill="midnightblue" stroke="midnightblue" points="142.24,-26.81 131.8,-25.01 138.84,-32.93 142.24,-26.81"/>
</g>
<!-- Node6 -->
<g id="node5" class="node">
<title>Node6</title>
<g id="a_node5"><a xlink:title=" ">
<polygon fill="white" stroke="#bfbfbf" points="164.5,-6 164.5,-25 214.5,-25 214.5,-6 164.5,-6"/>
<text text-anchor="middle" x="189.5" y="-13" font-family="Helvetica,sans-Serif" font-size="10.00">chrono</text>
</a>
</g>
</g>
<!-- Node2&#45;&gt;Node6 -->
<g id="edge4" class="edge">
<title>Node2&#45;&gt;Node6</title>
<path fill="none" stroke="midnightblue" d="M218.63,-67.48C213.63,-58.73 205.71,-44.87 199.39,-33.81"/>
<polygon fill="midnightblue" stroke="midnightblue" points="202.36,-31.96 194.36,-25.01 196.28,-35.43 202.36,-31.96"/>
</g>
<!-- Node7 -->
<g id="node6" class="node">
<title>Node7</title>
<g id="a_node6"><a xlink:title=" ">
<polygon fill="white" stroke="#bfbfbf" points="232.5,-6 232.5,-25 282.5,-25 282.5,-6 232.5,-6"/>
<text text-anchor="middle" x="257.5" y="-13" font-family="Helvetica,sans-Serif" font-size="10.00">cstdint</text>
</a>
</g>
</g>
<!-- Node2&#45;&gt;Node7 -->
<g id="edge5" class="edge">
<title>Node2&#45;&gt;Node7</title>
<path fill="none" stroke="midnightblue" d="M228.37,-67.48C233.37,-58.73 241.29,-44.87 247.61,-33.81"/>
<polygon fill="midnightblue" stroke="midnightblue" points="250.72,-35.43 252.64,-25.01 244.64,-31.96 250.72,-35.43"/>
</g>
<!-- Node2&#45;&gt;Node8 -->
<g id="edge6" class="edge">
<title>Node2&#45;&gt;Node8</title>
<path fill="none" stroke="midnightblue" d="M243.42,-67.48C266.95,-57.4 306.31,-40.55 333.29,-29"/>
<polygon fill="midnightblue" stroke="midnightblue" points="334.81,-32.16 342.62,-25.01 332.05,-25.73 334.81,-32.16"/>
</g>
<!-- Node10 -->
<g id="node9" class="node">
<title>Node10</title>
<g id="a_node9"><a xlink:title=" ">
<polygon fill="white" stroke="#bfbfbf" points="442.5,-0.5 442.5,-30.5 590.5,-30.5 590.5,-0.5 442.5,-0.5"/>
<text text-anchor="start" x="450.5" y="-18.5" font-family="Helvetica,sans-Serif" font-size="10.00">emlabcpp/protocol/register</text>
<text text-anchor="middle" x="516.5" y="-7.5" font-family="Helvetica,sans-Serif" font-size="10.00">_map.h</text>
</a>
</g>
</g>
<!-- Node9&#45;&gt;Node10 -->
<g id="edge8" class="edge">
<title>Node9&#45;&gt;Node10</title>
<path fill="none" stroke="midnightblue" d="M437.68,-67.48C450.26,-59.34 469.66,-46.79 486.07,-36.18"/>
<polygon fill="midnightblue" stroke="midnightblue" points="488.32,-38.89 494.82,-30.52 484.52,-33.01 488.32,-38.89"/>
</g>
</g>
</svg>
