<?xml version="1.0" encoding="UTF-8" standalone="no"?>
<!DOCTYPE svg PUBLIC "-//W3C//DTD SVG 1.1//EN"
 "http://www.w3.org/Graphics/SVG/1.1/DTD/svg11.dtd">
<!-- Generated by graphviz version 2.43.0 (0)
 -->
<!-- Title: src/brd/prototype2/board.cpp Pages: 1 -->
<svg width="1245pt" height="330pt"
 viewBox="0.00 0.00 1245.45 330.00" xmlns="http://www.w3.org/2000/svg" xmlns:xlink="http://www.w3.org/1999/xlink">
<g id="graph0" class="graph" transform="scale(1 1) rotate(0) translate(4 326)">
<title>src/brd/prototype2/board.cpp</title>
<polygon fill="white" stroke="transparent" points="-4,4 -4,-326 1241.45,-326 1241.45,4 -4,4"/>
<!-- Node1 -->
<g id="node1" class="node">
<title>Node1</title>
<g id="a_node1"><a xlink:title=" ">
<polygon fill="#bfbfbf" stroke="black" points="635.45,-291.5 635.45,-321.5 741.45,-321.5 741.45,-291.5 635.45,-291.5"/>
<text text-anchor="start" x="643.45" y="-309.5" font-family="Helvetica,sans-Serif" font-size="10.00">src/brd/prototype2</text>
<text text-anchor="middle" x="688.45" y="-298.5" font-family="Helvetica,sans-Serif" font-size="10.00">/board.cpp</text>
</a>
</g>
</g>
<!-- Node2 -->
<g id="node2" class="node">
<title>Node2</title>
<g id="a_node2"><a xlink:href="brd_8hpp.html" target="_top" xlink:title=" ">
<polygon fill="white" stroke="black" points="428.95,-235.5 428.95,-254.5 481.95,-254.5 481.95,-235.5 428.95,-235.5"/>
<text text-anchor="middle" x="455.45" y="-242.5" font-family="Helvetica,sans-Serif" font-size="10.00">brd.hpp</text>
</a>
</g>
</g>
<!-- Node1&#45;&gt;Node2 -->
<g id="edge1" class="edge">
<title>Node1&#45;&gt;Node2</title>
<path fill="none" stroke="midnightblue" d="M635.28,-291.92C591.39,-280.72 530.26,-265.11 491.79,-255.28"/>
<polygon fill="midnightblue" stroke="midnightblue" points="492.6,-251.87 482.04,-252.79 490.86,-258.66 492.6,-251.87"/>
</g>
<!-- Node13 -->
<g id="node6" class="node">
<title>Node13</title>
<g id="a_node6"><a xlink:href="drivers_8hpp.html" target="_top" xlink:title=" ">
<polygon fill="white" stroke="black" points="407.95,-179.5 407.95,-198.5 502.95,-198.5 502.95,-179.5 407.95,-179.5"/>
<text text-anchor="middle" x="455.45" y="-186.5" font-family="Helvetica,sans-Serif" font-size="10.00">core/drivers.hpp</text>
</a>
</g>
</g>
<!-- Node1&#45;&gt;Node13 -->
<g id="edge11" class="edge">
<title>Node1&#45;&gt;Node13</title>
<path fill="none" stroke="midnightblue" d="M659.88,-291.34C614.35,-268.77 525.98,-224.97 481.85,-203.09"/>
<polygon fill="midnightblue" stroke="midnightblue" points="483.15,-199.83 472.64,-198.52 480.04,-206.1 483.15,-199.83"/>
</g>
<!-- Node16 -->
<g id="node8" class="node">
<title>Node16</title>
<g id="a_node8"><a xlink:title=" ">
<polygon fill="white" stroke="#bfbfbf" points="209.45,-56.5 209.45,-75.5 313.45,-75.5 313.45,-56.5 209.45,-56.5"/>
<text text-anchor="middle" x="261.45" y="-63.5" font-family="Helvetica,sans-Serif" font-size="10.00">emlabcpp/result.h</text>
</a>
</g>
</g>
<!-- Node1&#45;&gt;Node16 -->
<g id="edge12" class="edge">
<title>Node1&#45;&gt;Node16</title>
<path fill="none" stroke="midnightblue" d="M635.34,-301.37C488.43,-288.71 82.39,-244.94 6.45,-143 -1.78,-131.95 -2.41,-122.56 6.45,-112 30.56,-83.25 131.65,-72.86 199.08,-69.11"/>
<polygon fill="midnightblue" stroke="midnightblue" points="199.38,-72.6 209.18,-68.59 199.01,-65.61 199.38,-72.6"/>
</g>
<!-- Node19 -->
<g id="node10" class="node">
<title>Node19</title>
<g id="a_node10"><a xlink:href="adc__pooler__def_8hpp.html" target="_top" xlink:title=" ">
<polygon fill="white" stroke="black" points="1093.45,-235.5 1093.45,-254.5 1237.45,-254.5 1237.45,-235.5 1093.45,-235.5"/>
<text text-anchor="middle" x="1165.45" y="-242.5" font-family="Helvetica,sans-Serif" font-size="10.00">fw/drv/adc_pooler_def.hpp</text>
</a>
</g>
</g>
<!-- Node1&#45;&gt;Node19 -->
<g id="edge13" class="edge">
<title>Node1&#45;&gt;Node19</title>
<path fill="none" stroke="midnightblue" d="M741.78,-298.85C825.83,-288.36 989.58,-267.94 1087.05,-255.78"/>
<polygon fill="midnightblue" stroke="midnightblue" points="1087.65,-259.23 1097.14,-254.52 1086.78,-252.29 1087.65,-259.23"/>
</g>
<!-- Node24 -->
<g id="node13" class="node">
<title>Node24</title>
<g id="a_node13"><a xlink:href="clock_8hpp.html" target="_top" xlink:title=" ">
<polygon fill="white" stroke="black" points="745.45,-179.5 745.45,-198.5 841.45,-198.5 841.45,-179.5 745.45,-179.5"/>
<text text-anchor="middle" x="793.45" y="-186.5" font-family="Helvetica,sans-Serif" font-size="10.00">fw/drv/clock.hpp</text>
</a>
</g>
</g>
<!-- Node1&#45;&gt;Node24 -->
<g id="edge16" class="edge">
<title>Node1&#45;&gt;Node24</title>
<path fill="none" stroke="midnightblue" d="M701.32,-291.34C720.93,-269.77 758.16,-228.81 778.78,-206.13"/>
<polygon fill="midnightblue" stroke="midnightblue" points="781.43,-208.42 785.57,-198.67 776.25,-203.71 781.43,-208.42"/>
</g>
<!-- Node25 -->
<g id="node14" class="node">
<title>Node25</title>
<g id="a_node14"><a xlink:href="cobs__uart_8hpp.html" target="_top" xlink:title=" ">
<polygon fill="white" stroke="black" points="271.45,-179.5 271.45,-198.5 389.45,-198.5 389.45,-179.5 271.45,-179.5"/>
<text text-anchor="middle" x="330.45" y="-186.5" font-family="Helvetica,sans-Serif" font-size="10.00">fw/drv/cobs_uart.hpp</text>
</a>
</g>
</g>
<!-- Node1&#45;&gt;Node25 -->
<g id="edge21" class="edge">
<title>Node1&#45;&gt;Node25</title>
<path fill="none" stroke="midnightblue" d="M635.37,-302.48C579.6,-297.74 490.32,-285.65 419.45,-255 391.63,-242.97 364.17,-220.94 347.26,-205.9"/>
<polygon fill="midnightblue" stroke="midnightblue" points="349.19,-202.91 339.44,-198.75 344.47,-208.08 349.19,-202.91"/>
</g>
<!-- Node28 -->
<g id="node17" class="node">
<title>Node28</title>
<g id="a_node17"><a xlink:href="leds_8hpp.html" target="_top" xlink:title=" ">
<polygon fill="white" stroke="black" points="859.95,-179.5 859.95,-198.5 950.95,-198.5 950.95,-179.5 859.95,-179.5"/>
<text text-anchor="middle" x="905.45" y="-186.5" font-family="Helvetica,sans-Serif" font-size="10.00">fw/drv/leds.hpp</text>
</a>
</g>
</g>
<!-- Node1&#45;&gt;Node28 -->
<g id="edge27" class="edge">
<title>Node1&#45;&gt;Node28</title>
<path fill="none" stroke="midnightblue" d="M715.05,-291.34C757.37,-268.82 839.41,-225.15 880.59,-203.23"/>
<polygon fill="midnightblue" stroke="midnightblue" points="882.25,-206.31 889.43,-198.52 878.96,-200.13 882.25,-206.31"/>
</g>
<!-- Node30 -->
<g id="node19" class="node">
<title>Node30</title>
<g id="a_node19"><a xlink:href="util_8hpp.html" target="_top" xlink:title=" ">
<polygon fill="white" stroke="black" points="1005.45,-235.5 1005.45,-254.5 1073.45,-254.5 1073.45,-235.5 1005.45,-235.5"/>
<text text-anchor="middle" x="1039.45" y="-242.5" font-family="Helvetica,sans-Serif" font-size="10.00">fw/util.hpp</text>
</a>
</g>
</g>
<!-- Node1&#45;&gt;Node30 -->
<g id="edge35" class="edge">
<title>Node1&#45;&gt;Node30</title>
<path fill="none" stroke="midnightblue" d="M741.76,-296.46C810.97,-284.73 930.52,-264.46 995.06,-253.52"/>
<polygon fill="midnightblue" stroke="midnightblue" points="996.03,-256.91 1005.3,-251.79 994.86,-250.01 996.03,-256.91"/>
</g>
<!-- Node33 -->
<g id="node22" class="node">
<title>Node33</title>
<g id="a_node22"><a xlink:href="brd_2prototype2_2setup_8hpp.html" target="_top" xlink:title=" ">
<polygon fill="white" stroke="black" points="655.95,-235.5 655.95,-254.5 720.95,-254.5 720.95,-235.5 655.95,-235.5"/>
<text text-anchor="middle" x="688.45" y="-242.5" font-family="Helvetica,sans-Serif" font-size="10.00">setup.hpp</text>
</a>
</g>
</g>
<!-- Node1&#45;&gt;Node33 -->
<g id="edge38" class="edge">
<title>Node1&#45;&gt;Node33</title>
<path fill="none" stroke="midnightblue" d="M688.45,-291.4C688.45,-283.47 688.45,-273.46 688.45,-264.86"/>
<polygon fill="midnightblue" stroke="midnightblue" points="691.95,-264.66 688.45,-254.66 684.95,-264.66 691.95,-264.66"/>
</g>
<!-- Node3 -->
<g id="node3" class="node">
<title>Node3</title>
<g id="a_node3"><a xlink:href="map_8hpp.html" target="_top" xlink:title=" ">
<polygon fill="white" stroke="red" points="15.95,-118 15.95,-137 92.95,-137 92.95,-118 15.95,-118"/>
<text text-anchor="middle" x="54.45" y="-125" font-family="Helvetica,sans-Serif" font-size="10.00">cfg/map.hpp</text>
</a>
</g>
</g>
<!-- Node2&#45;&gt;Node3 -->
<g id="edge2" class="edge">
<title>Node2&#45;&gt;Node3</title>
<path fill="none" stroke="midnightblue" d="M428.7,-238.63C391.25,-230.91 321.17,-215.76 262.45,-199 199.58,-181.06 127.61,-155.53 86.94,-140.62"/>
<polygon fill="midnightblue" stroke="midnightblue" points="87.89,-137.24 77.3,-137.07 85.47,-143.81 87.89,-137.24"/>
</g>
<!-- Node2&#45;&gt;Node13 -->
<g id="edge5" class="edge">
<title>Node2&#45;&gt;Node13</title>
<path fill="none" stroke="midnightblue" d="M455.45,-235.08C455.45,-228.01 455.45,-217.86 455.45,-208.99"/>
<polygon fill="midnightblue" stroke="midnightblue" points="458.95,-208.75 455.45,-198.75 451.95,-208.75 458.95,-208.75"/>
</g>
<!-- Node4 -->
<g id="node4" class="node">
<title>Node4</title>
<g id="a_node4"><a xlink:href="base_8hpp.html" target="_top" xlink:title=" ">
<polygon fill="white" stroke="red" points="689.95,-56.5 689.95,-75.5 776.95,-75.5 776.95,-56.5 689.95,-56.5"/>
<text text-anchor="middle" x="733.45" y="-63.5" font-family="Helvetica,sans-Serif" font-size="10.00">base/base.hpp</text>
</a>
</g>
</g>
<!-- Node3&#45;&gt;Node4 -->
<g id="edge3" class="edge">
<title>Node3&#45;&gt;Node4</title>
<path fill="none" stroke="midnightblue" d="M78.58,-117.9C85.84,-115.63 93.89,-113.41 101.45,-112 312.76,-72.42 569.79,-67.05 679.56,-66.72"/>
<polygon fill="midnightblue" stroke="midnightblue" points="679.72,-70.22 689.72,-66.7 679.71,-63.22 679.72,-70.22"/>
</g>
<!-- Node6 -->
<g id="node5" class="node">
<title>Node6</title>
<g id="a_node5"><a xlink:title=" ">
<polygon fill="white" stroke="#bfbfbf" points="708.45,-0.5 708.45,-19.5 758.45,-19.5 758.45,-0.5 708.45,-0.5"/>
<text text-anchor="middle" x="733.45" y="-7.5" font-family="Helvetica,sans-Serif" font-size="10.00">cstdint</text>
</a>
</g>
</g>
<!-- Node4&#45;&gt;Node6 -->
<g id="edge4" class="edge">
<title>Node4&#45;&gt;Node6</title>
<path fill="none" stroke="midnightblue" d="M733.45,-56.08C733.45,-49.01 733.45,-38.86 733.45,-29.99"/>
<polygon fill="midnightblue" stroke="midnightblue" points="736.95,-29.75 733.45,-19.75 729.95,-29.75 736.95,-29.75"/>
</g>
<!-- Node14 -->
<g id="node7" class="node">
<title>Node14</title>
<g id="a_node7"><a xlink:href="drv__interfaces_8hpp.html" target="_top" xlink:title=" ">
<polygon fill="white" stroke="red" points="454.45,-118 454.45,-137 588.45,-137 588.45,-118 454.45,-118"/>
<text text-anchor="middle" x="521.45" y="-125" font-family="Helvetica,sans-Serif" font-size="10.00">base/drv_interfaces.hpp</text>
</a>
</g>
</g>
<!-- Node13&#45;&gt;Node14 -->
<g id="edge6" class="edge">
<title>Node13&#45;&gt;Node14</title>
<path fill="none" stroke="midnightblue" d="M464.9,-179.48C475.19,-170.2 491.86,-155.17 504.44,-143.83"/>
<polygon fill="midnightblue" stroke="midnightblue" points="506.92,-146.3 512.01,-137.01 502.24,-141.11 506.92,-146.3"/>
</g>
<!-- Node18 -->
<g id="node9" class="node">
<title>Node18</title>
<g id="a_node9"><a xlink:title=" ">
<polygon fill="white" stroke="#bfbfbf" points="606.95,-112.5 606.95,-142.5 739.95,-142.5 739.95,-112.5 606.95,-112.5"/>
<text text-anchor="start" x="614.95" y="-130.5" font-family="Helvetica,sans-Serif" font-size="10.00">emlabcpp/experimental</text>
<text text-anchor="middle" x="673.45" y="-119.5" font-family="Helvetica,sans-Serif" font-size="10.00">/function_view.h</text>
</a>
</g>
</g>
<!-- Node13&#45;&gt;Node18 -->
<g id="edge10" class="edge">
<title>Node13&#45;&gt;Node18</title>
<path fill="none" stroke="midnightblue" d="M486.68,-179.48C519.31,-170.57 571.34,-156.37 612.2,-145.22"/>
<polygon fill="midnightblue" stroke="midnightblue" points="613.34,-148.53 622.07,-142.52 611.5,-141.78 613.34,-148.53"/>
</g>
<!-- Node14&#45;&gt;Node4 -->
<g id="edge7" class="edge">
<title>Node14&#45;&gt;Node4</title>
<path fill="none" stroke="midnightblue" d="M551.82,-117.98C589.05,-107.53 652.26,-89.79 693.42,-78.23"/>
<polygon fill="midnightblue" stroke="midnightblue" points="694.45,-81.58 703.13,-75.51 692.55,-74.84 694.45,-81.58"/>
</g>
<!-- Node14&#45;&gt;Node6 -->
<g id="edge8" class="edge">
<title>Node14&#45;&gt;Node6</title>
<path fill="none" stroke="midnightblue" d="M537.38,-117.82C574.07,-97.83 664.74,-48.43 708.73,-24.47"/>
<polygon fill="midnightblue" stroke="midnightblue" points="710.51,-27.48 717.62,-19.62 707.16,-21.34 710.51,-27.48"/>
</g>
<!-- Node14&#45;&gt;Node16 -->
<g id="edge9" class="edge">
<title>Node14&#45;&gt;Node16</title>
<path fill="none" stroke="midnightblue" d="M484.19,-117.98C437.95,-107.39 359.05,-89.34 308.62,-77.8"/>
<polygon fill="midnightblue" stroke="midnightblue" points="309.16,-74.33 298.63,-75.51 307.6,-81.15 309.16,-74.33"/>
</g>
<!-- Node20 -->
<g id="node11" class="node">
<title>Node20</title>
<g id="a_node11"><a xlink:href="adc__pooler_8hpp.html" target="_top" xlink:title=" ">
<polygon fill="white" stroke="red" points="1101.95,-118 1101.95,-137 1224.95,-137 1224.95,-118 1101.95,-118"/>
<text text-anchor="middle" x="1163.45" y="-125" font-family="Helvetica,sans-Serif" font-size="10.00">fw/drv/adc_pooler.hpp</text>
</a>
</g>
</g>
<!-- Node19&#45;&gt;Node20 -->
<g id="edge14" class="edge">
<title>Node19&#45;&gt;Node20</title>
<path fill="none" stroke="midnightblue" d="M1165.3,-235.32C1164.97,-216.76 1164.21,-172.84 1163.78,-147.47"/>
<polygon fill="midnightblue" stroke="midnightblue" points="1167.27,-147.22 1163.6,-137.28 1160.27,-147.34 1167.27,-147.22"/>
</g>
<!-- Node22 -->
<g id="node12" class="node">
<title>Node22</title>
<g id="a_node12"><a xlink:href="platform_8hpp.html" target="_top" xlink:title=" ">
<polygon fill="white" stroke="red" points="861.45,-56.5 861.45,-75.5 941.45,-75.5 941.45,-56.5 861.45,-56.5"/>
<text text-anchor="middle" x="901.45" y="-63.5" font-family="Helvetica,sans-Serif" font-size="10.00">platform.hpp</text>
</a>
</g>
</g>
<!-- Node20&#45;&gt;Node22 -->
<g id="edge15" class="edge">
<title>Node20&#45;&gt;Node22</title>
<path fill="none" stroke="midnightblue" d="M1125.91,-117.98C1079.21,-107.37 999.47,-89.26 948.67,-77.72"/>
<polygon fill="midnightblue" stroke="midnightblue" points="949.44,-74.31 938.92,-75.51 947.89,-81.14 949.44,-74.31"/>
</g>
<!-- Node24&#45;&gt;Node4 -->
<g id="edge17" class="edge">
<title>Node24&#45;&gt;Node4</title>
<path fill="none" stroke="midnightblue" d="M789.13,-179.3C779.36,-159.59 755.37,-111.21 742.29,-84.84"/>
<polygon fill="midnightblue" stroke="midnightblue" points="745.3,-83.03 737.72,-75.62 739.03,-86.14 745.3,-83.03"/>
</g>
<!-- Node24&#45;&gt;Node14 -->
<g id="edge18" class="edge">
<title>Node24&#45;&gt;Node14</title>
<path fill="none" stroke="midnightblue" d="M754.48,-179.48C705.9,-168.85 622.86,-150.68 570.14,-139.15"/>
<polygon fill="midnightblue" stroke="midnightblue" points="570.86,-135.73 560.35,-137.01 569.37,-142.57 570.86,-135.73"/>
</g>
<!-- Node24&#45;&gt;Node18 -->
<g id="edge20" class="edge">
<title>Node24&#45;&gt;Node18</title>
<path fill="none" stroke="midnightblue" d="M776.25,-179.48C759.24,-171.04 732.65,-157.86 710.77,-147.01"/>
<polygon fill="midnightblue" stroke="midnightblue" points="712.24,-143.83 701.73,-142.52 709.13,-150.1 712.24,-143.83"/>
</g>
<!-- Node24&#45;&gt;Node22 -->
<g id="edge19" class="edge">
<title>Node24&#45;&gt;Node22</title>
<path fill="none" stroke="midnightblue" d="M801.21,-179.3C819.19,-159.15 863.91,-109.06 887.05,-83.12"/>
<polygon fill="midnightblue" stroke="midnightblue" points="889.7,-85.41 893.75,-75.62 884.48,-80.75 889.7,-85.41"/>
</g>
<!-- Node25&#45;&gt;Node14 -->
<g id="edge22" class="edge">
<title>Node25&#45;&gt;Node14</title>
<path fill="none" stroke="midnightblue" d="M357.81,-179.48C391,-169.14 447.1,-151.66 484.2,-140.1"/>
<polygon fill="midnightblue" stroke="midnightblue" points="485.63,-143.32 494.13,-137.01 483.54,-136.64 485.63,-143.32"/>
</g>
<!-- Node25&#45;&gt;Node18 -->
<g id="edge25" class="edge">
<title>Node25&#45;&gt;Node18</title>
<path fill="none" stroke="midnightblue" d="M382.94,-179.5C434.61,-171.05 516.05,-157.53 596.43,-143.16"/>
<polygon fill="midnightblue" stroke="midnightblue" points="597.51,-146.52 606.73,-141.31 596.27,-139.63 597.51,-146.52"/>
</g>
<!-- Node25&#45;&gt;Node22 -->
<g id="edge23" class="edge">
<title>Node25&#45;&gt;Node22</title>
<path fill="none" stroke="midnightblue" d="M346.82,-179.4C362.73,-170.82 387.35,-156.95 407.45,-143 425.35,-130.57 425.3,-120.31 445.45,-112 463.99,-104.35 736.39,-80.82 851.11,-71.18"/>
<polygon fill="midnightblue" stroke="midnightblue" points="851.71,-74.64 861.38,-70.32 851.12,-67.67 851.71,-74.64"/>
</g>
<!-- Node26 -->
<g id="node15" class="node">
<title>Node26</title>
<g id="a_node15"><a xlink:title=" ">
<polygon fill="white" stroke="#bfbfbf" points="110.95,-112.5 110.95,-142.5 243.95,-142.5 243.95,-112.5 110.95,-112.5"/>
<text text-anchor="start" x="118.95" y="-130.5" font-family="Helvetica,sans-Serif" font-size="10.00">emlabcpp/experimental</text>
<text text-anchor="middle" x="177.45" y="-119.5" font-family="Helvetica,sans-Serif" font-size="10.00">/cobs.h</text>
</a>
</g>
</g>
<!-- Node25&#45;&gt;Node26 -->
<g id="edge24" class="edge">
<title>Node25&#45;&gt;Node26</title>
<path fill="none" stroke="midnightblue" d="M308.53,-179.48C286.35,-170.85 251.41,-157.26 223.18,-146.29"/>
<polygon fill="midnightblue" stroke="midnightblue" points="224.09,-142.89 213.51,-142.52 221.56,-149.41 224.09,-142.89"/>
</g>
<!-- Node27 -->
<g id="node16" class="node">
<title>Node27</title>
<g id="a_node16"><a xlink:title=" ">
<polygon fill="white" stroke="#bfbfbf" points="262.45,-112.5 262.45,-142.5 398.45,-142.5 398.45,-112.5 262.45,-112.5"/>
<text text-anchor="start" x="270.45" y="-130.5" font-family="Helvetica,sans-Serif" font-size="10.00">emlabcpp/static_circular</text>
<text text-anchor="middle" x="330.45" y="-119.5" font-family="Helvetica,sans-Serif" font-size="10.00">_buffer.h</text>
</a>
</g>
</g>
<!-- Node25&#45;&gt;Node27 -->
<g id="edge26" class="edge">
<title>Node25&#45;&gt;Node27</title>
<path fill="none" stroke="midnightblue" d="M330.45,-179.48C330.45,-172.47 330.45,-162.19 330.45,-152.7"/>
<polygon fill="midnightblue" stroke="midnightblue" points="333.95,-152.52 330.45,-142.52 326.95,-152.52 333.95,-152.52"/>
</g>
<!-- Node28&#45;&gt;Node4 -->
<g id="edge28" class="edge">
<title>Node28&#45;&gt;Node4</title>
<path fill="none" stroke="midnightblue" d="M893.35,-179.49C864.31,-159.06 790.36,-107.04 754.11,-81.54"/>
<polygon fill="midnightblue" stroke="midnightblue" points="755.95,-78.55 745.76,-75.66 751.92,-84.28 755.95,-78.55"/>
</g>
<!-- Node28&#45;&gt;Node6 -->
<g id="edge33" class="edge">
<title>Node28&#45;&gt;Node6</title>
<path fill="none" stroke="midnightblue" d="M951.19,-187.15C984.34,-183.83 1027.11,-173.39 1049.45,-143 1057.61,-131.9 1056.39,-123.9 1049.45,-112 1023.98,-68.33 997.76,-73.79 950.45,-56 888.73,-32.8 812.4,-20.49 768.68,-14.89"/>
<polygon fill="midnightblue" stroke="midnightblue" points="768.91,-11.4 758.55,-13.64 768.05,-18.34 768.91,-11.4"/>
</g>
<!-- Node28&#45;&gt;Node14 -->
<g id="edge29" class="edge">
<title>Node28&#45;&gt;Node14</title>
<path fill="none" stroke="midnightblue" d="M859.84,-180.46C856.66,-179.96 853.51,-179.47 850.45,-179 738.17,-161.83 709.48,-161.65 597.45,-143 589.98,-141.76 582.13,-140.36 574.41,-138.94"/>
<polygon fill="midnightblue" stroke="midnightblue" points="574.86,-135.46 564.39,-137.06 573.57,-142.34 574.86,-135.46"/>
</g>
<!-- Node28&#45;&gt;Node18 -->
<g id="edge34" class="edge">
<title>Node28&#45;&gt;Node18</title>
<path fill="none" stroke="midnightblue" d="M872.21,-179.48C837.33,-170.53 781.64,-156.25 738.07,-145.07"/>
<polygon fill="midnightblue" stroke="midnightblue" points="738.68,-141.62 728.12,-142.52 736.94,-148.4 738.68,-141.62"/>
</g>
<!-- Node28&#45;&gt;Node22 -->
<g id="edge32" class="edge">
<title>Node28&#45;&gt;Node22</title>
<path fill="none" stroke="midnightblue" d="M905.16,-179.3C904.52,-159.85 902.95,-112.49 902.07,-85.9"/>
<polygon fill="midnightblue" stroke="midnightblue" points="905.56,-85.5 901.73,-75.62 898.56,-85.73 905.56,-85.5"/>
</g>
<!-- Node29 -->
<g id="node18" class="node">
<title>Node29</title>
<g id="a_node18"><a xlink:href="defs_8hpp.html" target="_top" xlink:title=" ">
<polygon fill="white" stroke="black" points="948.45,-118 948.45,-137 1040.45,-137 1040.45,-118 948.45,-118"/>
<text text-anchor="middle" x="994.45" y="-125" font-family="Helvetica,sans-Serif" font-size="10.00">fw/drv/defs.hpp</text>
</a>
</g>
</g>
<!-- Node28&#45;&gt;Node29 -->
<g id="edge30" class="edge">
<title>Node28&#45;&gt;Node29</title>
<path fill="none" stroke="midnightblue" d="M918.2,-179.48C932.47,-169.93 955.84,-154.31 972.95,-142.87"/>
<polygon fill="midnightblue" stroke="midnightblue" points="975.35,-145.48 981.72,-137.01 971.46,-139.66 975.35,-145.48"/>
</g>
<!-- Node29&#45;&gt;Node22 -->
<g id="edge31" class="edge">
<title>Node29&#45;&gt;Node22</title>
<path fill="none" stroke="midnightblue" d="M981.12,-117.98C966.07,-108.34 941.33,-92.52 923.41,-81.05"/>
<polygon fill="midnightblue" stroke="midnightblue" points="925.06,-77.95 914.75,-75.51 921.28,-83.85 925.06,-77.95"/>
</g>
<!-- Node31 -->
<g id="node20" class="node">
<title>Node31</title>
<g id="a_node20"><a xlink:title=" ">
<polygon fill="white" stroke="#bfbfbf" points="1007.45,-179.5 1007.45,-198.5 1071.45,-198.5 1071.45,-179.5 1007.45,-179.5"/>
<text text-anchor="middle" x="1039.45" y="-186.5" font-family="Helvetica,sans-Serif" font-size="10.00">algorithm</text>
</a>
</g>
</g>
<!-- Node30&#45;&gt;Node31 -->
<g id="edge36" class="edge">
<title>Node30&#45;&gt;Node31</title>
<path fill="none" stroke="midnightblue" d="M1039.45,-235.08C1039.45,-228.01 1039.45,-217.86 1039.45,-208.99"/>
<polygon fill="midnightblue" stroke="midnightblue" points="1042.95,-208.75 1039.45,-198.75 1035.95,-208.75 1042.95,-208.75"/>
</g>
<!-- Node32 -->
<g id="node21" class="node">
<title>Node32</title>
<g id="a_node21"><a xlink:title=" ">
<polygon fill="white" stroke="#bfbfbf" points="1089.45,-179.5 1089.45,-198.5 1139.45,-198.5 1139.45,-179.5 1089.45,-179.5"/>
<text text-anchor="middle" x="1114.45" y="-186.5" font-family="Helvetica,sans-Serif" font-size="10.00">cstring</text>
</a>
</g>
</g>
<!-- Node30&#45;&gt;Node32 -->
<g id="edge37" class="edge">
<title>Node30&#45;&gt;Node32</title>
<path fill="none" stroke="midnightblue" d="M1051.5,-235.32C1062.91,-227.11 1080.28,-214.6 1093.88,-204.81"/>
<polygon fill="midnightblue" stroke="midnightblue" points="1096.11,-207.52 1102.18,-198.83 1092.02,-201.84 1096.11,-207.52"/>
</g>
<!-- Node33&#45;&gt;Node28 -->
<g id="edge46" class="edge">
<title>Node33&#45;&gt;Node28</title>
<path fill="none" stroke="midnightblue" d="M721.4,-235.8C758.75,-226.5 819.82,-211.31 861.27,-200.99"/>
<polygon fill="midnightblue" stroke="midnightblue" points="862.24,-204.36 871.1,-198.55 860.55,-197.57 862.24,-204.36"/>
</g>
<!-- Node33&#45;&gt;Node29 -->
<g id="edge41" class="edge">
<title>Node33&#45;&gt;Node29</title>
<path fill="none" stroke="midnightblue" d="M721.4,-242.23C785.1,-238.24 922.17,-226.6 959.45,-199 976.4,-186.45 985.64,-163.4 990.29,-147.08"/>
<polygon fill="midnightblue" stroke="midnightblue" points="993.77,-147.61 992.83,-137.06 986.98,-145.9 993.77,-147.61"/>
</g>
<!-- Node34 -->
<g id="node23" class="node">
<title>Node34</title>
<g id="a_node23"><a xlink:href="board_8hpp.html" target="_top" xlink:title=" ">
<polygon fill="white" stroke="red" points="521.45,-179.5 521.45,-198.5 601.45,-198.5 601.45,-179.5 521.45,-179.5"/>
<text text-anchor="middle" x="561.45" y="-186.5" font-family="Helvetica,sans-Serif" font-size="10.00">fw/board.hpp</text>
</a>
</g>
</g>
<!-- Node33&#45;&gt;Node34 -->
<g id="edge39" class="edge">
<title>Node33&#45;&gt;Node34</title>
<path fill="none" stroke="midnightblue" d="M668.32,-235.44C647.42,-226.56 614.51,-212.56 590.73,-202.45"/>
<polygon fill="midnightblue" stroke="midnightblue" points="592.05,-199.21 581.48,-198.52 589.31,-205.65 592.05,-199.21"/>
</g>
<!-- Node37 -->
<g id="node24" class="node">
<title>Node37</title>
<g id="a_node24"><a xlink:href="hbridge_8hpp.html" target="_top" xlink:title=" ">
<polygon fill="white" stroke="red" points="619.95,-179.5 619.95,-198.5 726.95,-198.5 726.95,-179.5 619.95,-179.5"/>
<text text-anchor="middle" x="673.45" y="-186.5" font-family="Helvetica,sans-Serif" font-size="10.00">fw/drv/hbridge.hpp</text>
</a>
</g>
</g>
<!-- Node33&#45;&gt;Node37 -->
<g id="edge42" class="edge">
<title>Node33&#45;&gt;Node37</title>
<path fill="none" stroke="midnightblue" d="M685.97,-235.08C683.96,-227.85 681.06,-217.41 678.56,-208.4"/>
<polygon fill="midnightblue" stroke="midnightblue" points="681.93,-207.45 675.88,-198.75 675.18,-209.32 681.93,-207.45"/>
</g>
<!-- Node34&#45;&gt;Node14 -->
<g id="edge40" class="edge">
<title>Node34&#45;&gt;Node14</title>
<path fill="none" stroke="midnightblue" d="M555.72,-179.48C549.77,-170.64 540.33,-156.59 532.86,-145.48"/>
<polygon fill="midnightblue" stroke="midnightblue" points="535.65,-143.36 527.17,-137.01 529.84,-147.26 535.65,-143.36"/>
</g>
<!-- Node37&#45;&gt;Node14 -->
<g id="edge43" class="edge">
<title>Node37&#45;&gt;Node14</title>
<path fill="none" stroke="midnightblue" d="M651.67,-179.48C625.71,-169.31 582.14,-152.26 552.61,-140.7"/>
<polygon fill="midnightblue" stroke="midnightblue" points="553.77,-137.4 543.18,-137.01 551.22,-143.91 553.77,-137.4"/>
</g>
<!-- Node37&#45;&gt;Node18 -->
<g id="edge45" class="edge">
<title>Node37&#45;&gt;Node18</title>
<path fill="none" stroke="midnightblue" d="M673.45,-179.48C673.45,-172.47 673.45,-162.19 673.45,-152.7"/>
<polygon fill="midnightblue" stroke="midnightblue" points="676.95,-152.52 673.45,-142.52 669.95,-152.52 676.95,-152.52"/>
</g>
<!-- Node37&#45;&gt;Node22 -->
<g id="edge44" class="edge">
<title>Node37&#45;&gt;Node22</title>
<path fill="none" stroke="midnightblue" d="M689.48,-179.49C728.55,-158.76 828.92,-105.49 876.16,-80.42"/>
<polygon fill="midnightblue" stroke="midnightblue" points="877.93,-83.44 885.13,-75.66 874.65,-77.26 877.93,-83.44"/>
</g>
</g>
</svg>
