<?xml version="1.0" encoding="UTF-8" standalone="no"?>
<!DOCTYPE svg PUBLIC "-//W3C//DTD SVG 1.1//EN"
 "http://www.w3.org/Graphics/SVG/1.1/DTD/svg11.dtd">
<!-- Generated by graphviz version 2.43.0 (0)
 -->
<!-- Title: src/brd/prototype2/board.cpp Pages: 1 -->
<svg width="1491pt" height="397pt"
 viewBox="0.00 0.00 1490.50 397.00" xmlns="http://www.w3.org/2000/svg" xmlns:xlink="http://www.w3.org/1999/xlink">
<g id="graph0" class="graph" transform="scale(1 1) rotate(0) translate(4 393)">
<title>src/brd/prototype2/board.cpp</title>
<polygon fill="white" stroke="transparent" points="-4,4 -4,-393 1486.5,-393 1486.5,4 -4,4"/>
<!-- Node1 -->
<g id="node1" class="node">
<title>Node1</title>
<g id="a_node1"><a xlink:title=" ">
<polygon fill="#bfbfbf" stroke="black" points="680.5,-358.5 680.5,-388.5 786.5,-388.5 786.5,-358.5 680.5,-358.5"/>
<text text-anchor="start" x="688.5" y="-376.5" font-family="Helvetica,sans-Serif" font-size="10.00">src/brd/prototype2</text>
<text text-anchor="middle" x="733.5" y="-365.5" font-family="Helvetica,sans-Serif" font-size="10.00">/board.cpp</text>
</a>
</g>
</g>
<!-- Node2 -->
<g id="node2" class="node">
<title>Node2</title>
<g id="a_node2"><a xlink:href="brd_8hpp.html" target="_top" xlink:title=" ">
<polygon fill="white" stroke="black" points="334,-246.5 334,-265.5 387,-265.5 387,-246.5 334,-246.5"/>
<text text-anchor="middle" x="360.5" y="-253.5" font-family="Helvetica,sans-Serif" font-size="10.00">brd.hpp</text>
</a>
</g>
</g>
<!-- Node1&#45;&gt;Node2 -->
<g id="edge1" class="edge">
<title>Node1&#45;&gt;Node2</title>
<path fill="none" stroke="midnightblue" d="M680.44,-368.75C624.37,-363.41 534.16,-350.83 461.5,-322 430.24,-309.6 398.27,-287.02 378.9,-272.01"/>
<polygon fill="midnightblue" stroke="midnightblue" points="380.95,-269.17 370.94,-265.71 376.61,-274.66 380.95,-269.17"/>
</g>
<!-- Node16 -->
<g id="node6" class="node">
<title>Node16</title>
<g id="a_node6"><a xlink:href="drivers_8hpp.html" target="_top" xlink:title=" ">
<polygon fill="white" stroke="black" points="313,-190.5 313,-209.5 408,-209.5 408,-190.5 313,-190.5"/>
<text text-anchor="middle" x="360.5" y="-197.5" font-family="Helvetica,sans-Serif" font-size="10.00">core/drivers.hpp</text>
</a>
</g>
</g>
<!-- Node1&#45;&gt;Node16 -->
<g id="edge12" class="edge">
<title>Node1&#45;&gt;Node16</title>
<path fill="none" stroke="midnightblue" d="M689.06,-358.49C660.75,-349.12 623.51,-335.99 591.5,-322 513.18,-287.77 424.75,-238.22 383.71,-214.56"/>
<polygon fill="midnightblue" stroke="midnightblue" points="385.42,-211.51 375.01,-209.52 381.91,-217.56 385.42,-211.51"/>
</g>
<!-- Node18 -->
<g id="node8" class="node">
<title>Node18</title>
<g id="a_node8"><a xlink:title=" ">
<polygon fill="white" stroke="#bfbfbf" points="206.5,-62 206.5,-81 310.5,-81 310.5,-62 206.5,-62"/>
<text text-anchor="middle" x="258.5" y="-69" font-family="Helvetica,sans-Serif" font-size="10.00">emlabcpp/result.h</text>
</a>
</g>
</g>
<!-- Node1&#45;&gt;Node18 -->
<g id="edge49" class="edge">
<title>Node1&#45;&gt;Node18</title>
<path fill="none" stroke="midnightblue" d="M680.32,-369.14C519.38,-358.27 48.5,-320.99 48.5,-257 48.5,-257 48.5,-257 48.5,-199 48.5,-164.18 43.05,-147.79 67.5,-123 85.49,-104.76 147.52,-90.62 196.06,-81.99"/>
<polygon fill="midnightblue" stroke="midnightblue" points="196.94,-85.39 206.2,-80.24 195.75,-78.5 196.94,-85.39"/>
</g>
<!-- Node21 -->
<g id="node11" class="node">
<title>Node21</title>
<g id="a_node11"><a xlink:href="globals_8hpp.html" target="_top" xlink:title=" ">
<polygon fill="white" stroke="black" points="1163,-302.5 1163,-321.5 1260,-321.5 1260,-302.5 1163,-302.5"/>
<text text-anchor="middle" x="1211.5" y="-309.5" font-family="Helvetica,sans-Serif" font-size="10.00">core/globals.hpp</text>
</a>
</g>
</g>
<!-- Node1&#45;&gt;Node21 -->
<g id="edge13" class="edge">
<title>Node1&#45;&gt;Node21</title>
<path fill="none" stroke="midnightblue" d="M786.94,-365.85C877.11,-354.62 1058.78,-332.01 1152.54,-320.34"/>
<polygon fill="midnightblue" stroke="midnightblue" points="1153.21,-323.78 1162.7,-319.07 1152.35,-316.84 1153.21,-323.78"/>
</g>
<!-- Node23 -->
<g id="node13" class="node">
<title>Node23</title>
<g id="a_node13"><a xlink:href="adc__pooler_8hpp.html" target="_top" xlink:title=" ">
<polygon fill="white" stroke="black" points="812,-246.5 812,-265.5 921,-265.5 921,-246.5 812,-246.5"/>
<text text-anchor="middle" x="866.5" y="-253.5" font-family="Helvetica,sans-Serif" font-size="10.00">drv/adc_pooler.hpp</text>
</a>
</g>
</g>
<!-- Node1&#45;&gt;Node23 -->
<g id="edge15" class="edge">
<title>Node1&#45;&gt;Node23</title>
<path fill="none" stroke="midnightblue" d="M751.02,-358.33C763.3,-348.31 780.04,-334.5 794.5,-322 813.67,-305.43 835.18,-285.88 849.65,-272.58"/>
<polygon fill="midnightblue" stroke="midnightblue" points="852.31,-274.89 857.29,-265.54 847.57,-269.74 852.31,-274.89"/>
</g>
<!-- Node32 -->
<g id="node18" class="node">
<title>Node32</title>
<g id="a_node18"><a xlink:href="adc__pooler__def_8hpp.html" target="_top" xlink:title=" ">
<polygon fill="white" stroke="black" points="622.5,-302.5 622.5,-321.5 752.5,-321.5 752.5,-302.5 622.5,-302.5"/>
<text text-anchor="middle" x="687.5" y="-309.5" font-family="Helvetica,sans-Serif" font-size="10.00">drv/adc_pooler_def.hpp</text>
</a>
</g>
</g>
<!-- Node1&#45;&gt;Node32 -->
<g id="edge24" class="edge">
<title>Node1&#45;&gt;Node32</title>
<path fill="none" stroke="midnightblue" d="M722.6,-358.4C715.91,-349.75 707.32,-338.64 700.32,-329.58"/>
<polygon fill="midnightblue" stroke="midnightblue" points="703.08,-327.43 694.19,-321.66 697.54,-331.71 703.08,-327.43"/>
</g>
<!-- Node33 -->
<g id="node19" class="node">
<title>Node33</title>
<g id="a_node19"><a xlink:href="clock_8hpp.html" target="_top" xlink:title=" ">
<polygon fill="white" stroke="black" points="502.5,-190.5 502.5,-209.5 584.5,-209.5 584.5,-190.5 502.5,-190.5"/>
<text text-anchor="middle" x="543.5" y="-197.5" font-family="Helvetica,sans-Serif" font-size="10.00">drv/clock.hpp</text>
</a>
</g>
</g>
<!-- Node1&#45;&gt;Node33 -->
<g id="edge27" class="edge">
<title>Node1&#45;&gt;Node33</title>
<path fill="none" stroke="midnightblue" d="M680.34,-358.43C657.84,-350.49 632.49,-338.74 613.5,-322 580.84,-293.22 559.58,-245.36 549.78,-219.3"/>
<polygon fill="midnightblue" stroke="midnightblue" points="552.96,-217.8 546.28,-209.58 546.38,-220.17 552.96,-217.8"/>
</g>
<!-- Node34 -->
<g id="node20" class="node">
<title>Node34</title>
<g id="a_node20"><a xlink:href="cobs__uart_8hpp.html" target="_top" xlink:title=" ">
<polygon fill="white" stroke="black" points="190.5,-190.5 190.5,-209.5 294.5,-209.5 294.5,-190.5 190.5,-190.5"/>
<text text-anchor="middle" x="242.5" y="-197.5" font-family="Helvetica,sans-Serif" font-size="10.00">drv/cobs_uart.hpp</text>
</a>
</g>
</g>
<!-- Node1&#45;&gt;Node34 -->
<g id="edge32" class="edge">
<title>Node1&#45;&gt;Node34</title>
<path fill="none" stroke="midnightblue" d="M680.33,-369.97C616.65,-365.59 507.54,-353.74 419.5,-322 353.53,-298.21 288.79,-243.9 259.21,-216.88"/>
<polygon fill="midnightblue" stroke="midnightblue" points="261.22,-213.97 251.5,-209.73 256.45,-219.1 261.22,-213.97"/>
</g>
<!-- Node38 -->
<g id="node23" class="node">
<title>Node38</title>
<g id="a_node23"><a xlink:href="leds_8hpp.html" target="_top" xlink:title=" ">
<polygon fill="white" stroke="black" points="1089,-246.5 1089,-265.5 1166,-265.5 1166,-246.5 1089,-246.5"/>
<text text-anchor="middle" x="1127.5" y="-253.5" font-family="Helvetica,sans-Serif" font-size="10.00">drv/leds.hpp</text>
</a>
</g>
</g>
<!-- Node1&#45;&gt;Node38 -->
<g id="edge41" class="edge">
<title>Node1&#45;&gt;Node38</title>
<path fill="none" stroke="midnightblue" d="M786.5,-372.1C850.7,-369.82 960.86,-360.05 1046.5,-322 1072.6,-310.4 1097.41,-288.28 1112.54,-273.09"/>
<polygon fill="midnightblue" stroke="midnightblue" points="1115.08,-275.49 1119.52,-265.87 1110.05,-270.62 1115.08,-275.49"/>
</g>
<!-- Node41 -->
<g id="node25" class="node">
<title>Node41</title>
<g id="a_node25"><a xlink:href="util_8hpp.html" target="_top" xlink:title=" ">
<polygon fill="white" stroke="black" points="1348.5,-302.5 1348.5,-321.5 1416.5,-321.5 1416.5,-302.5 1348.5,-302.5"/>
<text text-anchor="middle" x="1382.5" y="-309.5" font-family="Helvetica,sans-Serif" font-size="10.00">fw/util.hpp</text>
</a>
</g>
</g>
<!-- Node1&#45;&gt;Node41 -->
<g id="edge50" class="edge">
<title>Node1&#45;&gt;Node41</title>
<path fill="none" stroke="midnightblue" d="M786.61,-367.63C911.52,-356.18 1222.11,-327.7 1337.98,-317.08"/>
<polygon fill="midnightblue" stroke="midnightblue" points="1338.61,-320.54 1348.25,-316.14 1337.97,-313.57 1338.61,-320.54"/>
</g>
<!-- Node44 -->
<g id="node28" class="node">
<title>Node44</title>
<g id="a_node28"><a xlink:href="brd_2prototype2_2setup_8hpp.html" target="_top" xlink:title=" ">
<polygon fill="white" stroke="black" points="973,-302.5 973,-321.5 1038,-321.5 1038,-302.5 973,-302.5"/>
<text text-anchor="middle" x="1005.5" y="-309.5" font-family="Helvetica,sans-Serif" font-size="10.00">setup.hpp</text>
</a>
</g>
</g>
<!-- Node1&#45;&gt;Node44 -->
<g id="edge53" class="edge">
<title>Node1&#45;&gt;Node44</title>
<path fill="none" stroke="midnightblue" d="M786.59,-360.89C838.01,-349.64 915,-332.8 962.64,-322.37"/>
<polygon fill="midnightblue" stroke="midnightblue" points="963.61,-325.75 972.63,-320.19 962.12,-318.91 963.61,-325.75"/>
</g>
<!-- Node46 -->
<g id="node30" class="node">
<title>Node46</title>
<g id="a_node30"><a xlink:href="central__sentry_8hpp.html" target="_top" xlink:title=" ">
<polygon fill="white" stroke="black" points="716.5,-190.5 716.5,-209.5 844.5,-209.5 844.5,-190.5 716.5,-190.5"/>
<text text-anchor="middle" x="780.5" y="-197.5" font-family="Helvetica,sans-Serif" font-size="10.00">sntr/central_sentry.hpp</text>
</a>
</g>
</g>
<!-- Node1&#45;&gt;Node46 -->
<g id="edge63" class="edge">
<title>Node1&#45;&gt;Node46</title>
<path fill="none" stroke="midnightblue" d="M743.27,-358.11C749.44,-348.34 757.07,-334.89 761.5,-322 773.44,-287.26 777.92,-244.31 779.57,-220.05"/>
<polygon fill="midnightblue" stroke="midnightblue" points="783.08,-219.95 780.17,-209.76 776.09,-219.54 783.08,-219.95"/>
</g>
<!-- Node3 -->
<g id="node3" class="node">
<title>Node3</title>
<g id="a_node3"><a xlink:href="map_8hpp.html" target="_top" xlink:title=" ">
<polygon fill="white" stroke="red" points="287,-129 287,-148 364,-148 364,-129 287,-129"/>
<text text-anchor="middle" x="325.5" y="-136" font-family="Helvetica,sans-Serif" font-size="10.00">cfg/map.hpp</text>
</a>
</g>
</g>
<!-- Node2&#45;&gt;Node3 -->
<g id="edge2" class="edge">
<title>Node2&#45;&gt;Node3</title>
<path fill="none" stroke="midnightblue" d="M333.96,-252.27C288.81,-247.03 200.12,-233.88 181.5,-210 176.03,-202.99 176.36,-197.25 181.5,-190 192.88,-173.95 239.53,-159.52 276.69,-150.24"/>
<polygon fill="midnightblue" stroke="midnightblue" points="278,-153.53 286.89,-147.76 276.34,-146.72 278,-153.53"/>
</g>
<!-- Node2&#45;&gt;Node16 -->
<g id="edge5" class="edge">
<title>Node2&#45;&gt;Node16</title>
<path fill="none" stroke="midnightblue" d="M360.5,-246.08C360.5,-239.01 360.5,-228.86 360.5,-219.99"/>
<polygon fill="midnightblue" stroke="midnightblue" points="364,-219.75 360.5,-209.75 357,-219.75 364,-219.75"/>
</g>
<!-- Node4 -->
<g id="node4" class="node">
<title>Node4</title>
<g id="a_node4"><a xlink:href="base_2base_8hpp.html" target="_top" xlink:title=" ">
<polygon fill="white" stroke="red" points="581,-62 581,-81 668,-81 668,-62 581,-62"/>
<text text-anchor="middle" x="624.5" y="-69" font-family="Helvetica,sans-Serif" font-size="10.00">base/base.hpp</text>
</a>
</g>
</g>
<!-- Node3&#45;&gt;Node4 -->
<g id="edge3" class="edge">
<title>Node3&#45;&gt;Node4</title>
<path fill="none" stroke="midnightblue" d="M351.72,-128.9C358.45,-126.83 365.71,-124.72 372.5,-123 440.41,-105.77 519.83,-90.67 571.08,-81.58"/>
<polygon fill="midnightblue" stroke="midnightblue" points="571.7,-85.02 580.95,-79.84 570.49,-78.13 571.7,-85.02"/>
</g>
<!-- Node6 -->
<g id="node5" class="node">
<title>Node6</title>
<g id="a_node5"><a xlink:title=" ">
<polygon fill="white" stroke="#bfbfbf" points="811.5,-0.5 811.5,-19.5 861.5,-19.5 861.5,-0.5 811.5,-0.5"/>
<text text-anchor="middle" x="836.5" y="-7.5" font-family="Helvetica,sans-Serif" font-size="10.00">cstdint</text>
</a>
</g>
</g>
<!-- Node4&#45;&gt;Node6 -->
<g id="edge4" class="edge">
<title>Node4&#45;&gt;Node6</title>
<path fill="none" stroke="midnightblue" d="M654.87,-61.98C693.72,-51.07 760.82,-32.24 801.69,-20.77"/>
<polygon fill="midnightblue" stroke="midnightblue" points="802.8,-24.09 811.48,-18.02 800.91,-17.35 802.8,-24.09"/>
</g>
<!-- Node17 -->
<g id="node7" class="node">
<title>Node17</title>
<g id="a_node7"><a xlink:href="interfaces_8hpp.html" target="_top" xlink:title=" ">
<polygon fill="white" stroke="black" points="572,-129 572,-148 677,-148 677,-129 572,-129"/>
<text text-anchor="middle" x="624.5" y="-136" font-family="Helvetica,sans-Serif" font-size="10.00">drv/interfaces.hpp</text>
</a>
</g>
</g>
<!-- Node16&#45;&gt;Node17 -->
<g id="edge6" class="edge">
<title>Node16&#45;&gt;Node17</title>
<path fill="none" stroke="midnightblue" d="M398.32,-190.48C445.37,-179.87 525.73,-161.76 576.92,-150.22"/>
<polygon fill="midnightblue" stroke="midnightblue" points="577.76,-153.62 586.75,-148.01 576.22,-146.79 577.76,-153.62"/>
</g>
<!-- Node20 -->
<g id="node10" class="node">
<title>Node20</title>
<g id="a_node10"><a xlink:title=" ">
<polygon fill="white" stroke="#bfbfbf" points="382,-123.5 382,-153.5 515,-153.5 515,-123.5 382,-123.5"/>
<text text-anchor="start" x="390" y="-141.5" font-family="Helvetica,sans-Serif" font-size="10.00">emlabcpp/experimental</text>
<text text-anchor="middle" x="448.5" y="-130.5" font-family="Helvetica,sans-Serif" font-size="10.00">/function_view.h</text>
</a>
</g>
</g>
<!-- Node16&#45;&gt;Node20 -->
<g id="edge11" class="edge">
<title>Node16&#45;&gt;Node20</title>
<path fill="none" stroke="midnightblue" d="M373.11,-190.48C385.14,-182.34 403.7,-169.79 419.4,-159.18"/>
<polygon fill="midnightblue" stroke="midnightblue" points="421.44,-162.02 427.76,-153.52 417.52,-156.22 421.44,-162.02"/>
</g>
<!-- Node17&#45;&gt;Node4 -->
<g id="edge7" class="edge">
<title>Node17&#45;&gt;Node4</title>
<path fill="none" stroke="midnightblue" d="M624.5,-128.73C624.5,-119.18 624.5,-103.62 624.5,-91.28"/>
<polygon fill="midnightblue" stroke="midnightblue" points="628,-91.13 624.5,-81.13 621,-91.13 628,-91.13"/>
</g>
<!-- Node17&#45;&gt;Node6 -->
<g id="edge8" class="edge">
<title>Node17&#45;&gt;Node6</title>
<path fill="none" stroke="midnightblue" d="M639.07,-128.81C675.24,-107.22 769.36,-51.06 813.29,-24.85"/>
<polygon fill="midnightblue" stroke="midnightblue" points="815.31,-27.72 822.11,-19.59 811.73,-21.71 815.31,-27.72"/>
</g>
<!-- Node17&#45;&gt;Node18 -->
<g id="edge9" class="edge">
<title>Node17&#45;&gt;Node18</title>
<path fill="none" stroke="midnightblue" d="M576.28,-128.94C509.39,-117.06 388.62,-95.61 316.77,-82.85"/>
<polygon fill="midnightblue" stroke="midnightblue" points="317,-79.33 306.54,-81.03 315.77,-86.23 317,-79.33"/>
</g>
<!-- Node19 -->
<g id="node9" class="node">
<title>Node19</title>
<g id="a_node9"><a xlink:title=" ">
<polygon fill="white" stroke="#bfbfbf" points="1015.5,-62 1015.5,-81 1055.5,-81 1055.5,-62 1015.5,-62"/>
<text text-anchor="middle" x="1035.5" y="-69" font-family="Helvetica,sans-Serif" font-size="10.00">span</text>
</a>
</g>
</g>
<!-- Node17&#45;&gt;Node19 -->
<g id="edge10" class="edge">
<title>Node17&#45;&gt;Node19</title>
<path fill="none" stroke="midnightblue" d="M658.5,-128.99C667.56,-126.88 677.38,-124.72 686.5,-123 803.69,-100.86 944.62,-83.17 1005.29,-75.98"/>
<polygon fill="midnightblue" stroke="midnightblue" points="1005.81,-79.45 1015.33,-74.8 1004.99,-72.49 1005.81,-79.45"/>
</g>
<!-- Node22 -->
<g id="node12" class="node">
<title>Node22</title>
<g id="a_node12"><a xlink:title=" ">
<polygon fill="white" stroke="#bfbfbf" points="1184,-246.5 1184,-265.5 1333,-265.5 1333,-246.5 1184,-246.5"/>
<text text-anchor="middle" x="1258.5" y="-253.5" font-family="Helvetica,sans-Serif" font-size="10.00">emlabcpp/static_function.h</text>
</a>
</g>
</g>
<!-- Node21&#45;&gt;Node22 -->
<g id="edge14" class="edge">
<title>Node21&#45;&gt;Node22</title>
<path fill="none" stroke="midnightblue" d="M1219.26,-302.08C1226.04,-294.3 1236.04,-282.8 1244.26,-273.37"/>
<polygon fill="midnightblue" stroke="midnightblue" points="1246.96,-275.59 1250.88,-265.75 1241.68,-271 1246.96,-275.59"/>
</g>
<!-- Node24 -->
<g id="node14" class="node">
<title>Node24</title>
<g id="a_node14"><a xlink:href="drv_2callbacks_8hpp.html" target="_top" xlink:title=" ">
<polygon fill="white" stroke="black" points="938.5,-190.5 938.5,-209.5 1040.5,-209.5 1040.5,-190.5 938.5,-190.5"/>
<text text-anchor="middle" x="989.5" y="-197.5" font-family="Helvetica,sans-Serif" font-size="10.00">drv/callbacks.hpp</text>
</a>
</g>
</g>
<!-- Node23&#45;&gt;Node24 -->
<g id="edge16" class="edge">
<title>Node23&#45;&gt;Node24</title>
<path fill="none" stroke="midnightblue" d="M885.99,-246.44C906.14,-237.6 937.82,-223.69 960.83,-213.59"/>
<polygon fill="midnightblue" stroke="midnightblue" points="962.35,-216.74 970.1,-209.52 959.54,-210.33 962.35,-216.74"/>
</g>
<!-- Node25 -->
<g id="node15" class="node">
<title>Node25</title>
<g id="a_node15"><a xlink:href="platform_8hpp.html" target="_top" xlink:title=" ">
<polygon fill="white" stroke="red" points="1063.5,-129 1063.5,-148 1143.5,-148 1143.5,-129 1063.5,-129"/>
<text text-anchor="middle" x="1103.5" y="-136" font-family="Helvetica,sans-Serif" font-size="10.00">platform.hpp</text>
</a>
</g>
</g>
<!-- Node23&#45;&gt;Node25 -->
<g id="edge20" class="edge">
<title>Node23&#45;&gt;Node25</title>
<path fill="none" stroke="midnightblue" d="M916.91,-246.48C963.23,-237.97 1027.87,-224.15 1049.5,-210 1069.59,-196.86 1085.22,-173.63 1094.38,-157.44"/>
<polygon fill="midnightblue" stroke="midnightblue" points="1097.57,-158.89 1099.23,-148.42 1091.41,-155.57 1097.57,-158.89"/>
</g>
<!-- Node27 -->
<g id="node16" class="node">
<title>Node27</title>
<g id="a_node16"><a xlink:href="sentry_8hpp.html" target="_top" xlink:title=" ">
<polygon fill="white" stroke="red" points="842,-129 842,-148 931,-148 931,-129 842,-129"/>
<text text-anchor="middle" x="886.5" y="-136" font-family="Helvetica,sans-Serif" font-size="10.00">sntr/sentry.hpp</text>
</a>
</g>
</g>
<!-- Node23&#45;&gt;Node27 -->
<g id="edge22" class="edge">
<title>Node23&#45;&gt;Node27</title>
<path fill="none" stroke="midnightblue" d="M868,-246.32C871.22,-227.76 878.82,-183.84 883.21,-158.47"/>
<polygon fill="midnightblue" stroke="midnightblue" points="886.72,-158.73 884.98,-148.28 879.82,-157.54 886.72,-158.73"/>
</g>
<!-- Node24&#45;&gt;Node6 -->
<g id="edge18" class="edge">
<title>Node24&#45;&gt;Node6</title>
<path fill="none" stroke="midnightblue" d="M986.35,-190.32C977.37,-166.48 949.55,-98.86 908.5,-56 895.95,-42.9 878.84,-32 864.44,-24.21"/>
<polygon fill="midnightblue" stroke="midnightblue" points="865.93,-21.04 855.44,-19.54 862.71,-27.25 865.93,-21.04"/>
</g>
<!-- Node24&#45;&gt;Node17 -->
<g id="edge17" class="edge">
<title>Node24&#45;&gt;Node17</title>
<path fill="none" stroke="midnightblue" d="M938.35,-192.71C877.94,-184.98 774.52,-170.8 686.5,-154 680.73,-152.9 674.68,-151.63 668.71,-150.31"/>
<polygon fill="midnightblue" stroke="midnightblue" points="669.35,-146.86 658.83,-148.06 667.8,-153.69 669.35,-146.86"/>
</g>
<!-- Node24&#45;&gt;Node19 -->
<g id="edge19" class="edge">
<title>Node24&#45;&gt;Node19</title>
<path fill="none" stroke="midnightblue" d="M994.34,-190.23C999.13,-181.31 1006.46,-166.97 1011.5,-154 1019.66,-133 1026.63,-108.04 1030.92,-91.33"/>
<polygon fill="midnightblue" stroke="midnightblue" points="1034.41,-91.78 1033.45,-81.22 1027.62,-90.08 1034.41,-91.78"/>
</g>
<!-- Node25&#45;&gt;Node19 -->
<g id="edge21" class="edge">
<title>Node25&#45;&gt;Node19</title>
<path fill="none" stroke="midnightblue" d="M1094.33,-128.73C1083.52,-118.4 1065.35,-101.04 1052.06,-88.33"/>
<polygon fill="midnightblue" stroke="midnightblue" points="1054.17,-85.51 1044.53,-81.13 1049.34,-90.57 1054.17,-85.51"/>
</g>
<!-- Node31 -->
<g id="node17" class="node">
<title>Node31</title>
<g id="a_node17"><a xlink:href="central__sentry__iface_8hpp.html" target="_top" xlink:title=" ">
<polygon fill="white" stroke="red" points="791.5,-56.5 791.5,-86.5 899.5,-86.5 899.5,-56.5 791.5,-56.5"/>
<text text-anchor="start" x="799.5" y="-74.5" font-family="Helvetica,sans-Serif" font-size="10.00">sntr/central_sentry</text>
<text text-anchor="middle" x="845.5" y="-63.5" font-family="Helvetica,sans-Serif" font-size="10.00">_iface.hpp</text>
</a>
</g>
</g>
<!-- Node27&#45;&gt;Node31 -->
<g id="edge23" class="edge">
<title>Node27&#45;&gt;Node31</title>
<path fill="none" stroke="midnightblue" d="M880.97,-128.73C875.59,-120.2 867.18,-106.87 859.9,-95.33"/>
<polygon fill="midnightblue" stroke="midnightblue" points="862.68,-93.18 854.39,-86.59 856.76,-96.91 862.68,-93.18"/>
</g>
<!-- Node32&#45;&gt;Node17 -->
<g id="edge26" class="edge">
<title>Node32&#45;&gt;Node17</title>
<path fill="none" stroke="midnightblue" d="M684.29,-302.26C674.47,-275.54 644.71,-194.52 631.25,-157.86"/>
<polygon fill="midnightblue" stroke="midnightblue" points="634.36,-156.2 627.63,-148.02 627.79,-158.61 634.36,-156.2"/>
</g>
<!-- Node32&#45;&gt;Node23 -->
<g id="edge25" class="edge">
<title>Node32&#45;&gt;Node23</title>
<path fill="none" stroke="midnightblue" d="M715.86,-302.44C746.24,-293.28 794.61,-278.69 828.32,-268.52"/>
<polygon fill="midnightblue" stroke="midnightblue" points="829.71,-271.76 838.27,-265.52 827.68,-265.05 829.71,-271.76"/>
</g>
<!-- Node33&#45;&gt;Node4 -->
<g id="edge28" class="edge">
<title>Node33&#45;&gt;Node4</title>
<path fill="none" stroke="midnightblue" d="M543.91,-190.33C544.97,-175.45 548.79,-144.58 562.5,-123 572,-108.05 587.43,-95.46 600.51,-86.59"/>
<polygon fill="midnightblue" stroke="midnightblue" points="602.59,-89.42 609.1,-81.06 598.8,-83.54 602.59,-89.42"/>
</g>
<!-- Node33&#45;&gt;Node17 -->
<g id="edge29" class="edge">
<title>Node33&#45;&gt;Node17</title>
<path fill="none" stroke="midnightblue" d="M555.11,-190.48C567.98,-181.02 588.97,-165.6 604.51,-154.19"/>
<polygon fill="midnightblue" stroke="midnightblue" points="606.93,-156.75 612.92,-148.01 602.78,-151.11 606.93,-156.75"/>
</g>
<!-- Node33&#45;&gt;Node20 -->
<g id="edge31" class="edge">
<title>Node33&#45;&gt;Node20</title>
<path fill="none" stroke="midnightblue" d="M529.89,-190.48C516.78,-182.27 496.49,-169.56 479.45,-158.88"/>
<polygon fill="midnightblue" stroke="midnightblue" points="481.22,-155.86 470.89,-153.52 477.51,-161.8 481.22,-155.86"/>
</g>
<!-- Node33&#45;&gt;Node25 -->
<g id="edge30" class="edge">
<title>Node33&#45;&gt;Node25</title>
<path fill="none" stroke="midnightblue" d="M584.68,-194.62C685.37,-183.93 943.78,-156.47 1053.27,-144.84"/>
<polygon fill="midnightblue" stroke="midnightblue" points="1053.82,-148.3 1063.39,-143.76 1053.08,-141.34 1053.82,-148.3"/>
</g>
<!-- Node34&#45;&gt;Node17 -->
<g id="edge35" class="edge">
<title>Node34&#45;&gt;Node17</title>
<path fill="none" stroke="midnightblue" d="M294.81,-190.85C364.39,-180.01 487.23,-160.88 561.72,-149.28"/>
<polygon fill="midnightblue" stroke="midnightblue" points="562.56,-152.69 571.9,-147.69 561.48,-145.77 562.56,-152.69"/>
</g>
<!-- Node34&#45;&gt;Node18 -->
<g id="edge40" class="edge">
<title>Node34&#45;&gt;Node18</title>
<path fill="none" stroke="midnightblue" d="M243.6,-190.31C246.17,-169.99 252.61,-119.05 256.13,-91.28"/>
<polygon fill="midnightblue" stroke="midnightblue" points="259.61,-91.62 257.39,-81.26 252.67,-90.74 259.61,-91.62"/>
</g>
<!-- Node34&#45;&gt;Node20 -->
<g id="edge39" class="edge">
<title>Node34&#45;&gt;Node20</title>
<path fill="none" stroke="midnightblue" d="M272.01,-190.48C302.65,-181.63 351.39,-167.55 389.89,-156.43"/>
<polygon fill="midnightblue" stroke="midnightblue" points="391.31,-159.66 399.95,-153.52 389.37,-152.94 391.31,-159.66"/>
</g>
<!-- Node34&#45;&gt;Node25 -->
<g id="edge36" class="edge">
<title>Node34&#45;&gt;Node25</title>
<path fill="none" stroke="midnightblue" d="M294.7,-190.98C297.68,-190.62 300.62,-190.29 303.5,-190 585.16,-161.31 657.12,-174.47 939.5,-154 977.7,-151.23 1020.84,-147.39 1053.29,-144.35"/>
<polygon fill="midnightblue" stroke="midnightblue" points="1053.8,-147.82 1063.43,-143.4 1053.14,-140.85 1053.8,-147.82"/>
</g>
<!-- Node34&#45;&gt;Node27 -->
<g id="edge37" class="edge">
<title>Node34&#45;&gt;Node27</title>
<path fill="none" stroke="midnightblue" d="M294.71,-191.04C297.68,-190.67 300.63,-190.32 303.5,-190 520.99,-166.02 577.13,-179.05 794.5,-154 806.55,-152.61 819.43,-150.79 831.63,-148.91"/>
<polygon fill="midnightblue" stroke="midnightblue" points="832.35,-152.34 841.68,-147.33 831.26,-145.43 832.35,-152.34"/>
</g>
<!-- Node35 -->
<g id="node21" class="node">
<title>Node35</title>
<g id="a_node21"><a xlink:href="cobs__rx__container_8h.html" target="_top" xlink:title=" ">
<polygon fill="white" stroke="red" points="77,-129 77,-148 230,-148 230,-129 77,-129"/>
<text text-anchor="middle" x="153.5" y="-136" font-family="Helvetica,sans-Serif" font-size="10.00">drv/bits/cobs_rx_container.h</text>
</a>
</g>
</g>
<!-- Node34&#45;&gt;Node35 -->
<g id="edge33" class="edge">
<title>Node34&#45;&gt;Node35</title>
<path fill="none" stroke="midnightblue" d="M229.75,-190.48C215.47,-180.93 192.1,-165.31 174.99,-153.87"/>
<polygon fill="midnightblue" stroke="midnightblue" points="176.49,-150.66 166.23,-148.01 172.6,-156.48 176.49,-150.66"/>
</g>
<!-- Node36 -->
<g id="node22" class="node">
<title>Node36</title>
<g id="a_node22"><a xlink:title=" ">
<polygon fill="white" stroke="#bfbfbf" points="0,-56.5 0,-86.5 133,-86.5 133,-56.5 0,-56.5"/>
<text text-anchor="start" x="8" y="-74.5" font-family="Helvetica,sans-Serif" font-size="10.00">emlabcpp/experimental</text>
<text text-anchor="middle" x="66.5" y="-63.5" font-family="Helvetica,sans-Serif" font-size="10.00">/cobs.h</text>
</a>
</g>
</g>
<!-- Node34&#45;&gt;Node36 -->
<g id="edge38" class="edge">
<title>Node34&#45;&gt;Node36</title>
<path fill="none" stroke="midnightblue" d="M190.17,-192.57C144.29,-185.75 82.61,-173.24 67.5,-154 54.98,-138.06 56.16,-114.43 59.63,-96.72"/>
<polygon fill="midnightblue" stroke="midnightblue" points="63.13,-97.11 61.98,-86.57 56.31,-95.53 63.13,-97.11"/>
</g>
<!-- Node35&#45;&gt;Node36 -->
<g id="edge34" class="edge">
<title>Node35&#45;&gt;Node36</title>
<path fill="none" stroke="midnightblue" d="M141.77,-128.73C129.44,-119.53 109.64,-104.73 93.44,-92.63"/>
<polygon fill="midnightblue" stroke="midnightblue" points="95.46,-89.77 85.36,-86.59 91.27,-95.38 95.46,-89.77"/>
</g>
<!-- Node38&#45;&gt;Node4 -->
<g id="edge42" class="edge">
<title>Node38&#45;&gt;Node4</title>
<path fill="none" stroke="midnightblue" d="M1166.34,-247.25C1213.7,-237.4 1288.47,-220.44 1296.5,-210 1301.92,-202.95 1301.28,-197.49 1296.5,-190 1258.55,-130.48 1220.62,-141.52 1152.5,-123 1146.8,-121.45 811.14,-89.95 678.04,-77.5"/>
<polygon fill="midnightblue" stroke="midnightblue" points="678.34,-74.01 668.05,-76.57 677.69,-80.98 678.34,-74.01"/>
</g>
<!-- Node38&#45;&gt;Node6 -->
<g id="edge47" class="edge">
<title>Node38&#45;&gt;Node6</title>
<path fill="none" stroke="midnightblue" d="M1166.4,-246.81C1219.3,-235.5 1307.93,-215.82 1312.5,-210 1317.99,-203.01 1317.05,-197.63 1312.5,-190 1218.89,-33.02 965.39,-12.87 871.82,-10.91"/>
<polygon fill="midnightblue" stroke="midnightblue" points="871.79,-7.41 861.74,-10.76 871.68,-14.41 871.79,-7.41"/>
</g>
<!-- Node38&#45;&gt;Node17 -->
<g id="edge45" class="edge">
<title>Node38&#45;&gt;Node17</title>
<path fill="none" stroke="midnightblue" d="M1088.83,-251.01C985.75,-240.34 711.88,-211.88 707.5,-210 679.39,-197.93 653.66,-172.96 638.53,-156.21"/>
<polygon fill="midnightblue" stroke="midnightblue" points="640.84,-153.54 631.62,-148.32 635.57,-158.15 640.84,-153.54"/>
</g>
<!-- Node38&#45;&gt;Node20 -->
<g id="edge48" class="edge">
<title>Node38&#45;&gt;Node20</title>
<path fill="none" stroke="midnightblue" d="M1088.98,-250.7C1073.88,-249.1 1056.39,-247.34 1040.5,-246 979.81,-240.87 545.92,-241.01 493.5,-210 475.91,-199.59 464.05,-179.31 456.95,-163.16"/>
<polygon fill="midnightblue" stroke="midnightblue" points="460.14,-161.71 453.13,-153.77 453.65,-164.35 460.14,-161.71"/>
</g>
<!-- Node38&#45;&gt;Node25 -->
<g id="edge46" class="edge">
<title>Node38&#45;&gt;Node25</title>
<path fill="none" stroke="midnightblue" d="M1127.17,-246.49C1126.56,-233.98 1124.88,-209.96 1120.5,-190 1118.11,-179.1 1114.2,-167.26 1110.73,-157.79"/>
<polygon fill="midnightblue" stroke="midnightblue" points="1113.94,-156.37 1107.11,-148.27 1107.39,-158.87 1113.94,-156.37"/>
</g>
<!-- Node39 -->
<g id="node24" class="node">
<title>Node39</title>
<g id="a_node24"><a xlink:href="defs_8hpp.html" target="_top" xlink:title=" ">
<polygon fill="white" stroke="red" points="1211,-190.5 1211,-209.5 1288,-209.5 1288,-190.5 1211,-190.5"/>
<text text-anchor="middle" x="1249.5" y="-197.5" font-family="Helvetica,sans-Serif" font-size="10.00">drv/defs.hpp</text>
</a>
</g>
</g>
<!-- Node38&#45;&gt;Node39 -->
<g id="edge43" class="edge">
<title>Node38&#45;&gt;Node39</title>
<path fill="none" stroke="midnightblue" d="M1146.83,-246.44C1166.82,-237.6 1198.24,-223.69 1221.06,-213.59"/>
<polygon fill="midnightblue" stroke="midnightblue" points="1222.53,-216.76 1230.26,-209.52 1219.7,-210.36 1222.53,-216.76"/>
</g>
<!-- Node39&#45;&gt;Node25 -->
<g id="edge44" class="edge">
<title>Node39&#45;&gt;Node25</title>
<path fill="none" stroke="midnightblue" d="M1228.58,-190.48C1203.75,-180.36 1162.16,-163.4 1133.81,-151.85"/>
<polygon fill="midnightblue" stroke="midnightblue" points="1134.96,-148.54 1124.38,-148.01 1132.32,-155.02 1134.96,-148.54"/>
</g>
<!-- Node42 -->
<g id="node26" class="node">
<title>Node42</title>
<g id="a_node26"><a xlink:title=" ">
<polygon fill="white" stroke="#bfbfbf" points="1350.5,-246.5 1350.5,-265.5 1414.5,-265.5 1414.5,-246.5 1350.5,-246.5"/>
<text text-anchor="middle" x="1382.5" y="-253.5" font-family="Helvetica,sans-Serif" font-size="10.00">algorithm</text>
</a>
</g>
</g>
<!-- Node41&#45;&gt;Node42 -->
<g id="edge51" class="edge">
<title>Node41&#45;&gt;Node42</title>
<path fill="none" stroke="midnightblue" d="M1382.5,-302.08C1382.5,-295.01 1382.5,-284.86 1382.5,-275.99"/>
<polygon fill="midnightblue" stroke="midnightblue" points="1386,-275.75 1382.5,-265.75 1379,-275.75 1386,-275.75"/>
</g>
<!-- Node43 -->
<g id="node27" class="node">
<title>Node43</title>
<g id="a_node27"><a xlink:title=" ">
<polygon fill="white" stroke="#bfbfbf" points="1432.5,-246.5 1432.5,-265.5 1482.5,-265.5 1482.5,-246.5 1432.5,-246.5"/>
<text text-anchor="middle" x="1457.5" y="-253.5" font-family="Helvetica,sans-Serif" font-size="10.00">cstring</text>
</a>
</g>
</g>
<!-- Node41&#45;&gt;Node43 -->
<g id="edge52" class="edge">
<title>Node41&#45;&gt;Node43</title>
<path fill="none" stroke="midnightblue" d="M1394.55,-302.32C1405.96,-294.11 1423.33,-281.6 1436.93,-271.81"/>
<polygon fill="midnightblue" stroke="midnightblue" points="1439.16,-274.52 1445.23,-265.83 1435.07,-268.84 1439.16,-274.52"/>
</g>
<!-- Node44&#45;&gt;Node38 -->
<g id="edge62" class="edge">
<title>Node44&#45;&gt;Node38</title>
<path fill="none" stroke="midnightblue" d="M1024.83,-302.44C1044.82,-293.6 1076.24,-279.69 1099.06,-269.59"/>
<polygon fill="midnightblue" stroke="midnightblue" points="1100.53,-272.76 1108.26,-265.52 1097.7,-266.36 1100.53,-272.76"/>
</g>
<!-- Node44&#45;&gt;Node39 -->
<g id="edge54" class="edge">
<title>Node44&#45;&gt;Node39</title>
<path fill="none" stroke="midnightblue" d="M1012.78,-302.43C1025.09,-288.5 1051.43,-260.96 1079.5,-246 1100.39,-234.86 1158.35,-220.71 1200.8,-211.28"/>
<polygon fill="midnightblue" stroke="midnightblue" points="1201.67,-214.67 1210.69,-209.1 1200.17,-207.83 1201.67,-214.67"/>
</g>
<!-- Node45 -->
<g id="node29" class="node">
<title>Node45</title>
<g id="a_node29"><a xlink:href="hbridge_8hpp.html" target="_top" xlink:title=" ">
<polygon fill="white" stroke="black" points="939,-246.5 939,-265.5 1032,-265.5 1032,-246.5 939,-246.5"/>
<text text-anchor="middle" x="985.5" y="-253.5" font-family="Helvetica,sans-Serif" font-size="10.00">drv/hbridge.hpp</text>
</a>
</g>
</g>
<!-- Node44&#45;&gt;Node45 -->
<g id="edge55" class="edge">
<title>Node44&#45;&gt;Node45</title>
<path fill="none" stroke="midnightblue" d="M1002.2,-302.08C999.52,-294.85 995.65,-284.41 992.31,-275.4"/>
<polygon fill="midnightblue" stroke="midnightblue" points="995.5,-273.91 988.74,-265.75 988.93,-276.34 995.5,-273.91"/>
</g>
<!-- Node45&#45;&gt;Node17 -->
<g id="edge57" class="edge">
<title>Node45&#45;&gt;Node17</title>
<path fill="none" stroke="midnightblue" d="M938.76,-247.42C935.63,-246.93 932.52,-246.46 929.5,-246 816.32,-228.92 772.25,-269.54 674.5,-210 654.34,-197.72 640.07,-173.9 632.07,-157.37"/>
<polygon fill="midnightblue" stroke="midnightblue" points="635.22,-155.84 627.9,-148.18 628.85,-158.74 635.22,-155.84"/>
</g>
<!-- Node45&#45;&gt;Node19 -->
<g id="edge61" class="edge">
<title>Node45&#45;&gt;Node19</title>
<path fill="none" stroke="midnightblue" d="M1023.18,-246.47C1065.85,-234.38 1132.09,-207.5 1152.5,-154 1157.41,-141.13 1160.07,-134.51 1152.5,-123 1133.42,-93.99 1093.76,-81.57 1065.92,-76.3"/>
<polygon fill="midnightblue" stroke="midnightblue" points="1066.35,-72.82 1055.9,-74.61 1065.18,-79.72 1066.35,-72.82"/>
</g>
<!-- Node45&#45;&gt;Node20 -->
<g id="edge60" class="edge">
<title>Node45&#45;&gt;Node20</title>
<path fill="none" stroke="midnightblue" d="M938.79,-247.2C935.65,-246.76 932.53,-246.36 929.5,-246 877.6,-239.85 499.12,-245.22 460.5,-210 447.98,-198.58 445.4,-179.29 445.72,-163.78"/>
<polygon fill="midnightblue" stroke="midnightblue" points="449.21,-163.97 446.32,-153.78 442.22,-163.56 449.21,-163.97"/>
</g>
<!-- Node45&#45;&gt;Node24 -->
<g id="edge56" class="edge">
<title>Node45&#45;&gt;Node24</title>
<path fill="none" stroke="midnightblue" d="M986.16,-246.08C986.68,-239.01 987.44,-228.86 988.09,-219.99"/>
<polygon fill="midnightblue" stroke="midnightblue" points="991.6,-219.98 988.85,-209.75 984.62,-219.47 991.6,-219.98"/>
</g>
<!-- Node45&#45;&gt;Node25 -->
<g id="edge58" class="edge">
<title>Node45&#45;&gt;Node25</title>
<path fill="none" stroke="midnightblue" d="M1020.92,-246.45C1041.57,-239.75 1066.59,-228.4 1082.5,-210 1095,-195.54 1100.06,-173.89 1102.11,-158.4"/>
<polygon fill="midnightblue" stroke="midnightblue" points="1105.6,-158.7 1103.13,-148.4 1098.63,-157.99 1105.6,-158.7"/>
</g>
<!-- Node45&#45;&gt;Node27 -->
<g id="edge59" class="edge">
<title>Node45&#45;&gt;Node27</title>
<path fill="none" stroke="midnightblue" d="M972.42,-246.46C960.33,-238.13 942.34,-224.62 929.5,-210 915.35,-193.9 903.07,-172.56 895.29,-157.59"/>
<polygon fill="midnightblue" stroke="midnightblue" points="898.28,-155.75 890.66,-148.39 892.03,-158.9 898.28,-155.75"/>
</g>
<!-- Node46&#45;&gt;Node17 -->
<g id="edge64" class="edge">
<title>Node46&#45;&gt;Node17</title>
<path fill="none" stroke="midnightblue" d="M758.15,-190.48C731.51,-180.31 686.79,-163.26 656.49,-151.7"/>
<polygon fill="midnightblue" stroke="midnightblue" points="657.4,-148.3 646.81,-148.01 654.91,-154.84 657.4,-148.3"/>
</g>
<!-- Node46&#45;&gt;Node19 -->
<g id="edge68" class="edge">
<title>Node46&#45;&gt;Node19</title>
<path fill="none" stroke="midnightblue" d="M830.94,-190.48C863.29,-183.65 905.45,-172.15 939.5,-154 971.96,-136.7 1003.21,-106.94 1020.83,-88.57"/>
<polygon fill="midnightblue" stroke="midnightblue" points="1023.63,-90.7 1027.92,-81.01 1018.52,-85.91 1023.63,-90.7"/>
</g>
<!-- Node46&#45;&gt;Node20 -->
<g id="edge67" class="edge">
<title>Node46&#45;&gt;Node20</title>
<path fill="none" stroke="midnightblue" d="M732.93,-190.48C678.73,-180.76 589.36,-164.74 525.26,-153.26"/>
<polygon fill="midnightblue" stroke="midnightblue" points="525.66,-149.77 515.2,-151.45 524.43,-156.66 525.66,-149.77"/>
</g>
<!-- Node46&#45;&gt;Node31 -->
<g id="edge65" class="edge">
<title>Node46&#45;&gt;Node31</title>
<path fill="none" stroke="midnightblue" d="M784.97,-190.31C794.82,-171.13 818.7,-124.66 833.35,-96.15"/>
<polygon fill="midnightblue" stroke="midnightblue" points="836.65,-97.38 838.11,-86.89 830.42,-94.18 836.65,-97.38"/>
</g>
<!-- Node47 -->
<g id="node31" class="node">
<title>Node47</title>
<g id="a_node31"><a xlink:href="record_8hpp.html" target="_top" xlink:title=" ">
<polygon fill="white" stroke="red" points="695.5,-129 695.5,-148 785.5,-148 785.5,-129 695.5,-129"/>
<text text-anchor="middle" x="740.5" y="-136" font-family="Helvetica,sans-Serif" font-size="10.00">sntr/record.hpp</text>
</a>
</g>
</g>
<!-- Node46&#45;&gt;Node47 -->
<g id="edge66" class="edge">
<title>Node46&#45;&gt;Node47</title>
<path fill="none" stroke="midnightblue" d="M774.77,-190.48C768.83,-181.64 759.38,-167.59 751.91,-156.48"/>
<polygon fill="midnightblue" stroke="midnightblue" points="754.7,-154.36 746.22,-148.01 748.89,-158.26 754.7,-154.36"/>
</g>
</g>
</svg>
