<?xml version="1.0" encoding="UTF-8" standalone="no"?>
<!DOCTYPE svg PUBLIC "-//W3C//DTD SVG 1.1//EN"
 "http://www.w3.org/Graphics/SVG/1.1/DTD/svg11.dtd">
<!-- Generated by graphviz version 2.43.0 (0)
 -->
<!-- Title: src/protocol.hpp Pages: 1 -->
<svg width="996pt" height="151pt"
 viewBox="0.00 0.00 995.50 151.00" xmlns="http://www.w3.org/2000/svg" xmlns:xlink="http://www.w3.org/1999/xlink">
<g id="graph0" class="graph" transform="scale(1 1) rotate(0) translate(4 147)">
<title>src/protocol.hpp</title>
<polygon fill="white" stroke="transparent" points="-4,4 -4,-147 991.5,-147 991.5,4 -4,4"/>
<!-- Node1 -->
<g id="node1" class="node">
<title>Node1</title>
<g id="a_node1"><a xlink:title=" ">
<polygon fill="#bfbfbf" stroke="black" points="404,-123.5 404,-142.5 499,-142.5 499,-123.5 404,-123.5"/>
<text text-anchor="middle" x="451.5" y="-130.5" font-family="Helvetica,sans-Serif" font-size="10.00">src/protocol.hpp</text>
</a>
</g>
</g>
<!-- Node2 -->
<g id="node2" class="node">
<title>Node2</title>
<g id="a_node2"><a xlink:href="base_8hpp.html" target="_top" xlink:title=" ">
<polygon fill="white" stroke="black" points="150,-67.5 150,-86.5 211,-86.5 211,-67.5 150,-67.5"/>
<text text-anchor="middle" x="180.5" y="-74.5" font-family="Helvetica,sans-Serif" font-size="10.00">base.hpp</text>
</a>
</g>
</g>
<!-- Node1&#45;&gt;Node2 -->
<g id="edge1" class="edge">
<title>Node1&#45;&gt;Node2</title>
<path fill="none" stroke="midnightblue" d="M408.56,-123.44C357.04,-113.18 271.31,-96.1 220.93,-86.06"/>
<polygon fill="midnightblue" stroke="midnightblue" points="221.54,-82.61 211.04,-84.09 220.17,-89.47 221.54,-82.61"/>
</g>
<!-- Node7 -->
<g id="node6" class="node">
<title>Node7</title>
<g id="a_node6"><a xlink:title=" ">
<polygon fill="white" stroke="#bfbfbf" points="223.5,-6 223.5,-25 347.5,-25 347.5,-6 223.5,-6"/>
<text text-anchor="middle" x="285.5" y="-13" font-family="Helvetica,sans-Serif" font-size="10.00">emlabcpp/algorithm.h</text>
</a>
</g>
</g>
<!-- Node1&#45;&gt;Node7 -->
<g id="edge8" class="edge">
<title>Node1&#45;&gt;Node7</title>
<path fill="none" stroke="midnightblue" d="M403.69,-128.86C371.81,-124.28 331.18,-113.27 305.5,-87 292.04,-73.24 287.51,-51.12 286.05,-35.33"/>
<polygon fill="midnightblue" stroke="midnightblue" points="289.53,-34.94 285.44,-25.16 282.54,-35.35 289.53,-34.94"/>
</g>
<!-- Node8 -->
<g id="node7" class="node">
<title>Node8</title>
<g id="a_node7"><a xlink:href="config_8hpp.html" target="_top" xlink:title=" ">
<polygon fill="white" stroke="black" points="314,-67.5 314,-86.5 381,-86.5 381,-67.5 314,-67.5"/>
<text text-anchor="middle" x="347.5" y="-74.5" font-family="Helvetica,sans-Serif" font-size="10.00">config.hpp</text>
</a>
</g>
</g>
<!-- Node1&#45;&gt;Node8 -->
<g id="edge6" class="edge">
<title>Node1&#45;&gt;Node8</title>
<path fill="none" stroke="midnightblue" d="M434.79,-123.32C418.19,-114.7 392.5,-101.36 373.28,-91.39"/>
<polygon fill="midnightblue" stroke="midnightblue" points="374.66,-88.16 364.17,-86.65 371.43,-94.37 374.66,-88.16"/>
</g>
<!-- Node10 -->
<g id="node9" class="node">
<title>Node10</title>
<g id="a_node9"><a xlink:title=" ">
<polygon fill="white" stroke="#bfbfbf" points="399.5,-67.5 399.5,-86.5 503.5,-86.5 503.5,-67.5 399.5,-67.5"/>
<text text-anchor="middle" x="451.5" y="-74.5" font-family="Helvetica,sans-Serif" font-size="10.00">emlabcpp/either.h</text>
</a>
</g>
</g>
<!-- Node1&#45;&gt;Node10 -->
<g id="edge9" class="edge">
<title>Node1&#45;&gt;Node10</title>
<path fill="none" stroke="midnightblue" d="M451.5,-123.08C451.5,-116.01 451.5,-105.86 451.5,-96.99"/>
<polygon fill="midnightblue" stroke="midnightblue" points="455,-96.75 451.5,-86.75 448,-96.75 455,-96.75"/>
</g>
<!-- Node11 -->
<g id="node10" class="node">
<title>Node11</title>
<g id="a_node10"><a xlink:title=" ">
<polygon fill="white" stroke="#bfbfbf" points="521.5,-67.5 521.5,-86.5 637.5,-86.5 637.5,-67.5 521.5,-67.5"/>
<text text-anchor="middle" x="579.5" y="-74.5" font-family="Helvetica,sans-Serif" font-size="10.00">emlabcpp/protocol.h</text>
</a>
</g>
</g>
<!-- Node1&#45;&gt;Node11 -->
<g id="edge10" class="edge">
<title>Node1&#45;&gt;Node11</title>
<path fill="none" stroke="midnightblue" d="M471.78,-123.44C492.85,-114.56 526.02,-100.56 549.99,-90.45"/>
<polygon fill="midnightblue" stroke="midnightblue" points="551.46,-93.63 559.31,-86.52 548.74,-87.18 551.46,-93.63"/>
</g>
<!-- Node12 -->
<g id="node11" class="node">
<title>Node12</title>
<g id="a_node11"><a xlink:title=" ">
<polygon fill="white" stroke="#bfbfbf" points="655.5,-67.5 655.5,-86.5 817.5,-86.5 817.5,-67.5 655.5,-67.5"/>
<text text-anchor="middle" x="736.5" y="-74.5" font-family="Helvetica,sans-Serif" font-size="10.00">emlabcpp/protocol/endpoint.h</text>
</a>
</g>
</g>
<!-- Node1&#45;&gt;Node12 -->
<g id="edge11" class="edge">
<title>Node1&#45;&gt;Node12</title>
<path fill="none" stroke="midnightblue" d="M496.66,-123.44C546.79,-113.94 627.72,-98.61 681.51,-88.42"/>
<polygon fill="midnightblue" stroke="midnightblue" points="682.38,-91.82 691.55,-86.52 681.08,-84.94 682.38,-91.82"/>
</g>
<!-- Node13 -->
<g id="node12" class="node">
<title>Node13</title>
<g id="a_node12"><a xlink:title=" ">
<polygon fill="white" stroke="#bfbfbf" points="835.5,-67.5 835.5,-86.5 987.5,-86.5 987.5,-67.5 835.5,-67.5"/>
<text text-anchor="middle" x="911.5" y="-74.5" font-family="Helvetica,sans-Serif" font-size="10.00">emlabcpp/protocol/packet.h</text>
</a>
</g>
</g>
<!-- Node1&#45;&gt;Node13 -->
<g id="edge12" class="edge">
<title>Node1&#45;&gt;Node13</title>
<path fill="none" stroke="midnightblue" d="M499.43,-126.37C577.43,-117.22 732.79,-98.98 828.87,-87.7"/>
<polygon fill="midnightblue" stroke="midnightblue" points="829.32,-91.17 838.85,-86.53 828.51,-84.22 829.32,-91.17"/>
</g>
<!-- Node3 -->
<g id="node3" class="node">
<title>Node3</title>
<g id="a_node3"><a xlink:href="scaled_8hpp.html" target="_top" xlink:title=" ">
<polygon fill="white" stroke="red" points="0,-6 0,-25 69,-25 69,-6 0,-6"/>
<text text-anchor="middle" x="34.5" y="-13" font-family="Helvetica,sans-Serif" font-size="10.00">scaled.hpp</text>
</a>
</g>
</g>
<!-- Node2&#45;&gt;Node3 -->
<g id="edge2" class="edge">
<title>Node2&#45;&gt;Node3</title>
<path fill="none" stroke="midnightblue" d="M159.58,-67.48C134.75,-57.36 93.16,-40.4 64.81,-28.85"/>
<polygon fill="midnightblue" stroke="midnightblue" points="65.96,-25.54 55.38,-25.01 63.32,-32.02 65.96,-25.54"/>
</g>
<!-- Node5 -->
<g id="node4" class="node">
<title>Node5</title>
<g id="a_node4"><a xlink:title=" ">
<polygon fill="white" stroke="#bfbfbf" points="87.5,-6 87.5,-25 137.5,-25 137.5,-6 87.5,-6"/>
<text text-anchor="middle" x="112.5" y="-13" font-family="Helvetica,sans-Serif" font-size="10.00">chrono</text>
</a>
</g>
</g>
<!-- Node2&#45;&gt;Node5 -->
<g id="edge3" class="edge">
<title>Node2&#45;&gt;Node5</title>
<path fill="none" stroke="midnightblue" d="M170.76,-67.48C160.15,-58.2 142.98,-43.17 130.02,-31.83"/>
<polygon fill="midnightblue" stroke="midnightblue" points="132.06,-28.96 122.22,-25.01 127.45,-34.23 132.06,-28.96"/>
</g>
<!-- Node6 -->
<g id="node5" class="node">
<title>Node6</title>
<g id="a_node5"><a xlink:title=" ">
<polygon fill="white" stroke="#bfbfbf" points="155.5,-6 155.5,-25 205.5,-25 205.5,-6 155.5,-6"/>
<text text-anchor="middle" x="180.5" y="-13" font-family="Helvetica,sans-Serif" font-size="10.00">cstdint</text>
</a>
</g>
</g>
<!-- Node2&#45;&gt;Node6 -->
<g id="edge4" class="edge">
<title>Node2&#45;&gt;Node6</title>
<path fill="none" stroke="midnightblue" d="M180.5,-67.48C180.5,-59.08 180.5,-45.98 180.5,-35.16"/>
<polygon fill="midnightblue" stroke="midnightblue" points="184,-35.01 180.5,-25.01 177,-35.01 184,-35.01"/>
</g>
<!-- Node2&#45;&gt;Node7 -->
<g id="edge5" class="edge">
<title>Node2&#45;&gt;Node7</title>
<path fill="none" stroke="midnightblue" d="M195.54,-67.48C212.78,-57.71 241.24,-41.58 261.53,-30.08"/>
<polygon fill="midnightblue" stroke="midnightblue" points="263.51,-32.98 270.48,-25.01 260.06,-26.89 263.51,-32.98"/>
</g>
<!-- Node9 -->
<g id="node8" class="node">
<title>Node9</title>
<g id="a_node8"><a xlink:title=" ">
<polygon fill="white" stroke="#bfbfbf" points="365.5,-0.5 365.5,-30.5 513.5,-30.5 513.5,-0.5 365.5,-0.5"/>
<text text-anchor="start" x="373.5" y="-18.5" font-family="Helvetica,sans-Serif" font-size="10.00">emlabcpp/protocol/register</text>
<text text-anchor="middle" x="439.5" y="-7.5" font-family="Helvetica,sans-Serif" font-size="10.00">_map.h</text>
</a>
</g>
</g>
<!-- Node8&#45;&gt;Node9 -->
<g id="edge7" class="edge">
<title>Node8&#45;&gt;Node9</title>
<path fill="none" stroke="midnightblue" d="M360.68,-67.48C373.26,-59.34 392.66,-46.79 409.07,-36.18"/>
<polygon fill="midnightblue" stroke="midnightblue" points="411.32,-38.89 417.82,-30.52 407.52,-33.01 411.32,-38.89"/>
</g>
</g>
</svg>
