<?xml version="1.0" encoding="UTF-8" standalone="no"?>
<!DOCTYPE svg PUBLIC "-//W3C//DTD SVG 1.1//EN"
 "http://www.w3.org/Graphics/SVG/1.1/DTD/svg11.dtd">
<!-- Generated by graphviz version 2.43.0 (0)
 -->
<!-- Title: src/drv/quad_encoder.hpp Pages: 1 -->
<svg width="385pt" height="196pt"
 viewBox="0.00 0.00 385.00 196.00" xmlns="http://www.w3.org/2000/svg" xmlns:xlink="http://www.w3.org/1999/xlink">
<g id="graph0" class="graph" transform="scale(1 1) rotate(0) translate(4 192)">
<title>src/drv/quad_encoder.hpp</title>
<polygon fill="white" stroke="transparent" points="-4,4 -4,-192 381,-192 381,4 -4,4"/>
<!-- Node1 -->
<g id="node1" class="node">
<title>Node1</title>
<g id="a_node1"><a xlink:title=" ">
<polygon fill="#bfbfbf" stroke="black" points="169,-168.5 169,-187.5 310,-187.5 310,-168.5 169,-168.5"/>
<text text-anchor="middle" x="239.5" y="-175.5" font-family="Helvetica,sans-Serif" font-size="10.00">src/drv/quad_encoder.hpp</text>
</a>
</g>
</g>
<!-- Node2 -->
<g id="node2" class="node">
<title>Node2</title>
<g id="a_node2"><a xlink:href="interfaces_8hpp.html" target="_top" xlink:title=" ">
<polygon fill="white" stroke="black" points="132,-112.5 132,-131.5 237,-131.5 237,-112.5 132,-112.5"/>
<text text-anchor="middle" x="184.5" y="-119.5" font-family="Helvetica,sans-Serif" font-size="10.00">drv/interfaces.hpp</text>
</a>
</g>
</g>
<!-- Node1&#45;&gt;Node2 -->
<g id="edge1" class="edge">
<title>Node1&#45;&gt;Node2</title>
<path fill="none" stroke="midnightblue" d="M230.42,-168.08C222.33,-160.14 210.3,-148.34 200.59,-138.8"/>
<polygon fill="midnightblue" stroke="midnightblue" points="203,-136.26 193.41,-131.75 198.1,-141.25 203,-136.26"/>
</g>
<!-- Node11 -->
<g id="node7" class="node">
<title>Node11</title>
<g id="a_node7"><a xlink:href="platform_8hpp.html" target="_top" xlink:title=" ">
<polygon fill="white" stroke="black" points="255.5,-112.5 255.5,-131.5 335.5,-131.5 335.5,-112.5 255.5,-112.5"/>
<text text-anchor="middle" x="295.5" y="-119.5" font-family="Helvetica,sans-Serif" font-size="10.00">platform.hpp</text>
</a>
</g>
</g>
<!-- Node1&#45;&gt;Node11 -->
<g id="edge7" class="edge">
<title>Node1&#45;&gt;Node11</title>
<path fill="none" stroke="midnightblue" d="M248.5,-168.32C256.69,-160.42 269.01,-148.55 278.97,-138.94"/>
<polygon fill="midnightblue" stroke="midnightblue" points="281.57,-141.29 286.34,-131.83 276.71,-136.26 281.57,-141.29"/>
</g>
<!-- Node3 -->
<g id="node3" class="node">
<title>Node3</title>
<g id="a_node3"><a xlink:href="base_2base_8hpp.html" target="_top" xlink:title=" ">
<polygon fill="white" stroke="red" points="0,-56.5 0,-75.5 87,-75.5 87,-56.5 0,-56.5"/>
<text text-anchor="middle" x="43.5" y="-63.5" font-family="Helvetica,sans-Serif" font-size="10.00">base/base.hpp</text>
</a>
</g>
</g>
<!-- Node2&#45;&gt;Node3 -->
<g id="edge2" class="edge">
<title>Node2&#45;&gt;Node3</title>
<path fill="none" stroke="midnightblue" d="M162.16,-112.44C138.75,-103.48 101.76,-89.31 75.31,-79.18"/>
<polygon fill="midnightblue" stroke="midnightblue" points="76.33,-75.82 65.74,-75.52 73.82,-82.36 76.33,-75.82"/>
</g>
<!-- Node5 -->
<g id="node4" class="node">
<title>Node5</title>
<g id="a_node4"><a xlink:title=" ">
<polygon fill="white" stroke="#bfbfbf" points="54.5,-0.5 54.5,-19.5 104.5,-19.5 104.5,-0.5 54.5,-0.5"/>
<text text-anchor="middle" x="79.5" y="-7.5" font-family="Helvetica,sans-Serif" font-size="10.00">cstdint</text>
</a>
</g>
</g>
<!-- Node2&#45;&gt;Node5 -->
<g id="edge4" class="edge">
<title>Node2&#45;&gt;Node5</title>
<path fill="none" stroke="midnightblue" d="M174.17,-112.42C163.79,-103.64 147.51,-89.41 134.5,-76 119.3,-60.33 103.34,-41.11 92.55,-27.65"/>
<polygon fill="midnightblue" stroke="midnightblue" points="95.22,-25.39 86.27,-19.73 89.74,-29.74 95.22,-25.39"/>
</g>
<!-- Node9 -->
<g id="node5" class="node">
<title>Node9</title>
<g id="a_node5"><a xlink:title=" ">
<polygon fill="white" stroke="#bfbfbf" points="143.5,-56.5 143.5,-75.5 247.5,-75.5 247.5,-56.5 143.5,-56.5"/>
<text text-anchor="middle" x="195.5" y="-63.5" font-family="Helvetica,sans-Serif" font-size="10.00">emlabcpp/result.h</text>
</a>
</g>
</g>
<!-- Node2&#45;&gt;Node9 -->
<g id="edge5" class="edge">
<title>Node2&#45;&gt;Node9</title>
<path fill="none" stroke="midnightblue" d="M186.32,-112.08C187.77,-104.93 189.87,-94.64 191.69,-85.69"/>
<polygon fill="midnightblue" stroke="midnightblue" points="195.15,-86.25 193.72,-75.75 188.29,-84.85 195.15,-86.25"/>
</g>
<!-- Node10 -->
<g id="node6" class="node">
<title>Node10</title>
<g id="a_node6"><a xlink:title=" ">
<polygon fill="white" stroke="#bfbfbf" points="265.5,-56.5 265.5,-75.5 305.5,-75.5 305.5,-56.5 265.5,-56.5"/>
<text text-anchor="middle" x="285.5" y="-63.5" font-family="Helvetica,sans-Serif" font-size="10.00">span</text>
</a>
</g>
</g>
<!-- Node2&#45;&gt;Node10 -->
<g id="edge6" class="edge">
<title>Node2&#45;&gt;Node10</title>
<path fill="none" stroke="midnightblue" d="M200.73,-112.32C216.85,-103.7 241.8,-90.36 260.46,-80.39"/>
<polygon fill="midnightblue" stroke="midnightblue" points="262.14,-83.46 269.31,-75.65 258.84,-77.28 262.14,-83.46"/>
</g>
<!-- Node3&#45;&gt;Node5 -->
<g id="edge3" class="edge">
<title>Node3&#45;&gt;Node5</title>
<path fill="none" stroke="midnightblue" d="M49.44,-56.08C54.48,-48.53 61.84,-37.49 68.01,-28.23"/>
<polygon fill="midnightblue" stroke="midnightblue" points="71.03,-30.01 73.67,-19.75 65.21,-26.13 71.03,-30.01"/>
</g>
<!-- Node11&#45;&gt;Node10 -->
<g id="edge9" class="edge">
<title>Node11&#45;&gt;Node10</title>
<path fill="none" stroke="midnightblue" d="M293.85,-112.08C292.52,-104.93 290.62,-94.64 288.96,-85.69"/>
<polygon fill="midnightblue" stroke="midnightblue" points="292.38,-84.95 287.12,-75.75 285.5,-86.22 292.38,-84.95"/>
</g>
<!-- Node12 -->
<g id="node8" class="node">
<title>Node12</title>
<g id="a_node8"><a xlink:title=" ">
<polygon fill="white" stroke="#bfbfbf" points="324,-56.5 324,-75.5 377,-75.5 377,-56.5 324,-56.5"/>
<text text-anchor="middle" x="350.5" y="-63.5" font-family="Helvetica,sans-Serif" font-size="10.00">hal.hpp</text>
</a>
</g>
</g>
<!-- Node11&#45;&gt;Node12 -->
<g id="edge8" class="edge">
<title>Node11&#45;&gt;Node12</title>
<path fill="none" stroke="midnightblue" d="M304.58,-112.08C312.67,-104.14 324.7,-92.34 334.41,-82.8"/>
<polygon fill="midnightblue" stroke="midnightblue" points="336.9,-85.25 341.59,-75.75 332,-80.26 336.9,-85.25"/>
</g>
</g>
</svg>
