<?xml version="1.0" encoding="UTF-8" standalone="no"?>
<!DOCTYPE svg PUBLIC "-//W3C//DTD SVG 1.1//EN"
 "http://www.w3.org/Graphics/SVG/1.1/DTD/svg11.dtd">
<!-- Generated by graphviz version 2.43.0 (0)
 -->
<!-- Title: src/drv/quad_encoder.hpp Pages: 1 -->
<svg width="560pt" height="247pt"
 viewBox="0.00 0.00 559.50 247.00" xmlns="http://www.w3.org/2000/svg" xmlns:xlink="http://www.w3.org/1999/xlink">
<g id="graph0" class="graph" transform="scale(1 1) rotate(0) translate(4 243)">
<title>src/drv/quad_encoder.hpp</title>
<!-- Node1 -->
<g id="Node000001" class="node">
<title>Node1</title>
<g id="a_Node000001"><a xlink:title=" ">
<polygon fill="#999999" stroke="#666666" points="196,-239 55,-239 55,-220 196,-220 196,-239"/>
<text text-anchor="middle" x="125.5" y="-227" font-family="Helvetica,sans-Serif" font-size="10.00">src/drv/quad_encoder.hpp</text>
</a>
</g>
</g>
<!-- Node2 -->
<g id="Node000002" class="node">
<title>Node2</title>
<g id="a_Node000002"><a xlink:href="platform_8hpp.html" target="_top" xlink:title=" ">
<polygon fill="white" stroke="#666666" points="119.5,-184 15.5,-184 15.5,-165 119.5,-165 119.5,-184"/>
<text text-anchor="middle" x="67.5" y="-172" font-family="Helvetica,sans-Serif" font-size="10.00">../plt/platform.hpp</text>
</a>
</g>
</g>
<!-- Node1&#45;&gt;Node2 -->
<g id="edge1_Node000001_Node000002" class="edge">
<title>Node1&#45;&gt;Node2</title>
<g id="a_edge1_Node000001_Node000002"><a xlink:title=" ">
<path fill="none" stroke="#63b8ff" d="M116.18,-219.98C107.69,-212.23 94.94,-200.58 84.62,-191.14"/>
<polygon fill="#63b8ff" stroke="#63b8ff" points="86.73,-188.33 76.99,-184.17 82.01,-193.5 86.73,-188.33"/>
</a>
</g>
</g>
<!-- Node5 -->
<g id="Node000005" class="node">
<title>Node5</title>
<g id="a_Node000005"><a xlink:href="interfaces_8hpp.html" target="_top" xlink:title=" ">
<polygon fill="white" stroke="#666666" points="269.5,-184 177.5,-184 177.5,-165 269.5,-165 269.5,-184"/>
<text text-anchor="middle" x="223.5" y="-172" font-family="Helvetica,sans-Serif" font-size="10.00">./interfaces.hpp</text>
</a>
</g>
</g>
<!-- Node1&#45;&gt;Node5 -->
<g id="edge3_Node000001_Node000005" class="edge">
<title>Node1&#45;&gt;Node5</title>
<g id="a_edge3_Node000001_Node000005"><a xlink:title=" ">
<path fill="none" stroke="#63b8ff" d="M141.25,-219.98C156.73,-211.61 180.59,-198.7 198.64,-188.95"/>
<polygon fill="#63b8ff" stroke="#63b8ff" points="200.34,-192.01 207.47,-184.17 197.01,-185.85 200.34,-192.01"/>
</a>
</g>
</g>
<!-- Node3 -->
<g id="Node000003" class="node">
<title>Node3</title>
<g id="a_Node000003"><a xlink:href="hal_8hpp.html" target="_top" xlink:title=" ">
<polygon fill="#fff0f0" stroke="red" points="53,-129 0,-129 0,-110 53,-110 53,-129"/>
<text text-anchor="middle" x="26.5" y="-117" font-family="Helvetica,sans-Serif" font-size="10.00">hal.hpp</text>
</a>
</g>
</g>
<!-- Node2&#45;&gt;Node3 -->
<g id="edge2_Node000002_Node000003" class="edge">
<title>Node2&#45;&gt;Node3</title>
<g id="a_edge2_Node000002_Node000003"><a xlink:title=" ">
<path fill="none" stroke="#63b8ff" d="M60.73,-164.75C54.94,-157.26 46.44,-146.28 39.36,-137.13"/>
<polygon fill="#63b8ff" stroke="#63b8ff" points="42.03,-134.86 33.14,-129.09 36.49,-139.14 42.03,-134.86"/>
</a>
</g>
</g>
<!-- Node6 -->
<g id="Node000006" class="node">
<title>Node6</title>
<g id="a_Node000006"><a xlink:href="base_8hpp.html" target="_top" xlink:title=" ">
<polygon fill="#fff0f0" stroke="red" points="187.5,-74 117.5,-74 117.5,-55 187.5,-55 187.5,-74"/>
<text text-anchor="middle" x="152.5" y="-62" font-family="Helvetica,sans-Serif" font-size="10.00">../base.hpp</text>
</a>
</g>
</g>
<!-- Node5&#45;&gt;Node6 -->
<g id="edge4_Node000005_Node000006" class="edge">
<title>Node5&#45;&gt;Node6</title>
<g id="a_edge4_Node000005_Node000006"><a xlink:title=" ">
<path fill="none" stroke="#63b8ff" d="M177.31,-169.62C150.12,-164.69 117.78,-153.63 100.5,-129 87.99,-111.18 108.94,-92.01 127.87,-79.45"/>
<polygon fill="#63b8ff" stroke="#63b8ff" points="129.94,-82.28 136.56,-74.01 126.23,-76.34 129.94,-82.28"/>
</a>
</g>
</g>
<!-- Node8 -->
<g id="Node000008" class="node">
<title>Node8</title>
<g id="a_Node000008"><a xlink:title=" ">
<polygon fill="#e0e0e0" stroke="#999999" points="212.5,-19 162.5,-19 162.5,0 212.5,0 212.5,-19"/>
<text text-anchor="middle" x="187.5" y="-7" font-family="Helvetica,sans-Serif" font-size="10.00">cstdint</text>
</a>
</g>
</g>
<!-- Node5&#45;&gt;Node8 -->
<g id="edge8_Node000005_Node000008" class="edge">
<title>Node5&#45;&gt;Node8</title>
<g id="a_edge8_Node000005_Node000008"><a xlink:title=" ">
<path fill="none" stroke="#63b8ff" d="M221.56,-164.74C215.92,-139.2 199.41,-64.43 191.64,-29.23"/>
<polygon fill="#63b8ff" stroke="#63b8ff" points="195.02,-28.32 189.45,-19.31 188.18,-29.83 195.02,-28.32"/>
</a>
</g>
</g>
<!-- Node12 -->
<g id="Node000012" class="node">
<title>Node12</title>
<g id="a_Node000012"><a xlink:href="map_8hpp.html" target="_top" xlink:title=" ">
<polygon fill="#fff0f0" stroke="red" points="195.5,-129 109.5,-129 109.5,-110 195.5,-110 195.5,-129"/>
<text text-anchor="middle" x="152.5" y="-117" font-family="Helvetica,sans-Serif" font-size="10.00">../cfg/map.hpp</text>
</a>
</g>
</g>
<!-- Node5&#45;&gt;Node12 -->
<g id="edge6_Node000005_Node000012" class="edge">
<title>Node5&#45;&gt;Node12</title>
<g id="a_edge6_Node000005_Node000012"><a xlink:title=" ">
<path fill="none" stroke="#63b8ff" d="M212.09,-164.98C201.39,-157 185.16,-144.88 172.34,-135.31"/>
<polygon fill="#63b8ff" stroke="#63b8ff" points="174.22,-132.35 164.11,-129.17 170.03,-137.96 174.22,-132.35"/>
</a>
</g>
</g>
<!-- Node19 -->
<g id="Node000019" class="node">
<title>Node19</title>
<g id="a_Node000019"><a xlink:title=" ">
<polygon fill="#e0e0e0" stroke="#999999" points="371,-129 252,-129 252,-110 371,-110 371,-129"/>
<text text-anchor="middle" x="311.5" y="-117" font-family="Helvetica,sans-Serif" font-size="10.00">emlabcpp/outcome.h</text>
</a>
</g>
</g>
<!-- Node5&#45;&gt;Node19 -->
<g id="edge9_Node000005_Node000019" class="edge">
<title>Node5&#45;&gt;Node19</title>
<g id="a_edge9_Node000005_Node000019"><a xlink:title=" ">
<path fill="none" stroke="#63b8ff" d="M237.64,-164.98C251.29,-156.77 272.19,-144.18 288.28,-134.49"/>
<polygon fill="#63b8ff" stroke="#63b8ff" points="290.34,-137.33 297.1,-129.17 286.73,-131.33 290.34,-137.33"/>
</a>
</g>
</g>
<!-- Node20 -->
<g id="Node000020" class="node">
<title>Node20</title>
<g id="a_Node000020"><a xlink:title=" ">
<polygon fill="#e0e0e0" stroke="#999999" points="493.5,-129 389.5,-129 389.5,-110 493.5,-110 493.5,-129"/>
<text text-anchor="middle" x="441.5" y="-117" font-family="Helvetica,sans-Serif" font-size="10.00">emlabcpp/result.h</text>
</a>
</g>
</g>
<!-- Node5&#45;&gt;Node20 -->
<g id="edge10_Node000005_Node000020" class="edge">
<title>Node5&#45;&gt;Node20</title>
<g id="a_edge10_Node000005_Node000020"><a xlink:title=" ">
<path fill="none" stroke="#63b8ff" d="M258.53,-164.98C296,-155.87 355.55,-141.4 396.48,-131.45"/>
<polygon fill="#63b8ff" stroke="#63b8ff" points="397.31,-134.85 406.2,-129.08 395.66,-128.04 397.31,-134.85"/>
</a>
</g>
</g>
<!-- Node21 -->
<g id="Node000021" class="node">
<title>Node21</title>
<g id="a_Node000021"><a xlink:title=" ">
<polygon fill="#e0e0e0" stroke="#999999" points="551.5,-129 511.5,-129 511.5,-110 551.5,-110 551.5,-129"/>
<text text-anchor="middle" x="531.5" y="-117" font-family="Helvetica,sans-Serif" font-size="10.00">span</text>
</a>
</g>
</g>
<!-- Node5&#45;&gt;Node21 -->
<g id="edge11_Node000005_Node000021" class="edge">
<title>Node5&#45;&gt;Node21</title>
<g id="a_edge11_Node000005_Node000021"><a xlink:title=" ">
<path fill="none" stroke="#63b8ff" d="M269.75,-167.95C323.37,-161.12 414.51,-148.25 501.54,-128.97"/>
<polygon fill="#63b8ff" stroke="#63b8ff" points="502.31,-132.38 511.3,-126.78 500.78,-125.55 502.31,-132.38"/>
</a>
</g>
</g>
<!-- Node6&#45;&gt;Node8 -->
<g id="edge5_Node000006_Node000008" class="edge">
<title>Node6&#45;&gt;Node8</title>
<g id="a_edge5_Node000006_Node000008"><a xlink:title=" ">
<path fill="none" stroke="#63b8ff" d="M158.28,-54.75C163.12,-47.42 170.18,-36.73 176.14,-27.7"/>
<polygon fill="#63b8ff" stroke="#63b8ff" points="179.24,-29.36 181.83,-19.09 173.4,-25.5 179.24,-29.36"/>
</a>
</g>
</g>
<!-- Node12&#45;&gt;Node6 -->
<g id="edge7_Node000012_Node000006" class="edge">
<title>Node12&#45;&gt;Node6</title>
<g id="a_edge7_Node000012_Node000006"><a xlink:title=" ">
<path fill="none" stroke="#63b8ff" d="M152.5,-109.75C152.5,-102.8 152.5,-92.85 152.5,-84.13"/>
<polygon fill="#63b8ff" stroke="#63b8ff" points="156,-84.09 152.5,-74.09 149,-84.09 156,-84.09"/>
</a>
</g>
</g>
</g>
</svg>
