<?xml version="1.0" encoding="UTF-8" standalone="no"?>
<!DOCTYPE svg PUBLIC "-//W3C//DTD SVG 1.1//EN"
 "http://www.w3.org/Graphics/SVG/1.1/DTD/svg11.dtd">
<!-- Generated by graphviz version 2.43.0 (0)
 -->
<!-- Title: src/drv/retainers.hpp Pages: 1 -->
<svg width="301pt" height="247pt"
 viewBox="0.00 0.00 300.66 247.00" xmlns="http://www.w3.org/2000/svg" xmlns:xlink="http://www.w3.org/1999/xlink">
<g id="graph0" class="graph" transform="scale(1 1) rotate(0) translate(4 243)">
<title>src/drv/retainers.hpp</title>
<!-- Node1 -->
<g id="Node000001" class="node">
<title>Node1</title>
<g id="a_Node000001"><a xlink:title=" ">
<polygon fill="#999999" stroke="#666666" points="242.66,-239 125.66,-239 125.66,-220 242.66,-220 242.66,-239"/>
<text text-anchor="middle" x="184.16" y="-227" font-family="Helvetica,sans-Serif" font-size="10.00">src/drv/retainers.hpp</text>
</a>
</g>
</g>
<!-- Node2 -->
<g id="Node000002" class="node">
<title>Node2</title>
<g id="a_Node000002"><a xlink:href="interfaces_8hpp.html" target="_top" xlink:title=" ">
<polygon fill="white" stroke="#666666" points="173.16,-184 81.16,-184 81.16,-165 173.16,-165 173.16,-184"/>
<text text-anchor="middle" x="127.16" y="-172" font-family="Helvetica,sans-Serif" font-size="10.00">./interfaces.hpp</text>
</a>
</g>
</g>
<!-- Node1&#45;&gt;Node2 -->
<g id="edge1_Node000001_Node000002" class="edge">
<title>Node1&#45;&gt;Node2</title>
<g id="a_edge1_Node000001_Node000002"><a xlink:title=" ">
<path fill="none" stroke="#63b8ff" d="M175,-219.98C166.66,-212.23 154.13,-200.58 143.98,-191.14"/>
<polygon fill="#63b8ff" stroke="#63b8ff" points="146.19,-188.42 136.49,-184.17 141.43,-193.54 146.19,-188.42"/>
</a>
</g>
</g>
<!-- Node20 -->
<g id="Node000020" class="node">
<title>Node20</title>
<g id="a_Node000020"><a xlink:title=" ">
<polygon fill="#e0e0e0" stroke="#999999" points="292.66,-184 191.66,-184 191.66,-165 292.66,-165 292.66,-184"/>
<text text-anchor="middle" x="242.16" y="-172" font-family="Helvetica,sans-Serif" font-size="10.00">emlabcpp/defer.h</text>
</a>
</g>
</g>
<!-- Node1&#45;&gt;Node20 -->
<g id="edge9_Node000001_Node000020" class="edge">
<title>Node1&#45;&gt;Node20</title>
<g id="a_edge9_Node000001_Node000020"><a xlink:title=" ">
<path fill="none" stroke="#63b8ff" d="M193.48,-219.98C201.97,-212.23 214.72,-200.58 225.04,-191.14"/>
<polygon fill="#63b8ff" stroke="#63b8ff" points="227.65,-193.5 232.67,-184.17 222.93,-188.33 227.65,-193.5"/>
</a>
</g>
</g>
<!-- Node3 -->
<g id="Node000003" class="node">
<title>Node3</title>
<g id="a_Node000003"><a xlink:href="base_8hpp.html" target="_top" xlink:title=" ">
<polygon fill="#fff0f0" stroke="red" points="91.16,-74 21.16,-74 21.16,-55 91.16,-55 91.16,-74"/>
<text text-anchor="middle" x="56.16" y="-62" font-family="Helvetica,sans-Serif" font-size="10.00">../base.hpp</text>
</a>
</g>
</g>
<!-- Node2&#45;&gt;Node3 -->
<g id="edge2_Node000002_Node000003" class="edge">
<title>Node2&#45;&gt;Node3</title>
<g id="a_edge2_Node000002_Node000003"><a xlink:title=" ">
<path fill="none" stroke="#63b8ff" d="M80.97,-169.62C53.79,-164.69 21.44,-153.63 4.16,-129 -8.34,-111.18 12.61,-92.01 31.53,-79.45"/>
<polygon fill="#63b8ff" stroke="#63b8ff" points="33.6,-82.28 40.22,-74.01 29.89,-76.34 33.6,-82.28"/>
</a>
</g>
</g>
<!-- Node5 -->
<g id="Node000005" class="node">
<title>Node5</title>
<g id="a_Node000005"><a xlink:title=" ">
<polygon fill="#e0e0e0" stroke="#999999" points="116.16,-19 66.16,-19 66.16,0 116.16,0 116.16,-19"/>
<text text-anchor="middle" x="91.16" y="-7" font-family="Helvetica,sans-Serif" font-size="10.00">cstdint</text>
</a>
</g>
</g>
<!-- Node2&#45;&gt;Node5 -->
<g id="edge7_Node000002_Node000005" class="edge">
<title>Node2&#45;&gt;Node5</title>
<g id="a_edge7_Node000002_Node000005"><a xlink:title=" ">
<path fill="none" stroke="#63b8ff" d="M125.23,-164.74C119.59,-139.2 103.07,-64.43 95.3,-29.23"/>
<polygon fill="#63b8ff" stroke="#63b8ff" points="98.68,-28.32 93.11,-19.31 91.85,-29.83 98.68,-28.32"/>
</a>
</g>
</g>
<!-- Node9 -->
<g id="Node000009" class="node">
<title>Node9</title>
<g id="a_Node000009"><a xlink:href="map_8hpp.html" target="_top" xlink:title=" ">
<polygon fill="#fff0f0" stroke="red" points="99.16,-129 13.16,-129 13.16,-110 99.16,-110 99.16,-129"/>
<text text-anchor="middle" x="56.16" y="-117" font-family="Helvetica,sans-Serif" font-size="10.00">../cfg/map.hpp</text>
</a>
</g>
</g>
<!-- Node2&#45;&gt;Node9 -->
<g id="edge4_Node000002_Node000009" class="edge">
<title>Node2&#45;&gt;Node9</title>
<g id="a_edge4_Node000002_Node000009"><a xlink:title=" ">
<path fill="none" stroke="#63b8ff" d="M115.75,-164.98C105.05,-157 88.82,-144.88 76,-135.31"/>
<polygon fill="#63b8ff" stroke="#63b8ff" points="77.88,-132.35 67.78,-129.17 73.7,-137.96 77.88,-132.35"/>
</a>
</g>
</g>
<!-- Node16 -->
<g id="Node000016" class="node">
<title>Node16</title>
<g id="a_Node000016"><a xlink:href="status_8hpp.html" target="_top" xlink:title=" ">
<polygon fill="#fff0f0" stroke="red" points="232.66,-129 155.66,-129 155.66,-110 232.66,-110 232.66,-129"/>
<text text-anchor="middle" x="194.16" y="-117" font-family="Helvetica,sans-Serif" font-size="10.00">../status.hpp</text>
</a>
</g>
</g>
<!-- Node2&#45;&gt;Node16 -->
<g id="edge6_Node000002_Node000016" class="edge">
<title>Node2&#45;&gt;Node16</title>
<g id="a_edge6_Node000002_Node000016"><a xlink:title=" ">
<path fill="none" stroke="#63b8ff" d="M137.93,-164.98C147.93,-157.07 163.05,-145.11 175.09,-135.58"/>
<polygon fill="#63b8ff" stroke="#63b8ff" points="177.53,-138.12 183.2,-129.17 173.19,-132.63 177.53,-138.12"/>
</a>
</g>
</g>
<!-- Node19 -->
<g id="Node000019" class="node">
<title>Node19</title>
<g id="a_Node000019"><a xlink:title=" ">
<polygon fill="#e0e0e0" stroke="#999999" points="291.16,-129 251.16,-129 251.16,-110 291.16,-110 291.16,-129"/>
<text text-anchor="middle" x="271.16" y="-117" font-family="Helvetica,sans-Serif" font-size="10.00">span</text>
</a>
</g>
</g>
<!-- Node2&#45;&gt;Node19 -->
<g id="edge8_Node000002_Node000019" class="edge">
<title>Node2&#45;&gt;Node19</title>
<g id="a_edge8_Node000002_Node000019"><a xlink:title=" ">
<path fill="none" stroke="#63b8ff" d="M150.3,-164.98C174.97,-155.9 214.14,-141.49 241.17,-131.54"/>
<polygon fill="#63b8ff" stroke="#63b8ff" points="242.7,-134.71 250.88,-127.97 240.28,-128.14 242.7,-134.71"/>
</a>
</g>
</g>
<!-- Node3&#45;&gt;Node5 -->
<g id="edge3_Node000003_Node000005" class="edge">
<title>Node3&#45;&gt;Node5</title>
<g id="a_edge3_Node000003_Node000005"><a xlink:title=" ">
<path fill="none" stroke="#63b8ff" d="M61.94,-54.75C66.78,-47.42 73.84,-36.73 79.81,-27.7"/>
<polygon fill="#63b8ff" stroke="#63b8ff" points="82.9,-29.36 85.49,-19.09 77.06,-25.5 82.9,-29.36"/>
</a>
</g>
</g>
<!-- Node9&#45;&gt;Node3 -->
<g id="edge5_Node000009_Node000003" class="edge">
<title>Node9&#45;&gt;Node3</title>
<g id="a_edge5_Node000009_Node000003"><a xlink:title=" ">
<path fill="none" stroke="#63b8ff" d="M56.16,-109.75C56.16,-102.8 56.16,-92.85 56.16,-84.13"/>
<polygon fill="#63b8ff" stroke="#63b8ff" points="59.66,-84.09 56.16,-74.09 52.66,-84.09 59.66,-84.09"/>
</a>
</g>
</g>
</g>
</svg>
