<?xml version="1.0" encoding="UTF-8" standalone="no"?>
<!DOCTYPE svg PUBLIC "-//W3C//DTD SVG 1.1//EN"
 "http://www.w3.org/Graphics/SVG/1.1/DTD/svg11.dtd">
<!-- Generated by graphviz version 2.43.0 (0)
 -->
<!-- Title: src/ftest/rewind.hpp Pages: 1 -->
<svg width="1196pt" height="280pt"
 viewBox="0.00 0.00 1195.50 280.00" xmlns="http://www.w3.org/2000/svg" xmlns:xlink="http://www.w3.org/1999/xlink">
<g id="graph0" class="graph" transform="scale(1 1) rotate(0) translate(4 276)">
<title>src/ftest/rewind.hpp</title>
<!-- Node1 -->
<g id="Node000001" class="node">
<title>Node1</title>
<g id="a_Node000001"><a xlink:title=" ">
<polygon fill="#999999" stroke="#666666" points="822,-272 709,-272 709,-253 822,-253 822,-272"/>
<text text-anchor="middle" x="765.5" y="-260" font-family="Helvetica,sans-Serif" font-size="10.00">src/ftest/rewind.hpp</text>
</a>
</g>
</g>
<!-- Node2 -->
<g id="Node000002" class="node">
<title>Node2</title>
<g id="a_Node000002"><a xlink:href="core_8hpp.html" target="_top" xlink:title=" ">
<polygon fill="white" stroke="#666666" points="318.5,-217 226.5,-217 226.5,-198 318.5,-198 318.5,-217"/>
<text text-anchor="middle" x="272.5" y="-205" font-family="Helvetica,sans-Serif" font-size="10.00">../core/core.hpp</text>
</a>
</g>
</g>
<!-- Node1&#45;&gt;Node2 -->
<g id="edge1_Node000001_Node000002" class="edge">
<title>Node1&#45;&gt;Node2</title>
<g id="a_edge1_Node000001_Node000002"><a xlink:title=" ">
<path fill="none" stroke="#63b8ff" d="M708.95,-255.42C613.9,-245.2 423.24,-224.71 328.54,-214.52"/>
<polygon fill="#63b8ff" stroke="#63b8ff" points="328.9,-211.04 318.58,-213.45 328.15,-218 328.9,-211.04"/>
</a>
</g>
</g>
<!-- Node51 -->
<g id="Node000051" class="node">
<title>Node51</title>
<g id="a_Node000051"><a xlink:href="drivers_8hpp.html" target="_top" xlink:title=" ">
<polygon fill="white" stroke="#666666" points="508.5,-156.5 404.5,-156.5 404.5,-137.5 508.5,-137.5 508.5,-156.5"/>
<text text-anchor="middle" x="456.5" y="-144.5" font-family="Helvetica,sans-Serif" font-size="10.00">../core/drivers.hpp</text>
</a>
</g>
</g>
<!-- Node1&#45;&gt;Node51 -->
<g id="edge12_Node000001_Node000051" class="edge">
<title>Node1&#45;&gt;Node51</title>
<g id="a_edge12_Node000001_Node000051"><a xlink:title=" ">
<path fill="none" stroke="#63b8ff" d="M742.27,-252.97C687.92,-233 552.29,-183.18 489.43,-160.1"/>
<polygon fill="#63b8ff" stroke="#63b8ff" points="490.59,-156.79 479.99,-156.63 488.17,-163.36 490.59,-156.79"/>
</a>
</g>
</g>
<!-- Node53 -->
<g id="Node000053" class="node">
<title>Node53</title>
<g id="a_Node000053"><a xlink:href="fw_2util_8hpp.html" target="_top" xlink:title=" ">
<polygon fill="white" stroke="#666666" points="804,-217 727,-217 727,-198 804,-198 804,-217"/>
<text text-anchor="middle" x="765.5" y="-205" font-family="Helvetica,sans-Serif" font-size="10.00">../fw/util.hpp</text>
</a>
</g>
</g>
<!-- Node1&#45;&gt;Node53 -->
<g id="edge16_Node000001_Node000053" class="edge">
<title>Node1&#45;&gt;Node53</title>
<g id="a_edge16_Node000001_Node000053"><a xlink:title=" ">
<path fill="none" stroke="#63b8ff" d="M765.5,-252.75C765.5,-245.8 765.5,-235.85 765.5,-227.13"/>
<polygon fill="#63b8ff" stroke="#63b8ff" points="769,-227.09 765.5,-217.09 762,-227.09 769,-227.09"/>
</a>
</g>
</g>
<!-- Node56 -->
<g id="Node000056" class="node">
<title>Node56</title>
<g id="a_Node000056"><a xlink:href="current_8hpp.html" target="_top" xlink:title=" ">
<polygon fill="white" stroke="#666666" points="1030.5,-156.5 890.5,-156.5 890.5,-137.5 1030.5,-137.5 1030.5,-156.5"/>
<text text-anchor="middle" x="960.5" y="-144.5" font-family="Helvetica,sans-Serif" font-size="10.00">../gov/current/current.hpp</text>
</a>
</g>
</g>
<!-- Node1&#45;&gt;Node56 -->
<g id="edge20_Node000001_Node000056" class="edge">
<title>Node1&#45;&gt;Node56</title>
<g id="a_edge20_Node000001_Node000056"><a xlink:title=" ">
<path fill="none" stroke="#63b8ff" d="M780.16,-252.97C813.68,-233.46 896.2,-185.42 936.95,-161.71"/>
<polygon fill="#63b8ff" stroke="#63b8ff" points="938.79,-164.69 945.67,-156.63 935.27,-158.64 938.79,-164.69"/>
</a>
</g>
</g>
<!-- Node63 -->
<g id="Node000063" class="node">
<title>Node63</title>
<g id="a_Node000063"><a xlink:href="power_8hpp.html" target="_top" xlink:title=" ">
<polygon fill="white" stroke="#666666" points="1178.5,-156.5 1048.5,-156.5 1048.5,-137.5 1178.5,-137.5 1178.5,-156.5"/>
<text text-anchor="middle" x="1113.5" y="-144.5" font-family="Helvetica,sans-Serif" font-size="10.00">../gov/power/power.hpp</text>
</a>
</g>
</g>
<!-- Node1&#45;&gt;Node63 -->
<g id="edge27_Node000001_Node000063" class="edge">
<title>Node1&#45;&gt;Node63</title>
<g id="a_edge27_Node000001_Node000063"><a xlink:title=" ">
<path fill="none" stroke="#63b8ff" d="M791.66,-252.97C853.13,-232.92 1006.88,-182.77 1077.28,-159.81"/>
<polygon fill="#63b8ff" stroke="#63b8ff" points="1078.62,-163.06 1087.04,-156.63 1076.45,-156.4 1078.62,-163.06"/>
</a>
</g>
</g>
<!-- Node3 -->
<g id="Node000003" class="node">
<title>Node3</title>
<g id="a_Node000003"><a xlink:href="governor__manager_8hpp.html" target="_top" xlink:title=" ">
<polygon fill="#fff0f0" stroke="red" points="723,-156.5 564,-156.5 564,-137.5 723,-137.5 723,-156.5"/>
<text text-anchor="middle" x="643.5" y="-144.5" font-family="Helvetica,sans-Serif" font-size="10.00">../gov/governor_manager.hpp</text>
</a>
</g>
</g>
<!-- Node2&#45;&gt;Node3 -->
<g id="edge2_Node000002_Node000003" class="edge">
<title>Node2&#45;&gt;Node3</title>
<g id="a_edge2_Node000002_Node000003"><a xlink:title=" ">
<path fill="none" stroke="#63b8ff" d="M318.74,-199.21C384.41,-188.85 504.97,-169.84 579.28,-158.13"/>
<polygon fill="#63b8ff" stroke="#63b8ff" points="580.12,-161.54 589.45,-156.52 579.03,-154.62 580.12,-161.54"/>
</a>
</g>
</g>
<!-- Node34 -->
<g id="Node000034" class="node">
<title>Node34</title>
<g id="a_Node000034"><a xlink:href="indication_8hpp.html" target="_top" xlink:title=" ">
<polygon fill="#fff0f0" stroke="red" points="119,-90.5 0,-90.5 0,-71.5 119,-71.5 119,-90.5"/>
<text text-anchor="middle" x="59.5" y="-78.5" font-family="Helvetica,sans-Serif" font-size="10.00">../mon/indication.hpp</text>
</a>
</g>
</g>
<!-- Node2&#45;&gt;Node34 -->
<g id="edge6_Node000002_Node000034" class="edge">
<title>Node2&#45;&gt;Node34</title>
<g id="a_edge6_Node000002_Node000034"><a xlink:title=" ">
<path fill="none" stroke="#63b8ff" d="M226.45,-205.51C159.01,-202.97 38.48,-193.97 11.5,-162 -5.94,-141.33 19.79,-113.59 39.8,-96.79"/>
<polygon fill="#63b8ff" stroke="#63b8ff" points="42.01,-99.51 47.62,-90.52 37.63,-94.05 42.01,-99.51"/>
</a>
</g>
</g>
<!-- Node37 -->
<g id="Node000037" class="node">
<title>Node37</title>
<g id="a_Node000037"><a xlink:href="monitor_8hpp.html" target="_top" xlink:title=" ">
<polygon fill="#fff0f0" stroke="red" points="264,-156.5 155,-156.5 155,-137.5 264,-137.5 264,-156.5"/>
<text text-anchor="middle" x="209.5" y="-144.5" font-family="Helvetica,sans-Serif" font-size="10.00">../mon/monitor.hpp</text>
</a>
</g>
</g>
<!-- Node2&#45;&gt;Node37 -->
<g id="edge7_Node000002_Node000037" class="edge">
<title>Node2&#45;&gt;Node37</title>
<g id="a_edge7_Node000002_Node000037"><a xlink:title=" ">
<path fill="none" stroke="#63b8ff" d="M263.2,-197.87C253.53,-188.88 238.16,-174.61 226.34,-163.64"/>
<polygon fill="#63b8ff" stroke="#63b8ff" points="228.54,-160.91 218.83,-156.67 223.78,-166.04 228.54,-160.91"/>
</a>
</g>
</g>
<!-- Node42 -->
<g id="Node000042" class="node">
<title>Node42</title>
<g id="a_Node000042"><a xlink:href="metrics_8hpp.html" target="_top" xlink:title=" ">
<polygon fill="#fff0f0" stroke="red" points="386.5,-156.5 282.5,-156.5 282.5,-137.5 386.5,-137.5 386.5,-156.5"/>
<text text-anchor="middle" x="334.5" y="-144.5" font-family="Helvetica,sans-Serif" font-size="10.00">../mtr/metrics.hpp</text>
</a>
</g>
</g>
<!-- Node2&#45;&gt;Node42 -->
<g id="edge10_Node000002_Node000042" class="edge">
<title>Node2&#45;&gt;Node42</title>
<g id="a_edge10_Node000002_Node000042"><a xlink:title=" ">
<path fill="none" stroke="#63b8ff" d="M281.65,-197.87C291.17,-188.88 306.3,-174.61 317.93,-163.64"/>
<polygon fill="#63b8ff" stroke="#63b8ff" points="320.44,-166.08 325.31,-156.67 315.64,-160.98 320.44,-166.08"/>
</a>
</g>
</g>
<!-- Node50 -->
<g id="Node000050" class="node">
<title>Node50</title>
<g id="a_Node000050"><a xlink:title=" ">
<polygon fill="#e0e0e0" stroke="#999999" points="136.5,-162 20.5,-162 20.5,-132 136.5,-132 136.5,-162"/>
<text text-anchor="start" x="28.5" y="-150" font-family="Helvetica,sans-Serif" font-size="10.00">emlabcpp/pmr/stack</text>
<text text-anchor="middle" x="78.5" y="-139" font-family="Helvetica,sans-Serif" font-size="10.00">_resource.h</text>
</a>
</g>
</g>
<!-- Node2&#45;&gt;Node50 -->
<g id="edge11_Node000002_Node000050" class="edge">
<title>Node2&#45;&gt;Node50</title>
<g id="a_edge11_Node000002_Node000050"><a xlink:title=" ">
<path fill="none" stroke="#63b8ff" d="M244.29,-197.99C215.76,-189.39 170.88,-175.86 135,-165.04"/>
<polygon fill="#63b8ff" stroke="#63b8ff" points="135.73,-161.6 125.14,-162.06 133.7,-168.3 135.73,-161.6"/>
</a>
</g>
</g>
<!-- Node4 -->
<g id="Node000004" class="node">
<title>Node4</title>
<g id="a_Node000004"><a xlink:href="governor_8hpp.html" target="_top" xlink:title=" ">
<polygon fill="#fff0f0" stroke="red" points="699.5,-90.5 613.5,-90.5 613.5,-71.5 699.5,-71.5 699.5,-90.5"/>
<text text-anchor="middle" x="656.5" y="-78.5" font-family="Helvetica,sans-Serif" font-size="10.00">./governor.hpp</text>
</a>
</g>
</g>
<!-- Node3&#45;&gt;Node4 -->
<g id="edge3_Node000003_Node000004" class="edge">
<title>Node3&#45;&gt;Node4</title>
<g id="a_edge3_Node000003_Node000004"><a xlink:title=" ">
<path fill="none" stroke="#63b8ff" d="M645.25,-137.37C647.14,-128.07 650.21,-112.98 652.66,-100.9"/>
<polygon fill="#63b8ff" stroke="#63b8ff" points="656.13,-101.4 654.69,-90.91 649.27,-100.01 656.13,-101.4"/>
</a>
</g>
</g>
<!-- Node29 -->
<g id="Node000029" class="node">
<title>Node29</title>
<g id="a_Node000029"><a xlink:title=" ">
<polygon fill="#e0e0e0" stroke="#999999" points="724,-30 591,-30 591,0 724,0 724,-30"/>
<text text-anchor="start" x="599" y="-18" font-family="Helvetica,sans-Serif" font-size="10.00">emlabcpp/experimental</text>
<text text-anchor="middle" x="657.5" y="-7" font-family="Helvetica,sans-Serif" font-size="10.00">/function_view.h</text>
</a>
</g>
</g>
<!-- Node4&#45;&gt;Node29 -->
<g id="edge4_Node000004_Node000029" class="edge">
<title>Node4&#45;&gt;Node29</title>
<g id="a_edge4_Node000004_Node000029"><a xlink:title=" ">
<path fill="none" stroke="#63b8ff" d="M656.63,-71.37C656.76,-63.49 656.95,-51.45 657.12,-40.6"/>
<polygon fill="#63b8ff" stroke="#63b8ff" points="660.62,-40.41 657.28,-30.36 653.62,-40.3 660.62,-40.41"/>
</a>
</g>
</g>
<!-- Node19 -->
<g id="Node000019" class="node">
<title>Node19</title>
<g id="a_Node000019"><a xlink:title=" ">
<polygon fill="#e0e0e0" stroke="#999999" points="573,-24.5 500,-24.5 500,-5.5 573,-5.5 573,-24.5"/>
<text text-anchor="middle" x="536.5" y="-12.5" font-family="Helvetica,sans-Serif" font-size="10.00">string_view</text>
</a>
</g>
</g>
<!-- Node4&#45;&gt;Node19 -->
<g id="edge5_Node000004_Node000019" class="edge">
<title>Node4&#45;&gt;Node19</title>
<g id="a_edge5_Node000004_Node000019"><a xlink:title=" ">
<path fill="none" stroke="#63b8ff" d="M640.32,-71.37C620.19,-60.63 585.59,-42.18 561.91,-29.55"/>
<polygon fill="#63b8ff" stroke="#63b8ff" points="563.28,-26.32 552.81,-24.7 559.99,-32.49 563.28,-26.32"/>
</a>
</g>
</g>
<!-- Node37&#45;&gt;Node34 -->
<g id="edge9_Node000037_Node000034" class="edge">
<title>Node37&#45;&gt;Node34</title>
<g id="a_edge9_Node000037_Node000034"><a xlink:title=" ">
<path fill="none" stroke="#63b8ff" d="M189.27,-137.37C163.55,-126.39 118.93,-107.36 89.31,-94.72"/>
<polygon fill="#63b8ff" stroke="#63b8ff" points="90.46,-91.4 79.89,-90.7 87.71,-97.84 90.46,-91.4"/>
</a>
</g>
</g>
<!-- Node40 -->
<g id="Node000040" class="node">
<title>Node40</title>
<g id="a_Node000040"><a xlink:href="interfaces_8hpp.html" target="_top" xlink:title=" ">
<polygon fill="#fff0f0" stroke="red" points="292.5,-90.5 178.5,-90.5 178.5,-71.5 292.5,-71.5 292.5,-90.5"/>
<text text-anchor="middle" x="235.5" y="-78.5" font-family="Helvetica,sans-Serif" font-size="10.00">../drv/interfaces.hpp</text>
</a>
</g>
</g>
<!-- Node37&#45;&gt;Node40 -->
<g id="edge8_Node000037_Node000040" class="edge">
<title>Node37&#45;&gt;Node40</title>
<g id="a_edge8_Node000037_Node000040"><a xlink:title=" ">
<path fill="none" stroke="#63b8ff" d="M213.01,-137.37C216.82,-127.97 223.04,-112.67 227.97,-100.53"/>
<polygon fill="#63b8ff" stroke="#63b8ff" points="231.36,-101.49 231.88,-90.91 224.88,-98.85 231.36,-101.49"/>
</a>
</g>
</g>
<!-- Node51&#45;&gt;Node29 -->
<g id="edge15_Node000051_Node000029" class="edge">
<title>Node51&#45;&gt;Node29</title>
<g id="a_edge15_Node000051_Node000029"><a xlink:title=" ">
<path fill="none" stroke="#63b8ff" d="M469.69,-137.47C501.39,-116.97 582.54,-64.48 627.09,-35.67"/>
<polygon fill="#63b8ff" stroke="#63b8ff" points="629.25,-38.44 635.75,-30.07 625.45,-32.56 629.25,-38.44"/>
</a>
</g>
</g>
<!-- Node51&#45;&gt;Node40 -->
<g id="edge13_Node000051_Node000040" class="edge">
<title>Node51&#45;&gt;Node40</title>
<g id="a_edge13_Node000051_Node000040"><a xlink:title=" ">
<path fill="none" stroke="#63b8ff" d="M426.69,-137.37C387.45,-126 318.36,-106 274.86,-93.4"/>
<polygon fill="#63b8ff" stroke="#63b8ff" points="275.76,-90.02 265.18,-90.6 273.82,-96.74 275.76,-90.02"/>
</a>
</g>
</g>
<!-- Node52 -->
<g id="Node000052" class="node">
<title>Node52</title>
<g id="a_Node000052"><a xlink:title=" ">
<polygon fill="#e0e0e0" stroke="#999999" points="470,-96 337,-96 337,-66 470,-66 470,-96"/>
<text text-anchor="start" x="345" y="-84" font-family="Helvetica,sans-Serif" font-size="10.00">emlabcpp/experimental</text>
<text text-anchor="middle" x="403.5" y="-73" font-family="Helvetica,sans-Serif" font-size="10.00">/decompose.h</text>
</a>
</g>
</g>
<!-- Node51&#45;&gt;Node52 -->
<g id="edge14_Node000051_Node000052" class="edge">
<title>Node51&#45;&gt;Node52</title>
<g id="a_edge14_Node000051_Node000052"><a xlink:title=" ">
<path fill="none" stroke="#63b8ff" d="M449.35,-137.37C442.35,-128.91 431.38,-115.67 421.93,-104.25"/>
<polygon fill="#63b8ff" stroke="#63b8ff" points="424.47,-101.83 415.39,-96.36 419.07,-106.29 424.47,-101.83"/>
</a>
</g>
</g>
<!-- Node53&#45;&gt;Node19 -->
<g id="edge19_Node000053_Node000019" class="edge">
<title>Node53&#45;&gt;Node19</title>
<g id="a_edge19_Node000053_Node000019"><a xlink:title=" ">
<path fill="none" stroke="#63b8ff" d="M726.78,-203.62C672.35,-198.74 577.29,-186.82 554.5,-162 522.33,-126.97 527.44,-65.65 532.61,-34.83"/>
<polygon fill="#63b8ff" stroke="#63b8ff" points="536.12,-35.09 534.52,-24.62 529.24,-33.81 536.12,-35.09"/>
</a>
</g>
</g>
<!-- Node54 -->
<g id="Node000054" class="node">
<title>Node54</title>
<g id="a_Node000054"><a xlink:title=" ">
<polygon fill="#e0e0e0" stroke="#999999" points="872.5,-156.5 808.5,-156.5 808.5,-137.5 872.5,-137.5 872.5,-156.5"/>
<text text-anchor="middle" x="840.5" y="-144.5" font-family="Helvetica,sans-Serif" font-size="10.00">algorithm</text>
</a>
</g>
</g>
<!-- Node53&#45;&gt;Node54 -->
<g id="edge17_Node000053_Node000054" class="edge">
<title>Node53&#45;&gt;Node54</title>
<g id="a_edge17_Node000053_Node000054"><a xlink:title=" ">
<path fill="none" stroke="#63b8ff" d="M776.57,-197.87C788.31,-188.71 807.09,-174.06 821.26,-163.01"/>
<polygon fill="#63b8ff" stroke="#63b8ff" points="823.66,-165.58 829.39,-156.67 819.35,-160.06 823.66,-165.58"/>
</a>
</g>
</g>
<!-- Node55 -->
<g id="Node000055" class="node">
<title>Node55</title>
<g id="a_Node000055"><a xlink:title=" ">
<polygon fill="#e0e0e0" stroke="#999999" points="790.5,-156.5 740.5,-156.5 740.5,-137.5 790.5,-137.5 790.5,-156.5"/>
<text text-anchor="middle" x="765.5" y="-144.5" font-family="Helvetica,sans-Serif" font-size="10.00">cstring</text>
</a>
</g>
</g>
<!-- Node53&#45;&gt;Node55 -->
<g id="edge18_Node000053_Node000055" class="edge">
<title>Node53&#45;&gt;Node55</title>
<g id="a_edge18_Node000053_Node000055"><a xlink:title=" ">
<path fill="none" stroke="#63b8ff" d="M765.5,-197.87C765.5,-189.75 765.5,-177.31 765.5,-166.89"/>
<polygon fill="#63b8ff" stroke="#63b8ff" points="769,-166.67 765.5,-156.67 762,-166.67 769,-166.67"/>
</a>
</g>
</g>
<!-- Node56&#45;&gt;Node4 -->
<g id="edge23_Node000056_Node000004" class="edge">
<title>Node56&#45;&gt;Node4</title>
<g id="a_edge23_Node000056_Node000004"><a xlink:title=" ">
<path fill="none" stroke="#63b8ff" d="M912.45,-137.46C861.59,-128.19 779.08,-112.48 708.5,-96 704.67,-95.1 700.69,-94.13 696.71,-93.11"/>
<polygon fill="#63b8ff" stroke="#63b8ff" points="697.49,-89.7 686.93,-90.56 695.73,-96.47 697.49,-89.7"/>
</a>
</g>
</g>
<!-- Node57 -->
<g id="Node000057" class="node">
<title>Node57</title>
<g id="a_Node000057"><a xlink:href="handler_8hpp.html" target="_top" xlink:title=" ">
<polygon fill="#fff0f0" stroke="red" points="913.5,-90.5 803.5,-90.5 803.5,-71.5 913.5,-71.5 913.5,-90.5"/>
<text text-anchor="middle" x="858.5" y="-78.5" font-family="Helvetica,sans-Serif" font-size="10.00">../../cfg/handler.hpp</text>
</a>
</g>
</g>
<!-- Node56&#45;&gt;Node57 -->
<g id="edge21_Node000056_Node000057" class="edge">
<title>Node56&#45;&gt;Node57</title>
<g id="a_edge21_Node000056_Node000057"><a xlink:title=" ">
<path fill="none" stroke="#63b8ff" d="M946.74,-137.37C929.86,-126.78 901.01,-108.67 880.91,-96.06"/>
<polygon fill="#63b8ff" stroke="#63b8ff" points="882.69,-93.05 872.36,-90.7 878.97,-98.98 882.69,-93.05"/>
</a>
</g>
</g>
<!-- Node60 -->
<g id="Node000060" class="node">
<title>Node60</title>
<g id="a_Node000060"><a xlink:href="current_2cfg_8hpp.html" target="_top" xlink:title=" ">
<polygon fill="#fff0f0" stroke="red" points="991,-90.5 932,-90.5 932,-71.5 991,-71.5 991,-90.5"/>
<text text-anchor="middle" x="961.5" y="-78.5" font-family="Helvetica,sans-Serif" font-size="10.00">./cfg.hpp</text>
</a>
</g>
</g>
<!-- Node56&#45;&gt;Node60 -->
<g id="edge24_Node000056_Node000060" class="edge">
<title>Node56&#45;&gt;Node60</title>
<g id="a_edge24_Node000056_Node000060"><a xlink:title=" ">
<path fill="none" stroke="#63b8ff" d="M960.63,-137.37C960.78,-128.16 961.01,-113.29 961.2,-101.27"/>
<polygon fill="#63b8ff" stroke="#63b8ff" points="964.7,-100.96 961.36,-90.91 957.7,-100.85 964.7,-100.96"/>
</a>
</g>
</g>
<!-- Node61 -->
<g id="Node000061" class="node">
<title>Node61</title>
<g id="a_Node000061"><a xlink:href="current_2iface_8hpp.html" target="_top" xlink:title=" ">
<polygon fill="#fff0f0" stroke="red" points="785.5,-90.5 717.5,-90.5 717.5,-71.5 785.5,-71.5 785.5,-90.5"/>
<text text-anchor="middle" x="751.5" y="-78.5" font-family="Helvetica,sans-Serif" font-size="10.00">./iface.hpp</text>
</a>
</g>
</g>
<!-- Node56&#45;&gt;Node61 -->
<g id="edge25_Node000056_Node000061" class="edge">
<title>Node56&#45;&gt;Node61</title>
<g id="a_edge25_Node000056_Node000061"><a xlink:title=" ">
<path fill="none" stroke="#63b8ff" d="M931.35,-137.43C898.16,-127.63 842.32,-110.98 794.5,-96 792.07,-95.24 789.57,-94.45 787.06,-93.65"/>
<polygon fill="#63b8ff" stroke="#63b8ff" points="787.98,-90.27 777.39,-90.53 785.84,-96.93 787.98,-90.27"/>
</a>
</g>
</g>
<!-- Node62 -->
<g id="Node000062" class="node">
<title>Node62</title>
<g id="a_Node000062"><a xlink:title=" ">
<polygon fill="#e0e0e0" stroke="#999999" points="1101.5,-90.5 1009.5,-90.5 1009.5,-71.5 1101.5,-71.5 1101.5,-90.5"/>
<text text-anchor="middle" x="1055.5" y="-78.5" font-family="Helvetica,sans-Serif" font-size="10.00">emlabcpp/pid.h</text>
</a>
</g>
</g>
<!-- Node56&#45;&gt;Node62 -->
<g id="edge26_Node000056_Node000062" class="edge">
<title>Node56&#45;&gt;Node62</title>
<g id="a_edge26_Node000056_Node000062"><a xlink:title=" ">
<path fill="none" stroke="#63b8ff" d="M973.31,-137.37C988.89,-126.87 1015.43,-109 1034.12,-96.4"/>
<polygon fill="#63b8ff" stroke="#63b8ff" points="1036.25,-99.19 1042.59,-90.7 1032.34,-93.38 1036.25,-99.19"/>
</a>
</g>
</g>
<!-- Node57&#45;&gt;Node29 -->
<g id="edge22_Node000057_Node000029" class="edge">
<title>Node57&#45;&gt;Node29</title>
<g id="a_edge22_Node000057_Node000029"><a xlink:title=" ">
<path fill="none" stroke="#63b8ff" d="M831.39,-71.37C800.77,-61.62 750.16,-45.5 711.41,-33.16"/>
<polygon fill="#63b8ff" stroke="#63b8ff" points="712.42,-29.81 701.83,-30.12 710.3,-36.48 712.42,-29.81"/>
</a>
</g>
</g>
<!-- Node63&#45;&gt;Node4 -->
<g id="edge28_Node000063_Node000004" class="edge">
<title>Node63&#45;&gt;Node4</title>
<g id="a_edge28_Node000063_Node000004"><a xlink:title=" ">
<path fill="none" stroke="#63b8ff" d="M1071.33,-137.43C1060.95,-135.48 1049.85,-133.54 1039.5,-132 893.13,-110.23 853.94,-123.32 708.5,-96 704.04,-95.16 699.4,-94.14 694.81,-93.03"/>
<polygon fill="#63b8ff" stroke="#63b8ff" points="695.48,-89.59 684.93,-90.5 693.75,-96.37 695.48,-89.59"/>
</a>
</g>
</g>
<!-- Node63&#45;&gt;Node62 -->
<g id="edge30_Node000063_Node000062" class="edge">
<title>Node63&#45;&gt;Node62</title>
<g id="a_edge30_Node000063_Node000062"><a xlink:title=" ">
<path fill="none" stroke="#63b8ff" d="M1105.68,-137.37C1096.65,-127.4 1081.59,-110.79 1070.33,-98.36"/>
<polygon fill="#63b8ff" stroke="#63b8ff" points="1072.88,-95.96 1063.57,-90.91 1067.69,-100.67 1072.88,-95.96"/>
</a>
</g>
</g>
<!-- Node64 -->
<g id="Node000064" class="node">
<title>Node64</title>
<g id="a_Node000064"><a xlink:href="power_2iface_8hpp.html" target="_top" xlink:title=" ">
<polygon fill="#fff0f0" stroke="red" points="1187.5,-90.5 1119.5,-90.5 1119.5,-71.5 1187.5,-71.5 1187.5,-90.5"/>
<text text-anchor="middle" x="1153.5" y="-78.5" font-family="Helvetica,sans-Serif" font-size="10.00">./iface.hpp</text>
</a>
</g>
</g>
<!-- Node63&#45;&gt;Node64 -->
<g id="edge29_Node000063_Node000064" class="edge">
<title>Node63&#45;&gt;Node64</title>
<g id="a_edge29_Node000063_Node000064"><a xlink:title=" ">
<path fill="none" stroke="#63b8ff" d="M1118.89,-137.37C1124.94,-127.69 1134.91,-111.74 1142.6,-99.44"/>
<polygon fill="#63b8ff" stroke="#63b8ff" points="1145.6,-101.24 1147.93,-90.91 1139.67,-97.53 1145.6,-101.24"/>
</a>
</g>
</g>
</g>
</svg>
