<?xml version="1.0" encoding="UTF-8" standalone="no"?>
<!DOCTYPE svg PUBLIC "-//W3C//DTD SVG 1.1//EN"
 "http://www.w3.org/Graphics/SVG/1.1/DTD/svg11.dtd">
<!-- Generated by graphviz version 2.43.0 (0)
 -->
<!-- Title: src/scmdio/base.hpp Pages: 1 -->
<svg width="779pt" height="93pt"
 viewBox="0.00 0.00 778.50 93.00" xmlns="http://www.w3.org/2000/svg" xmlns:xlink="http://www.w3.org/1999/xlink">
<g id="graph0" class="graph" transform="scale(1 1) rotate(0) translate(4 89)">
<title>src/scmdio/base.hpp</title>
<!-- Node1 -->
<g id="Node000001" class="node">
<title>Node1</title>
<g id="a_Node000001"><a xlink:title=" ">
<polygon fill="#999999" stroke="#666666" points="405,-85 289,-85 289,-66 405,-66 405,-85"/>
<text text-anchor="middle" x="347" y="-73" font-family="Helvetica,sans-Serif" font-size="10.00">src/scmdio/base.hpp</text>
</a>
</g>
</g>
<!-- Node2 -->
<g id="Node000002" class="node">
<title>Node2</title>
<g id="a_Node000002"><a xlink:title=" ">
<polygon fill="#e0e0e0" stroke="#999999" points="50,-24.5 0,-24.5 0,-5.5 50,-5.5 50,-24.5"/>
<text text-anchor="middle" x="25" y="-12.5" font-family="Helvetica,sans-Serif" font-size="10.00">cstdint</text>
</a>
</g>
</g>
<!-- Node1&#45;&gt;Node2 -->
<g id="edge1_Node000001_Node000002" class="edge">
<title>Node1&#45;&gt;Node2</title>
<g id="a_edge1_Node000001_Node000002"><a xlink:title=" ">
<path fill="none" stroke="#63b8ff" d="M288.77,-69.59C229.98,-63.69 136.97,-51.74 59,-30 57.06,-29.46 55.09,-28.84 53.11,-28.17"/>
<polygon fill="#63b8ff" stroke="#63b8ff" points="54.02,-24.77 43.43,-24.52 51.55,-31.32 54.02,-24.77"/>
</a>
</g>
</g>
<!-- Node3 -->
<g id="Node000003" class="node">
<title>Node3</title>
<g id="a_Node000003"><a xlink:title=" ">
<polygon fill="#e0e0e0" stroke="#999999" points="155.5,-24.5 68.5,-24.5 68.5,-5.5 155.5,-5.5 155.5,-24.5"/>
<text text-anchor="middle" x="112" y="-12.5" font-family="Helvetica,sans-Serif" font-size="10.00">avakar/atom.h</text>
</a>
</g>
</g>
<!-- Node1&#45;&gt;Node3 -->
<g id="edge2_Node000001_Node000003" class="edge">
<title>Node1&#45;&gt;Node3</title>
<g id="a_edge2_Node000001_Node000003"><a xlink:title=" ">
<path fill="none" stroke="#63b8ff" d="M311.38,-66C274.65,-57.18 215.75,-42.91 165,-30 161.37,-29.08 157.61,-28.11 153.84,-27.13"/>
<polygon fill="#63b8ff" stroke="#63b8ff" points="154.49,-23.68 143.93,-24.54 152.71,-30.45 154.49,-23.68"/>
</a>
</g>
</g>
<!-- Node4 -->
<g id="Node000004" class="node">
<title>Node4</title>
<g id="a_Node000004"><a xlink:title=" ">
<polygon fill="#e0e0e0" stroke="#999999" points="262,-24.5 174,-24.5 174,-5.5 262,-5.5 262,-24.5"/>
<text text-anchor="middle" x="218" y="-12.5" font-family="Helvetica,sans-Serif" font-size="10.00">boost/asio.hpp</text>
</a>
</g>
</g>
<!-- Node1&#45;&gt;Node4 -->
<g id="edge3_Node000001_Node000004" class="edge">
<title>Node1&#45;&gt;Node4</title>
<g id="a_edge3_Node000001_Node000004"><a xlink:title=" ">
<path fill="none" stroke="#63b8ff" d="M328.24,-65.99C306.65,-56.2 270.97,-40.02 246.07,-28.73"/>
<polygon fill="#63b8ff" stroke="#63b8ff" points="247.33,-25.46 236.78,-24.52 244.44,-31.83 247.33,-25.46"/>
</a>
</g>
</g>
<!-- Node5 -->
<g id="Node000005" class="node">
<title>Node5</title>
<g id="a_Node000005"><a xlink:title=" ">
<polygon fill="#e0e0e0" stroke="#999999" points="413.5,-30 280.5,-30 280.5,0 413.5,0 413.5,-30"/>
<text text-anchor="start" x="288.5" y="-18" font-family="Helvetica,sans-Serif" font-size="10.00">emlabcpp/experimental</text>
<text text-anchor="middle" x="347" y="-7" font-family="Helvetica,sans-Serif" font-size="10.00">/string_buffer.h</text>
</a>
</g>
</g>
<!-- Node1&#45;&gt;Node5 -->
<g id="edge4_Node000001_Node000005" class="edge">
<title>Node1&#45;&gt;Node5</title>
<g id="a_edge4_Node000001_Node000005"><a xlink:title=" ">
<path fill="none" stroke="#63b8ff" d="M347,-65.87C347,-59.11 347,-49.35 347,-40.26"/>
<polygon fill="#63b8ff" stroke="#63b8ff" points="350.5,-40.11 347,-30.11 343.5,-40.11 350.5,-40.11"/>
</a>
</g>
</g>
<!-- Node6 -->
<g id="Node000006" class="node">
<title>Node6</title>
<g id="a_Node000006"><a xlink:title=" ">
<polygon fill="#e0e0e0" stroke="#999999" points="530.5,-24.5 431.5,-24.5 431.5,-5.5 530.5,-5.5 530.5,-24.5"/>
<text text-anchor="middle" x="481" y="-12.5" font-family="Helvetica,sans-Serif" font-size="10.00">emlabcpp/view.h</text>
</a>
</g>
</g>
<!-- Node1&#45;&gt;Node6 -->
<g id="edge5_Node000001_Node000006" class="edge">
<title>Node1&#45;&gt;Node6</title>
<g id="a_edge5_Node000001_Node000006"><a xlink:title=" ">
<path fill="none" stroke="#63b8ff" d="M366.48,-65.99C389.01,-56.16 426.31,-39.88 452.19,-28.58"/>
<polygon fill="#63b8ff" stroke="#63b8ff" points="453.73,-31.73 461.49,-24.52 450.93,-25.31 453.73,-31.73"/>
</a>
</g>
</g>
<!-- Node7 -->
<g id="Node000007" class="node">
<title>Node7</title>
<g id="a_Node000007"><a xlink:title=" ">
<polygon fill="#e0e0e0" stroke="#999999" points="659,-24.5 549,-24.5 549,-5.5 659,-5.5 659,-24.5"/>
<text text-anchor="middle" x="604" y="-12.5" font-family="Helvetica,sans-Serif" font-size="10.00">nlohmann/json.hpp</text>
</a>
</g>
</g>
<!-- Node1&#45;&gt;Node7 -->
<g id="edge6_Node000001_Node000007" class="edge">
<title>Node1&#45;&gt;Node7</title>
<g id="a_edge6_Node000001_Node000007"><a xlink:title=" ">
<path fill="none" stroke="#63b8ff" d="M384.37,-65.99C429.95,-55.62 507.06,-38.07 556.73,-26.76"/>
<polygon fill="#63b8ff" stroke="#63b8ff" points="557.61,-30.15 566.58,-24.52 556.06,-23.32 557.61,-30.15"/>
</a>
</g>
</g>
<!-- Node8 -->
<g id="Node000008" class="node">
<title>Node8</title>
<g id="a_Node000008"><a xlink:title=" ">
<polygon fill="#e0e0e0" stroke="#999999" points="770.5,-24.5 677.5,-24.5 677.5,-5.5 770.5,-5.5 770.5,-24.5"/>
<text text-anchor="middle" x="724" y="-12.5" font-family="Helvetica,sans-Serif" font-size="10.00">spdlog/spdlog.h</text>
</a>
</g>
</g>
<!-- Node1&#45;&gt;Node8 -->
<g id="edge7_Node000001_Node000008" class="edge">
<title>Node1&#45;&gt;Node8</title>
<g id="a_edge7_Node000001_Node000008"><a xlink:title=" ">
<path fill="none" stroke="#63b8ff" d="M405.01,-68.36C469.53,-61.08 576.72,-47.68 668,-30 672.73,-29.08 677.66,-28.02 682.55,-26.89"/>
<polygon fill="#63b8ff" stroke="#63b8ff" points="683.53,-30.25 692.44,-24.52 681.9,-23.45 683.53,-30.25"/>
</a>
</g>
</g>
</g>
</svg>
