<?xml version="1.0" encoding="UTF-8" standalone="no"?>
<!DOCTYPE svg PUBLIC "-//W3C//DTD SVG 1.1//EN"
 "http://www.w3.org/Graphics/SVG/1.1/DTD/svg11.dtd">
<!-- Generated by graphviz version 2.43.0 (0)
 -->
<!-- Title: src/scmdio/cli.hpp Pages: 1 -->
<svg width="745pt" height="203pt"
 viewBox="0.00 0.00 744.50 203.00" xmlns="http://www.w3.org/2000/svg" xmlns:xlink="http://www.w3.org/1999/xlink">
<g id="graph0" class="graph" transform="scale(1 1) rotate(0) translate(4 199)">
<title>src/scmdio/cli.hpp</title>
<!-- Node1 -->
<g id="Node000001" class="node">
<title>Node1</title>
<g id="a_Node000001"><a xlink:title=" ">
<polygon fill="#999999" stroke="#666666" points="599,-195 495,-195 495,-176 599,-176 599,-195"/>
<text text-anchor="middle" x="547" y="-183" font-family="Helvetica,sans-Serif" font-size="10.00">src/scmdio/cli.hpp</text>
</a>
</g>
</g>
<!-- Node2 -->
<g id="Node000002" class="node">
<title>Node2</title>
<g id="a_Node000002"><a xlink:href="base_2base_8hpp.html" target="_top" xlink:title=" ">
<polygon fill="white" stroke="#666666" points="285,-140 189,-140 189,-121 285,-121 285,-140"/>
<text text-anchor="middle" x="237" y="-128" font-family="Helvetica,sans-Serif" font-size="10.00">../base/base.hpp</text>
</a>
</g>
</g>
<!-- Node1&#45;&gt;Node2 -->
<g id="edge1_Node000001_Node000002" class="edge">
<title>Node1&#45;&gt;Node2</title>
<g id="a_edge1_Node000001_Node000002"><a xlink:title=" ">
<path fill="none" stroke="#63b8ff" d="M497.19,-175.98C442.14,-166.57 353.55,-151.43 295.3,-141.47"/>
<polygon fill="#63b8ff" stroke="#63b8ff" points="295.6,-137.97 285.15,-139.73 294.42,-144.87 295.6,-137.97"/>
</a>
</g>
</g>
<!-- Node8 -->
<g id="Node000008" class="node">
<title>Node8</title>
<g id="a_Node000008"><a xlink:href="port_8hpp.html" target="_top" xlink:title=" ">
<polygon fill="white" stroke="#666666" points="578.5,-140 515.5,-140 515.5,-121 578.5,-121 578.5,-140"/>
<text text-anchor="middle" x="547" y="-128" font-family="Helvetica,sans-Serif" font-size="10.00">./port.hpp</text>
</a>
</g>
</g>
<!-- Node1&#45;&gt;Node8 -->
<g id="edge7_Node000001_Node000008" class="edge">
<title>Node1&#45;&gt;Node8</title>
<g id="a_edge7_Node000001_Node000008"><a xlink:title=" ">
<path fill="none" stroke="#63b8ff" d="M547,-175.75C547,-168.8 547,-158.85 547,-150.13"/>
<polygon fill="#63b8ff" stroke="#63b8ff" points="550.5,-150.09 547,-140.09 543.5,-150.09 550.5,-150.09"/>
</a>
</g>
</g>
<!-- Node17 -->
<g id="Node000017" class="node">
<title>Node17</title>
<g id="a_Node000017"><a xlink:title=" ">
<polygon fill="#e0e0e0" stroke="#999999" points="667.5,-140 596.5,-140 596.5,-121 667.5,-121 667.5,-140"/>
<text text-anchor="middle" x="632" y="-128" font-family="Helvetica,sans-Serif" font-size="10.00">CLI/CLI.hpp</text>
</a>
</g>
</g>
<!-- Node1&#45;&gt;Node17 -->
<g id="edge12_Node000001_Node000017" class="edge">
<title>Node1&#45;&gt;Node17</title>
<g id="a_edge12_Node000001_Node000017"><a xlink:title=" ">
<path fill="none" stroke="#63b8ff" d="M560.66,-175.98C573.84,-167.77 594.03,-155.18 609.57,-145.49"/>
<polygon fill="#63b8ff" stroke="#63b8ff" points="611.46,-148.43 618.09,-140.17 607.76,-142.49 611.46,-148.43"/>
</a>
</g>
</g>
<!-- Node3 -->
<g id="Node000003" class="node">
<title>Node3</title>
<g id="a_Node000003"><a xlink:title=" ">
<polygon fill="#e0e0e0" stroke="#999999" points="50,-79.5 0,-79.5 0,-60.5 50,-60.5 50,-79.5"/>
<text text-anchor="middle" x="25" y="-67.5" font-family="Helvetica,sans-Serif" font-size="10.00">chrono</text>
</a>
</g>
</g>
<!-- Node2&#45;&gt;Node3 -->
<g id="edge2_Node000002_Node000003" class="edge">
<title>Node2&#45;&gt;Node3</title>
<g id="a_edge2_Node000002_Node000003"><a xlink:title=" ">
<path fill="none" stroke="#63b8ff" d="M199.6,-120.94C164.37,-112.63 110.24,-99.21 64,-85 61.74,-84.3 59.41,-83.56 57.08,-82.78"/>
<polygon fill="#63b8ff" stroke="#63b8ff" points="58.16,-79.45 47.57,-79.5 55.88,-86.07 58.16,-79.45"/>
</a>
</g>
</g>
<!-- Node4 -->
<g id="Node000004" class="node">
<title>Node4</title>
<g id="a_Node000004"><a xlink:title=" ">
<polygon fill="#e0e0e0" stroke="#999999" points="309,-19 259,-19 259,0 309,0 309,-19"/>
<text text-anchor="middle" x="284" y="-7" font-family="Helvetica,sans-Serif" font-size="10.00">cstdint</text>
</a>
</g>
</g>
<!-- Node2&#45;&gt;Node4 -->
<g id="edge3_Node000002_Node000004" class="edge">
<title>Node2&#45;&gt;Node4</title>
<g id="a_edge3_Node000002_Node000004"><a xlink:title=" ">
<path fill="none" stroke="#63b8ff" d="M188.58,-122.01C137.58,-112.04 68.33,-91.3 97,-55 115.55,-31.52 199.88,-19.1 248.73,-13.76"/>
<polygon fill="#63b8ff" stroke="#63b8ff" points="249.28,-17.23 258.87,-12.7 248.56,-10.26 249.28,-17.23"/>
</a>
</g>
</g>
<!-- Node5 -->
<g id="Node000005" class="node">
<title>Node5</title>
<g id="a_Node000005"><a xlink:title=" ">
<polygon fill="#e0e0e0" stroke="#999999" points="230,-79.5 106,-79.5 106,-60.5 230,-60.5 230,-79.5"/>
<text text-anchor="middle" x="168" y="-67.5" font-family="Helvetica,sans-Serif" font-size="10.00">emlabcpp/algorithm.h</text>
</a>
</g>
</g>
<!-- Node2&#45;&gt;Node5 -->
<g id="edge4_Node000002_Node000005" class="edge">
<title>Node2&#45;&gt;Node5</title>
<g id="a_edge4_Node000002_Node000005"><a xlink:title=" ">
<path fill="none" stroke="#63b8ff" d="M226.82,-120.87C216.12,-111.8 199.06,-97.34 186.07,-86.32"/>
<polygon fill="#63b8ff" stroke="#63b8ff" points="188.11,-83.46 178.22,-79.67 183.59,-88.8 188.11,-83.46"/>
</a>
</g>
</g>
<!-- Node6 -->
<g id="Node000006" class="node">
<title>Node6</title>
<g id="a_Node000006"><a xlink:title=" ">
<polygon fill="#e0e0e0" stroke="#999999" points="364,-79.5 248,-79.5 248,-60.5 364,-60.5 364,-79.5"/>
<text text-anchor="middle" x="306" y="-67.5" font-family="Helvetica,sans-Serif" font-size="10.00">emlabcpp/quantity.h</text>
</a>
</g>
</g>
<!-- Node2&#45;&gt;Node6 -->
<g id="edge5_Node000002_Node000006" class="edge">
<title>Node2&#45;&gt;Node6</title>
<g id="a_edge5_Node000002_Node000006"><a xlink:title=" ">
<path fill="none" stroke="#63b8ff" d="M247.18,-120.87C257.88,-111.8 274.94,-97.34 287.93,-86.32"/>
<polygon fill="#63b8ff" stroke="#63b8ff" points="290.41,-88.8 295.78,-79.67 285.89,-83.46 290.41,-88.8"/>
</a>
</g>
</g>
<!-- Node7 -->
<g id="Node000007" class="node">
<title>Node7</title>
<g id="a_Node000007"><a xlink:title=" ">
<polygon fill="#e0e0e0" stroke="#999999" points="441.5,-79.5 382.5,-79.5 382.5,-60.5 441.5,-60.5 441.5,-79.5"/>
<text text-anchor="middle" x="412" y="-67.5" font-family="Helvetica,sans-Serif" font-size="10.00">numbers</text>
</a>
</g>
</g>
<!-- Node2&#45;&gt;Node7 -->
<g id="edge6_Node000002_Node000007" class="edge">
<title>Node2&#45;&gt;Node7</title>
<g id="a_edge6_Node000002_Node000007"><a xlink:title=" ">
<path fill="none" stroke="#63b8ff" d="M263.91,-120.94C291.4,-112.14 335.28,-97.94 373,-85 374.89,-84.35 376.83,-83.68 378.78,-83"/>
<polygon fill="#63b8ff" stroke="#63b8ff" points="380.27,-86.18 388.53,-79.55 377.93,-79.58 380.27,-86.18"/>
</a>
</g>
</g>
<!-- Node9 -->
<g id="Node000009" class="node">
<title>Node9</title>
<g id="a_Node000009"><a xlink:href="scmdio_2base_8hpp.html" target="_top" xlink:title=" ">
<polygon fill="#fff0f0" stroke="red" points="520.5,-79.5 459.5,-79.5 459.5,-60.5 520.5,-60.5 520.5,-79.5"/>
<text text-anchor="middle" x="490" y="-67.5" font-family="Helvetica,sans-Serif" font-size="10.00">base.hpp</text>
</a>
</g>
</g>
<!-- Node8&#45;&gt;Node9 -->
<g id="edge8_Node000008_Node000009" class="edge">
<title>Node8&#45;&gt;Node9</title>
<g id="a_edge8_Node000008_Node000009"><a xlink:title=" ">
<path fill="none" stroke="#63b8ff" d="M538.59,-120.87C529.92,-111.97 516.2,-97.89 505.54,-86.95"/>
<polygon fill="#63b8ff" stroke="#63b8ff" points="507.93,-84.39 498.45,-79.67 502.92,-89.27 507.93,-84.39"/>
</a>
</g>
</g>
<!-- Node15 -->
<g id="Node000015" class="node">
<title>Node15</title>
<g id="a_Node000015"><a xlink:title=" ">
<polygon fill="#e0e0e0" stroke="#999999" points="671.5,-85 538.5,-85 538.5,-55 671.5,-55 671.5,-85"/>
<text text-anchor="start" x="546.5" y="-73" font-family="Helvetica,sans-Serif" font-size="10.00">emlabcpp/experimental</text>
<text text-anchor="middle" x="605" y="-62" font-family="Helvetica,sans-Serif" font-size="10.00">/cobs.h</text>
</a>
</g>
</g>
<!-- Node8&#45;&gt;Node15 -->
<g id="edge10_Node000008_Node000015" class="edge">
<title>Node8&#45;&gt;Node15</title>
<g id="a_edge10_Node000008_Node000015"><a xlink:title=" ">
<path fill="none" stroke="#63b8ff" d="M555.56,-120.87C562.99,-113.37 574.07,-102.2 583.86,-92.33"/>
<polygon fill="#63b8ff" stroke="#63b8ff" points="586.45,-94.68 591.01,-85.11 581.48,-89.75 586.45,-94.68"/>
</a>
</g>
</g>
<!-- Node16 -->
<g id="Node000016" class="node">
<title>Node16</title>
<g id="a_Node000016"><a xlink:title=" ">
<polygon fill="#e0e0e0" stroke="#999999" points="736.5,-79.5 689.5,-79.5 689.5,-60.5 736.5,-60.5 736.5,-79.5"/>
<text text-anchor="middle" x="713" y="-67.5" font-family="Helvetica,sans-Serif" font-size="10.00">vector</text>
</a>
</g>
</g>
<!-- Node8&#45;&gt;Node16 -->
<g id="edge11_Node000008_Node000016" class="edge">
<title>Node8&#45;&gt;Node16</title>
<g id="a_edge11_Node000008_Node000016"><a xlink:title=" ">
<path fill="none" stroke="#63b8ff" d="M575.24,-120.95C602.54,-112.49 644.96,-98.84 681,-85 682.21,-84.54 683.44,-84.05 684.68,-83.55"/>
<polygon fill="#63b8ff" stroke="#63b8ff" points="686.3,-86.67 694.17,-79.58 683.59,-80.21 686.3,-86.67"/>
</a>
</g>
</g>
<!-- Node9&#45;&gt;Node4 -->
<g id="edge9_Node000009_Node000004" class="edge">
<title>Node9&#45;&gt;Node4</title>
<g id="a_edge9_Node000009_Node000004"><a xlink:title=" ">
<path fill="none" stroke="#63b8ff" d="M466.41,-60.41C461.04,-58.55 455.34,-56.65 450,-55 405.17,-41.17 352.79,-27.54 319.04,-19.08"/>
<polygon fill="#63b8ff" stroke="#63b8ff" points="319.75,-15.65 309.2,-16.63 318.05,-22.44 319.75,-15.65"/>
</a>
</g>
</g>
</g>
</svg>
