<?xml version="1.0" encoding="UTF-8" standalone="no"?>
<!DOCTYPE svg PUBLIC "-//W3C//DTD SVG 1.1//EN"
 "http://www.w3.org/Graphics/SVG/1.1/DTD/svg11.dtd">
<!-- Generated by graphviz version 2.43.0 (0)
 -->
<!-- Title: src/scmdio/main.cpp Pages: 1 -->
<svg width="707pt" height="196pt"
 viewBox="0.00 0.00 707.00 196.00" xmlns="http://www.w3.org/2000/svg" xmlns:xlink="http://www.w3.org/1999/xlink">
<g id="graph0" class="graph" transform="scale(1 1) rotate(0) translate(4 192)">
<title>src/scmdio/main.cpp</title>
<polygon fill="white" stroke="transparent" points="-4,4 -4,-192 703,-192 703,4 -4,4"/>
<!-- Node1 -->
<g id="node1" class="node">
<title>Node1</title>
<g id="a_node1"><a xlink:title=" ">
<polygon fill="#bfbfbf" stroke="black" points="303.5,-168.5 303.5,-187.5 420.5,-187.5 420.5,-168.5 303.5,-168.5"/>
<text text-anchor="middle" x="362" y="-175.5" font-family="Helvetica,sans-Serif" font-size="10.00">src/scmdio/main.cpp</text>
</a>
</g>
</g>
<!-- Node2 -->
<g id="node2" class="node">
<title>Node2</title>
<g id="a_node2"><a xlink:title=" ">
<polygon fill="white" stroke="#bfbfbf" points="0,-56.5 0,-75.5 50,-75.5 50,-56.5 0,-56.5"/>
<text text-anchor="middle" x="25" y="-63.5" font-family="Helvetica,sans-Serif" font-size="10.00">io.pb.h</text>
</a>
</g>
</g>
<!-- Node1&#45;&gt;Node2 -->
<g id="edge1" class="edge">
<title>Node1&#45;&gt;Node2</title>
<path fill="none" stroke="midnightblue" d="M303.34,-176.19C247.91,-173.36 163.68,-163.58 98,-132 74,-120.46 51.99,-98.64 38.55,-83.48"/>
<polygon fill="midnightblue" stroke="midnightblue" points="41.18,-81.17 32.01,-75.85 35.86,-85.72 41.18,-81.17"/>
</g>
<!-- Node3 -->
<g id="node3" class="node">
<title>Node3</title>
<g id="a_node3"><a xlink:href="cli_8hpp.html" target="_top" xlink:title=" ">
<polygon fill="white" stroke="black" points="383.5,-112.5 383.5,-131.5 470.5,-131.5 470.5,-112.5 383.5,-112.5"/>
<text text-anchor="middle" x="427" y="-119.5" font-family="Helvetica,sans-Serif" font-size="10.00">scmdio/cli.hpp</text>
</a>
</g>
</g>
<!-- Node1&#45;&gt;Node3 -->
<g id="edge2" class="edge">
<title>Node1&#45;&gt;Node3</title>
<path fill="none" stroke="midnightblue" d="M372.44,-168.32C382.15,-160.26 396.82,-148.08 408.5,-138.37"/>
<polygon fill="midnightblue" stroke="midnightblue" points="410.91,-140.92 416.37,-131.83 406.44,-135.53 410.91,-140.92"/>
</g>
<!-- Node12 -->
<g id="node7" class="node">
<title>Node12</title>
<g id="a_node7"><a xlink:href="config__cmds_8hpp.html" target="_top" xlink:title=" ">
<polygon fill="white" stroke="black" points="228.5,-112.5 228.5,-131.5 365.5,-131.5 365.5,-112.5 228.5,-112.5"/>
<text text-anchor="middle" x="297" y="-119.5" font-family="Helvetica,sans-Serif" font-size="10.00">scmdio/config_cmds.hpp</text>
</a>
</g>
</g>
<!-- Node1&#45;&gt;Node12 -->
<g id="edge6" class="edge">
<title>Node1&#45;&gt;Node12</title>
<path fill="none" stroke="midnightblue" d="M351.56,-168.32C341.85,-160.26 327.18,-148.08 315.5,-138.37"/>
<polygon fill="midnightblue" stroke="midnightblue" points="317.56,-135.53 307.63,-131.83 313.09,-140.92 317.56,-135.53"/>
</g>
<!-- Node14 -->
<g id="node9" class="node">
<title>Node14</title>
<g id="a_node9"><a xlink:href="serial_8hpp.html" target="_top" xlink:title=" ">
<polygon fill="white" stroke="black" points="107.5,-112.5 107.5,-131.5 210.5,-131.5 210.5,-112.5 107.5,-112.5"/>
<text text-anchor="middle" x="159" y="-119.5" font-family="Helvetica,sans-Serif" font-size="10.00">scmdio/serial.hpp</text>
</a>
</g>
</g>
<!-- Node1&#45;&gt;Node14 -->
<g id="edge10" class="edge">
<title>Node1&#45;&gt;Node14</title>
<path fill="none" stroke="midnightblue" d="M329.83,-168.44C294.94,-159.16 239.11,-144.31 200.83,-134.13"/>
<polygon fill="midnightblue" stroke="midnightblue" points="201.58,-130.7 191.02,-131.52 199.78,-137.47 201.58,-130.7"/>
</g>
<!-- Node15 -->
<g id="node10" class="node">
<title>Node15</title>
<g id="a_node10"><a xlink:title=" ">
<polygon fill="white" stroke="#bfbfbf" points="489,-112.5 489,-131.5 613,-131.5 613,-112.5 489,-112.5"/>
<text text-anchor="middle" x="551" y="-119.5" font-family="Helvetica,sans-Serif" font-size="10.00">emlabcpp/algorithm.h</text>
</a>
</g>
</g>
<!-- Node1&#45;&gt;Node15 -->
<g id="edge15" class="edge">
<title>Node1&#45;&gt;Node15</title>
<path fill="none" stroke="midnightblue" d="M391.95,-168.44C424.16,-159.24 475.53,-144.56 511.14,-134.39"/>
<polygon fill="midnightblue" stroke="midnightblue" points="512.54,-137.63 521.19,-131.52 510.62,-130.9 512.54,-137.63"/>
</g>
<!-- Node16 -->
<g id="node11" class="node">
<title>Node16</title>
<g id="a_node11"><a xlink:title=" ">
<polygon fill="white" stroke="#bfbfbf" points="631,-112.5 631,-131.5 699,-131.5 699,-112.5 631,-112.5"/>
<text text-anchor="middle" x="665" y="-119.5" font-family="Helvetica,sans-Serif" font-size="10.00">filesystem</text>
</a>
</g>
</g>
<!-- Node1&#45;&gt;Node16 -->
<g id="edge16" class="edge">
<title>Node1&#45;&gt;Node16</title>
<path fill="none" stroke="midnightblue" d="M414.39,-168.49C464.81,-160.17 543.45,-146.86 620.83,-132.17"/>
<polygon fill="midnightblue" stroke="midnightblue" points="621.59,-135.59 630.75,-130.28 620.28,-128.72 621.59,-135.59"/>
</g>
<!-- Node4 -->
<g id="node4" class="node">
<title>Node4</title>
<g id="a_node4"><a xlink:href="async__cobs_8hpp.html" target="_top" xlink:title=" ">
<polygon fill="white" stroke="red" points="268,-56.5 268,-75.5 400,-75.5 400,-56.5 268,-56.5"/>
<text text-anchor="middle" x="334" y="-63.5" font-family="Helvetica,sans-Serif" font-size="10.00">scmdio/async_cobs.hpp</text>
</a>
</g>
</g>
<!-- Node3&#45;&gt;Node4 -->
<g id="edge3" class="edge">
<title>Node3&#45;&gt;Node4</title>
<path fill="none" stroke="midnightblue" d="M412.06,-112.32C397.41,-103.82 374.87,-90.73 357.76,-80.8"/>
<polygon fill="midnightblue" stroke="midnightblue" points="359.31,-77.65 348.9,-75.65 355.8,-83.7 359.31,-77.65"/>
</g>
<!-- Node11 -->
<g id="node6" class="node">
<title>Node11</title>
<g id="a_node6"><a xlink:title=" ">
<polygon fill="white" stroke="#bfbfbf" points="456.5,-56.5 456.5,-75.5 527.5,-75.5 527.5,-56.5 456.5,-56.5"/>
<text text-anchor="middle" x="492" y="-63.5" font-family="Helvetica,sans-Serif" font-size="10.00">CLI/CLI.hpp</text>
</a>
</g>
</g>
<!-- Node3&#45;&gt;Node11 -->
<g id="edge5" class="edge">
<title>Node3&#45;&gt;Node11</title>
<path fill="none" stroke="midnightblue" d="M437.44,-112.32C447.15,-104.26 461.82,-92.08 473.5,-82.37"/>
<polygon fill="midnightblue" stroke="midnightblue" points="475.91,-84.92 481.37,-75.83 471.44,-79.53 475.91,-84.92"/>
</g>
<!-- Node8 -->
<g id="node5" class="node">
<title>Node8</title>
<g id="a_node5"><a xlink:title=" ">
<polygon fill="white" stroke="#bfbfbf" points="290,-0.5 290,-19.5 378,-19.5 378,-0.5 290,-0.5"/>
<text text-anchor="middle" x="334" y="-7.5" font-family="Helvetica,sans-Serif" font-size="10.00">boost/asio.hpp</text>
</a>
</g>
</g>
<!-- Node4&#45;&gt;Node8 -->
<g id="edge4" class="edge">
<title>Node4&#45;&gt;Node8</title>
<path fill="none" stroke="midnightblue" d="M334,-56.08C334,-49.01 334,-38.86 334,-29.99"/>
<polygon fill="midnightblue" stroke="midnightblue" points="337.5,-29.75 334,-19.75 330.5,-29.75 337.5,-29.75"/>
</g>
<!-- Node12&#45;&gt;Node4 -->
<g id="edge7" class="edge">
<title>Node12&#45;&gt;Node4</title>
<path fill="none" stroke="midnightblue" d="M303.11,-112.08C308.28,-104.53 315.85,-93.49 322.19,-84.23"/>
<polygon fill="midnightblue" stroke="midnightblue" points="325.24,-85.98 328,-75.75 319.46,-82.02 325.24,-85.98"/>
</g>
<!-- Node12&#45;&gt;Node8 -->
<g id="edge8" class="edge">
<title>Node12&#45;&gt;Node8</title>
<path fill="none" stroke="midnightblue" d="M352.14,-112.42C373.6,-106.09 396.09,-95.1 409,-76 423.69,-54.26 394.36,-35.38 368.19,-23.65"/>
<polygon fill="midnightblue" stroke="midnightblue" points="369.34,-20.34 358.77,-19.67 366.61,-26.79 369.34,-20.34"/>
</g>
<!-- Node13 -->
<g id="node8" class="node">
<title>Node13</title>
<g id="a_node8"><a xlink:title=" ">
<polygon fill="white" stroke="#bfbfbf" points="106.5,-56.5 106.5,-75.5 249.5,-75.5 249.5,-56.5 106.5,-56.5"/>
<text text-anchor="middle" x="178" y="-63.5" font-family="Helvetica,sans-Serif" font-size="10.00">boost/asio/serial_port.hpp</text>
</a>
</g>
</g>
<!-- Node12&#45;&gt;Node13 -->
<g id="edge9" class="edge">
<title>Node12&#45;&gt;Node13</title>
<path fill="none" stroke="midnightblue" d="M278.14,-112.44C258.73,-103.64 228.27,-89.81 206.04,-79.72"/>
<polygon fill="midnightblue" stroke="midnightblue" points="207.32,-76.46 196.77,-75.52 204.43,-82.84 207.32,-76.46"/>
</g>
<!-- Node14&#45;&gt;Node2 -->
<g id="edge11" class="edge">
<title>Node14&#45;&gt;Node2</title>
<path fill="none" stroke="midnightblue" d="M137.77,-112.44C115.62,-103.52 80.68,-89.44 55.56,-79.32"/>
<polygon fill="midnightblue" stroke="midnightblue" points="56.72,-76.01 46.13,-75.52 54.1,-82.5 56.72,-76.01"/>
</g>
<!-- Node14&#45;&gt;Node4 -->
<g id="edge12" class="edge">
<title>Node14&#45;&gt;Node4</title>
<path fill="none" stroke="midnightblue" d="M186.73,-112.44C216.43,-103.28 263.72,-88.69 296.67,-78.52"/>
<polygon fill="midnightblue" stroke="midnightblue" points="297.88,-81.81 306.4,-75.52 295.81,-75.12 297.88,-81.81"/>
</g>
<!-- Node14&#45;&gt;Node8 -->
<g id="edge13" class="edge">
<title>Node14&#45;&gt;Node8</title>
<path fill="none" stroke="midnightblue" d="M139.9,-112.32C115.77,-100.19 79.4,-77.26 97,-56 119.74,-28.54 217.08,-17.7 279.72,-13.52"/>
<polygon fill="midnightblue" stroke="midnightblue" points="280.08,-17 289.84,-12.88 279.64,-10.02 280.08,-17"/>
</g>
<!-- Node14&#45;&gt;Node13 -->
<g id="edge14" class="edge">
<title>Node14&#45;&gt;Node13</title>
<path fill="none" stroke="midnightblue" d="M162.14,-112.08C164.68,-104.85 168.36,-94.41 171.53,-85.4"/>
<polygon fill="midnightblue" stroke="midnightblue" points="174.9,-86.35 174.92,-75.75 168.3,-84.02 174.9,-86.35"/>
</g>
</g>
</svg>
