<?xml version="1.0" encoding="UTF-8" standalone="no"?>
<!DOCTYPE svg PUBLIC "-//W3C//DTD SVG 1.1//EN"
 "http://www.w3.org/Graphics/SVG/1.1/DTD/svg11.dtd">
<!-- Generated by graphviz version 2.43.0 (0)
 -->
<!-- Title: src/scmdio/main.cpp Pages: 1 -->
<svg width="1903pt" height="269pt"
 viewBox="0.00 0.00 1903.13 269.00" xmlns="http://www.w3.org/2000/svg" xmlns:xlink="http://www.w3.org/1999/xlink">
<g id="graph0" class="graph" transform="scale(1 1) rotate(0) translate(4 265)">
<title>src/scmdio/main.cpp</title>
<!-- Node1 -->
<g id="Node000001" class="node">
<title>Node1</title>
<g id="a_Node000001"><a xlink:title=" ">
<polygon fill="#999999" stroke="#666666" points="895.13,-261 778.13,-261 778.13,-242 895.13,-242 895.13,-261"/>
<text text-anchor="middle" x="836.63" y="-249" font-family="Helvetica,sans-Serif" font-size="10.00">src/scmdio/main.cpp</text>
</a>
</g>
</g>
<!-- Node2 -->
<g id="Node000002" class="node">
<title>Node2</title>
<g id="a_Node000002"><a xlink:href="scmdio_2base_8hpp.html" target="_top" xlink:title=" ">
<polygon fill="white" stroke="#666666" points="771.13,-85 704.13,-85 704.13,-66 771.13,-66 771.13,-85"/>
<text text-anchor="middle" x="737.63" y="-73" font-family="Helvetica,sans-Serif" font-size="10.00">./base.hpp</text>
</a>
</g>
</g>
<!-- Node1&#45;&gt;Node2 -->
<g id="edge1_Node000001_Node000002" class="edge">
<title>Node1&#45;&gt;Node2</title>
<g id="a_edge1_Node000001_Node000002"><a xlink:title=" ">
<path fill="none" stroke="#63b8ff" d="M812.58,-241.86C796.26,-234.74 775.54,-223.02 763.63,-206 740.04,-172.3 736.74,-122.25 736.88,-95.3"/>
<polygon fill="#63b8ff" stroke="#63b8ff" points="740.38,-95.36 737.1,-85.29 733.38,-95.21 740.38,-95.36"/>
</a>
</g>
</g>
<!-- Node3 -->
<g id="Node000003" class="node">
<title>Node3</title>
<g id="a_Node000003"><a xlink:title=" ">
<polygon fill="#e0e0e0" stroke="#999999" points="214.63,-24.5 164.63,-24.5 164.63,-5.5 214.63,-5.5 214.63,-24.5"/>
<text text-anchor="middle" x="189.63" y="-12.5" font-family="Helvetica,sans-Serif" font-size="10.00">cstdint</text>
</a>
</g>
</g>
<!-- Node1&#45;&gt;Node3 -->
<g id="edge45_Node000001_Node000003" class="edge">
<title>Node1&#45;&gt;Node3</title>
<g id="a_edge45_Node000001_Node000003"><a xlink:title=" ">
<path fill="none" stroke="#63b8ff" d="M777.89,-250.53C608.81,-250.16 129.33,-245.57 71.63,-206 16.49,-168.19 -23.55,-119.43 16.63,-66 33.19,-43.98 108.96,-28.58 154.55,-21.12"/>
<polygon fill="#63b8ff" stroke="#63b8ff" points="155.29,-24.55 164.62,-19.52 154.19,-17.63 155.29,-24.55"/>
</a>
</g>
</g>
<!-- Node8 -->
<g id="Node000008" class="node">
<title>Node8</title>
<g id="a_Node000008"><a xlink:title=" ">
<polygon fill="#e0e0e0" stroke="#999999" points="1128.63,-24.5 1018.63,-24.5 1018.63,-5.5 1128.63,-5.5 1128.63,-24.5"/>
<text text-anchor="middle" x="1073.63" y="-12.5" font-family="Helvetica,sans-Serif" font-size="10.00">nlohmann/json.hpp</text>
</a>
</g>
</g>
<!-- Node1&#45;&gt;Node8 -->
<g id="edge52_Node000001_Node000008" class="edge">
<title>Node1&#45;&gt;Node8</title>
<g id="a_edge52_Node000001_Node000008"><a xlink:title=" ">
<path fill="none" stroke="#63b8ff" d="M885.98,-241.99C914.26,-235.43 949.43,-224.29 976.63,-206 1037.33,-165.19 1062.1,-74.26 1070.25,-34.83"/>
<polygon fill="#63b8ff" stroke="#63b8ff" points="1073.74,-35.25 1072.2,-24.76 1066.87,-33.92 1073.74,-35.25"/>
</a>
</g>
</g>
<!-- Node9 -->
<g id="Node000009" class="node">
<title>Node9</title>
<g id="a_Node000009"><a xlink:title=" ">
<polygon fill="#e0e0e0" stroke="#999999" points="406.13,-24.5 313.13,-24.5 313.13,-5.5 406.13,-5.5 406.13,-24.5"/>
<text text-anchor="middle" x="359.63" y="-12.5" font-family="Helvetica,sans-Serif" font-size="10.00">spdlog/spdlog.h</text>
</a>
</g>
</g>
<!-- Node1&#45;&gt;Node9 -->
<g id="edge53_Node000001_Node000009" class="edge">
<title>Node1&#45;&gt;Node9</title>
<g id="a_edge53_Node000001_Node000009"><a xlink:title=" ">
<path fill="none" stroke="#63b8ff" d="M778.05,-250.09C644.22,-248.53 325.01,-241.15 292.63,-206 245.45,-154.8 312.14,-68.36 344.15,-32.43"/>
<polygon fill="#63b8ff" stroke="#63b8ff" points="346.95,-34.55 351.1,-24.8 341.77,-29.83 346.95,-34.55"/>
</a>
</g>
</g>
<!-- Node10 -->
<g id="Node000010" class="node">
<title>Node10</title>
<g id="a_Node000010"><a xlink:href="cli_8hpp.html" target="_top" xlink:title=" ">
<polygon fill="white" stroke="#666666" points="218.13,-200.5 163.13,-200.5 163.13,-181.5 218.13,-181.5 218.13,-200.5"/>
<text text-anchor="middle" x="190.63" y="-188.5" font-family="Helvetica,sans-Serif" font-size="10.00">./cli.hpp</text>
</a>
</g>
</g>
<!-- Node1&#45;&gt;Node10 -->
<g id="edge9_Node000001_Node000010" class="edge">
<title>Node1&#45;&gt;Node10</title>
<g id="a_edge9_Node000001_Node000010"><a xlink:title=" ">
<path fill="none" stroke="#63b8ff" d="M778.03,-250.56C669.87,-249.71 431.95,-243.3 235.63,-206 231.95,-205.3 228.16,-204.41 224.4,-203.41"/>
<polygon fill="#63b8ff" stroke="#63b8ff" points="225.24,-200.01 214.66,-200.58 223.29,-206.73 225.24,-200.01"/>
</a>
</g>
</g>
<!-- Node13 -->
<g id="Node000013" class="node">
<title>Node13</title>
<g id="a_Node000013"><a xlink:title=" ">
<polygon fill="#e0e0e0" stroke="#999999" points="161.63,-85 25.63,-85 25.63,-66 161.63,-66 161.63,-85"/>
<text text-anchor="middle" x="93.63" y="-73" font-family="Helvetica,sans-Serif" font-size="10.00">emlabcpp/algorithm.hpp</text>
</a>
</g>
</g>
<!-- Node1&#45;&gt;Node13 -->
<g id="edge46_Node000001_Node000013" class="edge">
<title>Node1&#45;&gt;Node13</title>
<g id="a_edge46_Node000001_Node000013"><a xlink:title=" ">
<path fill="none" stroke="#63b8ff" d="M777.84,-249.26C617.19,-245.52 178.78,-232.95 119.63,-206 82.16,-188.93 70.24,-178.1 54.63,-140 47.48,-122.55 61.11,-104.39 74.18,-91.98"/>
<polygon fill="#63b8ff" stroke="#63b8ff" points="76.85,-94.29 82.05,-85.05 72.23,-89.03 76.85,-94.29"/>
</a>
</g>
</g>
<!-- Node18 -->
<g id="Node000018" class="node">
<title>Node18</title>
<g id="a_Node000018"><a xlink:href="port_8hpp.html" target="_top" xlink:title=" ">
<polygon fill="#fff0f0" stroke="red" points="509.13,-140 446.13,-140 446.13,-121 509.13,-121 509.13,-140"/>
<text text-anchor="middle" x="477.63" y="-128" font-family="Helvetica,sans-Serif" font-size="10.00">./port.hpp</text>
</a>
</g>
</g>
<!-- Node1&#45;&gt;Node18 -->
<g id="edge29_Node000001_Node000018" class="edge">
<title>Node1&#45;&gt;Node18</title>
<g id="a_edge29_Node000001_Node000018"><a xlink:title=" ">
<path fill="none" stroke="#63b8ff" d="M777.98,-250.51C691.9,-249.27 537.15,-241.95 496.63,-206 481.13,-192.25 477.44,-167.8 476.94,-150.67"/>
<polygon fill="#63b8ff" stroke="#63b8ff" points="480.44,-150.22 476.99,-140.2 473.44,-150.18 480.44,-150.22"/>
</a>
</g>
</g>
<!-- Node21 -->
<g id="Node000021" class="node">
<title>Node21</title>
<g id="a_Node000021"><a xlink:title=" ">
<polygon fill="#e0e0e0" stroke="#999999" points="417.13,-85 370.13,-85 370.13,-66 417.13,-66 417.13,-85"/>
<text text-anchor="middle" x="393.63" y="-73" font-family="Helvetica,sans-Serif" font-size="10.00">vector</text>
</a>
</g>
</g>
<!-- Node1&#45;&gt;Node21 -->
<g id="edge55_Node000001_Node000021" class="edge">
<title>Node1&#45;&gt;Node21</title>
<g id="a_edge55_Node000001_Node000021"><a xlink:title=" ">
<path fill="none" stroke="#63b8ff" d="M778.1,-249.95C646.85,-248.11 338.03,-240.15 306.63,-206 271.98,-168.32 335.9,-115.7 371.74,-90.73"/>
<polygon fill="#63b8ff" stroke="#63b8ff" points="373.86,-93.52 380.17,-85 369.93,-87.73 373.86,-93.52"/>
</a>
</g>
</g>
<!-- Node23 -->
<g id="Node000023" class="node">
<title>Node23</title>
<g id="a_Node000023"><a xlink:title=" ">
<polygon fill="#e0e0e0" stroke="#999999" points="135.13,-140 64.13,-140 64.13,-121 135.13,-121 135.13,-140"/>
<text text-anchor="middle" x="99.63" y="-128" font-family="Helvetica,sans-Serif" font-size="10.00">CLI/CLI.hpp</text>
</a>
</g>
</g>
<!-- Node1&#45;&gt;Node23 -->
<g id="edge41_Node000001_Node000023" class="edge">
<title>Node1&#45;&gt;Node23</title>
<g id="a_edge41_Node000001_Node000023"><a xlink:title=" ">
<path fill="none" stroke="#63b8ff" d="M777.9,-249.52C622.3,-246.51 207.56,-235.77 153.63,-206 131.18,-193.61 115.65,-167.47 107.19,-149.7"/>
<polygon fill="#63b8ff" stroke="#63b8ff" points="110.3,-148.07 103.03,-140.36 103.91,-150.92 110.3,-148.07"/>
</a>
</g>
</g>
<!-- Node24 -->
<g id="Node000024" class="node">
<title>Node24</title>
<g id="a_Node000024"><a xlink:href="config__cmds_8hpp.html" target="_top" xlink:title=" ">
<polygon fill="white" stroke="#666666" points="715.63,-200.5 611.63,-200.5 611.63,-181.5 715.63,-181.5 715.63,-200.5"/>
<text text-anchor="middle" x="663.63" y="-188.5" font-family="Helvetica,sans-Serif" font-size="10.00">./config_cmds.hpp</text>
</a>
</g>
</g>
<!-- Node1&#45;&gt;Node24 -->
<g id="edge17_Node000001_Node000024" class="edge">
<title>Node1&#45;&gt;Node24</title>
<g id="a_edge17_Node000001_Node000024"><a xlink:title=" ">
<path fill="none" stroke="#63b8ff" d="M811.47,-241.99C781.75,-231.94 732.11,-215.16 698.64,-203.84"/>
<polygon fill="#63b8ff" stroke="#63b8ff" points="699.41,-200.4 688.81,-200.52 697.16,-207.04 699.41,-200.4"/>
</a>
</g>
</g>
<!-- Node26 -->
<g id="Node000026" class="node">
<title>Node26</title>
<g id="a_Node000026"><a xlink:href="dfu__flash_8hpp.html" target="_top" xlink:title=" ">
<polygon fill="white" stroke="#666666" points="593.63,-200.5 505.63,-200.5 505.63,-181.5 593.63,-181.5 593.63,-200.5"/>
<text text-anchor="middle" x="549.63" y="-188.5" font-family="Helvetica,sans-Serif" font-size="10.00">./dfu_flash.hpp</text>
</a>
</g>
</g>
<!-- Node1&#45;&gt;Node26 -->
<g id="edge21_Node000001_Node000026" class="edge">
<title>Node1&#45;&gt;Node26</title>
<g id="a_edge21_Node000001_Node000026"><a xlink:title=" ">
<path fill="none" stroke="#63b8ff" d="M786.2,-241.97C738.67,-233.68 665.54,-220.27 602.63,-206 598.55,-205.08 594.32,-204.06 590.1,-203"/>
<polygon fill="#63b8ff" stroke="#63b8ff" points="590.92,-199.6 580.36,-200.51 589.18,-206.38 590.92,-199.6"/>
</a>
</g>
</g>
<!-- Node27 -->
<g id="Node000027" class="node">
<title>Node27</title>
<g id="a_Node000027"><a xlink:href="flash_8hpp.html" target="_top" xlink:title=" ">
<polygon fill="white" stroke="#666666" points="839.13,-200.5 772.13,-200.5 772.13,-181.5 839.13,-181.5 839.13,-200.5"/>
<text text-anchor="middle" x="805.63" y="-188.5" font-family="Helvetica,sans-Serif" font-size="10.00">./flash.hpp</text>
</a>
</g>
</g>
<!-- Node1&#45;&gt;Node27 -->
<g id="edge23_Node000001_Node000027" class="edge">
<title>Node1&#45;&gt;Node27</title>
<g id="a_edge23_Node000001_Node000027"><a xlink:title=" ">
<path fill="none" stroke="#63b8ff" d="M832.05,-241.87C827.56,-233.4 820.59,-220.24 814.93,-209.57"/>
<polygon fill="#63b8ff" stroke="#63b8ff" points="817.99,-207.86 810.22,-200.67 811.81,-211.14 817.99,-207.86"/>
</a>
</g>
</g>
<!-- Node28 -->
<g id="Node000028" class="node">
<title>Node28</title>
<g id="a_Node000028"><a xlink:title=" ">
<polygon fill="#e0e0e0" stroke="#999999" points="871.63,-140 803.63,-140 803.63,-121 871.63,-121 871.63,-140"/>
<text text-anchor="middle" x="837.63" y="-128" font-family="Helvetica,sans-Serif" font-size="10.00">filesystem</text>
</a>
</g>
</g>
<!-- Node1&#45;&gt;Node28 -->
<g id="edge48_Node000001_Node000028" class="edge">
<title>Node1&#45;&gt;Node28</title>
<g id="a_edge48_Node000001_Node000028"><a xlink:title=" ">
<path fill="none" stroke="#63b8ff" d="M839.71,-241.77C842.68,-232.9 846.94,-218.69 848.63,-206 850.38,-192.78 850.24,-189.24 848.63,-176 847.57,-167.31 845.39,-157.87 843.25,-149.93"/>
<polygon fill="#63b8ff" stroke="#63b8ff" points="846.59,-148.89 840.46,-140.25 839.86,-150.83 846.59,-148.89"/>
</a>
</g>
</g>
<!-- Node29 -->
<g id="Node000029" class="node">
<title>Node29</title>
<g id="a_Node000029"><a xlink:href="pid__autotune__cmd_8hpp.html" target="_top" xlink:title=" ">
<polygon fill="white" stroke="#666666" points="449.63,-200.5 315.63,-200.5 315.63,-181.5 449.63,-181.5 449.63,-200.5"/>
<text text-anchor="middle" x="382.63" y="-188.5" font-family="Helvetica,sans-Serif" font-size="10.00">./pid_autotune_cmd.hpp</text>
</a>
</g>
</g>
<!-- Node1&#45;&gt;Node29 -->
<g id="edge27_Node000001_Node000029" class="edge">
<title>Node1&#45;&gt;Node29</title>
<g id="a_edge27_Node000001_Node000029"><a xlink:title=" ">
<path fill="none" stroke="#63b8ff" d="M778.03,-244.47C704.47,-236.68 574.46,-222.18 463.63,-206 455.88,-204.87 447.74,-203.58 439.72,-202.25"/>
<polygon fill="#63b8ff" stroke="#63b8ff" points="440.12,-198.77 429.67,-200.56 438.95,-205.67 440.12,-198.77"/>
</a>
</g>
</g>
<!-- Node30 -->
<g id="Node000030" class="node">
<title>Node30</title>
<g id="a_Node000030"><a xlink:href="preset_8hpp.html" target="_top" xlink:title=" ">
<polygon fill="white" stroke="#666666" points="1097.63,-200.5 1023.63,-200.5 1023.63,-181.5 1097.63,-181.5 1097.63,-200.5"/>
<text text-anchor="middle" x="1060.63" y="-188.5" font-family="Helvetica,sans-Serif" font-size="10.00">./preset.hpp</text>
</a>
</g>
</g>
<!-- Node1&#45;&gt;Node30 -->
<g id="edge30_Node000001_Node000030" class="edge">
<title>Node1&#45;&gt;Node30</title>
<g id="a_edge30_Node000001_Node000030"><a xlink:title=" ">
<path fill="none" stroke="#63b8ff" d="M870.48,-241.96C905.39,-233.12 961.37,-218.83 1009.63,-206 1013.01,-205.1 1016.52,-204.16 1020.04,-203.2"/>
<polygon fill="#63b8ff" stroke="#63b8ff" points="1021.17,-206.52 1029.9,-200.52 1019.33,-199.77 1021.17,-206.52"/>
</a>
</g>
</g>
<!-- Node31 -->
<g id="Node000031" class="node">
<title>Node31</title>
<g id="a_Node000031"><a xlink:title=" ">
<polygon fill="#e0e0e0" stroke="#999999" points="1195.13,-140 1140.13,-140 1140.13,-121 1195.13,-121 1195.13,-140"/>
<text text-anchor="middle" x="1167.63" y="-128" font-family="Helvetica,sans-Serif" font-size="10.00">fstream</text>
</a>
</g>
</g>
<!-- Node1&#45;&gt;Node31 -->
<g id="edge49_Node000001_Node000031" class="edge">
<title>Node1&#45;&gt;Node31</title>
<g id="a_edge49_Node000001_Node000031"><a xlink:title=" ">
<path fill="none" stroke="#63b8ff" d="M895.13,-245.71C963.44,-239.28 1071.56,-226.26 1106.63,-206 1129.86,-192.58 1147.93,-166.7 1158.19,-149.26"/>
<polygon fill="#63b8ff" stroke="#63b8ff" points="1161.47,-150.56 1163.3,-140.13 1155.37,-147.14 1161.47,-150.56"/>
</a>
</g>
</g>
<!-- Node32 -->
<g id="Node000032" class="node">
<title>Node32</title>
<g id="a_Node000032"><a xlink:href="serial_8hpp.html" target="_top" xlink:title=" ">
<polygon fill="white" stroke="#666666" points="967.13,-200.5 896.13,-200.5 896.13,-181.5 967.13,-181.5 967.13,-200.5"/>
<text text-anchor="middle" x="931.63" y="-188.5" font-family="Helvetica,sans-Serif" font-size="10.00">./serial.hpp</text>
</a>
</g>
</g>
<!-- Node1&#45;&gt;Node32 -->
<g id="edge34_Node000001_Node000032" class="edge">
<title>Node1&#45;&gt;Node32</title>
<g id="a_edge34_Node000001_Node000032"><a xlink:title=" ">
<path fill="none" stroke="#63b8ff" d="M850.64,-241.87C865.94,-232.45 890.66,-217.23 908.77,-206.08"/>
<polygon fill="#63b8ff" stroke="#63b8ff" points="910.87,-208.89 917.55,-200.67 907.2,-202.93 910.87,-208.89"/>
</a>
</g>
</g>
<!-- Node50 -->
<g id="Node000050" class="node">
<title>Node50</title>
<g id="a_Node000050"><a xlink:title=" ">
<polygon fill="#e0e0e0" stroke="#999999" points="1293.13,-200.5 1154.13,-200.5 1154.13,-181.5 1293.13,-181.5 1293.13,-200.5"/>
<text text-anchor="middle" x="1223.63" y="-188.5" font-family="Helvetica,sans-Serif" font-size="10.00">boost/asio/co_spawn.hpp</text>
</a>
</g>
</g>
<!-- Node1&#45;&gt;Node50 -->
<g id="edge42_Node000001_Node000050" class="edge">
<title>Node1&#45;&gt;Node50</title>
<g id="a_edge42_Node000001_Node000050"><a xlink:title=" ">
<path fill="none" stroke="#63b8ff" d="M895.33,-242.22C956.41,-233.53 1054.79,-219.3 1139.63,-206 1147.33,-204.79 1155.42,-203.49 1163.42,-202.18"/>
<polygon fill="#63b8ff" stroke="#63b8ff" points="1164.16,-205.6 1173.46,-200.52 1163.02,-198.7 1164.16,-205.6"/>
</a>
</g>
</g>
<!-- Node51 -->
<g id="Node000051" class="node">
<title>Node51</title>
<g id="a_Node000051"><a xlink:title=" ">
<polygon fill="#e0e0e0" stroke="#999999" points="1453.63,-200.5 1311.63,-200.5 1311.63,-181.5 1453.63,-181.5 1453.63,-200.5"/>
<text text-anchor="middle" x="1382.63" y="-188.5" font-family="Helvetica,sans-Serif" font-size="10.00">boost/asio/io_context.hpp</text>
</a>
</g>
</g>
<!-- Node1&#45;&gt;Node51 -->
<g id="edge43_Node000001_Node000051" class="edge">
<title>Node1&#45;&gt;Node51</title>
<g id="a_edge43_Node000001_Node000051"><a xlink:title=" ">
<path fill="none" stroke="#63b8ff" d="M895.28,-246.38C983.78,-239.82 1156.65,-225.71 1302.63,-206 1310.67,-204.91 1319.15,-203.61 1327.45,-202.24"/>
<polygon fill="#63b8ff" stroke="#63b8ff" points="1328.18,-205.66 1337.45,-200.54 1327.01,-198.76 1328.18,-205.66"/>
</a>
</g>
</g>
<!-- Node52 -->
<g id="Node000052" class="node">
<title>Node52</title>
<g id="a_Node000052"><a xlink:title=" ">
<polygon fill="#e0e0e0" stroke="#999999" points="1593.63,-206 1471.63,-206 1471.63,-176 1593.63,-176 1593.63,-206"/>
<text text-anchor="start" x="1479.63" y="-194" font-family="Helvetica,sans-Serif" font-size="10.00">boost/asio/serial_port</text>
<text text-anchor="middle" x="1532.63" y="-183" font-family="Helvetica,sans-Serif" font-size="10.00">_base.hpp</text>
</a>
</g>
</g>
<!-- Node1&#45;&gt;Node52 -->
<g id="edge44_Node000001_Node000052" class="edge">
<title>Node1&#45;&gt;Node52</title>
<g id="a_edge44_Node000001_Node000052"><a xlink:title=" ">
<path fill="none" stroke="#63b8ff" d="M895.13,-248.81C1004.46,-245.11 1247.3,-234.37 1461.44,-206.04"/>
<polygon fill="#63b8ff" stroke="#63b8ff" points="1462.17,-209.47 1471.62,-204.67 1461.24,-202.53 1462.17,-209.47"/>
</a>
</g>
</g>
<!-- Node53 -->
<g id="Node000053" class="node">
<title>Node53</title>
<g id="a_Node000053"><a xlink:title=" ">
<polygon fill="#e0e0e0" stroke="#999999" points="1677.13,-200.5 1612.13,-200.5 1612.13,-181.5 1677.13,-181.5 1677.13,-200.5"/>
<text text-anchor="middle" x="1644.63" y="-188.5" font-family="Helvetica,sans-Serif" font-size="10.00">exception</text>
</a>
</g>
</g>
<!-- Node1&#45;&gt;Node53 -->
<g id="edge47_Node000001_Node000053" class="edge">
<title>Node1&#45;&gt;Node53</title>
<g id="a_edge47_Node000001_Node000053"><a xlink:title=" ">
<path fill="none" stroke="#63b8ff" d="M895.19,-249.09C1049.97,-245.06 1467.23,-232.02 1602.63,-206 1606.05,-205.34 1609.58,-204.48 1613.07,-203.5"/>
<polygon fill="#63b8ff" stroke="#63b8ff" points="1614.17,-206.82 1622.68,-200.52 1612.1,-200.14 1614.17,-206.82"/>
</a>
</g>
</g>
<!-- Node54 -->
<g id="Node000054" class="node">
<title>Node54</title>
<g id="a_Node000054"><a xlink:title=" ">
<polygon fill="#e0e0e0" stroke="#999999" points="1755.63,-200.5 1695.63,-200.5 1695.63,-181.5 1755.63,-181.5 1755.63,-200.5"/>
<text text-anchor="middle" x="1725.63" y="-188.5" font-family="Helvetica,sans-Serif" font-size="10.00">iostream</text>
</a>
</g>
</g>
<!-- Node1&#45;&gt;Node54 -->
<g id="edge50_Node000001_Node000054" class="edge">
<title>Node1&#45;&gt;Node54</title>
<g id="a_edge50_Node000001_Node000054"><a xlink:title=" ">
<path fill="none" stroke="#63b8ff" d="M895.25,-249.65C1061.68,-246.9 1534.78,-236.54 1686.63,-206 1689.63,-205.4 1692.72,-204.6 1695.77,-203.7"/>
<polygon fill="#63b8ff" stroke="#63b8ff" points="1696.9,-207.02 1705.3,-200.56 1694.71,-200.37 1696.9,-207.02"/>
</a>
</g>
</g>
<!-- Node55 -->
<g id="Node000055" class="node">
<title>Node55</title>
<g id="a_Node000055"><a xlink:title=" ">
<polygon fill="#e0e0e0" stroke="#999999" points="1831.63,-200.5 1773.63,-200.5 1773.63,-181.5 1831.63,-181.5 1831.63,-200.5"/>
<text text-anchor="middle" x="1802.63" y="-188.5" font-family="Helvetica,sans-Serif" font-size="10.00">memory</text>
</a>
</g>
</g>
<!-- Node1&#45;&gt;Node55 -->
<g id="edge51_Node000001_Node000055" class="edge">
<title>Node1&#45;&gt;Node55</title>
<g id="a_edge51_Node000001_Node000055"><a xlink:title=" ">
<path fill="none" stroke="#63b8ff" d="M895.22,-250.02C1071.86,-248.2 1597.27,-240 1764.63,-206 1767.47,-205.42 1770.38,-204.67 1773.27,-203.81"/>
<polygon fill="#63b8ff" stroke="#63b8ff" points="1774.48,-207.09 1782.84,-200.58 1772.25,-200.46 1774.48,-207.09"/>
</a>
</g>
</g>
<!-- Node40 -->
<g id="Node000040" class="node">
<title>Node40</title>
<g id="a_Node000040"><a xlink:title=" ">
<polygon fill="#e0e0e0" stroke="#999999" points="1895.13,-200.5 1850.13,-200.5 1850.13,-181.5 1895.13,-181.5 1895.13,-200.5"/>
<text text-anchor="middle" x="1872.63" y="-188.5" font-family="Helvetica,sans-Serif" font-size="10.00">utility</text>
</a>
</g>
</g>
<!-- Node1&#45;&gt;Node40 -->
<g id="edge54_Node000001_Node000040" class="edge">
<title>Node1&#45;&gt;Node40</title>
<g id="a_edge54_Node000001_Node000040"><a xlink:title=" ">
<path fill="none" stroke="#63b8ff" d="M895.45,-250.71C1082.08,-250.95 1659.21,-248.16 1840.63,-206 1842.57,-205.55 1844.55,-204.98 1846.52,-204.33"/>
<polygon fill="#63b8ff" stroke="#63b8ff" points="1848.03,-207.5 1856.09,-200.61 1845.5,-200.97 1848.03,-207.5"/>
</a>
</g>
</g>
<!-- Node2&#45;&gt;Node3 -->
<g id="edge2_Node000002_Node000003" class="edge">
<title>Node2&#45;&gt;Node3</title>
<g id="a_edge2_Node000002_Node000003"><a xlink:title=" ">
<path fill="none" stroke="#63b8ff" d="M703.92,-71.25C631.03,-64.18 453.32,-46.69 304.63,-30 277.88,-27 247.68,-23.31 224.94,-20.47"/>
<polygon fill="#63b8ff" stroke="#63b8ff" points="225.09,-16.96 214.74,-19.19 224.22,-23.91 225.09,-16.96"/>
</a>
</g>
</g>
<!-- Node4 -->
<g id="Node000004" class="node">
<title>Node4</title>
<g id="a_Node000004"><a xlink:title=" ">
<polygon fill="#e0e0e0" stroke="#999999" points="696.13,-24.5 609.13,-24.5 609.13,-5.5 696.13,-5.5 696.13,-24.5"/>
<text text-anchor="middle" x="652.63" y="-12.5" font-family="Helvetica,sans-Serif" font-size="10.00">avakar/atom.h</text>
</a>
</g>
</g>
<!-- Node2&#45;&gt;Node4 -->
<g id="edge3_Node000002_Node000004" class="edge">
<title>Node2&#45;&gt;Node4</title>
<g id="a_edge3_Node000002_Node000004"><a xlink:title=" ">
<path fill="none" stroke="#63b8ff" d="M725.08,-65.87C711.52,-56.54 689.69,-41.51 673.53,-30.38"/>
<polygon fill="#63b8ff" stroke="#63b8ff" points="675.44,-27.45 665.22,-24.67 671.47,-33.22 675.44,-27.45"/>
</a>
</g>
</g>
<!-- Node5 -->
<g id="Node000005" class="node">
<title>Node5</title>
<g id="a_Node000005"><a xlink:title=" ">
<polygon fill="#e0e0e0" stroke="#999999" points="585.63,-24.5 497.63,-24.5 497.63,-5.5 585.63,-5.5 585.63,-24.5"/>
<text text-anchor="middle" x="541.63" y="-12.5" font-family="Helvetica,sans-Serif" font-size="10.00">boost/asio.hpp</text>
</a>
</g>
</g>
<!-- Node2&#45;&gt;Node5 -->
<g id="edge4_Node000002_Node000005" class="edge">
<title>Node2&#45;&gt;Node5</title>
<g id="a_edge4_Node000002_Node000005"><a xlink:title=" ">
<path fill="none" stroke="#63b8ff" d="M709.13,-65.99C675.01,-55.81 617.76,-38.72 579.83,-27.4"/>
<polygon fill="#63b8ff" stroke="#63b8ff" points="580.74,-24.02 570.16,-24.52 578.74,-30.73 580.74,-24.02"/>
</a>
</g>
</g>
<!-- Node6 -->
<g id="Node000006" class="node">
<title>Node6</title>
<g id="a_Node000006"><a xlink:title=" ">
<polygon fill="#e0e0e0" stroke="#999999" points="992.13,-30 859.13,-30 859.13,0 992.13,0 992.13,-30"/>
<text text-anchor="start" x="867.13" y="-18" font-family="Helvetica,sans-Serif" font-size="10.00">emlabcpp/experimental</text>
<text text-anchor="middle" x="925.63" y="-7" font-family="Helvetica,sans-Serif" font-size="10.00">/string_buffer.hpp</text>
</a>
</g>
</g>
<!-- Node2&#45;&gt;Node6 -->
<g id="edge5_Node000002_Node000006" class="edge">
<title>Node2&#45;&gt;Node6</title>
<g id="a_edge5_Node000002_Node000006"><a xlink:title=" ">
<path fill="none" stroke="#63b8ff" d="M764.96,-65.99C792.61,-57.39 836.11,-43.86 870.87,-33.04"/>
<polygon fill="#63b8ff" stroke="#63b8ff" points="871.92,-36.38 880.43,-30.06 869.84,-29.69 871.92,-36.38"/>
</a>
</g>
</g>
<!-- Node7 -->
<g id="Node000007" class="node">
<title>Node7</title>
<g id="a_Node000007"><a xlink:title=" ">
<polygon fill="#e0e0e0" stroke="#999999" points="825.13,-24.5 714.13,-24.5 714.13,-5.5 825.13,-5.5 825.13,-24.5"/>
<text text-anchor="middle" x="769.63" y="-12.5" font-family="Helvetica,sans-Serif" font-size="10.00">emlabcpp/view.hpp</text>
</a>
</g>
</g>
<!-- Node2&#45;&gt;Node7 -->
<g id="edge6_Node000002_Node000007" class="edge">
<title>Node2&#45;&gt;Node7</title>
<g id="a_edge6_Node000002_Node000007"><a xlink:title=" ">
<path fill="none" stroke="#63b8ff" d="M742.35,-65.87C746.98,-57.4 754.18,-44.24 760.02,-33.57"/>
<polygon fill="#63b8ff" stroke="#63b8ff" points="763.16,-35.12 764.88,-24.67 757.01,-31.76 763.16,-35.12"/>
</a>
</g>
</g>
<!-- Node2&#45;&gt;Node8 -->
<g id="edge7_Node000002_Node000008" class="edge">
<title>Node2&#45;&gt;Node8</title>
<g id="a_edge7_Node000002_Node000008"><a xlink:title=" ">
<path fill="none" stroke="#63b8ff" d="M771.43,-69.08C821.69,-60.96 919.08,-44.98 1001.63,-30 1007.79,-28.88 1014.25,-27.67 1020.66,-26.46"/>
<polygon fill="#63b8ff" stroke="#63b8ff" points="1021.48,-29.86 1030.64,-24.54 1020.16,-22.99 1021.48,-29.86"/>
</a>
</g>
</g>
<!-- Node2&#45;&gt;Node9 -->
<g id="edge8_Node000002_Node000009" class="edge">
<title>Node2&#45;&gt;Node9</title>
<g id="a_edge8_Node000002_Node000009"><a xlink:title=" ">
<path fill="none" stroke="#63b8ff" d="M704.08,-69.31C639.32,-59.29 496.44,-37.17 416.54,-24.81"/>
<polygon fill="#63b8ff" stroke="#63b8ff" points="416.59,-21.27 406.17,-23.2 415.52,-28.19 416.59,-21.27"/>
</a>
</g>
</g>
<!-- Node11 -->
<g id="Node000011" class="node">
<title>Node11</title>
<g id="a_Node000011"><a xlink:href="base_8hpp.html" target="_top" xlink:title=" ">
<polygon fill="#fff0f0" stroke="red" points="223.63,-140 153.63,-140 153.63,-121 223.63,-121 223.63,-140"/>
<text text-anchor="middle" x="188.63" y="-128" font-family="Helvetica,sans-Serif" font-size="10.00">../base.hpp</text>
</a>
</g>
</g>
<!-- Node10&#45;&gt;Node11 -->
<g id="edge10_Node000010_Node000011" class="edge">
<title>Node10&#45;&gt;Node11</title>
<g id="a_edge10_Node000010_Node000011"><a xlink:title=" ">
<path fill="none" stroke="#63b8ff" d="M190.33,-181.37C190.05,-173.25 189.63,-160.81 189.27,-150.39"/>
<polygon fill="#63b8ff" stroke="#63b8ff" points="192.76,-150.04 188.92,-140.17 185.77,-150.28 192.76,-150.04"/>
</a>
</g>
</g>
<!-- Node10&#45;&gt;Node18 -->
<g id="edge13_Node000010_Node000018" class="edge">
<title>Node10&#45;&gt;Node18</title>
<g id="a_edge13_Node000010_Node000018"><a xlink:title=" ">
<path fill="none" stroke="#63b8ff" d="M218.14,-184.39C268.68,-174.09 376.52,-152.11 436.03,-139.98"/>
<polygon fill="#63b8ff" stroke="#63b8ff" points="436.76,-143.4 445.86,-137.98 435.36,-136.54 436.76,-143.4"/>
</a>
</g>
</g>
<!-- Node10&#45;&gt;Node23 -->
<g id="edge16_Node000010_Node000023" class="edge">
<title>Node10&#45;&gt;Node23</title>
<g id="a_edge16_Node000010_Node000023"><a xlink:title=" ">
<path fill="none" stroke="#63b8ff" d="M177.2,-181.37C162.55,-171.95 138.87,-156.73 121.52,-145.58"/>
<polygon fill="#63b8ff" stroke="#63b8ff" points="123.41,-142.63 113.11,-140.17 119.63,-148.52 123.41,-142.63"/>
</a>
</g>
</g>
<!-- Node11&#45;&gt;Node3 -->
<g id="edge11_Node000011_Node000003" class="edge">
<title>Node11&#45;&gt;Node3</title>
<g id="a_edge11_Node000011_Node000003"><a xlink:title=" ">
<path fill="none" stroke="#63b8ff" d="M188.7,-120.97C188.86,-102.73 189.24,-59.57 189.46,-34.64"/>
<polygon fill="#63b8ff" stroke="#63b8ff" points="192.96,-34.66 189.55,-24.63 185.96,-34.6 192.96,-34.66"/>
</a>
</g>
</g>
<!-- Node11&#45;&gt;Node13 -->
<g id="edge12_Node000011_Node000013" class="edge">
<title>Node11&#45;&gt;Node13</title>
<g id="a_edge12_Node000011_Node000013"><a xlink:title=" ">
<path fill="none" stroke="#63b8ff" d="M173.36,-120.98C158.49,-112.69 135.64,-99.94 118.21,-90.22"/>
<polygon fill="#63b8ff" stroke="#63b8ff" points="119.6,-86.99 109.17,-85.17 116.19,-93.1 119.6,-86.99"/>
</a>
</g>
</g>
<!-- Node18&#45;&gt;Node2 -->
<g id="edge14_Node000018_Node000002" class="edge">
<title>Node18&#45;&gt;Node2</title>
<g id="a_edge14_Node000018_Node000002"><a xlink:title=" ">
<path fill="none" stroke="#63b8ff" d="M509.25,-123.05C555.43,-113.64 641.5,-96.09 693.78,-85.44"/>
<polygon fill="#63b8ff" stroke="#63b8ff" points="694.66,-88.83 703.76,-83.4 693.26,-81.97 694.66,-88.83"/>
</a>
</g>
</g>
<!-- Node18&#45;&gt;Node21 -->
<g id="edge15_Node000018_Node000021" class="edge">
<title>Node18&#45;&gt;Node21</title>
<g id="a_edge15_Node000018_Node000021"><a xlink:title=" ">
<path fill="none" stroke="#63b8ff" d="M464.13,-120.98C451.23,-112.84 431.52,-100.41 416.22,-90.76"/>
<polygon fill="#63b8ff" stroke="#63b8ff" points="417.69,-87.55 407.37,-85.17 413.96,-93.47 417.69,-87.55"/>
</a>
</g>
</g>
<!-- Node24&#45;&gt;Node5 -->
<g id="edge19_Node000024_Node000005" class="edge">
<title>Node24&#45;&gt;Node5</title>
<g id="a_edge19_Node000024_Node000005"><a xlink:title=" ">
<path fill="none" stroke="#63b8ff" d="M624.23,-181.46C601.12,-174.33 573.43,-161.72 557.63,-140 534.81,-108.66 536.04,-60.71 538.87,-34.57"/>
<polygon fill="#63b8ff" stroke="#63b8ff" points="542.36,-34.88 540.16,-24.52 535.42,-33.99 542.36,-34.88"/>
</a>
</g>
</g>
<!-- Node24&#45;&gt;Node18 -->
<g id="edge18_Node000024_Node000018" class="edge">
<title>Node24&#45;&gt;Node18</title>
<g id="a_edge18_Node000024_Node000018"><a xlink:title=" ">
<path fill="none" stroke="#63b8ff" d="M636.58,-181.49C604.35,-171.36 550.33,-154.37 514.34,-143.05"/>
<polygon fill="#63b8ff" stroke="#63b8ff" points="515.29,-139.68 504.7,-140.02 513.19,-146.36 515.29,-139.68"/>
</a>
</g>
</g>
<!-- Node25 -->
<g id="Node000025" class="node">
<title>Node25</title>
<g id="a_Node000025"><a xlink:title=" ">
<polygon fill="#e0e0e0" stroke="#999999" points="709.13,-140 566.13,-140 566.13,-121 709.13,-121 709.13,-140"/>
<text text-anchor="middle" x="637.63" y="-128" font-family="Helvetica,sans-Serif" font-size="10.00">boost/asio/serial_port.hpp</text>
</a>
</g>
</g>
<!-- Node24&#45;&gt;Node25 -->
<g id="edge20_Node000024_Node000025" class="edge">
<title>Node24&#45;&gt;Node25</title>
<g id="a_edge20_Node000024_Node000025"><a xlink:title=" ">
<path fill="none" stroke="#63b8ff" d="M659.79,-181.37C656.06,-172.99 650.3,-160.01 645.58,-149.39"/>
<polygon fill="#63b8ff" stroke="#63b8ff" points="648.74,-147.88 641.48,-140.17 642.34,-150.73 648.74,-147.88"/>
</a>
</g>
</g>
<!-- Node26&#45;&gt;Node18 -->
<g id="edge22_Node000026_Node000018" class="edge">
<title>Node26&#45;&gt;Node18</title>
<g id="a_edge22_Node000026_Node000018"><a xlink:title=" ">
<path fill="none" stroke="#63b8ff" d="M539,-181.37C527.73,-172.21 509.7,-157.56 496.09,-146.51"/>
<polygon fill="#63b8ff" stroke="#63b8ff" points="498.26,-143.76 488.29,-140.17 493.85,-149.19 498.26,-143.76"/>
</a>
</g>
</g>
<!-- Node27&#45;&gt;Node2 -->
<g id="edge24_Node000027_Node000002" class="edge">
<title>Node27&#45;&gt;Node2</title>
<g id="a_edge24_Node000027_Node000002"><a xlink:title=" ">
<path fill="none" stroke="#63b8ff" d="M800.51,-181.47C789.39,-162.9 762.79,-118.51 748,-93.82"/>
<polygon fill="#63b8ff" stroke="#63b8ff" points="750.94,-91.91 742.8,-85.13 744.93,-95.51 750.94,-91.91"/>
</a>
</g>
</g>
<!-- Node27&#45;&gt;Node18 -->
<g id="edge25_Node000027_Node000018" class="edge">
<title>Node27&#45;&gt;Node18</title>
<g id="a_edge25_Node000027_Node000018"><a xlink:title=" ">
<path fill="none" stroke="#63b8ff" d="M772.07,-184.01C711.78,-173.26 585.31,-150.71 519.47,-138.96"/>
<polygon fill="#63b8ff" stroke="#63b8ff" points="519.9,-135.49 509.44,-137.17 518.67,-142.38 519.9,-135.49"/>
</a>
</g>
</g>
<!-- Node27&#45;&gt;Node28 -->
<g id="edge26_Node000027_Node000028" class="edge">
<title>Node27&#45;&gt;Node28</title>
<g id="a_edge26_Node000027_Node000028"><a xlink:title=" ">
<path fill="none" stroke="#63b8ff" d="M810.35,-181.37C814.98,-172.9 822.18,-159.74 828.02,-149.07"/>
<polygon fill="#63b8ff" stroke="#63b8ff" points="831.16,-150.62 832.88,-140.17 825.01,-147.26 831.16,-150.62"/>
</a>
</g>
</g>
<!-- Node29&#45;&gt;Node18 -->
<g id="edge28_Node000029_Node000018" class="edge">
<title>Node29&#45;&gt;Node18</title>
<g id="a_edge28_Node000029_Node000018"><a xlink:title=" ">
<path fill="none" stroke="#63b8ff" d="M396.64,-181.37C411.94,-171.95 436.66,-156.73 454.77,-145.58"/>
<polygon fill="#63b8ff" stroke="#63b8ff" points="456.87,-148.39 463.55,-140.17 453.2,-142.43 456.87,-148.39"/>
</a>
</g>
</g>
<!-- Node30&#45;&gt;Node8 -->
<g id="edge33_Node000030_Node000008" class="edge">
<title>Node30&#45;&gt;Node8</title>
<g id="a_edge33_Node000030_Node000008"><a xlink:title=" ">
<path fill="none" stroke="#63b8ff" d="M1067.04,-181.35C1073.7,-171.79 1083.66,-155.69 1087.63,-140 1095.68,-108.11 1092.1,-98.58 1087.63,-66 1086.16,-55.34 1083.02,-43.76 1080.09,-34.43"/>
<polygon fill="#63b8ff" stroke="#63b8ff" points="1083.33,-33.08 1076.85,-24.7 1076.68,-35.29 1083.33,-33.08"/>
</a>
</g>
</g>
<!-- Node30&#45;&gt;Node18 -->
<g id="edge31_Node000030_Node000018" class="edge">
<title>Node30&#45;&gt;Node18</title>
<g id="a_edge31_Node000030_Node000018"><a xlink:title=" ">
<path fill="none" stroke="#63b8ff" d="M1023.5,-183.16C1008.93,-180.65 992.03,-177.94 976.63,-176 791.19,-152.62 743.68,-157.87 557.63,-140 545.13,-138.8 531.56,-137.4 519.2,-136.08"/>
<polygon fill="#63b8ff" stroke="#63b8ff" points="519.46,-132.59 509.15,-135 518.72,-139.55 519.46,-132.59"/>
</a>
</g>
</g>
<!-- Node30&#45;&gt;Node31 -->
<g id="edge32_Node000030_Node000031" class="edge">
<title>Node30&#45;&gt;Node31</title>
<g id="a_edge32_Node000030_Node000031"><a xlink:title=" ">
<path fill="none" stroke="#63b8ff" d="M1076.41,-181.37C1093.96,-171.78 1122.51,-156.17 1143,-144.97"/>
<polygon fill="#63b8ff" stroke="#63b8ff" points="1144.68,-148.04 1151.77,-140.17 1141.32,-141.89 1144.68,-148.04"/>
</a>
</g>
</g>
<!-- Node32&#45;&gt;Node2 -->
<g id="edge39_Node000032_Node000002" class="edge">
<title>Node32&#45;&gt;Node2</title>
<g id="a_edge39_Node000032_Node000002"><a xlink:title=" ">
<path fill="none" stroke="#63b8ff" d="M927.57,-181.42C920.26,-166.83 903.45,-137.23 880.63,-121 851.15,-100.05 811.49,-88.72 781.41,-82.75"/>
<polygon fill="#63b8ff" stroke="#63b8ff" points="781.67,-79.24 771.2,-80.86 780.4,-86.13 781.67,-79.24"/>
</a>
</g>
</g>
<!-- Node32&#45;&gt;Node18 -->
<g id="edge38_Node000032_Node000018" class="edge">
<title>Node32&#45;&gt;Node18</title>
<g id="a_edge38_Node000032_Node000018"><a xlink:title=" ">
<path fill="none" stroke="#63b8ff" d="M895.73,-183.56C881.14,-181.04 864.1,-178.23 848.63,-176 785.82,-166.94 602.35,-145.74 519.31,-136.25"/>
<polygon fill="#63b8ff" stroke="#63b8ff" points="519.56,-132.75 509.22,-135.09 518.76,-139.71 519.56,-132.75"/>
</a>
</g>
</g>
<!-- Node32&#45;&gt;Node25 -->
<g id="edge40_Node000032_Node000025" class="edge">
<title>Node32&#45;&gt;Node25</title>
<g id="a_edge40_Node000032_Node000025"><a xlink:title=" ">
<path fill="none" stroke="#63b8ff" d="M895.87,-182.89C844.66,-172.7 750.07,-153.87 690.69,-142.06"/>
<polygon fill="#63b8ff" stroke="#63b8ff" points="691.24,-138.6 680.75,-140.08 689.87,-145.46 691.24,-138.6"/>
</a>
</g>
</g>
<!-- Node33 -->
<g id="Node000033" class="node">
<title>Node33</title>
<g id="a_Node000033"><a xlink:href="cfg_2def_8hpp.html" target="_top" xlink:title=" ">
<polygon fill="#fff0f0" stroke="red" points="1007.63,-140 927.63,-140 927.63,-121 1007.63,-121 1007.63,-140"/>
<text text-anchor="middle" x="967.63" y="-128" font-family="Helvetica,sans-Serif" font-size="10.00">../cfg/def.hpp</text>
</a>
</g>
</g>
<!-- Node32&#45;&gt;Node33 -->
<g id="edge35_Node000032_Node000033" class="edge">
<title>Node32&#45;&gt;Node33</title>
<g id="a_edge35_Node000032_Node000033"><a xlink:title=" ">
<path fill="none" stroke="#63b8ff" d="M936.94,-181.37C942.2,-172.81 950.41,-159.47 957.02,-148.74"/>
<polygon fill="#63b8ff" stroke="#63b8ff" points="960.03,-150.52 962.29,-140.17 954.07,-146.85 960.03,-150.52"/>
</a>
</g>
</g>
<!-- Node45 -->
<g id="Node000045" class="node">
<title>Node45</title>
<g id="a_Node000045"><a xlink:href="iface_2def_8hpp.html" target="_top" xlink:title=" ">
<polygon fill="#fff0f0" stroke="red" points="1007.13,-85 918.13,-85 918.13,-66 1007.13,-66 1007.13,-85"/>
<text text-anchor="middle" x="962.63" y="-73" font-family="Helvetica,sans-Serif" font-size="10.00">../iface/def.hpp</text>
</a>
</g>
</g>
<!-- Node32&#45;&gt;Node45 -->
<g id="edge36_Node000032_Node000045" class="edge">
<title>Node32&#45;&gt;Node45</title>
<g id="a_edge36_Node000032_Node000045"><a xlink:title=" ">
<path fill="none" stroke="#63b8ff" d="M960.42,-181.48C980.07,-173.99 1004.64,-160.95 1016.63,-140 1027.42,-121.13 1006.95,-102.54 988.2,-90.4"/>
<polygon fill="#63b8ff" stroke="#63b8ff" points="989.91,-87.35 979.55,-85.14 986.27,-93.33 989.91,-87.35"/>
</a>
</g>
</g>
<!-- Node45&#45;&gt;Node6 -->
<g id="edge37_Node000045_Node000006" class="edge">
<title>Node45&#45;&gt;Node6</title>
<g id="a_edge37_Node000045_Node000006"><a xlink:title=" ">
<path fill="none" stroke="#63b8ff" d="M957.17,-65.87C952.66,-58.74 946.05,-48.28 940.04,-38.79"/>
<polygon fill="#63b8ff" stroke="#63b8ff" points="942.86,-36.7 934.55,-30.11 936.94,-40.44 942.86,-36.7"/>
</a>
</g>
</g>
</g>
</svg>
