<?xml version="1.0" encoding="UTF-8" standalone="no"?>
<!DOCTYPE svg PUBLIC "-//W3C//DTD SVG 1.1//EN"
 "http://www.w3.org/Graphics/SVG/1.1/DTD/svg11.dtd">
<!-- Generated by graphviz version 2.43.0 (0)
 -->
<!-- Title: src/scmdio/main.cpp Pages: 1 -->
<svg width="833pt" height="247pt"
 viewBox="0.00 0.00 832.50 247.00" xmlns="http://www.w3.org/2000/svg" xmlns:xlink="http://www.w3.org/1999/xlink">
<g id="graph0" class="graph" transform="scale(1 1) rotate(0) translate(4 243)">
<title>src/scmdio/main.cpp</title>
<!-- Node1 -->
<g id="Node000001" class="node">
<title>Node1</title>
<g id="a_Node000001"><a xlink:title=" ">
<polygon fill="#999999" stroke="#666666" points="501,-239 384,-239 384,-220 501,-220 501,-239"/>
<text text-anchor="middle" x="442.5" y="-227" font-family="Helvetica,sans-Serif" font-size="10.00">src/scmdio/main.cpp</text>
</a>
</g>
</g>
<!-- Node2 -->
<g id="Node000002" class="node">
<title>Node2</title>
<g id="a_Node000002"><a xlink:href="bflash_8hpp.html" target="_top" xlink:title=" ">
<polygon fill="white" stroke="#666666" points="289,-184 216,-184 216,-165 289,-165 289,-184"/>
<text text-anchor="middle" x="252.5" y="-172" font-family="Helvetica,sans-Serif" font-size="10.00">./bflash.hpp</text>
</a>
</g>
</g>
<!-- Node1&#45;&gt;Node2 -->
<g id="edge1_Node000001_Node000002" class="edge">
<title>Node1&#45;&gt;Node2</title>
<g id="a_edge1_Node000001_Node000002"><a xlink:title=" ">
<path fill="none" stroke="#63b8ff" d="M411.97,-219.98C379.8,-211.01 328.94,-196.82 293.33,-186.89"/>
<polygon fill="#63b8ff" stroke="#63b8ff" points="293.84,-183.4 283.27,-184.08 291.96,-190.14 293.84,-183.4"/>
</a>
</g>
</g>
<!-- Node14 -->
<g id="Node000014" class="node">
<title>Node14</title>
<g id="a_Node000014"><a xlink:href="scmdio_2cli_8hpp.html" target="_top" xlink:title=" ">
<polygon fill="white" stroke="#666666" points="156,-184 101,-184 101,-165 156,-165 156,-184"/>
<text text-anchor="middle" x="128.5" y="-172" font-family="Helvetica,sans-Serif" font-size="10.00">./cli.hpp</text>
</a>
</g>
</g>
<!-- Node1&#45;&gt;Node14 -->
<g id="edge7_Node000001_Node000014" class="edge">
<title>Node1&#45;&gt;Node14</title>
<g id="a_edge7_Node000001_Node000014"><a xlink:title=" ">
<path fill="none" stroke="#63b8ff" d="M388.85,-219.99C334.51,-211.29 248.08,-197.21 173.5,-184 171.03,-183.56 168.49,-183.11 165.93,-182.64"/>
<polygon fill="#63b8ff" stroke="#63b8ff" points="166.56,-179.19 156.09,-180.81 165.28,-186.08 166.56,-179.19"/>
</a>
</g>
</g>
<!-- Node17 -->
<g id="Node000017" class="node">
<title>Node17</title>
<g id="a_Node000017"><a xlink:title=" ">
<polygon fill="#e0e0e0" stroke="#999999" points="262.5,-74 138.5,-74 138.5,-55 262.5,-55 262.5,-74"/>
<text text-anchor="middle" x="200.5" y="-62" font-family="Helvetica,sans-Serif" font-size="10.00">emlabcpp/algorithm.h</text>
</a>
</g>
</g>
<!-- Node1&#45;&gt;Node17 -->
<g id="edge31_Node000001_Node000017" class="edge">
<title>Node1&#45;&gt;Node17</title>
<g id="a_edge31_Node000001_Node000017"><a xlink:title=" ">
<path fill="none" stroke="#63b8ff" d="M383.94,-225.54C321.73,-221.04 229.25,-210.07 206.5,-184 182.43,-156.42 188.89,-110.03 195.09,-84.23"/>
<polygon fill="#63b8ff" stroke="#63b8ff" points="198.55,-84.82 197.72,-74.26 191.78,-83.04 198.55,-84.82"/>
</a>
</g>
</g>
<!-- Node21 -->
<g id="Node000021" class="node">
<title>Node21</title>
<g id="a_Node000021"><a xlink:href="config__cmds_8hpp.html" target="_top" xlink:title=" ">
<polygon fill="white" stroke="#666666" points="563.5,-184 459.5,-184 459.5,-165 563.5,-165 563.5,-184"/>
<text text-anchor="middle" x="511.5" y="-172" font-family="Helvetica,sans-Serif" font-size="10.00">./config_cmds.hpp</text>
</a>
</g>
</g>
<!-- Node1&#45;&gt;Node21 -->
<g id="edge13_Node000001_Node000021" class="edge">
<title>Node1&#45;&gt;Node21</title>
<g id="a_edge13_Node000001_Node000021"><a xlink:title=" ">
<path fill="none" stroke="#63b8ff" d="M453.59,-219.98C463.99,-212 479.76,-199.88 492.22,-190.31"/>
<polygon fill="#63b8ff" stroke="#63b8ff" points="494.41,-193.04 500.21,-184.17 490.15,-187.49 494.41,-193.04"/>
</a>
</g>
</g>
<!-- Node23 -->
<g id="Node000023" class="node">
<title>Node23</title>
<g id="a_Node000023"><a xlink:href="field__util_8hpp.html" target="_top" xlink:title=" ">
<polygon fill="white" stroke="#666666" points="824.5,-129 738.5,-129 738.5,-110 824.5,-110 824.5,-129"/>
<text text-anchor="middle" x="781.5" y="-117" font-family="Helvetica,sans-Serif" font-size="10.00">./field_util.hpp</text>
</a>
</g>
</g>
<!-- Node1&#45;&gt;Node23 -->
<g id="edge17_Node000001_Node000023" class="edge">
<title>Node1&#45;&gt;Node23</title>
<g id="a_edge17_Node000001_Node000023"><a xlink:title=" ">
<path fill="none" stroke="#63b8ff" d="M501.37,-221.21C546.18,-214.55 608.9,-202.82 661.5,-184 671.3,-180.5 724.67,-151.62 756.84,-134.03"/>
<polygon fill="#63b8ff" stroke="#63b8ff" points="758.6,-137.06 765.69,-129.19 755.24,-130.92 758.6,-137.06"/>
</a>
</g>
</g>
<!-- Node26 -->
<g id="Node000026" class="node">
<title>Node26</title>
<g id="a_Node000026"><a xlink:href="pid__autotune__cmd_8hpp.html" target="_top" xlink:title=" ">
<polygon fill="white" stroke="#666666" points="441.5,-184 307.5,-184 307.5,-165 441.5,-165 441.5,-184"/>
<text text-anchor="middle" x="374.5" y="-172" font-family="Helvetica,sans-Serif" font-size="10.00">./pid_autotune_cmd.hpp</text>
</a>
</g>
</g>
<!-- Node1&#45;&gt;Node26 -->
<g id="edge23_Node000001_Node000026" class="edge">
<title>Node1&#45;&gt;Node26</title>
<g id="a_edge23_Node000001_Node000026"><a xlink:title=" ">
<path fill="none" stroke="#63b8ff" d="M431.57,-219.98C421.42,-212.07 406.08,-200.11 393.85,-190.58"/>
<polygon fill="#63b8ff" stroke="#63b8ff" points="395.66,-187.56 385.62,-184.17 391.36,-193.08 395.66,-187.56"/>
</a>
</g>
</g>
<!-- Node27 -->
<g id="Node000027" class="node">
<title>Node27</title>
<g id="a_Node000027"><a xlink:href="serial_8hpp.html" target="_top" xlink:title=" ">
<polygon fill="white" stroke="#666666" points="653,-184 582,-184 582,-165 653,-165 653,-184"/>
<text text-anchor="middle" x="617.5" y="-172" font-family="Helvetica,sans-Serif" font-size="10.00">./serial.hpp</text>
</a>
</g>
</g>
<!-- Node1&#45;&gt;Node27 -->
<g id="edge25_Node000001_Node000027" class="edge">
<title>Node1&#45;&gt;Node27</title>
<g id="a_edge25_Node000001_Node000027"><a xlink:title=" ">
<path fill="none" stroke="#63b8ff" d="M470.62,-219.98C500.12,-211.05 546.69,-196.94 579.47,-187.02"/>
<polygon fill="#63b8ff" stroke="#63b8ff" points="580.61,-190.33 589.16,-184.08 578.58,-183.63 580.61,-190.33"/>
</a>
</g>
</g>
<!-- Node33 -->
<g id="Node000033" class="node">
<title>Node33</title>
<g id="a_Node000033"><a xlink:title=" ">
<polygon fill="#e0e0e0" stroke="#999999" points="777.5,-184 709.5,-184 709.5,-165 777.5,-165 777.5,-184"/>
<text text-anchor="middle" x="743.5" y="-172" font-family="Helvetica,sans-Serif" font-size="10.00">filesystem</text>
</a>
</g>
</g>
<!-- Node1&#45;&gt;Node33 -->
<g id="edge32_Node000001_Node000033" class="edge">
<title>Node1&#45;&gt;Node33</title>
<g id="a_edge32_Node000001_Node000033"><a xlink:title=" ">
<path fill="none" stroke="#63b8ff" d="M491,-219.99C541.94,-211.04 624.35,-196.56 695.5,-184 696.77,-183.78 698.05,-183.55 699.35,-183.32"/>
<polygon fill="#63b8ff" stroke="#63b8ff" points="700.17,-186.73 709.41,-181.54 698.96,-179.84 700.17,-186.73"/>
</a>
</g>
</g>
<!-- Node3 -->
<g id="Node000003" class="node">
<title>Node3</title>
<g id="a_Node000003"><a xlink:href="port_8hpp.html" target="_top" xlink:title=" ">
<polygon fill="#fff0f0" stroke="red" points="386,-129 329,-129 329,-110 386,-110 386,-129"/>
<text text-anchor="middle" x="357.5" y="-117" font-family="Helvetica,sans-Serif" font-size="10.00">port.hpp</text>
</a>
</g>
</g>
<!-- Node2&#45;&gt;Node3 -->
<g id="edge2_Node000002_Node000003" class="edge">
<title>Node2&#45;&gt;Node3</title>
<g id="a_edge2_Node000002_Node000003"><a xlink:title=" ">
<path fill="none" stroke="#63b8ff" d="M269.37,-164.98C286.11,-156.54 312,-143.47 331.39,-133.68"/>
<polygon fill="#63b8ff" stroke="#63b8ff" points="332.97,-136.8 340.32,-129.17 329.82,-130.55 332.97,-136.8"/>
</a>
</g>
</g>
<!-- Node4 -->
<g id="Node000004" class="node">
<title>Node4</title>
<g id="a_Node000004"><a xlink:href="scmdio_2base_8hpp.html" target="_top" xlink:title=" ">
<polygon fill="#fff0f0" stroke="red" points="608,-74 547,-74 547,-55 608,-55 608,-74"/>
<text text-anchor="middle" x="577.5" y="-62" font-family="Helvetica,sans-Serif" font-size="10.00">base.hpp</text>
</a>
</g>
</g>
<!-- Node3&#45;&gt;Node4 -->
<g id="edge3_Node000003_Node000004" class="edge">
<title>Node3&#45;&gt;Node4</title>
<g id="a_edge3_Node000003_Node000004"><a xlink:title=" ">
<path fill="none" stroke="#63b8ff" d="M386.26,-111.57C424.84,-102.28 493.53,-85.73 537.23,-75.2"/>
<polygon fill="#63b8ff" stroke="#63b8ff" points="538.06,-78.6 546.96,-72.86 536.42,-71.8 538.06,-78.6"/>
</a>
</g>
</g>
<!-- Node5 -->
<g id="Node000005" class="node">
<title>Node5</title>
<g id="a_Node000005"><a xlink:title=" ">
<polygon fill="#e0e0e0" stroke="#999999" points="602.5,-19 552.5,-19 552.5,0 602.5,0 602.5,-19"/>
<text text-anchor="middle" x="577.5" y="-7" font-family="Helvetica,sans-Serif" font-size="10.00">cstdint</text>
</a>
</g>
</g>
<!-- Node4&#45;&gt;Node5 -->
<g id="edge4_Node000004_Node000005" class="edge">
<title>Node4&#45;&gt;Node5</title>
<g id="a_edge4_Node000004_Node000005"><a xlink:title=" ">
<path fill="none" stroke="#63b8ff" d="M577.5,-54.75C577.5,-47.8 577.5,-37.85 577.5,-29.13"/>
<polygon fill="#63b8ff" stroke="#63b8ff" points="581,-29.09 577.5,-19.09 574,-29.09 581,-29.09"/>
</a>
</g>
</g>
<!-- Node7 -->
<g id="Node000007" class="node">
<title>Node7</title>
<g id="a_Node000007"><a xlink:title=" ">
<polygon fill="#e0e0e0" stroke="#999999" points="507.5,-19 419.5,-19 419.5,0 507.5,0 507.5,-19"/>
<text text-anchor="middle" x="463.5" y="-7" font-family="Helvetica,sans-Serif" font-size="10.00">boost/asio.hpp</text>
</a>
</g>
</g>
<!-- Node4&#45;&gt;Node7 -->
<g id="edge5_Node000004_Node000007" class="edge">
<title>Node4&#45;&gt;Node7</title>
<g id="a_edge5_Node000004_Node000007"><a xlink:title=" ">
<path fill="none" stroke="#63b8ff" d="M559.18,-54.98C540.84,-46.46 512.39,-33.23 491.27,-23.41"/>
<polygon fill="#63b8ff" stroke="#63b8ff" points="492.69,-20.21 482.15,-19.17 489.74,-26.56 492.69,-20.21"/>
</a>
</g>
</g>
<!-- Node9 -->
<g id="Node000009" class="node">
<title>Node9</title>
<g id="a_Node000009"><a xlink:title=" ">
<polygon fill="#e0e0e0" stroke="#999999" points="812.5,-19 702.5,-19 702.5,0 812.5,0 812.5,-19"/>
<text text-anchor="middle" x="757.5" y="-7" font-family="Helvetica,sans-Serif" font-size="10.00">nlohmann/json.hpp</text>
</a>
</g>
</g>
<!-- Node4&#45;&gt;Node9 -->
<g id="edge6_Node000004_Node000009" class="edge">
<title>Node4&#45;&gt;Node9</title>
<g id="a_edge6_Node000004_Node000009"><a xlink:title=" ">
<path fill="none" stroke="#63b8ff" d="M606.42,-54.98C636.77,-46.05 684.67,-31.94 718.38,-22.02"/>
<polygon fill="#63b8ff" stroke="#63b8ff" points="719.75,-25.26 728.35,-19.08 717.77,-18.55 719.75,-25.26"/>
</a>
</g>
</g>
<!-- Node14&#45;&gt;Node3 -->
<g id="edge11_Node000014_Node000003" class="edge">
<title>Node14&#45;&gt;Node3</title>
<g id="a_edge11_Node000014_Node000003"><a xlink:title=" ">
<path fill="none" stroke="#63b8ff" d="M156.12,-167.11C196.71,-157.71 272.63,-140.14 318.77,-129.46"/>
<polygon fill="#63b8ff" stroke="#63b8ff" points="319.75,-132.83 328.7,-127.17 318.17,-126.01 319.75,-132.83"/>
</a>
</g>
</g>
<!-- Node15 -->
<g id="Node000015" class="node">
<title>Node15</title>
<g id="a_Node000015"><a xlink:href="base_8hpp.html" target="_top" xlink:title=" ">
<polygon fill="#fff0f0" stroke="red" points="159.5,-129 89.5,-129 89.5,-110 159.5,-110 159.5,-129"/>
<text text-anchor="middle" x="124.5" y="-117" font-family="Helvetica,sans-Serif" font-size="10.00">../base.hpp</text>
</a>
</g>
</g>
<!-- Node14&#45;&gt;Node15 -->
<g id="edge8_Node000014_Node000015" class="edge">
<title>Node14&#45;&gt;Node15</title>
<g id="a_edge8_Node000014_Node000015"><a xlink:title=" ">
<path fill="none" stroke="#63b8ff" d="M127.84,-164.75C127.32,-157.8 126.56,-147.85 125.91,-139.13"/>
<polygon fill="#63b8ff" stroke="#63b8ff" points="129.39,-138.8 125.15,-129.09 122.41,-139.32 129.39,-138.8"/>
</a>
</g>
</g>
<!-- Node20 -->
<g id="Node000020" class="node">
<title>Node20</title>
<g id="a_Node000020"><a xlink:title=" ">
<polygon fill="#e0e0e0" stroke="#999999" points="71,-129 0,-129 0,-110 71,-110 71,-129"/>
<text text-anchor="middle" x="35.5" y="-117" font-family="Helvetica,sans-Serif" font-size="10.00">CLI/CLI.hpp</text>
</a>
</g>
</g>
<!-- Node14&#45;&gt;Node20 -->
<g id="edge12_Node000014_Node000020" class="edge">
<title>Node14&#45;&gt;Node20</title>
<g id="a_edge12_Node000014_Node000020"><a xlink:title=" ">
<path fill="none" stroke="#63b8ff" d="M113.56,-164.98C99,-156.69 76.63,-143.94 59.57,-134.22"/>
<polygon fill="#63b8ff" stroke="#63b8ff" points="61.14,-131.08 50.71,-129.17 57.67,-137.16 61.14,-131.08"/>
</a>
</g>
</g>
<!-- Node15&#45;&gt;Node5 -->
<g id="edge9_Node000015_Node000005" class="edge">
<title>Node15&#45;&gt;Node5</title>
<g id="a_edge9_Node000015_Node000005"><a xlink:title=" ">
<path fill="none" stroke="#63b8ff" d="M122.07,-109.69C118.88,-95.95 115.21,-69.49 129.5,-55 159.82,-24.25 473.6,-23.98 516.5,-19 524.88,-18.03 533.89,-16.85 542.35,-15.68"/>
<polygon fill="#63b8ff" stroke="#63b8ff" points="542.89,-19.14 552.31,-14.27 541.92,-12.2 542.89,-19.14"/>
</a>
</g>
</g>
<!-- Node15&#45;&gt;Node17 -->
<g id="edge10_Node000015_Node000017" class="edge">
<title>Node15&#45;&gt;Node17</title>
<g id="a_edge10_Node000015_Node000017"><a xlink:title=" ">
<path fill="none" stroke="#63b8ff" d="M136.71,-109.98C148.28,-101.92 165.88,-89.65 179.66,-80.03"/>
<polygon fill="#63b8ff" stroke="#63b8ff" points="181.87,-82.76 188.07,-74.17 177.86,-77.02 181.87,-82.76"/>
</a>
</g>
</g>
<!-- Node21&#45;&gt;Node3 -->
<g id="edge14_Node000021_Node000003" class="edge">
<title>Node21&#45;&gt;Node3</title>
<g id="a_edge14_Node000021_Node000003"><a xlink:title=" ">
<path fill="none" stroke="#63b8ff" d="M486.76,-164.98C461.13,-156.16 420.87,-142.31 392.09,-132.41"/>
<polygon fill="#63b8ff" stroke="#63b8ff" points="393.03,-129.03 382.44,-129.08 390.75,-135.65 393.03,-129.03"/>
</a>
</g>
</g>
<!-- Node21&#45;&gt;Node7 -->
<g id="edge15_Node000021_Node000007" class="edge">
<title>Node21&#45;&gt;Node7</title>
<g id="a_edge15_Node000021_Node000007"><a xlink:title=" ">
<path fill="none" stroke="#63b8ff" d="M482,-164.97C464.56,-158.24 443.91,-146.93 433.5,-129 414.49,-96.27 436.52,-51.64 451.64,-27.57"/>
<polygon fill="#63b8ff" stroke="#63b8ff" points="454.61,-29.42 457.18,-19.15 448.76,-25.57 454.61,-29.42"/>
</a>
</g>
</g>
<!-- Node22 -->
<g id="Node000022" class="node">
<title>Node22</title>
<g id="a_Node000022"><a xlink:title=" ">
<polygon fill="#e0e0e0" stroke="#999999" points="586,-129 443,-129 443,-110 586,-110 586,-129"/>
<text text-anchor="middle" x="514.5" y="-117" font-family="Helvetica,sans-Serif" font-size="10.00">boost/asio/serial_port.hpp</text>
</a>
</g>
</g>
<!-- Node21&#45;&gt;Node22 -->
<g id="edge16_Node000021_Node000022" class="edge">
<title>Node21&#45;&gt;Node22</title>
<g id="a_edge16_Node000021_Node000022"><a xlink:title=" ">
<path fill="none" stroke="#63b8ff" d="M512,-164.75C512.39,-157.8 512.95,-147.85 513.45,-139.13"/>
<polygon fill="#63b8ff" stroke="#63b8ff" points="516.94,-139.27 514.01,-129.09 509.95,-138.88 516.94,-139.27"/>
</a>
</g>
</g>
<!-- Node23&#45;&gt;Node4 -->
<g id="edge19_Node000023_Node000004" class="edge">
<title>Node23&#45;&gt;Node4</title>
<g id="a_edge19_Node000023_Node000004"><a xlink:title=" ">
<path fill="none" stroke="#63b8ff" d="M748.72,-109.98C713.16,-100.74 656.33,-85.98 618,-76.02"/>
<polygon fill="#63b8ff" stroke="#63b8ff" points="618.75,-72.6 608.19,-73.47 616.99,-79.38 618.75,-72.6"/>
</a>
</g>
</g>
<!-- Node23&#45;&gt;Node5 -->
<g id="edge18_Node000023_Node000005" class="edge">
<title>Node23&#45;&gt;Node5</title>
<g id="a_edge18_Node000023_Node000005"><a xlink:title=" ">
<path fill="none" stroke="#63b8ff" d="M785.07,-109.57C789.78,-96.13 796.11,-70.62 783.5,-55 762.44,-28.91 665.95,-17.37 612.83,-12.92"/>
<polygon fill="#63b8ff" stroke="#63b8ff" points="613.06,-9.42 602.81,-12.12 612.5,-16.4 613.06,-9.42"/>
</a>
</g>
</g>
<!-- Node23&#45;&gt;Node9 -->
<g id="edge21_Node000023_Node000009" class="edge">
<title>Node23&#45;&gt;Node9</title>
<g id="a_edge21_Node000023_Node000009"><a xlink:title=" ">
<path fill="none" stroke="#63b8ff" d="M792.05,-109.99C805.67,-97.92 826.49,-75.05 816.5,-55 809.93,-41.82 797.4,-31.52 785.57,-24.16"/>
<polygon fill="#63b8ff" stroke="#63b8ff" points="787.18,-21.05 776.77,-19.1 783.7,-27.12 787.18,-21.05"/>
</a>
</g>
</g>
<!-- Node24 -->
<g id="Node000024" class="node">
<title>Node24</title>
<g id="a_Node000024"><a xlink:title=" ">
<polygon fill="#e0e0e0" stroke="#999999" points="774,-74 713,-74 713,-55 774,-55 774,-74"/>
<text text-anchor="middle" x="743.5" y="-62" font-family="Helvetica,sans-Serif" font-size="10.00">charconv</text>
</a>
</g>
</g>
<!-- Node23&#45;&gt;Node24 -->
<g id="edge20_Node000023_Node000024" class="edge">
<title>Node23&#45;&gt;Node24</title>
<g id="a_edge20_Node000023_Node000024"><a xlink:title=" ">
<path fill="none" stroke="#63b8ff" d="M775.23,-109.75C769.91,-102.34 762.14,-91.5 755.62,-82.41"/>
<polygon fill="#63b8ff" stroke="#63b8ff" points="758.33,-80.18 749.66,-74.09 752.64,-84.26 758.33,-80.18"/>
</a>
</g>
</g>
<!-- Node25 -->
<g id="Node000025" class="node">
<title>Node25</title>
<g id="a_Node000025"><a xlink:title=" ">
<polygon fill="#e0e0e0" stroke="#999999" points="695,-74 626,-74 626,-55 695,-55 695,-74"/>
<text text-anchor="middle" x="660.5" y="-62" font-family="Helvetica,sans-Serif" font-size="10.00">vari/vopt.h</text>
</a>
</g>
</g>
<!-- Node23&#45;&gt;Node25 -->
<g id="edge22_Node000023_Node000025" class="edge">
<title>Node23&#45;&gt;Node25</title>
<g id="a_edge22_Node000023_Node000025"><a xlink:title=" ">
<path fill="none" stroke="#63b8ff" d="M762.06,-109.98C742.51,-101.42 712.12,-88.11 689.68,-78.28"/>
<polygon fill="#63b8ff" stroke="#63b8ff" points="690.86,-74.98 680.29,-74.17 688.05,-81.39 690.86,-74.98"/>
</a>
</g>
</g>
<!-- Node26&#45;&gt;Node3 -->
<g id="edge24_Node000026_Node000003" class="edge">
<title>Node26&#45;&gt;Node3</title>
<g id="a_edge24_Node000026_Node000003"><a xlink:title=" ">
<path fill="none" stroke="#63b8ff" d="M371.69,-164.75C369.44,-157.72 366.2,-147.62 363.38,-138.84"/>
<polygon fill="#63b8ff" stroke="#63b8ff" points="366.64,-137.54 360.25,-129.09 359.98,-139.68 366.64,-137.54"/>
</a>
</g>
</g>
<!-- Node27&#45;&gt;Node3 -->
<g id="edge28_Node000027_Node000003" class="edge">
<title>Node27&#45;&gt;Node3</title>
<g id="a_edge28_Node000027_Node000003"><a xlink:title=" ">
<path fill="none" stroke="#63b8ff" d="M581.89,-166.24C533.23,-156.32 446.28,-138.6 396.1,-128.37"/>
<polygon fill="#63b8ff" stroke="#63b8ff" points="396.78,-124.93 386.28,-126.37 395.38,-131.79 396.78,-124.93"/>
</a>
</g>
</g>
<!-- Node27&#45;&gt;Node4 -->
<g id="edge29_Node000027_Node000004" class="edge">
<title>Node27&#45;&gt;Node4</title>
<g id="a_edge29_Node000027_Node000004"><a xlink:title=" ">
<path fill="none" stroke="#63b8ff" d="M614.42,-164.86C610.05,-152.62 601.78,-129.56 594.5,-110 591.25,-101.27 587.57,-91.61 584.47,-83.52"/>
<polygon fill="#63b8ff" stroke="#63b8ff" points="587.66,-82.09 580.8,-74.01 581.13,-84.6 587.66,-82.09"/>
</a>
</g>
</g>
<!-- Node27&#45;&gt;Node22 -->
<g id="edge30_Node000027_Node000022" class="edge">
<title>Node27&#45;&gt;Node22</title>
<g id="a_edge30_Node000027_Node000022"><a xlink:title=" ">
<path fill="none" stroke="#63b8ff" d="M600.95,-164.98C584.61,-156.57 559.37,-143.59 540.37,-133.81"/>
<polygon fill="#63b8ff" stroke="#63b8ff" points="541.84,-130.63 531.35,-129.17 538.64,-136.86 541.84,-130.63"/>
</a>
</g>
</g>
<!-- Node28 -->
<g id="Node000028" class="node">
<title>Node28</title>
<g id="a_Node000028"><a xlink:href="def_8h.html" target="_top" xlink:title=" ">
<polygon fill="#fff0f0" stroke="red" points="720,-129 643,-129 643,-110 720,-110 720,-129"/>
<text text-anchor="middle" x="681.5" y="-117" font-family="Helvetica,sans-Serif" font-size="10.00">../iface/def.h</text>
</a>
</g>
</g>
<!-- Node27&#45;&gt;Node28 -->
<g id="edge26_Node000027_Node000028" class="edge">
<title>Node27&#45;&gt;Node28</title>
<g id="a_edge26_Node000027_Node000028"><a xlink:title=" ">
<path fill="none" stroke="#63b8ff" d="M627.78,-164.98C637.34,-157.07 651.78,-145.11 663.28,-135.58"/>
<polygon fill="#63b8ff" stroke="#63b8ff" points="665.56,-138.24 671.03,-129.17 661.1,-132.85 665.56,-138.24"/>
</a>
</g>
</g>
<!-- Node28&#45;&gt;Node25 -->
<g id="edge27_Node000028_Node000025" class="edge">
<title>Node28&#45;&gt;Node25</title>
<g id="a_edge27_Node000028_Node000025"><a xlink:title=" ">
<path fill="none" stroke="#63b8ff" d="M678.03,-109.75C675.22,-102.65 671.16,-92.4 667.65,-83.56"/>
<polygon fill="#63b8ff" stroke="#63b8ff" points="670.84,-82.1 663.9,-74.09 664.33,-84.68 670.84,-82.1"/>
</a>
</g>
</g>
</g>
</svg>
