<?xml version="1.0" encoding="UTF-8" standalone="no"?>
<!DOCTYPE svg PUBLIC "-//W3C//DTD SVG 1.1//EN"
 "http://www.w3.org/Graphics/SVG/1.1/DTD/svg11.dtd">
<!-- Generated by graphviz version 2.43.0 (0)
 -->
<!-- Title: src/sntr/sentry.hpp Pages: 1 -->
<svg width="265pt" height="263pt"
 viewBox="0.00 0.00 265.00 263.00" xmlns="http://www.w3.org/2000/svg" xmlns:xlink="http://www.w3.org/1999/xlink">
<g id="graph0" class="graph" transform="scale(1 1) rotate(0) translate(4 259)">
<title>src/sntr/sentry.hpp</title>
<polygon fill="white" stroke="transparent" points="-4,4 -4,-259 261,-259 261,4 -4,4"/>
<!-- Node1 -->
<g id="node1" class="node">
<title>Node1</title>
<g id="a_node1"><a xlink:title=" ">
<polygon fill="#bfbfbf" stroke="black" points="96.5,-235.5 96.5,-254.5 202.5,-254.5 202.5,-235.5 96.5,-235.5"/>
<text text-anchor="middle" x="149.5" y="-242.5" font-family="Helvetica,sans-Serif" font-size="10.00">src/sntr/sentry.hpp</text>
</a>
</g>
</g>
<!-- Node2 -->
<g id="node2" class="node">
<title>Node2</title>
<g id="a_node2"><a xlink:href="sntr_2base_8hpp.html" target="_top" xlink:title=" ">
<polygon fill="white" stroke="black" points="91,-112.5 91,-131.5 174,-131.5 174,-112.5 91,-112.5"/>
<text text-anchor="middle" x="132.5" y="-119.5" font-family="Helvetica,sans-Serif" font-size="10.00">sntr/base.hpp</text>
</a>
</g>
</g>
<!-- Node1&#45;&gt;Node2 -->
<g id="edge1" class="edge">
<title>Node1&#45;&gt;Node2</title>
<path fill="none" stroke="midnightblue" d="M128.65,-235.43C113.92,-228.13 95.3,-216.09 86.5,-199 80.2,-186.75 81.16,-180.7 86.5,-168 91.53,-156.05 101.44,-145.69 110.79,-137.93"/>
<polygon fill="midnightblue" stroke="midnightblue" points="112.94,-140.69 118.71,-131.81 108.66,-135.15 112.94,-140.69"/>
</g>
<!-- Node10 -->
<g id="node6" class="node">
<title>Node10</title>
<g id="a_node6"><a xlink:title=" ">
<polygon fill="white" stroke="#bfbfbf" points="206,-56.5 206,-75.5 257,-75.5 257,-56.5 206,-56.5"/>
<text text-anchor="middle" x="231.5" y="-63.5" font-family="Helvetica,sans-Serif" font-size="10.00">variant</text>
</a>
</g>
</g>
<!-- Node1&#45;&gt;Node10 -->
<g id="edge9" class="edge">
<title>Node1&#45;&gt;Node10</title>
<path fill="none" stroke="midnightblue" d="M168.75,-235.5C183.24,-228.04 202.3,-215.76 212.5,-199 234.09,-163.52 234.75,-112.96 233.22,-85.86"/>
<polygon fill="midnightblue" stroke="midnightblue" points="236.7,-85.52 232.48,-75.8 229.72,-86.03 236.7,-85.52"/>
</g>
<!-- Node11 -->
<g id="node7" class="node">
<title>Node11</title>
<g id="a_node7"><a xlink:href="central__sentry__iface_8hpp.html" target="_top" xlink:title=" ">
<polygon fill="white" stroke="black" points="95.5,-168.5 95.5,-198.5 203.5,-198.5 203.5,-168.5 95.5,-168.5"/>
<text text-anchor="start" x="103.5" y="-186.5" font-family="Helvetica,sans-Serif" font-size="10.00">sntr/central_sentry</text>
<text text-anchor="middle" x="149.5" y="-175.5" font-family="Helvetica,sans-Serif" font-size="10.00">_iface.hpp</text>
</a>
</g>
</g>
<!-- Node1&#45;&gt;Node11 -->
<g id="edge7" class="edge">
<title>Node1&#45;&gt;Node11</title>
<path fill="none" stroke="midnightblue" d="M149.5,-235.48C149.5,-228.47 149.5,-218.19 149.5,-208.7"/>
<polygon fill="midnightblue" stroke="midnightblue" points="153,-208.52 149.5,-198.52 146,-208.52 153,-208.52"/>
</g>
<!-- Node3 -->
<g id="node3" class="node">
<title>Node3</title>
<g id="a_node3"><a xlink:href="base_2base_8hpp.html" target="_top" xlink:title=" ">
<polygon fill="white" stroke="red" points="0,-56.5 0,-75.5 87,-75.5 87,-56.5 0,-56.5"/>
<text text-anchor="middle" x="43.5" y="-63.5" font-family="Helvetica,sans-Serif" font-size="10.00">base/base.hpp</text>
</a>
</g>
</g>
<!-- Node2&#45;&gt;Node3 -->
<g id="edge2" class="edge">
<title>Node2&#45;&gt;Node3</title>
<path fill="none" stroke="midnightblue" d="M118.2,-112.32C104.32,-103.9 83.01,-90.97 66.7,-81.07"/>
<polygon fill="midnightblue" stroke="midnightblue" points="68.13,-77.85 57.76,-75.65 64.5,-83.83 68.13,-77.85"/>
</g>
<!-- Node5 -->
<g id="node4" class="node">
<title>Node5</title>
<g id="a_node4"><a xlink:title=" ">
<polygon fill="white" stroke="#bfbfbf" points="54.5,-0.5 54.5,-19.5 104.5,-19.5 104.5,-0.5 54.5,-0.5"/>
<text text-anchor="middle" x="79.5" y="-7.5" font-family="Helvetica,sans-Serif" font-size="10.00">cstdint</text>
</a>
</g>
</g>
<!-- Node2&#45;&gt;Node5 -->
<g id="edge5" class="edge">
<title>Node2&#45;&gt;Node5</title>
<path fill="none" stroke="midnightblue" d="M128.34,-112.37C119.67,-94.38 99.52,-52.55 87.99,-28.63"/>
<polygon fill="midnightblue" stroke="midnightblue" points="91.13,-27.08 83.64,-19.59 84.83,-30.12 91.13,-27.08"/>
</g>
<!-- Node9 -->
<g id="node5" class="node">
<title>Node9</title>
<g id="a_node5"><a xlink:title=" ">
<polygon fill="white" stroke="#bfbfbf" points="143.5,-56.5 143.5,-75.5 187.5,-75.5 187.5,-56.5 143.5,-56.5"/>
<text text-anchor="middle" x="165.5" y="-63.5" font-family="Helvetica,sans-Serif" font-size="10.00">bitset</text>
</a>
</g>
</g>
<!-- Node2&#45;&gt;Node9 -->
<g id="edge4" class="edge">
<title>Node2&#45;&gt;Node9</title>
<path fill="none" stroke="midnightblue" d="M137.95,-112.08C142.51,-104.61 149.17,-93.72 154.79,-84.52"/>
<polygon fill="midnightblue" stroke="midnightblue" points="157.92,-86.11 160.15,-75.75 151.95,-82.46 157.92,-86.11"/>
</g>
<!-- Node2&#45;&gt;Node10 -->
<g id="edge6" class="edge">
<title>Node2&#45;&gt;Node10</title>
<path fill="none" stroke="midnightblue" d="M148.41,-112.32C164.14,-103.74 188.44,-90.49 206.71,-80.52"/>
<polygon fill="midnightblue" stroke="midnightblue" points="208.53,-83.52 215.63,-75.65 205.18,-77.37 208.53,-83.52"/>
</g>
<!-- Node3&#45;&gt;Node5 -->
<g id="edge3" class="edge">
<title>Node3&#45;&gt;Node5</title>
<path fill="none" stroke="midnightblue" d="M49.44,-56.08C54.48,-48.53 61.84,-37.49 68.01,-28.23"/>
<polygon fill="midnightblue" stroke="midnightblue" points="71.03,-30.01 73.67,-19.75 65.21,-26.13 71.03,-30.01"/>
</g>
<!-- Node11&#45;&gt;Node2 -->
<g id="edge8" class="edge">
<title>Node11&#45;&gt;Node2</title>
<path fill="none" stroke="midnightblue" d="M145.47,-168.4C143.15,-160.29 140.22,-150.01 137.72,-141.28"/>
<polygon fill="midnightblue" stroke="midnightblue" points="141.09,-140.31 134.97,-131.66 134.36,-142.23 141.09,-140.31"/>
</g>
</g>
</svg>
