<?xml version="1.0" encoding="UTF-8" standalone="no"?>
<!DOCTYPE svg PUBLIC "-//W3C//DTD SVG 1.1//EN"
 "http://www.w3.org/Graphics/SVG/1.1/DTD/svg11.dtd">
<!-- Generated by graphviz version 2.43.0 (0)
 -->
<!-- Title: src/sntr/sentry.cpp Pages: 1 -->
<svg width="182pt" height="252pt"
 viewBox="0.00 0.00 181.52 252.00" xmlns="http://www.w3.org/2000/svg" xmlns:xlink="http://www.w3.org/1999/xlink">
<g id="graph0" class="graph" transform="scale(1 1) rotate(0) translate(4 248)">
<title>src/sntr/sentry.cpp</title>
<polygon fill="white" stroke="transparent" points="-4,4 -4,-248 177.52,-248 177.52,4 -4,4"/>
<!-- Node1 -->
<g id="node1" class="node">
<title>Node1</title>
<g id="a_node1"><a xlink:title=" ">
<polygon fill="#bfbfbf" stroke="black" points="32.11,-224.5 32.11,-243.5 137.11,-243.5 137.11,-224.5 32.11,-224.5"/>
<text text-anchor="middle" x="84.61" y="-231.5" font-family="Helvetica,sans-Serif" font-size="10.00">src/sntr/sentry.cpp</text>
</a>
</g>
</g>
<!-- Node2 -->
<g id="node2" class="node">
<title>Node2</title>
<g id="a_node2"><a xlink:href="sentry_8hpp.html" target="_top" xlink:title=" ">
<polygon fill="white" stroke="black" points="48.11,-168.5 48.11,-187.5 121.11,-187.5 121.11,-168.5 48.11,-168.5"/>
<text text-anchor="middle" x="84.61" y="-175.5" font-family="Helvetica,sans-Serif" font-size="10.00">./sentry.hpp</text>
</a>
</g>
</g>
<!-- Node1&#45;&gt;Node2 -->
<g id="edge1" class="edge">
<title>Node1&#45;&gt;Node2</title>
<path fill="none" stroke="midnightblue" d="M84.61,-224.08C84.61,-217.01 84.61,-206.86 84.61,-197.99"/>
<polygon fill="midnightblue" stroke="midnightblue" points="88.11,-197.75 84.61,-187.75 81.11,-197.75 88.11,-197.75"/>
</g>
<!-- Node3 -->
<g id="node3" class="node">
<title>Node3</title>
<g id="a_node3"><a xlink:href="sntr_2base_8hpp.html" target="_top" xlink:title=" ">
<polygon fill="white" stroke="red" points="51.11,-56.5 51.11,-75.5 118.11,-75.5 118.11,-56.5 51.11,-56.5"/>
<text text-anchor="middle" x="84.61" y="-63.5" font-family="Helvetica,sans-Serif" font-size="10.00">./base.hpp</text>
</a>
</g>
</g>
<!-- Node2&#45;&gt;Node3 -->
<g id="edge2" class="edge">
<title>Node2&#45;&gt;Node3</title>
<path fill="none" stroke="midnightblue" d="M53.59,-168.44C35.58,-161.69 14.38,-150.3 3.61,-132 -10.13,-108.65 20.18,-90.31 47.55,-79.15"/>
<polygon fill="midnightblue" stroke="midnightblue" points="48.96,-82.36 57.03,-75.51 46.44,-75.83 48.96,-82.36"/>
</g>
<!-- Node11 -->
<g id="node4" class="node">
<title>Node11</title>
<g id="a_node4"><a xlink:title=" ">
<polygon fill="white" stroke="#bfbfbf" points="109.11,-0.5 109.11,-19.5 160.11,-19.5 160.11,-0.5 109.11,-0.5"/>
<text text-anchor="middle" x="134.61" y="-7.5" font-family="Helvetica,sans-Serif" font-size="10.00">variant</text>
</a>
</g>
</g>
<!-- Node2&#45;&gt;Node11 -->
<g id="edge6" class="edge">
<title>Node2&#45;&gt;Node11</title>
<path fill="none" stroke="midnightblue" d="M115.64,-168.44C133.65,-161.69 154.84,-150.3 165.61,-132 185.32,-98.51 162.24,-52.61 146.63,-28.09"/>
<polygon fill="midnightblue" stroke="midnightblue" points="149.38,-25.91 140.92,-19.53 143.56,-29.79 149.38,-25.91"/>
</g>
<!-- Node12 -->
<g id="node5" class="node">
<title>Node12</title>
<g id="a_node5"><a xlink:href="central__sentry__iface_8hpp.html" target="_top" xlink:title=" ">
<polygon fill="white" stroke="black" points="13.11,-112.5 13.11,-131.5 156.11,-131.5 156.11,-112.5 13.11,-112.5"/>
<text text-anchor="middle" x="84.61" y="-119.5" font-family="Helvetica,sans-Serif" font-size="10.00">./central_sentry_iface.hpp</text>
</a>
</g>
</g>
<!-- Node2&#45;&gt;Node12 -->
<g id="edge4" class="edge">
<title>Node2&#45;&gt;Node12</title>
<path fill="none" stroke="midnightblue" d="M84.61,-168.08C84.61,-161.01 84.61,-150.86 84.61,-141.99"/>
<polygon fill="midnightblue" stroke="midnightblue" points="88.11,-141.75 84.61,-131.75 81.11,-141.75 88.11,-141.75"/>
</g>
<!-- Node3&#45;&gt;Node11 -->
<g id="edge3" class="edge">
<title>Node3&#45;&gt;Node11</title>
<path fill="none" stroke="midnightblue" d="M92.87,-56.08C100.08,-48.3 110.72,-36.8 119.46,-27.37"/>
<polygon fill="midnightblue" stroke="midnightblue" points="122.28,-29.47 126.51,-19.75 117.15,-24.71 122.28,-29.47"/>
</g>
<!-- Node12&#45;&gt;Node3 -->
<g id="edge5" class="edge">
<title>Node12&#45;&gt;Node3</title>
<path fill="none" stroke="midnightblue" d="M84.61,-112.08C84.61,-105.01 84.61,-94.86 84.61,-85.99"/>
<polygon fill="midnightblue" stroke="midnightblue" points="88.11,-85.75 84.61,-75.75 81.11,-85.75 88.11,-85.75"/>
</g>
</g>
</svg>
