<?xml version="1.0" encoding="UTF-8" standalone="no"?>
<!DOCTYPE svg PUBLIC "-//W3C//DTD SVG 1.1//EN"
 "http://www.w3.org/Graphics/SVG/1.1/DTD/svg11.dtd">
<!-- Generated by graphviz version 2.43.0 (0)
 -->
<!-- Title: src/sntr/tests/sentry_utest.cpp Pages: 1 -->
<svg width="677pt" height="269pt"
 viewBox="0.00 0.00 677.00 269.00" xmlns="http://www.w3.org/2000/svg" xmlns:xlink="http://www.w3.org/1999/xlink">
<g id="graph0" class="graph" transform="scale(1 1) rotate(0) translate(4 265)">
<title>src/sntr/tests/sentry_utest.cpp</title>
<!-- Node1 -->
<g id="Node000001" class="node">
<title>Node1</title>
<g id="a_Node000001"><a xlink:title=" ">
<polygon fill="#999999" stroke="#666666" points="591.5,-261 478.5,-261 478.5,-231 591.5,-231 591.5,-261"/>
<text text-anchor="start" x="486.5" y="-249" font-family="Helvetica,sans-Serif" font-size="10.00">src/sntr/tests/sentry</text>
<text text-anchor="middle" x="535" y="-238" font-family="Helvetica,sans-Serif" font-size="10.00">_utest.cpp</text>
</a>
</g>
</g>
<!-- Node2 -->
<g id="Node000002" class="node">
<title>Node2</title>
<g id="a_Node000002"><a xlink:href="central__sentry_8hpp.html" target="_top" xlink:title=" ">
<polygon fill="white" stroke="#666666" points="325.5,-195 210.5,-195 210.5,-176 325.5,-176 325.5,-195"/>
<text text-anchor="middle" x="268" y="-183" font-family="Helvetica,sans-Serif" font-size="10.00">../central_sentry.hpp</text>
</a>
</g>
</g>
<!-- Node1&#45;&gt;Node2 -->
<g id="edge1_Node000001_Node000002" class="edge">
<title>Node1&#45;&gt;Node2</title>
<g id="a_edge1_Node000001_Node000002"><a xlink:title=" ">
<path fill="none" stroke="#63b8ff" d="M478.38,-232.59C430.42,-222.09 362.38,-207.18 316.79,-197.19"/>
<polygon fill="#63b8ff" stroke="#63b8ff" points="317.37,-193.73 306.85,-195.01 315.87,-200.57 317.37,-193.73"/>
</a>
</g>
</g>
<!-- Node26 -->
<g id="Node000026" class="node">
<title>Node26</title>
<g id="a_Node000026"><a xlink:href="sentry_8hpp.html" target="_top" xlink:title=" ">
<polygon fill="white" stroke="#666666" points="573,-195 497,-195 497,-176 573,-176 573,-195"/>
<text text-anchor="middle" x="535" y="-183" font-family="Helvetica,sans-Serif" font-size="10.00">../sentry.hpp</text>
</a>
</g>
</g>
<!-- Node1&#45;&gt;Node26 -->
<g id="edge11_Node000001_Node000026" class="edge">
<title>Node1&#45;&gt;Node26</title>
<g id="a_edge11_Node000001_Node000026"><a xlink:title=" ">
<path fill="none" stroke="#63b8ff" d="M535,-230.84C535,-223.21 535,-213.7 535,-205.45"/>
<polygon fill="#63b8ff" stroke="#63b8ff" points="538.5,-205.27 535,-195.27 531.5,-205.27 538.5,-205.27"/>
</a>
</g>
</g>
<!-- Node27 -->
<g id="Node000027" class="node">
<title>Node27</title>
<g id="a_Node000027"><a xlink:title=" ">
<polygon fill="#e0e0e0" stroke="#999999" points="669,-195 591,-195 591,-176 669,-176 669,-195"/>
<text text-anchor="middle" x="630" y="-183" font-family="Helvetica,sans-Serif" font-size="10.00">gtest/gtest.h</text>
</a>
</g>
</g>
<!-- Node1&#45;&gt;Node27 -->
<g id="edge15_Node000001_Node000027" class="edge">
<title>Node1&#45;&gt;Node27</title>
<g id="a_edge15_Node000001_Node000027"><a xlink:title=" ">
<path fill="none" stroke="#63b8ff" d="M558,-230.84C573,-221.6 592.5,-209.59 607.43,-200.4"/>
<polygon fill="#63b8ff" stroke="#63b8ff" points="609.36,-203.32 616.04,-195.09 605.69,-197.36 609.36,-203.32"/>
</a>
</g>
</g>
<!-- Node3 -->
<g id="Node000003" class="node">
<title>Node3</title>
<g id="a_Node000003"><a xlink:href="interfaces_8hpp.html" target="_top" xlink:title=" ">
<polygon fill="#fff0f0" stroke="red" points="114,-134.5 0,-134.5 0,-115.5 114,-115.5 114,-134.5"/>
<text text-anchor="middle" x="57" y="-122.5" font-family="Helvetica,sans-Serif" font-size="10.00">../drv/interfaces.hpp</text>
</a>
</g>
</g>
<!-- Node2&#45;&gt;Node3 -->
<g id="edge2_Node000002_Node000003" class="edge">
<title>Node2&#45;&gt;Node3</title>
<g id="a_edge2_Node000002_Node000003"><a xlink:title=" ">
<path fill="none" stroke="#63b8ff" d="M237.32,-175.99C200.44,-165.77 138.43,-148.58 97.61,-137.26"/>
<polygon fill="#63b8ff" stroke="#63b8ff" points="98.29,-133.82 87.72,-134.52 96.42,-140.56 98.29,-133.82"/>
</a>
</g>
</g>
<!-- Node19 -->
<g id="Node000019" class="node">
<title>Node19</title>
<g id="a_Node000019"><a xlink:title=" ">
<polygon fill="#e0e0e0" stroke="#999999" points="120,-74 80,-74 80,-55 120,-55 120,-74"/>
<text text-anchor="middle" x="100" y="-62" font-family="Helvetica,sans-Serif" font-size="10.00">span</text>
</a>
</g>
</g>
<!-- Node2&#45;&gt;Node19 -->
<g id="edge10_Node000002_Node000019" class="edge">
<title>Node2&#45;&gt;Node19</title>
<g id="a_edge10_Node000002_Node000019"><a xlink:title=" ">
<path fill="none" stroke="#63b8ff" d="M236.4,-175.88C213.91,-168.71 183.76,-156.93 161,-140 139.69,-124.16 121.35,-99.3 110.49,-82.7"/>
<polygon fill="#63b8ff" stroke="#63b8ff" points="113.3,-80.6 104.99,-74.02 107.38,-84.34 113.3,-80.6"/>
</a>
</g>
</g>
<!-- Node20 -->
<g id="Node000020" class="node">
<title>Node20</title>
<g id="a_Node000020"><a xlink:href="central__sentry__iface_8hpp.html" target="_top" xlink:title=" ">
<polygon fill="white" stroke="#666666" points="556.5,-134.5 413.5,-134.5 413.5,-115.5 556.5,-115.5 556.5,-134.5"/>
<text text-anchor="middle" x="485" y="-122.5" font-family="Helvetica,sans-Serif" font-size="10.00">./central_sentry_iface.hpp</text>
</a>
</g>
</g>
<!-- Node2&#45;&gt;Node20 -->
<g id="edge4_Node000002_Node000020" class="edge">
<title>Node2&#45;&gt;Node20</title>
<g id="a_edge4_Node000002_Node000020"><a xlink:title=" ">
<path fill="none" stroke="#63b8ff" d="M299.55,-175.99C337.56,-165.75 401.52,-148.5 443.5,-137.19"/>
<polygon fill="#63b8ff" stroke="#63b8ff" points="444.66,-140.5 453.41,-134.52 442.84,-133.74 444.66,-140.5"/>
</a>
</g>
</g>
<!-- Node24 -->
<g id="Node000024" class="node">
<title>Node24</title>
<g id="a_Node000024"><a xlink:href="sntr_2record_8hpp.html" target="_top" xlink:title=" ">
<polygon fill="white" stroke="#666666" points="244,-134.5 170,-134.5 170,-115.5 244,-115.5 244,-134.5"/>
<text text-anchor="middle" x="207" y="-122.5" font-family="Helvetica,sans-Serif" font-size="10.00">./record.hpp</text>
</a>
</g>
</g>
<!-- Node2&#45;&gt;Node24 -->
<g id="edge7_Node000002_Node000024" class="edge">
<title>Node2&#45;&gt;Node24</title>
<g id="a_edge7_Node000002_Node000024"><a xlink:title=" ">
<path fill="none" stroke="#63b8ff" d="M259,-175.87C249.63,-166.88 234.75,-152.61 223.3,-141.64"/>
<polygon fill="#63b8ff" stroke="#63b8ff" points="225.68,-139.06 216.04,-134.67 220.83,-144.12 225.68,-139.06"/>
</a>
</g>
</g>
<!-- Node25 -->
<g id="Node000025" class="node">
<title>Node25</title>
<g id="a_Node000025"><a xlink:title=" ">
<polygon fill="#e0e0e0" stroke="#999999" points="395.5,-140 262.5,-140 262.5,-110 395.5,-110 395.5,-140"/>
<text text-anchor="start" x="270.5" y="-128" font-family="Helvetica,sans-Serif" font-size="10.00">emlabcpp/experimental</text>
<text text-anchor="middle" x="329" y="-117" font-family="Helvetica,sans-Serif" font-size="10.00">/function_view.h</text>
</a>
</g>
</g>
<!-- Node2&#45;&gt;Node25 -->
<g id="edge9_Node000002_Node000025" class="edge">
<title>Node2&#45;&gt;Node25</title>
<g id="a_edge9_Node000002_Node000025"><a xlink:title=" ">
<path fill="none" stroke="#63b8ff" d="M277,-175.87C284.89,-168.3 296.7,-156.98 307.06,-147.04"/>
<polygon fill="#63b8ff" stroke="#63b8ff" points="309.49,-149.56 314.28,-140.11 304.64,-144.51 309.49,-149.56"/>
</a>
</g>
</g>
<!-- Node3&#45;&gt;Node19 -->
<g id="edge3_Node000003_Node000019" class="edge">
<title>Node3&#45;&gt;Node19</title>
<g id="a_edge3_Node000003_Node000019"><a xlink:title=" ">
<path fill="none" stroke="#63b8ff" d="M63.34,-115.37C69.7,-106.73 79.64,-93.2 87.57,-82.42"/>
<polygon fill="#63b8ff" stroke="#63b8ff" points="90.53,-84.3 93.63,-74.17 84.89,-80.15 90.53,-84.3"/>
</a>
</g>
</g>
<!-- Node21 -->
<g id="Node000021" class="node">
<title>Node21</title>
<g id="a_Node000021"><a xlink:href="sntr_2base_8hpp.html" target="_top" xlink:title=" ">
<polygon fill="#fff0f0" stroke="red" points="552.5,-74 485.5,-74 485.5,-55 552.5,-55 552.5,-74"/>
<text text-anchor="middle" x="519" y="-62" font-family="Helvetica,sans-Serif" font-size="10.00">./base.hpp</text>
</a>
</g>
</g>
<!-- Node20&#45;&gt;Node21 -->
<g id="edge5_Node000020_Node000021" class="edge">
<title>Node20&#45;&gt;Node21</title>
<g id="a_edge5_Node000020_Node000021"><a xlink:title=" ">
<path fill="none" stroke="#63b8ff" d="M490.02,-115.37C494.94,-106.9 502.59,-93.74 508.79,-83.07"/>
<polygon fill="#63b8ff" stroke="#63b8ff" points="511.96,-84.57 513.96,-74.17 505.91,-81.05 511.96,-84.57"/>
</a>
</g>
</g>
<!-- Node23 -->
<g id="Node000023" class="node">
<title>Node23</title>
<g id="a_Node000023"><a xlink:title=" ">
<polygon fill="#e0e0e0" stroke="#999999" points="613.5,-19 562.5,-19 562.5,0 613.5,0 613.5,-19"/>
<text text-anchor="middle" x="588" y="-7" font-family="Helvetica,sans-Serif" font-size="10.00">variant</text>
</a>
</g>
</g>
<!-- Node21&#45;&gt;Node23 -->
<g id="edge6_Node000021_Node000023" class="edge">
<title>Node21&#45;&gt;Node23</title>
<g id="a_edge6_Node000021_Node000023"><a xlink:title=" ">
<path fill="none" stroke="#63b8ff" d="M530.09,-54.98C540.49,-47 556.26,-34.88 568.72,-25.31"/>
<polygon fill="#63b8ff" stroke="#63b8ff" points="570.91,-28.04 576.71,-19.17 566.65,-22.49 570.91,-28.04"/>
</a>
</g>
</g>
<!-- Node24&#45;&gt;Node21 -->
<g id="edge8_Node000024_Node000021" class="edge">
<title>Node24&#45;&gt;Node21</title>
<g id="a_edge8_Node000024_Node000021"><a xlink:title=" ">
<path fill="none" stroke="#63b8ff" d="M233.69,-115.43C240.29,-113.48 247.36,-111.54 254,-110 331.11,-92.11 422.43,-78.39 475.24,-71.16"/>
<polygon fill="#63b8ff" stroke="#63b8ff" points="475.83,-74.62 485.27,-69.81 474.89,-67.68 475.83,-74.62"/>
</a>
</g>
</g>
<!-- Node26&#45;&gt;Node20 -->
<g id="edge13_Node000026_Node000020" class="edge">
<title>Node26&#45;&gt;Node20</title>
<g id="a_edge13_Node000026_Node000020"><a xlink:title=" ">
<path fill="none" stroke="#63b8ff" d="M527.62,-175.87C520.09,-167.05 508.21,-153.16 498.91,-142.27"/>
<polygon fill="#63b8ff" stroke="#63b8ff" points="501.57,-140 492.41,-134.67 496.24,-144.54 501.57,-140"/>
</a>
</g>
</g>
<!-- Node26&#45;&gt;Node21 -->
<g id="edge12_Node000026_Node000021" class="edge">
<title>Node26&#45;&gt;Node21</title>
<g id="a_edge12_Node000026_Node000021"><a xlink:title=" ">
<path fill="none" stroke="#63b8ff" d="M543.48,-175.85C551.05,-167.47 561.6,-154.01 566,-140 569.99,-127.28 571.27,-122.25 566,-110 560.85,-98.03 550.71,-87.76 541.17,-80.12"/>
<polygon fill="#63b8ff" stroke="#63b8ff" points="543.19,-77.26 533.07,-74.11 539.01,-82.88 543.19,-77.26"/>
</a>
</g>
</g>
<!-- Node26&#45;&gt;Node23 -->
<g id="edge14_Node000026_Node000023" class="edge">
<title>Node26&#45;&gt;Node23</title>
<g id="a_edge14_Node000026_Node000023"><a xlink:title=" ">
<path fill="none" stroke="#63b8ff" d="M548.57,-175.73C559.48,-167.84 574.08,-155.16 581,-140 597.61,-103.6 594.53,-55.33 591.1,-29.22"/>
<polygon fill="#63b8ff" stroke="#63b8ff" points="594.54,-28.57 589.61,-19.19 587.61,-29.59 594.54,-28.57"/>
</a>
</g>
</g>
</g>
</svg>
