<?xml version="1.0" encoding="UTF-8" standalone="no"?>
<!DOCTYPE svg PUBLIC "-//W3C//DTD SVG 1.1//EN"
 "http://www.w3.org/Graphics/SVG/1.1/DTD/svg11.dtd">
<!-- Generated by graphviz version 2.43.0 (0)
 -->
<!-- Title: src/sntr/sentry.cpp Pages: 1 -->
<svg width="585pt" height="263pt"
 viewBox="0.00 0.00 585.00 263.00" xmlns="http://www.w3.org/2000/svg" xmlns:xlink="http://www.w3.org/1999/xlink">
<g id="graph0" class="graph" transform="scale(1 1) rotate(0) translate(4 259)">
<title>src/sntr/sentry.cpp</title>
<polygon fill="white" stroke="transparent" points="-4,4 -4,-259 581,-259 581,4 -4,4"/>
<!-- Node1 -->
<g id="node1" class="node">
<title>Node1</title>
<g id="a_node1"><a xlink:title=" ">
<polygon fill="#bfbfbf" stroke="black" points="130,-235.5 130,-254.5 235,-254.5 235,-235.5 130,-235.5"/>
<text text-anchor="middle" x="182.5" y="-242.5" font-family="Helvetica,sans-Serif" font-size="10.00">src/sntr/sentry.cpp</text>
</a>
</g>
</g>
<!-- Node2 -->
<g id="node2" class="node">
<title>Node2</title>
<g id="a_node2"><a xlink:href="sentry_8hpp.html" target="_top" xlink:title=" ">
<polygon fill="white" stroke="black" points="0,-118 0,-137 89,-137 89,-118 0,-118"/>
<text text-anchor="middle" x="44.5" y="-125" font-family="Helvetica,sans-Serif" font-size="10.00">sntr/sentry.hpp</text>
</a>
</g>
</g>
<!-- Node1&#45;&gt;Node2 -->
<g id="edge1" class="edge">
<title>Node1&#45;&gt;Node2</title>
<path fill="none" stroke="midnightblue" d="M172.13,-235.32C148.85,-215.84 92.2,-168.42 62.83,-143.84"/>
<polygon fill="midnightblue" stroke="midnightblue" points="64.91,-141.02 54.99,-137.28 60.41,-146.38 64.91,-141.02"/>
</g>
<!-- Node11 -->
<g id="node5" class="node">
<title>Node11</title>
<g id="a_node5"><a xlink:href="central__sentry_8hpp.html" target="_top" xlink:title=" ">
<polygon fill="white" stroke="black" points="191.5,-179.5 191.5,-198.5 319.5,-198.5 319.5,-179.5 191.5,-179.5"/>
<text text-anchor="middle" x="255.5" y="-186.5" font-family="Helvetica,sans-Serif" font-size="10.00">sntr/central_sentry.hpp</text>
</a>
</g>
</g>
<!-- Node1&#45;&gt;Node11 -->
<g id="edge5" class="edge">
<title>Node1&#45;&gt;Node11</title>
<path fill="none" stroke="midnightblue" d="M194.23,-235.32C205.34,-227.11 222.24,-214.6 235.48,-204.81"/>
<polygon fill="midnightblue" stroke="midnightblue" points="237.6,-207.59 243.56,-198.83 233.44,-201.97 237.6,-207.59"/>
</g>
<!-- Node3 -->
<g id="node3" class="node">
<title>Node3</title>
<g id="a_node3"><a xlink:href="sntr_2base_8hpp.html" target="_top" xlink:title=" ">
<polygon fill="white" stroke="red" points="75,-56.5 75,-75.5 158,-75.5 158,-56.5 75,-56.5"/>
<text text-anchor="middle" x="116.5" y="-63.5" font-family="Helvetica,sans-Serif" font-size="10.00">sntr/base.hpp</text>
</a>
</g>
</g>
<!-- Node2&#45;&gt;Node3 -->
<g id="edge2" class="edge">
<title>Node2&#45;&gt;Node3</title>
<path fill="none" stroke="midnightblue" d="M54.82,-117.98C66.15,-108.61 84.57,-93.38 98.34,-82.01"/>
<polygon fill="midnightblue" stroke="midnightblue" points="100.72,-84.58 106.2,-75.51 96.27,-79.18 100.72,-84.58"/>
</g>
<!-- Node10 -->
<g id="node4" class="node">
<title>Node10</title>
<g id="a_node4"><a xlink:title=" ">
<polygon fill="white" stroke="#bfbfbf" points="55,-0.5 55,-19.5 106,-19.5 106,-0.5 55,-0.5"/>
<text text-anchor="middle" x="80.5" y="-7.5" font-family="Helvetica,sans-Serif" font-size="10.00">variant</text>
</a>
</g>
</g>
<!-- Node2&#45;&gt;Node10 -->
<g id="edge4" class="edge">
<title>Node2&#45;&gt;Node10</title>
<path fill="none" stroke="midnightblue" d="M47,-117.79C50.84,-104.45 58.51,-78.17 65.5,-56 68.29,-47.15 71.53,-37.38 74.28,-29.21"/>
<polygon fill="midnightblue" stroke="midnightblue" points="77.64,-30.19 77.54,-19.6 71.01,-27.95 77.64,-30.19"/>
</g>
<!-- Node3&#45;&gt;Node10 -->
<g id="edge3" class="edge">
<title>Node3&#45;&gt;Node10</title>
<path fill="none" stroke="midnightblue" d="M110.56,-56.08C105.52,-48.53 98.16,-37.49 91.99,-28.23"/>
<polygon fill="midnightblue" stroke="midnightblue" points="94.79,-26.13 86.33,-19.75 88.97,-30.01 94.79,-26.13"/>
</g>
<!-- Node11&#45;&gt;Node3 -->
<g id="edge8" class="edge">
<title>Node11&#45;&gt;Node3</title>
<path fill="none" stroke="midnightblue" d="M203.04,-179.42C179.69,-173.06 153.65,-162.04 136.5,-143 122.4,-127.35 118.03,-102.94 116.79,-86.02"/>
<polygon fill="midnightblue" stroke="midnightblue" points="120.27,-85.55 116.34,-75.71 113.28,-85.85 120.27,-85.55"/>
</g>
<!-- Node12 -->
<g id="node6" class="node">
<title>Node12</title>
<g id="a_node6"><a xlink:href="drv__interfaces_8hpp.html" target="_top" xlink:title=" ">
<polygon fill="white" stroke="red" points="253.5,-118 253.5,-137 387.5,-137 387.5,-118 253.5,-118"/>
<text text-anchor="middle" x="320.5" y="-125" font-family="Helvetica,sans-Serif" font-size="10.00">base/drv_interfaces.hpp</text>
</a>
</g>
</g>
<!-- Node11&#45;&gt;Node12 -->
<g id="edge6" class="edge">
<title>Node11&#45;&gt;Node12</title>
<path fill="none" stroke="midnightblue" d="M264.81,-179.48C274.95,-170.2 291.36,-155.17 303.75,-143.83"/>
<polygon fill="midnightblue" stroke="midnightblue" points="306.19,-146.34 311.2,-137.01 301.46,-141.18 306.19,-146.34"/>
</g>
<!-- Node14 -->
<g id="node7" class="node">
<title>Node14</title>
<g id="a_node7"><a xlink:title=" ">
<polygon fill="white" stroke="#bfbfbf" points="347.5,-56.5 347.5,-75.5 387.5,-75.5 387.5,-56.5 347.5,-56.5"/>
<text text-anchor="middle" x="367.5" y="-63.5" font-family="Helvetica,sans-Serif" font-size="10.00">span</text>
</a>
</g>
</g>
<!-- Node11&#45;&gt;Node14 -->
<g id="edge12" class="edge">
<title>Node11&#45;&gt;Node14</title>
<path fill="none" stroke="midnightblue" d="M319.74,-184.01C348.05,-178.66 378.84,-167.17 396.5,-143 409.71,-124.91 395.42,-100.06 382.63,-83.77"/>
<polygon fill="midnightblue" stroke="midnightblue" points="384.97,-81.12 375.87,-75.7 379.61,-85.61 384.97,-81.12"/>
</g>
<!-- Node15 -->
<g id="node8" class="node">
<title>Node15</title>
<g id="a_node8"><a xlink:href="record_8hpp.html" target="_top" xlink:title=" ">
<polygon fill="white" stroke="black" points="145.5,-118 145.5,-137 235.5,-137 235.5,-118 145.5,-118"/>
<text text-anchor="middle" x="190.5" y="-125" font-family="Helvetica,sans-Serif" font-size="10.00">sntr/record.hpp</text>
</a>
</g>
</g>
<!-- Node11&#45;&gt;Node15 -->
<g id="edge9" class="edge">
<title>Node11&#45;&gt;Node15</title>
<path fill="none" stroke="midnightblue" d="M246.19,-179.48C236.05,-170.2 219.64,-155.17 207.25,-143.83"/>
<polygon fill="midnightblue" stroke="midnightblue" points="209.54,-141.18 199.8,-137.01 204.81,-146.34 209.54,-141.18"/>
</g>
<!-- Node16 -->
<g id="node9" class="node">
<title>Node16</title>
<g id="a_node9"><a xlink:title=" ">
<polygon fill="white" stroke="#bfbfbf" points="444,-112.5 444,-142.5 577,-142.5 577,-112.5 444,-112.5"/>
<text text-anchor="start" x="452" y="-130.5" font-family="Helvetica,sans-Serif" font-size="10.00">emlabcpp/experimental</text>
<text text-anchor="middle" x="510.5" y="-119.5" font-family="Helvetica,sans-Serif" font-size="10.00">/function_view.h</text>
</a>
</g>
</g>
<!-- Node11&#45;&gt;Node16 -->
<g id="edge11" class="edge">
<title>Node11&#45;&gt;Node16</title>
<path fill="none" stroke="midnightblue" d="M292.04,-179.48C330.61,-170.48 392.35,-156.07 440.38,-144.86"/>
<polygon fill="midnightblue" stroke="midnightblue" points="441.46,-148.2 450.4,-142.52 439.87,-141.39 441.46,-148.2"/>
</g>
<!-- Node12&#45;&gt;Node14 -->
<g id="edge7" class="edge">
<title>Node12&#45;&gt;Node14</title>
<path fill="none" stroke="midnightblue" d="M327.23,-117.98C334.28,-109.05 345.53,-94.81 354.35,-83.64"/>
<polygon fill="midnightblue" stroke="midnightblue" points="357.33,-85.53 360.78,-75.51 351.83,-81.19 357.33,-85.53"/>
</g>
<!-- Node15&#45;&gt;Node3 -->
<g id="edge10" class="edge">
<title>Node15&#45;&gt;Node3</title>
<path fill="none" stroke="midnightblue" d="M179.9,-117.98C168.25,-108.61 149.31,-93.38 135.17,-82.01"/>
<polygon fill="midnightblue" stroke="midnightblue" points="137.07,-79.05 127.08,-75.51 132.68,-84.5 137.07,-79.05"/>
</g>
</g>
</svg>
