<?xml version="1.0" encoding="UTF-8" standalone="no"?>
<!DOCTYPE svg PUBLIC "-//W3C//DTD SVG 1.1//EN"
 "http://www.w3.org/Graphics/SVG/1.1/DTD/svg11.dtd">
<!-- Generated by graphviz version 2.43.0 (0)
 -->
<!-- Title: src/scmdio/serial.hpp Pages: 1 -->
<svg width="563pt" height="207pt"
 viewBox="0.00 0.00 563.24 207.00" xmlns="http://www.w3.org/2000/svg" xmlns:xlink="http://www.w3.org/1999/xlink">
<g id="graph0" class="graph" transform="scale(1 1) rotate(0) translate(4 203)">
<title>src/scmdio/serial.hpp</title>
<polygon fill="white" stroke="transparent" points="-4,4 -4,-203 559.24,-203 559.24,4 -4,4"/>
<!-- Node1 -->
<g id="node1" class="node">
<title>Node1</title>
<g id="a_node1"><a xlink:title=" ">
<polygon fill="#bfbfbf" stroke="black" points="276.74,-179.5 276.74,-198.5 396.74,-198.5 396.74,-179.5 276.74,-179.5"/>
<text text-anchor="middle" x="336.74" y="-186.5" font-family="Helvetica,sans-Serif" font-size="10.00">src/scmdio/serial.hpp</text>
</a>
</g>
</g>
<!-- Node2 -->
<g id="node2" class="node">
<title>Node2</title>
<g id="a_node2"><a xlink:title=" ">
<polygon fill="white" stroke="#bfbfbf" points="7.74,-0.5 7.74,-19.5 57.74,-19.5 57.74,-0.5 7.74,-0.5"/>
<text text-anchor="middle" x="32.74" y="-7.5" font-family="Helvetica,sans-Serif" font-size="10.00">io.pb.h</text>
</a>
</g>
</g>
<!-- Node1&#45;&gt;Node2 -->
<g id="edge1" class="edge">
<title>Node1&#45;&gt;Node2</title>
<path fill="none" stroke="midnightblue" d="M283.14,-179.49C198.22,-164.79 38.94,-131.85 5.74,-87 -7.48,-69.15 6.05,-44.24 18.25,-27.87"/>
<polygon fill="midnightblue" stroke="midnightblue" points="21.22,-29.76 24.72,-19.76 15.75,-25.4 21.22,-29.76"/>
</g>
<!-- Node3 -->
<g id="node3" class="node">
<title>Node3</title>
<g id="a_node3"><a xlink:href="async__cobs_8hpp.html" target="_top" xlink:title=" ">
<polygon fill="white" stroke="black" points="223.74,-123.5 223.74,-142.5 355.74,-142.5 355.74,-123.5 223.74,-123.5"/>
<text text-anchor="middle" x="289.74" y="-130.5" font-family="Helvetica,sans-Serif" font-size="10.00">scmdio/async_cobs.hpp</text>
</a>
</g>
</g>
<!-- Node1&#45;&gt;Node3 -->
<g id="edge2" class="edge">
<title>Node1&#45;&gt;Node3</title>
<path fill="none" stroke="midnightblue" d="M328.97,-179.08C322.2,-171.3 312.19,-159.8 303.98,-150.37"/>
<polygon fill="midnightblue" stroke="midnightblue" points="306.56,-148 297.35,-142.75 301.28,-152.59 306.56,-148"/>
</g>
<!-- Node7 -->
<g id="node6" class="node">
<title>Node7</title>
<g id="a_node6"><a xlink:title=" ">
<polygon fill="white" stroke="#bfbfbf" points="439.74,-62 439.74,-81 527.74,-81 527.74,-62 439.74,-62"/>
<text text-anchor="middle" x="483.74" y="-69" font-family="Helvetica,sans-Serif" font-size="10.00">boost/asio.hpp</text>
</a>
</g>
</g>
<!-- Node1&#45;&gt;Node7 -->
<g id="edge9" class="edge">
<title>Node1&#45;&gt;Node7</title>
<path fill="none" stroke="midnightblue" d="M344.48,-179.42C356.47,-166.4 380.56,-141.24 403.74,-123 421.32,-109.16 442.85,-95.75 459.15,-86.23"/>
<polygon fill="midnightblue" stroke="midnightblue" points="461.14,-89.12 468.06,-81.1 457.65,-83.05 461.14,-89.12"/>
</g>
<!-- Node10 -->
<g id="node9" class="node">
<title>Node10</title>
<g id="a_node9"><a xlink:title=" ">
<polygon fill="white" stroke="#bfbfbf" points="412.24,-123.5 412.24,-142.5 555.24,-142.5 555.24,-123.5 412.24,-123.5"/>
<text text-anchor="middle" x="483.74" y="-130.5" font-family="Helvetica,sans-Serif" font-size="10.00">boost/asio/serial_port.hpp</text>
</a>
</g>
</g>
<!-- Node1&#45;&gt;Node10 -->
<g id="edge10" class="edge">
<title>Node1&#45;&gt;Node10</title>
<path fill="none" stroke="midnightblue" d="M360.03,-179.44C384.54,-170.44 423.33,-156.19 450.94,-146.05"/>
<polygon fill="midnightblue" stroke="midnightblue" points="452.37,-149.25 460.55,-142.52 449.96,-142.68 452.37,-149.25"/>
</g>
<!-- Node4 -->
<g id="node4" class="node">
<title>Node4</title>
<g id="a_node4"><a xlink:href="exceptions_8hpp.html" target="_top" xlink:title=" ">
<polygon fill="white" stroke="red" points="15.24,-62 15.24,-81 144.24,-81 144.24,-62 15.24,-62"/>
<text text-anchor="middle" x="79.74" y="-69" font-family="Helvetica,sans-Serif" font-size="10.00">scmdio/exceptions.hpp</text>
</a>
</g>
</g>
<!-- Node3&#45;&gt;Node4 -->
<g id="edge3" class="edge">
<title>Node3&#45;&gt;Node4</title>
<path fill="none" stroke="midnightblue" d="M259.65,-123.48C222.85,-113.05 160.42,-95.36 119.64,-83.81"/>
<polygon fill="midnightblue" stroke="midnightblue" points="120.34,-80.37 109.77,-81.01 118.44,-87.1 120.34,-80.37"/>
</g>
<!-- Node6 -->
<g id="node5" class="node">
<title>Node6</title>
<g id="a_node5"><a xlink:title=" ">
<polygon fill="white" stroke="#bfbfbf" points="162.74,-62 162.74,-81 204.74,-81 204.74,-62 162.74,-62"/>
<text text-anchor="middle" x="183.74" y="-69" font-family="Helvetica,sans-Serif" font-size="10.00">array</text>
</a>
</g>
</g>
<!-- Node3&#45;&gt;Node6 -->
<g id="edge5" class="edge">
<title>Node3&#45;&gt;Node6</title>
<path fill="none" stroke="midnightblue" d="M274.55,-123.48C257.07,-113.67 228.16,-97.43 207.65,-85.92"/>
<polygon fill="midnightblue" stroke="midnightblue" points="209.33,-82.85 198.89,-81.01 205.9,-88.96 209.33,-82.85"/>
</g>
<!-- Node3&#45;&gt;Node7 -->
<g id="edge6" class="edge">
<title>Node3&#45;&gt;Node7</title>
<path fill="none" stroke="midnightblue" d="M317.53,-123.48C351.39,-113.09 408.71,-95.51 446.39,-83.95"/>
<polygon fill="midnightblue" stroke="midnightblue" points="447.46,-87.29 455.99,-81.01 445.41,-80.6 447.46,-87.29"/>
</g>
<!-- Node8 -->
<g id="node7" class="node">
<title>Node8</title>
<g id="a_node7"><a xlink:title=" ">
<polygon fill="white" stroke="#bfbfbf" points="223.24,-56.5 223.24,-86.5 356.24,-86.5 356.24,-56.5 223.24,-56.5"/>
<text text-anchor="start" x="231.24" y="-74.5" font-family="Helvetica,sans-Serif" font-size="10.00">emlabcpp/experimental</text>
<text text-anchor="middle" x="289.74" y="-63.5" font-family="Helvetica,sans-Serif" font-size="10.00">/cobs.h</text>
</a>
</g>
</g>
<!-- Node3&#45;&gt;Node8 -->
<g id="edge7" class="edge">
<title>Node3&#45;&gt;Node8</title>
<path fill="none" stroke="midnightblue" d="M289.74,-123.48C289.74,-116.47 289.74,-106.19 289.74,-96.7"/>
<polygon fill="midnightblue" stroke="midnightblue" points="293.24,-96.52 289.74,-86.52 286.24,-96.52 293.24,-96.52"/>
</g>
<!-- Node9 -->
<g id="node8" class="node">
<title>Node9</title>
<g id="a_node8"><a xlink:title=" ">
<polygon fill="white" stroke="#bfbfbf" points="374.24,-62 374.24,-81 421.24,-81 421.24,-62 374.24,-62"/>
<text text-anchor="middle" x="397.74" y="-69" font-family="Helvetica,sans-Serif" font-size="10.00">vector</text>
</a>
</g>
</g>
<!-- Node3&#45;&gt;Node9 -->
<g id="edge8" class="edge">
<title>Node3&#45;&gt;Node9</title>
<path fill="none" stroke="midnightblue" d="M305.21,-123.48C323.01,-113.67 352.48,-97.43 373.37,-85.92"/>
<polygon fill="midnightblue" stroke="midnightblue" points="375.22,-88.9 382.29,-81.01 371.84,-82.77 375.22,-88.9"/>
</g>
<!-- Node4&#45;&gt;Node2 -->
<g id="edge4" class="edge">
<title>Node4&#45;&gt;Node2</title>
<path fill="none" stroke="midnightblue" d="M73,-61.98C65.95,-53.05 54.7,-38.81 45.88,-27.64"/>
<polygon fill="midnightblue" stroke="midnightblue" points="48.4,-25.19 39.46,-19.51 42.91,-29.53 48.4,-25.19"/>
</g>
</g>
</svg>
