<?xml version="1.0" encoding="UTF-8" standalone="no"?>
<!DOCTYPE svg PUBLIC "-//W3C//DTD SVG 1.1//EN"
 "http://www.w3.org/Graphics/SVG/1.1/DTD/svg11.dtd">
<!-- Generated by graphviz version 2.43.0 (0)
 -->
<!-- Title: src/host/serial.cpp Pages: 1 -->
<svg width="603pt" height="151pt"
 viewBox="0.00 0.00 602.50 151.00" xmlns="http://www.w3.org/2000/svg" xmlns:xlink="http://www.w3.org/1999/xlink">
<g id="graph0" class="graph" transform="scale(1 1) rotate(0) translate(4 147)">
<title>src/host/serial.cpp</title>
<polygon fill="white" stroke="transparent" points="-4,4 -4,-147 598.5,-147 598.5,4 -4,4"/>
<!-- Node1 -->
<g id="node1" class="node">
<title>Node1</title>
<g id="a_node1"><a xlink:title=" ">
<polygon fill="#bfbfbf" stroke="black" points="304.5,-123.5 304.5,-142.5 409.5,-142.5 409.5,-123.5 304.5,-123.5"/>
<text text-anchor="middle" x="357" y="-130.5" font-family="Helvetica,sans-Serif" font-size="10.00">src/host/serial.cpp</text>
</a>
</g>
</g>
<!-- Node2 -->
<g id="node2" class="node">
<title>Node2</title>
<g id="a_node2"><a xlink:href="serial_8hpp.html" target="_top" xlink:title=" ">
<polygon fill="white" stroke="black" points="143.5,-67.5 143.5,-86.5 232.5,-86.5 232.5,-67.5 143.5,-67.5"/>
<text text-anchor="middle" x="188" y="-74.5" font-family="Helvetica,sans-Serif" font-size="10.00">host/serial.hpp</text>
</a>
</g>
</g>
<!-- Node1&#45;&gt;Node2 -->
<g id="edge1" class="edge">
<title>Node1&#45;&gt;Node2</title>
<path fill="none" stroke="midnightblue" d="M330.22,-123.44C301.67,-114.32 256.27,-99.81 224.46,-89.65"/>
<polygon fill="midnightblue" stroke="midnightblue" points="225.24,-86.23 214.65,-86.52 223.11,-92.89 225.24,-86.23"/>
</g>
<!-- Node6 -->
<g id="node6" class="node">
<title>Node6</title>
<g id="a_node6"><a xlink:href="async__cobs_8hpp.html" target="_top" xlink:title=" ">
<polygon fill="white" stroke="black" points="298,-67.5 298,-86.5 416,-86.5 416,-67.5 298,-67.5"/>
<text text-anchor="middle" x="357" y="-74.5" font-family="Helvetica,sans-Serif" font-size="10.00">host/async_cobs.hpp</text>
</a>
</g>
</g>
<!-- Node1&#45;&gt;Node6 -->
<g id="edge5" class="edge">
<title>Node1&#45;&gt;Node6</title>
<path fill="none" stroke="midnightblue" d="M357,-123.08C357,-116.01 357,-105.86 357,-96.99"/>
<polygon fill="midnightblue" stroke="midnightblue" points="360.5,-96.75 357,-86.75 353.5,-96.75 360.5,-96.75"/>
</g>
<!-- Node10 -->
<g id="node10" class="node">
<title>Node10</title>
<g id="a_node10"><a xlink:title=" ">
<polygon fill="white" stroke="#bfbfbf" points="434.5,-67.5 434.5,-86.5 533.5,-86.5 533.5,-67.5 434.5,-67.5"/>
<text text-anchor="middle" x="484" y="-74.5" font-family="Helvetica,sans-Serif" font-size="10.00">emlabcpp/view.h</text>
</a>
</g>
</g>
<!-- Node1&#45;&gt;Node10 -->
<g id="edge10" class="edge">
<title>Node1&#45;&gt;Node10</title>
<path fill="none" stroke="midnightblue" d="M377.12,-123.44C398.02,-114.56 430.93,-100.56 454.72,-90.45"/>
<polygon fill="midnightblue" stroke="midnightblue" points="456.14,-93.65 463.97,-86.52 453.4,-87.21 456.14,-93.65"/>
</g>
<!-- Node3 -->
<g id="node3" class="node">
<title>Node3</title>
<g id="a_node3"><a xlink:title=" ">
<polygon fill="white" stroke="#bfbfbf" points="0,-6 0,-25 50,-25 50,-6 0,-6"/>
<text text-anchor="middle" x="25" y="-13" font-family="Helvetica,sans-Serif" font-size="10.00">io.pb.h</text>
</a>
</g>
</g>
<!-- Node2&#45;&gt;Node3 -->
<g id="edge2" class="edge">
<title>Node2&#45;&gt;Node3</title>
<path fill="none" stroke="midnightblue" d="M161.62,-67.38C135.42,-58.68 94.17,-44.62 59,-31 57.35,-30.36 55.67,-29.7 53.97,-29.01"/>
<polygon fill="midnightblue" stroke="midnightblue" points="54.9,-25.61 44.33,-25.01 52.22,-32.07 54.9,-25.61"/>
</g>
<!-- Node4 -->
<g id="node4" class="node">
<title>Node4</title>
<g id="a_node4"><a xlink:title=" ">
<polygon fill="white" stroke="#bfbfbf" points="230,-6 230,-25 318,-25 318,-6 230,-6"/>
<text text-anchor="middle" x="274" y="-13" font-family="Helvetica,sans-Serif" font-size="10.00">boost/asio.hpp</text>
</a>
</g>
</g>
<!-- Node2&#45;&gt;Node4 -->
<g id="edge3" class="edge">
<title>Node2&#45;&gt;Node4</title>
<path fill="none" stroke="midnightblue" d="M200.32,-67.48C214.12,-57.93 236.7,-42.31 253.23,-30.87"/>
<polygon fill="midnightblue" stroke="midnightblue" points="255.47,-33.58 261.7,-25.01 251.49,-27.82 255.47,-33.58"/>
</g>
<!-- Node5 -->
<g id="node5" class="node">
<title>Node5</title>
<g id="a_node5"><a xlink:title=" ">
<polygon fill="white" stroke="#bfbfbf" points="68.5,-6 68.5,-25 211.5,-25 211.5,-6 68.5,-6"/>
<text text-anchor="middle" x="140" y="-13" font-family="Helvetica,sans-Serif" font-size="10.00">boost/asio/serial_port.hpp</text>
</a>
</g>
</g>
<!-- Node2&#45;&gt;Node5 -->
<g id="edge4" class="edge">
<title>Node2&#45;&gt;Node5</title>
<path fill="none" stroke="midnightblue" d="M181.12,-67.48C173.85,-58.46 162.2,-44.02 153.16,-32.81"/>
<polygon fill="midnightblue" stroke="midnightblue" points="155.87,-30.59 146.86,-25.01 150.42,-34.99 155.87,-30.59"/>
</g>
<!-- Node6&#45;&gt;Node4 -->
<g id="edge7" class="edge">
<title>Node6&#45;&gt;Node4</title>
<path fill="none" stroke="midnightblue" d="M345.11,-67.48C331.8,-57.93 310,-42.31 294.04,-30.87"/>
<polygon fill="midnightblue" stroke="midnightblue" points="296.04,-27.99 285.87,-25.01 291.96,-33.68 296.04,-27.99"/>
</g>
<!-- Node7 -->
<g id="node7" class="node">
<title>Node7</title>
<g id="a_node7"><a xlink:title=" ">
<polygon fill="white" stroke="#bfbfbf" points="336,-6 336,-25 378,-25 378,-6 336,-6"/>
<text text-anchor="middle" x="357" y="-13" font-family="Helvetica,sans-Serif" font-size="10.00">array</text>
</a>
</g>
</g>
<!-- Node6&#45;&gt;Node7 -->
<g id="edge6" class="edge">
<title>Node6&#45;&gt;Node7</title>
<path fill="none" stroke="midnightblue" d="M357,-67.48C357,-59.08 357,-45.98 357,-35.16"/>
<polygon fill="midnightblue" stroke="midnightblue" points="360.5,-35.01 357,-25.01 353.5,-35.01 360.5,-35.01"/>
</g>
<!-- Node8 -->
<g id="node8" class="node">
<title>Node8</title>
<g id="a_node8"><a xlink:title=" ">
<polygon fill="white" stroke="#bfbfbf" points="396.5,-0.5 396.5,-30.5 529.5,-30.5 529.5,-0.5 396.5,-0.5"/>
<text text-anchor="start" x="404.5" y="-18.5" font-family="Helvetica,sans-Serif" font-size="10.00">emlabcpp/experimental</text>
<text text-anchor="middle" x="463" y="-7.5" font-family="Helvetica,sans-Serif" font-size="10.00">/cobs.h</text>
</a>
</g>
</g>
<!-- Node6&#45;&gt;Node8 -->
<g id="edge8" class="edge">
<title>Node6&#45;&gt;Node8</title>
<path fill="none" stroke="midnightblue" d="M372.19,-67.48C387.01,-59.15 410.08,-46.21 429.25,-35.45"/>
<polygon fill="midnightblue" stroke="midnightblue" points="431.01,-38.47 438.02,-30.52 427.58,-32.37 431.01,-38.47"/>
</g>
<!-- Node9 -->
<g id="node9" class="node">
<title>Node9</title>
<g id="a_node9"><a xlink:title=" ">
<polygon fill="white" stroke="#bfbfbf" points="547.5,-6 547.5,-25 594.5,-25 594.5,-6 547.5,-6"/>
<text text-anchor="middle" x="571" y="-13" font-family="Helvetica,sans-Serif" font-size="10.00">vector</text>
</a>
</g>
</g>
<!-- Node6&#45;&gt;Node9 -->
<g id="edge9" class="edge">
<title>Node6&#45;&gt;Node9</title>
<path fill="none" stroke="midnightblue" d="M401.05,-67.47C438.32,-59.7 492.87,-47 539,-31 540.66,-30.42 542.36,-29.79 544.06,-29.13"/>
<polygon fill="midnightblue" stroke="midnightblue" points="545.79,-32.19 553.63,-25.07 543.06,-25.75 545.79,-32.19"/>
</g>
</g>
</svg>
