<?xml version="1.0" encoding="UTF-8" standalone="no"?>
<!DOCTYPE svg PUBLIC "-//W3C//DTD SVG 1.1//EN"
 "http://www.w3.org/Graphics/SVG/1.1/DTD/svg11.dtd">
<!-- Generated by graphviz version 2.43.0 (0)
 -->
<!-- Title: src/scmdio/serial.hpp Pages: 1 -->
<svg width="689pt" height="148pt"
 viewBox="0.00 0.00 689.00 148.00" xmlns="http://www.w3.org/2000/svg" xmlns:xlink="http://www.w3.org/1999/xlink">
<g id="graph0" class="graph" transform="scale(1 1) rotate(0) translate(4 144)">
<title>src/scmdio/serial.hpp</title>
<!-- Node1 -->
<g id="Node000001" class="node">
<title>Node1</title>
<g id="a_Node000001"><a xlink:title=" ">
<polygon fill="#999999" stroke="#666666" points="518.5,-140 398.5,-140 398.5,-121 518.5,-121 518.5,-140"/>
<text text-anchor="middle" x="458.5" y="-128" font-family="Helvetica,sans-Serif" font-size="10.00">src/scmdio/serial.hpp</text>
</a>
</g>
</g>
<!-- Node2 -->
<g id="Node000002" class="node">
<title>Node2</title>
<g id="a_Node000002"><a xlink:href="def_8h.html" target="_top" xlink:title=" ">
<polygon fill="white" stroke="#666666" points="297,-85 220,-85 220,-66 297,-66 297,-85"/>
<text text-anchor="middle" x="258.5" y="-73" font-family="Helvetica,sans-Serif" font-size="10.00">../iface/def.h</text>
</a>
</g>
</g>
<!-- Node1&#45;&gt;Node2 -->
<g id="edge1_Node000001_Node000002" class="edge">
<title>Node1&#45;&gt;Node2</title>
<g id="a_edge1_Node000001_Node000002"><a xlink:title=" ">
<path fill="none" stroke="#63b8ff" d="M426.37,-120.98C392.35,-111.97 338.5,-97.7 301,-87.76"/>
<polygon fill="#63b8ff" stroke="#63b8ff" points="301.45,-84.26 290.89,-85.08 299.66,-91.03 301.45,-84.26"/>
</a>
</g>
</g>
<!-- Node10 -->
<g id="Node000010" class="node">
<title>Node10</title>
<g id="a_Node000010"><a xlink:href="port_8hpp.html" target="_top" xlink:title=" ">
<polygon fill="white" stroke="#666666" points="520,-85 457,-85 457,-66 520,-66 520,-85"/>
<text text-anchor="middle" x="488.5" y="-73" font-family="Helvetica,sans-Serif" font-size="10.00">./port.hpp</text>
</a>
</g>
</g>
<!-- Node1&#45;&gt;Node10 -->
<g id="edge6_Node000001_Node000010" class="edge">
<title>Node1&#45;&gt;Node10</title>
<g id="a_edge6_Node000001_Node000010"><a xlink:title=" ">
<path fill="none" stroke="#63b8ff" d="M463.45,-120.75C467.56,-113.49 473.53,-102.95 478.6,-93.98"/>
<polygon fill="#63b8ff" stroke="#63b8ff" points="481.76,-95.52 483.64,-85.09 475.67,-92.07 481.76,-95.52"/>
</a>
</g>
</g>
<!-- Node11 -->
<g id="Node000011" class="node">
<title>Node11</title>
<g id="a_Node000011"><a xlink:href="scmdio_2base_8hpp.html" target="_top" xlink:title=" ">
<polygon fill="#fff0f0" stroke="red" points="459,-24.5 398,-24.5 398,-5.5 459,-5.5 459,-24.5"/>
<text text-anchor="middle" x="428.5" y="-12.5" font-family="Helvetica,sans-Serif" font-size="10.00">base.hpp</text>
</a>
</g>
</g>
<!-- Node1&#45;&gt;Node11 -->
<g id="edge10_Node000001_Node000011" class="edge">
<title>Node1&#45;&gt;Node11</title>
<g id="a_edge10_Node000001_Node000011"><a xlink:title=" ">
<path fill="none" stroke="#63b8ff" d="M456.25,-120.97C451.4,-102.65 439.91,-59.18 433.34,-34.31"/>
<polygon fill="#63b8ff" stroke="#63b8ff" points="436.72,-33.4 430.78,-24.63 429.95,-35.19 436.72,-33.4"/>
</a>
</g>
</g>
<!-- Node18 -->
<g id="Node000018" class="node">
<title>Node18</title>
<g id="a_Node000018"><a xlink:title=" ">
<polygon fill="#e0e0e0" stroke="#999999" points="681,-85 538,-85 538,-66 681,-66 681,-85"/>
<text text-anchor="middle" x="609.5" y="-73" font-family="Helvetica,sans-Serif" font-size="10.00">boost/asio/serial_port.hpp</text>
</a>
</g>
</g>
<!-- Node1&#45;&gt;Node18 -->
<g id="edge11_Node000001_Node000018" class="edge">
<title>Node1&#45;&gt;Node18</title>
<g id="a_edge11_Node000001_Node000018"><a xlink:title=" ">
<path fill="none" stroke="#63b8ff" d="M482.76,-120.98C507.82,-112.19 547.13,-98.39 575.33,-88.49"/>
<polygon fill="#63b8ff" stroke="#63b8ff" points="576.52,-91.78 584.8,-85.17 574.2,-85.18 576.52,-91.78"/>
</a>
</g>
</g>
<!-- Node3 -->
<g id="Node000003" class="node">
<title>Node3</title>
<g id="a_Node000003"><a xlink:href="base_8h.html" target="_top" xlink:title=" ">
<polygon fill="#fff0f0" stroke="red" points="55,-24.5 0,-24.5 0,-5.5 55,-5.5 55,-24.5"/>
<text text-anchor="middle" x="27.5" y="-12.5" font-family="Helvetica,sans-Serif" font-size="10.00">./base.h</text>
</a>
</g>
</g>
<!-- Node2&#45;&gt;Node3 -->
<g id="edge2_Node000002_Node000003" class="edge">
<title>Node2&#45;&gt;Node3</title>
<g id="a_edge2_Node000002_Node000003"><a xlink:title=" ">
<path fill="none" stroke="#63b8ff" d="M219.95,-67.44C180.3,-59.77 116.95,-46.39 63.5,-30 61.58,-29.41 59.61,-28.77 57.64,-28.09"/>
<polygon fill="#63b8ff" stroke="#63b8ff" points="58.47,-24.67 47.88,-24.52 56.07,-31.24 58.47,-24.67"/>
</a>
</g>
</g>
<!-- Node7 -->
<g id="Node000007" class="node">
<title>Node7</title>
<g id="a_Node000007"><a xlink:title=" ">
<polygon fill="#e0e0e0" stroke="#999999" points="206,-30 73,-30 73,0 206,0 206,-30"/>
<text text-anchor="start" x="81" y="-18" font-family="Helvetica,sans-Serif" font-size="10.00">emlabcpp/experimental</text>
<text text-anchor="middle" x="139.5" y="-7" font-family="Helvetica,sans-Serif" font-size="10.00">/string_buffer.h</text>
</a>
</g>
</g>
<!-- Node2&#45;&gt;Node7 -->
<g id="edge3_Node000002_Node000007" class="edge">
<title>Node2&#45;&gt;Node7</title>
<g id="a_edge3_Node000002_Node000007"><a xlink:title=" ">
<path fill="none" stroke="#63b8ff" d="M241.2,-65.99C224.58,-57.82 198.9,-45.2 177.51,-34.69"/>
<polygon fill="#63b8ff" stroke="#63b8ff" points="178.86,-31.45 168.34,-30.18 175.77,-37.73 178.86,-31.45"/>
</a>
</g>
</g>
<!-- Node8 -->
<g id="Node000008" class="node">
<title>Node8</title>
<g id="a_Node000008"><a xlink:title=" ">
<polygon fill="#e0e0e0" stroke="#999999" points="293,-24.5 224,-24.5 224,-5.5 293,-5.5 293,-24.5"/>
<text text-anchor="middle" x="258.5" y="-12.5" font-family="Helvetica,sans-Serif" font-size="10.00">vari/vopt.h</text>
</a>
</g>
</g>
<!-- Node2&#45;&gt;Node8 -->
<g id="edge4_Node000002_Node000008" class="edge">
<title>Node2&#45;&gt;Node8</title>
<g id="a_edge4_Node000002_Node000008"><a xlink:title=" ">
<path fill="none" stroke="#63b8ff" d="M258.5,-65.87C258.5,-57.75 258.5,-45.31 258.5,-34.89"/>
<polygon fill="#63b8ff" stroke="#63b8ff" points="262,-34.67 258.5,-24.67 255,-34.67 262,-34.67"/>
</a>
</g>
</g>
<!-- Node9 -->
<g id="Node000009" class="node">
<title>Node9</title>
<g id="a_Node000009"><a xlink:title=" ">
<polygon fill="#e0e0e0" stroke="#999999" points="379.5,-24.5 311.5,-24.5 311.5,-5.5 379.5,-5.5 379.5,-24.5"/>
<text text-anchor="middle" x="345.5" y="-12.5" font-family="Helvetica,sans-Serif" font-size="10.00">vari/vval.h</text>
</a>
</g>
</g>
<!-- Node2&#45;&gt;Node9 -->
<g id="edge5_Node000002_Node000009" class="edge">
<title>Node2&#45;&gt;Node9</title>
<g id="a_edge5_Node000002_Node000009"><a xlink:title=" ">
<path fill="none" stroke="#63b8ff" d="M271.34,-65.87C285.22,-56.54 307.57,-41.51 324.11,-30.38"/>
<polygon fill="#63b8ff" stroke="#63b8ff" points="326.26,-33.15 332.61,-24.67 322.36,-27.34 326.26,-33.15"/>
</a>
</g>
</g>
<!-- Node10&#45;&gt;Node11 -->
<g id="edge7_Node000010_Node000011" class="edge">
<title>Node10&#45;&gt;Node11</title>
<g id="a_edge7_Node000010_Node000011"><a xlink:title=" ">
<path fill="none" stroke="#63b8ff" d="M479.65,-65.87C470.52,-56.97 456.08,-42.89 444.86,-31.95"/>
<polygon fill="#63b8ff" stroke="#63b8ff" points="446.99,-29.14 437.39,-24.67 442.11,-34.15 446.99,-29.14"/>
</a>
</g>
</g>
<!-- Node16 -->
<g id="Node000016" class="node">
<title>Node16</title>
<g id="a_Node000016"><a xlink:title=" ">
<polygon fill="#e0e0e0" stroke="#999999" points="610,-30 477,-30 477,0 610,0 610,-30"/>
<text text-anchor="start" x="485" y="-18" font-family="Helvetica,sans-Serif" font-size="10.00">emlabcpp/experimental</text>
<text text-anchor="middle" x="543.5" y="-7" font-family="Helvetica,sans-Serif" font-size="10.00">/cobs.h</text>
</a>
</g>
</g>
<!-- Node10&#45;&gt;Node16 -->
<g id="edge8_Node000010_Node000016" class="edge">
<title>Node10&#45;&gt;Node16</title>
<g id="a_edge8_Node000010_Node000016"><a xlink:title=" ">
<path fill="none" stroke="#63b8ff" d="M496.62,-65.87C503.59,-58.44 513.96,-47.42 523.18,-37.62"/>
<polygon fill="#63b8ff" stroke="#63b8ff" points="525.93,-39.8 530.23,-30.11 520.83,-35 525.93,-39.8"/>
</a>
</g>
</g>
<!-- Node17 -->
<g id="Node000017" class="node">
<title>Node17</title>
<g id="a_Node000017"><a xlink:title=" ">
<polygon fill="#e0e0e0" stroke="#999999" points="675,-24.5 628,-24.5 628,-5.5 675,-5.5 675,-24.5"/>
<text text-anchor="middle" x="651.5" y="-12.5" font-family="Helvetica,sans-Serif" font-size="10.00">vector</text>
</a>
</g>
</g>
<!-- Node10&#45;&gt;Node17 -->
<g id="edge9_Node000010_Node000017" class="edge">
<title>Node10&#45;&gt;Node17</title>
<g id="a_edge9_Node000010_Node000017"><a xlink:title=" ">
<path fill="none" stroke="#63b8ff" d="M515.84,-65.96C542.51,-57.46 584.12,-43.72 619.5,-30 620.71,-29.53 621.94,-29.04 623.18,-28.54"/>
<polygon fill="#63b8ff" stroke="#63b8ff" points="624.8,-31.66 632.66,-24.56 622.08,-25.21 624.8,-31.66"/>
</a>
</g>
</g>
</g>
</svg>
