<?xml version="1.0" encoding="UTF-8" standalone="no"?>
<!DOCTYPE svg PUBLIC "-//W3C//DTD SVG 1.1//EN"
 "http://www.w3.org/Graphics/SVG/1.1/DTD/svg11.dtd">
<!-- Generated by graphviz version 2.43.0 (0)
 -->
<!-- Title: src/host/serial.cpp Pages: 1 -->
<svg width="500pt" height="252pt"
 viewBox="0.00 0.00 499.59 252.00" xmlns="http://www.w3.org/2000/svg" xmlns:xlink="http://www.w3.org/1999/xlink">
<g id="graph0" class="graph" transform="scale(1 1) rotate(0) translate(4 248)">
<title>src/host/serial.cpp</title>
<polygon fill="white" stroke="transparent" points="-4,4 -4,-248 495.59,-248 495.59,4 -4,4"/>
<!-- Node1 -->
<g id="node1" class="node">
<title>Node1</title>
<g id="a_node1"><a xlink:title=" ">
<polygon fill="#bfbfbf" stroke="black" points="289.59,-224.5 289.59,-243.5 394.59,-243.5 394.59,-224.5 289.59,-224.5"/>
<text text-anchor="middle" x="342.09" y="-231.5" font-family="Helvetica,sans-Serif" font-size="10.00">src/host/serial.cpp</text>
</a>
</g>
</g>
<!-- Node2 -->
<g id="node2" class="node">
<title>Node2</title>
<g id="a_node2"><a xlink:href="serial_8hpp.html" target="_top" xlink:title=" ">
<polygon fill="white" stroke="black" points="145.59,-168.5 145.59,-187.5 234.59,-187.5 234.59,-168.5 145.59,-168.5"/>
<text text-anchor="middle" x="190.09" y="-175.5" font-family="Helvetica,sans-Serif" font-size="10.00">host/serial.hpp</text>
</a>
</g>
</g>
<!-- Node1&#45;&gt;Node2 -->
<g id="edge1" class="edge">
<title>Node1&#45;&gt;Node2</title>
<path fill="none" stroke="midnightblue" d="M318.01,-224.44C292.55,-215.4 252.2,-201.06 223.64,-190.92"/>
<polygon fill="midnightblue" stroke="midnightblue" points="224.66,-187.57 214.07,-187.52 222.32,-194.16 224.66,-187.57"/>
</g>
<!-- Node3 -->
<g id="node3" class="node">
<title>Node3</title>
<g id="a_node3"><a xlink:href="async__cobs_8hpp.html" target="_top" xlink:title=" ">
<polygon fill="white" stroke="red" points="218.09,-112.5 218.09,-131.5 336.09,-131.5 336.09,-112.5 218.09,-112.5"/>
<text text-anchor="middle" x="277.09" y="-119.5" font-family="Helvetica,sans-Serif" font-size="10.00">host/async_cobs.hpp</text>
</a>
</g>
</g>
<!-- Node1&#45;&gt;Node3 -->
<g id="edge9" class="edge">
<title>Node1&#45;&gt;Node3</title>
<path fill="none" stroke="midnightblue" d="M336.99,-224.37C326.31,-206.3 301.43,-164.18 287.32,-140.31"/>
<polygon fill="midnightblue" stroke="midnightblue" points="290.27,-138.42 282.17,-131.59 284.25,-141.98 290.27,-138.42"/>
</g>
<!-- Node4 -->
<g id="node4" class="node">
<title>Node4</title>
<g id="a_node4"><a xlink:href="exceptions_8hpp.html" target="_top" xlink:title=" ">
<polygon fill="white" stroke="red" points="251.59,-56.5 251.59,-75.5 366.59,-75.5 366.59,-56.5 251.59,-56.5"/>
<text text-anchor="middle" x="309.09" y="-63.5" font-family="Helvetica,sans-Serif" font-size="10.00">host/exceptions.hpp</text>
</a>
</g>
</g>
<!-- Node1&#45;&gt;Node4 -->
<g id="edge10" class="edge">
<title>Node1&#45;&gt;Node4</title>
<path fill="none" stroke="midnightblue" d="M344.31,-224.47C349.15,-204.23 359.14,-152.05 345.09,-112 341.31,-101.21 333.73,-91.08 326.49,-83.18"/>
<polygon fill="midnightblue" stroke="midnightblue" points="328.76,-80.49 319.26,-75.81 323.77,-85.4 328.76,-80.49"/>
</g>
<!-- Node12 -->
<g id="node8" class="node">
<title>Node12</title>
<g id="a_node8"><a xlink:title=" ">
<polygon fill="white" stroke="#bfbfbf" points="392.59,-168.5 392.59,-187.5 491.59,-187.5 491.59,-168.5 392.59,-168.5"/>
<text text-anchor="middle" x="442.09" y="-175.5" font-family="Helvetica,sans-Serif" font-size="10.00">emlabcpp/view.h</text>
</a>
</g>
</g>
<!-- Node1&#45;&gt;Node12 -->
<g id="edge11" class="edge">
<title>Node1&#45;&gt;Node12</title>
<path fill="none" stroke="midnightblue" d="M358.16,-224.32C374.05,-215.74 398.6,-202.49 417.05,-192.52"/>
<polygon fill="midnightblue" stroke="midnightblue" points="418.93,-195.49 426.07,-187.65 415.61,-189.33 418.93,-195.49"/>
</g>
<!-- Node2&#45;&gt;Node3 -->
<g id="edge2" class="edge">
<title>Node2&#45;&gt;Node3</title>
<path fill="none" stroke="midnightblue" d="M204.07,-168.32C217.64,-159.9 238.47,-146.97 254.42,-137.07"/>
<polygon fill="midnightblue" stroke="midnightblue" points="256.5,-139.9 263.15,-131.65 252.81,-133.95 256.5,-139.9"/>
</g>
<!-- Node5 -->
<g id="node5" class="node">
<title>Node5</title>
<g id="a_node5"><a xlink:title=" ">
<polygon fill="white" stroke="#bfbfbf" points="124.09,-0.5 124.09,-19.5 174.09,-19.5 174.09,-0.5 124.09,-0.5"/>
<text text-anchor="middle" x="149.09" y="-7.5" font-family="Helvetica,sans-Serif" font-size="10.00">io.pb.h</text>
</a>
</g>
</g>
<!-- Node2&#45;&gt;Node5 -->
<g id="edge6" class="edge">
<title>Node2&#45;&gt;Node5</title>
<path fill="none" stroke="midnightblue" d="M145.28,-172.13C97.27,-165.88 25.7,-153.24 9.09,-132 -27.53,-85.16 61.97,-42.81 114.38,-22.93"/>
<polygon fill="midnightblue" stroke="midnightblue" points="115.84,-26.12 124,-19.37 113.41,-19.56 115.84,-26.12"/>
</g>
<!-- Node8 -->
<g id="node6" class="node">
<title>Node8</title>
<g id="a_node6"><a xlink:title=" ">
<polygon fill="white" stroke="#bfbfbf" points="146.09,-56.5 146.09,-75.5 234.09,-75.5 234.09,-56.5 146.09,-56.5"/>
<text text-anchor="middle" x="190.09" y="-63.5" font-family="Helvetica,sans-Serif" font-size="10.00">boost/asio.hpp</text>
</a>
</g>
</g>
<!-- Node2&#45;&gt;Node8 -->
<g id="edge7" class="edge">
<title>Node2&#45;&gt;Node8</title>
<path fill="none" stroke="midnightblue" d="M190.09,-168.37C190.09,-150.62 190.09,-109.67 190.09,-85.6"/>
<polygon fill="midnightblue" stroke="midnightblue" points="193.59,-85.59 190.09,-75.59 186.59,-85.59 193.59,-85.59"/>
</g>
<!-- Node11 -->
<g id="node7" class="node">
<title>Node11</title>
<g id="a_node7"><a xlink:title=" ">
<polygon fill="white" stroke="#bfbfbf" points="18.59,-112.5 18.59,-131.5 161.59,-131.5 161.59,-112.5 18.59,-112.5"/>
<text text-anchor="middle" x="90.09" y="-119.5" font-family="Helvetica,sans-Serif" font-size="10.00">boost/asio/serial_port.hpp</text>
</a>
</g>
</g>
<!-- Node2&#45;&gt;Node11 -->
<g id="edge8" class="edge">
<title>Node2&#45;&gt;Node11</title>
<path fill="none" stroke="midnightblue" d="M174.03,-168.32C158.14,-159.74 133.59,-146.49 115.14,-136.52"/>
<polygon fill="midnightblue" stroke="midnightblue" points="116.58,-133.33 106.12,-131.65 113.26,-139.49 116.58,-133.33"/>
</g>
<!-- Node3&#45;&gt;Node4 -->
<g id="edge3" class="edge">
<title>Node3&#45;&gt;Node4</title>
<path fill="none" stroke="midnightblue" d="M282.38,-112.08C286.81,-104.61 293.26,-93.72 298.71,-84.52"/>
<polygon fill="midnightblue" stroke="midnightblue" points="301.82,-86.14 303.91,-75.75 295.8,-82.57 301.82,-86.14"/>
</g>
<!-- Node3&#45;&gt;Node8 -->
<g id="edge5" class="edge">
<title>Node3&#45;&gt;Node8</title>
<path fill="none" stroke="midnightblue" d="M263.12,-112.32C249.55,-103.9 228.71,-90.97 212.77,-81.07"/>
<polygon fill="midnightblue" stroke="midnightblue" points="214.38,-77.95 204.04,-75.65 210.69,-83.9 214.38,-77.95"/>
</g>
<!-- Node4&#45;&gt;Node5 -->
<g id="edge4" class="edge">
<title>Node4&#45;&gt;Node5</title>
<path fill="none" stroke="midnightblue" d="M283.74,-56.44C256.83,-47.36 214.1,-32.94 184.01,-22.78"/>
<polygon fill="midnightblue" stroke="midnightblue" points="184.92,-19.4 174.33,-19.52 182.68,-26.03 184.92,-19.4"/>
</g>
</g>
</svg>
