<?xml version="1.0" encoding="UTF-8" standalone="no"?>
<!DOCTYPE svg PUBLIC "-//W3C//DTD SVG 1.1//EN"
 "http://www.w3.org/Graphics/SVG/1.1/DTD/svg11.dtd">
<!-- Generated by graphviz version 2.43.0 (0)
 -->
<!-- Title: src/scmdio/serial.hpp Pages: 1 -->
<svg width="935pt" height="269pt"
 viewBox="0.00 0.00 934.50 269.00" xmlns="http://www.w3.org/2000/svg" xmlns:xlink="http://www.w3.org/1999/xlink">
<g id="graph0" class="graph" transform="scale(1 1) rotate(0) translate(4 265)">
<title>src/scmdio/serial.hpp</title>
<!-- Node1 -->
<g id="Node000001" class="node">
<title>Node1</title>
<g id="a_Node000001"><a xlink:title=" ">
<polygon fill="#999999" stroke="#666666" points="587,-261 467,-261 467,-242 587,-242 587,-261"/>
<text text-anchor="middle" x="527" y="-249" font-family="Helvetica,sans-Serif" font-size="10.00">src/scmdio/serial.hpp</text>
</a>
</g>
</g>
<!-- Node2 -->
<g id="Node000002" class="node">
<title>Node2</title>
<g id="a_Node000002"><a xlink:href="cfg_2def_8hpp.html" target="_top" xlink:title=" ">
<polygon fill="white" stroke="#666666" points="192,-206 112,-206 112,-187 192,-187 192,-206"/>
<text text-anchor="middle" x="152" y="-194" font-family="Helvetica,sans-Serif" font-size="10.00">../cfg/def.hpp</text>
</a>
</g>
</g>
<!-- Node1&#45;&gt;Node2 -->
<g id="edge1_Node000001_Node000002" class="edge">
<title>Node1&#45;&gt;Node2</title>
<g id="a_edge1_Node000001_Node000002"><a xlink:title=" ">
<path fill="none" stroke="#63b8ff" d="M466.75,-241.98C393.39,-231.62 270.84,-214.3 202.3,-204.61"/>
<polygon fill="#63b8ff" stroke="#63b8ff" points="202.58,-201.11 192.19,-203.18 201.6,-208.05 202.58,-201.11"/>
</a>
</g>
</g>
<!-- Node12 -->
<g id="Node000012" class="node">
<title>Node12</title>
<g id="a_Node000012"><a xlink:href="iface_2def_8hpp.html" target="_top" xlink:title=" ">
<polygon fill="white" stroke="#666666" points="407.5,-206 318.5,-206 318.5,-187 407.5,-187 407.5,-206"/>
<text text-anchor="middle" x="363" y="-194" font-family="Helvetica,sans-Serif" font-size="10.00">../iface/def.hpp</text>
</a>
</g>
</g>
<!-- Node1&#45;&gt;Node12 -->
<g id="edge5_Node000001_Node000012" class="edge">
<title>Node1&#45;&gt;Node12</title>
<g id="a_edge5_Node000001_Node000012"><a xlink:title=" ">
<path fill="none" stroke="#63b8ff" d="M500.65,-241.98C473.24,-233.13 430.11,-219.19 399.44,-209.28"/>
<polygon fill="#63b8ff" stroke="#63b8ff" points="400.15,-205.83 389.56,-206.08 398,-212.49 400.15,-205.83"/>
</a>
</g>
</g>
<!-- Node24 -->
<g id="Node000024" class="node">
<title>Node24</title>
<g id="a_Node000024"><a xlink:href="port_8hpp.html" target="_top" xlink:title=" ">
<polygon fill="white" stroke="#666666" points="646.5,-206 583.5,-206 583.5,-187 646.5,-187 646.5,-206"/>
<text text-anchor="middle" x="615" y="-194" font-family="Helvetica,sans-Serif" font-size="10.00">./port.hpp</text>
</a>
</g>
</g>
<!-- Node1&#45;&gt;Node24 -->
<g id="edge14_Node000001_Node000024" class="edge">
<title>Node1&#45;&gt;Node24</title>
<g id="a_edge14_Node000001_Node000024"><a xlink:title=" ">
<path fill="none" stroke="#63b8ff" d="M541.14,-241.98C554.79,-233.77 575.69,-221.18 591.78,-211.49"/>
<polygon fill="#63b8ff" stroke="#63b8ff" points="593.84,-214.33 600.6,-206.17 590.23,-208.33 593.84,-214.33"/>
</a>
</g>
</g>
<!-- Node25 -->
<g id="Node000025" class="node">
<title>Node25</title>
<g id="a_Node000025"><a xlink:href="scmdio_2base_8hpp.html" target="_top" xlink:title=" ">
<polygon fill="#fff0f0" stroke="red" points="557.5,-145.5 496.5,-145.5 496.5,-126.5 557.5,-126.5 557.5,-145.5"/>
<text text-anchor="middle" x="527" y="-133.5" font-family="Helvetica,sans-Serif" font-size="10.00">base.hpp</text>
</a>
</g>
</g>
<!-- Node1&#45;&gt;Node25 -->
<g id="edge20_Node000001_Node000025" class="edge">
<title>Node1&#45;&gt;Node25</title>
<g id="a_edge20_Node000001_Node000025"><a xlink:title=" ">
<path fill="none" stroke="#63b8ff" d="M527,-241.97C527,-223.73 527,-180.57 527,-155.64"/>
<polygon fill="#63b8ff" stroke="#63b8ff" points="530.5,-155.63 527,-145.63 523.5,-155.63 530.5,-155.63"/>
</a>
</g>
</g>
<!-- Node33 -->
<g id="Node000033" class="node">
<title>Node33</title>
<g id="a_Node000033"><a xlink:title=" ">
<polygon fill="#e0e0e0" stroke="#999999" points="807.5,-206 664.5,-206 664.5,-187 807.5,-187 807.5,-206"/>
<text text-anchor="middle" x="736" y="-194" font-family="Helvetica,sans-Serif" font-size="10.00">boost/asio/serial_port.hpp</text>
</a>
</g>
</g>
<!-- Node1&#45;&gt;Node33 -->
<g id="edge21_Node000001_Node000033" class="edge">
<title>Node1&#45;&gt;Node33</title>
<g id="a_edge21_Node000001_Node000033"><a xlink:title=" ">
<path fill="none" stroke="#63b8ff" d="M560.58,-241.98C596.35,-232.91 653.12,-218.52 692.34,-208.57"/>
<polygon fill="#63b8ff" stroke="#63b8ff" points="693.32,-211.93 702.16,-206.08 691.6,-205.15 693.32,-211.93"/>
</a>
</g>
</g>
<!-- Node3 -->
<g id="Node000003" class="node">
<title>Node3</title>
<g id="a_Node000003"><a xlink:href="base_8hpp.html" target="_top" xlink:title=" ">
<polygon fill="#fff0f0" stroke="red" points="70,-145.5 0,-145.5 0,-126.5 70,-126.5 70,-145.5"/>
<text text-anchor="middle" x="35" y="-133.5" font-family="Helvetica,sans-Serif" font-size="10.00">../base.hpp</text>
</a>
</g>
</g>
<!-- Node2&#45;&gt;Node3 -->
<g id="edge2_Node000002_Node000003" class="edge">
<title>Node2&#45;&gt;Node3</title>
<g id="a_edge2_Node000002_Node000003"><a xlink:title=" ">
<path fill="none" stroke="#63b8ff" d="M134.99,-186.99C115.58,-177.29 83.61,-161.31 61.06,-150.03"/>
<polygon fill="#63b8ff" stroke="#63b8ff" points="62.54,-146.86 52.03,-145.52 59.41,-153.12 62.54,-146.86"/>
</a>
</g>
</g>
<!-- Node10 -->
<g id="Node000010" class="node">
<title>Node10</title>
<g id="a_Node000010"><a xlink:title=" ">
<polygon fill="#e0e0e0" stroke="#999999" points="497.5,-30 364.5,-30 364.5,0 497.5,0 497.5,-30"/>
<text text-anchor="start" x="372.5" y="-18" font-family="Helvetica,sans-Serif" font-size="10.00">emlabcpp/experimental</text>
<text text-anchor="middle" x="431" y="-7" font-family="Helvetica,sans-Serif" font-size="10.00">/string_buffer.h</text>
</a>
</g>
</g>
<!-- Node2&#45;&gt;Node10 -->
<g id="edge3_Node000002_Node000010" class="edge">
<title>Node2&#45;&gt;Node10</title>
<g id="a_edge3_Node000002_Node000010"><a xlink:title=" ">
<path fill="none" stroke="#63b8ff" d="M157.54,-186.8C172.76,-163.63 217.63,-99.85 271,-66 296.17,-50.03 326.81,-38.84 354.52,-31.16"/>
<polygon fill="#63b8ff" stroke="#63b8ff" points="355.42,-34.54 364.18,-28.58 353.62,-27.77 355.42,-34.54"/>
</a>
</g>
</g>
<!-- Node11 -->
<g id="Node000011" class="node">
<title>Node11</title>
<g id="a_Node000011"><a xlink:title=" ">
<polygon fill="#e0e0e0" stroke="#999999" points="154,-145.5 88,-145.5 88,-126.5 154,-126.5 154,-145.5"/>
<text text-anchor="middle" x="121" y="-133.5" font-family="Helvetica,sans-Serif" font-size="10.00">vari/vref.h</text>
</a>
</g>
</g>
<!-- Node2&#45;&gt;Node11 -->
<g id="edge4_Node000002_Node000011" class="edge">
<title>Node2&#45;&gt;Node11</title>
<g id="a_edge4_Node000002_Node000011"><a xlink:title=" ">
<path fill="none" stroke="#63b8ff" d="M147.43,-186.87C142.94,-178.4 135.97,-165.24 130.31,-154.57"/>
<polygon fill="#63b8ff" stroke="#63b8ff" points="133.37,-152.86 125.59,-145.67 127.18,-156.14 133.37,-152.86"/>
</a>
</g>
</g>
<!-- Node12&#45;&gt;Node10 -->
<g id="edge11_Node000012_Node000010" class="edge">
<title>Node12&#45;&gt;Node10</title>
<g id="a_edge11_Node000012_Node000010"><a xlink:title=" ">
<path fill="none" stroke="#63b8ff" d="M398.05,-186.88C416.65,-180.33 437.9,-169.24 449,-151 470,-116.49 454.95,-67.91 442.62,-39.41"/>
<polygon fill="#63b8ff" stroke="#63b8ff" points="445.76,-37.88 438.43,-30.23 439.39,-40.78 445.76,-37.88"/>
</a>
</g>
</g>
<!-- Node13 -->
<g id="Node000013" class="node">
<title>Node13</title>
<g id="a_Node000013"><a xlink:href="parser_8hpp.html" target="_top" xlink:title=" ">
<polygon fill="#fff0f0" stroke="red" points="372,-85 280,-85 280,-66 372,-66 372,-85"/>
<text text-anchor="middle" x="326" y="-73" font-family="Helvetica,sans-Serif" font-size="10.00">../lib/parser.hpp</text>
</a>
</g>
</g>
<!-- Node12&#45;&gt;Node13 -->
<g id="edge6_Node000012_Node000013" class="edge">
<title>Node12&#45;&gt;Node13</title>
<g id="a_edge6_Node000012_Node000013"><a xlink:title=" ">
<path fill="none" stroke="#63b8ff" d="M327.95,-186.88C309.35,-180.33 288.1,-169.24 277,-151 270.07,-139.61 271.6,-133.19 277,-121 282.32,-108.97 292.68,-98.8 302.51,-91.24"/>
<polygon fill="#63b8ff" stroke="#63b8ff" points="304.76,-93.93 310.87,-85.27 300.7,-88.23 304.76,-93.93"/>
</a>
</g>
</g>
<!-- Node20 -->
<g id="Node000020" class="node">
<title>Node20</title>
<g id="a_Node000020"><a xlink:title=" ">
<polygon fill="#e0e0e0" stroke="#999999" points="304.5,-24.5 235.5,-24.5 235.5,-5.5 304.5,-5.5 304.5,-24.5"/>
<text text-anchor="middle" x="270" y="-12.5" font-family="Helvetica,sans-Serif" font-size="10.00">vari/vopt.h</text>
</a>
</g>
</g>
<!-- Node12&#45;&gt;Node20 -->
<g id="edge12_Node000012_Node000020" class="edge">
<title>Node12&#45;&gt;Node20</title>
<g id="a_edge12_Node000012_Node000020"><a xlink:title=" ">
<path fill="none" stroke="#63b8ff" d="M322.38,-186.99C302.68,-180.59 280.78,-169.61 269,-151 246.2,-114.98 256.3,-62.01 264.06,-34.35"/>
<polygon fill="#63b8ff" stroke="#63b8ff" points="267.41,-35.35 266.95,-24.77 260.71,-33.34 267.41,-35.35"/>
</a>
</g>
</g>
<!-- Node21 -->
<g id="Node000021" class="node">
<title>Node21</title>
<g id="a_Node000021"><a xlink:href="iface_2base_8hpp.html" target="_top" xlink:title=" ">
<polygon fill="#fff0f0" stroke="red" points="353.5,-145.5 286.5,-145.5 286.5,-126.5 353.5,-126.5 353.5,-145.5"/>
<text text-anchor="middle" x="320" y="-133.5" font-family="Helvetica,sans-Serif" font-size="10.00">./base.hpp</text>
</a>
</g>
</g>
<!-- Node12&#45;&gt;Node21 -->
<g id="edge9_Node000012_Node000021" class="edge">
<title>Node12&#45;&gt;Node21</title>
<g id="a_edge9_Node000012_Node000021"><a xlink:title=" ">
<path fill="none" stroke="#63b8ff" d="M356.66,-186.87C350.3,-178.23 340.36,-164.7 332.43,-153.92"/>
<polygon fill="#63b8ff" stroke="#63b8ff" points="335.11,-151.65 326.37,-145.67 329.47,-155.8 335.11,-151.65"/>
</a>
</g>
</g>
<!-- Node23 -->
<g id="Node000023" class="node">
<title>Node23</title>
<g id="a_Node000023"><a xlink:title=" ">
<polygon fill="#e0e0e0" stroke="#999999" points="440,-145.5 372,-145.5 372,-126.5 440,-126.5 440,-145.5"/>
<text text-anchor="middle" x="406" y="-133.5" font-family="Helvetica,sans-Serif" font-size="10.00">vari/vval.h</text>
</a>
</g>
</g>
<!-- Node12&#45;&gt;Node23 -->
<g id="edge13_Node000012_Node000023" class="edge">
<title>Node12&#45;&gt;Node23</title>
<g id="a_edge13_Node000012_Node000023"><a xlink:title=" ">
<path fill="none" stroke="#63b8ff" d="M369.34,-186.87C375.7,-178.23 385.64,-164.7 393.57,-153.92"/>
<polygon fill="#63b8ff" stroke="#63b8ff" points="396.53,-155.8 399.63,-145.67 390.89,-151.65 396.53,-155.8"/>
</a>
</g>
</g>
<!-- Node13&#45;&gt;Node10 -->
<g id="edge7_Node000013_Node000010" class="edge">
<title>Node13&#45;&gt;Node10</title>
<g id="a_edge7_Node000013_Node000010"><a xlink:title=" ">
<path fill="none" stroke="#63b8ff" d="M341.49,-65.87C356,-57.78 378.19,-45.42 396.84,-35.03"/>
<polygon fill="#63b8ff" stroke="#63b8ff" points="398.63,-38.04 405.67,-30.11 395.23,-31.92 398.63,-38.04"/>
</a>
</g>
</g>
<!-- Node13&#45;&gt;Node20 -->
<g id="edge8_Node000013_Node000020" class="edge">
<title>Node13&#45;&gt;Node20</title>
<g id="a_edge8_Node000013_Node000020"><a xlink:title=" ">
<path fill="none" stroke="#63b8ff" d="M317.74,-65.87C309.22,-56.97 295.74,-42.89 285.27,-31.95"/>
<polygon fill="#63b8ff" stroke="#63b8ff" points="287.74,-29.47 278.3,-24.67 282.68,-34.31 287.74,-29.47"/>
</a>
</g>
</g>
<!-- Node21&#45;&gt;Node13 -->
<g id="edge10_Node000021_Node000013" class="edge">
<title>Node21&#45;&gt;Node13</title>
<g id="a_edge10_Node000021_Node000013"><a xlink:title=" ">
<path fill="none" stroke="#63b8ff" d="M320.89,-126.37C321.72,-118.25 322.99,-105.81 324.06,-95.39"/>
<polygon fill="#63b8ff" stroke="#63b8ff" points="327.57,-95.47 325.11,-85.17 320.61,-94.76 327.57,-95.47"/>
</a>
</g>
</g>
<!-- Node24&#45;&gt;Node25 -->
<g id="edge15_Node000024_Node000025" class="edge">
<title>Node24&#45;&gt;Node25</title>
<g id="a_edge15_Node000024_Node000025"><a xlink:title=" ">
<path fill="none" stroke="#63b8ff" d="M602.02,-186.87C587.98,-177.54 565.37,-162.51 548.64,-151.38"/>
<polygon fill="#63b8ff" stroke="#63b8ff" points="550.3,-148.29 540.04,-145.67 546.43,-154.12 550.3,-148.29"/>
</a>
</g>
</g>
<!-- Node30 -->
<g id="Node000030" class="node">
<title>Node30</title>
<g id="a_Node000030"><a xlink:title=" ">
<polygon fill="#e0e0e0" stroke="#999999" points="710,-145.5 576,-145.5 576,-126.5 710,-126.5 710,-145.5"/>
<text text-anchor="middle" x="643" y="-133.5" font-family="Helvetica,sans-Serif" font-size="10.00">spdlog/fmt/bin_to_hex.h</text>
</a>
</g>
</g>
<!-- Node24&#45;&gt;Node30 -->
<g id="edge17_Node000024_Node000030" class="edge">
<title>Node24&#45;&gt;Node30</title>
<g id="a_edge17_Node000024_Node000030"><a xlink:title=" ">
<path fill="none" stroke="#63b8ff" d="M619.13,-186.87C623.14,-178.49 629.35,-165.51 634.44,-154.89"/>
<polygon fill="#63b8ff" stroke="#63b8ff" points="637.69,-156.2 638.85,-145.67 631.38,-153.18 637.69,-156.2"/>
</a>
</g>
</g>
<!-- Node31 -->
<g id="Node000031" class="node">
<title>Node31</title>
<g id="a_Node000031"><a xlink:title=" ">
<polygon fill="#e0e0e0" stroke="#999999" points="861.5,-151 728.5,-151 728.5,-121 861.5,-121 861.5,-151"/>
<text text-anchor="start" x="736.5" y="-139" font-family="Helvetica,sans-Serif" font-size="10.00">emlabcpp/experimental</text>
<text text-anchor="middle" x="795" y="-128" font-family="Helvetica,sans-Serif" font-size="10.00">/cobs.h</text>
</a>
</g>
</g>
<!-- Node24&#45;&gt;Node31 -->
<g id="edge18_Node000024_Node000031" class="edge">
<title>Node24&#45;&gt;Node31</title>
<g id="a_edge18_Node000024_Node000031"><a xlink:title=" ">
<path fill="none" stroke="#63b8ff" d="M641.17,-186.99C667.53,-178.43 708.93,-164.97 742.15,-154.18"/>
<polygon fill="#63b8ff" stroke="#63b8ff" points="743.3,-157.48 751.73,-151.06 741.13,-150.83 743.3,-157.48"/>
</a>
</g>
</g>
<!-- Node32 -->
<g id="Node000032" class="node">
<title>Node32</title>
<g id="a_Node000032"><a xlink:title=" ">
<polygon fill="#e0e0e0" stroke="#999999" points="926.5,-145.5 879.5,-145.5 879.5,-126.5 926.5,-126.5 926.5,-145.5"/>
<text text-anchor="middle" x="903" y="-133.5" font-family="Helvetica,sans-Serif" font-size="10.00">vector</text>
</a>
</g>
</g>
<!-- Node24&#45;&gt;Node32 -->
<g id="edge19_Node000024_Node000032" class="edge">
<title>Node24&#45;&gt;Node32</title>
<g id="a_edge19_Node000024_Node000032"><a xlink:title=" ">
<path fill="none" stroke="#63b8ff" d="M646.76,-188.79C649.88,-188.17 653,-187.56 656,-187 751.23,-169.16 778.14,-178.63 871,-151 872.68,-150.5 874.39,-149.94 876.09,-149.33"/>
<polygon fill="#63b8ff" stroke="#63b8ff" points="877.69,-152.46 885.69,-145.5 875.1,-145.95 877.69,-152.46"/>
</a>
</g>
</g>
<!-- Node25&#45;&gt;Node10 -->
<g id="edge16_Node000025_Node000010" class="edge">
<title>Node25&#45;&gt;Node10</title>
<g id="a_edge16_Node000025_Node000010"><a xlink:title=" ">
<path fill="none" stroke="#63b8ff" d="M522.03,-126.08C514.28,-112.51 498.5,-86.13 482,-66 473.73,-55.91 463.65,-45.67 454.64,-37.11"/>
<polygon fill="#63b8ff" stroke="#63b8ff" points="456.77,-34.31 447.07,-30.06 452,-39.44 456.77,-34.31"/>
</a>
</g>
</g>
</g>
</svg>
