<?xml version="1.0" encoding="UTF-8" standalone="no"?>
<!DOCTYPE svg PUBLIC "-//W3C//DTD SVG 1.1//EN"
 "http://www.w3.org/Graphics/SVG/1.1/DTD/svg11.dtd">
<!-- Generated by graphviz version 2.43.0 (0)
 -->
<!-- Title: src/drv/tests/setup_fwtest.cpp Pages: 1 -->
<svg width="1645pt" height="285pt"
 viewBox="0.00 0.00 1645.47 285.00" xmlns="http://www.w3.org/2000/svg" xmlns:xlink="http://www.w3.org/1999/xlink">
<g id="graph0" class="graph" transform="scale(1 1) rotate(0) translate(4 281)">
<title>src/drv/tests/setup_fwtest.cpp</title>
<polygon fill="white" stroke="transparent" points="-4,4 -4,-281 1641.47,-281 1641.47,4 -4,4"/>
<!-- Node1 -->
<g id="node1" class="node">
<title>Node1</title>
<g id="a_node1"><a xlink:title=" ">
<polygon fill="#bfbfbf" stroke="black" points="448,-246.5 448,-276.5 555,-276.5 555,-246.5 448,-246.5"/>
<text text-anchor="start" x="456" y="-264.5" font-family="Helvetica,sans-Serif" font-size="10.00">src/drv/tests/setup</text>
<text text-anchor="middle" x="501.5" y="-253.5" font-family="Helvetica,sans-Serif" font-size="10.00">_fwtest.cpp</text>
</a>
</g>
</g>
<!-- Node2 -->
<g id="node2" class="node">
<title>Node2</title>
<g id="a_node2"><a xlink:href="setup__fwtest_8hpp.html" target="_top" xlink:title=" ">
<polygon fill="white" stroke="black" points="1103.5,-190.5 1103.5,-209.5 1249.5,-209.5 1249.5,-190.5 1103.5,-190.5"/>
<text text-anchor="middle" x="1176.5" y="-197.5" font-family="Helvetica,sans-Serif" font-size="10.00">drv/tests/setup_fwtest.hpp</text>
</a>
</g>
</g>
<!-- Node1&#45;&gt;Node2 -->
<g id="edge1" class="edge">
<title>Node1&#45;&gt;Node2</title>
<path fill="none" stroke="midnightblue" d="M555.03,-255.78C672.3,-245.44 952.61,-220.74 1093.16,-208.35"/>
<polygon fill="midnightblue" stroke="midnightblue" points="1093.8,-211.8 1103.45,-207.44 1093.18,-204.83 1093.8,-211.8"/>
</g>
<!-- Node15 -->
<g id="node11" class="node">
<title>Node15</title>
<g id="a_node11"><a xlink:href="drv_2callbacks_8hpp.html" target="_top" xlink:title=" ">
<polygon fill="white" stroke="black" points="119.5,-129 119.5,-148 221.5,-148 221.5,-129 119.5,-129"/>
<text text-anchor="middle" x="170.5" y="-136" font-family="Helvetica,sans-Serif" font-size="10.00">drv/callbacks.hpp</text>
</a>
</g>
</g>
<!-- Node1&#45;&gt;Node15 -->
<g id="edge10" class="edge">
<title>Node1&#45;&gt;Node15</title>
<path fill="none" stroke="midnightblue" d="M447.98,-261.19C390.05,-259.63 296.8,-250.26 228.5,-210 207.02,-197.34 190.03,-173.61 180.13,-157.2"/>
<polygon fill="midnightblue" stroke="midnightblue" points="182.92,-155.02 174.9,-148.09 176.85,-158.51 182.92,-155.02"/>
</g>
<!-- Node16 -->
<g id="node12" class="node">
<title>Node16</title>
<g id="a_node12"><a xlink:href="cobs__uart_8hpp.html" target="_top" xlink:title=" ">
<polygon fill="white" stroke="black" points="582.5,-190.5 582.5,-209.5 686.5,-209.5 686.5,-190.5 582.5,-190.5"/>
<text text-anchor="middle" x="634.5" y="-197.5" font-family="Helvetica,sans-Serif" font-size="10.00">drv/cobs_uart.hpp</text>
</a>
</g>
</g>
<!-- Node1&#45;&gt;Node16 -->
<g id="edge14" class="edge">
<title>Node1&#45;&gt;Node16</title>
<path fill="none" stroke="midnightblue" d="M533.02,-246.4C555.14,-236.51 584.47,-223.38 605.91,-213.79"/>
<polygon fill="midnightblue" stroke="midnightblue" points="607.45,-216.94 615.15,-209.66 604.59,-210.55 607.45,-216.94"/>
</g>
<!-- Node26 -->
<g id="node17" class="node">
<title>Node26</title>
<g id="a_node17"><a xlink:href="central__sentry__iface_8hpp.html" target="_top" xlink:title=" ">
<polygon fill="white" stroke="red" points="646.5,-56.5 646.5,-86.5 754.5,-86.5 754.5,-56.5 646.5,-56.5"/>
<text text-anchor="start" x="654.5" y="-74.5" font-family="Helvetica,sans-Serif" font-size="10.00">sntr/central_sentry</text>
<text text-anchor="middle" x="700.5" y="-63.5" font-family="Helvetica,sans-Serif" font-size="10.00">_iface.hpp</text>
</a>
</g>
</g>
<!-- Node1&#45;&gt;Node26 -->
<g id="edge35" class="edge">
<title>Node1&#45;&gt;Node26</title>
<path fill="none" stroke="midnightblue" d="M555.06,-259.7C769.7,-255.91 1559.54,-236.44 1630.5,-154 1639.49,-143.56 1640.02,-132.96 1630.5,-123 1600.19,-91.27 885.26,-90.25 841.5,-87 816.38,-85.14 788.8,-82.44 764.75,-79.88"/>
<polygon fill="midnightblue" stroke="midnightblue" points="764.99,-76.39 754.67,-78.8 764.24,-83.35 764.99,-76.39"/>
</g>
<!-- Node28 -->
<g id="node19" class="node">
<title>Node28</title>
<g id="a_node19"><a xlink:href="hbridge_8hpp.html" target="_top" xlink:title=" ">
<polygon fill="white" stroke="black" points="374,-190.5 374,-209.5 467,-209.5 467,-190.5 374,-190.5"/>
<text text-anchor="middle" x="420.5" y="-197.5" font-family="Helvetica,sans-Serif" font-size="10.00">drv/hbridge.hpp</text>
</a>
</g>
</g>
<!-- Node1&#45;&gt;Node28 -->
<g id="edge25" class="edge">
<title>Node1&#45;&gt;Node28</title>
<path fill="none" stroke="midnightblue" d="M482.3,-246.4C469.68,-237.13 453.21,-225.03 440.44,-215.65"/>
<polygon fill="midnightblue" stroke="midnightblue" points="442.42,-212.76 432.29,-209.66 438.27,-218.4 442.42,-212.76"/>
</g>
<!-- Node29 -->
<g id="node20" class="node">
<title>Node29</title>
<g id="a_node20"><a xlink:href="retainers_8hpp.html" target="_top" xlink:title=" ">
<polygon fill="white" stroke="black" points="237.5,-190.5 237.5,-209.5 337.5,-209.5 337.5,-190.5 237.5,-190.5"/>
<text text-anchor="middle" x="287.5" y="-197.5" font-family="Helvetica,sans-Serif" font-size="10.00">drv/retainers.hpp</text>
</a>
</g>
</g>
<!-- Node1&#45;&gt;Node29 -->
<g id="edge32" class="edge">
<title>Node1&#45;&gt;Node29</title>
<path fill="none" stroke="midnightblue" d="M451.06,-246.47C413.49,-236.03 362.88,-221.96 327.95,-212.25"/>
<polygon fill="midnightblue" stroke="midnightblue" points="328.67,-208.81 318.09,-209.51 326.79,-215.56 328.67,-208.81"/>
</g>
<!-- Node3 -->
<g id="node3" class="node">
<title>Node3</title>
<g id="a_node3"><a xlink:href="interfaces_8hpp.html" target="_top" xlink:title=" ">
<polygon fill="white" stroke="red" points="278,-62 278,-81 383,-81 383,-62 278,-62"/>
<text text-anchor="middle" x="330.5" y="-69" font-family="Helvetica,sans-Serif" font-size="10.00">drv/interfaces.hpp</text>
</a>
</g>
</g>
<!-- Node2&#45;&gt;Node3 -->
<g id="edge2" class="edge">
<title>Node2&#45;&gt;Node3</title>
<path fill="none" stroke="midnightblue" d="M1103.39,-191.37C1038.04,-183.93 939.86,-171.21 855.5,-154 803.63,-143.42 792.45,-133.15 740.5,-123 618.66,-99.2 474.14,-84.5 393.31,-77.47"/>
<polygon fill="midnightblue" stroke="midnightblue" points="393.56,-73.98 383.3,-76.61 392.96,-80.95 393.56,-73.98"/>
</g>
<!-- Node11 -->
<g id="node7" class="node">
<title>Node11</title>
<g id="a_node7"><a xlink:title=" ">
<polygon fill="white" stroke="#bfbfbf" points="1035,-123.5 1035,-153.5 1168,-153.5 1168,-123.5 1035,-123.5"/>
<text text-anchor="start" x="1043" y="-141.5" font-family="Helvetica,sans-Serif" font-size="10.00">emlabcpp/experimental</text>
<text text-anchor="middle" x="1101.5" y="-130.5" font-family="Helvetica,sans-Serif" font-size="10.00">/testing/collect.h</text>
</a>
</g>
</g>
<!-- Node2&#45;&gt;Node11 -->
<g id="edge6" class="edge">
<title>Node2&#45;&gt;Node11</title>
<path fill="none" stroke="midnightblue" d="M1165.75,-190.48C1155.69,-182.49 1140.27,-170.25 1127.05,-159.77"/>
<polygon fill="midnightblue" stroke="midnightblue" points="1129.19,-157 1119.18,-153.52 1124.83,-162.48 1129.19,-157"/>
</g>
<!-- Node12 -->
<g id="node8" class="node">
<title>Node12</title>
<g id="a_node8"><a xlink:title=" ">
<polygon fill="white" stroke="#bfbfbf" points="1186,-123.5 1186,-153.5 1319,-153.5 1319,-123.5 1186,-123.5"/>
<text text-anchor="start" x="1194" y="-141.5" font-family="Helvetica,sans-Serif" font-size="10.00">emlabcpp/experimental</text>
<text text-anchor="middle" x="1252.5" y="-130.5" font-family="Helvetica,sans-Serif" font-size="10.00">/testing/coroutine.h</text>
</a>
</g>
</g>
<!-- Node2&#45;&gt;Node12 -->
<g id="edge7" class="edge">
<title>Node2&#45;&gt;Node12</title>
<path fill="none" stroke="midnightblue" d="M1187.39,-190.48C1197.59,-182.49 1213.22,-170.25 1226.61,-159.77"/>
<polygon fill="midnightblue" stroke="midnightblue" points="1228.87,-162.44 1234.59,-153.52 1224.56,-156.93 1228.87,-162.44"/>
</g>
<!-- Node13 -->
<g id="node9" class="node">
<title>Node13</title>
<g id="a_node9"><a xlink:title=" ">
<polygon fill="white" stroke="#bfbfbf" points="1337,-123.5 1337,-153.5 1470,-153.5 1470,-123.5 1337,-123.5"/>
<text text-anchor="start" x="1345" y="-141.5" font-family="Helvetica,sans-Serif" font-size="10.00">emlabcpp/experimental</text>
<text text-anchor="middle" x="1403.5" y="-130.5" font-family="Helvetica,sans-Serif" font-size="10.00">/testing/parameters.h</text>
</a>
</g>
</g>
<!-- Node2&#45;&gt;Node13 -->
<g id="edge8" class="edge">
<title>Node2&#45;&gt;Node13</title>
<path fill="none" stroke="midnightblue" d="M1209.02,-190.48C1243.14,-181.53 1297.64,-167.25 1340.27,-156.07"/>
<polygon fill="midnightblue" stroke="midnightblue" points="1341.21,-159.44 1350,-153.52 1339.44,-152.67 1341.21,-159.44"/>
</g>
<!-- Node14 -->
<g id="node10" class="node">
<title>Node14</title>
<g id="a_node10"><a xlink:title=" ">
<polygon fill="white" stroke="#bfbfbf" points="1488,-123.5 1488,-153.5 1621,-153.5 1621,-123.5 1488,-123.5"/>
<text text-anchor="start" x="1496" y="-141.5" font-family="Helvetica,sans-Serif" font-size="10.00">emlabcpp/experimental</text>
<text text-anchor="middle" x="1554.5" y="-130.5" font-family="Helvetica,sans-Serif" font-size="10.00">/testing/reactor.h</text>
</a>
</g>
</g>
<!-- Node2&#45;&gt;Node14 -->
<g id="edge9" class="edge">
<title>Node2&#45;&gt;Node14</title>
<path fill="none" stroke="midnightblue" d="M1239.3,-190.49C1298.45,-182.28 1389.78,-169.14 1477.97,-154.22"/>
<polygon fill="midnightblue" stroke="midnightblue" points="1478.6,-157.67 1487.87,-152.54 1477.43,-150.76 1478.6,-157.67"/>
</g>
<!-- Node6 -->
<g id="node4" class="node">
<title>Node6</title>
<g id="a_node4"><a xlink:title=" ">
<polygon fill="white" stroke="#bfbfbf" points="195.5,-0.5 195.5,-19.5 245.5,-19.5 245.5,-0.5 195.5,-0.5"/>
<text text-anchor="middle" x="220.5" y="-7.5" font-family="Helvetica,sans-Serif" font-size="10.00">cstdint</text>
</a>
</g>
</g>
<!-- Node3&#45;&gt;Node6 -->
<g id="edge3" class="edge">
<title>Node3&#45;&gt;Node6</title>
<path fill="none" stroke="midnightblue" d="M314.74,-61.98C296.52,-52.12 266.33,-35.79 245.03,-24.27"/>
<polygon fill="midnightblue" stroke="midnightblue" points="246.69,-21.19 236.23,-19.51 243.36,-27.35 246.69,-21.19"/>
</g>
<!-- Node9 -->
<g id="node5" class="node">
<title>Node9</title>
<g id="a_node5"><a xlink:title=" ">
<polygon fill="white" stroke="#bfbfbf" points="556.5,-0.5 556.5,-19.5 660.5,-19.5 660.5,-0.5 556.5,-0.5"/>
<text text-anchor="middle" x="608.5" y="-7.5" font-family="Helvetica,sans-Serif" font-size="10.00">emlabcpp/result.h</text>
</a>
</g>
</g>
<!-- Node3&#45;&gt;Node9 -->
<g id="edge4" class="edge">
<title>Node3&#45;&gt;Node9</title>
<path fill="none" stroke="midnightblue" d="M370.33,-61.98C419.98,-51.35 504.85,-33.18 558.73,-21.65"/>
<polygon fill="midnightblue" stroke="midnightblue" points="559.7,-25.02 568.74,-19.51 558.23,-18.18 559.7,-25.02"/>
</g>
<!-- Node10 -->
<g id="node6" class="node">
<title>Node10</title>
<g id="a_node6"><a xlink:title=" ">
<polygon fill="white" stroke="#bfbfbf" points="269.5,-0.5 269.5,-19.5 309.5,-19.5 309.5,-0.5 269.5,-0.5"/>
<text text-anchor="middle" x="289.5" y="-7.5" font-family="Helvetica,sans-Serif" font-size="10.00">span</text>
</a>
</g>
</g>
<!-- Node3&#45;&gt;Node10 -->
<g id="edge5" class="edge">
<title>Node3&#45;&gt;Node10</title>
<path fill="none" stroke="midnightblue" d="M324.63,-61.98C318.54,-53.14 308.86,-39.09 301.2,-27.98"/>
<polygon fill="midnightblue" stroke="midnightblue" points="303.92,-25.76 295.36,-19.51 298.16,-29.73 303.92,-25.76"/>
</g>
<!-- Node15&#45;&gt;Node3 -->
<g id="edge11" class="edge">
<title>Node15&#45;&gt;Node3</title>
<path fill="none" stroke="midnightblue" d="M191.75,-128.87C219.44,-117.62 268.06,-97.87 299.77,-84.99"/>
<polygon fill="midnightblue" stroke="midnightblue" points="301.47,-88.07 309.42,-81.06 298.84,-81.58 301.47,-88.07"/>
</g>
<!-- Node15&#45;&gt;Node6 -->
<g id="edge12" class="edge">
<title>Node15&#45;&gt;Node6</title>
<path fill="none" stroke="midnightblue" d="M172.73,-128.75C176.71,-113.62 185.64,-81.72 196.5,-56 200.42,-46.72 205.59,-36.8 210.13,-28.65"/>
<polygon fill="midnightblue" stroke="midnightblue" points="213.3,-30.15 215.23,-19.73 207.23,-26.68 213.3,-30.15"/>
</g>
<!-- Node15&#45;&gt;Node10 -->
<g id="edge13" class="edge">
<title>Node15&#45;&gt;Node10</title>
<path fill="none" stroke="midnightblue" d="M176.44,-128.94C187.29,-113.57 211.45,-80.58 235.5,-56 246.04,-45.23 258.97,-34.39 269.53,-26.04"/>
<polygon fill="midnightblue" stroke="midnightblue" points="271.99,-28.57 277.75,-19.68 267.7,-23.04 271.99,-28.57"/>
</g>
<!-- Node16&#45;&gt;Node3 -->
<g id="edge17" class="edge">
<title>Node16&#45;&gt;Node3</title>
<path fill="none" stroke="midnightblue" d="M611,-190.44C590.16,-182.4 559.28,-169.31 534.5,-154 515.96,-142.54 515.73,-133.25 496.5,-123 475.2,-111.64 415.5,-94.71 373.83,-83.64"/>
<polygon fill="midnightblue" stroke="midnightblue" points="374.49,-80.19 363.92,-81.02 372.7,-86.96 374.49,-80.19"/>
</g>
<!-- Node16&#45;&gt;Node9 -->
<g id="edge24" class="edge">
<title>Node16&#45;&gt;Node9</title>
<path fill="none" stroke="midnightblue" d="M674.68,-190.47C696.76,-183.89 723.12,-172.65 740.5,-154 771,-121.27 790.37,-91.77 763.5,-56 751.99,-40.68 708.54,-28.88 670.55,-21.22"/>
<polygon fill="midnightblue" stroke="midnightblue" points="671.01,-17.74 660.53,-19.26 669.67,-24.61 671.01,-17.74"/>
</g>
<!-- Node17 -->
<g id="node13" class="node">
<title>Node17</title>
<g id="a_node13"><a xlink:href="cobs__rx__container_8h.html" target="_top" xlink:title=" ">
<polygon fill="white" stroke="red" points="864,-129 864,-148 1017,-148 1017,-129 864,-129"/>
<text text-anchor="middle" x="940.5" y="-136" font-family="Helvetica,sans-Serif" font-size="10.00">drv/bits/cobs_rx_container.h</text>
</a>
</g>
</g>
<!-- Node16&#45;&gt;Node17 -->
<g id="edge15" class="edge">
<title>Node16&#45;&gt;Node17</title>
<path fill="none" stroke="midnightblue" d="M678.34,-190.48C733.33,-179.78 827.57,-161.46 886.82,-149.94"/>
<polygon fill="midnightblue" stroke="midnightblue" points="887.59,-153.35 896.74,-148.01 886.25,-146.48 887.59,-153.35"/>
</g>
<!-- Node18 -->
<g id="node14" class="node">
<title>Node18</title>
<g id="a_node14"><a xlink:title=" ">
<polygon fill="white" stroke="#bfbfbf" points="850,-56.5 850,-86.5 983,-86.5 983,-56.5 850,-56.5"/>
<text text-anchor="start" x="858" y="-74.5" font-family="Helvetica,sans-Serif" font-size="10.00">emlabcpp/experimental</text>
<text text-anchor="middle" x="916.5" y="-63.5" font-family="Helvetica,sans-Serif" font-size="10.00">/cobs.h</text>
</a>
</g>
</g>
<!-- Node16&#45;&gt;Node18 -->
<g id="edge22" class="edge">
<title>Node16&#45;&gt;Node18</title>
<path fill="none" stroke="midnightblue" d="M686.81,-191.52C723.12,-184.95 771.9,-173.35 811.5,-154 820.23,-149.74 862.9,-115.82 891.09,-93.11"/>
<polygon fill="midnightblue" stroke="midnightblue" points="893.38,-95.75 898.96,-86.75 888.98,-90.31 893.38,-95.75"/>
</g>
<!-- Node20 -->
<g id="node15" class="node">
<title>Node20</title>
<g id="a_node15"><a xlink:href="platform_8hpp.html" target="_top" xlink:title=" ">
<polygon fill="white" stroke="red" points="543.5,-129 543.5,-148 623.5,-148 623.5,-129 543.5,-129"/>
<text text-anchor="middle" x="583.5" y="-136" font-family="Helvetica,sans-Serif" font-size="10.00">platform.hpp</text>
</a>
</g>
</g>
<!-- Node16&#45;&gt;Node20 -->
<g id="edge18" class="edge">
<title>Node16&#45;&gt;Node20</title>
<path fill="none" stroke="midnightblue" d="M627.19,-190.48C619.47,-181.46 607.09,-167.02 597.48,-155.81"/>
<polygon fill="midnightblue" stroke="midnightblue" points="599.96,-153.32 590.79,-148.01 594.64,-157.88 599.96,-153.32"/>
</g>
<!-- Node22 -->
<g id="node16" class="node">
<title>Node22</title>
<g id="a_node16"><a xlink:href="sentry_8hpp.html" target="_top" xlink:title=" ">
<polygon fill="white" stroke="red" points="642,-129 642,-148 731,-148 731,-129 642,-129"/>
<text text-anchor="middle" x="686.5" y="-136" font-family="Helvetica,sans-Serif" font-size="10.00">sntr/sentry.hpp</text>
</a>
</g>
</g>
<!-- Node16&#45;&gt;Node22 -->
<g id="edge20" class="edge">
<title>Node16&#45;&gt;Node22</title>
<path fill="none" stroke="midnightblue" d="M641.95,-190.48C649.83,-181.46 662.44,-167.02 672.24,-155.81"/>
<polygon fill="midnightblue" stroke="midnightblue" points="675.12,-157.84 679.06,-148.01 669.85,-153.24 675.12,-157.84"/>
</g>
<!-- Node27 -->
<g id="node18" class="node">
<title>Node27</title>
<g id="a_node18"><a xlink:title=" ">
<polygon fill="white" stroke="#bfbfbf" points="354,-123.5 354,-153.5 487,-153.5 487,-123.5 354,-123.5"/>
<text text-anchor="start" x="362" y="-141.5" font-family="Helvetica,sans-Serif" font-size="10.00">emlabcpp/experimental</text>
<text text-anchor="middle" x="420.5" y="-130.5" font-family="Helvetica,sans-Serif" font-size="10.00">/function_view.h</text>
</a>
</g>
</g>
<!-- Node16&#45;&gt;Node27 -->
<g id="edge23" class="edge">
<title>Node16&#45;&gt;Node27</title>
<path fill="none" stroke="midnightblue" d="M603.84,-190.48C571.81,-181.57 520.73,-167.37 480.62,-156.22"/>
<polygon fill="midnightblue" stroke="midnightblue" points="481.51,-152.83 470.94,-153.52 479.63,-159.57 481.51,-152.83"/>
</g>
<!-- Node17&#45;&gt;Node18 -->
<g id="edge16" class="edge">
<title>Node17&#45;&gt;Node18</title>
<path fill="none" stroke="midnightblue" d="M937.26,-128.73C934.18,-120.37 929.39,-107.4 925.19,-96.02"/>
<polygon fill="midnightblue" stroke="midnightblue" points="928.45,-94.76 921.7,-86.59 921.88,-97.18 928.45,-94.76"/>
</g>
<!-- Node20&#45;&gt;Node10 -->
<g id="edge19" class="edge">
<title>Node20&#45;&gt;Node10</title>
<path fill="none" stroke="midnightblue" d="M563.29,-128.81C512.29,-106.86 378.2,-49.17 318.68,-23.56"/>
<polygon fill="midnightblue" stroke="midnightblue" points="320.03,-20.33 309.46,-19.59 317.26,-26.76 320.03,-20.33"/>
</g>
<!-- Node22&#45;&gt;Node26 -->
<g id="edge21" class="edge">
<title>Node22&#45;&gt;Node26</title>
<path fill="none" stroke="midnightblue" d="M688.39,-128.73C690.17,-120.46 692.93,-107.66 695.36,-96.37"/>
<polygon fill="midnightblue" stroke="midnightblue" points="698.78,-97.1 697.47,-86.59 691.94,-95.63 698.78,-97.1"/>
</g>
<!-- Node28&#45;&gt;Node3 -->
<g id="edge27" class="edge">
<title>Node28&#45;&gt;Node3</title>
<path fill="none" stroke="midnightblue" d="M395.72,-190.42C378.91,-183.29 357.61,-171.47 345.5,-154 332.66,-135.47 329.92,-109.1 329.72,-91.42"/>
<polygon fill="midnightblue" stroke="midnightblue" points="333.22,-91.28 329.88,-81.23 326.23,-91.17 333.22,-91.28"/>
</g>
<!-- Node28&#45;&gt;Node10 -->
<g id="edge31" class="edge">
<title>Node28&#45;&gt;Node10</title>
<path fill="none" stroke="midnightblue" d="M395.51,-190.39C358.32,-175.92 290.54,-142.73 269.5,-87 262.15,-67.52 270.66,-44.27 278.74,-28.65"/>
<polygon fill="midnightblue" stroke="midnightblue" points="281.98,-30.05 283.82,-19.61 275.87,-26.62 281.98,-30.05"/>
</g>
<!-- Node28&#45;&gt;Node15 -->
<g id="edge26" class="edge">
<title>Node28&#45;&gt;Node15</title>
<path fill="none" stroke="midnightblue" d="M384.68,-190.48C340.31,-179.92 264.66,-161.91 216.17,-150.37"/>
<polygon fill="midnightblue" stroke="midnightblue" points="216.79,-146.92 206.25,-148.01 215.17,-153.73 216.79,-146.92"/>
</g>
<!-- Node28&#45;&gt;Node20 -->
<g id="edge28" class="edge">
<title>Node28&#45;&gt;Node20</title>
<path fill="none" stroke="midnightblue" d="M443.85,-190.48C471.81,-180.27 518.83,-163.11 550.49,-151.55"/>
<polygon fill="midnightblue" stroke="midnightblue" points="552,-154.73 560.19,-148.01 549.6,-148.15 552,-154.73"/>
</g>
<!-- Node28&#45;&gt;Node22 -->
<g id="edge29" class="edge">
<title>Node28&#45;&gt;Node22</title>
<path fill="none" stroke="midnightblue" d="M464.1,-190.45C507.06,-181.86 574.51,-167.93 632.5,-154 636.87,-152.95 641.42,-151.81 645.94,-150.64"/>
<polygon fill="midnightblue" stroke="midnightblue" points="646.95,-153.99 655.73,-148.07 645.17,-147.22 646.95,-153.99"/>
</g>
<!-- Node28&#45;&gt;Node27 -->
<g id="edge30" class="edge">
<title>Node28&#45;&gt;Node27</title>
<path fill="none" stroke="midnightblue" d="M420.5,-190.48C420.5,-183.47 420.5,-173.19 420.5,-163.7"/>
<polygon fill="midnightblue" stroke="midnightblue" points="424,-163.52 420.5,-153.52 417,-163.52 424,-163.52"/>
</g>
<!-- Node29&#45;&gt;Node3 -->
<g id="edge33" class="edge">
<title>Node29&#45;&gt;Node3</title>
<path fill="none" stroke="midnightblue" d="M290.15,-190.06C294.42,-175.8 303.18,-147.06 311.5,-123 315.24,-112.19 319.73,-100.21 323.41,-90.63"/>
<polygon fill="midnightblue" stroke="midnightblue" points="326.78,-91.62 327.13,-81.03 320.25,-89.09 326.78,-91.62"/>
</g>
<!-- Node30 -->
<g id="node21" class="node">
<title>Node30</title>
<g id="a_node21"><a xlink:title=" ">
<polygon fill="white" stroke="#bfbfbf" points="0,-129 0,-148 101,-148 101,-129 0,-129"/>
<text text-anchor="middle" x="50.5" y="-136" font-family="Helvetica,sans-Serif" font-size="10.00">emlabcpp/defer.h</text>
</a>
</g>
</g>
<!-- Node29&#45;&gt;Node30 -->
<g id="edge34" class="edge">
<title>Node29&#45;&gt;Node30</title>
<path fill="none" stroke="midnightblue" d="M253.54,-190.48C211.66,-179.96 140.37,-162.06 94.37,-150.51"/>
<polygon fill="midnightblue" stroke="midnightblue" points="94.94,-147.05 84.39,-148.01 93.24,-153.84 94.94,-147.05"/>
</g>
</g>
</svg>
