<?xml version="1.0" encoding="UTF-8" standalone="no"?>
<!DOCTYPE svg PUBLIC "-//W3C//DTD SVG 1.1//EN"
 "http://www.w3.org/Graphics/SVG/1.1/DTD/svg11.dtd">
<!-- Generated by graphviz version 2.43.0 (0)
 -->
<!-- Title: src/drv/tests/setup_drv.cpp Pages: 1 -->
<svg width="1216pt" height="296pt"
 viewBox="0.00 0.00 1216.43 296.00" xmlns="http://www.w3.org/2000/svg" xmlns:xlink="http://www.w3.org/1999/xlink">
<g id="graph0" class="graph" transform="scale(1 1) rotate(0) translate(4 292)">
<title>src/drv/tests/setup_drv.cpp</title>
<polygon fill="white" stroke="transparent" points="-4,4 -4,-292 1212.43,-292 1212.43,4 -4,4"/>
<!-- Node1 -->
<g id="node1" class="node">
<title>Node1</title>
<g id="a_node1"><a xlink:title=" ">
<polygon fill="#bfbfbf" stroke="black" points="541.43,-257.5 541.43,-287.5 648.43,-287.5 648.43,-257.5 541.43,-257.5"/>
<text text-anchor="start" x="549.43" y="-275.5" font-family="Helvetica,sans-Serif" font-size="10.00">src/drv/tests/setup</text>
<text text-anchor="middle" x="594.93" y="-264.5" font-family="Helvetica,sans-Serif" font-size="10.00">_drv.cpp</text>
</a>
</g>
</g>
<!-- Node2 -->
<g id="node2" class="node">
<title>Node2</title>
<g id="a_node2"><a xlink:href="impl__tests_8hpp.html" target="_top" xlink:title=" ">
<polygon fill="white" stroke="black" points="273.93,-196 273.93,-215 407.93,-215 407.93,-196 273.93,-196"/>
<text text-anchor="middle" x="340.93" y="-203" font-family="Helvetica,sans-Serif" font-size="10.00">drv/tests/impl_tests.hpp</text>
</a>
</g>
</g>
<!-- Node1&#45;&gt;Node2 -->
<g id="edge1" class="edge">
<title>Node1&#45;&gt;Node2</title>
<path fill="none" stroke="midnightblue" d="M541.37,-257.79C494.52,-245.8 427.34,-228.61 383.92,-217.5"/>
<polygon fill="midnightblue" stroke="midnightblue" points="384.78,-214.11 374.23,-215.02 383.05,-220.89 384.78,-214.11"/>
</g>
<!-- Node35 -->
<g id="node13" class="node">
<title>Node35</title>
<g id="a_node13"><a xlink:href="interface__tests_8hpp.html" target="_top" xlink:title=" ">
<polygon fill="white" stroke="black" points="541.93,-190.5 541.93,-220.5 647.93,-220.5 647.93,-190.5 541.93,-190.5"/>
<text text-anchor="start" x="549.93" y="-208.5" font-family="Helvetica,sans-Serif" font-size="10.00">drv/tests/interface</text>
<text text-anchor="middle" x="594.93" y="-197.5" font-family="Helvetica,sans-Serif" font-size="10.00">_tests.hpp</text>
</a>
</g>
</g>
<!-- Node1&#45;&gt;Node35 -->
<g id="edge18" class="edge">
<title>Node1&#45;&gt;Node35</title>
<path fill="none" stroke="midnightblue" d="M594.93,-257.4C594.93,-249.64 594.93,-239.81 594.93,-230.86"/>
<polygon fill="midnightblue" stroke="midnightblue" points="598.43,-230.58 594.93,-220.58 591.43,-230.58 598.43,-230.58"/>
</g>
<!-- Node36 -->
<g id="node14" class="node">
<title>Node36</title>
<g id="a_node14"><a xlink:href="setup__tests_8hpp.html" target="_top" xlink:title=" ">
<polygon fill="white" stroke="black" points="867.43,-196 867.43,-215 986.43,-215 986.43,-196 867.43,-196"/>
<text text-anchor="middle" x="926.93" y="-203" font-family="Helvetica,sans-Serif" font-size="10.00">ftest/setup_tests.hpp</text>
</a>
</g>
</g>
<!-- Node1&#45;&gt;Node36 -->
<g id="edge25" class="edge">
<title>Node1&#45;&gt;Node36</title>
<path fill="none" stroke="midnightblue" d="M648.64,-260.98C710.53,-248.87 811.62,-229.08 873.42,-216.98"/>
<polygon fill="midnightblue" stroke="midnightblue" points="874.22,-220.39 883.36,-215.03 872.88,-213.52 874.22,-220.39"/>
</g>
<!-- Node3 -->
<g id="node3" class="node">
<title>Node3</title>
<g id="a_node3"><a xlink:href="drv_2callbacks_8hpp.html" target="_top" xlink:title=" ">
<polygon fill="white" stroke="red" points="270.93,-62 270.93,-81 372.93,-81 372.93,-62 270.93,-62"/>
<text text-anchor="middle" x="321.93" y="-69" font-family="Helvetica,sans-Serif" font-size="10.00">drv/callbacks.hpp</text>
</a>
</g>
</g>
<!-- Node2&#45;&gt;Node3 -->
<g id="edge2" class="edge">
<title>Node2&#45;&gt;Node3</title>
<path fill="none" stroke="midnightblue" d="M339.68,-195.84C336.64,-174.67 328.76,-119.95 324.6,-91.03"/>
<polygon fill="midnightblue" stroke="midnightblue" points="328.04,-90.42 323.16,-81.02 321.12,-91.42 328.04,-90.42"/>
</g>
<!-- Node4 -->
<g id="node4" class="node">
<title>Node4</title>
<g id="a_node4"><a xlink:href="interfaces_8hpp.html" target="_top" xlink:title=" ">
<polygon fill="white" stroke="red" points="269.43,-0.5 269.43,-19.5 374.43,-19.5 374.43,-0.5 269.43,-0.5"/>
<text text-anchor="middle" x="321.93" y="-7.5" font-family="Helvetica,sans-Serif" font-size="10.00">drv/interfaces.hpp</text>
</a>
</g>
</g>
<!-- Node2&#45;&gt;Node4 -->
<g id="edge9" class="edge">
<title>Node2&#45;&gt;Node4</title>
<path fill="none" stroke="midnightblue" d="M273.59,-204.07C187.32,-201.93 44.95,-192.48 11.93,-154 1.42,-141.75 -8.26,-80.13 12.93,-56 44.36,-20.21 178.25,-12.35 259.12,-10.94"/>
<polygon fill="midnightblue" stroke="midnightblue" points="259.24,-14.44 269.19,-10.79 259.14,-7.44 259.24,-14.44"/>
</g>
<!-- Node12 -->
<g id="node5" class="node">
<title>Node12</title>
<g id="a_node5"><a xlink:href="cobs__uart_8hpp.html" target="_top" xlink:title=" ">
<polygon fill="white" stroke="red" points="21.93,-62 21.93,-81 125.93,-81 125.93,-62 21.93,-62"/>
<text text-anchor="middle" x="73.93" y="-69" font-family="Helvetica,sans-Serif" font-size="10.00">drv/cobs_uart.hpp</text>
</a>
</g>
</g>
<!-- Node2&#45;&gt;Node12 -->
<g id="edge4" class="edge">
<title>Node2&#45;&gt;Node12</title>
<path fill="none" stroke="midnightblue" d="M273.61,-203.74C189.52,-201.19 52.76,-191.25 20.93,-154 2.54,-132.48 31,-104.17 52.81,-87.21"/>
<polygon fill="midnightblue" stroke="midnightblue" points="55.09,-89.88 61.02,-81.1 50.91,-84.26 55.09,-89.88"/>
</g>
<!-- Node24 -->
<g id="node6" class="node">
<title>Node24</title>
<g id="a_node6"><a xlink:href="hbridge_8hpp.html" target="_top" xlink:title=" ">
<polygon fill="white" stroke="red" points="30.43,-129 30.43,-148 123.43,-148 123.43,-129 30.43,-129"/>
<text text-anchor="middle" x="76.93" y="-136" font-family="Helvetica,sans-Serif" font-size="10.00">drv/hbridge.hpp</text>
</a>
</g>
</g>
<!-- Node2&#45;&gt;Node24 -->
<g id="edge6" class="edge">
<title>Node2&#45;&gt;Node24</title>
<path fill="none" stroke="midnightblue" d="M305.19,-196C263.72,-186.09 193.3,-169.14 132.93,-154 128.54,-152.9 123.95,-151.73 119.38,-150.57"/>
<polygon fill="midnightblue" stroke="midnightblue" points="120.04,-147.12 109.48,-148.02 118.29,-153.9 120.04,-147.12"/>
</g>
<!-- Node25 -->
<g id="node7" class="node">
<title>Node25</title>
<g id="a_node7"><a xlink:href="retainers_8hpp.html" target="_top" xlink:title=" ">
<polygon fill="white" stroke="red" points="425.93,-129 425.93,-148 525.93,-148 525.93,-129 425.93,-129"/>
<text text-anchor="middle" x="475.93" y="-136" font-family="Helvetica,sans-Serif" font-size="10.00">drv/retainers.hpp</text>
</a>
</g>
</g>
<!-- Node2&#45;&gt;Node25 -->
<g id="edge10" class="edge">
<title>Node2&#45;&gt;Node25</title>
<path fill="none" stroke="midnightblue" d="M358.86,-195.87C381.85,-184.8 421.96,-165.49 448.73,-152.6"/>
<polygon fill="midnightblue" stroke="midnightblue" points="450.44,-155.66 457.93,-148.17 447.4,-149.35 450.44,-155.66"/>
</g>
<!-- Node27 -->
<g id="node8" class="node">
<title>Node27</title>
<g id="a_node8"><a xlink:href="utest_8hpp.html" target="_top" xlink:title=" ">
<polygon fill="white" stroke="red" points="581.93,-129 581.93,-148 689.93,-148 689.93,-129 581.93,-129"/>
<text text-anchor="middle" x="635.93" y="-136" font-family="Helvetica,sans-Serif" font-size="10.00">drv/tests/utest.hpp</text>
</a>
</g>
</g>
<!-- Node2&#45;&gt;Node27 -->
<g id="edge12" class="edge">
<title>Node2&#45;&gt;Node27</title>
<path fill="none" stroke="midnightblue" d="M379.8,-195.94C433.08,-184.2 528.8,-163.11 586.93,-150.3"/>
<polygon fill="midnightblue" stroke="midnightblue" points="587.96,-153.65 596.97,-148.08 586.45,-146.82 587.96,-153.65"/>
</g>
<!-- Node28 -->
<g id="node9" class="node">
<title>Node28</title>
<g id="a_node9"><a xlink:title=" ">
<polygon fill="white" stroke="#bfbfbf" points="487.43,-56.5 487.43,-86.5 620.43,-86.5 620.43,-56.5 487.43,-56.5"/>
<text text-anchor="start" x="495.43" y="-74.5" font-family="Helvetica,sans-Serif" font-size="10.00">emlabcpp/experimental</text>
<text text-anchor="middle" x="553.93" y="-63.5" font-family="Helvetica,sans-Serif" font-size="10.00">/testing/coroutine.h</text>
</a>
</g>
</g>
<!-- Node2&#45;&gt;Node28 -->
<g id="edge17" class="edge">
<title>Node2&#45;&gt;Node28</title>
<path fill="none" stroke="midnightblue" d="M347,-195.62C358.71,-179.13 386,-143.57 416.93,-123 438.54,-108.63 464.78,-97.68 488.49,-89.7"/>
<polygon fill="midnightblue" stroke="midnightblue" points="489.7,-92.99 498.13,-86.58 487.54,-86.34 489.7,-92.99"/>
</g>
<!-- Node31 -->
<g id="node11" class="node">
<title>Node31</title>
<g id="a_node11"><a xlink:href="test__central__sentry_8hpp.html" target="_top" xlink:title=" ">
<polygon fill="white" stroke="red" points="141.93,-129 141.93,-148 293.93,-148 293.93,-129 141.93,-129"/>
<text text-anchor="middle" x="217.93" y="-136" font-family="Helvetica,sans-Serif" font-size="10.00">sntr/test_central_sentry.hpp</text>
</a>
</g>
</g>
<!-- Node2&#45;&gt;Node31 -->
<g id="edge15" class="edge">
<title>Node2&#45;&gt;Node31</title>
<path fill="none" stroke="midnightblue" d="M324.6,-195.87C303.83,-184.89 267.74,-165.82 243.36,-152.94"/>
<polygon fill="midnightblue" stroke="midnightblue" points="244.81,-149.75 234.33,-148.17 241.54,-155.93 244.81,-149.75"/>
</g>
<!-- Node34 -->
<g id="node12" class="node">
<title>Node34</title>
<g id="a_node12"><a xlink:title=" ">
<polygon fill="white" stroke="#bfbfbf" points="746.43,-123.5 746.43,-153.5 879.43,-153.5 879.43,-123.5 746.43,-123.5"/>
<text text-anchor="start" x="754.43" y="-141.5" font-family="Helvetica,sans-Serif" font-size="10.00">emlabcpp/experimental</text>
<text text-anchor="middle" x="812.93" y="-130.5" font-family="Helvetica,sans-Serif" font-size="10.00">/testing/collect.h</text>
</a>
</g>
</g>
<!-- Node2&#45;&gt;Node34 -->
<g id="edge16" class="edge">
<title>Node2&#45;&gt;Node34</title>
<path fill="none" stroke="midnightblue" d="M403.12,-195.94C488.9,-184.12 643.41,-162.84 736.24,-150.06"/>
<polygon fill="midnightblue" stroke="midnightblue" points="736.98,-153.49 746.41,-148.66 736.03,-146.56 736.98,-153.49"/>
</g>
<!-- Node3&#45;&gt;Node4 -->
<g id="edge3" class="edge">
<title>Node3&#45;&gt;Node4</title>
<path fill="none" stroke="midnightblue" d="M321.93,-61.98C321.93,-53.58 321.93,-40.48 321.93,-29.66"/>
<polygon fill="midnightblue" stroke="midnightblue" points="325.43,-29.51 321.93,-19.51 318.43,-29.51 325.43,-29.51"/>
</g>
<!-- Node12&#45;&gt;Node4 -->
<g id="edge5" class="edge">
<title>Node12&#45;&gt;Node4</title>
<path fill="none" stroke="midnightblue" d="M109.46,-61.98C153.48,-51.42 228.52,-33.41 276.63,-21.87"/>
<polygon fill="midnightblue" stroke="midnightblue" points="277.56,-25.25 286.46,-19.51 275.92,-18.44 277.56,-25.25"/>
</g>
<!-- Node24&#45;&gt;Node3 -->
<g id="edge7" class="edge">
<title>Node24&#45;&gt;Node3</title>
<path fill="none" stroke="midnightblue" d="M109.21,-128.94C153,-117.32 231.31,-96.54 279.72,-83.7"/>
<polygon fill="midnightblue" stroke="midnightblue" points="280.81,-87.03 289.58,-81.08 279.01,-80.26 280.81,-87.03"/>
</g>
<!-- Node24&#45;&gt;Node4 -->
<g id="edge8" class="edge">
<title>Node24&#45;&gt;Node4</title>
<path fill="none" stroke="midnightblue" d="M93.77,-128.81C135.92,-107.04 246.17,-50.12 296.37,-24.2"/>
<polygon fill="midnightblue" stroke="midnightblue" points="298.02,-27.29 305.3,-19.59 294.8,-21.07 298.02,-27.29"/>
</g>
<!-- Node25&#45;&gt;Node4 -->
<g id="edge11" class="edge">
<title>Node25&#45;&gt;Node4</title>
<path fill="none" stroke="midnightblue" d="M466.51,-128.94C449.79,-113.84 413.7,-81.63 381.93,-56 369.01,-45.58 354.08,-34.37 342.34,-25.75"/>
<polygon fill="midnightblue" stroke="midnightblue" points="344.21,-22.79 334.07,-19.72 340.09,-28.44 344.21,-22.79"/>
</g>
<!-- Node27&#45;&gt;Node28 -->
<g id="edge13" class="edge">
<title>Node27&#45;&gt;Node28</title>
<path fill="none" stroke="midnightblue" d="M624.87,-128.73C613.36,-119.61 594.93,-105 579.74,-92.96"/>
<polygon fill="midnightblue" stroke="midnightblue" points="581.71,-90.06 571.7,-86.59 577.37,-95.54 581.71,-90.06"/>
</g>
<!-- Node30 -->
<g id="node10" class="node">
<title>Node30</title>
<g id="a_node10"><a xlink:title=" ">
<polygon fill="white" stroke="#bfbfbf" points="746.43,-56.5 746.43,-86.5 879.43,-86.5 879.43,-56.5 746.43,-56.5"/>
<text text-anchor="start" x="754.43" y="-74.5" font-family="Helvetica,sans-Serif" font-size="10.00">emlabcpp/experimental</text>
<text text-anchor="middle" x="812.93" y="-63.5" font-family="Helvetica,sans-Serif" font-size="10.00">/testing/reactor.h</text>
</a>
</g>
</g>
<!-- Node27&#45;&gt;Node30 -->
<g id="edge14" class="edge">
<title>Node27&#45;&gt;Node30</title>
<path fill="none" stroke="midnightblue" d="M659.43,-128.87C686.22,-119.03 730.72,-102.69 764.93,-90.13"/>
<polygon fill="midnightblue" stroke="midnightblue" points="766.55,-93.26 774.73,-86.53 764.14,-86.69 766.55,-93.26"/>
</g>
<!-- Node35&#45;&gt;Node3 -->
<g id="edge19" class="edge">
<title>Node35&#45;&gt;Node3</title>
<path fill="none" stroke="midnightblue" d="M541.63,-195.65C505.01,-188.1 456.13,-175.05 416.93,-154 384.72,-136.71 353.82,-106.94 336.41,-88.57"/>
<polygon fill="midnightblue" stroke="midnightblue" points="338.78,-85.97 329.41,-81.02 333.64,-90.73 338.78,-85.97"/>
</g>
<!-- Node35&#45;&gt;Node4 -->
<g id="edge20" class="edge">
<title>Node35&#45;&gt;Node4</title>
<path fill="none" stroke="midnightblue" d="M648.03,-191.59C667.49,-184.01 687.53,-172.2 698.93,-154 727.33,-108.63 677.02,-79.5 628.93,-56 587.07,-35.54 461.61,-22.19 384.64,-15.67"/>
<polygon fill="midnightblue" stroke="midnightblue" points="384.83,-12.18 374.57,-14.84 384.25,-19.15 384.83,-12.18"/>
</g>
<!-- Node35&#45;&gt;Node25 -->
<g id="edge21" class="edge">
<title>Node35&#45;&gt;Node25</title>
<path fill="none" stroke="midnightblue" d="M569.11,-190.4C548.69,-179.24 520.38,-163.78 500.34,-152.83"/>
<polygon fill="midnightblue" stroke="midnightblue" points="501.96,-149.73 491.5,-148.01 498.6,-155.87 501.96,-149.73"/>
</g>
<!-- Node35&#45;&gt;Node27 -->
<g id="edge22" class="edge">
<title>Node35&#45;&gt;Node27</title>
<path fill="none" stroke="midnightblue" d="M603.83,-190.4C610.03,-180.56 618.34,-167.38 624.96,-156.89"/>
<polygon fill="midnightblue" stroke="midnightblue" points="628.07,-158.52 630.44,-148.19 622.15,-154.79 628.07,-158.52"/>
</g>
<!-- Node35&#45;&gt;Node28 -->
<g id="edge24" class="edge">
<title>Node35&#45;&gt;Node28</title>
<path fill="none" stroke="midnightblue" d="M587.86,-190.19C583.15,-180.22 577.08,-166.53 572.93,-154 566.63,-134.99 561.61,-112.83 558.31,-96.42"/>
<polygon fill="midnightblue" stroke="midnightblue" points="561.74,-95.71 556.4,-86.56 554.87,-97.04 561.74,-95.71"/>
</g>
<!-- Node35&#45;&gt;Node34 -->
<g id="edge23" class="edge">
<title>Node35&#45;&gt;Node34</title>
<path fill="none" stroke="midnightblue" d="M641.96,-190.48C675.37,-180.51 720.41,-167.09 755.87,-156.51"/>
<polygon fill="midnightblue" stroke="midnightblue" points="757.02,-159.82 765.6,-153.61 755.02,-153.11 757.02,-159.82"/>
</g>
<!-- Node36&#45;&gt;Node30 -->
<g id="edge31" class="edge">
<title>Node36&#45;&gt;Node30</title>
<path fill="none" stroke="midnightblue" d="M924.45,-195.79C919.58,-179.88 907.51,-145.68 887.93,-123 877.34,-110.74 863.11,-100.16 849.88,-91.89"/>
<polygon fill="midnightblue" stroke="midnightblue" points="851.32,-88.68 840.94,-86.55 847.73,-94.69 851.32,-88.68"/>
</g>
<!-- Node36&#45;&gt;Node34 -->
<g id="edge29" class="edge">
<title>Node36&#45;&gt;Node34</title>
<path fill="none" stroke="midnightblue" d="M911.55,-195.73C894.96,-186.27 868.02,-170.91 846.49,-158.64"/>
<polygon fill="midnightblue" stroke="midnightblue" points="848.06,-155.5 837.64,-153.59 844.59,-161.58 848.06,-155.5"/>
</g>
<!-- Node37 -->
<g id="node15" class="node">
<title>Node37</title>
<g id="a_node15"><a xlink:href="core_8hpp.html" target="_top" xlink:title=" ">
<polygon fill="white" stroke="red" points="974.43,-129 974.43,-148 1057.43,-148 1057.43,-129 974.43,-129"/>
<text text-anchor="middle" x="1015.93" y="-136" font-family="Helvetica,sans-Serif" font-size="10.00">core/core.hpp</text>
</a>
</g>
</g>
<!-- Node36&#45;&gt;Node37 -->
<g id="edge26" class="edge">
<title>Node36&#45;&gt;Node37</title>
<path fill="none" stroke="midnightblue" d="M938.93,-195.73C953.48,-185.11 978.21,-167.05 995.71,-154.26"/>
<polygon fill="midnightblue" stroke="midnightblue" points="998.1,-156.85 1004.12,-148.13 993.98,-151.2 998.1,-156.85"/>
</g>
<!-- Node57 -->
<g id="node16" class="node">
<title>Node57</title>
<g id="a_node16"><a xlink:href="drivers_8hpp.html" target="_top" xlink:title=" ">
<polygon fill="white" stroke="red" points="897.43,-62 897.43,-81 992.43,-81 992.43,-62 897.43,-62"/>
<text text-anchor="middle" x="944.93" y="-69" font-family="Helvetica,sans-Serif" font-size="10.00">core/drivers.hpp</text>
</a>
</g>
</g>
<!-- Node36&#45;&gt;Node57 -->
<g id="edge27" class="edge">
<title>Node36&#45;&gt;Node57</title>
<path fill="none" stroke="midnightblue" d="M928.11,-195.84C931,-174.67 938.46,-119.95 942.4,-91.03"/>
<polygon fill="midnightblue" stroke="midnightblue" points="945.88,-91.4 943.77,-81.02 938.95,-90.46 945.88,-91.4"/>
</g>
<!-- Node58 -->
<g id="node17" class="node">
<title>Node58</title>
<g id="a_node17"><a xlink:title=" ">
<polygon fill="white" stroke="#bfbfbf" points="1075.43,-123.5 1075.43,-153.5 1208.43,-153.5 1208.43,-123.5 1075.43,-123.5"/>
<text text-anchor="start" x="1083.43" y="-141.5" font-family="Helvetica,sans-Serif" font-size="10.00">emlabcpp/experimental</text>
<text text-anchor="middle" x="1141.93" y="-130.5" font-family="Helvetica,sans-Serif" font-size="10.00">/testing/parameters.h</text>
</a>
</g>
</g>
<!-- Node36&#45;&gt;Node58 -->
<g id="edge30" class="edge">
<title>Node36&#45;&gt;Node58</title>
<path fill="none" stroke="midnightblue" d="M955.48,-195.87C988.58,-185.86 1043.93,-169.13 1085.75,-156.48"/>
<polygon fill="midnightblue" stroke="midnightblue" points="1086.97,-159.77 1095.53,-153.53 1084.94,-153.07 1086.97,-159.77"/>
</g>
<!-- Node57&#45;&gt;Node4 -->
<g id="edge28" class="edge">
<title>Node57&#45;&gt;Node4</title>
<path fill="none" stroke="midnightblue" d="M915.25,-61.94C906.52,-59.69 896.89,-57.49 887.93,-56 706.76,-25.98 489.53,-15.82 384.67,-12.51"/>
<polygon fill="midnightblue" stroke="midnightblue" points="384.67,-9.01 374.57,-12.21 384.46,-16.01 384.67,-9.01"/>
</g>
</g>
</svg>
