<?xml version="1.0" encoding="UTF-8" standalone="no"?>
<!DOCTYPE svg PUBLIC "-//W3C//DTD SVG 1.1//EN"
 "http://www.w3.org/Graphics/SVG/1.1/DTD/svg11.dtd">
<!-- Generated by graphviz version 2.43.0 (0)
 -->
<!-- Title: src/ftest/setup_tests.hpp Pages: 1 -->
<svg width="2129pt" height="280pt"
 viewBox="0.00 0.00 2128.50 280.00" xmlns="http://www.w3.org/2000/svg" xmlns:xlink="http://www.w3.org/1999/xlink">
<g id="graph0" class="graph" transform="scale(1 1) rotate(0) translate(4 276)">
<title>src/ftest/setup_tests.hpp</title>
<!-- Node1 -->
<g id="Node000001" class="node">
<title>Node1</title>
<g id="a_Node000001"><a xlink:title=" ">
<polygon fill="#999999" stroke="#666666" points="581,-272 445,-272 445,-253 581,-253 581,-272"/>
<text text-anchor="middle" x="513" y="-260" font-family="Helvetica,sans-Serif" font-size="10.00">src/ftest/setup_tests.hpp</text>
</a>
</g>
</g>
<!-- Node2 -->
<g id="Node000002" class="node">
<title>Node2</title>
<g id="a_Node000002"><a xlink:href="core_8hpp.html" target="_top" xlink:title=" ">
<polygon fill="white" stroke="#666666" points="354,-217 262,-217 262,-198 354,-198 354,-217"/>
<text text-anchor="middle" x="308" y="-205" font-family="Helvetica,sans-Serif" font-size="10.00">../core/core.hpp</text>
</a>
</g>
</g>
<!-- Node1&#45;&gt;Node2 -->
<g id="edge1_Node000001_Node000002" class="edge">
<title>Node1&#45;&gt;Node2</title>
<g id="a_edge1_Node000001_Node000002"><a xlink:title=" ">
<path fill="none" stroke="#63b8ff" d="M480.06,-252.98C445.05,-243.93 389.53,-229.58 351.07,-219.64"/>
<polygon fill="#63b8ff" stroke="#63b8ff" points="351.75,-216.2 341.19,-217.08 350,-222.97 351.75,-216.2"/>
</a>
</g>
</g>
<!-- Node51 -->
<g id="Node000051" class="node">
<title>Node51</title>
<g id="a_Node000051"><a xlink:href="drivers_8hpp.html" target="_top" xlink:title=" ">
<polygon fill="white" stroke="#666666" points="565,-156.5 461,-156.5 461,-137.5 565,-137.5 565,-156.5"/>
<text text-anchor="middle" x="513" y="-144.5" font-family="Helvetica,sans-Serif" font-size="10.00">../core/drivers.hpp</text>
</a>
</g>
</g>
<!-- Node1&#45;&gt;Node51 -->
<g id="edge14_Node000001_Node000051" class="edge">
<title>Node1&#45;&gt;Node51</title>
<g id="a_edge14_Node000001_Node000051"><a xlink:title=" ">
<path fill="none" stroke="#63b8ff" d="M513,-252.97C513,-234.73 513,-191.57 513,-166.64"/>
<polygon fill="#63b8ff" stroke="#63b8ff" points="516.5,-166.63 513,-156.63 509.5,-166.63 516.5,-166.63"/>
</a>
</g>
</g>
<!-- Node53 -->
<g id="Node000053" class="node">
<title>Node53</title>
<g id="a_Node000053"><a xlink:href="utest_8hpp.html" target="_top" xlink:title=" ">
<polygon fill="white" stroke="#666666" points="1277,-156.5 1209,-156.5 1209,-137.5 1277,-137.5 1277,-156.5"/>
<text text-anchor="middle" x="1243" y="-144.5" font-family="Helvetica,sans-Serif" font-size="10.00">./utest.hpp</text>
</a>
</g>
</g>
<!-- Node1&#45;&gt;Node53 -->
<g id="edge18_Node000001_Node000053" class="edge">
<title>Node1&#45;&gt;Node53</title>
<g id="a_edge18_Node000001_Node000053"><a xlink:title=" ">
<path fill="none" stroke="#63b8ff" d="M567.87,-252.97C707.03,-231.33 1071.7,-174.63 1198.66,-154.89"/>
<polygon fill="#63b8ff" stroke="#63b8ff" points="1199.45,-158.31 1208.79,-153.32 1198.37,-151.4 1199.45,-158.31"/>
</a>
</g>
</g>
<!-- Node3 -->
<g id="Node000003" class="node">
<title>Node3</title>
<g id="a_Node000003"><a xlink:href="governor__manager_8hpp.html" target="_top" xlink:title=" ">
<polygon fill="#fff0f0" stroke="red" points="784.5,-90.5 625.5,-90.5 625.5,-71.5 784.5,-71.5 784.5,-90.5"/>
<text text-anchor="middle" x="705" y="-78.5" font-family="Helvetica,sans-Serif" font-size="10.00">../gov/governor_manager.hpp</text>
</a>
</g>
</g>
<!-- Node2&#45;&gt;Node3 -->
<g id="edge2_Node000002_Node000003" class="edge">
<title>Node2&#45;&gt;Node3</title>
<g id="a_edge2_Node000002_Node000003"><a xlink:title=" ">
<path fill="none" stroke="#63b8ff" d="M354.08,-204.12C408.23,-200.13 500.08,-189.57 574,-162 617.14,-145.91 661.72,-115.1 686.15,-96.76"/>
<polygon fill="#63b8ff" stroke="#63b8ff" points="688.37,-99.47 694.19,-90.63 684.12,-93.91 688.37,-99.47"/>
</a>
</g>
</g>
<!-- Node34 -->
<g id="Node000034" class="node">
<title>Node34</title>
<g id="a_Node000034"><a xlink:href="indication_8hpp.html" target="_top" xlink:title=" ">
<polygon fill="#fff0f0" stroke="red" points="286.5,-90.5 167.5,-90.5 167.5,-71.5 286.5,-71.5 286.5,-90.5"/>
<text text-anchor="middle" x="227" y="-78.5" font-family="Helvetica,sans-Serif" font-size="10.00">../mon/indication.hpp</text>
</a>
</g>
</g>
<!-- Node2&#45;&gt;Node34 -->
<g id="edge3_Node000002_Node000034" class="edge">
<title>Node2&#45;&gt;Node34</title>
<g id="a_edge3_Node000002_Node000034"><a xlink:title=" ">
<path fill="none" stroke="#63b8ff" d="M302.43,-197.94C289.2,-177.6 255.64,-126.03 238.09,-99.04"/>
<polygon fill="#63b8ff" stroke="#63b8ff" points="240.99,-97.09 232.61,-90.62 235.13,-100.91 240.99,-97.09"/>
</a>
</g>
</g>
<!-- Node37 -->
<g id="Node000037" class="node">
<title>Node37</title>
<g id="a_Node000037"><a xlink:href="monitor_8hpp.html" target="_top" xlink:title=" ">
<polygon fill="#fff0f0" stroke="red" points="403.5,-156.5 294.5,-156.5 294.5,-137.5 403.5,-137.5 403.5,-156.5"/>
<text text-anchor="middle" x="349" y="-144.5" font-family="Helvetica,sans-Serif" font-size="10.00">../mon/monitor.hpp</text>
</a>
</g>
</g>
<!-- Node2&#45;&gt;Node37 -->
<g id="edge5_Node000002_Node000037" class="edge">
<title>Node2&#45;&gt;Node37</title>
<g id="a_edge5_Node000002_Node000037"><a xlink:title=" ">
<path fill="none" stroke="#63b8ff" d="M314.05,-197.87C320.11,-189.23 329.59,-175.7 337.14,-164.92"/>
<polygon fill="#63b8ff" stroke="#63b8ff" points="340.05,-166.87 342.93,-156.67 334.32,-162.85 340.05,-166.87"/>
</a>
</g>
</g>
<!-- Node42 -->
<g id="Node000042" class="node">
<title>Node42</title>
<g id="a_Node000042"><a xlink:href="metrics_8hpp.html" target="_top" xlink:title=" ">
<polygon fill="#fff0f0" stroke="red" points="238,-156.5 134,-156.5 134,-137.5 238,-137.5 238,-156.5"/>
<text text-anchor="middle" x="186" y="-144.5" font-family="Helvetica,sans-Serif" font-size="10.00">../mtr/metrics.hpp</text>
</a>
</g>
</g>
<!-- Node2&#45;&gt;Node42 -->
<g id="edge11_Node000002_Node000042" class="edge">
<title>Node2&#45;&gt;Node42</title>
<g id="a_edge11_Node000002_Node000042"><a xlink:title=" ">
<path fill="none" stroke="#63b8ff" d="M290.26,-197.99C269.93,-188.25 236.39,-172.16 212.86,-160.88"/>
<polygon fill="#63b8ff" stroke="#63b8ff" points="214.29,-157.68 203.76,-156.52 211.26,-164 214.29,-157.68"/>
</a>
</g>
</g>
<!-- Node50 -->
<g id="Node000050" class="node">
<title>Node50</title>
<g id="a_Node000050"><a xlink:title=" ">
<polygon fill="#e0e0e0" stroke="#999999" points="116,-162 0,-162 0,-132 116,-132 116,-162"/>
<text text-anchor="start" x="8" y="-150" font-family="Helvetica,sans-Serif" font-size="10.00">emlabcpp/pmr/stack</text>
<text text-anchor="middle" x="58" y="-139" font-family="Helvetica,sans-Serif" font-size="10.00">_resource.hpp</text>
</a>
</g>
</g>
<!-- Node2&#45;&gt;Node50 -->
<g id="edge13_Node000002_Node000050" class="edge">
<title>Node2&#45;&gt;Node50</title>
<g id="a_edge13_Node000002_Node000050"><a xlink:title=" ">
<path fill="none" stroke="#63b8ff" d="M271.65,-197.99C233.59,-189.09 172.95,-174.9 125.98,-163.91"/>
<polygon fill="#63b8ff" stroke="#63b8ff" points="126.71,-160.48 116.18,-161.61 125.12,-167.3 126.71,-160.48"/>
</a>
</g>
</g>
<!-- Node5 -->
<g id="Node000005" class="node">
<title>Node5</title>
<g id="a_Node000005"><a xlink:href="base_8hpp.html" target="_top" xlink:title=" ">
<polygon fill="#fff0f0" stroke="red" points="387,-24.5 317,-24.5 317,-5.5 387,-5.5 387,-24.5"/>
<text text-anchor="middle" x="352" y="-12.5" font-family="Helvetica,sans-Serif" font-size="10.00">../base.hpp</text>
</a>
</g>
</g>
<!-- Node34&#45;&gt;Node5 -->
<g id="edge4_Node000034_Node000005" class="edge">
<title>Node34&#45;&gt;Node5</title>
<g id="a_edge4_Node000034_Node000005"><a xlink:title=" ">
<path fill="none" stroke="#63b8ff" d="M243.86,-71.37C264.92,-60.59 301.18,-42.02 325.86,-29.38"/>
<polygon fill="#63b8ff" stroke="#63b8ff" points="327.7,-32.37 335.01,-24.7 324.51,-26.14 327.7,-32.37"/>
</a>
</g>
</g>
<!-- Node37&#45;&gt;Node34 -->
<g id="edge10_Node000037_Node000034" class="edge">
<title>Node37&#45;&gt;Node34</title>
<g id="a_edge10_Node000037_Node000034"><a xlink:title=" ">
<path fill="none" stroke="#63b8ff" d="M332.55,-137.37C311.99,-126.59 276.6,-108.02 252.51,-95.38"/>
<polygon fill="#63b8ff" stroke="#63b8ff" points="254.06,-92.25 243.58,-90.7 250.81,-98.44 254.06,-92.25"/>
</a>
</g>
</g>
<!-- Node40 -->
<g id="Node000040" class="node">
<title>Node40</title>
<g id="a_Node000040"><a xlink:href="interfaces_8hpp.html" target="_top" xlink:title=" ">
<polygon fill="#fff0f0" stroke="red" points="570,-90.5 456,-90.5 456,-71.5 570,-71.5 570,-90.5"/>
<text text-anchor="middle" x="513" y="-78.5" font-family="Helvetica,sans-Serif" font-size="10.00">../drv/interfaces.hpp</text>
</a>
</g>
</g>
<!-- Node37&#45;&gt;Node40 -->
<g id="edge6_Node000037_Node000040" class="edge">
<title>Node37&#45;&gt;Node40</title>
<g id="a_edge6_Node000037_Node000040"><a xlink:title=" ">
<path fill="none" stroke="#63b8ff" d="M371.12,-137.37C399.56,-126.27 449.15,-106.92 481.52,-94.28"/>
<polygon fill="#63b8ff" stroke="#63b8ff" points="482.93,-97.49 490.97,-90.6 480.38,-90.97 482.93,-97.49"/>
</a>
</g>
</g>
<!-- Node40&#45;&gt;Node5 -->
<g id="edge7_Node000040_Node000005" class="edge">
<title>Node40&#45;&gt;Node5</title>
<g id="a_edge7_Node000040_Node000005"><a xlink:title=" ">
<path fill="none" stroke="#63b8ff" d="M491.29,-71.37C463.48,-60.32 415.1,-41.08 383.32,-28.45"/>
<polygon fill="#63b8ff" stroke="#63b8ff" points="384.21,-25.04 373.63,-24.6 381.63,-31.54 384.21,-25.04"/>
</a>
</g>
</g>
<!-- Node23 -->
<g id="Node000023" class="node">
<title>Node23</title>
<g id="a_Node000023"><a xlink:href="status_8hpp.html" target="_top" xlink:title=" ">
<polygon fill="#fff0f0" stroke="red" points="1150.5,-24.5 1073.5,-24.5 1073.5,-5.5 1150.5,-5.5 1150.5,-24.5"/>
<text text-anchor="middle" x="1112" y="-12.5" font-family="Helvetica,sans-Serif" font-size="10.00">../status.hpp</text>
</a>
</g>
</g>
<!-- Node40&#45;&gt;Node23 -->
<g id="edge8_Node000040_Node000023" class="edge">
<title>Node40&#45;&gt;Node23</title>
<g id="a_edge8_Node000040_Node000023"><a xlink:title=" ">
<path fill="none" stroke="#63b8ff" d="M570.16,-71.87C585.07,-69.85 601.13,-67.76 616,-66 779.7,-46.63 974.36,-28.41 1063.3,-20.34"/>
<polygon fill="#63b8ff" stroke="#63b8ff" points="1063.72,-23.82 1073.36,-19.44 1063.09,-16.85 1063.72,-23.82"/>
</a>
</g>
</g>
<!-- Node29 -->
<g id="Node000029" class="node">
<title>Node29</title>
<g id="a_Node000029"><a xlink:title=" ">
<polygon fill="#e0e0e0" stroke="#999999" points="621.5,-30 488.5,-30 488.5,0 621.5,0 621.5,-30"/>
<text text-anchor="start" x="496.5" y="-18" font-family="Helvetica,sans-Serif" font-size="10.00">emlabcpp/experimental</text>
<text text-anchor="middle" x="555" y="-7" font-family="Helvetica,sans-Serif" font-size="10.00">/function_view.hpp</text>
</a>
</g>
</g>
<!-- Node40&#45;&gt;Node29 -->
<g id="edge9_Node000040_Node000029" class="edge">
<title>Node40&#45;&gt;Node29</title>
<g id="a_edge9_Node000040_Node000029"><a xlink:title=" ">
<path fill="none" stroke="#63b8ff" d="M518.66,-71.37C524.11,-63.08 532.57,-50.18 539.96,-38.92"/>
<polygon fill="#63b8ff" stroke="#63b8ff" points="543.02,-40.64 545.58,-30.36 537.16,-36.8 543.02,-40.64"/>
</a>
</g>
</g>
<!-- Node42&#45;&gt;Node5 -->
<g id="edge12_Node000042_Node000005" class="edge">
<title>Node42&#45;&gt;Node5</title>
<g id="a_edge12_Node000042_Node000005"><a xlink:title=" ">
<path fill="none" stroke="#63b8ff" d="M178.17,-137.44C164.84,-121.81 140.78,-88.22 158,-66 176.04,-42.72 255.09,-28.36 306.55,-21.31"/>
<polygon fill="#63b8ff" stroke="#63b8ff" points="307.31,-24.74 316.77,-19.95 306.39,-17.8 307.31,-24.74"/>
</a>
</g>
</g>
<!-- Node51&#45;&gt;Node40 -->
<g id="edge15_Node000051_Node000040" class="edge">
<title>Node51&#45;&gt;Node40</title>
<g id="a_edge15_Node000051_Node000040"><a xlink:title=" ">
<path fill="none" stroke="#63b8ff" d="M513,-137.37C513,-128.16 513,-113.29 513,-101.27"/>
<polygon fill="#63b8ff" stroke="#63b8ff" points="516.5,-100.91 513,-90.91 509.5,-100.91 516.5,-100.91"/>
</a>
</g>
</g>
<!-- Node51&#45;&gt;Node29 -->
<g id="edge17_Node000051_Node000029" class="edge">
<title>Node51&#45;&gt;Node29</title>
<g id="a_edge17_Node000051_Node000029"><a xlink:title=" ">
<path fill="none" stroke="#63b8ff" d="M532.33,-137.48C548.11,-129.34 569.34,-115.44 579,-96 588.06,-77.76 579.96,-55.46 570.8,-39.04"/>
<polygon fill="#63b8ff" stroke="#63b8ff" points="573.57,-36.87 565.4,-30.13 567.59,-40.49 573.57,-36.87"/>
</a>
</g>
</g>
<!-- Node52 -->
<g id="Node000052" class="node">
<title>Node52</title>
<g id="a_Node000052"><a xlink:title=" ">
<polygon fill="#e0e0e0" stroke="#999999" points="437.5,-96 304.5,-96 304.5,-66 437.5,-66 437.5,-96"/>
<text text-anchor="start" x="312.5" y="-84" font-family="Helvetica,sans-Serif" font-size="10.00">emlabcpp/experimental</text>
<text text-anchor="middle" x="371" y="-73" font-family="Helvetica,sans-Serif" font-size="10.00">/decompose.hpp</text>
</a>
</g>
</g>
<!-- Node51&#45;&gt;Node52 -->
<g id="edge16_Node000051_Node000052" class="edge">
<title>Node51&#45;&gt;Node52</title>
<g id="a_edge16_Node000051_Node000052"><a xlink:title=" ">
<path fill="none" stroke="#63b8ff" d="M493.85,-137.37C472.86,-127.91 438.57,-112.45 411.54,-100.27"/>
<polygon fill="#63b8ff" stroke="#63b8ff" points="412.87,-97.03 402.32,-96.12 410,-103.42 412.87,-97.03"/>
</a>
</g>
</g>
<!-- Node53&#45;&gt;Node3 -->
<g id="edge21_Node000053_Node000003" class="edge">
<title>Node53&#45;&gt;Node3</title>
<g id="a_edge21_Node000053_Node000003"><a xlink:title=" ">
<path fill="none" stroke="#63b8ff" d="M1208.89,-142.61C1134.28,-135.09 951,-116.11 798,-96 788.85,-94.8 779.2,-93.44 769.72,-92.06"/>
<polygon fill="#63b8ff" stroke="#63b8ff" points="769.94,-88.56 759.54,-90.56 768.92,-95.48 769.94,-88.56"/>
</a>
</g>
</g>
<!-- Node53&#45;&gt;Node5 -->
<g id="edge19_Node000053_Node000005" class="edge">
<title>Node53&#45;&gt;Node5</title>
<g id="a_edge19_Node000053_Node000005"><a xlink:title=" ">
<path fill="none" stroke="#63b8ff" d="M1209,-144.18C1123.27,-139.22 900.27,-123.93 832,-96 811.76,-87.72 813.27,-74.2 793,-66 790.71,-65.07 509.03,-33.54 397.1,-21.03"/>
<polygon fill="#63b8ff" stroke="#63b8ff" points="397.46,-17.55 387.13,-19.92 396.68,-24.51 397.46,-17.55"/>
</a>
</g>
</g>
<!-- Node53&#45;&gt;Node40 -->
<g id="edge20_Node000053_Node000040" class="edge">
<title>Node53&#45;&gt;Node40</title>
<g id="a_edge20_Node000053_Node000040"><a xlink:title=" ">
<path fill="none" stroke="#63b8ff" d="M1208.96,-143.95C1114.6,-138.13 841.83,-120.33 616,-96 604.37,-94.75 592.02,-93.23 580.06,-91.66"/>
<polygon fill="#63b8ff" stroke="#63b8ff" points="580.51,-88.19 570.14,-90.34 579.59,-95.13 580.51,-88.19"/>
</a>
</g>
</g>
<!-- Node53&#45;&gt;Node23 -->
<g id="edge22_Node000053_Node000023" class="edge">
<title>Node53&#45;&gt;Node23</title>
<g id="a_edge22_Node000053_Node000023"><a xlink:title=" ">
<path fill="none" stroke="#63b8ff" d="M1277.27,-145.86C1357.33,-144.42 1545.45,-133.93 1486,-66 1464.87,-41.86 1257.15,-25.39 1160.72,-18.99"/>
<polygon fill="#63b8ff" stroke="#63b8ff" points="1160.85,-15.49 1150.64,-18.33 1160.39,-22.47 1160.85,-15.49"/>
</a>
</g>
</g>
<!-- Node54 -->
<g id="Node000054" class="node">
<title>Node54</title>
<g id="a_Node000054"><a xlink:title=" ">
<polygon fill="#e0e0e0" stroke="#999999" points="1236.5,-90.5 1129.5,-90.5 1129.5,-71.5 1236.5,-71.5 1236.5,-90.5"/>
<text text-anchor="middle" x="1183" y="-78.5" font-family="Helvetica,sans-Serif" font-size="10.00">asrtrpp/collect.hpp</text>
</a>
</g>
</g>
<!-- Node53&#45;&gt;Node54 -->
<g id="edge23_Node000053_Node000054" class="edge">
<title>Node53&#45;&gt;Node54</title>
<g id="a_edge23_Node000053_Node000054"><a xlink:title=" ">
<path fill="none" stroke="#63b8ff" d="M1234.91,-137.37C1225.57,-127.4 1209.99,-110.79 1198.34,-98.36"/>
<polygon fill="#63b8ff" stroke="#63b8ff" points="1200.74,-95.81 1191.35,-90.91 1195.63,-100.59 1200.74,-95.81"/>
</a>
</g>
</g>
<!-- Node55 -->
<g id="Node000055" class="node">
<title>Node55</title>
<g id="a_Node000055"><a xlink:title=" ">
<polygon fill="#e0e0e0" stroke="#999999" points="1351,-90.5 1255,-90.5 1255,-71.5 1351,-71.5 1351,-90.5"/>
<text text-anchor="middle" x="1303" y="-78.5" font-family="Helvetica,sans-Serif" font-size="10.00">asrtrpp/diag.hpp</text>
</a>
</g>
</g>
<!-- Node53&#45;&gt;Node55 -->
<g id="edge24_Node000053_Node000055" class="edge">
<title>Node53&#45;&gt;Node55</title>
<g id="a_edge24_Node000053_Node000055"><a xlink:title=" ">
<path fill="none" stroke="#63b8ff" d="M1251.09,-137.37C1260.43,-127.4 1276.01,-110.79 1287.66,-98.36"/>
<polygon fill="#63b8ff" stroke="#63b8ff" points="1290.37,-100.59 1294.65,-90.91 1285.26,-95.81 1290.37,-100.59"/>
</a>
</g>
</g>
<!-- Node56 -->
<g id="Node000056" class="node">
<title>Node56</title>
<g id="a_Node000056"><a xlink:title=" ">
<polygon fill="#e0e0e0" stroke="#999999" points="1476.5,-90.5 1369.5,-90.5 1369.5,-71.5 1476.5,-71.5 1476.5,-90.5"/>
<text text-anchor="middle" x="1423" y="-78.5" font-family="Helvetica,sans-Serif" font-size="10.00">asrtrpp/param.hpp</text>
</a>
</g>
</g>
<!-- Node53&#45;&gt;Node56 -->
<g id="edge25_Node000053_Node000056" class="edge">
<title>Node53&#45;&gt;Node56</title>
<g id="a_edge25_Node000053_Node000056"><a xlink:title=" ">
<path fill="none" stroke="#63b8ff" d="M1267.28,-137.37C1298.77,-126.17 1353.86,-106.58 1389.36,-93.96"/>
<polygon fill="#63b8ff" stroke="#63b8ff" points="1390.57,-97.24 1398.82,-90.6 1388.23,-90.65 1390.57,-97.24"/>
</a>
</g>
</g>
<!-- Node57 -->
<g id="Node000057" class="node">
<title>Node57</title>
<g id="a_Node000057"><a xlink:title=" ">
<polygon fill="#e0e0e0" stroke="#999999" points="1661,-90.5 1533,-90.5 1533,-71.5 1661,-71.5 1661,-90.5"/>
<text text-anchor="middle" x="1597" y="-78.5" font-family="Helvetica,sans-Serif" font-size="10.00">asrtrpp/reac_assm.hpp</text>
</a>
</g>
</g>
<!-- Node53&#45;&gt;Node57 -->
<g id="edge26_Node000053_Node000057" class="edge">
<title>Node53&#45;&gt;Node57</title>
<g id="a_edge26_Node000053_Node000057"><a xlink:title=" ">
<path fill="none" stroke="#63b8ff" d="M1277.26,-139.81C1338.08,-128.81 1465.48,-105.78 1539.79,-92.34"/>
<polygon fill="#63b8ff" stroke="#63b8ff" points="1540.7,-95.74 1549.92,-90.51 1539.45,-88.85 1540.7,-95.74"/>
</a>
</g>
</g>
<!-- Node58 -->
<g id="Node000058" class="node">
<title>Node58</title>
<g id="a_Node000058"><a xlink:title=" ">
<polygon fill="#e0e0e0" stroke="#999999" points="1789,-90.5 1679,-90.5 1679,-71.5 1789,-71.5 1789,-90.5"/>
<text text-anchor="middle" x="1734" y="-78.5" font-family="Helvetica,sans-Serif" font-size="10.00">asrtrpp/stream.hpp</text>
</a>
</g>
</g>
<!-- Node53&#45;&gt;Node58 -->
<g id="edge27_Node000053_Node000058" class="edge">
<title>Node53&#45;&gt;Node58</title>
<g id="a_edge27_Node000053_Node000058"><a xlink:title=" ">
<path fill="none" stroke="#63b8ff" d="M1277.2,-143.15C1349.85,-136.85 1524.8,-120.32 1670,-96 1675.82,-95.02 1681.91,-93.87 1687.92,-92.65"/>
<polygon fill="#63b8ff" stroke="#63b8ff" points="1688.84,-96.03 1697.91,-90.55 1687.4,-89.18 1688.84,-96.03"/>
</a>
</g>
</g>
<!-- Node59 -->
<g id="Node000059" class="node">
<title>Node59</title>
<g id="a_Node000059"><a xlink:title=" ">
<polygon fill="#e0e0e0" stroke="#999999" points="1927,-90.5 1807,-90.5 1807,-71.5 1927,-71.5 1927,-90.5"/>
<text text-anchor="middle" x="1867" y="-78.5" font-family="Helvetica,sans-Serif" font-size="10.00">asrtrpp/task_unit.hpp</text>
</a>
</g>
</g>
<!-- Node53&#45;&gt;Node59 -->
<g id="edge28_Node000053_Node000059" class="edge">
<title>Node53&#45;&gt;Node59</title>
<g id="a_edge28_Node000053_Node000059"><a xlink:title=" ">
<path fill="none" stroke="#63b8ff" d="M1277.26,-144.23C1364.49,-139.45 1601.99,-124.62 1798,-96 1804.74,-95.01 1811.83,-93.79 1818.78,-92.49"/>
<polygon fill="#63b8ff" stroke="#63b8ff" points="1819.67,-95.88 1828.81,-90.53 1818.32,-89.01 1819.67,-95.88"/>
</a>
</g>
</g>
<!-- Node36 -->
<g id="Node000036" class="node">
<title>Node36</title>
<g id="a_Node000036"><a xlink:title=" ">
<polygon fill="#e0e0e0" stroke="#999999" points="1989,-90.5 1945,-90.5 1945,-71.5 1989,-71.5 1989,-90.5"/>
<text text-anchor="middle" x="1967" y="-78.5" font-family="Helvetica,sans-Serif" font-size="10.00">bitset</text>
</a>
</g>
</g>
<!-- Node53&#45;&gt;Node36 -->
<g id="edge29_Node000053_Node000036" class="edge">
<title>Node53&#45;&gt;Node36</title>
<g id="a_edge29_Node000053_Node000036"><a xlink:title=" ">
<path fill="none" stroke="#63b8ff" d="M1277.1,-145.12C1398.46,-141.75 1808.98,-128.18 1936,-96 1937.73,-95.56 1939.49,-95.03 1941.24,-94.44"/>
<polygon fill="#63b8ff" stroke="#63b8ff" points="1943,-97.5 1950.98,-90.53 1940.4,-91 1943,-97.5"/>
</a>
</g>
</g>
<!-- Node60 -->
<g id="Node000060" class="node">
<title>Node60</title>
<g id="a_Node000060"><a xlink:title=" ">
<polygon fill="#e0e0e0" stroke="#999999" points="2120.5,-90.5 2007.5,-90.5 2007.5,-71.5 2120.5,-71.5 2120.5,-90.5"/>
<text text-anchor="middle" x="2064" y="-78.5" font-family="Helvetica,sans-Serif" font-size="10.00">emlabcpp/defer.hpp</text>
</a>
</g>
</g>
<!-- Node53&#45;&gt;Node60 -->
<g id="edge30_Node000053_Node000060" class="edge">
<title>Node53&#45;&gt;Node60</title>
<g id="a_edge30_Node000053_Node000060"><a xlink:title=" ">
<path fill="none" stroke="#63b8ff" d="M1277.04,-145.48C1383.81,-143.46 1721.49,-134.28 1998,-96 2004.63,-95.08 2011.58,-93.88 2018.39,-92.56"/>
<polygon fill="#63b8ff" stroke="#63b8ff" points="2019.09,-95.99 2028.2,-90.57 2017.7,-89.13 2019.09,-95.99"/>
</a>
</g>
</g>
<!-- Node61 -->
<g id="Node000061" class="node">
<title>Node61</title>
<g id="a_Node000061"><a xlink:title=" ">
<polygon fill="#e0e0e0" stroke="#999999" points="933.5,-90.5 840.5,-90.5 840.5,-71.5 933.5,-71.5 933.5,-90.5"/>
<text text-anchor="middle" x="887" y="-78.5" font-family="Helvetica,sans-Serif" font-size="10.00">source_location</text>
</a>
</g>
</g>
<!-- Node53&#45;&gt;Node61 -->
<g id="edge31_Node000053_Node000061" class="edge">
<title>Node53&#45;&gt;Node61</title>
<g id="a_edge31_Node000053_Node000061"><a xlink:title=" ">
<path fill="none" stroke="#63b8ff" d="M1208.64,-141.19C1152.72,-133.14 1038.64,-115.89 943,-96 938.52,-95.07 933.85,-94.02 929.21,-92.93"/>
<polygon fill="#63b8ff" stroke="#63b8ff" points="929.72,-89.46 919.18,-90.51 928.08,-96.26 929.72,-89.46"/>
</a>
</g>
</g>
<!-- Node21 -->
<g id="Node000021" class="node">
<title>Node21</title>
<g id="a_Node000021"><a xlink:title=" ">
<polygon fill="#e0e0e0" stroke="#999999" points="1024.5,-90.5 951.5,-90.5 951.5,-71.5 1024.5,-71.5 1024.5,-90.5"/>
<text text-anchor="middle" x="988" y="-78.5" font-family="Helvetica,sans-Serif" font-size="10.00">string_view</text>
</a>
</g>
</g>
<!-- Node53&#45;&gt;Node21 -->
<g id="edge32_Node000053_Node000021" class="edge">
<title>Node53&#45;&gt;Node21</title>
<g id="a_edge32_Node000053_Node000021"><a xlink:title=" ">
<path fill="none" stroke="#63b8ff" d="M1208.81,-138.49C1167.29,-129.22 1095.21,-112.62 1034,-96 1031.03,-95.19 1027.97,-94.33 1024.9,-93.44"/>
<polygon fill="#63b8ff" stroke="#63b8ff" points="1025.75,-90.04 1015.16,-90.57 1023.76,-96.76 1025.75,-90.04"/>
</a>
</g>
</g>
<!-- Node62 -->
<g id="Node000062" class="node">
<title>Node62</title>
<g id="a_Node000062"><a xlink:title=" ">
<polygon fill="#e0e0e0" stroke="#999999" points="1111.5,-90.5 1042.5,-90.5 1042.5,-71.5 1111.5,-71.5 1111.5,-90.5"/>
<text text-anchor="middle" x="1077" y="-78.5" font-family="Helvetica,sans-Serif" font-size="10.00">type_traits</text>
</a>
</g>
</g>
<!-- Node53&#45;&gt;Node62 -->
<g id="edge33_Node000053_Node000062" class="edge">
<title>Node53&#45;&gt;Node62</title>
<g id="a_edge33_Node000053_Node000062"><a xlink:title=" ">
<path fill="none" stroke="#63b8ff" d="M1220.61,-137.37C1191.82,-126.27 1141.63,-106.92 1108.86,-94.28"/>
<polygon fill="#63b8ff" stroke="#63b8ff" points="1109.89,-90.93 1099.3,-90.6 1107.37,-97.46 1109.89,-90.93"/>
</a>
</g>
</g>
</g>
</svg>
