<?xml version="1.0" encoding="UTF-8" standalone="no"?>
<!DOCTYPE svg PUBLIC "-//W3C//DTD SVG 1.1//EN"
 "http://www.w3.org/Graphics/SVG/1.1/DTD/svg11.dtd">
<!-- Generated by graphviz version 2.43.0 (0)
 -->
<!-- Title: src/standard_callbacks.hpp Pages: 1 -->
<svg width="427pt" height="196pt"
 viewBox="0.00 0.00 426.50 196.00" xmlns="http://www.w3.org/2000/svg" xmlns:xlink="http://www.w3.org/1999/xlink">
<g id="graph0" class="graph" transform="scale(1 1) rotate(0) translate(4 192)">
<title>src/standard_callbacks.hpp</title>
<polygon fill="white" stroke="transparent" points="-4,4 -4,-192 422.5,-192 422.5,4 -4,4"/>
<!-- Node1 -->
<g id="node1" class="node">
<title>Node1</title>
<g id="a_node1"><a xlink:title=" ">
<polygon fill="#bfbfbf" stroke="black" points="216,-168.5 216,-187.5 365,-187.5 365,-168.5 216,-168.5"/>
<text text-anchor="middle" x="290.5" y="-175.5" font-family="Helvetica,sans-Serif" font-size="10.00">src/standard_callbacks.hpp</text>
</a>
</g>
</g>
<!-- Node2 -->
<g id="node2" class="node">
<title>Node2</title>
<g id="a_node2"><a xlink:href="callbacks_8hpp.html" target="_top" xlink:title=" ">
<polygon fill="white" stroke="black" points="162,-112.5 162,-131.5 245,-131.5 245,-112.5 162,-112.5"/>
<text text-anchor="middle" x="203.5" y="-119.5" font-family="Helvetica,sans-Serif" font-size="10.00">callbacks.hpp</text>
</a>
</g>
</g>
<!-- Node1&#45;&gt;Node2 -->
<g id="edge1" class="edge">
<title>Node1&#45;&gt;Node2</title>
<path fill="none" stroke="midnightblue" d="M276.52,-168.32C262.95,-159.9 242.12,-146.97 226.18,-137.07"/>
<polygon fill="midnightblue" stroke="midnightblue" points="227.79,-133.95 217.44,-131.65 224.09,-139.9 227.79,-133.95"/>
</g>
<!-- Node20 -->
<g id="node5" class="node">
<title>Node20</title>
<g id="a_node5"><a xlink:href="control_8hpp.html" target="_top" xlink:title=" ">
<polygon fill="white" stroke="red" points="255,-56.5 255,-75.5 326,-75.5 326,-56.5 255,-56.5"/>
<text text-anchor="middle" x="290.5" y="-63.5" font-family="Helvetica,sans-Serif" font-size="10.00">control.hpp</text>
</a>
</g>
</g>
<!-- Node1&#45;&gt;Node20 -->
<g id="edge8" class="edge">
<title>Node1&#45;&gt;Node20</title>
<path fill="none" stroke="midnightblue" d="M290.5,-168.37C290.5,-150.62 290.5,-109.67 290.5,-85.6"/>
<polygon fill="midnightblue" stroke="midnightblue" points="294,-85.59 290.5,-75.59 287,-85.59 294,-85.59"/>
</g>
<!-- Node27 -->
<g id="node6" class="node">
<title>Node27</title>
<g id="a_node6"><a xlink:href="metrics_8hpp.html" target="_top" xlink:title=" ">
<polygon fill="white" stroke="red" points="344.5,-56.5 344.5,-75.5 418.5,-75.5 418.5,-56.5 344.5,-56.5"/>
<text text-anchor="middle" x="381.5" y="-63.5" font-family="Helvetica,sans-Serif" font-size="10.00">metrics.hpp</text>
</a>
</g>
</g>
<!-- Node1&#45;&gt;Node27 -->
<g id="edge9" class="edge">
<title>Node1&#45;&gt;Node27</title>
<path fill="none" stroke="midnightblue" d="M297.64,-168.37C312.79,-150.05 348.37,-107.05 367.96,-83.36"/>
<polygon fill="midnightblue" stroke="midnightblue" points="370.72,-85.53 374.39,-75.59 365.32,-81.07 370.72,-85.53"/>
</g>
<!-- Node3 -->
<g id="node3" class="node">
<title>Node3</title>
<g id="a_node3"><a xlink:href="utils_8hpp.html" target="_top" xlink:title=" ">
<polygon fill="white" stroke="red" points="0,-56.5 0,-75.5 79,-75.5 79,-56.5 0,-56.5"/>
<text text-anchor="middle" x="39.5" y="-63.5" font-family="Helvetica,sans-Serif" font-size="10.00">cnv/utils.hpp</text>
</a>
</g>
</g>
<!-- Node2&#45;&gt;Node3 -->
<g id="edge2" class="edge">
<title>Node2&#45;&gt;Node3</title>
<path fill="none" stroke="midnightblue" d="M177.51,-112.44C149.8,-103.32 105.75,-88.81 74.88,-78.65"/>
<polygon fill="midnightblue" stroke="midnightblue" points="75.96,-75.32 65.36,-75.52 73.77,-81.97 75.96,-75.32"/>
</g>
<!-- Node4 -->
<g id="node4" class="node">
<title>Node4</title>
<g id="a_node4"><a xlink:href="converter_8hpp.html" target="_top" xlink:title=" ">
<polygon fill="white" stroke="red" points="32,-0.5 32,-19.5 115,-19.5 115,-0.5 32,-0.5"/>
<text text-anchor="middle" x="73.5" y="-7.5" font-family="Helvetica,sans-Serif" font-size="10.00">converter.hpp</text>
</a>
</g>
</g>
<!-- Node2&#45;&gt;Node4 -->
<g id="edge5" class="edge">
<title>Node2&#45;&gt;Node4</title>
<path fill="none" stroke="midnightblue" d="M184.88,-112.49C168.49,-104.47 144.5,-91.4 126.5,-76 109.98,-61.87 94.71,-42.11 84.84,-28.1"/>
<polygon fill="midnightblue" stroke="midnightblue" points="87.72,-26.11 79.18,-19.83 81.94,-30.06 87.72,-26.11"/>
</g>
<!-- Node2&#45;&gt;Node20 -->
<g id="edge4" class="edge">
<title>Node2&#45;&gt;Node20</title>
<path fill="none" stroke="midnightblue" d="M217.48,-112.32C231.05,-103.9 251.88,-90.97 267.82,-81.07"/>
<polygon fill="midnightblue" stroke="midnightblue" points="269.91,-83.9 276.56,-75.65 266.21,-77.95 269.91,-83.9"/>
</g>
<!-- Node2&#45;&gt;Node27 -->
<g id="edge6" class="edge">
<title>Node2&#45;&gt;Node27</title>
<path fill="none" stroke="midnightblue" d="M231.7,-112.44C261.91,-103.28 310.01,-88.69 343.53,-78.52"/>
<polygon fill="midnightblue" stroke="midnightblue" points="344.87,-81.77 353.43,-75.52 342.84,-75.07 344.87,-81.77"/>
</g>
<!-- Node35 -->
<g id="node7" class="node">
<title>Node35</title>
<g id="a_node7"><a xlink:title=" ">
<polygon fill="white" stroke="#bfbfbf" points="136,-56.5 136,-75.5 237,-75.5 237,-56.5 136,-56.5"/>
<text text-anchor="middle" x="186.5" y="-63.5" font-family="Helvetica,sans-Serif" font-size="10.00">stm32g4xx_hal.h</text>
</a>
</g>
</g>
<!-- Node2&#45;&gt;Node35 -->
<g id="edge7" class="edge">
<title>Node2&#45;&gt;Node35</title>
<path fill="none" stroke="midnightblue" d="M200.69,-112.08C198.42,-104.85 195.13,-94.41 192.29,-85.4"/>
<polygon fill="midnightblue" stroke="midnightblue" points="195.6,-84.24 189.25,-75.75 188.92,-86.34 195.6,-84.24"/>
</g>
<!-- Node3&#45;&gt;Node4 -->
<g id="edge3" class="edge">
<title>Node3&#45;&gt;Node4</title>
<path fill="none" stroke="midnightblue" d="M45.11,-56.08C49.87,-48.53 56.82,-37.49 62.65,-28.23"/>
<polygon fill="midnightblue" stroke="midnightblue" points="65.62,-30.08 67.99,-19.75 59.7,-26.35 65.62,-30.08"/>
</g>
</g>
</svg>
