<?xml version="1.0" encoding="UTF-8" standalone="no"?>
<!DOCTYPE svg PUBLIC "-//W3C//DTD SVG 1.1//EN"
 "http://www.w3.org/Graphics/SVG/1.1/DTD/svg11.dtd">
<!-- Generated by graphviz version 2.43.0 (0)
 -->
<!-- Title: platforms/stm32g4/stm32g4xx_hal_conf.h Pages: 1 -->
<svg width="5395pt" height="95pt"
 viewBox="0.00 0.00 5395.00 95.00" xmlns="http://www.w3.org/2000/svg" xmlns:xlink="http://www.w3.org/1999/xlink">
<g id="graph0" class="graph" transform="scale(1 1) rotate(0) translate(4 91)">
<title>platforms/stm32g4/stm32g4xx_hal_conf.h</title>
<polygon fill="white" stroke="transparent" points="-4,4 -4,-91 5391,-91 5391,4 -4,4"/>
<!-- Node1 -->
<g id="node1" class="node">
<title>Node1</title>
<g id="a_node1"><a xlink:title="HAL configuration template file. This file should be copied to the application folder and renamed to ...">
<polygon fill="#bfbfbf" stroke="black" points="2601.5,-56.5 2601.5,-86.5 2768.5,-86.5 2768.5,-56.5 2601.5,-56.5"/>
<text text-anchor="start" x="2609.5" y="-74.5" font-family="Helvetica,sans-Serif" font-size="10.00">platforms/stm32g4/stm32g4xx</text>
<text text-anchor="middle" x="2685" y="-63.5" font-family="Helvetica,sans-Serif" font-size="10.00">_hal_conf.h</text>
</a>
</g>
</g>
<!-- Node2 -->
<g id="node2" class="node">
<title>Node2</title>
<g id="a_node2"><a xlink:title=" ">
<polygon fill="white" stroke="#bfbfbf" points="0,-0.5 0,-19.5 120,-19.5 120,-0.5 0,-0.5"/>
<text text-anchor="middle" x="60" y="-7.5" font-family="Helvetica,sans-Serif" font-size="10.00">stm32g4xx_hal_rcc.h</text>
</a>
</g>
</g>
<!-- Node1&#45;&gt;Node2 -->
<g id="edge1" class="edge">
<title>Node1&#45;&gt;Node2</title>
<path fill="none" stroke="midnightblue" d="M2601.31,-70.09C2220.36,-68.01 646.89,-57.35 130.31,-19.99"/>
<polygon fill="midnightblue" stroke="midnightblue" points="130.4,-16.49 120.17,-19.24 129.89,-23.47 130.4,-16.49"/>
</g>
<!-- Node3 -->
<g id="node3" class="node">
<title>Node3</title>
<g id="a_node3"><a xlink:title=" ">
<polygon fill="white" stroke="#bfbfbf" points="138.5,-0.5 138.5,-19.5 265.5,-19.5 265.5,-0.5 138.5,-0.5"/>
<text text-anchor="middle" x="202" y="-7.5" font-family="Helvetica,sans-Serif" font-size="10.00">stm32g4xx_hal_gpio.h</text>
</a>
</g>
</g>
<!-- Node1&#45;&gt;Node3 -->
<g id="edge2" class="edge">
<title>Node1&#45;&gt;Node3</title>
<path fill="none" stroke="midnightblue" d="M2601.2,-69.89C2233.82,-67.04 762.63,-53.75 275.92,-19.96"/>
<polygon fill="midnightblue" stroke="midnightblue" points="275.89,-16.45 265.66,-19.24 275.39,-23.43 275.89,-16.45"/>
</g>
<!-- Node4 -->
<g id="node4" class="node">
<title>Node4</title>
<g id="a_node4"><a xlink:title=" ">
<polygon fill="white" stroke="#bfbfbf" points="284,-0.5 284,-19.5 412,-19.5 412,-0.5 284,-0.5"/>
<text text-anchor="middle" x="348" y="-7.5" font-family="Helvetica,sans-Serif" font-size="10.00">stm32g4xx_hal_dma.h</text>
</a>
</g>
</g>
<!-- Node1&#45;&gt;Node4 -->
<g id="edge3" class="edge">
<title>Node1&#45;&gt;Node4</title>
<path fill="none" stroke="midnightblue" d="M2601.25,-69.76C2248.1,-66.46 878.19,-51.9 422.33,-20"/>
<polygon fill="midnightblue" stroke="midnightblue" points="422.28,-16.49 412.06,-19.27 421.78,-23.47 422.28,-16.49"/>
</g>
<!-- Node5 -->
<g id="node5" class="node">
<title>Node5</title>
<g id="a_node5"><a xlink:title=" ">
<polygon fill="white" stroke="#bfbfbf" points="430.5,-0.5 430.5,-19.5 567.5,-19.5 567.5,-0.5 430.5,-0.5"/>
<text text-anchor="middle" x="499" y="-7.5" font-family="Helvetica,sans-Serif" font-size="10.00">stm32g4xx_hal_cortex.h</text>
</a>
</g>
</g>
<!-- Node1&#45;&gt;Node5 -->
<g id="edge4" class="edge">
<title>Node1&#45;&gt;Node5</title>
<path fill="none" stroke="midnightblue" d="M2601.31,-69.53C2263.77,-65.46 1000.75,-48.67 577.95,-20.06"/>
<polygon fill="midnightblue" stroke="midnightblue" points="578.03,-16.56 567.82,-19.36 577.55,-23.54 578.03,-16.56"/>
</g>
<!-- Node6 -->
<g id="node6" class="node">
<title>Node6</title>
<g id="a_node6"><a xlink:title=" ">
<polygon fill="white" stroke="#bfbfbf" points="585.5,-0.5 585.5,-19.5 708.5,-19.5 708.5,-0.5 585.5,-0.5"/>
<text text-anchor="middle" x="647" y="-7.5" font-family="Helvetica,sans-Serif" font-size="10.00">stm32g4xx_hal_adc.h</text>
</a>
</g>
</g>
<!-- Node1&#45;&gt;Node6 -->
<g id="edge5" class="edge">
<title>Node1&#45;&gt;Node6</title>
<path fill="none" stroke="midnightblue" d="M2601.43,-69.5C2278.63,-65.44 1112.02,-49.11 718.79,-20.05"/>
<polygon fill="midnightblue" stroke="midnightblue" points="719.04,-16.56 708.8,-19.29 718.51,-23.54 719.04,-16.56"/>
</g>
<!-- Node7 -->
<g id="node7" class="node">
<title>Node7</title>
<g id="a_node7"><a xlink:title=" ">
<polygon fill="white" stroke="#bfbfbf" points="726.5,-0.5 726.5,-19.5 859.5,-19.5 859.5,-0.5 726.5,-0.5"/>
<text text-anchor="middle" x="793" y="-7.5" font-family="Helvetica,sans-Serif" font-size="10.00">stm32g4xx_hal_comp.h</text>
</a>
</g>
</g>
<!-- Node1&#45;&gt;Node7 -->
<g id="edge6" class="edge">
<title>Node1&#45;&gt;Node7</title>
<path fill="none" stroke="midnightblue" d="M2601.1,-70.9C2343.81,-71.54 1543.08,-69.2 870.02,-20.08"/>
<polygon fill="midnightblue" stroke="midnightblue" points="869.85,-16.56 859.63,-19.32 869.34,-23.54 869.85,-16.56"/>
</g>
<!-- Node8 -->
<g id="node8" class="node">
<title>Node8</title>
<g id="a_node8"><a xlink:title=" ">
<polygon fill="white" stroke="#bfbfbf" points="877.5,-0.5 877.5,-19.5 1012.5,-19.5 1012.5,-0.5 877.5,-0.5"/>
<text text-anchor="middle" x="945" y="-7.5" font-family="Helvetica,sans-Serif" font-size="10.00">stm32g4xx_hal_cordic.h</text>
</a>
</g>
</g>
<!-- Node1&#45;&gt;Node8 -->
<g id="edge7" class="edge">
<title>Node1&#45;&gt;Node8</title>
<path fill="none" stroke="midnightblue" d="M2601.38,-70.5C2358.96,-69.96 1634.78,-64.49 1022.93,-19.99"/>
<polygon fill="midnightblue" stroke="midnightblue" points="1022.8,-16.47 1012.57,-19.23 1022.29,-23.45 1022.8,-16.47"/>
</g>
<!-- Node9 -->
<g id="node9" class="node">
<title>Node9</title>
<g id="a_node9"><a xlink:title=" ">
<polygon fill="white" stroke="#bfbfbf" points="1031,-0.5 1031,-19.5 1151,-19.5 1151,-0.5 1031,-0.5"/>
<text text-anchor="middle" x="1091" y="-7.5" font-family="Helvetica,sans-Serif" font-size="10.00">stm32g4xx_hal_crc.h</text>
</a>
</g>
</g>
<!-- Node1&#45;&gt;Node9 -->
<g id="edge8" class="edge">
<title>Node1&#45;&gt;Node9</title>
<path fill="none" stroke="midnightblue" d="M2601.36,-70.56C2372.49,-70.13 1716.58,-64.81 1161.39,-20.03"/>
<polygon fill="midnightblue" stroke="midnightblue" points="1161.42,-16.52 1151.17,-19.2 1160.86,-23.49 1161.42,-16.52"/>
</g>
<!-- Node10 -->
<g id="node10" class="node">
<title>Node10</title>
<g id="a_node10"><a xlink:title=" ">
<polygon fill="white" stroke="#bfbfbf" points="1169.5,-0.5 1169.5,-19.5 1296.5,-19.5 1296.5,-0.5 1169.5,-0.5"/>
<text text-anchor="middle" x="1233" y="-7.5" font-family="Helvetica,sans-Serif" font-size="10.00">stm32g4xx_hal_cryp.h</text>
</a>
</g>
</g>
<!-- Node1&#45;&gt;Node10 -->
<g id="edge9" class="edge">
<title>Node1&#45;&gt;Node10</title>
<path fill="none" stroke="midnightblue" d="M2601.24,-69.99C2387.31,-68.15 1803.24,-59.65 1306.81,-20.08"/>
<polygon fill="midnightblue" stroke="midnightblue" points="1306.82,-16.56 1296.57,-19.25 1306.26,-23.54 1306.82,-16.56"/>
</g>
<!-- Node11 -->
<g id="node11" class="node">
<title>Node11</title>
<g id="a_node11"><a xlink:title=" ">
<polygon fill="white" stroke="#bfbfbf" points="1314.5,-0.5 1314.5,-19.5 1437.5,-19.5 1437.5,-0.5 1314.5,-0.5"/>
<text text-anchor="middle" x="1376" y="-7.5" font-family="Helvetica,sans-Serif" font-size="10.00">stm32g4xx_hal_dac.h</text>
</a>
</g>
</g>
<!-- Node1&#45;&gt;Node11 -->
<g id="edge10" class="edge">
<title>Node1&#45;&gt;Node11</title>
<path fill="none" stroke="midnightblue" d="M2601.46,-69.6C2403.04,-66.94 1887.74,-56.82 1447.86,-20.09"/>
<polygon fill="midnightblue" stroke="midnightblue" points="1448.06,-16.59 1437.81,-19.24 1447.48,-23.57 1448.06,-16.59"/>
</g>
<!-- Node12 -->
<g id="node12" class="node">
<title>Node12</title>
<g id="a_node12"><a xlink:title=" ">
<polygon fill="white" stroke="#bfbfbf" points="1455.5,-0.5 1455.5,-19.5 1580.5,-19.5 1580.5,-0.5 1455.5,-0.5"/>
<text text-anchor="middle" x="1518" y="-7.5" font-family="Helvetica,sans-Serif" font-size="10.00">stm32g4xx_hal_exti.h</text>
</a>
</g>
</g>
<!-- Node1&#45;&gt;Node12 -->
<g id="edge11" class="edge">
<title>Node1&#45;&gt;Node12</title>
<path fill="none" stroke="midnightblue" d="M2601.32,-68.93C2419.35,-65.01 1973.86,-52.74 1590.86,-20.1"/>
<polygon fill="midnightblue" stroke="midnightblue" points="1590.95,-16.59 1580.69,-19.22 1590.35,-23.57 1590.95,-16.59"/>
</g>
<!-- Node13 -->
<g id="node13" class="node">
<title>Node13</title>
<g id="a_node13"><a xlink:title=" ">
<polygon fill="white" stroke="#bfbfbf" points="1598.5,-0.5 1598.5,-19.5 1731.5,-19.5 1731.5,-0.5 1598.5,-0.5"/>
<text text-anchor="middle" x="1665" y="-7.5" font-family="Helvetica,sans-Serif" font-size="10.00">stm32g4xx_hal_fdcan.h</text>
</a>
</g>
</g>
<!-- Node1&#45;&gt;Node13 -->
<g id="edge12" class="edge">
<title>Node1&#45;&gt;Node13</title>
<path fill="none" stroke="midnightblue" d="M2601.44,-67.89C2438.2,-62.38 2065.3,-47.81 1741.67,-20.09"/>
<polygon fill="midnightblue" stroke="midnightblue" points="1741.9,-16.6 1731.63,-19.23 1741.3,-23.57 1741.9,-16.6"/>
</g>
<!-- Node14 -->
<g id="node14" class="node">
<title>Node14</title>
<g id="a_node14"><a xlink:title=" ">
<polygon fill="white" stroke="#bfbfbf" points="1749.5,-0.5 1749.5,-19.5 1878.5,-19.5 1878.5,-0.5 1749.5,-0.5"/>
<text text-anchor="middle" x="1814" y="-7.5" font-family="Helvetica,sans-Serif" font-size="10.00">stm32g4xx_hal_flash.h</text>
</a>
</g>
</g>
<!-- Node1&#45;&gt;Node14 -->
<g id="edge13" class="edge">
<title>Node1&#45;&gt;Node14</title>
<path fill="none" stroke="midnightblue" d="M2601.29,-66.84C2457.67,-60.21 2154.84,-44.64 1889.09,-20.15"/>
<polygon fill="midnightblue" stroke="midnightblue" points="1889.14,-16.64 1878.86,-19.2 1888.49,-23.61 1889.14,-16.64"/>
</g>
<!-- Node15 -->
<g id="node15" class="node">
<title>Node15</title>
<g id="a_node15"><a xlink:title=" ">
<polygon fill="white" stroke="#bfbfbf" points="1896.5,-0.5 1896.5,-19.5 2027.5,-19.5 2027.5,-0.5 1896.5,-0.5"/>
<text text-anchor="middle" x="1962" y="-7.5" font-family="Helvetica,sans-Serif" font-size="10.00">stm32g4xx_hal_fmac.h</text>
</a>
</g>
</g>
<!-- Node1&#45;&gt;Node15 -->
<g id="edge14" class="edge">
<title>Node1&#45;&gt;Node15</title>
<path fill="none" stroke="midnightblue" d="M2601.28,-65.09C2479.7,-56.99 2246.92,-40.55 2038.07,-20.07"/>
<polygon fill="midnightblue" stroke="midnightblue" points="2038.13,-16.56 2027.83,-19.06 2037.44,-23.52 2038.13,-16.56"/>
</g>
<!-- Node16 -->
<g id="node16" class="node">
<title>Node16</title>
<g id="a_node16"><a xlink:title=" ">
<polygon fill="white" stroke="#bfbfbf" points="2046,-0.5 2046,-19.5 2178,-19.5 2178,-0.5 2046,-0.5"/>
<text text-anchor="middle" x="2112" y="-7.5" font-family="Helvetica,sans-Serif" font-size="10.00">stm32g4xx_hal_hrtim.h</text>
</a>
</g>
</g>
<!-- Node1&#45;&gt;Node16 -->
<g id="edge15" class="edge">
<title>Node1&#45;&gt;Node16</title>
<path fill="none" stroke="midnightblue" d="M2601.24,-62.48C2504.37,-53.1 2339.8,-36.83 2188.21,-20.12"/>
<polygon fill="midnightblue" stroke="midnightblue" points="2188.57,-16.64 2178.25,-19.02 2187.8,-23.59 2188.57,-16.64"/>
</g>
<!-- Node17 -->
<g id="node17" class="node">
<title>Node17</title>
<g id="a_node17"><a xlink:title=" ">
<polygon fill="white" stroke="#bfbfbf" points="2196.5,-0.5 2196.5,-19.5 2321.5,-19.5 2321.5,-0.5 2196.5,-0.5"/>
<text text-anchor="middle" x="2259" y="-7.5" font-family="Helvetica,sans-Serif" font-size="10.00">stm32g4xx_hal_irda.h</text>
</a>
</g>
</g>
<!-- Node1&#45;&gt;Node17 -->
<g id="edge16" class="edge">
<title>Node1&#45;&gt;Node17</title>
<path fill="none" stroke="midnightblue" d="M2601.34,-58.82C2522.31,-47.78 2405.05,-31.4 2330.33,-20.96"/>
<polygon fill="midnightblue" stroke="midnightblue" points="2330.47,-17.45 2320.08,-19.53 2329.5,-24.38 2330.47,-17.45"/>
</g>
<!-- Node18 -->
<g id="node18" class="node">
<title>Node18</title>
<g id="a_node18"><a xlink:title=" ">
<polygon fill="white" stroke="#bfbfbf" points="2339.5,-0.5 2339.5,-19.5 2468.5,-19.5 2468.5,-0.5 2339.5,-0.5"/>
<text text-anchor="middle" x="2404" y="-7.5" font-family="Helvetica,sans-Serif" font-size="10.00">stm32g4xx_hal_iwdg.h</text>
</a>
</g>
</g>
<!-- Node1&#45;&gt;Node18 -->
<g id="edge17" class="edge">
<title>Node1&#45;&gt;Node18</title>
<path fill="none" stroke="midnightblue" d="M2618.76,-56.47C2568.38,-45.81 2500.12,-31.35 2454.19,-21.63"/>
<polygon fill="midnightblue" stroke="midnightblue" points="2454.68,-18.15 2444.17,-19.51 2453.23,-25 2454.68,-18.15"/>
</g>
<!-- Node19 -->
<g id="node19" class="node">
<title>Node19</title>
<g id="a_node19"><a xlink:title=" ">
<polygon fill="white" stroke="#bfbfbf" points="2487,-0.5 2487,-19.5 2607,-19.5 2607,-0.5 2487,-0.5"/>
<text text-anchor="middle" x="2547" y="-7.5" font-family="Helvetica,sans-Serif" font-size="10.00">stm32g4xx_hal_i2c.h</text>
</a>
</g>
</g>
<!-- Node1&#45;&gt;Node19 -->
<g id="edge18" class="edge">
<title>Node1&#45;&gt;Node19</title>
<path fill="none" stroke="midnightblue" d="M2652.3,-56.4C2629.25,-46.46 2598.64,-33.26 2576.37,-23.66"/>
<polygon fill="midnightblue" stroke="midnightblue" points="2577.65,-20.4 2567.08,-19.66 2574.88,-26.83 2577.65,-20.4"/>
</g>
<!-- Node20 -->
<g id="node20" class="node">
<title>Node20</title>
<g id="a_node20"><a xlink:title=" ">
<polygon fill="white" stroke="#bfbfbf" points="2625,-0.5 2625,-19.5 2745,-19.5 2745,-0.5 2625,-0.5"/>
<text text-anchor="middle" x="2685" y="-7.5" font-family="Helvetica,sans-Serif" font-size="10.00">stm32g4xx_hal_i2s.h</text>
</a>
</g>
</g>
<!-- Node1&#45;&gt;Node20 -->
<g id="edge19" class="edge">
<title>Node1&#45;&gt;Node20</title>
<path fill="none" stroke="midnightblue" d="M2685,-56.4C2685,-48.47 2685,-38.46 2685,-29.86"/>
<polygon fill="midnightblue" stroke="midnightblue" points="2688.5,-29.66 2685,-19.66 2681.5,-29.66 2688.5,-29.66"/>
</g>
<!-- Node21 -->
<g id="node21" class="node">
<title>Node21</title>
<g id="a_node21"><a xlink:title=" ">
<polygon fill="white" stroke="#bfbfbf" points="2763.5,-0.5 2763.5,-19.5 2894.5,-19.5 2894.5,-0.5 2763.5,-0.5"/>
<text text-anchor="middle" x="2829" y="-7.5" font-family="Helvetica,sans-Serif" font-size="10.00">stm32g4xx_hal_lptim.h</text>
</a>
</g>
</g>
<!-- Node1&#45;&gt;Node21 -->
<g id="edge20" class="edge">
<title>Node1&#45;&gt;Node21</title>
<path fill="none" stroke="midnightblue" d="M2719.13,-56.4C2743.29,-46.42 2775.4,-33.15 2798.67,-23.53"/>
<polygon fill="midnightblue" stroke="midnightblue" points="2800.14,-26.71 2808.05,-19.66 2797.47,-20.24 2800.14,-26.71"/>
</g>
<!-- Node22 -->
<g id="node22" class="node">
<title>Node22</title>
<g id="a_node22"><a xlink:title=" ">
<polygon fill="white" stroke="#bfbfbf" points="2913,-0.5 2913,-19.5 3043,-19.5 3043,-0.5 2913,-0.5"/>
<text text-anchor="middle" x="2978" y="-7.5" font-family="Helvetica,sans-Serif" font-size="10.00">stm32g4xx_hal_nand.h</text>
</a>
</g>
</g>
<!-- Node1&#45;&gt;Node22 -->
<g id="edge21" class="edge">
<title>Node1&#45;&gt;Node22</title>
<path fill="none" stroke="midnightblue" d="M2754.07,-56.47C2806.82,-45.76 2878.38,-31.23 2926.27,-21.51"/>
<polygon fill="midnightblue" stroke="midnightblue" points="2927.01,-24.93 2936.11,-19.51 2925.61,-18.07 2927.01,-24.93"/>
</g>
<!-- Node23 -->
<g id="node23" class="node">
<title>Node23</title>
<g id="a_node23"><a xlink:title=" ">
<polygon fill="white" stroke="#bfbfbf" points="3061.5,-0.5 3061.5,-19.5 3182.5,-19.5 3182.5,-0.5 3061.5,-0.5"/>
<text text-anchor="middle" x="3122" y="-7.5" font-family="Helvetica,sans-Serif" font-size="10.00">stm32g4xx_hal_nor.h</text>
</a>
</g>
</g>
<!-- Node1&#45;&gt;Node23 -->
<g id="edge22" class="edge">
<title>Node1&#45;&gt;Node23</title>
<path fill="none" stroke="midnightblue" d="M2768.74,-59.1C2850.69,-47.94 2974.12,-31.13 3051.28,-20.63"/>
<polygon fill="midnightblue" stroke="midnightblue" points="3051.95,-24.07 3061.39,-19.25 3051.01,-17.13 3051.95,-24.07"/>
</g>
<!-- Node24 -->
<g id="node24" class="node">
<title>Node24</title>
<g id="a_node24"><a xlink:title=" ">
<polygon fill="white" stroke="#bfbfbf" points="3201,-0.5 3201,-19.5 3341,-19.5 3341,-0.5 3201,-0.5"/>
<text text-anchor="middle" x="3271" y="-7.5" font-family="Helvetica,sans-Serif" font-size="10.00">stm32g4xx_hal_opamp.h</text>
</a>
</g>
</g>
<!-- Node1&#45;&gt;Node24 -->
<g id="edge23" class="edge">
<title>Node1&#45;&gt;Node24</title>
<path fill="none" stroke="midnightblue" d="M2768.92,-62.51C2867.34,-53.05 3035.71,-36.62 3190.61,-20.14"/>
<polygon fill="midnightblue" stroke="midnightblue" points="3191.22,-23.59 3200.79,-19.05 3190.48,-16.63 3191.22,-23.59"/>
</g>
<!-- Node25 -->
<g id="node25" class="node">
<title>Node25</title>
<g id="a_node25"><a xlink:title=" ">
<polygon fill="white" stroke="#bfbfbf" points="3359.5,-0.5 3359.5,-19.5 3482.5,-19.5 3482.5,-0.5 3359.5,-0.5"/>
<text text-anchor="middle" x="3421" y="-7.5" font-family="Helvetica,sans-Serif" font-size="10.00">stm32g4xx_hal_pcd.h</text>
</a>
</g>
</g>
<!-- Node1&#45;&gt;Node25 -->
<g id="edge24" class="edge">
<title>Node1&#45;&gt;Node25</title>
<path fill="none" stroke="midnightblue" d="M2768.58,-65.51C2892.75,-57.79 3133.54,-41.66 3349.2,-20.03"/>
<polygon fill="midnightblue" stroke="midnightblue" points="3349.85,-23.48 3359.45,-18.99 3349.15,-16.52 3349.85,-23.48"/>
</g>
<!-- Node26 -->
<g id="node26" class="node">
<title>Node26</title>
<g id="a_node26"><a xlink:title=" ">
<polygon fill="white" stroke="#bfbfbf" points="3500.5,-0.5 3500.5,-19.5 3623.5,-19.5 3623.5,-0.5 3500.5,-0.5"/>
<text text-anchor="middle" x="3562" y="-7.5" font-family="Helvetica,sans-Serif" font-size="10.00">stm32g4xx_hal_pwr.h</text>
</a>
</g>
</g>
<!-- Node1&#45;&gt;Node26 -->
<g id="edge25" class="edge">
<title>Node1&#45;&gt;Node26</title>
<path fill="none" stroke="midnightblue" d="M2768.79,-67.06C2913.76,-60.72 3220.97,-45.53 3490.22,-20.12"/>
<polygon fill="midnightblue" stroke="midnightblue" points="3490.56,-23.6 3500.19,-19.17 3489.9,-16.63 3490.56,-23.6"/>
</g>
<!-- Node27 -->
<g id="node27" class="node">
<title>Node27</title>
<g id="a_node27"><a xlink:title=" ">
<polygon fill="white" stroke="#bfbfbf" points="3642,-0.5 3642,-19.5 3768,-19.5 3768,-0.5 3642,-0.5"/>
<text text-anchor="middle" x="3705" y="-7.5" font-family="Helvetica,sans-Serif" font-size="10.00">stm32g4xx_hal_qspi.h</text>
</a>
</g>
</g>
<!-- Node1&#45;&gt;Node27 -->
<g id="edge26" class="edge">
<title>Node1&#45;&gt;Node27</title>
<path fill="none" stroke="midnightblue" d="M2768.52,-68.05C2932.13,-62.81 3306.53,-48.66 3631.72,-20.05"/>
<polygon fill="midnightblue" stroke="midnightblue" points="3632.16,-23.53 3641.81,-19.16 3631.54,-16.55 3632.16,-23.53"/>
</g>
<!-- Node28 -->
<g id="node28" class="node">
<title>Node28</title>
<g id="a_node28"><a xlink:title=" ">
<polygon fill="white" stroke="#bfbfbf" points="3786,-0.5 3786,-19.5 3908,-19.5 3908,-0.5 3786,-0.5"/>
<text text-anchor="middle" x="3847" y="-7.5" font-family="Helvetica,sans-Serif" font-size="10.00">stm32g4xx_hal_rng.h</text>
</a>
</g>
</g>
<!-- Node1&#45;&gt;Node28 -->
<g id="edge27" class="edge">
<title>Node1&#45;&gt;Node28</title>
<path fill="none" stroke="midnightblue" d="M2768.72,-68.96C2950.26,-65.11 3393.81,-52.97 3775.8,-20.03"/>
<polygon fill="midnightblue" stroke="midnightblue" points="3776.29,-23.5 3785.95,-19.15 3775.68,-16.53 3776.29,-23.5"/>
</g>
<!-- Node29 -->
<g id="node29" class="node">
<title>Node29</title>
<g id="a_node29"><a xlink:title=" ">
<polygon fill="white" stroke="#bfbfbf" points="3926.5,-0.5 3926.5,-19.5 4045.5,-19.5 4045.5,-0.5 3926.5,-0.5"/>
<text text-anchor="middle" x="3986" y="-7.5" font-family="Helvetica,sans-Serif" font-size="10.00">stm32g4xx_hal_rtc.h</text>
</a>
</g>
</g>
<!-- Node1&#45;&gt;Node29 -->
<g id="edge28" class="edge">
<title>Node1&#45;&gt;Node29</title>
<path fill="none" stroke="midnightblue" d="M2768.82,-69.63C2966.66,-67.01 3478.33,-57.01 3916.19,-19.98"/>
<polygon fill="midnightblue" stroke="midnightblue" points="3916.53,-23.47 3926.2,-19.13 3915.94,-16.49 3916.53,-23.47"/>
</g>
<!-- Node30 -->
<g id="node30" class="node">
<title>Node30</title>
<g id="a_node30"><a xlink:title=" ">
<polygon fill="white" stroke="#bfbfbf" points="4064,-0.5 4064,-19.5 4184,-19.5 4184,-0.5 4064,-0.5"/>
<text text-anchor="middle" x="4124" y="-7.5" font-family="Helvetica,sans-Serif" font-size="10.00">stm32g4xx_hal_sai.h</text>
</a>
</g>
</g>
<!-- Node1&#45;&gt;Node30 -->
<g id="edge29" class="edge">
<title>Node1&#45;&gt;Node30</title>
<path fill="none" stroke="midnightblue" d="M2768.56,-70.12C2981.29,-68.56 3560.78,-60.69 4053.66,-20.03"/>
<polygon fill="midnightblue" stroke="midnightblue" points="4054.15,-23.5 4063.82,-19.18 4053.57,-16.52 4054.15,-23.5"/>
</g>
<!-- Node31 -->
<g id="node31" class="node">
<title>Node31</title>
<g id="a_node31"><a xlink:title=" ">
<polygon fill="white" stroke="#bfbfbf" points="4202.5,-0.5 4202.5,-19.5 4357.5,-19.5 4357.5,-0.5 4202.5,-0.5"/>
<text text-anchor="middle" x="4280" y="-7.5" font-family="Helvetica,sans-Serif" font-size="10.00">stm32g4xx_hal_smartcard.h</text>
</a>
</g>
</g>
<!-- Node1&#45;&gt;Node31 -->
<g id="edge30" class="edge">
<title>Node1&#45;&gt;Node31</title>
<path fill="none" stroke="midnightblue" d="M2768.89,-69.74C2996.18,-67.23 3643.08,-57.19 4192.13,-20"/>
<polygon fill="midnightblue" stroke="midnightblue" points="4192.5,-23.49 4202.23,-19.32 4192.02,-16.5 4192.5,-23.49"/>
</g>
<!-- Node32 -->
<g id="node32" class="node">
<title>Node32</title>
<g id="a_node32"><a xlink:title=" ">
<polygon fill="white" stroke="#bfbfbf" points="4376,-0.5 4376,-19.5 4514,-19.5 4514,-0.5 4376,-0.5"/>
<text text-anchor="middle" x="4445" y="-7.5" font-family="Helvetica,sans-Serif" font-size="10.00">stm32g4xx_hal_smbus.h</text>
</a>
</g>
</g>
<!-- Node1&#45;&gt;Node32 -->
<g id="edge31" class="edge">
<title>Node1&#45;&gt;Node32</title>
<path fill="none" stroke="midnightblue" d="M2768.7,-70.5C3013.06,-69.95 3746.8,-64.49 4365.69,-20.03"/>
<polygon fill="midnightblue" stroke="midnightblue" points="4365.98,-23.52 4375.71,-19.3 4365.48,-16.53 4365.98,-23.52"/>
</g>
<!-- Node33 -->
<g id="node33" class="node">
<title>Node33</title>
<g id="a_node33"><a xlink:title=" ">
<polygon fill="white" stroke="#bfbfbf" points="4532,-0.5 4532,-19.5 4652,-19.5 4652,-0.5 4532,-0.5"/>
<text text-anchor="middle" x="4592" y="-7.5" font-family="Helvetica,sans-Serif" font-size="10.00">stm32g4xx_hal_spi.h</text>
</a>
</g>
</g>
<!-- Node1&#45;&gt;Node33 -->
<g id="edge32" class="edge">
<title>Node1&#45;&gt;Node33</title>
<path fill="none" stroke="midnightblue" d="M2768.58,-69.34C3077.41,-64.88 4154.79,-47.72 4521.71,-20"/>
<polygon fill="midnightblue" stroke="midnightblue" points="4522.13,-23.48 4531.83,-19.22 4521.59,-16.5 4522.13,-23.48"/>
</g>
<!-- Node34 -->
<g id="node34" class="node">
<title>Node34</title>
<g id="a_node34"><a xlink:title=" ">
<polygon fill="white" stroke="#bfbfbf" points="4670.5,-0.5 4670.5,-19.5 4801.5,-19.5 4801.5,-0.5 4670.5,-0.5"/>
<text text-anchor="middle" x="4736" y="-7.5" font-family="Helvetica,sans-Serif" font-size="10.00">stm32g4xx_hal_sram.h</text>
</a>
</g>
</g>
<!-- Node1&#45;&gt;Node34 -->
<g id="edge33" class="edge">
<title>Node1&#45;&gt;Node34</title>
<path fill="none" stroke="midnightblue" d="M2768.62,-69.41C3092.32,-65.03 4264.14,-47.65 4660.12,-19.97"/>
<polygon fill="midnightblue" stroke="midnightblue" points="4660.46,-23.45 4670.18,-19.25 4659.96,-16.47 4660.46,-23.45"/>
</g>
<!-- Node35 -->
<g id="node35" class="node">
<title>Node35</title>
<g id="a_node35"><a xlink:title=" ">
<polygon fill="white" stroke="#bfbfbf" points="4820,-0.5 4820,-19.5 4942,-19.5 4942,-0.5 4820,-0.5"/>
<text text-anchor="middle" x="4881" y="-7.5" font-family="Helvetica,sans-Serif" font-size="10.00">stm32g4xx_hal_tim.h</text>
</a>
</g>
</g>
<!-- Node1&#45;&gt;Node35 -->
<g id="edge34" class="edge">
<title>Node1&#45;&gt;Node35</title>
<path fill="none" stroke="midnightblue" d="M2768.5,-69.68C3107.5,-66.17 4382.62,-51.2 4809.72,-19.99"/>
<polygon fill="midnightblue" stroke="midnightblue" points="4810.24,-23.46 4819.95,-19.23 4809.72,-16.48 4810.24,-23.46"/>
</g>
<!-- Node36 -->
<g id="node36" class="node">
<title>Node36</title>
<g id="a_node36"><a xlink:title=" ">
<polygon fill="white" stroke="#bfbfbf" points="4960.5,-0.5 4960.5,-19.5 5085.5,-19.5 5085.5,-0.5 4960.5,-0.5"/>
<text text-anchor="middle" x="5023" y="-7.5" font-family="Helvetica,sans-Serif" font-size="10.00">stm32g4xx_hal_uart.h</text>
</a>
</g>
</g>
<!-- Node1&#45;&gt;Node36 -->
<g id="edge35" class="edge">
<title>Node1&#45;&gt;Node36</title>
<path fill="none" stroke="midnightblue" d="M2768.53,-69.78C3121.51,-66.57 4493.3,-52.3 4949.92,-19.97"/>
<polygon fill="midnightblue" stroke="midnightblue" points="4950.49,-23.44 4960.21,-19.23 4949.98,-16.46 4950.49,-23.44"/>
</g>
<!-- Node37 -->
<g id="node37" class="node">
<title>Node37</title>
<g id="a_node37"><a xlink:title=" ">
<polygon fill="white" stroke="#bfbfbf" points="5103.5,-0.5 5103.5,-19.5 5234.5,-19.5 5234.5,-0.5 5103.5,-0.5"/>
<text text-anchor="middle" x="5169" y="-7.5" font-family="Helvetica,sans-Serif" font-size="10.00">stm32g4xx_hal_usart.h</text>
</a>
</g>
</g>
<!-- Node1&#45;&gt;Node37 -->
<g id="edge36" class="edge">
<title>Node1&#45;&gt;Node37</title>
<path fill="none" stroke="midnightblue" d="M2768.8,-69.87C3136.17,-66.94 4607.34,-53.37 5093.03,-20.06"/>
<polygon fill="midnightblue" stroke="midnightblue" points="5093.53,-23.53 5103.27,-19.34 5093.05,-16.55 5093.53,-23.53"/>
</g>
<!-- Node38 -->
<g id="node38" class="node">
<title>Node38</title>
<g id="a_node38"><a xlink:title=" ">
<polygon fill="white" stroke="#bfbfbf" points="5253,-0.5 5253,-19.5 5387,-19.5 5387,-0.5 5253,-0.5"/>
<text text-anchor="middle" x="5320" y="-7.5" font-family="Helvetica,sans-Serif" font-size="10.00">stm32g4xx_hal_wwdg.h</text>
</a>
</g>
</g>
<!-- Node1&#45;&gt;Node38 -->
<g id="edge37" class="edge">
<title>Node1&#45;&gt;Node38</title>
<path fill="none" stroke="midnightblue" d="M2768.78,-69.95C3150.13,-67.3 4725.29,-54.47 5242.74,-20"/>
<polygon fill="midnightblue" stroke="midnightblue" points="5243.16,-23.48 5252.9,-19.31 5242.68,-16.49 5243.16,-23.48"/>
</g>
</g>
</svg>
