<?xml version="1.0" encoding="UTF-8" standalone="no"?>
<!DOCTYPE svg PUBLIC "-//W3C//DTD SVG 1.1//EN"
 "http://www.w3.org/Graphics/SVG/1.1/DTD/svg11.dtd">
<!-- Generated by graphviz version 2.43.0 (0)
 -->
<!-- Title: src/plt/stm32g4/platform.cpp Pages: 1 -->
<svg width="449pt" height="140pt"
 viewBox="0.00 0.00 448.50 140.00" xmlns="http://www.w3.org/2000/svg" xmlns:xlink="http://www.w3.org/1999/xlink">
<g id="graph0" class="graph" transform="scale(1 1) rotate(0) translate(4 136)">
<title>src/plt/stm32g4/platform.cpp</title>
<polygon fill="white" stroke="transparent" points="-4,4 -4,-136 444.5,-136 444.5,4 -4,4"/>
<!-- Node1 -->
<g id="node1" class="node">
<title>Node1</title>
<g id="a_node1"><a xlink:title=" ">
<polygon fill="#bfbfbf" stroke="black" points="161.5,-112.5 161.5,-131.5 319.5,-131.5 319.5,-112.5 161.5,-112.5"/>
<text text-anchor="middle" x="240.5" y="-119.5" font-family="Helvetica,sans-Serif" font-size="10.00">src/plt/stm32g4/platform.cpp</text>
</a>
</g>
</g>
<!-- Node2 -->
<g id="node2" class="node">
<title>Node2</title>
<g id="a_node2"><a xlink:href="platform_8hpp.html" target="_top" xlink:title=" ">
<polygon fill="white" stroke="black" points="46.5,-56.5 46.5,-75.5 126.5,-75.5 126.5,-56.5 46.5,-56.5"/>
<text text-anchor="middle" x="86.5" y="-63.5" font-family="Helvetica,sans-Serif" font-size="10.00">platform.hpp</text>
</a>
</g>
</g>
<!-- Node1&#45;&gt;Node2 -->
<g id="edge1" class="edge">
<title>Node1&#45;&gt;Node2</title>
<path fill="none" stroke="midnightblue" d="M216.1,-112.44C190.3,-103.4 149.42,-89.06 120.48,-78.92"/>
<polygon fill="midnightblue" stroke="midnightblue" points="121.38,-75.52 110.79,-75.52 119.07,-82.13 121.38,-75.52"/>
</g>
<!-- Node5 -->
<g id="node5" class="node">
<title>Node5</title>
<g id="a_node5"><a xlink:href="util_8hpp.html" target="_top" xlink:title=" ">
<polygon fill="white" stroke="black" points="144.5,-56.5 144.5,-75.5 212.5,-75.5 212.5,-56.5 144.5,-56.5"/>
<text text-anchor="middle" x="178.5" y="-63.5" font-family="Helvetica,sans-Serif" font-size="10.00">fw/util.hpp</text>
</a>
</g>
</g>
<!-- Node1&#45;&gt;Node5 -->
<g id="edge4" class="edge">
<title>Node1&#45;&gt;Node5</title>
<path fill="none" stroke="midnightblue" d="M230.54,-112.32C221.37,-104.34 207.56,-92.31 196.47,-82.65"/>
<polygon fill="midnightblue" stroke="midnightblue" points="198.48,-79.76 188.64,-75.83 193.88,-85.04 198.48,-79.76"/>
</g>
<!-- Node7 -->
<g id="node7" class="node">
<title>Node7</title>
<g id="a_node7"><a xlink:title=" ">
<polygon fill="white" stroke="#bfbfbf" points="215.5,-0.5 215.5,-19.5 265.5,-19.5 265.5,-0.5 215.5,-0.5"/>
<text text-anchor="middle" x="240.5" y="-7.5" font-family="Helvetica,sans-Serif" font-size="10.00">cstring</text>
</a>
</g>
</g>
<!-- Node1&#45;&gt;Node7 -->
<g id="edge8" class="edge">
<title>Node1&#45;&gt;Node7</title>
<path fill="none" stroke="midnightblue" d="M240.5,-112.37C240.5,-94.62 240.5,-53.67 240.5,-29.6"/>
<polygon fill="midnightblue" stroke="midnightblue" points="244,-29.59 240.5,-19.59 237,-29.59 244,-29.59"/>
</g>
<!-- Node8 -->
<g id="node8" class="node">
<title>Node8</title>
<g id="a_node8"><a xlink:title=" ">
<polygon fill="white" stroke="#bfbfbf" points="269,-56.5 269,-75.5 298,-75.5 298,-56.5 269,-56.5"/>
<text text-anchor="middle" x="283.5" y="-63.5" font-family="Helvetica,sans-Serif" font-size="10.00">bit</text>
</a>
</g>
</g>
<!-- Node1&#45;&gt;Node8 -->
<g id="edge7" class="edge">
<title>Node1&#45;&gt;Node8</title>
<path fill="none" stroke="midnightblue" d="M247.6,-112.08C253.74,-104.38 262.77,-93.03 270.24,-83.65"/>
<polygon fill="midnightblue" stroke="midnightblue" points="273.04,-85.75 276.53,-75.75 267.56,-81.39 273.04,-85.75"/>
</g>
<!-- Node9 -->
<g id="node9" class="node">
<title>Node9</title>
<g id="a_node9"><a xlink:title=" ">
<polygon fill="white" stroke="#bfbfbf" points="316.5,-56.5 316.5,-75.5 440.5,-75.5 440.5,-56.5 316.5,-56.5"/>
<text text-anchor="middle" x="378.5" y="-63.5" font-family="Helvetica,sans-Serif" font-size="10.00">emlabcpp/algorithm.h</text>
</a>
</g>
</g>
<!-- Node1&#45;&gt;Node9 -->
<g id="edge9" class="edge">
<title>Node1&#45;&gt;Node9</title>
<path fill="none" stroke="midnightblue" d="M262.37,-112.44C285.28,-103.48 321.48,-89.31 347.37,-79.18"/>
<polygon fill="midnightblue" stroke="midnightblue" points="348.7,-82.42 356.74,-75.52 346.15,-75.9 348.7,-82.42"/>
</g>
<!-- Node3 -->
<g id="node3" class="node">
<title>Node3</title>
<g id="a_node3"><a xlink:title=" ">
<polygon fill="white" stroke="#bfbfbf" points="0,-0.5 0,-19.5 53,-19.5 53,-0.5 0,-0.5"/>
<text text-anchor="middle" x="26.5" y="-7.5" font-family="Helvetica,sans-Serif" font-size="10.00">hal.hpp</text>
</a>
</g>
</g>
<!-- Node2&#45;&gt;Node3 -->
<g id="edge2" class="edge">
<title>Node2&#45;&gt;Node3</title>
<path fill="none" stroke="midnightblue" d="M76.86,-56.32C67.99,-48.34 54.63,-36.31 43.89,-26.65"/>
<polygon fill="midnightblue" stroke="midnightblue" points="46.09,-23.92 36.32,-19.83 41.41,-29.13 46.09,-23.92"/>
</g>
<!-- Node4 -->
<g id="node4" class="node">
<title>Node4</title>
<g id="a_node4"><a xlink:title=" ">
<polygon fill="white" stroke="#bfbfbf" points="71.5,-0.5 71.5,-19.5 111.5,-19.5 111.5,-0.5 71.5,-0.5"/>
<text text-anchor="middle" x="91.5" y="-7.5" font-family="Helvetica,sans-Serif" font-size="10.00">span</text>
</a>
</g>
</g>
<!-- Node2&#45;&gt;Node4 -->
<g id="edge3" class="edge">
<title>Node2&#45;&gt;Node4</title>
<path fill="none" stroke="midnightblue" d="M87.33,-56.08C87.98,-49.01 88.92,-38.86 89.74,-29.99"/>
<polygon fill="midnightblue" stroke="midnightblue" points="93.25,-30.03 90.69,-19.75 86.28,-29.39 93.25,-30.03"/>
</g>
<!-- Node6 -->
<g id="node6" class="node">
<title>Node6</title>
<g id="a_node6"><a xlink:title=" ">
<polygon fill="white" stroke="#bfbfbf" points="133.5,-0.5 133.5,-19.5 197.5,-19.5 197.5,-0.5 133.5,-0.5"/>
<text text-anchor="middle" x="165.5" y="-7.5" font-family="Helvetica,sans-Serif" font-size="10.00">algorithm</text>
</a>
</g>
</g>
<!-- Node5&#45;&gt;Node6 -->
<g id="edge5" class="edge">
<title>Node5&#45;&gt;Node6</title>
<path fill="none" stroke="midnightblue" d="M176.35,-56.08C174.63,-48.93 172.15,-38.64 170,-29.69"/>
<polygon fill="midnightblue" stroke="midnightblue" points="173.35,-28.65 167.61,-19.75 166.54,-30.29 173.35,-28.65"/>
</g>
<!-- Node5&#45;&gt;Node7 -->
<g id="edge6" class="edge">
<title>Node5&#45;&gt;Node7</title>
<path fill="none" stroke="midnightblue" d="M188.46,-56.32C197.63,-48.34 211.44,-36.31 222.53,-26.65"/>
<polygon fill="midnightblue" stroke="midnightblue" points="225.12,-29.04 230.36,-19.83 220.52,-23.76 225.12,-29.04"/>
</g>
</g>
</svg>
