<?xml version="1.0" encoding="UTF-8" standalone="no"?>
<!DOCTYPE svg PUBLIC "-//W3C//DTD SVG 1.1//EN"
 "http://www.w3.org/Graphics/SVG/1.1/DTD/svg11.dtd">
<!-- Generated by graphviz version 2.43.0 (0)
 -->
<!-- Title: src/fw/store_persistent_config.cpp Pages: 1 -->
<svg width="611pt" height="151pt"
 viewBox="0.00 0.00 611.00 151.00" xmlns="http://www.w3.org/2000/svg" xmlns:xlink="http://www.w3.org/1999/xlink">
<g id="graph0" class="graph" transform="scale(1 1) rotate(0) translate(4 147)">
<title>src/fw/store_persistent_config.cpp</title>
<polygon fill="white" stroke="transparent" points="-4,4 -4,-147 607,-147 607,4 -4,4"/>
<!-- Node1 -->
<g id="node1" class="node">
<title>Node1</title>
<g id="a_node1"><a xlink:title=" ">
<polygon fill="#bfbfbf" stroke="black" points="239,-112.5 239,-142.5 366,-142.5 366,-112.5 239,-112.5"/>
<text text-anchor="start" x="247" y="-130.5" font-family="Helvetica,sans-Serif" font-size="10.00">src/fw/store_persistent</text>
<text text-anchor="middle" x="302.5" y="-119.5" font-family="Helvetica,sans-Serif" font-size="10.00">_config.cpp</text>
</a>
</g>
</g>
<!-- Node2 -->
<g id="node2" class="node">
<title>Node2</title>
<g id="a_node2"><a xlink:href="store__persistent__config_8hpp.html" target="_top" xlink:title=" ">
<polygon fill="white" stroke="black" points="0,-56.5 0,-75.5 151,-75.5 151,-56.5 0,-56.5"/>
<text text-anchor="middle" x="75.5" y="-63.5" font-family="Helvetica,sans-Serif" font-size="10.00">store_persistent_config.hpp</text>
</a>
</g>
</g>
<!-- Node1&#45;&gt;Node2 -->
<g id="edge1" class="edge">
<title>Node1&#45;&gt;Node2</title>
<path fill="none" stroke="midnightblue" d="M248.99,-112.47C208.97,-101.99 154.99,-87.84 117.93,-78.12"/>
<polygon fill="midnightblue" stroke="midnightblue" points="118.51,-74.66 107.95,-75.51 116.74,-81.43 118.51,-74.66"/>
</g>
<!-- Node17 -->
<g id="node4" class="node">
<title>Node17</title>
<g id="a_node4"><a xlink:href="util_8hpp.html" target="_top" xlink:title=" ">
<polygon fill="white" stroke="black" points="169,-56.5 169,-75.5 222,-75.5 222,-56.5 169,-56.5"/>
<text text-anchor="middle" x="195.5" y="-63.5" font-family="Helvetica,sans-Serif" font-size="10.00">util.hpp</text>
</a>
</g>
</g>
<!-- Node1&#45;&gt;Node17 -->
<g id="edge3" class="edge">
<title>Node1&#45;&gt;Node17</title>
<path fill="none" stroke="midnightblue" d="M277.14,-112.4C259.83,-102.77 237.02,-90.09 219.92,-80.58"/>
<polygon fill="midnightblue" stroke="midnightblue" points="221.51,-77.46 211.07,-75.66 218.11,-83.58 221.51,-77.46"/>
</g>
<!-- Node10 -->
<g id="node7" class="node">
<title>Node10</title>
<g id="a_node7"><a xlink:title=" ">
<polygon fill="white" stroke="#bfbfbf" points="240.5,-56.5 240.5,-75.5 364.5,-75.5 364.5,-56.5 240.5,-56.5"/>
<text text-anchor="middle" x="302.5" y="-63.5" font-family="Helvetica,sans-Serif" font-size="10.00">emlabcpp/algorithm.h</text>
</a>
</g>
</g>
<!-- Node1&#45;&gt;Node10 -->
<g id="edge6" class="edge">
<title>Node1&#45;&gt;Node10</title>
<path fill="none" stroke="midnightblue" d="M302.5,-112.4C302.5,-104.47 302.5,-94.46 302.5,-85.86"/>
<polygon fill="midnightblue" stroke="midnightblue" points="306,-85.66 302.5,-75.66 299,-85.66 306,-85.66"/>
</g>
<!-- Node20 -->
<g id="node8" class="node">
<title>Node20</title>
<g id="a_node8"><a xlink:title=" ">
<polygon fill="white" stroke="#bfbfbf" points="383,-56.5 383,-75.5 484,-75.5 484,-56.5 383,-56.5"/>
<text text-anchor="middle" x="433.5" y="-63.5" font-family="Helvetica,sans-Serif" font-size="10.00">emlabcpp/defer.h</text>
</a>
</g>
</g>
<!-- Node1&#45;&gt;Node20 -->
<g id="edge7" class="edge">
<title>Node1&#45;&gt;Node20</title>
<path fill="none" stroke="midnightblue" d="M333.55,-112.4C355.23,-102.55 383.96,-89.5 405.05,-79.92"/>
<polygon fill="midnightblue" stroke="midnightblue" points="406.78,-82.98 414.44,-75.66 403.89,-76.61 406.78,-82.98"/>
</g>
<!-- Node21 -->
<g id="node9" class="node">
<title>Node21</title>
<g id="a_node9"><a xlink:title=" ">
<polygon fill="white" stroke="#bfbfbf" points="502,-56.5 502,-75.5 603,-75.5 603,-56.5 502,-56.5"/>
<text text-anchor="middle" x="552.5" y="-63.5" font-family="Helvetica,sans-Serif" font-size="10.00">stm32g4xx_hal.h</text>
</a>
</g>
</g>
<!-- Node1&#45;&gt;Node21 -->
<g id="edge8" class="edge">
<title>Node1&#45;&gt;Node21</title>
<path fill="none" stroke="midnightblue" d="M361.43,-112.47C405.88,-101.9 465.97,-87.59 506.81,-77.87"/>
<polygon fill="midnightblue" stroke="midnightblue" points="507.84,-81.23 516.76,-75.51 506.22,-74.42 507.84,-81.23"/>
</g>
<!-- Node3 -->
<g id="node3" class="node">
<title>Node3</title>
<g id="a_node3"><a xlink:href="storage_8hpp.html" target="_top" xlink:title=" ">
<polygon fill="white" stroke="red" points="29.5,-0.5 29.5,-19.5 121.5,-19.5 121.5,-0.5 29.5,-0.5"/>
<text text-anchor="middle" x="75.5" y="-7.5" font-family="Helvetica,sans-Serif" font-size="10.00">cfg/storage.hpp</text>
</a>
</g>
</g>
<!-- Node2&#45;&gt;Node3 -->
<g id="edge2" class="edge">
<title>Node2&#45;&gt;Node3</title>
<path fill="none" stroke="midnightblue" d="M75.5,-56.08C75.5,-49.01 75.5,-38.86 75.5,-29.99"/>
<polygon fill="midnightblue" stroke="midnightblue" points="79,-29.75 75.5,-19.75 72,-29.75 79,-29.75"/>
</g>
<!-- Node18 -->
<g id="node5" class="node">
<title>Node18</title>
<g id="a_node5"><a xlink:title=" ">
<polygon fill="white" stroke="#bfbfbf" points="151.5,-0.5 151.5,-19.5 215.5,-19.5 215.5,-0.5 151.5,-0.5"/>
<text text-anchor="middle" x="183.5" y="-7.5" font-family="Helvetica,sans-Serif" font-size="10.00">algorithm</text>
</a>
</g>
</g>
<!-- Node17&#45;&gt;Node18 -->
<g id="edge4" class="edge">
<title>Node17&#45;&gt;Node18</title>
<path fill="none" stroke="midnightblue" d="M193.52,-56.08C191.93,-48.93 189.64,-38.64 187.65,-29.69"/>
<polygon fill="midnightblue" stroke="midnightblue" points="191.03,-28.75 185.44,-19.75 184.2,-30.27 191.03,-28.75"/>
</g>
<!-- Node19 -->
<g id="node6" class="node">
<title>Node19</title>
<g id="a_node6"><a xlink:title=" ">
<polygon fill="white" stroke="#bfbfbf" points="233.5,-0.5 233.5,-19.5 283.5,-19.5 283.5,-0.5 233.5,-0.5"/>
<text text-anchor="middle" x="258.5" y="-7.5" font-family="Helvetica,sans-Serif" font-size="10.00">cstring</text>
</a>
</g>
</g>
<!-- Node17&#45;&gt;Node19 -->
<g id="edge5" class="edge">
<title>Node17&#45;&gt;Node19</title>
<path fill="none" stroke="midnightblue" d="M205.62,-56.32C215.03,-48.26 229.24,-36.08 240.57,-26.37"/>
<polygon fill="midnightblue" stroke="midnightblue" points="242.88,-29 248.19,-19.83 238.32,-23.68 242.88,-29"/>
</g>
</g>
</svg>
