<?xml version="1.0" encoding="UTF-8" standalone="no"?>
<!DOCTYPE svg PUBLIC "-//W3C//DTD SVG 1.1//EN"
 "http://www.w3.org/Graphics/SVG/1.1/DTD/svg11.dtd">
<!-- Generated by graphviz version 2.43.0 (0)
 -->
<!-- Title: src/cfg/storage.cpp Pages: 1 -->
<svg width="479pt" height="225pt"
 viewBox="0.00 0.00 479.00 225.00" xmlns="http://www.w3.org/2000/svg" xmlns:xlink="http://www.w3.org/1999/xlink">
<g id="graph0" class="graph" transform="scale(1 1) rotate(0) translate(4 221)">
<title>src/cfg/storage.cpp</title>
<!-- Node1 -->
<g id="Node000001" class="node">
<title>Node1</title>
<g id="a_Node000001"><a xlink:title=" ">
<polygon fill="#999999" stroke="#666666" points="364,-217 255,-217 255,-198 364,-198 364,-217"/>
<text text-anchor="middle" x="309.5" y="-205" font-family="Helvetica,sans-Serif" font-size="10.00">src/cfg/storage.cpp</text>
</a>
</g>
</g>
<!-- Node2 -->
<g id="Node000002" class="node">
<title>Node2</title>
<g id="a_Node000002"><a xlink:href="storage_8hpp.html" target="_top" xlink:title=" ">
<polygon fill="white" stroke="#666666" points="193.5,-156.5 119.5,-156.5 119.5,-137.5 193.5,-137.5 193.5,-156.5"/>
<text text-anchor="middle" x="156.5" y="-144.5" font-family="Helvetica,sans-Serif" font-size="10.00">storage.hpp</text>
</a>
</g>
</g>
<!-- Node1&#45;&gt;Node2 -->
<g id="edge1_Node000001_Node000002" class="edge">
<title>Node1&#45;&gt;Node2</title>
<g id="a_edge1_Node000001_Node000002"><a xlink:title=" ">
<path fill="none" stroke="#63b8ff" d="M287.25,-197.99C261.19,-188.03 217.82,-171.45 188.23,-160.13"/>
<polygon fill="#63b8ff" stroke="#63b8ff" points="189.36,-156.82 178.77,-156.52 186.86,-163.36 189.36,-156.82"/>
</a>
</g>
</g>
<!-- Node13 -->
<g id="Node000013" class="node">
<title>Node13</title>
<g id="a_Node000013"><a xlink:title=" ">
<polygon fill="#e0e0e0" stroke="#999999" points="341.5,-30 193.5,-30 193.5,0 341.5,0 341.5,-30"/>
<text text-anchor="start" x="201.5" y="-18" font-family="Helvetica,sans-Serif" font-size="10.00">emlabcpp/protocol/register</text>
<text text-anchor="middle" x="267.5" y="-7" font-family="Helvetica,sans-Serif" font-size="10.00">_handler.h</text>
</a>
</g>
</g>
<!-- Node1&#45;&gt;Node13 -->
<g id="edge8_Node000001_Node000013" class="edge">
<title>Node1&#45;&gt;Node13</title>
<g id="a_edge8_Node000001_Node000013"><a xlink:title=" ">
<path fill="none" stroke="#63b8ff" d="M309.09,-197.78C307.85,-175.45 303.36,-114.57 289.5,-66 286.92,-56.95 283.04,-47.41 279.25,-39.12"/>
<polygon fill="#63b8ff" stroke="#63b8ff" points="282.39,-37.57 274.92,-30.05 276.07,-40.59 282.39,-37.57"/>
</a>
</g>
</g>
<!-- Node17 -->
<g id="Node000017" class="node">
<title>Node17</title>
<g id="a_Node000017"><a xlink:title=" ">
<polygon fill="#e0e0e0" stroke="#999999" points="471,-162 338,-162 338,-132 471,-132 471,-162"/>
<text text-anchor="start" x="346" y="-150" font-family="Helvetica,sans-Serif" font-size="10.00">emlabcpp/experimental</text>
<text text-anchor="middle" x="404.5" y="-139" font-family="Helvetica,sans-Serif" font-size="10.00">/cfg/handler.h</text>
</a>
</g>
</g>
<!-- Node1&#45;&gt;Node17 -->
<g id="edge7_Node000001_Node000017" class="edge">
<title>Node1&#45;&gt;Node17</title>
<g id="a_edge7_Node000001_Node000017"><a xlink:title=" ">
<path fill="none" stroke="#63b8ff" d="M323.52,-197.87C336.41,-189.93 355.99,-177.87 372.67,-167.6"/>
<polygon fill="#63b8ff" stroke="#63b8ff" points="374.9,-170.34 381.58,-162.11 371.23,-164.38 374.9,-170.34"/>
</a>
</g>
</g>
<!-- Node3 -->
<g id="Node000003" class="node">
<title>Node3</title>
<g id="a_Node000003"><a xlink:href="map_8hpp.html" target="_top" xlink:title=" ">
<polygon fill="#fff0f0" stroke="red" points="130,-90.5 65,-90.5 65,-71.5 130,-71.5 130,-90.5"/>
<text text-anchor="middle" x="97.5" y="-78.5" font-family="Helvetica,sans-Serif" font-size="10.00">./map.hpp</text>
</a>
</g>
</g>
<!-- Node2&#45;&gt;Node3 -->
<g id="edge2_Node000002_Node000003" class="edge">
<title>Node2&#45;&gt;Node3</title>
<g id="a_edge2_Node000002_Node000003"><a xlink:title=" ">
<path fill="none" stroke="#63b8ff" d="M148.54,-137.37C139.36,-127.4 124.04,-110.79 112.58,-98.36"/>
<polygon fill="#63b8ff" stroke="#63b8ff" points="115.06,-95.89 105.71,-90.91 109.91,-100.63 115.06,-95.89"/>
</a>
</g>
</g>
<!-- Node11 -->
<g id="Node000011" class="node">
<title>Node11</title>
<g id="a_Node000011"><a xlink:title=" ">
<polygon fill="#e0e0e0" stroke="#999999" points="133,-30 0,-30 0,0 133,0 133,-30"/>
<text text-anchor="start" x="8" y="-18" font-family="Helvetica,sans-Serif" font-size="10.00">emlabcpp/experimental</text>
<text text-anchor="middle" x="66.5" y="-7" font-family="Helvetica,sans-Serif" font-size="10.00">/string_buffer.h</text>
</a>
</g>
</g>
<!-- Node2&#45;&gt;Node11 -->
<g id="edge6_Node000002_Node000011" class="edge">
<title>Node2&#45;&gt;Node11</title>
<g id="a_edge6_Node000002_Node000011"><a xlink:title=" ">
<path fill="none" stroke="#63b8ff" d="M119.48,-138.09C96.76,-131.12 69.43,-118.44 55.5,-96 45.09,-79.23 49.46,-56.71 55.5,-39.84"/>
<polygon fill="#63b8ff" stroke="#63b8ff" points="58.9,-40.75 59.35,-30.16 52.4,-38.16 58.9,-40.75"/>
</a>
</g>
</g>
<!-- Node16 -->
<g id="Node000016" class="node">
<title>Node16</title>
<g id="a_Node000016"><a xlink:title=" ">
<polygon fill="#e0e0e0" stroke="#999999" points="281,-96 148,-96 148,-66 281,-66 281,-96"/>
<text text-anchor="start" x="156" y="-84" font-family="Helvetica,sans-Serif" font-size="10.00">emlabcpp/experimental</text>
<text text-anchor="middle" x="214.5" y="-73" font-family="Helvetica,sans-Serif" font-size="10.00">/function_view.h</text>
</a>
</g>
</g>
<!-- Node2&#45;&gt;Node16 -->
<g id="edge5_Node000002_Node000016" class="edge">
<title>Node2&#45;&gt;Node16</title>
<g id="a_edge5_Node000002_Node000016"><a xlink:title=" ">
<path fill="none" stroke="#63b8ff" d="M164.32,-137.37C172.06,-128.83 184.22,-115.41 194.63,-103.92"/>
<polygon fill="#63b8ff" stroke="#63b8ff" points="197.36,-106.12 201.49,-96.36 192.18,-101.42 197.36,-106.12"/>
</a>
</g>
</g>
<!-- Node3&#45;&gt;Node11 -->
<g id="edge3_Node000003_Node000011" class="edge">
<title>Node3&#45;&gt;Node11</title>
<g id="a_edge3_Node000003_Node000011"><a xlink:title=" ">
<path fill="none" stroke="#63b8ff" d="M93.32,-71.37C89.38,-63.24 83.3,-50.69 77.93,-39.59"/>
<polygon fill="#63b8ff" stroke="#63b8ff" points="80.97,-37.83 73.46,-30.36 74.67,-40.89 80.97,-37.83"/>
</a>
</g>
</g>
<!-- Node3&#45;&gt;Node13 -->
<g id="edge4_Node000003_Node000013" class="edge">
<title>Node3&#45;&gt;Node13</title>
<g id="a_edge4_Node000003_Node000013"><a xlink:title=" ">
<path fill="none" stroke="#63b8ff" d="M120.43,-71.37C145.89,-61.78 187.69,-46.05 220.23,-33.8"/>
<polygon fill="#63b8ff" stroke="#63b8ff" points="221.88,-36.91 230.01,-30.12 219.41,-30.36 221.88,-36.91"/>
</a>
</g>
</g>
</g>
</svg>
