<?xml version="1.0" encoding="UTF-8" standalone="no"?>
<!DOCTYPE svg PUBLIC "-//W3C//DTD SVG 1.1//EN"
 "http://www.w3.org/Graphics/SVG/1.1/DTD/svg11.dtd">
<!-- Generated by graphviz version 2.43.0 (0)
 -->
<!-- Title: src/fw/store_persistent_config.hpp Pages: 1 -->
<svg width="488pt" height="285pt"
 viewBox="0.00 0.00 487.50 285.00" xmlns="http://www.w3.org/2000/svg" xmlns:xlink="http://www.w3.org/1999/xlink">
<g id="graph0" class="graph" transform="scale(1 1) rotate(0) translate(4 281)">
<title>src/fw/store_persistent_config.hpp</title>
<polygon fill="white" stroke="transparent" points="-4,4 -4,-281 483.5,-281 483.5,4 -4,4"/>
<!-- Node1 -->
<g id="node1" class="node">
<title>Node1</title>
<g id="a_node1"><a xlink:title=" ">
<polygon fill="#bfbfbf" stroke="black" points="144,-246.5 144,-276.5 271,-276.5 271,-246.5 144,-246.5"/>
<text text-anchor="start" x="152" y="-264.5" font-family="Helvetica,sans-Serif" font-size="10.00">src/fw/store_persistent</text>
<text text-anchor="middle" x="207.5" y="-253.5" font-family="Helvetica,sans-Serif" font-size="10.00">_config.hpp</text>
</a>
</g>
</g>
<!-- Node2 -->
<g id="node2" class="node">
<title>Node2</title>
<g id="a_node2"><a xlink:href="storage_8hpp.html" target="_top" xlink:title=" ">
<polygon fill="white" stroke="black" points="124.5,-190.5 124.5,-209.5 216.5,-209.5 216.5,-190.5 124.5,-190.5"/>
<text text-anchor="middle" x="170.5" y="-197.5" font-family="Helvetica,sans-Serif" font-size="10.00">cfg/storage.hpp</text>
</a>
</g>
</g>
<!-- Node1&#45;&gt;Node2 -->
<g id="edge1" class="edge">
<title>Node1&#45;&gt;Node2</title>
<path fill="none" stroke="midnightblue" d="M198.73,-246.4C193.52,-238.02 186.87,-227.33 181.33,-218.42"/>
<polygon fill="midnightblue" stroke="midnightblue" points="184.14,-216.3 175.88,-209.66 178.19,-220 184.14,-216.3"/>
</g>
<!-- Node14 -->
<g id="node8" class="node">
<title>Node14</title>
<g id="a_node8"><a xlink:href="interfaces_8hpp.html" target="_top" xlink:title=" ">
<polygon fill="white" stroke="black" points="317,-129 317,-148 422,-148 422,-129 317,-129"/>
<text text-anchor="middle" x="369.5" y="-136" font-family="Helvetica,sans-Serif" font-size="10.00">drv/interfaces.hpp</text>
</a>
</g>
</g>
<!-- Node1&#45;&gt;Node14 -->
<g id="edge8" class="edge">
<title>Node1&#45;&gt;Node14</title>
<path fill="none" stroke="midnightblue" d="M226.4,-246.38C257.24,-223.35 318.1,-177.89 349.59,-154.37"/>
<polygon fill="midnightblue" stroke="midnightblue" points="352.08,-156.88 358,-148.09 347.89,-151.27 352.08,-156.88"/>
</g>
<!-- Node3 -->
<g id="node3" class="node">
<title>Node3</title>
<g id="a_node3"><a xlink:href="map_8hpp.html" target="_top" xlink:title=" ">
<polygon fill="white" stroke="red" points="71,-129 71,-148 148,-148 148,-129 71,-129"/>
<text text-anchor="middle" x="109.5" y="-136" font-family="Helvetica,sans-Serif" font-size="10.00">cfg/map.hpp</text>
</a>
</g>
</g>
<!-- Node2&#45;&gt;Node3 -->
<g id="edge2" class="edge">
<title>Node2&#45;&gt;Node3</title>
<path fill="none" stroke="midnightblue" d="M161.76,-190.48C152.34,-181.28 137.14,-166.46 125.55,-155.16"/>
<polygon fill="midnightblue" stroke="midnightblue" points="127.83,-152.49 118.22,-148.01 122.94,-157.5 127.83,-152.49"/>
</g>
<!-- Node10 -->
<g id="node6" class="node">
<title>Node10</title>
<g id="a_node6"><a xlink:title=" ">
<polygon fill="white" stroke="#bfbfbf" points="0,-56.5 0,-86.5 133,-86.5 133,-56.5 0,-56.5"/>
<text text-anchor="start" x="8" y="-74.5" font-family="Helvetica,sans-Serif" font-size="10.00">emlabcpp/experimental</text>
<text text-anchor="middle" x="66.5" y="-63.5" font-family="Helvetica,sans-Serif" font-size="10.00">/string_buffer.h</text>
</a>
</g>
</g>
<!-- Node2&#45;&gt;Node10 -->
<g id="edge7" class="edge">
<title>Node2&#45;&gt;Node10</title>
<path fill="none" stroke="midnightblue" d="M124.43,-192.2C101.42,-186.23 75.56,-175.01 61.5,-154 50.27,-137.22 53.09,-113.88 57.79,-96.48"/>
<polygon fill="midnightblue" stroke="midnightblue" points="61.26,-97.11 60.86,-86.52 54.57,-95.05 61.26,-97.11"/>
</g>
<!-- Node13 -->
<g id="node7" class="node">
<title>Node13</title>
<g id="a_node7"><a xlink:title=" ">
<polygon fill="white" stroke="#bfbfbf" points="166,-123.5 166,-153.5 299,-153.5 299,-123.5 166,-123.5"/>
<text text-anchor="start" x="174" y="-141.5" font-family="Helvetica,sans-Serif" font-size="10.00">emlabcpp/experimental</text>
<text text-anchor="middle" x="232.5" y="-130.5" font-family="Helvetica,sans-Serif" font-size="10.00">/function_view.h</text>
</a>
</g>
</g>
<!-- Node2&#45;&gt;Node13 -->
<g id="edge6" class="edge">
<title>Node2&#45;&gt;Node13</title>
<path fill="none" stroke="midnightblue" d="M179.38,-190.48C187.47,-182.72 199.74,-170.94 210.45,-160.66"/>
<polygon fill="midnightblue" stroke="midnightblue" points="213.1,-162.97 217.89,-153.52 208.25,-157.92 213.1,-162.97"/>
</g>
<!-- Node4 -->
<g id="node4" class="node">
<title>Node4</title>
<g id="a_node4"><a xlink:href="base_2base_8hpp.html" target="_top" xlink:title=" ">
<polygon fill="white" stroke="red" points="174,-62 174,-81 261,-81 261,-62 174,-62"/>
<text text-anchor="middle" x="217.5" y="-69" font-family="Helvetica,sans-Serif" font-size="10.00">base/base.hpp</text>
</a>
</g>
</g>
<!-- Node3&#45;&gt;Node4 -->
<g id="edge3" class="edge">
<title>Node3&#45;&gt;Node4</title>
<path fill="none" stroke="midnightblue" d="M124.07,-128.73C142.12,-117.87 173.11,-99.22 194.42,-86.39"/>
<polygon fill="midnightblue" stroke="midnightblue" points="196.4,-89.28 203.17,-81.13 192.79,-83.29 196.4,-89.28"/>
</g>
<!-- Node3&#45;&gt;Node10 -->
<g id="edge5" class="edge">
<title>Node3&#45;&gt;Node10</title>
<path fill="none" stroke="midnightblue" d="M103.7,-128.73C98,-120.12 89.07,-106.61 81.38,-94.99"/>
<polygon fill="midnightblue" stroke="midnightblue" points="84.26,-93 75.82,-86.59 78.42,-96.86 84.26,-93"/>
</g>
<!-- Node6 -->
<g id="node5" class="node">
<title>Node6</title>
<g id="a_node5"><a xlink:title=" ">
<polygon fill="white" stroke="#bfbfbf" points="228.5,-0.5 228.5,-19.5 278.5,-19.5 278.5,-0.5 228.5,-0.5"/>
<text text-anchor="middle" x="253.5" y="-7.5" font-family="Helvetica,sans-Serif" font-size="10.00">cstdint</text>
</a>
</g>
</g>
<!-- Node4&#45;&gt;Node6 -->
<g id="edge4" class="edge">
<title>Node4&#45;&gt;Node6</title>
<path fill="none" stroke="midnightblue" d="M222.66,-61.98C227.95,-53.23 236.34,-39.37 243.03,-28.31"/>
<polygon fill="midnightblue" stroke="midnightblue" points="246.17,-29.88 248.35,-19.51 240.18,-26.25 246.17,-29.88"/>
</g>
<!-- Node14&#45;&gt;Node4 -->
<g id="edge9" class="edge">
<title>Node14&#45;&gt;Node4</title>
<path fill="none" stroke="midnightblue" d="M349.32,-128.87C323.2,-117.7 277.47,-98.15 247.34,-85.26"/>
<polygon fill="midnightblue" stroke="midnightblue" points="248.34,-81.88 237.77,-81.17 245.59,-88.32 248.34,-81.88"/>
</g>
<!-- Node14&#45;&gt;Node6 -->
<g id="edge10" class="edge">
<title>Node14&#45;&gt;Node6</title>
<path fill="none" stroke="midnightblue" d="M357.5,-129C344.62,-119.55 323.92,-103.45 308.5,-87 291.16,-68.5 274.57,-44.39 264.23,-28.34"/>
<polygon fill="midnightblue" stroke="midnightblue" points="266.95,-26.09 258.65,-19.51 261.03,-29.83 266.95,-26.09"/>
</g>
<!-- Node15 -->
<g id="node9" class="node">
<title>Node15</title>
<g id="a_node9"><a xlink:title=" ">
<polygon fill="white" stroke="#bfbfbf" points="317.5,-62 317.5,-81 421.5,-81 421.5,-62 317.5,-62"/>
<text text-anchor="middle" x="369.5" y="-69" font-family="Helvetica,sans-Serif" font-size="10.00">emlabcpp/result.h</text>
</a>
</g>
</g>
<!-- Node14&#45;&gt;Node15 -->
<g id="edge11" class="edge">
<title>Node14&#45;&gt;Node15</title>
<path fill="none" stroke="midnightblue" d="M369.5,-128.73C369.5,-119.18 369.5,-103.62 369.5,-91.28"/>
<polygon fill="midnightblue" stroke="midnightblue" points="373,-91.13 369.5,-81.13 366,-91.13 373,-91.13"/>
</g>
<!-- Node16 -->
<g id="node10" class="node">
<title>Node16</title>
<g id="a_node10"><a xlink:title=" ">
<polygon fill="white" stroke="#bfbfbf" points="439.5,-62 439.5,-81 479.5,-81 479.5,-62 439.5,-62"/>
<text text-anchor="middle" x="459.5" y="-69" font-family="Helvetica,sans-Serif" font-size="10.00">span</text>
</a>
</g>
</g>
<!-- Node14&#45;&gt;Node16 -->
<g id="edge12" class="edge">
<title>Node14&#45;&gt;Node16</title>
<path fill="none" stroke="midnightblue" d="M381.64,-128.73C396.35,-118.11 421.36,-100.05 439.06,-87.26"/>
<polygon fill="midnightblue" stroke="midnightblue" points="441.5,-89.82 447.55,-81.13 437.4,-84.14 441.5,-89.82"/>
</g>
</g>
</svg>
