<?xml version="1.0" encoding="UTF-8" standalone="no"?>
<!DOCTYPE svg PUBLIC "-//W3C//DTD SVG 1.1//EN"
 "http://www.w3.org/Graphics/SVG/1.1/DTD/svg11.dtd">
<!-- Generated by graphviz version 2.43.0 (0)
 -->
<!-- Title: src/fw/store_persistent_config.hpp Pages: 1 -->
<svg width="664pt" height="285pt"
 viewBox="0.00 0.00 663.50 285.00" xmlns="http://www.w3.org/2000/svg" xmlns:xlink="http://www.w3.org/1999/xlink">
<g id="graph0" class="graph" transform="scale(1 1) rotate(0) translate(4 281)">
<title>src/fw/store_persistent_config.hpp</title>
<polygon fill="white" stroke="transparent" points="-4,4 -4,-281 659.5,-281 659.5,4 -4,4"/>
<!-- Node1 -->
<g id="node1" class="node">
<title>Node1</title>
<g id="a_node1"><a xlink:title=" ">
<polygon fill="#bfbfbf" stroke="black" points="150,-246.5 150,-276.5 277,-276.5 277,-246.5 150,-246.5"/>
<text text-anchor="start" x="158" y="-264.5" font-family="Helvetica,sans-Serif" font-size="10.00">src/fw/store_persistent</text>
<text text-anchor="middle" x="213.5" y="-253.5" font-family="Helvetica,sans-Serif" font-size="10.00">_config.hpp</text>
</a>
</g>
</g>
<!-- Node2 -->
<g id="node2" class="node">
<title>Node2</title>
<g id="a_node2"><a xlink:href="storage_8hpp.html" target="_top" xlink:title=" ">
<polygon fill="white" stroke="black" points="109.5,-190.5 109.5,-209.5 201.5,-209.5 201.5,-190.5 109.5,-190.5"/>
<text text-anchor="middle" x="155.5" y="-197.5" font-family="Helvetica,sans-Serif" font-size="10.00">cfg/storage.hpp</text>
</a>
</g>
</g>
<!-- Node1&#45;&gt;Node2 -->
<g id="edge1" class="edge">
<title>Node1&#45;&gt;Node2</title>
<path fill="none" stroke="midnightblue" d="M199.75,-246.4C191.15,-237.58 180.05,-226.18 171.11,-217.02"/>
<polygon fill="midnightblue" stroke="midnightblue" points="173.43,-214.38 163.94,-209.66 168.41,-219.26 173.43,-214.38"/>
</g>
<!-- Node17 -->
<g id="node8" class="node">
<title>Node17</title>
<g id="a_node8"><a xlink:href="interfaces_8hpp.html" target="_top" xlink:title=" ">
<polygon fill="white" stroke="black" points="275,-190.5 275,-209.5 380,-209.5 380,-190.5 275,-190.5"/>
<text text-anchor="middle" x="327.5" y="-197.5" font-family="Helvetica,sans-Serif" font-size="10.00">drv/interfaces.hpp</text>
</a>
</g>
</g>
<!-- Node1&#45;&gt;Node17 -->
<g id="edge8" class="edge">
<title>Node1&#45;&gt;Node17</title>
<path fill="none" stroke="midnightblue" d="M240.52,-246.4C259.13,-236.68 283.71,-223.86 301.99,-214.31"/>
<polygon fill="midnightblue" stroke="midnightblue" points="303.67,-217.39 310.91,-209.66 300.43,-211.18 303.67,-217.39"/>
</g>
<!-- Node3 -->
<g id="node3" class="node">
<title>Node3</title>
<g id="a_node3"><a xlink:href="map_8hpp.html" target="_top" xlink:title=" ">
<polygon fill="white" stroke="red" points="184,-129 184,-148 261,-148 261,-129 184,-129"/>
<text text-anchor="middle" x="222.5" y="-136" font-family="Helvetica,sans-Serif" font-size="10.00">cfg/map.hpp</text>
</a>
</g>
</g>
<!-- Node2&#45;&gt;Node3 -->
<g id="edge2" class="edge">
<title>Node2&#45;&gt;Node3</title>
<path fill="none" stroke="midnightblue" d="M165.1,-190.48C175.55,-181.2 192.47,-166.17 205.24,-154.83"/>
<polygon fill="midnightblue" stroke="midnightblue" points="207.77,-157.27 212.92,-148.01 203.12,-152.03 207.77,-157.27"/>
</g>
<!-- Node11 -->
<g id="node6" class="node">
<title>Node11</title>
<g id="a_node6"><a xlink:title=" ">
<polygon fill="white" stroke="#bfbfbf" points="0,-56.5 0,-86.5 133,-86.5 133,-56.5 0,-56.5"/>
<text text-anchor="start" x="8" y="-74.5" font-family="Helvetica,sans-Serif" font-size="10.00">emlabcpp/experimental</text>
<text text-anchor="middle" x="66.5" y="-63.5" font-family="Helvetica,sans-Serif" font-size="10.00">/string_buffer.h</text>
</a>
</g>
</g>
<!-- Node2&#45;&gt;Node11 -->
<g id="edge7" class="edge">
<title>Node2&#45;&gt;Node11</title>
<path fill="none" stroke="midnightblue" d="M109.29,-196.4C79.52,-192.05 42.87,-181.07 23.5,-154 9.86,-134.93 25.93,-110.99 42.16,-94"/>
<polygon fill="midnightblue" stroke="midnightblue" points="44.87,-96.24 49.53,-86.72 39.95,-91.26 44.87,-96.24"/>
</g>
<!-- Node16 -->
<g id="node7" class="node">
<title>Node16</title>
<g id="a_node7"><a xlink:title=" ">
<polygon fill="white" stroke="#bfbfbf" points="33,-123.5 33,-153.5 166,-153.5 166,-123.5 33,-123.5"/>
<text text-anchor="start" x="41" y="-141.5" font-family="Helvetica,sans-Serif" font-size="10.00">emlabcpp/experimental</text>
<text text-anchor="middle" x="99.5" y="-130.5" font-family="Helvetica,sans-Serif" font-size="10.00">/function_view.h</text>
</a>
</g>
</g>
<!-- Node2&#45;&gt;Node16 -->
<g id="edge6" class="edge">
<title>Node2&#45;&gt;Node16</title>
<path fill="none" stroke="midnightblue" d="M147.48,-190.48C140.25,-182.79 129.31,-171.17 119.7,-160.96"/>
<polygon fill="midnightblue" stroke="midnightblue" points="122.1,-158.41 112.7,-153.52 117,-163.2 122.1,-158.41"/>
</g>
<!-- Node4 -->
<g id="node4" class="node">
<title>Node4</title>
<g id="a_node4"><a xlink:href="base_2base_8hpp.html" target="_top" xlink:title=" ">
<polygon fill="white" stroke="red" points="212,-62 212,-81 299,-81 299,-62 212,-62"/>
<text text-anchor="middle" x="255.5" y="-69" font-family="Helvetica,sans-Serif" font-size="10.00">base/base.hpp</text>
</a>
</g>
</g>
<!-- Node3&#45;&gt;Node4 -->
<g id="edge3" class="edge">
<title>Node3&#45;&gt;Node4</title>
<path fill="none" stroke="midnightblue" d="M226.95,-128.73C231.95,-118.89 240.19,-102.66 246.53,-90.16"/>
<polygon fill="midnightblue" stroke="midnightblue" points="249.71,-91.63 251.12,-81.13 243.47,-88.46 249.71,-91.63"/>
</g>
<!-- Node3&#45;&gt;Node11 -->
<g id="edge5" class="edge">
<title>Node3&#45;&gt;Node11</title>
<path fill="none" stroke="midnightblue" d="M201.78,-128.87C178.38,-119.12 139.63,-102.97 109.58,-90.45"/>
<polygon fill="midnightblue" stroke="midnightblue" points="110.74,-87.14 100.17,-86.53 108.05,-93.61 110.74,-87.14"/>
</g>
<!-- Node6 -->
<g id="node5" class="node">
<title>Node6</title>
<g id="a_node5"><a xlink:title=" ">
<polygon fill="white" stroke="#bfbfbf" points="266.5,-0.5 266.5,-19.5 316.5,-19.5 316.5,-0.5 266.5,-0.5"/>
<text text-anchor="middle" x="291.5" y="-7.5" font-family="Helvetica,sans-Serif" font-size="10.00">cstdint</text>
</a>
</g>
</g>
<!-- Node4&#45;&gt;Node6 -->
<g id="edge4" class="edge">
<title>Node4&#45;&gt;Node6</title>
<path fill="none" stroke="midnightblue" d="M260.66,-61.98C265.95,-53.23 274.34,-39.37 281.03,-28.31"/>
<polygon fill="midnightblue" stroke="midnightblue" points="284.17,-29.88 286.35,-19.51 278.18,-26.25 284.17,-29.88"/>
</g>
<!-- Node17&#45;&gt;Node3 -->
<g id="edge10" class="edge">
<title>Node17&#45;&gt;Node3</title>
<path fill="none" stroke="midnightblue" d="M312.46,-190.48C295.22,-180.71 266.76,-164.58 246.47,-153.08"/>
<polygon fill="midnightblue" stroke="midnightblue" points="247.94,-149.89 237.52,-148.01 244.49,-155.98 247.94,-149.89"/>
</g>
<!-- Node17&#45;&gt;Node4 -->
<g id="edge9" class="edge">
<title>Node17&#45;&gt;Node4</title>
<path fill="none" stroke="midnightblue" d="M322.55,-190.31C310.84,-169.72 281.22,-117.69 265.56,-90.18"/>
<polygon fill="midnightblue" stroke="midnightblue" points="268.47,-88.22 260.48,-81.26 262.39,-91.68 268.47,-88.22"/>
</g>
<!-- Node17&#45;&gt;Node6 -->
<g id="edge11" class="edge">
<title>Node17&#45;&gt;Node6</title>
<path fill="none" stroke="midnightblue" d="M327.05,-190.49C325.72,-168.14 321.1,-106.03 308.5,-56 306.23,-46.99 302.72,-37.31 299.48,-29.25"/>
<polygon fill="midnightblue" stroke="midnightblue" points="302.6,-27.64 295.5,-19.77 296.15,-30.35 302.6,-27.64"/>
</g>
<!-- Node18 -->
<g id="node9" class="node">
<title>Node18</title>
<g id="a_node9"><a xlink:title=" ">
<polygon fill="white" stroke="#bfbfbf" points="356,-129 356,-148 475,-148 475,-129 356,-129"/>
<text text-anchor="middle" x="415.5" y="-136" font-family="Helvetica,sans-Serif" font-size="10.00">emlabcpp/outcome.h</text>
</a>
</g>
</g>
<!-- Node17&#45;&gt;Node18 -->
<g id="edge12" class="edge">
<title>Node17&#45;&gt;Node18</title>
<path fill="none" stroke="midnightblue" d="M340.11,-190.48C354.22,-180.93 377.33,-165.31 394.25,-153.87"/>
<polygon fill="midnightblue" stroke="midnightblue" points="396.59,-156.51 402.92,-148.01 392.67,-150.71 396.59,-156.51"/>
</g>
<!-- Node19 -->
<g id="node10" class="node">
<title>Node19</title>
<g id="a_node10"><a xlink:title=" ">
<polygon fill="white" stroke="#bfbfbf" points="493.5,-129 493.5,-148 597.5,-148 597.5,-129 493.5,-129"/>
<text text-anchor="middle" x="545.5" y="-136" font-family="Helvetica,sans-Serif" font-size="10.00">emlabcpp/result.h</text>
</a>
</g>
</g>
<!-- Node17&#45;&gt;Node19 -->
<g id="edge13" class="edge">
<title>Node17&#45;&gt;Node19</title>
<path fill="none" stroke="midnightblue" d="M358.73,-190.48C397.1,-180 462.29,-162.21 504.61,-150.66"/>
<polygon fill="midnightblue" stroke="midnightblue" points="505.6,-154.02 514.32,-148.01 503.76,-147.27 505.6,-154.02"/>
</g>
<!-- Node20 -->
<g id="node11" class="node">
<title>Node20</title>
<g id="a_node11"><a xlink:title=" ">
<polygon fill="white" stroke="#bfbfbf" points="615.5,-129 615.5,-148 655.5,-148 655.5,-129 615.5,-129"/>
<text text-anchor="middle" x="635.5" y="-136" font-family="Helvetica,sans-Serif" font-size="10.00">span</text>
</a>
</g>
</g>
<!-- Node17&#45;&gt;Node20 -->
<g id="edge14" class="edge">
<title>Node17&#45;&gt;Node20</title>
<path fill="none" stroke="midnightblue" d="M380.03,-195.31C436.95,-190.21 529.92,-178.68 606.5,-154 608.12,-153.48 609.76,-152.88 611.4,-152.22"/>
<polygon fill="midnightblue" stroke="midnightblue" points="612.86,-155.4 620.52,-148.07 609.96,-149.03 612.86,-155.4"/>
</g>
</g>
</svg>
