<?xml version="1.0" encoding="UTF-8" standalone="no"?>
<!DOCTYPE svg PUBLIC "-//W3C//DTD SVG 1.1//EN"
 "http://www.w3.org/Graphics/SVG/1.1/DTD/svg11.dtd">
<!-- Generated by graphviz version 2.43.0 (0)
 -->
<!-- Title: src/cfg/storage.cpp Pages: 1 -->
<svg width="456pt" height="162pt"
 viewBox="0.00 0.00 455.50 162.00" xmlns="http://www.w3.org/2000/svg" xmlns:xlink="http://www.w3.org/1999/xlink">
<g id="graph0" class="graph" transform="scale(1 1) rotate(0) translate(4 158)">
<title>src/cfg/storage.cpp</title>
<polygon fill="white" stroke="transparent" points="-4,4 -4,-158 451.5,-158 451.5,4 -4,4"/>
<!-- Node1 -->
<g id="node1" class="node">
<title>Node1</title>
<g id="a_node1"><a xlink:title=" ">
<polygon fill="#bfbfbf" stroke="black" points="160,-134.5 160,-153.5 269,-153.5 269,-134.5 160,-134.5"/>
<text text-anchor="middle" x="214.5" y="-141.5" font-family="Helvetica,sans-Serif" font-size="10.00">src/cfg/storage.cpp</text>
</a>
</g>
</g>
<!-- Node2 -->
<g id="node2" class="node">
<title>Node2</title>
<g id="a_node2"><a xlink:href="storage_8hpp.html" target="_top" xlink:title=" ">
<polygon fill="white" stroke="black" points="55.5,-73 55.5,-92 129.5,-92 129.5,-73 55.5,-73"/>
<text text-anchor="middle" x="92.5" y="-80" font-family="Helvetica,sans-Serif" font-size="10.00">storage.hpp</text>
</a>
</g>
</g>
<!-- Node1&#45;&gt;Node2 -->
<g id="edge1" class="edge">
<title>Node1&#45;&gt;Node2</title>
<path fill="none" stroke="midnightblue" d="M197.02,-134.48C176.64,-124.53 142.72,-107.99 119.08,-96.46"/>
<polygon fill="midnightblue" stroke="midnightblue" points="120.47,-93.25 109.95,-92.01 117.4,-99.54 120.47,-93.25"/>
</g>
<!-- Node5 -->
<g id="node5" class="node">
<title>Node5</title>
<g id="a_node5"><a xlink:title=" ">
<polygon fill="white" stroke="#bfbfbf" points="148,-67.5 148,-97.5 281,-97.5 281,-67.5 148,-67.5"/>
<text text-anchor="start" x="156" y="-85.5" font-family="Helvetica,sans-Serif" font-size="10.00">emlabcpp/experimental</text>
<text text-anchor="middle" x="214.5" y="-74.5" font-family="Helvetica,sans-Serif" font-size="10.00">/cfg/handler.h</text>
</a>
</g>
</g>
<!-- Node1&#45;&gt;Node5 -->
<g id="edge4" class="edge">
<title>Node1&#45;&gt;Node5</title>
<path fill="none" stroke="midnightblue" d="M214.5,-134.48C214.5,-127.47 214.5,-117.19 214.5,-107.7"/>
<polygon fill="midnightblue" stroke="midnightblue" points="218,-107.52 214.5,-97.52 211,-107.52 218,-107.52"/>
</g>
<!-- Node6 -->
<g id="node6" class="node">
<title>Node6</title>
<g id="a_node6"><a xlink:title=" ">
<polygon fill="white" stroke="#bfbfbf" points="299.5,-67.5 299.5,-97.5 447.5,-97.5 447.5,-67.5 299.5,-67.5"/>
<text text-anchor="start" x="307.5" y="-85.5" font-family="Helvetica,sans-Serif" font-size="10.00">emlabcpp/protocol/register</text>
<text text-anchor="middle" x="373.5" y="-74.5" font-family="Helvetica,sans-Serif" font-size="10.00">_handler.h</text>
</a>
</g>
</g>
<!-- Node1&#45;&gt;Node6 -->
<g id="edge5" class="edge">
<title>Node1&#45;&gt;Node6</title>
<path fill="none" stroke="midnightblue" d="M237.28,-134.48C260.43,-125.81 296.95,-112.15 326.36,-101.14"/>
<polygon fill="midnightblue" stroke="midnightblue" points="327.89,-104.31 336.03,-97.52 325.43,-97.75 327.89,-104.31"/>
</g>
<!-- Node3 -->
<g id="node3" class="node">
<title>Node3</title>
<g id="a_node3"><a xlink:title=" ">
<polygon fill="white" stroke="#bfbfbf" points="0,-6 0,-25 67,-25 67,-6 0,-6"/>
<text text-anchor="middle" x="33.5" y="-13" font-family="Helvetica,sans-Serif" font-size="10.00">config.hpp</text>
</a>
</g>
</g>
<!-- Node2&#45;&gt;Node3 -->
<g id="edge2" class="edge">
<title>Node2&#45;&gt;Node3</title>
<path fill="none" stroke="midnightblue" d="M84.54,-72.73C75.25,-62.5 59.7,-45.36 48.2,-32.69"/>
<polygon fill="midnightblue" stroke="midnightblue" points="50.64,-30.18 41.33,-25.13 45.46,-34.88 50.64,-30.18"/>
</g>
<!-- Node4 -->
<g id="node4" class="node">
<title>Node4</title>
<g id="a_node4"><a xlink:title=" ">
<polygon fill="white" stroke="#bfbfbf" points="85,-0.5 85,-30.5 218,-30.5 218,-0.5 85,-0.5"/>
<text text-anchor="start" x="93" y="-18.5" font-family="Helvetica,sans-Serif" font-size="10.00">emlabcpp/experimental</text>
<text text-anchor="middle" x="151.5" y="-7.5" font-family="Helvetica,sans-Serif" font-size="10.00">/string_buffer.h</text>
</a>
</g>
</g>
<!-- Node2&#45;&gt;Node4 -->
<g id="edge3" class="edge">
<title>Node2&#45;&gt;Node4</title>
<path fill="none" stroke="midnightblue" d="M100.46,-72.73C108.43,-63.95 121.02,-50.08 131.7,-38.31"/>
<polygon fill="midnightblue" stroke="midnightblue" points="134.58,-40.35 138.71,-30.59 129.4,-35.64 134.58,-40.35"/>
</g>
</g>
</svg>
