<?xml version="1.0" encoding="UTF-8" standalone="no"?>
<!DOCTYPE svg PUBLIC "-//W3C//DTD SVG 1.1//EN"
 "http://www.w3.org/Graphics/SVG/1.1/DTD/svg11.dtd">
<!-- Generated by graphviz version 2.43.0 (0)
 -->
<!-- Title: servio::fw::context Pages: 1 -->
<svg width="548pt" height="604pt"
 viewBox="0.00 0.00 548.00 603.50" xmlns="http://www.w3.org/2000/svg" xmlns:xlink="http://www.w3.org/1999/xlink">
<g id="graph0" class="graph" transform="scale(1 1) rotate(0) translate(4 599.5)">
<title>servio::fw::context</title>
<polygon fill="white" stroke="transparent" points="-4,4 -4,-599.5 544,-599.5 544,4 -4,4"/>
<!-- Node1 -->
<g id="node1" class="node">
<title>Node1</title>
<g id="a_node1"><a xlink:title=" ">
<polygon fill="#bfbfbf" stroke="black" points="434,-147 434,-166 540,-166 540,-147 434,-147"/>
<text text-anchor="middle" x="487" y="-154" font-family="Helvetica,sans-Serif" font-size="10.00">servio::fw::context</text>
</a>
</g>
</g>
<!-- Node2 -->
<g id="node2" class="node">
<title>Node2</title>
<g id="a_node2"><a xlink:href="namespaceservio_1_1fw.html#structservio_1_1fw_1_1cfg__context" target="_top" xlink:title=" ">
<polygon fill="white" stroke="black" points="234,-475 234,-494 360,-494 360,-475 234,-475"/>
<text text-anchor="middle" x="297" y="-482" font-family="Helvetica,sans-Serif" font-size="10.00">servio::fw::cfg_context</text>
</a>
</g>
</g>
<!-- Node2&#45;&gt;Node1 -->
<g id="edge1" class="edge">
<title>Node2&#45;&gt;Node1</title>
<path fill="none" stroke="#9a32cd" stroke-dasharray="5,2" d="M308.76,-465.73C343.85,-404.5 454.23,-211.94 480.4,-166.28"/>
<polygon fill="#9a32cd" stroke="#9a32cd" points="305.56,-464.27 303.63,-474.68 311.64,-467.75 305.56,-464.27"/>
<text text-anchor="middle" x="397" y="-342.5" font-family="Helvetica,sans-Serif" font-size="10.00"> cfg</text>
</g>
<!-- Node3 -->
<g id="node3" class="node">
<title>Node3</title>
<g id="a_node3"><a xlink:href="structservio_1_1cfg_1_1payload.html" target="_top" xlink:title=" ">
<polygon fill="white" stroke="black" points="9.5,-576 9.5,-595 122.5,-595 122.5,-576 9.5,-576"/>
<text text-anchor="middle" x="66" y="-583" font-family="Helvetica,sans-Serif" font-size="10.00">servio::cfg::payload</text>
</a>
</g>
</g>
<!-- Node3&#45;&gt;Node2 -->
<g id="edge2" class="edge">
<title>Node3&#45;&gt;Node2</title>
<path fill="none" stroke="#9a32cd" stroke-dasharray="5,2" d="M132.67,-584.07C159.63,-581.31 190.46,-575.25 216,-562.5 248.98,-546.04 277.07,-511.05 289.37,-494.1"/>
<polygon fill="#9a32cd" stroke="#9a32cd" points="132.19,-580.6 122.54,-584.97 132.81,-587.57 132.19,-580.6"/>
<text text-anchor="middle" x="183" y="-583.5" font-family="Helvetica,sans-Serif" font-size="10.00"> last_payload</text>
</g>
<!-- Node4 -->
<g id="node4" class="node">
<title>Node4</title>
<g id="a_node4"><a xlink:href="structservio_1_1cfg_1_1dispatcher.html" target="_top" xlink:title=" ">
<polygon fill="white" stroke="black" points="234.5,-147 234.5,-166 359.5,-166 359.5,-147 234.5,-147"/>
<text text-anchor="middle" x="297" y="-154" font-family="Helvetica,sans-Serif" font-size="10.00">servio::cfg::dispatcher</text>
</a>
</g>
</g>
<!-- Node4&#45;&gt;Node1 -->
<g id="edge3" class="edge">
<title>Node4&#45;&gt;Node1</title>
<path fill="none" stroke="#9a32cd" stroke-dasharray="5,2" d="M369.85,-156.5C391.11,-156.5 413.98,-156.5 433.76,-156.5"/>
<polygon fill="#9a32cd" stroke="#9a32cd" points="369.56,-153 359.56,-156.5 369.56,-160 369.56,-153"/>
<text text-anchor="middle" x="397" y="-159.5" font-family="Helvetica,sans-Serif" font-size="10.00"> cfg_dis</text>
</g>
<!-- Node5 -->
<g id="node5" class="node">
<title>Node5</title>
<g id="a_node5"><a xlink:href="structservio_1_1drv_1_1pwm__motor__iface.html" target="_top" xlink:title=" ">
<polygon fill="white" stroke="black" points="0,-160.5 0,-190.5 132,-190.5 132,-160.5 0,-160.5"/>
<text text-anchor="start" x="8" y="-178.5" font-family="Helvetica,sans-Serif" font-size="10.00">servio::drv::pwm_motor</text>
<text text-anchor="middle" x="66" y="-167.5" font-family="Helvetica,sans-Serif" font-size="10.00">_iface</text>
</a>
</g>
</g>
<!-- Node5&#45;&gt;Node4 -->
<g id="edge4" class="edge">
<title>Node5&#45;&gt;Node4</title>
<path fill="none" stroke="#9a32cd" stroke-dasharray="5,2" d="M141.99,-169.28C171.91,-166.8 205.93,-163.97 234.37,-161.61"/>
<polygon fill="#9a32cd" stroke="#9a32cd" points="141.69,-165.79 132.01,-170.11 142.26,-172.77 141.69,-165.79"/>
<text text-anchor="middle" x="183" y="-170.5" font-family="Helvetica,sans-Serif" font-size="10.00"> motor</text>
</g>
<!-- Node18 -->
<g id="node10" class="node">
<title>Node18</title>
<g id="a_node10"><a xlink:href="structservio_1_1core_1_1drivers.html" target="_top" xlink:title=" ">
<polygon fill="white" stroke="black" points="240.5,-336 240.5,-355 353.5,-355 353.5,-336 240.5,-336"/>
<text text-anchor="middle" x="297" y="-343" font-family="Helvetica,sans-Serif" font-size="10.00">servio::core::drivers</text>
</a>
</g>
</g>
<!-- Node5&#45;&gt;Node18 -->
<g id="edge14" class="edge">
<title>Node5&#45;&gt;Node18</title>
<path fill="none" stroke="#9a32cd" stroke-dasharray="5,2" d="M142.02,-188.45C167.32,-195.47 194.55,-206.2 216,-222.5 257.17,-253.79 283.35,-312.8 292.43,-335.89"/>
<polygon fill="#9a32cd" stroke="#9a32cd" points="142.62,-184.99 132.06,-185.84 140.85,-191.76 142.62,-184.99"/>
<text text-anchor="middle" x="183" y="-225.5" font-family="Helvetica,sans-Serif" font-size="10.00"> motor</text>
</g>
<!-- Node6 -->
<g id="node6" class="node">
<title>Node6</title>
<g id="a_node6"><a xlink:href="structservio_1_1core_1_1core.html" target="_top" xlink:title=" ">
<polygon fill="white" stroke="red" points="15.5,-120 15.5,-139 116.5,-139 116.5,-120 15.5,-120"/>
<text text-anchor="middle" x="66" y="-127" font-family="Helvetica,sans-Serif" font-size="10.00">servio::core::core</text>
</a>
</g>
</g>
<!-- Node6&#45;&gt;Node1 -->
<g id="edge6" class="edge">
<title>Node6&#45;&gt;Node1</title>
<path fill="none" stroke="#9a32cd" stroke-dasharray="5,2" d="M127.03,-124.45C186.43,-120.5 279.81,-117.09 360,-126.5 392.94,-130.37 429.75,-139.74 455.04,-146.99"/>
<polygon fill="#9a32cd" stroke="#9a32cd" points="126.45,-120.98 116.71,-125.17 126.93,-127.97 126.45,-120.98"/>
<text text-anchor="middle" x="297" y="-129.5" font-family="Helvetica,sans-Serif" font-size="10.00"> core</text>
</g>
<!-- Node6&#45;&gt;Node4 -->
<g id="edge5" class="edge">
<title>Node6&#45;&gt;Node4</title>
<path fill="none" stroke="#9a32cd" stroke-dasharray="5,2" d="M126.67,-136.54C159.72,-140.43 200.75,-145.27 234.15,-149.21"/>
<polygon fill="#9a32cd" stroke="#9a32cd" points="127.03,-133.05 116.69,-135.36 126.21,-140.01 127.03,-133.05"/>
<text text-anchor="middle" x="183" y="-149.5" font-family="Helvetica,sans-Serif" font-size="10.00"> c</text>
</g>
<!-- Node13 -->
<g id="node7" class="node">
<title>Node13</title>
<g id="a_node7"><a xlink:href="structservio_1_1core_1_1standard__callbacks.html" target="_top" xlink:title=" ">
<polygon fill="white" stroke="black" points="236,-36.5 236,-66.5 358,-66.5 358,-36.5 236,-36.5"/>
<text text-anchor="start" x="244" y="-54.5" font-family="Helvetica,sans-Serif" font-size="10.00">servio::core::standard</text>
<text text-anchor="middle" x="297" y="-43.5" font-family="Helvetica,sans-Serif" font-size="10.00">_callbacks</text>
</a>
</g>
</g>
<!-- Node13&#45;&gt;Node1 -->
<g id="edge7" class="edge">
<title>Node13&#45;&gt;Node1</title>
<path fill="none" stroke="#9a32cd" stroke-dasharray="5,2" d="M368.4,-60.22C384.77,-64.21 401.6,-70.02 416,-78.5 445.63,-95.95 469.67,-130.15 480.21,-146.85"/>
<polygon fill="#9a32cd" stroke="#9a32cd" points="368.81,-56.72 358.29,-57.96 367.29,-63.56 368.81,-56.72"/>
<text text-anchor="middle" x="397" y="-81.5" font-family="Helvetica,sans-Serif" font-size="10.00"> scbs</text>
</g>
<!-- Node14 -->
<g id="node8" class="node">
<title>Node14</title>
<g id="a_node8"><a xlink:href="classservio_1_1core_1_1position__callback.html" target="_top" xlink:title=" ">
<polygon fill="white" stroke="red" points="6.5,-49.5 6.5,-79.5 125.5,-79.5 125.5,-49.5 6.5,-49.5"/>
<text text-anchor="start" x="14.5" y="-67.5" font-family="Helvetica,sans-Serif" font-size="10.00">servio::core::position</text>
<text text-anchor="middle" x="66" y="-56.5" font-family="Helvetica,sans-Serif" font-size="10.00">_callback</text>
</a>
</g>
</g>
<!-- Node14&#45;&gt;Node13 -->
<g id="edge8" class="edge">
<title>Node14&#45;&gt;Node13</title>
<path fill="none" stroke="#9a32cd" stroke-dasharray="5,2" d="M135.81,-60.59C167.67,-58.79 205.17,-56.66 235.88,-54.91"/>
<polygon fill="#9a32cd" stroke="#9a32cd" points="135.46,-57.11 125.68,-61.17 135.86,-64.1 135.46,-57.11"/>
<text text-anchor="middle" x="183" y="-62.5" font-family="Helvetica,sans-Serif" font-size="10.00"> pos_cb</text>
</g>
<!-- Node16 -->
<g id="node9" class="node">
<title>Node16</title>
<g id="a_node9"><a xlink:href="classservio_1_1core_1_1current__callback.html" target="_top" xlink:title=" ">
<polygon fill="white" stroke="red" points="9,-0.5 9,-30.5 123,-30.5 123,-0.5 9,-0.5"/>
<text text-anchor="start" x="17" y="-18.5" font-family="Helvetica,sans-Serif" font-size="10.00">servio::core::current</text>
<text text-anchor="middle" x="66" y="-7.5" font-family="Helvetica,sans-Serif" font-size="10.00">_callback</text>
</a>
</g>
</g>
<!-- Node16&#45;&gt;Node13 -->
<g id="edge9" class="edge">
<title>Node16&#45;&gt;Node13</title>
<path fill="none" stroke="#9a32cd" stroke-dasharray="5,2" d="M133.28,-25.92C165.63,-31 204.25,-37.08 235.75,-42.03"/>
<polygon fill="#9a32cd" stroke="#9a32cd" points="133.44,-22.4 123.02,-24.31 132.35,-29.32 133.44,-22.4"/>
<text text-anchor="middle" x="183" y="-42.5" font-family="Helvetica,sans-Serif" font-size="10.00"> current_cb</text>
</g>
<!-- Node18&#45;&gt;Node1 -->
<g id="edge10" class="edge">
<title>Node18&#45;&gt;Node1</title>
<path fill="none" stroke="#9a32cd" stroke-dasharray="5,2" d="M314.9,-328.51C353.25,-289.96 445.89,-196.82 476.21,-166.34"/>
<polygon fill="#9a32cd" stroke="#9a32cd" points="312.15,-326.31 307.58,-335.87 317.12,-331.25 312.15,-326.31"/>
<text text-anchor="middle" x="397" y="-264.5" font-family="Helvetica,sans-Serif" font-size="10.00"> cdrv</text>
</g>
<!-- Node19 -->
<g id="node11" class="node">
<title>Node19</title>
<g id="a_node11"><a xlink:href="structservio_1_1drv_1_1period__iface.html" target="_top" xlink:title=" ">
<polygon fill="white" stroke="black" points="14,-286.5 14,-316.5 118,-316.5 118,-286.5 14,-286.5"/>
<text text-anchor="start" x="22" y="-304.5" font-family="Helvetica,sans-Serif" font-size="10.00">servio::drv::period</text>
<text text-anchor="middle" x="66" y="-293.5" font-family="Helvetica,sans-Serif" font-size="10.00">_iface</text>
</a>
</g>
</g>
<!-- Node19&#45;&gt;Node18 -->
<g id="edge11" class="edge">
<title>Node19&#45;&gt;Node18</title>
<path fill="none" stroke="#9a32cd" stroke-dasharray="5,2" d="M128.25,-313.27C165.17,-320.36 211.59,-329.28 246.23,-335.94"/>
<polygon fill="#9a32cd" stroke="#9a32cd" points="128.59,-309.77 118.11,-311.32 127.27,-316.64 128.59,-309.77"/>
<text text-anchor="middle" x="183" y="-332.5" font-family="Helvetica,sans-Serif" font-size="10.00"> period</text>
</g>
<!-- Node20 -->
<g id="node12" class="node">
<title>Node20</title>
<g id="a_node12"><a xlink:href="structservio_1_1drv_1_1pos__iface.html" target="_top" xlink:title=" ">
<polygon fill="white" stroke="black" points="6,-248 6,-267 126,-267 126,-248 6,-248"/>
<text text-anchor="middle" x="66" y="-255" font-family="Helvetica,sans-Serif" font-size="10.00">servio::drv::pos_iface</text>
</a>
</g>
</g>
<!-- Node20&#45;&gt;Node18 -->
<g id="edge12" class="edge">
<title>Node20&#45;&gt;Node18</title>
<path fill="none" stroke="#9a32cd" stroke-dasharray="5,2" d="M116.37,-269.74C145.81,-277.7 183.63,-289.07 216,-302.5 239.3,-312.17 264.73,-326.55 280.52,-335.97"/>
<polygon fill="#9a32cd" stroke="#9a32cd" points="116.9,-266.26 106.33,-267.08 115.1,-273.03 116.9,-266.26"/>
<text text-anchor="middle" x="183" y="-305.5" font-family="Helvetica,sans-Serif" font-size="10.00"> position</text>
</g>
<!-- Node21 -->
<g id="node13" class="node">
<title>Node21</title>
<g id="a_node13"><a xlink:href="structservio_1_1drv_1_1clk__iface.html" target="_top" xlink:title=" ">
<polygon fill="white" stroke="black" points="7.5,-210 7.5,-229 124.5,-229 124.5,-210 7.5,-210"/>
<text text-anchor="middle" x="66" y="-217" font-family="Helvetica,sans-Serif" font-size="10.00">servio::drv::clk_iface</text>
</a>
</g>
</g>
<!-- Node21&#45;&gt;Node18 -->
<g id="edge13" class="edge">
<title>Node21&#45;&gt;Node18</title>
<path fill="none" stroke="#9a32cd" stroke-dasharray="5,2" d="M131.34,-231.41C158.76,-238.34 190.29,-248.88 216,-264.5 247.93,-283.89 276.32,-318.8 288.99,-335.74"/>
<polygon fill="#9a32cd" stroke="#9a32cd" points="131.98,-227.96 121.44,-229.01 130.34,-234.77 131.98,-227.96"/>
<text text-anchor="middle" x="183" y="-267.5" font-family="Helvetica,sans-Serif" font-size="10.00"> clock</text>
</g>
<!-- Node22 -->
<g id="node14" class="node">
<title>Node22</title>
<g id="a_node14"><a xlink:href="structservio_1_1drv_1_1vcc__iface.html" target="_top" xlink:title=" ">
<polygon fill="white" stroke="black" points="6.5,-538 6.5,-557 125.5,-557 125.5,-538 6.5,-538"/>
<text text-anchor="middle" x="66" y="-545" font-family="Helvetica,sans-Serif" font-size="10.00">servio::drv::vcc_iface</text>
</a>
</g>
</g>
<!-- Node22&#45;&gt;Node18 -->
<g id="edge15" class="edge">
<title>Node22&#45;&gt;Node18</title>
<path fill="none" stroke="#9a32cd" stroke-dasharray="5,2" d="M135.67,-541.47C163.28,-536 193.77,-525.72 216,-506.5 231.06,-493.49 225.43,-483.46 234,-465.5 253.9,-423.81 279.89,-375.22 290.81,-355.04"/>
<polygon fill="#9a32cd" stroke="#9a32cd" points="134.87,-538.06 125.65,-543.27 136.11,-544.95 134.87,-538.06"/>
<text text-anchor="middle" x="183" y="-539.5" font-family="Helvetica,sans-Serif" font-size="10.00"> vcc</text>
</g>
<!-- Node23 -->
<g id="node15" class="node">
<title>Node23</title>
<g id="a_node15"><a xlink:href="structservio_1_1drv_1_1leds__iface.html" target="_top" xlink:title=" ">
<polygon fill="white" stroke="black" points="4.5,-500 4.5,-519 127.5,-519 127.5,-500 4.5,-500"/>
<text text-anchor="middle" x="66" y="-507" font-family="Helvetica,sans-Serif" font-size="10.00">servio::drv::leds_iface</text>
</a>
</g>
</g>
<!-- Node23&#45;&gt;Node18 -->
<g id="edge16" class="edge">
<title>Node23&#45;&gt;Node18</title>
<path fill="none" stroke="#9a32cd" stroke-dasharray="5,2" d="M134.57,-497.44C161.86,-490.12 192.4,-478.55 216,-460.5 254.83,-430.8 282,-376.84 291.89,-355.03"/>
<polygon fill="#9a32cd" stroke="#9a32cd" points="133.51,-494.1 124.68,-499.96 135.24,-500.89 133.51,-494.1"/>
<text text-anchor="middle" x="183" y="-494.5" font-family="Helvetica,sans-Serif" font-size="10.00"> leds</text>
</g>
<!-- Node24 -->
<g id="node16" class="node">
<title>Node24</title>
<g id="a_node16"><a xlink:href="structservio_1_1drv_1_1period__cb__iface.html" target="_top" xlink:title=" ">
<polygon fill="white" stroke="black" points="14,-450.5 14,-480.5 118,-480.5 118,-450.5 14,-450.5"/>
<text text-anchor="start" x="22" y="-468.5" font-family="Helvetica,sans-Serif" font-size="10.00">servio::drv::period</text>
<text text-anchor="middle" x="66" y="-457.5" font-family="Helvetica,sans-Serif" font-size="10.00">_cb_iface</text>
</a>
</g>
</g>
<!-- Node24&#45;&gt;Node18 -->
<g id="edge17" class="edge">
<title>Node24&#45;&gt;Node18</title>
<path fill="none" stroke="#9a32cd" stroke-dasharray="5,2" d="M128.34,-453.14C156.28,-445.89 189.05,-435.03 216,-419.5 246.49,-401.92 274.9,-370.82 288.17,-355.13"/>
<polygon fill="#9a32cd" stroke="#9a32cd" points="127.14,-449.83 118.29,-455.65 128.84,-456.62 127.14,-449.83"/>
<text text-anchor="middle" x="183" y="-448.5" font-family="Helvetica,sans-Serif" font-size="10.00"> period_cb</text>
</g>
<!-- Node25 -->
<g id="node17" class="node">
<title>Node25</title>
<g id="a_node17"><a xlink:href="structservio_1_1drv_1_1temp__iface.html" target="_top" xlink:title=" ">
<polygon fill="white" stroke="black" points="2,-412 2,-431 130,-431 130,-412 2,-412"/>
<text text-anchor="middle" x="66" y="-419" font-family="Helvetica,sans-Serif" font-size="10.00">servio::drv::temp_iface</text>
</a>
</g>
</g>
<!-- Node25&#45;&gt;Node18 -->
<g id="edge18" class="edge">
<title>Node25&#45;&gt;Node18</title>
<path fill="none" stroke="#9a32cd" stroke-dasharray="5,2" d="M128.66,-409.89C155.86,-403.93 187.95,-395.75 216,-385.5 238.9,-377.13 263.8,-363.98 279.63,-355.07"/>
<polygon fill="#9a32cd" stroke="#9a32cd" points="127.93,-406.47 118.88,-411.98 129.39,-413.31 127.93,-406.47"/>
<text text-anchor="middle" x="183" y="-407.5" font-family="Helvetica,sans-Serif" font-size="10.00"> temperature</text>
</g>
<!-- Node26 -->
<g id="node18" class="node">
<title>Node26</title>
<g id="a_node18"><a xlink:href="structservio_1_1drv_1_1curr__iface.html" target="_top" xlink:title=" ">
<polygon fill="white" stroke="black" points="5,-374 5,-393 127,-393 127,-374 5,-374"/>
<text text-anchor="middle" x="66" y="-381" font-family="Helvetica,sans-Serif" font-size="10.00">servio::drv::curr_iface</text>
</a>
</g>
</g>
<!-- Node26&#45;&gt;Node18 -->
<g id="edge19" class="edge">
<title>Node26&#45;&gt;Node18</title>
<path fill="none" stroke="#9a32cd" stroke-dasharray="5,2" d="M137.33,-373.12C162.21,-369.32 190.38,-364.88 216,-360.5 225.89,-358.81 236.45,-356.9 246.54,-355.03"/>
<polygon fill="#9a32cd" stroke="#9a32cd" points="136.61,-369.69 127.24,-374.65 137.66,-376.61 136.61,-369.69"/>
<text text-anchor="middle" x="183" y="-373.5" font-family="Helvetica,sans-Serif" font-size="10.00"> current</text>
</g>
<!-- Node27 -->
<g id="node19" class="node">
<title>Node27</title>
<g id="a_node19"><a xlink:href="structservio_1_1drv_1_1com__iface.html" target="_top" xlink:title=" ">
<polygon fill="white" stroke="black" points="4,-336 4,-355 128,-355 128,-336 4,-336"/>
<text text-anchor="middle" x="66" y="-343" font-family="Helvetica,sans-Serif" font-size="10.00">servio::drv::com_iface</text>
</a>
</g>
</g>
<!-- Node27&#45;&gt;Node18 -->
<g id="edge20" class="edge">
<title>Node27&#45;&gt;Node18</title>
<path fill="none" stroke="#9a32cd" stroke-dasharray="5,2" d="M138.08,-345.5C170.96,-345.5 209.45,-345.5 240.2,-345.5"/>
<polygon fill="#9a32cd" stroke="#9a32cd" points="138.07,-342 128.07,-345.5 138.07,-349 138.07,-342"/>
<text text-anchor="middle" x="183" y="-348.5" font-family="Helvetica,sans-Serif" font-size="10.00"> comms</text>
</g>
</g>
</svg>
