<?xml version="1.0" encoding="UTF-8" standalone="no"?>
<!DOCTYPE svg PUBLIC "-//W3C//DTD SVG 1.1//EN"
 "http://www.w3.org/Graphics/SVG/1.1/DTD/svg11.dtd">
<!-- Generated by graphviz version 2.43.0 (0)
 -->
<!-- Title: core Pages: 1 -->
<svg width="405pt" height="199pt"
 viewBox="0.00 0.00 405.00 199.00" xmlns="http://www.w3.org/2000/svg" xmlns:xlink="http://www.w3.org/1999/xlink">
<g id="graph0" class="graph" transform="scale(1 1) rotate(0) translate(4 195)">
<title>core</title>
<polygon fill="white" stroke="transparent" points="-4,4 -4,-195 401,-195 401,4 -4,4"/>
<!-- Node1 -->
<g id="node1" class="node">
<title>Node1</title>
<g id="a_node1"><a xlink:title=" ">
<polygon fill="#bfbfbf" stroke="black" points="359,-95.5 359,-114.5 397,-114.5 397,-95.5 359,-95.5"/>
<text text-anchor="middle" x="378" y="-102.5" font-family="Helvetica,sans-Serif" font-size="10.00">core</text>
</a>
</g>
</g>
<!-- Node2 -->
<g id="node2" class="node">
<title>Node2</title>
<g id="a_node2"><a xlink:href="classindication.html" target="_top" xlink:title=" ">
<polygon fill="white" stroke="black" points="231,-171.5 231,-190.5 296,-190.5 296,-171.5 231,-171.5"/>
<text text-anchor="middle" x="263.5" y="-178.5" font-family="Helvetica,sans-Serif" font-size="10.00">indication</text>
</a>
</g>
</g>
<!-- Node2&#45;&gt;Node1 -->
<g id="edge1" class="edge">
<title>Node2&#45;&gt;Node1</title>
<path fill="none" stroke="#9a32cd" stroke-dasharray="5,2" d="M298.4,-167.29C312.24,-160.91 328.02,-152.6 341,-143 352.11,-134.79 362.72,-122.93 369.5,-114.65"/>
<polygon fill="#9a32cd" stroke="#9a32cd" points="296.89,-164.12 289.18,-171.38 299.74,-170.52 296.89,-164.12"/>
<text text-anchor="middle" x="327.5" y="-162" font-family="Helvetica,sans-Serif" font-size="10.00"> ind</text>
</g>
<!-- Node3 -->
<g id="node3" class="node">
<title>Node3</title>
<g id="a_node3"><a xlink:href="classmonitor.html" target="_top" xlink:title=" ">
<polygon fill="white" stroke="black" points="236,-133.5 236,-152.5 291,-152.5 291,-133.5 236,-133.5"/>
<text text-anchor="middle" x="263.5" y="-140.5" font-family="Helvetica,sans-Serif" font-size="10.00">monitor</text>
</a>
</g>
</g>
<!-- Node3&#45;&gt;Node1 -->
<g id="edge2" class="edge">
<title>Node3&#45;&gt;Node1</title>
<path fill="none" stroke="#9a32cd" stroke-dasharray="5,2" d="M301.08,-132.83C313.81,-129.08 328.12,-124.61 341,-120 346.87,-117.9 353.16,-115.38 358.83,-113"/>
<polygon fill="#9a32cd" stroke="#9a32cd" points="299.9,-129.53 291.27,-135.68 301.85,-136.25 299.9,-129.53"/>
<text text-anchor="middle" x="327.5" y="-131" font-family="Helvetica,sans-Serif" font-size="10.00"> mon</text>
</g>
<!-- Node4 -->
<g id="node4" class="node">
<title>Node4</title>
<g id="a_node4"><a xlink:href="classmetrics.html" target="_top" xlink:title=" ">
<polygon fill="white" stroke="black" points="237,-95.5 237,-114.5 290,-114.5 290,-95.5 237,-95.5"/>
<text text-anchor="middle" x="263.5" y="-102.5" font-family="Helvetica,sans-Serif" font-size="10.00">metrics</text>
</a>
</g>
</g>
<!-- Node4&#45;&gt;Node1 -->
<g id="edge3" class="edge">
<title>Node4&#45;&gt;Node1</title>
<path fill="none" stroke="#9a32cd" stroke-dasharray="5,2" d="M300.14,-105C319.7,-105 343.12,-105 358.93,-105"/>
<polygon fill="#9a32cd" stroke="#9a32cd" points="300.03,-101.5 290.03,-105 300.03,-108.5 300.03,-101.5"/>
<text text-anchor="middle" x="327.5" y="-108" font-family="Helvetica,sans-Serif" font-size="10.00"> met</text>
</g>
<!-- Node5 -->
<g id="node5" class="node">
<title>Node5</title>
<g id="a_node5"><a xlink:href="structconverter.html" target="_top" xlink:title=" ">
<polygon fill="white" stroke="black" points="232,-57.5 232,-76.5 295,-76.5 295,-57.5 232,-57.5"/>
<text text-anchor="middle" x="263.5" y="-64.5" font-family="Helvetica,sans-Serif" font-size="10.00">converter</text>
</a>
</g>
</g>
<!-- Node5&#45;&gt;Node1 -->
<g id="edge4" class="edge">
<title>Node5&#45;&gt;Node1</title>
<path fill="none" stroke="#9a32cd" stroke-dasharray="5,2" d="M305.18,-78.39C316.83,-81.87 329.49,-85.88 341,-90 346.87,-92.1 353.16,-94.62 358.83,-97"/>
<polygon fill="#9a32cd" stroke="#9a32cd" points="305.84,-74.93 295.26,-75.47 303.86,-81.65 305.84,-74.93"/>
<text text-anchor="middle" x="327.5" y="-93" font-family="Helvetica,sans-Serif" font-size="10.00"> conv</text>
</g>
<!-- Node6 -->
<g id="node6" class="node">
<title>Node6</title>
<g id="a_node6"><a xlink:href="classcnv_1_1temperature__converter.html" target="_top" xlink:title=" ">
<polygon fill="white" stroke="black" points="0,-114.5 0,-133.5 152,-133.5 152,-114.5 0,-114.5"/>
<text text-anchor="middle" x="76" y="-121.5" font-family="Helvetica,sans-Serif" font-size="10.00">cnv::temperature_converter</text>
</a>
</g>
</g>
<!-- Node6&#45;&gt;Node5 -->
<g id="edge5" class="edge">
<title>Node6&#45;&gt;Node5</title>
<path fill="none" stroke="#9a32cd" stroke-dasharray="5,2" d="M134.42,-112.2C158.94,-106.5 187.69,-98.95 213,-90 223.54,-86.27 234.88,-81.09 244.05,-76.59"/>
<polygon fill="#9a32cd" stroke="#9a32cd" points="133.52,-108.81 124.54,-114.44 135.07,-115.64 133.52,-108.81"/>
<text text-anchor="middle" x="191.5" y="-105" font-family="Helvetica,sans-Serif" font-size="10.00"> temp</text>
</g>
<!-- Node7 -->
<g id="node7" class="node">
<title>Node7</title>
<g id="a_node7"><a xlink:href="classcnv_1_1voltage__converter.html" target="_top" xlink:title=" ">
<polygon fill="white" stroke="black" points="12,-76.5 12,-95.5 140,-95.5 140,-76.5 12,-76.5"/>
<text text-anchor="middle" x="76" y="-83.5" font-family="Helvetica,sans-Serif" font-size="10.00">cnv::voltage_converter</text>
</a>
</g>
</g>
<!-- Node7&#45;&gt;Node5 -->
<g id="edge6" class="edge">
<title>Node7&#45;&gt;Node5</title>
<path fill="none" stroke="#9a32cd" stroke-dasharray="5,2" d="M150.01,-78.52C178.5,-75.6 209.6,-72.42 231.86,-70.14"/>
<polygon fill="#9a32cd" stroke="#9a32cd" points="149.65,-75.04 140.06,-79.54 150.37,-82 149.65,-75.04"/>
<text text-anchor="middle" x="191.5" y="-78" font-family="Helvetica,sans-Serif" font-size="10.00"> vcc</text>
</g>
<!-- Node8 -->
<g id="node8" class="node">
<title>Node8</title>
<g id="a_node8"><a xlink:href="classcnv_1_1position__converter.html" target="_top" xlink:title=" ">
<polygon fill="white" stroke="black" points="11,-38.5 11,-57.5 141,-57.5 141,-38.5 11,-38.5"/>
<text text-anchor="middle" x="76" y="-45.5" font-family="Helvetica,sans-Serif" font-size="10.00">cnv::position_converter</text>
</a>
</g>
</g>
<!-- Node8&#45;&gt;Node5 -->
<g id="edge7" class="edge">
<title>Node8&#45;&gt;Node5</title>
<path fill="none" stroke="#9a32cd" stroke-dasharray="5,2" d="M151.21,-51.11C171.31,-52.45 193.04,-54.33 213,-57 219.17,-57.82 225.73,-58.96 231.98,-60.17"/>
<polygon fill="#9a32cd" stroke="#9a32cd" points="151.37,-47.62 141.17,-50.49 150.93,-54.6 151.37,-47.62"/>
<text text-anchor="middle" x="191.5" y="-60" font-family="Helvetica,sans-Serif" font-size="10.00"> position</text>
</g>
<!-- Node9 -->
<g id="node9" class="node">
<title>Node9</title>
<g id="a_node9"><a xlink:href="classcnv_1_1current__converter.html" target="_top" xlink:title=" ">
<polygon fill="white" stroke="black" points="13.5,-0.5 13.5,-19.5 138.5,-19.5 138.5,-0.5 13.5,-0.5"/>
<text text-anchor="middle" x="76" y="-7.5" font-family="Helvetica,sans-Serif" font-size="10.00">cnv::current_converter</text>
</a>
</g>
</g>
<!-- Node9&#45;&gt;Node5 -->
<g id="edge8" class="edge">
<title>Node9&#45;&gt;Node5</title>
<path fill="none" stroke="#9a32cd" stroke-dasharray="5,2" d="M148.48,-19.31C169.69,-23.36 192.67,-29.06 213,-37 221.73,-40.41 222.99,-43.13 231,-48 236.02,-51.05 241.5,-54.36 246.46,-57.35"/>
<polygon fill="#9a32cd" stroke="#9a32cd" points="149.02,-15.85 138.56,-17.5 147.77,-22.74 149.02,-15.85"/>
<text text-anchor="middle" x="191.5" y="-40" font-family="Helvetica,sans-Serif" font-size="10.00"> current</text>
</g>
<!-- Node10 -->
<g id="node10" class="node">
<title>Node10</title>
<g id="a_node10"><a xlink:href="classcontrol.html" target="_top" xlink:title=" ">
<polygon fill="white" stroke="black" points="238.5,-19.5 238.5,-38.5 288.5,-38.5 288.5,-19.5 238.5,-19.5"/>
<text text-anchor="middle" x="263.5" y="-26.5" font-family="Helvetica,sans-Serif" font-size="10.00">control</text>
</a>
</g>
</g>
<!-- Node10&#45;&gt;Node1 -->
<g id="edge9" class="edge">
<title>Node10&#45;&gt;Node1</title>
<path fill="none" stroke="#9a32cd" stroke-dasharray="5,2" d="M297.85,-41.86C311.86,-48.07 327.9,-56.29 341,-66 352.4,-74.45 363.11,-86.85 369.84,-95.38"/>
<polygon fill="#9a32cd" stroke="#9a32cd" points="299.12,-38.59 288.54,-37.89 296.37,-45.03 299.12,-38.59"/>
<text text-anchor="middle" x="327.5" y="-69" font-family="Helvetica,sans-Serif" font-size="10.00"> ctl</text>
</g>
</g>
</svg>
