<?xml version="1.0" encoding="UTF-8" standalone="no"?>
<!DOCTYPE svg PUBLIC "-//W3C//DTD SVG 1.1//EN"
 "http://www.w3.org/Graphics/SVG/1.1/DTD/svg11.dtd">
<!-- Generated by graphviz version 2.43.0 (0)
 -->
<!-- Title: servio::drv::motor_info_iface Pages: 1 -->
<svg width="240pt" height="170pt"
 viewBox="0.00 0.00 240.00 170.00" xmlns="http://www.w3.org/2000/svg" xmlns:xlink="http://www.w3.org/1999/xlink">
<g id="graph0" class="graph" transform="scale(1 1) rotate(0) translate(4 166)">
<title>servio::drv::motor_info_iface</title>
<!-- Node1 -->
<g id="Node000001" class="node">
<title>Node1</title>
<g id="a_Node000001"><a xlink:title=" ">
<polygon fill="#999999" stroke="#666666" points="165.5,-162 62.5,-162 62.5,-132 165.5,-132 165.5,-162"/>
<text text-anchor="start" x="70.5" y="-150" font-family="Helvetica,sans-Serif" font-size="10.00">servio::drv::motor</text>
<text text-anchor="middle" x="114" y="-139" font-family="Helvetica,sans-Serif" font-size="10.00">_info_iface</text>
</a>
</g>
</g>
<!-- Node2 -->
<g id="Node000002" class="node">
<title>Node2</title>
<g id="a_Node000002"><a xlink:href="structservio_1_1drv_1_1pwm__motor__iface.html" target="_top" xlink:title=" ">
<polygon fill="white" stroke="#666666" points="180,-96 48,-96 48,-66 180,-66 180,-96"/>
<text text-anchor="start" x="56" y="-84" font-family="Helvetica,sans-Serif" font-size="10.00">servio::drv::pwm_motor</text>
<text text-anchor="middle" x="114" y="-73" font-family="Helvetica,sans-Serif" font-size="10.00">_iface</text>
</a>
</g>
</g>
<!-- Node1&#45;&gt;Node2 -->
<g id="edge1_Node000001_Node000002" class="edge">
<title>Node1&#45;&gt;Node2</title>
<g id="a_edge1_Node000001_Node000002"><a xlink:title=" ">
<path fill="none" stroke="#63b8ff" d="M114,-121.54C114,-112.96 114,-103.61 114,-96.16"/>
<polygon fill="#63b8ff" stroke="#63b8ff" points="110.5,-121.8 114,-131.8 117.5,-121.8 110.5,-121.8"/>
</a>
</g>
</g>
<!-- Node3 -->
<g id="Node000003" class="node">
<title>Node3</title>
<g id="a_Node000003"><a xlink:href="structservio_1_1core_1_1tests_1_1mock_1_1mot.html" target="_top" xlink:title=" ">
<polygon fill="white" stroke="#666666" points="104,-30 0,-30 0,0 104,0 104,-30"/>
<text text-anchor="start" x="8" y="-18" font-family="Helvetica,sans-Serif" font-size="10.00">servio::core::tests</text>
<text text-anchor="middle" x="52" y="-7" font-family="Helvetica,sans-Serif" font-size="10.00">::mock::mot</text>
</a>
</g>
</g>
<!-- Node2&#45;&gt;Node3 -->
<g id="edge2_Node000002_Node000003" class="edge">
<title>Node2&#45;&gt;Node3</title>
<g id="a_edge2_Node000002_Node000003"><a xlink:title=" ">
<path fill="none" stroke="#63b8ff" d="M93.04,-58.37C84.03,-49.06 73.74,-38.44 65.72,-30.16"/>
<polygon fill="#63b8ff" stroke="#63b8ff" points="90.77,-61.05 100.24,-65.8 95.8,-56.18 90.77,-61.05"/>
</a>
</g>
</g>
<!-- Node4 -->
<g id="Node000004" class="node">
<title>Node4</title>
<g id="a_Node000004"><a xlink:href="classservio_1_1drv_1_1hbridge.html" target="_top" xlink:title=" ">
<polygon fill="white" stroke="#666666" points="232,-24.5 122,-24.5 122,-5.5 232,-5.5 232,-24.5"/>
<text text-anchor="middle" x="177" y="-12.5" font-family="Helvetica,sans-Serif" font-size="10.00">servio::drv::hbridge</text>
</a>
</g>
</g>
<!-- Node2&#45;&gt;Node4 -->
<g id="edge3_Node000002_Node000004" class="edge">
<title>Node2&#45;&gt;Node4</title>
<g id="a_edge3_Node000002_Node000004"><a xlink:title=" ">
<path fill="none" stroke="#63b8ff" d="M135.06,-58.6C146.39,-47.1 159.75,-33.52 168.29,-24.84"/>
<polygon fill="#63b8ff" stroke="#63b8ff" points="132.5,-56.21 127.98,-65.8 137.49,-61.13 132.5,-56.21"/>
</a>
</g>
</g>
</g>
</svg>
