<?xml version="1.0" encoding="UTF-8" standalone="no"?>
<!DOCTYPE svg PUBLIC "-//W3C//DTD SVG 1.1//EN"
 "http://www.w3.org/Graphics/SVG/1.1/DTD/svg11.dtd">
<!-- Generated by graphviz version 2.43.0 (0)
 -->
<!-- Title: fw::dispatcher Pages: 1 -->
<svg width="465pt" height="229pt"
 viewBox="0.00 0.00 465.00 229.00" xmlns="http://www.w3.org/2000/svg" xmlns:xlink="http://www.w3.org/1999/xlink">
<g id="graph0" class="graph" transform="scale(1 1) rotate(0) translate(4 225)">
<title>fw::dispatcher</title>
<polygon fill="white" stroke="transparent" points="-4,4 -4,-225 461,-225 461,4 -4,4"/>
<!-- Node1 -->
<g id="node1" class="node">
<title>Node1</title>
<g id="a_node1"><a xlink:title=" ">
<polygon fill="#bfbfbf" stroke="black" points="147.5,-0.5 147.5,-19.5 231.5,-19.5 231.5,-0.5 147.5,-0.5"/>
<text text-anchor="middle" x="189.5" y="-7.5" font-family="Helvetica,sans-Serif" font-size="10.00">fw::dispatcher</text>
</a>
</g>
</g>
<!-- Node2 -->
<g id="node2" class="node">
<title>Node2</title>
<g id="a_node2"><a xlink:href="classfw_1_1drv_1_1hbridge.html" target="_top" xlink:title=" ">
<polygon fill="white" stroke="black" points="0,-67.5 0,-86.5 91,-86.5 91,-67.5 0,-67.5"/>
<text text-anchor="middle" x="45.5" y="-74.5" font-family="Helvetica,sans-Serif" font-size="10.00">fw::drv::hbridge</text>
</a>
</g>
</g>
<!-- Node2&#45;&gt;Node1 -->
<g id="edge1" class="edge">
<title>Node2&#45;&gt;Node1</title>
<path fill="none" stroke="#9a32cd" stroke-dasharray="5,2" d="M60.2,-60.32C68.21,-52.6 78.67,-43.75 89.5,-38 107.29,-28.56 128.65,-22.21 147.06,-18.05"/>
<polygon fill="#9a32cd" stroke="#9a32cd" points="57.65,-57.92 53.1,-67.49 62.62,-62.85 57.65,-57.92"/>
<text text-anchor="middle" x="97.5" y="-41" font-family="Helvetica,sans-Serif" font-size="10.00"> hb</text>
</g>
<!-- Node3 -->
<g id="node3" class="node">
<title>Node3</title>
<g id="a_node3"><a xlink:href="structfw_1_1cfg__dispatcher.html" target="_top" xlink:title=" ">
<polygon fill="white" stroke="black" points="189.5,-67.5 189.5,-86.5 293.5,-86.5 293.5,-67.5 189.5,-67.5"/>
<text text-anchor="middle" x="241.5" y="-74.5" font-family="Helvetica,sans-Serif" font-size="10.00">fw::cfg_dispatcher</text>
</a>
</g>
</g>
<!-- Node3&#45;&gt;Node1 -->
<g id="edge2" class="edge">
<title>Node3&#45;&gt;Node1</title>
<path fill="none" stroke="#9a32cd" stroke-dasharray="5,2" d="M228.12,-59.27C217.98,-46.6 204.46,-29.7 196.4,-19.63"/>
<polygon fill="#9a32cd" stroke="#9a32cd" points="225.51,-61.61 234.49,-67.23 230.97,-57.24 225.51,-61.61"/>
<text text-anchor="middle" x="241.5" y="-41" font-family="Helvetica,sans-Serif" font-size="10.00"> cfg_disp</text>
</g>
<!-- Node4 -->
<g id="node4" class="node">
<title>Node4</title>
<g id="a_node4"><a xlink:href="structfw_1_1core.html" target="_top" xlink:title=" ">
<polygon fill="white" stroke="red" points="206.5,-134.5 206.5,-153.5 260.5,-153.5 260.5,-134.5 206.5,-134.5"/>
<text text-anchor="middle" x="233.5" y="-141.5" font-family="Helvetica,sans-Serif" font-size="10.00">fw::core</text>
</a>
</g>
</g>
<!-- Node4&#45;&gt;Node3 -->
<g id="edge3" class="edge">
<title>Node4&#45;&gt;Node3</title>
<path fill="none" stroke="#9a32cd" stroke-dasharray="5,2" d="M235.83,-124.04C237.36,-111.67 239.27,-96.12 240.44,-86.63"/>
<polygon fill="#9a32cd" stroke="#9a32cd" points="232.33,-123.88 234.58,-134.23 239.27,-124.74 232.33,-123.88"/>
<text text-anchor="middle" x="242" y="-108" font-family="Helvetica,sans-Serif" font-size="10.00"> c</text>
</g>
<!-- Node7 -->
<g id="node5" class="node">
<title>Node7</title>
<g id="a_node5"><a xlink:href="classmetrics.html" target="_top" xlink:title=" ">
<polygon fill="white" stroke="black" points="116,-201.5 116,-220.5 169,-220.5 169,-201.5 116,-201.5"/>
<text text-anchor="middle" x="142.5" y="-208.5" font-family="Helvetica,sans-Serif" font-size="10.00">metrics</text>
</a>
</g>
</g>
<!-- Node7&#45;&gt;Node1 -->
<g id="edge9" class="edge">
<title>Node7&#45;&gt;Node1</title>
<path fill="none" stroke="#9a32cd" stroke-dasharray="5,2" d="M143.57,-191.27C145.06,-170.1 148.43,-134.7 155.5,-105 162.82,-74.23 168.67,-67.72 179.5,-38 181.76,-31.8 184.35,-24.82 186.32,-19.5"/>
<polygon fill="#9a32cd" stroke="#9a32cd" points="140.06,-191.25 142.92,-201.45 147.05,-191.69 140.06,-191.25"/>
<text text-anchor="middle" x="167" y="-108" font-family="Helvetica,sans-Serif" font-size="10.00"> met</text>
</g>
<!-- Node7&#45;&gt;Node4 -->
<g id="edge4" class="edge">
<title>Node7&#45;&gt;Node4</title>
<path fill="none" stroke="#9a32cd" stroke-dasharray="5,2" d="M162.91,-195.42C180.9,-182.57 206.51,-164.28 221.42,-153.63"/>
<polygon fill="#9a32cd" stroke="#9a32cd" points="160.88,-192.57 154.77,-201.23 164.94,-198.27 160.88,-192.57"/>
<text text-anchor="middle" x="205" y="-175" font-family="Helvetica,sans-Serif" font-size="10.00"> met</text>
</g>
<!-- Node8 -->
<g id="node6" class="node">
<title>Node8</title>
<g id="a_node6"><a xlink:href="structconverter.html" target="_top" xlink:title=" ">
<polygon fill="white" stroke="red" points="188,-201.5 188,-220.5 251,-220.5 251,-201.5 188,-201.5"/>
<text text-anchor="middle" x="219.5" y="-208.5" font-family="Helvetica,sans-Serif" font-size="10.00">converter</text>
</a>
</g>
</g>
<!-- Node8&#45;&gt;Node1 -->
<g id="edge8" class="edge">
<title>Node8&#45;&gt;Node1</title>
<path fill="none" stroke="#9a32cd" stroke-dasharray="5,2" d="M210.46,-192.32C197.82,-165.68 176.79,-113.42 180.5,-67 181.85,-50.12 185.45,-30.64 187.66,-19.68"/>
<polygon fill="#9a32cd" stroke="#9a32cd" points="207.42,-194.07 214.97,-201.5 213.7,-190.98 207.42,-194.07"/>
<text text-anchor="middle" x="198" y="-108" font-family="Helvetica,sans-Serif" font-size="10.00"> conv</text>
</g>
<!-- Node8&#45;&gt;Node4 -->
<g id="edge5" class="edge">
<title>Node8&#45;&gt;Node4</title>
<path fill="none" stroke="#9a32cd" stroke-dasharray="5,2" d="M223.5,-191.41C226.18,-178.99 229.58,-163.22 231.64,-153.63"/>
<polygon fill="#9a32cd" stroke="#9a32cd" points="220.07,-190.72 221.39,-201.23 226.92,-192.19 220.07,-190.72"/>
<text text-anchor="middle" x="240" y="-175" font-family="Helvetica,sans-Serif" font-size="10.00"> conv</text>
</g>
<!-- Node13 -->
<g id="node7" class="node">
<title>Node13</title>
<g id="a_node7"><a xlink:href="classcontrol.html" target="_top" xlink:title=" ">
<polygon fill="white" stroke="black" points="270.5,-201.5 270.5,-220.5 320.5,-220.5 320.5,-201.5 270.5,-201.5"/>
<text text-anchor="middle" x="295.5" y="-208.5" font-family="Helvetica,sans-Serif" font-size="10.00">control</text>
</a>
</g>
</g>
<!-- Node13&#45;&gt;Node1 -->
<g id="edge10" class="edge">
<title>Node13&#45;&gt;Node1</title>
<path fill="none" stroke="#9a32cd" stroke-dasharray="5,2" d="M301.64,-191.67C309.99,-163.39 321.82,-108.11 302.5,-67 289.74,-39.85 258.27,-25.72 231.78,-18.45"/>
<polygon fill="#9a32cd" stroke="#9a32cd" points="298.24,-190.82 298.58,-201.41 304.92,-192.92 298.24,-190.82"/>
<text text-anchor="middle" x="320.5" y="-108" font-family="Helvetica,sans-Serif" font-size="10.00"> ctl</text>
</g>
<!-- Node13&#45;&gt;Node4 -->
<g id="edge6" class="edge">
<title>Node13&#45;&gt;Node4</title>
<path fill="none" stroke="#9a32cd" stroke-dasharray="5,2" d="M280.24,-194C268.08,-181.25 251.52,-163.89 241.73,-153.63"/>
<polygon fill="#9a32cd" stroke="#9a32cd" points="277.7,-196.41 287.14,-201.23 282.77,-191.58 277.7,-196.41"/>
<text text-anchor="middle" x="275.5" y="-175" font-family="Helvetica,sans-Serif" font-size="10.00"> ctl</text>
</g>
<!-- Node14 -->
<g id="node8" class="node">
<title>Node14</title>
<g id="a_node8"><a xlink:href="classfw_1_1drv_1_1acquisition.html" target="_top" xlink:title=" ">
<polygon fill="white" stroke="black" points="350,-67.5 350,-86.5 457,-86.5 457,-67.5 350,-67.5"/>
<text text-anchor="middle" x="403.5" y="-74.5" font-family="Helvetica,sans-Serif" font-size="10.00">fw::drv::acquisition</text>
</a>
</g>
</g>
<!-- Node14&#45;&gt;Node1 -->
<g id="edge7" class="edge">
<title>Node14&#45;&gt;Node1</title>
<path fill="none" stroke="#9a32cd" stroke-dasharray="5,2" d="M382.42,-61.85C369.41,-53.73 352.08,-43.98 335.5,-38 301.67,-25.8 261.36,-18.88 231.67,-15.1"/>
<polygon fill="#9a32cd" stroke="#9a32cd" points="380.76,-64.94 391.06,-67.4 384.54,-59.05 380.76,-64.94"/>
<text text-anchor="middle" x="376" y="-41" font-family="Helvetica,sans-Serif" font-size="10.00"> acquis</text>
</g>
</g>
</svg>
