<?xml version="1.0" encoding="UTF-8" standalone="no"?>
<!DOCTYPE svg PUBLIC "-//W3C//DTD SVG 1.1//EN"
 "http://www.w3.org/Graphics/SVG/1.1/DTD/svg11.dtd">
<!-- Generated by graphviz version 2.43.0 (0)
 -->
<!-- Title: servio::drv::period_cb&lt; Callable &gt; Pages: 1 -->
<svg width="186pt" height="115pt"
 viewBox="0.00 0.00 186.00 115.00" xmlns="http://www.w3.org/2000/svg" xmlns:xlink="http://www.w3.org/1999/xlink">
<g id="graph0" class="graph" transform="scale(1 1) rotate(0) translate(4 111)">
<title>servio::drv::period_cb&lt; Callable &gt;</title>
<!-- Node1 -->
<g id="Node000001" class="node">
<title>Node1</title>
<g id="a_Node000001"><a xlink:title=" ">
<polygon fill="#999999" stroke="#666666" points="153,-30 49,-30 49,0 153,0 153,-30"/>
<text text-anchor="start" x="57" y="-18" font-family="Helvetica,sans-Serif" font-size="10.00">servio::drv::period</text>
<text text-anchor="middle" x="101" y="-7" font-family="Helvetica,sans-Serif" font-size="10.00">_cb&lt; Callable &gt;</text>
</a>
</g>
</g>
<!-- Node2 -->
<g id="Node000002" class="node">
<title>Node2</title>
<g id="a_Node000002"><a xlink:href="structservio_1_1drv_1_1period__cb__iface.html" target="_top" xlink:title=" ">
<polygon fill="white" stroke="#666666" points="104,-107 0,-107 0,-77 104,-77 104,-107"/>
<text text-anchor="start" x="8" y="-95" font-family="Helvetica,sans-Serif" font-size="10.00">servio::drv::period</text>
<text text-anchor="middle" x="52" y="-84" font-family="Helvetica,sans-Serif" font-size="10.00">_cb_iface</text>
</a>
</g>
</g>
<!-- Node2&#45;&gt;Node1 -->
<g id="edge1_Node000001_Node000002" class="edge">
<title>Node2&#45;&gt;Node1</title>
<g id="a_edge1_Node000001_Node000002"><a xlink:title=" ">
<path fill="none" stroke="#63b8ff" d="M66.78,-68.38C74.93,-55.91 84.79,-40.82 91.82,-30.04"/>
<polygon fill="#63b8ff" stroke="#63b8ff" points="63.76,-66.61 61.22,-76.89 69.62,-70.44 63.76,-66.61"/>
</a>
</g>
</g>
<!-- Node3 -->
<g id="Node000003" class="node">
<title>Node3</title>
<g id="a_Node000003"><a xlink:title=" ">
<polygon fill="white" stroke="#666666" points="178,-101.5 122,-101.5 122,-82.5 178,-82.5 178,-101.5"/>
<text text-anchor="middle" x="150" y="-89.5" font-family="Helvetica,sans-Serif" font-size="10.00">Callable</text>
</a>
</g>
</g>
<!-- Node3&#45;&gt;Node1 -->
<g id="edge2_Node000001_Node000003" class="edge">
<title>Node3&#45;&gt;Node1</title>
<g id="a_edge2_Node000001_Node000003"><a xlink:title=" ">
<path fill="none" stroke="#9a32cd" stroke-dasharray="5,2" d="M138.74,-73.76C130.09,-60.53 118.31,-42.49 110.22,-30.11"/>
<polygon fill="#9a32cd" stroke="#9a32cd" points="135.98,-75.94 144.38,-82.4 141.84,-72.11 135.98,-75.94"/>
</a>
</g>
<text text-anchor="middle" x="135.5" y="-51" font-family="Helvetica,sans-Serif" font-size="10.00" fill="grey"> cb</text>
</g>
</g>
</svg>
