<?xml version="1.0" encoding="UTF-8" standalone="no"?>
<!DOCTYPE svg PUBLIC "-//W3C//DTD SVG 1.1//EN"
 "http://www.w3.org/Graphics/SVG/1.1/DTD/svg11.dtd">
<!-- Generated by graphviz version 2.43.0 (0)
 -->
<!-- Title: fw::dispatcher Pages: 1 -->
<svg width="640pt" height="406pt"
 viewBox="0.00 0.00 640.00 405.80" xmlns="http://www.w3.org/2000/svg" xmlns:xlink="http://www.w3.org/1999/xlink">
<g id="graph0" class="graph" transform="scale(1 1) rotate(0) translate(4 401.8)">
<title>fw::dispatcher</title>
<polygon fill="white" stroke="transparent" points="-4,4 -4,-401.8 636,-401.8 636,4 -4,4"/>
<!-- Node1 -->
<g id="node1" class="node">
<title>Node1</title>
<g id="a_node1"><a xlink:title=" ">
<polygon fill="#bfbfbf" stroke="black" points="548,-208.3 548,-227.3 632,-227.3 632,-208.3 548,-208.3"/>
<text text-anchor="middle" x="590" y="-215.3" font-family="Helvetica,sans-Serif" font-size="10.00">fw::dispatcher</text>
</a>
</g>
</g>
<!-- Node2 -->
<g id="node2" class="node">
<title>Node2</title>
<g id="a_node2"><a xlink:href="classfw_1_1drv_1_1pwm__motor__interface.html" target="_top" xlink:title=" ">
<polygon fill="white" stroke="black" points="334.5,-290.8 334.5,-320.8 447.5,-320.8 447.5,-290.8 334.5,-290.8"/>
<text text-anchor="start" x="342.5" y="-308.8" font-family="Helvetica,sans-Serif" font-size="10.00">fw::drv::pwm_motor</text>
<text text-anchor="middle" x="391" y="-297.8" font-family="Helvetica,sans-Serif" font-size="10.00">_interface</text>
</a>
</g>
</g>
<!-- Node2&#45;&gt;Node1 -->
<g id="edge1" class="edge">
<title>Node2&#45;&gt;Node1</title>
<path fill="none" stroke="#9a32cd" stroke-dasharray="5,2" d="M455.44,-287.58C479.38,-279.72 506.49,-269.6 530,-257.8 547.25,-249.14 565.39,-236.18 576.92,-227.38"/>
<polygon fill="#9a32cd" stroke="#9a32cd" points="454.2,-284.31 445.75,-290.7 456.34,-290.97 454.2,-284.31"/>
<text text-anchor="middle" x="505" y="-280.8" font-family="Helvetica,sans-Serif" font-size="10.00"> motor</text>
</g>
<!-- Node3 -->
<g id="node3" class="node">
<title>Node3</title>
<g id="a_node3"><a xlink:href="classfw_1_1drv_1_1driver__interface.html" target="_top" xlink:title=" ">
<polygon fill="white" stroke="black" points="126,-296.3 126,-315.3 257,-315.3 257,-296.3 126,-296.3"/>
<text text-anchor="middle" x="191.5" y="-303.3" font-family="Helvetica,sans-Serif" font-size="10.00">fw::drv::driver_interface</text>
</a>
</g>
</g>
<!-- Node3&#45;&gt;Node2 -->
<g id="edge2" class="edge">
<title>Node3&#45;&gt;Node2</title>
<path fill="none" stroke="midnightblue" d="M267.28,-305.8C289.58,-305.8 313.63,-305.8 334.47,-305.8"/>
<polygon fill="midnightblue" stroke="midnightblue" points="267.17,-302.3 257.17,-305.8 267.17,-309.3 267.17,-302.3"/>
</g>
<!-- Node4 -->
<g id="node4" class="node">
<title>Node4</title>
<g id="a_node4"><a xlink:href="classfw_1_1drv_1_1current__interface.html" target="_top" xlink:title=" ">
<polygon fill="white" stroke="black" points="322.5,-252.3 322.5,-271.3 459.5,-271.3 459.5,-252.3 322.5,-252.3"/>
<text text-anchor="middle" x="391" y="-259.3" font-family="Helvetica,sans-Serif" font-size="10.00">fw::drv::current_interface</text>
</a>
</g>
</g>
<!-- Node3&#45;&gt;Node4 -->
<g id="edge4" class="edge">
<title>Node3&#45;&gt;Node4</title>
<path fill="none" stroke="midnightblue" d="M245.39,-294.02C277.28,-286.91 317.36,-277.98 347.23,-271.33"/>
<polygon fill="midnightblue" stroke="midnightblue" points="244.35,-290.66 235.35,-296.25 245.88,-297.49 244.35,-290.66"/>
</g>
<!-- Node5 -->
<g id="node5" class="node">
<title>Node5</title>
<g id="a_node5"><a xlink:href="classfw_1_1drv_1_1temperature__interface.html" target="_top" xlink:title=" ">
<polygon fill="white" stroke="black" points="333.5,-202.8 333.5,-232.8 448.5,-232.8 448.5,-202.8 333.5,-202.8"/>
<text text-anchor="start" x="341.5" y="-220.8" font-family="Helvetica,sans-Serif" font-size="10.00">fw::drv::temperature</text>
<text text-anchor="middle" x="391" y="-209.8" font-family="Helvetica,sans-Serif" font-size="10.00">_interface</text>
</a>
</g>
</g>
<!-- Node3&#45;&gt;Node5 -->
<g id="edge6" class="edge">
<title>Node3&#45;&gt;Node5</title>
<path fill="none" stroke="midnightblue" d="M219.4,-291.37C244.92,-277.96 284.52,-257.84 320,-242.8 328.08,-239.37 336.81,-236.01 345.26,-232.9"/>
<polygon fill="midnightblue" stroke="midnightblue" points="217.55,-288.39 210.35,-296.16 220.83,-294.57 217.55,-288.39"/>
</g>
<!-- Node6 -->
<g id="node6" class="node">
<title>Node6</title>
<g id="a_node6"><a xlink:href="classfw_1_1drv_1_1position__interface.html" target="_top" xlink:title=" ">
<polygon fill="white" stroke="black" points="320,-378.3 320,-397.3 462,-397.3 462,-378.3 320,-378.3"/>
<text text-anchor="middle" x="391" y="-385.3" font-family="Helvetica,sans-Serif" font-size="10.00">fw::drv::position_interface</text>
</a>
</g>
</g>
<!-- Node3&#45;&gt;Node6 -->
<g id="edge8" class="edge">
<title>Node3&#45;&gt;Node6</title>
<path fill="none" stroke="midnightblue" d="M218.29,-320.4C243.58,-334.27 283.56,-355 320,-368.8 329.42,-372.37 339.79,-375.56 349.59,-378.27"/>
<polygon fill="midnightblue" stroke="midnightblue" points="219.79,-317.23 209.35,-315.45 216.4,-323.35 219.79,-317.23"/>
</g>
<!-- Node18 -->
<g id="node12" class="node">
<title>Node18</title>
<g id="a_node12"><a xlink:href="classfw_1_1drv_1_1vcc__interface.html" target="_top" xlink:title=" ">
<polygon fill="white" stroke="black" points="331.5,-340.3 331.5,-359.3 450.5,-359.3 450.5,-340.3 331.5,-340.3"/>
<text text-anchor="middle" x="391" y="-347.3" font-family="Helvetica,sans-Serif" font-size="10.00">fw::drv::vcc_interface</text>
</a>
</g>
</g>
<!-- Node3&#45;&gt;Node18 -->
<g id="edge15" class="edge">
<title>Node3&#45;&gt;Node18</title>
<path fill="none" stroke="midnightblue" d="M245.39,-317.58C277.28,-324.69 317.36,-333.62 347.23,-340.27"/>
<polygon fill="midnightblue" stroke="midnightblue" points="245.88,-314.11 235.35,-315.35 244.35,-320.94 245.88,-314.11"/>
</g>
<!-- Node4&#45;&gt;Node1 -->
<g id="edge3" class="edge">
<title>Node4&#45;&gt;Node1</title>
<path fill="none" stroke="#9a32cd" stroke-dasharray="5,2" d="M449.66,-250.24C474.44,-245.13 503.7,-238.9 530,-232.8 537.31,-231.1 545.1,-229.19 552.55,-227.32"/>
<polygon fill="#9a32cd" stroke="#9a32cd" points="448.78,-246.85 439.69,-252.29 450.19,-253.71 448.78,-246.85"/>
<text text-anchor="middle" x="505" y="-245.8" font-family="Helvetica,sans-Serif" font-size="10.00"> curr_drv</text>
</g>
<!-- Node5&#45;&gt;Node1 -->
<g id="edge5" class="edge">
<title>Node5&#45;&gt;Node1</title>
<path fill="none" stroke="#9a32cd" stroke-dasharray="5,2" d="M458.97,-217.8C488.5,-217.8 522.27,-217.8 547.99,-217.8"/>
<polygon fill="#9a32cd" stroke="#9a32cd" points="458.72,-214.3 448.72,-217.8 458.72,-221.3 458.72,-214.3"/>
<text text-anchor="middle" x="505" y="-220.8" font-family="Helvetica,sans-Serif" font-size="10.00"> temp_drv</text>
</g>
<!-- Node6&#45;&gt;Node1 -->
<g id="edge7" class="edge">
<title>Node6&#45;&gt;Node1</title>
<path fill="none" stroke="#9a32cd" stroke-dasharray="5,2" d="M459.64,-375.51C484.34,-368.12 510.88,-356.37 530,-337.8 563.47,-305.29 580.76,-249.85 586.64,-227.53"/>
<polygon fill="#9a32cd" stroke="#9a32cd" points="458.61,-372.16 449.92,-378.23 460.49,-378.9 458.61,-372.16"/>
<text text-anchor="middle" x="505" y="-369.8" font-family="Helvetica,sans-Serif" font-size="10.00"> pos_drv</text>
</g>
<!-- Node7 -->
<g id="node7" class="node">
<title>Node7</title>
<g id="a_node7"><a xlink:href="structfw_1_1cfg__dispatcher.html" target="_top" xlink:title=" ">
<polygon fill="white" stroke="black" points="339,-67.3 339,-86.3 443,-86.3 443,-67.3 339,-67.3"/>
<text text-anchor="middle" x="391" y="-74.3" font-family="Helvetica,sans-Serif" font-size="10.00">fw::cfg_dispatcher</text>
</a>
</g>
</g>
<!-- Node7&#45;&gt;Node1 -->
<g id="edge9" class="edge">
<title>Node7&#45;&gt;Node1</title>
<path fill="none" stroke="#9a32cd" stroke-dasharray="5,2" d="M453.22,-69.72C479.01,-69.81 508.07,-74.26 530,-89.8 570.93,-118.8 584.14,-183.43 587.78,-208.04"/>
<polygon fill="#9a32cd" stroke="#9a32cd" points="453.08,-66.22 443.14,-69.9 453.21,-73.22 453.08,-66.22"/>
<text text-anchor="middle" x="505" y="-92.8" font-family="Helvetica,sans-Serif" font-size="10.00"> cfg_disp</text>
</g>
<!-- Node8 -->
<g id="node8" class="node">
<title>Node8</title>
<g id="a_node8"><a xlink:href="structfw_1_1core.html" target="_top" xlink:title=" ">
<polygon fill="white" stroke="red" points="164.5,-67.3 164.5,-86.3 218.5,-86.3 218.5,-67.3 164.5,-67.3"/>
<text text-anchor="middle" x="191.5" y="-74.3" font-family="Helvetica,sans-Serif" font-size="10.00">fw::core</text>
</a>
</g>
</g>
<!-- Node8&#45;&gt;Node7 -->
<g id="edge10" class="edge">
<title>Node8&#45;&gt;Node7</title>
<path fill="none" stroke="#9a32cd" stroke-dasharray="5,2" d="M229.04,-76.8C259.91,-76.8 304.47,-76.8 338.88,-76.8"/>
<polygon fill="#9a32cd" stroke="#9a32cd" points="228.73,-73.3 218.73,-76.8 228.73,-80.3 228.73,-73.3"/>
<text text-anchor="middle" x="288.5" y="-79.8" font-family="Helvetica,sans-Serif" font-size="10.00"> c</text>
</g>
<!-- Node11 -->
<g id="node9" class="node">
<title>Node11</title>
<g id="a_node9"><a xlink:href="classmetrics.html" target="_top" xlink:title=" ">
<polygon fill="white" stroke="black" points="5,-88.3 5,-107.3 58,-107.3 58,-88.3 5,-88.3"/>
<text text-anchor="middle" x="31.5" y="-95.3" font-family="Helvetica,sans-Serif" font-size="10.00">metrics</text>
</a>
</g>
</g>
<!-- Node11&#45;&gt;Node1 -->
<g id="edge17" class="edge">
<title>Node11&#45;&gt;Node1</title>
<path fill="none" stroke="#9a32cd" stroke-dasharray="5,2" d="M68.49,-103.13C142.53,-114.31 317.16,-141.87 462,-173.8 492.53,-180.53 500.49,-181.46 530,-191.8 543.42,-196.5 558.04,-202.93 569.37,-208.23"/>
<polygon fill="#9a32cd" stroke="#9a32cd" points="68.71,-99.62 58.31,-101.59 67.67,-106.54 68.71,-99.62"/>
<text text-anchor="middle" x="288.5" y="-143.8" font-family="Helvetica,sans-Serif" font-size="10.00"> met</text>
</g>
<!-- Node11&#45;&gt;Node8 -->
<g id="edge11" class="edge">
<title>Node11&#45;&gt;Node8</title>
<path fill="none" stroke="#9a32cd" stroke-dasharray="5,2" d="M68.1,-91.74C72.44,-91.06 76.82,-90.39 81,-89.8 109.43,-85.77 142.14,-82 164.35,-79.57"/>
<polygon fill="#9a32cd" stroke="#9a32cd" points="67.45,-88.3 58.14,-93.35 68.57,-95.21 67.45,-88.3"/>
<text text-anchor="middle" x="94.5" y="-92.8" font-family="Helvetica,sans-Serif" font-size="10.00"> met</text>
</g>
<!-- Node12 -->
<g id="node10" class="node">
<title>Node12</title>
<g id="a_node10"><a xlink:href="structconverter.html" target="_top" xlink:title=" ">
<polygon fill="white" stroke="red" points="0,-151.3 0,-170.3 63,-170.3 63,-151.3 0,-151.3"/>
<text text-anchor="middle" x="31.5" y="-158.3" font-family="Helvetica,sans-Serif" font-size="10.00">converter</text>
</a>
</g>
</g>
<!-- Node12&#45;&gt;Node1 -->
<g id="edge16" class="edge">
<title>Node12&#45;&gt;Node1</title>
<path fill="none" stroke="#9a32cd" stroke-dasharray="5,2" d="M73.24,-162.43C149.71,-165.83 319.85,-174.97 462,-193.8 490.81,-197.62 522.97,-203.71 547.72,-208.81"/>
<polygon fill="#9a32cd" stroke="#9a32cd" points="73.23,-158.93 63.08,-161.99 72.92,-165.92 73.23,-158.93"/>
<text text-anchor="middle" x="288.5" y="-178.8" font-family="Helvetica,sans-Serif" font-size="10.00"> conv</text>
</g>
<!-- Node12&#45;&gt;Node8 -->
<g id="edge12" class="edge">
<title>Node12&#45;&gt;Node8</title>
<path fill="none" stroke="#9a32cd" stroke-dasharray="5,2" d="M59.54,-146.43C91.84,-129.25 144.98,-101 172.59,-86.32"/>
<polygon fill="#9a32cd" stroke="#9a32cd" points="57.81,-143.38 50.62,-151.16 61.1,-149.56 57.81,-143.38"/>
<text text-anchor="middle" x="94.5" y="-135.8" font-family="Helvetica,sans-Serif" font-size="10.00"> conv</text>
</g>
<!-- Node17 -->
<g id="node11" class="node">
<title>Node17</title>
<g id="a_node11"><a xlink:href="classcontrol.html" target="_top" xlink:title=" ">
<polygon fill="white" stroke="black" points="6.5,-36.3 6.5,-55.3 56.5,-55.3 56.5,-36.3 6.5,-36.3"/>
<text text-anchor="middle" x="31.5" y="-43.3" font-family="Helvetica,sans-Serif" font-size="10.00">control</text>
</a>
</g>
</g>
<!-- Node17&#45;&gt;Node1 -->
<g id="edge18" class="edge">
<title>Node17&#45;&gt;Node1</title>
<path fill="none" stroke="#9a32cd" stroke-dasharray="5,2" d="M66.25,-35.26C153.72,-10.22 390.62,42.86 530,-67.8 575.81,-104.17 586.14,-181.13 588.4,-208.17"/>
<polygon fill="#9a32cd" stroke="#9a32cd" points="65.19,-31.92 56.58,-38.09 67.16,-38.64 65.19,-31.92"/>
<text text-anchor="middle" x="288.5" y="-3.8" font-family="Helvetica,sans-Serif" font-size="10.00"> ctl</text>
</g>
<!-- Node17&#45;&gt;Node8 -->
<g id="edge13" class="edge">
<title>Node17&#45;&gt;Node8</title>
<path fill="none" stroke="#9a32cd" stroke-dasharray="5,2" d="M67.03,-52.57C96.31,-58.32 137.67,-66.43 164.29,-71.66"/>
<polygon fill="#9a32cd" stroke="#9a32cd" points="67.33,-49.07 56.84,-50.58 65.98,-55.94 67.33,-49.07"/>
<text text-anchor="middle" x="94.5" y="-62.8" font-family="Helvetica,sans-Serif" font-size="10.00"> ctl</text>
</g>
<!-- Node18&#45;&gt;Node1 -->
<g id="edge14" class="edge">
<title>Node18&#45;&gt;Node1</title>
<path fill="none" stroke="#9a32cd" stroke-dasharray="5,2" d="M443.51,-337.37C449.82,-335.4 456.11,-333.2 462,-330.8 494.06,-317.72 503.68,-315.29 530,-292.8 553.18,-273 573.52,-242.92 583.12,-227.56"/>
<polygon fill="#9a32cd" stroke="#9a32cd" points="442.24,-334.1 433.64,-340.29 444.23,-340.81 442.24,-334.1"/>
<text text-anchor="middle" x="505" y="-325.8" font-family="Helvetica,sans-Serif" font-size="10.00"> vcc_drv</text>
</g>
</g>
</svg>
