<?xml version="1.0" encoding="UTF-8" standalone="no"?>
<!DOCTYPE svg PUBLIC "-//W3C//DTD SVG 1.1//EN"
 "http://www.w3.org/Graphics/SVG/1.1/DTD/svg11.dtd">
<!-- Generated by graphviz version 2.43.0 (0)
 -->
<!-- Title: fw::persistent_config_writer Pages: 1 -->
<svg width="204pt" height="163pt"
 viewBox="0.00 0.00 203.50 163.00" xmlns="http://www.w3.org/2000/svg" xmlns:xlink="http://www.w3.org/1999/xlink">
<g id="graph0" class="graph" transform="scale(1 1) rotate(0) translate(4 159)">
<title>fw::persistent_config_writer</title>
<polygon fill="white" stroke="transparent" points="-4,4 -4,-159 199.5,-159 199.5,4 -4,4"/>
<!-- Node1 -->
<g id="node1" class="node">
<title>Node1</title>
<g id="a_node1"><a xlink:title=" ">
<polygon fill="#bfbfbf" stroke="black" points="24.5,-0.5 24.5,-30.5 140.5,-30.5 140.5,-0.5 24.5,-0.5"/>
<text text-anchor="start" x="32.5" y="-18.5" font-family="Helvetica,sans-Serif" font-size="10.00">fw::persistent_config</text>
<text text-anchor="middle" x="82.5" y="-7.5" font-family="Helvetica,sans-Serif" font-size="10.00">_writer</text>
</a>
</g>
</g>
<!-- Node2 -->
<g id="node2" class="node">
<title>Node2</title>
<g id="a_node2"><a xlink:href="structcfg_1_1payload.html" target="_top" xlink:title=" ">
<polygon fill="white" stroke="black" points="0,-78.5 0,-97.5 77,-97.5 77,-78.5 0,-78.5"/>
<text text-anchor="middle" x="38.5" y="-85.5" font-family="Helvetica,sans-Serif" font-size="10.00">cfg::payload</text>
</a>
</g>
</g>
<!-- Node2&#45;&gt;Node1 -->
<g id="edge1" class="edge">
<title>Node2&#45;&gt;Node1</title>
<path fill="none" stroke="#9a32cd" stroke-dasharray="5,2" d="M41.26,-68.4C42.76,-61.95 45.04,-54.87 48.5,-49 52.48,-42.25 58.26,-35.99 63.92,-30.8"/>
<polygon fill="#9a32cd" stroke="#9a32cd" points="37.8,-67.86 39.41,-78.33 44.68,-69.14 37.8,-67.86"/>
<text text-anchor="middle" x="81.5" y="-52" font-family="Helvetica,sans-Serif" font-size="10.00"> last_payload</text>
</g>
<!-- Node3 -->
<g id="node3" class="node">
<title>Node3</title>
<g id="a_node3"><a xlink:href="classcurrent__interface.html" target="_top" xlink:title=" ">
<polygon fill="white" stroke="black" points="95.5,-78.5 95.5,-97.5 195.5,-97.5 195.5,-78.5 95.5,-78.5"/>
<text text-anchor="middle" x="145.5" y="-85.5" font-family="Helvetica,sans-Serif" font-size="10.00">current_interface</text>
</a>
</g>
</g>
<!-- Node3&#45;&gt;Node1 -->
<g id="edge2" class="edge">
<title>Node3&#45;&gt;Node1</title>
<path fill="none" stroke="#9a32cd" stroke-dasharray="5,2" d="M132.59,-70.5C127.15,-63.72 120.65,-55.86 114.5,-49 109,-42.87 102.69,-36.36 97.13,-30.78"/>
<polygon fill="#9a32cd" stroke="#9a32cd" points="129.87,-72.7 138.83,-78.36 135.35,-68.35 129.87,-72.7"/>
<text text-anchor="middle" x="157" y="-52" font-family="Helvetica,sans-Serif" font-size="10.00"> current_iface</text>
</g>
<!-- Node4 -->
<g id="node4" class="node">
<title>Node4</title>
<g id="a_node4"><a xlink:href="classdriver__interface.html" target="_top" xlink:title=" ">
<polygon fill="white" stroke="black" points="98.5,-135.5 98.5,-154.5 192.5,-154.5 192.5,-135.5 98.5,-135.5"/>
<text text-anchor="middle" x="145.5" y="-142.5" font-family="Helvetica,sans-Serif" font-size="10.00">driver_interface</text>
</a>
</g>
</g>
<!-- Node4&#45;&gt;Node3 -->
<g id="edge3" class="edge">
<title>Node4&#45;&gt;Node3</title>
<path fill="none" stroke="midnightblue" d="M145.5,-125.12C145.5,-115.82 145.5,-105.06 145.5,-97.71"/>
<polygon fill="midnightblue" stroke="midnightblue" points="142,-125.41 145.5,-135.41 149,-125.41 142,-125.41"/>
</g>
</g>
</svg>
