<?xml version="1.0" encoding="UTF-8" standalone="no"?>
<!DOCTYPE svg PUBLIC "-//W3C//DTD SVG 1.1//EN"
 "http://www.w3.org/Graphics/SVG/1.1/DTD/svg11.dtd">
<!-- Generated by graphviz version 2.43.0 (0)
 -->
<!-- Title: servio::cnv::converter Pages: 1 -->
<svg width="130pt" height="139pt"
 viewBox="0.00 0.00 130.00 139.00" xmlns="http://www.w3.org/2000/svg" xmlns:xlink="http://www.w3.org/1999/xlink">
<g id="graph0" class="graph" transform="scale(1 1) rotate(0) translate(4 135)">
<title>servio::cnv::converter</title>
<polygon fill="white" stroke="transparent" points="-4,4 -4,-135 126,-135 126,4 -4,4"/>
<!-- Node1 -->
<g id="node1" class="node">
<title>Node1</title>
<g id="a_node1"><a xlink:title=" ">
<polygon fill="#bfbfbf" stroke="black" points="0,-0.5 0,-19.5 122,-19.5 122,-0.5 0,-0.5"/>
<text text-anchor="middle" x="61" y="-7.5" font-family="Helvetica,sans-Serif" font-size="10.00">servio::cnv::converter</text>
</a>
</g>
</g>
<!-- Node2 -->
<g id="node2" class="node">
<title>Node2</title>
<g id="a_node2"><a xlink:href="structservio_1_1cnv_1_1linear__converter.html" target="_top" xlink:title=" ">
<polygon fill="white" stroke="black" points="9.5,-100.5 9.5,-130.5 112.5,-130.5 112.5,-100.5 9.5,-100.5"/>
<text text-anchor="start" x="17.5" y="-118.5" font-family="Helvetica,sans-Serif" font-size="10.00">servio::cnv::linear</text>
<text text-anchor="middle" x="61" y="-107.5" font-family="Helvetica,sans-Serif" font-size="10.00">_converter</text>
</a>
</g>
</g>
<!-- Node2&#45;&gt;Node1 -->
<g id="edge1" class="edge">
<title>Node2&#45;&gt;Node1</title>
<path fill="none" stroke="#9a32cd" stroke-dasharray="5,2" d="M61,-89.86C61,-67.16 61,-34.76 61,-19.53"/>
<polygon fill="#9a32cd" stroke="#9a32cd" points="57.5,-90.11 61,-100.11 64.5,-90.11 57.5,-90.11"/>
<text text-anchor="middle" x="81" y="-74" font-family="Helvetica,sans-Serif" font-size="10.00"> current</text>
<text text-anchor="middle" x="81" y="-63" font-family="Helvetica,sans-Serif" font-size="10.00">position</text>
<text text-anchor="middle" x="81" y="-52" font-family="Helvetica,sans-Serif" font-size="10.00">temp</text>
<text text-anchor="middle" x="81" y="-41" font-family="Helvetica,sans-Serif" font-size="10.00">vcc</text>
</g>
</g>
</svg>
