<?xml version="1.0" encoding="UTF-8" standalone="no"?>
<!DOCTYPE svg PUBLIC "-//W3C//DTD SVG 1.1//EN"
 "http://www.w3.org/Graphics/SVG/1.1/DTD/svg11.dtd">
<!-- Generated by graphviz version 2.43.0 (0)
 -->
<!-- Title: servio::core::core Pages: 1 -->
<svg width="479pt" height="175pt"
 viewBox="0.00 0.00 479.00 175.00" xmlns="http://www.w3.org/2000/svg" xmlns:xlink="http://www.w3.org/1999/xlink">
<g id="graph0" class="graph" transform="scale(1 1) rotate(0) translate(4 171)">
<title>servio::core::core</title>
<!-- Node1 -->
<g id="Node000001" class="node">
<title>Node1</title>
<g id="a_Node000001"><a xlink:title=" ">
<polygon fill="#999999" stroke="#666666" points="471,-93 370,-93 370,-74 471,-74 471,-93"/>
<text text-anchor="middle" x="420.5" y="-81" font-family="Helvetica,sans-Serif" font-size="10.00">servio::core::core</text>
</a>
</g>
</g>
<!-- Node2 -->
<g id="Node000002" class="node">
<title>Node2</title>
<g id="a_Node000002"><a xlink:href="classservio_1_1ctl_1_1control.html" target="_top" xlink:title=" ">
<polygon fill="white" stroke="#666666" points="295,-167 191,-167 191,-148 295,-148 295,-167"/>
<text text-anchor="middle" x="243" y="-155" font-family="Helvetica,sans-Serif" font-size="10.00">servio::ctl::control</text>
</a>
</g>
</g>
<!-- Node2&#45;&gt;Node1 -->
<g id="edge1_Node000001_Node000002" class="edge">
<title>Node2&#45;&gt;Node1</title>
<g id="a_edge1_Node000001_Node000002"><a xlink:title=" ">
<path fill="none" stroke="#9a32cd" stroke-dasharray="5,2" d="M290.8,-145.02C296.3,-143.29 301.81,-141.44 307,-139.5 342.36,-126.29 381.3,-105.36 402.84,-93.18"/>
<polygon fill="#9a32cd" stroke="#9a32cd" points="289.52,-141.75 280.96,-148 291.55,-148.46 289.52,-141.75"/>
</a>
</g>
<text text-anchor="middle" x="338.5" y="-134.5" font-family="Helvetica,sans-Serif" font-size="10.00" fill="grey"> ctl</text>
</g>
<!-- Node3 -->
<g id="Node000003" class="node">
<title>Node3</title>
<g id="a_Node000003"><a xlink:href="structservio_1_1cnv_1_1converter.html" target="_top" xlink:title=" ">
<polygon fill="white" stroke="#666666" points="304,-130 182,-130 182,-111 304,-111 304,-130"/>
<text text-anchor="middle" x="243" y="-118" font-family="Helvetica,sans-Serif" font-size="10.00">servio::cnv::converter</text>
</a>
</g>
</g>
<!-- Node3&#45;&gt;Node1 -->
<g id="edge2_Node000001_Node000003" class="edge">
<title>Node3&#45;&gt;Node1</title>
<g id="a_edge2_Node000001_Node000003"><a xlink:title=" ">
<path fill="none" stroke="#9a32cd" stroke-dasharray="5,2" d="M299.27,-108.85C323.38,-103.77 351.29,-97.88 374.15,-93.06"/>
<polygon fill="#9a32cd" stroke="#9a32cd" points="298.26,-105.48 289.2,-110.97 299.7,-112.33 298.26,-105.48"/>
</a>
</g>
<text text-anchor="middle" x="338.5" y="-106.5" font-family="Helvetica,sans-Serif" font-size="10.00" fill="grey"> conv</text>
</g>
<!-- Node4 -->
<g id="Node000004" class="node">
<title>Node4</title>
<g id="a_Node000004"><a xlink:href="structservio_1_1cnv_1_1linear__converter.html" target="_top" xlink:title=" ">
<polygon fill="white" stroke="#666666" points="103,-135.5 0,-135.5 0,-105.5 103,-105.5 103,-135.5"/>
<text text-anchor="start" x="8" y="-123.5" font-family="Helvetica,sans-Serif" font-size="10.00">servio::cnv::linear</text>
<text text-anchor="middle" x="51.5" y="-112.5" font-family="Helvetica,sans-Serif" font-size="10.00">_converter</text>
</a>
</g>
</g>
<!-- Node4&#45;&gt;Node3 -->
<g id="edge3_Node000003_Node000004" class="edge">
<title>Node4&#45;&gt;Node3</title>
<g id="a_edge3_Node000003_Node000004"><a xlink:title=" ">
<path fill="none" stroke="#9a32cd" stroke-dasharray="5,2" d="M113.47,-120.5C135.41,-120.5 160.13,-120.5 181.99,-120.5"/>
<polygon fill="#9a32cd" stroke="#9a32cd" points="113.28,-117 103.28,-120.5 113.28,-124 113.28,-117"/>
</a>
</g>
<text text-anchor="middle" x="141" y="-156.5" font-family="Helvetica,sans-Serif" font-size="10.00" fill="grey"> current</text>
<text text-anchor="middle" x="141" y="-145.5" font-family="Helvetica,sans-Serif" font-size="10.00" fill="grey">position</text>
<text text-anchor="middle" x="141" y="-134.5" font-family="Helvetica,sans-Serif" font-size="10.00" fill="grey">temp</text>
<text text-anchor="middle" x="141" y="-123.5" font-family="Helvetica,sans-Serif" font-size="10.00" fill="grey">vcc</text>
</g>
<!-- Node5 -->
<g id="Node000005" class="node">
<title>Node5</title>
<g id="a_Node000005"><a xlink:href="classservio_1_1mtr_1_1metrics.html" target="_top" xlink:title=" ">
<polygon fill="white" stroke="#666666" points="299.5,-93 186.5,-93 186.5,-74 299.5,-74 299.5,-93"/>
<text text-anchor="middle" x="243" y="-81" font-family="Helvetica,sans-Serif" font-size="10.00">servio::mtr::metrics</text>
</a>
</g>
</g>
<!-- Node5&#45;&gt;Node1 -->
<g id="edge4_Node000001_Node000005" class="edge">
<title>Node5&#45;&gt;Node1</title>
<g id="a_edge4_Node000001_Node000005"><a xlink:title=" ">
<path fill="none" stroke="#9a32cd" stroke-dasharray="5,2" d="M309.79,-83.5C329.73,-83.5 351.29,-83.5 369.97,-83.5"/>
<polygon fill="#9a32cd" stroke="#9a32cd" points="309.53,-80 299.53,-83.5 309.53,-87 309.53,-80"/>
</a>
</g>
<text text-anchor="middle" x="338.5" y="-86.5" font-family="Helvetica,sans-Serif" font-size="10.00" fill="grey"> met</text>
</g>
<!-- Node6 -->
<g id="Node000006" class="node">
<title>Node6</title>
<g id="a_Node000006"><a xlink:href="classservio_1_1mon_1_1indication.html" target="_top" xlink:title=" ">
<polygon fill="white" stroke="#666666" points="307,-56 179,-56 179,-37 307,-37 307,-56"/>
<text text-anchor="middle" x="243" y="-44" font-family="Helvetica,sans-Serif" font-size="10.00">servio::mon::indication</text>
</a>
</g>
</g>
<!-- Node6&#45;&gt;Node1 -->
<g id="edge5_Node000001_Node000006" class="edge">
<title>Node6&#45;&gt;Node1</title>
<g id="a_edge5_Node000001_Node000006"><a xlink:title=" ">
<path fill="none" stroke="#9a32cd" stroke-dasharray="5,2" d="M301.56,-58.03C317.88,-61.35 335.65,-65.02 352,-68.5 360.1,-70.23 368.74,-72.11 377.04,-73.94"/>
<polygon fill="#9a32cd" stroke="#9a32cd" points="302.12,-54.57 291.62,-56.01 300.72,-61.43 302.12,-54.57"/>
</a>
</g>
<text text-anchor="middle" x="338.5" y="-71.5" font-family="Helvetica,sans-Serif" font-size="10.00" fill="grey"> ind</text>
</g>
<!-- Node7 -->
<g id="Node000007" class="node">
<title>Node7</title>
<g id="a_Node000007"><a xlink:href="classservio_1_1mon_1_1monitor.html" target="_top" xlink:title=" ">
<polygon fill="white" stroke="#666666" points="302.5,-19 183.5,-19 183.5,0 302.5,0 302.5,-19"/>
<text text-anchor="middle" x="243" y="-7" font-family="Helvetica,sans-Serif" font-size="10.00">servio::mon::monitor</text>
</a>
</g>
</g>
<!-- Node7&#45;&gt;Node1 -->
<g id="edge6_Node000001_Node000007" class="edge">
<title>Node7&#45;&gt;Node1</title>
<g id="a_edge6_Node000001_Node000007"><a xlink:title=" ">
<path fill="none" stroke="#9a32cd" stroke-dasharray="5,2" d="M290.8,-21.98C296.3,-23.71 301.81,-25.56 307,-27.5 342.36,-40.71 381.3,-61.64 402.84,-73.82"/>
<polygon fill="#9a32cd" stroke="#9a32cd" points="291.55,-18.54 280.96,-19 289.52,-25.25 291.55,-18.54"/>
</a>
</g>
<text text-anchor="middle" x="338.5" y="-50.5" font-family="Helvetica,sans-Serif" font-size="10.00" fill="grey"> mon</text>
</g>
</g>
</svg>
