<?xml version="1.0" encoding="UTF-8" standalone="no"?>
<!DOCTYPE svg PUBLIC "-//W3C//DTD SVG 1.1//EN"
 "http://www.w3.org/Graphics/SVG/1.1/DTD/svg11.dtd">
<!-- Generated by graphviz version 2.43.0 (0)
 -->
<!-- Title: servio::converter Pages: 1 -->
<svg width="322pt" height="186pt"
 viewBox="0.00 0.00 322.00 186.00" xmlns="http://www.w3.org/2000/svg" xmlns:xlink="http://www.w3.org/1999/xlink">
<g id="graph0" class="graph" transform="scale(1 1) rotate(0) translate(4 182)">
<title>servio::converter</title>
<polygon fill="white" stroke="transparent" points="-4,4 -4,-182 318,-182 318,4 -4,4"/>
<!-- Node1 -->
<g id="node1" class="node">
<title>Node1</title>
<g id="a_node1"><a xlink:title=" ">
<polygon fill="#bfbfbf" stroke="black" points="215,-79 215,-98 314,-98 314,-79 215,-79"/>
<text text-anchor="middle" x="264.5" y="-86" font-family="Helvetica,sans-Serif" font-size="10.00">servio::converter</text>
</a>
</g>
</g>
<!-- Node2 -->
<g id="node2" class="node">
<title>Node2</title>
<g id="a_node2"><a xlink:href="classservio_1_1cnv_1_1current__converter.html" target="_top" xlink:title=" ">
<polygon fill="white" stroke="black" points="13,-147.5 13,-177.5 123,-177.5 123,-147.5 13,-147.5"/>
<text text-anchor="start" x="21" y="-165.5" font-family="Helvetica,sans-Serif" font-size="10.00">servio::cnv::current</text>
<text text-anchor="middle" x="68" y="-154.5" font-family="Helvetica,sans-Serif" font-size="10.00">_converter</text>
</a>
</g>
</g>
<!-- Node2&#45;&gt;Node1 -->
<g id="edge1" class="edge">
<title>Node2&#45;&gt;Node1</title>
<path fill="none" stroke="#9a32cd" stroke-dasharray="5,2" d="M120.93,-143.91C126.02,-142.08 131.11,-140.26 136,-138.5 163.12,-128.75 170.15,-126.98 197,-116.5 211.94,-110.67 228.56,-103.67 241.45,-98.13"/>
<polygon fill="#9a32cd" stroke="#9a32cd" points="119.41,-140.74 111.18,-147.41 121.77,-147.33 119.41,-140.74"/>
<text text-anchor="middle" x="175.5" y="-134.5" font-family="Helvetica,sans-Serif" font-size="10.00"> current</text>
</g>
<!-- Node3 -->
<g id="node3" class="node">
<title>Node3</title>
<g id="a_node3"><a xlink:href="classservio_1_1cnv_1_1position__converter.html" target="_top" xlink:title=" ">
<polygon fill="white" stroke="black" points="11,-98.5 11,-128.5 125,-128.5 125,-98.5 11,-98.5"/>
<text text-anchor="start" x="19" y="-116.5" font-family="Helvetica,sans-Serif" font-size="10.00">servio::cnv::position</text>
<text text-anchor="middle" x="68" y="-105.5" font-family="Helvetica,sans-Serif" font-size="10.00">_converter</text>
</a>
</g>
</g>
<!-- Node3&#45;&gt;Node1 -->
<g id="edge2" class="edge">
<title>Node3&#45;&gt;Node1</title>
<path fill="none" stroke="#9a32cd" stroke-dasharray="5,2" d="M135.45,-104.96C161.54,-101.61 190.92,-97.83 214.95,-94.74"/>
<polygon fill="#9a32cd" stroke="#9a32cd" points="134.73,-101.52 125.26,-106.27 135.62,-108.47 134.73,-101.52"/>
<text text-anchor="middle" x="175.5" y="-104.5" font-family="Helvetica,sans-Serif" font-size="10.00"> position</text>
</g>
<!-- Node4 -->
<g id="node4" class="node">
<title>Node4</title>
<g id="a_node4"><a xlink:href="classservio_1_1cnv_1_1temperature__converter.html" target="_top" xlink:title=" ">
<polygon fill="white" stroke="black" points="0,-49.5 0,-79.5 136,-79.5 136,-49.5 0,-49.5"/>
<text text-anchor="start" x="8" y="-67.5" font-family="Helvetica,sans-Serif" font-size="10.00">servio::cnv::temperature</text>
<text text-anchor="middle" x="68" y="-56.5" font-family="Helvetica,sans-Serif" font-size="10.00">_converter</text>
</a>
</g>
</g>
<!-- Node4&#45;&gt;Node1 -->
<g id="edge3" class="edge">
<title>Node4&#45;&gt;Node1</title>
<path fill="none" stroke="#9a32cd" stroke-dasharray="5,2" d="M146.33,-74.04C169.39,-76.89 194.01,-79.93 214.7,-82.48"/>
<polygon fill="#9a32cd" stroke="#9a32cd" points="146.56,-70.54 136.21,-72.79 145.7,-77.49 146.56,-70.54"/>
<text text-anchor="middle" x="175.5" y="-82.5" font-family="Helvetica,sans-Serif" font-size="10.00"> temp</text>
</g>
<!-- Node5 -->
<g id="node5" class="node">
<title>Node5</title>
<g id="a_node5"><a xlink:href="classservio_1_1cnv_1_1voltage__converter.html" target="_top" xlink:title=" ">
<polygon fill="white" stroke="black" points="12,-0.5 12,-30.5 124,-30.5 124,-0.5 12,-0.5"/>
<text text-anchor="start" x="20" y="-18.5" font-family="Helvetica,sans-Serif" font-size="10.00">servio::cnv::voltage</text>
<text text-anchor="middle" x="68" y="-7.5" font-family="Helvetica,sans-Serif" font-size="10.00">_converter</text>
</a>
</g>
</g>
<!-- Node5&#45;&gt;Node1 -->
<g id="edge4" class="edge">
<title>Node5&#45;&gt;Node1</title>
<path fill="none" stroke="#9a32cd" stroke-dasharray="5,2" d="M125.53,-33.85C147.93,-41.4 173.82,-50.48 197,-59.5 212.49,-65.53 229.69,-73.05 242.71,-78.92"/>
<polygon fill="#9a32cd" stroke="#9a32cd" points="126.43,-30.46 115.84,-30.6 124.21,-37.09 126.43,-30.46"/>
<text text-anchor="middle" x="175.5" y="-62.5" font-family="Helvetica,sans-Serif" font-size="10.00"> vcc</text>
</g>
</g>
</svg>
