<?xml version="1.0" encoding="UTF-8" standalone="no"?>
<!DOCTYPE svg PUBLIC "-//W3C//DTD SVG 1.1//EN"
 "http://www.w3.org/Graphics/SVG/1.1/DTD/svg11.dtd">
<!-- Generated by graphviz version 2.43.0 (0)
 -->
<!-- Title: servio::fw::dispatcher Pages: 1 -->
<svg width="734pt" height="384pt"
 viewBox="0.00 0.00 734.00 384.00" xmlns="http://www.w3.org/2000/svg" xmlns:xlink="http://www.w3.org/1999/xlink">
<g id="graph0" class="graph" transform="scale(1 1) rotate(0) translate(4 380)">
<title>servio::fw::dispatcher</title>
<polygon fill="white" stroke="transparent" points="-4,4 -4,-380 730,-380 730,4 -4,4"/>
<!-- Node1 -->
<g id="node1" class="node">
<title>Node1</title>
<g id="a_node1"><a xlink:title=" ">
<polygon fill="#bfbfbf" stroke="black" points="606,-164.5 606,-183.5 726,-183.5 726,-164.5 606,-164.5"/>
<text text-anchor="middle" x="666" y="-171.5" font-family="Helvetica,sans-Serif" font-size="10.00">servio::fw::dispatcher</text>
</a>
</g>
</g>
<!-- Node2 -->
<g id="node2" class="node">
<title>Node2</title>
<g id="a_node2"><a xlink:href="classservio_1_1temperature__interface.html" target="_top" xlink:title=" ">
<polygon fill="white" stroke="black" points="383.5,-39 383.5,-69 496.5,-69 496.5,-39 383.5,-39"/>
<text text-anchor="start" x="391.5" y="-57" font-family="Helvetica,sans-Serif" font-size="10.00">servio::temperature</text>
<text text-anchor="middle" x="440" y="-46" font-family="Helvetica,sans-Serif" font-size="10.00">_interface</text>
</a>
</g>
</g>
<!-- Node2&#45;&gt;Node1 -->
<g id="edge1" class="edge">
<title>Node2&#45;&gt;Node1</title>
<path fill="none" stroke="#9a32cd" stroke-dasharray="5,2" d="M506.12,-70.55C532.66,-78.91 562.93,-90.61 588,-106 615.66,-122.99 642.91,-150.19 656.35,-164.5"/>
<polygon fill="#9a32cd" stroke="#9a32cd" points="507.12,-67.2 496.53,-67.62 505.07,-73.89 507.12,-67.2"/>
<text text-anchor="middle" x="563" y="-109" font-family="Helvetica,sans-Serif" font-size="10.00"> temp_drv</text>
</g>
<!-- Node3 -->
<g id="node3" class="node">
<title>Node3</title>
<g id="a_node3"><a xlink:href="classservio_1_1driver__interface.html" target="_top" xlink:title=" ">
<polygon fill="white" stroke="black" points="167,-88.5 167,-107.5 297,-107.5 297,-88.5 167,-88.5"/>
<text text-anchor="middle" x="232" y="-95.5" font-family="Helvetica,sans-Serif" font-size="10.00">servio::driver_interface</text>
</a>
</g>
</g>
<!-- Node3&#45;&gt;Node2 -->
<g id="edge2" class="edge">
<title>Node3&#45;&gt;Node2</title>
<path fill="none" stroke="midnightblue" d="M287.84,-86.29C317.37,-79.98 353.71,-72.22 383.36,-65.88"/>
<polygon fill="midnightblue" stroke="midnightblue" points="286.75,-82.94 277.7,-88.45 288.21,-89.79 286.75,-82.94"/>
</g>
<!-- Node15 -->
<g id="node9" class="node">
<title>Node15</title>
<g id="a_node9"><a xlink:href="classservio_1_1pwm__motor__interface.html" target="_top" xlink:title=" ">
<polygon fill="white" stroke="black" points="360,-0.5 360,-19.5 520,-19.5 520,-0.5 360,-0.5"/>
<text text-anchor="middle" x="440" y="-7.5" font-family="Helvetica,sans-Serif" font-size="10.00">servio::pwm_motor_interface</text>
</a>
</g>
</g>
<!-- Node3&#45;&gt;Node15 -->
<g id="edge9" class="edge">
<title>Node3&#45;&gt;Node15</title>
<path fill="none" stroke="midnightblue" d="M256.32,-82.9C281.14,-67.42 321.99,-43.6 360,-29 369.61,-25.31 380.17,-22.17 390.34,-19.58"/>
<polygon fill="midnightblue" stroke="midnightblue" points="254.22,-80.09 247.63,-88.39 257.96,-86 254.22,-80.09"/>
</g>
<!-- Node16 -->
<g id="node10" class="node">
<title>Node16</title>
<g id="a_node10"><a xlink:href="classservio_1_1position__interface.html" target="_top" xlink:title=" ">
<polygon fill="white" stroke="black" points="370,-164.5 370,-183.5 510,-183.5 510,-164.5 370,-164.5"/>
<text text-anchor="middle" x="440" y="-171.5" font-family="Helvetica,sans-Serif" font-size="10.00">servio::position_interface</text>
</a>
</g>
</g>
<!-- Node3&#45;&gt;Node16 -->
<g id="edge12" class="edge">
<title>Node3&#45;&gt;Node16</title>
<path fill="none" stroke="midnightblue" d="M260.5,-112.14C285.83,-124.72 324.71,-142.95 360,-155 370.55,-158.6 382.11,-161.79 393.05,-164.47"/>
<polygon fill="midnightblue" stroke="midnightblue" points="262,-108.98 251.49,-107.62 258.86,-115.23 262,-108.98"/>
</g>
<!-- Node17 -->
<g id="node11" class="node">
<title>Node17</title>
<g id="a_node11"><a xlink:href="classservio_1_1vcc__interface.html" target="_top" xlink:title=" ">
<polygon fill="white" stroke="black" points="381,-126.5 381,-145.5 499,-145.5 499,-126.5 381,-126.5"/>
<text text-anchor="middle" x="440" y="-133.5" font-family="Helvetica,sans-Serif" font-size="10.00">servio::vcc_interface</text>
</a>
</g>
</g>
<!-- Node3&#45;&gt;Node17 -->
<g id="edge15" class="edge">
<title>Node3&#45;&gt;Node17</title>
<path fill="none" stroke="midnightblue" d="M294.9,-109.42C324.37,-114.86 359.22,-121.28 387.26,-126.46"/>
<polygon fill="midnightblue" stroke="midnightblue" points="295.19,-105.91 284.72,-107.54 293.92,-112.8 295.19,-105.91"/>
</g>
<!-- Node18 -->
<g id="node12" class="node">
<title>Node18</title>
<g id="a_node12"><a xlink:href="classservio_1_1current__interface.html" target="_top" xlink:title=" ">
<polygon fill="white" stroke="black" points="372,-88.5 372,-107.5 508,-107.5 508,-88.5 372,-88.5"/>
<text text-anchor="middle" x="440" y="-95.5" font-family="Helvetica,sans-Serif" font-size="10.00">servio::current_interface</text>
</a>
</g>
</g>
<!-- Node3&#45;&gt;Node18 -->
<g id="edge18" class="edge">
<title>Node3&#45;&gt;Node18</title>
<path fill="none" stroke="midnightblue" d="M307.24,-98C328.32,-98 351.14,-98 371.78,-98"/>
<polygon fill="midnightblue" stroke="midnightblue" points="307.05,-94.5 297.05,-98 307.05,-101.5 307.05,-94.5"/>
</g>
<!-- Node4 -->
<g id="node4" class="node">
<title>Node4</title>
<g id="a_node4"><a xlink:href="structservio_1_1cfg_1_1dispatcher.html" target="_top" xlink:title=" ">
<polygon fill="white" stroke="black" points="377.5,-249.5 377.5,-268.5 502.5,-268.5 502.5,-249.5 377.5,-249.5"/>
<text text-anchor="middle" x="440" y="-256.5" font-family="Helvetica,sans-Serif" font-size="10.00">servio::cfg::dispatcher</text>
</a>
</g>
</g>
<!-- Node4&#45;&gt;Node1 -->
<g id="edge3" class="edge">
<title>Node4&#45;&gt;Node1</title>
<path fill="none" stroke="#9a32cd" stroke-dasharray="5,2" d="M512.64,-248.48C537.17,-243.44 564.36,-236.2 588,-226 613.47,-215.01 639.48,-195.31 653.8,-183.57"/>
<polygon fill="#9a32cd" stroke="#9a32cd" points="511.81,-245.08 502.68,-250.44 513.17,-251.94 511.81,-245.08"/>
<text text-anchor="middle" x="563" y="-245" font-family="Helvetica,sans-Serif" font-size="10.00"> cfg_disp</text>
</g>
<!-- Node5 -->
<g id="node5" class="node">
<title>Node5</title>
<g id="a_node5"><a xlink:href="structservio_1_1core.html" target="_top" xlink:title=" ">
<polygon fill="white" stroke="red" points="195,-255.5 195,-274.5 269,-274.5 269,-255.5 195,-255.5"/>
<text text-anchor="middle" x="232" y="-262.5" font-family="Helvetica,sans-Serif" font-size="10.00">servio::core</text>
</a>
</g>
</g>
<!-- Node5&#45;&gt;Node4 -->
<g id="edge4" class="edge">
<title>Node5&#45;&gt;Node4</title>
<path fill="none" stroke="#9a32cd" stroke-dasharray="5,2" d="M279.57,-263.64C308.44,-262.8 345.85,-261.71 377.17,-260.8"/>
<polygon fill="#9a32cd" stroke="#9a32cd" points="279.25,-260.15 269.35,-263.94 279.45,-267.15 279.25,-260.15"/>
<text text-anchor="middle" x="328.5" y="-266" font-family="Helvetica,sans-Serif" font-size="10.00"> c</text>
</g>
<!-- Node6 -->
<g id="node6" class="node">
<title>Node6</title>
<g id="a_node6"><a xlink:href="structservio_1_1converter.html" target="_top" xlink:title=" ">
<polygon fill="white" stroke="red" points="2.5,-278.5 2.5,-297.5 101.5,-297.5 101.5,-278.5 2.5,-278.5"/>
<text text-anchor="middle" x="52" y="-285.5" font-family="Helvetica,sans-Serif" font-size="10.00">servio::converter</text>
</a>
</g>
</g>
<!-- Node6&#45;&gt;Node1 -->
<g id="edge10" class="edge">
<title>Node6&#45;&gt;Node1</title>
<path fill="none" stroke="#9a32cd" stroke-dasharray="5,2" d="M111.67,-292.17C200.67,-297.29 374.82,-302.51 520,-278 551.19,-272.73 561.22,-273.83 588,-257 619.62,-237.12 646.72,-201.03 658.59,-183.74"/>
<polygon fill="#9a32cd" stroke="#9a32cd" points="111.69,-288.67 101.5,-291.57 111.28,-295.66 111.69,-288.67"/>
<text text-anchor="middle" x="328.5" y="-299" font-family="Helvetica,sans-Serif" font-size="10.00"> conv</text>
</g>
<!-- Node6&#45;&gt;Node5 -->
<g id="edge5" class="edge">
<title>Node6&#45;&gt;Node5</title>
<path fill="none" stroke="#9a32cd" stroke-dasharray="5,2" d="M111.91,-280.39C139.31,-276.85 171.03,-272.75 194.85,-269.67"/>
<polygon fill="#9a32cd" stroke="#9a32cd" points="111.11,-276.96 101.64,-281.72 112.01,-283.9 111.11,-276.96"/>
<text text-anchor="middle" x="135.5" y="-282" font-family="Helvetica,sans-Serif" font-size="10.00"> conv</text>
</g>
<!-- Node12 -->
<g id="node7" class="node">
<title>Node12</title>
<g id="a_node7"><a xlink:href="classservio_1_1ctl_1_1control.html" target="_top" xlink:title=" ">
<polygon fill="white" stroke="black" points="0,-341.5 0,-360.5 104,-360.5 104,-341.5 0,-341.5"/>
<text text-anchor="middle" x="52" y="-348.5" font-family="Helvetica,sans-Serif" font-size="10.00">servio::ctl::control</text>
</a>
</g>
</g>
<!-- Node12&#45;&gt;Node1 -->
<g id="edge13" class="edge">
<title>Node12&#45;&gt;Node1</title>
<path fill="none" stroke="#9a32cd" stroke-dasharray="5,2" d="M114.23,-360.18C221.01,-372.75 443.62,-383.32 588,-281 625.16,-254.67 651.08,-204.62 660.77,-183.64"/>
<polygon fill="#9a32cd" stroke="#9a32cd" points="114.62,-356.7 104.27,-358.96 113.77,-363.65 114.62,-356.7"/>
<text text-anchor="middle" x="328.5" y="-368" font-family="Helvetica,sans-Serif" font-size="10.00"> ctl</text>
</g>
<!-- Node12&#45;&gt;Node5 -->
<g id="edge6" class="edge">
<title>Node12&#45;&gt;Node5</title>
<path fill="none" stroke="#9a32cd" stroke-dasharray="5,2" d="M81.83,-337.07C118.18,-319.51 179.72,-289.78 211.18,-274.57"/>
<polygon fill="#9a32cd" stroke="#9a32cd" points="80.21,-333.97 72.73,-341.47 83.26,-340.27 80.21,-333.97"/>
<text text-anchor="middle" x="135.5" y="-319" font-family="Helvetica,sans-Serif" font-size="10.00"> ctl</text>
</g>
<!-- Node14 -->
<g id="node8" class="node">
<title>Node14</title>
<g id="a_node8"><a xlink:href="classservio_1_1metrics.html" target="_top" xlink:title=" ">
<polygon fill="white" stroke="black" points="7.5,-226.5 7.5,-245.5 96.5,-245.5 96.5,-226.5 7.5,-226.5"/>
<text text-anchor="middle" x="52" y="-233.5" font-family="Helvetica,sans-Serif" font-size="10.00">servio::metrics</text>
</a>
</g>
</g>
<!-- Node14&#45;&gt;Node1 -->
<g id="edge16" class="edge">
<title>Node14&#45;&gt;Node1</title>
<path fill="none" stroke="#9a32cd" stroke-dasharray="5,2" d="M106.62,-233.15C203.22,-227.61 412.73,-213.7 588,-189 598.52,-187.52 609.78,-185.55 620.35,-183.52"/>
<polygon fill="#9a32cd" stroke="#9a32cd" points="106.3,-229.67 96.52,-233.73 106.7,-236.66 106.3,-229.67"/>
<text text-anchor="middle" x="328.5" y="-222" font-family="Helvetica,sans-Serif" font-size="10.00"> met</text>
</g>
<!-- Node14&#45;&gt;Node5 -->
<g id="edge7" class="edge">
<title>Node14&#45;&gt;Node5</title>
<path fill="none" stroke="#9a32cd" stroke-dasharray="5,2" d="M106.75,-244.76C135.24,-249.4 169.48,-254.98 194.8,-259.1"/>
<polygon fill="#9a32cd" stroke="#9a32cd" points="106.98,-241.25 96.54,-243.09 105.85,-248.16 106.98,-241.25"/>
<text text-anchor="middle" x="135.5" y="-255" font-family="Helvetica,sans-Serif" font-size="10.00"> met</text>
</g>
<!-- Node15&#45;&gt;Node1 -->
<g id="edge8" class="edge">
<title>Node15&#45;&gt;Node1</title>
<path fill="none" stroke="#9a32cd" stroke-dasharray="5,2" d="M499.37,-22.29C528.67,-30.85 563.13,-44.82 588,-67 621.65,-97.01 649.11,-144.2 659.98,-164.35"/>
<polygon fill="#9a32cd" stroke="#9a32cd" points="500.22,-18.89 489.65,-19.59 498.35,-25.64 500.22,-18.89"/>
<text text-anchor="middle" x="563" y="-70" font-family="Helvetica,sans-Serif" font-size="10.00"> motor</text>
</g>
<!-- Node16&#45;&gt;Node1 -->
<g id="edge11" class="edge">
<title>Node16&#45;&gt;Node1</title>
<path fill="none" stroke="#9a32cd" stroke-dasharray="5,2" d="M520.24,-174C548.35,-174 579.48,-174 605.65,-174"/>
<polygon fill="#9a32cd" stroke="#9a32cd" points="520.04,-170.5 510.04,-174 520.04,-177.5 520.04,-170.5"/>
<text text-anchor="middle" x="563" y="-177" font-family="Helvetica,sans-Serif" font-size="10.00"> pos_drv</text>
</g>
<!-- Node17&#45;&gt;Node1 -->
<g id="edge14" class="edge">
<title>Node17&#45;&gt;Node1</title>
<path fill="none" stroke="#9a32cd" stroke-dasharray="5,2" d="M509.1,-146.11C533.96,-149.95 562.28,-154.49 588,-159 597.52,-160.67 607.69,-162.57 617.4,-164.44"/>
<polygon fill="#9a32cd" stroke="#9a32cd" points="509.45,-142.63 499.03,-144.57 508.38,-149.55 509.45,-142.63"/>
<text text-anchor="middle" x="563" y="-162" font-family="Helvetica,sans-Serif" font-size="10.00"> vcc_drv</text>
</g>
<!-- Node18&#45;&gt;Node1 -->
<g id="edge17" class="edge">
<title>Node18&#45;&gt;Node1</title>
<path fill="none" stroke="#9a32cd" stroke-dasharray="5,2" d="M498.71,-109.75C526.2,-116.14 559.28,-125.01 588,-136 609.3,-144.15 632.65,-156.13 647.98,-164.45"/>
<polygon fill="#9a32cd" stroke="#9a32cd" points="499.38,-106.31 488.85,-107.51 497.82,-113.14 499.38,-106.31"/>
<text text-anchor="middle" x="563" y="-139" font-family="Helvetica,sans-Serif" font-size="10.00"> curr_drv</text>
</g>
</g>
</svg>
