<?xml version="1.0" encoding="UTF-8" standalone="no"?>
<!DOCTYPE svg PUBLIC "-//W3C//DTD SVG 1.1//EN"
 "http://www.w3.org/Graphics/SVG/1.1/DTD/svg11.dtd">
<!-- Generated by graphviz version 2.43.0 (0)
 -->
<!-- Title: servio::ftest::utest&lt; T &gt; Pages: 1 -->
<svg width="242pt" height="152pt"
 viewBox="0.00 0.00 242.00 152.00" xmlns="http://www.w3.org/2000/svg" xmlns:xlink="http://www.w3.org/1999/xlink">
<g id="graph0" class="graph" transform="scale(1 1) rotate(0) translate(4 148)">
<title>servio::ftest::utest&lt; T &gt;</title>
<polygon fill="white" stroke="transparent" points="-4,4 -4,-148 238,-148 238,4 -4,4"/>
<!-- Node1 -->
<g id="node1" class="node">
<title>Node1</title>
<g id="a_node1"><a xlink:title=" ">
<polygon fill="#bfbfbf" stroke="black" points="43,-0.5 43,-19.5 177,-19.5 177,-0.5 43,-0.5"/>
<text text-anchor="middle" x="110" y="-7.5" font-family="Helvetica,sans-Serif" font-size="10.00">servio::ftest::utest&lt; T &gt;</text>
</a>
</g>
</g>
<!-- Node2 -->
<g id="node2" class="node">
<title>Node2</title>
<g id="a_node2"><a xlink:href="structservio_1_1ftest_1_1utest__base.html" target="_top" xlink:title=" ">
<polygon fill="white" stroke="black" points="43,-57.5 43,-76.5 177,-76.5 177,-57.5 43,-57.5"/>
<text text-anchor="middle" x="110" y="-64.5" font-family="Helvetica,sans-Serif" font-size="10.00">servio::ftest::utest_base</text>
</a>
</g>
</g>
<!-- Node2&#45;&gt;Node1 -->
<g id="edge1" class="edge">
<title>Node2&#45;&gt;Node1</title>
<path fill="none" stroke="midnightblue" d="M110,-47.12C110,-37.82 110,-27.06 110,-19.71"/>
<polygon fill="midnightblue" stroke="midnightblue" points="106.5,-47.41 110,-57.41 113.5,-47.41 106.5,-47.41"/>
</g>
<!-- Node3 -->
<g id="node3" class="node">
<title>Node3</title>
<g id="a_node3"><a xlink:title=" ">
<polygon fill="white" stroke="#bfbfbf" points="0,-124.5 0,-143.5 94,-143.5 94,-124.5 0,-124.5"/>
<text text-anchor="middle" x="47" y="-131.5" font-family="Helvetica,sans-Serif" font-size="10.00">t::test_interface</text>
</a>
</g>
</g>
<!-- Node3&#45;&gt;Node2 -->
<g id="edge2" class="edge">
<title>Node3&#45;&gt;Node2</title>
<path fill="none" stroke="midnightblue" d="M62.51,-117C74.87,-104.25 91.69,-86.89 101.64,-76.63"/>
<polygon fill="midnightblue" stroke="midnightblue" points="59.94,-114.62 55.5,-124.23 64.97,-119.49 59.94,-114.62"/>
</g>
<!-- Node4 -->
<g id="node4" class="node">
<title>Node4</title>
<g id="a_node4"><a xlink:href="structservio_1_1ftest_1_1collector.html" target="_top" xlink:title=" ">
<polygon fill="white" stroke="black" points="112,-124.5 112,-143.5 234,-143.5 234,-124.5 112,-124.5"/>
<text text-anchor="middle" x="173" y="-131.5" font-family="Helvetica,sans-Serif" font-size="10.00">servio::ftest::collector</text>
</a>
</g>
</g>
<!-- Node4&#45;&gt;Node2 -->
<g id="edge3" class="edge">
<title>Node4&#45;&gt;Node2</title>
<path fill="none" stroke="#9a32cd" stroke-dasharray="5,2" d="M157.49,-117C145.13,-104.25 128.31,-86.89 118.36,-76.63"/>
<polygon fill="#9a32cd" stroke="#9a32cd" points="155.03,-119.49 164.5,-124.23 160.06,-114.62 155.03,-119.49"/>
<text text-anchor="middle" x="155.5" y="-98" font-family="Helvetica,sans-Serif" font-size="10.00"> coll</text>
</g>
</g>
</svg>
