<?xml version="1.0" encoding="UTF-8" standalone="no"?>
<!DOCTYPE svg PUBLIC "-//W3C//DTD SVG 1.1//EN"
 "http://www.w3.org/Graphics/SVG/1.1/DTD/svg11.dtd">
<!-- Generated by graphviz version 2.43.0 (0)
 -->
<!-- Title: fw::standard_callbacks Pages: 1 -->
<svg width="258pt" height="163pt"
 viewBox="0.00 0.00 257.50 163.00" xmlns="http://www.w3.org/2000/svg" xmlns:xlink="http://www.w3.org/1999/xlink">
<g id="graph0" class="graph" transform="scale(1 1) rotate(0) translate(4 159)">
<title>fw::standard_callbacks</title>
<polygon fill="white" stroke="transparent" points="-4,4 -4,-159 253.5,-159 253.5,4 -4,4"/>
<!-- Node1 -->
<g id="node1" class="node">
<title>Node1</title>
<g id="a_node1"><a xlink:title=" ">
<polygon fill="#bfbfbf" stroke="black" points="62.5,-0.5 62.5,-19.5 189.5,-19.5 189.5,-0.5 62.5,-0.5"/>
<text text-anchor="middle" x="126" y="-7.5" font-family="Helvetica,sans-Serif" font-size="10.00">fw::standard_callbacks</text>
</a>
</g>
</g>
<!-- Node2 -->
<g id="node2" class="node">
<title>Node2</title>
<g id="a_node2"><a xlink:href="classfw_1_1position__callback.html" target="_top" xlink:title=" ">
<polygon fill="white" stroke="black" points="0,-67.5 0,-86.5 118,-86.5 118,-67.5 0,-67.5"/>
<text text-anchor="middle" x="59" y="-74.5" font-family="Helvetica,sans-Serif" font-size="10.00">fw::position_callback</text>
</a>
</g>
</g>
<!-- Node2&#45;&gt;Node1 -->
<g id="edge1" class="edge">
<title>Node2&#45;&gt;Node1</title>
<path fill="none" stroke="#9a32cd" stroke-dasharray="5,2" d="M75.5,-60C88.64,-47.25 106.52,-29.89 117.11,-19.63"/>
<polygon fill="#9a32cd" stroke="#9a32cd" points="72.78,-57.76 68.04,-67.23 77.65,-62.78 72.78,-57.76"/>
<text text-anchor="middle" x="115.5" y="-41" font-family="Helvetica,sans-Serif" font-size="10.00"> pos_cb</text>
</g>
<!-- Node3 -->
<g id="node3" class="node">
<title>Node3</title>
<g id="a_node3"><a xlink:href="classfw_1_1drv_1_1position__cb__interface.html" target="_top" xlink:title=" ">
<polygon fill="white" stroke="black" points="4,-124.5 4,-154.5 114,-154.5 114,-124.5 4,-124.5"/>
<text text-anchor="start" x="12" y="-142.5" font-family="Helvetica,sans-Serif" font-size="10.00">fw::drv::position_cb</text>
<text text-anchor="middle" x="59" y="-131.5" font-family="Helvetica,sans-Serif" font-size="10.00">_interface</text>
</a>
</g>
</g>
<!-- Node3&#45;&gt;Node2 -->
<g id="edge2" class="edge">
<title>Node3&#45;&gt;Node2</title>
<path fill="none" stroke="midnightblue" d="M59,-114.35C59,-104.51 59,-93.78 59,-86.54"/>
<polygon fill="midnightblue" stroke="midnightblue" points="55.5,-114.47 59,-124.47 62.5,-114.47 55.5,-114.47"/>
</g>
<!-- Node4 -->
<g id="node4" class="node">
<title>Node4</title>
<g id="a_node4"><a xlink:href="classfw_1_1current__callback.html" target="_top" xlink:title=" ">
<polygon fill="white" stroke="black" points="136.5,-67.5 136.5,-86.5 249.5,-86.5 249.5,-67.5 136.5,-67.5"/>
<text text-anchor="middle" x="193" y="-74.5" font-family="Helvetica,sans-Serif" font-size="10.00">fw::current_callback</text>
</a>
</g>
</g>
<!-- Node4&#45;&gt;Node1 -->
<g id="edge3" class="edge">
<title>Node4&#45;&gt;Node1</title>
<path fill="none" stroke="#9a32cd" stroke-dasharray="5,2" d="M176.5,-60C163.36,-47.25 145.48,-29.89 134.89,-19.63"/>
<polygon fill="#9a32cd" stroke="#9a32cd" points="174.35,-62.78 183.96,-67.23 179.22,-57.76 174.35,-62.78"/>
<text text-anchor="middle" x="191.5" y="-41" font-family="Helvetica,sans-Serif" font-size="10.00"> current_cb</text>
</g>
<!-- Node5 -->
<g id="node5" class="node">
<title>Node5</title>
<g id="a_node5"><a xlink:href="classfw_1_1drv_1_1current__cb__interface.html" target="_top" xlink:title=" ">
<polygon fill="white" stroke="black" points="140.5,-124.5 140.5,-154.5 245.5,-154.5 245.5,-124.5 140.5,-124.5"/>
<text text-anchor="start" x="148.5" y="-142.5" font-family="Helvetica,sans-Serif" font-size="10.00">fw::drv::current_cb</text>
<text text-anchor="middle" x="193" y="-131.5" font-family="Helvetica,sans-Serif" font-size="10.00">_interface</text>
</a>
</g>
</g>
<!-- Node5&#45;&gt;Node4 -->
<g id="edge4" class="edge">
<title>Node5&#45;&gt;Node4</title>
<path fill="none" stroke="midnightblue" d="M193,-114.35C193,-104.51 193,-93.78 193,-86.54"/>
<polygon fill="midnightblue" stroke="midnightblue" points="189.5,-114.47 193,-124.47 196.5,-114.47 189.5,-114.47"/>
</g>
</g>
</svg>
