<?xml version="1.0" encoding="UTF-8" standalone="no"?>
<!DOCTYPE svg PUBLIC "-//W3C//DTD SVG 1.1//EN"
 "http://www.w3.org/Graphics/SVG/1.1/DTD/svg11.dtd">
<!-- Generated by graphviz version 2.43.0 (0)
 -->
<!-- Title: servio::scmdio::stream_iface Pages: 1 -->
<svg width="272pt" height="104pt"
 viewBox="0.00 0.00 272.00 104.00" xmlns="http://www.w3.org/2000/svg" xmlns:xlink="http://www.w3.org/1999/xlink">
<g id="graph0" class="graph" transform="scale(1 1) rotate(0) translate(4 100)">
<title>servio::scmdio::stream_iface</title>
<!-- Node1 -->
<g id="Node000001" class="node">
<title>Node1</title>
<g id="a_Node000001"><a xlink:title=" ">
<polygon fill="#999999" stroke="#666666" points="194.5,-96 66.5,-96 66.5,-66 194.5,-66 194.5,-96"/>
<text text-anchor="start" x="74.5" y="-84" font-family="Helvetica,sans-Serif" font-size="10.00">servio::scmdio::stream</text>
<text text-anchor="middle" x="130.5" y="-73" font-family="Helvetica,sans-Serif" font-size="10.00">_iface</text>
</a>
</g>
</g>
<!-- Node2 -->
<g id="Node000002" class="node">
<title>Node2</title>
<g id="a_Node000002"><a xlink:href="structservio_1_1scmdio_1_1serial__stream.html" target="_top" xlink:title=" ">
<polygon fill="white" stroke="#666666" points="121,-30 0,-30 0,0 121,0 121,-30"/>
<text text-anchor="start" x="8" y="-18" font-family="Helvetica,sans-Serif" font-size="10.00">servio::scmdio::serial</text>
<text text-anchor="middle" x="60.5" y="-7" font-family="Helvetica,sans-Serif" font-size="10.00">_stream</text>
</a>
</g>
</g>
<!-- Node1&#45;&gt;Node2 -->
<g id="edge1_Node000001_Node000002" class="edge">
<title>Node1&#45;&gt;Node2</title>
<g id="a_edge1_Node000001_Node000002"><a xlink:title=" ">
<path fill="none" stroke="#63b8ff" d="M107.45,-58.92C97.13,-49.49 85.23,-38.61 75.99,-30.16"/>
<polygon fill="#63b8ff" stroke="#63b8ff" points="105.22,-61.63 114.96,-65.8 109.95,-56.47 105.22,-61.63"/>
</a>
</g>
</g>
<!-- Node3 -->
<g id="Node000003" class="node">
<title>Node3</title>
<g id="a_Node000003"><a xlink:href="structservio_1_1scmdio_1_1stm32__bootloader__mock.html" target="_top" xlink:title=" ">
<polygon fill="white" stroke="#666666" points="264,-30 139,-30 139,0 264,0 264,-30"/>
<text text-anchor="start" x="147" y="-18" font-family="Helvetica,sans-Serif" font-size="10.00">servio::scmdio::stm32</text>
<text text-anchor="middle" x="201.5" y="-7" font-family="Helvetica,sans-Serif" font-size="10.00">_bootloader_mock</text>
</a>
</g>
</g>
<!-- Node1&#45;&gt;Node3 -->
<g id="edge2_Node000001_Node000003" class="edge">
<title>Node1&#45;&gt;Node3</title>
<g id="a_edge2_Node000001_Node000003"><a xlink:title=" ">
<path fill="none" stroke="#63b8ff" d="M153.88,-58.92C164.35,-49.49 176.42,-38.61 185.79,-30.16"/>
<polygon fill="#63b8ff" stroke="#63b8ff" points="151.34,-56.5 146.26,-65.8 156.03,-61.7 151.34,-56.5"/>
</a>
</g>
</g>
</g>
</svg>
