<?xml version="1.0" encoding="UTF-8" standalone="no"?>
<!DOCTYPE svg PUBLIC "-//W3C//DTD SVG 1.1//EN"
 "http://www.w3.org/Graphics/SVG/1.1/DTD/svg11.dtd">
<!-- Generated by graphviz version 2.43.0 (0)
 -->
<!-- Title: standard_callbacks Pages: 1 -->
<svg width="264pt" height="152pt"
 viewBox="0.00 0.00 263.50 152.00" xmlns="http://www.w3.org/2000/svg" xmlns:xlink="http://www.w3.org/1999/xlink">
<g id="graph0" class="graph" transform="scale(1 1) rotate(0) translate(4 148)">
<title>standard_callbacks</title>
<polygon fill="white" stroke="transparent" points="-4,4 -4,-148 259.5,-148 259.5,4 -4,4"/>
<!-- Node1 -->
<g id="node1" class="node">
<title>Node1</title>
<g id="a_node1"><a xlink:title=" ">
<polygon fill="#bfbfbf" stroke="black" points="68.5,-0.5 68.5,-19.5 178.5,-19.5 178.5,-0.5 68.5,-0.5"/>
<text text-anchor="middle" x="123.5" y="-7.5" font-family="Helvetica,sans-Serif" font-size="10.00">standard_callbacks</text>
</a>
</g>
</g>
<!-- Node2 -->
<g id="node2" class="node">
<title>Node2</title>
<g id="a_node2"><a xlink:href="classposition__callback.html" target="_top" xlink:title=" ">
<polygon fill="white" stroke="black" points="15,-67.5 15,-86.5 116,-86.5 116,-67.5 15,-67.5"/>
<text text-anchor="middle" x="65.5" y="-74.5" font-family="Helvetica,sans-Serif" font-size="10.00">position_callback</text>
</a>
</g>
</g>
<!-- Node2&#45;&gt;Node1 -->
<g id="edge1" class="edge">
<title>Node2&#45;&gt;Node1</title>
<path fill="none" stroke="#9a32cd" stroke-dasharray="5,2" d="M80.1,-59.63C91.45,-46.92 106.73,-29.8 115.8,-19.63"/>
<polygon fill="#9a32cd" stroke="#9a32cd" points="77.37,-57.44 73.32,-67.23 82.59,-62.1 77.37,-57.44"/>
<text text-anchor="middle" x="117" y="-41" font-family="Helvetica,sans-Serif" font-size="10.00"> pos_cb</text>
</g>
<!-- Node3 -->
<g id="node3" class="node">
<title>Node3</title>
<g id="a_node3"><a xlink:href="classvalue__cb__interface.html" target="_top" xlink:title=" ">
<polygon fill="white" stroke="black" points="0,-124.5 0,-143.5 121,-143.5 121,-124.5 0,-124.5"/>
<text text-anchor="middle" x="60.5" y="-131.5" font-family="Helvetica,sans-Serif" font-size="10.00">position_cb_interface</text>
</a>
</g>
</g>
<!-- Node3&#45;&gt;Node2 -->
<g id="edge2" class="edge">
<title>Node3&#45;&gt;Node2</title>
<path fill="none" stroke="midnightblue" d="M62.19,-114.42C63.04,-105.05 64.03,-94.14 64.71,-86.71"/>
<polygon fill="midnightblue" stroke="midnightblue" points="58.7,-114.13 61.28,-124.41 65.67,-114.76 58.7,-114.13"/>
</g>
<!-- Node4 -->
<g id="node4" class="node">
<title>Node4</title>
<g id="a_node4"><a xlink:href="classcurrent__callback.html" target="_top" xlink:title=" ">
<polygon fill="white" stroke="black" points="144,-67.5 144,-86.5 241,-86.5 241,-67.5 144,-67.5"/>
<text text-anchor="middle" x="192.5" y="-74.5" font-family="Helvetica,sans-Serif" font-size="10.00">current_callback</text>
</a>
</g>
</g>
<!-- Node4&#45;&gt;Node1 -->
<g id="edge3" class="edge">
<title>Node4&#45;&gt;Node1</title>
<path fill="none" stroke="#9a32cd" stroke-dasharray="5,2" d="M175.89,-60.36C162.33,-47.58 143.66,-29.99 132.66,-19.63"/>
<polygon fill="#9a32cd" stroke="#9a32cd" points="173.52,-62.92 183.19,-67.23 178.32,-57.83 173.52,-62.92"/>
<text text-anchor="middle" x="190" y="-41" font-family="Helvetica,sans-Serif" font-size="10.00"> current_cb</text>
</g>
<!-- Node5 -->
<g id="node5" class="node">
<title>Node5</title>
<g id="a_node5"><a xlink:href="classadc__detailed__cb__interface.html" target="_top" xlink:title=" ">
<polygon fill="white" stroke="black" points="139.5,-124.5 139.5,-143.5 255.5,-143.5 255.5,-124.5 139.5,-124.5"/>
<text text-anchor="middle" x="197.5" y="-131.5" font-family="Helvetica,sans-Serif" font-size="10.00">current_cb_interface</text>
</a>
</g>
</g>
<!-- Node5&#45;&gt;Node4 -->
<g id="edge4" class="edge">
<title>Node5&#45;&gt;Node4</title>
<path fill="none" stroke="midnightblue" d="M195.81,-114.42C194.96,-105.05 193.97,-94.14 193.29,-86.71"/>
<polygon fill="midnightblue" stroke="midnightblue" points="192.33,-114.76 196.72,-124.41 199.3,-114.13 192.33,-114.76"/>
</g>
</g>
</svg>
