<?xml version="1.0" encoding="UTF-8" standalone="no"?>
<!DOCTYPE svg PUBLIC "-//W3C//DTD SVG 1.1//EN"
 "http://www.w3.org/Graphics/SVG/1.1/DTD/svg11.dtd">
<!-- Generated by graphviz version 2.43.0 (0)
 -->
<!-- Title: servio::gov::governor_factory Pages: 1 -->
<svg width="174pt" height="159pt"
 viewBox="0.00 0.00 174.00 159.00" xmlns="http://www.w3.org/2000/svg" xmlns:xlink="http://www.w3.org/1999/xlink">
<g id="graph0" class="graph" transform="scale(1 1) rotate(0) translate(4 155)">
<title>servio::gov::governor_factory</title>
<!-- Node1 -->
<g id="Node000001" class="node">
<title>Node1</title>
<g id="a_Node000001"><a xlink:title=" ">
<polygon fill="#999999" stroke="#666666" points="142.5,-85 23.5,-85 23.5,-55 142.5,-55 142.5,-85"/>
<text text-anchor="start" x="31.5" y="-73" font-family="Helvetica,sans-Serif" font-size="10.00">servio::gov::governor</text>
<text text-anchor="middle" x="83" y="-62" font-family="Helvetica,sans-Serif" font-size="10.00">_factory</text>
</a>
</g>
</g>
<!-- Node3 -->
<g id="Node000003" class="node">
<title>Node3</title>
<g id="a_Node000003"><a xlink:href="structservio_1_1gov_1_1auto__factory.html" target="_top" xlink:title=" ">
<polygon fill="white" stroke="#666666" points="166,-19 0,-19 0,0 166,0 166,-19"/>
<text text-anchor="middle" x="83" y="-7" font-family="Helvetica,sans-Serif" font-size="10.00">servio::gov::auto_factory&lt; T &gt;</text>
</a>
</g>
</g>
<!-- Node1&#45;&gt;Node3 -->
<g id="edge2_Node000001_Node000003" class="edge">
<title>Node1&#45;&gt;Node3</title>
<g id="a_edge2_Node000001_Node000003"><a xlink:title=" ">
<path fill="none" stroke="#63b8ff" d="M83,-44.75C83,-35.72 83,-26.03 83,-19.27"/>
<polygon fill="#63b8ff" stroke="#63b8ff" points="79.5,-44.84 83,-54.84 86.5,-44.84 79.5,-44.84"/>
</a>
</g>
</g>
<!-- Node2 -->
<g id="Node000002" class="node">
<title>Node2</title>
<g id="a_Node000002"><a xlink:title=" ">
<polygon fill="white" stroke="#666666" points="144.5,-151 21.5,-151 21.5,-121 144.5,-121 144.5,-151"/>
<text text-anchor="start" x="29.5" y="-139" font-family="Helvetica,sans-Serif" font-size="10.00">zll::ll_base&lt; governor</text>
<text text-anchor="middle" x="83" y="-128" font-family="Helvetica,sans-Serif" font-size="10.00">_factory &gt;</text>
</a>
</g>
</g>
<!-- Node2&#45;&gt;Node1 -->
<g id="edge1_Node000001_Node000002" class="edge">
<title>Node2&#45;&gt;Node1</title>
<g id="a_edge1_Node000001_Node000002"><a xlink:title=" ">
<path fill="none" stroke="#63b8ff" d="M83,-110.54C83,-101.96 83,-92.61 83,-85.16"/>
<polygon fill="#63b8ff" stroke="#63b8ff" points="79.5,-110.8 83,-120.8 86.5,-110.8 79.5,-110.8"/>
</a>
</g>
</g>
</g>
</svg>
