<?xml version="1.0" encoding="UTF-8" standalone="no"?>
<!DOCTYPE svg PUBLIC "-//W3C//DTD SVG 1.1//EN"
 "http://www.w3.org/Graphics/SVG/1.1/DTD/svg11.dtd">
<!-- Generated by graphviz version 2.43.0 (0)
 -->
<!-- Title: fw::standard_callbacks Pages: 1 -->
<svg width="495pt" height="137pt"
 viewBox="0.00 0.00 495.00 137.00" xmlns="http://www.w3.org/2000/svg" xmlns:xlink="http://www.w3.org/1999/xlink">
<g id="graph0" class="graph" transform="scale(1 1) rotate(0) translate(4 133)">
<title>fw::standard_callbacks</title>
<polygon fill="white" stroke="transparent" points="-4,4 -4,-133 491,-133 491,4 -4,4"/>
<!-- Node1 -->
<g id="node1" class="node">
<title>Node1</title>
<g id="a_node1"><a xlink:title=" ">
<polygon fill="#bfbfbf" stroke="black" points="360,-55 360,-74 487,-74 487,-55 360,-55"/>
<text text-anchor="middle" x="423.5" y="-62" font-family="Helvetica,sans-Serif" font-size="10.00">fw::standard_callbacks</text>
</a>
</g>
</g>
<!-- Node2 -->
<g id="node2" class="node">
<title>Node2</title>
<g id="a_node2"><a xlink:href="classfw_1_1position__callback.html" target="_top" xlink:title=" ">
<polygon fill="white" stroke="black" points="149,-102 149,-121 267,-121 267,-102 149,-102"/>
<text text-anchor="middle" x="208" y="-109" font-family="Helvetica,sans-Serif" font-size="10.00">fw::position_callback</text>
</a>
</g>
</g>
<!-- Node2&#45;&gt;Node1 -->
<g id="edge1" class="edge">
<title>Node2&#45;&gt;Node1</title>
<path fill="none" stroke="#9a32cd" stroke-dasharray="5,2" d="M262.06,-99.82C298.09,-91.89 345.17,-81.52 378.99,-74.08"/>
<polygon fill="#9a32cd" stroke="#9a32cd" points="261.22,-96.42 252.2,-101.99 262.72,-103.26 261.22,-96.42"/>
<text text-anchor="middle" x="314.5" y="-96.5" font-family="Helvetica,sans-Serif" font-size="10.00"> pos_cb</text>
</g>
<!-- Node3 -->
<g id="node3" class="node">
<title>Node3</title>
<g id="a_node3"><a xlink:href="classfw_1_1drv_1_1position__cb__interface.html" target="_top" xlink:title=" ">
<polygon fill="white" stroke="black" points="0,-98.5 0,-128.5 110,-128.5 110,-98.5 0,-98.5"/>
<text text-anchor="start" x="8" y="-116.5" font-family="Helvetica,sans-Serif" font-size="10.00">fw::drv::position_cb</text>
<text text-anchor="middle" x="55" y="-105.5" font-family="Helvetica,sans-Serif" font-size="10.00">_interface</text>
</a>
</g>
</g>
<!-- Node3&#45;&gt;Node2 -->
<g id="edge2" class="edge">
<title>Node3&#45;&gt;Node2</title>
<path fill="none" stroke="midnightblue" d="M120.29,-112.65C129.81,-112.52 139.57,-112.39 148.95,-112.27"/>
<polygon fill="midnightblue" stroke="midnightblue" points="120.04,-109.15 110.09,-112.78 120.13,-116.15 120.04,-109.15"/>
</g>
<!-- Node4 -->
<g id="node4" class="node">
<title>Node4</title>
<g id="a_node4"><a xlink:href="classfw_1_1acquisition__period__callback.html" target="_top" xlink:title=" ">
<polygon fill="white" stroke="black" points="147,-49.5 147,-79.5 269,-79.5 269,-49.5 147,-49.5"/>
<text text-anchor="start" x="155" y="-67.5" font-family="Helvetica,sans-Serif" font-size="10.00">fw::acquisition_period</text>
<text text-anchor="middle" x="208" y="-56.5" font-family="Helvetica,sans-Serif" font-size="10.00">_callback</text>
</a>
</g>
</g>
<!-- Node4&#45;&gt;Node1 -->
<g id="edge3" class="edge">
<title>Node4&#45;&gt;Node1</title>
<path fill="none" stroke="#9a32cd" stroke-dasharray="5,2" d="M279.22,-64.5C305.27,-64.5 334.62,-64.5 359.94,-64.5"/>
<polygon fill="#9a32cd" stroke="#9a32cd" points="279.04,-61 269.04,-64.5 279.04,-68 279.04,-61"/>
<text text-anchor="middle" x="314.5" y="-67.5" font-family="Helvetica,sans-Serif" font-size="10.00"> period_cb</text>
</g>
<!-- Node5 -->
<g id="node5" class="node">
<title>Node5</title>
<g id="a_node5"><a xlink:href="classfw_1_1drv_1_1period__cb__interface.html" target="_top" xlink:title=" ">
<polygon fill="white" stroke="black" points="4.5,-49.5 4.5,-79.5 105.5,-79.5 105.5,-49.5 4.5,-49.5"/>
<text text-anchor="start" x="12.5" y="-67.5" font-family="Helvetica,sans-Serif" font-size="10.00">fw::drv::period_cb</text>
<text text-anchor="middle" x="55" y="-56.5" font-family="Helvetica,sans-Serif" font-size="10.00">_interface</text>
</a>
</g>
</g>
<!-- Node5&#45;&gt;Node4 -->
<g id="edge4" class="edge">
<title>Node5&#45;&gt;Node4</title>
<path fill="none" stroke="midnightblue" d="M115.91,-64.5C126.12,-64.5 136.73,-64.5 146.94,-64.5"/>
<polygon fill="midnightblue" stroke="midnightblue" points="115.86,-61 105.86,-64.5 115.86,-68 115.86,-61"/>
</g>
<!-- Node6 -->
<g id="node6" class="node">
<title>Node6</title>
<g id="a_node6"><a xlink:href="classfw_1_1current__callback.html" target="_top" xlink:title=" ">
<polygon fill="white" stroke="black" points="151.5,-9 151.5,-28 264.5,-28 264.5,-9 151.5,-9"/>
<text text-anchor="middle" x="208" y="-16" font-family="Helvetica,sans-Serif" font-size="10.00">fw::current_callback</text>
</a>
</g>
</g>
<!-- Node6&#45;&gt;Node1 -->
<g id="edge5" class="edge">
<title>Node6&#45;&gt;Node1</title>
<path fill="none" stroke="#9a32cd" stroke-dasharray="5,2" d="M263.46,-30.23C299.07,-37.91 344.98,-47.8 378.32,-54.98"/>
<polygon fill="#9a32cd" stroke="#9a32cd" points="263.75,-26.72 253.24,-28.03 262.28,-33.56 263.75,-26.72"/>
<text text-anchor="middle" x="314.5" y="-49.5" font-family="Helvetica,sans-Serif" font-size="10.00"> current_cb</text>
</g>
<!-- Node7 -->
<g id="node7" class="node">
<title>Node7</title>
<g id="a_node7"><a xlink:href="classfw_1_1drv_1_1current__cb__interface.html" target="_top" xlink:title=" ">
<polygon fill="white" stroke="black" points="2.5,-0.5 2.5,-30.5 107.5,-30.5 107.5,-0.5 2.5,-0.5"/>
<text text-anchor="start" x="10.5" y="-18.5" font-family="Helvetica,sans-Serif" font-size="10.00">fw::drv::current_cb</text>
<text text-anchor="middle" x="55" y="-7.5" font-family="Helvetica,sans-Serif" font-size="10.00">_interface</text>
</a>
</g>
</g>
<!-- Node7&#45;&gt;Node6 -->
<g id="edge6" class="edge">
<title>Node7&#45;&gt;Node6</title>
<path fill="none" stroke="midnightblue" d="M117.63,-16.72C128.77,-16.95 140.34,-17.18 151.3,-17.39"/>
<polygon fill="midnightblue" stroke="midnightblue" points="117.61,-13.22 107.54,-16.52 117.47,-20.22 117.61,-13.22"/>
</g>
</g>
</svg>
