<?xml version="1.0" encoding="UTF-8" standalone="no"?>
<!DOCTYPE svg PUBLIC "-//W3C//DTD SVG 1.1//EN"
 "http://www.w3.org/Graphics/SVG/1.1/DTD/svg11.dtd">
<!-- Generated by graphviz version 2.43.0 (0)
 -->
<!-- Title: servio::drv::detailed_cb_iface Pages: 1 -->
<svg width="271pt" height="134pt"
 viewBox="0.00 0.00 271.00 134.00" xmlns="http://www.w3.org/2000/svg" xmlns:xlink="http://www.w3.org/1999/xlink">
<g id="graph0" class="graph" transform="scale(1 1) rotate(0) translate(4 130)">
<title>servio::drv::detailed_cb_iface</title>
<!-- Node1 -->
<g id="Node000001" class="node">
<title>Node1</title>
<g id="a_Node000001"><a xlink:title=" ">
<polygon fill="#999999" stroke="#666666" points="113,-78 0,-78 0,-48 113,-48 113,-78"/>
<text text-anchor="start" x="8" y="-66" font-family="Helvetica,sans-Serif" font-size="10.00">servio::drv::detailed</text>
<text text-anchor="middle" x="56.5" y="-55" font-family="Helvetica,sans-Serif" font-size="10.00">_cb_iface</text>
</a>
</g>
</g>
<!-- Node2 -->
<g id="Node000002" class="node">
<title>Node2</title>
<g id="a_Node000002"><a xlink:href="classservio_1_1core_1_1current__callback.html" target="_top" xlink:title=" ">
<polygon fill="white" stroke="#666666" points="263,-126 149,-126 149,-96 263,-96 263,-126"/>
<text text-anchor="start" x="157" y="-114" font-family="Helvetica,sans-Serif" font-size="10.00">servio::core::current</text>
<text text-anchor="middle" x="206" y="-103" font-family="Helvetica,sans-Serif" font-size="10.00">_callback</text>
</a>
</g>
</g>
<!-- Node1&#45;&gt;Node2 -->
<g id="edge1_Node000001_Node000002" class="edge">
<title>Node1&#45;&gt;Node2</title>
<g id="a_edge1_Node000001_Node000002"><a xlink:title=" ">
<path fill="none" stroke="#63b8ff" d="M113.45,-81.21C128.45,-86.09 144.5,-91.31 158.9,-96"/>
<polygon fill="#63b8ff" stroke="#63b8ff" points="114.36,-77.82 103.77,-78.06 112.19,-84.48 114.36,-77.82"/>
</a>
</g>
</g>
<!-- Node3 -->
<g id="Node000003" class="node">
<title>Node3</title>
<g id="a_Node000003"><a xlink:href="structservio_1_1drv_1_1detailed__cb.html" target="_top" xlink:title=" ">
<polygon fill="white" stroke="#666666" points="262.5,-78 149.5,-78 149.5,-48 262.5,-48 262.5,-78"/>
<text text-anchor="start" x="157.5" y="-66" font-family="Helvetica,sans-Serif" font-size="10.00">servio::drv::detailed</text>
<text text-anchor="middle" x="206" y="-55" font-family="Helvetica,sans-Serif" font-size="10.00">_cb&lt; Callable &gt;</text>
</a>
</g>
</g>
<!-- Node1&#45;&gt;Node3 -->
<g id="edge2_Node000001_Node000003" class="edge">
<title>Node1&#45;&gt;Node3</title>
<g id="a_edge2_Node000001_Node000003"><a xlink:title=" ">
<path fill="none" stroke="#63b8ff" d="M123.3,-63C131.93,-63 140.71,-63 149.16,-63"/>
<polygon fill="#63b8ff" stroke="#63b8ff" points="123.26,-59.5 113.26,-63 123.26,-66.5 123.26,-59.5"/>
</a>
</g>
</g>
<!-- Node4 -->
<g id="Node000004" class="node">
<title>Node4</title>
<g id="a_Node000004"><a xlink:href="structservio_1_1drv_1_1empty__detailed__cb.html" target="_top" xlink:title=" ">
<polygon fill="white" stroke="#666666" points="258.5,-30 153.5,-30 153.5,0 258.5,0 258.5,-30"/>
<text text-anchor="start" x="161.5" y="-18" font-family="Helvetica,sans-Serif" font-size="10.00">servio::drv::empty</text>
<text text-anchor="middle" x="206" y="-7" font-family="Helvetica,sans-Serif" font-size="10.00">_detailed_cb</text>
</a>
</g>
</g>
<!-- Node1&#45;&gt;Node4 -->
<g id="edge3_Node000001_Node000004" class="edge">
<title>Node1&#45;&gt;Node4</title>
<g id="a_edge3_Node000001_Node000004"><a xlink:title=" ">
<path fill="none" stroke="#63b8ff" d="M113.45,-44.79C128.45,-39.91 144.5,-34.69 158.9,-30"/>
<polygon fill="#63b8ff" stroke="#63b8ff" points="112.19,-41.52 103.77,-47.94 114.36,-48.18 112.19,-41.52"/>
</a>
</g>
</g>
</g>
</svg>
