<?xml version="1.0" encoding="UTF-8" standalone="no"?>
<!DOCTYPE svg PUBLIC "-//W3C//DTD SVG 1.1//EN"
 "http://www.w3.org/Graphics/SVG/1.1/DTD/svg11.dtd">
<!-- Generated by graphviz version 2.43.0 (0)
 -->
<!-- Title: servio::drv::tests::period_iface_test Pages: 1 -->
<svg width="371pt" height="171pt"
 viewBox="0.00 0.00 370.50 171.00" xmlns="http://www.w3.org/2000/svg" xmlns:xlink="http://www.w3.org/1999/xlink">
<g id="graph0" class="graph" transform="scale(1 1) rotate(0) translate(4 167)">
<title>servio::drv::tests::period_iface_test</title>
<!-- Node1 -->
<g id="Node000001" class="node">
<title>Node1</title>
<g id="a_Node000001"><a xlink:title=" ">
<polygon fill="#999999" stroke="#666666" points="235,-30 128,-30 128,0 235,0 235,-30"/>
<text text-anchor="start" x="136" y="-18" font-family="Helvetica,sans-Serif" font-size="10.00">servio::drv::tests</text>
<text text-anchor="middle" x="181.5" y="-7" font-family="Helvetica,sans-Serif" font-size="10.00">::period_iface_test</text>
</a>
</g>
</g>
<!-- Node2 -->
<g id="Node000002" class="node">
<title>Node2</title>
<g id="a_Node000002"><a xlink:href="structservio_1_1ftest_1_1utest.html" target="_top" xlink:title=" ">
<polygon fill="white" stroke="#666666" points="105,-101.5 0,-101.5 0,-82.5 105,-82.5 105,-101.5"/>
<text text-anchor="middle" x="52.5" y="-89.5" font-family="Helvetica,sans-Serif" font-size="10.00">servio::ftest::utest</text>
</a>
</g>
</g>
<!-- Node2&#45;&gt;Node1 -->
<g id="edge1_Node000001_Node000002" class="edge">
<title>Node2&#45;&gt;Node1</title>
<g id="a_edge1_Node000001_Node000002"><a xlink:title=" ">
<path fill="none" stroke="#63b8ff" d="M76.08,-77.29C99.1,-63.91 133.97,-43.63 157.23,-30.11"/>
<polygon fill="#63b8ff" stroke="#63b8ff" points="74.18,-74.34 67.3,-82.4 77.7,-80.4 74.18,-74.34"/>
</a>
</g>
</g>
<!-- Node3 -->
<g id="Node000003" class="node">
<title>Node3</title>
<g id="a_Node000003"><a xlink:title=" ">
<polygon fill="white" stroke="#666666" points="95.5,-163 9.5,-163 9.5,-144 95.5,-144 95.5,-163"/>
<text text-anchor="middle" x="52.5" y="-151" font-family="Helvetica,sans-Serif" font-size="10.00">asrt::task_test</text>
</a>
</g>
</g>
<!-- Node3&#45;&gt;Node2 -->
<g id="edge2_Node000002_Node000003" class="edge">
<title>Node3&#45;&gt;Node2</title>
<g id="a_edge2_Node000002_Node000003"><a xlink:title=" ">
<path fill="none" stroke="#63b8ff" d="M52.5,-133.82C52.5,-123 52.5,-109.9 52.5,-101.51"/>
<polygon fill="#63b8ff" stroke="#63b8ff" points="49,-133.98 52.5,-143.98 56,-133.98 49,-133.98"/>
</a>
</g>
</g>
<!-- Node4 -->
<g id="Node000004" class="node">
<title>Node4</title>
<g id="a_Node000004"><a xlink:href="structservio_1_1drv_1_1clk__iface.html" target="_top" xlink:title=" ">
<polygon fill="white" stroke="#666666" points="240,-101.5 123,-101.5 123,-82.5 240,-82.5 240,-101.5"/>
<text text-anchor="middle" x="181.5" y="-89.5" font-family="Helvetica,sans-Serif" font-size="10.00">servio::drv::clk_iface</text>
</a>
</g>
</g>
<!-- Node4&#45;&gt;Node1 -->
<g id="edge3_Node000001_Node000004" class="edge">
<title>Node4&#45;&gt;Node1</title>
<g id="a_edge3_Node000001_Node000004"><a xlink:title=" ">
<path fill="none" stroke="#9a32cd" stroke-dasharray="5,2" d="M181.5,-72.2C181.5,-59.14 181.5,-42.01 181.5,-30.11"/>
<polygon fill="#9a32cd" stroke="#9a32cd" points="178,-72.4 181.5,-82.4 185,-72.4 178,-72.4"/>
</a>
</g>
<text text-anchor="middle" x="190.5" y="-51" font-family="Helvetica,sans-Serif" font-size="10.00" fill="grey"> clk</text>
</g>
<!-- Node5 -->
<g id="Node000005" class="node">
<title>Node5</title>
<g id="a_Node000005"><a xlink:href="structservio_1_1drv_1_1period__iface.html" target="_top" xlink:title=" ">
<polygon fill="white" stroke="#666666" points="362.5,-107 258.5,-107 258.5,-77 362.5,-77 362.5,-107"/>
<text text-anchor="start" x="266.5" y="-95" font-family="Helvetica,sans-Serif" font-size="10.00">servio::drv::period</text>
<text text-anchor="middle" x="310.5" y="-84" font-family="Helvetica,sans-Serif" font-size="10.00">_iface</text>
</a>
</g>
</g>
<!-- Node5&#45;&gt;Node1 -->
<g id="edge4_Node000001_Node000005" class="edge">
<title>Node5&#45;&gt;Node1</title>
<g id="a_edge4_Node000001_Node000005"><a xlink:title=" ">
<path fill="none" stroke="#9a32cd" stroke-dasharray="5,2" d="M277.4,-71.75C254.99,-58.73 225.89,-41.81 205.66,-30.04"/>
<polygon fill="#9a32cd" stroke="#9a32cd" points="275.83,-74.89 286.24,-76.89 279.35,-68.84 275.83,-74.89"/>
</a>
</g>
<text text-anchor="middle" x="267.5" y="-51" font-family="Helvetica,sans-Serif" font-size="10.00" fill="grey"> iface</text>
</g>
</g>
</svg>
