<?xml version="1.0" encoding="UTF-8" standalone="no"?>
<!DOCTYPE svg PUBLIC "-//W3C//DTD SVG 1.1//EN"
 "http://www.w3.org/Graphics/SVG/1.1/DTD/svg11.dtd">
<!-- Generated by graphviz version 2.43.0 (0)
 -->
<!-- Title: servio::fw::context Pages: 1 -->
<svg width="529pt" height="774pt"
 viewBox="0.00 0.00 529.00 773.50" xmlns="http://www.w3.org/2000/svg" xmlns:xlink="http://www.w3.org/1999/xlink">
<g id="graph0" class="graph" transform="scale(1 1) rotate(0) translate(4 769.5)">
<title>servio::fw::context</title>
<!-- Node1 -->
<g id="Node000001" class="node">
<title>Node1</title>
<g id="a_Node000001"><a xlink:title=" ">
<polygon fill="#999999" stroke="#666666" points="521,-189.5 415,-189.5 415,-170.5 521,-170.5 521,-189.5"/>
<text text-anchor="middle" x="468" y="-177.5" font-family="Helvetica,sans-Serif" font-size="10.00">servio::fw::context</text>
</a>
</g>
</g>
<!-- Node2 -->
<g id="Node000002" class="node">
<title>Node2</title>
<g id="a_Node000002"><a xlink:href="structservio_1_1core_1_1drivers.html" target="_top" xlink:title=" ">
<polygon fill="white" stroke="#666666" points="349.5,-531.5 236.5,-531.5 236.5,-512.5 349.5,-512.5 349.5,-531.5"/>
<text text-anchor="middle" x="293" y="-519.5" font-family="Helvetica,sans-Serif" font-size="10.00">servio::core::drivers</text>
</a>
</g>
</g>
<!-- Node2&#45;&gt;Node1 -->
<g id="edge1_Node000001_Node000002" class="edge">
<title>Node2&#45;&gt;Node1</title>
<g id="a_edge1_Node000001_Node000002"><a xlink:title=" ">
<path fill="none" stroke="#9a32cd" stroke-dasharray="5,2" d="M303.45,-503.32C335.36,-440.23 438.48,-236.38 462.13,-189.62"/>
<polygon fill="#9a32cd" stroke="#9a32cd" points="300.2,-501.99 298.81,-512.5 306.44,-505.15 300.2,-501.99"/>
</a>
</g>
<text text-anchor="middle" x="384.5" y="-364" font-family="Helvetica,sans-Serif" font-size="10.00" fill="grey"> cdrv</text>
</g>
<!-- Node3 -->
<g id="Node000003" class="node">
<title>Node3</title>
<g id="a_Node000003"><a xlink:href="namespaceservio_1_1cfg.html#structservio_1_1cfg_1_1context" target="_top" xlink:title=" ">
<polygon fill="#fff0f0" stroke="red" points="121,-765.5 11,-765.5 11,-746.5 121,-746.5 121,-765.5"/>
<text text-anchor="middle" x="66" y="-753.5" font-family="Helvetica,sans-Serif" font-size="10.00">servio::cfg::context</text>
</a>
</g>
</g>
<!-- Node3&#45;&gt;Node2 -->
<g id="edge2_Node000002_Node000003" class="edge">
<title>Node3&#45;&gt;Node2</title>
<g id="a_edge2_Node000002_Node000003"><a xlink:title=" ">
<path fill="none" stroke="#9a32cd" stroke-dasharray="5,2" d="M131.38,-751.79C159.6,-746.95 191.38,-737.03 214,-717 272.41,-665.27 287.67,-563.76 291.11,-531.85"/>
<polygon fill="#9a32cd" stroke="#9a32cd" points="130.52,-748.38 121.17,-753.35 131.58,-755.3 130.52,-748.38"/>
</a>
</g>
<text text-anchor="middle" x="182" y="-750" font-family="Helvetica,sans-Serif" font-size="10.00" fill="grey"> cfg</text>
</g>
<!-- Node6 -->
<g id="Node000006" class="node">
<title>Node6</title>
<g id="a_Node000006"><a xlink:href="structservio_1_1drv_1_1storage__iface.html" target="_top" xlink:title=" ">
<polygon fill="white" stroke="#666666" points="121,-728 11,-728 11,-698 121,-698 121,-728"/>
<text text-anchor="start" x="19" y="-716" font-family="Helvetica,sans-Serif" font-size="10.00">servio::drv::storage</text>
<text text-anchor="middle" x="66" y="-705" font-family="Helvetica,sans-Serif" font-size="10.00">_iface</text>
</a>
</g>
</g>
<!-- Node6&#45;&gt;Node2 -->
<g id="edge3_Node000002_Node000006" class="edge">
<title>Node6&#45;&gt;Node2</title>
<g id="a_edge3_Node000002_Node000006"><a xlink:title=" ">
<path fill="none" stroke="#9a32cd" stroke-dasharray="5,2" d="M131.19,-707.17C159.08,-701.88 190.64,-691.88 214,-673 261.73,-634.42 283.39,-558.85 289.84,-531.87"/>
<polygon fill="#9a32cd" stroke="#9a32cd" points="130.37,-703.76 121.11,-708.91 131.56,-710.66 130.37,-703.76"/>
</a>
</g>
<text text-anchor="middle" x="182" y="-705" font-family="Helvetica,sans-Serif" font-size="10.00" fill="grey"> storage</text>
</g>
<!-- Node7 -->
<g id="Node000007" class="node">
<title>Node7</title>
<g id="a_Node000007"><a xlink:href="structservio_1_1drv_1_1clk__iface.html" target="_top" xlink:title=" ">
<polygon fill="white" stroke="#666666" points="124.5,-679.5 7.5,-679.5 7.5,-660.5 124.5,-660.5 124.5,-679.5"/>
<text text-anchor="middle" x="66" y="-667.5" font-family="Helvetica,sans-Serif" font-size="10.00">servio::drv::clk_iface</text>
</a>
</g>
</g>
<!-- Node7&#45;&gt;Node2 -->
<g id="edge4_Node000002_Node000007" class="edge">
<title>Node7&#45;&gt;Node2</title>
<g id="a_edge4_Node000002_Node000007"><a xlink:title=" ">
<path fill="none" stroke="#9a32cd" stroke-dasharray="5,2" d="M134.61,-662.68C161.12,-657.32 190.71,-648.05 214,-632 252.55,-605.43 278.47,-553.24 287.97,-531.67"/>
<polygon fill="#9a32cd" stroke="#9a32cd" points="133.8,-659.27 124.61,-664.54 135.09,-666.15 133.8,-659.27"/>
</a>
</g>
<text text-anchor="middle" x="182" y="-661" font-family="Helvetica,sans-Serif" font-size="10.00" fill="grey"> clock</text>
</g>
<!-- Node8 -->
<g id="Node000008" class="node">
<title>Node8</title>
<g id="a_Node000008"><a xlink:href="structservio_1_1drv_1_1pos__iface.html" target="_top" xlink:title=" ">
<polygon fill="#fff0f0" stroke="red" points="126,-642.5 6,-642.5 6,-623.5 126,-623.5 126,-642.5"/>
<text text-anchor="middle" x="66" y="-630.5" font-family="Helvetica,sans-Serif" font-size="10.00">servio::drv::pos_iface</text>
</a>
</g>
</g>
<!-- Node8&#45;&gt;Node2 -->
<g id="edge5_Node000002_Node000008" class="edge">
<title>Node8&#45;&gt;Node2</title>
<g id="a_edge5_Node000002_Node000008"><a xlink:title=" ">
<path fill="none" stroke="#9a32cd" stroke-dasharray="5,2" d="M136,-621.94C161.55,-616.02 190.1,-607.13 214,-594 244.04,-577.49 271.61,-546.97 284.43,-531.5"/>
<polygon fill="#9a32cd" stroke="#9a32cd" points="135.02,-618.58 126,-624.15 136.52,-625.41 135.02,-618.58"/>
</a>
</g>
<text text-anchor="middle" x="182" y="-620" font-family="Helvetica,sans-Serif" font-size="10.00" fill="grey"> position</text>
</g>
<!-- Node10 -->
<g id="Node000010" class="node">
<title>Node10</title>
<g id="a_Node000010"><a xlink:href="structservio_1_1drv_1_1curr__iface.html" target="_top" xlink:title=" ">
<polygon fill="#fff0f0" stroke="red" points="127,-605.5 5,-605.5 5,-586.5 127,-586.5 127,-605.5"/>
<text text-anchor="middle" x="66" y="-593.5" font-family="Helvetica,sans-Serif" font-size="10.00">servio::drv::curr_iface</text>
</a>
</g>
</g>
<!-- Node10&#45;&gt;Node2 -->
<g id="edge6_Node000002_Node000010" class="edge">
<title>Node10&#45;&gt;Node2</title>
<g id="a_edge6_Node000002_Node000010"><a xlink:title=" ">
<path fill="none" stroke="#9a32cd" stroke-dasharray="5,2" d="M129.79,-584.38C156.2,-578.64 187,-570.82 214,-561 236.2,-552.93 260.31,-540.21 275.75,-531.51"/>
<polygon fill="#9a32cd" stroke="#9a32cd" points="128.96,-580.98 119.9,-586.47 130.41,-587.82 128.96,-580.98"/>
</a>
</g>
<text text-anchor="middle" x="182" y="-582" font-family="Helvetica,sans-Serif" font-size="10.00" fill="grey"> current</text>
</g>
<!-- Node12 -->
<g id="Node000012" class="node">
<title>Node12</title>
<g id="a_Node000012"><a xlink:href="structservio_1_1drv_1_1vcc__iface.html" target="_top" xlink:title=" ">
<polygon fill="white" stroke="#666666" points="125.5,-568.5 6.5,-568.5 6.5,-549.5 125.5,-549.5 125.5,-568.5"/>
<text text-anchor="middle" x="66" y="-556.5" font-family="Helvetica,sans-Serif" font-size="10.00">servio::drv::vcc_iface</text>
</a>
</g>
</g>
<!-- Node12&#45;&gt;Node2 -->
<g id="edge7_Node000002_Node000012" class="edge">
<title>Node12&#45;&gt;Node2</title>
<g id="a_edge7_Node000002_Node000012"><a xlink:title=" ">
<path fill="none" stroke="#9a32cd" stroke-dasharray="5,2" d="M135.75,-549.31C160.46,-545.67 188.51,-541.36 214,-537 223.79,-535.33 234.24,-533.41 244.21,-531.52"/>
<polygon fill="#9a32cd" stroke="#9a32cd" points="135.13,-545.87 125.74,-550.78 136.15,-552.79 135.13,-545.87"/>
</a>
</g>
<text text-anchor="middle" x="182" y="-549" font-family="Helvetica,sans-Serif" font-size="10.00" fill="grey"> vcc</text>
</g>
<!-- Node13 -->
<g id="Node000013" class="node">
<title>Node13</title>
<g id="a_Node000013"><a xlink:href="structservio_1_1drv_1_1temp__iface.html" target="_top" xlink:title=" ">
<polygon fill="white" stroke="#666666" points="130,-531.5 2,-531.5 2,-512.5 130,-512.5 130,-531.5"/>
<text text-anchor="middle" x="66" y="-519.5" font-family="Helvetica,sans-Serif" font-size="10.00">servio::drv::temp_iface</text>
</a>
</g>
</g>
<!-- Node13&#45;&gt;Node2 -->
<g id="edge8_Node000002_Node000013" class="edge">
<title>Node13&#45;&gt;Node2</title>
<g id="a_edge8_Node000002_Node000013"><a xlink:title=" ">
<path fill="none" stroke="#9a32cd" stroke-dasharray="5,2" d="M140.66,-522C171.84,-522 207.56,-522 236.47,-522"/>
<polygon fill="#9a32cd" stroke="#9a32cd" points="140.27,-518.5 130.27,-522 140.27,-525.5 140.27,-518.5"/>
</a>
</g>
<text text-anchor="middle" x="182" y="-525" font-family="Helvetica,sans-Serif" font-size="10.00" fill="grey"> temperature</text>
</g>
<!-- Node14 -->
<g id="Node000014" class="node">
<title>Node14</title>
<g id="a_Node000014"><a xlink:href="structservio_1_1drv_1_1period__cb__iface.html" target="_top" xlink:title=" ">
<polygon fill="white" stroke="#666666" points="118,-494 14,-494 14,-464 118,-464 118,-494"/>
<text text-anchor="start" x="22" y="-482" font-family="Helvetica,sans-Serif" font-size="10.00">servio::drv::period</text>
<text text-anchor="middle" x="66" y="-471" font-family="Helvetica,sans-Serif" font-size="10.00">_cb_iface</text>
</a>
</g>
</g>
<!-- Node14&#45;&gt;Node2 -->
<g id="edge9_Node000002_Node000014" class="edge">
<title>Node14&#45;&gt;Node2</title>
<g id="a_edge9_Node000002_Node000014"><a xlink:title=" ">
<path fill="none" stroke="#9a32cd" stroke-dasharray="5,2" d="M127.91,-490.58C154.37,-495.61 185.72,-501.59 214,-507 223.21,-508.76 233.03,-510.65 242.49,-512.46"/>
<polygon fill="#9a32cd" stroke="#9a32cd" points="128.51,-487.13 118.03,-488.7 127.2,-494 128.51,-487.13"/>
</a>
</g>
<text text-anchor="middle" x="182" y="-510" font-family="Helvetica,sans-Serif" font-size="10.00" fill="grey"> period_cb</text>
</g>
<!-- Node15 -->
<g id="Node000015" class="node">
<title>Node15</title>
<g id="a_Node000015"><a xlink:href="structservio_1_1drv_1_1pwm__motor__iface.html" target="_top" xlink:title=" ">
<polygon fill="#fff0f0" stroke="red" points="132,-446 0,-446 0,-416 132,-416 132,-446"/>
<text text-anchor="start" x="8" y="-434" font-family="Helvetica,sans-Serif" font-size="10.00">servio::drv::pwm_motor</text>
<text text-anchor="middle" x="66" y="-423" font-family="Helvetica,sans-Serif" font-size="10.00">_iface</text>
</a>
</g>
</g>
<!-- Node15&#45;&gt;Node2 -->
<g id="edge10_Node000002_Node000015" class="edge">
<title>Node15&#45;&gt;Node2</title>
<g id="a_edge10_Node000002_Node000015"><a xlink:title=" ">
<path fill="none" stroke="#9a32cd" stroke-dasharray="5,2" d="M129.08,-449.08C155.63,-457.48 186.73,-468.22 214,-480 236.31,-489.64 260.79,-503.38 276.27,-512.48"/>
<polygon fill="#9a32cd" stroke="#9a32cd" points="130.11,-445.74 119.52,-446.1 128.02,-452.42 130.11,-445.74"/>
</a>
</g>
<text text-anchor="middle" x="182" y="-483" font-family="Helvetica,sans-Serif" font-size="10.00" fill="grey"> motor</text>
</g>
<!-- Node17 -->
<g id="Node000017" class="node">
<title>Node17</title>
<g id="a_Node000017"><a xlink:href="structservio_1_1drv_1_1period__iface.html" target="_top" xlink:title=" ">
<polygon fill="white" stroke="#666666" points="118,-398 14,-398 14,-368 118,-368 118,-398"/>
<text text-anchor="start" x="22" y="-386" font-family="Helvetica,sans-Serif" font-size="10.00">servio::drv::period</text>
<text text-anchor="middle" x="66" y="-375" font-family="Helvetica,sans-Serif" font-size="10.00">_iface</text>
</a>
</g>
</g>
<!-- Node17&#45;&gt;Node2 -->
<g id="edge11_Node000002_Node000017" class="edge">
<title>Node17&#45;&gt;Node2</title>
<g id="a_edge11_Node000002_Node000017"><a xlink:title=" ">
<path fill="none" stroke="#9a32cd" stroke-dasharray="5,2" d="M127.65,-400.12C155.4,-409.62 187.85,-423.16 214,-441 244.32,-461.68 272.17,-495.67 284.83,-512.27"/>
<polygon fill="#9a32cd" stroke="#9a32cd" points="128.65,-396.77 118.05,-396.93 126.44,-403.41 128.65,-396.77"/>
</a>
</g>
<text text-anchor="middle" x="182" y="-444" font-family="Helvetica,sans-Serif" font-size="10.00" fill="grey"> period</text>
</g>
<!-- Node18 -->
<g id="Node000018" class="node">
<title>Node18</title>
<g id="a_Node000018"><a xlink:href="structservio_1_1drv_1_1com__iface.html" target="_top" xlink:title=" ">
<polygon fill="white" stroke="#666666" points="128,-349.5 4,-349.5 4,-330.5 128,-330.5 128,-349.5"/>
<text text-anchor="middle" x="66" y="-337.5" font-family="Helvetica,sans-Serif" font-size="10.00">servio::drv::com_iface</text>
</a>
</g>
</g>
<!-- Node18&#45;&gt;Node2 -->
<g id="edge12_Node000002_Node000018" class="edge">
<title>Node18&#45;&gt;Node2</title>
<g id="a_edge12_Node000002_Node000018"><a xlink:title=" ">
<path fill="none" stroke="#9a32cd" stroke-dasharray="5,2" d="M129.2,-352.21C157.57,-360.27 190.09,-373.31 214,-394 253.94,-428.57 279.59,-488.8 288.49,-512.26"/>
<polygon fill="#9a32cd" stroke="#9a32cd" points="129.92,-348.78 119.36,-349.56 128.1,-355.54 129.92,-348.78"/>
</a>
</g>
<text text-anchor="middle" x="182" y="-397" font-family="Helvetica,sans-Serif" font-size="10.00" fill="grey"> comms</text>
</g>
<!-- Node19 -->
<g id="Node000019" class="node">
<title>Node19</title>
<g id="a_Node000019"><a xlink:href="structservio_1_1drv_1_1leds__iface.html" target="_top" xlink:title=" ">
<polygon fill="white" stroke="#666666" points="127.5,-312.5 4.5,-312.5 4.5,-293.5 127.5,-293.5 127.5,-312.5"/>
<text text-anchor="middle" x="66" y="-300.5" font-family="Helvetica,sans-Serif" font-size="10.00">servio::drv::leds_iface</text>
</a>
</g>
</g>
<!-- Node19&#45;&gt;Node2 -->
<g id="edge13_Node000002_Node000019" class="edge">
<title>Node19&#45;&gt;Node2</title>
<g id="a_edge13_Node000002_Node000019"><a xlink:title=" ">
<path fill="none" stroke="#9a32cd" stroke-dasharray="5,2" d="M137.78,-309.85C164.2,-315.49 192.89,-325.67 214,-344 268.02,-390.89 286.06,-482.19 290.67,-512.19"/>
<polygon fill="#9a32cd" stroke="#9a32cd" points="138.27,-306.38 127.78,-307.9 136.93,-313.25 138.27,-306.38"/>
</a>
</g>
<text text-anchor="middle" x="182" y="-347" font-family="Helvetica,sans-Serif" font-size="10.00" fill="grey"> leds</text>
</g>
<!-- Node20 -->
<g id="Node000020" class="node">
<title>Node20</title>
<g id="a_Node000020"><a xlink:href="structservio_1_1core_1_1core.html" target="_top" xlink:title=" ">
<polygon fill="white" stroke="#666666" points="343.5,-189.5 242.5,-189.5 242.5,-170.5 343.5,-170.5 343.5,-189.5"/>
<text text-anchor="middle" x="293" y="-177.5" font-family="Helvetica,sans-Serif" font-size="10.00">servio::core::core</text>
</a>
</g>
</g>
<!-- Node20&#45;&gt;Node1 -->
<g id="edge14_Node000001_Node000020" class="edge">
<title>Node20&#45;&gt;Node1</title>
<g id="a_edge14_Node000001_Node000020"><a xlink:title=" ">
<path fill="none" stroke="#9a32cd" stroke-dasharray="5,2" d="M353.73,-180C373.56,-180 395.48,-180 414.7,-180"/>
<polygon fill="#9a32cd" stroke="#9a32cd" points="353.57,-176.5 343.57,-180 353.57,-183.5 353.57,-176.5"/>
</a>
</g>
<text text-anchor="middle" x="384.5" y="-183" font-family="Helvetica,sans-Serif" font-size="10.00" fill="grey"> core</text>
</g>
<!-- Node21 -->
<g id="Node000021" class="node">
<title>Node21</title>
<g id="a_Node000021"><a xlink:href="structservio_1_1gov_1_1governor__manager.html" target="_top" xlink:title=" ">
<polygon fill="white" stroke="#666666" points="125.5,-275 6.5,-275 6.5,-245 125.5,-245 125.5,-275"/>
<text text-anchor="start" x="14.5" y="-263" font-family="Helvetica,sans-Serif" font-size="10.00">servio::gov::governor</text>
<text text-anchor="middle" x="66" y="-252" font-family="Helvetica,sans-Serif" font-size="10.00">_manager</text>
</a>
</g>
</g>
<!-- Node21&#45;&gt;Node20 -->
<g id="edge15_Node000020_Node000021" class="edge">
<title>Node21&#45;&gt;Node20</title>
<g id="a_edge15_Node000020_Node000021"><a xlink:title=" ">
<path fill="none" stroke="#9a32cd" stroke-dasharray="5,2" d="M135.56,-243.8C160.59,-237.12 188.9,-228.67 214,-219 235.76,-210.62 259.56,-198.21 275.08,-189.65"/>
<polygon fill="#9a32cd" stroke="#9a32cd" points="134.57,-240.44 125.78,-246.36 136.34,-247.21 134.57,-240.44"/>
</a>
</g>
<text text-anchor="middle" x="182" y="-242" font-family="Helvetica,sans-Serif" font-size="10.00" fill="grey"> gov_</text>
</g>
<!-- Node22 -->
<g id="Node000022" class="node">
<title>Node22</title>
<g id="a_Node000022"><a xlink:href="structservio_1_1cnv_1_1converter.html" target="_top" xlink:title=" ">
<polygon fill="#fff0f0" stroke="red" points="127,-226.5 5,-226.5 5,-207.5 127,-207.5 127,-226.5"/>
<text text-anchor="middle" x="66" y="-214.5" font-family="Helvetica,sans-Serif" font-size="10.00">servio::cnv::converter</text>
</a>
</g>
</g>
<!-- Node22&#45;&gt;Node20 -->
<g id="edge16_Node000020_Node000022" class="edge">
<title>Node22&#45;&gt;Node20</title>
<g id="a_edge16_Node000020_Node000022"><a xlink:title=" ">
<path fill="none" stroke="#9a32cd" stroke-dasharray="5,2" d="M137.38,-207.07C161.69,-203.48 189.07,-199.26 214,-195 223.79,-193.33 234.24,-191.41 244.21,-189.52"/>
<polygon fill="#9a32cd" stroke="#9a32cd" points="136.55,-203.66 127.17,-208.57 137.57,-210.58 136.55,-203.66"/>
</a>
</g>
<text text-anchor="middle" x="182" y="-207" font-family="Helvetica,sans-Serif" font-size="10.00" fill="grey"> conv</text>
</g>
<!-- Node24 -->
<g id="Node000024" class="node">
<title>Node24</title>
<g id="a_Node000024"><a xlink:href="classservio_1_1mtr_1_1metrics.html" target="_top" xlink:title=" ">
<polygon fill="white" stroke="#666666" points="122.5,-189.5 9.5,-189.5 9.5,-170.5 122.5,-170.5 122.5,-189.5"/>
<text text-anchor="middle" x="66" y="-177.5" font-family="Helvetica,sans-Serif" font-size="10.00">servio::mtr::metrics</text>
</a>
</g>
</g>
<!-- Node24&#45;&gt;Node20 -->
<g id="edge17_Node000020_Node000024" class="edge">
<title>Node24&#45;&gt;Node20</title>
<g id="a_edge17_Node000020_Node000024"><a xlink:title=" ">
<path fill="none" stroke="#9a32cd" stroke-dasharray="5,2" d="M132.76,-180C167.78,-180 210.15,-180 242.38,-180"/>
<polygon fill="#9a32cd" stroke="#9a32cd" points="132.62,-176.5 122.62,-180 132.62,-183.5 132.62,-176.5"/>
</a>
</g>
<text text-anchor="middle" x="182" y="-183" font-family="Helvetica,sans-Serif" font-size="10.00" fill="grey"> met</text>
</g>
<!-- Node25 -->
<g id="Node000025" class="node">
<title>Node25</title>
<g id="a_Node000025"><a xlink:href="classservio_1_1mon_1_1indication.html" target="_top" xlink:title=" ">
<polygon fill="white" stroke="#666666" points="130,-152.5 2,-152.5 2,-133.5 130,-133.5 130,-152.5"/>
<text text-anchor="middle" x="66" y="-140.5" font-family="Helvetica,sans-Serif" font-size="10.00">servio::mon::indication</text>
</a>
</g>
</g>
<!-- Node25&#45;&gt;Node20 -->
<g id="edge18_Node000020_Node000025" class="edge">
<title>Node25&#45;&gt;Node20</title>
<g id="a_edge18_Node000020_Node000025"><a xlink:title=" ">
<path fill="none" stroke="#9a32cd" stroke-dasharray="5,2" d="M140,-153.31C163.64,-156.82 189.96,-160.89 214,-165 223.79,-166.67 234.24,-168.59 244.21,-170.48"/>
<polygon fill="#9a32cd" stroke="#9a32cd" points="140.44,-149.84 130.04,-151.85 139.43,-156.77 140.44,-149.84"/>
</a>
</g>
<text text-anchor="middle" x="182" y="-168" font-family="Helvetica,sans-Serif" font-size="10.00" fill="grey"> ind</text>
</g>
<!-- Node26 -->
<g id="Node000026" class="node">
<title>Node26</title>
<g id="a_Node000026"><a xlink:href="classservio_1_1mon_1_1monitor.html" target="_top" xlink:title=" ">
<polygon fill="white" stroke="#666666" points="125.5,-115.5 6.5,-115.5 6.5,-96.5 125.5,-96.5 125.5,-115.5"/>
<text text-anchor="middle" x="66" y="-103.5" font-family="Helvetica,sans-Serif" font-size="10.00">servio::mon::monitor</text>
</a>
</g>
</g>
<!-- Node26&#45;&gt;Node20 -->
<g id="edge19_Node000020_Node000026" class="edge">
<title>Node26&#45;&gt;Node20</title>
<g id="a_edge19_Node000020_Node000026"><a xlink:title=" ">
<path fill="none" stroke="#9a32cd" stroke-dasharray="5,2" d="M132.77,-117.6C158.52,-123.07 188.05,-130.51 214,-140 236.44,-148.21 260.69,-161.39 276.09,-170.36"/>
<polygon fill="#9a32cd" stroke="#9a32cd" points="133.24,-114.12 122.74,-115.52 131.82,-120.97 133.24,-114.12"/>
</a>
</g>
<text text-anchor="middle" x="182" y="-143" font-family="Helvetica,sans-Serif" font-size="10.00" fill="grey"> mon</text>
</g>
<!-- Node27 -->
<g id="Node000027" class="node">
<title>Node27</title>
<g id="a_Node000027"><a xlink:href="structservio_1_1core_1_1standard__callbacks.html" target="_top" xlink:title=" ">
<polygon fill="white" stroke="#666666" points="354,-78 232,-78 232,-48 354,-48 354,-78"/>
<text text-anchor="start" x="240" y="-66" font-family="Helvetica,sans-Serif" font-size="10.00">servio::core::standard</text>
<text text-anchor="middle" x="293" y="-55" font-family="Helvetica,sans-Serif" font-size="10.00">_callbacks</text>
</a>
</g>
</g>
<!-- Node27&#45;&gt;Node1 -->
<g id="edge20_Node000001_Node000027" class="edge">
<title>Node27&#45;&gt;Node1</title>
<g id="a_edge20_Node000001_Node000027"><a xlink:title=" ">
<path fill="none" stroke="#9a32cd" stroke-dasharray="5,2" d="M324.84,-83.86C362.63,-109.41 425.04,-151.62 452.86,-170.44"/>
<polygon fill="#9a32cd" stroke="#9a32cd" points="326.51,-80.76 316.26,-78.06 322.59,-86.56 326.51,-80.76"/>
</a>
</g>
<text text-anchor="middle" x="384.5" y="-134" font-family="Helvetica,sans-Serif" font-size="10.00" fill="grey"> scbs</text>
</g>
<!-- Node28 -->
<g id="Node000028" class="node">
<title>Node28</title>
<g id="a_Node000028"><a xlink:href="classservio_1_1core_1_1current__callback.html" target="_top" xlink:title=" ">
<polygon fill="#fff0f0" stroke="red" points="123,-78 9,-78 9,-48 123,-48 123,-78"/>
<text text-anchor="start" x="17" y="-66" font-family="Helvetica,sans-Serif" font-size="10.00">servio::core::current</text>
<text text-anchor="middle" x="66" y="-55" font-family="Helvetica,sans-Serif" font-size="10.00">_callback</text>
</a>
</g>
</g>
<!-- Node28&#45;&gt;Node27 -->
<g id="edge21_Node000027_Node000028" class="edge">
<title>Node28&#45;&gt;Node27</title>
<g id="a_edge21_Node000027_Node000028"><a xlink:title=" ">
<path fill="none" stroke="#9a32cd" stroke-dasharray="5,2" d="M133.52,-63C164.67,-63 201.49,-63 231.79,-63"/>
<polygon fill="#9a32cd" stroke="#9a32cd" points="133.2,-59.5 123.2,-63 133.2,-66.5 133.2,-59.5"/>
</a>
</g>
<text text-anchor="middle" x="182" y="-66" font-family="Helvetica,sans-Serif" font-size="10.00" fill="grey"> current_cb</text>
</g>
<!-- Node30 -->
<g id="Node000030" class="node">
<title>Node30</title>
<g id="a_Node000030"><a xlink:href="classservio_1_1core_1_1position__callback.html" target="_top" xlink:title=" ">
<polygon fill="#fff0f0" stroke="red" points="125.5,-30 6.5,-30 6.5,0 125.5,0 125.5,-30"/>
<text text-anchor="start" x="14.5" y="-18" font-family="Helvetica,sans-Serif" font-size="10.00">servio::core::position</text>
<text text-anchor="middle" x="66" y="-7" font-family="Helvetica,sans-Serif" font-size="10.00">_callback</text>
</a>
</g>
</g>
<!-- Node30&#45;&gt;Node27 -->
<g id="edge22_Node000027_Node000030" class="edge">
<title>Node30&#45;&gt;Node27</title>
<g id="a_edge22_Node000027_Node000030"><a xlink:title=" ">
<path fill="none" stroke="#9a32cd" stroke-dasharray="5,2" d="M135.32,-29.57C166.08,-36.14 202.07,-43.82 231.8,-50.16"/>
<polygon fill="#9a32cd" stroke="#9a32cd" points="136.04,-26.15 125.53,-27.49 134.58,-33 136.04,-26.15"/>
</a>
</g>
<text text-anchor="middle" x="182" y="-50" font-family="Helvetica,sans-Serif" font-size="10.00" fill="grey"> pos_cb</text>
</g>
</g>
</svg>
