<?xml version="1.0" encoding="UTF-8" standalone="no"?>
<!DOCTYPE svg PUBLIC "-//W3C//DTD SVG 1.1//EN"
 "http://www.w3.org/Graphics/SVG/1.1/DTD/svg11.dtd">
<!-- Generated by graphviz version 2.43.0 (0)
 -->
<!-- Title: servio::standard_callbacks Pages: 1 -->
<svg width="322pt" height="152pt"
 viewBox="0.00 0.00 322.00 152.00" xmlns="http://www.w3.org/2000/svg" xmlns:xlink="http://www.w3.org/1999/xlink">
<g id="graph0" class="graph" transform="scale(1 1) rotate(0) translate(4 148)">
<title>servio::standard_callbacks</title>
<polygon fill="white" stroke="transparent" points="-4,4 -4,-148 318,-148 318,4 -4,4"/>
<!-- Node1 -->
<g id="node1" class="node">
<title>Node1</title>
<g id="a_node1"><a xlink:title=" ">
<polygon fill="#bfbfbf" stroke="black" points="82,-0.5 82,-19.5 228,-19.5 228,-0.5 82,-0.5"/>
<text text-anchor="middle" x="155" y="-7.5" font-family="Helvetica,sans-Serif" font-size="10.00">servio::standard_callbacks</text>
</a>
</g>
</g>
<!-- Node2 -->
<g id="node2" class="node">
<title>Node2</title>
<g id="a_node2"><a xlink:href="classservio_1_1position__callback.html" target="_top" xlink:title=" ">
<polygon fill="white" stroke="black" points="10.5,-67.5 10.5,-86.5 147.5,-86.5 147.5,-67.5 10.5,-67.5"/>
<text text-anchor="middle" x="79" y="-74.5" font-family="Helvetica,sans-Serif" font-size="10.00">servio::position_callback</text>
</a>
</g>
</g>
<!-- Node2&#45;&gt;Node1 -->
<g id="edge1" class="edge">
<title>Node2&#45;&gt;Node1</title>
<path fill="none" stroke="#9a32cd" stroke-dasharray="5,2" d="M96.87,-60.71C111.85,-47.91 132.68,-30.09 144.91,-19.63"/>
<polygon fill="#9a32cd" stroke="#9a32cd" points="94.57,-58.07 89.25,-67.23 99.12,-63.39 94.57,-58.07"/>
<text text-anchor="middle" x="140.5" y="-41" font-family="Helvetica,sans-Serif" font-size="10.00"> pos_cb</text>
</g>
<!-- Node3 -->
<g id="node3" class="node">
<title>Node3</title>
<g id="a_node3"><a xlink:href="classservio_1_1base_1_1value__cb__interface.html" target="_top" xlink:title=" ">
<polygon fill="white" stroke="black" points="0,-124.5 0,-143.5 150,-143.5 150,-124.5 0,-124.5"/>
<text text-anchor="middle" x="75" y="-131.5" font-family="Helvetica,sans-Serif" font-size="10.00">base::position_cb_interface</text>
</a>
</g>
</g>
<!-- Node3&#45;&gt;Node2 -->
<g id="edge2" class="edge">
<title>Node3&#45;&gt;Node2</title>
<path fill="none" stroke="midnightblue" d="M76.35,-114.42C77.03,-105.05 77.83,-94.14 78.37,-86.71"/>
<polygon fill="midnightblue" stroke="midnightblue" points="72.86,-114.18 75.62,-124.41 79.84,-114.69 72.86,-114.18"/>
</g>
<!-- Node4 -->
<g id="node4" class="node">
<title>Node4</title>
<g id="a_node4"><a xlink:href="classservio_1_1current__callback.html" target="_top" xlink:title=" ">
<polygon fill="white" stroke="black" points="171.5,-67.5 171.5,-86.5 304.5,-86.5 304.5,-67.5 171.5,-67.5"/>
<text text-anchor="middle" x="238" y="-74.5" font-family="Helvetica,sans-Serif" font-size="10.00">servio::current_callback</text>
</a>
</g>
</g>
<!-- Node4&#45;&gt;Node1 -->
<g id="edge3" class="edge">
<title>Node4&#45;&gt;Node1</title>
<path fill="none" stroke="#9a32cd" stroke-dasharray="5,2" d="M218.93,-61.07C202.55,-48.24 179.5,-30.19 166.02,-19.63"/>
<polygon fill="#9a32cd" stroke="#9a32cd" points="216.78,-63.82 226.81,-67.23 221.09,-58.31 216.78,-63.82"/>
<text text-anchor="middle" x="229.5" y="-41" font-family="Helvetica,sans-Serif" font-size="10.00"> current_cb</text>
</g>
<!-- Node5 -->
<g id="node5" class="node">
<title>Node5</title>
<g id="a_node5"><a xlink:href="classservio_1_1base_1_1adc__detailed__cb__interface.html" target="_top" xlink:title=" ">
<polygon fill="white" stroke="black" points="168,-124.5 168,-143.5 314,-143.5 314,-124.5 168,-124.5"/>
<text text-anchor="middle" x="241" y="-131.5" font-family="Helvetica,sans-Serif" font-size="10.00">base::current_cb_interface</text>
</a>
</g>
</g>
<!-- Node5&#45;&gt;Node4 -->
<g id="edge4" class="edge">
<title>Node5&#45;&gt;Node4</title>
<path fill="none" stroke="midnightblue" d="M239.97,-114.12C239.46,-104.82 238.88,-94.06 238.48,-86.71"/>
<polygon fill="midnightblue" stroke="midnightblue" points="236.49,-114.61 240.53,-124.41 243.48,-114.23 236.49,-114.61"/>
</g>
</g>
</svg>
