<?xml version="1.0" encoding="UTF-8" standalone="no"?>
<!DOCTYPE svg PUBLIC "-//W3C//DTD SVG 1.1//EN"
 "http://www.w3.org/Graphics/SVG/1.1/DTD/svg11.dtd">
<!-- Generated by graphviz version 2.43.0 (0)
 -->
<!-- Title: servio::fw::dispatcher Pages: 1 -->
<svg width="752pt" height="385pt"
 viewBox="0.00 0.00 752.00 385.00" xmlns="http://www.w3.org/2000/svg" xmlns:xlink="http://www.w3.org/1999/xlink">
<g id="graph0" class="graph" transform="scale(1 1) rotate(0) translate(4 381)">
<title>servio::fw::dispatcher</title>
<polygon fill="white" stroke="transparent" points="-4,4 -4,-381 748,-381 748,4 -4,4"/>
<!-- Node1 -->
<g id="node1" class="node">
<title>Node1</title>
<g id="a_node1"><a xlink:title=" ">
<polygon fill="#bfbfbf" stroke="black" points="624,-164.5 624,-183.5 744,-183.5 744,-164.5 624,-164.5"/>
<text text-anchor="middle" x="684" y="-171.5" font-family="Helvetica,sans-Serif" font-size="10.00">servio::fw::dispatcher</text>
</a>
</g>
</g>
<!-- Node2 -->
<g id="node2" class="node">
<title>Node2</title>
<g id="a_node2"><a xlink:href="classservio_1_1temperature__interface.html" target="_top" xlink:title=" ">
<polygon fill="white" stroke="black" points="401.5,-39 401.5,-69 514.5,-69 514.5,-39 401.5,-39"/>
<text text-anchor="start" x="409.5" y="-57" font-family="Helvetica,sans-Serif" font-size="10.00">servio::temperature</text>
<text text-anchor="middle" x="458" y="-46" font-family="Helvetica,sans-Serif" font-size="10.00">_interface</text>
</a>
</g>
</g>
<!-- Node2&#45;&gt;Node1 -->
<g id="edge1" class="edge">
<title>Node2&#45;&gt;Node1</title>
<path fill="none" stroke="#9a32cd" stroke-dasharray="5,2" d="M524.12,-70.55C550.66,-78.91 580.93,-90.61 606,-106 633.66,-122.99 660.91,-150.19 674.35,-164.5"/>
<polygon fill="#9a32cd" stroke="#9a32cd" points="525.12,-67.2 514.53,-67.62 523.07,-73.89 525.12,-67.2"/>
<text text-anchor="middle" x="581" y="-109" font-family="Helvetica,sans-Serif" font-size="10.00"> temp_drv</text>
</g>
<!-- Node3 -->
<g id="node3" class="node">
<title>Node3</title>
<g id="a_node3"><a xlink:href="classservio_1_1driver__interface.html" target="_top" xlink:title=" ">
<polygon fill="white" stroke="black" points="185,-88.5 185,-107.5 315,-107.5 315,-88.5 185,-88.5"/>
<text text-anchor="middle" x="250" y="-95.5" font-family="Helvetica,sans-Serif" font-size="10.00">servio::driver_interface</text>
</a>
</g>
</g>
<!-- Node3&#45;&gt;Node2 -->
<g id="edge2" class="edge">
<title>Node3&#45;&gt;Node2</title>
<path fill="none" stroke="midnightblue" d="M305.84,-86.29C335.37,-79.98 371.71,-72.22 401.36,-65.88"/>
<polygon fill="midnightblue" stroke="midnightblue" points="304.75,-82.94 295.7,-88.45 306.21,-89.79 304.75,-82.94"/>
</g>
<!-- Node15 -->
<g id="node9" class="node">
<title>Node15</title>
<g id="a_node9"><a xlink:href="classservio_1_1pwm__motor__interface.html" target="_top" xlink:title=" ">
<polygon fill="white" stroke="black" points="378,-0.5 378,-19.5 538,-19.5 538,-0.5 378,-0.5"/>
<text text-anchor="middle" x="458" y="-7.5" font-family="Helvetica,sans-Serif" font-size="10.00">servio::pwm_motor_interface</text>
</a>
</g>
</g>
<!-- Node3&#45;&gt;Node15 -->
<g id="edge9" class="edge">
<title>Node3&#45;&gt;Node15</title>
<path fill="none" stroke="midnightblue" d="M274.32,-82.9C299.14,-67.42 339.99,-43.6 378,-29 387.61,-25.31 398.17,-22.17 408.34,-19.58"/>
<polygon fill="midnightblue" stroke="midnightblue" points="272.22,-80.09 265.63,-88.39 275.96,-86 272.22,-80.09"/>
</g>
<!-- Node16 -->
<g id="node10" class="node">
<title>Node16</title>
<g id="a_node10"><a xlink:href="classservio_1_1position__interface.html" target="_top" xlink:title=" ">
<polygon fill="white" stroke="black" points="388,-164.5 388,-183.5 528,-183.5 528,-164.5 388,-164.5"/>
<text text-anchor="middle" x="458" y="-171.5" font-family="Helvetica,sans-Serif" font-size="10.00">servio::position_interface</text>
</a>
</g>
</g>
<!-- Node3&#45;&gt;Node16 -->
<g id="edge13" class="edge">
<title>Node3&#45;&gt;Node16</title>
<path fill="none" stroke="midnightblue" d="M278.5,-112.14C303.83,-124.72 342.71,-142.95 378,-155 388.55,-158.6 400.11,-161.79 411.05,-164.47"/>
<polygon fill="midnightblue" stroke="midnightblue" points="280,-108.98 269.49,-107.62 276.86,-115.23 280,-108.98"/>
</g>
<!-- Node17 -->
<g id="node11" class="node">
<title>Node17</title>
<g id="a_node11"><a xlink:href="classservio_1_1vcc__interface.html" target="_top" xlink:title=" ">
<polygon fill="white" stroke="black" points="399,-126.5 399,-145.5 517,-145.5 517,-126.5 399,-126.5"/>
<text text-anchor="middle" x="458" y="-133.5" font-family="Helvetica,sans-Serif" font-size="10.00">servio::vcc_interface</text>
</a>
</g>
</g>
<!-- Node3&#45;&gt;Node17 -->
<g id="edge16" class="edge">
<title>Node3&#45;&gt;Node17</title>
<path fill="none" stroke="midnightblue" d="M312.9,-109.42C342.37,-114.86 377.22,-121.28 405.26,-126.46"/>
<polygon fill="midnightblue" stroke="midnightblue" points="313.19,-105.91 302.72,-107.54 311.92,-112.8 313.19,-105.91"/>
</g>
<!-- Node18 -->
<g id="node12" class="node">
<title>Node18</title>
<g id="a_node12"><a xlink:href="classservio_1_1current__interface.html" target="_top" xlink:title=" ">
<polygon fill="white" stroke="black" points="390,-88.5 390,-107.5 526,-107.5 526,-88.5 390,-88.5"/>
<text text-anchor="middle" x="458" y="-95.5" font-family="Helvetica,sans-Serif" font-size="10.00">servio::current_interface</text>
</a>
</g>
</g>
<!-- Node3&#45;&gt;Node18 -->
<g id="edge18" class="edge">
<title>Node3&#45;&gt;Node18</title>
<path fill="none" stroke="midnightblue" d="M325.24,-98C346.32,-98 369.14,-98 389.78,-98"/>
<polygon fill="midnightblue" stroke="midnightblue" points="325.05,-94.5 315.05,-98 325.05,-101.5 325.05,-94.5"/>
</g>
<!-- Node4 -->
<g id="node4" class="node">
<title>Node4</title>
<g id="a_node4"><a xlink:href="structservio_1_1cfg_1_1dispatcher.html" target="_top" xlink:title=" ">
<polygon fill="white" stroke="black" points="395.5,-249.5 395.5,-268.5 520.5,-268.5 520.5,-249.5 395.5,-249.5"/>
<text text-anchor="middle" x="458" y="-256.5" font-family="Helvetica,sans-Serif" font-size="10.00">servio::cfg::dispatcher</text>
</a>
</g>
</g>
<!-- Node4&#45;&gt;Node1 -->
<g id="edge3" class="edge">
<title>Node4&#45;&gt;Node1</title>
<path fill="none" stroke="#9a32cd" stroke-dasharray="5,2" d="M530.64,-248.48C555.17,-243.44 582.36,-236.2 606,-226 631.47,-215.01 657.48,-195.31 671.8,-183.57"/>
<polygon fill="#9a32cd" stroke="#9a32cd" points="529.81,-245.08 520.68,-250.44 531.17,-251.94 529.81,-245.08"/>
<text text-anchor="middle" x="581" y="-245" font-family="Helvetica,sans-Serif" font-size="10.00"> cfg_disp</text>
</g>
<!-- Node5 -->
<g id="node5" class="node">
<title>Node5</title>
<g id="a_node5"><a xlink:href="structservio_1_1core.html" target="_top" xlink:title=" ">
<polygon fill="white" stroke="red" points="213,-255.5 213,-274.5 287,-274.5 287,-255.5 213,-255.5"/>
<text text-anchor="middle" x="250" y="-262.5" font-family="Helvetica,sans-Serif" font-size="10.00">servio::core</text>
</a>
</g>
</g>
<!-- Node5&#45;&gt;Node4 -->
<g id="edge4" class="edge">
<title>Node5&#45;&gt;Node4</title>
<path fill="none" stroke="#9a32cd" stroke-dasharray="5,2" d="M297.57,-263.64C326.44,-262.8 363.85,-261.71 395.17,-260.8"/>
<polygon fill="#9a32cd" stroke="#9a32cd" points="297.25,-260.15 287.35,-263.94 297.45,-267.15 297.25,-260.15"/>
<text text-anchor="middle" x="346.5" y="-266" font-family="Helvetica,sans-Serif" font-size="10.00"> c</text>
</g>
<!-- Node6 -->
<g id="node6" class="node">
<title>Node6</title>
<g id="a_node6"><a xlink:href="structservio_1_1cnv_1_1converter.html" target="_top" xlink:title=" ">
<polygon fill="white" stroke="red" points="0,-278.5 0,-297.5 122,-297.5 122,-278.5 0,-278.5"/>
<text text-anchor="middle" x="61" y="-285.5" font-family="Helvetica,sans-Serif" font-size="10.00">servio::cnv::converter</text>
</a>
</g>
</g>
<!-- Node6&#45;&gt;Node1 -->
<g id="edge10" class="edge">
<title>Node6&#45;&gt;Node1</title>
<path fill="none" stroke="#9a32cd" stroke-dasharray="5,2" d="M132.45,-292.89C225.89,-297.93 395.61,-302.04 538,-278 569.19,-272.73 579.22,-273.83 606,-257 637.62,-237.12 664.72,-201.03 676.59,-183.74"/>
<polygon fill="#9a32cd" stroke="#9a32cd" points="132.45,-289.38 122.27,-292.32 132.05,-296.37 132.45,-289.38"/>
<text text-anchor="middle" x="346.5" y="-299" font-family="Helvetica,sans-Serif" font-size="10.00"> conv</text>
</g>
<!-- Node6&#45;&gt;Node5 -->
<g id="edge5" class="edge">
<title>Node6&#45;&gt;Node5</title>
<path fill="none" stroke="#9a32cd" stroke-dasharray="5,2" d="M132.18,-279.37C159.66,-275.99 190.02,-272.25 212.9,-269.44"/>
<polygon fill="#9a32cd" stroke="#9a32cd" points="131.7,-275.9 122.2,-280.6 132.55,-282.85 131.7,-275.9"/>
<text text-anchor="middle" x="153.5" y="-281" font-family="Helvetica,sans-Serif" font-size="10.00"> conv</text>
</g>
<!-- Node12 -->
<g id="node7" class="node">
<title>Node12</title>
<g id="a_node7"><a xlink:href="classservio_1_1mtr_1_1metrics.html" target="_top" xlink:title=" ">
<polygon fill="white" stroke="black" points="4.5,-341.5 4.5,-360.5 117.5,-360.5 117.5,-341.5 4.5,-341.5"/>
<text text-anchor="middle" x="61" y="-348.5" font-family="Helvetica,sans-Serif" font-size="10.00">servio::mtr::metrics</text>
</a>
</g>
</g>
<!-- Node12&#45;&gt;Node1 -->
<g id="edge11" class="edge">
<title>Node12&#45;&gt;Node1</title>
<path fill="none" stroke="#9a32cd" stroke-dasharray="5,2" d="M127.74,-360.94C237.62,-373.86 460.78,-383.91 606,-281 643.16,-254.67 669.08,-204.62 678.77,-183.64"/>
<polygon fill="#9a32cd" stroke="#9a32cd" points="128.14,-357.47 117.79,-359.73 127.29,-364.41 128.14,-357.47"/>
<text text-anchor="middle" x="346.5" y="-369" font-family="Helvetica,sans-Serif" font-size="10.00"> met</text>
</g>
<!-- Node12&#45;&gt;Node5 -->
<g id="edge6" class="edge">
<title>Node12&#45;&gt;Node5</title>
<path fill="none" stroke="#9a32cd" stroke-dasharray="5,2" d="M92.29,-337.07C130.48,-319.51 195.12,-289.78 228.18,-274.57"/>
<polygon fill="#9a32cd" stroke="#9a32cd" points="90.35,-334.11 82.73,-341.47 93.27,-340.47 90.35,-334.11"/>
<text text-anchor="middle" x="153.5" y="-317" font-family="Helvetica,sans-Serif" font-size="10.00"> met</text>
</g>
<!-- Node13 -->
<g id="node8" class="node">
<title>Node13</title>
<g id="a_node8"><a xlink:href="classservio_1_1ctl_1_1control.html" target="_top" xlink:title=" ">
<polygon fill="white" stroke="black" points="9,-226.5 9,-245.5 113,-245.5 113,-226.5 9,-226.5"/>
<text text-anchor="middle" x="61" y="-233.5" font-family="Helvetica,sans-Serif" font-size="10.00">servio::ctl::control</text>
</a>
</g>
</g>
<!-- Node13&#45;&gt;Node1 -->
<g id="edge14" class="edge">
<title>Node13&#45;&gt;Node1</title>
<path fill="none" stroke="#9a32cd" stroke-dasharray="5,2" d="M123.22,-232.84C224.17,-227.14 431.74,-213.43 606,-189 616.52,-187.53 627.78,-185.56 638.35,-183.53"/>
<polygon fill="#9a32cd" stroke="#9a32cd" points="122.99,-229.34 113.2,-233.39 123.38,-236.33 122.99,-229.34"/>
<text text-anchor="middle" x="346.5" y="-221" font-family="Helvetica,sans-Serif" font-size="10.00"> ctl</text>
</g>
<!-- Node13&#45;&gt;Node5 -->
<g id="edge7" class="edge">
<title>Node13&#45;&gt;Node5</title>
<path fill="none" stroke="#9a32cd" stroke-dasharray="5,2" d="M123.34,-245.51C152.94,-250.1 187.43,-255.45 212.78,-259.38"/>
<polygon fill="#9a32cd" stroke="#9a32cd" points="123.52,-242 113.1,-243.92 122.44,-248.92 123.52,-242"/>
<text text-anchor="middle" x="153.5" y="-256" font-family="Helvetica,sans-Serif" font-size="10.00"> ctl</text>
</g>
<!-- Node15&#45;&gt;Node1 -->
<g id="edge8" class="edge">
<title>Node15&#45;&gt;Node1</title>
<path fill="none" stroke="#9a32cd" stroke-dasharray="5,2" d="M517.37,-22.29C546.67,-30.85 581.13,-44.82 606,-67 639.65,-97.01 667.11,-144.2 677.98,-164.35"/>
<polygon fill="#9a32cd" stroke="#9a32cd" points="518.22,-18.89 507.65,-19.59 516.35,-25.64 518.22,-18.89"/>
<text text-anchor="middle" x="581" y="-70" font-family="Helvetica,sans-Serif" font-size="10.00"> motor</text>
</g>
<!-- Node16&#45;&gt;Node1 -->
<g id="edge12" class="edge">
<title>Node16&#45;&gt;Node1</title>
<path fill="none" stroke="#9a32cd" stroke-dasharray="5,2" d="M538.24,-174C566.35,-174 597.48,-174 623.65,-174"/>
<polygon fill="#9a32cd" stroke="#9a32cd" points="538.04,-170.5 528.04,-174 538.04,-177.5 538.04,-170.5"/>
<text text-anchor="middle" x="581" y="-177" font-family="Helvetica,sans-Serif" font-size="10.00"> pos_drv</text>
</g>
<!-- Node17&#45;&gt;Node1 -->
<g id="edge15" class="edge">
<title>Node17&#45;&gt;Node1</title>
<path fill="none" stroke="#9a32cd" stroke-dasharray="5,2" d="M527.1,-146.11C551.96,-149.95 580.28,-154.49 606,-159 615.52,-160.67 625.69,-162.57 635.4,-164.44"/>
<polygon fill="#9a32cd" stroke="#9a32cd" points="527.45,-142.63 517.03,-144.57 526.38,-149.55 527.45,-142.63"/>
<text text-anchor="middle" x="581" y="-162" font-family="Helvetica,sans-Serif" font-size="10.00"> vcc_drv</text>
</g>
<!-- Node18&#45;&gt;Node1 -->
<g id="edge17" class="edge">
<title>Node18&#45;&gt;Node1</title>
<path fill="none" stroke="#9a32cd" stroke-dasharray="5,2" d="M516.71,-109.75C544.2,-116.14 577.28,-125.01 606,-136 627.3,-144.15 650.65,-156.13 665.98,-164.45"/>
<polygon fill="#9a32cd" stroke="#9a32cd" points="517.38,-106.31 506.85,-107.51 515.82,-113.14 517.38,-106.31"/>
<text text-anchor="middle" x="581" y="-139" font-family="Helvetica,sans-Serif" font-size="10.00"> curr_drv</text>
</g>
</g>
</svg>
