<?xml version="1.0" encoding="UTF-8" standalone="no"?>
<!DOCTYPE svg PUBLIC "-//W3C//DTD SVG 1.1//EN"
 "http://www.w3.org/Graphics/SVG/1.1/DTD/svg11.dtd">
<!-- Generated by graphviz version 2.43.0 (0)
 -->
<!-- Title: brd::core_drivers Pages: 1 -->
<svg width="348pt" height="356pt"
 viewBox="0.00 0.00 348.00 356.00" xmlns="http://www.w3.org/2000/svg" xmlns:xlink="http://www.w3.org/1999/xlink">
<g id="graph0" class="graph" transform="scale(1 1) rotate(0) translate(4 352)">
<title>brd::core_drivers</title>
<polygon fill="white" stroke="transparent" points="-4,4 -4,-352 344,-352 344,4 -4,4"/>
<!-- Node1 -->
<g id="node1" class="node">
<title>Node1</title>
<g id="a_node1"><a xlink:title="TODO: maybe move to references and make setup function return an optional?">
<polygon fill="#bfbfbf" stroke="black" points="242,-170.5 242,-189.5 340,-189.5 340,-170.5 242,-170.5"/>
<text text-anchor="middle" x="291" y="-177.5" font-family="Helvetica,sans-Serif" font-size="10.00">brd::core_drivers</text>
</a>
</g>
</g>
<!-- Node2 -->
<g id="node2" class="node">
<title>Node2</title>
<g id="a_node2"><a xlink:href="classfw_1_1drv_1_1cobs__uart.html" target="_top" xlink:title=" ">
<polygon fill="white" stroke="black" points="20.5,-328.5 20.5,-347.5 121.5,-347.5 121.5,-328.5 20.5,-328.5"/>
<text text-anchor="middle" x="71" y="-335.5" font-family="Helvetica,sans-Serif" font-size="10.00">fw::drv::cobs_uart</text>
</a>
</g>
</g>
<!-- Node2&#45;&gt;Node1 -->
<g id="edge1" class="edge">
<title>Node2&#45;&gt;Node1</title>
<path fill="none" stroke="#9a32cd" stroke-dasharray="5,2" d="M131.58,-333.85C161.83,-329.16 197.66,-319.35 224,-299 261.76,-269.82 281.02,-212.6 287.47,-189.76"/>
<polygon fill="#9a32cd" stroke="#9a32cd" points="130.97,-330.4 121.56,-335.26 131.95,-337.34 130.97,-330.4"/>
<text text-anchor="middle" x="192" y="-330" font-family="Helvetica,sans-Serif" font-size="10.00"> comms</text>
</g>
<!-- Node3 -->
<g id="node3" class="node">
<title>Node3</title>
<g id="a_node3"><a xlink:href="classfw_1_1drv_1_1clock.html" target="_top" xlink:title=" ">
<polygon fill="white" stroke="black" points="31,-290.5 31,-309.5 111,-309.5 111,-290.5 31,-290.5"/>
<text text-anchor="middle" x="71" y="-297.5" font-family="Helvetica,sans-Serif" font-size="10.00">fw::drv::clock</text>
</a>
</g>
</g>
<!-- Node3&#45;&gt;Node1 -->
<g id="edge2" class="edge">
<title>Node3&#45;&gt;Node1</title>
<path fill="none" stroke="#9a32cd" stroke-dasharray="5,2" d="M121.41,-293.64C152.74,-287.84 193.06,-276.98 224,-257 251.81,-239.04 274.37,-205.93 284.39,-189.61"/>
<polygon fill="#9a32cd" stroke="#9a32cd" points="120.4,-290.26 111.15,-295.42 121.6,-297.15 120.4,-290.26"/>
<text text-anchor="middle" x="192" y="-287" font-family="Helvetica,sans-Serif" font-size="10.00"> clock</text>
</g>
<!-- Node4 -->
<g id="node4" class="node">
<title>Node4</title>
<g id="a_node4"><a xlink:href="classfw_1_1drv_1_1current__interface.html" target="_top" xlink:title=" ">
<polygon fill="white" stroke="black" points="2.5,-252.5 2.5,-271.5 139.5,-271.5 139.5,-252.5 2.5,-252.5"/>
<text text-anchor="middle" x="71" y="-259.5" font-family="Helvetica,sans-Serif" font-size="10.00">fw::drv::current_interface</text>
</a>
</g>
</g>
<!-- Node4&#45;&gt;Node1 -->
<g id="edge3" class="edge">
<title>Node4&#45;&gt;Node1</title>
<path fill="none" stroke="#9a32cd" stroke-dasharray="5,2" d="M134.11,-250.23C162.24,-243.75 195.5,-234.46 224,-222 243.91,-213.3 264.72,-199.07 277.52,-189.62"/>
<polygon fill="#9a32cd" stroke="#9a32cd" points="132.99,-246.89 124,-252.49 134.52,-253.73 132.99,-246.89"/>
<text text-anchor="middle" x="192" y="-245" font-family="Helvetica,sans-Serif" font-size="10.00"> current</text>
</g>
<!-- Node5 -->
<g id="node5" class="node">
<title>Node5</title>
<g id="a_node5"><a xlink:href="classfw_1_1drv_1_1leds.html" target="_top" xlink:title=" ">
<polygon fill="white" stroke="black" points="34,-214.5 34,-233.5 108,-233.5 108,-214.5 34,-214.5"/>
<text text-anchor="middle" x="71" y="-221.5" font-family="Helvetica,sans-Serif" font-size="10.00">fw::drv::leds</text>
</a>
</g>
</g>
<!-- Node5&#45;&gt;Node1 -->
<g id="edge4" class="edge">
<title>Node5&#45;&gt;Node1</title>
<path fill="none" stroke="#9a32cd" stroke-dasharray="5,2" d="M118.23,-215.61C148.39,-210.04 188.6,-202.4 224,-195 232.17,-193.29 240.88,-191.38 249.21,-189.51"/>
<polygon fill="#9a32cd" stroke="#9a32cd" points="117.2,-212.24 108,-217.5 118.47,-219.13 117.2,-212.24"/>
<text text-anchor="middle" x="192" y="-210" font-family="Helvetica,sans-Serif" font-size="10.00"> leds</text>
</g>
<!-- Node6 -->
<g id="node6" class="node">
<title>Node6</title>
<g id="a_node6"><a xlink:href="classfw_1_1drv_1_1temperature__interface.html" target="_top" xlink:title=" ">
<polygon fill="white" stroke="black" points="13.5,-165 13.5,-195 128.5,-195 128.5,-165 13.5,-165"/>
<text text-anchor="start" x="21.5" y="-183" font-family="Helvetica,sans-Serif" font-size="10.00">fw::drv::temperature</text>
<text text-anchor="middle" x="71" y="-172" font-family="Helvetica,sans-Serif" font-size="10.00">_interface</text>
</a>
</g>
</g>
<!-- Node6&#45;&gt;Node1 -->
<g id="edge5" class="edge">
<title>Node6&#45;&gt;Node1</title>
<path fill="none" stroke="#9a32cd" stroke-dasharray="5,2" d="M138.8,-180C172.03,-180 211.45,-180 241.7,-180"/>
<polygon fill="#9a32cd" stroke="#9a32cd" points="138.71,-176.5 128.71,-180 138.71,-183.5 138.71,-176.5"/>
<text text-anchor="middle" x="192" y="-183" font-family="Helvetica,sans-Serif" font-size="10.00"> temperature</text>
</g>
<!-- Node7 -->
<g id="node7" class="node">
<title>Node7</title>
<g id="a_node7"><a xlink:href="classfw_1_1drv_1_1position__interface.html" target="_top" xlink:title=" ">
<polygon fill="white" stroke="black" points="0,-126.5 0,-145.5 142,-145.5 142,-126.5 0,-126.5"/>
<text text-anchor="middle" x="71" y="-133.5" font-family="Helvetica,sans-Serif" font-size="10.00">fw::drv::position_interface</text>
</a>
</g>
</g>
<!-- Node7&#45;&gt;Node1 -->
<g id="edge6" class="edge">
<title>Node7&#45;&gt;Node1</title>
<path fill="none" stroke="#9a32cd" stroke-dasharray="5,2" d="M134.39,-147.39C161.9,-152.55 194.61,-158.86 224,-165 232.17,-166.71 240.88,-168.62 249.21,-170.49"/>
<polygon fill="#9a32cd" stroke="#9a32cd" points="134.97,-143.94 124.5,-145.55 133.69,-150.82 134.97,-143.94"/>
<text text-anchor="middle" x="192" y="-168" font-family="Helvetica,sans-Serif" font-size="10.00"> position</text>
</g>
<!-- Node8 -->
<g id="node8" class="node">
<title>Node8</title>
<g id="a_node8"><a xlink:href="classfw_1_1drv_1_1period__cb__interface.html" target="_top" xlink:title=" ">
<polygon fill="white" stroke="black" points="20.5,-77 20.5,-107 121.5,-107 121.5,-77 20.5,-77"/>
<text text-anchor="start" x="28.5" y="-95" font-family="Helvetica,sans-Serif" font-size="10.00">fw::drv::period_cb</text>
<text text-anchor="middle" x="71" y="-84" font-family="Helvetica,sans-Serif" font-size="10.00">_interface</text>
</a>
</g>
</g>
<!-- Node8&#45;&gt;Node1 -->
<g id="edge7" class="edge">
<title>Node8&#45;&gt;Node1</title>
<path fill="none" stroke="#9a32cd" stroke-dasharray="5,2" d="M131.46,-105.33C160.14,-112.83 194.61,-123.43 224,-137 243.87,-146.17 264.68,-160.68 277.5,-170.26"/>
<polygon fill="#9a32cd" stroke="#9a32cd" points="132.13,-101.89 121.57,-102.81 130.4,-108.67 132.13,-101.89"/>
<text text-anchor="middle" x="192" y="-140" font-family="Helvetica,sans-Serif" font-size="10.00"> period_cb</text>
</g>
<!-- Node9 -->
<g id="node9" class="node">
<title>Node9</title>
<g id="a_node9"><a xlink:href="classfw_1_1drv_1_1hbridge.html" target="_top" xlink:title=" ">
<polygon fill="white" stroke="black" points="25.5,-38.5 25.5,-57.5 116.5,-57.5 116.5,-38.5 25.5,-38.5"/>
<text text-anchor="middle" x="71" y="-45.5" font-family="Helvetica,sans-Serif" font-size="10.00">fw::drv::hbridge</text>
</a>
</g>
</g>
<!-- Node9&#45;&gt;Node1 -->
<g id="edge8" class="edge">
<title>Node9&#45;&gt;Node1</title>
<path fill="none" stroke="#9a32cd" stroke-dasharray="5,2" d="M126.62,-57.96C157.34,-65.51 195.19,-78.24 224,-99 251.82,-119.04 274.53,-153.64 284.52,-170.38"/>
<polygon fill="#9a32cd" stroke="#9a32cd" points="127.04,-54.46 116.5,-55.59 125.44,-61.27 127.04,-54.46"/>
<text text-anchor="middle" x="192" y="-102" font-family="Helvetica,sans-Serif" font-size="10.00"> hbridge</text>
</g>
<!-- Node10 -->
<g id="node10" class="node">
<title>Node10</title>
<g id="a_node10"><a xlink:href="classfw_1_1drv_1_1vcc__interface.html" target="_top" xlink:title=" ">
<polygon fill="white" stroke="black" points="11.5,-0.5 11.5,-19.5 130.5,-19.5 130.5,-0.5 11.5,-0.5"/>
<text text-anchor="middle" x="71" y="-7.5" font-family="Helvetica,sans-Serif" font-size="10.00">fw::drv::vcc_interface</text>
</a>
</g>
</g>
<!-- Node10&#45;&gt;Node1 -->
<g id="edge9" class="edge">
<title>Node10&#45;&gt;Node1</title>
<path fill="none" stroke="#9a32cd" stroke-dasharray="5,2" d="M140.48,-17.16C168.83,-23.03 200.5,-33.68 224,-53 263.16,-85.19 281.82,-146.72 287.78,-170.39"/>
<polygon fill="#9a32cd" stroke="#9a32cd" points="141.09,-13.72 130.61,-15.28 139.78,-20.59 141.09,-13.72"/>
<text text-anchor="middle" x="192" y="-56" font-family="Helvetica,sans-Serif" font-size="10.00"> vcc</text>
</g>
</g>
</svg>
