<?xml version="1.0" encoding="UTF-8" standalone="no"?>
<!DOCTYPE svg PUBLIC "-//W3C//DTD SVG 1.1//EN"
 "http://www.w3.org/Graphics/SVG/1.1/DTD/svg11.dtd">
<!-- Generated by graphviz version 2.43.0 (0)
 -->
<!-- Title: servio::core::dispatcher Pages: 1 -->
<svg width="694pt" height="511pt"
 viewBox="0.00 0.00 694.00 511.00" xmlns="http://www.w3.org/2000/svg" xmlns:xlink="http://www.w3.org/1999/xlink">
<g id="graph0" class="graph" transform="scale(1 1) rotate(0) translate(4 507)">
<title>servio::core::dispatcher</title>
<!-- Node1 -->
<g id="Node000001" class="node">
<title>Node1</title>
<g id="a_Node000001"><a xlink:title=" ">
<polygon fill="#999999" stroke="#666666" points="686,-321.5 555,-321.5 555,-302.5 686,-302.5 686,-321.5"/>
<text text-anchor="middle" x="620.5" y="-309.5" font-family="Helvetica,sans-Serif" font-size="10.00">servio::core::dispatcher</text>
</a>
</g>
</g>
<!-- Node2 -->
<g id="Node000002" class="node">
<title>Node2</title>
<g id="a_Node000002"><a xlink:href="structservio_1_1drv_1_1motor__info__iface.html" target="_top" xlink:title=" ">
<polygon fill="white" stroke="#666666" points="103,-383 0,-383 0,-353 103,-353 103,-383"/>
<text text-anchor="start" x="8" y="-371" font-family="Helvetica,sans-Serif" font-size="10.00">servio::drv::motor</text>
<text text-anchor="middle" x="51.5" y="-360" font-family="Helvetica,sans-Serif" font-size="10.00">_info_iface</text>
</a>
</g>
</g>
<!-- Node2&#45;&gt;Node1 -->
<g id="edge1_Node000001_Node000002" class="edge">
<title>Node2&#45;&gt;Node1</title>
<g id="a_edge1_Node000001_Node000002"><a xlink:title=" ">
<path fill="none" stroke="#9a32cd" stroke-dasharray="5,2" d="M75.8,-390.04C92.46,-404.62 116.08,-423 140,-434 274.04,-495.62 324.46,-507.53 469,-478 501.19,-471.42 512.21,-470.56 537,-449 579.94,-411.64 607.01,-346.26 616.09,-321.7"/>
<polygon fill="#9a32cd" stroke="#9a32cd" points="77.99,-387.3 68.21,-383.23 73.32,-392.52 77.99,-387.3"/>
</a>
</g>
<text text-anchor="middle" x="306.5" y="-495" font-family="Helvetica,sans-Serif" font-size="10.00" fill="grey"> motor</text>
</g>
<!-- Node13 -->
<g id="Node000013" class="node">
<title>Node13</title>
<g id="a_Node000013"><a xlink:href="structservio_1_1drv_1_1pwm__motor__iface.html" target="_top" xlink:title=" ">
<polygon fill="white" stroke="#666666" points="272,-232 140,-232 140,-202 272,-202 272,-232"/>
<text text-anchor="start" x="148" y="-220" font-family="Helvetica,sans-Serif" font-size="10.00">servio::drv::pwm_motor</text>
<text text-anchor="middle" x="206" y="-209" font-family="Helvetica,sans-Serif" font-size="10.00">_iface</text>
</a>
</g>
</g>
<!-- Node2&#45;&gt;Node13 -->
<g id="edge14_Node000013_Node000002" class="edge">
<title>Node2&#45;&gt;Node13</title>
<g id="a_edge14_Node000013_Node000002"><a xlink:title=" ">
<path fill="none" stroke="#63b8ff" d="M64.12,-344.01C78.5,-316.51 105.41,-271.69 140,-244 145.82,-239.34 152.56,-235.37 159.44,-232.02"/>
<polygon fill="#63b8ff" stroke="#63b8ff" points="60.98,-342.45 59.56,-352.95 67.21,-345.63 60.98,-342.45"/>
</a>
</g>
</g>
<!-- Node3 -->
<g id="Node000003" class="node">
<title>Node3</title>
<g id="a_Node000003"><a xlink:href="structservio_1_1drv_1_1get__pos__iface.html" target="_top" xlink:title=" ">
<polygon fill="white" stroke="#666666" points="262,-425 150,-425 150,-395 262,-395 262,-425"/>
<text text-anchor="start" x="158" y="-413" font-family="Helvetica,sans-Serif" font-size="10.00">servio::drv::get_pos</text>
<text text-anchor="middle" x="206" y="-402" font-family="Helvetica,sans-Serif" font-size="10.00">_iface</text>
</a>
</g>
</g>
<!-- Node3&#45;&gt;Node1 -->
<g id="edge2_Node000001_Node000003" class="edge">
<title>Node3&#45;&gt;Node1</title>
<g id="a_edge2_Node000001_Node000003"><a xlink:title=" ">
<path fill="none" stroke="#9a32cd" stroke-dasharray="5,2" d="M250.94,-428.77C276.66,-438.74 310.07,-449.95 341,-455 397.14,-464.18 413.71,-468.39 469,-455 502.04,-447 510.93,-441.82 537,-420 572.82,-390.01 602.58,-341.81 614.23,-321.5"/>
<polygon fill="#9a32cd" stroke="#9a32cd" points="252.06,-425.45 241.48,-425.03 249.49,-431.96 252.06,-425.45"/>
</a>
</g>
<text text-anchor="middle" x="405" y="-466" font-family="Helvetica,sans-Serif" font-size="10.00" fill="grey"> pos_drv</text>
</g>
<!-- Node9 -->
<g id="Node000009" class="node">
<title>Node9</title>
<g id="a_Node000009"><a xlink:href="structservio_1_1cfg_1_1dispatcher.html" target="_top" xlink:title=" ">
<polygon fill="white" stroke="#666666" points="467.5,-228.5 342.5,-228.5 342.5,-209.5 467.5,-209.5 467.5,-228.5"/>
<text text-anchor="middle" x="405" y="-216.5" font-family="Helvetica,sans-Serif" font-size="10.00">servio::cfg::dispatcher</text>
</a>
</g>
</g>
<!-- Node3&#45;&gt;Node9 -->
<g id="edge15_Node000009_Node000003" class="edge">
<title>Node3&#45;&gt;Node9</title>
<g id="a_edge15_Node000009_Node000003"><a xlink:title=" ">
<path fill="none" stroke="#9a32cd" stroke-dasharray="5,2" d="M233.19,-387.88C258.89,-365.04 297.8,-327.29 323,-288 334.63,-269.87 325.64,-258.11 341,-243 347.43,-236.68 355.68,-231.99 364.09,-228.52"/>
<polygon fill="#9a32cd" stroke="#9a32cd" points="230.56,-385.53 225.34,-394.76 235.17,-390.8 230.56,-385.53"/>
</a>
</g>
<text text-anchor="middle" x="306.5" y="-331" font-family="Helvetica,sans-Serif" font-size="10.00" fill="grey"> pos</text>
</g>
<!-- Node4 -->
<g id="Node000004" class="node">
<title>Node4</title>
<g id="a_Node000004"><a xlink:href="structservio_1_1drv_1_1get__curr__iface.html" target="_top" xlink:title=" ">
<polygon fill="white" stroke="#666666" points="461.5,-446 348.5,-446 348.5,-416 461.5,-416 461.5,-446"/>
<text text-anchor="start" x="356.5" y="-434" font-family="Helvetica,sans-Serif" font-size="10.00">servio::drv::get_curr</text>
<text text-anchor="middle" x="405" y="-423" font-family="Helvetica,sans-Serif" font-size="10.00">_iface</text>
</a>
</g>
</g>
<!-- Node4&#45;&gt;Node1 -->
<g id="edge3_Node000001_Node000004" class="edge">
<title>Node4&#45;&gt;Node1</title>
<g id="a_edge3_Node000001_Node000004"><a xlink:title=" ">
<path fill="none" stroke="#9a32cd" stroke-dasharray="5,2" d="M468.34,-412.63C490.76,-404.76 515.75,-394.47 537,-382 566.48,-364.69 595.74,-336.62 610.2,-321.83"/>
<polygon fill="#9a32cd" stroke="#9a32cd" points="466.9,-409.42 458.57,-415.96 469.17,-416.04 466.9,-409.42"/>
</a>
</g>
<text text-anchor="middle" x="512" y="-408" font-family="Helvetica,sans-Serif" font-size="10.00" fill="grey"> curr_drv</text>
</g>
<!-- Node5 -->
<g id="Node000005" class="node">
<title>Node5</title>
<g id="a_Node000005"><a xlink:href="structservio_1_1drv_1_1vcc__iface.html" target="_top" xlink:title=" ">
<polygon fill="white" stroke="#666666" points="464.5,-397.5 345.5,-397.5 345.5,-378.5 464.5,-378.5 464.5,-397.5"/>
<text text-anchor="middle" x="405" y="-385.5" font-family="Helvetica,sans-Serif" font-size="10.00">servio::drv::vcc_iface</text>
</a>
</g>
</g>
<!-- Node5&#45;&gt;Node1 -->
<g id="edge4_Node000001_Node000005" class="edge">
<title>Node5&#45;&gt;Node1</title>
<g id="a_edge4_Node000001_Node000005"><a xlink:title=" ">
<path fill="none" stroke="#9a32cd" stroke-dasharray="5,2" d="M456.26,-375.9C480.9,-369.44 510.84,-360.8 537,-351 559.85,-342.44 585.06,-330.07 601.53,-321.56"/>
<polygon fill="#9a32cd" stroke="#9a32cd" points="455.21,-372.56 446.4,-378.44 456.96,-379.33 455.21,-372.56"/>
</a>
</g>
<text text-anchor="middle" x="512" y="-370" font-family="Helvetica,sans-Serif" font-size="10.00" fill="grey"> vcc_drv</text>
</g>
<!-- Node6 -->
<g id="Node000006" class="node">
<title>Node6</title>
<g id="a_Node000006"><a xlink:href="structservio_1_1drv_1_1temp__iface.html" target="_top" xlink:title=" ">
<polygon fill="white" stroke="#666666" points="469,-360.5 341,-360.5 341,-341.5 469,-341.5 469,-360.5"/>
<text text-anchor="middle" x="405" y="-348.5" font-family="Helvetica,sans-Serif" font-size="10.00">servio::drv::temp_iface</text>
</a>
</g>
</g>
<!-- Node6&#45;&gt;Node1 -->
<g id="edge5_Node000001_Node000006" class="edge">
<title>Node6&#45;&gt;Node1</title>
<g id="a_edge5_Node000001_Node000006"><a xlink:title=" ">
<path fill="none" stroke="#9a32cd" stroke-dasharray="5,2" d="M468.21,-339.64C499.71,-333.88 537.51,-326.98 567.44,-321.51"/>
<polygon fill="#9a32cd" stroke="#9a32cd" points="467.44,-336.22 458.23,-341.46 468.69,-343.11 467.44,-336.22"/>
</a>
</g>
<text text-anchor="middle" x="512" y="-339" font-family="Helvetica,sans-Serif" font-size="10.00" fill="grey"> temp_drv</text>
</g>
<!-- Node7 -->
<g id="Node000007" class="node">
<title>Node7</title>
<g id="a_Node000007"><a xlink:href="classservio_1_1ctl_1_1control.html" target="_top" xlink:title=" ">
<polygon fill="white" stroke="#666666" points="258,-309.5 154,-309.5 154,-290.5 258,-290.5 258,-309.5"/>
<text text-anchor="middle" x="206" y="-297.5" font-family="Helvetica,sans-Serif" font-size="10.00">servio::ctl::control</text>
</a>
</g>
</g>
<!-- Node7&#45;&gt;Node1 -->
<g id="edge6_Node000001_Node000007" class="edge">
<title>Node7&#45;&gt;Node1</title>
<g id="a_edge6_Node000001_Node000007"><a xlink:title=" ">
<path fill="none" stroke="#9a32cd" stroke-dasharray="5,2" d="M229.22,-315.26C245.3,-325.34 267.99,-337.64 290,-343 304.25,-346.47 309.68,-349.13 323,-343 334.17,-337.86 329.93,-327.34 341,-322 414.88,-286.4 513.02,-293.56 570.9,-302.46"/>
<polygon fill="#9a32cd" stroke="#9a32cd" points="230.87,-312.15 220.57,-309.65 227.06,-318.03 230.87,-312.15"/>
</a>
</g>
<text text-anchor="middle" x="405" y="-325" font-family="Helvetica,sans-Serif" font-size="10.00" fill="grey"> ctl</text>
</g>
<!-- Node7&#45;&gt;Node9 -->
<g id="edge9_Node000009_Node000007" class="edge">
<title>Node7&#45;&gt;Node9</title>
<g id="a_edge9_Node000009_Node000007"><a xlink:title=" ">
<path fill="none" stroke="#9a32cd" stroke-dasharray="5,2" d="M253.82,-287.46C259.99,-285.47 266.19,-283.31 272,-281 295.65,-271.61 301.04,-267.86 323,-255 331.3,-250.14 332.45,-247.41 341,-243 351.72,-237.48 364.01,-232.51 374.87,-228.55"/>
<polygon fill="#9a32cd" stroke="#9a32cd" points="252.71,-284.14 244.19,-290.43 254.77,-290.83 252.71,-284.14"/>
</a>
</g>
<text text-anchor="middle" x="306.5" y="-276" font-family="Helvetica,sans-Serif" font-size="10.00" fill="grey"> ctl</text>
</g>
<!-- Node8 -->
<g id="Node000008" class="node">
<title>Node8</title>
<g id="a_Node000008"><a xlink:href="classservio_1_1mtr_1_1metrics.html" target="_top" xlink:title=" ">
<polygon fill="white" stroke="#666666" points="262.5,-271.5 149.5,-271.5 149.5,-252.5 262.5,-252.5 262.5,-271.5"/>
<text text-anchor="middle" x="206" y="-259.5" font-family="Helvetica,sans-Serif" font-size="10.00">servio::mtr::metrics</text>
</a>
</g>
</g>
<!-- Node8&#45;&gt;Node1 -->
<g id="edge7_Node000001_Node000008" class="edge">
<title>Node8&#45;&gt;Node1</title>
<g id="a_edge7_Node000001_Node000008"><a xlink:title=" ">
<path fill="none" stroke="#9a32cd" stroke-dasharray="5,2" d="M272.76,-263.26C339.84,-265.59 446.62,-272.22 537,-291 552.77,-294.28 570.07,-298.57 584.74,-302.42"/>
<polygon fill="#9a32cd" stroke="#9a32cd" points="272.86,-259.76 262.75,-262.93 272.64,-266.76 272.86,-259.76"/>
</a>
</g>
<text text-anchor="middle" x="405" y="-282" font-family="Helvetica,sans-Serif" font-size="10.00" fill="grey"> met</text>
</g>
<!-- Node8&#45;&gt;Node9 -->
<g id="edge11_Node000009_Node000008" class="edge">
<title>Node8&#45;&gt;Node9</title>
<g id="a_edge11_Node000009_Node000008"><a xlink:title=" ">
<path fill="none" stroke="#9a32cd" stroke-dasharray="5,2" d="M250.62,-249.76C263.27,-246.4 277.15,-242.88 290,-240 308.65,-235.82 329.16,-231.85 347.58,-228.51"/>
<polygon fill="#9a32cd" stroke="#9a32cd" points="249.52,-246.44 240.78,-252.42 251.34,-253.19 249.52,-246.44"/>
</a>
</g>
<text text-anchor="middle" x="306.5" y="-243" font-family="Helvetica,sans-Serif" font-size="10.00" fill="grey"> met</text>
</g>
<!-- Node9&#45;&gt;Node1 -->
<g id="edge8_Node000001_Node000009" class="edge">
<title>Node9&#45;&gt;Node1</title>
<g id="a_edge8_Node000001_Node000009"><a xlink:title=" ">
<path fill="none" stroke="#9a32cd" stroke-dasharray="5,2" d="M477.7,-223.18C497.58,-226.27 518.71,-231.43 537,-240 569.19,-255.09 598.37,-286.55 611.77,-302.42"/>
<polygon fill="#9a32cd" stroke="#9a32cd" points="478.14,-219.71 467.76,-221.79 477.17,-226.64 478.14,-219.71"/>
</a>
</g>
<text text-anchor="middle" x="512" y="-243" font-family="Helvetica,sans-Serif" font-size="10.00" fill="grey"> cfg_disp</text>
</g>
<!-- Node10 -->
<g id="Node000010" class="node">
<title>Node10</title>
<g id="a_Node000010"><a xlink:href="structservio_1_1cnv_1_1converter.html" target="_top" xlink:title=" ">
<polygon fill="#fff0f0" stroke="red" points="267,-128.5 145,-128.5 145,-109.5 267,-109.5 267,-128.5"/>
<text text-anchor="middle" x="206" y="-116.5" font-family="Helvetica,sans-Serif" font-size="10.00">servio::cnv::converter</text>
</a>
</g>
</g>
<!-- Node10&#45;&gt;Node1 -->
<g id="edge18_Node000001_Node000010" class="edge">
<title>Node10&#45;&gt;Node1</title>
<g id="a_edge18_Node000001_Node000010"><a xlink:title=" ">
<path fill="none" stroke="#9a32cd" stroke-dasharray="5,2" d="M277.3,-127.17C348.52,-138.36 459.01,-164.01 537,-221 570.06,-245.16 599.94,-284.27 612.81,-302.31"/>
<polygon fill="#9a32cd" stroke="#9a32cd" points="277.49,-123.66 267.08,-125.62 276.45,-130.58 277.49,-123.66"/>
</a>
</g>
<text text-anchor="middle" x="405" y="-182" font-family="Helvetica,sans-Serif" font-size="10.00" fill="grey"> conv</text>
</g>
<!-- Node10&#45;&gt;Node9 -->
<g id="edge10_Node000009_Node000010" class="edge">
<title>Node10&#45;&gt;Node9</title>
<g id="a_edge10_Node000009_Node000010"><a xlink:title=" ">
<path fill="none" stroke="#9a32cd" stroke-dasharray="5,2" d="M242.39,-132.22C265.72,-141.35 296.71,-154.29 323,-168 347.61,-180.83 374.58,-198.63 390.36,-209.45"/>
<polygon fill="#9a32cd" stroke="#9a32cd" points="243.48,-128.89 232.89,-128.54 240.95,-135.42 243.48,-128.89"/>
</a>
</g>
<text text-anchor="middle" x="306.5" y="-171" font-family="Helvetica,sans-Serif" font-size="10.00" fill="grey"> conv</text>
</g>
<!-- Node12 -->
<g id="Node000012" class="node">
<title>Node12</title>
<g id="a_Node000012"><a xlink:href="classservio_1_1mon_1_1monitor.html" target="_top" xlink:title=" ">
<polygon fill="white" stroke="#666666" points="265.5,-180.5 146.5,-180.5 146.5,-161.5 265.5,-161.5 265.5,-180.5"/>
<text text-anchor="middle" x="206" y="-168.5" font-family="Helvetica,sans-Serif" font-size="10.00">servio::mon::monitor</text>
</a>
</g>
</g>
<!-- Node12&#45;&gt;Node9 -->
<g id="edge12_Node000009_Node000012" class="edge">
<title>Node12&#45;&gt;Node9</title>
<g id="a_edge12_Node000009_Node000012"><a xlink:title=" ">
<path fill="none" stroke="#9a32cd" stroke-dasharray="5,2" d="M275.7,-180.14C291.36,-182.8 307.85,-186.08 323,-190 342.96,-195.16 364.93,-203.18 380.96,-209.49"/>
<polygon fill="#9a32cd" stroke="#9a32cd" points="275.99,-176.64 265.55,-178.47 274.85,-183.55 275.99,-176.64"/>
</a>
</g>
<text text-anchor="middle" x="306.5" y="-193" font-family="Helvetica,sans-Serif" font-size="10.00" fill="grey"> mon</text>
</g>
<!-- Node13&#45;&gt;Node9 -->
<g id="edge13_Node000009_Node000013" class="edge">
<title>Node13&#45;&gt;Node9</title>
<g id="a_edge13_Node000009_Node000013"><a xlink:title=" ">
<path fill="none" stroke="#9a32cd" stroke-dasharray="5,2" d="M282.26,-206.04C295.82,-205.15 309.82,-204.95 323,-206 332.51,-206.76 342.59,-208.01 352.29,-209.45"/>
<polygon fill="#9a32cd" stroke="#9a32cd" points="281.7,-202.57 272,-206.84 282.24,-209.55 281.7,-202.57"/>
</a>
</g>
<text text-anchor="middle" x="306.5" y="-209" font-family="Helvetica,sans-Serif" font-size="10.00" fill="grey"> motor</text>
</g>
<!-- Node14 -->
<g id="Node000014" class="node">
<title>Node14</title>
<g id="a_Node000014"><a xlink:href="structservio_1_1cfg_1_1payload.html" target="_top" xlink:title=" ">
<polygon fill="white" stroke="#666666" points="461.5,-67.5 348.5,-67.5 348.5,-48.5 461.5,-48.5 461.5,-67.5"/>
<text text-anchor="middle" x="405" y="-55.5" font-family="Helvetica,sans-Serif" font-size="10.00">servio::cfg::payload</text>
</a>
</g>
</g>
<!-- Node14&#45;&gt;Node1 -->
<g id="edge16_Node000001_Node000014" class="edge">
<title>Node14&#45;&gt;Node1</title>
<g id="a_edge16_Node000001_Node000014"><a xlink:title=" ">
<path fill="none" stroke="#9a32cd" stroke-dasharray="5,2" d="M471.64,-55.33C494.53,-57.58 518.97,-63.97 537,-79 608.87,-138.89 618.16,-265.74 619.34,-302.08"/>
<polygon fill="#9a32cd" stroke="#9a32cd" points="471.84,-51.84 461.61,-54.59 471.33,-58.82 471.84,-51.84"/>
</a>
</g>
<text text-anchor="middle" x="512" y="-82" font-family="Helvetica,sans-Serif" font-size="10.00" fill="grey"> cfg_pl</text>
</g>
<!-- Node15 -->
<g id="Node000015" class="node">
<title>Node15</title>
<g id="a_Node000015"><a xlink:href="structservio_1_1drv_1_1storage__iface.html" target="_top" xlink:title=" ">
<polygon fill="white" stroke="#666666" points="460,-30 350,-30 350,0 460,0 460,-30"/>
<text text-anchor="start" x="358" y="-18" font-family="Helvetica,sans-Serif" font-size="10.00">servio::drv::storage</text>
<text text-anchor="middle" x="405" y="-7" font-family="Helvetica,sans-Serif" font-size="10.00">_iface</text>
</a>
</g>
</g>
<!-- Node15&#45;&gt;Node1 -->
<g id="edge17_Node000001_Node000015" class="edge">
<title>Node15&#45;&gt;Node1</title>
<g id="a_edge17_Node000001_Node000015"><a xlink:title=" ">
<path fill="none" stroke="#9a32cd" stroke-dasharray="5,2" d="M470.15,-14.96C493.7,-18.09 518.97,-25.58 537,-42 617.08,-114.94 620.38,-263.16 619.79,-302.33"/>
<polygon fill="#9a32cd" stroke="#9a32cd" points="470.51,-11.48 460.19,-13.88 469.75,-18.44 470.51,-11.48"/>
</a>
</g>
<text text-anchor="middle" x="512" y="-45" font-family="Helvetica,sans-Serif" font-size="10.00" fill="grey"> stor_drv</text>
</g>
</g>
</svg>
