<?xml version="1.0" encoding="UTF-8" standalone="no"?>
<!DOCTYPE svg PUBLIC "-//W3C//DTD SVG 1.1//EN"
 "http://www.w3.org/Graphics/SVG/1.1/DTD/svg11.dtd">
<!-- Generated by graphviz version 2.43.0 (0)
 -->
<!-- Title: host::servio_exception Pages: 1 -->
<svg width="492pt" height="140pt"
 viewBox="0.00 0.00 491.50 140.00" xmlns="http://www.w3.org/2000/svg" xmlns:xlink="http://www.w3.org/1999/xlink">
<g id="graph0" class="graph" transform="scale(1 1) rotate(0) translate(4 136)">
<title>host::servio_exception</title>
<polygon fill="white" stroke="transparent" points="-4,4 -4,-136 487.5,-136 487.5,4 -4,4"/>
<!-- Node1 -->
<g id="node1" class="node">
<title>Node1</title>
<g id="a_node1"><a xlink:title=" ">
<polygon fill="#bfbfbf" stroke="black" points="182.5,-56.5 182.5,-75.5 309.5,-75.5 309.5,-56.5 182.5,-56.5"/>
<text text-anchor="middle" x="246" y="-63.5" font-family="Helvetica,sans-Serif" font-size="10.00">host::servio_exception</text>
</a>
</g>
</g>
<!-- Node3 -->
<g id="node3" class="node">
<title>Node3</title>
<g id="a_node3"><a xlink:href="structhost_1_1error__exception.html" target="_top" xlink:title=" ">
<polygon fill="white" stroke="black" points="0,-0.5 0,-19.5 120,-19.5 120,-0.5 0,-0.5"/>
<text text-anchor="middle" x="60" y="-7.5" font-family="Helvetica,sans-Serif" font-size="10.00">host::error_exception</text>
</a>
</g>
</g>
<!-- Node1&#45;&gt;Node3 -->
<g id="edge2" class="edge">
<title>Node1&#45;&gt;Node3</title>
<path fill="none" stroke="midnightblue" d="M206.62,-53.57C171.53,-43.38 120.98,-28.7 89.33,-19.52"/>
<polygon fill="midnightblue" stroke="midnightblue" points="205.95,-57.02 216.53,-56.44 207.9,-50.29 205.95,-57.02"/>
</g>
<!-- Node4 -->
<g id="node4" class="node">
<title>Node4</title>
<g id="a_node4"><a xlink:href="structhost_1_1parse__error.html" target="_top" xlink:title=" ">
<polygon fill="white" stroke="black" points="138.5,-0.5 138.5,-19.5 237.5,-19.5 237.5,-0.5 138.5,-0.5"/>
<text text-anchor="middle" x="188" y="-7.5" font-family="Helvetica,sans-Serif" font-size="10.00">host::parse_error</text>
</a>
</g>
</g>
<!-- Node1&#45;&gt;Node4 -->
<g id="edge3" class="edge">
<title>Node1&#45;&gt;Node4</title>
<path fill="none" stroke="midnightblue" d="M229.09,-49.25C218.8,-39.67 206.03,-27.79 197.49,-19.83"/>
<polygon fill="midnightblue" stroke="midnightblue" points="226.98,-52.07 236.68,-56.32 231.75,-46.95 226.98,-52.07"/>
</g>
<!-- Node5 -->
<g id="node5" class="node">
<title>Node5</title>
<g id="a_node5"><a xlink:href="structhost_1_1reply__error.html" target="_top" xlink:title=" ">
<polygon fill="white" stroke="black" points="255.5,-0.5 255.5,-19.5 352.5,-19.5 352.5,-0.5 255.5,-0.5"/>
<text text-anchor="middle" x="304" y="-7.5" font-family="Helvetica,sans-Serif" font-size="10.00">host::reply_error</text>
</a>
</g>
</g>
<!-- Node1&#45;&gt;Node5 -->
<g id="edge4" class="edge">
<title>Node1&#45;&gt;Node5</title>
<path fill="none" stroke="midnightblue" d="M262.91,-49.25C273.2,-39.67 285.97,-27.79 294.51,-19.83"/>
<polygon fill="midnightblue" stroke="midnightblue" points="260.25,-46.95 255.32,-56.32 265.02,-52.07 260.25,-46.95"/>
</g>
<!-- Node6 -->
<g id="node6" class="node">
<title>Node6</title>
<g id="a_node6"><a xlink:href="structhost_1_1serialize__error.html" target="_top" xlink:title=" ">
<polygon fill="white" stroke="black" points="370.5,-0.5 370.5,-19.5 483.5,-19.5 483.5,-0.5 370.5,-0.5"/>
<text text-anchor="middle" x="427" y="-7.5" font-family="Helvetica,sans-Serif" font-size="10.00">host::serialize_error</text>
</a>
</g>
</g>
<!-- Node1&#45;&gt;Node6 -->
<g id="edge5" class="edge">
<title>Node1&#45;&gt;Node6</title>
<path fill="none" stroke="midnightblue" d="M284.32,-53.57C318.46,-43.38 367.66,-28.7 398.45,-19.52"/>
<polygon fill="midnightblue" stroke="midnightblue" points="283.26,-50.23 274.68,-56.44 285.26,-56.94 283.26,-50.23"/>
</g>
<!-- Node2 -->
<g id="node2" class="node">
<title>Node2</title>
<g id="a_node2"><a xlink:title=" ">
<polygon fill="white" stroke="#bfbfbf" points="203,-112.5 203,-131.5 289,-131.5 289,-112.5 203,-112.5"/>
<text text-anchor="middle" x="246" y="-119.5" font-family="Helvetica,sans-Serif" font-size="10.00">std::exception</text>
</a>
</g>
</g>
<!-- Node2&#45;&gt;Node1 -->
<g id="edge1" class="edge">
<title>Node2&#45;&gt;Node1</title>
<path fill="none" stroke="midnightblue" d="M246,-101.8C246,-92.91 246,-82.78 246,-75.75"/>
<polygon fill="midnightblue" stroke="midnightblue" points="242.5,-102.08 246,-112.08 249.5,-102.08 242.5,-102.08"/>
</g>
</g>
</svg>
