<?xml version="1.0" encoding="UTF-8" standalone="no"?>
<!DOCTYPE svg PUBLIC "-//W3C//DTD SVG 1.1//EN"
 "http://www.w3.org/Graphics/SVG/1.1/DTD/svg11.dtd">
<!-- Generated by graphviz version 2.43.0 (0)
 -->
<!-- Title: servio::fw::dispatcher Pages: 1 -->
<svg width="682pt" height="144pt"
 viewBox="0.00 0.00 682.00 144.00" xmlns="http://www.w3.org/2000/svg" xmlns:xlink="http://www.w3.org/1999/xlink">
<g id="graph0" class="graph" transform="scale(1 1) rotate(0) translate(4 140)">
<title>servio::fw::dispatcher</title>
<polygon fill="white" stroke="transparent" points="-4,4 -4,-140 678,-140 678,4 -4,4"/>
<!-- Node1 -->
<g id="node1" class="node">
<title>Node1</title>
<g id="a_node1"><a xlink:title=" ">
<polygon fill="#bfbfbf" stroke="black" points="554,-60.5 554,-79.5 674,-79.5 674,-60.5 554,-60.5"/>
<text text-anchor="middle" x="614" y="-67.5" font-family="Helvetica,sans-Serif" font-size="10.00">servio::fw::dispatcher</text>
</a>
</g>
</g>
<!-- Node2 -->
<g id="node2" class="node">
<title>Node2</title>
<g id="a_node2"><a xlink:href="structservio_1_1cfg_1_1dispatcher.html" target="_top" xlink:title=" ">
<polygon fill="white" stroke="black" points="349,-38.5 349,-57.5 474,-57.5 474,-38.5 349,-38.5"/>
<text text-anchor="middle" x="411.5" y="-45.5" font-family="Helvetica,sans-Serif" font-size="10.00">servio::cfg::dispatcher</text>
</a>
</g>
</g>
<!-- Node2&#45;&gt;Node1 -->
<g id="edge1" class="edge">
<title>Node2&#45;&gt;Node1</title>
<path fill="none" stroke="#9a32cd" stroke-dasharray="5,2" d="M484.45,-55.43C501.36,-57.22 519.32,-59.15 536,-61 541.75,-61.64 547.74,-62.32 553.73,-63"/>
<polygon fill="#9a32cd" stroke="#9a32cd" points="484.39,-51.91 474.08,-54.34 483.66,-58.87 484.39,-51.91"/>
<text text-anchor="middle" x="514" y="-64" font-family="Helvetica,sans-Serif" font-size="10.00"> cfg_disp</text>
</g>
<!-- Node3 -->
<g id="node3" class="node">
<title>Node3</title>
<g id="a_node3"><a xlink:href="structservio_1_1core_1_1core.html" target="_top" xlink:title=" ">
<polygon fill="white" stroke="red" points="185,-38.5 185,-57.5 286,-57.5 286,-38.5 185,-38.5"/>
<text text-anchor="middle" x="235.5" y="-45.5" font-family="Helvetica,sans-Serif" font-size="10.00">servio::core::core</text>
</a>
</g>
</g>
<!-- Node3&#45;&gt;Node2 -->
<g id="edge2" class="edge">
<title>Node3&#45;&gt;Node2</title>
<path fill="none" stroke="#9a32cd" stroke-dasharray="5,2" d="M296.65,-48C313.53,-48 331.91,-48 348.87,-48"/>
<polygon fill="#9a32cd" stroke="#9a32cd" points="296.36,-44.5 286.36,-48 296.36,-51.5 296.36,-44.5"/>
<text text-anchor="middle" x="317.5" y="-51" font-family="Helvetica,sans-Serif" font-size="10.00"> c</text>
</g>
<!-- Node5 -->
<g id="node4" class="node">
<title>Node5</title>
<g id="a_node4"><a xlink:href="structservio_1_1cnv_1_1converter.html" target="_top" xlink:title=" ">
<polygon fill="white" stroke="red" points="0,-68.5 0,-87.5 122,-87.5 122,-68.5 0,-68.5"/>
<text text-anchor="middle" x="61" y="-75.5" font-family="Helvetica,sans-Serif" font-size="10.00">servio::cnv::converter</text>
</a>
</g>
</g>
<!-- Node5&#45;&gt;Node1 -->
<g id="edge6" class="edge">
<title>Node5&#45;&gt;Node1</title>
<path fill="none" stroke="#9a32cd" stroke-dasharray="5,2" d="M132.32,-77.4C224.88,-76.55 392.65,-74.77 536,-72 541.75,-71.89 547.74,-71.76 553.73,-71.62"/>
<polygon fill="#9a32cd" stroke="#9a32cd" points="132.2,-73.9 122.24,-77.49 132.27,-80.9 132.2,-73.9"/>
<text text-anchor="middle" x="317.5" y="-78" font-family="Helvetica,sans-Serif" font-size="10.00"> conv</text>
</g>
<!-- Node5&#45;&gt;Node3 -->
<g id="edge3" class="edge">
<title>Node5&#45;&gt;Node3</title>
<path fill="none" stroke="#9a32cd" stroke-dasharray="5,2" d="M112.8,-66.33C121.83,-64.43 131.18,-62.57 140,-61 154.51,-58.42 170.36,-56.07 184.85,-54.09"/>
<polygon fill="#9a32cd" stroke="#9a32cd" points="111.81,-62.96 102.77,-68.49 113.28,-69.81 111.81,-62.96"/>
<text text-anchor="middle" x="153.5" y="-64" font-family="Helvetica,sans-Serif" font-size="10.00"> conv</text>
</g>
<!-- Node8 -->
<g id="node5" class="node">
<title>Node8</title>
<g id="a_node5"><a xlink:href="classservio_1_1mtr_1_1metrics.html" target="_top" xlink:title=" ">
<polygon fill="white" stroke="black" points="4.5,-116.5 4.5,-135.5 117.5,-135.5 117.5,-116.5 4.5,-116.5"/>
<text text-anchor="middle" x="61" y="-123.5" font-family="Helvetica,sans-Serif" font-size="10.00">servio::mtr::metrics</text>
</a>
</g>
</g>
<!-- Node8&#45;&gt;Node1 -->
<g id="edge7" class="edge">
<title>Node8&#45;&gt;Node1</title>
<path fill="none" stroke="#9a32cd" stroke-dasharray="5,2" d="M127.97,-122.95C219.8,-118.14 391.21,-107.07 536,-86 547.62,-84.31 560.12,-81.95 571.6,-79.56"/>
<polygon fill="#9a32cd" stroke="#9a32cd" points="127.51,-119.47 117.71,-123.48 127.88,-126.46 127.51,-119.47"/>
<text text-anchor="middle" x="317.5" y="-113" font-family="Helvetica,sans-Serif" font-size="10.00"> met</text>
</g>
<!-- Node8&#45;&gt;Node3 -->
<g id="edge4" class="edge">
<title>Node8&#45;&gt;Node3</title>
<path fill="none" stroke="#9a32cd" stroke-dasharray="5,2" d="M92.35,-112.28C127.11,-96.56 183.16,-71.22 213.45,-57.52"/>
<polygon fill="#9a32cd" stroke="#9a32cd" points="90.82,-109.13 83.15,-116.44 93.71,-115.5 90.82,-109.13"/>
<text text-anchor="middle" x="153.5" y="-92" font-family="Helvetica,sans-Serif" font-size="10.00"> met</text>
</g>
<!-- Node9 -->
<g id="node6" class="node">
<title>Node9</title>
<g id="a_node6"><a xlink:href="classservio_1_1ctl_1_1control.html" target="_top" xlink:title=" ">
<polygon fill="white" stroke="black" points="9,-0.5 9,-19.5 113,-19.5 113,-0.5 9,-0.5"/>
<text text-anchor="middle" x="61" y="-7.5" font-family="Helvetica,sans-Serif" font-size="10.00">servio::ctl::control</text>
</a>
</g>
</g>
<!-- Node9&#45;&gt;Node1 -->
<g id="edge8" class="edge">
<title>Node9&#45;&gt;Node1</title>
<path fill="none" stroke="#9a32cd" stroke-dasharray="5,2" d="M123.17,-8.26C204.05,-6.99 350.75,-8.29 474,-29 514.57,-35.82 560.01,-50.65 587.56,-60.48"/>
<polygon fill="#9a32cd" stroke="#9a32cd" points="123.1,-4.76 113.16,-8.43 123.22,-11.76 123.1,-4.76"/>
<text text-anchor="middle" x="317.5" y="-15" font-family="Helvetica,sans-Serif" font-size="10.00"> ctl</text>
</g>
<!-- Node9&#45;&gt;Node3 -->
<g id="edge5" class="edge">
<title>Node9&#45;&gt;Node3</title>
<path fill="none" stroke="#9a32cd" stroke-dasharray="5,2" d="M115.35,-21.75C139.74,-27.13 168.26,-33.41 191.28,-38.48"/>
<polygon fill="#9a32cd" stroke="#9a32cd" points="116.05,-18.32 105.53,-19.59 114.54,-25.16 116.05,-18.32"/>
<text text-anchor="middle" x="153.5" y="-35" font-family="Helvetica,sans-Serif" font-size="10.00"> ctl</text>
</g>
</g>
</svg>
