<?xml version="1.0" encoding="UTF-8" standalone="no"?>
<!DOCTYPE svg PUBLIC "-//W3C//DTD SVG 1.1//EN"
 "http://www.w3.org/Graphics/SVG/1.1/DTD/svg11.dtd">
<!-- Generated by graphviz version 2.43.0 (0)
 -->
<!-- Title: servio::ftest::bench::loop_frequency Pages: 1 -->
<svg width="460pt" height="201pt"
 viewBox="0.00 0.00 460.00 200.50" xmlns="http://www.w3.org/2000/svg" xmlns:xlink="http://www.w3.org/1999/xlink">
<g id="graph0" class="graph" transform="scale(1 1) rotate(0) translate(4 196.5)">
<title>servio::ftest::bench::loop_frequency</title>
<!-- Node1 -->
<g id="Node000001" class="node">
<title>Node1</title>
<g id="a_Node000001"><a xlink:title=" ">
<polygon fill="#999999" stroke="#666666" points="452,-118 342,-118 342,-88 452,-88 452,-118"/>
<text text-anchor="start" x="350" y="-106" font-family="Helvetica,sans-Serif" font-size="10.00">servio::ftest::bench</text>
<text text-anchor="middle" x="397" y="-95" font-family="Helvetica,sans-Serif" font-size="10.00">::loop_frequency</text>
</a>
</g>
</g>
<!-- Node2 -->
<g id="Node000002" class="node">
<title>Node2</title>
<g id="a_Node000002"><a xlink:href="structservio_1_1ftest_1_1utest.html" target="_top" xlink:title=" ">
<polygon fill="white" stroke="#666666" points="263.5,-192.5 158.5,-192.5 158.5,-173.5 263.5,-173.5 263.5,-192.5"/>
<text text-anchor="middle" x="211" y="-180.5" font-family="Helvetica,sans-Serif" font-size="10.00">servio::ftest::utest</text>
</a>
</g>
</g>
<!-- Node2&#45;&gt;Node1 -->
<g id="edge1_Node000001_Node000002" class="edge">
<title>Node2&#45;&gt;Node1</title>
<g id="a_edge1_Node000001_Node000002"><a xlink:title=" ">
<path fill="none" stroke="#63b8ff" d="M256.12,-170.45C261.5,-168.72 266.9,-166.88 272,-165 307.22,-151.99 345.56,-131.81 370.14,-118.03"/>
<polygon fill="#63b8ff" stroke="#63b8ff" points="255.02,-167.13 246.51,-173.45 257.1,-173.81 255.02,-167.13"/>
</a>
</g>
</g>
<!-- Node3 -->
<g id="Node000003" class="node">
<title>Node3</title>
<g id="a_Node000003"><a xlink:title=" ">
<polygon fill="white" stroke="#666666" points="99.5,-192.5 13.5,-192.5 13.5,-173.5 99.5,-173.5 99.5,-192.5"/>
<text text-anchor="middle" x="56.5" y="-180.5" font-family="Helvetica,sans-Serif" font-size="10.00">asrt::task_test</text>
</a>
</g>
</g>
<!-- Node3&#45;&gt;Node2 -->
<g id="edge2_Node000002_Node000003" class="edge">
<title>Node3&#45;&gt;Node2</title>
<g id="a_edge2_Node000002_Node000003"><a xlink:title=" ">
<path fill="none" stroke="#63b8ff" d="M109.65,-183C125.36,-183 142.59,-183 158.28,-183"/>
<polygon fill="#63b8ff" stroke="#63b8ff" points="109.58,-179.5 99.57,-183 109.57,-186.5 109.58,-179.5"/>
</a>
</g>
</g>
<!-- Node4 -->
<g id="Node000004" class="node">
<title>Node4</title>
<g id="a_Node000004"><a xlink:href="structservio_1_1drv_1_1clk__iface.html" target="_top" xlink:title=" ">
<polygon fill="white" stroke="#666666" points="269.5,-155.5 152.5,-155.5 152.5,-136.5 269.5,-136.5 269.5,-155.5"/>
<text text-anchor="middle" x="211" y="-143.5" font-family="Helvetica,sans-Serif" font-size="10.00">servio::drv::clk_iface</text>
</a>
</g>
</g>
<!-- Node4&#45;&gt;Node1 -->
<g id="edge3_Node000001_Node000004" class="edge">
<title>Node4&#45;&gt;Node1</title>
<g id="a_edge3_Node000001_Node000004"><a xlink:title=" ">
<path fill="none" stroke="#9a32cd" stroke-dasharray="5,2" d="M262.67,-134.16C287.19,-128.43 316.67,-121.54 341.66,-115.7"/>
<polygon fill="#9a32cd" stroke="#9a32cd" points="261.78,-130.77 252.84,-136.46 263.37,-137.59 261.78,-130.77"/>
</a>
</g>
<text text-anchor="middle" x="307" y="-130" font-family="Helvetica,sans-Serif" font-size="10.00" fill="grey"> clk</text>
</g>
<!-- Node5 -->
<g id="Node000005" class="node">
<title>Node5</title>
<g id="a_Node000005"><a xlink:href="structservio_1_1drv_1_1period__iface.html" target="_top" xlink:title=" ">
<polygon fill="white" stroke="#666666" points="263,-118 159,-118 159,-88 263,-88 263,-118"/>
<text text-anchor="start" x="167" y="-106" font-family="Helvetica,sans-Serif" font-size="10.00">servio::drv::period</text>
<text text-anchor="middle" x="211" y="-95" font-family="Helvetica,sans-Serif" font-size="10.00">_iface</text>
</a>
</g>
</g>
<!-- Node5&#45;&gt;Node1 -->
<g id="edge4_Node000001_Node000005" class="edge">
<title>Node5&#45;&gt;Node1</title>
<g id="a_edge4_Node000001_Node000005"><a xlink:title=" ">
<path fill="none" stroke="#9a32cd" stroke-dasharray="5,2" d="M273.53,-103C295.63,-103 320.38,-103 341.81,-103"/>
<polygon fill="#9a32cd" stroke="#9a32cd" points="273.25,-99.5 263.25,-103 273.25,-106.5 273.25,-99.5"/>
</a>
</g>
<text text-anchor="middle" x="307" y="-106" font-family="Helvetica,sans-Serif" font-size="10.00" fill="grey"> period</text>
</g>
<!-- Node6 -->
<g id="Node000006" class="node">
<title>Node6</title>
<g id="a_Node000006"><a xlink:href="structservio_1_1drv_1_1pos__iface.html" target="_top" xlink:title=" ">
<polygon fill="white" stroke="#666666" points="271,-69.5 151,-69.5 151,-50.5 271,-50.5 271,-69.5"/>
<text text-anchor="middle" x="211" y="-57.5" font-family="Helvetica,sans-Serif" font-size="10.00">servio::drv::pos_iface</text>
</a>
</g>
</g>
<!-- Node6&#45;&gt;Node1 -->
<g id="edge5_Node000001_Node000006" class="edge">
<title>Node6&#45;&gt;Node1</title>
<g id="a_edge5_Node000001_Node000006"><a xlink:title=" ">
<path fill="none" stroke="#9a32cd" stroke-dasharray="5,2" d="M262.67,-71.84C287.19,-77.57 316.67,-84.46 341.66,-90.3"/>
<polygon fill="#9a32cd" stroke="#9a32cd" points="263.37,-68.41 252.84,-69.54 261.78,-75.23 263.37,-68.41"/>
</a>
</g>
<text text-anchor="middle" x="307" y="-88" font-family="Helvetica,sans-Serif" font-size="10.00" fill="grey"> pos</text>
</g>
<!-- Node7 -->
<g id="Node000007" class="node">
<title>Node7</title>
<g id="a_Node000007"><a xlink:href="structservio_1_1drv_1_1get__pos__iface.html" target="_top" xlink:title=" ">
<polygon fill="white" stroke="#666666" points="112.5,-78 0.5,-78 0.5,-48 112.5,-48 112.5,-78"/>
<text text-anchor="start" x="8.5" y="-66" font-family="Helvetica,sans-Serif" font-size="10.00">servio::drv::get_pos</text>
<text text-anchor="middle" x="56.5" y="-55" font-family="Helvetica,sans-Serif" font-size="10.00">_iface</text>
</a>
</g>
</g>
<!-- Node7&#45;&gt;Node6 -->
<g id="edge6_Node000006_Node000007" class="edge">
<title>Node7&#45;&gt;Node6</title>
<g id="a_edge6_Node000006_Node000007"><a xlink:title=" ">
<path fill="none" stroke="#63b8ff" d="M122.63,-61.72C132.02,-61.53 141.64,-61.34 150.9,-61.16"/>
<polygon fill="#63b8ff" stroke="#63b8ff" points="122.49,-58.22 112.56,-61.92 122.62,-65.22 122.49,-58.22"/>
</a>
</g>
</g>
<!-- Node8 -->
<g id="Node000008" class="node">
<title>Node8</title>
<g id="a_Node000008"><a xlink:href="structservio_1_1drv_1_1curr__iface.html" target="_top" xlink:title=" ">
<polygon fill="white" stroke="#666666" points="272,-29.5 150,-29.5 150,-10.5 272,-10.5 272,-29.5"/>
<text text-anchor="middle" x="211" y="-17.5" font-family="Helvetica,sans-Serif" font-size="10.00">servio::drv::curr_iface</text>
</a>
</g>
</g>
<!-- Node8&#45;&gt;Node1 -->
<g id="edge7_Node000001_Node000008" class="edge">
<title>Node8&#45;&gt;Node1</title>
<g id="a_edge7_Node000001_Node000008"><a xlink:title=" ">
<path fill="none" stroke="#9a32cd" stroke-dasharray="5,2" d="M248.3,-33.09C256.13,-35.98 264.36,-39.06 272,-42 295.26,-50.96 301.51,-52.26 324,-63 339.87,-70.58 357.11,-80.11 370.74,-87.97"/>
<polygon fill="#9a32cd" stroke="#9a32cd" points="249.25,-29.71 238.65,-29.56 246.84,-36.29 249.25,-29.71"/>
</a>
</g>
<text text-anchor="middle" x="307" y="-66" font-family="Helvetica,sans-Serif" font-size="10.00" fill="grey"> curr</text>
</g>
<!-- Node9 -->
<g id="Node000009" class="node">
<title>Node9</title>
<g id="a_Node000009"><a xlink:href="structservio_1_1drv_1_1get__curr__iface.html" target="_top" xlink:title=" ">
<polygon fill="white" stroke="#666666" points="113,-30 0,-30 0,0 113,0 113,-30"/>
<text text-anchor="start" x="8" y="-18" font-family="Helvetica,sans-Serif" font-size="10.00">servio::drv::get_curr</text>
<text text-anchor="middle" x="56.5" y="-7" font-family="Helvetica,sans-Serif" font-size="10.00">_iface</text>
</a>
</g>
</g>
<!-- Node9&#45;&gt;Node8 -->
<g id="edge8_Node000008_Node000009" class="edge">
<title>Node9&#45;&gt;Node8</title>
<g id="a_edge8_Node000008_Node000009"><a xlink:title=" ">
<path fill="none" stroke="#63b8ff" d="M123.6,-17.17C132.37,-17.45 141.32,-17.75 149.98,-18.03"/>
<polygon fill="#63b8ff" stroke="#63b8ff" points="123.53,-13.66 113.42,-16.83 123.3,-20.66 123.53,-13.66"/>
</a>
</g>
</g>
</g>
</svg>
