<?xml version="1.0" encoding="UTF-8" standalone="no"?>
<!DOCTYPE svg PUBLIC "-//W3C//DTD SVG 1.1//EN"
 "http://www.w3.org/Graphics/SVG/1.1/DTD/svg11.dtd">
<!-- Generated by graphviz version 2.43.0 (0)
 -->
<!-- Title: servio::fw::context Pages: 1 -->
<svg width="545pt" height="643pt"
 viewBox="0.00 0.00 545.00 643.00" xmlns="http://www.w3.org/2000/svg" xmlns:xlink="http://www.w3.org/1999/xlink">
<g id="graph0" class="graph" transform="scale(1 1) rotate(0) translate(4 639)">
<title>servio::fw::context</title>
<polygon fill="white" stroke="transparent" points="-4,4 -4,-639 541,-639 541,4 -4,4"/>
<!-- Node1 -->
<g id="node1" class="node">
<title>Node1</title>
<g id="a_node1"><a xlink:title=" ">
<polygon fill="#bfbfbf" stroke="black" points="431,-513.5 431,-532.5 537,-532.5 537,-513.5 431,-513.5"/>
<text text-anchor="middle" x="484" y="-520.5" font-family="Helvetica,sans-Serif" font-size="10.00">servio::fw::context</text>
</a>
</g>
</g>
<!-- Node2 -->
<g id="node2" class="node">
<title>Node2</title>
<g id="a_node2"><a xlink:href="structservio_1_1cfg_1_1dispatcher.html" target="_top" xlink:title=" ">
<polygon fill="white" stroke="black" points="232,-489.5 232,-508.5 357,-508.5 357,-489.5 232,-489.5"/>
<text text-anchor="middle" x="294.5" y="-496.5" font-family="Helvetica,sans-Serif" font-size="10.00">servio::cfg::dispatcher</text>
</a>
</g>
</g>
<!-- Node2&#45;&gt;Node1 -->
<g id="edge1" class="edge">
<title>Node2&#45;&gt;Node1</title>
<path fill="none" stroke="#9a32cd" stroke-dasharray="5,2" d="M367.07,-508.16C388.25,-510.87 411.02,-513.79 430.73,-516.31"/>
<polygon fill="#9a32cd" stroke="#9a32cd" points="367.52,-504.69 357.15,-506.89 366.63,-511.63 367.52,-504.69"/>
<text text-anchor="middle" x="394" y="-516" font-family="Helvetica,sans-Serif" font-size="10.00"> cfg_dis</text>
</g>
<!-- Node3 -->
<g id="node3" class="node">
<title>Node3</title>
<g id="a_node3"><a xlink:href="structservio_1_1drv_1_1pos__iface.html" target="_top" xlink:title=" ">
<polygon fill="white" stroke="black" points="6,-469.5 6,-488.5 126,-488.5 126,-469.5 6,-469.5"/>
<text text-anchor="middle" x="66" y="-476.5" font-family="Helvetica,sans-Serif" font-size="10.00">servio::drv::pos_iface</text>
</a>
</g>
</g>
<!-- Node3&#45;&gt;Node2 -->
<g id="edge2" class="edge">
<title>Node3&#45;&gt;Node2</title>
<path fill="none" stroke="#9a32cd" stroke-dasharray="5,2" d="M136.34,-485.12C166.82,-487.81 202.32,-490.95 231.87,-493.56"/>
<polygon fill="#9a32cd" stroke="#9a32cd" points="136.48,-481.62 126.21,-484.23 135.87,-488.59 136.48,-481.62"/>
<text text-anchor="middle" x="182" y="-494" font-family="Helvetica,sans-Serif" font-size="10.00"> pos</text>
</g>
<!-- Node17 -->
<g id="node9" class="node">
<title>Node17</title>
<g id="a_node9"><a xlink:href="structservio_1_1core_1_1drivers.html" target="_top" xlink:title=" ">
<polygon fill="white" stroke="black" points="238,-240.5 238,-259.5 351,-259.5 351,-240.5 238,-240.5"/>
<text text-anchor="middle" x="294.5" y="-247.5" font-family="Helvetica,sans-Serif" font-size="10.00">servio::core::drivers</text>
</a>
</g>
</g>
<!-- Node3&#45;&gt;Node17 -->
<g id="edge11" class="edge">
<title>Node3&#45;&gt;Node17</title>
<path fill="none" stroke="#9a32cd" stroke-dasharray="5,2" d="M136.12,-468.24C168.2,-462.03 201.9,-453.4 214,-443 272.81,-392.44 288.85,-291.54 292.53,-259.8"/>
<polygon fill="#9a32cd" stroke="#9a32cd" points="135.43,-464.81 126.24,-470.08 136.71,-471.69 135.43,-464.81"/>
<text text-anchor="middle" x="182" y="-468" font-family="Helvetica,sans-Serif" font-size="10.00"> position</text>
</g>
<!-- Node4 -->
<g id="node4" class="node">
<title>Node4</title>
<g id="a_node4"><a xlink:href="structservio_1_1drv_1_1pwm__motor__iface.html" target="_top" xlink:title=" ">
<polygon fill="white" stroke="black" points="0,-416 0,-446 132,-446 132,-416 0,-416"/>
<text text-anchor="start" x="8" y="-434" font-family="Helvetica,sans-Serif" font-size="10.00">servio::drv::pwm_motor</text>
<text text-anchor="middle" x="66" y="-423" font-family="Helvetica,sans-Serif" font-size="10.00">_iface</text>
</a>
</g>
</g>
<!-- Node4&#45;&gt;Node2 -->
<g id="edge3" class="edge">
<title>Node4&#45;&gt;Node2</title>
<path fill="none" stroke="#9a32cd" stroke-dasharray="5,2" d="M142.33,-421.71C165.89,-421.37 191.58,-423.73 214,-432 245.5,-443.62 273.19,-473.73 285.98,-489.32"/>
<polygon fill="#9a32cd" stroke="#9a32cd" points="141.91,-418.22 132.02,-422.03 142.13,-425.22 141.91,-418.22"/>
<text text-anchor="middle" x="182" y="-435" font-family="Helvetica,sans-Serif" font-size="10.00"> motor</text>
</g>
<!-- Node4&#45;&gt;Node17 -->
<g id="edge14" class="edge">
<title>Node4&#45;&gt;Node17</title>
<path fill="none" stroke="#9a32cd" stroke-dasharray="5,2" d="M125.74,-412.82C160.26,-401.35 199.83,-386.56 214,-375 254.46,-342 280.74,-282.74 289.89,-259.61"/>
<polygon fill="#9a32cd" stroke="#9a32cd" points="124.58,-409.52 116.17,-415.97 126.76,-416.17 124.58,-409.52"/>
<text text-anchor="middle" x="182" y="-407" font-family="Helvetica,sans-Serif" font-size="10.00"> motor</text>
</g>
<!-- Node5 -->
<g id="node5" class="node">
<title>Node5</title>
<g id="a_node5"><a xlink:href="structservio_1_1core_1_1core.html" target="_top" xlink:title=" ">
<polygon fill="white" stroke="red" points="15.5,-615.5 15.5,-634.5 116.5,-634.5 116.5,-615.5 15.5,-615.5"/>
<text text-anchor="middle" x="66" y="-622.5" font-family="Helvetica,sans-Serif" font-size="10.00">servio::core::core</text>
</a>
</g>
</g>
<!-- Node5&#45;&gt;Node1 -->
<g id="edge5" class="edge">
<title>Node5&#45;&gt;Node1</title>
<path fill="none" stroke="#9a32cd" stroke-dasharray="5,2" d="M126.74,-623.15C153.6,-621.55 185.59,-618.56 214,-613 305.18,-595.17 325.45,-580.1 413,-549 427.9,-543.71 444.5,-537.55 457.79,-532.56"/>
<polygon fill="#9a32cd" stroke="#9a32cd" points="126.51,-619.66 116.71,-623.7 126.89,-626.65 126.51,-619.66"/>
<text text-anchor="middle" x="294.5" y="-611" font-family="Helvetica,sans-Serif" font-size="10.00"> core</text>
</g>
<!-- Node5&#45;&gt;Node2 -->
<g id="edge4" class="edge">
<title>Node5&#45;&gt;Node2</title>
<path fill="none" stroke="#9a32cd" stroke-dasharray="5,2" d="M110,-612.61C152,-600.35 210.18,-582.86 214,-579 233.57,-559.2 212.54,-538.91 232,-519 236.24,-514.66 241.42,-511.27 246.97,-508.61"/>
<polygon fill="#9a32cd" stroke="#9a32cd" points="108.87,-609.3 100.24,-615.45 110.82,-616.02 108.87,-609.3"/>
<text text-anchor="middle" x="182" y="-603" font-family="Helvetica,sans-Serif" font-size="10.00"> c</text>
</g>
<!-- Node12 -->
<g id="node6" class="node">
<title>Node12</title>
<g id="a_node6"><a xlink:href="structservio_1_1core_1_1standard__callbacks.html" target="_top" xlink:title=" ">
<polygon fill="white" stroke="black" points="233.5,-528 233.5,-558 355.5,-558 355.5,-528 233.5,-528"/>
<text text-anchor="start" x="241.5" y="-546" font-family="Helvetica,sans-Serif" font-size="10.00">servio::core::standard</text>
<text text-anchor="middle" x="294.5" y="-535" font-family="Helvetica,sans-Serif" font-size="10.00">_callbacks</text>
</a>
</g>
</g>
<!-- Node12&#45;&gt;Node1 -->
<g id="edge6" class="edge">
<title>Node12&#45;&gt;Node1</title>
<path fill="none" stroke="#9a32cd" stroke-dasharray="5,2" d="M365.7,-535.51C387.29,-533.21 410.66,-530.72 430.81,-528.57"/>
<polygon fill="#9a32cd" stroke="#9a32cd" points="365.17,-532.05 355.6,-536.59 365.91,-539.01 365.17,-532.05"/>
<text text-anchor="middle" x="394" y="-537" font-family="Helvetica,sans-Serif" font-size="10.00"> scbs</text>
</g>
<!-- Node13 -->
<g id="node7" class="node">
<title>Node13</title>
<g id="a_node7"><a xlink:href="classservio_1_1core_1_1position__callback.html" target="_top" xlink:title=" ">
<polygon fill="white" stroke="red" points="6.5,-564 6.5,-594 125.5,-594 125.5,-564 6.5,-564"/>
<text text-anchor="start" x="14.5" y="-582" font-family="Helvetica,sans-Serif" font-size="10.00">servio::core::position</text>
<text text-anchor="middle" x="66" y="-571" font-family="Helvetica,sans-Serif" font-size="10.00">_callback</text>
</a>
</g>
</g>
<!-- Node13&#45;&gt;Node12 -->
<g id="edge7" class="edge">
<title>Node13&#45;&gt;Node12</title>
<path fill="none" stroke="#9a32cd" stroke-dasharray="5,2" d="M135.52,-568.11C166.62,-563.17 203.09,-557.37 233.15,-552.59"/>
<polygon fill="#9a32cd" stroke="#9a32cd" points="134.95,-564.66 125.62,-569.68 136.05,-571.57 134.95,-564.66"/>
<text text-anchor="middle" x="182" y="-568" font-family="Helvetica,sans-Serif" font-size="10.00"> pos_cb</text>
</g>
<!-- Node15 -->
<g id="node8" class="node">
<title>Node15</title>
<g id="a_node8"><a xlink:href="classservio_1_1core_1_1current__callback.html" target="_top" xlink:title=" ">
<polygon fill="white" stroke="red" points="9,-515 9,-545 123,-545 123,-515 9,-515"/>
<text text-anchor="start" x="17" y="-533" font-family="Helvetica,sans-Serif" font-size="10.00">servio::core::current</text>
<text text-anchor="middle" x="66" y="-522" font-family="Helvetica,sans-Serif" font-size="10.00">_callback</text>
</a>
</g>
</g>
<!-- Node15&#45;&gt;Node12 -->
<g id="edge8" class="edge">
<title>Node15&#45;&gt;Node12</title>
<path fill="none" stroke="#9a32cd" stroke-dasharray="5,2" d="M133.45,-530.6C158.7,-531.15 187.7,-532.16 214,-534 220.24,-534.44 226.74,-535 233.21,-535.63"/>
<polygon fill="#9a32cd" stroke="#9a32cd" points="133.31,-527.1 123.25,-530.4 133.18,-534.1 133.31,-527.1"/>
<text text-anchor="middle" x="182" y="-537" font-family="Helvetica,sans-Serif" font-size="10.00"> current_cb</text>
</g>
<!-- Node17&#45;&gt;Node1 -->
<g id="edge9" class="edge">
<title>Node17&#45;&gt;Node1</title>
<path fill="none" stroke="#9a32cd" stroke-dasharray="5,2" d="M307.93,-268.1C344.2,-320.91 449.05,-473.57 476.41,-513.4"/>
<polygon fill="#9a32cd" stroke="#9a32cd" points="310.72,-265.98 302.17,-259.72 304.95,-269.94 310.72,-265.98"/>
<text text-anchor="middle" x="394" y="-421" font-family="Helvetica,sans-Serif" font-size="10.00"> cdrv</text>
</g>
<!-- Node18 -->
<g id="node10" class="node">
<title>Node18</title>
<g id="a_node10"><a xlink:href="structservio_1_1drv_1_1period__iface.html" target="_top" xlink:title=" ">
<polygon fill="white" stroke="black" points="14,-279 14,-309 118,-309 118,-279 14,-279"/>
<text text-anchor="start" x="22" y="-297" font-family="Helvetica,sans-Serif" font-size="10.00">servio::drv::period</text>
<text text-anchor="middle" x="66" y="-286" font-family="Helvetica,sans-Serif" font-size="10.00">_iface</text>
</a>
</g>
</g>
<!-- Node18&#45;&gt;Node17 -->
<g id="edge10" class="edge">
<title>Node18&#45;&gt;Node17</title>
<path fill="none" stroke="#9a32cd" stroke-dasharray="5,2" d="M128.15,-282.12C164.66,-275.03 210.4,-266.14 244.52,-259.52"/>
<polygon fill="#9a32cd" stroke="#9a32cd" points="127.26,-278.73 118.11,-284.07 128.6,-285.6 127.26,-278.73"/>
<text text-anchor="middle" x="182" y="-280" font-family="Helvetica,sans-Serif" font-size="10.00"> period</text>
</g>
<!-- Node19 -->
<g id="node11" class="node">
<title>Node19</title>
<g id="a_node11"><a xlink:href="namespaceservio_1_1cfg.html#structservio_1_1cfg_1_1context" target="_top" xlink:title=" ">
<polygon fill="white" stroke="red" points="11,-240.5 11,-259.5 121,-259.5 121,-240.5 11,-240.5"/>
<text text-anchor="middle" x="66" y="-247.5" font-family="Helvetica,sans-Serif" font-size="10.00">servio::cfg::context</text>
</a>
</g>
</g>
<!-- Node19&#45;&gt;Node17 -->
<g id="edge12" class="edge">
<title>Node19&#45;&gt;Node17</title>
<path fill="none" stroke="#9a32cd" stroke-dasharray="5,2" d="M131.42,-250C164.95,-250 205.55,-250 237.72,-250"/>
<polygon fill="#9a32cd" stroke="#9a32cd" points="131.25,-246.5 121.25,-250 131.25,-253.5 131.25,-246.5"/>
<text text-anchor="middle" x="182" y="-253" font-family="Helvetica,sans-Serif" font-size="10.00"> cfg</text>
</g>
<!-- Node21 -->
<g id="node12" class="node">
<title>Node21</title>
<g id="a_node12"><a xlink:href="structservio_1_1drv_1_1clk__iface.html" target="_top" xlink:title=" ">
<polygon fill="white" stroke="black" points="7.5,-202.5 7.5,-221.5 124.5,-221.5 124.5,-202.5 7.5,-202.5"/>
<text text-anchor="middle" x="66" y="-209.5" font-family="Helvetica,sans-Serif" font-size="10.00">servio::drv::clk_iface</text>
</a>
</g>
</g>
<!-- Node21&#45;&gt;Node17 -->
<g id="edge13" class="edge">
<title>Node21&#45;&gt;Node17</title>
<path fill="none" stroke="#9a32cd" stroke-dasharray="5,2" d="M134.76,-222.15C159.7,-226 188.16,-230.54 214,-235 223.83,-236.7 234.32,-238.6 244.35,-240.48"/>
<polygon fill="#9a32cd" stroke="#9a32cd" points="135.08,-218.66 124.66,-220.6 134.02,-225.58 135.08,-218.66"/>
<text text-anchor="middle" x="182" y="-238" font-family="Helvetica,sans-Serif" font-size="10.00"> clock</text>
</g>
<!-- Node22 -->
<g id="node13" class="node">
<title>Node22</title>
<g id="a_node13"><a xlink:href="structservio_1_1drv_1_1vcc__iface.html" target="_top" xlink:title=" ">
<polygon fill="white" stroke="black" points="6.5,-164.5 6.5,-183.5 125.5,-183.5 125.5,-164.5 6.5,-164.5"/>
<text text-anchor="middle" x="66" y="-171.5" font-family="Helvetica,sans-Serif" font-size="10.00">servio::drv::vcc_iface</text>
</a>
</g>
</g>
<!-- Node22&#45;&gt;Node17 -->
<g id="edge15" class="edge">
<title>Node22&#45;&gt;Node17</title>
<path fill="none" stroke="#9a32cd" stroke-dasharray="5,2" d="M128.2,-185.74C154.95,-191.7 186.46,-199.85 214,-210 236.76,-218.39 261.5,-231.53 277.24,-240.44"/>
<polygon fill="#9a32cd" stroke="#9a32cd" points="128.71,-182.27 118.19,-183.56 127.22,-189.11 128.71,-182.27"/>
<text text-anchor="middle" x="182" y="-213" font-family="Helvetica,sans-Serif" font-size="10.00"> vcc</text>
</g>
<!-- Node23 -->
<g id="node14" class="node">
<title>Node23</title>
<g id="a_node14"><a xlink:href="structservio_1_1drv_1_1leds__iface.html" target="_top" xlink:title=" ">
<polygon fill="white" stroke="black" points="4.5,-126.5 4.5,-145.5 127.5,-145.5 127.5,-126.5 4.5,-126.5"/>
<text text-anchor="middle" x="66" y="-133.5" font-family="Helvetica,sans-Serif" font-size="10.00">servio::drv::leds_iface</text>
</a>
</g>
</g>
<!-- Node23&#45;&gt;Node17 -->
<g id="edge16" class="edge">
<title>Node23&#45;&gt;Node17</title>
<path fill="none" stroke="#9a32cd" stroke-dasharray="5,2" d="M137.39,-147.23C162.61,-153.14 190.58,-161.97 214,-175 245.01,-192.25 273.13,-224.32 286.04,-240.35"/>
<polygon fill="#9a32cd" stroke="#9a32cd" points="138.03,-143.78 127.51,-145.02 136.51,-150.61 138.03,-143.78"/>
<text text-anchor="middle" x="182" y="-178" font-family="Helvetica,sans-Serif" font-size="10.00"> leds</text>
</g>
<!-- Node24 -->
<g id="node15" class="node">
<title>Node24</title>
<g id="a_node15"><a xlink:href="structservio_1_1drv_1_1period__cb__iface.html" target="_top" xlink:title=" ">
<polygon fill="white" stroke="black" points="14,-77 14,-107 118,-107 118,-77 14,-77"/>
<text text-anchor="start" x="22" y="-95" font-family="Helvetica,sans-Serif" font-size="10.00">servio::drv::period</text>
<text text-anchor="middle" x="66" y="-84" font-family="Helvetica,sans-Serif" font-size="10.00">_cb_iface</text>
</a>
</g>
</g>
<!-- Node24&#45;&gt;Node17 -->
<g id="edge17" class="edge">
<title>Node24&#45;&gt;Node17</title>
<path fill="none" stroke="#9a32cd" stroke-dasharray="5,2" d="M128.2,-100.28C156.34,-106.38 188.94,-116.91 214,-135 253.56,-163.55 280.01,-218.16 289.55,-240.31"/>
<polygon fill="#9a32cd" stroke="#9a32cd" points="128.56,-96.78 118.06,-98.23 127.17,-103.64 128.56,-96.78"/>
<text text-anchor="middle" x="182" y="-138" font-family="Helvetica,sans-Serif" font-size="10.00"> period_cb</text>
</g>
<!-- Node25 -->
<g id="node16" class="node">
<title>Node25</title>
<g id="a_node16"><a xlink:href="structservio_1_1drv_1_1temp__iface.html" target="_top" xlink:title=" ">
<polygon fill="white" stroke="black" points="2,-38.5 2,-57.5 130,-57.5 130,-38.5 2,-38.5"/>
<text text-anchor="middle" x="66" y="-45.5" font-family="Helvetica,sans-Serif" font-size="10.00">servio::drv::temp_iface</text>
</a>
</g>
</g>
<!-- Node25&#45;&gt;Node17 -->
<g id="edge18" class="edge">
<title>Node25&#45;&gt;Node17</title>
<path fill="none" stroke="#9a32cd" stroke-dasharray="5,2" d="M140.35,-57.17C165.88,-63.35 193.28,-73.69 214,-91 263.74,-132.55 285.37,-212.93 291.54,-240.47"/>
<polygon fill="#9a32cd" stroke="#9a32cd" points="140.82,-53.69 130.3,-54.92 139.3,-60.52 140.82,-53.69"/>
<text text-anchor="middle" x="182" y="-94" font-family="Helvetica,sans-Serif" font-size="10.00"> temperature</text>
</g>
<!-- Node26 -->
<g id="node17" class="node">
<title>Node26</title>
<g id="a_node17"><a xlink:href="structservio_1_1drv_1_1curr__iface.html" target="_top" xlink:title=" ">
<polygon fill="white" stroke="black" points="5,-0.5 5,-19.5 127,-19.5 127,-0.5 5,-0.5"/>
<text text-anchor="middle" x="66" y="-7.5" font-family="Helvetica,sans-Serif" font-size="10.00">servio::drv::curr_iface</text>
</a>
</g>
</g>
<!-- Node26&#45;&gt;Node17 -->
<g id="edge19" class="edge">
<title>Node26&#45;&gt;Node17</title>
<path fill="none" stroke="#9a32cd" stroke-dasharray="5,2" d="M137.38,-13.63C164.03,-18.24 192.97,-27.57 214,-46 275.46,-99.87 289.76,-207.14 292.76,-240.12"/>
<polygon fill="#9a32cd" stroke="#9a32cd" points="137.72,-10.14 127.31,-12.09 136.66,-17.06 137.72,-10.14"/>
<text text-anchor="middle" x="182" y="-49" font-family="Helvetica,sans-Serif" font-size="10.00"> current</text>
</g>
<!-- Node27 -->
<g id="node18" class="node">
<title>Node27</title>
<g id="a_node18"><a xlink:href="structservio_1_1drv_1_1com__iface.html" target="_top" xlink:title=" ">
<polygon fill="white" stroke="black" points="4,-377.5 4,-396.5 128,-396.5 128,-377.5 4,-377.5"/>
<text text-anchor="middle" x="66" y="-384.5" font-family="Helvetica,sans-Serif" font-size="10.00">servio::drv::com_iface</text>
</a>
</g>
</g>
<!-- Node27&#45;&gt;Node17 -->
<g id="edge20" class="edge">
<title>Node27&#45;&gt;Node17</title>
<path fill="none" stroke="#9a32cd" stroke-dasharray="5,2" d="M113.03,-374.41C119.45,-372.41 125.92,-370.25 132,-368 169.5,-354.14 181.21,-353.88 214,-331 244.38,-309.8 273.01,-276.05 286.08,-259.62"/>
<polygon fill="#9a32cd" stroke="#9a32cd" points="111.61,-371.19 103.05,-377.43 113.64,-377.89 111.61,-371.19"/>
<text text-anchor="middle" x="182" y="-364" font-family="Helvetica,sans-Serif" font-size="10.00"> comms</text>
</g>
<!-- Node28 -->
<g id="node19" class="node">
<title>Node28</title>
<g id="a_node19"><a xlink:href="structservio_1_1drv_1_1storage__iface.html" target="_top" xlink:title=" ">
<polygon fill="white" stroke="black" points="11,-328 11,-358 121,-358 121,-328 11,-328"/>
<text text-anchor="start" x="19" y="-346" font-family="Helvetica,sans-Serif" font-size="10.00">servio::drv::storage</text>
<text text-anchor="middle" x="66" y="-335" font-family="Helvetica,sans-Serif" font-size="10.00">_iface</text>
</a>
</g>
</g>
<!-- Node28&#45;&gt;Node17 -->
<g id="edge21" class="edge">
<title>Node28&#45;&gt;Node17</title>
<path fill="none" stroke="#9a32cd" stroke-dasharray="5,2" d="M126.12,-324.77C153.27,-315.82 185.65,-304.32 214,-292 236.48,-282.23 261.29,-268.65 277.11,-259.6"/>
<polygon fill="#9a32cd" stroke="#9a32cd" points="124.8,-321.52 116.38,-327.95 126.97,-328.17 124.8,-321.52"/>
<text text-anchor="middle" x="182" y="-319" font-family="Helvetica,sans-Serif" font-size="10.00"> storage</text>
</g>
</g>
</svg>
