<?xml version="1.0" encoding="UTF-8" standalone="no"?>
<!DOCTYPE svg PUBLIC "-//W3C//DTD SVG 1.1//EN"
 "http://www.w3.org/Graphics/SVG/1.1/DTD/svg11.dtd">
<!-- Generated by graphviz version 2.43.0 (0)
 -->
<!-- Title: servio::fw::context Pages: 1 -->
<svg width="529pt" height="762pt"
 viewBox="0.00 0.00 529.00 761.50" xmlns="http://www.w3.org/2000/svg" xmlns:xlink="http://www.w3.org/1999/xlink">
<g id="graph0" class="graph" transform="scale(1 1) rotate(0) translate(4 757.5)">
<title>servio::fw::context</title>
<!-- Node1 -->
<g id="Node000001" class="node">
<title>Node1</title>
<g id="a_Node000001"><a xlink:title=" ">
<polygon fill="#999999" stroke="#666666" points="521,-189.5 415,-189.5 415,-170.5 521,-170.5 521,-189.5"/>
<text text-anchor="middle" x="468" y="-177.5" font-family="Helvetica,sans-Serif" font-size="10.00">servio::fw::context</text>
</a>
</g>
</g>
<!-- Node2 -->
<g id="Node000002" class="node">
<title>Node2</title>
<g id="a_Node000002"><a xlink:href="structservio_1_1core_1_1drivers.html" target="_top" xlink:title=" ">
<polygon fill="white" stroke="#666666" points="349.5,-519.5 236.5,-519.5 236.5,-500.5 349.5,-500.5 349.5,-519.5"/>
<text text-anchor="middle" x="293" y="-507.5" font-family="Helvetica,sans-Serif" font-size="10.00">servio::core::drivers</text>
</a>
</g>
</g>
<!-- Node2&#45;&gt;Node1 -->
<g id="edge1_Node000001_Node000002" class="edge">
<title>Node2&#45;&gt;Node1</title>
<g id="a_edge1_Node000001_Node000002"><a xlink:title=" ">
<path fill="none" stroke="#9a32cd" stroke-dasharray="5,2" d="M303.67,-491.55C335.78,-430.3 438.12,-235.09 461.99,-189.56"/>
<polygon fill="#9a32cd" stroke="#9a32cd" points="300.53,-490 298.99,-500.48 306.73,-493.25 300.53,-490"/>
</a>
</g>
<text text-anchor="middle" x="384.5" y="-357" font-family="Helvetica,sans-Serif" font-size="10.00" fill="grey"> cdrv</text>
</g>
<!-- Node3 -->
<g id="Node000003" class="node">
<title>Node3</title>
<g id="a_Node000003"><a xlink:href="namespaceservio_1_1cfg.html#structservio_1_1cfg_1_1context" target="_top" xlink:title=" ">
<polygon fill="#fff0f0" stroke="red" points="121,-753.5 11,-753.5 11,-734.5 121,-734.5 121,-753.5"/>
<text text-anchor="middle" x="66" y="-741.5" font-family="Helvetica,sans-Serif" font-size="10.00">servio::cfg::context</text>
</a>
</g>
</g>
<!-- Node3&#45;&gt;Node2 -->
<g id="edge2_Node000002_Node000003" class="edge">
<title>Node3&#45;&gt;Node2</title>
<g id="a_edge2_Node000002_Node000003"><a xlink:title=" ">
<path fill="none" stroke="#9a32cd" stroke-dasharray="5,2" d="M131.38,-739.79C159.6,-734.95 191.38,-725.03 214,-705 272.41,-653.27 287.67,-551.76 291.11,-519.85"/>
<polygon fill="#9a32cd" stroke="#9a32cd" points="130.52,-736.38 121.17,-741.35 131.58,-743.3 130.52,-736.38"/>
</a>
</g>
<text text-anchor="middle" x="182" y="-738" font-family="Helvetica,sans-Serif" font-size="10.00" fill="grey"> cfg</text>
</g>
<!-- Node5 -->
<g id="Node000005" class="node">
<title>Node5</title>
<g id="a_Node000005"><a xlink:href="structservio_1_1drv_1_1storage__iface.html" target="_top" xlink:title=" ">
<polygon fill="white" stroke="#666666" points="121,-716 11,-716 11,-686 121,-686 121,-716"/>
<text text-anchor="start" x="19" y="-704" font-family="Helvetica,sans-Serif" font-size="10.00">servio::drv::storage</text>
<text text-anchor="middle" x="66" y="-693" font-family="Helvetica,sans-Serif" font-size="10.00">_iface</text>
</a>
</g>
</g>
<!-- Node5&#45;&gt;Node2 -->
<g id="edge3_Node000002_Node000005" class="edge">
<title>Node5&#45;&gt;Node2</title>
<g id="a_edge3_Node000002_Node000005"><a xlink:title=" ">
<path fill="none" stroke="#9a32cd" stroke-dasharray="5,2" d="M131.19,-695.17C159.08,-689.88 190.64,-679.88 214,-661 261.73,-622.42 283.39,-546.85 289.84,-519.87"/>
<polygon fill="#9a32cd" stroke="#9a32cd" points="130.37,-691.76 121.11,-696.91 131.56,-698.66 130.37,-691.76"/>
</a>
</g>
<text text-anchor="middle" x="182" y="-693" font-family="Helvetica,sans-Serif" font-size="10.00" fill="grey"> storage</text>
</g>
<!-- Node6 -->
<g id="Node000006" class="node">
<title>Node6</title>
<g id="a_Node000006"><a xlink:href="structservio_1_1drv_1_1clk__iface.html" target="_top" xlink:title=" ">
<polygon fill="white" stroke="#666666" points="124.5,-667.5 7.5,-667.5 7.5,-648.5 124.5,-648.5 124.5,-667.5"/>
<text text-anchor="middle" x="66" y="-655.5" font-family="Helvetica,sans-Serif" font-size="10.00">servio::drv::clk_iface</text>
</a>
</g>
</g>
<!-- Node6&#45;&gt;Node2 -->
<g id="edge4_Node000002_Node000006" class="edge">
<title>Node6&#45;&gt;Node2</title>
<g id="a_edge4_Node000002_Node000006"><a xlink:title=" ">
<path fill="none" stroke="#9a32cd" stroke-dasharray="5,2" d="M134.61,-650.68C161.12,-645.32 190.71,-636.05 214,-620 252.55,-593.43 278.47,-541.24 287.97,-519.67"/>
<polygon fill="#9a32cd" stroke="#9a32cd" points="133.8,-647.27 124.61,-652.54 135.09,-654.15 133.8,-647.27"/>
</a>
</g>
<text text-anchor="middle" x="182" y="-649" font-family="Helvetica,sans-Serif" font-size="10.00" fill="grey"> clock</text>
</g>
<!-- Node7 -->
<g id="Node000007" class="node">
<title>Node7</title>
<g id="a_Node000007"><a xlink:href="structservio_1_1drv_1_1pos__iface.html" target="_top" xlink:title=" ">
<polygon fill="#fff0f0" stroke="red" points="126,-630.5 6,-630.5 6,-611.5 126,-611.5 126,-630.5"/>
<text text-anchor="middle" x="66" y="-618.5" font-family="Helvetica,sans-Serif" font-size="10.00">servio::drv::pos_iface</text>
</a>
</g>
</g>
<!-- Node7&#45;&gt;Node2 -->
<g id="edge5_Node000002_Node000007" class="edge">
<title>Node7&#45;&gt;Node2</title>
<g id="a_edge5_Node000002_Node000007"><a xlink:title=" ">
<path fill="none" stroke="#9a32cd" stroke-dasharray="5,2" d="M136,-609.94C161.55,-604.02 190.1,-595.13 214,-582 244.04,-565.49 271.61,-534.97 284.43,-519.5"/>
<polygon fill="#9a32cd" stroke="#9a32cd" points="135.02,-606.58 126,-612.15 136.52,-613.41 135.02,-606.58"/>
</a>
</g>
<text text-anchor="middle" x="182" y="-608" font-family="Helvetica,sans-Serif" font-size="10.00" fill="grey"> position</text>
</g>
<!-- Node9 -->
<g id="Node000009" class="node">
<title>Node9</title>
<g id="a_Node000009"><a xlink:href="structservio_1_1drv_1_1curr__iface.html" target="_top" xlink:title=" ">
<polygon fill="#fff0f0" stroke="red" points="127,-593.5 5,-593.5 5,-574.5 127,-574.5 127,-593.5"/>
<text text-anchor="middle" x="66" y="-581.5" font-family="Helvetica,sans-Serif" font-size="10.00">servio::drv::curr_iface</text>
</a>
</g>
</g>
<!-- Node9&#45;&gt;Node2 -->
<g id="edge6_Node000002_Node000009" class="edge">
<title>Node9&#45;&gt;Node2</title>
<g id="a_edge6_Node000002_Node000009"><a xlink:title=" ">
<path fill="none" stroke="#9a32cd" stroke-dasharray="5,2" d="M129.79,-572.38C156.2,-566.64 187,-558.82 214,-549 236.2,-540.93 260.31,-528.21 275.75,-519.51"/>
<polygon fill="#9a32cd" stroke="#9a32cd" points="128.96,-568.98 119.9,-574.47 130.41,-575.82 128.96,-568.98"/>
</a>
</g>
<text text-anchor="middle" x="182" y="-570" font-family="Helvetica,sans-Serif" font-size="10.00" fill="grey"> current</text>
</g>
<!-- Node11 -->
<g id="Node000011" class="node">
<title>Node11</title>
<g id="a_Node000011"><a xlink:href="structservio_1_1drv_1_1vcc__iface.html" target="_top" xlink:title=" ">
<polygon fill="white" stroke="#666666" points="125.5,-556.5 6.5,-556.5 6.5,-537.5 125.5,-537.5 125.5,-556.5"/>
<text text-anchor="middle" x="66" y="-544.5" font-family="Helvetica,sans-Serif" font-size="10.00">servio::drv::vcc_iface</text>
</a>
</g>
</g>
<!-- Node11&#45;&gt;Node2 -->
<g id="edge7_Node000002_Node000011" class="edge">
<title>Node11&#45;&gt;Node2</title>
<g id="a_edge7_Node000002_Node000011"><a xlink:title=" ">
<path fill="none" stroke="#9a32cd" stroke-dasharray="5,2" d="M135.75,-537.31C160.46,-533.67 188.51,-529.36 214,-525 223.79,-523.33 234.24,-521.41 244.21,-519.52"/>
<polygon fill="#9a32cd" stroke="#9a32cd" points="135.13,-533.87 125.74,-538.78 136.15,-540.79 135.13,-533.87"/>
</a>
</g>
<text text-anchor="middle" x="182" y="-537" font-family="Helvetica,sans-Serif" font-size="10.00" fill="grey"> vcc</text>
</g>
<!-- Node12 -->
<g id="Node000012" class="node">
<title>Node12</title>
<g id="a_Node000012"><a xlink:href="structservio_1_1drv_1_1temp__iface.html" target="_top" xlink:title=" ">
<polygon fill="white" stroke="#666666" points="130,-519.5 2,-519.5 2,-500.5 130,-500.5 130,-519.5"/>
<text text-anchor="middle" x="66" y="-507.5" font-family="Helvetica,sans-Serif" font-size="10.00">servio::drv::temp_iface</text>
</a>
</g>
</g>
<!-- Node12&#45;&gt;Node2 -->
<g id="edge8_Node000002_Node000012" class="edge">
<title>Node12&#45;&gt;Node2</title>
<g id="a_edge8_Node000002_Node000012"><a xlink:title=" ">
<path fill="none" stroke="#9a32cd" stroke-dasharray="5,2" d="M140.66,-510C171.84,-510 207.56,-510 236.47,-510"/>
<polygon fill="#9a32cd" stroke="#9a32cd" points="140.27,-506.5 130.27,-510 140.27,-513.5 140.27,-506.5"/>
</a>
</g>
<text text-anchor="middle" x="182" y="-513" font-family="Helvetica,sans-Serif" font-size="10.00" fill="grey"> temperature</text>
</g>
<!-- Node13 -->
<g id="Node000013" class="node">
<title>Node13</title>
<g id="a_Node000013"><a xlink:href="structservio_1_1drv_1_1period__cb__iface.html" target="_top" xlink:title=" ">
<polygon fill="white" stroke="#666666" points="118,-482 14,-482 14,-452 118,-452 118,-482"/>
<text text-anchor="start" x="22" y="-470" font-family="Helvetica,sans-Serif" font-size="10.00">servio::drv::period</text>
<text text-anchor="middle" x="66" y="-459" font-family="Helvetica,sans-Serif" font-size="10.00">_cb_iface</text>
</a>
</g>
</g>
<!-- Node13&#45;&gt;Node2 -->
<g id="edge9_Node000002_Node000013" class="edge">
<title>Node13&#45;&gt;Node2</title>
<g id="a_edge9_Node000002_Node000013"><a xlink:title=" ">
<path fill="none" stroke="#9a32cd" stroke-dasharray="5,2" d="M127.91,-478.58C154.37,-483.61 185.72,-489.59 214,-495 223.21,-496.76 233.03,-498.65 242.49,-500.46"/>
<polygon fill="#9a32cd" stroke="#9a32cd" points="128.51,-475.13 118.03,-476.7 127.2,-482 128.51,-475.13"/>
</a>
</g>
<text text-anchor="middle" x="182" y="-498" font-family="Helvetica,sans-Serif" font-size="10.00" fill="grey"> period_cb</text>
</g>
<!-- Node14 -->
<g id="Node000014" class="node">
<title>Node14</title>
<g id="a_Node000014"><a xlink:href="structservio_1_1drv_1_1pwm__motor__iface.html" target="_top" xlink:title=" ">
<polygon fill="#fff0f0" stroke="red" points="132,-434 0,-434 0,-404 132,-404 132,-434"/>
<text text-anchor="start" x="8" y="-422" font-family="Helvetica,sans-Serif" font-size="10.00">servio::drv::pwm_motor</text>
<text text-anchor="middle" x="66" y="-411" font-family="Helvetica,sans-Serif" font-size="10.00">_iface</text>
</a>
</g>
</g>
<!-- Node14&#45;&gt;Node2 -->
<g id="edge10_Node000002_Node000014" class="edge">
<title>Node14&#45;&gt;Node2</title>
<g id="a_edge10_Node000002_Node000014"><a xlink:title=" ">
<path fill="none" stroke="#9a32cd" stroke-dasharray="5,2" d="M129.08,-437.08C155.63,-445.48 186.73,-456.22 214,-468 236.31,-477.64 260.79,-491.38 276.27,-500.48"/>
<polygon fill="#9a32cd" stroke="#9a32cd" points="130.11,-433.74 119.52,-434.1 128.02,-440.42 130.11,-433.74"/>
</a>
</g>
<text text-anchor="middle" x="182" y="-471" font-family="Helvetica,sans-Serif" font-size="10.00" fill="grey"> motor</text>
</g>
<!-- Node16 -->
<g id="Node000016" class="node">
<title>Node16</title>
<g id="a_Node000016"><a xlink:href="structservio_1_1drv_1_1period__iface.html" target="_top" xlink:title=" ">
<polygon fill="white" stroke="#666666" points="118,-386 14,-386 14,-356 118,-356 118,-386"/>
<text text-anchor="start" x="22" y="-374" font-family="Helvetica,sans-Serif" font-size="10.00">servio::drv::period</text>
<text text-anchor="middle" x="66" y="-363" font-family="Helvetica,sans-Serif" font-size="10.00">_iface</text>
</a>
</g>
</g>
<!-- Node16&#45;&gt;Node2 -->
<g id="edge11_Node000002_Node000016" class="edge">
<title>Node16&#45;&gt;Node2</title>
<g id="a_edge11_Node000002_Node000016"><a xlink:title=" ">
<path fill="none" stroke="#9a32cd" stroke-dasharray="5,2" d="M127.65,-388.12C155.4,-397.62 187.85,-411.16 214,-429 244.32,-449.68 272.17,-483.67 284.83,-500.27"/>
<polygon fill="#9a32cd" stroke="#9a32cd" points="128.65,-384.77 118.05,-384.93 126.44,-391.41 128.65,-384.77"/>
</a>
</g>
<text text-anchor="middle" x="182" y="-432" font-family="Helvetica,sans-Serif" font-size="10.00" fill="grey"> period</text>
</g>
<!-- Node17 -->
<g id="Node000017" class="node">
<title>Node17</title>
<g id="a_Node000017"><a xlink:href="structservio_1_1drv_1_1com__iface.html" target="_top" xlink:title=" ">
<polygon fill="white" stroke="#666666" points="128,-337.5 4,-337.5 4,-318.5 128,-318.5 128,-337.5"/>
<text text-anchor="middle" x="66" y="-325.5" font-family="Helvetica,sans-Serif" font-size="10.00">servio::drv::com_iface</text>
</a>
</g>
</g>
<!-- Node17&#45;&gt;Node2 -->
<g id="edge12_Node000002_Node000017" class="edge">
<title>Node17&#45;&gt;Node2</title>
<g id="a_edge12_Node000002_Node000017"><a xlink:title=" ">
<path fill="none" stroke="#9a32cd" stroke-dasharray="5,2" d="M129.2,-340.21C157.57,-348.27 190.09,-361.31 214,-382 253.94,-416.57 279.59,-476.8 288.49,-500.26"/>
<polygon fill="#9a32cd" stroke="#9a32cd" points="129.92,-336.78 119.36,-337.56 128.1,-343.54 129.92,-336.78"/>
</a>
</g>
<text text-anchor="middle" x="182" y="-385" font-family="Helvetica,sans-Serif" font-size="10.00" fill="grey"> comms</text>
</g>
<!-- Node18 -->
<g id="Node000018" class="node">
<title>Node18</title>
<g id="a_Node000018"><a xlink:href="structservio_1_1drv_1_1leds__iface.html" target="_top" xlink:title=" ">
<polygon fill="white" stroke="#666666" points="127.5,-300.5 4.5,-300.5 4.5,-281.5 127.5,-281.5 127.5,-300.5"/>
<text text-anchor="middle" x="66" y="-288.5" font-family="Helvetica,sans-Serif" font-size="10.00">servio::drv::leds_iface</text>
</a>
</g>
</g>
<!-- Node18&#45;&gt;Node2 -->
<g id="edge13_Node000002_Node000018" class="edge">
<title>Node18&#45;&gt;Node2</title>
<g id="a_edge13_Node000002_Node000018"><a xlink:title=" ">
<path fill="none" stroke="#9a32cd" stroke-dasharray="5,2" d="M137.78,-297.85C164.2,-303.49 192.89,-313.67 214,-332 268.02,-378.89 286.06,-470.19 290.67,-500.19"/>
<polygon fill="#9a32cd" stroke="#9a32cd" points="138.27,-294.38 127.78,-295.9 136.93,-301.25 138.27,-294.38"/>
</a>
</g>
<text text-anchor="middle" x="182" y="-335" font-family="Helvetica,sans-Serif" font-size="10.00" fill="grey"> leds</text>
</g>
<!-- Node19 -->
<g id="Node000019" class="node">
<title>Node19</title>
<g id="a_Node000019"><a xlink:href="structservio_1_1core_1_1core.html" target="_top" xlink:title=" ">
<polygon fill="white" stroke="#666666" points="343.5,-189.5 242.5,-189.5 242.5,-170.5 343.5,-170.5 343.5,-189.5"/>
<text text-anchor="middle" x="293" y="-177.5" font-family="Helvetica,sans-Serif" font-size="10.00">servio::core::core</text>
</a>
</g>
</g>
<!-- Node19&#45;&gt;Node1 -->
<g id="edge14_Node000001_Node000019" class="edge">
<title>Node19&#45;&gt;Node1</title>
<g id="a_edge14_Node000001_Node000019"><a xlink:title=" ">
<path fill="none" stroke="#9a32cd" stroke-dasharray="5,2" d="M353.73,-180C373.56,-180 395.48,-180 414.7,-180"/>
<polygon fill="#9a32cd" stroke="#9a32cd" points="353.57,-176.5 343.57,-180 353.57,-183.5 353.57,-176.5"/>
</a>
</g>
<text text-anchor="middle" x="384.5" y="-183" font-family="Helvetica,sans-Serif" font-size="10.00" fill="grey"> core</text>
</g>
<!-- Node20 -->
<g id="Node000020" class="node">
<title>Node20</title>
<g id="a_Node000020"><a xlink:href="classservio_1_1ctl_1_1control.html" target="_top" xlink:title=" ">
<polygon fill="white" stroke="#666666" points="118,-263.5 14,-263.5 14,-244.5 118,-244.5 118,-263.5"/>
<text text-anchor="middle" x="66" y="-251.5" font-family="Helvetica,sans-Serif" font-size="10.00">servio::ctl::control</text>
</a>
</g>
</g>
<!-- Node20&#45;&gt;Node19 -->
<g id="edge15_Node000019_Node000020" class="edge">
<title>Node20&#45;&gt;Node19</title>
<g id="a_edge15_Node000019_Node000020"><a xlink:title=" ">
<path fill="none" stroke="#9a32cd" stroke-dasharray="5,2" d="M128.19,-242.72C154.95,-236.95 186.45,-229.01 214,-219 236.2,-210.93 260.31,-198.21 275.75,-189.51"/>
<polygon fill="#9a32cd" stroke="#9a32cd" points="127.25,-239.34 118.19,-244.83 128.7,-246.19 127.25,-239.34"/>
</a>
</g>
<text text-anchor="middle" x="182" y="-240" font-family="Helvetica,sans-Serif" font-size="10.00" fill="grey"> ctl</text>
</g>
<!-- Node21 -->
<g id="Node000021" class="node">
<title>Node21</title>
<g id="a_Node000021"><a xlink:href="structservio_1_1cnv_1_1converter.html" target="_top" xlink:title=" ">
<polygon fill="#fff0f0" stroke="red" points="127,-226.5 5,-226.5 5,-207.5 127,-207.5 127,-226.5"/>
<text text-anchor="middle" x="66" y="-214.5" font-family="Helvetica,sans-Serif" font-size="10.00">servio::cnv::converter</text>
</a>
</g>
</g>
<!-- Node21&#45;&gt;Node19 -->
<g id="edge16_Node000019_Node000021" class="edge">
<title>Node21&#45;&gt;Node19</title>
<g id="a_edge16_Node000019_Node000021"><a xlink:title=" ">
<path fill="none" stroke="#9a32cd" stroke-dasharray="5,2" d="M137.38,-207.07C161.69,-203.48 189.07,-199.26 214,-195 223.79,-193.33 234.24,-191.41 244.21,-189.52"/>
<polygon fill="#9a32cd" stroke="#9a32cd" points="136.55,-203.66 127.17,-208.57 137.57,-210.58 136.55,-203.66"/>
</a>
</g>
<text text-anchor="middle" x="182" y="-207" font-family="Helvetica,sans-Serif" font-size="10.00" fill="grey"> conv</text>
</g>
<!-- Node23 -->
<g id="Node000023" class="node">
<title>Node23</title>
<g id="a_Node000023"><a xlink:href="classservio_1_1mtr_1_1metrics.html" target="_top" xlink:title=" ">
<polygon fill="white" stroke="#666666" points="122.5,-189.5 9.5,-189.5 9.5,-170.5 122.5,-170.5 122.5,-189.5"/>
<text text-anchor="middle" x="66" y="-177.5" font-family="Helvetica,sans-Serif" font-size="10.00">servio::mtr::metrics</text>
</a>
</g>
</g>
<!-- Node23&#45;&gt;Node19 -->
<g id="edge17_Node000019_Node000023" class="edge">
<title>Node23&#45;&gt;Node19</title>
<g id="a_edge17_Node000019_Node000023"><a xlink:title=" ">
<path fill="none" stroke="#9a32cd" stroke-dasharray="5,2" d="M132.76,-180C167.78,-180 210.15,-180 242.38,-180"/>
<polygon fill="#9a32cd" stroke="#9a32cd" points="132.62,-176.5 122.62,-180 132.62,-183.5 132.62,-176.5"/>
</a>
</g>
<text text-anchor="middle" x="182" y="-183" font-family="Helvetica,sans-Serif" font-size="10.00" fill="grey"> met</text>
</g>
<!-- Node24 -->
<g id="Node000024" class="node">
<title>Node24</title>
<g id="a_Node000024"><a xlink:href="classservio_1_1mon_1_1indication.html" target="_top" xlink:title=" ">
<polygon fill="white" stroke="#666666" points="130,-152.5 2,-152.5 2,-133.5 130,-133.5 130,-152.5"/>
<text text-anchor="middle" x="66" y="-140.5" font-family="Helvetica,sans-Serif" font-size="10.00">servio::mon::indication</text>
</a>
</g>
</g>
<!-- Node24&#45;&gt;Node19 -->
<g id="edge18_Node000019_Node000024" class="edge">
<title>Node24&#45;&gt;Node19</title>
<g id="a_edge18_Node000019_Node000024"><a xlink:title=" ">
<path fill="none" stroke="#9a32cd" stroke-dasharray="5,2" d="M140,-153.31C163.64,-156.82 189.96,-160.89 214,-165 223.79,-166.67 234.24,-168.59 244.21,-170.48"/>
<polygon fill="#9a32cd" stroke="#9a32cd" points="140.44,-149.84 130.04,-151.85 139.43,-156.77 140.44,-149.84"/>
</a>
</g>
<text text-anchor="middle" x="182" y="-168" font-family="Helvetica,sans-Serif" font-size="10.00" fill="grey"> ind</text>
</g>
<!-- Node25 -->
<g id="Node000025" class="node">
<title>Node25</title>
<g id="a_Node000025"><a xlink:href="classservio_1_1mon_1_1monitor.html" target="_top" xlink:title=" ">
<polygon fill="white" stroke="#666666" points="125.5,-115.5 6.5,-115.5 6.5,-96.5 125.5,-96.5 125.5,-115.5"/>
<text text-anchor="middle" x="66" y="-103.5" font-family="Helvetica,sans-Serif" font-size="10.00">servio::mon::monitor</text>
</a>
</g>
</g>
<!-- Node25&#45;&gt;Node19 -->
<g id="edge19_Node000019_Node000025" class="edge">
<title>Node25&#45;&gt;Node19</title>
<g id="a_edge19_Node000019_Node000025"><a xlink:title=" ">
<path fill="none" stroke="#9a32cd" stroke-dasharray="5,2" d="M132.77,-117.6C158.52,-123.07 188.05,-130.51 214,-140 236.44,-148.21 260.69,-161.39 276.09,-170.36"/>
<polygon fill="#9a32cd" stroke="#9a32cd" points="133.24,-114.12 122.74,-115.52 131.82,-120.97 133.24,-114.12"/>
</a>
</g>
<text text-anchor="middle" x="182" y="-143" font-family="Helvetica,sans-Serif" font-size="10.00" fill="grey"> mon</text>
</g>
<!-- Node26 -->
<g id="Node000026" class="node">
<title>Node26</title>
<g id="a_Node000026"><a xlink:href="structservio_1_1core_1_1standard__callbacks.html" target="_top" xlink:title=" ">
<polygon fill="white" stroke="#666666" points="354,-78 232,-78 232,-48 354,-48 354,-78"/>
<text text-anchor="start" x="240" y="-66" font-family="Helvetica,sans-Serif" font-size="10.00">servio::core::standard</text>
<text text-anchor="middle" x="293" y="-55" font-family="Helvetica,sans-Serif" font-size="10.00">_callbacks</text>
</a>
</g>
</g>
<!-- Node26&#45;&gt;Node1 -->
<g id="edge20_Node000001_Node000026" class="edge">
<title>Node26&#45;&gt;Node1</title>
<g id="a_edge20_Node000001_Node000026"><a xlink:title=" ">
<path fill="none" stroke="#9a32cd" stroke-dasharray="5,2" d="M324.84,-83.86C362.63,-109.41 425.04,-151.62 452.86,-170.44"/>
<polygon fill="#9a32cd" stroke="#9a32cd" points="326.51,-80.76 316.26,-78.06 322.59,-86.56 326.51,-80.76"/>
</a>
</g>
<text text-anchor="middle" x="384.5" y="-134" font-family="Helvetica,sans-Serif" font-size="10.00" fill="grey"> scbs</text>
</g>
<!-- Node27 -->
<g id="Node000027" class="node">
<title>Node27</title>
<g id="a_Node000027"><a xlink:href="classservio_1_1core_1_1current__callback.html" target="_top" xlink:title=" ">
<polygon fill="#fff0f0" stroke="red" points="123,-78 9,-78 9,-48 123,-48 123,-78"/>
<text text-anchor="start" x="17" y="-66" font-family="Helvetica,sans-Serif" font-size="10.00">servio::core::current</text>
<text text-anchor="middle" x="66" y="-55" font-family="Helvetica,sans-Serif" font-size="10.00">_callback</text>
</a>
</g>
</g>
<!-- Node27&#45;&gt;Node26 -->
<g id="edge21_Node000026_Node000027" class="edge">
<title>Node27&#45;&gt;Node26</title>
<g id="a_edge21_Node000026_Node000027"><a xlink:title=" ">
<path fill="none" stroke="#9a32cd" stroke-dasharray="5,2" d="M133.52,-63C164.67,-63 201.49,-63 231.79,-63"/>
<polygon fill="#9a32cd" stroke="#9a32cd" points="133.2,-59.5 123.2,-63 133.2,-66.5 133.2,-59.5"/>
</a>
</g>
<text text-anchor="middle" x="182" y="-66" font-family="Helvetica,sans-Serif" font-size="10.00" fill="grey"> current_cb</text>
</g>
<!-- Node29 -->
<g id="Node000029" class="node">
<title>Node29</title>
<g id="a_Node000029"><a xlink:href="classservio_1_1core_1_1position__callback.html" target="_top" xlink:title=" ">
<polygon fill="#fff0f0" stroke="red" points="125.5,-30 6.5,-30 6.5,0 125.5,0 125.5,-30"/>
<text text-anchor="start" x="14.5" y="-18" font-family="Helvetica,sans-Serif" font-size="10.00">servio::core::position</text>
<text text-anchor="middle" x="66" y="-7" font-family="Helvetica,sans-Serif" font-size="10.00">_callback</text>
</a>
</g>
</g>
<!-- Node29&#45;&gt;Node26 -->
<g id="edge22_Node000026_Node000029" class="edge">
<title>Node29&#45;&gt;Node26</title>
<g id="a_edge22_Node000026_Node000029"><a xlink:title=" ">
<path fill="none" stroke="#9a32cd" stroke-dasharray="5,2" d="M135.32,-29.57C166.08,-36.14 202.07,-43.82 231.8,-50.16"/>
<polygon fill="#9a32cd" stroke="#9a32cd" points="136.04,-26.15 125.53,-27.49 134.58,-33 136.04,-26.15"/>
</a>
</g>
<text text-anchor="middle" x="182" y="-50" font-family="Helvetica,sans-Serif" font-size="10.00" fill="grey"> pos_cb</text>
</g>
</g>
</svg>
