<?xml version="1.0" encoding="UTF-8" standalone="no"?>
<!DOCTYPE svg PUBLIC "-//W3C//DTD SVG 1.1//EN"
 "http://www.w3.org/Graphics/SVG/1.1/DTD/svg11.dtd">
<!-- Generated by graphviz version 2.43.0 (0)
 -->
<!-- Title: servio::drv::detailed_adc_channel&lt; ID, N &gt; Pages: 1 -->
<svg width="248pt" height="115pt"
 viewBox="0.00 0.00 247.50 115.00" xmlns="http://www.w3.org/2000/svg" xmlns:xlink="http://www.w3.org/1999/xlink">
<g id="graph0" class="graph" transform="scale(1 1) rotate(0) translate(4 111)">
<title>servio::drv::detailed_adc_channel&lt; ID, N &gt;</title>
<!-- Node1 -->
<g id="Node000001" class="node">
<title>Node1</title>
<g id="a_Node000001"><a xlink:title=" ">
<polygon fill="#999999" stroke="#666666" points="182.5,-30 53.5,-30 53.5,0 182.5,0 182.5,-30"/>
<text text-anchor="start" x="61.5" y="-18" font-family="Helvetica,sans-Serif" font-size="10.00">servio::drv::detailed</text>
<text text-anchor="middle" x="118" y="-7" font-family="Helvetica,sans-Serif" font-size="10.00">_adc_channel&lt; ID, N &gt;</text>
</a>
</g>
</g>
<!-- Node2 -->
<g id="Node000002" class="node">
<title>Node2</title>
<g id="a_Node000002"><a xlink:href="classservio_1_1sntr_1_1sentry.html" target="_top" xlink:title=" ">
<polygon fill="white" stroke="#666666" points="108,-101.5 0,-101.5 0,-82.5 108,-82.5 108,-101.5"/>
<text text-anchor="middle" x="54" y="-89.5" font-family="Helvetica,sans-Serif" font-size="10.00">servio::sntr::sentry</text>
</a>
</g>
</g>
<!-- Node2&#45;&gt;Node1 -->
<g id="edge1_Node000001_Node000002" class="edge">
<title>Node2&#45;&gt;Node1</title>
<g id="a_edge1_Node000001_Node000002"><a xlink:title=" ">
<path fill="none" stroke="#9a32cd" stroke-dasharray="5,2" d="M68.06,-74.53C79.4,-61.23 95.19,-42.73 105.96,-30.11"/>
<polygon fill="#9a32cd" stroke="#9a32cd" points="65.17,-72.52 61.34,-82.4 70.5,-77.06 65.17,-72.52"/>
</a>
</g>
<text text-anchor="middle" x="110" y="-51" font-family="Helvetica,sans-Serif" font-size="10.00" fill="grey"> sentry_</text>
</g>
<!-- Node3 -->
<g id="Node000003" class="node">
<title>Node3</title>
<g id="a_Node000003"><a xlink:href="structservio_1_1drv_1_1detailed__cb__iface.html" target="_top" xlink:title=" ">
<polygon fill="white" stroke="#666666" points="239.5,-107 126.5,-107 126.5,-77 239.5,-77 239.5,-107"/>
<text text-anchor="start" x="134.5" y="-95" font-family="Helvetica,sans-Serif" font-size="10.00">servio::drv::detailed</text>
<text text-anchor="middle" x="183" y="-84" font-family="Helvetica,sans-Serif" font-size="10.00">_cb_iface</text>
</a>
</g>
</g>
<!-- Node3&#45;&gt;Node1 -->
<g id="edge2_Node000001_Node000003" class="edge">
<title>Node3&#45;&gt;Node1</title>
<g id="a_edge2_Node000001_Node000003"><a xlink:title=" ">
<path fill="none" stroke="#9a32cd" stroke-dasharray="5,2" d="M164.02,-69.1C153.09,-56.49 139.69,-41.03 130.17,-30.04"/>
<polygon fill="#9a32cd" stroke="#9a32cd" points="161.58,-71.63 170.77,-76.89 166.87,-67.04 161.58,-71.63"/>
</a>
</g>
<text text-anchor="middle" x="176" y="-51" font-family="Helvetica,sans-Serif" font-size="10.00" fill="grey"> callback</text>
</g>
</g>
</svg>
