<?xml version="1.0" encoding="UTF-8" standalone="no"?>
<!DOCTYPE svg PUBLIC "-//W3C//DTD SVG 1.1//EN"
 "http://www.w3.org/Graphics/SVG/1.1/DTD/svg11.dtd">
<!-- Generated by graphviz version 2.43.0 (0)
 -->
<!-- Title: brd::core_drivers Pages: 1 -->
<svg width="463pt" height="370pt"
 viewBox="0.00 0.00 463.00 370.00" xmlns="http://www.w3.org/2000/svg" xmlns:xlink="http://www.w3.org/1999/xlink">
<g id="graph0" class="graph" transform="scale(1 1) rotate(0) translate(4 366)">
<title>brd::core_drivers</title>
<polygon fill="white" stroke="transparent" points="-4,4 -4,-366 459,-366 459,4 -4,4"/>
<!-- Node1 -->
<g id="node1" class="node">
<title>Node1</title>
<g id="a_node1"><a xlink:title="TODO: maybe move to references and make setup function return an optional?">
<polygon fill="#bfbfbf" stroke="black" points="357,-170.5 357,-189.5 455,-189.5 455,-170.5 357,-170.5"/>
<text text-anchor="middle" x="406" y="-177.5" font-family="Helvetica,sans-Serif" font-size="10.00">brd::core_drivers</text>
</a>
</g>
</g>
<!-- Node2 -->
<g id="node2" class="node">
<title>Node2</title>
<g id="a_node2"><a xlink:href="classfw_1_1drv_1_1cobs__uart.html" target="_top" xlink:title=" ">
<polygon fill="white" stroke="black" points="143.5,-342.5 143.5,-361.5 244.5,-361.5 244.5,-342.5 143.5,-342.5"/>
<text text-anchor="middle" x="194" y="-349.5" font-family="Helvetica,sans-Serif" font-size="10.00">fw::drv::cobs_uart</text>
</a>
</g>
</g>
<!-- Node2&#45;&gt;Node1 -->
<g id="edge1" class="edge">
<title>Node2&#45;&gt;Node1</title>
<path fill="none" stroke="#9a32cd" stroke-dasharray="5,2" d="M254.84,-349.1C282.95,-345.02 315.39,-336.09 339,-317 381.28,-282.8 398.25,-214.93 403.27,-189.72"/>
<polygon fill="#9a32cd" stroke="#9a32cd" points="254.18,-345.65 244.7,-350.39 255.06,-352.6 254.18,-345.65"/>
<text text-anchor="middle" x="307" y="-347" font-family="Helvetica,sans-Serif" font-size="10.00"> comms</text>
</g>
<!-- Node3 -->
<g id="node3" class="node">
<title>Node3</title>
<g id="a_node3"><a xlink:href="classpwm__motor__interface.html" target="_top" xlink:title=" ">
<polygon fill="white" stroke="black" points="132,-304.5 132,-323.5 256,-323.5 256,-304.5 132,-304.5"/>
<text text-anchor="middle" x="194" y="-311.5" font-family="Helvetica,sans-Serif" font-size="10.00">pwm_motor_interface</text>
</a>
</g>
</g>
<!-- Node3&#45;&gt;Node1 -->
<g id="edge2" class="edge">
<title>Node3&#45;&gt;Node1</title>
<path fill="none" stroke="#9a32cd" stroke-dasharray="5,2" d="M266.2,-304.94C290.89,-299.26 317.7,-290.02 339,-275 371.01,-252.44 392.55,-209.13 401,-189.77"/>
<polygon fill="#9a32cd" stroke="#9a32cd" points="265.18,-301.57 256.13,-307.09 266.64,-308.42 265.18,-301.57"/>
<text text-anchor="middle" x="307" y="-305" font-family="Helvetica,sans-Serif" font-size="10.00"> motor</text>
</g>
<!-- Node4 -->
<g id="node4" class="node">
<title>Node4</title>
<g id="a_node4"><a xlink:href="classdriver__interface.html" target="_top" xlink:title=" ">
<polygon fill="white" stroke="black" points="0,-208.5 0,-227.5 94,-227.5 94,-208.5 0,-208.5"/>
<text text-anchor="middle" x="47" y="-215.5" font-family="Helvetica,sans-Serif" font-size="10.00">driver_interface</text>
</a>
</g>
</g>
<!-- Node4&#45;&gt;Node3 -->
<g id="edge3" class="edge">
<title>Node4&#45;&gt;Node3</title>
<path fill="none" stroke="midnightblue" d="M62.32,-235.23C77.64,-252.64 103.48,-279.15 131,-295 137.63,-298.82 145.12,-301.95 152.53,-304.49"/>
<polygon fill="midnightblue" stroke="midnightblue" points="64.85,-232.81 55.68,-227.51 59.54,-237.37 64.85,-232.81"/>
</g>
<!-- Node7 -->
<g id="node7" class="node">
<title>Node7</title>
<g id="a_node7"><a xlink:href="classvcc__interface.html" target="_top" xlink:title=" ">
<polygon fill="white" stroke="black" points="153,-266.5 153,-285.5 235,-285.5 235,-266.5 153,-266.5"/>
<text text-anchor="middle" x="194" y="-273.5" font-family="Helvetica,sans-Serif" font-size="10.00">vcc_interface</text>
</a>
</g>
</g>
<!-- Node4&#45;&gt;Node7 -->
<g id="edge7" class="edge">
<title>Node4&#45;&gt;Node7</title>
<path fill="none" stroke="midnightblue" d="M75.73,-232.24C91.66,-240.11 112.18,-249.74 131,-257 139.82,-260.4 149.53,-263.62 158.59,-266.41"/>
<polygon fill="midnightblue" stroke="midnightblue" points="76.97,-228.95 66.46,-227.6 73.84,-235.21 76.97,-228.95"/>
</g>
<!-- Node9 -->
<g id="node9" class="node">
<title>Node9</title>
<g id="a_node9"><a xlink:href="classtemperature__interface.html" target="_top" xlink:title=" ">
<polygon fill="white" stroke="black" points="131,-228.5 131,-247.5 257,-247.5 257,-228.5 131,-228.5"/>
<text text-anchor="middle" x="194" y="-235.5" font-family="Helvetica,sans-Serif" font-size="10.00">temperature_interface</text>
</a>
</g>
</g>
<!-- Node4&#45;&gt;Node9 -->
<g id="edge10" class="edge">
<title>Node4&#45;&gt;Node9</title>
<path fill="none" stroke="midnightblue" d="M104.28,-225.76C112.96,-226.96 121.96,-228.2 130.76,-229.42"/>
<polygon fill="midnightblue" stroke="midnightblue" points="104.66,-222.28 94.28,-224.38 103.71,-229.22 104.66,-222.28"/>
</g>
<!-- Node10 -->
<g id="node10" class="node">
<title>Node10</title>
<g id="a_node10"><a xlink:href="classperiod__interface.html" target="_top" xlink:title=" ">
<polygon fill="white" stroke="black" points="146,-190.5 146,-209.5 242,-209.5 242,-190.5 146,-190.5"/>
<text text-anchor="middle" x="194" y="-197.5" font-family="Helvetica,sans-Serif" font-size="10.00">period_interface</text>
</a>
</g>
</g>
<!-- Node4&#45;&gt;Node10 -->
<g id="edge12" class="edge">
<title>Node4&#45;&gt;Node10</title>
<path fill="none" stroke="midnightblue" d="M104.55,-210.98C118.24,-209.28 132.72,-207.48 145.92,-205.84"/>
<polygon fill="midnightblue" stroke="midnightblue" points="103.77,-207.55 94.28,-212.26 104.63,-214.5 103.77,-207.55"/>
</g>
<!-- Node11 -->
<g id="node11" class="node">
<title>Node11</title>
<g id="a_node11"><a xlink:href="classposition__interface.html" target="_top" xlink:title=" ">
<polygon fill="white" stroke="black" points="142,-152.5 142,-171.5 246,-171.5 246,-152.5 142,-152.5"/>
<text text-anchor="middle" x="194" y="-159.5" font-family="Helvetica,sans-Serif" font-size="10.00">position_interface</text>
</a>
</g>
</g>
<!-- Node4&#45;&gt;Node11 -->
<g id="edge14" class="edge">
<title>Node4&#45;&gt;Node11</title>
<path fill="none" stroke="midnightblue" d="M76.75,-204.14C92.56,-196.79 112.65,-187.87 131,-181 140.07,-177.6 150.04,-174.35 159.28,-171.52"/>
<polygon fill="midnightblue" stroke="midnightblue" points="75.07,-201.07 67.51,-208.49 78.05,-207.4 75.07,-201.07"/>
</g>
<!-- Node12 -->
<g id="node12" class="node">
<title>Node12</title>
<g id="a_node12"><a xlink:href="classcurrent__interface.html" target="_top" xlink:title=" ">
<polygon fill="white" stroke="black" points="144,-114.5 144,-133.5 244,-133.5 244,-114.5 144,-114.5"/>
<text text-anchor="middle" x="194" y="-121.5" font-family="Helvetica,sans-Serif" font-size="10.00">current_interface</text>
</a>
</g>
</g>
<!-- Node4&#45;&gt;Node12 -->
<g id="edge16" class="edge">
<title>Node4&#45;&gt;Node12</title>
<path fill="none" stroke="midnightblue" d="M62.66,-200.96C78.08,-184.02 103.85,-158.4 131,-143 137.66,-139.22 145.15,-136.11 152.57,-133.58"/>
<polygon fill="midnightblue" stroke="midnightblue" points="59.98,-198.7 55.95,-208.5 65.22,-203.35 59.98,-198.7"/>
</g>
<!-- Node5 -->
<g id="node5" class="node">
<title>Node5</title>
<g id="a_node5"><a xlink:href="classfw_1_1drv_1_1clock.html" target="_top" xlink:title=" ">
<polygon fill="white" stroke="black" points="154,-76.5 154,-95.5 234,-95.5 234,-76.5 154,-76.5"/>
<text text-anchor="middle" x="194" y="-83.5" font-family="Helvetica,sans-Serif" font-size="10.00">fw::drv::clock</text>
</a>
</g>
</g>
<!-- Node5&#45;&gt;Node1 -->
<g id="edge4" class="edge">
<title>Node5&#45;&gt;Node1</title>
<path fill="none" stroke="#9a32cd" stroke-dasharray="5,2" d="M244.31,-88.89C273.28,-92.26 309.81,-99.5 339,-115 364.85,-128.73 387.3,-155.79 398.12,-170.29"/>
<polygon fill="#9a32cd" stroke="#9a32cd" points="244.32,-85.37 234.01,-87.82 243.59,-92.33 244.32,-85.37"/>
<text text-anchor="middle" x="307" y="-118" font-family="Helvetica,sans-Serif" font-size="10.00"> clock</text>
</g>
<!-- Node6 -->
<g id="node6" class="node">
<title>Node6</title>
<g id="a_node6"><a xlink:href="classfw_1_1drv_1_1leds.html" target="_top" xlink:title=" ">
<polygon fill="white" stroke="black" points="157,-38.5 157,-57.5 231,-57.5 231,-38.5 157,-38.5"/>
<text text-anchor="middle" x="194" y="-45.5" font-family="Helvetica,sans-Serif" font-size="10.00">fw::drv::leds</text>
</a>
</g>
</g>
<!-- Node6&#45;&gt;Node1 -->
<g id="edge5" class="edge">
<title>Node6&#45;&gt;Node1</title>
<path fill="none" stroke="#9a32cd" stroke-dasharray="5,2" d="M241.37,-49.48C271.48,-52.45 310.32,-60.25 339,-80 372.75,-103.24 393.64,-149.93 401.48,-170.22"/>
<polygon fill="#9a32cd" stroke="#9a32cd" points="241.37,-45.97 231.11,-48.62 240.79,-52.95 241.37,-45.97"/>
<text text-anchor="middle" x="307" y="-83" font-family="Helvetica,sans-Serif" font-size="10.00"> leds</text>
</g>
<!-- Node7&#45;&gt;Node1 -->
<g id="edge6" class="edge">
<title>Node7&#45;&gt;Node1</title>
<path fill="none" stroke="#9a32cd" stroke-dasharray="5,2" d="M244.85,-268.72C273.59,-263.11 309.71,-253.61 339,-238 362.69,-225.38 385,-202.7 396.63,-189.75"/>
<polygon fill="#9a32cd" stroke="#9a32cd" points="244.21,-265.28 235.01,-270.54 245.48,-272.16 244.21,-265.28"/>
<text text-anchor="middle" x="307" y="-263" font-family="Helvetica,sans-Serif" font-size="10.00"> vcc</text>
</g>
<!-- Node8 -->
<g id="node8" class="node">
<title>Node8</title>
<g id="a_node8"><a xlink:href="classperiod__cb__interface.html" target="_top" xlink:title=" ">
<polygon fill="white" stroke="black" points="137.5,-0.5 137.5,-19.5 250.5,-19.5 250.5,-0.5 137.5,-0.5"/>
<text text-anchor="middle" x="194" y="-7.5" font-family="Helvetica,sans-Serif" font-size="10.00">period_cb_interface</text>
</a>
</g>
</g>
<!-- Node8&#45;&gt;Node1 -->
<g id="edge8" class="edge">
<title>Node8&#45;&gt;Node1</title>
<path fill="none" stroke="#9a32cd" stroke-dasharray="5,2" d="M260.6,-11.17C287.28,-14.63 316.95,-22.61 339,-40 382.67,-74.45 398.87,-144.72 403.47,-170.36"/>
<polygon fill="#9a32cd" stroke="#9a32cd" points="260.87,-7.68 250.54,-10.06 260.1,-14.64 260.87,-7.68"/>
<text text-anchor="middle" x="307" y="-43" font-family="Helvetica,sans-Serif" font-size="10.00"> period_cb</text>
</g>
<!-- Node9&#45;&gt;Node1 -->
<g id="edge9" class="edge">
<title>Node9&#45;&gt;Node1</title>
<path fill="none" stroke="#9a32cd" stroke-dasharray="5,2" d="M260.35,-226.47C285.22,-221.42 313.66,-214.84 339,-207 354.49,-202.2 371.41,-195.25 384.24,-189.6"/>
<polygon fill="#9a32cd" stroke="#9a32cd" points="259.42,-223.08 250.29,-228.47 260.78,-229.95 259.42,-223.08"/>
<text text-anchor="middle" x="307" y="-226" font-family="Helvetica,sans-Serif" font-size="10.00"> temperature</text>
</g>
<!-- Node10&#45;&gt;Node1 -->
<g id="edge11" class="edge">
<title>Node10&#45;&gt;Node1</title>
<path fill="none" stroke="#9a32cd" stroke-dasharray="5,2" d="M252.47,-194.53C285.25,-191.4 325.86,-187.54 356.94,-184.58"/>
<polygon fill="#9a32cd" stroke="#9a32cd" points="251.75,-191.08 242.13,-195.51 252.41,-198.05 251.75,-191.08"/>
<text text-anchor="middle" x="307" y="-195" font-family="Helvetica,sans-Serif" font-size="10.00"> period</text>
</g>
<!-- Node11&#45;&gt;Node1 -->
<g id="edge13" class="edge">
<title>Node11&#45;&gt;Node1</title>
<path fill="none" stroke="#9a32cd" stroke-dasharray="5,2" d="M256.48,-160.55C282.08,-160.65 312.06,-161.69 339,-165 348.91,-166.22 359.52,-168.28 369.27,-170.49"/>
<polygon fill="#9a32cd" stroke="#9a32cd" points="256.16,-157.05 246.16,-160.55 256.16,-164.05 256.16,-157.05"/>
<text text-anchor="middle" x="307" y="-168" font-family="Helvetica,sans-Serif" font-size="10.00"> position</text>
</g>
<!-- Node12&#45;&gt;Node1 -->
<g id="edge15" class="edge">
<title>Node12&#45;&gt;Node1</title>
<path fill="none" stroke="#9a32cd" stroke-dasharray="5,2" d="M254.51,-128.06C280.87,-131.03 311.97,-136.16 339,-145 357.74,-151.13 377.49,-162.32 390.45,-170.4"/>
<polygon fill="#9a32cd" stroke="#9a32cd" points="254.59,-124.55 244.28,-126.99 253.86,-131.51 254.59,-124.55"/>
<text text-anchor="middle" x="307" y="-148" font-family="Helvetica,sans-Serif" font-size="10.00"> current</text>
</g>
</g>
</svg>
