<?xml version="1.0" encoding="UTF-8" standalone="no"?>
<!DOCTYPE svg PUBLIC "-//W3C//DTD SVG 1.1//EN"
 "http://www.w3.org/Graphics/SVG/1.1/DTD/svg11.dtd">
<!-- Generated by graphviz version 2.43.0 (0)
 -->
<!-- Title: servio::cfg::root_handler Pages: 1 -->
<svg width="728pt" height="303pt"
 viewBox="0.00 0.00 728.00 302.50" xmlns="http://www.w3.org/2000/svg" xmlns:xlink="http://www.w3.org/1999/xlink">
<g id="graph0" class="graph" transform="scale(1 1) rotate(0) translate(4 298.5)">
<title>servio::cfg::root_handler</title>
<!-- Node1 -->
<g id="Node000001" class="node">
<title>Node1</title>
<g id="a_Node000001"><a xlink:title=" ">
<polygon fill="#999999" stroke="#666666" points="720,-152.5 585,-152.5 585,-133.5 720,-133.5 720,-152.5"/>
<text text-anchor="middle" x="652.5" y="-140.5" font-family="Helvetica,sans-Serif" font-size="10.00">servio::cfg::root_handler</text>
</a>
</g>
</g>
<!-- Node2 -->
<g id="Node000002" class="node">
<title>Node2</title>
<g id="a_Node000002"><a xlink:href="structservio_1_1cfg_1_1map.html" target="_top" xlink:title=" ">
<polygon fill="white" stroke="#666666" points="282,-246.5 187,-246.5 187,-227.5 282,-227.5 282,-246.5"/>
<text text-anchor="middle" x="234.5" y="-234.5" font-family="Helvetica,sans-Serif" font-size="10.00">servio::cfg::map</text>
</a>
</g>
</g>
<!-- Node2&#45;&gt;Node1 -->
<g id="edge1_Node000001_Node000002" class="edge">
<title>Node2&#45;&gt;Node1</title>
<g id="a_edge1_Node000001_Node000002"><a xlink:title=" ">
<path fill="none" stroke="#9a32cd" stroke-dasharray="5,2" d="M292.64,-232.87C359.85,-226.72 474.04,-212.22 567,-180 589.85,-172.08 615.14,-160.63 632.05,-152.57"/>
<polygon fill="#9a32cd" stroke="#9a32cd" points="291.92,-229.42 282.27,-233.78 292.54,-236.39 291.92,-229.42"/>
</a>
</g>
<text text-anchor="middle" x="428" y="-227" font-family="Helvetica,sans-Serif" font-size="10.00" fill="grey"> m</text>
</g>
<!-- Node4 -->
<g id="Node000004" class="node">
<title>Node4</title>
<g id="a_Node000004"><a xlink:href="structservio_1_1cfg_1_1handler.html" target="_top" xlink:title=" ">
<polygon fill="white" stroke="#666666" points="487,-285 369,-285 369,-255 487,-255 487,-285"/>
<text text-anchor="start" x="377" y="-273" font-family="Helvetica,sans-Serif" font-size="10.00">servio::cfg::handler</text>
<text text-anchor="middle" x="428" y="-262" font-family="Helvetica,sans-Serif" font-size="10.00">&lt; servio::cfg::map &gt;</text>
</a>
</g>
</g>
<!-- Node2&#45;&gt;Node4 -->
<g id="edge5_Node000004_Node000002" class="edge">
<title>Node2&#45;&gt;Node4</title>
<g id="a_edge5_Node000004_Node000002"><a xlink:title=" ">
<path fill="none" stroke="#9a32cd" stroke-dasharray="5,2" d="M292.43,-246.81C316.59,-250.97 344.72,-255.82 369,-260"/>
<polygon fill="#9a32cd" stroke="#9a32cd" points="292.8,-243.32 282.35,-245.07 291.61,-250.22 292.8,-243.32"/>
</a>
</g>
<text text-anchor="middle" x="324" y="-258" font-family="Helvetica,sans-Serif" font-size="10.00" fill="grey"> _x</text>
</g>
<!-- Node3 -->
<g id="Node000003" class="node">
<title>Node3</title>
<g id="a_Node000003"><a xlink:title=" ">
<polygon fill="white" stroke="#666666" points="121,-246.5 0,-246.5 0,-227.5 121,-227.5 121,-246.5"/>
<text text-anchor="middle" x="60.5" y="-234.5" font-family="Helvetica,sans-Serif" font-size="10.00">std::array&lt; key, 16 &gt;</text>
</a>
</g>
</g>
<!-- Node3&#45;&gt;Node2 -->
<g id="edge2_Node000002_Node000003" class="edge">
<title>Node3&#45;&gt;Node2</title>
<g id="a_edge2_Node000002_Node000003"><a xlink:title=" ">
<path fill="none" stroke="#9a32cd" stroke-dasharray="5,2" d="M131.43,-237C150.12,-237 169.86,-237 186.95,-237"/>
<polygon fill="#9a32cd" stroke="#9a32cd" points="131.17,-233.5 121.17,-237 131.17,-240.5 131.17,-233.5"/>
</a>
</g>
<text text-anchor="middle" x="152" y="-240" font-family="Helvetica,sans-Serif" font-size="10.00" fill="grey"> keys</text>
</g>
<!-- Node4&#45;&gt;Node1 -->
<g id="edge3_Node000001_Node000004" class="edge">
<title>Node4&#45;&gt;Node1</title>
<g id="a_edge3_Node000001_Node000004"><a xlink:title=" ">
<path fill="none" stroke="#9a32cd" stroke-dasharray="5,2" d="M496.95,-264.03C520.35,-259.75 545.95,-252.45 567,-240 604.87,-217.6 634.49,-172.23 646.14,-152.51"/>
<polygon fill="#9a32cd" stroke="#9a32cd" points="496.35,-260.58 487.07,-265.68 497.51,-267.48 496.35,-260.58"/>
</a>
</g>
<text text-anchor="middle" x="539.5" y="-263" font-family="Helvetica,sans-Serif" font-size="10.00" fill="grey"> m_handler</text>
</g>
<!-- Node5 -->
<g id="Node000005" class="node">
<title>Node5</title>
<g id="a_Node000005"><a xlink:href="structservio_1_1cfg_1_1iface.html" target="_top" xlink:title=" ">
<polygon fill="white" stroke="#666666" points="283.5,-294.5 185.5,-294.5 185.5,-275.5 283.5,-275.5 283.5,-294.5"/>
<text text-anchor="middle" x="234.5" y="-282.5" font-family="Helvetica,sans-Serif" font-size="10.00">servio::cfg::iface</text>
</a>
</g>
</g>
<!-- Node5&#45;&gt;Node4 -->
<g id="edge4_Node000004_Node000005" class="edge">
<title>Node5&#45;&gt;Node4</title>
<g id="a_edge4_Node000004_Node000005"><a xlink:title=" ">
<path fill="none" stroke="#63b8ff" d="M294.09,-280.41C317.8,-278.55 345.11,-276.41 368.79,-274.56"/>
<polygon fill="#63b8ff" stroke="#63b8ff" points="293.52,-276.94 283.82,-281.21 294.07,-283.92 293.52,-276.94"/>
</a>
</g>
</g>
<!-- Node6 -->
<g id="Node000006" class="node">
<title>Node6</title>
<g id="a_Node000006"><a xlink:href="structservio_1_1cnv_1_1converter.html" target="_top" xlink:title=" ">
<polygon fill="white" stroke="#666666" points="489,-189.5 367,-189.5 367,-170.5 489,-170.5 489,-189.5"/>
<text text-anchor="middle" x="428" y="-177.5" font-family="Helvetica,sans-Serif" font-size="10.00">servio::cnv::converter</text>
</a>
</g>
</g>
<!-- Node6&#45;&gt;Node1 -->
<g id="edge6_Node000001_Node000006" class="edge">
<title>Node6&#45;&gt;Node1</title>
<g id="a_edge6_Node000001_Node000006"><a xlink:title=" ">
<path fill="none" stroke="#9a32cd" stroke-dasharray="5,2" d="M496.22,-168.82C527.42,-163.63 564.12,-157.53 594.01,-152.56"/>
<polygon fill="#9a32cd" stroke="#9a32cd" points="495.59,-165.38 486.3,-170.47 496.74,-172.28 495.59,-165.38"/>
</a>
</g>
<text text-anchor="middle" x="539.5" y="-168" font-family="Helvetica,sans-Serif" font-size="10.00" fill="grey"> conv</text>
</g>
<!-- Node7 -->
<g id="Node000007" class="node">
<title>Node7</title>
<g id="a_Node000007"><a xlink:href="structservio_1_1cnv_1_1linear__converter.html" target="_top" xlink:title=" ">
<polygon fill="white" stroke="#666666" points="286,-182 183,-182 183,-152 286,-152 286,-182"/>
<text text-anchor="start" x="191" y="-170" font-family="Helvetica,sans-Serif" font-size="10.00">servio::cnv::linear</text>
<text text-anchor="middle" x="234.5" y="-159" font-family="Helvetica,sans-Serif" font-size="10.00">_converter</text>
</a>
</g>
</g>
<!-- Node7&#45;&gt;Node6 -->
<g id="edge7_Node000006_Node000007" class="edge">
<title>Node7&#45;&gt;Node6</title>
<g id="a_edge7_Node000006_Node000007"><a xlink:title=" ">
<path fill="none" stroke="#9a32cd" stroke-dasharray="5,2" d="M296.14,-166.12C311.75,-166.29 328.52,-166.81 344,-168 351.84,-168.6 360.06,-169.48 368.16,-170.5"/>
<polygon fill="#9a32cd" stroke="#9a32cd" points="296.09,-162.62 286.07,-166.06 296.05,-169.62 296.09,-162.62"/>
</a>
</g>
<text text-anchor="middle" x="324" y="-204" font-family="Helvetica,sans-Serif" font-size="10.00" fill="grey"> current</text>
<text text-anchor="middle" x="324" y="-193" font-family="Helvetica,sans-Serif" font-size="10.00" fill="grey">position</text>
<text text-anchor="middle" x="324" y="-182" font-family="Helvetica,sans-Serif" font-size="10.00" fill="grey">temp</text>
<text text-anchor="middle" x="324" y="-171" font-family="Helvetica,sans-Serif" font-size="10.00" fill="grey">vcc</text>
</g>
<!-- Node8 -->
<g id="Node000008" class="node">
<title>Node8</title>
<g id="a_Node000008"><a xlink:href="classservio_1_1mtr_1_1metrics.html" target="_top" xlink:title=" ">
<polygon fill="white" stroke="#666666" points="484.5,-152.5 371.5,-152.5 371.5,-133.5 484.5,-133.5 484.5,-152.5"/>
<text text-anchor="middle" x="428" y="-140.5" font-family="Helvetica,sans-Serif" font-size="10.00">servio::mtr::metrics</text>
</a>
</g>
</g>
<!-- Node8&#45;&gt;Node1 -->
<g id="edge8_Node000001_Node000008" class="edge">
<title>Node8&#45;&gt;Node1</title>
<g id="a_edge8_Node000001_Node000008"><a xlink:title=" ">
<path fill="none" stroke="#9a32cd" stroke-dasharray="5,2" d="M494.79,-143C523.16,-143 556.29,-143 584.76,-143"/>
<polygon fill="#9a32cd" stroke="#9a32cd" points="494.57,-139.5 484.57,-143 494.57,-146.5 494.57,-139.5"/>
</a>
</g>
<text text-anchor="middle" x="539.5" y="-146" font-family="Helvetica,sans-Serif" font-size="10.00" fill="grey"> met</text>
</g>
<!-- Node9 -->
<g id="Node000009" class="node">
<title>Node9</title>
<g id="a_Node000009"><a xlink:href="classservio_1_1mon_1_1monitor.html" target="_top" xlink:title=" ">
<polygon fill="white" stroke="#666666" points="487.5,-115.5 368.5,-115.5 368.5,-96.5 487.5,-96.5 487.5,-115.5"/>
<text text-anchor="middle" x="428" y="-103.5" font-family="Helvetica,sans-Serif" font-size="10.00">servio::mon::monitor</text>
</a>
</g>
</g>
<!-- Node9&#45;&gt;Node1 -->
<g id="edge9_Node000001_Node000009" class="edge">
<title>Node9&#45;&gt;Node1</title>
<g id="a_edge9_Node000001_Node000009"><a xlink:title=" ">
<path fill="none" stroke="#9a32cd" stroke-dasharray="5,2" d="M497.77,-116.72C519.89,-120.23 544.49,-124.21 567,-128 577.28,-129.73 588.26,-131.64 598.79,-133.49"/>
<polygon fill="#9a32cd" stroke="#9a32cd" points="498.22,-113.25 487.79,-115.14 497.12,-120.16 498.22,-113.25"/>
</a>
</g>
<text text-anchor="middle" x="539.5" y="-131" font-family="Helvetica,sans-Serif" font-size="10.00" fill="grey"> mon</text>
</g>
<!-- Node10 -->
<g id="Node000010" class="node">
<title>Node10</title>
<g id="a_Node000010"><a xlink:href="structservio_1_1drv_1_1pwm__motor__iface.html" target="_top" xlink:title=" ">
<polygon fill="white" stroke="#666666" points="494,-78 362,-78 362,-48 494,-48 494,-78"/>
<text text-anchor="start" x="370" y="-66" font-family="Helvetica,sans-Serif" font-size="10.00">servio::drv::pwm_motor</text>
<text text-anchor="middle" x="428" y="-55" font-family="Helvetica,sans-Serif" font-size="10.00">_iface</text>
</a>
</g>
</g>
<!-- Node10&#45;&gt;Node1 -->
<g id="edge10_Node000001_Node000010" class="edge">
<title>Node10&#45;&gt;Node1</title>
<g id="a_edge10_Node000001_Node000010"><a xlink:title=" ">
<path fill="none" stroke="#9a32cd" stroke-dasharray="5,2" d="M496.24,-80.88C518.94,-87.47 544.29,-95.43 567,-104 590.13,-112.72 615.8,-124.95 632.7,-133.38"/>
<polygon fill="#9a32cd" stroke="#9a32cd" points="496.92,-77.43 486.34,-78.04 494.99,-84.16 496.92,-77.43"/>
</a>
</g>
<text text-anchor="middle" x="539.5" y="-107" font-family="Helvetica,sans-Serif" font-size="10.00" fill="grey"> motor</text>
</g>
<!-- Node11 -->
<g id="Node000011" class="node">
<title>Node11</title>
<g id="a_Node000011"><a xlink:href="structservio_1_1drv_1_1motor__info__iface.html" target="_top" xlink:title=" ">
<polygon fill="white" stroke="#666666" points="286,-78 183,-78 183,-48 286,-48 286,-78"/>
<text text-anchor="start" x="191" y="-66" font-family="Helvetica,sans-Serif" font-size="10.00">servio::drv::motor</text>
<text text-anchor="middle" x="234.5" y="-55" font-family="Helvetica,sans-Serif" font-size="10.00">_info_iface</text>
</a>
</g>
</g>
<!-- Node11&#45;&gt;Node10 -->
<g id="edge11_Node000010_Node000011" class="edge">
<title>Node11&#45;&gt;Node10</title>
<g id="a_edge11_Node000010_Node000011"><a xlink:title=" ">
<path fill="none" stroke="#63b8ff" d="M296.09,-63C316.97,-63 340.44,-63 361.68,-63"/>
<polygon fill="#63b8ff" stroke="#63b8ff" points="296.06,-59.5 286.06,-63 296.06,-66.5 296.06,-59.5"/>
</a>
</g>
</g>
<!-- Node12 -->
<g id="Node000012" class="node">
<title>Node12</title>
<g id="a_Node000012"><a xlink:href="structservio_1_1drv_1_1get__pos__iface.html" target="_top" xlink:title=" ">
<polygon fill="white" stroke="#666666" points="484,-30 372,-30 372,0 484,0 484,-30"/>
<text text-anchor="start" x="380" y="-18" font-family="Helvetica,sans-Serif" font-size="10.00">servio::drv::get_pos</text>
<text text-anchor="middle" x="428" y="-7" font-family="Helvetica,sans-Serif" font-size="10.00">_iface</text>
</a>
</g>
</g>
<!-- Node12&#45;&gt;Node1 -->
<g id="edge12_Node000001_Node000012" class="edge">
<title>Node12&#45;&gt;Node1</title>
<g id="a_edge12_Node000001_Node000012"><a xlink:title=" ">
<path fill="none" stroke="#9a32cd" stroke-dasharray="5,2" d="M480.49,-33.69C485.07,-35.45 489.63,-37.24 494,-39 526.85,-52.25 536.98,-52.2 567,-71 596.73,-89.62 626.9,-118.15 641.85,-133.1"/>
<polygon fill="#9a32cd" stroke="#9a32cd" points="481.69,-30.4 471.1,-30.13 479.21,-36.95 481.69,-30.4"/>
</a>
</g>
<text text-anchor="middle" x="539.5" y="-74" font-family="Helvetica,sans-Serif" font-size="10.00" fill="grey"> pos</text>
</g>
</g>
</svg>
