<?xml version="1.0" encoding="UTF-8" standalone="no"?>
<!DOCTYPE svg PUBLIC "-//W3C//DTD SVG 1.1//EN"
 "http://www.w3.org/Graphics/SVG/1.1/DTD/svg11.dtd">
<!-- Generated by graphviz version 2.43.0 (0)
 -->
<!-- Title: servio::fw::dispatcher Pages: 1 -->
<svg width="695pt" height="376pt"
 viewBox="0.00 0.00 695.00 376.00" xmlns="http://www.w3.org/2000/svg" xmlns:xlink="http://www.w3.org/1999/xlink">
<g id="graph0" class="graph" transform="scale(1 1) rotate(0) translate(4 372)">
<title>servio::fw::dispatcher</title>
<polygon fill="white" stroke="transparent" points="-4,4 -4,-372 691,-372 691,4 -4,4"/>
<!-- Node1 -->
<g id="node1" class="node">
<title>Node1</title>
<g id="a_node1"><a xlink:title=" ">
<polygon fill="#bfbfbf" stroke="black" points="567,-164.5 567,-183.5 687,-183.5 687,-164.5 567,-164.5"/>
<text text-anchor="middle" x="627" y="-171.5" font-family="Helvetica,sans-Serif" font-size="10.00">servio::fw::dispatcher</text>
</a>
</g>
</g>
<!-- Node2 -->
<g id="node2" class="node">
<title>Node2</title>
<g id="a_node2"><a xlink:href="classservio_1_1drv_1_1pos__iface.html" target="_top" xlink:title=" ">
<polygon fill="white" stroke="black" points="355,-348.5 355,-367.5 475,-367.5 475,-348.5 355,-348.5"/>
<text text-anchor="middle" x="415" y="-355.5" font-family="Helvetica,sans-Serif" font-size="10.00">servio::drv::pos_iface</text>
</a>
</g>
</g>
<!-- Node2&#45;&gt;Node1 -->
<g id="edge1" class="edge">
<title>Node2&#45;&gt;Node1</title>
<path fill="none" stroke="#9a32cd" stroke-dasharray="5,2" d="M485.14,-357.69C507.35,-354.58 530.86,-347.8 549,-334 600.52,-294.8 619.33,-212.25 624.43,-183.84"/>
<polygon fill="#9a32cd" stroke="#9a32cd" points="484.58,-354.23 475.05,-358.87 485.39,-361.18 484.58,-354.23"/>
<text text-anchor="middle" x="524" y="-358" font-family="Helvetica,sans-Serif" font-size="10.00"> pos_drv</text>
</g>
<!-- Node3 -->
<g id="node3" class="node">
<title>Node3</title>
<g id="a_node3"><a xlink:href="structservio_1_1cfg_1_1dispatcher.html" target="_top" xlink:title=" ">
<polygon fill="white" stroke="black" points="352.5,-205.5 352.5,-224.5 477.5,-224.5 477.5,-205.5 352.5,-205.5"/>
<text text-anchor="middle" x="415" y="-212.5" font-family="Helvetica,sans-Serif" font-size="10.00">servio::cfg::dispatcher</text>
</a>
</g>
</g>
<!-- Node3&#45;&gt;Node1 -->
<g id="edge2" class="edge">
<title>Node3&#45;&gt;Node1</title>
<path fill="none" stroke="#9a32cd" stroke-dasharray="5,2" d="M474.91,-203.5C507.17,-197.2 546.67,-189.49 577.19,-183.53"/>
<polygon fill="#9a32cd" stroke="#9a32cd" points="473.85,-200.14 464.71,-205.49 475.19,-207.01 473.85,-200.14"/>
<text text-anchor="middle" x="524" y="-201" font-family="Helvetica,sans-Serif" font-size="10.00"> cfg_disp</text>
</g>
<!-- Node4 -->
<g id="node4" class="node">
<title>Node4</title>
<g id="a_node4"><a xlink:href="structservio_1_1core_1_1core.html" target="_top" xlink:title=" ">
<polygon fill="white" stroke="red" points="185,-209.5 185,-228.5 286,-228.5 286,-209.5 185,-209.5"/>
<text text-anchor="middle" x="235.5" y="-216.5" font-family="Helvetica,sans-Serif" font-size="10.00">servio::core::core</text>
</a>
</g>
</g>
<!-- Node4&#45;&gt;Node3 -->
<g id="edge3" class="edge">
<title>Node4&#45;&gt;Node3</title>
<path fill="none" stroke="#9a32cd" stroke-dasharray="5,2" d="M296.51,-217.65C314.54,-217.24 334.33,-216.8 352.46,-216.39"/>
<polygon fill="#9a32cd" stroke="#9a32cd" points="296.33,-214.15 286.42,-217.88 296.49,-221.15 296.33,-214.15"/>
<text text-anchor="middle" x="317.5" y="-220" font-family="Helvetica,sans-Serif" font-size="10.00"> c</text>
</g>
<!-- Node6 -->
<g id="node5" class="node">
<title>Node6</title>
<g id="a_node5"><a xlink:href="structservio_1_1cnv_1_1converter.html" target="_top" xlink:title=" ">
<polygon fill="white" stroke="red" points="0,-234.5 0,-253.5 122,-253.5 122,-234.5 0,-234.5"/>
<text text-anchor="middle" x="61" y="-241.5" font-family="Helvetica,sans-Serif" font-size="10.00">servio::cnv::converter</text>
</a>
</g>
</g>
<!-- Node6&#45;&gt;Node1 -->
<g id="edge7" class="edge">
<title>Node6&#45;&gt;Node1</title>
<path fill="none" stroke="#9a32cd" stroke-dasharray="5,2" d="M132.36,-248.55C216.11,-252.54 359.84,-254.85 481,-234 530.4,-225.5 583.7,-198.22 609.77,-183.55"/>
<polygon fill="#9a32cd" stroke="#9a32cd" points="132.37,-245.05 122.21,-248.05 132.02,-252.04 132.37,-245.05"/>
<text text-anchor="middle" x="317.5" y="-253" font-family="Helvetica,sans-Serif" font-size="10.00"> conv</text>
</g>
<!-- Node6&#45;&gt;Node4 -->
<g id="edge4" class="edge">
<title>Node6&#45;&gt;Node4</title>
<path fill="none" stroke="#9a32cd" stroke-dasharray="5,2" d="M132.52,-233.78C150.05,-231.24 168.47,-228.57 184.76,-226.21"/>
<polygon fill="#9a32cd" stroke="#9a32cd" points="131.73,-230.36 122.33,-235.26 132.73,-237.29 131.73,-230.36"/>
<text text-anchor="middle" x="153.5" y="-235" font-family="Helvetica,sans-Serif" font-size="10.00"> conv</text>
</g>
<!-- Node9 -->
<g id="node6" class="node">
<title>Node9</title>
<g id="a_node6"><a xlink:href="classservio_1_1mtr_1_1metrics.html" target="_top" xlink:title=" ">
<polygon fill="white" stroke="black" points="4.5,-297.5 4.5,-316.5 117.5,-316.5 117.5,-297.5 4.5,-297.5"/>
<text text-anchor="middle" x="61" y="-304.5" font-family="Helvetica,sans-Serif" font-size="10.00">servio::mtr::metrics</text>
</a>
</g>
</g>
<!-- Node9&#45;&gt;Node1 -->
<g id="edge10" class="edge">
<title>Node9&#45;&gt;Node1</title>
<path fill="none" stroke="#9a32cd" stroke-dasharray="5,2" d="M127.75,-302.17C210.72,-295.31 357.5,-280.65 481,-255 511.84,-248.59 521.03,-249.49 549,-235 575.95,-221.04 602.65,-197 616.42,-183.65"/>
<polygon fill="#9a32cd" stroke="#9a32cd" points="127.39,-298.68 117.71,-302.98 127.96,-305.66 127.39,-298.68"/>
<text text-anchor="middle" x="317.5" y="-286" font-family="Helvetica,sans-Serif" font-size="10.00"> met</text>
</g>
<!-- Node9&#45;&gt;Node4 -->
<g id="edge5" class="edge">
<title>Node9&#45;&gt;Node4</title>
<path fill="none" stroke="#9a32cd" stroke-dasharray="5,2" d="M90.08,-292.67C125.5,-274.61 185.42,-244.04 215.73,-228.57"/>
<polygon fill="#9a32cd" stroke="#9a32cd" points="88.11,-289.75 80.79,-297.41 91.29,-295.99 88.11,-289.75"/>
<text text-anchor="middle" x="153.5" y="-268" font-family="Helvetica,sans-Serif" font-size="10.00"> met</text>
</g>
<!-- Node10 -->
<g id="node7" class="node">
<title>Node10</title>
<g id="a_node7"><a xlink:href="classservio_1_1ctl_1_1control.html" target="_top" xlink:title=" ">
<polygon fill="white" stroke="black" points="9,-182.5 9,-201.5 113,-201.5 113,-182.5 9,-182.5"/>
<text text-anchor="middle" x="61" y="-189.5" font-family="Helvetica,sans-Serif" font-size="10.00">servio::ctl::control</text>
</a>
</g>
</g>
<!-- Node10&#45;&gt;Node1 -->
<g id="edge11" class="edge">
<title>Node10&#45;&gt;Node1</title>
<path fill="none" stroke="#9a32cd" stroke-dasharray="5,2" d="M123.23,-190.05C232.32,-186.56 458.97,-179.33 566.68,-175.89"/>
<polygon fill="#9a32cd" stroke="#9a32cd" points="122.93,-186.55 113.05,-190.37 123.15,-193.55 122.93,-186.55"/>
<text text-anchor="middle" x="317.5" y="-187" font-family="Helvetica,sans-Serif" font-size="10.00"> ctl</text>
</g>
<!-- Node10&#45;&gt;Node4 -->
<g id="edge6" class="edge">
<title>Node10&#45;&gt;Node4</title>
<path fill="none" stroke="#9a32cd" stroke-dasharray="5,2" d="M123.33,-201.6C143.51,-204.76 165.69,-208.23 184.89,-211.24"/>
<polygon fill="#9a32cd" stroke="#9a32cd" points="123.71,-198.12 113.29,-200.03 122.63,-205.03 123.71,-198.12"/>
<text text-anchor="middle" x="153.5" y="-210" font-family="Helvetica,sans-Serif" font-size="10.00"> ctl</text>
</g>
<!-- Node11 -->
<g id="node8" class="node">
<title>Node11</title>
<g id="a_node8"><a xlink:href="classservio_1_1drv_1_1pwm__motor__iface.html" target="_top" xlink:title=" ">
<polygon fill="white" stroke="black" points="349,-115 349,-145 481,-145 481,-115 349,-115"/>
<text text-anchor="start" x="357" y="-133" font-family="Helvetica,sans-Serif" font-size="10.00">servio::drv::pwm_motor</text>
<text text-anchor="middle" x="415" y="-122" font-family="Helvetica,sans-Serif" font-size="10.00">_iface</text>
</a>
</g>
</g>
<!-- Node11&#45;&gt;Node1 -->
<g id="edge8" class="edge">
<title>Node11&#45;&gt;Node1</title>
<path fill="none" stroke="#9a32cd" stroke-dasharray="5,2" d="M491.12,-138.43C510.13,-141.19 530.41,-144.69 549,-149 566.39,-153.03 585.47,-159.22 600.29,-164.43"/>
<polygon fill="#9a32cd" stroke="#9a32cd" points="491.41,-134.94 481.02,-137.01 490.43,-141.87 491.41,-134.94"/>
<text text-anchor="middle" x="524" y="-152" font-family="Helvetica,sans-Serif" font-size="10.00"> motor</text>
</g>
<!-- Node12 -->
<g id="node9" class="node">
<title>Node12</title>
<g id="a_node9"><a xlink:href="classservio_1_1drv_1_1vcc__iface.html" target="_top" xlink:title=" ">
<polygon fill="white" stroke="black" points="355.5,-76.5 355.5,-95.5 474.5,-95.5 474.5,-76.5 355.5,-76.5"/>
<text text-anchor="middle" x="415" y="-83.5" font-family="Helvetica,sans-Serif" font-size="10.00">servio::drv::vcc_iface</text>
</a>
</g>
</g>
<!-- Node12&#45;&gt;Node1 -->
<g id="edge9" class="edge">
<title>Node12&#45;&gt;Node1</title>
<path fill="none" stroke="#9a32cd" stroke-dasharray="5,2" d="M469.86,-98.11C494.56,-104.58 523.87,-113.6 549,-125 573.1,-135.93 598.52,-153.45 613.29,-164.32"/>
<polygon fill="#9a32cd" stroke="#9a32cd" points="470.49,-94.65 459.94,-95.57 468.76,-101.44 470.49,-94.65"/>
<text text-anchor="middle" x="524" y="-128" font-family="Helvetica,sans-Serif" font-size="10.00"> vcc_drv</text>
</g>
<!-- Node13 -->
<g id="node10" class="node">
<title>Node13</title>
<g id="a_node10"><a xlink:href="classservio_1_1drv_1_1temp__iface.html" target="_top" xlink:title=" ">
<polygon fill="white" stroke="black" points="351,-38.5 351,-57.5 479,-57.5 479,-38.5 351,-38.5"/>
<text text-anchor="middle" x="415" y="-45.5" font-family="Helvetica,sans-Serif" font-size="10.00">servio::drv::temp_iface</text>
</a>
</g>
</g>
<!-- Node13&#45;&gt;Node1 -->
<g id="edge12" class="edge">
<title>Node13&#45;&gt;Node1</title>
<path fill="none" stroke="#9a32cd" stroke-dasharray="5,2" d="M476.22,-60.13C500.17,-66.77 527.16,-76.66 549,-91 580.22,-111.5 607.51,-147.29 619.51,-164.38"/>
<polygon fill="#9a32cd" stroke="#9a32cd" points="477.07,-56.74 466.51,-57.57 475.29,-63.51 477.07,-56.74"/>
<text text-anchor="middle" x="524" y="-94" font-family="Helvetica,sans-Serif" font-size="10.00"> temp_drv</text>
</g>
<!-- Node14 -->
<g id="node11" class="node">
<title>Node14</title>
<g id="a_node11"><a xlink:href="classservio_1_1drv_1_1curr__iface.html" target="_top" xlink:title=" ">
<polygon fill="white" stroke="black" points="354,-0.5 354,-19.5 476,-19.5 476,-0.5 354,-0.5"/>
<text text-anchor="middle" x="415" y="-7.5" font-family="Helvetica,sans-Serif" font-size="10.00">servio::drv::curr_iface</text>
</a>
</g>
</g>
<!-- Node14&#45;&gt;Node1 -->
<g id="edge13" class="edge">
<title>Node14&#45;&gt;Node1</title>
<path fill="none" stroke="#9a32cd" stroke-dasharray="5,2" d="M485.93,-21.98C507.76,-28.24 530.85,-37.71 549,-52 588.75,-83.3 613.71,-141.16 622.47,-164.18"/>
<polygon fill="#9a32cd" stroke="#9a32cd" points="486.58,-18.53 476.01,-19.32 484.77,-25.29 486.58,-18.53"/>
<text text-anchor="middle" x="524" y="-55" font-family="Helvetica,sans-Serif" font-size="10.00"> curr_drv</text>
</g>
</g>
</svg>
