<?xml version="1.0" encoding="UTF-8" standalone="no"?>
<!DOCTYPE svg PUBLIC "-//W3C//DTD SVG 1.1//EN"
 "http://www.w3.org/Graphics/SVG/1.1/DTD/svg11.dtd">
<!-- Generated by graphviz version 2.43.0 (0)
 -->
<!-- Title: servio::ftester::controller_interface Pages: 1 -->
<svg width="267pt" height="185pt"
 viewBox="0.00 0.00 267.00 185.00" xmlns="http://www.w3.org/2000/svg" xmlns:xlink="http://www.w3.org/1999/xlink">
<g id="graph0" class="graph" transform="scale(1 1) rotate(0) translate(4 181)">
<title>servio::ftester::controller_interface</title>
<polygon fill="white" stroke="transparent" points="-4,4 -4,-181 263,-181 263,4 -4,4"/>
<!-- Node1 -->
<g id="node1" class="node">
<title>Node1</title>
<g id="a_node1"><a xlink:title=" ">
<polygon fill="#bfbfbf" stroke="black" points="10,-0.5 10,-30.5 147,-30.5 147,-0.5 10,-0.5"/>
<text text-anchor="start" x="18" y="-18.5" font-family="Helvetica,sans-Serif" font-size="10.00">servio::ftester::controller</text>
<text text-anchor="middle" x="78.5" y="-7.5" font-family="Helvetica,sans-Serif" font-size="10.00">_interface</text>
</a>
</g>
</g>
<!-- Node2 -->
<g id="node2" class="node">
<title>Node2</title>
<g id="a_node2"><a xlink:title=" ">
<polygon fill="white" stroke="#bfbfbf" points="0,-78.5 0,-108.5 125,-108.5 125,-78.5 0,-78.5"/>
<text text-anchor="start" x="8" y="-96.5" font-family="Helvetica,sans-Serif" font-size="10.00">em::testing::controller</text>
<text text-anchor="middle" x="62.5" y="-85.5" font-family="Helvetica,sans-Serif" font-size="10.00">_interface</text>
</a>
</g>
</g>
<!-- Node2&#45;&gt;Node1 -->
<g id="edge1" class="edge">
<title>Node2&#45;&gt;Node1</title>
<path fill="none" stroke="midnightblue" d="M67.64,-68.09C70.24,-55.76 73.3,-41.22 75.5,-30.73"/>
<polygon fill="midnightblue" stroke="midnightblue" points="64.14,-67.7 65.51,-78.2 70.99,-69.14 64.14,-67.7"/>
</g>
<!-- Node3 -->
<g id="node3" class="node">
<title>Node3</title>
<g id="a_node3"><a xlink:title=" ">
<polygon fill="white" stroke="#bfbfbf" points="143.5,-84 143.5,-103 243.5,-103 243.5,-84 143.5,-84"/>
<text text-anchor="middle" x="193.5" y="-91" font-family="Helvetica,sans-Serif" font-size="10.00">std::stringstream</text>
</a>
</g>
</g>
<!-- Node3&#45;&gt;Node1 -->
<g id="edge2" class="edge">
<title>Node3&#45;&gt;Node1</title>
<path fill="none" stroke="#9a32cd" stroke-dasharray="5,2" d="M171.88,-78.21C151.21,-64.55 120.24,-44.09 99.71,-30.52"/>
<polygon fill="#9a32cd" stroke="#9a32cd" points="170.04,-81.19 180.31,-83.78 173.89,-75.35 170.04,-81.19"/>
<text text-anchor="middle" x="156.5" y="-52" font-family="Helvetica,sans-Serif" font-size="10.00"> errss</text>
</g>
<!-- Node4 -->
<g id="node4" class="node">
<title>Node4</title>
<g id="a_node4"><a xlink:title=" ">
<polygon fill="white" stroke="#bfbfbf" points="128,-146.5 128,-176.5 259,-176.5 259,-146.5 128,-146.5"/>
<text text-anchor="start" x="136" y="-164.5" font-family="Helvetica,sans-Serif" font-size="10.00">std::basic_stringstream</text>
<text text-anchor="middle" x="193.5" y="-153.5" font-family="Helvetica,sans-Serif" font-size="10.00">&lt; Char &gt;</text>
</a>
</g>
</g>
<!-- Node4&#45;&gt;Node3 -->
<g id="edge3" class="edge">
<title>Node4&#45;&gt;Node3</title>
<path fill="none" stroke="midnightblue" d="M193.5,-135.88C193.5,-124.47 193.5,-111.64 193.5,-103.33"/>
<polygon fill="midnightblue" stroke="midnightblue" points="190,-136.18 193.5,-146.18 197,-136.18 190,-136.18"/>
</g>
</g>
</svg>
