<?xml version="1.0" encoding="UTF-8" standalone="no"?>
<!DOCTYPE svg PUBLIC "-//W3C//DTD SVG 1.1//EN"
 "http://www.w3.org/Graphics/SVG/1.1/DTD/svg11.dtd">
<!-- Generated by graphviz version 2.43.0 (0)
 -->
<!-- Title: fw::dispatcher Pages: 1 -->
<svg width="563pt" height="371pt"
 viewBox="0.00 0.00 563.00 371.00" xmlns="http://www.w3.org/2000/svg" xmlns:xlink="http://www.w3.org/1999/xlink">
<g id="graph0" class="graph" transform="scale(1 1) rotate(0) translate(4 367)">
<title>fw::dispatcher</title>
<polygon fill="white" stroke="transparent" points="-4,4 -4,-367 559,-367 559,4 -4,4"/>
<!-- Node1 -->
<g id="node1" class="node">
<title>Node1</title>
<g id="a_node1"><a xlink:title=" ">
<polygon fill="#bfbfbf" stroke="black" points="471,-179.5 471,-198.5 555,-198.5 555,-179.5 471,-179.5"/>
<text text-anchor="middle" x="513" y="-186.5" font-family="Helvetica,sans-Serif" font-size="10.00">fw::dispatcher</text>
</a>
</g>
</g>
<!-- Node2 -->
<g id="node2" class="node">
<title>Node2</title>
<g id="a_node2"><a xlink:href="classfw_1_1drv_1_1current__interface.html" target="_top" xlink:title=" ">
<polygon fill="white" stroke="black" points="245.5,-343.5 245.5,-362.5 382.5,-362.5 382.5,-343.5 245.5,-343.5"/>
<text text-anchor="middle" x="314" y="-350.5" font-family="Helvetica,sans-Serif" font-size="10.00">fw::drv::current_interface</text>
</a>
</g>
</g>
<!-- Node2&#45;&gt;Node1 -->
<g id="edge1" class="edge">
<title>Node2&#45;&gt;Node1</title>
<path fill="none" stroke="#9a32cd" stroke-dasharray="5,2" d="M375.35,-340.76C401.97,-332.72 431.92,-319.72 453,-299 483.6,-268.92 502.16,-219.57 509,-198.75"/>
<polygon fill="#9a32cd" stroke="#9a32cd" points="374.38,-337.39 365.72,-343.5 376.29,-344.13 374.38,-337.39"/>
<text text-anchor="middle" x="428" y="-332" font-family="Helvetica,sans-Serif" font-size="10.00"> curr_drv</text>
</g>
<!-- Node3 -->
<g id="node3" class="node">
<title>Node3</title>
<g id="a_node3"><a xlink:href="classfw_1_1drv_1_1temperature__interface.html" target="_top" xlink:title=" ">
<polygon fill="white" stroke="black" points="256.5,-294 256.5,-324 371.5,-324 371.5,-294 256.5,-294"/>
<text text-anchor="start" x="264.5" y="-312" font-family="Helvetica,sans-Serif" font-size="10.00">fw::drv::temperature</text>
<text text-anchor="middle" x="314" y="-301" font-family="Helvetica,sans-Serif" font-size="10.00">_interface</text>
</a>
</g>
</g>
<!-- Node3&#45;&gt;Node1 -->
<g id="edge2" class="edge">
<title>Node3&#45;&gt;Node1</title>
<path fill="none" stroke="#9a32cd" stroke-dasharray="5,2" d="M381.35,-292.77C405.28,-284.97 431.63,-273.98 453,-259 476.95,-242.21 496.95,-213.4 506.31,-198.51"/>
<polygon fill="#9a32cd" stroke="#9a32cd" points="380.12,-289.49 371.62,-295.82 382.21,-296.17 380.12,-289.49"/>
<text text-anchor="middle" x="428" y="-287" font-family="Helvetica,sans-Serif" font-size="10.00"> temp_drv</text>
</g>
<!-- Node4 -->
<g id="node4" class="node">
<title>Node4</title>
<g id="a_node4"><a xlink:href="classfw_1_1drv_1_1position__interface.html" target="_top" xlink:title=" ">
<polygon fill="white" stroke="black" points="243,-255.5 243,-274.5 385,-274.5 385,-255.5 243,-255.5"/>
<text text-anchor="middle" x="314" y="-262.5" font-family="Helvetica,sans-Serif" font-size="10.00">fw::drv::position_interface</text>
</a>
</g>
</g>
<!-- Node4&#45;&gt;Node1 -->
<g id="edge3" class="edge">
<title>Node4&#45;&gt;Node1</title>
<path fill="none" stroke="#9a32cd" stroke-dasharray="5,2" d="M373.29,-253.16C398.43,-246.99 427.79,-238.33 453,-227 470.11,-219.31 487.99,-207.12 499.52,-198.63"/>
<polygon fill="#9a32cd" stroke="#9a32cd" points="372.44,-249.76 363.52,-255.48 374.06,-256.57 372.44,-249.76"/>
<text text-anchor="middle" x="428" y="-247" font-family="Helvetica,sans-Serif" font-size="10.00"> pos_drv</text>
</g>
<!-- Node5 -->
<g id="node5" class="node">
<title>Node5</title>
<g id="a_node5"><a xlink:href="classfw_1_1drv_1_1hbridge.html" target="_top" xlink:title=" ">
<polygon fill="white" stroke="black" points="268.5,-217.5 268.5,-236.5 359.5,-236.5 359.5,-217.5 268.5,-217.5"/>
<text text-anchor="middle" x="314" y="-224.5" font-family="Helvetica,sans-Serif" font-size="10.00">fw::drv::hbridge</text>
</a>
</g>
</g>
<!-- Node5&#45;&gt;Node1 -->
<g id="edge4" class="edge">
<title>Node5&#45;&gt;Node1</title>
<path fill="none" stroke="#9a32cd" stroke-dasharray="5,2" d="M369.75,-218.27C395.14,-214.01 425.68,-208.61 453,-203 459.6,-201.64 466.59,-200.09 473.36,-198.52"/>
<polygon fill="#9a32cd" stroke="#9a32cd" points="368.86,-214.86 359.57,-219.96 370,-221.77 368.86,-214.86"/>
<text text-anchor="middle" x="428" y="-215" font-family="Helvetica,sans-Serif" font-size="10.00"> hb</text>
</g>
<!-- Node6 -->
<g id="node6" class="node">
<title>Node6</title>
<g id="a_node6"><a xlink:href="structfw_1_1cfg__dispatcher.html" target="_top" xlink:title=" ">
<polygon fill="white" stroke="black" points="262,-93.5 262,-112.5 366,-112.5 366,-93.5 262,-93.5"/>
<text text-anchor="middle" x="314" y="-100.5" font-family="Helvetica,sans-Serif" font-size="10.00">fw::cfg_dispatcher</text>
</a>
</g>
</g>
<!-- Node6&#45;&gt;Node1 -->
<g id="edge5" class="edge">
<title>Node6&#45;&gt;Node1</title>
<path fill="none" stroke="#9a32cd" stroke-dasharray="5,2" d="M376.4,-98.67C401.45,-99.4 429.89,-103.6 453,-116 479.99,-130.49 499.16,-163.06 507.44,-179.35"/>
<polygon fill="#9a32cd" stroke="#9a32cd" points="376.3,-95.17 366.26,-98.55 376.22,-102.17 376.3,-95.17"/>
<text text-anchor="middle" x="428" y="-119" font-family="Helvetica,sans-Serif" font-size="10.00"> cfg_disp</text>
</g>
<!-- Node7 -->
<g id="node7" class="node">
<title>Node7</title>
<g id="a_node7"><a xlink:href="structfw_1_1core.html" target="_top" xlink:title=" ">
<polygon fill="white" stroke="red" points="126,-93.5 126,-112.5 180,-112.5 180,-93.5 126,-93.5"/>
<text text-anchor="middle" x="153" y="-100.5" font-family="Helvetica,sans-Serif" font-size="10.00">fw::core</text>
</a>
</g>
</g>
<!-- Node7&#45;&gt;Node6 -->
<g id="edge6" class="edge">
<title>Node7&#45;&gt;Node6</title>
<path fill="none" stroke="#9a32cd" stroke-dasharray="5,2" d="M190.45,-103C211.63,-103 238.66,-103 261.94,-103"/>
<polygon fill="#9a32cd" stroke="#9a32cd" points="190.26,-99.5 180.26,-103 190.26,-106.5 190.26,-99.5"/>
<text text-anchor="middle" x="211.5" y="-106" font-family="Helvetica,sans-Serif" font-size="10.00"> c</text>
</g>
<!-- Node10 -->
<g id="node8" class="node">
<title>Node10</title>
<g id="a_node8"><a xlink:href="classmetrics.html" target="_top" xlink:title=" ">
<polygon fill="white" stroke="black" points="5,-114.5 5,-133.5 58,-133.5 58,-114.5 5,-114.5"/>
<text text-anchor="middle" x="31.5" y="-121.5" font-family="Helvetica,sans-Serif" font-size="10.00">metrics</text>
</a>
</g>
</g>
<!-- Node10&#45;&gt;Node1 -->
<g id="edge12" class="edge">
<title>Node10&#45;&gt;Node1</title>
<path fill="none" stroke="#9a32cd" stroke-dasharray="5,2" d="M68.21,-128.84C155.31,-140.65 378.28,-170.87 470.8,-183.42"/>
<polygon fill="#9a32cd" stroke="#9a32cd" points="68.66,-125.37 58.28,-127.49 67.72,-132.31 68.66,-125.37"/>
<text text-anchor="middle" x="211.5" y="-152" font-family="Helvetica,sans-Serif" font-size="10.00"> met</text>
</g>
<!-- Node10&#45;&gt;Node7 -->
<g id="edge7" class="edge">
<title>Node10&#45;&gt;Node7</title>
<path fill="none" stroke="#9a32cd" stroke-dasharray="5,2" d="M68.03,-117.76C86.64,-114.49 109.02,-110.55 125.99,-107.57"/>
<polygon fill="#9a32cd" stroke="#9a32cd" points="67.38,-114.32 58.14,-119.49 68.59,-121.21 67.38,-114.32"/>
<text text-anchor="middle" x="94.5" y="-118" font-family="Helvetica,sans-Serif" font-size="10.00"> met</text>
</g>
<!-- Node11 -->
<g id="node9" class="node">
<title>Node11</title>
<g id="a_node9"><a xlink:href="structconverter.html" target="_top" xlink:title=" ">
<polygon fill="white" stroke="red" points="0,-177.5 0,-196.5 63,-196.5 63,-177.5 0,-177.5"/>
<text text-anchor="middle" x="31.5" y="-184.5" font-family="Helvetica,sans-Serif" font-size="10.00">converter</text>
</a>
</g>
</g>
<!-- Node11&#45;&gt;Node1 -->
<g id="edge11" class="edge">
<title>Node11&#45;&gt;Node1</title>
<path fill="none" stroke="#9a32cd" stroke-dasharray="5,2" d="M73.37,-187.17C163.86,-187.55 380.32,-188.45 470.97,-188.83"/>
<polygon fill="#9a32cd" stroke="#9a32cd" points="73.24,-183.67 63.22,-187.13 73.21,-190.67 73.24,-183.67"/>
<text text-anchor="middle" x="211.5" y="-190" font-family="Helvetica,sans-Serif" font-size="10.00"> conv</text>
</g>
<!-- Node11&#45;&gt;Node7 -->
<g id="edge8" class="edge">
<title>Node11&#45;&gt;Node7</title>
<path fill="none" stroke="#9a32cd" stroke-dasharray="5,2" d="M54.54,-171.5C79.1,-154.25 118.02,-126.89 138.45,-112.52"/>
<polygon fill="#9a32cd" stroke="#9a32cd" points="52.38,-168.75 46.21,-177.36 56.4,-174.48 52.38,-168.75"/>
<text text-anchor="middle" x="94.5" y="-155" font-family="Helvetica,sans-Serif" font-size="10.00"> conv</text>
</g>
<!-- Node16 -->
<g id="node10" class="node">
<title>Node16</title>
<g id="a_node10"><a xlink:href="classcontrol.html" target="_top" xlink:title=" ">
<polygon fill="white" stroke="black" points="6.5,-62.5 6.5,-81.5 56.5,-81.5 56.5,-62.5 6.5,-62.5"/>
<text text-anchor="middle" x="31.5" y="-69.5" font-family="Helvetica,sans-Serif" font-size="10.00">control</text>
</a>
</g>
</g>
<!-- Node16&#45;&gt;Node1 -->
<g id="edge13" class="edge">
<title>Node16&#45;&gt;Node1</title>
<path fill="none" stroke="#9a32cd" stroke-dasharray="5,2" d="M66.57,-63.32C143.18,-45.92 331.79,-15.01 453,-97 483.65,-117.73 501.84,-160.26 508.77,-179.35"/>
<polygon fill="#9a32cd" stroke="#9a32cd" points="65.46,-59.99 56.52,-65.68 67.05,-66.81 65.46,-59.99"/>
<text text-anchor="middle" x="211.5" y="-47" font-family="Helvetica,sans-Serif" font-size="10.00"> ctl</text>
</g>
<!-- Node16&#45;&gt;Node7 -->
<g id="edge9" class="edge">
<title>Node16&#45;&gt;Node7</title>
<path fill="none" stroke="#9a32cd" stroke-dasharray="5,2" d="M66.37,-80.79C85.22,-85.68 108.32,-91.67 125.78,-96.2"/>
<polygon fill="#9a32cd" stroke="#9a32cd" points="67.24,-77.4 56.68,-78.27 65.48,-84.17 67.24,-77.4"/>
<text text-anchor="middle" x="94.5" y="-94" font-family="Helvetica,sans-Serif" font-size="10.00"> ctl</text>
</g>
<!-- Node17 -->
<g id="node11" class="node">
<title>Node17</title>
<g id="a_node11"><a xlink:href="classfw_1_1drv_1_1vcc__interface.html" target="_top" xlink:title=" ">
<polygon fill="white" stroke="black" points="254.5,-0.5 254.5,-19.5 373.5,-19.5 373.5,-0.5 254.5,-0.5"/>
<text text-anchor="middle" x="314" y="-7.5" font-family="Helvetica,sans-Serif" font-size="10.00">fw::drv::vcc_interface</text>
</a>
</g>
</g>
<!-- Node17&#45;&gt;Node1 -->
<g id="edge10" class="edge">
<title>Node17&#45;&gt;Node1</title>
<path fill="none" stroke="#9a32cd" stroke-dasharray="5,2" d="M383.75,-2.08C407.82,-2.8 433.65,-7.93 453,-23 503.92,-62.65 510.98,-149.71 511.89,-179.09"/>
<polygon fill="#9a32cd" stroke="#9a32cd" points="383.59,1.42 373.57,-2.03 383.55,-5.58 383.59,1.42"/>
<text text-anchor="middle" x="428" y="-26" font-family="Helvetica,sans-Serif" font-size="10.00"> vcc_drv</text>
</g>
</g>
</svg>
