<?xml version="1.0" encoding="UTF-8" standalone="no"?>
<!DOCTYPE svg PUBLIC "-//W3C//DTD SVG 1.1//EN"
 "http://www.w3.org/Graphics/SVG/1.1/DTD/svg11.dtd">
<!-- Generated by graphviz version 2.43.0 (0)
 -->
<!-- Title: servio::drv::adc_channel_with_callback&lt; ID &gt; Pages: 1 -->
<svg width="142pt" height="174pt"
 viewBox="0.00 0.00 142.00 174.00" xmlns="http://www.w3.org/2000/svg" xmlns:xlink="http://www.w3.org/1999/xlink">
<g id="graph0" class="graph" transform="scale(1 1) rotate(0) translate(4 170)">
<title>servio::drv::adc_channel_with_callback&lt; ID &gt;</title>
<polygon fill="white" stroke="transparent" points="-4,4 -4,-170 138,-170 138,4 -4,4"/>
<!-- Node1 -->
<g id="node1" class="node">
<title>Node1</title>
<g id="a_node1"><a xlink:title=" ">
<polygon fill="#bfbfbf" stroke="black" points="0,-0.5 0,-30.5 134,-30.5 134,-0.5 0,-0.5"/>
<text text-anchor="start" x="8" y="-18.5" font-family="Helvetica,sans-Serif" font-size="10.00">servio::drv::adc_channel</text>
<text text-anchor="middle" x="67" y="-7.5" font-family="Helvetica,sans-Serif" font-size="10.00">_with_callback&lt; ID &gt;</text>
</a>
</g>
</g>
<!-- Node2 -->
<g id="node2" class="node">
<title>Node2</title>
<g id="a_node2"><a xlink:href="structservio_1_1drv_1_1adc__channel.html" target="_top" xlink:title=" ">
<polygon fill="white" stroke="black" points="0,-68.5 0,-98.5 134,-98.5 134,-68.5 0,-68.5"/>
<text text-anchor="start" x="8" y="-86.5" font-family="Helvetica,sans-Serif" font-size="10.00">servio::drv::adc_channel</text>
<text text-anchor="middle" x="67" y="-75.5" font-family="Helvetica,sans-Serif" font-size="10.00">&lt; ID &gt;</text>
</a>
</g>
</g>
<!-- Node2&#45;&gt;Node1 -->
<g id="edge1" class="edge">
<title>Node2&#45;&gt;Node1</title>
<path fill="none" stroke="midnightblue" d="M67,-58.03C67,-48.86 67,-38.74 67,-30.79"/>
<polygon fill="midnightblue" stroke="midnightblue" points="63.5,-58.18 67,-68.18 70.5,-58.18 63.5,-58.18"/>
</g>
<!-- Node3 -->
<g id="node3" class="node">
<title>Node3</title>
<g id="a_node3"><a xlink:href="classservio_1_1sntr_1_1sentry.html" target="_top" xlink:title=" ">
<polygon fill="white" stroke="black" points="13,-146.5 13,-165.5 121,-165.5 121,-146.5 13,-146.5"/>
<text text-anchor="middle" x="67" y="-153.5" font-family="Helvetica,sans-Serif" font-size="10.00">servio::sntr::sentry</text>
</a>
</g>
</g>
<!-- Node3&#45;&gt;Node2 -->
<g id="edge2" class="edge">
<title>Node3&#45;&gt;Node2</title>
<path fill="none" stroke="#9a32cd" stroke-dasharray="5,2" d="M67,-136.24C67,-124.41 67,-109.38 67,-98.58"/>
<polygon fill="#9a32cd" stroke="#9a32cd" points="63.5,-136.36 67,-146.36 70.5,-136.36 63.5,-136.36"/>
<text text-anchor="middle" x="87" y="-120" font-family="Helvetica,sans-Serif" font-size="10.00"> sentry_</text>
</g>
</g>
</svg>
