<?xml version="1.0" encoding="UTF-8" standalone="no"?>
<!DOCTYPE svg PUBLIC "-//W3C//DTD SVG 1.1//EN"
 "http://www.w3.org/Graphics/SVG/1.1/DTD/svg11.dtd">
<!-- Generated by graphviz version 2.43.0 (0)
 -->
<!-- Title: servio::fw::dispatcher Pages: 1 -->
<svg width="729pt" height="407pt"
 viewBox="0.00 0.00 729.00 406.50" xmlns="http://www.w3.org/2000/svg" xmlns:xlink="http://www.w3.org/1999/xlink">
<g id="graph0" class="graph" transform="scale(1 1) rotate(0) translate(4 402.5)">
<title>servio::fw::dispatcher</title>
<polygon fill="white" stroke="transparent" points="-4,4 -4,-402.5 725,-402.5 725,4 -4,4"/>
<!-- Node1 -->
<g id="node1" class="node">
<title>Node1</title>
<g id="a_node1"><a xlink:title=" ">
<polygon fill="#bfbfbf" stroke="black" points="601,-164 601,-183 721,-183 721,-164 601,-164"/>
<text text-anchor="middle" x="661" y="-171" font-family="Helvetica,sans-Serif" font-size="10.00">servio::fw::dispatcher</text>
</a>
</g>
</g>
<!-- Node2 -->
<g id="node2" class="node">
<title>Node2</title>
<g id="a_node2"><a xlink:href="classservio_1_1control.html" target="_top" xlink:title=" ">
<polygon fill="white" stroke="black" points="6.5,-341 6.5,-360 92.5,-360 92.5,-341 6.5,-341"/>
<text text-anchor="middle" x="49.5" y="-348" font-family="Helvetica,sans-Serif" font-size="10.00">servio::control</text>
</a>
</g>
</g>
<!-- Node2&#45;&gt;Node1 -->
<g id="edge1" class="edge">
<title>Node2&#45;&gt;Node1</title>
<path fill="none" stroke="#9a32cd" stroke-dasharray="5,2" d="M96.57,-362.35C195.65,-384.96 432.21,-423.24 583,-318.5 631.69,-284.68 652.09,-210.09 658.03,-183.31"/>
<polygon fill="#9a32cd" stroke="#9a32cd" points="97.11,-358.88 86.58,-360.01 95.52,-365.69 97.11,-358.88"/>
<text text-anchor="middle" x="323.5" y="-390.5" font-family="Helvetica,sans-Serif" font-size="10.00"> ctl</text>
</g>
<!-- Node6 -->
<g id="node6" class="node">
<title>Node6</title>
<g id="a_node6"><a xlink:href="structservio_1_1core.html" target="_top" xlink:title=" ">
<polygon fill="white" stroke="red" points="190,-299 190,-318 264,-318 264,-299 190,-299"/>
<text text-anchor="middle" x="227" y="-306" font-family="Helvetica,sans-Serif" font-size="10.00">servio::core</text>
</a>
</g>
</g>
<!-- Node2&#45;&gt;Node6 -->
<g id="edge6" class="edge">
<title>Node2&#45;&gt;Node6</title>
<path fill="none" stroke="#9a32cd" stroke-dasharray="5,2" d="M100.13,-338.62C128.71,-331.78 163.99,-323.34 189.92,-317.14"/>
<polygon fill="#9a32cd" stroke="#9a32cd" points="99.23,-335.24 90.32,-340.97 100.86,-342.05 99.23,-335.24"/>
<text text-anchor="middle" x="130.5" y="-336.5" font-family="Helvetica,sans-Serif" font-size="10.00"> ctl</text>
</g>
<!-- Node3 -->
<g id="node3" class="node">
<title>Node3</title>
<g id="a_node3"><a xlink:href="classservio_1_1temperature__interface.html" target="_top" xlink:title=" ">
<polygon fill="white" stroke="black" points="378.5,-0.5 378.5,-30.5 491.5,-30.5 491.5,-0.5 378.5,-0.5"/>
<text text-anchor="start" x="386.5" y="-18.5" font-family="Helvetica,sans-Serif" font-size="10.00">servio::temperature</text>
<text text-anchor="middle" x="435" y="-7.5" font-family="Helvetica,sans-Serif" font-size="10.00">_interface</text>
</a>
</g>
</g>
<!-- Node3&#45;&gt;Node1 -->
<g id="edge2" class="edge">
<title>Node3&#45;&gt;Node1</title>
<path fill="none" stroke="#9a32cd" stroke-dasharray="5,2" d="M501.63,-29.03C528.79,-36.97 559.39,-49.16 583,-67.5 618.57,-95.12 645.18,-143.43 655.41,-163.9"/>
<polygon fill="#9a32cd" stroke="#9a32cd" points="502.37,-25.61 491.8,-26.3 500.49,-32.35 502.37,-25.61"/>
<text text-anchor="middle" x="558" y="-70.5" font-family="Helvetica,sans-Serif" font-size="10.00"> temp_drv</text>
</g>
<!-- Node4 -->
<g id="node4" class="node">
<title>Node4</title>
<g id="a_node4"><a xlink:href="classservio_1_1driver__interface.html" target="_top" xlink:title=" ">
<polygon fill="white" stroke="black" points="162,-88 162,-107 292,-107 292,-88 162,-88"/>
<text text-anchor="middle" x="227" y="-95" font-family="Helvetica,sans-Serif" font-size="10.00">servio::driver_interface</text>
</a>
</g>
</g>
<!-- Node4&#45;&gt;Node3 -->
<g id="edge3" class="edge">
<title>Node4&#45;&gt;Node3</title>
<path fill="none" stroke="midnightblue" d="M256.6,-83.52C282.08,-71.35 320.56,-53.63 355,-40.5 364.14,-37.02 374,-33.62 383.55,-30.51"/>
<polygon fill="midnightblue" stroke="midnightblue" points="255,-80.41 247.5,-87.9 258.03,-86.72 255,-80.41"/>
</g>
<!-- Node15 -->
<g id="node9" class="node">
<title>Node15</title>
<g id="a_node9"><a xlink:href="classservio_1_1pwm__motor__interface.html" target="_top" xlink:title=" ">
<polygon fill="white" stroke="black" points="355,-50 355,-69 515,-69 515,-50 355,-50"/>
<text text-anchor="middle" x="435" y="-57" font-family="Helvetica,sans-Serif" font-size="10.00">servio::pwm_motor_interface</text>
</a>
</g>
</g>
<!-- Node4&#45;&gt;Node15 -->
<g id="edge10" class="edge">
<title>Node4&#45;&gt;Node15</title>
<path fill="none" stroke="midnightblue" d="M289.9,-86.08C319.37,-80.64 354.22,-74.22 382.26,-69.04"/>
<polygon fill="midnightblue" stroke="midnightblue" points="288.92,-82.7 279.72,-87.96 290.19,-89.59 288.92,-82.7"/>
</g>
<!-- Node16 -->
<g id="node10" class="node">
<title>Node16</title>
<g id="a_node10"><a xlink:href="classservio_1_1position__interface.html" target="_top" xlink:title=" ">
<polygon fill="white" stroke="black" points="365,-164 365,-183 505,-183 505,-164 365,-164"/>
<text text-anchor="middle" x="435" y="-171" font-family="Helvetica,sans-Serif" font-size="10.00">servio::position_interface</text>
</a>
</g>
</g>
<!-- Node4&#45;&gt;Node16 -->
<g id="edge13" class="edge">
<title>Node4&#45;&gt;Node16</title>
<path fill="none" stroke="midnightblue" d="M255.5,-111.64C280.83,-124.22 319.71,-142.45 355,-154.5 365.55,-158.1 377.11,-161.29 388.05,-163.97"/>
<polygon fill="midnightblue" stroke="midnightblue" points="257,-108.48 246.49,-107.12 253.86,-114.73 257,-108.48"/>
</g>
<!-- Node17 -->
<g id="node11" class="node">
<title>Node17</title>
<g id="a_node11"><a xlink:href="classservio_1_1vcc__interface.html" target="_top" xlink:title=" ">
<polygon fill="white" stroke="black" points="376,-126 376,-145 494,-145 494,-126 376,-126"/>
<text text-anchor="middle" x="435" y="-133" font-family="Helvetica,sans-Serif" font-size="10.00">servio::vcc_interface</text>
</a>
</g>
</g>
<!-- Node4&#45;&gt;Node17 -->
<g id="edge15" class="edge">
<title>Node4&#45;&gt;Node17</title>
<path fill="none" stroke="midnightblue" d="M289.9,-108.92C319.37,-114.36 354.22,-120.78 382.26,-125.96"/>
<polygon fill="midnightblue" stroke="midnightblue" points="290.19,-105.41 279.72,-107.04 288.92,-112.3 290.19,-105.41"/>
</g>
<!-- Node18 -->
<g id="node12" class="node">
<title>Node18</title>
<g id="a_node12"><a xlink:href="classservio_1_1current__interface.html" target="_top" xlink:title=" ">
<polygon fill="white" stroke="black" points="367,-88 367,-107 503,-107 503,-88 367,-88"/>
<text text-anchor="middle" x="435" y="-95" font-family="Helvetica,sans-Serif" font-size="10.00">servio::current_interface</text>
</a>
</g>
</g>
<!-- Node4&#45;&gt;Node18 -->
<g id="edge18" class="edge">
<title>Node4&#45;&gt;Node18</title>
<path fill="none" stroke="midnightblue" d="M302.24,-97.5C323.32,-97.5 346.14,-97.5 366.78,-97.5"/>
<polygon fill="midnightblue" stroke="midnightblue" points="302.05,-94 292.05,-97.5 302.05,-101 302.05,-94"/>
</g>
<!-- Node5 -->
<g id="node5" class="node">
<title>Node5</title>
<g id="a_node5"><a xlink:href="structservio_1_1cfg_1_1dispatcher.html" target="_top" xlink:title=" ">
<polygon fill="white" stroke="black" points="372.5,-299 372.5,-318 497.5,-318 497.5,-299 372.5,-299"/>
<text text-anchor="middle" x="435" y="-306" font-family="Helvetica,sans-Serif" font-size="10.00">servio::cfg::dispatcher</text>
</a>
</g>
</g>
<!-- Node5&#45;&gt;Node1 -->
<g id="edge4" class="edge">
<title>Node5&#45;&gt;Node1</title>
<path fill="none" stroke="#9a32cd" stroke-dasharray="5,2" d="M507.73,-308.14C533.09,-305.19 560.8,-298.51 583,-284.5 622.86,-259.34 647.6,-205.26 656.38,-183.18"/>
<polygon fill="#9a32cd" stroke="#9a32cd" points="507.38,-304.66 497.77,-309.12 508.07,-311.62 507.38,-304.66"/>
<text text-anchor="middle" x="558" y="-306.5" font-family="Helvetica,sans-Serif" font-size="10.00"> cfg_disp</text>
</g>
<!-- Node6&#45;&gt;Node5 -->
<g id="edge5" class="edge">
<title>Node6&#45;&gt;Node5</title>
<path fill="none" stroke="#9a32cd" stroke-dasharray="5,2" d="M274.57,-308.5C303.44,-308.5 340.85,-308.5 372.17,-308.5"/>
<polygon fill="#9a32cd" stroke="#9a32cd" points="274.35,-305 264.35,-308.5 274.35,-312 274.35,-305"/>
<text text-anchor="middle" x="323.5" y="-311.5" font-family="Helvetica,sans-Serif" font-size="10.00"> c</text>
</g>
<!-- Node7 -->
<g id="node7" class="node">
<title>Node7</title>
<g id="a_node7"><a xlink:href="structservio_1_1converter.html" target="_top" xlink:title=" ">
<polygon fill="white" stroke="red" points="0,-272 0,-291 99,-291 99,-272 0,-272"/>
<text text-anchor="middle" x="49.5" y="-279" font-family="Helvetica,sans-Serif" font-size="10.00">servio::converter</text>
</a>
</g>
</g>
<!-- Node7&#45;&gt;Node1 -->
<g id="edge11" class="edge">
<title>Node7&#45;&gt;Node1</title>
<path fill="none" stroke="#9a32cd" stroke-dasharray="5,2" d="M109.19,-274.57C197.47,-263.92 369.56,-242.25 515,-218.5 545.37,-213.54 553.53,-214.34 583,-205.5 602.97,-199.51 624.83,-190.13 640.15,-183.08"/>
<polygon fill="#9a32cd" stroke="#9a32cd" points="108.62,-271.12 99.11,-275.79 109.46,-278.07 108.62,-271.12"/>
<text text-anchor="middle" x="323.5" y="-250.5" font-family="Helvetica,sans-Serif" font-size="10.00"> conv</text>
</g>
<!-- Node7&#45;&gt;Node6 -->
<g id="edge7" class="edge">
<title>Node7&#45;&gt;Node6</title>
<path fill="none" stroke="#9a32cd" stroke-dasharray="5,2" d="M109.38,-290.56C136.05,-294.66 166.71,-299.38 189.9,-302.95"/>
<polygon fill="#9a32cd" stroke="#9a32cd" points="109.8,-287.08 99.39,-289.02 108.74,-294 109.8,-287.08"/>
<text text-anchor="middle" x="130.5" y="-298.5" font-family="Helvetica,sans-Serif" font-size="10.00"> conv</text>
</g>
<!-- Node14 -->
<g id="node8" class="node">
<title>Node14</title>
<g id="a_node8"><a xlink:href="classservio_1_1metrics.html" target="_top" xlink:title=" ">
<polygon fill="white" stroke="black" points="5,-224 5,-243 94,-243 94,-224 5,-224"/>
<text text-anchor="middle" x="49.5" y="-231" font-family="Helvetica,sans-Serif" font-size="10.00">servio::metrics</text>
</a>
</g>
</g>
<!-- Node14&#45;&gt;Node1 -->
<g id="edge16" class="edge">
<title>Node14&#45;&gt;Node1</title>
<path fill="none" stroke="#9a32cd" stroke-dasharray="5,2" d="M104.24,-230.88C200.55,-225.77 408.78,-212.76 583,-188.5 593.52,-187.03 604.78,-185.07 615.35,-183.05"/>
<polygon fill="#9a32cd" stroke="#9a32cd" points="103.97,-227.39 94.16,-231.41 104.33,-234.38 103.97,-227.39"/>
<text text-anchor="middle" x="323.5" y="-219.5" font-family="Helvetica,sans-Serif" font-size="10.00"> met</text>
</g>
<!-- Node14&#45;&gt;Node6 -->
<g id="edge8" class="edge">
<title>Node14&#45;&gt;Node6</title>
<path fill="none" stroke="#9a32cd" stroke-dasharray="5,2" d="M82.39,-247.13C117.41,-262.09 172.75,-285.74 203.5,-298.89"/>
<polygon fill="#9a32cd" stroke="#9a32cd" points="83.66,-243.86 73.08,-243.15 80.9,-250.3 83.66,-243.86"/>
<text text-anchor="middle" x="130.5" y="-275.5" font-family="Helvetica,sans-Serif" font-size="10.00"> met</text>
</g>
<!-- Node15&#45;&gt;Node1 -->
<g id="edge9" class="edge">
<title>Node15&#45;&gt;Node1</title>
<path fill="none" stroke="#9a32cd" stroke-dasharray="5,2" d="M497.53,-71.53C525.03,-78.68 557.02,-89.55 583,-105.5 610.66,-122.49 637.91,-149.69 651.35,-164"/>
<polygon fill="#9a32cd" stroke="#9a32cd" points="498.17,-68.09 487.62,-69.07 496.48,-74.88 498.17,-68.09"/>
<text text-anchor="middle" x="558" y="-108.5" font-family="Helvetica,sans-Serif" font-size="10.00"> motor</text>
</g>
<!-- Node16&#45;&gt;Node1 -->
<g id="edge12" class="edge">
<title>Node16&#45;&gt;Node1</title>
<path fill="none" stroke="#9a32cd" stroke-dasharray="5,2" d="M515.24,-173.5C543.35,-173.5 574.48,-173.5 600.65,-173.5"/>
<polygon fill="#9a32cd" stroke="#9a32cd" points="515.04,-170 505.04,-173.5 515.04,-177 515.04,-170"/>
<text text-anchor="middle" x="558" y="-176.5" font-family="Helvetica,sans-Serif" font-size="10.00"> pos_drv</text>
</g>
<!-- Node17&#45;&gt;Node1 -->
<g id="edge14" class="edge">
<title>Node17&#45;&gt;Node1</title>
<path fill="none" stroke="#9a32cd" stroke-dasharray="5,2" d="M504.1,-145.61C528.96,-149.45 557.28,-153.99 583,-158.5 592.52,-160.17 602.69,-162.07 612.4,-163.94"/>
<polygon fill="#9a32cd" stroke="#9a32cd" points="504.45,-142.13 494.03,-144.07 503.38,-149.05 504.45,-142.13"/>
<text text-anchor="middle" x="558" y="-161.5" font-family="Helvetica,sans-Serif" font-size="10.00"> vcc_drv</text>
</g>
<!-- Node18&#45;&gt;Node1 -->
<g id="edge17" class="edge">
<title>Node18&#45;&gt;Node1</title>
<path fill="none" stroke="#9a32cd" stroke-dasharray="5,2" d="M493.71,-109.25C521.2,-115.64 554.28,-124.51 583,-135.5 604.3,-143.65 627.65,-155.63 642.98,-163.95"/>
<polygon fill="#9a32cd" stroke="#9a32cd" points="494.38,-105.81 483.85,-107.01 492.82,-112.64 494.38,-105.81"/>
<text text-anchor="middle" x="558" y="-138.5" font-family="Helvetica,sans-Serif" font-size="10.00"> curr_drv</text>
</g>
</g>
</svg>
