<?xml version="1.0" encoding="UTF-8" standalone="no"?>
<!DOCTYPE svg PUBLIC "-//W3C//DTD SVG 1.1//EN"
 "http://www.w3.org/Graphics/SVG/1.1/DTD/svg11.dtd">
<!-- Generated by graphviz version 2.43.0 (0)
 -->
<!-- Title: servio::drv::adc_set Pages: 1 -->
<svg width="515pt" height="209pt"
 viewBox="0.00 0.00 515.00 209.00" xmlns="http://www.w3.org/2000/svg" xmlns:xlink="http://www.w3.org/1999/xlink">
<g id="graph0" class="graph" transform="scale(1 1) rotate(0) translate(4 205)">
<title>servio::drv::adc_set</title>
<polygon fill="white" stroke="transparent" points="-4,4 -4,-205 511,-205 511,4 -4,4"/>
<!-- Node1 -->
<g id="node1" class="node">
<title>Node1</title>
<g id="a_node1"><a xlink:title=" ">
<polygon fill="#bfbfbf" stroke="black" points="396,-104 396,-123 507,-123 507,-104 396,-104"/>
<text text-anchor="middle" x="451.5" y="-111" font-family="Helvetica,sans-Serif" font-size="10.00">servio::drv::adc_set</text>
</a>
</g>
</g>
<!-- Node2 -->
<g id="node2" class="node">
<title>Node2</title>
<g id="a_node2"><a xlink:href="structservio_1_1drv_1_1adc__channel.html" target="_top" xlink:title=" ">
<polygon fill="white" stroke="black" points="177,-170.5 177,-200.5 311,-200.5 311,-170.5 177,-170.5"/>
<text text-anchor="start" x="185" y="-188.5" font-family="Helvetica,sans-Serif" font-size="10.00">servio::drv::adc_channel</text>
<text text-anchor="middle" x="244" y="-177.5" font-family="Helvetica,sans-Serif" font-size="10.00">&lt; VCC_CHANNEL &gt;</text>
</a>
</g>
</g>
<!-- Node2&#45;&gt;Node1 -->
<g id="edge1" class="edge">
<title>Node2&#45;&gt;Node1</title>
<path fill="none" stroke="#9a32cd" stroke-dasharray="5,2" d="M298.26,-167.04C304.58,-164.84 310.93,-162.62 317,-160.5 353.88,-147.61 396.45,-132.6 423.41,-123.08"/>
<polygon fill="#9a32cd" stroke="#9a32cd" points="296.71,-163.87 288.41,-170.46 299.01,-170.48 296.71,-163.87"/>
<text text-anchor="middle" x="356.5" y="-156.5" font-family="Helvetica,sans-Serif" font-size="10.00"> vcc</text>
</g>
<!-- Node3 -->
<g id="node3" class="node">
<title>Node3</title>
<g id="a_node3"><a xlink:href="structservio_1_1drv_1_1detailed__adc__channel.html" target="_top" xlink:title=" ">
<polygon fill="white" stroke="black" points="173.5,-110 173.5,-151 314.5,-151 314.5,-110 173.5,-110"/>
<text text-anchor="start" x="181.5" y="-139" font-family="Helvetica,sans-Serif" font-size="10.00">servio::drv::detailed</text>
<text text-anchor="start" x="181.5" y="-128" font-family="Helvetica,sans-Serif" font-size="10.00">_adc_channel&lt; CURRENT</text>
<text text-anchor="middle" x="244" y="-117" font-family="Helvetica,sans-Serif" font-size="10.00">_CHANNEL, 128 &gt;</text>
</a>
</g>
</g>
<!-- Node3&#45;&gt;Node1 -->
<g id="edge2" class="edge">
<title>Node3&#45;&gt;Node1</title>
<path fill="none" stroke="#9a32cd" stroke-dasharray="5,2" d="M324.67,-123.91C348.51,-121.94 374.1,-119.82 395.94,-118.01"/>
<polygon fill="#9a32cd" stroke="#9a32cd" points="324.25,-120.43 314.57,-124.74 324.83,-127.41 324.25,-120.43"/>
<text text-anchor="middle" x="356.5" y="-125.5" font-family="Helvetica,sans-Serif" font-size="10.00"> current</text>
</g>
<!-- Node4 -->
<g id="node4" class="node">
<title>Node4</title>
<g id="a_node4"><a xlink:href="structservio_1_1drv_1_1adc__channel__with__callback.html" target="_top" xlink:title=" ">
<polygon fill="white" stroke="black" points="171,-50 171,-91 317,-91 317,-50 171,-50"/>
<text text-anchor="start" x="179" y="-79" font-family="Helvetica,sans-Serif" font-size="10.00">servio::drv::adc_channel</text>
<text text-anchor="start" x="179" y="-68" font-family="Helvetica,sans-Serif" font-size="10.00">_with_callback&lt; POSITION</text>
<text text-anchor="middle" x="244" y="-57" font-family="Helvetica,sans-Serif" font-size="10.00">_CHANNEL &gt;</text>
</a>
</g>
</g>
<!-- Node4&#45;&gt;Node1 -->
<g id="edge3" class="edge">
<title>Node4&#45;&gt;Node1</title>
<path fill="none" stroke="#9a32cd" stroke-dasharray="5,2" d="M327.19,-87.7C353.64,-93.23 381.98,-99.16 404.82,-103.94"/>
<polygon fill="#9a32cd" stroke="#9a32cd" points="327.67,-84.22 317.16,-85.6 326.23,-91.07 327.67,-84.22"/>
<text text-anchor="middle" x="356.5" y="-99.5" font-family="Helvetica,sans-Serif" font-size="10.00"> position</text>
</g>
<!-- Node5 -->
<g id="node5" class="node">
<title>Node5</title>
<g id="a_node5"><a xlink:href="structservio_1_1drv_1_1adc__channel.html" target="_top" xlink:title=" ">
<polygon fill="white" stroke="black" points="0,-55.5 0,-85.5 134,-85.5 134,-55.5 0,-55.5"/>
<text text-anchor="start" x="8" y="-73.5" font-family="Helvetica,sans-Serif" font-size="10.00">servio::drv::adc_channel</text>
<text text-anchor="middle" x="67" y="-62.5" font-family="Helvetica,sans-Serif" font-size="10.00">&lt; ID &gt;</text>
</a>
</g>
</g>
<!-- Node5&#45;&gt;Node4 -->
<g id="edge4" class="edge">
<title>Node5&#45;&gt;Node4</title>
<path fill="none" stroke="midnightblue" d="M144.4,-70.5C153.2,-70.5 162.16,-70.5 170.9,-70.5"/>
<polygon fill="midnightblue" stroke="midnightblue" points="144.16,-67 134.16,-70.5 144.16,-74 144.16,-67"/>
</g>
<!-- Node6 -->
<g id="node6" class="node">
<title>Node6</title>
<g id="a_node6"><a xlink:href="structservio_1_1drv_1_1adc__channel.html" target="_top" xlink:title=" ">
<polygon fill="white" stroke="black" points="177,-0.5 177,-30.5 311,-30.5 311,-0.5 177,-0.5"/>
<text text-anchor="start" x="185" y="-18.5" font-family="Helvetica,sans-Serif" font-size="10.00">servio::drv::adc_channel</text>
<text text-anchor="middle" x="244" y="-7.5" font-family="Helvetica,sans-Serif" font-size="10.00">&lt; TEMP_CHANNEL &gt;</text>
</a>
</g>
</g>
<!-- Node6&#45;&gt;Node1 -->
<g id="edge5" class="edge">
<title>Node6&#45;&gt;Node1</title>
<path fill="none" stroke="#9a32cd" stroke-dasharray="5,2" d="M301.45,-34.12C306.75,-36.16 312.01,-38.3 317,-40.5 361.24,-59.99 410.45,-88.92 434.92,-103.83"/>
<polygon fill="#9a32cd" stroke="#9a32cd" points="302.5,-30.77 291.9,-30.55 300.05,-37.33 302.5,-30.77"/>
<text text-anchor="middle" x="356.5" y="-72.5" font-family="Helvetica,sans-Serif" font-size="10.00"> temp</text>
</g>
</g>
</svg>
