<?xml version="1.0" encoding="UTF-8" standalone="no"?>
<!DOCTYPE svg PUBLIC "-//W3C//DTD SVG 1.1//EN"
 "http://www.w3.org/Graphics/SVG/1.1/DTD/svg11.dtd">
<!-- Generated by graphviz version 2.43.0 (0)
 -->
<!-- Title: servio::scmdio::servio_exception Pages: 1 -->
<svg width="425pt" height="182pt"
 viewBox="0.00 0.00 425.00 182.00" xmlns="http://www.w3.org/2000/svg" xmlns:xlink="http://www.w3.org/1999/xlink">
<g id="graph0" class="graph" transform="scale(1 1) rotate(0) translate(4 178)">
<title>servio::scmdio::servio_exception</title>
<!-- Node1 -->
<g id="Node000001" class="node">
<title>Node1</title>
<g id="a_Node000001"><a xlink:title=" ">
<polygon fill="#999999" stroke="#666666" points="246,-102 122,-102 122,-72 246,-72 246,-102"/>
<text text-anchor="start" x="130" y="-90" font-family="Helvetica,sans-Serif" font-size="10.00">servio::scmdio::servio</text>
<text text-anchor="middle" x="184" y="-79" font-family="Helvetica,sans-Serif" font-size="10.00">_exception</text>
</a>
</g>
</g>
<!-- Node3 -->
<g id="Node000003" class="node">
<title>Node3</title>
<g id="a_Node000003"><a xlink:href="structservio_1_1scmdio_1_1error__exception.html" target="_top" xlink:title=" ">
<polygon fill="white" stroke="#666666" points="408,-174 291,-174 291,-144 408,-144 408,-174"/>
<text text-anchor="start" x="299" y="-162" font-family="Helvetica,sans-Serif" font-size="10.00">servio::scmdio::error</text>
<text text-anchor="middle" x="349.5" y="-151" font-family="Helvetica,sans-Serif" font-size="10.00">_exception</text>
</a>
</g>
</g>
<!-- Node1&#45;&gt;Node3 -->
<g id="edge2_Node000001_Node000003" class="edge">
<title>Node1&#45;&gt;Node3</title>
<g id="a_edge2_Node000001_Node000003"><a xlink:title=" ">
<path fill="none" stroke="#63b8ff" d="M222.4,-106.74C240.22,-115.83 261.98,-126.47 282,-135 289.23,-138.08 297,-141.12 304.58,-143.95"/>
<polygon fill="#63b8ff" stroke="#63b8ff" points="223.96,-103.61 213.46,-102.15 220.76,-109.83 223.96,-103.61"/>
</a>
</g>
</g>
<!-- Node4 -->
<g id="Node000004" class="node">
<title>Node4</title>
<g id="a_Node000004"><a xlink:href="structservio_1_1scmdio_1_1parse__error.html" target="_top" xlink:title=" ">
<polygon fill="white" stroke="#666666" points="410,-126 289,-126 289,-96 410,-96 410,-126"/>
<text text-anchor="start" x="297" y="-114" font-family="Helvetica,sans-Serif" font-size="10.00">servio::scmdio::parse</text>
<text text-anchor="middle" x="349.5" y="-103" font-family="Helvetica,sans-Serif" font-size="10.00">_error</text>
</a>
</g>
</g>
<!-- Node1&#45;&gt;Node4 -->
<g id="edge3_Node000001_Node000004" class="edge">
<title>Node1&#45;&gt;Node4</title>
<g id="a_edge3_Node000001_Node000004"><a xlink:title=" ">
<path fill="none" stroke="#63b8ff" d="M256.28,-97.46C267.19,-99.06 278.36,-100.7 288.98,-102.26"/>
<polygon fill="#63b8ff" stroke="#63b8ff" points="256.75,-93.99 246.35,-96 255.73,-100.92 256.75,-93.99"/>
</a>
</g>
</g>
<!-- Node5 -->
<g id="Node000005" class="node">
<title>Node5</title>
<g id="a_Node000005"><a xlink:href="structservio_1_1scmdio_1_1reply__error.html" target="_top" xlink:title=" ">
<polygon fill="white" stroke="#666666" points="409,-78 290,-78 290,-48 409,-48 409,-78"/>
<text text-anchor="start" x="298" y="-66" font-family="Helvetica,sans-Serif" font-size="10.00">servio::scmdio::reply</text>
<text text-anchor="middle" x="349.5" y="-55" font-family="Helvetica,sans-Serif" font-size="10.00">_error</text>
</a>
</g>
</g>
<!-- Node1&#45;&gt;Node5 -->
<g id="edge4_Node000001_Node000005" class="edge">
<title>Node1&#45;&gt;Node5</title>
<g id="a_edge4_Node000001_Node000005"><a xlink:title=" ">
<path fill="none" stroke="#63b8ff" d="M256.47,-76.51C267.6,-74.88 278.99,-73.2 289.79,-71.62"/>
<polygon fill="#63b8ff" stroke="#63b8ff" points="255.73,-73.08 246.35,-78 256.75,-80.01 255.73,-73.08"/>
</a>
</g>
</g>
<!-- Node6 -->
<g id="Node000006" class="node">
<title>Node6</title>
<g id="a_Node000006"><a xlink:href="structservio_1_1scmdio_1_1serialize__error.html" target="_top" xlink:title=" ">
<polygon fill="white" stroke="#666666" points="417,-30 282,-30 282,0 417,0 417,-30"/>
<text text-anchor="start" x="290" y="-18" font-family="Helvetica,sans-Serif" font-size="10.00">servio::scmdio::serialize</text>
<text text-anchor="middle" x="349.5" y="-7" font-family="Helvetica,sans-Serif" font-size="10.00">_error</text>
</a>
</g>
</g>
<!-- Node1&#45;&gt;Node6 -->
<g id="edge5_Node000001_Node000006" class="edge">
<title>Node1&#45;&gt;Node6</title>
<g id="a_edge5_Node000001_Node000006"><a xlink:title=" ">
<path fill="none" stroke="#63b8ff" d="M222.4,-67.26C240.22,-58.17 261.98,-47.53 282,-39 289.23,-35.92 297,-32.88 304.58,-30.05"/>
<polygon fill="#63b8ff" stroke="#63b8ff" points="220.76,-64.17 213.46,-71.85 223.96,-70.39 220.76,-64.17"/>
</a>
</g>
</g>
<!-- Node2 -->
<g id="Node000002" class="node">
<title>Node2</title>
<g id="a_Node000002"><a xlink:title=" ">
<polygon fill="white" stroke="#666666" points="86,-96.5 0,-96.5 0,-77.5 86,-77.5 86,-96.5"/>
<text text-anchor="middle" x="43" y="-84.5" font-family="Helvetica,sans-Serif" font-size="10.00">std::exception</text>
</a>
</g>
</g>
<!-- Node2&#45;&gt;Node1 -->
<g id="edge1_Node000001_Node000002" class="edge">
<title>Node2&#45;&gt;Node1</title>
<g id="a_edge1_Node000001_Node000002"><a xlink:title=" ">
<path fill="none" stroke="#63b8ff" d="M96.1,-87C104.5,-87 113.25,-87 121.83,-87"/>
<polygon fill="#63b8ff" stroke="#63b8ff" points="96.08,-83.5 86.08,-87 96.08,-90.5 96.08,-83.5"/>
</a>
</g>
</g>
</g>
</svg>
