<?xml version="1.0" encoding="UTF-8" standalone="no"?>
<!DOCTYPE svg PUBLIC "-//W3C//DTD SVG 1.1//EN"
 "http://www.w3.org/Graphics/SVG/1.1/DTD/svg11.dtd">
<!-- Generated by graphviz version 2.43.0 (0)
 -->
<!-- Title: servio::ftest::bench::usage Pages: 1 -->
<svg width="376pt" height="182pt"
 viewBox="0.00 0.00 375.50 182.00" xmlns="http://www.w3.org/2000/svg" xmlns:xlink="http://www.w3.org/1999/xlink">
<g id="graph0" class="graph" transform="scale(1 1) rotate(0) translate(4 178)">
<title>servio::ftest::bench::usage</title>
<!-- Node1 -->
<g id="Node000001" class="node">
<title>Node1</title>
<g id="a_Node000001"><a xlink:title=" ">
<polygon fill="#999999" stroke="#666666" points="236,-30 126,-30 126,0 236,0 236,-30"/>
<text text-anchor="start" x="134" y="-18" font-family="Helvetica,sans-Serif" font-size="10.00">servio::ftest::bench</text>
<text text-anchor="middle" x="181" y="-7" font-family="Helvetica,sans-Serif" font-size="10.00">::usage</text>
</a>
</g>
</g>
<!-- Node2 -->
<g id="Node000002" class="node">
<title>Node2</title>
<g id="a_Node000002"><a xlink:href="structservio_1_1drv_1_1period__iface.html" target="_top" xlink:title=" ">
<polygon fill="white" stroke="#666666" points="104,-107 0,-107 0,-77 104,-77 104,-107"/>
<text text-anchor="start" x="8" y="-95" font-family="Helvetica,sans-Serif" font-size="10.00">servio::drv::period</text>
<text text-anchor="middle" x="52" y="-84" font-family="Helvetica,sans-Serif" font-size="10.00">_iface</text>
</a>
</g>
</g>
<!-- Node2&#45;&gt;Node1 -->
<g id="edge1_Node000001_Node000002" class="edge">
<title>Node2&#45;&gt;Node1</title>
<g id="a_edge1_Node000001_Node000002"><a xlink:title=" ">
<path fill="none" stroke="#9a32cd" stroke-dasharray="5,2" d="M85.1,-71.75C107.51,-58.73 136.61,-41.81 156.84,-30.04"/>
<polygon fill="#9a32cd" stroke="#9a32cd" points="83.15,-68.84 76.26,-76.89 86.67,-74.89 83.15,-68.84"/>
</a>
</g>
<text text-anchor="middle" x="142" y="-51" font-family="Helvetica,sans-Serif" font-size="10.00" fill="grey"> period</text>
</g>
<!-- Node3 -->
<g id="Node000003" class="node">
<title>Node3</title>
<g id="a_Node000003"><a xlink:href="structservio_1_1drv_1_1clk__iface.html" target="_top" xlink:title=" ">
<polygon fill="white" stroke="#666666" points="239.5,-101.5 122.5,-101.5 122.5,-82.5 239.5,-82.5 239.5,-101.5"/>
<text text-anchor="middle" x="181" y="-89.5" font-family="Helvetica,sans-Serif" font-size="10.00">servio::drv::clk_iface</text>
</a>
</g>
</g>
<!-- Node3&#45;&gt;Node1 -->
<g id="edge2_Node000001_Node000003" class="edge">
<title>Node3&#45;&gt;Node1</title>
<g id="a_edge2_Node000001_Node000003"><a xlink:title=" ">
<path fill="none" stroke="#9a32cd" stroke-dasharray="5,2" d="M181,-72.2C181,-59.14 181,-42.01 181,-30.11"/>
<polygon fill="#9a32cd" stroke="#9a32cd" points="177.5,-72.4 181,-82.4 184.5,-72.4 177.5,-72.4"/>
</a>
</g>
<text text-anchor="middle" x="190" y="-51" font-family="Helvetica,sans-Serif" font-size="10.00" fill="grey"> clk</text>
</g>
<!-- Node4 -->
<g id="Node000004" class="node">
<title>Node4</title>
<g id="a_Node000004"><a xlink:title=" ">
<polygon fill="white" stroke="#666666" points="352,-101.5 258,-101.5 258,-82.5 352,-82.5 352,-101.5"/>
<text text-anchor="middle" x="305" y="-89.5" font-family="Helvetica,sans-Serif" font-size="10.00">std::string_view</text>
</a>
</g>
</g>
<!-- Node4&#45;&gt;Node1 -->
<g id="edge3_Node000001_Node000004" class="edge">
<title>Node4&#45;&gt;Node1</title>
<g id="a_edge3_Node000001_Node000004"><a xlink:title=" ">
<path fill="none" stroke="#9a32cd" stroke-dasharray="5,2" d="M282.04,-77.11C259.91,-63.73 226.59,-43.57 204.33,-30.11"/>
<polygon fill="#9a32cd" stroke="#9a32cd" points="280.41,-80.22 290.78,-82.4 284.03,-74.23 280.41,-80.22"/>
</a>
</g>
<text text-anchor="middle" x="265.5" y="-51" font-family="Helvetica,sans-Serif" font-size="10.00" fill="grey"> name</text>
</g>
<!-- Node5 -->
<g id="Node000005" class="node">
<title>Node5</title>
<g id="a_Node000005"><a xlink:title=" ">
<polygon fill="white" stroke="#666666" points="367.5,-174 242.5,-174 242.5,-144 367.5,-144 367.5,-174"/>
<text text-anchor="start" x="250.5" y="-162" font-family="Helvetica,sans-Serif" font-size="10.00">std::basic_string_view</text>
<text text-anchor="middle" x="305" y="-151" font-family="Helvetica,sans-Serif" font-size="10.00">&lt; Char &gt;</text>
</a>
</g>
</g>
<!-- Node5&#45;&gt;Node4 -->
<g id="edge4_Node000004_Node000005" class="edge">
<title>Node5&#45;&gt;Node4</title>
<g id="a_edge4_Node000004_Node000005"><a xlink:title=" ">
<path fill="none" stroke="#63b8ff" d="M305,-133.75C305,-122.52 305,-109.88 305,-101.69"/>
<polygon fill="#63b8ff" stroke="#63b8ff" points="301.5,-133.9 305,-143.9 308.5,-133.9 301.5,-133.9"/>
</a>
</g>
</g>
</g>
</svg>
