<?xml version="1.0" encoding="UTF-8" standalone="no"?>
<!DOCTYPE svg PUBLIC "-//W3C//DTD SVG 1.1//EN"
 "http://www.w3.org/Graphics/SVG/1.1/DTD/svg11.dtd">
<!-- Generated by graphviz version 2.43.0 (0)
 -->
<!-- Title: servio::core::standard_callbacks Pages: 1 -->
<svg width="266pt" height="174pt"
 viewBox="0.00 0.00 266.00 174.00" xmlns="http://www.w3.org/2000/svg" xmlns:xlink="http://www.w3.org/1999/xlink">
<g id="graph0" class="graph" transform="scale(1 1) rotate(0) translate(4 170)">
<title>servio::core::standard_callbacks</title>
<polygon fill="white" stroke="transparent" points="-4,4 -4,-170 262,-170 262,4 -4,4"/>
<!-- Node1 -->
<g id="node1" class="node">
<title>Node1</title>
<g id="a_node1"><a xlink:title=" ">
<polygon fill="#bfbfbf" stroke="black" points="68,-0.5 68,-30.5 190,-30.5 190,-0.5 68,-0.5"/>
<text text-anchor="start" x="76" y="-18.5" font-family="Helvetica,sans-Serif" font-size="10.00">servio::core::standard</text>
<text text-anchor="middle" x="129" y="-7.5" font-family="Helvetica,sans-Serif" font-size="10.00">_callbacks</text>
</a>
</g>
</g>
<!-- Node2 -->
<g id="node2" class="node">
<title>Node2</title>
<g id="a_node2"><a xlink:href="classservio_1_1core_1_1position__callback.html" target="_top" xlink:title=" ">
<polygon fill="white" stroke="black" points="2.5,-78.5 2.5,-108.5 121.5,-108.5 121.5,-78.5 2.5,-78.5"/>
<text text-anchor="start" x="10.5" y="-96.5" font-family="Helvetica,sans-Serif" font-size="10.00">servio::core::position</text>
<text text-anchor="middle" x="62" y="-85.5" font-family="Helvetica,sans-Serif" font-size="10.00">_callback</text>
</a>
</g>
</g>
<!-- Node2&#45;&gt;Node1 -->
<g id="edge1" class="edge">
<title>Node2&#45;&gt;Node1</title>
<path fill="none" stroke="#9a32cd" stroke-dasharray="5,2" d="M81.24,-70.67C92.56,-57.83 106.55,-41.97 116.45,-30.73"/>
<polygon fill="#9a32cd" stroke="#9a32cd" points="78.59,-68.39 74.6,-78.2 83.84,-73.02 78.59,-68.39"/>
<text text-anchor="middle" x="118.5" y="-52" font-family="Helvetica,sans-Serif" font-size="10.00"> pos_cb</text>
</g>
<!-- Node3 -->
<g id="node3" class="node">
<title>Node3</title>
<g id="a_node3"><a xlink:href="structservio_1_1drv_1_1value__cb__iface.html" target="_top" xlink:title=" ">
<polygon fill="white" stroke="black" points="0,-146.5 0,-165.5 122,-165.5 122,-146.5 0,-146.5"/>
<text text-anchor="middle" x="61" y="-153.5" font-family="Helvetica,sans-Serif" font-size="10.00">drv::position_cb_iface</text>
</a>
</g>
</g>
<!-- Node3&#45;&gt;Node2 -->
<g id="edge2" class="edge">
<title>Node3&#45;&gt;Node2</title>
<path fill="none" stroke="midnightblue" d="M61.31,-136.22C61.46,-127.36 61.63,-116.96 61.76,-108.76"/>
<polygon fill="midnightblue" stroke="midnightblue" points="57.81,-136.28 61.14,-146.33 64.81,-136.39 57.81,-136.28"/>
</g>
<!-- Node4 -->
<g id="node4" class="node">
<title>Node4</title>
<g id="a_node4"><a xlink:href="classservio_1_1core_1_1current__callback.html" target="_top" xlink:title=" ">
<polygon fill="white" stroke="black" points="141,-78.5 141,-108.5 255,-108.5 255,-78.5 141,-78.5"/>
<text text-anchor="start" x="149" y="-96.5" font-family="Helvetica,sans-Serif" font-size="10.00">servio::core::current</text>
<text text-anchor="middle" x="198" y="-85.5" font-family="Helvetica,sans-Serif" font-size="10.00">_callback</text>
</a>
</g>
</g>
<!-- Node4&#45;&gt;Node1 -->
<g id="edge3" class="edge">
<title>Node4&#45;&gt;Node1</title>
<path fill="none" stroke="#9a32cd" stroke-dasharray="5,2" d="M178.18,-70.67C166.52,-57.83 152.12,-41.97 141.92,-30.73"/>
<polygon fill="#9a32cd" stroke="#9a32cd" points="175.71,-73.15 185.02,-78.2 180.89,-68.45 175.71,-73.15"/>
<text text-anchor="middle" x="195.5" y="-52" font-family="Helvetica,sans-Serif" font-size="10.00"> current_cb</text>
</g>
<!-- Node5 -->
<g id="node5" class="node">
<title>Node5</title>
<g id="a_node5"><a xlink:href="structservio_1_1drv_1_1detailed__cb__iface.html" target="_top" xlink:title=" ">
<polygon fill="white" stroke="black" points="140,-146.5 140,-165.5 258,-165.5 258,-146.5 140,-146.5"/>
<text text-anchor="middle" x="199" y="-153.5" font-family="Helvetica,sans-Serif" font-size="10.00">drv::current_cb_iface</text>
</a>
</g>
</g>
<!-- Node5&#45;&gt;Node4 -->
<g id="edge4" class="edge">
<title>Node5&#45;&gt;Node4</title>
<path fill="none" stroke="midnightblue" d="M198.69,-136.22C198.54,-127.36 198.37,-116.96 198.24,-108.76"/>
<polygon fill="midnightblue" stroke="midnightblue" points="195.19,-136.39 198.86,-146.33 202.19,-136.28 195.19,-136.39"/>
</g>
</g>
</svg>
