<?xml version="1.0" encoding="UTF-8" standalone="no"?>
<!DOCTYPE svg PUBLIC "-//W3C//DTD SVG 1.1//EN"
 "http://www.w3.org/Graphics/SVG/1.1/DTD/svg11.dtd">
<!-- Generated by graphviz version 2.43.0 (0)
 -->
<!-- Title: servio::ftest::utest_base Pages: 1 -->
<svg width="222pt" height="95pt"
 viewBox="0.00 0.00 221.50 95.00" xmlns="http://www.w3.org/2000/svg" xmlns:xlink="http://www.w3.org/1999/xlink">
<g id="graph0" class="graph" transform="scale(1 1) rotate(0) translate(4 91)">
<title>servio::ftest::utest_base</title>
<polygon fill="white" stroke="transparent" points="-4,4 -4,-91 217.5,-91 217.5,4 -4,4"/>
<!-- Node1 -->
<g id="node1" class="node">
<title>Node1</title>
<g id="a_node1"><a xlink:title=" ">
<polygon fill="#bfbfbf" stroke="black" points="38,-0.5 38,-19.5 172,-19.5 172,-0.5 38,-0.5"/>
<text text-anchor="middle" x="105" y="-7.5" font-family="Helvetica,sans-Serif" font-size="10.00">servio::ftest::utest_base</text>
</a>
</g>
</g>
<!-- Node2 -->
<g id="node2" class="node">
<title>Node2</title>
<g id="a_node2"><a xlink:title=" ">
<polygon fill="white" stroke="#bfbfbf" points="0,-67.5 0,-86.5 94,-86.5 94,-67.5 0,-67.5"/>
<text text-anchor="middle" x="47" y="-74.5" font-family="Helvetica,sans-Serif" font-size="10.00">t::test_interface</text>
</a>
</g>
</g>
<!-- Node2&#45;&gt;Node1 -->
<g id="edge1" class="edge">
<title>Node2&#45;&gt;Node1</title>
<path fill="none" stroke="midnightblue" d="M61.6,-59.63C72.95,-46.92 88.23,-29.8 97.3,-19.63"/>
<polygon fill="midnightblue" stroke="midnightblue" points="58.87,-57.44 54.82,-67.23 64.09,-62.1 58.87,-57.44"/>
</g>
<!-- Node3 -->
<g id="node3" class="node">
<title>Node3</title>
<g id="a_node3"><a xlink:href="structservio_1_1ftest_1_1uctx.html" target="_top" xlink:title=" ">
<polygon fill="white" stroke="black" points="112.5,-67.5 112.5,-86.5 213.5,-86.5 213.5,-67.5 112.5,-67.5"/>
<text text-anchor="middle" x="163" y="-74.5" font-family="Helvetica,sans-Serif" font-size="10.00">servio::ftest::uctx</text>
</a>
</g>
</g>
<!-- Node3&#45;&gt;Node1 -->
<g id="edge2" class="edge">
<title>Node3&#45;&gt;Node1</title>
<path fill="none" stroke="#9a32cd" stroke-dasharray="5,2" d="M148.4,-59.63C137.05,-46.92 121.77,-29.8 112.7,-19.63"/>
<polygon fill="#9a32cd" stroke="#9a32cd" points="145.91,-62.1 155.18,-67.23 151.13,-57.44 145.91,-62.1"/>
<text text-anchor="middle" x="146.5" y="-41" font-family="Helvetica,sans-Serif" font-size="10.00"> ctx</text>
</g>
</g>
</svg>
