<?xml version="1.0" encoding="UTF-8" standalone="no"?>
<!DOCTYPE svg PUBLIC "-//W3C//DTD SVG 1.1//EN"
 "http://www.w3.org/Graphics/SVG/1.1/DTD/svg11.dtd">
<!-- Generated by graphviz version 2.43.0 (0)
 -->
<!-- Title: fw::drv::adc_set Pages: 1 -->
<svg width="505pt" height="209pt"
 viewBox="0.00 0.00 505.00 209.00" xmlns="http://www.w3.org/2000/svg" xmlns:xlink="http://www.w3.org/1999/xlink">
<g id="graph0" class="graph" transform="scale(1 1) rotate(0) translate(4 205)">
<title>fw::drv::adc_set</title>
<polygon fill="white" stroke="transparent" points="-4,4 -4,-205 501,-205 501,4 -4,4"/>
<!-- Node1 -->
<g id="node1" class="node">
<title>Node1</title>
<g id="a_node1"><a xlink:title=" ">
<polygon fill="#bfbfbf" stroke="black" points="405,-104 405,-123 497,-123 497,-104 405,-104"/>
<text text-anchor="middle" x="451" y="-111" font-family="Helvetica,sans-Serif" font-size="10.00">fw::drv::adc_set</text>
</a>
</g>
</g>
<!-- Node2 -->
<g id="node2" class="node">
<title>Node2</title>
<g id="a_node2"><a xlink:href="structfw_1_1drv_1_1adc__channel.html" target="_top" xlink:title=" ">
<polygon fill="white" stroke="black" points="181.5,-170.5 181.5,-200.5 296.5,-200.5 296.5,-170.5 181.5,-170.5"/>
<text text-anchor="start" x="189.5" y="-188.5" font-family="Helvetica,sans-Serif" font-size="10.00">fw::drv::adc_channel</text>
<text text-anchor="middle" x="239" y="-177.5" font-family="Helvetica,sans-Serif" font-size="10.00">&lt; VCC_CHANNEL &gt;</text>
</a>
</g>
</g>
<!-- Node2&#45;&gt;Node1 -->
<g id="edge1" class="edge">
<title>Node2&#45;&gt;Node1</title>
<path fill="none" stroke="#9a32cd" stroke-dasharray="5,2" d="M304.06,-167.49C311.48,-165.22 318.93,-162.86 326,-160.5 361.37,-148.68 401.63,-133 426.43,-123.07"/>
<polygon fill="#9a32cd" stroke="#9a32cd" points="302.9,-164.18 294.34,-170.41 304.92,-170.88 302.9,-164.18"/>
<text text-anchor="middle" x="365.5" y="-155.5" font-family="Helvetica,sans-Serif" font-size="10.00"> vcc</text>
</g>
<!-- Node3 -->
<g id="node3" class="node">
<title>Node3</title>
<g id="a_node3"><a xlink:href="structfw_1_1drv_1_1detailed__adc__channel.html" target="_top" xlink:title=" ">
<polygon fill="white" stroke="black" points="152,-110 152,-151 326,-151 326,-110 152,-110"/>
<text text-anchor="start" x="160" y="-139" font-family="Helvetica,sans-Serif" font-size="10.00">fw::drv::detailed_adc</text>
<text text-anchor="start" x="160" y="-128" font-family="Helvetica,sans-Serif" font-size="10.00">_channel&lt; CURRENT_CHANNEL,</text>
<text text-anchor="middle" x="239" y="-117" font-family="Helvetica,sans-Serif" font-size="10.00"> 128 &gt;</text>
</a>
</g>
</g>
<!-- Node3&#45;&gt;Node1 -->
<g id="edge2" class="edge">
<title>Node3&#45;&gt;Node1</title>
<path fill="none" stroke="#9a32cd" stroke-dasharray="5,2" d="M336.24,-122.71C360.21,-120.77 384.78,-118.78 404.93,-117.15"/>
<polygon fill="#9a32cd" stroke="#9a32cd" points="335.71,-119.24 326.02,-123.54 336.27,-126.22 335.71,-119.24"/>
<text text-anchor="middle" x="365.5" y="-124.5" font-family="Helvetica,sans-Serif" font-size="10.00"> current</text>
</g>
<!-- Node4 -->
<g id="node4" class="node">
<title>Node4</title>
<g id="a_node4"><a xlink:href="structfw_1_1drv_1_1adc__channel__with__callback.html" target="_top" xlink:title=" ">
<polygon fill="white" stroke="black" points="166,-50 166,-91 312,-91 312,-50 166,-50"/>
<text text-anchor="start" x="174" y="-79" font-family="Helvetica,sans-Serif" font-size="10.00">fw::drv::adc_channel</text>
<text text-anchor="start" x="174" y="-68" font-family="Helvetica,sans-Serif" font-size="10.00">_with_callback&lt; POSITION</text>
<text text-anchor="middle" x="239" y="-57" font-family="Helvetica,sans-Serif" font-size="10.00">_CHANNEL &gt;</text>
</a>
</g>
</g>
<!-- Node4&#45;&gt;Node1 -->
<g id="edge3" class="edge">
<title>Node4&#45;&gt;Node1</title>
<path fill="none" stroke="#9a32cd" stroke-dasharray="5,2" d="M322.12,-87.31C350.27,-93.08 380.73,-99.32 404.86,-104.26"/>
<polygon fill="#9a32cd" stroke="#9a32cd" points="322.77,-83.88 312.27,-85.3 321.36,-90.73 322.77,-83.88"/>
<text text-anchor="middle" x="365.5" y="-102.5" font-family="Helvetica,sans-Serif" font-size="10.00"> position</text>
</g>
<!-- Node5 -->
<g id="node5" class="node">
<title>Node5</title>
<g id="a_node5"><a xlink:href="structfw_1_1drv_1_1adc__channel.html" target="_top" xlink:title=" ">
<polygon fill="white" stroke="black" points="0,-55.5 0,-85.5 115,-85.5 115,-55.5 0,-55.5"/>
<text text-anchor="start" x="8" y="-73.5" font-family="Helvetica,sans-Serif" font-size="10.00">fw::drv::adc_channel</text>
<text text-anchor="middle" x="57.5" y="-62.5" font-family="Helvetica,sans-Serif" font-size="10.00">&lt; ID &gt;</text>
</a>
</g>
</g>
<!-- Node5&#45;&gt;Node4 -->
<g id="edge4" class="edge">
<title>Node5&#45;&gt;Node4</title>
<path fill="none" stroke="midnightblue" d="M125.63,-70.5C138.73,-70.5 152.51,-70.5 165.77,-70.5"/>
<polygon fill="midnightblue" stroke="midnightblue" points="125.29,-67 115.29,-70.5 125.29,-74 125.29,-67"/>
</g>
<!-- Node6 -->
<g id="node6" class="node">
<title>Node6</title>
<g id="a_node6"><a xlink:href="structfw_1_1drv_1_1adc__channel.html" target="_top" xlink:title=" ">
<polygon fill="white" stroke="black" points="179.5,-0.5 179.5,-30.5 298.5,-30.5 298.5,-0.5 179.5,-0.5"/>
<text text-anchor="start" x="187.5" y="-18.5" font-family="Helvetica,sans-Serif" font-size="10.00">fw::drv::adc_channel</text>
<text text-anchor="middle" x="239" y="-7.5" font-family="Helvetica,sans-Serif" font-size="10.00">&lt; TEMP_CHANNEL &gt;</text>
</a>
</g>
</g>
<!-- Node6&#45;&gt;Node1 -->
<g id="edge5" class="edge">
<title>Node6&#45;&gt;Node1</title>
<path fill="none" stroke="#9a32cd" stroke-dasharray="5,2" d="M308.15,-33.59C314.26,-35.73 320.29,-38.03 326,-40.5 368.43,-58.82 414.29,-88.78 436.47,-104"/>
<polygon fill="#9a32cd" stroke="#9a32cd" points="309.11,-30.22 298.52,-30.38 306.9,-36.86 309.11,-30.22"/>
<text text-anchor="middle" x="365.5" y="-73.5" font-family="Helvetica,sans-Serif" font-size="10.00"> temp</text>
</g>
</g>
</svg>
