<?xml version="1.0" encoding="UTF-8" standalone="no"?>
<!DOCTYPE svg PUBLIC "-//W3C//DTD SVG 1.1//EN"
 "http://www.w3.org/Graphics/SVG/1.1/DTD/svg11.dtd">
<!-- Generated by graphviz version 2.43.0 (0)
 -->
<!-- Title: servio::core Pages: 1 -->
<svg width="473pt" height="259pt"
 viewBox="0.00 0.00 473.00 258.50" xmlns="http://www.w3.org/2000/svg" xmlns:xlink="http://www.w3.org/1999/xlink">
<g id="graph0" class="graph" transform="scale(1 1) rotate(0) translate(4 254.5)">
<title>servio::core</title>
<polygon fill="white" stroke="transparent" points="-4,4 -4,-254.5 469,-254.5 469,4 -4,4"/>
<!-- Node1 -->
<g id="node1" class="node">
<title>Node1</title>
<g id="a_node1"><a xlink:title=" ">
<polygon fill="#bfbfbf" stroke="black" points="391,-76.5 391,-95.5 465,-95.5 465,-76.5 391,-76.5"/>
<text text-anchor="middle" x="428" y="-83.5" font-family="Helvetica,sans-Serif" font-size="10.00">servio::core</text>
</a>
</g>
</g>
<!-- Node2 -->
<g id="node2" class="node">
<title>Node2</title>
<g id="a_node2"><a xlink:href="structservio_1_1converter.html" target="_top" xlink:title=" ">
<polygon fill="white" stroke="black" points="222,-152.5 222,-171.5 321,-171.5 321,-152.5 222,-152.5"/>
<text text-anchor="middle" x="271.5" y="-159.5" font-family="Helvetica,sans-Serif" font-size="10.00">servio::converter</text>
</a>
</g>
</g>
<!-- Node2&#45;&gt;Node1 -->
<g id="edge1" class="edge">
<title>Node2&#45;&gt;Node1</title>
<path fill="none" stroke="#9a32cd" stroke-dasharray="5,2" d="M311.99,-149.06C317.41,-147.12 322.86,-145.07 328,-143 348.47,-134.75 353.76,-132.82 373,-122 387.34,-113.94 402.89,-103.36 413.6,-95.76"/>
<polygon fill="#9a32cd" stroke="#9a32cd" points="310.67,-145.82 302.38,-152.42 312.98,-152.42 310.67,-145.82"/>
<text text-anchor="middle" x="359.5" y="-138" font-family="Helvetica,sans-Serif" font-size="10.00"> conv</text>
</g>
<!-- Node3 -->
<g id="node3" class="node">
<title>Node3</title>
<g id="a_node3"><a xlink:href="classservio_1_1cnv_1_1current__converter.html" target="_top" xlink:title=" ">
<polygon fill="white" stroke="black" points="13,-220 13,-250 123,-250 123,-220 13,-220"/>
<text text-anchor="start" x="21" y="-238" font-family="Helvetica,sans-Serif" font-size="10.00">servio::cnv::current</text>
<text text-anchor="middle" x="68" y="-227" font-family="Helvetica,sans-Serif" font-size="10.00">_converter</text>
</a>
</g>
</g>
<!-- Node3&#45;&gt;Node2 -->
<g id="edge2" class="edge">
<title>Node3&#45;&gt;Node2</title>
<path fill="none" stroke="#9a32cd" stroke-dasharray="5,2" d="M122.24,-216.63C145.28,-208.59 172.52,-198.97 197,-190 213.28,-184.04 231.5,-177.1 245.72,-171.62"/>
<polygon fill="#9a32cd" stroke="#9a32cd" points="120.94,-213.38 112.64,-219.97 123.24,-219.99 120.94,-213.38"/>
<text text-anchor="middle" x="175.5" y="-208" font-family="Helvetica,sans-Serif" font-size="10.00"> current</text>
</g>
<!-- Node4 -->
<g id="node4" class="node">
<title>Node4</title>
<g id="a_node4"><a xlink:href="classservio_1_1cnv_1_1position__converter.html" target="_top" xlink:title=" ">
<polygon fill="white" stroke="black" points="11,-171 11,-201 125,-201 125,-171 11,-171"/>
<text text-anchor="start" x="19" y="-189" font-family="Helvetica,sans-Serif" font-size="10.00">servio::cnv::position</text>
<text text-anchor="middle" x="68" y="-178" font-family="Helvetica,sans-Serif" font-size="10.00">_converter</text>
</a>
</g>
</g>
<!-- Node4&#45;&gt;Node2 -->
<g id="edge3" class="edge">
<title>Node4&#45;&gt;Node2</title>
<path fill="none" stroke="#9a32cd" stroke-dasharray="5,2" d="M135.33,-178.1C163.56,-174.74 195.89,-170.89 221.86,-167.79"/>
<polygon fill="#9a32cd" stroke="#9a32cd" points="134.64,-174.66 125.13,-179.31 135.47,-181.61 134.64,-174.66"/>
<text text-anchor="middle" x="175.5" y="-178" font-family="Helvetica,sans-Serif" font-size="10.00"> position</text>
</g>
<!-- Node5 -->
<g id="node5" class="node">
<title>Node5</title>
<g id="a_node5"><a xlink:href="classservio_1_1cnv_1_1temperature__converter.html" target="_top" xlink:title=" ">
<polygon fill="white" stroke="black" points="0,-122 0,-152 136,-152 136,-122 0,-122"/>
<text text-anchor="start" x="8" y="-140" font-family="Helvetica,sans-Serif" font-size="10.00">servio::cnv::temperature</text>
<text text-anchor="middle" x="68" y="-129" font-family="Helvetica,sans-Serif" font-size="10.00">_converter</text>
</a>
</g>
</g>
<!-- Node5&#45;&gt;Node2 -->
<g id="edge4" class="edge">
<title>Node5&#45;&gt;Node2</title>
<path fill="none" stroke="#9a32cd" stroke-dasharray="5,2" d="M146.1,-146.57C171.56,-149.72 199.14,-153.15 221.85,-155.96"/>
<polygon fill="#9a32cd" stroke="#9a32cd" points="146.45,-143.08 136.1,-145.32 145.59,-150.03 146.45,-143.08"/>
<text text-anchor="middle" x="175.5" y="-155" font-family="Helvetica,sans-Serif" font-size="10.00"> temp</text>
</g>
<!-- Node6 -->
<g id="node6" class="node">
<title>Node6</title>
<g id="a_node6"><a xlink:href="classservio_1_1cnv_1_1voltage__converter.html" target="_top" xlink:title=" ">
<polygon fill="white" stroke="black" points="12,-73 12,-103 124,-103 124,-73 12,-73"/>
<text text-anchor="start" x="20" y="-91" font-family="Helvetica,sans-Serif" font-size="10.00">servio::cnv::voltage</text>
<text text-anchor="middle" x="68" y="-80" font-family="Helvetica,sans-Serif" font-size="10.00">_converter</text>
</a>
</g>
</g>
<!-- Node6&#45;&gt;Node2 -->
<g id="edge5" class="edge">
<title>Node6&#45;&gt;Node2</title>
<path fill="none" stroke="#9a32cd" stroke-dasharray="5,2" d="M127.66,-106.3C149.72,-113.78 174.82,-123.03 197,-133 205.35,-136.75 206.64,-139.28 215,-143 222.72,-146.43 231.27,-149.64 239.3,-152.4"/>
<polygon fill="#9a32cd" stroke="#9a32cd" points="128.67,-102.95 118.08,-103.09 126.45,-109.58 128.67,-102.95"/>
<text text-anchor="middle" x="175.5" y="-136" font-family="Helvetica,sans-Serif" font-size="10.00"> vcc</text>
</g>
<!-- Node7 -->
<g id="node7" class="node">
<title>Node7</title>
<g id="a_node7"><a xlink:href="classservio_1_1monitor.html" target="_top" xlink:title=" ">
<polygon fill="white" stroke="black" points="226,-114.5 226,-133.5 317,-133.5 317,-114.5 226,-114.5"/>
<text text-anchor="middle" x="271.5" y="-121.5" font-family="Helvetica,sans-Serif" font-size="10.00">servio::monitor</text>
</a>
</g>
</g>
<!-- Node7&#45;&gt;Node1 -->
<g id="edge6" class="edge">
<title>Node7&#45;&gt;Node1</title>
<path fill="none" stroke="#9a32cd" stroke-dasharray="5,2" d="M325.93,-112.25C341.17,-108.77 357.77,-104.86 373,-101 379.7,-99.3 386.83,-97.4 393.65,-95.52"/>
<polygon fill="#9a32cd" stroke="#9a32cd" points="325.12,-108.85 316.14,-114.47 326.66,-115.67 325.12,-108.85"/>
<text text-anchor="middle" x="359.5" y="-110" font-family="Helvetica,sans-Serif" font-size="10.00"> mon</text>
</g>
<!-- Node8 -->
<g id="node8" class="node">
<title>Node8</title>
<g id="a_node8"><a xlink:href="classservio_1_1mtr_1_1metrics.html" target="_top" xlink:title=" ">
<polygon fill="white" stroke="black" points="215,-76.5 215,-95.5 328,-95.5 328,-76.5 215,-76.5"/>
<text text-anchor="middle" x="271.5" y="-83.5" font-family="Helvetica,sans-Serif" font-size="10.00">servio::mtr::metrics</text>
</a>
</g>
</g>
<!-- Node8&#45;&gt;Node1 -->
<g id="edge7" class="edge">
<title>Node8&#45;&gt;Node1</title>
<path fill="none" stroke="#9a32cd" stroke-dasharray="5,2" d="M338.64,-86C356.45,-86 375.06,-86 390.58,-86"/>
<polygon fill="#9a32cd" stroke="#9a32cd" points="338.28,-82.5 328.28,-86 338.28,-89.5 338.28,-82.5"/>
<text text-anchor="middle" x="359.5" y="-89" font-family="Helvetica,sans-Serif" font-size="10.00"> met</text>
</g>
<!-- Node9 -->
<g id="node9" class="node">
<title>Node9</title>
<g id="a_node9"><a xlink:href="classservio_1_1ctl_1_1control.html" target="_top" xlink:title=" ">
<polygon fill="white" stroke="black" points="219.5,-38.5 219.5,-57.5 323.5,-57.5 323.5,-38.5 219.5,-38.5"/>
<text text-anchor="middle" x="271.5" y="-45.5" font-family="Helvetica,sans-Serif" font-size="10.00">servio::ctl::control</text>
</a>
</g>
</g>
<!-- Node9&#45;&gt;Node1 -->
<g id="edge8" class="edge">
<title>Node9&#45;&gt;Node1</title>
<path fill="none" stroke="#9a32cd" stroke-dasharray="5,2" d="M325.93,-59.75C341.17,-63.23 357.77,-67.14 373,-71 379.7,-72.7 386.83,-74.6 393.65,-76.48"/>
<polygon fill="#9a32cd" stroke="#9a32cd" points="326.66,-56.33 316.14,-57.53 325.12,-63.15 326.66,-56.33"/>
<text text-anchor="middle" x="359.5" y="-74" font-family="Helvetica,sans-Serif" font-size="10.00"> ctl</text>
</g>
<!-- Node10 -->
<g id="node10" class="node">
<title>Node10</title>
<g id="a_node10"><a xlink:href="classservio_1_1indication.html" target="_top" xlink:title=" ">
<polygon fill="white" stroke="black" points="221,-0.5 221,-19.5 322,-19.5 322,-0.5 221,-0.5"/>
<text text-anchor="middle" x="271.5" y="-7.5" font-family="Helvetica,sans-Serif" font-size="10.00">servio::indication</text>
</a>
</g>
</g>
<!-- Node10&#45;&gt;Node1 -->
<g id="edge9" class="edge">
<title>Node10&#45;&gt;Node1</title>
<path fill="none" stroke="#9a32cd" stroke-dasharray="5,2" d="M311.77,-22.96C317.25,-24.91 322.79,-26.95 328,-29 348.37,-37 353.89,-38.33 373,-49 387.88,-57.31 403.86,-68.59 414.55,-76.5"/>
<polygon fill="#9a32cd" stroke="#9a32cd" points="312.65,-19.56 302.06,-19.58 310.35,-26.17 312.65,-19.56"/>
<text text-anchor="middle" x="359.5" y="-52" font-family="Helvetica,sans-Serif" font-size="10.00"> ind</text>
</g>
</g>
</svg>
