<?xml version="1.0" encoding="UTF-8" standalone="no"?>
<!DOCTYPE svg PUBLIC "-//W3C//DTD SVG 1.1//EN"
 "http://www.w3.org/Graphics/SVG/1.1/DTD/svg11.dtd">
<!-- Generated by graphviz version 2.43.0 (0)
 -->
<!-- Title: fw::standard_callbacks Pages: 1 -->
<svg width="306pt" height="152pt"
 viewBox="0.00 0.00 305.50 152.00" xmlns="http://www.w3.org/2000/svg" xmlns:xlink="http://www.w3.org/1999/xlink">
<g id="graph0" class="graph" transform="scale(1 1) rotate(0) translate(4 148)">
<title>fw::standard_callbacks</title>
<polygon fill="white" stroke="transparent" points="-4,4 -4,-148 301.5,-148 301.5,4 -4,4"/>
<!-- Node1 -->
<g id="node1" class="node">
<title>Node1</title>
<g id="a_node1"><a xlink:title=" ">
<polygon fill="#bfbfbf" stroke="black" points="80.5,-0.5 80.5,-19.5 207.5,-19.5 207.5,-0.5 80.5,-0.5"/>
<text text-anchor="middle" x="144" y="-7.5" font-family="Helvetica,sans-Serif" font-size="10.00">fw::standard_callbacks</text>
</a>
</g>
</g>
<!-- Node2 -->
<g id="node2" class="node">
<title>Node2</title>
<g id="a_node2"><a xlink:href="classfw_1_1position__callback.html" target="_top" xlink:title=" ">
<polygon fill="white" stroke="black" points="18,-67.5 18,-86.5 136,-86.5 136,-67.5 18,-67.5"/>
<text text-anchor="middle" x="77" y="-74.5" font-family="Helvetica,sans-Serif" font-size="10.00">fw::position_callback</text>
</a>
</g>
</g>
<!-- Node2&#45;&gt;Node1 -->
<g id="edge1" class="edge">
<title>Node2&#45;&gt;Node1</title>
<path fill="none" stroke="#9a32cd" stroke-dasharray="5,2" d="M93.5,-60C106.64,-47.25 124.52,-29.89 135.11,-19.63"/>
<polygon fill="#9a32cd" stroke="#9a32cd" points="90.78,-57.76 86.04,-67.23 95.65,-62.78 90.78,-57.76"/>
<text text-anchor="middle" x="133.5" y="-41" font-family="Helvetica,sans-Serif" font-size="10.00"> pos_cb</text>
</g>
<!-- Node3 -->
<g id="node3" class="node">
<title>Node3</title>
<g id="a_node3"><a xlink:href="classfw_1_1drv_1_1value__cb__interface.html" target="_top" xlink:title=" ">
<polygon fill="white" stroke="black" points="0,-124.5 0,-143.5 142,-143.5 142,-124.5 0,-124.5"/>
<text text-anchor="middle" x="71" y="-131.5" font-family="Helvetica,sans-Serif" font-size="10.00">drv::position_cb_interface</text>
</a>
</g>
</g>
<!-- Node3&#45;&gt;Node2 -->
<g id="edge2" class="edge">
<title>Node3&#45;&gt;Node2</title>
<path fill="none" stroke="midnightblue" d="M73.03,-114.42C74.05,-105.05 75.24,-94.14 76.05,-86.71"/>
<polygon fill="midnightblue" stroke="midnightblue" points="69.54,-114.09 71.94,-124.41 76.5,-114.84 69.54,-114.09"/>
</g>
<!-- Node4 -->
<g id="node4" class="node">
<title>Node4</title>
<g id="a_node4"><a xlink:href="classfw_1_1current__callback.html" target="_top" xlink:title=" ">
<polygon fill="white" stroke="black" points="166.5,-67.5 166.5,-86.5 279.5,-86.5 279.5,-67.5 166.5,-67.5"/>
<text text-anchor="middle" x="223" y="-74.5" font-family="Helvetica,sans-Serif" font-size="10.00">fw::current_callback</text>
</a>
</g>
</g>
<!-- Node4&#45;&gt;Node1 -->
<g id="edge3" class="edge">
<title>Node4&#45;&gt;Node1</title>
<path fill="none" stroke="#9a32cd" stroke-dasharray="5,2" d="M204.42,-60.71C188.86,-47.91 167.2,-30.09 154.49,-19.63"/>
<polygon fill="#9a32cd" stroke="#9a32cd" points="202.4,-63.58 212.35,-67.23 206.85,-58.18 202.4,-63.58"/>
<text text-anchor="middle" x="216.5" y="-41" font-family="Helvetica,sans-Serif" font-size="10.00"> current_cb</text>
</g>
<!-- Node5 -->
<g id="node5" class="node">
<title>Node5</title>
<g id="a_node5"><a xlink:href="classfw_1_1drv_1_1adc__detailed__cb__interface.html" target="_top" xlink:title=" ">
<polygon fill="white" stroke="black" points="160.5,-124.5 160.5,-143.5 297.5,-143.5 297.5,-124.5 160.5,-124.5"/>
<text text-anchor="middle" x="229" y="-131.5" font-family="Helvetica,sans-Serif" font-size="10.00">drv::current_cb_interface</text>
</a>
</g>
</g>
<!-- Node5&#45;&gt;Node4 -->
<g id="edge4" class="edge">
<title>Node5&#45;&gt;Node4</title>
<path fill="none" stroke="midnightblue" d="M226.97,-114.42C225.95,-105.05 224.76,-94.14 223.95,-86.71"/>
<polygon fill="midnightblue" stroke="midnightblue" points="223.5,-114.84 228.06,-124.41 230.46,-114.09 223.5,-114.84"/>
</g>
</g>
</svg>
