<?xml version="1.0" encoding="UTF-8" standalone="no"?>
<!DOCTYPE svg PUBLIC "-//W3C//DTD SVG 1.1//EN"
 "http://www.w3.org/Graphics/SVG/1.1/DTD/svg11.dtd">
<!-- Generated by graphviz version 2.43.0 (0)
 -->
<!-- Title: servio::ftest::bench::profile Pages: 1 -->
<svg width="498pt" height="230pt"
 viewBox="0.00 0.00 498.00 229.50" xmlns="http://www.w3.org/2000/svg" xmlns:xlink="http://www.w3.org/1999/xlink">
<g id="graph0" class="graph" transform="scale(1 1) rotate(0) translate(4 225.5)">
<title>servio::ftest::bench::profile</title>
<polygon fill="white" stroke="transparent" points="-4,4 -4,-225.5 494,-225.5 494,4 -4,4"/>
<!-- Node1 -->
<g id="node1" class="node">
<title>Node1</title>
<g id="a_node1"><a xlink:title=" ">
<polygon fill="#bfbfbf" stroke="black" points="380,-83.5 380,-113.5 490,-113.5 490,-83.5 380,-83.5"/>
<text text-anchor="start" x="388" y="-101.5" font-family="Helvetica,sans-Serif" font-size="10.00">servio::ftest::bench</text>
<text text-anchor="middle" x="435" y="-90.5" font-family="Helvetica,sans-Serif" font-size="10.00">::profile</text>
</a>
</g>
</g>
<!-- Node2 -->
<g id="node2" class="node">
<title>Node2</title>
<g id="a_node2"><a xlink:href="structservio_1_1drv_1_1clk__iface.html" target="_top" xlink:title=" ">
<polygon fill="white" stroke="black" points="193.5,-145 193.5,-164 310.5,-164 310.5,-145 193.5,-145"/>
<text text-anchor="middle" x="252" y="-152" font-family="Helvetica,sans-Serif" font-size="10.00">servio::drv::clk_iface</text>
</a>
</g>
</g>
<!-- Node2&#45;&gt;Node1 -->
<g id="edge1" class="edge">
<title>Node2&#45;&gt;Node1</title>
<path fill="none" stroke="#9a32cd" stroke-dasharray="5,2" d="M298.14,-142.29C317.83,-136.8 341.13,-130.08 362,-123.5 371.72,-120.43 382.1,-116.95 391.87,-113.58"/>
<polygon fill="#9a32cd" stroke="#9a32cd" points="297.2,-138.91 288.5,-144.96 299.07,-145.66 297.2,-138.91"/>
<text text-anchor="middle" x="346.5" y="-135.5" font-family="Helvetica,sans-Serif" font-size="10.00"> clk</text>
</g>
<!-- Node3 -->
<g id="node3" class="node">
<title>Node3</title>
<g id="a_node3"><a xlink:href="structservio_1_1core_1_1core.html" target="_top" xlink:title=" ">
<polygon fill="white" stroke="black" points="201.5,-107 201.5,-126 302.5,-126 302.5,-107 201.5,-107"/>
<text text-anchor="middle" x="252" y="-114" font-family="Helvetica,sans-Serif" font-size="10.00">servio::core::core</text>
</a>
</g>
</g>
<!-- Node3&#45;&gt;Node1 -->
<g id="edge2" class="edge">
<title>Node3&#45;&gt;Node1</title>
<path fill="none" stroke="#9a32cd" stroke-dasharray="5,2" d="M312.97,-110.54C334.54,-108.39 358.73,-105.99 379.78,-103.89"/>
<polygon fill="#9a32cd" stroke="#9a32cd" points="312.54,-107.06 302.94,-111.53 313.24,-114.03 312.54,-107.06"/>
<text text-anchor="middle" x="346.5" y="-111.5" font-family="Helvetica,sans-Serif" font-size="10.00"> cor</text>
</g>
<!-- Node4 -->
<g id="node4" class="node">
<title>Node4</title>
<g id="a_node4"><a xlink:href="classservio_1_1mon_1_1monitor.html" target="_top" xlink:title=" ">
<polygon fill="white" stroke="black" points="4.5,-202 4.5,-221 123.5,-221 123.5,-202 4.5,-202"/>
<text text-anchor="middle" x="64" y="-209" font-family="Helvetica,sans-Serif" font-size="10.00">servio::mon::monitor</text>
</a>
</g>
</g>
<!-- Node4&#45;&gt;Node3 -->
<g id="edge3" class="edge">
<title>Node4&#45;&gt;Node3</title>
<path fill="none" stroke="#9a32cd" stroke-dasharray="5,2" d="M112.25,-198.74C117.64,-196.85 122.99,-194.77 128,-192.5 149.46,-182.79 156.35,-181.17 173,-164.5 183.72,-153.77 179.03,-144.81 191,-135.5 196,-131.61 201.82,-128.51 207.82,-126.03"/>
<polygon fill="#9a32cd" stroke="#9a32cd" points="110.97,-195.48 102.57,-201.94 113.17,-202.13 110.97,-195.48"/>
<text text-anchor="middle" x="159.5" y="-186.5" font-family="Helvetica,sans-Serif" font-size="10.00"> mon</text>
</g>
<!-- Node5 -->
<g id="node5" class="node">
<title>Node5</title>
<g id="a_node5"><a xlink:href="structservio_1_1cnv_1_1converter.html" target="_top" xlink:title=" ">
<polygon fill="white" stroke="red" points="3,-164 3,-183 125,-183 125,-164 3,-164"/>
<text text-anchor="middle" x="64" y="-171" font-family="Helvetica,sans-Serif" font-size="10.00">servio::cnv::converter</text>
</a>
</g>
</g>
<!-- Node5&#45;&gt;Node3 -->
<g id="edge4" class="edge">
<title>Node5&#45;&gt;Node3</title>
<path fill="none" stroke="#9a32cd" stroke-dasharray="5,2" d="M107.87,-161.16C127.73,-155.35 151.62,-148.23 173,-141.5 181.04,-138.97 182.98,-138.11 191,-135.5 200.56,-132.39 211,-129.07 220.45,-126.08"/>
<polygon fill="#9a32cd" stroke="#9a32cd" points="106.8,-157.83 98.18,-163.98 108.76,-164.55 106.8,-157.83"/>
<text text-anchor="middle" x="159.5" y="-152.5" font-family="Helvetica,sans-Serif" font-size="10.00"> conv</text>
</g>
<!-- Node7 -->
<g id="node6" class="node">
<title>Node7</title>
<g id="a_node6"><a xlink:href="classservio_1_1mon_1_1indication.html" target="_top" xlink:title=" ">
<polygon fill="white" stroke="black" points="0,-126 0,-145 128,-145 128,-126 0,-126"/>
<text text-anchor="middle" x="64" y="-133" font-family="Helvetica,sans-Serif" font-size="10.00">servio::mon::indication</text>
</a>
</g>
</g>
<!-- Node7&#45;&gt;Node3 -->
<g id="edge5" class="edge">
<title>Node7&#45;&gt;Node3</title>
<path fill="none" stroke="#9a32cd" stroke-dasharray="5,2" d="M138.18,-128.02C159.39,-125.86 182.05,-123.54 201.45,-121.56"/>
<polygon fill="#9a32cd" stroke="#9a32cd" points="137.82,-124.54 128.23,-129.04 138.53,-131.51 137.82,-124.54"/>
<text text-anchor="middle" x="159.5" y="-129.5" font-family="Helvetica,sans-Serif" font-size="10.00"> ind</text>
</g>
<!-- Node8 -->
<g id="node7" class="node">
<title>Node8</title>
<g id="a_node7"><a xlink:href="classservio_1_1mtr_1_1metrics.html" target="_top" xlink:title=" ">
<polygon fill="white" stroke="black" points="7.5,-88 7.5,-107 120.5,-107 120.5,-88 7.5,-88"/>
<text text-anchor="middle" x="64" y="-95" font-family="Helvetica,sans-Serif" font-size="10.00">servio::mtr::metrics</text>
</a>
</g>
</g>
<!-- Node8&#45;&gt;Node3 -->
<g id="edge6" class="edge">
<title>Node8&#45;&gt;Node3</title>
<path fill="none" stroke="#9a32cd" stroke-dasharray="5,2" d="M130.7,-104.21C153.96,-106.59 179.72,-109.22 201.42,-111.44"/>
<polygon fill="#9a32cd" stroke="#9a32cd" points="130.86,-100.71 120.55,-103.17 130.15,-107.67 130.86,-100.71"/>
<text text-anchor="middle" x="159.5" y="-110.5" font-family="Helvetica,sans-Serif" font-size="10.00"> met</text>
</g>
<!-- Node9 -->
<g id="node8" class="node">
<title>Node9</title>
<g id="a_node8"><a xlink:href="classservio_1_1ctl_1_1control.html" target="_top" xlink:title=" ">
<polygon fill="white" stroke="black" points="12,-50 12,-69 116,-69 116,-50 12,-50"/>
<text text-anchor="middle" x="64" y="-57" font-family="Helvetica,sans-Serif" font-size="10.00">servio::ctl::control</text>
</a>
</g>
</g>
<!-- Node9&#45;&gt;Node3 -->
<g id="edge7" class="edge">
<title>Node9&#45;&gt;Node3</title>
<path fill="none" stroke="#9a32cd" stroke-dasharray="5,2" d="M111,-71.71C130.28,-77.08 152.85,-83.71 173,-90.5 181.13,-93.24 182.9,-94.65 191,-97.5 200.17,-100.73 210.22,-104.01 219.42,-106.92"/>
<polygon fill="#9a32cd" stroke="#9a32cd" points="111.83,-68.3 101.25,-69.02 109.96,-75.05 111.83,-68.3"/>
<text text-anchor="middle" x="159.5" y="-93.5" font-family="Helvetica,sans-Serif" font-size="10.00"> ctl</text>
</g>
<!-- Node10 -->
<g id="node9" class="node">
<title>Node10</title>
<g id="a_node9"><a xlink:title=" ">
<polygon fill="white" stroke="#bfbfbf" points="205,-69 205,-88 299,-88 299,-69 205,-69"/>
<text text-anchor="middle" x="252" y="-76" font-family="Helvetica,sans-Serif" font-size="10.00">std::string_view</text>
</a>
</g>
</g>
<!-- Node10&#45;&gt;Node1 -->
<g id="edge8" class="edge">
<title>Node10&#45;&gt;Node1</title>
<path fill="none" stroke="#9a32cd" stroke-dasharray="5,2" d="M309.42,-84.7C326.33,-86.56 344.92,-88.61 362,-90.5 367.75,-91.14 373.76,-91.8 379.75,-92.47"/>
<polygon fill="#9a32cd" stroke="#9a32cd" points="309.47,-81.18 299.14,-83.57 308.7,-88.14 309.47,-81.18"/>
<text text-anchor="middle" x="346.5" y="-93.5" font-family="Helvetica,sans-Serif" font-size="10.00"> name</text>
</g>
<!-- Node11 -->
<g id="node10" class="node">
<title>Node11</title>
<g id="a_node10"><a xlink:title=" ">
<polygon fill="white" stroke="#bfbfbf" points="1.5,-0.5 1.5,-30.5 126.5,-30.5 126.5,-0.5 1.5,-0.5"/>
<text text-anchor="start" x="9.5" y="-18.5" font-family="Helvetica,sans-Serif" font-size="10.00">std::basic_string_view</text>
<text text-anchor="middle" x="64" y="-7.5" font-family="Helvetica,sans-Serif" font-size="10.00">&lt; Char &gt;</text>
</a>
</g>
</g>
<!-- Node11&#45;&gt;Node10 -->
<g id="edge9" class="edge">
<title>Node11&#45;&gt;Node10</title>
<path fill="none" stroke="midnightblue" d="M116.65,-33.92C139.39,-41.93 166.47,-51.34 191,-59.5 200.43,-62.64 210.74,-65.95 220.11,-68.91"/>
<polygon fill="midnightblue" stroke="midnightblue" points="117.78,-30.61 107.18,-30.58 115.45,-37.21 117.78,-30.61"/>
</g>
<!-- Node12 -->
<g id="node11" class="node">
<title>Node12</title>
<g id="a_node11"><a xlink:href="structservio_1_1drv_1_1curr__iface.html" target="_top" xlink:title=" ">
<polygon fill="white" stroke="black" points="191,-31 191,-50 313,-50 313,-31 191,-31"/>
<text text-anchor="middle" x="252" y="-38" font-family="Helvetica,sans-Serif" font-size="10.00">servio::drv::curr_iface</text>
</a>
</g>
</g>
<!-- Node12&#45;&gt;Node1 -->
<g id="edge10" class="edge">
<title>Node12&#45;&gt;Node1</title>
<path fill="none" stroke="#9a32cd" stroke-dasharray="5,2" d="M299.4,-52.79C318.85,-58.18 341.63,-64.8 362,-71.5 373.03,-75.13 384.88,-79.41 395.72,-83.48"/>
<polygon fill="#9a32cd" stroke="#9a32cd" points="300.13,-49.37 289.56,-50.1 298.28,-56.12 300.13,-49.37"/>
<text text-anchor="middle" x="346.5" y="-74.5" font-family="Helvetica,sans-Serif" font-size="10.00"> curr</text>
</g>
</g>
</svg>
