<?xml version="1.0" encoding="UTF-8" standalone="no"?>
<!DOCTYPE svg PUBLIC "-//W3C//DTD SVG 1.1//EN"
 "http://www.w3.org/Graphics/SVG/1.1/DTD/svg11.dtd">
<!-- Generated by graphviz version 2.43.0 (0)
 -->
<!-- Title: brd::uart_cfg Pages: 1 -->
<svg width="180pt" height="106pt"
 viewBox="0.00 0.00 180.00 106.00" xmlns="http://www.w3.org/2000/svg" xmlns:xlink="http://www.w3.org/1999/xlink">
<g id="graph0" class="graph" transform="scale(1 1) rotate(0) translate(4 102)">
<title>brd::uart_cfg</title>
<polygon fill="white" stroke="transparent" points="-4,4 -4,-102 176,-102 176,4 -4,4"/>
<!-- Node1 -->
<g id="node1" class="node">
<title>Node1</title>
<g id="a_node1"><a xlink:title=" ">
<polygon fill="#bfbfbf" stroke="black" points="48,-0.5 48,-19.5 126,-19.5 126,-0.5 48,-0.5"/>
<text text-anchor="middle" x="87" y="-7.5" font-family="Helvetica,sans-Serif" font-size="10.00">brd::uart_cfg</text>
</a>
</g>
</g>
<!-- Node2 -->
<g id="node2" class="node">
<title>Node2</title>
<g id="a_node2"><a xlink:href="namespacebrd.html#structbrd_1_1dma__cfg" target="_top" xlink:title=" ">
<polygon fill="white" stroke="black" points="0,-78.5 0,-97.5 80,-97.5 80,-78.5 0,-78.5"/>
<text text-anchor="middle" x="40" y="-85.5" font-family="Helvetica,sans-Serif" font-size="10.00">brd::dma_cfg</text>
</a>
</g>
</g>
<!-- Node2&#45;&gt;Node1 -->
<g id="edge1" class="edge">
<title>Node2&#45;&gt;Node1</title>
<path fill="none" stroke="#9a32cd" stroke-dasharray="5,2" d="M50.78,-69.57C60.44,-53.95 74.2,-31.7 81.67,-19.62"/>
<polygon fill="#9a32cd" stroke="#9a32cd" points="47.67,-67.94 45.39,-78.28 53.63,-71.62 47.67,-67.94"/>
<text text-anchor="middle" x="90" y="-46.5" font-family="Helvetica,sans-Serif" font-size="10.00"> tx_dma</text>
</g>
<!-- Node3 -->
<g id="node3" class="node">
<title>Node3</title>
<g id="a_node3"><a xlink:href="namespacebrd.html#structbrd_1_1pin__cfg" target="_top" xlink:title=" ">
<polygon fill="white" stroke="black" points="98,-78.5 98,-97.5 172,-97.5 172,-78.5 98,-78.5"/>
<text text-anchor="middle" x="135" y="-85.5" font-family="Helvetica,sans-Serif" font-size="10.00">brd::pin_cfg</text>
</a>
</g>
</g>
<!-- Node3&#45;&gt;Node1 -->
<g id="edge2" class="edge">
<title>Node3&#45;&gt;Node1</title>
<path fill="none" stroke="#9a32cd" stroke-dasharray="5,2" d="M128.47,-68.54C124.67,-59.01 119.37,-47.43 113,-38 108.41,-31.21 102.04,-24.56 96.75,-19.56"/>
<polygon fill="#9a32cd" stroke="#9a32cd" points="125.31,-70.08 132.1,-78.21 131.86,-67.62 125.31,-70.08"/>
<text text-anchor="middle" x="130.5" y="-52" font-family="Helvetica,sans-Serif" font-size="10.00"> rx</text>
<text text-anchor="middle" x="130.5" y="-41" font-family="Helvetica,sans-Serif" font-size="10.00">tx</text>
</g>
</g>
</svg>
