<?xml version="1.0" encoding="UTF-8" standalone="no"?>
<!DOCTYPE svg PUBLIC "-//W3C//DTD SVG 1.1//EN"
 "http://www.w3.org/Graphics/SVG/1.1/DTD/svg11.dtd">
<!-- Generated by graphviz version 2.43.0 (0)
 -->
<!-- Title: fw::dispatcher Pages: 1 -->
<svg width="353pt" height="162pt"
 viewBox="0.00 0.00 352.50 162.00" xmlns="http://www.w3.org/2000/svg" xmlns:xlink="http://www.w3.org/1999/xlink">
<g id="graph0" class="graph" transform="scale(1 1) rotate(0) translate(4 158)">
<title>fw::dispatcher</title>
<polygon fill="white" stroke="transparent" points="-4,4 -4,-158 348.5,-158 348.5,4 -4,4"/>
<!-- Node1 -->
<g id="node1" class="node">
<title>Node1</title>
<g id="a_node1"><a xlink:title=" ">
<polygon fill="#bfbfbf" stroke="black" points="169,-0.5 169,-19.5 253,-19.5 253,-0.5 169,-0.5"/>
<text text-anchor="middle" x="211" y="-7.5" font-family="Helvetica,sans-Serif" font-size="10.00">fw::dispatcher</text>
</a>
</g>
</g>
<!-- Node2 -->
<g id="node2" class="node">
<title>Node2</title>
<g id="a_node2"><a xlink:href="classfw_1_1acquisition.html" target="_top" xlink:title=" ">
<polygon fill="white" stroke="black" points="0,-134.5 0,-153.5 86,-153.5 86,-134.5 0,-134.5"/>
<text text-anchor="middle" x="43" y="-141.5" font-family="Helvetica,sans-Serif" font-size="10.00">fw::acquisition</text>
</a>
</g>
</g>
<!-- Node2&#45;&gt;Node1 -->
<g id="edge1" class="edge">
<title>Node2&#45;&gt;Node1</title>
<path fill="none" stroke="#9a32cd" stroke-dasharray="5,2" d="M35.57,-124.33C30.28,-107.69 26,-83.49 38,-67 67.71,-26.15 127.86,-14.49 168.8,-11.49"/>
<polygon fill="#9a32cd" stroke="#9a32cd" points="32.37,-125.78 39.03,-134.02 38.96,-123.42 32.37,-125.78"/>
<text text-anchor="middle" x="65" y="-74.5" font-family="Helvetica,sans-Serif" font-size="10.00"> acquistion</text>
</g>
<!-- Node4 -->
<g id="node4" class="node">
<title>Node4</title>
<g id="a_node4"><a xlink:href="structfw_1_1cfg__dispatcher.html" target="_top" xlink:title=" ">
<polygon fill="white" stroke="black" points="101,-67.5 101,-86.5 205,-86.5 205,-67.5 101,-67.5"/>
<text text-anchor="middle" x="153" y="-74.5" font-family="Helvetica,sans-Serif" font-size="10.00">fw::cfg_dispatcher</text>
</a>
</g>
</g>
<!-- Node2&#45;&gt;Node4 -->
<g id="edge5" class="edge">
<title>Node2&#45;&gt;Node4</title>
<path fill="none" stroke="#9a32cd" stroke-dasharray="5,2" d="M66.5,-129.12C88.29,-116.24 120.04,-97.48 138.4,-86.63"/>
<polygon fill="#9a32cd" stroke="#9a32cd" points="64.66,-126.13 57.84,-134.23 68.22,-132.16 64.66,-126.13"/>
<text text-anchor="middle" x="115.5" y="-108" font-family="Helvetica,sans-Serif" font-size="10.00"> acq</text>
</g>
<!-- Node3 -->
<g id="node3" class="node">
<title>Node3</title>
<g id="a_node3"><a xlink:href="classfw_1_1comms.html" target="_top" xlink:title=" ">
<polygon fill="white" stroke="black" points="275.5,-67.5 275.5,-86.5 344.5,-86.5 344.5,-67.5 275.5,-67.5"/>
<text text-anchor="middle" x="310" y="-74.5" font-family="Helvetica,sans-Serif" font-size="10.00">fw::comms</text>
</a>
</g>
</g>
<!-- Node3&#45;&gt;Node1 -->
<g id="edge2" class="edge">
<title>Node3&#45;&gt;Node1</title>
<path fill="none" stroke="#9a32cd" stroke-dasharray="5,2" d="M289.57,-61.5C279.29,-54.3 266.58,-45.55 255,-38 245.24,-31.64 234.04,-24.78 225.39,-19.56"/>
<polygon fill="#9a32cd" stroke="#9a32cd" points="287.7,-64.46 297.9,-67.36 291.73,-58.74 287.7,-64.46"/>
<text text-anchor="middle" x="287" y="-41" font-family="Helvetica,sans-Serif" font-size="10.00"> comm</text>
</g>
<!-- Node4&#45;&gt;Node1 -->
<g id="edge3" class="edge">
<title>Node4&#45;&gt;Node1</title>
<path fill="none" stroke="#9a32cd" stroke-dasharray="5,2" d="M165.69,-58.93C170.86,-52.24 177.03,-44.6 183,-38 188.8,-31.59 195.8,-24.84 201.35,-19.69"/>
<polygon fill="#9a32cd" stroke="#9a32cd" points="162.61,-57.2 159.35,-67.28 168.19,-61.43 162.61,-57.2"/>
<text text-anchor="middle" x="205" y="-41" font-family="Helvetica,sans-Serif" font-size="10.00"> cfg_disp</text>
</g>
<!-- Node5 -->
<g id="node5" class="node">
<title>Node5</title>
<g id="a_node5"><a xlink:href="classfw_1_1monitor.html" target="_top" xlink:title=" ">
<polygon fill="white" stroke="black" points="117.5,-134.5 117.5,-153.5 188.5,-153.5 188.5,-134.5 117.5,-134.5"/>
<text text-anchor="middle" x="153" y="-141.5" font-family="Helvetica,sans-Serif" font-size="10.00">fw::monitor</text>
</a>
</g>
</g>
<!-- Node5&#45;&gt;Node4 -->
<g id="edge4" class="edge">
<title>Node5&#45;&gt;Node4</title>
<path fill="none" stroke="#9a32cd" stroke-dasharray="5,2" d="M153,-124.04C153,-111.67 153,-96.12 153,-86.63"/>
<polygon fill="#9a32cd" stroke="#9a32cd" points="149.5,-124.23 153,-134.23 156.5,-124.23 149.5,-124.23"/>
<text text-anchor="middle" x="159.5" y="-108" font-family="Helvetica,sans-Serif" font-size="10.00"> m</text>
</g>
<!-- Node6 -->
<g id="node6" class="node">
<title>Node6</title>
<g id="a_node6"><a xlink:href="classcontrol.html" target="_top" xlink:title=" ">
<polygon fill="white" stroke="black" points="212,-134.5 212,-153.5 262,-153.5 262,-134.5 212,-134.5"/>
<text text-anchor="middle" x="237" y="-141.5" font-family="Helvetica,sans-Serif" font-size="10.00">control</text>
</a>
</g>
</g>
<!-- Node6&#45;&gt;Node1 -->
<g id="edge7" class="edge">
<title>Node6&#45;&gt;Node1</title>
<path fill="none" stroke="#9a32cd" stroke-dasharray="5,2" d="M237.65,-124.29C237.84,-102.9 236.47,-67.07 227,-38 224.84,-31.37 220.84,-24.62 217.38,-19.53"/>
<polygon fill="#9a32cd" stroke="#9a32cd" points="234.15,-124.23 237.43,-134.3 241.15,-124.38 234.15,-124.23"/>
<text text-anchor="middle" x="244" y="-74.5" font-family="Helvetica,sans-Serif" font-size="10.00"> ctl</text>
</g>
<!-- Node6&#45;&gt;Node4 -->
<g id="edge6" class="edge">
<title>Node6&#45;&gt;Node4</title>
<path fill="none" stroke="#9a32cd" stroke-dasharray="5,2" d="M217.7,-128.07C201.12,-115.24 177.79,-97.19 164.15,-86.63"/>
<polygon fill="#9a32cd" stroke="#9a32cd" points="215.62,-130.88 225.67,-134.23 219.9,-125.35 215.62,-130.88"/>
<text text-anchor="middle" x="208" y="-108" font-family="Helvetica,sans-Serif" font-size="10.00"> ctl</text>
</g>
</g>
</svg>
