<?xml version="1.0" encoding="UTF-8" standalone="no"?>
<!DOCTYPE svg PUBLIC "-//W3C//DTD SVG 1.1//EN"
 "http://www.w3.org/Graphics/SVG/1.1/DTD/svg11.dtd">
<!-- Generated by graphviz version 2.43.0 (0)
 -->
<!-- Title: plt::uart_cfg Pages: 1 -->
<svg width="192pt" height="106pt"
 viewBox="0.00 0.00 192.00 106.00" xmlns="http://www.w3.org/2000/svg" xmlns:xlink="http://www.w3.org/1999/xlink">
<g id="graph0" class="graph" transform="scale(1 1) rotate(0) translate(4 102)">
<title>plt::uart_cfg</title>
<polygon fill="white" stroke="transparent" points="-4,4 -4,-102 188,-102 188,4 -4,4"/>
<!-- Node1 -->
<g id="node1" class="node">
<title>Node1</title>
<g id="a_node1"><a xlink:title=" ">
<polygon fill="#bfbfbf" stroke="black" points="57,-0.5 57,-19.5 132,-19.5 132,-0.5 57,-0.5"/>
<text text-anchor="middle" x="94.5" y="-7.5" font-family="Helvetica,sans-Serif" font-size="10.00">plt::uart_cfg</text>
</a>
</g>
</g>
<!-- Node2 -->
<g id="node2" class="node">
<title>Node2</title>
<g id="a_node2"><a xlink:href="namespacefw_1_1drv.html#structfw_1_1drv_1_1pin__cfg" target="_top" xlink:title=" ">
<polygon fill="white" stroke="black" points="0,-78.5 0,-97.5 89,-97.5 89,-78.5 0,-78.5"/>
<text text-anchor="middle" x="44.5" y="-85.5" font-family="Helvetica,sans-Serif" font-size="10.00">fw::drv::pin_cfg</text>
</a>
</g>
</g>
<!-- Node2&#45;&gt;Node1 -->
<g id="edge1" class="edge">
<title>Node2&#45;&gt;Node1</title>
<path fill="none" stroke="#9a32cd" stroke-dasharray="5,2" d="M55.97,-69.57C66.24,-53.95 80.88,-31.7 88.83,-19.62"/>
<polygon fill="#9a32cd" stroke="#9a32cd" points="52.81,-68 50.24,-78.28 58.66,-71.85 52.81,-68"/>
<text text-anchor="middle" x="82" y="-52" font-family="Helvetica,sans-Serif" font-size="10.00"> rx</text>
<text text-anchor="middle" x="82" y="-41" font-family="Helvetica,sans-Serif" font-size="10.00">tx</text>
</g>
<!-- Node3 -->
<g id="node3" class="node">
<title>Node3</title>
<g id="a_node3"><a xlink:href="namespaceplt.html#structplt_1_1dma__cfg" target="_top" xlink:title=" ">
<polygon fill="white" stroke="black" points="107,-78.5 107,-97.5 184,-97.5 184,-78.5 107,-78.5"/>
<text text-anchor="middle" x="145.5" y="-85.5" font-family="Helvetica,sans-Serif" font-size="10.00">plt::dma_cfg</text>
</a>
</g>
</g>
<!-- Node3&#45;&gt;Node1 -->
<g id="edge2" class="edge">
<title>Node3&#45;&gt;Node1</title>
<path fill="none" stroke="#9a32cd" stroke-dasharray="5,2" d="M133.8,-69.57C123.32,-53.95 108.39,-31.7 100.28,-19.62"/>
<polygon fill="#9a32cd" stroke="#9a32cd" points="131.17,-71.93 139.65,-78.28 136.98,-68.03 131.17,-71.93"/>
<text text-anchor="middle" x="145.5" y="-46.5" font-family="Helvetica,sans-Serif" font-size="10.00"> tx_dma</text>
</g>
</g>
</svg>
