<?xml version="1.0" encoding="UTF-8" standalone="no"?>
<!DOCTYPE svg PUBLIC "-//W3C//DTD SVG 1.1//EN"
 "http://www.w3.org/Graphics/SVG/1.1/DTD/svg11.dtd">
<!-- Generated by graphviz version 2.43.0 (0)
 -->
<!-- Title: servio::drv::adc_channel_with_callback&lt; ID &gt; Pages: 1 -->
<svg width="262pt" height="181pt"
 viewBox="0.00 0.00 261.50 181.00" xmlns="http://www.w3.org/2000/svg" xmlns:xlink="http://www.w3.org/1999/xlink">
<g id="graph0" class="graph" transform="scale(1 1) rotate(0) translate(4 177)">
<title>servio::drv::adc_channel_with_callback&lt; ID &gt;</title>
<!-- Node1 -->
<g id="Node000001" class="node">
<title>Node1</title>
<g id="a_Node000001"><a xlink:title=" ">
<polygon fill="#999999" stroke="#666666" points="202,-30 68,-30 68,0 202,0 202,-30"/>
<text text-anchor="start" x="76" y="-18" font-family="Helvetica,sans-Serif" font-size="10.00">servio::drv::adc_channel</text>
<text text-anchor="middle" x="135" y="-7" font-family="Helvetica,sans-Serif" font-size="10.00">_with_callback&lt; ID &gt;</text>
</a>
</g>
</g>
<!-- Node2 -->
<g id="Node000002" class="node">
<title>Node2</title>
<g id="a_Node000002"><a xlink:href="structservio_1_1drv_1_1adc__channel.html" target="_top" xlink:title=" ">
<polygon fill="white" stroke="#666666" points="134,-107 0,-107 0,-77 134,-77 134,-107"/>
<text text-anchor="start" x="8" y="-95" font-family="Helvetica,sans-Serif" font-size="10.00">servio::drv::adc_channel</text>
<text text-anchor="middle" x="67" y="-84" font-family="Helvetica,sans-Serif" font-size="10.00">&lt; ID &gt;</text>
</a>
</g>
</g>
<!-- Node2&#45;&gt;Node1 -->
<g id="edge1_Node000001_Node000002" class="edge">
<title>Node2&#45;&gt;Node1</title>
<g id="a_edge1_Node000001_Node000002"><a xlink:title=" ">
<path fill="none" stroke="#63b8ff" d="M86.53,-69.46C98.02,-56.79 112.22,-41.13 122.27,-30.04"/>
<polygon fill="#63b8ff" stroke="#63b8ff" points="83.91,-67.13 79.79,-76.89 89.1,-71.84 83.91,-67.13"/>
</a>
</g>
</g>
<!-- Node3 -->
<g id="Node000003" class="node">
<title>Node3</title>
<g id="a_Node000003"><a xlink:href="classservio_1_1sntr_1_1sentry.html" target="_top" xlink:title=" ">
<polygon fill="white" stroke="#666666" points="121,-173 13,-173 13,-154 121,-154 121,-173"/>
<text text-anchor="middle" x="67" y="-161" font-family="Helvetica,sans-Serif" font-size="10.00">servio::sntr::sentry</text>
</a>
</g>
</g>
<!-- Node3&#45;&gt;Node2 -->
<g id="edge2_Node000002_Node000003" class="edge">
<title>Node3&#45;&gt;Node2</title>
<g id="a_edge2_Node000002_Node000003"><a xlink:title=" ">
<path fill="none" stroke="#9a32cd" stroke-dasharray="5,2" d="M67,-143.71C67,-132.19 67,-117.68 67,-107.14"/>
<polygon fill="#9a32cd" stroke="#9a32cd" points="63.5,-143.98 67,-153.98 70.5,-143.98 63.5,-143.98"/>
</a>
</g>
<text text-anchor="middle" x="87" y="-128" font-family="Helvetica,sans-Serif" font-size="10.00" fill="grey"> sentry_</text>
</g>
<!-- Node4 -->
<g id="Node000004" class="node">
<title>Node4</title>
<g id="a_Node000004"><a xlink:href="structservio_1_1drv_1_1value__cb__iface.html" target="_top" xlink:title=" ">
<polygon fill="white" stroke="#666666" points="253.5,-107 152.5,-107 152.5,-77 253.5,-77 253.5,-107"/>
<text text-anchor="start" x="160.5" y="-95" font-family="Helvetica,sans-Serif" font-size="10.00">servio::drv::value</text>
<text text-anchor="middle" x="203" y="-84" font-family="Helvetica,sans-Serif" font-size="10.00">_cb_iface</text>
</a>
</g>
</g>
<!-- Node4&#45;&gt;Node1 -->
<g id="edge3_Node000001_Node000004" class="edge">
<title>Node4&#45;&gt;Node1</title>
<g id="a_edge3_Node000001_Node000004"><a xlink:title=" ">
<path fill="none" stroke="#9a32cd" stroke-dasharray="5,2" d="M183.47,-69.46C171.98,-56.79 157.78,-41.13 147.73,-30.04"/>
<polygon fill="#9a32cd" stroke="#9a32cd" points="180.9,-71.84 190.21,-76.89 186.09,-67.13 180.9,-71.84"/>
</a>
</g>
<text text-anchor="middle" x="195" y="-51" font-family="Helvetica,sans-Serif" font-size="10.00" fill="grey"> callback</text>
</g>
</g>
</svg>
