<?xml version="1.0" encoding="UTF-8" standalone="no"?>
<!DOCTYPE svg PUBLIC "-//W3C//DTD SVG 1.1//EN"
 "http://www.w3.org/Graphics/SVG/1.1/DTD/svg11.dtd">
<!-- Generated by graphviz version 2.43.0 (0)
 -->
<!-- Title: servio::core::standard_callbacks Pages: 1 -->
<svg width="306pt" height="174pt"
 viewBox="0.00 0.00 305.50 174.00" xmlns="http://www.w3.org/2000/svg" xmlns:xlink="http://www.w3.org/1999/xlink">
<g id="graph0" class="graph" transform="scale(1 1) rotate(0) translate(4 170)">
<title>servio::core::standard_callbacks</title>
<polygon fill="white" stroke="transparent" points="-4,4 -4,-170 301.5,-170 301.5,4 -4,4"/>
<!-- Node1 -->
<g id="node1" class="node">
<title>Node1</title>
<g id="a_node1"><a xlink:title=" ">
<polygon fill="#bfbfbf" stroke="black" points="83,-0.5 83,-30.5 205,-30.5 205,-0.5 83,-0.5"/>
<text text-anchor="start" x="91" y="-18.5" font-family="Helvetica,sans-Serif" font-size="10.00">servio::core::standard</text>
<text text-anchor="middle" x="144" y="-7.5" font-family="Helvetica,sans-Serif" font-size="10.00">_callbacks</text>
</a>
</g>
</g>
<!-- Node2 -->
<g id="node2" class="node">
<title>Node2</title>
<g id="a_node2"><a xlink:href="classservio_1_1core_1_1position__callback.html" target="_top" xlink:title=" ">
<polygon fill="white" stroke="black" points="17.5,-78.5 17.5,-108.5 136.5,-108.5 136.5,-78.5 17.5,-78.5"/>
<text text-anchor="start" x="25.5" y="-96.5" font-family="Helvetica,sans-Serif" font-size="10.00">servio::core::position</text>
<text text-anchor="middle" x="77" y="-85.5" font-family="Helvetica,sans-Serif" font-size="10.00">_callback</text>
</a>
</g>
</g>
<!-- Node2&#45;&gt;Node1 -->
<g id="edge1" class="edge">
<title>Node2&#45;&gt;Node1</title>
<path fill="none" stroke="#9a32cd" stroke-dasharray="5,2" d="M96.24,-70.67C107.56,-57.83 121.55,-41.97 131.45,-30.73"/>
<polygon fill="#9a32cd" stroke="#9a32cd" points="93.59,-68.39 89.6,-78.2 98.84,-73.02 93.59,-68.39"/>
<text text-anchor="middle" x="133.5" y="-52" font-family="Helvetica,sans-Serif" font-size="10.00"> pos_cb</text>
</g>
<!-- Node3 -->
<g id="node3" class="node">
<title>Node3</title>
<g id="a_node3"><a xlink:href="classservio_1_1drv_1_1value__cb__interface.html" target="_top" xlink:title=" ">
<polygon fill="white" stroke="black" points="0,-146.5 0,-165.5 142,-165.5 142,-146.5 0,-146.5"/>
<text text-anchor="middle" x="71" y="-153.5" font-family="Helvetica,sans-Serif" font-size="10.00">drv::position_cb_interface</text>
</a>
</g>
</g>
<!-- Node3&#45;&gt;Node2 -->
<g id="edge2" class="edge">
<title>Node3&#45;&gt;Node2</title>
<path fill="none" stroke="midnightblue" d="M72.86,-136.22C73.74,-127.36 74.77,-116.96 75.59,-108.76"/>
<polygon fill="midnightblue" stroke="midnightblue" points="69.36,-136.04 71.86,-146.33 76.33,-136.73 69.36,-136.04"/>
</g>
<!-- Node4 -->
<g id="node4" class="node">
<title>Node4</title>
<g id="a_node4"><a xlink:href="classservio_1_1core_1_1current__callback.html" target="_top" xlink:title=" ">
<polygon fill="white" stroke="black" points="166,-78.5 166,-108.5 280,-108.5 280,-78.5 166,-78.5"/>
<text text-anchor="start" x="174" y="-96.5" font-family="Helvetica,sans-Serif" font-size="10.00">servio::core::current</text>
<text text-anchor="middle" x="223" y="-85.5" font-family="Helvetica,sans-Serif" font-size="10.00">_callback</text>
</a>
</g>
</g>
<!-- Node4&#45;&gt;Node1 -->
<g id="edge3" class="edge">
<title>Node4&#45;&gt;Node1</title>
<path fill="none" stroke="#9a32cd" stroke-dasharray="5,2" d="M200.69,-71.03C187.27,-58.13 170.58,-42.07 158.79,-30.73"/>
<polygon fill="#9a32cd" stroke="#9a32cd" points="198.51,-73.79 208.14,-78.2 203.36,-68.75 198.51,-73.79"/>
<text text-anchor="middle" x="216.5" y="-52" font-family="Helvetica,sans-Serif" font-size="10.00"> current_cb</text>
</g>
<!-- Node5 -->
<g id="node5" class="node">
<title>Node5</title>
<g id="a_node5"><a xlink:href="classservio_1_1drv_1_1adc__detailed__cb__interface.html" target="_top" xlink:title=" ">
<polygon fill="white" stroke="black" points="160.5,-146.5 160.5,-165.5 297.5,-165.5 297.5,-146.5 160.5,-146.5"/>
<text text-anchor="middle" x="229" y="-153.5" font-family="Helvetica,sans-Serif" font-size="10.00">drv::current_cb_interface</text>
</a>
</g>
</g>
<!-- Node5&#45;&gt;Node4 -->
<g id="edge4" class="edge">
<title>Node5&#45;&gt;Node4</title>
<path fill="none" stroke="midnightblue" d="M227.14,-136.22C226.26,-127.36 225.23,-116.96 224.41,-108.76"/>
<polygon fill="midnightblue" stroke="midnightblue" points="223.67,-136.73 228.14,-146.33 230.64,-136.04 223.67,-136.73"/>
</g>
</g>
</svg>
