<?xml version="1.0" encoding="UTF-8" standalone="no"?>
<!DOCTYPE svg PUBLIC "-//W3C//DTD SVG 1.1//EN"
 "http://www.w3.org/Graphics/SVG/1.1/DTD/svg11.dtd">
<!-- Generated by graphviz version 2.43.0 (0)
 -->
<!-- Title: servio::scmdio::port_iface Pages: 1 -->
<svg width="472pt" height="93pt"
 viewBox="0.00 0.00 472.00 93.00" xmlns="http://www.w3.org/2000/svg" xmlns:xlink="http://www.w3.org/1999/xlink">
<g id="graph0" class="graph" transform="scale(1 1) rotate(0) translate(4 89)">
<title>servio::scmdio::port_iface</title>
<!-- Node1 -->
<g id="Node000001" class="node">
<title>Node1</title>
<g id="a_Node000001"><a xlink:title=" ">
<polygon fill="#999999" stroke="#666666" points="285.5,-85 172.5,-85 172.5,-55 285.5,-55 285.5,-85"/>
<text text-anchor="start" x="180.5" y="-73" font-family="Helvetica,sans-Serif" font-size="10.00">servio::scmdio::port</text>
<text text-anchor="middle" x="229" y="-62" font-family="Helvetica,sans-Serif" font-size="10.00">_iface</text>
</a>
</g>
</g>
<!-- Node2 -->
<g id="Node000002" class="node">
<title>Node2</title>
<g id="a_Node000002"><a xlink:href="structservio_1_1scmdio_1_1char__port.html" target="_top" xlink:title=" ">
<polygon fill="white" stroke="#666666" points="140,-19 0,-19 0,0 140,0 140,-19"/>
<text text-anchor="middle" x="70" y="-7" font-family="Helvetica,sans-Serif" font-size="10.00">servio::scmdio::char_port</text>
</a>
</g>
</g>
<!-- Node1&#45;&gt;Node2 -->
<g id="edge1_Node000001_Node000002" class="edge">
<title>Node1&#45;&gt;Node2</title>
<g id="a_edge1_Node000001_Node000002"><a xlink:title=" ">
<path fill="none" stroke="#63b8ff" d="M181.36,-51.47C152.34,-40.79 116.53,-27.62 93.48,-19.14"/>
<polygon fill="#63b8ff" stroke="#63b8ff" points="180.32,-54.82 190.92,-54.99 182.74,-48.25 180.32,-54.82"/>
</a>
</g>
</g>
<!-- Node3 -->
<g id="Node000003" class="node">
<title>Node3</title>
<g id="a_Node000003"><a xlink:href="structservio_1_1scmdio_1_1cobs__port.html" target="_top" xlink:title=" ">
<polygon fill="white" stroke="#666666" points="299.5,-19 158.5,-19 158.5,0 299.5,0 299.5,-19"/>
<text text-anchor="middle" x="229" y="-7" font-family="Helvetica,sans-Serif" font-size="10.00">servio::scmdio::cobs_port</text>
</a>
</g>
</g>
<!-- Node1&#45;&gt;Node3 -->
<g id="edge2_Node000001_Node000003" class="edge">
<title>Node1&#45;&gt;Node3</title>
<g id="a_edge2_Node000001_Node000003"><a xlink:title=" ">
<path fill="none" stroke="#63b8ff" d="M229,-44.75C229,-35.72 229,-26.03 229,-19.27"/>
<polygon fill="#63b8ff" stroke="#63b8ff" points="225.5,-44.84 229,-54.84 232.5,-44.84 225.5,-44.84"/>
</a>
</g>
</g>
<!-- Node4 -->
<g id="Node000004" class="node">
<title>Node4</title>
<g id="a_Node000004"><a xlink:href="structservio_1_1scmdio_1_1port__mock.html" target="_top" xlink:title=" ">
<polygon fill="white" stroke="#666666" points="464,-19 318,-19 318,0 464,0 464,-19"/>
<text text-anchor="middle" x="391" y="-7" font-family="Helvetica,sans-Serif" font-size="10.00">servio::scmdio::port_mock</text>
</a>
</g>
</g>
<!-- Node1&#45;&gt;Node4 -->
<g id="edge3_Node000001_Node000004" class="edge">
<title>Node1&#45;&gt;Node4</title>
<g id="a_edge3_Node000001_Node000004"><a xlink:title=" ">
<path fill="none" stroke="#63b8ff" d="M277.54,-51.47C307.11,-40.79 343.6,-27.62 367.08,-19.14"/>
<polygon fill="#63b8ff" stroke="#63b8ff" points="276.02,-48.3 267.8,-54.99 278.4,-54.88 276.02,-48.3"/>
</a>
</g>
</g>
</g>
</svg>
