<?xml version="1.0" encoding="UTF-8" standalone="no"?>
<!DOCTYPE svg PUBLIC "-//W3C//DTD SVG 1.1//EN"
 "http://www.w3.org/Graphics/SVG/1.1/DTD/svg11.dtd">
<!-- Generated by graphviz version 2.43.0 (0)
 -->
<!-- Title: servio::core::drivers Pages: 1 -->
<svg width="503pt" height="480pt"
 viewBox="0.00 0.00 503.00 480.00" xmlns="http://www.w3.org/2000/svg" xmlns:xlink="http://www.w3.org/1999/xlink">
<g id="graph0" class="graph" transform="scale(1 1) rotate(0) translate(4 476)">
<title>servio::core::drivers</title>
<!-- Node1 -->
<g id="Node000001" class="node">
<title>Node1</title>
<g id="a_Node000001"><a xlink:title=" ">
<polygon fill="#999999" stroke="#666666" points="495,-256 382,-256 382,-237 495,-237 495,-256"/>
<text text-anchor="middle" x="438.5" y="-244" font-family="Helvetica,sans-Serif" font-size="10.00">servio::core::drivers</text>
</a>
</g>
</g>
<!-- Node2 -->
<g id="Node000002" class="node">
<title>Node2</title>
<g id="a_Node000002"><a xlink:href="namespaceservio_1_1cfg.html#structservio_1_1cfg_1_1context" target="_top" xlink:title=" ">
<polygon fill="white" stroke="#666666" points="271,-472 161,-472 161,-453 271,-453 271,-472"/>
<text text-anchor="middle" x="216" y="-460" font-family="Helvetica,sans-Serif" font-size="10.00">servio::cfg::context</text>
</a>
</g>
</g>
<!-- Node2&#45;&gt;Node1 -->
<g id="edge1_Node000001_Node000002" class="edge">
<title>Node2&#45;&gt;Node1</title>
<g id="a_edge1_Node000001_Node000002"><a xlink:title=" ">
<path fill="none" stroke="#9a32cd" stroke-dasharray="5,2" d="M281.27,-457.65C309.46,-452.58 341.25,-442.47 364,-422.5 416.76,-376.19 432.54,-285.88 436.41,-256.21"/>
<polygon fill="#9a32cd" stroke="#9a32cd" points="280.38,-454.25 271.06,-459.3 281.49,-461.16 280.38,-454.25"/>
</a>
</g>
<text text-anchor="middle" x="332" y="-455.5" font-family="Helvetica,sans-Serif" font-size="10.00" fill="grey"> cfg</text>
</g>
<!-- Node3 -->
<g id="Node000003" class="node">
<title>Node3</title>
<g id="a_Node000003"><a xlink:href="structservio_1_1drv_1_1storage__iface.html" target="_top" xlink:title=" ">
<polygon fill="white" stroke="#666666" points="271,-434.5 161,-434.5 161,-404.5 271,-404.5 271,-434.5"/>
<text text-anchor="start" x="169" y="-422.5" font-family="Helvetica,sans-Serif" font-size="10.00">servio::drv::storage</text>
<text text-anchor="middle" x="216" y="-411.5" font-family="Helvetica,sans-Serif" font-size="10.00">_iface</text>
</a>
</g>
</g>
<!-- Node3&#45;&gt;Node1 -->
<g id="edge2_Node000001_Node000003" class="edge">
<title>Node3&#45;&gt;Node1</title>
<g id="a_edge2_Node000001_Node000003"><a xlink:title=" ">
<path fill="none" stroke="#9a32cd" stroke-dasharray="5,2" d="M281.27,-412.77C309.03,-407.21 340.46,-397.05 364,-378.5 406.23,-345.22 427.96,-280.59 434.94,-256.17"/>
<polygon fill="#9a32cd" stroke="#9a32cd" points="280.43,-409.37 271.23,-414.62 281.7,-416.25 280.43,-409.37"/>
</a>
</g>
<text text-anchor="middle" x="332" y="-410.5" font-family="Helvetica,sans-Serif" font-size="10.00" fill="grey"> storage</text>
</g>
<!-- Node4 -->
<g id="Node000004" class="node">
<title>Node4</title>
<g id="a_Node000004"><a xlink:href="structservio_1_1drv_1_1clk__iface.html" target="_top" xlink:title=" ">
<polygon fill="white" stroke="#666666" points="274.5,-386 157.5,-386 157.5,-367 274.5,-367 274.5,-386"/>
<text text-anchor="middle" x="216" y="-374" font-family="Helvetica,sans-Serif" font-size="10.00">servio::drv::clk_iface</text>
</a>
</g>
</g>
<!-- Node4&#45;&gt;Node1 -->
<g id="edge3_Node000001_Node000004" class="edge">
<title>Node4&#45;&gt;Node1</title>
<g id="a_edge3_Node000001_Node000004"><a xlink:title=" ">
<path fill="none" stroke="#9a32cd" stroke-dasharray="5,2" d="M284.48,-368.43C310.85,-362.96 340.36,-353.81 364,-338.5 397.29,-316.94 422.33,-275.22 432.51,-256.28"/>
<polygon fill="#9a32cd" stroke="#9a32cd" points="283.7,-365.01 274.55,-370.35 285.03,-371.89 283.7,-365.01"/>
</a>
</g>
<text text-anchor="middle" x="332" y="-366.5" font-family="Helvetica,sans-Serif" font-size="10.00" fill="grey"> clock</text>
</g>
<!-- Node5 -->
<g id="Node000005" class="node">
<title>Node5</title>
<g id="a_Node000005"><a xlink:href="structservio_1_1drv_1_1pos__iface.html" target="_top" xlink:title=" ">
<polygon fill="white" stroke="#666666" points="276,-349 156,-349 156,-330 276,-330 276,-349"/>
<text text-anchor="middle" x="216" y="-337" font-family="Helvetica,sans-Serif" font-size="10.00">servio::drv::pos_iface</text>
</a>
</g>
</g>
<!-- Node5&#45;&gt;Node1 -->
<g id="edge4_Node000001_Node000005" class="edge">
<title>Node5&#45;&gt;Node1</title>
<g id="a_edge4_Node000001_Node000005"><a xlink:title=" ">
<path fill="none" stroke="#9a32cd" stroke-dasharray="5,2" d="M284.99,-327.72C310.54,-321.82 339.35,-313.34 364,-301.5 389,-289.5 413.97,-268.4 427.4,-256.12"/>
<polygon fill="#9a32cd" stroke="#9a32cd" points="284.01,-324.36 275.01,-329.94 285.53,-331.19 284.01,-324.36"/>
</a>
</g>
<text text-anchor="middle" x="332" y="-326.5" font-family="Helvetica,sans-Serif" font-size="10.00" fill="grey"> position</text>
</g>
<!-- Node6 -->
<g id="Node000006" class="node">
<title>Node6</title>
<g id="a_Node000006"><a xlink:href="structservio_1_1drv_1_1get__pos__iface.html" target="_top" xlink:title=" ">
<polygon fill="white" stroke="#666666" points="112.5,-359.5 0.5,-359.5 0.5,-329.5 112.5,-329.5 112.5,-359.5"/>
<text text-anchor="start" x="8.5" y="-347.5" font-family="Helvetica,sans-Serif" font-size="10.00">servio::drv::get_pos</text>
<text text-anchor="middle" x="56.5" y="-336.5" font-family="Helvetica,sans-Serif" font-size="10.00">_iface</text>
</a>
</g>
</g>
<!-- Node6&#45;&gt;Node5 -->
<g id="edge5_Node000005_Node000006" class="edge">
<title>Node6&#45;&gt;Node5</title>
<g id="a_edge5_Node000005_Node000006"><a xlink:title=" ">
<path fill="none" stroke="#63b8ff" d="M122.6,-342.43C133.64,-342.08 145.05,-341.72 155.93,-341.38"/>
<polygon fill="#63b8ff" stroke="#63b8ff" points="122.47,-338.94 112.59,-342.75 122.69,-345.93 122.47,-338.94"/>
</a>
</g>
</g>
<!-- Node7 -->
<g id="Node000007" class="node">
<title>Node7</title>
<g id="a_Node000007"><a xlink:href="structservio_1_1drv_1_1curr__iface.html" target="_top" xlink:title=" ">
<polygon fill="white" stroke="#666666" points="277,-312 155,-312 155,-293 277,-293 277,-312"/>
<text text-anchor="middle" x="216" y="-300" font-family="Helvetica,sans-Serif" font-size="10.00">servio::drv::curr_iface</text>
</a>
</g>
</g>
<!-- Node7&#45;&gt;Node1 -->
<g id="edge6_Node000001_Node000007" class="edge">
<title>Node7&#45;&gt;Node1</title>
<g id="a_edge6_Node000001_Node000007"><a xlink:title=" ">
<path fill="none" stroke="#9a32cd" stroke-dasharray="5,2" d="M282.87,-291.08C308.4,-286.13 337.74,-279.79 364,-272.5 380.69,-267.87 399.07,-261.37 413.27,-256.03"/>
<polygon fill="#9a32cd" stroke="#9a32cd" points="282.09,-287.66 272.93,-292.98 283.41,-294.54 282.09,-287.66"/>
</a>
</g>
<text text-anchor="middle" x="332" y="-289.5" font-family="Helvetica,sans-Serif" font-size="10.00" fill="grey"> current</text>
</g>
<!-- Node8 -->
<g id="Node000008" class="node">
<title>Node8</title>
<g id="a_Node000008"><a xlink:href="structservio_1_1drv_1_1get__curr__iface.html" target="_top" xlink:title=" ">
<polygon fill="white" stroke="#666666" points="113,-311.5 0,-311.5 0,-281.5 113,-281.5 113,-311.5"/>
<text text-anchor="start" x="8" y="-299.5" font-family="Helvetica,sans-Serif" font-size="10.00">servio::drv::get_curr</text>
<text text-anchor="middle" x="56.5" y="-288.5" font-family="Helvetica,sans-Serif" font-size="10.00">_iface</text>
</a>
</g>
</g>
<!-- Node8&#45;&gt;Node7 -->
<g id="edge7_Node000007_Node000008" class="edge">
<title>Node8&#45;&gt;Node7</title>
<g id="a_edge7_Node000007_Node000008"><a xlink:title=" ">
<path fill="none" stroke="#63b8ff" d="M123.03,-299C133.58,-299.4 144.47,-299.81 154.89,-300.21"/>
<polygon fill="#63b8ff" stroke="#63b8ff" points="123.15,-295.5 113.03,-298.62 122.89,-302.49 123.15,-295.5"/>
</a>
</g>
</g>
<!-- Node9 -->
<g id="Node000009" class="node">
<title>Node9</title>
<g id="a_Node000009"><a xlink:href="structservio_1_1drv_1_1vcc__iface.html" target="_top" xlink:title=" ">
<polygon fill="white" stroke="#666666" points="275.5,-275 156.5,-275 156.5,-256 275.5,-256 275.5,-275"/>
<text text-anchor="middle" x="216" y="-263" font-family="Helvetica,sans-Serif" font-size="10.00">servio::drv::vcc_iface</text>
</a>
</g>
</g>
<!-- Node9&#45;&gt;Node1 -->
<g id="edge8_Node000001_Node000009" class="edge">
<title>Node9&#45;&gt;Node1</title>
<g id="a_edge8_Node000001_Node000009"><a xlink:title=" ">
<path fill="none" stroke="#9a32cd" stroke-dasharray="5,2" d="M285.77,-259.57C316.64,-256.91 352.6,-253.82 381.76,-251.3"/>
<polygon fill="#9a32cd" stroke="#9a32cd" points="285.17,-256.11 275.51,-260.46 285.77,-263.09 285.17,-256.11"/>
</a>
</g>
<text text-anchor="middle" x="332" y="-260.5" font-family="Helvetica,sans-Serif" font-size="10.00" fill="grey"> vcc</text>
</g>
<!-- Node10 -->
<g id="Node000010" class="node">
<title>Node10</title>
<g id="a_Node000010"><a xlink:href="structservio_1_1drv_1_1temp__iface.html" target="_top" xlink:title=" ">
<polygon fill="white" stroke="#666666" points="280,-238 152,-238 152,-219 280,-219 280,-238"/>
<text text-anchor="middle" x="216" y="-226" font-family="Helvetica,sans-Serif" font-size="10.00">servio::drv::temp_iface</text>
</a>
</g>
</g>
<!-- Node10&#45;&gt;Node1 -->
<g id="edge9_Node000001_Node000010" class="edge">
<title>Node10&#45;&gt;Node1</title>
<g id="a_edge9_Node000001_Node000010"><a xlink:title=" ">
<path fill="none" stroke="#9a32cd" stroke-dasharray="5,2" d="M290.37,-228.18C313.94,-228.69 340.12,-229.92 364,-232.5 373.69,-233.55 384.01,-235.18 393.76,-236.97"/>
<polygon fill="#9a32cd" stroke="#9a32cd" points="290.16,-224.67 280.1,-227.99 290.04,-231.67 290.16,-224.67"/>
</a>
</g>
<text text-anchor="middle" x="332" y="-235.5" font-family="Helvetica,sans-Serif" font-size="10.00" fill="grey"> temperature</text>
</g>
<!-- Node11 -->
<g id="Node000011" class="node">
<title>Node11</title>
<g id="a_Node000011"><a xlink:href="structservio_1_1drv_1_1period__cb__iface.html" target="_top" xlink:title=" ">
<polygon fill="white" stroke="#666666" points="268,-200.5 164,-200.5 164,-170.5 268,-170.5 268,-200.5"/>
<text text-anchor="start" x="172" y="-188.5" font-family="Helvetica,sans-Serif" font-size="10.00">servio::drv::period</text>
<text text-anchor="middle" x="216" y="-177.5" font-family="Helvetica,sans-Serif" font-size="10.00">_cb_iface</text>
</a>
</g>
</g>
<!-- Node11&#45;&gt;Node1 -->
<g id="edge10_Node000001_Node000011" class="edge">
<title>Node11&#45;&gt;Node1</title>
<g id="a_edge10_Node000001_Node000011"><a xlink:title=" ">
<path fill="none" stroke="#9a32cd" stroke-dasharray="5,2" d="M278.06,-193.85C304.8,-198.34 336.31,-204.78 364,-213.5 383.48,-219.63 404.65,-229.51 419.24,-236.86"/>
<polygon fill="#9a32cd" stroke="#9a32cd" points="278.5,-190.37 268.07,-192.22 277.38,-197.28 278.5,-190.37"/>
</a>
</g>
<text text-anchor="middle" x="332" y="-216.5" font-family="Helvetica,sans-Serif" font-size="10.00" fill="grey"> period_cb</text>
</g>
<!-- Node12 -->
<g id="Node000012" class="node">
<title>Node12</title>
<g id="a_Node000012"><a xlink:href="structservio_1_1drv_1_1pwm__motor__iface.html" target="_top" xlink:title=" ">
<polygon fill="white" stroke="#666666" points="282,-152.5 150,-152.5 150,-122.5 282,-122.5 282,-152.5"/>
<text text-anchor="start" x="158" y="-140.5" font-family="Helvetica,sans-Serif" font-size="10.00">servio::drv::pwm_motor</text>
<text text-anchor="middle" x="216" y="-129.5" font-family="Helvetica,sans-Serif" font-size="10.00">_iface</text>
</a>
</g>
</g>
<!-- Node12&#45;&gt;Node1 -->
<g id="edge11_Node000001_Node000012" class="edge">
<title>Node12&#45;&gt;Node1</title>
<g id="a_edge11_Node000001_Node000012"><a xlink:title=" ">
<path fill="none" stroke="#9a32cd" stroke-dasharray="5,2" d="M292.05,-153.92C315.91,-160.84 341.85,-170.2 364,-182.5 390.63,-197.28 416.15,-222.92 428.95,-236.84"/>
<polygon fill="#9a32cd" stroke="#9a32cd" points="292.89,-150.52 282.32,-151.2 291,-157.27 292.89,-150.52"/>
</a>
</g>
<text text-anchor="middle" x="332" y="-185.5" font-family="Helvetica,sans-Serif" font-size="10.00" fill="grey"> motor</text>
</g>
<!-- Node13 -->
<g id="Node000013" class="node">
<title>Node13</title>
<g id="a_Node000013"><a xlink:href="structservio_1_1drv_1_1motor__info__iface.html" target="_top" xlink:title=" ">
<polygon fill="white" stroke="#666666" points="108,-152.5 5,-152.5 5,-122.5 108,-122.5 108,-152.5"/>
<text text-anchor="start" x="13" y="-140.5" font-family="Helvetica,sans-Serif" font-size="10.00">servio::drv::motor</text>
<text text-anchor="middle" x="56.5" y="-129.5" font-family="Helvetica,sans-Serif" font-size="10.00">_info_iface</text>
</a>
</g>
</g>
<!-- Node13&#45;&gt;Node12 -->
<g id="edge12_Node000012_Node000013" class="edge">
<title>Node13&#45;&gt;Node12</title>
<g id="a_edge12_Node000012_Node000013"><a xlink:title=" ">
<path fill="none" stroke="#63b8ff" d="M118.38,-137.5C128.74,-137.5 139.53,-137.5 149.99,-137.5"/>
<polygon fill="#63b8ff" stroke="#63b8ff" points="118.2,-134 108.2,-137.5 118.2,-141 118.2,-134"/>
</a>
</g>
</g>
<!-- Node14 -->
<g id="Node000014" class="node">
<title>Node14</title>
<g id="a_Node000014"><a xlink:href="structservio_1_1drv_1_1period__iface.html" target="_top" xlink:title=" ">
<polygon fill="white" stroke="#666666" points="268,-104.5 164,-104.5 164,-74.5 268,-74.5 268,-104.5"/>
<text text-anchor="start" x="172" y="-92.5" font-family="Helvetica,sans-Serif" font-size="10.00">servio::drv::period</text>
<text text-anchor="middle" x="216" y="-81.5" font-family="Helvetica,sans-Serif" font-size="10.00">_iface</text>
</a>
</g>
</g>
<!-- Node14&#45;&gt;Node1 -->
<g id="edge13_Node000001_Node000014" class="edge">
<title>Node14&#45;&gt;Node1</title>
<g id="a_edge13_Node000001_Node000014"><a xlink:title=" ">
<path fill="none" stroke="#9a32cd" stroke-dasharray="5,2" d="M277.84,-101.94C306.06,-109.88 338.84,-122.37 364,-141.5 399.07,-168.16 423.86,-216.39 433.29,-236.88"/>
<polygon fill="#9a32cd" stroke="#9a32cd" points="278.64,-98.53 268.07,-99.32 276.82,-105.29 278.64,-98.53"/>
</a>
</g>
<text text-anchor="middle" x="332" y="-144.5" font-family="Helvetica,sans-Serif" font-size="10.00" fill="grey"> period</text>
</g>
<!-- Node15 -->
<g id="Node000015" class="node">
<title>Node15</title>
<g id="a_Node000015"><a xlink:href="structservio_1_1drv_1_1com__iface.html" target="_top" xlink:title=" ">
<polygon fill="white" stroke="#666666" points="278,-56 154,-56 154,-37 278,-37 278,-56"/>
<text text-anchor="middle" x="216" y="-44" font-family="Helvetica,sans-Serif" font-size="10.00">servio::drv::com_iface</text>
</a>
</g>
</g>
<!-- Node15&#45;&gt;Node1 -->
<g id="edge14_Node000001_Node000015" class="edge">
<title>Node15&#45;&gt;Node1</title>
<g id="a_edge14_Node000001_Node000015"><a xlink:title=" ">
<path fill="none" stroke="#9a32cd" stroke-dasharray="5,2" d="M288.12,-57.26C314.45,-64.23 342.98,-75.68 364,-94.5 409.43,-135.17 429.56,-210.09 435.51,-236.76"/>
<polygon fill="#9a32cd" stroke="#9a32cd" points="288.7,-53.8 278.15,-54.8 287.02,-60.59 288.7,-53.8"/>
</a>
</g>
<text text-anchor="middle" x="332" y="-97.5" font-family="Helvetica,sans-Serif" font-size="10.00" fill="grey"> comms</text>
</g>
<!-- Node16 -->
<g id="Node000016" class="node">
<title>Node16</title>
<g id="a_Node000016"><a xlink:href="structservio_1_1drv_1_1leds__iface.html" target="_top" xlink:title=" ">
<polygon fill="white" stroke="#666666" points="277.5,-19 154.5,-19 154.5,0 277.5,0 277.5,-19"/>
<text text-anchor="middle" x="216" y="-7" font-family="Helvetica,sans-Serif" font-size="10.00">servio::drv::leds_iface</text>
</a>
</g>
</g>
<!-- Node16&#45;&gt;Node1 -->
<g id="edge15_Node000001_Node000016" class="edge">
<title>Node16&#45;&gt;Node1</title>
<g id="a_edge15_Node000001_Node000016"><a xlink:title=" ">
<path fill="none" stroke="#9a32cd" stroke-dasharray="5,2" d="M287.6,-13.45C314.27,-18.22 343.18,-27.77 364,-46.5 423.13,-99.69 434.78,-204.61 437,-236.85"/>
<polygon fill="#9a32cd" stroke="#9a32cd" points="287.93,-9.96 277.5,-11.85 286.83,-16.87 287.93,-9.96"/>
</a>
</g>
<text text-anchor="middle" x="332" y="-49.5" font-family="Helvetica,sans-Serif" font-size="10.00" fill="grey"> leds</text>
</g>
</g>
</svg>
