<?xml version="1.0" encoding="UTF-8" standalone="no"?>
<!DOCTYPE svg PUBLIC "-//W3C//DTD SVG 1.1//EN"
 "http://www.w3.org/Graphics/SVG/1.1/DTD/svg11.dtd">
<!-- Generated by graphviz version 2.43.0 (0)
 -->
<!-- Title: servio::scmdio::port_mock Pages: 1 -->
<svg width="563pt" height="369pt"
 viewBox="0.00 0.00 563.00 368.50" xmlns="http://www.w3.org/2000/svg" xmlns:xlink="http://www.w3.org/1999/xlink">
<g id="graph0" class="graph" transform="scale(1 1) rotate(0) translate(4 364.5)">
<title>servio::scmdio::port_mock</title>
<!-- Node1 -->
<g id="Node000001" class="node">
<title>Node1</title>
<g id="a_Node000001"><a xlink:title=" ">
<polygon fill="#999999" stroke="#666666" points="555,-179 409,-179 409,-160 555,-160 555,-179"/>
<text text-anchor="middle" x="482" y="-167" font-family="Helvetica,sans-Serif" font-size="10.00">servio::scmdio::port_mock</text>
</a>
</g>
</g>
<!-- Node2 -->
<g id="Node000002" class="node">
<title>Node2</title>
<g id="a_Node000002"><a xlink:href="structservio_1_1scmdio_1_1port__iface.html" target="_top" xlink:title=" ">
<polygon fill="white" stroke="#666666" points="342,-232.5 229,-232.5 229,-202.5 342,-202.5 342,-232.5"/>
<text text-anchor="start" x="237" y="-220.5" font-family="Helvetica,sans-Serif" font-size="10.00">servio::scmdio::port</text>
<text text-anchor="middle" x="285.5" y="-209.5" font-family="Helvetica,sans-Serif" font-size="10.00">_iface</text>
</a>
</g>
</g>
<!-- Node2&#45;&gt;Node1 -->
<g id="edge1_Node000001_Node000002" class="edge">
<title>Node2&#45;&gt;Node1</title>
<g id="a_edge1_Node000001_Node000002"><a xlink:title=" ">
<path fill="none" stroke="#63b8ff" d="M352.19,-201.29C382.11,-193.9 416.51,-185.42 442.22,-179.07"/>
<polygon fill="#63b8ff" stroke="#63b8ff" points="351.11,-197.95 342.24,-203.75 352.78,-204.75 351.11,-197.95"/>
</a>
</g>
</g>
<!-- Node3 -->
<g id="Node000003" class="node">
<title>Node3</title>
<g id="a_Node000003"><a xlink:href="structservio_1_1scmdio_1_1port__mock.html#structservio_1_1scmdio_1_1port__mock_1_1attrs" target="_top" xlink:title=" ">
<polygon fill="white" stroke="#666666" points="342,-184.5 229,-184.5 229,-154.5 342,-154.5 342,-184.5"/>
<text text-anchor="start" x="237" y="-172.5" font-family="Helvetica,sans-Serif" font-size="10.00">servio::scmdio::port</text>
<text text-anchor="middle" x="285.5" y="-161.5" font-family="Helvetica,sans-Serif" font-size="10.00">_mock::attrs</text>
</a>
</g>
</g>
<!-- Node3&#45;&gt;Node1 -->
<g id="edge2_Node000001_Node000003" class="edge">
<title>Node3&#45;&gt;Node1</title>
<g id="a_edge2_Node000001_Node000003"><a xlink:title=" ">
<path fill="none" stroke="#9a32cd" stroke-dasharray="5,2" d="M352.43,-169.5C370.6,-169.5 390.41,-169.5 408.91,-169.5"/>
<polygon fill="#9a32cd" stroke="#9a32cd" points="352.24,-166 342.24,-169.5 352.24,-173 352.24,-166"/>
</a>
</g>
<text text-anchor="middle" x="380" y="-172.5" font-family="Helvetica,sans-Serif" font-size="10.00" fill="grey"> a</text>
</g>
<!-- Node4 -->
<g id="Node000004" class="node">
<title>Node4</title>
<g id="a_Node000004"><a xlink:href="structservio_1_1drv_1_1pwm__motor__iface.html" target="_top" xlink:title=" ">
<polygon fill="#fff0f0" stroke="red" points="133,-360.5 1,-360.5 1,-330.5 133,-330.5 133,-360.5"/>
<text text-anchor="start" x="9" y="-348.5" font-family="Helvetica,sans-Serif" font-size="10.00">servio::drv::pwm_motor</text>
<text text-anchor="middle" x="67" y="-337.5" font-family="Helvetica,sans-Serif" font-size="10.00">_iface</text>
</a>
</g>
</g>
<!-- Node4&#45;&gt;Node3 -->
<g id="edge3_Node000003_Node000004" class="edge">
<title>Node4&#45;&gt;Node3</title>
<g id="a_edge3_Node000003_Node000004"><a xlink:title=" ">
<path fill="none" stroke="#9a32cd" stroke-dasharray="5,2" d="M122.25,-326.69C126.26,-325.02 130.22,-323.28 134,-321.5 165.72,-306.56 181.62,-310.03 202,-281.5 225.21,-249.02 194.03,-223.82 220,-193.5 222.95,-190.05 226.45,-187.1 230.27,-184.57"/>
<polygon fill="#9a32cd" stroke="#9a32cd" points="120.82,-323.49 112.83,-330.46 123.42,-329.99 120.82,-323.49"/>
</a>
</g>
<text text-anchor="middle" x="177" y="-316.5" font-family="Helvetica,sans-Serif" font-size="10.00" fill="grey"> motor</text>
</g>
<!-- Node6 -->
<g id="Node000006" class="node">
<title>Node6</title>
<g id="a_Node000006"><a xlink:href="structservio_1_1drv_1_1get__pos__iface.html" target="_top" xlink:title=" ">
<polygon fill="white" stroke="#666666" points="123,-312.5 11,-312.5 11,-282.5 123,-282.5 123,-312.5"/>
<text text-anchor="start" x="19" y="-300.5" font-family="Helvetica,sans-Serif" font-size="10.00">servio::drv::get_pos</text>
<text text-anchor="middle" x="67" y="-289.5" font-family="Helvetica,sans-Serif" font-size="10.00">_iface</text>
</a>
</g>
</g>
<!-- Node6&#45;&gt;Node3 -->
<g id="edge4_Node000003_Node000006" class="edge">
<title>Node6&#45;&gt;Node3</title>
<g id="a_edge4_Node000003_Node000006"><a xlink:title=" ">
<path fill="none" stroke="#9a32cd" stroke-dasharray="5,2" d="M120.32,-278.91C124.96,-277.13 129.58,-275.31 134,-273.5 164.74,-260.93 179.42,-266.86 202,-242.5 217.77,-225.49 203.63,-209.94 220,-193.5 223.46,-190.03 227.46,-187.05 231.75,-184.51"/>
<polygon fill="#9a32cd" stroke="#9a32cd" points="118.92,-275.7 110.79,-282.5 121.39,-282.25 118.92,-275.7"/>
</a>
</g>
<text text-anchor="middle" x="177" y="-269.5" font-family="Helvetica,sans-Serif" font-size="10.00" fill="grey"> pos_drv</text>
</g>
<!-- Node7 -->
<g id="Node000007" class="node">
<title>Node7</title>
<g id="a_Node000007"><a xlink:href="structservio_1_1drv_1_1get__curr__iface.html" target="_top" xlink:title=" ">
<polygon fill="white" stroke="#666666" points="123.5,-264.5 10.5,-264.5 10.5,-234.5 123.5,-234.5 123.5,-264.5"/>
<text text-anchor="start" x="18.5" y="-252.5" font-family="Helvetica,sans-Serif" font-size="10.00">servio::drv::get_curr</text>
<text text-anchor="middle" x="67" y="-241.5" font-family="Helvetica,sans-Serif" font-size="10.00">_iface</text>
</a>
</g>
</g>
<!-- Node7&#45;&gt;Node3 -->
<g id="edge5_Node000003_Node000007" class="edge">
<title>Node7&#45;&gt;Node3</title>
<g id="a_edge5_Node000003_Node000007"><a xlink:title=" ">
<path fill="none" stroke="#9a32cd" stroke-dasharray="5,2" d="M133.34,-234.09C155.8,-227.49 180.65,-218.68 202,-207.5 210.98,-202.8 211.15,-198.44 220,-193.5 225.84,-190.24 232.22,-187.26 238.61,-184.59"/>
<polygon fill="#9a32cd" stroke="#9a32cd" points="132.21,-230.78 123.55,-236.88 134.13,-237.51 132.21,-230.78"/>
</a>
</g>
<text text-anchor="middle" x="177" y="-230.5" font-family="Helvetica,sans-Serif" font-size="10.00" fill="grey"> curr_drv</text>
</g>
<!-- Node8 -->
<g id="Node000008" class="node">
<title>Node8</title>
<g id="a_Node000008"><a xlink:href="structservio_1_1drv_1_1vcc__iface.html" target="_top" xlink:title=" ">
<polygon fill="white" stroke="#666666" points="126.5,-216 7.5,-216 7.5,-197 126.5,-197 126.5,-216"/>
<text text-anchor="middle" x="67" y="-204" font-family="Helvetica,sans-Serif" font-size="10.00">servio::drv::vcc_iface</text>
</a>
</g>
</g>
<!-- Node8&#45;&gt;Node3 -->
<g id="edge6_Node000003_Node000008" class="edge">
<title>Node8&#45;&gt;Node3</title>
<g id="a_edge6_Node000003_Node000008"><a xlink:title=" ">
<path fill="none" stroke="#9a32cd" stroke-dasharray="5,2" d="M136.83,-195.43C157.77,-192 180.84,-188.16 202,-184.5 210.61,-183.01 219.71,-181.4 228.61,-179.8"/>
<polygon fill="#9a32cd" stroke="#9a32cd" points="136.05,-192.01 126.74,-197.08 137.17,-198.92 136.05,-192.01"/>
</a>
</g>
<text text-anchor="middle" x="177" y="-195.5" font-family="Helvetica,sans-Serif" font-size="10.00" fill="grey"> vcc_drv</text>
</g>
<!-- Node9 -->
<g id="Node000009" class="node">
<title>Node9</title>
<g id="a_Node000009"><a xlink:href="structservio_1_1drv_1_1temp__iface.html" target="_top" xlink:title=" ">
<polygon fill="white" stroke="#666666" points="131,-179 3,-179 3,-160 131,-160 131,-179"/>
<text text-anchor="middle" x="67" y="-167" font-family="Helvetica,sans-Serif" font-size="10.00">servio::drv::temp_iface</text>
</a>
</g>
</g>
<!-- Node9&#45;&gt;Node3 -->
<g id="edge7_Node000003_Node000009" class="edge">
<title>Node9&#45;&gt;Node3</title>
<g id="a_edge7_Node000003_Node000009"><a xlink:title=" ">
<path fill="none" stroke="#9a32cd" stroke-dasharray="5,2" d="M141.56,-169.5C170.15,-169.5 202.36,-169.5 228.95,-169.5"/>
<polygon fill="#9a32cd" stroke="#9a32cd" points="141.2,-166 131.2,-169.5 141.2,-173 141.2,-166"/>
</a>
</g>
<text text-anchor="middle" x="177" y="-172.5" font-family="Helvetica,sans-Serif" font-size="10.00" fill="grey"> temp_drv</text>
</g>
<!-- Node10 -->
<g id="Node000010" class="node">
<title>Node10</title>
<g id="a_Node000010"><a xlink:href="structservio_1_1core_1_1core.html" target="_top" xlink:title=" ">
<polygon fill="#fff0f0" stroke="red" points="117.5,-142 16.5,-142 16.5,-123 117.5,-123 117.5,-142"/>
<text text-anchor="middle" x="67" y="-130" font-family="Helvetica,sans-Serif" font-size="10.00">servio::core::core</text>
</a>
</g>
</g>
<!-- Node10&#45;&gt;Node3 -->
<g id="edge8_Node000003_Node000010" class="edge">
<title>Node10&#45;&gt;Node3</title>
<g id="a_edge8_Node000003_Node000010"><a xlink:title=" ">
<path fill="none" stroke="#9a32cd" stroke-dasharray="5,2" d="M127.72,-142.08C150.92,-145.86 177.72,-150.3 202,-154.5 210.61,-155.99 219.71,-157.6 228.61,-159.2"/>
<polygon fill="#9a32cd" stroke="#9a32cd" points="128.1,-138.6 117.67,-140.45 126.98,-145.51 128.1,-138.6"/>
</a>
</g>
<text text-anchor="middle" x="177" y="-157.5" font-family="Helvetica,sans-Serif" font-size="10.00" fill="grey"> cor</text>
</g>
<!-- Node17 -->
<g id="Node000017" class="node">
<title>Node17</title>
<g id="a_Node000017"><a xlink:href="structservio_1_1cfg_1_1map.html" target="_top" xlink:title=" ">
<polygon fill="white" stroke="#666666" points="114.5,-105 19.5,-105 19.5,-86 114.5,-86 114.5,-105"/>
<text text-anchor="middle" x="67" y="-93" font-family="Helvetica,sans-Serif" font-size="10.00">servio::cfg::map</text>
</a>
</g>
</g>
<!-- Node17&#45;&gt;Node3 -->
<g id="edge9_Node000003_Node000017" class="edge">
<title>Node17&#45;&gt;Node3</title>
<g id="a_edge9_Node000003_Node000017"><a xlink:title=" ">
<path fill="none" stroke="#9a32cd" stroke-dasharray="5,2" d="M122.86,-107.39C147.39,-113.32 176.48,-121.23 202,-130.5 220.46,-137.21 240.4,-146.57 256.04,-154.44"/>
<polygon fill="#9a32cd" stroke="#9a32cd" points="123.54,-103.95 113,-105.05 121.92,-110.76 123.54,-103.95"/>
</a>
</g>
<text text-anchor="middle" x="177" y="-133.5" font-family="Helvetica,sans-Serif" font-size="10.00" fill="grey"> cfg_map</text>
</g>
<!-- Node18 -->
<g id="Node000018" class="node">
<title>Node18</title>
<g id="a_Node000018"><a xlink:href="structservio_1_1drv_1_1storage__iface.html" target="_top" xlink:title=" ">
<polygon fill="white" stroke="#666666" points="122,-67.5 12,-67.5 12,-37.5 122,-37.5 122,-67.5"/>
<text text-anchor="start" x="20" y="-55.5" font-family="Helvetica,sans-Serif" font-size="10.00">servio::drv::storage</text>
<text text-anchor="middle" x="67" y="-44.5" font-family="Helvetica,sans-Serif" font-size="10.00">_iface</text>
</a>
</g>
</g>
<!-- Node18&#45;&gt;Node3 -->
<g id="edge10_Node000003_Node000018" class="edge">
<title>Node18&#45;&gt;Node3</title>
<g id="a_edge10_Node000003_Node000018"><a xlink:title=" ">
<path fill="none" stroke="#9a32cd" stroke-dasharray="5,2" d="M131.73,-70.22C154.67,-77.9 180.24,-88.03 202,-100.5 228.08,-115.44 253.99,-138.88 269.63,-154.22"/>
<polygon fill="#9a32cd" stroke="#9a32cd" points="132.67,-66.85 122.08,-67.08 130.5,-73.5 132.67,-66.85"/>
</a>
</g>
<text text-anchor="middle" x="177" y="-103.5" font-family="Helvetica,sans-Serif" font-size="10.00" fill="grey"> stor_drv</text>
</g>
<!-- Node19 -->
<g id="Node000019" class="node">
<title>Node19</title>
<g id="a_Node000019"><a xlink:title=" ">
<polygon fill="white" stroke="#666666" points="351,-80.5 220,-80.5 220,-50.5 351,-50.5 351,-80.5"/>
<text text-anchor="start" x="228" y="-68.5" font-family="Helvetica,sans-Serif" font-size="10.00">std::deque&lt; std::vector</text>
<text text-anchor="middle" x="285.5" y="-57.5" font-family="Helvetica,sans-Serif" font-size="10.00">&lt; std::byte &gt; &gt;</text>
</a>
</g>
</g>
<!-- Node19&#45;&gt;Node1 -->
<g id="edge11_Node000001_Node000019" class="edge">
<title>Node19&#45;&gt;Node1</title>
<g id="a_edge11_Node000001_Node000019"><a xlink:title=" ">
<path fill="none" stroke="#9a32cd" stroke-dasharray="5,2" d="M323.83,-85.46C365.63,-107.81 431.65,-143.11 463.14,-159.95"/>
<polygon fill="#9a32cd" stroke="#9a32cd" points="325.25,-82.25 314.78,-80.62 321.95,-88.42 325.25,-82.25"/>
</a>
</g>
<text text-anchor="middle" x="380" y="-123.5" font-family="Helvetica,sans-Serif" font-size="10.00" fill="grey"> buff</text>
</g>
<!-- Node20 -->
<g id="Node000020" class="node">
<title>Node20</title>
<g id="a_Node000020"><a xlink:title=" ">
<polygon fill="white" stroke="#666666" points="134,-19 0,-19 0,0 134,0 134,-19"/>
<text text-anchor="middle" x="67" y="-7" font-family="Helvetica,sans-Serif" font-size="10.00">std::vector&lt; std::byte &gt;</text>
</a>
</g>
</g>
<!-- Node20&#45;&gt;Node19 -->
<g id="edge12_Node000019_Node000020" class="edge">
<title>Node20&#45;&gt;Node19</title>
<g id="a_edge12_Node000019_Node000020"><a xlink:title=" ">
<path fill="none" stroke="#9a32cd" stroke-dasharray="5,2" d="M144.31,-9.47C163.44,-11.01 183.72,-14.01 202,-19.5 224.46,-26.24 247.57,-39.8 263.6,-50.46"/>
<polygon fill="#9a32cd" stroke="#9a32cd" points="144.34,-5.96 134.12,-8.77 143.86,-12.95 144.34,-5.96"/>
</a>
</g>
<text text-anchor="middle" x="177" y="-22.5" font-family="Helvetica,sans-Serif" font-size="10.00" fill="grey"> elements</text>
</g>
</g>
</svg>
