<?xml version="1.0" encoding="UTF-8" standalone="no"?>
<!DOCTYPE svg PUBLIC "-//W3C//DTD SVG 1.1//EN"
 "http://www.w3.org/Graphics/SVG/1.1/DTD/svg11.dtd">
<!-- Generated by graphviz version 2.43.0 (0)
 -->
<!-- Title: servio::scmdio::bflash_ctx Pages: 1 -->
<svg width="151pt" height="149pt"
 viewBox="0.00 0.00 151.00 149.00" xmlns="http://www.w3.org/2000/svg" xmlns:xlink="http://www.w3.org/1999/xlink">
<g id="graph0" class="graph" transform="scale(1 1) rotate(0) translate(4 145)">
<title>servio::scmdio::bflash_ctx</title>
<!-- Node1 -->
<g id="Node000001" class="node">
<title>Node1</title>
<g id="a_Node000001"><a xlink:title=" ">
<polygon fill="#999999" stroke="#666666" points="143,-19 0,-19 0,0 143,0 143,-19"/>
<text text-anchor="middle" x="71.5" y="-7" font-family="Helvetica,sans-Serif" font-size="10.00">servio::scmdio::bflash_ctx</text>
</a>
</g>
</g>
<!-- Node2 -->
<g id="Node000002" class="node">
<title>Node2</title>
<g id="a_Node000002"><a xlink:href="structservio_1_1scmdio_1_1serial__cli.html" target="_top" xlink:title=" ">
<polygon fill="white" stroke="#666666" points="140,-85 3,-85 3,-66 140,-66 140,-85"/>
<text text-anchor="middle" x="71.5" y="-73" font-family="Helvetica,sans-Serif" font-size="10.00">servio::scmdio::serial_cli</text>
</a>
</g>
</g>
<!-- Node2&#45;&gt;Node1 -->
<g id="edge1_Node000001_Node000002" class="edge">
<title>Node2&#45;&gt;Node1</title>
<g id="a_edge1_Node000001_Node000002"><a xlink:title=" ">
<path fill="none" stroke="#9a32cd" stroke-dasharray="5,2" d="M71.5,-55.58C71.5,-43.63 71.5,-28.72 71.5,-19.41"/>
<polygon fill="#9a32cd" stroke="#9a32cd" points="68,-55.87 71.5,-65.87 75,-55.87 68,-55.87"/>
</a>
</g>
<text text-anchor="middle" x="83" y="-40" font-family="Helvetica,sans-Serif" font-size="10.00" fill="grey"> port</text>
</g>
<!-- Node3 -->
<g id="Node000003" class="node">
<title>Node3</title>
<g id="a_Node000003"><a xlink:href="structservio_1_1scmdio_1_1port__cli.html" target="_top" xlink:title=" ">
<polygon fill="white" stroke="#666666" points="136.5,-141 6.5,-141 6.5,-122 136.5,-122 136.5,-141"/>
<text text-anchor="middle" x="71.5" y="-129" font-family="Helvetica,sans-Serif" font-size="10.00">servio::scmdio::port_cli</text>
</a>
</g>
</g>
<!-- Node3&#45;&gt;Node2 -->
<g id="edge2_Node000002_Node000003" class="edge">
<title>Node3&#45;&gt;Node2</title>
<g id="a_edge2_Node000002_Node000003"><a xlink:title=" ">
<path fill="none" stroke="#63b8ff" d="M71.5,-111.3C71.5,-102.41 71.5,-92.28 71.5,-85.25"/>
<polygon fill="#63b8ff" stroke="#63b8ff" points="68,-111.58 71.5,-121.58 75,-111.58 68,-111.58"/>
</a>
</g>
</g>
</g>
</svg>
