<?xml version="1.0" encoding="UTF-8" standalone="no"?>
<!DOCTYPE svg PUBLIC "-//W3C//DTD SVG 1.1//EN"
 "http://www.w3.org/Graphics/SVG/1.1/DTD/svg11.dtd">
<!-- Generated by graphviz version 2.43.0 (0)
 -->
<!-- Title: servio::gov::engage_res Pages: 1 -->
<svg width="233pt" height="160pt"
 viewBox="0.00 0.00 233.00 160.00" xmlns="http://www.w3.org/2000/svg" xmlns:xlink="http://www.w3.org/1999/xlink">
<g id="graph0" class="graph" transform="scale(1 1) rotate(0) translate(4 156)">
<title>servio::gov::engage_res</title>
<!-- Node1 -->
<g id="Node000001" class="node">
<title>Node1</title>
<g id="a_Node000001"><a xlink:title=" ">
<polygon fill="#999999" stroke="#666666" points="207.5,-19 75.5,-19 75.5,0 207.5,0 207.5,-19"/>
<text text-anchor="middle" x="141.5" y="-7" font-family="Helvetica,sans-Serif" font-size="10.00">servio::gov::engage_res</text>
</a>
</g>
</g>
<!-- Node2 -->
<g id="Node000002" class="node">
<title>Node2</title>
<g id="a_Node000002"><a xlink:href="structservio_1_1status.html" target="_top" xlink:title=" ">
<polygon fill="white" stroke="#666666" points="98,-85 15,-85 15,-66 98,-66 98,-85"/>
<text text-anchor="middle" x="56.5" y="-73" font-family="Helvetica,sans-Serif" font-size="10.00">servio::status</text>
</a>
</g>
</g>
<!-- Node2&#45;&gt;Node1 -->
<g id="edge1_Node000001_Node000002" class="edge">
<title>Node2&#45;&gt;Node1</title>
<g id="a_edge1_Node000001_Node000002"><a xlink:title=" ">
<path fill="none" stroke="#9a32cd" stroke-dasharray="5,2" d="M75.98,-59.83C92.65,-47.28 116.09,-29.63 129.95,-19.2"/>
<polygon fill="#9a32cd" stroke="#9a32cd" points="73.85,-57.06 67.96,-65.87 78.06,-62.65 73.85,-57.06"/>
</a>
</g>
<text text-anchor="middle" x="115.5" y="-40" font-family="Helvetica,sans-Serif" font-size="10.00" fill="grey"> stat</text>
</g>
<!-- Node3 -->
<g id="Node000003" class="node">
<title>Node3</title>
<g id="a_Node000003"><a xlink:title=" ">
<polygon fill="white" stroke="#666666" points="113,-152 0,-152 0,-122 113,-122 113,-152"/>
<text text-anchor="start" x="8" y="-140" font-family="Helvetica,sans-Serif" font-size="10.00">em::status&lt; status,</text>
<text text-anchor="middle" x="56.5" y="-129" font-family="Helvetica,sans-Serif" font-size="10.00"> status_e &gt;</text>
</a>
</g>
</g>
<!-- Node3&#45;&gt;Node2 -->
<g id="edge2_Node000002_Node000003" class="edge">
<title>Node3&#45;&gt;Node2</title>
<g id="a_edge2_Node000002_Node000003"><a xlink:title=" ">
<path fill="none" stroke="#63b8ff" d="M56.5,-111.79C56.5,-102.36 56.5,-92.15 56.5,-85.16"/>
<polygon fill="#63b8ff" stroke="#63b8ff" points="53,-111.9 56.5,-121.9 60,-111.9 53,-111.9"/>
</a>
</g>
</g>
<!-- Node4 -->
<g id="Node000004" class="node">
<title>Node4</title>
<g id="a_Node000004"><a xlink:href="structservio_1_1gov_1_1handle.html" target="_top" xlink:title=" ">
<polygon fill="white" stroke="#666666" points="225,-85 116,-85 116,-66 225,-66 225,-85"/>
<text text-anchor="middle" x="170.5" y="-73" font-family="Helvetica,sans-Serif" font-size="10.00">servio::gov::handle</text>
</a>
</g>
</g>
<!-- Node4&#45;&gt;Node1 -->
<g id="edge3_Node000001_Node000004" class="edge">
<title>Node4&#45;&gt;Node1</title>
<g id="a_edge3_Node000001_Node000004"><a xlink:title=" ">
<path fill="none" stroke="#9a32cd" stroke-dasharray="5,2" d="M162.43,-56.68C156.93,-44.55 149.89,-29.01 145.54,-19.41"/>
<polygon fill="#9a32cd" stroke="#9a32cd" points="159.27,-58.2 166.59,-65.87 165.65,-55.32 159.27,-58.2"/>
</a>
</g>
<text text-anchor="middle" x="162.5" y="-40" font-family="Helvetica,sans-Serif" font-size="10.00" fill="grey"> h</text>
</g>
</g>
</svg>
