<?xml version="1.0" encoding="UTF-8" standalone="no"?>
<!DOCTYPE svg PUBLIC "-//W3C//DTD SVG 1.1//EN"
 "http://www.w3.org/Graphics/SVG/1.1/DTD/svg11.dtd">
<!-- Generated by graphviz version 2.43.0 (0)
 -->
<!-- Title: servio::drv::pos_iface Pages: 1 -->
<svg width="300pt" height="95pt"
 viewBox="0.00 0.00 300.00 95.00" xmlns="http://www.w3.org/2000/svg" xmlns:xlink="http://www.w3.org/1999/xlink">
<g id="graph0" class="graph" transform="scale(1 1) rotate(0) translate(4 91)">
<title>servio::drv::pos_iface</title>
<polygon fill="white" stroke="transparent" points="-4,4 -4,-91 296,-91 296,4 -4,4"/>
<!-- Node1 -->
<g id="node1" class="node">
<title>Node1</title>
<g id="a_node1"><a xlink:title=" ">
<polygon fill="#bfbfbf" stroke="black" points="83,-67.5 83,-86.5 203,-86.5 203,-67.5 83,-67.5"/>
<text text-anchor="middle" x="143" y="-74.5" font-family="Helvetica,sans-Serif" font-size="10.00">servio::drv::pos_iface</text>
</a>
</g>
</g>
<!-- Node2 -->
<g id="node2" class="node">
<title>Node2</title>
<g id="a_node2"><a xlink:href="structservio_1_1drv_1_1adc__pooler__position.html" target="_top" xlink:title=" ">
<polygon fill="white" stroke="black" points="0,-0.5 0,-30.5 132,-30.5 132,-0.5 0,-0.5"/>
<text text-anchor="start" x="8" y="-18.5" font-family="Helvetica,sans-Serif" font-size="10.00">servio::drv::adc_pooler</text>
<text text-anchor="middle" x="66" y="-7.5" font-family="Helvetica,sans-Serif" font-size="10.00">_position&lt; AdcPooler &gt;</text>
</a>
</g>
</g>
<!-- Node1&#45;&gt;Node2 -->
<g id="edge1" class="edge">
<title>Node1&#45;&gt;Node2</title>
<path fill="none" stroke="midnightblue" d="M123.84,-61.2C111.7,-51.81 96.09,-39.75 84.15,-30.52"/>
<polygon fill="midnightblue" stroke="midnightblue" points="121.91,-64.13 131.97,-67.48 126.19,-58.59 121.91,-64.13"/>
</g>
<!-- Node3 -->
<g id="node3" class="node">
<title>Node3</title>
<g id="a_node3"><a xlink:href="classservio_1_1drv_1_1quad__encoder.html" target="_top" xlink:title=" ">
<polygon fill="white" stroke="black" points="150,-6 150,-25 292,-25 292,-6 150,-6"/>
<text text-anchor="middle" x="221" y="-13" font-family="Helvetica,sans-Serif" font-size="10.00">servio::drv::quad_encoder</text>
</a>
</g>
</g>
<!-- Node1&#45;&gt;Node3 -->
<g id="edge2" class="edge">
<title>Node1&#45;&gt;Node3</title>
<path fill="none" stroke="midnightblue" d="M162.28,-61.29C177.24,-49.88 197.46,-34.46 209.85,-25.01"/>
<polygon fill="midnightblue" stroke="midnightblue" points="160,-58.63 154.18,-67.48 164.25,-64.19 160,-58.63"/>
</g>
</g>
</svg>
