<?xml version="1.0" encoding="UTF-8" standalone="no"?>
<!DOCTYPE svg PUBLIC "-//W3C//DTD SVG 1.1//EN"
 "http://www.w3.org/Graphics/SVG/1.1/DTD/svg11.dtd">
<!-- Generated by graphviz version 2.43.0 (0)
 -->
<!-- Title: servio::scmdio::stm32_bootloader_mock Pages: 1 -->
<svg width="356pt" height="161pt"
 viewBox="0.00 0.00 356.00 161.00" xmlns="http://www.w3.org/2000/svg" xmlns:xlink="http://www.w3.org/1999/xlink">
<g id="graph0" class="graph" transform="scale(1 1) rotate(0) translate(4 157)">
<title>servio::scmdio::stm32_bootloader_mock</title>
<!-- Node1 -->
<g id="Node000001" class="node">
<title>Node1</title>
<g id="a_Node000001"><a xlink:title=" ">
<polygon fill="#999999" stroke="#666666" points="348,-91 223,-91 223,-61 348,-61 348,-91"/>
<text text-anchor="start" x="231" y="-79" font-family="Helvetica,sans-Serif" font-size="10.00">servio::scmdio::stm32</text>
<text text-anchor="middle" x="285.5" y="-68" font-family="Helvetica,sans-Serif" font-size="10.00">_bootloader_mock</text>
</a>
</g>
</g>
<!-- Node2 -->
<g id="Node000002" class="node">
<title>Node2</title>
<g id="a_Node000002"><a xlink:href="structservio_1_1scmdio_1_1stream__iface.html" target="_top" xlink:title=" ">
<polygon fill="white" stroke="#666666" points="135,-153 7,-153 7,-123 135,-123 135,-153"/>
<text text-anchor="start" x="15" y="-141" font-family="Helvetica,sans-Serif" font-size="10.00">servio::scmdio::stream</text>
<text text-anchor="middle" x="71" y="-130" font-family="Helvetica,sans-Serif" font-size="10.00">_iface</text>
</a>
</g>
</g>
<!-- Node2&#45;&gt;Node1 -->
<g id="edge1_Node000001_Node000002" class="edge">
<title>Node2&#45;&gt;Node1</title>
<g id="a_edge1_Node000001_Node000002"><a xlink:title=" ">
<path fill="none" stroke="#63b8ff" d="M137.48,-120.25C159.03,-114.29 183.08,-107.49 205,-101 215.54,-97.88 226.83,-94.4 237.5,-91.07"/>
<polygon fill="#63b8ff" stroke="#63b8ff" points="136.48,-116.9 127.77,-122.93 138.34,-123.64 136.48,-116.9"/>
</a>
</g>
</g>
<!-- Node3 -->
<g id="Node000003" class="node">
<title>Node3</title>
<g id="a_Node000003"><a xlink:title=" ">
<polygon fill="white" stroke="#666666" points="138,-104.5 4,-104.5 4,-85.5 138,-85.5 138,-104.5"/>
<text text-anchor="middle" x="71" y="-92.5" font-family="Helvetica,sans-Serif" font-size="10.00">std::vector&lt; std::byte &gt;</text>
</a>
</g>
</g>
<!-- Node3&#45;&gt;Node1 -->
<g id="edge2_Node000001_Node000003" class="edge">
<title>Node3&#45;&gt;Node1</title>
<g id="a_edge2_Node000001_Node000003"><a xlink:title=" ">
<path fill="none" stroke="#9a32cd" stroke-dasharray="5,2" d="M148.06,-88.2C172.59,-86.01 199.46,-83.6 222.82,-81.52"/>
<polygon fill="#9a32cd" stroke="#9a32cd" points="147.72,-84.72 138.07,-89.09 148.34,-91.69 147.72,-84.72"/>
</a>
</g>
<text text-anchor="middle" x="182.5" y="-89" font-family="Helvetica,sans-Serif" font-size="10.00" fill="grey"> memory</text>
</g>
<!-- Node4 -->
<g id="Node000004" class="node">
<title>Node4</title>
<g id="a_Node000004"><a xlink:title=" ">
<polygon fill="white" stroke="#666666" points="137.5,-67.5 4.5,-67.5 4.5,-48.5 137.5,-48.5 137.5,-67.5"/>
<text text-anchor="middle" x="71" y="-55.5" font-family="Helvetica,sans-Serif" font-size="10.00">std::deque&lt; std::byte &gt;</text>
</a>
</g>
</g>
<!-- Node4&#45;&gt;Node1 -->
<g id="edge3_Node000001_Node000004" class="edge">
<title>Node4&#45;&gt;Node1</title>
<g id="a_edge3_Node000001_Node000004"><a xlink:title=" ">
<path fill="none" stroke="#9a32cd" stroke-dasharray="5,2" d="M147.98,-58.4C166.66,-59.01 186.58,-60.11 205,-62 210.86,-62.6 216.93,-63.38 222.99,-64.27"/>
<polygon fill="#9a32cd" stroke="#9a32cd" points="147.84,-54.89 137.74,-58.1 147.64,-61.89 147.84,-54.89"/>
</a>
</g>
<text text-anchor="middle" x="182.5" y="-65" font-family="Helvetica,sans-Serif" font-size="10.00" fill="grey"> buffer</text>
</g>
<!-- Node5 -->
<g id="Node000005" class="node">
<title>Node5</title>
<g id="a_Node000005"><a xlink:href="structservio_1_1scmdio_1_1consumer.html" target="_top" xlink:title=" ">
<polygon fill="white" stroke="#666666" points="142,-30 0,-30 0,0 142,0 142,-30"/>
<text text-anchor="start" x="8" y="-18" font-family="Helvetica,sans-Serif" font-size="10.00">servio::scmdio::consumer</text>
<text text-anchor="middle" x="71" y="-7" font-family="Helvetica,sans-Serif" font-size="10.00">&lt; std::byte &gt;</text>
</a>
</g>
</g>
<!-- Node5&#45;&gt;Node1 -->
<g id="edge4_Node000001_Node000005" class="edge">
<title>Node5&#45;&gt;Node1</title>
<g id="a_edge4_Node000001_Node000005"><a xlink:title=" ">
<path fill="none" stroke="#9a32cd" stroke-dasharray="5,2" d="M152.51,-29.44C169.98,-33.26 188.23,-37.8 205,-43 220.84,-47.91 237.9,-54.77 252.13,-60.96"/>
<polygon fill="#9a32cd" stroke="#9a32cd" points="152.85,-25.93 142.34,-27.27 151.39,-32.78 152.85,-25.93"/>
</a>
</g>
<text text-anchor="middle" x="182.5" y="-46" font-family="Helvetica,sans-Serif" font-size="10.00" fill="grey"> c</text>
</g>
</g>
</svg>
