<?xml version="1.0" encoding="UTF-8" standalone="no"?>
<!DOCTYPE svg PUBLIC "-//W3C//DTD SVG 1.1//EN"
 "http://www.w3.org/Graphics/SVG/1.1/DTD/svg11.dtd">
<!-- Generated by graphviz version 2.43.0 (0)
 -->
<!-- Title: servio::scmdio::pool_opts Pages: 1 -->
<svg width="298pt" height="159pt"
 viewBox="0.00 0.00 297.50 159.00" xmlns="http://www.w3.org/2000/svg" xmlns:xlink="http://www.w3.org/1999/xlink">
<g id="graph0" class="graph" transform="scale(1 1) rotate(0) translate(4 155)">
<title>servio::scmdio::pool_opts</title>
<!-- Node1 -->
<g id="Node000001" class="node">
<title>Node1</title>
<g id="a_Node000001"><a xlink:title=" ">
<polygon fill="#999999" stroke="#666666" points="217.5,-19 76.5,-19 76.5,0 217.5,0 217.5,-19"/>
<text text-anchor="middle" x="147" y="-7" font-family="Helvetica,sans-Serif" font-size="10.00">servio::scmdio::pool_opts</text>
</a>
</g>
</g>
<!-- Node2 -->
<g id="Node000002" class="node">
<title>Node2</title>
<g id="a_Node000002"><a xlink:title=" ">
<polygon fill="white" stroke="#666666" points="140,-85 0,-85 0,-66 140,-66 140,-85"/>
<text text-anchor="middle" x="70" y="-73" font-family="Helvetica,sans-Serif" font-size="10.00">std::vector&lt; std::string &gt;</text>
</a>
</g>
</g>
<!-- Node2&#45;&gt;Node1 -->
<g id="edge1_Node000001_Node000002" class="edge">
<title>Node2&#45;&gt;Node1</title>
<g id="a_edge1_Node000001_Node000002"><a xlink:title=" ">
<path fill="none" stroke="#9a32cd" stroke-dasharray="5,2" d="M88.43,-59.18C103.38,-46.76 123.92,-29.68 136.29,-19.41"/>
<polygon fill="#9a32cd" stroke="#9a32cd" points="85.84,-56.78 80.38,-65.87 90.31,-62.17 85.84,-56.78"/>
</a>
</g>
<text text-anchor="middle" x="126.5" y="-40" font-family="Helvetica,sans-Serif" font-size="10.00" fill="grey"> data</text>
</g>
<!-- Node3 -->
<g id="Node000003" class="node">
<title>Node3</title>
<g id="a_Node000003"><a xlink:title=" ">
<polygon fill="#fff0f0" stroke="red" points="102.5,-151 37.5,-151 37.5,-132 102.5,-132 102.5,-151"/>
<text text-anchor="middle" x="70" y="-139" font-family="Helvetica,sans-Serif" font-size="10.00">std::string</text>
</a>
</g>
</g>
<!-- Node3&#45;&gt;Node2 -->
<g id="edge2_Node000002_Node000003" class="edge">
<title>Node3&#45;&gt;Node2</title>
<g id="a_edge2_Node000002_Node000003"><a xlink:title=" ">
<path fill="none" stroke="#9a32cd" stroke-dasharray="5,2" d="M70,-121.58C70,-109.63 70,-94.72 70,-85.41"/>
<polygon fill="#9a32cd" stroke="#9a32cd" points="66.5,-121.87 70,-131.87 73.5,-121.87 66.5,-121.87"/>
</a>
</g>
<text text-anchor="middle" x="94.5" y="-106" font-family="Helvetica,sans-Serif" font-size="10.00" fill="grey"> elements</text>
</g>
<!-- Node5 -->
<g id="Node000005" class="node">
<title>Node5</title>
<g id="a_Node000005"><a xlink:href="structservio_1_1scmdio_1_1char__cli.html" target="_top" xlink:title=" ">
<polygon fill="white" stroke="#666666" points="289.5,-85 158.5,-85 158.5,-66 289.5,-66 289.5,-85"/>
<text text-anchor="middle" x="224" y="-73" font-family="Helvetica,sans-Serif" font-size="10.00">servio::scmdio::char_cli</text>
</a>
</g>
</g>
<!-- Node5&#45;&gt;Node1 -->
<g id="edge3_Node000001_Node000005" class="edge">
<title>Node5&#45;&gt;Node1</title>
<g id="a_edge3_Node000001_Node000005"><a xlink:title=" ">
<path fill="none" stroke="#9a32cd" stroke-dasharray="5,2" d="M205.57,-59.18C190.62,-46.76 170.08,-29.68 157.71,-19.41"/>
<polygon fill="#9a32cd" stroke="#9a32cd" points="203.69,-62.17 213.62,-65.87 208.16,-56.78 203.69,-62.17"/>
</a>
</g>
<text text-anchor="middle" x="202.5" y="-40" font-family="Helvetica,sans-Serif" font-size="10.00" fill="grey"> port</text>
</g>
<!-- Node6 -->
<g id="Node000006" class="node">
<title>Node6</title>
<g id="a_Node000006"><a xlink:href="structservio_1_1scmdio_1_1port__cli.html" target="_top" xlink:title=" ">
<polygon fill="white" stroke="#666666" points="289,-151 159,-151 159,-132 289,-132 289,-151"/>
<text text-anchor="middle" x="224" y="-139" font-family="Helvetica,sans-Serif" font-size="10.00">servio::scmdio::port_cli</text>
</a>
</g>
</g>
<!-- Node6&#45;&gt;Node5 -->
<g id="edge4_Node000005_Node000006" class="edge">
<title>Node6&#45;&gt;Node5</title>
<g id="a_edge4_Node000005_Node000006"><a xlink:title=" ">
<path fill="none" stroke="#63b8ff" d="M224,-121.58C224,-109.63 224,-94.72 224,-85.41"/>
<polygon fill="#63b8ff" stroke="#63b8ff" points="220.5,-121.87 224,-131.87 227.5,-121.87 220.5,-121.87"/>
</a>
</g>
</g>
</g>
</svg>
