<?xml version="1.0" encoding="UTF-8" standalone="no"?>
<!DOCTYPE svg PUBLIC "-//W3C//DTD SVG 1.1//EN"
 "http://www.w3.org/Graphics/SVG/1.1/DTD/svg11.dtd">
<!-- Generated by graphviz version 2.43.0 (0)
 -->
<!-- Title: servio::fw::drv::adc_channel_with_callback&lt; ID &gt; Pages: 1 -->
<svg width="242pt" height="117pt"
 viewBox="0.00 0.00 242.00 117.00" xmlns="http://www.w3.org/2000/svg" xmlns:xlink="http://www.w3.org/1999/xlink">
<g id="graph0" class="graph" transform="scale(1 1) rotate(0) translate(4 113)">
<title>servio::fw::drv::adc_channel_with_callback&lt; ID &gt;</title>
<polygon fill="white" stroke="transparent" points="-4,4 -4,-113 238,-113 238,4 -4,4"/>
<!-- Node1 -->
<g id="node1" class="node">
<title>Node1</title>
<g id="a_node1"><a xlink:title=" ">
<polygon fill="#bfbfbf" stroke="black" points="34,-0.5 34,-30.5 199,-30.5 199,-0.5 34,-0.5"/>
<text text-anchor="start" x="42" y="-18.5" font-family="Helvetica,sans-Serif" font-size="10.00">servio::fw::drv::adc</text>
<text text-anchor="middle" x="116.5" y="-7.5" font-family="Helvetica,sans-Serif" font-size="10.00">_channel_with_callback&lt; ID &gt;</text>
</a>
</g>
</g>
<!-- Node2 -->
<g id="node2" class="node">
<title>Node2</title>
<g id="a_node2"><a xlink:href="structservio_1_1fw_1_1drv_1_1adc__channel.html" target="_top" xlink:title=" ">
<polygon fill="white" stroke="black" points="0,-78.5 0,-108.5 107,-108.5 107,-78.5 0,-78.5"/>
<text text-anchor="start" x="8" y="-96.5" font-family="Helvetica,sans-Serif" font-size="10.00">servio::fw::drv::adc</text>
<text text-anchor="middle" x="53.5" y="-85.5" font-family="Helvetica,sans-Serif" font-size="10.00">_channel&lt; ID &gt;</text>
</a>
</g>
</g>
<!-- Node2&#45;&gt;Node1 -->
<g id="edge1" class="edge">
<title>Node2&#45;&gt;Node1</title>
<path fill="none" stroke="midnightblue" d="M71.9,-70.31C82.49,-57.53 95.48,-41.86 104.7,-30.73"/>
<polygon fill="midnightblue" stroke="midnightblue" points="69.04,-68.27 65.35,-78.2 74.43,-72.74 69.04,-68.27"/>
</g>
<!-- Node3 -->
<g id="node3" class="node">
<title>Node3</title>
<g id="a_node3"><a xlink:href="classservio_1_1base_1_1value__cb__interface.html" target="_top" xlink:title=" ">
<polygon fill="white" stroke="black" points="125,-78.5 125,-108.5 234,-108.5 234,-78.5 125,-78.5"/>
<text text-anchor="start" x="133" y="-96.5" font-family="Helvetica,sans-Serif" font-size="10.00">servio::base::value</text>
<text text-anchor="middle" x="179.5" y="-85.5" font-family="Helvetica,sans-Serif" font-size="10.00">_cb_interface</text>
</a>
</g>
</g>
<!-- Node3&#45;&gt;Node1 -->
<g id="edge2" class="edge">
<title>Node3&#45;&gt;Node1</title>
<path fill="none" stroke="#9a32cd" stroke-dasharray="5,2" d="M161.1,-70.31C150.51,-57.53 137.52,-41.86 128.3,-30.73"/>
<polygon fill="#9a32cd" stroke="#9a32cd" points="158.57,-72.74 167.65,-78.2 163.96,-68.27 158.57,-72.74"/>
<text text-anchor="middle" x="173.5" y="-52" font-family="Helvetica,sans-Serif" font-size="10.00"> callback</text>
</g>
</g>
</svg>
