<?xml version="1.0" encoding="UTF-8" standalone="no"?>
<!DOCTYPE svg PUBLIC "-//W3C//DTD SVG 1.1//EN"
 "http://www.w3.org/Graphics/SVG/1.1/DTD/svg11.dtd">
<!-- Generated by graphviz version 2.43.0 (0)
 -->
<!-- Title: servio::core::core Pages: 1 -->
<svg width="515pt" height="221pt"
 viewBox="0.00 0.00 515.00 220.50" xmlns="http://www.w3.org/2000/svg" xmlns:xlink="http://www.w3.org/1999/xlink">
<g id="graph0" class="graph" transform="scale(1 1) rotate(0) translate(4 216.5)">
<title>servio::core::core</title>
<polygon fill="white" stroke="transparent" points="-4,4 -4,-216.5 511,-216.5 511,4 -4,4"/>
<!-- Node1 -->
<g id="node1" class="node">
<title>Node1</title>
<g id="a_node1"><a xlink:title=" ">
<polygon fill="#bfbfbf" stroke="black" points="406,-76.5 406,-95.5 507,-95.5 507,-76.5 406,-76.5"/>
<text text-anchor="middle" x="456.5" y="-83.5" font-family="Helvetica,sans-Serif" font-size="10.00">servio::core::core</text>
</a>
</g>
</g>
<!-- Node2 -->
<g id="node2" class="node">
<title>Node2</title>
<g id="a_node2"><a xlink:href="classservio_1_1mon_1_1monitor.html" target="_top" xlink:title=" ">
<polygon fill="white" stroke="black" points="219.5,-152.5 219.5,-171.5 338.5,-171.5 338.5,-152.5 219.5,-152.5"/>
<text text-anchor="middle" x="279" y="-159.5" font-family="Helvetica,sans-Serif" font-size="10.00">servio::mon::monitor</text>
</a>
</g>
</g>
<!-- Node2&#45;&gt;Node1 -->
<g id="edge1" class="edge">
<title>Node2&#45;&gt;Node1</title>
<path fill="none" stroke="#9a32cd" stroke-dasharray="5,2" d="M324.89,-149.44C331.03,-147.44 337.21,-145.27 343,-143 378.47,-129.09 417.69,-107.75 439.18,-95.52"/>
<polygon fill="#9a32cd" stroke="#9a32cd" points="323.82,-146.1 315.33,-152.44 325.92,-152.78 323.82,-146.1"/>
<text text-anchor="middle" x="374.5" y="-138" font-family="Helvetica,sans-Serif" font-size="10.00"> mon</text>
</g>
<!-- Node3 -->
<g id="node3" class="node">
<title>Node3</title>
<g id="a_node3"><a xlink:href="structservio_1_1cnv_1_1converter.html" target="_top" xlink:title=" ">
<polygon fill="white" stroke="black" points="218,-114.5 218,-133.5 340,-133.5 340,-114.5 218,-114.5"/>
<text text-anchor="middle" x="279" y="-121.5" font-family="Helvetica,sans-Serif" font-size="10.00">servio::cnv::converter</text>
</a>
</g>
</g>
<!-- Node3&#45;&gt;Node1 -->
<g id="edge2" class="edge">
<title>Node3&#45;&gt;Node1</title>
<path fill="none" stroke="#9a32cd" stroke-dasharray="5,2" d="M334.28,-112.25C359.09,-106.87 388.11,-100.59 411.53,-95.52"/>
<polygon fill="#9a32cd" stroke="#9a32cd" points="333.32,-108.87 324.29,-114.41 334.8,-115.72 333.32,-108.87"/>
<text text-anchor="middle" x="374.5" y="-109" font-family="Helvetica,sans-Serif" font-size="10.00"> conv</text>
</g>
<!-- Node4 -->
<g id="node4" class="node">
<title>Node4</title>
<g id="a_node4"><a xlink:href="classservio_1_1cnv_1_1current__converter.html" target="_top" xlink:title=" ">
<polygon fill="white" stroke="black" points="13,-182 13,-212 123,-212 123,-182 13,-182"/>
<text text-anchor="start" x="21" y="-200" font-family="Helvetica,sans-Serif" font-size="10.00">servio::cnv::current</text>
<text text-anchor="middle" x="68" y="-189" font-family="Helvetica,sans-Serif" font-size="10.00">_converter</text>
</a>
</g>
</g>
<!-- Node4&#45;&gt;Node3 -->
<g id="edge3" class="edge">
<title>Node4&#45;&gt;Node3</title>
<path fill="none" stroke="#9a32cd" stroke-dasharray="5,2" d="M129.09,-178.77C150.81,-171.55 175.31,-162.66 197,-153 205.36,-149.28 206.57,-146.56 215,-143 223.42,-139.44 232.73,-136.25 241.55,-133.55"/>
<polygon fill="#9a32cd" stroke="#9a32cd" points="127.74,-175.53 119.33,-181.97 129.92,-182.18 127.74,-175.53"/>
<text text-anchor="middle" x="175.5" y="-172" font-family="Helvetica,sans-Serif" font-size="10.00"> current</text>
</g>
<!-- Node5 -->
<g id="node5" class="node">
<title>Node5</title>
<g id="a_node5"><a xlink:href="classservio_1_1cnv_1_1position__converter.html" target="_top" xlink:title=" ">
<polygon fill="white" stroke="black" points="11,-133 11,-163 125,-163 125,-133 11,-133"/>
<text text-anchor="start" x="19" y="-151" font-family="Helvetica,sans-Serif" font-size="10.00">servio::cnv::position</text>
<text text-anchor="middle" x="68" y="-140" font-family="Helvetica,sans-Serif" font-size="10.00">_converter</text>
</a>
</g>
</g>
<!-- Node5&#45;&gt;Node3 -->
<g id="edge4" class="edge">
<title>Node5&#45;&gt;Node3</title>
<path fill="none" stroke="#9a32cd" stroke-dasharray="5,2" d="M134.97,-140.42C161.5,-137.38 191.88,-133.89 217.8,-130.91"/>
<polygon fill="#9a32cd" stroke="#9a32cd" points="134.54,-136.95 125.01,-141.57 135.34,-143.9 134.54,-136.95"/>
<text text-anchor="middle" x="175.5" y="-141" font-family="Helvetica,sans-Serif" font-size="10.00"> position</text>
</g>
<!-- Node6 -->
<g id="node6" class="node">
<title>Node6</title>
<g id="a_node6"><a xlink:href="classservio_1_1cnv_1_1temperature__converter.html" target="_top" xlink:title=" ">
<polygon fill="white" stroke="black" points="0,-84 0,-114 136,-114 136,-84 0,-84"/>
<text text-anchor="start" x="8" y="-102" font-family="Helvetica,sans-Serif" font-size="10.00">servio::cnv::temperature</text>
<text text-anchor="middle" x="68" y="-91" font-family="Helvetica,sans-Serif" font-size="10.00">_converter</text>
</a>
</g>
</g>
<!-- Node6&#45;&gt;Node3 -->
<g id="edge5" class="edge">
<title>Node6&#45;&gt;Node3</title>
<path fill="none" stroke="#9a32cd" stroke-dasharray="5,2" d="M146.28,-108.24C169.93,-111.07 195.58,-114.14 217.91,-116.81"/>
<polygon fill="#9a32cd" stroke="#9a32cd" points="146.62,-104.76 136.28,-107.05 145.79,-111.71 146.62,-104.76"/>
<text text-anchor="middle" x="175.5" y="-116" font-family="Helvetica,sans-Serif" font-size="10.00"> temp</text>
</g>
<!-- Node7 -->
<g id="node7" class="node">
<title>Node7</title>
<g id="a_node7"><a xlink:href="classservio_1_1cnv_1_1voltage__converter.html" target="_top" xlink:title=" ">
<polygon fill="white" stroke="black" points="12,-35 12,-65 124,-65 124,-35 12,-35"/>
<text text-anchor="start" x="20" y="-53" font-family="Helvetica,sans-Serif" font-size="10.00">servio::cnv::voltage</text>
<text text-anchor="middle" x="68" y="-42" font-family="Helvetica,sans-Serif" font-size="10.00">_converter</text>
</a>
</g>
</g>
<!-- Node7&#45;&gt;Node3 -->
<g id="edge6" class="edge">
<title>Node7&#45;&gt;Node3</title>
<path fill="none" stroke="#9a32cd" stroke-dasharray="5,2" d="M130.72,-68.2C152.11,-75.3 175.98,-84.11 197,-94 205.48,-97.99 206.44,-101.17 215,-105 223.13,-108.64 232.16,-111.82 240.78,-114.5"/>
<polygon fill="#9a32cd" stroke="#9a32cd" points="131.68,-64.83 121.08,-65.07 129.51,-71.49 131.68,-64.83"/>
<text text-anchor="middle" x="175.5" y="-97" font-family="Helvetica,sans-Serif" font-size="10.00"> vcc</text>
</g>
<!-- Node8 -->
<g id="node8" class="node">
<title>Node8</title>
<g id="a_node8"><a xlink:href="classservio_1_1mon_1_1indication.html" target="_top" xlink:title=" ">
<polygon fill="white" stroke="black" points="215,-76.5 215,-95.5 343,-95.5 343,-76.5 215,-76.5"/>
<text text-anchor="middle" x="279" y="-83.5" font-family="Helvetica,sans-Serif" font-size="10.00">servio::mon::indication</text>
</a>
</g>
</g>
<!-- Node8&#45;&gt;Node1 -->
<g id="edge7" class="edge">
<title>Node8&#45;&gt;Node1</title>
<path fill="none" stroke="#9a32cd" stroke-dasharray="5,2" d="M353.59,-86C371.16,-86 389.51,-86 405.72,-86"/>
<polygon fill="#9a32cd" stroke="#9a32cd" points="353.36,-82.5 343.36,-86 353.36,-89.5 353.36,-82.5"/>
<text text-anchor="middle" x="374.5" y="-89" font-family="Helvetica,sans-Serif" font-size="10.00"> ind</text>
</g>
<!-- Node9 -->
<g id="node9" class="node">
<title>Node9</title>
<g id="a_node9"><a xlink:href="classservio_1_1mtr_1_1metrics.html" target="_top" xlink:title=" ">
<polygon fill="white" stroke="black" points="222.5,-38.5 222.5,-57.5 335.5,-57.5 335.5,-38.5 222.5,-38.5"/>
<text text-anchor="middle" x="279" y="-45.5" font-family="Helvetica,sans-Serif" font-size="10.00">servio::mtr::metrics</text>
</a>
</g>
</g>
<!-- Node9&#45;&gt;Node1 -->
<g id="edge8" class="edge">
<title>Node9&#45;&gt;Node1</title>
<path fill="none" stroke="#9a32cd" stroke-dasharray="5,2" d="M335.47,-59.71C352.34,-63.3 370.94,-67.29 388,-71 395.98,-72.74 404.48,-74.61 412.66,-76.42"/>
<polygon fill="#9a32cd" stroke="#9a32cd" points="335.72,-56.19 325.21,-57.53 334.26,-63.04 335.72,-56.19"/>
<text text-anchor="middle" x="374.5" y="-74" font-family="Helvetica,sans-Serif" font-size="10.00"> met</text>
</g>
<!-- Node10 -->
<g id="node10" class="node">
<title>Node10</title>
<g id="a_node10"><a xlink:href="classservio_1_1ctl_1_1control.html" target="_top" xlink:title=" ">
<polygon fill="white" stroke="black" points="227,-0.5 227,-19.5 331,-19.5 331,-0.5 227,-0.5"/>
<text text-anchor="middle" x="279" y="-7.5" font-family="Helvetica,sans-Serif" font-size="10.00">servio::ctl::control</text>
</a>
</g>
</g>
<!-- Node10&#45;&gt;Node1 -->
<g id="edge9" class="edge">
<title>Node10&#45;&gt;Node1</title>
<path fill="none" stroke="#9a32cd" stroke-dasharray="5,2" d="M324.63,-22.59C330.85,-24.59 337.12,-26.75 343,-29 378.59,-42.59 417.77,-64.04 439.22,-76.39"/>
<polygon fill="#9a32cd" stroke="#9a32cd" points="325.55,-19.21 314.96,-19.57 323.46,-25.89 325.55,-19.21"/>
<text text-anchor="middle" x="374.5" y="-51" font-family="Helvetica,sans-Serif" font-size="10.00"> ctl</text>
</g>
</g>
</svg>
