<?xml version="1.0" encoding="UTF-8" standalone="no"?>
<!DOCTYPE svg PUBLIC "-//W3C//DTD SVG 1.1//EN"
 "http://www.w3.org/Graphics/SVG/1.1/DTD/svg11.dtd">
<!-- Generated by graphviz version 2.43.0 (0)
 -->
<!-- Title: servio::brd::adc_set Pages: 1 -->
<svg width="891pt" height="188pt"
 viewBox="0.00 0.00 891.00 188.00" xmlns="http://www.w3.org/2000/svg" xmlns:xlink="http://www.w3.org/1999/xlink">
<g id="graph0" class="graph" transform="scale(1 1) rotate(0) translate(4 184)">
<title>servio::brd::adc_set</title>
<!-- Node1 -->
<g id="Node000001" class="node">
<title>Node1</title>
<g id="a_Node000001"><a xlink:title=" ">
<polygon fill="#999999" stroke="#666666" points="883,-84.5 771,-84.5 771,-65.5 883,-65.5 883,-84.5"/>
<text text-anchor="middle" x="827" y="-72.5" font-family="Helvetica,sans-Serif" font-size="10.00">servio::brd::adc_set</text>
</a>
</g>
</g>
<!-- Node2 -->
<g id="Node000002" class="node">
<title>Node2</title>
<g id="a_Node000002"><a xlink:href="structservio_1_1drv_1_1detailed__adc__channel.html" target="_top" xlink:title=" ">
<polygon fill="white" stroke="#666666" points="355,-178.5 193,-178.5 193,-137.5 355,-137.5 355,-178.5"/>
<text text-anchor="start" x="201" y="-166.5" font-family="Helvetica,sans-Serif" font-size="10.00">servio::drv::detailed</text>
<text text-anchor="start" x="201" y="-155.5" font-family="Helvetica,sans-Serif" font-size="10.00">_adc_channel&lt; drv::CURRENT</text>
<text text-anchor="middle" x="274" y="-144.5" font-family="Helvetica,sans-Serif" font-size="10.00">_CHANNEL, 128 &gt;</text>
</a>
</g>
</g>
<!-- Node2&#45;&gt;Node1 -->
<g id="edge1_Node000001_Node000002" class="edge">
<title>Node2&#45;&gt;Node1</title>
<g id="a_edge1_Node000001_Node000002"><a xlink:title=" ">
<path fill="none" stroke="#9a32cd" stroke-dasharray="5,2" d="M365.34,-148.53C450.03,-139.12 580.02,-123.33 692,-104 723.9,-98.49 759.72,-90.65 786.3,-84.51"/>
<polygon fill="#9a32cd" stroke="#9a32cd" points="364.8,-145.07 355.24,-149.64 365.57,-152.02 364.8,-145.07"/>
</a>
</g>
<text text-anchor="middle" x="608.5" y="-132" font-family="Helvetica,sans-Serif" font-size="10.00" fill="grey"> current</text>
</g>
<!-- Node3 -->
<g id="Node000003" class="node">
<title>Node3</title>
<g id="a_Node000003"><a xlink:href="classservio_1_1sntr_1_1sentry.html" target="_top" xlink:title=" ">
<polygon fill="white" stroke="#666666" points="110.5,-106.5 2.5,-106.5 2.5,-87.5 110.5,-87.5 110.5,-106.5"/>
<text text-anchor="middle" x="56.5" y="-94.5" font-family="Helvetica,sans-Serif" font-size="10.00">servio::sntr::sentry</text>
</a>
</g>
</g>
<!-- Node3&#45;&gt;Node2 -->
<g id="edge2_Node000002_Node000003" class="edge">
<title>Node3&#45;&gt;Node2</title>
<g id="a_edge2_Node000002_Node000003"><a xlink:title=" ">
<path fill="none" stroke="#9a32cd" stroke-dasharray="5,2" d="M100.83,-109.26C129.32,-117.33 167.3,-128.08 200.34,-137.43"/>
<polygon fill="#9a32cd" stroke="#9a32cd" points="101.75,-105.89 91.17,-106.53 99.84,-112.62 101.75,-105.89"/>
</a>
</g>
<text text-anchor="middle" x="153" y="-133" font-family="Helvetica,sans-Serif" font-size="10.00" fill="grey"> sentry_</text>
</g>
<!-- Node6 -->
<g id="Node000006" class="node">
<title>Node6</title>
<g id="a_Node000006"><a xlink:href="structservio_1_1drv_1_1adc__channel.html" target="_top" xlink:title=" ">
<polygon fill="white" stroke="#666666" points="341,-119 207,-119 207,-89 341,-89 341,-119"/>
<text text-anchor="start" x="215" y="-107" font-family="Helvetica,sans-Serif" font-size="10.00">servio::drv::adc_channel</text>
<text text-anchor="middle" x="274" y="-96" font-family="Helvetica,sans-Serif" font-size="10.00">&lt; ID &gt;</text>
</a>
</g>
</g>
<!-- Node3&#45;&gt;Node6 -->
<g id="edge6_Node000006_Node000003" class="edge">
<title>Node3&#45;&gt;Node6</title>
<g id="a_edge6_Node000006_Node000003"><a xlink:title=" ">
<path fill="none" stroke="#9a32cd" stroke-dasharray="5,2" d="M120.87,-96.93C138.41,-97.08 157.45,-97.39 175,-98 185.31,-98.36 196.21,-98.88 206.87,-99.48"/>
<polygon fill="#9a32cd" stroke="#9a32cd" points="120.76,-93.43 110.74,-96.86 120.72,-100.43 120.76,-93.43"/>
</a>
</g>
<text text-anchor="middle" x="153" y="-101" font-family="Helvetica,sans-Serif" font-size="10.00" fill="grey"> sentry_</text>
</g>
<!-- Node8 -->
<g id="Node000008" class="node">
<title>Node8</title>
<g id="a_Node000008"><a xlink:href="structservio_1_1drv_1_1adc__channel.html" target="_top" xlink:title=" ">
<polygon fill="white" stroke="#666666" points="507,-30 373,-30 373,0 507,0 507,-30"/>
<text text-anchor="start" x="381" y="-18" font-family="Helvetica,sans-Serif" font-size="10.00">servio::drv::adc_channel</text>
<text text-anchor="middle" x="440" y="-7" font-family="Helvetica,sans-Serif" font-size="10.00">&lt; drv::VCC_CHANNEL &gt;</text>
</a>
</g>
</g>
<!-- Node3&#45;&gt;Node8 -->
<g id="edge9_Node000008_Node000003" class="edge">
<title>Node3&#45;&gt;Node8</title>
<g id="a_edge9_Node000008_Node000003"><a xlink:title=" ">
<path fill="none" stroke="#9a32cd" stroke-dasharray="5,2" d="M81.45,-82.05C107.72,-66.49 151.66,-42.91 193,-32 252.5,-16.29 322.75,-12.86 372.91,-12.88"/>
<polygon fill="#9a32cd" stroke="#9a32cd" points="79.37,-79.22 72.61,-87.38 82.98,-85.21 79.37,-79.22"/>
</a>
</g>
<text text-anchor="middle" x="153" y="-58" font-family="Helvetica,sans-Serif" font-size="10.00" fill="grey"> sentry_</text>
</g>
<!-- Node4 -->
<g id="Node000004" class="node">
<title>Node4</title>
<g id="a_Node000004"><a xlink:href="structservio_1_1drv_1_1detailed__cb__iface.html" target="_top" xlink:title=" ">
<polygon fill="white" stroke="#666666" points="113,-180 0,-180 0,-150 113,-150 113,-180"/>
<text text-anchor="start" x="8" y="-168" font-family="Helvetica,sans-Serif" font-size="10.00">servio::drv::detailed</text>
<text text-anchor="middle" x="56.5" y="-157" font-family="Helvetica,sans-Serif" font-size="10.00">_cb_iface</text>
</a>
</g>
</g>
<!-- Node4&#45;&gt;Node2 -->
<g id="edge3_Node000002_Node000004" class="edge">
<title>Node4&#45;&gt;Node2</title>
<g id="a_edge3_Node000002_Node000004"><a xlink:title=" ">
<path fill="none" stroke="#9a32cd" stroke-dasharray="5,2" d="M123.44,-162.86C145.3,-162.15 169.88,-161.35 192.69,-160.61"/>
<polygon fill="#9a32cd" stroke="#9a32cd" points="123.16,-159.37 113.28,-163.19 123.39,-166.36 123.16,-159.37"/>
</a>
</g>
<text text-anchor="middle" x="153" y="-166" font-family="Helvetica,sans-Serif" font-size="10.00" fill="grey"> callback</text>
</g>
<!-- Node5 -->
<g id="Node000005" class="node">
<title>Node5</title>
<g id="a_Node000005"><a xlink:href="structservio_1_1drv_1_1adc__channel__with__callback.html" target="_top" xlink:title=" ">
<polygon fill="white" stroke="#666666" points="692,-95.5 525,-95.5 525,-54.5 692,-54.5 692,-95.5"/>
<text text-anchor="start" x="533" y="-83.5" font-family="Helvetica,sans-Serif" font-size="10.00">servio::drv::adc_channel</text>
<text text-anchor="start" x="533" y="-72.5" font-family="Helvetica,sans-Serif" font-size="10.00">_with_callback&lt; drv::POSITION</text>
<text text-anchor="middle" x="608.5" y="-61.5" font-family="Helvetica,sans-Serif" font-size="10.00">_CHANNEL &gt;</text>
</a>
</g>
</g>
<!-- Node5&#45;&gt;Node1 -->
<g id="edge4_Node000001_Node000005" class="edge">
<title>Node5&#45;&gt;Node1</title>
<g id="a_edge4_Node000001_Node000005"><a xlink:title=" ">
<path fill="none" stroke="#9a32cd" stroke-dasharray="5,2" d="M702.52,-75C725.78,-75 749.99,-75 770.75,-75"/>
<polygon fill="#9a32cd" stroke="#9a32cd" points="702.28,-71.5 692.28,-75 702.28,-78.5 702.28,-71.5"/>
</a>
</g>
<text text-anchor="middle" x="731.5" y="-78" font-family="Helvetica,sans-Serif" font-size="10.00" fill="grey"> position</text>
</g>
<!-- Node6&#45;&gt;Node5 -->
<g id="edge5_Node000005_Node000006" class="edge">
<title>Node6&#45;&gt;Node5</title>
<g id="a_edge5_Node000005_Node000006"><a xlink:title=" ">
<path fill="none" stroke="#63b8ff" d="M351.05,-97.51C396.34,-93.63 454.96,-88.57 507,-84 512.85,-83.49 518.88,-82.95 524.96,-82.41"/>
<polygon fill="#63b8ff" stroke="#63b8ff" points="350.67,-94.03 341.01,-98.37 351.27,-101 350.67,-94.03"/>
</a>
</g>
</g>
<!-- Node7 -->
<g id="Node000007" class="node">
<title>Node7</title>
<g id="a_Node000007"><a xlink:href="structservio_1_1drv_1_1value__cb__iface.html" target="_top" xlink:title=" ">
<polygon fill="white" stroke="#666666" points="324.5,-71 223.5,-71 223.5,-41 324.5,-41 324.5,-71"/>
<text text-anchor="start" x="231.5" y="-59" font-family="Helvetica,sans-Serif" font-size="10.00">servio::drv::value</text>
<text text-anchor="middle" x="274" y="-48" font-family="Helvetica,sans-Serif" font-size="10.00">_cb_iface</text>
</a>
</g>
</g>
<!-- Node7&#45;&gt;Node5 -->
<g id="edge7_Node000005_Node000007" class="edge">
<title>Node7&#45;&gt;Node5</title>
<g id="a_edge7_Node000005_Node000007"><a xlink:title=" ">
<path fill="none" stroke="#9a32cd" stroke-dasharray="5,2" d="M335.04,-59.43C388.04,-62.46 465.83,-66.9 524.74,-70.27"/>
<polygon fill="#9a32cd" stroke="#9a32cd" points="334.96,-55.92 324.78,-58.84 334.56,-62.91 334.96,-55.92"/>
</a>
</g>
<text text-anchor="middle" x="440" y="-72" font-family="Helvetica,sans-Serif" font-size="10.00" fill="grey"> callback</text>
</g>
<!-- Node8&#45;&gt;Node1 -->
<g id="edge8_Node000001_Node000008" class="edge">
<title>Node8&#45;&gt;Node1</title>
<g id="a_edge8_Node000001_Node000008"><a xlink:title=" ">
<path fill="none" stroke="#9a32cd" stroke-dasharray="5,2" d="M517.15,-16.39C567.21,-18.38 633.94,-23.06 692,-34 730.73,-41.3 774.1,-55.78 800.73,-65.43"/>
<polygon fill="#9a32cd" stroke="#9a32cd" points="517.17,-12.89 507.05,-16.02 516.92,-19.89 517.17,-12.89"/>
</a>
</g>
<text text-anchor="middle" x="608.5" y="-37" font-family="Helvetica,sans-Serif" font-size="10.00" fill="grey"> vcc</text>
</g>
</g>
</svg>
