<?xml version="1.0" encoding="UTF-8" standalone="no"?>
<!DOCTYPE svg PUBLIC "-//W3C//DTD SVG 1.1//EN"
 "http://www.w3.org/Graphics/SVG/1.1/DTD/svg11.dtd">
<!-- Generated by graphviz version 2.43.0 (0)
 -->
<!-- Title: servio::cfg::dispatcher Pages: 1 -->
<svg width="443pt" height="180pt"
 viewBox="0.00 0.00 443.00 180.00" xmlns="http://www.w3.org/2000/svg" xmlns:xlink="http://www.w3.org/1999/xlink">
<g id="graph0" class="graph" transform="scale(1 1) rotate(0) translate(4 176)">
<title>servio::cfg::dispatcher</title>
<polygon fill="white" stroke="transparent" points="-4,4 -4,-176 439,-176 439,4 -4,4"/>
<!-- Node1 -->
<g id="node1" class="node">
<title>Node1</title>
<g id="a_node1"><a xlink:title=" ">
<polygon fill="#bfbfbf" stroke="black" points="310,-76.5 310,-95.5 435,-95.5 435,-76.5 310,-76.5"/>
<text text-anchor="middle" x="372.5" y="-83.5" font-family="Helvetica,sans-Serif" font-size="10.00">servio::cfg::dispatcher</text>
</a>
</g>
</g>
<!-- Node2 -->
<g id="node2" class="node">
<title>Node2</title>
<g id="a_node2"><a xlink:href="structservio_1_1core.html" target="_top" xlink:title=" ">
<polygon fill="white" stroke="black" points="191,-76.5 191,-95.5 265,-95.5 265,-76.5 191,-76.5"/>
<text text-anchor="middle" x="228" y="-83.5" font-family="Helvetica,sans-Serif" font-size="10.00">servio::core</text>
</a>
</g>
</g>
<!-- Node2&#45;&gt;Node1 -->
<g id="edge1" class="edge">
<title>Node2&#45;&gt;Node1</title>
<path fill="none" stroke="#9a32cd" stroke-dasharray="5,2" d="M275.51,-86C286.45,-86 298.28,-86 309.77,-86"/>
<polygon fill="#9a32cd" stroke="#9a32cd" points="275.33,-82.5 265.33,-86 275.33,-89.5 275.33,-82.5"/>
<text text-anchor="middle" x="287.5" y="-89" font-family="Helvetica,sans-Serif" font-size="10.00"> c</text>
</g>
<!-- Node3 -->
<g id="node3" class="node">
<title>Node3</title>
<g id="a_node3"><a xlink:href="classservio_1_1mon_1_1monitor.html" target="_top" xlink:title=" ">
<polygon fill="white" stroke="black" points="4.5,-152.5 4.5,-171.5 123.5,-171.5 123.5,-152.5 4.5,-152.5"/>
<text text-anchor="middle" x="64" y="-159.5" font-family="Helvetica,sans-Serif" font-size="10.00">servio::mon::monitor</text>
</a>
</g>
</g>
<!-- Node3&#45;&gt;Node2 -->
<g id="edge2" class="edge">
<title>Node3&#45;&gt;Node2</title>
<path fill="none" stroke="#9a32cd" stroke-dasharray="5,2" d="M109.63,-149.41C115.85,-147.41 122.12,-145.25 128,-143 148.62,-135.13 153.76,-132.82 173,-122 187.34,-113.94 202.89,-103.36 213.6,-95.76"/>
<polygon fill="#9a32cd" stroke="#9a32cd" points="108.46,-146.11 99.96,-152.43 110.55,-152.79 108.46,-146.11"/>
<text text-anchor="middle" x="159.5" y="-138" font-family="Helvetica,sans-Serif" font-size="10.00"> mon</text>
</g>
<!-- Node4 -->
<g id="node4" class="node">
<title>Node4</title>
<g id="a_node4"><a xlink:href="structservio_1_1cnv_1_1converter.html" target="_top" xlink:title=" ">
<polygon fill="white" stroke="red" points="3,-114.5 3,-133.5 125,-133.5 125,-114.5 3,-114.5"/>
<text text-anchor="middle" x="64" y="-121.5" font-family="Helvetica,sans-Serif" font-size="10.00">servio::cnv::converter</text>
</a>
</g>
</g>
<!-- Node4&#45;&gt;Node2 -->
<g id="edge3" class="edge">
<title>Node4&#45;&gt;Node2</title>
<path fill="none" stroke="#9a32cd" stroke-dasharray="5,2" d="M122.67,-112.4C138.99,-108.93 156.73,-104.99 173,-101 179.8,-99.33 187.05,-97.42 193.96,-95.52"/>
<polygon fill="#9a32cd" stroke="#9a32cd" points="121.79,-109.01 112.72,-114.49 123.23,-115.86 121.79,-109.01"/>
<text text-anchor="middle" x="159.5" y="-110" font-family="Helvetica,sans-Serif" font-size="10.00"> conv</text>
</g>
<!-- Node9 -->
<g id="node5" class="node">
<title>Node9</title>
<g id="a_node5"><a xlink:href="classservio_1_1mon_1_1indication.html" target="_top" xlink:title=" ">
<polygon fill="white" stroke="black" points="0,-76.5 0,-95.5 128,-95.5 128,-76.5 0,-76.5"/>
<text text-anchor="middle" x="64" y="-83.5" font-family="Helvetica,sans-Serif" font-size="10.00">servio::mon::indication</text>
</a>
</g>
</g>
<!-- Node9&#45;&gt;Node2 -->
<g id="edge4" class="edge">
<title>Node9&#45;&gt;Node2</title>
<path fill="none" stroke="#9a32cd" stroke-dasharray="5,2" d="M138.2,-86C156.52,-86 175.37,-86 190.97,-86"/>
<polygon fill="#9a32cd" stroke="#9a32cd" points="138.1,-82.5 128.1,-86 138.1,-89.5 138.1,-82.5"/>
<text text-anchor="middle" x="159.5" y="-89" font-family="Helvetica,sans-Serif" font-size="10.00"> ind</text>
</g>
<!-- Node10 -->
<g id="node6" class="node">
<title>Node10</title>
<g id="a_node6"><a xlink:href="classservio_1_1mtr_1_1metrics.html" target="_top" xlink:title=" ">
<polygon fill="white" stroke="black" points="7.5,-38.5 7.5,-57.5 120.5,-57.5 120.5,-38.5 7.5,-38.5"/>
<text text-anchor="middle" x="64" y="-45.5" font-family="Helvetica,sans-Serif" font-size="10.00">servio::mtr::metrics</text>
</a>
</g>
</g>
<!-- Node10&#45;&gt;Node2 -->
<g id="edge5" class="edge">
<title>Node10&#45;&gt;Node2</title>
<path fill="none" stroke="#9a32cd" stroke-dasharray="5,2" d="M122.67,-59.6C138.99,-63.07 156.73,-67.01 173,-71 179.8,-72.67 187.05,-74.58 193.96,-76.48"/>
<polygon fill="#9a32cd" stroke="#9a32cd" points="123.23,-56.14 112.72,-57.51 121.79,-62.99 123.23,-56.14"/>
<text text-anchor="middle" x="159.5" y="-74" font-family="Helvetica,sans-Serif" font-size="10.00"> met</text>
</g>
<!-- Node11 -->
<g id="node7" class="node">
<title>Node11</title>
<g id="a_node7"><a xlink:href="classservio_1_1ctl_1_1control.html" target="_top" xlink:title=" ">
<polygon fill="white" stroke="black" points="12,-0.5 12,-19.5 116,-19.5 116,-0.5 12,-0.5"/>
<text text-anchor="middle" x="64" y="-7.5" font-family="Helvetica,sans-Serif" font-size="10.00">servio::ctl::control</text>
</a>
</g>
</g>
<!-- Node11&#45;&gt;Node2 -->
<g id="edge6" class="edge">
<title>Node11&#45;&gt;Node2</title>
<path fill="none" stroke="#9a32cd" stroke-dasharray="5,2" d="M110.08,-22.64C130.02,-29.14 153.35,-38.02 173,-49 187.88,-57.31 203.86,-68.59 214.55,-76.5"/>
<polygon fill="#9a32cd" stroke="#9a32cd" points="110.89,-19.23 100.3,-19.55 108.78,-25.9 110.89,-19.23"/>
<text text-anchor="middle" x="159.5" y="-52" font-family="Helvetica,sans-Serif" font-size="10.00"> ctl</text>
</g>
</g>
</svg>
