<?xml version="1.0" encoding="UTF-8" standalone="no"?>
<!DOCTYPE svg PUBLIC "-//W3C//DTD SVG 1.1//EN"
 "http://www.w3.org/Graphics/SVG/1.1/DTD/svg11.dtd">
<!-- Generated by graphviz version 2.43.0 (0)
 -->
<!-- Title: servio::core::drivers Pages: 1 -->
<svg width="527pt" height="482pt"
 viewBox="0.00 0.00 527.00 481.50" xmlns="http://www.w3.org/2000/svg" xmlns:xlink="http://www.w3.org/1999/xlink">
<g id="graph0" class="graph" transform="scale(1 1) rotate(0) translate(4 477.5)">
<title>servio::core::drivers</title>
<!-- Node1 -->
<g id="Node000001" class="node">
<title>Node1</title>
<g id="a_Node000001"><a xlink:title=" ">
<polygon fill="#999999" stroke="#666666" points="519,-256 406,-256 406,-237 519,-237 519,-256"/>
<text text-anchor="middle" x="462.5" y="-244" font-family="Helvetica,sans-Serif" font-size="10.00">servio::core::drivers</text>
</a>
</g>
</g>
<!-- Node2 -->
<g id="Node000002" class="node">
<title>Node2</title>
<g id="a_Node000002"><a xlink:href="namespaceservio_1_1cfg.html#structservio_1_1cfg_1_1context" target="_top" xlink:title=" ">
<polygon fill="white" stroke="#666666" points="295,-472 185,-472 185,-453 295,-453 295,-472"/>
<text text-anchor="middle" x="240" y="-460" font-family="Helvetica,sans-Serif" font-size="10.00">servio::cfg::context</text>
</a>
</g>
</g>
<!-- Node2&#45;&gt;Node1 -->
<g id="edge1_Node000001_Node000002" class="edge">
<title>Node2&#45;&gt;Node1</title>
<g id="a_edge1_Node000001_Node000002"><a xlink:title=" ">
<path fill="none" stroke="#9a32cd" stroke-dasharray="5,2" d="M305.27,-457.65C333.46,-452.58 365.25,-442.47 388,-422.5 440.76,-376.19 456.54,-285.88 460.41,-256.21"/>
<polygon fill="#9a32cd" stroke="#9a32cd" points="304.38,-454.25 295.06,-459.3 305.49,-461.16 304.38,-454.25"/>
</a>
</g>
<text text-anchor="middle" x="356" y="-455.5" font-family="Helvetica,sans-Serif" font-size="10.00" fill="grey"> cfg</text>
</g>
<!-- Node3 -->
<g id="Node000003" class="node">
<title>Node3</title>
<g id="a_Node000003"><a xlink:href="structservio_1_1cfg_1_1map.html" target="_top" xlink:title=" ">
<polygon fill="#fff0f0" stroke="red" points="104,-472 9,-472 9,-453 104,-453 104,-472"/>
<text text-anchor="middle" x="56.5" y="-460" font-family="Helvetica,sans-Serif" font-size="10.00">servio::cfg::map</text>
</a>
</g>
</g>
<!-- Node3&#45;&gt;Node2 -->
<g id="edge2_Node000002_Node000003" class="edge">
<title>Node3&#45;&gt;Node2</title>
<g id="a_edge2_Node000002_Node000003"><a xlink:title=" ">
<path fill="none" stroke="#9a32cd" stroke-dasharray="5,2" d="M114.31,-462.5C136.77,-462.5 162.48,-462.5 184.69,-462.5"/>
<polygon fill="#9a32cd" stroke="#9a32cd" points="114.24,-459 104.24,-462.5 114.24,-466 114.24,-459"/>
</a>
</g>
<text text-anchor="middle" x="143.5" y="-465.5" font-family="Helvetica,sans-Serif" font-size="10.00" fill="grey"> map</text>
</g>
<!-- Node5 -->
<g id="Node000005" class="node">
<title>Node5</title>
<g id="a_Node000005"><a xlink:href="structservio_1_1drv_1_1storage__iface.html" target="_top" xlink:title=" ">
<polygon fill="white" stroke="#666666" points="295,-434.5 185,-434.5 185,-404.5 295,-404.5 295,-434.5"/>
<text text-anchor="start" x="193" y="-422.5" font-family="Helvetica,sans-Serif" font-size="10.00">servio::drv::storage</text>
<text text-anchor="middle" x="240" y="-411.5" font-family="Helvetica,sans-Serif" font-size="10.00">_iface</text>
</a>
</g>
</g>
<!-- Node5&#45;&gt;Node1 -->
<g id="edge3_Node000001_Node000005" class="edge">
<title>Node5&#45;&gt;Node1</title>
<g id="a_edge3_Node000001_Node000005"><a xlink:title=" ">
<path fill="none" stroke="#9a32cd" stroke-dasharray="5,2" d="M305.27,-412.77C333.03,-407.21 364.46,-397.05 388,-378.5 430.23,-345.22 451.96,-280.59 458.94,-256.17"/>
<polygon fill="#9a32cd" stroke="#9a32cd" points="304.43,-409.37 295.23,-414.62 305.7,-416.25 304.43,-409.37"/>
</a>
</g>
<text text-anchor="middle" x="356" y="-410.5" font-family="Helvetica,sans-Serif" font-size="10.00" fill="grey"> storage</text>
</g>
<!-- Node6 -->
<g id="Node000006" class="node">
<title>Node6</title>
<g id="a_Node000006"><a xlink:href="structservio_1_1drv_1_1clk__iface.html" target="_top" xlink:title=" ">
<polygon fill="white" stroke="#666666" points="298.5,-386 181.5,-386 181.5,-367 298.5,-367 298.5,-386"/>
<text text-anchor="middle" x="240" y="-374" font-family="Helvetica,sans-Serif" font-size="10.00">servio::drv::clk_iface</text>
</a>
</g>
</g>
<!-- Node6&#45;&gt;Node1 -->
<g id="edge4_Node000001_Node000006" class="edge">
<title>Node6&#45;&gt;Node1</title>
<g id="a_edge4_Node000001_Node000006"><a xlink:title=" ">
<path fill="none" stroke="#9a32cd" stroke-dasharray="5,2" d="M308.48,-368.43C334.85,-362.96 364.36,-353.81 388,-338.5 421.29,-316.94 446.33,-275.22 456.51,-256.28"/>
<polygon fill="#9a32cd" stroke="#9a32cd" points="307.7,-365.01 298.55,-370.35 309.03,-371.89 307.7,-365.01"/>
</a>
</g>
<text text-anchor="middle" x="356" y="-366.5" font-family="Helvetica,sans-Serif" font-size="10.00" fill="grey"> clock</text>
</g>
<!-- Node7 -->
<g id="Node000007" class="node">
<title>Node7</title>
<g id="a_Node000007"><a xlink:href="structservio_1_1drv_1_1pos__iface.html" target="_top" xlink:title=" ">
<polygon fill="white" stroke="#666666" points="300,-349 180,-349 180,-330 300,-330 300,-349"/>
<text text-anchor="middle" x="240" y="-337" font-family="Helvetica,sans-Serif" font-size="10.00">servio::drv::pos_iface</text>
</a>
</g>
</g>
<!-- Node7&#45;&gt;Node1 -->
<g id="edge5_Node000001_Node000007" class="edge">
<title>Node7&#45;&gt;Node1</title>
<g id="a_edge5_Node000001_Node000007"><a xlink:title=" ">
<path fill="none" stroke="#9a32cd" stroke-dasharray="5,2" d="M308.99,-327.72C334.54,-321.82 363.35,-313.34 388,-301.5 413,-289.5 437.97,-268.4 451.4,-256.12"/>
<polygon fill="#9a32cd" stroke="#9a32cd" points="308.01,-324.36 299.01,-329.94 309.53,-331.19 308.01,-324.36"/>
</a>
</g>
<text text-anchor="middle" x="356" y="-326.5" font-family="Helvetica,sans-Serif" font-size="10.00" fill="grey"> position</text>
</g>
<!-- Node8 -->
<g id="Node000008" class="node">
<title>Node8</title>
<g id="a_Node000008"><a xlink:href="structservio_1_1drv_1_1get__pos__iface.html" target="_top" xlink:title=" ">
<polygon fill="white" stroke="#666666" points="112.5,-359.5 0.5,-359.5 0.5,-329.5 112.5,-329.5 112.5,-359.5"/>
<text text-anchor="start" x="8.5" y="-347.5" font-family="Helvetica,sans-Serif" font-size="10.00">servio::drv::get_pos</text>
<text text-anchor="middle" x="56.5" y="-336.5" font-family="Helvetica,sans-Serif" font-size="10.00">_iface</text>
</a>
</g>
</g>
<!-- Node8&#45;&gt;Node7 -->
<g id="edge6_Node000007_Node000008" class="edge">
<title>Node8&#45;&gt;Node7</title>
<g id="a_edge6_Node000007_Node000008"><a xlink:title=" ">
<path fill="none" stroke="#63b8ff" d="M123.06,-342.69C141.6,-342.18 161.66,-341.63 179.8,-341.13"/>
<polygon fill="#63b8ff" stroke="#63b8ff" points="122.84,-339.2 112.94,-342.97 123.03,-346.2 122.84,-339.2"/>
</a>
</g>
</g>
<!-- Node9 -->
<g id="Node000009" class="node">
<title>Node9</title>
<g id="a_Node000009"><a xlink:href="structservio_1_1drv_1_1curr__iface.html" target="_top" xlink:title=" ">
<polygon fill="white" stroke="#666666" points="301,-312 179,-312 179,-293 301,-293 301,-312"/>
<text text-anchor="middle" x="240" y="-300" font-family="Helvetica,sans-Serif" font-size="10.00">servio::drv::curr_iface</text>
</a>
</g>
</g>
<!-- Node9&#45;&gt;Node1 -->
<g id="edge7_Node000001_Node000009" class="edge">
<title>Node9&#45;&gt;Node1</title>
<g id="a_edge7_Node000001_Node000009"><a xlink:title=" ">
<path fill="none" stroke="#9a32cd" stroke-dasharray="5,2" d="M306.87,-291.08C332.4,-286.13 361.74,-279.79 388,-272.5 404.69,-267.87 423.07,-261.37 437.27,-256.03"/>
<polygon fill="#9a32cd" stroke="#9a32cd" points="306.09,-287.66 296.93,-292.98 307.41,-294.54 306.09,-287.66"/>
</a>
</g>
<text text-anchor="middle" x="356" y="-289.5" font-family="Helvetica,sans-Serif" font-size="10.00" fill="grey"> current</text>
</g>
<!-- Node10 -->
<g id="Node000010" class="node">
<title>Node10</title>
<g id="a_Node000010"><a xlink:href="structservio_1_1drv_1_1get__curr__iface.html" target="_top" xlink:title=" ">
<polygon fill="white" stroke="#666666" points="113,-311.5 0,-311.5 0,-281.5 113,-281.5 113,-311.5"/>
<text text-anchor="start" x="8" y="-299.5" font-family="Helvetica,sans-Serif" font-size="10.00">servio::drv::get_curr</text>
<text text-anchor="middle" x="56.5" y="-288.5" font-family="Helvetica,sans-Serif" font-size="10.00">_iface</text>
</a>
</g>
</g>
<!-- Node10&#45;&gt;Node9 -->
<g id="edge8_Node000009_Node000010" class="edge">
<title>Node10&#45;&gt;Node9</title>
<g id="a_edge8_Node000009_Node000010"><a xlink:title=" ">
<path fill="none" stroke="#63b8ff" d="M123.59,-298.68C141.65,-299.28 161.13,-299.93 178.84,-300.51"/>
<polygon fill="#63b8ff" stroke="#63b8ff" points="123.55,-295.18 113.44,-298.35 123.32,-302.18 123.55,-295.18"/>
</a>
</g>
</g>
<!-- Node11 -->
<g id="Node000011" class="node">
<title>Node11</title>
<g id="a_Node000011"><a xlink:href="structservio_1_1drv_1_1vcc__iface.html" target="_top" xlink:title=" ">
<polygon fill="white" stroke="#666666" points="299.5,-275 180.5,-275 180.5,-256 299.5,-256 299.5,-275"/>
<text text-anchor="middle" x="240" y="-263" font-family="Helvetica,sans-Serif" font-size="10.00">servio::drv::vcc_iface</text>
</a>
</g>
</g>
<!-- Node11&#45;&gt;Node1 -->
<g id="edge9_Node000001_Node000011" class="edge">
<title>Node11&#45;&gt;Node1</title>
<g id="a_edge9_Node000001_Node000011"><a xlink:title=" ">
<path fill="none" stroke="#9a32cd" stroke-dasharray="5,2" d="M309.77,-259.57C340.64,-256.91 376.6,-253.82 405.76,-251.3"/>
<polygon fill="#9a32cd" stroke="#9a32cd" points="309.17,-256.11 299.51,-260.46 309.77,-263.09 309.17,-256.11"/>
</a>
</g>
<text text-anchor="middle" x="356" y="-260.5" font-family="Helvetica,sans-Serif" font-size="10.00" fill="grey"> vcc</text>
</g>
<!-- Node12 -->
<g id="Node000012" class="node">
<title>Node12</title>
<g id="a_Node000012"><a xlink:href="structservio_1_1drv_1_1temp__iface.html" target="_top" xlink:title=" ">
<polygon fill="white" stroke="#666666" points="304,-238 176,-238 176,-219 304,-219 304,-238"/>
<text text-anchor="middle" x="240" y="-226" font-family="Helvetica,sans-Serif" font-size="10.00">servio::drv::temp_iface</text>
</a>
</g>
</g>
<!-- Node12&#45;&gt;Node1 -->
<g id="edge10_Node000001_Node000012" class="edge">
<title>Node12&#45;&gt;Node1</title>
<g id="a_edge10_Node000001_Node000012"><a xlink:title=" ">
<path fill="none" stroke="#9a32cd" stroke-dasharray="5,2" d="M314.37,-228.18C337.94,-228.69 364.12,-229.92 388,-232.5 397.69,-233.55 408.01,-235.18 417.76,-236.97"/>
<polygon fill="#9a32cd" stroke="#9a32cd" points="314.16,-224.67 304.1,-227.99 314.04,-231.67 314.16,-224.67"/>
</a>
</g>
<text text-anchor="middle" x="356" y="-235.5" font-family="Helvetica,sans-Serif" font-size="10.00" fill="grey"> temperature</text>
</g>
<!-- Node13 -->
<g id="Node000013" class="node">
<title>Node13</title>
<g id="a_Node000013"><a xlink:href="structservio_1_1drv_1_1period__cb__iface.html" target="_top" xlink:title=" ">
<polygon fill="white" stroke="#666666" points="292,-200.5 188,-200.5 188,-170.5 292,-170.5 292,-200.5"/>
<text text-anchor="start" x="196" y="-188.5" font-family="Helvetica,sans-Serif" font-size="10.00">servio::drv::period</text>
<text text-anchor="middle" x="240" y="-177.5" font-family="Helvetica,sans-Serif" font-size="10.00">_cb_iface</text>
</a>
</g>
</g>
<!-- Node13&#45;&gt;Node1 -->
<g id="edge11_Node000001_Node000013" class="edge">
<title>Node13&#45;&gt;Node1</title>
<g id="a_edge11_Node000001_Node000013"><a xlink:title=" ">
<path fill="none" stroke="#9a32cd" stroke-dasharray="5,2" d="M302.06,-193.85C328.8,-198.34 360.31,-204.78 388,-213.5 407.48,-219.63 428.65,-229.51 443.24,-236.86"/>
<polygon fill="#9a32cd" stroke="#9a32cd" points="302.5,-190.37 292.07,-192.22 301.38,-197.28 302.5,-190.37"/>
</a>
</g>
<text text-anchor="middle" x="356" y="-216.5" font-family="Helvetica,sans-Serif" font-size="10.00" fill="grey"> period_cb</text>
</g>
<!-- Node14 -->
<g id="Node000014" class="node">
<title>Node14</title>
<g id="a_Node000014"><a xlink:href="structservio_1_1drv_1_1pwm__motor__iface.html" target="_top" xlink:title=" ">
<polygon fill="white" stroke="#666666" points="306,-152.5 174,-152.5 174,-122.5 306,-122.5 306,-152.5"/>
<text text-anchor="start" x="182" y="-140.5" font-family="Helvetica,sans-Serif" font-size="10.00">servio::drv::pwm_motor</text>
<text text-anchor="middle" x="240" y="-129.5" font-family="Helvetica,sans-Serif" font-size="10.00">_iface</text>
</a>
</g>
</g>
<!-- Node14&#45;&gt;Node1 -->
<g id="edge12_Node000001_Node000014" class="edge">
<title>Node14&#45;&gt;Node1</title>
<g id="a_edge12_Node000001_Node000014"><a xlink:title=" ">
<path fill="none" stroke="#9a32cd" stroke-dasharray="5,2" d="M316.05,-153.92C339.91,-160.84 365.85,-170.2 388,-182.5 414.63,-197.28 440.15,-222.92 452.95,-236.84"/>
<polygon fill="#9a32cd" stroke="#9a32cd" points="316.89,-150.52 306.32,-151.2 315,-157.27 316.89,-150.52"/>
</a>
</g>
<text text-anchor="middle" x="356" y="-185.5" font-family="Helvetica,sans-Serif" font-size="10.00" fill="grey"> motor</text>
</g>
<!-- Node15 -->
<g id="Node000015" class="node">
<title>Node15</title>
<g id="a_Node000015"><a xlink:href="structservio_1_1drv_1_1motor__info__iface.html" target="_top" xlink:title=" ">
<polygon fill="white" stroke="#666666" points="108,-152.5 5,-152.5 5,-122.5 108,-122.5 108,-152.5"/>
<text text-anchor="start" x="13" y="-140.5" font-family="Helvetica,sans-Serif" font-size="10.00">servio::drv::motor</text>
<text text-anchor="middle" x="56.5" y="-129.5" font-family="Helvetica,sans-Serif" font-size="10.00">_info_iface</text>
</a>
</g>
</g>
<!-- Node15&#45;&gt;Node14 -->
<g id="edge13_Node000014_Node000015" class="edge">
<title>Node15&#45;&gt;Node14</title>
<g id="a_edge13_Node000014_Node000015"><a xlink:title=" ">
<path fill="none" stroke="#63b8ff" d="M118.32,-137.5C136.14,-137.5 155.68,-137.5 173.76,-137.5"/>
<polygon fill="#63b8ff" stroke="#63b8ff" points="118.06,-134 108.06,-137.5 118.06,-141 118.06,-134"/>
</a>
</g>
</g>
<!-- Node16 -->
<g id="Node000016" class="node">
<title>Node16</title>
<g id="a_Node000016"><a xlink:href="structservio_1_1drv_1_1period__iface.html" target="_top" xlink:title=" ">
<polygon fill="white" stroke="#666666" points="292,-104.5 188,-104.5 188,-74.5 292,-74.5 292,-104.5"/>
<text text-anchor="start" x="196" y="-92.5" font-family="Helvetica,sans-Serif" font-size="10.00">servio::drv::period</text>
<text text-anchor="middle" x="240" y="-81.5" font-family="Helvetica,sans-Serif" font-size="10.00">_iface</text>
</a>
</g>
</g>
<!-- Node16&#45;&gt;Node1 -->
<g id="edge14_Node000001_Node000016" class="edge">
<title>Node16&#45;&gt;Node1</title>
<g id="a_edge14_Node000001_Node000016"><a xlink:title=" ">
<path fill="none" stroke="#9a32cd" stroke-dasharray="5,2" d="M301.84,-101.94C330.06,-109.88 362.84,-122.37 388,-141.5 423.07,-168.16 447.86,-216.39 457.29,-236.88"/>
<polygon fill="#9a32cd" stroke="#9a32cd" points="302.64,-98.53 292.07,-99.32 300.82,-105.29 302.64,-98.53"/>
</a>
</g>
<text text-anchor="middle" x="356" y="-144.5" font-family="Helvetica,sans-Serif" font-size="10.00" fill="grey"> period</text>
</g>
<!-- Node17 -->
<g id="Node000017" class="node">
<title>Node17</title>
<g id="a_Node000017"><a xlink:href="structservio_1_1drv_1_1com__iface.html" target="_top" xlink:title=" ">
<polygon fill="white" stroke="#666666" points="302,-56 178,-56 178,-37 302,-37 302,-56"/>
<text text-anchor="middle" x="240" y="-44" font-family="Helvetica,sans-Serif" font-size="10.00">servio::drv::com_iface</text>
</a>
</g>
</g>
<!-- Node17&#45;&gt;Node1 -->
<g id="edge15_Node000001_Node000017" class="edge">
<title>Node17&#45;&gt;Node1</title>
<g id="a_edge15_Node000001_Node000017"><a xlink:title=" ">
<path fill="none" stroke="#9a32cd" stroke-dasharray="5,2" d="M312.12,-57.26C338.45,-64.23 366.98,-75.68 388,-94.5 433.43,-135.17 453.56,-210.09 459.51,-236.76"/>
<polygon fill="#9a32cd" stroke="#9a32cd" points="312.7,-53.8 302.15,-54.8 311.02,-60.59 312.7,-53.8"/>
</a>
</g>
<text text-anchor="middle" x="356" y="-97.5" font-family="Helvetica,sans-Serif" font-size="10.00" fill="grey"> comms</text>
</g>
<!-- Node18 -->
<g id="Node000018" class="node">
<title>Node18</title>
<g id="a_Node000018"><a xlink:href="structservio_1_1drv_1_1leds__iface.html" target="_top" xlink:title=" ">
<polygon fill="white" stroke="#666666" points="301.5,-19 178.5,-19 178.5,0 301.5,0 301.5,-19"/>
<text text-anchor="middle" x="240" y="-7" font-family="Helvetica,sans-Serif" font-size="10.00">servio::drv::leds_iface</text>
</a>
</g>
</g>
<!-- Node18&#45;&gt;Node1 -->
<g id="edge16_Node000001_Node000018" class="edge">
<title>Node18&#45;&gt;Node1</title>
<g id="a_edge16_Node000001_Node000018"><a xlink:title=" ">
<path fill="none" stroke="#9a32cd" stroke-dasharray="5,2" d="M311.6,-13.45C338.27,-18.22 367.18,-27.77 388,-46.5 447.13,-99.69 458.78,-204.61 461,-236.85"/>
<polygon fill="#9a32cd" stroke="#9a32cd" points="311.93,-9.96 301.5,-11.85 310.83,-16.87 311.93,-9.96"/>
</a>
</g>
<text text-anchor="middle" x="356" y="-49.5" font-family="Helvetica,sans-Serif" font-size="10.00" fill="grey"> leds</text>
</g>
</g>
</svg>
