<?xml version="1.0" encoding="UTF-8" standalone="no"?>
<!DOCTYPE svg PUBLIC "-//W3C//DTD SVG 1.1//EN"
 "http://www.w3.org/Graphics/SVG/1.1/DTD/svg11.dtd">
<!-- Generated by graphviz version 2.43.0 (0)
 -->
<!-- Title: servio::cfg::dispatcher Pages: 1 -->
<svg width="547pt" height="162pt"
 viewBox="0.00 0.00 546.50 162.00" xmlns="http://www.w3.org/2000/svg" xmlns:xlink="http://www.w3.org/1999/xlink">
<g id="graph0" class="graph" transform="scale(1 1) rotate(0) translate(4 158)">
<title>servio::cfg::dispatcher</title>
<polygon fill="white" stroke="transparent" points="-4,4 -4,-158 542.5,-158 542.5,4 -4,4"/>
<!-- Node1 -->
<g id="node1" class="node">
<title>Node1</title>
<g id="a_node1"><a xlink:title=" ">
<polygon fill="#bfbfbf" stroke="black" points="204.5,-0.5 204.5,-19.5 329.5,-19.5 329.5,-0.5 204.5,-0.5"/>
<text text-anchor="middle" x="267" y="-7.5" font-family="Helvetica,sans-Serif" font-size="10.00">servio::cfg::dispatcher</text>
</a>
</g>
</g>
<!-- Node2 -->
<g id="node2" class="node">
<title>Node2</title>
<g id="a_node2"><a xlink:href="structservio_1_1core.html" target="_top" xlink:title=" ">
<polygon fill="white" stroke="black" points="230,-67.5 230,-86.5 304,-86.5 304,-67.5 230,-67.5"/>
<text text-anchor="middle" x="267" y="-74.5" font-family="Helvetica,sans-Serif" font-size="10.00">servio::core</text>
</a>
</g>
</g>
<!-- Node2&#45;&gt;Node1 -->
<g id="edge1" class="edge">
<title>Node2&#45;&gt;Node1</title>
<path fill="none" stroke="#9a32cd" stroke-dasharray="5,2" d="M267,-57.04C267,-44.67 267,-29.12 267,-19.63"/>
<polygon fill="#9a32cd" stroke="#9a32cd" points="263.5,-57.23 267,-67.23 270.5,-57.23 263.5,-57.23"/>
<text text-anchor="middle" x="271.5" y="-41" font-family="Helvetica,sans-Serif" font-size="10.00"> c</text>
</g>
<!-- Node3 -->
<g id="node3" class="node">
<title>Node3</title>
<g id="a_node3"><a xlink:href="classservio_1_1control.html" target="_top" xlink:title=" ">
<polygon fill="white" stroke="black" points="0,-134.5 0,-153.5 86,-153.5 86,-134.5 0,-134.5"/>
<text text-anchor="middle" x="43" y="-141.5" font-family="Helvetica,sans-Serif" font-size="10.00">servio::control</text>
</a>
</g>
</g>
<!-- Node3&#45;&gt;Node2 -->
<g id="edge2" class="edge">
<title>Node3&#45;&gt;Node2</title>
<path fill="none" stroke="#9a32cd" stroke-dasharray="5,2" d="M82.6,-131.51C126.93,-118.65 197.75,-98.09 237.49,-86.56"/>
<polygon fill="#9a32cd" stroke="#9a32cd" points="81.37,-128.22 72.75,-134.37 83.32,-134.94 81.37,-128.22"/>
<text text-anchor="middle" x="177" y="-108" font-family="Helvetica,sans-Serif" font-size="10.00"> ctl</text>
</g>
<!-- Node4 -->
<g id="node4" class="node">
<title>Node4</title>
<g id="a_node4"><a xlink:href="structservio_1_1converter.html" target="_top" xlink:title=" ">
<polygon fill="white" stroke="red" points="104.5,-134.5 104.5,-153.5 203.5,-153.5 203.5,-134.5 104.5,-134.5"/>
<text text-anchor="middle" x="154" y="-141.5" font-family="Helvetica,sans-Serif" font-size="10.00">servio::converter</text>
</a>
</g>
</g>
<!-- Node4&#45;&gt;Node2 -->
<g id="edge3" class="edge">
<title>Node4&#45;&gt;Node2</title>
<path fill="none" stroke="#9a32cd" stroke-dasharray="5,2" d="M178.14,-129.12C200.53,-116.24 233.14,-97.48 252,-86.63"/>
<polygon fill="#9a32cd" stroke="#9a32cd" points="176.16,-126.21 169.24,-134.23 179.65,-132.28 176.16,-126.21"/>
<text text-anchor="middle" x="231.5" y="-108" font-family="Helvetica,sans-Serif" font-size="10.00"> conv</text>
</g>
<!-- Node9 -->
<g id="node5" class="node">
<title>Node9</title>
<g id="a_node5"><a xlink:href="classservio_1_1monitor.html" target="_top" xlink:title=" ">
<polygon fill="white" stroke="black" points="221.5,-134.5 221.5,-153.5 312.5,-153.5 312.5,-134.5 221.5,-134.5"/>
<text text-anchor="middle" x="267" y="-141.5" font-family="Helvetica,sans-Serif" font-size="10.00">servio::monitor</text>
</a>
</g>
</g>
<!-- Node9&#45;&gt;Node2 -->
<g id="edge4" class="edge">
<title>Node9&#45;&gt;Node2</title>
<path fill="none" stroke="#9a32cd" stroke-dasharray="5,2" d="M267,-124.04C267,-111.67 267,-96.12 267,-86.63"/>
<polygon fill="#9a32cd" stroke="#9a32cd" points="263.5,-124.23 267,-134.23 270.5,-124.23 263.5,-124.23"/>
<text text-anchor="middle" x="279.5" y="-108" font-family="Helvetica,sans-Serif" font-size="10.00"> mon</text>
</g>
<!-- Node10 -->
<g id="node6" class="node">
<title>Node10</title>
<g id="a_node6"><a xlink:href="classservio_1_1indication.html" target="_top" xlink:title=" ">
<polygon fill="white" stroke="black" points="330.5,-134.5 330.5,-153.5 431.5,-153.5 431.5,-134.5 330.5,-134.5"/>
<text text-anchor="middle" x="381" y="-141.5" font-family="Helvetica,sans-Serif" font-size="10.00">servio::indication</text>
</a>
</g>
</g>
<!-- Node10&#45;&gt;Node2 -->
<g id="edge5" class="edge">
<title>Node10&#45;&gt;Node2</title>
<path fill="none" stroke="#9a32cd" stroke-dasharray="5,2" d="M356.65,-129.12C334.06,-116.24 301.16,-97.48 282.13,-86.63"/>
<polygon fill="#9a32cd" stroke="#9a32cd" points="355.2,-132.32 365.63,-134.23 358.67,-126.24 355.2,-132.32"/>
<text text-anchor="middle" x="339.5" y="-108" font-family="Helvetica,sans-Serif" font-size="10.00"> ind</text>
</g>
<!-- Node11 -->
<g id="node7" class="node">
<title>Node11</title>
<g id="a_node7"><a xlink:href="classservio_1_1metrics.html" target="_top" xlink:title=" ">
<polygon fill="white" stroke="black" points="449.5,-134.5 449.5,-153.5 538.5,-153.5 538.5,-134.5 449.5,-134.5"/>
<text text-anchor="middle" x="494" y="-141.5" font-family="Helvetica,sans-Serif" font-size="10.00">servio::metrics</text>
</a>
</g>
</g>
<!-- Node11&#45;&gt;Node2 -->
<g id="edge6" class="edge">
<title>Node11&#45;&gt;Node2</title>
<path fill="none" stroke="#9a32cd" stroke-dasharray="5,2" d="M454.16,-131.59C409.25,-118.73 337.26,-98.12 296.91,-86.56"/>
<polygon fill="#9a32cd" stroke="#9a32cd" points="453.28,-134.98 463.86,-134.37 455.21,-128.25 453.28,-134.98"/>
<text text-anchor="middle" x="405.5" y="-108" font-family="Helvetica,sans-Serif" font-size="10.00"> met</text>
</g>
</g>
</svg>
