<?xml version="1.0" encoding="UTF-8" standalone="no"?>
<!DOCTYPE svg PUBLIC "-//W3C//DTD SVG 1.1//EN"
 "http://www.w3.org/Graphics/SVG/1.1/DTD/svg11.dtd">
<!-- Generated by graphviz version 2.43.0 (0)
 -->
<!-- Title: src/ftester/system.hpp Pages: 1 -->
<svg width="1542pt" height="159pt"
 viewBox="0.00 0.00 1542.00 159.00" xmlns="http://www.w3.org/2000/svg" xmlns:xlink="http://www.w3.org/1999/xlink">
<g id="graph0" class="graph" transform="scale(1 1) rotate(0) translate(4 155)">
<title>src/ftester/system.hpp</title>
<!-- Node1 -->
<g id="Node000001" class="node">
<title>Node1</title>
<g id="a_Node000001"><a xlink:title=" ">
<polygon fill="#999999" stroke="#666666" points="924,-151 799,-151 799,-132 924,-132 924,-151"/>
<text text-anchor="middle" x="861.5" y="-139" font-family="Helvetica,sans-Serif" font-size="10.00">src/ftester/system.hpp</text>
</a>
</g>
</g>
<!-- Node2 -->
<g id="Node000002" class="node">
<title>Node2</title>
<g id="a_Node000002"><a xlink:href="port_8hpp.html" target="_top" xlink:title=" ">
<polygon fill="white" stroke="#666666" points="350.5,-90.5 246.5,-90.5 246.5,-71.5 350.5,-71.5 350.5,-90.5"/>
<text text-anchor="middle" x="298.5" y="-78.5" font-family="Helvetica,sans-Serif" font-size="10.00">../scmdio/port.hpp</text>
</a>
</g>
</g>
<!-- Node1&#45;&gt;Node2 -->
<g id="edge1_Node000001_Node000002" class="edge">
<title>Node1&#45;&gt;Node2</title>
<g id="a_edge1_Node000001_Node000002"><a xlink:title=" ">
<path fill="none" stroke="#63b8ff" d="M798.68,-134.07C714.76,-125.47 561.43,-109.7 430.5,-96 407.75,-93.62 382.79,-90.98 360.76,-88.64"/>
<polygon fill="#63b8ff" stroke="#63b8ff" points="360.85,-85.13 350.53,-87.55 360.11,-92.09 360.85,-85.13"/>
</a>
</g>
</g>
<!-- Node13 -->
<g id="Node000013" class="node">
<title>Node13</title>
<g id="a_Node000013"><a xlink:href="handle__eptr_8hpp.html" target="_top" xlink:title=" ">
<polygon fill="white" stroke="#666666" points="541,-90.5 440,-90.5 440,-71.5 541,-71.5 541,-90.5"/>
<text text-anchor="middle" x="490.5" y="-78.5" font-family="Helvetica,sans-Serif" font-size="10.00">./handle_eptr.hpp</text>
</a>
</g>
</g>
<!-- Node1&#45;&gt;Node13 -->
<g id="edge6_Node000001_Node000013" class="edge">
<title>Node1&#45;&gt;Node13</title>
<g id="a_edge6_Node000001_Node000013"><a xlink:title=" ">
<path fill="none" stroke="#63b8ff" d="M803.19,-131.96C744.4,-123.26 651.07,-109.21 570.5,-96 563.33,-94.82 555.8,-93.55 548.34,-92.27"/>
<polygon fill="#63b8ff" stroke="#63b8ff" points="548.72,-88.79 538.27,-90.53 547.53,-95.69 548.72,-88.79"/>
</a>
</g>
</g>
<!-- Node15 -->
<g id="Node000015" class="node">
<title>Node15</title>
<g id="a_Node000015"><a xlink:href="recorder_8hpp.html" target="_top" xlink:title=" ">
<polygon fill="white" stroke="#666666" points="663,-90.5 580,-90.5 580,-71.5 663,-71.5 663,-90.5"/>
<text text-anchor="middle" x="621.5" y="-78.5" font-family="Helvetica,sans-Serif" font-size="10.00">./recorder.hpp</text>
</a>
</g>
</g>
<!-- Node1&#45;&gt;Node15 -->
<g id="edge8_Node000001_Node000015" class="edge">
<title>Node1&#45;&gt;Node15</title>
<g id="a_edge8_Node000001_Node000015"><a xlink:title=" ">
<path fill="none" stroke="#63b8ff" d="M825.86,-131.97C788.78,-123.07 729.04,-108.68 677.5,-96 673.62,-95.04 669.58,-94.05 665.54,-93.04"/>
<polygon fill="#63b8ff" stroke="#63b8ff" points="666.1,-89.58 655.55,-90.56 664.4,-96.37 666.1,-89.58"/>
</a>
</g>
</g>
<!-- Node18 -->
<g id="Node000018" class="node">
<title>Node18</title>
<g id="a_Node000018"><a xlink:title=" ">
<polygon fill="#e0e0e0" stroke="#999999" points="808,-24.5 667,-24.5 667,-5.5 808,-5.5 808,-24.5"/>
<text text-anchor="middle" x="737.5" y="-12.5" font-family="Helvetica,sans-Serif" font-size="10.00">emlabcpp/convert_view.h</text>
</a>
</g>
</g>
<!-- Node1&#45;&gt;Node18 -->
<g id="edge12_Node000001_Node000018" class="edge">
<title>Node1&#45;&gt;Node18</title>
<g id="a_edge12_Node000001_Node000018"><a xlink:title=" ">
<path fill="none" stroke="#63b8ff" d="M798.67,-138.68C767.18,-134.19 731.57,-122.88 711.5,-96 697.29,-76.96 711.63,-49.82 723.98,-32.56"/>
<polygon fill="#63b8ff" stroke="#63b8ff" points="726.82,-34.61 730.1,-24.53 721.25,-30.37 726.82,-34.61"/>
</a>
</g>
</g>
<!-- Node20 -->
<g id="Node000020" class="node">
<title>Node20</title>
<g id="a_Node000020"><a xlink:title=" ">
<polygon fill="#e0e0e0" stroke="#999999" points="853,-96 720,-96 720,-66 853,-66 853,-96"/>
<text text-anchor="start" x="728" y="-84" font-family="Helvetica,sans-Serif" font-size="10.00">emlabcpp/experimental</text>
<text text-anchor="middle" x="786.5" y="-73" font-family="Helvetica,sans-Serif" font-size="10.00">/testing/collect.h</text>
</a>
</g>
</g>
<!-- Node1&#45;&gt;Node20 -->
<g id="edge13_Node000001_Node000020" class="edge">
<title>Node1&#45;&gt;Node20</title>
<g id="a_edge13_Node000001_Node000020"><a xlink:title=" ">
<path fill="none" stroke="#63b8ff" d="M850.43,-131.87C840.54,-124.15 825.65,-112.54 812.73,-102.46"/>
<polygon fill="#63b8ff" stroke="#63b8ff" points="814.63,-99.51 804.6,-96.11 810.33,-105.02 814.63,-99.51"/>
</a>
</g>
</g>
<!-- Node21 -->
<g id="Node000021" class="node">
<title>Node21</title>
<g id="a_Node000021"><a xlink:title=" ">
<polygon fill="#e0e0e0" stroke="#999999" points="1004,-96 871,-96 871,-66 1004,-66 1004,-96"/>
<text text-anchor="start" x="879" y="-84" font-family="Helvetica,sans-Serif" font-size="10.00">emlabcpp/experimental</text>
<text text-anchor="middle" x="937.5" y="-73" font-family="Helvetica,sans-Serif" font-size="10.00">/testing/controller.h</text>
</a>
</g>
</g>
<!-- Node1&#45;&gt;Node21 -->
<g id="edge14_Node000001_Node000021" class="edge">
<title>Node1&#45;&gt;Node21</title>
<g id="a_edge14_Node000001_Node000021"><a xlink:title=" ">
<path fill="none" stroke="#63b8ff" d="M872.71,-131.87C882.74,-124.15 897.83,-112.54 910.92,-102.46"/>
<polygon fill="#63b8ff" stroke="#63b8ff" points="913.37,-104.99 919.16,-96.11 909.1,-99.44 913.37,-104.99"/>
</a>
</g>
</g>
<!-- Node22 -->
<g id="Node000022" class="node">
<title>Node22</title>
<g id="a_Node000022"><a xlink:title=" ">
<polygon fill="#e0e0e0" stroke="#999999" points="1155,-96 1022,-96 1022,-66 1155,-66 1155,-96"/>
<text text-anchor="start" x="1030" y="-84" font-family="Helvetica,sans-Serif" font-size="10.00">emlabcpp/experimental</text>
<text text-anchor="middle" x="1088.5" y="-73" font-family="Helvetica,sans-Serif" font-size="10.00">/testing/json.h</text>
</a>
</g>
</g>
<!-- Node1&#45;&gt;Node22 -->
<g id="edge15_Node000001_Node000022" class="edge">
<title>Node1&#45;&gt;Node22</title>
<g id="a_edge15_Node000001_Node000022"><a xlink:title=" ">
<path fill="none" stroke="#63b8ff" d="M894.51,-131.99C928.32,-123.28 981.76,-109.51 1024,-98.62"/>
<polygon fill="#63b8ff" stroke="#63b8ff" points="1025.12,-101.95 1033.93,-96.06 1023.37,-95.17 1025.12,-101.95"/>
</a>
</g>
</g>
<!-- Node23 -->
<g id="Node000023" class="node">
<title>Node23</title>
<g id="a_Node000023"><a xlink:title=" ">
<polygon fill="#e0e0e0" stroke="#999999" points="1306,-96 1173,-96 1173,-66 1306,-66 1306,-96"/>
<text text-anchor="start" x="1181" y="-84" font-family="Helvetica,sans-Serif" font-size="10.00">emlabcpp/experimental</text>
<text text-anchor="middle" x="1239.5" y="-73" font-family="Helvetica,sans-Serif" font-size="10.00">/testing/parameters.h</text>
</a>
</g>
</g>
<!-- Node1&#45;&gt;Node23 -->
<g id="edge16_Node000001_Node000023" class="edge">
<title>Node1&#45;&gt;Node23</title>
<g id="a_edge16_Node000001_Node000023"><a xlink:title=" ">
<path fill="none" stroke="#63b8ff" d="M924.28,-132C983.42,-123.83 1074.75,-110.8 1162.96,-96.22"/>
<polygon fill="#63b8ff" stroke="#63b8ff" points="1163.58,-99.67 1172.87,-94.58 1162.43,-92.76 1163.58,-99.67"/>
</a>
</g>
</g>
<!-- Node24 -->
<g id="Node000024" class="node">
<title>Node24</title>
<g id="a_Node000024"><a xlink:title=" ">
<polygon fill="#e0e0e0" stroke="#999999" points="1470.5,-96 1324.5,-96 1324.5,-66 1470.5,-66 1470.5,-96"/>
<text text-anchor="start" x="1332.5" y="-84" font-family="Helvetica,sans-Serif" font-size="10.00">emlabcpp/pmr/new_delete</text>
<text text-anchor="middle" x="1397.5" y="-73" font-family="Helvetica,sans-Serif" font-size="10.00">_resource.h</text>
</a>
</g>
</g>
<!-- Node1&#45;&gt;Node24 -->
<g id="edge17_Node000001_Node000024" class="edge">
<title>Node1&#45;&gt;Node24</title>
<g id="a_edge17_Node000001_Node000024"><a xlink:title=" ">
<path fill="none" stroke="#63b8ff" d="M924.08,-135.79C1009.82,-129.02 1168.83,-115.33 1314.22,-96.11"/>
<polygon fill="#63b8ff" stroke="#63b8ff" points="1314.77,-99.57 1324.22,-94.78 1313.85,-92.63 1314.77,-99.57"/>
</a>
</g>
</g>
<!-- Node25 -->
<g id="Node000025" class="node">
<title>Node25</title>
<g id="a_Node000025"><a xlink:title=" ">
<polygon fill="#e0e0e0" stroke="#999999" points="1534,-90.5 1489,-90.5 1489,-71.5 1534,-71.5 1534,-90.5"/>
<text text-anchor="middle" x="1511.5" y="-78.5" font-family="Helvetica,sans-Serif" font-size="10.00">utility</text>
</a>
</g>
</g>
<!-- Node1&#45;&gt;Node25 -->
<g id="edge18_Node000001_Node000025" class="edge">
<title>Node1&#45;&gt;Node25</title>
<g id="a_edge18_Node000001_Node000025"><a xlink:title=" ">
<path fill="none" stroke="#63b8ff" d="M924.06,-138.69C1059.4,-134.33 1375.53,-121.68 1479.5,-96 1481.44,-95.52 1483.42,-94.93 1485.38,-94.27"/>
<polygon fill="#63b8ff" stroke="#63b8ff" points="1486.91,-97.43 1494.94,-90.52 1484.35,-90.91 1486.91,-97.43"/>
</a>
</g>
</g>
<!-- Node3 -->
<g id="Node000003" class="node">
<title>Node3</title>
<g id="a_Node000003"><a xlink:href="scmdio_2base_8hpp.html" target="_top" xlink:title=" ">
<polygon fill="#fff0f0" stroke="red" points="61,-24.5 0,-24.5 0,-5.5 61,-5.5 61,-24.5"/>
<text text-anchor="middle" x="30.5" y="-12.5" font-family="Helvetica,sans-Serif" font-size="10.00">base.hpp</text>
</a>
</g>
</g>
<!-- Node2&#45;&gt;Node3 -->
<g id="edge2_Node000002_Node000003" class="edge">
<title>Node2&#45;&gt;Node3</title>
<g id="a_edge2_Node000002_Node000003"><a xlink:title=" ">
<path fill="none" stroke="#63b8ff" d="M251.8,-71.47C205.43,-62.61 132.49,-47.58 70.5,-30 68.08,-29.32 65.6,-28.56 63.11,-27.78"/>
<polygon fill="#63b8ff" stroke="#63b8ff" points="64.21,-24.45 53.61,-24.62 62,-31.1 64.21,-24.45"/>
</a>
</g>
</g>
<!-- Node10 -->
<g id="Node000010" class="node">
<title>Node10</title>
<g id="a_Node000010"><a xlink:title=" ">
<polygon fill="#e0e0e0" stroke="#999999" points="213.5,-24.5 79.5,-24.5 79.5,-5.5 213.5,-5.5 213.5,-24.5"/>
<text text-anchor="middle" x="146.5" y="-12.5" font-family="Helvetica,sans-Serif" font-size="10.00">spdlog/fmt/bin_to_hex.h</text>
</a>
</g>
</g>
<!-- Node2&#45;&gt;Node10 -->
<g id="edge3_Node000002_Node000010" class="edge">
<title>Node2&#45;&gt;Node10</title>
<g id="a_edge3_Node000002_Node000010"><a xlink:title=" ">
<path fill="none" stroke="#63b8ff" d="M278,-71.37C251.94,-60.39 206.72,-41.36 176.71,-28.72"/>
<polygon fill="#63b8ff" stroke="#63b8ff" points="177.73,-25.35 167.16,-24.7 175.02,-31.81 177.73,-25.35"/>
</a>
</g>
</g>
<!-- Node11 -->
<g id="Node000011" class="node">
<title>Node11</title>
<g id="a_Node000011"><a xlink:title=" ">
<polygon fill="#e0e0e0" stroke="#999999" points="365,-30 232,-30 232,0 365,0 365,-30"/>
<text text-anchor="start" x="240" y="-18" font-family="Helvetica,sans-Serif" font-size="10.00">emlabcpp/experimental</text>
<text text-anchor="middle" x="298.5" y="-7" font-family="Helvetica,sans-Serif" font-size="10.00">/cobs.h</text>
</a>
</g>
</g>
<!-- Node2&#45;&gt;Node11 -->
<g id="edge4_Node000002_Node000011" class="edge">
<title>Node2&#45;&gt;Node11</title>
<g id="a_edge4_Node000002_Node000011"><a xlink:title=" ">
<path fill="none" stroke="#63b8ff" d="M298.5,-71.37C298.5,-63.49 298.5,-51.45 298.5,-40.6"/>
<polygon fill="#63b8ff" stroke="#63b8ff" points="302,-40.36 298.5,-30.36 295,-40.36 302,-40.36"/>
</a>
</g>
</g>
<!-- Node12 -->
<g id="Node000012" class="node">
<title>Node12</title>
<g id="a_Node000012"><a xlink:title=" ">
<polygon fill="#e0e0e0" stroke="#999999" points="430,-24.5 383,-24.5 383,-5.5 430,-5.5 430,-24.5"/>
<text text-anchor="middle" x="406.5" y="-12.5" font-family="Helvetica,sans-Serif" font-size="10.00">vector</text>
</a>
</g>
</g>
<!-- Node2&#45;&gt;Node12 -->
<g id="edge5_Node000002_Node000012" class="edge">
<title>Node2&#45;&gt;Node12</title>
<g id="a_edge5_Node000002_Node000012"><a xlink:title=" ">
<path fill="none" stroke="#63b8ff" d="M313.07,-71.37C331.02,-60.73 361.77,-42.51 383.06,-29.89"/>
<polygon fill="#63b8ff" stroke="#63b8ff" points="385,-32.81 391.82,-24.7 381.43,-26.79 385,-32.81"/>
</a>
</g>
</g>
<!-- Node14 -->
<g id="Node000014" class="node">
<title>Node14</title>
<g id="a_Node000014"><a xlink:title=" ">
<polygon fill="#e0e0e0" stroke="#999999" points="513,-24.5 448,-24.5 448,-5.5 513,-5.5 513,-24.5"/>
<text text-anchor="middle" x="480.5" y="-12.5" font-family="Helvetica,sans-Serif" font-size="10.00">exception</text>
</a>
</g>
</g>
<!-- Node13&#45;&gt;Node14 -->
<g id="edge7_Node000013_Node000014" class="edge">
<title>Node13&#45;&gt;Node14</title>
<g id="a_edge7_Node000013_Node000014"><a xlink:title=" ">
<path fill="none" stroke="#63b8ff" d="M489.15,-71.37C487.7,-62.07 485.34,-46.98 483.45,-34.9"/>
<polygon fill="#63b8ff" stroke="#63b8ff" points="486.89,-34.25 481.89,-24.91 479.98,-35.33 486.89,-34.25"/>
</a>
</g>
</g>
<!-- Node16 -->
<g id="Node000016" class="node">
<title>Node16</title>
<g id="a_Node000016"><a xlink:href="ftester_2base_8hpp.html" target="_top" xlink:title=" ">
<polygon fill="#fff0f0" stroke="red" points="598,-24.5 531,-24.5 531,-5.5 598,-5.5 598,-24.5"/>
<text text-anchor="middle" x="564.5" y="-12.5" font-family="Helvetica,sans-Serif" font-size="10.00">./base.hpp</text>
</a>
</g>
</g>
<!-- Node15&#45;&gt;Node16 -->
<g id="edge9_Node000015_Node000016" class="edge">
<title>Node15&#45;&gt;Node16</title>
<g id="a_edge9_Node000015_Node000016"><a xlink:title=" ">
<path fill="none" stroke="#63b8ff" d="M613.81,-71.37C605.02,-61.5 590.43,-45.11 579.39,-32.72"/>
<polygon fill="#63b8ff" stroke="#63b8ff" points="581.7,-30.05 572.43,-24.91 576.47,-34.7 581.7,-30.05"/>
</a>
</g>
</g>
<!-- Node15&#45;&gt;Node18 -->
<g id="edge10_Node000015_Node000018" class="edge">
<title>Node15&#45;&gt;Node18</title>
<g id="a_edge10_Node000015_Node000018"><a xlink:title=" ">
<path fill="none" stroke="#63b8ff" d="M637.14,-71.37C656.6,-60.63 690.05,-42.18 712.94,-29.55"/>
<polygon fill="#63b8ff" stroke="#63b8ff" points="714.67,-32.59 721.73,-24.7 711.29,-26.47 714.67,-32.59"/>
</a>
</g>
</g>
<!-- Node19 -->
<g id="Node000019" class="node">
<title>Node19</title>
<g id="a_Node000019"><a xlink:title=" ">
<polygon fill="#e0e0e0" stroke="#999999" points="648.5,-24.5 616.5,-24.5 616.5,-5.5 648.5,-5.5 648.5,-24.5"/>
<text text-anchor="middle" x="632.5" y="-12.5" font-family="Helvetica,sans-Serif" font-size="10.00">list</text>
</a>
</g>
</g>
<!-- Node15&#45;&gt;Node19 -->
<g id="edge11_Node000015_Node000019" class="edge">
<title>Node15&#45;&gt;Node19</title>
<g id="a_edge11_Node000015_Node000019"><a xlink:title=" ">
<path fill="none" stroke="#63b8ff" d="M622.98,-71.37C624.58,-62.07 627.18,-46.98 629.25,-34.9"/>
<polygon fill="#63b8ff" stroke="#63b8ff" points="632.72,-35.35 630.97,-24.91 625.83,-34.17 632.72,-35.35"/>
</a>
</g>
</g>
</g>
</svg>
