<?xml version="1.0" encoding="UTF-8" standalone="no"?>
<!DOCTYPE svg PUBLIC "-//W3C//DTD SVG 1.1//EN"
 "http://www.w3.org/Graphics/SVG/1.1/DTD/svg11.dtd">
<!-- Generated by graphviz version 2.43.0 (0)
 -->
<!-- Title: src/plt/stm32h5/uart.cpp Pages: 1 -->
<svg width="567pt" height="196pt"
 viewBox="0.00 0.00 567.00 196.00" xmlns="http://www.w3.org/2000/svg" xmlns:xlink="http://www.w3.org/1999/xlink">
<g id="graph0" class="graph" transform="scale(1 1) rotate(0) translate(4 192)">
<title>src/plt/stm32h5/uart.cpp</title>
<polygon fill="white" stroke="transparent" points="-4,4 -4,-192 563,-192 563,4 -4,4"/>
<!-- Node1 -->
<g id="node1" class="node">
<title>Node1</title>
<g id="a_node1"><a xlink:title=" ">
<polygon fill="#bfbfbf" stroke="black" points="249.5,-168.5 249.5,-187.5 384.5,-187.5 384.5,-168.5 249.5,-168.5"/>
<text text-anchor="middle" x="317" y="-175.5" font-family="Helvetica,sans-Serif" font-size="10.00">src/plt/stm32h5/uart.cpp</text>
</a>
</g>
</g>
<!-- Node2 -->
<g id="node2" class="node">
<title>Node2</title>
<g id="a_node2"><a xlink:href="util_8hpp.html" target="_top" xlink:title=" ">
<polygon fill="white" stroke="black" points="73,-112.5 73,-131.5 141,-131.5 141,-112.5 73,-112.5"/>
<text text-anchor="middle" x="107" y="-119.5" font-family="Helvetica,sans-Serif" font-size="10.00">fw/util.hpp</text>
</a>
</g>
</g>
<!-- Node1&#45;&gt;Node2 -->
<g id="edge1" class="edge">
<title>Node1&#45;&gt;Node2</title>
<path fill="none" stroke="midnightblue" d="M283.72,-168.44C247.55,-159.14 189.62,-144.25 150.02,-134.06"/>
<polygon fill="midnightblue" stroke="midnightblue" points="150.68,-130.62 140.12,-131.52 148.93,-137.4 150.68,-130.62"/>
</g>
<!-- Node5 -->
<g id="node5" class="node">
<title>Node5</title>
<g id="a_node5"><a xlink:href="plt_2stm32h5_2setup_8hpp.html" target="_top" xlink:title=" ">
<polygon fill="white" stroke="black" points="284.5,-112.5 284.5,-131.5 349.5,-131.5 349.5,-112.5 284.5,-112.5"/>
<text text-anchor="middle" x="317" y="-119.5" font-family="Helvetica,sans-Serif" font-size="10.00">setup.hpp</text>
</a>
</g>
</g>
<!-- Node1&#45;&gt;Node5 -->
<g id="edge4" class="edge">
<title>Node1&#45;&gt;Node5</title>
<path fill="none" stroke="midnightblue" d="M317,-168.08C317,-161.01 317,-150.86 317,-141.99"/>
<polygon fill="midnightblue" stroke="midnightblue" points="320.5,-141.75 317,-131.75 313.5,-141.75 320.5,-141.75"/>
</g>
<!-- Node26 -->
<g id="node11" class="node">
<title>Node26</title>
<g id="a_node11"><a xlink:title=" ">
<polygon fill="white" stroke="#bfbfbf" points="367.5,-112.5 367.5,-131.5 416.5,-131.5 416.5,-112.5 367.5,-112.5"/>
<text text-anchor="middle" x="392" y="-119.5" font-family="Helvetica,sans-Serif" font-size="10.00">cstdlib</text>
</a>
</g>
</g>
<!-- Node1&#45;&gt;Node26 -->
<g id="edge11" class="edge">
<title>Node1&#45;&gt;Node26</title>
<path fill="none" stroke="midnightblue" d="M329.05,-168.32C340.46,-160.11 357.83,-147.6 371.43,-137.81"/>
<polygon fill="midnightblue" stroke="midnightblue" points="373.66,-140.52 379.73,-131.83 369.57,-134.84 373.66,-140.52"/>
</g>
<!-- Node3 -->
<g id="node3" class="node">
<title>Node3</title>
<g id="a_node3"><a xlink:title=" ">
<polygon fill="white" stroke="#bfbfbf" points="0,-56.5 0,-75.5 64,-75.5 64,-56.5 0,-56.5"/>
<text text-anchor="middle" x="32" y="-63.5" font-family="Helvetica,sans-Serif" font-size="10.00">algorithm</text>
</a>
</g>
</g>
<!-- Node2&#45;&gt;Node3 -->
<g id="edge2" class="edge">
<title>Node2&#45;&gt;Node3</title>
<path fill="none" stroke="midnightblue" d="M94.95,-112.32C83.54,-104.11 66.17,-91.6 52.57,-81.81"/>
<polygon fill="midnightblue" stroke="midnightblue" points="54.43,-78.84 44.27,-75.83 50.34,-84.52 54.43,-78.84"/>
</g>
<!-- Node4 -->
<g id="node4" class="node">
<title>Node4</title>
<g id="a_node4"><a xlink:title=" ">
<polygon fill="white" stroke="#bfbfbf" points="82,-56.5 82,-75.5 132,-75.5 132,-56.5 82,-56.5"/>
<text text-anchor="middle" x="107" y="-63.5" font-family="Helvetica,sans-Serif" font-size="10.00">cstring</text>
</a>
</g>
</g>
<!-- Node2&#45;&gt;Node4 -->
<g id="edge3" class="edge">
<title>Node2&#45;&gt;Node4</title>
<path fill="none" stroke="midnightblue" d="M107,-112.08C107,-105.01 107,-94.86 107,-85.99"/>
<polygon fill="midnightblue" stroke="midnightblue" points="110.5,-85.75 107,-75.75 103.5,-85.75 110.5,-85.75"/>
</g>
<!-- Node6 -->
<g id="node6" class="node">
<title>Node6</title>
<g id="a_node6"><a xlink:href="map_8hpp.html" target="_top" xlink:title=" ">
<polygon fill="white" stroke="red" points="150.5,-56.5 150.5,-75.5 227.5,-75.5 227.5,-56.5 150.5,-56.5"/>
<text text-anchor="middle" x="189" y="-63.5" font-family="Helvetica,sans-Serif" font-size="10.00">cfg/map.hpp</text>
</a>
</g>
</g>
<!-- Node5&#45;&gt;Node6 -->
<g id="edge5" class="edge">
<title>Node5&#45;&gt;Node6</title>
<path fill="none" stroke="midnightblue" d="M296.72,-112.44C275.65,-103.56 242.48,-89.56 218.51,-79.45"/>
<polygon fill="midnightblue" stroke="midnightblue" points="219.76,-76.18 209.19,-75.52 217.04,-82.63 219.76,-76.18"/>
</g>
<!-- Node19 -->
<g id="node7" class="node">
<title>Node19</title>
<g id="a_node7"><a xlink:href="defs_8hpp.html" target="_top" xlink:title=" ">
<polygon fill="white" stroke="red" points="245.5,-56.5 245.5,-75.5 322.5,-75.5 322.5,-56.5 245.5,-56.5"/>
<text text-anchor="middle" x="284" y="-63.5" font-family="Helvetica,sans-Serif" font-size="10.00">drv/defs.hpp</text>
</a>
</g>
</g>
<!-- Node5&#45;&gt;Node19 -->
<g id="edge6" class="edge">
<title>Node5&#45;&gt;Node19</title>
<path fill="none" stroke="midnightblue" d="M311.55,-112.08C306.99,-104.61 300.33,-93.72 294.71,-84.52"/>
<polygon fill="midnightblue" stroke="midnightblue" points="297.55,-82.46 289.35,-75.75 291.58,-86.11 297.55,-82.46"/>
</g>
<!-- Node23 -->
<g id="node8" class="node">
<title>Node23</title>
<g id="a_node8"><a xlink:title=" ">
<polygon fill="white" stroke="#bfbfbf" points="289,-0.5 289,-19.5 345,-19.5 345,-0.5 289,-0.5"/>
<text text-anchor="middle" x="317" y="-7.5" font-family="Helvetica,sans-Serif" font-size="10.00">optional</text>
</a>
</g>
</g>
<!-- Node5&#45;&gt;Node23 -->
<g id="edge10" class="edge">
<title>Node5&#45;&gt;Node23</title>
<path fill="none" stroke="midnightblue" d="M321.25,-112.24C326.76,-99.82 335.3,-76.35 332,-56 330.53,-46.96 327.51,-37.28 324.56,-29.22"/>
<polygon fill="midnightblue" stroke="midnightblue" points="327.76,-27.79 320.86,-19.75 321.24,-30.34 327.76,-27.79"/>
</g>
<!-- Node24 -->
<g id="node9" class="node">
<title>Node24</title>
<g id="a_node9"><a xlink:title=" ">
<polygon fill="white" stroke="#bfbfbf" points="379,-56.5 379,-75.5 483,-75.5 483,-56.5 379,-56.5"/>
<text text-anchor="middle" x="431" y="-63.5" font-family="Helvetica,sans-Serif" font-size="10.00">emlabcpp/result.h</text>
</a>
</g>
</g>
<!-- Node5&#45;&gt;Node24 -->
<g id="edge8" class="edge">
<title>Node5&#45;&gt;Node24</title>
<path fill="none" stroke="midnightblue" d="M335.06,-112.44C353.57,-103.68 382.58,-89.94 403.86,-79.86"/>
<polygon fill="midnightblue" stroke="midnightblue" points="405.48,-82.96 413.02,-75.52 402.49,-76.63 405.48,-82.96"/>
</g>
<!-- Node25 -->
<g id="node10" class="node">
<title>Node25</title>
<g id="a_node10"><a xlink:title=" ">
<polygon fill="white" stroke="#bfbfbf" points="501,-56.5 501,-75.5 559,-75.5 559,-56.5 501,-56.5"/>
<text text-anchor="middle" x="530" y="-63.5" font-family="Helvetica,sans-Serif" font-size="10.00">memory</text>
</a>
</g>
</g>
<!-- Node5&#45;&gt;Node25 -->
<g id="edge9" class="edge">
<title>Node5&#45;&gt;Node25</title>
<path fill="none" stroke="midnightblue" d="M349.81,-112.68C387.9,-103.03 450.64,-87.12 491.13,-76.85"/>
<polygon fill="midnightblue" stroke="midnightblue" points="492.08,-80.22 500.92,-74.37 490.36,-73.44 492.08,-80.22"/>
</g>
<!-- Node19&#45;&gt;Node23 -->
<g id="edge7" class="edge">
<title>Node19&#45;&gt;Node23</title>
<path fill="none" stroke="midnightblue" d="M289.45,-56.08C294.01,-48.61 300.67,-37.72 306.29,-28.52"/>
<polygon fill="midnightblue" stroke="midnightblue" points="309.42,-30.11 311.65,-19.75 303.45,-26.46 309.42,-30.11"/>
</g>
</g>
</svg>
