<?xml version="1.0" encoding="UTF-8" standalone="no"?>
<!DOCTYPE svg PUBLIC "-//W3C//DTD SVG 1.1//EN"
 "http://www.w3.org/Graphics/SVG/1.1/DTD/svg11.dtd">
<!-- Generated by graphviz version 2.43.0 (0)
 -->
<!-- Title: src/ftest/utest.hpp Pages: 1 -->
<svg width="1115pt" height="274pt"
 viewBox="0.00 0.00 1114.50 274.00" xmlns="http://www.w3.org/2000/svg" xmlns:xlink="http://www.w3.org/1999/xlink">
<g id="graph0" class="graph" transform="scale(1 1) rotate(0) translate(4 270)">
<title>src/ftest/utest.hpp</title>
<polygon fill="white" stroke="transparent" points="-4,4 -4,-270 1110.5,-270 1110.5,4 -4,4"/>
<!-- Node1 -->
<g id="node1" class="node">
<title>Node1</title>
<g id="a_node1"><a xlink:title=" ">
<polygon fill="#bfbfbf" stroke="black" points="535,-246.5 535,-265.5 639,-265.5 639,-246.5 535,-246.5"/>
<text text-anchor="middle" x="587" y="-253.5" font-family="Helvetica,sans-Serif" font-size="10.00">src/ftest/utest.hpp</text>
</a>
</g>
</g>
<!-- Node2 -->
<g id="node2" class="node">
<title>Node2</title>
<g id="a_node2"><a xlink:href="base_2base_8hpp.html" target="_top" xlink:title=" ">
<polygon fill="white" stroke="black" points="150,-56.5 150,-75.5 246,-75.5 246,-56.5 150,-56.5"/>
<text text-anchor="middle" x="198" y="-63.5" font-family="Helvetica,sans-Serif" font-size="10.00">../base/base.hpp</text>
</a>
</g>
</g>
<!-- Node1&#45;&gt;Node2 -->
<g id="edge1" class="edge">
<title>Node1&#45;&gt;Node2</title>
<path fill="none" stroke="midnightblue" d="M534.86,-250.7C425.89,-240.44 180.58,-210.18 138,-143 130.62,-131.36 131.84,-124.32 138,-112 144.73,-98.54 157.61,-88.07 169.71,-80.62"/>
<polygon fill="midnightblue" stroke="midnightblue" points="171.73,-83.5 178.7,-75.52 168.28,-77.41 171.73,-83.5"/>
</g>
<!-- Node8 -->
<g id="node8" class="node">
<title>Node8</title>
<g id="a_node8"><a xlink:href="control_8hpp.html" target="_top" xlink:title=" ">
<polygon fill="white" stroke="black" points="288.5,-185 288.5,-204 383.5,-204 383.5,-185 288.5,-185"/>
<text text-anchor="middle" x="336" y="-192" font-family="Helvetica,sans-Serif" font-size="10.00">../ctl/control.hpp</text>
</a>
</g>
</g>
<!-- Node1&#45;&gt;Node8 -->
<g id="edge7" class="edge">
<title>Node1&#45;&gt;Node8</title>
<path fill="none" stroke="midnightblue" d="M549.03,-246.44C509.88,-237.56 447.09,-223.15 393,-210 388.4,-208.88 383.61,-207.7 378.83,-206.5"/>
<polygon fill="midnightblue" stroke="midnightblue" points="379.68,-203.1 369.13,-204.05 377.97,-209.89 379.68,-203.1"/>
</g>
<!-- Node15 -->
<g id="node14" class="node">
<title>Node15</title>
<g id="a_node14"><a xlink:title=" ">
<polygon fill="white" stroke="#bfbfbf" points="401.5,-185 401.5,-204 502.5,-204 502.5,-185 401.5,-185"/>
<text text-anchor="middle" x="452" y="-192" font-family="Helvetica,sans-Serif" font-size="10.00">emlabcpp/defer.h</text>
</a>
</g>
</g>
<!-- Node1&#45;&gt;Node15 -->
<g id="edge16" class="edge">
<title>Node1&#45;&gt;Node15</title>
<path fill="none" stroke="midnightblue" d="M567.66,-246.48C544.9,-236.45 506.91,-219.7 480.71,-208.15"/>
<polygon fill="midnightblue" stroke="midnightblue" points="481.87,-204.84 471.31,-204.01 479.05,-211.24 481.87,-204.84"/>
</g>
<!-- Node16 -->
<g id="node15" class="node">
<title>Node16</title>
<g id="a_node15"><a xlink:title=" ">
<polygon fill="white" stroke="#bfbfbf" points="520.5,-179.5 520.5,-209.5 653.5,-209.5 653.5,-179.5 520.5,-179.5"/>
<text text-anchor="start" x="528.5" y="-197.5" font-family="Helvetica,sans-Serif" font-size="10.00">emlabcpp/experimental</text>
<text text-anchor="middle" x="587" y="-186.5" font-family="Helvetica,sans-Serif" font-size="10.00">/testing/collect.h</text>
</a>
</g>
</g>
<!-- Node1&#45;&gt;Node16 -->
<g id="edge17" class="edge">
<title>Node1&#45;&gt;Node16</title>
<path fill="none" stroke="midnightblue" d="M587,-246.48C587,-239.47 587,-229.19 587,-219.7"/>
<polygon fill="midnightblue" stroke="midnightblue" points="590.5,-219.52 587,-209.52 583.5,-219.52 590.5,-219.52"/>
</g>
<!-- Node17 -->
<g id="node16" class="node">
<title>Node17</title>
<g id="a_node16"><a xlink:title=" ">
<polygon fill="white" stroke="#bfbfbf" points="671.5,-179.5 671.5,-209.5 804.5,-209.5 804.5,-179.5 671.5,-179.5"/>
<text text-anchor="start" x="679.5" y="-197.5" font-family="Helvetica,sans-Serif" font-size="10.00">emlabcpp/experimental</text>
<text text-anchor="middle" x="738" y="-186.5" font-family="Helvetica,sans-Serif" font-size="10.00">/testing/coroutine.h</text>
</a>
</g>
</g>
<!-- Node1&#45;&gt;Node17 -->
<g id="edge18" class="edge">
<title>Node1&#45;&gt;Node17</title>
<path fill="none" stroke="midnightblue" d="M608.63,-246.48C630.52,-237.85 665,-224.26 692.86,-213.29"/>
<polygon fill="midnightblue" stroke="midnightblue" points="694.39,-216.45 702.41,-209.52 691.83,-209.93 694.39,-216.45"/>
</g>
<!-- Node18 -->
<g id="node17" class="node">
<title>Node18</title>
<g id="a_node17"><a xlink:title=" ">
<polygon fill="white" stroke="#bfbfbf" points="822.5,-179.5 822.5,-209.5 955.5,-209.5 955.5,-179.5 822.5,-179.5"/>
<text text-anchor="start" x="830.5" y="-197.5" font-family="Helvetica,sans-Serif" font-size="10.00">emlabcpp/experimental</text>
<text text-anchor="middle" x="889" y="-186.5" font-family="Helvetica,sans-Serif" font-size="10.00">/testing/interface.h</text>
</a>
</g>
</g>
<!-- Node1&#45;&gt;Node18 -->
<g id="edge19" class="edge">
<title>Node1&#45;&gt;Node18</title>
<path fill="none" stroke="midnightblue" d="M630.27,-246.48C677.76,-237.12 754.9,-221.92 812.62,-210.55"/>
<polygon fill="midnightblue" stroke="midnightblue" points="813.3,-213.98 822.43,-208.62 811.94,-207.11 813.3,-213.98"/>
</g>
<!-- Node19 -->
<g id="node18" class="node">
<title>Node19</title>
<g id="a_node18"><a xlink:title=" ">
<polygon fill="white" stroke="#bfbfbf" points="973.5,-179.5 973.5,-209.5 1106.5,-209.5 1106.5,-179.5 973.5,-179.5"/>
<text text-anchor="start" x="981.5" y="-197.5" font-family="Helvetica,sans-Serif" font-size="10.00">emlabcpp/experimental</text>
<text text-anchor="middle" x="1040" y="-186.5" font-family="Helvetica,sans-Serif" font-size="10.00">/testing/reactor.h</text>
</a>
</g>
</g>
<!-- Node1&#45;&gt;Node19 -->
<g id="edge20" class="edge">
<title>Node1&#45;&gt;Node19</title>
<path fill="none" stroke="midnightblue" d="M639.14,-250C710.2,-242.92 841.66,-228.87 963.17,-210.22"/>
<polygon fill="midnightblue" stroke="midnightblue" points="964.04,-213.63 973.39,-208.64 962.97,-206.71 964.04,-213.63"/>
</g>
<!-- Node3 -->
<g id="node3" class="node">
<title>Node3</title>
<g id="a_node3"><a xlink:title=" ">
<polygon fill="white" stroke="#bfbfbf" points="0,-0.5 0,-19.5 50,-19.5 50,-0.5 0,-0.5"/>
<text text-anchor="middle" x="25" y="-7.5" font-family="Helvetica,sans-Serif" font-size="10.00">chrono</text>
</a>
</g>
</g>
<!-- Node2&#45;&gt;Node3 -->
<g id="edge2" class="edge">
<title>Node2&#45;&gt;Node3</title>
<path fill="none" stroke="midnightblue" d="M170.59,-56.44C140.54,-47.06 92.27,-32 59.63,-21.81"/>
<polygon fill="midnightblue" stroke="midnightblue" points="60.63,-18.45 50.04,-18.82 58.54,-25.14 60.63,-18.45"/>
</g>
<!-- Node4 -->
<g id="node4" class="node">
<title>Node4</title>
<g id="a_node4"><a xlink:title=" ">
<polygon fill="white" stroke="#bfbfbf" points="68,-0.5 68,-19.5 118,-19.5 118,-0.5 68,-0.5"/>
<text text-anchor="middle" x="93" y="-7.5" font-family="Helvetica,sans-Serif" font-size="10.00">cstdint</text>
</a>
</g>
</g>
<!-- Node2&#45;&gt;Node4 -->
<g id="edge3" class="edge">
<title>Node2&#45;&gt;Node4</title>
<path fill="none" stroke="midnightblue" d="M181.13,-56.32C164.29,-47.66 138.19,-34.24 118.76,-24.25"/>
<polygon fill="midnightblue" stroke="midnightblue" points="120.32,-21.12 109.83,-19.65 117.12,-27.34 120.32,-21.12"/>
</g>
<!-- Node5 -->
<g id="node5" class="node">
<title>Node5</title>
<g id="a_node5"><a xlink:title=" ">
<polygon fill="white" stroke="#bfbfbf" points="136,-0.5 136,-19.5 260,-19.5 260,-0.5 136,-0.5"/>
<text text-anchor="middle" x="198" y="-7.5" font-family="Helvetica,sans-Serif" font-size="10.00">emlabcpp/algorithm.h</text>
</a>
</g>
</g>
<!-- Node2&#45;&gt;Node5 -->
<g id="edge4" class="edge">
<title>Node2&#45;&gt;Node5</title>
<path fill="none" stroke="midnightblue" d="M198,-56.08C198,-49.01 198,-38.86 198,-29.99"/>
<polygon fill="midnightblue" stroke="midnightblue" points="201.5,-29.75 198,-19.75 194.5,-29.75 201.5,-29.75"/>
</g>
<!-- Node6 -->
<g id="node6" class="node">
<title>Node6</title>
<g id="a_node6"><a xlink:title=" ">
<polygon fill="white" stroke="#bfbfbf" points="278,-0.5 278,-19.5 394,-19.5 394,-0.5 278,-0.5"/>
<text text-anchor="middle" x="336" y="-7.5" font-family="Helvetica,sans-Serif" font-size="10.00">emlabcpp/quantity.h</text>
</a>
</g>
</g>
<!-- Node2&#45;&gt;Node6 -->
<g id="edge5" class="edge">
<title>Node2&#45;&gt;Node6</title>
<path fill="none" stroke="midnightblue" d="M219.87,-56.44C242.78,-47.48 278.98,-33.31 304.87,-23.18"/>
<polygon fill="midnightblue" stroke="midnightblue" points="306.2,-26.42 314.24,-19.52 303.65,-19.9 306.2,-26.42"/>
</g>
<!-- Node7 -->
<g id="node7" class="node">
<title>Node7</title>
<g id="a_node7"><a xlink:title=" ">
<polygon fill="white" stroke="#bfbfbf" points="412.5,-0.5 412.5,-19.5 471.5,-19.5 471.5,-0.5 412.5,-0.5"/>
<text text-anchor="middle" x="442" y="-7.5" font-family="Helvetica,sans-Serif" font-size="10.00">numbers</text>
</a>
</g>
</g>
<!-- Node2&#45;&gt;Node7 -->
<g id="edge6" class="edge">
<title>Node2&#45;&gt;Node7</title>
<path fill="none" stroke="midnightblue" d="M237.33,-56.5C276.6,-47.98 338.95,-34.38 402.42,-20.11"/>
<polygon fill="midnightblue" stroke="midnightblue" points="403.21,-23.52 412.2,-17.91 401.67,-16.69 403.21,-23.52"/>
</g>
<!-- Node9 -->
<g id="node9" class="node">
<title>Node9</title>
<g id="a_node9"><a xlink:href="ctl_2config_8hpp.html" target="_top" xlink:title=" ">
<polygon fill="white" stroke="black" points="267.5,-118 267.5,-137 340.5,-137 340.5,-118 267.5,-118"/>
<text text-anchor="middle" x="304" y="-125" font-family="Helvetica,sans-Serif" font-size="10.00">./config.hpp</text>
</a>
</g>
</g>
<!-- Node8&#45;&gt;Node9 -->
<g id="edge8" class="edge">
<title>Node8&#45;&gt;Node9</title>
<path fill="none" stroke="midnightblue" d="M331.68,-184.73C326.84,-174.89 318.85,-158.66 312.69,-146.16"/>
<polygon fill="midnightblue" stroke="midnightblue" points="315.8,-144.55 308.25,-137.13 309.52,-147.64 315.8,-144.55"/>
</g>
<!-- Node10 -->
<g id="node10" class="node">
<title>Node10</title>
<g id="a_node10"><a xlink:title=" ">
<polygon fill="white" stroke="#bfbfbf" points="293,-56.5 293,-75.5 385,-75.5 385,-56.5 293,-56.5"/>
<text text-anchor="middle" x="339" y="-63.5" font-family="Helvetica,sans-Serif" font-size="10.00">emlabcpp/pid.h</text>
</a>
</g>
</g>
<!-- Node8&#45;&gt;Node10 -->
<g id="edge13" class="edge">
<title>Node8&#45;&gt;Node10</title>
<path fill="none" stroke="midnightblue" d="M339.22,-184.71C342.68,-174.76 347.96,-157.96 350,-143 351.86,-129.35 351.65,-125.68 350,-112 348.93,-103.11 346.71,-93.43 344.54,-85.34"/>
<polygon fill="midnightblue" stroke="midnightblue" points="347.84,-84.17 341.73,-75.51 341.11,-86.09 347.84,-84.17"/>
</g>
<!-- Node11 -->
<g id="node11" class="node">
<title>Node11</title>
<g id="a_node11"><a xlink:href="linear__transition__regulator_8hpp.html" target="_top" xlink:title=" ">
<polygon fill="white" stroke="red" points="147,-112.5 147,-142.5 249,-142.5 249,-112.5 147,-112.5"/>
<text text-anchor="start" x="155" y="-130.5" font-family="Helvetica,sans-Serif" font-size="10.00">./linear_transition</text>
<text text-anchor="middle" x="198" y="-119.5" font-family="Helvetica,sans-Serif" font-size="10.00">_regulator.hpp</text>
</a>
</g>
</g>
<!-- Node8&#45;&gt;Node11 -->
<g id="edge11" class="edge">
<title>Node8&#45;&gt;Node11</title>
<path fill="none" stroke="midnightblue" d="M317.67,-184.87C297.24,-175.24 263.58,-159.39 237.15,-146.94"/>
<polygon fill="midnightblue" stroke="midnightblue" points="238.32,-143.62 227.78,-142.53 235.34,-149.96 238.32,-143.62"/>
</g>
<!-- Node13 -->
<g id="node12" class="node">
<title>Node13</title>
<g id="a_node12"><a xlink:title=" ">
<polygon fill="white" stroke="#bfbfbf" points="397,-118 397,-137 441,-137 441,-118 397,-118"/>
<text text-anchor="middle" x="419" y="-125" font-family="Helvetica,sans-Serif" font-size="10.00">limits</text>
</a>
</g>
</g>
<!-- Node8&#45;&gt;Node13 -->
<g id="edge14" class="edge">
<title>Node8&#45;&gt;Node13</title>
<path fill="none" stroke="midnightblue" d="M347.19,-184.73C360.63,-174.21 383.4,-156.38 399.7,-143.62"/>
<polygon fill="midnightblue" stroke="midnightblue" points="402.27,-146.05 407.98,-137.13 397.95,-140.54 402.27,-146.05"/>
</g>
<!-- Node14 -->
<g id="node13" class="node">
<title>Node14</title>
<g id="a_node13"><a xlink:title=" ">
<polygon fill="white" stroke="#bfbfbf" points="459.5,-118 459.5,-137 510.5,-137 510.5,-118 459.5,-118"/>
<text text-anchor="middle" x="485" y="-125" font-family="Helvetica,sans-Serif" font-size="10.00">variant</text>
</a>
</g>
</g>
<!-- Node8&#45;&gt;Node14 -->
<g id="edge15" class="edge">
<title>Node8&#45;&gt;Node14</title>
<path fill="none" stroke="midnightblue" d="M355.79,-184.87C381.39,-173.7 426.21,-154.15 455.75,-141.26"/>
<polygon fill="midnightblue" stroke="midnightblue" points="457.37,-144.37 465.13,-137.17 454.57,-137.96 457.37,-144.37"/>
</g>
<!-- Node9&#45;&gt;Node2 -->
<g id="edge9" class="edge">
<title>Node9&#45;&gt;Node2</title>
<path fill="none" stroke="midnightblue" d="M288.81,-117.98C271.34,-108.17 242.42,-91.93 221.92,-80.42"/>
<polygon fill="midnightblue" stroke="midnightblue" points="223.59,-77.35 213.16,-75.51 220.17,-83.46 223.59,-77.35"/>
</g>
<!-- Node9&#45;&gt;Node10 -->
<g id="edge10" class="edge">
<title>Node9&#45;&gt;Node10</title>
<path fill="none" stroke="midnightblue" d="M309.01,-117.98C314.16,-109.23 322.31,-95.37 328.82,-84.31"/>
<polygon fill="midnightblue" stroke="midnightblue" points="331.94,-85.9 333.99,-75.51 325.91,-82.35 331.94,-85.9"/>
</g>
<!-- Node11&#45;&gt;Node2 -->
<g id="edge12" class="edge">
<title>Node11&#45;&gt;Node2</title>
<path fill="none" stroke="midnightblue" d="M198,-112.4C198,-104.47 198,-94.46 198,-85.86"/>
<polygon fill="midnightblue" stroke="midnightblue" points="201.5,-85.66 198,-75.66 194.5,-85.66 201.5,-85.66"/>
</g>
</g>
</svg>
