<?xml version="1.0" encoding="UTF-8" standalone="no"?>
<!DOCTYPE svg PUBLIC "-//W3C//DTD SVG 1.1//EN"
 "http://www.w3.org/Graphics/SVG/1.1/DTD/svg11.dtd">
<!-- Generated by graphviz version 2.43.0 (0)
 -->
<!-- Title: src/cnv/utils.hpp Pages: 1 -->
<svg width="346pt" height="247pt"
 viewBox="0.00 0.00 345.83 247.00" xmlns="http://www.w3.org/2000/svg" xmlns:xlink="http://www.w3.org/1999/xlink">
<g id="graph0" class="graph" transform="scale(1 1) rotate(0) translate(4 243)">
<title>src/cnv/utils.hpp</title>
<!-- Node1 -->
<g id="Node000001" class="node">
<title>Node1</title>
<g id="a_Node000001"><a xlink:title=" ">
<polygon fill="#999999" stroke="#666666" points="262.33,-239 166.33,-239 166.33,-220 262.33,-220 262.33,-239"/>
<text text-anchor="middle" x="214.33" y="-227" font-family="Helvetica,sans-Serif" font-size="10.00">src/cnv/utils.hpp</text>
</a>
</g>
</g>
<!-- Node2 -->
<g id="Node000002" class="node">
<title>Node2</title>
<g id="a_Node000002"><a xlink:href="interfaces_8hpp.html" target="_top" xlink:title=" ">
<polygon fill="white" stroke="#666666" points="211.33,-184 97.33,-184 97.33,-165 211.33,-165 211.33,-184"/>
<text text-anchor="middle" x="154.33" y="-172" font-family="Helvetica,sans-Serif" font-size="10.00">../drv/interfaces.hpp</text>
</a>
</g>
</g>
<!-- Node1&#45;&gt;Node2 -->
<g id="edge1_Node000001_Node000002" class="edge">
<title>Node1&#45;&gt;Node2</title>
<g id="a_edge1_Node000001_Node000002"><a xlink:title=" ">
<path fill="none" stroke="#63b8ff" d="M204.69,-219.98C195.82,-212.15 182.45,-200.34 171.72,-190.86"/>
<polygon fill="#63b8ff" stroke="#63b8ff" points="173.95,-188.17 164.14,-184.17 169.32,-193.41 173.95,-188.17"/>
</a>
</g>
</g>
<!-- Node17 -->
<g id="Node000017" class="node">
<title>Node17</title>
<g id="a_Node000017"><a xlink:href="converter_8hpp.html" target="_top" xlink:title=" ">
<polygon fill="white" stroke="#666666" points="337.83,-184 248.83,-184 248.83,-165 337.83,-165 337.83,-184"/>
<text text-anchor="middle" x="293.33" y="-172" font-family="Helvetica,sans-Serif" font-size="10.00">./converter.hpp</text>
</a>
</g>
</g>
<!-- Node1&#45;&gt;Node17 -->
<g id="edge9_Node000001_Node000017" class="edge">
<title>Node1&#45;&gt;Node17</title>
<g id="a_edge9_Node000001_Node000017"><a xlink:title=" ">
<path fill="none" stroke="#63b8ff" d="M227.02,-219.98C239.15,-211.84 257.68,-199.41 272.07,-189.76"/>
<polygon fill="#63b8ff" stroke="#63b8ff" points="274.05,-192.65 280.4,-184.17 270.15,-186.84 274.05,-192.65"/>
</a>
</g>
</g>
<!-- Node3 -->
<g id="Node000003" class="node">
<title>Node3</title>
<g id="a_Node000003"><a xlink:href="base_8hpp.html" target="_top" xlink:title=" ">
<polygon fill="#fff0f0" stroke="red" points="88.33,-74 18.33,-74 18.33,-55 88.33,-55 88.33,-74"/>
<text text-anchor="middle" x="53.33" y="-62" font-family="Helvetica,sans-Serif" font-size="10.00">../base.hpp</text>
</a>
</g>
</g>
<!-- Node2&#45;&gt;Node3 -->
<g id="edge2_Node000002_Node000003" class="edge">
<title>Node2&#45;&gt;Node3</title>
<g id="a_edge2_Node000002_Node000003"><a xlink:title=" ">
<path fill="none" stroke="#63b8ff" d="M97.19,-172.43C64.39,-168.5 25.61,-157.52 4.33,-129 -8.42,-111.93 11.56,-92.59 29.71,-79.78"/>
<polygon fill="#63b8ff" stroke="#63b8ff" points="31.93,-82.51 38.32,-74.06 28.06,-76.68 31.93,-82.51"/>
</a>
</g>
</g>
<!-- Node5 -->
<g id="Node000005" class="node">
<title>Node5</title>
<g id="a_Node000005"><a xlink:title=" ">
<polygon fill="#e0e0e0" stroke="#999999" points="146.33,-19 96.33,-19 96.33,0 146.33,0 146.33,-19"/>
<text text-anchor="middle" x="121.33" y="-7" font-family="Helvetica,sans-Serif" font-size="10.00">cstdint</text>
</a>
</g>
</g>
<!-- Node2&#45;&gt;Node5 -->
<g id="edge7_Node000002_Node000005" class="edge">
<title>Node2&#45;&gt;Node5</title>
<g id="a_edge7_Node000002_Node000005"><a xlink:title=" ">
<path fill="none" stroke="#63b8ff" d="M151.15,-164.74C148.03,-155.84 143.3,-141.61 140.33,-129 132.1,-94.15 126.35,-52.68 123.47,-29.19"/>
<polygon fill="#63b8ff" stroke="#63b8ff" points="126.94,-28.73 122.28,-19.21 119.98,-29.55 126.94,-28.73"/>
</a>
</g>
</g>
<!-- Node10 -->
<g id="Node000010" class="node">
<title>Node10</title>
<g id="a_Node000010"><a xlink:href="cfg_2def_8hpp.html" target="_top" xlink:title=" ">
<polygon fill="#fff0f0" stroke="red" points="93.33,-129 13.33,-129 13.33,-110 93.33,-110 93.33,-129"/>
<text text-anchor="middle" x="53.33" y="-117" font-family="Helvetica,sans-Serif" font-size="10.00">../cfg/def.hpp</text>
</a>
</g>
</g>
<!-- Node2&#45;&gt;Node10 -->
<g id="edge4_Node000002_Node000010" class="edge">
<title>Node2&#45;&gt;Node10</title>
<g id="a_edge4_Node000002_Node000010"><a xlink:title=" ">
<path fill="none" stroke="#63b8ff" d="M138.1,-164.98C122.14,-156.61 97.55,-143.7 78.95,-133.95"/>
<polygon fill="#63b8ff" stroke="#63b8ff" points="80.33,-130.72 69.85,-129.17 77.08,-136.92 80.33,-130.72"/>
</a>
</g>
</g>
<!-- Node13 -->
<g id="Node000013" class="node">
<title>Node13</title>
<g id="a_Node000013"><a xlink:href="status_8hpp.html" target="_top" xlink:title=" ">
<polygon fill="#fff0f0" stroke="red" points="226.83,-129 149.83,-129 149.83,-110 226.83,-110 226.83,-129"/>
<text text-anchor="middle" x="188.33" y="-117" font-family="Helvetica,sans-Serif" font-size="10.00">../status.hpp</text>
</a>
</g>
</g>
<!-- Node2&#45;&gt;Node13 -->
<g id="edge6_Node000002_Node000013" class="edge">
<title>Node2&#45;&gt;Node13</title>
<g id="a_edge6_Node000002_Node000013"><a xlink:title=" ">
<path fill="none" stroke="#63b8ff" d="M159.94,-164.75C164.64,-157.42 171.5,-146.73 177.29,-137.7"/>
<polygon fill="#63b8ff" stroke="#63b8ff" points="180.36,-139.4 182.82,-129.09 174.47,-135.62 180.36,-139.4"/>
</a>
</g>
</g>
<!-- Node16 -->
<g id="Node000016" class="node">
<title>Node16</title>
<g id="a_Node000016"><a xlink:title=" ">
<polygon fill="#e0e0e0" stroke="#999999" points="285.33,-129 245.33,-129 245.33,-110 285.33,-110 285.33,-129"/>
<text text-anchor="middle" x="265.33" y="-117" font-family="Helvetica,sans-Serif" font-size="10.00">span</text>
</a>
</g>
</g>
<!-- Node2&#45;&gt;Node16 -->
<g id="edge8_Node000002_Node000016" class="edge">
<title>Node2&#45;&gt;Node16</title>
<g id="a_edge8_Node000002_Node000016"><a xlink:title=" ">
<path fill="none" stroke="#63b8ff" d="M172.16,-164.98C189.94,-156.5 217.47,-143.35 238.01,-133.54"/>
<polygon fill="#63b8ff" stroke="#63b8ff" points="239.65,-136.64 247.17,-129.17 236.63,-130.32 239.65,-136.64"/>
</a>
</g>
</g>
<!-- Node3&#45;&gt;Node5 -->
<g id="edge3_Node000003_Node000005" class="edge">
<title>Node3&#45;&gt;Node5</title>
<g id="a_edge3_Node000003_Node000005"><a xlink:title=" ">
<path fill="none" stroke="#63b8ff" d="M64.25,-54.98C74.4,-47.07 89.75,-35.11 101.97,-25.58"/>
<polygon fill="#63b8ff" stroke="#63b8ff" points="104.47,-28.08 110.2,-19.17 100.16,-22.56 104.47,-28.08"/>
</a>
</g>
</g>
<!-- Node10&#45;&gt;Node3 -->
<g id="edge5_Node000010_Node000003" class="edge">
<title>Node10&#45;&gt;Node3</title>
<g id="a_edge5_Node000010_Node000003"><a xlink:title=" ">
<path fill="none" stroke="#63b8ff" d="M53.33,-109.75C53.33,-102.8 53.33,-92.85 53.33,-84.13"/>
<polygon fill="#63b8ff" stroke="#63b8ff" points="56.83,-84.09 53.33,-74.09 49.83,-84.09 56.83,-84.09"/>
</a>
</g>
</g>
<!-- Node18 -->
<g id="Node000018" class="node">
<title>Node18</title>
<g id="a_Node000018"><a xlink:href="linear__converter_8hpp.html" target="_top" xlink:title=" ">
<polygon fill="white" stroke="#666666" points="322.33,-74 200.33,-74 200.33,-55 322.33,-55 322.33,-74"/>
<text text-anchor="middle" x="261.33" y="-62" font-family="Helvetica,sans-Serif" font-size="10.00">./linear_converter.hpp</text>
</a>
</g>
</g>
<!-- Node17&#45;&gt;Node18 -->
<g id="edge10_Node000017_Node000018" class="edge">
<title>Node17&#45;&gt;Node18</title>
<g id="a_edge10_Node000017_Node000018"><a xlink:title=" ">
<path fill="none" stroke="#63b8ff" d="M295.26,-164.6C297.59,-152.06 300.48,-128.64 294.33,-110 290.87,-99.54 283.9,-89.53 277.25,-81.66"/>
<polygon fill="#63b8ff" stroke="#63b8ff" points="279.65,-79.1 270.34,-74.04 274.47,-83.8 279.65,-79.1"/>
</a>
</g>
</g>
<!-- Node18&#45;&gt;Node5 -->
<g id="edge11_Node000018_Node000005" class="edge">
<title>Node18&#45;&gt;Node5</title>
<g id="a_edge11_Node000018_Node000005"><a xlink:title=" ">
<path fill="none" stroke="#63b8ff" d="M238.83,-54.98C215.8,-46.27 179.79,-32.63 153.69,-22.75"/>
<polygon fill="#63b8ff" stroke="#63b8ff" points="154.82,-19.44 144.23,-19.17 152.34,-25.98 154.82,-19.44"/>
</a>
</g>
</g>
</g>
</svg>
