<?xml version="1.0" encoding="UTF-8" standalone="no"?>
<!DOCTYPE svg PUBLIC "-//W3C//DTD SVG 1.1//EN"
 "http://www.w3.org/Graphics/SVG/1.1/DTD/svg11.dtd">
<!-- Generated by graphviz version 2.43.0 (0)
 -->
<!-- Title: src/cnv/utils.hpp Pages: 1 -->
<svg width="352pt" height="247pt"
 viewBox="0.00 0.00 351.93 247.00" xmlns="http://www.w3.org/2000/svg" xmlns:xlink="http://www.w3.org/1999/xlink">
<g id="graph0" class="graph" transform="scale(1 1) rotate(0) translate(4 243)">
<title>src/cnv/utils.hpp</title>
<!-- Node1 -->
<g id="Node000001" class="node">
<title>Node1</title>
<g id="a_Node000001"><a xlink:title=" ">
<polygon fill="#999999" stroke="#666666" points="268.43,-239 172.43,-239 172.43,-220 268.43,-220 268.43,-239"/>
<text text-anchor="middle" x="220.43" y="-227" font-family="Helvetica,sans-Serif" font-size="10.00">src/cnv/utils.hpp</text>
</a>
</g>
</g>
<!-- Node2 -->
<g id="Node000002" class="node">
<title>Node2</title>
<g id="a_Node000002"><a xlink:href="interfaces_8hpp.html" target="_top" xlink:title=" ">
<polygon fill="white" stroke="#666666" points="217.43,-184 103.43,-184 103.43,-165 217.43,-165 217.43,-184"/>
<text text-anchor="middle" x="160.43" y="-172" font-family="Helvetica,sans-Serif" font-size="10.00">../drv/interfaces.hpp</text>
</a>
</g>
</g>
<!-- Node1&#45;&gt;Node2 -->
<g id="edge1_Node000001_Node000002" class="edge">
<title>Node1&#45;&gt;Node2</title>
<g id="a_edge1_Node000001_Node000002"><a xlink:title=" ">
<path fill="none" stroke="#63b8ff" d="M210.79,-219.98C201.92,-212.15 188.56,-200.34 177.82,-190.86"/>
<polygon fill="#63b8ff" stroke="#63b8ff" points="180.06,-188.17 170.25,-184.17 175.42,-193.41 180.06,-188.17"/>
</a>
</g>
</g>
<!-- Node20 -->
<g id="Node000020" class="node">
<title>Node20</title>
<g id="a_Node000020"><a xlink:href="converter_8hpp.html" target="_top" xlink:title=" ">
<polygon fill="white" stroke="#666666" points="343.93,-184 254.93,-184 254.93,-165 343.93,-165 343.93,-184"/>
<text text-anchor="middle" x="299.43" y="-172" font-family="Helvetica,sans-Serif" font-size="10.00">./converter.hpp</text>
</a>
</g>
</g>
<!-- Node1&#45;&gt;Node20 -->
<g id="edge9_Node000001_Node000020" class="edge">
<title>Node1&#45;&gt;Node20</title>
<g id="a_edge9_Node000001_Node000020"><a xlink:title=" ">
<path fill="none" stroke="#63b8ff" d="M233.12,-219.98C245.26,-211.84 263.79,-199.41 278.18,-189.76"/>
<polygon fill="#63b8ff" stroke="#63b8ff" points="280.15,-192.65 286.51,-184.17 276.25,-186.84 280.15,-192.65"/>
</a>
</g>
</g>
<!-- Node3 -->
<g id="Node000003" class="node">
<title>Node3</title>
<g id="a_Node000003"><a xlink:href="base_8hpp.html" target="_top" xlink:title=" ">
<polygon fill="#fff0f0" stroke="red" points="91.43,-74 21.43,-74 21.43,-55 91.43,-55 91.43,-74"/>
<text text-anchor="middle" x="56.43" y="-62" font-family="Helvetica,sans-Serif" font-size="10.00">../base.hpp</text>
</a>
</g>
</g>
<!-- Node2&#45;&gt;Node3 -->
<g id="edge2_Node000002_Node000003" class="edge">
<title>Node2&#45;&gt;Node3</title>
<g id="a_edge2_Node000002_Node000003"><a xlink:title=" ">
<path fill="none" stroke="#63b8ff" d="M105.23,-164.93C65.48,-157.49 16.77,-145.35 4.43,-129 -8.74,-111.54 12.57,-92.19 31.76,-79.49"/>
<polygon fill="#63b8ff" stroke="#63b8ff" points="33.67,-82.43 40.29,-74.16 29.96,-76.49 33.67,-82.43"/>
</a>
</g>
</g>
<!-- Node5 -->
<g id="Node000005" class="node">
<title>Node5</title>
<g id="a_Node000005"><a xlink:title=" ">
<polygon fill="#e0e0e0" stroke="#999999" points="152.43,-19 102.43,-19 102.43,0 152.43,0 152.43,-19"/>
<text text-anchor="middle" x="127.43" y="-7" font-family="Helvetica,sans-Serif" font-size="10.00">cstdint</text>
</a>
</g>
</g>
<!-- Node2&#45;&gt;Node5 -->
<g id="edge7_Node000002_Node000005" class="edge">
<title>Node2&#45;&gt;Node5</title>
<g id="a_edge7_Node000002_Node000005"><a xlink:title=" ">
<path fill="none" stroke="#63b8ff" d="M157.26,-164.74C154.13,-155.84 149.41,-141.61 146.43,-129 138.2,-94.15 132.46,-52.68 129.57,-29.19"/>
<polygon fill="#63b8ff" stroke="#63b8ff" points="133.04,-28.73 128.39,-19.21 126.09,-29.55 133.04,-28.73"/>
</a>
</g>
</g>
<!-- Node9 -->
<g id="Node000009" class="node">
<title>Node9</title>
<g id="a_Node000009"><a xlink:href="map_8hpp.html" target="_top" xlink:title=" ">
<polygon fill="#fff0f0" stroke="red" points="99.43,-129 13.43,-129 13.43,-110 99.43,-110 99.43,-129"/>
<text text-anchor="middle" x="56.43" y="-117" font-family="Helvetica,sans-Serif" font-size="10.00">../cfg/map.hpp</text>
</a>
</g>
</g>
<!-- Node2&#45;&gt;Node9 -->
<g id="edge4_Node000002_Node000009" class="edge">
<title>Node2&#45;&gt;Node9</title>
<g id="a_edge4_Node000002_Node000009"><a xlink:title=" ">
<path fill="none" stroke="#63b8ff" d="M143.72,-164.98C127.22,-156.57 101.73,-143.59 82.55,-133.81"/>
<polygon fill="#63b8ff" stroke="#63b8ff" points="83.94,-130.59 73.44,-129.17 80.77,-136.83 83.94,-130.59"/>
</a>
</g>
</g>
<!-- Node16 -->
<g id="Node000016" class="node">
<title>Node16</title>
<g id="a_Node000016"><a xlink:href="status_8hpp.html" target="_top" xlink:title=" ">
<polygon fill="#fff0f0" stroke="red" points="232.93,-129 155.93,-129 155.93,-110 232.93,-110 232.93,-129"/>
<text text-anchor="middle" x="194.43" y="-117" font-family="Helvetica,sans-Serif" font-size="10.00">../status.hpp</text>
</a>
</g>
</g>
<!-- Node2&#45;&gt;Node16 -->
<g id="edge6_Node000002_Node000016" class="edge">
<title>Node2&#45;&gt;Node16</title>
<g id="a_edge6_Node000002_Node000016"><a xlink:title=" ">
<path fill="none" stroke="#63b8ff" d="M166.05,-164.75C170.75,-157.42 177.6,-146.73 183.4,-137.7"/>
<polygon fill="#63b8ff" stroke="#63b8ff" points="186.47,-139.4 188.92,-129.09 180.58,-135.62 186.47,-139.4"/>
</a>
</g>
</g>
<!-- Node19 -->
<g id="Node000019" class="node">
<title>Node19</title>
<g id="a_Node000019"><a xlink:title=" ">
<polygon fill="#e0e0e0" stroke="#999999" points="291.43,-129 251.43,-129 251.43,-110 291.43,-110 291.43,-129"/>
<text text-anchor="middle" x="271.43" y="-117" font-family="Helvetica,sans-Serif" font-size="10.00">span</text>
</a>
</g>
</g>
<!-- Node2&#45;&gt;Node19 -->
<g id="edge8_Node000002_Node000019" class="edge">
<title>Node2&#45;&gt;Node19</title>
<g id="a_edge8_Node000002_Node000019"><a xlink:title=" ">
<path fill="none" stroke="#63b8ff" d="M178.27,-164.98C196.04,-156.5 223.58,-143.35 244.11,-133.54"/>
<polygon fill="#63b8ff" stroke="#63b8ff" points="245.76,-136.64 253.27,-129.17 242.74,-130.32 245.76,-136.64"/>
</a>
</g>
</g>
<!-- Node3&#45;&gt;Node5 -->
<g id="edge3_Node000003_Node000005" class="edge">
<title>Node3&#45;&gt;Node5</title>
<g id="a_edge3_Node000003_Node000005"><a xlink:title=" ">
<path fill="none" stroke="#63b8ff" d="M67.84,-54.98C78.54,-47 94.77,-34.88 107.59,-25.31"/>
<polygon fill="#63b8ff" stroke="#63b8ff" points="109.9,-27.96 115.82,-19.17 105.71,-22.35 109.9,-27.96"/>
</a>
</g>
</g>
<!-- Node9&#45;&gt;Node3 -->
<g id="edge5_Node000009_Node000003" class="edge">
<title>Node9&#45;&gt;Node3</title>
<g id="a_edge5_Node000009_Node000003"><a xlink:title=" ">
<path fill="none" stroke="#63b8ff" d="M56.43,-109.75C56.43,-102.8 56.43,-92.85 56.43,-84.13"/>
<polygon fill="#63b8ff" stroke="#63b8ff" points="59.93,-84.09 56.43,-74.09 52.93,-84.09 59.93,-84.09"/>
</a>
</g>
</g>
<!-- Node21 -->
<g id="Node000021" class="node">
<title>Node21</title>
<g id="a_Node000021"><a xlink:href="linear__converter_8hpp.html" target="_top" xlink:title=" ">
<polygon fill="white" stroke="#666666" points="328.43,-74 206.43,-74 206.43,-55 328.43,-55 328.43,-74"/>
<text text-anchor="middle" x="267.43" y="-62" font-family="Helvetica,sans-Serif" font-size="10.00">./linear_converter.hpp</text>
</a>
</g>
</g>
<!-- Node20&#45;&gt;Node21 -->
<g id="edge10_Node000020_Node000021" class="edge">
<title>Node20&#45;&gt;Node21</title>
<g id="a_edge10_Node000020_Node000021"><a xlink:title=" ">
<path fill="none" stroke="#63b8ff" d="M301.37,-164.6C303.7,-152.06 306.59,-128.64 300.43,-110 296.98,-99.54 290,-89.53 283.36,-81.66"/>
<polygon fill="#63b8ff" stroke="#63b8ff" points="285.76,-79.1 276.45,-74.04 280.57,-83.8 285.76,-79.1"/>
</a>
</g>
</g>
<!-- Node21&#45;&gt;Node5 -->
<g id="edge11_Node000021_Node000005" class="edge">
<title>Node21&#45;&gt;Node5</title>
<g id="a_edge11_Node000021_Node000005"><a xlink:title=" ">
<path fill="none" stroke="#63b8ff" d="M244.94,-54.98C221.91,-46.27 185.89,-32.63 159.8,-22.75"/>
<polygon fill="#63b8ff" stroke="#63b8ff" points="160.93,-19.44 150.33,-19.17 158.45,-25.98 160.93,-19.44"/>
</a>
</g>
</g>
</g>
</svg>
