<?xml version="1.0" encoding="UTF-8" standalone="no"?>
<!DOCTYPE svg PUBLIC "-//W3C//DTD SVG 1.1//EN"
 "http://www.w3.org/Graphics/SVG/1.1/DTD/svg11.dtd">
<!-- Generated by graphviz version 2.43.0 (0)
 -->
<!-- Title: src/cnv/utils.hpp Pages: 1 -->
<svg width="470pt" height="196pt"
 viewBox="0.00 0.00 469.50 196.00" xmlns="http://www.w3.org/2000/svg" xmlns:xlink="http://www.w3.org/1999/xlink">
<g id="graph0" class="graph" transform="scale(1 1) rotate(0) translate(4 192)">
<title>src/cnv/utils.hpp</title>
<polygon fill="white" stroke="transparent" points="-4,4 -4,-192 465.5,-192 465.5,4 -4,4"/>
<!-- Node1 -->
<g id="node1" class="node">
<title>Node1</title>
<g id="a_node1"><a xlink:title=" ">
<polygon fill="#bfbfbf" stroke="black" points="104.5,-168.5 104.5,-187.5 200.5,-187.5 200.5,-168.5 104.5,-168.5"/>
<text text-anchor="middle" x="152.5" y="-175.5" font-family="Helvetica,sans-Serif" font-size="10.00">src/cnv/utils.hpp</text>
</a>
</g>
</g>
<!-- Node2 -->
<g id="node2" class="node">
<title>Node2</title>
<g id="a_node2"><a xlink:href="converter_8hpp.html" target="_top" xlink:title=" ">
<polygon fill="white" stroke="black" points="39.5,-112.5 39.5,-131.5 143.5,-131.5 143.5,-112.5 39.5,-112.5"/>
<text text-anchor="middle" x="91.5" y="-119.5" font-family="Helvetica,sans-Serif" font-size="10.00">cnv/converter.hpp</text>
</a>
</g>
</g>
<!-- Node1&#45;&gt;Node2 -->
<g id="edge1" class="edge">
<title>Node1&#45;&gt;Node2</title>
<path fill="none" stroke="midnightblue" d="M142.7,-168.32C133.68,-160.34 120.09,-148.31 109.18,-138.65"/>
<polygon fill="midnightblue" stroke="midnightblue" points="111.29,-135.84 101.48,-131.83 106.65,-141.08 111.29,-135.84"/>
</g>
<!-- Node5 -->
<g id="node5" class="node">
<title>Node5</title>
<g id="a_node5"><a xlink:href="interfaces_8hpp.html" target="_top" xlink:title=" ">
<polygon fill="white" stroke="black" points="185,-112.5 185,-131.5 290,-131.5 290,-112.5 185,-112.5"/>
<text text-anchor="middle" x="237.5" y="-119.5" font-family="Helvetica,sans-Serif" font-size="10.00">drv/interfaces.hpp</text>
</a>
</g>
</g>
<!-- Node1&#45;&gt;Node5 -->
<g id="edge4" class="edge">
<title>Node1&#45;&gt;Node5</title>
<path fill="none" stroke="midnightblue" d="M166.16,-168.32C179.42,-159.9 199.77,-146.97 215.35,-137.07"/>
<polygon fill="midnightblue" stroke="midnightblue" points="217.31,-139.97 223.88,-131.65 213.56,-134.06 217.31,-139.97"/>
</g>
<!-- Node3 -->
<g id="node3" class="node">
<title>Node3</title>
<g id="a_node3"><a xlink:href="linear__converter_8hpp.html" target="_top" xlink:title=" ">
<polygon fill="white" stroke="black" points="0,-56.5 0,-75.5 137,-75.5 137,-56.5 0,-56.5"/>
<text text-anchor="middle" x="68.5" y="-63.5" font-family="Helvetica,sans-Serif" font-size="10.00">cnv/linear_converter.hpp</text>
</a>
</g>
</g>
<!-- Node2&#45;&gt;Node3 -->
<g id="edge2" class="edge">
<title>Node2&#45;&gt;Node3</title>
<path fill="none" stroke="midnightblue" d="M87.7,-112.08C84.59,-104.77 80.08,-94.18 76.21,-85.1"/>
<polygon fill="midnightblue" stroke="midnightblue" points="79.37,-83.58 72.23,-75.75 72.93,-86.32 79.37,-83.58"/>
</g>
<!-- Node4 -->
<g id="node4" class="node">
<title>Node4</title>
<g id="a_node4"><a xlink:title=" ">
<polygon fill="white" stroke="#bfbfbf" points="140.5,-0.5 140.5,-19.5 190.5,-19.5 190.5,-0.5 140.5,-0.5"/>
<text text-anchor="middle" x="165.5" y="-7.5" font-family="Helvetica,sans-Serif" font-size="10.00">cstdint</text>
</a>
</g>
</g>
<!-- Node3&#45;&gt;Node4 -->
<g id="edge3" class="edge">
<title>Node3&#45;&gt;Node4</title>
<path fill="none" stroke="midnightblue" d="M84.08,-56.32C99.5,-47.74 123.31,-34.49 141.21,-24.52"/>
<polygon fill="midnightblue" stroke="midnightblue" points="142.92,-27.58 149.95,-19.65 139.51,-21.46 142.92,-27.58"/>
</g>
<!-- Node5&#45;&gt;Node4 -->
<g id="edge7" class="edge">
<title>Node5&#45;&gt;Node4</title>
<path fill="none" stroke="midnightblue" d="M223.31,-112.37C211.3,-104.37 194.49,-91.39 184.5,-76 175.4,-61.98 170.55,-43.48 168.03,-29.8"/>
<polygon fill="midnightblue" stroke="midnightblue" points="171.45,-28.98 166.43,-19.65 164.53,-30.08 171.45,-28.98"/>
</g>
<!-- Node6 -->
<g id="node6" class="node">
<title>Node6</title>
<g id="a_node6"><a xlink:href="base_2base_8hpp.html" target="_top" xlink:title=" ">
<polygon fill="white" stroke="red" points="194,-56.5 194,-75.5 281,-75.5 281,-56.5 194,-56.5"/>
<text text-anchor="middle" x="237.5" y="-63.5" font-family="Helvetica,sans-Serif" font-size="10.00">base/base.hpp</text>
</a>
</g>
</g>
<!-- Node5&#45;&gt;Node6 -->
<g id="edge5" class="edge">
<title>Node5&#45;&gt;Node6</title>
<path fill="none" stroke="midnightblue" d="M237.5,-112.08C237.5,-105.01 237.5,-94.86 237.5,-85.99"/>
<polygon fill="midnightblue" stroke="midnightblue" points="241,-85.75 237.5,-75.75 234,-85.75 241,-85.75"/>
</g>
<!-- Node11 -->
<g id="node7" class="node">
<title>Node11</title>
<g id="a_node7"><a xlink:title=" ">
<polygon fill="white" stroke="#bfbfbf" points="299.5,-56.5 299.5,-75.5 403.5,-75.5 403.5,-56.5 299.5,-56.5"/>
<text text-anchor="middle" x="351.5" y="-63.5" font-family="Helvetica,sans-Serif" font-size="10.00">emlabcpp/result.h</text>
</a>
</g>
</g>
<!-- Node5&#45;&gt;Node11 -->
<g id="edge8" class="edge">
<title>Node5&#45;&gt;Node11</title>
<path fill="none" stroke="midnightblue" d="M255.56,-112.44C274.07,-103.68 303.08,-89.94 324.36,-79.86"/>
<polygon fill="midnightblue" stroke="midnightblue" points="325.98,-82.96 333.52,-75.52 322.99,-76.63 325.98,-82.96"/>
</g>
<!-- Node12 -->
<g id="node8" class="node">
<title>Node12</title>
<g id="a_node8"><a xlink:title=" ">
<polygon fill="white" stroke="#bfbfbf" points="421.5,-56.5 421.5,-75.5 461.5,-75.5 461.5,-56.5 421.5,-56.5"/>
<text text-anchor="middle" x="441.5" y="-63.5" font-family="Helvetica,sans-Serif" font-size="10.00">span</text>
</a>
</g>
</g>
<!-- Node5&#45;&gt;Node12 -->
<g id="edge9" class="edge">
<title>Node5&#45;&gt;Node12</title>
<path fill="none" stroke="midnightblue" d="M272.83,-112.46C306.27,-104.25 358.07,-91.23 411.6,-76.16"/>
<polygon fill="midnightblue" stroke="midnightblue" points="412.59,-79.52 421.26,-73.42 410.68,-72.78 412.59,-79.52"/>
</g>
<!-- Node6&#45;&gt;Node4 -->
<g id="edge6" class="edge">
<title>Node6&#45;&gt;Node4</title>
<path fill="none" stroke="midnightblue" d="M225.93,-56.32C215.08,-48.18 198.62,-35.84 185.62,-26.09"/>
<polygon fill="midnightblue" stroke="midnightblue" points="187.38,-23.03 177.28,-19.83 183.18,-28.63 187.38,-23.03"/>
</g>
</g>
</svg>
