<?xml version="1.0" encoding="UTF-8" standalone="no"?>
<!DOCTYPE svg PUBLIC "-//W3C//DTD SVG 1.1//EN"
 "http://www.w3.org/Graphics/SVG/1.1/DTD/svg11.dtd">
<!-- Generated by graphviz version 2.43.0 (0)
 -->
<!-- Title: src/iface/util.h Pages: 1 -->
<svg width="304pt" height="137pt"
 viewBox="0.00 0.00 304.00 137.00" xmlns="http://www.w3.org/2000/svg" xmlns:xlink="http://www.w3.org/1999/xlink">
<g id="graph0" class="graph" transform="scale(1 1) rotate(0) translate(4 133)">
<title>src/iface/util.h</title>
<!-- Node1 -->
<g id="Node000001" class="node">
<title>Node1</title>
<g id="a_Node000001"><a xlink:title=" ">
<polygon fill="#999999" stroke="#666666" points="215.5,-129 129.5,-129 129.5,-110 215.5,-110 215.5,-129"/>
<text text-anchor="middle" x="172.5" y="-117" font-family="Helvetica,sans-Serif" font-size="10.00">src/iface/util.h</text>
</a>
</g>
</g>
<!-- Node2 -->
<g id="Node000002" class="node">
<title>Node2</title>
<g id="a_Node000002"><a xlink:href="str__lib_8h.html" target="_top" xlink:title=" ">
<polygon fill="white" stroke="#666666" points="117.5,-74 37.5,-74 37.5,-55 117.5,-55 117.5,-74"/>
<text text-anchor="middle" x="77.5" y="-62" font-family="Helvetica,sans-Serif" font-size="10.00">../lib/str_lib.h</text>
</a>
</g>
</g>
<!-- Node1&#45;&gt;Node2 -->
<g id="edge1_Node000001_Node000002" class="edge">
<title>Node1&#45;&gt;Node2</title>
<g id="a_edge1_Node000001_Node000002"><a xlink:title=" ">
<path fill="none" stroke="#63b8ff" d="M157.24,-109.98C142.37,-101.69 119.52,-88.94 102.08,-79.22"/>
<polygon fill="#63b8ff" stroke="#63b8ff" points="103.48,-75.99 93.04,-74.17 100.07,-82.1 103.48,-75.99"/>
</a>
</g>
</g>
<!-- Node6 -->
<g id="Node000006" class="node">
<title>Node6</title>
<g id="a_Node000006"><a xlink:title=" ">
<polygon fill="#e0e0e0" stroke="#999999" points="209,-74 136,-74 136,-55 209,-55 209,-74"/>
<text text-anchor="middle" x="172.5" y="-62" font-family="Helvetica,sans-Serif" font-size="10.00">string_view</text>
</a>
</g>
</g>
<!-- Node1&#45;&gt;Node6 -->
<g id="edge5_Node000001_Node000006" class="edge">
<title>Node1&#45;&gt;Node6</title>
<g id="a_edge5_Node000001_Node000006"><a xlink:title=" ">
<path fill="none" stroke="#63b8ff" d="M172.5,-109.75C172.5,-102.8 172.5,-92.85 172.5,-84.13"/>
<polygon fill="#63b8ff" stroke="#63b8ff" points="176,-84.09 172.5,-74.09 169,-84.09 176,-84.09"/>
</a>
</g>
</g>
<!-- Node7 -->
<g id="Node000007" class="node">
<title>Node7</title>
<g id="a_Node000007"><a xlink:title=" ">
<polygon fill="#e0e0e0" stroke="#999999" points="296,-74 227,-74 227,-55 296,-55 296,-74"/>
<text text-anchor="middle" x="261.5" y="-62" font-family="Helvetica,sans-Serif" font-size="10.00">vari/vopt.h</text>
</a>
</g>
</g>
<!-- Node1&#45;&gt;Node7 -->
<g id="edge6_Node000001_Node000007" class="edge">
<title>Node1&#45;&gt;Node7</title>
<g id="a_edge6_Node000001_Node000007"><a xlink:title=" ">
<path fill="none" stroke="#63b8ff" d="M186.8,-109.98C200.6,-101.77 221.74,-89.18 238.01,-79.49"/>
<polygon fill="#63b8ff" stroke="#63b8ff" points="240.14,-82.29 246.94,-74.17 236.56,-76.28 240.14,-82.29"/>
</a>
</g>
</g>
<!-- Node3 -->
<g id="Node000003" class="node">
<title>Node3</title>
<g id="a_Node000003"><a xlink:title=" ">
<polygon fill="#e0e0e0" stroke="#999999" points="29,-19 0,-19 0,0 29,0 29,-19"/>
<text text-anchor="middle" x="14.5" y="-7" font-family="Helvetica,sans-Serif" font-size="10.00">bit</text>
</a>
</g>
</g>
<!-- Node2&#45;&gt;Node3 -->
<g id="edge2_Node000002_Node000003" class="edge">
<title>Node2&#45;&gt;Node3</title>
<g id="a_edge2_Node000002_Node000003"><a xlink:title=" ">
<path fill="none" stroke="#63b8ff" d="M67.38,-54.98C58.06,-47.15 44.03,-35.34 32.76,-25.86"/>
<polygon fill="#63b8ff" stroke="#63b8ff" points="34.71,-22.93 24.81,-19.17 30.21,-28.29 34.71,-22.93"/>
</a>
</g>
</g>
<!-- Node4 -->
<g id="Node000004" class="node">
<title>Node4</title>
<g id="a_Node000004"><a xlink:title=" ">
<polygon fill="#e0e0e0" stroke="#999999" points="107.5,-19 47.5,-19 47.5,0 107.5,0 107.5,-19"/>
<text text-anchor="middle" x="77.5" y="-7" font-family="Helvetica,sans-Serif" font-size="10.00">concepts</text>
</a>
</g>
</g>
<!-- Node2&#45;&gt;Node4 -->
<g id="edge3_Node000002_Node000004" class="edge">
<title>Node2&#45;&gt;Node4</title>
<g id="a_edge3_Node000002_Node000004"><a xlink:title=" ">
<path fill="none" stroke="#63b8ff" d="M77.5,-54.75C77.5,-47.8 77.5,-37.85 77.5,-29.13"/>
<polygon fill="#63b8ff" stroke="#63b8ff" points="81,-29.09 77.5,-19.09 74,-29.09 81,-29.09"/>
</a>
</g>
</g>
<!-- Node5 -->
<g id="Node000005" class="node">
<title>Node5</title>
<g id="a_Node000005"><a xlink:title=" ">
<polygon fill="#e0e0e0" stroke="#999999" points="175.5,-19 125.5,-19 125.5,0 175.5,0 175.5,-19"/>
<text text-anchor="middle" x="150.5" y="-7" font-family="Helvetica,sans-Serif" font-size="10.00">cstdint</text>
</a>
</g>
</g>
<!-- Node2&#45;&gt;Node5 -->
<g id="edge4_Node000002_Node000005" class="edge">
<title>Node2&#45;&gt;Node5</title>
<g id="a_edge4_Node000002_Node000005"><a xlink:title=" ">
<path fill="none" stroke="#63b8ff" d="M89.23,-54.98C100.23,-47 116.92,-34.88 130.1,-25.31"/>
<polygon fill="#63b8ff" stroke="#63b8ff" points="132.52,-27.88 138.56,-19.17 128.41,-22.21 132.52,-27.88"/>
</a>
</g>
</g>
</g>
</svg>
