<?xml version="1.0" encoding="UTF-8" standalone="no"?>
<!DOCTYPE svg PUBLIC "-//W3C//DTD SVG 1.1//EN"
 "http://www.w3.org/Graphics/SVG/1.1/DTD/svg11.dtd">
<!-- Generated by graphviz version 2.43.0 (0)
 -->
<!-- Title: src/gov/velocity/velocity.hpp Pages: 1 -->
<svg width="995pt" height="269pt"
 viewBox="0.00 0.00 995.00 269.00" xmlns="http://www.w3.org/2000/svg" xmlns:xlink="http://www.w3.org/1999/xlink">
<g id="graph0" class="graph" transform="scale(1 1) rotate(0) translate(4 265)">
<title>src/gov/velocity/velocity.hpp</title>
<!-- Node1 -->
<g id="Node000001" class="node">
<title>Node1</title>
<g id="a_Node000001"><a xlink:title=" ">
<polygon fill="#999999" stroke="#666666" points="743.5,-261 588.5,-261 588.5,-242 743.5,-242 743.5,-261"/>
<text text-anchor="middle" x="666" y="-249" font-family="Helvetica,sans-Serif" font-size="10.00">src/gov/velocity/velocity.hpp</text>
</a>
</g>
</g>
<!-- Node2 -->
<g id="Node000002" class="node">
<title>Node2</title>
<g id="a_Node000002"><a xlink:href="handler_8hpp.html" target="_top" xlink:title=" ">
<polygon fill="white" stroke="#666666" points="603,-140 493,-140 493,-121 603,-121 603,-140"/>
<text text-anchor="middle" x="548" y="-128" font-family="Helvetica,sans-Serif" font-size="10.00">../../cfg/handler.hpp</text>
</a>
</g>
</g>
<!-- Node1&#45;&gt;Node2 -->
<g id="edge1_Node000001_Node000002" class="edge">
<title>Node1&#45;&gt;Node2</title>
<g id="a_edge1_Node000001_Node000002"><a xlink:title=" ">
<path fill="none" stroke="#63b8ff" d="M657.51,-241.94C637.96,-222.23 589.49,-173.34 564.09,-147.73"/>
<polygon fill="#63b8ff" stroke="#63b8ff" points="566.25,-144.94 556.73,-140.3 561.28,-149.87 566.25,-144.94"/>
</a>
</g>
</g>
<!-- Node30 -->
<g id="Node000030" class="node">
<title>Node30</title>
<g id="a_Node000030"><a xlink:href="linear__transition__regulator_8hpp.html" target="_top" xlink:title=" ">
<polygon fill="white" stroke="#666666" points="156.5,-206 27.5,-206 27.5,-176 156.5,-176 156.5,-206"/>
<text text-anchor="start" x="35.5" y="-194" font-family="Helvetica,sans-Serif" font-size="10.00">../../lib/linear_transition</text>
<text text-anchor="middle" x="92" y="-183" font-family="Helvetica,sans-Serif" font-size="10.00">_regulator.hpp</text>
</a>
</g>
</g>
<!-- Node1&#45;&gt;Node30 -->
<g id="edge9_Node000001_Node000030" class="edge">
<title>Node1&#45;&gt;Node30</title>
<g id="a_edge9_Node000001_Node000030"><a xlink:title=" ">
<path fill="none" stroke="#63b8ff" d="M588.29,-242.58C477.62,-231.3 275.97,-210.75 166.88,-199.63"/>
<polygon fill="#63b8ff" stroke="#63b8ff" points="166.92,-196.12 156.61,-198.59 166.21,-203.08 166.92,-196.12"/>
</a>
</g>
</g>
<!-- Node32 -->
<g id="Node000032" class="node">
<title>Node32</title>
<g id="a_Node000032"><a xlink:href="current_8hpp.html" target="_top" xlink:title=" ">
<polygon fill="white" stroke="#666666" points="817.5,-200.5 698.5,-200.5 698.5,-181.5 817.5,-181.5 817.5,-200.5"/>
<text text-anchor="middle" x="758" y="-188.5" font-family="Helvetica,sans-Serif" font-size="10.00">../current/current.hpp</text>
</a>
</g>
</g>
<!-- Node1&#45;&gt;Node32 -->
<g id="edge12_Node000001_Node000032" class="edge">
<title>Node1&#45;&gt;Node32</title>
<g id="a_edge12_Node000001_Node000032"><a xlink:title=" ">
<path fill="none" stroke="#63b8ff" d="M679.57,-241.87C694.39,-232.45 718.33,-217.23 735.86,-206.08"/>
<polygon fill="#63b8ff" stroke="#63b8ff" points="737.81,-208.99 744.37,-200.67 734.05,-203.08 737.81,-208.99"/>
</a>
</g>
</g>
<!-- Node33 -->
<g id="Node000033" class="node">
<title>Node33</title>
<g id="a_Node000033"><a xlink:href="governor_8hpp.html" target="_top" xlink:title=" ">
<polygon fill="#fff0f0" stroke="red" points="710.5,-140 621.5,-140 621.5,-121 710.5,-121 710.5,-140"/>
<text text-anchor="middle" x="666" y="-128" font-family="Helvetica,sans-Serif" font-size="10.00">../governor.hpp</text>
</a>
</g>
</g>
<!-- Node1&#45;&gt;Node33 -->
<g id="edge24_Node000001_Node000033" class="edge">
<title>Node1&#45;&gt;Node33</title>
<g id="a_edge24_Node000001_Node000033"><a xlink:title=" ">
<path fill="none" stroke="#63b8ff" d="M666,-241.94C666,-222.91 666,-176.69 666,-150.47"/>
<polygon fill="#63b8ff" stroke="#63b8ff" points="669.5,-150.3 666,-140.3 662.5,-150.3 669.5,-150.3"/>
</a>
</g>
</g>
<!-- Node39 -->
<g id="Node000039" class="node">
<title>Node39</title>
<g id="a_Node000039"><a xlink:title=" ">
<polygon fill="#e0e0e0" stroke="#999999" points="945,-140 853,-140 853,-121 945,-121 945,-140"/>
<text text-anchor="middle" x="899" y="-128" font-family="Helvetica,sans-Serif" font-size="10.00">emlabcpp/pid.h</text>
</a>
</g>
</g>
<!-- Node1&#45;&gt;Node39 -->
<g id="edge29_Node000001_Node000039" class="edge">
<title>Node1&#45;&gt;Node39</title>
<g id="a_edge29_Node000001_Node000039"><a xlink:title=" ">
<path fill="none" stroke="#63b8ff" d="M725.23,-241.93C757.03,-235.47 795.96,-224.44 827,-206 851.79,-191.27 873.77,-165.77 886.73,-148.77"/>
<polygon fill="#63b8ff" stroke="#63b8ff" points="889.85,-150.45 892.97,-140.32 884.22,-146.29 889.85,-150.45"/>
</a>
</g>
</g>
<!-- Node40 -->
<g id="Node000040" class="node">
<title>Node40</title>
<g id="a_Node000040"><a xlink:href="velocity_2cfg_8hpp.html" target="_top" xlink:title=" ">
<polygon fill="white" stroke="#666666" points="416.5,-200.5 357.5,-200.5 357.5,-181.5 416.5,-181.5 416.5,-200.5"/>
<text text-anchor="middle" x="387" y="-188.5" font-family="Helvetica,sans-Serif" font-size="10.00">./cfg.hpp</text>
</a>
</g>
</g>
<!-- Node1&#45;&gt;Node40 -->
<g id="edge25_Node000001_Node000040" class="edge">
<title>Node1&#45;&gt;Node40</title>
<g id="a_edge25_Node000001_Node000040"><a xlink:title=" ">
<path fill="none" stroke="#63b8ff" d="M625.43,-241.99C572.16,-230.82 479.22,-211.34 426.49,-200.28"/>
<polygon fill="#63b8ff" stroke="#63b8ff" points="427.01,-196.81 416.5,-198.19 425.57,-203.66 427.01,-196.81"/>
</a>
</g>
</g>
<!-- Node41 -->
<g id="Node000041" class="node">
<title>Node41</title>
<g id="a_Node000041"><a xlink:href="velocity_2iface_8hpp.html" target="_top" xlink:title=" ">
<polygon fill="white" stroke="#666666" points="987,-200.5 919,-200.5 919,-181.5 987,-181.5 987,-200.5"/>
<text text-anchor="middle" x="953" y="-188.5" font-family="Helvetica,sans-Serif" font-size="10.00">./iface.hpp</text>
</a>
</g>
</g>
<!-- Node1&#45;&gt;Node41 -->
<g id="edge27_Node000001_Node000041" class="edge">
<title>Node1&#45;&gt;Node41</title>
<g id="a_edge27_Node000001_Node000041"><a xlink:title=" ">
<path fill="none" stroke="#63b8ff" d="M708.6,-241.97C752.93,-233.07 824.36,-218.67 886,-206 893.45,-204.47 901.35,-202.83 909.03,-201.23"/>
<polygon fill="#63b8ff" stroke="#63b8ff" points="909.85,-204.63 918.92,-199.16 908.42,-197.78 909.85,-204.63"/>
</a>
</g>
</g>
<!-- Node3 -->
<g id="Node000003" class="node">
<title>Node3</title>
<g id="a_Node000003"><a xlink:href="base_8hpp.html" target="_top" xlink:title=" ">
<polygon fill="#fff0f0" stroke="red" points="552,-19 482,-19 482,0 552,0 552,-19"/>
<text text-anchor="middle" x="517" y="-7" font-family="Helvetica,sans-Serif" font-size="10.00">../base.hpp</text>
</a>
</g>
</g>
<!-- Node2&#45;&gt;Node3 -->
<g id="edge2_Node000002_Node000003" class="edge">
<title>Node2&#45;&gt;Node3</title>
<g id="a_edge2_Node000002_Node000003"><a xlink:title=" ">
<path fill="none" stroke="#63b8ff" d="M535.79,-120.86C525.65,-112.88 511.96,-100.01 506,-85 498.7,-66.64 503.85,-43.99 509.3,-28.52"/>
<polygon fill="#63b8ff" stroke="#63b8ff" points="512.6,-29.68 512.97,-19.1 506.08,-27.15 512.6,-29.68"/>
</a>
</g>
</g>
<!-- Node10 -->
<g id="Node000010" class="node">
<title>Node10</title>
<g id="a_Node000010"><a xlink:href="iface_2base_8hpp.html" target="_top" xlink:title=" ">
<polygon fill="#fff0f0" stroke="red" points="886.5,-79.5 789.5,-79.5 789.5,-60.5 886.5,-60.5 886.5,-79.5"/>
<text text-anchor="middle" x="838" y="-67.5" font-family="Helvetica,sans-Serif" font-size="10.00">../iface/base.hpp</text>
</a>
</g>
</g>
<!-- Node2&#45;&gt;Node10 -->
<g id="edge3_Node000002_Node000010" class="edge">
<title>Node2&#45;&gt;Node10</title>
<g id="a_edge3_Node000002_Node000010"><a xlink:title=" ">
<path fill="none" stroke="#63b8ff" d="M590.17,-120.99C641.93,-110.55 729.71,-92.85 785.71,-81.55"/>
<polygon fill="#63b8ff" stroke="#63b8ff" points="786.67,-84.93 795.78,-79.52 785.29,-78.06 786.67,-84.93"/>
</a>
</g>
</g>
<!-- Node22 -->
<g id="Node000022" class="node">
<title>Node22</title>
<g id="a_Node000022"><a xlink:href="cfg_2base_8hpp.html" target="_top" xlink:title=" ">
<polygon fill="#fff0f0" stroke="red" points="581.5,-79.5 514.5,-79.5 514.5,-60.5 581.5,-60.5 581.5,-79.5"/>
<text text-anchor="middle" x="548" y="-67.5" font-family="Helvetica,sans-Serif" font-size="10.00">./base.hpp</text>
</a>
</g>
</g>
<!-- Node2&#45;&gt;Node22 -->
<g id="edge4_Node000002_Node000022" class="edge">
<title>Node2&#45;&gt;Node22</title>
<g id="a_edge4_Node000002_Node000022"><a xlink:title=" ">
<path fill="none" stroke="#63b8ff" d="M548,-120.87C548,-112.75 548,-100.31 548,-89.89"/>
<polygon fill="#63b8ff" stroke="#63b8ff" points="551.5,-89.67 548,-79.67 544.5,-89.67 551.5,-89.67"/>
</a>
</g>
</g>
<!-- Node27 -->
<g id="Node000027" class="node">
<title>Node27</title>
<g id="a_Node000027"><a xlink:title=" ">
<polygon fill="#e0e0e0" stroke="#999999" points="457.5,-85 324.5,-85 324.5,-55 457.5,-55 457.5,-85"/>
<text text-anchor="start" x="332.5" y="-73" font-family="Helvetica,sans-Serif" font-size="10.00">emlabcpp/experimental</text>
<text text-anchor="middle" x="391" y="-62" font-family="Helvetica,sans-Serif" font-size="10.00">/cfg/handler.h</text>
</a>
</g>
</g>
<!-- Node2&#45;&gt;Node27 -->
<g id="edge6_Node000002_Node000027" class="edge">
<title>Node2&#45;&gt;Node27</title>
<g id="a_edge6_Node000002_Node000027"><a xlink:title=" ">
<path fill="none" stroke="#63b8ff" d="M525.17,-120.99C502.48,-112.54 467,-99.32 438.22,-88.59"/>
<polygon fill="#63b8ff" stroke="#63b8ff" points="439.34,-85.28 428.75,-85.06 436.89,-91.84 439.34,-85.28"/>
</a>
</g>
</g>
<!-- Node28 -->
<g id="Node000028" class="node">
<title>Node28</title>
<g id="a_Node000028"><a xlink:title=" ">
<polygon fill="#e0e0e0" stroke="#999999" points="732.5,-85 599.5,-85 599.5,-55 732.5,-55 732.5,-85"/>
<text text-anchor="start" x="607.5" y="-73" font-family="Helvetica,sans-Serif" font-size="10.00">emlabcpp/experimental</text>
<text text-anchor="middle" x="666" y="-62" font-family="Helvetica,sans-Serif" font-size="10.00">/function_view.h</text>
</a>
</g>
</g>
<!-- Node2&#45;&gt;Node28 -->
<g id="edge7_Node000002_Node000028" class="edge">
<title>Node2&#45;&gt;Node28</title>
<g id="a_edge7_Node000002_Node000028"><a xlink:title=" ">
<path fill="none" stroke="#63b8ff" d="M565.16,-120.99C581.64,-112.82 607.1,-100.2 628.31,-89.69"/>
<polygon fill="#63b8ff" stroke="#63b8ff" points="630,-92.76 637.4,-85.18 626.89,-86.48 630,-92.76"/>
</a>
</g>
</g>
<!-- Node29 -->
<g id="Node000029" class="node">
<title>Node29</title>
<g id="a_Node000029"><a xlink:title=" ">
<polygon fill="#e0e0e0" stroke="#999999" points="306.5,-79.5 157.5,-79.5 157.5,-60.5 306.5,-60.5 306.5,-79.5"/>
<text text-anchor="middle" x="232" y="-67.5" font-family="Helvetica,sans-Serif" font-size="10.00">emlabcpp/static_function.h</text>
</a>
</g>
</g>
<!-- Node2&#45;&gt;Node29 -->
<g id="edge8_Node000002_Node000029" class="edge">
<title>Node2&#45;&gt;Node29</title>
<g id="a_edge8_Node000002_Node000029"><a xlink:title=" ">
<path fill="none" stroke="#63b8ff" d="M502.05,-120.99C445.3,-110.49 348.81,-92.62 287.84,-81.34"/>
<polygon fill="#63b8ff" stroke="#63b8ff" points="288.47,-77.9 278,-79.52 287.2,-84.78 288.47,-77.9"/>
</a>
</g>
</g>
<!-- Node22&#45;&gt;Node3 -->
<g id="edge5_Node000022_Node000003" class="edge">
<title>Node22&#45;&gt;Node3</title>
<g id="a_edge5_Node000022_Node000003"><a xlink:title=" ">
<path fill="none" stroke="#63b8ff" d="M543.43,-60.37C538.94,-51.9 531.97,-38.74 526.31,-28.07"/>
<polygon fill="#63b8ff" stroke="#63b8ff" points="529.37,-26.36 521.59,-19.17 523.18,-29.64 529.37,-26.36"/>
</a>
</g>
</g>
<!-- Node30&#45;&gt;Node3 -->
<g id="edge10_Node000030_Node000003" class="edge">
<title>Node30&#45;&gt;Node3</title>
<g id="a_edge10_Node000030_Node000003"><a xlink:title=" ">
<path fill="none" stroke="#63b8ff" d="M91.4,-175.89C91.06,-147.97 94.68,-85.73 131,-55 181.47,-12.3 380.9,-8.9 471.63,-9.65"/>
<polygon fill="#63b8ff" stroke="#63b8ff" points="471.85,-13.15 481.88,-9.76 471.92,-6.15 471.85,-13.15"/>
</a>
</g>
</g>
<!-- Node31 -->
<g id="Node000031" class="node">
<title>Node31</title>
<g id="a_Node000031"><a xlink:title=" ">
<polygon fill="#e0e0e0" stroke="#999999" points="64,-140 0,-140 0,-121 64,-121 64,-140"/>
<text text-anchor="middle" x="32" y="-128" font-family="Helvetica,sans-Serif" font-size="10.00">algorithm</text>
</a>
</g>
</g>
<!-- Node30&#45;&gt;Node31 -->
<g id="edge11_Node000030_Node000031" class="edge">
<title>Node30&#45;&gt;Node31</title>
<g id="a_edge11_Node000030_Node000031"><a xlink:title=" ">
<path fill="none" stroke="#63b8ff" d="M77.48,-175.84C68.68,-167.26 57.43,-156.3 48.33,-147.42"/>
<polygon fill="#63b8ff" stroke="#63b8ff" points="50.59,-144.74 40.99,-140.27 45.71,-149.75 50.59,-144.74"/>
</a>
</g>
</g>
<!-- Node32&#45;&gt;Node2 -->
<g id="edge13_Node000032_Node000002" class="edge">
<title>Node32&#45;&gt;Node2</title>
<g id="a_edge13_Node000032_Node000002"><a xlink:title=" ">
<path fill="none" stroke="#63b8ff" d="M727.46,-181.49C690.76,-171.27 629.05,-154.08 588.42,-142.76"/>
<polygon fill="#63b8ff" stroke="#63b8ff" points="589.15,-139.33 578.57,-140.02 587.27,-146.07 589.15,-139.33"/>
</a>
</g>
</g>
<!-- Node32&#45;&gt;Node33 -->
<g id="edge14_Node000032_Node000033" class="edge">
<title>Node32&#45;&gt;Node33</title>
<g id="a_edge14_Node000032_Node000033"><a xlink:title=" ">
<path fill="none" stroke="#63b8ff" d="M744.43,-181.37C729.61,-171.95 705.67,-156.73 688.14,-145.58"/>
<polygon fill="#63b8ff" stroke="#63b8ff" points="689.95,-142.58 679.63,-140.17 686.19,-148.49 689.95,-142.58"/>
</a>
</g>
</g>
<!-- Node37 -->
<g id="Node000037" class="node">
<title>Node37</title>
<g id="a_Node000037"><a xlink:href="current_2cfg_8hpp.html" target="_top" xlink:title=" ">
<polygon fill="white" stroke="#666666" points="963.5,-79.5 904.5,-79.5 904.5,-60.5 963.5,-60.5 963.5,-79.5"/>
<text text-anchor="middle" x="934" y="-67.5" font-family="Helvetica,sans-Serif" font-size="10.00">./cfg.hpp</text>
</a>
</g>
</g>
<!-- Node32&#45;&gt;Node37 -->
<g id="edge19_Node000032_Node000037" class="edge">
<title>Node32&#45;&gt;Node37</title>
<g id="a_edge19_Node000032_Node000037"><a xlink:title=" ">
<path fill="none" stroke="#63b8ff" d="M767.64,-181.36C783.13,-167.69 814.76,-140.64 844,-121 864.59,-107.16 889.31,-93.63 907.63,-84.14"/>
<polygon fill="#63b8ff" stroke="#63b8ff" points="909.26,-87.24 916.57,-79.57 906.07,-81.01 909.26,-87.24"/>
</a>
</g>
</g>
<!-- Node38 -->
<g id="Node000038" class="node">
<title>Node38</title>
<g id="a_Node000038"><a xlink:href="current_2iface_8hpp.html" target="_top" xlink:title=" ">
<polygon fill="white" stroke="#666666" points="797,-140 729,-140 729,-121 797,-121 797,-140"/>
<text text-anchor="middle" x="763" y="-128" font-family="Helvetica,sans-Serif" font-size="10.00">./iface.hpp</text>
</a>
</g>
</g>
<!-- Node32&#45;&gt;Node38 -->
<g id="edge21_Node000032_Node000038" class="edge">
<title>Node32&#45;&gt;Node38</title>
<g id="a_edge21_Node000032_Node000038"><a xlink:title=" ">
<path fill="none" stroke="#63b8ff" d="M758.74,-181.37C759.43,-173.25 760.5,-160.81 761.39,-150.39"/>
<polygon fill="#63b8ff" stroke="#63b8ff" points="764.89,-150.43 762.26,-140.17 757.92,-149.83 764.89,-150.43"/>
</a>
</g>
</g>
<!-- Node32&#45;&gt;Node39 -->
<g id="edge23_Node000032_Node000039" class="edge">
<title>Node32&#45;&gt;Node39</title>
<g id="a_edge23_Node000032_Node000039"><a xlink:title=" ">
<path fill="none" stroke="#63b8ff" d="M778.5,-181.49C802.31,-171.62 841.79,-155.23 869.04,-143.93"/>
<polygon fill="#63b8ff" stroke="#63b8ff" points="870.58,-147.08 878.47,-140.02 867.89,-140.62 870.58,-147.08"/>
</a>
</g>
</g>
<!-- Node33&#45;&gt;Node3 -->
<g id="edge15_Node000033_Node000003" class="edge">
<title>Node33&#45;&gt;Node3</title>
<g id="a_edge15_Node000033_Node000003"><a xlink:title=" ">
<path fill="none" stroke="#63b8ff" d="M694.39,-120.92C711.46,-114.13 731.81,-102.77 742,-85 748.63,-73.43 750.46,-65.3 742,-55 719.7,-27.86 621.29,-16.99 562.26,-12.86"/>
<polygon fill="#63b8ff" stroke="#63b8ff" points="562.28,-9.35 552.07,-12.19 561.82,-16.34 562.28,-9.35"/>
</a>
</g>
</g>
<!-- Node33&#45;&gt;Node10 -->
<g id="edge17_Node000033_Node000010" class="edge">
<title>Node33&#45;&gt;Node10</title>
<g id="a_edge17_Node000033_Node000010"><a xlink:title=" ">
<path fill="none" stroke="#63b8ff" d="M691.01,-120.99C720.56,-110.94 769.91,-94.16 803.19,-82.84"/>
<polygon fill="#63b8ff" stroke="#63b8ff" points="804.62,-86.05 812.96,-79.52 802.37,-79.42 804.62,-86.05"/>
</a>
</g>
</g>
<!-- Node33&#45;&gt;Node22 -->
<g id="edge16_Node000033_Node000022" class="edge">
<title>Node33&#45;&gt;Node22</title>
<g id="a_edge16_Node000033_Node000022"><a xlink:title=" ">
<path fill="none" stroke="#63b8ff" d="M648.84,-120.99C629.27,-111.29 597.03,-95.31 574.28,-84.03"/>
<polygon fill="#63b8ff" stroke="#63b8ff" points="575.69,-80.82 565.18,-79.52 572.58,-87.09 575.69,-80.82"/>
</a>
</g>
</g>
<!-- Node33&#45;&gt;Node28 -->
<g id="edge18_Node000033_Node000028" class="edge">
<title>Node33&#45;&gt;Node28</title>
<g id="a_edge18_Node000033_Node000028"><a xlink:title=" ">
<path fill="none" stroke="#63b8ff" d="M666,-120.87C666,-114.11 666,-104.35 666,-95.26"/>
<polygon fill="#63b8ff" stroke="#63b8ff" points="669.5,-95.11 666,-85.11 662.5,-95.11 669.5,-95.11"/>
</a>
</g>
</g>
<!-- Node37&#45;&gt;Node3 -->
<g id="edge20_Node000037_Node000003" class="edge">
<title>Node37&#45;&gt;Node3</title>
<g id="a_edge20_Node000037_Node000003"><a xlink:title=" ">
<path fill="none" stroke="#63b8ff" d="M913.37,-60.39C907.81,-58.35 901.74,-56.37 896,-55 777.63,-26.67 633.97,-16.08 562.28,-12.36"/>
<polygon fill="#63b8ff" stroke="#63b8ff" points="562.39,-8.87 552.23,-11.86 562.04,-15.86 562.39,-8.87"/>
</a>
</g>
</g>
<!-- Node38&#45;&gt;Node10 -->
<g id="edge22_Node000038_Node000010" class="edge">
<title>Node38&#45;&gt;Node10</title>
<g id="a_edge22_Node000038_Node000010"><a xlink:title=" ">
<path fill="none" stroke="#63b8ff" d="M774.07,-120.87C785.81,-111.71 804.59,-97.06 818.76,-86.01"/>
<polygon fill="#63b8ff" stroke="#63b8ff" points="821.16,-88.58 826.89,-79.67 816.85,-83.06 821.16,-88.58"/>
</a>
</g>
</g>
<!-- Node40&#45;&gt;Node3 -->
<g id="edge26_Node000040_Node000003" class="edge">
<title>Node40&#45;&gt;Node3</title>
<g id="a_edge26_Node000040_Node000003"><a xlink:title=" ">
<path fill="none" stroke="#63b8ff" d="M357.29,-185.19C280.11,-171.54 83.7,-128.68 149,-55 170.11,-31.18 378.36,-17.6 471.91,-12.66"/>
<polygon fill="#63b8ff" stroke="#63b8ff" points="472.12,-16.15 481.93,-12.14 471.76,-9.16 472.12,-16.15"/>
</a>
</g>
</g>
<!-- Node41&#45;&gt;Node10 -->
<g id="edge28_Node000041_Node000010" class="edge">
<title>Node41&#45;&gt;Node10</title>
<g id="a_edge28_Node000041_Node000010"><a xlink:title=" ">
<path fill="none" stroke="#63b8ff" d="M956.07,-181.07C960.3,-167 966.12,-139.42 954,-121 945.01,-107.34 907.13,-92.62 877.06,-82.72"/>
<polygon fill="#63b8ff" stroke="#63b8ff" points="877.81,-79.29 867.22,-79.56 875.67,-85.95 877.81,-79.29"/>
</a>
</g>
</g>
</g>
</svg>
